<?xml version="1.0" ?>
<svg baseProfile="full" height="600px" version="1.1" viewBox="-20.1 -20.1 240.2 240.2" width="600px" xmlns="http://www.w3.org/2000/svg" xmlns:ev="http://www.w3.org/2001/xml-events" xmlns:xlink="http://www.w3.org/1999/xlink">
	<defs/>
	<path d="M 0.0,0.0 L 200.0,0.0 L 200.0,200.0 L 0.0,200.0 L 0.0,0.0" fill="#FBFBFB"/>
	<path d="M 0.0,0.0 L 200.0,0.0 L 200.0,200.0 L 0.0,200.0 L 0.0,0.0 M 88.0,8.0 L 71.0,12.0 L 55.0,19.0 L 42.0,28.0 L 31.0,38.0 L 21.0,52.0 L 13.0,68.0 L 9.0,83.0 L 8.0,88.0 L 8.0,111.0 L 11.0,126.0 L 19.0,145.0 L 28.0,158.0 L 37.0,168.0 L 50.0,178.0 L 66.0,186.0 L 82.0,191.0 L 89.0,192.0 L 110.0,192.0 L 125.0,189.0 L 141.0,183.0 L 154.0,175.0 L 167.0,164.0 L 178.0,150.0 L 186.0,134.0 L 191.0,117.0 L 192.0,110.0 L 192.0,89.0 L 189.0,74.0 L 183.0,59.0 L 175.0,46.0 L 164.0,33.0 L 150.0,22.0 L 134.0,14.0 L 117.0,9.0 L 109.0,8.0 L 88.0,8.0" fill="#FCFCFC"/>
	<path d="M 93.0,16.0 L 96.0,16.0 L 96.0,184.0 L 83.0,183.0 L 65.0,177.0 L 53.0,170.0 L 43.0,162.0 L 35.0,154.0 L 25.0,139.0 L 18.0,121.0 L 16.0,111.0 L 16.0,89.0 L 20.0,73.0 L 26.0,59.0 L 36.0,45.0 L 46.0,35.0 L 56.0,28.0 L 70.0,21.0 L 83.0,17.0 L 93.0,16.0" fill="#FCFCFC"/>
	<path d="M 88.0,8.0 L 109.0,8.0 L 125.0,11.0 L 141.0,17.0 L 154.0,25.0 L 167.0,36.0 L 178.0,50.0 L 186.0,66.0 L 191.0,82.0 L 192.0,89.0 L 192.0,110.0 L 189.0,125.0 L 183.0,141.0 L 175.0,154.0 L 164.0,167.0 L 150.0,178.0 L 134.0,186.0 L 117.0,191.0 L 110.0,192.0 L 89.0,192.0 L 74.0,189.0 L 59.0,183.0 L 46.0,175.0 L 33.0,164.0 L 22.0,150.0 L 14.0,134.0 L 10.0,122.0 L 8.0,111.0 L 8.0,88.0 L 12.0,71.0 L 19.0,55.0 L 28.0,42.0 L 37.0,32.0 L 50.0,22.0 L 66.0,14.0 L 82.0,9.0 L 88.0,8.0 M 104.0,16.0 L 104.0,184.0 L 108.0,184.0 L 110.0,181.0 L 121.0,182.0 L 137.0,176.0 L 144.0,172.0 L 146.0,169.0 L 151.0,167.0 L 156.0,163.0 L 158.0,157.0 L 164.0,155.0 L 168.0,150.0 L 170.0,145.0 L 174.0,141.0 L 180.0,127.0 L 182.0,121.0 L 182.0,115.0 L 181.0,110.0 L 184.0,108.0 L 184.0,92.0 L 181.0,90.0 L 182.0,79.0 L 176.0,63.0 L 172.0,56.0 L 169.0,54.0 L 167.0,49.0 L 163.0,44.0 L 157.0,42.0 L 155.0,36.0 L 150.0,32.0 L 145.0,30.0 L 142.0,27.0 L 132.0,22.0 L 121.0,18.0 L 115.0,18.0 L 110.0,19.0 L 108.0,16.0 L 104.0,16.0 M 93.0,16.0 L 79.0,18.0 L 63.0,24.0 L 53.0,30.0 L 43.0,38.0 L 35.0,46.0 L 28.0,56.0 L 21.0,70.0 L 17.0,83.0 L 16.0,89.0 L 16.0,111.0 L 19.0,123.0 L 25.0,139.0 L 33.0,151.0 L 42.0,161.0 L 50.0,168.0 L 63.0,176.0 L 79.0,182.0 L 90.0,184.0 L 96.0,184.0 L 96.0,16.0 L 93.0,16.0" fill="#060606"/>
	<path d="M 122.0,168.0 L 127.0,169.0 L 128.0,174.0 L 126.0,176.0 L 121.0,175.0 L 120.0,170.0 L 122.0,168.0" fill="#0C0C0C"/>
	<path d="M 134.0,156.0 L 139.0,157.0 L 140.0,162.0 L 138.0,164.0 L 133.0,163.0 L 132.0,158.0 L 134.0,156.0" fill="#0C0C0C"/>
	<path d="M 110.0,156.0 L 115.0,157.0 L 116.0,162.0 L 114.0,164.0 L 109.0,163.0 L 108.0,158.0 L 110.0,156.0" fill="#0C0C0C"/>
	<path d="M 146.0,144.0 L 151.0,145.0 L 152.0,150.0 L 150.0,152.0 L 145.0,151.0 L 144.0,146.0 L 146.0,144.0" fill="#0C0C0C"/>
	<path d="M 122.0,144.0 L 127.0,145.0 L 128.0,150.0 L 126.0,152.0 L 121.0,151.0 L 120.0,146.0 L 122.0,144.0" fill="#0C0C0C"/>
	<path d="M 158.0,132.0 L 163.0,133.0 L 164.0,138.0 L 162.0,140.0 L 157.0,139.0 L 156.0,134.0 L 158.0,132.0" fill="#0C0C0C"/>
	<path d="M 134.0,132.0 L 139.0,133.0 L 140.0,138.0 L 138.0,140.0 L 133.0,139.0 L 132.0,134.0 L 134.0,132.0" fill="#0C0C0C"/>
	<path d="M 110.0,132.0 L 115.0,133.0 L 116.0,138.0 L 114.0,140.0 L 109.0,139.0 L 108.0,134.0 L 110.0,132.0" fill="#0C0C0C"/>
	<path d="M 170.0,120.0 L 175.0,121.0 L 176.0,126.0 L 174.0,128.0 L 169.0,127.0 L 168.0,122.0 L 170.0,120.0" fill="#0C0C0C"/>
	<path d="M 146.0,120.0 L 151.0,121.0 L 152.0,126.0 L 150.0,128.0 L 145.0,127.0 L 144.0,122.0 L 146.0,120.0" fill="#0C0C0C"/>
	<path d="M 122.0,120.0 L 127.0,121.0 L 128.0,126.0 L 126.0,128.0 L 121.0,127.0 L 120.0,122.0 L 122.0,120.0" fill="#0C0C0C"/>
	<path d="M 158.0,108.0 L 163.0,109.0 L 164.0,114.0 L 162.0,116.0 L 157.0,115.0 L 156.0,110.0 L 158.0,108.0" fill="#0C0C0C"/>
	<path d="M 134.0,108.0 L 139.0,109.0 L 140.0,114.0 L 138.0,116.0 L 133.0,115.0 L 132.0,110.0 L 134.0,108.0" fill="#0C0C0C"/>
	<path d="M 110.0,108.0 L 115.0,109.0 L 116.0,114.0 L 114.0,116.0 L 109.0,115.0 L 108.0,110.0 L 110.0,108.0" fill="#0C0C0C"/>
	<path d="M 170.0,96.0 L 175.0,97.0 L 176.0,102.0 L 174.0,104.0 L 169.0,103.0 L 168.0,98.0 L 170.0,96.0" fill="#0C0C0C"/>
	<path d="M 146.0,96.0 L 151.0,97.0 L 152.0,102.0 L 150.0,104.0 L 145.0,103.0 L 144.0,98.0 L 146.0,96.0" fill="#0C0C0C"/>
	<path d="M 122.0,96.0 L 127.0,97.0 L 128.0,102.0 L 126.0,104.0 L 121.0,103.0 L 120.0,98.0 L 122.0,96.0" fill="#0C0C0C"/>
	<path d="M 158.0,84.0 L 163.0,85.0 L 164.0,90.0 L 162.0,92.0 L 157.0,91.0 L 156.0,86.0 L 158.0,84.0" fill="#0C0C0C"/>
	<path d="M 134.0,84.0 L 139.0,85.0 L 140.0,90.0 L 138.0,92.0 L 133.0,91.0 L 132.0,86.0 L 134.0,84.0" fill="#0C0C0C"/>
	<path d="M 110.0,84.0 L 115.0,85.0 L 116.0,90.0 L 114.0,92.0 L 109.0,91.0 L 108.0,86.0 L 110.0,84.0" fill="#0C0C0C"/>
	<path d="M 170.0,72.0 L 175.0,73.0 L 176.0,78.0 L 174.0,80.0 L 169.0,79.0 L 168.0,74.0 L 170.0,72.0" fill="#0C0C0C"/>
	<path d="M 146.0,72.0 L 151.0,73.0 L 152.0,78.0 L 150.0,80.0 L 145.0,79.0 L 144.0,74.0 L 146.0,72.0" fill="#0C0C0C"/>
	<path d="M 122.0,72.0 L 127.0,73.0 L 128.0,78.0 L 126.0,80.0 L 121.0,79.0 L 120.0,74.0 L 122.0,72.0" fill="#0C0C0C"/>
	<path d="M 158.0,60.0 L 163.0,61.0 L 164.0,66.0 L 162.0,68.0 L 157.0,67.0 L 156.0,62.0 L 158.0,60.0" fill="#0C0C0C"/>
	<path d="M 134.0,60.0 L 139.0,61.0 L 140.0,66.0 L 138.0,68.0 L 133.0,67.0 L 132.0,62.0 L 134.0,60.0" fill="#0C0C0C"/>
	<path d="M 110.0,60.0 L 115.0,61.0 L 116.0,66.0 L 114.0,68.0 L 109.0,67.0 L 108.0,62.0 L 110.0,60.0" fill="#0C0C0C"/>
	<path d="M 146.0,48.0 L 151.0,49.0 L 152.0,54.0 L 150.0,56.0 L 145.0,55.0 L 144.0,50.0 L 146.0,48.0" fill="#0C0C0C"/>
	<path d="M 122.0,48.0 L 127.0,49.0 L 128.0,54.0 L 126.0,56.0 L 121.0,55.0 L 120.0,50.0 L 122.0,48.0" fill="#0C0C0C"/>
	<path d="M 134.0,36.0 L 139.0,37.0 L 140.0,42.0 L 138.0,44.0 L 133.0,43.0 L 132.0,38.0 L 134.0,36.0" fill="#0C0C0C"/>
	<path d="M 110.0,36.0 L 115.0,37.0 L 116.0,42.0 L 114.0,44.0 L 109.0,43.0 L 108.0,38.0 L 110.0,36.0" fill="#0C0C0C"/>
	<path d="M 122.0,24.0 L 127.0,25.0 L 128.0,30.0 L 126.0,32.0 L 121.0,31.0 L 120.0,26.0 L 122.0,24.0" fill="#0C0C0C"/>
</svg>
