<?xml version="1.0" ?>
<svg baseProfile="full" height="600px" version="1.1" viewBox="-12.06 -12.06 144.12 144.12" width="600px" xmlns="http://www.w3.org/2000/svg" xmlns:ev="http://www.w3.org/2001/xml-events" xmlns:xlink="http://www.w3.org/1999/xlink">
	<defs/>
	<path d="M 0.0,0.0 L 120.0,0.0 L 120.0,120.0 L 0.0,120.0 L 0.0,0.0" fill="#FCFCFC"/>
	<path d="M 59.0,29.0 L 64.0,29.0 L 66.0,31.0 L 69.0,62.0 L 71.0,90.0 L 76.0,77.0 L 84.0,58.0 L 87.0,56.0 L 101.0,55.0 L 105.0,52.0 L 111.0,52.0 L 116.0,57.0 L 115.0,65.0 L 110.0,68.0 L 103.0,67.0 L 101.0,65.0 L 90.0,64.0 L 89.0,69.0 L 74.0,105.0 L 71.0,111.0 L 66.0,112.0 L 64.0,110.0 L 61.0,78.0 L 58.0,39.0 L 58.0,30.0 L 59.0,29.0" fill="#070707"/>
</svg>
