<?xml version="1.0" ?>
<svg baseProfile="full" height="600px" version="1.1" viewBox="-20.1 -20.1 240.2 240.2" width="600px" xmlns="http://www.w3.org/2000/svg" xmlns:ev="http://www.w3.org/2001/xml-events" xmlns:xlink="http://www.w3.org/1999/xlink">
	<defs/>
	<path d="M 0.0,0.0 L 200.0,0.0 L 200.0,200.0 L 0.0,200.0 L 0.0,0.0" fill="#FDFDFD"/>
	<path d="M 86.0,36.0 L 91.0,37.0 L 93.0,42.0 L 95.0,57.0 L 92.0,60.0 L 88.0,61.0 L 80.0,96.0 L 73.0,127.0 L 70.0,132.0 L 65.0,131.0 L 60.0,119.0 L 52.0,97.0 L 51.0,96.0 L 43.0,111.0 L 41.0,112.0 L 14.0,112.0 L 12.0,110.0 L 13.0,105.0 L 14.0,104.0 L 38.0,104.0 L 40.0,98.0 L 49.0,81.0 L 54.0,80.0 L 57.0,84.0 L 66.0,109.0 L 66.0,111.0 L 68.0,111.0 L 70.0,98.0 L 76.0,73.0 L 83.0,41.0 L 86.0,36.0" fill="#080808"/>
</svg>
