<?xml version="1.0" ?>
<svg baseProfile="full" height="600px" version="1.1" viewBox="-12.06 -12.06 144.12 144.12" width="600px" xmlns="http://www.w3.org/2000/svg" xmlns:ev="http://www.w3.org/2001/xml-events" xmlns:xlink="http://www.w3.org/1999/xlink">
	<defs/>
	<path d="M 0.0,0.0 L 120.0,0.0 L 120.0,120.0 L 0.0,120.0 L 0.0,0.0" fill="#FCFCFC"/>
	<path d="M 58.0,8.0 L 63.0,9.0 L 65.0,14.0 L 70.0,77.0 L 72.0,101.0 L 72.0,110.0 L 70.0,112.0 L 65.0,111.0 L 64.0,110.0 L 61.0,78.0 L 58.0,39.0 L 57.0,36.0 L 51.0,55.0 L 47.0,68.0 L 44.0,78.0 L 42.0,80.0 L 37.0,79.0 L 32.0,69.0 L 27.0,57.0 L 24.0,56.0 L 22.0,62.0 L 19.0,64.0 L 6.0,64.0 L 4.0,62.0 L 5.0,57.0 L 6.0,56.0 L 16.0,56.0 L 18.0,51.0 L 22.0,48.0 L 29.0,48.0 L 35.0,53.0 L 39.0,62.0 L 49.0,33.0 L 55.0,12.0 L 58.0,8.0" fill="#080808"/>
</svg>
