<?xml version="1.0" ?>
<svg baseProfile="full" height="600px" version="1.1" viewBox="-16.08 -16.08 192.16 192.16" width="600px" xmlns="http://www.w3.org/2000/svg" xmlns:ev="http://www.w3.org/2001/xml-events" xmlns:xlink="http://www.w3.org/1999/xlink">
	<defs/>
	<path d="M 0.0,0.0 L 160.0,0.0 L 160.0,160.0 L 0.0,160.0 L 0.0,0.0" fill="#5F9C76"/>
	<path d="M 0.0,0.0 L 160.0,0.0 L 160.0,62.0 L 142.0,60.0 L 121.0,57.0 L 105.0,54.0 L 95.0,35.0 L 81.0,7.0 L 81.0,5.0 L 79.0,5.0 L 77.0,11.0 L 56.0,53.0 L 50.0,55.0 L 15.0,60.0 L 3.0,62.0 L 0.0,62.0 L 0.0,0.0" fill="#FDFDFC"/>
	<path d="M 0.0,63.0 L 8.0,69.0 L 39.0,100.0 L 39.0,108.0 L 31.0,155.0 L 47.0,147.0 L 78.0,131.0 L 84.0,132.0 L 121.0,151.0 L 129.0,155.0 L 120.0,101.0 L 154.0,67.0 L 160.0,63.0 L 160.0,160.0 L 0.0,160.0 L 0.0,63.0" fill="#FDFDFC"/>
	<path d="M 79.0,5.0 L 81.0,5.0 L 105.0,53.0 L 135.0,58.0 L 160.0,62.0 L 156.0,67.0 L 148.0,74.0 L 121.0,101.0 L 130.0,156.0 L 124.0,154.0 L 101.0,142.0 L 82.0,132.0 L 76.0,133.0 L 61.0,141.0 L 45.0,149.0 L 34.0,155.0 L 31.0,155.0 L 32.0,144.0 L 38.0,108.0 L 38.0,100.0 L 6.0,68.0 L 0.0,63.0 L 3.0,61.0 L 30.0,57.0 L 55.0,53.0 L 79.0,5.0 M 79.0,14.0 L 58.0,56.0 L 58.0,58.0 L 54.0,58.0 L 54.0,62.0 L 26.0,62.0 L 11.0,64.0 L 9.0,66.0 L 18.0,75.0 L 26.0,82.0 L 43.0,99.0 L 42.0,114.0 L 54.0,114.0 L 54.0,139.0 L 73.0,130.0 L 79.0,127.0 L 83.0,128.0 L 103.0,138.0 L 106.0,139.0 L 106.0,114.0 L 118.0,114.0 L 117.0,99.0 L 141.0,75.0 L 143.0,74.0 L 143.0,72.0 L 147.0,70.0 L 151.0,65.0 L 144.0,63.0 L 135.0,62.0 L 106.0,62.0 L 106.0,58.0 L 102.0,58.0 L 100.0,52.0 L 81.0,14.0 L 79.0,14.0" fill="#B29F55"/>
	<path d="M 106.0,114.0 L 118.0,114.0 L 120.0,120.0 L 124.0,144.0 L 124.0,149.0 L 108.0,141.0 L 106.0,140.0 L 106.0,114.0" fill="#F9E99E"/>
	<path d="M 41.0,114.0 L 54.0,114.0 L 54.0,140.0 L 38.0,148.0 L 36.0,148.0 L 39.0,126.0 L 41.0,114.0" fill="#F9E99F"/>
	<path d="M 51.0,58.0 L 54.0,58.0 L 54.0,62.0 L 30.0,62.0 L 30.0,61.0 L 51.0,58.0" fill="#E4DB95"/>
	<path d="M 106.0,58.0 L 124.0,60.0 L 127.0,62.0 L 106.0,62.0 L 106.0,58.0" fill="#E5DC95"/>
</svg>
