<?xml version="1.0" ?>
<svg baseProfile="full" height="600px" version="1.1" viewBox="-19.296000000000003 -19.296000000000003 230.592 230.592" width="600px" xmlns="http://www.w3.org/2000/svg" xmlns:ev="http://www.w3.org/2001/xml-events" xmlns:xlink="http://www.w3.org/1999/xlink">
	<defs/>
	<path d="M 0.0,0.0 L 192.0,0.0 L 192.0,192.0 L 0.0,192.0 L 0.0,0.0" fill="#FEFDFD"/>
	<path d="M 51.0,31.0 L 55.0,33.0 L 67.0,47.0 L 78.0,59.0 L 85.0,67.0 L 96.0,80.0 L 100.0,78.0 L 110.0,69.0 L 118.0,62.0 L 132.0,50.0 L 144.0,39.0 L 148.0,37.0 L 156.0,45.0 L 161.0,51.0 L 159.0,55.0 L 145.0,67.0 L 133.0,78.0 L 125.0,85.0 L 112.0,96.0 L 114.0,100.0 L 123.0,110.0 L 130.0,118.0 L 142.0,132.0 L 153.0,144.0 L 155.0,148.0 L 147.0,156.0 L 141.0,161.0 L 137.0,159.0 L 128.0,149.0 L 119.0,138.0 L 106.0,124.0 L 99.0,116.0 L 96.0,112.0 L 92.0,114.0 L 82.0,123.0 L 74.0,130.0 L 60.0,142.0 L 48.0,153.0 L 44.0,155.0 L 36.0,147.0 L 31.0,141.0 L 33.0,137.0 L 47.0,125.0 L 59.0,114.0 L 67.0,107.0 L 80.0,96.0 L 78.0,92.0 L 69.0,82.0 L 62.0,74.0 L 50.0,60.0 L 39.0,48.0 L 37.0,44.0 L 44.0,37.0 L 51.0,31.0" fill="#D8543C"/>
</svg>
