<?xml version="1.0" ?>
<svg baseProfile="full" height="600px" version="1.1" viewBox="-19.296000000000003 -19.296000000000003 230.592 230.592" width="600px" xmlns="http://www.w3.org/2000/svg" xmlns:ev="http://www.w3.org/2001/xml-events" xmlns:xlink="http://www.w3.org/1999/xlink">
	<defs/>
	<path d="M 0.0,0.0 L 192.0,0.0 L 192.0,192.0 L 0.0,192.0 L 0.0,0.0" fill="#FEFDFD"/>
	<path d="M 115.0,20.0 L 120.0,21.0 L 136.0,28.0 L 130.0,44.0 L 114.0,82.0 L 112.0,87.0 L 112.0,90.0 L 138.0,101.0 L 162.0,111.0 L 172.0,115.0 L 171.0,120.0 L 164.0,136.0 L 155.0,133.0 L 119.0,118.0 L 105.0,112.0 L 101.0,111.0 L 100.0,116.0 L 84.0,155.0 L 77.0,172.0 L 72.0,171.0 L 57.0,165.0 L 56.0,162.0 L 72.0,124.0 L 80.0,104.0 L 80.0,102.0 L 32.0,82.0 L 20.0,77.0 L 21.0,72.0 L 27.0,57.0 L 29.0,56.0 L 66.0,71.0 L 87.0,80.0 L 90.0,80.0 L 106.0,42.0 L 115.0,20.0" fill="#9D7442"/>
</svg>
