<?xml version="1.0" ?>
<svg baseProfile="full" height="600px" version="1.1" viewBox="-20.1 -20.1 240.2 240.2" width="600px" xmlns="http://www.w3.org/2000/svg" xmlns:ev="http://www.w3.org/2001/xml-events" xmlns:xlink="http://www.w3.org/1999/xlink">
	<defs/>
	<path d="M 0.0,0.0 L 200.0,0.0 L 200.0,200.0 L 0.0,200.0 L 0.0,0.0" fill="#FDFDFD"/>
	<path d="M 0.0,0.0 L 200.0,0.0 L 200.0,200.0 L 0.0,200.0 L 0.0,0.0 M 34.0,32.0 L 32.0,34.0 L 32.0,174.0 L 34.0,176.0 L 125.0,177.0 L 132.0,183.0 L 143.0,188.0 L 160.0,188.0 L 172.0,183.0 L 181.0,175.0 L 187.0,163.0 L 188.0,160.0 L 188.0,143.0 L 181.0,129.0 L 172.0,121.0 L 168.0,120.0 L 168.0,34.0 L 166.0,32.0 L 34.0,32.0" fill="#FDFDFD"/>
	<path d="M 34.0,32.0 L 166.0,32.0 L 168.0,34.0 L 168.0,120.0 L 173.0,122.0 L 181.0,129.0 L 188.0,143.0 L 188.0,160.0 L 183.0,172.0 L 175.0,181.0 L 163.0,187.0 L 160.0,188.0 L 143.0,188.0 L 129.0,181.0 L 125.0,177.0 L 34.0,176.0 L 32.0,174.0 L 32.0,34.0 L 34.0,32.0 M 40.0,40.0 L 40.0,168.0 L 119.0,168.0 L 117.0,160.0 L 117.0,144.0 L 121.0,134.0 L 127.0,126.0 L 136.0,120.0 L 144.0,117.0 L 160.0,116.0 L 160.0,40.0 L 40.0,40.0" fill="#030303"/>
	<path d="M 146.0,123.0 L 157.0,123.0 L 166.0,126.0 L 176.0,135.0 L 180.0,142.0 L 181.0,146.0 L 181.0,158.0 L 177.0,167.0 L 170.0,175.0 L 164.0,179.0 L 158.0,181.0 L 147.0,181.0 L 138.0,178.0 L 128.0,169.0 L 124.0,161.0 L 123.0,157.0 L 123.0,146.0 L 127.0,137.0 L 134.0,129.0 L 140.0,125.0 L 146.0,123.0" fill="#FAFAFA"/>
	<path d="M 150.0,130.0 L 155.0,131.0 L 156.0,132.0 L 156.0,148.0 L 172.0,148.0 L 174.0,150.0 L 173.0,155.0 L 172.0,156.0 L 156.0,156.0 L 156.0,172.0 L 154.0,174.0 L 149.0,173.0 L 148.0,172.0 L 148.0,156.0 L 132.0,156.0 L 130.0,154.0 L 131.0,149.0 L 132.0,148.0 L 148.0,148.0 L 148.0,132.0 L 150.0,130.0" fill="#151515"/>
	<path d="M 78.0,52.0 L 122.0,52.0 L 124.0,54.0 L 123.0,59.0 L 122.0,60.0 L 78.0,60.0 L 76.0,58.0 L 77.0,53.0 L 78.0,52.0" fill="#020202"/>
</svg>
