<?xml version="1.0" ?>
<svg baseProfile="full" height="600px" version="1.1" viewBox="-16.08 -16.08 192.16 192.16" width="600px" xmlns="http://www.w3.org/2000/svg" xmlns:ev="http://www.w3.org/2001/xml-events" xmlns:xlink="http://www.w3.org/1999/xlink">
	<defs/>
	<path d="M 0.0,0.0 L 160.0,0.0 L 160.0,160.0 L 0.0,160.0 L 0.0,0.0" fill="#FDFDFC"/>
	<path d="M 79.0,5.0 L 81.0,5.0 L 105.0,53.0 L 129.0,57.0 L 156.0,61.0 L 159.0,62.0 L 159.0,64.0 L 157.0,64.0 L 157.0,66.0 L 149.0,73.0 L 122.0,100.0 L 123.0,113.0 L 130.0,156.0 L 124.0,154.0 L 101.0,142.0 L 82.0,132.0 L 76.0,133.0 L 37.0,153.0 L 31.0,156.0 L 31.0,149.0 L 38.0,107.0 L 38.0,100.0 L 6.0,68.0 L 0.0,63.0 L 3.0,61.0 L 22.0,58.0 L 36.0,56.0 L 55.0,53.0 L 79.0,5.0" fill="#609D77"/>
</svg>
