<?xml version="1.0" ?>
<svg baseProfile="full" height="600px" version="1.1" viewBox="-20.1 -20.1 240.2 240.2" width="600px" xmlns="http://www.w3.org/2000/svg" xmlns:ev="http://www.w3.org/2001/xml-events" xmlns:xlink="http://www.w3.org/1999/xlink">
	<defs/>
	<path d="M 0.0,0.0 L 200.0,0.0 L 200.0,200.0 L 0.0,200.0 L 0.0,0.0" fill="#030303"/>
	<path d="M 18.0,65.0 L 182.0,65.0 L 184.0,67.0 L 184.0,128.0 L 174.0,123.0 L 165.0,121.0 L 152.0,121.0 L 142.0,125.0 L 133.0,131.0 L 127.0,138.0 L 123.0,146.0 L 121.0,152.0 L 121.0,165.0 L 124.0,176.0 L 126.0,181.0 L 18.0,181.0 L 16.0,179.0 L 16.0,67.0 L 18.0,65.0" fill="#FDFDFD"/>
	<path d="M 0.0,0.0 L 200.0,0.0 L 200.0,154.0 L 198.0,150.0 L 195.0,141.0 L 192.0,137.0 L 191.0,45.0 L 186.0,39.0 L 184.0,38.0 L 71.0,37.0 L 64.0,26.0 L 57.0,22.0 L 16.0,22.0 L 10.0,27.0 L 9.0,29.0 L 9.0,180.0 L 12.0,186.0 L 16.0,188.0 L 133.0,189.0 L 143.0,196.0 L 154.0,199.0 L 154.0,200.0 L 0.0,200.0 L 0.0,0.0" fill="#FCFCFC"/>
	<path d="M 153.0,128.0 L 166.0,128.0 L 178.0,133.0 L 184.0,138.0 L 190.0,148.0 L 192.0,153.0 L 192.0,167.0 L 186.0,179.0 L 182.0,184.0 L 172.0,190.0 L 166.0,192.0 L 153.0,192.0 L 141.0,186.0 L 136.0,182.0 L 130.0,172.0 L 128.0,166.0 L 128.0,153.0 L 132.0,144.0 L 138.0,136.0 L 147.0,130.0 L 153.0,128.0" fill="#F8F8F8"/>
	<path d="M 18.0,29.0 L 57.0,29.0 L 64.0,40.0 L 70.0,44.0 L 182.0,45.0 L 184.0,47.0 L 184.0,57.0 L 16.0,57.0 L 16.0,31.0 L 18.0,29.0" fill="#FBFBFB"/>
	<path d="M 160.0,136.0 L 165.0,137.0 L 166.0,138.0 L 165.0,157.0 L 178.0,157.0 L 183.0,159.0 L 184.0,164.0 L 182.0,166.0 L 164.0,166.0 L 162.0,182.0 L 160.0,184.0 L 155.0,183.0 L 154.0,182.0 L 154.0,173.0 L 155.0,163.0 L 144.0,163.0 L 137.0,161.0 L 136.0,156.0 L 138.0,154.0 L 156.0,155.0 L 158.0,138.0 L 160.0,136.0" fill="#0B0B0B"/>
	<path d="M 199.0,166.0 L 200.0,166.0 L 200.0,200.0 L 166.0,200.0 L 170.0,198.0 L 180.0,194.0 L 188.0,188.0 L 194.0,180.0 L 198.0,170.0 L 199.0,166.0" fill="#F6F6F6"/>
</svg>
