<?xml version="1.0" ?>
<svg baseProfile="full" height="600px" version="1.1" viewBox="-20.1 -20.1 240.2 240.2" width="600px" xmlns="http://www.w3.org/2000/svg" xmlns:ev="http://www.w3.org/2001/xml-events" xmlns:xlink="http://www.w3.org/1999/xlink">
	<defs/>
	<path d="M 0.0,0.0 L 200.0,0.0 L 200.0,200.0 L 0.0,200.0 L 0.0,0.0" fill="#030303"/>
	<path d="M 0.0,0.0 L 52.0,0.0 L 52.0,42.0 L 34.0,43.0 L 33.0,44.0 L 33.0,174.0 L 34.0,175.0 L 117.0,176.0 L 125.0,185.0 L 135.0,191.0 L 146.0,194.0 L 157.0,194.0 L 169.0,191.0 L 179.0,185.0 L 188.0,175.0 L 192.0,166.0 L 194.0,157.0 L 194.0,144.0 L 189.0,131.0 L 182.0,122.0 L 173.0,115.0 L 168.0,112.0 L 167.0,44.0 L 166.0,43.0 L 148.0,42.0 L 148.0,0.0 L 200.0,0.0 L 200.0,200.0 L 0.0,200.0 L 0.0,0.0" fill="#FDFDFD"/>
	<path d="M 40.0,50.0 L 160.0,50.0 L 160.0,110.0 L 144.0,110.0 L 133.0,114.0 L 124.0,120.0 L 116.0,129.0 L 112.0,137.0 L 110.0,144.0 L 110.0,158.0 L 112.0,168.0 L 40.0,168.0 L 40.0,50.0" fill="#FDFDFD"/>
	<path d="M 144.0,118.0 L 159.0,118.0 L 171.0,123.0 L 179.0,130.0 L 184.0,138.0 L 186.0,144.0 L 186.0,159.0 L 181.0,171.0 L 174.0,179.0 L 162.0,185.0 L 159.0,186.0 L 144.0,186.0 L 135.0,182.0 L 127.0,176.0 L 121.0,167.0 L 118.0,159.0 L 118.0,144.0 L 122.0,135.0 L 128.0,127.0 L 138.0,120.0 L 144.0,118.0" fill="#F7F7F7"/>
	<path d="M 60.0,0.0 L 140.0,0.0 L 140.0,42.0 L 60.0,42.0 L 60.0,0.0" fill="#FDFDFD"/>
	<path d="M 150.0,126.0 L 155.0,127.0 L 156.0,128.0 L 156.0,148.0 L 176.0,148.0 L 178.0,150.0 L 177.0,155.0 L 176.0,156.0 L 156.0,156.0 L 156.0,176.0 L 154.0,178.0 L 149.0,177.0 L 148.0,176.0 L 148.0,156.0 L 128.0,156.0 L 126.0,154.0 L 127.0,149.0 L 128.0,148.0 L 148.0,148.0 L 148.0,128.0 L 150.0,126.0" fill="#030303"/>
	<path d="M 78.0,62.0 L 122.0,62.0 L 124.0,64.0 L 123.0,69.0 L 122.0,70.0 L 78.0,70.0 L 76.0,68.0 L 77.0,63.0 L 78.0,62.0" fill="#020202"/>
</svg>
