<?xml version="1.0" ?>
<svg baseProfile="full" height="600px" version="1.1" viewBox="-20.1 -20.1 240.2 240.2" width="600px" xmlns="http://www.w3.org/2000/svg" xmlns:ev="http://www.w3.org/2001/xml-events" xmlns:xlink="http://www.w3.org/1999/xlink">
	<defs/>
	<path d="M 0.0,0.0 L 200.0,0.0 L 200.0,200.0 L 0.0,200.0 L 0.0,0.0" fill="#040404"/>
	<path d="M 0.0,0.0 L 200.0,0.0 L 200.0,76.0 L 197.0,75.0 L 128.0,71.0 L 113.0,31.0 L 103.0,6.0 L 98.0,5.0 L 94.0,13.0 L 78.0,55.0 L 72.0,71.0 L 2.0,75.0 L 0.0,76.0 L 0.0,0.0" fill="#FDFDFD"/>
	<path d="M 0.0,80.0 L 8.0,86.0 L 17.0,94.0 L 31.0,105.0 L 45.0,117.0 L 54.0,124.0 L 52.0,134.0 L 45.0,161.0 L 40.0,178.0 L 37.0,189.0 L 37.0,194.0 L 42.0,195.0 L 67.0,179.0 L 90.0,164.0 L 99.0,158.0 L 104.0,160.0 L 124.0,173.0 L 141.0,184.0 L 158.0,195.0 L 163.0,194.0 L 162.0,185.0 L 157.0,167.0 L 151.0,145.0 L 146.0,128.0 L 147.0,123.0 L 158.0,114.0 L 169.0,105.0 L 180.0,96.0 L 191.0,87.0 L 197.0,82.0 L 199.0,82.0 L 200.0,80.0 L 200.0,200.0 L 0.0,200.0 L 0.0,80.0" fill="#FCFCFC"/>
	<path d="M 125.0,133.0 L 140.0,133.0 L 147.0,157.0 L 153.0,179.0 L 153.0,182.0 L 148.0,180.0 L 128.0,167.0 L 125.0,165.0 L 125.0,133.0" fill="#F9F9F9"/>
	<path d="M 60.0,133.0 L 75.0,133.0 L 75.0,165.0 L 58.0,176.0 L 49.0,182.0 L 47.0,182.0 L 49.0,172.0 L 55.0,150.0 L 60.0,133.0" fill="#FAFAFA"/>
	<path d="M 58.0,79.0 L 75.0,79.0 L 75.0,83.0 L 16.0,83.0 L 16.0,82.0 L 35.0,80.0 L 58.0,79.0" fill="#F4F4F4"/>
	<path d="M 125.0,79.0 L 141.0,79.0 L 176.0,81.0 L 184.0,82.0 L 184.0,83.0 L 125.0,83.0 L 125.0,79.0" fill="#F6F6F6"/>
</svg>
