<?xml version="1.0" ?>
<svg baseProfile="full" height="600px" version="1.1" viewBox="-20.1 -20.1 240.2 240.2" width="600px" xmlns="http://www.w3.org/2000/svg" xmlns:ev="http://www.w3.org/2001/xml-events" xmlns:xlink="http://www.w3.org/1999/xlink">
	<defs/>
	<path d="M 0.0,0.0 L 200.0,0.0 L 200.0,200.0 L 0.0,200.0 L 0.0,0.0" fill="#030303"/>
	<path d="M 0.0,0.0 L 52.0,0.0 L 52.0,44.0 L 34.0,45.0 L 33.0,46.0 L 33.0,174.0 L 34.0,175.0 L 120.0,176.0 L 127.0,183.0 L 135.0,188.0 L 144.0,191.0 L 158.0,191.0 L 166.0,189.0 L 177.0,183.0 L 185.0,174.0 L 190.0,164.0 L 191.0,158.0 L 191.0,144.0 L 187.0,133.0 L 180.0,124.0 L 172.0,118.0 L 168.0,116.0 L 167.0,46.0 L 166.0,45.0 L 148.0,44.0 L 148.0,0.0 L 200.0,0.0 L 200.0,200.0 L 0.0,200.0 L 0.0,0.0" fill="#FDFDFD"/>
	<path d="M 40.0,52.0 L 160.0,52.0 L 160.0,113.0 L 144.0,113.0 L 134.0,117.0 L 125.0,123.0 L 119.0,130.0 L 115.0,138.0 L 113.0,144.0 L 113.0,157.0 L 115.0,168.0 L 40.0,168.0 L 40.0,52.0" fill="#FDFDFD"/>
	<path d="M 60.0,0.0 L 140.0,0.0 L 140.0,44.0 L 60.0,44.0 L 60.0,0.0" fill="#FDFDFD"/>
	<path d="M 145.0,120.0 L 158.0,120.0 L 170.0,125.0 L 176.0,130.0 L 182.0,140.0 L 184.0,145.0 L 184.0,159.0 L 178.0,171.0 L 174.0,176.0 L 164.0,182.0 L 158.0,184.0 L 145.0,184.0 L 133.0,178.0 L 128.0,174.0 L 122.0,164.0 L 120.0,158.0 L 120.0,145.0 L 124.0,136.0 L 130.0,128.0 L 139.0,122.0 L 145.0,120.0" fill="#FAFAFA"/>
	<path d="M 150.0,128.0 L 155.0,129.0 L 156.0,130.0 L 156.0,148.0 L 174.0,148.0 L 176.0,150.0 L 175.0,155.0 L 174.0,156.0 L 156.0,156.0 L 156.0,174.0 L 154.0,176.0 L 149.0,175.0 L 148.0,174.0 L 148.0,156.0 L 130.0,156.0 L 128.0,154.0 L 129.0,149.0 L 130.0,148.0 L 148.0,148.0 L 148.0,130.0 L 150.0,128.0" fill="#020202"/>
	<path d="M 78.0,64.0 L 122.0,64.0 L 124.0,66.0 L 123.0,71.0 L 122.0,72.0 L 78.0,72.0 L 76.0,70.0 L 77.0,65.0 L 78.0,64.0" fill="#050505"/>
</svg>
