<?xml version="1.0" ?>
<svg baseProfile="full" height="600px" version="1.1" viewBox="-20.1 -20.1 240.2 240.2" width="600px" xmlns="http://www.w3.org/2000/svg" xmlns:ev="http://www.w3.org/2001/xml-events" xmlns:xlink="http://www.w3.org/1999/xlink">
	<defs/>
	<path d="M 0.0,0.0 L 200.0,0.0 L 200.0,200.0 L 0.0,200.0 L 0.0,0.0" fill="#FBFBFB"/>
	<path d="M 0.0,0.0 L 200.0,0.0 L 200.0,76.0 L 197.0,75.0 L 128.0,71.0 L 113.0,31.0 L 103.0,6.0 L 98.0,5.0 L 94.0,13.0 L 78.0,55.0 L 72.0,71.0 L 2.0,75.0 L 0.0,76.0 L 0.0,0.0" fill="#FDFDFD"/>
	<path d="M 0.0,80.0 L 8.0,86.0 L 17.0,94.0 L 31.0,105.0 L 45.0,117.0 L 54.0,124.0 L 52.0,134.0 L 45.0,161.0 L 40.0,178.0 L 37.0,189.0 L 37.0,194.0 L 42.0,195.0 L 67.0,179.0 L 90.0,164.0 L 99.0,158.0 L 104.0,160.0 L 124.0,173.0 L 144.0,186.0 L 158.0,195.0 L 163.0,194.0 L 162.0,185.0 L 157.0,167.0 L 151.0,145.0 L 146.0,128.0 L 147.0,123.0 L 158.0,114.0 L 169.0,105.0 L 180.0,96.0 L 191.0,87.0 L 197.0,82.0 L 199.0,82.0 L 200.0,80.0 L 200.0,200.0 L 0.0,200.0 L 0.0,80.0" fill="#FCFCFC"/>
	<path d="M 98.0,4.0 L 103.0,5.0 L 107.0,13.0 L 128.0,68.0 L 128.0,71.0 L 148.0,71.0 L 197.0,74.0 L 200.0,76.0 L 199.0,82.0 L 189.0,90.0 L 178.0,99.0 L 167.0,108.0 L 156.0,117.0 L 147.0,124.0 L 148.0,130.0 L 153.0,150.0 L 158.0,167.0 L 164.0,189.0 L 164.0,194.0 L 162.0,196.0 L 156.0,195.0 L 141.0,185.0 L 124.0,174.0 L 101.0,159.0 L 96.0,161.0 L 73.0,176.0 L 56.0,187.0 L 42.0,196.0 L 37.0,195.0 L 36.0,194.0 L 37.0,185.0 L 42.0,167.0 L 48.0,145.0 L 53.0,127.0 L 52.0,123.0 L 42.0,115.0 L 31.0,106.0 L 20.0,97.0 L 9.0,88.0 L 0.0,80.0 L 1.0,75.0 L 2.0,74.0 L 51.0,71.0 L 72.0,71.0 L 73.0,65.0 L 92.0,16.0 L 96.0,6.0 L 98.0,4.0 M 99.0,20.0 L 81.0,67.0 L 77.0,76.0 L 75.0,78.0 L 35.0,80.0 L 16.0,82.0 L 20.0,87.0 L 34.0,98.0 L 48.0,110.0 L 58.0,118.0 L 61.0,120.0 L 61.0,128.0 L 54.0,155.0 L 49.0,172.0 L 47.0,182.0 L 52.0,180.0 L 75.0,165.0 L 92.0,154.0 L 97.0,151.0 L 103.0,151.0 L 122.0,163.0 L 145.0,178.0 L 151.0,182.0 L 153.0,182.0 L 151.0,172.0 L 142.0,139.0 L 139.0,128.0 L 139.0,120.0 L 153.0,109.0 L 167.0,97.0 L 177.0,89.0 L 184.0,83.0 L 184.0,82.0 L 164.0,80.0 L 125.0,78.0 L 122.0,75.0 L 101.0,20.0 L 99.0,20.0" fill="#080808"/>
	<path d="M 96.0,80.0 L 104.0,80.0 L 104.0,104.0 L 128.0,104.0 L 128.0,112.0 L 104.0,112.0 L 104.0,136.0 L 96.0,136.0 L 96.0,112.0 L 72.0,112.0 L 72.0,104.0 L 96.0,104.0 L 96.0,80.0" fill="#000000"/>
</svg>
