<?xml version="1.0" ?>
<svg baseProfile="full" height="600px" version="1.1" viewBox="-16.08 -16.08 192.16 192.16" width="600px" xmlns="http://www.w3.org/2000/svg" xmlns:ev="http://www.w3.org/2001/xml-events" xmlns:xlink="http://www.w3.org/1999/xlink">
	<defs/>
	<path d="M 0.0,0.0 L 160.0,0.0 L 160.0,160.0 L 0.0,160.0 L 0.0,0.0" fill="#629D76"/>
	<path d="M 0.0,0.0 L 160.0,0.0 L 160.0,62.0 L 142.0,60.0 L 121.0,57.0 L 105.0,54.0 L 95.0,35.0 L 81.0,7.0 L 81.0,5.0 L 79.0,5.0 L 77.0,11.0 L 56.0,53.0 L 50.0,55.0 L 30.0,58.0 L 15.0,60.0 L 3.0,62.0 L 0.0,62.0 L 0.0,0.0" fill="#FDFDFC"/>
	<path d="M 0.0,63.0 L 8.0,69.0 L 39.0,100.0 L 38.0,113.0 L 31.0,155.0 L 47.0,147.0 L 78.0,131.0 L 84.0,132.0 L 121.0,151.0 L 129.0,155.0 L 121.0,107.0 L 121.0,100.0 L 155.0,66.0 L 157.0,66.0 L 157.0,64.0 L 160.0,63.0 L 160.0,160.0 L 0.0,160.0 L 0.0,63.0" fill="#FDFDFC"/>
</svg>
