<?xml version="1.0" ?>
<svg baseProfile="full" height="600px" version="1.1" viewBox="-20.1 -20.1 240.2 240.2" width="600px" xmlns="http://www.w3.org/2000/svg" xmlns:ev="http://www.w3.org/2001/xml-events" xmlns:xlink="http://www.w3.org/1999/xlink">
	<defs/>
	<path d="M 0.0,0.0 L 200.0,0.0 L 200.0,200.0 L 0.0,200.0 L 0.0,0.0" fill="#FCFCFC"/>
	<path d="M 152.0,120.0 L 165.0,120.0 L 174.0,122.0 L 185.0,128.0 L 192.0,135.0 L 197.0,143.0 L 200.0,154.0 L 200.0,200.0 L 154.0,200.0 L 141.0,196.0 L 132.0,189.0 L 126.0,182.0 L 122.0,174.0 L 120.0,165.0 L 120.0,152.0 L 124.0,142.0 L 130.0,133.0 L 138.0,126.0 L 148.0,121.0 L 152.0,120.0" fill="#F7F7F7"/>
	<path d="M 115.0,47.0 L 131.0,47.0 L 139.0,49.0 L 149.0,54.0 L 159.0,63.0 L 165.0,73.0 L 168.0,82.0 L 168.0,93.0 L 177.0,94.0 L 185.0,98.0 L 191.0,103.0 L 198.0,114.0 L 200.0,120.0 L 200.0,130.0 L 198.0,132.0 L 193.0,131.0 L 192.0,130.0 L 190.0,119.0 L 186.0,111.0 L 178.0,104.0 L 170.0,101.0 L 162.0,100.0 L 160.0,98.0 L 159.0,83.0 L 155.0,73.0 L 149.0,65.0 L 140.0,59.0 L 131.0,56.0 L 118.0,56.0 L 109.0,59.0 L 100.0,65.0 L 92.0,76.0 L 87.0,76.0 L 82.0,70.0 L 73.0,65.0 L 69.0,64.0 L 56.0,64.0 L 44.0,70.0 L 38.0,79.0 L 36.0,84.0 L 35.0,93.0 L 30.0,98.0 L 20.0,104.0 L 14.0,113.0 L 12.0,118.0 L 12.0,133.0 L 18.0,145.0 L 25.0,151.0 L 35.0,155.0 L 110.0,156.0 L 112.0,158.0 L 111.0,163.0 L 110.0,164.0 L 35.0,164.0 L 25.0,161.0 L 16.0,155.0 L 8.0,146.0 L 3.0,134.0 L 3.0,118.0 L 6.0,109.0 L 12.0,100.0 L 20.0,93.0 L 26.0,90.0 L 28.0,79.0 L 34.0,68.0 L 43.0,60.0 L 51.0,56.0 L 56.0,55.0 L 72.0,55.0 L 86.0,62.0 L 90.0,65.0 L 92.0,61.0 L 101.0,53.0 L 112.0,48.0 L 115.0,47.0" fill="#060606"/>
	<path d="M 152.0,120.0 L 165.0,120.0 L 174.0,122.0 L 185.0,128.0 L 192.0,135.0 L 197.0,143.0 L 200.0,154.0 L 200.0,200.0 L 154.0,200.0 L 141.0,196.0 L 132.0,189.0 L 126.0,182.0 L 122.0,174.0 L 120.0,165.0 L 120.0,152.0 L 124.0,142.0 L 130.0,133.0 L 138.0,126.0 L 148.0,121.0 L 152.0,120.0 M 153.0,128.0 L 144.0,132.0 L 135.0,139.0 L 129.0,150.0 L 128.0,153.0 L 128.0,166.0 L 133.0,178.0 L 138.0,184.0 L 148.0,190.0 L 153.0,192.0 L 166.0,192.0 L 178.0,187.0 L 184.0,182.0 L 190.0,172.0 L 192.0,167.0 L 192.0,153.0 L 186.0,141.0 L 182.0,136.0 L 172.0,130.0 L 166.0,128.0 L 153.0,128.0" fill="#070707"/>
	<path d="M 172.0,142.0 L 177.0,143.0 L 178.0,148.0 L 166.0,160.0 L 167.0,164.0 L 176.0,173.0 L 175.0,179.0 L 169.0,179.0 L 159.0,168.0 L 152.0,174.0 L 148.0,178.0 L 143.0,177.0 L 142.0,172.0 L 152.0,162.0 L 150.0,158.0 L 141.0,148.0 L 142.0,144.0 L 143.0,143.0 L 148.0,143.0 L 155.0,150.0 L 158.0,154.0 L 162.0,152.0 L 172.0,142.0" fill="#050505"/>
	<path d="M 199.0,166.0 L 200.0,166.0 L 200.0,200.0 L 166.0,200.0 L 166.0,199.0 L 174.0,197.0 L 185.0,191.0 L 193.0,182.0 L 198.0,172.0 L 199.0,166.0" fill="#F8F8F8"/>
</svg>
