<?xml version="1.0" ?>
<svg baseProfile="full" height="600px" version="1.1" viewBox="-19.296000000000003 -19.296000000000003 230.592 230.592" width="600px" xmlns="http://www.w3.org/2000/svg" xmlns:ev="http://www.w3.org/2001/xml-events" xmlns:xlink="http://www.w3.org/1999/xlink">
	<defs/>
	<path d="M 0.0,0.0 L 192.0,0.0 L 192.0,192.0 L 0.0,192.0 L 0.0,0.0" fill="#FDFDFC"/>
	<path d="M 17.0,24.0 L 39.0,24.0 L 45.0,28.0 L 49.0,32.0 L 61.0,67.0 L 70.0,94.0 L 71.0,95.0 L 134.0,95.0 L 142.0,79.0 L 155.0,50.0 L 160.0,40.0 L 177.0,40.0 L 174.0,49.0 L 155.0,91.0 L 147.0,109.0 L 143.0,112.0 L 64.0,112.0 L 66.0,125.0 L 69.0,127.0 L 148.0,128.0 L 148.0,144.0 L 142.0,145.0 L 147.0,150.0 L 148.0,152.0 L 148.0,159.0 L 145.0,165.0 L 139.0,168.0 L 132.0,168.0 L 127.0,165.0 L 124.0,159.0 L 124.0,152.0 L 127.0,147.0 L 130.0,145.0 L 82.0,145.0 L 87.0,150.0 L 88.0,152.0 L 88.0,159.0 L 85.0,165.0 L 79.0,168.0 L 72.0,168.0 L 67.0,165.0 L 64.0,159.0 L 64.0,152.0 L 67.0,147.0 L 70.0,145.0 L 60.0,141.0 L 52.0,134.0 L 48.0,125.0 L 47.0,79.0 L 34.0,41.0 L 17.0,40.0 L 12.0,35.0 L 12.0,29.0 L 17.0,24.0" fill="#029688"/>
	<path d="M 115.0,34.0 L 123.0,40.0 L 123.0,44.0 L 114.0,54.0 L 116.0,58.0 L 123.0,65.0 L 125.0,66.0 L 124.0,70.0 L 119.0,76.0 L 115.0,75.0 L 106.0,66.0 L 102.0,68.0 L 93.0,78.0 L 85.0,72.0 L 85.0,68.0 L 94.0,58.0 L 94.0,55.0 L 86.0,48.0 L 83.0,45.0 L 85.0,40.0 L 91.0,35.0 L 99.0,43.0 L 104.0,46.0 L 115.0,34.0" fill="#F4483C"/>
	<path d="M 134.0,144.0 L 142.0,145.0 L 147.0,150.0 L 148.0,152.0 L 148.0,159.0 L 145.0,165.0 L 139.0,168.0 L 132.0,168.0 L 127.0,165.0 L 124.0,159.0 L 124.0,152.0 L 127.0,147.0 L 134.0,144.0" fill="#3B4A52"/>
	<path d="M 74.0,144.0 L 82.0,145.0 L 87.0,150.0 L 88.0,152.0 L 88.0,159.0 L 85.0,165.0 L 79.0,168.0 L 72.0,168.0 L 67.0,165.0 L 64.0,159.0 L 64.0,152.0 L 67.0,147.0 L 74.0,144.0" fill="#3B4A52"/>
	<path d="M 17.0,24.0 L 23.0,24.0 L 28.0,29.0 L 28.0,35.0 L 23.0,40.0 L 17.0,40.0 L 12.0,35.0 L 12.0,29.0 L 17.0,24.0" fill="#056D60"/>
	<path d="M 134.0,152.0 L 139.0,153.0 L 140.0,158.0 L 138.0,160.0 L 133.0,159.0 L 132.0,154.0 L 134.0,152.0" fill="#5D7987"/>
	<path d="M 74.0,152.0 L 79.0,153.0 L 80.0,158.0 L 78.0,160.0 L 73.0,159.0 L 72.0,154.0 L 74.0,152.0" fill="#5D7987"/>
</svg>
