<?xml version="1.0" ?>
<svg baseProfile="full" height="600px" version="1.1" viewBox="-16.08 -16.08 192.16 192.16" width="600px" xmlns="http://www.w3.org/2000/svg" xmlns:ev="http://www.w3.org/2001/xml-events" xmlns:xlink="http://www.w3.org/1999/xlink">
	<defs/>
	<path d="M 0.0,0.0 L 160.0,0.0 L 160.0,160.0 L 0.0,160.0 L 0.0,0.0" fill="#F58E8E"/>
	<path d="M 0.0,0.0 L 160.0,0.0 L 160.0,160.0 L 0.0,160.0 L 0.0,0.0 M 73.0,8.0 L 64.0,9.0 L 50.0,14.0 L 39.0,20.0 L 27.0,31.0 L 20.0,39.0 L 12.0,55.0 L 9.0,64.0 L 8.0,69.0 L 8.0,87.0 L 10.0,100.0 L 17.0,116.0 L 25.0,127.0 L 35.0,137.0 L 46.0,144.0 L 60.0,150.0 L 69.0,152.0 L 90.0,152.0 L 105.0,148.0 L 121.0,140.0 L 133.0,129.0 L 140.0,121.0 L 148.0,105.0 L 151.0,95.0 L 152.0,90.0 L 152.0,69.0 L 149.0,57.0 L 141.0,41.0 L 134.0,32.0 L 125.0,23.0 L 112.0,15.0 L 98.0,10.0 L 87.0,8.0 L 73.0,8.0" fill="#FDFDFC"/>
	<path d="M 79.0,12.0 L 88.0,12.0 L 98.0,14.0 L 111.0,19.0 L 122.0,26.0 L 135.0,39.0 L 143.0,53.0 L 147.0,65.0 L 148.0,74.0 L 148.0,89.0 L 144.0,104.0 L 137.0,118.0 L 127.0,130.0 L 116.0,138.0 L 102.0,145.0 L 87.0,148.0 L 71.0,148.0 L 71.0,147.0 L 78.0,147.0 L 79.0,144.0 L 84.0,143.0 L 107.0,120.0 L 103.0,119.0 L 100.0,115.0 L 99.0,110.0 L 87.0,96.0 L 80.0,87.0 L 76.0,89.0 L 63.0,100.0 L 53.0,108.0 L 48.0,111.0 L 44.0,106.0 L 46.0,102.0 L 63.0,88.0 L 73.0,80.0 L 71.0,76.0 L 57.0,59.0 L 52.0,53.0 L 48.0,52.0 L 46.0,49.0 L 53.0,42.0 L 61.0,42.0 L 85.0,18.0 L 81.0,17.0 L 73.0,17.0 L 73.0,14.0 L 78.0,13.0 L 79.0,12.0" fill="#F58E8E"/>
	<path d="M 73.0,8.0 L 87.0,8.0 L 98.0,10.0 L 112.0,15.0 L 122.0,21.0 L 132.0,30.0 L 140.0,39.0 L 148.0,55.0 L 151.0,64.0 L 152.0,69.0 L 152.0,90.0 L 149.0,102.0 L 142.0,118.0 L 134.0,128.0 L 125.0,137.0 L 114.0,144.0 L 102.0,149.0 L 90.0,152.0 L 69.0,152.0 L 57.0,149.0 L 41.0,141.0 L 32.0,134.0 L 23.0,125.0 L 15.0,112.0 L 10.0,100.0 L 8.0,87.0 L 8.0,69.0 L 11.0,57.0 L 19.0,41.0 L 25.0,33.0 L 35.0,23.0 L 46.0,16.0 L 57.0,11.0 L 64.0,9.0 L 73.0,8.0 M 71.0,12.0 L 55.0,16.0 L 39.0,25.0 L 30.0,33.0 L 21.0,45.0 L 15.0,58.0 L 13.0,65.0 L 12.0,73.0 L 12.0,88.0 L 14.0,98.0 L 19.0,111.0 L 26.0,122.0 L 39.0,135.0 L 53.0,143.0 L 65.0,147.0 L 71.0,148.0 L 87.0,148.0 L 102.0,145.0 L 118.0,137.0 L 130.0,127.0 L 138.0,116.0 L 145.0,102.0 L 148.0,89.0 L 148.0,74.0 L 146.0,62.0 L 141.0,49.0 L 134.0,38.0 L 121.0,25.0 L 107.0,17.0 L 95.0,13.0 L 88.0,12.0 L 71.0,12.0" fill="#CA4B4B"/>
	<path d="M 54.0,44.0 L 58.0,46.0 L 69.0,59.0 L 77.0,69.0 L 80.0,73.0 L 84.0,71.0 L 97.0,60.0 L 111.0,49.0 L 116.0,54.0 L 114.0,58.0 L 97.0,72.0 L 87.0,80.0 L 89.0,84.0 L 100.0,97.0 L 111.0,111.0 L 106.0,116.0 L 102.0,114.0 L 91.0,101.0 L 80.0,87.0 L 76.0,89.0 L 63.0,100.0 L 53.0,108.0 L 48.0,111.0 L 44.0,106.0 L 46.0,102.0 L 63.0,88.0 L 73.0,80.0 L 71.0,76.0 L 57.0,59.0 L 49.0,49.0 L 54.0,44.0" fill="#FDFAFA"/>
	<path d="M 33.0,30.0 L 35.0,31.0 L 32.0,36.0 L 32.0,39.0 L 31.0,41.0 L 25.0,40.0 L 31.0,32.0 L 33.0,30.0" fill="#F28787"/>
	<path d="M 58.0,15.0 L 60.0,16.0 L 60.0,19.0 L 59.0,21.0 L 49.0,20.0 L 53.0,17.0 L 58.0,15.0" fill="#F28787"/>
	<path d="M 13.0,65.0 L 16.0,68.0 L 16.0,71.0 L 15.0,74.0 L 15.0,77.0 L 14.0,79.0 L 12.0,79.0 L 13.0,65.0" fill="#F28787"/>
	<path d="M 71.0,12.0 L 79.0,12.0 L 76.0,15.0 L 76.0,13.0 L 71.0,17.0 L 68.0,16.0 L 68.0,14.0 L 65.0,13.0 L 71.0,12.0" fill="#F08585"/>
	<path d="M 12.0,80.0 L 14.0,82.0 L 15.0,86.0 L 15.0,89.0 L 16.0,92.0 L 16.0,95.0 L 14.0,98.0 L 12.0,88.0 L 12.0,80.0" fill="#F08585"/>
	<path d="M 147.0,74.0 L 148.0,74.0 L 148.0,89.0 L 147.0,85.0 L 144.0,84.0 L 145.0,81.0 L 145.0,78.0 L 147.0,78.0 L 147.0,74.0" fill="#F18787"/>
	<path d="M 79.0,144.0 L 83.0,146.0 L 87.0,148.0 L 71.0,148.0 L 71.0,147.0 L 78.0,147.0 L 79.0,144.0" fill="#F08484"/>
	<path d="M 53.0,54.0 L 58.0,59.0 L 61.0,63.0 L 55.0,63.0 L 55.0,60.0 L 52.0,55.0 L 53.0,54.0" fill="#F79696"/>
	<path d="M 17.0,106.0 L 21.0,108.0 L 24.0,112.0 L 21.0,115.0 L 17.0,106.0" fill="#F28787"/>
	<path d="M 70.0,76.0 L 74.0,78.0 L 72.0,82.0 L 70.0,83.0 L 68.0,79.0 L 70.0,76.0" fill="#F69797"/>
	<path d="M 127.0,124.0 L 130.0,125.0 L 128.0,129.0 L 125.0,129.0 L 125.0,126.0 L 127.0,124.0" fill="#F18787"/>
	<path d="M 78.0,86.0 L 82.0,88.0 L 83.0,90.0 L 79.0,91.0 L 76.0,88.0 L 78.0,86.0" fill="#F69999"/>
	<path d="M 64.0,144.0 L 69.0,144.0 L 71.0,147.0 L 62.0,146.0 L 64.0,144.0" fill="#F18686"/>
</svg>
