<?xml version="1.0" ?>
<svg baseProfile="full" height="600px" version="1.1" viewBox="-19.296000000000003 -19.296000000000003 230.592 230.592" width="600px" xmlns="http://www.w3.org/2000/svg" xmlns:ev="http://www.w3.org/2001/xml-events" xmlns:xlink="http://www.w3.org/1999/xlink">
	<defs/>
	<path d="M 0.0,0.0 L 192.0,0.0 L 192.0,192.0 L 0.0,192.0 L 0.0,0.0" fill="#F44438"/>
	<path d="M 0.0,0.0 L 192.0,0.0 L 192.0,192.0 L 0.0,192.0 L 0.0,0.0 M 87.0,17.0 L 76.0,19.0 L 63.0,24.0 L 52.0,30.0 L 42.0,38.0 L 35.0,45.0 L 26.0,59.0 L 21.0,70.0 L 18.0,80.0 L 17.0,87.0 L 17.0,106.0 L 20.0,118.0 L 25.0,131.0 L 32.0,143.0 L 43.0,155.0 L 55.0,164.0 L 70.0,171.0 L 86.0,175.0 L 105.0,175.0 L 124.0,170.0 L 140.0,162.0 L 150.0,154.0 L 157.0,147.0 L 166.0,133.0 L 171.0,121.0 L 173.0,116.0 L 175.0,103.0 L 175.0,86.0 L 171.0,70.0 L 163.0,54.0 L 155.0,43.0 L 147.0,35.0 L 133.0,26.0 L 121.0,21.0 L 116.0,19.0 L 103.0,17.0 L 87.0,17.0" fill="#FEFDFC"/>
	<path d="M 116.0,61.0 L 121.0,64.0 L 128.0,70.0 L 127.0,74.0 L 113.0,89.0 L 109.0,94.0 L 111.0,98.0 L 123.0,109.0 L 131.0,116.0 L 128.0,121.0 L 122.0,128.0 L 118.0,127.0 L 103.0,113.0 L 98.0,109.0 L 94.0,111.0 L 83.0,123.0 L 76.0,131.0 L 71.0,128.0 L 64.0,122.0 L 65.0,118.0 L 78.0,104.0 L 83.0,98.0 L 81.0,94.0 L 69.0,83.0 L 61.0,76.0 L 64.0,71.0 L 70.0,64.0 L 74.0,65.0 L 89.0,79.0 L 94.0,83.0 L 98.0,81.0 L 109.0,69.0 L 116.0,61.0" fill="#FEFAFA"/>
</svg>
