<?xml version="1.0" ?>
<svg baseProfile="full" height="600px" version="1.1" viewBox="-19.296000000000003 -19.296000000000003 230.592 230.592" width="600px" xmlns="http://www.w3.org/2000/svg" xmlns:ev="http://www.w3.org/2001/xml-events" xmlns:xlink="http://www.w3.org/1999/xlink">
	<defs/>
	<path d="M 0.0,0.0 L 192.0,0.0 L 192.0,192.0 L 0.0,192.0 L 0.0,0.0" fill="#A17A45"/>
	<path d="M 0.0,0.0 L 192.0,0.0 L 192.0,192.0 L 0.0,192.0 L 0.0,0.0 M 87.0,17.0 L 76.0,19.0 L 63.0,24.0 L 52.0,30.0 L 42.0,38.0 L 35.0,45.0 L 26.0,59.0 L 21.0,70.0 L 18.0,80.0 L 17.0,87.0 L 17.0,106.0 L 20.0,118.0 L 25.0,131.0 L 32.0,143.0 L 43.0,155.0 L 55.0,164.0 L 70.0,171.0 L 86.0,175.0 L 105.0,175.0 L 118.0,172.0 L 131.0,167.0 L 143.0,160.0 L 155.0,149.0 L 164.0,137.0 L 170.0,124.0 L 173.0,116.0 L 175.0,103.0 L 175.0,86.0 L 171.0,70.0 L 163.0,54.0 L 155.0,43.0 L 147.0,35.0 L 133.0,26.0 L 121.0,21.0 L 116.0,19.0 L 103.0,17.0 L 87.0,17.0" fill="#FDFDFC"/>
	<path d="M 76.0,60.0 L 80.0,61.0 L 90.0,73.0 L 97.0,82.0 L 102.0,79.0 L 117.0,67.0 L 122.0,64.0 L 132.0,76.0 L 131.0,80.0 L 118.0,91.0 L 110.0,97.0 L 113.0,102.0 L 126.0,118.0 L 128.0,122.0 L 115.0,133.0 L 113.0,133.0 L 100.0,116.0 L 95.0,110.0 L 90.0,113.0 L 74.0,126.0 L 70.0,128.0 L 60.0,116.0 L 61.0,112.0 L 74.0,101.0 L 82.0,95.0 L 79.0,90.0 L 66.0,74.0 L 64.0,70.0 L 76.0,60.0" fill="#FCFBFA"/>
</svg>
