<?xml version="1.0" ?>
<svg baseProfile="full" height="600px" version="1.1" viewBox="-20.1 -20.1 240.2 240.2" width="600px" xmlns="http://www.w3.org/2000/svg" xmlns:ev="http://www.w3.org/2001/xml-events" xmlns:xlink="http://www.w3.org/1999/xlink">
	<defs/>
	<path d="M 0.0,0.0 L 200.0,0.0 L 200.0,200.0 L 0.0,200.0 L 0.0,0.0" fill="#FCFCFC"/>
	<path d="M 0.0,0.0 L 200.0,0.0 L 200.0,200.0 L 0.0,200.0 L 0.0,0.0 M 88.0,12.0 L 72.0,16.0 L 60.0,21.0 L 46.0,30.0 L 36.0,39.0 L 29.0,47.0 L 21.0,60.0 L 16.0,72.0 L 12.0,88.0 L 12.0,111.0 L 15.0,124.0 L 21.0,140.0 L 30.0,154.0 L 39.0,164.0 L 47.0,171.0 L 60.0,179.0 L 72.0,184.0 L 82.0,187.0 L 89.0,188.0 L 110.0,188.0 L 122.0,186.0 L 138.0,180.0 L 150.0,173.0 L 160.0,165.0 L 168.0,157.0 L 178.0,142.0 L 184.0,128.0 L 186.0,122.0 L 188.0,110.0 L 188.0,89.0 L 186.0,78.0 L 180.0,62.0 L 173.0,50.0 L 165.0,40.0 L 157.0,32.0 L 142.0,22.0 L 130.0,17.0 L 122.0,14.0 L 109.0,12.0 L 88.0,12.0" fill="#FDFDFD"/>
	<path d="M 88.0,12.0 L 109.0,12.0 L 122.0,14.0 L 140.0,21.0 L 154.0,30.0 L 164.0,39.0 L 171.0,47.0 L 179.0,60.0 L 184.0,72.0 L 187.0,82.0 L 188.0,89.0 L 188.0,110.0 L 186.0,122.0 L 180.0,138.0 L 173.0,150.0 L 165.0,160.0 L 157.0,168.0 L 142.0,178.0 L 128.0,184.0 L 122.0,186.0 L 110.0,188.0 L 89.0,188.0 L 78.0,186.0 L 62.0,180.0 L 50.0,173.0 L 40.0,165.0 L 32.0,157.0 L 22.0,142.0 L 17.0,130.0 L 14.0,122.0 L 12.0,111.0 L 12.0,88.0 L 16.0,72.0 L 21.0,60.0 L 30.0,46.0 L 39.0,36.0 L 47.0,29.0 L 60.0,21.0 L 72.0,16.0 L 88.0,12.0 M 89.0,20.0 L 73.0,24.0 L 57.0,32.0 L 48.0,39.0 L 36.0,51.0 L 27.0,66.0 L 23.0,76.0 L 20.0,89.0 L 20.0,110.0 L 24.0,126.0 L 29.0,138.0 L 38.0,151.0 L 43.0,157.0 L 57.0,168.0 L 73.0,176.0 L 89.0,180.0 L 111.0,180.0 L 126.0,176.0 L 138.0,171.0 L 151.0,162.0 L 164.0,149.0 L 173.0,134.0 L 177.0,124.0 L 180.0,109.0 L 180.0,89.0 L 176.0,73.0 L 168.0,57.0 L 160.0,47.0 L 155.0,42.0 L 146.0,34.0 L 136.0,28.0 L 120.0,22.0 L 110.0,20.0 L 89.0,20.0" fill="#080808"/>
	<path d="M 129.0,62.0 L 135.0,66.0 L 134.0,70.0 L 124.0,80.0 L 117.0,88.0 L 107.0,99.0 L 113.0,106.0 L 130.0,122.0 L 138.0,129.0 L 134.0,135.0 L 130.0,134.0 L 121.0,125.0 L 113.0,118.0 L 101.0,107.0 L 99.0,106.0 L 97.0,110.0 L 89.0,118.0 L 82.0,126.0 L 71.0,138.0 L 65.0,134.0 L 66.0,130.0 L 75.0,121.0 L 82.0,113.0 L 93.0,101.0 L 94.0,99.0 L 90.0,97.0 L 81.0,88.0 L 73.0,81.0 L 62.0,71.0 L 66.0,65.0 L 70.0,66.0 L 79.0,75.0 L 87.0,82.0 L 99.0,93.0 L 106.0,87.0 L 121.0,71.0 L 129.0,62.0" fill="#090909"/>
</svg>
