<?xml version="1.0" ?>
<svg baseProfile="full" height="600px" version="1.1" viewBox="-12.864 -12.864 153.728 153.728" width="600px" xmlns="http://www.w3.org/2000/svg" xmlns:ev="http://www.w3.org/2001/xml-events" xmlns:xlink="http://www.w3.org/1999/xlink">
	<defs/>
	<path d="M 0.0,0.0 L 128.0,0.0 L 128.0,128.0 L 0.0,128.0 L 0.0,0.0" fill="#FAFAFA"/>
	<path d="M 0.0,0.0 L 128.0,0.0 L 128.0,128.0 L 0.0,128.0 L 0.0,0.0 M 55.0,12.0 L 43.0,16.0 L 34.0,21.0 L 24.0,30.0 L 18.0,39.0 L 13.0,51.0 L 12.0,55.0 L 12.0,73.0 L 16.0,85.0 L 21.0,94.0 L 30.0,104.0 L 39.0,110.0 L 48.0,114.0 L 55.0,116.0 L 70.0,116.0 L 80.0,114.0 L 94.0,107.0 L 104.0,98.0 L 110.0,89.0 L 115.0,77.0 L 116.0,70.0 L 116.0,55.0 L 112.0,43.0 L 107.0,34.0 L 98.0,24.0 L 89.0,18.0 L 77.0,13.0 L 73.0,12.0 L 55.0,12.0" fill="#FCFCFC"/>
	<path d="M 55.0,12.0 L 73.0,12.0 L 85.0,16.0 L 94.0,21.0 L 104.0,30.0 L 110.0,39.0 L 114.0,48.0 L 116.0,55.0 L 116.0,70.0 L 114.0,80.0 L 107.0,94.0 L 98.0,104.0 L 89.0,110.0 L 77.0,115.0 L 70.0,116.0 L 55.0,116.0 L 43.0,112.0 L 34.0,107.0 L 24.0,98.0 L 18.0,89.0 L 14.0,80.0 L 12.0,73.0 L 12.0,55.0 L 16.0,43.0 L 21.0,34.0 L 30.0,24.0 L 39.0,18.0 L 51.0,13.0 L 55.0,12.0 M 56.0,20.0 L 45.0,24.0 L 34.0,31.0 L 26.0,41.0 L 21.0,52.0 L 20.0,56.0 L 20.0,70.0 L 22.0,78.0 L 28.0,90.0 L 34.0,97.0 L 45.0,104.0 L 56.0,108.0 L 69.0,108.0 L 78.0,106.0 L 90.0,100.0 L 97.0,94.0 L 104.0,83.0 L 107.0,76.0 L 108.0,69.0 L 108.0,56.0 L 104.0,45.0 L 97.0,34.0 L 87.0,26.0 L 76.0,21.0 L 70.0,20.0 L 56.0,20.0" fill="#070707"/>
	<path d="M 68.0,44.0 L 75.0,47.0 L 72.0,56.0 L 70.0,61.0 L 80.0,66.0 L 84.0,68.0 L 81.0,75.0 L 71.0,72.0 L 66.0,71.0 L 60.0,84.0 L 53.0,81.0 L 56.0,71.0 L 57.0,66.0 L 45.0,61.0 L 44.0,58.0 L 47.0,53.0 L 56.0,56.0 L 61.0,58.0 L 65.0,50.0 L 68.0,44.0" fill="#090909"/>
</svg>
