<?xml version="1.0" ?>
<svg baseProfile="full" height="600px" version="1.1" viewBox="-20.1 -20.1 240.2 240.2" width="600px" xmlns="http://www.w3.org/2000/svg" xmlns:ev="http://www.w3.org/2001/xml-events" xmlns:xlink="http://www.w3.org/1999/xlink">
	<defs/>
	<path d="M 0.0,0.0 L 200.0,0.0 L 200.0,200.0 L 0.0,200.0 L 0.0,0.0" fill="#FDFDFD"/>
	<path d="M 90.0,9.0 L 110.0,9.0 L 126.0,15.0 L 137.0,22.0 L 145.0,31.0 L 152.0,44.0 L 154.0,52.0 L 154.0,68.0 L 148.0,88.0 L 137.0,111.0 L 123.0,134.0 L 110.0,152.0 L 101.0,163.0 L 97.0,161.0 L 84.0,144.0 L 74.0,129.0 L 62.0,109.0 L 53.0,90.0 L 49.0,80.0 L 46.0,66.0 L 46.0,52.0 L 49.0,42.0 L 55.0,31.0 L 63.0,22.0 L 77.0,13.0 L 90.0,9.0" fill="#FCFCFC"/>
	<path d="M 90.0,9.0 L 110.0,9.0 L 126.0,15.0 L 137.0,22.0 L 145.0,31.0 L 152.0,44.0 L 154.0,52.0 L 154.0,68.0 L 148.0,88.0 L 137.0,111.0 L 123.0,134.0 L 110.0,152.0 L 101.0,163.0 L 97.0,161.0 L 84.0,144.0 L 74.0,129.0 L 62.0,109.0 L 53.0,90.0 L 49.0,80.0 L 46.0,66.0 L 46.0,52.0 L 49.0,42.0 L 55.0,31.0 L 63.0,22.0 L 77.0,13.0 L 90.0,9.0 M 92.0,17.0 L 79.0,21.0 L 69.0,28.0 L 62.0,35.0 L 56.0,47.0 L 55.0,50.0 L 55.0,70.0 L 61.0,88.0 L 69.0,104.0 L 78.0,120.0 L 88.0,135.0 L 98.0,149.0 L 102.0,149.0 L 114.0,132.0 L 126.0,113.0 L 139.0,88.0 L 143.0,78.0 L 145.0,68.0 L 145.0,50.0 L 140.0,38.0 L 129.0,26.0 L 115.0,19.0 L 107.0,17.0 L 92.0,17.0" fill="#090909"/>
	<path d="M 29.0,128.0 L 60.0,128.0 L 64.0,134.0 L 64.0,136.0 L 35.0,137.0 L 18.0,184.0 L 182.0,184.0 L 165.0,137.0 L 136.0,136.0 L 138.0,131.0 L 140.0,128.0 L 171.0,128.0 L 175.0,138.0 L 194.0,191.0 L 194.0,192.0 L 6.0,192.0 L 13.0,171.0 L 28.0,129.0 L 29.0,128.0" fill="#030303"/>
	<path d="M 95.0,40.0 L 105.0,40.0 L 113.0,44.0 L 119.0,51.0 L 121.0,56.0 L 121.0,63.0 L 117.0,72.0 L 109.0,78.0 L 107.0,79.0 L 93.0,79.0 L 84.0,73.0 L 80.0,66.0 L 79.0,64.0 L 79.0,55.0 L 84.0,47.0 L 90.0,42.0 L 95.0,40.0" fill="#0B0B0B"/>
	<path d="M 96.0,48.0 L 103.0,48.0 L 110.0,52.0 L 112.0,55.0 L 112.0,64.0 L 107.0,70.0 L 105.0,71.0 L 95.0,71.0 L 89.0,66.0 L 88.0,64.0 L 88.0,55.0 L 93.0,50.0 L 96.0,48.0" fill="#F9F9F9"/>
</svg>
