<?xml version="1.0" ?>
<svg baseProfile="full" height="600px" version="1.1" viewBox="-19.296000000000003 -19.296000000000003 230.592 230.592" width="600px" xmlns="http://www.w3.org/2000/svg" xmlns:ev="http://www.w3.org/2001/xml-events" xmlns:xlink="http://www.w3.org/1999/xlink">
	<defs/>
	<path d="M 0.0,0.0 L 192.0,0.0 L 192.0,192.0 L 0.0,192.0 L 0.0,0.0" fill="#FEFEFD"/>
	<path d="M 84.0,38.0 L 105.0,38.0 L 115.0,40.0 L 127.0,45.0 L 138.0,53.0 L 146.0,64.0 L 149.0,74.0 L 149.0,84.0 L 142.0,100.0 L 132.0,115.0 L 129.0,119.0 L 152.0,120.0 L 157.0,132.0 L 172.0,174.0 L 172.0,176.0 L 20.0,176.0 L 23.0,166.0 L 36.0,129.0 L 40.0,120.0 L 63.0,119.0 L 53.0,105.0 L 45.0,89.0 L 43.0,84.0 L 43.0,73.0 L 47.0,62.0 L 55.0,52.0 L 65.0,45.0 L 76.0,40.0 L 84.0,38.0" fill="#FE3F03"/>
	<path d="M 40.0,120.0 L 65.0,120.0 L 76.0,134.0 L 90.0,149.0 L 95.0,155.0 L 98.0,154.0 L 105.0,146.0 L 118.0,132.0 L 127.0,120.0 L 152.0,120.0 L 157.0,132.0 L 172.0,174.0 L 172.0,176.0 L 20.0,176.0 L 23.0,166.0 L 36.0,129.0 L 40.0,120.0" fill="#7DB342"/>
	<path d="M 88.0,59.0 L 104.0,59.0 L 116.0,65.0 L 122.0,74.0 L 122.0,84.0 L 119.0,90.0 L 114.0,95.0 L 104.0,100.0 L 88.0,100.0 L 78.0,95.0 L 73.0,90.0 L 70.0,84.0 L 70.0,74.0 L 76.0,65.0 L 85.0,60.0 L 88.0,59.0" fill="#FEFCFB"/>
</svg>
