<?xml version="1.0" ?>
<svg baseProfile="full" height="600px" version="1.1" viewBox="-20.1 -20.1 240.2 240.2" width="600px" xmlns="http://www.w3.org/2000/svg" xmlns:ev="http://www.w3.org/2001/xml-events" xmlns:xlink="http://www.w3.org/1999/xlink">
	<defs/>
	<path d="M 0.0,0.0 L 200.0,0.0 L 200.0,200.0 L 0.0,200.0 L 0.0,0.0" fill="#FDFDFD"/>
	<path d="M 91.0,7.0 L 106.0,7.0 L 116.0,9.0 L 130.0,16.0 L 140.0,25.0 L 147.0,36.0 L 151.0,46.0 L 152.0,50.0 L 152.0,68.0 L 148.0,83.0 L 141.0,101.0 L 133.0,117.0 L 121.0,138.0 L 110.0,154.0 L 101.0,166.0 L 97.0,164.0 L 83.0,144.0 L 68.0,119.0 L 60.0,103.0 L 53.0,86.0 L 48.0,68.0 L 48.0,50.0 L 52.0,38.0 L 59.0,26.0 L 67.0,18.0 L 81.0,10.0 L 91.0,7.0" fill="#FBFBFB"/>
	<path d="M 91.0,7.0 L 106.0,7.0 L 116.0,9.0 L 130.0,16.0 L 140.0,25.0 L 147.0,36.0 L 151.0,46.0 L 152.0,50.0 L 152.0,68.0 L 148.0,83.0 L 141.0,101.0 L 133.0,117.0 L 121.0,138.0 L 110.0,154.0 L 101.0,166.0 L 97.0,164.0 L 83.0,144.0 L 68.0,119.0 L 60.0,103.0 L 53.0,86.0 L 48.0,68.0 L 48.0,50.0 L 52.0,38.0 L 59.0,26.0 L 67.0,18.0 L 81.0,10.0 L 91.0,7.0 M 92.0,15.0 L 81.0,19.0 L 72.0,25.0 L 64.0,33.0 L 58.0,45.0 L 56.0,53.0 L 56.0,68.0 L 61.0,85.0 L 69.0,103.0 L 80.0,124.0 L 96.0,149.0 L 99.0,153.0 L 101.0,153.0 L 116.0,130.0 L 128.0,109.0 L 137.0,90.0 L 143.0,72.0 L 144.0,65.0 L 144.0,52.0 L 140.0,40.0 L 134.0,31.0 L 126.0,23.0 L 114.0,17.0 L 105.0,15.0 L 92.0,15.0" fill="#080808"/>
	<path d="M 29.0,128.0 L 60.0,128.0 L 64.0,134.0 L 64.0,136.0 L 35.0,137.0 L 18.0,184.0 L 182.0,184.0 L 165.0,137.0 L 136.0,136.0 L 138.0,131.0 L 140.0,128.0 L 171.0,128.0 L 175.0,138.0 L 194.0,191.0 L 194.0,192.0 L 6.0,192.0 L 13.0,171.0 L 28.0,129.0 L 29.0,128.0" fill="#030303"/>
	<path d="M 95.0,39.0 L 103.0,39.0 L 111.0,42.0 L 118.0,50.0 L 120.0,54.0 L 120.0,64.0 L 116.0,72.0 L 109.0,78.0 L 103.0,80.0 L 96.0,80.0 L 88.0,76.0 L 82.0,69.0 L 80.0,64.0 L 80.0,54.0 L 84.0,47.0 L 91.0,41.0 L 95.0,39.0" fill="#090909"/>
	<path d="M 95.0,48.0 L 105.0,48.0 L 110.0,52.0 L 112.0,56.0 L 112.0,63.0 L 108.0,69.0 L 105.0,71.0 L 95.0,71.0 L 90.0,67.0 L 88.0,62.0 L 88.0,56.0 L 92.0,50.0 L 95.0,48.0" fill="#F8F8F8"/>
</svg>
