<?xml version="1.0" ?>
<svg baseProfile="full" height="600px" version="1.1" viewBox="-19.296000000000003 -19.296000000000003 230.592 230.592" width="600px" xmlns="http://www.w3.org/2000/svg" xmlns:ev="http://www.w3.org/2001/xml-events" xmlns:xlink="http://www.w3.org/1999/xlink">
	<defs/>
	<path d="M 0.0,0.0 L 192.0,0.0 L 192.0,192.0 L 0.0,192.0 L 0.0,0.0" fill="#FEFEFD"/>
	<path d="M 86.0,14.0 L 105.0,14.0 L 118.0,19.0 L 128.0,27.0 L 135.0,37.0 L 140.0,49.0 L 140.0,68.0 L 135.0,83.0 L 127.0,100.0 L 117.0,117.0 L 115.0,120.0 L 152.0,120.0 L 157.0,132.0 L 172.0,174.0 L 172.0,176.0 L 20.0,176.0 L 23.0,166.0 L 36.0,129.0 L 40.0,120.0 L 77.0,120.0 L 68.0,105.0 L 59.0,88.0 L 53.0,71.0 L 52.0,67.0 L 52.0,49.0 L 57.0,37.0 L 64.0,27.0 L 74.0,19.0 L 86.0,14.0" fill="#FE3F02"/>
	<path d="M 40.0,120.0 L 78.0,120.0 L 90.0,138.0 L 95.0,145.0 L 98.0,144.0 L 114.0,120.0 L 152.0,120.0 L 157.0,132.0 L 172.0,174.0 L 172.0,176.0 L 20.0,176.0 L 23.0,166.0 L 36.0,129.0 L 40.0,120.0" fill="#7CB342"/>
	<path d="M 91.0,37.0 L 101.0,37.0 L 110.0,42.0 L 116.0,49.0 L 118.0,54.0 L 118.0,67.0 L 114.0,75.0 L 106.0,82.0 L 102.0,84.0 L 90.0,84.0 L 82.0,79.0 L 76.0,72.0 L 74.0,66.0 L 74.0,54.0 L 78.0,46.0 L 86.0,39.0 L 91.0,37.0" fill="#FEFBFA"/>
</svg>
