<?xml version="1.0" ?>
<svg baseProfile="full" height="600px" version="1.1" viewBox="-20.1 -20.1 240.2 240.2" width="600px" xmlns="http://www.w3.org/2000/svg" xmlns:ev="http://www.w3.org/2001/xml-events" xmlns:xlink="http://www.w3.org/1999/xlink">
	<defs/>
	<path d="M 0.0,0.0 L 200.0,0.0 L 200.0,200.0 L 0.0,200.0 L 0.0,0.0" fill="#FDFDFD"/>
	<path d="M 91.0,1.0 L 108.0,1.0 L 121.0,5.0 L 131.0,11.0 L 140.0,19.0 L 147.0,30.0 L 150.0,37.0 L 152.0,45.0 L 152.0,62.0 L 148.0,78.0 L 140.0,98.0 L 130.0,118.0 L 117.0,139.0 L 103.0,159.0 L 101.0,162.0 L 99.0,162.0 L 85.0,142.0 L 72.0,121.0 L 58.0,94.0 L 52.0,78.0 L 48.0,63.0 L 48.0,46.0 L 51.0,35.0 L 57.0,23.0 L 66.0,13.0 L 77.0,6.0 L 87.0,2.0 L 91.0,1.0" fill="#FBFBFB"/>
	<path d="M 91.0,1.0 L 108.0,1.0 L 121.0,5.0 L 131.0,11.0 L 140.0,19.0 L 147.0,30.0 L 150.0,37.0 L 152.0,45.0 L 152.0,62.0 L 148.0,78.0 L 140.0,98.0 L 130.0,118.0 L 117.0,139.0 L 103.0,159.0 L 101.0,162.0 L 99.0,162.0 L 85.0,142.0 L 72.0,121.0 L 58.0,94.0 L 52.0,78.0 L 48.0,63.0 L 48.0,46.0 L 51.0,35.0 L 57.0,23.0 L 66.0,13.0 L 77.0,6.0 L 87.0,2.0 L 91.0,1.0 M 93.0,9.0 L 81.0,13.0 L 71.0,20.0 L 63.0,29.0 L 58.0,39.0 L 56.0,46.0 L 56.0,60.0 L 60.0,76.0 L 66.0,92.0 L 79.0,117.0 L 92.0,138.0 L 99.0,148.0 L 101.0,148.0 L 111.0,133.0 L 123.0,113.0 L 134.0,92.0 L 142.0,71.0 L 144.0,61.0 L 144.0,46.0 L 140.0,34.0 L 133.0,24.0 L 124.0,16.0 L 116.0,12.0 L 111.0,10.0 L 105.0,9.0 L 93.0,9.0" fill="#080808"/>
	<path d="M 29.0,128.0 L 64.0,128.0 L 67.0,134.0 L 67.0,136.0 L 35.0,137.0 L 18.0,184.0 L 182.0,184.0 L 165.0,137.0 L 133.0,136.0 L 135.0,130.0 L 136.0,128.0 L 171.0,128.0 L 175.0,138.0 L 194.0,191.0 L 194.0,192.0 L 6.0,192.0 L 13.0,171.0 L 28.0,129.0 L 29.0,128.0" fill="#030303"/>
	<path d="M 94.0,34.0 L 105.0,34.0 L 113.0,38.0 L 118.0,44.0 L 120.0,48.0 L 120.0,59.0 L 116.0,67.0 L 110.0,72.0 L 105.0,74.0 L 94.0,74.0 L 86.0,69.0 L 81.0,62.0 L 80.0,59.0 L 80.0,48.0 L 85.0,40.0 L 91.0,35.0 L 94.0,34.0" fill="#070707"/>
	<path d="M 96.0,42.0 L 104.0,42.0 L 109.0,45.0 L 112.0,50.0 L 112.0,57.0 L 109.0,62.0 L 106.0,65.0 L 103.0,66.0 L 96.0,66.0 L 89.0,60.0 L 88.0,57.0 L 88.0,50.0 L 92.0,44.0 L 96.0,42.0" fill="#F8F8F8"/>
</svg>
