<?xml version="1.0" ?>
<svg baseProfile="full" height="600px" version="1.1" viewBox="-20.1 -20.1 240.2 240.2" width="600px" xmlns="http://www.w3.org/2000/svg" xmlns:ev="http://www.w3.org/2001/xml-events" xmlns:xlink="http://www.w3.org/1999/xlink">
	<defs/>
	<path d="M 0.0,0.0 L 200.0,0.0 L 200.0,200.0 L 0.0,200.0 L 0.0,0.0" fill="#FDFDFD"/>
	<path d="M 91.0,9.0 L 106.0,9.0 L 116.0,11.0 L 126.0,15.0 L 137.0,23.0 L 144.0,31.0 L 151.0,45.0 L 153.0,52.0 L 153.0,69.0 L 150.0,80.0 L 143.0,99.0 L 133.0,119.0 L 118.0,143.0 L 104.0,162.0 L 101.0,166.0 L 98.0,165.0 L 85.0,147.0 L 75.0,132.0 L 64.0,113.0 L 54.0,92.0 L 49.0,78.0 L 47.0,67.0 L 47.0,52.0 L 51.0,40.0 L 57.0,30.0 L 64.0,22.0 L 74.0,15.0 L 83.0,11.0 L 91.0,9.0" fill="#FBFBFB"/>
	<path d="M 91.0,9.0 L 106.0,9.0 L 116.0,11.0 L 126.0,15.0 L 137.0,23.0 L 144.0,31.0 L 151.0,45.0 L 153.0,52.0 L 153.0,69.0 L 150.0,80.0 L 143.0,99.0 L 133.0,119.0 L 118.0,143.0 L 104.0,162.0 L 101.0,166.0 L 98.0,165.0 L 85.0,147.0 L 75.0,132.0 L 64.0,113.0 L 54.0,92.0 L 49.0,78.0 L 47.0,67.0 L 47.0,52.0 L 51.0,40.0 L 57.0,30.0 L 64.0,22.0 L 74.0,15.0 L 83.0,11.0 L 91.0,9.0 M 92.0,17.0 L 78.0,22.0 L 69.0,29.0 L 62.0,37.0 L 57.0,47.0 L 55.0,54.0 L 55.0,67.0 L 59.0,82.0 L 68.0,103.0 L 79.0,123.0 L 95.0,147.0 L 99.0,152.0 L 103.0,150.0 L 115.0,132.0 L 127.0,112.0 L 135.0,97.0 L 142.0,79.0 L 145.0,66.0 L 145.0,54.0 L 141.0,42.0 L 134.0,32.0 L 125.0,24.0 L 117.0,20.0 L 112.0,18.0 L 105.0,17.0 L 92.0,17.0" fill="#080808"/>
	<path d="M 29.0,128.0 L 61.0,128.0 L 65.0,136.0 L 35.0,137.0 L 18.0,184.0 L 182.0,184.0 L 165.0,137.0 L 135.0,136.0 L 140.0,128.0 L 171.0,128.0 L 175.0,138.0 L 194.0,191.0 L 194.0,192.0 L 6.0,192.0 L 13.0,171.0 L 28.0,129.0 L 29.0,128.0" fill="#030303"/>
	<path d="M 94.0,41.0 L 106.0,41.0 L 114.0,46.0 L 120.0,54.0 L 120.0,66.0 L 116.0,74.0 L 109.0,79.0 L 106.0,80.0 L 93.0,80.0 L 84.0,74.0 L 80.0,66.0 L 80.0,54.0 L 84.0,48.0 L 90.0,43.0 L 94.0,41.0" fill="#070707"/>
	<path d="M 96.0,49.0 L 104.0,49.0 L 110.0,53.0 L 112.0,56.0 L 112.0,64.0 L 109.0,69.0 L 105.0,72.0 L 95.0,72.0 L 89.0,67.0 L 88.0,64.0 L 88.0,57.0 L 92.0,51.0 L 96.0,49.0" fill="#F9F9F9"/>
</svg>
