<?xml version="1.0" ?>
<svg baseProfile="full" height="600px" version="1.1" viewBox="-19.296000000000003 -19.296000000000003 230.592 230.592" width="600px" xmlns="http://www.w3.org/2000/svg" xmlns:ev="http://www.w3.org/2001/xml-events" xmlns:xlink="http://www.w3.org/1999/xlink">
	<defs/>
	<path d="M 0.0,0.0 L 192.0,0.0 L 192.0,192.0 L 0.0,192.0 L 0.0,0.0" fill="#FEFDFD"/>
	<path d="M 88.0,24.0 L 104.0,24.0 L 104.0,122.0 L 111.0,123.0 L 112.0,125.0 L 112.0,140.0 L 110.0,142.0 L 104.0,142.0 L 104.0,168.0 L 88.0,168.0 L 88.0,142.0 L 82.0,142.0 L 80.0,140.0 L 80.0,124.0 L 83.0,122.0 L 88.0,122.0 L 88.0,24.0" fill="#CFD8DC"/>
	<path d="M 26.0,44.0 L 54.0,44.0 L 56.0,46.0 L 56.0,62.0 L 54.0,64.0 L 48.0,64.0 L 48.0,168.0 L 32.0,168.0 L 32.0,64.0 L 26.0,64.0 L 24.0,62.0 L 24.0,46.0 L 26.0,44.0" fill="#FD6C00"/>
	<path d="M 138.0,50.0 L 166.0,50.0 L 168.0,52.0 L 168.0,68.0 L 166.0,70.0 L 160.0,70.0 L 160.0,168.0 L 144.0,168.0 L 144.0,70.0 L 138.0,70.0 L 136.0,68.0 L 136.0,52.0 L 138.0,50.0" fill="#FD6C00"/>
	<path d="M 83.0,122.0 L 109.0,122.0 L 112.0,125.0 L 112.0,140.0 L 110.0,142.0 L 104.0,142.0 L 104.0,168.0 L 88.0,168.0 L 88.0,142.0 L 82.0,142.0 L 80.0,140.0 L 80.0,124.0 L 83.0,122.0" fill="#C03A11"/>
	<path d="M 138.0,50.0 L 166.0,50.0 L 168.0,52.0 L 168.0,68.0 L 166.0,70.0 L 138.0,70.0 L 136.0,68.0 L 136.0,52.0 L 138.0,50.0" fill="#BF370E"/>
	<path d="M 26.0,44.0 L 54.0,44.0 L 56.0,46.0 L 56.0,62.0 L 54.0,64.0 L 26.0,64.0 L 24.0,62.0 L 24.0,46.0 L 26.0,44.0" fill="#BF370D"/>
	<path d="M 88.0,142.0 L 104.0,142.0 L 104.0,168.0 L 88.0,168.0 L 88.0,142.0" fill="#FC6B00"/>
	<path d="M 144.0,24.0 L 160.0,24.0 L 160.0,50.0 L 144.0,50.0 L 144.0,24.0" fill="#CFD7DB"/>
	<path d="M 32.0,24.0 L 48.0,24.0 L 48.0,44.0 L 32.0,44.0 L 32.0,24.0" fill="#CED7DA"/>
</svg>
