<?xml version="1.0" ?>
<svg baseProfile="full" height="600px" version="1.1" viewBox="-20.1 -20.1 240.2 240.2" width="600px" xmlns="http://www.w3.org/2000/svg" xmlns:ev="http://www.w3.org/2001/xml-events" xmlns:xlink="http://www.w3.org/1999/xlink">
	<defs/>
	<path d="M 0.0,0.0 L 200.0,0.0 L 200.0,200.0 L 0.0,200.0 L 0.0,0.0" fill="#FDFDFD"/>
	<path d="M 98.0,8.0 L 103.0,9.0 L 104.0,10.0 L 104.0,132.0 L 115.0,132.0 L 121.0,135.0 L 124.0,140.0 L 124.0,156.0 L 121.0,161.0 L 115.0,164.0 L 84.0,164.0 L 79.0,161.0 L 76.0,155.0 L 76.0,140.0 L 79.0,135.0 L 84.0,132.0 L 96.0,132.0 L 96.0,10.0 L 98.0,8.0" fill="#020202"/>
	<path d="M 30.0,8.0 L 35.0,9.0 L 36.0,10.0 L 36.0,28.0 L 47.0,28.0 L 52.0,31.0 L 56.0,36.0 L 56.0,51.0 L 53.0,57.0 L 48.0,60.0 L 16.0,60.0 L 10.0,56.0 L 8.0,51.0 L 8.0,36.0 L 14.0,29.0 L 16.0,28.0 L 28.0,28.0 L 28.0,10.0 L 30.0,8.0" fill="#040404"/>
	<path d="M 166.0,8.0 L 171.0,9.0 L 172.0,10.0 L 172.0,20.0 L 183.0,20.0 L 189.0,23.0 L 192.0,28.0 L 192.0,44.0 L 189.0,49.0 L 183.0,52.0 L 152.0,52.0 L 147.0,49.0 L 144.0,43.0 L 144.0,28.0 L 147.0,23.0 L 152.0,20.0 L 164.0,20.0 L 164.0,10.0 L 166.0,8.0" fill="#030303"/>
	<path d="M 164.0,56.0 L 172.0,56.0 L 172.0,190.0 L 170.0,192.0 L 165.0,191.0 L 164.0,190.0 L 164.0,56.0" fill="#000000"/>
	<path d="M 28.0,64.0 L 36.0,64.0 L 36.0,190.0 L 34.0,192.0 L 29.0,191.0 L 28.0,190.0 L 28.0,64.0" fill="#010101"/>
	<path d="M 86.0,140.0 L 114.0,140.0 L 116.0,142.0 L 116.0,154.0 L 114.0,156.0 L 86.0,156.0 L 84.0,154.0 L 84.0,142.0 L 86.0,140.0" fill="#FAFAFA"/>
	<path d="M 18.0,36.0 L 46.0,36.0 L 48.0,38.0 L 48.0,50.0 L 46.0,52.0 L 18.0,52.0 L 16.0,50.0 L 16.0,38.0 L 18.0,36.0" fill="#F9F9F9"/>
	<path d="M 154.0,28.0 L 182.0,28.0 L 184.0,30.0 L 184.0,42.0 L 182.0,44.0 L 154.0,44.0 L 152.0,42.0 L 152.0,30.0 L 154.0,28.0" fill="#FAFAFA"/>
	<path d="M 96.0,168.0 L 104.0,168.0 L 104.0,190.0 L 102.0,192.0 L 97.0,191.0 L 96.0,190.0 L 96.0,168.0" fill="#020202"/>
</svg>
