<?xml version="1.0" ?>
<svg baseProfile="full" height="600px" version="1.1" viewBox="-19.296000000000003 -19.296000000000003 230.592 230.592" width="600px" xmlns="http://www.w3.org/2000/svg" xmlns:ev="http://www.w3.org/2001/xml-events" xmlns:xlink="http://www.w3.org/1999/xlink">
	<defs/>
	<path d="M 0.0,0.0 L 192.0,0.0 L 192.0,192.0 L 0.0,192.0 L 0.0,0.0" fill="#FCFDFE"/>
	<path d="M 133.0,51.0 L 141.0,57.0 L 153.0,68.0 L 164.0,77.0 L 175.0,87.0 L 185.0,95.0 L 184.0,98.0 L 173.0,107.0 L 163.0,116.0 L 152.0,125.0 L 141.0,135.0 L 133.0,141.0 L 133.0,112.0 L 89.0,112.0 L 89.0,80.0 L 133.0,80.0 L 133.0,51.0" fill="#1666C0"/>
	<path d="M 67.0,80.0 L 83.0,80.0 L 83.0,112.0 L 67.0,112.0 L 67.0,80.0" fill="#1766C0"/>
	<path d="M 45.0,80.0 L 61.0,80.0 L 61.0,112.0 L 45.0,112.0 L 45.0,80.0" fill="#1A68C1"/>
	<path d="M 22.0,80.0 L 38.0,80.0 L 38.0,112.0 L 22.0,112.0 L 22.0,80.0" fill="#1B69C1"/>
</svg>
