<?xml version="1.0" ?>
<svg baseProfile="full" height="600px" version="1.1" viewBox="-19.296000000000003 -19.296000000000003 230.592 230.592" width="600px" xmlns="http://www.w3.org/2000/svg" xmlns:ev="http://www.w3.org/2001/xml-events" xmlns:xlink="http://www.w3.org/1999/xlink">
	<defs/>
	<path d="M 0.0,0.0 L 192.0,0.0 L 192.0,192.0 L 0.0,192.0 L 0.0,0.0" fill="#FDFDFE"/>
	<path d="M 139.0,49.0 L 146.0,55.0 L 156.0,64.0 L 164.0,71.0 L 175.0,81.0 L 183.0,88.0 L 191.0,95.0 L 189.0,99.0 L 177.0,110.0 L 169.0,117.0 L 158.0,127.0 L 150.0,134.0 L 140.0,143.0 L 139.0,143.0 L 139.0,112.0 L 95.0,112.0 L 95.0,80.0 L 139.0,80.0 L 139.0,49.0" fill="#1766C0"/>
	<path d="M 72.0,80.0 L 88.0,80.0 L 88.0,112.0 L 72.0,112.0 L 72.0,80.0" fill="#1C69C1"/>
	<path d="M 48.0,80.0 L 64.0,80.0 L 64.0,112.0 L 48.0,112.0 L 48.0,80.0" fill="#1967C1"/>
	<path d="M 24.0,80.0 L 40.0,80.0 L 40.0,112.0 L 24.0,112.0 L 24.0,80.0" fill="#1867C0"/>
</svg>
