<?xml version="1.0" ?>
<svg baseProfile="full" height="600px" version="1.1" viewBox="-20.1 -20.1 240.2 240.2" width="600px" xmlns="http://www.w3.org/2000/svg" xmlns:ev="http://www.w3.org/2001/xml-events" xmlns:xlink="http://www.w3.org/1999/xlink">
	<defs/>
	<path d="M 0.0,0.0 L 200.0,0.0 L 200.0,200.0 L 0.0,200.0 L 0.0,0.0" fill="#FCFCFC"/>
	<path d="M 147.0,39.0 L 155.0,39.0 L 160.0,42.0 L 162.0,45.0 L 162.0,55.0 L 158.0,62.0 L 152.0,66.0 L 151.0,75.0 L 165.0,77.0 L 182.0,83.0 L 187.0,86.0 L 187.0,76.0 L 190.0,74.0 L 197.0,75.0 L 198.0,76.0 L 198.0,97.0 L 199.0,99.0 L 199.0,106.0 L 198.0,111.0 L 199.0,118.0 L 199.0,128.0 L 197.0,129.0 L 189.0,129.0 L 188.0,128.0 L 187.0,121.0 L 178.0,127.0 L 166.0,132.0 L 153.0,136.0 L 142.0,138.0 L 139.0,139.0 L 141.0,141.0 L 152.0,143.0 L 159.0,149.0 L 160.0,151.0 L 160.0,160.0 L 156.0,167.0 L 150.0,170.0 L 142.0,170.0 L 135.0,165.0 L 133.0,161.0 L 133.0,151.0 L 134.0,147.0 L 128.0,140.0 L 102.0,139.0 L 68.0,135.0 L 49.0,131.0 L 30.0,124.0 L 19.0,117.0 L 13.0,111.0 L 1.0,72.0 L 1.0,66.0 L 3.0,64.0 L 23.0,64.0 L 30.0,67.0 L 37.0,75.0 L 45.0,88.0 L 64.0,86.0 L 82.0,84.0 L 88.0,84.0 L 88.0,70.0 L 80.0,69.0 L 71.0,66.0 L 65.0,61.0 L 64.0,59.0 L 64.0,52.0 L 69.0,48.0 L 72.0,47.0 L 108.0,44.0 L 133.0,41.0 L 147.0,39.0" fill="#080808"/>
	<path d="M 0.0,0.0 L 200.0,0.0 L 200.0,99.0 L 198.0,99.0 L 197.0,97.0 L 197.0,76.0 L 190.0,75.0 L 188.0,76.0 L 188.0,87.0 L 174.0,81.0 L 165.0,78.0 L 153.0,76.0 L 151.0,75.0 L 151.0,66.0 L 158.0,61.0 L 161.0,55.0 L 161.0,45.0 L 158.0,41.0 L 155.0,40.0 L 147.0,40.0 L 128.0,43.0 L 88.0,47.0 L 72.0,48.0 L 66.0,51.0 L 65.0,52.0 L 65.0,59.0 L 69.0,64.0 L 75.0,67.0 L 88.0,70.0 L 88.0,84.0 L 76.0,86.0 L 49.0,89.0 L 44.0,88.0 L 33.0,71.0 L 29.0,67.0 L 23.0,65.0 L 3.0,65.0 L 2.0,66.0 L 2.0,74.0 L 0.0,74.0 L 0.0,0.0" fill="#FCFCFC"/>
	<path d="M 10.0,72.0 L 22.0,72.0 L 27.0,75.0 L 36.0,89.0 L 40.0,95.0 L 47.0,96.0 L 85.0,92.0 L 90.0,92.0 L 98.0,98.0 L 101.0,99.0 L 118.0,99.0 L 129.0,97.0 L 138.0,94.0 L 146.0,88.0 L 149.0,83.0 L 160.0,84.0 L 177.0,90.0 L 186.0,95.0 L 190.0,99.0 L 190.0,106.0 L 184.0,113.0 L 173.0,120.0 L 158.0,126.0 L 141.0,130.0 L 132.0,131.0 L 101.0,131.0 L 79.0,129.0 L 55.0,124.0 L 40.0,119.0 L 24.0,111.0 L 20.0,107.0 L 12.0,81.0 L 10.0,72.0" fill="#FAFAFA"/>
	<path d="M 139.0,69.0 L 143.0,69.0 L 143.0,79.0 L 136.0,87.0 L 126.0,91.0 L 117.0,92.0 L 102.0,92.0 L 97.0,89.0 L 96.0,87.0 L 96.0,71.0 L 131.0,70.0 L 139.0,69.0" fill="#F9F9F9"/>
	<path d="M 150.0,47.0 L 154.0,47.0 L 154.0,54.0 L 148.0,59.0 L 143.0,61.0 L 130.0,63.0 L 93.0,63.0 L 80.0,61.0 L 72.0,57.0 L 72.0,55.0 L 111.0,52.0 L 150.0,47.0" fill="#F7F7F7"/>
	<path d="M 26.0,16.0 L 86.0,16.0 L 88.0,18.0 L 87.0,23.0 L 86.0,24.0 L 26.0,24.0 L 24.0,22.0 L 25.0,17.0 L 26.0,16.0" fill="#010101"/>
	<path d="M 90.0,152.0 L 106.0,152.0 L 108.0,154.0 L 107.0,159.0 L 106.0,160.0 L 91.0,160.0 L 89.0,159.0 L 89.0,153.0 L 90.0,152.0" fill="#050505"/>
	<path d="M 144.0,150.0 L 149.0,150.0 L 152.0,153.0 L 152.0,159.0 L 148.0,162.0 L 143.0,161.0 L 141.0,159.0 L 141.0,153.0 L 144.0,150.0" fill="#F4F4F4"/>
	<path d="M 198.0,76.0 L 199.0,76.0 L 200.0,82.0 L 200.0,99.0 L 198.0,99.0 L 197.0,97.0 L 197.0,86.0 L 198.0,76.0" fill="#E5E5E5"/>
	<path d="M 199.0,99.0 L 200.0,99.0 L 200.0,127.0 L 199.0,127.0 L 197.0,108.0 L 199.0,99.0" fill="#F4F4F4"/>
</svg>
