<?xml version="1.0" ?>
<svg baseProfile="full" height="600px" version="1.1" viewBox="-20.1 -20.1 240.2 240.2" width="600px" xmlns="http://www.w3.org/2000/svg" xmlns:ev="http://www.w3.org/2001/xml-events" xmlns:xlink="http://www.w3.org/1999/xlink">
	<defs/>
	<path d="M 0.0,0.0 L 200.0,0.0 L 200.0,200.0 L 0.0,200.0 L 0.0,0.0" fill="#FCFCFC"/>
	<path d="M 147.0,38.0 L 155.0,38.0 L 160.0,41.0 L 163.0,45.0 L 163.0,53.0 L 159.0,61.0 L 153.0,65.0 L 151.0,65.0 L 151.0,75.0 L 158.0,75.0 L 179.0,81.0 L 187.0,85.0 L 187.0,76.0 L 189.0,74.0 L 197.0,74.0 L 199.0,76.0 L 198.0,96.0 L 199.0,98.0 L 199.0,128.0 L 197.0,129.0 L 190.0,129.0 L 188.0,128.0 L 187.0,121.0 L 176.0,128.0 L 155.0,135.0 L 138.0,138.0 L 141.0,141.0 L 151.0,142.0 L 157.0,146.0 L 160.0,151.0 L 160.0,160.0 L 156.0,166.0 L 152.0,169.0 L 143.0,170.0 L 136.0,166.0 L 132.0,159.0 L 132.0,152.0 L 134.0,146.0 L 127.0,139.0 L 86.0,137.0 L 67.0,134.0 L 42.0,128.0 L 26.0,121.0 L 15.0,113.0 L 12.0,109.0 L 5.0,85.0 L 0.0,69.0 L 1.0,64.0 L 2.0,63.0 L 25.0,63.0 L 33.0,68.0 L 44.0,86.0 L 58.0,86.0 L 88.0,83.0 L 88.0,69.0 L 79.0,68.0 L 69.0,64.0 L 64.0,58.0 L 64.0,52.0 L 69.0,47.0 L 72.0,46.0 L 111.0,43.0 L 147.0,38.0" fill="#080808"/>
	<path d="M 10.0,71.0 L 23.0,71.0 L 28.0,75.0 L 39.0,93.0 L 42.0,95.0 L 59.0,94.0 L 86.0,91.0 L 91.0,92.0 L 96.0,96.0 L 100.0,98.0 L 123.0,98.0 L 137.0,94.0 L 145.0,88.0 L 150.0,82.0 L 157.0,83.0 L 165.0,85.0 L 181.0,91.0 L 189.0,97.0 L 191.0,99.0 L 190.0,106.0 L 185.0,112.0 L 174.0,119.0 L 163.0,124.0 L 149.0,128.0 L 137.0,130.0 L 97.0,130.0 L 81.0,128.0 L 58.0,124.0 L 37.0,117.0 L 24.0,110.0 L 19.0,105.0 L 14.0,87.0 L 10.0,75.0 L 10.0,71.0" fill="#FBFBFB"/>
	<path d="M 141.0,68.0 L 143.0,68.0 L 143.0,79.0 L 138.0,85.0 L 130.0,89.0 L 118.0,91.0 L 102.0,91.0 L 97.0,88.0 L 96.0,86.0 L 96.0,70.0 L 136.0,69.0 L 141.0,68.0" fill="#F8F8F8"/>
	<path d="M 148.0,46.0 L 154.0,46.0 L 155.0,47.0 L 154.0,54.0 L 149.0,58.0 L 133.0,62.0 L 93.0,62.0 L 84.0,61.0 L 73.0,57.0 L 72.0,54.0 L 92.0,53.0 L 130.0,49.0 L 148.0,46.0" fill="#F7F7F7"/>
	<path d="M 143.0,150.0 L 149.0,150.0 L 152.0,153.0 L 151.0,160.0 L 150.0,161.0 L 143.0,161.0 L 141.0,159.0 L 141.0,152.0 L 143.0,150.0" fill="#F7F7F7"/>
	<path d="M 199.0,80.0 L 200.0,80.0 L 200.0,127.0 L 199.0,127.0 L 198.0,117.0 L 198.0,98.0 L 197.0,92.0 L 198.0,81.0 L 199.0,80.0" fill="#E7E7E7"/>
</svg>
