<?xml version="1.0" ?>
<svg baseProfile="full" height="600px" version="1.1" viewBox="-20.1 -20.1 240.2 240.2" width="600px" xmlns="http://www.w3.org/2000/svg" xmlns:ev="http://www.w3.org/2001/xml-events" xmlns:xlink="http://www.w3.org/1999/xlink">
	<defs/>
	<path d="M 0.0,0.0 L 200.0,0.0 L 200.0,200.0 L 0.0,200.0 L 0.0,0.0" fill="#FCFCFC"/>
	<path d="M 148.0,34.0 L 156.0,34.0 L 161.0,37.0 L 163.0,40.0 L 163.0,50.0 L 160.0,56.0 L 155.0,60.0 L 153.0,61.0 L 152.0,71.0 L 162.0,72.0 L 173.0,75.0 L 187.0,82.0 L 187.0,76.0 L 190.0,74.0 L 196.0,74.0 L 199.0,76.0 L 198.0,93.0 L 199.0,95.0 L 199.0,102.0 L 198.0,109.0 L 199.0,120.0 L 197.0,121.0 L 188.0,121.0 L 186.0,118.0 L 170.0,126.0 L 158.0,130.0 L 138.0,134.0 L 142.0,137.0 L 151.0,138.0 L 158.0,144.0 L 159.0,146.0 L 159.0,155.0 L 155.0,162.0 L 149.0,165.0 L 141.0,165.0 L 135.0,161.0 L 132.0,156.0 L 132.0,146.0 L 133.0,142.0 L 126.0,134.0 L 89.0,132.0 L 68.0,129.0 L 48.0,124.0 L 32.0,118.0 L 20.0,111.0 L 13.0,104.0 L 9.0,92.0 L 2.0,66.0 L 1.0,59.0 L 3.0,57.0 L 24.0,57.0 L 31.0,60.0 L 36.0,66.0 L 45.0,81.0 L 62.0,80.0 L 81.0,78.0 L 88.0,78.0 L 88.0,64.0 L 80.0,63.0 L 70.0,59.0 L 65.0,53.0 L 65.0,46.0 L 69.0,42.0 L 72.0,41.0 L 103.0,39.0 L 144.0,35.0 L 148.0,34.0" fill="#080808"/>
	<path d="M 11.0,65.0 L 23.0,65.0 L 28.0,68.0 L 40.0,88.0 L 42.0,89.0 L 64.0,88.0 L 81.0,86.0 L 90.0,86.0 L 98.0,92.0 L 100.0,93.0 L 123.0,93.0 L 132.0,91.0 L 141.0,87.0 L 147.0,82.0 L 150.0,78.0 L 159.0,79.0 L 176.0,85.0 L 186.0,91.0 L 190.0,95.0 L 190.0,102.0 L 186.0,107.0 L 176.0,114.0 L 160.0,121.0 L 140.0,125.0 L 103.0,125.0 L 81.0,123.0 L 66.0,120.0 L 47.0,115.0 L 29.0,107.0 L 21.0,101.0 L 18.0,93.0 L 11.0,68.0 L 11.0,65.0" fill="#FBFBFB"/>
	<path d="M 139.0,64.0 L 144.0,64.0 L 144.0,73.0 L 139.0,80.0 L 131.0,84.0 L 122.0,86.0 L 102.0,86.0 L 96.0,81.0 L 96.0,65.0 L 133.0,65.0 L 139.0,64.0" fill="#FAFAFA"/>
	<path d="M 148.0,42.0 L 155.0,42.0 L 155.0,49.0 L 149.0,54.0 L 140.0,57.0 L 130.0,58.0 L 100.0,58.0 L 87.0,56.0 L 77.0,53.0 L 73.0,51.0 L 73.0,49.0 L 128.0,45.0 L 148.0,42.0" fill="#F5F5F5"/>
	<path d="M 25.0,176.0 L 50.0,176.0 L 52.0,178.0 L 51.0,183.0 L 50.0,184.0 L 25.0,184.0 L 23.0,182.0 L 24.0,177.0 L 25.0,176.0" fill="#050505"/>
	<path d="M 143.0,145.0 L 149.0,146.0 L 151.0,148.0 L 151.0,154.0 L 148.0,157.0 L 141.0,156.0 L 140.0,154.0 L 140.0,148.0 L 143.0,145.0" fill="#F3F3F3"/>
	<path d="M 58.0,152.0 L 65.0,152.0 L 67.0,154.0 L 66.0,159.0 L 65.0,160.0 L 58.0,160.0 L 56.0,158.0 L 57.0,153.0 L 58.0,152.0" fill="#060606"/>
	<path d="M 198.0,81.0 L 200.0,83.0 L 200.0,113.0 L 198.0,115.0 L 197.0,104.0 L 198.0,102.0 L 198.0,95.0 L 197.0,93.0 L 197.0,86.0 L 198.0,81.0" fill="#F0F0F0"/>
	<path d="M 198.0,81.0 L 200.0,83.0 L 200.0,95.0 L 198.0,95.0 L 197.0,93.0 L 197.0,86.0 L 198.0,81.0" fill="#E5E5E5"/>
</svg>
