<?xml version="1.0" ?>
<svg baseProfile="full" height="600px" version="1.1" viewBox="-20.1 -20.1 240.2 240.2" width="600px" xmlns="http://www.w3.org/2000/svg" xmlns:ev="http://www.w3.org/2001/xml-events" xmlns:xlink="http://www.w3.org/1999/xlink">
	<defs/>
	<path d="M 0.0,0.0 L 200.0,0.0 L 200.0,200.0 L 0.0,200.0 L 0.0,0.0" fill="#FCFCFC"/>
	<path d="M 146.0,36.0 L 156.0,36.0 L 161.0,39.0 L 163.0,43.0 L 163.0,51.0 L 160.0,57.0 L 154.0,62.0 L 152.0,63.0 L 151.0,72.0 L 161.0,73.0 L 182.0,80.0 L 187.0,83.0 L 187.0,73.0 L 189.0,72.0 L 197.0,72.0 L 199.0,74.0 L 198.0,85.0 L 198.0,94.0 L 199.0,96.0 L 199.0,103.0 L 198.0,105.0 L 198.0,113.0 L 199.0,125.0 L 196.0,127.0 L 190.0,127.0 L 188.0,125.0 L 187.0,118.0 L 178.0,124.0 L 164.0,130.0 L 144.0,134.0 L 138.0,135.0 L 140.0,139.0 L 149.0,139.0 L 155.0,142.0 L 159.0,147.0 L 160.0,149.0 L 160.0,156.0 L 155.0,164.0 L 149.0,167.0 L 142.0,167.0 L 136.0,163.0 L 133.0,159.0 L 132.0,156.0 L 132.0,148.0 L 134.0,144.0 L 127.0,136.0 L 98.0,135.0 L 74.0,132.0 L 59.0,129.0 L 44.0,125.0 L 29.0,119.0 L 18.0,112.0 L 13.0,106.0 L 9.0,95.0 L 3.0,73.0 L 1.0,66.0 L 1.0,61.0 L 2.0,60.0 L 25.0,60.0 L 31.0,63.0 L 37.0,70.0 L 44.0,82.0 L 44.0,84.0 L 85.0,80.0 L 88.0,80.0 L 88.0,66.0 L 79.0,65.0 L 70.0,61.0 L 65.0,56.0 L 64.0,49.0 L 70.0,44.0 L 72.0,43.0 L 116.0,40.0 L 146.0,36.0" fill="#080808"/>
	<path d="M 0.0,0.0 L 200.0,0.0 L 200.0,81.0 L 199.0,81.0 L 198.0,74.0 L 197.0,73.0 L 187.0,73.0 L 188.0,84.0 L 174.0,78.0 L 161.0,74.0 L 151.0,72.0 L 151.0,63.0 L 159.0,57.0 L 162.0,51.0 L 162.0,43.0 L 160.0,39.0 L 156.0,37.0 L 146.0,37.0 L 116.0,41.0 L 72.0,44.0 L 66.0,48.0 L 65.0,49.0 L 66.0,56.0 L 71.0,61.0 L 83.0,65.0 L 88.0,66.0 L 88.0,80.0 L 85.0,81.0 L 57.0,84.0 L 44.0,84.0 L 34.0,67.0 L 28.0,62.0 L 25.0,61.0 L 2.0,61.0 L 1.0,68.0 L 0.0,68.0 L 0.0,0.0" fill="#FCFCFC"/>
	<path d="M 11.0,68.0 L 24.0,68.0 L 29.0,73.0 L 39.0,89.0 L 39.0,91.0 L 48.0,92.0 L 87.0,88.0 L 91.0,89.0 L 96.0,93.0 L 100.0,95.0 L 124.0,95.0 L 137.0,91.0 L 145.0,86.0 L 149.0,80.0 L 156.0,80.0 L 170.0,84.0 L 186.0,92.0 L 190.0,96.0 L 190.0,103.0 L 184.0,110.0 L 171.0,118.0 L 150.0,125.0 L 136.0,127.0 L 103.0,127.0 L 82.0,125.0 L 59.0,121.0 L 38.0,114.0 L 25.0,107.0 L 20.0,103.0 L 13.0,79.0 L 11.0,72.0 L 11.0,68.0" fill="#FBFBFB"/>
	<path d="M 136.0,66.0 L 143.0,66.0 L 143.0,76.0 L 137.0,83.0 L 128.0,87.0 L 120.0,88.0 L 101.0,88.0 L 96.0,83.0 L 96.0,67.0 L 128.0,67.0 L 136.0,66.0" fill="#FAFAFA"/>
	<path d="M 149.0,44.0 L 155.0,44.0 L 155.0,50.0 L 150.0,55.0 L 142.0,58.0 L 129.0,60.0 L 97.0,60.0 L 81.0,57.0 L 72.0,53.0 L 72.0,51.0 L 115.0,48.0 L 149.0,44.0" fill="#F2F2F2"/>
	<path d="M 58.0,152.0 L 95.0,152.0 L 96.0,153.0 L 96.0,159.0 L 95.0,160.0 L 58.0,160.0 L 56.0,158.0 L 57.0,153.0 L 58.0,152.0" fill="#030303"/>
	<path d="M 143.0,147.0 L 150.0,148.0 L 152.0,151.0 L 151.0,156.0 L 148.0,159.0 L 142.0,158.0 L 140.0,155.0 L 140.0,150.0 L 143.0,147.0" fill="#EFEFEF"/>
	<path d="M 198.0,77.0 L 200.0,81.0 L 200.0,116.0 L 198.0,120.0 L 197.0,113.0 L 197.0,105.0 L 198.0,103.0 L 198.0,96.0 L 197.0,94.0 L 197.0,85.0 L 198.0,77.0" fill="#EBEBEB"/>
	<path d="M 44.0,176.0 L 50.0,176.0 L 52.0,178.0 L 51.0,183.0 L 50.0,184.0 L 44.0,184.0 L 42.0,182.0 L 43.0,177.0 L 44.0,176.0" fill="#080808"/>
	<path d="M 198.0,103.0 L 200.0,103.0 L 200.0,116.0 L 198.0,120.0 L 197.0,113.0 L 197.0,105.0 L 198.0,103.0" fill="#DFDFDF"/>
</svg>
