<?xml version="1.0" ?>
<svg baseProfile="full" height="600px" version="1.1" viewBox="-19.296000000000003 -19.296000000000003 230.592 230.592" width="600px" xmlns="http://www.w3.org/2000/svg" xmlns:ev="http://www.w3.org/2001/xml-events" xmlns:xlink="http://www.w3.org/1999/xlink">
	<defs/>
	<path d="M 0.0,0.0 L 192.0,0.0 L 192.0,192.0 L 0.0,192.0 L 0.0,0.0" fill="#FDFDFD"/>
	<path d="M 83.0,44.0 L 93.0,45.0 L 98.0,50.0 L 111.0,73.0 L 116.0,81.0 L 137.0,85.0 L 144.0,85.0 L 138.0,64.0 L 136.0,59.0 L 136.0,56.0 L 144.0,57.0 L 153.0,61.0 L 163.0,74.0 L 173.0,90.0 L 179.0,92.0 L 191.0,94.0 L 192.0,95.0 L 192.0,123.0 L 175.0,122.0 L 160.0,132.0 L 143.0,142.0 L 134.0,146.0 L 123.0,146.0 L 117.0,144.0 L 123.0,136.0 L 133.0,125.0 L 140.0,116.0 L 140.0,115.0 L 119.0,111.0 L 105.0,106.0 L 89.0,97.0 L 78.0,88.0 L 71.0,80.0 L 71.0,78.0 L 87.0,78.0 L 83.0,52.0 L 83.0,44.0" fill="#9EA7D9"/>
	<path d="M 16.0,152.0 L 176.0,152.0 L 176.0,168.0 L 16.0,168.0 L 16.0,152.0" fill="#546E7A"/>
	<path d="M 83.0,44.0 L 93.0,45.0 L 98.0,50.0 L 111.0,73.0 L 115.0,81.0 L 87.0,79.0 L 83.0,52.0 L 83.0,44.0" fill="#4254B6"/>
	<path d="M 136.0,56.0 L 144.0,57.0 L 153.0,61.0 L 163.0,74.0 L 172.0,88.0 L 172.0,91.0 L 160.0,90.0 L 146.0,87.0 L 144.0,85.0 L 138.0,64.0 L 136.0,59.0 L 136.0,56.0" fill="#7A87CB"/>
	<path d="M 152.0,97.0 L 157.0,98.0 L 158.0,103.0 L 157.0,105.0 L 152.0,105.0 L 150.0,103.0 L 151.0,98.0 L 152.0,97.0" fill="#303D97"/>
	<path d="M 136.0,94.0 L 141.0,95.0 L 142.0,100.0 L 140.0,102.0 L 135.0,102.0 L 134.0,101.0 L 134.0,96.0 L 136.0,94.0" fill="#303D98"/>
	<path d="M 183.0,103.0 L 188.0,103.0 L 189.0,104.0 L 189.0,109.0 L 187.0,111.0 L 182.0,110.0 L 181.0,105.0 L 183.0,103.0" fill="#303D98"/>
	<path d="M 167.0,100.0 L 172.0,100.0 L 173.0,101.0 L 173.0,107.0 L 167.0,108.0 L 166.0,107.0 L 166.0,101.0 L 167.0,100.0" fill="#2F3C97"/>
	<path d="M 71.0,78.0 L 87.0,78.0 L 87.0,79.0 L 76.0,80.0 L 74.0,79.0 L 73.0,82.0 L 71.0,78.0" fill="#AFB6E0"/>
</svg>
