<?xml version="1.0" ?>
<svg baseProfile="full" height="600px" version="1.1" viewBox="-19.296000000000003 -19.296000000000003 230.592 230.592" width="600px" xmlns="http://www.w3.org/2000/svg" xmlns:ev="http://www.w3.org/2001/xml-events" xmlns:xlink="http://www.w3.org/1999/xlink">
	<defs/>
	<path d="M 0.0,0.0 L 192.0,0.0 L 192.0,192.0 L 0.0,192.0 L 0.0,0.0" fill="#FDFDFE"/>
	<path d="M 68.0,28.0 L 78.0,28.0 L 92.0,35.0 L 108.0,45.0 L 115.0,44.0 L 140.0,36.0 L 164.0,36.0 L 177.0,41.0 L 180.0,44.0 L 179.0,49.0 L 173.0,54.0 L 163.0,59.0 L 132.0,69.0 L 129.0,69.0 L 126.0,78.0 L 118.0,94.0 L 108.0,112.0 L 100.0,122.0 L 88.0,128.0 L 84.0,128.0 L 87.0,113.0 L 93.0,90.0 L 95.0,82.0 L 83.0,87.0 L 69.0,91.0 L 62.0,92.0 L 35.0,92.0 L 19.0,88.0 L 13.0,85.0 L 13.0,83.0 L 26.0,77.0 L 24.0,72.0 L 13.0,56.0 L 8.0,48.0 L 18.0,44.0 L 22.0,45.0 L 41.0,57.0 L 53.0,65.0 L 58.0,64.0 L 82.0,56.0 L 76.0,49.0 L 69.0,41.0 L 60.0,31.0 L 63.0,29.0 L 68.0,28.0" fill="#9FA7D9"/>
	<path d="M 16.0,148.0 L 176.0,148.0 L 176.0,164.0 L 16.0,164.0 L 16.0,148.0" fill="#546E7A"/>
	<path d="M 68.0,28.0 L 78.0,28.0 L 92.0,35.0 L 108.0,45.0 L 108.0,48.0 L 87.0,55.0 L 82.0,55.0 L 66.0,38.0 L 60.0,30.0 L 68.0,28.0" fill="#7B87CB"/>
	<path d="M 18.0,44.0 L 22.0,45.0 L 41.0,57.0 L 53.0,65.0 L 53.0,67.0 L 30.0,76.0 L 26.0,75.0 L 13.0,56.0 L 8.0,48.0 L 18.0,44.0" fill="#4254B6"/>
	<path d="M 153.0,37.0 L 158.0,37.0 L 159.0,45.0 L 151.0,46.0 L 150.0,38.0 L 153.0,37.0" fill="#303C97"/>
	<path d="M 95.0,62.0 L 100.0,62.0 L 101.0,63.0 L 101.0,68.0 L 99.0,70.0 L 94.0,69.0 L 93.0,64.0 L 95.0,62.0" fill="#323F99"/>
	<path d="M 80.0,67.0 L 85.0,68.0 L 86.0,73.0 L 84.0,75.0 L 79.0,74.0 L 78.0,69.0 L 80.0,67.0" fill="#303C97"/>
	<path d="M 126.0,51.0 L 130.0,52.0 L 132.0,54.0 L 131.0,58.0 L 130.0,59.0 L 125.0,59.0 L 124.0,58.0 L 124.0,53.0 L 126.0,51.0" fill="#303D98"/>
	<path d="M 110.0,57.0 L 115.0,57.0 L 116.0,58.0 L 116.0,63.0 L 115.0,64.0 L 110.0,64.0 L 109.0,63.0 L 109.0,58.0 L 110.0,57.0" fill="#2A3794"/>
	<path d="M 162.0,37.0 L 170.0,38.0 L 172.0,40.0 L 163.0,43.0 L 162.0,37.0" fill="#303D98"/>
	<path d="M 156.0,36.0 L 164.0,36.0 L 162.0,37.0 L 163.0,41.0 L 159.0,44.0 L 158.0,37.0 L 156.0,36.0" fill="#939CD2"/>
</svg>
