<?xml version="1.0" ?>
<svg baseProfile="full" height="600px" version="1.1" viewBox="-20.1 -20.1 240.2 240.2" width="600px" xmlns="http://www.w3.org/2000/svg" xmlns:ev="http://www.w3.org/2001/xml-events" xmlns:xlink="http://www.w3.org/1999/xlink">
	<defs/>
	<path d="M 0.0,0.0 L 200.0,0.0 L 200.0,200.0 L 0.0,200.0 L 0.0,0.0" fill="#FBFBFB"/>
	<path d="M 0.0,0.0 L 200.0,0.0 L 200.0,96.0 L 196.0,91.0 L 192.0,86.0 L 184.0,82.0 L 181.0,81.0 L 116.0,80.0 L 105.0,66.0 L 94.0,52.0 L 83.0,38.0 L 72.0,24.0 L 66.0,16.0 L 62.0,14.0 L 48.0,13.0 L 45.0,16.0 L 46.0,22.0 L 63.0,64.0 L 69.0,80.0 L 26.0,80.0 L 16.0,60.0 L 11.0,57.0 L 4.0,57.0 L 0.0,59.0 L 0.0,0.0" fill="#FDFDFD"/>
	<path d="M 199.0,104.0 L 200.0,104.0 L 200.0,200.0 L 0.0,200.0 L 0.0,141.0 L 3.0,143.0 L 12.0,143.0 L 16.0,139.0 L 26.0,120.0 L 69.0,120.0 L 59.0,145.0 L 46.0,177.0 L 45.0,184.0 L 48.0,187.0 L 63.0,186.0 L 68.0,181.0 L 81.0,165.0 L 94.0,148.0 L 107.0,132.0 L 116.0,120.0 L 181.0,119.0 L 190.0,115.0 L 195.0,111.0 L 199.0,104.0" fill="#FDFDFD"/>
	<path d="M 48.0,12.0 L 62.0,13.0 L 68.0,17.0 L 78.0,30.0 L 89.0,44.0 L 103.0,62.0 L 114.0,76.0 L 116.0,79.0 L 181.0,80.0 L 190.0,84.0 L 196.0,89.0 L 200.0,96.0 L 200.0,104.0 L 194.0,113.0 L 187.0,118.0 L 181.0,120.0 L 116.0,121.0 L 106.0,134.0 L 95.0,148.0 L 84.0,162.0 L 73.0,176.0 L 66.0,185.0 L 63.0,187.0 L 48.0,188.0 L 44.0,184.0 L 45.0,177.0 L 61.0,138.0 L 68.0,121.0 L 26.0,120.0 L 24.0,126.0 L 16.0,141.0 L 12.0,144.0 L 3.0,144.0 L 0.0,141.0 L 0.0,59.0 L 4.0,56.0 L 11.0,56.0 L 16.0,59.0 L 26.0,78.0 L 26.0,80.0 L 68.0,79.0 L 53.0,42.0 L 44.0,20.0 L 45.0,14.0 L 48.0,12.0 M 54.0,21.0 L 57.0,31.0 L 73.0,69.0 L 81.0,88.0 L 21.0,88.0 L 19.0,82.0 L 10.0,65.0 L 9.0,68.0 L 15.0,96.0 L 15.0,104.0 L 9.0,131.0 L 9.0,136.0 L 11.0,134.0 L 19.0,118.0 L 21.0,112.0 L 80.0,113.0 L 64.0,152.0 L 54.0,177.0 L 54.0,179.0 L 60.0,179.0 L 67.0,171.0 L 80.0,154.0 L 93.0,138.0 L 103.0,125.0 L 112.0,113.0 L 180.0,112.0 L 188.0,107.0 L 192.0,101.0 L 191.0,97.0 L 186.0,91.0 L 180.0,88.0 L 112.0,87.0 L 102.0,74.0 L 91.0,60.0 L 80.0,46.0 L 69.0,32.0 L 61.0,22.0 L 60.0,21.0 L 54.0,21.0" fill="#060606"/>
	<path d="M 0.0,65.0 L 1.0,65.0 L 8.0,97.0 L 7.0,107.0 L 1.0,136.0 L 0.0,136.0 L 0.0,65.0" fill="#F2F2F2"/>
	<path d="M 9.0,65.0 L 12.0,68.0 L 13.0,72.0 L 11.0,72.0 L 10.0,74.0 L 9.0,65.0" fill="#CACACA"/>
</svg>
