<?xml version="1.0" ?>
<svg baseProfile="full" height="600px" version="1.1" viewBox="-19.296000000000003 -19.296000000000003 230.592 230.592" width="600px" xmlns="http://www.w3.org/2000/svg" xmlns:ev="http://www.w3.org/2001/xml-events" xmlns:xlink="http://www.w3.org/1999/xlink">
	<defs/>
	<path d="M 0.0,0.0 L 192.0,0.0 L 192.0,192.0 L 0.0,192.0 L 0.0,0.0" fill="#FDFDFD"/>
	<path d="M 32.0,24.0 L 45.0,28.0 L 60.0,65.0 L 70.0,69.0 L 88.0,74.0 L 85.0,50.0 L 84.0,40.0 L 93.0,43.0 L 99.0,47.0 L 105.0,56.0 L 116.0,81.0 L 116.0,84.0 L 122.0,85.0 L 148.0,94.0 L 156.0,98.0 L 166.0,106.0 L 173.0,114.0 L 176.0,120.0 L 176.0,125.0 L 173.0,127.0 L 160.0,127.0 L 149.0,124.0 L 144.0,124.0 L 144.0,132.0 L 140.0,136.0 L 135.0,136.0 L 132.0,132.0 L 132.0,127.0 L 136.0,124.0 L 139.0,124.0 L 138.0,121.0 L 116.0,114.0 L 112.0,115.0 L 89.0,127.0 L 71.0,135.0 L 66.0,136.0 L 57.0,136.0 L 50.0,133.0 L 50.0,130.0 L 63.0,118.0 L 71.0,111.0 L 80.0,103.0 L 67.0,98.0 L 54.0,93.0 L 39.0,84.0 L 26.0,72.0 L 19.0,63.0 L 16.0,57.0 L 27.0,58.0 L 32.0,59.0 L 32.0,24.0" fill="#9EA7D9"/>
	<path d="M 16.0,152.0 L 176.0,152.0 L 176.0,168.0 L 16.0,168.0 L 16.0,152.0" fill="#546E7A"/>
	<path d="M 84.0,40.0 L 93.0,43.0 L 99.0,47.0 L 105.0,56.0 L 115.0,79.0 L 115.0,83.0 L 106.0,81.0 L 89.0,76.0 L 84.0,45.0 L 84.0,40.0" fill="#7A87CB"/>
	<path d="M 32.0,24.0 L 45.0,28.0 L 59.0,62.0 L 59.0,65.0 L 48.0,63.0 L 33.0,60.0 L 32.0,59.0 L 32.0,24.0" fill="#4253B6"/>
	<path d="M 140.0,121.0 L 144.0,122.0 L 144.0,132.0 L 140.0,136.0 L 135.0,136.0 L 132.0,132.0 L 132.0,127.0 L 136.0,124.0 L 139.0,124.0 L 140.0,121.0" fill="#4E626C"/>
	<path d="M 154.0,102.0 L 160.0,103.0 L 162.0,105.0 L 160.0,111.0 L 152.0,110.0 L 153.0,104.0 L 154.0,102.0" fill="#2F3B97"/>
	<path d="M 93.0,87.0 L 98.0,87.0 L 99.0,88.0 L 99.0,93.0 L 97.0,95.0 L 92.0,94.0 L 91.0,89.0 L 93.0,87.0" fill="#303D98"/>
	<path d="M 109.0,91.0 L 113.0,92.0 L 114.0,93.0 L 114.0,98.0 L 113.0,99.0 L 108.0,99.0 L 106.0,97.0 L 107.0,92.0 L 109.0,91.0" fill="#2F3C97"/>
	<path d="M 77.0,82.0 L 82.0,82.0 L 84.0,84.0 L 83.0,89.0 L 78.0,90.0 L 76.0,88.0 L 76.0,83.0 L 77.0,82.0" fill="#313D98"/>
	<path d="M 123.0,97.0 L 128.0,97.0 L 129.0,98.0 L 129.0,103.0 L 128.0,104.0 L 123.0,104.0 L 122.0,103.0 L 122.0,98.0 L 123.0,97.0" fill="#293693"/>
	<path d="M 165.0,107.0 L 169.0,109.0 L 172.0,113.0 L 172.0,115.0 L 165.0,114.0 L 164.0,109.0 L 165.0,107.0" fill="#38449C"/>
	<path d="M 159.0,101.0 L 165.0,105.0 L 166.0,107.0 L 164.0,113.0 L 163.0,110.0 L 160.0,111.0 L 161.0,105.0 L 157.0,102.0 L 159.0,101.0" fill="#959ED3"/>
</svg>
