<?xml version="1.0" ?>
<svg baseProfile="full" height="600px" version="1.1" viewBox="-16.08 -16.08 192.16 192.16" width="600px" xmlns="http://www.w3.org/2000/svg" xmlns:ev="http://www.w3.org/2001/xml-events" xmlns:xlink="http://www.w3.org/1999/xlink">
	<defs/>
	<path d="M 0.0,0.0 L 160.0,0.0 L 160.0,160.0 L 0.0,160.0 L 0.0,0.0" fill="#FDFCFC"/>
	<path d="M 0.0,0.0 L 160.0,0.0 L 160.0,160.0 L 0.0,160.0 L 0.0,0.0 M 28.0,10.0 L 19.0,14.0 L 13.0,19.0 L 8.0,29.0 L 8.0,40.0 L 14.0,52.0 L 18.0,50.0 L 29.0,39.0 L 25.0,45.0 L 18.0,56.0 L 13.0,70.0 L 12.0,78.0 L 12.0,95.0 L 14.0,105.0 L 19.0,118.0 L 27.0,130.0 L 34.0,137.0 L 28.0,144.0 L 24.0,148.0 L 24.0,153.0 L 25.0,154.0 L 31.0,154.0 L 41.0,144.0 L 46.0,146.0 L 57.0,151.0 L 67.0,154.0 L 91.0,154.0 L 103.0,151.0 L 117.0,144.0 L 121.0,146.0 L 129.0,154.0 L 135.0,154.0 L 136.0,148.0 L 126.0,138.0 L 132.0,131.0 L 138.0,123.0 L 144.0,111.0 L 148.0,98.0 L 148.0,78.0 L 146.0,66.0 L 138.0,49.0 L 131.0,40.0 L 136.0,44.0 L 144.0,52.0 L 149.0,47.0 L 152.0,40.0 L 152.0,29.0 L 147.0,19.0 L 140.0,13.0 L 131.0,10.0 L 123.0,10.0 L 111.0,16.0 L 111.0,19.0 L 123.0,31.0 L 124.0,33.0 L 111.0,25.0 L 95.0,19.0 L 91.0,19.0 L 90.0,13.0 L 87.0,11.0 L 72.0,11.0 L 68.0,16.0 L 68.0,19.0 L 58.0,21.0 L 42.0,29.0 L 36.0,33.0 L 43.0,25.0 L 49.0,19.0 L 49.0,16.0 L 37.0,10.0 L 28.0,10.0" fill="#FCFCFC"/>
	<path d="M 28.0,10.0 L 37.0,10.0 L 49.0,16.0 L 48.0,20.0 L 37.0,31.0 L 36.0,33.0 L 49.0,25.0 L 61.0,20.0 L 68.0,19.0 L 69.0,14.0 L 72.0,11.0 L 87.0,11.0 L 91.0,15.0 L 91.0,19.0 L 98.0,20.0 L 111.0,25.0 L 124.0,33.0 L 117.0,25.0 L 110.0,18.0 L 114.0,14.0 L 123.0,10.0 L 131.0,10.0 L 141.0,14.0 L 147.0,19.0 L 152.0,29.0 L 152.0,40.0 L 148.0,49.0 L 144.0,52.0 L 131.0,39.0 L 135.0,45.0 L 141.0,55.0 L 146.0,66.0 L 148.0,78.0 L 148.0,98.0 L 144.0,111.0 L 137.0,125.0 L 126.0,137.0 L 132.0,144.0 L 136.0,148.0 L 135.0,154.0 L 129.0,154.0 L 119.0,144.0 L 114.0,146.0 L 103.0,151.0 L 91.0,154.0 L 67.0,154.0 L 52.0,149.0 L 43.0,144.0 L 39.0,146.0 L 31.0,154.0 L 25.0,154.0 L 24.0,153.0 L 24.0,148.0 L 34.0,138.0 L 28.0,131.0 L 20.0,120.0 L 15.0,108.0 L 13.0,102.0 L 12.0,95.0 L 12.0,78.0 L 14.0,66.0 L 19.0,55.0 L 25.0,45.0 L 29.0,39.0 L 16.0,52.0 L 14.0,52.0 L 8.0,40.0 L 8.0,29.0 L 13.0,19.0 L 20.0,13.0 L 28.0,10.0 M 72.0,33.0 L 59.0,37.0 L 47.0,44.0 L 38.0,53.0 L 32.0,63.0 L 28.0,73.0 L 27.0,81.0 L 27.0,95.0 L 32.0,110.0 L 39.0,120.0 L 44.0,126.0 L 54.0,133.0 L 66.0,138.0 L 70.0,139.0 L 88.0,139.0 L 96.0,137.0 L 106.0,133.0 L 114.0,127.0 L 119.0,123.0 L 128.0,110.0 L 132.0,98.0 L 133.0,92.0 L 133.0,81.0 L 131.0,70.0 L 124.0,56.0 L 115.0,46.0 L 105.0,39.0 L 92.0,34.0 L 87.0,33.0 L 72.0,33.0" fill="#F48B8B"/>
	<path d="M 28.0,10.0 L 37.0,10.0 L 49.0,16.0 L 48.0,20.0 L 37.0,31.0 L 36.0,33.0 L 49.0,25.0 L 61.0,20.0 L 68.0,19.0 L 69.0,14.0 L 72.0,11.0 L 87.0,11.0 L 91.0,15.0 L 91.0,19.0 L 98.0,20.0 L 111.0,25.0 L 124.0,33.0 L 117.0,25.0 L 110.0,18.0 L 114.0,14.0 L 123.0,10.0 L 131.0,10.0 L 141.0,14.0 L 147.0,19.0 L 152.0,29.0 L 152.0,40.0 L 148.0,49.0 L 144.0,52.0 L 131.0,39.0 L 135.0,45.0 L 141.0,55.0 L 146.0,66.0 L 148.0,78.0 L 148.0,98.0 L 144.0,111.0 L 137.0,125.0 L 126.0,137.0 L 132.0,144.0 L 136.0,148.0 L 135.0,154.0 L 129.0,154.0 L 119.0,144.0 L 114.0,146.0 L 103.0,151.0 L 91.0,154.0 L 67.0,154.0 L 52.0,149.0 L 43.0,144.0 L 39.0,146.0 L 31.0,154.0 L 25.0,154.0 L 24.0,153.0 L 24.0,148.0 L 34.0,138.0 L 28.0,131.0 L 20.0,120.0 L 15.0,108.0 L 13.0,102.0 L 12.0,95.0 L 12.0,78.0 L 14.0,66.0 L 19.0,55.0 L 25.0,45.0 L 29.0,39.0 L 16.0,52.0 L 14.0,52.0 L 8.0,40.0 L 8.0,29.0 L 13.0,19.0 L 20.0,13.0 L 28.0,10.0 M 69.0,22.0 L 55.0,26.0 L 40.0,35.0 L 29.0,46.0 L 21.0,59.0 L 17.0,70.0 L 16.0,75.0 L 16.0,96.0 L 19.0,109.0 L 26.0,122.0 L 35.0,133.0 L 47.0,142.0 L 60.0,148.0 L 69.0,150.0 L 93.0,150.0 L 109.0,144.0 L 120.0,137.0 L 128.0,130.0 L 137.0,117.0 L 142.0,105.0 L 144.0,97.0 L 144.0,76.0 L 140.0,62.0 L 134.0,50.0 L 123.0,38.0 L 114.0,31.0 L 104.0,26.0 L 95.0,23.0 L 88.0,22.0 L 69.0,22.0" fill="#C94B4B"/>
	<path d="M 73.0,29.0 L 86.0,29.0 L 101.0,33.0 L 111.0,38.0 L 121.0,46.0 L 129.0,56.0 L 134.0,67.0 L 137.0,78.0 L 137.0,93.0 L 133.0,108.0 L 127.0,119.0 L 118.0,129.0 L 110.0,135.0 L 100.0,140.0 L 94.0,142.0 L 87.0,143.0 L 70.0,143.0 L 55.0,138.0 L 44.0,131.0 L 35.0,122.0 L 27.0,108.0 L 24.0,99.0 L 23.0,92.0 L 23.0,79.0 L 26.0,66.0 L 34.0,52.0 L 42.0,43.0 L 52.0,36.0 L 62.0,32.0 L 73.0,29.0 M 72.0,33.0 L 59.0,37.0 L 47.0,44.0 L 38.0,53.0 L 32.0,63.0 L 28.0,73.0 L 27.0,81.0 L 27.0,95.0 L 32.0,110.0 L 39.0,120.0 L 44.0,126.0 L 54.0,133.0 L 66.0,138.0 L 70.0,139.0 L 88.0,139.0 L 96.0,137.0 L 106.0,133.0 L 114.0,127.0 L 119.0,123.0 L 128.0,110.0 L 132.0,98.0 L 133.0,92.0 L 133.0,81.0 L 131.0,70.0 L 124.0,56.0 L 115.0,46.0 L 105.0,39.0 L 92.0,34.0 L 87.0,33.0 L 72.0,33.0" fill="#CA4B4C"/>
	<path d="M 38.0,75.0 L 49.0,76.0 L 71.0,80.0 L 76.0,79.0 L 84.0,79.0 L 88.0,83.0 L 90.0,90.0 L 105.0,105.0 L 106.0,110.0 L 105.0,112.0 L 99.0,112.0 L 82.0,95.0 L 75.0,95.0 L 52.0,118.0 L 49.0,116.0 L 51.0,112.0 L 72.0,91.0 L 73.0,89.0 L 63.0,88.0 L 39.0,83.0 L 37.0,81.0 L 37.0,76.0 L 38.0,75.0" fill="#6C7E93"/>
	<path d="M 123.0,14.0 L 132.0,14.0 L 140.0,18.0 L 146.0,25.0 L 148.0,29.0 L 148.0,39.0 L 145.0,46.0 L 138.0,40.0 L 117.0,19.0 L 118.0,16.0 L 123.0,14.0" fill="#ADBED1"/>
	<path d="M 29.0,14.0 L 36.0,14.0 L 43.0,17.0 L 41.0,21.0 L 16.0,46.0 L 13.0,43.0 L 12.0,39.0 L 12.0,29.0 L 16.0,22.0 L 23.0,16.0 L 29.0,14.0" fill="#ADBED1"/>
	<path d="M 28.0,10.0 L 37.0,10.0 L 49.0,16.0 L 48.0,20.0 L 37.0,31.0 L 37.0,34.0 L 30.0,39.0 L 23.0,45.0 L 16.0,52.0 L 14.0,52.0 L 8.0,40.0 L 8.0,29.0 L 13.0,19.0 L 20.0,13.0 L 28.0,10.0 M 29.0,14.0 L 21.0,17.0 L 13.0,26.0 L 12.0,29.0 L 12.0,39.0 L 15.0,46.0 L 22.0,40.0 L 43.0,19.0 L 42.0,16.0 L 36.0,14.0 L 29.0,14.0" fill="#708196"/>
	<path d="M 123.0,10.0 L 131.0,10.0 L 141.0,14.0 L 147.0,19.0 L 152.0,29.0 L 152.0,40.0 L 148.0,49.0 L 144.0,52.0 L 131.0,39.0 L 127.0,37.0 L 123.0,33.0 L 121.0,29.0 L 110.0,18.0 L 114.0,14.0 L 123.0,10.0 M 123.0,14.0 L 117.0,17.0 L 119.0,21.0 L 144.0,46.0 L 147.0,43.0 L 148.0,39.0 L 148.0,29.0 L 143.0,21.0 L 137.0,16.0 L 132.0,14.0 L 123.0,14.0" fill="#6F8196"/>
	<path d="M 34.0,138.0 L 39.0,140.0 L 41.0,144.0 L 31.0,154.0 L 25.0,154.0 L 24.0,153.0 L 24.0,148.0 L 34.0,138.0" fill="#6F8095"/>
	<path d="M 124.0,138.0 L 128.0,140.0 L 136.0,148.0 L 135.0,154.0 L 129.0,154.0 L 119.0,144.0 L 121.0,140.0 L 124.0,138.0" fill="#6E7F94"/>
	<path d="M 72.0,91.0 L 76.0,93.0 L 70.0,100.0 L 52.0,118.0 L 49.0,116.0 L 51.0,112.0 L 72.0,91.0" fill="#CA4F4F"/>
	<path d="M 72.0,11.0 L 87.0,11.0 L 91.0,15.0 L 91.0,18.0 L 68.0,19.0 L 69.0,14.0 L 72.0,11.0" fill="#6E8095"/>
	<path d="M 73.0,15.0 L 86.0,15.0 L 87.0,18.0 L 72.0,18.0 L 73.0,15.0" fill="#ACBDD0"/>
</svg>
