<?xml version="1.0" ?>
<svg baseProfile="full" height="600px" version="1.1" viewBox="-12.06 -12.06 144.12 144.12" width="600px" xmlns="http://www.w3.org/2000/svg" xmlns:ev="http://www.w3.org/2001/xml-events" xmlns:xlink="http://www.w3.org/1999/xlink">
	<defs/>
	<path d="M 0.0,0.0 L 120.0,0.0 L 120.0,120.0 L 0.0,120.0 L 0.0,0.0" fill="#FBFBFB"/>
	<path d="M 51.0,27.0 L 70.0,27.0 L 82.0,32.0 L 90.0,38.0 L 98.0,47.0 L 103.0,58.0 L 104.0,62.0 L 104.0,76.0 L 102.0,85.0 L 97.0,95.0 L 93.0,101.0 L 100.0,108.0 L 99.0,114.0 L 93.0,114.0 L 86.0,107.0 L 73.0,113.0 L 70.0,114.0 L 51.0,114.0 L 42.0,111.0 L 34.0,107.0 L 27.0,114.0 L 21.0,114.0 L 20.0,108.0 L 27.0,101.0 L 20.0,90.0 L 16.0,79.0 L 16.0,62.0 L 20.0,51.0 L 26.0,42.0 L 33.0,35.0 L 42.0,30.0 L 51.0,27.0" fill="#030303"/>
	<path d="M 21.0,17.0 L 30.0,17.0 L 38.0,21.0 L 32.0,29.0 L 20.0,43.0 L 12.0,53.0 L 8.0,51.0 L 5.0,44.0 L 5.0,33.0 L 8.0,26.0 L 16.0,19.0 L 21.0,17.0" fill="#060606"/>
	<path d="M 82.0,12.0 L 93.0,12.0 L 103.0,18.0 L 107.0,24.0 L 108.0,27.0 L 108.0,38.0 L 105.0,45.0 L 101.0,43.0 L 87.0,31.0 L 76.0,22.0 L 72.0,18.0 L 79.0,13.0 L 82.0,12.0" fill="#050505"/>
	<path d="M 37.0,67.0 L 64.0,67.0 L 64.0,100.0 L 62.0,102.0 L 57.0,101.0 L 56.0,100.0 L 56.0,74.0 L 37.0,74.0 L 36.0,69.0 L 37.0,67.0" fill="#FCFCFC"/>
</svg>
