<?xml version="1.0" ?>
<svg baseProfile="full" height="600px" version="1.1" viewBox="-12.06 -12.06 144.12 144.12" width="600px" xmlns="http://www.w3.org/2000/svg" xmlns:ev="http://www.w3.org/2001/xml-events" xmlns:xlink="http://www.w3.org/1999/xlink">
	<defs/>
	<path d="M 0.0,0.0 L 120.0,0.0 L 120.0,120.0 L 0.0,120.0 L 0.0,0.0" fill="#FBFBFB"/>
	<path d="M 52.0,22.0 L 65.0,22.0 L 77.0,25.0 L 86.0,30.0 L 94.0,37.0 L 101.0,48.0 L 104.0,59.0 L 104.0,72.0 L 100.0,85.0 L 94.0,95.0 L 92.0,95.0 L 99.0,103.0 L 100.0,108.0 L 98.0,110.0 L 93.0,109.0 L 87.0,103.0 L 81.0,105.0 L 71.0,109.0 L 66.0,110.0 L 52.0,110.0 L 41.0,106.0 L 36.0,103.0 L 32.0,104.0 L 26.0,110.0 L 21.0,109.0 L 20.0,104.0 L 27.0,97.0 L 19.0,83.0 L 16.0,71.0 L 16.0,59.0 L 20.0,46.0 L 28.0,35.0 L 37.0,28.0 L 45.0,24.0 L 52.0,22.0" fill="#020202"/>
	<path d="M 30.0,6.0 L 39.0,6.0 L 48.0,10.0 L 51.0,14.0 L 32.0,28.0 L 19.0,38.0 L 16.0,37.0 L 14.0,32.0 L 14.0,21.0 L 19.0,13.0 L 25.0,8.0 L 30.0,6.0" fill="#050505"/>
	<path d="M 90.0,15.0 L 101.0,15.0 L 108.0,18.0 L 113.0,22.0 L 117.0,29.0 L 117.0,41.0 L 113.0,49.0 L 109.0,51.0 L 93.0,30.0 L 85.0,19.0 L 88.0,16.0 L 90.0,15.0" fill="#050505"/>
	<path d="M 38.0,62.0 L 64.0,62.0 L 64.0,70.0 L 59.0,75.0 L 47.0,93.0 L 41.0,92.0 L 41.0,86.0 L 51.0,71.0 L 38.0,70.0 L 36.0,68.0 L 37.0,63.0 L 38.0,62.0" fill="#F7F7F7"/>
</svg>
