<?xml version="1.0" ?>
<svg baseProfile="full" height="600px" version="1.1" viewBox="-20.1 -20.1 240.2 240.2" width="600px" xmlns="http://www.w3.org/2000/svg" xmlns:ev="http://www.w3.org/2001/xml-events" xmlns:xlink="http://www.w3.org/1999/xlink">
	<defs/>
	<path d="M 0.0,0.0 L 200.0,0.0 L 200.0,200.0 L 0.0,200.0 L 0.0,0.0" fill="#FDFDFD"/>
	<path d="M 89.0,31.0 L 110.0,31.0 L 122.0,34.0 L 137.0,40.0 L 151.0,50.0 L 158.0,57.0 L 165.0,67.0 L 172.0,81.0 L 176.0,96.0 L 176.0,117.0 L 173.0,129.0 L 167.0,144.0 L 157.0,158.0 L 150.0,165.0 L 140.0,172.0 L 128.0,178.0 L 115.0,182.0 L 110.0,183.0 L 89.0,183.0 L 74.0,179.0 L 58.0,171.0 L 47.0,162.0 L 39.0,153.0 L 31.0,140.0 L 26.0,127.0 L 24.0,117.0 L 24.0,96.0 L 28.0,81.0 L 36.0,65.0 L 45.0,54.0 L 54.0,46.0 L 67.0,38.0 L 80.0,33.0 L 89.0,31.0" fill="#FDFDFD"/>
	<path d="M 88.0,23.0 L 111.0,23.0 L 127.0,27.0 L 141.0,33.0 L 154.0,42.0 L 166.0,54.0 L 175.0,68.0 L 181.0,82.0 L 184.0,95.0 L 184.0,116.0 L 181.0,132.0 L 174.0,148.0 L 165.0,161.0 L 162.0,164.0 L 163.0,168.0 L 180.0,185.0 L 179.0,190.0 L 174.0,191.0 L 155.0,172.0 L 144.0,179.0 L 130.0,186.0 L 121.0,189.0 L 109.0,191.0 L 88.0,191.0 L 72.0,187.0 L 56.0,179.0 L 45.0,172.0 L 26.0,191.0 L 21.0,190.0 L 20.0,185.0 L 38.0,167.0 L 37.0,163.0 L 29.0,153.0 L 21.0,137.0 L 18.0,128.0 L 16.0,116.0 L 16.0,95.0 L 20.0,79.0 L 28.0,63.0 L 36.0,52.0 L 47.0,41.0 L 61.0,32.0 L 75.0,26.0 L 88.0,23.0 M 89.0,31.0 L 74.0,35.0 L 58.0,43.0 L 47.0,52.0 L 39.0,61.0 L 31.0,74.0 L 26.0,87.0 L 24.0,96.0 L 24.0,117.0 L 27.0,129.0 L 33.0,144.0 L 43.0,158.0 L 50.0,165.0 L 60.0,172.0 L 74.0,179.0 L 89.0,183.0 L 110.0,183.0 L 122.0,180.0 L 137.0,174.0 L 151.0,164.0 L 158.0,157.0 L 165.0,147.0 L 171.0,135.0 L 175.0,122.0 L 176.0,117.0 L 176.0,96.0 L 172.0,81.0 L 164.0,65.0 L 155.0,54.0 L 146.0,46.0 L 133.0,38.0 L 120.0,33.0 L 110.0,31.0 L 89.0,31.0" fill="#070707"/>
	<path d="M 151.0,15.0 L 167.0,15.0 L 179.0,19.0 L 188.0,26.0 L 194.0,33.0 L 199.0,44.0 L 200.0,48.0 L 200.0,61.0 L 196.0,73.0 L 192.0,79.0 L 187.0,74.0 L 173.0,56.0 L 159.0,37.0 L 145.0,18.0 L 147.0,16.0 L 151.0,15.0" fill="#080808"/>
	<path d="M 52.0,0.0 L 63.0,0.0 L 75.0,4.0 L 81.0,8.0 L 76.0,13.0 L 58.0,27.0 L 42.0,39.0 L 21.0,55.0 L 19.0,55.0 L 17.0,48.0 L 17.0,33.0 L 20.0,23.0 L 27.0,13.0 L 35.0,6.0 L 43.0,2.0 L 52.0,0.0" fill="#080808"/>
	<path d="M 141.0,66.0 L 145.0,67.0 L 146.0,68.0 L 146.0,73.0 L 136.0,82.0 L 125.0,91.0 L 114.0,101.0 L 103.0,110.0 L 102.0,111.0 L 66.0,111.0 L 64.0,109.0 L 65.0,104.0 L 66.0,103.0 L 99.0,102.0 L 109.0,93.0 L 120.0,84.0 L 132.0,73.0 L 141.0,66.0" fill="#050505"/>
	<path d="M 48.0,9.0 L 66.0,9.0 L 66.0,11.0 L 47.0,25.0 L 26.0,41.0 L 25.0,41.0 L 25.0,33.0 L 29.0,24.0 L 34.0,17.0 L 43.0,11.0 L 48.0,9.0" fill="#F7F7F7"/>
	<path d="M 160.0,23.0 L 169.0,24.0 L 181.0,30.0 L 188.0,39.0 L 192.0,49.0 L 192.0,60.0 L 191.0,63.0 L 187.0,61.0 L 173.0,42.0 L 160.0,25.0 L 160.0,23.0" fill="#F7F7F7"/>
</svg>
