<?xml version="1.0" ?>
<svg baseProfile="full" height="600px" version="1.1" viewBox="-19.296000000000003 -19.296000000000003 230.592 230.592" width="600px" xmlns="http://www.w3.org/2000/svg" xmlns:ev="http://www.w3.org/2001/xml-events" xmlns:xlink="http://www.w3.org/1999/xlink">
	<defs/>
	<path d="M 0.0,0.0 L 192.0,0.0 L 192.0,192.0 L 0.0,192.0 L 0.0,0.0" fill="#ECEBEC"/>
	<path d="M 0.0,0.0 L 192.0,0.0 L 192.0,192.0 L 0.0,192.0 L 0.0,0.0 M 88.0,7.0 L 88.0,20.0 L 77.0,21.0 L 63.0,26.0 L 52.0,32.0 L 44.0,38.0 L 53.0,27.0 L 56.0,23.0 L 56.0,21.0 L 45.0,17.0 L 32.0,17.0 L 20.0,22.0 L 10.0,31.0 L 4.0,42.0 L 3.0,46.0 L 3.0,58.0 L 7.0,71.0 L 11.0,76.0 L 13.0,76.0 L 21.0,66.0 L 25.0,62.0 L 20.0,72.0 L 16.0,89.0 L 16.0,109.0 L 20.0,127.0 L 29.0,144.0 L 37.0,154.0 L 42.0,160.0 L 29.0,173.0 L 28.0,180.0 L 30.0,183.0 L 37.0,183.0 L 52.0,168.0 L 57.0,170.0 L 68.0,175.0 L 82.0,179.0 L 107.0,179.0 L 117.0,177.0 L 133.0,171.0 L 138.0,168.0 L 142.0,170.0 L 155.0,183.0 L 162.0,183.0 L 164.0,180.0 L 164.0,175.0 L 155.0,165.0 L 150.0,159.0 L 158.0,151.0 L 167.0,137.0 L 172.0,126.0 L 175.0,115.0 L 176.0,108.0 L 176.0,89.0 L 172.0,73.0 L 168.0,63.0 L 161.0,52.0 L 157.0,47.0 L 168.0,56.0 L 174.0,60.0 L 177.0,55.0 L 179.0,49.0 L 179.0,38.0 L 176.0,28.0 L 171.0,20.0 L 164.0,13.0 L 156.0,9.0 L 150.0,7.0 L 134.0,7.0 L 120.0,14.0 L 120.0,17.0 L 130.0,25.0 L 133.0,28.0 L 121.0,23.0 L 109.0,20.0 L 104.0,20.0 L 104.0,7.0 L 88.0,7.0" fill="#FDFCFC"/>
	<path d="M 88.0,7.0 L 104.0,7.0 L 104.0,20.0 L 115.0,21.0 L 131.0,27.0 L 133.0,27.0 L 120.0,17.0 L 120.0,14.0 L 134.0,7.0 L 150.0,7.0 L 161.0,11.0 L 171.0,20.0 L 176.0,28.0 L 179.0,38.0 L 179.0,49.0 L 175.0,59.0 L 172.0,59.0 L 159.0,48.0 L 157.0,48.0 L 163.0,55.0 L 169.0,65.0 L 174.0,79.0 L 176.0,89.0 L 176.0,108.0 L 174.0,120.0 L 169.0,133.0 L 163.0,144.0 L 155.0,154.0 L 150.0,160.0 L 162.0,172.0 L 164.0,175.0 L 163.0,182.0 L 162.0,183.0 L 155.0,183.0 L 140.0,168.0 L 135.0,170.0 L 123.0,175.0 L 114.0,178.0 L 107.0,179.0 L 82.0,179.0 L 65.0,174.0 L 54.0,168.0 L 50.0,170.0 L 37.0,183.0 L 30.0,183.0 L 28.0,180.0 L 29.0,173.0 L 42.0,160.0 L 36.0,153.0 L 27.0,141.0 L 19.0,124.0 L 16.0,109.0 L 16.0,89.0 L 20.0,72.0 L 25.0,61.0 L 14.0,74.0 L 13.0,76.0 L 9.0,74.0 L 5.0,66.0 L 3.0,58.0 L 3.0,46.0 L 7.0,36.0 L 11.0,30.0 L 20.0,22.0 L 32.0,17.0 L 45.0,17.0 L 56.0,21.0 L 54.0,26.0 L 46.0,35.0 L 45.0,38.0 L 52.0,32.0 L 68.0,24.0 L 77.0,21.0 L 88.0,20.0 L 88.0,7.0 M 83.0,36.0 L 71.0,40.0 L 60.0,46.0 L 49.0,55.0 L 40.0,67.0 L 34.0,81.0 L 32.0,89.0 L 32.0,108.0 L 35.0,120.0 L 39.0,130.0 L 46.0,140.0 L 50.0,145.0 L 60.0,153.0 L 76.0,161.0 L 85.0,163.0 L 106.0,163.0 L 121.0,159.0 L 132.0,153.0 L 142.0,145.0 L 150.0,135.0 L 156.0,123.0 L 160.0,109.0 L 160.0,93.0 L 158.0,81.0 L 153.0,69.0 L 146.0,59.0 L 140.0,52.0 L 129.0,44.0 L 118.0,39.0 L 108.0,36.0 L 83.0,36.0" fill="#C52B2B"/>
	<path d="M 134.0,7.0 L 150.0,7.0 L 161.0,11.0 L 171.0,20.0 L 176.0,28.0 L 179.0,38.0 L 179.0,49.0 L 175.0,59.0 L 172.0,59.0 L 159.0,48.0 L 146.0,38.0 L 139.0,33.0 L 134.0,28.0 L 120.0,17.0 L 120.0,14.0 L 134.0,7.0" fill="#3A4A52"/>
	<path d="M 32.0,17.0 L 45.0,17.0 L 56.0,21.0 L 54.0,26.0 L 46.0,35.0 L 35.0,49.0 L 23.0,63.0 L 13.0,76.0 L 9.0,74.0 L 5.0,66.0 L 3.0,58.0 L 3.0,46.0 L 7.0,36.0 L 11.0,30.0 L 20.0,22.0 L 32.0,17.0" fill="#3A4951"/>
	<path d="M 92.0,92.0 L 100.0,92.0 L 104.0,96.0 L 106.0,102.0 L 125.0,121.0 L 123.0,125.0 L 120.0,128.0 L 116.0,127.0 L 98.0,109.0 L 96.0,108.0 L 93.0,117.0 L 80.0,144.0 L 78.0,148.0 L 72.0,146.0 L 71.0,143.0 L 83.0,117.0 L 83.0,115.0 L 61.0,137.0 L 59.0,137.0 L 60.0,133.0 L 88.0,105.0 L 88.0,96.0 L 92.0,92.0" fill="#0B0A0A"/>
	<path d="M 42.0,160.0 L 47.0,162.0 L 52.0,166.0 L 50.0,170.0 L 37.0,183.0 L 30.0,183.0 L 28.0,180.0 L 29.0,173.0 L 42.0,160.0" fill="#3D4C54"/>
	<path d="M 148.0,160.0 L 152.0,162.0 L 162.0,172.0 L 164.0,175.0 L 163.0,182.0 L 162.0,183.0 L 155.0,183.0 L 140.0,168.0 L 141.0,165.0 L 148.0,160.0" fill="#3D4C54"/>
	<path d="M 88.0,7.0 L 104.0,7.0 L 104.0,20.0 L 88.0,20.0 L 88.0,7.0" fill="#445158"/>
	<path d="M 88.0,105.0 L 88.0,108.0 L 86.0,113.0 L 78.0,120.0 L 61.0,137.0 L 59.0,137.0 L 60.0,133.0 L 88.0,105.0" fill="#E23B38"/>
	<path d="M 84.0,113.0 L 85.0,115.0 L 82.0,119.0 L 75.0,125.0 L 62.0,138.0 L 60.0,137.0 L 84.0,113.0" fill="#E6CDCD"/>
	<path d="M 93.0,96.0 L 99.0,96.0 L 100.0,97.0 L 100.0,102.0 L 99.0,103.0 L 93.0,103.0 L 92.0,102.0 L 92.0,97.0 L 93.0,96.0" fill="#B62525"/>
	<path d="M 25.0,60.0 L 26.0,62.0 L 23.0,68.0 L 19.0,70.0 L 17.0,71.0 L 19.0,67.0 L 25.0,60.0" fill="#E8DFE0"/>
</svg>
