<?xml version="1.0" ?>
<svg baseProfile="full" height="600px" version="1.1" viewBox="-9.648000000000001 -9.648000000000001 115.296 115.296" width="600px" xmlns="http://www.w3.org/2000/svg" xmlns:ev="http://www.w3.org/2001/xml-events" xmlns:xlink="http://www.w3.org/1999/xlink">
	<defs/>
	<path d="M 0.0,0.0 L 96.0,0.0 L 96.0,96.0 L 0.0,96.0 L 0.0,0.0" fill="#FBFBFB"/>
	<path d="M 44.0,20.0 L 53.0,20.0 L 64.0,23.0 L 72.0,29.0 L 80.0,38.0 L 83.0,45.0 L 84.0,52.0 L 84.0,60.0 L 82.0,69.0 L 77.0,78.0 L 69.0,86.0 L 59.0,91.0 L 52.0,92.0 L 44.0,92.0 L 34.0,90.0 L 25.0,84.0 L 18.0,77.0 L 14.0,69.0 L 12.0,61.0 L 12.0,52.0 L 14.0,42.0 L 20.0,33.0 L 27.0,26.0 L 37.0,21.0 L 44.0,20.0" fill="#020202"/>
	<path d="M 46.0,52.0 L 52.0,53.0 L 65.0,60.0 L 64.0,65.0 L 63.0,67.0 L 58.0,66.0 L 52.0,63.0 L 52.0,76.0 L 44.0,76.0 L 44.0,54.0 L 46.0,52.0" fill="#F9F9F9"/>
	<path d="M 18.0,14.0 L 22.0,16.0 L 25.0,18.0 L 23.0,22.0 L 10.0,36.0 L 6.0,35.0 L 3.0,31.0 L 13.0,20.0 L 18.0,14.0" fill="#0B0B0B"/>
	<path d="M 64.0,7.0 L 76.0,14.0 L 84.0,19.0 L 83.0,23.0 L 81.0,26.0 L 76.0,25.0 L 61.0,15.0 L 60.0,13.0 L 64.0,7.0" fill="#0A0A0A"/>
</svg>
