<?xml version="1.0" ?>
<svg baseProfile="full" height="600px" version="1.1" viewBox="-9.648000000000001 -9.648000000000001 115.296 115.296" width="600px" xmlns="http://www.w3.org/2000/svg" xmlns:ev="http://www.w3.org/2001/xml-events" xmlns:xlink="http://www.w3.org/1999/xlink">
	<defs/>
	<path d="M 0.0,0.0 L 96.0,0.0 L 96.0,96.0 L 0.0,96.0 L 0.0,0.0" fill="#FBFBFB"/>
	<path d="M 44.0,12.0 L 53.0,12.0 L 64.0,15.0 L 72.0,21.0 L 80.0,30.0 L 83.0,37.0 L 84.0,44.0 L 84.0,52.0 L 82.0,61.0 L 77.0,70.0 L 69.0,78.0 L 59.0,83.0 L 52.0,84.0 L 44.0,84.0 L 34.0,82.0 L 25.0,76.0 L 18.0,69.0 L 14.0,61.0 L 12.0,53.0 L 12.0,44.0 L 14.0,34.0 L 20.0,25.0 L 27.0,18.0 L 37.0,13.0 L 44.0,12.0" fill="#030303"/>
	<path d="M 45.0,45.0 L 52.0,45.0 L 65.0,52.0 L 64.0,57.0 L 63.0,59.0 L 58.0,58.0 L 50.0,54.0 L 46.0,56.0 L 38.0,64.0 L 34.0,62.0 L 32.0,58.0 L 45.0,45.0" fill="#F8F8F8"/>
	<path d="M 76.0,6.0 L 80.0,8.0 L 89.0,18.0 L 93.0,24.0 L 89.0,28.0 L 85.0,27.0 L 71.0,12.0 L 71.0,10.0 L 76.0,6.0" fill="#0A0A0A"/>
	<path d="M 30.0,0.0 L 33.0,0.0 L 36.0,6.0 L 26.0,13.0 L 18.0,18.0 L 14.0,17.0 L 12.0,14.0 L 12.0,11.0 L 30.0,0.0" fill="#090909"/>
</svg>
