<?xml version="1.0" ?>
<svg baseProfile="full" height="600px" version="1.1" viewBox="-20.1 -20.1 240.2 240.2" width="600px" xmlns="http://www.w3.org/2000/svg" xmlns:ev="http://www.w3.org/2001/xml-events" xmlns:xlink="http://www.w3.org/1999/xlink">
	<defs/>
	<path d="M 0.0,0.0 L 200.0,0.0 L 200.0,200.0 L 0.0,200.0 L 0.0,0.0" fill="#FDFDFD"/>
	<path d="M 88.0,8.0 L 100.0,8.0 L 100.0,16.0 L 83.0,18.0 L 65.0,24.0 L 53.0,31.0 L 43.0,39.0 L 36.0,46.0 L 29.0,56.0 L 22.0,70.0 L 18.0,83.0 L 17.0,89.0 L 17.0,110.0 L 20.0,123.0 L 26.0,139.0 L 33.0,150.0 L 44.0,162.0 L 54.0,170.0 L 70.0,178.0 L 83.0,182.0 L 83.0,188.0 L 82.0,190.0 L 71.0,188.0 L 55.0,181.0 L 42.0,172.0 L 32.0,163.0 L 22.0,150.0 L 14.0,134.0 L 9.0,117.0 L 8.0,109.0 L 8.0,88.0 L 12.0,71.0 L 19.0,55.0 L 28.0,42.0 L 37.0,32.0 L 50.0,22.0 L 66.0,14.0 L 78.0,10.0 L 88.0,8.0" fill="#080808"/>
</svg>
