<?xml version="1.0" ?>
<svg baseProfile="full" height="600px" version="1.1" viewBox="-16.08 -16.08 192.16 192.16" width="600px" xmlns="http://www.w3.org/2000/svg" xmlns:ev="http://www.w3.org/2001/xml-events" xmlns:xlink="http://www.w3.org/1999/xlink">
	<defs/>
	<path d="M 0.0,0.0 L 160.0,0.0 L 160.0,160.0 L 0.0,160.0 L 0.0,0.0" fill="#FDECA2"/>
	<path d="M 0.0,0.0 L 160.0,0.0 L 160.0,160.0 L 0.0,160.0 L 0.0,0.0 M 70.0,4.0 L 54.0,8.0 L 38.0,16.0 L 28.0,24.0 L 21.0,31.0 L 12.0,45.0 L 7.0,57.0 L 4.0,70.0 L 4.0,91.0 L 9.0,108.0 L 16.0,122.0 L 24.0,132.0 L 31.0,139.0 L 45.0,148.0 L 54.0,152.0 L 69.0,156.0 L 89.0,156.0 L 103.0,153.0 L 119.0,146.0 L 131.0,137.0 L 139.0,129.0 L 148.0,115.0 L 153.0,103.0 L 153.0,95.0 L 154.0,90.0 L 154.0,69.0 L 150.0,54.0 L 143.0,40.0 L 135.0,30.0 L 127.0,22.0 L 115.0,14.0 L 99.0,8.0 L 91.0,6.0 L 76.0,6.0 L 76.0,4.0 L 70.0,4.0" fill="#FEFDFC"/>
	<path d="M 70.0,4.0 L 76.0,4.0 L 76.0,8.0 L 58.0,12.0 L 46.0,17.0 L 37.0,23.0 L 27.0,32.0 L 18.0,44.0 L 13.0,55.0 L 9.0,71.0 L 9.0,90.0 L 14.0,107.0 L 20.0,119.0 L 28.0,129.0 L 38.0,138.0 L 50.0,145.0 L 65.0,150.0 L 70.0,151.0 L 89.0,151.0 L 108.0,146.0 L 119.0,140.0 L 129.0,132.0 L 138.0,122.0 L 145.0,110.0 L 149.0,100.0 L 153.0,101.0 L 150.0,111.0 L 144.0,122.0 L 136.0,132.0 L 129.0,139.0 L 115.0,148.0 L 103.0,153.0 L 89.0,156.0 L 69.0,156.0 L 54.0,152.0 L 38.0,144.0 L 28.0,136.0 L 21.0,129.0 L 12.0,115.0 L 6.0,99.0 L 4.0,91.0 L 4.0,70.0 L 8.0,54.0 L 16.0,38.0 L 24.0,28.0 L 31.0,21.0 L 45.0,12.0 L 57.0,7.0 L 70.0,4.0" fill="#BEA151"/>
</svg>
