<?xml version="1.0" ?>
<svg baseProfile="full" height="600px" version="1.1" viewBox="-12.864 -12.864 153.728 153.728" width="600px" xmlns="http://www.w3.org/2000/svg" xmlns:ev="http://www.w3.org/2001/xml-events" xmlns:xlink="http://www.w3.org/1999/xlink">
	<defs/>
	<path d="M 0.0,0.0 L 128.0,0.0 L 128.0,128.0 L 0.0,128.0 L 0.0,0.0" fill="#FDFDFD"/>
	<path d="M 56.0,12.0 L 64.0,12.0 L 64.0,20.0 L 49.0,23.0 L 38.0,29.0 L 31.0,35.0 L 28.0,39.0 L 23.0,37.0 L 21.0,36.0 L 23.0,31.0 L 31.0,23.0 L 41.0,17.0 L 51.0,13.0 L 56.0,12.0" fill="#080808"/>
	<path d="M 60.0,37.0 L 69.0,37.0 L 69.0,73.0 L 59.0,73.0 L 59.0,57.0 L 60.0,37.0" fill="#111111"/>
	<path d="M 59.0,82.0 L 68.0,82.0 L 68.0,91.0 L 59.0,91.0 L 59.0,82.0" fill="#090909"/>
</svg>
