<?xml version="1.0" ?>
<svg baseProfile="full" height="600px" version="1.1" viewBox="-20.1 -20.1 240.2 240.2" width="600px" xmlns="http://www.w3.org/2000/svg" xmlns:ev="http://www.w3.org/2001/xml-events" xmlns:xlink="http://www.w3.org/1999/xlink">
	<defs/>
	<path d="M 0.0,0.0 L 200.0,0.0 L 200.0,200.0 L 0.0,200.0 L 0.0,0.0" fill="#FDFDFD"/>
	<path d="M 32.0,6.0 L 46.0,6.0 L 56.0,31.0 L 72.0,73.0 L 72.0,74.0 L 59.0,74.0 L 53.0,58.0 L 53.0,56.0 L 25.0,56.0 L 22.0,66.0 L 19.0,74.0 L 7.0,74.0 L 8.0,68.0 L 27.0,19.0 L 32.0,6.0" fill="#050505"/>
	<path d="M 14.0,121.0 L 67.0,121.0 L 67.0,131.0 L 58.0,141.0 L 50.0,151.0 L 37.0,167.0 L 27.0,180.0 L 67.0,180.0 L 67.0,190.0 L 11.0,190.0 L 11.0,180.0 L 22.0,166.0 L 35.0,151.0 L 43.0,141.0 L 50.0,132.0 L 14.0,132.0 L 14.0,121.0" fill="#070707"/>
	<path d="M 158.0,32.0 L 163.0,33.0 L 164.0,34.0 L 165.0,153.0 L 194.0,124.0 L 199.0,125.0 L 199.0,131.0 L 161.0,169.0 L 157.0,167.0 L 121.0,131.0 L 121.0,125.0 L 126.0,124.0 L 155.0,153.0 L 156.0,34.0 L 158.0,32.0" fill="#020202"/>
	<path d="M 38.0,18.0 L 40.0,18.0 L 49.0,44.0 L 49.0,47.0 L 29.0,47.0 L 31.0,38.0 L 38.0,18.0" fill="#F1F1F1"/>
</svg>
