<?xml version="1.0" ?>
<svg baseProfile="full" height="600px" version="1.1" viewBox="-12.06 -12.06 144.12 144.12" width="600px" xmlns="http://www.w3.org/2000/svg" xmlns:ev="http://www.w3.org/2001/xml-events" xmlns:xlink="http://www.w3.org/1999/xlink">
	<defs/>
	<path d="M 0.0,0.0 L 120.0,0.0 L 120.0,120.0 L 0.0,120.0 L 0.0,0.0" fill="#FDFDFD"/>
	<path d="M 86.0,16.0 L 91.0,17.0 L 92.0,18.0 L 93.0,89.0 L 102.0,80.0 L 107.0,81.0 L 108.0,86.0 L 90.0,104.0 L 85.0,103.0 L 68.0,86.0 L 69.0,81.0 L 74.0,80.0 L 83.0,89.0 L 84.0,18.0 L 86.0,16.0" fill="#020202"/>
	<path d="M 16.0,52.0 L 21.0,53.0 L 25.0,65.0 L 25.0,67.0 L 21.0,67.0 L 20.0,65.0 L 15.0,64.0 L 15.0,67.0 L 11.0,67.0 L 13.0,58.0 L 16.0,52.0" fill="#272727"/>
	<path d="M 46.0,52.0 L 57.0,52.0 L 56.0,56.0 L 51.0,63.0 L 57.0,63.0 L 57.0,66.0 L 46.0,66.0 L 47.0,61.0 L 51.0,56.0 L 46.0,55.0 L 46.0,52.0" fill="#0B0B0B"/>
	<path d="M 46.0,52.0 L 57.0,52.0 L 56.0,56.0 L 50.0,59.0 L 51.0,56.0 L 46.0,55.0 L 46.0,52.0" fill="#171717"/>
</svg>
