<?xml version="1.0" ?>
<svg baseProfile="full" height="600px" version="1.1" viewBox="-20.1 -20.1 240.2 240.2" width="600px" xmlns="http://www.w3.org/2000/svg" xmlns:ev="http://www.w3.org/2001/xml-events" xmlns:xlink="http://www.w3.org/1999/xlink">
	<defs/>
	<path d="M 0.0,0.0 L 200.0,0.0 L 200.0,200.0 L 0.0,200.0 L 0.0,0.0" fill="#FDFDFD"/>
	<path d="M 32.0,120.0 L 46.0,120.0 L 56.0,145.0 L 72.0,187.0 L 72.0,188.0 L 59.0,188.0 L 53.0,172.0 L 53.0,170.0 L 25.0,170.0 L 22.0,180.0 L 19.0,188.0 L 7.0,188.0 L 8.0,182.0 L 27.0,133.0 L 32.0,120.0" fill="#050505"/>
	<path d="M 14.0,6.0 L 67.0,6.0 L 67.0,16.0 L 58.0,26.0 L 50.0,36.0 L 37.0,52.0 L 28.0,64.0 L 67.0,64.0 L 67.0,75.0 L 11.0,75.0 L 11.0,65.0 L 22.0,51.0 L 35.0,36.0 L 43.0,26.0 L 50.0,17.0 L 14.0,17.0 L 14.0,6.0" fill="#0A0A0A"/>
	<path d="M 158.0,32.0 L 163.0,33.0 L 164.0,34.0 L 165.0,153.0 L 194.0,124.0 L 199.0,125.0 L 199.0,131.0 L 161.0,169.0 L 157.0,167.0 L 121.0,131.0 L 121.0,125.0 L 126.0,124.0 L 155.0,153.0 L 156.0,34.0 L 158.0,32.0" fill="#020202"/>
	<path d="M 38.0,132.0 L 40.0,132.0 L 49.0,158.0 L 49.0,161.0 L 29.0,161.0 L 31.0,152.0 L 38.0,132.0" fill="#F1F1F1"/>
</svg>
