<?xml version="1.0" ?>
<svg baseProfile="full" height="600px" version="1.1" viewBox="-12.06 -12.06 144.12 144.12" width="600px" xmlns="http://www.w3.org/2000/svg" xmlns:ev="http://www.w3.org/2001/xml-events" xmlns:xlink="http://www.w3.org/1999/xlink">
	<defs/>
	<path d="M 0.0,0.0 L 120.0,0.0 L 120.0,120.0 L 0.0,120.0 L 0.0,0.0" fill="#FCFCFC"/>
	<path d="M 86.0,16.0 L 91.0,17.0 L 92.0,18.0 L 93.0,89.0 L 102.0,80.0 L 107.0,81.0 L 108.0,86.0 L 90.0,104.0 L 85.0,103.0 L 68.0,86.0 L 69.0,81.0 L 74.0,80.0 L 83.0,89.0 L 84.0,18.0 L 86.0,16.0" fill="#020202"/>
	<path d="M 26.0,68.0 L 38.0,68.0 L 50.0,104.0 L 40.0,104.0 L 38.0,99.0 L 38.0,96.0 L 25.0,96.0 L 24.0,104.0 L 14.0,104.0 L 26.0,68.0" fill="#090909"/>
	<path d="M 18.0,16.0 L 46.0,16.0 L 46.0,22.0 L 30.0,43.0 L 29.0,45.0 L 46.0,45.0 L 46.0,52.0 L 18.0,52.0 L 18.0,45.0 L 32.0,27.0 L 34.0,24.0 L 18.0,23.0 L 18.0,16.0" fill="#040404"/>
	<path d="M 31.0,76.0 L 33.0,78.0 L 35.0,85.0 L 35.0,89.0 L 28.0,89.0 L 30.0,79.0 L 31.0,76.0" fill="#EAEAEA"/>
</svg>
