<?xml version="1.0" ?>
<svg baseProfile="full" height="600px" version="1.1" viewBox="-20.1 -20.1 240.2 240.2" width="600px" xmlns="http://www.w3.org/2000/svg" xmlns:ev="http://www.w3.org/2001/xml-events" xmlns:xlink="http://www.w3.org/1999/xlink">
	<defs/>
	<path d="M 0.0,0.0 L 200.0,0.0 L 200.0,200.0 L 0.0,200.0 L 0.0,0.0" fill="#040404"/>
	<path d="M 28.0,8.0 L 156.0,8.0 L 156.0,88.0 L 141.0,81.0 L 133.0,79.0 L 114.0,79.0 L 101.0,83.0 L 92.0,88.0 L 56.0,88.0 L 56.0,96.0 L 82.0,96.0 L 75.0,107.0 L 72.0,112.0 L 56.0,112.0 L 56.0,120.0 L 69.0,120.0 L 67.0,136.0 L 56.0,136.0 L 56.0,144.0 L 68.0,144.0 L 74.0,159.0 L 80.0,169.0 L 82.0,172.0 L 28.0,172.0 L 28.0,8.0" fill="#FDFDFD"/>
	<path d="M 115.0,86.0 L 128.0,86.0 L 138.0,88.0 L 147.0,92.0 L 153.0,96.0 L 160.0,102.0 L 167.0,113.0 L 171.0,124.0 L 171.0,143.0 L 167.0,155.0 L 161.0,164.0 L 156.0,170.0 L 146.0,177.0 L 136.0,181.0 L 131.0,182.0 L 115.0,182.0 L 103.0,178.0 L 92.0,171.0 L 83.0,161.0 L 78.0,150.0 L 76.0,144.0 L 76.0,123.0 L 81.0,111.0 L 87.0,102.0 L 96.0,94.0 L 108.0,88.0 L 115.0,86.0" fill="#FBFBFB"/>
	<path d="M 0.0,0.0 L 22.0,0.0 L 21.0,2.0 L 21.0,178.0 L 22.0,179.0 L 92.0,180.0 L 106.0,187.0 L 114.0,189.0 L 132.0,189.0 L 145.0,185.0 L 155.0,180.0 L 163.0,179.0 L 183.0,199.0 L 183.0,200.0 L 0.0,200.0 L 0.0,0.0" fill="#FDFDFD"/>
	<path d="M 162.0,0.0 L 200.0,0.0 L 200.0,200.0 L 188.0,200.0 L 190.0,195.0 L 166.0,171.0 L 174.0,157.0 L 178.0,144.0 L 178.0,124.0 L 174.0,111.0 L 167.0,99.0 L 164.0,96.0 L 163.0,2.0 L 162.0,0.0" fill="#FDFDFD"/>
	<path d="M 84.0,140.0 L 152.0,140.0 L 152.0,152.0 L 87.0,152.0 L 84.0,144.0 L 84.0,140.0" fill="#010101"/>
	<path d="M 93.0,108.0 L 152.0,108.0 L 152.0,120.0 L 86.0,120.0 L 88.0,114.0 L 93.0,108.0" fill="#010101"/>
	<path d="M 56.0,64.0 L 132.0,64.0 L 132.0,72.0 L 56.0,72.0 L 56.0,64.0" fill="#000000"/>
	<path d="M 56.0,40.0 L 132.0,40.0 L 132.0,48.0 L 56.0,48.0 L 56.0,40.0" fill="#000000"/>
</svg>
