<?xml version="1.0" ?>
<svg baseProfile="full" height="600px" version="1.1" viewBox="-20.1 -20.1 240.2 240.2" width="600px" xmlns="http://www.w3.org/2000/svg" xmlns:ev="http://www.w3.org/2001/xml-events" xmlns:xlink="http://www.w3.org/1999/xlink">
	<defs/>
	<path d="M 0.0,0.0 L 200.0,0.0 L 200.0,200.0 L 0.0,200.0 L 0.0,0.0" fill="#030303"/>
	<path d="M 28.0,8.0 L 156.0,8.0 L 156.0,81.0 L 146.0,78.0 L 141.0,77.0 L 122.0,77.0 L 110.0,81.0 L 99.0,87.0 L 98.0,88.0 L 56.0,88.0 L 56.0,96.0 L 89.0,96.0 L 81.0,110.0 L 80.0,112.0 L 56.0,112.0 L 56.0,120.0 L 77.0,120.0 L 76.0,136.0 L 56.0,136.0 L 56.0,144.0 L 77.0,144.0 L 85.0,162.0 L 92.0,171.0 L 92.0,172.0 L 28.0,172.0 L 28.0,8.0" fill="#FDFDFD"/>
	<path d="M 125.0,84.0 L 138.0,84.0 L 150.0,87.0 L 161.0,93.0 L 171.0,103.0 L 178.0,116.0 L 180.0,124.0 L 180.0,141.0 L 175.0,154.0 L 169.0,163.0 L 161.0,171.0 L 147.0,178.0 L 141.0,180.0 L 124.0,180.0 L 114.0,177.0 L 103.0,171.0 L 93.0,161.0 L 86.0,147.0 L 84.0,138.0 L 84.0,125.0 L 88.0,112.0 L 94.0,102.0 L 103.0,93.0 L 117.0,86.0 L 125.0,84.0" fill="#FBFBFB"/>
	<path d="M 0.0,0.0 L 22.0,0.0 L 21.0,2.0 L 21.0,178.0 L 22.0,179.0 L 104.0,180.0 L 115.0,185.0 L 126.0,187.0 L 138.0,187.0 L 148.0,185.0 L 160.0,180.0 L 167.0,175.0 L 171.0,176.0 L 194.0,199.0 L 194.0,200.0 L 0.0,200.0 L 0.0,0.0" fill="#FDFDFD"/>
	<path d="M 162.0,0.0 L 200.0,0.0 L 200.0,194.0 L 193.0,188.0 L 175.0,170.0 L 176.0,166.0 L 182.0,156.0 L 186.0,146.0 L 187.0,138.0 L 187.0,126.0 L 185.0,115.0 L 177.0,99.0 L 169.0,90.0 L 164.0,86.0 L 163.0,2.0 L 162.0,0.0" fill="#FCFCFC"/>
	<path d="M 93.0,140.0 L 152.0,140.0 L 152.0,152.0 L 97.0,152.0 L 93.0,142.0 L 93.0,140.0" fill="#000000"/>
	<path d="M 100.0,108.0 L 152.0,108.0 L 152.0,120.0 L 94.0,120.0 L 96.0,113.0 L 100.0,108.0" fill="#010101"/>
	<path d="M 56.0,64.0 L 132.0,64.0 L 132.0,72.0 L 56.0,72.0 L 56.0,64.0" fill="#000000"/>
	<path d="M 56.0,40.0 L 132.0,40.0 L 132.0,48.0 L 56.0,48.0 L 56.0,40.0" fill="#000000"/>
</svg>
