<?xml version="1.0" ?>
<svg baseProfile="full" height="600px" version="1.1" viewBox="-20.1 -20.1 240.2 240.2" width="600px" xmlns="http://www.w3.org/2000/svg" xmlns:ev="http://www.w3.org/2001/xml-events" xmlns:xlink="http://www.w3.org/1999/xlink">
	<defs/>
	<path d="M 0.0,0.0 L 200.0,0.0 L 200.0,200.0 L 0.0,200.0 L 0.0,0.0" fill="#FDFDFD"/>
	<path d="M 0.0,0.0 L 200.0,0.0 L 200.0,200.0 L 0.0,200.0 L 0.0,0.0 M 78.0,10.0 L 78.0,22.0 L 42.0,22.0 L 42.0,186.0 L 162.0,186.0 L 162.0,22.0 L 126.0,22.0 L 126.0,10.0 L 78.0,10.0" fill="#FDFDFD"/>
	<path d="M 78.0,10.0 L 126.0,10.0 L 126.0,22.0 L 162.0,22.0 L 162.0,186.0 L 42.0,186.0 L 42.0,22.0 L 78.0,22.0 L 78.0,10.0 M 86.0,18.0 L 86.0,30.0 L 50.0,30.0 L 50.0,178.0 L 154.0,178.0 L 154.0,30.0 L 118.0,30.0 L 118.0,18.0 L 86.0,18.0" fill="#000000"/>
	<path d="M 110.0,53.0 L 112.0,56.0 L 116.0,79.0 L 116.0,87.0 L 128.0,84.0 L 132.0,84.0 L 132.0,91.0 L 129.0,108.0 L 127.0,118.0 L 119.0,112.0 L 113.0,107.0 L 102.0,108.0 L 103.0,97.0 L 109.0,56.0 L 110.0,53.0" fill="#090909"/>
</svg>
