<?xml version="1.0" ?>
<svg baseProfile="full" height="600px" version="1.1" viewBox="-20.1 -20.1 240.2 240.2" width="600px" xmlns="http://www.w3.org/2000/svg" xmlns:ev="http://www.w3.org/2001/xml-events" xmlns:xlink="http://www.w3.org/1999/xlink">
	<defs/>
	<path d="M 0.0,0.0 L 200.0,0.0 L 200.0,200.0 L 0.0,200.0 L 0.0,0.0" fill="#FDFDFD"/>
	<path d="M 0.0,0.0 L 200.0,0.0 L 200.0,200.0 L 0.0,200.0 L 0.0,0.0 M 78.0,10.0 L 78.0,22.0 L 42.0,22.0 L 42.0,186.0 L 162.0,186.0 L 162.0,22.0 L 126.0,22.0 L 126.0,10.0 L 78.0,10.0" fill="#FDFDFD"/>
	<path d="M 78.0,10.0 L 126.0,10.0 L 126.0,22.0 L 162.0,22.0 L 162.0,186.0 L 42.0,186.0 L 42.0,22.0 L 78.0,22.0 L 78.0,10.0 M 86.0,18.0 L 86.0,30.0 L 50.0,30.0 L 50.0,178.0 L 154.0,178.0 L 154.0,30.0 L 118.0,30.0 L 118.0,18.0 L 86.0,18.0" fill="#000000"/>
	<path d="M 102.0,55.0 L 103.0,55.0 L 103.0,67.0 L 100.0,96.0 L 119.0,96.0 L 118.0,101.0 L 99.0,144.0 L 93.0,158.0 L 92.0,158.0 L 93.0,139.0 L 95.0,116.0 L 76.0,116.0 L 79.0,107.0 L 97.0,66.0 L 102.0,55.0" fill="#050505"/>
</svg>
