<?xml version="1.0" ?>
<svg baseProfile="full" height="600px" version="1.1" viewBox="-20.1 -20.1 240.2 240.2" width="600px" xmlns="http://www.w3.org/2000/svg" xmlns:ev="http://www.w3.org/2001/xml-events" xmlns:xlink="http://www.w3.org/1999/xlink">
	<defs/>
	<path d="M 0.0,0.0 L 200.0,0.0 L 200.0,200.0 L 0.0,200.0 L 0.0,0.0" fill="#FDFDFD"/>
	<path d="M 86.0,18.0 L 118.0,18.0 L 118.0,30.0 L 154.0,30.0 L 154.0,178.0 L 50.0,178.0 L 50.0,30.0 L 86.0,30.0 L 86.0,18.0" fill="#FDFDFD"/>
	<path d="M 78.0,10.0 L 126.0,10.0 L 126.0,22.0 L 162.0,22.0 L 162.0,186.0 L 42.0,186.0 L 42.0,22.0 L 78.0,22.0 L 78.0,10.0 M 86.0,18.0 L 86.0,30.0 L 50.0,30.0 L 50.0,178.0 L 154.0,178.0 L 154.0,30.0 L 118.0,30.0 L 118.0,18.0 L 86.0,18.0" fill="#000000"/>
</svg>
