<?xml version="1.0" ?>
<svg baseProfile="full" height="600px" version="1.1" viewBox="-20.1 -20.1 240.2 240.2" width="600px" xmlns="http://www.w3.org/2000/svg" xmlns:ev="http://www.w3.org/2001/xml-events" xmlns:xlink="http://www.w3.org/1999/xlink">
	<defs/>
	<path d="M 0.0,0.0 L 200.0,0.0 L 200.0,200.0 L 0.0,200.0 L 0.0,0.0" fill="#FCFCFC"/>
	<path d="M 0.0,0.0 L 89.0,0.0 L 89.0,1.0 L 72.0,5.0 L 59.0,10.0 L 39.0,13.0 L 26.0,16.0 L 16.0,22.0 L 13.0,26.0 L 14.0,31.0 L 19.0,36.0 L 24.0,39.0 L 22.0,44.0 L 14.0,60.0 L 10.0,74.0 L 9.0,80.0 L 9.0,103.0 L 13.0,120.0 L 18.0,133.0 L 25.0,145.0 L 34.0,156.0 L 44.0,165.0 L 57.0,173.0 L 73.0,180.0 L 81.0,182.0 L 90.0,183.0 L 110.0,183.0 L 127.0,180.0 L 145.0,172.0 L 157.0,164.0 L 169.0,153.0 L 179.0,139.0 L 185.0,126.0 L 190.0,109.0 L 191.0,102.0 L 191.0,81.0 L 188.0,66.0 L 181.0,49.0 L 176.0,41.0 L 177.0,38.0 L 185.0,33.0 L 187.0,30.0 L 186.0,24.0 L 180.0,19.0 L 167.0,14.0 L 140.0,10.0 L 124.0,4.0 L 109.0,1.0 L 109.0,0.0 L 200.0,0.0 L 200.0,200.0 L 0.0,200.0 L 0.0,0.0" fill="#FCFCFC"/>
	<path d="M 89.0,0.0 L 109.0,0.0 L 124.0,3.0 L 140.0,9.0 L 167.0,13.0 L 180.0,18.0 L 187.0,24.0 L 188.0,30.0 L 184.0,35.0 L 177.0,39.0 L 179.0,44.0 L 187.0,60.0 L 191.0,74.0 L 192.0,81.0 L 192.0,102.0 L 189.0,117.0 L 183.0,133.0 L 176.0,145.0 L 167.0,156.0 L 156.0,166.0 L 143.0,174.0 L 127.0,181.0 L 110.0,184.0 L 90.0,184.0 L 77.0,182.0 L 63.0,177.0 L 48.0,169.0 L 35.0,158.0 L 26.0,148.0 L 18.0,135.0 L 13.0,123.0 L 9.0,109.0 L 8.0,103.0 L 8.0,80.0 L 12.0,63.0 L 18.0,49.0 L 23.0,41.0 L 23.0,39.0 L 14.0,33.0 L 12.0,29.0 L 13.0,24.0 L 20.0,18.0 L 26.0,15.0 L 43.0,11.0 L 59.0,9.0 L 75.0,3.0 L 89.0,0.0 M 32.0,42.0 L 24.0,55.0 L 19.0,68.0 L 16.0,81.0 L 16.0,102.0 L 19.0,115.0 L 24.0,129.0 L 32.0,142.0 L 41.0,152.0 L 51.0,161.0 L 65.0,169.0 L 75.0,173.0 L 82.0,175.0 L 91.0,176.0 L 109.0,176.0 L 120.0,174.0 L 135.0,169.0 L 146.0,163.0 L 156.0,155.0 L 166.0,145.0 L 175.0,131.0 L 180.0,119.0 L 182.0,113.0 L 184.0,101.0 L 184.0,81.0 L 179.0,62.0 L 170.0,45.0 L 168.0,42.0 L 159.0,43.0 L 141.0,45.0 L 116.0,47.0 L 86.0,47.0 L 49.0,44.0 L 39.0,43.0 L 32.0,42.0" fill="#080808"/>
	<path d="M 94.0,8.0 L 106.0,8.0 L 120.0,10.0 L 136.0,16.0 L 147.0,22.0 L 158.0,31.0 L 161.0,35.0 L 141.0,38.0 L 121.0,40.0 L 77.0,40.0 L 43.0,36.0 L 39.0,34.0 L 50.0,24.0 L 64.0,16.0 L 73.0,12.0 L 86.0,9.0 L 94.0,8.0" fill="#F9F9F9"/>
	<path d="M 50.0,109.0 L 55.0,110.0 L 66.0,120.0 L 78.0,127.0 L 90.0,131.0 L 107.0,131.0 L 119.0,128.0 L 131.0,122.0 L 142.0,113.0 L 146.0,109.0 L 151.0,110.0 L 152.0,115.0 L 142.0,125.0 L 128.0,134.0 L 115.0,139.0 L 108.0,140.0 L 89.0,140.0 L 74.0,135.0 L 61.0,127.0 L 51.0,118.0 L 48.0,115.0 L 49.0,110.0 L 50.0,109.0" fill="#070707"/>
	<path d="M 128.0,60.0 L 135.0,60.0 L 141.0,64.0 L 144.0,68.0 L 144.0,76.0 L 140.0,82.0 L 136.0,84.0 L 127.0,84.0 L 122.0,80.0 L 120.0,77.0 L 120.0,68.0 L 126.0,61.0 L 128.0,60.0" fill="#070707"/>
	<path d="M 64.0,60.0 L 71.0,60.0 L 77.0,64.0 L 80.0,68.0 L 80.0,76.0 L 76.0,82.0 L 72.0,84.0 L 63.0,84.0 L 58.0,80.0 L 56.0,77.0 L 56.0,68.0 L 62.0,61.0 L 64.0,60.0" fill="#070707"/>
	<path d="M 37.0,21.0 L 41.0,22.0 L 31.0,32.0 L 25.0,31.0 L 21.0,29.0 L 22.0,26.0 L 32.0,22.0 L 37.0,21.0" fill="#EDEDED"/>
	<path d="M 159.0,21.0 L 168.0,22.0 L 178.0,26.0 L 179.0,29.0 L 173.0,32.0 L 168.0,31.0 L 159.0,22.0 L 159.0,21.0" fill="#EEEEEE"/>
</svg>
