<?xml version="1.0" ?>
<svg baseProfile="full" height="600px" version="1.1" viewBox="-12.06 -12.06 144.12 144.12" width="600px" xmlns="http://www.w3.org/2000/svg" xmlns:ev="http://www.w3.org/2001/xml-events" xmlns:xlink="http://www.w3.org/1999/xlink">
	<defs/>
	<path d="M 0.0,0.0 L 120.0,0.0 L 120.0,120.0 L 0.0,120.0 L 0.0,0.0" fill="#FBFBFB"/>
	<path d="M 42.0,2.0 L 73.0,2.0 L 90.0,4.0 L 100.0,9.0 L 104.0,14.0 L 103.0,19.0 L 96.0,25.0 L 91.0,27.0 L 66.0,30.0 L 54.0,30.0 L 33.0,28.0 L 22.0,24.0 L 16.0,17.0 L 17.0,12.0 L 24.0,6.0 L 34.0,3.0 L 42.0,2.0" fill="#0A0A0A"/>
	<path d="M 17.0,35.0 L 23.0,36.0 L 25.0,38.0 L 21.0,49.0 L 21.0,62.0 L 24.0,72.0 L 30.0,82.0 L 39.0,90.0 L 48.0,94.0 L 53.0,95.0 L 67.0,95.0 L 79.0,91.0 L 87.0,85.0 L 93.0,78.0 L 97.0,70.0 L 99.0,61.0 L 99.0,50.0 L 96.0,40.0 L 95.0,37.0 L 99.0,35.0 L 104.0,36.0 L 107.0,45.0 L 108.0,51.0 L 108.0,62.0 L 106.0,71.0 L 102.0,80.0 L 98.0,86.0 L 93.0,92.0 L 83.0,99.0 L 72.0,103.0 L 68.0,104.0 L 50.0,104.0 L 37.0,99.0 L 26.0,91.0 L 19.0,82.0 L 15.0,74.0 L 12.0,65.0 L 12.0,51.0 L 15.0,38.0 L 17.0,35.0" fill="#080808"/>
	<path d="M 43.0,10.0 L 76.0,10.0 L 88.0,12.0 L 95.0,15.0 L 94.0,17.0 L 84.0,20.0 L 76.0,21.0 L 44.0,21.0 L 31.0,19.0 L 25.0,16.0 L 29.0,13.0 L 43.0,10.0" fill="#F7F7F7"/>
	<path d="M 48.0,73.0 L 53.0,74.0 L 55.0,75.0 L 65.0,75.0 L 69.0,73.0 L 73.0,74.0 L 74.0,75.0 L 74.0,80.0 L 67.0,84.0 L 53.0,84.0 L 46.0,80.0 L 46.0,75.0 L 48.0,73.0" fill="#0A0A0A"/>
	<path d="M 76.0,48.0 L 82.0,49.0 L 84.0,52.0 L 84.0,57.0 L 81.0,60.0 L 75.0,60.0 L 72.0,57.0 L 73.0,50.0 L 76.0,48.0" fill="#0B0B0B"/>
	<path d="M 40.0,48.0 L 46.0,49.0 L 48.0,52.0 L 48.0,57.0 L 45.0,60.0 L 39.0,60.0 L 36.0,57.0 L 37.0,50.0 L 40.0,48.0" fill="#0B0B0B"/>
</svg>
