<?xml version="1.0" ?>
<svg baseProfile="full" height="600px" version="1.1" viewBox="-12.06 -12.06 144.12 144.12" width="600px" xmlns="http://www.w3.org/2000/svg" xmlns:ev="http://www.w3.org/2001/xml-events" xmlns:xlink="http://www.w3.org/1999/xlink">
	<defs/>
	<path d="M 0.0,0.0 L 120.0,0.0 L 120.0,120.0 L 0.0,120.0 L 0.0,0.0" fill="#FBFBFB"/>
	<path d="M 48.0,2.0 L 75.0,2.0 L 91.0,4.0 L 101.0,9.0 L 104.0,13.0 L 103.0,20.0 L 98.0,24.0 L 90.0,27.0 L 77.0,29.0 L 43.0,29.0 L 30.0,27.0 L 20.0,23.0 L 16.0,18.0 L 17.0,11.0 L 22.0,7.0 L 29.0,4.0 L 48.0,2.0" fill="#080808"/>
	<path d="M 17.0,35.0 L 23.0,36.0 L 25.0,38.0 L 21.0,49.0 L 21.0,64.0 L 26.0,77.0 L 33.0,86.0 L 44.0,93.0 L 53.0,96.0 L 66.0,96.0 L 78.0,92.0 L 88.0,85.0 L 94.0,77.0 L 98.0,67.0 L 99.0,63.0 L 99.0,49.0 L 95.0,37.0 L 99.0,35.0 L 104.0,36.0 L 108.0,48.0 L 108.0,62.0 L 105.0,75.0 L 99.0,86.0 L 90.0,95.0 L 80.0,101.0 L 72.0,104.0 L 65.0,105.0 L 52.0,105.0 L 40.0,101.0 L 30.0,95.0 L 21.0,86.0 L 14.0,72.0 L 12.0,63.0 L 12.0,48.0 L 16.0,36.0 L 17.0,35.0" fill="#080808"/>
	<path d="M 45.0,10.0 L 78.0,10.0 L 94.0,14.0 L 96.0,16.0 L 89.0,19.0 L 76.0,21.0 L 44.0,21.0 L 31.0,19.0 L 24.0,16.0 L 28.0,13.0 L 45.0,10.0" fill="#F8F8F8"/>
	<path d="M 47.0,74.0 L 54.0,75.0 L 56.0,76.0 L 63.0,76.0 L 68.0,74.0 L 73.0,74.0 L 75.0,76.0 L 74.0,81.0 L 65.0,85.0 L 56.0,85.0 L 46.0,81.0 L 45.0,76.0 L 47.0,74.0" fill="#0C0C0C"/>
	<path d="M 75.0,49.0 L 81.0,49.0 L 84.0,52.0 L 83.0,59.0 L 80.0,61.0 L 74.0,60.0 L 72.0,57.0 L 72.0,52.0 L 75.0,49.0" fill="#0B0B0B"/>
	<path d="M 39.0,49.0 L 45.0,49.0 L 48.0,52.0 L 47.0,59.0 L 44.0,61.0 L 38.0,60.0 L 36.0,57.0 L 36.0,52.0 L 39.0,49.0" fill="#0B0B0B"/>
</svg>
