<?xml version="1.0" ?>
<svg baseProfile="full" height="600px" version="1.1" viewBox="-16.08 -16.08 192.16 192.16" width="600px" xmlns="http://www.w3.org/2000/svg" xmlns:ev="http://www.w3.org/2001/xml-events" xmlns:xlink="http://www.w3.org/1999/xlink">
	<defs/>
	<path d="M 0.0,0.0 L 160.0,0.0 L 160.0,160.0 L 0.0,160.0 L 0.0,0.0" fill="#FDECA1"/>
	<path d="M 0.0,0.0 L 160.0,0.0 L 160.0,160.0 L 0.0,160.0 L 0.0,0.0 M 70.0,2.0 L 39.0,5.0 L 18.0,10.0 L 13.0,14.0 L 13.0,19.0 L 19.0,24.0 L 24.0,26.0 L 15.0,38.0 L 8.0,52.0 L 4.0,67.0 L 4.0,89.0 L 7.0,101.0 L 12.0,114.0 L 20.0,126.0 L 28.0,135.0 L 39.0,143.0 L 53.0,150.0 L 67.0,154.0 L 90.0,154.0 L 100.0,152.0 L 112.0,148.0 L 125.0,140.0 L 135.0,131.0 L 143.0,122.0 L 151.0,107.0 L 155.0,94.0 L 156.0,88.0 L 156.0,67.0 L 152.0,52.0 L 144.0,36.0 L 136.0,26.0 L 144.0,22.0 L 147.0,19.0 L 147.0,14.0 L 143.0,10.0 L 121.0,5.0 L 102.0,3.0 L 89.0,2.0 L 70.0,2.0" fill="#FDFDFC"/>
	<path d="M 70.0,2.0 L 89.0,2.0 L 115.0,4.0 L 140.0,9.0 L 145.0,12.0 L 147.0,14.0 L 147.0,19.0 L 143.0,23.0 L 136.0,26.0 L 144.0,36.0 L 152.0,52.0 L 156.0,67.0 L 156.0,88.0 L 152.0,104.0 L 144.0,120.0 L 137.0,129.0 L 128.0,138.0 L 116.0,146.0 L 100.0,152.0 L 90.0,154.0 L 67.0,154.0 L 50.0,149.0 L 36.0,141.0 L 25.0,132.0 L 17.0,122.0 L 11.0,112.0 L 6.0,99.0 L 4.0,89.0 L 4.0,67.0 L 8.0,52.0 L 15.0,38.0 L 24.0,26.0 L 16.0,22.0 L 13.0,19.0 L 13.0,14.0 L 18.0,10.0 L 39.0,5.0 L 70.0,2.0 M 30.0,26.0 L 21.0,36.0 L 15.0,46.0 L 10.0,59.0 L 8.0,69.0 L 8.0,88.0 L 11.0,100.0 L 16.0,112.0 L 22.0,122.0 L 32.0,133.0 L 45.0,142.0 L 59.0,148.0 L 68.0,150.0 L 89.0,150.0 L 99.0,148.0 L 112.0,143.0 L 124.0,136.0 L 132.0,129.0 L 142.0,116.0 L 148.0,103.0 L 151.0,94.0 L 152.0,87.0 L 152.0,68.0 L 147.0,51.0 L 141.0,39.0 L 133.0,29.0 L 130.0,26.0 L 106.0,29.0 L 95.0,30.0 L 62.0,30.0 L 30.0,26.0" fill="#C59B59"/>
	<path d="M 73.0,6.0 L 86.0,6.0 L 101.0,9.0 L 114.0,14.0 L 121.0,19.0 L 121.0,20.0 L 105.0,22.0 L 52.0,22.0 L 39.0,20.0 L 43.0,16.0 L 53.0,11.0 L 66.0,7.0 L 73.0,6.0" fill="#FCEA9F"/>
	<path d="M 40.0,103.0 L 44.0,105.0 L 49.0,109.0 L 61.0,115.0 L 70.0,117.0 L 89.0,117.0 L 101.0,114.0 L 111.0,109.0 L 118.0,103.0 L 122.0,105.0 L 117.0,111.0 L 107.0,117.0 L 99.0,120.0 L 90.0,122.0 L 68.0,122.0 L 53.0,117.0 L 42.0,110.0 L 38.0,105.0 L 40.0,103.0" fill="#C69C58"/>
	<path d="M 97.0,59.0 L 118.0,59.0 L 124.0,62.0 L 125.0,67.0 L 121.0,70.0 L 117.0,71.0 L 98.0,71.0 L 92.0,68.0 L 91.0,63.0 L 94.0,60.0 L 97.0,59.0" fill="#C29958"/>
	<path d="M 41.0,59.0 L 62.0,59.0 L 68.0,62.0 L 69.0,67.0 L 65.0,70.0 L 61.0,71.0 L 42.0,71.0 L 36.0,68.0 L 35.0,63.0 L 38.0,60.0 L 41.0,59.0" fill="#C39958"/>
	<path d="M 49.0,62.0 L 55.0,62.0 L 57.0,64.0 L 57.0,67.0 L 47.0,67.0 L 48.0,63.0 L 49.0,62.0" fill="#434A51"/>
	<path d="M 104.0,63.0 L 112.0,63.0 L 113.0,67.0 L 103.0,67.0 L 104.0,63.0" fill="#3B4551"/>
	<path d="M 35.0,14.0 L 39.0,15.0 L 34.0,18.0 L 26.0,17.0 L 29.0,15.0 L 35.0,14.0" fill="#F7F2EB"/>
	<path d="M 122.0,14.0 L 130.0,15.0 L 134.0,17.0 L 126.0,18.0 L 122.0,14.0" fill="#FAF7F2"/>
	<path d="M 42.0,63.0 L 48.0,63.0 L 47.0,67.0 L 40.0,66.0 L 40.0,64.0 L 42.0,63.0" fill="#F4EDE3"/>
	<path d="M 100.0,63.0 L 104.0,64.0 L 103.0,67.0 L 96.0,66.0 L 96.0,64.0 L 100.0,63.0" fill="#F5F0E8"/>
	<path d="M 56.0,63.0 L 62.0,63.0 L 64.0,65.0 L 60.0,67.0 L 57.0,67.0 L 56.0,63.0" fill="#F6F1EA"/>
	<path d="M 112.0,63.0 L 119.0,64.0 L 119.0,66.0 L 113.0,67.0 L 112.0,63.0" fill="#F8F5F1"/>
</svg>
