<?xml version="1.0" ?>
<svg baseProfile="full" height="600px" version="1.1" viewBox="-12.864 -12.864 153.728 153.728" width="600px" xmlns="http://www.w3.org/2000/svg" xmlns:ev="http://www.w3.org/2001/xml-events" xmlns:xlink="http://www.w3.org/1999/xlink">
	<defs/>
	<path d="M 0.0,0.0 L 128.0,0.0 L 128.0,128.0 L 0.0,128.0 L 0.0,0.0" fill="#FCFCFC"/>
	<path d="M 59.0,12.0 L 69.0,12.0 L 82.0,15.0 L 90.0,19.0 L 110.0,22.0 L 117.0,25.0 L 120.0,29.0 L 119.0,33.0 L 114.0,37.0 L 109.0,39.0 L 110.0,44.0 L 112.0,51.0 L 112.0,66.0 L 110.0,75.0 L 103.0,89.0 L 93.0,99.0 L 77.0,107.0 L 70.0,108.0 L 55.0,108.0 L 43.0,104.0 L 33.0,97.0 L 25.0,89.0 L 17.0,73.0 L 16.0,69.0 L 16.0,51.0 L 20.0,39.0 L 14.0,37.0 L 8.0,32.0 L 9.0,28.0 L 13.0,24.0 L 17.0,22.0 L 38.0,19.0 L 48.0,14.0 L 59.0,12.0" fill="#F9F9F9"/>
	<path d="M 59.0,12.0 L 69.0,12.0 L 82.0,15.0 L 90.0,19.0 L 110.0,22.0 L 117.0,25.0 L 120.0,29.0 L 119.0,33.0 L 114.0,37.0 L 109.0,39.0 L 110.0,44.0 L 112.0,51.0 L 112.0,66.0 L 110.0,75.0 L 103.0,89.0 L 93.0,99.0 L 77.0,107.0 L 70.0,108.0 L 55.0,108.0 L 43.0,104.0 L 33.0,97.0 L 25.0,89.0 L 17.0,73.0 L 16.0,69.0 L 16.0,51.0 L 20.0,39.0 L 14.0,37.0 L 8.0,32.0 L 9.0,28.0 L 13.0,24.0 L 17.0,22.0 L 38.0,19.0 L 48.0,14.0 L 59.0,12.0 M 29.0,41.0 L 25.0,49.0 L 24.0,54.0 L 24.0,65.0 L 27.0,76.0 L 33.0,86.0 L 42.0,94.0 L 53.0,99.0 L 60.0,100.0 L 69.0,100.0 L 82.0,96.0 L 91.0,90.0 L 98.0,82.0 L 103.0,70.0 L 104.0,65.0 L 104.0,52.0 L 100.0,42.0 L 99.0,41.0 L 29.0,41.0" fill="#080808"/>
	<path d="M 57.0,20.0 L 70.0,20.0 L 80.0,23.0 L 90.0,29.0 L 93.0,33.0 L 83.0,34.0 L 40.0,34.0 L 35.0,33.0 L 39.0,28.0 L 53.0,21.0 L 57.0,20.0" fill="#F7F7F7"/>
	<path d="M 42.0,72.0 L 44.0,72.0 L 50.0,79.0 L 58.0,83.0 L 68.0,83.0 L 76.0,80.0 L 83.0,74.0 L 84.0,72.0 L 89.0,74.0 L 91.0,75.0 L 90.0,79.0 L 85.0,85.0 L 76.0,90.0 L 70.0,92.0 L 57.0,92.0 L 48.0,88.0 L 40.0,82.0 L 36.0,76.0 L 42.0,72.0" fill="#090909"/>
	<path d="M 79.0,44.0 L 86.0,45.0 L 88.0,47.0 L 87.0,54.0 L 84.0,56.0 L 79.0,56.0 L 76.0,52.0 L 76.0,47.0 L 79.0,44.0" fill="#0B0B0B"/>
	<path d="M 43.0,44.0 L 50.0,45.0 L 52.0,47.0 L 51.0,54.0 L 48.0,56.0 L 43.0,56.0 L 40.0,52.0 L 40.0,47.0 L 43.0,44.0" fill="#0B0B0B"/>
</svg>
