<?xml version="1.0" ?>
<svg baseProfile="full" height="600px" version="1.1" viewBox="-12.06 -12.06 144.12 144.12" width="600px" xmlns="http://www.w3.org/2000/svg" xmlns:ev="http://www.w3.org/2001/xml-events" xmlns:xlink="http://www.w3.org/1999/xlink">
	<defs/>
	<path d="M 0.0,0.0 L 120.0,0.0 L 120.0,120.0 L 0.0,120.0 L 0.0,0.0" fill="#FBFBFB"/>
	<path d="M 46.0,4.0 L 75.0,4.0 L 91.0,6.0 L 101.0,10.0 L 105.0,15.0 L 106.0,19.0 L 100.0,26.0 L 92.0,29.0 L 81.0,31.0 L 70.0,32.0 L 51.0,32.0 L 32.0,30.0 L 22.0,27.0 L 15.0,21.0 L 14.0,16.0 L 18.0,11.0 L 23.0,8.0 L 35.0,5.0 L 46.0,4.0" fill="#080808"/>
	<path d="M 17.0,37.0 L 25.0,39.0 L 21.0,50.0 L 21.0,64.0 L 25.0,76.0 L 31.0,85.0 L 38.0,91.0 L 49.0,96.0 L 54.0,97.0 L 65.0,97.0 L 78.0,93.0 L 87.0,87.0 L 93.0,80.0 L 98.0,68.0 L 99.0,63.0 L 99.0,52.0 L 96.0,42.0 L 95.0,39.0 L 100.0,37.0 L 104.0,37.0 L 108.0,49.0 L 108.0,66.0 L 105.0,76.0 L 99.0,87.0 L 89.0,97.0 L 73.0,105.0 L 69.0,106.0 L 51.0,106.0 L 39.0,102.0 L 29.0,95.0 L 21.0,87.0 L 13.0,71.0 L 12.0,67.0 L 12.0,49.0 L 16.0,38.0 L 17.0,37.0" fill="#090909"/>
	<path d="M 46.0,12.0 L 74.0,12.0 L 91.0,15.0 L 96.0,17.0 L 96.0,19.0 L 86.0,22.0 L 73.0,24.0 L 47.0,24.0 L 29.0,21.0 L 23.0,19.0 L 23.0,17.0 L 36.0,13.0 L 46.0,12.0" fill="#F3F3F3"/>
	<path d="M 46.0,75.0 L 52.0,75.0 L 56.0,77.0 L 63.0,77.0 L 68.0,75.0 L 74.0,75.0 L 75.0,76.0 L 75.0,81.0 L 71.0,84.0 L 65.0,86.0 L 54.0,86.0 L 46.0,82.0 L 45.0,81.0 L 45.0,76.0 L 46.0,75.0" fill="#0B0B0B"/>
	<path d="M 75.0,50.0 L 82.0,51.0 L 84.0,53.0 L 83.0,60.0 L 80.0,62.0 L 75.0,62.0 L 72.0,58.0 L 72.0,53.0 L 75.0,50.0" fill="#0B0B0B"/>
	<path d="M 39.0,50.0 L 46.0,51.0 L 48.0,53.0 L 47.0,60.0 L 44.0,62.0 L 39.0,62.0 L 36.0,58.0 L 36.0,53.0 L 39.0,50.0" fill="#0B0B0B"/>
</svg>
