<?xml version="1.0" ?>
<svg baseProfile="full" height="600px" version="1.1" viewBox="-20.1 -20.1 240.2 240.2" width="600px" xmlns="http://www.w3.org/2000/svg" xmlns:ev="http://www.w3.org/2001/xml-events" xmlns:xlink="http://www.w3.org/1999/xlink">
	<defs/>
	<path d="M 0.0,0.0 L 200.0,0.0 L 200.0,200.0 L 0.0,200.0 L 0.0,0.0" fill="#FCFCFC"/>
	<path d="M 0.0,0.0 L 200.0,0.0 L 200.0,200.0 L 0.0,200.0 L 0.0,0.0 M 89.0,5.0 L 73.0,8.0 L 58.0,14.0 L 53.0,17.0 L 28.0,21.0 L 16.0,26.0 L 10.0,32.0 L 10.0,38.0 L 18.0,45.0 L 22.0,46.0 L 13.0,65.0 L 8.0,84.0 L 8.0,109.0 L 12.0,125.0 L 17.0,137.0 L 23.0,148.0 L 31.0,158.0 L 42.0,169.0 L 56.0,178.0 L 69.0,184.0 L 85.0,188.0 L 90.0,189.0 L 109.0,189.0 L 125.0,186.0 L 140.0,180.0 L 151.0,174.0 L 161.0,166.0 L 172.0,155.0 L 181.0,141.0 L 188.0,125.0 L 190.0,119.0 L 192.0,108.0 L 192.0,84.0 L 187.0,65.0 L 178.0,46.0 L 184.0,44.0 L 190.0,38.0 L 190.0,32.0 L 182.0,25.0 L 168.0,20.0 L 147.0,17.0 L 132.0,10.0 L 114.0,5.0 L 89.0,5.0" fill="#FCFCFC"/>
	<path d="M 89.0,5.0 L 114.0,5.0 L 135.0,11.0 L 147.0,17.0 L 168.0,20.0 L 184.0,26.0 L 190.0,32.0 L 190.0,38.0 L 182.0,45.0 L 178.0,46.0 L 187.0,65.0 L 192.0,84.0 L 192.0,108.0 L 189.0,121.0 L 184.0,135.0 L 177.0,148.0 L 169.0,158.0 L 158.0,169.0 L 144.0,178.0 L 133.0,183.0 L 121.0,187.0 L 109.0,189.0 L 90.0,189.0 L 72.0,185.0 L 60.0,180.0 L 49.0,174.0 L 39.0,166.0 L 28.0,155.0 L 19.0,141.0 L 13.0,128.0 L 10.0,119.0 L 8.0,109.0 L 8.0,84.0 L 13.0,65.0 L 22.0,46.0 L 16.0,44.0 L 10.0,38.0 L 10.0,32.0 L 18.0,25.0 L 28.0,21.0 L 53.0,17.0 L 67.0,10.0 L 82.0,6.0 L 89.0,5.0 M 30.0,49.0 L 22.0,64.0 L 17.0,80.0 L 16.0,87.0 L 16.0,104.0 L 19.0,120.0 L 24.0,133.0 L 30.0,144.0 L 41.0,157.0 L 53.0,167.0 L 69.0,175.0 L 85.0,180.0 L 113.0,180.0 L 129.0,176.0 L 145.0,168.0 L 158.0,158.0 L 168.0,147.0 L 176.0,133.0 L 181.0,120.0 L 184.0,107.0 L 184.0,87.0 L 181.0,72.0 L 174.0,56.0 L 169.0,49.0 L 138.0,53.0 L 113.0,54.0 L 84.0,54.0 L 51.0,52.0 L 36.0,50.0 L 30.0,49.0" fill="#080808"/>
	<path d="M 88.0,13.0 L 110.0,13.0 L 121.0,15.0 L 137.0,21.0 L 149.0,28.0 L 159.0,37.0 L 163.0,42.0 L 144.0,45.0 L 126.0,47.0 L 73.0,47.0 L 39.0,43.0 L 37.0,41.0 L 48.0,30.0 L 61.0,22.0 L 72.0,17.0 L 88.0,13.0" fill="#FAFAFA"/>
	<path d="M 49.0,112.0 L 54.0,113.0 L 63.0,122.0 L 77.0,131.0 L 90.0,135.0 L 95.0,136.0 L 106.0,136.0 L 120.0,132.0 L 133.0,125.0 L 145.0,114.0 L 147.0,112.0 L 152.0,113.0 L 153.0,118.0 L 146.0,126.0 L 134.0,135.0 L 122.0,141.0 L 112.0,144.0 L 105.0,145.0 L 92.0,145.0 L 75.0,140.0 L 60.0,131.0 L 48.0,120.0 L 47.0,114.0 L 49.0,112.0" fill="#0A0A0A"/>
	<path d="M 126.0,67.0 L 136.0,67.0 L 142.0,70.0 L 145.0,74.0 L 144.0,81.0 L 138.0,86.0 L 126.0,86.0 L 120.0,82.0 L 119.0,80.0 L 119.0,73.0 L 126.0,67.0" fill="#050505"/>
	<path d="M 62.0,67.0 L 72.0,67.0 L 78.0,70.0 L 81.0,74.0 L 80.0,81.0 L 76.0,85.0 L 74.0,86.0 L 62.0,86.0 L 57.0,83.0 L 55.0,80.0 L 55.0,73.0 L 62.0,67.0" fill="#050505"/>
	<path d="M 36.0,28.0 L 38.0,29.0 L 31.0,36.0 L 29.0,39.0 L 22.0,38.0 L 18.0,36.0 L 18.0,34.0 L 27.0,30.0 L 36.0,28.0" fill="#F1F1F1"/>
	<path d="M 162.0,28.0 L 178.0,32.0 L 182.0,34.0 L 182.0,36.0 L 176.0,39.0 L 171.0,39.0 L 162.0,29.0 L 162.0,28.0" fill="#F3F3F3"/>
</svg>
