<?xml version="1.0" ?>
<svg baseProfile="full" height="600px" version="1.1" viewBox="-20.1 -20.1 240.2 240.2" width="600px" xmlns="http://www.w3.org/2000/svg" xmlns:ev="http://www.w3.org/2001/xml-events" xmlns:xlink="http://www.w3.org/1999/xlink">
	<defs/>
	<path d="M 0.0,0.0 L 200.0,0.0 L 200.0,200.0 L 0.0,200.0 L 0.0,0.0" fill="#FCFCFC"/>
	<path d="M 0.0,0.0 L 200.0,0.0 L 200.0,200.0 L 0.0,200.0 L 0.0,0.0 M 88.0,14.0 L 68.0,19.0 L 66.0,20.0 L 37.0,23.0 L 22.0,26.0 L 12.0,30.0 L 6.0,35.0 L 5.0,42.0 L 9.0,47.0 L 19.0,52.0 L 24.0,53.0 L 15.0,69.0 L 10.0,84.0 L 8.0,94.0 L 8.0,115.0 L 11.0,131.0 L 17.0,147.0 L 26.0,162.0 L 38.0,175.0 L 50.0,184.0 L 65.0,192.0 L 81.0,197.0 L 87.0,198.0 L 112.0,198.0 L 131.0,193.0 L 143.0,188.0 L 157.0,179.0 L 169.0,168.0 L 178.0,156.0 L 186.0,140.0 L 191.0,123.0 L 192.0,116.0 L 192.0,95.0 L 189.0,80.0 L 183.0,65.0 L 177.0,55.0 L 177.0,53.0 L 188.0,49.0 L 194.0,44.0 L 195.0,37.0 L 191.0,32.0 L 183.0,28.0 L 169.0,24.0 L 134.0,20.0 L 116.0,15.0 L 109.0,14.0 L 88.0,14.0" fill="#FCFCFC"/>
	<path d="M 88.0,14.0 L 109.0,14.0 L 124.0,17.0 L 134.0,20.0 L 169.0,24.0 L 186.0,29.0 L 194.0,35.0 L 195.0,42.0 L 191.0,47.0 L 183.0,51.0 L 177.0,53.0 L 179.0,58.0 L 187.0,74.0 L 191.0,88.0 L 192.0,95.0 L 192.0,116.0 L 189.0,131.0 L 183.0,147.0 L 174.0,162.0 L 162.0,175.0 L 150.0,184.0 L 134.0,192.0 L 117.0,197.0 L 112.0,198.0 L 87.0,198.0 L 71.0,194.0 L 59.0,189.0 L 47.0,182.0 L 34.0,171.0 L 24.0,159.0 L 16.0,145.0 L 10.0,127.0 L 8.0,115.0 L 8.0,94.0 L 12.0,77.0 L 19.0,61.0 L 24.0,53.0 L 14.0,50.0 L 6.0,44.0 L 5.0,37.0 L 9.0,32.0 L 19.0,27.0 L 30.0,24.0 L 53.0,21.0 L 66.0,20.0 L 76.0,17.0 L 88.0,14.0 M 33.0,55.0 L 24.0,69.0 L 19.0,82.0 L 16.0,95.0 L 16.0,116.0 L 19.0,129.0 L 24.0,143.0 L 32.0,156.0 L 41.0,166.0 L 51.0,175.0 L 65.0,183.0 L 79.0,188.0 L 88.0,190.0 L 109.0,190.0 L 125.0,187.0 L 141.0,180.0 L 154.0,171.0 L 166.0,159.0 L 175.0,145.0 L 180.0,133.0 L 182.0,127.0 L 184.0,115.0 L 184.0,96.0 L 180.0,79.0 L 175.0,67.0 L 167.0,55.0 L 142.0,57.0 L 127.0,58.0 L 74.0,58.0 L 53.0,57.0 L 38.0,55.0 L 33.0,55.0" fill="#080808"/>
	<path d="M 91.0,22.0 L 110.0,22.0 L 126.0,26.0 L 138.0,31.0 L 150.0,38.0 L 160.0,47.0 L 160.0,48.0 L 145.0,50.0 L 128.0,51.0 L 73.0,51.0 L 49.0,49.0 L 40.0,48.0 L 46.0,41.0 L 60.0,32.0 L 70.0,27.0 L 84.0,23.0 L 91.0,22.0" fill="#FAFAFA"/>
	<path d="M 46.0,119.0 L 51.0,119.0 L 60.0,129.0 L 73.0,138.0 L 84.0,143.0 L 92.0,145.0 L 107.0,145.0 L 121.0,141.0 L 132.0,135.0 L 143.0,126.0 L 149.0,119.0 L 154.0,119.0 L 156.0,121.0 L 155.0,125.0 L 148.0,133.0 L 138.0,142.0 L 123.0,150.0 L 110.0,154.0 L 91.0,154.0 L 79.0,151.0 L 65.0,144.0 L 55.0,136.0 L 46.0,127.0 L 44.0,124.0 L 45.0,120.0 L 46.0,119.0" fill="#080808"/>
	<path d="M 128.0,74.0 L 135.0,74.0 L 140.0,77.0 L 144.0,82.0 L 144.0,89.0 L 141.0,95.0 L 135.0,98.0 L 128.0,98.0 L 123.0,95.0 L 120.0,89.0 L 120.0,82.0 L 126.0,75.0 L 128.0,74.0" fill="#060606"/>
	<path d="M 64.0,74.0 L 71.0,74.0 L 76.0,77.0 L 80.0,82.0 L 80.0,89.0 L 77.0,95.0 L 71.0,98.0 L 64.0,98.0 L 59.0,95.0 L 56.0,89.0 L 56.0,82.0 L 62.0,75.0 L 64.0,74.0" fill="#060606"/>
	<path d="M 40.0,31.0 L 46.0,31.0 L 41.0,36.0 L 35.0,41.0 L 32.0,45.0 L 21.0,44.0 L 13.0,40.0 L 16.0,37.0 L 26.0,34.0 L 40.0,31.0" fill="#F2F2F2"/>
	<path d="M 154.0,31.0 L 171.0,33.0 L 186.0,38.0 L 186.0,41.0 L 174.0,45.0 L 168.0,45.0 L 163.0,40.0 L 154.0,32.0 L 154.0,31.0" fill="#F5F5F5"/>
</svg>
