<?xml version="1.0" ?>
<svg baseProfile="full" height="600px" version="1.1" viewBox="-20.1 -20.1 240.2 240.2" width="600px" xmlns="http://www.w3.org/2000/svg" xmlns:ev="http://www.w3.org/2001/xml-events" xmlns:xlink="http://www.w3.org/1999/xlink">
	<defs/>
	<path d="M 0.0,0.0 L 200.0,0.0 L 200.0,200.0 L 0.0,200.0 L 0.0,0.0" fill="#FCFCFC"/>
	<path d="M 0.0,0.0 L 200.0,0.0 L 200.0,200.0 L 0.0,200.0 L 0.0,0.0 M 89.0,3.0 L 71.0,7.0 L 66.0,9.0 L 35.0,13.0 L 22.0,17.0 L 13.0,23.0 L 11.0,26.0 L 12.0,33.0 L 20.0,39.0 L 24.0,41.0 L 22.0,46.0 L 16.0,56.0 L 11.0,69.0 L 8.0,84.0 L 8.0,105.0 L 11.0,120.0 L 17.0,136.0 L 24.0,148.0 L 35.0,161.0 L 44.0,169.0 L 57.0,177.0 L 70.0,183.0 L 81.0,186.0 L 90.0,187.0 L 113.0,187.0 L 129.0,183.0 L 145.0,176.0 L 157.0,168.0 L 169.0,157.0 L 178.0,145.0 L 186.0,129.0 L 191.0,112.0 L 192.0,104.0 L 192.0,83.0 L 188.0,66.0 L 181.0,50.0 L 176.0,43.0 L 175.0,40.0 L 180.0,39.0 L 188.0,33.0 L 189.0,26.0 L 185.0,21.0 L 175.0,16.0 L 164.0,13.0 L 134.0,9.0 L 115.0,4.0 L 108.0,3.0 L 89.0,3.0" fill="#FCFCFC"/>
	<path d="M 89.0,3.0 L 108.0,3.0 L 128.0,7.0 L 134.0,9.0 L 164.0,13.0 L 180.0,18.0 L 188.0,24.0 L 189.0,31.0 L 185.0,36.0 L 178.0,40.0 L 175.0,40.0 L 180.0,49.0 L 187.0,63.0 L 191.0,77.0 L 192.0,83.0 L 192.0,104.0 L 189.0,120.0 L 183.0,136.0 L 176.0,148.0 L 165.0,161.0 L 156.0,169.0 L 143.0,177.0 L 129.0,183.0 L 113.0,187.0 L 90.0,187.0 L 77.0,185.0 L 63.0,180.0 L 50.0,173.0 L 37.0,163.0 L 26.0,151.0 L 18.0,138.0 L 13.0,126.0 L 9.0,112.0 L 8.0,105.0 L 8.0,84.0 L 11.0,69.0 L 18.0,52.0 L 24.0,43.0 L 24.0,41.0 L 14.0,35.0 L 11.0,31.0 L 12.0,24.0 L 20.0,18.0 L 27.0,15.0 L 40.0,12.0 L 66.0,9.0 L 76.0,6.0 L 89.0,3.0 M 34.0,43.0 L 27.0,53.0 L 21.0,65.0 L 17.0,80.0 L 16.0,85.0 L 16.0,104.0 L 18.0,116.0 L 24.0,132.0 L 32.0,145.0 L 41.0,155.0 L 51.0,164.0 L 65.0,172.0 L 79.0,177.0 L 89.0,179.0 L 110.0,179.0 L 127.0,175.0 L 143.0,168.0 L 155.0,159.0 L 166.0,148.0 L 175.0,134.0 L 180.0,122.0 L 182.0,116.0 L 184.0,105.0 L 184.0,84.0 L 179.0,65.0 L 172.0,51.0 L 166.0,43.0 L 152.0,45.0 L 126.0,47.0 L 69.0,47.0 L 40.0,44.0 L 34.0,43.0" fill="#080808"/>
	<path d="M 90.0,11.0 L 109.0,11.0 L 124.0,14.0 L 140.0,21.0 L 151.0,28.0 L 159.0,35.0 L 159.0,36.0 L 142.0,39.0 L 127.0,40.0 L 70.0,40.0 L 43.0,37.0 L 41.0,35.0 L 50.0,27.0 L 64.0,19.0 L 76.0,14.0 L 90.0,11.0" fill="#FAFAFA"/>
	<path d="M 49.0,111.0 L 54.0,112.0 L 61.0,119.0 L 71.0,126.0 L 83.0,132.0 L 91.0,134.0 L 108.0,134.0 L 121.0,130.0 L 131.0,125.0 L 142.0,116.0 L 147.0,111.0 L 152.0,112.0 L 153.0,117.0 L 142.0,128.0 L 130.0,136.0 L 117.0,141.0 L 107.0,143.0 L 90.0,143.0 L 77.0,139.0 L 65.0,133.0 L 55.0,125.0 L 47.0,117.0 L 48.0,112.0 L 49.0,111.0" fill="#070707"/>
	<path d="M 128.0,63.0 L 135.0,63.0 L 141.0,67.0 L 144.0,71.0 L 144.0,78.0 L 141.0,84.0 L 135.0,87.0 L 128.0,87.0 L 122.0,83.0 L 120.0,79.0 L 120.0,71.0 L 126.0,64.0 L 128.0,63.0" fill="#050505"/>
	<path d="M 64.0,63.0 L 71.0,63.0 L 77.0,67.0 L 80.0,71.0 L 80.0,78.0 L 77.0,84.0 L 71.0,87.0 L 64.0,87.0 L 58.0,83.0 L 56.0,79.0 L 56.0,71.0 L 62.0,64.0 L 64.0,63.0" fill="#050505"/>
	<path d="M 44.0,20.0 L 46.0,21.0 L 34.0,32.0 L 30.0,34.0 L 20.0,30.0 L 20.0,27.0 L 26.0,24.0 L 44.0,20.0" fill="#EDEDED"/>
	<path d="M 154.0,20.0 L 167.0,22.0 L 178.0,26.0 L 181.0,29.0 L 173.0,33.0 L 168.0,34.0 L 158.0,24.0 L 154.0,20.0" fill="#EDEDED"/>
</svg>
