<?xml version="1.0" ?>
<svg baseProfile="full" height="600px" version="1.1" viewBox="-20.1 -20.1 240.2 240.2" width="600px" xmlns="http://www.w3.org/2000/svg" xmlns:ev="http://www.w3.org/2001/xml-events" xmlns:xlink="http://www.w3.org/1999/xlink">
	<defs/>
	<path d="M 0.0,0.0 L 200.0,0.0 L 200.0,200.0 L 0.0,200.0 L 0.0,0.0" fill="#FBFBFB"/>
	<path d="M 0.0,0.0 L 200.0,0.0 L 200.0,200.0 L 0.0,200.0 L 0.0,0.0 M 86.0,10.0 L 67.0,15.0 L 56.0,20.0 L 38.0,22.0 L 21.0,26.0 L 13.0,30.0 L 8.0,35.0 L 7.0,36.0 L 7.0,41.0 L 11.0,46.0 L 22.0,52.0 L 14.0,67.0 L 10.0,81.0 L 8.0,93.0 L 8.0,111.0 L 10.0,124.0 L 16.0,140.0 L 23.0,153.0 L 31.0,163.0 L 42.0,174.0 L 56.0,183.0 L 69.0,189.0 L 85.0,193.0 L 91.0,194.0 L 110.0,194.0 L 125.0,191.0 L 140.0,185.0 L 151.0,179.0 L 161.0,171.0 L 172.0,160.0 L 181.0,146.0 L 187.0,133.0 L 190.0,124.0 L 192.0,112.0 L 192.0,91.0 L 188.0,73.0 L 183.0,61.0 L 178.0,52.0 L 189.0,46.0 L 193.0,41.0 L 193.0,36.0 L 185.0,29.0 L 172.0,24.0 L 154.0,21.0 L 143.0,20.0 L 132.0,15.0 L 118.0,11.0 L 111.0,10.0 L 86.0,10.0" fill="#FCFCFC"/>
	<path d="M 86.0,10.0 L 111.0,10.0 L 126.0,13.0 L 139.0,18.0 L 143.0,20.0 L 160.0,22.0 L 176.0,25.0 L 188.0,31.0 L 193.0,36.0 L 193.0,41.0 L 189.0,46.0 L 178.0,52.0 L 186.0,67.0 L 190.0,81.0 L 192.0,91.0 L 192.0,112.0 L 190.0,124.0 L 184.0,140.0 L 177.0,153.0 L 169.0,163.0 L 158.0,174.0 L 144.0,183.0 L 133.0,188.0 L 121.0,192.0 L 110.0,194.0 L 91.0,194.0 L 75.0,191.0 L 62.0,186.0 L 49.0,179.0 L 39.0,171.0 L 28.0,160.0 L 19.0,146.0 L 13.0,133.0 L 10.0,124.0 L 8.0,111.0 L 8.0,93.0 L 11.0,76.0 L 16.0,63.0 L 22.0,52.0 L 11.0,46.0 L 7.0,41.0 L 7.0,36.0 L 12.0,31.0 L 19.0,27.0 L 28.0,24.0 L 38.0,22.0 L 56.0,20.0 L 73.0,13.0 L 86.0,10.0 M 31.0,54.0 L 25.0,63.0 L 19.0,77.0 L 16.0,92.0 L 16.0,112.0 L 20.0,128.0 L 25.0,140.0 L 32.0,152.0 L 44.0,165.0 L 55.0,173.0 L 71.0,181.0 L 85.0,185.0 L 112.0,185.0 L 129.0,181.0 L 145.0,173.0 L 158.0,163.0 L 168.0,152.0 L 176.0,138.0 L 181.0,125.0 L 184.0,111.0 L 184.0,92.0 L 181.0,77.0 L 174.0,61.0 L 169.0,54.0 L 153.0,55.0 L 132.0,57.0 L 68.0,57.0 L 40.0,54.0 L 31.0,54.0" fill="#080808"/>
	<path d="M 91.0,18.0 L 110.0,18.0 L 122.0,20.0 L 137.0,26.0 L 149.0,33.0 L 159.0,42.0 L 162.0,46.0 L 151.0,48.0 L 135.0,50.0 L 67.0,50.0 L 39.0,47.0 L 39.0,44.0 L 48.0,35.0 L 61.0,27.0 L 72.0,22.0 L 82.0,19.0 L 91.0,18.0" fill="#FBFBFB"/>
	<path d="M 47.0,116.0 L 52.0,116.0 L 63.0,127.0 L 77.0,136.0 L 88.0,140.0 L 93.0,141.0 L 106.0,141.0 L 120.0,137.0 L 130.0,132.0 L 139.0,125.0 L 148.0,116.0 L 153.0,116.0 L 154.0,117.0 L 154.0,122.0 L 145.0,132.0 L 132.0,141.0 L 122.0,146.0 L 117.0,148.0 L 106.0,150.0 L 92.0,150.0 L 80.0,147.0 L 64.0,139.0 L 51.0,128.0 L 46.0,122.0 L 46.0,117.0 L 47.0,116.0" fill="#0A0A0A"/>
	<path d="M 122.0,77.0 L 141.0,77.0 L 147.0,80.0 L 146.0,84.0 L 137.0,87.0 L 124.0,87.0 L 117.0,84.0 L 118.0,79.0 L 122.0,77.0" fill="#0A0A0A"/>
	<path d="M 60.0,77.0 L 76.0,77.0 L 83.0,80.0 L 82.0,84.0 L 75.0,87.0 L 62.0,87.0 L 55.0,85.0 L 53.0,83.0 L 54.0,79.0 L 60.0,77.0" fill="#070707"/>
	<path d="M 37.0,31.0 L 40.0,32.0 L 31.0,41.0 L 29.0,44.0 L 20.0,42.0 L 15.0,39.0 L 18.0,36.0 L 31.0,32.0 L 37.0,31.0" fill="#F2F2F2"/>
	<path d="M 160.0,31.0 L 169.0,32.0 L 184.0,37.0 L 184.0,40.0 L 174.0,44.0 L 170.0,43.0 L 163.0,35.0 L 160.0,31.0" fill="#F4F4F4"/>
</svg>
