<?xml version="1.0" ?>
<svg baseProfile="full" height="600px" version="1.1" viewBox="-12.864 -12.864 153.728 153.728" width="600px" xmlns="http://www.w3.org/2000/svg" xmlns:ev="http://www.w3.org/2001/xml-events" xmlns:xlink="http://www.w3.org/1999/xlink">
	<defs/>
	<path d="M 0.0,0.0 L 128.0,0.0 L 128.0,128.0 L 0.0,128.0 L 0.0,0.0" fill="#FCFCFC"/>
	<path d="M 58.0,14.0 L 69.0,14.0 L 81.0,17.0 L 91.0,20.0 L 108.0,22.0 L 116.0,27.0 L 117.0,32.0 L 112.0,37.0 L 107.0,40.0 L 111.0,50.0 L 112.0,55.0 L 112.0,68.0 L 110.0,77.0 L 106.0,87.0 L 98.0,97.0 L 89.0,104.0 L 77.0,109.0 L 74.0,110.0 L 53.0,110.0 L 41.0,105.0 L 31.0,98.0 L 24.0,90.0 L 19.0,80.0 L 16.0,69.0 L 16.0,54.0 L 19.0,44.0 L 21.0,40.0 L 12.0,34.0 L 11.0,29.0 L 16.0,24.0 L 27.0,21.0 L 41.0,19.0 L 53.0,15.0 L 58.0,14.0" fill="#F9F9F9"/>
	<path d="M 58.0,14.0 L 69.0,14.0 L 81.0,17.0 L 91.0,20.0 L 108.0,22.0 L 116.0,27.0 L 117.0,32.0 L 112.0,37.0 L 107.0,40.0 L 111.0,50.0 L 112.0,55.0 L 112.0,68.0 L 110.0,77.0 L 106.0,87.0 L 98.0,97.0 L 89.0,104.0 L 77.0,109.0 L 74.0,110.0 L 53.0,110.0 L 41.0,105.0 L 31.0,98.0 L 24.0,90.0 L 19.0,80.0 L 16.0,69.0 L 16.0,54.0 L 19.0,44.0 L 21.0,40.0 L 12.0,34.0 L 11.0,29.0 L 16.0,24.0 L 27.0,21.0 L 41.0,19.0 L 53.0,15.0 L 58.0,14.0 M 30.0,41.0 L 25.0,51.0 L 24.0,55.0 L 24.0,68.0 L 26.0,76.0 L 31.0,86.0 L 40.0,95.0 L 51.0,101.0 L 55.0,102.0 L 73.0,102.0 L 85.0,97.0 L 95.0,88.0 L 100.0,81.0 L 103.0,74.0 L 104.0,69.0 L 104.0,55.0 L 100.0,44.0 L 98.0,41.0 L 30.0,41.0" fill="#090909"/>
	<path d="M 41.0,75.0 L 45.0,76.0 L 50.0,81.0 L 57.0,85.0 L 71.0,85.0 L 81.0,79.0 L 84.0,75.0 L 88.0,76.0 L 91.0,78.0 L 89.0,83.0 L 81.0,90.0 L 71.0,94.0 L 57.0,94.0 L 47.0,90.0 L 39.0,83.0 L 37.0,78.0 L 41.0,75.0" fill="#070707"/>
	<path d="M 56.0,23.0 L 72.0,23.0 L 83.0,27.0 L 89.0,31.0 L 90.0,33.0 L 87.0,34.0 L 44.0,34.0 L 38.0,33.0 L 43.0,28.0 L 51.0,24.0 L 56.0,23.0" fill="#FAFAFA"/>
	<path d="M 78.0,50.0 L 86.0,50.0 L 88.0,51.0 L 88.0,54.0 L 85.0,55.0 L 78.0,55.0 L 76.0,54.0 L 76.0,51.0 L 78.0,50.0" fill="#101010"/>
	<path d="M 42.0,50.0 L 50.0,50.0 L 52.0,51.0 L 52.0,54.0 L 49.0,55.0 L 42.0,55.0 L 40.0,54.0 L 40.0,51.0 L 42.0,50.0" fill="#101010"/>
</svg>
