<?xml version="1.0" ?>
<svg baseProfile="full" height="600px" version="1.1" viewBox="-12.06 -12.06 144.12 144.12" width="600px" xmlns="http://www.w3.org/2000/svg" xmlns:ev="http://www.w3.org/2001/xml-events" xmlns:xlink="http://www.w3.org/1999/xlink">
	<defs/>
	<path d="M 0.0,0.0 L 120.0,0.0 L 120.0,120.0 L 0.0,120.0 L 0.0,0.0" fill="#FBFBFB"/>
	<path d="M 44.0,4.0 L 69.0,4.0 L 90.0,6.0 L 100.0,10.0 L 105.0,16.0 L 104.0,21.0 L 99.0,26.0 L 93.0,29.0 L 81.0,31.0 L 57.0,32.0 L 38.0,31.0 L 24.0,28.0 L 17.0,23.0 L 15.0,20.0 L 16.0,14.0 L 22.0,9.0 L 30.0,6.0 L 44.0,4.0" fill="#090909"/>
	<path d="M 16.0,37.0 L 22.0,38.0 L 24.0,39.0 L 21.0,51.0 L 21.0,62.0 L 24.0,73.0 L 30.0,83.0 L 38.0,90.0 L 48.0,95.0 L 53.0,96.0 L 66.0,96.0 L 74.0,94.0 L 82.0,90.0 L 91.0,82.0 L 97.0,71.0 L 99.0,63.0 L 99.0,51.0 L 96.0,39.0 L 100.0,37.0 L 104.0,37.0 L 107.0,46.0 L 108.0,52.0 L 108.0,66.0 L 103.0,79.0 L 96.0,90.0 L 85.0,99.0 L 72.0,104.0 L 67.0,105.0 L 52.0,105.0 L 39.0,101.0 L 30.0,95.0 L 24.0,90.0 L 17.0,80.0 L 13.0,70.0 L 12.0,63.0 L 12.0,52.0 L 15.0,39.0 L 16.0,37.0" fill="#070707"/>
	<path d="M 47.0,12.0 L 72.0,12.0 L 88.0,14.0 L 95.0,17.0 L 95.0,19.0 L 86.0,22.0 L 73.0,24.0 L 47.0,24.0 L 33.0,22.0 L 24.0,18.0 L 26.0,16.0 L 38.0,13.0 L 47.0,12.0" fill="#F5F5F5"/>
	<path d="M 47.0,74.0 L 53.0,75.0 L 55.0,76.0 L 64.0,76.0 L 69.0,74.0 L 74.0,75.0 L 75.0,80.0 L 69.0,84.0 L 65.0,85.0 L 55.0,85.0 L 47.0,82.0 L 45.0,80.0 L 46.0,75.0 L 47.0,74.0" fill="#0A0A0A"/>
	<path d="M 75.0,50.0 L 81.0,50.0 L 84.0,53.0 L 83.0,59.0 L 81.0,60.0 L 75.0,60.0 L 72.0,57.0 L 73.0,52.0 L 75.0,50.0" fill="#0B0B0B"/>
	<path d="M 39.0,50.0 L 45.0,50.0 L 48.0,53.0 L 47.0,59.0 L 45.0,60.0 L 39.0,60.0 L 36.0,57.0 L 37.0,52.0 L 39.0,50.0" fill="#0B0B0B"/>
</svg>
