<?xml version="1.0" ?>
<svg baseProfile="full" height="600px" version="1.1" viewBox="-16.08 -16.08 192.16 192.16" width="600px" xmlns="http://www.w3.org/2000/svg" xmlns:ev="http://www.w3.org/2001/xml-events" xmlns:xlink="http://www.w3.org/1999/xlink">
	<defs/>
	<path d="M 0.0,0.0 L 160.0,0.0 L 160.0,160.0 L 0.0,160.0 L 0.0,0.0" fill="#FDECA1"/>
	<path d="M 0.0,0.0 L 160.0,0.0 L 160.0,160.0 L 0.0,160.0 L 0.0,0.0 M 53.0,1.0 L 32.0,4.0 L 16.0,8.0 L 12.0,12.0 L 12.0,17.0 L 18.0,22.0 L 27.0,25.0 L 18.0,35.0 L 10.0,49.0 L 6.0,60.0 L 4.0,70.0 L 4.0,91.0 L 8.0,106.0 L 16.0,122.0 L 23.0,131.0 L 32.0,140.0 L 45.0,148.0 L 56.0,153.0 L 70.0,156.0 L 90.0,156.0 L 106.0,152.0 L 122.0,144.0 L 132.0,136.0 L 139.0,129.0 L 148.0,115.0 L 154.0,100.0 L 156.0,90.0 L 156.0,69.0 L 152.0,53.0 L 143.0,36.0 L 133.0,25.0 L 132.0,23.0 L 139.0,23.0 L 145.0,20.0 L 149.0,15.0 L 146.0,10.0 L 141.0,7.0 L 129.0,4.0 L 117.0,2.0 L 104.0,1.0 L 53.0,1.0" fill="#FDFCFC"/>
	<path d="M 53.0,1.0 L 104.0,1.0 L 122.0,3.0 L 139.0,6.0 L 145.0,9.0 L 149.0,14.0 L 146.0,19.0 L 141.0,22.0 L 139.0,23.0 L 132.0,23.0 L 139.0,31.0 L 146.0,41.0 L 153.0,56.0 L 156.0,69.0 L 156.0,90.0 L 152.0,106.0 L 144.0,122.0 L 136.0,132.0 L 129.0,139.0 L 115.0,148.0 L 100.0,154.0 L 90.0,156.0 L 70.0,156.0 L 53.0,152.0 L 36.0,143.0 L 24.0,132.0 L 17.0,124.0 L 9.0,108.0 L 6.0,99.0 L 4.0,91.0 L 4.0,70.0 L 8.0,54.0 L 16.0,38.0 L 24.0,28.0 L 27.0,25.0 L 18.0,22.0 L 12.0,17.0 L 12.0,12.0 L 18.0,7.0 L 44.0,2.0 L 53.0,1.0 M 33.0,25.0 L 24.0,34.0 L 15.0,48.0 L 10.0,61.0 L 8.0,71.0 L 8.0,90.0 L 12.0,105.0 L 20.0,121.0 L 29.0,131.0 L 36.0,138.0 L 50.0,146.0 L 57.0,149.0 L 72.0,152.0 L 87.0,152.0 L 102.0,149.0 L 116.0,143.0 L 128.0,134.0 L 136.0,126.0 L 145.0,112.0 L 150.0,99.0 L 152.0,89.0 L 152.0,70.0 L 148.0,54.0 L 140.0,39.0 L 131.0,29.0 L 127.0,25.0 L 117.0,26.0 L 106.0,27.0 L 53.0,27.0 L 33.0,25.0" fill="#C49A59"/>
	<path d="M 71.0,8.0 L 88.0,8.0 L 102.0,11.0 L 114.0,16.0 L 116.0,17.0 L 116.0,19.0 L 105.0,20.0 L 52.0,20.0 L 45.0,18.0 L 48.0,15.0 L 61.0,10.0 L 71.0,8.0" fill="#FCEA9F"/>
	<path d="M 104.0,56.0 L 112.0,56.0 L 119.0,62.0 L 120.0,64.0 L 120.0,71.0 L 117.0,76.0 L 114.0,79.0 L 111.0,80.0 L 104.0,80.0 L 97.0,74.0 L 96.0,72.0 L 96.0,64.0 L 102.0,57.0 L 104.0,56.0" fill="#FAF9F7"/>
	<path d="M 48.0,56.0 L 56.0,56.0 L 63.0,62.0 L 64.0,64.0 L 64.0,71.0 L 61.0,76.0 L 58.0,79.0 L 55.0,80.0 L 48.0,80.0 L 41.0,74.0 L 40.0,72.0 L 40.0,64.0 L 46.0,57.0 L 48.0,56.0" fill="#FAF9F7"/>
	<path d="M 39.0,105.0 L 43.0,106.0 L 53.0,113.0 L 62.0,117.0 L 74.0,119.0 L 87.0,119.0 L 97.0,117.0 L 109.0,112.0 L 118.0,105.0 L 122.0,106.0 L 120.0,110.0 L 110.0,117.0 L 99.0,122.0 L 90.0,124.0 L 71.0,124.0 L 58.0,121.0 L 45.0,114.0 L 38.0,108.0 L 39.0,105.0" fill="#C69C59"/>
	<path d="M 104.0,52.0 L 113.0,52.0 L 119.0,56.0 L 123.0,61.0 L 124.0,63.0 L 124.0,72.0 L 121.0,78.0 L 115.0,83.0 L 113.0,84.0 L 103.0,84.0 L 97.0,80.0 L 93.0,75.0 L 92.0,73.0 L 92.0,63.0 L 96.0,57.0 L 101.0,53.0 L 104.0,52.0 M 104.0,56.0 L 97.0,62.0 L 96.0,64.0 L 96.0,72.0 L 102.0,79.0 L 104.0,80.0 L 111.0,80.0 L 116.0,77.0 L 119.0,74.0 L 120.0,71.0 L 120.0,64.0 L 114.0,57.0 L 112.0,56.0 L 104.0,56.0" fill="#C69C5A"/>
	<path d="M 48.0,52.0 L 57.0,52.0 L 63.0,56.0 L 67.0,61.0 L 68.0,63.0 L 68.0,72.0 L 65.0,78.0 L 59.0,83.0 L 57.0,84.0 L 47.0,84.0 L 41.0,80.0 L 37.0,75.0 L 36.0,73.0 L 36.0,63.0 L 40.0,57.0 L 45.0,53.0 L 48.0,52.0 M 48.0,56.0 L 41.0,62.0 L 40.0,64.0 L 40.0,72.0 L 46.0,79.0 L 48.0,80.0 L 55.0,80.0 L 60.0,77.0 L 63.0,74.0 L 64.0,71.0 L 64.0,64.0 L 58.0,57.0 L 56.0,56.0 L 48.0,56.0" fill="#C69C5A"/>
	<path d="M 106.0,63.0 L 112.0,64.0 L 113.0,70.0 L 110.0,73.0 L 104.0,72.0 L 103.0,66.0 L 106.0,63.0" fill="#3F4955"/>
	<path d="M 50.0,63.0 L 56.0,64.0 L 57.0,70.0 L 54.0,73.0 L 48.0,72.0 L 47.0,66.0 L 50.0,63.0" fill="#3F4955"/>
	<path d="M 111.0,10.0 L 121.0,11.0 L 133.0,13.0 L 135.0,15.0 L 128.0,17.0 L 122.0,17.0 L 111.0,11.0 L 111.0,10.0" fill="#F6F1E8"/>
	<path d="M 38.0,11.0 L 47.0,11.0 L 43.0,14.0 L 38.0,17.0 L 31.0,17.0 L 25.0,15.0 L 29.0,13.0 L 38.0,11.0" fill="#F8F3ED"/>
</svg>
