<?xml version="1.0" ?>
<svg baseProfile="full" height="600px" version="1.1" viewBox="-12.864 -12.864 153.728 153.728" width="600px" xmlns="http://www.w3.org/2000/svg" xmlns:ev="http://www.w3.org/2001/xml-events" xmlns:xlink="http://www.w3.org/1999/xlink">
	<defs/>
	<path d="M 0.0,0.0 L 128.0,0.0 L 128.0,128.0 L 0.0,128.0 L 0.0,0.0" fill="#FCFCFC"/>
	<path d="M 53.0,16.0 L 74.0,16.0 L 91.0,21.0 L 107.0,23.0 L 115.0,28.0 L 116.0,33.0 L 111.0,38.0 L 106.0,39.0 L 111.0,51.0 L 112.0,55.0 L 112.0,72.0 L 106.0,88.0 L 99.0,97.0 L 91.0,104.0 L 81.0,109.0 L 75.0,111.0 L 53.0,111.0 L 41.0,106.0 L 32.0,100.0 L 24.0,91.0 L 18.0,79.0 L 16.0,69.0 L 16.0,56.0 L 20.0,43.0 L 21.0,40.0 L 14.0,36.0 L 12.0,33.0 L 13.0,28.0 L 18.0,24.0 L 30.0,22.0 L 45.0,19.0 L 53.0,16.0" fill="#F8F8F8"/>
	<path d="M 53.0,16.0 L 74.0,16.0 L 91.0,21.0 L 107.0,23.0 L 115.0,28.0 L 116.0,33.0 L 111.0,38.0 L 106.0,39.0 L 111.0,51.0 L 112.0,55.0 L 112.0,72.0 L 106.0,88.0 L 99.0,97.0 L 91.0,104.0 L 81.0,109.0 L 75.0,111.0 L 53.0,111.0 L 41.0,106.0 L 32.0,100.0 L 24.0,91.0 L 18.0,79.0 L 16.0,69.0 L 16.0,56.0 L 20.0,43.0 L 21.0,40.0 L 14.0,36.0 L 12.0,33.0 L 13.0,28.0 L 18.0,24.0 L 30.0,22.0 L 45.0,19.0 L 53.0,16.0 M 30.0,42.0 L 25.0,52.0 L 24.0,56.0 L 24.0,70.0 L 27.0,80.0 L 33.0,89.0 L 41.0,97.0 L 54.0,103.0 L 72.0,103.0 L 83.0,99.0 L 89.0,95.0 L 97.0,87.0 L 103.0,75.0 L 104.0,69.0 L 104.0,56.0 L 99.0,43.0 L 98.0,42.0 L 30.0,42.0" fill="#080808"/>
	<path d="M 41.0,76.0 L 45.0,77.0 L 49.0,82.0 L 57.0,86.0 L 70.0,86.0 L 79.0,82.0 L 84.0,76.0 L 88.0,77.0 L 91.0,79.0 L 89.0,84.0 L 80.0,92.0 L 73.0,95.0 L 55.0,95.0 L 45.0,90.0 L 38.0,83.0 L 37.0,79.0 L 41.0,76.0" fill="#090909"/>
	<path d="M 56.0,24.0 L 73.0,24.0 L 85.0,29.0 L 90.0,34.0 L 86.0,35.0 L 45.0,35.0 L 38.0,34.0 L 43.0,29.0 L 51.0,25.0 L 56.0,24.0" fill="#F9F9F9"/>
	<path d="M 79.0,48.0 L 85.0,48.0 L 88.0,51.0 L 87.0,58.0 L 85.0,59.0 L 79.0,59.0 L 76.0,56.0 L 76.0,51.0 L 79.0,48.0" fill="#070707"/>
	<path d="M 43.0,48.0 L 49.0,48.0 L 52.0,51.0 L 51.0,58.0 L 49.0,59.0 L 43.0,59.0 L 40.0,56.0 L 40.0,51.0 L 43.0,48.0" fill="#070707"/>
</svg>
