<?xml version="1.0" ?>
<svg baseProfile="full" height="600px" version="1.1" viewBox="-20.1 -20.1 240.2 240.2" width="600px" xmlns="http://www.w3.org/2000/svg" xmlns:ev="http://www.w3.org/2001/xml-events" xmlns:xlink="http://www.w3.org/1999/xlink">
	<defs/>
	<path d="M 0.0,0.0 L 200.0,0.0 L 200.0,200.0 L 0.0,200.0 L 0.0,0.0" fill="#080808"/>
	<path d="M 0.0,0.0 L 200.0,0.0 L 200.0,200.0 L 159.0,200.0 L 164.0,196.0 L 167.0,188.0 L 169.0,172.0 L 170.0,102.0 L 178.0,97.0 L 184.0,87.0 L 188.0,71.0 L 188.0,50.0 L 186.0,30.0 L 180.0,30.0 L 166.0,44.0 L 159.0,43.0 L 146.0,43.0 L 139.0,44.0 L 127.0,29.0 L 122.0,29.0 L 119.0,38.0 L 117.0,52.0 L 112.0,50.0 L 103.0,44.0 L 90.0,40.0 L 80.0,40.0 L 69.0,43.0 L 53.0,51.0 L 41.0,59.0 L 36.0,58.0 L 32.0,52.0 L 32.0,45.0 L 35.0,39.0 L 43.0,32.0 L 49.0,30.0 L 78.0,29.0 L 89.0,25.0 L 93.0,21.0 L 92.0,15.0 L 89.0,13.0 L 67.0,11.0 L 45.0,11.0 L 33.0,15.0 L 24.0,21.0 L 17.0,29.0 L 13.0,37.0 L 12.0,40.0 L 12.0,56.0 L 16.0,67.0 L 22.0,74.0 L 33.0,80.0 L 32.0,89.0 L 32.0,152.0 L 33.0,189.0 L 36.0,196.0 L 41.0,200.0 L 0.0,200.0 L 0.0,0.0" fill="#FCFCFC"/>
	<path d="M 48.0,18.0 L 66.0,18.0 L 81.0,19.0 L 81.0,21.0 L 77.0,22.0 L 48.0,23.0 L 39.0,26.0 L 31.0,32.0 L 26.0,40.0 L 25.0,43.0 L 25.0,53.0 L 29.0,61.0 L 34.0,65.0 L 38.0,67.0 L 44.0,66.0 L 55.0,58.0 L 71.0,50.0 L 79.0,47.0 L 90.0,47.0 L 101.0,51.0 L 110.0,58.0 L 116.0,64.0 L 118.0,78.0 L 122.0,88.0 L 130.0,97.0 L 140.0,102.0 L 147.0,102.0 L 147.0,97.0 L 133.0,90.0 L 127.0,82.0 L 124.0,74.0 L 124.0,49.0 L 126.0,41.0 L 131.0,46.0 L 135.0,50.0 L 135.0,52.0 L 148.0,50.0 L 158.0,50.0 L 162.0,51.0 L 169.0,51.0 L 177.0,44.0 L 180.0,42.0 L 180.0,75.0 L 176.0,88.0 L 171.0,94.0 L 163.0,97.0 L 162.0,153.0 L 161.0,184.0 L 158.0,192.0 L 154.0,191.0 L 152.0,187.0 L 151.0,171.0 L 150.0,138.0 L 148.0,128.0 L 145.0,122.0 L 140.0,119.0 L 133.0,119.0 L 128.0,123.0 L 124.0,133.0 L 121.0,164.0 L 119.0,187.0 L 116.0,192.0 L 112.0,191.0 L 111.0,189.0 L 110.0,129.0 L 107.0,119.0 L 103.0,114.0 L 103.0,112.0 L 99.0,110.0 L 91.0,106.0 L 88.0,105.0 L 75.0,105.0 L 66.0,108.0 L 58.0,114.0 L 54.0,119.0 L 52.0,129.0 L 51.0,138.0 L 48.0,187.0 L 45.0,192.0 L 41.0,190.0 L 40.0,189.0 L 39.0,165.0 L 39.0,94.0 L 41.0,80.0 L 41.0,74.0 L 31.0,71.0 L 23.0,65.0 L 19.0,56.0 L 19.0,42.0 L 23.0,33.0 L 30.0,25.0 L 42.0,19.0 L 48.0,18.0" fill="#FAFAFA"/>
	<path d="M 75.0,112.0 L 87.0,112.0 L 95.0,116.0 L 101.0,123.0 L 103.0,136.0 L 104.0,190.0 L 108.0,196.0 L 112.0,200.0 L 47.0,200.0 L 52.0,196.0 L 55.0,190.0 L 59.0,129.0 L 61.0,122.0 L 66.0,117.0 L 72.0,113.0 L 75.0,112.0" fill="#FBFBFB"/>
	<path d="M 135.0,126.0 L 140.0,127.0 L 142.0,134.0 L 143.0,142.0 L 145.0,188.0 L 149.0,196.0 L 153.0,200.0 L 118.0,200.0 L 123.0,195.0 L 126.0,188.0 L 129.0,150.0 L 132.0,131.0 L 135.0,126.0" fill="#F6F6F6"/>
	<path d="M 164.0,64.0 L 173.0,64.0 L 174.0,68.0 L 171.0,73.0 L 170.0,74.0 L 164.0,74.0 L 159.0,70.0 L 161.0,66.0 L 164.0,64.0" fill="#0E0E0E"/>
	<path d="M 135.0,64.0 L 140.0,64.0 L 146.0,66.0 L 149.0,68.0 L 149.0,71.0 L 144.0,74.0 L 138.0,74.0 L 135.0,71.0 L 134.0,65.0 L 135.0,64.0" fill="#101010"/>
</svg>
