<?xml version="1.0" ?>
<svg baseProfile="full" height="600px" version="1.1" viewBox="-20.1 -20.1 240.2 240.2" width="600px" xmlns="http://www.w3.org/2000/svg" xmlns:ev="http://www.w3.org/2001/xml-events" xmlns:xlink="http://www.w3.org/1999/xlink">
	<defs/>
	<path d="M 0.0,0.0 L 200.0,0.0 L 200.0,200.0 L 0.0,200.0 L 0.0,0.0" fill="#080808"/>
	<path d="M 0.0,0.0 L 200.0,0.0 L 200.0,200.0 L 166.0,200.0 L 171.0,195.0 L 175.0,186.0 L 177.0,96.0 L 185.0,89.0 L 190.0,78.0 L 192.0,67.0 L 192.0,34.0 L 191.0,25.0 L 190.0,24.0 L 185.0,24.0 L 171.0,38.0 L 160.0,36.0 L 153.0,36.0 L 143.0,38.0 L 136.0,31.0 L 129.0,23.0 L 124.0,24.0 L 122.0,38.0 L 121.0,53.0 L 116.0,51.0 L 105.0,46.0 L 97.0,44.0 L 76.0,44.0 L 64.0,48.0 L 43.0,58.0 L 38.0,61.0 L 32.0,60.0 L 29.0,57.0 L 28.0,54.0 L 28.0,45.0 L 34.0,37.0 L 40.0,34.0 L 62.0,33.0 L 76.0,29.0 L 82.0,25.0 L 86.0,20.0 L 87.0,13.0 L 84.0,10.0 L 77.0,9.0 L 73.0,12.0 L 65.0,14.0 L 38.0,15.0 L 28.0,18.0 L 19.0,24.0 L 13.0,31.0 L 9.0,39.0 L 8.0,42.0 L 8.0,58.0 L 12.0,68.0 L 15.0,72.0 L 15.0,74.0 L 19.0,76.0 L 29.0,81.0 L 33.0,82.0 L 32.0,97.0 L 32.0,156.0 L 33.0,189.0 L 37.0,197.0 L 41.0,200.0 L 0.0,200.0 L 0.0,0.0" fill="#FCFCFC"/>
	<path d="M 75.0,19.0 L 77.0,20.0 L 69.0,24.0 L 58.0,26.0 L 40.0,27.0 L 30.0,31.0 L 23.0,39.0 L 21.0,44.0 L 21.0,55.0 L 25.0,63.0 L 30.0,67.0 L 32.0,68.0 L 40.0,68.0 L 63.0,56.0 L 74.0,52.0 L 79.0,51.0 L 96.0,51.0 L 108.0,55.0 L 116.0,60.0 L 121.0,64.0 L 123.0,75.0 L 128.0,85.0 L 137.0,93.0 L 144.0,96.0 L 151.0,96.0 L 152.0,92.0 L 147.0,89.0 L 140.0,86.0 L 133.0,80.0 L 129.0,71.0 L 129.0,36.0 L 133.0,38.0 L 139.0,45.0 L 146.0,45.0 L 149.0,44.0 L 164.0,44.0 L 173.0,45.0 L 178.0,42.0 L 183.0,36.0 L 185.0,36.0 L 185.0,68.0 L 182.0,80.0 L 178.0,87.0 L 170.0,91.0 L 168.0,186.0 L 164.0,192.0 L 160.0,191.0 L 158.0,188.0 L 156.0,132.0 L 153.0,123.0 L 149.0,119.0 L 141.0,118.0 L 135.0,122.0 L 132.0,129.0 L 130.0,151.0 L 129.0,176.0 L 128.0,187.0 L 125.0,192.0 L 120.0,191.0 L 118.0,187.0 L 117.0,123.0 L 112.0,115.0 L 104.0,109.0 L 97.0,106.0 L 91.0,105.0 L 79.0,105.0 L 68.0,108.0 L 58.0,114.0 L 53.0,121.0 L 51.0,150.0 L 50.0,177.0 L 49.0,189.0 L 46.0,192.0 L 42.0,191.0 L 40.0,189.0 L 39.0,155.0 L 39.0,98.0 L 40.0,89.0 L 40.0,76.0 L 26.0,72.0 L 18.0,65.0 L 15.0,57.0 L 15.0,45.0 L 18.0,36.0 L 25.0,28.0 L 34.0,23.0 L 39.0,22.0 L 66.0,21.0 L 75.0,19.0" fill="#F9F9F9"/>
	<path d="M 78.0,112.0 L 90.0,112.0 L 102.0,116.0 L 108.0,121.0 L 110.0,124.0 L 111.0,187.0 L 114.0,195.0 L 120.0,199.0 L 120.0,200.0 L 48.0,200.0 L 53.0,196.0 L 56.0,190.0 L 57.0,182.0 L 59.0,129.0 L 61.0,122.0 L 67.0,117.0 L 78.0,112.0" fill="#FCFCFC"/>
	<path d="M 142.0,125.0 L 147.0,126.0 L 149.0,133.0 L 150.0,152.0 L 151.0,189.0 L 154.0,195.0 L 159.0,200.0 L 127.0,200.0 L 132.0,196.0 L 135.0,190.0 L 136.0,179.0 L 138.0,135.0 L 141.0,126.0 L 142.0,125.0" fill="#F6F6F6"/>
	<path d="M 172.0,56.0 L 177.0,58.0 L 178.0,62.0 L 175.0,67.0 L 167.0,67.0 L 164.0,64.0 L 165.0,59.0 L 172.0,56.0" fill="#0F0F0F"/>
	<path d="M 140.0,57.0 L 147.0,57.0 L 151.0,60.0 L 150.0,66.0 L 148.0,67.0 L 141.0,67.0 L 138.0,63.0 L 138.0,58.0 L 140.0,57.0" fill="#090909"/>
	<path d="M 75.0,19.0 L 77.0,20.0 L 69.0,24.0 L 69.0,21.0 L 75.0,19.0" fill="#D9D9D9"/>
</svg>
