<?xml version="1.0" ?>
<svg baseProfile="full" height="600px" version="1.1" viewBox="-19.296000000000003 -19.296000000000003 230.592 230.592" width="600px" xmlns="http://www.w3.org/2000/svg" xmlns:ev="http://www.w3.org/2001/xml-events" xmlns:xlink="http://www.w3.org/1999/xlink">
	<defs/>
	<path d="M 0.0,0.0 L 192.0,0.0 L 192.0,192.0 L 0.0,192.0 L 0.0,0.0" fill="#FDFEFC"/>
	<path d="M 95.0,11.0 L 99.0,13.0 L 112.0,27.0 L 113.0,29.0 L 124.0,26.0 L 136.0,22.0 L 139.0,22.0 L 143.0,38.0 L 146.0,47.0 L 167.0,52.0 L 170.0,53.0 L 169.0,58.0 L 164.0,74.0 L 164.0,79.0 L 172.0,87.0 L 180.0,94.0 L 180.0,98.0 L 164.0,113.0 L 165.0,120.0 L 170.0,136.0 L 170.0,139.0 L 158.0,142.0 L 145.0,145.0 L 140.0,168.0 L 139.0,170.0 L 130.0,168.0 L 115.0,163.0 L 112.0,164.0 L 103.0,175.0 L 97.0,181.0 L 93.0,179.0 L 80.0,165.0 L 79.0,163.0 L 67.0,166.0 L 55.0,170.0 L 53.0,170.0 L 49.0,155.0 L 47.0,146.0 L 38.0,143.0 L 22.0,139.0 L 24.0,130.0 L 28.0,117.0 L 27.0,112.0 L 20.0,105.0 L 12.0,98.0 L 12.0,94.0 L 28.0,79.0 L 27.0,71.0 L 22.0,55.0 L 22.0,53.0 L 37.0,49.0 L 48.0,47.0 L 49.0,37.0 L 53.0,22.0 L 64.0,25.0 L 77.0,29.0 L 79.0,29.0 L 86.0,21.0 L 95.0,11.0" fill="#8CC44B"/>
	<path d="M 136.0,60.0 L 140.0,61.0 L 140.0,63.0 L 142.0,63.0 L 142.0,65.0 L 144.0,65.0 L 144.0,67.0 L 146.0,67.0 L 146.0,69.0 L 148.0,69.0 L 146.0,73.0 L 137.0,82.0 L 130.0,76.0 L 126.0,72.0 L 128.0,68.0 L 136.0,60.0" fill="#C9FC8D"/>
</svg>
