<?xml version="1.0" ?>
<svg baseProfile="full" height="600px" version="1.1" viewBox="-19.296000000000003 -19.296000000000003 230.592 230.592" width="600px" xmlns="http://www.w3.org/2000/svg" xmlns:ev="http://www.w3.org/2001/xml-events" xmlns:xlink="http://www.w3.org/1999/xlink">
	<defs/>
	<path d="M 0.0,0.0 L 192.0,0.0 L 192.0,192.0 L 0.0,192.0 L 0.0,0.0" fill="#FDFEFC"/>
	<path d="M 95.0,13.0 L 99.0,15.0 L 110.0,27.0 L 112.0,30.0 L 119.0,29.0 L 135.0,24.0 L 138.0,24.0 L 141.0,36.0 L 143.0,45.0 L 143.0,49.0 L 151.0,50.0 L 166.0,53.0 L 168.0,54.0 L 165.0,66.0 L 162.0,76.0 L 162.0,80.0 L 170.0,87.0 L 179.0,95.0 L 177.0,99.0 L 164.0,111.0 L 162.0,112.0 L 164.0,122.0 L 168.0,135.0 L 168.0,138.0 L 157.0,141.0 L 144.0,144.0 L 139.0,166.0 L 138.0,168.0 L 129.0,166.0 L 116.0,162.0 L 111.0,163.0 L 99.0,177.0 L 95.0,179.0 L 82.0,165.0 L 80.0,162.0 L 72.0,163.0 L 56.0,168.0 L 54.0,168.0 L 51.0,157.0 L 49.0,148.0 L 49.0,143.0 L 41.0,142.0 L 26.0,139.0 L 24.0,138.0 L 26.0,128.0 L 30.0,115.0 L 30.0,112.0 L 22.0,105.0 L 13.0,97.0 L 15.0,93.0 L 28.0,81.0 L 30.0,80.0 L 28.0,69.0 L 24.0,56.0 L 24.0,54.0 L 48.0,48.0 L 54.0,24.0 L 66.0,27.0 L 75.0,30.0 L 80.0,30.0 L 89.0,20.0 L 95.0,13.0" fill="#8CC44B"/>
	<path d="M 106.0,90.0 L 110.0,92.0 L 117.0,99.0 L 115.0,103.0 L 85.0,133.0 L 78.0,127.0 L 53.0,102.0 L 55.0,98.0 L 62.0,91.0 L 66.0,93.0 L 84.0,111.0 L 91.0,105.0 L 106.0,90.0" fill="#C9FD8D"/>
</svg>
