<?xml version="1.0" ?>
<svg baseProfile="full" height="600px" version="1.1" viewBox="-20.1 -20.1 240.2 240.2" width="600px" xmlns="http://www.w3.org/2000/svg" xmlns:ev="http://www.w3.org/2001/xml-events" xmlns:xlink="http://www.w3.org/1999/xlink">
	<defs/>
	<path d="M 0.0,0.0 L 200.0,0.0 L 200.0,200.0 L 0.0,200.0 L 0.0,0.0" fill="#FDFDFD"/>
	<path d="M 73.0,38.0 L 83.0,38.0 L 93.0,40.0 L 107.0,47.0 L 117.0,56.0 L 121.0,62.0 L 121.0,64.0 L 133.0,58.0 L 145.0,58.0 L 157.0,63.0 L 164.0,71.0 L 168.0,81.0 L 168.0,90.0 L 173.0,91.0 L 181.0,97.0 L 188.0,105.0 L 192.0,114.0 L 193.0,118.0 L 193.0,130.0 L 188.0,143.0 L 179.0,153.0 L 167.0,159.0 L 164.0,160.0 L 38.0,160.0 L 27.0,156.0 L 18.0,149.0 L 12.0,141.0 L 7.0,128.0 L 7.0,116.0 L 10.0,106.0 L 17.0,96.0 L 24.0,90.0 L 27.0,88.0 L 30.0,72.0 L 36.0,60.0 L 45.0,50.0 L 55.0,43.0 L 65.0,39.0 L 73.0,38.0" fill="#FCFCFC"/>
	<path d="M 73.0,38.0 L 83.0,38.0 L 93.0,40.0 L 107.0,47.0 L 117.0,56.0 L 121.0,62.0 L 121.0,64.0 L 133.0,58.0 L 145.0,58.0 L 157.0,63.0 L 164.0,71.0 L 168.0,81.0 L 168.0,90.0 L 173.0,91.0 L 181.0,97.0 L 188.0,105.0 L 192.0,114.0 L 193.0,118.0 L 193.0,130.0 L 188.0,143.0 L 179.0,153.0 L 167.0,159.0 L 164.0,160.0 L 38.0,160.0 L 27.0,156.0 L 18.0,149.0 L 12.0,141.0 L 7.0,128.0 L 7.0,116.0 L 10.0,106.0 L 17.0,96.0 L 24.0,90.0 L 27.0,88.0 L 30.0,72.0 L 36.0,60.0 L 45.0,50.0 L 55.0,43.0 L 65.0,39.0 L 73.0,38.0 M 71.0,46.0 L 59.0,50.0 L 48.0,58.0 L 41.0,67.0 L 37.0,77.0 L 35.0,92.0 L 25.0,100.0 L 19.0,107.0 L 16.0,113.0 L 16.0,131.0 L 21.0,140.0 L 28.0,147.0 L 36.0,151.0 L 39.0,152.0 L 161.0,152.0 L 170.0,149.0 L 178.0,143.0 L 183.0,134.0 L 184.0,131.0 L 184.0,115.0 L 178.0,105.0 L 169.0,98.0 L 161.0,95.0 L 160.0,81.0 L 155.0,73.0 L 149.0,68.0 L 144.0,66.0 L 134.0,66.0 L 126.0,71.0 L 123.0,74.0 L 118.0,74.0 L 113.0,64.0 L 108.0,58.0 L 98.0,51.0 L 88.0,47.0 L 84.0,46.0 L 71.0,46.0" fill="#070707"/>
	<path d="M 97.0,81.0 L 107.0,81.0 L 107.0,122.0 L 97.0,122.0 L 97.0,81.0" fill="#000000"/>
	<path d="M 97.0,129.0 L 107.0,129.0 L 107.0,139.0 L 97.0,139.0 L 97.0,129.0" fill="#010101"/>
</svg>
