<?xml version="1.0" ?>
<svg baseProfile="full" height="600px" version="1.1" viewBox="-20.1 -20.1 240.2 240.2" width="600px" xmlns="http://www.w3.org/2000/svg" xmlns:ev="http://www.w3.org/2001/xml-events" xmlns:xlink="http://www.w3.org/1999/xlink">
	<defs/>
	<path d="M 0.0,0.0 L 200.0,0.0 L 200.0,200.0 L 0.0,200.0 L 0.0,0.0" fill="#FDFDFD"/>
	<path d="M 117.0,44.0 L 131.0,44.0 L 140.0,46.0 L 150.0,51.0 L 157.0,57.0 L 164.0,67.0 L 168.0,78.0 L 168.0,89.0 L 177.0,91.0 L 187.0,98.0 L 194.0,108.0 L 197.0,116.0 L 197.0,129.0 L 193.0,142.0 L 186.0,151.0 L 177.0,157.0 L 166.0,160.0 L 34.0,160.0 L 23.0,156.0 L 14.0,149.0 L 8.0,142.0 L 4.0,132.0 L 3.0,128.0 L 3.0,114.0 L 7.0,104.0 L 13.0,95.0 L 24.0,87.0 L 26.0,86.0 L 29.0,74.0 L 33.0,66.0 L 40.0,58.0 L 48.0,53.0 L 57.0,50.0 L 69.0,50.0 L 82.0,54.0 L 92.0,61.0 L 94.0,57.0 L 102.0,50.0 L 113.0,45.0 L 117.0,44.0" fill="#FCFCFC"/>
	<path d="M 117.0,44.0 L 131.0,44.0 L 140.0,46.0 L 150.0,51.0 L 157.0,57.0 L 164.0,67.0 L 168.0,78.0 L 168.0,89.0 L 177.0,91.0 L 187.0,98.0 L 194.0,108.0 L 197.0,116.0 L 197.0,129.0 L 193.0,142.0 L 186.0,151.0 L 177.0,157.0 L 166.0,160.0 L 34.0,160.0 L 23.0,156.0 L 14.0,149.0 L 8.0,142.0 L 4.0,132.0 L 3.0,128.0 L 3.0,114.0 L 7.0,104.0 L 13.0,95.0 L 24.0,87.0 L 26.0,86.0 L 29.0,74.0 L 33.0,66.0 L 40.0,58.0 L 48.0,53.0 L 57.0,50.0 L 69.0,50.0 L 82.0,54.0 L 92.0,61.0 L 94.0,57.0 L 102.0,50.0 L 113.0,45.0 L 117.0,44.0 M 118.0,52.0 L 108.0,56.0 L 98.0,65.0 L 94.0,71.0 L 89.0,71.0 L 84.0,65.0 L 76.0,60.0 L 68.0,58.0 L 58.0,58.0 L 49.0,62.0 L 41.0,69.0 L 37.0,75.0 L 34.0,90.0 L 33.0,93.0 L 28.0,94.0 L 20.0,100.0 L 15.0,106.0 L 11.0,115.0 L 11.0,125.0 L 14.0,136.0 L 20.0,144.0 L 29.0,150.0 L 35.0,152.0 L 165.0,152.0 L 175.0,149.0 L 184.0,141.0 L 189.0,130.0 L 189.0,117.0 L 184.0,107.0 L 175.0,99.0 L 168.0,96.0 L 161.0,94.0 L 160.0,80.0 L 156.0,70.0 L 150.0,62.0 L 144.0,57.0 L 135.0,53.0 L 130.0,52.0 L 118.0,52.0" fill="#060606"/>
	<path d="M 96.0,77.0 L 107.0,77.0 L 108.0,99.0 L 108.0,123.0 L 96.0,123.0 L 96.0,77.0" fill="#070707"/>
	<path d="M 97.0,131.0 L 108.0,131.0 L 108.0,143.0 L 97.0,143.0 L 97.0,131.0" fill="#0A0A0A"/>
</svg>
