<?xml version="1.0" ?>
<svg baseProfile="full" height="600px" version="1.1" viewBox="-20.1 -20.1 240.2 240.2" width="600px" xmlns="http://www.w3.org/2000/svg" xmlns:ev="http://www.w3.org/2001/xml-events" xmlns:xlink="http://www.w3.org/1999/xlink">
	<defs/>
	<path d="M 0.0,0.0 L 200.0,0.0 L 200.0,200.0 L 0.0,200.0 L 0.0,0.0" fill="#FDFDFD"/>
	<path d="M 64.0,44.0 L 77.0,44.0 L 86.0,46.0 L 98.0,52.0 L 107.0,61.0 L 111.0,59.0 L 119.0,54.0 L 125.0,52.0 L 139.0,52.0 L 150.0,56.0 L 158.0,62.0 L 164.0,70.0 L 168.0,80.0 L 169.0,89.0 L 177.0,92.0 L 187.0,101.0 L 193.0,111.0 L 195.0,118.0 L 195.0,128.0 L 191.0,141.0 L 185.0,149.0 L 178.0,155.0 L 169.0,159.0 L 164.0,160.0 L 36.0,160.0 L 25.0,156.0 L 16.0,149.0 L 10.0,141.0 L 5.0,128.0 L 5.0,116.0 L 9.0,105.0 L 15.0,96.0 L 25.0,88.0 L 27.0,87.0 L 31.0,71.0 L 36.0,62.0 L 42.0,55.0 L 53.0,48.0 L 64.0,44.0" fill="#FCFCFC"/>
	<path d="M 64.0,44.0 L 77.0,44.0 L 86.0,46.0 L 98.0,52.0 L 107.0,61.0 L 111.0,59.0 L 119.0,54.0 L 125.0,52.0 L 139.0,52.0 L 150.0,56.0 L 158.0,62.0 L 164.0,70.0 L 168.0,80.0 L 169.0,89.0 L 177.0,92.0 L 187.0,101.0 L 193.0,111.0 L 195.0,118.0 L 195.0,128.0 L 191.0,141.0 L 185.0,149.0 L 178.0,155.0 L 169.0,159.0 L 164.0,160.0 L 36.0,160.0 L 25.0,156.0 L 16.0,149.0 L 10.0,141.0 L 5.0,128.0 L 5.0,116.0 L 9.0,105.0 L 15.0,96.0 L 25.0,88.0 L 27.0,87.0 L 31.0,71.0 L 36.0,62.0 L 42.0,55.0 L 53.0,48.0 L 64.0,44.0 M 65.0,52.0 L 53.0,57.0 L 43.0,66.0 L 37.0,78.0 L 35.0,91.0 L 34.0,94.0 L 29.0,95.0 L 19.0,104.0 L 15.0,111.0 L 14.0,115.0 L 14.0,131.0 L 19.0,140.0 L 24.0,145.0 L 31.0,150.0 L 37.0,152.0 L 163.0,152.0 L 172.0,149.0 L 180.0,143.0 L 185.0,134.0 L 187.0,127.0 L 187.0,119.0 L 183.0,109.0 L 177.0,102.0 L 171.0,98.0 L 161.0,95.0 L 160.0,81.0 L 155.0,71.0 L 148.0,64.0 L 139.0,60.0 L 127.0,60.0 L 118.0,64.0 L 111.0,70.0 L 110.0,72.0 L 105.0,72.0 L 98.0,63.0 L 91.0,57.0 L 78.0,52.0 L 65.0,52.0" fill="#060606"/>
	<path d="M 98.0,79.0 L 108.0,79.0 L 108.0,116.0 L 107.0,123.0 L 97.0,123.0 L 96.0,122.0 L 96.0,108.0 L 97.0,80.0 L 98.0,79.0" fill="#0D0D0D"/>
	<path d="M 96.0,130.0 L 107.0,130.0 L 107.0,140.0 L 106.0,141.0 L 96.0,141.0 L 96.0,130.0" fill="#0D0D0D"/>
</svg>
