<?xml version="1.0" ?>
<svg baseProfile="full" height="600px" version="1.1" viewBox="-20.1 -20.1 240.2 240.2" width="600px" xmlns="http://www.w3.org/2000/svg" xmlns:ev="http://www.w3.org/2001/xml-events" xmlns:xlink="http://www.w3.org/1999/xlink">
	<defs/>
	<path d="M 0.0,0.0 L 200.0,0.0 L 200.0,200.0 L 0.0,200.0 L 0.0,0.0" fill="#030303"/>
	<path d="M 0.0,0.0 L 62.0,0.0 L 61.0,2.0 L 60.0,28.0 L 86.0,27.0 L 87.0,22.0 L 86.0,21.0 L 75.0,20.0 L 80.0,15.0 L 87.0,10.0 L 93.0,8.0 L 104.0,8.0 L 114.0,11.0 L 123.0,17.0 L 129.0,26.0 L 132.0,33.0 L 132.0,47.0 L 126.0,59.0 L 122.0,64.0 L 112.0,70.0 L 105.0,72.0 L 93.0,72.0 L 84.0,68.0 L 76.0,62.0 L 70.0,52.0 L 67.0,40.0 L 62.0,39.0 L 61.0,40.0 L 62.0,50.0 L 64.0,56.0 L 70.0,66.0 L 75.0,72.0 L 5.0,73.0 L 0.0,77.0 L 0.0,0.0" fill="#FCFCFC"/>
	<path d="M 105.0,0.0 L 200.0,0.0 L 200.0,77.0 L 195.0,73.0 L 125.0,72.0 L 131.0,65.0 L 137.0,54.0 L 139.0,46.0 L 139.0,32.0 L 135.0,21.0 L 128.0,12.0 L 119.0,5.0 L 105.0,1.0 L 105.0,0.0" fill="#FDFDFD"/>
	<path d="M 44.0,124.0 L 156.0,124.0 L 156.0,152.0 L 44.0,152.0 L 44.0,124.0" fill="#FDFDFD"/>
	<path d="M 44.0,176.0 L 156.0,176.0 L 157.0,198.0 L 158.0,200.0 L 42.0,200.0 L 43.0,198.0 L 44.0,176.0" fill="#FDFDFD"/>
	<path d="M 199.0,118.0 L 200.0,118.0 L 200.0,200.0 L 182.0,200.0 L 183.0,198.0 L 184.0,124.0 L 197.0,122.0 L 199.0,118.0" fill="#FDFDFD"/>
	<path d="M 0.0,119.0 L 5.0,123.0 L 16.0,124.0 L 17.0,198.0 L 18.0,200.0 L 0.0,200.0 L 0.0,119.0" fill="#FDFDFD"/>
	<path d="M 44.0,160.0 L 156.0,160.0 L 156.0,168.0 L 44.0,168.0 L 44.0,160.0" fill="#FBFBFB"/>
	<path d="M 164.0,124.0 L 176.0,124.0 L 176.0,192.0 L 164.0,192.0 L 164.0,124.0" fill="#FCFCFC"/>
	<path d="M 24.0,124.0 L 36.0,124.0 L 36.0,192.0 L 24.0,192.0 L 24.0,124.0" fill="#FDFDFD"/>
	<path d="M 144.0,80.0 L 163.0,80.0 L 158.0,90.0 L 142.0,116.0 L 123.0,116.0 L 131.0,102.0 L 144.0,80.0" fill="#F9F9F9"/>
	<path d="M 116.0,80.0 L 135.0,80.0 L 130.0,90.0 L 114.0,116.0 L 95.0,116.0 L 103.0,102.0 L 116.0,80.0" fill="#F9F9F9"/>
	<path d="M 88.0,80.0 L 107.0,80.0 L 102.0,90.0 L 86.0,116.0 L 67.0,116.0 L 75.0,102.0 L 88.0,80.0" fill="#F9F9F9"/>
	<path d="M 60.0,80.0 L 79.0,80.0 L 74.0,90.0 L 58.0,116.0 L 39.0,116.0 L 47.0,102.0 L 60.0,80.0" fill="#F9F9F9"/>
	<path d="M 172.0,80.0 L 191.0,80.0 L 185.0,91.0 L 170.0,116.0 L 151.0,116.0 L 159.0,102.0 L 172.0,80.0" fill="#F9F9F9"/>
	<path d="M 32.0,80.0 L 51.0,80.0 L 46.0,90.0 L 30.0,116.0 L 12.0,116.0 L 14.0,111.0 L 29.0,85.0 L 32.0,80.0" fill="#F9F9F9"/>
	<path d="M 8.0,80.0 L 23.0,80.0 L 18.0,90.0 L 9.0,105.0 L 8.0,105.0 L 8.0,80.0" fill="#F9F9F9"/>
	<path d="M 66.0,0.0 L 92.0,0.0 L 90.0,2.0 L 82.0,5.0 L 73.0,11.0 L 68.0,15.0 L 67.0,2.0 L 66.0,0.0" fill="#F6F6F6"/>
	<path d="M 191.0,95.0 L 192.0,95.0 L 192.0,116.0 L 179.0,116.0 L 187.0,102.0 L 191.0,95.0" fill="#F8F8F8"/>
</svg>
