<?xml version="1.0" ?>
<svg baseProfile="full" height="600px" version="1.1" viewBox="-16.08 -16.08 192.16 192.16" width="600px" xmlns="http://www.w3.org/2000/svg" xmlns:ev="http://www.w3.org/2001/xml-events" xmlns:xlink="http://www.w3.org/1999/xlink">
	<defs/>
	<path d="M 0.0,0.0 L 160.0,0.0 L 160.0,160.0 L 0.0,160.0 L 0.0,0.0" fill="#8BB6ED"/>
	<path d="M 0.0,0.0 L 160.0,0.0 L 160.0,160.0 L 0.0,160.0 L 0.0,0.0 M 122.0,18.0 L 85.0,23.0 L 46.0,28.0 L 9.0,33.0 L 4.0,36.0 L 1.0,40.0 L 1.0,52.0 L 3.0,64.0 L 5.0,80.0 L 8.0,103.0 L 10.0,119.0 L 13.0,125.0 L 16.0,128.0 L 21.0,130.0 L 37.0,132.0 L 48.0,134.0 L 82.0,139.0 L 115.0,144.0 L 127.0,146.0 L 142.0,146.0 L 147.0,141.0 L 149.0,137.0 L 152.0,114.0 L 155.0,93.0 L 158.0,77.0 L 159.0,71.0 L 159.0,58.0 L 155.0,53.0 L 150.0,51.0 L 139.0,50.0 L 136.0,26.0 L 133.0,21.0 L 127.0,18.0 L 122.0,18.0" fill="#FDFCFD"/>
	<path d="M 139.0,50.0 L 150.0,51.0 L 156.0,54.0 L 159.0,58.0 L 159.0,71.0 L 156.0,90.0 L 154.0,101.0 L 149.0,137.0 L 145.0,144.0 L 142.0,146.0 L 127.0,146.0 L 115.0,144.0 L 82.0,139.0 L 40.0,133.0 L 23.0,130.0 L 24.0,128.0 L 53.0,124.0 L 78.0,121.0 L 114.0,116.0 L 138.0,113.0 L 143.0,109.0 L 144.0,107.0 L 144.0,96.0 L 141.0,67.0 L 154.0,68.0 L 154.0,59.0 L 149.0,56.0 L 139.0,54.0 L 139.0,50.0" fill="#F38C8D"/>
	<path d="M 122.0,18.0 L 130.0,19.0 L 135.0,24.0 L 136.0,26.0 L 139.0,48.0 L 139.0,54.0 L 152.0,56.0 L 155.0,59.0 L 155.0,66.0 L 154.0,68.0 L 141.0,67.0 L 143.0,77.0 L 145.0,96.0 L 145.0,107.0 L 140.0,113.0 L 138.0,114.0 L 99.0,119.0 L 63.0,124.0 L 31.0,128.0 L 24.0,129.0 L 21.0,130.0 L 15.0,127.0 L 11.0,122.0 L 9.0,110.0 L 7.0,98.0 L 5.0,80.0 L 1.0,52.0 L 1.0,40.0 L 6.0,34.0 L 16.0,32.0 L 54.0,27.0 L 102.0,21.0 L 122.0,18.0 M 116.0,23.0 L 88.0,27.0 L 70.0,29.0 L 51.0,32.0 L 17.0,36.0 L 8.0,38.0 L 5.0,41.0 L 5.0,49.0 L 11.0,95.0 L 15.0,121.0 L 18.0,124.0 L 29.0,124.0 L 70.0,119.0 L 82.0,117.0 L 107.0,114.0 L 137.0,110.0 L 141.0,106.0 L 141.0,95.0 L 138.0,74.0 L 136.0,56.0 L 132.0,28.0 L 130.0,24.0 L 128.0,23.0 L 116.0,23.0" fill="#5580B8"/>
	<path d="M 139.0,50.0 L 150.0,51.0 L 156.0,54.0 L 159.0,58.0 L 159.0,71.0 L 156.0,90.0 L 154.0,101.0 L 149.0,137.0 L 145.0,144.0 L 142.0,146.0 L 127.0,146.0 L 115.0,144.0 L 82.0,139.0 L 40.0,133.0 L 23.0,130.0 L 24.0,128.0 L 38.0,127.0 L 69.0,132.0 L 123.0,140.0 L 132.0,141.0 L 141.0,141.0 L 143.0,139.0 L 151.0,89.0 L 152.0,84.0 L 143.0,83.0 L 141.0,67.0 L 154.0,68.0 L 154.0,59.0 L 149.0,56.0 L 139.0,54.0 L 139.0,50.0" fill="#CA4D4D"/>
	<path d="M 116.0,35.0 L 121.0,35.0 L 123.0,51.0 L 105.0,54.0 L 71.0,58.0 L 63.0,59.0 L 61.0,43.0 L 70.0,41.0 L 111.0,36.0 L 116.0,35.0" fill="#DDE8F1"/>
	<path d="M 138.0,50.0 L 139.0,54.0 L 152.0,56.0 L 155.0,59.0 L 155.0,66.0 L 154.0,68.0 L 141.0,67.0 L 143.0,77.0 L 145.0,96.0 L 145.0,107.0 L 140.0,113.0 L 138.0,114.0 L 99.0,119.0 L 63.0,124.0 L 31.0,128.0 L 24.0,129.0 L 21.0,130.0 L 19.0,128.0 L 24.0,126.0 L 24.0,124.0 L 52.0,120.0 L 75.0,117.0 L 107.0,113.0 L 137.0,109.0 L 140.0,108.0 L 140.0,95.0 L 137.0,74.0 L 135.0,53.0 L 138.0,50.0" fill="#567DB5"/>
	<path d="M 40.0,49.0 L 50.0,49.0 L 53.0,71.0 L 50.0,73.0 L 26.0,76.0 L 21.0,76.0 L 18.0,59.0 L 18.0,52.0 L 40.0,49.0" fill="#BA9E50"/>
	<path d="M 82.0,96.0 L 88.0,96.0 L 89.0,104.0 L 70.0,107.0 L 52.0,109.0 L 32.0,112.0 L 25.0,112.0 L 25.0,104.0 L 36.0,102.0 L 74.0,97.0 L 82.0,96.0" fill="#F9EAA4"/>
	<path d="M 138.0,50.0 L 139.0,54.0 L 152.0,56.0 L 155.0,59.0 L 155.0,66.0 L 154.0,68.0 L 141.0,67.0 L 143.0,77.0 L 145.0,96.0 L 145.0,105.0 L 143.0,105.0 L 142.0,107.0 L 137.0,74.0 L 135.0,53.0 L 138.0,50.0" fill="#5179B1"/>
	<path d="M 40.0,53.0 L 46.0,53.0 L 48.0,64.0 L 48.0,69.0 L 29.0,72.0 L 24.0,72.0 L 23.0,56.0 L 40.0,53.0" fill="#FCEA9F"/>
	<path d="M 139.0,50.0 L 150.0,51.0 L 156.0,54.0 L 159.0,58.0 L 159.0,71.0 L 156.0,85.0 L 147.0,84.0 L 143.0,83.0 L 141.0,67.0 L 154.0,68.0 L 154.0,59.0 L 149.0,56.0 L 139.0,54.0 L 139.0,50.0" fill="#3C424E"/>
	<path d="M 139.0,54.0 L 152.0,56.0 L 155.0,59.0 L 155.0,66.0 L 154.0,68.0 L 141.0,67.0 L 139.0,58.0 L 139.0,54.0" fill="#F08A8B"/>
	<path d="M 118.0,75.0 L 126.0,75.0 L 127.0,83.0 L 112.0,85.0 L 107.0,85.0 L 106.0,84.0 L 106.0,77.0 L 118.0,75.0" fill="#F7E9A5"/>
	<path d="M 35.0,86.0 L 43.0,86.0 L 43.0,94.0 L 31.0,96.0 L 24.0,96.0 L 23.0,94.0 L 23.0,88.0 L 35.0,86.0" fill="#F9EAA4"/>
	<path d="M 65.0,82.0 L 71.0,82.0 L 71.0,90.0 L 59.0,92.0 L 51.0,92.0 L 51.0,84.0 L 65.0,82.0" fill="#F9EAA4"/>
	<path d="M 97.0,78.0 L 99.0,81.0 L 99.0,87.0 L 79.0,89.0 L 78.0,81.0 L 97.0,78.0" fill="#F8EAA5"/>
	<path d="M 139.0,50.0 L 150.0,51.0 L 156.0,54.0 L 159.0,58.0 L 159.0,71.0 L 154.0,68.0 L 154.0,59.0 L 149.0,56.0 L 139.0,54.0 L 139.0,50.0" fill="#CA4E4E"/>
	<path d="M 69.0,25.0 L 73.0,26.0 L 69.0,27.0 L 70.0,30.0 L 51.0,33.0 L 47.0,33.0 L 47.0,31.0 L 49.0,31.0 L 49.0,29.0 L 46.0,28.0 L 69.0,25.0" fill="#6189BE"/>
	<path d="M 4.0,46.0 L 6.0,49.0 L 7.0,56.0 L 7.0,69.0 L 4.0,70.0 L 2.0,57.0 L 2.0,48.0 L 4.0,46.0" fill="#517DB6"/>
	<path d="M 10.0,92.0 L 12.0,95.0 L 13.0,104.0 L 13.0,115.0 L 10.0,115.0 L 8.0,103.0 L 8.0,94.0 L 10.0,92.0" fill="#517CB6"/>
	<path d="M 7.0,63.0 L 8.0,63.0 L 9.0,76.0 L 5.0,80.0 L 4.0,70.0 L 7.0,69.0 L 7.0,63.0" fill="#5E87BF"/>
	<path d="M 54.0,27.0 L 58.0,28.0 L 55.0,29.0 L 55.0,31.0 L 58.0,32.0 L 47.0,33.0 L 47.0,31.0 L 49.0,31.0 L 49.0,29.0 L 46.0,28.0 L 54.0,27.0" fill="#628AC0"/>
	<path d="M 24.0,124.0 L 33.0,124.0 L 31.0,125.0 L 31.0,128.0 L 24.0,129.0 L 21.0,130.0 L 19.0,128.0 L 24.0,126.0 L 24.0,124.0" fill="#607AAD"/>
	<path d="M 137.0,40.0 L 138.0,40.0 L 139.0,50.0 L 135.0,53.0 L 134.0,46.0 L 137.0,45.0 L 137.0,40.0" fill="#5E86BD"/>
	<path d="M 13.0,109.0 L 14.0,109.0 L 15.0,120.0 L 11.0,122.0 L 10.0,115.0 L 13.0,115.0 L 13.0,109.0" fill="#5B86BE"/>
	<path d="M 58.0,27.0 L 65.0,27.0 L 65.0,29.0 L 61.0,31.0 L 55.0,31.0 L 55.0,29.0 L 58.0,27.0" fill="#4E7AB4"/>
	<path d="M 26.0,31.0 L 28.0,31.0 L 26.0,35.0 L 19.0,36.0 L 21.0,32.0 L 26.0,31.0" fill="#517CB6"/>
	<path d="M 8.0,76.0 L 9.0,76.0 L 9.0,85.0 L 6.0,85.0 L 6.0,78.0 L 8.0,76.0" fill="#4D79B3"/>
	<path d="M 135.0,37.0 L 137.0,37.0 L 137.0,45.0 L 134.0,46.0 L 134.0,39.0 L 135.0,37.0" fill="#4E79B3"/>
	<path d="M 139.0,67.0 L 141.0,67.0 L 141.0,72.0 L 137.0,74.0 L 137.0,68.0 L 139.0,67.0" fill="#537FB9"/>
	<path d="M 122.0,18.0 L 130.0,19.0 L 128.0,23.0 L 123.0,23.0 L 123.0,21.0 L 125.0,21.0 L 125.0,19.0 L 122.0,18.0" fill="#6890C3"/>
	<path d="M 73.0,25.0 L 77.0,26.0 L 75.0,27.0 L 75.0,29.0 L 69.0,29.0 L 69.0,27.0 L 73.0,25.0" fill="#4E7AB4"/>
	<path d="M 72.0,118.0 L 79.0,118.0 L 77.0,119.0 L 77.0,121.0 L 71.0,122.0 L 72.0,118.0" fill="#4E79B3"/>
	<path d="M 10.0,86.0 L 11.0,86.0 L 11.0,92.0 L 9.0,94.0 L 7.0,98.0 L 7.0,91.0 L 9.0,91.0 L 10.0,86.0" fill="#678EC2"/>
	<path d="M 3.0,43.0 L 5.0,43.0 L 4.0,47.0 L 2.0,52.0 L 1.0,52.0 L 1.0,44.0 L 3.0,43.0" fill="#6189BD"/>
	<path d="M 86.0,116.0 L 91.0,116.0 L 89.0,117.0 L 89.0,119.0 L 83.0,120.0 L 85.0,119.0 L 86.0,116.0" fill="#4E7AB4"/>
	<path d="M 135.0,26.0 L 136.0,26.0 L 136.0,31.0 L 132.0,35.0 L 132.0,30.0 L 135.0,29.0 L 135.0,26.0" fill="#5E87BE"/>
</svg>
