<?xml version="1.0" ?>
<svg baseProfile="full" height="600px" version="1.1" viewBox="-12.864 -12.864 153.728 153.728" width="600px" xmlns="http://www.w3.org/2000/svg" xmlns:ev="http://www.w3.org/2001/xml-events" xmlns:xlink="http://www.w3.org/1999/xlink">
	<defs/>
	<path d="M 0.0,0.0 L 128.0,0.0 L 128.0,128.0 L 0.0,128.0 L 0.0,0.0" fill="#090909"/>
	<path d="M 95.0,11.0 L 103.0,11.0 L 106.0,16.0 L 110.0,60.0 L 110.0,73.0 L 108.0,75.0 L 44.0,81.0 L 28.0,83.0 L 17.0,83.0 L 15.0,81.0 L 11.0,44.0 L 10.0,21.0 L 12.0,19.0 L 65.0,14.0 L 95.0,11.0" fill="#F9F9F9"/>
	<path d="M 0.0,0.0 L 128.0,0.0 L 128.0,44.0 L 124.0,39.0 L 121.0,37.0 L 115.0,35.0 L 112.0,10.0 L 107.0,5.0 L 105.0,4.0 L 94.0,4.0 L 15.0,12.0 L 7.0,14.0 L 3.0,19.0 L 3.0,35.0 L 8.0,82.0 L 11.0,97.0 L 15.0,101.0 L 28.0,104.0 L 61.0,108.0 L 102.0,114.0 L 111.0,114.0 L 117.0,111.0 L 119.0,107.0 L 123.0,81.0 L 126.0,59.0 L 127.0,52.0 L 128.0,52.0 L 128.0,128.0 L 0.0,128.0 L 0.0,0.0" fill="#FAFAFA"/>
	<path d="M 114.0,80.0 L 115.0,80.0 L 114.0,95.0 L 112.0,105.0 L 110.0,107.0 L 89.0,105.0 L 70.0,102.0 L 40.0,98.0 L 19.0,95.0 L 17.0,91.0 L 109.0,82.0 L 114.0,80.0" fill="#F9F9F9"/>
	<path d="M 31.0,33.0 L 39.0,33.0 L 40.0,49.0 L 25.0,51.0 L 20.0,51.0 L 19.0,44.0 L 19.0,35.0 L 31.0,33.0" fill="#080808"/>
	<path d="M 82.0,28.0 L 95.0,28.0 L 95.0,36.0 L 63.0,39.0 L 59.0,39.0 L 59.0,31.0 L 82.0,28.0" fill="#0A0A0A"/>
	<path d="M 26.0,62.0 L 38.0,62.0 L 38.0,70.0 L 22.0,71.0 L 22.0,63.0 L 26.0,62.0" fill="#0B0B0B"/>
	<path d="M 88.0,56.0 L 97.0,56.0 L 98.0,64.0 L 82.0,65.0 L 81.0,57.0 L 88.0,56.0" fill="#0D0D0D"/>
	<path d="M 46.0,60.0 L 57.0,60.0 L 58.0,61.0 L 58.0,68.0 L 42.0,69.0 L 42.0,61.0 L 46.0,60.0" fill="#0B0B0B"/>
	<path d="M 66.0,58.0 L 77.0,58.0 L 78.0,66.0 L 62.0,67.0 L 62.0,59.0 L 66.0,58.0" fill="#0C0C0C"/>
	<path d="M 116.0,44.0 L 120.0,46.0 L 119.0,56.0 L 117.0,56.0 L 116.0,44.0" fill="#CDCDCD"/>
</svg>
