<?xml version="1.0" ?>
<svg baseProfile="full" height="600px" version="1.1" viewBox="-12.864 -12.864 153.728 153.728" width="600px" xmlns="http://www.w3.org/2000/svg" xmlns:ev="http://www.w3.org/2001/xml-events" xmlns:xlink="http://www.w3.org/1999/xlink">
	<defs/>
	<path d="M 0.0,0.0 L 128.0,0.0 L 128.0,128.0 L 0.0,128.0 L 0.0,0.0" fill="#F9F9F9"/>
	<path d="M 0.0,0.0 L 128.0,0.0 L 128.0,128.0 L 0.0,128.0 L 0.0,0.0 M 20.0,22.0 L 13.0,26.0 L 10.0,33.0 L 8.0,78.0 L 8.0,94.0 L 12.0,100.0 L 18.0,103.0 L 85.0,106.0 L 113.0,106.0 L 119.0,101.0 L 121.0,96.0 L 123.0,47.0 L 123.0,35.0 L 119.0,29.0 L 114.0,26.0 L 101.0,25.0 L 31.0,22.0 L 20.0,22.0" fill="#FDFDFD"/>
	<path d="M 20.0,22.0 L 56.0,23.0 L 101.0,25.0 L 114.0,26.0 L 120.0,30.0 L 123.0,35.0 L 122.0,74.0 L 121.0,96.0 L 118.0,102.0 L 113.0,106.0 L 85.0,106.0 L 18.0,103.0 L 11.0,99.0 L 8.0,94.0 L 8.0,78.0 L 10.0,33.0 L 14.0,25.0 L 20.0,22.0 M 20.0,31.0 L 19.0,32.0 L 17.0,58.0 L 17.0,93.0 L 19.0,95.0 L 92.0,98.0 L 110.0,98.0 L 112.0,96.0 L 113.0,90.0 L 114.0,59.0 L 114.0,36.0 L 112.0,34.0 L 95.0,33.0 L 45.0,31.0 L 20.0,31.0" fill="#090909"/>
	<path d="M 26.0,47.0 L 46.0,47.0 L 46.0,63.0 L 26.0,63.0 L 26.0,47.0" fill="#050505"/>
	<path d="M 66.0,48.0 L 94.0,49.0 L 102.0,50.0 L 102.0,58.0 L 66.0,57.0 L 66.0,48.0" fill="#0E0E0E"/>
	<path d="M 85.0,77.0 L 94.0,77.0 L 101.0,78.0 L 101.0,86.0 L 91.0,86.0 L 85.0,85.0 L 85.0,77.0" fill="#0F0F0F"/>
	<path d="M 65.0,77.0 L 81.0,77.0 L 81.0,85.0 L 65.0,85.0 L 65.0,77.0" fill="#0C0C0C"/>
	<path d="M 45.0,76.0 L 61.0,76.0 L 61.0,84.0 L 45.0,84.0 L 45.0,76.0" fill="#090909"/>
	<path d="M 25.0,75.0 L 41.0,75.0 L 41.0,83.0 L 25.0,83.0 L 25.0,75.0" fill="#070707"/>
</svg>
