<?xml version="1.0" ?>
<svg baseProfile="full" height="600px" version="1.1" viewBox="-16.08 -16.08 192.16 192.16" width="600px" xmlns="http://www.w3.org/2000/svg" xmlns:ev="http://www.w3.org/2001/xml-events" xmlns:xlink="http://www.w3.org/1999/xlink">
	<defs/>
	<path d="M 0.0,0.0 L 160.0,0.0 L 160.0,160.0 L 0.0,160.0 L 0.0,0.0" fill="#8AB6EE"/>
	<path d="M 0.0,0.0 L 160.0,0.0 L 160.0,160.0 L 0.0,160.0 L 0.0,0.0 M 19.0,32.0 L 13.0,37.0 L 12.0,39.0 L 12.0,121.0 L 17.0,127.0 L 19.0,128.0 L 141.0,128.0 L 147.0,123.0 L 148.0,121.0 L 148.0,39.0 L 143.0,33.0 L 141.0,32.0 L 19.0,32.0" fill="#FDFDFD"/>
	<path d="M 19.0,32.0 L 141.0,32.0 L 147.0,37.0 L 148.0,39.0 L 148.0,121.0 L 143.0,127.0 L 141.0,128.0 L 19.0,128.0 L 13.0,123.0 L 12.0,121.0 L 12.0,39.0 L 17.0,33.0 L 19.0,32.0 M 21.0,36.0 L 16.0,40.0 L 16.0,120.0 L 20.0,124.0 L 139.0,124.0 L 144.0,119.0 L 144.0,40.0 L 140.0,36.0 L 21.0,36.0" fill="#4F7AB4"/>
	<path d="M 72.0,48.0 L 132.0,48.0 L 132.0,64.0 L 72.0,64.0 L 72.0,48.0" fill="#DFE9F1"/>
	<path d="M 28.0,104.0 L 92.0,104.0 L 92.0,112.0 L 28.0,112.0 L 28.0,104.0" fill="#FDECA1"/>
	<path d="M 32.0,56.0 L 56.0,56.0 L 56.0,72.0 L 32.0,72.0 L 32.0,56.0" fill="#FDEBA0"/>
	<path d="M 28.0,52.0 L 60.0,52.0 L 60.0,76.0 L 28.0,76.0 L 28.0,52.0 M 32.0,56.0 L 32.0,72.0 L 56.0,72.0 L 56.0,56.0 L 32.0,56.0" fill="#BA9B48"/>
	<path d="M 112.0,88.0 L 132.0,88.0 L 132.0,96.0 L 112.0,96.0 L 112.0,88.0" fill="#FDECA1"/>
	<path d="M 84.0,88.0 L 104.0,88.0 L 104.0,96.0 L 84.0,96.0 L 84.0,88.0" fill="#FDECA1"/>
	<path d="M 56.0,88.0 L 76.0,88.0 L 76.0,96.0 L 56.0,96.0 L 56.0,88.0" fill="#FDECA1"/>
	<path d="M 28.0,88.0 L 48.0,88.0 L 48.0,96.0 L 28.0,96.0 L 28.0,88.0" fill="#FDECA1"/>
</svg>
