<?xml version="1.0" ?>
<svg baseProfile="full" height="600px" version="1.1" viewBox="-20.1 -20.1 240.2 240.2" width="600px" xmlns="http://www.w3.org/2000/svg" xmlns:ev="http://www.w3.org/2001/xml-events" xmlns:xlink="http://www.w3.org/1999/xlink">
	<defs/>
	<path d="M 0.0,0.0 L 200.0,0.0 L 200.0,200.0 L 0.0,200.0 L 0.0,0.0" fill="#FEFEFE"/>
	<path d="M 16.0,64.0 L 56.0,64.0 L 56.0,192.0 L 16.0,192.0 L 16.0,64.0" fill="#FEFEFE"/>
	<path d="M 144.0,87.0 L 184.0,87.0 L 184.0,192.0 L 144.0,192.0 L 144.0,87.0" fill="#FEFEFE"/>
	<path d="M 80.0,117.0 L 120.0,117.0 L 120.0,192.0 L 80.0,192.0 L 80.0,117.0" fill="#FEFEFE"/>
	<path d="M 8.0,56.0 L 64.0,56.0 L 64.0,200.0 L 8.0,200.0 L 8.0,56.0 M 16.0,64.0 L 16.0,192.0 L 56.0,192.0 L 56.0,64.0 L 16.0,64.0" fill="#000000"/>
	<path d="M 136.0,79.0 L 192.0,79.0 L 192.0,200.0 L 136.0,200.0 L 136.0,79.0 M 144.0,87.0 L 144.0,192.0 L 184.0,192.0 L 184.0,87.0 L 144.0,87.0" fill="#000000"/>
	<path d="M 72.0,109.0 L 128.0,109.0 L 128.0,200.0 L 72.0,200.0 L 72.0,109.0 M 80.0,117.0 L 80.0,192.0 L 120.0,192.0 L 120.0,117.0 L 80.0,117.0" fill="#010101"/>
</svg>
