<?xml version="1.0" ?>
<svg baseProfile="full" height="600px" version="1.1" viewBox="-19.296000000000003 -19.296000000000003 230.592 230.592" width="600px" xmlns="http://www.w3.org/2000/svg" xmlns:ev="http://www.w3.org/2001/xml-events" xmlns:xlink="http://www.w3.org/1999/xlink">
	<defs/>
	<path d="M 0.0,0.0 L 192.0,0.0 L 192.0,192.0 L 0.0,192.0 L 0.0,0.0" fill="#FDFEFE"/>
	<path d="M 46.0,24.0 L 55.0,24.0 L 63.0,29.0 L 67.0,34.0 L 67.0,36.0 L 74.0,37.0 L 80.0,44.0 L 80.0,48.0 L 86.0,49.0 L 92.0,56.0 L 92.0,64.0 L 89.0,69.0 L 84.0,72.0 L 34.0,72.0 L 28.0,68.0 L 25.0,64.0 L 24.0,61.0 L 24.0,54.0 L 28.0,48.0 L 32.0,46.0 L 32.0,37.0 L 37.0,29.0 L 43.0,25.0 L 46.0,24.0" fill="#BBDEFB"/>
	<path d="M 139.0,24.0 L 143.0,26.0 L 148.0,31.0 L 160.0,32.0 L 161.0,44.0 L 168.0,51.0 L 166.0,55.0 L 161.0,60.0 L 160.0,72.0 L 148.0,73.0 L 141.0,80.0 L 137.0,78.0 L 132.0,73.0 L 120.0,72.0 L 119.0,60.0 L 112.0,53.0 L 114.0,49.0 L 119.0,44.0 L 120.0,32.0 L 132.0,31.0 L 139.0,24.0" fill="#FF9A05"/>
	<path d="M 89.0,81.0 L 91.0,82.0 L 97.0,114.0 L 100.0,127.0 L 100.0,130.0 L 105.0,132.0 L 111.0,140.0 L 112.0,143.0 L 112.0,153.0 L 108.0,161.0 L 100.0,167.0 L 97.0,168.0 L 87.0,168.0 L 79.0,164.0 L 73.0,156.0 L 72.0,153.0 L 72.0,143.0 L 76.0,135.0 L 82.0,130.0 L 84.0,130.0 L 86.0,106.0 L 89.0,81.0" fill="#104AA3"/>
	<path d="M 136.0,40.0 L 144.0,40.0 L 149.0,43.0 L 152.0,48.0 L 152.0,55.0 L 149.0,61.0 L 143.0,64.0 L 136.0,64.0 L 131.0,61.0 L 128.0,56.0 L 128.0,48.0 L 131.0,43.0 L 136.0,40.0" fill="#FFE838"/>
	<path d="M 89.0,81.0 L 91.0,82.0 L 97.0,114.0 L 100.0,129.0 L 84.0,129.0 L 88.0,89.0 L 89.0,81.0" fill="#2999F2"/>
	<path d="M 89.0,81.0 L 91.0,82.0 L 92.0,91.0 L 90.0,91.0 L 88.0,93.0 L 89.0,81.0" fill="#51ADF6"/>
</svg>
