<?xml version="1.0" ?>
<svg baseProfile="full" height="600px" version="1.1" viewBox="-12.06 -12.06 144.12 144.12" width="600px" xmlns="http://www.w3.org/2000/svg" xmlns:ev="http://www.w3.org/2001/xml-events" xmlns:xlink="http://www.w3.org/1999/xlink">
	<defs/>
	<path d="M 0.0,0.0 L 120.0,0.0 L 120.0,120.0 L 0.0,120.0 L 0.0,0.0" fill="#FBFBFB"/>
	<path d="M 47.0,17.0 L 56.0,17.0 L 67.0,23.0 L 77.0,33.0 L 84.0,47.0 L 85.0,50.0 L 85.0,65.0 L 84.0,68.0 L 78.0,67.0 L 25.0,46.0 L 15.0,42.0 L 14.0,40.0 L 20.0,31.0 L 29.0,24.0 L 39.0,19.0 L 47.0,17.0" fill="#040404"/>
	<path d="M 11.0,48.0 L 35.0,57.0 L 80.0,75.0 L 79.0,80.0 L 75.0,85.0 L 67.0,91.0 L 55.0,96.0 L 49.0,97.0 L 34.0,97.0 L 25.0,94.0 L 17.0,85.0 L 12.0,75.0 L 10.0,70.0 L 10.0,49.0 L 11.0,48.0" fill="#020202"/>
	<path d="M 77.0,22.0 L 83.0,24.0 L 92.0,31.0 L 99.0,38.0 L 106.0,50.0 L 108.0,57.0 L 108.0,75.0 L 107.0,77.0 L 98.0,75.0 L 92.0,72.0 L 92.0,49.0 L 88.0,38.0 L 81.0,27.0 L 77.0,22.0" fill="#070707"/>
	<path d="M 88.0,79.0 L 93.0,80.0 L 104.0,84.0 L 102.0,89.0 L 93.0,99.0 L 85.0,104.0 L 72.0,108.0 L 51.0,108.0 L 45.0,106.0 L 45.0,105.0 L 57.0,103.0 L 70.0,98.0 L 79.0,91.0 L 86.0,83.0 L 88.0,79.0" fill="#070707"/>
</svg>
