<?xml version="1.0" ?>
<svg baseProfile="full" height="600px" version="1.1" viewBox="-20.1 -20.1 240.2 240.2" width="600px" xmlns="http://www.w3.org/2000/svg" xmlns:ev="http://www.w3.org/2001/xml-events" xmlns:xlink="http://www.w3.org/1999/xlink">
	<defs/>
	<path d="M 0.0,0.0 L 200.0,0.0 L 200.0,200.0 L 0.0,200.0 L 0.0,0.0" fill="#0A0A0A"/>
	<path d="M 0.0,0.0 L 200.0,0.0 L 200.0,200.0 L 0.0,200.0 L 0.0,0.0 M 94.0,2.0 L 73.0,7.0 L 57.0,15.0 L 45.0,24.0 L 33.0,36.0 L 24.0,50.0 L 17.0,66.0 L 13.0,83.0 L 13.0,102.0 L 16.0,119.0 L 22.0,135.0 L 29.0,147.0 L 40.0,160.0 L 51.0,169.0 L 65.0,177.0 L 83.0,183.0 L 92.0,184.0 L 113.0,184.0 L 125.0,181.0 L 141.0,175.0 L 151.0,169.0 L 161.0,161.0 L 170.0,152.0 L 179.0,139.0 L 186.0,124.0 L 190.0,110.0 L 191.0,103.0 L 191.0,82.0 L 189.0,69.0 L 185.0,57.0 L 177.0,42.0 L 170.0,33.0 L 163.0,25.0 L 151.0,16.0 L 135.0,8.0 L 126.0,5.0 L 113.0,2.0 L 94.0,2.0" fill="#FCFCFC"/>
	<path d="M 66.0,82.0 L 75.0,84.0 L 127.0,101.0 L 140.0,105.0 L 177.0,117.0 L 179.0,118.0 L 176.0,128.0 L 169.0,140.0 L 161.0,150.0 L 154.0,157.0 L 148.0,161.0 L 142.0,163.0 L 135.0,164.0 L 120.0,164.0 L 106.0,160.0 L 94.0,154.0 L 84.0,146.0 L 77.0,138.0 L 69.0,124.0 L 65.0,110.0 L 65.0,85.0 L 66.0,82.0" fill="#FCFCFC"/>
	<path d="M 119.0,32.0 L 140.0,32.0 L 149.0,34.0 L 161.0,39.0 L 167.0,43.0 L 172.0,49.0 L 179.0,63.0 L 182.0,73.0 L 183.0,82.0 L 183.0,106.0 L 182.0,110.0 L 173.0,108.0 L 156.0,102.0 L 139.0,97.0 L 72.0,75.0 L 70.0,74.0 L 71.0,68.0 L 78.0,57.0 L 85.0,49.0 L 97.0,40.0 L 110.0,34.0 L 119.0,32.0" fill="#FBFBFB"/>
	<path d="M 32.0,71.0 L 38.0,72.0 L 54.0,77.0 L 59.0,79.0 L 58.0,88.0 L 58.0,110.0 L 62.0,125.0 L 70.0,141.0 L 81.0,153.0 L 88.0,159.0 L 99.0,165.0 L 109.0,169.0 L 124.0,172.0 L 122.0,174.0 L 109.0,176.0 L 90.0,176.0 L 74.0,172.0 L 58.0,164.0 L 49.0,157.0 L 38.0,146.0 L 30.0,133.0 L 27.0,126.0 L 26.0,120.0 L 26.0,95.0 L 29.0,79.0 L 32.0,71.0" fill="#FBFBFB"/>
	<path d="M 108.0,15.0 L 131.0,15.0 L 147.0,23.0 L 150.0,26.0 L 140.0,24.0 L 123.0,24.0 L 109.0,27.0 L 95.0,33.0 L 84.0,41.0 L 78.0,46.0 L 69.0,58.0 L 62.0,71.0 L 53.0,69.0 L 36.0,63.0 L 41.0,54.0 L 49.0,44.0 L 58.0,35.0 L 72.0,26.0 L 82.0,21.0 L 99.0,16.0 L 108.0,15.0" fill="#F9F9F9"/>
</svg>
