<?xml version="1.0" ?>
<svg baseProfile="full" height="600px" version="1.1" viewBox="-12.06 -12.06 144.12 144.12" width="600px" xmlns="http://www.w3.org/2000/svg" xmlns:ev="http://www.w3.org/2001/xml-events" xmlns:xlink="http://www.w3.org/1999/xlink">
	<defs/>
	<path d="M 0.0,0.0 L 120.0,0.0 L 120.0,120.0 L 0.0,120.0 L 0.0,0.0" fill="#FBFBFB"/>
	<path d="M 61.0,15.0 L 71.0,15.0 L 83.0,20.0 L 86.0,22.0 L 84.0,26.0 L 76.0,35.0 L 70.0,47.0 L 67.0,58.0 L 49.0,58.0 L 49.0,43.0 L 53.0,27.0 L 59.0,17.0 L 61.0,15.0" fill="#040404"/>
	<path d="M 49.0,66.0 L 67.0,66.0 L 71.0,83.0 L 77.0,94.0 L 84.0,102.0 L 81.0,105.0 L 70.0,109.0 L 60.0,109.0 L 54.0,97.0 L 51.0,88.0 L 49.0,75.0 L 49.0,66.0" fill="#030303"/>
	<path d="M 27.0,65.0 L 41.0,65.0 L 44.0,89.0 L 50.0,106.0 L 50.0,108.0 L 43.0,107.0 L 32.0,101.0 L 24.0,94.0 L 20.0,89.0 L 21.0,83.0 L 25.0,72.0 L 27.0,65.0" fill="#070707"/>
	<path d="M 93.0,28.0 L 98.0,33.0 L 104.0,43.0 L 107.0,51.0 L 107.0,59.0 L 75.0,59.0 L 76.0,51.0 L 82.0,39.0 L 91.0,29.0 L 93.0,28.0" fill="#060606"/>
	<path d="M 75.0,67.0 L 107.0,67.0 L 106.0,75.0 L 101.0,87.0 L 93.0,97.0 L 89.0,96.0 L 81.0,87.0 L 76.0,75.0 L 75.0,67.0" fill="#040404"/>
	<path d="M 45.0,16.0 L 50.0,16.0 L 45.0,28.0 L 42.0,45.0 L 41.0,57.0 L 27.0,57.0 L 25.0,45.0 L 21.0,36.0 L 23.0,31.0 L 33.0,22.0 L 45.0,16.0" fill="#060606"/>
	<path d="M 16.0,44.0 L 18.0,48.0 L 19.0,50.0 L 19.0,57.0 L 13.0,57.0 L 14.0,47.0 L 16.0,44.0" fill="#1D1D1D"/>
	<path d="M 13.0,65.0 L 19.0,65.0 L 17.0,74.0 L 16.0,77.0 L 14.0,77.0 L 13.0,73.0 L 13.0,65.0" fill="#121212"/>
</svg>
