<?xml version="1.0" ?>
<svg baseProfile="full" height="600px" version="1.1" viewBox="-12.06 -12.06 144.12 144.12" width="600px" xmlns="http://www.w3.org/2000/svg" xmlns:ev="http://www.w3.org/2001/xml-events" xmlns:xlink="http://www.w3.org/1999/xlink">
	<defs/>
	<path d="M 0.0,0.0 L 120.0,0.0 L 120.0,120.0 L 0.0,120.0 L 0.0,0.0" fill="#FBFBFB"/>
	<path d="M 75.0,15.0 L 88.0,15.0 L 94.0,17.0 L 100.0,24.0 L 106.0,36.0 L 108.0,44.0 L 108.0,58.0 L 107.0,66.0 L 97.0,64.0 L 54.0,50.0 L 42.0,46.0 L 41.0,43.0 L 47.0,33.0 L 57.0,23.0 L 71.0,16.0 L 75.0,15.0" fill="#040404"/>
	<path d="M 37.0,54.0 L 44.0,55.0 L 62.0,61.0 L 75.0,65.0 L 103.0,74.0 L 102.0,79.0 L 95.0,90.0 L 88.0,97.0 L 77.0,104.0 L 69.0,107.0 L 62.0,107.0 L 52.0,101.0 L 43.0,91.0 L 38.0,79.0 L 37.0,76.0 L 37.0,54.0" fill="#020202"/>
	<path d="M 56.0,5.0 L 70.0,5.0 L 75.0,6.0 L 72.0,8.0 L 59.0,13.0 L 47.0,22.0 L 39.0,32.0 L 33.0,43.0 L 19.0,39.0 L 20.0,34.0 L 27.0,23.0 L 35.0,15.0 L 49.0,7.0 L 56.0,5.0" fill="#080808"/>
	<path d="M 16.0,47.0 L 25.0,49.0 L 30.0,51.0 L 30.0,76.0 L 34.0,89.0 L 40.0,100.0 L 44.0,105.0 L 38.0,103.0 L 30.0,97.0 L 22.0,88.0 L 18.0,80.0 L 15.0,70.0 L 15.0,48.0 L 16.0,47.0" fill="#060606"/>
</svg>
