<?xml version="1.0" ?>
<svg baseProfile="full" height="600px" version="1.1" viewBox="-20.1 -20.1 240.2 240.2" width="600px" xmlns="http://www.w3.org/2000/svg" xmlns:ev="http://www.w3.org/2001/xml-events" xmlns:xlink="http://www.w3.org/1999/xlink">
	<defs/>
	<path d="M 0.0,0.0 L 200.0,0.0 L 200.0,200.0 L 0.0,200.0 L 0.0,0.0" fill="#080808"/>
	<path d="M 0.0,0.0 L 200.0,0.0 L 200.0,200.0 L 0.0,200.0 L 0.0,0.0 M 85.0,3.0 L 64.0,8.0 L 48.0,16.0 L 37.0,23.0 L 25.0,34.0 L 16.0,46.0 L 8.0,62.0 L 4.0,80.0 L 4.0,93.0 L 7.0,108.0 L 12.0,121.0 L 18.0,131.0 L 27.0,142.0 L 36.0,150.0 L 50.0,159.0 L 61.0,164.0 L 78.0,169.0 L 87.0,170.0 L 114.0,170.0 L 130.0,166.0 L 146.0,160.0 L 161.0,151.0 L 174.0,139.0 L 182.0,129.0 L 190.0,113.0 L 194.0,100.0 L 195.0,93.0 L 195.0,76.0 L 191.0,60.0 L 183.0,44.0 L 174.0,33.0 L 166.0,25.0 L 153.0,16.0 L 138.0,9.0 L 121.0,4.0 L 116.0,3.0 L 85.0,3.0" fill="#FCFCFC"/>
	<path d="M 56.0,87.0 L 98.0,87.0 L 98.0,97.0 L 93.0,110.0 L 86.0,120.0 L 82.0,125.0 L 72.0,133.0 L 56.0,141.0 L 46.0,144.0 L 41.0,144.0 L 27.0,130.0 L 19.0,117.0 L 14.0,103.0 L 13.0,99.0 L 13.0,89.0 L 56.0,87.0" fill="#FCFCFC"/>
	<path d="M 46.0,26.0 L 54.0,27.0 L 68.0,33.0 L 80.0,42.0 L 89.0,52.0 L 97.0,68.0 L 98.0,71.0 L 98.0,79.0 L 44.0,81.0 L 13.0,81.0 L 14.0,71.0 L 19.0,57.0 L 28.0,43.0 L 37.0,33.0 L 46.0,26.0" fill="#FBFBFB"/>
	<path d="M 107.0,86.0 L 135.0,86.0 L 135.0,110.0 L 131.0,128.0 L 123.0,147.0 L 116.0,159.0 L 114.0,162.0 L 108.0,163.0 L 87.0,163.0 L 66.0,158.0 L 52.0,151.0 L 54.0,149.0 L 69.0,143.0 L 81.0,135.0 L 90.0,127.0 L 97.0,117.0 L 102.0,107.0 L 106.0,93.0 L 107.0,86.0" fill="#FBFBFB"/>
	<path d="M 87.0,10.0 L 103.0,10.0 L 113.0,22.0 L 121.0,35.0 L 127.0,47.0 L 131.0,58.0 L 134.0,71.0 L 134.0,78.0 L 106.0,78.0 L 104.0,66.0 L 96.0,50.0 L 89.0,41.0 L 82.0,34.0 L 71.0,27.0 L 60.0,22.0 L 57.0,20.0 L 67.0,15.0 L 83.0,11.0 L 87.0,10.0" fill="#FAFAFA"/>
	<path d="M 153.0,84.0 L 171.0,84.0 L 176.0,102.0 L 181.0,112.0 L 179.0,118.0 L 172.0,129.0 L 162.0,140.0 L 150.0,149.0 L 134.0,157.0 L 125.0,159.0 L 134.0,140.0 L 139.0,126.0 L 142.0,111.0 L 144.0,85.0 L 153.0,84.0" fill="#FAFAFA"/>
	<path d="M 114.0,11.0 L 122.0,12.0 L 140.0,18.0 L 153.0,25.0 L 164.0,34.0 L 173.0,44.0 L 177.0,50.0 L 176.0,55.0 L 172.0,67.0 L 171.0,77.0 L 142.0,77.0 L 139.0,60.0 L 134.0,45.0 L 126.0,29.0 L 119.0,18.0 L 114.0,11.0" fill="#FAFAFA"/>
	<path d="M 179.0,84.0 L 186.0,84.0 L 186.0,97.0 L 184.0,101.0 L 181.0,95.0 L 179.0,84.0" fill="#F5F5F5"/>
	<path d="M 181.0,61.0 L 183.0,63.0 L 186.0,73.0 L 186.0,76.0 L 179.0,76.0 L 179.0,68.0 L 181.0,61.0" fill="#E4E4E4"/>
</svg>
