<?xml version="1.0" ?>
<svg baseProfile="full" height="600px" version="1.1" viewBox="-12.06 -12.06 144.12 144.12" width="600px" xmlns="http://www.w3.org/2000/svg" xmlns:ev="http://www.w3.org/2001/xml-events" xmlns:xlink="http://www.w3.org/1999/xlink">
	<defs/>
	<path d="M 0.0,0.0 L 120.0,0.0 L 120.0,120.0 L 0.0,120.0 L 0.0,0.0" fill="#FBFBFB"/>
	<path d="M 63.0,12.0 L 73.0,13.0 L 89.0,21.0 L 92.0,24.0 L 90.0,28.0 L 83.0,42.0 L 80.0,56.0 L 64.0,56.0 L 63.0,44.0 L 63.0,12.0" fill="#060606"/>
	<path d="M 40.0,64.0 L 56.0,64.0 L 57.0,84.0 L 57.0,108.0 L 47.0,107.0 L 31.0,99.0 L 28.0,96.0 L 30.0,92.0 L 36.0,80.0 L 39.0,71.0 L 40.0,64.0" fill="#060606"/>
	<path d="M 51.0,12.0 L 55.0,12.0 L 56.0,56.0 L 39.0,56.0 L 36.0,43.0 L 31.0,33.0 L 26.0,27.0 L 26.0,25.0 L 36.0,18.0 L 47.0,13.0 L 51.0,12.0" fill="#040404"/>
	<path d="M 64.0,64.0 L 81.0,64.0 L 85.0,80.0 L 92.0,91.0 L 94.0,95.0 L 84.0,102.0 L 73.0,107.0 L 65.0,108.0 L 64.0,64.0" fill="#040404"/>
	<path d="M 20.0,33.0 L 23.0,34.0 L 29.0,44.0 L 31.0,50.0 L 31.0,57.0 L 12.0,57.0 L 13.0,47.0 L 20.0,33.0" fill="#0A0A0A"/>
	<path d="M 88.0,63.0 L 108.0,63.0 L 107.0,73.0 L 100.0,87.0 L 97.0,86.0 L 89.0,70.0 L 88.0,63.0" fill="#080808"/>
	<path d="M 12.0,65.0 L 32.0,65.0 L 30.0,76.0 L 24.0,88.0 L 21.0,89.0 L 13.0,73.0 L 12.0,65.0" fill="#070707"/>
	<path d="M 97.0,31.0 L 99.0,31.0 L 105.0,42.0 L 107.0,47.0 L 107.0,55.0 L 88.0,55.0 L 90.0,43.0 L 96.0,32.0 L 97.0,31.0" fill="#070707"/>
</svg>
