<?xml version="1.0" ?>
<svg baseProfile="full" height="600px" version="1.1" viewBox="-19.296000000000003 -19.296000000000003 230.592 230.592" width="600px" xmlns="http://www.w3.org/2000/svg" xmlns:ev="http://www.w3.org/2001/xml-events" xmlns:xlink="http://www.w3.org/1999/xlink">
	<defs/>
	<path d="M 0.0,0.0 L 192.0,0.0 L 192.0,192.0 L 0.0,192.0 L 0.0,0.0" fill="#FEFCFC"/>
	<path d="M 42.0,35.0 L 56.0,35.0 L 68.0,40.0 L 75.0,47.0 L 79.0,45.0 L 86.0,39.0 L 95.0,35.0 L 109.0,35.0 L 120.0,39.0 L 127.0,44.0 L 134.0,54.0 L 137.0,64.0 L 137.0,75.0 L 141.0,73.0 L 155.0,72.0 L 166.0,76.0 L 174.0,83.0 L 180.0,95.0 L 180.0,108.0 L 175.0,118.0 L 163.0,130.0 L 145.0,143.0 L 120.0,157.0 L 114.0,160.0 L 112.0,160.0 L 98.0,140.0 L 92.0,131.0 L 81.0,141.0 L 77.0,144.0 L 73.0,142.0 L 62.0,133.0 L 54.0,125.0 L 46.0,118.0 L 34.0,105.0 L 24.0,92.0 L 18.0,81.0 L 15.0,74.0 L 15.0,64.0 L 18.0,54.0 L 24.0,46.0 L 32.0,39.0 L 42.0,35.0" fill="#F24336"/>
	<path d="M 42.0,35.0 L 56.0,35.0 L 68.0,40.0 L 75.0,47.0 L 79.0,45.0 L 86.0,39.0 L 95.0,35.0 L 109.0,35.0 L 120.0,39.0 L 127.0,44.0 L 134.0,54.0 L 137.0,64.0 L 137.0,72.0 L 134.0,78.0 L 131.0,79.0 L 125.0,70.0 L 120.0,66.0 L 111.0,62.0 L 100.0,62.0 L 90.0,66.0 L 84.0,70.0 L 78.0,80.0 L 77.0,83.0 L 77.0,94.0 L 80.0,105.0 L 88.0,121.0 L 92.0,129.0 L 90.0,133.0 L 77.0,144.0 L 73.0,142.0 L 62.0,133.0 L 54.0,125.0 L 46.0,118.0 L 34.0,105.0 L 24.0,92.0 L 18.0,81.0 L 15.0,74.0 L 15.0,64.0 L 18.0,54.0 L 24.0,46.0 L 32.0,39.0 L 42.0,35.0" fill="#B81E1D"/>
</svg>
