<?xml version="1.0" ?>
<svg baseProfile="full" height="600px" version="1.1" viewBox="-19.296000000000003 -19.296000000000003 230.592 230.592" width="600px" xmlns="http://www.w3.org/2000/svg" xmlns:ev="http://www.w3.org/2001/xml-events" xmlns:xlink="http://www.w3.org/1999/xlink">
	<defs/>
	<path d="M 0.0,0.0 L 192.0,0.0 L 192.0,192.0 L 0.0,192.0 L 0.0,0.0" fill="#FEFCFC"/>
	<path d="M 44.0,37.0 L 56.0,37.0 L 68.0,42.0 L 74.0,47.0 L 75.0,49.0 L 77.0,49.0 L 81.0,44.0 L 89.0,39.0 L 95.0,37.0 L 108.0,37.0 L 120.0,42.0 L 126.0,47.0 L 131.0,54.0 L 134.0,62.0 L 134.0,76.0 L 134.0,79.0 L 142.0,76.0 L 156.0,76.0 L 166.0,81.0 L 172.0,88.0 L 175.0,94.0 L 175.0,109.0 L 171.0,117.0 L 163.0,126.0 L 150.0,136.0 L 130.0,148.0 L 114.0,156.0 L 104.0,143.0 L 95.0,129.0 L 95.0,127.0 L 86.0,134.0 L 77.0,142.0 L 73.0,140.0 L 58.0,127.0 L 37.0,106.0 L 25.0,90.0 L 19.0,78.0 L 18.0,75.0 L 18.0,62.0 L 22.0,53.0 L 27.0,46.0 L 36.0,40.0 L 44.0,37.0" fill="#B81E1E"/>
	<path d="M 99.0,66.0 L 114.0,66.0 L 121.0,69.0 L 128.0,75.0 L 130.0,80.0 L 134.0,79.0 L 142.0,76.0 L 156.0,76.0 L 166.0,81.0 L 172.0,88.0 L 175.0,94.0 L 175.0,109.0 L 171.0,117.0 L 163.0,126.0 L 150.0,136.0 L 130.0,148.0 L 114.0,156.0 L 104.0,143.0 L 93.0,125.0 L 85.0,109.0 L 81.0,99.0 L 80.0,94.0 L 80.0,87.0 L 84.0,77.0 L 91.0,70.0 L 99.0,66.0" fill="#F24336"/>
</svg>
