<?xml version="1.0" ?>
<svg baseProfile="full" height="600px" version="1.1" viewBox="-19.296000000000003 -19.296000000000003 230.592 230.592" width="600px" xmlns="http://www.w3.org/2000/svg" xmlns:ev="http://www.w3.org/2001/xml-events" xmlns:xlink="http://www.w3.org/1999/xlink">
	<defs/>
	<path d="M 0.0,0.0 L 192.0,0.0 L 192.0,192.0 L 0.0,192.0 L 0.0,0.0" fill="#FEFCFC"/>
	<path d="M 41.0,33.0 L 54.0,33.0 L 65.0,37.0 L 73.0,43.0 L 75.0,47.0 L 77.0,47.0 L 79.0,43.0 L 88.0,36.0 L 96.0,33.0 L 110.0,33.0 L 119.0,36.0 L 128.0,42.0 L 134.0,49.0 L 139.0,61.0 L 139.0,73.0 L 138.0,77.0 L 142.0,76.0 L 156.0,76.0 L 166.0,81.0 L 172.0,88.0 L 175.0,94.0 L 175.0,109.0 L 171.0,117.0 L 163.0,126.0 L 150.0,136.0 L 130.0,148.0 L 114.0,156.0 L 104.0,143.0 L 97.0,132.0 L 97.0,130.0 L 92.0,133.0 L 81.0,143.0 L 77.0,146.0 L 73.0,144.0 L 62.0,135.0 L 55.0,128.0 L 47.0,121.0 L 40.0,114.0 L 33.0,106.0 L 22.0,92.0 L 14.0,76.0 L 13.0,72.0 L 13.0,61.0 L 17.0,51.0 L 23.0,43.0 L 31.0,37.0 L 41.0,33.0" fill="#B81D1D"/>
	<path d="M 99.0,66.0 L 114.0,66.0 L 121.0,69.0 L 128.0,75.0 L 132.0,81.0 L 138.0,76.0 L 156.0,76.0 L 166.0,81.0 L 172.0,88.0 L 175.0,94.0 L 175.0,109.0 L 171.0,117.0 L 163.0,126.0 L 150.0,136.0 L 130.0,148.0 L 114.0,156.0 L 104.0,143.0 L 97.0,132.0 L 97.0,130.0 L 95.0,130.0 L 87.0,114.0 L 81.0,99.0 L 80.0,94.0 L 80.0,87.0 L 84.0,77.0 L 91.0,70.0 L 99.0,66.0" fill="#F24336"/>
</svg>
