<?xml version="1.0" ?>
<svg baseProfile="full" height="600px" version="1.1" viewBox="-12.06 -12.06 144.12 144.12" width="600px" xmlns="http://www.w3.org/2000/svg" xmlns:ev="http://www.w3.org/2001/xml-events" xmlns:xlink="http://www.w3.org/1999/xlink">
	<defs/>
	<path d="M 0.0,0.0 L 120.0,0.0 L 120.0,120.0 L 0.0,120.0 L 0.0,0.0" fill="#FCFCFC"/>
	<path d="M 32.0,16.0 L 43.0,16.0 L 52.0,20.0 L 59.0,26.0 L 63.0,24.0 L 71.0,18.0 L 76.0,16.0 L 87.0,16.0 L 97.0,20.0 L 104.0,27.0 L 108.0,36.0 L 108.0,48.0 L 105.0,60.0 L 109.0,65.0 L 111.0,69.0 L 111.0,79.0 L 105.0,88.0 L 95.0,94.0 L 87.0,97.0 L 68.0,100.0 L 65.0,103.0 L 57.0,104.0 L 48.0,97.0 L 38.0,88.0 L 27.0,77.0 L 18.0,64.0 L 13.0,52.0 L 12.0,47.0 L 12.0,36.0 L 17.0,26.0 L 25.0,19.0 L 32.0,16.0" fill="#030303"/>
	<path d="M 71.0,53.0 L 79.0,53.0 L 84.0,57.0 L 87.0,63.0 L 87.0,65.0 L 89.0,64.0 L 96.0,64.0 L 102.0,68.0 L 103.0,70.0 L 103.0,77.0 L 99.0,83.0 L 89.0,88.0 L 83.0,90.0 L 70.0,91.0 L 66.0,82.0 L 65.0,77.0 L 65.0,60.0 L 69.0,54.0 L 71.0,53.0" fill="#F9F9F9"/>
</svg>
