<?xml version="1.0" ?>
<svg baseProfile="full" height="600px" version="1.1" viewBox="-19.296000000000003 -19.296000000000003 230.592 230.592" width="600px" xmlns="http://www.w3.org/2000/svg" xmlns:ev="http://www.w3.org/2001/xml-events" xmlns:xlink="http://www.w3.org/1999/xlink">
	<defs/>
	<path d="M 0.0,0.0 L 192.0,0.0 L 192.0,192.0 L 0.0,192.0 L 0.0,0.0" fill="#FEFDFD"/>
	<path d="M 40.0,32.0 L 53.0,32.0 L 61.0,34.0 L 72.0,41.0 L 75.0,45.0 L 77.0,45.0 L 82.0,40.0 L 87.0,36.0 L 93.0,33.0 L 98.0,32.0 L 109.0,32.0 L 122.0,36.0 L 131.0,43.0 L 138.0,54.0 L 140.0,60.0 L 141.0,73.0 L 155.0,72.0 L 166.0,76.0 L 174.0,83.0 L 180.0,95.0 L 180.0,108.0 L 175.0,118.0 L 163.0,130.0 L 145.0,143.0 L 120.0,157.0 L 114.0,160.0 L 112.0,160.0 L 98.0,140.0 L 94.0,133.0 L 86.0,139.0 L 77.0,147.0 L 73.0,145.0 L 62.0,136.0 L 54.0,128.0 L 46.0,121.0 L 31.0,105.0 L 20.0,90.0 L 13.0,76.0 L 12.0,73.0 L 12.0,60.0 L 16.0,50.0 L 23.0,41.0 L 34.0,34.0 L 40.0,32.0" fill="#B81E1E"/>
	<path d="M 100.0,61.0 L 111.0,61.0 L 123.0,67.0 L 130.0,75.0 L 131.0,79.0 L 137.0,75.0 L 139.0,75.0 L 140.0,72.0 L 141.0,73.0 L 155.0,72.0 L 166.0,76.0 L 174.0,83.0 L 180.0,95.0 L 180.0,108.0 L 175.0,118.0 L 163.0,130.0 L 145.0,143.0 L 120.0,157.0 L 114.0,160.0 L 112.0,160.0 L 98.0,140.0 L 89.0,125.0 L 81.0,109.0 L 77.0,99.0 L 76.0,94.0 L 76.0,83.0 L 81.0,73.0 L 86.0,68.0 L 91.0,64.0 L 100.0,61.0" fill="#F24336"/>
</svg>
