<?xml version="1.0" ?>
<svg baseProfile="full" height="600px" version="1.1" viewBox="-12.06 -12.06 144.12 144.12" width="600px" xmlns="http://www.w3.org/2000/svg" xmlns:ev="http://www.w3.org/2001/xml-events" xmlns:xlink="http://www.w3.org/1999/xlink">
	<defs/>
	<path d="M 0.0,0.0 L 120.0,0.0 L 120.0,120.0 L 0.0,120.0 L 0.0,0.0" fill="#FCFCFC"/>
	<path d="M 34.0,20.0 L 45.0,20.0 L 55.0,25.0 L 59.0,29.0 L 63.0,27.0 L 68.0,23.0 L 74.0,20.0 L 85.0,20.0 L 95.0,25.0 L 101.0,32.0 L 104.0,39.0 L 104.0,48.0 L 101.0,58.0 L 106.0,60.0 L 111.0,66.0 L 112.0,69.0 L 112.0,78.0 L 108.0,86.0 L 101.0,92.0 L 92.0,96.0 L 81.0,99.0 L 74.0,100.0 L 57.0,100.0 L 46.0,91.0 L 34.0,80.0 L 23.0,66.0 L 17.0,53.0 L 16.0,49.0 L 16.0,39.0 L 21.0,29.0 L 29.0,22.0 L 34.0,20.0" fill="#040404"/>
	<path d="M 71.0,52.0 L 78.0,52.0 L 85.0,58.0 L 88.0,64.0 L 97.0,64.0 L 102.0,67.0 L 104.0,70.0 L 104.0,77.0 L 97.0,85.0 L 87.0,89.0 L 74.0,92.0 L 69.0,92.0 L 65.0,79.0 L 64.0,72.0 L 64.0,61.0 L 68.0,54.0 L 71.0,52.0" fill="#F9F9F9"/>
</svg>
