<?xml version="1.0" ?>
<svg baseProfile="full" height="600px" version="1.1" viewBox="-19.296000000000003 -19.296000000000003 230.592 230.592" width="600px" xmlns="http://www.w3.org/2000/svg" xmlns:ev="http://www.w3.org/2001/xml-events" xmlns:xlink="http://www.w3.org/1999/xlink">
	<defs/>
	<path d="M 0.0,0.0 L 192.0,0.0 L 192.0,192.0 L 0.0,192.0 L 0.0,0.0" fill="#FEFDFC"/>
	<path d="M 42.0,34.0 L 53.0,34.0 L 64.0,37.0 L 72.0,43.0 L 75.0,46.0 L 75.0,48.0 L 77.0,48.0 L 79.0,44.0 L 86.0,38.0 L 96.0,34.0 L 107.0,34.0 L 116.0,36.0 L 126.0,42.0 L 133.0,50.0 L 137.0,60.0 L 138.0,63.0 L 138.0,72.0 L 137.0,75.0 L 141.0,73.0 L 155.0,72.0 L 166.0,76.0 L 174.0,83.0 L 180.0,95.0 L 180.0,108.0 L 175.0,118.0 L 163.0,130.0 L 145.0,143.0 L 120.0,157.0 L 114.0,160.0 L 112.0,160.0 L 98.0,140.0 L 93.0,132.0 L 85.0,138.0 L 77.0,145.0 L 73.0,143.0 L 59.0,131.0 L 51.0,123.0 L 44.0,117.0 L 37.0,109.0 L 29.0,100.0 L 22.0,90.0 L 15.0,76.0 L 14.0,72.0 L 14.0,64.0 L 17.0,54.0 L 23.0,45.0 L 30.0,39.0 L 38.0,35.0 L 42.0,34.0" fill="#F24336"/>
	<path d="M 42.0,34.0 L 53.0,34.0 L 64.0,37.0 L 72.0,43.0 L 75.0,46.0 L 75.0,48.0 L 77.0,48.0 L 79.0,44.0 L 86.0,38.0 L 96.0,34.0 L 107.0,34.0 L 116.0,36.0 L 126.0,42.0 L 133.0,50.0 L 137.0,60.0 L 138.0,63.0 L 138.0,72.0 L 135.0,77.0 L 131.0,79.0 L 125.0,70.0 L 120.0,66.0 L 111.0,62.0 L 100.0,62.0 L 90.0,66.0 L 84.0,70.0 L 78.0,80.0 L 77.0,83.0 L 77.0,94.0 L 80.0,105.0 L 88.0,121.0 L 92.0,129.0 L 91.0,133.0 L 77.0,145.0 L 73.0,143.0 L 59.0,131.0 L 51.0,123.0 L 44.0,117.0 L 37.0,109.0 L 29.0,100.0 L 22.0,90.0 L 15.0,76.0 L 14.0,72.0 L 14.0,64.0 L 17.0,54.0 L 23.0,45.0 L 30.0,39.0 L 38.0,35.0 L 42.0,34.0" fill="#B81E1D"/>
</svg>
