<?xml version="1.0" ?>
<svg baseProfile="full" height="600px" version="1.1" viewBox="-12.06 -12.06 144.12 144.12" width="600px" xmlns="http://www.w3.org/2000/svg" xmlns:ev="http://www.w3.org/2001/xml-events" xmlns:xlink="http://www.w3.org/1999/xlink">
	<defs/>
	<path d="M 0.0,0.0 L 120.0,0.0 L 120.0,120.0 L 0.0,120.0 L 0.0,0.0" fill="#FCFCFC"/>
	<path d="M 34.0,19.0 L 44.0,19.0 L 53.0,23.0 L 59.0,28.0 L 59.0,30.0 L 61.0,30.0 L 63.0,26.0 L 72.0,20.0 L 75.0,19.0 L 85.0,19.0 L 94.0,23.0 L 99.0,27.0 L 104.0,36.0 L 104.0,52.0 L 103.0,58.0 L 109.0,63.0 L 112.0,69.0 L 112.0,78.0 L 108.0,86.0 L 101.0,92.0 L 92.0,96.0 L 81.0,99.0 L 74.0,100.0 L 64.0,100.0 L 58.0,101.0 L 52.0,97.0 L 37.0,84.0 L 28.0,74.0 L 19.0,60.0 L 16.0,52.0 L 16.0,36.0 L 22.0,26.0 L 29.0,21.0 L 34.0,19.0" fill="#030303"/>
	<path d="M 71.0,52.0 L 78.0,52.0 L 85.0,58.0 L 88.0,64.0 L 97.0,64.0 L 102.0,67.0 L 104.0,70.0 L 104.0,77.0 L 97.0,85.0 L 87.0,89.0 L 74.0,92.0 L 69.0,92.0 L 65.0,79.0 L 64.0,72.0 L 64.0,61.0 L 68.0,54.0 L 71.0,52.0" fill="#F9F9F9"/>
</svg>
