<?xml version="1.0" ?>
<svg baseProfile="full" height="600px" version="1.1" viewBox="-16.08 -16.08 192.16 192.16" width="600px" xmlns="http://www.w3.org/2000/svg" xmlns:ev="http://www.w3.org/2001/xml-events" xmlns:xlink="http://www.w3.org/1999/xlink">
	<defs/>
	<path d="M 0.0,0.0 L 160.0,0.0 L 160.0,160.0 L 0.0,160.0 L 0.0,0.0" fill="#FEFDFD"/>
	<path d="M 32.0,20.0 L 43.0,20.0 L 52.0,23.0 L 61.0,29.0 L 65.0,33.0 L 67.0,29.0 L 75.0,23.0 L 84.0,20.0 L 94.0,20.0 L 102.0,22.0 L 110.0,26.0 L 118.0,34.0 L 123.0,45.0 L 123.0,59.0 L 138.0,59.0 L 147.0,63.0 L 154.0,69.0 L 160.0,81.0 L 160.0,92.0 L 156.0,102.0 L 143.0,115.0 L 127.0,126.0 L 106.0,138.0 L 94.0,144.0 L 92.0,144.0 L 79.0,126.0 L 74.0,118.0 L 69.0,120.0 L 66.0,123.0 L 61.0,122.0 L 46.0,109.0 L 31.0,95.0 L 19.0,82.0 L 10.0,69.0 L 5.0,58.0 L 5.0,45.0 L 9.0,36.0 L 16.0,28.0 L 23.0,23.0 L 32.0,20.0" fill="#F56B6B"/>
	<path d="M 79.0,52.0 L 90.0,52.0 L 99.0,56.0 L 105.0,61.0 L 110.0,70.0 L 114.0,68.0 L 124.0,63.0 L 137.0,63.0 L 147.0,68.0 L 153.0,75.0 L 156.0,82.0 L 156.0,91.0 L 153.0,99.0 L 144.0,109.0 L 127.0,121.0 L 112.0,130.0 L 95.0,139.0 L 90.0,134.0 L 80.0,120.0 L 71.0,105.0 L 63.0,89.0 L 60.0,80.0 L 60.0,70.0 L 64.0,62.0 L 72.0,55.0 L 79.0,52.0" fill="#F5A0A0"/>
	<path d="M 32.0,20.0 L 43.0,20.0 L 52.0,23.0 L 61.0,29.0 L 65.0,33.0 L 67.0,29.0 L 75.0,23.0 L 84.0,20.0 L 94.0,20.0 L 102.0,22.0 L 110.0,26.0 L 118.0,34.0 L 123.0,45.0 L 123.0,59.0 L 138.0,59.0 L 147.0,63.0 L 154.0,69.0 L 160.0,81.0 L 160.0,92.0 L 156.0,102.0 L 143.0,115.0 L 127.0,126.0 L 106.0,138.0 L 94.0,144.0 L 92.0,144.0 L 79.0,126.0 L 74.0,118.0 L 69.0,120.0 L 66.0,123.0 L 61.0,122.0 L 46.0,109.0 L 31.0,95.0 L 19.0,82.0 L 10.0,69.0 L 5.0,58.0 L 5.0,45.0 L 9.0,36.0 L 16.0,28.0 L 23.0,23.0 L 32.0,20.0 M 33.0,24.0 L 24.0,27.0 L 16.0,33.0 L 11.0,40.0 L 9.0,46.0 L 9.0,59.0 L 15.0,70.0 L 26.0,84.0 L 50.0,108.0 L 61.0,117.0 L 65.0,119.0 L 71.0,114.0 L 69.0,108.0 L 61.0,93.0 L 57.0,79.0 L 57.0,69.0 L 62.0,59.0 L 69.0,53.0 L 75.0,50.0 L 80.0,49.0 L 91.0,49.0 L 101.0,53.0 L 106.0,57.0 L 111.0,65.0 L 116.0,63.0 L 119.0,58.0 L 119.0,45.0 L 114.0,35.0 L 106.0,28.0 L 96.0,24.0 L 85.0,24.0 L 76.0,27.0 L 67.0,35.0 L 65.0,38.0 L 63.0,38.0 L 56.0,30.0 L 50.0,26.0 L 44.0,24.0 L 33.0,24.0 M 79.0,52.0 L 69.0,57.0 L 62.0,65.0 L 60.0,70.0 L 60.0,80.0 L 66.0,96.0 L 76.0,114.0 L 87.0,130.0 L 94.0,139.0 L 110.0,131.0 L 124.0,123.0 L 137.0,114.0 L 147.0,106.0 L 153.0,99.0 L 156.0,91.0 L 156.0,82.0 L 151.0,72.0 L 144.0,66.0 L 137.0,63.0 L 124.0,63.0 L 114.0,68.0 L 110.0,70.0 L 104.0,60.0 L 96.0,54.0 L 90.0,52.0 L 79.0,52.0" fill="#CA4A4A"/>
</svg>
