<?xml version="1.0" ?>
<svg baseProfile="full" height="600px" version="1.1" viewBox="-16.08 -16.08 192.16 192.16" width="600px" xmlns="http://www.w3.org/2000/svg" xmlns:ev="http://www.w3.org/2001/xml-events" xmlns:xlink="http://www.w3.org/1999/xlink">
	<defs/>
	<path d="M 0.0,0.0 L 160.0,0.0 L 160.0,160.0 L 0.0,160.0 L 0.0,0.0" fill="#FEFDFD"/>
	<path d="M 29.0,17.0 L 43.0,17.0 L 54.0,21.0 L 63.0,29.0 L 67.0,27.0 L 74.0,21.0 L 80.0,18.0 L 85.0,17.0 L 98.0,17.0 L 109.0,21.0 L 117.0,27.0 L 123.0,34.0 L 127.0,44.0 L 127.0,55.0 L 125.0,62.0 L 135.0,62.0 L 144.0,66.0 L 150.0,71.0 L 155.0,80.0 L 155.0,95.0 L 152.0,101.0 L 143.0,111.0 L 128.0,122.0 L 107.0,134.0 L 94.0,140.0 L 86.0,130.0 L 78.0,118.0 L 73.0,120.0 L 65.0,127.0 L 61.0,125.0 L 50.0,116.0 L 37.0,104.0 L 19.0,86.0 L 9.0,73.0 L 2.0,59.0 L 1.0,56.0 L 1.0,44.0 L 5.0,34.0 L 14.0,24.0 L 23.0,19.0 L 29.0,17.0" fill="#F56B6B"/>
	<path d="M 81.0,56.0 L 94.0,56.0 L 102.0,61.0 L 108.0,68.0 L 109.0,73.0 L 116.0,69.0 L 121.0,66.0 L 136.0,66.0 L 144.0,71.0 L 150.0,78.0 L 152.0,83.0 L 152.0,93.0 L 147.0,102.0 L 137.0,111.0 L 119.0,123.0 L 97.0,135.0 L 93.0,133.0 L 83.0,119.0 L 71.0,99.0 L 66.0,88.0 L 64.0,80.0 L 64.0,72.0 L 70.0,62.0 L 78.0,57.0 L 81.0,56.0" fill="#F5A0A0"/>
	<path d="M 29.0,17.0 L 43.0,17.0 L 54.0,21.0 L 63.0,29.0 L 67.0,27.0 L 74.0,21.0 L 80.0,18.0 L 85.0,17.0 L 98.0,17.0 L 109.0,21.0 L 117.0,27.0 L 123.0,34.0 L 127.0,44.0 L 127.0,55.0 L 125.0,62.0 L 135.0,62.0 L 144.0,66.0 L 150.0,71.0 L 155.0,80.0 L 155.0,95.0 L 152.0,101.0 L 143.0,111.0 L 128.0,122.0 L 107.0,134.0 L 94.0,140.0 L 86.0,130.0 L 78.0,118.0 L 73.0,120.0 L 65.0,127.0 L 61.0,125.0 L 50.0,116.0 L 37.0,104.0 L 19.0,86.0 L 9.0,73.0 L 2.0,59.0 L 1.0,56.0 L 1.0,44.0 L 5.0,34.0 L 14.0,24.0 L 23.0,19.0 L 29.0,17.0 M 29.0,21.0 L 20.0,25.0 L 12.0,31.0 L 7.0,40.0 L 5.0,46.0 L 5.0,55.0 L 10.0,67.0 L 19.0,79.0 L 28.0,89.0 L 37.0,99.0 L 39.0,99.0 L 39.0,101.0 L 47.0,108.0 L 58.0,118.0 L 63.0,122.0 L 67.0,120.0 L 75.0,113.0 L 67.0,97.0 L 61.0,81.0 L 61.0,72.0 L 66.0,62.0 L 74.0,56.0 L 82.0,53.0 L 93.0,53.0 L 102.0,57.0 L 107.0,62.0 L 111.0,68.0 L 120.0,63.0 L 123.0,56.0 L 123.0,45.0 L 119.0,36.0 L 112.0,28.0 L 104.0,23.0 L 99.0,21.0 L 86.0,21.0 L 77.0,24.0 L 69.0,30.0 L 65.0,36.0 L 63.0,36.0 L 56.0,28.0 L 49.0,23.0 L 43.0,21.0 L 29.0,21.0 M 81.0,56.0 L 71.0,61.0 L 65.0,70.0 L 64.0,72.0 L 64.0,80.0 L 67.0,90.0 L 75.0,106.0 L 85.0,122.0 L 94.0,134.0 L 97.0,135.0 L 116.0,125.0 L 134.0,113.0 L 145.0,104.0 L 151.0,96.0 L 152.0,93.0 L 152.0,83.0 L 148.0,75.0 L 140.0,68.0 L 136.0,66.0 L 121.0,66.0 L 112.0,72.0 L 109.0,73.0 L 107.0,67.0 L 100.0,59.0 L 94.0,56.0 L 81.0,56.0" fill="#CA4A4A"/>
</svg>
