<?xml version="1.0" ?>
<svg baseProfile="full" height="600px" version="1.1" viewBox="-20.1 -20.1 240.2 240.2" width="600px" xmlns="http://www.w3.org/2000/svg" xmlns:ev="http://www.w3.org/2001/xml-events" xmlns:xlink="http://www.w3.org/1999/xlink">
	<defs/>
	<path d="M 0.0,0.0 L 200.0,0.0 L 200.0,200.0 L 0.0,200.0 L 0.0,0.0" fill="#060606"/>
	<path d="M 0.0,0.0 L 200.0,0.0 L 200.0,200.0 L 0.0,200.0 L 0.0,0.0 M 65.0,4.0 L 55.0,9.0 L 50.0,14.0 L 50.0,16.0 L 41.0,12.0 L 30.0,12.0 L 22.0,16.0 L 17.0,21.0 L 13.0,27.0 L 12.0,30.0 L 12.0,41.0 L 16.0,50.0 L 19.0,54.0 L 20.0,175.0 L 24.0,186.0 L 32.0,193.0 L 40.0,196.0 L 127.0,196.0 L 137.0,192.0 L 144.0,186.0 L 148.0,176.0 L 148.0,152.0 L 157.0,151.0 L 167.0,146.0 L 175.0,138.0 L 181.0,128.0 L 186.0,114.0 L 188.0,104.0 L 188.0,86.0 L 183.0,76.0 L 175.0,70.0 L 169.0,68.0 L 155.0,68.0 L 148.0,70.0 L 149.0,57.0 L 154.0,52.0 L 158.0,47.0 L 160.0,41.0 L 160.0,30.0 L 156.0,22.0 L 151.0,17.0 L 147.0,14.0 L 141.0,12.0 L 130.0,12.0 L 122.0,16.0 L 118.0,16.0 L 109.0,12.0 L 98.0,12.0 L 93.0,13.0 L 87.0,8.0 L 77.0,4.0 L 65.0,4.0" fill="#FDFDFD"/>
	<path d="M 28.0,92.0 L 89.0,92.0 L 86.0,106.0 L 85.0,111.0 L 85.0,125.0 L 88.0,133.0 L 94.0,140.0 L 98.0,142.0 L 109.0,142.0 L 115.0,139.0 L 121.0,132.0 L 123.0,126.0 L 123.0,116.0 L 121.0,103.0 L 119.0,92.0 L 140.0,92.0 L 140.0,175.0 L 137.0,182.0 L 132.0,186.0 L 125.0,188.0 L 41.0,188.0 L 34.0,185.0 L 30.0,181.0 L 28.0,176.0 L 28.0,92.0" fill="#FCFCFC"/>
	<path d="M 67.0,12.0 L 77.0,12.0 L 87.0,18.0 L 91.0,23.0 L 95.0,22.0 L 99.0,20.0 L 108.0,20.0 L 116.0,25.0 L 118.0,27.0 L 123.0,26.0 L 129.0,21.0 L 133.0,20.0 L 140.0,20.0 L 146.0,23.0 L 151.0,29.0 L 152.0,31.0 L 152.0,41.0 L 148.0,47.0 L 143.0,51.0 L 141.0,52.0 L 132.0,52.0 L 125.0,48.0 L 122.0,45.0 L 117.0,46.0 L 112.0,50.0 L 107.0,52.0 L 99.0,52.0 L 91.0,46.0 L 86.0,45.0 L 81.0,50.0 L 77.0,52.0 L 67.0,52.0 L 61.0,49.0 L 54.0,43.0 L 50.0,44.0 L 45.0,50.0 L 41.0,52.0 L 31.0,52.0 L 25.0,48.0 L 21.0,43.0 L 20.0,40.0 L 20.0,31.0 L 24.0,25.0 L 29.0,21.0 L 31.0,20.0 L 40.0,20.0 L 48.0,25.0 L 54.0,25.0 L 56.0,19.0 L 64.0,13.0 L 67.0,12.0" fill="#FAFAFA"/>
	<path d="M 52.0,53.0 L 57.0,55.0 L 62.0,58.0 L 67.0,59.0 L 77.0,59.0 L 87.0,55.0 L 92.0,56.0 L 98.0,59.0 L 110.0,59.0 L 118.0,55.0 L 122.0,55.0 L 130.0,59.0 L 140.0,60.0 L 140.0,84.0 L 116.0,84.0 L 108.0,64.0 L 106.0,62.0 L 101.0,62.0 L 98.0,71.0 L 92.0,84.0 L 28.0,84.0 L 28.0,59.0 L 41.0,59.0 L 50.0,55.0 L 52.0,53.0" fill="#FCFCFC"/>
	<path d="M 156.0,76.0 L 168.0,76.0 L 176.0,80.0 L 180.0,87.0 L 180.0,103.0 L 176.0,118.0 L 169.0,132.0 L 160.0,141.0 L 153.0,144.0 L 148.0,144.0 L 148.0,79.0 L 156.0,76.0" fill="#FBFBFB"/>
	<path d="M 103.0,77.0 L 105.0,77.0 L 111.0,93.0 L 116.0,113.0 L 116.0,125.0 L 112.0,132.0 L 107.0,135.0 L 100.0,135.0 L 95.0,131.0 L 92.0,124.0 L 93.0,107.0 L 98.0,89.0 L 103.0,77.0" fill="#F8F8F8"/>
</svg>
