<?xml version="1.0" ?>
<svg baseProfile="full" height="600px" version="1.1" viewBox="-12.864 -12.864 153.728 153.728" width="600px" xmlns="http://www.w3.org/2000/svg" xmlns:ev="http://www.w3.org/2001/xml-events" xmlns:xlink="http://www.w3.org/1999/xlink">
	<defs/>
	<path d="M 0.0,0.0 L 128.0,0.0 L 128.0,128.0 L 0.0,128.0 L 0.0,0.0" fill="#FCFCFC"/>
	<path d="M 61.0,12.0 L 67.0,12.0 L 72.0,17.0 L 72.0,21.0 L 78.0,22.0 L 87.0,28.0 L 94.0,37.0 L 98.0,48.0 L 100.0,88.0 L 101.0,89.0 L 108.0,90.0 L 108.0,98.0 L 97.0,99.0 L 74.0,99.0 L 75.0,107.0 L 71.0,113.0 L 66.0,116.0 L 59.0,116.0 L 53.0,112.0 L 51.0,108.0 L 51.0,101.0 L 42.0,102.0 L 28.0,102.0 L 28.0,94.0 L 34.0,92.0 L 34.0,43.0 L 39.0,33.0 L 47.0,25.0 L 53.0,22.0 L 56.0,22.0 L 57.0,15.0 L 61.0,12.0" fill="#FBFBFB"/>
	<path d="M 61.0,12.0 L 67.0,12.0 L 72.0,17.0 L 72.0,21.0 L 78.0,22.0 L 87.0,28.0 L 94.0,37.0 L 98.0,48.0 L 100.0,88.0 L 101.0,89.0 L 108.0,90.0 L 108.0,98.0 L 97.0,99.0 L 74.0,99.0 L 75.0,107.0 L 71.0,113.0 L 66.0,116.0 L 59.0,116.0 L 53.0,112.0 L 51.0,108.0 L 51.0,101.0 L 42.0,102.0 L 28.0,102.0 L 28.0,94.0 L 34.0,92.0 L 34.0,43.0 L 39.0,33.0 L 47.0,25.0 L 53.0,22.0 L 56.0,22.0 L 57.0,15.0 L 61.0,12.0 M 61.0,28.0 L 53.0,31.0 L 46.0,37.0 L 42.0,45.0 L 42.0,68.0 L 43.0,93.0 L 71.0,92.0 L 92.0,91.0 L 90.0,49.0 L 86.0,40.0 L 79.0,32.0 L 70.0,28.0 L 61.0,28.0" fill="#080808"/>
	<path d="M 61.0,100.0 L 66.0,101.0 L 67.0,106.0 L 65.0,108.0 L 60.0,107.0 L 59.0,102.0 L 61.0,100.0" fill="#E4E4E4"/>
</svg>
