<?xml version="1.0" ?>
<svg baseProfile="full" height="600px" version="1.1" viewBox="-12.06 -12.06 144.12 144.12" width="600px" xmlns="http://www.w3.org/2000/svg" xmlns:ev="http://www.w3.org/2001/xml-events" xmlns:xlink="http://www.w3.org/1999/xlink">
	<defs/>
	<path d="M 0.0,0.0 L 120.0,0.0 L 120.0,120.0 L 0.0,120.0 L 0.0,0.0" fill="#FCFCFC"/>
	<path d="M 57.0,12.0 L 63.0,12.0 L 68.0,17.0 L 68.0,21.0 L 75.0,22.0 L 84.0,28.0 L 90.0,35.0 L 94.0,44.0 L 96.0,65.0 L 99.0,74.0 L 99.0,78.0 L 53.0,81.0 L 44.0,82.0 L 29.0,82.0 L 30.0,74.0 L 30.0,46.0 L 34.0,36.0 L 40.0,28.0 L 49.0,22.0 L 52.0,22.0 L 53.0,15.0 L 57.0,12.0" fill="#030303"/>
	<path d="M 102.0,85.0 L 107.0,85.0 L 109.0,87.0 L 108.0,92.0 L 107.0,93.0 L 69.0,96.0 L 69.0,103.0 L 65.0,109.0 L 60.0,112.0 L 53.0,112.0 L 47.0,108.0 L 45.0,104.0 L 45.0,97.0 L 40.0,98.0 L 22.0,98.0 L 21.0,92.0 L 24.0,90.0 L 52.0,88.0 L 102.0,85.0" fill="#070707"/>
</svg>
