<?xml version="1.0" ?>
<svg baseProfile="full" height="600px" version="1.1" viewBox="-12.06 -12.06 144.12 144.12" width="600px" xmlns="http://www.w3.org/2000/svg" xmlns:ev="http://www.w3.org/2001/xml-events" xmlns:xlink="http://www.w3.org/1999/xlink">
	<defs/>
	<path d="M 0.0,0.0 L 120.0,0.0 L 120.0,120.0 L 0.0,120.0 L 0.0,0.0" fill="#FCFCFC"/>
	<path d="M 57.0,12.0 L 63.0,12.0 L 68.0,17.0 L 68.0,19.0 L 78.0,21.0 L 86.0,25.0 L 93.0,32.0 L 98.0,42.0 L 102.0,59.0 L 107.0,71.0 L 102.0,73.0 L 79.0,78.0 L 58.0,82.0 L 41.0,86.0 L 38.0,86.0 L 37.0,67.0 L 35.0,59.0 L 35.0,43.0 L 41.0,31.0 L 49.0,24.0 L 51.0,23.0 L 53.0,15.0 L 57.0,12.0" fill="#030303"/>
	<path d="M 110.0,78.0 L 116.0,78.0 L 118.0,80.0 L 117.0,85.0 L 113.0,87.0 L 71.0,96.0 L 68.0,96.0 L 68.0,105.0 L 64.0,110.0 L 60.0,112.0 L 53.0,112.0 L 47.0,108.0 L 45.0,104.0 L 45.0,101.0 L 38.0,103.0 L 33.0,102.0 L 32.0,101.0 L 32.0,96.0 L 41.0,93.0 L 79.0,85.0 L 110.0,78.0" fill="#080808"/>
</svg>
