<?xml version="1.0" ?>
<svg baseProfile="full" height="600px" version="1.1" viewBox="-12.06 -12.06 144.12 144.12" width="600px" xmlns="http://www.w3.org/2000/svg" xmlns:ev="http://www.w3.org/2001/xml-events" xmlns:xlink="http://www.w3.org/1999/xlink">
	<defs/>
	<path d="M 0.0,0.0 L 120.0,0.0 L 120.0,120.0 L 0.0,120.0 L 0.0,0.0" fill="#FCFCFC"/>
	<path d="M 57.0,12.0 L 63.0,12.0 L 68.0,17.0 L 69.0,21.0 L 79.0,26.0 L 84.0,31.0 L 88.0,36.0 L 92.0,46.0 L 93.0,70.0 L 95.0,80.0 L 24.0,80.0 L 27.0,67.0 L 28.0,44.0 L 34.0,32.0 L 43.0,24.0 L 51.0,21.0 L 54.0,14.0 L 57.0,12.0" fill="#020202"/>
	<path d="M 17.0,88.0 L 101.0,88.0 L 103.0,90.0 L 103.0,95.0 L 102.0,96.0 L 84.0,96.0 L 83.0,105.0 L 78.0,110.0 L 75.0,111.0 L 68.0,111.0 L 61.0,105.0 L 60.0,96.0 L 18.0,96.0 L 16.0,94.0 L 16.0,89.0 L 17.0,88.0" fill="#040404"/>
</svg>
