<?xml version="1.0" ?>
<svg baseProfile="full" height="600px" version="1.1" viewBox="-16.08 -16.08 192.16 192.16" width="600px" xmlns="http://www.w3.org/2000/svg" xmlns:ev="http://www.w3.org/2001/xml-events" xmlns:xlink="http://www.w3.org/1999/xlink">
	<defs/>
	<path d="M 0.0,0.0 L 160.0,0.0 L 160.0,160.0 L 0.0,160.0 L 0.0,0.0" fill="#FDFDFC"/>
	<path d="M 76.0,4.0 L 83.0,4.0 L 88.0,7.0 L 92.0,12.0 L 92.0,18.0 L 97.0,19.0 L 107.0,25.0 L 115.0,33.0 L 120.0,41.0 L 123.0,51.0 L 124.0,111.0 L 127.0,118.0 L 132.0,122.0 L 139.0,124.0 L 139.0,140.0 L 109.0,140.0 L 108.0,146.0 L 104.0,152.0 L 98.0,155.0 L 88.0,155.0 L 83.0,152.0 L 78.0,146.0 L 77.0,140.0 L 19.0,140.0 L 19.0,123.0 L 28.0,120.0 L 33.0,115.0 L 34.0,111.0 L 35.0,55.0 L 39.0,42.0 L 45.0,32.0 L 52.0,25.0 L 64.0,18.0 L 68.0,18.0 L 68.0,12.0 L 71.0,7.0 L 76.0,4.0" fill="#FDECA0"/>
	<path d="M 76.0,4.0 L 83.0,4.0 L 88.0,7.0 L 92.0,12.0 L 92.0,18.0 L 97.0,19.0 L 107.0,25.0 L 115.0,33.0 L 120.0,41.0 L 123.0,51.0 L 124.0,111.0 L 127.0,118.0 L 132.0,122.0 L 139.0,124.0 L 139.0,140.0 L 109.0,140.0 L 108.0,146.0 L 104.0,152.0 L 98.0,155.0 L 88.0,155.0 L 83.0,152.0 L 78.0,146.0 L 77.0,140.0 L 19.0,140.0 L 19.0,123.0 L 28.0,120.0 L 33.0,115.0 L 34.0,111.0 L 35.0,55.0 L 39.0,42.0 L 45.0,32.0 L 52.0,25.0 L 64.0,18.0 L 68.0,18.0 L 68.0,12.0 L 71.0,7.0 L 76.0,4.0 M 77.0,8.0 L 72.0,13.0 L 72.0,21.0 L 63.0,23.0 L 54.0,29.0 L 47.0,36.0 L 41.0,48.0 L 39.0,56.0 L 38.0,113.0 L 34.0,121.0 L 28.0,125.0 L 23.0,127.0 L 23.0,136.0 L 135.0,136.0 L 135.0,128.0 L 127.0,124.0 L 122.0,118.0 L 120.0,112.0 L 119.0,52.0 L 116.0,42.0 L 109.0,33.0 L 100.0,25.0 L 91.0,21.0 L 88.0,21.0 L 88.0,13.0 L 84.0,9.0 L 77.0,8.0" fill="#BEA151"/>
	<path d="M 81.0,140.0 L 105.0,140.0 L 103.0,147.0 L 98.0,151.0 L 89.0,151.0 L 84.0,148.0 L 81.0,143.0 L 81.0,140.0" fill="#E5D078"/>
</svg>
