<?xml version="1.0" ?>
<svg baseProfile="full" height="600px" version="1.1" viewBox="-12.06 -12.06 144.12 144.12" width="600px" xmlns="http://www.w3.org/2000/svg" xmlns:ev="http://www.w3.org/2001/xml-events" xmlns:xlink="http://www.w3.org/1999/xlink">
	<defs/>
	<path d="M 0.0,0.0 L 120.0,0.0 L 120.0,120.0 L 0.0,120.0 L 0.0,0.0" fill="#FDFDFD"/>
	<path d="M 57.0,12.0 L 63.0,12.0 L 68.0,17.0 L 69.0,21.0 L 81.0,27.0 L 87.0,34.0 L 91.0,42.0 L 92.0,45.0 L 93.0,68.0 L 95.0,76.0 L 96.0,80.0 L 24.0,80.0 L 26.0,74.0 L 27.0,67.0 L 28.0,45.0 L 32.0,36.0 L 38.0,28.0 L 47.0,22.0 L 52.0,21.0 L 53.0,15.0 L 57.0,12.0" fill="#020202"/>
	<path d="M 18.0,88.0 L 102.0,88.0 L 104.0,90.0 L 103.0,95.0 L 102.0,96.0 L 72.0,96.0 L 72.0,103.0 L 69.0,109.0 L 63.0,112.0 L 56.0,112.0 L 51.0,109.0 L 48.0,103.0 L 48.0,96.0 L 18.0,96.0 L 16.0,94.0 L 17.0,89.0 L 18.0,88.0" fill="#020202"/>
</svg>
