<?xml version="1.0" ?>
<svg baseProfile="full" height="600px" version="1.1" viewBox="-9.648000000000001 -9.648000000000001 115.296 115.296" width="600px" xmlns="http://www.w3.org/2000/svg" xmlns:ev="http://www.w3.org/2001/xml-events" xmlns:xlink="http://www.w3.org/1999/xlink">
	<defs/>
	<path d="M 0.0,0.0 L 96.0,0.0 L 96.0,96.0 L 0.0,96.0 L 0.0,0.0" fill="#FCFCFC"/>
	<path d="M 45.0,8.0 L 52.0,9.0 L 54.0,11.0 L 54.0,17.0 L 60.0,18.0 L 67.0,23.0 L 72.0,31.0 L 73.0,34.0 L 75.0,59.0 L 77.0,66.0 L 83.0,66.0 L 83.0,74.0 L 58.0,76.0 L 56.0,76.0 L 57.0,83.0 L 52.0,88.0 L 45.0,88.0 L 41.0,84.0 L 41.0,77.0 L 19.0,77.0 L 19.0,69.0 L 24.0,69.0 L 25.0,62.0 L 25.0,34.0 L 29.0,26.0 L 36.0,19.0 L 42.0,17.0 L 42.0,11.0 L 45.0,8.0" fill="#030303"/>
</svg>
