<?xml version="1.0" ?>
<svg baseProfile="full" height="600px" version="1.1" viewBox="-12.06 -12.06 144.12 144.12" width="600px" xmlns="http://www.w3.org/2000/svg" xmlns:ev="http://www.w3.org/2001/xml-events" xmlns:xlink="http://www.w3.org/1999/xlink">
	<defs/>
	<path d="M 0.0,0.0 L 120.0,0.0 L 120.0,120.0 L 0.0,120.0 L 0.0,0.0" fill="#FCFCFC"/>
	<path d="M 57.0,12.0 L 63.0,12.0 L 68.0,17.0 L 69.0,22.0 L 78.0,28.0 L 84.0,35.0 L 88.0,45.0 L 88.0,60.0 L 87.0,65.0 L 87.0,78.0 L 88.0,84.0 L 74.0,83.0 L 53.0,80.0 L 26.0,77.0 L 17.0,75.0 L 22.0,60.0 L 24.0,45.0 L 28.0,35.0 L 36.0,26.0 L 48.0,20.0 L 52.0,20.0 L 53.0,15.0 L 57.0,12.0" fill="#030303"/>
	<path d="M 9.0,83.0 L 21.0,83.0 L 92.0,92.0 L 95.0,95.0 L 94.0,99.0 L 93.0,100.0 L 84.0,100.0 L 72.0,98.0 L 71.0,106.0 L 66.0,111.0 L 63.0,112.0 L 56.0,112.0 L 51.0,109.0 L 48.0,103.0 L 48.0,95.0 L 28.0,93.0 L 10.0,91.0 L 7.0,88.0 L 8.0,84.0 L 9.0,83.0" fill="#070707"/>
</svg>
