<?xml version="1.0" ?>
<svg baseProfile="full" height="600px" version="1.1" viewBox="-16.08 -16.08 192.16 192.16" width="600px" xmlns="http://www.w3.org/2000/svg" xmlns:ev="http://www.w3.org/2001/xml-events" xmlns:xlink="http://www.w3.org/1999/xlink">
	<defs/>
	<path d="M 0.0,0.0 L 160.0,0.0 L 160.0,160.0 L 0.0,160.0 L 0.0,0.0" fill="#FDFDFC"/>
	<path d="M 75.0,4.0 L 83.0,4.0 L 89.0,8.0 L 91.0,11.0 L 91.0,19.0 L 96.0,20.0 L 105.0,26.0 L 112.0,33.0 L 119.0,46.0 L 120.0,50.0 L 120.0,74.0 L 118.0,104.0 L 118.0,115.0 L 122.0,123.0 L 127.0,126.0 L 132.0,127.0 L 132.0,140.0 L 131.0,143.0 L 114.0,144.0 L 111.0,149.0 L 105.0,154.0 L 103.0,155.0 L 96.0,155.0 L 89.0,152.0 L 84.0,146.0 L 83.0,140.0 L 71.0,140.0 L 50.0,139.0 L 41.0,138.0 L 20.0,137.0 L 11.0,136.0 L 12.0,120.0 L 21.0,117.0 L 26.0,113.0 L 29.0,105.0 L 32.0,54.0 L 36.0,41.0 L 42.0,32.0 L 50.0,24.0 L 64.0,17.0 L 67.0,17.0 L 68.0,11.0 L 73.0,5.0 L 75.0,4.0" fill="#FDECA1"/>
	<path d="M 75.0,4.0 L 83.0,4.0 L 89.0,8.0 L 91.0,11.0 L 91.0,19.0 L 96.0,20.0 L 105.0,26.0 L 112.0,33.0 L 119.0,46.0 L 120.0,50.0 L 120.0,74.0 L 118.0,104.0 L 118.0,115.0 L 122.0,123.0 L 127.0,126.0 L 132.0,127.0 L 132.0,140.0 L 131.0,143.0 L 114.0,144.0 L 111.0,149.0 L 105.0,154.0 L 103.0,155.0 L 96.0,155.0 L 89.0,152.0 L 84.0,146.0 L 83.0,140.0 L 71.0,140.0 L 50.0,139.0 L 41.0,138.0 L 20.0,137.0 L 11.0,136.0 L 12.0,120.0 L 21.0,117.0 L 26.0,113.0 L 29.0,105.0 L 32.0,54.0 L 36.0,41.0 L 42.0,32.0 L 50.0,24.0 L 64.0,17.0 L 67.0,17.0 L 68.0,11.0 L 73.0,5.0 L 75.0,4.0 M 77.0,8.0 L 72.0,12.0 L 71.0,14.0 L 71.0,20.0 L 62.0,22.0 L 52.0,28.0 L 46.0,33.0 L 41.0,40.0 L 37.0,50.0 L 36.0,55.0 L 33.0,106.0 L 29.0,116.0 L 21.0,122.0 L 16.0,124.0 L 16.0,132.0 L 38.0,134.0 L 113.0,139.0 L 127.0,139.0 L 127.0,131.0 L 119.0,125.0 L 115.0,119.0 L 114.0,116.0 L 114.0,103.0 L 116.0,73.0 L 116.0,52.0 L 112.0,41.0 L 106.0,33.0 L 97.0,25.0 L 90.0,22.0 L 87.0,22.0 L 87.0,13.0 L 82.0,8.0 L 77.0,8.0" fill="#BEA150"/>
	<path d="M 87.0,141.0 L 101.0,141.0 L 110.0,142.0 L 108.0,147.0 L 102.0,151.0 L 94.0,150.0 L 88.0,145.0 L 87.0,141.0" fill="#E4CF76"/>
</svg>
