<?xml version="1.0" ?>
<svg baseProfile="full" height="600px" version="1.1" viewBox="-9.648000000000001 -9.648000000000001 115.296 115.296" width="600px" xmlns="http://www.w3.org/2000/svg" xmlns:ev="http://www.w3.org/2001/xml-events" xmlns:xlink="http://www.w3.org/1999/xlink">
	<defs/>
	<path d="M 0.0,0.0 L 96.0,0.0 L 96.0,96.0 L 0.0,96.0 L 0.0,0.0" fill="#FCFCFC"/>
	<path d="M 45.0,8.0 L 52.0,9.0 L 54.0,11.0 L 54.0,16.0 L 62.0,17.0 L 68.0,21.0 L 74.0,28.0 L 78.0,41.0 L 81.0,54.0 L 84.0,59.0 L 84.0,61.0 L 90.0,60.0 L 91.0,62.0 L 91.0,68.0 L 62.0,75.0 L 57.0,75.0 L 57.0,83.0 L 52.0,88.0 L 45.0,87.0 L 41.0,82.0 L 41.0,79.0 L 35.0,81.0 L 29.0,81.0 L 28.0,80.0 L 28.0,73.0 L 32.0,72.0 L 32.0,61.0 L 28.0,43.0 L 28.0,35.0 L 34.0,23.0 L 41.0,18.0 L 42.0,11.0 L 45.0,8.0" fill="#030303"/>
</svg>
