<?xml version="1.0" ?>
<svg baseProfile="full" height="600px" version="1.1" viewBox="-19.296000000000003 -19.296000000000003 230.592 230.592" width="600px" xmlns="http://www.w3.org/2000/svg" xmlns:ev="http://www.w3.org/2001/xml-events" xmlns:xlink="http://www.w3.org/1999/xlink">
	<defs/>
	<path d="M 0.0,0.0 L 192.0,0.0 L 192.0,192.0 L 0.0,192.0 L 0.0,0.0" fill="#FEFEFC"/>
	<path d="M 93.0,20.0 L 99.0,20.0 L 104.0,25.0 L 104.0,33.0 L 110.0,34.0 L 119.0,40.0 L 126.0,48.0 L 131.0,60.0 L 132.0,89.0 L 136.0,97.0 L 145.0,109.0 L 154.0,120.0 L 160.0,129.0 L 161.0,136.0 L 157.0,140.0 L 147.0,144.0 L 131.0,147.0 L 124.0,148.0 L 98.0,148.0 L 97.0,157.0 L 92.0,164.0 L 85.0,167.0 L 76.0,167.0 L 70.0,163.0 L 66.0,157.0 L 65.0,148.0 L 66.0,146.0 L 53.0,145.0 L 38.0,141.0 L 28.0,136.0 L 25.0,132.0 L 26.0,126.0 L 34.0,116.0 L 47.0,102.0 L 56.0,89.0 L 58.0,82.0 L 59.0,61.0 L 62.0,51.0 L 68.0,43.0 L 76.0,36.0 L 86.0,32.0 L 88.0,32.0 L 88.0,25.0 L 93.0,20.0" fill="#FEC008"/>
	<path d="M 29.0,123.0 L 36.0,125.0 L 56.0,131.0 L 78.0,135.0 L 121.0,135.0 L 144.0,130.0 L 156.0,126.0 L 159.0,127.0 L 161.0,131.0 L 160.0,138.0 L 150.0,143.0 L 138.0,146.0 L 124.0,148.0 L 98.0,148.0 L 97.0,157.0 L 92.0,164.0 L 85.0,167.0 L 76.0,167.0 L 70.0,163.0 L 66.0,157.0 L 65.0,148.0 L 66.0,146.0 L 53.0,145.0 L 38.0,141.0 L 28.0,136.0 L 25.0,132.0 L 26.0,126.0 L 29.0,123.0" fill="#FDC00B"/>
	<path d="M 35.0,115.0 L 36.0,117.0 L 47.0,120.0 L 64.0,124.0 L 81.0,127.0 L 118.0,127.0 L 143.0,122.0 L 153.0,119.0 L 158.0,126.0 L 141.0,132.0 L 121.0,136.0 L 78.0,136.0 L 56.0,132.0 L 36.0,126.0 L 29.0,123.0 L 33.0,117.0 L 35.0,115.0" fill="#FEDE7C"/>
	<path d="M 66.0,146.0 L 97.0,148.0 L 97.0,157.0 L 92.0,164.0 L 85.0,167.0 L 76.0,167.0 L 70.0,163.0 L 66.0,157.0 L 65.0,148.0 L 66.0,146.0" fill="#BF720B"/>
	<path d="M 66.0,156.0 L 79.0,158.0 L 96.0,158.0 L 92.0,164.0 L 85.0,167.0 L 76.0,167.0 L 70.0,163.0 L 66.0,157.0 L 66.0,156.0" fill="#DB880F"/>
	<path d="M 93.0,20.0 L 99.0,20.0 L 104.0,25.0 L 104.0,32.0 L 88.0,31.0 L 88.0,25.0 L 93.0,20.0" fill="#DB8810"/>
</svg>
