<?xml version="1.0" ?>
<svg baseProfile="full" height="600px" version="1.1" viewBox="-12.864 -12.864 153.728 153.728" width="600px" xmlns="http://www.w3.org/2000/svg" xmlns:ev="http://www.w3.org/2001/xml-events" xmlns:xlink="http://www.w3.org/1999/xlink">
	<defs/>
	<path d="M 0.0,0.0 L 128.0,0.0 L 128.0,128.0 L 0.0,128.0 L 0.0,0.0" fill="#FCFCFC"/>
	<path d="M 61.0,12.0 L 67.0,12.0 L 72.0,17.0 L 72.0,23.0 L 77.0,25.0 L 84.0,31.0 L 89.0,40.0 L 91.0,46.0 L 91.0,58.0 L 86.0,83.0 L 85.0,97.0 L 91.0,98.0 L 90.0,106.0 L 82.0,105.0 L 76.0,104.0 L 74.0,111.0 L 68.0,116.0 L 60.0,116.0 L 54.0,112.0 L 52.0,108.0 L 52.0,99.0 L 31.0,96.0 L 11.0,92.0 L 12.0,84.0 L 20.0,84.0 L 25.0,55.0 L 29.0,39.0 L 34.0,31.0 L 43.0,23.0 L 52.0,20.0 L 56.0,20.0 L 57.0,15.0 L 61.0,12.0" fill="#FAFAFA"/>
	<path d="M 61.0,12.0 L 67.0,12.0 L 72.0,17.0 L 72.0,23.0 L 77.0,25.0 L 84.0,31.0 L 89.0,40.0 L 91.0,46.0 L 91.0,58.0 L 86.0,83.0 L 85.0,97.0 L 91.0,98.0 L 90.0,106.0 L 82.0,105.0 L 76.0,104.0 L 74.0,111.0 L 68.0,116.0 L 60.0,116.0 L 54.0,112.0 L 52.0,108.0 L 52.0,99.0 L 31.0,96.0 L 11.0,92.0 L 12.0,84.0 L 20.0,84.0 L 25.0,55.0 L 29.0,39.0 L 34.0,31.0 L 43.0,23.0 L 52.0,20.0 L 56.0,20.0 L 57.0,15.0 L 61.0,12.0 M 52.0,28.0 L 46.0,31.0 L 40.0,36.0 L 35.0,46.0 L 28.0,85.0 L 28.0,87.0 L 72.0,95.0 L 76.0,95.0 L 82.0,60.0 L 83.0,57.0 L 83.0,47.0 L 78.0,37.0 L 73.0,32.0 L 66.0,28.0 L 52.0,28.0" fill="#080808"/>
	<path d="M 61.0,101.0 L 67.0,102.0 L 67.0,107.0 L 62.0,108.0 L 60.0,106.0 L 61.0,101.0" fill="#F1F1F1"/>
</svg>
