<?xml version="1.0" ?>
<svg baseProfile="full" height="600px" version="1.1" viewBox="-19.296000000000003 -19.296000000000003 230.592 230.592" width="600px" xmlns="http://www.w3.org/2000/svg" xmlns:ev="http://www.w3.org/2001/xml-events" xmlns:xlink="http://www.w3.org/1999/xlink">
	<defs/>
	<path d="M 0.0,0.0 L 192.0,0.0 L 192.0,192.0 L 0.0,192.0 L 0.0,0.0" fill="#FEFDFD"/>
	<path d="M 52.0,12.0 L 61.0,12.0 L 69.0,14.0 L 78.0,19.0 L 86.0,27.0 L 91.0,37.0 L 92.0,42.0 L 92.0,52.0 L 90.0,61.0 L 86.0,69.0 L 77.0,78.0 L 67.0,83.0 L 65.0,83.0 L 66.0,86.0 L 66.0,100.0 L 117.0,100.0 L 175.0,110.0 L 180.0,113.0 L 184.0,118.0 L 184.0,174.0 L 179.0,179.0 L 177.0,180.0 L 170.0,180.0 L 165.0,175.0 L 164.0,173.0 L 164.0,132.0 L 149.0,133.0 L 152.0,137.0 L 152.0,148.0 L 144.0,148.0 L 144.0,172.0 L 148.0,172.0 L 148.0,180.0 L 124.0,180.0 L 124.0,172.0 L 128.0,172.0 L 128.0,148.0 L 32.0,148.0 L 32.0,172.0 L 36.0,172.0 L 36.0,180.0 L 12.0,180.0 L 12.0,172.0 L 16.0,172.0 L 16.0,148.0 L 8.0,148.0 L 8.0,137.0 L 13.0,132.0 L 19.0,131.0 L 13.0,127.0 L 8.0,119.0 L 8.0,109.0 L 13.0,101.0 L 21.0,96.0 L 31.0,96.0 L 39.0,101.0 L 44.0,109.0 L 44.0,118.0 L 40.0,126.0 L 35.0,130.0 L 33.0,131.0 L 57.0,131.0 L 50.0,125.0 L 48.0,121.0 L 48.0,83.0 L 42.0,82.0 L 33.0,76.0 L 26.0,69.0 L 22.0,61.0 L 20.0,53.0 L 20.0,44.0 L 22.0,34.0 L 28.0,25.0 L 35.0,18.0 L 45.0,13.0 L 52.0,12.0" fill="#90A3AC"/>
	<path d="M 52.0,12.0 L 61.0,12.0 L 69.0,14.0 L 78.0,19.0 L 86.0,27.0 L 91.0,37.0 L 92.0,42.0 L 92.0,52.0 L 90.0,61.0 L 86.0,69.0 L 77.0,78.0 L 67.0,83.0 L 65.0,83.0 L 66.0,86.0 L 66.0,100.0 L 112.0,100.0 L 112.0,132.0 L 59.0,132.0 L 53.0,128.0 L 49.0,123.0 L 48.0,121.0 L 48.0,83.0 L 42.0,82.0 L 33.0,76.0 L 26.0,69.0 L 22.0,61.0 L 20.0,53.0 L 20.0,44.0 L 22.0,34.0 L 28.0,25.0 L 35.0,18.0 L 45.0,13.0 L 52.0,12.0" fill="#FD764D"/>
	<path d="M 50.0,20.0 L 61.0,20.0 L 71.0,24.0 L 79.0,31.0 L 83.0,38.0 L 84.0,43.0 L 84.0,54.0 L 80.0,63.0 L 73.0,71.0 L 65.0,75.0 L 60.0,76.0 L 49.0,76.0 L 39.0,71.0 L 31.0,62.0 L 28.0,53.0 L 28.0,42.0 L 32.0,33.0 L 39.0,25.0 L 47.0,21.0 L 50.0,20.0" fill="#C93E19"/>
	<path d="M 152.0,107.0 L 163.0,108.0 L 178.0,111.0 L 184.0,118.0 L 184.0,174.0 L 179.0,179.0 L 177.0,180.0 L 170.0,180.0 L 165.0,175.0 L 164.0,173.0 L 164.0,132.0 L 152.0,132.0 L 152.0,107.0" fill="#FEB64D"/>
	<path d="M 67.0,100.0 L 112.0,100.0 L 112.0,132.0 L 59.0,132.0 L 53.0,128.0 L 49.0,123.0 L 50.0,120.0 L 54.0,123.0 L 61.0,123.0 L 65.0,121.0 L 67.0,117.0 L 67.0,100.0" fill="#FE754B"/>
	<path d="M 112.0,100.0 L 123.0,101.0 L 152.0,106.0 L 152.0,132.0 L 112.0,132.0 L 112.0,100.0" fill="#9676CC"/>
	<path d="M 21.0,96.0 L 31.0,96.0 L 39.0,101.0 L 44.0,109.0 L 44.0,118.0 L 40.0,126.0 L 35.0,130.0 L 30.0,132.0 L 21.0,132.0 L 13.0,127.0 L 8.0,119.0 L 8.0,109.0 L 13.0,101.0 L 21.0,96.0" fill="#FEB74F"/>
	<path d="M 48.0,83.0 L 65.0,83.0 L 66.0,86.0 L 68.0,110.0 L 68.0,117.0 L 65.0,122.0 L 61.0,124.0 L 54.0,124.0 L 49.0,121.0 L 48.0,121.0 L 48.0,83.0" fill="#FEB54D"/>
	<path d="M 128.0,148.0 L 144.0,148.0 L 144.0,172.0 L 148.0,172.0 L 148.0,180.0 L 124.0,180.0 L 124.0,172.0 L 128.0,172.0 L 128.0,148.0" fill="#607D8B"/>
	<path d="M 16.0,148.0 L 32.0,148.0 L 32.0,172.0 L 36.0,172.0 L 36.0,180.0 L 12.0,180.0 L 12.0,172.0 L 16.0,172.0 L 16.0,148.0" fill="#607D8B"/>
	<path d="M 53.0,40.0 L 61.0,41.0 L 64.0,45.0 L 64.0,51.0 L 59.0,56.0 L 53.0,56.0 L 49.0,53.0 L 48.0,45.0 L 53.0,40.0" fill="#AFB5BA"/>
	<path d="M 48.0,83.0 L 65.0,83.0 L 65.0,92.0 L 48.0,92.0 L 48.0,83.0" fill="#F9A826"/>
	<path d="M 54.0,44.0 L 59.0,45.0 L 60.0,50.0 L 58.0,52.0 L 53.0,51.0 L 52.0,46.0 L 54.0,44.0" fill="#4A5F68"/>
</svg>
