<?xml version="1.0" ?>
<svg baseProfile="full" height="600px" version="1.1" viewBox="-12.06 -12.06 144.12 144.12" width="600px" xmlns="http://www.w3.org/2000/svg" xmlns:ev="http://www.w3.org/2001/xml-events" xmlns:xlink="http://www.w3.org/1999/xlink">
	<defs/>
	<path d="M 0.0,0.0 L 120.0,0.0 L 120.0,120.0 L 0.0,120.0 L 0.0,0.0" fill="#FCFCFC"/>
	<path d="M 36.0,8.0 L 45.0,8.0 L 53.0,12.0 L 59.0,20.0 L 60.0,23.0 L 60.0,33.0 L 56.0,41.0 L 50.0,46.0 L 47.0,46.0 L 48.0,60.0 L 63.0,60.0 L 82.0,65.0 L 103.0,68.0 L 108.0,73.0 L 108.0,106.0 L 106.0,108.0 L 101.0,107.0 L 99.0,100.0 L 96.0,83.0 L 96.0,80.0 L 41.0,80.0 L 36.0,75.0 L 35.0,48.0 L 27.0,44.0 L 21.0,36.0 L 20.0,33.0 L 20.0,24.0 L 23.0,17.0 L 27.0,12.0 L 32.0,9.0 L 36.0,8.0" fill="#030303"/>
	<path d="M 10.0,88.0 L 90.0,88.0 L 92.0,90.0 L 91.0,95.0 L 90.0,96.0 L 10.0,96.0 L 8.0,94.0 L 9.0,89.0 L 10.0,88.0" fill="#010101"/>
	<path d="M 12.0,56.0 L 19.0,56.0 L 25.0,59.0 L 28.0,64.0 L 28.0,71.0 L 25.0,77.0 L 19.0,80.0 L 12.0,80.0 L 7.0,77.0 L 4.0,71.0 L 4.0,64.0 L 7.0,59.0 L 12.0,56.0" fill="#050505"/>
	<path d="M 38.0,24.0 L 43.0,25.0 L 44.0,30.0 L 42.0,32.0 L 37.0,31.0 L 36.0,26.0 L 38.0,24.0" fill="#EAEAEA"/>
</svg>
