<?xml version="1.0" ?>
<svg baseProfile="full" height="600px" version="1.1" viewBox="-20.1 -20.1 240.2 240.2" width="600px" xmlns="http://www.w3.org/2000/svg" xmlns:ev="http://www.w3.org/2001/xml-events" xmlns:xlink="http://www.w3.org/1999/xlink">
	<defs/>
	<path d="M 0.0,0.0 L 200.0,0.0 L 200.0,200.0 L 0.0,200.0 L 0.0,0.0" fill="#FDFDFD"/>
	<path d="M 66.0,63.0 L 76.0,63.0 L 85.0,65.0 L 94.0,70.0 L 102.0,78.0 L 107.0,88.0 L 108.0,93.0 L 108.0,105.0 L 123.0,108.0 L 132.0,110.0 L 141.0,111.0 L 177.0,112.0 L 185.0,116.0 L 191.0,124.0 L 192.0,127.0 L 192.0,181.0 L 189.0,187.0 L 184.0,191.0 L 175.0,192.0 L 169.0,189.0 L 165.0,184.0 L 164.0,181.0 L 164.0,140.0 L 151.0,141.0 L 152.0,143.0 L 152.0,158.0 L 150.0,160.0 L 10.0,160.0 L 8.0,158.0 L 8.0,143.0 L 12.0,137.0 L 14.0,133.0 L 10.0,127.0 L 8.0,121.0 L 8.0,110.0 L 12.0,102.0 L 17.0,97.0 L 23.0,93.0 L 26.0,92.0 L 37.0,92.0 L 38.0,86.0 L 43.0,77.0 L 51.0,69.0 L 61.0,64.0 L 66.0,63.0" fill="#040404"/>
	<path d="M 66.0,71.0 L 77.0,71.0 L 87.0,75.0 L 94.0,81.0 L 100.0,93.0 L 100.0,105.0 L 94.0,117.0 L 87.0,123.0 L 78.0,127.0 L 66.0,127.0 L 54.0,121.0 L 48.0,114.0 L 44.0,104.0 L 44.0,93.0 L 50.0,81.0 L 57.0,75.0 L 66.0,71.0" fill="#F9F9F9"/>
	<path d="M 105.0,113.0 L 114.0,114.0 L 132.0,118.0 L 140.0,119.0 L 175.0,120.0 L 180.0,123.0 L 184.0,128.0 L 184.0,180.0 L 180.0,184.0 L 175.0,184.0 L 172.0,180.0 L 171.0,134.0 L 170.0,133.0 L 88.0,132.0 L 91.0,129.0 L 99.0,122.0 L 105.0,113.0" fill="#FAFAFA"/>
	<path d="M 21.0,140.0 L 138.0,140.0 L 143.0,143.0 L 144.0,145.0 L 144.0,152.0 L 16.0,152.0 L 16.0,145.0 L 21.0,140.0" fill="#FCFCFC"/>
	<path d="M 27.0,100.0 L 36.0,100.0 L 39.0,112.0 L 44.0,121.0 L 46.0,125.0 L 39.0,131.0 L 35.0,132.0 L 27.0,132.0 L 21.0,128.0 L 17.0,123.0 L 16.0,120.0 L 16.0,111.0 L 20.0,105.0 L 25.0,101.0 L 27.0,100.0" fill="#F7F7F7"/>
	<path d="M 68.0,87.0 L 75.0,87.0 L 81.0,90.0 L 84.0,95.0 L 84.0,102.0 L 81.0,108.0 L 75.0,111.0 L 68.0,111.0 L 63.0,108.0 L 60.0,102.0 L 60.0,95.0 L 63.0,90.0 L 68.0,87.0" fill="#060606"/>
	<path d="M 70.0,95.0 L 75.0,96.0 L 76.0,101.0 L 74.0,103.0 L 69.0,102.0 L 68.0,97.0 L 70.0,95.0" fill="#EAEAEA"/>
</svg>
