<?xml version="1.0" ?>
<svg baseProfile="full" height="600px" version="1.1" viewBox="-19.296000000000003 -19.296000000000003 230.592 230.592" width="600px" xmlns="http://www.w3.org/2000/svg" xmlns:ev="http://www.w3.org/2001/xml-events" xmlns:xlink="http://www.w3.org/1999/xlink">
	<defs/>
	<path d="M 0.0,0.0 L 192.0,0.0 L 192.0,192.0 L 0.0,192.0 L 0.0,0.0" fill="#FEFDFD"/>
	<path d="M 47.0,41.0 L 65.0,41.0 L 79.0,48.0 L 87.0,57.0 L 92.0,69.0 L 92.0,82.0 L 89.0,92.0 L 85.0,99.0 L 117.0,100.0 L 152.0,106.0 L 152.0,132.0 L 149.0,133.0 L 152.0,137.0 L 152.0,148.0 L 144.0,148.0 L 144.0,172.0 L 148.0,172.0 L 148.0,180.0 L 124.0,180.0 L 124.0,172.0 L 128.0,172.0 L 128.0,148.0 L 32.0,148.0 L 32.0,172.0 L 36.0,172.0 L 36.0,180.0 L 12.0,180.0 L 12.0,172.0 L 16.0,172.0 L 16.0,148.0 L 8.0,148.0 L 8.0,137.0 L 13.0,132.0 L 19.0,131.0 L 13.0,127.0 L 8.0,119.0 L 8.0,109.0 L 13.0,101.0 L 21.0,96.0 L 25.0,96.0 L 21.0,86.0 L 20.0,81.0 L 20.0,69.0 L 24.0,59.0 L 31.0,50.0 L 41.0,43.0 L 47.0,41.0" fill="#FD754C"/>
	<path d="M 112.0,100.0 L 123.0,101.0 L 152.0,106.0 L 152.0,132.0 L 149.0,133.0 L 152.0,137.0 L 152.0,148.0 L 144.0,148.0 L 144.0,172.0 L 148.0,172.0 L 148.0,180.0 L 124.0,180.0 L 124.0,172.0 L 128.0,172.0 L 128.0,148.0 L 32.0,148.0 L 32.0,172.0 L 36.0,172.0 L 36.0,180.0 L 12.0,180.0 L 12.0,172.0 L 16.0,172.0 L 16.0,148.0 L 8.0,148.0 L 8.0,137.0 L 13.0,132.0 L 112.0,132.0 L 112.0,100.0" fill="#90A3AC"/>
	<path d="M 48.0,49.0 L 64.0,49.0 L 73.0,54.0 L 78.0,59.0 L 82.0,65.0 L 84.0,71.0 L 84.0,82.0 L 80.0,92.0 L 75.0,98.0 L 67.0,103.0 L 64.0,104.0 L 49.0,104.0 L 40.0,100.0 L 34.0,95.0 L 28.0,83.0 L 28.0,70.0 L 34.0,58.0 L 43.0,51.0 L 48.0,49.0" fill="#C93E19"/>
	<path d="M 152.0,107.0 L 163.0,108.0 L 178.0,111.0 L 184.0,118.0 L 184.0,174.0 L 179.0,179.0 L 177.0,180.0 L 170.0,180.0 L 165.0,175.0 L 164.0,173.0 L 164.0,132.0 L 152.0,132.0 L 152.0,107.0" fill="#FEB64D"/>
	<path d="M 112.0,100.0 L 123.0,101.0 L 152.0,106.0 L 152.0,132.0 L 112.0,132.0 L 112.0,100.0" fill="#9676CC"/>
	<path d="M 25.0,95.0 L 29.0,100.0 L 36.0,106.0 L 48.0,112.0 L 49.0,121.0 L 53.0,127.0 L 59.0,131.0 L 59.0,132.0 L 21.0,132.0 L 13.0,127.0 L 8.0,119.0 L 8.0,109.0 L 13.0,101.0 L 21.0,96.0 L 25.0,95.0" fill="#FEB74E"/>
	<path d="M 128.0,148.0 L 144.0,148.0 L 144.0,172.0 L 148.0,172.0 L 148.0,180.0 L 124.0,180.0 L 124.0,172.0 L 128.0,172.0 L 128.0,148.0" fill="#607D8B"/>
	<path d="M 16.0,148.0 L 32.0,148.0 L 32.0,172.0 L 36.0,172.0 L 36.0,180.0 L 12.0,180.0 L 12.0,172.0 L 16.0,172.0 L 16.0,148.0" fill="#607D8B"/>
	<path d="M 68.0,110.0 L 70.0,110.0 L 67.0,119.0 L 63.0,123.0 L 61.0,124.0 L 54.0,124.0 L 49.0,119.0 L 48.0,118.0 L 48.0,112.0 L 66.0,111.0 L 68.0,110.0" fill="#F9A628"/>
	<path d="M 44.0,111.0 L 48.0,112.0 L 49.0,121.0 L 53.0,127.0 L 59.0,131.0 L 59.0,132.0 L 30.0,132.0 L 33.0,130.0 L 39.0,126.0 L 43.0,118.0 L 44.0,111.0" fill="#FEFBF9"/>
	<path d="M 52.0,69.0 L 60.0,69.0 L 64.0,73.0 L 64.0,79.0 L 60.0,84.0 L 52.0,84.0 L 48.0,79.0 L 48.0,73.0 L 52.0,69.0" fill="#ACB6BC"/>
	<path d="M 53.0,73.0 L 59.0,73.0 L 60.0,78.0 L 59.0,80.0 L 53.0,80.0 L 52.0,74.0 L 53.0,73.0" fill="#4A5F69"/>
	<path d="M 50.0,120.0 L 66.0,120.0 L 63.0,123.0 L 61.0,124.0 L 54.0,124.0 L 50.0,120.0" fill="#FEB149"/>
</svg>
