<?xml version="1.0" ?>
<svg baseProfile="full" height="600px" version="1.1" viewBox="-12.06 -12.06 144.12 144.12" width="600px" xmlns="http://www.w3.org/2000/svg" xmlns:ev="http://www.w3.org/2001/xml-events" xmlns:xlink="http://www.w3.org/1999/xlink">
	<defs/>
	<path d="M 0.0,0.0 L 120.0,0.0 L 120.0,120.0 L 0.0,120.0 L 0.0,0.0" fill="#FCFCFC"/>
	<path d="M 50.0,36.0 L 70.0,36.0 L 72.0,38.0 L 72.0,52.0 L 97.0,52.0 L 103.0,56.0 L 107.0,61.0 L 108.0,63.0 L 108.0,72.0 L 105.0,78.0 L 104.0,98.0 L 101.0,103.0 L 99.0,104.0 L 21.0,104.0 L 16.0,99.0 L 15.0,78.0 L 12.0,73.0 L 12.0,63.0 L 16.0,57.0 L 21.0,53.0 L 23.0,52.0 L 48.0,52.0 L 48.0,38.0 L 50.0,36.0" fill="#020202"/>
	<path d="M 25.0,60.0 L 95.0,60.0 L 100.0,65.0 L 100.0,71.0 L 95.0,76.0 L 89.0,76.0 L 85.0,73.0 L 80.0,75.0 L 79.0,76.0 L 73.0,76.0 L 69.0,73.0 L 64.0,75.0 L 63.0,76.0 L 57.0,76.0 L 53.0,73.0 L 48.0,75.0 L 47.0,76.0 L 41.0,76.0 L 37.0,73.0 L 32.0,75.0 L 31.0,76.0 L 25.0,76.0 L 20.0,71.0 L 20.0,65.0 L 25.0,60.0" fill="#F8F8F8"/>
	<path d="M 55.0,0.0 L 59.0,1.0 L 63.0,7.0 L 70.0,14.0 L 71.0,16.0 L 71.0,25.0 L 67.0,30.0 L 65.0,31.0 L 56.0,31.0 L 51.0,27.0 L 49.0,23.0 L 49.0,10.0 L 54.0,1.0 L 55.0,0.0" fill="#050505"/>
	<path d="M 87.0,28.0 L 94.0,28.0 L 96.0,30.0 L 95.0,35.0 L 94.0,36.0 L 87.0,36.0 L 85.0,34.0 L 86.0,29.0 L 87.0,28.0" fill="#131313"/>
	<path d="M 97.0,36.0 L 102.0,36.0 L 103.0,37.0 L 103.0,44.0 L 101.0,46.0 L 96.0,45.0 L 95.0,44.0 L 95.0,38.0 L 97.0,36.0" fill="#0C0C0C"/>
	<path d="M 97.0,18.0 L 102.0,19.0 L 103.0,20.0 L 103.0,27.0 L 102.0,28.0 L 97.0,28.0 L 95.0,26.0 L 95.0,20.0 L 97.0,18.0" fill="#0C0C0C"/>
	<path d="M 105.0,28.0 L 111.0,28.0 L 113.0,30.0 L 112.0,35.0 L 111.0,36.0 L 105.0,36.0 L 103.0,34.0 L 104.0,29.0 L 105.0,28.0" fill="#040404"/>
</svg>
