<?xml version="1.0" ?>
<svg baseProfile="full" height="600px" version="1.1" viewBox="-20.1 -20.1 240.2 240.2" width="600px" xmlns="http://www.w3.org/2000/svg" xmlns:ev="http://www.w3.org/2001/xml-events" xmlns:xlink="http://www.w3.org/1999/xlink">
	<defs/>
	<path d="M 0.0,0.0 L 200.0,0.0 L 200.0,200.0 L 0.0,200.0 L 0.0,0.0" fill="#FDFDFD"/>
	<path d="M 105.0,5.0 L 108.0,6.0 L 116.0,21.0 L 121.0,35.0 L 121.0,45.0 L 117.0,53.0 L 110.0,59.0 L 104.0,60.0 L 104.0,64.0 L 111.0,64.0 L 117.0,67.0 L 120.0,72.0 L 120.0,112.0 L 161.0,112.0 L 170.0,116.0 L 177.0,123.0 L 180.0,130.0 L 180.0,168.0 L 192.0,168.0 L 192.0,177.0 L 188.0,185.0 L 180.0,191.0 L 177.0,192.0 L 23.0,192.0 L 15.0,188.0 L 9.0,180.0 L 8.0,177.0 L 8.0,168.0 L 20.0,168.0 L 20.0,130.0 L 24.0,122.0 L 31.0,115.0 L 38.0,112.0 L 80.0,112.0 L 80.0,72.0 L 83.0,67.0 L 88.0,64.0 L 96.0,64.0 L 96.0,60.0 L 89.0,59.0 L 81.0,52.0 L 79.0,48.0 L 79.0,37.0 L 84.0,27.0 L 92.0,17.0 L 100.0,9.0 L 105.0,5.0" fill="#030303"/>
	<path d="M 39.0,120.0 L 160.0,120.0 L 167.0,124.0 L 172.0,131.0 L 172.0,140.0 L 165.0,146.0 L 161.0,148.0 L 151.0,148.0 L 141.0,143.0 L 134.0,137.0 L 129.0,138.0 L 120.0,144.0 L 107.0,148.0 L 92.0,148.0 L 80.0,144.0 L 70.0,137.0 L 65.0,138.0 L 56.0,145.0 L 49.0,148.0 L 39.0,148.0 L 31.0,143.0 L 28.0,139.0 L 28.0,131.0 L 32.0,125.0 L 37.0,121.0 L 39.0,120.0" fill="#FBFBFB"/>
	<path d="M 67.0,146.0 L 71.0,147.0 L 83.0,153.0 L 91.0,155.0 L 108.0,155.0 L 121.0,151.0 L 129.0,147.0 L 133.0,146.0 L 142.0,152.0 L 151.0,155.0 L 162.0,155.0 L 172.0,151.0 L 172.0,168.0 L 28.0,168.0 L 28.0,151.0 L 38.0,155.0 L 48.0,155.0 L 58.0,152.0 L 67.0,146.0" fill="#FCFCFC"/>
	<path d="M 17.0,176.0 L 183.0,176.0 L 181.0,180.0 L 176.0,184.0 L 24.0,184.0 L 17.0,178.0 L 17.0,176.0" fill="#FDFDFD"/>
	<path d="M 90.0,72.0 L 110.0,72.0 L 112.0,74.0 L 112.0,112.0 L 88.0,112.0 L 88.0,74.0 L 90.0,72.0" fill="#FDFDFD"/>
	<path d="M 103.0,18.0 L 105.0,18.0 L 112.0,34.0 L 112.0,45.0 L 107.0,51.0 L 104.0,52.0 L 102.0,45.0 L 97.0,46.0 L 96.0,52.0 L 91.0,50.0 L 87.0,45.0 L 87.0,39.0 L 93.0,29.0 L 103.0,18.0" fill="#F7F7F7"/>
	<path d="M 38.0,62.0 L 43.0,63.0 L 44.0,64.0 L 44.0,73.0 L 42.0,75.0 L 37.0,74.0 L 36.0,73.0 L 36.0,64.0 L 38.0,62.0" fill="#0B0B0B"/>
	<path d="M 48.0,52.0 L 57.0,52.0 L 59.0,54.0 L 58.0,59.0 L 57.0,60.0 L 48.0,60.0 L 46.0,58.0 L 47.0,53.0 L 48.0,52.0" fill="#0B0B0B"/>
	<path d="M 23.0,52.0 L 32.0,52.0 L 34.0,54.0 L 33.0,59.0 L 32.0,60.0 L 23.0,60.0 L 21.0,58.0 L 22.0,53.0 L 23.0,52.0" fill="#0B0B0B"/>
	<path d="M 38.0,37.0 L 43.0,38.0 L 44.0,39.0 L 44.0,48.0 L 42.0,50.0 L 37.0,49.0 L 36.0,48.0 L 36.0,39.0 L 38.0,37.0" fill="#0B0B0B"/>
</svg>
