<?xml version="1.0" ?>
<svg baseProfile="full" height="600px" version="1.1" viewBox="-16.08 -16.08 192.16 192.16" width="600px" xmlns="http://www.w3.org/2000/svg" xmlns:ev="http://www.w3.org/2001/xml-events" xmlns:xlink="http://www.w3.org/1999/xlink">
	<defs/>
	<path d="M 0.0,0.0 L 160.0,0.0 L 160.0,160.0 L 0.0,160.0 L 0.0,0.0" fill="#FEFDFC"/>
	<path d="M 80.0,3.0 L 82.0,4.0 L 86.0,12.0 L 94.0,23.0 L 94.0,32.0 L 90.0,38.0 L 89.0,39.0 L 95.0,43.0 L 96.0,45.0 L 96.0,80.0 L 133.0,80.0 L 141.0,84.0 L 146.0,90.0 L 148.0,94.0 L 148.0,136.0 L 156.0,136.0 L 156.0,143.0 L 153.0,150.0 L 147.0,155.0 L 145.0,156.0 L 15.0,156.0 L 9.0,152.0 L 5.0,147.0 L 4.0,145.0 L 4.0,136.0 L 12.0,136.0 L 12.0,94.0 L 17.0,86.0 L 26.0,80.0 L 64.0,80.0 L 64.0,45.0 L 69.0,40.0 L 71.0,39.0 L 67.0,34.0 L 66.0,32.0 L 66.0,21.0 L 70.0,13.0 L 76.0,6.0 L 80.0,3.0" fill="#A46E4D"/>
	<path d="M 29.0,84.0 L 132.0,84.0 L 139.0,88.0 L 143.0,93.0 L 144.0,97.0 L 144.0,107.0 L 140.0,112.0 L 131.0,116.0 L 120.0,116.0 L 112.0,112.0 L 107.0,106.0 L 107.0,104.0 L 102.0,109.0 L 94.0,114.0 L 85.0,116.0 L 72.0,116.0 L 62.0,112.0 L 57.0,108.0 L 53.0,104.0 L 51.0,109.0 L 45.0,114.0 L 37.0,116.0 L 28.0,116.0 L 20.0,112.0 L 16.0,107.0 L 16.0,97.0 L 19.0,90.0 L 25.0,85.0 L 29.0,84.0" fill="#FCC199"/>
	<path d="M 54.0,111.0 L 62.0,116.0 L 71.0,119.0 L 86.0,119.0 L 96.0,117.0 L 106.0,111.0 L 112.0,116.0 L 119.0,119.0 L 132.0,119.0 L 141.0,115.0 L 144.0,114.0 L 144.0,136.0 L 16.0,136.0 L 16.0,114.0 L 27.0,119.0 L 40.0,119.0 L 49.0,115.0 L 54.0,111.0" fill="#D9AE64"/>
	<path d="M 80.0,3.0 L 82.0,4.0 L 86.0,12.0 L 94.0,23.0 L 94.0,32.0 L 90.0,38.0 L 89.0,39.0 L 95.0,43.0 L 96.0,45.0 L 96.0,80.0 L 64.0,80.0 L 64.0,45.0 L 69.0,40.0 L 71.0,39.0 L 67.0,34.0 L 66.0,32.0 L 66.0,21.0 L 70.0,13.0 L 76.0,6.0 L 80.0,3.0" fill="#BD9F4F"/>
	<path d="M 8.0,140.0 L 152.0,140.0 L 151.0,146.0 L 146.0,151.0 L 143.0,152.0 L 16.0,152.0 L 11.0,149.0 L 8.0,143.0 L 8.0,140.0" fill="#FDFDFC"/>
	<path d="M 4.0,136.0 L 156.0,136.0 L 156.0,143.0 L 153.0,150.0 L 147.0,155.0 L 145.0,156.0 L 15.0,156.0 L 9.0,152.0 L 5.0,147.0 L 4.0,145.0 L 4.0,136.0 M 8.0,140.0 L 9.0,146.0 L 14.0,151.0 L 16.0,152.0 L 143.0,152.0 L 148.0,149.0 L 151.0,146.0 L 152.0,140.0 L 8.0,140.0" fill="#798C9D"/>
	<path d="M 70.0,44.0 L 90.0,44.0 L 92.0,46.0 L 92.0,80.0 L 68.0,80.0 L 68.0,46.0 L 70.0,44.0" fill="#FEB3D0"/>
	<path d="M 69.0,40.0 L 91.0,40.0 L 96.0,45.0 L 96.0,80.0 L 92.0,80.0 L 91.0,46.0 L 90.0,45.0 L 70.0,45.0 L 69.0,46.0 L 68.0,80.0 L 64.0,80.0 L 64.0,45.0 L 69.0,40.0" fill="#EA4E8A"/>
	<path d="M 78.0,10.0 L 80.0,10.0 L 90.0,24.0 L 90.0,31.0 L 86.0,36.0 L 84.0,35.0 L 84.0,28.0 L 79.0,23.0 L 76.0,22.0 L 76.0,36.0 L 72.0,34.0 L 70.0,31.0 L 70.0,22.0 L 76.0,12.0 L 78.0,10.0" fill="#FAE69D"/>
	<path d="M 76.0,22.0 L 80.0,23.0 L 85.0,28.0 L 85.0,35.0 L 83.0,37.0 L 77.0,37.0 L 75.0,35.0 L 75.0,24.0 L 76.0,22.0" fill="#C84745"/>
	<path d="M 147.0,107.0 L 148.0,107.0 L 148.0,136.0 L 144.0,136.0 L 144.0,113.0 L 147.0,107.0" fill="#967944"/>
	<path d="M 12.0,107.0 L 15.0,111.0 L 16.0,113.0 L 16.0,136.0 L 12.0,136.0 L 12.0,107.0" fill="#967944"/>
	<path d="M 32.0,48.0 L 34.0,49.0 L 34.0,52.0 L 38.0,53.0 L 34.0,54.0 L 32.0,58.0 L 31.0,55.0 L 28.0,54.0 L 28.0,52.0 L 31.0,51.0 L 32.0,48.0" fill="#F6CC8E"/>
</svg>
