<?xml version="1.0" ?>
<svg baseProfile="full" height="600px" version="1.1" viewBox="-12.06 -12.06 144.12 144.12" width="600px" xmlns="http://www.w3.org/2000/svg" xmlns:ev="http://www.w3.org/2001/xml-events" xmlns:xlink="http://www.w3.org/1999/xlink">
	<defs/>
	<path d="M 0.0,0.0 L 120.0,0.0 L 120.0,120.0 L 0.0,120.0 L 0.0,0.0" fill="#FCFCFC"/>
	<path d="M 85.0,69.0 L 95.0,69.0 L 105.0,74.0 L 112.0,82.0 L 114.0,86.0 L 114.0,102.0 L 108.0,111.0 L 103.0,115.0 L 96.0,118.0 L 83.0,118.0 L 74.0,113.0 L 69.0,107.0 L 66.0,100.0 L 66.0,88.0 L 69.0,80.0 L 76.0,73.0 L 85.0,69.0" fill="#090909"/>
	<path d="M 56.0,8.0 L 63.0,8.0 L 69.0,11.0 L 72.0,16.0 L 72.0,68.0 L 65.0,75.0 L 62.0,80.0 L 56.0,80.0 L 51.0,77.0 L 48.0,71.0 L 48.0,16.0 L 51.0,11.0 L 56.0,8.0" fill="#020202"/>
	<path d="M 34.0,48.0 L 39.0,49.0 L 40.0,50.0 L 41.0,72.0 L 45.0,81.0 L 52.0,86.0 L 59.0,88.0 L 60.0,101.0 L 62.0,109.0 L 68.0,111.0 L 68.0,112.0 L 42.0,112.0 L 40.0,110.0 L 41.0,105.0 L 42.0,104.0 L 56.0,104.0 L 56.0,95.0 L 50.0,95.0 L 41.0,89.0 L 35.0,82.0 L 32.0,73.0 L 32.0,50.0 L 34.0,48.0" fill="#060606"/>
	<path d="M 105.0,91.0 L 107.0,91.0 L 107.0,99.0 L 104.0,105.0 L 96.0,111.0 L 85.0,111.0 L 78.0,107.0 L 76.0,103.0 L 105.0,91.0" fill="#F6F6F6"/>
	<path d="M 84.0,77.0 L 96.0,77.0 L 102.0,81.0 L 104.0,84.0 L 94.0,89.0 L 74.0,97.0 L 73.0,97.0 L 73.0,88.0 L 77.0,82.0 L 82.0,78.0 L 84.0,77.0" fill="#F9F9F9"/>
	<path d="M 82.0,48.0 L 87.0,49.0 L 88.0,50.0 L 88.0,63.0 L 80.0,64.0 L 80.0,50.0 L 82.0,48.0" fill="#070707"/>
</svg>
