<?xml version="1.0" ?>
<svg baseProfile="full" height="600px" version="1.1" viewBox="-20.1 -20.1 240.2 240.2" width="600px" xmlns="http://www.w3.org/2000/svg" xmlns:ev="http://www.w3.org/2001/xml-events" xmlns:xlink="http://www.w3.org/1999/xlink">
	<defs/>
	<path d="M 0.0,0.0 L 200.0,0.0 L 200.0,200.0 L 0.0,200.0 L 0.0,0.0" fill="#FCFCFC"/>
	<path d="M 93.0,8.0 L 106.0,8.0 L 119.0,13.0 L 127.0,20.0 L 133.0,28.0 L 136.0,38.0 L 136.0,44.0 L 112.0,45.0 L 111.0,50.0 L 112.0,51.0 L 136.0,52.0 L 136.0,60.0 L 112.0,61.0 L 111.0,66.0 L 112.0,67.0 L 136.0,68.0 L 136.0,76.0 L 112.0,77.0 L 111.0,82.0 L 112.0,83.0 L 136.0,84.0 L 136.0,97.0 L 132.0,110.0 L 123.0,120.0 L 115.0,125.0 L 106.0,128.0 L 93.0,128.0 L 81.0,123.0 L 73.0,116.0 L 67.0,108.0 L 64.0,99.0 L 64.0,84.0 L 88.0,83.0 L 89.0,78.0 L 88.0,77.0 L 64.0,76.0 L 64.0,68.0 L 88.0,67.0 L 89.0,62.0 L 88.0,61.0 L 64.0,60.0 L 64.0,52.0 L 88.0,51.0 L 89.0,46.0 L 88.0,45.0 L 64.0,44.0 L 65.0,33.0 L 70.0,23.0 L 79.0,14.0 L 87.0,10.0 L 93.0,8.0" fill="#FCFCFC"/>
	<path d="M 38.0,69.0 L 43.0,70.0 L 44.0,71.0 L 45.0,102.0 L 49.0,115.0 L 56.0,127.0 L 65.0,136.0 L 79.0,144.0 L 88.0,147.0 L 109.0,147.0 L 119.0,145.0 L 132.0,138.0 L 142.0,129.0 L 149.0,119.0 L 153.0,111.0 L 155.0,101.0 L 156.0,71.0 L 158.0,69.0 L 163.0,70.0 L 163.0,103.0 L 158.0,119.0 L 152.0,129.0 L 143.0,139.0 L 133.0,147.0 L 122.0,152.0 L 112.0,154.0 L 112.0,180.0 L 142.0,180.0 L 148.0,184.0 L 152.0,191.0 L 152.0,200.0 L 48.0,200.0 L 48.0,190.0 L 52.0,184.0 L 58.0,180.0 L 88.0,180.0 L 88.0,154.0 L 78.0,152.0 L 64.0,145.0 L 52.0,134.0 L 44.0,123.0 L 39.0,111.0 L 37.0,103.0 L 37.0,70.0 L 38.0,69.0" fill="#070707"/>
	<path d="M 91.0,0.0 L 107.0,0.0 L 115.0,2.0 L 127.0,8.0 L 136.0,17.0 L 143.0,31.0 L 144.0,34.0 L 144.0,100.0 L 141.0,110.0 L 135.0,120.0 L 128.0,127.0 L 118.0,133.0 L 113.0,135.0 L 107.0,136.0 L 91.0,136.0 L 80.0,132.0 L 71.0,126.0 L 64.0,119.0 L 58.0,107.0 L 56.0,100.0 L 56.0,34.0 L 61.0,22.0 L 67.0,14.0 L 76.0,6.0 L 87.0,1.0 L 91.0,0.0 M 93.0,8.0 L 81.0,13.0 L 73.0,20.0 L 67.0,28.0 L 64.0,38.0 L 64.0,44.0 L 88.0,45.0 L 89.0,50.0 L 88.0,51.0 L 64.0,52.0 L 64.0,60.0 L 88.0,61.0 L 89.0,66.0 L 88.0,67.0 L 64.0,68.0 L 64.0,76.0 L 88.0,77.0 L 89.0,82.0 L 88.0,83.0 L 64.0,84.0 L 64.0,99.0 L 68.0,110.0 L 77.0,120.0 L 85.0,125.0 L 93.0,128.0 L 106.0,128.0 L 117.0,124.0 L 123.0,120.0 L 130.0,113.0 L 134.0,105.0 L 136.0,97.0 L 136.0,84.0 L 112.0,83.0 L 111.0,78.0 L 112.0,77.0 L 136.0,76.0 L 136.0,68.0 L 112.0,67.0 L 111.0,62.0 L 112.0,61.0 L 136.0,60.0 L 136.0,52.0 L 112.0,51.0 L 111.0,46.0 L 112.0,45.0 L 136.0,44.0 L 135.0,33.0 L 130.0,23.0 L 121.0,14.0 L 109.0,9.0 L 106.0,8.0 L 93.0,8.0" fill="#050505"/>
	<path d="M 59.0,188.0 L 140.0,188.0 L 143.0,190.0 L 143.0,192.0 L 57.0,192.0 L 59.0,188.0" fill="#EDEDED"/>
	<path d="M 96.0,155.0 L 104.0,155.0 L 104.0,180.0 L 96.0,180.0 L 96.0,155.0" fill="#EBEBEB"/>
</svg>
