<?xml version="1.0" ?>
<svg baseProfile="full" height="600px" version="1.1" viewBox="-16.08 -16.08 192.16 192.16" width="600px" xmlns="http://www.w3.org/2000/svg" xmlns:ev="http://www.w3.org/2001/xml-events" xmlns:xlink="http://www.w3.org/1999/xlink">
	<defs/>
	<path d="M 0.0,0.0 L 160.0,0.0 L 160.0,160.0 L 0.0,160.0 L 0.0,0.0" fill="#FEFDFD"/>
	<path d="M 66.0,4.0 L 93.0,4.0 L 101.0,8.0 L 106.0,14.0 L 108.0,19.0 L 108.0,68.0 L 124.0,68.0 L 124.0,64.0 L 128.0,64.0 L 128.0,76.0 L 124.0,76.0 L 124.0,72.0 L 120.0,72.0 L 120.0,94.0 L 117.0,104.0 L 112.0,112.0 L 107.0,118.0 L 98.0,124.0 L 89.0,127.0 L 88.0,140.0 L 103.0,139.0 L 106.0,134.0 L 111.0,130.0 L 120.0,130.0 L 126.0,135.0 L 127.0,137.0 L 127.0,147.0 L 123.0,152.0 L 116.0,154.0 L 116.0,156.0 L 44.0,156.0 L 44.0,148.0 L 47.0,143.0 L 52.0,140.0 L 72.0,140.0 L 72.0,127.0 L 62.0,124.0 L 51.0,116.0 L 44.0,106.0 L 40.0,93.0 L 40.0,72.0 L 36.0,72.0 L 36.0,76.0 L 32.0,76.0 L 32.0,64.0 L 36.0,64.0 L 36.0,68.0 L 52.0,68.0 L 52.0,18.0 L 57.0,10.0 L 62.0,6.0 L 66.0,4.0" fill="#8E78A3"/>
	<path d="M 68.0,8.0 L 73.0,8.0 L 73.0,11.0 L 75.0,11.0 L 75.0,8.0 L 81.0,8.0 L 81.0,11.0 L 83.0,11.0 L 83.0,8.0 L 89.0,8.0 L 89.0,11.0 L 91.0,11.0 L 92.0,9.0 L 97.0,10.0 L 102.0,16.0 L 101.0,19.0 L 104.0,20.0 L 104.0,33.0 L 101.0,33.0 L 101.0,35.0 L 104.0,35.0 L 104.0,49.0 L 101.0,49.0 L 101.0,51.0 L 104.0,51.0 L 104.0,64.0 L 56.0,64.0 L 56.0,59.0 L 59.0,59.0 L 59.0,57.0 L 56.0,57.0 L 56.0,43.0 L 59.0,43.0 L 59.0,41.0 L 56.0,41.0 L 56.0,27.0 L 59.0,27.0 L 59.0,25.0 L 56.0,25.0 L 56.0,19.0 L 60.0,13.0 L 64.0,10.0 L 67.0,11.0 L 68.0,8.0" fill="#CEC4E3"/>
	<path d="M 56.0,68.0 L 104.0,68.0 L 104.0,91.0 L 101.0,98.0 L 95.0,103.0 L 91.0,104.0 L 67.0,104.0 L 61.0,100.0 L 57.0,95.0 L 56.0,92.0 L 56.0,68.0" fill="#DAD3F0"/>
	<path d="M 44.0,72.0 L 52.0,72.0 L 53.0,93.0 L 57.0,101.0 L 62.0,105.0 L 66.0,107.0 L 93.0,107.0 L 101.0,103.0 L 106.0,96.0 L 107.0,92.0 L 108.0,72.0 L 116.0,72.0 L 116.0,95.0 L 111.0,107.0 L 103.0,116.0 L 91.0,122.0 L 88.0,123.0 L 71.0,123.0 L 62.0,119.0 L 54.0,113.0 L 48.0,105.0 L 44.0,92.0 L 44.0,72.0" fill="#FCFBFC"/>
	<path d="M 53.0,144.0 L 103.0,144.0 L 108.0,152.0 L 48.0,152.0 L 49.0,147.0 L 53.0,144.0" fill="#DAD2EF"/>
	<path d="M 113.0,131.0 L 118.0,131.0 L 114.0,132.0 L 115.0,135.0 L 119.0,134.0 L 123.0,138.0 L 123.0,146.0 L 120.0,149.0 L 118.0,149.0 L 119.0,152.0 L 111.0,152.0 L 106.0,148.0 L 104.0,138.0 L 106.0,134.0 L 112.0,132.0 L 110.0,135.0 L 112.0,135.0 L 113.0,131.0" fill="#D96868"/>
	<path d="M 111.0,130.0 L 120.0,130.0 L 126.0,135.0 L 127.0,137.0 L 127.0,147.0 L 123.0,152.0 L 118.0,154.0 L 112.0,154.0 L 106.0,150.0 L 104.0,147.0 L 104.0,138.0 L 105.0,138.0 L 107.0,148.0 L 111.0,151.0 L 118.0,151.0 L 118.0,149.0 L 122.0,146.0 L 122.0,138.0 L 119.0,135.0 L 116.0,134.0 L 115.0,138.0 L 113.0,131.0 L 113.0,136.0 L 108.0,137.0 L 109.0,134.0 L 110.0,133.0 L 108.0,132.0 L 111.0,130.0" fill="#D05C5D"/>
	<path d="M 76.0,128.0 L 84.0,128.0 L 84.0,140.0 L 76.0,140.0 L 76.0,128.0" fill="#DAD2EF"/>
	<path d="M 110.0,135.0 L 112.0,135.0 L 115.0,147.0 L 115.0,150.0 L 110.0,148.0 L 107.0,144.0 L 108.0,137.0 L 110.0,135.0" fill="#FAF0F0"/>
	<path d="M 116.0,134.0 L 121.0,135.0 L 123.0,138.0 L 123.0,146.0 L 119.0,149.0 L 116.0,134.0" fill="#FCF8F8"/>
	<path d="M 111.0,130.0 L 120.0,130.0 L 124.0,134.0 L 116.0,134.0 L 115.0,138.0 L 113.0,131.0 L 113.0,136.0 L 108.0,137.0 L 109.0,134.0 L 110.0,133.0 L 108.0,132.0 L 111.0,130.0" fill="#D25A5A"/>
	<path d="M 78.0,76.0 L 83.0,77.0 L 84.0,82.0 L 82.0,84.0 L 77.0,83.0 L 76.0,78.0 L 78.0,76.0" fill="#C84A4B"/>
	<path d="M 110.0,132.0 L 112.0,133.0 L 107.0,138.0 L 107.0,145.0 L 112.0,150.0 L 118.0,150.0 L 119.0,152.0 L 111.0,152.0 L 106.0,148.0 L 104.0,138.0 L 106.0,134.0 L 110.0,132.0" fill="#EF8282"/>
	<path d="M 118.0,133.0 L 124.0,134.0 L 126.0,138.0 L 126.0,145.0 L 123.0,144.0 L 121.0,136.0 L 118.0,133.0" fill="#E07474"/>
	<path d="M 110.0,132.0 L 112.0,133.0 L 107.0,138.0 L 104.0,138.0 L 106.0,134.0 L 110.0,132.0" fill="#DF6E6E"/>
</svg>
