<?xml version="1.0" ?>
<svg baseProfile="full" height="600px" version="1.1" viewBox="-9.648000000000001 -9.648000000000001 115.296 115.296" width="600px" xmlns="http://www.w3.org/2000/svg" xmlns:ev="http://www.w3.org/2001/xml-events" xmlns:xlink="http://www.w3.org/1999/xlink">
	<defs/>
	<path d="M 0.0,0.0 L 96.0,0.0 L 96.0,96.0 L 0.0,96.0 L 0.0,0.0" fill="#FCFCFC"/>
	<path d="M 44.0,8.0 L 51.0,8.0 L 57.0,11.0 L 60.0,16.0 L 60.0,47.0 L 57.0,53.0 L 51.0,56.0 L 44.0,56.0 L 39.0,53.0 L 36.0,47.0 L 36.0,16.0 L 39.0,11.0 L 44.0,8.0" fill="#020202"/>
	<path d="M 20.0,44.0 L 28.0,44.0 L 31.0,54.0 L 35.0,59.0 L 43.0,63.0 L 55.0,63.0 L 54.0,67.0 L 57.0,69.0 L 57.0,71.0 L 52.0,72.0 L 52.0,84.0 L 44.0,84.0 L 44.0,71.0 L 38.0,71.0 L 29.0,65.0 L 23.0,58.0 L 20.0,49.0 L 20.0,44.0" fill="#060606"/>
	<path d="M 69.0,60.0 L 76.0,66.0 L 80.0,66.0 L 87.0,60.0 L 92.0,65.0 L 90.0,69.0 L 86.0,73.0 L 84.0,73.0 L 91.0,81.0 L 91.0,84.0 L 86.0,88.0 L 79.0,81.0 L 77.0,80.0 L 75.0,84.0 L 71.0,88.0 L 67.0,86.0 L 64.0,82.0 L 71.0,75.0 L 69.0,71.0 L 64.0,65.0 L 69.0,60.0" fill="#070707"/>
	<path d="M 68.0,44.0 L 76.0,44.0 L 75.0,53.0 L 73.0,53.0 L 71.0,50.0 L 67.0,51.0 L 68.0,44.0" fill="#0E0E0E"/>
</svg>
