<?xml version="1.0" ?>
<svg baseProfile="full" height="600px" version="1.1" viewBox="-20.1 -20.1 240.2 240.2" width="600px" xmlns="http://www.w3.org/2000/svg" xmlns:ev="http://www.w3.org/2001/xml-events" xmlns:xlink="http://www.w3.org/1999/xlink">
	<defs/>
	<path d="M 0.0,0.0 L 200.0,0.0 L 200.0,200.0 L 0.0,200.0 L 0.0,0.0" fill="#FCFCFC"/>
	<path d="M 141.0,117.0 L 160.0,117.0 L 172.0,122.0 L 182.0,131.0 L 188.0,140.0 L 191.0,148.0 L 191.0,165.0 L 188.0,174.0 L 182.0,184.0 L 174.0,191.0 L 164.0,196.0 L 156.0,198.0 L 144.0,198.0 L 133.0,194.0 L 124.0,188.0 L 116.0,179.0 L 111.0,168.0 L 110.0,163.0 L 110.0,150.0 L 114.0,139.0 L 120.0,130.0 L 128.0,123.0 L 138.0,118.0 L 141.0,117.0" fill="#0A0A0A"/>
	<path d="M 91.0,0.0 L 107.0,0.0 L 115.0,2.0 L 127.0,8.0 L 136.0,17.0 L 143.0,31.0 L 144.0,34.0 L 144.0,100.0 L 141.0,110.0 L 130.0,115.0 L 128.0,114.0 L 132.0,108.0 L 135.0,97.0 L 136.0,84.0 L 112.0,84.0 L 110.0,82.0 L 111.0,77.0 L 112.0,76.0 L 136.0,76.0 L 136.0,68.0 L 112.0,68.0 L 110.0,66.0 L 111.0,61.0 L 112.0,60.0 L 136.0,60.0 L 136.0,52.0 L 112.0,52.0 L 110.0,50.0 L 111.0,45.0 L 112.0,44.0 L 136.0,44.0 L 133.0,30.0 L 127.0,21.0 L 119.0,14.0 L 106.0,9.0 L 93.0,9.0 L 81.0,14.0 L 73.0,21.0 L 67.0,30.0 L 64.0,44.0 L 88.0,44.0 L 90.0,46.0 L 89.0,51.0 L 88.0,52.0 L 64.0,52.0 L 64.0,60.0 L 88.0,60.0 L 90.0,62.0 L 89.0,67.0 L 88.0,68.0 L 64.0,68.0 L 64.0,76.0 L 88.0,76.0 L 90.0,78.0 L 89.0,83.0 L 88.0,84.0 L 64.0,84.0 L 65.0,99.0 L 69.0,110.0 L 78.0,120.0 L 87.0,125.0 L 93.0,127.0 L 106.0,127.0 L 115.0,125.0 L 113.0,129.0 L 108.0,136.0 L 91.0,136.0 L 80.0,132.0 L 71.0,126.0 L 64.0,119.0 L 58.0,107.0 L 56.0,100.0 L 56.0,34.0 L 61.0,22.0 L 67.0,14.0 L 76.0,6.0 L 87.0,1.0 L 91.0,0.0" fill="#050505"/>
	<path d="M 38.0,69.0 L 43.0,70.0 L 44.0,71.0 L 45.0,102.0 L 49.0,115.0 L 56.0,127.0 L 65.0,136.0 L 79.0,144.0 L 88.0,147.0 L 104.0,148.0 L 103.0,155.0 L 96.0,155.0 L 96.0,180.0 L 104.0,180.0 L 104.0,167.0 L 106.0,171.0 L 113.0,185.0 L 115.0,188.0 L 59.0,189.0 L 57.0,192.0 L 119.0,192.0 L 130.0,199.0 L 130.0,200.0 L 48.0,200.0 L 48.0,190.0 L 52.0,184.0 L 58.0,180.0 L 88.0,180.0 L 88.0,154.0 L 78.0,152.0 L 64.0,145.0 L 52.0,134.0 L 44.0,123.0 L 39.0,111.0 L 37.0,103.0 L 37.0,70.0 L 38.0,69.0" fill="#080808"/>
	<path d="M 181.0,151.0 L 184.0,151.0 L 184.0,164.0 L 180.0,175.0 L 172.0,184.0 L 161.0,190.0 L 156.0,191.0 L 144.0,191.0 L 134.0,187.0 L 126.0,181.0 L 120.0,172.0 L 121.0,169.0 L 138.0,164.0 L 161.0,157.0 L 181.0,151.0" fill="#F9F9F9"/>
	<path d="M 142.0,124.0 L 158.0,124.0 L 167.0,127.0 L 176.0,134.0 L 181.0,141.0 L 180.0,145.0 L 154.0,153.0 L 128.0,161.0 L 117.0,164.0 L 117.0,150.0 L 121.0,140.0 L 130.0,130.0 L 142.0,124.0" fill="#FAFAFA"/>
	<path d="M 158.0,69.0 L 163.0,70.0 L 163.0,103.0 L 161.0,110.0 L 154.0,110.0 L 155.0,101.0 L 156.0,71.0 L 158.0,69.0" fill="#0F0F0F"/>
</svg>
