<?xml version="1.0" ?>
<svg baseProfile="full" height="600px" version="1.1" viewBox="-12.864 -12.864 153.728 153.728" width="600px" xmlns="http://www.w3.org/2000/svg" xmlns:ev="http://www.w3.org/2001/xml-events" xmlns:xlink="http://www.w3.org/1999/xlink">
	<defs/>
	<path d="M 0.0,0.0 L 128.0,0.0 L 128.0,128.0 L 0.0,128.0 L 0.0,0.0" fill="#FDFDFD"/>
	<path d="M 49.0,16.0 L 79.0,16.0 L 84.0,21.0 L 84.0,74.0 L 78.0,78.0 L 76.0,80.0 L 49.0,80.0 L 44.0,75.0 L 44.0,21.0 L 49.0,16.0" fill="#020202"/>
	<path d="M 92.0,77.0 L 102.0,77.0 L 111.0,81.0 L 116.0,85.0 L 121.0,95.0 L 121.0,106.0 L 116.0,116.0 L 109.0,122.0 L 103.0,124.0 L 92.0,124.0 L 84.0,121.0 L 77.0,114.0 L 74.0,107.0 L 74.0,94.0 L 79.0,85.0 L 87.0,79.0 L 92.0,77.0" fill="#0A0A0A"/>
	<path d="M 52.0,24.0 L 76.0,24.0 L 76.0,72.0 L 52.0,72.0 L 52.0,24.0" fill="#FDFDFD"/>
	<path d="M 28.0,56.0 L 36.0,56.0 L 37.0,76.0 L 41.0,83.0 L 48.0,87.0 L 69.0,88.0 L 68.0,94.0 L 68.0,107.0 L 69.0,112.0 L 44.0,112.0 L 44.0,104.0 L 60.0,104.0 L 60.0,96.0 L 46.0,96.0 L 38.0,92.0 L 30.0,83.0 L 28.0,77.0 L 28.0,56.0" fill="#030303"/>
	<path d="M 88.0,86.0 L 90.0,86.0 L 96.0,106.0 L 98.0,112.0 L 98.0,117.0 L 91.0,117.0 L 85.0,113.0 L 81.0,106.0 L 81.0,95.0 L 85.0,89.0 L 88.0,86.0" fill="#F5F5F5"/>
	<path d="M 96.0,84.0 L 104.0,85.0 L 110.0,89.0 L 114.0,95.0 L 114.0,105.0 L 111.0,111.0 L 107.0,115.0 L 105.0,115.0 L 100.0,100.0 L 96.0,84.0" fill="#F8F8F8"/>
	<path d="M 92.0,56.0 L 100.0,56.0 L 100.0,70.0 L 92.0,70.0 L 92.0,56.0" fill="#000000"/>
</svg>
