<?xml version="1.0" ?>
<svg baseProfile="full" height="600px" version="1.1" viewBox="-9.648000000000001 -9.648000000000001 115.296 115.296" width="600px" xmlns="http://www.w3.org/2000/svg" xmlns:ev="http://www.w3.org/2001/xml-events" xmlns:xlink="http://www.w3.org/1999/xlink">
	<defs/>
	<path d="M 0.0,0.0 L 96.0,0.0 L 96.0,96.0 L 0.0,96.0 L 0.0,0.0" fill="#FCFCFC"/>
	<path d="M 43.0,11.0 L 52.0,11.0 L 57.0,14.0 L 60.0,19.0 L 60.0,51.0 L 55.0,57.0 L 53.0,58.0 L 43.0,58.0 L 38.0,54.0 L 36.0,51.0 L 36.0,20.0 L 39.0,14.0 L 43.0,11.0" fill="#020202"/>
	<path d="M 20.0,47.0 L 28.0,47.0 L 32.0,58.0 L 39.0,64.0 L 41.0,65.0 L 54.0,65.0 L 60.0,62.0 L 65.0,56.0 L 68.0,47.0 L 76.0,47.0 L 75.0,55.0 L 70.0,65.0 L 61.0,72.0 L 52.0,74.0 L 52.0,87.0 L 44.0,87.0 L 44.0,74.0 L 35.0,72.0 L 26.0,65.0 L 20.0,53.0 L 20.0,47.0" fill="#080808"/>
	<path d="M 78.0,69.0 L 81.0,69.0 L 81.0,74.0 L 84.0,74.0 L 84.0,77.0 L 79.0,77.0 L 78.0,80.0 L 75.0,79.0 L 76.0,75.0 L 73.0,74.0 L 73.0,71.0 L 77.0,71.0 L 78.0,69.0" fill="#202020"/>
</svg>
