<?xml version="1.0" ?>
<svg baseProfile="full" height="600px" version="1.1" viewBox="-12.06 -12.06 144.12 144.12" width="600px" xmlns="http://www.w3.org/2000/svg" xmlns:ev="http://www.w3.org/2001/xml-events" xmlns:xlink="http://www.w3.org/1999/xlink">
	<defs/>
	<path d="M 0.0,0.0 L 120.0,0.0 L 120.0,120.0 L 0.0,120.0 L 0.0,0.0" fill="#FCFCFC"/>
	<path d="M 86.0,64.0 L 97.0,64.0 L 107.0,68.0 L 115.0,75.0 L 120.0,85.0 L 120.0,120.0 L 85.0,120.0 L 75.0,115.0 L 67.0,106.0 L 64.0,97.0 L 64.0,86.0 L 68.0,77.0 L 75.0,69.0 L 83.0,65.0 L 86.0,64.0" fill="#060606"/>
	<path d="M 56.0,8.0 L 63.0,8.0 L 69.0,11.0 L 72.0,16.0 L 72.0,62.0 L 63.0,71.0 L 58.0,80.0 L 53.0,78.0 L 49.0,74.0 L 48.0,71.0 L 48.0,16.0 L 51.0,11.0 L 56.0,8.0" fill="#020202"/>
	<path d="M 108.0,81.0 L 111.0,84.0 L 112.0,87.0 L 112.0,97.0 L 107.0,106.0 L 99.0,111.0 L 97.0,112.0 L 87.0,112.0 L 81.0,109.0 L 87.0,102.0 L 108.0,81.0" fill="#F4F4F4"/>
	<path d="M 87.0,72.0 L 96.0,72.0 L 103.0,75.0 L 97.0,82.0 L 76.0,103.0 L 74.0,102.0 L 72.0,96.0 L 72.0,87.0 L 76.0,79.0 L 84.0,73.0 L 87.0,72.0" fill="#F4F4F4"/>
	<path d="M 34.0,48.0 L 39.0,49.0 L 40.0,50.0 L 41.0,72.0 L 45.0,81.0 L 52.0,86.0 L 56.0,87.0 L 56.0,95.0 L 50.0,95.0 L 41.0,89.0 L 35.0,82.0 L 32.0,73.0 L 32.0,50.0 L 34.0,48.0" fill="#060606"/>
	<path d="M 119.0,98.0 L 120.0,98.0 L 120.0,120.0 L 98.0,120.0 L 101.0,118.0 L 109.0,114.0 L 116.0,106.0 L 119.0,98.0" fill="#F9F9F9"/>
	<path d="M 56.0,97.0 L 57.0,97.0 L 61.0,110.0 L 62.0,112.0 L 42.0,112.0 L 40.0,110.0 L 41.0,105.0 L 42.0,104.0 L 56.0,104.0 L 56.0,97.0" fill="#070707"/>
	<path d="M 82.0,48.0 L 87.0,49.0 L 88.0,50.0 L 88.0,56.0 L 80.0,58.0 L 80.0,50.0 L 82.0,48.0" fill="#080808"/>
</svg>
