<?xml version="1.0" ?>
<svg baseProfile="full" height="600px" version="1.1" viewBox="-16.08 -16.08 192.16 192.16" width="600px" xmlns="http://www.w3.org/2000/svg" xmlns:ev="http://www.w3.org/2001/xml-events" xmlns:xlink="http://www.w3.org/1999/xlink">
	<defs/>
	<path d="M 0.0,0.0 L 160.0,0.0 L 160.0,160.0 L 0.0,160.0 L 0.0,0.0" fill="#81909F"/>
	<path d="M 4.0,12.0 L 66.0,12.0 L 72.0,15.0 L 76.0,20.0 L 76.0,131.0 L 71.0,129.0 L 4.0,128.0 L 4.0,12.0" fill="#FCFCFD"/>
	<path d="M 136.0,12.0 L 152.0,12.0 L 152.0,128.0 L 85.0,129.0 L 80.0,131.0 L 80.0,21.0 L 84.0,15.0 L 87.0,13.0 L 100.0,13.0 L 100.0,92.0 L 117.0,83.0 L 123.0,85.0 L 135.0,91.0 L 136.0,12.0" fill="#E0E8F0"/>
	<path d="M 0.0,0.0 L 160.0,0.0 L 160.0,160.0 L 0.0,160.0 L 0.0,135.0 L 4.0,139.0 L 66.0,140.0 L 69.0,145.0 L 73.0,147.0 L 83.0,147.0 L 88.0,144.0 L 91.0,140.0 L 152.0,139.0 L 155.0,135.0 L 156.0,8.0 L 88.0,9.0 L 80.0,14.0 L 79.0,16.0 L 77.0,16.0 L 72.0,11.0 L 67.0,9.0 L 0.0,8.0 L 0.0,0.0" fill="#FBFBFD"/>
	<path d="M 101.0,9.0 L 136.0,9.0 L 136.0,92.0 L 119.0,84.0 L 113.0,86.0 L 104.0,91.0 L 101.0,91.0 L 101.0,9.0" fill="#F68D8D"/>
	<path d="M 101.0,9.0 L 136.0,9.0 L 136.0,92.0 L 119.0,84.0 L 113.0,86.0 L 104.0,91.0 L 101.0,91.0 L 101.0,9.0 M 105.0,13.0 L 105.0,85.0 L 116.0,80.0 L 122.0,81.0 L 130.0,85.0 L 132.0,85.0 L 132.0,13.0 L 105.0,13.0" fill="#CA4949"/>
	<path d="M 0.0,132.0 L 4.0,132.0 L 6.0,135.0 L 68.0,136.0 L 72.0,142.0 L 74.0,143.0 L 82.0,143.0 L 86.0,140.0 L 88.0,136.0 L 152.0,135.0 L 152.0,132.0 L 156.0,132.0 L 155.0,137.0 L 152.0,140.0 L 91.0,141.0 L 87.0,146.0 L 83.0,148.0 L 73.0,148.0 L 67.0,144.0 L 66.0,140.0 L 4.0,140.0 L 0.0,135.0 L 0.0,132.0" fill="#5480BA"/>
	<path d="M 4.0,132.0 L 70.0,132.0 L 75.0,136.0 L 76.0,141.0 L 80.0,141.0 L 81.0,136.0 L 86.0,132.0 L 152.0,132.0 L 152.0,135.0 L 150.0,136.0 L 88.0,137.0 L 85.0,142.0 L 82.0,144.0 L 74.0,144.0 L 69.0,140.0 L 68.0,136.0 L 6.0,136.0 L 4.0,132.0" fill="#88B1E6"/>
</svg>
