<?xml version="1.0" ?>
<svg baseProfile="full" height="600px" version="1.1" viewBox="-16.08 -16.08 192.16 192.16" width="600px" xmlns="http://www.w3.org/2000/svg" xmlns:ev="http://www.w3.org/2001/xml-events" xmlns:xlink="http://www.w3.org/1999/xlink">
	<defs/>
	<path d="M 0.0,0.0 L 160.0,0.0 L 160.0,160.0 L 0.0,160.0 L 0.0,0.0" fill="#7C8C9D"/>
	<path d="M 4.0,15.0 L 67.0,15.0 L 72.0,18.0 L 76.0,23.0 L 76.0,134.0 L 71.0,132.0 L 4.0,131.0 L 4.0,15.0" fill="#FDFDFD"/>
	<path d="M 88.0,15.0 L 100.0,15.0 L 100.0,101.0 L 116.0,93.0 L 122.0,94.0 L 136.0,101.0 L 136.0,15.0 L 152.0,15.0 L 152.0,131.0 L 84.0,132.0 L 80.0,134.0 L 80.0,23.0 L 86.0,16.0 L 88.0,15.0" fill="#E0E8F0"/>
	<path d="M 0.0,0.0 L 160.0,0.0 L 160.0,160.0 L 0.0,160.0 L 0.0,137.0 L 5.0,142.0 L 66.0,143.0 L 70.0,148.0 L 74.0,150.0 L 81.0,150.0 L 87.0,147.0 L 90.0,143.0 L 151.0,142.0 L 155.0,138.0 L 156.0,11.0 L 87.0,12.0 L 81.0,16.0 L 77.0,18.0 L 71.0,13.0 L 69.0,12.0 L 0.0,11.0 L 0.0,0.0" fill="#FCFDFD"/>
	<path d="M 101.0,11.0 L 136.0,11.0 L 136.0,101.0 L 130.0,99.0 L 119.0,94.0 L 115.0,95.0 L 103.0,101.0 L 101.0,101.0 L 101.0,11.0" fill="#F68D8D"/>
	<path d="M 101.0,11.0 L 136.0,11.0 L 136.0,101.0 L 130.0,99.0 L 119.0,94.0 L 115.0,95.0 L 103.0,101.0 L 101.0,101.0 L 101.0,11.0 M 105.0,15.0 L 105.0,94.0 L 111.0,92.0 L 117.0,89.0 L 123.0,91.0 L 132.0,95.0 L 132.0,15.0 L 105.0,15.0" fill="#CA4949"/>
	<path d="M 0.0,135.0 L 4.0,135.0 L 6.0,138.0 L 68.0,139.0 L 71.0,143.0 L 71.0,145.0 L 80.0,146.0 L 85.0,143.0 L 88.0,139.0 L 150.0,138.0 L 152.0,135.0 L 156.0,135.0 L 155.0,140.0 L 151.0,143.0 L 90.0,143.0 L 88.0,147.0 L 84.0,150.0 L 81.0,151.0 L 74.0,151.0 L 68.0,147.0 L 66.0,143.0 L 5.0,143.0 L 1.0,140.0 L 0.0,135.0" fill="#507CB6"/>
	<path d="M 4.0,135.0 L 71.0,135.0 L 76.0,140.0 L 76.0,143.0 L 80.0,143.0 L 81.0,138.0 L 85.0,135.0 L 152.0,135.0 L 150.0,139.0 L 88.0,140.0 L 83.0,146.0 L 75.0,147.0 L 71.0,145.0 L 68.0,140.0 L 6.0,139.0 L 4.0,135.0" fill="#88B4ED"/>
</svg>
