<?xml version="1.0" ?>
<svg baseProfile="full" height="600px" version="1.1" viewBox="-16.08 -16.08 192.16 192.16" width="600px" xmlns="http://www.w3.org/2000/svg" xmlns:ev="http://www.w3.org/2001/xml-events" xmlns:xlink="http://www.w3.org/1999/xlink">
	<defs/>
	<path d="M 0.0,0.0 L 160.0,0.0 L 160.0,160.0 L 0.0,160.0 L 0.0,0.0" fill="#FEFDFD"/>
	<path d="M 34.0,11.0 L 126.0,11.0 L 126.0,149.0 L 107.0,140.0 L 81.0,127.0 L 75.0,129.0 L 35.0,149.0 L 34.0,149.0 L 34.0,11.0" fill="#F58E8E"/>
	<path d="M 73.0,64.0 L 86.0,64.0 L 122.0,70.0 L 122.0,142.0 L 116.0,140.0 L 82.0,123.0 L 76.0,124.0 L 40.0,142.0 L 38.0,142.0 L 38.0,71.0 L 63.0,66.0 L 73.0,64.0" fill="#FEFDFD"/>
	<path d="M 34.0,11.0 L 126.0,11.0 L 126.0,149.0 L 107.0,140.0 L 81.0,127.0 L 75.0,129.0 L 35.0,149.0 L 34.0,149.0 L 34.0,11.0 M 38.0,15.0 L 38.0,142.0 L 44.0,140.0 L 78.0,123.0 L 84.0,124.0 L 120.0,142.0 L 122.0,142.0 L 122.0,15.0 L 38.0,15.0" fill="#C94949"/>
	<path d="M 107.0,64.0 L 111.0,66.0 L 114.0,69.0 L 105.0,68.0 L 107.0,64.0" fill="#F69A9A"/>
</svg>
