<?xml version="1.0" ?>
<svg baseProfile="full" height="600px" version="1.1" viewBox="-12.06 -12.06 144.12 144.12" width="600px" xmlns="http://www.w3.org/2000/svg" xmlns:ev="http://www.w3.org/2001/xml-events" xmlns:xlink="http://www.w3.org/1999/xlink">
	<defs/>
	<path d="M 0.0,0.0 L 120.0,0.0 L 120.0,120.0 L 0.0,120.0 L 0.0,0.0" fill="#070707"/>
	<path d="M 0.0,0.0 L 120.0,0.0 L 120.0,120.0 L 0.0,120.0 L 0.0,0.0 M 49.0,12.0 L 47.0,14.0 L 47.0,20.0 L 37.0,18.0 L 26.0,17.0 L 10.0,17.0 L 8.0,19.0 L 7.0,32.0 L 4.0,35.0 L 4.0,97.0 L 6.0,101.0 L 9.0,103.0 L 23.0,104.0 L 41.0,107.0 L 53.0,111.0 L 58.0,115.0 L 64.0,114.0 L 68.0,110.0 L 83.0,106.0 L 110.0,103.0 L 114.0,101.0 L 116.0,97.0 L 116.0,35.0 L 113.0,32.0 L 112.0,19.0 L 110.0,17.0 L 89.0,17.0 L 72.0,20.0 L 61.0,23.0 L 52.0,12.0 L 49.0,12.0" fill="#FCFCFC"/>
	<path d="M 92.0,25.0 L 104.0,25.0 L 104.0,89.0 L 77.0,92.0 L 64.0,95.0 L 64.0,31.0 L 73.0,28.0 L 81.0,26.0 L 92.0,25.0" fill="#FCFCFC"/>
	<path d="M 16.0,25.0 L 30.0,25.0 L 47.0,28.0 L 48.0,93.0 L 24.0,90.0 L 16.0,89.0 L 16.0,25.0" fill="#F8F8F8"/>
</svg>
