<?xml version="1.0" ?>
<svg baseProfile="full" height="600px" version="1.1" viewBox="-16.08 -16.08 192.16 192.16" width="600px" xmlns="http://www.w3.org/2000/svg" xmlns:ev="http://www.w3.org/2001/xml-events" xmlns:xlink="http://www.w3.org/1999/xlink">
	<defs/>
	<path d="M 0.0,0.0 L 160.0,0.0 L 160.0,160.0 L 0.0,160.0 L 0.0,0.0" fill="#E0E9F1"/>
	<path d="M 4.0,19.0 L 68.0,19.0 L 74.0,23.0 L 76.0,27.0 L 76.0,137.0 L 73.0,136.0 L 4.0,135.0 L 4.0,19.0" fill="#FCFCFD"/>
	<path d="M 0.0,0.0 L 160.0,0.0 L 160.0,160.0 L 0.0,160.0 L 0.0,141.0 L 6.0,146.0 L 66.0,147.0 L 71.0,152.0 L 72.0,153.0 L 83.0,153.0 L 88.0,150.0 L 90.0,147.0 L 150.0,146.0 L 155.0,141.0 L 156.0,15.0 L 136.0,15.0 L 136.0,1.0 L 129.0,2.0 L 110.0,2.0 L 101.0,1.0 L 101.0,15.0 L 86.0,16.0 L 82.0,19.0 L 80.0,19.0 L 79.0,22.0 L 76.0,21.0 L 73.0,18.0 L 69.0,16.0 L 0.0,15.0 L 0.0,0.0" fill="#FBFBFC"/>
	<path d="M 101.0,1.0 L 136.0,1.0 L 136.0,15.0 L 156.0,15.0 L 156.0,141.0 L 152.0,146.0 L 150.0,147.0 L 90.0,148.0 L 85.0,153.0 L 83.0,154.0 L 72.0,154.0 L 66.0,149.0 L 66.0,147.0 L 6.0,147.0 L 1.0,143.0 L 0.0,141.0 L 0.0,15.0 L 69.0,15.0 L 76.0,19.0 L 77.0,21.0 L 79.0,21.0 L 84.0,16.0 L 86.0,15.0 L 101.0,15.0 L 101.0,1.0 M 4.0,19.0 L 4.0,135.0 L 73.0,136.0 L 76.0,137.0 L 76.0,27.0 L 72.0,21.0 L 68.0,19.0 L 4.0,19.0 M 87.0,19.0 L 82.0,23.0 L 80.0,27.0 L 80.0,137.0 L 83.0,136.0 L 152.0,135.0 L 152.0,19.0 L 87.0,19.0" fill="#7B8E9F"/>
	<path d="M 0.0,139.0 L 5.0,140.0 L 5.0,142.0 L 68.0,142.0 L 72.0,148.0 L 74.0,149.0 L 82.0,149.0 L 86.0,146.0 L 88.0,142.0 L 151.0,141.0 L 152.0,139.0 L 156.0,139.0 L 154.0,144.0 L 150.0,147.0 L 90.0,148.0 L 85.0,153.0 L 83.0,154.0 L 72.0,154.0 L 66.0,149.0 L 66.0,147.0 L 6.0,147.0 L 1.0,143.0 L 0.0,139.0" fill="#5F88BF"/>
	<path d="M 101.0,1.0 L 136.0,1.0 L 136.0,18.0 L 100.0,18.0 L 101.0,1.0" fill="#C94A4A"/>
	<path d="M 4.0,139.0 L 72.0,139.0 L 76.0,144.0 L 76.0,147.0 L 80.0,147.0 L 82.0,141.0 L 84.0,139.0 L 152.0,139.0 L 151.0,142.0 L 88.0,143.0 L 85.0,148.0 L 82.0,150.0 L 74.0,150.0 L 69.0,146.0 L 68.0,142.0 L 5.0,142.0 L 4.0,139.0" fill="#89B5ED"/>
	<path d="M 130.0,5.0 L 132.0,5.0 L 132.0,14.0 L 105.0,14.0 L 105.0,6.0 L 123.0,6.0 L 130.0,5.0" fill="#F68D8D"/>
</svg>
