<?xml version="1.0" ?>
<svg baseProfile="full" height="600px" version="1.1" viewBox="-12.06 -12.06 144.12 144.12" width="600px" xmlns="http://www.w3.org/2000/svg" xmlns:ev="http://www.w3.org/2001/xml-events" xmlns:xlink="http://www.w3.org/1999/xlink">
	<defs/>
	<path d="M 0.0,0.0 L 120.0,0.0 L 120.0,120.0 L 0.0,120.0 L 0.0,0.0" fill="#030303"/>
	<path d="M 0.0,0.0 L 120.0,0.0 L 120.0,120.0 L 0.0,120.0 L 0.0,0.0 M 64.0,14.0 L 59.0,19.0 L 57.0,24.0 L 49.0,21.0 L 25.0,18.0 L 10.0,18.0 L 8.0,20.0 L 7.0,33.0 L 4.0,36.0 L 4.0,98.0 L 6.0,102.0 L 9.0,104.0 L 31.0,106.0 L 48.0,110.0 L 53.0,112.0 L 57.0,116.0 L 64.0,115.0 L 68.0,111.0 L 83.0,107.0 L 97.0,105.0 L 111.0,104.0 L 115.0,101.0 L 116.0,98.0 L 116.0,37.0 L 113.0,33.0 L 112.0,19.0 L 110.0,17.0 L 85.0,17.0 L 71.0,20.0 L 70.0,14.0 L 64.0,14.0" fill="#FCFCFC"/>
	<path d="M 16.0,26.0 L 30.0,26.0 L 50.0,30.0 L 56.0,32.0 L 56.0,96.0 L 35.0,92.0 L 16.0,90.0 L 16.0,26.0" fill="#FCFCFC"/>
	<path d="M 86.0,25.0 L 104.0,25.0 L 104.0,90.0 L 80.0,92.0 L 67.0,95.0 L 70.0,90.0 L 71.0,29.0 L 77.0,27.0 L 86.0,25.0" fill="#FCFCFC"/>
</svg>
