<?xml version="1.0" ?>
<svg baseProfile="full" height="600px" version="1.1" viewBox="-20.1 -20.1 240.2 240.2" width="600px" xmlns="http://www.w3.org/2000/svg" xmlns:ev="http://www.w3.org/2001/xml-events" xmlns:xlink="http://www.w3.org/1999/xlink">
	<defs/>
	<path d="M 0.0,0.0 L 200.0,0.0 L 200.0,200.0 L 0.0,200.0 L 0.0,0.0" fill="#050505"/>
	<path d="M 17.0,24.0 L 86.0,24.0 L 92.0,27.0 L 95.0,31.0 L 96.0,34.0 L 96.0,168.0 L 87.0,165.0 L 15.0,164.0 L 10.0,160.0 L 8.0,156.0 L 8.0,33.0 L 12.0,27.0 L 17.0,24.0" fill="#FDFDFD"/>
	<path d="M 113.0,24.0 L 128.0,24.0 L 129.0,97.0 L 134.0,98.0 L 147.0,88.0 L 152.0,90.0 L 162.0,98.0 L 167.0,97.0 L 168.0,24.0 L 182.0,24.0 L 188.0,27.0 L 191.0,31.0 L 192.0,34.0 L 192.0,155.0 L 189.0,161.0 L 184.0,164.0 L 112.0,165.0 L 104.0,168.0 L 104.0,33.0 L 108.0,27.0 L 113.0,24.0" fill="#FDFDFD"/>
	<path d="M 0.0,157.0 L 2.0,160.0 L 6.0,166.0 L 13.0,171.0 L 86.0,172.0 L 92.0,175.0 L 96.0,181.0 L 97.0,188.0 L 103.0,188.0 L 105.0,179.0 L 109.0,174.0 L 113.0,172.0 L 187.0,171.0 L 195.0,165.0 L 199.0,157.0 L 200.0,157.0 L 200.0,200.0 L 0.0,200.0 L 0.0,157.0" fill="#FAFAFA"/>
	<path d="M 0.0,0.0 L 200.0,0.0 L 200.0,31.0 L 197.0,27.0 L 191.0,20.0 L 183.0,17.0 L 112.0,17.0 L 104.0,21.0 L 101.0,24.0 L 97.0,22.0 L 93.0,19.0 L 87.0,17.0 L 16.0,17.0 L 8.0,21.0 L 3.0,27.0 L 0.0,31.0 L 0.0,0.0" fill="#FDFDFD"/>
	<path d="M 136.0,24.0 L 160.0,24.0 L 160.0,86.0 L 153.0,82.0 L 151.0,80.0 L 145.0,80.0 L 137.0,86.0 L 136.0,86.0 L 136.0,24.0" fill="#FBFBFB"/>
</svg>
