<?xml version="1.0" ?>
<svg baseProfile="full" height="600px" version="1.1" viewBox="-16.08 -16.08 192.16 192.16" width="600px" xmlns="http://www.w3.org/2000/svg" xmlns:ev="http://www.w3.org/2001/xml-events" xmlns:xlink="http://www.w3.org/1999/xlink">
	<defs/>
	<path d="M 0.0,0.0 L 160.0,0.0 L 160.0,160.0 L 0.0,160.0 L 0.0,0.0" fill="#FEFDFD"/>
	<path d="M 71.0,16.0 L 88.0,16.0 L 123.0,19.0 L 124.0,20.0 L 124.0,145.0 L 118.0,143.0 L 82.0,125.0 L 76.0,126.0 L 38.0,145.0 L 36.0,145.0 L 36.0,20.0 L 71.0,16.0" fill="#FEFDFD"/>
	<path d="M 32.0,8.0 L 128.0,8.0 L 128.0,152.0 L 109.0,143.0 L 81.0,129.0 L 75.0,131.0 L 33.0,152.0 L 32.0,152.0 L 32.0,8.0 M 71.0,16.0 L 36.0,20.0 L 36.0,145.0 L 42.0,143.0 L 78.0,125.0 L 84.0,126.0 L 122.0,145.0 L 124.0,145.0 L 124.0,20.0 L 123.0,19.0 L 88.0,16.0 L 71.0,16.0" fill="#C84545"/>
	<path d="M 36.0,12.0 L 124.0,12.0 L 124.0,20.0 L 88.0,17.0 L 71.0,17.0 L 44.0,20.0 L 36.0,20.0 L 36.0,12.0" fill="#F58F8F"/>
	<path d="M 75.0,12.0 L 79.0,13.0 L 78.0,15.0 L 91.0,14.0 L 96.0,15.0 L 96.0,17.0 L 64.0,17.0 L 65.0,14.0 L 73.0,14.0 L 75.0,12.0" fill="#F69292"/>
	<path d="M 128.0,14.0 L 144.0,21.0 L 144.0,22.0 L 128.0,21.0 L 128.0,14.0" fill="#F69090"/>
	<path d="M 30.0,15.0 L 32.0,15.0 L 32.0,21.0 L 19.0,22.0 L 23.0,19.0 L 30.0,15.0" fill="#F69393"/>
	<path d="M 85.0,14.0 L 95.0,14.0 L 96.0,17.0 L 78.0,16.0 L 78.0,15.0 L 85.0,14.0" fill="#F79E9E"/>
	<path d="M 135.0,18.0 L 144.0,21.0 L 144.0,22.0 L 128.0,21.0 L 128.0,20.0 L 135.0,19.0 L 135.0,18.0" fill="#F7ABAB"/>
	<path d="M 26.0,17.0 L 28.0,17.0 L 28.0,19.0 L 26.0,19.0 L 26.0,22.0 L 19.0,22.0 L 23.0,19.0 L 26.0,17.0" fill="#F8A7A7"/>
</svg>
