<?xml version="1.0" ?>
<svg baseProfile="full" height="600px" version="1.1" viewBox="-12.864 -12.864 153.728 153.728" width="600px" xmlns="http://www.w3.org/2000/svg" xmlns:ev="http://www.w3.org/2001/xml-events" xmlns:xlink="http://www.w3.org/1999/xlink">
	<defs/>
	<path d="M 0.0,0.0 L 128.0,0.0 L 128.0,128.0 L 0.0,128.0 L 0.0,0.0" fill="#090909"/>
	<path d="M 0.0,0.0 L 128.0,0.0 L 128.0,128.0 L 0.0,128.0 L 0.0,0.0 M 23.0,15.0 L 21.0,18.0 L 21.0,23.0 L 12.0,26.0 L 12.0,108.0 L 57.0,109.0 L 61.0,112.0 L 69.0,111.0 L 71.0,109.0 L 116.0,108.0 L 116.0,26.0 L 106.0,22.0 L 97.0,20.0 L 80.0,20.0 L 67.0,23.0 L 60.0,22.0 L 49.0,18.0 L 32.0,15.0 L 23.0,15.0" fill="#FDFDFD"/>
	<path d="M 81.0,28.0 L 94.0,28.0 L 106.0,31.0 L 108.0,32.0 L 108.0,96.0 L 95.0,94.0 L 82.0,94.0 L 68.0,96.0 L 68.0,31.0 L 81.0,28.0" fill="#FCFCFC"/>
	<path d="M 30.0,24.0 L 38.0,24.0 L 54.0,28.0 L 60.0,31.0 L 60.0,95.0 L 51.0,92.0 L 30.0,88.0 L 30.0,24.0" fill="#FCFCFC"/>
</svg>
