<?xml version="1.0" ?>
<svg baseProfile="full" height="600px" version="1.1" viewBox="-20.1 -20.1 240.2 240.2" width="600px" xmlns="http://www.w3.org/2000/svg" xmlns:ev="http://www.w3.org/2001/xml-events" xmlns:xlink="http://www.w3.org/1999/xlink">
	<defs/>
	<path d="M 0.0,0.0 L 200.0,0.0 L 200.0,200.0 L 0.0,200.0 L 0.0,0.0" fill="#020202"/>
	<path d="M 16.0,27.0 L 87.0,27.0 L 92.0,30.0 L 96.0,35.0 L 96.0,171.0 L 89.0,168.0 L 16.0,167.0 L 9.0,161.0 L 8.0,159.0 L 8.0,35.0 L 14.0,28.0 L 16.0,27.0" fill="#FDFDFD"/>
	<path d="M 112.0,27.0 L 128.0,27.0 L 129.0,102.0 L 134.0,103.0 L 147.0,93.0 L 151.0,95.0 L 162.0,103.0 L 167.0,102.0 L 168.0,27.0 L 183.0,27.0 L 188.0,30.0 L 192.0,35.0 L 192.0,159.0 L 186.0,166.0 L 184.0,167.0 L 110.0,168.0 L 104.0,171.0 L 104.0,35.0 L 110.0,28.0 L 112.0,27.0" fill="#FDFDFD"/>
	<path d="M 0.0,160.0 L 2.0,162.0 L 6.0,169.0 L 12.0,173.0 L 15.0,174.0 L 87.0,175.0 L 92.0,178.0 L 96.0,183.0 L 98.0,190.0 L 103.0,189.0 L 105.0,181.0 L 112.0,175.0 L 185.0,174.0 L 193.0,170.0 L 198.0,163.0 L 200.0,160.0 L 200.0,200.0 L 0.0,200.0 L 0.0,160.0" fill="#FDFDFD"/>
	<path d="M 0.0,0.0 L 200.0,0.0 L 200.0,35.0 L 198.0,31.0 L 193.0,24.0 L 185.0,20.0 L 110.0,20.0 L 101.0,26.0 L 97.0,24.0 L 89.0,20.0 L 14.0,20.0 L 5.0,26.0 L 1.0,34.0 L 0.0,34.0 L 0.0,0.0" fill="#FCFCFC"/>
	<path d="M 136.0,27.0 L 160.0,27.0 L 160.0,91.0 L 156.0,89.0 L 152.0,86.0 L 144.0,86.0 L 138.0,91.0 L 136.0,91.0 L 136.0,27.0" fill="#FDFDFD"/>
</svg>
