<?xml version="1.0" ?>
<svg baseProfile="full" height="600px" version="1.1" viewBox="-12.06 -12.06 144.12 144.12" width="600px" xmlns="http://www.w3.org/2000/svg" xmlns:ev="http://www.w3.org/2001/xml-events" xmlns:xlink="http://www.w3.org/1999/xlink">
	<defs/>
	<path d="M 0.0,0.0 L 120.0,0.0 L 120.0,120.0 L 0.0,120.0 L 0.0,0.0" fill="#040404"/>
	<path d="M 0.0,0.0 L 120.0,0.0 L 120.0,120.0 L 0.0,120.0 L 0.0,0.0 M 31.0,12.0 L 29.0,16.0 L 9.0,16.0 L 8.0,17.0 L 7.0,30.0 L 4.0,34.0 L 4.0,96.0 L 8.0,101.0 L 11.0,102.0 L 28.0,103.0 L 46.0,107.0 L 53.0,108.0 L 55.0,112.0 L 57.0,113.0 L 63.0,113.0 L 67.0,110.0 L 67.0,108.0 L 93.0,103.0 L 111.0,101.0 L 116.0,96.0 L 116.0,34.0 L 113.0,30.0 L 112.0,17.0 L 111.0,16.0 L 84.0,16.0 L 66.0,20.0 L 58.0,21.0 L 41.0,14.0 L 35.0,12.0 L 31.0,12.0" fill="#FBFBFB"/>
	<path d="M 88.0,24.0 L 104.0,24.0 L 104.0,88.0 L 79.0,90.0 L 67.0,93.0 L 64.0,93.0 L 64.0,30.0 L 70.0,27.0 L 78.0,25.0 L 88.0,24.0" fill="#FCFCFC"/>
	<path d="M 37.0,22.0 L 47.0,25.0 L 56.0,30.0 L 56.0,93.0 L 40.0,87.0 L 37.0,86.0 L 37.0,22.0" fill="#FCFCFC"/>
	<path d="M 16.0,24.0 L 29.0,24.0 L 29.0,88.0 L 16.0,88.0 L 16.0,24.0" fill="#F5F5F5"/>
</svg>
