<?xml version="1.0" ?>
<svg baseProfile="full" height="600px" version="1.1" viewBox="-12.864 -12.864 153.728 153.728" width="600px" xmlns="http://www.w3.org/2000/svg" xmlns:ev="http://www.w3.org/2001/xml-events" xmlns:xlink="http://www.w3.org/1999/xlink">
	<defs/>
	<path d="M 0.0,0.0 L 128.0,0.0 L 128.0,128.0 L 0.0,128.0 L 0.0,0.0" fill="#FDFDFD"/>
	<path d="M 28.0,20.0 L 100.0,20.0 L 100.0,112.0 L 91.0,106.0 L 73.0,92.0 L 65.0,86.0 L 61.0,88.0 L 42.0,102.0 L 29.0,112.0 L 28.0,112.0 L 28.0,20.0" fill="#010101"/>
	<path d="M 69.0,28.0 L 92.0,28.0 L 92.0,41.0 L 85.0,35.0 L 77.0,31.0 L 69.0,29.0 L 69.0,28.0" fill="#F2F2F2"/>
	<path d="M 36.0,28.0 L 60.0,28.0 L 60.0,29.0 L 50.0,31.0 L 41.0,37.0 L 36.0,41.0 L 36.0,28.0" fill="#F3F3F3"/>
	<path d="M 91.0,87.0 L 92.0,87.0 L 92.0,96.0 L 87.0,93.0 L 89.0,89.0 L 91.0,87.0" fill="#DFDFDF"/>
	<path d="M 36.0,87.0 L 41.0,91.0 L 41.0,93.0 L 36.0,96.0 L 36.0,87.0" fill="#DFDFDF"/>
</svg>
