<?xml version="1.0" ?>
<svg baseProfile="full" height="600px" version="1.1" viewBox="-20.1 -20.1 240.2 240.2" width="600px" xmlns="http://www.w3.org/2000/svg" xmlns:ev="http://www.w3.org/2001/xml-events" xmlns:xlink="http://www.w3.org/1999/xlink">
	<defs/>
	<path d="M 0.0,0.0 L 200.0,0.0 L 200.0,200.0 L 0.0,200.0 L 0.0,0.0" fill="#020202"/>
	<path d="M 16.0,28.0 L 87.0,28.0 L 92.0,31.0 L 96.0,36.0 L 96.0,172.0 L 89.0,169.0 L 16.0,168.0 L 9.0,162.0 L 8.0,159.0 L 8.0,36.0 L 14.0,29.0 L 16.0,28.0" fill="#FDFDFD"/>
	<path d="M 112.0,28.0 L 128.0,28.0 L 129.0,102.0 L 134.0,103.0 L 147.0,93.0 L 151.0,95.0 L 162.0,103.0 L 167.0,102.0 L 168.0,28.0 L 183.0,28.0 L 188.0,31.0 L 192.0,36.0 L 192.0,160.0 L 186.0,167.0 L 184.0,168.0 L 112.0,169.0 L 104.0,172.0 L 104.0,36.0 L 110.0,29.0 L 112.0,28.0" fill="#FDFDFD"/>
	<path d="M 0.0,161.0 L 2.0,164.0 L 7.0,171.0 L 15.0,175.0 L 87.0,176.0 L 92.0,179.0 L 96.0,184.0 L 98.0,191.0 L 103.0,190.0 L 105.0,182.0 L 112.0,176.0 L 185.0,175.0 L 193.0,171.0 L 198.0,164.0 L 200.0,161.0 L 200.0,200.0 L 0.0,200.0 L 0.0,161.0" fill="#FDFDFD"/>
	<path d="M 0.0,0.0 L 200.0,0.0 L 200.0,35.0 L 198.0,32.0 L 193.0,25.0 L 185.0,21.0 L 112.0,21.0 L 105.0,24.0 L 101.0,27.0 L 97.0,25.0 L 89.0,21.0 L 16.0,21.0 L 9.0,24.0 L 4.0,29.0 L 1.0,35.0 L 0.0,35.0 L 0.0,0.0" fill="#FDFDFD"/>
	<path d="M 136.0,28.0 L 160.0,28.0 L 160.0,92.0 L 151.0,86.0 L 145.0,86.0 L 136.0,92.0 L 136.0,28.0" fill="#FCFCFC"/>
</svg>
