<?xml version="1.0" ?>
<svg baseProfile="full" height="600px" version="1.1" viewBox="-12.06 -12.06 144.12 144.12" width="600px" xmlns="http://www.w3.org/2000/svg" xmlns:ev="http://www.w3.org/2001/xml-events" xmlns:xlink="http://www.w3.org/1999/xlink">
	<defs/>
	<path d="M 0.0,0.0 L 120.0,0.0 L 120.0,120.0 L 0.0,120.0 L 0.0,0.0" fill="#090909"/>
	<path d="M 0.0,0.0 L 120.0,0.0 L 120.0,120.0 L 0.0,120.0 L 0.0,0.0 M 84.0,13.0 L 67.0,17.0 L 60.0,21.0 L 49.0,18.0 L 39.0,16.0 L 24.0,15.0 L 10.0,15.0 L 8.0,17.0 L 7.0,30.0 L 4.0,34.0 L 4.0,95.0 L 7.0,100.0 L 9.0,101.0 L 34.0,104.0 L 48.0,107.0 L 53.0,109.0 L 57.0,113.0 L 64.0,112.0 L 68.0,108.0 L 89.0,103.0 L 111.0,101.0 L 116.0,96.0 L 116.0,33.0 L 113.0,30.0 L 112.0,16.0 L 110.0,14.0 L 100.0,13.0 L 84.0,13.0" fill="#FCFCFC"/>
	<path d="M 16.0,23.0 L 30.0,23.0 L 46.0,26.0 L 56.0,29.0 L 56.0,93.0 L 37.0,89.0 L 16.0,87.0 L 16.0,23.0" fill="#FCFCFC"/>
	<path d="M 79.0,22.0 L 94.0,22.0 L 94.0,85.0 L 74.0,88.0 L 64.0,91.0 L 64.0,28.0 L 71.0,24.0 L 79.0,22.0" fill="#FCFCFC"/>
</svg>
