<?xml version="1.0" ?>
<svg baseProfile="full" height="600px" version="1.1" viewBox="-16.08 -16.08 192.16 192.16" width="600px" xmlns="http://www.w3.org/2000/svg" xmlns:ev="http://www.w3.org/2001/xml-events" xmlns:xlink="http://www.w3.org/1999/xlink">
	<defs/>
	<path d="M 0.0,0.0 L 160.0,0.0 L 160.0,160.0 L 0.0,160.0 L 0.0,0.0" fill="#FEFDFD"/>
	<path d="M 34.0,11.0 L 126.0,11.0 L 126.0,148.0 L 120.0,146.0 L 82.0,127.0 L 76.0,128.0 L 36.0,148.0 L 34.0,148.0 L 34.0,11.0" fill="#F58D8D"/>
	<path d="M 38.0,39.0 L 39.0,39.0 L 43.0,83.0 L 43.0,98.0 L 75.0,90.0 L 86.0,90.0 L 112.0,96.0 L 119.0,98.0 L 119.0,84.0 L 120.0,63.0 L 121.0,54.0 L 122.0,54.0 L 122.0,142.0 L 116.0,140.0 L 82.0,123.0 L 76.0,124.0 L 40.0,142.0 L 38.0,142.0 L 38.0,39.0" fill="#FDF9F9"/>
	<path d="M 34.0,11.0 L 126.0,11.0 L 126.0,148.0 L 120.0,146.0 L 82.0,127.0 L 76.0,128.0 L 36.0,148.0 L 34.0,148.0 L 34.0,11.0 M 38.0,15.0 L 38.0,142.0 L 44.0,140.0 L 78.0,123.0 L 84.0,124.0 L 120.0,142.0 L 122.0,142.0 L 122.0,15.0 L 38.0,15.0" fill="#CC5454"/>
	<path d="M 119.0,72.0 L 120.0,72.0 L 120.0,84.0 L 119.0,98.0 L 112.0,97.0 L 113.0,94.0 L 117.0,93.0 L 117.0,90.0 L 116.0,87.0 L 116.0,84.0 L 117.0,81.0 L 117.0,78.0 L 116.0,75.0 L 119.0,72.0" fill="#F69696"/>
	<path d="M 103.0,92.0 L 109.0,92.0 L 110.0,96.0 L 102.0,95.0 L 103.0,92.0" fill="#F69898"/>
	<path d="M 119.0,72.0 L 120.0,72.0 L 120.0,84.0 L 119.0,84.0 L 117.0,77.0 L 117.0,74.0 L 119.0,72.0" fill="#F8A3A3"/>
	<path d="M 77.0,86.0 L 80.0,87.0 L 80.0,89.0 L 82.0,90.0 L 74.0,91.0 L 76.0,87.0 L 77.0,86.0" fill="#F69999"/>
	<path d="M 121.0,42.0 L 122.0,42.0 L 122.0,54.0 L 121.0,54.0 L 121.0,47.0 L 118.0,46.0 L 119.0,44.0 L 121.0,44.0 L 121.0,42.0" fill="#F19A9A"/>
	<path d="M 41.0,54.0 L 44.0,55.0 L 41.0,63.0 L 40.0,63.0 L 40.0,55.0 L 41.0,54.0" fill="#F69797"/>
</svg>
