<?xml version="1.0" ?>
<svg baseProfile="full" height="600px" version="1.1" viewBox="-12.06 -12.06 144.12 144.12" width="600px" xmlns="http://www.w3.org/2000/svg" xmlns:ev="http://www.w3.org/2001/xml-events" xmlns:xlink="http://www.w3.org/1999/xlink">
	<defs/>
	<path d="M 0.0,0.0 L 120.0,0.0 L 120.0,120.0 L 0.0,120.0 L 0.0,0.0" fill="#040404"/>
	<path d="M 0.0,0.0 L 120.0,0.0 L 120.0,120.0 L 0.0,120.0 L 0.0,0.0 M 10.0,14.0 L 8.0,16.0 L 7.0,29.0 L 4.0,33.0 L 4.0,95.0 L 9.0,100.0 L 26.0,102.0 L 48.0,106.0 L 53.0,107.0 L 55.0,111.0 L 57.0,112.0 L 63.0,112.0 L 67.0,109.0 L 67.0,107.0 L 92.0,102.0 L 111.0,100.0 L 116.0,95.0 L 116.0,33.0 L 113.0,29.0 L 112.0,16.0 L 110.0,14.0 L 91.0,14.0 L 72.0,17.0 L 62.0,20.0 L 54.0,19.0 L 41.0,16.0 L 25.0,14.0 L 10.0,14.0" fill="#FCFCFC"/>
	<path d="M 16.0,22.0 L 34.0,23.0 L 50.0,26.0 L 56.0,29.0 L 56.0,92.0 L 49.0,91.0 L 34.0,88.0 L 16.0,86.0 L 16.0,22.0" fill="#FCFCFC"/>
	<path d="M 87.0,23.0 L 104.0,23.0 L 104.0,87.0 L 86.0,88.0 L 64.0,92.0 L 64.0,28.0 L 73.0,25.0 L 87.0,23.0" fill="#FCFCFC"/>
</svg>
