<?xml version="1.0" ?>
<svg baseProfile="full" height="600px" version="1.1" viewBox="-20.1 -20.1 240.2 240.2" width="600px" xmlns="http://www.w3.org/2000/svg" xmlns:ev="http://www.w3.org/2001/xml-events" xmlns:xlink="http://www.w3.org/1999/xlink">
	<defs/>
	<path d="M 0.0,0.0 L 200.0,0.0 L 200.0,200.0 L 0.0,200.0 L 0.0,0.0" fill="#FDFDFD"/>
	<path d="M 52.0,10.0 L 148.0,10.0 L 151.0,12.0 L 151.0,187.0 L 149.0,190.0 L 144.0,189.0 L 121.0,176.0 L 101.0,164.0 L 96.0,166.0 L 68.0,182.0 L 55.0,190.0 L 50.0,189.0 L 49.0,187.0 L 49.0,13.0 L 52.0,10.0" fill="#030303"/>
	<path d="M 57.0,92.0 L 58.0,92.0 L 60.0,122.0 L 62.0,158.0 L 62.0,170.0 L 88.0,155.0 L 98.0,149.0 L 103.0,150.0 L 127.0,163.0 L 139.0,170.0 L 139.0,148.0 L 142.0,97.0 L 143.0,97.0 L 143.0,179.0 L 132.0,173.0 L 111.0,161.0 L 103.0,156.0 L 97.0,156.0 L 70.0,172.0 L 58.0,179.0 L 57.0,179.0 L 57.0,92.0" fill="#EDEDED"/>
	<path d="M 142.0,97.0 L 143.0,97.0 L 143.0,179.0 L 142.0,179.0 L 141.0,143.0 L 140.0,143.0 L 140.0,129.0 L 142.0,97.0" fill="#D3D3D3"/>
</svg>
