<?xml version="1.0" ?>
<svg baseProfile="full" height="600px" version="1.1" viewBox="-9.648000000000001 -9.648000000000001 115.296 115.296" width="600px" xmlns="http://www.w3.org/2000/svg" xmlns:ev="http://www.w3.org/2001/xml-events" xmlns:xlink="http://www.w3.org/1999/xlink">
	<defs/>
	<path d="M 0.0,0.0 L 96.0,0.0 L 96.0,96.0 L 0.0,96.0 L 0.0,0.0" fill="#020202"/>
	<path d="M 0.0,0.0 L 96.0,0.0 L 96.0,96.0 L 0.0,96.0 L 0.0,0.0 M 21.0,8.0 L 16.0,13.0 L 16.0,88.0 L 36.0,81.0 L 47.0,77.0 L 57.0,80.0 L 78.0,88.0 L 80.0,88.0 L 80.0,13.0 L 75.0,8.0 L 21.0,8.0" fill="#FDFDFD"/>
	<path d="M 42.0,29.0 L 54.0,29.0 L 60.0,33.0 L 64.0,38.0 L 65.0,40.0 L 65.0,50.0 L 60.0,58.0 L 53.0,62.0 L 44.0,62.0 L 37.0,58.0 L 33.0,53.0 L 32.0,50.0 L 32.0,39.0 L 37.0,32.0 L 42.0,29.0" fill="#F9F9F9"/>
</svg>
