<?xml version="1.0" ?>
<svg baseProfile="full" height="600px" version="1.1" viewBox="-9.648000000000001 -9.648000000000001 115.296 115.296" width="600px" xmlns="http://www.w3.org/2000/svg" xmlns:ev="http://www.w3.org/2001/xml-events" xmlns:xlink="http://www.w3.org/1999/xlink">
	<defs/>
	<path d="M 0.0,0.0 L 96.0,0.0 L 96.0,96.0 L 0.0,96.0 L 0.0,0.0" fill="#FCFCFC"/>
	<path d="M 8.0,16.0 L 35.0,16.0 L 41.0,19.0 L 44.0,24.0 L 45.0,78.0 L 50.0,79.0 L 60.0,65.0 L 65.0,56.0 L 66.0,16.0 L 88.0,16.0 L 88.0,74.0 L 85.0,79.0 L 82.0,80.0 L 55.0,81.0 L 51.0,84.0 L 45.0,84.0 L 41.0,81.0 L 13.0,80.0 L 8.0,75.0 L 8.0,16.0" fill="#010101"/>
	<path d="M 57.0,13.0 L 58.0,13.0 L 58.0,54.0 L 53.0,63.0 L 52.0,63.0 L 52.0,20.0 L 57.0,13.0" fill="#070707"/>
</svg>
