<?xml version="1.0" ?>
<svg baseProfile="full" height="600px" version="1.1" viewBox="-20.1 -20.1 240.2 240.2" width="600px" xmlns="http://www.w3.org/2000/svg" xmlns:ev="http://www.w3.org/2001/xml-events" xmlns:xlink="http://www.w3.org/1999/xlink">
	<defs/>
	<path d="M 0.0,0.0 L 200.0,0.0 L 200.0,200.0 L 0.0,200.0 L 0.0,0.0" fill="#FDFDFD"/>
	<path d="M 56.0,16.0 L 144.0,16.0 L 144.0,181.0 L 133.0,175.0 L 107.0,160.0 L 102.0,157.0 L 96.0,158.0 L 72.0,172.0 L 57.0,181.0 L 56.0,181.0 L 56.0,16.0" fill="#FDFDFD"/>
	<path d="M 50.0,8.0 L 150.0,8.0 L 152.0,10.0 L 152.0,190.0 L 150.0,192.0 L 144.0,191.0 L 117.0,175.0 L 101.0,166.0 L 95.0,168.0 L 71.0,182.0 L 54.0,192.0 L 49.0,191.0 L 48.0,190.0 L 48.0,10.0 L 50.0,8.0 M 56.0,16.0 L 56.0,181.0 L 67.0,175.0 L 93.0,160.0 L 98.0,157.0 L 104.0,158.0 L 131.0,174.0 L 143.0,181.0 L 144.0,181.0 L 144.0,16.0 L 56.0,16.0" fill="#020202"/>
</svg>
