<?xml version="1.0" ?>
<svg baseProfile="full" height="600px" version="1.1" viewBox="-19.296000000000003 -19.296000000000003 230.592 230.592" width="600px" xmlns="http://www.w3.org/2000/svg" xmlns:ev="http://www.w3.org/2001/xml-events" xmlns:xlink="http://www.w3.org/1999/xlink">
	<defs/>
	<path d="M 0.0,0.0 L 192.0,0.0 L 192.0,192.0 L 0.0,192.0 L 0.0,0.0" fill="#FEFDFD"/>
	<path d="M 32.0,28.0 L 54.0,29.0 L 77.0,32.0 L 87.0,35.0 L 92.0,39.0 L 100.0,40.0 L 101.0,142.0 L 105.0,139.0 L 121.0,135.0 L 139.0,133.0 L 161.0,133.0 L 167.0,142.0 L 167.0,47.0 L 165.0,41.0 L 180.0,41.0 L 180.0,157.0 L 111.0,157.0 L 110.0,160.0 L 101.0,165.0 L 92.0,165.0 L 82.0,160.0 L 81.0,157.0 L 12.0,157.0 L 12.0,40.0 L 28.0,40.0 L 29.0,35.0 L 32.0,28.0" fill="#EEEAE8"/>
	<path d="M 126.0,27.0 L 148.0,27.0 L 161.0,29.0 L 164.0,37.0 L 164.0,40.0 L 180.0,40.0 L 180.0,41.0 L 166.0,42.0 L 168.0,47.0 L 168.0,144.0 L 164.0,140.0 L 161.0,135.0 L 161.0,133.0 L 139.0,134.0 L 116.0,137.0 L 103.0,141.0 L 100.0,143.0 L 100.0,39.0 L 104.0,34.0 L 115.0,29.0 L 126.0,27.0" fill="#EEEAE8"/>
	<path d="M 12.0,41.0 L 27.0,41.0 L 25.0,47.0 L 24.0,145.0 L 168.0,145.0 L 167.0,47.0 L 165.0,41.0 L 180.0,41.0 L 180.0,157.0 L 111.0,157.0 L 110.0,160.0 L 101.0,165.0 L 92.0,165.0 L 82.0,160.0 L 81.0,157.0 L 12.0,157.0 L 12.0,41.0" fill="#D23030"/>
	<path d="M 92.0,40.0 L 100.0,40.0 L 101.0,142.0 L 105.0,139.0 L 121.0,135.0 L 139.0,133.0 L 161.0,133.0 L 168.0,144.0 L 168.0,145.0 L 24.0,145.0 L 31.0,133.0 L 54.0,133.0 L 71.0,135.0 L 85.0,138.0 L 91.0,142.0 L 92.0,40.0" fill="#BCAAA4"/>
	<path d="M 160.0,30.0 L 163.0,34.0 L 164.0,40.0 L 180.0,40.0 L 180.0,41.0 L 166.0,42.0 L 168.0,47.0 L 168.0,144.0 L 164.0,140.0 L 160.0,133.0 L 160.0,30.0" fill="#D7CBC6"/>
	<path d="M 31.0,31.0 L 32.0,31.0 L 32.0,133.0 L 25.0,144.0 L 24.0,144.0 L 24.0,47.0 L 26.0,42.0 L 12.0,41.0 L 12.0,40.0 L 28.0,40.0 L 29.0,35.0 L 31.0,31.0" fill="#D7CBC6"/>
	<path d="M 84.0,145.0 L 108.0,145.0 L 107.0,151.0 L 101.0,156.0 L 99.0,157.0 L 92.0,157.0 L 86.0,152.0 L 84.0,149.0 L 84.0,145.0" fill="#500808"/>
</svg>
