<?xml version="1.0" ?>
<svg baseProfile="full" height="600px" version="1.1" viewBox="-20.1 -20.1 240.2 240.2" width="600px" xmlns="http://www.w3.org/2000/svg" xmlns:ev="http://www.w3.org/2001/xml-events" xmlns:xlink="http://www.w3.org/1999/xlink">
	<defs/>
	<path d="M 0.0,0.0 L 200.0,0.0 L 200.0,200.0 L 0.0,200.0 L 0.0,0.0" fill="#FDFDFD"/>
	<path d="M 52.0,12.0 L 148.0,12.0 L 150.0,14.0 L 150.0,186.0 L 148.0,188.0 L 142.0,187.0 L 118.0,173.0 L 101.0,163.0 L 96.0,165.0 L 80.0,174.0 L 56.0,188.0 L 51.0,187.0 L 50.0,186.0 L 50.0,14.0 L 52.0,12.0" fill="#030303"/>
	<path d="M 96.0,79.0 L 104.0,79.0 L 122.0,84.0 L 142.0,90.0 L 142.0,177.0 L 137.0,175.0 L 111.0,160.0 L 103.0,155.0 L 97.0,155.0 L 75.0,168.0 L 60.0,177.0 L 58.0,177.0 L 58.0,91.0 L 66.0,88.0 L 89.0,81.0 L 96.0,79.0" fill="#FCFCFC"/>
</svg>
