<?xml version="1.0" ?>
<svg baseProfile="full" height="600px" version="1.1" viewBox="-20.1 -20.1 240.2 240.2" width="600px" xmlns="http://www.w3.org/2000/svg" xmlns:ev="http://www.w3.org/2001/xml-events" xmlns:xlink="http://www.w3.org/1999/xlink">
	<defs/>
	<path d="M 0.0,0.0 L 200.0,0.0 L 200.0,200.0 L 0.0,200.0 L 0.0,0.0" fill="#050505"/>
	<path d="M 15.0,31.0 L 88.0,31.0 L 94.0,35.0 L 96.0,39.0 L 96.0,174.0 L 91.0,172.0 L 17.0,171.0 L 11.0,167.0 L 8.0,162.0 L 8.0,39.0 L 12.0,33.0 L 15.0,31.0" fill="#FDFDFD"/>
	<path d="M 111.0,31.0 L 184.0,31.0 L 190.0,35.0 L 192.0,39.0 L 192.0,161.0 L 189.0,167.0 L 185.0,170.0 L 182.0,171.0 L 109.0,172.0 L 104.0,174.0 L 104.0,39.0 L 108.0,33.0 L 111.0,31.0" fill="#FDFDFD"/>
	<path d="M 0.0,163.0 L 2.0,166.0 L 6.0,172.0 L 11.0,176.0 L 16.0,178.0 L 88.0,179.0 L 94.0,183.0 L 96.0,187.0 L 97.0,193.0 L 103.0,193.0 L 105.0,185.0 L 110.0,180.0 L 111.0,179.0 L 183.0,178.0 L 192.0,174.0 L 197.0,168.0 L 199.0,163.0 L 200.0,163.0 L 200.0,200.0 L 0.0,200.0 L 0.0,163.0" fill="#FDFDFD"/>
	<path d="M 0.0,0.0 L 200.0,0.0 L 200.0,37.0 L 197.0,33.0 L 192.0,27.0 L 187.0,24.0 L 168.0,23.0 L 167.0,5.0 L 159.0,5.0 L 150.0,8.0 L 142.0,7.0 L 134.0,4.0 L 129.0,5.0 L 128.0,23.0 L 109.0,24.0 L 101.0,30.0 L 97.0,28.0 L 91.0,24.0 L 13.0,24.0 L 5.0,30.0 L 1.0,37.0 L 0.0,37.0 L 0.0,0.0" fill="#FAFAFA"/>
	<path d="M 136.0,13.0 L 144.0,15.0 L 151.0,15.0 L 160.0,13.0 L 160.0,23.0 L 136.0,23.0 L 136.0,13.0" fill="#EAEAEA"/>
</svg>
