<?xml version="1.0" ?>
<svg baseProfile="full" height="600px" version="1.1" viewBox="-16.08 -16.08 192.16 192.16" width="600px" xmlns="http://www.w3.org/2000/svg" xmlns:ev="http://www.w3.org/2001/xml-events" xmlns:xlink="http://www.w3.org/1999/xlink">
	<defs/>
	<path d="M 0.0,0.0 L 160.0,0.0 L 160.0,160.0 L 0.0,160.0 L 0.0,0.0" fill="#FEFDFD"/>
	<path d="M 32.0,8.0 L 128.0,8.0 L 128.0,152.0 L 109.0,143.0 L 81.0,129.0 L 75.0,131.0 L 33.0,152.0 L 32.0,152.0 L 32.0,8.0" fill="#F58D8D"/>
	<path d="M 32.0,8.0 L 128.0,8.0 L 128.0,152.0 L 109.0,143.0 L 81.0,129.0 L 75.0,131.0 L 33.0,152.0 L 32.0,152.0 L 32.0,8.0 M 36.0,12.0 L 36.0,145.0 L 42.0,143.0 L 78.0,125.0 L 84.0,126.0 L 101.0,135.0 L 122.0,145.0 L 124.0,145.0 L 124.0,12.0 L 36.0,12.0" fill="#C84545"/>
</svg>
