<?xml version="1.0" ?>
<svg baseProfile="full" height="600px" version="1.1" viewBox="-20.1 -20.1 240.2 240.2" width="600px" xmlns="http://www.w3.org/2000/svg" xmlns:ev="http://www.w3.org/2001/xml-events" xmlns:xlink="http://www.w3.org/1999/xlink">
	<defs/>
	<path d="M 0.0,0.0 L 200.0,0.0 L 200.0,200.0 L 0.0,200.0 L 0.0,0.0" fill="#090909"/>
	<path d="M 0.0,0.0 L 200.0,0.0 L 200.0,200.0 L 0.0,200.0 L 0.0,0.0 M 76.0,8.0 L 56.0,11.0 L 26.0,19.0 L 17.0,21.0 L 19.0,16.0 L 21.0,14.0 L 20.0,10.0 L 19.0,9.0 L 14.0,9.0 L 8.0,16.0 L 8.0,23.0 L 11.0,28.0 L 17.0,31.0 L 27.0,101.0 L 31.0,131.0 L 30.0,136.0 L 12.0,154.0 L 13.0,159.0 L 18.0,161.0 L 28.0,162.0 L 38.0,162.0 L 38.0,171.0 L 40.0,186.0 L 42.0,188.0 L 47.0,187.0 L 66.0,168.0 L 81.0,170.0 L 141.0,179.0 L 168.0,183.0 L 171.0,189.0 L 175.0,192.0 L 181.0,192.0 L 187.0,188.0 L 190.0,185.0 L 189.0,180.0 L 184.0,179.0 L 177.0,183.0 L 181.0,170.0 L 187.0,152.0 L 191.0,130.0 L 192.0,122.0 L 192.0,105.0 L 189.0,90.0 L 182.0,77.0 L 178.0,72.0 L 165.0,63.0 L 153.0,58.0 L 150.0,56.0 L 159.0,47.0 L 167.0,53.0 L 175.0,53.0 L 181.0,49.0 L 186.0,39.0 L 188.0,28.0 L 188.0,16.0 L 183.0,12.0 L 170.0,12.0 L 158.0,15.0 L 150.0,20.0 L 147.0,25.0 L 147.0,32.0 L 150.0,38.0 L 153.0,41.0 L 144.0,50.0 L 142.0,47.0 L 134.0,30.0 L 126.0,20.0 L 116.0,13.0 L 108.0,10.0 L 97.0,8.0 L 76.0,8.0" fill="#FCFCFC"/>
	<path d="M 70.0,17.0 L 101.0,17.0 L 113.0,21.0 L 119.0,25.0 L 126.0,33.0 L 134.0,49.0 L 137.0,58.0 L 69.0,126.0 L 58.0,124.0 L 51.0,122.0 L 44.0,123.0 L 39.0,128.0 L 37.0,128.0 L 30.0,79.0 L 24.0,36.0 L 24.0,29.0 L 34.0,25.0 L 59.0,19.0 L 70.0,17.0" fill="#FCFCFC"/>
	<path d="M 141.0,64.0 L 148.0,65.0 L 163.0,71.0 L 172.0,78.0 L 178.0,86.0 L 182.0,95.0 L 184.0,106.0 L 184.0,121.0 L 180.0,145.0 L 175.0,163.0 L 170.0,176.0 L 162.0,176.0 L 122.0,170.0 L 101.0,167.0 L 89.0,165.0 L 72.0,162.0 L 78.0,155.0 L 77.0,145.0 L 74.0,131.0 L 141.0,64.0" fill="#FCFCFC"/>
	<path d="M 48.0,129.0 L 66.0,133.0 L 68.0,139.0 L 70.0,146.0 L 70.0,153.0 L 48.0,175.0 L 47.0,175.0 L 45.0,158.0 L 42.0,155.0 L 25.0,153.0 L 31.0,146.0 L 48.0,129.0" fill="#F9F9F9"/>
	<path d="M 171.0,20.0 L 180.0,20.0 L 180.0,29.0 L 178.0,38.0 L 175.0,44.0 L 169.0,45.0 L 167.0,43.0 L 167.0,38.0 L 168.0,37.0 L 168.0,32.0 L 163.0,32.0 L 162.0,33.0 L 157.0,33.0 L 155.0,31.0 L 155.0,26.0 L 159.0,23.0 L 171.0,20.0" fill="#F4F4F4"/>
</svg>
