<?xml version="1.0" ?>
<svg baseProfile="full" height="600px" version="1.1" viewBox="-20.1 -20.1 240.2 240.2" width="600px" xmlns="http://www.w3.org/2000/svg" xmlns:ev="http://www.w3.org/2001/xml-events" xmlns:xlink="http://www.w3.org/1999/xlink">
	<defs/>
	<path d="M 0.0,0.0 L 200.0,0.0 L 200.0,200.0 L 0.0,200.0 L 0.0,0.0" fill="#FCFCFC"/>
	<path d="M 194.0,0.0 L 200.0,0.0 L 200.0,6.0 L 150.0,56.0 L 153.0,58.0 L 165.0,63.0 L 175.0,70.0 L 180.0,75.0 L 184.0,80.0 L 189.0,90.0 L 192.0,105.0 L 192.0,122.0 L 189.0,143.0 L 185.0,158.0 L 178.0,178.0 L 177.0,183.0 L 184.0,179.0 L 189.0,180.0 L 190.0,185.0 L 183.0,191.0 L 181.0,192.0 L 175.0,192.0 L 170.0,188.0 L 166.0,180.0 L 149.0,168.0 L 130.0,154.0 L 114.0,141.0 L 103.0,132.0 L 96.0,138.0 L 91.0,143.0 L 86.0,143.0 L 84.0,137.0 L 83.0,127.0 L 83.0,118.0 L 70.0,117.0 L 59.0,116.0 L 57.0,114.0 L 57.0,109.0 L 68.0,98.0 L 62.0,90.0 L 49.0,74.0 L 35.0,55.0 L 22.0,37.0 L 18.0,31.0 L 11.0,28.0 L 8.0,23.0 L 8.0,16.0 L 14.0,9.0 L 19.0,9.0 L 21.0,11.0 L 20.0,15.0 L 17.0,19.0 L 17.0,21.0 L 26.0,19.0 L 49.0,13.0 L 63.0,10.0 L 76.0,8.0 L 97.0,8.0 L 110.0,11.0 L 119.0,15.0 L 127.0,21.0 L 135.0,32.0 L 142.0,47.0 L 144.0,50.0 L 194.0,0.0" fill="#080808"/>
	<path d="M 73.0,17.0 L 101.0,17.0 L 113.0,21.0 L 119.0,25.0 L 126.0,33.0 L 134.0,49.0 L 137.0,58.0 L 114.0,81.0 L 106.0,80.0 L 96.0,78.0 L 89.0,78.0 L 74.0,93.0 L 68.0,88.0 L 57.0,74.0 L 43.0,56.0 L 31.0,39.0 L 25.0,31.0 L 25.0,28.0 L 49.0,21.0 L 63.0,18.0 L 73.0,17.0" fill="#FCFCFC"/>
	<path d="M 141.0,64.0 L 148.0,65.0 L 163.0,71.0 L 172.0,78.0 L 178.0,86.0 L 182.0,95.0 L 184.0,106.0 L 184.0,121.0 L 180.0,145.0 L 175.0,163.0 L 171.0,175.0 L 166.0,173.0 L 150.0,161.0 L 136.0,151.0 L 120.0,138.0 L 109.0,129.0 L 107.0,126.0 L 122.0,111.0 L 122.0,102.0 L 119.0,90.0 L 120.0,85.0 L 141.0,64.0" fill="#FBFBFB"/>
	<path d="M 92.0,85.0 L 101.0,86.0 L 111.0,89.0 L 113.0,96.0 L 115.0,103.0 L 115.0,108.0 L 93.0,130.0 L 91.0,130.0 L 89.0,112.0 L 88.0,111.0 L 70.0,109.0 L 72.0,105.0 L 92.0,85.0" fill="#F8F8F8"/>
</svg>
