<?xml version="1.0" ?>
<svg baseProfile="full" height="600px" version="1.1" viewBox="-20.1 -20.1 240.2 240.2" width="600px" xmlns="http://www.w3.org/2000/svg" xmlns:ev="http://www.w3.org/2001/xml-events" xmlns:xlink="http://www.w3.org/1999/xlink">
	<defs/>
	<path d="M 0.0,0.0 L 200.0,0.0 L 200.0,200.0 L 0.0,200.0 L 0.0,0.0" fill="#FDFDFD"/>
	<path d="M 76.0,8.0 L 97.0,8.0 L 110.0,11.0 L 119.0,15.0 L 127.0,21.0 L 135.0,32.0 L 142.0,47.0 L 145.0,54.0 L 150.0,57.0 L 163.0,62.0 L 174.0,69.0 L 179.0,74.0 L 184.0,80.0 L 189.0,90.0 L 192.0,105.0 L 192.0,122.0 L 188.0,148.0 L 181.0,170.0 L 177.0,183.0 L 184.0,179.0 L 189.0,180.0 L 190.0,185.0 L 183.0,191.0 L 181.0,192.0 L 175.0,192.0 L 170.0,188.0 L 168.0,184.0 L 168.0,181.0 L 162.0,179.0 L 141.0,167.0 L 117.0,151.0 L 105.0,142.0 L 94.0,133.0 L 82.0,122.0 L 71.0,111.0 L 62.0,100.0 L 49.0,83.0 L 39.0,68.0 L 27.0,48.0 L 18.0,32.0 L 18.0,30.0 L 12.0,29.0 L 9.0,26.0 L 8.0,23.0 L 8.0,16.0 L 14.0,9.0 L 19.0,9.0 L 21.0,11.0 L 20.0,15.0 L 17.0,19.0 L 17.0,21.0 L 26.0,19.0 L 49.0,13.0 L 63.0,10.0 L 76.0,8.0" fill="#FCFCFC"/>
	<path d="M 76.0,8.0 L 97.0,8.0 L 110.0,11.0 L 119.0,15.0 L 127.0,21.0 L 135.0,32.0 L 142.0,47.0 L 145.0,54.0 L 150.0,57.0 L 163.0,62.0 L 174.0,69.0 L 179.0,74.0 L 184.0,80.0 L 189.0,90.0 L 192.0,105.0 L 192.0,122.0 L 188.0,148.0 L 181.0,170.0 L 177.0,183.0 L 184.0,179.0 L 189.0,180.0 L 190.0,185.0 L 183.0,191.0 L 181.0,192.0 L 175.0,192.0 L 170.0,188.0 L 168.0,184.0 L 168.0,181.0 L 162.0,179.0 L 141.0,167.0 L 117.0,151.0 L 105.0,142.0 L 94.0,133.0 L 82.0,122.0 L 71.0,111.0 L 62.0,100.0 L 49.0,83.0 L 39.0,68.0 L 27.0,48.0 L 18.0,32.0 L 18.0,30.0 L 12.0,29.0 L 9.0,26.0 L 8.0,23.0 L 8.0,16.0 L 14.0,9.0 L 19.0,9.0 L 21.0,11.0 L 20.0,15.0 L 17.0,19.0 L 17.0,21.0 L 26.0,19.0 L 49.0,13.0 L 63.0,10.0 L 76.0,8.0 M 70.0,17.0 L 45.0,22.0 L 25.0,28.0 L 24.0,30.0 L 35.0,50.0 L 47.0,69.0 L 59.0,86.0 L 70.0,100.0 L 81.0,112.0 L 86.0,117.0 L 97.0,128.0 L 111.0,139.0 L 126.0,150.0 L 143.0,161.0 L 164.0,173.0 L 170.0,175.0 L 175.0,163.0 L 180.0,145.0 L 184.0,121.0 L 184.0,106.0 L 181.0,92.0 L 175.0,81.0 L 166.0,73.0 L 154.0,67.0 L 141.0,62.0 L 137.0,57.0 L 131.0,42.0 L 124.0,30.0 L 117.0,23.0 L 105.0,18.0 L 101.0,17.0 L 70.0,17.0" fill="#0A0A0A"/>
</svg>
