<?xml version="1.0" ?>
<svg baseProfile="full" height="600px" version="1.1" viewBox="-19.296000000000003 -19.296000000000003 230.592 230.592" width="600px" xmlns="http://www.w3.org/2000/svg" xmlns:ev="http://www.w3.org/2001/xml-events" xmlns:xlink="http://www.w3.org/1999/xlink">
	<defs/>
	<path d="M 0.0,0.0 L 192.0,0.0 L 192.0,192.0 L 0.0,192.0 L 0.0,0.0" fill="#FEFEFD"/>
	<path d="M 88.0,50.0 L 104.0,50.0 L 104.0,57.0 L 111.0,58.0 L 121.0,64.0 L 129.0,72.0 L 135.0,84.0 L 136.0,89.0 L 136.0,102.0 L 133.0,113.0 L 127.0,122.0 L 117.0,131.0 L 104.0,136.0 L 89.0,136.0 L 80.0,133.0 L 71.0,128.0 L 63.0,120.0 L 57.0,108.0 L 56.0,103.0 L 56.0,88.0 L 60.0,76.0 L 71.0,64.0 L 79.0,59.0 L 84.0,57.0 L 88.0,57.0 L 88.0,50.0" fill="#FEF7E0"/>
	<path d="M 88.0,50.0 L 104.0,50.0 L 104.0,105.0 L 88.0,105.0 L 88.0,50.0" fill="#404F56"/>
	<path d="M 93.0,120.0 L 99.0,120.0 L 104.0,125.0 L 103.0,132.0 L 100.0,135.0 L 92.0,135.0 L 88.0,130.0 L 89.0,123.0 L 93.0,120.0" fill="#404F55"/>
</svg>
