<?xml version="1.0" ?>
<svg baseProfile="full" height="600px" version="1.1" viewBox="-19.296000000000003 -19.296000000000003 230.592 230.592" width="600px" xmlns="http://www.w3.org/2000/svg" xmlns:ev="http://www.w3.org/2001/xml-events" xmlns:xlink="http://www.w3.org/1999/xlink">
	<defs/>
	<path d="M 0.0,0.0 L 192.0,0.0 L 192.0,192.0 L 0.0,192.0 L 0.0,0.0" fill="#FEDA6C"/>
	<path d="M 0.0,0.0 L 192.0,0.0 L 192.0,192.0 L 0.0,192.0 L 0.0,0.0 M 84.0,14.0 L 69.0,18.0 L 52.0,26.0 L 42.0,34.0 L 31.0,45.0 L 24.0,56.0 L 18.0,69.0 L 14.0,84.0 L 14.0,105.0 L 16.0,117.0 L 22.0,132.0 L 29.0,144.0 L 38.0,154.0 L 45.0,161.0 L 58.0,169.0 L 69.0,174.0 L 80.0,177.0 L 88.0,178.0 L 106.0,178.0 L 123.0,174.0 L 139.0,166.0 L 148.0,160.0 L 161.0,147.0 L 169.0,134.0 L 174.0,122.0 L 177.0,113.0 L 178.0,106.0 L 178.0,88.0 L 175.0,72.0 L 170.0,60.0 L 163.0,48.0 L 154.0,38.0 L 147.0,31.0 L 134.0,23.0 L 123.0,18.0 L 112.0,15.0 L 105.0,14.0 L 84.0,14.0" fill="#FEFEFC"/>
	<path d="M 87.0,43.0 L 105.0,43.0 L 105.0,107.0 L 87.0,107.0 L 87.0,43.0" fill="#3A494F"/>
	<path d="M 92.0,125.0 L 100.0,125.0 L 105.0,130.0 L 104.0,139.0 L 98.0,143.0 L 92.0,142.0 L 88.0,139.0 L 87.0,130.0 L 92.0,125.0" fill="#3E4C50"/>
</svg>
