<?xml version="1.0" ?>
<svg baseProfile="full" height="600px" version="1.1" viewBox="-19.296000000000003 -19.296000000000003 230.592 230.592" width="600px" xmlns="http://www.w3.org/2000/svg" xmlns:ev="http://www.w3.org/2001/xml-events" xmlns:xlink="http://www.w3.org/1999/xlink">
	<defs/>
	<path d="M 0.0,0.0 L 192.0,0.0 L 192.0,192.0 L 0.0,192.0 L 0.0,0.0" fill="#FEEBB1"/>
	<path d="M 0.0,0.0 L 192.0,0.0 L 192.0,192.0 L 0.0,192.0 L 0.0,0.0 M 84.0,12.0 L 68.0,16.0 L 52.0,24.0 L 41.0,32.0 L 30.0,43.0 L 21.0,57.0 L 16.0,68.0 L 12.0,84.0 L 12.0,105.0 L 15.0,120.0 L 20.0,133.0 L 28.0,146.0 L 37.0,156.0 L 47.0,165.0 L 63.0,174.0 L 78.0,179.0 L 87.0,180.0 L 108.0,180.0 L 123.0,176.0 L 135.0,171.0 L 146.0,164.0 L 156.0,155.0 L 165.0,145.0 L 173.0,131.0 L 177.0,121.0 L 180.0,108.0 L 180.0,87.0 L 179.0,78.0 L 174.0,63.0 L 167.0,50.0 L 159.0,40.0 L 149.0,30.0 L 135.0,21.0 L 123.0,16.0 L 113.0,13.0 L 105.0,12.0 L 84.0,12.0" fill="#FEFEFD"/>
	<path d="M 87.0,43.0 L 105.0,43.0 L 105.0,107.0 L 87.0,107.0 L 87.0,43.0" fill="#38484F"/>
	<path d="M 93.0,125.0 L 101.0,126.0 L 105.0,130.0 L 105.0,137.0 L 103.0,141.0 L 100.0,143.0 L 92.0,143.0 L 88.0,139.0 L 87.0,137.0 L 87.0,130.0 L 93.0,125.0" fill="#3B4A51"/>
</svg>
