<?xml version="1.0" ?>
<svg baseProfile="full" height="600px" version="1.1" viewBox="-20.1 -20.1 240.2 240.2" width="600px" xmlns="http://www.w3.org/2000/svg" xmlns:ev="http://www.w3.org/2001/xml-events" xmlns:xlink="http://www.w3.org/1999/xlink">
	<defs/>
	<path d="M 0.0,0.0 L 200.0,0.0 L 200.0,200.0 L 0.0,200.0 L 0.0,0.0" fill="#0B0B0B"/>
	<path d="M 19.0,74.0 L 181.0,74.0 L 183.0,109.0 L 183.0,154.0 L 182.0,175.0 L 181.0,184.0 L 19.0,184.0 L 17.0,149.0 L 17.0,106.0 L 19.0,74.0" fill="#FBFBFB"/>
	<path d="M 0.0,0.0 L 200.0,0.0 L 200.0,200.0 L 0.0,200.0 L 0.0,0.0 M 4.0,20.0 L 4.0,67.0 L 12.0,67.0 L 11.0,71.0 L 9.0,109.0 L 9.0,152.0 L 11.0,184.0 L 12.0,192.0 L 188.0,192.0 L 190.0,176.0 L 191.0,157.0 L 191.0,106.0 L 190.0,85.0 L 188.0,67.0 L 196.0,67.0 L 196.0,20.0 L 4.0,20.0" fill="#FAFAFA"/>
	<path d="M 12.0,28.0 L 188.0,28.0 L 188.0,59.0 L 12.0,59.0 L 12.0,28.0" fill="#FDFDFD"/>
	<path d="M 66.0,88.0 L 133.0,88.0 L 141.0,92.0 L 144.0,97.0 L 144.0,105.0 L 138.0,112.0 L 135.0,113.0 L 64.0,113.0 L 57.0,107.0 L 56.0,105.0 L 56.0,97.0 L 59.0,92.0 L 66.0,88.0" fill="#101010"/>
	<path d="M 67.0,96.0 L 133.0,96.0 L 136.0,99.0 L 135.0,105.0 L 133.0,106.0 L 67.0,106.0 L 64.0,103.0 L 65.0,97.0 L 67.0,96.0" fill="#FCFCFC"/>
</svg>
