<?xml version="1.0" ?>
<svg baseProfile="full" height="600px" version="1.1" viewBox="-20.1 -20.1 240.2 240.2" width="600px" xmlns="http://www.w3.org/2000/svg" xmlns:ev="http://www.w3.org/2001/xml-events" xmlns:xlink="http://www.w3.org/1999/xlink">
	<defs/>
	<path d="M 0.0,0.0 L 200.0,0.0 L 200.0,200.0 L 0.0,200.0 L 0.0,0.0" fill="#0B0B0B"/>
	<path d="M 19.0,70.0 L 181.0,70.0 L 183.0,107.0 L 183.0,150.0 L 181.0,184.0 L 19.0,184.0 L 17.0,145.0 L 17.0,109.0 L 19.0,70.0" fill="#FCFCFC"/>
	<path d="M 9.0,29.0 L 191.0,29.0 L 191.0,60.0 L 9.0,60.0 L 9.0,29.0" fill="#FDFDFD"/>
	<path d="M 0.0,0.0 L 200.0,0.0 L 200.0,21.0 L 0.0,21.0 L 0.0,0.0" fill="#FDFDFD"/>
	<path d="M 0.0,69.0 L 11.0,69.0 L 11.0,86.0 L 10.0,109.0 L 10.0,150.0 L 11.0,173.0 L 11.0,192.0 L 189.0,192.0 L 189.0,174.0 L 190.0,145.0 L 190.0,105.0 L 189.0,69.0 L 200.0,69.0 L 200.0,200.0 L 0.0,200.0 L 0.0,69.0" fill="#FCFCFC"/>
	<path d="M 64.0,85.0 L 135.0,85.0 L 141.0,89.0 L 144.0,93.0 L 144.0,102.0 L 138.0,109.0 L 133.0,111.0 L 66.0,111.0 L 60.0,107.0 L 56.0,102.0 L 56.0,93.0 L 62.0,86.0 L 64.0,85.0" fill="#090909"/>
	<path d="M 67.0,92.0 L 132.0,92.0 L 136.0,95.0 L 136.0,100.0 L 133.0,103.0 L 67.0,103.0 L 64.0,100.0 L 64.0,95.0 L 67.0,92.0" fill="#FAFAFA"/>
</svg>
