<?xml version="1.0" ?>
<svg baseProfile="full" height="600px" version="1.1" viewBox="-12.864 -12.864 153.728 153.728" width="600px" xmlns="http://www.w3.org/2000/svg" xmlns:ev="http://www.w3.org/2001/xml-events" xmlns:xlink="http://www.w3.org/1999/xlink">
	<defs/>
	<path d="M 0.0,0.0 L 128.0,0.0 L 128.0,128.0 L 0.0,128.0 L 0.0,0.0" fill="#FCFCFC"/>
	<path d="M 15.0,23.0 L 113.0,23.0 L 113.0,47.0 L 110.0,47.0 L 111.0,54.0 L 111.0,89.0 L 109.0,103.0 L 107.0,108.0 L 21.0,108.0 L 19.0,104.0 L 17.0,90.0 L 17.0,55.0 L 18.0,47.0 L 15.0,47.0 L 15.0,23.0" fill="#F9F9F9"/>
	<path d="M 15.0,23.0 L 113.0,23.0 L 113.0,47.0 L 110.0,47.0 L 111.0,54.0 L 111.0,89.0 L 109.0,103.0 L 107.0,108.0 L 21.0,108.0 L 19.0,104.0 L 17.0,90.0 L 17.0,55.0 L 18.0,47.0 L 15.0,47.0 L 15.0,23.0 M 26.0,47.0 L 25.0,60.0 L 25.0,91.0 L 26.0,100.0 L 101.0,100.0 L 102.0,99.0 L 103.0,86.0 L 103.0,57.0 L 101.0,47.0 L 26.0,47.0" fill="#070707"/>
	<path d="M 23.0,31.0 L 105.0,31.0 L 105.0,39.0 L 23.0,39.0 L 23.0,31.0" fill="#F4F4F4"/>
	<path d="M 49.0,54.0 L 79.0,54.0 L 80.0,59.0 L 79.0,61.0 L 50.0,61.0 L 48.0,59.0 L 49.0,54.0" fill="#030303"/>
</svg>
