<?xml version="1.0" ?>
<svg baseProfile="full" height="600px" version="1.1" viewBox="-20.1 -20.1 240.2 240.2" width="600px" xmlns="http://www.w3.org/2000/svg" xmlns:ev="http://www.w3.org/2001/xml-events" xmlns:xlink="http://www.w3.org/1999/xlink">
	<defs/>
	<path d="M 0.0,0.0 L 200.0,0.0 L 200.0,200.0 L 0.0,200.0 L 0.0,0.0" fill="#F9F9F9"/>
	<path d="M 23.0,66.0 L 177.0,66.0 L 177.0,75.0 L 176.0,81.0 L 175.0,98.0 L 175.0,149.0 L 177.0,184.0 L 24.0,184.0 L 24.0,167.0 L 25.0,162.0 L 26.0,139.0 L 26.0,106.0 L 25.0,99.0 L 23.0,66.0" fill="#FCFCFC"/>
	<path d="M 16.0,8.0 L 184.0,8.0 L 184.0,40.0 L 16.0,40.0 L 16.0,8.0" fill="#FCFCFC"/>
	<path d="M 15.0,59.0 L 185.0,59.0 L 184.0,86.0 L 183.0,95.0 L 183.0,158.0 L 185.0,179.0 L 185.0,192.0 L 15.0,192.0 L 15.0,183.0 L 18.0,142.0 L 18.0,105.0 L 15.0,68.0 L 15.0,59.0 M 23.0,66.0 L 25.0,99.0 L 26.0,106.0 L 26.0,139.0 L 25.0,162.0 L 24.0,167.0 L 24.0,184.0 L 177.0,184.0 L 175.0,149.0 L 175.0,98.0 L 176.0,81.0 L 177.0,75.0 L 177.0,66.0 L 23.0,66.0" fill="#080808"/>
	<path d="M 8.0,0.0 L 192.0,0.0 L 192.0,48.0 L 8.0,48.0 L 8.0,0.0 M 16.0,8.0 L 16.0,40.0 L 184.0,40.0 L 184.0,8.0 L 16.0,8.0" fill="#040404"/>
	<path d="M 68.0,81.0 L 131.0,81.0 L 139.0,85.0 L 142.0,89.0 L 142.0,100.0 L 137.0,106.0 L 132.0,108.0 L 67.0,108.0 L 61.0,104.0 L 58.0,100.0 L 58.0,89.0 L 62.0,84.0 L 68.0,81.0" fill="#0B0B0B"/>
	<path d="M 69.0,89.0 L 131.0,89.0 L 135.0,93.0 L 134.0,98.0 L 132.0,100.0 L 68.0,100.0 L 65.0,97.0 L 66.0,91.0 L 69.0,89.0" fill="#FAFAFA"/>
</svg>
