<?xml version="1.0" ?>
<svg baseProfile="full" height="600px" version="1.1" viewBox="-16.08 -16.08 192.16 192.16" width="600px" xmlns="http://www.w3.org/2000/svg" xmlns:ev="http://www.w3.org/2001/xml-events" xmlns:xlink="http://www.w3.org/1999/xlink">
	<defs/>
	<path d="M 0.0,0.0 L 160.0,0.0 L 160.0,160.0 L 0.0,160.0 L 0.0,0.0" fill="#FDC29A"/>
	<path d="M 0.0,0.0 L 160.0,0.0 L 160.0,160.0 L 0.0,160.0 L 0.0,0.0 M 14.0,36.0 L 14.0,148.0 L 146.0,148.0 L 146.0,36.0 L 14.0,36.0" fill="#FDFBFB"/>
	<path d="M 9.0,15.0 L 151.0,15.0 L 151.0,35.0 L 9.0,35.0 L 9.0,15.0" fill="#FDC29A"/>
	<path d="M 14.0,36.0 L 146.0,36.0 L 146.0,148.0 L 14.0,148.0 L 14.0,36.0 M 18.0,40.0 L 18.0,144.0 L 142.0,144.0 L 142.0,40.0 L 18.0,40.0" fill="#A67051"/>
	<path d="M 9.0,15.0 L 151.0,15.0 L 151.0,35.0 L 9.0,35.0 L 9.0,15.0 M 13.0,19.0 L 13.0,30.0 L 147.0,30.0 L 147.0,19.0 L 13.0,19.0" fill="#AD795A"/>
	<path d="M 59.0,55.0 L 101.0,55.0 L 103.0,57.0 L 103.0,63.0 L 100.0,66.0 L 60.0,66.0 L 57.0,63.0 L 57.0,57.0 L 59.0,55.0" fill="#A36B4B"/>
</svg>
