<?xml version="1.0" ?>
<svg baseProfile="full" height="600px" version="1.1" viewBox="-12.864 -12.864 153.728 153.728" width="600px" xmlns="http://www.w3.org/2000/svg" xmlns:ev="http://www.w3.org/2001/xml-events" xmlns:xlink="http://www.w3.org/1999/xlink">
	<defs/>
	<path d="M 0.0,0.0 L 128.0,0.0 L 128.0,128.0 L 0.0,128.0 L 0.0,0.0" fill="#FAFAFA"/>
	<path d="M 15.0,26.0 L 113.0,26.0 L 113.0,49.0 L 110.0,49.0 L 114.0,63.0 L 114.0,86.0 L 110.0,102.0 L 107.0,108.0 L 21.0,108.0 L 17.0,100.0 L 15.0,94.0 L 14.0,87.0 L 14.0,64.0 L 18.0,49.0 L 15.0,49.0 L 15.0,26.0" fill="#FAFAFA"/>
	<path d="M 15.0,26.0 L 113.0,26.0 L 113.0,49.0 L 110.0,49.0 L 114.0,63.0 L 114.0,86.0 L 110.0,102.0 L 107.0,108.0 L 21.0,108.0 L 17.0,100.0 L 15.0,94.0 L 14.0,87.0 L 14.0,64.0 L 18.0,49.0 L 15.0,49.0 L 15.0,26.0 M 26.0,51.0 L 22.0,64.0 L 22.0,86.0 L 26.0,101.0 L 101.0,101.0 L 105.0,92.0 L 106.0,86.0 L 106.0,64.0 L 102.0,51.0 L 26.0,51.0" fill="#050505"/>
	<path d="M 23.0,33.0 L 105.0,33.0 L 105.0,41.0 L 23.0,41.0 L 23.0,33.0" fill="#F1F1F1"/>
	<path d="M 50.0,56.0 L 78.0,56.0 L 80.0,58.0 L 79.0,62.0 L 78.0,63.0 L 50.0,63.0 L 48.0,61.0 L 49.0,57.0 L 50.0,56.0" fill="#010101"/>
</svg>
