<?xml version="1.0" ?>
<svg baseProfile="full" height="600px" version="1.1" viewBox="-16.08 -16.08 192.16 192.16" width="600px" xmlns="http://www.w3.org/2000/svg" xmlns:ev="http://www.w3.org/2001/xml-events" xmlns:xlink="http://www.w3.org/1999/xlink">
	<defs/>
	<path d="M 0.0,0.0 L 160.0,0.0 L 160.0,160.0 L 0.0,160.0 L 0.0,0.0" fill="#FDC29A"/>
	<path d="M 0.0,0.0 L 160.0,0.0 L 160.0,160.0 L 0.0,160.0 L 0.0,0.0 M 7.0,17.0 L 7.0,37.0 L 11.0,37.0 L 10.0,46.0 L 10.0,133.0 L 12.0,148.0 L 148.0,148.0 L 150.0,126.0 L 150.0,55.0 L 149.0,37.0 L 153.0,37.0 L 153.0,17.0 L 7.0,17.0" fill="#FDFCFC"/>
	<path d="M 7.0,17.0 L 153.0,17.0 L 153.0,37.0 L 149.0,37.0 L 150.0,55.0 L 150.0,126.0 L 148.0,148.0 L 12.0,148.0 L 10.0,133.0 L 10.0,46.0 L 11.0,37.0 L 7.0,37.0 L 7.0,17.0 M 15.0,37.0 L 14.0,49.0 L 14.0,130.0 L 15.0,144.0 L 145.0,144.0 L 145.0,37.0 L 15.0,37.0" fill="#A67151"/>
	<path d="M 11.0,21.0 L 149.0,21.0 L 149.0,33.0 L 11.0,33.0 L 11.0,21.0" fill="#FAC098"/>
	<path d="M 60.0,52.0 L 101.0,52.0 L 104.0,55.0 L 103.0,62.0 L 100.0,64.0 L 60.0,64.0 L 56.0,60.0 L 56.0,55.0 L 60.0,52.0" fill="#A56E4D"/>
</svg>
