<?xml version="1.0" ?>
<svg baseProfile="full" height="600px" version="1.1" viewBox="-16.08 -16.08 192.16 192.16" width="600px" xmlns="http://www.w3.org/2000/svg" xmlns:ev="http://www.w3.org/2001/xml-events" xmlns:xlink="http://www.w3.org/1999/xlink">
	<defs/>
	<path d="M 0.0,0.0 L 160.0,0.0 L 160.0,160.0 L 0.0,160.0 L 0.0,0.0" fill="#FDC29A"/>
	<path d="M 0.0,0.0 L 160.0,0.0 L 160.0,160.0 L 0.0,160.0 L 0.0,0.0 M 14.0,34.0 L 15.0,48.0 L 16.0,57.0 L 16.0,116.0 L 14.0,148.0 L 146.0,148.0 L 144.0,115.0 L 143.0,98.0 L 143.0,73.0 L 145.0,47.0 L 146.0,34.0 L 14.0,34.0" fill="#FDFCFB"/>
	<path d="M 14.0,4.0 L 146.0,4.0 L 146.0,24.0 L 14.0,24.0 L 14.0,4.0" fill="#FCC29A"/>
	<path d="M 14.0,34.0 L 146.0,34.0 L 143.0,73.0 L 143.0,98.0 L 145.0,134.0 L 146.0,148.0 L 14.0,148.0 L 16.0,116.0 L 16.0,57.0 L 14.0,39.0 L 14.0,34.0 M 19.0,38.0 L 20.0,62.0 L 20.0,121.0 L 19.0,130.0 L 19.0,144.0 L 141.0,144.0 L 141.0,129.0 L 140.0,112.0 L 140.0,61.0 L 141.0,38.0 L 19.0,38.0" fill="#A77152"/>
	<path d="M 14.0,4.0 L 146.0,4.0 L 146.0,24.0 L 14.0,24.0 L 14.0,4.0 M 17.0,8.0 L 17.0,20.0 L 142.0,20.0 L 142.0,8.0 L 17.0,8.0" fill="#A26B4B"/>
	<path d="M 60.0,53.0 L 100.0,53.0 L 103.0,56.0 L 103.0,61.0 L 100.0,64.0 L 60.0,64.0 L 57.0,61.0 L 58.0,54.0 L 60.0,53.0" fill="#A26B4B"/>
</svg>
