<?xml version="1.0" ?>
<svg baseProfile="full" height="600px" version="1.1" viewBox="-16.08 -16.08 192.16 192.16" width="600px" xmlns="http://www.w3.org/2000/svg" xmlns:ev="http://www.w3.org/2001/xml-events" xmlns:xlink="http://www.w3.org/1999/xlink">
	<defs/>
	<path d="M 0.0,0.0 L 160.0,0.0 L 160.0,160.0 L 0.0,160.0 L 0.0,0.0" fill="#FDC29A"/>
	<path d="M 0.0,0.0 L 160.0,0.0 L 160.0,160.0 L 0.0,160.0 L 0.0,0.0 M 8.0,22.0 L 8.0,42.0 L 11.0,42.0 L 9.0,57.0 L 8.0,70.0 L 8.0,117.0 L 10.0,139.0 L 12.0,148.0 L 148.0,148.0 L 149.0,147.0 L 151.0,119.0 L 151.0,62.0 L 149.0,42.0 L 152.0,42.0 L 152.0,22.0 L 8.0,22.0" fill="#FDFCFB"/>
	<path d="M 8.0,22.0 L 152.0,22.0 L 152.0,42.0 L 149.0,42.0 L 151.0,62.0 L 151.0,119.0 L 149.0,147.0 L 148.0,148.0 L 12.0,148.0 L 10.0,139.0 L 8.0,117.0 L 8.0,70.0 L 10.0,52.0 L 11.0,42.0 L 8.0,42.0 L 8.0,22.0 M 15.0,45.0 L 12.0,69.0 L 12.0,112.0 L 15.0,144.0 L 145.0,144.0 L 147.0,116.0 L 147.0,61.0 L 145.0,45.0 L 15.0,45.0" fill="#A97253"/>
	<path d="M 12.0,26.0 L 148.0,26.0 L 148.0,37.0 L 12.0,37.0 L 12.0,26.0" fill="#FDC29A"/>
	<path d="M 59.0,59.0 L 101.0,59.0 L 104.0,62.0 L 104.0,67.0 L 100.0,70.0 L 60.0,70.0 L 56.0,67.0 L 56.0,62.0 L 59.0,59.0" fill="#A56D4D"/>
</svg>
