<?xml version="1.0" ?>
<svg baseProfile="full" height="600px" version="1.1" viewBox="-12.864 -12.864 153.728 153.728" width="600px" xmlns="http://www.w3.org/2000/svg" xmlns:ev="http://www.w3.org/2001/xml-events" xmlns:xlink="http://www.w3.org/1999/xlink">
	<defs/>
	<path d="M 0.0,0.0 L 128.0,0.0 L 128.0,128.0 L 0.0,128.0 L 0.0,0.0" fill="#FDFDFD"/>
	<path d="M 16.0,20.0 L 112.0,20.0 L 112.0,44.0 L 108.0,44.0 L 108.0,108.0 L 20.0,108.0 L 20.0,44.0 L 16.0,44.0 L 16.0,20.0" fill="#FDFDFD"/>
	<path d="M 16.0,20.0 L 112.0,20.0 L 112.0,44.0 L 108.0,44.0 L 108.0,108.0 L 20.0,108.0 L 20.0,44.0 L 16.0,44.0 L 16.0,20.0 M 28.0,44.0 L 28.0,100.0 L 100.0,100.0 L 100.0,44.0 L 28.0,44.0" fill="#000000"/>
	<path d="M 24.0,28.0 L 104.0,28.0 L 104.0,36.0 L 24.0,36.0 L 24.0,28.0" fill="#FBFBFB"/>
	<path d="M 50.0,52.0 L 78.0,52.0 L 80.0,54.0 L 79.0,59.0 L 78.0,60.0 L 50.0,60.0 L 48.0,58.0 L 49.0,53.0 L 50.0,52.0" fill="#030303"/>
</svg>
