<?xml version="1.0" ?>
<svg baseProfile="full" height="600px" version="1.1" viewBox="-20.1 -20.1 240.2 240.2" width="600px" xmlns="http://www.w3.org/2000/svg" xmlns:ev="http://www.w3.org/2001/xml-events" xmlns:xlink="http://www.w3.org/1999/xlink">
	<defs/>
	<path d="M 0.0,0.0 L 200.0,0.0 L 200.0,200.0 L 0.0,200.0 L 0.0,0.0" fill="#101010"/>
	<path d="M 19.0,66.0 L 181.0,66.0 L 181.0,184.0 L 19.0,184.0 L 19.0,66.0" fill="#FCFCFC"/>
	<path d="M 0.0,0.0 L 200.0,0.0 L 200.0,200.0 L 0.0,200.0 L 0.0,0.0 M 2.0,17.0 L 2.0,66.0 L 11.0,66.0 L 10.0,110.0 L 10.0,141.0 L 11.0,177.0 L 12.0,192.0 L 189.0,192.0 L 189.0,66.0 L 198.0,66.0 L 198.0,17.0 L 2.0,17.0" fill="#FCFCFC"/>
	<path d="M 11.0,26.0 L 189.0,26.0 L 189.0,57.0 L 11.0,57.0 L 11.0,26.0" fill="#FDFDFD"/>
	<path d="M 65.0,81.0 L 134.0,81.0 L 140.0,84.0 L 144.0,90.0 L 144.0,98.0 L 141.0,103.0 L 138.0,106.0 L 133.0,108.0 L 67.0,108.0 L 61.0,105.0 L 57.0,100.0 L 56.0,98.0 L 56.0,90.0 L 60.0,84.0 L 65.0,81.0" fill="#070707"/>
	<path d="M 68.0,88.0 L 132.0,88.0 L 136.0,92.0 L 136.0,97.0 L 132.0,100.0 L 68.0,100.0 L 64.0,96.0 L 65.0,90.0 L 68.0,88.0" fill="#F1F1F1"/>
</svg>
