<?xml version="1.0" ?>
<svg baseProfile="full" height="600px" version="1.1" viewBox="-16.08 -16.08 192.16 192.16" width="600px" xmlns="http://www.w3.org/2000/svg" xmlns:ev="http://www.w3.org/2001/xml-events" xmlns:xlink="http://www.w3.org/1999/xlink">
	<defs/>
	<path d="M 0.0,0.0 L 160.0,0.0 L 160.0,160.0 L 0.0,160.0 L 0.0,0.0" fill="#FDC29A"/>
	<path d="M 0.0,0.0 L 160.0,0.0 L 160.0,160.0 L 0.0,160.0 L 0.0,0.0 M 4.0,25.0 L 4.0,45.0 L 11.0,45.0 L 9.0,53.0 L 7.0,75.0 L 7.0,112.0 L 9.0,136.0 L 11.0,148.0 L 149.0,148.0 L 151.0,133.0 L 153.0,111.0 L 153.0,72.0 L 150.0,47.0 L 149.0,45.0 L 156.0,45.0 L 156.0,25.0 L 4.0,25.0" fill="#FDFDFC"/>
	<path d="M 4.0,25.0 L 156.0,25.0 L 156.0,45.0 L 149.0,45.0 L 151.0,54.0 L 153.0,72.0 L 153.0,111.0 L 151.0,133.0 L 149.0,148.0 L 11.0,148.0 L 8.0,127.0 L 7.0,112.0 L 7.0,75.0 L 9.0,53.0 L 11.0,45.0 L 4.0,45.0 L 4.0,25.0 M 15.0,46.0 L 13.0,54.0 L 11.0,72.0 L 11.0,109.0 L 13.0,135.0 L 15.0,144.0 L 145.0,144.0 L 147.0,130.0 L 148.0,117.0 L 148.0,62.0 L 146.0,48.0 L 145.0,46.0 L 15.0,46.0" fill="#A87455"/>
	<path d="M 9.0,29.0 L 152.0,29.0 L 152.0,41.0 L 9.0,41.0 L 9.0,29.0" fill="#FAC098"/>
	<path d="M 59.0,60.0 L 101.0,60.0 L 104.0,63.0 L 104.0,68.0 L 101.0,70.0 L 59.0,70.0 L 56.0,68.0 L 56.0,62.0 L 59.0,60.0" fill="#A26B4B"/>
</svg>
