<?xml version="1.0" ?>
<svg baseProfile="full" height="600px" version="1.1" viewBox="-20.1 -20.1 240.2 240.2" width="600px" xmlns="http://www.w3.org/2000/svg" xmlns:ev="http://www.w3.org/2001/xml-events" xmlns:xlink="http://www.w3.org/1999/xlink">
	<defs/>
	<path d="M 0.0,0.0 L 200.0,0.0 L 200.0,200.0 L 0.0,200.0 L 0.0,0.0" fill="#FBFBFB"/>
	<path d="M 110.0,9.0 L 128.0,9.0 L 140.0,14.0 L 148.0,21.0 L 152.0,27.0 L 153.0,32.0 L 162.0,33.0 L 172.0,39.0 L 178.0,46.0 L 182.0,54.0 L 184.0,62.0 L 184.0,75.0 L 180.0,91.0 L 173.0,102.0 L 165.0,108.0 L 151.0,112.0 L 142.0,113.0 L 141.0,118.0 L 142.0,119.0 L 152.0,119.0 L 164.0,116.0 L 175.0,110.0 L 180.0,106.0 L 183.0,112.0 L 183.0,124.0 L 179.0,132.0 L 172.0,138.0 L 166.0,141.0 L 163.0,141.0 L 168.0,153.0 L 168.0,161.0 L 165.0,166.0 L 160.0,170.0 L 151.0,172.0 L 143.0,172.0 L 133.0,166.0 L 129.0,158.0 L 127.0,146.0 L 122.0,145.0 L 121.0,146.0 L 121.0,155.0 L 124.0,165.0 L 130.0,173.0 L 138.0,178.0 L 137.0,182.0 L 130.0,188.0 L 122.0,191.0 L 111.0,191.0 L 105.0,186.0 L 104.0,184.0 L 104.0,19.0 L 107.0,11.0 L 110.0,9.0" fill="#FCFCFC"/>
	<path d="M 0.0,0.0 L 76.0,0.0 L 76.0,1.0 L 64.0,4.0 L 54.0,9.0 L 47.0,15.0 L 41.0,25.0 L 31.0,28.0 L 23.0,34.0 L 16.0,42.0 L 11.0,54.0 L 10.0,58.0 L 10.0,78.0 L 12.0,89.0 L 15.0,97.0 L 14.0,102.0 L 11.0,108.0 L 10.0,113.0 L 10.0,126.0 L 14.0,135.0 L 20.0,142.0 L 26.0,146.0 L 25.0,151.0 L 25.0,163.0 L 30.0,173.0 L 38.0,179.0 L 48.0,183.0 L 54.0,185.0 L 60.0,193.0 L 68.0,197.0 L 72.0,198.0 L 90.0,198.0 L 96.0,195.0 L 99.0,194.0 L 99.0,192.0 L 101.0,192.0 L 101.0,194.0 L 105.0,196.0 L 110.0,198.0 L 123.0,198.0 L 134.0,194.0 L 142.0,188.0 L 147.0,180.0 L 159.0,178.0 L 169.0,173.0 L 173.0,168.0 L 175.0,162.0 L 175.0,152.0 L 174.0,146.0 L 184.0,138.0 L 189.0,129.0 L 190.0,125.0 L 190.0,112.0 L 186.0,102.0 L 185.0,98.0 L 190.0,81.0 L 191.0,74.0 L 191.0,61.0 L 187.0,48.0 L 181.0,38.0 L 174.0,31.0 L 163.0,26.0 L 159.0,25.0 L 152.0,14.0 L 144.0,8.0 L 136.0,4.0 L 123.0,1.0 L 123.0,0.0 L 200.0,0.0 L 200.0,200.0 L 0.0,200.0 L 0.0,0.0" fill="#FCFCFC"/>
	<path d="M 76.0,0.0 L 123.0,0.0 L 136.0,3.0 L 147.0,9.0 L 154.0,15.0 L 159.0,23.0 L 159.0,25.0 L 166.0,26.0 L 175.0,31.0 L 183.0,39.0 L 190.0,53.0 L 192.0,61.0 L 192.0,74.0 L 189.0,89.0 L 186.0,100.0 L 190.0,108.0 L 191.0,112.0 L 191.0,125.0 L 187.0,135.0 L 181.0,142.0 L 175.0,146.0 L 176.0,152.0 L 176.0,162.0 L 172.0,171.0 L 166.0,176.0 L 159.0,179.0 L 147.0,181.0 L 141.0,190.0 L 132.0,196.0 L 123.0,199.0 L 110.0,199.0 L 104.0,196.0 L 101.0,194.0 L 101.0,192.0 L 99.0,192.0 L 99.0,194.0 L 93.0,198.0 L 90.0,199.0 L 72.0,199.0 L 63.0,196.0 L 56.0,190.0 L 53.0,185.0 L 40.0,181.0 L 31.0,175.0 L 25.0,166.0 L 24.0,163.0 L 24.0,151.0 L 25.0,146.0 L 17.0,140.0 L 11.0,132.0 L 9.0,126.0 L 9.0,113.0 L 12.0,104.0 L 14.0,100.0 L 12.0,91.0 L 10.0,85.0 L 9.0,78.0 L 9.0,58.0 L 13.0,46.0 L 19.0,37.0 L 26.0,30.0 L 36.0,25.0 L 41.0,25.0 L 43.0,19.0 L 50.0,11.0 L 61.0,4.0 L 71.0,1.0 L 76.0,0.0 M 77.0,8.0 L 65.0,11.0 L 56.0,17.0 L 49.0,25.0 L 47.0,32.0 L 38.0,33.0 L 29.0,38.0 L 23.0,45.0 L 19.0,53.0 L 17.0,59.0 L 17.0,77.0 L 21.0,93.0 L 37.0,85.0 L 54.0,85.0 L 65.0,89.0 L 71.0,94.0 L 70.0,99.0 L 65.0,98.0 L 53.0,92.0 L 38.0,92.0 L 29.0,97.0 L 21.0,104.0 L 17.0,113.0 L 17.0,125.0 L 21.0,133.0 L 29.0,139.0 L 34.0,141.0 L 38.0,141.0 L 32.0,152.0 L 32.0,162.0 L 36.0,168.0 L 42.0,173.0 L 49.0,176.0 L 59.0,177.0 L 63.0,186.0 L 69.0,190.0 L 72.0,191.0 L 89.0,191.0 L 95.0,186.0 L 96.0,184.0 L 96.0,19.0 L 93.0,12.0 L 89.0,9.0 L 86.0,8.0 L 77.0,8.0 M 110.0,9.0 L 106.0,13.0 L 104.0,19.0 L 104.0,184.0 L 109.0,190.0 L 111.0,191.0 L 122.0,191.0 L 132.0,187.0 L 138.0,181.0 L 138.0,178.0 L 128.0,171.0 L 123.0,163.0 L 121.0,155.0 L 121.0,146.0 L 126.0,145.0 L 127.0,146.0 L 129.0,158.0 L 133.0,166.0 L 143.0,172.0 L 151.0,172.0 L 162.0,169.0 L 167.0,164.0 L 168.0,161.0 L 168.0,153.0 L 163.0,141.0 L 168.0,140.0 L 176.0,135.0 L 181.0,129.0 L 183.0,124.0 L 183.0,112.0 L 180.0,106.0 L 172.0,112.0 L 162.0,117.0 L 152.0,119.0 L 142.0,119.0 L 141.0,114.0 L 142.0,113.0 L 156.0,111.0 L 167.0,107.0 L 174.0,101.0 L 180.0,91.0 L 184.0,75.0 L 184.0,62.0 L 181.0,52.0 L 175.0,42.0 L 168.0,36.0 L 158.0,32.0 L 153.0,32.0 L 151.0,25.0 L 142.0,15.0 L 131.0,10.0 L 128.0,9.0 L 110.0,9.0" fill="#070707"/>
	<path d="M 130.0,48.0 L 135.0,49.0 L 140.0,61.0 L 147.0,67.0 L 155.0,70.0 L 166.0,72.0 L 168.0,74.0 L 167.0,79.0 L 166.0,80.0 L 156.0,80.0 L 145.0,76.0 L 136.0,70.0 L 130.0,61.0 L 128.0,56.0 L 128.0,50.0 L 130.0,48.0" fill="#090909"/>
	<path d="M 42.0,120.0 L 50.0,121.0 L 58.0,125.0 L 66.0,133.0 L 71.0,144.0 L 72.0,148.0 L 72.0,158.0 L 70.0,160.0 L 65.0,159.0 L 64.0,158.0 L 62.0,146.0 L 57.0,136.0 L 51.0,131.0 L 41.0,127.0 L 40.0,122.0 L 42.0,120.0" fill="#080808"/>
	<path d="M 74.0,40.0 L 79.0,41.0 L 80.0,42.0 L 80.0,48.0 L 74.0,57.0 L 66.0,62.0 L 58.0,64.0 L 50.0,64.0 L 48.0,62.0 L 49.0,57.0 L 50.0,56.0 L 61.0,54.0 L 67.0,51.0 L 69.0,51.0 L 72.0,42.0 L 74.0,40.0" fill="#080808"/>
	<path d="M 99.0,192.0 L 101.0,192.0 L 101.0,194.0 L 105.0,196.0 L 110.0,198.0 L 127.0,198.0 L 126.0,200.0 L 75.0,200.0 L 75.0,199.0 L 90.0,198.0 L 96.0,195.0 L 99.0,194.0 L 99.0,192.0" fill="#DFDFDF"/>
	<path d="M 87.0,0.0 L 112.0,0.0 L 109.0,2.0 L 101.0,8.0 L 99.0,9.0 L 94.0,4.0 L 87.0,1.0 L 87.0,0.0" fill="#F5F5F5"/>
</svg>
