<?xml version="1.0" ?>
<svg baseProfile="full" height="600px" version="1.1" viewBox="-20.1 -20.1 240.2 240.2" width="600px" xmlns="http://www.w3.org/2000/svg" xmlns:ev="http://www.w3.org/2001/xml-events" xmlns:xlink="http://www.w3.org/1999/xlink">
	<defs/>
	<path d="M 0.0,0.0 L 200.0,0.0 L 200.0,200.0 L 0.0,200.0 L 0.0,0.0" fill="#FBFBFB"/>
	<path d="M 111.0,9.0 L 128.0,9.0 L 140.0,14.0 L 148.0,21.0 L 152.0,27.0 L 153.0,32.0 L 162.0,33.0 L 172.0,39.0 L 179.0,48.0 L 183.0,58.0 L 183.0,79.0 L 179.0,93.0 L 172.0,103.0 L 162.0,109.0 L 151.0,112.0 L 142.0,113.0 L 141.0,118.0 L 142.0,119.0 L 152.0,119.0 L 166.0,115.0 L 177.0,108.0 L 180.0,106.0 L 183.0,113.0 L 183.0,124.0 L 179.0,132.0 L 172.0,138.0 L 166.0,141.0 L 163.0,141.0 L 168.0,154.0 L 168.0,161.0 L 165.0,166.0 L 160.0,170.0 L 152.0,172.0 L 143.0,172.0 L 135.0,168.0 L 130.0,162.0 L 127.0,146.0 L 122.0,145.0 L 121.0,146.0 L 121.0,157.0 L 125.0,167.0 L 131.0,174.0 L 138.0,178.0 L 137.0,182.0 L 130.0,188.0 L 120.0,191.0 L 112.0,191.0 L 106.0,187.0 L 104.0,184.0 L 104.0,19.0 L 107.0,12.0 L 111.0,9.0" fill="#FCFCFC"/>
	<path d="M 0.0,0.0 L 200.0,0.0 L 200.0,200.0 L 0.0,200.0 L 0.0,0.0 M 70.0,1.0 L 57.0,6.0 L 47.0,14.0 L 41.0,23.0 L 29.0,28.0 L 19.0,37.0 L 13.0,47.0 L 10.0,57.0 L 9.0,62.0 L 9.0,78.0 L 14.0,97.0 L 13.0,102.0 L 9.0,112.0 L 9.0,126.0 L 15.0,138.0 L 23.0,145.0 L 25.0,146.0 L 24.0,151.0 L 24.0,163.0 L 29.0,173.0 L 36.0,179.0 L 44.0,183.0 L 53.0,185.0 L 58.0,192.0 L 66.0,197.0 L 72.0,199.0 L 89.0,199.0 L 97.0,195.0 L 101.0,193.0 L 106.0,197.0 L 111.0,199.0 L 121.0,199.0 L 134.0,195.0 L 142.0,189.0 L 147.0,181.0 L 161.0,178.0 L 169.0,174.0 L 174.0,168.0 L 176.0,163.0 L 176.0,152.0 L 174.0,145.0 L 179.0,143.0 L 186.0,136.0 L 190.0,128.0 L 191.0,125.0 L 191.0,112.0 L 187.0,102.0 L 186.0,98.0 L 191.0,81.0 L 191.0,58.0 L 188.0,48.0 L 182.0,38.0 L 174.0,30.0 L 163.0,25.0 L 159.0,25.0 L 157.0,20.0 L 151.0,12.0 L 142.0,6.0 L 132.0,2.0 L 129.0,1.0 L 110.0,1.0 L 104.0,5.0 L 101.0,8.0 L 97.0,6.0 L 91.0,2.0 L 88.0,1.0 L 70.0,1.0" fill="#FCFCFC"/>
	<path d="M 70.0,1.0 L 88.0,1.0 L 96.0,5.0 L 99.0,8.0 L 103.0,6.0 L 108.0,2.0 L 110.0,1.0 L 129.0,1.0 L 140.0,5.0 L 150.0,11.0 L 156.0,18.0 L 159.0,23.0 L 159.0,25.0 L 166.0,26.0 L 175.0,31.0 L 183.0,39.0 L 190.0,53.0 L 191.0,58.0 L 191.0,81.0 L 186.0,98.0 L 187.0,102.0 L 191.0,112.0 L 191.0,125.0 L 187.0,134.0 L 180.0,142.0 L 176.0,145.0 L 174.0,145.0 L 176.0,152.0 L 176.0,163.0 L 172.0,171.0 L 164.0,177.0 L 154.0,180.0 L 147.0,181.0 L 141.0,190.0 L 132.0,196.0 L 121.0,199.0 L 111.0,199.0 L 103.0,195.0 L 99.0,193.0 L 94.0,197.0 L 89.0,199.0 L 72.0,199.0 L 62.0,195.0 L 57.0,191.0 L 53.0,185.0 L 41.0,182.0 L 32.0,176.0 L 27.0,170.0 L 24.0,163.0 L 24.0,151.0 L 25.0,146.0 L 17.0,140.0 L 13.0,135.0 L 9.0,126.0 L 9.0,112.0 L 13.0,102.0 L 14.0,97.0 L 9.0,78.0 L 9.0,62.0 L 12.0,49.0 L 18.0,38.0 L 26.0,30.0 L 36.0,25.0 L 41.0,23.0 L 47.0,14.0 L 57.0,6.0 L 70.0,1.0 M 71.0,9.0 L 61.0,13.0 L 51.0,22.0 L 47.0,30.0 L 47.0,32.0 L 40.0,32.0 L 32.0,36.0 L 25.0,42.0 L 19.0,54.0 L 17.0,62.0 L 17.0,75.0 L 21.0,92.0 L 26.0,90.0 L 34.0,86.0 L 40.0,84.0 L 52.0,84.0 L 65.0,89.0 L 71.0,94.0 L 70.0,99.0 L 65.0,98.0 L 57.0,93.0 L 49.0,91.0 L 41.0,91.0 L 29.0,97.0 L 22.0,103.0 L 18.0,111.0 L 17.0,114.0 L 17.0,123.0 L 21.0,133.0 L 29.0,139.0 L 34.0,141.0 L 38.0,141.0 L 33.0,150.0 L 32.0,154.0 L 32.0,162.0 L 36.0,169.0 L 46.0,175.0 L 59.0,177.0 L 62.0,184.0 L 68.0,189.0 L 73.0,191.0 L 88.0,191.0 L 94.0,187.0 L 96.0,184.0 L 96.0,20.0 L 93.0,13.0 L 90.0,10.0 L 87.0,9.0 L 71.0,9.0 M 111.0,9.0 L 106.0,13.0 L 104.0,19.0 L 104.0,184.0 L 108.0,189.0 L 112.0,191.0 L 120.0,191.0 L 130.0,188.0 L 138.0,181.0 L 138.0,178.0 L 129.0,172.0 L 124.0,166.0 L 121.0,157.0 L 121.0,146.0 L 126.0,145.0 L 127.0,146.0 L 130.0,162.0 L 135.0,168.0 L 143.0,172.0 L 152.0,172.0 L 162.0,169.0 L 167.0,164.0 L 168.0,161.0 L 168.0,154.0 L 163.0,141.0 L 168.0,140.0 L 176.0,135.0 L 181.0,129.0 L 183.0,124.0 L 183.0,113.0 L 180.0,106.0 L 171.0,112.0 L 163.0,116.0 L 152.0,119.0 L 142.0,119.0 L 141.0,114.0 L 142.0,113.0 L 154.0,111.0 L 164.0,108.0 L 173.0,102.0 L 179.0,93.0 L 183.0,79.0 L 183.0,58.0 L 178.0,46.0 L 171.0,38.0 L 162.0,33.0 L 153.0,32.0 L 151.0,25.0 L 142.0,15.0 L 131.0,10.0 L 128.0,9.0 L 111.0,9.0" fill="#070707"/>
	<path d="M 130.0,48.0 L 135.0,49.0 L 139.0,59.0 L 144.0,65.0 L 151.0,69.0 L 166.0,72.0 L 168.0,74.0 L 167.0,79.0 L 166.0,80.0 L 157.0,80.0 L 145.0,76.0 L 137.0,70.0 L 131.0,63.0 L 128.0,56.0 L 128.0,50.0 L 130.0,48.0" fill="#090909"/>
	<path d="M 42.0,120.0 L 50.0,121.0 L 59.0,126.0 L 66.0,134.0 L 70.0,142.0 L 72.0,149.0 L 72.0,158.0 L 70.0,160.0 L 65.0,159.0 L 63.0,152.0 L 60.0,141.0 L 55.0,134.0 L 46.0,129.0 L 41.0,127.0 L 40.0,122.0 L 42.0,120.0" fill="#090909"/>
	<path d="M 74.0,40.0 L 79.0,41.0 L 80.0,42.0 L 80.0,48.0 L 74.0,57.0 L 66.0,62.0 L 58.0,64.0 L 50.0,64.0 L 48.0,62.0 L 49.0,57.0 L 55.0,55.0 L 64.0,53.0 L 70.0,48.0 L 73.0,41.0 L 74.0,40.0" fill="#0A0A0A"/>
	<path d="M 75.0,0.0 L 131.0,0.0 L 131.0,2.0 L 110.0,2.0 L 104.0,6.0 L 101.0,9.0 L 97.0,7.0 L 91.0,3.0 L 88.0,2.0 L 75.0,1.0 L 75.0,0.0" fill="#E5E5E5"/>
	<path d="M 99.0,192.0 L 103.0,194.0 L 111.0,198.0 L 126.0,198.0 L 125.0,200.0 L 79.0,200.0 L 79.0,199.0 L 92.0,197.0 L 98.0,193.0 L 99.0,192.0" fill="#EDEDED"/>
</svg>
