<?xml version="1.0" ?>
<svg baseProfile="full" height="600px" version="1.1" viewBox="-19.296000000000003 -19.296000000000003 230.592 230.592" width="600px" xmlns="http://www.w3.org/2000/svg" xmlns:ev="http://www.w3.org/2001/xml-events" xmlns:xlink="http://www.w3.org/1999/xlink">
	<defs/>
	<path d="M 0.0,0.0 L 192.0,0.0 L 192.0,192.0 L 0.0,192.0 L 0.0,0.0" fill="#FEFDFD"/>
	<path d="M 108.0,16.0 L 117.0,16.0 L 126.0,19.0 L 136.0,24.0 L 146.0,32.0 L 153.0,39.0 L 160.0,49.0 L 168.0,65.0 L 173.0,82.0 L 175.0,94.0 L 176.0,105.0 L 176.0,122.0 L 174.0,134.0 L 166.0,150.0 L 155.0,161.0 L 141.0,169.0 L 131.0,173.0 L 116.0,176.0 L 108.0,176.0 L 101.0,170.0 L 100.0,167.0 L 100.0,24.0 L 103.0,19.0 L 108.0,16.0" fill="#F8B9CF"/>
	<path d="M 76.0,16.0 L 83.0,16.0 L 89.0,19.0 L 92.0,23.0 L 92.0,168.0 L 89.0,173.0 L 84.0,176.0 L 75.0,176.0 L 58.0,172.0 L 42.0,164.0 L 34.0,158.0 L 26.0,150.0 L 19.0,136.0 L 16.0,123.0 L 16.0,104.0 L 19.0,86.0 L 25.0,68.0 L 32.0,54.0 L 42.0,40.0 L 55.0,27.0 L 66.0,20.0 L 76.0,16.0" fill="#F8BACF"/>
	<path d="M 112.0,26.0 L 119.0,26.0 L 124.0,31.0 L 124.0,38.0 L 118.0,43.0 L 113.0,47.0 L 112.0,49.0 L 117.0,47.0 L 126.0,39.0 L 131.0,37.0 L 138.0,38.0 L 146.0,45.0 L 150.0,53.0 L 151.0,56.0 L 151.0,63.0 L 148.0,72.0 L 143.0,76.0 L 136.0,76.0 L 127.0,70.0 L 124.0,69.0 L 117.0,69.0 L 112.0,74.0 L 115.0,73.0 L 126.0,73.0 L 130.0,77.0 L 130.0,84.0 L 126.0,89.0 L 117.0,92.0 L 117.0,95.0 L 119.0,96.0 L 129.0,96.0 L 137.0,85.0 L 144.0,79.0 L 146.0,78.0 L 153.0,78.0 L 159.0,81.0 L 164.0,87.0 L 165.0,89.0 L 165.0,105.0 L 159.0,114.0 L 151.0,118.0 L 122.0,118.0 L 116.0,120.0 L 114.0,123.0 L 114.0,134.0 L 121.0,134.0 L 127.0,125.0 L 132.0,120.0 L 139.0,120.0 L 144.0,125.0 L 143.0,132.0 L 141.0,137.0 L 146.0,132.0 L 152.0,127.0 L 159.0,126.0 L 164.0,131.0 L 164.0,138.0 L 160.0,146.0 L 154.0,153.0 L 143.0,161.0 L 135.0,165.0 L 129.0,167.0 L 118.0,167.0 L 111.0,163.0 L 109.0,160.0 L 109.0,153.0 L 113.0,148.0 L 118.0,146.0 L 128.0,146.0 L 130.0,148.0 L 130.0,153.0 L 129.0,154.0 L 119.0,155.0 L 119.0,158.0 L 128.0,158.0 L 144.0,150.0 L 152.0,142.0 L 155.0,136.0 L 148.0,143.0 L 145.0,145.0 L 138.0,145.0 L 133.0,140.0 L 133.0,133.0 L 135.0,129.0 L 134.0,130.0 L 128.0,140.0 L 123.0,143.0 L 112.0,143.0 L 106.0,138.0 L 105.0,136.0 L 105.0,123.0 L 108.0,116.0 L 114.0,111.0 L 121.0,109.0 L 149.0,109.0 L 154.0,106.0 L 156.0,104.0 L 156.0,91.0 L 152.0,87.0 L 147.0,87.0 L 140.0,96.0 L 133.0,104.0 L 128.0,106.0 L 118.0,105.0 L 111.0,102.0 L 108.0,98.0 L 108.0,90.0 L 113.0,85.0 L 120.0,82.0 L 110.0,82.0 L 105.0,78.0 L 105.0,69.0 L 108.0,64.0 L 116.0,60.0 L 125.0,60.0 L 132.0,63.0 L 138.0,67.0 L 141.0,68.0 L 141.0,54.0 L 137.0,48.0 L 134.0,46.0 L 130.0,47.0 L 121.0,55.0 L 115.0,57.0 L 108.0,56.0 L 104.0,52.0 L 104.0,45.0 L 111.0,37.0 L 114.0,35.0 L 109.0,33.0 L 109.0,28.0 L 112.0,26.0" fill="#FE82AC"/>
	<path d="M 72.0,26.0 L 79.0,26.0 L 82.0,28.0 L 82.0,33.0 L 77.0,35.0 L 84.0,40.0 L 87.0,44.0 L 87.0,53.0 L 81.0,57.0 L 74.0,57.0 L 65.0,51.0 L 60.0,46.0 L 55.0,47.0 L 51.0,53.0 L 50.0,56.0 L 50.0,65.0 L 51.0,67.0 L 56.0,65.0 L 63.0,61.0 L 66.0,60.0 L 75.0,60.0 L 83.0,64.0 L 86.0,68.0 L 86.0,78.0 L 81.0,82.0 L 73.0,82.0 L 81.0,87.0 L 83.0,89.0 L 83.0,98.0 L 79.0,103.0 L 70.0,106.0 L 63.0,106.0 L 57.0,103.0 L 49.0,93.0 L 45.0,88.0 L 37.0,88.0 L 35.0,91.0 L 35.0,102.0 L 38.0,107.0 L 40.0,109.0 L 70.0,109.0 L 79.0,112.0 L 85.0,118.0 L 87.0,123.0 L 87.0,133.0 L 84.0,139.0 L 79.0,143.0 L 68.0,143.0 L 63.0,140.0 L 57.0,130.0 L 58.0,133.0 L 58.0,140.0 L 53.0,145.0 L 46.0,144.0 L 38.0,137.0 L 35.0,135.0 L 43.0,146.0 L 54.0,154.0 L 60.0,157.0 L 73.0,157.0 L 74.0,155.0 L 62.0,154.0 L 61.0,153.0 L 61.0,148.0 L 64.0,146.0 L 73.0,146.0 L 79.0,149.0 L 82.0,153.0 L 82.0,160.0 L 77.0,165.0 L 73.0,167.0 L 62.0,167.0 L 50.0,162.0 L 39.0,154.0 L 32.0,147.0 L 28.0,139.0 L 27.0,133.0 L 30.0,128.0 L 32.0,126.0 L 39.0,127.0 L 47.0,134.0 L 49.0,135.0 L 48.0,133.0 L 48.0,124.0 L 52.0,120.0 L 59.0,120.0 L 64.0,125.0 L 70.0,134.0 L 77.0,134.0 L 78.0,132.0 L 78.0,125.0 L 75.0,120.0 L 69.0,118.0 L 39.0,118.0 L 32.0,114.0 L 28.0,109.0 L 26.0,103.0 L 26.0,90.0 L 30.0,83.0 L 35.0,79.0 L 38.0,78.0 L 45.0,78.0 L 51.0,82.0 L 58.0,90.0 L 62.0,96.0 L 69.0,97.0 L 74.0,95.0 L 75.0,91.0 L 67.0,90.0 L 62.0,86.0 L 61.0,84.0 L 61.0,77.0 L 66.0,73.0 L 78.0,73.0 L 78.0,70.0 L 74.0,69.0 L 67.0,69.0 L 60.0,73.0 L 55.0,76.0 L 48.0,76.0 L 43.0,71.0 L 41.0,66.0 L 41.0,55.0 L 43.0,49.0 L 47.0,43.0 L 52.0,39.0 L 55.0,37.0 L 63.0,38.0 L 69.0,42.0 L 75.0,48.0 L 79.0,49.0 L 74.0,43.0 L 68.0,39.0 L 67.0,38.0 L 67.0,31.0 L 72.0,26.0" fill="#FE82AC"/>
</svg>
