<?xml version="1.0" ?>
<svg baseProfile="full" height="600px" version="1.1" viewBox="-19.296000000000003 -19.296000000000003 230.592 230.592" width="600px" xmlns="http://www.w3.org/2000/svg" xmlns:ev="http://www.w3.org/2001/xml-events" xmlns:xlink="http://www.w3.org/1999/xlink">
	<defs/>
	<path d="M 0.0,0.0 L 192.0,0.0 L 192.0,192.0 L 0.0,192.0 L 0.0,0.0" fill="#FEFDFD"/>
	<path d="M 108.0,16.0 L 117.0,16.0 L 133.0,24.0 L 146.0,36.0 L 155.0,48.0 L 164.0,65.0 L 169.0,80.0 L 173.0,102.0 L 173.0,129.0 L 169.0,143.0 L 163.0,153.0 L 153.0,163.0 L 143.0,169.0 L 133.0,173.0 L 120.0,176.0 L 108.0,176.0 L 101.0,170.0 L 100.0,167.0 L 100.0,24.0 L 103.0,19.0 L 108.0,16.0" fill="#F8B9CF"/>
	<path d="M 76.0,16.0 L 83.0,16.0 L 89.0,19.0 L 92.0,23.0 L 92.0,168.0 L 89.0,173.0 L 84.0,176.0 L 73.0,176.0 L 57.0,172.0 L 46.0,167.0 L 37.0,161.0 L 29.0,153.0 L 24.0,145.0 L 21.0,138.0 L 19.0,128.0 L 19.0,103.0 L 24.0,78.0 L 30.0,62.0 L 39.0,46.0 L 48.0,35.0 L 56.0,27.0 L 70.0,18.0 L 76.0,16.0" fill="#F8B9CF"/>
	<path d="M 111.0,26.0 L 120.0,26.0 L 124.0,30.0 L 124.0,38.0 L 118.0,43.0 L 113.0,47.0 L 118.0,46.0 L 126.0,39.0 L 128.0,38.0 L 136.0,38.0 L 143.0,42.0 L 147.0,47.0 L 150.0,53.0 L 150.0,66.0 L 146.0,74.0 L 144.0,76.0 L 136.0,76.0 L 126.0,69.0 L 117.0,69.0 L 113.0,71.0 L 112.0,74.0 L 115.0,73.0 L 125.0,73.0 L 129.0,77.0 L 129.0,84.0 L 125.0,89.0 L 116.0,93.0 L 116.0,95.0 L 120.0,97.0 L 128.0,97.0 L 132.0,92.0 L 138.0,83.0 L 144.0,79.0 L 155.0,79.0 L 162.0,85.0 L 164.0,89.0 L 164.0,106.0 L 159.0,114.0 L 152.0,118.0 L 118.0,119.0 L 115.0,122.0 L 113.0,126.0 L 113.0,134.0 L 114.0,135.0 L 121.0,135.0 L 127.0,125.0 L 132.0,120.0 L 139.0,120.0 L 143.0,124.0 L 143.0,132.0 L 141.0,137.0 L 146.0,132.0 L 153.0,127.0 L 160.0,128.0 L 163.0,132.0 L 163.0,139.0 L 159.0,147.0 L 155.0,152.0 L 142.0,162.0 L 129.0,167.0 L 118.0,167.0 L 112.0,164.0 L 109.0,160.0 L 109.0,153.0 L 114.0,148.0 L 115.0,147.0 L 129.0,147.0 L 130.0,153.0 L 128.0,155.0 L 118.0,156.0 L 117.0,158.0 L 126.0,158.0 L 136.0,155.0 L 146.0,148.0 L 153.0,140.0 L 153.0,138.0 L 145.0,145.0 L 137.0,145.0 L 133.0,141.0 L 133.0,133.0 L 130.0,138.0 L 125.0,143.0 L 122.0,144.0 L 112.0,144.0 L 105.0,138.0 L 104.0,135.0 L 104.0,126.0 L 106.0,119.0 L 112.0,112.0 L 118.0,110.0 L 151.0,109.0 L 155.0,105.0 L 155.0,91.0 L 153.0,88.0 L 146.0,88.0 L 142.0,93.0 L 135.0,103.0 L 130.0,106.0 L 120.0,106.0 L 112.0,103.0 L 108.0,99.0 L 107.0,91.0 L 112.0,85.0 L 118.0,82.0 L 109.0,82.0 L 104.0,77.0 L 104.0,68.0 L 109.0,63.0 L 114.0,60.0 L 127.0,60.0 L 135.0,64.0 L 138.0,67.0 L 140.0,67.0 L 141.0,65.0 L 141.0,54.0 L 136.0,48.0 L 130.0,47.0 L 122.0,54.0 L 118.0,56.0 L 108.0,56.0 L 104.0,52.0 L 104.0,44.0 L 112.0,36.0 L 114.0,35.0 L 110.0,33.0 L 109.0,28.0 L 111.0,26.0" fill="#FE82AC"/>
	<path d="M 71.0,26.0 L 80.0,26.0 L 81.0,27.0 L 81.0,33.0 L 77.0,35.0 L 85.0,42.0 L 87.0,45.0 L 87.0,52.0 L 82.0,56.0 L 73.0,56.0 L 66.0,52.0 L 61.0,47.0 L 56.0,47.0 L 53.0,48.0 L 51.0,53.0 L 50.0,54.0 L 50.0,68.0 L 55.0,65.0 L 61.0,61.0 L 64.0,60.0 L 77.0,60.0 L 83.0,64.0 L 87.0,69.0 L 87.0,76.0 L 82.0,82.0 L 73.0,82.0 L 81.0,87.0 L 83.0,90.0 L 83.0,99.0 L 78.0,104.0 L 72.0,106.0 L 61.0,106.0 L 56.0,103.0 L 48.0,92.0 L 45.0,88.0 L 38.0,88.0 L 36.0,91.0 L 36.0,105.0 L 40.0,109.0 L 73.0,110.0 L 81.0,114.0 L 85.0,120.0 L 87.0,126.0 L 87.0,133.0 L 84.0,140.0 L 79.0,144.0 L 68.0,144.0 L 61.0,138.0 L 57.0,131.0 L 58.0,140.0 L 53.0,145.0 L 46.0,145.0 L 38.0,138.0 L 38.0,140.0 L 45.0,148.0 L 55.0,155.0 L 63.0,158.0 L 72.0,158.0 L 73.0,156.0 L 63.0,155.0 L 61.0,153.0 L 61.0,148.0 L 62.0,147.0 L 75.0,147.0 L 80.0,150.0 L 82.0,153.0 L 82.0,160.0 L 78.0,165.0 L 73.0,167.0 L 62.0,167.0 L 53.0,164.0 L 42.0,157.0 L 34.0,150.0 L 28.0,141.0 L 28.0,132.0 L 32.0,127.0 L 40.0,128.0 L 45.0,132.0 L 50.0,137.0 L 47.0,130.0 L 47.0,125.0 L 52.0,120.0 L 60.0,121.0 L 66.0,128.0 L 70.0,135.0 L 78.0,135.0 L 78.0,127.0 L 75.0,121.0 L 72.0,119.0 L 37.0,118.0 L 30.0,112.0 L 27.0,105.0 L 27.0,89.0 L 31.0,83.0 L 36.0,79.0 L 46.0,79.0 L 53.0,83.0 L 61.0,96.0 L 63.0,97.0 L 70.0,97.0 L 74.0,95.0 L 75.0,92.0 L 66.0,89.0 L 62.0,85.0 L 61.0,78.0 L 66.0,73.0 L 76.0,73.0 L 79.0,74.0 L 77.0,70.0 L 74.0,69.0 L 65.0,69.0 L 55.0,76.0 L 47.0,76.0 L 43.0,72.0 L 40.0,63.0 L 40.0,56.0 L 44.0,47.0 L 50.0,40.0 L 54.0,38.0 L 63.0,38.0 L 71.0,44.0 L 75.0,48.0 L 79.0,49.0 L 75.0,44.0 L 69.0,40.0 L 66.0,36.0 L 67.0,30.0 L 71.0,26.0" fill="#FE82AC"/>
	<path d="M 69.0,81.0 L 80.0,82.0 L 79.0,85.0 L 69.0,82.0 L 69.0,81.0" fill="#F9B0C9"/>
</svg>
