<?xml version="1.0" ?>
<svg baseProfile="full" height="600px" version="1.1" viewBox="-20.1 -20.1 240.2 240.2" width="600px" xmlns="http://www.w3.org/2000/svg" xmlns:ev="http://www.w3.org/2001/xml-events" xmlns:xlink="http://www.w3.org/1999/xlink">
	<defs/>
	<path d="M 0.0,0.0 L 200.0,0.0 L 200.0,200.0 L 0.0,200.0 L 0.0,0.0" fill="#FBFBFB"/>
	<path d="M 0.0,0.0 L 200.0,0.0 L 200.0,200.0 L 0.0,200.0 L 0.0,0.0 M 66.0,2.0 L 56.0,6.0 L 46.0,15.0 L 41.0,23.0 L 30.0,27.0 L 22.0,34.0 L 15.0,47.0 L 12.0,60.0 L 12.0,83.0 L 14.0,93.0 L 14.0,101.0 L 11.0,109.0 L 11.0,129.0 L 16.0,139.0 L 23.0,145.0 L 25.0,146.0 L 23.0,154.0 L 23.0,162.0 L 26.0,171.0 L 31.0,177.0 L 39.0,182.0 L 45.0,184.0 L 54.0,185.0 L 59.0,190.0 L 66.0,195.0 L 75.0,198.0 L 87.0,198.0 L 97.0,194.0 L 101.0,192.0 L 108.0,196.0 L 127.0,196.0 L 136.0,192.0 L 143.0,187.0 L 146.0,182.0 L 158.0,180.0 L 166.0,177.0 L 173.0,170.0 L 175.0,165.0 L 175.0,150.0 L 173.0,145.0 L 177.0,143.0 L 184.0,136.0 L 188.0,128.0 L 189.0,124.0 L 189.0,111.0 L 186.0,101.0 L 187.0,94.0 L 190.0,82.0 L 190.0,57.0 L 186.0,46.0 L 180.0,36.0 L 171.0,28.0 L 159.0,23.0 L 153.0,14.0 L 145.0,7.0 L 135.0,3.0 L 131.0,2.0 L 114.0,2.0 L 104.0,7.0 L 99.0,11.0 L 92.0,5.0 L 83.0,2.0 L 66.0,2.0" fill="#FCFCFC"/>
	<path d="M 115.0,10.0 L 130.0,10.0 L 141.0,14.0 L 147.0,19.0 L 152.0,27.0 L 153.0,32.0 L 162.0,33.0 L 169.0,37.0 L 174.0,42.0 L 179.0,50.0 L 182.0,58.0 L 182.0,81.0 L 178.0,94.0 L 171.0,102.0 L 162.0,107.0 L 150.0,111.0 L 141.0,114.0 L 142.0,119.0 L 153.0,118.0 L 166.0,113.0 L 176.0,107.0 L 179.0,106.0 L 181.0,111.0 L 181.0,122.0 L 177.0,131.0 L 171.0,138.0 L 164.0,142.0 L 167.0,151.0 L 167.0,163.0 L 164.0,168.0 L 160.0,171.0 L 157.0,172.0 L 144.0,172.0 L 135.0,169.0 L 130.0,164.0 L 128.0,158.0 L 127.0,146.0 L 122.0,145.0 L 121.0,146.0 L 121.0,161.0 L 126.0,171.0 L 134.0,177.0 L 138.0,180.0 L 132.0,185.0 L 126.0,188.0 L 111.0,188.0 L 105.0,185.0 L 104.0,182.0 L 104.0,21.0 L 107.0,15.0 L 112.0,11.0 L 115.0,10.0" fill="#FCFCFC"/>
	<path d="M 66.0,2.0 L 83.0,2.0 L 93.0,6.0 L 100.0,11.0 L 107.0,5.0 L 114.0,2.0 L 131.0,2.0 L 143.0,6.0 L 151.0,12.0 L 157.0,19.0 L 159.0,23.0 L 171.0,28.0 L 181.0,37.0 L 189.0,53.0 L 190.0,57.0 L 190.0,82.0 L 186.0,97.0 L 187.0,104.0 L 189.0,111.0 L 189.0,124.0 L 185.0,134.0 L 178.0,142.0 L 175.0,145.0 L 173.0,145.0 L 175.0,150.0 L 175.0,165.0 L 172.0,171.0 L 164.0,178.0 L 155.0,181.0 L 146.0,182.0 L 141.0,189.0 L 132.0,194.0 L 127.0,196.0 L 108.0,196.0 L 101.0,192.0 L 97.0,194.0 L 87.0,198.0 L 75.0,198.0 L 64.0,194.0 L 56.0,188.0 L 54.0,185.0 L 42.0,183.0 L 34.0,179.0 L 29.0,175.0 L 25.0,169.0 L 23.0,162.0 L 23.0,154.0 L 25.0,146.0 L 19.0,142.0 L 13.0,134.0 L 11.0,129.0 L 11.0,109.0 L 14.0,101.0 L 14.0,93.0 L 12.0,83.0 L 12.0,60.0 L 16.0,45.0 L 22.0,34.0 L 30.0,27.0 L 41.0,23.0 L 47.0,14.0 L 56.0,6.0 L 66.0,2.0 M 69.0,10.0 L 61.0,13.0 L 55.0,17.0 L 49.0,25.0 L 47.0,32.0 L 39.0,32.0 L 32.0,36.0 L 25.0,44.0 L 21.0,56.0 L 20.0,61.0 L 20.0,80.0 L 22.0,92.0 L 26.0,90.0 L 38.0,84.0 L 41.0,83.0 L 55.0,83.0 L 64.0,87.0 L 70.0,92.0 L 71.0,98.0 L 66.0,99.0 L 62.0,94.0 L 54.0,90.0 L 42.0,90.0 L 32.0,95.0 L 23.0,102.0 L 20.0,108.0 L 19.0,112.0 L 19.0,126.0 L 22.0,133.0 L 27.0,138.0 L 34.0,141.0 L 38.0,141.0 L 32.0,152.0 L 32.0,164.0 L 35.0,169.0 L 41.0,174.0 L 48.0,176.0 L 59.0,176.0 L 61.0,181.0 L 67.0,186.0 L 76.0,190.0 L 86.0,190.0 L 92.0,187.0 L 96.0,182.0 L 96.0,22.0 L 92.0,15.0 L 85.0,11.0 L 82.0,10.0 L 69.0,10.0 M 115.0,10.0 L 109.0,13.0 L 105.0,18.0 L 104.0,21.0 L 104.0,182.0 L 106.0,186.0 L 111.0,188.0 L 126.0,188.0 L 135.0,183.0 L 138.0,179.0 L 128.0,173.0 L 124.0,168.0 L 121.0,161.0 L 121.0,146.0 L 126.0,145.0 L 127.0,146.0 L 129.0,162.0 L 133.0,168.0 L 139.0,171.0 L 144.0,172.0 L 157.0,172.0 L 163.0,169.0 L 166.0,166.0 L 167.0,163.0 L 167.0,151.0 L 164.0,142.0 L 173.0,136.0 L 179.0,128.0 L 181.0,122.0 L 181.0,111.0 L 179.0,106.0 L 175.0,108.0 L 159.0,116.0 L 153.0,118.0 L 142.0,119.0 L 141.0,114.0 L 150.0,111.0 L 165.0,106.0 L 174.0,99.0 L 179.0,92.0 L 182.0,81.0 L 182.0,58.0 L 177.0,46.0 L 172.0,39.0 L 165.0,34.0 L 159.0,32.0 L 153.0,32.0 L 150.0,23.0 L 145.0,17.0 L 137.0,12.0 L 130.0,10.0 L 115.0,10.0" fill="#070707"/>
	<path d="M 130.0,48.0 L 135.0,49.0 L 141.0,60.0 L 148.0,66.0 L 162.0,71.0 L 167.0,73.0 L 168.0,78.0 L 166.0,80.0 L 156.0,79.0 L 144.0,74.0 L 136.0,68.0 L 130.0,59.0 L 128.0,54.0 L 129.0,49.0 L 130.0,48.0" fill="#090909"/>
	<path d="M 42.0,120.0 L 49.0,121.0 L 58.0,127.0 L 65.0,135.0 L 71.0,148.0 L 72.0,158.0 L 70.0,160.0 L 65.0,159.0 L 62.0,150.0 L 56.0,138.0 L 51.0,133.0 L 47.0,130.0 L 41.0,127.0 L 40.0,122.0 L 42.0,120.0" fill="#090909"/>
	<path d="M 74.0,40.0 L 79.0,41.0 L 80.0,46.0 L 76.0,54.0 L 69.0,60.0 L 56.0,64.0 L 50.0,64.0 L 48.0,62.0 L 49.0,57.0 L 55.0,55.0 L 65.0,52.0 L 71.0,45.0 L 74.0,40.0" fill="#090909"/>
	<path d="M 82.0,0.0 L 128.0,0.0 L 128.0,2.0 L 114.0,3.0 L 104.0,8.0 L 99.0,12.0 L 92.0,6.0 L 83.0,3.0 L 71.0,2.0 L 71.0,1.0 L 82.0,0.0" fill="#F0F0F0"/>
</svg>
