<?xml version="1.0" ?>
<svg baseProfile="full" height="600px" version="1.1" viewBox="-19.296000000000003 -19.296000000000003 230.592 230.592" width="600px" xmlns="http://www.w3.org/2000/svg" xmlns:ev="http://www.w3.org/2001/xml-events" xmlns:xlink="http://www.w3.org/1999/xlink">
	<defs/>
	<path d="M 0.0,0.0 L 192.0,0.0 L 192.0,192.0 L 0.0,192.0 L 0.0,0.0" fill="#FEFDFD"/>
	<path d="M 108.0,16.0 L 115.0,16.0 L 125.0,20.0 L 134.0,26.0 L 144.0,35.0 L 155.0,50.0 L 164.0,69.0 L 169.0,86.0 L 171.0,96.0 L 172.0,107.0 L 172.0,130.0 L 168.0,144.0 L 162.0,154.0 L 153.0,163.0 L 139.0,171.0 L 125.0,175.0 L 120.0,176.0 L 108.0,176.0 L 101.0,170.0 L 100.0,167.0 L 100.0,24.0 L 103.0,19.0 L 108.0,16.0" fill="#F8B9CF"/>
	<path d="M 76.0,16.0 L 83.0,16.0 L 89.0,19.0 L 92.0,23.0 L 92.0,168.0 L 89.0,173.0 L 84.0,176.0 L 75.0,176.0 L 62.0,174.0 L 47.0,168.0 L 38.0,162.0 L 29.0,153.0 L 22.0,139.0 L 20.0,127.0 L 20.0,104.0 L 23.0,87.0 L 27.0,72.0 L 34.0,56.0 L 42.0,43.0 L 51.0,32.0 L 63.0,22.0 L 73.0,17.0 L 76.0,16.0" fill="#F8BACF"/>
	<path d="M 72.0,25.0 L 79.0,25.0 L 81.0,27.0 L 80.0,32.0 L 75.0,34.0 L 84.0,41.0 L 87.0,45.0 L 87.0,51.0 L 82.0,56.0 L 73.0,56.0 L 64.0,50.0 L 60.0,47.0 L 55.0,48.0 L 50.0,54.0 L 49.0,56.0 L 50.0,68.0 L 60.0,61.0 L 65.0,59.0 L 74.0,59.0 L 83.0,63.0 L 87.0,68.0 L 87.0,77.0 L 83.0,82.0 L 75.0,83.0 L 81.0,87.0 L 83.0,90.0 L 83.0,99.0 L 78.0,104.0 L 69.0,107.0 L 62.0,107.0 L 55.0,103.0 L 49.0,93.0 L 45.0,88.0 L 39.0,88.0 L 36.0,92.0 L 36.0,103.0 L 39.0,109.0 L 41.0,110.0 L 73.0,110.0 L 79.0,113.0 L 85.0,120.0 L 86.0,123.0 L 86.0,138.0 L 82.0,143.0 L 77.0,145.0 L 70.0,145.0 L 64.0,142.0 L 60.0,137.0 L 57.0,132.0 L 58.0,140.0 L 54.0,145.0 L 47.0,146.0 L 41.0,142.0 L 36.0,137.0 L 40.0,143.0 L 48.0,151.0 L 58.0,157.0 L 61.0,158.0 L 74.0,158.0 L 74.0,156.0 L 62.0,155.0 L 61.0,154.0 L 61.0,148.0 L 63.0,147.0 L 73.0,147.0 L 78.0,149.0 L 82.0,154.0 L 82.0,160.0 L 78.0,165.0 L 75.0,167.0 L 60.0,167.0 L 50.0,163.0 L 37.0,153.0 L 30.0,145.0 L 28.0,141.0 L 28.0,133.0 L 32.0,128.0 L 38.0,128.0 L 44.0,132.0 L 49.0,136.0 L 47.0,130.0 L 47.0,125.0 L 51.0,121.0 L 59.0,121.0 L 64.0,126.0 L 69.0,135.0 L 76.0,136.0 L 78.0,136.0 L 76.0,123.0 L 74.0,120.0 L 70.0,119.0 L 40.0,119.0 L 34.0,116.0 L 29.0,110.0 L 27.0,104.0 L 27.0,91.0 L 31.0,83.0 L 37.0,79.0 L 46.0,79.0 L 53.0,83.0 L 59.0,93.0 L 63.0,98.0 L 70.0,98.0 L 74.0,96.0 L 75.0,92.0 L 66.0,89.0 L 62.0,83.0 L 62.0,77.0 L 66.0,73.0 L 74.0,73.0 L 79.0,74.0 L 76.0,69.0 L 65.0,69.0 L 60.0,72.0 L 54.0,76.0 L 47.0,76.0 L 43.0,72.0 L 40.0,63.0 L 40.0,56.0 L 43.0,48.0 L 48.0,42.0 L 56.0,38.0 L 64.0,39.0 L 72.0,45.0 L 74.0,47.0 L 78.0,48.0 L 74.0,44.0 L 68.0,40.0 L 66.0,37.0 L 66.0,31.0 L 70.0,26.0 L 72.0,25.0" fill="#FE82AC"/>
	<path d="M 112.0,25.0 L 118.0,25.0 L 123.0,28.0 L 124.0,30.0 L 124.0,38.0 L 118.0,43.0 L 113.0,47.0 L 117.0,46.0 L 125.0,40.0 L 130.0,38.0 L 137.0,39.0 L 143.0,43.0 L 148.0,49.0 L 150.0,53.0 L 150.0,66.0 L 146.0,74.0 L 144.0,76.0 L 136.0,76.0 L 128.0,70.0 L 126.0,69.0 L 115.0,69.0 L 112.0,71.0 L 111.0,74.0 L 124.0,73.0 L 129.0,78.0 L 129.0,83.0 L 124.0,89.0 L 121.0,91.0 L 116.0,92.0 L 117.0,96.0 L 121.0,98.0 L 127.0,98.0 L 131.0,94.0 L 136.0,85.0 L 143.0,79.0 L 153.0,79.0 L 159.0,83.0 L 162.0,87.0 L 163.0,90.0 L 163.0,107.0 L 158.0,115.0 L 151.0,119.0 L 119.0,119.0 L 115.0,120.0 L 113.0,126.0 L 113.0,135.0 L 120.0,136.0 L 125.0,128.0 L 131.0,121.0 L 138.0,120.0 L 143.0,124.0 L 143.0,132.0 L 141.0,137.0 L 146.0,132.0 L 152.0,128.0 L 158.0,128.0 L 162.0,132.0 L 163.0,139.0 L 158.0,148.0 L 149.0,157.0 L 138.0,164.0 L 129.0,167.0 L 116.0,167.0 L 110.0,163.0 L 109.0,160.0 L 109.0,153.0 L 114.0,148.0 L 116.0,147.0 L 128.0,147.0 L 130.0,149.0 L 129.0,154.0 L 128.0,155.0 L 118.0,156.0 L 118.0,158.0 L 130.0,158.0 L 141.0,152.0 L 151.0,143.0 L 154.0,138.0 L 147.0,144.0 L 143.0,146.0 L 136.0,145.0 L 132.0,139.0 L 133.0,133.0 L 130.0,138.0 L 124.0,144.0 L 121.0,145.0 L 112.0,145.0 L 107.0,142.0 L 104.0,135.0 L 104.0,124.0 L 109.0,115.0 L 115.0,111.0 L 118.0,110.0 L 150.0,110.0 L 154.0,106.0 L 154.0,91.0 L 151.0,88.0 L 145.0,88.0 L 136.0,102.0 L 131.0,106.0 L 129.0,107.0 L 120.0,107.0 L 112.0,104.0 L 107.0,98.0 L 107.0,91.0 L 113.0,84.0 L 117.0,82.0 L 108.0,82.0 L 104.0,78.0 L 103.0,76.0 L 103.0,69.0 L 106.0,64.0 L 116.0,59.0 L 124.0,59.0 L 133.0,62.0 L 138.0,67.0 L 140.0,67.0 L 141.0,65.0 L 141.0,55.0 L 137.0,49.0 L 134.0,47.0 L 129.0,48.0 L 121.0,54.0 L 116.0,56.0 L 109.0,56.0 L 104.0,52.0 L 103.0,47.0 L 107.0,40.0 L 114.0,35.0 L 116.0,35.0 L 116.0,33.0 L 111.0,32.0 L 110.0,27.0 L 112.0,25.0" fill="#FE82AC"/>
</svg>
