<?xml version="1.0" ?>
<svg baseProfile="full" height="600px" version="1.1" viewBox="-9.648000000000001 -9.648000000000001 115.296 115.296" width="600px" xmlns="http://www.w3.org/2000/svg" xmlns:ev="http://www.w3.org/2001/xml-events" xmlns:xlink="http://www.w3.org/1999/xlink">
	<defs/>
	<path d="M 0.0,0.0 L 96.0,0.0 L 96.0,96.0 L 0.0,96.0 L 0.0,0.0" fill="#FDFDFD"/>
	<path d="M 18.0,28.0 L 40.0,28.0 L 40.0,36.0 L 20.0,37.0 L 15.0,39.0 L 13.0,44.0 L 13.0,51.0 L 15.0,57.0 L 20.0,59.0 L 40.0,60.0 L 40.0,68.0 L 18.0,68.0 L 10.0,63.0 L 5.0,56.0 L 4.0,53.0 L 4.0,42.0 L 9.0,34.0 L 18.0,28.0" fill="#060606"/>
	<path d="M 56.0,28.0 L 77.0,28.0 L 85.0,32.0 L 90.0,38.0 L 92.0,43.0 L 92.0,53.0 L 88.0,61.0 L 80.0,67.0 L 77.0,68.0 L 56.0,68.0 L 56.0,60.0 L 76.0,59.0 L 82.0,54.0 L 83.0,52.0 L 83.0,44.0 L 81.0,39.0 L 75.0,37.0 L 56.0,36.0 L 56.0,28.0" fill="#050505"/>
	<path d="M 28.0,44.0 L 68.0,44.0 L 68.0,52.0 L 28.0,52.0 L 28.0,44.0" fill="#000000"/>
</svg>
