<?xml version="1.0" ?>
<svg baseProfile="full" height="600px" version="1.1" viewBox="-12.06 -12.06 144.12 144.12" width="600px" xmlns="http://www.w3.org/2000/svg" xmlns:ev="http://www.w3.org/2001/xml-events" xmlns:xlink="http://www.w3.org/1999/xlink">
	<defs/>
	<path d="M 0.0,0.0 L 120.0,0.0 L 120.0,120.0 L 0.0,120.0 L 0.0,0.0" fill="#FCFCFC"/>
	<path d="M 33.0,16.0 L 44.0,16.0 L 54.0,21.0 L 57.0,24.0 L 56.0,33.0 L 55.0,40.0 L 62.0,40.0 L 61.0,48.0 L 57.0,61.0 L 64.0,61.0 L 63.0,69.0 L 67.0,58.0 L 60.0,58.0 L 63.0,46.0 L 67.0,36.0 L 59.0,36.0 L 61.0,26.0 L 69.0,19.0 L 76.0,16.0 L 87.0,16.0 L 97.0,21.0 L 103.0,28.0 L 106.0,34.0 L 106.0,51.0 L 99.0,67.0 L 90.0,79.0 L 80.0,90.0 L 72.0,97.0 L 65.0,103.0 L 57.0,104.0 L 46.0,95.0 L 36.0,86.0 L 29.0,78.0 L 20.0,65.0 L 15.0,54.0 L 14.0,51.0 L 14.0,34.0 L 19.0,25.0 L 26.0,19.0 L 33.0,16.0" fill="#020202"/>
	<path d="M 59.0,50.0 L 60.0,52.0 L 62.0,53.0 L 60.0,58.0 L 67.0,58.0 L 66.0,63.0 L 63.0,71.0 L 62.0,67.0 L 64.0,61.0 L 57.0,61.0 L 59.0,50.0" fill="#D6D6D6"/>
</svg>
