<?xml version="1.0" ?>
<svg baseProfile="full" height="600px" version="1.1" viewBox="-12.06 -12.06 144.12 144.12" width="600px" xmlns="http://www.w3.org/2000/svg" xmlns:ev="http://www.w3.org/2001/xml-events" xmlns:xlink="http://www.w3.org/1999/xlink">
	<defs/>
	<path d="M 0.0,0.0 L 120.0,0.0 L 120.0,120.0 L 0.0,120.0 L 0.0,0.0" fill="#FCFCFC"/>
	<path d="M 34.0,16.0 L 45.0,16.0 L 53.0,20.0 L 59.0,26.0 L 63.0,24.0 L 70.0,18.0 L 75.0,16.0 L 85.0,16.0 L 95.0,21.0 L 101.0,28.0 L 104.0,35.0 L 104.0,48.0 L 100.0,61.0 L 94.0,72.0 L 85.0,83.0 L 77.0,92.0 L 69.0,99.0 L 64.0,103.0 L 57.0,104.0 L 47.0,95.0 L 40.0,89.0 L 33.0,81.0 L 24.0,69.0 L 18.0,56.0 L 16.0,49.0 L 16.0,35.0 L 21.0,25.0 L 28.0,19.0 L 34.0,16.0" fill="#020202"/>
</svg>
