<?xml version="1.0" ?>
<svg baseProfile="full" height="600px" version="1.1" viewBox="-20.1 -20.1 240.2 240.2" width="600px" xmlns="http://www.w3.org/2000/svg" xmlns:ev="http://www.w3.org/2001/xml-events" xmlns:xlink="http://www.w3.org/1999/xlink">
	<defs/>
	<path d="M 0.0,0.0 L 200.0,0.0 L 200.0,200.0 L 0.0,200.0 L 0.0,0.0" fill="#FCFCFC"/>
	<path d="M 36.0,105.0 L 41.0,107.0 L 43.0,108.0 L 41.0,112.0 L 30.0,128.0 L 21.0,141.0 L 17.0,150.0 L 17.0,162.0 L 23.0,174.0 L 30.0,180.0 L 39.0,183.0 L 49.0,183.0 L 59.0,179.0 L 66.0,173.0 L 77.0,157.0 L 86.0,144.0 L 90.0,134.0 L 90.0,123.0 L 87.0,116.0 L 88.0,111.0 L 92.0,108.0 L 96.0,113.0 L 99.0,122.0 L 99.0,135.0 L 96.0,144.0 L 90.0,154.0 L 78.0,171.0 L 70.0,182.0 L 60.0,189.0 L 50.0,192.0 L 36.0,192.0 L 26.0,188.0 L 17.0,181.0 L 11.0,172.0 L 8.0,161.0 L 8.0,150.0 L 11.0,140.0 L 22.0,124.0 L 34.0,107.0 L 36.0,105.0" fill="#080808"/>
	<path d="M 148.0,8.0 L 161.0,8.0 L 172.0,11.0 L 182.0,18.0 L 189.0,28.0 L 192.0,38.0 L 192.0,50.0 L 188.0,61.0 L 184.0,67.0 L 177.0,74.0 L 161.0,85.0 L 148.0,94.0 L 140.0,98.0 L 135.0,99.0 L 122.0,99.0 L 112.0,95.0 L 107.0,92.0 L 112.0,88.0 L 116.0,87.0 L 123.0,90.0 L 134.0,90.0 L 144.0,86.0 L 164.0,72.0 L 175.0,64.0 L 179.0,59.0 L 183.0,49.0 L 183.0,38.0 L 179.0,29.0 L 173.0,22.0 L 162.0,17.0 L 151.0,17.0 L 142.0,20.0 L 124.0,33.0 L 110.0,43.0 L 106.0,39.0 L 105.0,36.0 L 115.0,28.0 L 131.0,17.0 L 142.0,10.0 L 148.0,8.0" fill="#080808"/>
	<path d="M 10.0,8.0 L 15.0,9.0 L 64.0,58.0 L 63.0,63.0 L 58.0,64.0 L 8.0,14.0 L 9.0,9.0 L 10.0,8.0" fill="#030303"/>
</svg>
