<?xml version="1.0" ?>
<svg baseProfile="full" height="600px" version="1.1" viewBox="-20.1 -20.1 240.2 240.2" width="600px" xmlns="http://www.w3.org/2000/svg" xmlns:ev="http://www.w3.org/2001/xml-events" xmlns:xlink="http://www.w3.org/1999/xlink">
	<defs/>
	<path d="M 0.0,0.0 L 200.0,0.0 L 200.0,200.0 L 0.0,200.0 L 0.0,0.0" fill="#FDFDFD"/>
	<path d="M 55.0,28.0 L 69.0,28.0 L 78.0,30.0 L 90.0,36.0 L 98.0,43.0 L 101.0,46.0 L 103.0,42.0 L 113.0,34.0 L 124.0,29.0 L 128.0,28.0 L 145.0,28.0 L 158.0,33.0 L 166.0,39.0 L 174.0,47.0 L 182.0,63.0 L 184.0,72.0 L 184.0,90.0 L 180.0,106.0 L 175.0,118.0 L 168.0,130.0 L 157.0,143.0 L 147.0,153.0 L 136.0,162.0 L 115.0,178.0 L 102.0,188.0 L 97.0,187.0 L 79.0,173.0 L 63.0,161.0 L 49.0,149.0 L 40.0,140.0 L 30.0,127.0 L 22.0,112.0 L 18.0,101.0 L 16.0,91.0 L 16.0,72.0 L 19.0,60.0 L 26.0,47.0 L 36.0,37.0 L 46.0,31.0 L 55.0,28.0" fill="#FCFCFC"/>
	<path d="M 55.0,28.0 L 69.0,28.0 L 78.0,30.0 L 90.0,36.0 L 98.0,43.0 L 101.0,46.0 L 103.0,42.0 L 113.0,34.0 L 124.0,29.0 L 128.0,28.0 L 145.0,28.0 L 158.0,33.0 L 166.0,39.0 L 174.0,47.0 L 182.0,63.0 L 184.0,72.0 L 184.0,90.0 L 180.0,106.0 L 175.0,118.0 L 168.0,130.0 L 157.0,143.0 L 147.0,153.0 L 136.0,162.0 L 115.0,178.0 L 102.0,188.0 L 97.0,187.0 L 79.0,173.0 L 63.0,161.0 L 49.0,149.0 L 40.0,140.0 L 30.0,127.0 L 22.0,112.0 L 18.0,101.0 L 16.0,91.0 L 16.0,72.0 L 19.0,60.0 L 26.0,47.0 L 36.0,37.0 L 46.0,31.0 L 55.0,28.0 M 57.0,36.0 L 46.0,40.0 L 37.0,47.0 L 31.0,54.0 L 26.0,64.0 L 24.0,73.0 L 24.0,90.0 L 29.0,108.0 L 37.0,123.0 L 46.0,134.0 L 62.0,150.0 L 76.0,161.0 L 92.0,173.0 L 99.0,178.0 L 104.0,176.0 L 117.0,166.0 L 133.0,154.0 L 146.0,142.0 L 157.0,131.0 L 166.0,118.0 L 172.0,105.0 L 176.0,91.0 L 176.0,72.0 L 173.0,62.0 L 168.0,53.0 L 160.0,44.0 L 152.0,39.0 L 142.0,36.0 L 129.0,36.0 L 117.0,41.0 L 107.0,50.0 L 103.0,56.0 L 97.0,57.0 L 95.0,53.0 L 88.0,45.0 L 79.0,39.0 L 70.0,36.0 L 57.0,36.0" fill="#080808"/>
</svg>
