<?xml version="1.0" ?>
<svg baseProfile="full" height="600px" version="1.1" viewBox="-19.296000000000003 -19.296000000000003 230.592 230.592" width="600px" xmlns="http://www.w3.org/2000/svg" xmlns:ev="http://www.w3.org/2001/xml-events" xmlns:xlink="http://www.w3.org/1999/xlink">
	<defs/>
	<path d="M 0.0,0.0 L 192.0,0.0 L 192.0,192.0 L 0.0,192.0 L 0.0,0.0" fill="#FCFDFE"/>
	<path d="M 191.0,98.0 L 192.0,98.0 L 192.0,192.0 L 0.0,192.0 L 0.0,99.0 L 2.0,103.0 L 6.0,113.0 L 12.0,121.0 L 21.0,128.0 L 32.0,132.0 L 57.0,132.0 L 66.0,130.0 L 74.0,126.0 L 83.0,118.0 L 91.0,102.0 L 118.0,102.0 L 118.0,103.0 L 101.0,103.0 L 109.0,118.0 L 118.0,126.0 L 128.0,131.0 L 132.0,132.0 L 157.0,132.0 L 166.0,130.0 L 174.0,126.0 L 183.0,118.0 L 189.0,107.0 L 191.0,98.0" fill="#FCFDFE"/>
	<path d="M 132.0,53.0 L 158.0,53.0 L 168.0,56.0 L 178.0,62.0 L 186.0,71.0 L 190.0,79.0 L 192.0,85.0 L 192.0,98.0 L 189.0,109.0 L 183.0,119.0 L 174.0,127.0 L 164.0,132.0 L 157.0,133.0 L 132.0,133.0 L 121.0,129.0 L 112.0,122.0 L 106.0,115.0 L 102.0,107.0 L 102.0,104.0 L 119.0,104.0 L 126.0,112.0 L 134.0,116.0 L 156.0,116.0 L 166.0,112.0 L 172.0,105.0 L 175.0,98.0 L 175.0,87.0 L 171.0,79.0 L 164.0,73.0 L 157.0,70.0 L 134.0,70.0 L 126.0,74.0 L 120.0,80.0 L 102.0,80.0 L 106.0,71.0 L 115.0,61.0 L 124.0,56.0 L 132.0,53.0" fill="#1C78D3"/>
	<path d="M 32.0,53.0 L 58.0,53.0 L 68.0,56.0 L 78.0,62.0 L 86.0,71.0 L 90.0,79.0 L 90.0,80.0 L 72.0,80.0 L 64.0,73.0 L 57.0,70.0 L 34.0,70.0 L 26.0,74.0 L 20.0,81.0 L 17.0,87.0 L 17.0,98.0 L 21.0,107.0 L 29.0,114.0 L 34.0,116.0 L 56.0,116.0 L 66.0,112.0 L 73.0,104.0 L 90.0,104.0 L 89.0,109.0 L 83.0,119.0 L 74.0,127.0 L 64.0,132.0 L 57.0,133.0 L 32.0,133.0 L 21.0,129.0 L 12.0,122.0 L 6.0,115.0 L 2.0,107.0 L 0.0,99.0 L 0.0,85.0 L 5.0,73.0 L 11.0,65.0 L 18.0,59.0 L 26.0,55.0 L 32.0,53.0" fill="#1C78D3"/>
	<path d="M 60.0,85.0 L 131.0,85.0 L 136.0,89.0 L 137.0,95.0 L 135.0,99.0 L 131.0,101.0 L 60.0,101.0 L 55.0,95.0 L 56.0,89.0 L 60.0,85.0" fill="#43A5F5"/>
</svg>
