<?xml version="1.0" ?>
<svg baseProfile="full" height="600px" version="1.1" viewBox="-20.1 -20.1 240.2 240.2" width="600px" xmlns="http://www.w3.org/2000/svg" xmlns:ev="http://www.w3.org/2001/xml-events" xmlns:xlink="http://www.w3.org/1999/xlink">
	<defs/>
	<path d="M 0.0,0.0 L 200.0,0.0 L 200.0,200.0 L 0.0,200.0 L 0.0,0.0" fill="#FCFCFC"/>
	<path d="M 148.0,12.0 L 157.0,12.0 L 170.0,16.0 L 179.0,23.0 L 186.0,34.0 L 188.0,40.0 L 188.0,52.0 L 186.0,61.0 L 182.0,69.0 L 150.0,101.0 L 140.0,106.0 L 137.0,107.0 L 120.0,107.0 L 113.0,104.0 L 118.0,98.0 L 136.0,98.0 L 146.0,93.0 L 174.0,65.0 L 179.0,53.0 L 179.0,42.0 L 175.0,33.0 L 169.0,26.0 L 158.0,21.0 L 146.0,21.0 L 134.0,27.0 L 107.0,54.0 L 102.0,64.0 L 102.0,82.0 L 96.0,87.0 L 93.0,80.0 L 93.0,63.0 L 97.0,53.0 L 106.0,43.0 L 131.0,18.0 L 141.0,13.0 L 148.0,12.0" fill="#060606"/>
	<path d="M 63.0,93.0 L 80.0,93.0 L 87.0,96.0 L 82.0,102.0 L 64.0,102.0 L 54.0,107.0 L 26.0,135.0 L 22.0,143.0 L 21.0,146.0 L 21.0,158.0 L 27.0,170.0 L 33.0,175.0 L 42.0,179.0 L 54.0,179.0 L 66.0,173.0 L 93.0,146.0 L 98.0,136.0 L 98.0,118.0 L 104.0,113.0 L 107.0,120.0 L 107.0,137.0 L 103.0,147.0 L 94.0,157.0 L 69.0,182.0 L 59.0,187.0 L 52.0,188.0 L 40.0,188.0 L 30.0,184.0 L 22.0,178.0 L 15.0,168.0 L 12.0,157.0 L 12.0,146.0 L 15.0,136.0 L 21.0,128.0 L 50.0,99.0 L 60.0,94.0 L 63.0,93.0" fill="#060606"/>
	<path d="M 124.0,70.0 L 129.0,71.0 L 130.0,76.0 L 76.0,130.0 L 71.0,129.0 L 70.0,124.0 L 124.0,70.0" fill="#020202"/>
</svg>
