<?xml version="1.0" ?>
<svg baseProfile="full" height="600px" version="1.1" viewBox="-12.06 -12.06 144.12 144.12" width="600px" xmlns="http://www.w3.org/2000/svg" xmlns:ev="http://www.w3.org/2001/xml-events" xmlns:xlink="http://www.w3.org/1999/xlink">
	<defs/>
	<path d="M 0.0,0.0 L 120.0,0.0 L 120.0,120.0 L 0.0,120.0 L 0.0,0.0" fill="#FBFBFB"/>
	<path d="M 82.0,8.0 L 95.0,8.0 L 104.0,13.0 L 110.0,20.0 L 112.0,25.0 L 112.0,38.0 L 108.0,46.0 L 94.0,60.0 L 85.0,64.0 L 74.0,64.0 L 76.0,60.0 L 80.0,56.0 L 90.0,52.0 L 100.0,42.0 L 103.0,37.0 L 103.0,28.0 L 100.0,21.0 L 92.0,17.0 L 83.0,17.0 L 75.0,23.0 L 68.0,30.0 L 65.0,36.0 L 65.0,43.0 L 67.0,47.0 L 78.0,36.0 L 83.0,37.0 L 84.0,42.0 L 42.0,84.0 L 37.0,83.0 L 36.0,78.0 L 47.0,67.0 L 45.0,65.0 L 36.0,65.0 L 29.0,69.0 L 19.0,79.0 L 17.0,83.0 L 17.0,92.0 L 21.0,100.0 L 28.0,103.0 L 36.0,103.0 L 43.0,99.0 L 52.0,90.0 L 57.0,79.0 L 62.0,74.0 L 64.0,74.0 L 64.0,85.0 L 59.0,95.0 L 45.0,109.0 L 37.0,112.0 L 25.0,112.0 L 17.0,108.0 L 10.0,100.0 L 8.0,95.0 L 8.0,82.0 L 12.0,74.0 L 26.0,60.0 L 34.0,56.0 L 45.0,56.0 L 52.0,59.0 L 56.0,58.0 L 59.0,55.0 L 58.0,51.0 L 56.0,45.0 L 56.0,34.0 L 60.0,26.0 L 75.0,11.0 L 82.0,8.0" fill="#070707"/>
</svg>
