<?xml version="1.0" ?>
<svg baseProfile="full" height="600px" version="1.1" viewBox="-19.296000000000003 -19.296000000000003 230.592 230.592" width="600px" xmlns="http://www.w3.org/2000/svg" xmlns:ev="http://www.w3.org/2001/xml-events" xmlns:xlink="http://www.w3.org/1999/xlink">
	<defs/>
	<path d="M 0.0,0.0 L 192.0,0.0 L 192.0,192.0 L 0.0,192.0 L 0.0,0.0" fill="#FCFDFE"/>
	<path d="M 132.0,52.0 L 157.0,52.0 L 168.0,55.0 L 177.0,60.0 L 184.0,67.0 L 189.0,76.0 L 192.0,86.0 L 192.0,98.0 L 190.0,106.0 L 184.0,117.0 L 177.0,124.0 L 164.0,131.0 L 158.0,132.0 L 132.0,132.0 L 120.0,127.0 L 112.0,121.0 L 106.0,114.0 L 104.0,111.0 L 104.0,108.0 L 123.0,108.0 L 131.0,114.0 L 134.0,115.0 L 157.0,115.0 L 167.0,110.0 L 172.0,104.0 L 175.0,97.0 L 175.0,86.0 L 171.0,78.0 L 164.0,72.0 L 156.0,69.0 L 135.0,69.0 L 126.0,73.0 L 123.0,76.0 L 104.0,76.0 L 105.0,72.0 L 111.0,64.0 L 118.0,58.0 L 126.0,54.0 L 132.0,52.0" fill="#1C78D3"/>
	<path d="M 32.0,52.0 L 57.0,52.0 L 68.0,55.0 L 77.0,60.0 L 84.0,67.0 L 88.0,73.0 L 88.0,76.0 L 69.0,76.0 L 64.0,72.0 L 56.0,69.0 L 35.0,69.0 L 26.0,73.0 L 19.0,81.0 L 17.0,86.0 L 17.0,97.0 L 22.0,107.0 L 29.0,113.0 L 34.0,115.0 L 57.0,115.0 L 67.0,110.0 L 69.0,108.0 L 88.0,108.0 L 86.0,114.0 L 77.0,124.0 L 66.0,130.0 L 58.0,132.0 L 32.0,132.0 L 20.0,127.0 L 12.0,121.0 L 6.0,114.0 L 2.0,106.0 L 0.0,97.0 L 0.0,84.0 L 4.0,73.0 L 11.0,64.0 L 18.0,58.0 L 26.0,54.0 L 32.0,52.0" fill="#1C78D3"/>
	<path d="M 77.0,16.0 L 79.0,17.0 L 93.0,51.0 L 92.0,55.0 L 88.0,56.0 L 79.0,45.0 L 65.0,26.0 L 64.0,23.0 L 77.0,16.0" fill="#08BED5"/>
	<path d="M 114.0,16.0 L 124.0,21.0 L 128.0,23.0 L 126.0,27.0 L 112.0,46.0 L 104.0,56.0 L 99.0,54.0 L 100.0,48.0 L 113.0,17.0 L 114.0,16.0" fill="#08BED5"/>
	<path d="M 88.0,136.0 L 93.0,138.0 L 92.0,143.0 L 79.0,175.0 L 77.0,176.0 L 64.0,169.0 L 66.0,165.0 L 80.0,146.0 L 88.0,136.0" fill="#07BDD5"/>
	<path d="M 102.0,136.0 L 106.0,138.0 L 122.0,159.0 L 128.0,167.0 L 128.0,169.0 L 114.0,176.0 L 103.0,151.0 L 99.0,141.0 L 100.0,137.0 L 102.0,136.0" fill="#07BDD5"/>
</svg>
