<?xml version="1.0" ?>
<svg baseProfile="full" height="600px" version="1.1" viewBox="-20.1 -20.1 240.2 240.2" width="600px" xmlns="http://www.w3.org/2000/svg" xmlns:ev="http://www.w3.org/2001/xml-events" xmlns:xlink="http://www.w3.org/1999/xlink">
	<defs/>
	<path d="M 0.0,0.0 L 200.0,0.0 L 200.0,200.0 L 0.0,200.0 L 0.0,0.0" fill="#FDFDFD"/>
	<path d="M 34.0,100.0 L 39.0,102.0 L 41.0,106.0 L 36.0,111.0 L 32.0,119.0 L 22.0,150.0 L 22.0,165.0 L 25.0,173.0 L 31.0,180.0 L 41.0,185.0 L 55.0,185.0 L 65.0,180.0 L 70.0,175.0 L 75.0,165.0 L 85.0,135.0 L 86.0,118.0 L 90.0,113.0 L 93.0,114.0 L 94.0,119.0 L 94.0,136.0 L 81.0,175.0 L 74.0,184.0 L 66.0,190.0 L 56.0,194.0 L 40.0,194.0 L 30.0,190.0 L 20.0,181.0 L 15.0,173.0 L 12.0,164.0 L 12.0,152.0 L 22.0,121.0 L 26.0,110.0 L 32.0,102.0 L 34.0,100.0" fill="#090909"/>
	<path d="M 152.0,12.0 L 164.0,12.0 L 177.0,17.0 L 187.0,26.0 L 192.0,34.0 L 194.0,40.0 L 194.0,56.0 L 189.0,68.0 L 181.0,77.0 L 169.0,83.0 L 136.0,94.0 L 117.0,94.0 L 113.0,92.0 L 117.0,88.0 L 120.0,86.0 L 135.0,85.0 L 170.0,73.0 L 178.0,68.0 L 183.0,60.0 L 185.0,55.0 L 185.0,41.0 L 180.0,31.0 L 173.0,25.0 L 165.0,22.0 L 150.0,22.0 L 114.0,34.0 L 105.0,41.0 L 101.0,39.0 L 99.0,35.0 L 107.0,28.0 L 115.0,24.0 L 145.0,14.0 L 152.0,12.0" fill="#090909"/>
	<path d="M 18.0,13.0 L 23.0,14.0 L 34.0,27.0 L 44.0,40.0 L 57.0,56.0 L 59.0,59.0 L 58.0,64.0 L 53.0,65.0 L 45.0,56.0 L 32.0,39.0 L 19.0,23.0 L 16.0,19.0 L 17.0,14.0 L 18.0,13.0" fill="#080808"/>
</svg>
