<?xml version="1.0" ?>
<svg baseProfile="full" height="600px" version="1.1" viewBox="-20.1 -20.1 240.2 240.2" width="600px" xmlns="http://www.w3.org/2000/svg" xmlns:ev="http://www.w3.org/2001/xml-events" xmlns:xlink="http://www.w3.org/1999/xlink">
	<defs/>
	<path d="M 0.0,0.0 L 200.0,0.0 L 200.0,200.0 L 0.0,200.0 L 0.0,0.0" fill="#FBFBFB"/>
	<path d="M 0.0,0.0 L 200.0,0.0 L 200.0,200.0 L 0.0,200.0 L 0.0,0.0 M 100.0,12.0 L 94.0,16.0 L 90.0,21.0 L 88.0,25.0 L 46.0,46.0 L 37.0,42.0 L 30.0,42.0 L 22.0,47.0 L 18.0,54.0 L 18.0,61.0 L 22.0,69.0 L 26.0,72.0 L 26.0,90.0 L 25.0,119.0 L 20.0,120.0 L 15.0,126.0 L 13.0,130.0 L 13.0,138.0 L 17.0,145.0 L 23.0,149.0 L 35.0,149.0 L 41.0,148.0 L 56.0,158.0 L 78.0,172.0 L 81.0,181.0 L 88.0,187.0 L 90.0,188.0 L 100.0,188.0 L 106.0,184.0 L 112.0,175.0 L 154.0,154.0 L 162.0,158.0 L 169.0,158.0 L 177.0,154.0 L 182.0,146.0 L 182.0,138.0 L 177.0,130.0 L 174.0,128.0 L 174.0,106.0 L 175.0,81.0 L 179.0,80.0 L 184.0,76.0 L 187.0,69.0 L 187.0,62.0 L 183.0,55.0 L 176.0,51.0 L 165.0,51.0 L 160.0,52.0 L 144.0,42.0 L 127.0,31.0 L 122.0,28.0 L 119.0,19.0 L 112.0,13.0 L 109.0,12.0 L 100.0,12.0" fill="#FDFDFD"/>
	<path d="M 100.0,12.0 L 109.0,12.0 L 115.0,15.0 L 120.0,21.0 L 122.0,28.0 L 138.0,38.0 L 155.0,49.0 L 160.0,52.0 L 165.0,51.0 L 176.0,51.0 L 183.0,55.0 L 187.0,62.0 L 187.0,69.0 L 183.0,77.0 L 178.0,81.0 L 175.0,81.0 L 174.0,106.0 L 174.0,128.0 L 179.0,132.0 L 182.0,138.0 L 182.0,146.0 L 177.0,154.0 L 169.0,158.0 L 162.0,158.0 L 154.0,154.0 L 112.0,175.0 L 106.0,184.0 L 100.0,188.0 L 90.0,188.0 L 84.0,184.0 L 80.0,179.0 L 78.0,172.0 L 59.0,160.0 L 41.0,148.0 L 35.0,149.0 L 23.0,149.0 L 17.0,145.0 L 13.0,138.0 L 13.0,130.0 L 18.0,122.0 L 22.0,119.0 L 25.0,119.0 L 26.0,90.0 L 26.0,72.0 L 21.0,68.0 L 18.0,61.0 L 18.0,54.0 L 23.0,46.0 L 30.0,42.0 L 37.0,42.0 L 46.0,46.0 L 88.0,25.0 L 94.0,16.0 L 100.0,12.0 M 88.0,34.0 L 50.0,53.0 L 49.0,63.0 L 44.0,70.0 L 35.0,74.0 L 33.0,106.0 L 33.0,119.0 L 39.0,122.0 L 43.0,127.0 L 44.0,129.0 L 44.0,140.0 L 55.0,148.0 L 73.0,159.0 L 80.0,164.0 L 83.0,163.0 L 87.0,159.0 L 89.0,158.0 L 100.0,158.0 L 105.0,161.0 L 109.0,166.0 L 114.0,165.0 L 138.0,153.0 L 149.0,147.0 L 150.0,146.0 L 152.0,135.0 L 156.0,130.0 L 165.0,126.0 L 167.0,90.0 L 167.0,81.0 L 161.0,78.0 L 157.0,73.0 L 156.0,70.0 L 156.0,60.0 L 145.0,52.0 L 129.0,42.0 L 120.0,36.0 L 117.0,37.0 L 113.0,41.0 L 110.0,42.0 L 99.0,42.0 L 92.0,36.0 L 91.0,34.0 L 88.0,34.0" fill="#060606"/>
	<path d="M 96.0,60.0 L 103.0,60.0 L 114.0,67.0 L 119.0,73.0 L 120.0,77.0 L 120.0,94.0 L 114.0,105.0 L 112.0,112.0 L 121.0,115.0 L 129.0,122.0 L 132.0,128.0 L 132.0,134.0 L 130.0,136.0 L 70.0,136.0 L 68.0,134.0 L 69.0,125.0 L 77.0,116.0 L 86.0,112.0 L 88.0,112.0 L 86.0,105.0 L 80.0,95.0 L 80.0,74.0 L 85.0,66.0 L 90.0,62.0 L 96.0,60.0" fill="#060606"/>
	<path d="M 162.0,126.0 L 171.0,126.0 L 171.0,128.0 L 176.0,129.0 L 180.0,134.0 L 182.0,138.0 L 182.0,146.0 L 177.0,154.0 L 169.0,158.0 L 162.0,158.0 L 154.0,154.0 L 112.0,175.0 L 106.0,184.0 L 100.0,188.0 L 90.0,188.0 L 84.0,184.0 L 80.0,179.0 L 80.0,167.0 L 84.0,160.0 L 89.0,157.0 L 100.0,157.0 L 105.0,160.0 L 109.0,164.0 L 109.0,166.0 L 132.0,155.0 L 149.0,146.0 L 151.0,135.0 L 156.0,129.0 L 162.0,126.0" fill="#060606"/>
	<path d="M 120.0,23.0 L 121.0,23.0 L 122.0,28.0 L 138.0,38.0 L 155.0,49.0 L 160.0,52.0 L 165.0,51.0 L 176.0,51.0 L 183.0,55.0 L 187.0,62.0 L 187.0,69.0 L 183.0,77.0 L 178.0,81.0 L 175.0,81.0 L 173.0,128.0 L 171.0,128.0 L 171.0,126.0 L 165.0,126.0 L 165.0,109.0 L 167.0,81.0 L 162.0,80.0 L 156.0,73.0 L 155.0,70.0 L 155.0,60.0 L 140.0,50.0 L 120.0,37.0 L 119.0,33.0 L 120.0,32.0 L 120.0,23.0" fill="#070707"/>
	<path d="M 28.0,73.0 L 35.0,74.0 L 35.0,87.0 L 33.0,119.0 L 38.0,120.0 L 44.0,127.0 L 45.0,129.0 L 45.0,140.0 L 60.0,150.0 L 82.0,164.0 L 80.0,176.0 L 78.0,172.0 L 59.0,160.0 L 41.0,148.0 L 35.0,149.0 L 23.0,149.0 L 17.0,145.0 L 13.0,138.0 L 13.0,130.0 L 18.0,122.0 L 22.0,119.0 L 25.0,119.0 L 26.0,90.0 L 28.0,73.0" fill="#060606"/>
	<path d="M 97.0,68.0 L 100.0,68.0 L 100.0,70.0 L 109.0,73.0 L 112.0,78.0 L 112.0,93.0 L 110.0,94.0 L 107.0,101.0 L 105.0,104.0 L 105.0,114.0 L 112.0,120.0 L 121.0,125.0 L 123.0,128.0 L 77.0,128.0 L 82.0,123.0 L 91.0,118.0 L 95.0,114.0 L 95.0,104.0 L 91.0,98.0 L 89.0,93.0 L 88.0,88.0 L 88.0,75.0 L 92.0,70.0 L 97.0,68.0" fill="#F9F9F9"/>
	<path d="M 162.0,126.0 L 171.0,126.0 L 171.0,128.0 L 176.0,129.0 L 180.0,134.0 L 182.0,138.0 L 182.0,146.0 L 177.0,154.0 L 169.0,158.0 L 162.0,158.0 L 155.0,154.0 L 152.0,151.0 L 151.0,148.0 L 149.0,146.0 L 151.0,135.0 L 156.0,129.0 L 162.0,126.0" fill="#0A0A0A"/>
	<path d="M 30.0,42.0 L 37.0,42.0 L 45.0,46.0 L 49.0,53.0 L 49.0,65.0 L 44.0,71.0 L 38.0,74.0 L 29.0,74.0 L 28.0,79.0 L 27.0,79.0 L 26.0,72.0 L 21.0,68.0 L 18.0,61.0 L 18.0,54.0 L 23.0,46.0 L 30.0,42.0" fill="#090909"/>
	<path d="M 89.0,24.0 L 90.0,24.0 L 91.0,34.0 L 68.0,45.0 L 52.0,53.0 L 50.0,53.0 L 50.0,63.0 L 49.0,63.0 L 48.0,53.0 L 45.0,47.0 L 64.0,37.0 L 88.0,25.0 L 89.0,24.0" fill="#0B0B0B"/>
	<path d="M 147.0,147.0 L 152.0,148.0 L 152.0,151.0 L 155.0,152.0 L 152.0,155.0 L 112.0,175.0 L 110.0,176.0 L 109.0,166.0 L 132.0,155.0 L 147.0,147.0" fill="#0A0A0A"/>
	<path d="M 120.0,23.0 L 121.0,23.0 L 122.0,28.0 L 138.0,38.0 L 155.0,49.0 L 162.0,53.0 L 157.0,60.0 L 152.0,58.0 L 137.0,48.0 L 120.0,37.0 L 119.0,33.0 L 120.0,32.0 L 120.0,23.0" fill="#0B0B0B"/>
	<path d="M 43.0,139.0 L 54.0,146.0 L 71.0,157.0 L 82.0,164.0 L 80.0,176.0 L 78.0,172.0 L 59.0,160.0 L 41.0,148.0 L 38.0,146.0 L 41.0,144.0 L 43.0,139.0" fill="#0A0A0A"/>
	<path d="M 26.0,126.0 L 32.0,126.0 L 37.0,131.0 L 36.0,138.0 L 31.0,142.0 L 25.0,141.0 L 21.0,136.0 L 22.0,129.0 L 26.0,126.0" fill="#F1F1F1"/>
	<path d="M 163.0,134.0 L 170.0,135.0 L 174.0,139.0 L 173.0,146.0 L 168.0,150.0 L 163.0,150.0 L 159.0,146.0 L 158.0,139.0 L 163.0,134.0" fill="#F1F1F1"/>
	<path d="M 32.0,50.0 L 38.0,51.0 L 42.0,55.0 L 42.0,61.0 L 37.0,66.0 L 31.0,66.0 L 27.0,62.0 L 26.0,56.0 L 30.0,51.0 L 32.0,50.0" fill="#F2F2F2"/>
	<path d="M 169.0,58.0 L 175.0,59.0 L 179.0,64.0 L 178.0,70.0 L 176.0,73.0 L 168.0,74.0 L 163.0,69.0 L 163.0,63.0 L 169.0,58.0" fill="#F2F2F2"/>
	<path d="M 102.0,20.0 L 108.0,20.0 L 113.0,25.0 L 112.0,32.0 L 109.0,35.0 L 101.0,35.0 L 97.0,30.0 L 98.0,23.0 L 102.0,20.0" fill="#F4F4F4"/>
	<path d="M 91.0,165.0 L 99.0,165.0 L 103.0,170.0 L 102.0,177.0 L 98.0,180.0 L 92.0,180.0 L 88.0,177.0 L 87.0,170.0 L 91.0,165.0" fill="#F5F5F5"/>
</svg>
