<?xml version="1.0" ?>
<svg baseProfile="full" height="600px" version="1.1" viewBox="-20.1 -20.1 240.2 240.2" width="600px" xmlns="http://www.w3.org/2000/svg" xmlns:ev="http://www.w3.org/2001/xml-events" xmlns:xlink="http://www.w3.org/1999/xlink">
	<defs/>
	<path d="M 0.0,0.0 L 200.0,0.0 L 200.0,200.0 L 0.0,200.0 L 0.0,0.0" fill="#FCFCFC"/>
	<path d="M 0.0,0.0 L 200.0,0.0 L 200.0,200.0 L 0.0,200.0 L 0.0,0.0 M 96.0,8.0 L 90.0,12.0 L 85.0,18.0 L 82.0,25.0 L 53.0,41.0 L 41.0,48.0 L 32.0,44.0 L 23.0,44.0 L 15.0,50.0 L 13.0,54.0 L 13.0,65.0 L 17.0,72.0 L 22.0,75.0 L 24.0,75.0 L 24.0,124.0 L 19.0,126.0 L 14.0,131.0 L 12.0,135.0 L 12.0,143.0 L 16.0,151.0 L 22.0,155.0 L 33.0,155.0 L 39.0,152.0 L 45.0,154.0 L 71.0,169.0 L 83.0,176.0 L 86.0,185.0 L 93.0,191.0 L 96.0,192.0 L 104.0,192.0 L 111.0,188.0 L 115.0,181.0 L 118.0,175.0 L 145.0,160.0 L 159.0,152.0 L 164.0,155.0 L 168.0,156.0 L 177.0,156.0 L 185.0,150.0 L 187.0,146.0 L 187.0,134.0 L 183.0,128.0 L 178.0,125.0 L 176.0,125.0 L 177.0,76.0 L 184.0,72.0 L 188.0,64.0 L 188.0,56.0 L 183.0,48.0 L 177.0,45.0 L 166.0,45.0 L 161.0,48.0 L 155.0,46.0 L 129.0,31.0 L 117.0,24.0 L 114.0,15.0 L 109.0,10.0 L 103.0,8.0 L 96.0,8.0" fill="#FCFCFC"/>
	<path d="M 96.0,8.0 L 103.0,8.0 L 110.0,11.0 L 115.0,17.0 L 117.0,24.0 L 143.0,39.0 L 159.0,48.0 L 164.0,46.0 L 166.0,45.0 L 177.0,45.0 L 184.0,49.0 L 188.0,56.0 L 188.0,64.0 L 184.0,72.0 L 177.0,76.0 L 176.0,125.0 L 181.0,127.0 L 186.0,132.0 L 187.0,134.0 L 187.0,146.0 L 183.0,152.0 L 177.0,156.0 L 168.0,156.0 L 161.0,153.0 L 159.0,152.0 L 132.0,167.0 L 117.0,176.0 L 113.0,185.0 L 108.0,190.0 L 104.0,192.0 L 96.0,192.0 L 90.0,189.0 L 85.0,183.0 L 83.0,176.0 L 55.0,160.0 L 41.0,152.0 L 36.0,154.0 L 33.0,155.0 L 22.0,155.0 L 16.0,151.0 L 12.0,143.0 L 12.0,135.0 L 16.0,128.0 L 22.0,124.0 L 24.0,124.0 L 24.0,75.0 L 19.0,73.0 L 14.0,68.0 L 13.0,65.0 L 13.0,54.0 L 17.0,48.0 L 23.0,44.0 L 32.0,44.0 L 41.0,48.0 L 66.0,34.0 L 83.0,24.0 L 86.0,16.0 L 94.0,9.0 L 96.0,8.0 M 84.0,33.0 L 59.0,47.0 L 44.0,56.0 L 42.0,68.0 L 35.0,74.0 L 32.0,75.0 L 32.0,124.0 L 40.0,129.0 L 43.0,135.0 L 44.0,144.0 L 68.0,158.0 L 84.0,167.0 L 88.0,165.0 L 94.0,161.0 L 104.0,161.0 L 110.0,164.0 L 113.0,167.0 L 118.0,166.0 L 146.0,150.0 L 156.0,144.0 L 157.0,134.0 L 163.0,127.0 L 168.0,125.0 L 168.0,76.0 L 160.0,71.0 L 157.0,64.0 L 156.0,56.0 L 132.0,42.0 L 116.0,33.0 L 113.0,33.0 L 108.0,38.0 L 105.0,39.0 L 95.0,39.0 L 89.0,35.0 L 87.0,33.0 L 84.0,33.0" fill="#080808"/>
	<path d="M 25.0,123.0 L 31.0,123.0 L 39.0,127.0 L 43.0,132.0 L 45.0,144.0 L 72.0,159.0 L 84.0,166.0 L 88.0,164.0 L 94.0,160.0 L 104.0,160.0 L 110.0,163.0 L 113.0,166.0 L 118.0,165.0 L 146.0,149.0 L 155.0,144.0 L 156.0,134.0 L 163.0,126.0 L 165.0,125.0 L 178.0,125.0 L 184.0,129.0 L 187.0,134.0 L 187.0,146.0 L 183.0,152.0 L 177.0,156.0 L 168.0,156.0 L 161.0,153.0 L 159.0,152.0 L 132.0,167.0 L 117.0,176.0 L 113.0,185.0 L 108.0,190.0 L 104.0,192.0 L 96.0,192.0 L 90.0,189.0 L 85.0,183.0 L 83.0,176.0 L 55.0,160.0 L 41.0,152.0 L 36.0,154.0 L 33.0,155.0 L 22.0,155.0 L 16.0,151.0 L 12.0,143.0 L 12.0,135.0 L 16.0,128.0 L 22.0,124.0 L 25.0,123.0" fill="#080808"/>
	<path d="M 96.0,60.0 L 103.0,60.0 L 114.0,67.0 L 119.0,73.0 L 120.0,77.0 L 120.0,94.0 L 114.0,105.0 L 112.0,112.0 L 121.0,115.0 L 129.0,122.0 L 132.0,128.0 L 132.0,134.0 L 130.0,136.0 L 70.0,136.0 L 68.0,134.0 L 69.0,125.0 L 77.0,116.0 L 86.0,112.0 L 88.0,112.0 L 86.0,105.0 L 80.0,95.0 L 80.0,74.0 L 85.0,66.0 L 90.0,62.0 L 96.0,60.0" fill="#060606"/>
	<path d="M 116.0,24.0 L 127.0,30.0 L 152.0,44.0 L 159.0,48.0 L 164.0,46.0 L 166.0,45.0 L 177.0,45.0 L 184.0,49.0 L 188.0,56.0 L 188.0,64.0 L 184.0,72.0 L 177.0,76.0 L 176.0,125.0 L 168.0,125.0 L 168.0,76.0 L 163.0,74.0 L 158.0,69.0 L 156.0,64.0 L 155.0,56.0 L 128.0,41.0 L 114.0,33.0 L 116.0,24.0" fill="#090909"/>
	<path d="M 165.0,125.0 L 178.0,125.0 L 184.0,129.0 L 187.0,134.0 L 187.0,146.0 L 183.0,152.0 L 177.0,156.0 L 168.0,156.0 L 161.0,153.0 L 159.0,152.0 L 132.0,167.0 L 117.0,176.0 L 115.0,178.0 L 113.0,167.0 L 127.0,160.0 L 148.0,148.0 L 155.0,144.0 L 156.0,134.0 L 163.0,126.0 L 165.0,125.0" fill="#070707"/>
	<path d="M 97.0,68.0 L 100.0,68.0 L 100.0,70.0 L 109.0,73.0 L 112.0,78.0 L 112.0,93.0 L 110.0,94.0 L 107.0,101.0 L 105.0,104.0 L 105.0,114.0 L 112.0,120.0 L 121.0,125.0 L 123.0,128.0 L 77.0,128.0 L 82.0,123.0 L 91.0,118.0 L 95.0,114.0 L 95.0,104.0 L 91.0,98.0 L 89.0,93.0 L 88.0,88.0 L 88.0,75.0 L 92.0,70.0 L 97.0,68.0" fill="#F9F9F9"/>
	<path d="M 94.0,160.0 L 104.0,160.0 L 110.0,163.0 L 113.0,166.0 L 115.0,171.0 L 115.0,181.0 L 111.0,188.0 L 104.0,192.0 L 96.0,192.0 L 90.0,189.0 L 85.0,183.0 L 84.0,181.0 L 84.0,172.0 L 87.0,165.0 L 94.0,160.0" fill="#070707"/>
	<path d="M 96.0,8.0 L 103.0,8.0 L 110.0,11.0 L 115.0,17.0 L 116.0,19.0 L 116.0,28.0 L 113.0,35.0 L 108.0,39.0 L 105.0,40.0 L 95.0,40.0 L 89.0,36.0 L 86.0,32.0 L 86.0,29.0 L 84.0,28.0 L 85.0,18.0 L 92.0,10.0 L 96.0,8.0" fill="#070707"/>
	<path d="M 116.0,24.0 L 127.0,30.0 L 152.0,44.0 L 159.0,48.0 L 164.0,47.0 L 158.0,55.0 L 156.0,58.0 L 153.0,55.0 L 128.0,41.0 L 114.0,33.0 L 116.0,24.0" fill="#0A0A0A"/>
	<path d="M 84.0,20.0 L 85.0,20.0 L 85.0,28.0 L 87.0,33.0 L 73.0,40.0 L 52.0,52.0 L 45.0,56.0 L 43.0,56.0 L 40.0,49.0 L 57.0,39.0 L 82.0,25.0 L 84.0,20.0" fill="#0B0B0B"/>
	<path d="M 43.0,142.0 L 52.0,148.0 L 77.0,162.0 L 86.0,167.0 L 84.0,176.0 L 73.0,170.0 L 55.0,160.0 L 39.0,151.0 L 40.0,149.0 L 42.0,149.0 L 43.0,142.0" fill="#0A0A0A"/>
	<path d="M 153.0,145.0 L 156.0,145.0 L 156.0,147.0 L 158.0,147.0 L 159.0,152.0 L 132.0,167.0 L 117.0,176.0 L 115.0,178.0 L 113.0,167.0 L 127.0,160.0 L 148.0,148.0 L 153.0,145.0" fill="#0A0A0A"/>
	<path d="M 25.0,76.0 L 32.0,76.0 L 32.0,124.0 L 24.0,124.0 L 24.0,104.0 L 25.0,76.0" fill="#010101"/>
	<path d="M 168.0,77.0 L 175.0,77.0 L 175.0,124.0 L 168.0,124.0 L 168.0,77.0" fill="#000000"/>
	<path d="M 96.0,168.0 L 103.0,168.0 L 107.0,172.0 L 107.0,180.0 L 102.0,184.0 L 95.0,183.0 L 92.0,179.0 L 92.0,172.0 L 96.0,168.0" fill="#F4F4F4"/>
	<path d="M 24.0,132.0 L 32.0,132.0 L 36.0,136.0 L 36.0,142.0 L 32.0,147.0 L 24.0,147.0 L 20.0,142.0 L 21.0,135.0 L 24.0,132.0" fill="#F6F6F6"/>
	<path d="M 98.0,16.0 L 104.0,17.0 L 108.0,21.0 L 108.0,28.0 L 104.0,32.0 L 97.0,32.0 L 93.0,28.0 L 93.0,20.0 L 98.0,16.0" fill="#F6F6F6"/>
	<path d="M 169.0,132.0 L 176.0,133.0 L 179.0,136.0 L 179.0,144.0 L 174.0,148.0 L 168.0,148.0 L 164.0,144.0 L 164.0,137.0 L 169.0,132.0" fill="#F7F7F7"/>
	<path d="M 168.0,53.0 L 176.0,53.0 L 180.0,58.0 L 179.0,65.0 L 175.0,68.0 L 168.0,68.0 L 164.0,63.0 L 164.0,57.0 L 168.0,53.0" fill="#F7F7F7"/>
	<path d="M 25.0,52.0 L 31.0,52.0 L 36.0,56.0 L 36.0,63.0 L 31.0,68.0 L 24.0,67.0 L 21.0,64.0 L 21.0,56.0 L 25.0,52.0" fill="#F7F7F7"/>
</svg>
