<?xml version="1.0" ?>
<svg baseProfile="full" height="600px" version="1.1" viewBox="-20.1 -20.1 240.2 240.2" width="600px" xmlns="http://www.w3.org/2000/svg" xmlns:ev="http://www.w3.org/2001/xml-events" xmlns:xlink="http://www.w3.org/1999/xlink">
	<defs/>
	<path d="M 0.0,0.0 L 200.0,0.0 L 200.0,200.0 L 0.0,200.0 L 0.0,0.0" fill="#FDFDFD"/>
	<path d="M 73.0,22.0 L 82.0,22.0 L 90.0,27.0 L 93.0,30.0 L 131.0,39.0 L 136.0,39.0 L 142.0,35.0 L 152.0,35.0 L 158.0,38.0 L 162.0,43.0 L 163.0,46.0 L 163.0,54.0 L 161.0,59.0 L 162.0,66.0 L 171.0,97.0 L 180.0,102.0 L 184.0,107.0 L 185.0,109.0 L 185.0,118.0 L 182.0,124.0 L 177.0,128.0 L 175.0,129.0 L 165.0,130.0 L 160.0,135.0 L 138.0,157.0 L 138.0,166.0 L 135.0,172.0 L 129.0,177.0 L 127.0,178.0 L 118.0,178.0 L 110.0,173.0 L 109.0,171.0 L 91.0,166.0 L 70.0,161.0 L 64.0,161.0 L 58.0,165.0 L 47.0,165.0 L 41.0,161.0 L 37.0,153.0 L 37.0,145.0 L 40.0,139.0 L 34.0,118.0 L 30.0,102.0 L 24.0,101.0 L 17.0,95.0 L 15.0,90.0 L 15.0,81.0 L 19.0,75.0 L 24.0,71.0 L 35.0,70.0 L 51.0,54.0 L 58.0,46.0 L 62.0,41.0 L 62.0,33.0 L 66.0,27.0 L 71.0,23.0 L 73.0,22.0" fill="#FBFBFB"/>
	<path d="M 73.0,22.0 L 82.0,22.0 L 90.0,27.0 L 93.0,30.0 L 131.0,39.0 L 136.0,39.0 L 142.0,35.0 L 152.0,35.0 L 158.0,38.0 L 162.0,43.0 L 163.0,46.0 L 163.0,54.0 L 161.0,59.0 L 162.0,66.0 L 171.0,97.0 L 180.0,102.0 L 184.0,107.0 L 185.0,109.0 L 185.0,118.0 L 182.0,124.0 L 177.0,128.0 L 175.0,129.0 L 165.0,130.0 L 160.0,135.0 L 138.0,157.0 L 138.0,166.0 L 135.0,172.0 L 129.0,177.0 L 127.0,178.0 L 118.0,178.0 L 110.0,173.0 L 109.0,171.0 L 91.0,166.0 L 70.0,161.0 L 64.0,161.0 L 58.0,165.0 L 47.0,165.0 L 41.0,161.0 L 37.0,153.0 L 37.0,145.0 L 40.0,139.0 L 34.0,118.0 L 30.0,102.0 L 24.0,101.0 L 17.0,95.0 L 15.0,90.0 L 15.0,81.0 L 19.0,75.0 L 24.0,71.0 L 35.0,70.0 L 51.0,54.0 L 58.0,46.0 L 62.0,41.0 L 62.0,33.0 L 66.0,27.0 L 71.0,23.0 L 73.0,22.0 M 93.0,39.0 L 90.0,46.0 L 86.0,50.0 L 81.0,52.0 L 73.0,52.0 L 67.0,49.0 L 42.0,74.0 L 43.0,78.0 L 45.0,82.0 L 45.0,90.0 L 40.0,98.0 L 38.0,99.0 L 39.0,106.0 L 43.0,120.0 L 47.0,134.0 L 49.0,135.0 L 58.0,136.0 L 64.0,140.0 L 67.0,145.0 L 68.0,152.0 L 84.0,156.0 L 103.0,161.0 L 107.0,161.0 L 110.0,154.0 L 114.0,150.0 L 119.0,148.0 L 127.0,148.0 L 133.0,151.0 L 149.0,134.0 L 158.0,125.0 L 156.0,120.0 L 155.0,117.0 L 155.0,110.0 L 160.0,102.0 L 162.0,101.0 L 162.0,95.0 L 155.0,71.0 L 153.0,65.0 L 144.0,65.0 L 137.0,61.0 L 133.0,55.0 L 132.0,48.0 L 97.0,39.0 L 93.0,39.0" fill="#0A0A0A"/>
	<path d="M 96.0,60.0 L 103.0,60.0 L 114.0,67.0 L 119.0,73.0 L 120.0,77.0 L 120.0,94.0 L 114.0,105.0 L 112.0,112.0 L 121.0,115.0 L 129.0,122.0 L 132.0,128.0 L 132.0,134.0 L 130.0,136.0 L 70.0,136.0 L 68.0,134.0 L 69.0,125.0 L 77.0,116.0 L 86.0,112.0 L 88.0,112.0 L 86.0,105.0 L 80.0,95.0 L 80.0,74.0 L 85.0,66.0 L 90.0,62.0 L 96.0,60.0" fill="#060606"/>
	<path d="M 49.0,134.0 L 58.0,135.0 L 64.0,139.0 L 68.0,145.0 L 68.0,152.0 L 84.0,155.0 L 107.0,161.0 L 108.0,155.0 L 112.0,150.0 L 119.0,147.0 L 127.0,147.0 L 133.0,151.0 L 138.0,159.0 L 138.0,166.0 L 135.0,172.0 L 129.0,177.0 L 127.0,178.0 L 118.0,178.0 L 110.0,173.0 L 109.0,171.0 L 91.0,166.0 L 70.0,161.0 L 64.0,161.0 L 58.0,165.0 L 47.0,165.0 L 41.0,161.0 L 37.0,153.0 L 37.0,145.0 L 42.0,140.0 L 49.0,134.0" fill="#080808"/>
	<path d="M 159.0,59.0 L 160.0,59.0 L 166.0,80.0 L 171.0,97.0 L 180.0,102.0 L 184.0,107.0 L 185.0,109.0 L 185.0,118.0 L 182.0,124.0 L 177.0,128.0 L 175.0,129.0 L 165.0,130.0 L 160.0,135.0 L 138.0,157.0 L 136.0,157.0 L 133.0,152.0 L 135.0,148.0 L 147.0,135.0 L 157.0,125.0 L 155.0,120.0 L 154.0,117.0 L 154.0,110.0 L 159.0,102.0 L 162.0,101.0 L 158.0,85.0 L 152.0,64.0 L 156.0,64.0 L 158.0,60.0 L 159.0,59.0" fill="#060606"/>
	<path d="M 62.0,44.0 L 66.0,48.0 L 65.0,52.0 L 43.0,74.0 L 44.0,78.0 L 46.0,82.0 L 46.0,90.0 L 41.0,98.0 L 38.0,99.0 L 44.0,120.0 L 48.0,136.0 L 40.0,143.0 L 40.0,140.0 L 34.0,118.0 L 30.0,102.0 L 24.0,101.0 L 17.0,95.0 L 15.0,90.0 L 15.0,81.0 L 19.0,75.0 L 24.0,71.0 L 35.0,70.0 L 47.0,58.0 L 55.0,51.0 L 62.0,44.0" fill="#090909"/>
	<path d="M 97.0,68.0 L 100.0,68.0 L 100.0,70.0 L 109.0,73.0 L 112.0,78.0 L 112.0,93.0 L 110.0,94.0 L 107.0,101.0 L 105.0,104.0 L 105.0,114.0 L 112.0,120.0 L 121.0,125.0 L 123.0,128.0 L 77.0,128.0 L 82.0,123.0 L 91.0,118.0 L 95.0,114.0 L 95.0,104.0 L 91.0,98.0 L 89.0,93.0 L 88.0,88.0 L 88.0,75.0 L 92.0,70.0 L 97.0,68.0" fill="#F9F9F9"/>
	<path d="M 49.0,134.0 L 58.0,135.0 L 64.0,139.0 L 68.0,145.0 L 68.0,156.0 L 62.0,163.0 L 58.0,165.0 L 47.0,165.0 L 41.0,161.0 L 37.0,153.0 L 37.0,145.0 L 42.0,140.0 L 49.0,134.0" fill="#080808"/>
	<path d="M 142.0,35.0 L 152.0,35.0 L 158.0,38.0 L 162.0,43.0 L 163.0,46.0 L 163.0,54.0 L 161.0,59.0 L 156.0,64.0 L 150.0,66.0 L 141.0,65.0 L 134.0,59.0 L 132.0,55.0 L 132.0,48.0 L 134.0,43.0 L 140.0,36.0 L 142.0,35.0" fill="#080808"/>
	<path d="M 91.0,30.0 L 109.0,34.0 L 131.0,39.0 L 136.0,39.0 L 140.0,37.0 L 134.0,44.0 L 133.0,48.0 L 124.0,47.0 L 93.0,39.0 L 92.0,34.0 L 91.0,30.0" fill="#0D0D0D"/>
	<path d="M 67.0,152.0 L 80.0,154.0 L 107.0,161.0 L 109.0,170.0 L 102.0,169.0 L 65.0,160.0 L 67.0,155.0 L 67.0,152.0" fill="#0C0C0C"/>
	<path d="M 159.0,59.0 L 160.0,59.0 L 166.0,80.0 L 171.0,97.0 L 173.0,99.0 L 162.0,100.0 L 155.0,74.0 L 152.0,64.0 L 156.0,64.0 L 158.0,60.0 L 159.0,59.0" fill="#0E0E0E"/>
	<path d="M 157.0,125.0 L 166.0,128.0 L 160.0,135.0 L 138.0,157.0 L 136.0,157.0 L 133.0,152.0 L 135.0,148.0 L 147.0,135.0 L 157.0,125.0" fill="#0B0B0B"/>
	<path d="M 62.0,44.0 L 66.0,48.0 L 65.0,52.0 L 43.0,74.0 L 41.0,76.0 L 36.0,71.0 L 38.0,67.0 L 47.0,58.0 L 55.0,51.0 L 62.0,44.0" fill="#040404"/>
	<path d="M 167.0,106.0 L 174.0,107.0 L 177.0,110.0 L 177.0,118.0 L 172.0,122.0 L 167.0,122.0 L 163.0,118.0 L 162.0,111.0 L 167.0,106.0" fill="#F1F1F1"/>
	<path d="M 28.0,78.0 L 34.0,79.0 L 38.0,83.0 L 38.0,89.0 L 33.0,94.0 L 26.0,93.0 L 23.0,90.0 L 23.0,82.0 L 28.0,78.0" fill="#F2F2F2"/>
	<path d="M 50.0,142.0 L 57.0,143.0 L 60.0,146.0 L 60.0,153.0 L 56.0,157.0 L 49.0,157.0 L 45.0,153.0 L 45.0,147.0 L 50.0,142.0" fill="#F5F5F5"/>
	<path d="M 143.0,43.0 L 151.0,43.0 L 155.0,47.0 L 155.0,53.0 L 150.0,58.0 L 143.0,57.0 L 140.0,53.0 L 140.0,47.0 L 143.0,43.0" fill="#F5F5F5"/>
	<path d="M 119.0,155.0 L 125.0,155.0 L 130.0,159.0 L 130.0,165.0 L 125.0,170.0 L 119.0,170.0 L 115.0,166.0 L 115.0,159.0 L 119.0,155.0" fill="#F7F7F7"/>
	<path d="M 74.0,30.0 L 81.0,30.0 L 85.0,34.0 L 85.0,41.0 L 81.0,45.0 L 74.0,45.0 L 70.0,40.0 L 71.0,33.0 L 74.0,30.0" fill="#F7F7F7"/>
</svg>
