<?xml version="1.0" ?>
<svg baseProfile="full" height="600px" version="1.1" viewBox="-20.1 -20.1 240.2 240.2" width="600px" xmlns="http://www.w3.org/2000/svg" xmlns:ev="http://www.w3.org/2001/xml-events" xmlns:xlink="http://www.w3.org/1999/xlink">
	<defs/>
	<path d="M 0.0,0.0 L 200.0,0.0 L 200.0,200.0 L 0.0,200.0 L 0.0,0.0" fill="#FDFDFD"/>
	<path d="M 16.0,16.0 L 40.0,16.0 L 46.0,20.0 L 50.0,31.0 L 67.0,98.0 L 73.0,124.0 L 83.0,163.0 L 88.0,171.0 L 91.0,173.0 L 89.0,179.0 L 89.0,189.0 L 93.0,195.0 L 99.0,199.0 L 99.0,200.0 L 0.0,200.0 L 0.0,19.0 L 5.0,23.0 L 13.0,22.0 L 16.0,16.0" fill="#FDFDFD"/>
	<path d="M 5.0,8.0 L 41.0,8.0 L 49.0,12.0 L 54.0,18.0 L 57.0,26.0 L 79.0,113.0 L 84.0,135.0 L 157.0,136.0 L 158.0,130.0 L 174.0,88.0 L 184.0,62.0 L 186.0,60.0 L 191.0,61.0 L 192.0,66.0 L 170.0,124.0 L 163.0,142.0 L 160.0,144.0 L 86.0,144.0 L 91.0,160.0 L 93.0,165.0 L 97.0,167.0 L 166.0,168.0 L 168.0,170.0 L 171.0,177.0 L 172.0,179.0 L 172.0,188.0 L 169.0,194.0 L 163.0,199.0 L 161.0,200.0 L 99.0,200.0 L 93.0,196.0 L 89.0,191.0 L 88.0,189.0 L 88.0,179.0 L 91.0,173.0 L 87.0,171.0 L 82.0,163.0 L 67.0,104.0 L 61.0,78.0 L 48.0,27.0 L 44.0,19.0 L 40.0,17.0 L 16.0,16.0 L 14.0,22.0 L 10.0,24.0 L 3.0,23.0 L 0.0,19.0 L 0.0,13.0 L 5.0,8.0" fill="#060606"/>
	<path d="M 122.0,2.0 L 127.0,3.0 L 128.0,4.0 L 129.0,69.0 L 140.0,59.0 L 146.0,58.0 L 148.0,60.0 L 147.0,65.0 L 132.0,78.0 L 125.0,84.0 L 121.0,82.0 L 106.0,69.0 L 100.0,64.0 L 101.0,59.0 L 106.0,58.0 L 117.0,67.0 L 119.0,69.0 L 120.0,4.0 L 122.0,2.0" fill="#030303"/>
	<path d="M 118.0,176.0 L 142.0,176.0 L 141.0,179.0 L 141.0,189.0 L 145.0,195.0 L 151.0,199.0 L 151.0,200.0 L 109.0,200.0 L 114.0,196.0 L 118.0,191.0 L 119.0,188.0 L 119.0,179.0 L 118.0,176.0" fill="#FCFCFC"/>
	<path d="M 153.0,176.0 L 159.0,176.0 L 164.0,181.0 L 164.0,187.0 L 159.0,192.0 L 153.0,192.0 L 148.0,187.0 L 148.0,181.0 L 153.0,176.0" fill="#EFEFEF"/>
	<path d="M 101.0,176.0 L 107.0,176.0 L 112.0,181.0 L 112.0,187.0 L 107.0,192.0 L 101.0,192.0 L 96.0,187.0 L 96.0,181.0 L 101.0,176.0" fill="#EFEFEF"/>
</svg>
