<?xml version="1.0" ?>
<svg baseProfile="full" height="600px" version="1.1" viewBox="-12.864 -12.864 153.728 153.728" width="600px" xmlns="http://www.w3.org/2000/svg" xmlns:ev="http://www.w3.org/2001/xml-events" xmlns:xlink="http://www.w3.org/1999/xlink">
	<defs/>
	<path d="M 0.0,0.0 L 128.0,0.0 L 128.0,128.0 L 0.0,128.0 L 0.0,0.0" fill="#FDFDFD"/>
	<path d="M 28.0,48.0 L 92.0,48.0 L 92.0,80.0 L 86.0,87.0 L 84.0,88.0 L 36.0,88.0 L 29.0,82.0 L 28.0,80.0 L 28.0,48.0" fill="#FDFDFD"/>
	<path d="M 20.0,40.0 L 116.0,40.0 L 116.0,68.0 L 113.0,73.0 L 107.0,76.0 L 100.0,76.0 L 99.0,84.0 L 93.0,92.0 L 85.0,96.0 L 35.0,96.0 L 27.0,92.0 L 21.0,84.0 L 20.0,81.0 L 20.0,40.0 M 28.0,48.0 L 28.0,80.0 L 34.0,87.0 L 36.0,88.0 L 84.0,88.0 L 91.0,82.0 L 92.0,80.0 L 92.0,48.0 L 28.0,48.0" fill="#020202"/>
	<path d="M 16.0,100.0 L 104.0,100.0 L 104.0,108.0 L 16.0,108.0 L 16.0,100.0" fill="#000000"/>
	<path d="M 100.0,48.0 L 108.0,48.0 L 108.0,66.0 L 106.0,68.0 L 100.0,68.0 L 100.0,48.0" fill="#FBFBFB"/>
</svg>
