<?xml version="1.0" ?>
<svg baseProfile="full" height="600px" version="1.1" viewBox="-9.648000000000001 -9.648000000000001 115.296 115.296" width="600px" xmlns="http://www.w3.org/2000/svg" xmlns:ev="http://www.w3.org/2001/xml-events" xmlns:xlink="http://www.w3.org/1999/xlink">
	<defs/>
	<path d="M 0.0,0.0 L 96.0,0.0 L 96.0,96.0 L 0.0,96.0 L 0.0,0.0" fill="#FEFEFE"/>
	<path d="M 16.0,20.0 L 83.0,20.0 L 88.0,25.0 L 88.0,42.0 L 85.0,47.0 L 82.0,48.0 L 72.0,48.0 L 72.0,57.0 L 68.0,63.0 L 63.0,67.0 L 61.0,68.0 L 27.0,68.0 L 21.0,64.0 L 17.0,59.0 L 16.0,57.0 L 16.0,20.0" fill="#010101"/>
	<path d="M 12.0,76.0 L 80.0,76.0 L 80.0,84.0 L 12.0,84.0 L 12.0,76.0" fill="#000000"/>
	<path d="M 72.0,28.0 L 80.0,28.0 L 80.0,40.0 L 72.0,40.0 L 72.0,28.0" fill="#FDFDFD"/>
</svg>
