<?xml version="1.0" ?>
<svg baseProfile="full" height="600px" version="1.1" viewBox="-19.296000000000003 -19.296000000000003 230.592 230.592" width="600px" xmlns="http://www.w3.org/2000/svg" xmlns:ev="http://www.w3.org/2001/xml-events" xmlns:xlink="http://www.w3.org/1999/xlink">
	<defs/>
	<path d="M 0.0,0.0 L 192.0,0.0 L 192.0,192.0 L 0.0,192.0 L 0.0,0.0" fill="#FDFDFD"/>
	<path d="M 40.0,60.0 L 152.0,60.0 L 152.0,73.0 L 154.0,72.0 L 165.0,72.0 L 171.0,76.0 L 175.0,81.0 L 175.0,91.0 L 170.0,99.0 L 160.0,109.0 L 142.0,122.0 L 138.0,126.0 L 132.0,137.0 L 127.0,143.0 L 175.0,144.0 L 170.0,150.0 L 160.0,156.0 L 148.0,161.0 L 131.0,165.0 L 112.0,168.0 L 82.0,168.0 L 64.0,166.0 L 48.0,162.0 L 32.0,156.0 L 21.0,149.0 L 17.0,144.0 L 65.0,143.0 L 57.0,130.0 L 51.0,115.0 L 48.0,105.0 L 44.0,90.0 L 41.0,74.0 L 40.0,60.0" fill="#F50158"/>
	<path d="M 17.0,144.0 L 175.0,144.0 L 170.0,150.0 L 160.0,156.0 L 148.0,161.0 L 131.0,165.0 L 112.0,168.0 L 82.0,168.0 L 64.0,166.0 L 48.0,162.0 L 32.0,156.0 L 21.0,149.0 L 17.0,144.0" fill="#AE1759"/>
	<path d="M 157.0,80.0 L 163.0,80.0 L 168.0,84.0 L 167.0,90.0 L 161.0,98.0 L 152.0,106.0 L 144.0,111.0 L 145.0,104.0 L 149.0,85.0 L 157.0,80.0" fill="#FDF5F8"/>
	<path d="M 100.0,35.0 L 104.0,35.0 L 104.0,44.0 L 102.0,49.0 L 102.0,57.0 L 103.0,60.0 L 94.0,60.0 L 92.0,55.0 L 92.0,49.0 L 95.0,43.0 L 96.0,37.0 L 100.0,35.0" fill="#BFAEA8"/>
	<path d="M 75.0,44.0 L 81.0,46.0 L 82.0,49.0 L 82.0,57.0 L 83.0,60.0 L 74.0,60.0 L 72.0,55.0 L 72.0,49.0 L 75.0,44.0" fill="#BFAFA9"/>
	<path d="M 116.0,54.0 L 121.0,54.0 L 123.0,60.0 L 114.0,60.0 L 113.0,55.0 L 116.0,54.0" fill="#C0AFAA"/>
</svg>
