<?xml version="1.0" ?>
<svg baseProfile="full" height="600px" version="1.1" viewBox="-16.08 -16.08 192.16 192.16" width="600px" xmlns="http://www.w3.org/2000/svg" xmlns:ev="http://www.w3.org/2001/xml-events" xmlns:xlink="http://www.w3.org/1999/xlink">
	<defs/>
	<path d="M 0.0,0.0 L 160.0,0.0 L 160.0,160.0 L 0.0,160.0 L 0.0,0.0" fill="#FCFDFD"/>
	<path d="M 0.0,0.0 L 160.0,0.0 L 160.0,160.0 L 147.0,160.0 L 147.0,139.0 L 150.0,62.0 L 113.0,62.0 L 100.0,61.0 L 55.0,60.0 L 42.0,59.0 L 14.0,58.0 L 14.0,92.0 L 12.0,150.0 L 11.0,160.0 L 0.0,160.0 L 0.0,0.0" fill="#F68D8D"/>
	<path d="M 0.0,0.0 L 160.0,0.0 L 160.0,160.0 L 151.0,160.0 L 153.0,94.0 L 154.0,59.0 L 152.0,59.0 L 152.0,8.0 L 8.0,8.0 L 8.0,137.0 L 7.0,160.0 L 0.0,160.0 L 0.0,0.0" fill="#FDFDFD"/>
	<path d="M 12.0,32.0 L 148.0,32.0 L 148.0,58.0 L 130.0,58.0 L 72.0,56.0 L 33.0,55.0 L 12.0,54.0 L 12.0,32.0" fill="#FDFDFD"/>
	<path d="M 8.0,32.0 L 12.0,32.0 L 12.0,54.0 L 33.0,54.0 L 101.0,56.0 L 148.0,58.0 L 148.0,32.0 L 152.0,32.0 L 152.0,59.0 L 154.0,59.0 L 154.0,94.0 L 152.0,152.0 L 151.0,160.0 L 147.0,160.0 L 147.0,139.0 L 150.0,62.0 L 113.0,62.0 L 100.0,61.0 L 55.0,60.0 L 42.0,59.0 L 14.0,58.0 L 14.0,92.0 L 12.0,150.0 L 11.0,160.0 L 7.0,160.0 L 7.0,137.0 L 8.0,32.0" fill="#8192A2"/>
	<path d="M 8.0,8.0 L 152.0,8.0 L 152.0,32.0 L 8.0,32.0 L 8.0,8.0 M 12.0,12.0 L 12.0,28.0 L 148.0,28.0 L 148.0,12.0 L 12.0,12.0" fill="#C74343"/>
	<path d="M 116.0,121.0 L 124.0,121.0 L 124.0,130.0 L 116.0,130.0 L 116.0,121.0" fill="#CBD8E1"/>
	<path d="M 117.0,105.0 L 125.0,105.0 L 125.0,114.0 L 117.0,114.0 L 117.0,105.0" fill="#CDD9E1"/>
	<path d="M 83.0,152.0 L 91.0,152.0 L 91.0,160.0 L 83.0,160.0 L 83.0,152.0" fill="#C7D5DE"/>
	<path d="M 67.0,152.0 L 75.0,152.0 L 75.0,160.0 L 67.0,160.0 L 67.0,152.0" fill="#C7D5DE"/>
	<path d="M 51.0,151.0 L 59.0,151.0 L 59.0,159.0 L 51.0,159.0 L 51.0,151.0" fill="#C7D5DE"/>
	<path d="M 35.0,151.0 L 43.0,151.0 L 43.0,159.0 L 35.0,159.0 L 35.0,151.0" fill="#C7D5DE"/>
	<path d="M 100.0,137.0 L 108.0,137.0 L 108.0,145.0 L 100.0,145.0 L 100.0,137.0" fill="#C8D6DF"/>
	<path d="M 84.0,136.0 L 92.0,136.0 L 92.0,144.0 L 84.0,144.0 L 84.0,136.0" fill="#CAD7E0"/>
	<path d="M 52.0,135.0 L 60.0,135.0 L 60.0,143.0 L 52.0,143.0 L 52.0,135.0" fill="#C9D6DF"/>
	<path d="M 36.0,135.0 L 44.0,135.0 L 44.0,143.0 L 36.0,143.0 L 36.0,135.0" fill="#C9D7E0"/>
	<path d="M 100.0,121.0 L 108.0,121.0 L 108.0,129.0 L 100.0,129.0 L 100.0,121.0" fill="#C6D4DE"/>
	<path d="M 84.0,120.0 L 92.0,120.0 L 92.0,128.0 L 84.0,128.0 L 84.0,120.0" fill="#C8D6DF"/>
	<path d="M 68.0,120.0 L 76.0,120.0 L 76.0,128.0 L 68.0,128.0 L 68.0,120.0" fill="#C7D5DE"/>
	<path d="M 52.0,119.0 L 60.0,119.0 L 60.0,127.0 L 52.0,127.0 L 52.0,119.0" fill="#C7D5DE"/>
	<path d="M 36.0,119.0 L 44.0,119.0 L 44.0,127.0 L 36.0,127.0 L 36.0,119.0" fill="#C7D5DE"/>
	<path d="M 101.0,105.0 L 109.0,105.0 L 109.0,113.0 L 101.0,113.0 L 101.0,105.0" fill="#C7D5DE"/>
	<path d="M 85.0,104.0 L 93.0,104.0 L 93.0,112.0 L 85.0,112.0 L 85.0,104.0" fill="#C9D7DF"/>
	<path d="M 69.0,104.0 L 77.0,104.0 L 77.0,112.0 L 69.0,112.0 L 69.0,104.0" fill="#C8D6DF"/>
	<path d="M 53.0,103.0 L 61.0,103.0 L 61.0,111.0 L 53.0,111.0 L 53.0,103.0" fill="#C8D6DF"/>
	<path d="M 99.0,153.0 L 107.0,153.0 L 107.0,160.0 L 99.0,160.0 L 99.0,153.0" fill="#C5D4DD"/>
	<path d="M 68.0,136.0 L 75.0,136.0 L 75.0,144.0 L 68.0,144.0 L 68.0,136.0" fill="#C6D4DE"/>
	<path d="M 116.0,138.0 L 123.0,138.0 L 123.0,145.0 L 116.0,145.0 L 116.0,138.0" fill="#C5D3DD"/>
</svg>
