<?xml version="1.0" ?>
<svg baseProfile="full" height="600px" version="1.1" viewBox="-20.1 -20.1 240.2 240.2" width="600px" xmlns="http://www.w3.org/2000/svg" xmlns:ev="http://www.w3.org/2001/xml-events" xmlns:xlink="http://www.w3.org/1999/xlink">
	<defs/>
	<path d="M 0.0,0.0 L 200.0,0.0 L 200.0,200.0 L 0.0,200.0 L 0.0,0.0" fill="#040404"/>
	<path d="M 41.0,72.0 L 159.0,72.0 L 161.0,74.0 L 163.0,110.0 L 164.0,131.0 L 164.0,152.0 L 163.0,153.0 L 37.0,153.0 L 36.0,151.0 L 36.0,136.0 L 37.0,109.0 L 39.0,74.0 L 41.0,72.0" fill="#080808"/>
	<path d="M 16.0,60.0 L 185.0,60.0 L 186.0,82.0 L 188.0,105.0 L 190.0,140.0 L 192.0,161.0 L 192.0,168.0 L 9.0,168.0 L 9.0,154.0 L 11.0,120.0 L 13.0,94.0 L 15.0,68.0 L 16.0,60.0 M 41.0,72.0 L 39.0,74.0 L 37.0,109.0 L 36.0,136.0 L 36.0,151.0 L 37.0,153.0 L 163.0,153.0 L 164.0,152.0 L 164.0,131.0 L 162.0,87.0 L 161.0,74.0 L 159.0,72.0 L 41.0,72.0" fill="#F9F9F9"/>
	<path d="M 16.0,24.0 L 40.0,24.0 L 41.0,35.0 L 45.0,39.0 L 58.0,39.0 L 62.0,37.0 L 64.0,24.0 L 136.0,24.0 L 137.0,35.0 L 141.0,39.0 L 154.0,39.0 L 158.0,37.0 L 160.0,24.0 L 184.0,24.0 L 184.0,52.0 L 16.0,52.0 L 16.0,24.0" fill="#FDFDFD"/>
	<path d="M 0.0,171.0 L 5.0,175.0 L 8.0,176.0 L 9.0,187.0 L 13.0,191.0 L 186.0,191.0 L 190.0,189.0 L 192.0,176.0 L 198.0,174.0 L 199.0,171.0 L 200.0,171.0 L 200.0,200.0 L 0.0,200.0 L 0.0,171.0" fill="#FDFDFD"/>
	<path d="M 184.0,176.0 L 192.0,176.0 L 192.0,186.0 L 189.0,191.0 L 186.0,192.0 L 13.0,192.0 L 8.0,187.0 L 8.0,177.0 L 16.0,177.0 L 16.0,184.0 L 184.0,184.0 L 184.0,176.0" fill="#010101"/>
	<path d="M 0.0,0.0 L 45.0,0.0 L 41.0,5.0 L 40.0,16.0 L 13.0,17.0 L 9.0,21.0 L 8.0,61.0 L 5.0,110.0 L 3.0,134.0 L 2.0,153.0 L 1.0,160.0 L 0.0,160.0 L 0.0,0.0" fill="#FAFAFA"/>
	<path d="M 155.0,0.0 L 200.0,0.0 L 200.0,159.0 L 199.0,159.0 L 195.0,109.0 L 193.0,75.0 L 192.0,66.0 L 191.0,21.0 L 187.0,17.0 L 160.0,16.0 L 159.0,5.0 L 155.0,0.0" fill="#FAFAFA"/>
	<path d="M 16.0,176.0 L 184.0,176.0 L 184.0,184.0 L 16.0,184.0 L 16.0,176.0" fill="#FCFCFC"/>
	<path d="M 59.0,0.0 L 141.0,0.0 L 137.0,5.0 L 136.0,16.0 L 64.0,16.0 L 63.0,5.0 L 59.0,0.0" fill="#FDFDFD"/>
	<path d="M 134.0,128.0 L 156.0,128.0 L 156.0,145.0 L 134.0,145.0 L 134.0,128.0" fill="#F8F8F8"/>
	<path d="M 104.0,128.0 L 126.0,128.0 L 126.0,145.0 L 104.0,145.0 L 104.0,128.0" fill="#FAFAFA"/>
	<path d="M 133.0,103.0 L 154.0,103.0 L 155.0,107.0 L 155.0,120.0 L 133.0,120.0 L 133.0,103.0" fill="#EEEEEE"/>
	<path d="M 46.0,103.0 L 67.0,103.0 L 67.0,120.0 L 45.0,120.0 L 45.0,110.0 L 46.0,103.0" fill="#F1F1F1"/>
	<path d="M 75.0,128.0 L 96.0,128.0 L 96.0,145.0 L 75.0,145.0 L 75.0,128.0" fill="#FDFDFD"/>
	<path d="M 45.0,128.0 L 66.0,128.0 L 66.0,145.0 L 45.0,145.0 L 45.0,128.0" fill="#FDFDFD"/>
	<path d="M 104.0,103.0 L 125.0,103.0 L 125.0,120.0 L 104.0,120.0 L 104.0,103.0" fill="#F4F4F4"/>
	<path d="M 75.0,103.0 L 96.0,103.0 L 96.0,120.0 L 75.0,120.0 L 75.0,103.0" fill="#F6F6F6"/>
	<path d="M 104.0,80.0 L 125.0,80.0 L 125.0,95.0 L 104.0,95.0 L 104.0,80.0" fill="#F8F8F8"/>
	<path d="M 133.0,80.0 L 153.0,80.0 L 153.0,95.0 L 133.0,95.0 L 133.0,80.0" fill="#FDFDFD"/>
	<path d="M 76.0,80.0 L 96.0,80.0 L 96.0,95.0 L 76.0,95.0 L 76.0,80.0" fill="#FDFDFD"/>
	<path d="M 47.0,80.0 L 67.0,80.0 L 67.0,95.0 L 47.0,95.0 L 47.0,80.0" fill="#FDFDFD"/>
	<path d="M 144.0,8.0 L 152.0,8.0 L 152.0,32.0 L 144.0,32.0 L 144.0,8.0" fill="#FDFDFD"/>
	<path d="M 48.0,8.0 L 56.0,8.0 L 56.0,32.0 L 48.0,32.0 L 48.0,8.0" fill="#FDFDFD"/>
</svg>
