<?xml version="1.0" ?>
<svg baseProfile="full" height="600px" version="1.1" viewBox="-20.1 -20.1 240.2 240.2" width="600px" xmlns="http://www.w3.org/2000/svg" xmlns:ev="http://www.w3.org/2001/xml-events" xmlns:xlink="http://www.w3.org/1999/xlink">
	<defs/>
	<path d="M 0.0,0.0 L 200.0,0.0 L 200.0,200.0 L 0.0,200.0 L 0.0,0.0" fill="#050505"/>
	<path d="M 16.0,65.0 L 184.0,65.0 L 184.0,151.0 L 162.0,150.0 L 59.0,143.0 L 25.0,141.0 L 16.0,140.0 L 16.0,65.0" fill="#FDFDFD"/>
	<path d="M 19.0,149.0 L 35.0,149.0 L 107.0,154.0 L 168.0,158.0 L 184.0,159.0 L 184.0,200.0 L 16.0,200.0 L 16.0,183.0 L 19.0,149.0" fill="#FCFCFC"/>
	<path d="M 16.0,24.0 L 40.0,24.0 L 41.0,35.0 L 45.0,39.0 L 58.0,39.0 L 62.0,37.0 L 64.0,24.0 L 136.0,24.0 L 137.0,35.0 L 141.0,39.0 L 154.0,39.0 L 158.0,37.0 L 160.0,24.0 L 184.0,24.0 L 184.0,52.0 L 16.0,52.0 L 16.0,24.0" fill="#FDFDFD"/>
	<path d="M 43.0,166.0 L 64.0,167.0 L 102.0,169.0 L 159.0,173.0 L 161.0,175.0 L 161.0,187.0 L 160.0,200.0 L 39.0,200.0 L 41.0,169.0 L 43.0,166.0" fill="#080808"/>
	<path d="M 0.0,0.0 L 45.0,0.0 L 41.0,5.0 L 40.0,16.0 L 13.0,17.0 L 9.0,21.0 L 8.0,200.0 L 0.0,200.0 L 0.0,0.0" fill="#FDFDFD"/>
	<path d="M 155.0,0.0 L 200.0,0.0 L 200.0,200.0 L 192.0,200.0 L 192.0,189.0 L 194.0,163.0 L 194.0,154.0 L 192.0,152.0 L 191.0,21.0 L 187.0,17.0 L 160.0,16.0 L 159.0,5.0 L 155.0,0.0" fill="#FCFCFC"/>
	<path d="M 59.0,0.0 L 141.0,0.0 L 137.0,5.0 L 136.0,16.0 L 64.0,16.0 L 63.0,5.0 L 59.0,0.0" fill="#FDFDFD"/>
	<path d="M 105.0,178.0 L 125.0,179.0 L 125.0,188.0 L 124.0,199.0 L 111.0,199.0 L 104.0,198.0 L 104.0,185.0 L 105.0,178.0" fill="#F6F6F6"/>
	<path d="M 49.0,174.0 L 69.0,175.0 L 69.0,188.0 L 68.0,195.0 L 55.0,195.0 L 48.0,194.0 L 48.0,183.0 L 49.0,174.0" fill="#F5F5F5"/>
	<path d="M 77.0,176.0 L 97.0,177.0 L 97.0,188.0 L 96.0,197.0 L 81.0,197.0 L 76.0,196.0 L 77.0,176.0" fill="#F6F6F6"/>
	<path d="M 133.0,180.0 L 146.0,180.0 L 153.0,181.0 L 152.0,200.0 L 132.0,200.0 L 132.0,191.0 L 133.0,180.0" fill="#F8F8F8"/>
	<path d="M 144.0,8.0 L 152.0,8.0 L 152.0,32.0 L 144.0,32.0 L 144.0,8.0" fill="#FDFDFD"/>
	<path d="M 48.0,8.0 L 56.0,8.0 L 56.0,32.0 L 48.0,32.0 L 48.0,8.0" fill="#FDFDFD"/>
</svg>
