<?xml version="1.0" ?>
<svg baseProfile="full" height="600px" version="1.1" viewBox="-20.1 -20.1 240.2 240.2" width="600px" xmlns="http://www.w3.org/2000/svg" xmlns:ev="http://www.w3.org/2001/xml-events" xmlns:xlink="http://www.w3.org/1999/xlink">
	<defs/>
	<path d="M 0.0,0.0 L 200.0,0.0 L 200.0,200.0 L 0.0,200.0 L 0.0,0.0" fill="#080808"/>
	<path d="M 42.0,74.0 L 158.0,74.0 L 161.0,76.0 L 163.0,126.0 L 163.0,156.0 L 161.0,158.0 L 39.0,158.0 L 37.0,156.0 L 37.0,126.0 L 38.0,94.0 L 39.0,77.0 L 42.0,74.0" fill="#070707"/>
	<path d="M 16.0,62.0 L 184.0,62.0 L 186.0,82.0 L 188.0,122.0 L 190.0,152.0 L 190.0,172.0 L 10.0,172.0 L 10.0,157.0 L 13.0,100.0 L 15.0,70.0 L 16.0,62.0 M 42.0,74.0 L 39.0,77.0 L 38.0,94.0 L 37.0,126.0 L 37.0,156.0 L 39.0,158.0 L 161.0,158.0 L 163.0,156.0 L 163.0,126.0 L 161.0,76.0 L 158.0,74.0 L 42.0,74.0" fill="#FCFCFC"/>
	<path d="M 0.0,0.0 L 200.0,0.0 L 200.0,200.0 L 0.0,200.0 L 0.0,0.0 M 45.0,2.0 L 40.0,7.0 L 40.0,18.0 L 13.0,18.0 L 8.0,23.0 L 7.0,63.0 L 5.0,103.0 L 3.0,133.0 L 2.0,156.0 L 2.0,177.0 L 5.0,180.0 L 8.0,180.0 L 8.0,189.0 L 13.0,194.0 L 186.0,194.0 L 191.0,191.0 L 192.0,188.0 L 192.0,180.0 L 197.0,178.0 L 198.0,176.0 L 198.0,151.0 L 193.0,68.0 L 192.0,23.0 L 187.0,18.0 L 160.0,18.0 L 160.0,7.0 L 155.0,2.0 L 141.0,2.0 L 136.0,7.0 L 136.0,18.0 L 64.0,18.0 L 64.0,7.0 L 59.0,2.0 L 45.0,2.0" fill="#FBFBFB"/>
	<path d="M 16.0,26.0 L 40.0,26.0 L 41.0,37.0 L 45.0,41.0 L 58.0,41.0 L 62.0,39.0 L 64.0,26.0 L 136.0,26.0 L 137.0,37.0 L 141.0,41.0 L 154.0,41.0 L 158.0,39.0 L 160.0,26.0 L 184.0,26.0 L 184.0,54.0 L 16.0,54.0 L 16.0,26.0" fill="#FCFCFC"/>
	<path d="M 8.0,181.0 L 16.0,181.0 L 16.0,186.0 L 184.0,186.0 L 184.0,181.0 L 192.0,181.0 L 192.0,188.0 L 189.0,193.0 L 186.0,194.0 L 13.0,194.0 L 8.0,189.0 L 8.0,181.0" fill="#010101"/>
	<path d="M 16.0,181.0 L 184.0,181.0 L 184.0,186.0 L 16.0,186.0 L 16.0,181.0" fill="#FAFAFA"/>
	<path d="M 104.0,132.0 L 126.0,132.0 L 126.0,150.0 L 104.0,150.0 L 104.0,132.0" fill="#F2F2F2"/>
	<path d="M 45.0,132.0 L 67.0,132.0 L 67.0,150.0 L 45.0,150.0 L 45.0,132.0" fill="#F2F2F2"/>
	<path d="M 134.0,132.0 L 155.0,132.0 L 155.0,150.0 L 134.0,150.0 L 134.0,132.0" fill="#F6F6F6"/>
	<path d="M 75.0,132.0 L 96.0,132.0 L 96.0,149.0 L 75.0,149.0 L 75.0,132.0" fill="#FDFDFD"/>
	<path d="M 133.0,107.0 L 154.0,107.0 L 154.0,124.0 L 133.0,124.0 L 133.0,107.0" fill="#F6F6F6"/>
	<path d="M 104.0,107.0 L 125.0,107.0 L 125.0,124.0 L 104.0,124.0 L 104.0,107.0" fill="#F8F8F8"/>
	<path d="M 75.0,107.0 L 96.0,107.0 L 96.0,124.0 L 75.0,124.0 L 75.0,107.0" fill="#F8F8F8"/>
	<path d="M 46.0,107.0 L 67.0,107.0 L 67.0,124.0 L 46.0,124.0 L 46.0,107.0" fill="#F8F8F8"/>
	<path d="M 104.0,82.0 L 125.0,82.0 L 125.0,99.0 L 104.0,99.0 L 104.0,82.0" fill="#EEEEEE"/>
	<path d="M 75.0,82.0 L 96.0,82.0 L 96.0,99.0 L 75.0,99.0 L 75.0,82.0" fill="#ECECEC"/>
	<path d="M 47.0,82.0 L 68.0,82.0 L 68.0,99.0 L 47.0,99.0 L 47.0,82.0" fill="#EDEDED"/>
	<path d="M 133.0,82.0 L 153.0,82.0 L 153.0,99.0 L 133.0,99.0 L 133.0,82.0" fill="#F3F3F3"/>
	<path d="M 144.0,10.0 L 152.0,10.0 L 152.0,34.0 L 144.0,34.0 L 144.0,10.0" fill="#FDFDFD"/>
	<path d="M 48.0,10.0 L 56.0,10.0 L 56.0,34.0 L 48.0,34.0 L 48.0,10.0" fill="#FDFDFD"/>
</svg>
