<?xml version="1.0" ?>
<svg baseProfile="full" height="600px" version="1.1" viewBox="-9.648000000000001 -9.648000000000001 115.296 115.296" width="600px" xmlns="http://www.w3.org/2000/svg" xmlns:ev="http://www.w3.org/2001/xml-events" xmlns:xlink="http://www.w3.org/1999/xlink">
	<defs/>
	<path d="M 0.0,0.0 L 96.0,0.0 L 96.0,96.0 L 0.0,96.0 L 0.0,0.0" fill="#030303"/>
	<path d="M 0.0,0.0 L 96.0,0.0 L 96.0,96.0 L 0.0,96.0 L 0.0,0.0 M 24.0,7.0 L 24.0,15.0 L 18.0,15.0 L 12.0,20.0 L 11.0,45.0 L 10.0,56.0 L 10.0,78.0 L 13.0,84.0 L 16.0,87.0 L 80.0,87.0 L 84.0,83.0 L 86.0,78.0 L 86.0,61.0 L 84.0,20.0 L 78.0,15.0 L 72.0,15.0 L 72.0,7.0 L 64.0,7.0 L 64.0,15.0 L 32.0,15.0 L 32.0,7.0 L 24.0,7.0" fill="#FAFAFA"/>
	<path d="M 20.0,39.0 L 77.0,39.0 L 78.0,62.0 L 78.0,74.0 L 18.0,74.0 L 18.0,57.0 L 19.0,40.0 L 20.0,39.0" fill="#F9F9F9"/>
	<path d="M 12.0,80.0 L 13.0,82.0 L 83.0,82.0 L 84.0,80.0 L 83.0,84.0 L 80.0,87.0 L 16.0,87.0 L 12.0,83.0 L 12.0,80.0" fill="#0C0C0C"/>
	<path d="M 24.0,7.0 L 32.0,7.0 L 32.0,15.0 L 64.0,15.0 L 64.0,16.0 L 18.0,16.0 L 18.0,15.0 L 24.0,15.0 L 24.0,7.0" fill="#252525"/>
</svg>
