<?xml version="1.0" ?>
<svg baseProfile="full" height="600px" version="1.1" viewBox="-20.1 -20.1 240.2 240.2" width="600px" xmlns="http://www.w3.org/2000/svg" xmlns:ev="http://www.w3.org/2001/xml-events" xmlns:xlink="http://www.w3.org/1999/xlink">
	<defs/>
	<path d="M 0.0,0.0 L 200.0,0.0 L 200.0,200.0 L 0.0,200.0 L 0.0,0.0" fill="#020202"/>
	<path d="M 19.0,140.0 L 40.0,140.0 L 108.0,144.0 L 153.0,147.0 L 186.0,149.0 L 186.0,163.0 L 184.0,193.0 L 183.0,200.0 L 15.0,200.0 L 15.0,188.0 L 17.0,154.0 L 19.0,140.0" fill="#FCFCFC"/>
	<path d="M 16.0,60.0 L 184.0,60.0 L 184.0,141.0 L 160.0,140.0 L 159.0,78.0 L 158.0,77.0 L 42.0,77.0 L 41.0,78.0 L 40.0,132.0 L 22.0,132.0 L 16.0,131.0 L 16.0,60.0" fill="#FCFCFC"/>
	<path d="M 16.0,24.0 L 40.0,24.0 L 41.0,35.0 L 45.0,39.0 L 58.0,39.0 L 62.0,37.0 L 64.0,24.0 L 136.0,24.0 L 137.0,35.0 L 141.0,39.0 L 154.0,39.0 L 158.0,37.0 L 160.0,24.0 L 184.0,24.0 L 184.0,52.0 L 16.0,52.0 L 16.0,24.0" fill="#FDFDFD"/>
	<path d="M 0.0,0.0 L 45.0,0.0 L 41.0,5.0 L 40.0,16.0 L 13.0,17.0 L 9.0,21.0 L 8.0,189.0 L 7.0,200.0 L 0.0,200.0 L 0.0,0.0" fill="#FDFDFD"/>
	<path d="M 155.0,0.0 L 200.0,0.0 L 200.0,200.0 L 191.0,200.0 L 192.0,181.0 L 193.0,166.0 L 193.0,143.0 L 192.0,142.0 L 191.0,21.0 L 187.0,17.0 L 160.0,16.0 L 159.0,5.0 L 155.0,0.0" fill="#FCFCFC"/>
	<path d="M 59.0,0.0 L 141.0,0.0 L 137.0,5.0 L 136.0,16.0 L 64.0,16.0 L 63.0,5.0 L 59.0,0.0" fill="#FDFDFD"/>
	<path d="M 132.0,112.0 L 152.0,112.0 L 152.0,132.0 L 132.0,132.0 L 132.0,112.0" fill="#FDFDFD"/>
	<path d="M 104.0,112.0 L 124.0,112.0 L 124.0,132.0 L 104.0,132.0 L 104.0,112.0" fill="#FDFDFD"/>
	<path d="M 76.0,112.0 L 96.0,112.0 L 96.0,132.0 L 76.0,132.0 L 76.0,112.0" fill="#FDFDFD"/>
	<path d="M 48.0,112.0 L 68.0,112.0 L 68.0,132.0 L 48.0,132.0 L 48.0,112.0" fill="#FDFDFD"/>
	<path d="M 132.0,84.0 L 152.0,84.0 L 152.0,104.0 L 132.0,104.0 L 132.0,84.0" fill="#FDFDFD"/>
	<path d="M 104.0,84.0 L 124.0,84.0 L 124.0,104.0 L 104.0,104.0 L 104.0,84.0" fill="#FDFDFD"/>
	<path d="M 76.0,84.0 L 96.0,84.0 L 96.0,104.0 L 76.0,104.0 L 76.0,84.0" fill="#FDFDFD"/>
	<path d="M 48.0,84.0 L 68.0,84.0 L 68.0,104.0 L 48.0,104.0 L 48.0,84.0" fill="#FDFDFD"/>
	<path d="M 144.0,8.0 L 152.0,8.0 L 152.0,32.0 L 144.0,32.0 L 144.0,8.0" fill="#FDFDFD"/>
	<path d="M 48.0,8.0 L 56.0,8.0 L 56.0,32.0 L 48.0,32.0 L 48.0,8.0" fill="#FDFDFD"/>
</svg>
