<?xml version="1.0" ?>
<svg baseProfile="full" height="600px" version="1.1" viewBox="-9.648000000000001 -9.648000000000001 115.296 115.296" width="600px" xmlns="http://www.w3.org/2000/svg" xmlns:ev="http://www.w3.org/2001/xml-events" xmlns:xlink="http://www.w3.org/1999/xlink">
	<defs/>
	<path d="M 0.0,0.0 L 96.0,0.0 L 96.0,96.0 L 0.0,96.0 L 0.0,0.0" fill="#050505"/>
	<path d="M 0.0,0.0 L 96.0,0.0 L 96.0,96.0 L 0.0,96.0 L 0.0,0.0 M 24.0,6.0 L 24.0,14.0 L 17.0,14.0 L 12.0,19.0 L 11.0,35.0 L 5.0,62.0 L 6.0,69.0 L 9.0,72.0 L 12.0,72.0 L 12.0,81.0 L 17.0,86.0 L 78.0,86.0 L 83.0,83.0 L 84.0,80.0 L 84.0,72.0 L 89.0,70.0 L 91.0,67.0 L 90.0,59.0 L 85.0,36.0 L 84.0,19.0 L 79.0,14.0 L 72.0,14.0 L 72.0,6.0 L 64.0,6.0 L 64.0,14.0 L 32.0,14.0 L 32.0,6.0 L 24.0,6.0" fill="#FCFCFC"/>
	<path d="M 19.0,38.0 L 77.0,38.0 L 82.0,60.0 L 82.0,64.0 L 14.0,64.0 L 15.0,56.0 L 19.0,38.0" fill="#FCFCFC"/>
	<path d="M 12.0,73.0 L 20.0,73.0 L 20.0,78.0 L 76.0,78.0 L 76.0,73.0 L 84.0,73.0 L 84.0,80.0 L 81.0,85.0 L 78.0,86.0 L 17.0,86.0 L 12.0,81.0 L 12.0,73.0" fill="#010101"/>
	<path d="M 20.0,72.0 L 76.0,72.0 L 76.0,78.0 L 20.0,78.0 L 20.0,72.0" fill="#EDEDED"/>
</svg>
