<?xml version="1.0" ?>
<svg baseProfile="full" height="600px" version="1.1" viewBox="-20.1 -20.1 240.2 240.2" width="600px" xmlns="http://www.w3.org/2000/svg" xmlns:ev="http://www.w3.org/2001/xml-events" xmlns:xlink="http://www.w3.org/1999/xlink">
	<defs/>
	<path d="M 0.0,0.0 L 200.0,0.0 L 200.0,200.0 L 0.0,200.0 L 0.0,0.0" fill="#050505"/>
	<path d="M 17.0,86.0 L 52.0,86.0 L 154.0,88.0 L 184.0,89.0 L 184.0,161.0 L 183.0,175.0 L 137.0,176.0 L 112.0,177.0 L 67.0,178.0 L 15.0,178.0 L 15.0,156.0 L 17.0,86.0" fill="#FDFDFD"/>
	<path d="M 16.0,24.0 L 40.0,24.0 L 41.0,35.0 L 45.0,39.0 L 58.0,39.0 L 62.0,37.0 L 64.0,24.0 L 136.0,24.0 L 137.0,35.0 L 141.0,39.0 L 154.0,39.0 L 158.0,37.0 L 160.0,24.0 L 184.0,24.0 L 184.0,52.0 L 16.0,52.0 L 16.0,24.0" fill="#FDFDFD"/>
	<path d="M 16.0,60.0 L 184.0,60.0 L 184.0,80.0 L 160.0,80.0 L 158.0,77.0 L 42.0,77.0 L 41.0,78.0 L 16.0,78.0 L 16.0,60.0" fill="#FCFCFC"/>
	<path d="M 152.0,183.0 L 183.0,183.0 L 183.0,200.0 L 15.0,200.0 L 15.0,186.0 L 97.0,184.0 L 152.0,183.0" fill="#FAFAFA"/>
	<path d="M 155.0,0.0 L 200.0,0.0 L 200.0,200.0 L 191.0,200.0 L 192.0,105.0 L 192.0,83.0 L 191.0,21.0 L 187.0,17.0 L 160.0,16.0 L 159.0,5.0 L 155.0,0.0" fill="#FCFCFC"/>
	<path d="M 0.0,0.0 L 45.0,0.0 L 41.0,5.0 L 40.0,16.0 L 13.0,17.0 L 9.0,21.0 L 8.0,146.0 L 7.0,200.0 L 0.0,200.0 L 0.0,0.0" fill="#FCFCFC"/>
	<path d="M 59.0,0.0 L 141.0,0.0 L 137.0,5.0 L 136.0,16.0 L 64.0,16.0 L 63.0,5.0 L 59.0,0.0" fill="#FDFDFD"/>
	<path d="M 144.0,8.0 L 152.0,8.0 L 152.0,32.0 L 144.0,32.0 L 144.0,8.0" fill="#FDFDFD"/>
	<path d="M 48.0,8.0 L 56.0,8.0 L 56.0,32.0 L 48.0,32.0 L 48.0,8.0" fill="#FDFDFD"/>
</svg>
