<?xml version="1.0" ?>
<svg baseProfile="full" height="600px" version="1.1" viewBox="-20.1 -20.1 240.2 240.2" width="600px" xmlns="http://www.w3.org/2000/svg" xmlns:ev="http://www.w3.org/2001/xml-events" xmlns:xlink="http://www.w3.org/1999/xlink">
	<defs/>
	<path d="M 0.0,0.0 L 200.0,0.0 L 200.0,200.0 L 0.0,200.0 L 0.0,0.0" fill="#030303"/>
	<path d="M 157.0,111.0 L 184.0,111.0 L 184.0,200.0 L 146.0,200.0 L 110.0,196.0 L 57.0,191.0 L 30.0,188.0 L 16.0,187.0 L 16.0,113.0 L 62.0,112.0 L 157.0,111.0" fill="#FCFCFC"/>
	<path d="M 16.0,60.0 L 184.0,60.0 L 184.0,104.0 L 56.0,105.0 L 16.0,105.0 L 16.0,60.0" fill="#FCFCFC"/>
	<path d="M 16.0,24.0 L 40.0,24.0 L 41.0,35.0 L 45.0,39.0 L 58.0,39.0 L 62.0,37.0 L 64.0,24.0 L 136.0,24.0 L 137.0,35.0 L 141.0,39.0 L 154.0,39.0 L 158.0,37.0 L 160.0,24.0 L 184.0,24.0 L 184.0,52.0 L 16.0,52.0 L 16.0,24.0" fill="#FDFDFD"/>
	<path d="M 155.0,0.0 L 200.0,0.0 L 200.0,200.0 L 192.0,200.0 L 191.0,21.0 L 187.0,17.0 L 160.0,16.0 L 159.0,5.0 L 155.0,0.0" fill="#FCFCFC"/>
	<path d="M 0.0,0.0 L 45.0,0.0 L 41.0,5.0 L 40.0,16.0 L 13.0,17.0 L 9.0,21.0 L 8.0,200.0 L 0.0,200.0 L 0.0,0.0" fill="#FCFCFC"/>
	<path d="M 59.0,0.0 L 141.0,0.0 L 137.0,5.0 L 136.0,16.0 L 64.0,16.0 L 63.0,5.0 L 59.0,0.0" fill="#FDFDFD"/>
	<path d="M 144.0,8.0 L 152.0,8.0 L 152.0,32.0 L 144.0,32.0 L 144.0,8.0" fill="#FDFDFD"/>
	<path d="M 48.0,8.0 L 56.0,8.0 L 56.0,32.0 L 48.0,32.0 L 48.0,8.0" fill="#FDFDFD"/>
	<path d="M 20.0,195.0 L 63.0,199.0 L 63.0,200.0 L 20.0,200.0 L 20.0,195.0" fill="#F7F7F7"/>
</svg>
