<?xml version="1.0" ?>
<svg baseProfile="full" height="600px" version="1.1" viewBox="-9.648000000000001 -9.648000000000001 115.296 115.296" width="600px" xmlns="http://www.w3.org/2000/svg" xmlns:ev="http://www.w3.org/2001/xml-events" xmlns:xlink="http://www.w3.org/1999/xlink">
	<defs/>
	<path d="M 0.0,0.0 L 96.0,0.0 L 96.0,96.0 L 0.0,96.0 L 0.0,0.0" fill="#FBFBFB"/>
	<path d="M 35.0,8.0 L 61.0,8.0 L 68.0,15.0 L 83.0,16.0 L 88.0,21.0 L 88.0,74.0 L 85.0,79.0 L 82.0,80.0 L 13.0,80.0 L 8.0,75.0 L 8.0,21.0 L 10.0,16.0 L 10.0,13.0 L 14.0,9.0 L 16.0,9.0 L 23.0,17.0 L 37.0,31.0 L 35.0,35.0 L 30.0,40.0 L 29.0,43.0 L 29.0,53.0 L 33.0,61.0 L 40.0,66.0 L 43.0,67.0 L 53.0,67.0 L 61.0,63.0 L 65.0,58.0 L 67.0,53.0 L 67.0,43.0 L 63.0,35.0 L 58.0,31.0 L 52.0,29.0 L 44.0,28.0 L 31.0,15.0 L 32.0,11.0 L 35.0,8.0" fill="#020202"/>
	<path d="M 49.0,34.0 L 54.0,35.0 L 60.0,40.0 L 62.0,45.0 L 61.0,54.0 L 56.0,60.0 L 51.0,62.0 L 44.0,62.0 L 38.0,58.0 L 35.0,54.0 L 34.0,51.0 L 34.0,44.0 L 35.0,42.0 L 40.0,43.0 L 49.0,34.0" fill="#040404"/>
</svg>
