<?xml version="1.0" ?>
<svg baseProfile="full" height="600px" version="1.1" viewBox="-20.1 -20.1 240.2 240.2" width="600px" xmlns="http://www.w3.org/2000/svg" xmlns:ev="http://www.w3.org/2001/xml-events" xmlns:xlink="http://www.w3.org/1999/xlink">
	<defs/>
	<path d="M 0.0,0.0 L 200.0,0.0 L 200.0,200.0 L 0.0,200.0 L 0.0,0.0" fill="#FCFCFC"/>
	<path d="M 0.0,0.0 L 200.0,0.0 L 200.0,200.0 L 194.0,200.0 L 131.0,137.0 L 131.0,131.0 L 138.0,121.0 L 142.0,112.0 L 143.0,105.0 L 143.0,92.0 L 139.0,81.0 L 132.0,70.0 L 121.0,62.0 L 112.0,58.0 L 106.0,57.0 L 92.0,57.0 L 81.0,61.0 L 70.0,68.0 L 62.0,79.0 L 58.0,88.0 L 57.0,92.0 L 57.0,105.0 L 59.0,114.0 L 65.0,126.0 L 70.0,132.0 L 81.0,139.0 L 92.0,143.0 L 107.0,143.0 L 117.0,140.0 L 122.0,139.0 L 126.0,145.0 L 116.0,150.0 L 106.0,152.0 L 91.0,152.0 L 79.0,148.0 L 70.0,143.0 L 60.0,134.0 L 54.0,125.0 L 49.0,113.0 L 48.0,109.0 L 48.0,91.0 L 52.0,79.0 L 57.0,70.0 L 66.0,60.0 L 75.0,54.0 L 87.0,49.0 L 91.0,48.0 L 109.0,48.0 L 121.0,52.0 L 130.0,57.0 L 140.0,66.0 L 146.0,75.0 L 150.0,84.0 L 152.0,91.0 L 152.0,106.0 L 150.0,116.0 L 143.0,130.0 L 141.0,135.0 L 165.0,159.0 L 180.0,159.0 L 188.0,154.0 L 191.0,148.0 L 191.0,52.0 L 187.0,45.0 L 180.0,41.0 L 143.0,40.0 L 138.0,34.0 L 132.0,25.0 L 132.0,23.0 L 126.0,21.0 L 73.0,21.0 L 68.0,24.0 L 60.0,37.0 L 56.0,40.0 L 19.0,41.0 L 12.0,46.0 L 9.0,53.0 L 9.0,147.0 L 12.0,154.0 L 17.0,158.0 L 20.0,159.0 L 142.0,160.0 L 149.0,167.0 L 149.0,168.0 L 18.0,168.0 L 10.0,164.0 L 2.0,155.0 L 0.0,149.0 L 0.0,0.0" fill="#040404"/>
	<path d="M 0.0,0.0 L 200.0,0.0 L 200.0,50.0 L 198.0,47.0 L 192.0,39.0 L 187.0,35.0 L 181.0,33.0 L 146.0,32.0 L 138.0,19.0 L 131.0,14.0 L 128.0,13.0 L 72.0,13.0 L 64.0,17.0 L 60.0,22.0 L 54.0,32.0 L 18.0,33.0 L 10.0,37.0 L 3.0,45.0 L 1.0,50.0 L 0.0,50.0 L 0.0,0.0" fill="#FCFCFC"/>
	<path d="M 93.0,68.0 L 107.0,68.0 L 121.0,75.0 L 127.0,82.0 L 131.0,90.0 L 132.0,93.0 L 132.0,104.0 L 129.0,115.0 L 122.0,124.0 L 115.0,129.0 L 104.0,132.0 L 93.0,132.0 L 84.0,128.0 L 76.0,122.0 L 70.0,112.0 L 68.0,105.0 L 68.0,93.0 L 72.0,84.0 L 78.0,76.0 L 87.0,70.0 L 93.0,68.0" fill="#FAFAFA"/>
	<path d="M 93.0,68.0 L 107.0,68.0 L 121.0,75.0 L 127.0,82.0 L 131.0,90.0 L 132.0,93.0 L 132.0,104.0 L 129.0,115.0 L 122.0,124.0 L 115.0,129.0 L 104.0,132.0 L 93.0,132.0 L 84.0,128.0 L 76.0,122.0 L 70.0,112.0 L 68.0,105.0 L 68.0,93.0 L 72.0,84.0 L 78.0,76.0 L 87.0,70.0 L 93.0,68.0 M 94.0,76.0 L 86.0,80.0 L 78.0,89.0 L 76.0,94.0 L 76.0,105.0 L 81.0,115.0 L 89.0,122.0 L 94.0,124.0 L 105.0,124.0 L 115.0,119.0 L 121.0,112.0 L 124.0,105.0 L 124.0,94.0 L 120.0,86.0 L 112.0,79.0 L 104.0,76.0 L 94.0,76.0" fill="#080808"/>
	<path d="M 199.0,149.0 L 200.0,149.0 L 200.0,194.0 L 193.0,188.0 L 174.0,169.0 L 174.0,168.0 L 184.0,166.0 L 191.0,162.0 L 197.0,155.0 L 199.0,149.0" fill="#F7F7F7"/>
</svg>
