<?xml version="1.0" ?>
<svg baseProfile="full" height="600px" version="1.1" viewBox="-12.864 -12.864 153.728 153.728" width="600px" xmlns="http://www.w3.org/2000/svg" xmlns:ev="http://www.w3.org/2001/xml-events" xmlns:xlink="http://www.w3.org/1999/xlink">
	<defs/>
	<path d="M 0.0,0.0 L 128.0,0.0 L 128.0,128.0 L 0.0,128.0 L 0.0,0.0" fill="#FCFCFC"/>
	<path d="M 14.0,9.0 L 16.0,9.0 L 23.0,17.0 L 37.0,31.0 L 41.0,30.0 L 46.0,24.0 L 82.0,24.0 L 88.0,31.0 L 116.0,32.0 L 116.0,104.0 L 96.0,104.0 L 94.0,100.0 L 9.0,15.0 L 14.0,9.0" fill="#020202"/>
	<path d="M 50.0,32.0 L 78.0,32.0 L 84.0,39.0 L 108.0,40.0 L 108.0,96.0 L 101.0,96.0 L 85.0,80.0 L 87.0,73.0 L 87.0,62.0 L 83.0,54.0 L 75.0,47.0 L 69.0,45.0 L 58.0,45.0 L 52.0,47.0 L 45.0,40.0 L 47.0,35.0 L 50.0,32.0" fill="#FAFAFA"/>
	<path d="M 12.0,32.0 L 16.0,33.0 L 22.0,40.0 L 20.0,40.0 L 20.0,96.0 L 80.0,96.0 L 87.0,103.0 L 87.0,104.0 L 12.0,104.0 L 12.0,32.0" fill="#010101"/>
	<path d="M 41.0,60.0 L 45.0,62.0 L 48.0,65.0 L 50.0,75.0 L 54.0,80.0 L 60.0,83.0 L 68.0,84.0 L 73.0,89.0 L 73.0,91.0 L 69.0,92.0 L 58.0,92.0 L 50.0,88.0 L 42.0,79.0 L 40.0,73.0 L 40.0,62.0 L 41.0,60.0" fill="#090909"/>
	<path d="M 59.0,52.0 L 68.0,52.0 L 75.0,56.0 L 79.0,61.0 L 80.0,64.0 L 80.0,72.0 L 77.0,72.0 L 59.0,54.0 L 59.0,52.0" fill="#EFEFEF"/>
	<path d="M 28.0,46.0 L 34.0,51.0 L 30.0,52.0 L 28.0,50.0 L 28.0,46.0" fill="#131313"/>
</svg>
