<?xml version="1.0" ?>
<svg baseProfile="full" height="600px" version="1.1" viewBox="-20.1 -20.1 240.2 240.2" width="600px" xmlns="http://www.w3.org/2000/svg" xmlns:ev="http://www.w3.org/2001/xml-events" xmlns:xlink="http://www.w3.org/1999/xlink">
	<defs/>
	<path d="M 0.0,0.0 L 200.0,0.0 L 200.0,200.0 L 0.0,200.0 L 0.0,0.0" fill="#FDFDFD"/>
	<path d="M 125.0,9.0 L 140.0,9.0 L 159.0,10.0 L 161.0,12.0 L 161.0,33.0 L 157.0,47.0 L 152.0,56.0 L 147.0,60.0 L 145.0,79.0 L 142.0,132.0 L 142.0,146.0 L 148.0,151.0 L 153.0,161.0 L 155.0,171.0 L 155.0,180.0 L 177.0,179.0 L 194.0,176.0 L 199.0,177.0 L 200.0,178.0 L 200.0,200.0 L 0.0,200.0 L 0.0,178.0 L 2.0,176.0 L 18.0,174.0 L 36.0,174.0 L 37.0,159.0 L 40.0,144.0 L 45.0,129.0 L 54.0,112.0 L 63.0,99.0 L 67.0,89.0 L 76.0,76.0 L 85.0,68.0 L 99.0,60.0 L 109.0,57.0 L 121.0,54.0 L 129.0,54.0 L 124.0,42.0 L 123.0,34.0 L 123.0,11.0 L 125.0,9.0" fill="#080808"/>
	<path d="M 123.0,62.0 L 137.0,62.0 L 137.0,70.0 L 122.0,71.0 L 109.0,75.0 L 98.0,81.0 L 90.0,88.0 L 84.0,98.0 L 82.0,103.0 L 82.0,115.0 L 87.0,125.0 L 95.0,132.0 L 104.0,136.0 L 113.0,138.0 L 133.0,138.0 L 133.0,144.0 L 126.0,145.0 L 105.0,145.0 L 94.0,141.0 L 90.0,139.0 L 87.0,146.0 L 84.0,160.0 L 92.0,160.0 L 105.0,165.0 L 113.0,172.0 L 115.0,177.0 L 98.0,176.0 L 45.0,173.0 L 45.0,160.0 L 48.0,145.0 L 54.0,129.0 L 63.0,113.0 L 69.0,105.0 L 74.0,93.0 L 81.0,83.0 L 89.0,75.0 L 103.0,67.0 L 117.0,63.0 L 123.0,62.0" fill="#F9F9F9"/>
	<path d="M 0.0,182.0 L 2.0,183.0 L 19.0,182.0 L 86.0,182.0 L 135.0,187.0 L 174.0,187.0 L 195.0,184.0 L 200.0,182.0 L 200.0,200.0 L 0.0,200.0 L 0.0,182.0" fill="#FCFCFC"/>
	<path d="M 123.0,78.0 L 136.0,78.0 L 136.0,99.0 L 134.0,129.0 L 132.0,130.0 L 115.0,130.0 L 120.0,126.0 L 125.0,118.0 L 126.0,115.0 L 126.0,103.0 L 121.0,95.0 L 116.0,91.0 L 112.0,89.0 L 103.0,88.0 L 107.0,84.0 L 119.0,79.0 L 123.0,78.0" fill="#F5F5F5"/>
	<path d="M 131.0,18.0 L 153.0,18.0 L 153.0,32.0 L 148.0,47.0 L 144.0,53.0 L 138.0,52.0 L 134.0,46.0 L 132.0,41.0 L 131.0,33.0 L 131.0,18.0" fill="#FAFAFA"/>
	<path d="M 101.0,96.0 L 109.0,96.0 L 116.0,100.0 L 119.0,105.0 L 119.0,114.0 L 115.0,120.0 L 111.0,123.0 L 102.0,124.0 L 95.0,120.0 L 91.0,113.0 L 91.0,106.0 L 95.0,100.0 L 101.0,96.0" fill="#F8F8F8"/>
	<path d="M 134.0,153.0 L 140.0,154.0 L 144.0,160.0 L 147.0,171.0 L 147.0,180.0 L 125.0,179.0 L 125.0,172.0 L 129.0,160.0 L 133.0,154.0 L 134.0,153.0" fill="#F5F5F5"/>
	<path d="M 94.0,150.0 L 104.0,152.0 L 124.0,153.0 L 119.0,167.0 L 112.0,161.0 L 101.0,155.0 L 94.0,153.0 L 94.0,150.0" fill="#EEEEEE"/>
</svg>
