<?xml version="1.0" ?>
<svg baseProfile="full" height="600px" version="1.1" viewBox="-20.1 -20.1 240.2 240.2" width="600px" xmlns="http://www.w3.org/2000/svg" xmlns:ev="http://www.w3.org/2001/xml-events" xmlns:xlink="http://www.w3.org/1999/xlink">
	<defs/>
	<path d="M 0.0,0.0 L 200.0,0.0 L 200.0,200.0 L 0.0,200.0 L 0.0,0.0" fill="#FDFDFD"/>
	<path d="M 120.0,12.0 L 156.0,12.0 L 157.0,13.0 L 157.0,37.0 L 155.0,48.0 L 150.0,58.0 L 147.0,61.0 L 145.0,61.0 L 145.0,148.0 L 150.0,150.0 L 156.0,158.0 L 160.0,168.0 L 162.0,180.0 L 162.0,186.0 L 174.0,184.0 L 183.0,181.0 L 194.0,176.0 L 199.0,177.0 L 200.0,178.0 L 200.0,200.0 L 0.0,200.0 L 0.0,178.0 L 8.0,173.0 L 24.0,168.0 L 37.0,166.0 L 39.0,153.0 L 45.0,137.0 L 55.0,119.0 L 66.0,105.0 L 68.0,103.0 L 72.0,92.0 L 79.0,81.0 L 90.0,70.0 L 104.0,62.0 L 120.0,57.0 L 127.0,56.0 L 123.0,48.0 L 119.0,33.0 L 119.0,13.0 L 120.0,12.0" fill="#090909"/>
	<path d="M 121.0,65.0 L 136.0,65.0 L 136.0,72.0 L 124.0,73.0 L 108.0,78.0 L 99.0,84.0 L 93.0,91.0 L 90.0,99.0 L 90.0,110.0 L 94.0,122.0 L 100.0,130.0 L 108.0,136.0 L 117.0,139.0 L 136.0,139.0 L 136.0,146.0 L 133.0,147.0 L 113.0,147.0 L 103.0,143.0 L 98.0,141.0 L 92.0,151.0 L 89.0,161.0 L 98.0,163.0 L 108.0,167.0 L 116.0,173.0 L 121.0,181.0 L 117.0,182.0 L 90.0,172.0 L 72.0,168.0 L 65.0,167.0 L 45.0,166.0 L 48.0,151.0 L 56.0,133.0 L 63.0,122.0 L 70.0,113.0 L 75.0,107.0 L 80.0,95.0 L 87.0,84.0 L 94.0,77.0 L 108.0,69.0 L 121.0,65.0" fill="#F9F9F9"/>
	<path d="M 35.0,174.0 L 64.0,174.0 L 84.0,178.0 L 104.0,185.0 L 119.0,190.0 L 139.0,194.0 L 167.0,194.0 L 188.0,188.0 L 200.0,182.0 L 200.0,200.0 L 0.0,200.0 L 0.0,182.0 L 6.0,183.0 L 21.0,177.0 L 35.0,174.0" fill="#FBFBFB"/>
	<path d="M 127.0,20.0 L 149.0,20.0 L 149.0,36.0 L 147.0,45.0 L 143.0,53.0 L 141.0,55.0 L 136.0,54.0 L 131.0,47.0 L 128.0,37.0 L 127.0,31.0 L 127.0,20.0" fill="#FAFAFA"/>
	<path d="M 111.0,96.0 L 120.0,96.0 L 127.0,100.0 L 130.0,105.0 L 130.0,115.0 L 124.0,122.0 L 119.0,124.0 L 113.0,124.0 L 105.0,119.0 L 103.0,115.0 L 103.0,104.0 L 108.0,98.0 L 111.0,96.0" fill="#F9F9F9"/>
	<path d="M 139.0,155.0 L 144.0,156.0 L 149.0,162.0 L 152.0,171.0 L 153.0,178.0 L 153.0,187.0 L 139.0,187.0 L 131.0,185.0 L 131.0,173.0 L 135.0,160.0 L 139.0,155.0" fill="#F8F8F8"/>
	<path d="M 129.0,80.0 L 136.0,80.0 L 136.0,99.0 L 131.0,94.0 L 125.0,90.0 L 121.0,89.0 L 110.0,89.0 L 103.0,93.0 L 101.0,92.0 L 108.0,86.0 L 117.0,82.0 L 129.0,80.0" fill="#F7F7F7"/>
	<path d="M 100.0,151.0 L 105.0,152.0 L 113.0,154.0 L 129.0,155.0 L 126.0,164.0 L 124.0,170.0 L 116.0,164.0 L 108.0,159.0 L 99.0,155.0 L 100.0,151.0" fill="#EFEFEF"/>
	<path d="M 135.0,121.0 L 136.0,121.0 L 136.0,130.0 L 131.0,132.0 L 121.0,132.0 L 123.0,130.0 L 131.0,126.0 L 135.0,121.0" fill="#EEEEEE"/>
	<path d="M 108.0,86.0 L 110.0,87.0 L 110.0,89.0 L 103.0,93.0 L 101.0,92.0 L 108.0,86.0" fill="#D0D0D0"/>
</svg>
