<?xml version="1.0" ?>
<svg baseProfile="full" height="600px" version="1.1" viewBox="-19.296000000000003 -19.296000000000003 230.592 230.592" width="600px" xmlns="http://www.w3.org/2000/svg" xmlns:ev="http://www.w3.org/2001/xml-events" xmlns:xlink="http://www.w3.org/1999/xlink">
	<defs/>
	<path d="M 0.0,0.0 L 192.0,0.0 L 192.0,192.0 L 0.0,192.0 L 0.0,0.0" fill="#FDFDFD"/>
	<path d="M 22.0,12.0 L 26.0,14.0 L 66.0,54.0 L 69.0,53.0 L 77.0,43.0 L 88.0,30.0 L 97.0,19.0 L 101.0,17.0 L 110.0,27.0 L 119.0,38.0 L 130.0,51.0 L 139.0,62.0 L 150.0,75.0 L 159.0,86.0 L 160.0,88.0 L 128.0,88.0 L 129.0,117.0 L 180.0,168.0 L 174.0,175.0 L 168.0,180.0 L 129.0,141.0 L 72.0,140.0 L 72.0,88.0 L 40.0,88.0 L 46.0,80.0 L 55.0,69.0 L 53.0,65.0 L 12.0,24.0 L 14.0,20.0 L 22.0,12.0" fill="#3A4A51"/>
	<path d="M 99.0,17.0 L 103.0,19.0 L 115.0,33.0 L 124.0,44.0 L 135.0,57.0 L 144.0,68.0 L 155.0,81.0 L 160.0,88.0 L 128.0,88.0 L 128.0,116.0 L 121.0,110.0 L 67.0,56.0 L 73.0,48.0 L 82.0,37.0 L 93.0,24.0 L 99.0,17.0" fill="#8BC24B"/>
	<path d="M 56.0,68.0 L 63.0,74.0 L 128.0,139.0 L 128.0,140.0 L 72.0,140.0 L 72.0,88.0 L 40.0,88.0 L 46.0,80.0 L 56.0,68.0" fill="#8AC14A"/>
	<path d="M 72.0,156.0 L 128.0,156.0 L 128.0,176.0 L 72.0,176.0 L 72.0,156.0" fill="#8AC14A"/>
</svg>
