<?xml version="1.0" ?>
<svg baseProfile="full" height="600px" version="1.1" viewBox="-20.1 -20.1 240.2 240.2" width="600px" xmlns="http://www.w3.org/2000/svg" xmlns:ev="http://www.w3.org/2001/xml-events" xmlns:xlink="http://www.w3.org/1999/xlink">
	<defs/>
	<path d="M 0.0,0.0 L 200.0,0.0 L 200.0,200.0 L 0.0,200.0 L 0.0,0.0" fill="#FCFCFC"/>
	<path d="M 99.0,7.0 L 103.0,9.0 L 181.0,87.0 L 181.0,88.0 L 140.0,88.0 L 141.0,135.0 L 200.0,194.0 L 200.0,200.0 L 194.0,200.0 L 131.0,137.0 L 132.0,80.0 L 161.0,79.0 L 101.0,19.0 L 97.0,21.0 L 39.0,79.0 L 68.0,80.0 L 68.0,144.0 L 126.0,144.0 L 133.0,151.0 L 133.0,152.0 L 60.0,152.0 L 60.0,88.0 L 19.0,88.0 L 25.0,81.0 L 99.0,7.0" fill="#010101"/>
	<path d="M 60.0,160.0 L 140.0,160.0 L 140.0,192.0 L 60.0,192.0 L 60.0,160.0" fill="#000000"/>
	<path d="M 68.0,168.0 L 132.0,168.0 L 132.0,184.0 L 68.0,184.0 L 68.0,168.0" fill="#FDFDFD"/>
</svg>
