<?xml version="1.0" ?>
<svg baseProfile="full" height="600px" version="1.1" viewBox="-19.296000000000003 -19.296000000000003 230.592 230.592" width="600px" xmlns="http://www.w3.org/2000/svg" xmlns:ev="http://www.w3.org/2001/xml-events" xmlns:xlink="http://www.w3.org/1999/xlink">
	<defs/>
	<path d="M 0.0,0.0 L 192.0,0.0 L 192.0,192.0 L 0.0,192.0 L 0.0,0.0" fill="#FDFDFD"/>
	<path d="M 67.0,47.0 L 92.0,47.0 L 104.0,50.0 L 118.0,57.0 L 126.0,65.0 L 134.0,78.0 L 139.0,86.0 L 142.0,88.0 L 156.0,91.0 L 169.0,96.0 L 177.0,100.0 L 184.0,108.0 L 184.0,126.0 L 182.0,130.0 L 180.0,131.0 L 160.0,132.0 L 154.0,137.0 L 149.0,139.0 L 139.0,139.0 L 131.0,135.0 L 128.0,132.0 L 64.0,132.0 L 59.0,136.0 L 53.0,139.0 L 43.0,139.0 L 35.0,135.0 L 32.0,132.0 L 15.0,131.0 L 10.0,127.0 L 8.0,122.0 L 8.0,95.0 L 11.0,90.0 L 16.0,87.0 L 22.0,85.0 L 32.0,68.0 L 40.0,59.0 L 51.0,52.0 L 67.0,47.0" fill="#FD4181"/>
	<path d="M 138.0,99.0 L 150.0,99.0 L 158.0,104.0 L 162.0,109.0 L 164.0,113.0 L 164.0,124.0 L 160.0,132.0 L 154.0,137.0 L 149.0,139.0 L 139.0,139.0 L 131.0,135.0 L 126.0,129.0 L 124.0,123.0 L 124.0,113.0 L 129.0,105.0 L 134.0,101.0 L 138.0,99.0" fill="#495B66"/>
	<path d="M 42.0,99.0 L 54.0,99.0 L 62.0,104.0 L 66.0,109.0 L 68.0,113.0 L 68.0,124.0 L 64.0,132.0 L 59.0,136.0 L 53.0,139.0 L 43.0,139.0 L 35.0,135.0 L 30.0,129.0 L 28.0,123.0 L 28.0,113.0 L 33.0,105.0 L 38.0,101.0 L 42.0,99.0" fill="#495C66"/>
	<path d="M 71.0,55.0 L 76.0,55.0 L 76.0,87.0 L 31.0,87.0 L 33.0,82.0 L 39.0,72.0 L 45.0,65.0 L 55.0,59.0 L 64.0,56.0 L 71.0,55.0" fill="#6B0738"/>
	<path d="M 84.0,55.0 L 92.0,55.0 L 105.0,59.0 L 115.0,65.0 L 123.0,75.0 L 129.0,87.0 L 84.0,87.0 L 84.0,55.0" fill="#680637"/>
	<path d="M 141.0,111.0 L 147.0,111.0 L 152.0,116.0 L 151.0,124.0 L 146.0,127.0 L 139.0,126.0 L 136.0,122.0 L 136.0,116.0 L 141.0,111.0" fill="#ABB9C0"/>
	<path d="M 44.0,111.0 L 51.0,111.0 L 56.0,116.0 L 55.0,123.0 L 52.0,126.0 L 45.0,127.0 L 40.0,122.0 L 40.0,116.0 L 44.0,111.0" fill="#ABB9C0"/>
	<path d="M 8.0,99.0 L 17.0,99.0 L 20.0,102.0 L 20.0,111.0 L 16.0,115.0 L 8.0,115.0 L 8.0,99.0" fill="#FFBD09"/>
	<path d="M 172.0,98.0 L 177.0,100.0 L 184.0,108.0 L 184.0,115.0 L 176.0,115.0 L 172.0,111.0 L 172.0,98.0" fill="#FFBE0D"/>
</svg>
