<?xml version="1.0" ?>
<svg baseProfile="full" height="600px" version="1.1" viewBox="-20.1 -20.1 240.2 240.2" width="600px" xmlns="http://www.w3.org/2000/svg" xmlns:ev="http://www.w3.org/2001/xml-events" xmlns:xlink="http://www.w3.org/1999/xlink">
	<defs/>
	<path d="M 0.0,0.0 L 200.0,0.0 L 200.0,200.0 L 0.0,200.0 L 0.0,0.0" fill="#FCFCFC"/>
	<path d="M 86.0,33.0 L 110.0,33.0 L 125.0,34.0 L 140.0,38.0 L 150.0,42.0 L 155.0,47.0 L 158.0,51.0 L 168.0,76.0 L 168.0,78.0 L 185.0,78.0 L 191.0,81.0 L 195.0,86.0 L 196.0,88.0 L 196.0,95.0 L 192.0,100.0 L 186.0,102.0 L 178.0,102.0 L 180.0,107.0 L 180.0,146.0 L 175.0,152.0 L 173.0,153.0 L 171.0,162.0 L 166.0,167.0 L 163.0,168.0 L 140.0,168.0 L 133.0,162.0 L 132.0,153.0 L 68.0,153.0 L 68.0,160.0 L 64.0,166.0 L 59.0,168.0 L 36.0,168.0 L 30.0,163.0 L 28.0,159.0 L 27.0,153.0 L 21.0,148.0 L 20.0,145.0 L 20.0,108.0 L 22.0,102.0 L 13.0,102.0 L 7.0,99.0 L 4.0,95.0 L 4.0,88.0 L 8.0,82.0 L 14.0,78.0 L 32.0,78.0 L 35.0,68.0 L 43.0,49.0 L 52.0,41.0 L 66.0,36.0 L 86.0,33.0" fill="#070707"/>
	<path d="M 33.0,96.0 L 38.0,98.0 L 43.0,100.0 L 157.0,100.0 L 166.0,96.0 L 170.0,104.0 L 172.0,109.0 L 172.0,143.0 L 171.0,145.0 L 29.0,145.0 L 28.0,143.0 L 28.0,109.0 L 33.0,96.0" fill="#F9F9F9"/>
	<path d="M 75.0,42.0 L 124.0,42.0 L 142.0,47.0 L 148.0,51.0 L 151.0,55.0 L 162.0,84.0 L 162.0,89.0 L 159.0,92.0 L 156.0,93.0 L 45.0,93.0 L 40.0,91.0 L 38.0,88.0 L 39.0,81.0 L 48.0,57.0 L 52.0,51.0 L 58.0,47.0 L 71.0,43.0 L 75.0,42.0" fill="#FCFCFC"/>
	<path d="M 136.0,105.0 L 158.0,105.0 L 164.0,108.0 L 168.0,113.0 L 168.0,122.0 L 162.0,129.0 L 150.0,136.0 L 146.0,137.0 L 134.0,137.0 L 126.0,130.0 L 124.0,126.0 L 124.0,116.0 L 130.0,108.0 L 136.0,105.0" fill="#080808"/>
	<path d="M 41.0,105.0 L 64.0,105.0 L 72.0,110.0 L 76.0,117.0 L 76.0,126.0 L 72.0,132.0 L 67.0,136.0 L 65.0,137.0 L 54.0,137.0 L 46.0,134.0 L 36.0,127.0 L 32.0,122.0 L 32.0,113.0 L 37.0,107.0 L 41.0,105.0" fill="#070707"/>
	<path d="M 42.0,113.0 L 62.0,113.0 L 68.0,118.0 L 68.0,124.0 L 63.0,129.0 L 54.0,129.0 L 41.0,121.0 L 40.0,115.0 L 42.0,113.0" fill="#F3F3F3"/>
	<path d="M 138.0,113.0 L 157.0,113.0 L 160.0,115.0 L 159.0,121.0 L 148.0,128.0 L 145.0,129.0 L 137.0,129.0 L 132.0,124.0 L 132.0,118.0 L 138.0,113.0" fill="#F4F4F4"/>
	<path d="M 171.0,86.0 L 184.0,86.0 L 188.0,89.0 L 187.0,94.0 L 174.0,94.0 L 171.0,86.0" fill="#EBEBEB"/>
	<path d="M 15.0,86.0 L 28.0,86.0 L 27.0,92.0 L 26.0,94.0 L 13.0,94.0 L 12.0,89.0 L 15.0,86.0" fill="#EAEAEA"/>
	<path d="M 156.0,153.0 L 164.0,153.0 L 164.0,158.0 L 162.0,160.0 L 156.0,160.0 L 156.0,153.0" fill="#ECECEC"/>
	<path d="M 140.0,153.0 L 148.0,153.0 L 148.0,160.0 L 142.0,160.0 L 140.0,158.0 L 140.0,153.0" fill="#E9E9E9"/>
	<path d="M 52.0,153.0 L 60.0,153.0 L 60.0,158.0 L 58.0,160.0 L 52.0,160.0 L 52.0,153.0" fill="#EDEDED"/>
	<path d="M 36.0,153.0 L 44.0,153.0 L 44.0,160.0 L 38.0,160.0 L 36.0,158.0 L 36.0,153.0" fill="#E5E5E5"/>
</svg>
