<?xml version="1.0" ?>
<svg baseProfile="full" height="600px" version="1.1" viewBox="-19.296000000000003 -19.296000000000003 230.592 230.592" width="600px" xmlns="http://www.w3.org/2000/svg" xmlns:ev="http://www.w3.org/2001/xml-events" xmlns:xlink="http://www.w3.org/1999/xlink">
	<defs/>
	<path d="M 0.0,0.0 L 192.0,0.0 L 192.0,192.0 L 0.0,192.0 L 0.0,0.0" fill="#FCFDFE"/>
	<path d="M 11.0,42.0 L 119.0,42.0 L 119.0,91.0 L 174.0,91.0 L 179.0,94.0 L 182.0,98.0 L 182.0,158.0 L 178.0,164.0 L 174.0,166.0 L 82.0,166.0 L 76.0,161.0 L 74.0,157.0 L 74.0,102.0 L 19.0,102.0 L 13.0,97.0 L 11.0,94.0 L 11.0,42.0" fill="#65B3F3"/>
	<path d="M 74.0,122.0 L 182.0,122.0 L 182.0,158.0 L 178.0,164.0 L 174.0,166.0 L 82.0,166.0 L 76.0,161.0 L 74.0,157.0 L 74.0,122.0" fill="#6D7CC6"/>
	<path d="M 74.0,106.0 L 182.0,106.0 L 182.0,122.0 L 74.0,122.0 L 74.0,106.0" fill="#384953"/>
	<path d="M 11.0,42.0 L 119.0,42.0 L 119.0,58.0 L 11.0,58.0 L 11.0,42.0" fill="#384952"/>
	<path d="M 20.0,26.0 L 111.0,26.0 L 117.0,31.0 L 118.0,33.0 L 118.0,42.0 L 11.0,42.0 L 11.0,34.0 L 16.0,28.0 L 20.0,26.0" fill="#64B2F2"/>
	<path d="M 84.0,90.0 L 119.0,90.0 L 174.0,91.0 L 179.0,94.0 L 182.0,98.0 L 182.0,106.0 L 75.0,106.0 L 75.0,97.0 L 80.0,92.0 L 84.0,90.0" fill="#6C7CC7"/>
	<path d="M 94.0,65.0 L 111.0,65.0 L 111.0,82.0 L 19.0,82.0 L 19.0,66.0 L 94.0,65.0" fill="#DFEEFB"/>
	<path d="M 82.0,130.0 L 174.0,130.0 L 174.0,146.0 L 82.0,146.0 L 82.0,130.0" fill="#E4E7F4"/>
</svg>
