<?xml version="1.0" ?>
<svg baseProfile="full" height="600px" version="1.1" viewBox="-19.296000000000003 -19.296000000000003 230.592 230.592" width="600px" xmlns="http://www.w3.org/2000/svg" xmlns:ev="http://www.w3.org/2001/xml-events" xmlns:xlink="http://www.w3.org/1999/xlink">
	<defs/>
	<path d="M 0.0,0.0 L 192.0,0.0 L 192.0,192.0 L 0.0,192.0 L 0.0,0.0" fill="#FDFDFE"/>
	<path d="M 85.0,45.0 L 99.0,45.0 L 105.0,49.0 L 107.0,53.0 L 108.0,66.0 L 144.0,67.0 L 182.0,69.0 L 188.0,73.0 L 190.0,76.0 L 190.0,100.0 L 189.0,131.0 L 185.0,139.0 L 179.0,142.0 L 168.0,142.0 L 152.0,141.0 L 94.0,139.0 L 89.0,136.0 L 86.0,133.0 L 85.0,130.0 L 85.0,119.0 L 32.0,124.0 L 15.0,124.0 L 10.0,120.0 L 8.0,115.0 L 4.0,71.0 L 4.0,59.0 L 8.0,54.0 L 17.0,51.0 L 78.0,46.0 L 85.0,45.0" fill="#6D84CD"/>
	<path d="M 85.0,45.0 L 99.0,45.0 L 105.0,49.0 L 107.0,53.0 L 108.0,66.0 L 144.0,67.0 L 182.0,69.0 L 188.0,73.0 L 190.0,76.0 L 190.0,100.0 L 167.0,100.0 L 88.0,97.0 L 86.0,96.0 L 86.0,81.0 L 87.0,77.0 L 15.0,83.0 L 5.0,83.0 L 4.0,71.0 L 4.0,59.0 L 8.0,54.0 L 17.0,51.0 L 78.0,46.0 L 85.0,45.0" fill="#6B83CB"/>
	<path d="M 74.0,77.0 L 87.0,77.0 L 86.0,109.0 L 85.0,119.0 L 32.0,124.0 L 15.0,124.0 L 10.0,120.0 L 8.0,115.0 L 6.0,93.0 L 6.0,83.0 L 37.0,80.0 L 74.0,77.0" fill="#65ACED"/>
	<path d="M 86.0,81.0 L 105.0,81.0 L 190.0,84.0 L 190.0,100.0 L 167.0,100.0 L 88.0,97.0 L 86.0,96.0 L 86.0,81.0" fill="#394954"/>
	<path d="M 85.0,45.0 L 99.0,45.0 L 105.0,49.0 L 107.0,53.0 L 107.0,59.0 L 92.0,61.0 L 66.0,63.0 L 61.0,64.0 L 13.0,68.0 L 4.0,68.0 L 4.0,59.0 L 8.0,54.0 L 17.0,51.0 L 78.0,46.0 L 85.0,45.0" fill="#65ACEC"/>
	<path d="M 103.0,59.0 L 107.0,59.0 L 107.0,66.0 L 94.0,67.0 L 89.0,71.0 L 87.0,76.0 L 85.0,77.0 L 15.0,83.0 L 5.0,83.0 L 4.0,68.0 L 46.0,64.0 L 61.0,63.0 L 66.0,62.0 L 92.0,60.0 L 103.0,59.0" fill="#384852"/>
	<path d="M 93.0,104.0 L 137.0,105.0 L 181.0,107.0 L 181.0,123.0 L 115.0,121.0 L 93.0,120.0 L 93.0,104.0" fill="#E3E7F5"/>
	<path d="M 77.0,84.0 L 86.0,84.0 L 86.0,100.0 L 30.0,105.0 L 15.0,105.0 L 14.0,90.0 L 55.0,86.0 L 77.0,84.0" fill="#E0EDFA"/>
</svg>
