<?xml version="1.0" ?>
<svg baseProfile="full" height="600px" version="1.1" viewBox="-19.296000000000003 -19.296000000000003 230.592 230.592" width="600px" xmlns="http://www.w3.org/2000/svg" xmlns:ev="http://www.w3.org/2001/xml-events" xmlns:xlink="http://www.w3.org/1999/xlink">
	<defs/>
	<path d="M 0.0,0.0 L 192.0,0.0 L 192.0,192.0 L 0.0,192.0 L 0.0,0.0" fill="#FDFDFE"/>
	<path d="M 110.0,94.0 L 117.0,94.0 L 122.0,97.0 L 125.0,102.0 L 132.0,145.0 L 132.0,157.0 L 127.0,162.0 L 123.0,164.0 L 72.0,172.0 L 49.0,176.0 L 42.0,176.0 L 36.0,172.0 L 34.0,167.0 L 29.0,138.0 L 26.0,121.0 L 26.0,115.0 L 30.0,109.0 L 33.0,107.0 L 68.0,101.0 L 98.0,96.0 L 110.0,94.0" fill="#6A8ED4"/>
	<path d="M 66.0,27.0 L 89.0,28.0 L 159.0,33.0 L 165.0,34.0 L 165.0,49.0 L 162.0,80.0 L 159.0,85.0 L 154.0,88.0 L 141.0,88.0 L 96.0,85.0 L 71.0,83.0 L 66.0,80.0 L 63.0,75.0 L 63.0,61.0 L 64.0,54.0 L 65.0,35.0 L 66.0,27.0" fill="#67A2E5"/>
	<path d="M 110.0,94.0 L 117.0,94.0 L 122.0,97.0 L 125.0,102.0 L 127.0,114.0 L 127.0,122.0 L 37.0,137.0 L 30.0,137.0 L 28.0,133.0 L 26.0,121.0 L 26.0,115.0 L 30.0,109.0 L 33.0,107.0 L 68.0,101.0 L 98.0,96.0 L 110.0,94.0" fill="#384953"/>
	<path d="M 66.0,27.0 L 89.0,28.0 L 159.0,33.0 L 165.0,34.0 L 165.0,45.0 L 164.0,48.0 L 149.0,48.0 L 78.0,43.0 L 66.0,41.0 L 66.0,27.0" fill="#384852"/>
	<path d="M 73.0,13.0 L 86.0,13.0 L 114.0,15.0 L 142.0,17.0 L 157.0,18.0 L 163.0,22.0 L 165.0,24.0 L 165.0,34.0 L 145.0,33.0 L 74.0,28.0 L 66.0,27.0 L 67.0,19.0 L 72.0,14.0 L 73.0,13.0" fill="#66A2E5"/>
	<path d="M 110.0,94.0 L 117.0,94.0 L 122.0,97.0 L 125.0,102.0 L 125.0,107.0 L 85.0,114.0 L 30.0,123.0 L 28.0,123.0 L 27.0,126.0 L 26.0,115.0 L 30.0,109.0 L 33.0,107.0 L 68.0,101.0 L 98.0,96.0 L 110.0,94.0" fill="#6A8ED4"/>
	<path d="M 117.0,130.0 L 122.0,130.0 L 123.0,135.0 L 123.0,144.0 L 117.0,146.0 L 50.0,157.0 L 47.0,158.0 L 40.0,158.0 L 38.0,144.0 L 50.0,141.0 L 93.0,134.0 L 117.0,130.0" fill="#E2E9F7"/>
	<path d="M 72.0,50.0 L 88.0,50.0 L 156.0,55.0 L 156.0,70.0 L 117.0,68.0 L 71.0,64.0 L 72.0,50.0" fill="#E2EDFA"/>
	<path d="M 127.0,120.0 L 128.0,120.0 L 131.0,138.0 L 130.0,142.0 L 127.0,143.0 L 127.0,145.0 L 125.0,145.0 L 124.0,147.0 L 124.0,145.0 L 122.0,144.0 L 122.0,131.0 L 123.0,129.0 L 125.0,129.0 L 125.0,127.0 L 127.0,127.0 L 127.0,120.0" fill="#6E91D5"/>
	<path d="M 38.0,106.0 L 42.0,107.0 L 28.0,121.0 L 26.0,121.0 L 26.0,115.0 L 30.0,109.0 L 33.0,107.0 L 38.0,106.0" fill="#6C90D5"/>
	<path d="M 71.0,48.0 L 79.0,49.0 L 79.0,50.0 L 72.0,50.0 L 72.0,60.0 L 71.0,64.0 L 81.0,64.0 L 81.0,65.0 L 72.0,65.0 L 71.0,67.0 L 68.0,63.0 L 68.0,60.0 L 66.0,57.0 L 65.0,58.0 L 64.0,54.0 L 66.0,50.0 L 70.0,49.0 L 71.0,48.0" fill="#68A3E6"/>
	<path d="M 162.0,49.0 L 164.0,49.0 L 164.0,62.0 L 163.0,69.0 L 160.0,68.0 L 161.0,65.0 L 161.0,62.0 L 160.0,59.0 L 160.0,56.0 L 161.0,53.0 L 161.0,50.0 L 162.0,49.0" fill="#68A3E6"/>
	<path d="M 109.0,26.0 L 115.0,28.0 L 125.0,28.0 L 126.0,31.0 L 102.0,30.0 L 102.0,29.0 L 108.0,29.0 L 109.0,26.0" fill="#6097D4"/>
	<path d="M 129.0,132.0 L 130.0,132.0 L 131.0,142.0 L 127.0,143.0 L 127.0,145.0 L 125.0,145.0 L 124.0,147.0 L 124.0,145.0 L 122.0,144.0 L 124.0,140.0 L 127.0,139.0 L 127.0,137.0 L 129.0,137.0 L 129.0,132.0" fill="#7A9AD9"/>
	<path d="M 83.0,24.0 L 89.0,26.0 L 95.0,26.0 L 97.0,29.0 L 74.0,28.0 L 74.0,27.0 L 82.0,27.0 L 83.0,24.0" fill="#6199D6"/>
	<path d="M 151.0,18.0 L 157.0,18.0 L 163.0,22.0 L 165.0,26.0 L 162.0,26.0 L 156.0,24.0 L 157.0,21.0 L 154.0,19.0 L 153.0,21.0 L 151.0,18.0" fill="#71A8E8"/>
	<path d="M 135.0,28.0 L 141.0,30.0 L 151.0,30.0 L 153.0,33.0 L 134.0,32.0 L 135.0,28.0" fill="#6299D8"/>
	<path d="M 66.0,131.0 L 70.0,132.0 L 67.0,133.0 L 67.0,135.0 L 65.0,135.0 L 65.0,137.0 L 63.0,137.0 L 63.0,139.0 L 59.0,139.0 L 59.0,137.0 L 61.0,137.0 L 61.0,135.0 L 63.0,135.0 L 63.0,133.0 L 61.0,132.0 L 66.0,131.0 M 57.0,139.0 L 59.0,140.0 L 57.0,139.0" fill="#6588CB"/>
	<path d="M 38.0,106.0 L 42.0,107.0 L 39.0,109.0 L 38.0,106.0 M 37.0,109.0 L 39.0,110.0 L 37.0,111.0 L 37.0,109.0 M 35.0,111.0 L 37.0,112.0 L 35.0,113.0 L 35.0,111.0 M 33.0,113.0 L 35.0,114.0 L 33.0,115.0 L 33.0,113.0 M 26.0,115.0 L 29.0,119.0 L 28.0,121.0 L 26.0,121.0 L 26.0,115.0 M 31.0,115.0 L 33.0,116.0 L 31.0,117.0 L 31.0,115.0 M 29.0,117.0 L 31.0,118.0 L 29.0,119.0 L 29.0,117.0" fill="#7B9BDA"/>
	<path d="M 128.0,47.0 L 130.0,47.0 L 132.0,53.0 L 137.0,53.0 L 137.0,54.0 L 127.0,54.0 L 127.0,51.0 L 127.0,48.0 L 128.0,47.0" fill="#78ADE9"/>
	<path d="M 129.0,155.0 L 132.0,155.0 L 130.0,160.0 L 125.0,163.0 L 123.0,163.0 L 123.0,161.0 L 125.0,161.0 L 125.0,159.0 L 127.0,159.0 L 127.0,157.0 L 129.0,157.0 L 129.0,155.0" fill="#7193D7"/>
	<path d="M 29.0,136.0 L 36.0,137.0 L 37.0,139.0 L 35.0,139.0 L 35.0,141.0 L 33.0,141.0 L 32.0,143.0 L 29.0,138.0 L 29.0,136.0" fill="#6587C7"/>
	<path d="M 71.0,48.0 L 79.0,49.0 L 79.0,50.0 L 72.0,50.0 L 72.0,60.0 L 71.0,60.0 L 69.0,53.0 L 69.0,50.0 L 71.0,48.0" fill="#88B7EC"/>
	<path d="M 123.0,84.0 L 133.0,84.0 L 134.0,87.0 L 126.0,87.0 L 122.0,85.0 L 123.0,84.0" fill="#77ACE8"/>
	<path d="M 139.0,52.0 L 149.0,52.0 L 152.0,55.0 L 144.0,55.0 L 138.0,54.0 L 139.0,52.0" fill="#72A9E7"/>
	<path d="M 113.0,50.0 L 123.0,50.0 L 124.0,53.0 L 116.0,53.0 L 112.0,51.0 L 113.0,50.0" fill="#72A9E8"/>
	<path d="M 65.0,35.0 L 66.0,35.0 L 66.0,41.0 L 78.0,42.0 L 78.0,43.0 L 69.0,45.0 L 68.0,42.0 L 65.0,42.0 L 65.0,35.0" fill="#608DBE"/>
	<path d="M 138.0,69.0 L 152.0,69.0 L 152.0,70.0 L 144.0,70.0 L 143.0,73.0 L 139.0,71.0 L 138.0,69.0" fill="#7CAFE9"/>
	<path d="M 82.0,65.0 L 96.0,65.0 L 96.0,66.0 L 88.0,66.0 L 87.0,69.0 L 83.0,67.0 L 82.0,65.0" fill="#7CAFE9"/>
	<path d="M 118.0,16.0 L 133.0,16.0 L 133.0,17.0 L 124.0,17.0 L 123.0,19.0 L 118.0,18.0 L 118.0,16.0" fill="#81B2EA"/>
	<path d="M 109.0,124.0 L 113.0,125.0 L 111.0,125.0 L 111.0,127.0 L 109.0,127.0 L 109.0,129.0 L 107.0,129.0 L 107.0,131.0 L 103.0,132.0 L 109.0,124.0" fill="#6689CE"/>
	<path d="M 63.0,61.0 L 64.0,61.0 L 65.0,70.0 L 68.0,71.0 L 67.0,73.0 L 65.0,73.0 L 63.0,75.0 L 63.0,61.0" fill="#89B8EC"/>
	<path d="M 162.0,49.0 L 164.0,49.0 L 164.0,62.0 L 163.0,62.0 L 162.0,54.0 L 160.0,51.0 L 162.0,49.0" fill="#83B4EB"/>
	<path d="M 68.0,18.0 L 72.0,19.0 L 69.0,23.0 L 67.0,23.0 L 66.0,26.0 L 67.0,19.0 L 68.0,18.0" fill="#76ABE7"/>
	<path d="M 164.0,45.0 L 165.0,49.0 L 158.0,50.0 L 154.0,50.0 L 154.0,48.0 L 164.0,48.0 L 164.0,45.0" fill="#6F9DD1"/>
	<path d="M 87.0,48.0 L 93.0,48.0 L 96.0,51.0 L 88.0,51.0 L 86.0,49.0 L 87.0,48.0" fill="#75ABE8"/>
	<path d="M 69.0,62.0 L 71.0,63.0 L 81.0,64.0 L 81.0,65.0 L 72.0,65.0 L 71.0,67.0 L 68.0,63.0 L 69.0,62.0" fill="#7FB1EA"/>
	<path d="M 112.0,45.0 L 120.0,45.0 L 115.0,49.0 L 112.0,48.0 L 112.0,45.0" fill="#639CDD"/>
	<path d="M 83.0,24.0 L 86.0,25.0 L 84.0,28.0 L 74.0,28.0 L 74.0,27.0 L 82.0,27.0 L 83.0,24.0" fill="#5E92CC"/>
	<path d="M 105.0,82.0 L 108.0,83.0 L 108.0,85.0 L 96.0,85.0 L 96.0,84.0 L 104.0,83.0 L 105.0,82.0" fill="#8BB7EB"/>
	<path d="M 134.0,17.0 L 142.0,17.0 L 144.0,18.0 L 143.0,21.0 L 140.0,20.0 L 136.0,19.0 L 134.0,17.0" fill="#71A8E7"/>
	<path d="M 78.0,13.0 L 86.0,13.0 L 88.0,14.0 L 87.0,17.0 L 84.0,16.0 L 80.0,15.0 L 78.0,13.0" fill="#72A9E8"/>
	<path d="M 143.0,84.0 L 146.0,85.0 L 146.0,87.0 L 149.0,88.0 L 141.0,88.0 L 143.0,84.0" fill="#7CAFE9"/>
	<path d="M 113.0,82.0 L 116.0,83.0 L 116.0,85.0 L 121.0,85.0 L 121.0,86.0 L 113.0,86.0 L 112.0,83.0 L 113.0,82.0" fill="#7CAFE9"/>
	<path d="M 157.0,30.0 L 161.0,32.0 L 165.0,34.0 L 156.0,33.0 L 157.0,30.0" fill="#5F95D0"/>
</svg>
