<?xml version="1.0" ?>
<svg baseProfile="full" height="600px" version="1.1" viewBox="-20.1 -20.1 240.2 240.2" width="600px" xmlns="http://www.w3.org/2000/svg" xmlns:ev="http://www.w3.org/2001/xml-events" xmlns:xlink="http://www.w3.org/1999/xlink">
	<defs/>
	<path d="M 0.0,0.0 L 200.0,0.0 L 200.0,200.0 L 0.0,200.0 L 0.0,0.0" fill="#030303"/>
	<path d="M 0.0,0.0 L 200.0,0.0 L 200.0,200.0 L 0.0,200.0 L 0.0,0.0 M 10.0,68.0 L 8.0,70.0 L 8.0,186.0 L 10.0,188.0 L 190.0,188.0 L 192.0,186.0 L 192.0,70.0 L 190.0,68.0 L 10.0,68.0" fill="#FDFDFD"/>
	<path d="M 16.0,76.0 L 24.0,76.0 L 25.0,139.0 L 29.0,152.0 L 35.0,160.0 L 42.0,166.0 L 54.0,171.0 L 68.0,171.0 L 80.0,167.0 L 88.0,161.0 L 94.0,154.0 L 98.0,144.0 L 99.0,140.0 L 99.0,126.0 L 94.0,114.0 L 85.0,104.0 L 75.0,99.0 L 67.0,97.0 L 54.0,97.0 L 42.0,102.0 L 33.0,110.0 L 32.0,110.0 L 32.0,96.0 L 35.0,94.0 L 34.0,89.0 L 32.0,88.0 L 32.0,76.0 L 58.0,76.0 L 62.0,83.0 L 138.0,83.0 L 142.0,76.0 L 168.0,76.0 L 168.0,88.0 L 165.0,90.0 L 166.0,95.0 L 168.0,96.0 L 168.0,111.0 L 157.0,104.0 L 149.0,101.0 L 135.0,101.0 L 125.0,105.0 L 117.0,111.0 L 111.0,121.0 L 109.0,127.0 L 109.0,141.0 L 113.0,151.0 L 119.0,159.0 L 129.0,165.0 L 135.0,167.0 L 146.0,167.0 L 155.0,165.0 L 165.0,159.0 L 171.0,151.0 L 174.0,145.0 L 175.0,138.0 L 176.0,76.0 L 184.0,76.0 L 184.0,180.0 L 16.0,180.0 L 16.0,76.0" fill="#FBFBFB"/>
	<path d="M 57.0,104.0 L 68.0,104.0 L 78.0,108.0 L 86.0,115.0 L 91.0,124.0 L 92.0,128.0 L 92.0,140.0 L 88.0,150.0 L 81.0,158.0 L 71.0,163.0 L 68.0,164.0 L 57.0,164.0 L 48.0,161.0 L 40.0,155.0 L 34.0,146.0 L 32.0,140.0 L 32.0,129.0 L 35.0,120.0 L 41.0,112.0 L 50.0,106.0 L 57.0,104.0" fill="#F7F7F7"/>
	<path d="M 136.0,108.0 L 148.0,108.0 L 158.0,113.0 L 165.0,121.0 L 168.0,128.0 L 168.0,140.0 L 163.0,150.0 L 155.0,157.0 L 147.0,160.0 L 136.0,160.0 L 126.0,155.0 L 119.0,147.0 L 116.0,140.0 L 116.0,128.0 L 121.0,118.0 L 129.0,111.0 L 136.0,108.0" fill="#F5F5F5"/>
	<path d="M 57.0,116.0 L 67.0,116.0 L 75.0,121.0 L 79.0,126.0 L 80.0,129.0 L 80.0,139.0 L 75.0,147.0 L 67.0,152.0 L 57.0,152.0 L 49.0,147.0 L 44.0,139.0 L 44.0,129.0 L 49.0,121.0 L 57.0,116.0" fill="#070707"/>
	<path d="M 137.0,116.0 L 147.0,116.0 L 155.0,121.0 L 159.0,126.0 L 160.0,129.0 L 160.0,138.0 L 156.0,146.0 L 151.0,150.0 L 147.0,152.0 L 137.0,152.0 L 129.0,147.0 L 124.0,139.0 L 124.0,129.0 L 129.0,121.0 L 137.0,116.0" fill="#080808"/>
	<path d="M 57.0,125.0 L 63.0,127.0 L 67.0,125.0 L 69.0,131.0 L 72.0,132.0 L 72.0,136.0 L 69.0,137.0 L 67.0,143.0 L 61.0,141.0 L 57.0,143.0 L 55.0,137.0 L 52.0,136.0 L 52.0,132.0 L 55.0,131.0 L 57.0,125.0" fill="#F3F3F3"/>
	<path d="M 140.0,124.0 L 143.0,124.0 L 145.0,128.0 L 150.0,128.0 L 151.0,132.0 L 150.0,136.0 L 150.0,140.0 L 145.0,140.0 L 144.0,144.0 L 141.0,144.0 L 139.0,140.0 L 134.0,140.0 L 133.0,136.0 L 134.0,132.0 L 134.0,128.0 L 139.0,128.0 L 140.0,124.0" fill="#F6F6F6"/>
</svg>
