<?xml version="1.0" ?>
<svg baseProfile="full" height="600px" version="1.1" viewBox="-20.1 -20.1 240.2 240.2" width="600px" xmlns="http://www.w3.org/2000/svg" xmlns:ev="http://www.w3.org/2001/xml-events" xmlns:xlink="http://www.w3.org/1999/xlink">
	<defs/>
	<path d="M 0.0,0.0 L 200.0,0.0 L 200.0,200.0 L 0.0,200.0 L 0.0,0.0" fill="#FBFBFB"/>
	<path d="M 0.0,0.0 L 200.0,0.0 L 200.0,200.0 L 0.0,200.0 L 0.0,0.0 M 10.0,15.0 L 8.0,17.0 L 8.0,41.0 L 10.0,55.0 L 14.0,68.0 L 13.0,77.0 L 9.0,90.0 L 8.0,96.0 L 8.0,117.0 L 12.0,131.0 L 19.0,145.0 L 27.0,155.0 L 35.0,164.0 L 49.0,175.0 L 65.0,184.0 L 78.0,189.0 L 90.0,192.0 L 108.0,192.0 L 124.0,188.0 L 141.0,181.0 L 152.0,174.0 L 161.0,167.0 L 171.0,158.0 L 181.0,145.0 L 188.0,131.0 L 192.0,116.0 L 192.0,97.0 L 190.0,86.0 L 186.0,74.0 L 187.0,65.0 L 192.0,40.0 L 192.0,17.0 L 190.0,15.0 L 167.0,15.0 L 145.0,19.0 L 135.0,22.0 L 128.0,21.0 L 116.0,17.0 L 109.0,16.0 L 88.0,16.0 L 74.0,20.0 L 69.0,22.0 L 61.0,21.0 L 50.0,18.0 L 31.0,15.0 L 10.0,15.0" fill="#FCFCFC"/>
	<path d="M 10.0,15.0 L 31.0,15.0 L 55.0,19.0 L 64.0,22.0 L 71.0,21.0 L 83.0,17.0 L 88.0,16.0 L 109.0,16.0 L 123.0,19.0 L 130.0,22.0 L 138.0,21.0 L 154.0,17.0 L 167.0,15.0 L 190.0,15.0 L 192.0,17.0 L 192.0,40.0 L 187.0,65.0 L 186.0,74.0 L 191.0,90.0 L 192.0,97.0 L 192.0,116.0 L 188.0,131.0 L 181.0,145.0 L 173.0,155.0 L 165.0,164.0 L 155.0,172.0 L 139.0,182.0 L 124.0,188.0 L 108.0,192.0 L 90.0,192.0 L 72.0,187.0 L 56.0,179.0 L 45.0,172.0 L 31.0,160.0 L 21.0,148.0 L 15.0,138.0 L 9.0,122.0 L 8.0,117.0 L 8.0,96.0 L 12.0,79.0 L 14.0,74.0 L 13.0,65.0 L 9.0,50.0 L 8.0,41.0 L 8.0,17.0 L 10.0,15.0 M 16.0,23.0 L 16.0,40.0 L 19.0,57.0 L 23.0,69.0 L 22.0,76.0 L 18.0,89.0 L 16.0,97.0 L 16.0,114.0 L 20.0,129.0 L 27.0,142.0 L 39.0,156.0 L 51.0,166.0 L 64.0,174.0 L 80.0,181.0 L 93.0,184.0 L 109.0,184.0 L 125.0,179.0 L 141.0,171.0 L 154.0,162.0 L 165.0,152.0 L 174.0,140.0 L 181.0,126.0 L 183.0,120.0 L 184.0,113.0 L 184.0,98.0 L 180.0,81.0 L 177.0,74.0 L 178.0,66.0 L 182.0,53.0 L 184.0,35.0 L 184.0,23.0 L 168.0,23.0 L 152.0,26.0 L 137.0,30.0 L 128.0,30.0 L 115.0,25.0 L 110.0,24.0 L 89.0,24.0 L 73.0,29.0 L 70.0,31.0 L 62.0,30.0 L 49.0,26.0 L 29.0,23.0 L 16.0,23.0" fill="#080808"/>
	<path d="M 82.0,109.0 L 118.0,109.0 L 120.0,111.0 L 120.0,119.0 L 115.0,127.0 L 107.0,131.0 L 104.0,131.0 L 105.0,139.0 L 110.0,141.0 L 119.0,144.0 L 133.0,145.0 L 136.0,148.0 L 135.0,152.0 L 119.0,165.0 L 111.0,170.0 L 104.0,170.0 L 98.0,169.0 L 96.0,170.0 L 88.0,170.0 L 70.0,157.0 L 63.0,152.0 L 63.0,147.0 L 65.0,145.0 L 79.0,144.0 L 90.0,140.0 L 95.0,137.0 L 96.0,131.0 L 90.0,130.0 L 84.0,126.0 L 81.0,121.0 L 80.0,111.0 L 82.0,109.0" fill="#080808"/>
	<path d="M 136.0,72.0 L 147.0,72.0 L 157.0,76.0 L 160.0,79.0 L 159.0,86.0 L 153.0,95.0 L 143.0,101.0 L 138.0,102.0 L 119.0,102.0 L 116.0,99.0 L 116.0,92.0 L 122.0,80.0 L 130.0,74.0 L 136.0,72.0" fill="#080808"/>
	<path d="M 52.0,72.0 L 63.0,72.0 L 73.0,76.0 L 78.0,81.0 L 83.0,89.0 L 84.0,99.0 L 81.0,102.0 L 61.0,102.0 L 51.0,98.0 L 46.0,94.0 L 41.0,86.0 L 40.0,80.0 L 41.0,77.0 L 49.0,73.0 L 52.0,72.0" fill="#070707"/>
	<path d="M 26.0,31.0 L 47.0,31.0 L 55.0,34.0 L 56.0,39.0 L 42.0,51.0 L 34.0,60.0 L 29.0,59.0 L 27.0,56.0 L 24.0,41.0 L 24.0,33.0 L 26.0,31.0" fill="#070707"/>
	<path d="M 153.0,31.0 L 173.0,31.0 L 175.0,33.0 L 175.0,43.0 L 172.0,58.0 L 170.0,60.0 L 165.0,59.0 L 155.0,48.0 L 144.0,39.0 L 145.0,34.0 L 148.0,32.0 L 153.0,31.0" fill="#060606"/>
	<path d="M 99.0,144.0 L 113.0,151.0 L 119.0,153.0 L 114.0,158.0 L 109.0,162.0 L 96.0,161.0 L 91.0,162.0 L 79.0,154.0 L 79.0,152.0 L 87.0,150.0 L 99.0,144.0" fill="#F6F6F6"/>
	<path d="M 89.0,117.0 L 111.0,117.0 L 110.0,121.0 L 106.0,123.0 L 93.0,123.0 L 89.0,119.0 L 89.0,117.0" fill="#F3F3F3"/>
	<path d="M 53.0,80.0 L 60.0,80.0 L 60.0,93.0 L 54.0,90.0 L 49.0,84.0 L 50.0,81.0 L 53.0,80.0" fill="#F2F2F2"/>
	<path d="M 140.0,80.0 L 149.0,81.0 L 151.0,82.0 L 149.0,87.0 L 143.0,92.0 L 140.0,92.0 L 140.0,80.0" fill="#F5F5F5"/>
	<path d="M 131.0,83.0 L 132.0,83.0 L 132.0,94.0 L 125.0,94.0 L 126.0,89.0 L 131.0,83.0" fill="#F8F8F8"/>
	<path d="M 68.0,83.0 L 73.0,87.0 L 75.0,91.0 L 75.0,94.0 L 68.0,94.0 L 68.0,83.0" fill="#F8F8F8"/>
	<path d="M 33.0,39.0 L 42.0,39.0 L 36.0,46.0 L 33.0,47.0 L 33.0,39.0" fill="#EFEFEF"/>
	<path d="M 158.0,39.0 L 167.0,39.0 L 166.0,47.0 L 159.0,41.0 L 158.0,39.0" fill="#EAEAEA"/>
</svg>
