<?xml version="1.0" ?>
<svg baseProfile="full" height="600px" version="1.1" viewBox="-20.1 -20.1 240.2 240.2" width="600px" xmlns="http://www.w3.org/2000/svg" xmlns:ev="http://www.w3.org/2001/xml-events" xmlns:xlink="http://www.w3.org/1999/xlink">
	<defs/>
	<path d="M 0.0,0.0 L 200.0,0.0 L 200.0,200.0 L 0.0,200.0 L 0.0,0.0" fill="#080808"/>
	<path d="M 0.0,0.0 L 200.0,0.0 L 200.0,200.0 L 0.0,200.0 L 0.0,0.0 M 88.0,8.0 L 71.0,12.0 L 55.0,19.0 L 42.0,28.0 L 31.0,38.0 L 21.0,52.0 L 13.0,68.0 L 9.0,83.0 L 8.0,88.0 L 8.0,111.0 L 11.0,126.0 L 19.0,145.0 L 28.0,158.0 L 37.0,168.0 L 50.0,178.0 L 66.0,186.0 L 82.0,191.0 L 89.0,192.0 L 110.0,192.0 L 125.0,189.0 L 141.0,183.0 L 154.0,175.0 L 167.0,164.0 L 178.0,150.0 L 186.0,134.0 L 191.0,117.0 L 192.0,110.0 L 192.0,89.0 L 189.0,74.0 L 183.0,59.0 L 175.0,46.0 L 164.0,33.0 L 150.0,22.0 L 134.0,14.0 L 122.0,10.0 L 111.0,8.0 L 88.0,8.0" fill="#FCFCFC"/>
	<path d="M 165.0,48.0 L 170.0,53.0 L 177.0,65.0 L 183.0,83.0 L 184.0,90.0 L 184.0,111.0 L 180.0,127.0 L 174.0,141.0 L 164.0,155.0 L 154.0,165.0 L 139.0,175.0 L 126.0,180.0 L 121.0,182.0 L 111.0,184.0 L 97.0,184.0 L 97.0,174.0 L 100.0,138.0 L 101.0,136.0 L 111.0,134.0 L 122.0,128.0 L 129.0,121.0 L 134.0,111.0 L 135.0,104.0 L 135.0,94.0 L 132.0,84.0 L 130.0,79.0 L 138.0,71.0 L 149.0,62.0 L 163.0,49.0 L 165.0,48.0" fill="#FBFBFB"/>
	<path d="M 89.0,16.0 L 103.0,16.0 L 102.0,37.0 L 100.0,61.0 L 99.0,64.0 L 89.0,66.0 L 79.0,71.0 L 71.0,79.0 L 66.0,89.0 L 65.0,92.0 L 65.0,105.0 L 68.0,116.0 L 70.0,121.0 L 62.0,129.0 L 51.0,138.0 L 37.0,151.0 L 34.0,152.0 L 27.0,142.0 L 22.0,132.0 L 18.0,121.0 L 16.0,110.0 L 16.0,89.0 L 20.0,73.0 L 26.0,59.0 L 36.0,45.0 L 46.0,35.0 L 56.0,28.0 L 70.0,21.0 L 83.0,17.0 L 89.0,16.0" fill="#FBFBFB"/>
	<path d="M 94.0,72.0 L 106.0,72.0 L 118.0,78.0 L 124.0,85.0 L 128.0,94.0 L 128.0,105.0 L 123.0,117.0 L 115.0,124.0 L 106.0,128.0 L 94.0,128.0 L 82.0,122.0 L 76.0,115.0 L 72.0,106.0 L 72.0,94.0 L 78.0,82.0 L 85.0,76.0 L 94.0,72.0" fill="#F9F9F9"/>
	<path d="M 111.0,17.0 L 121.0,18.0 L 139.0,25.0 L 151.0,33.0 L 160.0,41.0 L 155.0,47.0 L 147.0,54.0 L 133.0,66.0 L 125.0,73.0 L 121.0,71.0 L 113.0,67.0 L 107.0,65.0 L 108.0,47.0 L 111.0,17.0" fill="#FAFAFA"/>
	<path d="M 75.0,127.0 L 79.0,129.0 L 89.0,134.0 L 93.0,135.0 L 91.0,162.0 L 89.0,183.0 L 79.0,182.0 L 63.0,176.0 L 49.0,167.0 L 40.0,159.0 L 45.0,153.0 L 53.0,146.0 L 67.0,134.0 L 75.0,127.0" fill="#FAFAFA"/>
	<path d="M 96.0,88.0 L 103.0,88.0 L 109.0,91.0 L 112.0,96.0 L 112.0,104.0 L 109.0,109.0 L 103.0,112.0 L 96.0,112.0 L 91.0,109.0 L 88.0,103.0 L 88.0,96.0 L 91.0,91.0 L 96.0,88.0" fill="#050505"/>
</svg>
