<?xml version="1.0" ?>
<svg baseProfile="full" height="600px" version="1.1" viewBox="-19.296000000000003 -19.296000000000003 230.592 230.592" width="600px" xmlns="http://www.w3.org/2000/svg" xmlns:ev="http://www.w3.org/2001/xml-events" xmlns:xlink="http://www.w3.org/1999/xlink">
	<defs/>
	<path d="M 0.0,0.0 L 192.0,0.0 L 192.0,192.0 L 0.0,192.0 L 0.0,0.0" fill="#8FC9F8"/>
	<path d="M 0.0,0.0 L 192.0,0.0 L 192.0,192.0 L 0.0,192.0 L 0.0,0.0 M 86.0,16.0 L 72.0,19.0 L 56.0,26.0 L 45.0,34.0 L 35.0,43.0 L 28.0,53.0 L 20.0,69.0 L 16.0,84.0 L 16.0,105.0 L 18.0,117.0 L 25.0,134.0 L 33.0,146.0 L 41.0,155.0 L 54.0,165.0 L 69.0,172.0 L 85.0,176.0 L 106.0,176.0 L 125.0,171.0 L 141.0,163.0 L 154.0,152.0 L 164.0,139.0 L 171.0,125.0 L 175.0,111.0 L 176.0,104.0 L 176.0,85.0 L 171.0,66.0 L 164.0,53.0 L 157.0,44.0 L 151.0,37.0 L 139.0,28.0 L 123.0,20.0 L 107.0,16.0 L 86.0,16.0" fill="#FCFDFE"/>
	<path d="M 90.0,72.0 L 101.0,72.0 L 110.0,76.0 L 117.0,83.0 L 120.0,90.0 L 120.0,100.0 L 117.0,109.0 L 109.0,117.0 L 100.0,120.0 L 90.0,120.0 L 82.0,116.0 L 74.0,107.0 L 72.0,101.0 L 72.0,90.0 L 76.0,82.0 L 83.0,75.0 L 90.0,72.0" fill="#2089E5"/>
	<path d="M 115.0,27.0 L 120.0,28.0 L 132.0,33.0 L 140.0,39.0 L 138.0,45.0 L 131.0,55.0 L 115.0,79.0 L 111.0,78.0 L 107.0,75.0 L 98.0,72.0 L 107.0,46.0 L 114.0,28.0 L 115.0,27.0" fill="#CCE6F9"/>
	<path d="M 78.0,113.0 L 82.0,115.0 L 90.0,119.0 L 94.0,121.0 L 84.0,148.0 L 78.0,164.0 L 73.0,165.0 L 57.0,157.0 L 52.0,152.0 L 61.0,138.0 L 74.0,118.0 L 78.0,113.0" fill="#CCE6F9"/>
	<path d="M 93.0,88.0 L 101.0,89.0 L 104.0,93.0 L 104.0,99.0 L 99.0,104.0 L 93.0,104.0 L 88.0,99.0 L 88.0,93.0 L 93.0,88.0" fill="#F1F8FD"/>
</svg>
