<?xml version="1.0" ?>
<svg baseProfile="full" height="600px" version="1.1" viewBox="-19.296000000000003 -19.296000000000003 230.592 230.592" width="600px" xmlns="http://www.w3.org/2000/svg" xmlns:ev="http://www.w3.org/2001/xml-events" xmlns:xlink="http://www.w3.org/1999/xlink">
	<defs/>
	<path d="M 0.0,0.0 L 192.0,0.0 L 192.0,192.0 L 0.0,192.0 L 0.0,0.0" fill="#8FC9F8"/>
	<path d="M 0.0,0.0 L 192.0,0.0 L 192.0,192.0 L 0.0,192.0 L 0.0,0.0 M 86.0,16.0 L 72.0,19.0 L 56.0,26.0 L 45.0,34.0 L 36.0,42.0 L 28.0,53.0 L 20.0,69.0 L 16.0,84.0 L 16.0,105.0 L 18.0,117.0 L 24.0,132.0 L 33.0,146.0 L 41.0,155.0 L 54.0,165.0 L 69.0,172.0 L 86.0,176.0 L 104.0,176.0 L 119.0,173.0 L 132.0,168.0 L 142.0,162.0 L 155.0,151.0 L 164.0,139.0 L 171.0,125.0 L 175.0,111.0 L 176.0,104.0 L 176.0,85.0 L 171.0,66.0 L 164.0,53.0 L 157.0,44.0 L 151.0,37.0 L 139.0,28.0 L 123.0,20.0 L 112.0,17.0 L 105.0,16.0 L 86.0,16.0" fill="#FCFDFE"/>
	<path d="M 90.0,72.0 L 101.0,72.0 L 110.0,76.0 L 117.0,83.0 L 120.0,90.0 L 120.0,100.0 L 117.0,109.0 L 109.0,117.0 L 101.0,120.0 L 90.0,120.0 L 82.0,116.0 L 75.0,108.0 L 72.0,101.0 L 72.0,90.0 L 76.0,82.0 L 83.0,75.0 L 90.0,72.0" fill="#2089E5"/>
	<path d="M 135.0,36.0 L 142.0,40.0 L 153.0,51.0 L 155.0,56.0 L 150.0,61.0 L 139.0,70.0 L 123.0,83.0 L 118.0,86.0 L 109.0,76.0 L 106.0,73.0 L 114.0,62.0 L 126.0,47.0 L 133.0,38.0 L 135.0,36.0" fill="#CCE6F9"/>
	<path d="M 73.0,107.0 L 76.0,108.0 L 82.0,115.0 L 86.0,118.0 L 84.0,123.0 L 74.0,135.0 L 67.0,144.0 L 58.0,156.0 L 54.0,155.0 L 44.0,146.0 L 37.0,138.0 L 39.0,134.0 L 49.0,126.0 L 60.0,117.0 L 70.0,109.0 L 73.0,107.0" fill="#CCE6F9"/>
	<path d="M 93.0,88.0 L 101.0,89.0 L 104.0,93.0 L 104.0,99.0 L 99.0,104.0 L 93.0,104.0 L 89.0,101.0 L 88.0,93.0 L 93.0,88.0" fill="#F2F8FD"/>
</svg>
