<?xml version="1.0" ?>
<svg baseProfile="full" height="600px" version="1.1" viewBox="-19.296000000000003 -19.296000000000003 230.592 230.592" width="600px" xmlns="http://www.w3.org/2000/svg" xmlns:ev="http://www.w3.org/2001/xml-events" xmlns:xlink="http://www.w3.org/1999/xlink">
	<defs/>
	<path d="M 0.0,0.0 L 192.0,0.0 L 192.0,192.0 L 0.0,192.0 L 0.0,0.0" fill="#8FC9F8"/>
	<path d="M 0.0,0.0 L 192.0,0.0 L 192.0,192.0 L 0.0,192.0 L 0.0,0.0 M 88.0,16.0 L 76.0,18.0 L 62.0,23.0 L 50.0,30.0 L 39.0,39.0 L 30.0,50.0 L 22.0,64.0 L 17.0,79.0 L 16.0,84.0 L 16.0,105.0 L 18.0,117.0 L 26.0,136.0 L 34.0,147.0 L 41.0,155.0 L 54.0,165.0 L 69.0,172.0 L 79.0,175.0 L 86.0,176.0 L 104.0,176.0 L 119.0,173.0 L 132.0,168.0 L 142.0,162.0 L 153.0,153.0 L 163.0,141.0 L 171.0,125.0 L 176.0,106.0 L 176.0,85.0 L 171.0,66.0 L 163.0,51.0 L 151.0,37.0 L 139.0,28.0 L 125.0,21.0 L 117.0,18.0 L 105.0,16.0 L 88.0,16.0" fill="#FCFDFE"/>
	<path d="M 90.0,72.0 L 101.0,72.0 L 110.0,76.0 L 117.0,83.0 L 120.0,90.0 L 120.0,102.0 L 116.0,110.0 L 109.0,117.0 L 101.0,120.0 L 91.0,120.0 L 84.0,117.0 L 76.0,110.0 L 72.0,101.0 L 72.0,90.0 L 76.0,82.0 L 83.0,75.0 L 90.0,72.0" fill="#2089E5"/>
	<path d="M 123.0,30.0 L 128.0,31.0 L 138.0,37.0 L 147.0,45.0 L 141.0,53.0 L 129.0,67.0 L 120.0,78.0 L 117.0,82.0 L 113.0,80.0 L 107.0,75.0 L 102.0,73.0 L 103.0,68.0 L 112.0,51.0 L 121.0,32.0 L 123.0,30.0" fill="#CCE6F9"/>
	<path d="M 75.0,111.0 L 79.0,112.0 L 87.0,118.0 L 90.0,119.0 L 89.0,125.0 L 74.0,154.0 L 69.0,162.0 L 64.0,161.0 L 54.0,155.0 L 46.0,148.0 L 47.0,144.0 L 57.0,133.0 L 66.0,122.0 L 75.0,111.0" fill="#CCE6F9"/>
	<path d="M 93.0,88.0 L 101.0,89.0 L 104.0,93.0 L 104.0,99.0 L 99.0,104.0 L 93.0,104.0 L 89.0,101.0 L 88.0,93.0 L 93.0,88.0" fill="#F2F8FD"/>
</svg>
