<?xml version="1.0" ?>
<svg baseProfile="full" height="600px" version="1.1" viewBox="-16.08 -16.08 192.16 192.16" width="600px" xmlns="http://www.w3.org/2000/svg" xmlns:ev="http://www.w3.org/2001/xml-events" xmlns:xlink="http://www.w3.org/1999/xlink">
	<defs/>
	<path d="M 0.0,0.0 L 160.0,0.0 L 160.0,160.0 L 0.0,160.0 L 0.0,0.0" fill="#8AB6EE"/>
	<path d="M 0.0,0.0 L 160.0,0.0 L 160.0,160.0 L 0.0,160.0 L 0.0,0.0 M 70.0,8.0 L 54.0,12.0 L 39.0,20.0 L 27.0,31.0 L 20.0,39.0 L 12.0,54.0 L 9.0,64.0 L 8.0,73.0 L 8.0,87.0 L 10.0,100.0 L 17.0,116.0 L 25.0,127.0 L 35.0,137.0 L 46.0,144.0 L 60.0,150.0 L 69.0,152.0 L 90.0,152.0 L 108.0,147.0 L 121.0,140.0 L 133.0,129.0 L 140.0,121.0 L 148.0,105.0 L 152.0,90.0 L 152.0,69.0 L 149.0,57.0 L 141.0,41.0 L 134.0,32.0 L 125.0,23.0 L 112.0,15.0 L 100.0,10.0 L 89.0,8.0 L 70.0,8.0" fill="#FCFDFE"/>
	<path d="M 70.0,8.0 L 89.0,8.0 L 102.0,11.0 L 114.0,16.0 L 125.0,23.0 L 137.0,35.0 L 145.0,48.0 L 150.0,60.0 L 152.0,69.0 L 152.0,90.0 L 147.0,108.0 L 140.0,121.0 L 129.0,133.0 L 121.0,140.0 L 105.0,148.0 L 90.0,152.0 L 69.0,152.0 L 57.0,149.0 L 41.0,141.0 L 32.0,134.0 L 23.0,125.0 L 15.0,112.0 L 10.0,100.0 L 8.0,87.0 L 8.0,73.0 L 10.0,60.0 L 15.0,48.0 L 21.0,38.0 L 30.0,28.0 L 39.0,20.0 L 54.0,12.0 L 70.0,8.0 M 103.0,17.0 L 97.0,32.0 L 87.0,59.0 L 88.0,62.0 L 95.0,67.0 L 99.0,75.0 L 99.0,84.0 L 95.0,93.0 L 90.0,97.0 L 84.0,99.0 L 75.0,99.0 L 67.0,95.0 L 62.0,88.0 L 51.0,92.0 L 36.0,99.0 L 18.0,107.0 L 20.0,113.0 L 27.0,123.0 L 34.0,131.0 L 45.0,139.0 L 55.0,144.0 L 65.0,147.0 L 72.0,148.0 L 87.0,148.0 L 101.0,145.0 L 113.0,140.0 L 124.0,132.0 L 130.0,127.0 L 138.0,116.0 L 144.0,104.0 L 147.0,94.0 L 148.0,87.0 L 148.0,72.0 L 144.0,56.0 L 137.0,42.0 L 128.0,31.0 L 117.0,22.0 L 107.0,17.0 L 103.0,17.0" fill="#8AB6EE"/>
	<path d="M 70.0,8.0 L 89.0,8.0 L 102.0,11.0 L 114.0,16.0 L 125.0,23.0 L 137.0,35.0 L 145.0,48.0 L 150.0,60.0 L 152.0,69.0 L 152.0,90.0 L 147.0,108.0 L 140.0,121.0 L 129.0,133.0 L 121.0,140.0 L 105.0,148.0 L 90.0,152.0 L 69.0,152.0 L 57.0,149.0 L 41.0,141.0 L 32.0,134.0 L 23.0,125.0 L 15.0,112.0 L 10.0,100.0 L 8.0,87.0 L 8.0,73.0 L 10.0,60.0 L 15.0,48.0 L 21.0,38.0 L 30.0,28.0 L 39.0,20.0 L 54.0,12.0 L 70.0,8.0 M 71.0,12.0 L 55.0,16.0 L 39.0,25.0 L 30.0,33.0 L 22.0,44.0 L 15.0,58.0 L 12.0,73.0 L 12.0,88.0 L 16.0,104.0 L 23.0,118.0 L 32.0,129.0 L 43.0,138.0 L 55.0,144.0 L 65.0,147.0 L 72.0,148.0 L 87.0,148.0 L 101.0,145.0 L 113.0,140.0 L 124.0,132.0 L 130.0,127.0 L 138.0,116.0 L 144.0,104.0 L 147.0,94.0 L 148.0,87.0 L 148.0,72.0 L 144.0,56.0 L 137.0,42.0 L 128.0,31.0 L 117.0,22.0 L 105.0,16.0 L 88.0,12.0 L 71.0,12.0" fill="#5681B9"/>
	<path d="M 103.0,17.0 L 109.0,18.0 L 120.0,24.0 L 131.0,34.0 L 140.0,47.0 L 142.0,53.0 L 114.0,65.0 L 102.0,71.0 L 97.0,70.0 L 93.0,65.0 L 87.0,61.0 L 90.0,51.0 L 101.0,21.0 L 103.0,17.0" fill="#C0E6FE"/>
	<path d="M 61.0,88.0 L 65.0,93.0 L 73.0,99.0 L 70.0,109.0 L 57.0,143.0 L 51.0,142.0 L 40.0,136.0 L 29.0,126.0 L 20.0,113.0 L 18.0,107.0 L 45.0,95.0 L 61.0,88.0" fill="#C0E6FE"/>
	<path d="M 76.0,60.0 L 85.0,60.0 L 93.0,64.0 L 99.0,72.0 L 100.0,75.0 L 100.0,84.0 L 96.0,93.0 L 90.0,98.0 L 84.0,100.0 L 75.0,100.0 L 67.0,96.0 L 61.0,88.0 L 60.0,85.0 L 60.0,76.0 L 63.0,69.0 L 67.0,64.0 L 72.0,61.0 L 76.0,60.0" fill="#517CB7"/>
	<path d="M 103.0,17.0 L 109.0,18.0 L 118.0,23.0 L 119.0,26.0 L 106.0,45.0 L 94.0,61.0 L 93.0,63.0 L 88.0,62.0 L 87.0,59.0 L 101.0,21.0 L 103.0,17.0" fill="#FAFCFE"/>
	<path d="M 67.0,97.0 L 72.0,98.0 L 73.0,101.0 L 58.0,141.0 L 57.0,143.0 L 51.0,142.0 L 42.0,137.0 L 41.0,133.0 L 51.0,120.0 L 64.0,101.0 L 67.0,97.0" fill="#FBFCFE"/>
	<path d="M 77.0,70.0 L 85.0,71.0 L 90.0,76.0 L 89.0,85.0 L 85.0,89.0 L 83.0,90.0 L 76.0,90.0 L 71.0,85.0 L 70.0,84.0 L 70.0,77.0 L 73.0,72.0 L 77.0,70.0" fill="#F7F9FC"/>
</svg>
