<?xml version="1.0" ?>
<svg baseProfile="full" height="600px" version="1.1" viewBox="-20.1 -20.1 240.2 240.2" width="600px" xmlns="http://www.w3.org/2000/svg" xmlns:ev="http://www.w3.org/2001/xml-events" xmlns:xlink="http://www.w3.org/1999/xlink">
	<defs/>
	<path d="M 0.0,0.0 L 200.0,0.0 L 200.0,200.0 L 0.0,200.0 L 0.0,0.0" fill="#FCFCFC"/>
	<path d="M 0.0,0.0 L 200.0,0.0 L 200.0,200.0 L 0.0,200.0 L 0.0,0.0 M 90.0,12.0 L 79.0,14.0 L 64.0,18.0 L 48.0,26.0 L 39.0,32.0 L 29.0,41.0 L 22.0,49.0 L 14.0,63.0 L 10.0,74.0 L 8.0,83.0 L 8.0,98.0 L 11.0,114.0 L 19.0,130.0 L 27.0,141.0 L 36.0,150.0 L 43.0,155.0 L 42.0,162.0 L 38.0,172.0 L 32.0,182.0 L 33.0,187.0 L 34.0,188.0 L 42.0,188.0 L 54.0,185.0 L 68.0,178.0 L 76.0,171.0 L 89.0,172.0 L 110.0,172.0 L 125.0,169.0 L 143.0,163.0 L 154.0,157.0 L 166.0,148.0 L 175.0,139.0 L 184.0,125.0 L 189.0,113.0 L 192.0,100.0 L 192.0,83.0 L 188.0,68.0 L 180.0,52.0 L 172.0,42.0 L 164.0,34.0 L 149.0,24.0 L 138.0,19.0 L 118.0,13.0 L 111.0,12.0 L 90.0,12.0" fill="#FDFDFD"/>
	<path d="M 90.0,12.0 L 111.0,12.0 L 125.0,15.0 L 143.0,21.0 L 154.0,27.0 L 166.0,36.0 L 175.0,45.0 L 184.0,59.0 L 189.0,70.0 L 192.0,83.0 L 192.0,100.0 L 188.0,116.0 L 180.0,132.0 L 172.0,142.0 L 164.0,150.0 L 149.0,160.0 L 135.0,166.0 L 122.0,170.0 L 110.0,172.0 L 89.0,172.0 L 76.0,171.0 L 68.0,178.0 L 54.0,185.0 L 42.0,188.0 L 34.0,188.0 L 32.0,186.0 L 33.0,181.0 L 39.0,171.0 L 43.0,159.0 L 42.0,154.0 L 33.0,147.0 L 25.0,139.0 L 16.0,125.0 L 11.0,114.0 L 8.0,98.0 L 8.0,83.0 L 12.0,68.0 L 20.0,52.0 L 28.0,42.0 L 36.0,34.0 L 46.0,27.0 L 62.0,19.0 L 75.0,15.0 L 82.0,13.0 L 90.0,12.0 M 87.0,20.0 L 70.0,24.0 L 58.0,29.0 L 46.0,36.0 L 36.0,45.0 L 27.0,55.0 L 19.0,70.0 L 16.0,81.0 L 16.0,100.0 L 18.0,110.0 L 23.0,122.0 L 30.0,133.0 L 43.0,146.0 L 50.0,151.0 L 51.0,158.0 L 46.0,173.0 L 44.0,179.0 L 51.0,178.0 L 65.0,171.0 L 72.0,165.0 L 72.0,163.0 L 81.0,163.0 L 90.0,164.0 L 110.0,164.0 L 126.0,161.0 L 142.0,155.0 L 154.0,148.0 L 166.0,137.0 L 173.0,129.0 L 181.0,113.0 L 184.0,101.0 L 184.0,81.0 L 180.0,68.0 L 173.0,55.0 L 162.0,43.0 L 154.0,36.0 L 140.0,28.0 L 126.0,23.0 L 110.0,20.0 L 87.0,20.0" fill="#0B0B0B"/>
	<path d="M 54.0,112.0 L 146.0,112.0 L 148.0,114.0 L 147.0,119.0 L 146.0,120.0 L 54.0,120.0 L 52.0,118.0 L 53.0,113.0 L 54.0,112.0" fill="#010101"/>
	<path d="M 54.0,64.0 L 146.0,64.0 L 148.0,66.0 L 147.0,71.0 L 146.0,72.0 L 54.0,72.0 L 52.0,70.0 L 53.0,65.0 L 54.0,64.0" fill="#010101"/>
	<path d="M 38.0,88.0 L 110.0,88.0 L 112.0,90.0 L 111.0,95.0 L 110.0,96.0 L 38.0,96.0 L 36.0,94.0 L 37.0,89.0 L 38.0,88.0" fill="#010101"/>
	<path d="M 130.0,88.0 L 162.0,88.0 L 164.0,90.0 L 163.0,95.0 L 162.0,96.0 L 130.0,96.0 L 128.0,94.0 L 129.0,89.0 L 130.0,88.0" fill="#020202"/>
</svg>
