<?xml version="1.0" ?>
<svg baseProfile="full" height="600px" version="1.1" viewBox="-9.648000000000001 -9.648000000000001 115.296 115.296" width="600px" xmlns="http://www.w3.org/2000/svg" xmlns:ev="http://www.w3.org/2001/xml-events" xmlns:xlink="http://www.w3.org/1999/xlink">
	<defs/>
	<path d="M 0.0,0.0 L 96.0,0.0 L 96.0,96.0 L 0.0,96.0 L 0.0,0.0" fill="#FCFCFC"/>
	<path d="M 13.0,10.0 L 17.0,11.0 L 87.0,81.0 L 82.0,87.0 L 75.0,81.0 L 71.0,77.0 L 37.0,76.0 L 32.0,71.0 L 32.0,64.0 L 57.0,63.0 L 51.0,57.0 L 20.0,57.0 L 9.0,68.0 L 8.0,68.0 L 8.0,17.0 L 11.0,12.0 L 13.0,10.0" fill="#030303"/>
	<path d="M 29.0,12.0 L 59.0,12.0 L 64.0,17.0 L 64.0,47.0 L 57.0,41.0 L 29.0,13.0 L 29.0,12.0" fill="#050505"/>
	<path d="M 72.0,32.0 L 83.0,32.0 L 88.0,37.0 L 88.0,71.0 L 81.0,65.0 L 71.0,55.0 L 72.0,32.0" fill="#040404"/>
</svg>
