<?xml version="1.0" ?>
<svg baseProfile="full" height="600px" version="1.1" viewBox="-19.296000000000003 -19.296000000000003 230.592 230.592" width="600px" xmlns="http://www.w3.org/2000/svg" xmlns:ev="http://www.w3.org/2001/xml-events" xmlns:xlink="http://www.w3.org/1999/xlink">
	<defs/>
	<path d="M 0.0,0.0 L 192.0,0.0 L 192.0,192.0 L 0.0,192.0 L 0.0,0.0" fill="#FCFDFE"/>
	<path d="M 137.0,21.0 L 154.0,21.0 L 162.0,25.0 L 167.0,33.0 L 168.0,74.0 L 168.0,124.0 L 164.0,122.0 L 144.0,102.0 L 133.0,101.0 L 133.0,131.0 L 128.0,139.0 L 122.0,143.0 L 47.0,144.0 L 25.0,166.0 L 24.0,166.0 L 24.0,120.0 L 25.0,74.0 L 29.0,68.0 L 35.0,63.0 L 63.0,63.0 L 63.0,33.0 L 67.0,27.0 L 72.0,23.0 L 74.0,22.0 L 137.0,21.0" fill="#1666C1"/>
	<path d="M 35.0,63.0 L 63.0,63.0 L 64.0,88.0 L 68.0,97.0 L 75.0,101.0 L 133.0,102.0 L 133.0,131.0 L 128.0,139.0 L 122.0,143.0 L 47.0,144.0 L 25.0,166.0 L 24.0,166.0 L 24.0,120.0 L 25.0,74.0 L 29.0,68.0 L 35.0,63.0" fill="#2295F1"/>
	<path d="M 161.0,181.0 L 165.0,181.0 L 168.0,191.0 L 156.0,191.0 L 155.0,184.0 L 161.0,181.0" fill="#246FC4"/>
	<path d="M 24.0,148.0 L 25.0,148.0 L 26.0,162.0 L 26.0,165.0 L 24.0,166.0 L 24.0,148.0" fill="#359FF3"/>
</svg>
