<?xml version="1.0" ?>
<svg baseProfile="full" height="600px" version="1.1" viewBox="-20.1 -20.1 240.2 240.2" width="600px" xmlns="http://www.w3.org/2000/svg" xmlns:ev="http://www.w3.org/2001/xml-events" xmlns:xlink="http://www.w3.org/1999/xlink">
	<defs/>
	<path d="M 0.0,0.0 L 200.0,0.0 L 200.0,200.0 L 0.0,200.0 L 0.0,0.0" fill="#FCFCFC"/>
	<path d="M 0.0,0.0 L 200.0,0.0 L 200.0,200.0 L 0.0,200.0 L 0.0,0.0 M 87.0,12.0 L 74.0,14.0 L 59.0,19.0 L 44.0,27.0 L 34.0,35.0 L 27.0,41.0 L 18.0,53.0 L 11.0,67.0 L 7.0,83.0 L 7.0,98.0 L 9.0,110.0 L 15.0,125.0 L 23.0,137.0 L 31.0,146.0 L 41.0,154.0 L 43.0,154.0 L 40.0,168.0 L 33.0,181.0 L 32.0,186.0 L 34.0,188.0 L 43.0,188.0 L 61.0,182.0 L 71.0,175.0 L 77.0,170.0 L 86.0,171.0 L 109.0,171.0 L 129.0,167.0 L 142.0,162.0 L 155.0,155.0 L 165.0,147.0 L 174.0,138.0 L 183.0,124.0 L 188.0,112.0 L 191.0,97.0 L 191.0,82.0 L 187.0,67.0 L 179.0,51.0 L 170.0,40.0 L 159.0,30.0 L 145.0,22.0 L 131.0,16.0 L 115.0,12.0 L 87.0,12.0" fill="#FCFCFC"/>
	<path d="M 87.0,12.0 L 115.0,12.0 L 134.0,17.0 L 153.0,26.0 L 166.0,36.0 L 173.0,43.0 L 182.0,56.0 L 187.0,67.0 L 191.0,82.0 L 191.0,97.0 L 188.0,112.0 L 183.0,124.0 L 176.0,135.0 L 167.0,145.0 L 158.0,153.0 L 144.0,161.0 L 132.0,166.0 L 115.0,170.0 L 109.0,171.0 L 86.0,171.0 L 77.0,170.0 L 66.0,179.0 L 56.0,184.0 L 43.0,188.0 L 34.0,188.0 L 32.0,186.0 L 33.0,181.0 L 41.0,165.0 L 43.0,154.0 L 39.0,152.0 L 28.0,143.0 L 20.0,133.0 L 14.0,123.0 L 9.0,110.0 L 7.0,98.0 L 7.0,83.0 L 11.0,67.0 L 18.0,53.0 L 25.0,44.0 L 31.0,37.0 L 44.0,27.0 L 59.0,19.0 L 74.0,14.0 L 87.0,12.0 M 87.0,19.0 L 70.0,23.0 L 58.0,28.0 L 47.0,34.0 L 36.0,43.0 L 27.0,53.0 L 20.0,65.0 L 16.0,78.0 L 15.0,82.0 L 15.0,101.0 L 17.0,109.0 L 22.0,122.0 L 31.0,135.0 L 39.0,143.0 L 49.0,150.0 L 50.0,152.0 L 50.0,161.0 L 44.0,177.0 L 44.0,179.0 L 51.0,178.0 L 63.0,172.0 L 73.0,163.0 L 79.0,162.0 L 83.0,163.0 L 112.0,163.0 L 126.0,160.0 L 139.0,155.0 L 152.0,148.0 L 164.0,137.0 L 172.0,128.0 L 180.0,112.0 L 183.0,102.0 L 183.0,80.0 L 178.0,65.0 L 171.0,53.0 L 162.0,43.0 L 153.0,35.0 L 139.0,27.0 L 124.0,22.0 L 109.0,19.0 L 87.0,19.0" fill="#090909"/>
	<path d="M 53.0,112.0 L 67.0,112.0 L 68.0,113.0 L 68.0,118.0 L 66.0,120.0 L 53.0,120.0 L 51.0,118.0 L 52.0,113.0 L 53.0,112.0" fill="#0D0D0D"/>
</svg>
