<?xml version="1.0" ?>
<svg baseProfile="full" height="600px" version="1.1" viewBox="-19.296000000000003 -19.296000000000003 230.592 230.592" width="600px" xmlns="http://www.w3.org/2000/svg" xmlns:ev="http://www.w3.org/2001/xml-events" xmlns:xlink="http://www.w3.org/1999/xlink">
	<defs/>
	<path d="M 0.0,0.0 L 192.0,0.0 L 192.0,192.0 L 0.0,192.0 L 0.0,0.0" fill="#FCFDFE"/>
	<path d="M 89.0,5.0 L 159.0,5.0 L 166.0,11.0 L 167.0,13.0 L 168.0,63.0 L 168.0,92.0 L 161.0,86.0 L 148.0,73.0 L 132.0,72.0 L 132.0,86.0 L 157.0,86.0 L 163.0,89.0 L 168.0,95.0 L 169.0,97.0 L 169.0,151.0 L 168.0,180.0 L 163.0,175.0 L 147.0,159.0 L 86.0,158.0 L 78.0,153.0 L 75.0,146.0 L 75.0,124.0 L 48.0,125.0 L 25.0,148.0 L 24.0,148.0 L 24.0,55.0 L 28.0,49.0 L 33.0,45.0 L 35.0,44.0 L 79.0,44.0 L 79.0,15.0 L 83.0,9.0 L 89.0,5.0" fill="#2295F1"/>
	<path d="M 89.0,5.0 L 159.0,5.0 L 166.0,11.0 L 167.0,13.0 L 168.0,63.0 L 168.0,92.0 L 161.0,86.0 L 148.0,73.0 L 88.0,72.0 L 82.0,67.0 L 80.0,63.0 L 80.0,13.0 L 85.0,7.0 L 89.0,5.0" fill="#1666C1"/>
	<path d="M 132.0,87.0 L 159.0,87.0 L 164.0,90.0 L 168.0,95.0 L 169.0,97.0 L 169.0,151.0 L 168.0,180.0 L 163.0,175.0 L 147.0,159.0 L 86.0,158.0 L 78.0,153.0 L 76.0,149.0 L 76.0,124.0 L 121.0,123.0 L 127.0,119.0 L 131.0,113.0 L 132.0,87.0" fill="#1766C1"/>
</svg>
