<?xml version="1.0" ?>
<svg baseProfile="full" height="600px" version="1.1" viewBox="-12.864 -12.864 153.728 153.728" width="600px" xmlns="http://www.w3.org/2000/svg" xmlns:ev="http://www.w3.org/2001/xml-events" xmlns:xlink="http://www.w3.org/1999/xlink">
	<defs/>
	<path d="M 0.0,0.0 L 128.0,0.0 L 128.0,128.0 L 0.0,128.0 L 0.0,0.0" fill="#FCFCFC"/>
	<path d="M 14.0,9.0 L 16.0,9.0 L 23.0,17.0 L 25.0,19.0 L 88.0,20.0 L 88.0,84.0 L 49.0,85.0 L 33.0,98.0 L 24.0,104.0 L 24.0,84.0 L 8.0,84.0 L 8.0,26.0 L 15.0,32.0 L 16.0,33.0 L 16.0,76.0 L 32.0,76.0 L 33.0,86.0 L 46.0,76.0 L 80.0,76.0 L 80.0,28.0 L 35.0,29.0 L 47.0,41.0 L 45.0,45.0 L 41.0,47.0 L 9.0,15.0 L 14.0,9.0" fill="#010101"/>
	<path d="M 96.0,36.0 L 120.0,36.0 L 120.0,100.0 L 104.0,100.0 L 104.0,120.0 L 98.0,116.0 L 82.0,103.0 L 79.0,101.0 L 42.0,100.0 L 47.0,95.0 L 51.0,92.0 L 82.0,92.0 L 95.0,102.0 L 96.0,92.0 L 112.0,92.0 L 112.0,44.0 L 96.0,44.0 L 96.0,36.0" fill="#020202"/>
</svg>
