<?xml version="1.0" ?>
<svg baseProfile="full" height="600px" version="1.1" viewBox="-19.296000000000003 -19.296000000000003 230.592 230.592" width="600px" xmlns="http://www.w3.org/2000/svg" xmlns:ev="http://www.w3.org/2001/xml-events" xmlns:xlink="http://www.w3.org/1999/xlink">
	<defs/>
	<path d="M 0.0,0.0 L 192.0,0.0 L 192.0,192.0 L 0.0,192.0 L 0.0,0.0" fill="#FDFEFE"/>
	<path d="M 35.0,24.0 L 121.0,24.0 L 127.0,28.0 L 131.0,33.0 L 132.0,35.0 L 132.0,64.0 L 157.0,64.0 L 163.0,68.0 L 167.0,73.0 L 168.0,75.0 L 168.0,168.0 L 161.0,162.0 L 144.0,145.0 L 75.0,144.0 L 69.0,140.0 L 65.0,135.0 L 64.0,133.0 L 64.0,104.0 L 48.0,105.0 L 25.0,128.0 L 24.0,128.0 L 24.0,35.0 L 28.0,29.0 L 33.0,25.0 L 35.0,24.0" fill="#2295F1"/>
	<path d="M 132.0,64.0 L 157.0,64.0 L 163.0,68.0 L 167.0,73.0 L 168.0,75.0 L 168.0,168.0 L 161.0,162.0 L 144.0,145.0 L 75.0,144.0 L 69.0,140.0 L 65.0,135.0 L 64.0,133.0 L 64.0,104.0 L 121.0,103.0 L 127.0,99.0 L 131.0,93.0 L 132.0,64.0" fill="#1666C1"/>
</svg>
