<?xml version="1.0" ?>
<svg baseProfile="full" height="600px" version="1.1" viewBox="-20.1 -20.1 240.2 240.2" width="600px" xmlns="http://www.w3.org/2000/svg" xmlns:ev="http://www.w3.org/2001/xml-events" xmlns:xlink="http://www.w3.org/1999/xlink">
	<defs/>
	<path d="M 0.0,0.0 L 200.0,0.0 L 200.0,200.0 L 0.0,200.0 L 0.0,0.0" fill="#FDFDFD"/>
	<path d="M 0.0,0.0 L 200.0,0.0 L 200.0,200.0 L 0.0,200.0 L 0.0,0.0 M 39.0,24.0 L 31.0,28.0 L 25.0,36.0 L 24.0,39.0 L 24.0,160.0 L 28.0,169.0 L 36.0,175.0 L 39.0,176.0 L 161.0,176.0 L 170.0,171.0 L 175.0,163.0 L 176.0,161.0 L 176.0,39.0 L 172.0,31.0 L 166.0,26.0 L 160.0,24.0 L 39.0,24.0" fill="#FDFDFD"/>
	<path d="M 38.0,16.0 L 161.0,16.0 L 170.0,19.0 L 179.0,27.0 L 184.0,37.0 L 184.0,160.0 L 181.0,170.0 L 173.0,179.0 L 165.0,183.0 L 162.0,184.0 L 37.0,184.0 L 27.0,179.0 L 19.0,170.0 L 16.0,161.0 L 16.0,38.0 L 20.0,29.0 L 27.0,21.0 L 35.0,17.0 L 38.0,16.0 M 39.0,24.0 L 31.0,28.0 L 25.0,36.0 L 24.0,39.0 L 24.0,160.0 L 28.0,169.0 L 36.0,175.0 L 39.0,176.0 L 161.0,176.0 L 170.0,171.0 L 175.0,163.0 L 176.0,161.0 L 176.0,39.0 L 172.0,31.0 L 166.0,26.0 L 160.0,24.0 L 39.0,24.0" fill="#020202"/>
</svg>
