<?xml version="1.0" ?>
<svg baseProfile="full" height="600px" version="1.1" viewBox="-12.864 -12.864 153.728 153.728" width="600px" xmlns="http://www.w3.org/2000/svg" xmlns:ev="http://www.w3.org/2001/xml-events" xmlns:xlink="http://www.w3.org/1999/xlink">
	<defs/>
	<path d="M 0.0,0.0 L 128.0,0.0 L 128.0,128.0 L 0.0,128.0 L 0.0,0.0" fill="#FBFBFB"/>
	<path d="M 55.0,12.0 L 73.0,12.0 L 85.0,16.0 L 94.0,21.0 L 100.0,26.0 L 95.0,32.0 L 88.0,28.0 L 76.0,22.0 L 70.0,21.0 L 56.0,21.0 L 45.0,25.0 L 34.0,32.0 L 26.0,43.0 L 22.0,52.0 L 21.0,56.0 L 21.0,70.0 L 23.0,78.0 L 29.0,90.0 L 34.0,96.0 L 45.0,103.0 L 56.0,107.0 L 69.0,107.0 L 78.0,105.0 L 90.0,99.0 L 96.0,94.0 L 103.0,83.0 L 106.0,76.0 L 107.0,69.0 L 107.0,53.0 L 112.0,48.0 L 114.0,48.0 L 116.0,55.0 L 116.0,70.0 L 114.0,80.0 L 107.0,94.0 L 98.0,104.0 L 89.0,110.0 L 77.0,115.0 L 70.0,116.0 L 55.0,116.0 L 45.0,113.0 L 35.0,108.0 L 23.0,97.0 L 17.0,87.0 L 13.0,77.0 L 12.0,73.0 L 12.0,55.0 L 16.0,43.0 L 21.0,34.0 L 30.0,24.0 L 39.0,18.0 L 51.0,13.0 L 55.0,12.0" fill="#080808"/>
	<path d="M 108.0,31.0 L 112.0,32.0 L 114.0,34.0 L 113.0,38.0 L 65.0,86.0 L 61.0,84.0 L 41.0,64.0 L 46.0,58.0 L 48.0,58.0 L 55.0,66.0 L 63.0,74.0 L 67.0,72.0 L 108.0,31.0" fill="#030303"/>
</svg>
