<?xml version="1.0" ?>
<svg baseProfile="full" height="600px" version="1.1" viewBox="-20.1 -20.1 240.2 240.2" width="600px" xmlns="http://www.w3.org/2000/svg" xmlns:ev="http://www.w3.org/2001/xml-events" xmlns:xlink="http://www.w3.org/1999/xlink">
	<defs/>
	<path d="M 0.0,0.0 L 200.0,0.0 L 200.0,200.0 L 0.0,200.0 L 0.0,0.0" fill="#FDFDFD"/>
	<path d="M 169.0,35.0 L 175.0,35.0 L 176.0,41.0 L 166.0,56.0 L 152.0,78.0 L 139.0,98.0 L 123.0,123.0 L 110.0,143.0 L 94.0,168.0 L 90.0,173.0 L 85.0,173.0 L 70.0,159.0 L 62.0,152.0 L 49.0,140.0 L 39.0,131.0 L 29.0,122.0 L 24.0,117.0 L 25.0,112.0 L 30.0,111.0 L 37.0,118.0 L 45.0,125.0 L 57.0,136.0 L 67.0,145.0 L 77.0,154.0 L 86.0,162.0 L 90.0,158.0 L 100.0,142.0 L 111.0,125.0 L 127.0,100.0 L 140.0,80.0 L 156.0,55.0 L 167.0,38.0 L 169.0,35.0" fill="#080808"/>
</svg>
