<?xml version="1.0" ?>
<svg baseProfile="full" height="600px" version="1.1" viewBox="-12.864 -12.864 153.728 153.728" width="600px" xmlns="http://www.w3.org/2000/svg" xmlns:ev="http://www.w3.org/2001/xml-events" xmlns:xlink="http://www.w3.org/1999/xlink">
	<defs/>
	<path d="M 0.0,0.0 L 128.0,0.0 L 128.0,128.0 L 0.0,128.0 L 0.0,0.0" fill="#FDFDFD"/>
	<path d="M 20.0,20.0 L 108.0,20.0 L 108.0,108.0 L 20.0,108.0 L 20.0,20.0" fill="#FBFBFB"/>
	<path d="M 20.0,20.0 L 108.0,20.0 L 108.0,108.0 L 20.0,108.0 L 20.0,20.0 M 28.0,28.0 L 28.0,100.0 L 100.0,100.0 L 100.0,28.0 L 28.0,28.0" fill="#000000"/>
	<path d="M 85.0,45.0 L 90.0,49.0 L 89.0,53.0 L 57.0,85.0 L 53.0,83.0 L 40.0,70.0 L 42.0,66.0 L 46.0,64.0 L 55.0,73.0 L 59.0,71.0 L 85.0,45.0" fill="#020202"/>
</svg>
