<?xml version="1.0" ?>
<svg baseProfile="full" height="600px" version="1.1" viewBox="-19.296000000000003 -19.296000000000003 230.592 230.592" width="600px" xmlns="http://www.w3.org/2000/svg" xmlns:ev="http://www.w3.org/2001/xml-events" xmlns:xlink="http://www.w3.org/1999/xlink">
	<defs/>
	<path d="M 0.0,0.0 L 192.0,0.0 L 192.0,192.0 L 0.0,192.0 L 0.0,0.0" fill="#4DAF51"/>
	<path d="M 0.0,0.0 L 192.0,0.0 L 192.0,192.0 L 0.0,192.0 L 0.0,0.0 M 83.0,19.0 L 70.0,22.0 L 54.0,30.0 L 44.0,38.0 L 35.0,47.0 L 26.0,61.0 L 22.0,70.0 L 19.0,83.0 L 19.0,108.0 L 21.0,117.0 L 26.0,131.0 L 33.0,142.0 L 42.0,152.0 L 51.0,160.0 L 63.0,167.0 L 77.0,172.0 L 83.0,173.0 L 109.0,173.0 L 121.0,170.0 L 133.0,165.0 L 146.0,156.0 L 157.0,145.0 L 165.0,133.0 L 172.0,115.0 L 173.0,109.0 L 173.0,83.0 L 170.0,71.0 L 165.0,59.0 L 156.0,46.0 L 145.0,35.0 L 134.0,28.0 L 124.0,23.0 L 115.0,20.0 L 109.0,19.0 L 83.0,19.0" fill="#FCFEFC"/>
	<path d="M 60.0,91.0 L 64.0,92.0 L 89.0,117.0 L 87.0,121.0 L 79.0,129.0 L 75.0,127.0 L 50.0,102.0 L 56.0,95.0 L 60.0,91.0" fill="#C7FC8D"/>
</svg>
