<?xml version="1.0" ?>
<svg baseProfile="full" height="600px" version="1.1" viewBox="-19.296000000000003 -19.296000000000003 230.592 230.592" width="600px" xmlns="http://www.w3.org/2000/svg" xmlns:ev="http://www.w3.org/2001/xml-events" xmlns:xlink="http://www.w3.org/1999/xlink">
	<defs/>
	<path d="M 0.0,0.0 L 192.0,0.0 L 192.0,192.0 L 0.0,192.0 L 0.0,0.0" fill="#C7E6C8"/>
	<path d="M 0.0,0.0 L 192.0,0.0 L 192.0,192.0 L 0.0,192.0 L 0.0,0.0 M 86.0,16.0 L 72.0,19.0 L 56.0,26.0 L 45.0,34.0 L 36.0,42.0 L 28.0,53.0 L 20.0,69.0 L 17.0,79.0 L 16.0,88.0 L 16.0,105.0 L 19.0,120.0 L 26.0,136.0 L 34.0,147.0 L 42.0,156.0 L 50.0,162.0 L 64.0,170.0 L 75.0,174.0 L 85.0,176.0 L 104.0,176.0 L 117.0,174.0 L 132.0,168.0 L 142.0,162.0 L 153.0,153.0 L 163.0,141.0 L 171.0,125.0 L 175.0,111.0 L 176.0,106.0 L 176.0,89.0 L 174.0,77.0 L 170.0,64.0 L 161.0,48.0 L 151.0,37.0 L 139.0,28.0 L 123.0,20.0 L 107.0,16.0 L 86.0,16.0" fill="#FDFEFD"/>
	<path d="M 86.0,16.0 L 107.0,16.0 L 125.0,21.0 L 130.0,23.0 L 125.0,28.0 L 123.0,31.0 L 121.0,31.0 L 121.0,33.0 L 119.0,33.0 L 119.0,35.0 L 117.0,35.0 L 117.0,37.0 L 115.0,37.0 L 115.0,39.0 L 113.0,39.0 L 113.0,41.0 L 111.0,41.0 L 111.0,43.0 L 109.0,43.0 L 109.0,45.0 L 107.0,45.0 L 107.0,47.0 L 99.0,54.0 L 63.0,90.0 L 69.0,97.0 L 83.0,111.0 L 87.0,109.0 L 137.0,59.0 L 141.0,60.0 L 149.0,68.0 L 148.0,72.0 L 136.0,84.0 L 137.0,87.0 L 135.0,87.0 L 135.0,89.0 L 133.0,89.0 L 133.0,91.0 L 131.0,91.0 L 131.0,93.0 L 129.0,93.0 L 129.0,95.0 L 127.0,95.0 L 127.0,97.0 L 125.0,97.0 L 125.0,99.0 L 123.0,99.0 L 123.0,101.0 L 121.0,101.0 L 121.0,103.0 L 119.0,103.0 L 119.0,105.0 L 117.0,105.0 L 117.0,107.0 L 115.0,107.0 L 115.0,109.0 L 113.0,109.0 L 113.0,111.0 L 111.0,111.0 L 111.0,113.0 L 109.0,113.0 L 109.0,115.0 L 107.0,115.0 L 107.0,117.0 L 105.0,117.0 L 105.0,119.0 L 103.0,119.0 L 103.0,121.0 L 101.0,121.0 L 101.0,123.0 L 99.0,123.0 L 99.0,125.0 L 97.0,125.0 L 97.0,127.0 L 95.0,127.0 L 95.0,129.0 L 93.0,129.0 L 93.0,131.0 L 91.0,131.0 L 91.0,133.0 L 89.0,133.0 L 88.0,135.0 L 87.0,137.0 L 85.0,137.0 L 85.0,139.0 L 83.0,139.0 L 83.0,141.0 L 81.0,141.0 L 81.0,143.0 L 79.0,143.0 L 79.0,145.0 L 77.0,145.0 L 77.0,147.0 L 75.0,147.0 L 75.0,149.0 L 73.0,149.0 L 73.0,151.0 L 71.0,151.0 L 71.0,153.0 L 69.0,153.0 L 69.0,155.0 L 67.0,155.0 L 67.0,157.0 L 65.0,157.0 L 65.0,159.0 L 63.0,159.0 L 63.0,161.0 L 61.0,161.0 L 61.0,163.0 L 59.0,163.0 L 59.0,165.0 L 53.0,164.0 L 45.0,158.0 L 36.0,150.0 L 26.0,136.0 L 19.0,120.0 L 16.0,105.0 L 16.0,88.0 L 18.0,76.0 L 23.0,62.0 L 30.0,50.0 L 39.0,39.0 L 51.0,29.0 L 67.0,21.0 L 79.0,17.0 L 86.0,16.0" fill="#C7E5C8"/>
	<path d="M 86.0,16.0 L 107.0,16.0 L 121.0,20.0 L 121.0,23.0 L 119.0,23.0 L 119.0,25.0 L 117.0,25.0 L 117.0,27.0 L 115.0,27.0 L 115.0,29.0 L 113.0,29.0 L 113.0,31.0 L 111.0,31.0 L 111.0,33.0 L 109.0,33.0 L 109.0,35.0 L 107.0,35.0 L 107.0,37.0 L 105.0,37.0 L 105.0,39.0 L 103.0,39.0 L 103.0,41.0 L 101.0,41.0 L 101.0,43.0 L 99.0,43.0 L 99.0,45.0 L 97.0,45.0 L 97.0,47.0 L 95.0,47.0 L 95.0,49.0 L 93.0,49.0 L 93.0,51.0 L 91.0,51.0 L 91.0,53.0 L 89.0,53.0 L 89.0,55.0 L 87.0,55.0 L 87.0,57.0 L 85.0,57.0 L 85.0,59.0 L 83.0,59.0 L 83.0,61.0 L 81.0,61.0 L 81.0,63.0 L 79.0,63.0 L 79.0,65.0 L 77.0,65.0 L 77.0,67.0 L 75.0,67.0 L 75.0,69.0 L 73.0,69.0 L 73.0,71.0 L 71.0,71.0 L 71.0,73.0 L 69.0,73.0 L 69.0,75.0 L 67.0,75.0 L 67.0,77.0 L 65.0,77.0 L 65.0,79.0 L 63.0,79.0 L 63.0,81.0 L 61.0,81.0 L 61.0,83.0 L 59.0,83.0 L 59.0,85.0 L 57.0,85.0 L 57.0,87.0 L 55.0,87.0 L 55.0,89.0 L 53.0,89.0 L 53.0,91.0 L 51.0,91.0 L 51.0,93.0 L 49.0,93.0 L 49.0,95.0 L 47.0,95.0 L 47.0,97.0 L 45.0,97.0 L 45.0,99.0 L 43.0,99.0 L 43.0,101.0 L 41.0,101.0 L 41.0,103.0 L 39.0,103.0 L 39.0,105.0 L 37.0,105.0 L 37.0,107.0 L 35.0,107.0 L 35.0,109.0 L 33.0,109.0 L 33.0,111.0 L 31.0,111.0 L 31.0,113.0 L 29.0,113.0 L 29.0,115.0 L 27.0,115.0 L 27.0,117.0 L 25.0,117.0 L 25.0,119.0 L 23.0,119.0 L 23.0,121.0 L 19.0,120.0 L 16.0,105.0 L 16.0,88.0 L 18.0,76.0 L 23.0,62.0 L 30.0,50.0 L 39.0,39.0 L 51.0,29.0 L 67.0,21.0 L 79.0,17.0 L 86.0,16.0" fill="#C7E6C8"/>
	<path d="M 137.0,59.0 L 141.0,60.0 L 149.0,68.0 L 148.0,72.0 L 85.0,135.0 L 81.0,133.0 L 51.0,103.0 L 52.0,99.0 L 60.0,91.0 L 64.0,92.0 L 83.0,111.0 L 87.0,109.0 L 137.0,59.0" fill="#4FB053"/>
</svg>
