<?xml version="1.0" ?>
<svg baseProfile="full" height="600px" version="1.1" viewBox="-20.1 -20.1 240.2 240.2" width="600px" xmlns="http://www.w3.org/2000/svg" xmlns:ev="http://www.w3.org/2001/xml-events" xmlns:xlink="http://www.w3.org/1999/xlink">
	<defs/>
	<path d="M 0.0,0.0 L 200.0,0.0 L 200.0,200.0 L 0.0,200.0 L 0.0,0.0" fill="#FCFCFC"/>
	<path d="M 88.0,8.0 L 109.0,8.0 L 126.0,11.0 L 145.0,19.0 L 149.0,22.0 L 148.0,26.0 L 144.0,29.0 L 128.0,21.0 L 110.0,17.0 L 89.0,17.0 L 73.0,21.0 L 61.0,26.0 L 50.0,33.0 L 40.0,42.0 L 32.0,51.0 L 23.0,67.0 L 18.0,83.0 L 17.0,89.0 L 17.0,111.0 L 20.0,123.0 L 26.0,139.0 L 33.0,150.0 L 42.0,160.0 L 51.0,168.0 L 67.0,177.0 L 83.0,182.0 L 90.0,183.0 L 109.0,183.0 L 121.0,181.0 L 137.0,175.0 L 150.0,167.0 L 160.0,158.0 L 168.0,149.0 L 175.0,137.0 L 181.0,121.0 L 183.0,109.0 L 183.0,90.0 L 181.0,79.0 L 178.0,70.0 L 179.0,65.0 L 182.0,61.0 L 184.0,61.0 L 189.0,74.0 L 192.0,89.0 L 192.0,110.0 L 189.0,125.0 L 183.0,141.0 L 175.0,154.0 L 164.0,167.0 L 150.0,178.0 L 134.0,186.0 L 117.0,191.0 L 110.0,192.0 L 89.0,192.0 L 74.0,189.0 L 59.0,183.0 L 46.0,175.0 L 33.0,164.0 L 22.0,150.0 L 14.0,134.0 L 10.0,122.0 L 8.0,111.0 L 8.0,89.0 L 12.0,71.0 L 19.0,55.0 L 28.0,42.0 L 37.0,32.0 L 50.0,22.0 L 66.0,14.0 L 82.0,9.0 L 88.0,8.0" fill="#080808"/>
	<path d="M 172.0,31.0 L 176.0,33.0 L 179.0,37.0 L 166.0,52.0 L 155.0,65.0 L 143.0,79.0 L 134.0,90.0 L 121.0,105.0 L 112.0,116.0 L 99.0,131.0 L 96.0,134.0 L 79.0,118.0 L 64.0,104.0 L 58.0,99.0 L 60.0,95.0 L 62.0,92.0 L 66.0,94.0 L 83.0,110.0 L 95.0,121.0 L 100.0,116.0 L 110.0,105.0 L 119.0,94.0 L 132.0,79.0 L 141.0,68.0 L 154.0,53.0 L 165.0,40.0 L 172.0,31.0" fill="#080808"/>
</svg>
