<?xml version="1.0" ?>
<svg baseProfile="full" height="600px" version="1.1" viewBox="-19.296000000000003 -19.296000000000003 230.592 230.592" width="600px" xmlns="http://www.w3.org/2000/svg" xmlns:ev="http://www.w3.org/2001/xml-events" xmlns:xlink="http://www.w3.org/1999/xlink">
	<defs/>
	<path d="M 0.0,0.0 L 192.0,0.0 L 192.0,192.0 L 0.0,192.0 L 0.0,0.0" fill="#EFF6E8"/>
	<path d="M 0.0,0.0 L 192.0,0.0 L 192.0,192.0 L 0.0,192.0 L 0.0,0.0 M 40.0,24.0 L 33.0,27.0 L 28.0,31.0 L 25.0,36.0 L 24.0,40.0 L 24.0,153.0 L 28.0,161.0 L 36.0,167.0 L 39.0,168.0 L 153.0,168.0 L 161.0,164.0 L 167.0,156.0 L 168.0,153.0 L 168.0,39.0 L 164.0,31.0 L 156.0,25.0 L 153.0,24.0 L 40.0,24.0" fill="#FDFEFD"/>
	<path d="M 40.0,24.0 L 153.0,24.0 L 161.0,28.0 L 167.0,36.0 L 168.0,39.0 L 168.0,153.0 L 164.0,161.0 L 156.0,167.0 L 153.0,168.0 L 39.0,168.0 L 31.0,164.0 L 25.0,156.0 L 24.0,153.0 L 24.0,40.0 L 27.0,33.0 L 31.0,28.0 L 36.0,25.0 L 40.0,24.0 M 44.0,44.0 L 44.0,148.0 L 148.0,148.0 L 148.0,44.0 L 44.0,44.0" fill="#8BC34A"/>
	<path d="M 126.0,65.0 L 133.0,71.0 L 138.0,76.0 L 136.0,80.0 L 88.0,128.0 L 84.0,126.0 L 53.0,95.0 L 59.0,88.0 L 64.0,83.0 L 68.0,85.0 L 86.0,103.0 L 90.0,101.0 L 126.0,65.0" fill="#578C31"/>
</svg>
