<?xml version="1.0" ?>
<svg baseProfile="full" height="600px" version="1.1" viewBox="-19.296000000000003 -19.296000000000003 230.592 230.592" width="600px" xmlns="http://www.w3.org/2000/svg" xmlns:ev="http://www.w3.org/2001/xml-events" xmlns:xlink="http://www.w3.org/1999/xlink">
	<defs/>
	<path d="M 0.0,0.0 L 192.0,0.0 L 192.0,192.0 L 0.0,192.0 L 0.0,0.0" fill="#C7E6C8"/>
	<path d="M 0.0,0.0 L 192.0,0.0 L 192.0,192.0 L 0.0,192.0 L 0.0,0.0 M 42.0,24.0 L 34.0,28.0 L 27.0,35.0 L 24.0,44.0 L 24.0,149.0 L 28.0,158.0 L 37.0,166.0 L 42.0,168.0 L 150.0,168.0 L 158.0,164.0 L 165.0,157.0 L 168.0,148.0 L 168.0,44.0 L 165.0,36.0 L 158.0,28.0 L 149.0,24.0 L 42.0,24.0" fill="#FDFEFD"/>
	<path d="M 167.0,51.0 L 168.0,51.0 L 168.0,148.0 L 164.0,158.0 L 157.0,165.0 L 150.0,168.0 L 42.0,168.0 L 34.0,164.0 L 26.0,155.0 L 27.0,151.0 L 29.0,151.0 L 29.0,149.0 L 31.0,149.0 L 31.0,147.0 L 33.0,147.0 L 33.0,145.0 L 35.0,145.0 L 35.0,143.0 L 37.0,143.0 L 37.0,141.0 L 39.0,141.0 L 39.0,139.0 L 41.0,139.0 L 41.0,137.0 L 43.0,137.0 L 43.0,135.0 L 45.0,135.0 L 45.0,133.0 L 47.0,133.0 L 47.0,131.0 L 49.0,131.0 L 49.0,129.0 L 51.0,129.0 L 51.0,127.0 L 53.0,127.0 L 53.0,125.0 L 55.0,125.0 L 55.0,123.0 L 57.0,123.0 L 57.0,121.0 L 59.0,121.0 L 59.0,119.0 L 61.0,119.0 L 61.0,117.0 L 65.0,116.0 L 83.0,134.0 L 90.0,132.0 L 93.0,131.0 L 93.0,129.0 L 95.0,129.0 L 95.0,127.0 L 97.0,127.0 L 97.0,125.0 L 99.0,125.0 L 99.0,123.0 L 101.0,123.0 L 101.0,121.0 L 103.0,121.0 L 103.0,119.0 L 105.0,119.0 L 105.0,117.0 L 107.0,117.0 L 107.0,115.0 L 109.0,115.0 L 109.0,113.0 L 111.0,113.0 L 111.0,111.0 L 113.0,111.0 L 113.0,109.0 L 115.0,109.0 L 115.0,107.0 L 117.0,107.0 L 117.0,105.0 L 119.0,105.0 L 119.0,103.0 L 121.0,103.0 L 121.0,101.0 L 123.0,101.0 L 123.0,99.0 L 125.0,99.0 L 125.0,97.0 L 127.0,97.0 L 127.0,95.0 L 129.0,95.0 L 129.0,93.0 L 131.0,93.0 L 131.0,91.0 L 133.0,91.0 L 133.0,89.0 L 135.0,89.0 L 135.0,87.0 L 137.0,87.0 L 137.0,85.0 L 139.0,85.0 L 139.0,83.0 L 141.0,83.0 L 141.0,81.0 L 143.0,81.0 L 143.0,79.0 L 145.0,79.0 L 145.0,77.0 L 147.0,77.0 L 147.0,75.0 L 149.0,75.0 L 151.0,67.0 L 153.0,67.0 L 153.0,65.0 L 155.0,65.0 L 155.0,63.0 L 157.0,63.0 L 157.0,61.0 L 159.0,61.0 L 159.0,59.0 L 161.0,59.0 L 161.0,57.0 L 163.0,57.0 L 163.0,55.0 L 165.0,55.0 L 165.0,53.0 L 167.0,53.0 L 167.0,51.0" fill="#C7E6C8"/>
	<path d="M 42.0,24.0 L 131.0,24.0 L 129.0,25.0 L 129.0,27.0 L 127.0,27.0 L 127.0,29.0 L 125.0,29.0 L 125.0,31.0 L 123.0,31.0 L 123.0,33.0 L 121.0,33.0 L 121.0,35.0 L 119.0,35.0 L 119.0,37.0 L 117.0,37.0 L 117.0,39.0 L 115.0,39.0 L 115.0,41.0 L 113.0,41.0 L 113.0,43.0 L 111.0,43.0 L 111.0,45.0 L 109.0,45.0 L 109.0,47.0 L 107.0,47.0 L 107.0,49.0 L 105.0,49.0 L 105.0,51.0 L 103.0,51.0 L 103.0,53.0 L 101.0,53.0 L 101.0,55.0 L 99.0,55.0 L 99.0,57.0 L 97.0,57.0 L 97.0,59.0 L 95.0,59.0 L 95.0,61.0 L 93.0,61.0 L 93.0,63.0 L 91.0,63.0 L 91.0,65.0 L 89.0,65.0 L 89.0,67.0 L 87.0,67.0 L 87.0,69.0 L 85.0,69.0 L 85.0,71.0 L 83.0,71.0 L 83.0,73.0 L 81.0,73.0 L 81.0,75.0 L 79.0,75.0 L 79.0,77.0 L 77.0,77.0 L 77.0,79.0 L 75.0,79.0 L 75.0,81.0 L 73.0,81.0 L 73.0,83.0 L 71.0,83.0 L 71.0,85.0 L 69.0,85.0 L 69.0,87.0 L 67.0,87.0 L 67.0,89.0 L 65.0,89.0 L 65.0,91.0 L 63.0,91.0 L 63.0,93.0 L 61.0,93.0 L 61.0,95.0 L 59.0,95.0 L 59.0,97.0 L 57.0,97.0 L 57.0,99.0 L 55.0,99.0 L 55.0,101.0 L 53.0,101.0 L 53.0,103.0 L 51.0,103.0 L 51.0,105.0 L 49.0,105.0 L 49.0,107.0 L 47.0,107.0 L 47.0,109.0 L 45.0,109.0 L 45.0,111.0 L 43.0,111.0 L 43.0,113.0 L 41.0,113.0 L 41.0,115.0 L 39.0,115.0 L 39.0,117.0 L 37.0,117.0 L 37.0,119.0 L 35.0,119.0 L 35.0,121.0 L 33.0,121.0 L 33.0,123.0 L 31.0,123.0 L 31.0,125.0 L 29.0,125.0 L 29.0,127.0 L 27.0,127.0 L 27.0,129.0 L 25.0,129.0 L 24.0,131.0 L 24.0,44.0 L 27.0,35.0 L 35.0,27.0 L 42.0,24.0" fill="#C7E6C8"/>
	<path d="M 137.0,59.0 L 141.0,60.0 L 149.0,68.0 L 148.0,72.0 L 85.0,135.0 L 81.0,133.0 L 54.0,106.0 L 60.0,99.0 L 66.0,94.0 L 83.0,111.0 L 87.0,109.0 L 137.0,59.0" fill="#4FB053"/>
</svg>
