<?xml version="1.0" ?>
<svg baseProfile="full" height="600px" version="1.1" viewBox="-19.296000000000003 -19.296000000000003 230.592 230.592" width="600px" xmlns="http://www.w3.org/2000/svg" xmlns:ev="http://www.w3.org/2001/xml-events" xmlns:xlink="http://www.w3.org/1999/xlink">
	<defs/>
	<path d="M 0.0,0.0 L 192.0,0.0 L 192.0,192.0 L 0.0,192.0 L 0.0,0.0" fill="#FCFDFC"/>
	<path d="M 40.0,28.0 L 151.0,28.0 L 158.0,32.0 L 163.0,38.0 L 164.0,40.0 L 164.0,151.0 L 161.0,157.0 L 154.0,163.0 L 151.0,164.0 L 40.0,164.0 L 34.0,160.0 L 29.0,154.0 L 28.0,151.0 L 28.0,40.0 L 32.0,34.0 L 38.0,29.0 L 40.0,28.0" fill="#EEF7E8"/>
	<path d="M 40.0,28.0 L 151.0,28.0 L 158.0,32.0 L 163.0,38.0 L 164.0,40.0 L 164.0,151.0 L 161.0,157.0 L 154.0,163.0 L 151.0,164.0 L 40.0,164.0 L 34.0,160.0 L 29.0,154.0 L 28.0,151.0 L 28.0,40.0 L 32.0,34.0 L 38.0,29.0 L 40.0,28.0 M 47.0,47.0 L 47.0,145.0 L 145.0,145.0 L 145.0,47.0 L 47.0,47.0" fill="#88C255"/>
	<path d="M 124.0,67.0 L 128.0,69.0 L 136.0,77.0 L 134.0,81.0 L 88.0,127.0 L 81.0,121.0 L 55.0,95.0 L 61.0,88.0 L 67.0,83.0 L 87.0,103.0 L 94.0,97.0 L 124.0,67.0" fill="#588D32"/>
</svg>
