<?xml version="1.0" ?>
<svg baseProfile="full" height="600px" version="1.1" viewBox="-16.08 -16.08 192.16 192.16" width="600px" xmlns="http://www.w3.org/2000/svg" xmlns:ev="http://www.w3.org/2001/xml-events" xmlns:xlink="http://www.w3.org/1999/xlink">
	<defs/>
	<path d="M 0.0,0.0 L 160.0,0.0 L 160.0,160.0 L 0.0,160.0 L 0.0,0.0" fill="#FDFDFD"/>
	<path d="M 17.0,75.0 L 21.0,77.0 L 53.0,109.0 L 60.0,103.0 L 72.0,91.0 L 76.0,88.0 L 80.0,90.0 L 90.0,100.0 L 89.0,104.0 L 76.0,116.0 L 54.0,138.0 L 47.0,132.0 L 4.0,89.0 L 10.0,82.0 L 17.0,75.0" fill="#B5DCB9"/>
	<path d="M 17.0,75.0 L 21.0,77.0 L 53.0,109.0 L 60.0,103.0 L 72.0,91.0 L 76.0,88.0 L 80.0,90.0 L 90.0,100.0 L 89.0,104.0 L 76.0,116.0 L 54.0,138.0 L 47.0,132.0 L 4.0,89.0 L 10.0,82.0 L 17.0,75.0 M 17.0,81.0 L 10.0,88.0 L 12.0,92.0 L 52.0,132.0 L 57.0,130.0 L 85.0,102.0 L 79.0,95.0 L 76.0,93.0 L 54.0,115.0 L 47.0,109.0 L 19.0,81.0 L 17.0,81.0" fill="#64A07B"/>
</svg>
