<?xml version="1.0" ?>
<svg baseProfile="full" height="600px" version="1.1" viewBox="-19.296000000000003 -19.296000000000003 230.592 230.592" width="600px" xmlns="http://www.w3.org/2000/svg" xmlns:ev="http://www.w3.org/2001/xml-events" xmlns:xlink="http://www.w3.org/1999/xlink">
	<defs/>
	<path d="M 0.0,0.0 L 192.0,0.0 L 192.0,192.0 L 0.0,192.0 L 0.0,0.0" fill="#EAEEF0"/>
	<path d="M 0.0,0.0 L 192.0,0.0 L 192.0,192.0 L 0.0,192.0 L 0.0,0.0 M 86.0,19.0 L 70.0,23.0 L 54.0,31.0 L 44.0,39.0 L 36.0,47.0 L 27.0,61.0 L 22.0,73.0 L 19.0,86.0 L 19.0,104.0 L 23.0,121.0 L 28.0,133.0 L 37.0,146.0 L 47.0,156.0 L 61.0,165.0 L 73.0,170.0 L 86.0,173.0 L 103.0,173.0 L 118.0,170.0 L 131.0,165.0 L 142.0,158.0 L 152.0,149.0 L 159.0,141.0 L 167.0,127.0 L 172.0,110.0 L 173.0,103.0 L 173.0,86.0 L 169.0,70.0 L 161.0,54.0 L 153.0,44.0 L 145.0,36.0 L 131.0,27.0 L 119.0,22.0 L 104.0,19.0 L 86.0,19.0" fill="#FDFDFD"/>
	<path d="M 86.0,19.0 L 104.0,19.0 L 119.0,22.0 L 133.0,28.0 L 146.0,37.0 L 156.0,47.0 L 165.0,61.0 L 170.0,73.0 L 173.0,86.0 L 173.0,103.0 L 170.0,118.0 L 165.0,131.0 L 158.0,142.0 L 149.0,152.0 L 141.0,159.0 L 127.0,167.0 L 110.0,172.0 L 103.0,173.0 L 86.0,173.0 L 70.0,169.0 L 54.0,161.0 L 44.0,153.0 L 36.0,145.0 L 27.0,131.0 L 22.0,118.0 L 19.0,104.0 L 19.0,86.0 L 23.0,70.0 L 31.0,54.0 L 39.0,44.0 L 47.0,36.0 L 61.0,27.0 L 73.0,22.0 L 86.0,19.0 M 84.0,35.0 L 72.0,39.0 L 61.0,45.0 L 51.0,54.0 L 45.0,61.0 L 37.0,77.0 L 35.0,84.0 L 35.0,105.0 L 37.0,115.0 L 45.0,131.0 L 54.0,141.0 L 61.0,147.0 L 77.0,155.0 L 84.0,157.0 L 106.0,157.0 L 114.0,155.0 L 126.0,150.0 L 136.0,143.0 L 145.0,134.0 L 153.0,120.0 L 156.0,112.0 L 157.0,106.0 L 157.0,84.0 L 153.0,72.0 L 147.0,61.0 L 138.0,51.0 L 131.0,45.0 L 117.0,38.0 L 107.0,35.0 L 84.0,35.0" fill="#63808D"/>
</svg>
