<?xml version="1.0" ?>
<svg baseProfile="full" height="600px" version="1.1" viewBox="-19.296000000000003 -19.296000000000003 230.592 230.592" width="600px" xmlns="http://www.w3.org/2000/svg" xmlns:ev="http://www.w3.org/2001/xml-events" xmlns:xlink="http://www.w3.org/1999/xlink">
	<defs/>
	<path d="M 0.0,0.0 L 192.0,0.0 L 192.0,192.0 L 0.0,192.0 L 0.0,0.0" fill="#C7E5C8"/>
	<path d="M 0.0,0.0 L 192.0,0.0 L 192.0,192.0 L 0.0,192.0 L 0.0,0.0 M 84.0,18.0 L 66.0,23.0 L 53.0,30.0 L 43.0,38.0 L 35.0,46.0 L 26.0,60.0 L 20.0,76.0 L 18.0,84.0 L 18.0,105.0 L 21.0,120.0 L 27.0,134.0 L 36.0,147.0 L 46.0,157.0 L 60.0,166.0 L 72.0,171.0 L 87.0,174.0 L 106.0,174.0 L 121.0,171.0 L 137.0,163.0 L 148.0,155.0 L 157.0,146.0 L 166.0,132.0 L 171.0,121.0 L 174.0,106.0 L 174.0,87.0 L 171.0,72.0 L 166.0,60.0 L 159.0,49.0 L 150.0,39.0 L 142.0,32.0 L 130.0,25.0 L 117.0,20.0 L 105.0,18.0 L 84.0,18.0" fill="#FDFEFD"/>
	<path d="M 84.0,18.0 L 105.0,18.0 L 120.0,21.0 L 125.0,23.0 L 119.0,30.0 L 24.0,125.0 L 22.0,123.0 L 19.0,112.0 L 18.0,105.0 L 18.0,84.0 L 23.0,67.0 L 30.0,53.0 L 38.0,43.0 L 46.0,35.0 L 60.0,26.0 L 72.0,21.0 L 84.0,18.0" fill="#C7E6C8"/>
	<path d="M 169.0,69.0 L 171.0,72.0 L 174.0,87.0 L 174.0,106.0 L 171.0,121.0 L 163.0,137.0 L 155.0,148.0 L 146.0,157.0 L 132.0,166.0 L 121.0,171.0 L 106.0,174.0 L 87.0,174.0 L 72.0,171.0 L 69.0,169.0 L 71.0,169.0 L 71.0,167.0 L 73.0,167.0 L 73.0,165.0 L 75.0,165.0 L 75.0,163.0 L 77.0,163.0 L 77.0,161.0 L 79.0,161.0 L 79.0,159.0 L 81.0,159.0 L 81.0,157.0 L 83.0,157.0 L 83.0,155.0 L 85.0,155.0 L 85.0,153.0 L 87.0,153.0 L 87.0,151.0 L 89.0,151.0 L 89.0,149.0 L 91.0,149.0 L 91.0,147.0 L 93.0,147.0 L 93.0,145.0 L 95.0,145.0 L 95.0,143.0 L 97.0,143.0 L 97.0,141.0 L 99.0,141.0 L 99.0,139.0 L 101.0,139.0 L 101.0,137.0 L 103.0,137.0 L 103.0,135.0 L 105.0,135.0 L 105.0,133.0 L 107.0,133.0 L 107.0,131.0 L 109.0,131.0 L 109.0,129.0 L 111.0,129.0 L 111.0,127.0 L 113.0,127.0 L 113.0,125.0 L 115.0,125.0 L 115.0,123.0 L 117.0,123.0 L 117.0,121.0 L 119.0,121.0 L 119.0,119.0 L 121.0,119.0 L 121.0,117.0 L 123.0,117.0 L 123.0,115.0 L 125.0,115.0 L 125.0,113.0 L 127.0,113.0 L 127.0,111.0 L 129.0,111.0 L 129.0,109.0 L 131.0,109.0 L 131.0,107.0 L 133.0,107.0 L 133.0,105.0 L 135.0,105.0 L 135.0,103.0 L 137.0,103.0 L 137.0,101.0 L 139.0,101.0 L 139.0,99.0 L 141.0,99.0 L 141.0,97.0 L 143.0,97.0 L 143.0,95.0 L 145.0,95.0 L 145.0,93.0 L 147.0,93.0 L 147.0,91.0 L 149.0,91.0 L 149.0,89.0 L 151.0,89.0 L 151.0,87.0 L 153.0,87.0 L 153.0,85.0 L 155.0,85.0 L 155.0,83.0 L 157.0,83.0 L 157.0,81.0 L 159.0,81.0 L 159.0,79.0 L 161.0,79.0 L 161.0,77.0 L 163.0,77.0 L 163.0,75.0 L 165.0,75.0 L 165.0,73.0 L 167.0,73.0 L 167.0,71.0 L 169.0,71.0 L 169.0,69.0" fill="#C7E6C8"/>
	<path d="M 131.0,26.0 L 142.0,32.0 L 154.0,43.0 L 162.0,53.0 L 160.0,57.0 L 105.0,112.0 L 98.0,106.0 L 96.0,104.0 L 92.0,105.0 L 85.0,112.0 L 81.0,110.0 L 66.0,95.0 L 67.0,91.0 L 69.0,91.0 L 69.0,89.0 L 71.0,89.0 L 71.0,87.0 L 73.0,87.0 L 73.0,85.0 L 75.0,85.0 L 75.0,83.0 L 77.0,83.0 L 77.0,81.0 L 79.0,81.0 L 79.0,79.0 L 81.0,79.0 L 81.0,77.0 L 83.0,77.0 L 83.0,75.0 L 85.0,75.0 L 85.0,73.0 L 87.0,73.0 L 87.0,71.0 L 89.0,71.0 L 89.0,69.0 L 91.0,69.0 L 91.0,67.0 L 93.0,67.0 L 93.0,65.0 L 95.0,65.0 L 95.0,63.0 L 97.0,63.0 L 97.0,61.0 L 99.0,61.0 L 99.0,59.0 L 101.0,59.0 L 101.0,57.0 L 103.0,57.0 L 103.0,55.0 L 105.0,55.0 L 105.0,53.0 L 107.0,53.0 L 107.0,51.0 L 109.0,51.0 L 109.0,49.0 L 111.0,49.0 L 111.0,47.0 L 113.0,47.0 L 113.0,45.0 L 115.0,45.0 L 115.0,43.0 L 117.0,43.0 L 117.0,41.0 L 119.0,41.0 L 119.0,39.0 L 121.0,39.0 L 121.0,37.0 L 123.0,37.0 L 123.0,35.0 L 125.0,35.0 L 125.0,33.0 L 127.0,33.0 L 127.0,31.0 L 129.0,31.0 L 129.0,29.0 L 131.0,29.0 L 131.0,26.0" fill="#C7E6C8"/>
	<path d="M 124.0,24.0 L 130.0,25.0 L 131.0,29.0 L 129.0,29.0 L 129.0,31.0 L 127.0,31.0 L 127.0,33.0 L 125.0,33.0 L 125.0,35.0 L 123.0,35.0 L 123.0,37.0 L 121.0,37.0 L 121.0,39.0 L 119.0,39.0 L 119.0,41.0 L 117.0,41.0 L 117.0,43.0 L 115.0,43.0 L 115.0,45.0 L 113.0,45.0 L 113.0,47.0 L 111.0,47.0 L 111.0,49.0 L 109.0,49.0 L 109.0,51.0 L 107.0,51.0 L 107.0,53.0 L 105.0,53.0 L 105.0,55.0 L 103.0,55.0 L 103.0,57.0 L 101.0,57.0 L 101.0,59.0 L 99.0,59.0 L 99.0,61.0 L 97.0,61.0 L 97.0,63.0 L 95.0,63.0 L 95.0,65.0 L 93.0,65.0 L 93.0,67.0 L 91.0,67.0 L 91.0,69.0 L 89.0,69.0 L 89.0,71.0 L 87.0,71.0 L 87.0,73.0 L 85.0,73.0 L 85.0,75.0 L 83.0,75.0 L 83.0,77.0 L 81.0,77.0 L 81.0,79.0 L 79.0,79.0 L 79.0,81.0 L 77.0,81.0 L 77.0,83.0 L 75.0,83.0 L 75.0,85.0 L 73.0,85.0 L 73.0,87.0 L 71.0,87.0 L 71.0,89.0 L 69.0,89.0 L 69.0,91.0 L 67.0,91.0 L 68.0,96.0 L 83.0,111.0 L 87.0,109.0 L 93.0,103.0 L 97.0,104.0 L 105.0,112.0 L 104.0,116.0 L 85.0,135.0 L 81.0,133.0 L 57.0,109.0 L 53.0,109.0 L 53.0,111.0 L 51.0,111.0 L 51.0,113.0 L 49.0,113.0 L 49.0,115.0 L 47.0,115.0 L 47.0,117.0 L 45.0,117.0 L 45.0,119.0 L 43.0,119.0 L 43.0,121.0 L 41.0,121.0 L 41.0,123.0 L 39.0,123.0 L 39.0,125.0 L 37.0,125.0 L 37.0,127.0 L 35.0,127.0 L 35.0,129.0 L 33.0,129.0 L 33.0,131.0 L 31.0,131.0 L 31.0,133.0 L 27.0,134.0 L 24.0,127.0 L 25.0,123.0 L 124.0,24.0" fill="#C6E5C7"/>
	<path d="M 60.0,91.0 L 64.0,92.0 L 83.0,111.0 L 87.0,109.0 L 93.0,103.0 L 97.0,104.0 L 105.0,112.0 L 104.0,116.0 L 85.0,135.0 L 81.0,133.0 L 51.0,103.0 L 52.0,99.0 L 60.0,91.0" fill="#4FB153"/>
</svg>
