<?xml version="1.0" ?>
<svg baseProfile="full" height="600px" version="1.1" viewBox="-19.296000000000003 -19.296000000000003 230.592 230.592" width="600px" xmlns="http://www.w3.org/2000/svg" xmlns:ev="http://www.w3.org/2001/xml-events" xmlns:xlink="http://www.w3.org/1999/xlink">
	<defs/>
	<path d="M 0.0,0.0 L 192.0,0.0 L 192.0,192.0 L 0.0,192.0 L 0.0,0.0" fill="#C7E5C8"/>
	<path d="M 0.0,0.0 L 192.0,0.0 L 192.0,192.0 L 0.0,192.0 L 0.0,0.0 M 32.0,20.0 L 24.0,25.0 L 20.0,32.0 L 20.0,127.0 L 24.0,135.0 L 32.0,140.0 L 52.0,140.0 L 52.0,160.0 L 57.0,168.0 L 64.0,172.0 L 160.0,172.0 L 168.0,167.0 L 172.0,160.0 L 172.0,64.0 L 167.0,56.0 L 160.0,52.0 L 140.0,52.0 L 140.0,32.0 L 135.0,24.0 L 127.0,20.0 L 32.0,20.0" fill="#FDFEFD"/>
	<path d="M 140.0,52.0 L 160.0,52.0 L 168.0,57.0 L 172.0,64.0 L 172.0,160.0 L 167.0,168.0 L 160.0,172.0 L 64.0,172.0 L 56.0,167.0 L 52.0,160.0 L 52.0,140.0 L 128.0,139.0 L 136.0,134.0 L 139.0,128.0 L 140.0,52.0" fill="#398E3D"/>
</svg>
