<?xml version="1.0" ?>
<svg baseProfile="full" height="600px" version="1.1" viewBox="-20.1 -20.1 240.2 240.2" width="600px" xmlns="http://www.w3.org/2000/svg" xmlns:ev="http://www.w3.org/2001/xml-events" xmlns:xlink="http://www.w3.org/1999/xlink">
	<defs/>
	<path d="M 0.0,0.0 L 200.0,0.0 L 200.0,200.0 L 0.0,200.0 L 0.0,0.0" fill="#FDFDFD"/>
	<path d="M 143.0,40.0 L 157.0,40.0 L 157.0,80.0 L 156.0,184.0 L 44.0,184.0 L 44.0,111.0 L 52.0,75.0 L 59.0,46.0 L 60.0,43.0 L 143.0,40.0" fill="#FDFDFD"/>
	<path d="M 38.0,12.0 L 162.0,12.0 L 164.0,14.0 L 165.0,34.0 L 165.0,91.0 L 164.0,190.0 L 162.0,192.0 L 38.0,192.0 L 36.0,190.0 L 36.0,14.0 L 38.0,12.0 M 143.0,40.0 L 60.0,43.0 L 56.0,59.0 L 49.0,88.0 L 44.0,111.0 L 44.0,184.0 L 156.0,184.0 L 157.0,80.0 L 157.0,40.0 L 143.0,40.0" fill="#030303"/>
	<path d="M 44.0,20.0 L 76.0,20.0 L 76.0,35.0 L 56.0,36.0 L 53.0,39.0 L 52.0,44.0 L 44.0,44.0 L 44.0,20.0" fill="#FCFCFC"/>
	<path d="M 84.0,20.0 L 116.0,20.0 L 116.0,34.0 L 84.0,34.0 L 84.0,20.0" fill="#FBFBFB"/>
	<path d="M 124.0,20.0 L 156.0,20.0 L 156.0,32.0 L 140.0,33.0 L 124.0,33.0 L 124.0,20.0" fill="#FCFCFC"/>
	<path d="M 44.0,52.0 L 49.0,52.0 L 48.0,62.0 L 45.0,75.0 L 44.0,75.0 L 44.0,52.0" fill="#F0F0F0"/>
</svg>
