<?xml version="1.0" ?>
<svg baseProfile="full" height="600px" version="1.1" viewBox="-19.296000000000003 -19.296000000000003 230.592 230.592" width="600px" xmlns="http://www.w3.org/2000/svg" xmlns:ev="http://www.w3.org/2001/xml-events" xmlns:xlink="http://www.w3.org/1999/xlink">
	<defs/>
	<path d="M 0.0,0.0 L 192.0,0.0 L 192.0,192.0 L 0.0,192.0 L 0.0,0.0" fill="#FDC108"/>
	<path d="M 0.0,0.0 L 192.0,0.0 L 192.0,192.0 L 0.0,192.0 L 0.0,0.0 M 84.0,16.0 L 68.0,20.0 L 54.0,27.0 L 42.0,36.0 L 35.0,43.0 L 26.0,56.0 L 20.0,69.0 L 16.0,84.0 L 16.0,107.0 L 20.0,123.0 L 28.0,139.0 L 36.0,150.0 L 43.0,157.0 L 54.0,165.0 L 66.0,171.0 L 79.0,175.0 L 84.0,176.0 L 108.0,176.0 L 123.0,172.0 L 135.0,167.0 L 149.0,157.0 L 158.0,148.0 L 165.0,138.0 L 171.0,126.0 L 175.0,113.0 L 176.0,108.0 L 176.0,84.0 L 172.0,68.0 L 164.0,52.0 L 156.0,42.0 L 148.0,34.0 L 138.0,27.0 L 123.0,20.0 L 108.0,16.0 L 84.0,16.0" fill="#FDFEFD"/>
	<path d="M 59.0,24.0 L 61.0,25.0 L 61.0,102.0 L 64.0,111.0 L 68.0,118.0 L 75.0,125.0 L 85.0,130.0 L 90.0,131.0 L 101.0,131.0 L 108.0,130.0 L 105.0,133.0 L 76.0,150.0 L 54.0,163.0 L 50.0,162.0 L 40.0,154.0 L 31.0,144.0 L 23.0,130.0 L 18.0,117.0 L 16.0,107.0 L 16.0,84.0 L 20.0,69.0 L 28.0,53.0 L 36.0,42.0 L 44.0,34.0 L 59.0,24.0" fill="#4EAE50"/>
	<path d="M 84.0,16.0 L 108.0,16.0 L 123.0,20.0 L 140.0,28.0 L 151.0,37.0 L 159.0,45.0 L 168.0,59.0 L 173.0,71.0 L 176.0,84.0 L 176.0,101.0 L 172.0,99.0 L 146.0,84.0 L 124.0,71.0 L 117.0,67.0 L 107.0,62.0 L 102.0,61.0 L 89.0,61.0 L 79.0,65.0 L 73.0,69.0 L 65.0,78.0 L 61.0,89.0 L 60.0,89.0 L 60.0,25.0 L 61.0,23.0 L 75.0,18.0 L 84.0,16.0" fill="#F24435"/>
	<path d="M 91.0,68.0 L 101.0,68.0 L 110.0,71.0 L 119.0,79.0 L 123.0,86.0 L 124.0,91.0 L 124.0,101.0 L 121.0,110.0 L 113.0,119.0 L 105.0,123.0 L 101.0,124.0 L 91.0,124.0 L 82.0,121.0 L 73.0,113.0 L 69.0,106.0 L 68.0,101.0 L 68.0,91.0 L 71.0,82.0 L 79.0,73.0 L 87.0,69.0 L 91.0,68.0" fill="#2397F3"/>
	<path d="M 89.0,60.0 L 102.0,60.0 L 112.0,63.0 L 120.0,69.0 L 128.0,78.0 L 131.0,85.0 L 132.0,90.0 L 132.0,102.0 L 128.0,113.0 L 124.0,119.0 L 117.0,126.0 L 109.0,130.0 L 101.0,132.0 L 90.0,132.0 L 80.0,129.0 L 72.0,123.0 L 64.0,114.0 L 61.0,107.0 L 60.0,102.0 L 60.0,89.0 L 64.0,78.0 L 73.0,68.0 L 80.0,63.0 L 89.0,60.0 M 91.0,68.0 L 82.0,71.0 L 73.0,79.0 L 69.0,87.0 L 68.0,91.0 L 68.0,101.0 L 71.0,110.0 L 79.0,119.0 L 86.0,123.0 L 91.0,124.0 L 101.0,124.0 L 111.0,120.0 L 119.0,113.0 L 123.0,105.0 L 124.0,101.0 L 124.0,91.0 L 121.0,82.0 L 113.0,73.0 L 106.0,69.0 L 101.0,68.0 L 91.0,68.0" fill="#FAFAF9"/>
	<path d="M 106.0,130.0 L 108.0,131.0 L 88.0,143.0 L 59.0,160.0 L 55.0,162.0 L 57.0,158.0 L 84.0,131.0 L 101.0,131.0 L 106.0,130.0" fill="#588E31"/>
	<path d="M 118.0,67.0 L 122.0,69.0 L 138.0,78.0 L 160.0,91.0 L 173.0,99.0 L 170.0,100.0 L 147.0,93.0 L 131.0,88.0 L 127.0,78.0 L 118.0,68.0 L 118.0,67.0" fill="#F9A625"/>
	<path d="M 60.0,27.0 L 62.0,31.0 L 66.0,48.0 L 71.0,66.0 L 71.0,71.0 L 65.0,78.0 L 61.0,89.0 L 60.0,89.0 L 60.0,27.0" fill="#DB2E03"/>
</svg>
