<?xml version="1.0" ?>
<svg baseProfile="full" height="600px" version="1.1" viewBox="-19.296000000000003 -19.296000000000003 230.592 230.592" width="600px" xmlns="http://www.w3.org/2000/svg" xmlns:ev="http://www.w3.org/2001/xml-events" xmlns:xlink="http://www.w3.org/1999/xlink">
	<defs/>
	<path d="M 0.0,0.0 L 192.0,0.0 L 192.0,192.0 L 0.0,192.0 L 0.0,0.0" fill="#FDFEFD"/>
	<path d="M 80.0,28.0 L 109.0,28.0 L 126.0,32.0 L 142.0,39.0 L 153.0,46.0 L 165.0,57.0 L 172.0,67.0 L 177.0,77.0 L 180.0,88.0 L 180.0,107.0 L 176.0,120.0 L 170.0,131.0 L 159.0,143.0 L 147.0,152.0 L 132.0,159.0 L 118.0,163.0 L 112.0,164.0 L 84.0,164.0 L 67.0,160.0 L 54.0,155.0 L 39.0,146.0 L 28.0,136.0 L 19.0,123.0 L 14.0,112.0 L 12.0,103.0 L 12.0,85.0 L 16.0,72.0 L 22.0,61.0 L 33.0,49.0 L 45.0,40.0 L 60.0,33.0 L 74.0,29.0 L 80.0,28.0" fill="#FDC008"/>
	<path d="M 26.0,56.0 L 31.0,61.0 L 41.0,76.0 L 58.0,102.0 L 67.0,115.0 L 77.0,122.0 L 86.0,125.0 L 108.0,125.0 L 118.0,121.0 L 123.0,117.0 L 125.0,118.0 L 116.0,129.0 L 101.0,149.0 L 90.0,163.0 L 89.0,164.0 L 78.0,163.0 L 58.0,157.0 L 42.0,148.0 L 29.0,137.0 L 20.0,125.0 L 14.0,112.0 L 12.0,103.0 L 12.0,85.0 L 16.0,72.0 L 22.0,61.0 L 26.0,56.0" fill="#4EAE50"/>
	<path d="M 80.0,28.0 L 109.0,28.0 L 126.0,32.0 L 142.0,39.0 L 153.0,46.0 L 165.0,57.0 L 172.0,67.0 L 172.0,69.0 L 161.0,69.0 L 102.0,66.0 L 88.0,66.0 L 74.0,71.0 L 65.0,78.0 L 59.0,90.0 L 59.0,98.0 L 60.0,105.0 L 57.0,102.0 L 44.0,82.0 L 28.0,58.0 L 28.0,54.0 L 35.0,47.0 L 49.0,38.0 L 63.0,32.0 L 80.0,28.0" fill="#F14435"/>
	<path d="M 90.0,72.0 L 101.0,72.0 L 110.0,75.0 L 119.0,81.0 L 125.0,90.0 L 125.0,102.0 L 121.0,110.0 L 112.0,117.0 L 102.0,120.0 L 90.0,120.0 L 79.0,116.0 L 71.0,109.0 L 67.0,101.0 L 67.0,89.0 L 73.0,80.0 L 82.0,74.0 L 90.0,72.0" fill="#2497F3"/>
	<path d="M 88.0,65.0 L 102.0,65.0 L 114.0,69.0 L 124.0,75.0 L 131.0,84.0 L 134.0,93.0 L 134.0,101.0 L 130.0,111.0 L 125.0,117.0 L 116.0,123.0 L 108.0,126.0 L 86.0,126.0 L 76.0,122.0 L 67.0,116.0 L 61.0,108.0 L 58.0,98.0 L 58.0,90.0 L 64.0,78.0 L 71.0,72.0 L 81.0,67.0 L 88.0,65.0 M 90.0,72.0 L 80.0,75.0 L 71.0,82.0 L 67.0,89.0 L 67.0,101.0 L 71.0,109.0 L 79.0,116.0 L 90.0,120.0 L 102.0,120.0 L 112.0,117.0 L 121.0,110.0 L 125.0,102.0 L 125.0,90.0 L 119.0,81.0 L 109.0,74.0 L 101.0,72.0 L 90.0,72.0" fill="#FAF9F8"/>
	<path d="M 123.0,117.0 L 125.0,118.0 L 116.0,129.0 L 101.0,149.0 L 91.0,162.0 L 90.0,160.0 L 94.0,148.0 L 98.0,138.0 L 103.0,126.0 L 116.0,122.0 L 123.0,117.0" fill="#598E31"/>
	<path d="M 106.0,66.0 L 125.0,66.0 L 173.0,69.0 L 173.0,70.0 L 152.0,73.0 L 137.0,75.0 L 124.0,76.0 L 114.0,70.0 L 106.0,67.0 L 106.0,66.0" fill="#F8A525"/>
	<path d="M 28.0,57.0 L 32.0,59.0 L 33.0,62.0 L 37.0,64.0 L 49.0,75.0 L 57.0,82.0 L 60.0,85.0 L 59.0,90.0 L 59.0,98.0 L 60.0,105.0 L 57.0,102.0 L 44.0,82.0 L 28.0,58.0 L 28.0,57.0" fill="#D83104"/>
</svg>
