<?xml version="1.0" ?>
<svg baseProfile="full" height="600px" version="1.1" viewBox="-19.296000000000003 -19.296000000000003 230.592 230.592" width="600px" xmlns="http://www.w3.org/2000/svg" xmlns:ev="http://www.w3.org/2001/xml-events" xmlns:xlink="http://www.w3.org/1999/xlink">
	<defs/>
	<path d="M 0.0,0.0 L 192.0,0.0 L 192.0,192.0 L 0.0,192.0 L 0.0,0.0" fill="#FDC108"/>
	<path d="M 0.0,0.0 L 192.0,0.0 L 192.0,192.0 L 0.0,192.0 L 0.0,0.0 M 82.0,25.0 L 63.0,30.0 L 47.0,38.0 L 34.0,48.0 L 25.0,58.0 L 18.0,70.0 L 13.0,86.0 L 13.0,106.0 L 18.0,122.0 L 24.0,133.0 L 33.0,143.0 L 43.0,152.0 L 57.0,160.0 L 72.0,165.0 L 81.0,167.0 L 109.0,167.0 L 126.0,163.0 L 142.0,156.0 L 153.0,148.0 L 163.0,139.0 L 170.0,129.0 L 176.0,117.0 L 179.0,106.0 L 179.0,85.0 L 175.0,72.0 L 169.0,60.0 L 160.0,49.0 L 149.0,40.0 L 135.0,32.0 L 120.0,27.0 L 111.0,25.0 L 82.0,25.0" fill="#FDFEFD"/>
	<path d="M 24.0,60.0 L 27.0,61.0 L 40.0,79.0 L 53.0,97.0 L 59.0,105.0 L 61.0,106.0 L 66.0,115.0 L 73.0,121.0 L 81.0,125.0 L 89.0,127.0 L 101.0,127.0 L 110.0,125.0 L 120.0,120.0 L 127.0,114.0 L 125.0,118.0 L 108.0,146.0 L 95.0,167.0 L 81.0,167.0 L 62.0,162.0 L 46.0,154.0 L 36.0,146.0 L 26.0,136.0 L 18.0,122.0 L 13.0,106.0 L 13.0,86.0 L 18.0,70.0 L 24.0,60.0" fill="#4EAE50"/>
	<path d="M 82.0,25.0 L 111.0,25.0 L 130.0,30.0 L 146.0,38.0 L 155.0,45.0 L 163.0,52.0 L 169.0,60.0 L 169.0,62.0 L 106.0,64.0 L 89.0,65.0 L 79.0,68.0 L 68.0,75.0 L 62.0,84.0 L 60.0,90.0 L 60.0,106.0 L 55.0,101.0 L 42.0,83.0 L 28.0,64.0 L 25.0,60.0 L 27.0,56.0 L 36.0,46.0 L 50.0,36.0 L 66.0,29.0 L 82.0,25.0" fill="#F14435"/>
	<path d="M 91.0,71.0 L 101.0,71.0 L 113.0,75.0 L 121.0,82.0 L 125.0,90.0 L 125.0,101.0 L 121.0,109.0 L 117.0,114.0 L 105.0,120.0 L 99.0,121.0 L 90.0,121.0 L 79.0,117.0 L 71.0,110.0 L 67.0,100.0 L 67.0,91.0 L 72.0,81.0 L 80.0,75.0 L 86.0,72.0 L 91.0,71.0" fill="#2497F3"/>
	<path d="M 89.0,64.0 L 102.0,64.0 L 115.0,68.0 L 124.0,74.0 L 131.0,83.0 L 133.0,90.0 L 133.0,102.0 L 129.0,112.0 L 120.0,121.0 L 108.0,127.0 L 101.0,128.0 L 89.0,128.0 L 76.0,124.0 L 67.0,117.0 L 61.0,109.0 L 59.0,104.0 L 59.0,90.0 L 63.0,80.0 L 68.0,74.0 L 79.0,67.0 L 89.0,64.0 M 91.0,71.0 L 82.0,74.0 L 73.0,80.0 L 68.0,88.0 L 67.0,91.0 L 67.0,100.0 L 71.0,110.0 L 79.0,117.0 L 90.0,121.0 L 99.0,121.0 L 108.0,119.0 L 118.0,113.0 L 124.0,104.0 L 125.0,101.0 L 125.0,90.0 L 120.0,81.0 L 113.0,75.0 L 101.0,71.0 L 91.0,71.0" fill="#F9FAF9"/>
	<path d="M 143.0,62.0 L 169.0,62.0 L 165.0,64.0 L 134.0,71.0 L 122.0,73.0 L 110.0,67.0 L 102.0,65.0 L 106.0,63.0 L 143.0,62.0" fill="#F9A724"/>
	<path d="M 126.0,114.0 L 126.0,117.0 L 114.0,136.0 L 100.0,159.0 L 95.0,167.0 L 94.0,164.0 L 97.0,156.0 L 102.0,137.0 L 105.0,127.0 L 117.0,122.0 L 126.0,114.0" fill="#5A8E31"/>
	<path d="M 27.0,61.0 L 29.0,61.0 L 34.0,66.0 L 46.0,76.0 L 60.0,87.0 L 60.0,106.0 L 55.0,101.0 L 42.0,83.0 L 28.0,64.0 L 27.0,61.0" fill="#D83104"/>
	<path d="M 143.0,62.0 L 169.0,62.0 L 165.0,64.0 L 155.0,65.0 L 155.0,63.0 L 143.0,63.0 L 143.0,62.0" fill="#F89224"/>
	<path d="M 106.0,63.0 L 113.0,64.0 L 112.0,67.0 L 102.0,65.0 L 106.0,63.0" fill="#F8A741"/>
</svg>
