<?xml version="1.0" ?>
<svg baseProfile="full" height="600px" version="1.1" viewBox="-19.296000000000003 -19.296000000000003 230.592 230.592" width="600px" xmlns="http://www.w3.org/2000/svg" xmlns:ev="http://www.w3.org/2001/xml-events" xmlns:xlink="http://www.w3.org/1999/xlink">
	<defs/>
	<path d="M 0.0,0.0 L 192.0,0.0 L 192.0,192.0 L 0.0,192.0 L 0.0,0.0" fill="#FDC008"/>
	<path d="M 0.0,0.0 L 192.0,0.0 L 192.0,192.0 L 0.0,192.0 L 0.0,0.0 M 84.0,16.0 L 69.0,20.0 L 57.0,25.0 L 43.0,35.0 L 34.0,44.0 L 24.0,59.0 L 18.0,75.0 L 16.0,84.0 L 16.0,107.0 L 20.0,123.0 L 28.0,139.0 L 36.0,150.0 L 43.0,157.0 L 56.0,166.0 L 69.0,172.0 L 84.0,176.0 L 108.0,176.0 L 123.0,172.0 L 135.0,167.0 L 149.0,157.0 L 158.0,148.0 L 165.0,138.0 L 171.0,126.0 L 175.0,113.0 L 176.0,108.0 L 176.0,84.0 L 172.0,69.0 L 167.0,57.0 L 160.0,47.0 L 151.0,37.0 L 141.0,29.0 L 131.0,23.0 L 117.0,18.0 L 108.0,16.0 L 84.0,16.0" fill="#FDFEFD"/>
	<path d="M 84.0,16.0 L 108.0,16.0 L 123.0,20.0 L 133.0,24.0 L 145.0,32.0 L 155.0,41.0 L 156.0,44.0 L 131.0,50.0 L 92.0,60.0 L 78.0,65.0 L 68.0,74.0 L 63.0,83.0 L 61.0,89.0 L 61.0,102.0 L 65.0,113.0 L 66.0,117.0 L 61.0,112.0 L 45.0,97.0 L 20.0,72.0 L 21.0,66.0 L 27.0,54.0 L 36.0,42.0 L 44.0,34.0 L 59.0,24.0 L 75.0,18.0 L 84.0,16.0" fill="#F24435"/>
	<path d="M 19.0,72.0 L 23.0,74.0 L 54.0,105.0 L 62.0,112.0 L 67.0,117.0 L 75.0,125.0 L 85.0,130.0 L 90.0,131.0 L 101.0,131.0 L 114.0,127.0 L 124.0,118.0 L 129.0,109.0 L 130.0,112.0 L 125.0,129.0 L 115.0,169.0 L 113.0,175.0 L 108.0,176.0 L 84.0,176.0 L 69.0,172.0 L 53.0,164.0 L 42.0,156.0 L 35.0,149.0 L 26.0,136.0 L 20.0,123.0 L 16.0,107.0 L 16.0,84.0 L 19.0,72.0" fill="#4DAE50"/>
	<path d="M 91.0,68.0 L 101.0,68.0 L 110.0,71.0 L 119.0,79.0 L 124.0,89.0 L 124.0,101.0 L 121.0,110.0 L 113.0,119.0 L 105.0,123.0 L 101.0,124.0 L 91.0,124.0 L 82.0,121.0 L 73.0,113.0 L 69.0,106.0 L 68.0,101.0 L 68.0,91.0 L 71.0,82.0 L 79.0,73.0 L 87.0,69.0 L 91.0,68.0" fill="#2497F3"/>
	<path d="M 89.0,60.0 L 102.0,60.0 L 111.0,63.0 L 119.0,68.0 L 124.0,73.0 L 130.0,82.0 L 132.0,90.0 L 132.0,102.0 L 129.0,111.0 L 124.0,119.0 L 117.0,126.0 L 109.0,130.0 L 101.0,132.0 L 90.0,132.0 L 80.0,129.0 L 72.0,123.0 L 65.0,115.0 L 61.0,106.0 L 60.0,102.0 L 60.0,89.0 L 64.0,79.0 L 68.0,73.0 L 75.0,66.0 L 85.0,61.0 L 89.0,60.0 M 91.0,68.0 L 82.0,71.0 L 73.0,79.0 L 69.0,87.0 L 68.0,91.0 L 68.0,101.0 L 71.0,110.0 L 79.0,119.0 L 86.0,123.0 L 91.0,124.0 L 101.0,124.0 L 111.0,120.0 L 119.0,113.0 L 123.0,105.0 L 124.0,101.0 L 124.0,89.0 L 119.0,79.0 L 110.0,71.0 L 101.0,68.0 L 91.0,68.0" fill="#FAFBF9"/>
	<path d="M 21.0,72.0 L 26.0,74.0 L 35.0,80.0 L 46.0,86.0 L 60.0,94.0 L 62.0,106.0 L 66.0,115.0 L 65.0,117.0 L 56.0,107.0 L 48.0,100.0 L 21.0,73.0 L 21.0,72.0" fill="#D53406"/>
	<path d="M 129.0,109.0 L 130.0,112.0 L 125.0,129.0 L 115.0,169.0 L 113.0,172.0 L 113.0,128.0 L 125.0,117.0 L 129.0,109.0" fill="#5A8E31"/>
	<path d="M 151.0,44.0 L 154.0,45.0 L 123.0,61.0 L 116.0,65.0 L 111.0,64.0 L 102.0,61.0 L 92.0,60.0 L 96.0,58.0 L 146.0,45.0 L 151.0,44.0" fill="#F8A425"/>
</svg>
