<?xml version="1.0" ?>
<svg baseProfile="full" height="600px" version="1.1" viewBox="-16.08 -16.08 192.16 192.16" width="600px" xmlns="http://www.w3.org/2000/svg" xmlns:ev="http://www.w3.org/2001/xml-events" xmlns:xlink="http://www.w3.org/1999/xlink">
	<defs/>
	<path d="M 0.0,0.0 L 160.0,0.0 L 160.0,160.0 L 0.0,160.0 L 0.0,0.0" fill="#8BB6EF"/>
	<path d="M 0.0,0.0 L 160.0,0.0 L 160.0,160.0 L 0.0,160.0 L 0.0,0.0 M 24.0,20.0 L 24.0,144.0 L 136.0,144.0 L 136.0,20.0 L 24.0,20.0" fill="#4E7AB5"/>
	<path d="M 35.0,20.0 L 136.0,20.0 L 136.0,121.0 L 134.0,121.0 L 134.0,119.0 L 132.0,119.0 L 132.0,117.0 L 130.0,117.0 L 130.0,115.0 L 128.0,115.0 L 128.0,113.0 L 126.0,113.0 L 126.0,111.0 L 124.0,111.0 L 124.0,109.0 L 122.0,109.0 L 122.0,107.0 L 120.0,107.0 L 120.0,105.0 L 118.0,105.0 L 118.0,103.0 L 116.0,103.0 L 116.0,101.0 L 114.0,101.0 L 114.0,99.0 L 112.0,99.0 L 112.0,97.0 L 110.0,97.0 L 110.0,95.0 L 108.0,95.0 L 108.0,93.0 L 106.0,93.0 L 106.0,91.0 L 104.0,91.0 L 104.0,89.0 L 102.0,89.0 L 101.0,87.0 L 96.0,88.0 L 80.0,98.0 L 65.0,108.0 L 64.0,108.0 L 64.0,53.0 L 62.0,53.0 L 62.0,51.0 L 60.0,51.0 L 60.0,49.0 L 58.0,49.0 L 57.0,47.0 L 55.0,45.0 L 53.0,43.0 L 51.0,41.0 L 49.0,39.0 L 47.0,37.0 L 45.0,35.0 L 43.0,33.0 L 41.0,31.0 L 39.0,29.0 L 37.0,27.0 L 35.0,25.0 L 33.0,21.0 L 35.0,20.0" fill="#8BB6EF"/>
	<path d="M 0.0,0.0 L 160.0,0.0 L 160.0,160.0 L 0.0,160.0 L 0.0,0.0 M 4.0,16.0 L 4.0,148.0 L 156.0,148.0 L 156.0,16.0 L 4.0,16.0" fill="#FDFEFE"/>
	<path d="M 35.0,20.0 L 52.0,20.0 L 51.0,24.0 L 53.0,25.0 L 55.0,27.0 L 57.0,29.0 L 59.0,31.0 L 61.0,33.0 L 63.0,35.0 L 65.0,37.0 L 67.0,39.0 L 69.0,41.0 L 71.0,43.0 L 73.0,45.0 L 75.0,47.0 L 77.0,49.0 L 79.0,51.0 L 81.0,53.0 L 83.0,55.0 L 85.0,57.0 L 87.0,59.0 L 89.0,61.0 L 91.0,63.0 L 93.0,65.0 L 95.0,67.0 L 97.0,69.0 L 99.0,71.0 L 101.0,73.0 L 103.0,75.0 L 105.0,77.0 L 107.0,79.0 L 109.0,81.0 L 111.0,83.0 L 113.0,85.0 L 115.0,87.0 L 117.0,89.0 L 119.0,91.0 L 121.0,93.0 L 123.0,95.0 L 125.0,97.0 L 127.0,99.0 L 129.0,101.0 L 131.0,103.0 L 133.0,105.0 L 135.0,107.0 L 136.0,108.0 L 136.0,121.0 L 134.0,121.0 L 134.0,119.0 L 132.0,119.0 L 132.0,117.0 L 130.0,117.0 L 130.0,115.0 L 128.0,115.0 L 128.0,113.0 L 126.0,113.0 L 126.0,111.0 L 124.0,111.0 L 124.0,109.0 L 122.0,109.0 L 122.0,107.0 L 120.0,107.0 L 120.0,105.0 L 118.0,105.0 L 118.0,103.0 L 116.0,103.0 L 116.0,101.0 L 114.0,101.0 L 114.0,99.0 L 112.0,99.0 L 112.0,97.0 L 110.0,97.0 L 110.0,95.0 L 108.0,95.0 L 108.0,93.0 L 106.0,93.0 L 106.0,91.0 L 104.0,91.0 L 104.0,89.0 L 102.0,89.0 L 101.0,87.0 L 96.0,88.0 L 80.0,98.0 L 65.0,108.0 L 64.0,108.0 L 64.0,53.0 L 62.0,53.0 L 62.0,51.0 L 60.0,51.0 L 60.0,49.0 L 58.0,49.0 L 57.0,47.0 L 55.0,45.0 L 53.0,43.0 L 51.0,41.0 L 49.0,39.0 L 47.0,37.0 L 45.0,35.0 L 43.0,33.0 L 41.0,31.0 L 39.0,29.0 L 37.0,27.0 L 35.0,25.0 L 33.0,21.0 L 35.0,20.0" fill="#8BB7EF"/>
	<path d="M 64.0,56.0 L 76.0,63.0 L 91.0,73.0 L 103.0,81.0 L 102.0,84.0 L 80.0,98.0 L 65.0,108.0 L 64.0,108.0 L 64.0,56.0" fill="#FCFDFE"/>
	<path d="M 140.0,132.0 L 152.0,132.0 L 152.0,144.0 L 140.0,144.0 L 140.0,132.0" fill="#FCFDFE"/>
	<path d="M 8.0,132.0 L 20.0,132.0 L 20.0,144.0 L 8.0,144.0 L 8.0,132.0" fill="#FCFDFE"/>
	<path d="M 140.0,116.0 L 152.0,116.0 L 152.0,128.0 L 140.0,128.0 L 140.0,116.0" fill="#FCFDFE"/>
	<path d="M 8.0,116.0 L 20.0,116.0 L 20.0,128.0 L 8.0,128.0 L 8.0,116.0" fill="#FCFDFE"/>
	<path d="M 140.0,100.0 L 152.0,100.0 L 152.0,112.0 L 140.0,112.0 L 140.0,100.0" fill="#FCFDFE"/>
	<path d="M 8.0,100.0 L 20.0,100.0 L 20.0,112.0 L 8.0,112.0 L 8.0,100.0" fill="#FCFDFE"/>
	<path d="M 140.0,84.0 L 152.0,84.0 L 152.0,96.0 L 140.0,96.0 L 140.0,84.0" fill="#FCFDFE"/>
	<path d="M 8.0,84.0 L 20.0,84.0 L 20.0,96.0 L 8.0,96.0 L 8.0,84.0" fill="#FCFDFE"/>
	<path d="M 140.0,68.0 L 152.0,68.0 L 152.0,80.0 L 140.0,80.0 L 140.0,68.0" fill="#FCFDFE"/>
	<path d="M 8.0,68.0 L 20.0,68.0 L 20.0,80.0 L 8.0,80.0 L 8.0,68.0" fill="#FCFDFE"/>
	<path d="M 140.0,52.0 L 152.0,52.0 L 152.0,64.0 L 140.0,64.0 L 140.0,52.0" fill="#FCFDFE"/>
	<path d="M 8.0,52.0 L 20.0,52.0 L 20.0,64.0 L 8.0,64.0 L 8.0,52.0" fill="#FCFDFE"/>
	<path d="M 140.0,36.0 L 152.0,36.0 L 152.0,48.0 L 140.0,48.0 L 140.0,36.0" fill="#FCFDFE"/>
	<path d="M 8.0,36.0 L 20.0,36.0 L 20.0,48.0 L 8.0,48.0 L 8.0,36.0" fill="#FCFDFE"/>
	<path d="M 140.0,20.0 L 152.0,20.0 L 152.0,32.0 L 140.0,32.0 L 140.0,20.0" fill="#FBFCFD"/>
	<path d="M 8.0,20.0 L 20.0,20.0 L 20.0,32.0 L 8.0,32.0 L 8.0,20.0" fill="#FBFCFD"/>
</svg>
