<?xml version="1.0" ?>
<svg baseProfile="full" height="600px" version="1.1" viewBox="-20.1 -20.1 240.2 240.2" width="600px" xmlns="http://www.w3.org/2000/svg" xmlns:ev="http://www.w3.org/2001/xml-events" xmlns:xlink="http://www.w3.org/1999/xlink">
	<defs/>
	<path d="M 0.0,0.0 L 200.0,0.0 L 200.0,200.0 L 0.0,200.0 L 0.0,0.0" fill="#020202"/>
	<path d="M 48.0,24.0 L 152.0,24.0 L 152.0,176.0 L 48.0,176.0 L 48.0,24.0" fill="#FDFDFD"/>
	<path d="M 0.0,0.0 L 200.0,0.0 L 200.0,200.0 L 0.0,200.0 L 0.0,0.0 M 16.0,16.0 L 16.0,184.0 L 184.0,184.0 L 184.0,16.0 L 16.0,16.0" fill="#FDFDFD"/>
	<path d="M 75.0,65.0 L 81.0,66.0 L 104.0,79.0 L 128.0,93.0 L 134.0,97.0 L 135.0,102.0 L 130.0,106.0 L 107.0,119.0 L 83.0,133.0 L 79.0,135.0 L 74.0,134.0 L 73.0,132.0 L 73.0,67.0 L 75.0,65.0" fill="#020202"/>
	<path d="M 160.0,158.0 L 176.0,158.0 L 176.0,170.0 L 160.0,170.0 L 160.0,158.0" fill="#F5F5F5"/>
	<path d="M 24.0,158.0 L 40.0,158.0 L 40.0,170.0 L 24.0,170.0 L 24.0,158.0" fill="#F6F6F6"/>
	<path d="M 160.0,138.0 L 176.0,138.0 L 176.0,150.0 L 160.0,150.0 L 160.0,138.0" fill="#F5F5F5"/>
	<path d="M 24.0,138.0 L 40.0,138.0 L 40.0,150.0 L 24.0,150.0 L 24.0,138.0" fill="#F6F6F6"/>
	<path d="M 160.0,118.0 L 176.0,118.0 L 176.0,130.0 L 160.0,130.0 L 160.0,118.0" fill="#F5F5F5"/>
	<path d="M 24.0,118.0 L 40.0,118.0 L 40.0,130.0 L 24.0,130.0 L 24.0,118.0" fill="#F6F6F6"/>
	<path d="M 160.0,98.0 L 176.0,98.0 L 176.0,110.0 L 160.0,110.0 L 160.0,98.0" fill="#F5F5F5"/>
	<path d="M 24.0,98.0 L 40.0,98.0 L 40.0,110.0 L 24.0,110.0 L 24.0,98.0" fill="#F6F6F6"/>
	<path d="M 160.0,78.0 L 176.0,78.0 L 176.0,90.0 L 160.0,90.0 L 160.0,78.0" fill="#F5F5F5"/>
	<path d="M 24.0,78.0 L 40.0,78.0 L 40.0,90.0 L 24.0,90.0 L 24.0,78.0" fill="#F6F6F6"/>
	<path d="M 160.0,58.0 L 176.0,58.0 L 176.0,70.0 L 160.0,70.0 L 160.0,58.0" fill="#F5F5F5"/>
	<path d="M 24.0,58.0 L 40.0,58.0 L 40.0,70.0 L 24.0,70.0 L 24.0,58.0" fill="#F6F6F6"/>
	<path d="M 160.0,38.0 L 176.0,38.0 L 176.0,50.0 L 160.0,50.0 L 160.0,38.0" fill="#F5F5F5"/>
	<path d="M 24.0,38.0 L 40.0,38.0 L 40.0,50.0 L 24.0,50.0 L 24.0,38.0" fill="#F6F6F6"/>
	<path d="M 160.0,24.0 L 176.0,24.0 L 176.0,30.0 L 160.0,30.0 L 160.0,24.0" fill="#EDEDED"/>
	<path d="M 24.0,24.0 L 40.0,24.0 L 40.0,30.0 L 24.0,30.0 L 24.0,24.0" fill="#EEEEEE"/>
</svg>
