<?xml version="1.0" ?>
<svg baseProfile="full" height="600px" version="1.1" viewBox="-20.1 -20.1 240.2 240.2" width="600px" xmlns="http://www.w3.org/2000/svg" xmlns:ev="http://www.w3.org/2001/xml-events" xmlns:xlink="http://www.w3.org/1999/xlink">
	<defs/>
	<path d="M 0.0,0.0 L 200.0,0.0 L 200.0,200.0 L 0.0,200.0 L 0.0,0.0" fill="#FDFDFD"/>
	<path d="M 158.0,76.0 L 169.0,76.0 L 178.0,80.0 L 185.0,87.0 L 188.0,94.0 L 188.0,105.0 L 184.0,114.0 L 177.0,121.0 L 169.0,124.0 L 158.0,124.0 L 150.0,120.0 L 142.0,111.0 L 140.0,105.0 L 140.0,94.0 L 144.0,86.0 L 151.0,79.0 L 158.0,76.0" fill="#070707"/>
	<path d="M 94.0,76.0 L 105.0,76.0 L 114.0,80.0 L 121.0,87.0 L 124.0,94.0 L 124.0,105.0 L 120.0,114.0 L 113.0,121.0 L 105.0,124.0 L 94.0,124.0 L 86.0,120.0 L 78.0,111.0 L 76.0,105.0 L 76.0,94.0 L 80.0,86.0 L 87.0,79.0 L 94.0,76.0" fill="#070707"/>
	<path d="M 30.0,76.0 L 41.0,76.0 L 50.0,80.0 L 57.0,87.0 L 60.0,94.0 L 60.0,105.0 L 56.0,114.0 L 49.0,121.0 L 41.0,124.0 L 30.0,124.0 L 22.0,120.0 L 14.0,111.0 L 12.0,105.0 L 12.0,94.0 L 16.0,86.0 L 23.0,79.0 L 30.0,76.0" fill="#070707"/>
	<path d="M 159.0,84.0 L 168.0,84.0 L 175.0,88.0 L 179.0,93.0 L 180.0,96.0 L 180.0,105.0 L 174.0,113.0 L 169.0,116.0 L 160.0,116.0 L 153.0,112.0 L 149.0,107.0 L 148.0,104.0 L 148.0,95.0 L 152.0,89.0 L 157.0,85.0 L 159.0,84.0" fill="#F8F8F8"/>
	<path d="M 95.0,84.0 L 104.0,84.0 L 111.0,88.0 L 115.0,93.0 L 116.0,96.0 L 116.0,105.0 L 110.0,113.0 L 105.0,116.0 L 96.0,116.0 L 89.0,112.0 L 85.0,107.0 L 84.0,104.0 L 84.0,95.0 L 88.0,89.0 L 93.0,85.0 L 95.0,84.0" fill="#F8F8F8"/>
	<path d="M 31.0,84.0 L 40.0,84.0 L 47.0,88.0 L 51.0,93.0 L 52.0,96.0 L 52.0,105.0 L 46.0,113.0 L 41.0,116.0 L 32.0,116.0 L 25.0,112.0 L 21.0,107.0 L 20.0,104.0 L 20.0,95.0 L 24.0,89.0 L 29.0,85.0 L 31.0,84.0" fill="#F8F8F8"/>
</svg>
