<?xml version="1.0" ?>
<svg baseProfile="full" height="600px" version="1.1" viewBox="-16.08 -16.08 192.16 192.16" width="600px" xmlns="http://www.w3.org/2000/svg" xmlns:ev="http://www.w3.org/2001/xml-events" xmlns:xlink="http://www.w3.org/1999/xlink">
	<defs/>
	<path d="M 0.0,0.0 L 160.0,0.0 L 160.0,160.0 L 0.0,160.0 L 0.0,0.0" fill="#FDFDFE"/>
	<path d="M 137.0,65.0 L 144.0,65.0 L 150.0,69.0 L 154.0,74.0 L 155.0,76.0 L 155.0,83.0 L 152.0,89.0 L 146.0,94.0 L 143.0,95.0 L 136.0,95.0 L 130.0,91.0 L 126.0,86.0 L 125.0,84.0 L 125.0,77.0 L 128.0,71.0 L 134.0,66.0 L 137.0,65.0" fill="#88B4ED"/>
	<path d="M 16.0,68.0 L 23.0,68.0 L 30.0,72.0 L 32.0,76.0 L 32.0,84.0 L 28.0,90.0 L 24.0,92.0 L 16.0,92.0 L 10.0,88.0 L 8.0,83.0 L 8.0,76.0 L 12.0,70.0 L 16.0,68.0" fill="#88B4ED"/>
	<path d="M 137.0,65.0 L 144.0,65.0 L 150.0,69.0 L 154.0,74.0 L 155.0,76.0 L 155.0,83.0 L 152.0,89.0 L 146.0,94.0 L 143.0,95.0 L 136.0,95.0 L 130.0,91.0 L 126.0,86.0 L 125.0,84.0 L 125.0,77.0 L 128.0,71.0 L 134.0,66.0 L 137.0,65.0 M 136.0,69.0 L 131.0,73.0 L 129.0,76.0 L 129.0,83.0 L 133.0,89.0 L 137.0,91.0 L 145.0,90.0 L 150.0,85.0 L 151.0,77.0 L 148.0,72.0 L 143.0,69.0 L 136.0,69.0" fill="#5B84BB"/>
	<path d="M 16.0,68.0 L 23.0,68.0 L 30.0,72.0 L 32.0,76.0 L 32.0,84.0 L 28.0,90.0 L 24.0,92.0 L 16.0,92.0 L 10.0,88.0 L 8.0,83.0 L 8.0,76.0 L 12.0,70.0 L 16.0,68.0 M 17.0,71.0 L 12.0,75.0 L 11.0,83.0 L 15.0,88.0 L 22.0,89.0 L 27.0,86.0 L 29.0,82.0 L 28.0,75.0 L 23.0,71.0 L 17.0,71.0" fill="#5882BA"/>
	<path d="M 78.0,74.0 L 84.0,75.0 L 86.0,78.0 L 85.0,84.0 L 82.0,86.0 L 76.0,85.0 L 74.0,82.0 L 75.0,77.0 L 78.0,74.0" fill="#6F94C5"/>
	<path d="M 78.0,76.0 L 83.0,77.0 L 84.0,82.0 L 82.0,84.0 L 77.0,83.0 L 76.0,78.0 L 78.0,76.0" fill="#88B4ED"/>
</svg>
