<?xml version="1.0" ?>
<svg baseProfile="full" height="600px" version="1.1" viewBox="-16.08 -16.08 192.16 192.16" width="600px" xmlns="http://www.w3.org/2000/svg" xmlns:ev="http://www.w3.org/2001/xml-events" xmlns:xlink="http://www.w3.org/1999/xlink">
	<defs/>
	<path d="M 0.0,0.0 L 160.0,0.0 L 160.0,160.0 L 0.0,160.0 L 0.0,0.0" fill="#AEBFD2"/>
	<path d="M 0.0,0.0 L 160.0,0.0 L 160.0,160.0 L 0.0,160.0 L 0.0,0.0 M 67.0,16.0 L 55.0,20.0 L 42.0,27.0 L 30.0,38.0 L 23.0,49.0 L 18.0,60.0 L 16.0,67.0 L 16.0,91.0 L 18.0,99.0 L 23.0,111.0 L 29.0,120.0 L 37.0,129.0 L 47.0,136.0 L 60.0,142.0 L 67.0,144.0 L 92.0,144.0 L 105.0,140.0 L 118.0,133.0 L 129.0,123.0 L 136.0,113.0 L 141.0,102.0 L 144.0,92.0 L 144.0,67.0 L 140.0,55.0 L 133.0,42.0 L 123.0,31.0 L 113.0,24.0 L 102.0,19.0 L 97.0,17.0 L 91.0,16.0 L 67.0,16.0" fill="#FCFDFD"/>
	<path d="M 67.0,16.0 L 91.0,16.0 L 99.0,18.0 L 111.0,23.0 L 120.0,29.0 L 129.0,37.0 L 136.0,47.0 L 142.0,60.0 L 144.0,67.0 L 144.0,92.0 L 140.0,105.0 L 133.0,118.0 L 123.0,129.0 L 113.0,136.0 L 102.0,141.0 L 92.0,144.0 L 67.0,144.0 L 55.0,140.0 L 42.0,133.0 L 31.0,123.0 L 24.0,113.0 L 19.0,102.0 L 17.0,97.0 L 16.0,91.0 L 16.0,67.0 L 20.0,55.0 L 27.0,42.0 L 37.0,31.0 L 47.0,24.0 L 60.0,18.0 L 67.0,16.0 M 72.0,19.0 L 59.0,22.0 L 44.0,30.0 L 33.0,40.0 L 26.0,51.0 L 21.0,62.0 L 19.0,72.0 L 19.0,89.0 L 24.0,105.0 L 31.0,117.0 L 39.0,126.0 L 49.0,133.0 L 60.0,138.0 L 75.0,141.0 L 88.0,141.0 L 100.0,138.0 L 116.0,130.0 L 126.0,121.0 L 133.0,111.0 L 138.0,100.0 L 141.0,86.0 L 141.0,75.0 L 139.0,63.0 L 134.0,51.0 L 128.0,42.0 L 122.0,35.0 L 114.0,29.0 L 100.0,22.0 L 94.0,20.0 L 85.0,19.0 L 72.0,19.0" fill="#6E8095"/>
</svg>
