<?xml version="1.0" ?>
<svg baseProfile="full" height="600px" version="1.1" viewBox="-19.296000000000003 -19.296000000000003 230.592 230.592" width="600px" xmlns="http://www.w3.org/2000/svg" xmlns:ev="http://www.w3.org/2001/xml-events" xmlns:xlink="http://www.w3.org/1999/xlink">
	<defs/>
	<path d="M 0.0,0.0 L 192.0,0.0 L 192.0,192.0 L 0.0,192.0 L 0.0,0.0" fill="#E6DBF3"/>
	<path d="M 0.0,0.0 L 192.0,0.0 L 192.0,192.0 L 0.0,192.0 L 0.0,0.0 M 86.0,16.0 L 70.0,20.0 L 58.0,25.0 L 45.0,34.0 L 36.0,42.0 L 26.0,56.0 L 21.0,67.0 L 17.0,81.0 L 16.0,88.0 L 16.0,105.0 L 19.0,120.0 L 24.0,132.0 L 33.0,146.0 L 38.0,152.0 L 40.0,152.0 L 40.0,154.0 L 54.0,165.0 L 69.0,172.0 L 84.0,176.0 L 106.0,176.0 L 119.0,173.0 L 132.0,168.0 L 142.0,162.0 L 155.0,151.0 L 164.0,139.0 L 171.0,125.0 L 175.0,113.0 L 176.0,106.0 L 176.0,87.0 L 173.0,72.0 L 168.0,60.0 L 161.0,48.0 L 154.0,41.0 L 149.0,36.0 L 142.0,30.0 L 130.0,23.0 L 120.0,19.0 L 105.0,16.0 L 86.0,16.0" fill="#FEFDFD"/>
	<path d="M 107.0,71.0 L 109.0,71.0 L 120.0,86.0 L 120.0,130.0 L 114.0,131.0 L 128.0,138.0 L 133.0,142.0 L 140.0,152.0 L 143.0,161.0 L 134.0,167.0 L 122.0,172.0 L 112.0,175.0 L 106.0,176.0 L 84.0,176.0 L 69.0,172.0 L 53.0,164.0 L 49.0,161.0 L 52.0,152.0 L 58.0,143.0 L 69.0,135.0 L 78.0,131.0 L 72.0,130.0 L 72.0,90.0 L 98.0,76.0 L 107.0,71.0" fill="#FDB64C"/>
	<path d="M 87.0,47.0 L 104.0,47.0 L 108.0,52.0 L 118.0,54.0 L 126.0,60.0 L 131.0,66.0 L 135.0,74.0 L 139.0,88.0 L 140.0,95.0 L 140.0,111.0 L 121.0,130.0 L 120.0,130.0 L 119.0,86.0 L 109.0,73.0 L 109.0,71.0 L 90.0,81.0 L 74.0,90.0 L 72.0,90.0 L 72.0,130.0 L 63.0,124.0 L 52.0,115.0 L 52.0,99.0 L 56.0,78.0 L 61.0,66.0 L 68.0,57.0 L 76.0,51.0 L 87.0,47.0" fill="#FEF7C3"/>
	<path d="M 78.0,131.0 L 82.0,131.0 L 87.0,145.0 L 93.0,150.0 L 101.0,149.0 L 106.0,143.0 L 110.0,131.0 L 117.0,132.0 L 128.0,138.0 L 133.0,142.0 L 140.0,152.0 L 143.0,161.0 L 134.0,167.0 L 122.0,172.0 L 112.0,175.0 L 106.0,176.0 L 84.0,176.0 L 69.0,172.0 L 53.0,164.0 L 49.0,161.0 L 52.0,152.0 L 58.0,143.0 L 69.0,135.0 L 78.0,131.0" fill="#FE1A46"/>
	<path d="M 72.0,110.0 L 79.0,116.0 L 87.0,121.0 L 91.0,122.0 L 100.0,122.0 L 111.0,118.0 L 117.0,113.0 L 120.0,110.0 L 120.0,130.0 L 110.0,130.0 L 109.0,138.0 L 105.0,146.0 L 101.0,150.0 L 93.0,151.0 L 86.0,145.0 L 82.0,135.0 L 82.0,130.0 L 72.0,130.0 L 72.0,110.0" fill="#FE9802"/>
	<path d="M 82.0,131.0 L 86.0,136.0 L 92.0,141.0 L 99.0,142.0 L 106.0,136.0 L 108.0,133.0 L 110.0,133.0 L 107.0,143.0 L 101.0,150.0 L 93.0,151.0 L 86.0,145.0 L 82.0,135.0 L 82.0,131.0" fill="#FDB14A"/>
	<path d="M 72.0,110.0 L 79.0,116.0 L 82.0,119.0 L 82.0,130.0 L 72.0,130.0 L 72.0,110.0" fill="#CD9823"/>
	<path d="M 119.0,110.0 L 120.0,110.0 L 120.0,130.0 L 110.0,130.0 L 110.0,119.0 L 117.0,113.0 L 119.0,110.0" fill="#CC9721"/>
	<path d="M 106.0,91.0 L 111.0,92.0 L 112.0,97.0 L 110.0,99.0 L 105.0,98.0 L 104.0,93.0 L 106.0,91.0" fill="#7F4C1B"/>
	<path d="M 82.0,91.0 L 87.0,92.0 L 88.0,97.0 L 86.0,99.0 L 81.0,98.0 L 80.0,93.0 L 82.0,91.0" fill="#7F4C1B"/>
</svg>
