<?xml version="1.0" ?>
<svg baseProfile="full" height="600px" version="1.1" viewBox="-12.06 -12.06 144.12 144.12" width="600px" xmlns="http://www.w3.org/2000/svg" xmlns:ev="http://www.w3.org/2001/xml-events" xmlns:xlink="http://www.w3.org/1999/xlink">
	<defs/>
	<path d="M 0.0,0.0 L 120.0,0.0 L 120.0,120.0 L 0.0,120.0 L 0.0,0.0" fill="#FDFDFD"/>
	<path d="M 96.0,48.0 L 103.0,48.0 L 108.0,51.0 L 112.0,56.0 L 112.0,63.0 L 109.0,68.0 L 106.0,71.0 L 103.0,72.0 L 96.0,72.0 L 89.0,66.0 L 88.0,63.0 L 88.0,56.0 L 94.0,49.0 L 96.0,48.0" fill="#070707"/>
	<path d="M 56.0,51.0 L 64.0,51.0 L 69.0,56.0 L 69.0,64.0 L 64.0,69.0 L 56.0,69.0 L 51.0,64.0 L 51.0,56.0 L 56.0,51.0" fill="#080808"/>
	<path d="M 18.0,57.0 L 23.0,58.0 L 22.0,63.0 L 17.0,62.0 L 18.0,57.0" fill="#0A0A0A"/>
</svg>
