<?xml version="1.0" ?>
<svg baseProfile="full" height="600px" version="1.1" viewBox="-16.08 -16.08 192.16 192.16" width="600px" xmlns="http://www.w3.org/2000/svg" xmlns:ev="http://www.w3.org/2001/xml-events" xmlns:xlink="http://www.w3.org/1999/xlink">
	<defs/>
	<path d="M 0.0,0.0 L 160.0,0.0 L 160.0,160.0 L 0.0,160.0 L 0.0,0.0" fill="#FDFDFE"/>
	<path d="M 28.0,64.0 L 37.0,64.0 L 43.0,67.0 L 48.0,73.0 L 49.0,75.0 L 49.0,84.0 L 46.0,90.0 L 40.0,95.0 L 38.0,96.0 L 28.0,96.0 L 20.0,90.0 L 17.0,84.0 L 17.0,76.0 L 21.0,69.0 L 26.0,65.0 L 28.0,64.0" fill="#88B4ED"/>
	<path d="M 132.0,81.0 L 143.0,81.0 L 149.0,85.0 L 153.0,90.0 L 154.0,92.0 L 154.0,100.0 L 150.0,108.0 L 144.0,112.0 L 141.0,113.0 L 134.0,113.0 L 126.0,108.0 L 122.0,101.0 L 122.0,92.0 L 126.0,85.0 L 132.0,81.0" fill="#88B4ED"/>
	<path d="M 83.0,64.0 L 91.0,64.0 L 99.0,68.0 L 103.0,74.0 L 103.0,86.0 L 98.0,93.0 L 91.0,96.0 L 83.0,96.0 L 75.0,91.0 L 72.0,85.0 L 72.0,74.0 L 76.0,68.0 L 83.0,64.0" fill="#88B4ED"/>
	<path d="M 132.0,81.0 L 143.0,81.0 L 149.0,85.0 L 153.0,90.0 L 154.0,92.0 L 154.0,100.0 L 150.0,108.0 L 144.0,112.0 L 141.0,113.0 L 134.0,113.0 L 126.0,108.0 L 122.0,101.0 L 122.0,92.0 L 126.0,85.0 L 132.0,81.0 M 134.0,85.0 L 128.0,89.0 L 126.0,93.0 L 126.0,100.0 L 130.0,106.0 L 133.0,108.0 L 143.0,108.0 L 148.0,104.0 L 150.0,99.0 L 150.0,93.0 L 146.0,87.0 L 142.0,85.0 L 134.0,85.0" fill="#5681B9"/>
	<path d="M 28.0,64.0 L 37.0,64.0 L 43.0,67.0 L 48.0,73.0 L 49.0,75.0 L 49.0,84.0 L 46.0,90.0 L 40.0,95.0 L 38.0,96.0 L 28.0,96.0 L 20.0,90.0 L 17.0,84.0 L 17.0,76.0 L 21.0,69.0 L 26.0,65.0 L 28.0,64.0 M 29.0,68.0 L 23.0,73.0 L 21.0,78.0 L 22.0,85.0 L 27.0,91.0 L 30.0,92.0 L 37.0,92.0 L 42.0,89.0 L 45.0,84.0 L 45.0,76.0 L 39.0,69.0 L 36.0,68.0 L 29.0,68.0" fill="#5680B9"/>
	<path d="M 83.0,64.0 L 91.0,64.0 L 99.0,68.0 L 103.0,74.0 L 103.0,86.0 L 98.0,93.0 L 91.0,96.0 L 83.0,96.0 L 75.0,91.0 L 72.0,85.0 L 72.0,74.0 L 76.0,68.0 L 83.0,64.0 M 85.0,68.0 L 79.0,71.0 L 76.0,75.0 L 76.0,84.0 L 80.0,90.0 L 84.0,92.0 L 93.0,91.0 L 98.0,87.0 L 99.0,85.0 L 99.0,75.0 L 95.0,70.0 L 90.0,68.0 L 85.0,68.0" fill="#5580B9"/>
</svg>
