<?xml version="1.0" ?>
<svg baseProfile="full" height="600px" version="1.1" viewBox="-20.1 -20.1 240.2 240.2" width="600px" xmlns="http://www.w3.org/2000/svg" xmlns:ev="http://www.w3.org/2001/xml-events" xmlns:xlink="http://www.w3.org/1999/xlink">
	<defs/>
	<path d="M 0.0,0.0 L 200.0,0.0 L 200.0,200.0 L 0.0,200.0 L 0.0,0.0" fill="#FDFDFD"/>
	<path d="M 95.0,77.0 L 105.0,77.0 L 115.0,82.0 L 121.0,90.0 L 123.0,95.0 L 123.0,105.0 L 118.0,115.0 L 110.0,121.0 L 105.0,123.0 L 95.0,123.0 L 85.0,118.0 L 79.0,110.0 L 77.0,105.0 L 77.0,95.0 L 82.0,85.0 L 90.0,79.0 L 95.0,77.0" fill="#090909"/>
	<path d="M 159.0,79.0 L 169.0,79.0 L 177.0,83.0 L 183.0,90.0 L 185.0,95.0 L 185.0,105.0 L 181.0,113.0 L 174.0,119.0 L 169.0,121.0 L 159.0,121.0 L 151.0,117.0 L 145.0,110.0 L 143.0,105.0 L 143.0,95.0 L 147.0,87.0 L 154.0,81.0 L 159.0,79.0" fill="#090909"/>
	<path d="M 95.0,85.0 L 104.0,85.0 L 110.0,88.0 L 114.0,93.0 L 115.0,95.0 L 115.0,104.0 L 112.0,110.0 L 107.0,114.0 L 104.0,115.0 L 95.0,115.0 L 89.0,111.0 L 86.0,107.0 L 85.0,104.0 L 85.0,95.0 L 89.0,89.0 L 95.0,85.0" fill="#F9F9F9"/>
	<path d="M 160.0,86.0 L 167.0,86.0 L 173.0,89.0 L 177.0,94.0 L 178.0,96.0 L 178.0,103.0 L 175.0,109.0 L 170.0,113.0 L 167.0,114.0 L 160.0,114.0 L 154.0,110.0 L 151.0,106.0 L 150.0,103.0 L 150.0,96.0 L 154.0,90.0 L 160.0,86.0" fill="#F8F8F8"/>
	<path d="M 32.0,92.0 L 40.0,92.0 L 44.0,96.0 L 45.0,102.0 L 42.0,107.0 L 38.0,109.0 L 32.0,108.0 L 28.0,104.0 L 28.0,96.0 L 32.0,92.0" fill="#1F1F1F"/>
	<path d="M 33.0,95.0 L 39.0,95.0 L 42.0,98.0 L 41.0,103.0 L 39.0,105.0 L 33.0,105.0 L 31.0,103.0 L 31.0,97.0 L 33.0,95.0" fill="#F8F8F8"/>
	<path d="M 32.0,92.0 L 38.0,94.0 L 38.0,95.0 L 28.0,98.0 L 30.0,94.0 L 32.0,92.0" fill="#272727"/>
</svg>
