<?xml version="1.0" ?>
<svg baseProfile="full" height="600px" version="1.1" viewBox="-12.06 -12.06 144.12 144.12" width="600px" xmlns="http://www.w3.org/2000/svg" xmlns:ev="http://www.w3.org/2001/xml-events" xmlns:xlink="http://www.w3.org/1999/xlink">
	<defs/>
	<path d="M 0.0,0.0 L 120.0,0.0 L 120.0,120.0 L 0.0,120.0 L 0.0,0.0" fill="#FDFDFD"/>
	<path d="M 21.0,61.0 L 28.0,61.0 L 34.0,65.0 L 37.0,70.0 L 37.0,76.0 L 33.0,82.0 L 28.0,85.0 L 20.0,85.0 L 15.0,81.0 L 13.0,77.0 L 13.0,68.0 L 17.0,63.0 L 21.0,61.0" fill="#060606"/>
	<path d="M 96.0,48.0 L 103.0,48.0 L 109.0,51.0 L 112.0,56.0 L 112.0,63.0 L 109.0,69.0 L 103.0,72.0 L 96.0,72.0 L 91.0,69.0 L 88.0,63.0 L 88.0,56.0 L 91.0,51.0 L 96.0,48.0" fill="#050505"/>
	<path d="M 51.0,37.0 L 61.0,37.0 L 67.0,42.0 L 68.0,44.0 L 68.0,53.0 L 63.0,59.0 L 61.0,60.0 L 51.0,60.0 L 46.0,56.0 L 44.0,51.0 L 44.0,45.0 L 48.0,39.0 L 51.0,37.0" fill="#050505"/>
</svg>
