<?xml version="1.0" ?>
<svg baseProfile="full" height="600px" version="1.1" viewBox="-12.864 -12.864 153.728 153.728" width="600px" xmlns="http://www.w3.org/2000/svg" xmlns:ev="http://www.w3.org/2001/xml-events" xmlns:xlink="http://www.w3.org/1999/xlink">
	<defs/>
	<path d="M 0.0,0.0 L 128.0,0.0 L 128.0,128.0 L 0.0,128.0 L 0.0,0.0" fill="#FDFDFD"/>
	<path d="M 60.0,52.0 L 67.0,52.0 L 73.0,55.0 L 76.0,60.0 L 76.0,67.0 L 73.0,73.0 L 67.0,76.0 L 60.0,76.0 L 53.0,70.0 L 52.0,67.0 L 52.0,60.0 L 55.0,55.0 L 60.0,52.0" fill="#060606"/>
	<path d="M 102.0,56.0 L 108.0,57.0 L 112.0,61.0 L 111.0,68.0 L 106.0,72.0 L 101.0,72.0 L 96.0,66.0 L 97.0,60.0 L 102.0,56.0" fill="#262626"/>
	<path d="M 20.0,57.0 L 28.0,57.0 L 31.0,60.0 L 31.0,68.0 L 28.0,71.0 L 20.0,71.0 L 17.0,68.0 L 17.0,60.0 L 20.0,57.0" fill="#202020"/>
	<path d="M 62.0,60.0 L 67.0,61.0 L 68.0,66.0 L 66.0,68.0 L 61.0,67.0 L 60.0,62.0 L 62.0,60.0" fill="#EAEAEA"/>
</svg>
