<?xml version="1.0" ?>
<svg baseProfile="full" height="600px" version="1.1" viewBox="-12.06 -12.06 144.12 144.12" width="600px" xmlns="http://www.w3.org/2000/svg" xmlns:ev="http://www.w3.org/2001/xml-events" xmlns:xlink="http://www.w3.org/1999/xlink">
	<defs/>
	<path d="M 0.0,0.0 L 120.0,0.0 L 120.0,120.0 L 0.0,120.0 L 0.0,0.0" fill="#FDFDFD"/>
	<path d="M 56.0,49.0 L 64.0,49.0 L 70.0,54.0 L 71.0,56.0 L 71.0,64.0 L 66.0,70.0 L 63.0,71.0 L 56.0,71.0 L 50.0,66.0 L 49.0,64.0 L 49.0,56.0 L 54.0,50.0 L 56.0,49.0" fill="#040404"/>
	<path d="M 95.0,50.0 L 104.0,50.0 L 110.0,55.0 L 110.0,64.0 L 106.0,69.0 L 104.0,70.0 L 95.0,70.0 L 90.0,64.0 L 90.0,55.0 L 95.0,50.0" fill="#030303"/>
	<path d="M 18.0,56.0 L 23.0,57.0 L 24.0,62.0 L 22.0,64.0 L 17.0,63.0 L 16.0,58.0 L 18.0,56.0" fill="#060606"/>
</svg>
