<?xml version="1.0" ?>
<svg baseProfile="full" height="600px" version="1.1" viewBox="-16.08 -16.08 192.16 192.16" width="600px" xmlns="http://www.w3.org/2000/svg" xmlns:ev="http://www.w3.org/2001/xml-events" xmlns:xlink="http://www.w3.org/1999/xlink">
	<defs/>
	<path d="M 0.0,0.0 L 160.0,0.0 L 160.0,160.0 L 0.0,160.0 L 0.0,0.0" fill="#FDFDFE"/>
	<path d="M 120.0,64.0 L 129.0,64.0 L 135.0,67.0 L 140.0,73.0 L 141.0,75.0 L 141.0,85.0 L 137.0,91.0 L 132.0,95.0 L 130.0,96.0 L 120.0,96.0 L 114.0,92.0 L 110.0,87.0 L 109.0,84.0 L 109.0,75.0 L 113.0,69.0 L 118.0,65.0 L 120.0,64.0" fill="#88B4ED"/>
	<path d="M 60.0,64.0 L 69.0,64.0 L 75.0,67.0 L 80.0,73.0 L 81.0,75.0 L 81.0,85.0 L 77.0,91.0 L 72.0,95.0 L 70.0,96.0 L 60.0,96.0 L 54.0,92.0 L 50.0,87.0 L 49.0,84.0 L 49.0,75.0 L 53.0,69.0 L 58.0,65.0 L 60.0,64.0" fill="#88B4ED"/>
	<path d="M 46.0,33.0 L 58.0,33.0 L 66.0,37.0 L 69.0,42.0 L 68.0,48.0 L 63.0,53.0 L 59.0,55.0 L 46.0,55.0 L 39.0,51.0 L 37.0,48.0 L 37.0,40.0 L 42.0,35.0 L 46.0,33.0" fill="#88B4ED"/>
	<path d="M 120.0,64.0 L 129.0,64.0 L 135.0,67.0 L 140.0,73.0 L 141.0,75.0 L 141.0,85.0 L 137.0,91.0 L 132.0,95.0 L 130.0,96.0 L 120.0,96.0 L 114.0,92.0 L 110.0,87.0 L 109.0,84.0 L 109.0,75.0 L 113.0,69.0 L 118.0,65.0 L 120.0,64.0 M 121.0,68.0 L 114.0,74.0 L 113.0,76.0 L 113.0,83.0 L 116.0,88.0 L 121.0,92.0 L 129.0,92.0 L 136.0,86.0 L 137.0,84.0 L 136.0,74.0 L 131.0,69.0 L 128.0,68.0 L 121.0,68.0" fill="#5781B9"/>
	<path d="M 60.0,64.0 L 69.0,64.0 L 75.0,67.0 L 80.0,73.0 L 81.0,75.0 L 81.0,85.0 L 77.0,91.0 L 72.0,95.0 L 70.0,96.0 L 60.0,96.0 L 54.0,92.0 L 50.0,87.0 L 49.0,84.0 L 49.0,75.0 L 53.0,69.0 L 58.0,65.0 L 60.0,64.0 M 61.0,68.0 L 54.0,74.0 L 53.0,76.0 L 53.0,83.0 L 56.0,88.0 L 61.0,92.0 L 69.0,92.0 L 76.0,86.0 L 77.0,84.0 L 76.0,74.0 L 71.0,69.0 L 68.0,68.0 L 61.0,68.0" fill="#5781B9"/>
	<path d="M 46.0,33.0 L 58.0,33.0 L 66.0,37.0 L 69.0,42.0 L 68.0,48.0 L 63.0,53.0 L 59.0,55.0 L 46.0,55.0 L 39.0,51.0 L 37.0,48.0 L 37.0,40.0 L 42.0,35.0 L 46.0,33.0 M 47.0,36.0 L 42.0,39.0 L 41.0,41.0 L 41.0,47.0 L 47.0,52.0 L 57.0,52.0 L 63.0,49.0 L 64.0,47.0 L 64.0,41.0 L 60.0,37.0 L 58.0,36.0 L 47.0,36.0" fill="#5882BB"/>
</svg>
