<?xml version="1.0" ?>
<svg baseProfile="full" height="600px" version="1.1" viewBox="-9.648000000000001 -9.648000000000001 115.296 115.296" width="600px" xmlns="http://www.w3.org/2000/svg" xmlns:ev="http://www.w3.org/2001/xml-events" xmlns:xlink="http://www.w3.org/1999/xlink">
	<defs/>
	<path d="M 0.0,0.0 L 96.0,0.0 L 96.0,96.0 L 0.0,96.0 L 0.0,0.0" fill="#FCFCFC"/>
	<path d="M 56.0,36.0 L 63.0,36.0 L 69.0,39.0 L 72.0,44.0 L 72.0,51.0 L 69.0,57.0 L 63.0,60.0 L 56.0,60.0 L 49.0,54.0 L 48.0,51.0 L 48.0,44.0 L 54.0,37.0 L 56.0,36.0" fill="#050505"/>
	<path d="M 24.0,36.0 L 31.0,36.0 L 37.0,39.0 L 40.0,44.0 L 40.0,51.0 L 37.0,57.0 L 31.0,60.0 L 24.0,60.0 L 17.0,54.0 L 16.0,51.0 L 16.0,44.0 L 22.0,37.0 L 24.0,36.0" fill="#050505"/>
	<path d="M 52.0,14.0 L 59.0,14.0 L 66.0,18.0 L 68.0,21.0 L 67.0,28.0 L 63.0,32.0 L 61.0,33.0 L 50.0,33.0 L 45.0,29.0 L 44.0,27.0 L 44.0,20.0 L 50.0,15.0 L 52.0,14.0" fill="#070707"/>
</svg>
