<?xml version="1.0" ?>
<svg baseProfile="full" height="600px" version="1.1" viewBox="-19.296000000000003 -19.296000000000003 230.592 230.592" width="600px" xmlns="http://www.w3.org/2000/svg" xmlns:ev="http://www.w3.org/2001/xml-events" xmlns:xlink="http://www.w3.org/1999/xlink">
	<defs/>
	<path d="M 0.0,0.0 L 192.0,0.0 L 192.0,192.0 L 0.0,192.0 L 0.0,0.0" fill="#FEFDFE"/>
	<path d="M 87.0,36.0 L 104.0,36.0 L 108.0,41.0 L 119.0,44.0 L 125.0,48.0 L 131.0,55.0 L 135.0,63.0 L 139.0,77.0 L 140.0,85.0 L 140.0,101.0 L 123.0,118.0 L 121.0,118.0 L 121.0,120.0 L 126.0,122.0 L 134.0,129.0 L 140.0,137.0 L 143.0,144.0 L 144.0,149.0 L 144.0,160.0 L 139.0,164.0 L 125.0,171.0 L 117.0,174.0 L 106.0,176.0 L 84.0,176.0 L 69.0,172.0 L 53.0,164.0 L 48.0,160.0 L 48.0,148.0 L 52.0,137.0 L 56.0,131.0 L 60.0,126.0 L 69.0,120.0 L 71.0,120.0 L 66.0,115.0 L 53.0,105.0 L 52.0,104.0 L 52.0,90.0 L 54.0,74.0 L 59.0,59.0 L 66.0,48.0 L 74.0,41.0 L 83.0,37.0 L 87.0,36.0" fill="#FE1945"/>
	<path d="M 86.0,16.0 L 105.0,16.0 L 120.0,19.0 L 134.0,25.0 L 146.0,33.0 L 154.0,40.0 L 162.0,50.0 L 168.0,60.0 L 173.0,72.0 L 176.0,87.0 L 176.0,106.0 L 172.0,122.0 L 167.0,135.0 L 155.0,151.0 L 145.0,160.0 L 144.0,160.0 L 142.0,144.0 L 136.0,132.0 L 128.0,124.0 L 121.0,120.0 L 121.0,118.0 L 129.0,111.0 L 139.0,101.0 L 139.0,85.0 L 137.0,73.0 L 132.0,58.0 L 126.0,50.0 L 121.0,46.0 L 113.0,43.0 L 107.0,41.0 L 104.0,37.0 L 87.0,37.0 L 76.0,41.0 L 67.0,48.0 L 60.0,59.0 L 55.0,74.0 L 53.0,90.0 L 53.0,104.0 L 71.0,118.0 L 71.0,120.0 L 60.0,127.0 L 54.0,135.0 L 50.0,144.0 L 48.0,160.0 L 40.0,154.0 L 40.0,152.0 L 38.0,152.0 L 30.0,142.0 L 24.0,133.0 L 18.0,117.0 L 16.0,107.0 L 16.0,86.0 L 20.0,70.0 L 24.0,60.0 L 30.0,50.0 L 37.0,41.0 L 46.0,33.0 L 52.0,28.0 L 67.0,21.0 L 76.0,18.0 L 86.0,16.0" fill="#ECE6F4"/>
	<path d="M 87.0,36.0 L 104.0,36.0 L 108.0,41.0 L 119.0,44.0 L 125.0,48.0 L 131.0,55.0 L 135.0,63.0 L 139.0,77.0 L 140.0,85.0 L 140.0,101.0 L 123.0,118.0 L 121.0,118.0 L 120.0,120.0 L 110.0,116.0 L 110.0,108.0 L 117.0,102.0 L 119.0,99.0 L 119.0,75.0 L 109.0,62.0 L 109.0,60.0 L 95.0,67.0 L 74.0,79.0 L 72.0,79.0 L 73.0,99.0 L 78.0,105.0 L 82.0,108.0 L 82.0,116.0 L 71.0,119.0 L 53.0,105.0 L 52.0,104.0 L 52.0,90.0 L 54.0,74.0 L 59.0,59.0 L 66.0,48.0 L 74.0,41.0 L 83.0,37.0 L 87.0,36.0" fill="#6F4E43"/>
	<path d="M 106.0,60.0 L 109.0,60.0 L 120.0,75.0 L 120.0,99.0 L 114.0,106.0 L 111.0,108.0 L 109.0,122.0 L 105.0,131.0 L 100.0,136.0 L 92.0,136.0 L 85.0,128.0 L 82.0,119.0 L 81.0,108.0 L 74.0,102.0 L 72.0,99.0 L 72.0,79.0 L 101.0,63.0 L 106.0,60.0" fill="#E1832D"/>
	<path d="M 82.0,108.0 L 90.0,111.0 L 101.0,111.0 L 110.0,108.0 L 110.0,118.0 L 106.0,130.0 L 100.0,136.0 L 92.0,136.0 L 85.0,128.0 L 82.0,119.0 L 82.0,108.0" fill="#C26E15"/>
	<path d="M 82.0,117.0 L 87.0,122.0 L 93.0,127.0 L 100.0,126.0 L 106.0,121.0 L 109.0,118.0 L 108.0,125.0 L 105.0,131.0 L 100.0,136.0 L 92.0,136.0 L 85.0,128.0 L 82.0,119.0 L 82.0,117.0" fill="#E3802D"/>
	<path d="M 119.0,99.0 L 120.0,99.0 L 120.0,118.0 L 113.0,117.0 L 110.0,116.0 L 110.0,108.0 L 117.0,102.0 L 119.0,99.0" fill="#51342E"/>
	<path d="M 72.0,99.0 L 77.0,104.0 L 82.0,108.0 L 82.0,116.0 L 72.0,119.0 L 72.0,99.0" fill="#50352E"/>
	<path d="M 106.0,79.0 L 111.0,80.0 L 112.0,85.0 L 111.0,87.0 L 105.0,87.0 L 104.0,81.0 L 106.0,79.0" fill="#332A22"/>
	<path d="M 82.0,79.0 L 87.0,80.0 L 88.0,85.0 L 87.0,87.0 L 81.0,87.0 L 80.0,81.0 L 82.0,79.0" fill="#332A22"/>
</svg>
