<?xml version="1.0" ?>
<svg baseProfile="full" height="600px" version="1.1" viewBox="-19.296000000000003 -19.296000000000003 230.592 230.592" width="600px" xmlns="http://www.w3.org/2000/svg" xmlns:ev="http://www.w3.org/2001/xml-events" xmlns:xlink="http://www.w3.org/1999/xlink">
	<defs/>
	<path d="M 0.0,0.0 L 192.0,0.0 L 192.0,192.0 L 0.0,192.0 L 0.0,0.0" fill="#FEFEFE"/>
	<path d="M 23.0,77.0 L 33.0,77.0 L 41.0,82.0 L 45.0,87.0 L 47.0,91.0 L 47.0,101.0 L 42.0,109.0 L 37.0,113.0 L 33.0,115.0 L 23.0,115.0 L 15.0,110.0 L 11.0,105.0 L 9.0,101.0 L 9.0,91.0 L 14.0,83.0 L 19.0,79.0 L 23.0,77.0" fill="#627F8D"/>
	<path d="M 162.0,87.0 L 168.0,88.0 L 172.0,92.0 L 173.0,98.0 L 170.0,103.0 L 166.0,105.0 L 160.0,104.0 L 156.0,100.0 L 155.0,94.0 L 158.0,89.0 L 162.0,87.0" fill="#688390"/>
	<path d="M 94.0,87.0 L 100.0,88.0 L 104.0,92.0 L 105.0,98.0 L 102.0,103.0 L 98.0,105.0 L 92.0,104.0 L 88.0,100.0 L 87.0,94.0 L 90.0,89.0 L 94.0,87.0" fill="#688390"/>
</svg>
