<?xml version="1.0" ?>
<svg baseProfile="full" height="600px" version="1.1" viewBox="-20.1 -20.1 240.2 240.2" width="600px" xmlns="http://www.w3.org/2000/svg" xmlns:ev="http://www.w3.org/2001/xml-events" xmlns:xlink="http://www.w3.org/1999/xlink">
	<defs/>
	<path d="M 0.0,0.0 L 200.0,0.0 L 200.0,200.0 L 0.0,200.0 L 0.0,0.0" fill="#FDFDFD"/>
	<path d="M 128.0,45.0 L 141.0,45.0 L 150.0,49.0 L 157.0,57.0 L 159.0,62.0 L 159.0,75.0 L 155.0,83.0 L 147.0,90.0 L 140.0,93.0 L 130.0,93.0 L 120.0,88.0 L 114.0,81.0 L 111.0,74.0 L 111.0,63.0 L 115.0,55.0 L 120.0,50.0 L 128.0,45.0" fill="#090909"/>
	<path d="M 91.0,129.0 L 101.0,129.0 L 113.0,135.0 L 119.0,144.0 L 120.0,146.0 L 120.0,159.0 L 117.0,166.0 L 111.0,173.0 L 103.0,177.0 L 90.0,177.0 L 82.0,173.0 L 75.0,165.0 L 72.0,158.0 L 72.0,150.0 L 75.0,141.0 L 81.0,134.0 L 91.0,129.0" fill="#090909"/>
	<path d="M 74.0,44.0 L 85.0,44.0 L 94.0,48.0 L 102.0,57.0 L 104.0,63.0 L 104.0,73.0 L 99.0,83.0 L 92.0,89.0 L 85.0,92.0 L 74.0,92.0 L 66.0,88.0 L 61.0,83.0 L 58.0,79.0 L 56.0,74.0 L 56.0,62.0 L 61.0,52.0 L 69.0,46.0 L 74.0,44.0" fill="#070707"/>
	<path d="M 75.0,52.0 L 84.0,52.0 L 92.0,57.0 L 96.0,64.0 L 96.0,71.0 L 92.0,79.0 L 86.0,83.0 L 83.0,84.0 L 75.0,84.0 L 69.0,80.0 L 65.0,75.0 L 64.0,73.0 L 64.0,63.0 L 68.0,57.0 L 73.0,53.0 L 75.0,52.0" fill="#F8F8F8"/>
	<path d="M 130.0,53.0 L 140.0,53.0 L 147.0,57.0 L 151.0,64.0 L 151.0,74.0 L 145.0,82.0 L 138.0,85.0 L 129.0,84.0 L 121.0,77.0 L 119.0,73.0 L 119.0,65.0 L 122.0,59.0 L 128.0,54.0 L 130.0,53.0" fill="#F9F9F9"/>
	<path d="M 93.0,137.0 L 102.0,138.0 L 108.0,142.0 L 112.0,148.0 L 112.0,158.0 L 108.0,165.0 L 100.0,169.0 L 91.0,169.0 L 85.0,165.0 L 81.0,159.0 L 81.0,147.0 L 88.0,139.0 L 93.0,137.0" fill="#FAFAFA"/>
</svg>
