<?xml version="1.0" ?>
<svg baseProfile="full" height="600px" version="1.1" viewBox="-12.864 -12.864 153.728 153.728" width="600px" xmlns="http://www.w3.org/2000/svg" xmlns:ev="http://www.w3.org/2001/xml-events" xmlns:xlink="http://www.w3.org/1999/xlink">
	<defs/>
	<path d="M 0.0,0.0 L 128.0,0.0 L 128.0,128.0 L 0.0,128.0 L 0.0,0.0" fill="#FDFDFD"/>
	<path d="M 89.0,52.0 L 97.0,52.0 L 104.0,58.0 L 105.0,60.0 L 105.0,67.0 L 102.0,72.0 L 99.0,75.0 L 96.0,76.0 L 89.0,76.0 L 83.0,72.0 L 81.0,68.0 L 81.0,60.0 L 85.0,54.0 L 89.0,52.0" fill="#080808"/>
	<path d="M 52.0,80.0 L 59.0,80.0 L 64.0,83.0 L 68.0,88.0 L 68.0,95.0 L 65.0,100.0 L 62.0,103.0 L 59.0,104.0 L 52.0,104.0 L 47.0,101.0 L 44.0,95.0 L 44.0,88.0 L 48.0,82.0 L 52.0,80.0" fill="#060606"/>
	<path d="M 53.0,52.0 L 62.0,52.0 L 68.0,57.0 L 69.0,59.0 L 69.0,69.0 L 65.0,74.0 L 62.0,76.0 L 53.0,76.0 L 47.0,71.0 L 46.0,69.0 L 46.0,59.0 L 50.0,54.0 L 53.0,52.0" fill="#090909"/>
	<path d="M 54.0,88.0 L 59.0,89.0 L 60.0,94.0 L 58.0,96.0 L 53.0,95.0 L 52.0,90.0 L 54.0,88.0" fill="#E9E9E9"/>
	<path d="M 91.0,60.0 L 96.0,61.0 L 97.0,66.0 L 95.0,68.0 L 90.0,67.0 L 89.0,62.0 L 91.0,60.0" fill="#E9E9E9"/>
	<path d="M 55.0,60.0 L 60.0,61.0 L 61.0,66.0 L 59.0,68.0 L 54.0,67.0 L 54.0,61.0 L 55.0,60.0" fill="#F0F0F0"/>
</svg>
