<?xml version="1.0" ?>
<svg baseProfile="full" height="600px" version="1.1" viewBox="-9.648000000000001 -9.648000000000001 115.296 115.296" width="600px" xmlns="http://www.w3.org/2000/svg" xmlns:ev="http://www.w3.org/2001/xml-events" xmlns:xlink="http://www.w3.org/1999/xlink">
	<defs/>
	<path d="M 0.0,0.0 L 96.0,0.0 L 96.0,96.0 L 0.0,96.0 L 0.0,0.0" fill="#FCFCFC"/>
	<path d="M 44.0,12.0 L 53.0,12.0 L 64.0,15.0 L 72.0,21.0 L 80.0,30.0 L 83.0,37.0 L 84.0,42.0 L 84.0,52.0 L 82.0,61.0 L 77.0,70.0 L 69.0,78.0 L 59.0,83.0 L 52.0,84.0 L 42.0,84.0 L 32.0,81.0 L 24.0,75.0 L 17.0,67.0 L 13.0,58.0 L 12.0,53.0 L 12.0,44.0 L 14.0,34.0 L 20.0,25.0 L 27.0,18.0 L 37.0,13.0 L 44.0,12.0" fill="#020202"/>
</svg>
