<?xml version="1.0" ?>
<svg baseProfile="full" height="600px" version="1.1" viewBox="-20.1 -20.1 240.2 240.2" width="600px" xmlns="http://www.w3.org/2000/svg" xmlns:ev="http://www.w3.org/2001/xml-events" xmlns:xlink="http://www.w3.org/1999/xlink">
	<defs/>
	<path d="M 0.0,0.0 L 200.0,0.0 L 200.0,200.0 L 0.0,200.0 L 0.0,0.0" fill="#FDFDFD"/>
	<path d="M 87.0,22.0 L 107.0,22.0 L 122.0,27.0 L 133.0,34.0 L 147.0,45.0 L 161.0,56.0 L 169.0,65.0 L 176.0,79.0 L 178.0,86.0 L 178.0,107.0 L 174.0,120.0 L 167.0,132.0 L 154.0,148.0 L 144.0,161.0 L 135.0,169.0 L 123.0,175.0 L 113.0,178.0 L 93.0,178.0 L 80.0,174.0 L 68.0,167.0 L 52.0,154.0 L 39.0,144.0 L 31.0,135.0 L 25.0,123.0 L 22.0,113.0 L 22.0,93.0 L 26.0,80.0 L 33.0,68.0 L 46.0,52.0 L 55.0,40.0 L 65.0,31.0 L 79.0,24.0 L 87.0,22.0" fill="#FDFDFD"/>
	<path d="M 90.0,14.0 L 103.0,14.0 L 117.0,17.0 L 133.0,25.0 L 146.0,35.0 L 164.0,49.0 L 173.0,58.0 L 181.0,72.0 L 185.0,85.0 L 186.0,89.0 L 186.0,106.0 L 181.0,122.0 L 175.0,133.0 L 165.0,146.0 L 151.0,164.0 L 142.0,173.0 L 128.0,181.0 L 115.0,185.0 L 108.0,186.0 L 96.0,186.0 L 82.0,183.0 L 68.0,176.0 L 54.0,165.0 L 36.0,151.0 L 27.0,142.0 L 19.0,128.0 L 15.0,114.0 L 14.0,109.0 L 14.0,94.0 L 19.0,77.0 L 25.0,67.0 L 35.0,54.0 L 49.0,36.0 L 58.0,27.0 L 72.0,19.0 L 85.0,15.0 L 90.0,14.0 M 87.0,22.0 L 74.0,26.0 L 64.0,32.0 L 54.0,41.0 L 44.0,54.0 L 31.0,71.0 L 24.0,85.0 L 22.0,93.0 L 22.0,113.0 L 27.0,128.0 L 34.0,139.0 L 41.0,146.0 L 54.0,156.0 L 71.0,169.0 L 85.0,176.0 L 93.0,178.0 L 113.0,178.0 L 126.0,174.0 L 136.0,168.0 L 146.0,159.0 L 156.0,146.0 L 169.0,129.0 L 176.0,115.0 L 178.0,107.0 L 178.0,86.0 L 174.0,74.0 L 168.0,64.0 L 159.0,54.0 L 146.0,44.0 L 129.0,31.0 L 117.0,25.0 L 107.0,22.0 L 87.0,22.0" fill="#0A0A0A"/>
</svg>
