<?xml version="1.0" ?>
<svg baseProfile="full" height="600px" version="1.1" viewBox="-12.864 -12.864 153.728 153.728" width="600px" xmlns="http://www.w3.org/2000/svg" xmlns:ev="http://www.w3.org/2001/xml-events" xmlns:xlink="http://www.w3.org/1999/xlink">
	<defs/>
	<path d="M 0.0,0.0 L 128.0,0.0 L 128.0,128.0 L 0.0,128.0 L 0.0,0.0" fill="#FDFDFD"/>
	<path d="M 95.0,52.0 L 102.0,52.0 L 108.0,55.0 L 111.0,60.0 L 111.0,68.0 L 107.0,74.0 L 102.0,76.0 L 95.0,76.0 L 88.0,70.0 L 87.0,67.0 L 87.0,60.0 L 93.0,53.0 L 95.0,52.0" fill="#070707"/>
	<path d="M 60.0,52.0 L 67.0,52.0 L 73.0,55.0 L 76.0,60.0 L 76.0,68.0 L 72.0,74.0 L 67.0,76.0 L 60.0,76.0 L 53.0,70.0 L 52.0,67.0 L 52.0,60.0 L 58.0,53.0 L 60.0,52.0" fill="#070707"/>
	<path d="M 38.0,79.0 L 47.0,79.0 L 52.0,82.0 L 55.0,87.0 L 54.0,96.0 L 50.0,101.0 L 45.0,103.0 L 38.0,102.0 L 32.0,97.0 L 31.0,94.0 L 31.0,86.0 L 36.0,80.0 L 38.0,79.0" fill="#090909"/>
	<path d="M 97.0,60.0 L 102.0,61.0 L 103.0,66.0 L 101.0,68.0 L 96.0,67.0 L 95.0,62.0 L 97.0,60.0" fill="#E9E9E9"/>
	<path d="M 62.0,60.0 L 67.0,61.0 L 68.0,66.0 L 66.0,68.0 L 61.0,67.0 L 60.0,62.0 L 62.0,60.0" fill="#E8E8E8"/>
	<path d="M 40.0,87.0 L 45.0,87.0 L 47.0,89.0 L 46.0,93.0 L 45.0,94.0 L 40.0,94.0 L 39.0,93.0 L 39.0,88.0 L 40.0,87.0" fill="#EFEFEF"/>
</svg>
