<?xml version="1.0" ?>
<svg baseProfile="full" height="600px" version="1.1" viewBox="-16.08 -16.08 192.16 192.16" width="600px" xmlns="http://www.w3.org/2000/svg" xmlns:ev="http://www.w3.org/2001/xml-events" xmlns:xlink="http://www.w3.org/1999/xlink">
	<defs/>
	<path d="M 0.0,0.0 L 160.0,0.0 L 160.0,160.0 L 0.0,160.0 L 0.0,0.0" fill="#FDFDFE"/>
	<path d="M 76.0,63.0 L 86.0,63.0 L 92.0,66.0 L 97.0,72.0 L 98.0,75.0 L 98.0,82.0 L 95.0,88.0 L 88.0,94.0 L 85.0,95.0 L 78.0,95.0 L 71.0,91.0 L 67.0,86.0 L 66.0,83.0 L 66.0,73.0 L 70.0,67.0 L 76.0,63.0" fill="#88B4ED"/>
	<path d="M 130.0,83.0 L 139.0,84.0 L 144.0,87.0 L 148.0,92.0 L 149.0,94.0 L 149.0,105.0 L 145.0,111.0 L 139.0,115.0 L 128.0,115.0 L 122.0,111.0 L 118.0,105.0 L 118.0,93.0 L 125.0,85.0 L 130.0,83.0" fill="#89B5EE"/>
	<path d="M 29.0,53.0 L 38.0,53.0 L 46.0,59.0 L 48.0,63.0 L 48.0,74.0 L 44.0,81.0 L 37.0,85.0 L 28.0,85.0 L 22.0,81.0 L 18.0,77.0 L 17.0,74.0 L 17.0,63.0 L 22.0,56.0 L 29.0,53.0" fill="#88B4ED"/>
	<path d="M 130.0,83.0 L 139.0,84.0 L 144.0,87.0 L 148.0,92.0 L 149.0,94.0 L 149.0,105.0 L 145.0,111.0 L 139.0,115.0 L 128.0,115.0 L 122.0,111.0 L 118.0,105.0 L 118.0,93.0 L 125.0,85.0 L 130.0,83.0 M 129.0,88.0 L 124.0,91.0 L 122.0,95.0 L 122.0,104.0 L 127.0,110.0 L 129.0,111.0 L 138.0,111.0 L 144.0,106.0 L 145.0,104.0 L 145.0,95.0 L 140.0,89.0 L 138.0,88.0 L 129.0,88.0" fill="#5680BA"/>
	<path d="M 76.0,63.0 L 86.0,63.0 L 92.0,66.0 L 97.0,72.0 L 98.0,75.0 L 98.0,82.0 L 95.0,88.0 L 88.0,94.0 L 85.0,95.0 L 78.0,95.0 L 71.0,91.0 L 67.0,86.0 L 66.0,83.0 L 66.0,73.0 L 70.0,67.0 L 76.0,63.0 M 77.0,67.0 L 71.0,72.0 L 70.0,74.0 L 70.0,82.0 L 73.0,87.0 L 77.0,90.0 L 87.0,90.0 L 92.0,85.0 L 94.0,81.0 L 93.0,73.0 L 86.0,67.0 L 77.0,67.0" fill="#5781BA"/>
	<path d="M 29.0,53.0 L 38.0,53.0 L 46.0,59.0 L 48.0,63.0 L 48.0,74.0 L 44.0,81.0 L 37.0,85.0 L 28.0,85.0 L 22.0,81.0 L 18.0,77.0 L 17.0,74.0 L 17.0,63.0 L 22.0,56.0 L 29.0,53.0 M 30.0,57.0 L 24.0,60.0 L 21.0,64.0 L 21.0,73.0 L 25.0,79.0 L 29.0,81.0 L 36.0,81.0 L 42.0,77.0 L 44.0,74.0 L 44.0,64.0 L 40.0,59.0 L 37.0,57.0 L 30.0,57.0" fill="#5580B9"/>
</svg>
