<?xml version="1.0" ?>
<svg baseProfile="full" height="600px" version="1.1" viewBox="-12.06 -12.06 144.12 144.12" width="600px" xmlns="http://www.w3.org/2000/svg" xmlns:ev="http://www.w3.org/2001/xml-events" xmlns:xlink="http://www.w3.org/1999/xlink">
	<defs/>
	<path d="M 0.0,0.0 L 120.0,0.0 L 120.0,120.0 L 0.0,120.0 L 0.0,0.0" fill="#FDFDFD"/>
	<path d="M 72.0,48.0 L 79.0,48.0 L 85.0,53.0 L 86.0,55.0 L 86.0,65.0 L 82.0,70.0 L 79.0,72.0 L 70.0,72.0 L 64.0,67.0 L 63.0,65.0 L 63.0,55.0 L 67.0,50.0 L 72.0,48.0" fill="#050505"/>
	<path d="M 32.0,48.0 L 39.0,48.0 L 45.0,53.0 L 46.0,55.0 L 46.0,65.0 L 42.0,70.0 L 39.0,72.0 L 30.0,72.0 L 24.0,67.0 L 23.0,65.0 L 23.0,55.0 L 27.0,50.0 L 32.0,48.0" fill="#050505"/>
	<path d="M 72.0,23.0 L 80.0,23.0 L 86.0,26.0 L 89.0,30.0 L 88.0,37.0 L 82.0,41.0 L 71.0,41.0 L 66.0,37.0 L 65.0,35.0 L 65.0,29.0 L 70.0,24.0 L 72.0,23.0" fill="#050505"/>
</svg>
