<?xml version="1.0" ?>
<svg baseProfile="full" height="600px" version="1.1" viewBox="-9.648000000000001 -9.648000000000001 115.296 115.296" width="600px" xmlns="http://www.w3.org/2000/svg" xmlns:ev="http://www.w3.org/2001/xml-events" xmlns:xlink="http://www.w3.org/1999/xlink">
	<defs/>
	<path d="M 0.0,0.0 L 96.0,0.0 L 96.0,96.0 L 0.0,96.0 L 0.0,0.0" fill="#FCFCFC"/>
	<path d="M 71.0,36.0 L 79.0,36.0 L 84.0,39.0 L 87.0,44.0 L 87.0,51.0 L 84.0,56.0 L 81.0,59.0 L 78.0,60.0 L 71.0,60.0 L 66.0,57.0 L 63.0,51.0 L 63.0,44.0 L 66.0,39.0 L 71.0,36.0" fill="#050505"/>
	<path d="M 39.0,36.0 L 47.0,36.0 L 52.0,39.0 L 55.0,44.0 L 55.0,51.0 L 52.0,56.0 L 49.0,59.0 L 46.0,60.0 L 39.0,60.0 L 34.0,57.0 L 31.0,51.0 L 31.0,44.0 L 34.0,39.0 L 39.0,36.0" fill="#050505"/>
	<path d="M 22.0,16.0 L 34.0,16.0 L 39.0,19.0 L 40.0,21.0 L 40.0,27.0 L 36.0,31.0 L 34.0,32.0 L 23.0,32.0 L 18.0,29.0 L 17.0,27.0 L 17.0,20.0 L 22.0,16.0" fill="#050505"/>
</svg>
