<?xml version="1.0" ?>
<svg baseProfile="full" height="600px" version="1.1" viewBox="-12.864 -12.864 153.728 153.728" width="600px" xmlns="http://www.w3.org/2000/svg" xmlns:ev="http://www.w3.org/2001/xml-events" xmlns:xlink="http://www.w3.org/1999/xlink">
	<defs/>
	<path d="M 0.0,0.0 L 128.0,0.0 L 128.0,128.0 L 0.0,128.0 L 0.0,0.0" fill="#FDFDFD"/>
	<path d="M 58.0,20.0 L 69.0,20.0 L 79.0,24.0 L 88.0,32.0 L 94.0,43.0 L 97.0,53.0 L 97.0,75.0 L 94.0,85.0 L 89.0,94.0 L 82.0,102.0 L 72.0,107.0 L 68.0,108.0 L 58.0,108.0 L 46.0,102.0 L 38.0,93.0 L 33.0,82.0 L 30.0,71.0 L 30.0,58.0 L 32.0,48.0 L 36.0,38.0 L 43.0,29.0 L 51.0,23.0 L 58.0,20.0" fill="#FCFCFC"/>
	<path d="M 58.0,20.0 L 69.0,20.0 L 79.0,24.0 L 88.0,32.0 L 94.0,43.0 L 97.0,53.0 L 97.0,75.0 L 94.0,85.0 L 89.0,94.0 L 82.0,102.0 L 72.0,107.0 L 68.0,108.0 L 58.0,108.0 L 46.0,102.0 L 38.0,93.0 L 33.0,82.0 L 30.0,71.0 L 30.0,58.0 L 32.0,48.0 L 36.0,38.0 L 43.0,29.0 L 51.0,23.0 L 58.0,20.0 M 59.0,28.0 L 51.0,33.0 L 44.0,41.0 L 40.0,49.0 L 39.0,54.0 L 39.0,75.0 L 44.0,87.0 L 51.0,95.0 L 57.0,99.0 L 67.0,100.0 L 76.0,96.0 L 84.0,87.0 L 89.0,74.0 L 89.0,53.0 L 84.0,41.0 L 75.0,31.0 L 67.0,28.0 L 59.0,28.0" fill="#090909"/>
</svg>
