<?xml version="1.0" ?>
<svg baseProfile="full" height="600px" version="1.1" viewBox="-12.864 -12.864 153.728 153.728" width="600px" xmlns="http://www.w3.org/2000/svg" xmlns:ev="http://www.w3.org/2001/xml-events" xmlns:xlink="http://www.w3.org/1999/xlink">
	<defs/>
	<path d="M 0.0,0.0 L 128.0,0.0 L 128.0,128.0 L 0.0,128.0 L 0.0,0.0" fill="#FDFDFD"/>
	<path d="M 100.0,52.0 L 107.0,52.0 L 113.0,55.0 L 116.0,60.0 L 116.0,67.0 L 113.0,73.0 L 107.0,76.0 L 100.0,76.0 L 93.0,70.0 L 92.0,67.0 L 92.0,60.0 L 95.0,55.0 L 100.0,52.0" fill="#060606"/>
	<path d="M 20.0,52.0 L 27.0,52.0 L 33.0,55.0 L 36.0,60.0 L 36.0,67.0 L 33.0,73.0 L 27.0,76.0 L 20.0,76.0 L 13.0,70.0 L 12.0,67.0 L 12.0,60.0 L 15.0,55.0 L 20.0,52.0" fill="#060606"/>
	<path d="M 60.0,55.0 L 68.0,55.0 L 75.0,58.0 L 78.0,61.0 L 77.0,68.0 L 72.0,72.0 L 69.0,73.0 L 60.0,73.0 L 53.0,70.0 L 50.0,66.0 L 50.0,61.0 L 56.0,56.0 L 60.0,55.0" fill="#070707"/>
	<path d="M 102.0,60.0 L 107.0,61.0 L 108.0,66.0 L 106.0,68.0 L 101.0,67.0 L 100.0,62.0 L 102.0,60.0" fill="#EAEAEA"/>
	<path d="M 22.0,60.0 L 27.0,61.0 L 28.0,66.0 L 26.0,68.0 L 21.0,67.0 L 20.0,62.0 L 22.0,60.0" fill="#EAEAEA"/>
	<path d="M 61.0,61.0 L 68.0,62.0 L 68.0,66.0 L 61.0,67.0 L 59.0,63.0 L 61.0,61.0" fill="#E3E3E3"/>
</svg>
