<?xml version="1.0" ?>
<svg baseProfile="full" height="600px" version="1.1" viewBox="-12.864 -12.864 153.728 153.728" width="600px" xmlns="http://www.w3.org/2000/svg" xmlns:ev="http://www.w3.org/2001/xml-events" xmlns:xlink="http://www.w3.org/1999/xlink">
	<defs/>
	<path d="M 0.0,0.0 L 128.0,0.0 L 128.0,128.0 L 0.0,128.0 L 0.0,0.0" fill="#FDFDFD"/>
	<path d="M 99.0,66.0 L 108.0,66.0 L 114.0,70.0 L 116.0,74.0 L 116.0,82.0 L 111.0,88.0 L 107.0,90.0 L 101.0,90.0 L 95.0,86.0 L 92.0,81.0 L 92.0,74.0 L 96.0,68.0 L 99.0,66.0" fill="#080808"/>
	<path d="M 61.0,56.0 L 67.0,56.0 L 73.0,60.0 L 76.0,64.0 L 76.0,71.0 L 73.0,77.0 L 68.0,80.0 L 59.0,80.0 L 54.0,76.0 L 52.0,71.0 L 52.0,64.0 L 57.0,58.0 L 61.0,56.0" fill="#070707"/>
	<path d="M 20.0,52.0 L 27.0,52.0 L 33.0,55.0 L 36.0,60.0 L 36.0,67.0 L 33.0,73.0 L 27.0,76.0 L 20.0,76.0 L 13.0,70.0 L 12.0,67.0 L 12.0,60.0 L 15.0,55.0 L 20.0,52.0" fill="#060606"/>
	<path d="M 62.0,64.0 L 67.0,65.0 L 68.0,70.0 L 66.0,72.0 L 61.0,71.0 L 60.0,66.0 L 62.0,64.0" fill="#E6E6E6"/>
	<path d="M 22.0,60.0 L 27.0,61.0 L 28.0,66.0 L 26.0,68.0 L 21.0,67.0 L 20.0,62.0 L 22.0,60.0" fill="#EAEAEA"/>
	<path d="M 102.0,74.0 L 107.0,75.0 L 108.0,80.0 L 103.0,82.0 L 100.0,80.0 L 101.0,75.0 L 102.0,74.0" fill="#EBEBEB"/>
</svg>
