<?xml version="1.0" ?>
<svg baseProfile="full" height="600px" version="1.1" viewBox="-12.864 -12.864 153.728 153.728" width="600px" xmlns="http://www.w3.org/2000/svg" xmlns:ev="http://www.w3.org/2001/xml-events" xmlns:xlink="http://www.w3.org/1999/xlink">
	<defs/>
	<path d="M 0.0,0.0 L 128.0,0.0 L 128.0,128.0 L 0.0,128.0 L 0.0,0.0" fill="#FDFDFD"/>
	<path d="M 71.0,52.0 L 79.0,52.0 L 86.0,58.0 L 87.0,60.0 L 87.0,67.0 L 83.0,73.0 L 78.0,76.0 L 71.0,76.0 L 65.0,72.0 L 63.0,68.0 L 63.0,59.0 L 67.0,54.0 L 71.0,52.0" fill="#080808"/>
	<path d="M 31.0,52.0 L 39.0,52.0 L 46.0,58.0 L 47.0,60.0 L 47.0,67.0 L 43.0,73.0 L 38.0,76.0 L 31.0,76.0 L 25.0,72.0 L 23.0,68.0 L 23.0,59.0 L 27.0,54.0 L 31.0,52.0" fill="#080808"/>
	<path d="M 69.0,23.0 L 79.0,23.0 L 84.0,26.0 L 86.0,29.0 L 85.0,36.0 L 81.0,40.0 L 79.0,41.0 L 68.0,41.0 L 63.0,37.0 L 62.0,35.0 L 62.0,29.0 L 67.0,24.0 L 69.0,23.0" fill="#080808"/>
	<path d="M 73.0,60.0 L 78.0,61.0 L 79.0,66.0 L 77.0,68.0 L 72.0,67.0 L 71.0,62.0 L 73.0,60.0" fill="#E8E8E8"/>
	<path d="M 33.0,60.0 L 38.0,61.0 L 39.0,66.0 L 37.0,68.0 L 32.0,67.0 L 31.0,62.0 L 33.0,60.0" fill="#E8E8E8"/>
	<path d="M 72.0,29.0 L 77.0,30.0 L 77.0,34.0 L 72.0,35.0 L 70.0,34.0 L 70.0,30.0 L 72.0,29.0" fill="#EEEEEE"/>
</svg>
