<?xml version="1.0" ?>
<svg baseProfile="full" height="600px" version="1.1" viewBox="-12.06 -12.06 144.12 144.12" width="600px" xmlns="http://www.w3.org/2000/svg" xmlns:ev="http://www.w3.org/2001/xml-events" xmlns:xlink="http://www.w3.org/1999/xlink">
	<defs/>
	<path d="M 0.0,0.0 L 120.0,0.0 L 120.0,120.0 L 0.0,120.0 L 0.0,0.0" fill="#FDFDFD"/>
	<path d="M 97.0,48.0 L 103.0,48.0 L 109.0,52.0 L 112.0,57.0 L 112.0,63.0 L 108.0,69.0 L 103.0,72.0 L 97.0,72.0 L 91.0,68.0 L 88.0,63.0 L 88.0,57.0 L 92.0,51.0 L 97.0,48.0" fill="#0A0A0A"/>
	<path d="M 57.0,53.0 L 64.0,54.0 L 67.0,57.0 L 66.0,64.0 L 63.0,67.0 L 57.0,67.0 L 53.0,62.0 L 53.0,57.0 L 57.0,53.0" fill="#0E0E0E"/>
	<path d="M 18.0,54.0 L 24.0,55.0 L 26.0,57.0 L 25.0,64.0 L 22.0,66.0 L 17.0,66.0 L 14.0,62.0 L 14.0,57.0 L 18.0,54.0" fill="#0D0D0D"/>
</svg>
