<?xml version="1.0" ?>
<svg baseProfile="full" height="600px" version="1.1" viewBox="-16.08 -16.08 192.16 192.16" width="600px" xmlns="http://www.w3.org/2000/svg" xmlns:ev="http://www.w3.org/2001/xml-events" xmlns:xlink="http://www.w3.org/1999/xlink">
	<defs/>
	<path d="M 0.0,0.0 L 160.0,0.0 L 160.0,160.0 L 0.0,160.0 L 0.0,0.0" fill="#FDFDFE"/>
	<path d="M 114.0,101.0 L 122.0,101.0 L 130.0,105.0 L 134.0,110.0 L 135.0,114.0 L 135.0,121.0 L 131.0,128.0 L 126.0,132.0 L 123.0,133.0 L 114.0,133.0 L 108.0,129.0 L 104.0,124.0 L 103.0,121.0 L 103.0,112.0 L 107.0,106.0 L 112.0,102.0 L 114.0,101.0" fill="#88B4ED"/>
	<path d="M 84.0,55.0 L 94.0,55.0 L 100.0,59.0 L 104.0,64.0 L 105.0,66.0 L 105.0,75.0 L 102.0,81.0 L 96.0,86.0 L 93.0,87.0 L 86.0,87.0 L 79.0,84.0 L 75.0,79.0 L 73.0,74.0 L 73.0,67.0 L 77.0,60.0 L 84.0,55.0" fill="#88B4ED"/>
	<path d="M 39.0,41.0 L 49.0,41.0 L 55.0,44.0 L 59.0,49.0 L 60.0,51.0 L 60.0,62.0 L 56.0,68.0 L 53.0,71.0 L 47.0,73.0 L 40.0,73.0 L 34.0,69.0 L 30.0,65.0 L 29.0,62.0 L 29.0,51.0 L 33.0,45.0 L 39.0,41.0" fill="#88B4ED"/>
	<path d="M 39.0,41.0 L 49.0,41.0 L 55.0,44.0 L 59.0,49.0 L 60.0,51.0 L 60.0,62.0 L 56.0,68.0 L 53.0,71.0 L 47.0,73.0 L 40.0,73.0 L 34.0,69.0 L 30.0,65.0 L 29.0,62.0 L 29.0,51.0 L 33.0,45.0 L 39.0,41.0 M 40.0,45.0 L 34.0,50.0 L 33.0,52.0 L 33.0,61.0 L 36.0,66.0 L 39.0,68.0 L 49.0,68.0 L 55.0,63.0 L 56.0,61.0 L 56.0,52.0 L 51.0,46.0 L 49.0,45.0 L 40.0,45.0" fill="#5680BA"/>
	<path d="M 84.0,55.0 L 94.0,55.0 L 100.0,59.0 L 104.0,64.0 L 105.0,66.0 L 105.0,75.0 L 102.0,81.0 L 96.0,86.0 L 93.0,87.0 L 86.0,87.0 L 79.0,84.0 L 75.0,79.0 L 73.0,74.0 L 73.0,67.0 L 77.0,60.0 L 84.0,55.0 M 85.0,59.0 L 78.0,65.0 L 77.0,73.0 L 80.0,79.0 L 84.0,82.0 L 92.0,83.0 L 98.0,80.0 L 101.0,74.0 L 101.0,67.0 L 98.0,62.0 L 93.0,59.0 L 85.0,59.0" fill="#5580B9"/>
	<path d="M 114.0,101.0 L 122.0,101.0 L 130.0,105.0 L 134.0,110.0 L 135.0,114.0 L 135.0,121.0 L 131.0,128.0 L 126.0,132.0 L 123.0,133.0 L 114.0,133.0 L 108.0,129.0 L 104.0,124.0 L 103.0,121.0 L 103.0,112.0 L 107.0,106.0 L 112.0,102.0 L 114.0,101.0 M 115.0,105.0 L 108.0,111.0 L 107.0,113.0 L 107.0,121.0 L 111.0,127.0 L 115.0,129.0 L 122.0,129.0 L 127.0,126.0 L 130.0,123.0 L 131.0,115.0 L 128.0,109.0 L 123.0,105.0 L 115.0,105.0" fill="#5580B9"/>
</svg>
