<?xml version="1.0" ?>
<svg baseProfile="full" height="600px" version="1.1" viewBox="-12.06 -12.06 144.12 144.12" width="600px" xmlns="http://www.w3.org/2000/svg" xmlns:ev="http://www.w3.org/2001/xml-events" xmlns:xlink="http://www.w3.org/1999/xlink">
	<defs/>
	<path d="M 0.0,0.0 L 120.0,0.0 L 120.0,120.0 L 0.0,120.0 L 0.0,0.0" fill="#FDFDFD"/>
	<path d="M 73.0,48.0 L 81.0,48.0 L 87.0,53.0 L 89.0,57.0 L 89.0,63.0 L 85.0,69.0 L 80.0,72.0 L 73.0,72.0 L 67.0,68.0 L 65.0,64.0 L 65.0,55.0 L 69.0,50.0 L 73.0,48.0" fill="#060606"/>
	<path d="M 57.0,80.0 L 66.0,81.0 L 72.0,88.0 L 72.0,96.0 L 69.0,101.0 L 64.0,104.0 L 56.0,104.0 L 51.0,101.0 L 48.0,95.0 L 48.0,89.0 L 52.0,83.0 L 57.0,80.0" fill="#060606"/>
	<path d="M 42.0,48.0 L 50.0,48.0 L 56.0,53.0 L 57.0,55.0 L 57.0,65.0 L 53.0,70.0 L 50.0,72.0 L 43.0,72.0 L 37.0,69.0 L 34.0,65.0 L 34.0,55.0 L 38.0,50.0 L 42.0,48.0" fill="#050505"/>
</svg>
