<?xml version="1.0" ?>
<svg baseProfile="full" height="600px" version="1.1" viewBox="-12.06 -12.06 144.12 144.12" width="600px" xmlns="http://www.w3.org/2000/svg" xmlns:ev="http://www.w3.org/2001/xml-events" xmlns:xlink="http://www.w3.org/1999/xlink">
	<defs/>
	<path d="M 0.0,0.0 L 120.0,0.0 L 120.0,120.0 L 0.0,120.0 L 0.0,0.0" fill="#FDFDFD"/>
	<path d="M 16.0,48.0 L 23.0,48.0 L 28.0,51.0 L 32.0,56.0 L 32.0,63.0 L 29.0,68.0 L 26.0,71.0 L 23.0,72.0 L 16.0,72.0 L 9.0,66.0 L 8.0,63.0 L 8.0,56.0 L 14.0,49.0 L 16.0,48.0" fill="#070707"/>
	<path d="M 58.0,54.0 L 64.0,55.0 L 66.0,57.0 L 65.0,64.0 L 62.0,66.0 L 57.0,66.0 L 54.0,62.0 L 54.0,57.0 L 58.0,54.0" fill="#0D0D0D"/>
	<path d="M 98.0,54.0 L 104.0,55.0 L 106.0,58.0 L 105.0,64.0 L 102.0,66.0 L 96.0,65.0 L 94.0,62.0 L 95.0,56.0 L 98.0,54.0" fill="#181818"/>
</svg>
