<?xml version="1.0" ?>
<svg baseProfile="full" height="600px" version="1.1" viewBox="-12.864 -12.864 153.728 153.728" width="600px" xmlns="http://www.w3.org/2000/svg" xmlns:ev="http://www.w3.org/2001/xml-events" xmlns:xlink="http://www.w3.org/1999/xlink">
	<defs/>
	<path d="M 0.0,0.0 L 128.0,0.0 L 128.0,128.0 L 0.0,128.0 L 0.0,0.0" fill="#FDFDFD"/>
	<path d="M 56.0,20.0 L 69.0,20.0 L 83.0,24.0 L 93.0,30.0 L 101.0,39.0 L 106.0,49.0 L 108.0,57.0 L 108.0,68.0 L 106.0,78.0 L 99.0,92.0 L 92.0,99.0 L 84.0,104.0 L 72.0,108.0 L 58.0,108.0 L 45.0,104.0 L 35.0,98.0 L 27.0,89.0 L 22.0,79.0 L 20.0,71.0 L 20.0,58.0 L 23.0,47.0 L 29.0,36.0 L 36.0,29.0 L 46.0,23.0 L 56.0,20.0" fill="#FBFBFB"/>
	<path d="M 56.0,20.0 L 69.0,20.0 L 83.0,24.0 L 93.0,30.0 L 101.0,39.0 L 106.0,49.0 L 108.0,57.0 L 108.0,68.0 L 106.0,78.0 L 99.0,92.0 L 92.0,99.0 L 84.0,104.0 L 72.0,108.0 L 58.0,108.0 L 45.0,104.0 L 35.0,98.0 L 27.0,89.0 L 22.0,79.0 L 20.0,71.0 L 20.0,58.0 L 23.0,47.0 L 29.0,36.0 L 36.0,29.0 L 46.0,23.0 L 56.0,20.0 M 57.0,28.0 L 46.0,32.0 L 37.0,39.0 L 31.0,49.0 L 28.0,58.0 L 28.0,70.0 L 32.0,82.0 L 39.0,91.0 L 49.0,97.0 L 59.0,100.0 L 71.0,100.0 L 82.0,96.0 L 91.0,89.0 L 97.0,79.0 L 100.0,69.0 L 100.0,58.0 L 97.0,48.0 L 89.0,37.0 L 79.0,31.0 L 68.0,28.0 L 57.0,28.0" fill="#090909"/>
</svg>
