<?xml version="1.0" ?>
<svg baseProfile="full" height="600px" version="1.1" viewBox="-20.1 -20.1 240.2 240.2" width="600px" xmlns="http://www.w3.org/2000/svg" xmlns:ev="http://www.w3.org/2001/xml-events" xmlns:xlink="http://www.w3.org/1999/xlink">
	<defs/>
	<path d="M 0.0,0.0 L 200.0,0.0 L 200.0,200.0 L 0.0,200.0 L 0.0,0.0" fill="#FCFCFC"/>
	<path d="M 0.0,0.0 L 200.0,0.0 L 200.0,200.0 L 0.0,200.0 L 0.0,0.0 M 92.0,15.0 L 70.0,20.0 L 54.0,28.0 L 45.0,34.0 L 36.0,42.0 L 26.0,56.0 L 20.0,68.0 L 16.0,81.0 L 15.0,86.0 L 15.0,104.0 L 18.0,121.0 L 23.0,137.0 L 30.0,150.0 L 41.0,163.0 L 51.0,171.0 L 63.0,178.0 L 70.0,181.0 L 81.0,184.0 L 88.0,185.0 L 107.0,185.0 L 125.0,181.0 L 139.0,176.0 L 151.0,169.0 L 163.0,159.0 L 173.0,146.0 L 180.0,132.0 L 184.0,118.0 L 185.0,113.0 L 185.0,92.0 L 180.0,70.0 L 172.0,53.0 L 164.0,43.0 L 159.0,37.0 L 146.0,27.0 L 134.0,21.0 L 123.0,17.0 L 113.0,15.0 L 92.0,15.0" fill="#FDFDFD"/>
	<path d="M 92.0,15.0 L 113.0,15.0 L 130.0,19.0 L 146.0,27.0 L 156.0,35.0 L 162.0,40.0 L 172.0,53.0 L 180.0,70.0 L 185.0,92.0 L 185.0,113.0 L 181.0,129.0 L 176.0,140.0 L 170.0,150.0 L 160.0,162.0 L 148.0,171.0 L 132.0,179.0 L 118.0,183.0 L 107.0,185.0 L 88.0,185.0 L 77.0,183.0 L 63.0,178.0 L 48.0,169.0 L 38.0,160.0 L 28.0,147.0 L 21.0,132.0 L 16.0,112.0 L 15.0,104.0 L 15.0,86.0 L 19.0,71.0 L 24.0,59.0 L 33.0,46.0 L 40.0,38.0 L 52.0,29.0 L 68.0,21.0 L 83.0,17.0 L 92.0,15.0 M 95.0,23.0 L 83.0,25.0 L 71.0,28.0 L 55.0,36.0 L 41.0,48.0 L 32.0,61.0 L 25.0,77.0 L 23.0,87.0 L 23.0,105.0 L 26.0,123.0 L 32.0,138.0 L 39.0,149.0 L 46.0,157.0 L 56.0,165.0 L 71.0,173.0 L 87.0,177.0 L 108.0,177.0 L 123.0,174.0 L 138.0,168.0 L 149.0,161.0 L 157.0,154.0 L 167.0,141.0 L 173.0,128.0 L 176.0,119.0 L 177.0,114.0 L 177.0,95.0 L 175.0,83.0 L 172.0,71.0 L 164.0,55.0 L 154.0,43.0 L 144.0,35.0 L 128.0,27.0 L 119.0,24.0 L 111.0,23.0 L 95.0,23.0" fill="#090909"/>
</svg>
