<?xml version="1.0" ?>
<svg baseProfile="full" height="600px" version="1.1" viewBox="-19.296000000000003 -19.296000000000003 230.592 230.592" width="600px" xmlns="http://www.w3.org/2000/svg" xmlns:ev="http://www.w3.org/2001/xml-events" xmlns:xlink="http://www.w3.org/1999/xlink">
	<defs/>
	<path d="M 0.0,0.0 L 192.0,0.0 L 192.0,192.0 L 0.0,192.0 L 0.0,0.0" fill="#ECE6F4"/>
	<path d="M 0.0,0.0 L 192.0,0.0 L 192.0,192.0 L 0.0,192.0 L 0.0,0.0 M 86.0,16.0 L 70.0,20.0 L 58.0,25.0 L 50.0,30.0 L 39.0,39.0 L 32.0,47.0 L 26.0,56.0 L 21.0,67.0 L 17.0,81.0 L 16.0,86.0 L 16.0,107.0 L 20.0,123.0 L 25.0,134.0 L 33.0,146.0 L 38.0,152.0 L 40.0,152.0 L 40.0,154.0 L 50.0,162.0 L 60.0,168.0 L 72.0,173.0 L 84.0,176.0 L 107.0,176.0 L 121.0,173.0 L 137.0,165.0 L 146.0,159.0 L 156.0,150.0 L 164.0,139.0 L 168.0,132.0 L 174.0,116.0 L 176.0,106.0 L 176.0,87.0 L 173.0,72.0 L 168.0,60.0 L 161.0,48.0 L 152.0,38.0 L 142.0,30.0 L 130.0,23.0 L 120.0,19.0 L 105.0,16.0 L 86.0,16.0" fill="#FEFDFE"/>
	<path d="M 88.0,129.0 L 104.0,129.0 L 107.0,133.0 L 107.0,135.0 L 117.0,136.0 L 126.0,142.0 L 132.0,150.0 L 137.0,162.0 L 136.0,166.0 L 125.0,171.0 L 117.0,174.0 L 107.0,176.0 L 84.0,176.0 L 69.0,172.0 L 56.0,166.0 L 57.0,157.0 L 64.0,144.0 L 73.0,135.0 L 84.0,130.0 L 88.0,129.0" fill="#6F4E44"/>
	<path d="M 106.0,154.0 L 109.0,154.0 L 120.0,169.0 L 121.0,173.0 L 107.0,176.0 L 84.0,176.0 L 75.0,174.0 L 74.0,172.0 L 101.0,157.0 L 106.0,154.0" fill="#DA802F"/>
</svg>
