<?xml version="1.0" ?>
<svg baseProfile="full" height="600px" version="1.1" viewBox="-20.1 -20.1 240.2 240.2" width="600px" xmlns="http://www.w3.org/2000/svg" xmlns:ev="http://www.w3.org/2001/xml-events" xmlns:xlink="http://www.w3.org/1999/xlink">
	<defs/>
	<path d="M 0.0,0.0 L 200.0,0.0 L 200.0,200.0 L 0.0,200.0 L 0.0,0.0" fill="#FDFDFD"/>
	<path d="M 158.0,76.0 L 169.0,76.0 L 178.0,80.0 L 185.0,87.0 L 188.0,94.0 L 188.0,105.0 L 184.0,114.0 L 177.0,121.0 L 169.0,124.0 L 158.0,124.0 L 150.0,120.0 L 142.0,111.0 L 140.0,105.0 L 140.0,94.0 L 144.0,86.0 L 151.0,79.0 L 158.0,76.0" fill="#070707"/>
	<path d="M 37.0,93.0 L 49.0,93.0 L 57.0,96.0 L 64.0,103.0 L 67.0,109.0 L 67.0,123.0 L 64.0,130.0 L 59.0,136.0 L 51.0,140.0 L 47.0,141.0 L 40.0,141.0 L 31.0,138.0 L 25.0,133.0 L 20.0,123.0 L 20.0,109.0 L 25.0,101.0 L 32.0,95.0 L 37.0,93.0" fill="#080808"/>
	<path d="M 86.0,51.0 L 98.0,51.0 L 108.0,56.0 L 114.0,63.0 L 116.0,69.0 L 116.0,81.0 L 111.0,91.0 L 103.0,97.0 L 97.0,99.0 L 87.0,99.0 L 77.0,94.0 L 71.0,87.0 L 69.0,81.0 L 69.0,67.0 L 74.0,59.0 L 81.0,53.0 L 86.0,51.0" fill="#080808"/>
	<path d="M 159.0,84.0 L 168.0,84.0 L 175.0,88.0 L 179.0,93.0 L 180.0,96.0 L 180.0,105.0 L 174.0,113.0 L 169.0,116.0 L 160.0,116.0 L 153.0,112.0 L 149.0,107.0 L 148.0,104.0 L 148.0,95.0 L 152.0,89.0 L 157.0,85.0 L 159.0,84.0" fill="#F8F8F8"/>
	<path d="M 38.0,101.0 L 48.0,101.0 L 55.0,105.0 L 59.0,111.0 L 59.0,122.0 L 55.0,128.0 L 52.0,131.0 L 46.0,133.0 L 37.0,132.0 L 30.0,126.0 L 28.0,122.0 L 28.0,111.0 L 32.0,105.0 L 38.0,101.0" fill="#F9F9F9"/>
	<path d="M 88.0,59.0 L 96.0,59.0 L 104.0,63.0 L 108.0,69.0 L 108.0,80.0 L 104.0,86.0 L 99.0,90.0 L 96.0,91.0 L 88.0,91.0 L 82.0,87.0 L 78.0,83.0 L 77.0,80.0 L 77.0,69.0 L 81.0,63.0 L 88.0,59.0" fill="#F9F9F9"/>
</svg>
