<?xml version="1.0" ?>
<svg baseProfile="full" height="600px" version="1.1" viewBox="-19.296000000000003 -19.296000000000003 230.592 230.592" width="600px" xmlns="http://www.w3.org/2000/svg" xmlns:ev="http://www.w3.org/2001/xml-events" xmlns:xlink="http://www.w3.org/1999/xlink">
	<defs/>
	<path d="M 0.0,0.0 L 192.0,0.0 L 192.0,192.0 L 0.0,192.0 L 0.0,0.0" fill="#ECE6F4"/>
	<path d="M 0.0,0.0 L 192.0,0.0 L 192.0,192.0 L 0.0,192.0 L 0.0,0.0 M 86.0,16.0 L 70.0,20.0 L 58.0,25.0 L 50.0,30.0 L 41.0,37.0 L 34.0,44.0 L 28.0,52.0 L 21.0,67.0 L 17.0,80.0 L 16.0,86.0 L 16.0,107.0 L 20.0,123.0 L 25.0,134.0 L 33.0,146.0 L 38.0,152.0 L 40.0,152.0 L 40.0,154.0 L 51.0,163.0 L 66.0,171.0 L 79.0,175.0 L 88.0,176.0 L 106.0,176.0 L 119.0,173.0 L 132.0,168.0 L 142.0,162.0 L 152.0,154.0 L 159.0,146.0 L 167.0,135.0 L 174.0,116.0 L 176.0,104.0 L 176.0,87.0 L 173.0,72.0 L 168.0,60.0 L 161.0,48.0 L 154.0,41.0 L 149.0,36.0 L 142.0,30.0 L 133.0,24.0 L 120.0,19.0 L 105.0,16.0 L 86.0,16.0" fill="#FDFDFE"/>
	<path d="M 89.0,47.0 L 106.0,47.0 L 109.0,53.0 L 117.0,56.0 L 122.0,61.0 L 126.0,67.0 L 128.0,74.0 L 128.0,95.0 L 124.0,101.0 L 120.0,110.0 L 113.0,118.0 L 112.0,131.0 L 121.0,134.0 L 130.0,140.0 L 135.0,145.0 L 139.0,150.0 L 143.0,159.0 L 141.0,163.0 L 125.0,171.0 L 117.0,174.0 L 106.0,176.0 L 88.0,176.0 L 75.0,174.0 L 62.0,169.0 L 51.0,163.0 L 49.0,159.0 L 55.0,147.0 L 59.0,142.0 L 69.0,135.0 L 78.0,131.0 L 80.0,131.0 L 79.0,118.0 L 71.0,109.0 L 67.0,99.0 L 64.0,95.0 L 64.0,73.0 L 68.0,63.0 L 77.0,53.0 L 86.0,48.0 L 89.0,47.0" fill="#E3842E"/>
	<path d="M 78.0,131.0 L 80.0,131.0 L 84.0,142.0 L 91.0,146.0 L 100.0,146.0 L 107.0,143.0 L 111.0,135.0 L 112.0,131.0 L 121.0,134.0 L 130.0,140.0 L 135.0,145.0 L 139.0,150.0 L 143.0,159.0 L 141.0,163.0 L 125.0,171.0 L 117.0,174.0 L 106.0,176.0 L 88.0,176.0 L 75.0,174.0 L 62.0,169.0 L 51.0,163.0 L 49.0,159.0 L 55.0,147.0 L 59.0,142.0 L 69.0,135.0 L 78.0,131.0" fill="#673CB7"/>
	<path d="M 89.0,47.0 L 106.0,47.0 L 109.0,53.0 L 117.0,56.0 L 122.0,61.0 L 126.0,67.0 L 128.0,74.0 L 128.0,88.0 L 126.0,88.0 L 125.0,91.0 L 123.0,91.0 L 121.0,95.0 L 120.0,95.0 L 119.0,82.0 L 109.0,72.0 L 100.0,74.0 L 75.0,82.0 L 72.0,82.0 L 72.0,95.0 L 69.0,93.0 L 69.0,91.0 L 66.0,90.0 L 66.0,88.0 L 64.0,88.0 L 64.0,73.0 L 68.0,63.0 L 77.0,53.0 L 86.0,48.0 L 89.0,47.0" fill="#6F4E43"/>
	<path d="M 80.0,118.0 L 89.0,122.0 L 102.0,122.0 L 112.0,118.0 L 112.0,135.0 L 108.0,143.0 L 104.0,146.0 L 100.0,147.0 L 91.0,147.0 L 84.0,143.0 L 80.0,135.0 L 80.0,118.0" fill="#C06E15"/>
	<path d="M 78.0,131.0 L 80.0,131.0 L 84.0,142.0 L 91.0,146.0 L 100.0,146.0 L 107.0,143.0 L 111.0,135.0 L 112.0,131.0 L 119.0,133.0 L 120.0,136.0 L 116.0,145.0 L 111.0,150.0 L 104.0,154.0 L 101.0,155.0 L 90.0,155.0 L 82.0,151.0 L 75.0,144.0 L 72.0,137.0 L 73.0,133.0 L 78.0,131.0" fill="#341D92"/>
	<path d="M 106.0,91.0 L 111.0,92.0 L 112.0,97.0 L 110.0,99.0 L 105.0,98.0 L 104.0,93.0 L 106.0,91.0" fill="#2A2521"/>
	<path d="M 82.0,91.0 L 87.0,92.0 L 88.0,97.0 L 86.0,99.0 L 81.0,98.0 L 80.0,93.0 L 82.0,91.0" fill="#2A2521"/>
	<path d="M 126.0,88.0 L 128.0,90.0 L 127.0,97.0 L 124.0,98.0 L 123.0,91.0 L 126.0,88.0" fill="#C27424"/>
	<path d="M 65.0,88.0 L 69.0,92.0 L 68.0,98.0 L 65.0,97.0 L 64.0,90.0 L 65.0,88.0" fill="#C27423"/>
</svg>
