<?xml version="1.0" ?>
<svg baseProfile="full" height="600px" version="1.1" viewBox="-20.1 -20.1 240.2 240.2" width="600px" xmlns="http://www.w3.org/2000/svg" xmlns:ev="http://www.w3.org/2001/xml-events" xmlns:xlink="http://www.w3.org/1999/xlink">
	<defs/>
	<path d="M 0.0,0.0 L 200.0,0.0 L 200.0,200.0 L 0.0,200.0 L 0.0,0.0" fill="#FDFDFD"/>
	<path d="M 133.0,115.0 L 145.0,115.0 L 155.0,120.0 L 161.0,128.0 L 163.0,133.0 L 163.0,145.0 L 159.0,153.0 L 151.0,160.0 L 144.0,163.0 L 134.0,163.0 L 125.0,159.0 L 118.0,151.0 L 115.0,144.0 L 115.0,133.0 L 119.0,125.0 L 126.0,118.0 L 133.0,115.0" fill="#070707"/>
	<path d="M 104.0,67.0 L 115.0,67.0 L 125.0,72.0 L 131.0,79.0 L 134.0,87.0 L 134.0,96.0 L 129.0,106.0 L 122.0,112.0 L 115.0,115.0 L 104.0,115.0 L 96.0,111.0 L 91.0,107.0 L 87.0,100.0 L 86.0,96.0 L 86.0,84.0 L 92.0,74.0 L 101.0,68.0 L 104.0,67.0" fill="#070707"/>
	<path d="M 47.0,61.0 L 59.0,61.0 L 69.0,66.0 L 75.0,73.0 L 77.0,78.0 L 77.0,91.0 L 73.0,100.0 L 66.0,106.0 L 59.0,109.0 L 48.0,109.0 L 38.0,104.0 L 32.0,97.0 L 30.0,93.0 L 30.0,77.0 L 35.0,69.0 L 41.0,64.0 L 47.0,61.0" fill="#090909"/>
	<path d="M 105.0,75.0 L 114.0,75.0 L 122.0,80.0 L 126.0,87.0 L 126.0,94.0 L 122.0,102.0 L 114.0,107.0 L 105.0,107.0 L 99.0,103.0 L 95.0,98.0 L 94.0,96.0 L 94.0,86.0 L 98.0,80.0 L 103.0,76.0 L 105.0,75.0" fill="#F8F8F8"/>
	<path d="M 134.0,123.0 L 144.0,123.0 L 150.0,127.0 L 154.0,132.0 L 155.0,134.0 L 155.0,142.0 L 152.0,149.0 L 147.0,153.0 L 142.0,155.0 L 135.0,155.0 L 127.0,150.0 L 123.0,143.0 L 123.0,136.0 L 126.0,129.0 L 132.0,124.0 L 134.0,123.0" fill="#F9F9F9"/>
	<path d="M 49.0,69.0 L 58.0,69.0 L 65.0,73.0 L 69.0,79.0 L 69.0,90.0 L 65.0,96.0 L 60.0,100.0 L 58.0,101.0 L 49.0,101.0 L 43.0,97.0 L 39.0,93.0 L 38.0,90.0 L 38.0,79.0 L 43.0,72.0 L 49.0,69.0" fill="#FAFAFA"/>
</svg>
