<?xml version="1.0" ?>
<svg baseProfile="full" height="600px" version="1.1" viewBox="-12.864 -12.864 153.728 153.728" width="600px" xmlns="http://www.w3.org/2000/svg" xmlns:ev="http://www.w3.org/2001/xml-events" xmlns:xlink="http://www.w3.org/1999/xlink">
	<defs/>
	<path d="M 0.0,0.0 L 128.0,0.0 L 128.0,128.0 L 0.0,128.0 L 0.0,0.0" fill="#FCFCFC"/>
	<path d="M 25.0,19.0 L 40.0,19.0 L 90.0,21.0 L 106.0,22.0 L 109.0,25.0 L 109.0,39.0 L 106.0,106.0 L 103.0,109.0 L 82.0,109.0 L 32.0,107.0 L 22.0,106.0 L 19.0,103.0 L 19.0,79.0 L 21.0,33.0 L 22.0,22.0 L 25.0,19.0" fill="#FBFBFB"/>
	<path d="M 25.0,19.0 L 40.0,19.0 L 90.0,21.0 L 106.0,22.0 L 109.0,25.0 L 109.0,39.0 L 106.0,106.0 L 103.0,109.0 L 82.0,109.0 L 32.0,107.0 L 22.0,106.0 L 19.0,103.0 L 19.0,79.0 L 21.0,33.0 L 22.0,22.0 L 25.0,19.0 M 30.0,27.0 L 29.0,32.0 L 27.0,84.0 L 27.0,98.0 L 37.0,99.0 L 77.0,101.0 L 98.0,101.0 L 99.0,90.0 L 101.0,38.0 L 101.0,30.0 L 93.0,29.0 L 39.0,27.0 L 30.0,27.0" fill="#080808"/>
</svg>
