<?xml version="1.0" ?>
<svg baseProfile="full" height="600px" version="1.1" viewBox="-20.1 -20.1 240.2 240.2" width="600px" xmlns="http://www.w3.org/2000/svg" xmlns:ev="http://www.w3.org/2001/xml-events" xmlns:xlink="http://www.w3.org/1999/xlink">
	<defs/>
	<path d="M 0.0,0.0 L 200.0,0.0 L 200.0,200.0 L 0.0,200.0 L 0.0,0.0" fill="#FDFDFD"/>
	<path d="M 95.0,75.0 L 109.0,75.0 L 119.0,81.0 L 125.0,90.0 L 126.0,93.0 L 126.0,104.0 L 121.0,114.0 L 114.0,120.0 L 105.0,123.0 L 97.0,123.0 L 87.0,118.0 L 80.0,110.0 L 78.0,105.0 L 78.0,92.0 L 82.0,84.0 L 90.0,77.0 L 95.0,75.0" fill="#090909"/>
	<path d="M 148.0,97.0 L 159.0,97.0 L 169.0,102.0 L 175.0,109.0 L 178.0,116.0 L 178.0,126.0 L 173.0,136.0 L 165.0,143.0 L 159.0,145.0 L 147.0,145.0 L 139.0,141.0 L 133.0,134.0 L 130.0,127.0 L 130.0,114.0 L 136.0,104.0 L 143.0,99.0 L 148.0,97.0" fill="#080808"/>
	<path d="M 37.0,71.0 L 48.0,71.0 L 58.0,76.0 L 64.0,83.0 L 66.0,89.0 L 66.0,102.0 L 62.0,110.0 L 54.0,117.0 L 49.0,119.0 L 36.0,119.0 L 28.0,115.0 L 21.0,107.0 L 19.0,101.0 L 19.0,88.0 L 24.0,79.0 L 32.0,73.0 L 37.0,71.0" fill="#090909"/>
	<path d="M 150.0,105.0 L 157.0,105.0 L 165.0,109.0 L 169.0,115.0 L 170.0,124.0 L 166.0,132.0 L 159.0,137.0 L 149.0,137.0 L 143.0,133.0 L 139.0,128.0 L 138.0,125.0 L 138.0,116.0 L 142.0,110.0 L 147.0,106.0 L 150.0,105.0" fill="#F9F9F9"/>
	<path d="M 96.0,83.0 L 106.0,83.0 L 112.0,86.0 L 117.0,92.0 L 118.0,95.0 L 118.0,103.0 L 114.0,109.0 L 110.0,113.0 L 107.0,114.0 L 96.0,114.0 L 90.0,110.0 L 86.0,104.0 L 86.0,95.0 L 90.0,87.0 L 96.0,83.0" fill="#F9F9F9"/>
	<path d="M 40.0,79.0 L 49.0,80.0 L 57.0,87.0 L 58.0,89.0 L 58.0,101.0 L 53.0,108.0 L 46.0,111.0 L 39.0,111.0 L 32.0,108.0 L 28.0,103.0 L 27.0,100.0 L 27.0,90.0 L 31.0,84.0 L 36.0,80.0 L 40.0,79.0" fill="#FAFAFA"/>
</svg>
