<?xml version="1.0" ?>
<svg baseProfile="full" height="600px" version="1.1" viewBox="-9.648000000000001 -9.648000000000001 115.296 115.296" width="600px" xmlns="http://www.w3.org/2000/svg" xmlns:ev="http://www.w3.org/2001/xml-events" xmlns:xlink="http://www.w3.org/1999/xlink">
	<defs/>
	<path d="M 0.0,0.0 L 96.0,0.0 L 96.0,96.0 L 0.0,96.0 L 0.0,0.0" fill="#FCFCFC"/>
	<path d="M 76.0,36.0 L 83.0,36.0 L 89.0,39.0 L 92.0,44.0 L 92.0,51.0 L 89.0,57.0 L 83.0,60.0 L 76.0,60.0 L 71.0,57.0 L 68.0,51.0 L 68.0,44.0 L 71.0,39.0 L 76.0,36.0" fill="#050505"/>
	<path d="M 44.0,36.0 L 51.0,36.0 L 57.0,39.0 L 60.0,44.0 L 60.0,51.0 L 57.0,57.0 L 51.0,60.0 L 44.0,60.0 L 39.0,57.0 L 36.0,51.0 L 36.0,44.0 L 39.0,39.0 L 44.0,36.0" fill="#050505"/>
	<path d="M 9.0,40.0 L 22.0,40.0 L 28.0,43.0 L 30.0,45.0 L 30.0,51.0 L 25.0,55.0 L 22.0,56.0 L 9.0,56.0 L 3.0,52.0 L 2.0,51.0 L 2.0,45.0 L 7.0,41.0 L 9.0,40.0" fill="#040404"/>
</svg>
