<?xml version="1.0" ?>
<svg baseProfile="full" height="600px" version="1.1" viewBox="-20.1 -20.1 240.2 240.2" width="600px" xmlns="http://www.w3.org/2000/svg" xmlns:ev="http://www.w3.org/2001/xml-events" xmlns:xlink="http://www.w3.org/1999/xlink">
	<defs/>
	<path d="M 0.0,0.0 L 200.0,0.0 L 200.0,200.0 L 0.0,200.0 L 0.0,0.0" fill="#FDFDFD"/>
	<path d="M 99.0,8.0 L 104.0,10.0 L 107.0,15.0 L 110.0,49.0 L 110.0,146.0 L 108.0,176.0 L 106.0,187.0 L 101.0,192.0 L 96.0,190.0 L 93.0,184.0 L 91.0,165.0 L 90.0,147.0 L 90.0,46.0 L 93.0,15.0 L 96.0,10.0 L 99.0,8.0" fill="#0A0A0A"/>
	<path d="M 99.0,37.0 L 101.0,37.0 L 102.0,50.0 L 102.0,145.0 L 101.0,160.0 L 99.0,160.0 L 98.0,144.0 L 98.0,55.0 L 99.0,37.0" fill="#F3F3F3"/>
</svg>
