<?xml version="1.0" ?>
<svg baseProfile="full" height="600px" version="1.1" viewBox="-12.864 -12.864 153.728 153.728" width="600px" xmlns="http://www.w3.org/2000/svg" xmlns:ev="http://www.w3.org/2001/xml-events" xmlns:xlink="http://www.w3.org/1999/xlink">
	<defs/>
	<path d="M 0.0,0.0 L 128.0,0.0 L 128.0,128.0 L 0.0,128.0 L 0.0,0.0" fill="#FDFDFD"/>
	<path d="M 91.0,61.0 L 101.0,61.0 L 107.0,66.0 L 108.0,68.0 L 108.0,76.0 L 105.0,81.0 L 99.0,85.0 L 93.0,85.0 L 87.0,81.0 L 84.0,77.0 L 84.0,69.0 L 88.0,63.0 L 91.0,61.0" fill="#0A0A0A"/>
	<path d="M 62.0,50.0 L 68.0,50.0 L 74.0,54.0 L 77.0,58.0 L 77.0,65.0 L 74.0,71.0 L 69.0,74.0 L 61.0,74.0 L 55.0,70.0 L 53.0,65.0 L 53.0,58.0 L 59.0,51.0 L 62.0,50.0" fill="#070707"/>
	<path d="M 25.0,44.0 L 35.0,44.0 L 41.0,49.0 L 42.0,51.0 L 42.0,60.0 L 37.0,66.0 L 35.0,67.0 L 25.0,67.0 L 20.0,63.0 L 18.0,59.0 L 18.0,52.0 L 22.0,46.0 L 25.0,44.0" fill="#090909"/>
	<path d="M 63.0,58.0 L 68.0,59.0 L 69.0,64.0 L 67.0,66.0 L 62.0,65.0 L 61.0,60.0 L 63.0,58.0" fill="#E7E7E7"/>
	<path d="M 94.0,69.0 L 99.0,69.0 L 100.0,75.0 L 99.0,76.0 L 93.0,76.0 L 92.0,71.0 L 94.0,69.0" fill="#EFEFEF"/>
	<path d="M 28.0,52.0 L 33.0,52.0 L 34.0,53.0 L 34.0,58.0 L 33.0,59.0 L 28.0,59.0 L 26.0,57.0 L 27.0,53.0 L 28.0,52.0" fill="#EFEFEF"/>
</svg>
