<?xml version="1.0" ?>
<svg baseProfile="full" height="600px" version="1.1" viewBox="-20.1 -20.1 240.2 240.2" width="600px" xmlns="http://www.w3.org/2000/svg" xmlns:ev="http://www.w3.org/2001/xml-events" xmlns:xlink="http://www.w3.org/1999/xlink">
	<defs/>
	<path d="M 0.0,0.0 L 200.0,0.0 L 200.0,200.0 L 0.0,200.0 L 0.0,0.0" fill="#FDFDFD"/>
	<path d="M 158.0,77.0 L 168.0,77.0 L 178.0,82.0 L 184.0,89.0 L 187.0,96.0 L 187.0,107.0 L 182.0,117.0 L 174.0,123.0 L 170.0,125.0 L 156.0,125.0 L 147.0,120.0 L 141.0,112.0 L 139.0,107.0 L 139.0,95.0 L 143.0,87.0 L 151.0,80.0 L 158.0,77.0" fill="#0A0A0A"/>
	<path d="M 95.0,74.0 L 106.0,74.0 L 115.0,78.0 L 122.0,85.0 L 125.0,92.0 L 125.0,103.0 L 121.0,112.0 L 112.0,120.0 L 106.0,122.0 L 95.0,122.0 L 87.0,118.0 L 80.0,111.0 L 77.0,103.0 L 77.0,92.0 L 82.0,82.0 L 90.0,76.0 L 95.0,74.0" fill="#080808"/>
	<path d="M 30.0,76.0 L 41.0,76.0 L 50.0,80.0 L 57.0,87.0 L 60.0,94.0 L 60.0,105.0 L 56.0,114.0 L 49.0,121.0 L 41.0,124.0 L 30.0,124.0 L 22.0,120.0 L 14.0,111.0 L 12.0,105.0 L 12.0,94.0 L 16.0,86.0 L 23.0,79.0 L 30.0,76.0" fill="#070707"/>
	<path d="M 31.0,84.0 L 40.0,84.0 L 47.0,88.0 L 51.0,93.0 L 52.0,96.0 L 52.0,105.0 L 46.0,113.0 L 41.0,116.0 L 32.0,116.0 L 25.0,112.0 L 21.0,107.0 L 20.0,104.0 L 20.0,95.0 L 24.0,89.0 L 29.0,85.0 L 31.0,84.0" fill="#F8F8F8"/>
	<path d="M 96.0,82.0 L 104.0,82.0 L 111.0,85.0 L 116.0,91.0 L 117.0,95.0 L 117.0,102.0 L 112.0,110.0 L 104.0,114.0 L 97.0,114.0 L 90.0,110.0 L 86.0,105.0 L 85.0,101.0 L 85.0,93.0 L 89.0,87.0 L 94.0,83.0 L 96.0,82.0" fill="#F9F9F9"/>
	<path d="M 157.0,86.0 L 168.0,86.0 L 175.0,90.0 L 179.0,97.0 L 179.0,106.0 L 175.0,112.0 L 170.0,116.0 L 167.0,117.0 L 158.0,117.0 L 152.0,113.0 L 148.0,108.0 L 147.0,106.0 L 147.0,98.0 L 151.0,90.0 L 157.0,86.0" fill="#FAFAFA"/>
</svg>
