<?xml version="1.0" ?>
<svg baseProfile="full" height="600px" version="1.1" viewBox="-20.1 -20.1 240.2 240.2" width="600px" xmlns="http://www.w3.org/2000/svg" xmlns:ev="http://www.w3.org/2001/xml-events" xmlns:xlink="http://www.w3.org/1999/xlink">
	<defs/>
	<path d="M 0.0,0.0 L 200.0,0.0 L 200.0,200.0 L 0.0,200.0 L 0.0,0.0" fill="#FDFDFD"/>
	<path d="M 157.0,73.0 L 171.0,73.0 L 181.0,79.0 L 187.0,88.0 L 188.0,91.0 L 188.0,102.0 L 183.0,112.0 L 176.0,118.0 L 169.0,121.0 L 159.0,121.0 L 149.0,116.0 L 143.0,109.0 L 140.0,102.0 L 140.0,91.0 L 145.0,81.0 L 153.0,75.0 L 157.0,73.0" fill="#080808"/>
	<path d="M 30.0,92.0 L 41.0,92.0 L 50.0,96.0 L 57.0,103.0 L 60.0,110.0 L 60.0,121.0 L 56.0,130.0 L 49.0,137.0 L 41.0,140.0 L 30.0,140.0 L 22.0,136.0 L 14.0,127.0 L 12.0,121.0 L 12.0,110.0 L 16.0,102.0 L 23.0,95.0 L 30.0,92.0" fill="#070707"/>
	<path d="M 92.0,63.0 L 107.0,63.0 L 115.0,67.0 L 121.0,74.0 L 124.0,81.0 L 124.0,92.0 L 119.0,102.0 L 113.0,107.0 L 106.0,110.0 L 93.0,110.0 L 84.0,105.0 L 78.0,97.0 L 76.0,91.0 L 76.0,80.0 L 81.0,71.0 L 88.0,65.0 L 92.0,63.0" fill="#080808"/>
	<path d="M 31.0,100.0 L 40.0,100.0 L 47.0,104.0 L 51.0,109.0 L 52.0,112.0 L 52.0,121.0 L 46.0,129.0 L 41.0,132.0 L 32.0,132.0 L 25.0,128.0 L 21.0,123.0 L 20.0,120.0 L 20.0,111.0 L 24.0,105.0 L 29.0,101.0 L 31.0,100.0" fill="#F8F8F8"/>
	<path d="M 159.0,81.0 L 168.0,81.0 L 174.0,84.0 L 179.0,90.0 L 180.0,92.0 L 180.0,101.0 L 175.0,109.0 L 168.0,113.0 L 160.0,113.0 L 152.0,108.0 L 148.0,100.0 L 148.0,92.0 L 152.0,86.0 L 157.0,82.0 L 159.0,81.0" fill="#F8F8F8"/>
	<path d="M 94.0,71.0 L 105.0,71.0 L 112.0,75.0 L 116.0,82.0 L 116.0,90.0 L 113.0,96.0 L 107.0,101.0 L 105.0,102.0 L 95.0,102.0 L 89.0,98.0 L 85.0,93.0 L 84.0,90.0 L 84.0,82.0 L 89.0,74.0 L 94.0,71.0" fill="#FAFAFA"/>
</svg>
