<?xml version="1.0" ?>
<svg baseProfile="full" height="600px" version="1.1" viewBox="-20.1 -20.1 240.2 240.2" width="600px" xmlns="http://www.w3.org/2000/svg" xmlns:ev="http://www.w3.org/2001/xml-events" xmlns:xlink="http://www.w3.org/1999/xlink">
	<defs/>
	<path d="M 0.0,0.0 L 200.0,0.0 L 200.0,200.0 L 0.0,200.0 L 0.0,0.0" fill="#FDFDFD"/>
	<path d="M 157.0,77.0 L 170.0,77.0 L 177.0,80.0 L 182.0,84.0 L 186.0,90.0 L 187.0,93.0 L 187.0,106.0 L 182.0,116.0 L 177.0,120.0 L 170.0,123.0 L 157.0,123.0 L 151.0,120.0 L 146.0,116.0 L 142.0,109.0 L 141.0,106.0 L 141.0,93.0 L 145.0,85.0 L 152.0,79.0 L 157.0,77.0" fill="#0A0A0A"/>
	<path d="M 93.0,81.0 L 106.0,81.0 L 112.0,84.0 L 118.0,91.0 L 119.0,93.0 L 119.0,106.0 L 116.0,112.0 L 109.0,118.0 L 106.0,119.0 L 93.0,119.0 L 87.0,115.0 L 82.0,109.0 L 81.0,106.0 L 81.0,93.0 L 85.0,87.0 L 91.0,82.0 L 93.0,81.0" fill="#070707"/>
	<path d="M 158.0,85.0 L 169.0,85.0 L 176.0,89.0 L 179.0,94.0 L 179.0,106.0 L 175.0,112.0 L 170.0,115.0 L 158.0,115.0 L 153.0,112.0 L 149.0,105.0 L 149.0,94.0 L 153.0,88.0 L 158.0,85.0" fill="#FAFAFA"/>
	<path d="M 96.0,87.0 L 104.0,87.0 L 110.0,91.0 L 113.0,96.0 L 113.0,104.0 L 109.0,110.0 L 104.0,113.0 L 96.0,113.0 L 90.0,109.0 L 87.0,103.0 L 87.0,96.0 L 91.0,90.0 L 96.0,87.0" fill="#F7F7F7"/>
	<path d="M 34.0,93.0 L 40.0,94.0 L 43.0,98.0 L 42.0,104.0 L 40.0,106.0 L 32.0,106.0 L 30.0,103.0 L 30.0,97.0 L 34.0,93.0" fill="#1A1A1A"/>
	<path d="M 34.0,96.0 L 39.0,97.0 L 40.0,98.0 L 40.0,103.0 L 39.0,104.0 L 34.0,104.0 L 32.0,102.0 L 33.0,97.0 L 34.0,96.0" fill="#F7F7F7"/>
	<path d="M 34.0,93.0 L 40.0,94.0 L 43.0,98.0 L 42.0,102.0 L 40.0,101.0 L 38.0,97.0 L 35.0,95.0 L 34.0,93.0" fill="#454545"/>
</svg>
