<?xml version="1.0" ?>
<svg baseProfile="full" height="600px" version="1.1" viewBox="-12.06 -12.06 144.12 144.12" width="600px" xmlns="http://www.w3.org/2000/svg" xmlns:ev="http://www.w3.org/2001/xml-events" xmlns:xlink="http://www.w3.org/1999/xlink">
	<defs/>
	<path d="M 0.0,0.0 L 120.0,0.0 L 120.0,120.0 L 0.0,120.0 L 0.0,0.0" fill="#FDFDFD"/>
	<path d="M 96.0,48.0 L 103.0,48.0 L 109.0,51.0 L 112.0,56.0 L 112.0,63.0 L 109.0,69.0 L 103.0,72.0 L 96.0,72.0 L 91.0,69.0 L 88.0,63.0 L 88.0,56.0 L 91.0,51.0 L 96.0,48.0" fill="#050505"/>
	<path d="M 56.0,48.0 L 63.0,48.0 L 69.0,51.0 L 72.0,56.0 L 72.0,63.0 L 69.0,69.0 L 63.0,72.0 L 56.0,72.0 L 51.0,69.0 L 48.0,63.0 L 48.0,56.0 L 51.0,51.0 L 56.0,48.0" fill="#050505"/>
	<path d="M 16.0,48.0 L 23.0,48.0 L 29.0,51.0 L 32.0,56.0 L 32.0,63.0 L 29.0,69.0 L 23.0,72.0 L 16.0,72.0 L 11.0,69.0 L 8.0,63.0 L 8.0,56.0 L 11.0,51.0 L 16.0,48.0" fill="#050505"/>
</svg>
