<?xml version="1.0" ?>
<svg baseProfile="full" height="600px" version="1.1" viewBox="-20.1 -20.1 240.2 240.2" width="600px" xmlns="http://www.w3.org/2000/svg" xmlns:ev="http://www.w3.org/2001/xml-events" xmlns:xlink="http://www.w3.org/1999/xlink">
	<defs/>
	<path d="M 0.0,0.0 L 200.0,0.0 L 200.0,200.0 L 0.0,200.0 L 0.0,0.0" fill="#FDFDFD"/>
	<path d="M 101.0,76.0 L 113.0,76.0 L 123.0,81.0 L 129.0,89.0 L 131.0,93.0 L 131.0,105.0 L 128.0,113.0 L 123.0,119.0 L 115.0,123.0 L 112.0,124.0 L 101.0,124.0 L 93.0,120.0 L 86.0,112.0 L 83.0,105.0 L 83.0,95.0 L 88.0,85.0 L 96.0,78.0 L 101.0,76.0" fill="#080808"/>
	<path d="M 37.0,76.0 L 49.0,76.0 L 59.0,81.0 L 65.0,89.0 L 67.0,93.0 L 67.0,105.0 L 64.0,113.0 L 59.0,119.0 L 51.0,123.0 L 48.0,124.0 L 37.0,124.0 L 29.0,120.0 L 22.0,112.0 L 19.0,105.0 L 19.0,95.0 L 24.0,85.0 L 32.0,78.0 L 37.0,76.0" fill="#080808"/>
	<path d="M 137.0,33.0 L 151.0,33.0 L 161.0,38.0 L 167.0,45.0 L 168.0,47.0 L 168.0,56.0 L 165.0,62.0 L 158.0,68.0 L 151.0,71.0 L 138.0,71.0 L 128.0,67.0 L 122.0,60.0 L 120.0,57.0 L 120.0,48.0 L 124.0,41.0 L 130.0,36.0 L 137.0,33.0" fill="#070707"/>
	<path d="M 103.0,84.0 L 110.0,84.0 L 117.0,87.0 L 122.0,93.0 L 123.0,95.0 L 123.0,104.0 L 120.0,110.0 L 114.0,115.0 L 112.0,116.0 L 103.0,116.0 L 96.0,112.0 L 92.0,106.0 L 91.0,103.0 L 91.0,96.0 L 96.0,88.0 L 103.0,84.0" fill="#F8F8F8"/>
	<path d="M 39.0,84.0 L 46.0,84.0 L 53.0,87.0 L 58.0,93.0 L 59.0,95.0 L 59.0,104.0 L 56.0,110.0 L 50.0,115.0 L 48.0,116.0 L 39.0,116.0 L 32.0,112.0 L 28.0,106.0 L 27.0,103.0 L 27.0,96.0 L 32.0,88.0 L 39.0,84.0" fill="#F8F8F8"/>
	<path d="M 140.0,39.0 L 149.0,39.0 L 157.0,44.0 L 160.0,48.0 L 160.0,55.0 L 156.0,61.0 L 148.0,65.0 L 141.0,65.0 L 133.0,62.0 L 129.0,57.0 L 128.0,55.0 L 128.0,49.0 L 132.0,43.0 L 140.0,39.0" fill="#F7F7F7"/>
</svg>
