<?xml version="1.0" ?>
<svg baseProfile="full" height="600px" version="1.1" viewBox="-20.1 -20.1 240.2 240.2" width="600px" xmlns="http://www.w3.org/2000/svg" xmlns:ev="http://www.w3.org/2001/xml-events" xmlns:xlink="http://www.w3.org/1999/xlink">
	<defs/>
	<path d="M 0.0,0.0 L 200.0,0.0 L 200.0,200.0 L 0.0,200.0 L 0.0,0.0" fill="#FDFDFD"/>
	<path d="M 30.0,78.0 L 41.0,78.0 L 51.0,83.0 L 57.0,92.0 L 58.0,94.0 L 58.0,105.0 L 53.0,115.0 L 44.0,121.0 L 41.0,122.0 L 30.0,122.0 L 20.0,116.0 L 15.0,108.0 L 14.0,105.0 L 14.0,94.0 L 20.0,84.0 L 30.0,78.0" fill="#0B0B0B"/>
	<path d="M 160.0,82.0 L 169.0,82.0 L 177.0,87.0 L 181.0,92.0 L 182.0,95.0 L 182.0,104.0 L 178.0,112.0 L 173.0,116.0 L 168.0,118.0 L 159.0,118.0 L 152.0,114.0 L 148.0,109.0 L 146.0,104.0 L 146.0,96.0 L 149.0,89.0 L 156.0,83.0 L 160.0,82.0" fill="#080808"/>
	<path d="M 30.0,86.0 L 42.0,86.0 L 49.0,92.0 L 50.0,94.0 L 50.0,105.0 L 47.0,110.0 L 44.0,113.0 L 38.0,115.0 L 30.0,114.0 L 24.0,109.0 L 22.0,105.0 L 22.0,94.0 L 28.0,87.0 L 30.0,86.0" fill="#F9F9F9"/>
	<path d="M 160.0,88.0 L 168.0,88.0 L 175.0,94.0 L 176.0,96.0 L 176.0,103.0 L 173.0,108.0 L 170.0,111.0 L 167.0,112.0 L 160.0,112.0 L 153.0,106.0 L 152.0,103.0 L 152.0,96.0 L 158.0,89.0 L 160.0,88.0" fill="#F8F8F8"/>
	<path d="M 98.0,93.0 L 104.0,94.0 L 107.0,98.0 L 106.0,104.0 L 102.0,107.0 L 96.0,106.0 L 94.0,104.0 L 94.0,96.0 L 98.0,93.0" fill="#3B3B3B"/>
	<path d="M 98.0,96.0 L 103.0,97.0 L 104.0,102.0 L 102.0,104.0 L 97.0,103.0 L 96.0,98.0 L 98.0,96.0" fill="#FCFCFC"/>
	<path d="M 98.0,93.0 L 104.0,94.0 L 107.0,98.0 L 106.0,102.0 L 104.0,101.0 L 102.0,97.0 L 99.0,95.0 L 98.0,93.0" fill="#454545"/>
	<path d="M 96.0,94.0 L 101.0,94.0 L 96.0,99.0 L 94.0,102.0 L 94.0,96.0 L 96.0,94.0" fill="#1C1C1C"/>
	<path d="M 105.0,100.0 L 106.0,104.0 L 104.0,106.0 L 100.0,105.0 L 105.0,100.0" fill="#212121"/>
</svg>
