<?xml version="1.0" ?>
<svg baseProfile="full" height="600px" version="1.1" viewBox="-12.06 -12.06 144.12 144.12" width="600px" xmlns="http://www.w3.org/2000/svg" xmlns:ev="http://www.w3.org/2001/xml-events" xmlns:xlink="http://www.w3.org/1999/xlink">
	<defs/>
	<path d="M 0.0,0.0 L 120.0,0.0 L 120.0,120.0 L 0.0,120.0 L 0.0,0.0" fill="#FDFDFD"/>
	<path d="M 56.0,46.0 L 64.0,46.0 L 70.0,50.0 L 72.0,54.0 L 72.0,61.0 L 69.0,66.0 L 66.0,69.0 L 63.0,70.0 L 56.0,70.0 L 49.0,64.0 L 48.0,61.0 L 48.0,54.0 L 52.0,48.0 L 56.0,46.0" fill="#060606"/>
	<path d="M 93.0,34.0 L 99.0,34.0 L 105.0,38.0 L 108.0,42.0 L 108.0,50.0 L 104.0,56.0 L 100.0,58.0 L 91.0,58.0 L 86.0,54.0 L 84.0,49.0 L 84.0,42.0 L 89.0,36.0 L 93.0,34.0" fill="#060606"/>
	<path d="M 27.0,69.0 L 34.0,69.0 L 39.0,72.0 L 43.0,77.0 L 43.0,84.0 L 40.0,89.0 L 37.0,92.0 L 28.0,93.0 L 22.0,90.0 L 19.0,85.0 L 19.0,77.0 L 22.0,72.0 L 27.0,69.0" fill="#060606"/>
</svg>
