<?xml version="1.0" ?>
<svg baseProfile="full" height="600px" version="1.1" viewBox="-12.864 -12.864 153.728 153.728" width="600px" xmlns="http://www.w3.org/2000/svg" xmlns:ev="http://www.w3.org/2001/xml-events" xmlns:xlink="http://www.w3.org/1999/xlink">
	<defs/>
	<path d="M 0.0,0.0 L 128.0,0.0 L 128.0,128.0 L 0.0,128.0 L 0.0,0.0" fill="#FDFDFD"/>
	<path d="M 47.0,28.0 L 54.0,28.0 L 60.0,31.0 L 63.0,35.0 L 63.0,44.0 L 59.0,50.0 L 54.0,52.0 L 47.0,52.0 L 41.0,47.0 L 39.0,43.0 L 39.0,37.0 L 43.0,31.0 L 47.0,28.0" fill="#080808"/>
	<path d="M 60.0,76.0 L 67.0,76.0 L 73.0,79.0 L 76.0,84.0 L 76.0,91.0 L 73.0,97.0 L 67.0,100.0 L 60.0,100.0 L 53.0,94.0 L 52.0,91.0 L 52.0,84.0 L 55.0,79.0 L 60.0,76.0" fill="#060606"/>
	<path d="M 80.0,29.0 L 90.0,29.0 L 96.0,34.0 L 97.0,36.0 L 97.0,45.0 L 92.0,51.0 L 90.0,52.0 L 80.0,52.0 L 75.0,47.0 L 74.0,45.0 L 74.0,35.0 L 79.0,30.0 L 80.0,29.0" fill="#070707"/>
	<path d="M 62.0,84.0 L 67.0,85.0 L 68.0,90.0 L 66.0,92.0 L 61.0,91.0 L 60.0,86.0 L 62.0,84.0" fill="#EAEAEA"/>
	<path d="M 49.0,36.0 L 54.0,37.0 L 55.0,42.0 L 53.0,44.0 L 48.0,43.0 L 47.0,38.0 L 49.0,36.0" fill="#E5E5E5"/>
	<path d="M 83.0,37.0 L 88.0,37.0 L 89.0,38.0 L 89.0,43.0 L 88.0,44.0 L 83.0,44.0 L 82.0,43.0 L 82.0,38.0 L 83.0,37.0" fill="#F6F6F6"/>
</svg>
