<?xml version="1.0" ?>
<svg baseProfile="full" height="600px" version="1.1" viewBox="-12.06 -12.06 144.12 144.12" width="600px" xmlns="http://www.w3.org/2000/svg" xmlns:ev="http://www.w3.org/2001/xml-events" xmlns:xlink="http://www.w3.org/1999/xlink">
	<defs/>
	<path d="M 0.0,0.0 L 120.0,0.0 L 120.0,120.0 L 0.0,120.0 L 0.0,0.0" fill="#FDFDFD"/>
	<path d="M 79.0,48.0 L 87.0,48.0 L 93.0,53.0 L 95.0,56.0 L 95.0,63.0 L 91.0,69.0 L 86.0,72.0 L 79.0,72.0 L 73.0,68.0 L 71.0,64.0 L 71.0,55.0 L 75.0,50.0 L 79.0,48.0" fill="#060606"/>
	<path d="M 39.0,48.0 L 47.0,48.0 L 53.0,53.0 L 55.0,56.0 L 55.0,63.0 L 51.0,69.0 L 46.0,72.0 L 39.0,72.0 L 33.0,68.0 L 31.0,64.0 L 31.0,55.0 L 35.0,50.0 L 39.0,48.0" fill="#060606"/>
	<path d="M 56.0,24.0 L 67.0,24.0 L 72.0,27.0 L 74.0,29.0 L 73.0,36.0 L 70.0,39.0 L 67.0,40.0 L 56.0,40.0 L 50.0,35.0 L 50.0,29.0 L 56.0,24.0" fill="#060606"/>
</svg>
