<?xml version="1.0" ?>
<svg baseProfile="full" height="600px" version="1.1" viewBox="-20.1 -20.1 240.2 240.2" width="600px" xmlns="http://www.w3.org/2000/svg" xmlns:ev="http://www.w3.org/2001/xml-events" xmlns:xlink="http://www.w3.org/1999/xlink">
	<defs/>
	<path d="M 0.0,0.0 L 200.0,0.0 L 200.0,200.0 L 0.0,200.0 L 0.0,0.0" fill="#FDFDFD"/>
	<path d="M 96.0,76.0 L 107.0,76.0 L 116.0,80.0 L 122.0,85.0 L 126.0,93.0 L 126.0,106.0 L 122.0,115.0 L 115.0,121.0 L 108.0,124.0 L 97.0,124.0 L 87.0,119.0 L 81.0,112.0 L 79.0,108.0 L 79.0,92.0 L 85.0,83.0 L 90.0,79.0 L 96.0,76.0" fill="#080808"/>
	<path d="M 32.0,76.0 L 43.0,76.0 L 52.0,80.0 L 58.0,85.0 L 62.0,93.0 L 62.0,106.0 L 58.0,115.0 L 51.0,121.0 L 44.0,124.0 L 33.0,124.0 L 23.0,119.0 L 17.0,112.0 L 15.0,108.0 L 15.0,92.0 L 21.0,83.0 L 26.0,79.0 L 32.0,76.0" fill="#080808"/>
	<path d="M 152.0,31.0 L 163.0,31.0 L 173.0,35.0 L 180.0,43.0 L 182.0,47.0 L 182.0,57.0 L 177.0,65.0 L 171.0,70.0 L 163.0,73.0 L 152.0,73.0 L 143.0,69.0 L 138.0,64.0 L 135.0,60.0 L 134.0,56.0 L 134.0,48.0 L 137.0,41.0 L 142.0,36.0 L 149.0,32.0 L 152.0,31.0" fill="#090909"/>
	<path d="M 98.0,84.0 L 106.0,84.0 L 112.0,87.0 L 118.0,94.0 L 118.0,105.0 L 115.0,110.0 L 109.0,115.0 L 107.0,116.0 L 98.0,116.0 L 90.0,111.0 L 87.0,105.0 L 87.0,94.0 L 91.0,88.0 L 98.0,84.0" fill="#FAFAFA"/>
	<path d="M 34.0,84.0 L 42.0,84.0 L 48.0,87.0 L 54.0,94.0 L 54.0,105.0 L 51.0,110.0 L 45.0,115.0 L 43.0,116.0 L 34.0,116.0 L 26.0,111.0 L 23.0,105.0 L 23.0,94.0 L 27.0,88.0 L 34.0,84.0" fill="#FAFAFA"/>
	<path d="M 153.0,38.0 L 162.0,38.0 L 168.0,41.0 L 173.0,47.0 L 174.0,49.0 L 174.0,55.0 L 170.0,61.0 L 167.0,64.0 L 161.0,66.0 L 153.0,66.0 L 145.0,61.0 L 142.0,55.0 L 142.0,48.0 L 146.0,42.0 L 153.0,38.0" fill="#F8F8F8"/>
</svg>
