<?xml version="1.0" ?>
<svg baseProfile="full" height="600px" version="1.1" viewBox="-19.296000000000003 -19.296000000000003 230.592 230.592" width="600px" xmlns="http://www.w3.org/2000/svg" xmlns:ev="http://www.w3.org/2001/xml-events" xmlns:xlink="http://www.w3.org/1999/xlink">
	<defs/>
	<path d="M 0.0,0.0 L 192.0,0.0 L 192.0,192.0 L 0.0,192.0 L 0.0,0.0" fill="#FEFDFD"/>
	<path d="M 86.0,16.0 L 105.0,16.0 L 120.0,19.0 L 134.0,25.0 L 145.0,32.0 L 153.0,39.0 L 160.0,47.0 L 165.0,54.0 L 172.0,69.0 L 175.0,80.0 L 176.0,87.0 L 176.0,106.0 L 174.0,116.0 L 168.0,132.0 L 162.0,142.0 L 151.0,155.0 L 139.0,164.0 L 137.0,164.0 L 130.0,148.0 L 124.0,141.0 L 116.0,137.0 L 107.0,134.0 L 104.0,130.0 L 90.0,130.0 L 81.0,132.0 L 72.0,137.0 L 65.0,144.0 L 57.0,160.0 L 56.0,164.0 L 52.0,163.0 L 46.0,159.0 L 40.0,154.0 L 40.0,152.0 L 38.0,152.0 L 30.0,142.0 L 22.0,128.0 L 17.0,112.0 L 16.0,105.0 L 16.0,88.0 L 19.0,73.0 L 24.0,60.0 L 33.0,46.0 L 42.0,36.0 L 58.0,25.0 L 72.0,19.0 L 86.0,16.0" fill="#E6DBF3"/>
	<path d="M 90.0,129.0 L 104.0,129.0 L 108.0,134.0 L 121.0,138.0 L 129.0,145.0 L 136.0,159.0 L 137.0,165.0 L 125.0,171.0 L 117.0,174.0 L 107.0,176.0 L 84.0,176.0 L 69.0,172.0 L 56.0,166.0 L 57.0,157.0 L 64.0,144.0 L 73.0,135.0 L 84.0,130.0 L 90.0,129.0" fill="#FEF7C3"/>
	<path d="M 107.0,153.0 L 112.0,158.0 L 120.0,169.0 L 120.0,173.0 L 107.0,176.0 L 84.0,176.0 L 72.0,173.0 L 75.0,171.0 L 102.0,156.0 L 107.0,153.0" fill="#F9B44D"/>
</svg>
