<?xml version="1.0" ?>
<svg baseProfile="full" height="600px" version="1.1" viewBox="-12.864 -12.864 153.728 153.728" width="600px" xmlns="http://www.w3.org/2000/svg" xmlns:ev="http://www.w3.org/2001/xml-events" xmlns:xlink="http://www.w3.org/1999/xlink">
	<defs/>
	<path d="M 0.0,0.0 L 128.0,0.0 L 128.0,128.0 L 0.0,128.0 L 0.0,0.0" fill="#FDFDFD"/>
	<path d="M 56.0,20.0 L 69.0,20.0 L 81.0,23.0 L 90.0,28.0 L 98.0,35.0 L 104.0,45.0 L 108.0,56.0 L 108.0,70.0 L 106.0,78.0 L 100.0,90.0 L 94.0,97.0 L 85.0,103.0 L 75.0,107.0 L 69.0,108.0 L 56.0,108.0 L 45.0,104.0 L 35.0,98.0 L 27.0,89.0 L 22.0,78.0 L 20.0,69.0 L 20.0,57.0 L 24.0,44.0 L 32.0,33.0 L 41.0,26.0 L 49.0,22.0 L 56.0,20.0" fill="#FBFBFB"/>
	<path d="M 56.0,20.0 L 69.0,20.0 L 81.0,23.0 L 90.0,28.0 L 98.0,35.0 L 104.0,45.0 L 108.0,56.0 L 108.0,70.0 L 106.0,78.0 L 100.0,90.0 L 94.0,97.0 L 85.0,103.0 L 75.0,107.0 L 69.0,108.0 L 56.0,108.0 L 45.0,104.0 L 35.0,98.0 L 27.0,89.0 L 22.0,78.0 L 20.0,69.0 L 20.0,57.0 L 24.0,44.0 L 32.0,33.0 L 41.0,26.0 L 49.0,22.0 L 56.0,20.0 M 57.0,28.0 L 47.0,32.0 L 41.0,36.0 L 34.0,43.0 L 29.0,53.0 L 28.0,57.0 L 28.0,70.0 L 33.0,83.0 L 42.0,93.0 L 51.0,98.0 L 57.0,100.0 L 70.0,100.0 L 83.0,95.0 L 93.0,86.0 L 98.0,76.0 L 100.0,70.0 L 100.0,57.0 L 95.0,45.0 L 86.0,35.0 L 76.0,30.0 L 70.0,28.0 L 57.0,28.0" fill="#080808"/>
</svg>
