<?xml version="1.0" ?>
<svg baseProfile="full" height="600px" version="1.1" viewBox="-20.1 -20.1 240.2 240.2" width="600px" xmlns="http://www.w3.org/2000/svg" xmlns:ev="http://www.w3.org/2001/xml-events" xmlns:xlink="http://www.w3.org/1999/xlink">
	<defs/>
	<path d="M 0.0,0.0 L 200.0,0.0 L 200.0,200.0 L 0.0,200.0 L 0.0,0.0" fill="#FDFDFD"/>
	<path d="M 158.0,76.0 L 169.0,76.0 L 179.0,81.0 L 186.0,89.0 L 188.0,95.0 L 188.0,105.0 L 183.0,115.0 L 176.0,121.0 L 169.0,124.0 L 158.0,124.0 L 150.0,120.0 L 143.0,112.0 L 140.0,105.0 L 140.0,94.0 L 145.0,85.0 L 152.0,79.0 L 158.0,76.0" fill="#080808"/>
	<path d="M 160.0,84.0 L 168.0,84.0 L 176.0,89.0 L 180.0,96.0 L 180.0,103.0 L 176.0,111.0 L 170.0,115.0 L 167.0,116.0 L 160.0,116.0 L 153.0,112.0 L 149.0,106.0 L 148.0,103.0 L 148.0,96.0 L 152.0,89.0 L 157.0,85.0 L 160.0,84.0" fill="#F8F8F8"/>
	<path d="M 94.0,86.0 L 105.0,86.0 L 110.0,89.0 L 114.0,94.0 L 114.0,106.0 L 108.0,113.0 L 106.0,114.0 L 94.0,114.0 L 87.0,108.0 L 86.0,105.0 L 86.0,94.0 L 92.0,87.0 L 94.0,86.0" fill="#080808"/>
	<path d="M 33.0,87.0 L 39.0,87.0 L 46.0,91.0 L 49.0,96.0 L 49.0,103.0 L 45.0,110.0 L 39.0,113.0 L 33.0,113.0 L 27.0,109.0 L 23.0,103.0 L 23.0,97.0 L 27.0,91.0 L 30.0,88.0 L 33.0,87.0" fill="#151515"/>
	<path d="M 97.0,90.0 L 105.0,91.0 L 110.0,97.0 L 110.0,103.0 L 105.0,109.0 L 103.0,110.0 L 97.0,110.0 L 91.0,105.0 L 90.0,97.0 L 95.0,91.0 L 97.0,90.0" fill="#F1F1F1"/>
	<path d="M 32.0,92.0 L 40.0,92.0 L 44.0,96.0 L 44.0,104.0 L 40.0,108.0 L 32.0,108.0 L 28.0,104.0 L 28.0,96.0 L 32.0,92.0" fill="#F9F9F9"/>
</svg>
