<?xml version="1.0" ?>
<svg baseProfile="full" height="600px" version="1.1" viewBox="-12.864 -12.864 153.728 153.728" width="600px" xmlns="http://www.w3.org/2000/svg" xmlns:ev="http://www.w3.org/2001/xml-events" xmlns:xlink="http://www.w3.org/1999/xlink">
	<defs/>
	<path d="M 0.0,0.0 L 128.0,0.0 L 128.0,128.0 L 0.0,128.0 L 0.0,0.0" fill="#FDFDFD"/>
	<path d="M 66.0,43.0 L 73.0,43.0 L 78.0,46.0 L 82.0,51.0 L 82.0,58.0 L 78.0,64.0 L 74.0,67.0 L 66.0,67.0 L 60.0,63.0 L 58.0,59.0 L 58.0,50.0 L 62.0,45.0 L 66.0,43.0" fill="#080808"/>
	<path d="M 83.0,68.0 L 91.0,68.0 L 96.0,71.0 L 99.0,75.0 L 99.0,84.0 L 96.0,89.0 L 90.0,92.0 L 84.0,92.0 L 78.0,88.0 L 75.0,82.0 L 76.0,74.0 L 83.0,68.0" fill="#080808"/>
	<path d="M 34.0,36.0 L 42.0,37.0 L 47.0,42.0 L 49.0,45.0 L 48.0,54.0 L 43.0,59.0 L 41.0,60.0 L 32.0,60.0 L 26.0,55.0 L 25.0,53.0 L 25.0,44.0 L 30.0,38.0 L 34.0,36.0" fill="#090909"/>
	<path d="M 68.0,51.0 L 73.0,52.0 L 74.0,57.0 L 72.0,59.0 L 67.0,58.0 L 66.0,53.0 L 68.0,51.0" fill="#E6E6E6"/>
	<path d="M 85.0,76.0 L 91.0,77.0 L 91.0,82.0 L 89.0,84.0 L 84.0,83.0 L 83.0,78.0 L 85.0,76.0" fill="#E8E8E8"/>
	<path d="M 34.0,45.0 L 39.0,45.0 L 41.0,47.0 L 40.0,51.0 L 39.0,52.0 L 34.0,52.0 L 33.0,51.0 L 33.0,46.0 L 34.0,45.0" fill="#EFEFEF"/>
</svg>
