<?xml version="1.0" ?>
<svg baseProfile="full" height="600px" version="1.1" viewBox="-16.08 -16.08 192.16 192.16" width="600px" xmlns="http://www.w3.org/2000/svg" xmlns:ev="http://www.w3.org/2001/xml-events" xmlns:xlink="http://www.w3.org/1999/xlink">
	<defs/>
	<path d="M 0.0,0.0 L 160.0,0.0 L 160.0,160.0 L 0.0,160.0 L 0.0,0.0" fill="#FDFDFE"/>
	<path d="M 107.0,33.0 L 118.0,33.0 L 123.0,36.0 L 128.0,42.0 L 129.0,44.0 L 129.0,53.0 L 125.0,60.0 L 117.0,65.0 L 109.0,65.0 L 101.0,60.0 L 97.0,52.0 L 97.0,44.0 L 101.0,38.0 L 107.0,33.0" fill="#88B4ED"/>
	<path d="M 63.0,39.0 L 73.0,39.0 L 79.0,42.0 L 83.0,47.0 L 84.0,49.0 L 84.0,60.0 L 80.0,66.0 L 74.0,70.0 L 65.0,71.0 L 59.0,68.0 L 54.0,63.0 L 52.0,57.0 L 53.0,48.0 L 59.0,41.0 L 63.0,39.0" fill="#88B4ED"/>
	<path d="M 70.0,116.0 L 81.0,116.0 L 87.0,119.0 L 92.0,126.0 L 92.0,136.0 L 89.0,142.0 L 84.0,146.0 L 81.0,147.0 L 70.0,147.0 L 62.0,140.0 L 60.0,135.0 L 60.0,128.0 L 63.0,122.0 L 70.0,116.0" fill="#88B4ED"/>
	<path d="M 63.0,39.0 L 73.0,39.0 L 79.0,42.0 L 83.0,47.0 L 84.0,49.0 L 84.0,60.0 L 80.0,66.0 L 74.0,70.0 L 65.0,71.0 L 59.0,68.0 L 54.0,63.0 L 52.0,57.0 L 53.0,48.0 L 59.0,41.0 L 63.0,39.0 M 64.0,43.0 L 58.0,48.0 L 57.0,50.0 L 57.0,59.0 L 60.0,64.0 L 67.0,67.0 L 73.0,66.0 L 79.0,61.0 L 80.0,59.0 L 80.0,50.0 L 75.0,44.0 L 73.0,43.0 L 64.0,43.0" fill="#5681BA"/>
	<path d="M 70.0,116.0 L 81.0,116.0 L 87.0,119.0 L 92.0,126.0 L 92.0,136.0 L 89.0,142.0 L 84.0,146.0 L 81.0,147.0 L 70.0,147.0 L 62.0,140.0 L 60.0,135.0 L 60.0,128.0 L 63.0,122.0 L 70.0,116.0 M 71.0,120.0 L 66.0,125.0 L 64.0,129.0 L 65.0,137.0 L 70.0,142.0 L 71.0,143.0 L 80.0,143.0 L 85.0,140.0 L 88.0,135.0 L 88.0,127.0 L 83.0,121.0 L 80.0,120.0 L 71.0,120.0" fill="#5680B9"/>
	<path d="M 107.0,33.0 L 118.0,33.0 L 123.0,36.0 L 128.0,42.0 L 129.0,44.0 L 129.0,53.0 L 125.0,60.0 L 117.0,65.0 L 109.0,65.0 L 101.0,60.0 L 97.0,52.0 L 97.0,44.0 L 101.0,38.0 L 107.0,33.0 M 108.0,37.0 L 103.0,41.0 L 101.0,45.0 L 102.0,54.0 L 106.0,59.0 L 111.0,61.0 L 118.0,60.0 L 123.0,56.0 L 125.0,52.0 L 125.0,45.0 L 121.0,39.0 L 117.0,37.0 L 108.0,37.0" fill="#5680B9"/>
</svg>
