<?xml version="1.0" ?>
<svg baseProfile="full" height="600px" version="1.1" viewBox="-20.1 -20.1 240.2 240.2" width="600px" xmlns="http://www.w3.org/2000/svg" xmlns:ev="http://www.w3.org/2001/xml-events" xmlns:xlink="http://www.w3.org/1999/xlink">
	<defs/>
	<path d="M 0.0,0.0 L 200.0,0.0 L 200.0,200.0 L 0.0,200.0 L 0.0,0.0" fill="#FDFDFD"/>
	<path d="M 105.0,76.0 L 116.0,76.0 L 125.0,80.0 L 133.0,89.0 L 135.0,94.0 L 135.0,105.0 L 131.0,114.0 L 122.0,122.0 L 116.0,124.0 L 105.0,124.0 L 97.0,120.0 L 92.0,115.0 L 89.0,111.0 L 87.0,106.0 L 87.0,94.0 L 92.0,84.0 L 100.0,78.0 L 105.0,76.0" fill="#080808"/>
	<path d="M 41.0,76.0 L 52.0,76.0 L 61.0,80.0 L 69.0,89.0 L 71.0,94.0 L 71.0,105.0 L 67.0,114.0 L 58.0,122.0 L 52.0,124.0 L 41.0,124.0 L 33.0,120.0 L 28.0,115.0 L 25.0,111.0 L 23.0,106.0 L 23.0,94.0 L 28.0,84.0 L 36.0,78.0 L 41.0,76.0" fill="#080808"/>
	<path d="M 126.0,34.0 L 140.0,34.0 L 150.0,39.0 L 156.0,46.0 L 156.0,57.0 L 152.0,63.0 L 147.0,67.0 L 140.0,70.0 L 125.0,70.0 L 115.0,65.0 L 110.0,59.0 L 109.0,57.0 L 109.0,46.0 L 116.0,38.0 L 126.0,34.0" fill="#070707"/>
	<path d="M 106.0,84.0 L 114.0,84.0 L 122.0,88.0 L 126.0,93.0 L 127.0,96.0 L 127.0,103.0 L 123.0,111.0 L 118.0,115.0 L 114.0,116.0 L 106.0,116.0 L 100.0,112.0 L 96.0,107.0 L 95.0,105.0 L 95.0,95.0 L 99.0,89.0 L 104.0,85.0 L 106.0,84.0" fill="#F8F8F8"/>
	<path d="M 42.0,84.0 L 50.0,84.0 L 58.0,88.0 L 62.0,93.0 L 63.0,96.0 L 63.0,103.0 L 59.0,111.0 L 54.0,115.0 L 50.0,116.0 L 42.0,116.0 L 36.0,112.0 L 32.0,107.0 L 31.0,105.0 L 31.0,95.0 L 35.0,89.0 L 40.0,85.0 L 42.0,84.0" fill="#F8F8F8"/>
	<path d="M 127.0,40.0 L 138.0,40.0 L 146.0,45.0 L 148.0,48.0 L 148.0,56.0 L 144.0,61.0 L 138.0,64.0 L 127.0,64.0 L 120.0,60.0 L 117.0,56.0 L 117.0,48.0 L 121.0,43.0 L 127.0,40.0" fill="#FAFAFA"/>
</svg>
