<?xml version="1.0" ?>
<svg baseProfile="full" height="600px" version="1.1" viewBox="-19.296000000000003 -19.296000000000003 230.592 230.592" width="600px" xmlns="http://www.w3.org/2000/svg" xmlns:ev="http://www.w3.org/2001/xml-events" xmlns:xlink="http://www.w3.org/1999/xlink">
	<defs/>
	<path d="M 0.0,0.0 L 192.0,0.0 L 192.0,192.0 L 0.0,192.0 L 0.0,0.0" fill="#FEFEFE"/>
	<path d="M 90.0,80.0 L 102.0,80.0 L 108.0,84.0 L 112.0,90.0 L 112.0,102.0 L 108.0,108.0 L 102.0,112.0 L 90.0,112.0 L 84.0,108.0 L 80.0,102.0 L 80.0,90.0 L 84.0,84.0 L 90.0,80.0" fill="#617E8C"/>
	<path d="M 159.0,82.0 L 168.0,82.0 L 174.0,85.0 L 178.0,91.0 L 178.0,100.0 L 175.0,106.0 L 171.0,109.0 L 168.0,110.0 L 159.0,110.0 L 153.0,106.0 L 150.0,100.0 L 150.0,91.0 L 154.0,85.0 L 159.0,82.0" fill="#627F8C"/>
	<path d="M 25.0,90.0 L 31.0,90.0 L 34.0,93.0 L 34.0,99.0 L 31.0,102.0 L 25.0,102.0 L 22.0,99.0 L 22.0,93.0 L 25.0,90.0" fill="#627F8C"/>
</svg>
