<?xml version="1.0" ?>
<svg baseProfile="full" height="600px" version="1.1" viewBox="-20.1 -20.1 240.2 240.2" width="600px" xmlns="http://www.w3.org/2000/svg" xmlns:ev="http://www.w3.org/2001/xml-events" xmlns:xlink="http://www.w3.org/1999/xlink">
	<defs/>
	<path d="M 0.0,0.0 L 200.0,0.0 L 200.0,200.0 L 0.0,200.0 L 0.0,0.0" fill="#FDFDFD"/>
	<path d="M 30.0,76.0 L 41.0,76.0 L 50.0,80.0 L 57.0,87.0 L 60.0,94.0 L 60.0,105.0 L 56.0,114.0 L 49.0,121.0 L 41.0,124.0 L 30.0,124.0 L 22.0,120.0 L 14.0,111.0 L 12.0,105.0 L 12.0,94.0 L 16.0,86.0 L 23.0,79.0 L 30.0,76.0" fill="#070707"/>
	<path d="M 143.0,102.0 L 155.0,102.0 L 165.0,107.0 L 171.0,114.0 L 173.0,118.0 L 173.0,133.0 L 169.0,141.0 L 162.0,147.0 L 154.0,150.0 L 144.0,150.0 L 134.0,145.0 L 128.0,137.0 L 126.0,132.0 L 126.0,120.0 L 129.0,113.0 L 135.0,106.0 L 143.0,102.0" fill="#080808"/>
	<path d="M 107.0,50.0 L 121.0,50.0 L 129.0,54.0 L 136.0,62.0 L 138.0,68.0 L 138.0,79.0 L 135.0,87.0 L 128.0,94.0 L 121.0,97.0 L 107.0,97.0 L 97.0,91.0 L 92.0,83.0 L 90.0,77.0 L 90.0,70.0 L 93.0,61.0 L 98.0,55.0 L 107.0,50.0" fill="#080808"/>
	<path d="M 31.0,84.0 L 40.0,84.0 L 47.0,88.0 L 51.0,93.0 L 52.0,96.0 L 52.0,105.0 L 46.0,113.0 L 41.0,116.0 L 32.0,116.0 L 25.0,112.0 L 21.0,107.0 L 20.0,104.0 L 20.0,95.0 L 24.0,89.0 L 29.0,85.0 L 31.0,84.0" fill="#F8F8F8"/>
	<path d="M 109.0,58.0 L 120.0,58.0 L 126.0,62.0 L 130.0,68.0 L 130.0,78.0 L 126.0,85.0 L 120.0,89.0 L 109.0,89.0 L 103.0,85.0 L 99.0,79.0 L 98.0,70.0 L 102.0,63.0 L 107.0,59.0 L 109.0,58.0" fill="#F9F9F9"/>
	<path d="M 145.0,110.0 L 154.0,110.0 L 162.0,115.0 L 165.0,120.0 L 165.0,131.0 L 162.0,136.0 L 156.0,141.0 L 153.0,142.0 L 145.0,142.0 L 139.0,138.0 L 135.0,133.0 L 134.0,131.0 L 134.0,120.0 L 138.0,114.0 L 145.0,110.0" fill="#FAFAFA"/>
</svg>
