<?xml version="1.0" ?>
<svg baseProfile="full" height="600px" version="1.1" viewBox="-19.296000000000003 -19.296000000000003 230.592 230.592" width="600px" xmlns="http://www.w3.org/2000/svg" xmlns:ev="http://www.w3.org/2001/xml-events" xmlns:xlink="http://www.w3.org/1999/xlink">
	<defs/>
	<path d="M 0.0,0.0 L 192.0,0.0 L 192.0,192.0 L 0.0,192.0 L 0.0,0.0" fill="#FCFDFE"/>
	<path d="M 30.0,66.0 L 33.0,66.0 L 35.0,74.0 L 34.0,82.0 L 33.0,87.0 L 33.0,102.0 L 35.0,114.0 L 41.0,128.0 L 49.0,139.0 L 58.0,147.0 L 72.0,155.0 L 69.0,166.0 L 67.0,170.0 L 58.0,167.0 L 46.0,159.0 L 38.0,152.0 L 28.0,139.0 L 21.0,125.0 L 16.0,107.0 L 16.0,87.0 L 19.0,73.0 L 21.0,69.0 L 30.0,66.0" fill="#2598F3"/>
	<path d="M 88.0,16.0 L 103.0,16.0 L 119.0,19.0 L 134.0,25.0 L 147.0,34.0 L 156.0,43.0 L 155.0,53.0 L 154.0,55.0 L 146.0,54.0 L 141.0,51.0 L 131.0,43.0 L 119.0,37.0 L 110.0,34.0 L 102.0,33.0 L 86.0,33.0 L 70.0,38.0 L 58.0,45.0 L 54.0,43.0 L 46.0,34.0 L 50.0,30.0 L 64.0,22.0 L 80.0,17.0 L 88.0,16.0" fill="#2498F3"/>
	<path d="M 172.0,84.0 L 176.0,85.0 L 176.0,104.0 L 173.0,119.0 L 168.0,132.0 L 162.0,142.0 L 153.0,153.0 L 142.0,162.0 L 132.0,168.0 L 116.0,174.0 L 110.0,174.0 L 105.0,169.0 L 106.0,164.0 L 110.0,158.0 L 126.0,152.0 L 139.0,143.0 L 147.0,134.0 L 154.0,122.0 L 159.0,105.0 L 160.0,87.0 L 172.0,84.0" fill="#2698F3"/>
</svg>
