<?xml version="1.0" ?>
<svg baseProfile="full" height="600px" version="1.1" viewBox="-9.648000000000001 -9.648000000000001 115.296 115.296" width="600px" xmlns="http://www.w3.org/2000/svg" xmlns:ev="http://www.w3.org/2001/xml-events" xmlns:xlink="http://www.w3.org/1999/xlink">
	<defs/>
	<path d="M 0.0,0.0 L 96.0,0.0 L 96.0,96.0 L 0.0,96.0 L 0.0,0.0" fill="#FCFCFC"/>
	<path d="M 40.0,36.0 L 49.0,36.0 L 54.0,39.0 L 57.0,44.0 L 57.0,51.0 L 54.0,56.0 L 51.0,59.0 L 48.0,60.0 L 41.0,60.0 L 34.0,54.0 L 33.0,51.0 L 33.0,44.0 L 37.0,38.0 L 40.0,36.0" fill="#060606"/>
	<path d="M 69.0,32.0 L 77.0,32.0 L 83.0,35.0 L 86.0,40.0 L 86.0,48.0 L 81.0,54.0 L 77.0,56.0 L 70.0,56.0 L 65.0,53.0 L 62.0,47.0 L 62.0,39.0 L 66.0,34.0 L 69.0,32.0" fill="#060606"/>
	<path d="M 15.0,52.0 L 24.0,53.0 L 29.0,57.0 L 30.0,59.0 L 30.0,69.0 L 25.0,75.0 L 22.0,76.0 L 14.0,76.0 L 8.0,71.0 L 7.0,69.0 L 7.0,59.0 L 11.0,54.0 L 15.0,52.0" fill="#050505"/>
</svg>
