<?xml version="1.0" ?>
<svg baseProfile="full" height="600px" version="1.1" viewBox="-9.648000000000001 -9.648000000000001 115.296 115.296" width="600px" xmlns="http://www.w3.org/2000/svg" xmlns:ev="http://www.w3.org/2001/xml-events" xmlns:xlink="http://www.w3.org/1999/xlink">
	<defs/>
	<path d="M 0.0,0.0 L 96.0,0.0 L 96.0,96.0 L 0.0,96.0 L 0.0,0.0" fill="#FCFCFC"/>
	<path d="M 49.0,36.0 L 57.0,36.0 L 63.0,41.0 L 65.0,45.0 L 65.0,51.0 L 61.0,57.0 L 56.0,60.0 L 49.0,60.0 L 43.0,56.0 L 41.0,52.0 L 41.0,43.0 L 45.0,38.0 L 49.0,36.0" fill="#060606"/>
	<path d="M 16.0,36.0 L 23.0,36.0 L 29.0,39.0 L 32.0,43.0 L 32.0,52.0 L 28.0,58.0 L 23.0,60.0 L 16.0,60.0 L 10.0,55.0 L 8.0,51.0 L 8.0,45.0 L 12.0,39.0 L 16.0,36.0" fill="#060606"/>
	<path d="M 75.0,49.0 L 84.0,50.0 L 89.0,54.0 L 90.0,56.0 L 90.0,66.0 L 86.0,71.0 L 82.0,73.0 L 74.0,73.0 L 68.0,68.0 L 67.0,66.0 L 67.0,56.0 L 71.0,51.0 L 75.0,49.0" fill="#050505"/>
</svg>
