<?xml version="1.0" ?>
<svg baseProfile="full" height="600px" version="1.1" viewBox="-12.864 -12.864 153.728 153.728" width="600px" xmlns="http://www.w3.org/2000/svg" xmlns:ev="http://www.w3.org/2001/xml-events" xmlns:xlink="http://www.w3.org/1999/xlink">
	<defs/>
	<path d="M 0.0,0.0 L 128.0,0.0 L 128.0,128.0 L 0.0,128.0 L 0.0,0.0" fill="#FDFDFD"/>
	<path d="M 21.0,52.0 L 27.0,52.0 L 33.0,56.0 L 36.0,61.0 L 36.0,67.0 L 32.0,73.0 L 27.0,76.0 L 21.0,76.0 L 15.0,72.0 L 12.0,67.0 L 12.0,61.0 L 16.0,55.0 L 21.0,52.0" fill="#0C0C0C"/>
	<path d="M 102.0,58.0 L 108.0,59.0 L 110.0,61.0 L 109.0,68.0 L 106.0,70.0 L 101.0,70.0 L 98.0,66.0 L 98.0,61.0 L 102.0,58.0" fill="#262626"/>
	<path d="M 62.0,58.0 L 68.0,59.0 L 70.0,61.0 L 69.0,68.0 L 66.0,70.0 L 61.0,70.0 L 58.0,66.0 L 58.0,61.0 L 62.0,58.0" fill="#262626"/>
	<path d="M 22.0,60.0 L 27.0,61.0 L 28.0,66.0 L 26.0,68.0 L 21.0,67.0 L 20.0,62.0 L 22.0,60.0" fill="#DCDCDC"/>
</svg>
