<?xml version="1.0" ?>
<svg baseProfile="full" height="600px" version="1.1" viewBox="-12.06 -12.06 144.12 144.12" width="600px" xmlns="http://www.w3.org/2000/svg" xmlns:ev="http://www.w3.org/2001/xml-events" xmlns:xlink="http://www.w3.org/1999/xlink">
	<defs/>
	<path d="M 0.0,0.0 L 120.0,0.0 L 120.0,120.0 L 0.0,120.0 L 0.0,0.0" fill="#FDFDFD"/>
	<path d="M 39.0,27.0 L 47.0,27.0 L 53.0,31.0 L 55.0,34.0 L 55.0,43.0 L 51.0,49.0 L 47.0,51.0 L 39.0,51.0 L 32.0,45.0 L 31.0,42.0 L 31.0,35.0 L 37.0,28.0 L 39.0,27.0" fill="#070707"/>
	<path d="M 96.0,48.0 L 103.0,48.0 L 109.0,51.0 L 112.0,56.0 L 112.0,63.0 L 109.0,69.0 L 103.0,72.0 L 96.0,72.0 L 91.0,69.0 L 88.0,63.0 L 88.0,56.0 L 91.0,51.0 L 96.0,48.0" fill="#050505"/>
	<path d="M 36.0,72.0 L 43.0,72.0 L 49.0,75.0 L 52.0,80.0 L 52.0,87.0 L 49.0,92.0 L 46.0,95.0 L 43.0,96.0 L 36.0,96.0 L 29.0,90.0 L 28.0,87.0 L 28.0,80.0 L 31.0,75.0 L 36.0,72.0" fill="#050505"/>
</svg>
