<?xml version="1.0" ?>
<svg baseProfile="full" height="600px" version="1.1" viewBox="-16.08 -16.08 192.16 192.16" width="600px" xmlns="http://www.w3.org/2000/svg" xmlns:ev="http://www.w3.org/2001/xml-events" xmlns:xlink="http://www.w3.org/1999/xlink">
	<defs/>
	<path d="M 0.0,0.0 L 160.0,0.0 L 160.0,160.0 L 0.0,160.0 L 0.0,0.0" fill="#FDFDFE"/>
	<path d="M 15.0,80.0 L 25.0,80.0 L 31.0,84.0 L 35.0,89.0 L 36.0,91.0 L 36.0,100.0 L 33.0,106.0 L 27.0,111.0 L 25.0,112.0 L 15.0,112.0 L 9.0,108.0 L 5.0,103.0 L 4.0,101.0 L 4.0,91.0 L 8.0,85.0 L 13.0,81.0 L 15.0,80.0" fill="#88B4ED"/>
	<path d="M 76.0,50.0 L 83.0,50.0 L 91.0,54.0 L 95.0,59.0 L 96.0,63.0 L 96.0,70.0 L 92.0,78.0 L 85.0,82.0 L 74.0,82.0 L 68.0,78.0 L 64.0,71.0 L 64.0,62.0 L 68.0,55.0 L 76.0,50.0" fill="#88B4ED"/>
	<path d="M 135.0,61.0 L 146.0,61.0 L 154.0,68.0 L 156.0,72.0 L 156.0,80.0 L 152.0,88.0 L 146.0,92.0 L 143.0,93.0 L 136.0,93.0 L 128.0,88.0 L 124.0,81.0 L 124.0,72.0 L 128.0,66.0 L 132.0,62.0 L 135.0,61.0" fill="#88B4ED"/>
	<path d="M 15.0,80.0 L 25.0,80.0 L 31.0,84.0 L 35.0,89.0 L 36.0,91.0 L 36.0,100.0 L 33.0,106.0 L 27.0,111.0 L 25.0,112.0 L 15.0,112.0 L 9.0,108.0 L 5.0,103.0 L 4.0,101.0 L 4.0,91.0 L 8.0,85.0 L 13.0,81.0 L 15.0,80.0 M 17.0,84.0 L 12.0,87.0 L 9.0,90.0 L 8.0,100.0 L 14.0,107.0 L 16.0,108.0 L 24.0,108.0 L 31.0,102.0 L 32.0,99.0 L 32.0,92.0 L 26.0,85.0 L 24.0,84.0 L 17.0,84.0" fill="#5781B9"/>
	<path d="M 76.0,50.0 L 83.0,50.0 L 91.0,54.0 L 95.0,59.0 L 96.0,63.0 L 96.0,70.0 L 92.0,78.0 L 85.0,82.0 L 74.0,82.0 L 68.0,78.0 L 64.0,71.0 L 64.0,62.0 L 68.0,55.0 L 76.0,50.0 M 75.0,55.0 L 70.0,59.0 L 68.0,63.0 L 68.0,70.0 L 72.0,76.0 L 76.0,78.0 L 84.0,78.0 L 90.0,74.0 L 92.0,69.0 L 91.0,61.0 L 87.0,56.0 L 85.0,55.0 L 75.0,55.0" fill="#5781BA"/>
	<path d="M 135.0,61.0 L 146.0,61.0 L 154.0,68.0 L 156.0,72.0 L 156.0,80.0 L 152.0,88.0 L 146.0,92.0 L 143.0,93.0 L 136.0,93.0 L 128.0,88.0 L 124.0,81.0 L 124.0,72.0 L 128.0,66.0 L 132.0,62.0 L 135.0,61.0 M 136.0,65.0 L 130.0,69.0 L 128.0,73.0 L 128.0,80.0 L 132.0,86.0 L 137.0,89.0 L 145.0,88.0 L 150.0,84.0 L 152.0,79.0 L 152.0,73.0 L 148.0,67.0 L 144.0,65.0 L 136.0,65.0" fill="#5680B9"/>
</svg>
