<?xml version="1.0" ?>
<svg baseProfile="full" height="600px" version="1.1" viewBox="-20.1 -20.1 240.2 240.2" width="600px" xmlns="http://www.w3.org/2000/svg" xmlns:ev="http://www.w3.org/2001/xml-events" xmlns:xlink="http://www.w3.org/1999/xlink">
	<defs/>
	<path d="M 0.0,0.0 L 200.0,0.0 L 200.0,200.0 L 0.0,200.0 L 0.0,0.0" fill="#FDFDFD"/>
	<path d="M 93.0,84.0 L 107.0,84.0 L 117.0,90.0 L 123.0,99.0 L 124.0,102.0 L 124.0,113.0 L 119.0,123.0 L 112.0,129.0 L 105.0,132.0 L 95.0,132.0 L 85.0,127.0 L 79.0,120.0 L 76.0,113.0 L 76.0,102.0 L 81.0,92.0 L 89.0,86.0 L 93.0,84.0" fill="#080808"/>
	<path d="M 158.0,61.0 L 170.0,61.0 L 178.0,65.0 L 183.0,70.0 L 187.0,76.0 L 188.0,79.0 L 188.0,90.0 L 184.0,99.0 L 176.0,106.0 L 169.0,109.0 L 158.0,109.0 L 150.0,105.0 L 142.0,96.0 L 140.0,90.0 L 140.0,79.0 L 145.0,69.0 L 153.0,63.0 L 158.0,61.0" fill="#070707"/>
	<path d="M 30.0,84.0 L 41.0,84.0 L 50.0,88.0 L 57.0,95.0 L 60.0,102.0 L 60.0,113.0 L 56.0,122.0 L 49.0,129.0 L 41.0,132.0 L 30.0,132.0 L 22.0,128.0 L 14.0,119.0 L 12.0,113.0 L 12.0,102.0 L 16.0,94.0 L 23.0,87.0 L 30.0,84.0" fill="#070707"/>
	<path d="M 31.0,92.0 L 40.0,92.0 L 47.0,96.0 L 51.0,101.0 L 52.0,104.0 L 52.0,113.0 L 46.0,121.0 L 41.0,124.0 L 32.0,124.0 L 25.0,120.0 L 21.0,115.0 L 20.0,112.0 L 20.0,103.0 L 24.0,97.0 L 29.0,93.0 L 31.0,92.0" fill="#F8F8F8"/>
	<path d="M 159.0,69.0 L 169.0,69.0 L 175.0,73.0 L 179.0,78.0 L 180.0,80.0 L 180.0,89.0 L 175.0,97.0 L 168.0,101.0 L 160.0,101.0 L 153.0,97.0 L 149.0,91.0 L 148.0,88.0 L 148.0,80.0 L 152.0,74.0 L 157.0,70.0 L 159.0,69.0" fill="#F8F8F8"/>
	<path d="M 95.0,92.0 L 104.0,92.0 L 110.0,95.0 L 115.0,101.0 L 116.0,103.0 L 116.0,111.0 L 112.0,119.0 L 106.0,123.0 L 103.0,124.0 L 96.0,124.0 L 87.0,118.0 L 84.0,112.0 L 84.0,103.0 L 88.0,97.0 L 93.0,93.0 L 95.0,92.0" fill="#F9F9F9"/>
</svg>
