<?xml version="1.0" ?>
<svg baseProfile="full" height="600px" version="1.1" viewBox="-19.296000000000003 -19.296000000000003 230.592 230.592" width="600px" xmlns="http://www.w3.org/2000/svg" xmlns:ev="http://www.w3.org/2001/xml-events" xmlns:xlink="http://www.w3.org/1999/xlink">
	<defs/>
	<path d="M 0.0,0.0 L 192.0,0.0 L 192.0,192.0 L 0.0,192.0 L 0.0,0.0" fill="#FEFEFE"/>
	<path d="M 90.0,76.0 L 101.0,76.0 L 109.0,80.0 L 115.0,88.0 L 116.0,90.0 L 116.0,101.0 L 112.0,109.0 L 104.0,115.0 L 101.0,116.0 L 90.0,116.0 L 81.0,110.0 L 77.0,104.0 L 76.0,101.0 L 76.0,90.0 L 81.0,82.0 L 90.0,76.0" fill="#627F8C"/>
	<path d="M 160.0,85.0 L 167.0,85.0 L 173.0,89.0 L 175.0,92.0 L 175.0,99.0 L 171.0,105.0 L 167.0,107.0 L 160.0,107.0 L 155.0,103.0 L 153.0,99.0 L 153.0,92.0 L 157.0,87.0 L 160.0,85.0" fill="#65818E"/>
	<path d="M 25.0,86.0 L 31.0,86.0 L 37.0,91.0 L 38.0,93.0 L 38.0,99.0 L 33.0,105.0 L 31.0,106.0 L 25.0,106.0 L 19.0,101.0 L 18.0,99.0 L 18.0,93.0 L 23.0,87.0 L 25.0,86.0" fill="#668290"/>
</svg>
