<?xml version="1.0" ?>
<svg baseProfile="full" height="600px" version="1.1" viewBox="-19.296000000000003 -19.296000000000003 230.592 230.592" width="600px" xmlns="http://www.w3.org/2000/svg" xmlns:ev="http://www.w3.org/2001/xml-events" xmlns:xlink="http://www.w3.org/1999/xlink">
	<defs/>
	<path d="M 0.0,0.0 L 192.0,0.0 L 192.0,192.0 L 0.0,192.0 L 0.0,0.0" fill="#E5DBF3"/>
	<path d="M 0.0,0.0 L 192.0,0.0 L 192.0,192.0 L 0.0,192.0 L 0.0,0.0 M 88.0,16.0 L 76.0,18.0 L 60.0,24.0 L 50.0,30.0 L 39.0,39.0 L 32.0,47.0 L 24.0,60.0 L 19.0,73.0 L 16.0,86.0 L 16.0,107.0 L 20.0,123.0 L 25.0,134.0 L 33.0,146.0 L 38.0,152.0 L 40.0,152.0 L 40.0,154.0 L 51.0,163.0 L 66.0,171.0 L 79.0,175.0 L 84.0,176.0 L 106.0,176.0 L 119.0,173.0 L 132.0,168.0 L 145.0,160.0 L 155.0,151.0 L 164.0,139.0 L 171.0,125.0 L 175.0,111.0 L 176.0,104.0 L 176.0,89.0 L 174.0,77.0 L 171.0,66.0 L 164.0,53.0 L 157.0,44.0 L 153.0,39.0 L 142.0,30.0 L 133.0,24.0 L 120.0,19.0 L 107.0,16.0 L 88.0,16.0" fill="#FDFDFE"/>
	<path d="M 78.0,124.0 L 80.0,124.0 L 83.0,133.0 L 88.0,138.0 L 91.0,139.0 L 100.0,139.0 L 107.0,136.0 L 111.0,128.0 L 112.0,124.0 L 121.0,127.0 L 130.0,133.0 L 138.0,141.0 L 143.0,152.0 L 144.0,161.0 L 128.0,170.0 L 117.0,174.0 L 106.0,176.0 L 84.0,176.0 L 69.0,172.0 L 53.0,164.0 L 49.0,161.0 L 49.0,152.0 L 55.0,140.0 L 59.0,135.0 L 69.0,128.0 L 78.0,124.0" fill="#673BB6"/>
	<path d="M 108.0,64.0 L 115.0,70.0 L 120.0,76.0 L 121.0,91.0 L 127.0,86.0 L 128.0,87.0 L 127.0,94.0 L 123.0,96.0 L 122.0,104.0 L 116.0,112.0 L 113.0,115.0 L 112.0,128.0 L 108.0,136.0 L 104.0,139.0 L 100.0,140.0 L 91.0,140.0 L 84.0,136.0 L 80.0,128.0 L 79.0,115.0 L 71.0,106.0 L 67.0,96.0 L 64.0,92.0 L 64.0,87.0 L 67.0,86.0 L 72.0,91.0 L 72.0,76.0 L 82.0,72.0 L 102.0,66.0 L 108.0,64.0" fill="#FDB64D"/>
	<path d="M 89.0,44.0 L 106.0,44.0 L 108.0,50.0 L 117.0,53.0 L 122.0,58.0 L 126.0,64.0 L 128.0,71.0 L 128.0,85.0 L 121.0,92.0 L 120.0,92.0 L 119.0,76.0 L 112.0,68.0 L 108.0,65.0 L 86.0,72.0 L 73.0,76.0 L 72.0,91.0 L 68.0,89.0 L 67.0,86.0 L 65.0,86.0 L 64.0,84.0 L 64.0,70.0 L 68.0,61.0 L 72.0,55.0 L 80.0,48.0 L 89.0,44.0" fill="#FEF7C3"/>
	<path d="M 80.0,115.0 L 89.0,119.0 L 101.0,119.0 L 110.0,116.0 L 112.0,115.0 L 112.0,128.0 L 108.0,136.0 L 104.0,139.0 L 100.0,140.0 L 91.0,140.0 L 84.0,136.0 L 80.0,128.0 L 80.0,115.0" fill="#FC9602"/>
	<path d="M 78.0,124.0 L 80.0,124.0 L 83.0,133.0 L 88.0,138.0 L 91.0,139.0 L 100.0,139.0 L 107.0,136.0 L 111.0,128.0 L 112.0,124.0 L 119.0,126.0 L 120.0,128.0 L 117.0,137.0 L 109.0,145.0 L 102.0,148.0 L 90.0,148.0 L 82.0,144.0 L 77.0,139.0 L 73.0,132.0 L 72.0,127.0 L 78.0,124.0" fill="#351E91"/>
	<path d="M 106.0,84.0 L 111.0,85.0 L 112.0,90.0 L 110.0,92.0 L 105.0,91.0 L 104.0,86.0 L 106.0,84.0" fill="#7F4C1B"/>
	<path d="M 82.0,84.0 L 87.0,85.0 L 88.0,90.0 L 86.0,92.0 L 81.0,91.0 L 80.0,86.0 L 82.0,84.0" fill="#7F4C1B"/>
	<path d="M 65.0,86.0 L 67.0,86.0 L 68.0,88.0 L 68.0,95.0 L 65.0,94.0 L 64.0,87.0 L 65.0,86.0" fill="#FD9C10"/>
	<path d="M 126.0,86.0 L 128.0,87.0 L 127.0,94.0 L 124.0,95.0 L 124.0,88.0 L 126.0,86.0" fill="#FD9B0D"/>
</svg>
