<?xml version="1.0" ?>
<svg baseProfile="full" height="600px" version="1.1" viewBox="-16.08 -16.08 192.16 192.16" width="600px" xmlns="http://www.w3.org/2000/svg" xmlns:ev="http://www.w3.org/2001/xml-events" xmlns:xlink="http://www.w3.org/1999/xlink">
	<defs/>
	<path d="M 0.0,0.0 L 160.0,0.0 L 160.0,160.0 L 0.0,160.0 L 0.0,0.0" fill="#FDFDFE"/>
	<path d="M 134.0,65.0 L 145.0,65.0 L 150.0,68.0 L 155.0,74.0 L 155.0,85.0 L 152.0,90.0 L 148.0,94.0 L 145.0,95.0 L 134.0,95.0 L 126.0,88.0 L 125.0,85.0 L 125.0,74.0 L 132.0,66.0 L 134.0,65.0" fill="#88B4ED"/>
	<path d="M 76.0,67.0 L 83.0,67.0 L 89.0,70.0 L 93.0,76.0 L 93.0,83.0 L 90.0,89.0 L 86.0,92.0 L 83.0,93.0 L 76.0,93.0 L 70.0,89.0 L 67.0,83.0 L 67.0,76.0 L 71.0,70.0 L 76.0,67.0" fill="#87B3EC"/>
	<path d="M 134.0,65.0 L 145.0,65.0 L 150.0,68.0 L 155.0,74.0 L 155.0,85.0 L 152.0,90.0 L 148.0,94.0 L 145.0,95.0 L 134.0,95.0 L 126.0,88.0 L 125.0,85.0 L 125.0,74.0 L 132.0,66.0 L 134.0,65.0 M 135.0,69.0 L 130.0,73.0 L 129.0,75.0 L 129.0,85.0 L 133.0,90.0 L 135.0,91.0 L 145.0,91.0 L 150.0,87.0 L 151.0,85.0 L 151.0,75.0 L 146.0,70.0 L 145.0,69.0 L 135.0,69.0" fill="#547FB9"/>
	<path d="M 76.0,67.0 L 83.0,67.0 L 89.0,70.0 L 93.0,76.0 L 93.0,83.0 L 90.0,89.0 L 86.0,92.0 L 83.0,93.0 L 76.0,93.0 L 70.0,89.0 L 67.0,83.0 L 67.0,76.0 L 71.0,70.0 L 76.0,67.0 M 77.0,70.0 L 71.0,75.0 L 70.0,82.0 L 73.0,87.0 L 77.0,90.0 L 83.0,90.0 L 89.0,85.0 L 90.0,83.0 L 90.0,77.0 L 85.0,71.0 L 77.0,70.0" fill="#5580B8"/>
	<path d="M 17.0,76.0 L 23.0,76.0 L 24.0,77.0 L 24.0,83.0 L 23.0,84.0 L 17.0,84.0 L 16.0,83.0 L 16.0,77.0 L 17.0,76.0" fill="#78A2D8"/>
</svg>
