<?xml version="1.0" ?>
<svg baseProfile="full" height="600px" version="1.1" viewBox="-20.1 -20.1 240.2 240.2" width="600px" xmlns="http://www.w3.org/2000/svg" xmlns:ev="http://www.w3.org/2001/xml-events" xmlns:xlink="http://www.w3.org/1999/xlink">
	<defs/>
	<path d="M 0.0,0.0 L 200.0,0.0 L 200.0,200.0 L 0.0,200.0 L 0.0,0.0" fill="#FDFDFD"/>
	<path d="M 98.0,16.0 L 103.0,17.0 L 108.0,27.0 L 128.0,77.0 L 143.0,113.0 L 162.0,160.0 L 169.0,177.0 L 169.0,182.0 L 167.0,184.0 L 33.0,184.0 L 31.0,182.0 L 32.0,175.0 L 47.0,138.0 L 67.0,89.0 L 89.0,35.0 L 96.0,18.0 L 98.0,16.0" fill="#FCFCFC"/>
	<path d="M 98.0,16.0 L 103.0,17.0 L 108.0,27.0 L 128.0,77.0 L 143.0,113.0 L 162.0,160.0 L 169.0,177.0 L 169.0,182.0 L 167.0,184.0 L 33.0,184.0 L 31.0,182.0 L 32.0,175.0 L 47.0,138.0 L 67.0,89.0 L 89.0,35.0 L 96.0,18.0 L 98.0,16.0 M 99.0,32.0 L 83.0,71.0 L 63.0,120.0 L 41.0,174.0 L 41.0,176.0 L 159.0,176.0 L 156.0,167.0 L 141.0,130.0 L 121.0,81.0 L 106.0,44.0 L 101.0,32.0 L 99.0,32.0" fill="#060606"/>
</svg>
