<?xml version="1.0" ?>
<svg baseProfile="full" height="600px" version="1.1" viewBox="-9.648000000000001 -9.648000000000001 115.296 115.296" width="600px" xmlns="http://www.w3.org/2000/svg" xmlns:ev="http://www.w3.org/2001/xml-events" xmlns:xlink="http://www.w3.org/1999/xlink">
	<defs/>
	<path d="M 0.0,0.0 L 96.0,0.0 L 96.0,96.0 L 0.0,96.0 L 0.0,0.0" fill="#FCFCFC"/>
	<path d="M 46.0,34.0 L 55.0,34.0 L 60.0,37.0 L 63.0,42.0 L 63.0,49.0 L 59.0,55.0 L 54.0,58.0 L 47.0,58.0 L 40.0,52.0 L 39.0,50.0 L 39.0,41.0 L 44.0,35.0 L 46.0,34.0" fill="#070707"/>
	<path d="M 17.0,32.0 L 26.0,32.0 L 31.0,35.0 L 34.0,40.0 L 34.0,48.0 L 29.0,54.0 L 25.0,56.0 L 18.0,56.0 L 11.0,50.0 L 10.0,47.0 L 10.0,39.0 L 15.0,33.0 L 17.0,32.0" fill="#070707"/>
	<path d="M 75.0,35.0 L 85.0,35.0 L 90.0,39.0 L 92.0,43.0 L 92.0,51.0 L 87.0,57.0 L 85.0,58.0 L 75.0,58.0 L 70.0,54.0 L 68.0,51.0 L 68.0,44.0 L 71.0,38.0 L 75.0,35.0" fill="#050505"/>
</svg>
