<?xml version="1.0" ?>
<svg baseProfile="full" height="600px" version="1.1" viewBox="-20.1 -20.1 240.2 240.2" width="600px" xmlns="http://www.w3.org/2000/svg" xmlns:ev="http://www.w3.org/2001/xml-events" xmlns:xlink="http://www.w3.org/1999/xlink">
	<defs/>
	<path d="M 0.0,0.0 L 200.0,0.0 L 200.0,200.0 L 0.0,200.0 L 0.0,0.0" fill="#FDFDFD"/>
	<path d="M 29.0,77.0 L 42.0,77.0 L 52.0,82.0 L 58.0,90.0 L 59.0,93.0 L 59.0,106.0 L 54.0,116.0 L 49.0,120.0 L 42.0,123.0 L 29.0,123.0 L 23.0,120.0 L 18.0,116.0 L 14.0,109.0 L 13.0,106.0 L 13.0,93.0 L 17.0,85.0 L 26.0,78.0 L 29.0,77.0" fill="#0A0A0A"/>
	<path d="M 96.0,82.0 L 104.0,82.0 L 112.0,86.0 L 117.0,92.0 L 118.0,95.0 L 118.0,104.0 L 114.0,112.0 L 109.0,116.0 L 104.0,118.0 L 96.0,118.0 L 89.0,115.0 L 83.0,108.0 L 82.0,104.0 L 82.0,96.0 L 85.0,89.0 L 92.0,83.0 L 96.0,82.0" fill="#080808"/>
	<path d="M 30.0,85.0 L 41.0,85.0 L 46.0,88.0 L 51.0,94.0 L 51.0,106.0 L 47.0,112.0 L 42.0,115.0 L 30.0,115.0 L 22.0,108.0 L 21.0,105.0 L 21.0,94.0 L 25.0,88.0 L 30.0,85.0" fill="#FBFBFB"/>
	<path d="M 96.0,88.0 L 103.0,88.0 L 108.0,91.0 L 112.0,96.0 L 112.0,103.0 L 109.0,108.0 L 106.0,111.0 L 103.0,112.0 L 96.0,112.0 L 89.0,106.0 L 88.0,103.0 L 88.0,96.0 L 94.0,89.0 L 96.0,88.0" fill="#F9F9F9"/>
	<path d="M 160.0,94.0 L 167.0,94.0 L 170.0,97.0 L 170.0,103.0 L 166.0,107.0 L 160.0,106.0 L 157.0,102.0 L 158.0,96.0 L 160.0,94.0" fill="#1C1C1C"/>
	<path d="M 162.0,96.0 L 167.0,97.0 L 168.0,102.0 L 166.0,104.0 L 160.0,103.0 L 160.0,98.0 L 162.0,96.0" fill="#F9F9F9"/>
	<path d="M 157.0,98.0 L 160.0,99.0 L 160.0,103.0 L 165.0,104.0 L 166.0,107.0 L 160.0,106.0 L 157.0,102.0 L 157.0,98.0" fill="#444444"/>
</svg>
