<?xml version="1.0" ?>
<svg baseProfile="full" height="600px" version="1.1" viewBox="-20.1 -20.1 240.2 240.2" width="600px" xmlns="http://www.w3.org/2000/svg" xmlns:ev="http://www.w3.org/2001/xml-events" xmlns:xlink="http://www.w3.org/1999/xlink">
	<defs/>
	<path d="M 0.0,0.0 L 200.0,0.0 L 200.0,200.0 L 0.0,200.0 L 0.0,0.0" fill="#FDFDFD"/>
	<path d="M 76.0,109.0 L 86.0,109.0 L 95.0,113.0 L 100.0,118.0 L 104.0,124.0 L 105.0,128.0 L 105.0,140.0 L 100.0,149.0 L 92.0,155.0 L 87.0,157.0 L 75.0,157.0 L 67.0,153.0 L 60.0,145.0 L 57.0,138.0 L 57.0,128.0 L 62.0,118.0 L 69.0,112.0 L 76.0,109.0" fill="#080808"/>
	<path d="M 49.0,43.0 L 60.0,43.0 L 68.0,46.0 L 75.0,53.0 L 79.0,62.0 L 79.0,71.0 L 75.0,80.0 L 70.0,86.0 L 62.0,90.0 L 59.0,91.0 L 50.0,91.0 L 41.0,87.0 L 36.0,82.0 L 31.0,74.0 L 31.0,61.0 L 34.0,54.0 L 40.0,47.0 L 45.0,44.0 L 49.0,43.0" fill="#0A0A0A"/>
	<path d="M 158.0,76.0 L 169.0,76.0 L 178.0,80.0 L 185.0,87.0 L 188.0,94.0 L 188.0,105.0 L 184.0,114.0 L 177.0,121.0 L 169.0,124.0 L 158.0,124.0 L 150.0,120.0 L 142.0,111.0 L 140.0,105.0 L 140.0,94.0 L 144.0,86.0 L 151.0,79.0 L 158.0,76.0" fill="#070707"/>
	<path d="M 159.0,84.0 L 168.0,84.0 L 175.0,88.0 L 179.0,93.0 L 180.0,96.0 L 180.0,105.0 L 174.0,113.0 L 169.0,116.0 L 160.0,116.0 L 153.0,112.0 L 149.0,107.0 L 148.0,104.0 L 148.0,95.0 L 152.0,89.0 L 157.0,85.0 L 159.0,84.0" fill="#F8F8F8"/>
	<path d="M 77.0,117.0 L 84.0,117.0 L 92.0,121.0 L 96.0,126.0 L 97.0,128.0 L 97.0,137.0 L 94.0,143.0 L 88.0,148.0 L 86.0,149.0 L 76.0,149.0 L 68.0,143.0 L 65.0,136.0 L 65.0,129.0 L 70.0,121.0 L 77.0,117.0" fill="#F9F9F9"/>
	<path d="M 49.0,51.0 L 59.0,51.0 L 65.0,54.0 L 69.0,59.0 L 70.0,61.0 L 70.0,72.0 L 67.0,77.0 L 63.0,81.0 L 60.0,82.0 L 48.0,82.0 L 41.0,76.0 L 39.0,71.0 L 39.0,61.0 L 44.0,54.0 L 49.0,51.0" fill="#FAFAFA"/>
</svg>
