<?xml version="1.0" ?>
<svg baseProfile="full" height="600px" version="1.1" viewBox="-20.1 -20.1 240.2 240.2" width="600px" xmlns="http://www.w3.org/2000/svg" xmlns:ev="http://www.w3.org/2001/xml-events" xmlns:xlink="http://www.w3.org/1999/xlink">
	<defs/>
	<path d="M 0.0,0.0 L 200.0,0.0 L 200.0,200.0 L 0.0,200.0 L 0.0,0.0" fill="#FDFDFD"/>
	<path d="M 155.0,76.0 L 167.0,76.0 L 177.0,81.0 L 183.0,89.0 L 185.0,95.0 L 185.0,105.0 L 182.0,113.0 L 177.0,119.0 L 169.0,123.0 L 166.0,124.0 L 155.0,124.0 L 147.0,120.0 L 140.0,112.0 L 137.0,104.0 L 137.0,95.0 L 142.0,85.0 L 150.0,78.0 L 155.0,76.0" fill="#080808"/>
	<path d="M 39.0,103.0 L 54.0,103.0 L 62.0,108.0 L 68.0,115.0 L 70.0,120.0 L 70.0,132.0 L 66.0,141.0 L 58.0,148.0 L 54.0,150.0 L 39.0,150.0 L 30.0,145.0 L 24.0,137.0 L 22.0,131.0 L 22.0,121.0 L 27.0,111.0 L 34.0,105.0 L 39.0,103.0" fill="#090909"/>
	<path d="M 102.0,76.0 L 113.0,76.0 L 123.0,81.0 L 129.0,88.0 L 131.0,94.0 L 131.0,106.0 L 128.0,113.0 L 123.0,119.0 L 115.0,123.0 L 112.0,124.0 L 101.0,124.0 L 92.0,119.0 L 86.0,112.0 L 84.0,108.0 L 84.0,92.0 L 90.0,83.0 L 95.0,79.0 L 102.0,76.0" fill="#080808"/>
	<path d="M 157.0,84.0 L 164.0,84.0 L 171.0,87.0 L 176.0,93.0 L 177.0,95.0 L 177.0,104.0 L 174.0,110.0 L 168.0,115.0 L 166.0,116.0 L 157.0,116.0 L 149.0,111.0 L 145.0,103.0 L 145.0,96.0 L 150.0,88.0 L 157.0,84.0" fill="#F9F9F9"/>
	<path d="M 40.0,111.0 L 51.0,111.0 L 58.0,115.0 L 62.0,121.0 L 62.0,132.0 L 57.0,139.0 L 51.0,142.0 L 41.0,142.0 L 35.0,138.0 L 31.0,133.0 L 30.0,130.0 L 30.0,123.0 L 33.0,117.0 L 40.0,111.0" fill="#F9F9F9"/>
	<path d="M 103.0,84.0 L 111.0,84.0 L 117.0,87.0 L 123.0,94.0 L 123.0,105.0 L 119.0,111.0 L 114.0,115.0 L 111.0,116.0 L 103.0,116.0 L 95.0,111.0 L 92.0,105.0 L 92.0,94.0 L 96.0,88.0 L 103.0,84.0" fill="#FAFAFA"/>
</svg>
