<?xml version="1.0" ?>
<svg baseProfile="full" height="600px" version="1.1" viewBox="-19.296000000000003 -19.296000000000003 230.592 230.592" width="600px" xmlns="http://www.w3.org/2000/svg" xmlns:ev="http://www.w3.org/2001/xml-events" xmlns:xlink="http://www.w3.org/1999/xlink">
	<defs/>
	<path d="M 0.0,0.0 L 192.0,0.0 L 192.0,192.0 L 0.0,192.0 L 0.0,0.0" fill="#ECE6F5"/>
	<path d="M 0.0,0.0 L 192.0,0.0 L 192.0,192.0 L 0.0,192.0 L 0.0,0.0 M 88.0,16.0 L 76.0,18.0 L 64.0,22.0 L 56.0,26.0 L 45.0,34.0 L 37.0,41.0 L 28.0,53.0 L 21.0,67.0 L 17.0,81.0 L 16.0,88.0 L 16.0,107.0 L 20.0,123.0 L 23.0,130.0 L 30.0,142.0 L 38.0,152.0 L 40.0,152.0 L 40.0,154.0 L 50.0,162.0 L 58.0,167.0 L 66.0,171.0 L 79.0,175.0 L 88.0,176.0 L 106.0,176.0 L 122.0,172.0 L 132.0,168.0 L 142.0,162.0 L 145.0,160.0 L 145.0,158.0 L 149.0,157.0 L 149.0,155.0 L 153.0,153.0 L 155.0,149.0 L 157.0,149.0 L 163.0,141.0 L 169.0,129.0 L 173.0,119.0 L 176.0,106.0 L 176.0,85.0 L 171.0,66.0 L 164.0,53.0 L 158.0,45.0 L 153.0,39.0 L 143.0,31.0 L 134.0,25.0 L 120.0,19.0 L 107.0,16.0 L 88.0,16.0" fill="#FDFDFE"/>
	<path d="M 88.0,168.0 L 106.0,168.0 L 109.0,175.0 L 106.0,176.0 L 88.0,176.0 L 79.0,175.0 L 78.0,173.0 L 88.0,168.0" fill="#FE5E2B"/>
</svg>
