<?xml version="1.0" ?>
<svg baseProfile="full" height="600px" version="1.1" viewBox="-9.648000000000001 -9.648000000000001 115.296 115.296" width="600px" xmlns="http://www.w3.org/2000/svg" xmlns:ev="http://www.w3.org/2001/xml-events" xmlns:xlink="http://www.w3.org/1999/xlink">
	<defs/>
	<path d="M 0.0,0.0 L 96.0,0.0 L 96.0,96.0 L 0.0,96.0 L 0.0,0.0" fill="#FDFDFD"/>
	<path d="M 12.0,36.0 L 19.0,36.0 L 25.0,40.0 L 28.0,45.0 L 28.0,51.0 L 24.0,57.0 L 19.0,60.0 L 13.0,60.0 L 7.0,56.0 L 4.0,51.0 L 4.0,45.0 L 8.0,39.0 L 12.0,36.0" fill="#080808"/>
	<path d="M 44.0,39.0 L 51.0,39.0 L 57.0,44.0 L 57.0,51.0 L 53.0,56.0 L 51.0,57.0 L 44.0,57.0 L 39.0,51.0 L 39.0,44.0 L 44.0,39.0" fill="#060606"/>
	<path d="M 78.0,45.0 L 83.0,46.0 L 82.0,51.0 L 77.0,50.0 L 78.0,45.0" fill="#070707"/>
</svg>
