<?xml version="1.0" ?>
<svg baseProfile="full" height="600px" version="1.1" viewBox="-19.296000000000003 -19.296000000000003 230.592 230.592" width="600px" xmlns="http://www.w3.org/2000/svg" xmlns:ev="http://www.w3.org/2001/xml-events" xmlns:xlink="http://www.w3.org/1999/xlink">
	<defs/>
	<path d="M 0.0,0.0 L 192.0,0.0 L 192.0,192.0 L 0.0,192.0 L 0.0,0.0" fill="#FCFDFE"/>
	<path d="M 154.0,123.0 L 164.0,126.0 L 169.0,128.0 L 167.0,134.0 L 159.0,146.0 L 151.0,155.0 L 139.0,164.0 L 125.0,171.0 L 111.0,175.0 L 104.0,176.0 L 89.0,176.0 L 76.0,174.0 L 65.0,171.0 L 63.0,168.0 L 61.0,157.0 L 66.0,155.0 L 76.0,154.0 L 75.0,157.0 L 87.0,159.0 L 103.0,159.0 L 119.0,155.0 L 131.0,149.0 L 142.0,140.0 L 150.0,129.0 L 154.0,123.0" fill="#2598F3"/>
	<path d="M 46.0,31.0 L 60.0,34.0 L 58.0,43.0 L 56.0,49.0 L 52.0,50.0 L 45.0,58.0 L 38.0,70.0 L 34.0,83.0 L 33.0,88.0 L 33.0,102.0 L 35.0,114.0 L 41.0,128.0 L 44.0,132.0 L 44.0,134.0 L 35.0,141.0 L 31.0,143.0 L 23.0,130.0 L 19.0,120.0 L 16.0,107.0 L 16.0,86.0 L 20.0,69.0 L 28.0,53.0 L 36.0,43.0 L 45.0,34.0 L 46.0,31.0" fill="#2598F3"/>
	<path d="M 88.0,16.0 L 103.0,16.0 L 120.0,19.0 L 136.0,26.0 L 147.0,34.0 L 155.0,41.0 L 164.0,53.0 L 172.0,69.0 L 175.0,80.0 L 175.0,85.0 L 177.0,86.0 L 168.0,94.0 L 160.0,88.0 L 157.0,86.0 L 157.0,78.0 L 151.0,64.0 L 142.0,52.0 L 134.0,45.0 L 120.0,37.0 L 109.0,34.0 L 90.0,32.0 L 88.0,23.0 L 88.0,16.0" fill="#2598F3"/>
</svg>
