<?xml version="1.0" ?>
<svg baseProfile="full" height="600px" version="1.1" viewBox="-20.1 -20.1 240.2 240.2" width="600px" xmlns="http://www.w3.org/2000/svg" xmlns:ev="http://www.w3.org/2001/xml-events" xmlns:xlink="http://www.w3.org/1999/xlink">
	<defs/>
	<path d="M 0.0,0.0 L 200.0,0.0 L 200.0,200.0 L 0.0,200.0 L 0.0,0.0" fill="#FDFDFD"/>
	<path d="M 45.0,76.0 L 55.0,76.0 L 65.0,80.0 L 72.0,88.0 L 75.0,95.0 L 75.0,105.0 L 70.0,115.0 L 63.0,121.0 L 56.0,124.0 L 45.0,124.0 L 35.0,119.0 L 29.0,111.0 L 27.0,105.0 L 27.0,93.0 L 33.0,83.0 L 42.0,77.0 L 45.0,76.0" fill="#070707"/>
	<path d="M 102.0,76.0 L 113.0,76.0 L 122.0,80.0 L 130.0,89.0 L 132.0,94.0 L 132.0,105.0 L 127.0,115.0 L 119.0,122.0 L 113.0,124.0 L 102.0,124.0 L 94.0,120.0 L 89.0,115.0 L 86.0,111.0 L 84.0,105.0 L 84.0,94.0 L 88.0,86.0 L 93.0,81.0 L 99.0,77.0 L 102.0,76.0" fill="#070707"/>
	<path d="M 158.0,72.0 L 169.0,72.0 L 178.0,76.0 L 185.0,83.0 L 188.0,90.0 L 188.0,101.0 L 184.0,110.0 L 177.0,117.0 L 169.0,120.0 L 158.0,120.0 L 150.0,116.0 L 142.0,107.0 L 140.0,101.0 L 140.0,90.0 L 144.0,82.0 L 151.0,75.0 L 158.0,72.0" fill="#070707"/>
	<path d="M 159.0,80.0 L 168.0,80.0 L 175.0,84.0 L 179.0,89.0 L 180.0,92.0 L 180.0,101.0 L 174.0,109.0 L 169.0,112.0 L 160.0,112.0 L 153.0,108.0 L 149.0,103.0 L 148.0,100.0 L 148.0,91.0 L 152.0,85.0 L 157.0,81.0 L 159.0,80.0" fill="#F8F8F8"/>
	<path d="M 103.0,84.0 L 112.0,84.0 L 120.0,89.0 L 124.0,96.0 L 124.0,103.0 L 120.0,111.0 L 114.0,115.0 L 111.0,116.0 L 103.0,116.0 L 97.0,112.0 L 93.0,107.0 L 92.0,104.0 L 92.0,95.0 L 96.0,89.0 L 101.0,85.0 L 103.0,84.0" fill="#F8F8F8"/>
	<path d="M 46.0,84.0 L 54.0,84.0 L 62.0,88.0 L 67.0,96.0 L 67.0,103.0 L 63.0,111.0 L 57.0,115.0 L 54.0,116.0 L 46.0,116.0 L 40.0,112.0 L 36.0,107.0 L 35.0,105.0 L 35.0,95.0 L 39.0,89.0 L 44.0,85.0 L 46.0,84.0" fill="#F9F9F9"/>
</svg>
