<?xml version="1.0" ?>
<svg baseProfile="full" height="600px" version="1.1" viewBox="-12.864 -12.864 153.728 153.728" width="600px" xmlns="http://www.w3.org/2000/svg" xmlns:ev="http://www.w3.org/2001/xml-events" xmlns:xlink="http://www.w3.org/1999/xlink">
	<defs/>
	<path d="M 0.0,0.0 L 128.0,0.0 L 128.0,128.0 L 0.0,128.0 L 0.0,0.0" fill="#FDFDFD"/>
	<path d="M 59.0,60.0 L 68.0,60.0 L 74.0,64.0 L 76.0,68.0 L 76.0,76.0 L 71.0,82.0 L 67.0,84.0 L 61.0,84.0 L 55.0,80.0 L 52.0,75.0 L 52.0,68.0 L 56.0,62.0 L 59.0,60.0" fill="#090909"/>
	<path d="M 21.0,60.0 L 27.0,60.0 L 33.0,64.0 L 36.0,68.0 L 36.0,75.0 L 33.0,81.0 L 28.0,84.0 L 19.0,84.0 L 14.0,80.0 L 12.0,75.0 L 12.0,68.0 L 17.0,62.0 L 21.0,60.0" fill="#070707"/>
	<path d="M 99.0,37.0 L 108.0,37.0 L 114.0,41.0 L 116.0,45.0 L 116.0,52.0 L 113.0,57.0 L 107.0,61.0 L 101.0,61.0 L 95.0,57.0 L 92.0,53.0 L 92.0,46.0 L 95.0,40.0 L 99.0,37.0" fill="#080808"/>
	<path d="M 22.0,68.0 L 27.0,69.0 L 28.0,74.0 L 26.0,76.0 L 21.0,75.0 L 20.0,70.0 L 22.0,68.0" fill="#E6E6E6"/>
	<path d="M 62.0,68.0 L 67.0,69.0 L 68.0,74.0 L 67.0,75.0 L 61.0,75.0 L 60.0,70.0 L 62.0,68.0" fill="#EFEFEF"/>
	<path d="M 102.0,45.0 L 107.0,46.0 L 108.0,51.0 L 107.0,52.0 L 101.0,52.0 L 100.0,47.0 L 102.0,45.0" fill="#EFEFEF"/>
</svg>
