<?xml version="1.0" ?>
<svg baseProfile="full" height="600px" version="1.1" viewBox="-20.1 -20.1 240.2 240.2" width="600px" xmlns="http://www.w3.org/2000/svg" xmlns:ev="http://www.w3.org/2001/xml-events" xmlns:xlink="http://www.w3.org/1999/xlink">
	<defs/>
	<path d="M 0.0,0.0 L 200.0,0.0 L 200.0,200.0 L 0.0,200.0 L 0.0,0.0" fill="#FDFDFD"/>
	<path d="M 122.0,112.0 L 133.0,112.0 L 142.0,116.0 L 148.0,121.0 L 152.0,129.0 L 152.0,142.0 L 147.0,152.0 L 139.0,158.0 L 134.0,160.0 L 122.0,160.0 L 113.0,155.0 L 107.0,148.0 L 104.0,139.0 L 104.0,131.0 L 109.0,121.0 L 116.0,115.0 L 122.0,112.0" fill="#090909"/>
	<path d="M 130.0,40.0 L 141.0,40.0 L 151.0,45.0 L 157.0,52.0 L 160.0,61.0 L 159.0,71.0 L 155.0,79.0 L 148.0,85.0 L 141.0,88.0 L 130.0,88.0 L 120.0,83.0 L 114.0,76.0 L 112.0,70.0 L 112.0,57.0 L 116.0,49.0 L 123.0,43.0 L 130.0,40.0" fill="#090909"/>
	<path d="M 30.0,76.0 L 41.0,76.0 L 50.0,80.0 L 57.0,87.0 L 60.0,94.0 L 60.0,105.0 L 56.0,114.0 L 49.0,121.0 L 41.0,124.0 L 30.0,124.0 L 22.0,120.0 L 14.0,111.0 L 12.0,105.0 L 12.0,94.0 L 16.0,86.0 L 23.0,79.0 L 30.0,76.0" fill="#070707"/>
	<path d="M 31.0,84.0 L 40.0,84.0 L 47.0,88.0 L 51.0,93.0 L 52.0,96.0 L 52.0,105.0 L 46.0,113.0 L 41.0,116.0 L 32.0,116.0 L 25.0,112.0 L 21.0,107.0 L 20.0,104.0 L 20.0,95.0 L 24.0,89.0 L 29.0,85.0 L 31.0,84.0" fill="#F8F8F8"/>
	<path d="M 131.0,48.0 L 140.0,48.0 L 148.0,53.0 L 151.0,58.0 L 151.0,69.0 L 147.0,76.0 L 139.0,80.0 L 131.0,80.0 L 125.0,76.0 L 121.0,71.0 L 120.0,69.0 L 120.0,58.0 L 127.0,50.0 L 131.0,48.0" fill="#FAFAFA"/>
	<path d="M 124.0,120.0 L 132.0,120.0 L 138.0,123.0 L 143.0,129.0 L 144.0,132.0 L 144.0,141.0 L 140.0,147.0 L 135.0,151.0 L 133.0,152.0 L 124.0,152.0 L 116.0,147.0 L 113.0,141.0 L 113.0,130.0 L 118.0,123.0 L 124.0,120.0" fill="#FAFAFA"/>
</svg>
