<?xml version="1.0" ?>
<svg baseProfile="full" height="600px" version="1.1" viewBox="-12.06 -12.06 144.12 144.12" width="600px" xmlns="http://www.w3.org/2000/svg" xmlns:ev="http://www.w3.org/2001/xml-events" xmlns:xlink="http://www.w3.org/1999/xlink">
	<defs/>
	<path d="M 0.0,0.0 L 120.0,0.0 L 120.0,120.0 L 0.0,120.0 L 0.0,0.0" fill="#FDFDFD"/>
	<path d="M 87.0,64.0 L 96.0,64.0 L 102.0,68.0 L 104.0,72.0 L 104.0,80.0 L 99.0,86.0 L 95.0,88.0 L 86.0,87.0 L 81.0,82.0 L 80.0,79.0 L 80.0,71.0 L 85.0,65.0 L 87.0,64.0" fill="#070707"/>
	<path d="M 64.0,30.0 L 72.0,30.0 L 78.0,34.0 L 80.0,37.0 L 80.0,46.0 L 77.0,51.0 L 71.0,54.0 L 64.0,54.0 L 58.0,49.0 L 56.0,45.0 L 56.0,38.0 L 62.0,31.0 L 64.0,30.0" fill="#060606"/>
	<path d="M 16.0,48.0 L 23.0,48.0 L 29.0,51.0 L 32.0,56.0 L 32.0,63.0 L 29.0,69.0 L 23.0,72.0 L 16.0,72.0 L 11.0,69.0 L 8.0,63.0 L 8.0,56.0 L 11.0,51.0 L 16.0,48.0" fill="#050505"/>
</svg>
