<?xml version="1.0" ?>
<svg baseProfile="full" height="600px" version="1.1" viewBox="-16.08 -16.08 192.16 192.16" width="600px" xmlns="http://www.w3.org/2000/svg" xmlns:ev="http://www.w3.org/2001/xml-events" xmlns:xlink="http://www.w3.org/1999/xlink">
	<defs/>
	<path d="M 0.0,0.0 L 160.0,0.0 L 160.0,160.0 L 0.0,160.0 L 0.0,0.0" fill="#AEBFD2"/>
	<path d="M 0.0,0.0 L 160.0,0.0 L 160.0,160.0 L 0.0,160.0 L 0.0,0.0 M 72.0,15.0 L 57.0,19.0 L 45.0,25.0 L 35.0,33.0 L 27.0,42.0 L 20.0,54.0 L 16.0,68.0 L 15.0,73.0 L 15.0,86.0 L 18.0,101.0 L 27.0,118.0 L 38.0,130.0 L 52.0,139.0 L 59.0,142.0 L 72.0,145.0 L 85.0,145.0 L 97.0,143.0 L 110.0,138.0 L 123.0,129.0 L 130.0,122.0 L 138.0,110.0 L 143.0,96.0 L 145.0,89.0 L 145.0,72.0 L 140.0,55.0 L 135.0,45.0 L 127.0,35.0 L 118.0,27.0 L 102.0,19.0 L 86.0,15.0 L 72.0,15.0" fill="#FCFDFD"/>
	<path d="M 72.0,15.0 L 86.0,15.0 L 102.0,19.0 L 118.0,27.0 L 130.0,38.0 L 139.0,52.0 L 144.0,67.0 L 145.0,72.0 L 145.0,89.0 L 140.0,105.0 L 135.0,115.0 L 127.0,125.0 L 118.0,133.0 L 107.0,139.0 L 97.0,143.0 L 85.0,145.0 L 72.0,145.0 L 57.0,141.0 L 45.0,135.0 L 35.0,127.0 L 27.0,118.0 L 18.0,101.0 L 15.0,86.0 L 15.0,73.0 L 19.0,57.0 L 25.0,45.0 L 33.0,35.0 L 42.0,27.0 L 54.0,20.0 L 68.0,16.0 L 72.0,15.0 M 74.0,19.0 L 59.0,22.0 L 47.0,28.0 L 37.0,36.0 L 30.0,44.0 L 23.0,56.0 L 19.0,70.0 L 19.0,87.0 L 21.0,97.0 L 26.0,109.0 L 33.0,120.0 L 40.0,127.0 L 51.0,134.0 L 59.0,138.0 L 71.0,141.0 L 86.0,141.0 L 100.0,138.0 L 109.0,134.0 L 120.0,127.0 L 127.0,120.0 L 135.0,108.0 L 139.0,97.0 L 141.0,86.0 L 141.0,71.0 L 138.0,59.0 L 132.0,47.0 L 124.0,37.0 L 116.0,30.0 L 106.0,24.0 L 94.0,20.0 L 87.0,19.0 L 74.0,19.0" fill="#708296"/>
</svg>
