<?xml version="1.0" ?>
<svg baseProfile="full" height="600px" version="1.1" viewBox="-9.648000000000001 -9.648000000000001 115.296 115.296" width="600px" xmlns="http://www.w3.org/2000/svg" xmlns:ev="http://www.w3.org/2001/xml-events" xmlns:xlink="http://www.w3.org/1999/xlink">
	<defs/>
	<path d="M 0.0,0.0 L 96.0,0.0 L 96.0,96.0 L 0.0,96.0 L 0.0,0.0" fill="#FDFDFD"/>
	<path d="M 12.0,36.0 L 19.0,36.0 L 24.0,39.0 L 28.0,44.0 L 28.0,51.0 L 25.0,56.0 L 22.0,59.0 L 19.0,60.0 L 12.0,60.0 L 5.0,54.0 L 4.0,52.0 L 4.0,44.0 L 10.0,37.0 L 12.0,36.0" fill="#060606"/>
	<path d="M 45.0,42.0 L 51.0,42.0 L 54.0,45.0 L 54.0,51.0 L 51.0,54.0 L 45.0,54.0 L 42.0,51.0 L 42.0,45.0 L 45.0,42.0" fill="#040404"/>
	<path d="M 77.0,42.0 L 83.0,42.0 L 86.0,45.0 L 86.0,51.0 L 83.0,54.0 L 77.0,54.0 L 74.0,51.0 L 74.0,45.0 L 77.0,42.0" fill="#030303"/>
</svg>
