<?xml version="1.0" ?>
<svg baseProfile="full" height="600px" version="1.1" viewBox="-9.648000000000001 -9.648000000000001 115.296 115.296" width="600px" xmlns="http://www.w3.org/2000/svg" xmlns:ev="http://www.w3.org/2001/xml-events" xmlns:xlink="http://www.w3.org/1999/xlink">
	<defs/>
	<path d="M 0.0,0.0 L 96.0,0.0 L 96.0,96.0 L 0.0,96.0 L 0.0,0.0" fill="#FDFDFD"/>
	<path d="M 75.0,36.0 L 82.0,36.0 L 88.0,39.0 L 91.0,43.0 L 91.0,52.0 L 87.0,58.0 L 82.0,60.0 L 75.0,60.0 L 69.0,55.0 L 67.0,51.0 L 67.0,45.0 L 71.0,39.0 L 75.0,36.0" fill="#060606"/>
	<path d="M 43.0,36.0 L 50.0,36.0 L 56.0,39.0 L 59.0,43.0 L 59.0,52.0 L 55.0,58.0 L 50.0,60.0 L 43.0,60.0 L 37.0,55.0 L 35.0,51.0 L 35.0,45.0 L 39.0,39.0 L 43.0,36.0" fill="#060606"/>
	<path d="M 14.0,22.0 L 23.0,23.0 L 28.0,27.0 L 29.0,29.0 L 29.0,38.0 L 25.0,43.0 L 21.0,45.0 L 13.0,45.0 L 6.0,39.0 L 5.0,31.0 L 8.0,26.0 L 14.0,22.0" fill="#070707"/>
</svg>
