<?xml version="1.0" ?>
<svg baseProfile="full" height="600px" version="1.1" viewBox="-16.08 -16.08 192.16 192.16" width="600px" xmlns="http://www.w3.org/2000/svg" xmlns:ev="http://www.w3.org/2001/xml-events" xmlns:xlink="http://www.w3.org/1999/xlink">
	<defs/>
	<path d="M 0.0,0.0 L 160.0,0.0 L 160.0,160.0 L 0.0,160.0 L 0.0,0.0" fill="#FDFDFE"/>
	<path d="M 105.0,64.0 L 115.0,64.0 L 121.0,68.0 L 125.0,73.0 L 126.0,75.0 L 126.0,84.0 L 123.0,90.0 L 117.0,95.0 L 115.0,96.0 L 105.0,96.0 L 99.0,92.0 L 95.0,87.0 L 94.0,85.0 L 94.0,75.0 L 98.0,69.0 L 103.0,65.0 L 105.0,64.0" fill="#88B4ED"/>
	<path d="M 45.0,64.0 L 55.0,64.0 L 61.0,68.0 L 65.0,73.0 L 66.0,75.0 L 66.0,84.0 L 63.0,90.0 L 57.0,95.0 L 55.0,96.0 L 45.0,96.0 L 39.0,92.0 L 35.0,87.0 L 34.0,85.0 L 34.0,75.0 L 38.0,69.0 L 43.0,65.0 L 45.0,64.0" fill="#88B4ED"/>
	<path d="M 106.0,32.0 L 115.0,32.0 L 122.0,35.0 L 126.0,40.0 L 126.0,48.0 L 121.0,54.0 L 115.0,56.0 L 105.0,56.0 L 99.0,53.0 L 95.0,48.0 L 95.0,40.0 L 100.0,34.0 L 106.0,32.0" fill="#88B4ED"/>
	<path d="M 105.0,64.0 L 115.0,64.0 L 121.0,68.0 L 125.0,73.0 L 126.0,75.0 L 126.0,84.0 L 123.0,90.0 L 117.0,95.0 L 115.0,96.0 L 105.0,96.0 L 99.0,92.0 L 95.0,87.0 L 94.0,85.0 L 94.0,75.0 L 98.0,69.0 L 103.0,65.0 L 105.0,64.0 M 106.0,68.0 L 99.0,74.0 L 98.0,76.0 L 99.0,86.0 L 106.0,92.0 L 114.0,92.0 L 121.0,86.0 L 122.0,83.0 L 122.0,76.0 L 116.0,69.0 L 114.0,68.0 L 106.0,68.0" fill="#5781B9"/>
	<path d="M 45.0,64.0 L 55.0,64.0 L 61.0,68.0 L 65.0,73.0 L 66.0,75.0 L 66.0,84.0 L 63.0,90.0 L 57.0,95.0 L 55.0,96.0 L 45.0,96.0 L 39.0,92.0 L 35.0,87.0 L 34.0,85.0 L 34.0,75.0 L 38.0,69.0 L 43.0,65.0 L 45.0,64.0 M 46.0,68.0 L 39.0,74.0 L 38.0,76.0 L 39.0,86.0 L 46.0,92.0 L 54.0,92.0 L 61.0,86.0 L 62.0,83.0 L 62.0,76.0 L 56.0,69.0 L 54.0,68.0 L 46.0,68.0" fill="#5781B9"/>
	<path d="M 106.0,32.0 L 115.0,32.0 L 122.0,35.0 L 126.0,40.0 L 126.0,48.0 L 121.0,54.0 L 115.0,56.0 L 105.0,56.0 L 99.0,53.0 L 95.0,48.0 L 95.0,40.0 L 100.0,34.0 L 106.0,32.0 M 106.0,35.0 L 100.0,39.0 L 99.0,40.0 L 99.0,47.0 L 104.0,52.0 L 106.0,53.0 L 114.0,53.0 L 120.0,50.0 L 122.0,48.0 L 122.0,40.0 L 117.0,36.0 L 114.0,35.0 L 106.0,35.0" fill="#557FB9"/>
</svg>
