<?xml version="1.0" ?>
<svg baseProfile="full" height="600px" version="1.1" viewBox="-12.864 -12.864 153.728 153.728" width="600px" xmlns="http://www.w3.org/2000/svg" xmlns:ev="http://www.w3.org/2001/xml-events" xmlns:xlink="http://www.w3.org/1999/xlink">
	<defs/>
	<path d="M 0.0,0.0 L 128.0,0.0 L 128.0,128.0 L 0.0,128.0 L 0.0,0.0" fill="#FDFDFD"/>
	<path d="M 80.0,76.0 L 87.0,76.0 L 93.0,79.0 L 96.0,84.0 L 96.0,91.0 L 93.0,97.0 L 87.0,100.0 L 80.0,100.0 L 73.0,94.0 L 72.0,91.0 L 72.0,84.0 L 75.0,79.0 L 80.0,76.0" fill="#060606"/>
	<path d="M 20.0,52.0 L 27.0,52.0 L 33.0,55.0 L 36.0,60.0 L 36.0,67.0 L 33.0,73.0 L 27.0,76.0 L 20.0,76.0 L 13.0,70.0 L 12.0,67.0 L 12.0,60.0 L 15.0,55.0 L 20.0,52.0" fill="#060606"/>
	<path d="M 80.0,28.0 L 87.0,28.0 L 93.0,31.0 L 96.0,36.0 L 96.0,43.0 L 93.0,49.0 L 87.0,52.0 L 80.0,52.0 L 73.0,46.0 L 72.0,43.0 L 72.0,36.0 L 75.0,31.0 L 80.0,28.0" fill="#060606"/>
	<path d="M 82.0,84.0 L 87.0,85.0 L 88.0,90.0 L 86.0,92.0 L 81.0,91.0 L 80.0,86.0 L 82.0,84.0" fill="#EAEAEA"/>
	<path d="M 22.0,60.0 L 27.0,61.0 L 28.0,66.0 L 26.0,68.0 L 21.0,67.0 L 20.0,62.0 L 22.0,60.0" fill="#EAEAEA"/>
	<path d="M 82.0,36.0 L 87.0,37.0 L 88.0,42.0 L 86.0,44.0 L 81.0,43.0 L 80.0,38.0 L 82.0,36.0" fill="#EAEAEA"/>
</svg>
