<?xml version="1.0" ?>
<svg baseProfile="full" height="600px" version="1.1" viewBox="-20.1 -20.1 240.2 240.2" width="600px" xmlns="http://www.w3.org/2000/svg" xmlns:ev="http://www.w3.org/2001/xml-events" xmlns:xlink="http://www.w3.org/1999/xlink">
	<defs/>
	<path d="M 0.0,0.0 L 200.0,0.0 L 200.0,200.0 L 0.0,200.0 L 0.0,0.0" fill="#FDFDFD"/>
	<path d="M 145.0,119.0 L 156.0,119.0 L 166.0,124.0 L 172.0,132.0 L 174.0,136.0 L 174.0,149.0 L 169.0,159.0 L 161.0,165.0 L 156.0,167.0 L 144.0,167.0 L 136.0,163.0 L 129.0,155.0 L 126.0,147.0 L 126.0,138.0 L 131.0,128.0 L 138.0,122.0 L 145.0,119.0" fill="#090909"/>
	<path d="M 116.0,76.0 L 127.0,76.0 L 137.0,81.0 L 143.0,88.0 L 145.0,93.0 L 145.0,106.0 L 140.0,116.0 L 132.0,122.0 L 126.0,124.0 L 115.0,124.0 L 106.0,119.0 L 100.0,112.0 L 97.0,103.0 L 97.0,95.0 L 102.0,85.0 L 109.0,79.0 L 116.0,76.0" fill="#090909"/>
	<path d="M 62.0,76.0 L 73.0,76.0 L 82.0,80.0 L 87.0,84.0 L 91.0,91.0 L 92.0,95.0 L 92.0,106.0 L 87.0,116.0 L 79.0,122.0 L 73.0,124.0 L 62.0,124.0 L 54.0,120.0 L 47.0,112.0 L 44.0,105.0 L 44.0,94.0 L 49.0,85.0 L 57.0,78.0 L 62.0,76.0" fill="#070707"/>
	<path d="M 65.0,84.0 L 72.0,84.0 L 78.0,87.0 L 83.0,93.0 L 84.0,95.0 L 84.0,105.0 L 80.0,111.0 L 75.0,115.0 L 72.0,116.0 L 64.0,116.0 L 57.0,112.0 L 53.0,106.0 L 52.0,103.0 L 52.0,96.0 L 57.0,88.0 L 61.0,85.0 L 65.0,84.0" fill="#F9F9F9"/>
	<path d="M 146.0,127.0 L 155.0,127.0 L 161.0,131.0 L 165.0,136.0 L 166.0,138.0 L 166.0,147.0 L 163.0,153.0 L 157.0,158.0 L 154.0,159.0 L 146.0,159.0 L 139.0,155.0 L 135.0,149.0 L 135.0,137.0 L 139.0,131.0 L 146.0,127.0" fill="#FAFAFA"/>
	<path d="M 117.0,84.0 L 126.0,84.0 L 132.0,88.0 L 136.0,92.0 L 137.0,95.0 L 137.0,104.0 L 134.0,110.0 L 128.0,115.0 L 125.0,116.0 L 117.0,116.0 L 109.0,111.0 L 106.0,106.0 L 106.0,94.0 L 110.0,88.0 L 117.0,84.0" fill="#FAFAFA"/>
</svg>
