<?xml version="1.0" ?>
<svg baseProfile="full" height="600px" version="1.1" viewBox="-20.1 -20.1 240.2 240.2" width="600px" xmlns="http://www.w3.org/2000/svg" xmlns:ev="http://www.w3.org/2001/xml-events" xmlns:xlink="http://www.w3.org/1999/xlink">
	<defs/>
	<path d="M 0.0,0.0 L 200.0,0.0 L 200.0,200.0 L 0.0,200.0 L 0.0,0.0" fill="#FDFDFD"/>
	<path d="M 116.0,54.0 L 127.0,54.0 L 137.0,59.0 L 143.0,66.0 L 146.0,73.0 L 146.0,83.0 L 141.0,93.0 L 134.0,99.0 L 127.0,102.0 L 116.0,102.0 L 106.0,97.0 L 100.0,89.0 L 98.0,85.0 L 98.0,71.0 L 104.0,61.0 L 113.0,55.0 L 116.0,54.0" fill="#080808"/>
	<path d="M 111.0,126.0 L 121.0,126.0 L 129.0,129.0 L 135.0,134.0 L 140.0,144.0 L 140.0,154.0 L 136.0,164.0 L 128.0,171.0 L 121.0,174.0 L 111.0,174.0 L 101.0,169.0 L 94.0,161.0 L 92.0,155.0 L 92.0,144.0 L 97.0,134.0 L 105.0,128.0 L 111.0,126.0" fill="#070707"/>
	<path d="M 61.0,49.0 L 72.0,49.0 L 82.0,54.0 L 88.0,61.0 L 90.0,65.0 L 90.0,80.0 L 86.0,88.0 L 79.0,94.0 L 72.0,97.0 L 60.0,97.0 L 51.0,92.0 L 46.0,86.0 L 43.0,79.0 L 43.0,66.0 L 48.0,57.0 L 56.0,51.0 L 61.0,49.0" fill="#080808"/>
	<path d="M 111.0,134.0 L 120.0,134.0 L 126.0,137.0 L 131.0,143.0 L 132.0,145.0 L 132.0,153.0 L 128.0,161.0 L 122.0,165.0 L 119.0,166.0 L 112.0,166.0 L 104.0,161.0 L 100.0,154.0 L 100.0,145.0 L 104.0,139.0 L 109.0,135.0 L 111.0,134.0" fill="#F9F9F9"/>
	<path d="M 117.0,62.0 L 126.0,62.0 L 134.0,67.0 L 138.0,74.0 L 138.0,81.0 L 134.0,89.0 L 128.0,93.0 L 125.0,94.0 L 117.0,94.0 L 111.0,90.0 L 107.0,85.0 L 106.0,82.0 L 106.0,73.0 L 110.0,67.0 L 115.0,63.0 L 117.0,62.0" fill="#F9F9F9"/>
	<path d="M 62.0,57.0 L 71.0,57.0 L 79.0,62.0 L 82.0,67.0 L 82.0,79.0 L 77.0,86.0 L 70.0,89.0 L 62.0,89.0 L 56.0,85.0 L 52.0,80.0 L 51.0,78.0 L 51.0,68.0 L 55.0,62.0 L 60.0,58.0 L 62.0,57.0" fill="#FAFAFA"/>
</svg>
