<?xml version="1.0" ?>
<svg baseProfile="full" height="600px" version="1.1" viewBox="-19.296000000000003 -19.296000000000003 230.592 230.592" width="600px" xmlns="http://www.w3.org/2000/svg" xmlns:ev="http://www.w3.org/2001/xml-events" xmlns:xlink="http://www.w3.org/1999/xlink">
	<defs/>
	<path d="M 0.0,0.0 L 192.0,0.0 L 192.0,192.0 L 0.0,192.0 L 0.0,0.0" fill="#E6DBF3"/>
	<path d="M 0.0,0.0 L 192.0,0.0 L 192.0,192.0 L 0.0,192.0 L 0.0,0.0 M 88.0,16.0 L 76.0,18.0 L 60.0,24.0 L 50.0,30.0 L 39.0,39.0 L 32.0,47.0 L 24.0,60.0 L 19.0,73.0 L 16.0,86.0 L 16.0,107.0 L 20.0,123.0 L 25.0,134.0 L 33.0,146.0 L 38.0,152.0 L 40.0,152.0 L 40.0,154.0 L 54.0,165.0 L 69.0,172.0 L 84.0,176.0 L 106.0,176.0 L 119.0,173.0 L 132.0,168.0 L 142.0,162.0 L 153.0,153.0 L 164.0,139.0 L 171.0,125.0 L 175.0,111.0 L 176.0,104.0 L 176.0,89.0 L 174.0,77.0 L 171.0,66.0 L 164.0,53.0 L 157.0,44.0 L 153.0,39.0 L 142.0,30.0 L 133.0,24.0 L 120.0,19.0 L 107.0,16.0 L 88.0,16.0" fill="#FDFDFE"/>
	<path d="M 78.0,116.0 L 80.0,116.0 L 83.0,125.0 L 88.0,130.0 L 91.0,131.0 L 100.0,131.0 L 107.0,128.0 L 111.0,120.0 L 112.0,116.0 L 121.0,119.0 L 130.0,125.0 L 138.0,133.0 L 143.0,144.0 L 144.0,149.0 L 144.0,160.0 L 139.0,164.0 L 125.0,171.0 L 117.0,174.0 L 106.0,176.0 L 84.0,176.0 L 69.0,172.0 L 53.0,164.0 L 48.0,160.0 L 48.0,148.0 L 52.0,137.0 L 58.0,128.0 L 69.0,120.0 L 78.0,116.0" fill="#673BB6"/>
	<path d="M 106.0,60.0 L 111.0,61.0 L 120.0,71.0 L 121.0,83.0 L 127.0,78.0 L 128.0,79.0 L 127.0,86.0 L 123.0,88.0 L 122.0,96.0 L 116.0,104.0 L 113.0,107.0 L 112.0,120.0 L 108.0,128.0 L 104.0,131.0 L 100.0,132.0 L 91.0,132.0 L 84.0,128.0 L 80.0,120.0 L 79.0,107.0 L 71.0,98.0 L 67.0,88.0 L 64.0,84.0 L 64.0,79.0 L 67.0,79.0 L 71.0,83.0 L 72.0,71.0 L 98.0,62.0 L 106.0,60.0" fill="#FDB64D"/>
	<path d="M 89.0,36.0 L 106.0,36.0 L 109.0,42.0 L 118.0,46.0 L 125.0,54.0 L 128.0,63.0 L 128.0,77.0 L 121.0,84.0 L 120.0,84.0 L 119.0,71.0 L 110.0,61.0 L 103.0,62.0 L 86.0,67.0 L 74.0,71.0 L 72.0,71.0 L 72.0,84.0 L 65.0,78.0 L 64.0,77.0 L 64.0,62.0 L 68.0,53.0 L 72.0,47.0 L 80.0,40.0 L 89.0,36.0" fill="#FEF7C3"/>
	<path d="M 80.0,107.0 L 89.0,111.0 L 101.0,111.0 L 110.0,108.0 L 112.0,107.0 L 112.0,120.0 L 108.0,128.0 L 104.0,131.0 L 100.0,132.0 L 91.0,132.0 L 84.0,128.0 L 80.0,120.0 L 80.0,107.0" fill="#FC9602"/>
	<path d="M 78.0,116.0 L 80.0,116.0 L 83.0,125.0 L 88.0,130.0 L 91.0,131.0 L 100.0,131.0 L 107.0,128.0 L 111.0,120.0 L 112.0,116.0 L 119.0,118.0 L 120.0,120.0 L 117.0,129.0 L 109.0,137.0 L 102.0,140.0 L 90.0,140.0 L 82.0,136.0 L 77.0,131.0 L 73.0,124.0 L 72.0,119.0 L 78.0,116.0" fill="#351E91"/>
	<path d="M 106.0,79.0 L 111.0,80.0 L 112.0,85.0 L 111.0,87.0 L 105.0,87.0 L 104.0,81.0 L 106.0,79.0" fill="#84511D"/>
	<path d="M 82.0,79.0 L 87.0,80.0 L 88.0,85.0 L 87.0,87.0 L 81.0,87.0 L 80.0,81.0 L 82.0,79.0" fill="#84511D"/>
	<path d="M 126.0,78.0 L 128.0,79.0 L 127.0,86.0 L 124.0,87.0 L 124.0,80.0 L 126.0,78.0" fill="#FD9B0D"/>
	<path d="M 65.0,78.0 L 68.0,80.0 L 68.0,87.0 L 65.0,86.0 L 64.0,79.0 L 65.0,78.0" fill="#FD9B0D"/>
</svg>
