<?xml version="1.0" ?>
<svg baseProfile="full" height="600px" version="1.1" viewBox="-9.648000000000001 -9.648000000000001 115.296 115.296" width="600px" xmlns="http://www.w3.org/2000/svg" xmlns:ev="http://www.w3.org/2001/xml-events" xmlns:xlink="http://www.w3.org/1999/xlink">
	<defs/>
	<path d="M 0.0,0.0 L 96.0,0.0 L 96.0,96.0 L 0.0,96.0 L 0.0,0.0" fill="#FDFDFD"/>
	<path d="M 72.0,36.0 L 79.0,36.0 L 85.0,39.0 L 88.0,43.0 L 88.0,52.0 L 84.0,58.0 L 79.0,60.0 L 72.0,60.0 L 66.0,55.0 L 64.0,51.0 L 64.0,44.0 L 70.0,37.0 L 72.0,36.0" fill="#060606"/>
	<path d="M 45.0,36.0 L 53.0,36.0 L 59.0,41.0 L 61.0,45.0 L 61.0,51.0 L 57.0,57.0 L 52.0,60.0 L 45.0,60.0 L 39.0,56.0 L 37.0,52.0 L 37.0,43.0 L 41.0,38.0 L 45.0,36.0" fill="#060606"/>
	<path d="M 27.0,61.0 L 35.0,62.0 L 40.0,66.0 L 42.0,70.0 L 41.0,79.0 L 36.0,84.0 L 34.0,85.0 L 25.0,85.0 L 19.0,80.0 L 18.0,77.0 L 18.0,69.0 L 23.0,63.0 L 27.0,61.0" fill="#060606"/>
</svg>
