<?xml version="1.0" ?>
<svg baseProfile="full" height="600px" version="1.1" viewBox="-16.08 -16.08 192.16 192.16" width="600px" xmlns="http://www.w3.org/2000/svg" xmlns:ev="http://www.w3.org/2001/xml-events" xmlns:xlink="http://www.w3.org/1999/xlink">
	<defs/>
	<path d="M 0.0,0.0 L 160.0,0.0 L 160.0,160.0 L 0.0,160.0 L 0.0,0.0" fill="#FDFDFE"/>
	<path d="M 15.0,64.0 L 25.0,64.0 L 31.0,68.0 L 35.0,73.0 L 36.0,75.0 L 36.0,84.0 L 33.0,90.0 L 27.0,95.0 L 25.0,96.0 L 15.0,96.0 L 9.0,92.0 L 5.0,87.0 L 4.0,85.0 L 4.0,75.0 L 8.0,69.0 L 13.0,65.0 L 15.0,64.0" fill="#88B4ED"/>
	<path d="M 122.0,90.0 L 130.0,90.0 L 138.0,94.0 L 142.0,100.0 L 142.0,111.0 L 138.0,118.0 L 130.0,122.0 L 122.0,122.0 L 114.0,117.0 L 111.0,112.0 L 111.0,100.0 L 115.0,94.0 L 122.0,90.0" fill="#88B4ED"/>
	<path d="M 88.0,38.0 L 99.0,38.0 L 105.0,42.0 L 109.0,48.0 L 109.0,59.0 L 105.0,65.0 L 99.0,69.0 L 88.0,69.0 L 82.0,65.0 L 78.0,59.0 L 78.0,48.0 L 82.0,42.0 L 88.0,38.0" fill="#89B5EE"/>
	<path d="M 15.0,64.0 L 25.0,64.0 L 31.0,68.0 L 35.0,73.0 L 36.0,75.0 L 36.0,84.0 L 33.0,90.0 L 27.0,95.0 L 25.0,96.0 L 15.0,96.0 L 9.0,92.0 L 5.0,87.0 L 4.0,85.0 L 4.0,75.0 L 8.0,69.0 L 13.0,65.0 L 15.0,64.0 M 17.0,68.0 L 12.0,71.0 L 9.0,74.0 L 8.0,84.0 L 14.0,91.0 L 16.0,92.0 L 24.0,92.0 L 31.0,86.0 L 32.0,83.0 L 32.0,76.0 L 26.0,69.0 L 24.0,68.0 L 17.0,68.0" fill="#5781B9"/>
	<path d="M 122.0,90.0 L 130.0,90.0 L 138.0,94.0 L 142.0,100.0 L 142.0,111.0 L 138.0,118.0 L 130.0,122.0 L 122.0,122.0 L 114.0,117.0 L 111.0,112.0 L 111.0,100.0 L 115.0,94.0 L 122.0,90.0 M 123.0,94.0 L 117.0,98.0 L 115.0,101.0 L 115.0,111.0 L 119.0,116.0 L 123.0,118.0 L 132.0,117.0 L 137.0,112.0 L 138.0,111.0 L 138.0,101.0 L 134.0,96.0 L 130.0,94.0 L 123.0,94.0" fill="#5580B9"/>
	<path d="M 88.0,38.0 L 99.0,38.0 L 105.0,42.0 L 109.0,48.0 L 109.0,59.0 L 105.0,65.0 L 99.0,69.0 L 88.0,69.0 L 82.0,65.0 L 78.0,59.0 L 78.0,48.0 L 82.0,42.0 L 88.0,38.0 M 89.0,42.0 L 83.0,47.0 L 82.0,49.0 L 82.0,58.0 L 87.0,64.0 L 89.0,65.0 L 98.0,65.0 L 104.0,60.0 L 105.0,58.0 L 105.0,49.0 L 100.0,43.0 L 98.0,42.0 L 89.0,42.0" fill="#537FB9"/>
</svg>
