<?xml version="1.0" ?>
<svg baseProfile="full" height="600px" version="1.1" viewBox="-12.864 -12.864 153.728 153.728" width="600px" xmlns="http://www.w3.org/2000/svg" xmlns:ev="http://www.w3.org/2001/xml-events" xmlns:xlink="http://www.w3.org/1999/xlink">
	<defs/>
	<path d="M 0.0,0.0 L 128.0,0.0 L 128.0,128.0 L 0.0,128.0 L 0.0,0.0" fill="#FDFDFD"/>
	<path d="M 81.0,52.0 L 88.0,52.0 L 94.0,55.0 L 97.0,59.0 L 97.0,68.0 L 93.0,74.0 L 88.0,76.0 L 81.0,76.0 L 75.0,71.0 L 73.0,67.0 L 73.0,61.0 L 77.0,55.0 L 81.0,52.0" fill="#070707"/>
	<path d="M 45.0,52.0 L 53.0,52.0 L 60.0,58.0 L 61.0,60.0 L 61.0,67.0 L 58.0,72.0 L 55.0,75.0 L 52.0,76.0 L 45.0,76.0 L 40.0,73.0 L 37.0,67.0 L 37.0,60.0 L 40.0,55.0 L 45.0,52.0" fill="#060606"/>
	<path d="M 59.0,80.0 L 66.0,80.0 L 72.0,83.0 L 75.0,87.0 L 75.0,97.0 L 71.0,102.0 L 66.0,104.0 L 59.0,104.0 L 53.0,99.0 L 52.0,97.0 L 52.0,87.0 L 57.0,81.0 L 59.0,80.0" fill="#080808"/>
	<path d="M 83.0,60.0 L 88.0,61.0 L 89.0,66.0 L 87.0,68.0 L 82.0,67.0 L 81.0,62.0 L 83.0,60.0" fill="#E6E6E6"/>
	<path d="M 47.0,60.0 L 52.0,61.0 L 53.0,66.0 L 51.0,68.0 L 46.0,67.0 L 45.0,62.0 L 47.0,60.0" fill="#EAEAEA"/>
	<path d="M 61.0,88.0 L 66.0,89.0 L 67.0,94.0 L 65.0,96.0 L 60.0,95.0 L 60.0,89.0 L 61.0,88.0" fill="#EEEEEE"/>
</svg>
