<?xml version="1.0" ?>
<svg baseProfile="full" height="600px" version="1.1" viewBox="-19.296000000000003 -19.296000000000003 230.592 230.592" width="600px" xmlns="http://www.w3.org/2000/svg" xmlns:ev="http://www.w3.org/2001/xml-events" xmlns:xlink="http://www.w3.org/1999/xlink">
	<defs/>
	<path d="M 0.0,0.0 L 192.0,0.0 L 192.0,192.0 L 0.0,192.0 L 0.0,0.0" fill="#ECE6F5"/>
	<path d="M 0.0,0.0 L 192.0,0.0 L 192.0,192.0 L 0.0,192.0 L 0.0,0.0 M 86.0,16.0 L 71.0,19.0 L 60.0,24.0 L 55.0,27.0 L 49.0,31.0 L 40.0,38.0 L 32.0,47.0 L 26.0,56.0 L 21.0,67.0 L 17.0,81.0 L 16.0,88.0 L 16.0,105.0 L 19.0,120.0 L 23.0,130.0 L 32.0,145.0 L 38.0,152.0 L 40.0,152.0 L 40.0,154.0 L 50.0,162.0 L 58.0,167.0 L 69.0,172.0 L 84.0,176.0 L 108.0,176.0 L 119.0,173.0 L 132.0,168.0 L 142.0,162.0 L 147.0,158.0 L 149.0,157.0 L 149.0,155.0 L 153.0,153.0 L 159.0,146.0 L 163.0,141.0 L 166.0,136.0 L 171.0,125.0 L 175.0,111.0 L 176.0,106.0 L 176.0,85.0 L 171.0,66.0 L 164.0,53.0 L 158.0,45.0 L 145.0,32.0 L 139.0,28.0 L 123.0,20.0 L 103.0,16.0 L 86.0,16.0" fill="#FDFDFE"/>
	<path d="M 90.0,129.0 L 106.0,129.0 L 109.0,135.0 L 119.0,140.0 L 125.0,147.0 L 128.0,156.0 L 128.0,169.0 L 119.0,173.0 L 108.0,176.0 L 84.0,176.0 L 69.0,172.0 L 64.0,170.0 L 64.0,155.0 L 68.0,146.0 L 72.0,140.0 L 80.0,133.0 L 90.0,129.0" fill="#513731"/>
	<path d="M 107.0,153.0 L 111.0,155.0 L 118.0,162.0 L 120.0,165.0 L 120.0,172.0 L 117.0,174.0 L 108.0,176.0 L 84.0,176.0 L 72.0,173.0 L 72.0,165.0 L 79.0,162.0 L 107.0,153.0" fill="#BB6C18"/>
</svg>
