<?xml version="1.0" ?>
<svg baseProfile="full" height="600px" version="1.1" viewBox="-16.08 -16.08 192.16 192.16" width="600px" xmlns="http://www.w3.org/2000/svg" xmlns:ev="http://www.w3.org/2001/xml-events" xmlns:xlink="http://www.w3.org/1999/xlink">
	<defs/>
	<path d="M 0.0,0.0 L 160.0,0.0 L 160.0,160.0 L 0.0,160.0 L 0.0,0.0" fill="#FDFDFE"/>
	<path d="M 15.0,64.0 L 25.0,64.0 L 31.0,68.0 L 35.0,73.0 L 36.0,75.0 L 36.0,84.0 L 33.0,90.0 L 27.0,95.0 L 25.0,96.0 L 15.0,96.0 L 9.0,92.0 L 5.0,87.0 L 4.0,85.0 L 4.0,75.0 L 8.0,69.0 L 13.0,65.0 L 15.0,64.0" fill="#88B4ED"/>
	<path d="M 136.0,56.0 L 143.0,56.0 L 150.0,59.0 L 155.0,65.0 L 156.0,67.0 L 156.0,76.0 L 153.0,82.0 L 147.0,87.0 L 144.0,88.0 L 135.0,88.0 L 129.0,84.0 L 125.0,79.0 L 124.0,77.0 L 124.0,67.0 L 128.0,61.0 L 133.0,57.0 L 136.0,56.0" fill="#88B4ED"/>
	<path d="M 75.0,79.0 L 84.0,79.0 L 90.0,82.0 L 95.0,88.0 L 96.0,90.0 L 96.0,98.0 L 93.0,105.0 L 88.0,109.0 L 83.0,111.0 L 76.0,111.0 L 69.0,107.0 L 65.0,102.0 L 64.0,99.0 L 64.0,90.0 L 68.0,84.0 L 73.0,80.0 L 75.0,79.0" fill="#88B4ED"/>
	<path d="M 15.0,64.0 L 25.0,64.0 L 31.0,68.0 L 35.0,73.0 L 36.0,75.0 L 36.0,84.0 L 33.0,90.0 L 27.0,95.0 L 25.0,96.0 L 15.0,96.0 L 9.0,92.0 L 5.0,87.0 L 4.0,85.0 L 4.0,75.0 L 8.0,69.0 L 13.0,65.0 L 15.0,64.0 M 17.0,68.0 L 12.0,71.0 L 9.0,74.0 L 8.0,84.0 L 14.0,91.0 L 16.0,92.0 L 24.0,92.0 L 31.0,86.0 L 32.0,83.0 L 32.0,76.0 L 26.0,69.0 L 24.0,68.0 L 17.0,68.0" fill="#5781B9"/>
	<path d="M 136.0,56.0 L 143.0,56.0 L 150.0,59.0 L 155.0,65.0 L 156.0,67.0 L 156.0,76.0 L 153.0,82.0 L 147.0,87.0 L 144.0,88.0 L 135.0,88.0 L 129.0,84.0 L 125.0,79.0 L 124.0,77.0 L 124.0,67.0 L 128.0,61.0 L 133.0,57.0 L 136.0,56.0 M 137.0,60.0 L 132.0,63.0 L 129.0,66.0 L 128.0,69.0 L 128.0,76.0 L 134.0,83.0 L 136.0,84.0 L 143.0,84.0 L 148.0,81.0 L 151.0,78.0 L 152.0,75.0 L 152.0,68.0 L 147.0,62.0 L 142.0,60.0 L 137.0,60.0" fill="#5681B9"/>
	<path d="M 75.0,79.0 L 84.0,79.0 L 90.0,82.0 L 95.0,88.0 L 96.0,90.0 L 96.0,98.0 L 93.0,105.0 L 88.0,109.0 L 83.0,111.0 L 76.0,111.0 L 69.0,107.0 L 65.0,102.0 L 64.0,99.0 L 64.0,90.0 L 68.0,84.0 L 73.0,80.0 L 75.0,79.0 M 76.0,83.0 L 71.0,86.0 L 68.0,91.0 L 68.0,98.0 L 71.0,103.0 L 77.0,107.0 L 85.0,106.0 L 90.0,102.0 L 92.0,97.0 L 92.0,91.0 L 86.0,84.0 L 83.0,83.0 L 76.0,83.0" fill="#5580B9"/>
</svg>
