<?xml version="1.0" ?>
<svg baseProfile="full" height="600px" version="1.1" viewBox="-20.1 -20.1 240.2 240.2" width="600px" xmlns="http://www.w3.org/2000/svg" xmlns:ev="http://www.w3.org/2001/xml-events" xmlns:xlink="http://www.w3.org/1999/xlink">
	<defs/>
	<path d="M 0.0,0.0 L 200.0,0.0 L 200.0,200.0 L 0.0,200.0 L 0.0,0.0" fill="#FDFDFD"/>
	<path d="M 158.0,78.0 L 169.0,78.0 L 177.0,82.0 L 182.0,87.0 L 186.0,95.0 L 186.0,105.0 L 181.0,115.0 L 172.0,121.0 L 169.0,122.0 L 159.0,122.0 L 149.0,117.0 L 143.0,108.0 L 142.0,105.0 L 142.0,94.0 L 148.0,84.0 L 158.0,78.0" fill="#0C0C0C"/>
	<path d="M 32.0,82.0 L 40.0,82.0 L 47.0,85.0 L 53.0,92.0 L 54.0,96.0 L 54.0,104.0 L 51.0,111.0 L 45.0,116.0 L 40.0,118.0 L 31.0,118.0 L 24.0,114.0 L 20.0,109.0 L 18.0,104.0 L 18.0,96.0 L 21.0,89.0 L 28.0,83.0 L 32.0,82.0" fill="#070707"/>
	<path d="M 158.0,86.0 L 169.0,86.0 L 175.0,90.0 L 178.0,94.0 L 178.0,105.0 L 174.0,111.0 L 169.0,114.0 L 158.0,114.0 L 152.0,109.0 L 150.0,105.0 L 150.0,94.0 L 156.0,87.0 L 158.0,86.0" fill="#FBFBFB"/>
	<path d="M 32.0,88.0 L 40.0,88.0 L 45.0,91.0 L 48.0,96.0 L 48.0,103.0 L 45.0,109.0 L 39.0,112.0 L 32.0,112.0 L 25.0,106.0 L 24.0,104.0 L 24.0,96.0 L 30.0,89.0 L 32.0,88.0" fill="#F8F8F8"/>
	<path d="M 96.0,92.0 L 104.0,92.0 L 108.0,96.0 L 109.0,102.0 L 106.0,107.0 L 102.0,109.0 L 96.0,108.0 L 92.0,104.0 L 92.0,96.0 L 96.0,92.0" fill="#212121"/>
	<path d="M 97.0,95.0 L 103.0,95.0 L 105.0,97.0 L 105.0,103.0 L 103.0,105.0 L 97.0,105.0 L 95.0,103.0 L 95.0,97.0 L 97.0,95.0" fill="#FCFCFC"/>
	<path d="M 96.0,92.0 L 102.0,94.0 L 102.0,95.0 L 96.0,97.0 L 95.0,102.0 L 92.0,98.0 L 94.0,93.0 L 96.0,92.0" fill="#393939"/>
</svg>
