<?xml version="1.0" ?>
<svg baseProfile="full" height="600px" version="1.1" viewBox="-12.864 -12.864 153.728 153.728" width="600px" xmlns="http://www.w3.org/2000/svg" xmlns:ev="http://www.w3.org/2001/xml-events" xmlns:xlink="http://www.w3.org/1999/xlink">
	<defs/>
	<path d="M 0.0,0.0 L 128.0,0.0 L 128.0,128.0 L 0.0,128.0 L 0.0,0.0" fill="#FDFDFD"/>
	<path d="M 58.0,52.0 L 67.0,52.0 L 73.0,57.0 L 74.0,59.0 L 74.0,68.0 L 71.0,73.0 L 65.0,76.0 L 59.0,76.0 L 53.0,72.0 L 50.0,67.0 L 50.0,60.0 L 53.0,55.0 L 58.0,52.0" fill="#090909"/>
	<path d="M 95.0,47.0 L 104.0,47.0 L 109.0,50.0 L 112.0,54.0 L 112.0,62.0 L 109.0,67.0 L 103.0,71.0 L 97.0,71.0 L 91.0,67.0 L 88.0,61.0 L 88.0,55.0 L 92.0,49.0 L 95.0,47.0" fill="#080808"/>
	<path d="M 35.0,69.0 L 42.0,69.0 L 47.0,72.0 L 50.0,75.0 L 51.0,84.0 L 47.0,90.0 L 42.0,93.0 L 35.0,93.0 L 29.0,89.0 L 27.0,85.0 L 27.0,77.0 L 31.0,71.0 L 35.0,69.0" fill="#070707"/>
	<path d="M 37.0,77.0 L 42.0,78.0 L 43.0,83.0 L 41.0,85.0 L 36.0,84.0 L 35.0,79.0 L 37.0,77.0" fill="#E8E8E8"/>
	<path d="M 60.0,60.0 L 65.0,60.0 L 66.0,61.0 L 66.0,66.0 L 64.0,68.0 L 60.0,67.0 L 58.0,65.0 L 59.0,61.0 L 60.0,60.0" fill="#E8E8E8"/>
	<path d="M 98.0,55.0 L 103.0,55.0 L 104.0,56.0 L 104.0,61.0 L 102.0,63.0 L 98.0,62.0 L 96.0,60.0 L 97.0,56.0 L 98.0,55.0" fill="#E8E8E8"/>
</svg>
