<?xml version="1.0" ?>
<svg baseProfile="full" height="600px" version="1.1" viewBox="-19.296000000000003 -19.296000000000003 230.592 230.592" width="600px" xmlns="http://www.w3.org/2000/svg" xmlns:ev="http://www.w3.org/2001/xml-events" xmlns:xlink="http://www.w3.org/1999/xlink">
	<defs/>
	<path d="M 0.0,0.0 L 192.0,0.0 L 192.0,192.0 L 0.0,192.0 L 0.0,0.0" fill="#EDE6F4"/>
	<path d="M 0.0,0.0 L 192.0,0.0 L 192.0,192.0 L 0.0,192.0 L 0.0,0.0 M 86.0,16.0 L 76.0,18.0 L 60.0,24.0 L 49.0,31.0 L 40.0,38.0 L 32.0,47.0 L 26.0,56.0 L 21.0,67.0 L 17.0,81.0 L 16.0,86.0 L 16.0,107.0 L 20.0,123.0 L 23.0,130.0 L 28.0,139.0 L 34.0,147.0 L 38.0,152.0 L 40.0,152.0 L 40.0,154.0 L 51.0,163.0 L 66.0,171.0 L 79.0,175.0 L 88.0,176.0 L 104.0,176.0 L 117.0,174.0 L 132.0,168.0 L 142.0,162.0 L 147.0,158.0 L 149.0,157.0 L 149.0,155.0 L 153.0,153.0 L 155.0,149.0 L 157.0,149.0 L 163.0,141.0 L 169.0,129.0 L 173.0,119.0 L 175.0,113.0 L 176.0,104.0 L 176.0,85.0 L 171.0,66.0 L 164.0,53.0 L 158.0,45.0 L 144.0,31.0 L 135.0,26.0 L 123.0,20.0 L 107.0,16.0 L 86.0,16.0" fill="#FDFDFE"/>
	<path d="M 87.0,47.0 L 104.0,47.0 L 108.0,52.0 L 117.0,54.0 L 125.0,59.0 L 131.0,66.0 L 135.0,74.0 L 139.0,90.0 L 140.0,95.0 L 140.0,112.0 L 121.0,131.0 L 110.0,130.0 L 110.0,119.0 L 117.0,113.0 L 119.0,110.0 L 119.0,86.0 L 110.0,75.0 L 109.0,73.0 L 104.0,74.0 L 78.0,88.0 L 73.0,91.0 L 73.0,110.0 L 77.0,115.0 L 82.0,119.0 L 82.0,130.0 L 71.0,130.0 L 53.0,116.0 L 52.0,115.0 L 52.0,101.0 L 55.0,81.0 L 60.0,68.0 L 68.0,57.0 L 76.0,51.0 L 87.0,47.0" fill="#FE5925"/>
	<path d="M 78.0,131.0 L 82.0,131.0 L 87.0,145.0 L 93.0,150.0 L 100.0,150.0 L 106.0,143.0 L 110.0,131.0 L 119.0,133.0 L 129.0,139.0 L 134.0,144.0 L 140.0,152.0 L 143.0,161.0 L 134.0,167.0 L 122.0,172.0 L 117.0,174.0 L 104.0,176.0 L 88.0,176.0 L 75.0,174.0 L 62.0,169.0 L 50.0,162.0 L 49.0,159.0 L 55.0,147.0 L 60.0,141.0 L 71.0,134.0 L 78.0,131.0" fill="#FD1A45"/>
	<path d="M 105.0,72.0 L 110.0,73.0 L 119.0,85.0 L 120.0,86.0 L 120.0,110.0 L 114.0,117.0 L 111.0,119.0 L 110.0,135.0 L 106.0,145.0 L 100.0,151.0 L 93.0,151.0 L 86.0,145.0 L 82.0,134.0 L 81.0,119.0 L 74.0,113.0 L 72.0,110.0 L 72.0,91.0 L 89.0,81.0 L 105.0,72.0" fill="#FDDDAF"/>
	<path d="M 81.0,118.0 L 83.0,118.0 L 83.0,120.0 L 91.0,122.0 L 102.0,122.0 L 110.0,119.0 L 110.0,135.0 L 106.0,145.0 L 100.0,151.0 L 93.0,151.0 L 86.0,145.0 L 82.0,134.0 L 81.0,118.0" fill="#FEC57C"/>
	<path d="M 83.0,133.0 L 88.0,138.0 L 94.0,142.0 L 99.0,142.0 L 105.0,137.0 L 109.0,133.0 L 108.0,141.0 L 104.0,147.0 L 100.0,151.0 L 93.0,151.0 L 86.0,145.0 L 83.0,137.0 L 83.0,133.0" fill="#FEDAAE"/>
	<path d="M 72.0,110.0 L 79.0,116.0 L 82.0,119.0 L 82.0,130.0 L 72.0,130.0 L 72.0,110.0" fill="#C0380E"/>
	<path d="M 119.0,110.0 L 120.0,110.0 L 120.0,130.0 L 110.0,130.0 L 110.0,119.0 L 117.0,113.0 L 119.0,110.0" fill="#C0370D"/>
	<path d="M 106.0,91.0 L 111.0,92.0 L 112.0,97.0 L 110.0,99.0 L 105.0,98.0 L 104.0,93.0 L 106.0,91.0" fill="#7E4E20"/>
	<path d="M 82.0,91.0 L 87.0,92.0 L 88.0,97.0 L 86.0,99.0 L 81.0,98.0 L 80.0,93.0 L 82.0,91.0" fill="#7E4E20"/>
	<path d="M 108.0,133.0 L 109.0,133.0 L 108.0,141.0 L 105.0,137.0 L 108.0,133.0" fill="#FECFA5"/>
</svg>
