<?xml version="1.0" ?>
<svg baseProfile="full" height="600px" version="1.1" viewBox="-12.06 -12.06 144.12 144.12" width="600px" xmlns="http://www.w3.org/2000/svg" xmlns:ev="http://www.w3.org/2001/xml-events" xmlns:xlink="http://www.w3.org/1999/xlink">
	<defs/>
	<path d="M 0.0,0.0 L 120.0,0.0 L 120.0,120.0 L 0.0,120.0 L 0.0,0.0" fill="#FDFDFD"/>
	<path d="M 62.0,48.0 L 69.0,48.0 L 75.0,53.0 L 76.0,55.0 L 76.0,65.0 L 72.0,70.0 L 69.0,72.0 L 62.0,72.0 L 56.0,69.0 L 53.0,65.0 L 53.0,55.0 L 57.0,50.0 L 62.0,48.0" fill="#050505"/>
	<path d="M 22.0,48.0 L 29.0,48.0 L 35.0,53.0 L 36.0,55.0 L 36.0,65.0 L 32.0,70.0 L 29.0,72.0 L 22.0,72.0 L 16.0,69.0 L 13.0,65.0 L 13.0,55.0 L 17.0,50.0 L 22.0,48.0" fill="#050505"/>
	<path d="M 91.0,22.0 L 99.0,22.0 L 105.0,26.0 L 107.0,28.0 L 107.0,36.0 L 103.0,41.0 L 99.0,43.0 L 91.0,43.0 L 86.0,40.0 L 83.0,35.0 L 84.0,28.0 L 89.0,23.0 L 91.0,22.0" fill="#060606"/>
</svg>
