<?xml version="1.0" ?>
<svg baseProfile="full" height="600px" version="1.1" viewBox="-12.864 -12.864 153.728 153.728" width="600px" xmlns="http://www.w3.org/2000/svg" xmlns:ev="http://www.w3.org/2001/xml-events" xmlns:xlink="http://www.w3.org/1999/xlink">
	<defs/>
	<path d="M 0.0,0.0 L 128.0,0.0 L 128.0,128.0 L 0.0,128.0 L 0.0,0.0" fill="#FDFDFD"/>
	<path d="M 97.0,55.0 L 107.0,55.0 L 112.0,59.0 L 114.0,63.0 L 114.0,70.0 L 110.0,76.0 L 107.0,78.0 L 97.0,78.0 L 91.0,73.0 L 90.0,70.0 L 90.0,62.0 L 95.0,56.0 L 97.0,55.0" fill="#080808"/>
	<path d="M 60.0,52.0 L 67.0,52.0 L 73.0,55.0 L 76.0,60.0 L 76.0,67.0 L 73.0,73.0 L 67.0,76.0 L 60.0,76.0 L 53.0,70.0 L 52.0,67.0 L 52.0,60.0 L 55.0,55.0 L 60.0,52.0" fill="#060606"/>
	<path d="M 21.0,50.0 L 31.0,50.0 L 36.0,55.0 L 38.0,58.0 L 37.0,67.0 L 32.0,72.0 L 31.0,73.0 L 21.0,73.0 L 15.0,68.0 L 14.0,66.0 L 14.0,57.0 L 19.0,51.0 L 21.0,50.0" fill="#070707"/>
	<path d="M 62.0,60.0 L 67.0,61.0 L 68.0,66.0 L 66.0,68.0 L 61.0,67.0 L 60.0,62.0 L 62.0,60.0" fill="#EAEAEA"/>
	<path d="M 23.0,58.0 L 28.0,58.0 L 30.0,60.0 L 29.0,64.0 L 28.0,65.0 L 23.0,65.0 L 22.0,64.0 L 22.0,59.0 L 23.0,58.0" fill="#EFEFEF"/>
	<path d="M 99.0,63.0 L 104.0,63.0 L 106.0,65.0 L 105.0,69.0 L 104.0,70.0 L 99.0,70.0 L 98.0,64.0 L 99.0,63.0" fill="#F1F1F1"/>
</svg>
