<?xml version="1.0" ?>
<svg baseProfile="full" height="600px" version="1.1" viewBox="-20.1 -20.1 240.2 240.2" width="600px" xmlns="http://www.w3.org/2000/svg" xmlns:ev="http://www.w3.org/2001/xml-events" xmlns:xlink="http://www.w3.org/1999/xlink">
	<defs/>
	<path d="M 0.0,0.0 L 200.0,0.0 L 200.0,200.0 L 0.0,200.0 L 0.0,0.0" fill="#FDFDFD"/>
	<path d="M 94.0,76.0 L 105.0,76.0 L 114.0,80.0 L 121.0,87.0 L 124.0,94.0 L 124.0,105.0 L 120.0,114.0 L 113.0,121.0 L 105.0,124.0 L 94.0,124.0 L 86.0,120.0 L 78.0,111.0 L 76.0,105.0 L 76.0,94.0 L 80.0,86.0 L 87.0,79.0 L 94.0,76.0" fill="#070707"/>
	<path d="M 158.0,84.0 L 169.0,84.0 L 176.0,88.0 L 180.0,94.0 L 180.0,105.0 L 176.0,112.0 L 169.0,116.0 L 158.0,116.0 L 152.0,112.0 L 149.0,108.0 L 148.0,105.0 L 148.0,94.0 L 152.0,88.0 L 158.0,84.0" fill="#090909"/>
	<path d="M 95.0,84.0 L 104.0,84.0 L 111.0,88.0 L 115.0,93.0 L 116.0,96.0 L 116.0,105.0 L 110.0,113.0 L 105.0,116.0 L 96.0,116.0 L 89.0,112.0 L 85.0,107.0 L 84.0,104.0 L 84.0,95.0 L 88.0,89.0 L 93.0,85.0 L 95.0,84.0" fill="#F8F8F8"/>
	<path d="M 33.0,85.0 L 39.0,85.0 L 45.0,88.0 L 50.0,94.0 L 51.0,96.0 L 51.0,103.0 L 48.0,109.0 L 42.0,114.0 L 30.0,114.0 L 23.0,108.0 L 22.0,105.0 L 22.0,94.0 L 28.0,87.0 L 33.0,85.0" fill="#0C0C0C"/>
	<path d="M 160.0,89.0 L 167.0,89.0 L 173.0,93.0 L 175.0,97.0 L 175.0,103.0 L 171.0,109.0 L 167.0,111.0 L 160.0,111.0 L 155.0,107.0 L 153.0,104.0 L 153.0,96.0 L 157.0,91.0 L 160.0,89.0" fill="#F6F6F6"/>
	<path d="M 33.0,90.0 L 41.0,91.0 L 46.0,97.0 L 46.0,103.0 L 41.0,109.0 L 39.0,110.0 L 33.0,110.0 L 27.0,105.0 L 26.0,97.0 L 31.0,91.0 L 33.0,90.0" fill="#F1F1F1"/>
</svg>
