<?xml version="1.0" ?>
<svg baseProfile="full" height="600px" version="1.1" viewBox="-12.864 -12.864 153.728 153.728" width="600px" xmlns="http://www.w3.org/2000/svg" xmlns:ev="http://www.w3.org/2001/xml-events" xmlns:xlink="http://www.w3.org/1999/xlink">
	<defs/>
	<path d="M 0.0,0.0 L 128.0,0.0 L 128.0,128.0 L 0.0,128.0 L 0.0,0.0" fill="#FDFDFD"/>
	<path d="M 60.0,20.0 L 68.0,20.0 L 76.0,25.0 L 80.0,30.0 L 85.0,40.0 L 88.0,53.0 L 88.0,72.0 L 85.0,87.0 L 78.0,101.0 L 70.0,107.0 L 68.0,108.0 L 60.0,108.0 L 52.0,103.0 L 48.0,98.0 L 44.0,90.0 L 41.0,80.0 L 40.0,73.0 L 40.0,56.0 L 42.0,43.0 L 47.0,31.0 L 54.0,23.0 L 60.0,20.0" fill="#F9F9F9"/>
	<path d="M 60.0,20.0 L 68.0,20.0 L 76.0,25.0 L 80.0,30.0 L 85.0,40.0 L 88.0,53.0 L 88.0,72.0 L 85.0,87.0 L 78.0,101.0 L 70.0,107.0 L 68.0,108.0 L 60.0,108.0 L 52.0,103.0 L 48.0,98.0 L 44.0,90.0 L 41.0,80.0 L 40.0,73.0 L 40.0,56.0 L 42.0,43.0 L 47.0,31.0 L 54.0,23.0 L 60.0,20.0 M 62.0,28.0 L 56.0,33.0 L 51.0,43.0 L 48.0,55.0 L 48.0,74.0 L 53.0,90.0 L 59.0,98.0 L 62.0,100.0 L 68.0,99.0 L 73.0,93.0 L 78.0,81.0 L 80.0,73.0 L 80.0,54.0 L 76.0,40.0 L 70.0,31.0 L 66.0,28.0 L 62.0,28.0" fill="#080808"/>
</svg>
