<?xml version="1.0" ?>
<svg baseProfile="full" height="600px" version="1.1" viewBox="-16.08 -16.08 192.16 192.16" width="600px" xmlns="http://www.w3.org/2000/svg" xmlns:ev="http://www.w3.org/2001/xml-events" xmlns:xlink="http://www.w3.org/1999/xlink">
	<defs/>
	<path d="M 0.0,0.0 L 160.0,0.0 L 160.0,160.0 L 0.0,160.0 L 0.0,0.0" fill="#FDFDFE"/>
	<path d="M 81.0,64.0 L 89.0,64.0 L 97.0,68.0 L 102.0,76.0 L 102.0,84.0 L 97.0,92.0 L 90.0,96.0 L 81.0,96.0 L 75.0,92.0 L 71.0,87.0 L 70.0,85.0 L 70.0,74.0 L 77.0,66.0 L 81.0,64.0" fill="#88B4ED"/>
	<path d="M 120.0,64.0 L 129.0,64.0 L 137.0,69.0 L 140.0,74.0 L 140.0,85.0 L 136.0,92.0 L 128.0,96.0 L 120.0,96.0 L 112.0,91.0 L 109.0,86.0 L 109.0,74.0 L 113.0,68.0 L 120.0,64.0" fill="#88B4ED"/>
	<path d="M 47.0,105.0 L 58.0,105.0 L 64.0,109.0 L 68.0,115.0 L 68.0,126.0 L 64.0,132.0 L 58.0,136.0 L 46.0,136.0 L 39.0,130.0 L 37.0,126.0 L 37.0,115.0 L 41.0,109.0 L 47.0,105.0" fill="#89B5EE"/>
	<path d="M 120.0,64.0 L 129.0,64.0 L 137.0,69.0 L 140.0,74.0 L 140.0,85.0 L 136.0,92.0 L 128.0,96.0 L 120.0,96.0 L 112.0,91.0 L 109.0,86.0 L 109.0,74.0 L 113.0,68.0 L 120.0,64.0 M 121.0,68.0 L 115.0,72.0 L 113.0,75.0 L 113.0,85.0 L 117.0,90.0 L 121.0,92.0 L 130.0,91.0 L 135.0,86.0 L 136.0,85.0 L 136.0,76.0 L 133.0,71.0 L 128.0,68.0 L 121.0,68.0" fill="#5680B9"/>
	<path d="M 47.0,105.0 L 58.0,105.0 L 64.0,109.0 L 68.0,115.0 L 68.0,126.0 L 64.0,132.0 L 58.0,136.0 L 46.0,136.0 L 39.0,130.0 L 37.0,126.0 L 37.0,115.0 L 41.0,109.0 L 47.0,105.0 M 48.0,109.0 L 42.0,114.0 L 41.0,116.0 L 41.0,125.0 L 46.0,131.0 L 48.0,132.0 L 57.0,132.0 L 63.0,127.0 L 64.0,125.0 L 64.0,116.0 L 59.0,110.0 L 57.0,109.0 L 48.0,109.0" fill="#547FB9"/>
	<path d="M 81.0,64.0 L 89.0,64.0 L 97.0,68.0 L 102.0,76.0 L 102.0,84.0 L 97.0,92.0 L 90.0,96.0 L 81.0,96.0 L 75.0,92.0 L 71.0,87.0 L 70.0,85.0 L 70.0,74.0 L 77.0,66.0 L 81.0,64.0 M 82.0,68.0 L 76.0,72.0 L 74.0,76.0 L 74.0,84.0 L 78.0,90.0 L 82.0,92.0 L 89.0,92.0 L 95.0,88.0 L 98.0,83.0 L 98.0,77.0 L 94.0,71.0 L 88.0,68.0 L 82.0,68.0" fill="#5680B9"/>
</svg>
