<?xml version="1.0" ?>
<svg baseProfile="full" height="600px" version="1.1" viewBox="-9.648000000000001 -9.648000000000001 115.296 115.296" width="600px" xmlns="http://www.w3.org/2000/svg" xmlns:ev="http://www.w3.org/2001/xml-events" xmlns:xlink="http://www.w3.org/1999/xlink">
	<defs/>
	<path d="M 0.0,0.0 L 96.0,0.0 L 96.0,96.0 L 0.0,96.0 L 0.0,0.0" fill="#FCFCFC"/>
	<path d="M 60.0,52.0 L 67.0,52.0 L 73.0,55.0 L 76.0,60.0 L 76.0,67.0 L 73.0,73.0 L 67.0,76.0 L 60.0,76.0 L 55.0,73.0 L 52.0,67.0 L 52.0,60.0 L 55.0,55.0 L 60.0,52.0" fill="#050505"/>
	<path d="M 12.0,36.0 L 19.0,36.0 L 25.0,39.0 L 28.0,44.0 L 28.0,51.0 L 25.0,57.0 L 19.0,60.0 L 12.0,60.0 L 7.0,57.0 L 4.0,51.0 L 4.0,44.0 L 7.0,39.0 L 12.0,36.0" fill="#050505"/>
	<path d="M 60.0,20.0 L 67.0,20.0 L 73.0,23.0 L 76.0,28.0 L 76.0,35.0 L 73.0,41.0 L 67.0,44.0 L 60.0,44.0 L 55.0,41.0 L 52.0,35.0 L 52.0,28.0 L 55.0,23.0 L 60.0,20.0" fill="#050505"/>
</svg>
