<?xml version="1.0" ?>
<svg baseProfile="full" height="600px" version="1.1" viewBox="-12.864 -12.864 153.728 153.728" width="600px" xmlns="http://www.w3.org/2000/svg" xmlns:ev="http://www.w3.org/2001/xml-events" xmlns:xlink="http://www.w3.org/1999/xlink">
	<defs/>
	<path d="M 0.0,0.0 L 128.0,0.0 L 128.0,128.0 L 0.0,128.0 L 0.0,0.0" fill="#FDFDFD"/>
	<path d="M 62.0,52.0 L 69.0,52.0 L 74.0,55.0 L 78.0,60.0 L 78.0,67.0 L 75.0,72.0 L 72.0,75.0 L 69.0,76.0 L 62.0,76.0 L 56.0,72.0 L 54.0,67.0 L 54.0,60.0 L 58.0,54.0 L 62.0,52.0" fill="#070707"/>
	<path d="M 22.0,52.0 L 29.0,52.0 L 35.0,55.0 L 38.0,59.0 L 38.0,68.0 L 34.0,74.0 L 29.0,76.0 L 22.0,76.0 L 16.0,71.0 L 14.0,67.0 L 14.0,60.0 L 20.0,53.0 L 22.0,52.0" fill="#080808"/>
	<path d="M 100.0,48.0 L 107.0,48.0 L 113.0,51.0 L 116.0,56.0 L 116.0,63.0 L 113.0,69.0 L 107.0,72.0 L 100.0,72.0 L 93.0,66.0 L 92.0,63.0 L 92.0,56.0 L 95.0,51.0 L 100.0,48.0" fill="#060606"/>
	<path d="M 64.0,60.0 L 69.0,61.0 L 70.0,66.0 L 68.0,68.0 L 63.0,67.0 L 62.0,62.0 L 64.0,60.0" fill="#E9E9E9"/>
	<path d="M 24.0,60.0 L 29.0,61.0 L 30.0,66.0 L 28.0,68.0 L 23.0,67.0 L 22.0,62.0 L 24.0,60.0" fill="#E7E7E7"/>
	<path d="M 102.0,56.0 L 107.0,57.0 L 108.0,62.0 L 106.0,64.0 L 101.0,63.0 L 100.0,58.0 L 102.0,56.0" fill="#EAEAEA"/>
</svg>
