<?xml version="1.0" ?>
<svg baseProfile="full" height="600px" version="1.1" viewBox="-19.296000000000003 -19.296000000000003 230.592 230.592" width="600px" xmlns="http://www.w3.org/2000/svg" xmlns:ev="http://www.w3.org/2001/xml-events" xmlns:xlink="http://www.w3.org/1999/xlink">
	<defs/>
	<path d="M 0.0,0.0 L 192.0,0.0 L 192.0,192.0 L 0.0,192.0 L 0.0,0.0" fill="#4051B5"/>
	<path d="M 0.0,0.0 L 192.0,0.0 L 192.0,192.0 L 0.0,192.0 L 0.0,0.0 M 152.0,12.0 L 104.0,20.0 L 74.0,25.0 L 34.0,32.0 L 24.0,34.0 L 17.0,40.0 L 15.0,43.0 L 16.0,153.0 L 20.0,159.0 L 25.0,163.0 L 27.0,164.0 L 164.0,164.0 L 170.0,161.0 L 175.0,155.0 L 176.0,152.0 L 176.0,60.0 L 25.0,59.0 L 59.0,53.0 L 79.0,50.0 L 88.0,48.0 L 109.0,45.0 L 119.0,43.0 L 143.0,39.0 L 162.0,36.0 L 173.0,34.0 L 174.0,29.0 L 171.0,20.0 L 167.0,15.0 L 161.0,12.0 L 152.0,12.0" fill="#FDFDFE"/>
	<path d="M 152.0,12.0 L 161.0,12.0 L 168.0,16.0 L 172.0,21.0 L 174.0,29.0 L 173.0,34.0 L 143.0,39.0 L 119.0,43.0 L 97.0,47.0 L 84.0,49.0 L 68.0,52.0 L 41.0,56.0 L 25.0,59.0 L 48.0,60.0 L 41.0,71.0 L 33.0,83.0 L 32.0,84.0 L 16.0,84.0 L 15.0,56.0 L 15.0,43.0 L 21.0,36.0 L 27.0,33.0 L 70.0,26.0 L 85.0,23.0 L 104.0,20.0 L 152.0,12.0" fill="#9DA6D9"/>
	<path d="M 39.0,31.0 L 44.0,31.0 L 53.0,40.0 L 60.0,48.0 L 63.0,52.0 L 25.0,59.0 L 48.0,60.0 L 41.0,71.0 L 33.0,83.0 L 32.0,84.0 L 16.0,84.0 L 15.0,56.0 L 15.0,43.0 L 21.0,36.0 L 27.0,33.0 L 39.0,31.0" fill="#4254B6"/>
	<path d="M 152.0,12.0 L 161.0,12.0 L 168.0,16.0 L 172.0,21.0 L 174.0,29.0 L 173.0,34.0 L 147.0,38.0 L 141.0,38.0 L 132.0,29.0 L 125.0,21.0 L 123.0,18.0 L 128.0,16.0 L 152.0,12.0" fill="#9DA6D9"/>
	<path d="M 70.0,26.0 L 76.0,26.0 L 91.0,42.0 L 94.0,45.0 L 94.0,47.0 L 68.0,52.0 L 63.0,52.0 L 53.0,42.0 L 46.0,34.0 L 44.0,30.0 L 70.0,26.0" fill="#9DA6D8"/>
	<path d="M 85.0,23.0 L 92.0,23.0 L 99.0,31.0 L 110.0,42.0 L 109.0,45.0 L 94.0,47.0 L 87.0,39.0 L 76.0,27.0 L 74.0,25.0 L 85.0,23.0" fill="#9DA6D9"/>
	<path d="M 160.0,60.0 L 176.0,60.0 L 169.0,71.0 L 161.0,83.0 L 160.0,84.0 L 144.0,84.0 L 151.0,72.0 L 160.0,60.0" fill="#9CA6D8"/>
	<path d="M 128.0,60.0 L 144.0,60.0 L 137.0,71.0 L 129.0,83.0 L 128.0,84.0 L 112.0,84.0 L 119.0,72.0 L 128.0,60.0" fill="#9CA6D8"/>
	<path d="M 96.0,60.0 L 112.0,60.0 L 105.0,71.0 L 97.0,83.0 L 96.0,84.0 L 80.0,84.0 L 87.0,72.0 L 96.0,60.0" fill="#9CA6D8"/>
	<path d="M 64.0,60.0 L 80.0,60.0 L 73.0,71.0 L 65.0,83.0 L 64.0,84.0 L 48.0,84.0 L 55.0,72.0 L 64.0,60.0" fill="#9CA6D8"/>
	<path d="M 32.0,60.0 L 48.0,60.0 L 41.0,71.0 L 33.0,83.0 L 32.0,84.0 L 16.0,84.0 L 23.0,72.0 L 32.0,60.0" fill="#9CA6D8"/>
	<path d="M 70.0,26.0 L 76.0,26.0 L 91.0,42.0 L 94.0,45.0 L 94.0,47.0 L 84.0,49.0 L 79.0,49.0 L 60.0,30.0 L 60.0,28.0 L 70.0,26.0" fill="#4254B6"/>
	<path d="M 100.0,21.0 L 108.0,21.0 L 123.0,37.0 L 126.0,41.0 L 119.0,43.0 L 110.0,44.0 L 103.0,36.0 L 92.0,25.0 L 92.0,23.0 L 100.0,21.0" fill="#4254B6"/>
	<path d="M 128.0,16.0 L 139.0,16.0 L 157.0,34.0 L 157.0,36.0 L 147.0,38.0 L 141.0,38.0 L 132.0,29.0 L 125.0,21.0 L 123.0,18.0 L 128.0,16.0" fill="#4254B6"/>
	<path d="M 16.0,60.0 L 32.0,60.0 L 25.0,71.0 L 17.0,83.0 L 16.0,83.0 L 16.0,60.0" fill="#4153B6"/>
	<path d="M 155.0,12.0 L 164.0,13.0 L 170.0,18.0 L 173.0,24.0 L 173.0,32.0 L 166.0,26.0 L 159.0,18.0 L 155.0,14.0 L 155.0,12.0" fill="#4657B8"/>
	<path d="M 27.0,40.0 L 34.0,41.0 L 36.0,43.0 L 36.0,49.0 L 32.0,52.0 L 27.0,52.0 L 24.0,48.0 L 24.0,43.0 L 27.0,40.0" fill="#9AA3D7"/>
</svg>
