<?xml version="1.0" ?>
<svg baseProfile="full" height="600px" version="1.1" viewBox="-19.296000000000003 -19.296000000000003 230.592 230.592" width="600px" xmlns="http://www.w3.org/2000/svg" xmlns:ev="http://www.w3.org/2001/xml-events" xmlns:xlink="http://www.w3.org/1999/xlink">
	<defs/>
	<path d="M 0.0,0.0 L 192.0,0.0 L 192.0,192.0 L 0.0,192.0 L 0.0,0.0" fill="#4052B5"/>
	<path d="M 0.0,0.0 L 192.0,0.0 L 192.0,192.0 L 0.0,192.0 L 0.0,0.0 M 142.0,10.0 L 74.0,14.0 L 38.0,16.0 L 27.0,17.0 L 21.0,21.0 L 16.0,27.0 L 16.0,57.0 L 17.0,70.0 L 19.0,122.0 L 20.0,133.0 L 23.0,139.0 L 29.0,144.0 L 31.0,145.0 L 47.0,145.0 L 118.0,142.0 L 166.0,140.0 L 174.0,136.0 L 179.0,130.0 L 180.0,128.0 L 180.0,109.0 L 177.0,48.0 L 176.0,33.0 L 176.0,22.0 L 171.0,14.0 L 165.0,10.0 L 142.0,10.0" fill="#FCFDFE"/>
	<path d="M 122.0,11.0 L 137.0,11.0 L 137.0,12.0 L 128.0,13.0 L 137.0,25.0 L 143.0,33.0 L 170.0,34.0 L 175.0,35.0 L 173.0,40.0 L 161.0,60.0 L 145.0,60.0 L 151.0,49.0 L 158.0,37.0 L 144.0,37.0 L 130.0,60.0 L 129.0,61.0 L 114.0,61.0 L 116.0,56.0 L 127.0,37.0 L 121.0,38.0 L 111.0,38.0 L 109.0,43.0 L 97.0,63.0 L 81.0,63.0 L 89.0,49.0 L 95.0,39.0 L 80.0,40.0 L 66.0,63.0 L 65.0,64.0 L 50.0,64.0 L 52.0,59.0 L 63.0,40.0 L 48.0,42.0 L 38.0,58.0 L 33.0,66.0 L 17.0,66.0 L 16.0,57.0 L 16.0,27.0 L 23.0,19.0 L 27.0,17.0 L 51.0,15.0 L 110.0,12.0 L 122.0,11.0" fill="#9FA8D9"/>
	<path d="M 51.0,15.0 L 63.0,15.0 L 75.0,31.0 L 79.0,36.0 L 80.0,40.0 L 66.0,63.0 L 65.0,64.0 L 50.0,64.0 L 52.0,59.0 L 63.0,40.0 L 48.0,42.0 L 38.0,58.0 L 33.0,66.0 L 17.0,66.0 L 16.0,57.0 L 16.0,27.0 L 23.0,19.0 L 27.0,17.0 L 51.0,15.0" fill="#9BA4D8"/>
	<path d="M 122.0,11.0 L 137.0,11.0 L 137.0,12.0 L 128.0,13.0 L 137.0,25.0 L 143.0,33.0 L 170.0,34.0 L 175.0,35.0 L 173.0,40.0 L 161.0,60.0 L 145.0,60.0 L 151.0,49.0 L 158.0,37.0 L 144.0,37.0 L 130.0,60.0 L 129.0,61.0 L 114.0,61.0 L 116.0,56.0 L 127.0,37.0 L 117.0,37.0 L 117.0,36.0 L 126.0,35.0 L 120.0,26.0 L 110.0,13.0 L 110.0,12.0 L 122.0,11.0" fill="#A1AADA"/>
	<path d="M 27.0,17.0 L 48.0,17.0 L 61.0,35.0 L 63.0,39.0 L 37.0,41.0 L 32.0,42.0 L 20.0,62.0 L 17.0,65.0 L 16.0,57.0 L 16.0,27.0 L 23.0,19.0 L 27.0,17.0" fill="#4354B6"/>
	<path d="M 142.0,10.0 L 165.0,10.0 L 171.0,14.0 L 176.0,22.0 L 176.0,35.0 L 143.0,34.0 L 134.0,23.0 L 127.0,12.0 L 142.0,10.0" fill="#9DA6D9"/>
	<path d="M 94.0,38.0 L 111.0,38.0 L 109.0,43.0 L 97.0,63.0 L 81.0,63.0 L 89.0,49.0 L 94.0,41.0 L 94.0,38.0" fill="#9BA4D8"/>
	<path d="M 134.0,36.0 L 144.0,36.0 L 136.0,50.0 L 129.0,61.0 L 114.0,61.0 L 116.0,56.0 L 127.0,37.0 L 134.0,36.0" fill="#9CA5D8"/>
	<path d="M 63.0,15.0 L 79.0,15.0 L 88.0,26.0 L 95.0,37.0 L 89.0,38.0 L 79.0,38.0 L 67.0,22.0 L 63.0,17.0 L 63.0,15.0" fill="#4153B6"/>
	<path d="M 99.0,13.0 L 111.0,13.0 L 122.0,27.0 L 127.0,35.0 L 126.0,36.0 L 111.0,36.0 L 99.0,20.0 L 95.0,14.0 L 99.0,13.0" fill="#4153B6"/>
	<path d="M 137.0,11.0 L 143.0,11.0 L 152.0,23.0 L 159.0,32.0 L 159.0,34.0 L 143.0,34.0 L 134.0,23.0 L 127.0,12.0 L 137.0,11.0" fill="#4153B6"/>
	<path d="M 159.0,10.0 L 165.0,10.0 L 171.0,14.0 L 175.0,20.0 L 175.0,31.0 L 170.0,26.0 L 161.0,14.0 L 159.0,10.0" fill="#4657B7"/>
	<path d="M 28.0,24.0 L 34.0,24.0 L 37.0,26.0 L 37.0,33.0 L 33.0,36.0 L 28.0,35.0 L 25.0,31.0 L 26.0,26.0 L 28.0,24.0" fill="#99A2D7"/>
</svg>
