<?xml version="1.0" ?>
<svg baseProfile="full" height="600px" version="1.1" viewBox="-19.296000000000003 -19.296000000000003 230.592 230.592" width="600px" xmlns="http://www.w3.org/2000/svg" xmlns:ev="http://www.w3.org/2001/xml-events" xmlns:xlink="http://www.w3.org/1999/xlink">
	<defs/>
	<path d="M 0.0,0.0 L 192.0,0.0 L 192.0,192.0 L 0.0,192.0 L 0.0,0.0" fill="#4152B6"/>
	<path d="M 0.0,0.0 L 192.0,0.0 L 192.0,192.0 L 0.0,192.0 L 0.0,0.0 M 155.0,30.0 L 96.0,36.0 L 52.0,40.0 L 32.0,42.0 L 23.0,45.0 L 18.0,49.0 L 15.0,55.0 L 15.0,160.0 L 19.0,168.0 L 25.0,172.0 L 28.0,173.0 L 115.0,174.0 L 162.0,174.0 L 170.0,170.0 L 174.0,165.0 L 176.0,160.0 L 176.0,69.0 L 51.0,68.0 L 37.0,67.0 L 55.0,65.0 L 79.0,63.0 L 111.0,60.0 L 115.0,59.0 L 141.0,57.0 L 172.0,54.0 L 175.0,53.0 L 175.0,42.0 L 171.0,36.0 L 167.0,32.0 L 161.0,30.0 L 155.0,30.0" fill="#FCFDFE"/>
	<path d="M 155.0,30.0 L 164.0,31.0 L 169.0,34.0 L 174.0,40.0 L 175.0,42.0 L 175.0,53.0 L 172.0,54.0 L 132.0,58.0 L 115.0,59.0 L 101.0,61.0 L 70.0,64.0 L 47.0,66.0 L 37.0,67.0 L 51.0,68.0 L 46.0,73.0 L 38.0,84.0 L 32.0,93.0 L 16.0,93.0 L 15.0,55.0 L 19.0,48.0 L 24.0,44.0 L 32.0,42.0 L 74.0,38.0 L 145.0,31.0 L 155.0,30.0" fill="#9DA6D8"/>
	<path d="M 32.0,42.0 L 46.0,42.0 L 55.0,52.0 L 62.0,61.0 L 63.0,64.0 L 37.0,67.0 L 51.0,68.0 L 46.0,73.0 L 38.0,84.0 L 32.0,93.0 L 16.0,93.0 L 15.0,55.0 L 19.0,48.0 L 24.0,44.0 L 32.0,42.0" fill="#4455B7"/>
	<path d="M 96.0,69.0 L 176.0,69.0 L 174.0,74.0 L 164.0,88.0 L 160.0,94.0 L 144.0,94.0 L 146.0,89.0 L 154.0,78.0 L 159.0,70.0 L 143.0,70.0 L 141.0,75.0 L 130.0,91.0 L 128.0,93.0 L 113.0,93.0 L 115.0,88.0 L 123.0,76.0 L 127.0,70.0 L 111.0,70.0 L 109.0,74.0 L 102.0,85.0 L 96.0,93.0 L 80.0,93.0 L 85.0,84.0 L 93.0,73.0 L 96.0,69.0" fill="#9DA6D8"/>
	<path d="M 82.0,37.0 L 94.0,37.0 L 105.0,50.0 L 111.0,58.0 L 111.0,60.0 L 70.0,64.0 L 63.0,64.0 L 52.0,50.0 L 45.0,42.0 L 45.0,41.0 L 82.0,37.0" fill="#9CA5D8"/>
	<path d="M 23.0,67.0 L 51.0,68.0 L 46.0,73.0 L 38.0,84.0 L 32.0,93.0 L 16.0,93.0 L 16.0,68.0 L 23.0,67.0" fill="#9CA5D8"/>
	<path d="M 155.0,30.0 L 164.0,31.0 L 169.0,34.0 L 174.0,40.0 L 175.0,42.0 L 175.0,53.0 L 172.0,54.0 L 155.0,55.0 L 158.0,54.0 L 149.0,43.0 L 142.0,34.0 L 136.0,33.0 L 136.0,32.0 L 155.0,30.0" fill="#9DA6D9"/>
	<path d="M 82.0,37.0 L 94.0,37.0 L 105.0,50.0 L 111.0,58.0 L 111.0,60.0 L 94.0,61.0 L 91.0,56.0 L 78.0,40.0 L 74.0,38.0 L 82.0,37.0" fill="#9DA6D8"/>
	<path d="M 64.0,69.0 L 80.0,69.0 L 73.0,80.0 L 65.0,92.0 L 64.0,93.0 L 48.0,93.0 L 50.0,89.0 L 62.0,71.0 L 64.0,69.0" fill="#9CA5D8"/>
	<path d="M 65.0,39.0 L 78.0,39.0 L 86.0,48.0 L 94.0,58.0 L 94.0,61.0 L 88.0,62.0 L 79.0,62.0 L 70.0,51.0 L 62.0,41.0 L 65.0,39.0" fill="#4254B6"/>
	<path d="M 127.0,33.0 L 142.0,33.0 L 153.0,46.0 L 158.0,52.0 L 158.0,54.0 L 150.0,56.0 L 143.0,56.0 L 136.0,48.0 L 126.0,35.0 L 127.0,33.0" fill="#4354B6"/>
	<path d="M 96.0,36.0 L 110.0,36.0 L 122.0,50.0 L 127.0,56.0 L 127.0,58.0 L 111.0,59.0 L 98.0,43.0 L 94.0,37.0 L 96.0,36.0" fill="#4254B6"/>
	<path d="M 16.0,69.0 L 31.0,69.0 L 29.0,74.0 L 20.0,87.0 L 16.0,91.0 L 16.0,69.0" fill="#4153B6"/>
	<path d="M 158.0,31.0 L 167.0,32.0 L 174.0,40.0 L 175.0,42.0 L 175.0,52.0 L 170.0,47.0 L 159.0,34.0 L 158.0,31.0" fill="#4657B7"/>
	<path d="M 28.0,50.0 L 34.0,50.0 L 37.0,53.0 L 37.0,58.0 L 34.0,61.0 L 27.0,61.0 L 25.0,58.0 L 26.0,51.0 L 28.0,50.0" fill="#9BA4D8"/>
</svg>
