<?xml version="1.0" ?>
<svg baseProfile="full" height="600px" version="1.1" viewBox="-19.296000000000003 -19.296000000000003 230.592 230.592" width="600px" xmlns="http://www.w3.org/2000/svg" xmlns:ev="http://www.w3.org/2001/xml-events" xmlns:xlink="http://www.w3.org/1999/xlink">
	<defs/>
	<path d="M 0.0,0.0 L 192.0,0.0 L 192.0,192.0 L 0.0,192.0 L 0.0,0.0" fill="#FFFDFD"/>
	<path d="M 41.0,51.0 L 182.0,51.0 L 188.0,54.0 L 191.0,58.0 L 192.0,61.0 L 192.0,131.0 L 189.0,137.0 L 183.0,141.0 L 41.0,141.0 L 31.0,130.0 L 22.0,119.0 L 9.0,105.0 L 2.0,97.0 L 4.0,93.0 L 15.0,81.0 L 22.0,73.0 L 34.0,59.0 L 41.0,51.0" fill="#FF3F03"/>
	<path d="M 91.0,66.0 L 95.0,68.0 L 107.0,84.0 L 110.0,86.0 L 112.0,82.0 L 124.0,66.0 L 129.0,68.0 L 133.0,72.0 L 131.0,77.0 L 119.0,92.0 L 117.0,97.0 L 131.0,115.0 L 133.0,120.0 L 126.0,126.0 L 123.0,125.0 L 111.0,109.0 L 110.0,106.0 L 105.0,111.0 L 93.0,126.0 L 88.0,124.0 L 84.0,120.0 L 86.0,116.0 L 95.0,104.0 L 100.0,97.0 L 98.0,92.0 L 84.0,74.0 L 86.0,70.0 L 91.0,66.0" fill="#FFF9F8"/>
</svg>
