<?xml version="1.0" ?>
<svg baseProfile="full" height="600px" version="1.1" viewBox="-20.1 -20.1 240.2 240.2" width="600px" xmlns="http://www.w3.org/2000/svg" xmlns:ev="http://www.w3.org/2001/xml-events" xmlns:xlink="http://www.w3.org/1999/xlink">
	<defs/>
	<path d="M 0.0,0.0 L 200.0,0.0 L 200.0,200.0 L 0.0,200.0 L 0.0,0.0" fill="#FCFCFC"/>
	<path d="M 0.0,0.0 L 200.0,0.0 L 200.0,51.0 L 196.0,46.0 L 191.0,42.0 L 189.0,41.0 L 51.0,41.0 L 42.0,52.0 L 33.0,62.0 L 24.0,73.0 L 15.0,83.0 L 6.0,94.0 L 2.0,99.0 L 4.0,104.0 L 14.0,115.0 L 23.0,126.0 L 32.0,136.0 L 41.0,147.0 L 50.0,157.0 L 51.0,159.0 L 189.0,159.0 L 195.0,155.0 L 198.0,151.0 L 200.0,148.0 L 200.0,200.0 L 0.0,200.0 L 0.0,0.0" fill="#FDFDFD"/>
	<path d="M 51.0,40.0 L 189.0,40.0 L 195.0,44.0 L 199.0,49.0 L 200.0,51.0 L 200.0,148.0 L 197.0,154.0 L 191.0,159.0 L 189.0,160.0 L 51.0,160.0 L 39.0,146.0 L 27.0,132.0 L 15.0,118.0 L 3.0,104.0 L 1.0,99.0 L 10.0,88.0 L 19.0,78.0 L 28.0,67.0 L 37.0,57.0 L 46.0,46.0 L 51.0,40.0 M 55.0,48.0 L 42.0,63.0 L 30.0,77.0 L 18.0,91.0 L 11.0,99.0 L 13.0,103.0 L 22.0,113.0 L 31.0,124.0 L 40.0,134.0 L 49.0,145.0 L 55.0,152.0 L 186.0,152.0 L 191.0,149.0 L 192.0,146.0 L 192.0,53.0 L 189.0,49.0 L 186.0,48.0 L 55.0,48.0" fill="#030303"/>
	<path d="M 129.0,73.0 L 134.0,77.0 L 133.0,81.0 L 115.0,99.0 L 117.0,103.0 L 134.0,120.0 L 133.0,124.0 L 131.0,126.0 L 127.0,125.0 L 109.0,107.0 L 105.0,109.0 L 88.0,126.0 L 84.0,125.0 L 81.0,121.0 L 101.0,101.0 L 99.0,97.0 L 81.0,79.0 L 85.0,74.0 L 89.0,75.0 L 107.0,93.0 L 111.0,91.0 L 129.0,73.0" fill="#040404"/>
</svg>
