<?xml version="1.0" ?>
<svg baseProfile="full" height="600px" version="1.1" viewBox="-9.648000000000001 -9.648000000000001 115.296 115.296" width="600px" xmlns="http://www.w3.org/2000/svg" xmlns:ev="http://www.w3.org/2001/xml-events" xmlns:xlink="http://www.w3.org/1999/xlink">
	<defs/>
	<path d="M 0.0,0.0 L 96.0,0.0 L 96.0,96.0 L 0.0,96.0 L 0.0,0.0" fill="#030303"/>
	<path d="M 0.0,0.0 L 96.0,0.0 L 96.0,96.0 L 0.0,96.0 L 0.0,0.0 M 23.0,16.0 L 18.0,22.0 L 3.0,46.0 L 4.0,52.0 L 18.0,74.0 L 23.0,80.0 L 89.0,80.0 L 93.0,76.0 L 94.0,74.0 L 94.0,21.0 L 89.0,16.0 L 23.0,16.0" fill="#FBFBFB"/>
	<path d="M 41.0,28.0 L 44.0,29.0 L 53.0,40.0 L 55.0,41.0 L 57.0,37.0 L 64.0,28.0 L 68.0,30.0 L 71.0,34.0 L 60.0,47.0 L 62.0,51.0 L 71.0,62.0 L 66.0,68.0 L 64.0,68.0 L 56.0,58.0 L 55.0,55.0 L 50.0,59.0 L 43.0,68.0 L 39.0,66.0 L 37.0,64.0 L 38.0,60.0 L 47.0,49.0 L 45.0,44.0 L 36.0,34.0 L 41.0,28.0" fill="#F5F5F5"/>
</svg>
