<?xml version="1.0" ?>
<svg baseProfile="full" height="600px" version="1.1" viewBox="-9.648000000000001 -9.648000000000001 115.296 115.296" width="600px" xmlns="http://www.w3.org/2000/svg" xmlns:ev="http://www.w3.org/2001/xml-events" xmlns:xlink="http://www.w3.org/1999/xlink">
	<defs/>
	<path d="M 0.0,0.0 L 96.0,0.0 L 96.0,96.0 L 0.0,96.0 L 0.0,0.0" fill="#020202"/>
	<path d="M 0.0,0.0 L 96.0,0.0 L 96.0,96.0 L 0.0,96.0 L 0.0,0.0 M 31.0,14.0 L 25.0,22.0 L 11.0,46.0 L 12.0,52.0 L 29.0,80.0 L 31.0,82.0 L 90.0,82.0 L 95.0,77.0 L 95.0,18.0 L 91.0,14.0 L 31.0,14.0" fill="#F9F9F9"/>
	<path d="M 45.0,27.0 L 50.0,32.0 L 54.0,38.0 L 54.0,40.0 L 58.0,36.0 L 64.0,27.0 L 68.0,29.0 L 71.0,31.0 L 69.0,35.0 L 61.0,47.0 L 63.0,52.0 L 71.0,63.0 L 70.0,66.0 L 66.0,69.0 L 63.0,68.0 L 56.0,57.0 L 54.0,56.0 L 52.0,61.0 L 46.0,69.0 L 41.0,66.0 L 40.0,63.0 L 49.0,49.0 L 47.0,44.0 L 40.0,33.0 L 42.0,29.0 L 45.0,27.0" fill="#F5F5F5"/>
</svg>
