<?xml version="1.0" ?>
<svg baseProfile="full" height="600px" version="1.1" viewBox="-9.648000000000001 -9.648000000000001 115.296 115.296" width="600px" xmlns="http://www.w3.org/2000/svg" xmlns:ev="http://www.w3.org/2001/xml-events" xmlns:xlink="http://www.w3.org/1999/xlink">
	<defs/>
	<path d="M 0.0,0.0 L 96.0,0.0 L 96.0,96.0 L 0.0,96.0 L 0.0,0.0" fill="#FAFAFA"/>
	<path d="M 23.0,19.0 L 86.0,19.0 L 90.0,23.0 L 90.0,72.0 L 86.0,77.0 L 23.0,77.0 L 18.0,72.0 L 3.0,50.0 L 4.0,45.0 L 12.0,33.0 L 21.0,20.0 L 23.0,19.0" fill="#030303"/>
	<path d="M 36.0,29.0 L 43.0,35.0 L 49.0,41.0 L 53.0,39.0 L 63.0,29.0 L 68.0,34.0 L 66.0,38.0 L 57.0,47.0 L 59.0,51.0 L 68.0,60.0 L 66.0,65.0 L 63.0,67.0 L 51.0,55.0 L 47.0,57.0 L 37.0,67.0 L 32.0,62.0 L 33.0,58.0 L 41.0,51.0 L 43.0,47.0 L 35.0,39.0 L 32.0,37.0 L 33.0,32.0 L 36.0,29.0" fill="#F9F9F9"/>
</svg>
