<?xml version="1.0" ?>
<svg baseProfile="full" height="600px" version="1.1" viewBox="-19.296000000000003 -19.296000000000003 230.592 230.592" width="600px" xmlns="http://www.w3.org/2000/svg" xmlns:ev="http://www.w3.org/2001/xml-events" xmlns:xlink="http://www.w3.org/1999/xlink">
	<defs/>
	<path d="M 0.0,0.0 L 192.0,0.0 L 192.0,192.0 L 0.0,192.0 L 0.0,0.0" fill="#FFFCFC"/>
	<path d="M 50.0,59.0 L 185.0,59.0 L 192.0,65.0 L 192.0,126.0 L 187.0,132.0 L 185.0,133.0 L 50.0,133.0 L 40.0,125.0 L 29.0,116.0 L 18.0,107.0 L 7.0,98.0 L 7.0,94.0 L 20.0,83.0 L 31.0,74.0 L 47.0,61.0 L 50.0,59.0" fill="#FF3E01"/>
	<path d="M 88.0,72.0 L 92.0,73.0 L 104.0,82.0 L 113.0,88.0 L 129.0,76.0 L 134.0,72.0 L 138.0,73.0 L 143.0,78.0 L 141.0,82.0 L 124.0,95.0 L 125.0,98.0 L 137.0,107.0 L 143.0,112.0 L 141.0,116.0 L 137.0,120.0 L 133.0,119.0 L 115.0,105.0 L 112.0,104.0 L 94.0,118.0 L 91.0,120.0 L 87.0,119.0 L 82.0,112.0 L 97.0,100.0 L 101.0,97.0 L 103.0,97.0 L 103.0,95.0 L 99.0,93.0 L 83.0,81.0 L 83.0,78.0 L 88.0,72.0" fill="#FFF9F7"/>
</svg>
