<?xml version="1.0" ?>
<svg baseProfile="full" height="600px" version="1.1" viewBox="-19.296000000000003 -19.296000000000003 230.592 230.592" width="600px" xmlns="http://www.w3.org/2000/svg" xmlns:ev="http://www.w3.org/2001/xml-events" xmlns:xlink="http://www.w3.org/1999/xlink">
	<defs/>
	<path d="M 0.0,0.0 L 192.0,0.0 L 192.0,192.0 L 0.0,192.0 L 0.0,0.0" fill="#FF3E02"/>
	<path d="M 0.0,97.0 L 7.0,103.0 L 19.0,116.0 L 26.0,124.0 L 39.0,138.0 L 39.0,140.0 L 183.0,139.0 L 188.0,136.0 L 192.0,132.0 L 192.0,192.0 L 0.0,192.0 L 0.0,97.0" fill="#FFFDFD"/>
	<path d="M 0.0,0.0 L 192.0,0.0 L 192.0,60.0 L 187.0,55.0 L 183.0,53.0 L 40.0,53.0 L 30.0,63.0 L 23.0,71.0 L 12.0,83.0 L 1.0,95.0 L 0.0,95.0 L 0.0,0.0" fill="#FFFDFD"/>
	<path d="M 87.0,68.0 L 89.0,68.0 L 96.0,76.0 L 107.0,87.0 L 111.0,85.0 L 126.0,70.0 L 127.0,68.0 L 131.0,70.0 L 136.0,75.0 L 136.0,77.0 L 128.0,84.0 L 117.0,95.0 L 119.0,99.0 L 130.0,110.0 L 136.0,115.0 L 134.0,119.0 L 129.0,124.0 L 127.0,124.0 L 120.0,116.0 L 109.0,105.0 L 105.0,107.0 L 90.0,122.0 L 89.0,124.0 L 85.0,122.0 L 81.0,118.0 L 82.0,114.0 L 99.0,97.0 L 97.0,93.0 L 82.0,78.0 L 80.0,77.0 L 82.0,73.0 L 87.0,68.0" fill="#FFFBFA"/>
</svg>
