<?xml version="1.0" ?>
<svg baseProfile="full" height="600px" version="1.1" viewBox="-20.1 -20.1 240.2 240.2" width="600px" xmlns="http://www.w3.org/2000/svg" xmlns:ev="http://www.w3.org/2001/xml-events" xmlns:xlink="http://www.w3.org/1999/xlink">
	<defs/>
	<path d="M 0.0,0.0 L 200.0,0.0 L 200.0,200.0 L 0.0,200.0 L 0.0,0.0" fill="#FDFDFD"/>
	<path d="M 0.0,0.0 L 200.0,0.0 L 200.0,51.0 L 196.0,46.0 L 196.0,44.0 L 192.0,42.0 L 189.0,41.0 L 52.0,41.0 L 41.0,54.0 L 29.0,68.0 L 18.0,81.0 L 6.0,95.0 L 3.0,99.0 L 5.0,103.0 L 14.0,114.0 L 27.0,129.0 L 38.0,142.0 L 50.0,156.0 L 52.0,159.0 L 189.0,159.0 L 194.0,156.0 L 196.0,156.0 L 198.0,151.0 L 200.0,149.0 L 200.0,200.0 L 0.0,200.0 L 0.0,0.0" fill="#FCFCFC"/>
	<path d="M 52.0,40.0 L 189.0,40.0 L 196.0,44.0 L 200.0,51.0 L 200.0,149.0 L 196.0,156.0 L 189.0,160.0 L 52.0,160.0 L 40.0,146.0 L 28.0,132.0 L 19.0,121.0 L 10.0,111.0 L 2.0,101.0 L 4.0,96.0 L 15.0,84.0 L 24.0,73.0 L 37.0,58.0 L 49.0,44.0 L 52.0,40.0 M 56.0,48.0 L 43.0,63.0 L 31.0,77.0 L 20.0,90.0 L 13.0,98.0 L 14.0,103.0 L 24.0,114.0 L 33.0,125.0 L 46.0,140.0 L 56.0,152.0 L 187.0,152.0 L 191.0,149.0 L 192.0,146.0 L 192.0,53.0 L 187.0,48.0 L 56.0,48.0" fill="#070707"/>
	<path d="M 92.0,71.0 L 97.0,76.0 L 110.0,91.0 L 110.0,93.0 L 115.0,89.0 L 124.0,78.0 L 129.0,72.0 L 133.0,73.0 L 136.0,77.0 L 125.0,90.0 L 118.0,99.0 L 120.0,103.0 L 128.0,113.0 L 136.0,123.0 L 132.0,128.0 L 128.0,127.0 L 116.0,113.0 L 112.0,108.0 L 110.0,108.0 L 102.0,118.0 L 93.0,129.0 L 87.0,124.0 L 89.0,120.0 L 101.0,106.0 L 105.0,101.0 L 103.0,97.0 L 92.0,84.0 L 87.0,78.0 L 89.0,74.0 L 92.0,71.0" fill="#080808"/>
</svg>
