<?xml version="1.0" ?>
<svg baseProfile="full" height="600px" version="1.1" viewBox="-12.864 -12.864 153.728 153.728" width="600px" xmlns="http://www.w3.org/2000/svg" xmlns:ev="http://www.w3.org/2001/xml-events" xmlns:xlink="http://www.w3.org/1999/xlink">
	<defs/>
	<path d="M 0.0,0.0 L 128.0,0.0 L 128.0,128.0 L 0.0,128.0 L 0.0,0.0" fill="#FCFCFC"/>
	<path d="M 33.0,24.0 L 36.0,25.0 L 38.0,32.0 L 38.0,36.0 L 46.0,36.0 L 52.0,26.0 L 59.0,29.0 L 57.0,34.0 L 54.0,40.0 L 62.0,36.0 L 73.0,36.0 L 82.0,40.0 L 89.0,47.0 L 98.0,50.0 L 104.0,55.0 L 108.0,63.0 L 108.0,66.0 L 113.0,68.0 L 119.0,76.0 L 120.0,79.0 L 120.0,89.0 L 116.0,97.0 L 110.0,102.0 L 105.0,104.0 L 31.0,104.0 L 23.0,100.0 L 17.0,92.0 L 16.0,89.0 L 16.0,80.0 L 19.0,73.0 L 23.0,66.0 L 14.0,68.0 L 10.0,68.0 L 8.0,61.0 L 16.0,58.0 L 20.0,58.0 L 20.0,50.0 L 10.0,44.0 L 13.0,37.0 L 18.0,39.0 L 25.0,42.0 L 29.0,39.0 L 28.0,26.0 L 33.0,24.0" fill="#FBFBFB"/>
	<path d="M 33.0,24.0 L 36.0,25.0 L 38.0,32.0 L 38.0,36.0 L 46.0,36.0 L 52.0,26.0 L 59.0,29.0 L 57.0,34.0 L 54.0,40.0 L 62.0,36.0 L 73.0,36.0 L 82.0,40.0 L 89.0,47.0 L 98.0,50.0 L 104.0,55.0 L 108.0,63.0 L 108.0,66.0 L 113.0,68.0 L 119.0,76.0 L 120.0,79.0 L 120.0,89.0 L 116.0,97.0 L 110.0,102.0 L 105.0,104.0 L 31.0,104.0 L 23.0,100.0 L 17.0,92.0 L 16.0,89.0 L 16.0,80.0 L 19.0,73.0 L 23.0,66.0 L 14.0,68.0 L 10.0,68.0 L 8.0,61.0 L 16.0,58.0 L 20.0,58.0 L 20.0,50.0 L 10.0,44.0 L 13.0,37.0 L 18.0,39.0 L 25.0,42.0 L 29.0,39.0 L 28.0,26.0 L 33.0,24.0 M 65.0,44.0 L 57.0,48.0 L 53.0,54.0 L 52.0,60.0 L 45.0,60.0 L 40.0,65.0 L 40.0,72.0 L 33.0,72.0 L 27.0,76.0 L 24.0,81.0 L 25.0,90.0 L 32.0,96.0 L 104.0,96.0 L 111.0,90.0 L 112.0,88.0 L 112.0,80.0 L 106.0,73.0 L 100.0,72.0 L 100.0,64.0 L 94.0,57.0 L 91.0,56.0 L 83.0,56.0 L 82.0,52.0 L 78.0,47.0 L 72.0,44.0 L 65.0,44.0" fill="#060606"/>
	<path d="M 36.0,44.0 L 43.0,44.0 L 47.0,46.0 L 46.0,52.0 L 38.0,56.0 L 34.0,61.0 L 33.0,64.0 L 29.0,62.0 L 28.0,59.0 L 28.0,52.0 L 34.0,45.0 L 36.0,44.0" fill="#F3F3F3"/>
</svg>
