<?xml version="1.0" ?>
<svg baseProfile="full" height="600px" version="1.1" viewBox="-20.1 -20.1 240.2 240.2" width="600px" xmlns="http://www.w3.org/2000/svg" xmlns:ev="http://www.w3.org/2001/xml-events" xmlns:xlink="http://www.w3.org/1999/xlink">
	<defs/>
	<path d="M 0.0,0.0 L 200.0,0.0 L 200.0,200.0 L 0.0,200.0 L 0.0,0.0" fill="#FDFDFD"/>
	<path d="M 109.0,72.0 L 122.0,72.0 L 134.0,77.0 L 140.0,82.0 L 146.0,92.0 L 148.0,98.0 L 148.0,104.0 L 158.0,100.0 L 170.0,100.0 L 182.0,106.0 L 188.0,113.0 L 192.0,122.0 L 192.0,133.0 L 187.0,145.0 L 179.0,152.0 L 170.0,156.0 L 75.0,156.0 L 67.0,152.0 L 62.0,146.0 L 60.0,141.0 L 60.0,131.0 L 64.0,123.0 L 72.0,117.0 L 75.0,116.0 L 86.0,116.0 L 84.0,110.0 L 84.0,97.0 L 88.0,88.0 L 94.0,80.0 L 103.0,74.0 L 109.0,72.0" fill="#FCFCFC"/>
	<path d="M 108.0,64.0 L 123.0,64.0 L 132.0,67.0 L 142.0,73.0 L 150.0,82.0 L 154.0,90.0 L 154.0,93.0 L 160.0,92.0 L 169.0,92.0 L 180.0,95.0 L 188.0,101.0 L 196.0,110.0 L 199.0,117.0 L 200.0,122.0 L 200.0,132.0 L 198.0,141.0 L 193.0,150.0 L 185.0,158.0 L 175.0,163.0 L 168.0,164.0 L 73.0,164.0 L 63.0,159.0 L 55.0,150.0 L 52.0,141.0 L 52.0,130.0 L 56.0,121.0 L 63.0,113.0 L 71.0,109.0 L 76.0,108.0 L 76.0,96.0 L 80.0,86.0 L 86.0,77.0 L 94.0,70.0 L 104.0,65.0 L 108.0,64.0 M 109.0,72.0 L 100.0,76.0 L 91.0,83.0 L 85.0,94.0 L 84.0,97.0 L 84.0,110.0 L 86.0,116.0 L 75.0,116.0 L 67.0,120.0 L 61.0,128.0 L 60.0,131.0 L 60.0,141.0 L 64.0,149.0 L 72.0,155.0 L 75.0,156.0 L 170.0,156.0 L 182.0,150.0 L 188.0,143.0 L 192.0,133.0 L 192.0,122.0 L 188.0,113.0 L 181.0,105.0 L 170.0,100.0 L 158.0,100.0 L 148.0,104.0 L 147.0,94.0 L 142.0,85.0 L 138.0,80.0 L 128.0,74.0 L 122.0,72.0 L 109.0,72.0" fill="#050505"/>
	<path d="M 61.0,52.0 L 73.0,52.0 L 83.0,55.0 L 90.0,60.0 L 90.0,65.0 L 88.0,67.0 L 83.0,66.0 L 73.0,61.0 L 62.0,61.0 L 54.0,65.0 L 47.0,73.0 L 45.0,78.0 L 45.0,88.0 L 49.0,98.0 L 58.0,106.0 L 58.0,111.0 L 57.0,112.0 L 50.0,111.0 L 43.0,105.0 L 38.0,96.0 L 36.0,89.0 L 36.0,77.0 L 40.0,68.0 L 46.0,60.0 L 55.0,54.0 L 61.0,52.0" fill="#090909"/>
	<path d="M 31.0,109.0 L 36.0,109.0 L 38.0,111.0 L 37.0,116.0 L 27.0,125.0 L 22.0,129.0 L 17.0,128.0 L 16.0,127.0 L 16.0,122.0 L 31.0,109.0" fill="#070707"/>
	<path d="M 114.0,39.0 L 119.0,40.0 L 120.0,41.0 L 120.0,46.0 L 105.0,59.0 L 100.0,59.0 L 98.0,57.0 L 99.0,52.0 L 109.0,43.0 L 114.0,39.0" fill="#070707"/>
	<path d="M 25.0,32.0 L 30.0,32.0 L 42.0,46.0 L 43.0,52.0 L 41.0,54.0 L 36.0,53.0 L 24.0,39.0 L 23.0,34.0 L 25.0,32.0" fill="#0B0B0B"/>
	<path d="M 3.0,75.0 L 25.0,76.0 L 27.0,78.0 L 27.0,83.0 L 26.0,84.0 L 11.0,84.0 L 3.0,83.0 L 1.0,81.0 L 2.0,76.0 L 3.0,75.0" fill="#0A0A0A"/>
	<path d="M 71.0,17.0 L 76.0,18.0 L 77.0,19.0 L 77.0,31.0 L 76.0,41.0 L 74.0,43.0 L 69.0,43.0 L 68.0,42.0 L 68.0,30.0 L 69.0,19.0 L 71.0,17.0" fill="#090909"/>
</svg>
