<?xml version="1.0" ?>
<svg baseProfile="full" height="600px" version="1.1" viewBox="-16.08 -16.08 192.16 192.16" width="600px" xmlns="http://www.w3.org/2000/svg" xmlns:ev="http://www.w3.org/2001/xml-events" xmlns:xlink="http://www.w3.org/1999/xlink">
	<defs/>
	<path d="M 0.0,0.0 L 160.0,0.0 L 160.0,160.0 L 0.0,160.0 L 0.0,0.0" fill="#B3C3D5"/>
	<path d="M 73.0,40.0 L 84.0,40.0 L 93.0,43.0 L 99.0,47.0 L 104.0,53.0 L 105.0,55.0 L 121.0,57.0 L 130.0,62.0 L 136.0,69.0 L 140.0,78.0 L 141.0,87.0 L 149.0,93.0 L 154.0,100.0 L 156.0,106.0 L 156.0,115.0 L 153.0,125.0 L 147.0,133.0 L 139.0,138.0 L 134.0,140.0 L 24.0,140.0 L 18.0,138.0 L 12.0,134.0 L 7.0,128.0 L 4.0,120.0 L 4.0,110.0 L 9.0,100.0 L 17.0,94.0 L 19.0,93.0 L 21.0,83.0 L 27.0,74.0 L 35.0,69.0 L 38.0,68.0 L 52.0,68.0 L 52.0,61.0 L 57.0,51.0 L 66.0,43.0 L 73.0,40.0" fill="#E0E9F1"/>
	<path d="M 0.0,0.0 L 160.0,0.0 L 160.0,105.0 L 158.0,102.0 L 154.0,94.0 L 149.0,88.0 L 144.0,85.0 L 142.0,74.0 L 138.0,66.0 L 133.0,60.0 L 122.0,54.0 L 107.0,52.0 L 101.0,44.0 L 93.0,39.0 L 85.0,37.0 L 69.0,37.0 L 70.0,32.0 L 74.0,24.0 L 62.0,24.0 L 60.0,22.0 L 60.0,10.0 L 50.0,15.0 L 46.0,14.0 L 41.0,6.0 L 39.0,6.0 L 33.0,15.0 L 28.0,14.0 L 20.0,10.0 L 20.0,22.0 L 18.0,24.0 L 6.0,24.0 L 11.0,34.0 L 10.0,38.0 L 2.0,43.0 L 2.0,45.0 L 11.0,51.0 L 10.0,56.0 L 6.0,64.0 L 18.0,64.0 L 20.0,66.0 L 20.0,79.0 L 17.0,86.0 L 16.0,91.0 L 8.0,97.0 L 3.0,104.0 L 1.0,110.0 L 0.0,110.0 L 0.0,0.0" fill="#FDFDFD"/>
	<path d="M 159.0,116.0 L 160.0,116.0 L 160.0,160.0 L 0.0,160.0 L 0.0,121.0 L 2.0,125.0 L 6.0,133.0 L 14.0,140.0 L 22.0,143.0 L 134.0,143.0 L 144.0,139.0 L 152.0,133.0 L 157.0,124.0 L 159.0,116.0" fill="#FDFDFD"/>
	<path d="M 39.0,12.0 L 41.0,12.0 L 44.0,17.0 L 44.0,19.0 L 53.0,17.0 L 56.0,16.0 L 57.0,24.0 L 60.0,27.0 L 68.0,28.0 L 66.0,33.0 L 65.0,40.0 L 56.0,47.0 L 51.0,55.0 L 48.0,64.0 L 35.0,66.0 L 27.0,70.0 L 24.0,72.0 L 23.0,64.0 L 20.0,61.0 L 12.0,60.0 L 14.0,55.0 L 15.0,48.0 L 10.0,46.0 L 8.0,45.0 L 8.0,43.0 L 14.0,39.0 L 14.0,32.0 L 12.0,28.0 L 20.0,27.0 L 23.0,24.0 L 24.0,16.0 L 28.0,18.0 L 35.0,18.0 L 39.0,12.0" fill="#F5CF86"/>
	<path d="M 39.0,12.0 L 41.0,12.0 L 44.0,17.0 L 44.0,19.0 L 53.0,17.0 L 56.0,16.0 L 57.0,24.0 L 60.0,27.0 L 68.0,28.0 L 66.0,33.0 L 65.0,40.0 L 60.0,43.0 L 57.0,34.0 L 53.0,29.0 L 45.0,25.0 L 36.0,25.0 L 29.0,28.0 L 24.0,33.0 L 21.0,40.0 L 21.0,49.0 L 25.0,57.0 L 32.0,62.0 L 38.0,64.0 L 35.0,66.0 L 27.0,70.0 L 24.0,72.0 L 23.0,64.0 L 20.0,61.0 L 12.0,60.0 L 14.0,55.0 L 15.0,48.0 L 10.0,46.0 L 8.0,45.0 L 8.0,43.0 L 14.0,39.0 L 14.0,32.0 L 12.0,28.0 L 20.0,27.0 L 23.0,24.0 L 24.0,16.0 L 28.0,18.0 L 35.0,18.0 L 39.0,12.0" fill="#FCEA9F"/>
	<path d="M 39.0,5.0 L 42.0,6.0 L 47.0,14.0 L 52.0,13.0 L 58.0,10.0 L 60.0,10.0 L 61.0,22.0 L 62.0,23.0 L 74.0,24.0 L 72.0,30.0 L 69.0,38.0 L 65.0,39.0 L 65.0,33.0 L 67.0,29.0 L 60.0,28.0 L 56.0,24.0 L 55.0,17.0 L 51.0,19.0 L 44.0,19.0 L 41.0,14.0 L 41.0,12.0 L 39.0,12.0 L 37.0,17.0 L 35.0,19.0 L 28.0,19.0 L 25.0,17.0 L 24.0,24.0 L 20.0,28.0 L 13.0,29.0 L 15.0,32.0 L 15.0,39.0 L 10.0,43.0 L 8.0,43.0 L 8.0,45.0 L 13.0,47.0 L 15.0,48.0 L 15.0,55.0 L 13.0,59.0 L 20.0,60.0 L 24.0,64.0 L 24.0,73.0 L 20.0,77.0 L 19.0,66.0 L 18.0,65.0 L 6.0,64.0 L 8.0,58.0 L 10.0,54.0 L 9.0,50.0 L 1.0,45.0 L 2.0,42.0 L 10.0,37.0 L 9.0,32.0 L 6.0,26.0 L 6.0,24.0 L 18.0,23.0 L 19.0,22.0 L 20.0,10.0 L 26.0,12.0 L 30.0,14.0 L 34.0,13.0 L 39.0,5.0" fill="#C59B59"/>
	<path d="M 73.0,40.0 L 80.0,40.0 L 80.0,44.0 L 71.0,46.0 L 65.0,50.0 L 60.0,55.0 L 57.0,64.0 L 55.0,73.0 L 40.0,73.0 L 33.0,76.0 L 27.0,82.0 L 25.0,88.0 L 24.0,96.0 L 16.0,101.0 L 11.0,106.0 L 8.0,116.0 L 4.0,116.0 L 5.0,107.0 L 11.0,98.0 L 19.0,93.0 L 21.0,83.0 L 27.0,74.0 L 35.0,69.0 L 38.0,68.0 L 52.0,68.0 L 52.0,61.0 L 57.0,51.0 L 66.0,43.0 L 73.0,40.0" fill="#F9FBFC"/>
</svg>
