<?xml version="1.0" ?>
<svg baseProfile="full" height="600px" version="1.1" viewBox="-12.06 -12.06 144.12 144.12" width="600px" xmlns="http://www.w3.org/2000/svg" xmlns:ev="http://www.w3.org/2001/xml-events" xmlns:xlink="http://www.w3.org/1999/xlink">
	<defs/>
	<path d="M 0.0,0.0 L 120.0,0.0 L 120.0,120.0 L 0.0,120.0 L 0.0,0.0" fill="#FCFCFC"/>
	<path d="M 76.0,44.0 L 87.0,44.0 L 97.0,48.0 L 104.0,55.0 L 108.0,64.0 L 109.0,73.0 L 115.0,77.0 L 120.0,85.0 L 120.0,94.0 L 116.0,102.0 L 111.0,106.0 L 107.0,108.0 L 37.0,108.0 L 30.0,104.0 L 26.0,99.0 L 24.0,95.0 L 24.0,85.0 L 29.0,77.0 L 35.0,73.0 L 39.0,63.0 L 45.0,58.0 L 49.0,56.0 L 57.0,56.0 L 60.0,57.0 L 62.0,53.0 L 69.0,47.0 L 76.0,44.0" fill="#020202"/>
	<path d="M 31.0,28.0 L 41.0,28.0 L 47.0,32.0 L 51.0,37.0 L 52.0,39.0 L 52.0,48.0 L 41.0,52.0 L 33.0,59.0 L 27.0,58.0 L 21.0,51.0 L 20.0,49.0 L 20.0,39.0 L 24.0,33.0 L 29.0,29.0 L 31.0,28.0" fill="#050505"/>
	<path d="M 14.0,16.0 L 19.0,17.0 L 22.0,21.0 L 21.0,26.0 L 16.0,27.0 L 12.0,23.0 L 12.0,18.0 L 14.0,16.0" fill="#141414"/>
	<path d="M 13.0,58.0 L 18.0,59.0 L 19.0,64.0 L 14.0,68.0 L 9.0,67.0 L 8.0,62.0 L 13.0,58.0" fill="#131313"/>
	<path d="M 2.0,38.0 L 11.0,38.0 L 12.0,39.0 L 12.0,44.0 L 10.0,46.0 L 3.0,46.0 L 1.0,44.0 L 1.0,39.0 L 2.0,38.0" fill="#121212"/>
	<path d="M 59.0,19.0 L 63.0,20.0 L 64.0,21.0 L 64.0,26.0 L 61.0,29.0 L 55.0,29.0 L 54.0,28.0 L 54.0,23.0 L 59.0,19.0" fill="#0E0E0E"/>
	<path d="M 37.0,8.0 L 42.0,9.0 L 42.0,18.0 L 41.0,19.0 L 36.0,19.0 L 34.0,17.0 L 34.0,11.0 L 37.0,8.0" fill="#0F0F0F"/>
</svg>
