<?xml version="1.0" ?>
<svg baseProfile="full" height="600px" version="1.1" viewBox="-9.648000000000001 -9.648000000000001 115.296 115.296" width="600px" xmlns="http://www.w3.org/2000/svg" xmlns:ev="http://www.w3.org/2001/xml-events" xmlns:xlink="http://www.w3.org/1999/xlink">
	<defs/>
	<path d="M 0.0,0.0 L 96.0,0.0 L 96.0,96.0 L 0.0,96.0 L 0.0,0.0" fill="#FCFCFC"/>
	<path d="M 66.0,12.0 L 74.0,12.0 L 75.0,21.0 L 79.0,21.0 L 82.0,18.0 L 86.0,19.0 L 89.0,24.0 L 84.0,28.0 L 84.0,33.0 L 92.0,34.0 L 92.0,42.0 L 83.0,43.0 L 83.0,47.0 L 86.0,50.0 L 85.0,54.0 L 80.0,57.0 L 77.0,54.0 L 80.0,59.0 L 80.0,68.0 L 77.0,74.0 L 71.0,79.0 L 68.0,80.0 L 19.0,80.0 L 11.0,76.0 L 5.0,68.0 L 4.0,65.0 L 4.0,56.0 L 7.0,49.0 L 11.0,44.0 L 16.0,41.0 L 24.0,38.0 L 31.0,31.0 L 38.0,28.0 L 54.0,28.0 L 52.0,24.0 L 50.0,22.0 L 51.0,18.0 L 56.0,15.0 L 60.0,20.0 L 66.0,20.0 L 66.0,12.0" fill="#030303"/>
	<path d="M 65.0,28.0 L 71.0,28.0 L 76.0,33.0 L 76.0,39.0 L 71.0,44.0 L 66.0,43.0 L 61.0,36.0 L 61.0,31.0 L 65.0,28.0" fill="#F0F0F0"/>
</svg>
