<?xml version="1.0" ?>
<svg baseProfile="full" height="600px" version="1.1" viewBox="-19.296000000000003 -19.296000000000003 230.592 230.592" width="600px" xmlns="http://www.w3.org/2000/svg" xmlns:ev="http://www.w3.org/2001/xml-events" xmlns:xlink="http://www.w3.org/1999/xlink">
	<defs/>
	<path d="M 0.0,0.0 L 192.0,0.0 L 192.0,192.0 L 0.0,192.0 L 0.0,0.0" fill="#FDFEFE"/>
	<path d="M 68.0,14.0 L 79.0,14.0 L 89.0,17.0 L 97.0,23.0 L 103.0,30.0 L 105.0,32.0 L 113.0,27.0 L 116.0,26.0 L 125.0,26.0 L 135.0,30.0 L 142.0,37.0 L 145.0,42.0 L 146.0,47.0 L 146.0,55.0 L 154.0,55.0 L 164.0,59.0 L 170.0,66.0 L 173.0,72.0 L 173.0,87.0 L 168.0,96.0 L 161.0,102.0 L 156.0,104.0 L 149.0,104.0 L 148.0,109.0 L 145.0,116.0 L 158.0,116.0 L 152.0,128.0 L 142.0,145.0 L 135.0,157.0 L 134.0,157.0 L 135.0,147.0 L 138.0,128.0 L 128.0,127.0 L 128.0,123.0 L 123.0,125.0 L 116.0,125.0 L 109.0,123.0 L 106.0,132.0 L 103.0,139.0 L 116.0,138.0 L 114.0,143.0 L 102.0,164.0 L 93.0,179.0 L 92.0,176.0 L 96.0,152.0 L 97.0,149.0 L 86.0,149.0 L 88.0,140.0 L 90.0,134.0 L 81.0,137.0 L 72.0,137.0 L 63.0,134.0 L 57.0,129.0 L 52.0,121.0 L 50.0,112.0 L 39.0,112.0 L 29.0,107.0 L 22.0,99.0 L 19.0,92.0 L 19.0,77.0 L 23.0,67.0 L 27.0,62.0 L 36.0,56.0 L 41.0,55.0 L 43.0,37.0 L 49.0,26.0 L 58.0,18.0 L 68.0,14.0" fill="#BCDDFB"/>
	<path d="M 99.0,112.0 L 114.0,112.0 L 111.0,121.0 L 103.0,139.0 L 116.0,138.0 L 114.0,143.0 L 102.0,164.0 L 93.0,179.0 L 92.0,176.0 L 96.0,152.0 L 97.0,149.0 L 86.0,149.0 L 88.0,140.0 L 98.0,113.0 L 99.0,112.0" fill="#E76AFC"/>
	<path d="M 142.0,90.0 L 155.0,90.0 L 154.0,95.0 L 145.0,116.0 L 158.0,116.0 L 152.0,128.0 L 142.0,145.0 L 135.0,157.0 L 134.0,157.0 L 135.0,147.0 L 138.0,128.0 L 128.0,127.0 L 129.0,120.0 L 136.0,100.0 L 140.0,91.0 L 142.0,90.0" fill="#EA83FC"/>
	<path d="M 142.0,90.0 L 155.0,90.0 L 154.0,95.0 L 150.0,104.0 L 142.0,103.0 L 141.0,111.0 L 134.0,120.0 L 129.0,122.0 L 132.0,112.0 L 136.0,100.0 L 140.0,91.0 L 142.0,90.0" fill="#C873FA"/>
	<path d="M 99.0,112.0 L 114.0,112.0 L 111.0,121.0 L 108.0,122.0 L 103.0,118.0 L 97.0,128.0 L 92.0,131.0 L 95.0,121.0 L 99.0,112.0" fill="#CB5FFA"/>
	<path d="M 94.0,168.0 L 97.0,168.0 L 96.0,174.0 L 92.0,179.0 L 93.0,169.0 L 94.0,168.0" fill="#E97AFC"/>
</svg>
