<?xml version="1.0" ?>
<svg baseProfile="full" height="600px" version="1.1" viewBox="-19.296000000000003 -19.296000000000003 230.592 230.592" width="600px" xmlns="http://www.w3.org/2000/svg" xmlns:ev="http://www.w3.org/2001/xml-events" xmlns:xlink="http://www.w3.org/1999/xlink">
	<defs/>
	<path d="M 0.0,0.0 L 192.0,0.0 L 192.0,192.0 L 0.0,192.0 L 0.0,0.0" fill="#FDFEFE"/>
	<path d="M 68.0,16.0 L 79.0,16.0 L 89.0,19.0 L 99.0,26.0 L 104.0,33.0 L 109.0,31.0 L 116.0,28.0 L 127.0,28.0 L 137.0,32.0 L 144.0,39.0 L 148.0,49.0 L 148.0,56.0 L 157.0,56.0 L 166.0,60.0 L 174.0,69.0 L 176.0,74.0 L 176.0,84.0 L 172.0,94.0 L 165.0,101.0 L 158.0,104.0 L 146.0,104.0 L 144.0,103.0 L 143.0,108.0 L 140.0,114.0 L 133.0,121.0 L 126.0,124.0 L 114.0,124.0 L 106.0,120.0 L 102.0,117.0 L 100.0,123.0 L 93.0,131.0 L 85.0,135.0 L 82.0,136.0 L 70.0,136.0 L 62.0,133.0 L 53.0,125.0 L 49.0,118.0 L 48.0,113.0 L 34.0,111.0 L 25.0,105.0 L 19.0,98.0 L 16.0,89.0 L 16.0,78.0 L 20.0,69.0 L 27.0,61.0 L 35.0,57.0 L 40.0,56.0 L 40.0,44.0 L 44.0,33.0 L 50.0,25.0 L 59.0,19.0 L 68.0,16.0" fill="#BCDEFB"/>
</svg>
