<?xml version="1.0" ?>
<svg baseProfile="full" height="600px" version="1.1" viewBox="-20.1 -20.1 240.2 240.2" width="600px" xmlns="http://www.w3.org/2000/svg" xmlns:ev="http://www.w3.org/2001/xml-events" xmlns:xlink="http://www.w3.org/1999/xlink">
	<defs/>
	<path d="M 0.0,0.0 L 200.0,0.0 L 200.0,200.0 L 0.0,200.0 L 0.0,0.0" fill="#FDFDFD"/>
	<path d="M 109.0,72.0 L 122.0,72.0 L 134.0,77.0 L 140.0,82.0 L 146.0,92.0 L 148.0,98.0 L 148.0,104.0 L 158.0,100.0 L 170.0,100.0 L 182.0,106.0 L 188.0,113.0 L 192.0,122.0 L 192.0,133.0 L 187.0,145.0 L 179.0,152.0 L 170.0,156.0 L 75.0,156.0 L 67.0,152.0 L 62.0,146.0 L 60.0,141.0 L 60.0,131.0 L 64.0,123.0 L 72.0,117.0 L 75.0,116.0 L 86.0,116.0 L 84.0,110.0 L 84.0,97.0 L 88.0,88.0 L 94.0,80.0 L 103.0,74.0 L 109.0,72.0" fill="#FCFCFC"/>
	<path d="M 118.0,49.0 L 123.0,49.0 L 125.0,51.0 L 124.0,56.0 L 113.0,63.0 L 126.0,65.0 L 132.0,67.0 L 142.0,73.0 L 150.0,82.0 L 154.0,90.0 L 154.0,93.0 L 160.0,92.0 L 169.0,92.0 L 180.0,95.0 L 188.0,101.0 L 196.0,110.0 L 199.0,117.0 L 200.0,122.0 L 200.0,132.0 L 198.0,141.0 L 193.0,150.0 L 185.0,158.0 L 175.0,163.0 L 168.0,164.0 L 73.0,164.0 L 63.0,159.0 L 55.0,150.0 L 55.0,147.0 L 50.0,147.0 L 49.0,146.0 L 49.0,139.0 L 53.0,126.0 L 59.0,117.0 L 66.0,111.0 L 76.0,108.0 L 76.0,96.0 L 80.0,86.0 L 86.0,77.0 L 94.0,70.0 L 105.0,64.0 L 104.0,58.0 L 113.0,52.0 L 118.0,49.0 M 109.0,72.0 L 100.0,76.0 L 91.0,83.0 L 85.0,94.0 L 84.0,97.0 L 84.0,110.0 L 86.0,116.0 L 75.0,116.0 L 67.0,120.0 L 61.0,128.0 L 60.0,131.0 L 60.0,141.0 L 64.0,149.0 L 72.0,155.0 L 75.0,156.0 L 170.0,156.0 L 182.0,150.0 L 188.0,143.0 L 192.0,133.0 L 192.0,122.0 L 188.0,113.0 L 181.0,105.0 L 170.0,100.0 L 158.0,100.0 L 148.0,104.0 L 147.0,94.0 L 142.0,85.0 L 138.0,80.0 L 128.0,74.0 L 122.0,72.0 L 109.0,72.0" fill="#050505"/>
	<path d="M 61.0,52.0 L 73.0,52.0 L 83.0,55.0 L 90.0,60.0 L 90.0,65.0 L 88.0,67.0 L 83.0,66.0 L 73.0,61.0 L 62.0,61.0 L 54.0,65.0 L 47.0,73.0 L 45.0,78.0 L 45.0,88.0 L 49.0,98.0 L 58.0,106.0 L 58.0,111.0 L 57.0,112.0 L 50.0,111.0 L 43.0,105.0 L 38.0,96.0 L 36.0,89.0 L 36.0,77.0 L 40.0,68.0 L 46.0,60.0 L 55.0,54.0 L 61.0,52.0" fill="#090909"/>
	<path d="M 27.0,103.0 L 32.0,105.0 L 32.0,110.0 L 23.0,116.0 L 18.0,119.0 L 12.0,119.0 L 11.0,113.0 L 20.0,107.0 L 27.0,103.0" fill="#0A0A0A"/>
	<path d="M 35.0,27.0 L 40.0,28.0 L 48.0,41.0 L 48.0,46.0 L 46.0,48.0 L 41.0,47.0 L 33.0,33.0 L 34.0,28.0 L 35.0,27.0" fill="#090909"/>
	<path d="M 6.0,65.0 L 17.0,66.0 L 27.0,70.0 L 26.0,75.0 L 25.0,76.0 L 18.0,76.0 L 7.0,73.0 L 5.0,71.0 L 5.0,66.0 L 6.0,65.0" fill="#0A0A0A"/>
	<path d="M 81.0,21.0 L 86.0,21.0 L 87.0,22.0 L 86.0,32.0 L 83.0,42.0 L 78.0,43.0 L 76.0,41.0 L 76.0,34.0 L 79.0,23.0 L 81.0,21.0" fill="#0A0A0A"/>
	<path d="M 50.0,135.0 L 51.0,137.0 L 53.0,137.0 L 54.0,147.0 L 49.0,146.0 L 49.0,139.0 L 50.0,135.0" fill="#141414"/>
</svg>
