<?xml version="1.0" ?>
<svg baseProfile="full" height="600px" version="1.1" viewBox="-20.1 -20.1 240.2 240.2" width="600px" xmlns="http://www.w3.org/2000/svg" xmlns:ev="http://www.w3.org/2001/xml-events" xmlns:xlink="http://www.w3.org/1999/xlink">
	<defs/>
	<path d="M 0.0,0.0 L 200.0,0.0 L 200.0,200.0 L 0.0,200.0 L 0.0,0.0" fill="#FDFDFD"/>
	<path d="M 46.0,80.0 L 138.0,80.0 L 136.0,92.0 L 132.0,108.0 L 127.0,140.0 L 123.0,176.0 L 122.0,190.0 L 120.0,192.0 L 64.0,192.0 L 62.0,190.0 L 57.0,140.0 L 52.0,108.0 L 46.0,83.0 L 46.0,80.0" fill="#FDFDFD"/>
	<path d="M 38.0,72.0 L 146.0,72.0 L 148.0,74.0 L 147.0,81.0 L 142.0,100.0 L 155.0,100.0 L 167.0,105.0 L 174.0,113.0 L 176.0,118.0 L 176.0,129.0 L 173.0,138.0 L 166.0,146.0 L 154.0,152.0 L 143.0,155.0 L 133.0,156.0 L 131.0,185.0 L 129.0,194.0 L 124.0,199.0 L 122.0,200.0 L 61.0,200.0 L 56.0,196.0 L 54.0,192.0 L 51.0,160.0 L 48.0,134.0 L 45.0,116.0 L 41.0,97.0 L 36.0,78.0 L 37.0,73.0 L 38.0,72.0 M 46.0,80.0 L 48.0,92.0 L 52.0,108.0 L 57.0,140.0 L 62.0,190.0 L 64.0,192.0 L 120.0,192.0 L 122.0,190.0 L 125.0,156.0 L 130.0,119.0 L 135.0,96.0 L 138.0,83.0 L 138.0,80.0 L 46.0,80.0" fill="#060606"/>
	<path d="M 140.0,108.0 L 152.0,108.0 L 162.0,111.0 L 167.0,117.0 L 168.0,119.0 L 168.0,129.0 L 164.0,137.0 L 155.0,143.0 L 140.0,147.0 L 134.0,147.0 L 135.0,134.0 L 139.0,111.0 L 140.0,108.0" fill="#FAFAFA"/>
	<path d="M 114.0,22.0 L 119.0,23.0 L 120.0,24.0 L 120.0,32.0 L 116.0,41.0 L 109.0,48.0 L 103.0,49.0 L 101.0,47.0 L 102.0,42.0 L 106.0,38.0 L 108.0,38.0 L 110.0,34.0 L 112.0,24.0 L 114.0,22.0" fill="#0C0C0C"/>
	<path d="M 94.0,4.0 L 99.0,5.0 L 100.0,6.0 L 100.0,13.0 L 98.0,15.0 L 93.0,14.0 L 92.0,13.0 L 92.0,6.0 L 94.0,4.0" fill="#080808"/>
</svg>
