<?xml version="1.0" ?>
<svg baseProfile="full" height="600px" version="1.1" viewBox="-19.296000000000003 -19.296000000000003 230.592 230.592" width="600px" xmlns="http://www.w3.org/2000/svg" xmlns:ev="http://www.w3.org/2001/xml-events" xmlns:xlink="http://www.w3.org/1999/xlink">
	<defs/>
	<path d="M 0.0,0.0 L 192.0,0.0 L 192.0,192.0 L 0.0,192.0 L 0.0,0.0" fill="#FFFEFC"/>
	<path d="M 84.0,16.0 L 107.0,16.0 L 115.0,20.0 L 123.0,28.0 L 129.0,38.0 L 135.0,54.0 L 138.0,66.0 L 140.0,87.0 L 140.0,112.0 L 136.0,133.0 L 131.0,149.0 L 125.0,161.0 L 116.0,171.0 L 109.0,175.0 L 107.0,176.0 L 85.0,176.0 L 75.0,171.0 L 68.0,164.0 L 60.0,148.0 L 56.0,135.0 L 53.0,114.0 L 53.0,73.0 L 56.0,56.0 L 60.0,42.0 L 66.0,30.0 L 73.0,22.0 L 81.0,17.0 L 84.0,16.0" fill="#FFCB7C"/>
	<path d="M 84.0,16.0 L 107.0,16.0 L 115.0,20.0 L 123.0,28.0 L 129.0,38.0 L 135.0,54.0 L 138.0,66.0 L 140.0,87.0 L 140.0,112.0 L 136.0,133.0 L 131.0,149.0 L 125.0,161.0 L 116.0,171.0 L 109.0,175.0 L 107.0,176.0 L 85.0,176.0 L 75.0,171.0 L 68.0,164.0 L 60.0,148.0 L 56.0,135.0 L 53.0,114.0 L 53.0,73.0 L 56.0,56.0 L 60.0,42.0 L 66.0,30.0 L 73.0,22.0 L 81.0,17.0 L 84.0,16.0 M 98.0,32.0 L 90.0,37.0 L 84.0,44.0 L 78.0,57.0 L 74.0,71.0 L 72.0,87.0 L 72.0,108.0 L 76.0,128.0 L 82.0,144.0 L 88.0,153.0 L 96.0,159.0 L 98.0,160.0 L 107.0,160.0 L 116.0,154.0 L 123.0,144.0 L 128.0,131.0 L 132.0,111.0 L 132.0,82.0 L 130.0,69.0 L 127.0,57.0 L 120.0,43.0 L 114.0,36.0 L 106.0,32.0 L 98.0,32.0" fill="#FFAC04"/>
	<path d="M 84.0,16.0 L 97.0,16.0 L 93.0,19.0 L 85.0,25.0 L 78.0,36.0 L 72.0,50.0 L 68.0,65.0 L 66.0,77.0 L 66.0,112.0 L 69.0,132.0 L 75.0,150.0 L 82.0,163.0 L 87.0,169.0 L 97.0,175.0 L 97.0,176.0 L 85.0,176.0 L 75.0,171.0 L 68.0,164.0 L 60.0,148.0 L 56.0,135.0 L 53.0,114.0 L 53.0,73.0 L 56.0,56.0 L 60.0,42.0 L 66.0,30.0 L 73.0,22.0 L 81.0,17.0 L 84.0,16.0" fill="#FFCC80"/>
	<path d="M 105.0,68.0 L 106.0,68.0 L 106.0,124.0 L 100.0,124.0 L 100.0,84.0 L 95.0,86.0 L 95.0,76.0 L 105.0,68.0" fill="#FFAD07"/>
	<path d="M 105.0,143.0 L 108.0,143.0 L 109.0,151.0 L 104.0,152.0 L 104.0,144.0 L 105.0,143.0" fill="#FFB015"/>
	<path d="M 108.0,42.0 L 113.0,44.0 L 112.0,52.0 L 108.0,50.0 L 108.0,42.0" fill="#FFB014"/>
	<path d="M 114.0,137.0 L 116.0,138.0 L 117.0,144.0 L 114.0,147.0 L 112.0,147.0 L 112.0,139.0 L 114.0,137.0" fill="#FFAF10"/>
	<path d="M 125.0,96.0 L 129.0,96.0 L 129.0,105.0 L 125.0,104.0 L 125.0,96.0" fill="#FFAF0F"/>
	<path d="M 76.0,96.0 L 80.0,96.0 L 80.0,104.0 L 76.0,105.0 L 76.0,96.0" fill="#FFAE0A"/>
	<path d="M 77.0,78.0 L 81.0,80.0 L 81.0,87.0 L 77.0,87.0 L 77.0,78.0" fill="#FFAF0F"/>
	<path d="M 90.0,137.0 L 93.0,139.0 L 93.0,145.0 L 91.0,147.0 L 88.0,144.0 L 89.0,139.0 L 90.0,137.0" fill="#FFAE0C"/>
	<path d="M 84.0,126.0 L 86.0,127.0 L 87.0,133.0 L 84.0,137.0 L 82.0,133.0 L 83.0,127.0 L 84.0,126.0" fill="#FFAE0B"/>
	<path d="M 123.0,112.0 L 127.0,113.0 L 126.0,122.0 L 124.0,122.0 L 122.0,118.0 L 123.0,112.0" fill="#FFAE0B"/>
	<path d="M 125.0,78.0 L 127.0,78.0 L 128.0,87.0 L 124.0,88.0 L 124.0,79.0 L 125.0,78.0" fill="#FFAE0B"/>
	<path d="M 81.0,62.0 L 84.0,65.0 L 83.0,73.0 L 79.0,70.0 L 80.0,64.0 L 81.0,62.0" fill="#FFAE0D"/>
	<path d="M 96.0,143.0 L 100.0,144.0 L 100.0,152.0 L 96.0,151.0 L 96.0,143.0" fill="#FFAE0D"/>
	<path d="M 87.0,50.0 L 90.0,53.0 L 89.0,58.0 L 87.0,60.0 L 85.0,57.0 L 86.0,51.0 L 87.0,50.0" fill="#FFAE0B"/>
	<path d="M 116.0,50.0 L 118.0,50.0 L 120.0,53.0 L 119.0,59.0 L 116.0,59.0 L 115.0,53.0 L 116.0,50.0" fill="#FFAD09"/>
	<path d="M 94.0,42.0 L 96.0,42.0 L 97.0,50.0 L 93.0,52.0 L 92.0,44.0 L 94.0,42.0" fill="#FFAE0B"/>
	<path d="M 120.0,126.0 L 123.0,130.0 L 121.0,137.0 L 119.0,136.0 L 118.0,129.0 L 120.0,126.0" fill="#FFAD0A"/>
	<path d="M 122.0,63.0 L 124.0,63.0 L 125.0,65.0 L 125.0,71.0 L 122.0,73.0 L 120.0,66.0 L 122.0,63.0" fill="#FFAE0B"/>
	<path d="M 100.0,40.0 L 104.0,40.0 L 104.0,48.0 L 100.0,48.0 L 100.0,40.0" fill="#FFAC03"/>
	<path d="M 79.0,112.0 L 81.0,112.0 L 82.0,120.0 L 79.0,122.0 L 78.0,120.0 L 78.0,113.0 L 79.0,112.0" fill="#FFAD09"/>
</svg>
