<?xml version="1.0" ?>
<svg baseProfile="full" height="600px" version="1.1" viewBox="-20.1 -20.1 240.2 240.2" width="600px" xmlns="http://www.w3.org/2000/svg" xmlns:ev="http://www.w3.org/2001/xml-events" xmlns:xlink="http://www.w3.org/1999/xlink">
	<defs/>
	<path d="M 0.0,0.0 L 200.0,0.0 L 200.0,200.0 L 0.0,200.0 L 0.0,0.0" fill="#FCFCFC"/>
	<path d="M 0.0,0.0 L 200.0,0.0 L 200.0,200.0 L 0.0,200.0 L 0.0,0.0 M 90.0,28.0 L 85.0,29.0 L 71.0,30.0 L 55.0,35.0 L 42.0,42.0 L 30.0,53.0 L 23.0,61.0 L 15.0,77.0 L 12.0,87.0 L 11.0,94.0 L 11.0,108.0 L 14.0,123.0 L 19.0,135.0 L 26.0,146.0 L 35.0,156.0 L 48.0,165.0 L 61.0,171.0 L 74.0,174.0 L 90.0,174.0 L 97.0,173.0 L 131.0,172.0 L 149.0,167.0 L 163.0,159.0 L 173.0,150.0 L 181.0,141.0 L 189.0,125.0 L 193.0,109.0 L 193.0,89.0 L 189.0,75.0 L 181.0,59.0 L 170.0,47.0 L 162.0,40.0 L 146.0,32.0 L 131.0,28.0 L 90.0,28.0" fill="#FDFDFD"/>
	<path d="M 90.0,28.0 L 131.0,28.0 L 146.0,32.0 L 162.0,40.0 L 174.0,51.0 L 181.0,59.0 L 189.0,75.0 L 193.0,89.0 L 193.0,109.0 L 189.0,125.0 L 181.0,141.0 L 170.0,153.0 L 162.0,160.0 L 146.0,168.0 L 131.0,172.0 L 97.0,173.0 L 90.0,174.0 L 74.0,174.0 L 58.0,170.0 L 43.0,162.0 L 33.0,154.0 L 25.0,145.0 L 17.0,131.0 L 13.0,120.0 L 11.0,108.0 L 11.0,94.0 L 14.0,80.0 L 19.0,68.0 L 26.0,57.0 L 38.0,45.0 L 49.0,38.0 L 60.0,33.0 L 71.0,30.0 L 85.0,29.0 L 90.0,28.0 M 72.0,38.0 L 59.0,42.0 L 46.0,49.0 L 34.0,60.0 L 25.0,74.0 L 22.0,81.0 L 19.0,95.0 L 19.0,109.0 L 23.0,124.0 L 30.0,138.0 L 39.0,148.0 L 47.0,155.0 L 63.0,163.0 L 75.0,166.0 L 89.0,166.0 L 103.0,163.0 L 115.0,158.0 L 127.0,149.0 L 136.0,139.0 L 144.0,123.0 L 146.0,117.0 L 147.0,110.0 L 147.0,91.0 L 142.0,75.0 L 135.0,63.0 L 122.0,50.0 L 110.0,43.0 L 97.0,39.0 L 92.0,38.0 L 72.0,38.0" fill="#080808"/>
	<path d="M 137.0,38.0 L 147.0,41.0 L 158.0,47.0 L 170.0,58.0 L 177.0,68.0 L 182.0,79.0 L 185.0,90.0 L 185.0,108.0 L 182.0,120.0 L 177.0,132.0 L 169.0,143.0 L 162.0,150.0 L 149.0,158.0 L 139.0,162.0 L 137.0,161.0 L 148.0,153.0 L 157.0,143.0 L 165.0,129.0 L 169.0,118.0 L 170.0,111.0 L 170.0,86.0 L 166.0,73.0 L 159.0,60.0 L 151.0,50.0 L 142.0,42.0 L 137.0,39.0 L 137.0,38.0" fill="#F4F4F4"/>
	<path d="M 123.0,41.0 L 130.0,43.0 L 140.0,50.0 L 146.0,55.0 L 155.0,67.0 L 161.0,80.0 L 163.0,87.0 L 163.0,112.0 L 159.0,125.0 L 153.0,136.0 L 144.0,147.0 L 134.0,155.0 L 132.0,154.0 L 139.0,147.0 L 146.0,136.0 L 151.0,124.0 L 153.0,118.0 L 154.0,111.0 L 154.0,90.0 L 151.0,78.0 L 143.0,62.0 L 134.0,51.0 L 123.0,42.0 L 123.0,41.0" fill="#F3F3F3"/>
	<path d="M 89.0,69.0 L 94.0,69.0 L 95.0,74.0 L 91.0,92.0 L 86.0,110.0 L 80.0,136.0 L 73.0,135.0 L 72.0,134.0 L 73.0,125.0 L 83.0,86.0 L 72.0,84.0 L 67.0,82.0 L 67.0,76.0 L 81.0,76.0 L 86.0,73.0 L 89.0,69.0" fill="#0B0B0B"/>
</svg>
