<?xml version="1.0" ?>
<svg baseProfile="full" height="600px" version="1.1" viewBox="-20.1 -20.1 240.2 240.2" width="600px" xmlns="http://www.w3.org/2000/svg" xmlns:ev="http://www.w3.org/2001/xml-events" xmlns:xlink="http://www.w3.org/1999/xlink">
	<defs/>
	<path d="M 0.0,0.0 L 200.0,0.0 L 200.0,200.0 L 0.0,200.0 L 0.0,0.0" fill="#080808"/>
	<path d="M 63.0,36.0 L 78.0,36.0 L 90.0,38.0 L 102.0,43.0 L 112.0,50.0 L 118.0,55.0 L 127.0,67.0 L 133.0,80.0 L 135.0,87.0 L 135.0,110.0 L 133.0,119.0 L 128.0,131.0 L 121.0,141.0 L 116.0,147.0 L 105.0,155.0 L 95.0,160.0 L 86.0,163.0 L 81.0,164.0 L 62.0,164.0 L 48.0,160.0 L 35.0,153.0 L 25.0,144.0 L 18.0,136.0 L 11.0,122.0 L 8.0,110.0 L 8.0,88.0 L 13.0,73.0 L 19.0,63.0 L 28.0,53.0 L 35.0,47.0 L 46.0,41.0 L 55.0,38.0 L 63.0,36.0" fill="#FCFCFC"/>
	<path d="M 199.0,110.0 L 200.0,110.0 L 200.0,200.0 L 0.0,200.0 L 0.0,111.0 L 1.0,111.0 L 4.0,123.0 L 9.0,135.0 L 16.0,145.0 L 23.0,153.0 L 34.0,161.0 L 49.0,168.0 L 62.0,171.0 L 136.0,171.0 L 150.0,168.0 L 166.0,161.0 L 176.0,153.0 L 184.0,145.0 L 191.0,134.0 L 196.0,122.0 L 199.0,110.0" fill="#FDFDFD"/>
	<path d="M 0.0,0.0 L 200.0,0.0 L 200.0,89.0 L 199.0,89.0 L 195.0,75.0 L 187.0,59.0 L 176.0,47.0 L 167.0,40.0 L 153.0,33.0 L 137.0,29.0 L 62.0,29.0 L 46.0,33.0 L 34.0,39.0 L 21.0,49.0 L 12.0,60.0 L 4.0,76.0 L 1.0,87.0 L 0.0,87.0 L 0.0,0.0" fill="#FDFDFD"/>
	<path d="M 136.0,37.0 L 145.0,38.0 L 158.0,43.0 L 169.0,50.0 L 178.0,59.0 L 185.0,70.0 L 190.0,82.0 L 192.0,90.0 L 192.0,107.0 L 190.0,117.0 L 185.0,130.0 L 178.0,141.0 L 169.0,150.0 L 158.0,157.0 L 142.0,163.0 L 136.0,163.0 L 140.0,159.0 L 149.0,152.0 L 157.0,143.0 L 165.0,129.0 L 169.0,118.0 L 170.0,111.0 L 170.0,86.0 L 166.0,73.0 L 159.0,60.0 L 151.0,50.0 L 142.0,42.0 L 136.0,38.0 L 136.0,37.0" fill="#F8F8F8"/>
	<path d="M 108.0,37.0 L 118.0,38.0 L 130.0,43.0 L 140.0,50.0 L 146.0,55.0 L 155.0,67.0 L 161.0,80.0 L 163.0,87.0 L 163.0,110.0 L 161.0,119.0 L 156.0,131.0 L 149.0,141.0 L 144.0,147.0 L 133.0,155.0 L 123.0,160.0 L 114.0,163.0 L 108.0,163.0 L 112.0,159.0 L 121.0,152.0 L 129.0,143.0 L 137.0,129.0 L 141.0,118.0 L 142.0,111.0 L 142.0,86.0 L 138.0,73.0 L 131.0,60.0 L 123.0,50.0 L 114.0,42.0 L 108.0,38.0 L 108.0,37.0" fill="#F8F8F8"/>
	<path d="M 70.0,66.0 L 76.0,66.0 L 76.0,134.0 L 68.0,134.0 L 68.0,85.0 L 51.0,85.0 L 51.0,79.0 L 60.0,77.0 L 66.0,74.0 L 70.0,66.0" fill="#010101"/>
</svg>
