<?xml version="1.0" ?>
<svg baseProfile="full" height="600px" version="1.1" viewBox="-20.1 -20.1 240.2 240.2" width="600px" xmlns="http://www.w3.org/2000/svg" xmlns:ev="http://www.w3.org/2001/xml-events" xmlns:xlink="http://www.w3.org/1999/xlink">
	<defs/>
	<path d="M 0.0,0.0 L 200.0,0.0 L 200.0,200.0 L 0.0,200.0 L 0.0,0.0" fill="#FDFDFD"/>
	<path d="M 88.0,28.0 L 109.0,28.0 L 125.0,32.0 L 141.0,40.0 L 153.0,51.0 L 160.0,59.0 L 168.0,75.0 L 171.0,84.0 L 172.0,91.0 L 172.0,108.0 L 169.0,122.0 L 164.0,134.0 L 157.0,145.0 L 145.0,157.0 L 134.0,164.0 L 123.0,169.0 L 111.0,172.0 L 101.0,173.0 L 88.0,173.0 L 72.0,169.0 L 63.0,165.0 L 53.0,159.0 L 43.0,150.0 L 35.0,140.0 L 28.0,126.0 L 25.0,117.0 L 24.0,109.0 L 24.0,90.0 L 28.0,75.0 L 35.0,61.0 L 43.0,51.0 L 53.0,42.0 L 67.0,34.0 L 83.0,29.0 L 88.0,28.0" fill="#FCFCFC"/>
	<path d="M 88.0,28.0 L 109.0,28.0 L 125.0,32.0 L 141.0,40.0 L 153.0,51.0 L 160.0,59.0 L 168.0,75.0 L 171.0,84.0 L 172.0,91.0 L 172.0,108.0 L 169.0,122.0 L 164.0,134.0 L 157.0,145.0 L 145.0,157.0 L 134.0,164.0 L 123.0,169.0 L 111.0,172.0 L 101.0,173.0 L 88.0,173.0 L 72.0,169.0 L 63.0,165.0 L 53.0,159.0 L 43.0,150.0 L 35.0,140.0 L 28.0,126.0 L 25.0,117.0 L 24.0,109.0 L 24.0,90.0 L 28.0,75.0 L 35.0,61.0 L 43.0,51.0 L 53.0,42.0 L 67.0,34.0 L 83.0,29.0 L 88.0,28.0 M 84.0,37.0 L 71.0,41.0 L 60.0,47.0 L 48.0,57.0 L 39.0,70.0 L 34.0,82.0 L 32.0,90.0 L 32.0,108.0 L 34.0,118.0 L 39.0,131.0 L 48.0,144.0 L 58.0,153.0 L 73.0,161.0 L 83.0,164.0 L 106.0,164.0 L 121.0,160.0 L 132.0,154.0 L 142.0,145.0 L 149.0,137.0 L 156.0,123.0 L 160.0,107.0 L 160.0,92.0 L 156.0,77.0 L 149.0,64.0 L 138.0,52.0 L 127.0,44.0 L 112.0,38.0 L 106.0,37.0 L 84.0,37.0" fill="#070707"/>
	<path d="M 102.0,68.0 L 108.0,68.0 L 107.0,77.0 L 93.0,133.0 L 88.0,134.0 L 84.0,133.0 L 86.0,122.0 L 95.0,85.0 L 85.0,83.0 L 79.0,81.0 L 80.0,75.0 L 94.0,75.0 L 100.0,71.0 L 102.0,68.0" fill="#0C0C0C"/>
</svg>
