<?xml version="1.0" ?>
<svg baseProfile="full" height="600px" version="1.1" viewBox="-16.08 -16.08 192.16 192.16" width="600px" xmlns="http://www.w3.org/2000/svg" xmlns:ev="http://www.w3.org/2001/xml-events" xmlns:xlink="http://www.w3.org/1999/xlink">
	<defs/>
	<path d="M 0.0,0.0 L 160.0,0.0 L 160.0,160.0 L 0.0,160.0 L 0.0,0.0" fill="#F2CC84"/>
	<path d="M 0.0,0.0 L 160.0,0.0 L 160.0,160.0 L 0.0,160.0 L 0.0,0.0 M 74.0,12.0 L 58.0,17.0 L 47.0,23.0 L 35.0,34.0 L 24.0,45.0 L 15.0,59.0 L 11.0,72.0 L 10.0,76.0 L 10.0,95.0 L 12.0,105.0 L 17.0,117.0 L 24.0,127.0 L 30.0,134.0 L 43.0,143.0 L 54.0,148.0 L 62.0,150.0 L 86.0,150.0 L 102.0,144.0 L 112.0,138.0 L 122.0,129.0 L 134.0,117.0 L 141.0,106.0 L 146.0,93.0 L 148.0,86.0 L 148.0,67.0 L 145.0,54.0 L 137.0,39.0 L 126.0,27.0 L 116.0,20.0 L 104.0,15.0 L 93.0,12.0 L 74.0,12.0" fill="#FDFDFC"/>
	<path d="M 67.0,38.0 L 80.0,38.0 L 94.0,42.0 L 105.0,49.0 L 112.0,56.0 L 118.0,66.0 L 121.0,75.0 L 122.0,82.0 L 122.0,93.0 L 118.0,106.0 L 112.0,116.0 L 107.0,122.0 L 95.0,130.0 L 83.0,134.0 L 64.0,134.0 L 53.0,130.0 L 43.0,124.0 L 36.0,117.0 L 30.0,107.0 L 26.0,96.0 L 26.0,77.0 L 29.0,67.0 L 35.0,57.0 L 41.0,50.0 L 53.0,42.0 L 67.0,38.0" fill="#FDEBA1"/>
	<path d="M 74.0,12.0 L 93.0,12.0 L 110.0,17.0 L 121.0,23.0 L 133.0,34.0 L 140.0,44.0 L 145.0,54.0 L 148.0,67.0 L 148.0,86.0 L 143.0,102.0 L 137.0,113.0 L 126.0,125.0 L 115.0,136.0 L 104.0,143.0 L 92.0,148.0 L 86.0,150.0 L 62.0,150.0 L 49.0,146.0 L 38.0,140.0 L 27.0,131.0 L 18.0,119.0 L 13.0,108.0 L 11.0,102.0 L 10.0,95.0 L 10.0,76.0 L 13.0,64.0 L 19.0,52.0 L 27.0,42.0 L 43.0,26.0 L 54.0,19.0 L 66.0,14.0 L 74.0,12.0 M 67.0,26.0 L 51.0,30.0 L 40.0,36.0 L 28.0,47.0 L 21.0,57.0 L 16.0,68.0 L 14.0,77.0 L 14.0,94.0 L 16.0,104.0 L 21.0,116.0 L 30.0,128.0 L 38.0,135.0 L 50.0,142.0 L 63.0,146.0 L 83.0,146.0 L 97.0,142.0 L 108.0,136.0 L 118.0,127.0 L 126.0,117.0 L 132.0,103.0 L 134.0,91.0 L 134.0,80.0 L 130.0,64.0 L 124.0,53.0 L 115.0,42.0 L 104.0,34.0 L 93.0,29.0 L 78.0,26.0 L 67.0,26.0" fill="#9D814B"/>
	<path d="M 79.0,58.0 L 84.0,59.0 L 83.0,69.0 L 75.0,115.0 L 68.0,115.0 L 65.0,114.0 L 65.0,107.0 L 70.0,78.0 L 71.0,71.0 L 68.0,72.0 L 59.0,72.0 L 60.0,64.0 L 61.0,63.0 L 71.0,61.0 L 79.0,58.0" fill="#997E47"/>
	<path d="M 71.0,20.0 L 88.0,20.0 L 105.0,25.0 L 115.0,31.0 L 125.0,40.0 L 133.0,51.0 L 137.0,60.0 L 140.0,72.0 L 140.0,87.0 L 139.0,92.0 L 138.0,92.0 L 136.0,74.0 L 132.0,61.0 L 126.0,50.0 L 117.0,40.0 L 110.0,34.0 L 97.0,27.0 L 86.0,24.0 L 79.0,23.0 L 63.0,23.0 L 66.0,21.0 L 71.0,20.0" fill="#EEC880"/>
	<path d="M 71.0,20.0 L 88.0,20.0 L 88.0,21.0 L 83.0,22.0 L 79.0,23.0 L 63.0,23.0 L 66.0,21.0 L 71.0,20.0" fill="#DFBB76"/>
</svg>
