<?xml version="1.0" ?>
<svg baseProfile="full" height="600px" version="1.1" viewBox="-20.1 -20.1 240.2 240.2" width="600px" xmlns="http://www.w3.org/2000/svg" xmlns:ev="http://www.w3.org/2001/xml-events" xmlns:xlink="http://www.w3.org/1999/xlink">
	<defs/>
	<path d="M 0.0,0.0 L 200.0,0.0 L 200.0,200.0 L 0.0,200.0 L 0.0,0.0" fill="#FDFDFD"/>
	<path d="M 88.0,28.0 L 117.0,28.0 L 132.0,32.0 L 148.0,40.0 L 160.0,51.0 L 167.0,59.0 L 175.0,74.0 L 179.0,89.0 L 179.0,109.0 L 175.0,125.0 L 167.0,141.0 L 156.0,153.0 L 148.0,160.0 L 132.0,168.0 L 117.0,172.0 L 103.0,173.0 L 83.0,173.0 L 68.0,169.0 L 54.0,162.0 L 44.0,154.0 L 37.0,147.0 L 30.0,136.0 L 26.0,128.0 L 22.0,115.0 L 21.0,108.0 L 21.0,91.0 L 25.0,76.0 L 33.0,60.0 L 44.0,48.0 L 52.0,41.0 L 67.0,33.0 L 83.0,29.0 L 88.0,28.0" fill="#FCFCFC"/>
	<path d="M 88.0,28.0 L 117.0,28.0 L 132.0,32.0 L 148.0,40.0 L 160.0,51.0 L 167.0,59.0 L 175.0,74.0 L 179.0,89.0 L 179.0,109.0 L 175.0,125.0 L 167.0,141.0 L 156.0,153.0 L 148.0,160.0 L 132.0,168.0 L 117.0,172.0 L 103.0,173.0 L 83.0,173.0 L 68.0,169.0 L 54.0,162.0 L 44.0,154.0 L 37.0,147.0 L 30.0,136.0 L 26.0,128.0 L 22.0,115.0 L 21.0,108.0 L 21.0,91.0 L 25.0,76.0 L 33.0,60.0 L 44.0,48.0 L 52.0,41.0 L 67.0,33.0 L 83.0,29.0 L 88.0,28.0 M 86.0,37.0 L 71.0,40.0 L 56.0,48.0 L 44.0,59.0 L 37.0,69.0 L 31.0,83.0 L 29.0,92.0 L 29.0,107.0 L 32.0,121.0 L 36.0,130.0 L 42.0,140.0 L 50.0,149.0 L 60.0,156.0 L 72.0,162.0 L 84.0,165.0 L 100.0,165.0 L 116.0,161.0 L 128.0,155.0 L 138.0,147.0 L 146.0,138.0 L 153.0,124.0 L 157.0,108.0 L 157.0,94.0 L 155.0,82.0 L 150.0,70.0 L 142.0,59.0 L 133.0,50.0 L 119.0,42.0 L 108.0,38.0 L 101.0,37.0 L 86.0,37.0" fill="#060606"/>
	<path d="M 99.0,68.0 L 105.0,68.0 L 104.0,77.0 L 90.0,133.0 L 88.0,135.0 L 82.0,133.0 L 83.0,125.0 L 93.0,85.0 L 84.0,84.0 L 76.0,82.0 L 77.0,75.0 L 92.0,75.0 L 98.0,70.0 L 99.0,68.0" fill="#080808"/>
</svg>
