<?xml version="1.0" ?>
<svg baseProfile="full" height="600px" version="1.1" viewBox="-19.296000000000003 -19.296000000000003 230.592 230.592" width="600px" xmlns="http://www.w3.org/2000/svg" xmlns:ev="http://www.w3.org/2001/xml-events" xmlns:xlink="http://www.w3.org/1999/xlink">
	<defs/>
	<path d="M 0.0,0.0 L 192.0,0.0 L 192.0,192.0 L 0.0,192.0 L 0.0,0.0" fill="#FFFEFC"/>
	<path d="M 90.0,16.0 L 107.0,16.0 L 117.0,19.0 L 127.0,24.0 L 137.0,32.0 L 145.0,41.0 L 153.0,55.0 L 159.0,71.0 L 161.0,82.0 L 161.0,109.0 L 159.0,121.0 L 152.0,139.0 L 145.0,151.0 L 134.0,163.0 L 123.0,170.0 L 114.0,174.0 L 104.0,176.0 L 89.0,176.0 L 73.0,172.0 L 62.0,166.0 L 52.0,157.0 L 46.0,150.0 L 38.0,134.0 L 34.0,121.0 L 32.0,109.0 L 32.0,80.0 L 35.0,65.0 L 40.0,52.0 L 46.0,41.0 L 57.0,29.0 L 69.0,21.0 L 81.0,17.0 L 90.0,16.0" fill="#FFCB7D"/>
	<path d="M 90.0,16.0 L 107.0,16.0 L 117.0,19.0 L 127.0,24.0 L 137.0,32.0 L 145.0,41.0 L 153.0,55.0 L 159.0,71.0 L 161.0,82.0 L 161.0,109.0 L 159.0,121.0 L 152.0,139.0 L 145.0,151.0 L 134.0,163.0 L 123.0,170.0 L 114.0,174.0 L 104.0,176.0 L 89.0,176.0 L 73.0,172.0 L 62.0,166.0 L 52.0,157.0 L 46.0,150.0 L 38.0,134.0 L 34.0,121.0 L 32.0,109.0 L 32.0,80.0 L 35.0,65.0 L 40.0,52.0 L 46.0,41.0 L 57.0,29.0 L 69.0,21.0 L 81.0,17.0 L 90.0,16.0 M 91.0,32.0 L 80.0,36.0 L 71.0,42.0 L 62.0,51.0 L 54.0,65.0 L 50.0,77.0 L 49.0,82.0 L 49.0,109.0 L 53.0,124.0 L 60.0,138.0 L 69.0,148.0 L 78.0,155.0 L 87.0,159.0 L 92.0,160.0 L 105.0,160.0 L 117.0,156.0 L 126.0,150.0 L 131.0,146.0 L 139.0,135.0 L 145.0,122.0 L 147.0,116.0 L 149.0,106.0 L 149.0,87.0 L 147.0,76.0 L 142.0,62.0 L 135.0,51.0 L 130.0,45.0 L 119.0,37.0 L 109.0,33.0 L 104.0,32.0 L 91.0,32.0" fill="#FFAC03"/>
	<path d="M 81.0,17.0 L 85.0,18.0 L 69.0,26.0 L 59.0,34.0 L 50.0,46.0 L 43.0,60.0 L 39.0,72.0 L 37.0,82.0 L 37.0,109.0 L 40.0,124.0 L 47.0,141.0 L 55.0,153.0 L 61.0,160.0 L 72.0,168.0 L 83.0,173.0 L 79.0,174.0 L 67.0,169.0 L 57.0,162.0 L 48.0,153.0 L 40.0,139.0 L 34.0,121.0 L 32.0,109.0 L 32.0,80.0 L 35.0,65.0 L 40.0,52.0 L 46.0,41.0 L 57.0,29.0 L 69.0,21.0 L 81.0,17.0" fill="#FFCD80"/>
	<path d="M 103.0,68.0 L 105.0,68.0 L 105.0,124.0 L 95.0,124.0 L 94.0,84.0 L 89.0,86.0 L 86.0,86.0 L 86.0,76.0 L 103.0,68.0" fill="#FFAC06"/>
	<path d="M 139.0,77.0 L 141.0,80.0 L 142.0,86.0 L 141.0,87.0 L 136.0,87.0 L 134.0,83.0 L 134.0,79.0 L 139.0,77.0" fill="#FFAD0A"/>
	<path d="M 132.0,62.0 L 134.0,62.0 L 137.0,67.0 L 137.0,70.0 L 133.0,73.0 L 131.0,73.0 L 128.0,66.0 L 132.0,62.0" fill="#FFAE0C"/>
	<path d="M 134.0,112.0 L 140.0,113.0 L 138.0,122.0 L 134.0,121.0 L 132.0,119.0 L 133.0,113.0 L 134.0,112.0" fill="#FFAD09"/>
	<path d="M 57.0,78.0 L 63.0,80.0 L 62.0,88.0 L 55.0,87.0 L 56.0,79.0 L 57.0,78.0" fill="#FFAE0A"/>
	<path d="M 86.0,42.0 L 88.0,42.0 L 89.0,44.0 L 89.0,50.0 L 83.0,52.0 L 81.0,47.0 L 81.0,44.0 L 86.0,42.0" fill="#FFAD0A"/>
	<path d="M 78.0,136.0 L 83.0,139.0 L 82.0,146.0 L 80.0,147.0 L 75.0,144.0 L 76.0,139.0 L 78.0,136.0" fill="#FFAD08"/>
	<path d="M 68.0,126.0 L 70.0,126.0 L 73.0,130.0 L 71.0,135.0 L 68.0,137.0 L 64.0,132.0 L 66.0,128.0 L 68.0,126.0" fill="#FFAD07"/>
	<path d="M 95.0,40.0 L 102.0,40.0 L 102.0,48.0 L 95.0,48.0 L 95.0,40.0" fill="#FFAC06"/>
	<path d="M 102.0,143.0 L 108.0,143.0 L 109.0,151.0 L 102.0,152.0 L 102.0,143.0" fill="#FFAD07"/>
	<path d="M 89.0,143.0 L 94.0,143.0 L 95.0,144.0 L 95.0,152.0 L 88.0,151.0 L 89.0,143.0" fill="#FFAD07"/>
	<path d="M 60.0,112.0 L 64.0,113.0 L 65.0,119.0 L 62.0,122.0 L 59.0,121.0 L 57.0,114.0 L 60.0,112.0" fill="#FFAD08"/>
	<path d="M 63.0,62.0 L 67.0,64.0 L 69.0,67.0 L 66.0,73.0 L 61.0,70.0 L 61.0,66.0 L 63.0,62.0" fill="#FFAD07"/>
	<path d="M 109.0,42.0 L 116.0,44.0 L 115.0,49.0 L 114.0,52.0 L 108.0,50.0 L 109.0,42.0" fill="#FFAD08"/>
	<path d="M 117.0,137.0 L 120.0,137.0 L 122.0,141.0 L 121.0,145.0 L 116.0,147.0 L 114.0,143.0 L 114.0,139.0 L 117.0,137.0" fill="#FFAD07"/>
	<path d="M 128.0,126.0 L 133.0,131.0 L 129.0,137.0 L 124.0,132.0 L 127.0,127.0 L 128.0,126.0" fill="#FFAD07"/>
	<path d="M 74.0,49.0 L 77.0,52.0 L 78.0,56.0 L 74.0,60.0 L 72.0,60.0 L 69.0,56.0 L 71.0,52.0 L 74.0,49.0" fill="#FFAD07"/>
	<path d="M 122.0,50.0 L 126.0,52.0 L 128.0,56.0 L 125.0,60.0 L 121.0,58.0 L 119.0,55.0 L 122.0,50.0" fill="#FFAC04"/>
	<path d="M 136.0,96.0 L 142.0,96.0 L 142.0,105.0 L 136.0,104.0 L 136.0,96.0" fill="#FFAB02"/>
	<path d="M 55.0,96.0 L 61.0,96.0 L 61.0,104.0 L 55.0,105.0 L 55.0,96.0" fill="#FFAB02"/>
	<path d="M 32.0,90.0 L 36.0,91.0 L 36.0,100.0 L 35.0,100.0 L 34.0,95.0 L 32.0,95.0 L 32.0,90.0" fill="#FFC977"/>
</svg>
