<?xml version="1.0" ?>
<svg baseProfile="full" height="600px" version="1.1" viewBox="-16.08 -16.08 192.16 192.16" width="600px" xmlns="http://www.w3.org/2000/svg" xmlns:ev="http://www.w3.org/2001/xml-events" xmlns:xlink="http://www.w3.org/1999/xlink">
	<defs/>
	<path d="M 0.0,0.0 L 160.0,0.0 L 160.0,160.0 L 0.0,160.0 L 0.0,0.0" fill="#FDECA1"/>
	<path d="M 0.0,0.0 L 160.0,0.0 L 160.0,160.0 L 0.0,160.0 L 0.0,0.0 M 69.0,16.0 L 53.0,21.0 L 43.0,27.0 L 33.0,36.0 L 26.0,44.0 L 19.0,58.0 L 16.0,69.0 L 16.0,91.0 L 21.0,107.0 L 27.0,117.0 L 36.0,127.0 L 44.0,134.0 L 58.0,141.0 L 69.0,144.0 L 90.0,144.0 L 102.0,141.0 L 116.0,134.0 L 128.0,123.0 L 135.0,114.0 L 141.0,102.0 L 144.0,90.0 L 144.0,69.0 L 139.0,53.0 L 133.0,43.0 L 124.0,33.0 L 116.0,26.0 L 102.0,19.0 L 91.0,16.0 L 69.0,16.0" fill="#FDFDFD"/>
	<path d="M 69.0,16.0 L 91.0,16.0 L 107.0,21.0 L 117.0,27.0 L 127.0,36.0 L 134.0,44.0 L 141.0,58.0 L 144.0,69.0 L 144.0,90.0 L 141.0,102.0 L 134.0,116.0 L 123.0,128.0 L 114.0,135.0 L 102.0,141.0 L 90.0,144.0 L 69.0,144.0 L 53.0,139.0 L 43.0,133.0 L 33.0,124.0 L 26.0,116.0 L 19.0,102.0 L 16.0,91.0 L 16.0,69.0 L 21.0,53.0 L 27.0,43.0 L 36.0,33.0 L 44.0,26.0 L 58.0,19.0 L 69.0,16.0 M 71.0,32.0 L 59.0,36.0 L 50.0,42.0 L 43.0,48.0 L 36.0,59.0 L 33.0,68.0 L 32.0,75.0 L 32.0,88.0 L 35.0,98.0 L 39.0,106.0 L 48.0,116.0 L 57.0,123.0 L 67.0,127.0 L 72.0,128.0 L 87.0,128.0 L 101.0,124.0 L 111.0,117.0 L 116.0,113.0 L 124.0,101.0 L 128.0,87.0 L 128.0,72.0 L 125.0,63.0 L 121.0,54.0 L 114.0,46.0 L 106.0,39.0 L 96.0,34.0 L 88.0,32.0 L 71.0,32.0" fill="#F2CC84"/>
	<path d="M 69.0,16.0 L 91.0,16.0 L 107.0,21.0 L 117.0,27.0 L 127.0,36.0 L 134.0,44.0 L 141.0,58.0 L 144.0,69.0 L 144.0,90.0 L 141.0,102.0 L 134.0,116.0 L 123.0,128.0 L 114.0,135.0 L 102.0,141.0 L 90.0,144.0 L 69.0,144.0 L 53.0,139.0 L 43.0,133.0 L 33.0,124.0 L 26.0,116.0 L 19.0,102.0 L 16.0,91.0 L 16.0,69.0 L 21.0,53.0 L 27.0,43.0 L 36.0,33.0 L 44.0,26.0 L 58.0,19.0 L 69.0,16.0 M 71.0,20.0 L 57.0,24.0 L 46.0,30.0 L 36.0,39.0 L 30.0,46.0 L 23.0,60.0 L 20.0,71.0 L 20.0,86.0 L 22.0,96.0 L 25.0,105.0 L 31.0,115.0 L 40.0,125.0 L 51.0,133.0 L 61.0,137.0 L 72.0,140.0 L 89.0,140.0 L 103.0,136.0 L 114.0,130.0 L 124.0,121.0 L 130.0,114.0 L 137.0,100.0 L 140.0,89.0 L 140.0,72.0 L 135.0,55.0 L 129.0,45.0 L 120.0,35.0 L 109.0,27.0 L 96.0,22.0 L 88.0,20.0 L 71.0,20.0" fill="#9A7F49"/>
	<path d="M 81.0,51.0 L 86.0,51.0 L 86.0,109.0 L 76.0,109.0 L 75.0,65.0 L 67.0,68.0 L 63.0,68.0 L 63.0,60.0 L 79.0,52.0 L 81.0,51.0" fill="#997E47"/>
</svg>
