<?xml version="1.0" ?>
<svg baseProfile="full" height="600px" version="1.1" viewBox="-20.1 -20.1 240.2 240.2" width="600px" xmlns="http://www.w3.org/2000/svg" xmlns:ev="http://www.w3.org/2001/xml-events" xmlns:xlink="http://www.w3.org/1999/xlink">
	<defs/>
	<path d="M 0.0,0.0 L 200.0,0.0 L 200.0,200.0 L 0.0,200.0 L 0.0,0.0" fill="#FDFDFD"/>
	<path d="M 87.0,8.0 L 112.0,8.0 L 117.0,11.0 L 120.0,15.0 L 120.0,31.0 L 116.0,32.0 L 119.0,48.0 L 127.0,64.0 L 137.0,83.0 L 139.0,90.0 L 140.0,98.0 L 140.0,116.0 L 136.0,136.0 L 133.0,146.0 L 133.0,158.0 L 140.0,175.0 L 140.0,184.0 L 137.0,189.0 L 132.0,192.0 L 68.0,192.0 L 62.0,188.0 L 60.0,183.0 L 60.0,175.0 L 67.0,157.0 L 67.0,146.0 L 62.0,128.0 L 60.0,113.0 L 60.0,94.0 L 64.0,81.0 L 74.0,62.0 L 81.0,48.0 L 84.0,32.0 L 80.0,31.0 L 80.0,15.0 L 85.0,9.0 L 87.0,8.0" fill="#060606"/>
	<path d="M 70.0,88.0 L 130.0,88.0 L 132.0,96.0 L 132.0,116.0 L 68.0,116.0 L 68.0,94.0 L 70.0,88.0" fill="#FCFCFC"/>
	<path d="M 92.0,32.0 L 108.0,32.0 L 110.0,46.0 L 115.0,59.0 L 126.0,79.0 L 126.0,80.0 L 117.0,80.0 L 112.0,68.0 L 110.0,65.0 L 105.0,66.0 L 106.0,72.0 L 108.0,80.0 L 92.0,80.0 L 95.0,70.0 L 94.0,65.0 L 89.0,66.0 L 84.0,79.0 L 83.0,80.0 L 74.0,80.0 L 80.0,68.0 L 88.0,52.0 L 91.0,40.0 L 92.0,32.0" fill="#F8F8F8"/>
	<path d="M 90.0,124.0 L 110.0,124.0 L 109.0,140.0 L 109.0,161.0 L 112.0,174.0 L 112.0,182.0 L 110.0,184.0 L 90.0,184.0 L 88.0,182.0 L 88.0,174.0 L 91.0,159.0 L 91.0,137.0 L 90.0,124.0" fill="#FBFBFB"/>
	<path d="M 118.0,124.0 L 130.0,124.0 L 125.0,146.0 L 125.0,157.0 L 129.0,170.0 L 132.0,176.0 L 132.0,182.0 L 130.0,184.0 L 120.0,184.0 L 118.0,168.0 L 116.0,158.0 L 116.0,139.0 L 118.0,124.0" fill="#F7F7F7"/>
	<path d="M 70.0,124.0 L 82.0,124.0 L 84.0,141.0 L 84.0,157.0 L 81.0,174.0 L 80.0,184.0 L 70.0,184.0 L 68.0,182.0 L 68.0,176.0 L 73.0,165.0 L 75.0,158.0 L 75.0,145.0 L 70.0,126.0 L 70.0,124.0" fill="#F8F8F8"/>
	<path d="M 91.0,16.0 L 109.0,16.0 L 112.0,19.0 L 112.0,24.0 L 88.0,24.0 L 89.0,17.0 L 91.0,16.0" fill="#E1E1E1"/>
</svg>
