<?xml version="1.0" ?>
<svg baseProfile="full" height="600px" version="1.1" viewBox="-12.06 -12.06 144.12 144.12" width="600px" xmlns="http://www.w3.org/2000/svg" xmlns:ev="http://www.w3.org/2001/xml-events" xmlns:xlink="http://www.w3.org/1999/xlink">
	<defs/>
	<path d="M 0.0,0.0 L 120.0,0.0 L 120.0,120.0 L 0.0,120.0 L 0.0,0.0" fill="#FDFDFD"/>
	<path d="M 49.0,5.0 L 54.0,5.0 L 56.0,7.0 L 57.0,14.0 L 65.0,26.0 L 76.0,42.0 L 81.0,53.0 L 85.0,67.0 L 88.0,79.0 L 94.0,89.0 L 93.0,95.0 L 66.0,105.0 L 59.0,105.0 L 57.0,102.0 L 54.0,86.0 L 46.0,70.0 L 42.0,60.0 L 40.0,47.0 L 38.0,23.0 L 37.0,17.0 L 34.0,16.0 L 35.0,11.0 L 43.0,7.0 L 49.0,5.0" fill="#060606"/>
	<path d="M 64.0,44.0 L 69.0,45.0 L 74.0,56.0 L 77.0,68.0 L 76.0,73.0 L 62.0,78.0 L 58.0,77.0 L 54.0,70.0 L 54.0,68.0 L 65.0,64.0 L 65.0,59.0 L 56.0,60.0 L 51.0,61.0 L 49.0,56.0 L 49.0,50.0 L 61.0,45.0 L 64.0,44.0" fill="#F5F5F5"/>
	<path d="M 47.0,18.0 L 51.0,19.0 L 55.0,25.0 L 55.0,28.0 L 47.0,30.0 L 46.0,26.0 L 46.0,19.0 L 47.0,18.0" fill="#F6F6F6"/>
</svg>
