<?xml version="1.0" ?>
<svg baseProfile="full" height="600px" version="1.1" viewBox="-12.06 -12.06 144.12 144.12" width="600px" xmlns="http://www.w3.org/2000/svg" xmlns:ev="http://www.w3.org/2001/xml-events" xmlns:xlink="http://www.w3.org/1999/xlink">
	<defs/>
	<path d="M 0.0,0.0 L 120.0,0.0 L 120.0,120.0 L 0.0,120.0 L 0.0,0.0" fill="#FCFCFC"/>
	<path d="M 61.0,11.0 L 68.0,11.0 L 70.0,13.0 L 70.0,23.0 L 81.0,56.0 L 81.0,92.0 L 83.0,99.0 L 83.0,108.0 L 80.0,110.0 L 61.0,111.0 L 45.0,111.0 L 43.0,109.0 L 43.0,88.0 L 40.0,67.0 L 40.0,55.0 L 47.0,25.0 L 47.0,19.0 L 46.0,14.0 L 48.0,12.0 L 61.0,11.0" fill="#050505"/>
	<path d="M 54.0,53.0 L 71.0,53.0 L 73.0,58.0 L 73.0,65.0 L 60.0,65.0 L 54.0,67.0 L 54.0,71.0 L 73.0,71.0 L 73.0,83.0 L 69.0,84.0 L 51.0,84.0 L 49.0,77.0 L 49.0,54.0 L 54.0,53.0" fill="#F3F3F3"/>
	<path d="M 56.0,23.0 L 61.0,23.0 L 64.0,31.0 L 64.0,34.0 L 54.0,35.0 L 55.0,24.0 L 56.0,23.0" fill="#E8E8E8"/>
</svg>
