<?xml version="1.0" ?>
<svg baseProfile="full" height="600px" version="1.1" viewBox="-20.1 -20.1 240.2 240.2" width="600px" xmlns="http://www.w3.org/2000/svg" xmlns:ev="http://www.w3.org/2001/xml-events" xmlns:xlink="http://www.w3.org/1999/xlink">
	<defs/>
	<path d="M 0.0,0.0 L 200.0,0.0 L 200.0,200.0 L 0.0,200.0 L 0.0,0.0" fill="#FDFDFD"/>
	<path d="M 86.0,16.0 L 107.0,16.0 L 112.0,19.0 L 115.0,23.0 L 116.0,36.0 L 113.0,39.0 L 114.0,49.0 L 119.0,61.0 L 130.0,78.0 L 136.0,90.0 L 138.0,99.0 L 138.0,126.0 L 134.0,144.0 L 134.0,156.0 L 142.0,173.0 L 142.0,182.0 L 139.0,187.0 L 133.0,190.0 L 94.0,192.0 L 73.0,192.0 L 68.0,188.0 L 66.0,184.0 L 66.0,177.0 L 71.0,162.0 L 71.0,150.0 L 64.0,126.0 L 62.0,115.0 L 62.0,100.0 L 65.0,87.0 L 74.0,68.0 L 79.0,56.0 L 80.0,54.0 L 80.0,41.0 L 77.0,38.0 L 77.0,24.0 L 82.0,18.0 L 86.0,16.0" fill="#090909"/>
	<path d="M 114.0,91.0 L 128.0,91.0 L 131.0,101.0 L 131.0,117.0 L 130.0,118.0 L 87.0,120.0 L 71.0,120.0 L 70.0,116.0 L 70.0,97.0 L 71.0,94.0 L 95.0,92.0 L 114.0,91.0" fill="#F9F9F9"/>
	<path d="M 96.0,39.0 L 104.0,39.0 L 106.0,49.0 L 111.0,62.0 L 118.0,74.0 L 123.0,81.0 L 123.0,84.0 L 115.0,84.0 L 108.0,70.0 L 103.0,71.0 L 104.0,77.0 L 106.0,81.0 L 106.0,84.0 L 102.0,85.0 L 92.0,85.0 L 93.0,78.0 L 94.0,72.0 L 89.0,71.0 L 86.0,78.0 L 83.0,86.0 L 75.0,86.0 L 76.0,81.0 L 84.0,65.0 L 87.0,57.0 L 89.0,40.0 L 96.0,39.0" fill="#F7F7F7"/>
	<path d="M 92.0,127.0 L 110.0,127.0 L 111.0,157.0 L 115.0,172.0 L 115.0,182.0 L 114.0,183.0 L 106.0,184.0 L 95.0,184.0 L 93.0,182.0 L 93.0,171.0 L 94.0,165.0 L 94.0,144.0 L 92.0,127.0" fill="#FAFAFA"/>
	<path d="M 73.0,128.0 L 85.0,128.0 L 88.0,150.0 L 88.0,161.0 L 87.0,166.0 L 86.0,185.0 L 76.0,185.0 L 74.0,183.0 L 75.0,174.0 L 78.0,167.0 L 79.0,162.0 L 79.0,149.0 L 73.0,130.0 L 73.0,128.0" fill="#F3F3F3"/>
	<path d="M 119.0,125.0 L 129.0,125.0 L 129.0,132.0 L 127.0,140.0 L 127.0,157.0 L 131.0,168.0 L 134.0,174.0 L 134.0,181.0 L 133.0,182.0 L 123.0,182.0 L 121.0,169.0 L 118.0,156.0 L 118.0,126.0 L 119.0,125.0" fill="#F5F5F5"/>
	<path d="M 93.0,24.0 L 105.0,24.0 L 107.0,26.0 L 107.0,31.0 L 85.0,32.0 L 85.0,26.0 L 86.0,25.0 L 93.0,24.0" fill="#F0F0F0"/>
</svg>
