<?xml version="1.0" ?>
<svg baseProfile="full" height="600px" version="1.1" viewBox="-19.296000000000003 -19.296000000000003 230.592 230.592" width="600px" xmlns="http://www.w3.org/2000/svg" xmlns:ev="http://www.w3.org/2001/xml-events" xmlns:xlink="http://www.w3.org/1999/xlink">
	<defs/>
	<path d="M 0.0,0.0 L 192.0,0.0 L 192.0,192.0 L 0.0,192.0 L 0.0,0.0" fill="#FDFDFE"/>
	<path d="M 148.0,67.0 L 172.0,67.0 L 172.0,168.0 L 148.0,168.0 L 148.0,67.0" fill="#00BCD4"/>
	<path d="M 155.0,23.0 L 164.0,23.0 L 169.0,26.0 L 173.0,31.0 L 173.0,40.0 L 169.0,46.0 L 164.0,49.0 L 153.0,49.0 L 136.0,58.0 L 131.0,61.0 L 124.0,61.0 L 116.0,58.0 L 100.0,54.0 L 96.0,55.0 L 85.0,65.0 L 81.0,63.0 L 74.0,55.0 L 74.0,52.0 L 84.0,43.0 L 92.0,36.0 L 96.0,35.0 L 124.0,42.0 L 131.0,41.0 L 145.0,34.0 L 147.0,34.0 L 148.0,29.0 L 155.0,23.0" fill="#4354B6"/>
	<path d="M 116.0,121.0 L 140.0,121.0 L 140.0,168.0 L 116.0,168.0 L 116.0,121.0" fill="#00BCD4"/>
	<path d="M 84.0,143.0 L 108.0,143.0 L 108.0,168.0 L 84.0,168.0 L 84.0,143.0" fill="#00BCD4"/>
</svg>
