<?xml version="1.0" ?>
<svg baseProfile="full" height="600px" version="1.1" viewBox="-20.1 -20.1 240.2 240.2" width="600px" xmlns="http://www.w3.org/2000/svg" xmlns:ev="http://www.w3.org/2001/xml-events" xmlns:xlink="http://www.w3.org/1999/xlink">
	<defs/>
	<path d="M 0.0,0.0 L 200.0,0.0 L 200.0,200.0 L 0.0,200.0 L 0.0,0.0" fill="#FCFCFC"/>
	<path d="M 164.0,60.0 L 196.0,60.0 L 196.0,200.0 L 164.0,200.0 L 164.0,60.0" fill="#000000"/>
	<path d="M 84.0,93.0 L 116.0,93.0 L 116.0,200.0 L 84.0,200.0 L 84.0,93.0" fill="#000000"/>
	<path d="M 124.0,116.0 L 156.0,116.0 L 156.0,200.0 L 124.0,200.0 L 124.0,116.0" fill="#000000"/>
	<path d="M 44.0,119.0 L 76.0,119.0 L 76.0,200.0 L 44.0,200.0 L 44.0,119.0" fill="#010101"/>
	<path d="M 4.0,132.0 L 36.0,132.0 L 36.0,200.0 L 4.0,200.0 L 4.0,132.0" fill="#000000"/>
	<path d="M 172.0,68.0 L 188.0,68.0 L 188.0,192.0 L 172.0,192.0 L 172.0,68.0" fill="#FCFCFC"/>
	<path d="M 177.0,8.0 L 183.0,8.0 L 188.0,13.0 L 187.0,21.0 L 182.0,24.0 L 178.0,26.0 L 165.0,45.0 L 153.0,61.0 L 149.0,67.0 L 147.0,77.0 L 143.0,80.0 L 137.0,80.0 L 132.0,75.0 L 132.0,72.0 L 126.0,70.0 L 106.0,60.0 L 97.0,61.0 L 91.0,65.0 L 75.0,78.0 L 65.0,86.0 L 61.0,89.0 L 45.0,95.0 L 37.0,98.0 L 32.0,98.0 L 30.0,96.0 L 31.0,91.0 L 57.0,80.0 L 68.0,72.0 L 85.0,58.0 L 90.0,54.0 L 92.0,47.0 L 97.0,43.0 L 103.0,43.0 L 108.0,47.0 L 110.0,52.0 L 134.0,64.0 L 141.0,63.0 L 154.0,45.0 L 166.0,28.0 L 171.0,21.0 L 173.0,11.0 L 177.0,8.0" fill="#080808"/>
	<path d="M 92.0,101.0 L 108.0,101.0 L 108.0,192.0 L 92.0,192.0 L 92.0,101.0" fill="#FCFCFC"/>
	<path d="M 132.0,124.0 L 148.0,124.0 L 148.0,192.0 L 132.0,192.0 L 132.0,124.0" fill="#FCFCFC"/>
	<path d="M 52.0,127.0 L 68.0,127.0 L 68.0,192.0 L 52.0,192.0 L 52.0,127.0" fill="#FBFBFB"/>
	<path d="M 12.0,140.0 L 28.0,140.0 L 28.0,192.0 L 12.0,192.0 L 12.0,140.0" fill="#FCFCFC"/>
</svg>
