<?xml version="1.0" ?>
<svg baseProfile="full" height="600px" version="1.1" viewBox="-20.1 -20.1 240.2 240.2" width="600px" xmlns="http://www.w3.org/2000/svg" xmlns:ev="http://www.w3.org/2001/xml-events" xmlns:xlink="http://www.w3.org/1999/xlink">
	<defs/>
	<path d="M 0.0,0.0 L 200.0,0.0 L 200.0,200.0 L 0.0,200.0 L 0.0,0.0" fill="#FCFCFC"/>
	<path d="M 84.0,84.0 L 116.0,84.0 L 116.0,200.0 L 84.0,200.0 L 84.0,84.0" fill="#000000"/>
	<path d="M 164.0,108.0 L 196.0,108.0 L 196.0,200.0 L 164.0,200.0 L 164.0,108.0" fill="#010101"/>
	<path d="M 44.0,119.0 L 76.0,119.0 L 76.0,200.0 L 44.0,200.0 L 44.0,119.0" fill="#010101"/>
	<path d="M 124.0,141.0 L 156.0,141.0 L 156.0,200.0 L 124.0,200.0 L 124.0,141.0" fill="#010101"/>
	<path d="M 4.0,141.0 L 36.0,141.0 L 36.0,200.0 L 4.0,200.0 L 4.0,141.0" fill="#000000"/>
	<path d="M 92.0,92.0 L 108.0,92.0 L 108.0,192.0 L 92.0,192.0 L 92.0,92.0" fill="#FCFCFC"/>
	<path d="M 97.0,45.0 L 104.0,46.0 L 108.0,51.0 L 138.0,66.0 L 142.0,62.0 L 146.0,56.0 L 151.0,56.0 L 153.0,58.0 L 152.0,63.0 L 142.0,77.0 L 136.0,75.0 L 104.0,59.0 L 97.0,60.0 L 80.0,74.0 L 70.0,82.0 L 68.0,89.0 L 63.0,93.0 L 57.0,93.0 L 52.0,92.0 L 29.0,101.0 L 25.0,107.0 L 23.0,108.0 L 17.0,108.0 L 12.0,103.0 L 12.0,97.0 L 17.0,92.0 L 28.0,92.0 L 50.0,83.0 L 54.0,77.0 L 57.0,75.0 L 64.0,75.0 L 80.0,62.0 L 92.0,53.0 L 94.0,48.0 L 97.0,45.0" fill="#080808"/>
	<path d="M 172.0,116.0 L 188.0,116.0 L 188.0,192.0 L 172.0,192.0 L 172.0,116.0" fill="#FBFBFB"/>
	<path d="M 52.0,127.0 L 68.0,127.0 L 68.0,192.0 L 52.0,192.0 L 52.0,127.0" fill="#FCFCFC"/>
	<path d="M 132.0,149.0 L 148.0,149.0 L 148.0,192.0 L 132.0,192.0 L 132.0,149.0" fill="#FCFCFC"/>
	<path d="M 12.0,149.0 L 28.0,149.0 L 28.0,192.0 L 12.0,192.0 L 12.0,149.0" fill="#FCFCFC"/>
</svg>
