<?xml version="1.0" ?>
<svg baseProfile="full" height="600px" version="1.1" viewBox="-20.1 -20.1 240.2 240.2" width="600px" xmlns="http://www.w3.org/2000/svg" xmlns:ev="http://www.w3.org/2001/xml-events" xmlns:xlink="http://www.w3.org/1999/xlink">
	<defs/>
	<path d="M 0.0,0.0 L 200.0,0.0 L 200.0,200.0 L 0.0,200.0 L 0.0,0.0" fill="#FDFDFD"/>
	<path d="M 82.0,6.0 L 95.0,6.0 L 105.0,9.0 L 114.0,14.0 L 123.0,22.0 L 130.0,34.0 L 132.0,40.0 L 132.0,56.0 L 127.0,62.0 L 123.0,64.0 L 117.0,64.0 L 111.0,60.0 L 108.0,54.0 L 107.0,44.0 L 101.0,35.0 L 92.0,31.0 L 84.0,31.0 L 76.0,35.0 L 70.0,43.0 L 70.0,56.0 L 74.0,64.0 L 80.0,68.0 L 102.0,75.0 L 112.0,78.0 L 120.0,83.0 L 122.0,87.0 L 122.0,94.0 L 115.0,115.0 L 110.0,132.0 L 102.0,158.0 L 97.0,175.0 L 93.0,184.0 L 86.0,190.0 L 82.0,192.0 L 71.0,192.0 L 22.0,177.0 L 13.0,169.0 L 11.0,164.0 L 11.0,151.0 L 16.0,135.0 L 23.0,112.0 L 30.0,89.0 L 37.0,66.0 L 44.0,44.0 L 47.0,34.0 L 54.0,22.0 L 63.0,14.0 L 75.0,8.0 L 82.0,6.0" fill="#FAFAFA"/>
	<path d="M 82.0,6.0 L 95.0,6.0 L 105.0,9.0 L 114.0,14.0 L 123.0,22.0 L 130.0,34.0 L 132.0,40.0 L 132.0,56.0 L 127.0,62.0 L 123.0,64.0 L 117.0,64.0 L 111.0,60.0 L 108.0,54.0 L 107.0,44.0 L 101.0,35.0 L 92.0,31.0 L 84.0,31.0 L 76.0,35.0 L 70.0,43.0 L 70.0,56.0 L 74.0,64.0 L 80.0,68.0 L 102.0,75.0 L 112.0,78.0 L 120.0,83.0 L 122.0,87.0 L 122.0,94.0 L 115.0,115.0 L 110.0,132.0 L 102.0,158.0 L 97.0,175.0 L 93.0,184.0 L 86.0,190.0 L 82.0,192.0 L 71.0,192.0 L 22.0,177.0 L 13.0,169.0 L 11.0,164.0 L 11.0,151.0 L 16.0,135.0 L 23.0,112.0 L 30.0,89.0 L 37.0,66.0 L 44.0,44.0 L 47.0,34.0 L 54.0,22.0 L 63.0,14.0 L 75.0,8.0 L 82.0,6.0 M 81.0,15.0 L 72.0,18.0 L 64.0,24.0 L 57.0,32.0 L 52.0,44.0 L 46.0,64.0 L 39.0,87.0 L 33.0,107.0 L 26.0,130.0 L 19.0,153.0 L 19.0,163.0 L 23.0,168.0 L 26.0,170.0 L 43.0,175.0 L 69.0,183.0 L 79.0,184.0 L 85.0,181.0 L 88.0,177.0 L 97.0,147.0 L 104.0,124.0 L 111.0,102.0 L 114.0,91.0 L 113.0,87.0 L 89.0,79.0 L 76.0,75.0 L 68.0,69.0 L 63.0,61.0 L 61.0,55.0 L 61.0,45.0 L 65.0,36.0 L 68.0,31.0 L 77.0,25.0 L 83.0,23.0 L 93.0,23.0 L 105.0,28.0 L 112.0,36.0 L 115.0,43.0 L 116.0,53.0 L 118.0,55.0 L 123.0,55.0 L 124.0,54.0 L 124.0,42.0 L 120.0,32.0 L 114.0,24.0 L 105.0,18.0 L 97.0,15.0 L 81.0,15.0" fill="#090909"/>
	<path d="M 59.0,103.0 L 70.0,103.0 L 78.0,106.0 L 84.0,111.0 L 89.0,120.0 L 89.0,133.0 L 85.0,141.0 L 77.0,148.0 L 70.0,151.0 L 60.0,151.0 L 50.0,146.0 L 44.0,139.0 L 41.0,132.0 L 41.0,121.0 L 45.0,113.0 L 50.0,108.0 L 56.0,104.0 L 59.0,103.0" fill="#070707"/>
	<path d="M 53.0,116.0 L 56.0,117.0 L 68.0,140.0 L 69.0,143.0 L 61.0,143.0 L 53.0,138.0 L 49.0,131.0 L 49.0,123.0 L 53.0,116.0" fill="#F1F1F1"/>
	<path d="M 62.0,111.0 L 69.0,111.0 L 75.0,114.0 L 80.0,120.0 L 81.0,122.0 L 81.0,132.0 L 77.0,138.0 L 75.0,138.0 L 62.0,113.0 L 62.0,111.0" fill="#F6F6F6"/>
</svg>
