<?xml version="1.0" ?>
<svg baseProfile="full" height="600px" version="1.1" viewBox="-20.1 -20.1 240.2 240.2" width="600px" xmlns="http://www.w3.org/2000/svg" xmlns:ev="http://www.w3.org/2001/xml-events" xmlns:xlink="http://www.w3.org/1999/xlink">
	<defs/>
	<path d="M 0.0,0.0 L 200.0,0.0 L 200.0,200.0 L 0.0,200.0 L 0.0,0.0" fill="#FDFDFD"/>
	<path d="M 92.0,8.0 L 107.0,8.0 L 117.0,11.0 L 125.0,15.0 L 134.0,23.0 L 141.0,34.0 L 143.0,40.0 L 143.0,47.0 L 140.0,53.0 L 134.0,56.0 L 127.0,56.0 L 122.0,53.0 L 118.0,44.0 L 113.0,37.0 L 104.0,33.0 L 95.0,33.0 L 87.0,37.0 L 82.0,44.0 L 81.0,47.0 L 81.0,57.0 L 85.0,65.0 L 92.0,70.0 L 95.0,71.0 L 133.0,72.0 L 140.0,75.0 L 144.0,80.0 L 144.0,177.0 L 140.0,185.0 L 132.0,191.0 L 129.0,192.0 L 71.0,192.0 L 63.0,188.0 L 57.0,180.0 L 56.0,177.0 L 56.0,44.0 L 61.0,31.0 L 67.0,23.0 L 74.0,16.0 L 88.0,9.0 L 92.0,8.0" fill="#FBFBFB"/>
	<path d="M 92.0,8.0 L 107.0,8.0 L 117.0,11.0 L 125.0,15.0 L 134.0,23.0 L 141.0,34.0 L 143.0,40.0 L 143.0,47.0 L 140.0,53.0 L 134.0,56.0 L 127.0,56.0 L 122.0,53.0 L 118.0,44.0 L 113.0,37.0 L 104.0,33.0 L 95.0,33.0 L 87.0,37.0 L 82.0,44.0 L 81.0,47.0 L 81.0,57.0 L 85.0,65.0 L 92.0,70.0 L 95.0,71.0 L 133.0,72.0 L 140.0,75.0 L 144.0,80.0 L 144.0,177.0 L 140.0,185.0 L 132.0,191.0 L 129.0,192.0 L 71.0,192.0 L 63.0,188.0 L 57.0,180.0 L 56.0,177.0 L 56.0,44.0 L 61.0,31.0 L 67.0,23.0 L 74.0,16.0 L 88.0,9.0 L 92.0,8.0 M 93.0,16.0 L 81.0,21.0 L 71.0,30.0 L 65.0,42.0 L 64.0,47.0 L 64.0,176.0 L 70.0,183.0 L 72.0,184.0 L 127.0,184.0 L 132.0,181.0 L 136.0,176.0 L 136.0,81.0 L 135.0,80.0 L 93.0,79.0 L 83.0,74.0 L 76.0,66.0 L 73.0,57.0 L 73.0,45.0 L 78.0,35.0 L 86.0,28.0 L 93.0,25.0 L 105.0,25.0 L 115.0,29.0 L 122.0,35.0 L 126.0,42.0 L 128.0,47.0 L 133.0,48.0 L 135.0,46.0 L 134.0,39.0 L 130.0,31.0 L 121.0,22.0 L 110.0,17.0 L 106.0,16.0 L 93.0,16.0" fill="#040404"/>
	<path d="M 94.0,108.0 L 105.0,108.0 L 114.0,112.0 L 121.0,119.0 L 124.0,126.0 L 124.0,137.0 L 120.0,146.0 L 113.0,153.0 L 105.0,156.0 L 94.0,156.0 L 86.0,152.0 L 78.0,143.0 L 76.0,137.0 L 76.0,126.0 L 80.0,118.0 L 87.0,111.0 L 94.0,108.0" fill="#060606"/>
	<path d="M 86.0,124.0 L 93.0,130.0 L 108.0,145.0 L 107.0,147.0 L 104.0,148.0 L 96.0,148.0 L 89.0,144.0 L 85.0,139.0 L 84.0,136.0 L 84.0,127.0 L 86.0,124.0" fill="#F2F2F2"/>
	<path d="M 95.0,116.0 L 104.0,116.0 L 111.0,120.0 L 116.0,127.0 L 116.0,135.0 L 114.0,140.0 L 107.0,134.0 L 92.0,119.0 L 95.0,116.0" fill="#F2F2F2"/>
</svg>
