<?xml version="1.0" ?>
<svg baseProfile="full" height="600px" version="1.1" viewBox="-19.296000000000003 -19.296000000000003 230.592 230.592" width="600px" xmlns="http://www.w3.org/2000/svg" xmlns:ev="http://www.w3.org/2001/xml-events" xmlns:xlink="http://www.w3.org/1999/xlink">
	<defs/>
	<path d="M 0.0,0.0 L 192.0,0.0 L 192.0,192.0 L 0.0,192.0 L 0.0,0.0" fill="#FDFCFE"/>
	<path d="M 34.0,25.0 L 78.0,25.0 L 162.0,27.0 L 168.0,31.0 L 171.0,35.0 L 171.0,79.0 L 169.0,131.0 L 166.0,136.0 L 162.0,139.0 L 126.0,139.0 L 58.0,138.0 L 51.0,145.0 L 43.0,152.0 L 33.0,161.0 L 25.0,168.0 L 24.0,168.0 L 24.0,140.0 L 25.0,117.0 L 27.0,33.0 L 31.0,27.0 L 34.0,25.0" fill="#683BB7"/>
	<path d="M 74.0,97.0 L 87.0,97.0 L 106.0,98.0 L 106.0,106.0 L 74.0,106.0 L 74.0,97.0" fill="#CABAE5"/>
	<path d="M 143.0,79.0 L 154.0,79.0 L 154.0,87.0 L 143.0,87.0 L 143.0,79.0" fill="#CEBFE7"/>
</svg>
