<?xml version="1.0" ?>
<svg baseProfile="full" height="600px" version="1.1" viewBox="-12.864 -12.864 153.728 153.728" width="600px" xmlns="http://www.w3.org/2000/svg" xmlns:ev="http://www.w3.org/2001/xml-events" xmlns:xlink="http://www.w3.org/1999/xlink">
	<defs/>
	<path d="M 0.0,0.0 L 128.0,0.0 L 128.0,128.0 L 0.0,128.0 L 0.0,0.0" fill="#FEFEFE"/>
	<path d="M 0.0,0.0 L 128.0,0.0 L 128.0,128.0 L 0.0,128.0 L 0.0,0.0 M 12.0,24.0 L 12.0,104.0 L 51.0,105.0 L 63.0,117.0 L 67.0,115.0 L 77.0,105.0 L 116.0,104.0 L 116.0,24.0 L 12.0,24.0" fill="#FEFEFE"/>
	<path d="M 12.0,24.0 L 116.0,24.0 L 116.0,104.0 L 77.0,105.0 L 65.0,117.0 L 61.0,115.0 L 51.0,105.0 L 12.0,104.0 L 12.0,24.0 M 20.0,32.0 L 20.0,96.0 L 54.0,97.0 L 63.0,106.0 L 67.0,104.0 L 74.0,97.0 L 108.0,96.0 L 108.0,32.0 L 20.0,32.0" fill="#000000"/>
	<path d="M 45.0,60.0 L 92.0,60.0 L 92.0,68.0 L 45.0,68.0 L 45.0,60.0" fill="#000000"/>
	<path d="M 36.0,76.0 L 76.0,76.0 L 76.0,84.0 L 36.0,84.0 L 36.0,76.0" fill="#000000"/>
	<path d="M 83.0,44.0 L 92.0,44.0 L 92.0,52.0 L 83.0,52.0 L 83.0,44.0" fill="#070707"/>
</svg>
