<?xml version="1.0" ?>
<svg baseProfile="full" height="600px" version="1.1" viewBox="-19.296000000000003 -19.296000000000003 230.592 230.592" width="600px" xmlns="http://www.w3.org/2000/svg" xmlns:ev="http://www.w3.org/2001/xml-events" xmlns:xlink="http://www.w3.org/1999/xlink">
	<defs/>
	<path d="M 0.0,0.0 L 192.0,0.0 L 192.0,192.0 L 0.0,192.0 L 0.0,0.0" fill="#FDFCFE"/>
	<path d="M 137.0,17.0 L 152.0,17.0 L 158.0,21.0 L 161.0,25.0 L 165.0,98.0 L 165.0,122.0 L 160.0,128.0 L 157.0,129.0 L 106.0,132.0 L 56.0,135.0 L 41.0,151.0 L 25.0,167.0 L 24.0,167.0 L 23.0,160.0 L 17.0,44.0 L 17.0,32.0 L 21.0,26.0 L 27.0,23.0 L 107.0,19.0 L 137.0,17.0" fill="#683CB7"/>
	<path d="M 108.0,51.0 L 117.0,51.0 L 117.0,59.0 L 109.0,60.0 L 54.0,63.0 L 34.0,63.0 L 34.0,55.0 L 108.0,51.0" fill="#CDBEE7"/>
	<path d="M 62.0,73.0 L 75.0,73.0 L 75.0,82.0 L 48.0,83.0 L 35.0,83.0 L 35.0,75.0 L 62.0,73.0" fill="#CABAE5"/>
</svg>
