<?xml version="1.0" ?>
<svg baseProfile="full" height="600px" version="1.1" viewBox="-20.1 -20.1 240.2 240.2" width="600px" xmlns="http://www.w3.org/2000/svg" xmlns:ev="http://www.w3.org/2001/xml-events" xmlns:xlink="http://www.w3.org/1999/xlink">
	<defs/>
	<path d="M 0.0,0.0 L 200.0,0.0 L 200.0,200.0 L 0.0,200.0 L 0.0,0.0" fill="#070707"/>
	<path d="M 19.0,24.0 L 181.0,24.0 L 184.0,27.0 L 184.0,112.0 L 73.0,112.0 L 16.0,55.0 L 16.0,27.0 L 19.0,24.0" fill="#FBFBFB"/>
	<path d="M 0.0,0.0 L 200.0,0.0 L 200.0,200.0 L 0.0,200.0 L 0.0,0.0 M 17.0,16.0 L 11.0,20.0 L 8.0,25.0 L 8.0,142.0 L 11.0,148.0 L 17.0,152.0 L 76.0,152.0 L 76.0,164.0 L 63.0,164.0 L 57.0,168.0 L 53.0,173.0 L 52.0,175.0 L 52.0,185.0 L 55.0,188.0 L 145.0,188.0 L 148.0,185.0 L 148.0,175.0 L 144.0,169.0 L 139.0,165.0 L 136.0,164.0 L 124.0,164.0 L 124.0,152.0 L 182.0,152.0 L 188.0,149.0 L 191.0,145.0 L 192.0,142.0 L 192.0,25.0 L 188.0,19.0 L 183.0,16.0 L 17.0,16.0" fill="#FDFDFD"/>
	<path d="M 16.0,120.0 L 184.0,120.0 L 184.0,141.0 L 181.0,144.0 L 19.0,144.0 L 16.0,141.0 L 16.0,120.0" fill="#FAFAFA"/>
	<path d="M 16.0,66.0 L 23.0,72.0 L 62.0,111.0 L 62.0,112.0 L 37.0,112.0 L 16.0,91.0 L 16.0,66.0" fill="#F5F5F5"/>
	<path d="M 65.0,172.0 L 135.0,172.0 L 140.0,177.0 L 140.0,180.0 L 60.0,180.0 L 61.0,175.0 L 65.0,172.0" fill="#F0F0F0"/>
	<path d="M 84.0,152.0 L 116.0,152.0 L 116.0,163.0 L 84.0,163.0 L 84.0,152.0" fill="#FCFCFC"/>
	<path d="M 164.0,128.0 L 172.0,128.0 L 172.0,136.0 L 164.0,136.0 L 164.0,128.0" fill="#040404"/>
	<path d="M 16.0,102.0 L 23.0,108.0 L 26.0,112.0 L 16.0,112.0 L 16.0,102.0" fill="#E0E0E0"/>
</svg>
