<?xml version="1.0" ?>
<svg baseProfile="full" height="600px" version="1.1" viewBox="-20.1 -20.1 240.2 240.2" width="600px" xmlns="http://www.w3.org/2000/svg" xmlns:ev="http://www.w3.org/2001/xml-events" xmlns:xlink="http://www.w3.org/1999/xlink">
	<defs/>
	<path d="M 0.0,0.0 L 200.0,0.0 L 200.0,200.0 L 0.0,200.0 L 0.0,0.0" fill="#FCFCFC"/>
	<path d="M 0.0,0.0 L 200.0,0.0 L 200.0,200.0 L 0.0,200.0 L 0.0,0.0 M 18.0,18.0 L 12.0,23.0 L 10.0,26.0 L 10.0,141.0 L 13.0,147.0 L 19.0,151.0 L 76.0,151.0 L 76.0,162.0 L 65.0,162.0 L 57.0,167.0 L 53.0,174.0 L 53.0,184.0 L 55.0,186.0 L 145.0,186.0 L 147.0,184.0 L 147.0,174.0 L 143.0,167.0 L 135.0,162.0 L 124.0,162.0 L 124.0,151.0 L 180.0,151.0 L 186.0,148.0 L 189.0,144.0 L 190.0,141.0 L 190.0,27.0 L 187.0,22.0 L 184.0,19.0 L 181.0,18.0 L 18.0,18.0" fill="#FDFDFD"/>
	<path d="M 18.0,18.0 L 181.0,18.0 L 186.0,21.0 L 189.0,24.0 L 190.0,27.0 L 190.0,141.0 L 187.0,147.0 L 183.0,150.0 L 180.0,151.0 L 124.0,151.0 L 124.0,162.0 L 135.0,162.0 L 143.0,167.0 L 147.0,174.0 L 147.0,184.0 L 145.0,186.0 L 55.0,186.0 L 53.0,184.0 L 53.0,174.0 L 57.0,167.0 L 65.0,162.0 L 76.0,162.0 L 76.0,151.0 L 19.0,151.0 L 13.0,147.0 L 10.0,141.0 L 10.0,26.0 L 16.0,19.0 L 18.0,18.0 M 20.0,26.0 L 18.0,28.0 L 18.0,106.0 L 24.0,112.0 L 182.0,112.0 L 182.0,28.0 L 180.0,26.0 L 20.0,26.0" fill="#080808"/>
	<path d="M 18.0,120.0 L 182.0,120.0 L 182.0,141.0 L 180.0,143.0 L 20.0,143.0 L 18.0,141.0 L 18.0,120.0" fill="#FBFBFB"/>
	<path d="M 66.0,170.0 L 134.0,170.0 L 139.0,175.0 L 139.0,178.0 L 61.0,178.0 L 62.0,173.0 L 66.0,170.0" fill="#EFEFEF"/>
	<path d="M 84.0,151.0 L 116.0,151.0 L 116.0,162.0 L 84.0,162.0 L 84.0,151.0" fill="#F6F6F6"/>
	<path d="M 162.0,127.0 L 171.0,127.0 L 171.0,136.0 L 162.0,136.0 L 162.0,127.0" fill="#070707"/>
</svg>
