<?xml version="1.0" ?>
<svg baseProfile="full" height="600px" version="1.1" viewBox="-19.296000000000003 -19.296000000000003 230.592 230.592" width="600px" xmlns="http://www.w3.org/2000/svg" xmlns:ev="http://www.w3.org/2001/xml-events" xmlns:xlink="http://www.w3.org/1999/xlink">
	<defs/>
	<path d="M 0.0,0.0 L 192.0,0.0 L 192.0,192.0 L 0.0,192.0 L 0.0,0.0" fill="#EAEBEC"/>
	<path d="M 0.0,0.0 L 192.0,0.0 L 192.0,192.0 L 0.0,192.0 L 0.0,0.0 M 88.0,16.0 L 75.0,18.0 L 60.0,24.0 L 50.0,30.0 L 39.0,39.0 L 32.0,47.0 L 24.0,60.0 L 18.0,75.0 L 16.0,88.0 L 16.0,105.0 L 18.0,117.0 L 24.0,132.0 L 30.0,142.0 L 39.0,153.0 L 51.0,163.0 L 66.0,171.0 L 79.0,175.0 L 86.0,176.0 L 105.0,176.0 L 117.0,174.0 L 132.0,168.0 L 142.0,162.0 L 153.0,153.0 L 163.0,141.0 L 171.0,125.0 L 175.0,112.0 L 176.0,106.0 L 176.0,86.0 L 173.0,72.0 L 168.0,60.0 L 162.0,50.0 L 153.0,39.0 L 141.0,29.0 L 125.0,21.0 L 112.0,17.0 L 105.0,16.0 L 88.0,16.0" fill="#FDFDFE"/>
	<path d="M 88.0,16.0 L 105.0,16.0 L 117.0,18.0 L 132.0,24.0 L 142.0,30.0 L 153.0,39.0 L 163.0,51.0 L 171.0,66.0 L 175.0,79.0 L 176.0,86.0 L 176.0,106.0 L 173.0,119.0 L 168.0,132.0 L 162.0,142.0 L 153.0,153.0 L 141.0,163.0 L 125.0,171.0 L 112.0,175.0 L 105.0,176.0 L 86.0,176.0 L 72.0,173.0 L 60.0,168.0 L 50.0,162.0 L 39.0,153.0 L 29.0,141.0 L 21.0,125.0 L 17.0,112.0 L 16.0,105.0 L 16.0,88.0 L 18.0,75.0 L 24.0,60.0 L 30.0,50.0 L 38.0,40.0 L 47.0,32.0 L 60.0,24.0 L 75.0,18.0 L 88.0,16.0 M 87.0,32.0 L 72.0,36.0 L 59.0,43.0 L 47.0,54.0 L 40.0,64.0 L 35.0,75.0 L 32.0,87.0 L 32.0,106.0 L 37.0,122.0 L 43.0,133.0 L 54.0,145.0 L 64.0,152.0 L 75.0,157.0 L 86.0,160.0 L 104.0,160.0 L 119.0,156.0 L 133.0,149.0 L 145.0,138.0 L 152.0,128.0 L 157.0,117.0 L 160.0,103.0 L 160.0,86.0 L 156.0,72.0 L 149.0,59.0 L 138.0,47.0 L 128.0,40.0 L 117.0,35.0 L 106.0,32.0 L 87.0,32.0" fill="#2597F3"/>
	<path d="M 95.0,45.0 L 97.0,45.0 L 102.0,80.0 L 109.0,76.0 L 127.0,62.0 L 135.0,57.0 L 133.0,61.0 L 119.0,79.0 L 112.0,89.0 L 113.0,90.0 L 149.0,95.0 L 149.0,97.0 L 128.0,100.0 L 125.0,101.0 L 139.0,111.0 L 146.0,116.0 L 142.0,117.0 L 119.0,113.0 L 133.0,131.0 L 133.0,133.0 L 129.0,131.0 L 110.0,117.0 L 103.0,112.0 L 101.0,121.0 L 97.0,148.0 L 95.0,148.0 L 90.0,113.0 L 87.0,113.0 L 69.0,127.0 L 60.0,134.0 L 58.0,133.0 L 72.0,114.0 L 80.0,103.0 L 80.0,102.0 L 45.0,97.0 L 45.0,95.0 L 64.0,92.0 L 67.0,91.0 L 50.0,79.0 L 46.0,75.0 L 55.0,76.0 L 66.0,78.0 L 72.0,78.0 L 59.0,61.0 L 57.0,57.0 L 61.0,59.0 L 79.0,73.0 L 89.0,80.0 L 90.0,80.0 L 95.0,45.0" fill="#93A5B0"/>
	<path d="M 95.0,45.0 L 97.0,45.0 L 102.0,80.0 L 109.0,76.0 L 127.0,62.0 L 135.0,57.0 L 133.0,61.0 L 119.0,79.0 L 112.0,89.0 L 113.0,90.0 L 149.0,95.0 L 149.0,97.0 L 123.0,101.0 L 113.0,94.0 L 102.0,86.0 L 100.0,87.0 L 99.0,90.0 L 92.0,92.0 L 91.0,93.0 L 92.0,100.0 L 93.0,104.0 L 92.0,107.0 L 88.0,105.0 L 76.0,97.0 L 60.0,86.0 L 46.0,76.0 L 50.0,75.0 L 66.0,78.0 L 72.0,78.0 L 59.0,61.0 L 57.0,57.0 L 61.0,59.0 L 79.0,73.0 L 89.0,80.0 L 90.0,80.0 L 95.0,45.0" fill="#93A5B0"/>
	<path d="M 101.0,85.0 L 110.0,91.0 L 129.0,104.0 L 145.0,115.0 L 146.0,117.0 L 130.0,115.0 L 100.0,109.0 L 92.0,108.0 L 92.0,101.0 L 90.0,98.0 L 90.0,93.0 L 93.0,90.0 L 99.0,90.0 L 100.0,86.0 L 101.0,85.0" fill="#4455B5"/>
	<path d="M 46.0,75.0 L 55.0,76.0 L 97.0,84.0 L 100.0,85.0 L 99.0,90.0 L 92.0,92.0 L 91.0,93.0 L 92.0,100.0 L 93.0,104.0 L 92.0,107.0 L 88.0,105.0 L 76.0,97.0 L 60.0,86.0 L 46.0,76.0 L 46.0,75.0" fill="#FD4005"/>
	<path d="M 93.0,90.0 L 100.0,91.0 L 102.0,93.0 L 101.0,100.0 L 98.0,102.0 L 92.0,101.0 L 90.0,98.0 L 90.0,93.0 L 93.0,90.0" fill="#FBF7F7"/>
</svg>
