<?xml version="1.0" ?>
<svg baseProfile="full" height="600px" version="1.1" viewBox="-20.1 -20.1 240.2 240.2" width="600px" xmlns="http://www.w3.org/2000/svg" xmlns:ev="http://www.w3.org/2001/xml-events" xmlns:xlink="http://www.w3.org/1999/xlink">
	<defs/>
	<path d="M 0.0,0.0 L 200.0,0.0 L 200.0,200.0 L 0.0,200.0 L 0.0,0.0" fill="#010101"/>
	<path d="M 0.0,0.0 L 200.0,0.0 L 200.0,200.0 L 0.0,200.0 L 0.0,0.0 M 16.0,16.0 L 11.0,19.0 L 8.0,24.0 L 8.0,143.0 L 11.0,148.0 L 16.0,152.0 L 76.0,152.0 L 76.0,164.0 L 63.0,164.0 L 57.0,168.0 L 53.0,173.0 L 52.0,175.0 L 52.0,186.0 L 54.0,188.0 L 146.0,188.0 L 148.0,186.0 L 148.0,175.0 L 144.0,169.0 L 139.0,165.0 L 137.0,164.0 L 124.0,164.0 L 124.0,152.0 L 183.0,152.0 L 189.0,149.0 L 192.0,143.0 L 192.0,24.0 L 186.0,17.0 L 183.0,16.0 L 16.0,16.0" fill="#FDFDFD"/>
	<path d="M 70.0,24.0 L 182.0,24.0 L 184.0,26.0 L 184.0,112.0 L 157.0,112.0 L 70.0,25.0 L 70.0,24.0" fill="#FCFCFC"/>
	<path d="M 18.0,24.0 L 23.0,24.0 L 110.0,111.0 L 110.0,112.0 L 16.0,112.0 L 16.0,26.0 L 18.0,24.0" fill="#FCFCFC"/>
	<path d="M 16.0,120.0 L 184.0,120.0 L 184.0,142.0 L 182.0,144.0 L 18.0,144.0 L 16.0,142.0 L 16.0,120.0" fill="#FDFDFD"/>
	<path d="M 34.0,24.0 L 59.0,24.0 L 146.0,111.0 L 146.0,112.0 L 121.0,112.0 L 34.0,25.0 L 34.0,24.0" fill="#F9F9F9"/>
	<path d="M 65.0,172.0 L 135.0,172.0 L 140.0,177.0 L 140.0,180.0 L 60.0,180.0 L 61.0,175.0 L 65.0,172.0" fill="#FBFBFB"/>
	<path d="M 84.0,152.0 L 116.0,152.0 L 116.0,164.0 L 84.0,164.0 L 84.0,152.0" fill="#FCFCFC"/>
	<path d="M 164.0,128.0 L 172.0,128.0 L 172.0,136.0 L 164.0,136.0 L 164.0,128.0" fill="#000000"/>
</svg>
