<?xml version="1.0" ?>
<svg baseProfile="full" height="600px" version="1.1" viewBox="-16.08 -16.08 192.16 192.16" width="600px" xmlns="http://www.w3.org/2000/svg" xmlns:ev="http://www.w3.org/2001/xml-events" xmlns:xlink="http://www.w3.org/1999/xlink">
	<defs/>
	<path d="M 0.0,0.0 L 160.0,0.0 L 160.0,160.0 L 0.0,160.0 L 0.0,0.0" fill="#FDFDFD"/>
	<path d="M 74.0,20.0 L 87.0,20.0 L 97.0,22.0 L 109.0,27.0 L 119.0,34.0 L 128.0,43.0 L 136.0,57.0 L 139.0,67.0 L 140.0,74.0 L 140.0,86.0 L 138.0,98.0 L 130.0,114.0 L 121.0,124.0 L 113.0,131.0 L 98.0,138.0 L 86.0,140.0 L 74.0,140.0 L 62.0,138.0 L 46.0,130.0 L 36.0,121.0 L 30.0,114.0 L 23.0,100.0 L 21.0,94.0 L 20.0,87.0 L 20.0,74.0 L 23.0,59.0 L 30.0,46.0 L 39.0,36.0 L 46.0,30.0 L 62.0,22.0 L 74.0,20.0" fill="#8AB6EE"/>
	<path d="M 70.0,4.0 L 89.0,4.0 L 104.0,7.0 L 120.0,15.0 L 131.0,23.0 L 139.0,31.0 L 148.0,45.0 L 153.0,56.0 L 156.0,69.0 L 156.0,90.0 L 152.0,106.0 L 144.0,122.0 L 136.0,132.0 L 129.0,139.0 L 115.0,148.0 L 103.0,153.0 L 88.0,156.0 L 70.0,156.0 L 54.0,152.0 L 38.0,144.0 L 28.0,136.0 L 21.0,129.0 L 12.0,115.0 L 7.0,102.0 L 4.0,91.0 L 4.0,70.0 L 8.0,54.0 L 16.0,38.0 L 24.0,28.0 L 31.0,21.0 L 45.0,12.0 L 57.0,7.0 L 70.0,4.0 M 74.0,20.0 L 59.0,23.0 L 46.0,30.0 L 36.0,39.0 L 30.0,46.0 L 22.0,62.0 L 20.0,74.0 L 20.0,87.0 L 22.0,97.0 L 27.0,109.0 L 34.0,119.0 L 43.0,128.0 L 57.0,136.0 L 66.0,139.0 L 74.0,140.0 L 86.0,140.0 L 98.0,138.0 L 114.0,130.0 L 124.0,121.0 L 131.0,113.0 L 138.0,98.0 L 140.0,86.0 L 140.0,74.0 L 137.0,59.0 L 130.0,46.0 L 121.0,36.0 L 114.0,30.0 L 100.0,23.0 L 94.0,21.0 L 87.0,20.0 L 74.0,20.0" fill="#DEE7EF"/>
	<path d="M 70.0,4.0 L 89.0,4.0 L 104.0,7.0 L 120.0,15.0 L 131.0,23.0 L 139.0,31.0 L 148.0,45.0 L 153.0,56.0 L 156.0,69.0 L 156.0,90.0 L 152.0,106.0 L 144.0,122.0 L 136.0,132.0 L 129.0,139.0 L 115.0,148.0 L 103.0,153.0 L 88.0,156.0 L 70.0,156.0 L 54.0,152.0 L 38.0,144.0 L 28.0,136.0 L 21.0,129.0 L 12.0,115.0 L 7.0,102.0 L 4.0,91.0 L 4.0,70.0 L 8.0,54.0 L 16.0,38.0 L 24.0,28.0 L 31.0,21.0 L 45.0,12.0 L 57.0,7.0 L 70.0,4.0 M 71.0,8.0 L 55.0,12.0 L 39.0,20.0 L 26.0,32.0 L 19.0,41.0 L 12.0,55.0 L 8.0,71.0 L 8.0,88.0 L 11.0,103.0 L 19.0,119.0 L 26.0,128.0 L 35.0,137.0 L 48.0,145.0 L 61.0,150.0 L 74.0,152.0 L 89.0,152.0 L 108.0,147.0 L 122.0,139.0 L 134.0,128.0 L 143.0,116.0 L 150.0,99.0 L 152.0,89.0 L 152.0,74.0 L 150.0,62.0 L 144.0,46.0 L 135.0,33.0 L 126.0,24.0 L 112.0,15.0 L 95.0,9.0 L 88.0,8.0 L 71.0,8.0" fill="#A8BBCF"/>
	<path d="M 74.0,20.0 L 87.0,20.0 L 97.0,22.0 L 109.0,27.0 L 119.0,34.0 L 128.0,43.0 L 136.0,57.0 L 139.0,67.0 L 140.0,74.0 L 140.0,86.0 L 138.0,98.0 L 130.0,114.0 L 121.0,124.0 L 113.0,131.0 L 98.0,138.0 L 86.0,140.0 L 74.0,140.0 L 62.0,138.0 L 46.0,130.0 L 36.0,121.0 L 30.0,114.0 L 23.0,100.0 L 21.0,94.0 L 20.0,87.0 L 20.0,74.0 L 23.0,59.0 L 30.0,46.0 L 39.0,36.0 L 46.0,30.0 L 62.0,22.0 L 74.0,20.0 M 71.0,24.0 L 58.0,28.0 L 46.0,35.0 L 39.0,41.0 L 33.0,49.0 L 26.0,63.0 L 24.0,76.0 L 24.0,86.0 L 26.0,96.0 L 31.0,108.0 L 40.0,120.0 L 50.0,128.0 L 63.0,134.0 L 74.0,136.0 L 85.0,136.0 L 99.0,133.0 L 113.0,126.0 L 121.0,119.0 L 129.0,108.0 L 134.0,96.0 L 136.0,85.0 L 136.0,74.0 L 133.0,60.0 L 126.0,47.0 L 118.0,38.0 L 108.0,31.0 L 96.0,26.0 L 86.0,24.0 L 71.0,24.0" fill="#537EB8"/>
	<path d="M 111.0,47.0 L 113.0,47.0 L 111.0,52.0 L 92.0,84.0 L 89.0,89.0 L 72.0,99.0 L 57.0,108.0 L 48.0,114.0 L 46.0,113.0 L 62.0,86.0 L 71.0,71.0 L 100.0,54.0 L 111.0,47.0" fill="#3E4451"/>
	<path d="M 100.0,59.0 L 100.0,62.0 L 90.0,79.0 L 86.0,85.0 L 82.0,84.0 L 80.0,85.0 L 82.0,88.0 L 61.0,101.0 L 59.0,101.0 L 61.0,96.0 L 72.0,78.0 L 75.0,80.0 L 76.0,76.0 L 76.0,73.0 L 100.0,59.0" fill="#F45151"/>
	<path d="M 111.0,47.0 L 113.0,47.0 L 111.0,52.0 L 92.0,84.0 L 88.0,89.0 L 86.0,87.0 L 87.0,82.0 L 99.0,62.0 L 100.0,60.0 L 75.0,75.0 L 71.0,71.0 L 100.0,54.0 L 111.0,47.0" fill="#AB3B3D"/>
	<path d="M 72.0,78.0 L 79.0,84.0 L 82.0,88.0 L 61.0,101.0 L 59.0,101.0 L 61.0,96.0 L 72.0,78.0" fill="#738596"/>
	<path d="M 78.0,128.0 L 83.0,129.0 L 84.0,130.0 L 84.0,136.0 L 76.0,136.0 L 76.0,130.0 L 78.0,128.0" fill="#FBFCFD"/>
	<path d="M 130.0,76.0 L 136.0,76.0 L 136.0,84.0 L 130.0,84.0 L 128.0,82.0 L 129.0,77.0 L 130.0,76.0" fill="#FBFCFD"/>
	<path d="M 24.0,76.0 L 30.0,76.0 L 32.0,78.0 L 31.0,83.0 L 30.0,84.0 L 24.0,84.0 L 24.0,76.0" fill="#FBFCFD"/>
	<path d="M 76.0,24.0 L 84.0,24.0 L 84.0,30.0 L 82.0,32.0 L 77.0,31.0 L 76.0,30.0 L 76.0,24.0" fill="#FBFCFD"/>
	<path d="M 78.0,76.0 L 83.0,77.0 L 84.0,82.0 L 82.0,84.0 L 77.0,83.0 L 76.0,78.0 L 78.0,76.0" fill="#F9F5F6"/>
</svg>
