<?xml version="1.0" ?>
<svg baseProfile="full" height="600px" version="1.1" viewBox="-12.06 -12.06 144.12 144.12" width="600px" xmlns="http://www.w3.org/2000/svg" xmlns:ev="http://www.w3.org/2001/xml-events" xmlns:xlink="http://www.w3.org/1999/xlink">
	<defs/>
	<path d="M 0.0,0.0 L 120.0,0.0 L 120.0,120.0 L 0.0,120.0 L 0.0,0.0" fill="#030303"/>
	<path d="M 0.0,0.0 L 120.0,0.0 L 120.0,120.0 L 0.0,120.0 L 0.0,0.0 M 51.0,12.0 L 40.0,16.0 L 30.0,22.0 L 21.0,31.0 L 13.0,47.0 L 12.0,51.0 L 12.0,69.0 L 17.0,82.0 L 23.0,91.0 L 31.0,99.0 L 42.0,105.0 L 51.0,108.0 L 66.0,108.0 L 75.0,106.0 L 89.0,99.0 L 99.0,89.0 L 107.0,73.0 L 108.0,66.0 L 108.0,51.0 L 104.0,39.0 L 97.0,29.0 L 89.0,21.0 L 73.0,13.0 L 69.0,12.0 L 51.0,12.0" fill="#FCFCFC"/>
	<path d="M 91.0,37.0 L 91.0,40.0 L 80.0,53.0 L 69.0,67.0 L 66.0,70.0 L 31.0,82.0 L 29.0,82.0 L 31.0,78.0 L 44.0,62.0 L 53.0,51.0 L 62.0,47.0 L 91.0,37.0" fill="#F7F7F7"/>
	<path d="M 58.0,56.0 L 63.0,57.0 L 64.0,62.0 L 62.0,64.0 L 57.0,63.0 L 56.0,58.0 L 58.0,56.0" fill="#131313"/>
</svg>
