<?xml version="1.0" ?>
<svg baseProfile="full" height="600px" version="1.1" viewBox="-20.1 -20.1 240.2 240.2" width="600px" xmlns="http://www.w3.org/2000/svg" xmlns:ev="http://www.w3.org/2001/xml-events" xmlns:xlink="http://www.w3.org/1999/xlink">
	<defs/>
	<path d="M 0.0,0.0 L 200.0,0.0 L 200.0,200.0 L 0.0,200.0 L 0.0,0.0" fill="#101010"/>
	<path d="M 15.0,22.0 L 185.0,22.0 L 186.0,23.0 L 186.0,112.0 L 14.0,112.0 L 14.0,23.0 L 15.0,22.0" fill="#FDFDFD"/>
	<path d="M 0.0,0.0 L 200.0,0.0 L 200.0,200.0 L 0.0,200.0 L 0.0,0.0 M 15.0,13.0 L 8.0,17.0 L 5.0,22.0 L 5.0,144.0 L 9.0,151.0 L 15.0,154.0 L 75.0,154.0 L 75.0,166.0 L 62.0,166.0 L 56.0,170.0 L 51.0,176.0 L 51.0,189.0 L 53.0,191.0 L 147.0,191.0 L 149.0,189.0 L 149.0,176.0 L 142.0,168.0 L 137.0,166.0 L 125.0,166.0 L 125.0,154.0 L 185.0,154.0 L 192.0,150.0 L 195.0,144.0 L 195.0,22.0 L 191.0,16.0 L 185.0,13.0 L 15.0,13.0" fill="#FDFDFD"/>
	<path d="M 14.0,121.0 L 186.0,121.0 L 186.0,144.0 L 185.0,145.0 L 15.0,145.0 L 14.0,144.0 L 14.0,121.0" fill="#FDFDFD"/>
	<path d="M 64.0,174.0 L 135.0,174.0 L 140.0,177.0 L 141.0,182.0 L 59.0,182.0 L 60.0,177.0 L 64.0,174.0" fill="#F4F4F4"/>
	<path d="M 83.0,154.0 L 117.0,154.0 L 117.0,166.0 L 83.0,166.0 L 83.0,154.0" fill="#F0F0F0"/>
</svg>
