<?xml version="1.0" ?>
<svg baseProfile="full" height="600px" version="1.1" viewBox="-20.1 -20.1 240.2 240.2" width="600px" xmlns="http://www.w3.org/2000/svg" xmlns:ev="http://www.w3.org/2001/xml-events" xmlns:xlink="http://www.w3.org/1999/xlink">
	<defs/>
	<path d="M 0.0,0.0 L 200.0,0.0 L 200.0,200.0 L 0.0,200.0 L 0.0,0.0" fill="#080808"/>
	<path d="M 17.0,24.0 L 183.0,24.0 L 184.0,25.0 L 184.0,112.0 L 16.0,112.0 L 16.0,25.0 L 17.0,24.0" fill="#FDFDFD"/>
	<path d="M 0.0,0.0 L 200.0,0.0 L 200.0,200.0 L 0.0,200.0 L 0.0,0.0 M 15.0,16.0 L 9.0,21.0 L 8.0,23.0 L 8.0,145.0 L 13.0,151.0 L 15.0,152.0 L 76.0,152.0 L 76.0,164.0 L 64.0,164.0 L 57.0,168.0 L 53.0,173.0 L 52.0,175.0 L 52.0,187.0 L 53.0,188.0 L 147.0,188.0 L 148.0,187.0 L 148.0,175.0 L 144.0,169.0 L 138.0,165.0 L 135.0,164.0 L 124.0,164.0 L 124.0,152.0 L 184.0,152.0 L 189.0,149.0 L 192.0,145.0 L 192.0,23.0 L 187.0,17.0 L 185.0,16.0 L 15.0,16.0" fill="#F8F8F8"/>
	<path d="M 16.0,120.0 L 184.0,120.0 L 184.0,143.0 L 182.0,144.0 L 17.0,144.0 L 16.0,143.0 L 16.0,120.0" fill="#FCFCFC"/>
	<path d="M 64.0,173.0 L 136.0,173.0 L 140.0,177.0 L 140.0,180.0 L 60.0,180.0 L 61.0,175.0 L 64.0,173.0" fill="#FCFCFC"/>
	<path d="M 84.0,152.0 L 116.0,152.0 L 116.0,164.0 L 84.0,164.0 L 84.0,152.0" fill="#F4F4F4"/>
	<path d="M 165.0,129.0 L 172.0,129.0 L 172.0,136.0 L 165.0,136.0 L 165.0,129.0" fill="#181818"/>
</svg>
