<?xml version="1.0" ?>
<svg baseProfile="full" height="600px" version="1.1" viewBox="-20.1 -20.1 240.2 240.2" width="600px" xmlns="http://www.w3.org/2000/svg" xmlns:ev="http://www.w3.org/2001/xml-events" xmlns:xlink="http://www.w3.org/1999/xlink">
	<defs/>
	<path d="M 0.0,0.0 L 200.0,0.0 L 200.0,200.0 L 0.0,200.0 L 0.0,0.0" fill="#FDFDFD"/>
	<path d="M 128.0,23.0 L 137.0,23.0 L 148.0,27.0 L 156.0,34.0 L 161.0,44.0 L 161.0,59.0 L 157.0,67.0 L 152.0,73.0 L 145.0,77.0 L 141.0,79.0 L 129.0,79.0 L 127.0,84.0 L 119.0,97.0 L 119.0,100.0 L 138.0,113.0 L 142.0,115.0 L 149.0,109.0 L 159.0,105.0 L 169.0,105.0 L 179.0,109.0 L 186.0,115.0 L 192.0,127.0 L 192.0,138.0 L 188.0,149.0 L 184.0,154.0 L 174.0,160.0 L 170.0,161.0 L 158.0,161.0 L 148.0,157.0 L 143.0,152.0 L 139.0,147.0 L 136.0,139.0 L 136.0,123.0 L 120.0,111.0 L 113.0,106.0 L 105.0,106.0 L 94.0,107.0 L 95.0,110.0 L 95.0,119.0 L 92.0,128.0 L 88.0,134.0 L 81.0,140.0 L 73.0,143.0 L 59.0,143.0 L 51.0,139.0 L 45.0,134.0 L 40.0,125.0 L 39.0,123.0 L 39.0,109.0 L 43.0,99.0 L 50.0,92.0 L 61.0,87.0 L 72.0,87.0 L 81.0,91.0 L 89.0,98.0 L 100.0,97.0 L 109.0,96.0 L 120.0,79.0 L 121.0,76.0 L 116.0,74.0 L 109.0,66.0 L 105.0,56.0 L 105.0,46.0 L 109.0,37.0 L 116.0,29.0 L 122.0,25.0 L 128.0,23.0" fill="#090909"/>
	<path d="M 157.0,114.0 L 170.0,114.0 L 176.0,117.0 L 182.0,124.0 L 184.0,128.0 L 184.0,138.0 L 180.0,146.0 L 174.0,151.0 L 169.0,153.0 L 158.0,153.0 L 150.0,148.0 L 146.0,143.0 L 144.0,138.0 L 144.0,128.0 L 149.0,120.0 L 155.0,115.0 L 157.0,114.0" fill="#FAFAFA"/>
	<path d="M 60.0,96.0 L 73.0,96.0 L 81.0,101.0 L 86.0,108.0 L 86.0,121.0 L 82.0,129.0 L 73.0,135.0 L 61.0,135.0 L 54.0,131.0 L 49.0,125.0 L 47.0,120.0 L 47.0,109.0 L 53.0,100.0 L 60.0,96.0" fill="#FBFBFB"/>
	<path d="M 126.0,32.0 L 140.0,32.0 L 149.0,38.0 L 153.0,45.0 L 153.0,56.0 L 149.0,64.0 L 143.0,69.0 L 138.0,71.0 L 127.0,71.0 L 118.0,65.0 L 114.0,57.0 L 114.0,45.0 L 118.0,38.0 L 126.0,32.0" fill="#FBFBFB"/>
</svg>
