<?xml version="1.0" ?>
<svg baseProfile="full" height="600px" version="1.1" viewBox="-20.1 -20.1 240.2 240.2" width="600px" xmlns="http://www.w3.org/2000/svg" xmlns:ev="http://www.w3.org/2001/xml-events" xmlns:xlink="http://www.w3.org/1999/xlink">
	<defs/>
	<path d="M 0.0,0.0 L 200.0,0.0 L 200.0,200.0 L 0.0,200.0 L 0.0,0.0" fill="#FDFDFD"/>
	<path d="M 159.0,31.0 L 168.0,31.0 L 179.0,35.0 L 186.0,41.0 L 192.0,53.0 L 192.0,64.0 L 188.0,75.0 L 184.0,80.0 L 174.0,86.0 L 170.0,87.0 L 158.0,87.0 L 148.0,83.0 L 146.0,81.0 L 141.0,82.0 L 128.0,93.0 L 119.0,100.0 L 120.0,104.0 L 132.0,123.0 L 132.0,125.0 L 135.0,124.0 L 145.0,124.0 L 155.0,128.0 L 163.0,135.0 L 167.0,141.0 L 169.0,147.0 L 169.0,157.0 L 165.0,167.0 L 158.0,175.0 L 148.0,180.0 L 133.0,180.0 L 125.0,176.0 L 118.0,170.0 L 113.0,160.0 L 113.0,145.0 L 118.0,135.0 L 124.0,129.0 L 122.0,124.0 L 110.0,105.0 L 92.0,102.0 L 84.0,101.0 L 82.0,106.0 L 75.0,112.0 L 67.0,116.0 L 52.0,116.0 L 42.0,111.0 L 35.0,103.0 L 32.0,97.0 L 31.0,92.0 L 31.0,83.0 L 35.0,74.0 L 42.0,66.0 L 48.0,62.0 L 54.0,60.0 L 63.0,60.0 L 74.0,64.0 L 82.0,71.0 L 86.0,78.0 L 87.0,82.0 L 87.0,93.0 L 99.0,94.0 L 111.0,95.0 L 128.0,81.0 L 138.0,73.0 L 136.0,65.0 L 136.0,53.0 L 142.0,41.0 L 149.0,35.0 L 159.0,31.0" fill="#090909"/>
	<path d="M 157.0,40.0 L 170.0,40.0 L 176.0,43.0 L 182.0,50.0 L 184.0,54.0 L 184.0,64.0 L 180.0,72.0 L 174.0,77.0 L 169.0,79.0 L 158.0,79.0 L 150.0,74.0 L 146.0,69.0 L 144.0,64.0 L 144.0,54.0 L 149.0,46.0 L 155.0,41.0 L 157.0,40.0" fill="#FAFAFA"/>
	<path d="M 137.0,132.0 L 144.0,132.0 L 153.0,136.0 L 159.0,143.0 L 160.0,146.0 L 160.0,158.0 L 156.0,166.0 L 147.0,172.0 L 136.0,172.0 L 129.0,169.0 L 123.0,162.0 L 121.0,157.0 L 121.0,146.0 L 127.0,137.0 L 137.0,132.0" fill="#FAFAFA"/>
	<path d="M 52.0,69.0 L 66.0,69.0 L 75.0,75.0 L 79.0,82.0 L 79.0,93.0 L 76.0,100.0 L 68.0,107.0 L 64.0,108.0 L 53.0,108.0 L 44.0,102.0 L 40.0,94.0 L 40.0,81.0 L 46.0,73.0 L 52.0,69.0" fill="#FBFBFB"/>
</svg>
