<?xml version="1.0" ?>
<svg baseProfile="full" height="600px" version="1.1" viewBox="-20.1 -20.1 240.2 240.2" width="600px" xmlns="http://www.w3.org/2000/svg" xmlns:ev="http://www.w3.org/2001/xml-events" xmlns:xlink="http://www.w3.org/1999/xlink">
	<defs/>
	<path d="M 0.0,0.0 L 200.0,0.0 L 200.0,200.0 L 0.0,200.0 L 0.0,0.0" fill="#FDFDFD"/>
	<path d="M 75.0,49.0 L 89.0,49.0 L 99.0,53.0 L 106.0,60.0 L 110.0,68.0 L 111.0,71.0 L 111.0,82.0 L 108.0,90.0 L 108.0,93.0 L 115.0,94.0 L 133.0,88.0 L 136.0,88.0 L 136.0,76.0 L 141.0,66.0 L 148.0,59.0 L 157.0,55.0 L 171.0,55.0 L 181.0,60.0 L 188.0,67.0 L 192.0,76.0 L 192.0,88.0 L 188.0,98.0 L 182.0,105.0 L 172.0,110.0 L 169.0,111.0 L 158.0,111.0 L 146.0,105.0 L 140.0,98.0 L 139.0,96.0 L 129.0,99.0 L 118.0,102.0 L 121.0,113.0 L 127.0,114.0 L 136.0,119.0 L 143.0,128.0 L 145.0,135.0 L 145.0,148.0 L 140.0,158.0 L 132.0,165.0 L 126.0,168.0 L 121.0,169.0 L 112.0,169.0 L 103.0,165.0 L 97.0,161.0 L 91.0,152.0 L 89.0,146.0 L 89.0,135.0 L 93.0,126.0 L 100.0,118.0 L 107.0,114.0 L 111.0,113.0 L 109.0,104.0 L 103.0,100.0 L 97.0,101.0 L 88.0,105.0 L 78.0,105.0 L 68.0,101.0 L 60.0,94.0 L 55.0,84.0 L 55.0,69.0 L 59.0,61.0 L 64.0,55.0 L 72.0,50.0 L 75.0,49.0" fill="#090909"/>
	<path d="M 158.0,63.0 L 170.0,63.0 L 178.0,68.0 L 183.0,75.0 L 184.0,78.0 L 184.0,87.0 L 180.0,95.0 L 173.0,101.0 L 168.0,103.0 L 160.0,103.0 L 152.0,99.0 L 146.0,92.0 L 144.0,88.0 L 144.0,78.0 L 148.0,70.0 L 154.0,65.0 L 158.0,63.0" fill="#F9F9F9"/>
	<path d="M 111.0,121.0 L 122.0,121.0 L 129.0,124.0 L 136.0,132.0 L 137.0,135.0 L 137.0,145.0 L 134.0,152.0 L 129.0,157.0 L 123.0,160.0 L 110.0,160.0 L 102.0,154.0 L 98.0,147.0 L 97.0,145.0 L 97.0,136.0 L 102.0,127.0 L 111.0,121.0" fill="#FAFAFA"/>
	<path d="M 78.0,57.0 L 88.0,57.0 L 96.0,61.0 L 101.0,67.0 L 102.0,70.0 L 102.0,83.0 L 98.0,90.0 L 92.0,95.0 L 89.0,96.0 L 76.0,96.0 L 68.0,91.0 L 64.0,85.0 L 63.0,81.0 L 63.0,71.0 L 67.0,64.0 L 74.0,58.0 L 78.0,57.0" fill="#FBFBFB"/>
</svg>
