<?xml version="1.0" ?>
<svg baseProfile="full" height="600px" version="1.1" viewBox="-16.08 -16.08 192.16 192.16" width="600px" xmlns="http://www.w3.org/2000/svg" xmlns:ev="http://www.w3.org/2001/xml-events" xmlns:xlink="http://www.w3.org/1999/xlink">
	<defs/>
	<path d="M 0.0,0.0 L 160.0,0.0 L 160.0,160.0 L 0.0,160.0 L 0.0,0.0" fill="#FDEBA1"/>
	<path d="M 0.0,0.0 L 160.0,0.0 L 160.0,160.0 L 0.0,160.0 L 0.0,0.0 M 138.0,14.0 L 126.0,16.0 L 88.0,20.0 L 65.0,23.0 L 20.0,28.0 L 16.0,29.0 L 16.0,38.0 L 8.0,54.0 L 4.0,70.0 L 4.0,89.0 L 7.0,104.0 L 15.0,120.0 L 23.0,131.0 L 31.0,139.0 L 45.0,148.0 L 56.0,153.0 L 69.0,156.0 L 88.0,156.0 L 103.0,153.0 L 119.0,146.0 L 131.0,137.0 L 139.0,129.0 L 148.0,115.0 L 154.0,100.0 L 156.0,90.0 L 156.0,69.0 L 152.0,54.0 L 144.0,38.0 L 140.0,33.0 L 140.0,22.0 L 143.0,22.0 L 143.0,14.0 L 138.0,14.0" fill="#FDFDFC"/>
	<path d="M 138.0,14.0 L 143.0,14.0 L 143.0,22.0 L 140.0,22.0 L 140.0,29.0 L 136.0,39.0 L 127.0,49.0 L 116.0,54.0 L 100.0,54.0 L 92.0,50.0 L 84.0,41.0 L 81.0,34.0 L 76.0,48.0 L 69.0,56.0 L 61.0,60.0 L 57.0,61.0 L 44.0,61.0 L 34.0,57.0 L 27.0,51.0 L 22.0,43.0 L 21.0,37.0 L 16.0,37.0 L 16.0,29.0 L 29.0,27.0 L 82.0,21.0 L 115.0,17.0 L 133.0,15.0 L 138.0,14.0" fill="#4C5C6B"/>
	<path d="M 138.0,31.0 L 142.0,35.0 L 150.0,49.0 L 154.0,60.0 L 156.0,69.0 L 156.0,90.0 L 152.0,106.0 L 144.0,122.0 L 136.0,132.0 L 129.0,139.0 L 115.0,148.0 L 103.0,153.0 L 88.0,156.0 L 69.0,156.0 L 54.0,152.0 L 38.0,144.0 L 28.0,136.0 L 21.0,129.0 L 12.0,115.0 L 7.0,104.0 L 4.0,89.0 L 4.0,70.0 L 8.0,54.0 L 16.0,38.0 L 21.0,37.0 L 19.0,43.0 L 13.0,55.0 L 9.0,71.0 L 9.0,88.0 L 12.0,103.0 L 20.0,119.0 L 27.0,128.0 L 35.0,136.0 L 48.0,144.0 L 61.0,149.0 L 70.0,151.0 L 87.0,151.0 L 102.0,148.0 L 114.0,143.0 L 127.0,134.0 L 135.0,126.0 L 144.0,112.0 L 149.0,99.0 L 151.0,87.0 L 151.0,72.0 L 149.0,62.0 L 144.0,48.0 L 137.0,37.0 L 138.0,31.0" fill="#C49B5B"/>
	<path d="M 138.0,14.0 L 143.0,14.0 L 143.0,22.0 L 140.0,22.0 L 140.0,29.0 L 136.0,39.0 L 127.0,49.0 L 116.0,54.0 L 100.0,54.0 L 92.0,50.0 L 84.0,41.0 L 81.0,34.0 L 76.0,48.0 L 69.0,56.0 L 61.0,60.0 L 57.0,61.0 L 44.0,61.0 L 34.0,57.0 L 27.0,51.0 L 22.0,43.0 L 21.0,37.0 L 16.0,37.0 L 16.0,29.0 L 29.0,27.0 L 82.0,21.0 L 115.0,17.0 L 133.0,15.0 L 138.0,14.0 M 132.0,19.0 L 89.0,24.0 L 64.0,27.0 L 39.0,30.0 L 24.0,32.0 L 25.0,40.0 L 31.0,49.0 L 39.0,55.0 L 47.0,57.0 L 56.0,57.0 L 65.0,54.0 L 72.0,46.0 L 75.0,40.0 L 76.0,30.0 L 84.0,30.0 L 88.0,39.0 L 95.0,47.0 L 101.0,50.0 L 115.0,50.0 L 125.0,45.0 L 133.0,36.0 L 136.0,24.0 L 135.0,19.0 L 132.0,19.0" fill="#3C4651"/>
	<path d="M 70.0,4.0 L 89.0,4.0 L 104.0,7.0 L 120.0,15.0 L 126.0,16.0 L 126.0,17.0 L 88.0,21.0 L 65.0,24.0 L 29.0,28.0 L 25.0,27.0 L 35.0,18.0 L 49.0,10.0 L 64.0,5.0 L 70.0,4.0" fill="#F9E89F"/>
	<path d="M 109.0,62.0 L 117.0,63.0 L 122.0,67.0 L 124.0,70.0 L 124.0,77.0 L 120.0,84.0 L 116.0,86.0 L 108.0,86.0 L 103.0,83.0 L 100.0,77.0 L 100.0,70.0 L 105.0,64.0 L 109.0,62.0" fill="#FAF9F7"/>
	<path d="M 49.0,62.0 L 57.0,63.0 L 62.0,67.0 L 64.0,70.0 L 64.0,77.0 L 60.0,84.0 L 56.0,86.0 L 48.0,86.0 L 43.0,83.0 L 40.0,77.0 L 40.0,71.0 L 44.0,65.0 L 49.0,62.0" fill="#FBF9F7"/>
	<path d="M 70.0,4.0 L 89.0,4.0 L 104.0,7.0 L 120.0,15.0 L 126.0,16.0 L 126.0,17.0 L 112.0,18.0 L 112.0,16.0 L 95.0,10.0 L 88.0,9.0 L 71.0,9.0 L 55.0,13.0 L 39.0,21.0 L 32.0,27.0 L 25.0,28.0 L 31.0,21.0 L 45.0,12.0 L 57.0,7.0 L 70.0,4.0" fill="#C39B5C"/>
	<path d="M 108.0,58.0 L 115.0,58.0 L 123.0,62.0 L 127.0,67.0 L 128.0,71.0 L 128.0,78.0 L 125.0,84.0 L 119.0,89.0 L 116.0,90.0 L 107.0,90.0 L 102.0,87.0 L 97.0,81.0 L 96.0,79.0 L 96.0,70.0 L 100.0,63.0 L 108.0,58.0 M 109.0,62.0 L 103.0,66.0 L 100.0,70.0 L 100.0,77.0 L 104.0,84.0 L 108.0,86.0 L 116.0,86.0 L 121.0,83.0 L 124.0,77.0 L 124.0,70.0 L 119.0,64.0 L 114.0,62.0 L 109.0,62.0" fill="#C59B5A"/>
	<path d="M 43.0,60.0 L 60.0,60.0 L 65.0,64.0 L 68.0,71.0 L 68.0,78.0 L 65.0,84.0 L 59.0,89.0 L 56.0,90.0 L 47.0,90.0 L 42.0,87.0 L 37.0,81.0 L 36.0,79.0 L 36.0,70.0 L 40.0,63.0 L 43.0,60.0 M 49.0,62.0 L 43.0,66.0 L 40.0,71.0 L 41.0,80.0 L 46.0,85.0 L 48.0,86.0 L 56.0,86.0 L 61.0,83.0 L 64.0,77.0 L 64.0,70.0 L 59.0,64.0 L 54.0,62.0 L 49.0,62.0" fill="#C49B5A"/>
	<path d="M 48.0,120.0 L 110.0,120.0 L 110.0,124.0 L 48.0,124.0 L 48.0,120.0" fill="#C29856"/>
	<path d="M 110.0,69.0 L 115.0,70.0 L 117.0,72.0 L 116.0,78.0 L 115.0,79.0 L 109.0,79.0 L 107.0,76.0 L 108.0,71.0 L 110.0,69.0" fill="#404956"/>
	<path d="M 50.0,69.0 L 55.0,70.0 L 57.0,72.0 L 56.0,78.0 L 55.0,79.0 L 49.0,79.0 L 47.0,76.0 L 48.0,71.0 L 50.0,69.0" fill="#3F4955"/>
</svg>
