<?xml version="1.0" ?>
<svg baseProfile="full" height="600px" version="1.1" viewBox="-19.296000000000003 -19.296000000000003 230.592 230.592" width="600px" xmlns="http://www.w3.org/2000/svg" xmlns:ev="http://www.w3.org/2001/xml-events" xmlns:xlink="http://www.w3.org/1999/xlink">
	<defs/>
	<path d="M 0.0,0.0 L 192.0,0.0 L 192.0,192.0 L 0.0,192.0 L 0.0,0.0" fill="#8FC9F8"/>
	<path d="M 0.0,0.0 L 192.0,0.0 L 192.0,192.0 L 0.0,192.0 L 0.0,0.0 M 38.0,17.0 L 38.0,179.0 L 161.0,179.0 L 161.0,55.0 L 123.0,17.0 L 38.0,17.0" fill="#FCFDFE"/>
	<path d="M 118.0,23.0 L 125.0,29.0 L 155.0,59.0 L 155.0,60.0 L 118.0,60.0 L 118.0,23.0" fill="#DCF1FD"/>
	<path d="M 68.0,118.0 L 135.0,118.0 L 135.0,126.0 L 68.0,126.0 L 68.0,118.0" fill="#1B77D2"/>
	<path d="M 68.0,86.0 L 135.0,86.0 L 135.0,94.0 L 68.0,94.0 L 68.0,86.0" fill="#1B77D2"/>
	<path d="M 68.0,134.0 L 119.0,134.0 L 119.0,142.0 L 68.0,142.0 L 68.0,134.0" fill="#1B77D3"/>
	<path d="M 68.0,102.0 L 119.0,102.0 L 119.0,110.0 L 68.0,110.0 L 68.0,102.0" fill="#1B77D3"/>
</svg>
