<?xml version="1.0" ?>
<svg baseProfile="full" height="600px" version="1.1" viewBox="-19.296000000000003 -19.296000000000003 230.592 230.592" width="600px" xmlns="http://www.w3.org/2000/svg" xmlns:ev="http://www.w3.org/2001/xml-events" xmlns:xlink="http://www.w3.org/1999/xlink">
	<defs/>
	<path d="M 0.0,0.0 L 192.0,0.0 L 192.0,192.0 L 0.0,192.0 L 0.0,0.0" fill="#90CAF8"/>
	<path d="M 0.0,0.0 L 192.0,0.0 L 192.0,192.0 L 0.0,192.0 L 0.0,0.0 M 33.0,13.0 L 33.0,180.0 L 160.0,180.0 L 160.0,52.0 L 121.0,13.0 L 33.0,13.0" fill="#FDFEFE"/>
	<path d="M 117.0,20.0 L 124.0,26.0 L 154.0,56.0 L 154.0,57.0 L 117.0,57.0 L 117.0,20.0" fill="#DFF3FD"/>
	<path d="M 65.0,116.0 L 133.0,116.0 L 133.0,125.0 L 65.0,125.0 L 65.0,116.0" fill="#267FD6"/>
	<path d="M 65.0,84.0 L 133.0,84.0 L 133.0,93.0 L 65.0,93.0 L 65.0,84.0" fill="#267FD6"/>
	<path d="M 65.0,132.0 L 117.0,132.0 L 117.0,141.0 L 65.0,141.0 L 65.0,132.0" fill="#267FD6"/>
	<path d="M 65.0,100.0 L 117.0,100.0 L 117.0,109.0 L 65.0,109.0 L 65.0,100.0" fill="#267FD6"/>
</svg>
