<?xml version="1.0" ?>
<svg baseProfile="full" height="600px" version="1.1" viewBox="-19.296000000000003 -19.296000000000003 230.592 230.592" width="600px" xmlns="http://www.w3.org/2000/svg" xmlns:ev="http://www.w3.org/2001/xml-events" xmlns:xlink="http://www.w3.org/1999/xlink">
	<defs/>
	<path d="M 0.0,0.0 L 192.0,0.0 L 192.0,192.0 L 0.0,192.0 L 0.0,0.0" fill="#8EC9F8"/>
	<path d="M 0.0,0.0 L 192.0,0.0 L 192.0,192.0 L 0.0,192.0 L 0.0,0.0 M 30.0,18.0 L 30.0,151.0 L 57.0,151.0 L 57.0,177.0 L 165.0,177.0 L 165.0,67.0 L 132.0,34.0 L 114.0,33.0 L 99.0,18.0 L 30.0,18.0" fill="#FDFDFE"/>
	<path d="M 31.0,19.0 L 100.0,19.0 L 113.0,32.0 L 113.0,34.0 L 104.0,34.0 L 96.0,26.0 L 94.0,25.0 L 94.0,34.0 L 57.0,34.0 L 57.0,150.0 L 31.0,150.0 L 31.0,19.0" fill="#43A4F3"/>
	<path d="M 127.0,40.0 L 134.0,46.0 L 158.0,70.0 L 158.0,72.0 L 127.0,72.0 L 127.0,40.0" fill="#DEF2FD"/>
	<path d="M 80.0,124.0 L 143.0,124.0 L 143.0,132.0 L 80.0,132.0 L 80.0,124.0" fill="#1C78D3"/>
	<path d="M 80.0,92.0 L 143.0,92.0 L 143.0,100.0 L 80.0,100.0 L 80.0,92.0" fill="#1C78D3"/>
	<path d="M 80.0,140.0 L 127.0,140.0 L 127.0,148.0 L 80.0,148.0 L 80.0,140.0" fill="#1D79D3"/>
	<path d="M 80.0,108.0 L 127.0,108.0 L 127.0,116.0 L 80.0,116.0 L 80.0,108.0" fill="#1D79D3"/>
	<path d="M 50.0,118.0 L 56.0,118.0 L 56.0,126.0 L 50.0,126.0 L 50.0,118.0" fill="#186AC4"/>
	<path d="M 50.0,102.0 L 56.0,102.0 L 56.0,110.0 L 50.0,110.0 L 50.0,102.0" fill="#186AC4"/>
	<path d="M 50.0,86.0 L 56.0,86.0 L 56.0,94.0 L 50.0,94.0 L 50.0,86.0" fill="#186AC4"/>
	<path d="M 50.0,70.0 L 56.0,70.0 L 56.0,78.0 L 50.0,78.0 L 50.0,70.0" fill="#186AC4"/>
	<path d="M 95.0,26.0 L 99.0,28.0 L 103.0,32.0 L 103.0,34.0 L 95.0,34.0 L 95.0,26.0" fill="#D3EDFD"/>
</svg>
