<?xml version="1.0" ?>
<svg baseProfile="full" height="600px" version="1.1" viewBox="-19.296000000000003 -19.296000000000003 230.592 230.592" width="600px" xmlns="http://www.w3.org/2000/svg" xmlns:ev="http://www.w3.org/2001/xml-events" xmlns:xlink="http://www.w3.org/1999/xlink">
	<defs/>
	<path d="M 0.0,0.0 L 192.0,0.0 L 192.0,192.0 L 0.0,192.0 L 0.0,0.0" fill="#8FC9F8"/>
	<path d="M 0.0,0.0 L 192.0,0.0 L 192.0,192.0 L 0.0,192.0 L 0.0,0.0 M 24.0,12.0 L 24.0,144.0 L 68.0,144.0 L 68.0,176.0 L 168.0,176.0 L 168.0,75.0 L 137.0,44.0 L 124.0,43.0 L 93.0,12.0 L 24.0,12.0" fill="#FDFEFF"/>
	<path d="M 24.0,12.0 L 93.0,12.0 L 123.0,42.0 L 123.0,44.0 L 114.0,44.0 L 89.0,19.0 L 88.0,44.0 L 68.0,44.0 L 68.0,144.0 L 24.0,144.0 L 24.0,12.0" fill="#42A4F3"/>
	<path d="M 88.0,128.0 L 148.0,128.0 L 148.0,136.0 L 88.0,136.0 L 88.0,128.0" fill="#1976D2"/>
	<path d="M 88.0,96.0 L 148.0,96.0 L 148.0,104.0 L 88.0,104.0 L 88.0,96.0" fill="#1976D2"/>
	<path d="M 132.0,50.0 L 139.0,56.0 L 162.0,79.0 L 162.0,80.0 L 132.0,80.0 L 132.0,50.0" fill="#DDF2FD"/>
	<path d="M 88.0,144.0 L 132.0,144.0 L 132.0,152.0 L 88.0,152.0 L 88.0,144.0" fill="#1976D2"/>
	<path d="M 88.0,112.0 L 132.0,112.0 L 132.0,120.0 L 88.0,120.0 L 88.0,112.0" fill="#1976D2"/>
	<path d="M 88.0,18.0 L 95.0,24.0 L 113.0,42.0 L 113.0,44.0 L 88.0,44.0 L 88.0,18.0" fill="#DBF1FD"/>
	<path d="M 44.0,112.0 L 68.0,112.0 L 68.0,120.0 L 44.0,120.0 L 44.0,112.0" fill="#1565C0"/>
	<path d="M 44.0,96.0 L 68.0,96.0 L 68.0,104.0 L 44.0,104.0 L 44.0,96.0" fill="#1565C0"/>
	<path d="M 44.0,80.0 L 68.0,80.0 L 68.0,88.0 L 44.0,88.0 L 44.0,80.0" fill="#1565C0"/>
	<path d="M 44.0,64.0 L 68.0,64.0 L 68.0,72.0 L 44.0,72.0 L 44.0,64.0" fill="#1565C0"/>
</svg>
