<?xml version="1.0" ?>
<svg baseProfile="full" height="600px" version="1.1" viewBox="-20.1 -20.1 240.2 240.2" width="600px" xmlns="http://www.w3.org/2000/svg" xmlns:ev="http://www.w3.org/2001/xml-events" xmlns:xlink="http://www.w3.org/1999/xlink">
	<defs/>
	<path d="M 0.0,0.0 L 200.0,0.0 L 200.0,200.0 L 0.0,200.0 L 0.0,0.0" fill="#000000"/>
	<path d="M 0.0,0.0 L 200.0,0.0 L 200.0,200.0 L 0.0,200.0 L 0.0,0.0 M 6.0,44.0 L 4.0,46.0 L 4.0,154.0 L 6.0,156.0 L 194.0,156.0 L 196.0,154.0 L 196.0,46.0 L 194.0,44.0 L 6.0,44.0" fill="#FDFDFD"/>
	<path d="M 72.0,52.0 L 128.0,52.0 L 128.0,148.0 L 72.0,148.0 L 72.0,52.0" fill="#FBFBFB"/>
	<path d="M 136.0,52.0 L 188.0,52.0 L 188.0,148.0 L 136.0,148.0 L 136.0,52.0" fill="#FBFBFB"/>
	<path d="M 12.0,52.0 L 64.0,52.0 L 64.0,148.0 L 12.0,148.0 L 12.0,52.0" fill="#FDFDFD"/>
	<path d="M 156.0,72.0 L 167.0,72.0 L 176.0,76.0 L 181.0,82.0 L 181.0,91.0 L 178.0,96.0 L 174.0,99.0 L 171.0,99.0 L 171.0,101.0 L 178.0,102.0 L 183.0,108.0 L 183.0,118.0 L 180.0,123.0 L 174.0,128.0 L 169.0,130.0 L 156.0,130.0 L 148.0,127.0 L 143.0,122.0 L 141.0,118.0 L 141.0,113.0 L 152.0,113.0 L 153.0,118.0 L 156.0,119.0 L 167.0,119.0 L 170.0,116.0 L 170.0,109.0 L 165.0,106.0 L 155.0,105.0 L 155.0,96.0 L 165.0,95.0 L 169.0,92.0 L 169.0,85.0 L 166.0,83.0 L 156.0,83.0 L 152.0,89.0 L 142.0,89.0 L 142.0,83.0 L 147.0,76.0 L 156.0,72.0" fill="#070707"/>
	<path d="M 94.0,72.0 L 105.0,72.0 L 114.0,76.0 L 118.0,81.0 L 119.0,83.0 L 119.0,93.0 L 115.0,100.0 L 109.0,107.0 L 101.0,114.0 L 97.0,118.0 L 120.0,119.0 L 120.0,129.0 L 80.0,129.0 L 80.0,120.0 L 92.0,109.0 L 104.0,97.0 L 107.0,92.0 L 107.0,86.0 L 104.0,83.0 L 95.0,83.0 L 92.0,86.0 L 91.0,90.0 L 80.0,90.0 L 80.0,84.0 L 84.0,78.0 L 89.0,74.0 L 94.0,72.0" fill="#070707"/>
	<path d="M 37.0,72.0 L 49.0,72.0 L 49.0,127.0 L 37.0,127.0 L 37.0,84.0 L 26.0,91.0 L 23.0,92.0 L 23.0,82.0 L 32.0,75.0 L 37.0,72.0" fill="#070707"/>
</svg>
