<?xml version="1.0" ?>
<svg baseProfile="full" height="600px" version="1.1" viewBox="-20.1 -20.1 240.2 240.2" width="600px" xmlns="http://www.w3.org/2000/svg" xmlns:ev="http://www.w3.org/2001/xml-events" xmlns:xlink="http://www.w3.org/1999/xlink">
	<defs/>
	<path d="M 0.0,0.0 L 200.0,0.0 L 200.0,200.0 L 0.0,200.0 L 0.0,0.0" fill="#000000"/>
	<path d="M 0.0,0.0 L 200.0,0.0 L 200.0,200.0 L 0.0,200.0 L 0.0,0.0 M 6.0,44.0 L 4.0,46.0 L 4.0,154.0 L 6.0,156.0 L 194.0,156.0 L 196.0,154.0 L 196.0,46.0 L 194.0,44.0 L 6.0,44.0" fill="#FDFDFD"/>
	<path d="M 72.0,52.0 L 128.0,52.0 L 128.0,148.0 L 72.0,148.0 L 72.0,52.0" fill="#FBFBFB"/>
	<path d="M 136.0,52.0 L 188.0,52.0 L 188.0,148.0 L 136.0,148.0 L 136.0,52.0" fill="#FAFAFA"/>
	<path d="M 12.0,52.0 L 64.0,52.0 L 64.0,148.0 L 12.0,148.0 L 12.0,52.0" fill="#FBFBFB"/>
	<path d="M 94.0,76.0 L 105.0,76.0 L 113.0,80.0 L 119.0,87.0 L 122.0,96.0 L 122.0,112.0 L 119.0,122.0 L 115.0,128.0 L 110.0,132.0 L 105.0,134.0 L 94.0,134.0 L 86.0,129.0 L 82.0,124.0 L 79.0,116.0 L 78.0,111.0 L 78.0,96.0 L 81.0,87.0 L 88.0,79.0 L 94.0,76.0" fill="#060606"/>
	<path d="M 31.0,75.0 L 46.0,75.0 L 52.0,79.0 L 57.0,85.0 L 60.0,93.0 L 60.0,113.0 L 57.0,122.0 L 50.0,130.0 L 45.0,132.0 L 31.0,132.0 L 25.0,128.0 L 20.0,122.0 L 17.0,114.0 L 17.0,92.0 L 22.0,82.0 L 29.0,76.0 L 31.0,75.0" fill="#050505"/>
	<path d="M 155.0,73.0 L 168.0,73.0 L 176.0,77.0 L 180.0,82.0 L 181.0,84.0 L 181.0,93.0 L 177.0,101.0 L 159.0,119.0 L 182.0,120.0 L 182.0,129.0 L 142.0,129.0 L 142.0,121.0 L 167.0,96.0 L 169.0,92.0 L 168.0,85.0 L 164.0,83.0 L 158.0,83.0 L 153.0,88.0 L 152.0,91.0 L 142.0,91.0 L 142.0,84.0 L 147.0,77.0 L 155.0,73.0" fill="#050505"/>
	<path d="M 35.0,84.0 L 41.0,84.0 L 46.0,88.0 L 49.0,98.0 L 49.0,110.0 L 46.0,119.0 L 41.0,123.0 L 35.0,123.0 L 30.0,117.0 L 28.0,110.0 L 28.0,96.0 L 31.0,88.0 L 35.0,84.0" fill="#F6F6F6"/>
	<path d="M 98.0,85.0 L 104.0,86.0 L 109.0,92.0 L 110.0,97.0 L 110.0,113.0 L 106.0,122.0 L 104.0,124.0 L 96.0,124.0 L 92.0,119.0 L 90.0,114.0 L 90.0,97.0 L 92.0,90.0 L 98.0,85.0" fill="#F9F9F9"/>
</svg>
