<?xml version="1.0" ?>
<svg baseProfile="full" height="600px" version="1.1" viewBox="-19.296000000000003 -19.296000000000003 230.592 230.592" width="600px" xmlns="http://www.w3.org/2000/svg" xmlns:ev="http://www.w3.org/2001/xml-events" xmlns:xlink="http://www.w3.org/1999/xlink">
	<defs/>
	<path d="M 0.0,0.0 L 192.0,0.0 L 192.0,192.0 L 0.0,192.0 L 0.0,0.0" fill="#FEC829"/>
	<path d="M 0.0,0.0 L 192.0,0.0 L 192.0,192.0 L 0.0,192.0 L 0.0,0.0 M 86.0,16.0 L 72.0,19.0 L 56.0,26.0 L 45.0,34.0 L 36.0,42.0 L 26.0,56.0 L 19.0,72.0 L 16.0,86.0 L 16.0,105.0 L 20.0,122.0 L 26.0,136.0 L 34.0,147.0 L 40.0,154.0 L 50.0,162.0 L 64.0,170.0 L 79.0,175.0 L 88.0,176.0 L 106.0,176.0 L 125.0,171.0 L 139.0,164.0 L 148.0,157.0 L 154.0,152.0 L 162.0,142.0 L 169.0,130.0 L 174.0,115.0 L 176.0,104.0 L 176.0,85.0 L 172.0,69.0 L 164.0,53.0 L 157.0,44.0 L 152.0,38.0 L 142.0,30.0 L 130.0,23.0 L 115.0,18.0 L 105.0,16.0 L 86.0,16.0" fill="#FDFDFC"/>
	<path d="M 65.0,76.0 L 73.0,76.0 L 79.0,80.0 L 83.0,85.0 L 84.0,87.0 L 84.0,96.0 L 81.0,102.0 L 75.0,107.0 L 71.0,108.0 L 63.0,108.0 L 57.0,104.0 L 53.0,99.0 L 52.0,97.0 L 52.0,87.0 L 56.0,81.0 L 61.0,77.0 L 65.0,76.0" fill="#715042"/>
	<path d="M 121.0,76.0 L 131.0,77.0 L 138.0,83.0 L 140.0,87.0 L 140.0,96.0 L 137.0,102.0 L 131.0,107.0 L 128.0,108.0 L 119.0,108.0 L 113.0,104.0 L 109.0,99.0 L 108.0,97.0 L 108.0,89.0 L 111.0,82.0 L 117.0,77.0 L 121.0,76.0" fill="#715042"/>
	<path d="M 76.0,128.0 L 84.0,128.0 L 87.0,135.0 L 92.0,139.0 L 102.0,138.0 L 106.0,133.0 L 108.0,128.0 L 116.0,128.0 L 115.0,136.0 L 111.0,142.0 L 112.0,156.0 L 108.0,162.0 L 105.0,164.0 L 98.0,164.0 L 93.0,162.0 L 89.0,157.0 L 86.0,146.0 L 80.0,141.0 L 76.0,133.0 L 76.0,128.0" fill="#DF3101"/>
	<path d="M 109.0,143.0 L 111.0,146.0 L 112.0,149.0 L 112.0,156.0 L 108.0,162.0 L 105.0,164.0 L 98.0,164.0 L 93.0,162.0 L 89.0,157.0 L 87.0,150.0 L 88.0,146.0 L 91.0,147.0 L 101.0,147.0 L 109.0,143.0" fill="#FD3F01"/>
	<path d="M 72.0,82.0 L 78.0,82.0 L 81.0,85.0 L 80.0,92.0 L 78.0,93.0 L 72.0,93.0 L 69.0,90.0 L 69.0,85.0 L 72.0,82.0" fill="#F9F7F7"/>
	<path d="M 126.0,79.0 L 133.0,80.0 L 134.0,82.0 L 134.0,88.0 L 131.0,91.0 L 126.0,91.0 L 123.0,88.0 L 123.0,82.0 L 126.0,79.0" fill="#F9F7F7"/>
	<path d="M 76.0,128.0 L 84.0,128.0 L 86.0,140.0 L 86.0,145.0 L 82.0,143.0 L 77.0,136.0 L 76.0,128.0" fill="#BA6E0A"/>
	<path d="M 108.0,128.0 L 116.0,128.0 L 115.0,136.0 L 111.0,142.0 L 110.0,142.0 L 108.0,128.0" fill="#BA6E0A"/>
	<path d="M 78.0,80.0 L 83.0,85.0 L 81.0,89.0 L 80.0,83.0 L 73.0,82.0 L 73.0,81.0 L 78.0,80.0" fill="#8A6C5B"/>
</svg>
