<?xml version="1.0" ?>
<svg baseProfile="full" height="600px" version="1.1" viewBox="-19.296000000000003 -19.296000000000003 230.592 230.592" width="600px" xmlns="http://www.w3.org/2000/svg" xmlns:ev="http://www.w3.org/2001/xml-events" xmlns:xlink="http://www.w3.org/1999/xlink">
	<defs/>
	<path d="M 0.0,0.0 L 192.0,0.0 L 192.0,192.0 L 0.0,192.0 L 0.0,0.0" fill="#FEFDFD"/>
	<path d="M 86.0,20.0 L 97.0,20.0 L 106.0,24.0 L 110.0,28.0 L 115.0,26.0 L 120.0,24.0 L 131.0,24.0 L 141.0,28.0 L 148.0,35.0 L 150.0,39.0 L 162.0,45.0 L 167.0,52.0 L 169.0,57.0 L 175.0,61.0 L 179.0,66.0 L 180.0,69.0 L 180.0,78.0 L 178.0,85.0 L 180.0,89.0 L 180.0,98.0 L 176.0,106.0 L 171.0,110.0 L 166.0,112.0 L 161.0,112.0 L 159.0,116.0 L 155.0,119.0 L 152.0,120.0 L 142.0,120.0 L 137.0,126.0 L 132.0,128.0 L 122.0,128.0 L 117.0,134.0 L 112.0,136.0 L 107.0,136.0 L 105.0,141.0 L 99.0,146.0 L 92.0,148.0 L 81.0,149.0 L 74.0,153.0 L 69.0,159.0 L 64.0,172.0 L 40.0,172.0 L 41.0,165.0 L 45.0,145.0 L 46.0,142.0 L 42.0,141.0 L 38.0,137.0 L 29.0,134.0 L 23.0,129.0 L 20.0,123.0 L 19.0,114.0 L 14.0,109.0 L 12.0,105.0 L 12.0,96.0 L 15.0,90.0 L 15.0,86.0 L 12.0,81.0 L 12.0,72.0 L 15.0,66.0 L 20.0,61.0 L 20.0,52.0 L 23.0,45.0 L 27.0,40.0 L 32.0,37.0 L 36.0,36.0 L 46.0,36.0 L 48.0,31.0 L 56.0,25.0 L 60.0,24.0 L 69.0,24.0 L 73.0,26.0 L 77.0,25.0 L 83.0,21.0 L 86.0,20.0" fill="#F8BAD0"/>
	<path d="M 107.0,49.0 L 111.0,49.0 L 113.0,53.0 L 119.0,53.0 L 121.0,49.0 L 127.0,50.0 L 129.0,51.0 L 127.0,59.0 L 129.0,59.0 L 129.0,61.0 L 137.0,59.0 L 139.0,64.0 L 139.0,67.0 L 135.0,69.0 L 135.0,75.0 L 139.0,77.0 L 138.0,82.0 L 137.0,85.0 L 130.0,84.0 L 128.0,86.0 L 129.0,93.0 L 125.0,95.0 L 121.0,95.0 L 119.0,91.0 L 113.0,91.0 L 111.0,95.0 L 105.0,94.0 L 103.0,93.0 L 105.0,85.0 L 103.0,85.0 L 103.0,83.0 L 95.0,85.0 L 93.0,80.0 L 94.0,76.0 L 97.0,75.0 L 97.0,69.0 L 93.0,67.0 L 94.0,61.0 L 96.0,59.0 L 102.0,60.0 L 104.0,58.0 L 103.0,51.0 L 107.0,49.0" fill="#F06594"/>
	<path d="M 63.0,77.0 L 67.0,77.0 L 69.0,81.0 L 75.0,81.0 L 77.0,77.0 L 83.0,78.0 L 85.0,79.0 L 83.0,86.0 L 85.0,87.0 L 85.0,89.0 L 93.0,87.0 L 95.0,92.0 L 95.0,95.0 L 91.0,97.0 L 91.0,103.0 L 95.0,105.0 L 94.0,110.0 L 93.0,113.0 L 86.0,112.0 L 84.0,114.0 L 85.0,121.0 L 81.0,123.0 L 77.0,123.0 L 75.0,119.0 L 69.0,119.0 L 67.0,123.0 L 61.0,122.0 L 59.0,121.0 L 61.0,113.0 L 59.0,113.0 L 57.0,111.0 L 51.0,113.0 L 49.0,108.0 L 50.0,104.0 L 53.0,103.0 L 53.0,97.0 L 49.0,95.0 L 50.0,89.0 L 52.0,87.0 L 58.0,88.0 L 60.0,86.0 L 59.0,79.0 L 63.0,77.0" fill="#F06594"/>
	<path d="M 69.0,90.0 L 77.0,91.0 L 81.0,95.0 L 82.0,103.0 L 78.0,108.0 L 75.0,110.0 L 69.0,110.0 L 63.0,105.0 L 62.0,97.0 L 67.0,91.0 L 69.0,90.0" fill="#F7B6CD"/>
	<path d="M 113.0,62.0 L 121.0,63.0 L 125.0,67.0 L 126.0,75.0 L 122.0,80.0 L 119.0,82.0 L 113.0,82.0 L 107.0,77.0 L 106.0,69.0 L 111.0,63.0 L 113.0,62.0" fill="#F7B6CD"/>
</svg>
