<?xml version="1.0" ?>
<svg baseProfile="full" height="600px" version="1.1" viewBox="-19.296000000000003 -19.296000000000003 230.592 230.592" width="600px" xmlns="http://www.w3.org/2000/svg" xmlns:ev="http://www.w3.org/2001/xml-events" xmlns:xlink="http://www.w3.org/1999/xlink">
	<defs/>
	<path d="M 0.0,0.0 L 192.0,0.0 L 192.0,192.0 L 0.0,192.0 L 0.0,0.0" fill="#FCFDFE"/>
	<path d="M 48.0,12.0 L 76.0,12.0 L 76.0,48.0 L 144.0,48.0 L 144.0,116.0 L 180.0,116.0 L 180.0,144.0 L 144.0,144.0 L 144.0,180.0 L 116.0,180.0 L 116.0,144.0 L 48.0,144.0 L 48.0,76.0 L 12.0,76.0 L 12.0,48.0 L 48.0,48.0 L 48.0,12.0" fill="#05A9F3"/>
	<path d="M 48.0,76.0 L 76.0,76.0 L 76.0,116.0 L 116.0,116.0 L 116.0,144.0 L 48.0,144.0 L 48.0,76.0" fill="#4053B6"/>
	<path d="M 76.0,76.0 L 116.0,76.0 L 116.0,116.0 L 76.0,116.0 L 76.0,76.0" fill="#FBFDFE"/>
	<path d="M 144.0,116.0 L 180.0,116.0 L 180.0,144.0 L 144.0,144.0 L 144.0,116.0" fill="#4254B6"/>
	<path d="M 48.0,12.0 L 76.0,12.0 L 76.0,48.0 L 48.0,48.0 L 48.0,12.0" fill="#4255B7"/>
</svg>
