<?xml version="1.0" ?>
<svg baseProfile="full" height="600px" version="1.1" viewBox="-19.296000000000003 -19.296000000000003 230.592 230.592" width="600px" xmlns="http://www.w3.org/2000/svg" xmlns:ev="http://www.w3.org/2001/xml-events" xmlns:xlink="http://www.w3.org/1999/xlink">
	<defs/>
	<path d="M 0.0,0.0 L 192.0,0.0 L 192.0,192.0 L 0.0,192.0 L 0.0,0.0" fill="#FDFDFE"/>
	<path d="M 52.0,8.0 L 80.0,8.0 L 80.0,52.0 L 140.0,52.0 L 140.0,112.0 L 184.0,112.0 L 184.0,140.0 L 140.0,140.0 L 140.0,184.0 L 112.0,184.0 L 112.0,140.0 L 52.0,140.0 L 52.0,80.0 L 8.0,80.0 L 8.0,52.0 L 52.0,52.0 L 52.0,8.0" fill="#03A9F4"/>
	<path d="M 52.0,80.0 L 80.0,80.0 L 80.0,112.0 L 112.0,112.0 L 112.0,140.0 L 52.0,140.0 L 52.0,80.0" fill="#3F51B5"/>
	<path d="M 140.0,112.0 L 184.0,112.0 L 184.0,140.0 L 140.0,140.0 L 140.0,112.0" fill="#3F51B5"/>
	<path d="M 52.0,8.0 L 80.0,8.0 L 80.0,52.0 L 52.0,52.0 L 52.0,8.0" fill="#3F51B5"/>
	<path d="M 80.0,80.0 L 112.0,80.0 L 112.0,112.0 L 80.0,112.0 L 80.0,80.0" fill="#FCFDFE"/>
</svg>
