<?xml version="1.0" ?>
<svg baseProfile="full" height="600px" version="1.1" viewBox="-20.1 -20.1 240.2 240.2" width="600px" xmlns="http://www.w3.org/2000/svg" xmlns:ev="http://www.w3.org/2001/xml-events" xmlns:xlink="http://www.w3.org/1999/xlink">
	<defs/>
	<path d="M 0.0,0.0 L 200.0,0.0 L 200.0,200.0 L 0.0,200.0 L 0.0,0.0" fill="#FDFDFD"/>
	<path d="M 30.0,25.0 L 32.0,25.0 L 39.0,33.0 L 99.0,93.0 L 103.0,91.0 L 168.0,26.0 L 172.0,27.0 L 174.0,29.0 L 173.0,33.0 L 107.0,99.0 L 109.0,103.0 L 174.0,168.0 L 173.0,172.0 L 171.0,174.0 L 167.0,173.0 L 101.0,107.0 L 97.0,109.0 L 32.0,174.0 L 28.0,173.0 L 25.0,169.0 L 93.0,101.0 L 91.0,97.0 L 25.0,31.0 L 30.0,25.0" fill="#020202"/>
</svg>
