<?xml version="1.0" ?>
<svg baseProfile="full" height="600px" version="1.1" viewBox="-20.1 -20.1 240.2 240.2" width="600px" xmlns="http://www.w3.org/2000/svg" xmlns:ev="http://www.w3.org/2001/xml-events" xmlns:xlink="http://www.w3.org/1999/xlink">
	<defs/>
	<path d="M 0.0,0.0 L 200.0,0.0 L 200.0,200.0 L 0.0,200.0 L 0.0,0.0" fill="#FBFBFB"/>
	<path d="M 0.0,0.0 L 200.0,0.0 L 200.0,200.0 L 0.0,200.0 L 0.0,0.0 M 88.0,8.0 L 71.0,12.0 L 55.0,19.0 L 42.0,28.0 L 31.0,38.0 L 21.0,52.0 L 13.0,68.0 L 9.0,83.0 L 8.0,88.0 L 8.0,111.0 L 11.0,126.0 L 19.0,145.0 L 28.0,158.0 L 37.0,168.0 L 50.0,178.0 L 66.0,186.0 L 82.0,191.0 L 89.0,192.0 L 110.0,192.0 L 125.0,189.0 L 141.0,183.0 L 154.0,175.0 L 167.0,164.0 L 176.0,153.0 L 176.0,151.0 L 183.0,150.0 L 190.0,145.0 L 193.0,139.0 L 193.0,127.0 L 191.0,117.0 L 192.0,110.0 L 192.0,89.0 L 189.0,74.0 L 183.0,59.0 L 175.0,46.0 L 164.0,33.0 L 150.0,22.0 L 134.0,14.0 L 122.0,10.0 L 109.0,8.0 L 88.0,8.0" fill="#FCFCFC"/>
	<path d="M 88.0,8.0 L 109.0,8.0 L 126.0,11.0 L 145.0,19.0 L 158.0,28.0 L 168.0,37.0 L 178.0,50.0 L 186.0,66.0 L 191.0,82.0 L 192.0,89.0 L 192.0,110.0 L 191.0,120.0 L 193.0,127.0 L 193.0,139.0 L 188.0,147.0 L 181.0,151.0 L 176.0,151.0 L 174.0,155.0 L 165.0,166.0 L 153.0,176.0 L 139.0,184.0 L 122.0,190.0 L 110.0,192.0 L 89.0,192.0 L 74.0,189.0 L 59.0,183.0 L 46.0,175.0 L 33.0,164.0 L 22.0,150.0 L 14.0,134.0 L 10.0,122.0 L 8.0,111.0 L 8.0,88.0 L 12.0,71.0 L 19.0,55.0 L 28.0,42.0 L 37.0,32.0 L 50.0,22.0 L 66.0,14.0 L 78.0,10.0 L 88.0,8.0 M 89.0,16.0 L 73.0,20.0 L 59.0,26.0 L 45.0,36.0 L 35.0,46.0 L 28.0,56.0 L 21.0,70.0 L 17.0,83.0 L 16.0,89.0 L 16.0,110.0 L 19.0,123.0 L 25.0,139.0 L 33.0,151.0 L 42.0,161.0 L 50.0,168.0 L 63.0,176.0 L 79.0,182.0 L 89.0,184.0 L 111.0,184.0 L 123.0,181.0 L 137.0,176.0 L 151.0,167.0 L 161.0,158.0 L 168.0,150.0 L 166.0,146.0 L 162.0,140.0 L 161.0,119.0 L 158.0,101.0 L 158.0,96.0 L 164.0,96.0 L 174.0,101.0 L 183.0,109.0 L 184.0,109.0 L 184.0,90.0 L 182.0,79.0 L 176.0,63.0 L 167.0,49.0 L 158.0,39.0 L 150.0,32.0 L 137.0,24.0 L 121.0,18.0 L 110.0,16.0 L 89.0,16.0" fill="#080808"/>
	<path d="M 93.0,100.0 L 106.0,100.0 L 119.0,104.0 L 128.0,111.0 L 135.0,122.0 L 139.0,132.0 L 139.0,136.0 L 61.0,136.0 L 62.0,129.0 L 69.0,115.0 L 74.0,109.0 L 85.0,102.0 L 93.0,100.0" fill="#FBFBFB"/>
	<path d="M 91.0,92.0 L 109.0,92.0 L 121.0,96.0 L 131.0,103.0 L 138.0,111.0 L 145.0,125.0 L 148.0,135.0 L 148.0,142.0 L 146.0,144.0 L 54.0,144.0 L 52.0,142.0 L 52.0,135.0 L 57.0,120.0 L 64.0,108.0 L 71.0,101.0 L 81.0,95.0 L 91.0,92.0 M 93.0,100.0 L 83.0,103.0 L 72.0,111.0 L 65.0,122.0 L 61.0,132.0 L 61.0,136.0 L 139.0,136.0 L 138.0,129.0 L 131.0,115.0 L 126.0,109.0 L 117.0,103.0 L 106.0,100.0 L 93.0,100.0" fill="#050505"/>
	<path d="M 167.0,106.0 L 174.0,110.0 L 181.0,118.0 L 185.0,128.0 L 185.0,137.0 L 181.0,142.0 L 175.0,143.0 L 170.0,139.0 L 169.0,137.0 L 168.0,118.0 L 167.0,114.0 L 167.0,106.0" fill="#F6F6F6"/>
	<path d="M 129.0,48.0 L 141.0,48.0 L 152.0,52.0 L 160.0,58.0 L 159.0,63.0 L 154.0,64.0 L 144.0,58.0 L 140.0,57.0 L 131.0,57.0 L 119.0,63.0 L 114.0,64.0 L 112.0,62.0 L 113.0,57.0 L 118.0,53.0 L 126.0,49.0 L 129.0,48.0" fill="#080808"/>
	<path d="M 57.0,48.0 L 69.0,48.0 L 80.0,52.0 L 88.0,58.0 L 87.0,63.0 L 82.0,64.0 L 72.0,58.0 L 68.0,57.0 L 59.0,57.0 L 47.0,63.0 L 42.0,64.0 L 40.0,62.0 L 41.0,57.0 L 46.0,53.0 L 54.0,49.0 L 57.0,48.0" fill="#080808"/>
	<path d="M 51.0,79.0 L 53.0,80.0 L 52.0,93.0 L 49.0,96.0 L 44.0,96.0 L 42.0,94.0 L 42.0,87.0 L 47.0,81.0 L 51.0,79.0" fill="#0B0B0B"/>
	<path d="M 48.0,84.0 L 49.0,84.0 L 49.0,92.0 L 45.0,93.0 L 46.0,86.0 L 48.0,84.0" fill="#D8D8D8"/>
</svg>
