<?xml version="1.0" ?>
<svg baseProfile="full" height="600px" version="1.1" viewBox="-12.06 -12.06 144.12 144.12" width="600px" xmlns="http://www.w3.org/2000/svg" xmlns:ev="http://www.w3.org/2001/xml-events" xmlns:xlink="http://www.w3.org/1999/xlink">
	<defs/>
	<path d="M 0.0,0.0 L 120.0,0.0 L 120.0,120.0 L 0.0,120.0 L 0.0,0.0" fill="#FBFBFB"/>
	<path d="M 51.0,12.0 L 69.0,12.0 L 82.0,17.0 L 91.0,23.0 L 99.0,31.0 L 105.0,42.0 L 108.0,51.0 L 108.0,66.0 L 107.0,71.0 L 103.0,66.0 L 100.0,62.0 L 98.0,49.0 L 91.0,35.0 L 82.0,27.0 L 74.0,23.0 L 66.0,21.0 L 54.0,21.0 L 44.0,24.0 L 34.0,30.0 L 27.0,38.0 L 22.0,49.0 L 21.0,54.0 L 21.0,66.0 L 24.0,76.0 L 30.0,86.0 L 38.0,93.0 L 49.0,98.0 L 54.0,99.0 L 65.0,99.0 L 78.0,95.0 L 83.0,92.0 L 88.0,94.0 L 91.0,97.0 L 82.0,103.0 L 73.0,107.0 L 66.0,108.0 L 51.0,108.0 L 39.0,104.0 L 29.0,97.0 L 21.0,89.0 L 13.0,73.0 L 12.0,69.0 L 12.0,51.0 L 16.0,40.0 L 22.0,30.0 L 31.0,21.0 L 47.0,13.0 L 51.0,12.0" fill="#080808"/>
	<path d="M 55.0,61.0 L 63.0,61.0 L 71.0,64.0 L 78.0,72.0 L 79.0,74.0 L 79.0,81.0 L 41.0,81.0 L 42.0,72.0 L 49.0,64.0 L 55.0,61.0" fill="#040404"/>
	<path d="M 95.0,67.0 L 98.0,70.0 L 103.0,79.0 L 103.0,85.0 L 99.0,89.0 L 92.0,89.0 L 89.0,86.0 L 89.0,78.0 L 95.0,67.0" fill="#070707"/>
	<path d="M 70.0,38.0 L 75.0,39.0 L 87.0,44.0 L 88.0,49.0 L 86.0,51.0 L 79.0,50.0 L 69.0,46.0 L 68.0,40.0 L 70.0,38.0" fill="#0D0D0D"/>
	<path d="M 44.0,39.0 L 51.0,39.0 L 52.0,44.0 L 51.0,46.0 L 38.0,51.0 L 33.0,50.0 L 32.0,45.0 L 36.0,42.0 L 44.0,39.0" fill="#0A0A0A"/>
	<path d="M 32.0,66.0 L 34.0,67.0 L 34.0,73.0 L 29.0,72.0 L 30.0,68.0 L 32.0,66.0" fill="#0E0E0E"/>
</svg>
