<?xml version="1.0" ?>
<svg baseProfile="full" height="600px" version="1.1" viewBox="-19.296000000000003 -19.296000000000003 230.592 230.592" width="600px" xmlns="http://www.w3.org/2000/svg" xmlns:ev="http://www.w3.org/2001/xml-events" xmlns:xlink="http://www.w3.org/1999/xlink">
	<defs/>
	<path d="M 0.0,0.0 L 192.0,0.0 L 192.0,192.0 L 0.0,192.0 L 0.0,0.0" fill="#FDFEFE"/>
	<path d="M 134.0,28.0 L 145.0,28.0 L 155.0,31.0 L 163.0,37.0 L 169.0,46.0 L 172.0,54.0 L 172.0,66.0 L 169.0,75.0 L 164.0,84.0 L 156.0,93.0 L 142.0,102.0 L 127.0,107.0 L 120.0,108.0 L 107.0,108.0 L 103.0,107.0 L 110.0,125.0 L 118.0,136.0 L 125.0,143.0 L 138.0,151.0 L 151.0,155.0 L 160.0,156.0 L 160.0,172.0 L 149.0,172.0 L 133.0,167.0 L 121.0,161.0 L 110.0,152.0 L 100.0,141.0 L 94.0,131.0 L 88.0,115.0 L 86.0,105.0 L 86.0,100.0 L 81.0,98.0 L 70.0,90.0 L 60.0,81.0 L 55.0,77.0 L 57.0,73.0 L 65.0,65.0 L 69.0,67.0 L 79.0,76.0 L 86.0,80.0 L 90.0,67.0 L 96.0,55.0 L 104.0,45.0 L 114.0,36.0 L 126.0,30.0 L 134.0,28.0" fill="#06ACC1"/>
	<path d="M 135.0,44.0 L 144.0,44.0 L 152.0,48.0 L 156.0,56.0 L 156.0,65.0 L 151.0,74.0 L 147.0,79.0 L 139.0,85.0 L 131.0,89.0 L 119.0,92.0 L 106.0,92.0 L 102.0,90.0 L 102.0,82.0 L 107.0,69.0 L 116.0,56.0 L 124.0,49.0 L 132.0,45.0 L 135.0,44.0" fill="#FAFDFD"/>
</svg>
