<?xml version="1.0" ?>
<svg baseProfile="full" height="600px" version="1.1" viewBox="-20.1 -20.1 240.2 240.2" width="600px" xmlns="http://www.w3.org/2000/svg" xmlns:ev="http://www.w3.org/2001/xml-events" xmlns:xlink="http://www.w3.org/1999/xlink">
	<defs/>
	<path d="M 0.0,0.0 L 200.0,0.0 L 200.0,200.0 L 0.0,200.0 L 0.0,0.0" fill="#FCFCFC"/>
	<path d="M 117.0,1.0 L 128.0,1.0 L 136.0,5.0 L 141.0,11.0 L 143.0,15.0 L 143.0,27.0 L 137.0,36.0 L 130.0,40.0 L 122.0,41.0 L 121.0,50.0 L 134.0,58.0 L 143.0,67.0 L 149.0,78.0 L 151.0,83.0 L 151.0,91.0 L 160.0,90.0 L 162.0,84.0 L 169.0,76.0 L 175.0,73.0 L 185.0,73.0 L 195.0,79.0 L 199.0,85.0 L 200.0,89.0 L 200.0,98.0 L 196.0,106.0 L 190.0,111.0 L 185.0,113.0 L 174.0,113.0 L 166.0,108.0 L 162.0,103.0 L 161.0,100.0 L 152.0,99.0 L 151.0,109.0 L 143.0,125.0 L 133.0,135.0 L 124.0,140.0 L 122.0,140.0 L 125.0,148.0 L 125.0,151.0 L 132.0,151.0 L 139.0,154.0 L 144.0,159.0 L 148.0,166.0 L 148.0,174.0 L 144.0,183.0 L 137.0,189.0 L 133.0,191.0 L 123.0,191.0 L 115.0,187.0 L 110.0,181.0 L 108.0,176.0 L 108.0,165.0 L 112.0,158.0 L 116.0,154.0 L 115.0,147.0 L 114.0,144.0 L 95.0,144.0 L 83.0,140.0 L 75.0,135.0 L 70.0,137.0 L 66.0,142.0 L 69.0,150.0 L 69.0,158.0 L 63.0,168.0 L 57.0,172.0 L 53.0,173.0 L 43.0,173.0 L 35.0,168.0 L 31.0,163.0 L 29.0,158.0 L 29.0,147.0 L 34.0,139.0 L 41.0,134.0 L 44.0,133.0 L 54.0,133.0 L 60.0,135.0 L 67.0,128.0 L 59.0,114.0 L 56.0,105.0 L 56.0,87.0 L 59.0,77.0 L 53.0,75.0 L 48.0,73.0 L 43.0,77.0 L 37.0,79.0 L 28.0,79.0 L 20.0,74.0 L 15.0,68.0 L 13.0,64.0 L 13.0,54.0 L 17.0,46.0 L 25.0,40.0 L 27.0,39.0 L 38.0,39.0 L 46.0,43.0 L 51.0,49.0 L 53.0,53.0 L 54.0,65.0 L 61.0,69.0 L 64.0,69.0 L 71.0,61.0 L 78.0,55.0 L 91.0,49.0 L 95.0,48.0 L 112.0,47.0 L 114.0,39.0 L 106.0,32.0 L 103.0,24.0 L 103.0,16.0 L 107.0,8.0 L 115.0,2.0 L 117.0,1.0" fill="#070707"/>
	<path d="M 98.0,56.0 L 110.0,56.0 L 120.0,59.0 L 130.0,65.0 L 138.0,74.0 L 143.0,85.0 L 144.0,88.0 L 144.0,101.0 L 140.0,114.0 L 134.0,123.0 L 122.0,118.0 L 116.0,116.0 L 116.0,110.0 L 120.0,102.0 L 123.0,97.0 L 123.0,77.0 L 120.0,71.0 L 109.0,65.0 L 98.0,65.0 L 90.0,69.0 L 85.0,77.0 L 85.0,97.0 L 88.0,102.0 L 92.0,110.0 L 92.0,115.0 L 80.0,120.0 L 74.0,123.0 L 68.0,114.0 L 65.0,106.0 L 64.0,102.0 L 64.0,90.0 L 67.0,80.0 L 73.0,70.0 L 82.0,62.0 L 93.0,57.0 L 98.0,56.0" fill="#F9F9F9"/>
	<path d="M 99.0,72.0 L 107.0,72.0 L 109.0,73.0 L 109.0,75.0 L 114.0,76.0 L 116.0,78.0 L 116.0,89.0 L 115.0,93.0 L 116.0,96.0 L 112.0,96.0 L 111.0,104.0 L 110.0,106.0 L 108.0,106.0 L 109.0,118.0 L 115.0,123.0 L 127.0,128.0 L 124.0,131.0 L 114.0,135.0 L 109.0,136.0 L 96.0,136.0 L 84.0,131.0 L 81.0,129.0 L 81.0,127.0 L 93.0,123.0 L 99.0,118.0 L 100.0,106.0 L 98.0,106.0 L 96.0,101.0 L 96.0,96.0 L 92.0,96.0 L 92.0,78.0 L 97.0,73.0 L 99.0,72.0" fill="#F8F8F8"/>
	<path d="M 45.0,141.0 L 52.0,141.0 L 58.0,145.0 L 61.0,150.0 L 61.0,156.0 L 57.0,162.0 L 52.0,165.0 L 45.0,165.0 L 39.0,161.0 L 37.0,157.0 L 37.0,149.0 L 40.0,144.0 L 45.0,141.0" fill="#F7F7F7"/>
	<path d="M 124.0,159.0 L 131.0,159.0 L 136.0,162.0 L 140.0,168.0 L 140.0,174.0 L 136.0,180.0 L 130.0,183.0 L 124.0,183.0 L 117.0,177.0 L 116.0,175.0 L 116.0,166.0 L 120.0,161.0 L 124.0,159.0" fill="#F7F7F7"/>
	<path d="M 177.0,81.0 L 183.0,81.0 L 189.0,85.0 L 192.0,89.0 L 192.0,96.0 L 189.0,102.0 L 184.0,105.0 L 176.0,105.0 L 171.0,102.0 L 168.0,96.0 L 168.0,90.0 L 172.0,84.0 L 177.0,81.0" fill="#F7F7F7"/>
	<path d="M 29.0,47.0 L 36.0,47.0 L 42.0,50.0 L 45.0,55.0 L 45.0,62.0 L 42.0,67.0 L 36.0,71.0 L 30.0,71.0 L 24.0,67.0 L 21.0,63.0 L 21.0,55.0 L 27.0,48.0 L 29.0,47.0" fill="#F7F7F7"/>
	<path d="M 119.0,9.0 L 127.0,9.0 L 133.0,13.0 L 135.0,17.0 L 135.0,24.0 L 132.0,29.0 L 129.0,32.0 L 120.0,33.0 L 114.0,29.0 L 111.0,23.0 L 112.0,15.0 L 119.0,9.0" fill="#F8F8F8"/>
</svg>
