<?xml version="1.0" ?>
<svg baseProfile="full" height="600px" version="1.1" viewBox="-20.1 -20.1 240.2 240.2" width="600px" xmlns="http://www.w3.org/2000/svg" xmlns:ev="http://www.w3.org/2001/xml-events" xmlns:xlink="http://www.w3.org/1999/xlink">
	<defs/>
	<path d="M 0.0,0.0 L 200.0,0.0 L 200.0,200.0 L 0.0,200.0 L 0.0,0.0" fill="#FDFDFD"/>
	<path d="M 68.0,8.0 L 77.0,8.0 L 85.0,12.0 L 91.0,20.0 L 92.0,23.0 L 92.0,33.0 L 88.0,41.0 L 85.0,45.0 L 88.0,50.0 L 95.0,48.0 L 113.0,48.0 L 126.0,53.0 L 134.0,58.0 L 138.0,56.0 L 146.0,48.0 L 144.0,41.0 L 144.0,31.0 L 148.0,23.0 L 156.0,17.0 L 160.0,16.0 L 169.0,16.0 L 177.0,20.0 L 183.0,28.0 L 184.0,31.0 L 184.0,41.0 L 180.0,49.0 L 172.0,55.0 L 169.0,56.0 L 159.0,56.0 L 152.0,54.0 L 142.0,64.0 L 144.0,69.0 L 149.0,78.0 L 152.0,87.0 L 152.0,102.0 L 150.0,111.0 L 145.0,122.0 L 147.0,126.0 L 158.0,135.0 L 162.0,134.0 L 168.0,132.0 L 177.0,132.0 L 185.0,136.0 L 191.0,144.0 L 192.0,147.0 L 192.0,157.0 L 188.0,165.0 L 180.0,171.0 L 177.0,172.0 L 167.0,172.0 L 159.0,168.0 L 153.0,160.0 L 152.0,157.0 L 152.0,147.0 L 153.0,142.0 L 142.0,133.0 L 137.0,131.0 L 130.0,137.0 L 117.0,143.0 L 110.0,144.0 L 100.0,144.0 L 99.0,154.0 L 103.0,155.0 L 108.0,159.0 L 112.0,167.0 L 112.0,177.0 L 108.0,185.0 L 100.0,191.0 L 97.0,192.0 L 87.0,192.0 L 79.0,188.0 L 73.0,180.0 L 72.0,177.0 L 72.0,167.0 L 76.0,159.0 L 84.0,153.0 L 91.0,152.0 L 92.0,142.0 L 86.0,141.0 L 75.0,135.0 L 65.0,125.0 L 61.0,118.0 L 48.0,120.0 L 48.0,129.0 L 44.0,137.0 L 36.0,143.0 L 33.0,144.0 L 23.0,144.0 L 15.0,140.0 L 9.0,132.0 L 8.0,129.0 L 8.0,119.0 L 12.0,111.0 L 20.0,105.0 L 24.0,104.0 L 33.0,104.0 L 41.0,108.0 L 44.0,111.0 L 44.0,113.0 L 56.0,109.0 L 56.0,87.0 L 60.0,76.0 L 66.0,66.0 L 75.0,57.0 L 80.0,55.0 L 77.0,49.0 L 64.0,47.0 L 56.0,41.0 L 52.0,33.0 L 52.0,23.0 L 56.0,15.0 L 64.0,9.0 L 68.0,8.0" fill="#070707"/>
	<path d="M 98.0,56.0 L 110.0,56.0 L 120.0,59.0 L 130.0,65.0 L 138.0,74.0 L 143.0,85.0 L 144.0,88.0 L 144.0,101.0 L 140.0,114.0 L 134.0,123.0 L 122.0,118.0 L 116.0,116.0 L 116.0,110.0 L 120.0,102.0 L 123.0,97.0 L 123.0,77.0 L 120.0,71.0 L 109.0,65.0 L 98.0,65.0 L 90.0,69.0 L 85.0,77.0 L 85.0,97.0 L 88.0,102.0 L 92.0,110.0 L 92.0,115.0 L 80.0,120.0 L 74.0,123.0 L 68.0,114.0 L 65.0,106.0 L 64.0,102.0 L 64.0,90.0 L 67.0,80.0 L 73.0,70.0 L 82.0,62.0 L 93.0,57.0 L 98.0,56.0" fill="#F9F9F9"/>
	<path d="M 99.0,72.0 L 107.0,72.0 L 109.0,73.0 L 109.0,75.0 L 114.0,76.0 L 116.0,78.0 L 116.0,89.0 L 115.0,93.0 L 116.0,96.0 L 112.0,96.0 L 111.0,104.0 L 110.0,106.0 L 108.0,106.0 L 109.0,118.0 L 115.0,123.0 L 127.0,128.0 L 124.0,131.0 L 114.0,135.0 L 109.0,136.0 L 96.0,136.0 L 84.0,131.0 L 81.0,129.0 L 81.0,127.0 L 93.0,123.0 L 99.0,118.0 L 100.0,106.0 L 98.0,106.0 L 96.0,101.0 L 96.0,96.0 L 92.0,96.0 L 92.0,78.0 L 97.0,73.0 L 99.0,72.0" fill="#F8F8F8"/>
	<path d="M 88.0,160.0 L 95.0,160.0 L 100.0,163.0 L 104.0,168.0 L 104.0,176.0 L 98.0,183.0 L 96.0,184.0 L 88.0,184.0 L 81.0,178.0 L 80.0,175.0 L 80.0,168.0 L 86.0,161.0 L 88.0,160.0" fill="#F7F7F7"/>
	<path d="M 168.0,140.0 L 175.0,140.0 L 180.0,143.0 L 184.0,148.0 L 184.0,156.0 L 178.0,163.0 L 176.0,164.0 L 168.0,164.0 L 161.0,158.0 L 160.0,155.0 L 160.0,148.0 L 166.0,141.0 L 168.0,140.0" fill="#F7F7F7"/>
	<path d="M 24.0,112.0 L 31.0,112.0 L 36.0,115.0 L 40.0,120.0 L 40.0,128.0 L 34.0,135.0 L 32.0,136.0 L 24.0,136.0 L 17.0,130.0 L 16.0,127.0 L 16.0,120.0 L 22.0,113.0 L 24.0,112.0" fill="#F7F7F7"/>
	<path d="M 160.0,24.0 L 167.0,24.0 L 172.0,27.0 L 176.0,32.0 L 176.0,40.0 L 170.0,47.0 L 168.0,48.0 L 160.0,48.0 L 153.0,42.0 L 152.0,39.0 L 152.0,32.0 L 158.0,25.0 L 160.0,24.0" fill="#F7F7F7"/>
	<path d="M 68.0,16.0 L 75.0,16.0 L 80.0,19.0 L 84.0,24.0 L 84.0,32.0 L 78.0,39.0 L 76.0,40.0 L 68.0,40.0 L 61.0,34.0 L 60.0,31.0 L 60.0,24.0 L 66.0,17.0 L 68.0,16.0" fill="#F7F7F7"/>
</svg>
