<?xml version="1.0" ?>
<svg baseProfile="full" height="600px" version="1.1" viewBox="-20.1 -20.1 240.2 240.2" width="600px" xmlns="http://www.w3.org/2000/svg" xmlns:ev="http://www.w3.org/2001/xml-events" xmlns:xlink="http://www.w3.org/1999/xlink">
	<defs/>
	<path d="M 0.0,0.0 L 200.0,0.0 L 200.0,200.0 L 0.0,200.0 L 0.0,0.0" fill="#FCFCFC"/>
	<path d="M 74.0,6.0 L 81.0,6.0 L 90.0,10.0 L 97.0,18.0 L 98.0,21.0 L 98.0,30.0 L 95.0,38.0 L 90.0,43.0 L 91.0,48.0 L 113.0,48.0 L 126.0,53.0 L 135.0,59.0 L 139.0,60.0 L 147.0,53.0 L 149.0,53.0 L 147.0,48.0 L 147.0,37.0 L 151.0,29.0 L 160.0,23.0 L 164.0,22.0 L 171.0,22.0 L 179.0,26.0 L 185.0,33.0 L 187.0,37.0 L 187.0,47.0 L 183.0,55.0 L 177.0,60.0 L 172.0,62.0 L 160.0,62.0 L 154.0,59.0 L 145.0,67.0 L 143.0,67.0 L 149.0,78.0 L 152.0,87.0 L 152.0,102.0 L 150.0,111.0 L 143.0,125.0 L 143.0,127.0 L 151.0,134.0 L 154.0,137.0 L 158.0,136.0 L 161.0,135.0 L 172.0,135.0 L 180.0,139.0 L 186.0,147.0 L 187.0,150.0 L 187.0,159.0 L 183.0,167.0 L 176.0,173.0 L 171.0,175.0 L 162.0,175.0 L 153.0,170.0 L 148.0,163.0 L 147.0,159.0 L 147.0,149.0 L 149.0,144.0 L 137.0,133.0 L 133.0,135.0 L 117.0,143.0 L 110.0,144.0 L 97.0,144.0 L 95.0,153.0 L 100.0,155.0 L 104.0,160.0 L 106.0,164.0 L 106.0,176.0 L 102.0,184.0 L 95.0,189.0 L 92.0,190.0 L 80.0,190.0 L 71.0,184.0 L 67.0,176.0 L 67.0,164.0 L 72.0,156.0 L 79.0,151.0 L 87.0,151.0 L 89.0,141.0 L 83.0,140.0 L 73.0,133.0 L 65.0,125.0 L 59.0,114.0 L 47.0,115.0 L 46.0,124.0 L 42.0,130.0 L 37.0,134.0 L 32.0,136.0 L 22.0,136.0 L 16.0,133.0 L 11.0,128.0 L 7.0,121.0 L 7.0,111.0 L 12.0,102.0 L 19.0,97.0 L 22.0,96.0 L 32.0,96.0 L 40.0,100.0 L 45.0,106.0 L 56.0,105.0 L 56.0,87.0 L 60.0,76.0 L 66.0,66.0 L 75.0,57.0 L 82.0,53.0 L 81.0,47.0 L 72.0,46.0 L 64.0,41.0 L 60.0,36.0 L 58.0,31.0 L 58.0,21.0 L 61.0,15.0 L 66.0,10.0 L 74.0,6.0" fill="#070707"/>
	<path d="M 98.0,56.0 L 110.0,56.0 L 120.0,59.0 L 130.0,65.0 L 138.0,74.0 L 143.0,85.0 L 144.0,88.0 L 144.0,101.0 L 140.0,114.0 L 134.0,123.0 L 122.0,118.0 L 116.0,116.0 L 116.0,110.0 L 120.0,102.0 L 123.0,97.0 L 123.0,77.0 L 120.0,71.0 L 109.0,65.0 L 98.0,65.0 L 90.0,69.0 L 85.0,77.0 L 85.0,97.0 L 88.0,102.0 L 92.0,110.0 L 92.0,115.0 L 80.0,120.0 L 74.0,123.0 L 68.0,114.0 L 65.0,106.0 L 64.0,102.0 L 64.0,90.0 L 67.0,80.0 L 73.0,70.0 L 82.0,62.0 L 93.0,57.0 L 98.0,56.0" fill="#F9F9F9"/>
	<path d="M 99.0,72.0 L 107.0,72.0 L 109.0,73.0 L 109.0,75.0 L 114.0,76.0 L 116.0,78.0 L 116.0,89.0 L 115.0,93.0 L 116.0,96.0 L 112.0,96.0 L 111.0,104.0 L 110.0,106.0 L 108.0,106.0 L 109.0,118.0 L 115.0,123.0 L 127.0,128.0 L 124.0,131.0 L 114.0,135.0 L 109.0,136.0 L 96.0,136.0 L 84.0,131.0 L 81.0,129.0 L 81.0,127.0 L 93.0,123.0 L 99.0,118.0 L 100.0,106.0 L 98.0,106.0 L 96.0,101.0 L 96.0,96.0 L 92.0,96.0 L 92.0,78.0 L 97.0,73.0 L 99.0,72.0" fill="#F8F8F8"/>
	<path d="M 75.0,14.0 L 83.0,15.0 L 88.0,19.0 L 90.0,22.0 L 90.0,30.0 L 86.0,36.0 L 82.0,38.0 L 74.0,38.0 L 68.0,34.0 L 66.0,29.0 L 66.0,22.0 L 71.0,16.0 L 75.0,14.0" fill="#F7F7F7"/>
	<path d="M 162.0,143.0 L 171.0,143.0 L 178.0,149.0 L 179.0,151.0 L 179.0,158.0 L 175.0,164.0 L 170.0,167.0 L 164.0,167.0 L 158.0,163.0 L 155.0,158.0 L 155.0,151.0 L 159.0,145.0 L 162.0,143.0" fill="#F7F7F7"/>
	<path d="M 23.0,104.0 L 30.0,104.0 L 36.0,107.0 L 39.0,112.0 L 39.0,120.0 L 36.0,125.0 L 31.0,128.0 L 23.0,128.0 L 17.0,123.0 L 15.0,119.0 L 15.0,113.0 L 19.0,107.0 L 23.0,104.0" fill="#F7F7F7"/>
	<path d="M 162.0,31.0 L 172.0,31.0 L 177.0,35.0 L 179.0,39.0 L 178.0,48.0 L 173.0,53.0 L 171.0,54.0 L 162.0,54.0 L 157.0,50.0 L 155.0,45.0 L 155.0,38.0 L 160.0,32.0 L 162.0,31.0" fill="#F8F8F8"/>
	<path d="M 82.0,159.0 L 91.0,159.0 L 97.0,164.0 L 98.0,166.0 L 98.0,175.0 L 93.0,181.0 L 91.0,182.0 L 82.0,182.0 L 76.0,177.0 L 75.0,175.0 L 75.0,166.0 L 80.0,160.0 L 82.0,159.0" fill="#FBFBFB"/>
</svg>
