<?xml version="1.0" ?>
<svg baseProfile="full" height="600px" version="1.1" viewBox="-20.1 -20.1 240.2 240.2" width="600px" xmlns="http://www.w3.org/2000/svg" xmlns:ev="http://www.w3.org/2001/xml-events" xmlns:xlink="http://www.w3.org/1999/xlink">
	<defs/>
	<path d="M 0.0,0.0 L 200.0,0.0 L 200.0,200.0 L 0.0,200.0 L 0.0,0.0" fill="#FCFCFC"/>
	<path d="M 136.0,6.0 L 145.0,6.0 L 153.0,10.0 L 158.0,16.0 L 160.0,22.0 L 160.0,30.0 L 157.0,37.0 L 153.0,42.0 L 145.0,46.0 L 135.0,47.0 L 131.0,54.0 L 131.0,56.0 L 139.0,63.0 L 145.0,70.0 L 150.0,80.0 L 152.0,87.0 L 152.0,102.0 L 151.0,106.0 L 160.0,107.0 L 165.0,101.0 L 173.0,97.0 L 182.0,97.0 L 190.0,101.0 L 196.0,108.0 L 198.0,112.0 L 198.0,122.0 L 193.0,131.0 L 186.0,136.0 L 182.0,137.0 L 172.0,137.0 L 164.0,132.0 L 160.0,127.0 L 158.0,123.0 L 158.0,116.0 L 151.0,115.0 L 148.0,114.0 L 146.0,120.0 L 140.0,128.0 L 133.0,135.0 L 117.0,143.0 L 114.0,143.0 L 114.0,152.0 L 123.0,154.0 L 130.0,160.0 L 133.0,166.0 L 133.0,177.0 L 129.0,185.0 L 123.0,190.0 L 119.0,192.0 L 109.0,192.0 L 102.0,189.0 L 97.0,184.0 L 93.0,177.0 L 93.0,168.0 L 97.0,160.0 L 104.0,154.0 L 106.0,154.0 L 105.0,144.0 L 95.0,144.0 L 83.0,140.0 L 73.0,133.0 L 67.0,128.0 L 59.0,133.0 L 59.0,148.0 L 56.0,154.0 L 49.0,160.0 L 44.0,162.0 L 34.0,162.0 L 26.0,157.0 L 21.0,151.0 L 20.0,148.0 L 20.0,135.0 L 24.0,129.0 L 31.0,123.0 L 34.0,122.0 L 45.0,122.0 L 52.0,126.0 L 57.0,124.0 L 62.0,120.0 L 57.0,109.0 L 56.0,105.0 L 56.0,87.0 L 60.0,76.0 L 64.0,69.0 L 63.0,65.0 L 60.0,62.0 L 51.0,65.0 L 43.0,65.0 L 35.0,61.0 L 30.0,55.0 L 28.0,51.0 L 28.0,38.0 L 33.0,30.0 L 39.0,26.0 L 43.0,25.0 L 54.0,25.0 L 63.0,31.0 L 67.0,38.0 L 67.0,51.0 L 66.0,56.0 L 70.0,60.0 L 74.0,58.0 L 84.0,52.0 L 95.0,48.0 L 113.0,48.0 L 119.0,50.0 L 124.0,49.0 L 128.0,41.0 L 124.0,39.0 L 120.0,31.0 L 120.0,21.0 L 124.0,13.0 L 132.0,7.0 L 136.0,6.0" fill="#070707"/>
	<path d="M 98.0,56.0 L 110.0,56.0 L 120.0,59.0 L 130.0,65.0 L 138.0,74.0 L 143.0,85.0 L 144.0,88.0 L 144.0,101.0 L 140.0,114.0 L 134.0,123.0 L 122.0,118.0 L 116.0,116.0 L 116.0,110.0 L 120.0,102.0 L 123.0,97.0 L 123.0,77.0 L 120.0,71.0 L 109.0,65.0 L 98.0,65.0 L 90.0,69.0 L 85.0,77.0 L 85.0,97.0 L 88.0,102.0 L 92.0,110.0 L 92.0,115.0 L 80.0,120.0 L 74.0,123.0 L 68.0,114.0 L 65.0,106.0 L 64.0,102.0 L 64.0,90.0 L 67.0,80.0 L 73.0,70.0 L 82.0,62.0 L 93.0,57.0 L 98.0,56.0" fill="#F9F9F9"/>
	<path d="M 99.0,72.0 L 107.0,72.0 L 109.0,73.0 L 109.0,75.0 L 114.0,76.0 L 116.0,78.0 L 116.0,89.0 L 115.0,93.0 L 116.0,96.0 L 112.0,96.0 L 111.0,104.0 L 110.0,106.0 L 108.0,106.0 L 109.0,118.0 L 115.0,123.0 L 127.0,128.0 L 124.0,131.0 L 114.0,135.0 L 109.0,136.0 L 96.0,136.0 L 84.0,131.0 L 81.0,129.0 L 81.0,127.0 L 93.0,123.0 L 99.0,118.0 L 100.0,106.0 L 98.0,106.0 L 96.0,101.0 L 96.0,96.0 L 92.0,96.0 L 92.0,78.0 L 97.0,73.0 L 99.0,72.0" fill="#F8F8F8"/>
	<path d="M 136.0,14.0 L 144.0,14.0 L 149.0,17.0 L 152.0,22.0 L 152.0,29.0 L 149.0,34.0 L 146.0,37.0 L 143.0,38.0 L 136.0,38.0 L 130.0,33.0 L 128.0,29.0 L 128.0,22.0 L 134.0,15.0 L 136.0,14.0" fill="#F7F7F7"/>
	<path d="M 110.0,160.0 L 119.0,161.0 L 124.0,166.0 L 125.0,168.0 L 125.0,176.0 L 121.0,182.0 L 116.0,184.0 L 109.0,184.0 L 103.0,179.0 L 101.0,175.0 L 101.0,169.0 L 105.0,163.0 L 110.0,160.0" fill="#F7F7F7"/>
	<path d="M 174.0,105.0 L 181.0,105.0 L 187.0,109.0 L 190.0,114.0 L 190.0,120.0 L 186.0,126.0 L 181.0,129.0 L 174.0,129.0 L 168.0,125.0 L 166.0,120.0 L 166.0,113.0 L 172.0,106.0 L 174.0,105.0" fill="#F8F8F8"/>
	<path d="M 43.0,33.0 L 51.0,33.0 L 56.0,36.0 L 59.0,40.0 L 59.0,49.0 L 56.0,54.0 L 50.0,57.0 L 44.0,57.0 L 38.0,53.0 L 36.0,49.0 L 36.0,40.0 L 41.0,34.0 L 43.0,33.0" fill="#F8F8F8"/>
	<path d="M 36.0,130.0 L 45.0,131.0 L 50.0,136.0 L 51.0,137.0 L 51.0,146.0 L 47.0,152.0 L 42.0,154.0 L 36.0,154.0 L 30.0,150.0 L 28.0,147.0 L 28.0,137.0 L 32.0,132.0 L 36.0,130.0" fill="#F9F9F9"/>
</svg>
