<?xml version="1.0" ?>
<svg baseProfile="full" height="600px" version="1.1" viewBox="-19.296000000000003 -19.296000000000003 230.592 230.592" width="600px" xmlns="http://www.w3.org/2000/svg" xmlns:ev="http://www.w3.org/2001/xml-events" xmlns:xlink="http://www.w3.org/1999/xlink">
	<defs/>
	<path d="M 0.0,0.0 L 192.0,0.0 L 192.0,192.0 L 0.0,192.0 L 0.0,0.0" fill="#FCFDFE"/>
	<path d="M 26.0,39.0 L 39.0,39.0 L 49.0,44.0 L 54.0,50.0 L 57.0,56.0 L 57.0,65.0 L 55.0,71.0 L 63.0,74.0 L 85.0,80.0 L 92.0,80.0 L 151.0,62.0 L 155.0,61.0 L 166.0,61.0 L 176.0,64.0 L 185.0,70.0 L 188.0,75.0 L 188.0,77.0 L 152.0,89.0 L 131.0,96.0 L 134.0,98.0 L 162.0,109.0 L 183.0,117.0 L 187.0,119.0 L 185.0,124.0 L 178.0,130.0 L 170.0,133.0 L 153.0,133.0 L 122.0,122.0 L 95.0,112.0 L 91.0,110.0 L 80.0,112.0 L 59.0,117.0 L 53.0,117.0 L 55.0,124.0 L 55.0,131.0 L 51.0,140.0 L 47.0,145.0 L 41.0,149.0 L 35.0,151.0 L 26.0,151.0 L 17.0,148.0 L 8.0,140.0 L 5.0,134.0 L 5.0,120.0 L 9.0,112.0 L 17.0,105.0 L 27.0,102.0 L 48.0,100.0 L 60.0,97.0 L 64.0,95.0 L 56.0,91.0 L 41.0,88.0 L 26.0,86.0 L 16.0,81.0 L 10.0,74.0 L 7.0,67.0 L 7.0,57.0 L 12.0,47.0 L 21.0,41.0 L 26.0,39.0" fill="#07A9F3"/>
	<path d="M 26.0,39.0 L 39.0,39.0 L 49.0,44.0 L 54.0,50.0 L 57.0,56.0 L 57.0,65.0 L 55.0,71.0 L 63.0,74.0 L 85.0,80.0 L 88.0,82.0 L 78.0,86.0 L 68.0,94.0 L 61.0,93.0 L 48.0,89.0 L 26.0,86.0 L 16.0,81.0 L 10.0,74.0 L 7.0,67.0 L 7.0,57.0 L 12.0,47.0 L 21.0,41.0 L 26.0,39.0" fill="#4254B5"/>
	<path d="M 125.0,97.0 L 134.0,98.0 L 162.0,109.0 L 183.0,117.0 L 187.0,119.0 L 185.0,124.0 L 178.0,130.0 L 170.0,133.0 L 153.0,133.0 L 122.0,122.0 L 95.0,112.0 L 91.0,110.0 L 91.0,108.0 L 125.0,97.0" fill="#4152B4"/>
	<path d="M 125.0,97.0 L 134.0,98.0 L 141.0,101.0 L 142.0,104.0 L 132.0,108.0 L 111.0,115.0 L 103.0,115.0 L 91.0,110.0 L 91.0,108.0 L 125.0,97.0" fill="#293895"/>
	<path d="M 26.0,51.0 L 37.0,51.0 L 42.0,55.0 L 44.0,58.0 L 44.0,67.0 L 41.0,72.0 L 38.0,74.0 L 27.0,74.0 L 21.0,69.0 L 19.0,65.0 L 19.0,58.0 L 24.0,52.0 L 26.0,51.0" fill="#F8F9FC"/>
	<path d="M 25.0,115.0 L 36.0,115.0 L 41.0,120.0 L 42.0,122.0 L 41.0,131.0 L 37.0,136.0 L 33.0,138.0 L 26.0,138.0 L 19.0,134.0 L 17.0,129.0 L 18.0,121.0 L 25.0,115.0" fill="#FAFCFE"/>
	<path d="M 88.0,90.0 L 93.0,91.0 L 94.0,96.0 L 92.0,98.0 L 87.0,97.0 L 86.0,92.0 L 88.0,90.0" fill="#263B99"/>
</svg>
