<?xml version="1.0" ?>
<svg baseProfile="full" height="600px" version="1.1" viewBox="-19.296000000000003 -19.296000000000003 230.592 230.592" width="600px" xmlns="http://www.w3.org/2000/svg" xmlns:ev="http://www.w3.org/2001/xml-events" xmlns:xlink="http://www.w3.org/1999/xlink">
	<defs/>
	<path d="M 0.0,0.0 L 192.0,0.0 L 192.0,192.0 L 0.0,192.0 L 0.0,0.0" fill="#FCFDFE"/>
	<path d="M 27.0,44.0 L 35.0,44.0 L 45.0,48.0 L 52.0,55.0 L 55.0,62.0 L 55.0,71.0 L 53.0,76.0 L 64.0,77.0 L 87.0,81.0 L 100.0,79.0 L 151.0,69.0 L 169.0,69.0 L 180.0,73.0 L 188.0,80.0 L 190.0,84.0 L 190.0,87.0 L 179.0,90.0 L 151.0,96.0 L 145.0,96.0 L 145.0,98.0 L 153.0,99.0 L 171.0,104.0 L 188.0,109.0 L 190.0,110.0 L 188.0,116.0 L 180.0,123.0 L 169.0,127.0 L 156.0,127.0 L 141.0,123.0 L 118.0,117.0 L 95.0,111.0 L 93.0,110.0 L 84.0,110.0 L 59.0,113.0 L 51.0,113.0 L 52.0,115.0 L 52.0,126.0 L 49.0,133.0 L 44.0,139.0 L 34.0,144.0 L 22.0,144.0 L 10.0,138.0 L 4.0,130.0 L 2.0,124.0 L 2.0,116.0 L 6.0,106.0 L 14.0,99.0 L 21.0,96.0 L 54.0,95.0 L 56.0,94.0 L 48.0,93.0 L 26.0,92.0 L 17.0,89.0 L 9.0,82.0 L 5.0,72.0 L 5.0,63.0 L 9.0,55.0 L 14.0,50.0 L 23.0,45.0 L 27.0,44.0" fill="#06A9F3"/>
	<path d="M 27.0,44.0 L 35.0,44.0 L 45.0,48.0 L 52.0,55.0 L 55.0,62.0 L 55.0,71.0 L 53.0,76.0 L 64.0,77.0 L 87.0,81.0 L 86.0,83.0 L 79.0,85.0 L 69.0,91.0 L 62.0,94.0 L 26.0,92.0 L 17.0,89.0 L 9.0,82.0 L 5.0,72.0 L 5.0,63.0 L 9.0,55.0 L 14.0,50.0 L 23.0,45.0 L 27.0,44.0" fill="#4254B5"/>
	<path d="M 141.0,97.0 L 149.0,98.0 L 171.0,104.0 L 188.0,109.0 L 190.0,110.0 L 188.0,116.0 L 180.0,123.0 L 169.0,127.0 L 156.0,127.0 L 141.0,123.0 L 118.0,117.0 L 95.0,111.0 L 91.0,108.0 L 113.0,103.0 L 141.0,97.0" fill="#4253B5"/>
	<path d="M 141.0,97.0 L 149.0,98.0 L 163.0,102.0 L 164.0,104.0 L 124.0,114.0 L 119.0,115.0 L 110.0,115.0 L 95.0,111.0 L 91.0,108.0 L 113.0,103.0 L 141.0,97.0" fill="#2A3896"/>
	<path d="M 26.0,56.0 L 35.0,57.0 L 41.0,62.0 L 42.0,64.0 L 42.0,73.0 L 39.0,78.0 L 35.0,80.0 L 26.0,80.0 L 20.0,76.0 L 17.0,71.0 L 17.0,65.0 L 21.0,59.0 L 26.0,56.0" fill="#F8F9FC"/>
	<path d="M 24.0,108.0 L 32.0,108.0 L 37.0,111.0 L 40.0,116.0 L 39.0,124.0 L 34.0,130.0 L 32.0,131.0 L 23.0,131.0 L 18.0,128.0 L 15.0,124.0 L 15.0,116.0 L 21.0,109.0 L 24.0,108.0" fill="#F9FCFE"/>
	<path d="M 88.0,90.0 L 93.0,91.0 L 94.0,96.0 L 92.0,98.0 L 87.0,97.0 L 86.0,92.0 L 88.0,90.0" fill="#263B99"/>
</svg>
