<?xml version="1.0" ?>
<svg baseProfile="full" height="600px" version="1.1" viewBox="-12.06 -12.06 144.12 144.12" width="600px" xmlns="http://www.w3.org/2000/svg" xmlns:ev="http://www.w3.org/2001/xml-events" xmlns:xlink="http://www.w3.org/1999/xlink">
	<defs/>
	<path d="M 0.0,0.0 L 120.0,0.0 L 120.0,120.0 L 0.0,120.0 L 0.0,0.0" fill="#FCFCFC"/>
	<path d="M 35.0,22.0 L 37.0,22.0 L 39.0,34.0 L 43.0,46.0 L 50.0,56.0 L 59.0,64.0 L 71.0,69.0 L 91.0,69.0 L 101.0,66.0 L 104.0,66.0 L 104.0,72.0 L 97.0,86.0 L 89.0,95.0 L 79.0,101.0 L 72.0,104.0 L 65.0,105.0 L 52.0,105.0 L 40.0,101.0 L 29.0,93.0 L 22.0,85.0 L 16.0,72.0 L 15.0,66.0 L 15.0,52.0 L 19.0,41.0 L 25.0,31.0 L 35.0,22.0" fill="#030303"/>
	<path d="M 74.0,0.0 L 79.0,1.0 L 80.0,2.0 L 80.0,8.0 L 86.0,8.0 L 88.0,10.0 L 87.0,15.0 L 86.0,16.0 L 80.0,16.0 L 80.0,22.0 L 78.0,24.0 L 73.0,23.0 L 72.0,22.0 L 72.0,16.0 L 66.0,16.0 L 64.0,14.0 L 65.0,9.0 L 66.0,8.0 L 72.0,8.0 L 72.0,2.0 L 74.0,0.0" fill="#040404"/>
	<path d="M 99.0,36.0 L 102.0,37.0 L 103.0,41.0 L 108.0,43.0 L 107.0,46.0 L 103.0,47.0 L 101.0,52.0 L 98.0,51.0 L 97.0,47.0 L 92.0,45.0 L 93.0,42.0 L 97.0,41.0 L 99.0,36.0" fill="#050505"/>
</svg>
