<?xml version="1.0" ?>
<svg baseProfile="full" height="600px" version="1.1" viewBox="-20.1 -20.1 240.2 240.2" width="600px" xmlns="http://www.w3.org/2000/svg" xmlns:ev="http://www.w3.org/2001/xml-events" xmlns:xlink="http://www.w3.org/1999/xlink">
	<defs/>
	<path d="M 0.0,0.0 L 200.0,0.0 L 200.0,200.0 L 0.0,200.0 L 0.0,0.0" fill="#FDFDFD"/>
	<path d="M 96.0,64.0 L 99.0,64.0 L 105.0,81.0 L 114.0,94.0 L 124.0,103.0 L 140.0,111.0 L 151.0,113.0 L 161.0,114.0 L 159.0,124.0 L 153.0,135.0 L 145.0,144.0 L 133.0,151.0 L 123.0,154.0 L 105.0,154.0 L 92.0,149.0 L 83.0,142.0 L 75.0,133.0 L 71.0,125.0 L 68.0,114.0 L 68.0,100.0 L 72.0,87.0 L 78.0,78.0 L 87.0,69.0 L 96.0,64.0" fill="#FCFCFC"/>
	<path d="M 100.0,54.0 L 106.0,54.0 L 109.0,70.0 L 115.0,82.0 L 121.0,89.0 L 121.0,91.0 L 125.0,93.0 L 133.0,99.0 L 141.0,103.0 L 152.0,105.0 L 170.0,105.0 L 169.0,118.0 L 165.0,130.0 L 160.0,139.0 L 151.0,149.0 L 143.0,155.0 L 132.0,160.0 L 124.0,162.0 L 104.0,162.0 L 92.0,158.0 L 82.0,152.0 L 72.0,143.0 L 65.0,132.0 L 61.0,120.0 L 60.0,115.0 L 60.0,97.0 L 64.0,85.0 L 70.0,75.0 L 79.0,65.0 L 90.0,58.0 L 100.0,54.0 M 96.0,64.0 L 86.0,70.0 L 76.0,80.0 L 70.0,92.0 L 68.0,100.0 L 68.0,114.0 L 72.0,128.0 L 79.0,138.0 L 86.0,145.0 L 96.0,151.0 L 105.0,154.0 L 123.0,154.0 L 133.0,151.0 L 145.0,144.0 L 154.0,134.0 L 159.0,124.0 L 161.0,114.0 L 143.0,112.0 L 131.0,107.0 L 120.0,100.0 L 113.0,93.0 L 105.0,81.0 L 99.0,64.0 L 96.0,64.0" fill="#080808"/>
	<path d="M 62.0,24.0 L 67.0,25.0 L 68.0,26.0 L 68.0,32.0 L 74.0,32.0 L 76.0,34.0 L 75.0,39.0 L 74.0,40.0 L 68.0,40.0 L 68.0,46.0 L 66.0,48.0 L 61.0,47.0 L 60.0,46.0 L 60.0,40.0 L 54.0,40.0 L 52.0,38.0 L 53.0,33.0 L 54.0,32.0 L 60.0,32.0 L 60.0,26.0 L 62.0,24.0" fill="#040404"/>
	<path d="M 30.0,74.0 L 35.0,75.0 L 38.0,78.0 L 37.0,83.0 L 34.0,86.0 L 29.0,85.0 L 26.0,82.0 L 27.0,77.0 L 30.0,74.0" fill="#070707"/>
</svg>
