<?xml version="1.0" ?>
<svg baseProfile="full" height="600px" version="1.1" viewBox="-12.06 -12.06 144.12 144.12" width="600px" xmlns="http://www.w3.org/2000/svg" xmlns:ev="http://www.w3.org/2001/xml-events" xmlns:xlink="http://www.w3.org/1999/xlink">
	<defs/>
	<path d="M 0.0,0.0 L 120.0,0.0 L 120.0,120.0 L 0.0,120.0 L 0.0,0.0" fill="#FCFCFC"/>
	<path d="M 42.0,17.0 L 45.0,17.0 L 44.0,29.0 L 44.0,39.0 L 46.0,49.0 L 51.0,61.0 L 60.0,71.0 L 72.0,76.0 L 79.0,77.0 L 97.0,77.0 L 103.0,76.0 L 101.0,82.0 L 95.0,91.0 L 86.0,99.0 L 75.0,104.0 L 68.0,106.0 L 52.0,106.0 L 42.0,103.0 L 33.0,98.0 L 24.0,90.0 L 18.0,80.0 L 14.0,68.0 L 14.0,52.0 L 17.0,42.0 L 22.0,33.0 L 30.0,24.0 L 40.0,18.0 L 42.0,17.0" fill="#020202"/>
	<path d="M 98.0,28.0 L 103.0,29.0 L 104.0,30.0 L 105.0,38.0 L 106.0,39.0 L 114.0,40.0 L 116.0,42.0 L 115.0,47.0 L 114.0,48.0 L 106.0,49.0 L 105.0,50.0 L 104.0,58.0 L 102.0,60.0 L 97.0,59.0 L 96.0,58.0 L 95.0,50.0 L 94.0,49.0 L 86.0,48.0 L 84.0,46.0 L 85.0,41.0 L 86.0,40.0 L 94.0,39.0 L 95.0,38.0 L 96.0,30.0 L 98.0,28.0" fill="#040404"/>
	<path d="M 74.0,0.0 L 79.0,1.0 L 80.0,2.0 L 80.0,8.0 L 86.0,8.0 L 88.0,10.0 L 87.0,15.0 L 86.0,16.0 L 80.0,16.0 L 80.0,22.0 L 78.0,24.0 L 73.0,23.0 L 72.0,22.0 L 72.0,16.0 L 66.0,16.0 L 64.0,14.0 L 65.0,9.0 L 66.0,8.0 L 72.0,8.0 L 72.0,2.0 L 74.0,0.0" fill="#040404"/>
</svg>
