<?xml version="1.0" ?>
<svg baseProfile="full" height="600px" version="1.1" viewBox="-20.1 -20.1 240.2 240.2" width="600px" xmlns="http://www.w3.org/2000/svg" xmlns:ev="http://www.w3.org/2001/xml-events" xmlns:xlink="http://www.w3.org/1999/xlink">
	<defs/>
	<path d="M 0.0,0.0 L 200.0,0.0 L 200.0,200.0 L 0.0,200.0 L 0.0,0.0" fill="#FDFDFD"/>
	<path d="M 101.0,62.0 L 104.0,62.0 L 106.0,78.0 L 113.0,94.0 L 121.0,104.0 L 132.0,112.0 L 143.0,117.0 L 154.0,119.0 L 162.0,120.0 L 161.0,126.0 L 156.0,135.0 L 147.0,145.0 L 138.0,151.0 L 125.0,156.0 L 108.0,156.0 L 98.0,153.0 L 87.0,147.0 L 77.0,137.0 L 70.0,123.0 L 68.0,114.0 L 68.0,101.0 L 71.0,90.0 L 77.0,79.0 L 87.0,69.0 L 101.0,62.0" fill="#FBFBFB"/>
	<path d="M 108.0,52.0 L 113.0,52.0 L 113.0,70.0 L 116.0,82.0 L 122.0,93.0 L 131.0,102.0 L 144.0,109.0 L 152.0,111.0 L 172.0,111.0 L 171.0,121.0 L 166.0,134.0 L 160.0,143.0 L 154.0,150.0 L 144.0,157.0 L 130.0,163.0 L 122.0,164.0 L 110.0,164.0 L 99.0,162.0 L 83.0,154.0 L 73.0,145.0 L 66.0,134.0 L 61.0,122.0 L 60.0,117.0 L 60.0,102.0 L 62.0,91.0 L 70.0,75.0 L 78.0,66.0 L 88.0,59.0 L 99.0,54.0 L 108.0,52.0 M 101.0,62.0 L 87.0,69.0 L 77.0,79.0 L 70.0,92.0 L 68.0,101.0 L 68.0,114.0 L 71.0,126.0 L 77.0,137.0 L 87.0,147.0 L 100.0,154.0 L 108.0,156.0 L 125.0,156.0 L 138.0,151.0 L 147.0,145.0 L 154.0,138.0 L 160.0,128.0 L 162.0,123.0 L 162.0,120.0 L 146.0,118.0 L 134.0,113.0 L 123.0,106.0 L 115.0,97.0 L 108.0,83.0 L 105.0,73.0 L 104.0,62.0 L 101.0,62.0" fill="#070707"/>
	<path d="M 62.0,24.0 L 67.0,25.0 L 68.0,26.0 L 68.0,32.0 L 74.0,32.0 L 76.0,34.0 L 75.0,39.0 L 74.0,40.0 L 68.0,40.0 L 68.0,46.0 L 66.0,48.0 L 61.0,47.0 L 60.0,46.0 L 60.0,40.0 L 54.0,40.0 L 52.0,38.0 L 53.0,33.0 L 54.0,32.0 L 60.0,32.0 L 60.0,26.0 L 62.0,24.0" fill="#040404"/>
	<path d="M 30.0,72.0 L 35.0,73.0 L 36.0,76.0 L 40.0,78.0 L 39.0,83.0 L 36.0,84.0 L 34.0,88.0 L 29.0,87.0 L 28.0,84.0 L 24.0,82.0 L 25.0,77.0 L 28.0,76.0 L 30.0,72.0" fill="#080808"/>
</svg>
