<?xml version="1.0" ?>
<svg baseProfile="full" height="600px" version="1.1" viewBox="-20.1 -20.1 240.2 240.2" width="600px" xmlns="http://www.w3.org/2000/svg" xmlns:ev="http://www.w3.org/2001/xml-events" xmlns:xlink="http://www.w3.org/1999/xlink">
	<defs/>
	<path d="M 0.0,0.0 L 200.0,0.0 L 200.0,200.0 L 0.0,200.0 L 0.0,0.0" fill="#FDFDFD"/>
	<path d="M 103.0,66.0 L 112.0,66.0 L 122.0,70.0 L 131.0,77.0 L 138.0,88.0 L 140.0,94.0 L 140.0,109.0 L 136.0,120.0 L 130.0,128.0 L 123.0,134.0 L 110.0,139.0 L 97.0,139.0 L 86.0,135.0 L 77.0,128.0 L 70.0,118.0 L 68.0,112.0 L 69.0,103.0 L 75.0,92.0 L 84.0,81.0 L 94.0,72.0 L 103.0,66.0" fill="#FBFBFB"/>
	<path d="M 102.0,58.0 L 110.0,58.0 L 123.0,62.0 L 132.0,68.0 L 140.0,76.0 L 146.0,87.0 L 148.0,94.0 L 148.0,110.0 L 143.0,124.0 L 136.0,133.0 L 128.0,140.0 L 117.0,145.0 L 114.0,146.0 L 95.0,146.0 L 85.0,143.0 L 74.0,136.0 L 67.0,128.0 L 62.0,118.0 L 61.0,115.0 L 61.0,102.0 L 67.0,90.0 L 74.0,81.0 L 80.0,74.0 L 91.0,65.0 L 102.0,58.0 M 103.0,66.0 L 92.0,74.0 L 81.0,84.0 L 73.0,95.0 L 68.0,106.0 L 69.0,115.0 L 73.0,123.0 L 80.0,131.0 L 88.0,136.0 L 97.0,139.0 L 110.0,139.0 L 123.0,134.0 L 133.0,125.0 L 139.0,113.0 L 140.0,109.0 L 140.0,94.0 L 136.0,84.0 L 129.0,75.0 L 118.0,68.0 L 112.0,66.0 L 103.0,66.0" fill="#080808"/>
	<path d="M 59.0,26.0 L 64.0,26.0 L 69.0,33.0 L 68.0,40.0 L 62.0,41.0 L 59.0,38.0 L 58.0,27.0 L 59.0,26.0" fill="#070707"/>
	<path d="M 169.0,117.0 L 176.0,118.0 L 181.0,121.0 L 180.0,126.0 L 174.0,127.0 L 168.0,124.0 L 167.0,119.0 L 169.0,117.0" fill="#0F0F0F"/>
	<path d="M 22.0,73.0 L 31.0,75.0 L 33.0,77.0 L 32.0,82.0 L 31.0,83.0 L 23.0,82.0 L 19.0,79.0 L 20.0,74.0 L 22.0,73.0" fill="#0E0E0E"/>
	<path d="M 133.0,161.0 L 139.0,162.0 L 142.0,168.0 L 142.0,173.0 L 141.0,174.0 L 136.0,174.0 L 131.0,167.0 L 132.0,162.0 L 133.0,161.0" fill="#0C0C0C"/>
	<path d="M 121.0,19.0 L 126.0,20.0 L 127.0,25.0 L 124.0,32.0 L 119.0,33.0 L 117.0,31.0 L 118.0,23.0 L 121.0,19.0" fill="#0C0C0C"/>
	<path d="M 77.0,167.0 L 82.0,168.0 L 83.0,173.0 L 80.0,180.0 L 76.0,181.0 L 73.0,178.0 L 75.0,169.0 L 77.0,167.0" fill="#0C0C0C"/>
	<path d="M 33.0,131.0 L 38.0,132.0 L 39.0,137.0 L 34.0,141.0 L 27.0,142.0 L 26.0,141.0 L 26.0,136.0 L 33.0,131.0" fill="#0A0A0A"/>
	<path d="M 168.0,58.0 L 173.0,58.0 L 174.0,59.0 L 174.0,64.0 L 167.0,69.0 L 162.0,68.0 L 161.0,63.0 L 166.0,59.0 L 168.0,58.0" fill="#0A0A0A"/>
</svg>
