<?xml version="1.0" ?>
<svg baseProfile="full" height="600px" version="1.1" viewBox="-12.06 -12.06 144.12 144.12" width="600px" xmlns="http://www.w3.org/2000/svg" xmlns:ev="http://www.w3.org/2001/xml-events" xmlns:xlink="http://www.w3.org/1999/xlink">
	<defs/>
	<path d="M 0.0,0.0 L 120.0,0.0 L 120.0,120.0 L 0.0,120.0 L 0.0,0.0" fill="#FCFCFC"/>
	<path d="M 47.0,29.0 L 63.0,29.0 L 73.0,34.0 L 81.0,43.0 L 84.0,50.0 L 84.0,66.0 L 79.0,76.0 L 70.0,84.0 L 63.0,87.0 L 57.0,87.0 L 46.0,78.0 L 39.0,71.0 L 35.0,63.0 L 33.0,58.0 L 31.0,48.0 L 30.0,42.0 L 37.0,34.0 L 47.0,29.0" fill="#030303"/>
	<path d="M 58.0,4.0 L 63.0,5.0 L 64.0,6.0 L 64.0,12.0 L 62.0,14.0 L 57.0,13.0 L 56.0,12.0 L 56.0,6.0 L 58.0,4.0" fill="#0C0C0C"/>
	<path d="M 94.0,20.0 L 98.0,21.0 L 100.0,23.0 L 99.0,27.0 L 97.0,29.0 L 93.0,28.0 L 91.0,26.0 L 92.0,22.0 L 94.0,20.0" fill="#1A1A1A"/>
	<path d="M 58.0,106.0 L 63.0,107.0 L 64.0,112.0 L 63.0,114.0 L 57.0,114.0 L 56.0,108.0 L 58.0,106.0" fill="#0F0F0F"/>
	<path d="M 21.0,93.0 L 26.0,93.0 L 27.0,94.0 L 27.0,99.0 L 25.0,101.0 L 20.0,100.0 L 19.0,95.0 L 21.0,93.0" fill="#121212"/>
	<path d="M 108.0,56.0 L 114.0,57.0 L 114.0,63.0 L 108.0,64.0 L 106.0,62.0 L 107.0,57.0 L 108.0,56.0" fill="#0F0F0F"/>
	<path d="M 21.0,19.0 L 26.0,20.0 L 27.0,21.0 L 27.0,26.0 L 26.0,27.0 L 21.0,27.0 L 19.0,25.0 L 20.0,20.0 L 21.0,19.0" fill="#121212"/>
	<path d="M 6.0,56.0 L 11.0,57.0 L 12.0,62.0 L 10.0,64.0 L 5.0,63.0 L 4.0,58.0 L 6.0,56.0" fill="#080808"/>
	<path d="M 93.0,92.0 L 98.0,92.0 L 100.0,94.0 L 99.0,98.0 L 97.0,100.0 L 93.0,99.0 L 92.0,98.0 L 92.0,93.0 L 93.0,92.0" fill="#0E0E0E"/>
</svg>
