<?xml version="1.0" ?>
<svg baseProfile="full" height="600px" version="1.1" viewBox="-20.1 -20.1 240.2 240.2" width="600px" xmlns="http://www.w3.org/2000/svg" xmlns:ev="http://www.w3.org/2001/xml-events" xmlns:xlink="http://www.w3.org/1999/xlink">
	<defs/>
	<path d="M 0.0,0.0 L 200.0,0.0 L 200.0,200.0 L 0.0,200.0 L 0.0,0.0" fill="#FDFDFD"/>
	<path d="M 92.0,66.0 L 96.0,68.0 L 103.0,77.0 L 109.0,84.0 L 122.0,94.0 L 137.0,102.0 L 147.0,105.0 L 155.0,106.0 L 155.0,114.0 L 151.0,126.0 L 145.0,135.0 L 136.0,143.0 L 128.0,147.0 L 123.0,149.0 L 117.0,150.0 L 104.0,150.0 L 92.0,146.0 L 82.0,139.0 L 74.0,130.0 L 70.0,122.0 L 68.0,114.0 L 68.0,97.0 L 72.0,86.0 L 78.0,77.0 L 87.0,69.0 L 92.0,66.0" fill="#FCFCFC"/>
	<path d="M 93.0,57.0 L 98.0,58.0 L 106.0,68.0 L 113.0,76.0 L 123.0,85.0 L 137.0,93.0 L 144.0,96.0 L 159.0,98.0 L 163.0,100.0 L 163.0,115.0 L 159.0,128.0 L 153.0,138.0 L 143.0,148.0 L 132.0,154.0 L 120.0,158.0 L 103.0,158.0 L 90.0,154.0 L 79.0,147.0 L 69.0,137.0 L 62.0,123.0 L 60.0,117.0 L 60.0,96.0 L 63.0,86.0 L 69.0,75.0 L 75.0,68.0 L 88.0,59.0 L 93.0,57.0 M 92.0,66.0 L 82.0,73.0 L 74.0,82.0 L 70.0,90.0 L 68.0,97.0 L 68.0,114.0 L 71.0,124.0 L 77.0,134.0 L 84.0,141.0 L 95.0,147.0 L 104.0,150.0 L 117.0,150.0 L 125.0,148.0 L 134.0,144.0 L 142.0,138.0 L 149.0,130.0 L 154.0,118.0 L 155.0,114.0 L 155.0,106.0 L 143.0,104.0 L 131.0,99.0 L 119.0,92.0 L 105.0,80.0 L 94.0,66.0 L 92.0,66.0" fill="#080808"/>
	<path d="M 62.0,25.0 L 67.0,26.0 L 68.0,27.0 L 68.0,32.0 L 73.0,32.0 L 75.0,34.0 L 74.0,39.0 L 73.0,40.0 L 68.0,40.0 L 68.0,45.0 L 66.0,47.0 L 61.0,46.0 L 60.0,45.0 L 60.0,40.0 L 55.0,40.0 L 53.0,38.0 L 54.0,33.0 L 55.0,32.0 L 60.0,32.0 L 60.0,27.0 L 62.0,25.0" fill="#0B0B0B"/>
	<path d="M 29.0,76.0 L 35.0,76.0 L 36.0,77.0 L 36.0,83.0 L 35.0,84.0 L 29.0,84.0 L 28.0,83.0 L 28.0,77.0 L 29.0,76.0" fill="#040404"/>
</svg>
