<?xml version="1.0" ?>
<svg baseProfile="full" height="600px" version="1.1" viewBox="-12.06 -12.06 144.12 144.12" width="600px" xmlns="http://www.w3.org/2000/svg" xmlns:ev="http://www.w3.org/2001/xml-events" xmlns:xlink="http://www.w3.org/1999/xlink">
	<defs/>
	<path d="M 0.0,0.0 L 120.0,0.0 L 120.0,120.0 L 0.0,120.0 L 0.0,0.0" fill="#FCFBFB"/>
	<path d="M 55.0,47.0 L 64.0,47.0 L 72.0,51.0 L 77.0,58.0 L 79.0,74.0 L 79.0,79.0 L 92.0,79.0 L 92.0,65.0 L 94.0,63.0 L 99.0,64.0 L 100.0,67.0 L 106.0,67.0 L 108.0,69.0 L 108.0,79.0 L 114.0,79.0 L 116.0,81.0 L 115.0,86.0 L 114.0,87.0 L 108.0,87.0 L 108.0,97.0 L 106.0,99.0 L 100.0,99.0 L 98.0,103.0 L 93.0,102.0 L 92.0,101.0 L 92.0,87.0 L 80.0,87.0 L 78.0,91.0 L 76.0,91.0 L 76.0,106.0 L 74.0,108.0 L 69.0,107.0 L 67.0,104.0 L 66.0,93.0 L 62.0,88.0 L 57.0,89.0 L 54.0,93.0 L 52.0,106.0 L 50.0,108.0 L 45.0,107.0 L 44.0,106.0 L 44.0,91.0 L 40.0,89.0 L 40.0,87.0 L 28.0,87.0 L 28.0,101.0 L 26.0,103.0 L 21.0,102.0 L 20.0,99.0 L 14.0,99.0 L 12.0,97.0 L 12.0,87.0 L 6.0,87.0 L 4.0,85.0 L 5.0,80.0 L 6.0,79.0 L 12.0,79.0 L 12.0,69.0 L 14.0,67.0 L 20.0,67.0 L 22.0,63.0 L 27.0,64.0 L 28.0,65.0 L 28.0,79.0 L 41.0,79.0 L 41.0,71.0 L 43.0,58.0 L 49.0,50.0 L 55.0,47.0" fill="#030303"/>
	<path d="M 56.0,15.0 L 64.0,15.0 L 70.0,19.0 L 72.0,23.0 L 72.0,30.0 L 69.0,35.0 L 66.0,38.0 L 63.0,39.0 L 56.0,39.0 L 49.0,33.0 L 48.0,30.0 L 48.0,23.0 L 52.0,17.0 L 56.0,15.0" fill="#060606"/>
</svg>
