<?xml version="1.0" ?>
<svg baseProfile="full" height="600px" version="1.1" viewBox="-19.296000000000003 -19.296000000000003 230.592 230.592" width="600px" xmlns="http://www.w3.org/2000/svg" xmlns:ev="http://www.w3.org/2001/xml-events" xmlns:xlink="http://www.w3.org/1999/xlink">
	<defs/>
	<path d="M 0.0,0.0 L 192.0,0.0 L 192.0,192.0 L 0.0,192.0 L 0.0,0.0" fill="#FDFDFD"/>
	<path d="M 74.0,70.0 L 88.0,70.0 L 91.0,82.0 L 93.0,85.0 L 99.0,85.0 L 103.0,76.0 L 104.0,70.0 L 117.0,70.0 L 123.0,74.0 L 125.0,78.0 L 127.0,106.0 L 127.0,118.0 L 144.0,118.0 L 144.0,96.0 L 146.0,94.0 L 153.0,94.0 L 157.0,95.0 L 158.0,94.0 L 165.0,94.0 L 168.0,96.0 L 168.0,118.0 L 180.0,118.0 L 180.0,126.0 L 168.0,126.0 L 168.0,148.0 L 166.0,150.0 L 158.0,150.0 L 155.0,148.0 L 155.0,150.0 L 145.0,150.0 L 144.0,148.0 L 144.0,127.0 L 128.0,127.0 L 127.0,132.0 L 123.0,134.0 L 126.0,161.0 L 126.0,172.0 L 121.0,176.0 L 114.0,175.0 L 111.0,171.0 L 106.0,147.0 L 103.0,135.0 L 100.0,126.0 L 92.0,126.0 L 89.0,135.0 L 88.0,136.0 L 70.0,136.0 L 70.0,134.0 L 66.0,133.0 L 64.0,131.0 L 64.0,127.0 L 48.0,127.0 L 48.0,148.0 L 47.0,150.0 L 37.0,150.0 L 37.0,148.0 L 34.0,150.0 L 26.0,150.0 L 24.0,148.0 L 24.0,126.0 L 12.0,126.0 L 12.0,118.0 L 24.0,118.0 L 24.0,96.0 L 26.0,94.0 L 33.0,94.0 L 37.0,95.0 L 38.0,94.0 L 45.0,94.0 L 48.0,96.0 L 48.0,118.0 L 65.0,118.0 L 65.0,105.0 L 67.0,77.0 L 72.0,71.0 L 74.0,70.0" fill="#E55244"/>
	<path d="M 108.0,70.0 L 117.0,70.0 L 123.0,74.0 L 125.0,78.0 L 127.0,106.0 L 127.0,118.0 L 144.0,118.0 L 144.0,96.0 L 146.0,94.0 L 153.0,94.0 L 157.0,95.0 L 158.0,94.0 L 165.0,94.0 L 168.0,96.0 L 168.0,118.0 L 180.0,118.0 L 180.0,126.0 L 168.0,126.0 L 168.0,148.0 L 166.0,150.0 L 158.0,150.0 L 155.0,148.0 L 155.0,150.0 L 145.0,150.0 L 144.0,148.0 L 144.0,127.0 L 128.0,127.0 L 127.0,132.0 L 123.0,134.0 L 126.0,161.0 L 126.0,172.0 L 121.0,176.0 L 114.0,175.0 L 111.0,171.0 L 106.0,147.0 L 104.0,136.0 L 122.0,136.0 L 122.0,134.0 L 118.0,133.0 L 116.0,130.0 L 115.0,89.0 L 110.0,82.0 L 108.0,76.0 L 108.0,70.0" fill="#FCBA5B"/>
	<path d="M 84.0,70.0 L 88.0,70.0 L 91.0,82.0 L 93.0,85.0 L 99.0,85.0 L 103.0,76.0 L 104.0,70.0 L 108.0,70.0 L 111.0,82.0 L 116.0,89.0 L 117.0,130.0 L 119.0,133.0 L 122.0,134.0 L 122.0,136.0 L 104.0,136.0 L 100.0,128.0 L 100.0,126.0 L 92.0,126.0 L 89.0,135.0 L 88.0,136.0 L 70.0,136.0 L 70.0,134.0 L 75.0,131.0 L 76.0,90.0 L 81.0,82.0 L 84.0,70.0" fill="#8F79B6"/>
	<path d="M 146.0,94.0 L 153.0,94.0 L 157.0,95.0 L 158.0,94.0 L 165.0,94.0 L 168.0,96.0 L 168.0,118.0 L 180.0,118.0 L 180.0,126.0 L 168.0,126.0 L 168.0,148.0 L 166.0,150.0 L 158.0,150.0 L 155.0,148.0 L 155.0,150.0 L 145.0,150.0 L 144.0,148.0 L 144.0,96.0 L 146.0,94.0" fill="#E55244"/>
	<path d="M 74.0,70.0 L 84.0,70.0 L 82.0,82.0 L 77.0,90.0 L 76.0,131.0 L 73.0,134.0 L 67.0,134.0 L 64.0,131.0 L 64.0,127.0 L 48.0,127.0 L 48.0,118.0 L 65.0,118.0 L 65.0,105.0 L 67.0,77.0 L 72.0,71.0 L 74.0,70.0" fill="#FDBA5B"/>
	<path d="M 92.0,30.0 L 99.0,30.0 L 107.0,34.0 L 111.0,39.0 L 112.0,43.0 L 112.0,50.0 L 108.0,58.0 L 101.0,62.0 L 90.0,62.0 L 84.0,58.0 L 80.0,50.0 L 80.0,42.0 L 84.0,35.0 L 92.0,30.0" fill="#FEB84D"/>
	<path d="M 146.0,94.0 L 153.0,94.0 L 157.0,97.0 L 157.0,148.0 L 155.0,148.0 L 155.0,150.0 L 145.0,150.0 L 144.0,148.0 L 144.0,96.0 L 146.0,94.0" fill="#F77650"/>
	<path d="M 38.0,94.0 L 45.0,94.0 L 48.0,96.0 L 48.0,148.0 L 47.0,150.0 L 37.0,150.0 L 36.0,148.0 L 35.0,96.0 L 38.0,94.0" fill="#F77650"/>
	<path d="M 104.0,136.0 L 122.0,136.0 L 124.0,145.0 L 126.0,161.0 L 126.0,172.0 L 121.0,176.0 L 114.0,175.0 L 111.0,171.0 L 106.0,147.0 L 104.0,136.0" fill="#FEBB5A"/>
	<path d="M 70.0,136.0 L 88.0,136.0 L 83.0,164.0 L 80.0,173.0 L 76.0,176.0 L 69.0,175.0 L 66.0,171.0 L 66.0,162.0 L 68.0,144.0 L 70.0,136.0" fill="#FEBB5A"/>
	<path d="M 76.0,118.0 L 116.0,118.0 L 117.0,130.0 L 119.0,133.0 L 122.0,134.0 L 122.0,136.0 L 104.0,136.0 L 100.0,128.0 L 100.0,126.0 L 92.0,126.0 L 89.0,135.0 L 88.0,136.0 L 70.0,136.0 L 70.0,134.0 L 75.0,131.0 L 76.0,118.0" fill="#627F8E"/>
	<path d="M 88.0,70.0 L 104.0,70.0 L 103.0,79.0 L 100.0,85.0 L 99.0,86.0 L 93.0,86.0 L 90.0,82.0 L 88.0,76.0 L 88.0,70.0" fill="#FBBA5D"/>
	<path d="M 100.0,126.0 L 116.0,126.0 L 119.0,133.0 L 122.0,134.0 L 122.0,136.0 L 104.0,136.0 L 100.0,128.0 L 100.0,126.0" fill="#2CA598"/>
	<path d="M 76.0,126.0 L 92.0,126.0 L 89.0,135.0 L 88.0,136.0 L 70.0,136.0 L 70.0,134.0 L 75.0,131.0 L 76.0,126.0" fill="#4FB3A9"/>
	<path d="M 128.0,118.0 L 144.0,118.0 L 144.0,127.0 L 128.0,127.0 L 128.0,118.0" fill="#96AAB3"/>
	<path d="M 48.0,118.0 L 64.0,118.0 L 64.0,127.0 L 48.0,127.0 L 48.0,118.0" fill="#96AAB3"/>
	<path d="M 168.0,118.0 L 180.0,118.0 L 180.0,126.0 L 168.0,126.0 L 168.0,118.0" fill="#668390"/>
	<path d="M 12.0,118.0 L 24.0,118.0 L 24.0,126.0 L 12.0,126.0 L 12.0,118.0" fill="#668390"/>
	<path d="M 136.0,119.0 L 144.0,119.0 L 144.0,126.0 L 136.0,126.0 L 136.0,119.0" fill="#607E8B"/>
	<path d="M 48.0,119.0 L 56.0,119.0 L 56.0,126.0 L 48.0,126.0 L 48.0,119.0" fill="#607E8B"/>
</svg>
