<?xml version="1.0" ?>
<svg baseProfile="full" height="600px" version="1.1" viewBox="-12.06 -12.06 144.12 144.12" width="600px" xmlns="http://www.w3.org/2000/svg" xmlns:ev="http://www.w3.org/2001/xml-events" xmlns:xlink="http://www.w3.org/1999/xlink">
	<defs/>
	<path d="M 0.0,0.0 L 120.0,0.0 L 120.0,120.0 L 0.0,120.0 L 0.0,0.0" fill="#FCFBFB"/>
	<path d="M 56.0,42.0 L 63.0,42.0 L 70.0,45.0 L 75.0,50.0 L 77.0,54.0 L 79.0,69.0 L 79.0,74.0 L 92.0,74.0 L 92.0,60.0 L 94.0,58.0 L 99.0,59.0 L 100.0,62.0 L 106.0,62.0 L 108.0,64.0 L 108.0,74.0 L 114.0,74.0 L 116.0,76.0 L 115.0,81.0 L 114.0,82.0 L 108.0,82.0 L 108.0,92.0 L 106.0,94.0 L 100.0,94.0 L 98.0,98.0 L 93.0,97.0 L 92.0,96.0 L 92.0,82.0 L 80.0,82.0 L 78.0,86.0 L 74.0,86.0 L 76.0,97.0 L 76.0,106.0 L 74.0,108.0 L 69.0,107.0 L 66.0,99.0 L 64.0,91.0 L 61.0,83.0 L 59.0,83.0 L 55.0,93.0 L 52.0,106.0 L 50.0,108.0 L 45.0,107.0 L 44.0,106.0 L 44.0,97.0 L 46.0,86.0 L 41.0,85.0 L 40.0,82.0 L 28.0,82.0 L 28.0,96.0 L 26.0,98.0 L 21.0,97.0 L 20.0,94.0 L 14.0,94.0 L 12.0,92.0 L 12.0,82.0 L 6.0,82.0 L 4.0,80.0 L 5.0,75.0 L 6.0,74.0 L 12.0,74.0 L 12.0,64.0 L 14.0,62.0 L 20.0,62.0 L 22.0,58.0 L 27.0,59.0 L 28.0,60.0 L 28.0,74.0 L 41.0,74.0 L 42.0,58.0 L 46.0,48.0 L 53.0,43.0 L 56.0,42.0" fill="#040404"/>
	<path d="M 56.0,10.0 L 63.0,10.0 L 69.0,14.0 L 72.0,18.0 L 72.0,25.0 L 69.0,31.0 L 64.0,34.0 L 55.0,34.0 L 50.0,30.0 L 48.0,25.0 L 48.0,18.0 L 54.0,11.0 L 56.0,10.0" fill="#060606"/>
</svg>
