<?xml version="1.0" ?>
<svg baseProfile="full" height="600px" version="1.1" viewBox="-20.1 -20.1 240.2 240.2" width="600px" xmlns="http://www.w3.org/2000/svg" xmlns:ev="http://www.w3.org/2001/xml-events" xmlns:xlink="http://www.w3.org/1999/xlink">
	<defs/>
	<path d="M 0.0,0.0 L 200.0,0.0 L 200.0,200.0 L 0.0,200.0 L 0.0,0.0" fill="#FDFDFD"/>
	<path d="M 76.0,56.0 L 123.0,56.0 L 133.0,61.0 L 139.0,70.0 L 140.0,72.0 L 140.0,120.0 L 156.0,120.0 L 156.0,94.0 L 158.0,92.0 L 163.0,93.0 L 164.0,94.0 L 164.0,154.0 L 162.0,156.0 L 157.0,155.0 L 156.0,154.0 L 156.0,128.0 L 139.0,128.0 L 137.0,133.0 L 131.0,136.0 L 124.0,136.0 L 117.0,130.0 L 117.0,128.0 L 83.0,128.0 L 81.0,133.0 L 75.0,136.0 L 68.0,136.0 L 61.0,130.0 L 61.0,128.0 L 44.0,128.0 L 44.0,154.0 L 42.0,156.0 L 37.0,155.0 L 36.0,154.0 L 36.0,94.0 L 38.0,92.0 L 43.0,93.0 L 44.0,94.0 L 44.0,120.0 L 60.0,120.0 L 60.0,72.0 L 66.0,62.0 L 76.0,56.0" fill="#020202"/>
	<path d="M 78.0,64.0 L 121.0,64.0 L 127.0,67.0 L 131.0,72.0 L 132.0,74.0 L 132.0,126.0 L 130.0,128.0 L 125.0,127.0 L 124.0,126.0 L 123.0,82.0 L 118.0,81.0 L 117.0,82.0 L 116.0,120.0 L 84.0,120.0 L 83.0,82.0 L 78.0,81.0 L 77.0,82.0 L 76.0,126.0 L 74.0,128.0 L 69.0,127.0 L 68.0,126.0 L 68.0,74.0 L 72.0,68.0 L 78.0,64.0" fill="#FCFCFC"/>
	<path d="M 96.0,12.0 L 105.0,12.0 L 113.0,16.0 L 119.0,24.0 L 120.0,27.0 L 120.0,37.0 L 116.0,45.0 L 108.0,51.0 L 105.0,52.0 L 95.0,52.0 L 87.0,48.0 L 81.0,40.0 L 80.0,37.0 L 80.0,27.0 L 84.0,19.0 L 92.0,13.0 L 96.0,12.0" fill="#080808"/>
	<path d="M 103.0,137.0 L 112.0,137.0 L 119.0,170.0 L 121.0,179.0 L 126.0,179.0 L 126.0,171.0 L 121.0,146.0 L 121.0,144.0 L 130.0,145.0 L 135.0,170.0 L 135.0,181.0 L 130.0,187.0 L 127.0,188.0 L 119.0,188.0 L 113.0,183.0 L 110.0,173.0 L 103.0,139.0 L 103.0,137.0" fill="#090909"/>
	<path d="M 88.0,137.0 L 97.0,137.0 L 92.0,164.0 L 88.0,181.0 L 83.0,187.0 L 80.0,188.0 L 72.0,188.0 L 66.0,183.0 L 65.0,181.0 L 65.0,169.0 L 70.0,145.0 L 79.0,144.0 L 78.0,152.0 L 74.0,170.0 L 74.0,179.0 L 79.0,179.0 L 82.0,167.0 L 88.0,137.0" fill="#090909"/>
	<path d="M 174.0,92.0 L 179.0,93.0 L 180.0,94.0 L 180.0,120.0 L 186.0,120.0 L 188.0,122.0 L 187.0,127.0 L 186.0,128.0 L 180.0,128.0 L 180.0,154.0 L 178.0,156.0 L 173.0,155.0 L 172.0,154.0 L 172.0,94.0 L 174.0,92.0" fill="#020202"/>
	<path d="M 22.0,92.0 L 27.0,93.0 L 28.0,94.0 L 28.0,154.0 L 26.0,156.0 L 21.0,155.0 L 20.0,154.0 L 20.0,128.0 L 14.0,128.0 L 12.0,126.0 L 13.0,121.0 L 14.0,120.0 L 20.0,120.0 L 20.0,94.0 L 22.0,92.0" fill="#020202"/>
	<path d="M 96.0,20.0 L 103.0,20.0 L 108.0,23.0 L 112.0,28.0 L 112.0,36.0 L 106.0,43.0 L 104.0,44.0 L 96.0,44.0 L 89.0,38.0 L 88.0,35.0 L 88.0,28.0 L 94.0,21.0 L 96.0,20.0" fill="#F7F7F7"/>
</svg>
