<?xml version="1.0" ?>
<svg baseProfile="full" height="600px" version="1.1" viewBox="-20.1 -20.1 240.2 240.2" width="600px" xmlns="http://www.w3.org/2000/svg" xmlns:ev="http://www.w3.org/2001/xml-events" xmlns:xlink="http://www.w3.org/1999/xlink">
	<defs/>
	<path d="M 0.0,0.0 L 200.0,0.0 L 200.0,200.0 L 0.0,200.0 L 0.0,0.0" fill="#FDFDFD"/>
	<path d="M 76.0,88.0 L 123.0,88.0 L 130.0,91.0 L 136.0,96.0 L 140.0,104.0 L 140.0,151.0 L 156.0,151.0 L 156.0,125.0 L 158.0,123.0 L 163.0,124.0 L 164.0,125.0 L 164.0,185.0 L 162.0,187.0 L 157.0,186.0 L 156.0,185.0 L 156.0,159.0 L 139.0,159.0 L 138.0,163.0 L 133.0,167.0 L 131.0,168.0 L 122.0,167.0 L 117.0,162.0 L 117.0,159.0 L 83.0,159.0 L 82.0,163.0 L 77.0,167.0 L 75.0,168.0 L 66.0,167.0 L 61.0,162.0 L 61.0,159.0 L 44.0,159.0 L 44.0,185.0 L 42.0,187.0 L 37.0,186.0 L 36.0,185.0 L 36.0,125.0 L 38.0,123.0 L 43.0,124.0 L 44.0,125.0 L 44.0,151.0 L 60.0,151.0 L 60.0,104.0 L 64.0,96.0 L 71.0,90.0 L 76.0,88.0" fill="#040404"/>
	<path d="M 77.0,96.0 L 122.0,96.0 L 127.0,99.0 L 131.0,103.0 L 132.0,106.0 L 132.0,157.0 L 130.0,160.0 L 125.0,159.0 L 124.0,158.0 L 123.0,114.0 L 118.0,113.0 L 117.0,114.0 L 116.0,151.0 L 84.0,151.0 L 83.0,114.0 L 78.0,113.0 L 77.0,114.0 L 76.0,157.0 L 74.0,160.0 L 69.0,159.0 L 68.0,158.0 L 68.0,106.0 L 72.0,100.0 L 77.0,96.0" fill="#FCFCFC"/>
	<path d="M 95.0,43.0 L 105.0,43.0 L 115.0,49.0 L 119.0,55.0 L 120.0,58.0 L 120.0,68.0 L 116.0,76.0 L 110.0,81.0 L 105.0,83.0 L 94.0,83.0 L 86.0,78.0 L 82.0,73.0 L 80.0,68.0 L 80.0,58.0 L 84.0,50.0 L 93.0,44.0 L 95.0,43.0" fill="#080808"/>
	<path d="M 174.0,123.0 L 179.0,124.0 L 180.0,125.0 L 180.0,151.0 L 186.0,151.0 L 188.0,153.0 L 187.0,158.0 L 186.0,159.0 L 180.0,159.0 L 180.0,185.0 L 178.0,187.0 L 173.0,186.0 L 172.0,185.0 L 172.0,125.0 L 174.0,123.0" fill="#030303"/>
	<path d="M 22.0,123.0 L 27.0,124.0 L 28.0,125.0 L 28.0,185.0 L 26.0,187.0 L 21.0,186.0 L 20.0,185.0 L 20.0,159.0 L 14.0,159.0 L 12.0,157.0 L 13.0,152.0 L 14.0,151.0 L 20.0,151.0 L 20.0,125.0 L 22.0,123.0" fill="#030303"/>
	<path d="M 97.0,51.0 L 103.0,51.0 L 109.0,55.0 L 112.0,59.0 L 112.0,66.0 L 108.0,73.0 L 104.0,75.0 L 96.0,75.0 L 91.0,72.0 L 88.0,67.0 L 88.0,59.0 L 93.0,53.0 L 97.0,51.0" fill="#F7F7F7"/>
	<path d="M 112.0,167.0 L 120.0,173.0 L 121.0,179.0 L 126.0,179.0 L 127.0,175.0 L 135.0,175.0 L 135.0,181.0 L 130.0,187.0 L 127.0,188.0 L 119.0,188.0 L 113.0,183.0 L 112.0,181.0 L 112.0,167.0" fill="#080808"/>
	<path d="M 87.0,168.0 L 88.0,168.0 L 88.0,181.0 L 83.0,187.0 L 80.0,188.0 L 72.0,188.0 L 66.0,183.0 L 65.0,181.0 L 65.0,175.0 L 73.0,175.0 L 74.0,179.0 L 79.0,179.0 L 80.0,173.0 L 87.0,168.0" fill="#080808"/>
</svg>
