<?xml version="1.0" ?>
<svg baseProfile="full" height="600px" version="1.1" viewBox="-19.296000000000003 -19.296000000000003 230.592 230.592" width="600px" xmlns="http://www.w3.org/2000/svg" xmlns:ev="http://www.w3.org/2001/xml-events" xmlns:xlink="http://www.w3.org/1999/xlink">
	<defs/>
	<path d="M 0.0,0.0 L 192.0,0.0 L 192.0,192.0 L 0.0,192.0 L 0.0,0.0" fill="#FEFDFD"/>
	<path d="M 74.0,96.0 L 88.0,96.0 L 91.0,108.0 L 94.0,111.0 L 100.0,110.0 L 103.0,101.0 L 104.0,96.0 L 117.0,96.0 L 122.0,99.0 L 124.0,101.0 L 126.0,115.0 L 127.0,144.0 L 144.0,144.0 L 144.0,122.0 L 146.0,120.0 L 154.0,120.0 L 158.0,120.0 L 166.0,120.0 L 168.0,122.0 L 168.0,144.0 L 180.0,144.0 L 180.0,152.0 L 168.0,152.0 L 168.0,174.0 L 166.0,176.0 L 158.0,176.0 L 154.0,176.0 L 146.0,176.0 L 144.0,174.0 L 144.0,152.0 L 128.0,152.0 L 127.0,158.0 L 127.0,171.0 L 124.0,175.0 L 116.0,176.0 L 111.0,171.0 L 109.0,152.0 L 83.0,152.0 L 83.0,161.0 L 81.0,171.0 L 76.0,176.0 L 69.0,175.0 L 66.0,172.0 L 65.0,158.0 L 64.0,152.0 L 48.0,152.0 L 48.0,174.0 L 46.0,176.0 L 38.0,176.0 L 34.0,176.0 L 26.0,176.0 L 24.0,174.0 L 24.0,152.0 L 12.0,152.0 L 12.0,144.0 L 24.0,144.0 L 24.0,122.0 L 26.0,120.0 L 34.0,120.0 L 38.0,120.0 L 46.0,120.0 L 48.0,122.0 L 48.0,144.0 L 65.0,144.0 L 65.0,131.0 L 67.0,103.0 L 72.0,97.0 L 74.0,96.0" fill="#F7764F"/>
	<path d="M 74.0,96.0 L 84.0,96.0 L 84.0,102.0 L 80.0,111.0 L 77.0,115.0 L 76.0,152.0 L 83.0,152.0 L 83.0,161.0 L 81.0,171.0 L 76.0,176.0 L 69.0,175.0 L 66.0,172.0 L 65.0,158.0 L 64.0,152.0 L 48.0,152.0 L 48.0,174.0 L 46.0,176.0 L 38.0,176.0 L 34.0,176.0 L 26.0,176.0 L 24.0,174.0 L 24.0,152.0 L 12.0,152.0 L 12.0,144.0 L 24.0,144.0 L 24.0,122.0 L 26.0,120.0 L 34.0,120.0 L 38.0,120.0 L 46.0,120.0 L 48.0,122.0 L 48.0,144.0 L 65.0,144.0 L 65.0,131.0 L 67.0,103.0 L 72.0,97.0 L 74.0,96.0" fill="#F7764F"/>
	<path d="M 84.0,96.0 L 88.0,96.0 L 91.0,108.0 L 94.0,111.0 L 100.0,110.0 L 103.0,101.0 L 104.0,96.0 L 108.0,96.0 L 112.0,109.0 L 116.0,115.0 L 116.0,152.0 L 76.0,152.0 L 76.0,115.0 L 80.0,110.0 L 83.0,102.0 L 84.0,96.0" fill="#8F79B7"/>
	<path d="M 74.0,96.0 L 84.0,96.0 L 84.0,102.0 L 80.0,111.0 L 77.0,115.0 L 76.0,152.0 L 83.0,152.0 L 83.0,161.0 L 81.0,171.0 L 76.0,176.0 L 69.0,175.0 L 66.0,172.0 L 65.0,158.0 L 64.0,156.0 L 64.0,144.0 L 67.0,103.0 L 72.0,97.0 L 74.0,96.0" fill="#FDBB5B"/>
	<path d="M 108.0,96.0 L 117.0,96.0 L 122.0,99.0 L 124.0,101.0 L 126.0,115.0 L 127.0,136.0 L 128.0,144.0 L 128.0,156.0 L 127.0,158.0 L 127.0,171.0 L 124.0,175.0 L 116.0,176.0 L 111.0,171.0 L 109.0,152.0 L 116.0,152.0 L 115.0,115.0 L 110.0,107.0 L 108.0,100.0 L 108.0,96.0" fill="#FDBA5A"/>
	<path d="M 91.0,56.0 L 101.0,56.0 L 107.0,60.0 L 111.0,65.0 L 112.0,67.0 L 112.0,76.0 L 109.0,82.0 L 103.0,87.0 L 100.0,88.0 L 91.0,88.0 L 85.0,84.0 L 81.0,79.0 L 80.0,77.0 L 80.0,67.0 L 84.0,61.0 L 89.0,57.0 L 91.0,56.0" fill="#FFB84E"/>
	<path d="M 158.0,120.0 L 166.0,120.0 L 168.0,122.0 L 168.0,144.0 L 180.0,144.0 L 180.0,152.0 L 168.0,152.0 L 168.0,174.0 L 166.0,176.0 L 158.0,176.0 L 156.0,173.0 L 156.0,123.0 L 158.0,120.0" fill="#E55244"/>
	<path d="M 26.0,120.0 L 34.0,120.0 L 36.0,123.0 L 36.0,173.0 L 34.0,176.0 L 26.0,176.0 L 24.0,174.0 L 24.0,152.0 L 12.0,152.0 L 12.0,144.0 L 24.0,144.0 L 24.0,122.0 L 26.0,120.0" fill="#E55244"/>
	<path d="M 76.0,144.0 L 116.0,144.0 L 116.0,152.0 L 76.0,152.0 L 76.0,144.0" fill="#607E8B"/>
	<path d="M 88.0,96.0 L 104.0,96.0 L 103.0,105.0 L 100.0,111.0 L 94.0,112.0 L 90.0,108.0 L 88.0,101.0 L 88.0,96.0" fill="#FBB85A"/>
	<path d="M 128.0,144.0 L 144.0,144.0 L 144.0,152.0 L 128.0,152.0 L 128.0,144.0" fill="#607E8B"/>
	<path d="M 48.0,144.0 L 64.0,144.0 L 64.0,152.0 L 48.0,152.0 L 48.0,144.0" fill="#8EA3AD"/>
	<path d="M 168.0,144.0 L 180.0,144.0 L 180.0,152.0 L 168.0,152.0 L 168.0,144.0" fill="#607E8B"/>
	<path d="M 12.0,144.0 L 24.0,144.0 L 24.0,152.0 L 12.0,152.0 L 12.0,144.0" fill="#607E8B"/>
	<path d="M 128.0,144.0 L 136.0,144.0 L 136.0,152.0 L 128.0,152.0 L 128.0,144.0" fill="#8EA3AD"/>
	<path d="M 48.0,144.0 L 56.0,144.0 L 56.0,152.0 L 48.0,152.0 L 48.0,144.0" fill="#607E8B"/>
</svg>
