<?xml version="1.0" ?>
<svg baseProfile="full" height="600px" version="1.1" viewBox="-19.296000000000003 -19.296000000000003 230.592 230.592" width="600px" xmlns="http://www.w3.org/2000/svg" xmlns:ev="http://www.w3.org/2001/xml-events" xmlns:xlink="http://www.w3.org/1999/xlink">
	<defs/>
	<path d="M 0.0,0.0 L 192.0,0.0 L 192.0,192.0 L 0.0,192.0 L 0.0,0.0" fill="#FDFDFD"/>
	<path d="M 74.0,52.0 L 88.0,52.0 L 91.0,64.0 L 94.0,67.0 L 100.0,66.0 L 103.0,57.0 L 104.0,52.0 L 117.0,52.0 L 122.0,55.0 L 124.0,57.0 L 126.0,71.0 L 127.0,100.0 L 144.0,100.0 L 144.0,78.0 L 146.0,76.0 L 154.0,76.0 L 158.0,76.0 L 166.0,76.0 L 168.0,78.0 L 168.0,100.0 L 180.0,100.0 L 180.0,108.0 L 168.0,108.0 L 168.0,130.0 L 166.0,132.0 L 158.0,132.0 L 154.0,132.0 L 146.0,132.0 L 144.0,130.0 L 144.0,108.0 L 128.0,108.0 L 127.0,114.0 L 124.0,116.0 L 119.0,116.0 L 121.0,131.0 L 121.0,136.0 L 102.0,136.0 L 100.0,131.0 L 97.0,118.0 L 97.0,114.0 L 95.0,114.0 L 94.0,122.0 L 91.0,135.0 L 90.0,136.0 L 71.0,136.0 L 72.0,126.0 L 74.0,115.0 L 67.0,116.0 L 64.0,112.0 L 64.0,108.0 L 48.0,108.0 L 48.0,130.0 L 46.0,132.0 L 38.0,132.0 L 34.0,132.0 L 26.0,132.0 L 24.0,130.0 L 24.0,108.0 L 12.0,108.0 L 12.0,100.0 L 24.0,100.0 L 24.0,78.0 L 26.0,76.0 L 34.0,76.0 L 38.0,76.0 L 46.0,76.0 L 48.0,78.0 L 48.0,100.0 L 65.0,100.0 L 65.0,87.0 L 67.0,59.0 L 72.0,53.0 L 74.0,52.0" fill="#8F79B7"/>
	<path d="M 74.0,52.0 L 84.0,52.0 L 84.0,58.0 L 80.0,67.0 L 77.0,71.0 L 76.0,112.0 L 72.0,116.0 L 67.0,116.0 L 64.0,112.0 L 64.0,108.0 L 48.0,108.0 L 48.0,130.0 L 46.0,132.0 L 38.0,132.0 L 34.0,132.0 L 26.0,132.0 L 24.0,130.0 L 24.0,108.0 L 12.0,108.0 L 12.0,100.0 L 24.0,100.0 L 24.0,78.0 L 26.0,76.0 L 34.0,76.0 L 38.0,76.0 L 46.0,76.0 L 48.0,78.0 L 48.0,100.0 L 65.0,100.0 L 65.0,87.0 L 67.0,59.0 L 72.0,53.0 L 74.0,52.0" fill="#F7764F"/>
	<path d="M 108.0,52.0 L 117.0,52.0 L 122.0,55.0 L 124.0,57.0 L 126.0,71.0 L 127.0,100.0 L 144.0,100.0 L 144.0,78.0 L 146.0,76.0 L 154.0,76.0 L 158.0,76.0 L 166.0,76.0 L 168.0,78.0 L 168.0,100.0 L 180.0,100.0 L 180.0,108.0 L 168.0,108.0 L 168.0,130.0 L 166.0,132.0 L 158.0,132.0 L 154.0,132.0 L 146.0,132.0 L 144.0,130.0 L 144.0,108.0 L 128.0,108.0 L 127.0,114.0 L 124.0,116.0 L 119.0,116.0 L 116.0,112.0 L 115.0,71.0 L 110.0,63.0 L 108.0,56.0 L 108.0,52.0" fill="#F7764F"/>
	<path d="M 76.0,108.0 L 116.0,108.0 L 119.0,117.0 L 121.0,131.0 L 121.0,136.0 L 102.0,136.0 L 100.0,131.0 L 97.0,118.0 L 97.0,114.0 L 95.0,114.0 L 94.0,122.0 L 91.0,135.0 L 90.0,136.0 L 71.0,136.0 L 72.0,126.0 L 74.0,114.0 L 76.0,108.0" fill="#28A79A"/>
	<path d="M 91.0,12.0 L 101.0,12.0 L 107.0,16.0 L 111.0,21.0 L 112.0,23.0 L 112.0,32.0 L 109.0,38.0 L 103.0,43.0 L 100.0,44.0 L 91.0,44.0 L 85.0,40.0 L 81.0,35.0 L 80.0,33.0 L 80.0,23.0 L 84.0,17.0 L 89.0,13.0 L 91.0,12.0" fill="#FFB84E"/>
	<path d="M 158.0,76.0 L 166.0,76.0 L 168.0,78.0 L 168.0,100.0 L 180.0,100.0 L 180.0,108.0 L 168.0,108.0 L 168.0,130.0 L 166.0,132.0 L 158.0,132.0 L 156.0,129.0 L 156.0,79.0 L 158.0,76.0" fill="#E55244"/>
	<path d="M 26.0,76.0 L 34.0,76.0 L 36.0,79.0 L 36.0,129.0 L 34.0,132.0 L 26.0,132.0 L 24.0,130.0 L 24.0,108.0 L 12.0,108.0 L 12.0,100.0 L 24.0,100.0 L 24.0,78.0 L 26.0,76.0" fill="#E55244"/>
	<path d="M 74.0,52.0 L 84.0,52.0 L 84.0,58.0 L 80.0,67.0 L 77.0,71.0 L 76.0,112.0 L 72.0,116.0 L 67.0,116.0 L 64.0,112.0 L 64.0,100.0 L 67.0,59.0 L 72.0,53.0 L 74.0,52.0" fill="#FDBA5B"/>
	<path d="M 108.0,52.0 L 117.0,52.0 L 122.0,55.0 L 124.0,57.0 L 126.0,71.0 L 127.0,92.0 L 128.0,100.0 L 128.0,112.0 L 124.0,116.0 L 119.0,116.0 L 116.0,112.0 L 115.0,71.0 L 110.0,63.0 L 108.0,56.0 L 108.0,52.0" fill="#FDBA5A"/>
	<path d="M 102.0,136.0 L 121.0,136.0 L 123.0,142.0 L 126.0,161.0 L 126.0,171.0 L 122.0,176.0 L 115.0,176.0 L 111.0,172.0 L 105.0,150.0 L 102.0,136.0" fill="#FEBB5B"/>
	<path d="M 71.0,136.0 L 90.0,136.0 L 86.0,154.0 L 81.0,172.0 L 76.0,176.0 L 69.0,175.0 L 66.0,171.0 L 66.0,162.0 L 70.0,138.0 L 71.0,136.0" fill="#FEBB5B"/>
	<path d="M 76.0,108.0 L 96.0,108.0 L 97.0,114.0 L 95.0,114.0 L 94.0,122.0 L 91.0,135.0 L 90.0,136.0 L 71.0,136.0 L 72.0,126.0 L 74.0,114.0 L 76.0,108.0" fill="#4FB6AB"/>
	<path d="M 76.0,100.0 L 116.0,100.0 L 116.0,108.0 L 76.0,108.0 L 76.0,100.0" fill="#607E8B"/>
	<path d="M 88.0,52.0 L 104.0,52.0 L 103.0,61.0 L 100.0,67.0 L 94.0,68.0 L 90.0,64.0 L 88.0,57.0 L 88.0,52.0" fill="#FBB85A"/>
	<path d="M 128.0,100.0 L 144.0,100.0 L 144.0,108.0 L 128.0,108.0 L 128.0,100.0" fill="#607E8B"/>
	<path d="M 48.0,100.0 L 64.0,100.0 L 64.0,108.0 L 48.0,108.0 L 48.0,100.0" fill="#8EA3AD"/>
	<path d="M 168.0,100.0 L 180.0,100.0 L 180.0,108.0 L 168.0,108.0 L 168.0,100.0" fill="#607E8B"/>
	<path d="M 12.0,100.0 L 24.0,100.0 L 24.0,108.0 L 12.0,108.0 L 12.0,100.0" fill="#607E8B"/>
	<path d="M 128.0,100.0 L 136.0,100.0 L 136.0,108.0 L 128.0,108.0 L 128.0,100.0" fill="#8EA3AD"/>
	<path d="M 48.0,100.0 L 56.0,100.0 L 56.0,108.0 L 48.0,108.0 L 48.0,100.0" fill="#607E8B"/>
	<path d="M 95.0,114.0 L 97.0,114.0 L 98.0,120.0 L 94.0,121.0 L 95.0,114.0" fill="#EAF1E9"/>
</svg>
