<?xml version="1.0" ?>
<svg baseProfile="full" height="600px" version="1.1" viewBox="-19.296000000000003 -19.296000000000003 230.592 230.592" width="600px" xmlns="http://www.w3.org/2000/svg" xmlns:ev="http://www.w3.org/2001/xml-events" xmlns:xlink="http://www.w3.org/1999/xlink">
	<defs/>
	<path d="M 0.0,0.0 L 192.0,0.0 L 192.0,192.0 L 0.0,192.0 L 0.0,0.0" fill="#FDFDFC"/>
	<path d="M 73.0,74.0 L 88.0,74.0 L 91.0,86.0 L 94.0,89.0 L 99.0,88.0 L 102.0,83.0 L 104.0,74.0 L 119.0,74.0 L 124.0,79.0 L 126.0,95.0 L 127.0,121.0 L 144.0,121.0 L 144.0,100.0 L 146.0,98.0 L 154.0,98.0 L 158.0,98.0 L 166.0,98.0 L 168.0,100.0 L 168.0,122.0 L 180.0,122.0 L 180.0,130.0 L 168.0,130.0 L 168.0,152.0 L 166.0,154.0 L 158.0,154.0 L 154.0,154.0 L 146.0,154.0 L 144.0,152.0 L 144.0,130.0 L 128.0,130.0 L 127.0,136.0 L 123.0,137.0 L 126.0,157.0 L 126.0,172.0 L 121.0,176.0 L 114.0,175.0 L 111.0,171.0 L 104.0,136.0 L 102.0,130.0 L 90.0,130.0 L 86.0,148.0 L 81.0,171.0 L 76.0,176.0 L 69.0,175.0 L 66.0,171.0 L 66.0,162.0 L 68.0,146.0 L 68.0,138.0 L 64.0,134.0 L 64.0,130.0 L 48.0,130.0 L 48.0,152.0 L 46.0,154.0 L 38.0,154.0 L 34.0,154.0 L 26.0,154.0 L 24.0,152.0 L 24.0,130.0 L 12.0,130.0 L 12.0,122.0 L 24.0,122.0 L 24.0,100.0 L 26.0,98.0 L 34.0,98.0 L 38.0,98.0 L 46.0,98.0 L 48.0,100.0 L 48.0,121.0 L 65.0,121.0 L 65.0,109.0 L 67.0,81.0 L 71.0,75.0 L 73.0,74.0" fill="#FDBB5B"/>
	<path d="M 108.0,74.0 L 119.0,74.0 L 124.0,79.0 L 126.0,95.0 L 127.0,121.0 L 144.0,121.0 L 144.0,100.0 L 146.0,98.0 L 154.0,98.0 L 158.0,98.0 L 166.0,98.0 L 168.0,100.0 L 168.0,122.0 L 180.0,122.0 L 180.0,130.0 L 168.0,130.0 L 168.0,152.0 L 166.0,154.0 L 158.0,154.0 L 154.0,154.0 L 146.0,154.0 L 144.0,152.0 L 144.0,130.0 L 128.0,130.0 L 127.0,136.0 L 123.0,137.0 L 126.0,157.0 L 126.0,172.0 L 121.0,176.0 L 114.0,175.0 L 111.0,171.0 L 105.0,140.0 L 105.0,136.0 L 117.0,136.0 L 116.0,134.0 L 115.0,92.0 L 111.0,87.0 L 108.0,77.0 L 108.0,74.0" fill="#FDBA5A"/>
	<path d="M 84.0,74.0 L 88.0,74.0 L 91.0,86.0 L 94.0,89.0 L 99.0,88.0 L 102.0,83.0 L 104.0,74.0 L 108.0,74.0 L 112.0,87.0 L 116.0,92.0 L 117.0,136.0 L 104.0,136.0 L 102.0,130.0 L 90.0,130.0 L 88.0,136.0 L 75.0,136.0 L 76.0,93.0 L 81.0,85.0 L 84.0,74.0" fill="#8F7AB6"/>
	<path d="M 146.0,98.0 L 154.0,98.0 L 158.0,98.0 L 166.0,98.0 L 168.0,100.0 L 168.0,122.0 L 180.0,122.0 L 180.0,130.0 L 168.0,130.0 L 168.0,152.0 L 166.0,154.0 L 158.0,154.0 L 154.0,154.0 L 146.0,154.0 L 144.0,152.0 L 144.0,100.0 L 146.0,98.0" fill="#E55244"/>
	<path d="M 26.0,98.0 L 34.0,98.0 L 38.0,98.0 L 46.0,98.0 L 48.0,100.0 L 48.0,152.0 L 46.0,154.0 L 38.0,154.0 L 34.0,154.0 L 26.0,154.0 L 24.0,152.0 L 24.0,130.0 L 12.0,130.0 L 12.0,122.0 L 24.0,122.0 L 24.0,100.0 L 26.0,98.0" fill="#E55244"/>
	<path d="M 90.0,34.0 L 101.0,34.0 L 107.0,38.0 L 111.0,43.0 L 112.0,45.0 L 112.0,54.0 L 108.0,61.0 L 102.0,65.0 L 99.0,66.0 L 92.0,66.0 L 84.0,61.0 L 80.0,53.0 L 80.0,45.0 L 84.0,39.0 L 90.0,34.0" fill="#FEB84D"/>
	<path d="M 146.0,98.0 L 154.0,98.0 L 157.0,101.0 L 157.0,152.0 L 154.0,154.0 L 146.0,154.0 L 144.0,152.0 L 144.0,100.0 L 146.0,98.0" fill="#F77650"/>
	<path d="M 38.0,98.0 L 46.0,98.0 L 48.0,100.0 L 48.0,152.0 L 46.0,154.0 L 38.0,154.0 L 35.0,151.0 L 35.0,100.0 L 38.0,98.0" fill="#F77650"/>
	<path d="M 76.0,122.0 L 116.0,122.0 L 117.0,136.0 L 104.0,136.0 L 102.0,130.0 L 90.0,130.0 L 88.0,136.0 L 75.0,136.0 L 76.0,122.0" fill="#61808C"/>
	<path d="M 88.0,74.0 L 104.0,74.0 L 102.0,86.0 L 98.0,90.0 L 93.0,89.0 L 90.0,86.0 L 88.0,79.0 L 88.0,74.0" fill="#FBB85A"/>
	<path d="M 127.0,121.0 L 144.0,121.0 L 144.0,130.0 L 128.0,130.0 L 127.0,121.0" fill="#98ABB3"/>
	<path d="M 48.0,121.0 L 65.0,121.0 L 64.0,130.0 L 48.0,130.0 L 48.0,121.0" fill="#98ABB3"/>
	<path d="M 168.0,122.0 L 180.0,122.0 L 180.0,130.0 L 168.0,130.0 L 168.0,122.0" fill="#65828F"/>
	<path d="M 12.0,122.0 L 24.0,122.0 L 24.0,130.0 L 12.0,130.0 L 12.0,122.0" fill="#65828F"/>
	<path d="M 76.0,130.0 L 90.0,130.0 L 88.0,136.0 L 75.0,136.0 L 76.0,130.0" fill="#4EB5AB"/>
	<path d="M 102.0,130.0 L 116.0,130.0 L 117.0,136.0 L 104.0,136.0 L 102.0,130.0" fill="#27A699"/>
	<path d="M 136.0,122.0 L 144.0,122.0 L 144.0,129.0 L 136.0,129.0 L 136.0,122.0" fill="#607E8B"/>
	<path d="M 48.0,122.0 L 56.0,122.0 L 56.0,129.0 L 48.0,129.0 L 48.0,122.0" fill="#607E8B"/>
</svg>
