<?xml version="1.0" ?>
<svg baseProfile="full" height="600px" version="1.1" viewBox="-20.1 -20.1 240.2 240.2" width="600px" xmlns="http://www.w3.org/2000/svg" xmlns:ev="http://www.w3.org/2001/xml-events" xmlns:xlink="http://www.w3.org/1999/xlink">
	<defs/>
	<path d="M 0.0,0.0 L 200.0,0.0 L 200.0,200.0 L 0.0,200.0 L 0.0,0.0" fill="#FDFDFD"/>
	<path d="M 66.0,34.0 L 71.0,35.0 L 72.0,40.0 L 64.0,45.0 L 44.0,55.0 L 107.0,56.0 L 124.0,59.0 L 136.0,63.0 L 149.0,70.0 L 156.0,76.0 L 164.0,87.0 L 169.0,97.0 L 172.0,109.0 L 172.0,128.0 L 171.0,141.0 L 167.0,156.0 L 161.0,172.0 L 155.0,183.0 L 150.0,184.0 L 148.0,182.0 L 149.0,176.0 L 155.0,163.0 L 161.0,144.0 L 163.0,127.0 L 163.0,110.0 L 159.0,96.0 L 153.0,86.0 L 149.0,81.0 L 139.0,74.0 L 127.0,69.0 L 114.0,66.0 L 106.0,65.0 L 44.0,65.0 L 70.0,78.0 L 72.0,80.0 L 71.0,85.0 L 66.0,86.0 L 16.0,61.0 L 16.0,59.0 L 66.0,34.0" fill="#070707"/>
</svg>
