<?xml version="1.0" ?>
<svg baseProfile="full" height="600px" version="1.1" viewBox="-20.1 -20.1 240.2 240.2" width="600px" xmlns="http://www.w3.org/2000/svg" xmlns:ev="http://www.w3.org/2001/xml-events" xmlns:xlink="http://www.w3.org/1999/xlink">
	<defs/>
	<path d="M 0.0,0.0 L 200.0,0.0 L 200.0,200.0 L 0.0,200.0 L 0.0,0.0" fill="#FDFDFD"/>
	<path d="M 141.0,31.0 L 156.0,31.0 L 156.0,182.0 L 154.0,184.0 L 46.0,184.0 L 44.0,182.0 L 44.0,35.0 L 77.0,34.0 L 94.0,33.0 L 125.0,32.0 L 141.0,31.0" fill="#FDFDFD"/>
	<path d="M 89.0,5.0 L 120.0,5.0 L 125.0,9.0 L 127.0,12.0 L 127.0,24.0 L 141.0,23.0 L 170.0,23.0 L 171.0,24.0 L 171.0,29.0 L 168.0,31.0 L 164.0,31.0 L 164.0,183.0 L 161.0,189.0 L 155.0,192.0 L 44.0,192.0 L 37.0,186.0 L 36.0,183.0 L 36.0,36.0 L 30.0,36.0 L 28.0,34.0 L 29.0,29.0 L 30.0,28.0 L 46.0,27.0 L 71.0,27.0 L 71.0,14.0 L 77.0,7.0 L 79.0,6.0 L 89.0,5.0 M 141.0,31.0 L 125.0,32.0 L 94.0,33.0 L 77.0,34.0 L 44.0,35.0 L 44.0,182.0 L 46.0,184.0 L 154.0,184.0 L 156.0,182.0 L 156.0,31.0 L 141.0,31.0" fill="#030303"/>
	<path d="M 90.0,13.0 L 117.0,13.0 L 119.0,15.0 L 119.0,24.0 L 112.0,25.0 L 91.0,26.0 L 79.0,26.0 L 79.0,16.0 L 81.0,14.0 L 90.0,13.0" fill="#F6F6F6"/>
</svg>
