<?xml version="1.0" ?>
<svg baseProfile="full" height="600px" version="1.1" viewBox="-20.1 -20.1 240.2 240.2" width="600px" xmlns="http://www.w3.org/2000/svg" xmlns:ev="http://www.w3.org/2001/xml-events" xmlns:xlink="http://www.w3.org/1999/xlink">
	<defs/>
	<path d="M 0.0,0.0 L 200.0,0.0 L 200.0,200.0 L 0.0,200.0 L 0.0,0.0" fill="#FDFDFD"/>
	<path d="M 0.0,0.0 L 200.0,0.0 L 200.0,200.0 L 0.0,200.0 L 0.0,0.0 M 110.0,2.0 L 94.0,3.0 L 78.0,5.0 L 72.0,10.0 L 71.0,12.0 L 71.0,25.0 L 37.0,27.0 L 30.0,28.0 L 28.0,30.0 L 29.0,35.0 L 30.0,36.0 L 36.0,36.0 L 36.0,183.0 L 39.0,188.0 L 44.0,192.0 L 155.0,192.0 L 161.0,189.0 L 164.0,183.0 L 164.0,30.0 L 162.0,28.0 L 169.0,26.0 L 170.0,25.0 L 170.0,20.0 L 169.0,19.0 L 154.0,19.0 L 127.0,21.0 L 127.0,12.0 L 123.0,5.0 L 117.0,2.0 L 110.0,2.0" fill="#FDFDFD"/>
	<path d="M 110.0,2.0 L 117.0,2.0 L 124.0,6.0 L 127.0,12.0 L 127.0,21.0 L 154.0,19.0 L 169.0,19.0 L 170.0,20.0 L 170.0,25.0 L 168.0,27.0 L 162.0,28.0 L 164.0,30.0 L 164.0,183.0 L 161.0,189.0 L 155.0,192.0 L 44.0,192.0 L 37.0,186.0 L 36.0,183.0 L 36.0,36.0 L 30.0,36.0 L 28.0,34.0 L 29.0,29.0 L 30.0,28.0 L 52.0,26.0 L 71.0,25.0 L 71.0,12.0 L 76.0,6.0 L 78.0,5.0 L 94.0,3.0 L 110.0,2.0 M 141.0,28.0 L 102.0,31.0 L 53.0,34.0 L 44.0,35.0 L 44.0,182.0 L 46.0,184.0 L 154.0,184.0 L 156.0,182.0 L 157.0,30.0 L 158.0,28.0 L 141.0,28.0" fill="#030303"/>
	<path d="M 97.0,76.0 L 107.0,76.0 L 115.0,81.0 L 120.0,89.0 L 120.0,99.0 L 114.0,109.0 L 112.0,110.0 L 103.0,104.0 L 107.0,96.0 L 106.0,90.0 L 99.0,89.0 L 97.0,91.0 L 96.0,96.0 L 84.0,96.0 L 84.0,89.0 L 89.0,81.0 L 97.0,76.0" fill="#050505"/>
	<path d="M 111.0,10.0 L 116.0,10.0 L 119.0,13.0 L 119.0,22.0 L 101.0,24.0 L 79.0,25.0 L 79.0,14.0 L 82.0,12.0 L 111.0,10.0" fill="#F2F2F2"/>
</svg>
