<?xml version="1.0" ?>
<svg baseProfile="full" height="600px" version="1.1" viewBox="-16.08 -16.08 192.16 192.16" width="600px" xmlns="http://www.w3.org/2000/svg" xmlns:ev="http://www.w3.org/2001/xml-events" xmlns:xlink="http://www.w3.org/1999/xlink">
	<defs/>
	<path d="M 0.0,0.0 L 160.0,0.0 L 160.0,160.0 L 0.0,160.0 L 0.0,0.0" fill="#5F9D77"/>
	<path d="M 0.0,0.0 L 160.0,0.0 L 160.0,160.0 L 0.0,160.0 L 0.0,0.0 M 4.0,12.0 L 4.0,132.0 L 20.0,132.0 L 21.0,137.0 L 25.0,143.0 L 30.0,147.0 L 33.0,148.0 L 43.0,148.0 L 51.0,143.0 L 55.0,137.0 L 56.0,132.0 L 104.0,132.0 L 105.0,137.0 L 109.0,143.0 L 114.0,147.0 L 117.0,148.0 L 127.0,148.0 L 135.0,143.0 L 139.0,137.0 L 140.0,132.0 L 148.0,132.0 L 153.0,129.0 L 156.0,124.0 L 156.0,70.0 L 145.0,44.0 L 140.0,35.0 L 135.0,32.0 L 92.0,32.0 L 89.0,34.0 L 88.0,12.0 L 4.0,12.0" fill="#FDFDFD"/>
	<path d="M 8.0,16.0 L 84.0,16.0 L 84.0,128.0 L 56.0,128.0 L 52.0,119.0 L 47.0,115.0 L 43.0,113.0 L 33.0,113.0 L 25.0,118.0 L 20.0,128.0 L 8.0,128.0 L 8.0,116.0 L 16.0,116.0 L 16.0,104.0 L 8.0,104.0 L 8.0,16.0" fill="#B8DEBC"/>
	<path d="M 93.0,36.0 L 134.0,36.0 L 139.0,41.0 L 140.0,44.0 L 110.0,45.0 L 109.0,46.0 L 109.0,86.0 L 110.0,87.0 L 152.0,88.0 L 152.0,123.0 L 149.0,127.0 L 140.0,128.0 L 136.0,119.0 L 131.0,115.0 L 127.0,113.0 L 117.0,113.0 L 109.0,118.0 L 104.0,128.0 L 88.0,128.0 L 88.0,41.0 L 93.0,36.0" fill="#B8DEBC"/>
	<path d="M 40.0,36.0 L 50.0,36.0 L 60.0,40.0 L 67.0,46.0 L 71.0,54.0 L 72.0,58.0 L 72.0,67.0 L 68.0,76.0 L 61.0,84.0 L 51.0,88.0 L 40.0,88.0 L 30.0,83.0 L 23.0,75.0 L 20.0,68.0 L 20.0,57.0 L 24.0,47.0 L 31.0,40.0 L 40.0,36.0" fill="#FBFCFC"/>
	<path d="M 112.0,48.0 L 142.0,48.0 L 152.0,71.0 L 152.0,84.0 L 112.0,84.0 L 112.0,48.0" fill="#C0E6FC"/>
	<path d="M 4.0,104.0 L 16.0,104.0 L 16.0,116.0 L 8.0,116.0 L 8.0,128.0 L 20.0,128.0 L 21.0,123.0 L 25.0,117.0 L 33.0,112.0 L 43.0,112.0 L 51.0,117.0 L 55.0,122.0 L 56.0,125.0 L 56.0,134.0 L 52.0,142.0 L 47.0,146.0 L 43.0,148.0 L 33.0,148.0 L 26.0,144.0 L 22.0,139.0 L 20.0,135.0 L 20.0,132.0 L 4.0,132.0 L 4.0,104.0" fill="#6C8093"/>
	<path d="M 40.0,32.0 L 51.0,32.0 L 61.0,36.0 L 69.0,42.0 L 74.0,51.0 L 76.0,57.0 L 76.0,68.0 L 72.0,78.0 L 65.0,86.0 L 55.0,91.0 L 52.0,92.0 L 39.0,92.0 L 30.0,88.0 L 22.0,81.0 L 18.0,75.0 L 16.0,69.0 L 16.0,56.0 L 20.0,46.0 L 27.0,38.0 L 36.0,33.0 L 40.0,32.0 M 40.0,36.0 L 30.0,41.0 L 23.0,49.0 L 20.0,57.0 L 20.0,68.0 L 25.0,78.0 L 33.0,85.0 L 40.0,88.0 L 51.0,88.0 L 61.0,84.0 L 69.0,75.0 L 72.0,67.0 L 72.0,58.0 L 69.0,49.0 L 62.0,41.0 L 54.0,37.0 L 50.0,36.0 L 40.0,36.0" fill="#7D909F"/>
	<path d="M 118.0,116.0 L 126.0,116.0 L 132.0,120.0 L 136.0,126.0 L 136.0,133.0 L 133.0,139.0 L 128.0,143.0 L 126.0,144.0 L 118.0,144.0 L 112.0,140.0 L 108.0,134.0 L 108.0,126.0 L 112.0,120.0 L 118.0,116.0" fill="#C4CDD7"/>
	<path d="M 34.0,116.0 L 42.0,116.0 L 48.0,120.0 L 52.0,126.0 L 52.0,133.0 L 49.0,139.0 L 44.0,143.0 L 42.0,144.0 L 34.0,144.0 L 28.0,140.0 L 24.0,134.0 L 24.0,126.0 L 28.0,120.0 L 34.0,116.0" fill="#C4CDD7"/>
	<path d="M 117.0,112.0 L 127.0,112.0 L 135.0,117.0 L 139.0,122.0 L 140.0,125.0 L 140.0,134.0 L 136.0,142.0 L 131.0,146.0 L 127.0,148.0 L 117.0,148.0 L 110.0,144.0 L 106.0,139.0 L 104.0,135.0 L 104.0,125.0 L 109.0,117.0 L 117.0,112.0 M 118.0,116.0 L 112.0,120.0 L 108.0,126.0 L 108.0,134.0 L 112.0,140.0 L 118.0,144.0 L 126.0,144.0 L 132.0,140.0 L 135.0,136.0 L 136.0,133.0 L 136.0,126.0 L 132.0,120.0 L 126.0,116.0 L 118.0,116.0" fill="#6C8093"/>
	<path d="M 56.0,48.0 L 60.0,48.0 L 59.0,52.0 L 51.0,60.0 L 52.0,65.0 L 56.0,69.0 L 55.0,72.0 L 51.0,71.0 L 47.0,67.0 L 42.0,64.0 L 43.0,59.0 L 49.0,56.0 L 56.0,48.0" fill="#7D8F9F"/>
	<path d="M 4.0,104.0 L 16.0,104.0 L 16.0,116.0 L 4.0,116.0 L 4.0,104.0" fill="#C74343"/>
	<path d="M 140.0,96.0 L 152.0,96.0 L 152.0,108.0 L 140.0,108.0 L 140.0,96.0" fill="#FDFEFD"/>
	<path d="M 120.0,124.0 L 126.0,125.0 L 128.0,127.0 L 127.0,134.0 L 124.0,136.0 L 119.0,136.0 L 116.0,132.0 L 116.0,127.0 L 120.0,124.0" fill="#697D91"/>
	<path d="M 36.0,124.0 L 42.0,125.0 L 44.0,127.0 L 43.0,134.0 L 40.0,136.0 L 35.0,136.0 L 32.0,132.0 L 32.0,127.0 L 36.0,124.0" fill="#697D91"/>
	<path d="M 4.0,116.0 L 8.0,116.0 L 8.0,128.0 L 20.0,128.0 L 20.0,132.0 L 4.0,132.0 L 4.0,116.0" fill="#5E9C76"/>
	<path d="M 56.0,48.0 L 60.0,48.0 L 59.0,52.0 L 53.0,54.0 L 51.0,53.0 L 56.0,48.0" fill="#8999A8"/>
	<path d="M 44.0,33.0 L 52.0,33.0 L 53.0,35.0 L 51.0,36.0 L 43.0,36.0 L 44.0,33.0" fill="#778A9B"/>
</svg>
