<?xml version="1.0" ?>
<svg baseProfile="full" height="600px" version="1.1" viewBox="-16.08 -16.08 192.16 192.16" width="600px" xmlns="http://www.w3.org/2000/svg" xmlns:ev="http://www.w3.org/2001/xml-events" xmlns:xlink="http://www.w3.org/1999/xlink">
	<defs/>
	<path d="M 0.0,0.0 L 160.0,0.0 L 160.0,160.0 L 0.0,160.0 L 0.0,0.0" fill="#68A27E"/>
	<path d="M 0.0,0.0 L 160.0,0.0 L 160.0,160.0 L 0.0,160.0 L 0.0,0.0 M 30.0,12.0 L 3.0,13.0 L 3.0,117.0 L 4.0,133.0 L 20.0,133.0 L 22.0,139.0 L 27.0,145.0 L 33.0,148.0 L 43.0,148.0 L 51.0,143.0 L 55.0,137.0 L 56.0,132.0 L 104.0,132.0 L 105.0,137.0 L 109.0,143.0 L 114.0,147.0 L 117.0,148.0 L 127.0,148.0 L 135.0,143.0 L 139.0,137.0 L 140.0,131.0 L 148.0,131.0 L 153.0,128.0 L 156.0,122.0 L 156.0,72.0 L 151.0,59.0 L 144.0,43.0 L 139.0,35.0 L 135.0,32.0 L 92.0,32.0 L 87.0,34.0 L 87.0,12.0 L 30.0,12.0" fill="#FCFDFC"/>
	<path d="M 61.0,16.0 L 83.0,16.0 L 84.0,96.0 L 84.0,128.0 L 56.0,128.0 L 52.0,120.0 L 48.0,116.0 L 44.0,114.0 L 32.0,114.0 L 26.0,118.0 L 22.0,123.0 L 20.0,129.0 L 8.0,129.0 L 8.0,117.0 L 16.0,117.0 L 16.0,105.0 L 7.0,105.0 L 7.0,17.0 L 61.0,16.0" fill="#B8DDBC"/>
	<path d="M 93.0,36.0 L 134.0,36.0 L 138.0,40.0 L 138.0,43.0 L 108.0,44.0 L 108.0,85.0 L 110.0,87.0 L 151.0,88.0 L 152.0,95.0 L 152.0,122.0 L 147.0,127.0 L 139.0,127.0 L 136.0,120.0 L 132.0,116.0 L 128.0,114.0 L 116.0,114.0 L 110.0,118.0 L 106.0,123.0 L 104.0,128.0 L 88.0,128.0 L 87.0,75.0 L 87.0,41.0 L 90.0,37.0 L 93.0,36.0" fill="#B8DEBC"/>
	<path d="M 38.0,37.0 L 52.0,37.0 L 60.0,41.0 L 65.0,46.0 L 70.0,54.0 L 71.0,57.0 L 71.0,68.0 L 65.0,80.0 L 57.0,86.0 L 53.0,88.0 L 37.0,88.0 L 27.0,82.0 L 22.0,76.0 L 19.0,67.0 L 19.0,58.0 L 23.0,48.0 L 28.0,43.0 L 33.0,39.0 L 38.0,37.0" fill="#FBFCFC"/>
	<path d="M 111.0,48.0 L 141.0,48.0 L 148.0,63.0 L 151.0,71.0 L 151.0,83.0 L 131.0,84.0 L 111.0,84.0 L 111.0,48.0" fill="#BFE5FB"/>
	<path d="M 4.0,105.0 L 16.0,105.0 L 16.0,117.0 L 8.0,117.0 L 8.0,129.0 L 20.0,129.0 L 22.0,121.0 L 30.0,114.0 L 32.0,113.0 L 44.0,113.0 L 50.0,117.0 L 55.0,123.0 L 56.0,134.0 L 52.0,142.0 L 47.0,146.0 L 43.0,148.0 L 33.0,148.0 L 26.0,144.0 L 22.0,139.0 L 20.0,133.0 L 4.0,133.0 L 4.0,105.0" fill="#6C7F93"/>
	<path d="M 37.0,33.0 L 53.0,33.0 L 63.0,38.0 L 70.0,45.0 L 74.0,53.0 L 75.0,56.0 L 75.0,67.0 L 72.0,77.0 L 66.0,85.0 L 56.0,91.0 L 49.0,93.0 L 40.0,93.0 L 30.0,89.0 L 22.0,83.0 L 16.0,73.0 L 15.0,68.0 L 15.0,56.0 L 19.0,47.0 L 26.0,39.0 L 34.0,34.0 L 37.0,33.0 M 38.0,37.0 L 30.0,41.0 L 25.0,46.0 L 20.0,54.0 L 19.0,58.0 L 19.0,67.0 L 23.0,77.0 L 28.0,83.0 L 37.0,88.0 L 53.0,88.0 L 63.0,82.0 L 67.0,77.0 L 71.0,68.0 L 71.0,57.0 L 66.0,47.0 L 61.0,42.0 L 54.0,38.0 L 52.0,37.0 L 38.0,37.0" fill="#7E909F"/>
	<path d="M 117.0,117.0 L 126.0,117.0 L 133.0,121.0 L 136.0,126.0 L 136.0,133.0 L 133.0,139.0 L 128.0,143.0 L 125.0,144.0 L 118.0,144.0 L 113.0,141.0 L 109.0,137.0 L 108.0,134.0 L 108.0,127.0 L 112.0,120.0 L 117.0,117.0" fill="#C4CDD7"/>
	<path d="M 33.0,117.0 L 42.0,117.0 L 49.0,121.0 L 52.0,126.0 L 52.0,133.0 L 49.0,139.0 L 44.0,143.0 L 41.0,144.0 L 34.0,144.0 L 29.0,141.0 L 25.0,137.0 L 24.0,134.0 L 24.0,127.0 L 28.0,120.0 L 33.0,117.0" fill="#C4CDD7"/>
	<path d="M 116.0,113.0 L 128.0,113.0 L 134.0,117.0 L 139.0,123.0 L 140.0,127.0 L 140.0,134.0 L 136.0,142.0 L 131.0,146.0 L 127.0,148.0 L 117.0,148.0 L 110.0,144.0 L 106.0,139.0 L 104.0,135.0 L 104.0,127.0 L 107.0,120.0 L 114.0,114.0 L 116.0,113.0 M 117.0,117.0 L 111.0,121.0 L 108.0,127.0 L 108.0,134.0 L 111.0,139.0 L 115.0,143.0 L 118.0,144.0 L 125.0,144.0 L 131.0,141.0 L 135.0,136.0 L 136.0,133.0 L 136.0,126.0 L 132.0,120.0 L 126.0,117.0 L 117.0,117.0" fill="#6C7F93"/>
	<path d="M 42.0,59.0 L 48.0,59.0 L 51.0,65.0 L 55.0,69.0 L 55.0,72.0 L 50.0,71.0 L 47.0,68.0 L 41.0,68.0 L 32.0,74.0 L 28.0,73.0 L 29.0,70.0 L 40.0,63.0 L 42.0,59.0" fill="#8092A2"/>
	<path d="M 4.0,105.0 L 16.0,105.0 L 16.0,117.0 L 4.0,117.0 L 4.0,105.0" fill="#C64545"/>
	<path d="M 140.0,95.0 L 152.0,95.0 L 152.0,107.0 L 140.0,107.0 L 140.0,95.0" fill="#F9FBFA"/>
	<path d="M 4.0,117.0 L 8.0,117.0 L 8.0,129.0 L 20.0,129.0 L 20.0,133.0 L 4.0,133.0 L 4.0,117.0" fill="#609D77"/>
	<path d="M 119.0,125.0 L 125.0,125.0 L 128.0,128.0 L 128.0,133.0 L 125.0,136.0 L 119.0,136.0 L 116.0,133.0 L 116.0,128.0 L 119.0,125.0" fill="#687C90"/>
	<path d="M 35.0,125.0 L 41.0,125.0 L 44.0,128.0 L 44.0,133.0 L 41.0,136.0 L 35.0,136.0 L 32.0,133.0 L 32.0,128.0 L 35.0,125.0" fill="#687C90"/>
	<path d="M 37.0,89.0 L 49.0,89.0 L 49.0,91.0 L 47.0,92.0 L 38.0,92.0 L 37.0,89.0" fill="#788A9B"/>
	<path d="M 35.0,87.0 L 48.0,88.0 L 48.0,89.0 L 37.0,89.0 L 38.0,92.0 L 33.0,90.0 L 35.0,89.0 L 35.0,87.0" fill="#8E9FAC"/>
	<path d="M 49.0,33.0 L 53.0,34.0 L 51.0,37.0 L 41.0,37.0 L 41.0,36.0 L 49.0,35.0 L 49.0,33.0" fill="#8698A6"/>
</svg>
