<?xml version="1.0" ?>
<svg baseProfile="full" height="600px" version="1.1" viewBox="-20.1 -20.1 240.2 240.2" width="600px" xmlns="http://www.w3.org/2000/svg" xmlns:ev="http://www.w3.org/2001/xml-events" xmlns:xlink="http://www.w3.org/1999/xlink">
	<defs/>
	<path d="M 0.0,0.0 L 200.0,0.0 L 200.0,200.0 L 0.0,200.0 L 0.0,0.0" fill="#050505"/>
	<path d="M 0.0,0.0 L 200.0,0.0 L 200.0,200.0 L 0.0,200.0 L 0.0,0.0 M 11.0,32.0 L 6.0,36.0 L 4.0,40.0 L 4.0,151.0 L 7.0,156.0 L 10.0,159.0 L 13.0,160.0 L 32.0,160.0 L 35.0,169.0 L 42.0,176.0 L 50.0,180.0 L 61.0,180.0 L 71.0,175.0 L 78.0,167.0 L 80.0,160.0 L 132.0,160.0 L 135.0,169.0 L 140.0,175.0 L 150.0,180.0 L 162.0,180.0 L 172.0,175.0 L 178.0,167.0 L 180.0,160.0 L 187.0,160.0 L 192.0,157.0 L 196.0,152.0 L 196.0,104.0 L 190.0,92.0 L 174.0,71.0 L 169.0,65.0 L 162.0,61.0 L 159.0,60.0 L 122.0,60.0 L 120.0,61.0 L 120.0,39.0 L 116.0,34.0 L 111.0,32.0 L 11.0,32.0" fill="#FDFDFD"/>
	<path d="M 13.0,40.0 L 110.0,40.0 L 112.0,42.0 L 112.0,152.0 L 80.0,152.0 L 75.0,142.0 L 68.0,136.0 L 61.0,133.0 L 51.0,133.0 L 41.0,138.0 L 36.0,144.0 L 32.0,152.0 L 14.0,152.0 L 12.0,150.0 L 12.0,42.0 L 13.0,40.0" fill="#FAFAFA"/>
	<path d="M 55.0,48.0 L 71.0,48.0 L 81.0,51.0 L 89.0,56.0 L 95.0,61.0 L 101.0,70.0 L 104.0,78.0 L 104.0,96.0 L 99.0,109.0 L 90.0,119.0 L 80.0,125.0 L 70.0,128.0 L 59.0,128.0 L 46.0,124.0 L 38.0,118.0 L 31.0,111.0 L 25.0,98.0 L 24.0,93.0 L 24.0,81.0 L 28.0,70.0 L 34.0,61.0 L 42.0,54.0 L 52.0,49.0 L 55.0,48.0" fill="#FAFAFA"/>
	<path d="M 123.0,68.0 L 140.0,68.0 L 141.0,107.0 L 145.0,113.0 L 148.0,115.0 L 188.0,116.0 L 188.0,149.0 L 185.0,152.0 L 180.0,152.0 L 174.0,141.0 L 168.0,136.0 L 163.0,134.0 L 148.0,134.0 L 140.0,139.0 L 136.0,144.0 L 133.0,152.0 L 120.0,152.0 L 120.0,71.0 L 123.0,68.0" fill="#FAFAFA"/>
	<path d="M 55.0,48.0 L 71.0,48.0 L 81.0,51.0 L 89.0,56.0 L 95.0,61.0 L 101.0,70.0 L 104.0,78.0 L 104.0,96.0 L 99.0,109.0 L 90.0,119.0 L 80.0,125.0 L 70.0,128.0 L 59.0,128.0 L 46.0,124.0 L 38.0,118.0 L 31.0,111.0 L 25.0,98.0 L 24.0,93.0 L 24.0,81.0 L 28.0,70.0 L 34.0,61.0 L 42.0,54.0 L 52.0,49.0 L 55.0,48.0 M 57.0,56.0 L 48.0,60.0 L 40.0,66.0 L 34.0,76.0 L 33.0,79.0 L 33.0,95.0 L 37.0,105.0 L 44.0,113.0 L 53.0,118.0 L 59.0,120.0 L 68.0,120.0 L 78.0,117.0 L 87.0,111.0 L 94.0,101.0 L 96.0,95.0 L 96.0,80.0 L 90.0,68.0 L 81.0,60.0 L 71.0,56.0 L 57.0,56.0" fill="#090909"/>
	<path d="M 148.0,68.0 L 158.0,68.0 L 164.0,72.0 L 172.0,81.0 L 182.0,95.0 L 187.0,103.0 L 188.0,108.0 L 151.0,108.0 L 148.0,105.0 L 148.0,68.0" fill="#FAFAFA"/>
	<path d="M 52.0,140.0 L 59.0,140.0 L 67.0,144.0 L 71.0,149.0 L 72.0,152.0 L 72.0,159.0 L 69.0,166.0 L 64.0,170.0 L 59.0,172.0 L 52.0,172.0 L 45.0,168.0 L 41.0,163.0 L 40.0,160.0 L 40.0,152.0 L 45.0,144.0 L 52.0,140.0" fill="#F8F8F8"/>
	<path d="M 150.0,141.0 L 161.0,141.0 L 168.0,145.0 L 172.0,152.0 L 172.0,161.0 L 168.0,167.0 L 163.0,171.0 L 161.0,172.0 L 151.0,172.0 L 145.0,168.0 L 141.0,163.0 L 140.0,160.0 L 140.0,152.0 L 145.0,144.0 L 150.0,141.0" fill="#F9F9F9"/>
	<path d="M 66.0,84.0 L 71.0,84.0 L 86.0,93.0 L 91.0,97.0 L 87.0,103.0 L 82.0,101.0 L 70.0,94.0 L 66.0,95.0 L 55.0,103.0 L 51.0,99.0 L 50.0,96.0 L 66.0,84.0" fill="#080808"/>
</svg>
