<?xml version="1.0" ?>
<svg baseProfile="full" height="600px" version="1.1" viewBox="-19.296000000000003 -19.296000000000003 230.592 230.592" width="600px" xmlns="http://www.w3.org/2000/svg" xmlns:ev="http://www.w3.org/2001/xml-events" xmlns:xlink="http://www.w3.org/1999/xlink">
	<defs/>
	<path d="M 0.0,0.0 L 192.0,0.0 L 192.0,192.0 L 0.0,192.0 L 0.0,0.0" fill="#9576CC"/>
	<path d="M 0.0,0.0 L 192.0,0.0 L 192.0,192.0 L 0.0,192.0 L 0.0,0.0 M 22.0,32.0 L 14.0,37.0 L 10.0,42.0 L 8.0,47.0 L 8.0,131.0 L 12.0,139.0 L 20.0,144.0 L 36.0,144.0 L 37.0,152.0 L 43.0,160.0 L 51.0,164.0 L 61.0,164.0 L 69.0,160.0 L 74.0,154.0 L 76.0,148.0 L 76.0,144.0 L 128.0,144.0 L 129.0,152.0 L 135.0,160.0 L 143.0,164.0 L 153.0,164.0 L 161.0,160.0 L 167.0,152.0 L 168.0,144.0 L 175.0,143.0 L 182.0,137.0 L 184.0,133.0 L 184.0,91.0 L 171.0,75.0 L 162.0,63.0 L 157.0,57.0 L 155.0,56.0 L 117.0,56.0 L 113.0,60.0 L 112.0,43.0 L 108.0,36.0 L 101.0,32.0 L 22.0,32.0" fill="#FDFDFD"/>
	<path d="M 117.0,56.0 L 155.0,56.0 L 160.0,60.0 L 173.0,77.0 L 184.0,91.0 L 184.0,133.0 L 180.0,139.0 L 175.0,143.0 L 168.0,144.0 L 167.0,152.0 L 161.0,160.0 L 153.0,164.0 L 143.0,164.0 L 135.0,160.0 L 129.0,152.0 L 128.0,144.0 L 112.0,144.0 L 112.0,62.0 L 114.0,58.0 L 117.0,56.0" fill="#FCC00A"/>
	<path d="M 52.0,44.0 L 68.0,44.0 L 80.0,49.0 L 89.0,57.0 L 94.0,66.0 L 96.0,72.0 L 96.0,87.0 L 91.0,100.0 L 85.0,107.0 L 76.0,113.0 L 65.0,116.0 L 55.0,116.0 L 45.0,113.0 L 36.0,107.0 L 29.0,99.0 L 25.0,89.0 L 24.0,84.0 L 24.0,75.0 L 27.0,64.0 L 33.0,56.0 L 42.0,48.0 L 52.0,44.0" fill="#FCFCFD"/>
	<path d="M 126.0,64.0 L 152.0,64.0 L 162.0,75.0 L 171.0,86.0 L 172.0,87.0 L 172.0,103.0 L 171.0,104.0 L 152.0,104.0 L 144.0,97.0 L 126.0,96.0 L 124.0,94.0 L 124.0,66.0 L 126.0,64.0" fill="#485B61"/>
	<path d="M 50.0,124.0 L 61.0,124.0 L 69.0,128.0 L 75.0,136.0 L 76.0,139.0 L 76.0,148.0 L 72.0,157.0 L 66.0,162.0 L 61.0,164.0 L 51.0,164.0 L 43.0,160.0 L 37.0,152.0 L 36.0,149.0 L 36.0,138.0 L 42.0,129.0 L 50.0,124.0" fill="#3A4A52"/>
	<path d="M 143.0,124.0 L 153.0,124.0 L 163.0,130.0 L 167.0,136.0 L 168.0,139.0 L 168.0,149.0 L 164.0,157.0 L 158.0,162.0 L 153.0,164.0 L 143.0,164.0 L 135.0,160.0 L 129.0,152.0 L 128.0,149.0 L 128.0,139.0 L 132.0,131.0 L 140.0,125.0 L 143.0,124.0" fill="#3C4B50"/>
	<path d="M 56.0,72.0 L 64.0,72.0 L 68.0,76.0 L 69.0,79.0 L 87.0,88.0 L 85.0,94.0 L 83.0,96.0 L 79.0,94.0 L 74.0,95.0 L 70.0,96.0 L 63.0,89.0 L 55.0,87.0 L 52.0,83.0 L 52.0,77.0 L 56.0,72.0" fill="#404F57"/>
	<path d="M 52.0,134.0 L 60.0,134.0 L 65.0,139.0 L 66.0,140.0 L 66.0,147.0 L 63.0,152.0 L 59.0,154.0 L 51.0,153.0 L 46.0,148.0 L 46.0,140.0 L 50.0,135.0 L 52.0,134.0" fill="#758C98"/>
	<path d="M 145.0,134.0 L 153.0,135.0 L 158.0,140.0 L 158.0,147.0 L 155.0,152.0 L 151.0,154.0 L 144.0,154.0 L 139.0,149.0 L 138.0,148.0 L 138.0,141.0 L 141.0,136.0 L 145.0,134.0" fill="#758D98"/>
	<path d="M 58.0,76.0 L 63.0,76.0 L 64.0,77.0 L 64.0,82.0 L 62.0,84.0 L 57.0,83.0 L 56.0,78.0 L 58.0,76.0" fill="#8D72C3"/>
</svg>
