<?xml version="1.0" ?>
<svg baseProfile="full" height="600px" version="1.1" viewBox="-12.06 -12.06 144.12 144.12" width="600px" xmlns="http://www.w3.org/2000/svg" xmlns:ev="http://www.w3.org/2001/xml-events" xmlns:xlink="http://www.w3.org/1999/xlink">
	<defs/>
	<path d="M 0.0,0.0 L 120.0,0.0 L 120.0,120.0 L 0.0,120.0 L 0.0,0.0" fill="#030303"/>
	<path d="M 0.0,0.0 L 120.0,0.0 L 120.0,86.0 L 116.0,84.0 L 116.0,64.0 L 92.0,64.0 L 92.0,45.0 L 93.0,44.0 L 107.0,44.0 L 103.0,38.0 L 102.0,37.0 L 72.0,36.0 L 71.0,26.0 L 66.0,21.0 L 9.0,21.0 L 5.0,25.0 L 4.0,85.0 L 0.0,86.0 L 0.0,0.0" fill="#FBFBFB"/>
	<path d="M 119.0,90.0 L 120.0,90.0 L 120.0,120.0 L 0.0,120.0 L 0.0,91.0 L 16.0,92.0 L 19.0,98.0 L 25.0,103.0 L 33.0,103.0 L 39.0,100.0 L 43.0,95.0 L 44.0,92.0 L 80.0,92.0 L 85.0,100.0 L 90.0,103.0 L 97.0,103.0 L 103.0,100.0 L 108.0,92.0 L 118.0,91.0 L 119.0,90.0" fill="#FCFCFC"/>
	<path d="M 31.0,32.0 L 40.0,32.0 L 48.0,36.0 L 54.0,43.0 L 56.0,48.0 L 56.0,55.0 L 52.0,64.0 L 47.0,69.0 L 40.0,72.0 L 30.0,72.0 L 23.0,68.0 L 18.0,62.0 L 16.0,57.0 L 16.0,46.0 L 22.0,37.0 L 31.0,32.0" fill="#F7F7F7"/>
	<path d="M 34.0,48.0 L 39.0,49.0 L 48.0,54.0 L 47.0,59.0 L 46.0,60.0 L 38.0,59.0 L 35.0,66.0 L 33.0,68.0 L 29.0,67.0 L 28.0,66.0 L 29.0,57.0 L 32.0,50.0 L 34.0,48.0" fill="#0B0B0B"/>
	<path d="M 92.0,83.0 L 98.0,84.0 L 100.0,87.0 L 99.0,94.0 L 96.0,96.0 L 90.0,95.0 L 88.0,92.0 L 89.0,85.0 L 92.0,83.0" fill="#F1F1F1"/>
	<path d="M 27.0,85.0 L 34.0,86.0 L 36.0,88.0 L 35.0,94.0 L 32.0,96.0 L 27.0,96.0 L 24.0,92.0 L 25.0,87.0 L 27.0,85.0" fill="#F0F0F0"/>
</svg>
