<?xml version="1.0" ?>
<svg baseProfile="full" height="600px" version="1.1" viewBox="-19.296000000000003 -19.296000000000003 230.592 230.592" width="600px" xmlns="http://www.w3.org/2000/svg" xmlns:ev="http://www.w3.org/2001/xml-events" xmlns:xlink="http://www.w3.org/1999/xlink">
	<defs/>
	<path d="M 0.0,0.0 L 192.0,0.0 L 192.0,192.0 L 0.0,192.0 L 0.0,0.0" fill="#9576CC"/>
	<path d="M 0.0,0.0 L 192.0,0.0 L 192.0,192.0 L 0.0,192.0 L 0.0,0.0 M 60.0,32.0 L 22.0,33.0 L 14.0,37.0 L 8.0,44.0 L 7.0,47.0 L 7.0,104.0 L 8.0,135.0 L 13.0,142.0 L 18.0,145.0 L 36.0,145.0 L 37.0,152.0 L 41.0,158.0 L 46.0,162.0 L 51.0,164.0 L 61.0,164.0 L 69.0,160.0 L 75.0,152.0 L 76.0,144.0 L 128.0,144.0 L 129.0,151.0 L 133.0,158.0 L 140.0,163.0 L 143.0,164.0 L 153.0,164.0 L 161.0,160.0 L 166.0,154.0 L 168.0,148.0 L 168.0,143.0 L 175.0,142.0 L 181.0,137.0 L 184.0,130.0 L 184.0,92.0 L 174.0,79.0 L 161.0,63.0 L 155.0,56.0 L 115.0,56.0 L 112.0,59.0 L 111.0,45.0 L 108.0,39.0 L 101.0,33.0 L 99.0,32.0 L 60.0,32.0" fill="#FDFDFD"/>
	<path d="M 115.0,56.0 L 155.0,56.0 L 164.0,66.0 L 175.0,80.0 L 184.0,92.0 L 184.0,130.0 L 180.0,138.0 L 175.0,142.0 L 168.0,143.0 L 167.0,151.0 L 163.0,158.0 L 158.0,162.0 L 153.0,164.0 L 143.0,164.0 L 135.0,160.0 L 130.0,154.0 L 128.0,149.0 L 128.0,144.0 L 112.0,144.0 L 111.0,112.0 L 111.0,60.0 L 115.0,56.0" fill="#FCC00B"/>
	<path d="M 51.0,45.0 L 67.0,45.0 L 79.0,50.0 L 87.0,57.0 L 93.0,67.0 L 95.0,73.0 L 95.0,88.0 L 91.0,98.0 L 87.0,104.0 L 80.0,111.0 L 72.0,115.0 L 64.0,117.0 L 52.0,117.0 L 38.0,111.0 L 29.0,102.0 L 24.0,92.0 L 23.0,86.0 L 23.0,73.0 L 28.0,61.0 L 35.0,53.0 L 45.0,47.0 L 51.0,45.0" fill="#FCFCFD"/>
	<path d="M 124.0,64.0 L 152.0,64.0 L 164.0,78.0 L 171.0,86.0 L 171.0,102.0 L 170.0,103.0 L 150.0,103.0 L 144.0,97.0 L 125.0,96.0 L 123.0,94.0 L 123.0,65.0 L 124.0,64.0" fill="#485A61"/>
	<path d="M 143.0,123.0 L 152.0,123.0 L 160.0,127.0 L 167.0,135.0 L 168.0,138.0 L 168.0,148.0 L 164.0,157.0 L 158.0,162.0 L 153.0,164.0 L 143.0,164.0 L 135.0,160.0 L 130.0,154.0 L 128.0,149.0 L 128.0,138.0 L 132.0,131.0 L 139.0,125.0 L 143.0,123.0" fill="#3C4B51"/>
	<path d="M 50.0,125.0 L 61.0,125.0 L 69.0,129.0 L 75.0,136.0 L 76.0,139.0 L 76.0,149.0 L 72.0,157.0 L 64.0,163.0 L 61.0,164.0 L 51.0,164.0 L 43.0,160.0 L 38.0,154.0 L 36.0,149.0 L 36.0,139.0 L 41.0,131.0 L 46.0,127.0 L 50.0,125.0" fill="#3A4A52"/>
	<path d="M 55.0,73.0 L 62.0,73.0 L 67.0,77.0 L 69.0,84.0 L 76.0,91.0 L 73.0,95.0 L 74.0,101.0 L 75.0,104.0 L 70.0,107.0 L 67.0,107.0 L 59.0,91.0 L 59.0,89.0 L 54.0,88.0 L 51.0,84.0 L 51.0,77.0 L 55.0,73.0" fill="#3E4D56"/>
	<path d="M 143.0,134.0 L 152.0,134.0 L 157.0,138.0 L 158.0,140.0 L 158.0,147.0 L 153.0,153.0 L 151.0,154.0 L 145.0,154.0 L 139.0,149.0 L 138.0,140.0 L 143.0,134.0" fill="#758D99"/>
	<path d="M 52.0,135.0 L 60.0,135.0 L 65.0,139.0 L 66.0,141.0 L 65.0,150.0 L 60.0,154.0 L 52.0,154.0 L 47.0,150.0 L 46.0,141.0 L 50.0,136.0 L 52.0,135.0" fill="#758D99"/>
	<path d="M 57.0,77.0 L 62.0,78.0 L 63.0,83.0 L 61.0,85.0 L 56.0,84.0 L 55.0,79.0 L 57.0,77.0" fill="#9073C6"/>
</svg>
