<?xml version="1.0" ?>
<svg baseProfile="full" height="600px" version="1.1" viewBox="-19.296000000000003 -19.296000000000003 230.592 230.592" width="600px" xmlns="http://www.w3.org/2000/svg" xmlns:ev="http://www.w3.org/2001/xml-events" xmlns:xlink="http://www.w3.org/1999/xlink">
	<defs/>
	<path d="M 0.0,0.0 L 192.0,0.0 L 192.0,192.0 L 0.0,192.0 L 0.0,0.0" fill="#9576CC"/>
	<path d="M 0.0,0.0 L 192.0,0.0 L 192.0,192.0 L 0.0,192.0 L 0.0,0.0 M 24.0,32.0 L 17.0,35.0 L 12.0,39.0 L 8.0,46.0 L 8.0,133.0 L 12.0,139.0 L 17.0,143.0 L 19.0,144.0 L 36.0,144.0 L 37.0,152.0 L 43.0,160.0 L 51.0,164.0 L 61.0,164.0 L 69.0,160.0 L 74.0,154.0 L 76.0,149.0 L 76.0,144.0 L 128.0,144.0 L 129.0,152.0 L 135.0,160.0 L 143.0,164.0 L 153.0,164.0 L 161.0,160.0 L 166.0,154.0 L 168.0,149.0 L 168.0,144.0 L 175.0,143.0 L 182.0,137.0 L 184.0,132.0 L 184.0,92.0 L 175.0,80.0 L 161.0,62.0 L 157.0,57.0 L 155.0,56.0 L 117.0,56.0 L 113.0,59.0 L 112.0,43.0 L 108.0,37.0 L 103.0,33.0 L 101.0,32.0 L 24.0,32.0" fill="#FDFDFD"/>
	<path d="M 117.0,56.0 L 155.0,56.0 L 160.0,61.0 L 170.0,73.0 L 182.0,89.0 L 184.0,92.0 L 184.0,132.0 L 181.0,138.0 L 175.0,143.0 L 168.0,144.0 L 167.0,151.0 L 163.0,158.0 L 158.0,162.0 L 153.0,164.0 L 143.0,164.0 L 135.0,160.0 L 129.0,152.0 L 128.0,144.0 L 112.0,144.0 L 112.0,61.0 L 117.0,56.0" fill="#FDC008"/>
	<path d="M 55.0,44.0 L 64.0,44.0 L 73.0,46.0 L 81.0,50.0 L 87.0,55.0 L 94.0,66.0 L 96.0,72.0 L 96.0,85.0 L 92.0,98.0 L 85.0,107.0 L 76.0,113.0 L 65.0,116.0 L 52.0,116.0 L 42.0,112.0 L 33.0,105.0 L 27.0,96.0 L 25.0,91.0 L 24.0,84.0 L 24.0,72.0 L 28.0,62.0 L 35.0,53.0 L 44.0,47.0 L 49.0,45.0 L 55.0,44.0" fill="#FCFCFD"/>
	<path d="M 126.0,64.0 L 152.0,64.0 L 162.0,75.0 L 172.0,88.0 L 172.0,102.0 L 170.0,104.0 L 152.0,104.0 L 144.0,97.0 L 126.0,96.0 L 124.0,94.0 L 124.0,66.0 L 126.0,64.0" fill="#475A62"/>
	<path d="M 144.0,124.0 L 152.0,124.0 L 159.0,127.0 L 164.0,131.0 L 168.0,139.0 L 168.0,149.0 L 164.0,157.0 L 158.0,162.0 L 153.0,164.0 L 143.0,164.0 L 135.0,160.0 L 129.0,152.0 L 128.0,149.0 L 128.0,140.0 L 131.0,133.0 L 135.0,128.0 L 140.0,125.0 L 144.0,124.0" fill="#3B4A51"/>
	<path d="M 52.0,124.0 L 61.0,124.0 L 69.0,128.0 L 75.0,136.0 L 76.0,139.0 L 76.0,149.0 L 72.0,157.0 L 66.0,162.0 L 61.0,164.0 L 51.0,164.0 L 43.0,160.0 L 37.0,152.0 L 36.0,149.0 L 36.0,140.0 L 39.0,133.0 L 43.0,128.0 L 48.0,125.0 L 52.0,124.0" fill="#3A4A52"/>
	<path d="M 56.0,52.0 L 64.0,52.0 L 65.0,73.0 L 68.0,77.0 L 70.0,84.0 L 77.0,91.0 L 73.0,96.0 L 69.0,95.0 L 63.0,89.0 L 55.0,87.0 L 52.0,83.0 L 52.0,76.0 L 55.0,73.0 L 56.0,52.0" fill="#3B4A53"/>
	<path d="M 145.0,134.0 L 152.0,134.0 L 157.0,139.0 L 158.0,140.0 L 158.0,147.0 L 155.0,152.0 L 151.0,154.0 L 144.0,154.0 L 139.0,149.0 L 138.0,147.0 L 138.0,141.0 L 141.0,136.0 L 145.0,134.0" fill="#758D99"/>
	<path d="M 53.0,134.0 L 60.0,134.0 L 65.0,139.0 L 66.0,140.0 L 66.0,147.0 L 63.0,152.0 L 59.0,154.0 L 52.0,154.0 L 47.0,149.0 L 46.0,147.0 L 46.0,141.0 L 49.0,136.0 L 53.0,134.0" fill="#758D99"/>
	<path d="M 58.0,76.0 L 63.0,77.0 L 64.0,82.0 L 62.0,84.0 L 57.0,83.0 L 56.0,78.0 L 58.0,76.0" fill="#9173C7"/>
</svg>
