<?xml version="1.0" ?>
<svg baseProfile="full" height="600px" version="1.1" viewBox="-20.1 -20.1 240.2 240.2" width="600px" xmlns="http://www.w3.org/2000/svg" xmlns:ev="http://www.w3.org/2001/xml-events" xmlns:xlink="http://www.w3.org/1999/xlink">
	<defs/>
	<path d="M 0.0,0.0 L 200.0,0.0 L 200.0,200.0 L 0.0,200.0 L 0.0,0.0" fill="#090909"/>
	<path d="M 0.0,0.0 L 200.0,0.0 L 200.0,200.0 L 0.0,200.0 L 0.0,0.0 M 12.0,32.0 L 6.0,36.0 L 3.0,40.0 L 3.0,106.0 L 4.0,152.0 L 7.0,157.0 L 12.0,161.0 L 33.0,161.0 L 34.0,167.0 L 39.0,174.0 L 48.0,179.0 L 50.0,180.0 L 61.0,180.0 L 70.0,176.0 L 75.0,172.0 L 79.0,165.0 L 80.0,161.0 L 133.0,160.0 L 134.0,167.0 L 143.0,177.0 L 150.0,180.0 L 162.0,180.0 L 170.0,176.0 L 178.0,167.0 L 179.0,160.0 L 186.0,160.0 L 193.0,156.0 L 196.0,150.0 L 196.0,105.0 L 192.0,96.0 L 186.0,87.0 L 173.0,70.0 L 166.0,63.0 L 161.0,60.0 L 121.0,60.0 L 119.0,61.0 L 119.0,40.0 L 115.0,34.0 L 111.0,32.0 L 12.0,32.0" fill="#FCFCFC"/>
	<path d="M 57.0,40.0 L 109.0,40.0 L 111.0,42.0 L 112.0,72.0 L 112.0,152.0 L 80.0,152.0 L 74.0,141.0 L 68.0,136.0 L 62.0,134.0 L 49.0,134.0 L 41.0,138.0 L 36.0,144.0 L 32.0,153.0 L 14.0,153.0 L 12.0,151.0 L 11.0,106.0 L 11.0,42.0 L 12.0,41.0 L 57.0,40.0" fill="#F8F8F8"/>
	<path d="M 57.0,48.0 L 69.0,48.0 L 82.0,52.0 L 90.0,58.0 L 97.0,65.0 L 102.0,75.0 L 104.0,82.0 L 104.0,94.0 L 100.0,106.0 L 94.0,115.0 L 86.0,122.0 L 78.0,126.0 L 72.0,128.0 L 55.0,128.0 L 45.0,124.0 L 39.0,120.0 L 34.0,116.0 L 28.0,107.0 L 24.0,97.0 L 24.0,79.0 L 29.0,67.0 L 38.0,57.0 L 48.0,51.0 L 57.0,48.0" fill="#FAFAFA"/>
	<path d="M 122.0,68.0 L 139.0,68.0 L 140.0,106.0 L 144.0,112.0 L 149.0,115.0 L 188.0,116.0 L 188.0,149.0 L 186.0,151.0 L 179.0,151.0 L 176.0,143.0 L 171.0,138.0 L 167.0,135.0 L 161.0,133.0 L 150.0,133.0 L 142.0,137.0 L 137.0,142.0 L 134.0,147.0 L 133.0,152.0 L 120.0,152.0 L 120.0,70.0 L 122.0,68.0" fill="#FCFCFC"/>
	<path d="M 57.0,48.0 L 69.0,48.0 L 82.0,52.0 L 90.0,58.0 L 97.0,65.0 L 102.0,75.0 L 104.0,82.0 L 104.0,94.0 L 100.0,106.0 L 94.0,115.0 L 86.0,122.0 L 78.0,126.0 L 72.0,128.0 L 55.0,128.0 L 45.0,124.0 L 39.0,120.0 L 34.0,116.0 L 28.0,107.0 L 24.0,97.0 L 24.0,79.0 L 29.0,67.0 L 38.0,57.0 L 48.0,51.0 L 57.0,48.0 M 58.0,56.0 L 46.0,61.0 L 39.0,67.0 L 34.0,75.0 L 32.0,81.0 L 32.0,96.0 L 38.0,108.0 L 47.0,116.0 L 56.0,120.0 L 71.0,120.0 L 83.0,114.0 L 88.0,109.0 L 92.0,104.0 L 95.0,96.0 L 95.0,81.0 L 91.0,71.0 L 84.0,63.0 L 73.0,57.0 L 68.0,56.0 L 58.0,56.0" fill="#090909"/>
	<path d="M 148.0,68.0 L 158.0,68.0 L 164.0,72.0 L 173.0,83.0 L 184.0,98.0 L 188.0,106.0 L 188.0,108.0 L 151.0,108.0 L 148.0,106.0 L 148.0,68.0" fill="#F8F8F8"/>
	<path d="M 151.0,140.0 L 160.0,140.0 L 166.0,143.0 L 171.0,149.0 L 172.0,151.0 L 172.0,159.0 L 168.0,167.0 L 163.0,171.0 L 161.0,172.0 L 151.0,172.0 L 145.0,168.0 L 141.0,163.0 L 140.0,160.0 L 140.0,151.0 L 144.0,145.0 L 149.0,141.0 L 151.0,140.0" fill="#F8F8F8"/>
	<path d="M 50.0,141.0 L 61.0,141.0 L 68.0,145.0 L 72.0,152.0 L 72.0,161.0 L 68.0,167.0 L 65.0,170.0 L 59.0,172.0 L 52.0,172.0 L 46.0,169.0 L 41.0,163.0 L 40.0,160.0 L 40.0,152.0 L 44.0,145.0 L 50.0,141.0" fill="#F9F9F9"/>
	<path d="M 66.0,84.0 L 71.0,85.0 L 72.0,90.0 L 66.0,106.0 L 64.0,112.0 L 58.0,111.0 L 56.0,110.0 L 57.0,104.0 L 57.0,102.0 L 53.0,103.0 L 49.0,97.0 L 63.0,86.0 L 66.0,84.0" fill="#090909"/>
</svg>
