<?xml version="1.0" ?>
<svg baseProfile="full" height="600px" version="1.1" viewBox="-16.08 -16.08 192.16 192.16" width="600px" xmlns="http://www.w3.org/2000/svg" xmlns:ev="http://www.w3.org/2001/xml-events" xmlns:xlink="http://www.w3.org/1999/xlink">
	<defs/>
	<path d="M 0.0,0.0 L 160.0,0.0 L 160.0,160.0 L 0.0,160.0 L 0.0,0.0" fill="#65A17C"/>
	<path d="M 0.0,0.0 L 160.0,0.0 L 160.0,160.0 L 0.0,160.0 L 0.0,0.0 M 5.0,12.0 L 4.0,63.0 L 4.0,132.0 L 20.0,132.0 L 21.0,137.0 L 25.0,143.0 L 30.0,147.0 L 33.0,148.0 L 43.0,148.0 L 51.0,143.0 L 55.0,137.0 L 56.0,132.0 L 104.0,132.0 L 105.0,137.0 L 109.0,143.0 L 114.0,147.0 L 117.0,148.0 L 127.0,148.0 L 135.0,143.0 L 140.0,135.0 L 140.0,132.0 L 149.0,132.0 L 154.0,128.0 L 156.0,124.0 L 156.0,69.0 L 146.0,45.0 L 141.0,36.0 L 138.0,33.0 L 135.0,32.0 L 93.0,32.0 L 89.0,34.0 L 89.0,12.0 L 5.0,12.0" fill="#FBFCFC"/>
	<path d="M 9.0,16.0 L 85.0,16.0 L 85.0,64.0 L 84.0,128.0 L 56.0,128.0 L 52.0,119.0 L 47.0,115.0 L 43.0,113.0 L 33.0,113.0 L 25.0,118.0 L 20.0,127.0 L 8.0,127.0 L 8.0,116.0 L 16.0,116.0 L 16.0,103.0 L 8.0,103.0 L 8.0,55.0 L 9.0,16.0" fill="#B8DDBC"/>
	<path d="M 94.0,36.0 L 134.0,36.0 L 138.0,38.0 L 140.0,44.0 L 111.0,45.0 L 109.0,47.0 L 109.0,86.0 L 110.0,87.0 L 152.0,88.0 L 152.0,123.0 L 148.0,128.0 L 140.0,128.0 L 136.0,119.0 L 131.0,115.0 L 127.0,113.0 L 117.0,113.0 L 109.0,118.0 L 104.0,128.0 L 88.0,128.0 L 89.0,40.0 L 94.0,36.0" fill="#B8DEBC"/>
	<path d="M 41.0,36.0 L 52.0,36.0 L 61.0,40.0 L 67.0,45.0 L 71.0,52.0 L 72.0,56.0 L 72.0,69.0 L 67.0,78.0 L 59.0,85.0 L 50.0,88.0 L 41.0,88.0 L 29.0,82.0 L 23.0,74.0 L 21.0,69.0 L 21.0,54.0 L 26.0,45.0 L 33.0,39.0 L 41.0,36.0" fill="#FBFCFC"/>
	<path d="M 112.0,48.0 L 142.0,48.0 L 149.0,63.0 L 152.0,70.0 L 152.0,84.0 L 112.0,84.0 L 112.0,48.0" fill="#BEE5FA"/>
	<path d="M 4.0,103.0 L 16.0,103.0 L 16.0,116.0 L 8.0,116.0 L 8.0,127.0 L 20.0,127.0 L 22.0,121.0 L 27.0,115.0 L 33.0,112.0 L 43.0,112.0 L 51.0,117.0 L 55.0,122.0 L 56.0,125.0 L 56.0,134.0 L 52.0,142.0 L 47.0,146.0 L 43.0,148.0 L 33.0,148.0 L 26.0,144.0 L 22.0,139.0 L 20.0,135.0 L 20.0,132.0 L 4.0,132.0 L 4.0,103.0" fill="#6F8494"/>
	<path d="M 40.0,32.0 L 53.0,32.0 L 63.0,36.0 L 72.0,45.0 L 76.0,54.0 L 76.0,68.0 L 72.0,78.0 L 65.0,86.0 L 55.0,91.0 L 52.0,92.0 L 42.0,92.0 L 32.0,89.0 L 22.0,80.0 L 17.0,70.0 L 16.0,67.0 L 16.0,56.0 L 20.0,46.0 L 27.0,38.0 L 36.0,33.0 L 40.0,32.0 M 41.0,36.0 L 31.0,40.0 L 24.0,48.0 L 21.0,54.0 L 21.0,69.0 L 25.0,77.0 L 29.0,82.0 L 41.0,88.0 L 50.0,88.0 L 61.0,84.0 L 68.0,77.0 L 72.0,69.0 L 72.0,56.0 L 69.0,48.0 L 64.0,42.0 L 55.0,37.0 L 52.0,36.0 L 41.0,36.0" fill="#7C8F9F"/>
	<path d="M 118.0,116.0 L 126.0,116.0 L 132.0,120.0 L 136.0,126.0 L 136.0,133.0 L 133.0,139.0 L 128.0,143.0 L 126.0,144.0 L 118.0,144.0 L 112.0,140.0 L 108.0,134.0 L 108.0,126.0 L 112.0,120.0 L 118.0,116.0" fill="#C4CDD7"/>
	<path d="M 34.0,116.0 L 42.0,116.0 L 48.0,120.0 L 52.0,126.0 L 52.0,133.0 L 49.0,139.0 L 44.0,143.0 L 42.0,144.0 L 34.0,144.0 L 28.0,140.0 L 24.0,134.0 L 24.0,126.0 L 28.0,120.0 L 34.0,116.0" fill="#C4CDD7"/>
	<path d="M 117.0,112.0 L 127.0,112.0 L 135.0,117.0 L 139.0,122.0 L 140.0,128.0 L 146.0,128.0 L 146.0,129.0 L 140.0,129.0 L 140.0,135.0 L 135.0,143.0 L 127.0,148.0 L 117.0,148.0 L 110.0,144.0 L 106.0,139.0 L 104.0,135.0 L 104.0,125.0 L 109.0,117.0 L 117.0,112.0 M 118.0,116.0 L 112.0,120.0 L 108.0,126.0 L 108.0,134.0 L 112.0,140.0 L 118.0,144.0 L 126.0,144.0 L 132.0,140.0 L 135.0,136.0 L 136.0,133.0 L 136.0,126.0 L 132.0,120.0 L 126.0,116.0 L 118.0,116.0" fill="#6C8093"/>
	<path d="M 44.0,58.0 L 65.0,58.0 L 65.0,62.0 L 52.0,64.0 L 56.0,68.0 L 55.0,72.0 L 51.0,70.0 L 48.0,67.0 L 43.0,65.0 L 42.0,60.0 L 44.0,58.0" fill="#7F90A1"/>
	<path d="M 4.0,103.0 L 16.0,103.0 L 16.0,115.0 L 4.0,115.0 L 4.0,103.0" fill="#C44846"/>
	<path d="M 140.0,96.0 L 152.0,96.0 L 152.0,108.0 L 140.0,108.0 L 140.0,96.0" fill="#FAFCFB"/>
	<path d="M 23.0,42.0 L 24.0,42.0 L 25.0,48.0 L 22.0,54.0 L 21.0,71.0 L 20.0,69.0 L 17.0,70.0 L 16.0,67.0 L 16.0,56.0 L 20.0,46.0 L 23.0,42.0" fill="#8396A3"/>
	<path d="M 120.0,124.0 L 126.0,125.0 L 128.0,127.0 L 127.0,134.0 L 124.0,136.0 L 119.0,136.0 L 116.0,132.0 L 116.0,127.0 L 120.0,124.0" fill="#697D91"/>
	<path d="M 36.0,124.0 L 42.0,125.0 L 44.0,127.0 L 43.0,134.0 L 40.0,136.0 L 35.0,136.0 L 32.0,132.0 L 32.0,127.0 L 36.0,124.0" fill="#697D91"/>
	<path d="M 4.0,115.0 L 16.0,115.0 L 16.0,116.0 L 8.0,116.0 L 8.0,128.0 L 20.0,128.0 L 20.0,131.0 L 4.0,131.0 L 4.0,115.0" fill="#689A77"/>
	<path d="M 59.0,35.0 L 64.0,37.0 L 63.0,42.0 L 55.0,38.0 L 59.0,37.0 L 59.0,35.0" fill="#8395A3"/>
	<path d="M 60.0,58.0 L 65.0,58.0 L 65.0,62.0 L 57.0,62.0 L 59.0,61.0 L 60.0,58.0" fill="#8192A2"/>
	<path d="M 50.0,87.0 L 54.0,87.0 L 52.0,92.0 L 42.0,92.0 L 42.0,91.0 L 49.0,91.0 L 50.0,87.0" fill="#8499A2"/>
	<path d="M 42.0,88.0 L 51.0,88.0 L 49.0,89.0 L 49.0,91.0 L 41.0,91.0 L 42.0,88.0" fill="#778A9B"/>
</svg>
