<?xml version="1.0" ?>
<svg baseProfile="full" height="600px" version="1.1" viewBox="-20.1 -20.1 240.2 240.2" width="600px" xmlns="http://www.w3.org/2000/svg" xmlns:ev="http://www.w3.org/2001/xml-events" xmlns:xlink="http://www.w3.org/1999/xlink">
	<defs/>
	<path d="M 0.0,0.0 L 200.0,0.0 L 200.0,200.0 L 0.0,200.0 L 0.0,0.0" fill="#080808"/>
	<path d="M 0.0,0.0 L 200.0,0.0 L 200.0,200.0 L 0.0,200.0 L 0.0,0.0 M 13.0,31.0 L 7.0,35.0 L 5.0,38.0 L 4.0,114.0 L 4.0,150.0 L 7.0,156.0 L 12.0,159.0 L 32.0,159.0 L 33.0,164.0 L 37.0,171.0 L 45.0,178.0 L 50.0,180.0 L 61.0,180.0 L 71.0,175.0 L 78.0,167.0 L 80.0,160.0 L 132.0,160.0 L 135.0,169.0 L 140.0,175.0 L 150.0,180.0 L 162.0,180.0 L 172.0,175.0 L 178.0,167.0 L 180.0,161.0 L 190.0,159.0 L 195.0,154.0 L 196.0,151.0 L 196.0,105.0 L 192.0,95.0 L 179.0,77.0 L 171.0,67.0 L 165.0,62.0 L 159.0,60.0 L 121.0,60.0 L 121.0,40.0 L 118.0,35.0 L 112.0,32.0 L 66.0,31.0 L 13.0,31.0" fill="#FCFCFC"/>
	<path d="M 15.0,39.0 L 66.0,39.0 L 111.0,40.0 L 113.0,42.0 L 113.0,72.0 L 112.0,152.0 L 80.0,152.0 L 75.0,142.0 L 68.0,136.0 L 61.0,133.0 L 50.0,133.0 L 41.0,138.0 L 35.0,145.0 L 33.0,151.0 L 14.0,151.0 L 12.0,149.0 L 12.0,72.0 L 13.0,41.0 L 15.0,39.0" fill="#F8F8F8"/>
	<path d="M 56.0,48.0 L 73.0,48.0 L 84.0,52.0 L 92.0,58.0 L 99.0,66.0 L 104.0,77.0 L 105.0,81.0 L 105.0,93.0 L 102.0,103.0 L 96.0,113.0 L 89.0,120.0 L 77.0,126.0 L 73.0,127.0 L 55.0,127.0 L 45.0,123.0 L 36.0,116.0 L 30.0,108.0 L 26.0,99.0 L 25.0,96.0 L 25.0,78.0 L 29.0,68.0 L 36.0,59.0 L 45.0,52.0 L 56.0,48.0" fill="#FBFBFB"/>
	<path d="M 123.0,68.0 L 140.0,68.0 L 141.0,107.0 L 145.0,113.0 L 148.0,115.0 L 188.0,116.0 L 188.0,150.0 L 186.0,152.0 L 180.0,152.0 L 174.0,141.0 L 168.0,136.0 L 162.0,134.0 L 149.0,134.0 L 141.0,138.0 L 136.0,144.0 L 133.0,152.0 L 120.0,152.0 L 120.0,71.0 L 123.0,68.0" fill="#F8F8F8"/>
	<path d="M 56.0,48.0 L 73.0,48.0 L 84.0,52.0 L 92.0,58.0 L 99.0,66.0 L 104.0,77.0 L 105.0,81.0 L 105.0,93.0 L 102.0,103.0 L 96.0,113.0 L 89.0,120.0 L 77.0,126.0 L 73.0,127.0 L 55.0,127.0 L 45.0,123.0 L 36.0,116.0 L 30.0,108.0 L 26.0,99.0 L 25.0,96.0 L 25.0,78.0 L 29.0,68.0 L 36.0,59.0 L 45.0,52.0 L 56.0,48.0 M 58.0,56.0 L 49.0,59.0 L 39.0,68.0 L 35.0,74.0 L 33.0,80.0 L 33.0,95.0 L 39.0,107.0 L 46.0,114.0 L 54.0,118.0 L 58.0,119.0 L 73.0,119.0 L 83.0,114.0 L 90.0,108.0 L 95.0,98.0 L 96.0,95.0 L 96.0,80.0 L 92.0,70.0 L 86.0,63.0 L 78.0,58.0 L 72.0,56.0 L 58.0,56.0" fill="#090909"/>
	<path d="M 149.0,68.0 L 158.0,68.0 L 166.0,73.0 L 180.0,92.0 L 187.0,103.0 L 188.0,108.0 L 151.0,108.0 L 149.0,106.0 L 149.0,68.0" fill="#FBFBFB"/>
	<path d="M 52.0,140.0 L 59.0,140.0 L 67.0,144.0 L 71.0,149.0 L 72.0,152.0 L 72.0,160.0 L 69.0,166.0 L 64.0,170.0 L 59.0,172.0 L 52.0,172.0 L 45.0,168.0 L 41.0,163.0 L 40.0,160.0 L 40.0,152.0 L 44.0,145.0 L 52.0,140.0" fill="#F8F8F8"/>
	<path d="M 150.0,141.0 L 161.0,141.0 L 167.0,145.0 L 171.0,150.0 L 172.0,152.0 L 172.0,161.0 L 168.0,167.0 L 163.0,171.0 L 161.0,172.0 L 151.0,172.0 L 145.0,168.0 L 141.0,163.0 L 140.0,160.0 L 140.0,152.0 L 144.0,146.0 L 150.0,141.0" fill="#FAFAFA"/>
	<path d="M 66.0,84.0 L 71.0,84.0 L 73.0,86.0 L 72.0,90.0 L 61.0,99.0 L 56.0,102.0 L 49.0,103.0 L 46.0,98.0 L 46.0,95.0 L 66.0,84.0" fill="#080808"/>
</svg>
