<?xml version="1.0" ?>
<svg baseProfile="full" height="600px" version="1.1" viewBox="-20.1 -20.1 240.2 240.2" width="600px" xmlns="http://www.w3.org/2000/svg" xmlns:ev="http://www.w3.org/2001/xml-events" xmlns:xlink="http://www.w3.org/1999/xlink">
	<defs/>
	<path d="M 0.0,0.0 L 200.0,0.0 L 200.0,200.0 L 0.0,200.0 L 0.0,0.0" fill="#FDFDFD"/>
	<path d="M 106.0,2.0 L 117.0,2.0 L 125.0,7.0 L 130.0,13.0 L 131.0,16.0 L 131.0,29.0 L 129.0,38.0 L 127.0,52.0 L 122.0,82.0 L 120.0,96.0 L 113.0,139.0 L 103.0,152.0 L 97.0,159.0 L 200.0,160.0 L 200.0,200.0 L 0.0,200.0 L 0.0,160.0 L 84.0,160.0 L 74.0,135.0 L 75.0,124.0 L 79.0,101.0 L 82.0,80.0 L 85.0,61.0 L 89.0,36.0 L 92.0,18.0 L 95.0,10.0 L 102.0,4.0 L 106.0,2.0" fill="#050505"/>
	<path d="M 8.0,168.0 L 12.0,168.0 L 12.0,175.0 L 20.0,175.0 L 20.0,168.0 L 28.0,168.0 L 28.0,180.0 L 36.0,180.0 L 36.0,168.0 L 45.0,168.0 L 45.0,175.0 L 53.0,175.0 L 53.0,168.0 L 62.0,168.0 L 62.0,180.0 L 70.0,180.0 L 70.0,168.0 L 79.0,168.0 L 79.0,175.0 L 87.0,175.0 L 87.0,168.0 L 96.0,168.0 L 96.0,180.0 L 104.0,180.0 L 104.0,168.0 L 113.0,168.0 L 113.0,175.0 L 121.0,175.0 L 121.0,168.0 L 130.0,168.0 L 130.0,180.0 L 138.0,180.0 L 138.0,168.0 L 147.0,168.0 L 147.0,175.0 L 155.0,175.0 L 155.0,168.0 L 163.0,168.0 L 163.0,180.0 L 171.0,180.0 L 171.0,168.0 L 180.0,168.0 L 180.0,175.0 L 188.0,175.0 L 188.0,168.0 L 192.0,168.0 L 192.0,192.0 L 8.0,192.0 L 8.0,168.0" fill="#F7F7F7"/>
	<path d="M 99.0,24.0 L 120.0,27.0 L 122.0,28.0 L 119.0,51.0 L 110.0,106.0 L 108.0,120.0 L 105.0,136.0 L 88.0,134.0 L 83.0,133.0 L 84.0,117.0 L 90.0,81.0 L 94.0,56.0 L 99.0,24.0" fill="#FAFAFA"/>
</svg>
