<?xml version="1.0" ?>
<svg baseProfile="full" height="600px" version="1.1" viewBox="-20.1 -20.1 240.2 240.2" width="600px" xmlns="http://www.w3.org/2000/svg" xmlns:ev="http://www.w3.org/2001/xml-events" xmlns:xlink="http://www.w3.org/1999/xlink">
	<defs/>
	<path d="M 0.0,0.0 L 200.0,0.0 L 200.0,200.0 L 0.0,200.0 L 0.0,0.0" fill="#FDFDFD"/>
	<path d="M 0.0,160.0 L 200.0,160.0 L 200.0,200.0 L 0.0,200.0 L 0.0,160.0" fill="#030303"/>
	<path d="M 161.0,49.0 L 174.0,49.0 L 182.0,54.0 L 187.0,62.0 L 187.0,74.0 L 181.0,83.0 L 165.0,91.0 L 124.0,110.0 L 88.0,126.0 L 71.0,134.0 L 55.0,133.0 L 36.0,131.0 L 34.0,129.0 L 35.0,124.0 L 47.0,107.0 L 54.0,98.0 L 73.0,89.0 L 106.0,74.0 L 143.0,57.0 L 161.0,49.0" fill="#060606"/>
	<path d="M 8.0,168.0 L 12.0,168.0 L 12.0,175.0 L 20.0,175.0 L 20.0,168.0 L 28.0,168.0 L 28.0,180.0 L 36.0,180.0 L 36.0,168.0 L 45.0,168.0 L 45.0,175.0 L 53.0,175.0 L 53.0,168.0 L 62.0,168.0 L 62.0,180.0 L 70.0,180.0 L 70.0,168.0 L 79.0,168.0 L 79.0,175.0 L 87.0,175.0 L 87.0,168.0 L 96.0,168.0 L 96.0,180.0 L 104.0,180.0 L 104.0,168.0 L 113.0,168.0 L 113.0,175.0 L 121.0,175.0 L 121.0,168.0 L 130.0,168.0 L 130.0,180.0 L 138.0,180.0 L 138.0,168.0 L 147.0,168.0 L 147.0,175.0 L 155.0,175.0 L 155.0,168.0 L 163.0,168.0 L 163.0,180.0 L 171.0,180.0 L 171.0,168.0 L 180.0,168.0 L 180.0,175.0 L 188.0,175.0 L 188.0,168.0 L 192.0,168.0 L 192.0,192.0 L 8.0,192.0 L 8.0,168.0" fill="#F7F7F7"/>
	<path d="M 156.0,60.0 L 160.0,61.0 L 168.0,79.0 L 168.0,81.0 L 135.0,96.0 L 100.0,112.0 L 71.0,125.0 L 67.0,124.0 L 59.0,106.0 L 62.0,103.0 L 99.0,86.0 L 134.0,70.0 L 156.0,60.0" fill="#FAFAFA"/>
</svg>
