<?xml version="1.0" ?>
<svg baseProfile="full" height="600px" version="1.1" viewBox="-19.296000000000003 -19.296000000000003 230.592 230.592" width="600px" xmlns="http://www.w3.org/2000/svg" xmlns:ev="http://www.w3.org/2001/xml-events" xmlns:xlink="http://www.w3.org/1999/xlink">
	<defs/>
	<path d="M 0.0,0.0 L 192.0,0.0 L 192.0,192.0 L 0.0,192.0 L 0.0,0.0" fill="#FFFDFD"/>
	<path d="M 24.0,16.0 L 32.0,16.0 L 32.0,24.0 L 40.0,25.0 L 63.0,25.0 L 75.0,23.0 L 89.0,19.0 L 94.0,18.0 L 119.0,18.0 L 135.0,21.0 L 146.0,24.0 L 166.0,31.0 L 168.0,32.0 L 168.0,124.0 L 146.0,117.0 L 123.0,112.0 L 118.0,111.0 L 87.0,111.0 L 51.0,117.0 L 34.0,117.0 L 32.0,116.0 L 32.0,176.0 L 24.0,176.0 L 24.0,16.0" fill="#FF3E01"/>
	<path d="M 24.0,16.0 L 32.0,16.0 L 32.0,176.0 L 24.0,176.0 L 24.0,16.0" fill="#DD2C00"/>
	<path d="M 24.0,116.0 L 32.0,116.0 L 32.0,176.0 L 24.0,176.0 L 24.0,116.0" fill="#455A64"/>
	<path d="M 24.0,16.0 L 32.0,16.0 L 32.0,24.0 L 24.0,24.0 L 24.0,16.0" fill="#455A64"/>
</svg>
