<?xml version="1.0" ?>
<svg baseProfile="full" height="600px" version="1.1" viewBox="-19.296000000000003 -19.296000000000003 230.592 230.592" width="600px" xmlns="http://www.w3.org/2000/svg" xmlns:ev="http://www.w3.org/2001/xml-events" xmlns:xlink="http://www.w3.org/1999/xlink">
	<defs/>
	<path d="M 0.0,0.0 L 192.0,0.0 L 192.0,192.0 L 0.0,192.0 L 0.0,0.0" fill="#FFFDFD"/>
	<path d="M 24.0,16.0 L 32.0,16.0 L 33.0,24.0 L 49.0,28.0 L 70.0,28.0 L 90.0,22.0 L 105.0,17.0 L 109.0,16.0 L 129.0,16.0 L 145.0,20.0 L 161.0,26.0 L 168.0,29.0 L 168.0,121.0 L 163.0,120.0 L 147.0,114.0 L 137.0,111.0 L 126.0,109.0 L 105.0,109.0 L 91.0,113.0 L 72.0,120.0 L 67.0,121.0 L 46.0,121.0 L 33.0,117.0 L 32.0,176.0 L 24.0,176.0 L 24.0,16.0" fill="#FF3E01"/>
	<path d="M 24.0,16.0 L 32.0,16.0 L 32.0,176.0 L 24.0,176.0 L 24.0,16.0" fill="#DD2C00"/>
	<path d="M 24.0,116.0 L 32.0,116.0 L 32.0,176.0 L 24.0,176.0 L 24.0,116.0" fill="#455A64"/>
	<path d="M 24.0,16.0 L 32.0,16.0 L 32.0,24.0 L 24.0,24.0 L 24.0,16.0" fill="#455A64"/>
</svg>
