<?xml version="1.0" ?>
<svg baseProfile="full" height="600px" version="1.1" viewBox="-19.296000000000003 -19.296000000000003 230.592 230.592" width="600px" xmlns="http://www.w3.org/2000/svg" xmlns:ev="http://www.w3.org/2001/xml-events" xmlns:xlink="http://www.w3.org/1999/xlink">
	<defs/>
	<path d="M 0.0,0.0 L 192.0,0.0 L 192.0,192.0 L 0.0,192.0 L 0.0,0.0" fill="#FFFDFD"/>
	<path d="M 24.0,16.0 L 32.0,16.0 L 33.0,23.0 L 54.0,18.0 L 64.0,16.0 L 93.0,16.0 L 109.0,20.0 L 137.0,30.0 L 145.0,31.0 L 168.0,31.0 L 168.0,122.0 L 163.0,124.0 L 143.0,124.0 L 132.0,121.0 L 110.0,113.0 L 92.0,109.0 L 63.0,109.0 L 37.0,115.0 L 33.0,116.0 L 32.0,176.0 L 24.0,176.0 L 24.0,16.0" fill="#FF3E01"/>
	<path d="M 24.0,16.0 L 32.0,16.0 L 32.0,176.0 L 24.0,176.0 L 24.0,16.0" fill="#DD2C00"/>
	<path d="M 24.0,116.0 L 32.0,116.0 L 32.0,176.0 L 24.0,176.0 L 24.0,116.0" fill="#455A64"/>
	<path d="M 24.0,16.0 L 32.0,16.0 L 32.0,24.0 L 24.0,24.0 L 24.0,16.0" fill="#455A64"/>
</svg>
