<?xml version="1.0" ?>
<svg baseProfile="full" height="600px" version="1.1" viewBox="-19.296000000000003 -19.296000000000003 230.592 230.592" width="600px" xmlns="http://www.w3.org/2000/svg" xmlns:ev="http://www.w3.org/2001/xml-events" xmlns:xlink="http://www.w3.org/1999/xlink">
	<defs/>
	<path d="M 0.0,0.0 L 192.0,0.0 L 192.0,192.0 L 0.0,192.0 L 0.0,0.0" fill="#FFFDFD"/>
	<path d="M 24.0,16.0 L 32.0,16.0 L 32.0,24.0 L 63.0,27.0 L 73.0,28.0 L 110.0,28.0 L 145.0,21.0 L 157.0,18.0 L 168.0,17.0 L 168.0,109.0 L 137.0,116.0 L 109.0,121.0 L 70.0,121.0 L 34.0,117.0 L 32.0,116.0 L 32.0,176.0 L 24.0,176.0 L 24.0,16.0" fill="#FF3E01"/>
	<path d="M 24.0,16.0 L 32.0,16.0 L 32.0,176.0 L 24.0,176.0 L 24.0,16.0" fill="#DD2C00"/>
	<path d="M 24.0,116.0 L 32.0,116.0 L 32.0,176.0 L 24.0,176.0 L 24.0,116.0" fill="#455A64"/>
	<path d="M 24.0,16.0 L 32.0,16.0 L 32.0,24.0 L 24.0,24.0 L 24.0,16.0" fill="#455A64"/>
</svg>
