<?xml version="1.0" ?>
<svg baseProfile="full" height="600px" version="1.1" viewBox="-20.1 -20.1 240.2 240.2" width="600px" xmlns="http://www.w3.org/2000/svg" xmlns:ev="http://www.w3.org/2001/xml-events" xmlns:xlink="http://www.w3.org/1999/xlink">
	<defs/>
	<path d="M 0.0,0.0 L 200.0,0.0 L 200.0,200.0 L 0.0,200.0 L 0.0,0.0" fill="#060606"/>
	<path d="M 0.0,0.0 L 200.0,0.0 L 200.0,200.0 L 0.0,200.0 L 0.0,0.0 M 58.0,10.0 L 43.0,26.0 L 32.0,38.0 L 18.0,53.0 L 7.0,65.0 L 3.0,69.0 L 4.0,73.0 L 20.0,94.0 L 36.0,115.0 L 48.0,131.0 L 64.0,152.0 L 80.0,173.0 L 92.0,189.0 L 99.0,198.0 L 103.0,196.0 L 119.0,175.0 L 133.0,156.0 L 147.0,138.0 L 159.0,122.0 L 175.0,101.0 L 187.0,85.0 L 197.0,72.0 L 195.0,68.0 L 188.0,60.0 L 172.0,43.0 L 160.0,30.0 L 153.0,22.0 L 142.0,10.0 L 58.0,10.0" fill="#FDFDFD"/>
	<path d="M 53.0,75.0 L 139.0,75.0 L 138.0,80.0 L 124.0,118.0 L 109.0,158.0 L 101.0,179.0 L 99.0,181.0 L 80.0,138.0 L 61.0,95.0 L 53.0,77.0 L 53.0,75.0" fill="#FCFCFC"/>
	<path d="M 97.0,21.0 L 99.0,21.0 L 107.0,31.0 L 116.0,42.0 L 130.0,59.0 L 136.0,67.0 L 56.0,67.0 L 62.0,59.0 L 69.0,52.0 L 76.0,44.0 L 90.0,29.0 L 97.0,21.0" fill="#F9F9F9"/>
	<path d="M 148.0,75.0 L 181.0,75.0 L 177.0,82.0 L 167.0,95.0 L 153.0,114.0 L 139.0,133.0 L 126.0,151.0 L 116.0,164.0 L 115.0,162.0 L 142.0,90.0 L 147.0,76.0 L 148.0,75.0" fill="#F8F8F8"/>
	<path d="M 17.0,75.0 L 44.0,75.0 L 49.0,85.0 L 67.0,126.0 L 81.0,158.0 L 80.0,160.0 L 64.0,139.0 L 49.0,119.0 L 35.0,101.0 L 21.0,82.0 L 17.0,77.0 L 17.0,75.0" fill="#F8F8F8"/>
	<path d="M 144.0,27.0 L 150.0,32.0 L 157.0,40.0 L 168.0,52.0 L 177.0,62.0 L 180.0,67.0 L 148.0,67.0 L 147.0,65.0 L 144.0,33.0 L 144.0,27.0" fill="#F7F7F7"/>
	<path d="M 107.0,18.0 L 135.0,18.0 L 139.0,53.0 L 138.0,57.0 L 130.0,48.0 L 121.0,37.0 L 112.0,26.0 L 107.0,20.0 L 107.0,18.0" fill="#F4F4F4"/>
	<path d="M 63.0,18.0 L 89.0,18.0 L 83.0,25.0 L 74.0,35.0 L 62.0,48.0 L 55.0,56.0 L 54.0,52.0 L 60.0,28.0 L 62.0,19.0 L 63.0,18.0" fill="#F4F4F4"/>
	<path d="M 50.0,31.0 L 51.0,31.0 L 50.0,40.0 L 44.0,64.0 L 43.0,67.0 L 17.0,67.0 L 23.0,60.0 L 39.0,43.0 L 50.0,31.0" fill="#F4F4F4"/>
</svg>
