<?xml version="1.0" ?>
<svg baseProfile="full" height="600px" version="1.1" viewBox="-12.06 -12.06 144.12 144.12" width="600px" xmlns="http://www.w3.org/2000/svg" xmlns:ev="http://www.w3.org/2001/xml-events" xmlns:xlink="http://www.w3.org/1999/xlink">
	<defs/>
	<path d="M 0.0,0.0 L 120.0,0.0 L 120.0,120.0 L 0.0,120.0 L 0.0,0.0" fill="#FCFCFC"/>
	<path d="M 31.0,20.0 L 89.0,20.0 L 95.0,25.0 L 104.0,36.0 L 113.0,46.0 L 116.0,50.0 L 115.0,55.0 L 62.0,108.0 L 57.0,107.0 L 4.0,54.0 L 5.0,49.0 L 17.0,35.0 L 28.0,22.0 L 31.0,20.0" fill="#040404"/>
	<path d="M 46.0,56.0 L 74.0,56.0 L 67.0,76.0 L 61.0,91.0 L 59.0,91.0 L 46.0,58.0 L 46.0,56.0" fill="#FAFAFA"/>
	<path d="M 83.0,56.0 L 102.0,56.0 L 96.0,63.0 L 72.0,87.0 L 71.0,85.0 L 82.0,57.0 L 83.0,56.0" fill="#F3F3F3"/>
	<path d="M 19.0,56.0 L 38.0,56.0 L 49.0,85.0 L 48.0,87.0 L 36.0,74.0 L 19.0,57.0 L 19.0,56.0" fill="#F6F6F6"/>
	<path d="M 59.0,32.0 L 63.0,34.0 L 72.0,47.0 L 72.0,48.0 L 48.0,48.0 L 55.0,37.0 L 59.0,32.0" fill="#F5F5F5"/>
	<path d="M 89.0,33.0 L 93.0,35.0 L 102.0,46.0 L 103.0,48.0 L 85.0,48.0 L 89.0,33.0" fill="#F0F0F0"/>
	<path d="M 29.0,33.0 L 31.0,33.0 L 35.0,48.0 L 17.0,48.0 L 23.0,40.0 L 29.0,33.0" fill="#F1F1F1"/>
	<path d="M 68.0,28.0 L 82.0,28.0 L 81.0,35.0 L 79.0,42.0 L 77.0,42.0 L 68.0,29.0 L 68.0,28.0" fill="#F2F2F2"/>
	<path d="M 38.0,28.0 L 52.0,28.0 L 45.0,39.0 L 43.0,42.0 L 41.0,42.0 L 38.0,33.0 L 38.0,28.0" fill="#F2F2F2"/>
</svg>
