<?xml version="1.0" ?>
<svg baseProfile="full" height="600px" version="1.1" viewBox="-20.1 -20.1 240.2 240.2" width="600px" xmlns="http://www.w3.org/2000/svg" xmlns:ev="http://www.w3.org/2001/xml-events" xmlns:xlink="http://www.w3.org/1999/xlink">
	<defs/>
	<path d="M 0.0,0.0 L 200.0,0.0 L 200.0,200.0 L 0.0,200.0 L 0.0,0.0" fill="#080808"/>
	<path d="M 0.0,0.0 L 200.0,0.0 L 200.0,200.0 L 0.0,200.0 L 0.0,0.0 M 60.0,4.0 L 51.0,14.0 L 42.0,25.0 L 32.0,36.0 L 23.0,47.0 L 13.0,58.0 L 7.0,65.0 L 8.0,70.0 L 19.0,86.0 L 31.0,103.0 L 43.0,120.0 L 55.0,137.0 L 67.0,154.0 L 81.0,174.0 L 93.0,191.0 L 99.0,199.0 L 103.0,197.0 L 114.0,181.0 L 126.0,164.0 L 138.0,147.0 L 150.0,130.0 L 162.0,113.0 L 174.0,96.0 L 188.0,76.0 L 194.0,67.0 L 181.0,52.0 L 169.0,38.0 L 158.0,25.0 L 145.0,10.0 L 140.0,4.0 L 60.0,4.0" fill="#FDFDFD"/>
	<path d="M 46.0,72.0 L 116.0,72.0 L 110.0,109.0 L 101.0,166.0 L 99.0,179.0 L 97.0,179.0 L 80.0,144.0 L 69.0,121.0 L 53.0,88.0 L 46.0,72.0" fill="#FCFCFC"/>
	<path d="M 123.0,72.0 L 169.0,72.0 L 167.0,77.0 L 153.0,100.0 L 137.0,126.0 L 120.0,154.0 L 108.0,173.0 L 107.0,171.0 L 115.0,122.0 L 123.0,72.0" fill="#FAFAFA"/>
	<path d="M 87.0,17.0 L 90.0,18.0 L 110.0,57.0 L 112.0,60.0 L 112.0,63.0 L 49.0,63.0 L 51.0,59.0 L 60.0,49.0 L 69.0,38.0 L 82.0,23.0 L 87.0,17.0" fill="#FBFBFB"/>
	<path d="M 130.0,18.0 L 135.0,23.0 L 148.0,38.0 L 157.0,49.0 L 168.0,62.0 L 168.0,63.0 L 124.0,63.0 L 126.0,47.0 L 129.0,23.0 L 130.0,18.0" fill="#FAFAFA"/>
	<path d="M 20.0,72.0 L 38.0,72.0 L 49.0,95.0 L 64.0,126.0 L 74.0,147.0 L 73.0,149.0 L 57.0,126.0 L 45.0,109.0 L 33.0,92.0 L 21.0,75.0 L 20.0,72.0" fill="#F5F5F5"/>
	<path d="M 96.0,13.0 L 123.0,13.0 L 121.0,34.0 L 118.0,54.0 L 115.0,51.0 L 98.0,18.0 L 96.0,13.0" fill="#F9F9F9"/>
	<path d="M 64.0,13.0 L 80.0,13.0 L 74.0,21.0 L 65.0,31.0 L 56.0,42.0 L 51.0,47.0 L 54.0,37.0 L 63.0,14.0 L 64.0,13.0" fill="#F3F3F3"/>
	<path d="M 47.0,32.0 L 48.0,34.0 L 37.0,63.0 L 21.0,63.0 L 25.0,57.0 L 35.0,46.0 L 44.0,35.0 L 47.0,32.0" fill="#F6F6F6"/>
</svg>
