<?xml version="1.0" ?>
<svg baseProfile="full" height="600px" version="1.1" viewBox="-12.06 -12.06 144.12 144.12" width="600px" xmlns="http://www.w3.org/2000/svg" xmlns:ev="http://www.w3.org/2001/xml-events" xmlns:xlink="http://www.w3.org/1999/xlink">
	<defs/>
	<path d="M 0.0,0.0 L 120.0,0.0 L 120.0,120.0 L 0.0,120.0 L 0.0,0.0" fill="#FCFCFC"/>
	<path d="M 32.0,15.0 L 88.0,15.0 L 93.0,20.0 L 104.0,33.0 L 114.0,46.0 L 114.0,52.0 L 106.0,60.0 L 99.0,68.0 L 84.0,84.0 L 72.0,97.0 L 62.0,108.0 L 57.0,107.0 L 42.0,91.0 L 31.0,79.0 L 17.0,64.0 L 6.0,52.0 L 6.0,46.0 L 19.0,30.0 L 29.0,17.0 L 32.0,15.0" fill="#060606"/>
	<path d="M 36.0,53.0 L 60.0,53.0 L 58.0,81.0 L 57.0,89.0 L 54.0,86.0 L 39.0,60.0 L 36.0,55.0 L 36.0,53.0" fill="#F8F8F8"/>
	<path d="M 67.0,53.0 L 91.0,53.0 L 84.0,64.0 L 71.0,82.0 L 66.0,89.0 L 65.0,89.0 L 66.0,69.0 L 67.0,53.0" fill="#F4F4F4"/>
	<path d="M 47.0,28.0 L 50.0,31.0 L 57.0,45.0 L 36.0,45.0 L 38.0,40.0 L 46.0,29.0 L 47.0,28.0" fill="#EDEDED"/>
	<path d="M 77.0,28.0 L 82.0,33.0 L 89.0,43.0 L 89.0,45.0 L 70.0,45.0 L 73.0,36.0 L 77.0,28.0" fill="#EDEDED"/>
	<path d="M 55.0,24.0 L 70.0,24.0 L 68.0,30.0 L 64.0,39.0 L 60.0,35.0 L 55.0,24.0" fill="#F5F5F5"/>
	<path d="M 19.0,53.0 L 26.0,53.0 L 32.0,62.0 L 36.0,69.0 L 35.0,71.0 L 19.0,54.0 L 19.0,53.0" fill="#E8E8E8"/>
	<path d="M 25.0,35.0 L 26.0,39.0 L 25.0,45.0 L 18.0,45.0 L 22.0,39.0 L 25.0,35.0" fill="#DCDCDC"/>
	<path d="M 98.0,53.0 L 101.0,54.0 L 92.0,64.0 L 92.0,61.0 L 98.0,53.0" fill="#C0C0C0"/>
</svg>
