<?xml version="1.0" ?>
<svg baseProfile="full" height="600px" version="1.1" viewBox="-12.06 -12.06 144.12 144.12" width="600px" xmlns="http://www.w3.org/2000/svg" xmlns:ev="http://www.w3.org/2001/xml-events" xmlns:xlink="http://www.w3.org/1999/xlink">
	<defs/>
	<path d="M 0.0,0.0 L 120.0,0.0 L 120.0,120.0 L 0.0,120.0 L 0.0,0.0" fill="#FCFCFC"/>
	<path d="M 32.0,18.0 L 88.0,18.0 L 96.0,25.0 L 105.0,36.0 L 115.0,48.0 L 115.0,54.0 L 88.0,81.0 L 81.0,89.0 L 62.0,108.0 L 57.0,107.0 L 34.0,84.0 L 27.0,76.0 L 5.0,54.0 L 5.0,48.0 L 18.0,33.0 L 27.0,22.0 L 32.0,18.0" fill="#060606"/>
	<path d="M 41.0,55.0 L 67.0,55.0 L 63.0,75.0 L 59.0,91.0 L 56.0,88.0 L 45.0,65.0 L 41.0,57.0 L 41.0,55.0" fill="#F6F6F6"/>
	<path d="M 75.0,55.0 L 96.0,55.0 L 93.0,60.0 L 83.0,71.0 L 74.0,82.0 L 69.0,88.0 L 68.0,88.0 L 69.0,79.0 L 74.0,57.0 L 75.0,55.0" fill="#F6F6F6"/>
	<path d="M 53.0,30.0 L 55.0,30.0 L 64.0,45.0 L 64.0,47.0 L 41.0,47.0 L 47.0,38.0 L 53.0,30.0" fill="#F3F3F3"/>
	<path d="M 19.0,55.0 L 31.0,55.0 L 35.0,61.0 L 43.0,78.0 L 42.0,80.0 L 19.0,57.0 L 19.0,55.0" fill="#EFEFEF"/>
	<path d="M 83.0,31.0 L 88.0,35.0 L 97.0,46.0 L 97.0,47.0 L 78.0,47.0 L 80.0,38.0 L 83.0,31.0" fill="#F4F4F4"/>
	<path d="M 62.0,27.0 L 75.0,27.0 L 73.0,36.0 L 71.0,41.0 L 67.0,36.0 L 62.0,27.0" fill="#F7F7F7"/>
	<path d="M 27.0,35.0 L 28.0,35.0 L 29.0,47.0 L 17.0,47.0 L 23.0,39.0 L 27.0,35.0" fill="#EEEEEE"/>
	<path d="M 36.0,27.0 L 45.0,27.0 L 43.0,32.0 L 38.0,38.0 L 36.0,36.0 L 36.0,27.0" fill="#F1F1F1"/>
</svg>
