<?xml version="1.0" ?>
<svg baseProfile="full" height="600px" version="1.1" viewBox="-12.06 -12.06 144.12 144.12" width="600px" xmlns="http://www.w3.org/2000/svg" xmlns:ev="http://www.w3.org/2001/xml-events" xmlns:xlink="http://www.w3.org/1999/xlink">
	<defs/>
	<path d="M 0.0,0.0 L 120.0,0.0 L 120.0,120.0 L 0.0,120.0 L 0.0,0.0" fill="#FDFDFD"/>
	<path d="M 32.0,19.0 L 88.0,19.0 L 96.0,26.0 L 108.0,40.0 L 116.0,50.0 L 115.0,55.0 L 62.0,108.0 L 57.0,107.0 L 4.0,54.0 L 5.0,49.0 L 14.0,38.0 L 27.0,23.0 L 32.0,19.0" fill="#080808"/>
	<path d="M 48.0,56.0 L 75.0,56.0 L 72.0,66.0 L 61.0,92.0 L 59.0,90.0 L 48.0,56.0" fill="#FAFAFA"/>
	<path d="M 20.0,56.0 L 40.0,56.0 L 50.0,85.0 L 49.0,87.0 L 35.0,73.0 L 28.0,65.0 L 20.0,57.0 L 20.0,56.0" fill="#F4F4F4"/>
	<path d="M 84.0,56.0 L 101.0,56.0 L 95.0,63.0 L 79.0,80.0 L 72.0,86.0 L 75.0,77.0 L 84.0,56.0" fill="#F2F2F2"/>
	<path d="M 61.0,31.0 L 66.0,36.0 L 74.0,47.0 L 74.0,48.0 L 50.0,48.0 L 52.0,44.0 L 61.0,31.0" fill="#ECECEC"/>
	<path d="M 31.0,32.0 L 33.0,33.0 L 37.0,46.0 L 37.0,48.0 L 19.0,48.0 L 21.0,44.0 L 31.0,32.0" fill="#E7E7E7"/>
	<path d="M 90.0,33.0 L 95.0,38.0 L 103.0,47.0 L 103.0,48.0 L 87.0,48.0 L 88.0,40.0 L 90.0,33.0" fill="#E9E9E9"/>
	<path d="M 39.0,28.0 L 53.0,28.0 L 51.0,32.0 L 44.0,42.0 L 42.0,40.0 L 39.0,28.0" fill="#F5F5F5"/>
	<path d="M 70.0,28.0 L 82.0,28.0 L 81.0,39.0 L 79.0,41.0 L 71.0,31.0 L 70.0,28.0" fill="#F4F4F4"/>
</svg>
