<?xml version="1.0" ?>
<svg baseProfile="full" height="600px" version="1.1" viewBox="-20.1 -20.1 240.2 240.2" width="600px" xmlns="http://www.w3.org/2000/svg" xmlns:ev="http://www.w3.org/2001/xml-events" xmlns:xlink="http://www.w3.org/1999/xlink">
	<defs/>
	<path d="M 0.0,0.0 L 200.0,0.0 L 200.0,200.0 L 0.0,200.0 L 0.0,0.0" fill="#070707"/>
	<path d="M 0.0,0.0 L 200.0,0.0 L 200.0,200.0 L 101.0,200.0 L 103.0,196.0 L 110.0,185.0 L 122.0,168.0 L 138.0,145.0 L 149.0,129.0 L 165.0,106.0 L 181.0,83.0 L 192.0,67.0 L 188.0,61.0 L 175.0,46.0 L 166.0,35.0 L 154.0,21.0 L 142.0,7.0 L 140.0,4.0 L 60.0,4.0 L 49.0,17.0 L 37.0,31.0 L 28.0,42.0 L 16.0,56.0 L 8.0,66.0 L 15.0,77.0 L 31.0,100.0 L 42.0,116.0 L 58.0,139.0 L 69.0,155.0 L 85.0,178.0 L 98.0,197.0 L 99.0,200.0 L 0.0,200.0 L 0.0,0.0" fill="#FDFDFD"/>
	<path d="M 94.0,71.0 L 157.0,71.0 L 155.0,77.0 L 136.0,115.0 L 126.0,134.0 L 104.0,178.0 L 102.0,179.0 L 98.0,128.0 L 94.0,80.0 L 94.0,71.0" fill="#FCFCFC"/>
	<path d="M 35.0,71.0 L 86.0,71.0 L 87.0,73.0 L 93.0,146.0 L 94.0,158.0 L 94.0,174.0 L 90.0,169.0 L 75.0,142.0 L 63.0,121.0 L 47.0,93.0 L 35.0,72.0 L 35.0,71.0" fill="#FAFAFA"/>
	<path d="M 116.0,15.0 L 121.0,20.0 L 132.0,33.0 L 141.0,44.0 L 155.0,61.0 L 155.0,62.0 L 96.0,62.0 L 97.0,57.0 L 115.0,16.0 L 116.0,15.0" fill="#FBFBFB"/>
	<path d="M 74.0,17.0 L 76.0,18.0 L 84.0,59.0 L 84.0,62.0 L 37.0,62.0 L 41.0,56.0 L 54.0,41.0 L 65.0,28.0 L 74.0,17.0" fill="#FAFAFA"/>
	<path d="M 82.0,12.0 L 109.0,12.0 L 100.0,33.0 L 91.0,53.0 L 89.0,50.0 L 82.0,15.0 L 82.0,12.0" fill="#F8F8F8"/>
	<path d="M 166.0,71.0 L 180.0,71.0 L 173.0,82.0 L 159.0,102.0 L 148.0,118.0 L 134.0,138.0 L 133.0,136.0 L 159.0,84.0 L 166.0,71.0" fill="#F4F4F4"/>
	<path d="M 152.0,31.0 L 157.0,36.0 L 166.0,46.0 L 175.0,57.0 L 178.0,62.0 L 166.0,62.0 L 162.0,56.0 L 152.0,33.0 L 152.0,31.0" fill="#F3F3F3"/>
	<path d="M 125.0,12.0 L 136.0,12.0 L 146.0,36.0 L 145.0,38.0 L 136.0,27.0 L 125.0,13.0 L 125.0,12.0" fill="#EEEEEE"/>
	<path d="M 20.0,71.0 L 26.0,71.0 L 32.0,81.0 L 47.0,107.0 L 46.0,109.0 L 38.0,98.0 L 25.0,79.0 L 20.0,71.0" fill="#EDEDED"/>
	<path d="M 64.0,12.0 L 68.0,13.0 L 57.0,26.0 L 57.0,23.0 L 63.0,13.0 L 64.0,12.0" fill="#E1E1E1"/>
	<path d="M 31.0,50.0 L 31.0,53.0 L 26.0,62.0 L 22.0,61.0 L 31.0,50.0" fill="#DEDEDE"/>
	<path d="M 139.0,127.0 L 140.0,130.0 L 134.0,138.0 L 133.0,136.0 L 137.0,128.0 L 139.0,127.0" fill="#DFDFDF"/>
	<path d="M 40.0,98.0 L 42.0,98.0 L 47.0,107.0 L 46.0,109.0 L 40.0,101.0 L 40.0,98.0" fill="#CECECE"/>
</svg>
