<?xml version="1.0" ?>
<svg baseProfile="full" height="600px" version="1.1" viewBox="-19.296000000000003 -19.296000000000003 230.592 230.592" width="600px" xmlns="http://www.w3.org/2000/svg" xmlns:ev="http://www.w3.org/2001/xml-events" xmlns:xlink="http://www.w3.org/1999/xlink">
	<defs/>
	<path d="M 0.0,0.0 L 192.0,0.0 L 192.0,192.0 L 0.0,192.0 L 0.0,0.0" fill="#F44438"/>
	<path d="M 0.0,0.0 L 192.0,0.0 L 192.0,192.0 L 0.0,192.0 L 0.0,0.0 M 92.0,9.0 L 80.0,22.0 L 76.0,27.0 L 70.0,27.0 L 52.0,22.0 L 49.0,22.0 L 46.0,35.0 L 45.0,48.0 L 36.0,50.0 L 20.0,54.0 L 19.0,58.0 L 26.0,78.0 L 25.0,82.0 L 9.0,98.0 L 11.0,102.0 L 21.0,111.0 L 27.0,116.0 L 29.0,116.0 L 23.0,135.0 L 22.0,143.0 L 41.0,147.0 L 48.0,147.0 L 50.0,156.0 L 54.0,171.0 L 55.0,173.0 L 64.0,171.0 L 78.0,166.0 L 82.0,167.0 L 98.0,183.0 L 102.0,181.0 L 111.0,171.0 L 116.0,165.0 L 124.0,166.0 L 140.0,170.0 L 143.0,170.0 L 147.0,148.0 L 147.0,144.0 L 156.0,142.0 L 171.0,138.0 L 174.0,136.0 L 166.0,113.0 L 168.0,109.0 L 183.0,94.0 L 181.0,90.0 L 171.0,81.0 L 165.0,76.0 L 163.0,76.0 L 167.0,63.0 L 170.0,52.0 L 170.0,49.0 L 149.0,45.0 L 144.0,45.0 L 142.0,35.0 L 137.0,18.0 L 116.0,25.0 L 111.0,26.0 L 94.0,9.0 L 92.0,9.0" fill="#FEFCFC"/>
	<path d="M 73.0,59.0 L 81.0,59.0 L 89.0,63.0 L 92.0,68.0 L 92.0,83.0 L 88.0,89.0 L 83.0,92.0 L 72.0,92.0 L 66.0,88.0 L 63.0,83.0 L 63.0,70.0 L 66.0,64.0 L 71.0,60.0 L 73.0,59.0" fill="#FEF8F8"/>
	<path d="M 109.0,100.0 L 120.0,100.0 L 126.0,104.0 L 129.0,109.0 L 129.0,122.0 L 126.0,128.0 L 121.0,132.0 L 118.0,133.0 L 110.0,133.0 L 103.0,129.0 L 100.0,123.0 L 100.0,109.0 L 104.0,103.0 L 109.0,100.0" fill="#FEF9F8"/>
	<path d="M 110.0,66.0 L 114.0,67.0 L 117.0,70.0 L 102.0,94.0 L 86.0,120.0 L 82.0,126.0 L 78.0,125.0 L 75.0,122.0 L 91.0,96.0 L 103.0,77.0 L 110.0,66.0" fill="#FEF6F6"/>
	<path d="M 111.0,107.0 L 117.0,107.0 L 121.0,111.0 L 121.0,121.0 L 117.0,126.0 L 112.0,126.0 L 108.0,121.0 L 108.0,110.0 L 111.0,107.0" fill="#F44A3E"/>
	<path d="M 75.0,66.0 L 80.0,66.0 L 84.0,70.0 L 84.0,81.0 L 80.0,85.0 L 73.0,84.0 L 71.0,80.0 L 71.0,71.0 L 75.0,66.0" fill="#F4493C"/>
</svg>
