<?xml version="1.0" ?>
<svg baseProfile="full" height="600px" version="1.1" viewBox="-20.1 -20.1 240.2 240.2" width="600px" xmlns="http://www.w3.org/2000/svg" xmlns:ev="http://www.w3.org/2001/xml-events" xmlns:xlink="http://www.w3.org/1999/xlink">
	<defs/>
	<path d="M 0.0,0.0 L 200.0,0.0 L 200.0,200.0 L 0.0,200.0 L 0.0,0.0" fill="#FCFCFC"/>
	<path d="M 101.0,17.0 L 107.0,17.0 L 113.0,21.0 L 120.0,28.0 L 142.0,28.0 L 146.0,32.0 L 151.0,45.0 L 151.0,48.0 L 162.0,51.0 L 168.0,54.0 L 171.0,57.0 L 171.0,70.0 L 170.0,78.0 L 177.0,85.0 L 182.0,92.0 L 181.0,99.0 L 172.0,112.0 L 175.0,124.0 L 175.0,133.0 L 170.0,138.0 L 159.0,143.0 L 157.0,143.0 L 155.0,155.0 L 152.0,162.0 L 149.0,165.0 L 129.0,166.0 L 118.0,179.0 L 116.0,180.0 L 110.0,180.0 L 97.0,173.0 L 90.0,174.0 L 80.0,178.0 L 73.0,177.0 L 66.0,168.0 L 62.0,162.0 L 46.0,160.0 L 41.0,157.0 L 39.0,154.0 L 38.0,147.0 L 38.0,136.0 L 33.0,134.0 L 22.0,126.0 L 21.0,117.0 L 26.0,105.0 L 25.0,100.0 L 19.0,88.0 L 19.0,82.0 L 24.0,77.0 L 33.0,69.0 L 34.0,49.0 L 39.0,45.0 L 55.0,41.0 L 63.0,26.0 L 67.0,23.0 L 75.0,24.0 L 84.0,26.0 L 90.0,25.0 L 101.0,17.0" fill="#FBFBFB"/>
	<path d="M 101.0,17.0 L 107.0,17.0 L 113.0,21.0 L 120.0,28.0 L 142.0,28.0 L 146.0,32.0 L 151.0,45.0 L 151.0,48.0 L 162.0,51.0 L 168.0,54.0 L 171.0,57.0 L 171.0,70.0 L 170.0,78.0 L 177.0,85.0 L 182.0,92.0 L 181.0,99.0 L 172.0,112.0 L 175.0,124.0 L 175.0,133.0 L 170.0,138.0 L 159.0,143.0 L 157.0,143.0 L 155.0,155.0 L 152.0,162.0 L 149.0,165.0 L 129.0,166.0 L 118.0,179.0 L 116.0,180.0 L 110.0,180.0 L 97.0,173.0 L 90.0,174.0 L 80.0,178.0 L 73.0,177.0 L 66.0,168.0 L 62.0,162.0 L 46.0,160.0 L 41.0,157.0 L 39.0,154.0 L 38.0,147.0 L 38.0,136.0 L 33.0,134.0 L 22.0,126.0 L 21.0,117.0 L 26.0,105.0 L 25.0,100.0 L 19.0,88.0 L 19.0,82.0 L 24.0,77.0 L 33.0,69.0 L 34.0,49.0 L 39.0,45.0 L 55.0,41.0 L 63.0,26.0 L 67.0,23.0 L 75.0,24.0 L 84.0,26.0 L 90.0,25.0 L 101.0,17.0 M 103.0,25.0 L 89.0,35.0 L 80.0,33.0 L 69.0,31.0 L 60.0,48.0 L 42.0,52.0 L 41.0,53.0 L 40.0,73.0 L 29.0,83.0 L 27.0,84.0 L 28.0,89.0 L 35.0,102.0 L 32.0,111.0 L 29.0,118.0 L 29.0,122.0 L 44.0,132.0 L 47.0,152.0 L 57.0,153.0 L 67.0,153.0 L 69.0,158.0 L 77.0,170.0 L 86.0,167.0 L 94.0,164.0 L 99.0,165.0 L 112.0,172.0 L 115.0,171.0 L 124.0,160.0 L 126.0,158.0 L 146.0,157.0 L 150.0,140.0 L 150.0,138.0 L 156.0,136.0 L 167.0,130.0 L 166.0,122.0 L 164.0,113.0 L 165.0,108.0 L 174.0,96.0 L 172.0,92.0 L 163.0,82.0 L 162.0,81.0 L 163.0,60.0 L 147.0,54.0 L 145.0,54.0 L 142.0,43.0 L 139.0,36.0 L 131.0,36.0 L 118.0,37.0 L 106.0,25.0 L 103.0,25.0" fill="#090909"/>
	<path d="M 115.0,100.0 L 122.0,100.0 L 128.0,103.0 L 131.0,107.0 L 131.0,131.0 L 126.0,137.0 L 124.0,138.0 L 114.0,138.0 L 109.0,134.0 L 107.0,130.0 L 107.0,108.0 L 113.0,101.0 L 115.0,100.0" fill="#090909"/>
	<path d="M 75.0,62.0 L 85.0,62.0 L 91.0,66.0 L 93.0,70.0 L 93.0,91.0 L 90.0,96.0 L 87.0,99.0 L 84.0,100.0 L 77.0,100.0 L 71.0,96.0 L 69.0,92.0 L 69.0,69.0 L 75.0,62.0" fill="#070707"/>
	<path d="M 118.0,61.0 L 124.0,61.0 L 123.0,66.0 L 110.0,90.0 L 97.0,113.0 L 83.0,138.0 L 82.0,139.0 L 76.0,139.0 L 77.0,134.0 L 92.0,107.0 L 108.0,78.0 L 117.0,62.0 L 118.0,61.0" fill="#0C0C0C"/>
	<path d="M 78.0,69.0 L 83.0,69.0 L 86.0,72.0 L 86.0,90.0 L 83.0,93.0 L 78.0,93.0 L 76.0,91.0 L 76.0,71.0 L 78.0,69.0" fill="#F7F7F7"/>
	<path d="M 117.0,107.0 L 122.0,108.0 L 124.0,110.0 L 124.0,129.0 L 122.0,131.0 L 116.0,131.0 L 114.0,128.0 L 114.0,110.0 L 117.0,107.0" fill="#F7F7F7"/>
</svg>
