<?xml version="1.0" ?>
<svg baseProfile="full" height="600px" version="1.1" viewBox="-19.296000000000003 -19.296000000000003 230.592 230.592" width="600px" xmlns="http://www.w3.org/2000/svg" xmlns:ev="http://www.w3.org/2001/xml-events" xmlns:xlink="http://www.w3.org/1999/xlink">
	<defs/>
	<path d="M 0.0,0.0 L 192.0,0.0 L 192.0,192.0 L 0.0,192.0 L 0.0,0.0" fill="#F44538"/>
	<path d="M 0.0,0.0 L 192.0,0.0 L 192.0,192.0 L 0.0,192.0 L 0.0,0.0 M 110.0,9.0 L 98.0,19.0 L 90.0,25.0 L 85.0,23.0 L 67.0,14.0 L 65.0,14.0 L 56.0,35.0 L 55.0,38.0 L 29.0,40.0 L 29.0,50.0 L 31.0,62.0 L 31.0,67.0 L 12.0,79.0 L 9.0,82.0 L 19.0,94.0 L 25.0,103.0 L 14.0,125.0 L 15.0,128.0 L 38.0,137.0 L 39.0,162.0 L 40.0,163.0 L 57.0,162.0 L 67.0,161.0 L 79.0,180.0 L 82.0,183.0 L 95.0,172.0 L 103.0,167.0 L 125.0,178.0 L 127.0,178.0 L 137.0,154.0 L 163.0,152.0 L 163.0,143.0 L 161.0,125.0 L 180.0,113.0 L 183.0,110.0 L 173.0,98.0 L 167.0,89.0 L 178.0,67.0 L 178.0,65.0 L 154.0,55.0 L 153.0,36.0 L 152.0,29.0 L 143.0,29.0 L 131.0,31.0 L 125.0,31.0 L 113.0,12.0 L 110.0,9.0" fill="#FEFCFC"/>
	<path d="M 111.0,100.0 L 120.0,100.0 L 126.0,103.0 L 131.0,109.0 L 132.0,112.0 L 132.0,124.0 L 127.0,132.0 L 122.0,135.0 L 109.0,135.0 L 102.0,129.0 L 100.0,125.0 L 100.0,110.0 L 105.0,103.0 L 111.0,100.0" fill="#FEF7F7"/>
	<path d="M 70.0,57.0 L 82.0,57.0 L 87.0,60.0 L 91.0,65.0 L 92.0,67.0 L 92.0,80.0 L 89.0,87.0 L 84.0,91.0 L 81.0,92.0 L 71.0,92.0 L 65.0,88.0 L 62.0,85.0 L 60.0,80.0 L 60.0,68.0 L 65.0,60.0 L 70.0,57.0" fill="#FEF8F7"/>
	<path d="M 111.0,64.0 L 116.0,65.0 L 118.0,66.0 L 117.0,70.0 L 105.0,90.0 L 93.0,109.0 L 81.0,128.0 L 76.0,127.0 L 74.0,126.0 L 75.0,121.0 L 89.0,99.0 L 102.0,78.0 L 111.0,64.0" fill="#FEF7F7"/>
	<path d="M 112.0,108.0 L 119.0,108.0 L 123.0,112.0 L 123.0,122.0 L 120.0,127.0 L 113.0,128.0 L 109.0,124.0 L 109.0,111.0 L 112.0,108.0" fill="#F4493D"/>
	<path d="M 74.0,64.0 L 81.0,65.0 L 83.0,68.0 L 83.0,80.0 L 79.0,84.0 L 73.0,84.0 L 69.0,80.0 L 69.0,69.0 L 74.0,64.0" fill="#F4493C"/>
</svg>
