<?xml version="1.0" ?>
<svg baseProfile="full" height="600px" version="1.1" viewBox="-19.296000000000003 -19.296000000000003 230.592 230.592" width="600px" xmlns="http://www.w3.org/2000/svg" xmlns:ev="http://www.w3.org/2001/xml-events" xmlns:xlink="http://www.w3.org/1999/xlink">
	<defs/>
	<path d="M 0.0,0.0 L 192.0,0.0 L 192.0,192.0 L 0.0,192.0 L 0.0,0.0" fill="#F44538"/>
	<path d="M 0.0,0.0 L 192.0,0.0 L 192.0,192.0 L 0.0,192.0 L 0.0,0.0 M 94.0,8.0 L 82.0,21.0 L 77.0,27.0 L 70.0,26.0 L 53.0,21.0 L 50.0,21.0 L 45.0,45.0 L 45.0,48.0 L 35.0,49.0 L 19.0,53.0 L 22.0,63.0 L 27.0,79.0 L 12.0,94.0 L 9.0,96.0 L 10.0,100.0 L 22.0,111.0 L 27.0,115.0 L 23.0,131.0 L 21.0,138.0 L 21.0,142.0 L 47.0,147.0 L 53.0,173.0 L 63.0,170.0 L 75.0,166.0 L 80.0,166.0 L 94.0,180.0 L 96.0,183.0 L 100.0,182.0 L 110.0,171.0 L 115.0,165.0 L 121.0,166.0 L 138.0,171.0 L 141.0,171.0 L 144.0,161.0 L 147.0,145.0 L 173.0,139.0 L 172.0,134.0 L 166.0,116.0 L 167.0,111.0 L 180.0,98.0 L 184.0,94.0 L 171.0,82.0 L 165.0,77.0 L 166.0,70.0 L 171.0,53.0 L 171.0,51.0 L 156.0,47.0 L 146.0,45.0 L 144.0,41.0 L 139.0,19.0 L 128.0,22.0 L 113.0,27.0 L 98.0,12.0 L 94.0,8.0" fill="#FEFCFC"/>
	<path d="M 109.0,100.0 L 120.0,100.0 L 126.0,104.0 L 129.0,109.0 L 129.0,124.0 L 125.0,130.0 L 120.0,133.0 L 109.0,133.0 L 103.0,129.0 L 100.0,123.0 L 100.0,109.0 L 104.0,103.0 L 109.0,100.0" fill="#FEF9F8"/>
	<path d="M 72.0,59.0 L 82.0,59.0 L 88.0,62.0 L 92.0,68.0 L 92.0,82.0 L 89.0,88.0 L 85.0,91.0 L 82.0,92.0 L 72.0,92.0 L 66.0,88.0 L 63.0,83.0 L 63.0,68.0 L 67.0,62.0 L 72.0,59.0" fill="#FEF9F9"/>
	<path d="M 110.0,65.0 L 115.0,67.0 L 117.0,68.0 L 115.0,73.0 L 101.0,96.0 L 89.0,115.0 L 82.0,126.0 L 77.0,125.0 L 75.0,124.0 L 77.0,119.0 L 91.0,96.0 L 103.0,77.0 L 110.0,65.0" fill="#FEF6F6"/>
	<path d="M 112.0,107.0 L 119.0,108.0 L 121.0,111.0 L 121.0,122.0 L 117.0,126.0 L 110.0,125.0 L 108.0,121.0 L 108.0,111.0 L 112.0,107.0" fill="#F4493D"/>
	<path d="M 75.0,66.0 L 82.0,67.0 L 84.0,70.0 L 84.0,80.0 L 82.0,84.0 L 75.0,85.0 L 71.0,81.0 L 71.0,70.0 L 75.0,66.0" fill="#F4493D"/>
</svg>
