<?xml version="1.0" ?>
<svg baseProfile="full" height="600px" version="1.1" viewBox="-20.1 -20.1 240.2 240.2" width="600px" xmlns="http://www.w3.org/2000/svg" xmlns:ev="http://www.w3.org/2001/xml-events" xmlns:xlink="http://www.w3.org/1999/xlink">
	<defs/>
	<path d="M 0.0,0.0 L 200.0,0.0 L 200.0,200.0 L 0.0,200.0 L 0.0,0.0" fill="#FCFCFC"/>
	<path d="M 0.0,0.0 L 200.0,0.0 L 200.0,200.0 L 0.0,200.0 L 0.0,0.0 M 80.0,10.0 L 74.0,15.0 L 66.0,25.0 L 66.0,27.0 L 45.0,27.0 L 40.0,31.0 L 36.0,46.0 L 34.0,52.0 L 19.0,60.0 L 16.0,64.0 L 16.0,73.0 L 20.0,85.0 L 19.0,89.0 L 10.0,102.0 L 10.0,110.0 L 17.0,118.0 L 23.0,124.0 L 23.0,133.0 L 22.0,146.0 L 27.0,152.0 L 45.0,158.0 L 52.0,176.0 L 56.0,179.0 L 70.0,178.0 L 79.0,177.0 L 91.0,188.0 L 95.0,190.0 L 102.0,189.0 L 115.0,179.0 L 122.0,179.0 L 133.0,182.0 L 140.0,181.0 L 145.0,175.0 L 151.0,162.0 L 151.0,160.0 L 159.0,159.0 L 170.0,156.0 L 174.0,152.0 L 175.0,129.0 L 183.0,122.0 L 188.0,118.0 L 190.0,114.0 L 189.0,107.0 L 181.0,93.0 L 183.0,84.0 L 186.0,76.0 L 186.0,69.0 L 181.0,64.0 L 169.0,56.0 L 167.0,56.0 L 167.0,48.0 L 165.0,36.0 L 160.0,31.0 L 153.0,30.0 L 139.0,30.0 L 137.0,25.0 L 128.0,13.0 L 126.0,12.0 L 118.0,12.0 L 104.0,18.0 L 100.0,17.0 L 86.0,10.0 L 80.0,10.0" fill="#FCFCFC"/>
	<path d="M 80.0,10.0 L 86.0,10.0 L 101.0,18.0 L 106.0,17.0 L 118.0,12.0 L 126.0,12.0 L 131.0,17.0 L 139.0,28.0 L 139.0,30.0 L 153.0,30.0 L 160.0,31.0 L 165.0,36.0 L 167.0,48.0 L 167.0,56.0 L 172.0,58.0 L 184.0,66.0 L 186.0,69.0 L 186.0,76.0 L 181.0,90.0 L 182.0,95.0 L 190.0,109.0 L 189.0,116.0 L 184.0,121.0 L 177.0,128.0 L 175.0,129.0 L 174.0,152.0 L 170.0,156.0 L 155.0,160.0 L 151.0,160.0 L 149.0,166.0 L 143.0,178.0 L 138.0,182.0 L 130.0,181.0 L 122.0,179.0 L 115.0,179.0 L 102.0,189.0 L 95.0,190.0 L 89.0,186.0 L 79.0,177.0 L 63.0,179.0 L 56.0,179.0 L 51.0,174.0 L 45.0,158.0 L 27.0,152.0 L 22.0,146.0 L 23.0,124.0 L 11.0,112.0 L 10.0,110.0 L 10.0,102.0 L 20.0,88.0 L 18.0,78.0 L 16.0,73.0 L 16.0,64.0 L 21.0,59.0 L 35.0,51.0 L 39.0,33.0 L 43.0,28.0 L 45.0,27.0 L 66.0,27.0 L 68.0,23.0 L 77.0,12.0 L 80.0,10.0 M 82.0,18.0 L 69.0,34.0 L 47.0,35.0 L 45.0,42.0 L 43.0,52.0 L 43.0,57.0 L 37.0,59.0 L 23.0,67.0 L 26.0,78.0 L 28.0,84.0 L 28.0,90.0 L 18.0,104.0 L 19.0,109.0 L 31.0,121.0 L 31.0,132.0 L 30.0,144.0 L 40.0,148.0 L 51.0,152.0 L 58.0,170.0 L 63.0,171.0 L 75.0,169.0 L 81.0,169.0 L 92.0,178.0 L 96.0,182.0 L 100.0,181.0 L 114.0,170.0 L 125.0,172.0 L 136.0,174.0 L 144.0,158.0 L 145.0,154.0 L 160.0,151.0 L 167.0,148.0 L 167.0,126.0 L 180.0,114.0 L 182.0,113.0 L 181.0,109.0 L 172.0,94.0 L 173.0,89.0 L 178.0,75.0 L 178.0,71.0 L 162.0,61.0 L 160.0,61.0 L 158.0,39.0 L 157.0,38.0 L 141.0,37.0 L 134.0,35.0 L 123.0,19.0 L 114.0,22.0 L 105.0,26.0 L 98.0,25.0 L 85.0,18.0 L 82.0,18.0" fill="#080808"/>
	<path d="M 117.0,100.0 L 126.0,100.0 L 133.0,106.0 L 135.0,110.0 L 135.0,133.0 L 131.0,139.0 L 127.0,142.0 L 118.0,143.0 L 113.0,140.0 L 108.0,134.0 L 108.0,109.0 L 112.0,103.0 L 117.0,100.0" fill="#090909"/>
	<path d="M 75.0,57.0 L 82.0,57.0 L 88.0,61.0 L 92.0,66.0 L 92.0,90.0 L 89.0,96.0 L 83.0,100.0 L 74.0,100.0 L 67.0,94.0 L 65.0,90.0 L 65.0,67.0 L 69.0,61.0 L 75.0,57.0" fill="#090909"/>
	<path d="M 120.0,57.0 L 127.0,57.0 L 126.0,62.0 L 113.0,85.0 L 97.0,114.0 L 82.0,141.0 L 80.0,143.0 L 73.0,143.0 L 75.0,137.0 L 91.0,108.0 L 106.0,81.0 L 119.0,58.0 L 120.0,57.0" fill="#0B0B0B"/>
	<path d="M 119.0,108.0 L 124.0,108.0 L 127.0,111.0 L 127.0,132.0 L 124.0,135.0 L 119.0,135.0 L 116.0,132.0 L 116.0,111.0 L 119.0,108.0" fill="#F8F8F8"/>
	<path d="M 75.0,66.0 L 82.0,66.0 L 84.0,68.0 L 84.0,90.0 L 82.0,92.0 L 76.0,92.0 L 73.0,89.0 L 73.0,68.0 L 75.0,66.0" fill="#FAFAFA"/>
</svg>
