<?xml version="1.0" ?>
<svg baseProfile="full" height="600px" version="1.1" viewBox="-20.1 -20.1 240.2 240.2" width="600px" xmlns="http://www.w3.org/2000/svg" xmlns:ev="http://www.w3.org/2001/xml-events" xmlns:xlink="http://www.w3.org/1999/xlink">
	<defs/>
	<path d="M 0.0,0.0 L 200.0,0.0 L 200.0,200.0 L 0.0,200.0 L 0.0,0.0" fill="#FDFDFD"/>
	<path d="M 85.0,28.0 L 91.0,28.0 L 102.0,34.0 L 108.0,33.0 L 115.0,30.0 L 121.0,30.0 L 125.0,32.0 L 133.0,44.0 L 146.0,45.0 L 151.0,48.0 L 153.0,51.0 L 155.0,66.0 L 166.0,73.0 L 169.0,77.0 L 168.0,84.0 L 165.0,92.0 L 165.0,97.0 L 171.0,107.0 L 171.0,113.0 L 167.0,118.0 L 160.0,124.0 L 158.0,124.0 L 158.0,142.0 L 153.0,146.0 L 142.0,149.0 L 139.0,149.0 L 137.0,155.0 L 132.0,163.0 L 129.0,165.0 L 122.0,165.0 L 116.0,163.0 L 110.0,163.0 L 99.0,171.0 L 92.0,170.0 L 82.0,161.0 L 64.0,162.0 L 60.0,158.0 L 55.0,145.0 L 40.0,139.0 L 37.0,134.0 L 38.0,118.0 L 31.0,110.0 L 28.0,106.0 L 28.0,100.0 L 36.0,89.0 L 35.0,81.0 L 34.0,79.0 L 34.0,69.0 L 39.0,65.0 L 48.0,60.0 L 50.0,60.0 L 51.0,52.0 L 53.0,45.0 L 57.0,41.0 L 74.0,40.0 L 82.0,30.0 L 85.0,28.0" fill="#FBFBFB"/>
	<path d="M 85.0,28.0 L 91.0,28.0 L 102.0,34.0 L 108.0,33.0 L 115.0,30.0 L 121.0,30.0 L 125.0,32.0 L 133.0,44.0 L 146.0,45.0 L 151.0,48.0 L 153.0,51.0 L 155.0,66.0 L 166.0,73.0 L 169.0,77.0 L 168.0,84.0 L 165.0,92.0 L 165.0,97.0 L 171.0,107.0 L 171.0,113.0 L 167.0,118.0 L 160.0,124.0 L 158.0,124.0 L 158.0,142.0 L 153.0,146.0 L 142.0,149.0 L 139.0,149.0 L 137.0,155.0 L 132.0,163.0 L 129.0,165.0 L 122.0,165.0 L 116.0,163.0 L 110.0,163.0 L 99.0,171.0 L 92.0,170.0 L 82.0,161.0 L 64.0,162.0 L 60.0,158.0 L 55.0,145.0 L 40.0,139.0 L 37.0,134.0 L 38.0,118.0 L 31.0,110.0 L 28.0,106.0 L 28.0,100.0 L 36.0,89.0 L 35.0,81.0 L 34.0,79.0 L 34.0,69.0 L 39.0,65.0 L 48.0,60.0 L 50.0,60.0 L 51.0,52.0 L 53.0,45.0 L 57.0,41.0 L 74.0,40.0 L 82.0,30.0 L 85.0,28.0 M 87.0,36.0 L 79.0,46.0 L 77.0,48.0 L 60.0,49.0 L 56.0,65.0 L 41.0,73.0 L 44.0,84.0 L 45.0,90.0 L 36.0,102.0 L 38.0,106.0 L 46.0,115.0 L 46.0,133.0 L 61.0,139.0 L 67.0,154.0 L 76.0,153.0 L 85.0,153.0 L 92.0,160.0 L 97.0,163.0 L 109.0,154.0 L 119.0,156.0 L 127.0,157.0 L 134.0,143.0 L 150.0,139.0 L 151.0,121.0 L 163.0,111.0 L 161.0,106.0 L 156.0,97.0 L 157.0,91.0 L 161.0,81.0 L 161.0,79.0 L 149.0,71.0 L 147.0,71.0 L 146.0,56.0 L 145.0,53.0 L 128.0,51.0 L 120.0,39.0 L 116.0,38.0 L 104.0,43.0 L 98.0,41.0 L 89.0,36.0 L 87.0,36.0" fill="#090909"/>
	<path d="M 113.0,100.0 L 121.0,100.0 L 126.0,105.0 L 127.0,106.0 L 127.0,127.0 L 122.0,133.0 L 114.0,134.0 L 108.0,130.0 L 106.0,126.0 L 106.0,107.0 L 111.0,101.0 L 113.0,100.0" fill="#0C0C0C"/>
	<path d="M 80.0,66.0 L 88.0,67.0 L 93.0,72.0 L 94.0,74.0 L 94.0,92.0 L 91.0,97.0 L 86.0,100.0 L 79.0,100.0 L 74.0,95.0 L 73.0,94.0 L 73.0,73.0 L 78.0,67.0 L 80.0,66.0" fill="#0A0A0A"/>
	<path d="M 115.0,66.0 L 121.0,66.0 L 120.0,71.0 L 105.0,98.0 L 90.0,125.0 L 85.0,134.0 L 79.0,134.0 L 80.0,130.0 L 94.0,104.0 L 107.0,81.0 L 115.0,66.0" fill="#0E0E0E"/>
	<path d="M 81.0,73.0 L 86.0,73.0 L 88.0,76.0 L 88.0,91.0 L 85.0,94.0 L 80.0,93.0 L 79.0,92.0 L 79.0,75.0 L 81.0,73.0" fill="#F2F2F2"/>
	<path d="M 114.0,107.0 L 120.0,107.0 L 121.0,108.0 L 121.0,126.0 L 120.0,127.0 L 114.0,127.0 L 112.0,125.0 L 112.0,109.0 L 114.0,107.0" fill="#F2F2F2"/>
</svg>
