<?xml version="1.0" ?>
<svg baseProfile="full" height="600px" version="1.1" viewBox="-12.864 -12.864 153.728 153.728" width="600px" xmlns="http://www.w3.org/2000/svg" xmlns:ev="http://www.w3.org/2001/xml-events" xmlns:xlink="http://www.w3.org/1999/xlink">
	<defs/>
	<path d="M 0.0,0.0 L 128.0,0.0 L 128.0,128.0 L 0.0,128.0 L 0.0,0.0" fill="#FDFDFD"/>
	<path d="M 24.0,12.0 L 78.0,12.0 L 104.0,38.0 L 104.0,117.0 L 24.0,117.0 L 24.0,12.0" fill="#FDFDFD"/>
	<path d="M 24.0,12.0 L 78.0,12.0 L 104.0,38.0 L 104.0,117.0 L 24.0,117.0 L 24.0,12.0 M 32.0,21.0 L 32.0,108.0 L 96.0,108.0 L 96.0,44.0 L 72.0,44.0 L 72.0,21.0 L 32.0,21.0" fill="#0B0B0B"/>
	<path d="M 44.0,84.0 L 84.0,84.0 L 84.0,92.0 L 44.0,92.0 L 44.0,84.0" fill="#000000"/>
	<path d="M 44.0,68.0 L 84.0,68.0 L 84.0,76.0 L 44.0,76.0 L 44.0,68.0" fill="#000000"/>
	<path d="M 44.0,52.0 L 84.0,52.0 L 84.0,60.0 L 44.0,60.0 L 44.0,52.0" fill="#000000"/>
	<path d="M 80.0,27.0 L 87.0,33.0 L 89.0,36.0 L 80.0,36.0 L 80.0,27.0" fill="#FCFCFC"/>
</svg>
