<?xml version="1.0" ?>
<svg baseProfile="full" height="600px" version="1.1" viewBox="-20.1 -20.1 240.2 240.2" width="600px" xmlns="http://www.w3.org/2000/svg" xmlns:ev="http://www.w3.org/2001/xml-events" xmlns:xlink="http://www.w3.org/1999/xlink">
	<defs/>
	<path d="M 0.0,0.0 L 200.0,0.0 L 200.0,200.0 L 0.0,200.0 L 0.0,0.0" fill="#FCFCFC"/>
	<path d="M 0.0,0.0 L 200.0,0.0 L 200.0,200.0 L 0.0,200.0 L 0.0,0.0 M 116.0,7.0 L 40.0,14.0 L 26.0,15.0 L 22.0,16.0 L 22.0,25.0 L 28.0,93.0 L 34.0,163.0 L 37.0,196.0 L 47.0,196.0 L 115.0,190.0 L 171.0,185.0 L 178.0,184.0 L 178.0,169.0 L 173.0,116.0 L 169.0,68.0 L 166.0,38.0 L 152.0,26.0 L 141.0,17.0 L 129.0,7.0 L 116.0,7.0" fill="#FCFCFC"/>
	<path d="M 116.0,7.0 L 129.0,7.0 L 143.0,19.0 L 154.0,28.0 L 166.0,38.0 L 172.0,102.0 L 177.0,158.0 L 178.0,169.0 L 178.0,184.0 L 149.0,187.0 L 81.0,193.0 L 47.0,196.0 L 37.0,196.0 L 28.0,93.0 L 22.0,25.0 L 22.0,16.0 L 26.0,15.0 L 82.0,10.0 L 116.0,7.0 M 120.0,15.0 L 93.0,17.0 L 87.0,18.0 L 48.0,21.0 L 30.0,23.0 L 32.0,48.0 L 38.0,118.0 L 42.0,163.0 L 44.0,188.0 L 70.0,186.0 L 146.0,179.0 L 170.0,177.0 L 168.0,146.0 L 163.0,93.0 L 159.0,45.0 L 146.0,45.0 L 125.0,47.0 L 125.0,33.0 L 123.0,15.0 L 120.0,15.0" fill="#090909"/>
	<path d="M 134.0,132.0 L 143.0,132.0 L 143.0,140.0 L 77.0,146.0 L 64.0,146.0 L 64.0,138.0 L 134.0,132.0" fill="#0C0C0C"/>
	<path d="M 118.0,86.0 L 126.0,86.0 L 126.0,94.0 L 73.0,99.0 L 60.0,99.0 L 60.0,91.0 L 118.0,86.0" fill="#090909"/>
	<path d="M 132.0,21.0 L 137.0,24.0 L 151.0,36.0 L 149.0,38.0 L 133.0,39.0 L 132.0,35.0 L 132.0,21.0" fill="#F2F2F2"/>
	<path d="M 62.0,115.0 L 72.0,115.0 L 72.0,123.0 L 62.0,123.0 L 62.0,115.0" fill="#101010"/>
</svg>
