<?xml version="1.0" ?>
<svg baseProfile="full" height="600px" version="1.1" viewBox="-9.648000000000001 -9.648000000000001 115.296 115.296" width="600px" xmlns="http://www.w3.org/2000/svg" xmlns:ev="http://www.w3.org/2001/xml-events" xmlns:xlink="http://www.w3.org/1999/xlink">
	<defs/>
	<path d="M 0.0,0.0 L 96.0,0.0 L 96.0,96.0 L 0.0,96.0 L 0.0,0.0" fill="#030303"/>
	<path d="M 0.0,0.0 L 96.0,0.0 L 96.0,96.0 L 0.0,96.0 L 0.0,0.0 M 24.0,7.0 L 20.0,11.0 L 19.0,13.0 L 14.0,70.0 L 14.0,80.0 L 19.0,85.0 L 58.0,89.0 L 72.0,89.0 L 76.0,85.0 L 77.0,83.0 L 81.0,34.0 L 82.0,20.0 L 78.0,14.0 L 72.0,10.0 L 32.0,7.0 L 24.0,7.0" fill="#FBFBFB"/>
	<path d="M 31.0,63.0 L 43.0,63.0 L 43.0,71.0 L 35.0,71.0 L 31.0,70.0 L 31.0,63.0" fill="#F8F8F8"/>
</svg>
