<?xml version="1.0" ?>
<svg baseProfile="full" height="600px" version="1.1" viewBox="-16.08 -16.08 192.16 192.16" width="600px" xmlns="http://www.w3.org/2000/svg" xmlns:ev="http://www.w3.org/2001/xml-events" xmlns:xlink="http://www.w3.org/1999/xlink">
	<defs/>
	<path d="M 0.0,0.0 L 160.0,0.0 L 160.0,160.0 L 0.0,160.0 L 0.0,0.0" fill="#FCFDFD"/>
	<path d="M 0.0,0.0 L 160.0,0.0 L 160.0,160.0 L 0.0,160.0 L 0.0,0.0 M 27.0,7.0 L 22.0,124.0 L 22.0,149.0 L 54.0,151.0 L 100.0,153.0 L 133.0,153.0 L 138.0,34.0 L 138.0,13.0 L 136.0,11.0 L 123.0,10.0 L 48.0,7.0 L 27.0,7.0" fill="#FCFDFD"/>
	<path d="M 27.0,7.0 L 48.0,7.0 L 123.0,10.0 L 136.0,11.0 L 138.0,13.0 L 138.0,34.0 L 133.0,153.0 L 100.0,153.0 L 35.0,150.0 L 22.0,149.0 L 22.0,124.0 L 27.0,7.0 M 31.0,11.0 L 26.0,121.0 L 26.0,145.0 L 32.0,146.0 L 101.0,149.0 L 129.0,149.0 L 133.0,56.0 L 134.0,33.0 L 134.0,16.0 L 133.0,15.0 L 122.0,14.0 L 53.0,11.0 L 31.0,11.0" fill="#8192A2"/>
	<path d="M 47.0,110.0 L 63.0,110.0 L 63.0,115.0 L 47.0,115.0 L 47.0,110.0" fill="#94A3B0"/>
</svg>
