<?xml version="1.0" ?>
<svg baseProfile="full" height="600px" version="1.1" viewBox="-9.648000000000001 -9.648000000000001 115.296 115.296" width="600px" xmlns="http://www.w3.org/2000/svg" xmlns:ev="http://www.w3.org/2001/xml-events" xmlns:xlink="http://www.w3.org/1999/xlink">
	<defs/>
	<path d="M 0.0,0.0 L 96.0,0.0 L 96.0,96.0 L 0.0,96.0 L 0.0,0.0" fill="#040404"/>
	<path d="M 0.0,0.0 L 96.0,0.0 L 96.0,96.0 L 0.0,96.0 L 0.0,0.0 M 48.0,8.0 L 18.0,11.0 L 14.0,15.0 L 14.0,27.0 L 18.0,69.0 L 19.0,84.0 L 24.0,89.0 L 37.0,89.0 L 77.0,85.0 L 82.0,80.0 L 82.0,69.0 L 78.0,25.0 L 72.0,18.0 L 60.0,9.0 L 58.0,8.0 L 48.0,8.0" fill="#FBFBFB"/>
	<path d="M 48.0,63.0 L 65.0,63.0 L 65.0,70.0 L 62.0,71.0 L 34.0,73.0 L 34.0,65.0 L 37.0,64.0 L 48.0,63.0" fill="#F2F2F2"/>
	<path d="M 56.0,15.0 L 60.0,17.0 L 72.0,27.0 L 72.0,28.0 L 57.0,28.0 L 56.0,25.0 L 56.0,15.0" fill="#F2F2F2"/>
	<path d="M 33.0,49.0 L 45.0,49.0 L 45.0,56.0 L 40.0,57.0 L 33.0,57.0 L 33.0,49.0" fill="#FAFAFA"/>
</svg>
