<?xml version="1.0" ?>
<svg baseProfile="full" height="600px" version="1.1" viewBox="-12.06 -12.06 144.12 144.12" width="600px" xmlns="http://www.w3.org/2000/svg" xmlns:ev="http://www.w3.org/2001/xml-events" xmlns:xlink="http://www.w3.org/1999/xlink">
	<defs/>
	<path d="M 0.0,0.0 L 120.0,0.0 L 120.0,120.0 L 0.0,120.0 L 0.0,0.0" fill="#030303"/>
	<path d="M 0.0,0.0 L 120.0,0.0 L 120.0,120.0 L 0.0,120.0 L 0.0,0.0 M 63.0,7.0 L 35.0,9.0 L 22.0,10.0 L 17.0,15.0 L 17.0,25.0 L 19.0,51.0 L 21.0,86.0 L 23.0,108.0 L 26.0,113.0 L 28.0,114.0 L 45.0,114.0 L 68.0,112.0 L 97.0,110.0 L 101.0,108.0 L 103.0,104.0 L 102.0,83.0 L 99.0,34.0 L 98.0,26.0 L 86.0,15.0 L 76.0,7.0 L 63.0,7.0" fill="#FCFCFC"/>
	<path d="M 70.0,59.0 L 83.0,59.0 L 85.0,61.0 L 84.0,66.0 L 77.0,68.0 L 49.0,70.0 L 39.0,70.0 L 37.0,68.0 L 38.0,63.0 L 40.0,61.0 L 61.0,60.0 L 70.0,59.0" fill="#F0F0F0"/>
	<path d="M 41.0,77.0 L 58.0,77.0 L 59.0,78.0 L 59.0,83.0 L 57.0,85.0 L 39.0,85.0 L 38.0,80.0 L 41.0,77.0" fill="#F1F1F1"/>
	<path d="M 74.0,16.0 L 80.0,20.0 L 90.0,29.0 L 88.0,31.0 L 75.0,31.0 L 74.0,30.0 L 74.0,16.0" fill="#F4F4F4"/>
</svg>
