<?xml version="1.0" ?>
<svg baseProfile="full" height="600px" version="1.1" viewBox="-12.864 -12.864 153.728 153.728" width="600px" xmlns="http://www.w3.org/2000/svg" xmlns:ev="http://www.w3.org/2001/xml-events" xmlns:xlink="http://www.w3.org/1999/xlink">
	<defs/>
	<path d="M 0.0,0.0 L 128.0,0.0 L 128.0,128.0 L 0.0,128.0 L 0.0,0.0" fill="#FCFCFC"/>
	<path d="M 68.0,12.0 L 81.0,12.0 L 94.0,23.0 L 101.0,28.0 L 107.0,98.0 L 108.0,112.0 L 45.0,118.0 L 29.0,119.0 L 24.0,62.0 L 21.0,28.0 L 21.0,17.0 L 46.0,14.0 L 68.0,12.0" fill="#F9F9F9"/>
	<path d="M 68.0,12.0 L 81.0,12.0 L 94.0,23.0 L 101.0,28.0 L 107.0,98.0 L 108.0,112.0 L 45.0,118.0 L 29.0,119.0 L 24.0,62.0 L 21.0,28.0 L 21.0,17.0 L 46.0,14.0 L 68.0,12.0 M 71.0,20.0 L 34.0,23.0 L 29.0,24.0 L 30.0,42.0 L 36.0,110.0 L 54.0,109.0 L 99.0,105.0 L 99.0,95.0 L 94.0,41.0 L 93.0,35.0 L 76.0,35.0 L 76.0,20.0 L 71.0,20.0" fill="#090909"/>
	<path d="M 71.0,51.0 L 83.0,51.0 L 83.0,59.0 L 44.0,62.0 L 44.0,54.0 L 60.0,52.0 L 71.0,51.0" fill="#080808"/>
	<path d="M 66.0,83.0 L 79.0,83.0 L 80.0,91.0 L 55.0,93.0 L 46.0,93.0 L 46.0,85.0 L 66.0,83.0" fill="#0F0F0F"/>
	<path d="M 45.0,69.0 L 51.0,69.0 L 51.0,77.0 L 45.0,77.0 L 45.0,69.0" fill="#0E0E0E"/>
</svg>
