<?xml version="1.0" ?>
<svg baseProfile="full" height="600px" version="1.1" viewBox="-16.08 -16.08 192.16 192.16" width="600px" xmlns="http://www.w3.org/2000/svg" xmlns:ev="http://www.w3.org/2001/xml-events" xmlns:xlink="http://www.w3.org/1999/xlink">
	<defs/>
	<path d="M 0.0,0.0 L 160.0,0.0 L 160.0,160.0 L 0.0,160.0 L 0.0,0.0" fill="#FCFCFD"/>
	<path d="M 0.0,0.0 L 160.0,0.0 L 160.0,160.0 L 0.0,160.0 L 0.0,0.0 M 102.0,6.0 L 39.0,13.0 L 18.0,15.0 L 19.0,28.0 L 23.0,68.0 L 32.0,156.0 L 45.0,155.0 L 76.0,152.0 L 121.0,147.0 L 142.0,145.0 L 140.0,119.0 L 134.0,65.0 L 130.0,22.0 L 114.0,9.0 L 110.0,6.0 L 102.0,6.0" fill="#FCFDFD"/>
	<path d="M 102.0,6.0 L 110.0,6.0 L 127.0,20.0 L 130.0,22.0 L 132.0,43.0 L 136.0,81.0 L 140.0,119.0 L 142.0,145.0 L 96.0,150.0 L 67.0,153.0 L 38.0,156.0 L 32.0,156.0 L 23.0,68.0 L 18.0,21.0 L 18.0,15.0 L 76.0,9.0 L 102.0,6.0 M 103.0,10.0 L 49.0,16.0 L 23.0,19.0 L 23.0,31.0 L 26.0,56.0 L 29.0,85.0 L 33.0,123.0 L 36.0,151.0 L 48.0,151.0 L 73.0,148.0 L 104.0,145.0 L 133.0,142.0 L 137.0,141.0 L 137.0,131.0 L 131.0,75.0 L 128.0,46.0 L 126.0,26.0 L 112.0,27.0 L 108.0,28.0 L 106.0,10.0 L 103.0,10.0" fill="#8294A3"/>
	<path d="M 110.0,108.0 L 115.0,108.0 L 115.0,112.0 L 82.0,116.0 L 62.0,118.0 L 52.0,118.0 L 52.0,114.0 L 97.0,109.0 L 110.0,108.0" fill="#8394A4"/>
	<path d="M 90.0,86.0 L 97.0,86.0 L 97.0,90.0 L 95.0,91.0 L 57.0,95.0 L 50.0,95.0 L 50.0,91.0 L 72.0,88.0 L 90.0,86.0" fill="#8596A5"/>
	<path d="M 68.0,65.0 L 78.0,65.0 L 78.0,68.0 L 66.0,70.0 L 59.0,71.0 L 48.0,71.0 L 48.0,68.0 L 60.0,66.0 L 68.0,65.0" fill="#7D8FA0"/>
	<path d="M 110.0,13.0 L 114.0,15.0 L 122.0,21.0 L 122.0,23.0 L 111.0,23.0 L 110.0,13.0" fill="#F1F3F5"/>
</svg>
