<?xml version="1.0" ?>
<svg baseProfile="full" height="600px" version="1.1" viewBox="-16.08 -16.08 192.16 192.16" width="600px" xmlns="http://www.w3.org/2000/svg" xmlns:ev="http://www.w3.org/2001/xml-events" xmlns:xlink="http://www.w3.org/1999/xlink">
	<defs/>
	<path d="M 0.0,0.0 L 160.0,0.0 L 160.0,160.0 L 0.0,160.0 L 0.0,0.0" fill="#FCFDFD"/>
	<path d="M 0.0,0.0 L 160.0,0.0 L 160.0,160.0 L 0.0,160.0 L 0.0,0.0 M 31.0,5.0 L 26.0,58.0 L 23.0,93.0 L 19.0,139.0 L 19.0,146.0 L 50.0,149.0 L 76.0,151.0 L 107.0,154.0 L 129.0,155.0 L 136.0,76.0 L 139.0,39.0 L 140.0,30.0 L 140.0,20.0 L 134.0,13.0 L 93.0,10.0 L 38.0,5.0 L 31.0,5.0" fill="#FCFDFD"/>
	<path d="M 31.0,5.0 L 47.0,6.0 L 93.0,10.0 L 134.0,13.0 L 140.0,20.0 L 140.0,30.0 L 137.0,61.0 L 132.0,122.0 L 129.0,155.0 L 107.0,154.0 L 67.0,150.0 L 41.0,148.0 L 19.0,146.0 L 20.0,130.0 L 24.0,84.0 L 28.0,38.0 L 31.0,5.0 M 35.0,10.0 L 34.0,13.0 L 30.0,59.0 L 24.0,131.0 L 24.0,142.0 L 73.0,147.0 L 110.0,150.0 L 125.0,151.0 L 129.0,110.0 L 132.0,73.0 L 136.0,27.0 L 136.0,23.0 L 131.0,23.0 L 131.0,17.0 L 81.0,13.0 L 50.0,10.0 L 35.0,10.0" fill="#8293A3"/>
	<path d="M 46.0,109.0 L 58.0,109.0 L 77.0,111.0 L 77.0,115.0 L 66.0,115.0 L 46.0,113.0 L 46.0,109.0" fill="#8495A5"/>
	<path d="M 48.0,85.0 L 64.0,86.0 L 64.0,90.0 L 53.0,90.0 L 48.0,89.0 L 48.0,85.0" fill="#8294A3"/>
</svg>
