<?xml version="1.0" ?>
<svg baseProfile="full" height="600px" version="1.1" viewBox="-9.648000000000001 -9.648000000000001 115.296 115.296" width="600px" xmlns="http://www.w3.org/2000/svg" xmlns:ev="http://www.w3.org/2001/xml-events" xmlns:xlink="http://www.w3.org/1999/xlink">
	<defs/>
	<path d="M 0.0,0.0 L 96.0,0.0 L 96.0,96.0 L 0.0,96.0 L 0.0,0.0" fill="#FDFDFD"/>
	<path d="M 46.0,8.0 L 51.0,9.0 L 56.0,14.0 L 59.0,23.0 L 60.0,31.0 L 60.0,64.0 L 57.0,79.0 L 53.0,86.0 L 49.0,88.0 L 45.0,87.0 L 40.0,82.0 L 37.0,71.0 L 36.0,59.0 L 36.0,38.0 L 37.0,23.0 L 40.0,14.0 L 45.0,9.0 L 46.0,8.0" fill="#070707"/>
	<path d="M 47.0,20.0 L 49.0,20.0 L 51.0,31.0 L 51.0,40.0 L 49.0,40.0 L 49.0,34.0 L 47.0,34.0 L 49.0,45.0 L 51.0,49.0 L 51.0,66.0 L 49.0,76.0 L 47.0,76.0 L 45.0,66.0 L 45.0,56.0 L 47.0,56.0 L 47.0,63.0 L 49.0,63.0 L 48.0,53.0 L 45.0,47.0 L 45.0,29.0 L 47.0,20.0" fill="#EDEDED"/>
	<path d="M 49.0,53.0 L 51.0,53.0 L 51.0,66.0 L 49.0,76.0 L 47.0,76.0 L 45.0,66.0 L 45.0,56.0 L 47.0,56.0 L 47.0,63.0 L 49.0,63.0 L 49.0,53.0" fill="#F0F0F0"/>
	<path d="M 47.0,42.0 L 49.0,45.0 L 51.0,49.0 L 51.0,53.0 L 48.0,53.0 L 45.0,47.0 L 45.0,44.0 L 47.0,44.0 L 47.0,42.0" fill="#DEDEDE"/>
</svg>
