<?xml version="1.0" ?>
<svg baseProfile="full" height="600px" version="1.1" viewBox="-20.1 -20.1 240.2 240.2" width="600px" xmlns="http://www.w3.org/2000/svg" xmlns:ev="http://www.w3.org/2001/xml-events" xmlns:xlink="http://www.w3.org/1999/xlink">
	<defs/>
	<path d="M 0.0,0.0 L 200.0,0.0 L 200.0,200.0 L 0.0,200.0 L 0.0,0.0" fill="#FDFDFD"/>
	<path d="M 99.0,8.0 L 104.0,10.0 L 108.0,16.0 L 110.0,31.0 L 112.0,41.0 L 114.0,73.0 L 114.0,122.0 L 113.0,145.0 L 110.0,173.0 L 107.0,186.0 L 103.0,191.0 L 99.0,192.0 L 93.0,187.0 L 90.0,171.0 L 87.0,140.0 L 87.0,57.0 L 91.0,21.0 L 94.0,12.0 L 99.0,8.0" fill="#080808"/>
	<path d="M 100.0,23.0 L 102.0,27.0 L 104.0,46.0 L 104.0,58.0 L 102.0,54.0 L 101.0,52.0 L 101.0,40.0 L 99.0,40.0 L 99.0,52.0 L 97.0,62.0 L 97.0,95.0 L 102.0,107.0 L 103.0,109.0 L 102.0,100.0 L 98.0,92.0 L 97.0,89.0 L 97.0,63.0 L 99.0,58.0 L 102.0,59.0 L 103.0,65.0 L 105.0,63.0 L 106.0,74.0 L 106.0,127.0 L 103.0,166.0 L 101.0,178.0 L 99.0,178.0 L 96.0,154.0 L 95.0,145.0 L 95.0,58.0 L 98.0,28.0 L 100.0,23.0" fill="#3D3D3D"/>
	<path d="M 100.0,23.0 L 102.0,27.0 L 104.0,46.0 L 104.0,58.0 L 102.0,54.0 L 101.0,52.0 L 101.0,40.0 L 99.0,40.0 L 99.0,52.0 L 97.0,62.0 L 97.0,95.0 L 102.0,107.0 L 103.0,109.0 L 103.0,138.0 L 101.0,142.0 L 99.0,142.0 L 97.0,134.0 L 97.0,117.0 L 95.0,117.0 L 95.0,58.0 L 98.0,28.0 L 100.0,23.0" fill="#F8F8F8"/>
	<path d="M 99.0,58.0 L 102.0,59.0 L 103.0,65.0 L 105.0,63.0 L 105.0,110.0 L 104.0,110.0 L 101.0,98.0 L 97.0,89.0 L 97.0,63.0 L 99.0,58.0" fill="#F1F1F1"/>
	<path d="M 99.0,40.0 L 101.0,40.0 L 102.0,52.0 L 105.0,55.0 L 104.0,79.0 L 103.0,79.0 L 101.0,59.0 L 99.0,59.0 L 98.0,63.0 L 98.0,89.0 L 102.0,98.0 L 104.0,105.0 L 104.0,114.0 L 103.0,114.0 L 100.0,105.0 L 96.0,95.0 L 96.0,62.0 L 98.0,52.0 L 99.0,40.0" fill="#323232"/>
	<path d="M 100.0,23.0 L 102.0,27.0 L 104.0,46.0 L 104.0,58.0 L 102.0,54.0 L 101.0,52.0 L 101.0,40.0 L 99.0,40.0 L 99.0,52.0 L 97.0,62.0 L 96.0,86.0 L 95.0,86.0 L 95.0,58.0 L 98.0,28.0 L 100.0,23.0" fill="#CDCDCD"/>
	<path d="M 96.0,141.0 L 97.0,141.0 L 99.0,148.0 L 99.0,160.0 L 101.0,160.0 L 101.0,148.0 L 103.0,142.0 L 104.0,142.0 L 104.0,155.0 L 102.0,171.0 L 101.0,178.0 L 99.0,178.0 L 96.0,154.0 L 96.0,141.0" fill="#EDEDED"/>
	<path d="M 105.0,74.0 L 106.0,74.0 L 106.0,127.0 L 105.0,144.0 L 103.0,140.0 L 103.0,114.0 L 104.0,110.0 L 105.0,74.0" fill="#7B7B7B"/>
	<path d="M 96.0,64.0 L 97.0,64.0 L 98.0,89.0 L 102.0,98.0 L 104.0,105.0 L 104.0,114.0 L 103.0,114.0 L 100.0,105.0 L 96.0,95.0 L 96.0,64.0" fill="#161616"/>
	<path d="M 103.0,142.0 L 104.0,142.0 L 104.0,155.0 L 103.0,166.0 L 102.0,166.0 L 101.0,160.0 L 101.0,148.0 L 103.0,142.0" fill="#E6E6E6"/>
	<path d="M 101.0,41.0 L 103.0,41.0 L 104.0,46.0 L 104.0,58.0 L 102.0,54.0 L 101.0,52.0 L 101.0,41.0" fill="#F1F1F1"/>
	<path d="M 96.0,128.0 L 97.0,128.0 L 98.0,138.0 L 96.0,145.0 L 95.0,145.0 L 96.0,128.0" fill="#3B3B3B"/>
</svg>
