<?xml version="1.0" ?>
<svg baseProfile="full" height="600px" version="1.1" viewBox="-20.1 -20.1 240.2 240.2" width="600px" xmlns="http://www.w3.org/2000/svg" xmlns:ev="http://www.w3.org/2001/xml-events" xmlns:xlink="http://www.w3.org/1999/xlink">
	<defs/>
	<path d="M 0.0,0.0 L 200.0,0.0 L 200.0,200.0 L 0.0,200.0 L 0.0,0.0" fill="#FDFDFD"/>
	<path d="M 98.0,8.0 L 104.0,9.0 L 110.0,14.0 L 116.0,26.0 L 120.0,41.0 L 123.0,63.0 L 124.0,77.0 L 124.0,124.0 L 121.0,152.0 L 118.0,168.0 L 113.0,181.0 L 107.0,189.0 L 102.0,192.0 L 97.0,192.0 L 89.0,185.0 L 84.0,174.0 L 81.0,164.0 L 78.0,142.0 L 76.0,117.0 L 76.0,78.0 L 79.0,49.0 L 83.0,29.0 L 87.0,19.0 L 93.0,11.0 L 98.0,8.0" fill="#F7F7F7"/>
	<path d="M 98.0,8.0 L 104.0,9.0 L 110.0,14.0 L 116.0,26.0 L 120.0,41.0 L 123.0,63.0 L 124.0,77.0 L 124.0,124.0 L 121.0,152.0 L 118.0,168.0 L 113.0,181.0 L 107.0,189.0 L 102.0,192.0 L 97.0,192.0 L 89.0,185.0 L 84.0,174.0 L 81.0,164.0 L 78.0,142.0 L 76.0,117.0 L 76.0,78.0 L 79.0,49.0 L 83.0,29.0 L 87.0,19.0 L 93.0,11.0 L 98.0,8.0 M 99.0,16.0 L 93.0,26.0 L 89.0,39.0 L 85.0,64.0 L 84.0,77.0 L 84.0,118.0 L 85.0,135.0 L 89.0,162.0 L 94.0,177.0 L 99.0,184.0 L 103.0,182.0 L 108.0,172.0 L 111.0,162.0 L 115.0,136.0 L 116.0,125.0 L 116.0,73.0 L 112.0,43.0 L 108.0,28.0 L 102.0,17.0 L 99.0,16.0" fill="#080808"/>
	<path d="M 99.0,40.0 L 101.0,40.0 L 102.0,51.0 L 105.0,54.0 L 108.0,65.0 L 108.0,80.0 L 106.0,80.0 L 104.0,65.0 L 102.0,59.0 L 97.0,60.0 L 95.0,67.0 L 95.0,84.0 L 98.0,93.0 L 105.0,100.0 L 108.0,107.0 L 109.0,112.0 L 109.0,129.0 L 107.0,141.0 L 104.0,147.0 L 102.0,149.0 L 101.0,160.0 L 99.0,160.0 L 98.0,149.0 L 95.0,146.0 L 91.0,130.0 L 91.0,117.0 L 94.0,117.0 L 96.0,137.0 L 98.0,141.0 L 103.0,140.0 L 105.0,134.0 L 105.0,112.0 L 101.0,105.0 L 96.0,100.0 L 93.0,94.0 L 92.0,87.0 L 92.0,64.0 L 95.0,54.0 L 98.0,51.0 L 99.0,40.0" fill="#0C0C0C"/>
	<path d="M 99.0,40.0 L 101.0,40.0 L 102.0,51.0 L 105.0,54.0 L 108.0,65.0 L 108.0,80.0 L 106.0,80.0 L 104.0,65.0 L 102.0,59.0 L 97.0,60.0 L 95.0,67.0 L 95.0,87.0 L 92.0,87.0 L 92.0,64.0 L 95.0,54.0 L 98.0,51.0 L 99.0,40.0" fill="#131313"/>
	<path d="M 93.0,87.0 L 96.0,88.0 L 99.0,94.0 L 106.0,102.0 L 109.0,112.0 L 109.0,129.0 L 106.0,130.0 L 105.0,112.0 L 101.0,105.0 L 96.0,100.0 L 93.0,94.0 L 93.0,87.0" fill="#222222"/>
	<path d="M 91.0,117.0 L 94.0,117.0 L 94.0,127.0 L 92.0,127.0 L 91.0,130.0 L 91.0,117.0" fill="#4C4C4C"/>
	<path d="M 94.0,62.0 L 95.0,62.0 L 94.0,73.0 L 92.0,74.0 L 92.0,64.0 L 94.0,62.0" fill="#212121"/>
</svg>
