<?xml version="1.0" ?>
<svg baseProfile="full" height="600px" version="1.1" viewBox="-12.06 -12.06 144.12 144.12" width="600px" xmlns="http://www.w3.org/2000/svg" xmlns:ev="http://www.w3.org/2001/xml-events" xmlns:xlink="http://www.w3.org/1999/xlink">
	<defs/>
	<path d="M 0.0,0.0 L 120.0,0.0 L 120.0,120.0 L 0.0,120.0 L 0.0,0.0" fill="#FCFCFC"/>
	<path d="M 56.0,12.0 L 63.0,12.0 L 69.0,15.0 L 75.0,22.0 L 80.0,33.0 L 83.0,48.0 L 83.0,73.0 L 81.0,83.0 L 76.0,96.0 L 70.0,104.0 L 64.0,108.0 L 56.0,108.0 L 50.0,104.0 L 44.0,96.0 L 38.0,80.0 L 37.0,73.0 L 37.0,48.0 L 40.0,33.0 L 47.0,19.0 L 54.0,13.0 L 56.0,12.0" fill="#030303"/>
	<path d="M 58.0,28.0 L 62.0,28.0 L 62.0,37.0 L 66.0,39.0 L 68.0,43.0 L 68.0,50.0 L 64.0,50.0 L 62.0,45.0 L 58.0,45.0 L 57.0,52.0 L 57.0,54.0 L 63.0,56.0 L 68.0,61.0 L 69.0,63.0 L 69.0,75.0 L 66.0,81.0 L 62.0,83.0 L 62.0,92.0 L 58.0,92.0 L 58.0,83.0 L 54.0,81.0 L 51.0,75.0 L 51.0,70.0 L 56.0,70.0 L 58.0,75.0 L 63.0,74.0 L 63.0,67.0 L 58.0,64.0 L 53.0,59.0 L 52.0,56.0 L 52.0,43.0 L 56.0,37.0 L 58.0,37.0 L 58.0,28.0" fill="#F2F2F2"/>
</svg>
