<?xml version="1.0" ?>
<svg baseProfile="full" height="600px" version="1.1" viewBox="-12.06 -12.06 144.12 144.12" width="600px" xmlns="http://www.w3.org/2000/svg" xmlns:ev="http://www.w3.org/2001/xml-events" xmlns:xlink="http://www.w3.org/1999/xlink">
	<defs/>
	<path d="M 0.0,0.0 L 120.0,0.0 L 120.0,120.0 L 0.0,120.0 L 0.0,0.0" fill="#FCFCFC"/>
	<path d="M 54.0,12.0 L 65.0,12.0 L 75.0,15.0 L 84.0,21.0 L 91.0,28.0 L 99.0,44.0 L 100.0,49.0 L 100.0,71.0 L 97.0,81.0 L 91.0,92.0 L 82.0,101.0 L 71.0,107.0 L 64.0,108.0 L 53.0,108.0 L 43.0,104.0 L 35.0,98.0 L 27.0,89.0 L 21.0,76.0 L 20.0,71.0 L 20.0,48.0 L 24.0,37.0 L 30.0,27.0 L 38.0,19.0 L 49.0,13.0 L 54.0,12.0" fill="#030303"/>
	<path d="M 57.0,28.0 L 63.0,28.0 L 63.0,37.0 L 68.0,38.0 L 73.0,43.0 L 75.0,47.0 L 75.0,50.0 L 67.0,50.0 L 65.0,46.0 L 63.0,45.0 L 57.0,45.0 L 55.0,46.0 L 54.0,53.0 L 66.0,56.0 L 72.0,60.0 L 75.0,64.0 L 75.0,74.0 L 72.0,79.0 L 69.0,82.0 L 63.0,83.0 L 63.0,92.0 L 57.0,92.0 L 57.0,83.0 L 51.0,82.0 L 46.0,77.0 L 45.0,70.0 L 53.0,70.0 L 55.0,74.0 L 57.0,75.0 L 63.0,75.0 L 66.0,73.0 L 66.0,67.0 L 51.0,62.0 L 46.0,56.0 L 46.0,45.0 L 50.0,39.0 L 54.0,37.0 L 57.0,37.0 L 57.0,28.0" fill="#F6F6F6"/>
</svg>
