<?xml version="1.0" ?>
<svg baseProfile="full" height="600px" version="1.1" viewBox="-20.1 -20.1 240.2 240.2" width="600px" xmlns="http://www.w3.org/2000/svg" xmlns:ev="http://www.w3.org/2001/xml-events" xmlns:xlink="http://www.w3.org/1999/xlink">
	<defs/>
	<path d="M 0.0,0.0 L 200.0,0.0 L 200.0,200.0 L 0.0,200.0 L 0.0,0.0" fill="#FCFCFC"/>
	<path d="M 0.0,0.0 L 200.0,0.0 L 200.0,200.0 L 0.0,200.0 L 0.0,0.0 M 93.0,8.0 L 77.0,11.0 L 61.0,19.0 L 52.0,26.0 L 44.0,33.0 L 35.0,45.0 L 27.0,60.0 L 22.0,75.0 L 20.0,88.0 L 20.0,112.0 L 23.0,128.0 L 29.0,144.0 L 35.0,155.0 L 42.0,164.0 L 50.0,173.0 L 61.0,181.0 L 77.0,189.0 L 89.0,192.0 L 107.0,192.0 L 123.0,189.0 L 139.0,181.0 L 152.0,171.0 L 161.0,161.0 L 169.0,148.0 L 174.0,137.0 L 178.0,124.0 L 180.0,112.0 L 180.0,88.0 L 178.0,75.0 L 173.0,60.0 L 165.0,45.0 L 158.0,36.0 L 151.0,28.0 L 139.0,19.0 L 125.0,12.0 L 115.0,9.0 L 107.0,8.0 L 93.0,8.0" fill="#FCFCFC"/>
	<path d="M 93.0,8.0 L 107.0,8.0 L 118.0,10.0 L 132.0,15.0 L 142.0,21.0 L 155.0,32.0 L 163.0,42.0 L 171.0,56.0 L 177.0,71.0 L 179.0,79.0 L 180.0,88.0 L 180.0,112.0 L 177.0,128.0 L 171.0,144.0 L 165.0,155.0 L 158.0,164.0 L 150.0,173.0 L 139.0,181.0 L 123.0,189.0 L 107.0,192.0 L 89.0,192.0 L 75.0,188.0 L 59.0,180.0 L 46.0,169.0 L 37.0,158.0 L 29.0,144.0 L 23.0,128.0 L 20.0,112.0 L 20.0,88.0 L 22.0,75.0 L 27.0,60.0 L 35.0,45.0 L 42.0,36.0 L 49.0,28.0 L 61.0,19.0 L 77.0,11.0 L 93.0,8.0 M 91.0,16.0 L 79.0,19.0 L 65.0,26.0 L 55.0,34.0 L 47.0,42.0 L 38.0,56.0 L 33.0,67.0 L 30.0,76.0 L 28.0,87.0 L 28.0,114.0 L 32.0,130.0 L 39.0,146.0 L 48.0,159.0 L 58.0,169.0 L 72.0,178.0 L 82.0,182.0 L 92.0,184.0 L 107.0,184.0 L 118.0,182.0 L 130.0,177.0 L 143.0,168.0 L 153.0,158.0 L 162.0,144.0 L 168.0,130.0 L 171.0,119.0 L 172.0,111.0 L 172.0,89.0 L 170.0,76.0 L 165.0,62.0 L 158.0,49.0 L 150.0,39.0 L 142.0,31.0 L 128.0,22.0 L 114.0,17.0 L 108.0,16.0 L 91.0,16.0" fill="#080808"/>
	<path d="M 96.0,40.0 L 104.0,40.0 L 104.0,51.0 L 111.0,52.0 L 119.0,57.0 L 125.0,64.0 L 128.0,73.0 L 128.0,80.0 L 120.0,80.0 L 117.0,68.0 L 113.0,62.0 L 106.0,59.0 L 92.0,59.0 L 84.0,64.0 L 81.0,70.0 L 81.0,82.0 L 84.0,88.0 L 92.0,93.0 L 112.0,99.0 L 122.0,104.0 L 128.0,111.0 L 130.0,116.0 L 130.0,128.0 L 126.0,137.0 L 120.0,144.0 L 112.0,148.0 L 104.0,149.0 L 104.0,160.0 L 96.0,160.0 L 96.0,148.0 L 89.0,148.0 L 81.0,144.0 L 74.0,136.0 L 71.0,129.0 L 70.0,117.0 L 78.0,117.0 L 81.0,131.0 L 87.0,138.0 L 94.0,141.0 L 107.0,141.0 L 115.0,138.0 L 120.0,132.0 L 121.0,129.0 L 121.0,116.0 L 117.0,111.0 L 109.0,107.0 L 88.0,101.0 L 80.0,96.0 L 75.0,90.0 L 72.0,81.0 L 72.0,72.0 L 76.0,62.0 L 81.0,56.0 L 88.0,52.0 L 96.0,51.0 L 96.0,40.0" fill="#0B0B0B"/>
</svg>
