<?xml version="1.0" ?>
<svg baseProfile="full" height="600px" version="1.1" viewBox="-19.296000000000003 -19.296000000000003 230.592 230.592" width="600px" xmlns="http://www.w3.org/2000/svg" xmlns:ev="http://www.w3.org/2001/xml-events" xmlns:xlink="http://www.w3.org/1999/xlink">
	<defs/>
	<path d="M 0.0,0.0 L 192.0,0.0 L 192.0,192.0 L 0.0,192.0 L 0.0,0.0" fill="#FDFEFE"/>
	<path d="M 91.0,24.0 L 95.0,26.0 L 164.0,95.0 L 162.0,99.0 L 93.0,168.0 L 89.0,166.0 L 80.0,157.0 L 82.0,153.0 L 138.0,97.0 L 136.0,93.0 L 80.0,37.0 L 82.0,33.0 L 91.0,24.0" fill="#299AF3"/>
	<path d="M 39.0,24.0 L 43.0,26.0 L 112.0,95.0 L 110.0,99.0 L 41.0,168.0 L 37.0,166.0 L 28.0,157.0 L 30.0,153.0 L 86.0,97.0 L 84.0,93.0 L 28.0,37.0 L 30.0,33.0 L 39.0,24.0" fill="#2899F3"/>
</svg>
