<?xml version="1.0" ?>
<svg baseProfile="full" height="600px" version="1.1" viewBox="-19.296000000000003 -19.296000000000003 230.592 230.592" width="600px" xmlns="http://www.w3.org/2000/svg" xmlns:ev="http://www.w3.org/2001/xml-events" xmlns:xlink="http://www.w3.org/1999/xlink">
	<defs/>
	<path d="M 0.0,0.0 L 192.0,0.0 L 192.0,192.0 L 0.0,192.0 L 0.0,0.0" fill="#FCFDFE"/>
	<path d="M 35.0,81.0 L 39.0,83.0 L 95.0,139.0 L 99.0,137.0 L 155.0,81.0 L 159.0,83.0 L 168.0,92.0 L 162.0,99.0 L 97.0,164.0 L 93.0,162.0 L 24.0,93.0 L 30.0,86.0 L 35.0,81.0" fill="#2397F3"/>
	<path d="M 35.0,37.0 L 39.0,39.0 L 95.0,95.0 L 99.0,93.0 L 155.0,37.0 L 159.0,39.0 L 168.0,48.0 L 162.0,55.0 L 97.0,120.0 L 93.0,118.0 L 24.0,49.0 L 30.0,42.0 L 35.0,37.0" fill="#2296F3"/>
</svg>
