<?xml version="1.0" ?>
<svg baseProfile="full" height="600px" version="1.1" viewBox="-12.06 -12.06 144.12 144.12" width="600px" xmlns="http://www.w3.org/2000/svg" xmlns:ev="http://www.w3.org/2001/xml-events" xmlns:xlink="http://www.w3.org/1999/xlink">
	<defs/>
	<path d="M 0.0,0.0 L 120.0,0.0 L 120.0,120.0 L 0.0,120.0 L 0.0,0.0" fill="#FCFCFC"/>
	<path d="M 50.0,29.0 L 55.0,29.0 L 60.0,34.0 L 60.0,58.0 L 63.0,57.0 L 72.0,57.0 L 76.0,61.0 L 85.0,60.0 L 90.0,64.0 L 99.0,64.0 L 102.0,67.0 L 102.0,103.0 L 98.0,109.0 L 93.0,113.0 L 91.0,114.0 L 55.0,114.0 L 47.0,110.0 L 37.0,102.0 L 23.0,93.0 L 14.0,87.0 L 15.0,82.0 L 17.0,80.0 L 31.0,80.0 L 45.0,87.0 L 45.0,33.0 L 50.0,29.0" fill="#020202"/>
	<path d="M 45.0,1.0 L 58.0,1.0 L 67.0,5.0 L 75.0,12.0 L 79.0,20.0 L 80.0,25.0 L 80.0,32.0 L 77.0,41.0 L 73.0,47.0 L 68.0,48.0 L 67.0,34.0 L 64.0,27.0 L 59.0,23.0 L 57.0,22.0 L 47.0,22.0 L 41.0,26.0 L 38.0,30.0 L 37.0,34.0 L 36.0,51.0 L 29.0,45.0 L 24.0,33.0 L 24.0,24.0 L 28.0,14.0 L 35.0,6.0 L 45.0,1.0" fill="#A5A5A5"/>
	<path d="M 46.0,19.0 L 57.0,19.0 L 64.0,23.0 L 67.0,27.0 L 66.0,30.0 L 61.0,24.0 L 57.0,22.0 L 47.0,22.0 L 41.0,26.0 L 38.0,30.0 L 36.0,33.0 L 37.0,27.0 L 41.0,22.0 L 46.0,19.0" fill="#2E2E2E"/>
	<path d="M 49.0,19.0 L 57.0,19.0 L 64.0,23.0 L 67.0,27.0 L 66.0,30.0 L 61.0,24.0 L 54.0,21.0 L 49.0,20.0 L 49.0,19.0" fill="#1C1C1C"/>
	<path d="M 41.0,22.0 L 43.0,24.0 L 38.0,30.0 L 36.0,33.0 L 37.0,27.0 L 41.0,22.0" fill="#414141"/>
	<path d="M 60.0,22.0 L 64.0,23.0 L 67.0,27.0 L 66.0,30.0 L 60.0,22.0" fill="#2D2D2D"/>
</svg>
