<?xml version="1.0" ?>
<svg baseProfile="full" height="600px" version="1.1" viewBox="-19.296000000000003 -19.296000000000003 230.592 230.592" width="600px" xmlns="http://www.w3.org/2000/svg" xmlns:ev="http://www.w3.org/2001/xml-events" xmlns:xlink="http://www.w3.org/1999/xlink">
	<defs/>
	<path d="M 0.0,0.0 L 192.0,0.0 L 192.0,192.0 L 0.0,192.0 L 0.0,0.0" fill="#FDFEFE"/>
	<path d="M 95.0,80.0 L 99.0,82.0 L 168.0,151.0 L 166.0,155.0 L 157.0,164.0 L 153.0,162.0 L 97.0,106.0 L 93.0,108.0 L 37.0,164.0 L 33.0,162.0 L 24.0,153.0 L 26.0,149.0 L 95.0,80.0" fill="#2899F3"/>
	<path d="M 95.0,28.0 L 99.0,30.0 L 168.0,99.0 L 166.0,103.0 L 157.0,112.0 L 153.0,110.0 L 97.0,54.0 L 93.0,56.0 L 37.0,112.0 L 33.0,110.0 L 24.0,101.0 L 26.0,97.0 L 95.0,28.0" fill="#2999F3"/>
</svg>
