<?xml version="1.0" ?>
<svg baseProfile="full" height="600px" version="1.1" viewBox="-19.296000000000003 -19.296000000000003 230.592 230.592" width="600px" xmlns="http://www.w3.org/2000/svg" xmlns:ev="http://www.w3.org/2001/xml-events" xmlns:xlink="http://www.w3.org/1999/xlink">
	<defs/>
	<path d="M 0.0,0.0 L 192.0,0.0 L 192.0,192.0 L 0.0,192.0 L 0.0,0.0" fill="#FDFEFE"/>
	<path d="M 59.0,24.0 L 63.0,26.0 L 132.0,95.0 L 130.0,99.0 L 61.0,168.0 L 57.0,166.0 L 48.0,157.0 L 50.0,153.0 L 106.0,97.0 L 104.0,93.0 L 48.0,37.0 L 50.0,33.0 L 59.0,24.0" fill="#2899F3"/>
	<path d="M 109.0,24.0 L 116.0,30.0 L 181.0,95.0 L 179.0,99.0 L 110.0,168.0 L 103.0,162.0 L 98.0,157.0 L 100.0,153.0 L 140.0,113.0 L 147.0,105.0 L 155.0,97.0 L 153.0,93.0 L 142.0,82.0 L 135.0,74.0 L 98.0,37.0 L 100.0,33.0 L 109.0,24.0" fill="#2497F3"/>
</svg>
