<?xml version="1.0" ?>
<svg baseProfile="full" height="600px" version="1.1" viewBox="-19.296000000000003 -19.296000000000003 230.592 230.592" width="600px" xmlns="http://www.w3.org/2000/svg" xmlns:ev="http://www.w3.org/2001/xml-events" xmlns:xlink="http://www.w3.org/1999/xlink">
	<defs/>
	<path d="M 0.0,0.0 L 192.0,0.0 L 192.0,192.0 L 0.0,192.0 L 0.0,0.0" fill="#FCFDFE"/>
	<path d="M 95.0,63.0 L 99.0,65.0 L 168.0,134.0 L 162.0,141.0 L 157.0,146.0 L 153.0,144.0 L 135.0,126.0 L 127.0,119.0 L 97.0,89.0 L 93.0,91.0 L 59.0,125.0 L 51.0,132.0 L 37.0,146.0 L 33.0,144.0 L 24.0,135.0 L 30.0,128.0 L 95.0,63.0" fill="#2598F3"/>
	<path d="M 95.0,20.0 L 99.0,22.0 L 168.0,91.0 L 162.0,98.0 L 157.0,103.0 L 153.0,101.0 L 97.0,45.0 L 93.0,47.0 L 37.0,103.0 L 33.0,101.0 L 24.0,92.0 L 30.0,85.0 L 95.0,20.0" fill="#2397F3"/>
</svg>
