<?xml version="1.0" ?>
<svg baseProfile="full" height="600px" version="1.1" viewBox="-20.1 -20.1 240.2 240.2" width="600px" xmlns="http://www.w3.org/2000/svg" xmlns:ev="http://www.w3.org/2001/xml-events" xmlns:xlink="http://www.w3.org/1999/xlink">
	<defs/>
	<path d="M 0.0,0.0 L 200.0,0.0 L 200.0,200.0 L 0.0,200.0 L 0.0,0.0" fill="#FDFDFD"/>
	<path d="M 74.0,5.0 L 93.0,5.0 L 105.0,10.0 L 114.0,17.0 L 121.0,27.0 L 124.0,35.0 L 124.0,54.0 L 120.0,64.0 L 114.0,73.0 L 112.0,76.0 L 120.0,81.0 L 122.0,83.0 L 128.0,80.0 L 135.0,80.0 L 141.0,83.0 L 146.0,88.0 L 146.0,90.0 L 151.0,88.0 L 159.0,88.0 L 165.0,91.0 L 170.0,97.0 L 171.0,99.0 L 171.0,163.0 L 167.0,173.0 L 160.0,182.0 L 153.0,187.0 L 142.0,191.0 L 100.0,191.0 L 88.0,188.0 L 77.0,182.0 L 65.0,171.0 L 24.0,130.0 L 21.0,124.0 L 21.0,115.0 L 25.0,109.0 L 30.0,105.0 L 32.0,104.0 L 42.0,104.0 L 50.0,110.0 L 67.0,127.0 L 68.0,82.0 L 63.0,80.0 L 54.0,73.0 L 48.0,65.0 L 44.0,53.0 L 44.0,35.0 L 48.0,26.0 L 54.0,17.0 L 63.0,10.0 L 71.0,6.0 L 74.0,5.0" fill="#FBFBFB"/>
	<path d="M 74.0,5.0 L 93.0,5.0 L 105.0,10.0 L 114.0,17.0 L 121.0,27.0 L 124.0,35.0 L 124.0,54.0 L 120.0,64.0 L 114.0,73.0 L 112.0,76.0 L 120.0,81.0 L 122.0,83.0 L 128.0,80.0 L 135.0,80.0 L 141.0,83.0 L 146.0,88.0 L 146.0,90.0 L 151.0,88.0 L 159.0,88.0 L 165.0,91.0 L 170.0,97.0 L 171.0,99.0 L 171.0,163.0 L 167.0,173.0 L 160.0,182.0 L 153.0,187.0 L 142.0,191.0 L 100.0,191.0 L 88.0,188.0 L 77.0,182.0 L 65.0,171.0 L 24.0,130.0 L 21.0,124.0 L 21.0,115.0 L 25.0,109.0 L 30.0,105.0 L 32.0,104.0 L 42.0,104.0 L 50.0,110.0 L 67.0,127.0 L 68.0,82.0 L 63.0,80.0 L 54.0,73.0 L 48.0,65.0 L 44.0,53.0 L 44.0,35.0 L 48.0,26.0 L 54.0,17.0 L 63.0,10.0 L 71.0,6.0 L 74.0,5.0 M 82.0,39.0 L 77.0,43.0 L 76.0,45.0 L 75.0,141.0 L 71.0,142.0 L 69.0,142.0 L 67.0,138.0 L 42.0,113.0 L 40.0,112.0 L 34.0,112.0 L 29.0,117.0 L 30.0,124.0 L 37.0,132.0 L 76.0,171.0 L 86.0,178.0 L 92.0,181.0 L 99.0,183.0 L 141.0,183.0 L 150.0,179.0 L 158.0,172.0 L 162.0,164.0 L 163.0,161.0 L 163.0,101.0 L 158.0,96.0 L 152.0,96.0 L 148.0,100.0 L 147.0,109.0 L 145.0,111.0 L 140.0,111.0 L 139.0,92.0 L 134.0,88.0 L 127.0,89.0 L 124.0,93.0 L 123.0,102.0 L 122.0,103.0 L 117.0,103.0 L 116.0,90.0 L 112.0,85.0 L 105.0,84.0 L 100.0,89.0 L 99.0,102.0 L 94.0,103.0 L 93.0,102.0 L 92.0,44.0 L 87.0,39.0 L 82.0,39.0" fill="#060606"/>
	<path d="M 76.0,13.0 L 91.0,13.0 L 103.0,18.0 L 111.0,26.0 L 116.0,37.0 L 116.0,53.0 L 110.0,65.0 L 103.0,72.0 L 100.0,73.0 L 99.0,42.0 L 94.0,35.0 L 88.0,32.0 L 80.0,32.0 L 73.0,36.0 L 69.0,44.0 L 68.0,73.0 L 63.0,70.0 L 56.0,62.0 L 52.0,52.0 L 52.0,37.0 L 58.0,25.0 L 65.0,18.0 L 76.0,13.0" fill="#FCFCFC"/>
	<path d="M 74.0,5.0 L 93.0,5.0 L 105.0,10.0 L 114.0,17.0 L 121.0,27.0 L 124.0,35.0 L 124.0,54.0 L 120.0,64.0 L 114.0,73.0 L 112.0,77.0 L 100.0,78.0 L 100.0,73.0 L 110.0,64.0 L 115.0,53.0 L 115.0,37.0 L 109.0,25.0 L 101.0,18.0 L 91.0,14.0 L 76.0,14.0 L 64.0,20.0 L 57.0,28.0 L 53.0,37.0 L 53.0,52.0 L 58.0,64.0 L 65.0,71.0 L 67.0,72.0 L 68.0,44.0 L 69.0,44.0 L 69.0,129.0 L 68.0,129.0 L 68.0,82.0 L 63.0,80.0 L 54.0,73.0 L 48.0,65.0 L 44.0,53.0 L 44.0,35.0 L 48.0,26.0 L 54.0,17.0 L 63.0,10.0 L 71.0,6.0 L 74.0,5.0" fill="#424242"/>
</svg>
