<?xml version="1.0" ?>
<svg baseProfile="full" height="600px" version="1.1" viewBox="-20.1 -20.1 240.2 240.2" width="600px" xmlns="http://www.w3.org/2000/svg" xmlns:ev="http://www.w3.org/2001/xml-events" xmlns:xlink="http://www.w3.org/1999/xlink">
	<defs/>
	<path d="M 0.0,0.0 L 200.0,0.0 L 200.0,200.0 L 0.0,200.0 L 0.0,0.0" fill="#FDFDFD"/>
	<path d="M 82.0,45.0 L 89.0,46.0 L 92.0,50.0 L 93.0,102.0 L 98.0,103.0 L 99.0,102.0 L 100.0,89.0 L 105.0,84.0 L 112.0,85.0 L 116.0,90.0 L 117.0,103.0 L 122.0,103.0 L 123.0,102.0 L 124.0,92.0 L 129.0,88.0 L 136.0,89.0 L 139.0,93.0 L 140.0,110.0 L 145.0,111.0 L 146.0,110.0 L 147.0,101.0 L 152.0,96.0 L 158.0,96.0 L 163.0,101.0 L 163.0,160.0 L 159.0,170.0 L 154.0,176.0 L 148.0,180.0 L 143.0,182.0 L 97.0,182.0 L 87.0,178.0 L 78.0,172.0 L 30.0,124.0 L 29.0,117.0 L 34.0,112.0 L 40.0,112.0 L 48.0,119.0 L 70.0,141.0 L 75.0,141.0 L 76.0,51.0 L 80.0,46.0 L 82.0,45.0" fill="#FBFBFB"/>
	<path d="M 79.0,22.0 L 87.0,22.0 L 96.0,25.0 L 101.0,29.0 L 106.0,37.0 L 107.0,40.0 L 107.0,48.0 L 104.0,57.0 L 101.0,61.0 L 100.0,78.0 L 102.0,77.0 L 113.0,77.0 L 118.0,80.0 L 122.0,83.0 L 128.0,80.0 L 135.0,80.0 L 143.0,85.0 L 147.0,90.0 L 151.0,88.0 L 158.0,88.0 L 166.0,92.0 L 171.0,100.0 L 171.0,159.0 L 169.0,167.0 L 165.0,175.0 L 158.0,183.0 L 144.0,190.0 L 96.0,190.0 L 85.0,186.0 L 74.0,179.0 L 23.0,128.0 L 22.0,125.0 L 22.0,114.0 L 26.0,108.0 L 32.0,104.0 L 41.0,104.0 L 47.0,107.0 L 68.0,128.0 L 68.0,62.0 L 63.0,55.0 L 61.0,48.0 L 61.0,40.0 L 66.0,30.0 L 74.0,24.0 L 79.0,22.0 M 82.0,45.0 L 77.0,49.0 L 76.0,51.0 L 75.0,141.0 L 70.0,141.0 L 42.0,113.0 L 40.0,112.0 L 34.0,112.0 L 29.0,117.0 L 30.0,124.0 L 80.0,174.0 L 93.0,181.0 L 97.0,182.0 L 143.0,182.0 L 151.0,178.0 L 156.0,174.0 L 161.0,166.0 L 163.0,160.0 L 163.0,101.0 L 158.0,96.0 L 152.0,96.0 L 147.0,101.0 L 146.0,110.0 L 141.0,111.0 L 140.0,110.0 L 139.0,93.0 L 134.0,88.0 L 127.0,89.0 L 124.0,92.0 L 123.0,102.0 L 122.0,103.0 L 117.0,103.0 L 116.0,90.0 L 112.0,85.0 L 105.0,84.0 L 100.0,89.0 L 99.0,102.0 L 94.0,103.0 L 93.0,102.0 L 92.0,50.0 L 87.0,45.0 L 82.0,45.0" fill="#060606"/>
	<path d="M 75.0,1.0 L 92.0,1.0 L 102.0,4.0 L 112.0,10.0 L 119.0,17.0 L 125.0,27.0 L 128.0,37.0 L 128.0,54.0 L 123.0,67.0 L 117.0,75.0 L 113.0,78.0 L 100.0,78.0 L 100.0,61.0 L 104.0,55.0 L 106.0,48.0 L 106.0,40.0 L 102.0,32.0 L 97.0,27.0 L 91.0,24.0 L 87.0,23.0 L 79.0,23.0 L 71.0,27.0 L 66.0,32.0 L 62.0,40.0 L 62.0,48.0 L 65.0,57.0 L 69.0,62.0 L 69.0,129.0 L 67.0,127.0 L 68.0,86.0 L 62.0,84.0 L 53.0,77.0 L 46.0,69.0 L 41.0,57.0 L 40.0,53.0 L 40.0,36.0 L 44.0,25.0 L 50.0,16.0 L 57.0,9.0 L 71.0,2.0 L 75.0,1.0" fill="#FBFBFB"/>
	<path d="M 75.0,1.0 L 92.0,1.0 L 102.0,4.0 L 112.0,10.0 L 119.0,17.0 L 125.0,27.0 L 128.0,37.0 L 128.0,54.0 L 123.0,67.0 L 117.0,75.0 L 113.0,78.0 L 102.0,77.0 L 106.0,73.0 L 111.0,69.0 L 117.0,59.0 L 119.0,51.0 L 119.0,37.0 L 115.0,27.0 L 108.0,18.0 L 100.0,13.0 L 91.0,10.0 L 76.0,10.0 L 66.0,14.0 L 57.0,21.0 L 51.0,31.0 L 49.0,37.0 L 49.0,52.0 L 54.0,65.0 L 59.0,71.0 L 68.0,77.0 L 68.0,62.0 L 69.0,62.0 L 69.0,129.0 L 67.0,127.0 L 68.0,86.0 L 62.0,84.0 L 53.0,77.0 L 46.0,69.0 L 41.0,57.0 L 40.0,53.0 L 40.0,36.0 L 44.0,25.0 L 50.0,16.0 L 57.0,9.0 L 71.0,2.0 L 75.0,1.0" fill="#9F9F9F"/>
	<path d="M 79.0,22.0 L 87.0,22.0 L 96.0,25.0 L 101.0,29.0 L 106.0,37.0 L 107.0,40.0 L 107.0,48.0 L 104.0,57.0 L 100.0,61.0 L 98.0,47.0 L 94.0,41.0 L 87.0,38.0 L 80.0,38.0 L 74.0,42.0 L 71.0,46.0 L 70.0,49.0 L 69.0,62.0 L 64.0,57.0 L 61.0,48.0 L 61.0,40.0 L 66.0,30.0 L 74.0,24.0 L 79.0,22.0" fill="#1B1B1B"/>
	<path d="M 78.0,31.0 L 89.0,31.0 L 94.0,34.0 L 98.0,39.0 L 99.0,46.0 L 92.0,40.0 L 87.0,38.0 L 80.0,38.0 L 74.0,42.0 L 69.0,47.0 L 70.0,39.0 L 76.0,32.0 L 78.0,31.0" fill="#ECECEC"/>
</svg>
