<?xml version="1.0" ?>
<svg baseProfile="full" height="600px" version="1.1" viewBox="-12.06 -12.06 144.12 144.12" width="600px" xmlns="http://www.w3.org/2000/svg" xmlns:ev="http://www.w3.org/2001/xml-events" xmlns:xlink="http://www.w3.org/1999/xlink">
	<defs/>
	<path d="M 0.0,0.0 L 120.0,0.0 L 120.0,120.0 L 0.0,120.0 L 0.0,0.0" fill="#FCFCFC"/>
	<path d="M 49.0,29.0 L 55.0,29.0 L 60.0,34.0 L 60.0,58.0 L 63.0,57.0 L 72.0,57.0 L 76.0,61.0 L 85.0,60.0 L 90.0,64.0 L 99.0,64.0 L 102.0,67.0 L 102.0,103.0 L 99.0,109.0 L 94.0,113.0 L 91.0,114.0 L 54.0,114.0 L 46.0,110.0 L 34.0,100.0 L 14.0,88.0 L 14.0,83.0 L 17.0,80.0 L 29.0,80.0 L 39.0,84.0 L 44.0,86.0 L 44.0,35.0 L 49.0,29.0" fill="#030303"/>
	<path d="M 46.0,7.0 L 57.0,7.0 L 67.0,12.0 L 73.0,19.0 L 76.0,27.0 L 76.0,36.0 L 71.0,46.0 L 68.0,48.0 L 67.0,32.0 L 63.0,26.0 L 57.0,22.0 L 46.0,22.0 L 39.0,28.0 L 37.0,32.0 L 36.0,48.0 L 31.0,43.0 L 28.0,35.0 L 28.0,26.0 L 32.0,17.0 L 41.0,9.0 L 46.0,7.0" fill="#4A4A4A"/>
</svg>
