<?xml version="1.0" ?>
<svg baseProfile="full" height="600px" version="1.1" viewBox="-19.296000000000003 -19.296000000000003 230.592 230.592" width="600px" xmlns="http://www.w3.org/2000/svg" xmlns:ev="http://www.w3.org/2001/xml-events" xmlns:xlink="http://www.w3.org/1999/xlink">
	<defs/>
	<path d="M 0.0,0.0 L 192.0,0.0 L 192.0,192.0 L 0.0,192.0 L 0.0,0.0" fill="#FCFDFE"/>
	<path d="M 99.0,24.0 L 106.0,30.0 L 111.0,35.0 L 109.0,39.0 L 53.0,95.0 L 55.0,99.0 L 111.0,155.0 L 109.0,159.0 L 100.0,168.0 L 93.0,162.0 L 28.0,97.0 L 30.0,93.0 L 99.0,24.0" fill="#2397F3"/>
	<path d="M 143.0,24.0 L 150.0,30.0 L 155.0,35.0 L 153.0,39.0 L 97.0,95.0 L 99.0,99.0 L 155.0,155.0 L 153.0,159.0 L 144.0,168.0 L 137.0,162.0 L 72.0,97.0 L 74.0,93.0 L 143.0,24.0" fill="#2296F3"/>
</svg>
