<?xml version="1.0" ?>
<svg baseProfile="full" height="600px" version="1.1" viewBox="-19.296000000000003 -19.296000000000003 230.592 230.592" width="600px" xmlns="http://www.w3.org/2000/svg" xmlns:ev="http://www.w3.org/2001/xml-events" xmlns:xlink="http://www.w3.org/1999/xlink">
	<defs/>
	<path d="M 0.0,0.0 L 192.0,0.0 L 192.0,192.0 L 0.0,192.0 L 0.0,0.0" fill="#FDFEFE"/>
	<path d="M 95.0,8.0 L 99.0,10.0 L 168.0,79.0 L 166.0,83.0 L 157.0,92.0 L 153.0,90.0 L 97.0,34.0 L 93.0,36.0 L 37.0,92.0 L 33.0,90.0 L 24.0,81.0 L 26.0,77.0 L 95.0,8.0" fill="#2999F3"/>
	<path d="M 95.0,64.0 L 99.0,66.0 L 168.0,135.0 L 162.0,142.0 L 157.0,147.0 L 153.0,145.0 L 102.0,94.0 L 97.0,90.0 L 93.0,92.0 L 83.0,101.0 L 37.0,147.0 L 33.0,145.0 L 24.0,136.0 L 30.0,129.0 L 95.0,64.0" fill="#2397F3"/>
</svg>
