<?xml version="1.0" ?>
<svg baseProfile="full" height="600px" version="1.1" viewBox="-19.296000000000003 -19.296000000000003 230.592 230.592" width="600px" xmlns="http://www.w3.org/2000/svg" xmlns:ev="http://www.w3.org/2001/xml-events" xmlns:xlink="http://www.w3.org/1999/xlink">
	<defs/>
	<path d="M 0.0,0.0 L 192.0,0.0 L 192.0,192.0 L 0.0,192.0 L 0.0,0.0" fill="#FDFEFE"/>
	<path d="M 35.0,48.0 L 39.0,50.0 L 95.0,106.0 L 99.0,104.0 L 155.0,48.0 L 159.0,50.0 L 168.0,59.0 L 166.0,63.0 L 97.0,132.0 L 93.0,130.0 L 24.0,61.0 L 26.0,57.0 L 35.0,48.0" fill="#2899F3"/>
	<path d="M 35.0,98.0 L 39.0,100.0 L 79.0,140.0 L 87.0,147.0 L 95.0,155.0 L 99.0,153.0 L 111.0,141.0 L 119.0,134.0 L 155.0,98.0 L 159.0,100.0 L 168.0,109.0 L 162.0,116.0 L 97.0,181.0 L 93.0,179.0 L 24.0,110.0 L 30.0,103.0 L 35.0,98.0" fill="#2497F3"/>
</svg>
