<?xml version="1.0" ?>
<svg baseProfile="full" height="600px" version="1.1" viewBox="-19.296000000000003 -19.296000000000003 230.592 230.592" width="600px" xmlns="http://www.w3.org/2000/svg" xmlns:ev="http://www.w3.org/2001/xml-events" xmlns:xlink="http://www.w3.org/1999/xlink">
	<defs/>
	<path d="M 0.0,0.0 L 192.0,0.0 L 192.0,192.0 L 0.0,192.0 L 0.0,0.0" fill="#FDFEFE"/>
	<path d="M 35.0,100.0 L 39.0,102.0 L 95.0,158.0 L 99.0,156.0 L 155.0,100.0 L 159.0,102.0 L 168.0,111.0 L 166.0,115.0 L 97.0,184.0 L 93.0,182.0 L 24.0,113.0 L 26.0,109.0 L 35.0,100.0" fill="#299AF3"/>
	<path d="M 35.0,45.0 L 39.0,47.0 L 90.0,98.0 L 95.0,102.0 L 99.0,100.0 L 109.0,91.0 L 155.0,45.0 L 159.0,47.0 L 168.0,56.0 L 162.0,63.0 L 97.0,128.0 L 93.0,126.0 L 24.0,57.0 L 30.0,50.0 L 35.0,45.0" fill="#2397F3"/>
</svg>
