<?xml version="1.0" ?>
<svg baseProfile="full" height="600px" version="1.1" viewBox="-19.296000000000003 -19.296000000000003 230.592 230.592" width="600px" xmlns="http://www.w3.org/2000/svg" xmlns:ev="http://www.w3.org/2001/xml-events" xmlns:xlink="http://www.w3.org/1999/xlink">
	<defs/>
	<path d="M 0.0,0.0 L 192.0,0.0 L 192.0,192.0 L 0.0,192.0 L 0.0,0.0" fill="#FCFDFE"/>
	<path d="M 35.0,35.0 L 39.0,37.0 L 70.0,68.0 L 78.0,75.0 L 95.0,92.0 L 99.0,90.0 L 120.0,69.0 L 128.0,62.0 L 155.0,35.0 L 159.0,37.0 L 168.0,46.0 L 162.0,53.0 L 97.0,118.0 L 93.0,116.0 L 24.0,47.0 L 30.0,40.0 L 35.0,35.0" fill="#2497F3"/>
	<path d="M 35.0,97.0 L 39.0,99.0 L 95.0,155.0 L 99.0,153.0 L 155.0,97.0 L 159.0,99.0 L 168.0,108.0 L 162.0,115.0 L 97.0,180.0 L 93.0,178.0 L 24.0,109.0 L 30.0,102.0 L 35.0,97.0" fill="#2397F3"/>
</svg>
