<?xml version="1.0" ?>
<svg baseProfile="full" height="600px" version="1.1" viewBox="-16.08 -16.08 192.16 192.16" width="600px" xmlns="http://www.w3.org/2000/svg" xmlns:ev="http://www.w3.org/2001/xml-events" xmlns:xlink="http://www.w3.org/1999/xlink">
	<defs/>
	<path d="M 0.0,0.0 L 160.0,0.0 L 160.0,160.0 L 0.0,160.0 L 0.0,0.0" fill="#66A17C"/>
	<path d="M 71.0,8.0 L 80.0,8.0 L 80.0,56.0 L 71.0,58.0 L 65.0,62.0 L 59.0,69.0 L 57.0,74.0 L 57.0,85.0 L 61.0,94.0 L 69.0,101.0 L 74.0,103.0 L 85.0,103.0 L 93.0,100.0 L 101.0,92.0 L 111.0,95.0 L 141.0,106.0 L 146.0,108.0 L 143.0,116.0 L 134.0,128.0 L 126.0,136.0 L 112.0,145.0 L 102.0,149.0 L 87.0,152.0 L 70.0,152.0 L 55.0,148.0 L 41.0,141.0 L 32.0,134.0 L 23.0,125.0 L 15.0,112.0 L 10.0,98.0 L 8.0,90.0 L 8.0,71.0 L 12.0,55.0 L 20.0,39.0 L 32.0,26.0 L 41.0,19.0 L 55.0,12.0 L 71.0,8.0" fill="#B8DEBB"/>
	<path d="M 0.0,0.0 L 160.0,0.0 L 160.0,160.0 L 0.0,160.0 L 0.0,0.0 M 72.0,4.0 L 60.0,6.0 L 47.0,11.0 L 35.0,18.0 L 23.0,29.0 L 14.0,41.0 L 8.0,54.0 L 5.0,65.0 L 4.0,72.0 L 4.0,91.0 L 7.0,104.0 L 15.0,120.0 L 23.0,131.0 L 31.0,139.0 L 45.0,148.0 L 56.0,153.0 L 69.0,156.0 L 88.0,156.0 L 103.0,153.0 L 119.0,146.0 L 131.0,137.0 L 139.0,129.0 L 148.0,115.0 L 153.0,103.0 L 155.0,96.0 L 156.0,88.0 L 156.0,68.0 L 152.0,53.0 L 145.0,39.0 L 137.0,29.0 L 128.0,20.0 L 117.0,13.0 L 101.0,6.0 L 91.0,4.0 L 72.0,4.0" fill="#FDFDFD"/>
	<path d="M 84.0,8.0 L 95.0,9.0 L 104.0,12.0 L 116.0,17.0 L 128.0,26.0 L 136.0,34.0 L 145.0,48.0 L 150.0,61.0 L 152.0,76.0 L 103.0,76.0 L 101.0,69.0 L 94.0,61.0 L 84.0,56.0 L 84.0,8.0" fill="#FDC29A"/>
	<path d="M 75.0,60.0 L 82.0,60.0 L 91.0,63.0 L 98.0,71.0 L 100.0,77.0 L 100.0,85.0 L 95.0,94.0 L 90.0,98.0 L 85.0,100.0 L 75.0,100.0 L 67.0,96.0 L 62.0,90.0 L 60.0,84.0 L 60.0,75.0 L 64.0,67.0 L 69.0,63.0 L 75.0,60.0" fill="#FBFCFB"/>
	<path d="M 80.0,4.0 L 91.0,4.0 L 104.0,7.0 L 121.0,15.0 L 131.0,23.0 L 140.0,32.0 L 147.0,43.0 L 152.0,53.0 L 156.0,68.0 L 156.0,80.0 L 100.0,80.0 L 96.0,69.0 L 89.0,63.0 L 80.0,60.0 L 80.0,4.0 M 84.0,8.0 L 84.0,56.0 L 94.0,61.0 L 101.0,69.0 L 103.0,76.0 L 152.0,76.0 L 150.0,61.0 L 145.0,48.0 L 138.0,37.0 L 129.0,27.0 L 119.0,19.0 L 107.0,13.0 L 98.0,10.0 L 88.0,8.0 L 84.0,8.0" fill="#A57050"/>
	<path d="M 104.0,80.0 L 152.0,80.0 L 152.0,89.0 L 148.0,104.0 L 143.0,103.0 L 123.0,96.0 L 109.0,91.0 L 103.0,88.0 L 104.0,80.0" fill="#89B5EE"/>
	<path d="M 74.0,56.0 L 80.0,56.0 L 80.0,60.0 L 71.0,63.0 L 65.0,67.0 L 61.0,75.0 L 61.0,84.0 L 64.0,91.0 L 69.0,96.0 L 75.0,99.0 L 85.0,99.0 L 93.0,95.0 L 98.0,87.0 L 100.0,80.0 L 104.0,80.0 L 104.0,88.0 L 121.0,94.0 L 139.0,101.0 L 148.0,104.0 L 151.0,89.0 L 152.0,80.0 L 156.0,80.0 L 155.0,96.0 L 151.0,109.0 L 149.0,110.0 L 122.0,100.0 L 103.0,93.0 L 99.0,95.0 L 91.0,102.0 L 85.0,104.0 L 74.0,104.0 L 66.0,100.0 L 58.0,91.0 L 56.0,85.0 L 56.0,74.0 L 60.0,66.0 L 67.0,59.0 L 74.0,56.0" fill="#5480B7"/>
	<path d="M 74.0,56.0 L 80.0,56.0 L 80.0,60.0 L 71.0,63.0 L 65.0,67.0 L 61.0,75.0 L 61.0,84.0 L 64.0,91.0 L 69.0,96.0 L 75.0,99.0 L 85.0,99.0 L 93.0,95.0 L 98.0,90.0 L 101.0,91.0 L 99.0,95.0 L 91.0,102.0 L 85.0,104.0 L 74.0,104.0 L 66.0,100.0 L 58.0,91.0 L 56.0,85.0 L 56.0,74.0 L 60.0,66.0 L 67.0,59.0 L 74.0,56.0" fill="#64A07B"/>
</svg>
