<?xml version="1.0" ?>
<svg baseProfile="full" height="600px" version="1.1" viewBox="-20.1 -20.1 240.2 240.2" width="600px" xmlns="http://www.w3.org/2000/svg" xmlns:ev="http://www.w3.org/2001/xml-events" xmlns:xlink="http://www.w3.org/1999/xlink">
	<defs/>
	<path d="M 0.0,0.0 L 200.0,0.0 L 200.0,200.0 L 0.0,200.0 L 0.0,0.0" fill="#FCFCFC"/>
	<path d="M 93.0,16.0 L 96.0,16.0 L 96.0,64.0 L 84.0,68.0 L 76.0,74.0 L 69.0,82.0 L 65.0,92.0 L 65.0,105.0 L 68.0,116.0 L 74.0,124.0 L 82.0,131.0 L 89.0,134.0 L 94.0,135.0 L 108.0,135.0 L 122.0,128.0 L 129.0,121.0 L 134.0,111.0 L 135.0,104.0 L 135.0,94.0 L 132.0,84.0 L 126.0,76.0 L 119.0,70.0 L 110.0,66.0 L 108.0,65.0 L 109.0,47.0 L 112.0,17.0 L 121.0,18.0 L 139.0,25.0 L 151.0,33.0 L 161.0,42.0 L 168.0,50.0 L 176.0,63.0 L 182.0,79.0 L 184.0,90.0 L 184.0,109.0 L 182.0,121.0 L 175.0,139.0 L 167.0,151.0 L 158.0,161.0 L 150.0,168.0 L 137.0,176.0 L 121.0,182.0 L 111.0,184.0 L 89.0,184.0 L 73.0,180.0 L 59.0,174.0 L 45.0,164.0 L 35.0,154.0 L 25.0,139.0 L 18.0,121.0 L 16.0,111.0 L 16.0,89.0 L 20.0,73.0 L 26.0,59.0 L 36.0,45.0 L 46.0,35.0 L 56.0,28.0 L 70.0,21.0 L 83.0,17.0 L 93.0,16.0" fill="#FCFCFC"/>
	<path d="M 88.0,8.0 L 109.0,8.0 L 125.0,11.0 L 141.0,17.0 L 154.0,25.0 L 167.0,36.0 L 178.0,50.0 L 186.0,66.0 L 191.0,82.0 L 192.0,89.0 L 192.0,110.0 L 189.0,125.0 L 183.0,141.0 L 175.0,154.0 L 164.0,167.0 L 150.0,178.0 L 134.0,186.0 L 117.0,191.0 L 110.0,192.0 L 89.0,192.0 L 74.0,189.0 L 59.0,183.0 L 46.0,175.0 L 33.0,164.0 L 22.0,150.0 L 14.0,134.0 L 10.0,122.0 L 8.0,111.0 L 8.0,88.0 L 12.0,71.0 L 19.0,55.0 L 28.0,42.0 L 37.0,32.0 L 50.0,22.0 L 66.0,14.0 L 82.0,9.0 L 88.0,8.0 M 93.0,16.0 L 79.0,18.0 L 63.0,24.0 L 53.0,30.0 L 43.0,38.0 L 35.0,46.0 L 28.0,56.0 L 21.0,70.0 L 17.0,83.0 L 16.0,89.0 L 16.0,111.0 L 19.0,123.0 L 25.0,139.0 L 33.0,151.0 L 42.0,161.0 L 50.0,168.0 L 63.0,176.0 L 79.0,182.0 L 89.0,184.0 L 111.0,184.0 L 123.0,181.0 L 137.0,176.0 L 151.0,167.0 L 161.0,158.0 L 168.0,150.0 L 176.0,137.0 L 182.0,121.0 L 184.0,109.0 L 184.0,90.0 L 182.0,79.0 L 176.0,63.0 L 167.0,49.0 L 158.0,39.0 L 150.0,32.0 L 137.0,24.0 L 121.0,18.0 L 112.0,17.0 L 108.0,57.0 L 108.0,65.0 L 117.0,69.0 L 123.0,73.0 L 131.0,82.0 L 134.0,89.0 L 135.0,94.0 L 135.0,104.0 L 133.0,113.0 L 128.0,122.0 L 121.0,129.0 L 108.0,135.0 L 94.0,135.0 L 84.0,132.0 L 76.0,126.0 L 70.0,119.0 L 66.0,110.0 L 65.0,105.0 L 65.0,92.0 L 69.0,82.0 L 78.0,72.0 L 86.0,67.0 L 96.0,64.0 L 96.0,16.0 L 93.0,16.0" fill="#070707"/>
	<path d="M 94.0,72.0 L 106.0,72.0 L 118.0,78.0 L 124.0,85.0 L 128.0,94.0 L 128.0,105.0 L 123.0,117.0 L 115.0,124.0 L 106.0,128.0 L 94.0,128.0 L 85.0,124.0 L 77.0,117.0 L 72.0,106.0 L 72.0,94.0 L 78.0,82.0 L 85.0,76.0 L 94.0,72.0" fill="#FBFBFB"/>
</svg>
