<?xml version="1.0" ?>
<svg baseProfile="full" height="600px" version="1.1" viewBox="-20.1 -20.1 240.2 240.2" width="600px" xmlns="http://www.w3.org/2000/svg" xmlns:ev="http://www.w3.org/2001/xml-events" xmlns:xlink="http://www.w3.org/1999/xlink">
	<defs/>
	<path d="M 0.0,0.0 L 200.0,0.0 L 200.0,200.0 L 0.0,200.0 L 0.0,0.0" fill="#FDFDFD"/>
	<path d="M 0.0,0.0 L 200.0,0.0 L 200.0,104.0 L 198.0,101.0 L 193.0,89.0 L 186.0,81.0 L 178.0,76.0 L 174.0,74.0 L 168.0,73.0 L 167.0,60.0 L 163.0,48.0 L 157.0,39.0 L 153.0,34.0 L 143.0,27.0 L 132.0,23.0 L 128.0,22.0 L 111.0,22.0 L 101.0,25.0 L 91.0,31.0 L 85.0,36.0 L 79.0,45.0 L 74.0,43.0 L 63.0,39.0 L 50.0,39.0 L 40.0,43.0 L 33.0,49.0 L 28.0,58.0 L 25.0,70.0 L 15.0,76.0 L 7.0,85.0 L 3.0,94.0 L 2.0,99.0 L 2.0,113.0 L 0.0,113.0 L 0.0,0.0" fill="#FCFCFC"/>
	<path d="M 111.0,21.0 L 128.0,21.0 L 141.0,25.0 L 150.0,31.0 L 156.0,36.0 L 163.0,46.0 L 167.0,56.0 L 168.0,60.0 L 168.0,73.0 L 174.0,73.0 L 185.0,79.0 L 193.0,87.0 L 197.0,95.0 L 199.0,101.0 L 199.0,114.0 L 196.0,123.0 L 191.0,132.0 L 183.0,139.0 L 173.0,143.0 L 168.0,144.0 L 126.0,144.0 L 124.0,142.0 L 125.0,137.0 L 126.0,136.0 L 169.0,135.0 L 179.0,131.0 L 183.0,129.0 L 185.0,125.0 L 189.0,116.0 L 190.0,114.0 L 190.0,102.0 L 184.0,90.0 L 176.0,84.0 L 169.0,81.0 L 162.0,80.0 L 160.0,78.0 L 159.0,61.0 L 154.0,49.0 L 148.0,41.0 L 142.0,36.0 L 134.0,32.0 L 127.0,30.0 L 112.0,30.0 L 101.0,34.0 L 93.0,40.0 L 87.0,47.0 L 82.0,56.0 L 76.0,55.0 L 76.0,53.0 L 72.0,51.0 L 62.0,47.0 L 50.0,47.0 L 42.0,51.0 L 38.0,56.0 L 34.0,66.0 L 32.0,75.0 L 27.0,78.0 L 18.0,84.0 L 12.0,93.0 L 10.0,99.0 L 10.0,109.0 L 14.0,121.0 L 21.0,129.0 L 31.0,134.0 L 34.0,135.0 L 74.0,136.0 L 76.0,138.0 L 75.0,143.0 L 74.0,144.0 L 33.0,144.0 L 22.0,140.0 L 14.0,134.0 L 6.0,125.0 L 2.0,116.0 L 1.0,110.0 L 1.0,99.0 L 4.0,89.0 L 10.0,80.0 L 19.0,72.0 L 25.0,70.0 L 26.0,62.0 L 30.0,52.0 L 38.0,43.0 L 46.0,39.0 L 50.0,38.0 L 63.0,38.0 L 74.0,42.0 L 79.0,45.0 L 81.0,40.0 L 88.0,32.0 L 99.0,25.0 L 106.0,22.0 L 111.0,21.0" fill="#060606"/>
	<path d="M 98.0,120.0 L 103.0,121.0 L 104.0,122.0 L 104.0,175.0 L 109.0,176.0 L 109.0,181.0 L 102.0,188.0 L 97.0,187.0 L 91.0,181.0 L 92.0,176.0 L 96.0,175.0 L 96.0,122.0 L 98.0,120.0" fill="#020202"/>
</svg>
