<?xml version="1.0" ?>
<svg baseProfile="full" height="600px" version="1.1" viewBox="-20.1 -20.1 240.2 240.2" width="600px" xmlns="http://www.w3.org/2000/svg" xmlns:ev="http://www.w3.org/2001/xml-events" xmlns:xlink="http://www.w3.org/1999/xlink">
	<defs/>
	<path d="M 0.0,0.0 L 200.0,0.0 L 200.0,200.0 L 0.0,200.0 L 0.0,0.0" fill="#FDFDFD"/>
	<path d="M 98.0,36.0 L 103.0,37.0 L 104.0,38.0 L 105.0,156.0 L 117.0,140.0 L 133.0,119.0 L 138.0,118.0 L 140.0,120.0 L 139.0,126.0 L 127.0,141.0 L 113.0,160.0 L 103.0,173.0 L 98.0,173.0 L 91.0,165.0 L 78.0,148.0 L 68.0,135.0 L 60.0,124.0 L 61.0,119.0 L 66.0,118.0 L 78.0,133.0 L 90.0,149.0 L 95.0,155.0 L 96.0,38.0 L 98.0,36.0" fill="#040404"/>
</svg>
