<?xml version="1.0" ?>
<svg baseProfile="full" height="600px" version="1.1" viewBox="-16.08 -16.08 192.16 192.16" width="600px" xmlns="http://www.w3.org/2000/svg" xmlns:ev="http://www.w3.org/2001/xml-events" xmlns:xlink="http://www.w3.org/1999/xlink">
	<defs/>
	<path d="M 0.0,0.0 L 160.0,0.0 L 160.0,160.0 L 0.0,160.0 L 0.0,0.0" fill="#C0E6FD"/>
	<path d="M 0.0,91.0 L 2.0,94.0 L 6.0,102.0 L 13.0,108.0 L 20.0,111.0 L 76.0,112.0 L 76.0,128.0 L 57.0,129.0 L 79.0,151.0 L 83.0,149.0 L 103.0,129.0 L 84.0,128.0 L 84.0,112.0 L 140.0,111.0 L 150.0,106.0 L 156.0,99.0 L 159.0,92.0 L 160.0,92.0 L 160.0,160.0 L 0.0,160.0 L 0.0,91.0" fill="#FDFDFE"/>
	<path d="M 0.0,0.0 L 160.0,0.0 L 160.0,81.0 L 158.0,77.0 L 153.0,69.0 L 147.0,64.0 L 144.0,62.0 L 140.0,51.0 L 136.0,46.0 L 128.0,42.0 L 115.0,40.0 L 108.0,28.0 L 100.0,21.0 L 94.0,18.0 L 89.0,17.0 L 76.0,17.0 L 67.0,21.0 L 59.0,28.0 L 55.0,34.0 L 53.0,38.0 L 42.0,40.0 L 34.0,45.0 L 28.0,54.0 L 26.0,60.0 L 14.0,63.0 L 5.0,71.0 L 1.0,80.0 L 0.0,80.0 L 0.0,0.0" fill="#FDFDFE"/>
	<path d="M 76.0,16.0 L 89.0,16.0 L 98.0,19.0 L 104.0,23.0 L 111.0,31.0 L 115.0,39.0 L 128.0,41.0 L 136.0,45.0 L 142.0,53.0 L 145.0,62.0 L 151.0,66.0 L 157.0,73.0 L 160.0,81.0 L 160.0,92.0 L 155.0,102.0 L 147.0,109.0 L 140.0,112.0 L 92.0,112.0 L 92.0,108.0 L 139.0,107.0 L 147.0,103.0 L 153.0,96.0 L 155.0,91.0 L 155.0,82.0 L 152.0,74.0 L 150.0,70.0 L 146.0,68.0 L 139.0,65.0 L 137.0,54.0 L 133.0,49.0 L 124.0,45.0 L 113.0,44.0 L 110.0,41.0 L 105.0,31.0 L 97.0,24.0 L 88.0,21.0 L 77.0,21.0 L 68.0,25.0 L 63.0,29.0 L 58.0,38.0 L 56.0,42.0 L 43.0,44.0 L 37.0,48.0 L 31.0,57.0 L 29.0,65.0 L 21.0,65.0 L 13.0,69.0 L 7.0,76.0 L 5.0,81.0 L 5.0,90.0 L 9.0,99.0 L 10.0,102.0 L 14.0,104.0 L 22.0,107.0 L 68.0,108.0 L 68.0,112.0 L 20.0,112.0 L 10.0,107.0 L 3.0,99.0 L 0.0,91.0 L 0.0,80.0 L 4.0,71.0 L 11.0,64.0 L 20.0,60.0 L 26.0,60.0 L 27.0,54.0 L 33.0,45.0 L 38.0,41.0 L 45.0,38.0 L 53.0,37.0 L 57.0,29.0 L 65.0,21.0 L 73.0,17.0 L 76.0,16.0" fill="#779AC6"/>
	<path d="M 76.0,76.0 L 84.0,76.0 L 84.0,128.0 L 104.0,128.0 L 98.0,135.0 L 81.0,152.0 L 77.0,150.0 L 56.0,129.0 L 56.0,128.0 L 76.0,128.0 L 76.0,76.0" fill="#527DB6"/>
</svg>
