<?xml version="1.0" ?>
<svg baseProfile="full" height="600px" version="1.1" viewBox="-12.06 -12.06 144.12 144.12" width="600px" xmlns="http://www.w3.org/2000/svg" xmlns:ev="http://www.w3.org/2001/xml-events" xmlns:xlink="http://www.w3.org/1999/xlink">
	<defs/>
	<path d="M 0.0,0.0 L 120.0,0.0 L 120.0,120.0 L 0.0,120.0 L 0.0,0.0" fill="#FDFDFD"/>
	<path d="M 21.0,24.0 L 56.0,24.0 L 56.0,74.0 L 49.0,68.0 L 46.0,65.0 L 41.0,66.0 L 42.0,71.0 L 58.0,87.0 L 63.0,86.0 L 79.0,70.0 L 78.0,65.0 L 73.0,66.0 L 65.0,74.0 L 64.0,74.0 L 64.0,24.0 L 99.0,24.0 L 104.0,29.0 L 104.0,103.0 L 99.0,108.0 L 21.0,108.0 L 16.0,103.0 L 16.0,29.0 L 21.0,24.0" fill="#010101"/>
	<path d="M 58.0,4.0 L 63.0,5.0 L 64.0,6.0 L 65.0,73.0 L 74.0,64.0 L 79.0,65.0 L 80.0,70.0 L 62.0,88.0 L 57.0,87.0 L 40.0,70.0 L 41.0,65.0 L 46.0,64.0 L 55.0,73.0 L 56.0,6.0 L 58.0,4.0" fill="#FCFCFC"/>
	<path d="M 58.0,4.0 L 63.0,5.0 L 64.0,6.0 L 64.0,24.0 L 56.0,24.0 L 56.0,6.0 L 58.0,4.0" fill="#020202"/>
</svg>
