<?xml version="1.0" ?>
<svg baseProfile="full" height="600px" version="1.1" viewBox="-16.08 -16.08 192.16 192.16" width="600px" xmlns="http://www.w3.org/2000/svg" xmlns:ev="http://www.w3.org/2001/xml-events" xmlns:xlink="http://www.w3.org/1999/xlink">
	<defs/>
	<path d="M 0.0,0.0 L 160.0,0.0 L 160.0,160.0 L 0.0,160.0 L 0.0,0.0" fill="#FDFDFD"/>
	<path d="M 68.0,8.0 L 92.0,8.0 L 92.0,96.0 L 131.0,96.0 L 126.0,102.0 L 115.0,111.0 L 102.0,122.0 L 89.0,133.0 L 81.0,139.0 L 76.0,137.0 L 64.0,126.0 L 53.0,117.0 L 40.0,105.0 L 30.0,97.0 L 30.0,96.0 L 68.0,96.0 L 68.0,8.0" fill="#B7DEBB"/>
	<path d="M 68.0,8.0 L 92.0,8.0 L 92.0,96.0 L 131.0,96.0 L 126.0,102.0 L 115.0,111.0 L 102.0,122.0 L 89.0,133.0 L 81.0,139.0 L 76.0,137.0 L 64.0,126.0 L 53.0,117.0 L 40.0,105.0 L 30.0,97.0 L 30.0,96.0 L 68.0,96.0 L 68.0,8.0 M 72.0,12.0 L 72.0,100.0 L 41.0,100.0 L 46.0,105.0 L 59.0,117.0 L 70.0,126.0 L 79.0,134.0 L 83.0,132.0 L 94.0,123.0 L 107.0,112.0 L 120.0,101.0 L 120.0,100.0 L 88.0,100.0 L 88.0,12.0 L 72.0,12.0" fill="#619E79"/>
</svg>
