<?xml version="1.0" ?>
<svg baseProfile="full" height="600px" version="1.1" viewBox="-20.1 -20.1 240.2 240.2" width="600px" xmlns="http://www.w3.org/2000/svg" xmlns:ev="http://www.w3.org/2001/xml-events" xmlns:xlink="http://www.w3.org/1999/xlink">
	<defs/>
	<path d="M 0.0,0.0 L 200.0,0.0 L 200.0,200.0 L 0.0,200.0 L 0.0,0.0" fill="#FDFDFD"/>
	<path d="M 66.0,26.0 L 79.0,26.0 L 88.0,28.0 L 102.0,35.0 L 111.0,44.0 L 111.0,46.0 L 125.0,39.0 L 128.0,38.0 L 139.0,38.0 L 150.0,41.0 L 158.0,47.0 L 163.0,53.0 L 167.0,61.0 L 168.0,64.0 L 168.0,74.0 L 174.0,75.0 L 182.0,81.0 L 190.0,90.0 L 194.0,100.0 L 194.0,112.0 L 192.0,121.0 L 188.0,129.0 L 183.0,135.0 L 174.0,141.0 L 164.0,144.0 L 126.0,144.0 L 124.0,142.0 L 125.0,137.0 L 126.0,136.0 L 164.0,135.0 L 173.0,131.0 L 180.0,125.0 L 184.0,116.0 L 185.0,113.0 L 185.0,102.0 L 181.0,93.0 L 176.0,87.0 L 167.0,82.0 L 161.0,80.0 L 160.0,79.0 L 159.0,66.0 L 155.0,57.0 L 150.0,52.0 L 143.0,48.0 L 140.0,47.0 L 129.0,47.0 L 119.0,52.0 L 114.0,58.0 L 109.0,58.0 L 102.0,47.0 L 93.0,40.0 L 84.0,36.0 L 80.0,35.0 L 67.0,35.0 L 56.0,39.0 L 47.0,46.0 L 41.0,55.0 L 37.0,65.0 L 36.0,75.0 L 32.0,79.0 L 23.0,85.0 L 17.0,94.0 L 15.0,101.0 L 15.0,112.0 L 19.0,122.0 L 25.0,129.0 L 34.0,134.0 L 38.0,135.0 L 74.0,136.0 L 76.0,138.0 L 75.0,143.0 L 74.0,144.0 L 36.0,144.0 L 24.0,139.0 L 14.0,130.0 L 8.0,120.0 L 6.0,111.0 L 6.0,98.0 L 11.0,86.0 L 20.0,76.0 L 26.0,72.0 L 28.0,72.0 L 28.0,64.0 L 32.0,52.0 L 39.0,42.0 L 47.0,34.0 L 58.0,28.0 L 66.0,26.0" fill="#060606"/>
	<path d="M 98.0,115.0 L 103.0,116.0 L 104.0,117.0 L 104.0,195.0 L 102.0,197.0 L 97.0,196.0 L 96.0,195.0 L 96.0,117.0 L 98.0,115.0" fill="#010101"/>
</svg>
