<?xml version="1.0" ?>
<svg baseProfile="full" height="600px" version="1.1" viewBox="-20.1 -20.1 240.2 240.2" width="600px" xmlns="http://www.w3.org/2000/svg" xmlns:ev="http://www.w3.org/2001/xml-events" xmlns:xlink="http://www.w3.org/1999/xlink">
	<defs/>
	<path d="M 0.0,0.0 L 200.0,0.0 L 200.0,200.0 L 0.0,200.0 L 0.0,0.0" fill="#FCFCFC"/>
	<path d="M 0.0,0.0 L 200.0,0.0 L 200.0,200.0 L 0.0,200.0 L 0.0,0.0 M 15.0,17.0 L 10.0,20.0 L 7.0,25.0 L 7.0,93.0 L 8.0,145.0 L 9.0,177.0 L 13.0,183.0 L 17.0,185.0 L 49.0,185.0 L 129.0,184.0 L 184.0,183.0 L 189.0,180.0 L 192.0,176.0 L 192.0,61.0 L 191.0,38.0 L 186.0,33.0 L 182.0,31.0 L 70.0,31.0 L 64.0,22.0 L 58.0,17.0 L 15.0,17.0" fill="#FAFAFA"/>
	<path d="M 15.0,17.0 L 58.0,17.0 L 66.0,24.0 L 70.0,31.0 L 182.0,31.0 L 189.0,35.0 L 191.0,38.0 L 192.0,61.0 L 192.0,176.0 L 187.0,182.0 L 184.0,183.0 L 129.0,184.0 L 49.0,185.0 L 17.0,185.0 L 11.0,181.0 L 9.0,177.0 L 8.0,145.0 L 7.0,93.0 L 7.0,25.0 L 10.0,20.0 L 15.0,17.0 M 157.0,59.0 L 65.0,60.0 L 17.0,61.0 L 16.0,62.0 L 16.0,133.0 L 17.0,175.0 L 19.0,177.0 L 163.0,176.0 L 183.0,175.0 L 184.0,174.0 L 184.0,81.0 L 183.0,61.0 L 181.0,59.0 L 157.0,59.0" fill="#080808"/>
	<path d="M 17.0,25.0 L 56.0,25.0 L 64.0,36.0 L 69.0,39.0 L 181.0,39.0 L 183.0,41.0 L 183.0,51.0 L 157.0,52.0 L 15.0,53.0 L 15.0,27.0 L 17.0,25.0" fill="#F8F8F8"/>
	<path d="M 98.0,89.0 L 103.0,90.0 L 104.0,91.0 L 104.0,140.0 L 109.0,141.0 L 109.0,146.0 L 105.0,151.0 L 164.0,152.0 L 165.0,157.0 L 162.0,160.0 L 77.0,161.0 L 37.0,161.0 L 35.0,159.0 L 35.0,154.0 L 37.0,152.0 L 96.0,151.0 L 91.0,146.0 L 92.0,141.0 L 96.0,140.0 L 96.0,91.0 L 98.0,89.0" fill="#0B0B0B"/>
</svg>
