<?xml version="1.0" ?>
<svg baseProfile="full" height="600px" version="1.1" viewBox="-16.08 -16.08 192.16 192.16" width="600px" xmlns="http://www.w3.org/2000/svg" xmlns:ev="http://www.w3.org/2001/xml-events" xmlns:xlink="http://www.w3.org/1999/xlink">
	<defs/>
	<path d="M 0.0,0.0 L 160.0,0.0 L 160.0,160.0 L 0.0,160.0 L 0.0,0.0" fill="#FDFEFD"/>
	<path d="M 68.0,3.0 L 92.0,3.0 L 92.0,95.0 L 129.0,95.0 L 124.0,100.0 L 109.0,114.0 L 101.0,121.0 L 91.0,130.0 L 83.0,137.0 L 79.0,139.0 L 70.0,130.0 L 62.0,123.0 L 47.0,109.0 L 37.0,100.0 L 32.0,95.0 L 68.0,95.0 L 68.0,3.0" fill="#B7DEBB"/>
	<path d="M 68.0,3.0 L 92.0,3.0 L 92.0,95.0 L 129.0,95.0 L 124.0,100.0 L 109.0,114.0 L 101.0,121.0 L 91.0,130.0 L 83.0,137.0 L 79.0,139.0 L 70.0,130.0 L 62.0,123.0 L 47.0,109.0 L 37.0,100.0 L 32.0,95.0 L 68.0,95.0 L 68.0,3.0 M 72.0,7.0 L 72.0,99.0 L 43.0,99.0 L 49.0,106.0 L 57.0,113.0 L 72.0,127.0 L 79.0,133.0 L 83.0,131.0 L 93.0,122.0 L 101.0,115.0 L 111.0,106.0 L 118.0,100.0 L 118.0,99.0 L 88.0,99.0 L 88.0,7.0 L 72.0,7.0" fill="#619E78"/>
</svg>
