<?xml version="1.0" ?>
<svg baseProfile="full" height="600px" version="1.1" viewBox="-19.296000000000003 -19.296000000000003 230.592 230.592" width="600px" xmlns="http://www.w3.org/2000/svg" xmlns:ev="http://www.w3.org/2001/xml-events" xmlns:xlink="http://www.w3.org/1999/xlink">
	<defs/>
	<path d="M 0.0,0.0 L 192.0,0.0 L 192.0,192.0 L 0.0,192.0 L 0.0,0.0" fill="#FDFDFE"/>
	<path d="M 80.0,64.0 L 112.0,64.0 L 112.0,96.0 L 140.0,96.0 L 134.0,104.0 L 121.0,119.0 L 110.0,132.0 L 101.0,143.0 L 97.0,148.0 L 94.0,147.0 L 85.0,136.0 L 73.0,122.0 L 64.0,111.0 L 52.0,97.0 L 52.0,96.0 L 80.0,96.0 L 80.0,64.0" fill="#1766C0"/>
	<path d="M 24.0,160.0 L 168.0,160.0 L 168.0,176.0 L 24.0,176.0 L 24.0,160.0" fill="#1565C0"/>
	<path d="M 80.0,40.0 L 112.0,40.0 L 112.0,56.0 L 80.0,56.0 L 80.0,40.0" fill="#1565C0"/>
	<path d="M 80.0,16.0 L 112.0,16.0 L 112.0,32.0 L 80.0,32.0 L 80.0,16.0" fill="#1565C0"/>
</svg>
