<?xml version="1.0" ?>
<svg baseProfile="full" height="600px" version="1.1" viewBox="-12.06 -12.06 144.12 144.12" width="600px" xmlns="http://www.w3.org/2000/svg" xmlns:ev="http://www.w3.org/2001/xml-events" xmlns:xlink="http://www.w3.org/1999/xlink">
	<defs/>
	<path d="M 0.0,0.0 L 120.0,0.0 L 120.0,120.0 L 0.0,120.0 L 0.0,0.0" fill="#FDFDFD"/>
	<path d="M 21.0,24.0 L 56.0,24.0 L 57.0,70.0 L 63.0,70.0 L 64.0,24.0 L 99.0,24.0 L 104.0,29.0 L 104.0,103.0 L 99.0,108.0 L 21.0,108.0 L 16.0,103.0 L 16.0,29.0 L 21.0,24.0" fill="#010101"/>
	<path d="M 58.0,14.0 L 63.0,15.0 L 64.0,16.0 L 64.0,70.0 L 63.0,71.0 L 57.0,71.0 L 56.0,70.0 L 56.0,16.0 L 58.0,14.0" fill="#FCFCFC"/>
	<path d="M 58.0,14.0 L 63.0,15.0 L 64.0,16.0 L 64.0,24.0 L 56.0,24.0 L 56.0,16.0 L 58.0,14.0" fill="#0C0C0C"/>
</svg>
