<?xml version="1.0" ?>
<svg baseProfile="full" height="600px" version="1.1" viewBox="-19.296000000000003 -19.296000000000003 230.592 230.592" width="600px" xmlns="http://www.w3.org/2000/svg" xmlns:ev="http://www.w3.org/2001/xml-events" xmlns:xlink="http://www.w3.org/1999/xlink">
	<defs/>
	<path d="M 0.0,0.0 L 192.0,0.0 L 192.0,192.0 L 0.0,192.0 L 0.0,0.0" fill="#FDFDFE"/>
	<path d="M 80.0,48.0 L 112.0,48.0 L 112.0,68.0 L 142.0,68.0 L 142.0,70.0 L 137.0,75.0 L 124.0,88.0 L 117.0,96.0 L 108.0,105.0 L 101.0,113.0 L 97.0,117.0 L 93.0,115.0 L 85.0,107.0 L 78.0,99.0 L 69.0,90.0 L 62.0,82.0 L 54.0,74.0 L 50.0,70.0 L 50.0,68.0 L 80.0,68.0 L 80.0,48.0" fill="#1967C1"/>
	<path d="M 24.0,160.0 L 168.0,160.0 L 168.0,176.0 L 24.0,176.0 L 24.0,160.0" fill="#1565C0"/>
</svg>
