<?xml version="1.0" ?>
<svg baseProfile="full" height="600px" version="1.1" viewBox="-20.1 -20.1 240.2 240.2" width="600px" xmlns="http://www.w3.org/2000/svg" xmlns:ev="http://www.w3.org/2001/xml-events" xmlns:xlink="http://www.w3.org/1999/xlink">
	<defs/>
	<path d="M 0.0,0.0 L 200.0,0.0 L 200.0,200.0 L 0.0,200.0 L 0.0,0.0" fill="#FDFDFD"/>
	<path d="M 97.0,27.0 L 103.0,27.0 L 104.0,28.0 L 105.0,145.0 L 117.0,134.0 L 125.0,127.0 L 135.0,118.0 L 141.0,113.0 L 146.0,114.0 L 147.0,119.0 L 138.0,128.0 L 130.0,135.0 L 120.0,144.0 L 112.0,151.0 L 104.0,158.0 L 96.0,158.0 L 84.0,147.0 L 73.0,138.0 L 61.0,127.0 L 53.0,120.0 L 52.0,115.0 L 54.0,113.0 L 59.0,114.0 L 69.0,123.0 L 80.0,132.0 L 92.0,143.0 L 95.0,145.0 L 96.0,28.0 L 97.0,27.0" fill="#040404"/>
</svg>
