<?xml version="1.0" ?>
<svg baseProfile="full" height="600px" version="1.1" viewBox="-20.1 -20.1 240.2 240.2" width="600px" xmlns="http://www.w3.org/2000/svg" xmlns:ev="http://www.w3.org/2001/xml-events" xmlns:xlink="http://www.w3.org/1999/xlink">
	<defs/>
	<path d="M 0.0,0.0 L 200.0,0.0 L 200.0,200.0 L 0.0,200.0 L 0.0,0.0" fill="#FCFCFC"/>
	<path d="M 0.0,0.0 L 200.0,0.0 L 200.0,200.0 L 0.0,200.0 L 0.0,0.0 M 42.0,19.0 L 10.0,22.0 L 4.0,27.0 L 3.0,29.0 L 3.0,48.0 L 7.0,111.0 L 9.0,134.0 L 12.0,180.0 L 16.0,186.0 L 20.0,189.0 L 37.0,189.0 L 71.0,187.0 L 95.0,185.0 L 123.0,183.0 L 185.0,179.0 L 193.0,175.0 L 196.0,170.0 L 196.0,155.0 L 195.0,138.0 L 194.0,131.0 L 191.0,79.0 L 188.0,41.0 L 186.0,32.0 L 180.0,27.0 L 165.0,27.0 L 131.0,29.0 L 122.0,30.0 L 88.0,32.0 L 79.0,33.0 L 66.0,33.0 L 58.0,23.0 L 51.0,19.0 L 42.0,19.0" fill="#FCFCFC"/>
	<path d="M 42.0,19.0 L 51.0,19.0 L 59.0,24.0 L 66.0,33.0 L 79.0,33.0 L 102.0,31.0 L 122.0,30.0 L 150.0,28.0 L 165.0,27.0 L 180.0,27.0 L 186.0,32.0 L 188.0,41.0 L 192.0,93.0 L 194.0,131.0 L 195.0,138.0 L 196.0,155.0 L 196.0,170.0 L 192.0,176.0 L 185.0,179.0 L 123.0,183.0 L 95.0,185.0 L 57.0,188.0 L 37.0,189.0 L 20.0,189.0 L 14.0,184.0 L 12.0,180.0 L 8.0,119.0 L 6.0,95.0 L 3.0,48.0 L 3.0,29.0 L 8.0,23.0 L 10.0,22.0 L 42.0,19.0 M 167.0,55.0 L 147.0,56.0 L 119.0,58.0 L 67.0,62.0 L 33.0,64.0 L 15.0,66.0 L 13.0,68.0 L 15.0,103.0 L 20.0,178.0 L 22.0,181.0 L 36.0,181.0 L 79.0,178.0 L 107.0,176.0 L 141.0,174.0 L 162.0,172.0 L 180.0,171.0 L 187.0,169.0 L 188.0,168.0 L 188.0,156.0 L 187.0,147.0 L 184.0,100.0 L 181.0,61.0 L 179.0,55.0 L 167.0,55.0" fill="#0A0A0A"/>
	<path d="M 37.0,28.0 L 52.0,28.0 L 58.0,36.0 L 64.0,41.0 L 80.0,41.0 L 104.0,39.0 L 132.0,37.0 L 166.0,35.0 L 178.0,35.0 L 180.0,42.0 L 180.0,47.0 L 146.0,49.0 L 122.0,51.0 L 94.0,53.0 L 60.0,55.0 L 32.0,57.0 L 12.0,58.0 L 11.0,52.0 L 11.0,31.0 L 12.0,30.0 L 37.0,28.0" fill="#F9F9F9"/>
	<path d="M 126.0,150.0 L 136.0,150.0 L 137.0,151.0 L 137.0,156.0 L 135.0,158.0 L 127.0,159.0 L 79.0,162.0 L 70.0,162.0 L 68.0,160.0 L 69.0,155.0 L 70.0,154.0 L 92.0,152.0 L 126.0,150.0" fill="#080808"/>
	<path d="M 96.0,88.0 L 101.0,88.0 L 103.0,90.0 L 105.0,120.0 L 105.0,130.0 L 103.0,132.0 L 98.0,131.0 L 97.0,130.0 L 95.0,102.0 L 95.0,89.0 L 96.0,88.0" fill="#090909"/>
</svg>
