<?xml version="1.0" ?>
<svg baseProfile="full" height="600px" version="1.1" viewBox="-16.08 -16.08 192.16 192.16" width="600px" xmlns="http://www.w3.org/2000/svg" xmlns:ev="http://www.w3.org/2001/xml-events" xmlns:xlink="http://www.w3.org/1999/xlink">
	<defs/>
	<path d="M 0.0,0.0 L 160.0,0.0 L 160.0,160.0 L 0.0,160.0 L 0.0,0.0" fill="#C0E6FD"/>
	<path d="M 0.0,91.0 L 2.0,94.0 L 6.0,102.0 L 13.0,108.0 L 20.0,111.0 L 140.0,111.0 L 150.0,106.0 L 156.0,99.0 L 159.0,92.0 L 160.0,92.0 L 160.0,160.0 L 0.0,160.0 L 0.0,91.0" fill="#FDFDFE"/>
	<path d="M 0.0,0.0 L 160.0,0.0 L 160.0,81.0 L 158.0,77.0 L 153.0,69.0 L 147.0,64.0 L 144.0,62.0 L 141.0,51.0 L 137.0,45.0 L 129.0,39.0 L 120.0,36.0 L 111.0,35.0 L 104.0,25.0 L 95.0,19.0 L 89.0,17.0 L 75.0,17.0 L 65.0,21.0 L 58.0,27.0 L 53.0,36.0 L 51.0,41.0 L 42.0,43.0 L 36.0,47.0 L 30.0,57.0 L 29.0,60.0 L 17.0,62.0 L 10.0,66.0 L 3.0,74.0 L 1.0,80.0 L 0.0,80.0 L 0.0,0.0" fill="#FDFDFE"/>
	<path d="M 75.0,16.0 L 89.0,16.0 L 99.0,20.0 L 107.0,27.0 L 111.0,34.0 L 123.0,36.0 L 132.0,40.0 L 140.0,47.0 L 144.0,57.0 L 145.0,62.0 L 151.0,66.0 L 157.0,73.0 L 160.0,81.0 L 160.0,92.0 L 155.0,102.0 L 147.0,109.0 L 140.0,112.0 L 20.0,112.0 L 10.0,107.0 L 3.0,99.0 L 0.0,91.0 L 0.0,80.0 L 4.0,71.0 L 11.0,64.0 L 20.0,60.0 L 29.0,60.0 L 30.0,55.0 L 36.0,46.0 L 45.0,41.0 L 51.0,41.0 L 52.0,36.0 L 57.0,27.0 L 65.0,20.0 L 75.0,16.0 M 77.0,20.0 L 67.0,24.0 L 60.0,30.0 L 55.0,40.0 L 55.0,45.0 L 46.0,45.0 L 39.0,49.0 L 33.0,58.0 L 32.0,65.0 L 28.0,64.0 L 21.0,64.0 L 13.0,68.0 L 6.0,76.0 L 4.0,81.0 L 4.0,90.0 L 8.0,99.0 L 13.0,104.0 L 18.0,107.0 L 22.0,108.0 L 139.0,108.0 L 147.0,104.0 L 154.0,96.0 L 156.0,91.0 L 156.0,82.0 L 153.0,74.0 L 148.0,69.0 L 144.0,66.0 L 139.0,65.0 L 139.0,54.0 L 135.0,48.0 L 129.0,43.0 L 122.0,40.0 L 109.0,39.0 L 104.0,30.0 L 97.0,24.0 L 91.0,21.0 L 86.0,20.0 L 77.0,20.0" fill="#779AC7"/>
	<path d="M 76.0,78.0 L 84.0,78.0 L 84.0,105.0 L 76.0,105.0 L 76.0,78.0" fill="#4F7BB5"/>
</svg>
