<?xml version="1.0" ?>
<svg baseProfile="full" height="600px" version="1.1" viewBox="-12.06 -12.06 144.12 144.12" width="600px" xmlns="http://www.w3.org/2000/svg" xmlns:ev="http://www.w3.org/2001/xml-events" xmlns:xlink="http://www.w3.org/1999/xlink">
	<defs/>
	<path d="M 0.0,0.0 L 120.0,0.0 L 120.0,120.0 L 0.0,120.0 L 0.0,0.0" fill="#FCFCFC"/>
	<path d="M 62.0,31.0 L 69.0,31.0 L 74.0,36.0 L 76.0,53.0 L 76.0,58.0 L 80.0,56.0 L 87.0,56.0 L 92.0,61.0 L 102.0,60.0 L 107.0,64.0 L 116.0,64.0 L 119.0,67.0 L 119.0,105.0 L 115.0,111.0 L 109.0,115.0 L 106.0,116.0 L 71.0,116.0 L 61.0,111.0 L 49.0,101.0 L 29.0,89.0 L 28.0,84.0 L 32.0,80.0 L 43.0,80.0 L 55.0,85.0 L 59.0,87.0 L 59.0,60.0 L 58.0,35.0 L 62.0,31.0" fill="#030303"/>
	<path d="M 59.0,11.0 L 69.0,11.0 L 77.0,15.0 L 84.0,23.0 L 85.0,26.0 L 85.0,39.0 L 81.0,46.0 L 80.0,46.0 L 79.0,34.0 L 75.0,28.0 L 70.0,25.0 L 61.0,25.0 L 55.0,28.0 L 51.0,33.0 L 49.0,46.0 L 45.0,42.0 L 43.0,37.0 L 43.0,27.0 L 48.0,18.0 L 56.0,12.0 L 59.0,11.0" fill="#0B0B0B"/>
</svg>
