<?xml version="1.0" ?>
<svg baseProfile="full" height="600px" version="1.1" viewBox="-20.1 -20.1 240.2 240.2" width="600px" xmlns="http://www.w3.org/2000/svg" xmlns:ev="http://www.w3.org/2001/xml-events" xmlns:xlink="http://www.w3.org/1999/xlink">
	<defs/>
	<path d="M 0.0,0.0 L 200.0,0.0 L 200.0,200.0 L 0.0,200.0 L 0.0,0.0" fill="#FDFDFD"/>
	<path d="M 90.0,18.0 L 103.0,18.0 L 115.0,24.0 L 121.0,31.0 L 125.0,40.0 L 125.0,52.0 L 121.0,62.0 L 117.0,67.0 L 112.0,71.0 L 111.0,77.0 L 122.0,77.0 L 128.0,81.0 L 129.0,84.0 L 136.0,80.0 L 143.0,80.0 L 149.0,83.0 L 154.0,88.0 L 154.0,90.0 L 159.0,88.0 L 167.0,88.0 L 174.0,92.0 L 178.0,97.0 L 179.0,99.0 L 179.0,161.0 L 176.0,170.0 L 170.0,179.0 L 163.0,185.0 L 151.0,190.0 L 105.0,190.0 L 94.0,186.0 L 84.0,180.0 L 72.0,169.0 L 34.0,131.0 L 30.0,123.0 L 30.0,115.0 L 34.0,109.0 L 39.0,105.0 L 41.0,104.0 L 51.0,104.0 L 59.0,110.0 L 77.0,128.0 L 79.0,91.0 L 79.0,69.0 L 72.0,61.0 L 68.0,50.0 L 68.0,41.0 L 72.0,31.0 L 77.0,25.0 L 87.0,19.0 L 90.0,18.0" fill="#FCFCFC"/>
	<path d="M 90.0,18.0 L 103.0,18.0 L 115.0,24.0 L 121.0,31.0 L 125.0,40.0 L 125.0,52.0 L 121.0,62.0 L 117.0,67.0 L 112.0,71.0 L 111.0,77.0 L 122.0,77.0 L 128.0,81.0 L 129.0,84.0 L 136.0,80.0 L 143.0,80.0 L 149.0,83.0 L 154.0,88.0 L 154.0,90.0 L 159.0,88.0 L 167.0,88.0 L 174.0,92.0 L 178.0,97.0 L 179.0,99.0 L 179.0,161.0 L 176.0,170.0 L 170.0,179.0 L 163.0,185.0 L 151.0,190.0 L 105.0,190.0 L 94.0,186.0 L 84.0,180.0 L 72.0,169.0 L 34.0,131.0 L 30.0,123.0 L 30.0,115.0 L 34.0,109.0 L 39.0,105.0 L 41.0,104.0 L 51.0,104.0 L 59.0,110.0 L 77.0,128.0 L 79.0,91.0 L 79.0,69.0 L 72.0,61.0 L 68.0,50.0 L 68.0,41.0 L 72.0,31.0 L 77.0,25.0 L 87.0,19.0 L 90.0,18.0 M 93.0,48.0 L 89.0,53.0 L 85.0,128.0 L 84.0,142.0 L 78.0,140.0 L 51.0,113.0 L 49.0,112.0 L 42.0,112.0 L 38.0,117.0 L 39.0,124.0 L 89.0,174.0 L 100.0,180.0 L 106.0,182.0 L 151.0,182.0 L 159.0,178.0 L 165.0,173.0 L 171.0,161.0 L 171.0,101.0 L 166.0,96.0 L 159.0,97.0 L 156.0,100.0 L 155.0,111.0 L 150.0,111.0 L 149.0,110.0 L 148.0,94.0 L 144.0,89.0 L 137.0,88.0 L 132.0,93.0 L 131.0,102.0 L 126.0,103.0 L 125.0,102.0 L 124.0,89.0 L 120.0,85.0 L 114.0,84.0 L 109.0,89.0 L 108.0,101.0 L 107.0,103.0 L 102.0,103.0 L 102.0,86.0 L 104.0,65.0 L 104.0,52.0 L 100.0,48.0 L 93.0,48.0" fill="#090909"/>
	<path d="M 91.0,26.0 L 102.0,26.0 L 112.0,32.0 L 117.0,41.0 L 117.0,51.0 L 113.0,59.0 L 112.0,59.0 L 111.0,50.0 L 107.0,44.0 L 101.0,41.0 L 92.0,41.0 L 86.0,45.0 L 82.0,51.0 L 81.0,59.0 L 78.0,56.0 L 76.0,51.0 L 76.0,43.0 L 79.0,35.0 L 88.0,27.0 L 91.0,26.0" fill="#F6F6F6"/>
</svg>
