<?xml version="1.0" ?>
<svg baseProfile="full" height="600px" version="1.1" viewBox="-20.1 -20.1 240.2 240.2" width="600px" xmlns="http://www.w3.org/2000/svg" xmlns:ev="http://www.w3.org/2001/xml-events" xmlns:xlink="http://www.w3.org/1999/xlink">
	<defs/>
	<path d="M 0.0,0.0 L 200.0,0.0 L 200.0,200.0 L 0.0,200.0 L 0.0,0.0" fill="#FDFDFD"/>
	<path d="M 64.0,17.0 L 76.0,17.0 L 86.0,21.0 L 93.0,27.0 L 98.0,35.0 L 99.0,38.0 L 99.0,53.0 L 95.0,63.0 L 87.0,71.0 L 85.0,71.0 L 85.0,78.0 L 87.0,77.0 L 98.0,77.0 L 104.0,81.0 L 105.0,84.0 L 112.0,80.0 L 119.0,80.0 L 125.0,83.0 L 130.0,88.0 L 130.0,90.0 L 135.0,88.0 L 143.0,88.0 L 151.0,93.0 L 155.0,99.0 L 155.0,159.0 L 153.0,168.0 L 147.0,178.0 L 139.0,185.0 L 130.0,189.0 L 126.0,190.0 L 81.0,190.0 L 70.0,186.0 L 60.0,180.0 L 48.0,169.0 L 10.0,131.0 L 6.0,123.0 L 6.0,115.0 L 10.0,109.0 L 15.0,105.0 L 17.0,104.0 L 27.0,104.0 L 35.0,110.0 L 52.0,127.0 L 54.0,70.0 L 50.0,68.0 L 45.0,62.0 L 41.0,52.0 L 41.0,39.0 L 46.0,29.0 L 53.0,22.0 L 61.0,18.0 L 64.0,17.0" fill="#FCFCFC"/>
	<path d="M 64.0,17.0 L 76.0,17.0 L 86.0,21.0 L 93.0,27.0 L 98.0,35.0 L 99.0,38.0 L 99.0,53.0 L 95.0,63.0 L 87.0,71.0 L 85.0,71.0 L 85.0,78.0 L 87.0,77.0 L 98.0,77.0 L 104.0,81.0 L 105.0,84.0 L 112.0,80.0 L 119.0,80.0 L 125.0,83.0 L 130.0,88.0 L 130.0,90.0 L 135.0,88.0 L 143.0,88.0 L 151.0,93.0 L 155.0,99.0 L 155.0,159.0 L 153.0,168.0 L 147.0,178.0 L 139.0,185.0 L 130.0,189.0 L 126.0,190.0 L 81.0,190.0 L 70.0,186.0 L 60.0,180.0 L 48.0,169.0 L 10.0,131.0 L 6.0,123.0 L 6.0,115.0 L 10.0,109.0 L 15.0,105.0 L 17.0,104.0 L 27.0,104.0 L 35.0,110.0 L 52.0,127.0 L 54.0,70.0 L 50.0,68.0 L 45.0,62.0 L 41.0,52.0 L 41.0,39.0 L 46.0,29.0 L 53.0,22.0 L 61.0,18.0 L 64.0,17.0 M 67.0,48.0 L 62.0,53.0 L 61.0,121.0 L 60.0,142.0 L 54.0,141.0 L 47.0,133.0 L 27.0,113.0 L 25.0,112.0 L 18.0,112.0 L 14.0,116.0 L 14.0,122.0 L 21.0,130.0 L 65.0,174.0 L 73.0,179.0 L 82.0,182.0 L 127.0,182.0 L 135.0,178.0 L 141.0,173.0 L 146.0,164.0 L 147.0,160.0 L 147.0,101.0 L 142.0,96.0 L 135.0,97.0 L 132.0,100.0 L 131.0,109.0 L 129.0,111.0 L 125.0,110.0 L 124.0,94.0 L 120.0,89.0 L 113.0,88.0 L 108.0,93.0 L 107.0,102.0 L 102.0,103.0 L 101.0,102.0 L 100.0,89.0 L 96.0,85.0 L 90.0,84.0 L 85.0,88.0 L 84.0,101.0 L 83.0,103.0 L 78.0,103.0 L 77.0,101.0 L 77.0,89.0 L 78.0,76.0 L 78.0,53.0 L 73.0,48.0 L 67.0,48.0" fill="#090909"/>
	<path d="M 64.0,17.0 L 76.0,17.0 L 86.0,21.0 L 93.0,27.0 L 98.0,35.0 L 99.0,38.0 L 99.0,53.0 L 95.0,63.0 L 87.0,71.0 L 85.0,71.0 L 84.0,49.0 L 79.0,43.0 L 75.0,41.0 L 65.0,41.0 L 58.0,46.0 L 56.0,50.0 L 55.0,73.0 L 54.0,70.0 L 50.0,68.0 L 45.0,62.0 L 41.0,52.0 L 41.0,39.0 L 46.0,29.0 L 53.0,22.0 L 61.0,18.0 L 64.0,17.0" fill="#0B0B0B"/>
	<path d="M 66.0,25.0 L 75.0,25.0 L 83.0,29.0 L 88.0,34.0 L 91.0,39.0 L 91.0,52.0 L 87.0,60.0 L 86.0,60.0 L 84.0,49.0 L 79.0,43.0 L 75.0,41.0 L 65.0,41.0 L 58.0,46.0 L 55.0,52.0 L 54.0,60.0 L 50.0,55.0 L 49.0,51.0 L 49.0,40.0 L 54.0,32.0 L 60.0,27.0 L 66.0,25.0" fill="#F9F9F9"/>
</svg>
