<?xml version="1.0" ?>
<svg baseProfile="full" height="600px" version="1.1" viewBox="-20.1 -20.1 240.2 240.2" width="600px" xmlns="http://www.w3.org/2000/svg" xmlns:ev="http://www.w3.org/2001/xml-events" xmlns:xlink="http://www.w3.org/1999/xlink">
	<defs/>
	<path d="M 0.0,0.0 L 200.0,0.0 L 200.0,200.0 L 0.0,200.0 L 0.0,0.0" fill="#FDFDFD"/>
	<path d="M 102.0,17.0 L 114.0,17.0 L 124.0,21.0 L 132.0,28.0 L 136.0,35.0 L 138.0,41.0 L 138.0,50.0 L 134.0,61.0 L 128.0,69.0 L 126.0,70.0 L 125.0,78.0 L 127.0,77.0 L 139.0,77.0 L 145.0,81.0 L 149.0,82.0 L 151.0,81.0 L 162.0,81.0 L 167.0,84.0 L 171.0,88.0 L 171.0,90.0 L 176.0,88.0 L 183.0,88.0 L 191.0,92.0 L 195.0,97.0 L 196.0,99.0 L 196.0,161.0 L 192.0,172.0 L 186.0,180.0 L 178.0,186.0 L 168.0,190.0 L 122.0,190.0 L 111.0,186.0 L 101.0,180.0 L 91.0,171.0 L 50.0,130.0 L 47.0,124.0 L 47.0,115.0 L 51.0,109.0 L 56.0,105.0 L 58.0,104.0 L 66.0,104.0 L 73.0,107.0 L 93.0,127.0 L 93.0,88.0 L 92.0,71.0 L 85.0,65.0 L 80.0,55.0 L 79.0,52.0 L 79.0,40.0 L 83.0,31.0 L 90.0,23.0 L 96.0,19.0 L 102.0,17.0" fill="#FBFBFB"/>
	<path d="M 102.0,17.0 L 114.0,17.0 L 124.0,21.0 L 132.0,28.0 L 136.0,35.0 L 138.0,41.0 L 138.0,50.0 L 134.0,61.0 L 128.0,69.0 L 126.0,70.0 L 125.0,78.0 L 127.0,77.0 L 139.0,77.0 L 145.0,81.0 L 149.0,82.0 L 151.0,81.0 L 162.0,81.0 L 167.0,84.0 L 171.0,88.0 L 171.0,90.0 L 176.0,88.0 L 183.0,88.0 L 191.0,92.0 L 195.0,97.0 L 196.0,99.0 L 196.0,161.0 L 192.0,172.0 L 186.0,180.0 L 178.0,186.0 L 168.0,190.0 L 122.0,190.0 L 111.0,186.0 L 101.0,180.0 L 91.0,171.0 L 50.0,130.0 L 47.0,124.0 L 47.0,115.0 L 51.0,109.0 L 56.0,105.0 L 58.0,104.0 L 66.0,104.0 L 73.0,107.0 L 93.0,127.0 L 93.0,88.0 L 92.0,71.0 L 85.0,65.0 L 80.0,55.0 L 79.0,52.0 L 79.0,40.0 L 83.0,31.0 L 90.0,23.0 L 96.0,19.0 L 102.0,17.0 M 105.0,48.0 L 101.0,52.0 L 101.0,140.0 L 100.0,141.0 L 95.0,141.0 L 88.0,133.0 L 69.0,114.0 L 66.0,112.0 L 59.0,112.0 L 55.0,116.0 L 55.0,123.0 L 107.0,175.0 L 117.0,180.0 L 123.0,182.0 L 167.0,182.0 L 176.0,178.0 L 182.0,173.0 L 188.0,161.0 L 188.0,101.0 L 183.0,96.0 L 177.0,96.0 L 173.0,100.0 L 171.0,110.0 L 167.0,111.0 L 165.0,109.0 L 164.0,92.0 L 159.0,88.0 L 154.0,88.0 L 149.0,93.0 L 148.0,102.0 L 143.0,103.0 L 142.0,102.0 L 141.0,89.0 L 137.0,85.0 L 131.0,84.0 L 126.0,88.0 L 125.0,101.0 L 124.0,103.0 L 119.0,103.0 L 118.0,101.0 L 117.0,54.0 L 112.0,48.0 L 105.0,48.0" fill="#070707"/>
	<path d="M 102.0,17.0 L 114.0,17.0 L 124.0,21.0 L 132.0,28.0 L 136.0,35.0 L 138.0,41.0 L 138.0,50.0 L 134.0,61.0 L 128.0,69.0 L 126.0,70.0 L 125.0,78.0 L 124.0,78.0 L 123.0,50.0 L 119.0,44.0 L 112.0,41.0 L 104.0,41.0 L 98.0,45.0 L 95.0,49.0 L 94.0,88.0 L 93.0,88.0 L 92.0,71.0 L 85.0,65.0 L 80.0,55.0 L 79.0,52.0 L 79.0,40.0 L 83.0,31.0 L 90.0,23.0 L 96.0,19.0 L 102.0,17.0" fill="#0C0C0C"/>
	<path d="M 103.0,25.0 L 113.0,25.0 L 123.0,30.0 L 129.0,39.0 L 130.0,42.0 L 130.0,51.0 L 126.0,59.0 L 125.0,59.0 L 123.0,50.0 L 119.0,44.0 L 112.0,41.0 L 104.0,41.0 L 98.0,45.0 L 94.0,51.0 L 93.0,61.0 L 89.0,56.0 L 87.0,51.0 L 87.0,41.0 L 91.0,33.0 L 98.0,27.0 L 103.0,25.0" fill="#F7F7F7"/>
</svg>
