<?xml version="1.0" ?>
<svg baseProfile="full" height="600px" version="1.1" viewBox="-20.1 -20.1 240.2 240.2" width="600px" xmlns="http://www.w3.org/2000/svg" xmlns:ev="http://www.w3.org/2001/xml-events" xmlns:xlink="http://www.w3.org/1999/xlink">
	<defs/>
	<path d="M 0.0,0.0 L 200.0,0.0 L 200.0,200.0 L 0.0,200.0 L 0.0,0.0" fill="#FDFDFD"/>
	<path d="M 87.0,18.0 L 103.0,18.0 L 111.0,22.0 L 118.0,28.0 L 123.0,37.0 L 124.0,41.0 L 124.0,50.0 L 121.0,60.0 L 116.0,67.0 L 113.0,69.0 L 114.0,78.0 L 116.0,77.0 L 127.0,77.0 L 134.0,81.0 L 136.0,83.0 L 142.0,80.0 L 149.0,80.0 L 157.0,85.0 L 160.0,89.0 L 165.0,88.0 L 173.0,88.0 L 181.0,93.0 L 185.0,100.0 L 185.0,159.0 L 183.0,167.0 L 179.0,175.0 L 173.0,182.0 L 163.0,188.0 L 156.0,190.0 L 111.0,190.0 L 99.0,186.0 L 88.0,179.0 L 39.0,130.0 L 36.0,124.0 L 36.0,114.0 L 41.0,107.0 L 48.0,104.0 L 55.0,104.0 L 63.0,108.0 L 81.0,126.0 L 81.0,71.0 L 76.0,69.0 L 69.0,60.0 L 66.0,51.0 L 66.0,40.0 L 72.0,28.0 L 80.0,21.0 L 87.0,18.0" fill="#FBFBFB"/>
	<path d="M 87.0,18.0 L 103.0,18.0 L 111.0,22.0 L 118.0,28.0 L 123.0,37.0 L 124.0,41.0 L 124.0,50.0 L 121.0,60.0 L 116.0,67.0 L 113.0,69.0 L 114.0,78.0 L 116.0,77.0 L 127.0,77.0 L 134.0,81.0 L 136.0,83.0 L 142.0,80.0 L 149.0,80.0 L 157.0,85.0 L 160.0,89.0 L 165.0,88.0 L 173.0,88.0 L 181.0,93.0 L 185.0,100.0 L 185.0,159.0 L 183.0,167.0 L 179.0,175.0 L 173.0,182.0 L 163.0,188.0 L 156.0,190.0 L 111.0,190.0 L 99.0,186.0 L 88.0,179.0 L 39.0,130.0 L 36.0,124.0 L 36.0,114.0 L 41.0,107.0 L 48.0,104.0 L 55.0,104.0 L 63.0,108.0 L 81.0,126.0 L 81.0,71.0 L 76.0,69.0 L 69.0,60.0 L 66.0,51.0 L 66.0,40.0 L 72.0,28.0 L 80.0,21.0 L 87.0,18.0 M 92.0,48.0 L 88.0,52.0 L 88.0,80.0 L 90.0,136.0 L 89.0,141.0 L 84.0,141.0 L 56.0,113.0 L 54.0,112.0 L 48.0,112.0 L 44.0,116.0 L 44.0,123.0 L 51.0,131.0 L 92.0,172.0 L 103.0,179.0 L 112.0,182.0 L 155.0,182.0 L 165.0,178.0 L 170.0,173.0 L 174.0,168.0 L 177.0,160.0 L 177.0,101.0 L 172.0,96.0 L 166.0,96.0 L 161.0,101.0 L 160.0,110.0 L 155.0,111.0 L 154.0,109.0 L 153.0,93.0 L 148.0,88.0 L 141.0,89.0 L 138.0,93.0 L 137.0,102.0 L 132.0,103.0 L 131.0,102.0 L 130.0,90.0 L 126.0,85.0 L 120.0,84.0 L 114.0,89.0 L 114.0,103.0 L 108.0,103.0 L 107.0,102.0 L 103.0,52.0 L 98.0,48.0 L 92.0,48.0" fill="#090909"/>
	<path d="M 88.0,26.0 L 101.0,26.0 L 107.0,29.0 L 112.0,34.0 L 116.0,42.0 L 116.0,51.0 L 113.0,57.0 L 111.0,57.0 L 108.0,47.0 L 107.0,44.0 L 102.0,42.0 L 99.0,41.0 L 91.0,41.0 L 86.0,44.0 L 84.0,44.0 L 82.0,49.0 L 81.0,51.0 L 80.0,60.0 L 76.0,56.0 L 74.0,51.0 L 74.0,41.0 L 78.0,33.0 L 86.0,27.0 L 88.0,26.0" fill="#F6F6F6"/>
</svg>
