<?xml version="1.0" ?>
<svg baseProfile="full" height="600px" version="1.1" viewBox="-20.1 -20.1 240.2 240.2" width="600px" xmlns="http://www.w3.org/2000/svg" xmlns:ev="http://www.w3.org/2001/xml-events" xmlns:xlink="http://www.w3.org/1999/xlink">
	<defs/>
	<path d="M 0.0,0.0 L 200.0,0.0 L 200.0,200.0 L 0.0,200.0 L 0.0,0.0" fill="#FCFCFC"/>
	<path d="M 109.0,33.0 L 116.0,34.0 L 119.0,37.0 L 120.0,102.0 L 121.0,103.0 L 126.0,103.0 L 127.0,101.0 L 128.0,88.0 L 133.0,84.0 L 140.0,85.0 L 143.0,89.0 L 144.0,102.0 L 145.0,103.0 L 150.0,103.0 L 151.0,101.0 L 152.0,92.0 L 157.0,88.0 L 164.0,89.0 L 167.0,93.0 L 168.0,110.0 L 173.0,111.0 L 174.0,110.0 L 175.0,101.0 L 180.0,96.0 L 186.0,96.0 L 191.0,101.0 L 191.0,160.0 L 187.0,171.0 L 182.0,177.0 L 173.0,182.0 L 171.0,183.0 L 124.0,183.0 L 112.0,178.0 L 102.0,170.0 L 57.0,125.0 L 56.0,117.0 L 61.0,112.0 L 69.0,113.0 L 96.0,140.0 L 96.0,142.0 L 102.0,142.0 L 103.0,140.0 L 104.0,37.0 L 109.0,33.0" fill="#FCFCFC"/>
	<path d="M 107.0,25.0 L 116.0,25.0 L 123.0,29.0 L 127.0,35.0 L 127.0,78.0 L 131.0,76.0 L 139.0,76.0 L 145.0,79.0 L 148.0,82.0 L 153.0,81.0 L 155.0,80.0 L 163.0,80.0 L 169.0,83.0 L 174.0,89.0 L 187.0,88.0 L 193.0,91.0 L 198.0,97.0 L 199.0,99.0 L 199.0,163.0 L 194.0,175.0 L 186.0,184.0 L 177.0,189.0 L 172.0,191.0 L 123.0,191.0 L 110.0,186.0 L 99.0,178.0 L 50.0,129.0 L 48.0,123.0 L 48.0,115.0 L 52.0,109.0 L 57.0,105.0 L 59.0,104.0 L 69.0,104.0 L 75.0,108.0 L 95.0,128.0 L 96.0,36.0 L 99.0,31.0 L 105.0,26.0 L 107.0,25.0 M 109.0,33.0 L 104.0,37.0 L 103.0,140.0 L 102.0,142.0 L 96.0,142.0 L 94.0,138.0 L 69.0,113.0 L 61.0,112.0 L 56.0,117.0 L 57.0,125.0 L 105.0,173.0 L 116.0,180.0 L 124.0,183.0 L 171.0,183.0 L 179.0,179.0 L 184.0,175.0 L 189.0,167.0 L 191.0,160.0 L 191.0,101.0 L 186.0,96.0 L 180.0,96.0 L 175.0,101.0 L 174.0,110.0 L 169.0,111.0 L 168.0,110.0 L 167.0,93.0 L 162.0,88.0 L 155.0,89.0 L 152.0,92.0 L 151.0,101.0 L 150.0,103.0 L 145.0,103.0 L 144.0,102.0 L 143.0,89.0 L 138.0,84.0 L 131.0,85.0 L 128.0,88.0 L 127.0,101.0 L 126.0,103.0 L 121.0,103.0 L 120.0,102.0 L 119.0,37.0 L 114.0,33.0 L 109.0,33.0" fill="#080808"/>
</svg>
