<?xml version="1.0" ?>
<svg baseProfile="full" height="600px" version="1.1" viewBox="-12.06 -12.06 144.12 144.12" width="600px" xmlns="http://www.w3.org/2000/svg" xmlns:ev="http://www.w3.org/2001/xml-events" xmlns:xlink="http://www.w3.org/1999/xlink">
	<defs/>
	<path d="M 0.0,0.0 L 120.0,0.0 L 120.0,120.0 L 0.0,120.0 L 0.0,0.0" fill="#FBFBFB"/>
	<path d="M 59.0,31.0 L 66.0,32.0 L 70.0,37.0 L 71.0,58.0 L 76.0,56.0 L 82.0,56.0 L 87.0,60.0 L 87.0,62.0 L 92.0,60.0 L 99.0,61.0 L 102.0,64.0 L 111.0,64.0 L 114.0,67.0 L 114.0,104.0 L 110.0,111.0 L 103.0,115.0 L 66.0,115.0 L 58.0,111.0 L 44.0,100.0 L 24.0,88.0 L 25.0,83.0 L 28.0,80.0 L 39.0,80.0 L 52.0,85.0 L 56.0,87.0 L 54.0,47.0 L 54.0,36.0 L 59.0,31.0" fill="#020202"/>
	<path d="M 55.0,11.0 L 65.0,11.0 L 75.0,16.0 L 81.0,25.0 L 81.0,39.0 L 77.0,46.0 L 76.0,46.0 L 75.0,35.0 L 72.0,29.0 L 66.0,25.0 L 55.0,25.0 L 49.0,29.0 L 46.0,35.0 L 45.0,46.0 L 41.0,41.0 L 40.0,38.0 L 40.0,25.0 L 46.0,16.0 L 55.0,11.0" fill="#070707"/>
</svg>
