<?xml version="1.0" ?>
<svg baseProfile="full" height="600px" version="1.1" viewBox="-12.06 -12.06 144.12 144.12" width="600px" xmlns="http://www.w3.org/2000/svg" xmlns:ev="http://www.w3.org/2001/xml-events" xmlns:xlink="http://www.w3.org/1999/xlink">
	<defs/>
	<path d="M 0.0,0.0 L 120.0,0.0 L 120.0,120.0 L 0.0,120.0 L 0.0,0.0" fill="#FCFCFC"/>
	<path d="M 44.0,31.0 L 50.0,31.0 L 55.0,36.0 L 54.0,52.0 L 53.0,58.0 L 58.0,56.0 L 65.0,57.0 L 69.0,61.0 L 79.0,60.0 L 84.0,64.0 L 93.0,64.0 L 96.0,67.0 L 96.0,104.0 L 92.0,110.0 L 87.0,114.0 L 85.0,115.0 L 47.0,115.0 L 38.0,110.0 L 24.0,99.0 L 6.0,88.0 L 6.0,83.0 L 10.0,80.0 L 21.0,80.0 L 33.0,85.0 L 37.0,87.0 L 37.0,59.0 L 39.0,36.0 L 44.0,31.0" fill="#030303"/>
	<path d="M 40.0,11.0 L 50.0,11.0 L 58.0,15.0 L 64.0,22.0 L 66.0,26.0 L 66.0,38.0 L 63.0,44.0 L 62.0,44.0 L 61.0,35.0 L 56.0,27.0 L 52.0,25.0 L 41.0,25.0 L 35.0,29.0 L 32.0,34.0 L 31.0,47.0 L 29.0,47.0 L 24.0,37.0 L 24.0,28.0 L 27.0,20.0 L 35.0,13.0 L 40.0,11.0" fill="#090909"/>
</svg>
