<?xml version="1.0" ?>
<svg baseProfile="full" height="600px" version="1.1" viewBox="-12.06 -12.06 144.12 144.12" width="600px" xmlns="http://www.w3.org/2000/svg" xmlns:ev="http://www.w3.org/2001/xml-events" xmlns:xlink="http://www.w3.org/1999/xlink">
	<defs/>
	<path d="M 0.0,0.0 L 120.0,0.0 L 120.0,120.0 L 0.0,120.0 L 0.0,0.0" fill="#FCFCFC"/>
	<path d="M 61.0,32.0 L 67.0,32.0 L 72.0,37.0 L 72.0,58.0 L 75.0,57.0 L 83.0,57.0 L 87.0,61.0 L 97.0,60.0 L 101.0,64.0 L 110.0,64.0 L 113.0,67.0 L 113.0,103.0 L 109.0,110.0 L 102.0,114.0 L 68.0,114.0 L 59.0,110.0 L 45.0,99.0 L 27.0,88.0 L 26.0,83.0 L 29.0,80.0 L 42.0,80.0 L 54.0,85.0 L 56.0,86.0 L 56.0,38.0 L 58.0,34.0 L 61.0,32.0" fill="#040404"/>
	<path d="M 60.0,20.0 L 67.0,20.0 L 73.0,23.0 L 78.0,29.0 L 77.0,31.0 L 70.0,25.0 L 59.0,25.0 L 53.0,29.0 L 49.0,34.0 L 50.0,29.0 L 56.0,22.0 L 60.0,20.0" fill="#202020"/>
	<path d="M 56.0,22.0 L 58.0,23.0 L 57.0,26.0 L 52.0,30.0 L 49.0,34.0 L 50.0,29.0 L 56.0,22.0" fill="#292929"/>
</svg>
