<?xml version="1.0" ?>
<svg baseProfile="full" height="600px" version="1.1" viewBox="-20.1 -20.1 240.2 240.2" width="600px" xmlns="http://www.w3.org/2000/svg" xmlns:ev="http://www.w3.org/2001/xml-events" xmlns:xlink="http://www.w3.org/1999/xlink">
	<defs/>
	<path d="M 0.0,0.0 L 200.0,0.0 L 200.0,200.0 L 0.0,200.0 L 0.0,0.0" fill="#FDFDFD"/>
	<path d="M 75.0,18.0 L 90.0,18.0 L 99.0,22.0 L 107.0,29.0 L 112.0,39.0 L 112.0,52.0 L 108.0,62.0 L 102.0,69.0 L 99.0,71.0 L 98.0,77.0 L 108.0,77.0 L 115.0,81.0 L 117.0,83.0 L 123.0,80.0 L 132.0,81.0 L 138.0,85.0 L 142.0,90.0 L 146.0,88.0 L 153.0,88.0 L 161.0,92.0 L 166.0,100.0 L 166.0,161.0 L 162.0,172.0 L 155.0,181.0 L 146.0,187.0 L 138.0,190.0 L 92.0,190.0 L 78.0,185.0 L 67.0,177.0 L 20.0,130.0 L 17.0,124.0 L 17.0,114.0 L 22.0,107.0 L 28.0,104.0 L 36.0,104.0 L 44.0,108.0 L 63.0,127.0 L 63.0,129.0 L 65.0,129.0 L 65.0,103.0 L 66.0,82.0 L 66.0,70.0 L 59.0,63.0 L 55.0,53.0 L 55.0,38.0 L 59.0,30.0 L 64.0,24.0 L 73.0,19.0 L 75.0,18.0" fill="#FBFBFB"/>
	<path d="M 75.0,18.0 L 90.0,18.0 L 99.0,22.0 L 107.0,29.0 L 112.0,39.0 L 112.0,52.0 L 108.0,62.0 L 102.0,69.0 L 99.0,71.0 L 98.0,77.0 L 108.0,77.0 L 115.0,81.0 L 117.0,83.0 L 123.0,80.0 L 132.0,81.0 L 138.0,85.0 L 142.0,90.0 L 146.0,88.0 L 153.0,88.0 L 161.0,92.0 L 166.0,100.0 L 166.0,161.0 L 162.0,172.0 L 155.0,181.0 L 146.0,187.0 L 138.0,190.0 L 92.0,190.0 L 78.0,185.0 L 67.0,177.0 L 20.0,130.0 L 17.0,124.0 L 17.0,114.0 L 22.0,107.0 L 28.0,104.0 L 36.0,104.0 L 44.0,108.0 L 63.0,127.0 L 63.0,129.0 L 65.0,129.0 L 65.0,103.0 L 66.0,82.0 L 66.0,70.0 L 59.0,63.0 L 55.0,53.0 L 55.0,38.0 L 59.0,30.0 L 64.0,24.0 L 73.0,19.0 L 75.0,18.0 M 80.0,48.0 L 76.0,52.0 L 74.0,81.0 L 71.0,140.0 L 70.0,141.0 L 65.0,141.0 L 36.0,112.0 L 29.0,112.0 L 25.0,116.0 L 25.0,123.0 L 32.0,131.0 L 73.0,172.0 L 84.0,179.0 L 93.0,182.0 L 136.0,182.0 L 146.0,178.0 L 151.0,174.0 L 156.0,166.0 L 158.0,159.0 L 158.0,101.0 L 154.0,97.0 L 147.0,96.0 L 142.0,101.0 L 141.0,110.0 L 137.0,111.0 L 135.0,111.0 L 134.0,93.0 L 129.0,88.0 L 122.0,89.0 L 119.0,93.0 L 118.0,102.0 L 113.0,103.0 L 112.0,102.0 L 111.0,89.0 L 105.0,84.0 L 99.0,85.0 L 96.0,88.0 L 95.0,103.0 L 89.0,103.0 L 88.0,102.0 L 88.0,88.0 L 89.0,86.0 L 91.0,62.0 L 91.0,52.0 L 86.0,48.0 L 80.0,48.0" fill="#090909"/>
	<path d="M 76.0,26.0 L 90.0,26.0 L 98.0,31.0 L 104.0,40.0 L 104.0,51.0 L 101.0,58.0 L 99.0,59.0 L 97.0,49.0 L 95.0,44.0 L 90.0,42.0 L 87.0,41.0 L 79.0,41.0 L 72.0,45.0 L 69.0,50.0 L 68.0,60.0 L 65.0,57.0 L 63.0,53.0 L 63.0,39.0 L 67.0,33.0 L 74.0,27.0 L 76.0,26.0" fill="#F7F7F7"/>
</svg>
