<?xml version="1.0" ?>
<svg baseProfile="full" height="600px" version="1.1" viewBox="-20.1 -20.1 240.2 240.2" width="600px" xmlns="http://www.w3.org/2000/svg" xmlns:ev="http://www.w3.org/2001/xml-events" xmlns:xlink="http://www.w3.org/1999/xlink">
	<defs/>
	<path d="M 0.0,0.0 L 200.0,0.0 L 200.0,200.0 L 0.0,200.0 L 0.0,0.0" fill="#FDFDFD"/>
	<path d="M 97.0,19.0 L 113.0,19.0 L 122.0,24.0 L 130.0,33.0 L 133.0,41.0 L 133.0,50.0 L 129.0,61.0 L 122.0,69.0 L 122.0,77.0 L 134.0,77.0 L 140.0,81.0 L 141.0,84.0 L 148.0,80.0 L 155.0,80.0 L 161.0,83.0 L 166.0,88.0 L 166.0,90.0 L 171.0,88.0 L 179.0,88.0 L 186.0,92.0 L 190.0,97.0 L 191.0,99.0 L 191.0,161.0 L 188.0,170.0 L 182.0,179.0 L 175.0,185.0 L 163.0,190.0 L 119.0,190.0 L 106.0,186.0 L 96.0,180.0 L 84.0,169.0 L 46.0,131.0 L 42.0,123.0 L 42.0,115.0 L 46.0,109.0 L 51.0,105.0 L 53.0,104.0 L 63.0,104.0 L 71.0,110.0 L 88.0,127.0 L 88.0,69.0 L 81.0,62.0 L 77.0,52.0 L 77.0,40.0 L 83.0,28.0 L 92.0,21.0 L 97.0,19.0" fill="#FBFBFB"/>
	<path d="M 97.0,19.0 L 113.0,19.0 L 122.0,24.0 L 130.0,33.0 L 133.0,41.0 L 133.0,50.0 L 129.0,61.0 L 122.0,69.0 L 122.0,77.0 L 134.0,77.0 L 140.0,81.0 L 141.0,84.0 L 148.0,80.0 L 155.0,80.0 L 161.0,83.0 L 166.0,88.0 L 166.0,90.0 L 171.0,88.0 L 179.0,88.0 L 186.0,92.0 L 190.0,97.0 L 191.0,99.0 L 191.0,161.0 L 188.0,170.0 L 182.0,179.0 L 175.0,185.0 L 163.0,190.0 L 119.0,190.0 L 106.0,186.0 L 96.0,180.0 L 84.0,169.0 L 46.0,131.0 L 42.0,123.0 L 42.0,115.0 L 46.0,109.0 L 51.0,105.0 L 53.0,104.0 L 63.0,104.0 L 71.0,110.0 L 88.0,127.0 L 88.0,69.0 L 81.0,62.0 L 77.0,52.0 L 77.0,40.0 L 83.0,28.0 L 92.0,21.0 L 97.0,19.0 M 102.0,48.0 L 97.0,53.0 L 96.0,141.0 L 91.0,141.0 L 63.0,113.0 L 61.0,112.0 L 54.0,112.0 L 50.0,117.0 L 51.0,124.0 L 101.0,174.0 L 115.0,181.0 L 118.0,182.0 L 163.0,182.0 L 173.0,177.0 L 180.0,169.0 L 183.0,161.0 L 183.0,101.0 L 178.0,96.0 L 171.0,97.0 L 168.0,100.0 L 167.0,111.0 L 162.0,111.0 L 161.0,110.0 L 160.0,94.0 L 156.0,89.0 L 149.0,88.0 L 144.0,93.0 L 143.0,102.0 L 138.0,103.0 L 137.0,102.0 L 136.0,89.0 L 132.0,85.0 L 126.0,84.0 L 121.0,88.0 L 120.0,101.0 L 119.0,103.0 L 114.0,103.0 L 113.0,53.0 L 108.0,48.0 L 102.0,48.0" fill="#070707"/>
	<path d="M 97.0,19.0 L 113.0,19.0 L 122.0,24.0 L 130.0,33.0 L 133.0,41.0 L 133.0,50.0 L 129.0,61.0 L 122.0,69.0 L 121.0,78.0 L 120.0,78.0 L 119.0,50.0 L 115.0,44.0 L 109.0,41.0 L 100.0,41.0 L 94.0,45.0 L 91.0,49.0 L 90.0,129.0 L 88.0,128.0 L 88.0,69.0 L 81.0,62.0 L 77.0,52.0 L 77.0,40.0 L 83.0,28.0 L 92.0,21.0 L 97.0,19.0" fill="#0D0D0D"/>
	<path d="M 98.0,27.0 L 111.0,27.0 L 118.0,31.0 L 123.0,37.0 L 125.0,42.0 L 125.0,51.0 L 122.0,57.0 L 121.0,57.0 L 118.0,48.0 L 113.0,43.0 L 109.0,41.0 L 100.0,41.0 L 94.0,45.0 L 90.0,51.0 L 89.0,58.0 L 86.0,54.0 L 85.0,52.0 L 85.0,41.0 L 88.0,35.0 L 96.0,28.0 L 98.0,27.0" fill="#F7F7F7"/>
</svg>
