<?xml version="1.0" ?>
<svg baseProfile="full" height="600px" version="1.1" viewBox="-12.06 -12.06 144.12 144.12" width="600px" xmlns="http://www.w3.org/2000/svg" xmlns:ev="http://www.w3.org/2001/xml-events" xmlns:xlink="http://www.w3.org/1999/xlink">
	<defs/>
	<path d="M 0.0,0.0 L 120.0,0.0 L 120.0,120.0 L 0.0,120.0 L 0.0,0.0" fill="#FBFBFB"/>
	<path d="M 40.0,31.0 L 47.0,31.0 L 51.0,35.0 L 51.0,47.0 L 50.0,58.0 L 54.0,56.0 L 60.0,56.0 L 66.0,61.0 L 76.0,60.0 L 81.0,64.0 L 90.0,64.0 L 93.0,67.0 L 93.0,105.0 L 89.0,111.0 L 83.0,115.0 L 80.0,116.0 L 45.0,116.0 L 35.0,111.0 L 20.0,99.0 L 3.0,89.0 L 2.0,88.0 L 2.0,83.0 L 6.0,80.0 L 17.0,80.0 L 29.0,85.0 L 34.0,87.0 L 34.0,50.0 L 35.0,37.0 L 38.0,32.0 L 40.0,31.0" fill="#030303"/>
	<path d="M 38.0,11.0 L 48.0,11.0 L 58.0,16.0 L 64.0,25.0 L 64.0,38.0 L 60.0,46.0 L 59.0,46.0 L 58.0,35.0 L 53.0,27.0 L 49.0,25.0 L 38.0,25.0 L 32.0,29.0 L 29.0,35.0 L 28.0,46.0 L 25.0,43.0 L 23.0,38.0 L 23.0,25.0 L 28.0,17.0 L 38.0,11.0" fill="#080808"/>
</svg>
