<?xml version="1.0" ?>
<svg baseProfile="full" height="600px" version="1.1" viewBox="-20.1 -20.1 240.2 240.2" width="600px" xmlns="http://www.w3.org/2000/svg" xmlns:ev="http://www.w3.org/2001/xml-events" xmlns:xlink="http://www.w3.org/1999/xlink">
	<defs/>
	<path d="M 0.0,0.0 L 200.0,0.0 L 200.0,200.0 L 0.0,200.0 L 0.0,0.0" fill="#FDFDFD"/>
	<path d="M 76.0,36.0 L 123.0,36.0 L 139.0,42.0 L 150.0,50.0 L 158.0,59.0 L 165.0,71.0 L 170.0,87.0 L 170.0,110.0 L 168.0,120.0 L 163.0,133.0 L 155.0,145.0 L 148.0,152.0 L 137.0,159.0 L 127.0,163.0 L 120.0,164.0 L 76.0,164.0 L 64.0,160.0 L 53.0,153.0 L 44.0,144.0 L 36.0,131.0 L 31.0,116.0 L 30.0,111.0 L 30.0,92.0 L 33.0,77.0 L 38.0,65.0 L 46.0,54.0 L 54.0,46.0 L 66.0,39.0 L 76.0,36.0" fill="#060606"/>
	<path d="M 114.0,60.0 L 126.0,60.0 L 138.0,66.0 L 143.0,71.0 L 149.0,79.0 L 153.0,89.0 L 154.0,95.0 L 154.0,105.0 L 151.0,117.0 L 146.0,126.0 L 141.0,132.0 L 134.0,137.0 L 125.0,140.0 L 114.0,140.0 L 102.0,134.0 L 94.0,126.0 L 89.0,116.0 L 87.0,109.0 L 87.0,90.0 L 91.0,80.0 L 97.0,71.0 L 105.0,64.0 L 114.0,60.0" fill="#FAFAFA"/>
	<path d="M 109.0,52.0 L 125.0,52.0 L 138.0,56.0 L 147.0,63.0 L 154.0,71.0 L 159.0,82.0 L 161.0,90.0 L 161.0,95.0 L 163.0,95.0 L 163.0,104.0 L 162.0,104.0 L 159.0,118.0 L 152.0,132.0 L 144.0,140.0 L 136.0,145.0 L 125.0,148.0 L 109.0,148.0 L 97.0,143.0 L 88.0,136.0 L 82.0,128.0 L 76.0,115.0 L 75.0,108.0 L 75.0,89.0 L 79.0,77.0 L 87.0,65.0 L 95.0,58.0 L 103.0,54.0 L 109.0,52.0 M 114.0,60.0 L 102.0,66.0 L 95.0,73.0 L 89.0,84.0 L 87.0,90.0 L 87.0,109.0 L 92.0,123.0 L 101.0,133.0 L 109.0,138.0 L 114.0,140.0 L 125.0,140.0 L 135.0,136.0 L 144.0,129.0 L 150.0,119.0 L 153.0,111.0 L 154.0,105.0 L 154.0,95.0 L 151.0,83.0 L 145.0,73.0 L 140.0,68.0 L 135.0,64.0 L 126.0,60.0 L 114.0,60.0" fill="#070707"/>
	<path d="M 107.0,44.0 L 122.0,44.0 L 135.0,49.0 L 144.0,56.0 L 151.0,63.0 L 157.0,73.0 L 162.0,88.0 L 162.0,95.0 L 161.0,95.0 L 157.0,79.0 L 152.0,70.0 L 144.0,61.0 L 136.0,56.0 L 125.0,53.0 L 109.0,53.0 L 97.0,58.0 L 88.0,65.0 L 80.0,77.0 L 76.0,89.0 L 76.0,108.0 L 78.0,117.0 L 85.0,131.0 L 91.0,138.0 L 101.0,144.0 L 109.0,147.0 L 125.0,147.0 L 138.0,143.0 L 147.0,136.0 L 153.0,129.0 L 158.0,118.0 L 160.0,111.0 L 161.0,103.0 L 162.0,103.0 L 162.0,112.0 L 158.0,125.0 L 151.0,137.0 L 145.0,144.0 L 135.0,151.0 L 126.0,155.0 L 119.0,156.0 L 108.0,156.0 L 95.0,152.0 L 85.0,145.0 L 78.0,138.0 L 70.0,124.0 L 66.0,110.0 L 66.0,94.0 L 68.0,82.0 L 73.0,70.0 L 81.0,59.0 L 90.0,51.0 L 100.0,46.0 L 107.0,44.0" fill="#F1F1F1"/>
	<path d="M 76.0,46.0 L 79.0,47.0 L 71.0,54.0 L 64.0,63.0 L 58.0,76.0 L 55.0,86.0 L 55.0,112.0 L 58.0,124.0 L 66.0,140.0 L 75.0,150.0 L 79.0,154.0 L 74.0,153.0 L 64.0,147.0 L 55.0,138.0 L 49.0,128.0 L 44.0,114.0 L 43.0,109.0 L 43.0,90.0 L 47.0,76.0 L 54.0,63.0 L 65.0,52.0 L 76.0,46.0" fill="#F4F4F4"/>
	<path d="M 117.0,84.0 L 127.0,84.0 L 133.0,88.0 L 137.0,93.0 L 138.0,96.0 L 138.0,103.0 L 135.0,110.0 L 130.0,115.0 L 127.0,116.0 L 117.0,116.0 L 111.0,112.0 L 108.0,108.0 L 107.0,105.0 L 107.0,94.0 L 111.0,88.0 L 117.0,84.0" fill="#060606"/>
	<path d="M 121.0,92.0 L 127.0,93.0 L 130.0,98.0 L 129.0,105.0 L 126.0,108.0 L 119.0,107.0 L 117.0,103.0 L 117.0,96.0 L 121.0,92.0" fill="#F1F1F1"/>
</svg>
