<?xml version="1.0" ?>
<svg baseProfile="full" height="600px" version="1.1" viewBox="-20.1 -20.1 240.2 240.2" width="600px" xmlns="http://www.w3.org/2000/svg" xmlns:ev="http://www.w3.org/2001/xml-events" xmlns:xlink="http://www.w3.org/1999/xlink">
	<defs/>
	<path d="M 0.0,0.0 L 200.0,0.0 L 200.0,200.0 L 0.0,200.0 L 0.0,0.0" fill="#010101"/>
	<path d="M 0.0,113.0 L 1.0,115.0 L 16.0,116.0 L 17.0,146.0 L 18.0,147.0 L 40.0,148.0 L 41.0,162.0 L 42.0,163.0 L 74.0,163.0 L 75.0,162.0 L 76.0,116.0 L 124.0,116.0 L 125.0,162.0 L 126.0,163.0 L 158.0,163.0 L 159.0,162.0 L 160.0,148.0 L 182.0,147.0 L 183.0,145.0 L 184.0,116.0 L 197.0,115.0 L 200.0,114.0 L 200.0,200.0 L 0.0,200.0 L 0.0,113.0" fill="#FDFDFD"/>
	<path d="M 0.0,0.0 L 200.0,0.0 L 200.0,86.0 L 198.0,85.0 L 184.0,84.0 L 183.0,54.0 L 182.0,53.0 L 160.0,52.0 L 159.0,38.0 L 158.0,37.0 L 126.0,37.0 L 125.0,38.0 L 124.0,84.0 L 76.0,84.0 L 75.0,38.0 L 74.0,37.0 L 42.0,37.0 L 41.0,38.0 L 40.0,52.0 L 18.0,53.0 L 17.0,54.0 L 16.0,84.0 L 2.0,85.0 L 0.0,86.0 L 0.0,0.0" fill="#FDFDFD"/>
	<path d="M 132.0,44.0 L 152.0,44.0 L 152.0,156.0 L 132.0,156.0 L 132.0,44.0" fill="#FDFDFD"/>
	<path d="M 48.0,44.0 L 68.0,44.0 L 68.0,156.0 L 48.0,156.0 L 48.0,44.0" fill="#FDFDFD"/>
	<path d="M 160.0,60.0 L 176.0,60.0 L 176.0,140.0 L 160.0,140.0 L 160.0,60.0" fill="#FDFDFD"/>
	<path d="M 24.0,60.0 L 40.0,60.0 L 40.0,140.0 L 24.0,140.0 L 24.0,60.0" fill="#FDFDFD"/>
	<path d="M 76.0,92.0 L 124.0,92.0 L 124.0,108.0 L 76.0,108.0 L 76.0,92.0" fill="#FBFBFB"/>
	<path d="M 184.0,92.0 L 192.0,92.0 L 192.0,108.0 L 184.0,108.0 L 184.0,92.0" fill="#EDEDED"/>
	<path d="M 8.0,92.0 L 16.0,92.0 L 16.0,108.0 L 8.0,108.0 L 8.0,92.0" fill="#FDFDFD"/>
</svg>
