<?xml version="1.0" ?>
<svg baseProfile="full" height="600px" version="1.1" viewBox="-12.864 -12.864 153.728 153.728" width="600px" xmlns="http://www.w3.org/2000/svg" xmlns:ev="http://www.w3.org/2001/xml-events" xmlns:xlink="http://www.w3.org/1999/xlink">
	<defs/>
	<path d="M 0.0,0.0 L 128.0,0.0 L 128.0,128.0 L 0.0,128.0 L 0.0,0.0" fill="#FDFDFD"/>
	<path d="M 88.0,17.0 L 97.0,17.0 L 105.0,21.0 L 109.0,28.0 L 109.0,37.0 L 96.0,65.0 L 81.0,99.0 L 70.0,107.0 L 64.0,111.0 L 62.0,111.0 L 62.0,116.0 L 16.0,116.0 L 16.0,108.0 L 56.0,108.0 L 51.0,90.0 L 54.0,81.0 L 73.0,39.0 L 79.0,25.0 L 83.0,20.0 L 88.0,17.0" fill="#070707"/>
	<path d="M 81.0,41.0 L 87.0,42.0 L 95.0,45.0 L 94.0,50.0 L 77.0,88.0 L 75.0,89.0 L 65.0,85.0 L 62.0,83.0 L 80.0,43.0 L 81.0,41.0" fill="#F8F8F8"/>
	<path d="M 90.0,25.0 L 96.0,25.0 L 101.0,29.0 L 101.0,35.0 L 98.0,38.0 L 86.0,34.0 L 85.0,32.0 L 88.0,27.0 L 90.0,25.0" fill="#F1F1F1"/>
	<path d="M 60.0,92.0 L 67.0,93.0 L 71.0,96.0 L 64.0,101.0 L 62.0,100.0 L 60.0,92.0" fill="#EBEBEB"/>
</svg>
