<?xml version="1.0" ?>
<svg baseProfile="full" height="600px" version="1.1" viewBox="-19.296000000000003 -19.296000000000003 230.592 230.592" width="600px" xmlns="http://www.w3.org/2000/svg" xmlns:ev="http://www.w3.org/2001/xml-events" xmlns:xlink="http://www.w3.org/1999/xlink">
	<defs/>
	<path d="M 0.0,0.0 L 192.0,0.0 L 192.0,192.0 L 0.0,192.0 L 0.0,0.0" fill="#FDFDFD"/>
	<path d="M 56.0,1.0 L 61.0,1.0 L 64.0,4.0 L 66.0,14.0 L 69.0,42.0 L 74.0,79.0 L 80.0,129.0 L 80.0,136.0 L 69.0,162.0 L 66.0,162.0 L 56.0,149.0 L 48.0,139.0 L 40.0,74.0 L 36.0,45.0 L 33.0,20.0 L 32.0,8.0 L 36.0,4.0 L 56.0,1.0" fill="#FE9904"/>
	<path d="M 56.0,1.0 L 61.0,1.0 L 64.0,4.0 L 66.0,14.0 L 67.0,32.0 L 65.0,33.0 L 41.0,36.0 L 36.0,36.0 L 34.0,29.0 L 32.0,13.0 L 33.0,6.0 L 40.0,3.0 L 56.0,1.0" fill="#B4BEC4"/>
	<path d="M 56.0,1.0 L 61.0,1.0 L 64.0,4.0 L 65.0,16.0 L 33.0,20.0 L 32.0,8.0 L 36.0,4.0 L 56.0,1.0" fill="#E57676"/>
	<path d="M 77.0,134.0 L 80.0,134.0 L 77.0,143.0 L 69.0,162.0 L 66.0,162.0 L 56.0,149.0 L 48.0,139.0 L 49.0,135.0 L 49.0,138.0 L 69.0,135.0 L 77.0,134.0" fill="#FDC00E"/>
	<path d="M 67.0,149.0 L 74.0,149.0 L 69.0,162.0 L 66.0,162.0 L 58.0,152.0 L 58.0,150.0 L 67.0,149.0" fill="#46514F"/>
</svg>
