<?xml version="1.0" ?>
<svg baseProfile="full" height="600px" version="1.1" viewBox="-12.864 -12.864 153.728 153.728" width="600px" xmlns="http://www.w3.org/2000/svg" xmlns:ev="http://www.w3.org/2001/xml-events" xmlns:xlink="http://www.w3.org/1999/xlink">
	<defs/>
	<path d="M 0.0,0.0 L 128.0,0.0 L 128.0,128.0 L 0.0,128.0 L 0.0,0.0" fill="#FCFCFC"/>
	<path d="M 82.0,15.0 L 88.0,16.0 L 89.0,19.0 L 72.0,56.0 L 106.0,40.0 L 111.0,39.0 L 113.0,42.0 L 113.0,46.0 L 81.0,61.0 L 67.0,67.0 L 52.0,100.0 L 46.0,113.0 L 40.0,112.0 L 39.0,109.0 L 54.0,76.0 L 56.0,72.0 L 24.0,87.0 L 17.0,89.0 L 15.0,85.0 L 15.0,82.0 L 47.0,67.0 L 61.0,61.0 L 77.0,25.0 L 82.0,15.0" fill="#080808"/>
</svg>
