<?xml version="1.0" ?>
<svg baseProfile="full" height="600px" version="1.1" viewBox="-19.296000000000003 -19.296000000000003 230.592 230.592" width="600px" xmlns="http://www.w3.org/2000/svg" xmlns:ev="http://www.w3.org/2001/xml-events" xmlns:xlink="http://www.w3.org/1999/xlink">
	<defs/>
	<path d="M 0.0,0.0 L 192.0,0.0 L 192.0,192.0 L 0.0,192.0 L 0.0,0.0" fill="#FDFDFD"/>
	<path d="M 99.0,28.0 L 106.0,28.0 L 113.0,38.0 L 123.0,55.0 L 140.0,83.0 L 157.0,111.0 L 174.0,139.0 L 175.0,156.0 L 175.0,172.0 L 169.0,170.0 L 146.0,157.0 L 130.0,130.0 L 113.0,102.0 L 101.0,82.0 L 84.0,54.0 L 79.0,46.0 L 80.0,40.0 L 99.0,28.0" fill="#FE9903"/>
	<path d="M 99.0,28.0 L 106.0,28.0 L 113.0,38.0 L 121.0,52.0 L 116.0,56.0 L 94.0,69.0 L 90.0,64.0 L 79.0,46.0 L 80.0,40.0 L 99.0,28.0" fill="#B3BEC4"/>
	<path d="M 99.0,28.0 L 106.0,28.0 L 112.0,37.0 L 111.0,40.0 L 94.0,50.0 L 85.0,55.0 L 79.0,46.0 L 80.0,40.0 L 99.0,28.0" fill="#E57676"/>
	<path d="M 173.0,141.0 L 174.0,141.0 L 175.0,156.0 L 175.0,172.0 L 169.0,170.0 L 146.0,157.0 L 149.0,155.0 L 173.0,141.0" fill="#FCC00C"/>
	<path d="M 174.0,156.0 L 175.0,156.0 L 175.0,172.0 L 169.0,170.0 L 161.0,165.0 L 164.0,162.0 L 174.0,156.0" fill="#4B5652"/>
</svg>
