<?xml version="1.0" ?>
<svg baseProfile="full" height="600px" version="1.1" viewBox="-19.296000000000003 -19.296000000000003 230.592 230.592" width="600px" xmlns="http://www.w3.org/2000/svg" xmlns:ev="http://www.w3.org/2001/xml-events" xmlns:xlink="http://www.w3.org/1999/xlink">
	<defs/>
	<path d="M 0.0,0.0 L 192.0,0.0 L 192.0,192.0 L 0.0,192.0 L 0.0,0.0" fill="#FDFDFD"/>
	<path d="M 66.0,16.0 L 73.0,17.0 L 85.0,38.0 L 99.0,64.0 L 112.0,87.0 L 123.0,108.0 L 133.0,126.0 L 136.0,131.0 L 136.0,143.0 L 135.0,163.0 L 129.0,161.0 L 108.0,148.0 L 100.0,134.0 L 88.0,112.0 L 72.0,83.0 L 59.0,59.0 L 46.0,36.0 L 45.0,29.0 L 50.0,25.0 L 66.0,16.0" fill="#FE9903"/>
	<path d="M 66.0,16.0 L 73.0,17.0 L 85.0,38.0 L 86.0,42.0 L 70.0,51.0 L 58.0,57.0 L 48.0,39.0 L 45.0,34.0 L 45.0,29.0 L 50.0,25.0 L 66.0,16.0" fill="#B3BEC4"/>
	<path d="M 66.0,16.0 L 73.0,17.0 L 78.0,25.0 L 78.0,28.0 L 54.0,41.0 L 50.0,42.0 L 45.0,34.0 L 45.0,29.0 L 50.0,25.0 L 66.0,16.0" fill="#E57676"/>
	<path d="M 135.0,131.0 L 136.0,131.0 L 136.0,143.0 L 135.0,163.0 L 129.0,161.0 L 108.0,148.0 L 111.0,145.0 L 133.0,133.0 L 135.0,133.0 L 135.0,131.0" fill="#FCC00E"/>
	<path d="M 134.0,148.0 L 135.0,148.0 L 135.0,163.0 L 129.0,161.0 L 121.0,156.0 L 126.0,152.0 L 134.0,148.0" fill="#404D4E"/>
</svg>
