<?xml version="1.0" ?>
<svg baseProfile="full" height="600px" version="1.1" viewBox="-12.864 -12.864 153.728 153.728" width="600px" xmlns="http://www.w3.org/2000/svg" xmlns:ev="http://www.w3.org/2001/xml-events" xmlns:xlink="http://www.w3.org/1999/xlink">
	<defs/>
	<path d="M 0.0,0.0 L 128.0,0.0 L 128.0,128.0 L 0.0,128.0 L 0.0,0.0" fill="#FCFCFC"/>
	<path d="M 69.0,11.0 L 77.0,12.0 L 76.0,21.0 L 70.0,54.0 L 70.0,63.0 L 90.0,77.0 L 109.0,90.0 L 108.0,94.0 L 106.0,97.0 L 102.0,96.0 L 85.0,84.0 L 66.0,71.0 L 65.0,84.0 L 59.0,117.0 L 51.0,116.0 L 54.0,94.0 L 58.0,73.0 L 58.0,65.0 L 38.0,51.0 L 19.0,38.0 L 20.0,34.0 L 22.0,31.0 L 26.0,32.0 L 43.0,44.0 L 62.0,57.0 L 63.0,43.0 L 68.0,14.0 L 69.0,11.0" fill="#090909"/>
</svg>
