<?xml version="1.0" ?>
<svg baseProfile="full" height="600px" version="1.1" viewBox="-12.06 -12.06 144.12 144.12" width="600px" xmlns="http://www.w3.org/2000/svg" xmlns:ev="http://www.w3.org/2001/xml-events" xmlns:xlink="http://www.w3.org/1999/xlink">
	<defs/>
	<path d="M 0.0,0.0 L 120.0,0.0 L 120.0,120.0 L 0.0,120.0 L 0.0,0.0" fill="#FCFCFC"/>
	<path d="M 60.0,32.0 L 68.0,38.0 L 78.0,47.0 L 81.0,49.0 L 79.0,53.0 L 67.0,67.0 L 56.0,79.0 L 47.0,90.0 L 41.0,97.0 L 39.0,97.0 L 38.0,93.0 L 26.0,92.0 L 24.0,82.0 L 24.0,80.0 L 19.0,80.0 L 19.0,78.0 L 21.0,78.0 L 23.0,74.0 L 35.0,61.0 L 44.0,50.0 L 56.0,37.0 L 60.0,32.0" fill="#030303"/>
	<path d="M 78.0,12.0 L 86.0,12.0 L 97.0,21.0 L 99.0,24.0 L 99.0,30.0 L 90.0,41.0 L 87.0,41.0 L 73.0,29.0 L 68.0,25.0 L 70.0,21.0 L 78.0,12.0" fill="#050505"/>
	<path d="M 14.0,93.0 L 18.0,95.0 L 27.0,102.0 L 27.0,104.0 L 20.0,107.0 L 18.0,111.0 L 16.0,112.0 L 2.0,112.0 L 1.0,111.0 L 1.0,105.0 L 2.0,104.0 L 12.0,104.0 L 14.0,93.0" fill="#080808"/>
</svg>
