<?xml version="1.0" ?>
<svg baseProfile="full" height="600px" version="1.1" viewBox="-12.864 -12.864 153.728 153.728" width="600px" xmlns="http://www.w3.org/2000/svg" xmlns:ev="http://www.w3.org/2001/xml-events" xmlns:xlink="http://www.w3.org/1999/xlink">
	<defs/>
	<path d="M 0.0,0.0 L 128.0,0.0 L 128.0,128.0 L 0.0,128.0 L 0.0,0.0" fill="#FDFDFD"/>
	<path d="M 90.0,16.0 L 100.0,16.0 L 106.0,19.0 L 111.0,25.0 L 112.0,27.0 L 112.0,37.0 L 108.0,44.0 L 44.0,108.0 L 19.0,113.0 L 15.0,113.0 L 16.0,104.0 L 20.0,84.0 L 85.0,19.0 L 90.0,16.0" fill="#0A0A0A"/>
	<path d="M 80.0,35.0 L 84.0,37.0 L 93.0,46.0 L 87.0,53.0 L 46.0,94.0 L 43.0,93.0 L 37.0,86.0 L 34.0,84.0 L 36.0,80.0 L 79.0,37.0 L 80.0,35.0" fill="#FCFCFC"/>
	<path d="M 92.0,24.0 L 99.0,24.0 L 104.0,29.0 L 104.0,36.0 L 98.0,41.0 L 87.0,30.0 L 87.0,28.0 L 92.0,24.0" fill="#F4F4F4"/>
	<path d="M 27.0,90.0 L 32.0,92.0 L 37.0,97.0 L 38.0,101.0 L 25.0,103.0 L 27.0,90.0" fill="#E9E9E9"/>
</svg>
