<?xml version="1.0" ?>
<svg baseProfile="full" height="600px" version="1.1" viewBox="-12.06 -12.06 144.12 144.12" width="600px" xmlns="http://www.w3.org/2000/svg" xmlns:ev="http://www.w3.org/2001/xml-events" xmlns:xlink="http://www.w3.org/1999/xlink">
	<defs/>
	<path d="M 0.0,0.0 L 120.0,0.0 L 120.0,120.0 L 0.0,120.0 L 0.0,0.0" fill="#FCFCFC"/>
	<path d="M 32.0,12.0 L 37.0,12.0 L 43.0,21.0 L 57.0,46.0 L 60.0,51.0 L 60.0,53.0 L 65.0,50.0 L 79.0,38.0 L 90.0,29.0 L 97.0,23.0 L 102.0,24.0 L 103.0,29.0 L 98.0,34.0 L 84.0,46.0 L 73.0,55.0 L 67.0,60.0 L 68.0,65.0 L 82.0,90.0 L 89.0,102.0 L 89.0,107.0 L 88.0,108.0 L 83.0,108.0 L 77.0,99.0 L 63.0,74.0 L 59.0,68.0 L 55.0,70.0 L 41.0,82.0 L 30.0,91.0 L 23.0,97.0 L 18.0,96.0 L 17.0,95.0 L 17.0,90.0 L 30.0,79.0 L 41.0,70.0 L 53.0,60.0 L 52.0,55.0 L 38.0,30.0 L 31.0,18.0 L 31.0,13.0 L 32.0,12.0" fill="#080808"/>
</svg>
