<?xml version="1.0" ?>
<svg baseProfile="full" height="600px" version="1.1" viewBox="-12.864 -12.864 153.728 153.728" width="600px" xmlns="http://www.w3.org/2000/svg" xmlns:ev="http://www.w3.org/2001/xml-events" xmlns:xlink="http://www.w3.org/1999/xlink">
	<defs/>
	<path d="M 0.0,0.0 L 128.0,0.0 L 128.0,128.0 L 0.0,128.0 L 0.0,0.0" fill="#FDFDFD"/>
	<path d="M 72.0,7.0 L 80.0,7.0 L 85.0,12.0 L 85.0,23.0 L 80.0,44.0 L 73.0,68.0 L 66.0,92.0 L 62.0,106.0 L 59.0,112.0 L 51.0,120.0 L 46.0,120.0 L 42.0,111.0 L 41.0,102.0 L 48.0,74.0 L 54.0,54.0 L 61.0,29.0 L 66.0,14.0 L 70.0,8.0 L 72.0,7.0" fill="#080808"/>
	<path d="M 69.0,32.0 L 74.0,32.0 L 72.0,41.0 L 65.0,68.0 L 58.0,91.0 L 56.0,99.0 L 51.0,98.0 L 52.0,90.0 L 57.0,72.0 L 64.0,47.0 L 68.0,33.0 L 69.0,32.0" fill="#EDEDED"/>
	<path d="M 75.0,15.0 L 77.0,15.0 L 77.0,22.0 L 75.0,25.0 L 72.0,24.0 L 73.0,18.0 L 75.0,15.0" fill="#F2F2F2"/>
</svg>
