<?xml version="1.0" ?>
<svg baseProfile="full" height="600px" version="1.1" viewBox="-20.1 -20.1 240.2 240.2" width="600px" xmlns="http://www.w3.org/2000/svg" xmlns:ev="http://www.w3.org/2001/xml-events" xmlns:xlink="http://www.w3.org/1999/xlink">
	<defs/>
	<path d="M 0.0,0.0 L 200.0,0.0 L 200.0,200.0 L 0.0,200.0 L 0.0,0.0" fill="#FDFDFD"/>
	<path d="M 88.0,32.0 L 92.0,34.0 L 101.0,58.0 L 119.0,108.0 L 136.0,155.0 L 139.0,163.0 L 138.0,171.0 L 135.0,189.0 L 133.0,191.0 L 129.0,190.0 L 114.0,177.0 L 111.0,174.0 L 97.0,136.0 L 78.0,83.0 L 64.0,45.0 L 65.0,41.0 L 69.0,40.0 L 73.0,49.0 L 90.0,96.0 L 110.0,151.0 L 116.0,168.0 L 116.0,171.0 L 131.0,165.0 L 129.0,156.0 L 111.0,106.0 L 89.0,45.0 L 86.0,37.0 L 87.0,33.0 L 88.0,32.0" fill="#0A0A0A"/>
	<path d="M 69.0,13.0 L 78.0,13.0 L 84.0,17.0 L 88.0,22.0 L 89.0,26.0 L 63.0,36.0 L 61.0,36.0 L 59.0,32.0 L 59.0,24.0 L 64.0,16.0 L 69.0,13.0" fill="#070707"/>
</svg>
