<?xml version="1.0" ?>
<svg baseProfile="full" height="600px" version="1.1" viewBox="-12.06 -12.06 144.12 144.12" width="600px" xmlns="http://www.w3.org/2000/svg" xmlns:ev="http://www.w3.org/2001/xml-events" xmlns:xlink="http://www.w3.org/1999/xlink">
	<defs/>
	<path d="M 0.0,0.0 L 120.0,0.0 L 120.0,120.0 L 0.0,120.0 L 0.0,0.0" fill="#FDFDFD"/>
	<path d="M 67.0,32.0 L 71.0,34.0 L 88.0,51.0 L 86.0,55.0 L 42.0,99.0 L 40.0,95.0 L 39.0,94.0 L 29.0,93.0 L 27.0,91.0 L 26.0,81.0 L 21.0,79.0 L 27.0,72.0 L 67.0,32.0" fill="#070707"/>
	<path d="M 88.0,12.0 L 94.0,12.0 L 102.0,19.0 L 108.0,25.0 L 108.0,31.0 L 104.0,37.0 L 97.0,44.0 L 93.0,42.0 L 76.0,25.0 L 78.0,21.0 L 85.0,14.0 L 88.0,12.0" fill="#090909"/>
	<path d="M 16.0,92.0 L 23.0,98.0 L 27.0,102.0 L 26.0,105.0 L 18.0,108.0 L 13.0,107.0 L 12.0,106.0 L 13.0,99.0 L 16.0,92.0" fill="#101010"/>
</svg>
