<?xml version="1.0" ?>
<svg baseProfile="full" height="600px" version="1.1" viewBox="-20.1 -20.1 240.2 240.2" width="600px" xmlns="http://www.w3.org/2000/svg" xmlns:ev="http://www.w3.org/2001/xml-events" xmlns:xlink="http://www.w3.org/1999/xlink">
	<defs/>
	<path d="M 0.0,0.0 L 200.0,0.0 L 200.0,200.0 L 0.0,200.0 L 0.0,0.0" fill="#FDFDFD"/>
	<path d="M 78.0,0.0 L 200.0,0.0 L 200.0,200.0 L 129.0,200.0 L 123.0,176.0 L 118.0,158.0 L 114.0,141.0 L 109.0,123.0 L 105.0,106.0 L 100.0,88.0 L 96.0,71.0 L 91.0,53.0 L 87.0,36.0 L 82.0,18.0 L 78.0,0.0" fill="#FDFDFD"/>
	<path d="M 70.0,0.0 L 78.0,0.0 L 81.0,9.0 L 87.0,34.0 L 91.0,48.0 L 96.0,69.0 L 100.0,83.0 L 105.0,104.0 L 109.0,118.0 L 114.0,139.0 L 118.0,153.0 L 123.0,174.0 L 127.0,188.0 L 129.0,195.0 L 129.0,200.0 L 121.0,200.0 L 116.0,183.0 L 112.0,166.0 L 107.0,148.0 L 102.0,127.0 L 98.0,113.0 L 93.0,92.0 L 89.0,78.0 L 83.0,53.0 L 79.0,38.0 L 73.0,14.0 L 70.0,3.0 L 70.0,0.0" fill="#090909"/>
</svg>
