<?xml version="1.0" ?>
<svg baseProfile="full" height="600px" version="1.1" viewBox="-19.296000000000003 -19.296000000000003 230.592 230.592" width="600px" xmlns="http://www.w3.org/2000/svg" xmlns:ev="http://www.w3.org/2001/xml-events" xmlns:xlink="http://www.w3.org/1999/xlink">
	<defs/>
	<path d="M 0.0,0.0 L 192.0,0.0 L 192.0,192.0 L 0.0,192.0 L 0.0,0.0" fill="#FDFDFD"/>
	<path d="M 121.0,10.0 L 132.0,11.0 L 146.0,13.0 L 149.0,16.0 L 148.0,29.0 L 143.0,71.0 L 139.0,100.0 L 133.0,148.0 L 124.0,159.0 L 114.0,159.0 L 107.0,158.0 L 101.0,145.0 L 102.0,128.0 L 106.0,97.0 L 110.0,68.0 L 113.0,41.0 L 117.0,13.0 L 121.0,10.0" fill="#FE9903"/>
	<path d="M 121.0,10.0 L 132.0,11.0 L 146.0,13.0 L 149.0,16.0 L 148.0,29.0 L 146.0,45.0 L 132.0,44.0 L 116.0,42.0 L 114.0,41.0 L 115.0,27.0 L 117.0,13.0 L 121.0,10.0" fill="#B3BEC3"/>
	<path d="M 125.0,156.0 L 172.0,156.0 L 172.0,172.0 L 113.0,172.0 L 107.0,159.0 L 107.0,158.0 L 124.0,158.0 L 125.0,156.0" fill="#B1BEC4"/>
	<path d="M 121.0,10.0 L 132.0,11.0 L 146.0,13.0 L 149.0,16.0 L 148.0,29.0 L 130.0,27.0 L 116.0,25.0 L 116.0,18.0 L 118.0,12.0 L 121.0,10.0" fill="#E57777"/>
	<path d="M 101.0,143.0 L 121.0,145.0 L 132.0,147.0 L 133.0,145.0 L 132.0,149.0 L 124.0,159.0 L 114.0,159.0 L 107.0,158.0 L 101.0,145.0 L 101.0,143.0" fill="#FCBF0E"/>
	<path d="M 107.0,158.0 L 123.0,159.0 L 121.0,163.0 L 114.0,172.0 L 112.0,171.0 L 107.0,158.0" fill="#424E4E"/>
	<path d="M 108.0,161.0 L 110.0,164.0 L 113.0,172.0 L 108.0,172.0 L 106.0,170.0 L 107.0,164.0 L 108.0,161.0" fill="#B4BFC2"/>
</svg>
