<?xml version="1.0" ?>
<svg baseProfile="full" height="600px" version="1.1" viewBox="-20.1 -20.1 240.2 240.2" width="600px" xmlns="http://www.w3.org/2000/svg" xmlns:ev="http://www.w3.org/2001/xml-events" xmlns:xlink="http://www.w3.org/1999/xlink">
	<defs/>
	<path d="M 0.0,0.0 L 200.0,0.0 L 200.0,200.0 L 0.0,200.0 L 0.0,0.0" fill="#FBFBFB"/>
	<path d="M 0.0,0.0 L 200.0,0.0 L 200.0,200.0 L 0.0,200.0 L 0.0,0.0 M 60.0,8.0 L 55.0,11.0 L 52.0,16.0 L 52.0,23.0 L 53.0,29.0 L 43.0,39.0 L 40.0,45.0 L 40.0,173.0 L 44.0,179.0 L 50.0,184.0 L 54.0,190.0 L 58.0,192.0 L 141.0,192.0 L 147.0,189.0 L 151.0,183.0 L 158.0,177.0 L 160.0,172.0 L 160.0,45.0 L 156.0,38.0 L 147.0,29.0 L 148.0,24.0 L 148.0,16.0 L 145.0,11.0 L 139.0,8.0 L 60.0,8.0" fill="#FDFDFD"/>
	<path d="M 60.0,8.0 L 139.0,8.0 L 145.0,11.0 L 148.0,16.0 L 148.0,24.0 L 147.0,29.0 L 157.0,39.0 L 160.0,45.0 L 160.0,172.0 L 157.0,178.0 L 150.0,184.0 L 146.0,190.0 L 141.0,192.0 L 58.0,192.0 L 52.0,188.0 L 49.0,183.0 L 42.0,177.0 L 40.0,173.0 L 40.0,45.0 L 45.0,37.0 L 53.0,29.0 L 52.0,16.0 L 55.0,11.0 L 60.0,8.0 M 60.0,32.0 L 53.0,40.0 L 51.0,44.0 L 146.0,45.0 L 147.0,46.0 L 147.0,51.0 L 48.0,52.0 L 48.0,168.0 L 146.0,169.0 L 147.0,174.0 L 150.0,174.0 L 152.0,170.0 L 152.0,46.0 L 141.0,34.0 L 140.0,32.0 L 60.0,32.0" fill="#030303"/>
	<path d="M 127.0,65.0 L 128.0,68.0 L 121.0,104.0 L 140.0,104.0 L 136.0,111.0 L 120.0,134.0 L 109.0,150.0 L 105.0,154.0 L 106.0,145.0 L 111.0,119.0 L 112.0,116.0 L 93.0,116.0 L 95.0,111.0 L 107.0,94.0 L 118.0,78.0 L 127.0,65.0" fill="#050505"/>
	<path d="M 55.0,176.0 L 145.0,176.0 L 140.0,184.0 L 60.0,184.0 L 55.0,176.0" fill="#FDFDFD"/>
	<path d="M 62.0,16.0 L 138.0,16.0 L 140.0,18.0 L 139.0,23.0 L 138.0,24.0 L 62.0,24.0 L 60.0,22.0 L 61.0,17.0 L 62.0,16.0" fill="#FCFCFC"/>
</svg>
