<?xml version="1.0" ?>
<svg baseProfile="full" height="600px" version="1.1" viewBox="-20.1 -20.1 240.2 240.2" width="600px" xmlns="http://www.w3.org/2000/svg" xmlns:ev="http://www.w3.org/2001/xml-events" xmlns:xlink="http://www.w3.org/1999/xlink">
	<defs/>
	<path d="M 0.0,0.0 L 200.0,0.0 L 200.0,200.0 L 0.0,200.0 L 0.0,0.0" fill="#FBFBFB"/>
	<path d="M 0.0,0.0 L 200.0,0.0 L 200.0,200.0 L 0.0,200.0 L 0.0,0.0 M 116.0,4.0 L 59.0,7.0 L 49.0,9.0 L 43.0,16.0 L 43.0,23.0 L 45.0,29.0 L 38.0,36.0 L 33.0,44.0 L 33.0,66.0 L 35.0,100.0 L 36.0,127.0 L 37.0,138.0 L 38.0,165.0 L 40.0,175.0 L 46.0,182.0 L 50.0,183.0 L 52.0,188.0 L 58.0,192.0 L 70.0,192.0 L 127.0,189.0 L 140.0,188.0 L 146.0,185.0 L 149.0,181.0 L 149.0,178.0 L 153.0,176.0 L 157.0,172.0 L 159.0,168.0 L 159.0,150.0 L 158.0,139.0 L 154.0,57.0 L 153.0,42.0 L 149.0,34.0 L 141.0,26.0 L 138.0,24.0 L 139.0,19.0 L 139.0,12.0 L 133.0,5.0 L 131.0,4.0 L 116.0,4.0" fill="#FDFDFD"/>
	<path d="M 116.0,4.0 L 131.0,4.0 L 138.0,10.0 L 139.0,12.0 L 139.0,19.0 L 138.0,24.0 L 148.0,33.0 L 152.0,39.0 L 153.0,42.0 L 157.0,114.0 L 158.0,139.0 L 159.0,150.0 L 159.0,168.0 L 155.0,175.0 L 151.0,178.0 L 149.0,178.0 L 148.0,183.0 L 143.0,187.0 L 140.0,188.0 L 89.0,191.0 L 70.0,192.0 L 58.0,192.0 L 52.0,188.0 L 50.0,183.0 L 45.0,181.0 L 40.0,175.0 L 38.0,165.0 L 37.0,138.0 L 36.0,127.0 L 34.0,81.0 L 33.0,66.0 L 33.0,44.0 L 40.0,34.0 L 45.0,29.0 L 43.0,23.0 L 43.0,16.0 L 49.0,9.0 L 59.0,7.0 L 116.0,4.0 M 127.0,28.0 L 70.0,31.0 L 52.0,32.0 L 45.0,41.0 L 43.0,45.0 L 76.0,45.0 L 77.0,49.0 L 75.0,51.0 L 41.0,53.0 L 41.0,65.0 L 46.0,160.0 L 47.0,168.0 L 83.0,168.0 L 83.0,173.0 L 82.0,174.0 L 54.0,176.0 L 55.0,178.0 L 57.0,178.0 L 58.0,183.0 L 60.0,184.0 L 90.0,183.0 L 139.0,180.0 L 142.0,177.0 L 144.0,172.0 L 127.0,172.0 L 110.0,173.0 L 95.0,173.0 L 94.0,168.0 L 101.0,166.0 L 141.0,164.0 L 150.0,163.0 L 150.0,140.0 L 145.0,48.0 L 133.0,48.0 L 114.0,49.0 L 88.0,49.0 L 88.0,44.0 L 89.0,43.0 L 142.0,40.0 L 136.0,33.0 L 131.0,28.0 L 127.0,28.0" fill="#0A0A0A"/>
	<path d="M 117.0,61.0 L 118.0,64.0 L 113.0,97.0 L 112.0,101.0 L 132.0,100.0 L 127.0,109.0 L 112.0,133.0 L 100.0,153.0 L 99.0,153.0 L 100.0,143.0 L 104.0,114.0 L 85.0,114.0 L 91.0,103.0 L 106.0,79.0 L 115.0,64.0 L 117.0,61.0" fill="#060606"/>
	<path d="M 115.0,12.0 L 129.0,12.0 L 131.0,14.0 L 130.0,19.0 L 124.0,21.0 L 67.0,24.0 L 54.0,24.0 L 51.0,22.0 L 52.0,17.0 L 53.0,16.0 L 106.0,13.0 L 115.0,12.0" fill="#F1F1F1"/>
</svg>
