<?xml version="1.0" ?>
<svg baseProfile="full" height="600px" version="1.1" viewBox="-20.1 -20.1 240.2 240.2" width="600px" xmlns="http://www.w3.org/2000/svg" xmlns:ev="http://www.w3.org/2001/xml-events" xmlns:xlink="http://www.w3.org/1999/xlink">
	<defs/>
	<path d="M 0.0,0.0 L 200.0,0.0 L 200.0,200.0 L 0.0,200.0 L 0.0,0.0" fill="#050505"/>
	<path d="M 18.0,74.0 L 89.0,74.0 L 84.0,79.0 L 77.0,86.0 L 78.0,91.0 L 86.0,98.0 L 86.0,100.0 L 77.0,106.0 L 71.0,115.0 L 69.0,121.0 L 68.0,128.0 L 76.0,128.0 L 77.0,120.0 L 81.0,113.0 L 89.0,106.0 L 94.0,104.0 L 106.0,104.0 L 115.0,109.0 L 121.0,116.0 L 124.0,122.0 L 124.0,128.0 L 132.0,128.0 L 130.0,118.0 L 126.0,110.0 L 121.0,104.0 L 114.0,100.0 L 114.0,98.0 L 122.0,91.0 L 123.0,86.0 L 111.0,75.0 L 111.0,74.0 L 182.0,74.0 L 181.0,79.0 L 170.0,108.0 L 170.0,115.0 L 183.0,130.0 L 189.0,137.0 L 189.0,140.0 L 177.0,144.0 L 22.0,144.0 L 11.0,140.0 L 12.0,136.0 L 21.0,126.0 L 30.0,115.0 L 30.0,108.0 L 18.0,77.0 L 18.0,74.0" fill="#FBFBFB"/>
	<path d="M 0.0,0.0 L 200.0,0.0 L 200.0,138.0 L 199.0,136.0 L 197.0,136.0 L 188.0,125.0 L 177.0,112.0 L 180.0,102.0 L 192.0,71.0 L 192.0,54.0 L 188.0,43.0 L 181.0,34.0 L 173.0,27.0 L 157.0,19.0 L 144.0,15.0 L 126.0,12.0 L 113.0,11.0 L 86.0,11.0 L 66.0,13.0 L 49.0,17.0 L 36.0,22.0 L 24.0,29.0 L 16.0,37.0 L 11.0,45.0 L 8.0,54.0 L 8.0,71.0 L 20.0,102.0 L 23.0,112.0 L 10.0,127.0 L 3.0,136.0 L 1.0,136.0 L 0.0,138.0 L 0.0,0.0" fill="#FBFBFB"/>
	<path d="M 8.0,147.0 L 13.0,149.0 L 13.0,154.0 L 18.0,155.0 L 21.0,151.0 L 36.0,152.0 L 38.0,155.0 L 43.0,154.0 L 44.0,152.0 L 60.0,152.0 L 62.0,155.0 L 67.0,154.0 L 68.0,152.0 L 84.0,152.0 L 86.0,155.0 L 91.0,154.0 L 92.0,152.0 L 108.0,152.0 L 110.0,155.0 L 115.0,154.0 L 116.0,152.0 L 132.0,152.0 L 134.0,155.0 L 139.0,154.0 L 140.0,152.0 L 156.0,152.0 L 158.0,155.0 L 163.0,154.0 L 164.0,152.0 L 180.0,151.0 L 182.0,155.0 L 187.0,154.0 L 187.0,149.0 L 192.0,147.0 L 192.0,164.0 L 189.0,173.0 L 186.0,173.0 L 181.0,174.0 L 182.0,179.0 L 182.0,183.0 L 178.0,186.0 L 170.0,185.0 L 168.0,191.0 L 164.0,192.0 L 150.0,192.0 L 151.0,186.0 L 146.0,185.0 L 145.0,190.0 L 146.0,192.0 L 126.0,192.0 L 127.0,186.0 L 122.0,185.0 L 121.0,190.0 L 122.0,192.0 L 102.0,192.0 L 103.0,186.0 L 98.0,185.0 L 97.0,190.0 L 98.0,192.0 L 78.0,192.0 L 79.0,186.0 L 74.0,185.0 L 73.0,190.0 L 74.0,192.0 L 54.0,192.0 L 55.0,186.0 L 50.0,185.0 L 49.0,190.0 L 50.0,192.0 L 35.0,192.0 L 32.0,191.0 L 30.0,185.0 L 22.0,186.0 L 17.0,182.0 L 19.0,178.0 L 18.0,173.0 L 12.0,174.0 L 8.0,164.0 L 8.0,147.0" fill="#FBFBFB"/>
	<path d="M 74.0,19.0 L 123.0,19.0 L 143.0,22.0 L 158.0,27.0 L 168.0,32.0 L 170.0,35.0 L 169.0,40.0 L 169.0,42.0 L 175.0,42.0 L 175.0,40.0 L 179.0,42.0 L 181.0,45.0 L 181.0,54.0 L 185.0,55.0 L 185.0,66.0 L 175.0,66.0 L 175.0,60.0 L 170.0,59.0 L 169.0,64.0 L 169.0,66.0 L 151.0,66.0 L 151.0,60.0 L 146.0,59.0 L 145.0,64.0 L 145.0,66.0 L 127.0,66.0 L 127.0,60.0 L 122.0,59.0 L 121.0,64.0 L 121.0,66.0 L 103.0,66.0 L 103.0,60.0 L 98.0,59.0 L 97.0,64.0 L 97.0,66.0 L 79.0,66.0 L 79.0,60.0 L 74.0,59.0 L 73.0,64.0 L 73.0,66.0 L 55.0,66.0 L 55.0,60.0 L 50.0,59.0 L 49.0,64.0 L 49.0,66.0 L 31.0,66.0 L 31.0,60.0 L 26.0,59.0 L 25.0,64.0 L 25.0,66.0 L 15.0,66.0 L 15.0,55.0 L 19.0,54.0 L 19.0,45.0 L 24.0,40.0 L 31.0,42.0 L 31.0,36.0 L 31.0,33.0 L 41.0,27.0 L 57.0,22.0 L 62.0,22.0 L 61.0,28.0 L 61.0,30.0 L 67.0,30.0 L 67.0,24.0 L 63.0,21.0 L 74.0,19.0" fill="#FAFAFA"/>
	<path d="M 89.0,74.0 L 111.0,74.0 L 124.0,86.0 L 123.0,91.0 L 116.0,98.0 L 114.0,98.0 L 114.0,100.0 L 119.0,102.0 L 125.0,107.0 L 130.0,115.0 L 132.0,121.0 L 132.0,128.0 L 124.0,128.0 L 122.0,120.0 L 117.0,112.0 L 112.0,108.0 L 106.0,105.0 L 94.0,105.0 L 86.0,109.0 L 79.0,117.0 L 76.0,128.0 L 68.0,128.0 L 68.0,121.0 L 72.0,112.0 L 78.0,104.0 L 84.0,100.0 L 86.0,100.0 L 81.0,95.0 L 76.0,90.0 L 77.0,85.0 L 84.0,78.0 L 89.0,74.0" fill="#080808"/>
	<path d="M 26.0,58.0 L 31.0,59.0 L 32.0,64.0 L 31.0,66.0 L 49.0,66.0 L 48.0,60.0 L 50.0,58.0 L 55.0,59.0 L 56.0,64.0 L 55.0,66.0 L 73.0,66.0 L 72.0,60.0 L 74.0,58.0 L 79.0,59.0 L 80.0,64.0 L 79.0,66.0 L 97.0,66.0 L 96.0,60.0 L 98.0,58.0 L 103.0,59.0 L 104.0,64.0 L 103.0,66.0 L 121.0,66.0 L 120.0,60.0 L 122.0,58.0 L 127.0,59.0 L 128.0,64.0 L 127.0,66.0 L 145.0,66.0 L 144.0,60.0 L 146.0,58.0 L 151.0,59.0 L 152.0,64.0 L 151.0,66.0 L 169.0,66.0 L 168.0,60.0 L 170.0,58.0 L 175.0,59.0 L 176.0,64.0 L 175.0,67.0 L 25.0,67.0 L 24.0,60.0 L 26.0,58.0" fill="#5A5A5A"/>
	<path d="M 199.0,164.0 L 200.0,164.0 L 200.0,200.0 L 164.0,200.0 L 164.0,199.0 L 177.0,195.0 L 186.0,189.0 L 193.0,181.0 L 198.0,169.0 L 199.0,164.0" fill="#F8F8F8"/>
	<path d="M 0.0,163.0 L 1.0,163.0 L 4.0,175.0 L 10.0,185.0 L 19.0,193.0 L 30.0,198.0 L 35.0,199.0 L 35.0,200.0 L 0.0,200.0 L 0.0,163.0" fill="#F9F9F9"/>
	<path d="M 94.0,80.0 L 106.0,80.0 L 113.0,87.0 L 111.0,91.0 L 106.0,96.0 L 94.0,96.0 L 87.0,89.0 L 89.0,85.0 L 94.0,80.0" fill="#F9F9F9"/>
	<path d="M 61.0,21.0 L 67.0,23.0 L 68.0,28.0 L 67.0,30.0 L 61.0,30.0 L 60.0,24.0 L 61.0,21.0" fill="#1A1A1A"/>
	<path d="M 158.0,46.0 L 163.0,47.0 L 164.0,52.0 L 163.0,54.0 L 157.0,54.0 L 156.0,48.0 L 158.0,46.0" fill="#171717"/>
	<path d="M 134.0,46.0 L 139.0,47.0 L 140.0,52.0 L 139.0,54.0 L 133.0,54.0 L 132.0,48.0 L 134.0,46.0" fill="#171717"/>
	<path d="M 110.0,46.0 L 115.0,47.0 L 116.0,52.0 L 115.0,54.0 L 109.0,54.0 L 108.0,48.0 L 110.0,46.0" fill="#171717"/>
	<path d="M 86.0,46.0 L 91.0,47.0 L 92.0,52.0 L 91.0,54.0 L 85.0,54.0 L 84.0,48.0 L 86.0,46.0" fill="#171717"/>
	<path d="M 62.0,46.0 L 67.0,47.0 L 68.0,52.0 L 67.0,54.0 L 61.0,54.0 L 60.0,48.0 L 62.0,46.0" fill="#171717"/>
	<path d="M 38.0,46.0 L 43.0,47.0 L 44.0,52.0 L 43.0,54.0 L 37.0,54.0 L 36.0,48.0 L 38.0,46.0" fill="#171717"/>
	<path d="M 146.0,34.0 L 151.0,35.0 L 152.0,40.0 L 151.0,42.0 L 145.0,42.0 L 144.0,36.0 L 146.0,34.0" fill="#171717"/>
	<path d="M 122.0,34.0 L 127.0,35.0 L 128.0,40.0 L 127.0,42.0 L 121.0,42.0 L 120.0,36.0 L 122.0,34.0" fill="#171717"/>
	<path d="M 98.0,34.0 L 103.0,35.0 L 104.0,40.0 L 103.0,42.0 L 97.0,42.0 L 96.0,36.0 L 98.0,34.0" fill="#171717"/>
	<path d="M 74.0,34.0 L 79.0,35.0 L 80.0,40.0 L 79.0,42.0 L 73.0,42.0 L 72.0,36.0 L 74.0,34.0" fill="#171717"/>
	<path d="M 50.0,34.0 L 55.0,35.0 L 56.0,40.0 L 55.0,42.0 L 49.0,42.0 L 48.0,36.0 L 50.0,34.0" fill="#171717"/>
	<path d="M 110.0,22.0 L 115.0,23.0 L 116.0,28.0 L 115.0,30.0 L 109.0,30.0 L 108.0,24.0 L 110.0,22.0" fill="#171717"/>
	<path d="M 86.0,22.0 L 91.0,23.0 L 92.0,28.0 L 91.0,30.0 L 85.0,30.0 L 84.0,24.0 L 86.0,22.0" fill="#171717"/>
	<path d="M 158.0,172.0 L 163.0,173.0 L 164.0,178.0 L 162.0,180.0 L 157.0,179.0 L 156.0,174.0 L 158.0,172.0" fill="#0C0C0C"/>
	<path d="M 134.0,172.0 L 139.0,173.0 L 140.0,178.0 L 138.0,180.0 L 133.0,179.0 L 132.0,174.0 L 134.0,172.0" fill="#0C0C0C"/>
	<path d="M 110.0,172.0 L 115.0,173.0 L 116.0,178.0 L 114.0,180.0 L 109.0,179.0 L 108.0,174.0 L 110.0,172.0" fill="#0C0C0C"/>
	<path d="M 86.0,172.0 L 91.0,173.0 L 92.0,178.0 L 90.0,180.0 L 85.0,179.0 L 84.0,174.0 L 86.0,172.0" fill="#0C0C0C"/>
	<path d="M 62.0,172.0 L 67.0,173.0 L 68.0,178.0 L 66.0,180.0 L 61.0,179.0 L 60.0,174.0 L 62.0,172.0" fill="#0C0C0C"/>
	<path d="M 38.0,172.0 L 43.0,173.0 L 44.0,178.0 L 42.0,180.0 L 37.0,179.0 L 36.0,174.0 L 38.0,172.0" fill="#0C0C0C"/>
	<path d="M 170.0,160.0 L 175.0,161.0 L 176.0,166.0 L 174.0,168.0 L 169.0,167.0 L 168.0,162.0 L 170.0,160.0" fill="#0C0C0C"/>
	<path d="M 146.0,160.0 L 151.0,161.0 L 152.0,166.0 L 150.0,168.0 L 145.0,167.0 L 144.0,162.0 L 146.0,160.0" fill="#0C0C0C"/>
	<path d="M 122.0,160.0 L 127.0,161.0 L 128.0,166.0 L 126.0,168.0 L 121.0,167.0 L 120.0,162.0 L 122.0,160.0" fill="#0C0C0C"/>
	<path d="M 98.0,160.0 L 103.0,161.0 L 104.0,166.0 L 102.0,168.0 L 97.0,167.0 L 96.0,162.0 L 98.0,160.0" fill="#0C0C0C"/>
	<path d="M 74.0,160.0 L 79.0,161.0 L 80.0,166.0 L 78.0,168.0 L 73.0,167.0 L 72.0,162.0 L 74.0,160.0" fill="#0C0C0C"/>
	<path d="M 50.0,160.0 L 55.0,161.0 L 56.0,166.0 L 54.0,168.0 L 49.0,167.0 L 48.0,162.0 L 50.0,160.0" fill="#0C0C0C"/>
	<path d="M 26.0,160.0 L 31.0,161.0 L 32.0,166.0 L 30.0,168.0 L 25.0,167.0 L 24.0,162.0 L 26.0,160.0" fill="#0C0C0C"/>
	<path d="M 170.0,58.0 L 175.0,59.0 L 176.0,64.0 L 174.0,66.0 L 169.0,65.0 L 168.0,60.0 L 170.0,58.0" fill="#131313"/>
	<path d="M 146.0,58.0 L 151.0,59.0 L 152.0,64.0 L 150.0,66.0 L 145.0,65.0 L 144.0,60.0 L 146.0,58.0" fill="#131313"/>
	<path d="M 122.0,58.0 L 127.0,59.0 L 128.0,64.0 L 126.0,66.0 L 121.0,65.0 L 120.0,60.0 L 122.0,58.0" fill="#131313"/>
	<path d="M 98.0,58.0 L 103.0,59.0 L 104.0,64.0 L 102.0,66.0 L 97.0,65.0 L 96.0,60.0 L 98.0,58.0" fill="#131313"/>
	<path d="M 74.0,58.0 L 79.0,59.0 L 80.0,64.0 L 78.0,66.0 L 73.0,65.0 L 72.0,60.0 L 74.0,58.0" fill="#131313"/>
	<path d="M 50.0,58.0 L 55.0,59.0 L 56.0,64.0 L 54.0,66.0 L 49.0,65.0 L 48.0,60.0 L 50.0,58.0" fill="#131313"/>
	<path d="M 26.0,58.0 L 31.0,59.0 L 32.0,64.0 L 30.0,66.0 L 25.0,65.0 L 24.0,60.0 L 26.0,58.0" fill="#131313"/>
	<path d="M 133.0,23.0 L 139.0,23.0 L 140.0,28.0 L 139.0,30.0 L 133.0,30.0 L 132.0,24.0 L 133.0,23.0" fill="#0E0E0E"/>
</svg>
