<?xml version="1.0" ?>
<svg baseProfile="full" height="600px" version="1.1" viewBox="-20.1 -20.1 240.2 240.2" width="600px" xmlns="http://www.w3.org/2000/svg" xmlns:ev="http://www.w3.org/2001/xml-events" xmlns:xlink="http://www.w3.org/1999/xlink">
	<defs/>
	<path d="M 0.0,0.0 L 200.0,0.0 L 200.0,200.0 L 0.0,200.0 L 0.0,0.0" fill="#060606"/>
	<path d="M 0.0,0.0 L 200.0,0.0 L 200.0,127.0 L 199.0,127.0 L 195.0,112.0 L 189.0,101.0 L 181.0,91.0 L 169.0,82.0 L 154.0,75.0 L 138.0,70.0 L 119.0,67.0 L 82.0,67.0 L 58.0,71.0 L 43.0,76.0 L 31.0,82.0 L 18.0,92.0 L 9.0,104.0 L 4.0,115.0 L 1.0,127.0 L 0.0,127.0 L 0.0,0.0" fill="#FDFDFD"/>
	<path d="M 83.0,74.0 L 114.0,74.0 L 129.0,76.0 L 148.0,80.0 L 164.0,87.0 L 175.0,95.0 L 183.0,104.0 L 189.0,116.0 L 192.0,128.0 L 192.0,138.0 L 184.0,142.0 L 175.0,143.0 L 175.0,138.0 L 170.0,137.0 L 169.0,142.0 L 170.0,144.0 L 150.0,144.0 L 151.0,138.0 L 146.0,137.0 L 145.0,142.0 L 146.0,144.0 L 126.0,144.0 L 127.0,138.0 L 122.0,137.0 L 121.0,142.0 L 122.0,144.0 L 102.0,144.0 L 103.0,138.0 L 98.0,137.0 L 97.0,142.0 L 98.0,144.0 L 78.0,144.0 L 79.0,138.0 L 74.0,137.0 L 73.0,142.0 L 74.0,144.0 L 54.0,144.0 L 55.0,138.0 L 50.0,137.0 L 49.0,142.0 L 50.0,144.0 L 30.0,144.0 L 31.0,138.0 L 26.0,137.0 L 25.0,142.0 L 25.0,143.0 L 17.0,142.0 L 8.0,138.0 L 8.0,128.0 L 11.0,116.0 L 17.0,104.0 L 27.0,93.0 L 38.0,86.0 L 49.0,81.0 L 64.0,77.0 L 83.0,74.0" fill="#FBFBFB"/>
	<path d="M 8.0,147.0 L 13.0,149.0 L 13.0,154.0 L 18.0,155.0 L 21.0,151.0 L 36.0,152.0 L 38.0,155.0 L 43.0,154.0 L 44.0,152.0 L 60.0,152.0 L 62.0,155.0 L 67.0,154.0 L 68.0,152.0 L 84.0,152.0 L 86.0,155.0 L 91.0,154.0 L 92.0,152.0 L 108.0,152.0 L 110.0,155.0 L 115.0,154.0 L 116.0,152.0 L 132.0,152.0 L 134.0,155.0 L 139.0,154.0 L 140.0,152.0 L 156.0,152.0 L 158.0,155.0 L 163.0,154.0 L 164.0,152.0 L 180.0,152.0 L 182.0,155.0 L 187.0,154.0 L 189.0,148.0 L 192.0,148.0 L 192.0,164.0 L 189.0,173.0 L 186.0,173.0 L 181.0,174.0 L 182.0,179.0 L 182.0,183.0 L 178.0,186.0 L 170.0,185.0 L 168.0,191.0 L 164.0,192.0 L 150.0,192.0 L 151.0,186.0 L 146.0,185.0 L 145.0,190.0 L 146.0,192.0 L 126.0,192.0 L 127.0,186.0 L 122.0,185.0 L 121.0,190.0 L 122.0,192.0 L 102.0,192.0 L 103.0,186.0 L 98.0,185.0 L 97.0,190.0 L 98.0,192.0 L 78.0,192.0 L 79.0,186.0 L 74.0,185.0 L 73.0,190.0 L 74.0,192.0 L 54.0,192.0 L 55.0,186.0 L 50.0,185.0 L 49.0,190.0 L 50.0,192.0 L 35.0,192.0 L 32.0,191.0 L 30.0,185.0 L 22.0,186.0 L 17.0,182.0 L 19.0,178.0 L 18.0,173.0 L 12.0,174.0 L 8.0,164.0 L 8.0,147.0" fill="#FBFBFB"/>
	<path d="M 199.0,164.0 L 200.0,164.0 L 200.0,200.0 L 164.0,200.0 L 164.0,199.0 L 177.0,195.0 L 186.0,189.0 L 193.0,181.0 L 198.0,169.0 L 199.0,164.0" fill="#F8F8F8"/>
	<path d="M 0.0,163.0 L 1.0,163.0 L 4.0,175.0 L 10.0,185.0 L 19.0,193.0 L 30.0,198.0 L 35.0,199.0 L 35.0,200.0 L 0.0,200.0 L 0.0,163.0" fill="#F9F9F9"/>
	<path d="M 158.0,172.0 L 163.0,173.0 L 164.0,178.0 L 162.0,180.0 L 157.0,179.0 L 156.0,174.0 L 158.0,172.0" fill="#0C0C0C"/>
	<path d="M 134.0,172.0 L 139.0,173.0 L 140.0,178.0 L 138.0,180.0 L 133.0,179.0 L 132.0,174.0 L 134.0,172.0" fill="#0C0C0C"/>
	<path d="M 110.0,172.0 L 115.0,173.0 L 116.0,178.0 L 114.0,180.0 L 109.0,179.0 L 108.0,174.0 L 110.0,172.0" fill="#0C0C0C"/>
	<path d="M 86.0,172.0 L 91.0,173.0 L 92.0,178.0 L 90.0,180.0 L 85.0,179.0 L 84.0,174.0 L 86.0,172.0" fill="#0C0C0C"/>
	<path d="M 62.0,172.0 L 67.0,173.0 L 68.0,178.0 L 66.0,180.0 L 61.0,179.0 L 60.0,174.0 L 62.0,172.0" fill="#0C0C0C"/>
	<path d="M 38.0,172.0 L 43.0,173.0 L 44.0,178.0 L 42.0,180.0 L 37.0,179.0 L 36.0,174.0 L 38.0,172.0" fill="#0C0C0C"/>
	<path d="M 170.0,160.0 L 175.0,161.0 L 176.0,166.0 L 174.0,168.0 L 169.0,167.0 L 168.0,162.0 L 170.0,160.0" fill="#0C0C0C"/>
	<path d="M 146.0,160.0 L 151.0,161.0 L 152.0,166.0 L 150.0,168.0 L 145.0,167.0 L 144.0,162.0 L 146.0,160.0" fill="#0C0C0C"/>
	<path d="M 122.0,160.0 L 127.0,161.0 L 128.0,166.0 L 126.0,168.0 L 121.0,167.0 L 120.0,162.0 L 122.0,160.0" fill="#0C0C0C"/>
	<path d="M 98.0,160.0 L 103.0,161.0 L 104.0,166.0 L 102.0,168.0 L 97.0,167.0 L 96.0,162.0 L 98.0,160.0" fill="#0C0C0C"/>
	<path d="M 74.0,160.0 L 79.0,161.0 L 80.0,166.0 L 78.0,168.0 L 73.0,167.0 L 72.0,162.0 L 74.0,160.0" fill="#0C0C0C"/>
	<path d="M 50.0,160.0 L 55.0,161.0 L 56.0,166.0 L 54.0,168.0 L 49.0,167.0 L 48.0,162.0 L 50.0,160.0" fill="#0C0C0C"/>
	<path d="M 26.0,160.0 L 31.0,161.0 L 32.0,166.0 L 30.0,168.0 L 25.0,167.0 L 24.0,162.0 L 26.0,160.0" fill="#0C0C0C"/>
	<path d="M 182.0,124.0 L 187.0,125.0 L 188.0,130.0 L 186.0,132.0 L 181.0,131.0 L 180.0,126.0 L 182.0,124.0" fill="#0C0C0C"/>
	<path d="M 158.0,124.0 L 163.0,125.0 L 164.0,130.0 L 162.0,132.0 L 157.0,131.0 L 156.0,126.0 L 158.0,124.0" fill="#0C0C0C"/>
	<path d="M 134.0,124.0 L 139.0,125.0 L 140.0,130.0 L 138.0,132.0 L 133.0,131.0 L 132.0,126.0 L 134.0,124.0" fill="#0C0C0C"/>
	<path d="M 110.0,124.0 L 115.0,125.0 L 116.0,130.0 L 114.0,132.0 L 109.0,131.0 L 108.0,126.0 L 110.0,124.0" fill="#0C0C0C"/>
	<path d="M 86.0,124.0 L 91.0,125.0 L 92.0,130.0 L 90.0,132.0 L 85.0,131.0 L 84.0,126.0 L 86.0,124.0" fill="#0C0C0C"/>
	<path d="M 62.0,124.0 L 67.0,125.0 L 68.0,130.0 L 66.0,132.0 L 61.0,131.0 L 60.0,126.0 L 62.0,124.0" fill="#0C0C0C"/>
	<path d="M 38.0,124.0 L 43.0,125.0 L 44.0,130.0 L 42.0,132.0 L 37.0,131.0 L 36.0,126.0 L 38.0,124.0" fill="#0C0C0C"/>
	<path d="M 14.0,124.0 L 19.0,125.0 L 20.0,130.0 L 18.0,132.0 L 13.0,131.0 L 12.0,126.0 L 14.0,124.0" fill="#0C0C0C"/>
	<path d="M 170.0,112.0 L 175.0,113.0 L 176.0,118.0 L 174.0,120.0 L 169.0,119.0 L 168.0,114.0 L 170.0,112.0" fill="#0C0C0C"/>
	<path d="M 146.0,112.0 L 151.0,113.0 L 152.0,118.0 L 150.0,120.0 L 145.0,119.0 L 144.0,114.0 L 146.0,112.0" fill="#0C0C0C"/>
	<path d="M 122.0,112.0 L 127.0,113.0 L 128.0,118.0 L 126.0,120.0 L 121.0,119.0 L 120.0,114.0 L 122.0,112.0" fill="#0C0C0C"/>
	<path d="M 98.0,112.0 L 103.0,113.0 L 104.0,118.0 L 102.0,120.0 L 97.0,119.0 L 96.0,114.0 L 98.0,112.0" fill="#0C0C0C"/>
	<path d="M 74.0,112.0 L 79.0,113.0 L 80.0,118.0 L 78.0,120.0 L 73.0,119.0 L 72.0,114.0 L 74.0,112.0" fill="#0C0C0C"/>
	<path d="M 50.0,112.0 L 55.0,113.0 L 56.0,118.0 L 54.0,120.0 L 49.0,119.0 L 48.0,114.0 L 50.0,112.0" fill="#0C0C0C"/>
	<path d="M 26.0,112.0 L 31.0,113.0 L 32.0,118.0 L 30.0,120.0 L 25.0,119.0 L 24.0,114.0 L 26.0,112.0" fill="#0C0C0C"/>
	<path d="M 134.0,100.0 L 139.0,101.0 L 140.0,106.0 L 138.0,108.0 L 133.0,107.0 L 132.0,102.0 L 134.0,100.0" fill="#0C0C0C"/>
	<path d="M 110.0,100.0 L 115.0,101.0 L 116.0,106.0 L 114.0,108.0 L 109.0,107.0 L 108.0,102.0 L 110.0,100.0" fill="#0C0C0C"/>
	<path d="M 86.0,100.0 L 91.0,101.0 L 92.0,106.0 L 90.0,108.0 L 85.0,107.0 L 84.0,102.0 L 86.0,100.0" fill="#0C0C0C"/>
	<path d="M 62.0,100.0 L 67.0,101.0 L 68.0,106.0 L 66.0,108.0 L 61.0,107.0 L 60.0,102.0 L 62.0,100.0" fill="#0C0C0C"/>
</svg>
