<?xml version="1.0" ?>
<svg baseProfile="full" height="600px" version="1.1" viewBox="-19.296000000000003 -19.296000000000003 230.592 230.592" width="600px" xmlns="http://www.w3.org/2000/svg" xmlns:ev="http://www.w3.org/2001/xml-events" xmlns:xlink="http://www.w3.org/1999/xlink">
	<defs/>
	<path d="M 0.0,0.0 L 192.0,0.0 L 192.0,192.0 L 0.0,192.0 L 0.0,0.0" fill="#FDFDFD"/>
	<path d="M 137.0,36.0 L 159.0,36.0 L 167.0,40.0 L 172.0,45.0 L 175.0,50.0 L 176.0,54.0 L 176.0,63.0 L 172.0,71.0 L 167.0,76.0 L 159.0,80.0 L 146.0,81.0 L 138.0,88.0 L 72.0,154.0 L 64.0,158.0 L 57.0,160.0 L 32.0,160.0 L 22.0,154.0 L 17.0,146.0 L 16.0,143.0 L 16.0,132.0 L 22.0,122.0 L 32.0,116.0 L 46.0,115.0 L 54.0,108.0 L 70.0,93.0 L 71.0,57.0 L 75.0,52.0 L 78.0,50.0 L 87.0,50.0 L 93.0,55.0 L 95.0,59.0 L 95.0,69.0 L 105.0,60.0 L 114.0,51.0 L 122.0,44.0 L 131.0,38.0 L 137.0,36.0" fill="#B8DBF8"/>
	<path d="M 137.0,36.0 L 159.0,36.0 L 167.0,40.0 L 172.0,45.0 L 175.0,50.0 L 176.0,54.0 L 176.0,63.0 L 172.0,71.0 L 167.0,76.0 L 159.0,80.0 L 146.0,81.0 L 138.0,88.0 L 72.0,154.0 L 64.0,158.0 L 57.0,160.0 L 32.0,160.0 L 22.0,154.0 L 17.0,146.0 L 16.0,143.0 L 16.0,132.0 L 22.0,122.0 L 32.0,116.0 L 46.0,115.0 L 54.0,108.0 L 70.0,93.0 L 71.0,57.0 L 75.0,52.0 L 78.0,50.0 L 87.0,50.0 L 93.0,55.0 L 95.0,59.0 L 95.0,69.0 L 105.0,60.0 L 114.0,51.0 L 122.0,44.0 L 131.0,38.0 L 137.0,36.0 M 138.0,44.0 L 128.0,49.0 L 116.0,61.0 L 108.0,68.0 L 99.0,77.0 L 91.0,84.0 L 79.0,96.0 L 71.0,103.0 L 63.0,111.0 L 55.0,118.0 L 50.0,122.0 L 47.0,123.0 L 34.0,124.0 L 28.0,128.0 L 24.0,134.0 L 24.0,142.0 L 28.0,148.0 L 34.0,152.0 L 56.0,152.0 L 64.0,149.0 L 70.0,145.0 L 140.0,75.0 L 144.0,73.0 L 158.0,72.0 L 164.0,68.0 L 168.0,62.0 L 168.0,54.0 L 164.0,48.0 L 158.0,44.0 L 138.0,44.0" fill="#485D67"/>
	<path d="M 90.0,85.0 L 91.0,89.0 L 88.0,116.0 L 86.0,129.0 L 68.0,147.0 L 60.0,151.0 L 56.0,152.0 L 34.0,152.0 L 28.0,148.0 L 24.0,142.0 L 24.0,134.0 L 28.0,128.0 L 34.0,124.0 L 47.0,123.0 L 53.0,120.0 L 61.0,112.0 L 69.0,105.0 L 77.0,97.0 L 85.0,90.0 L 90.0,85.0" fill="#B8DBF8"/>
	<path d="M 131.0,106.0 L 158.0,106.0 L 158.0,133.0 L 151.0,127.0 L 147.0,126.0 L 123.0,150.0 L 116.0,144.0 L 115.0,140.0 L 139.0,116.0 L 133.0,109.0 L 131.0,106.0" fill="#FF5925"/>
	<path d="M 138.0,44.0 L 158.0,44.0 L 164.0,48.0 L 168.0,54.0 L 168.0,62.0 L 164.0,68.0 L 158.0,72.0 L 144.0,73.0 L 140.0,74.0 L 140.0,45.0 L 138.0,44.0" fill="#B8DBF7"/>
	<path d="M 78.0,50.0 L 87.0,50.0 L 93.0,55.0 L 95.0,59.0 L 95.0,71.0 L 85.0,80.0 L 78.0,87.0 L 71.0,92.0 L 71.0,57.0 L 75.0,52.0 L 78.0,50.0" fill="#617D8B"/>
	<path d="M 90.0,85.0 L 91.0,89.0 L 88.0,116.0 L 86.0,129.0 L 81.0,134.0 L 76.0,133.0 L 74.0,131.0 L 74.0,100.0 L 87.0,88.0 L 90.0,85.0" fill="#44A5F3"/>
	<path d="M 79.0,22.0 L 86.0,22.0 L 92.0,26.0 L 95.0,31.0 L 94.0,40.0 L 89.0,45.0 L 86.0,46.0 L 78.0,46.0 L 72.0,41.0 L 71.0,38.0 L 71.0,29.0 L 75.0,24.0 L 79.0,22.0" fill="#FFB851"/>
	<path d="M 138.0,44.0 L 148.0,44.0 L 148.0,72.0 L 140.0,74.0 L 140.0,45.0 L 138.0,44.0" fill="#8EC8F6"/>
	<path d="M 50.0,122.0 L 52.0,122.0 L 52.0,152.0 L 44.0,152.0 L 44.0,124.0 L 50.0,122.0" fill="#8FC8F8"/>
	<path d="M 140.0,45.0 L 146.0,45.0 L 144.0,49.0 L 140.0,52.0 L 140.0,45.0" fill="#8FC9F8"/>
</svg>
