<?xml version="1.0" ?>
<svg baseProfile="full" height="600px" version="1.1" viewBox="-19.296000000000003 -19.296000000000003 230.592 230.592" width="600px" xmlns="http://www.w3.org/2000/svg" xmlns:ev="http://www.w3.org/2001/xml-events" xmlns:xlink="http://www.w3.org/1999/xlink">
	<defs/>
	<path d="M 0.0,0.0 L 192.0,0.0 L 192.0,192.0 L 0.0,192.0 L 0.0,0.0" fill="#FDFDFD"/>
	<path d="M 137.0,36.0 L 159.0,36.0 L 167.0,40.0 L 172.0,45.0 L 175.0,50.0 L 176.0,54.0 L 176.0,63.0 L 172.0,71.0 L 167.0,76.0 L 159.0,80.0 L 146.0,81.0 L 138.0,88.0 L 72.0,154.0 L 64.0,158.0 L 57.0,160.0 L 32.0,160.0 L 22.0,154.0 L 17.0,146.0 L 16.0,143.0 L 16.0,132.0 L 22.0,122.0 L 32.0,116.0 L 46.0,115.0 L 54.0,108.0 L 71.0,92.0 L 78.0,85.0 L 83.0,81.0 L 84.0,47.0 L 88.0,41.0 L 92.0,38.0 L 101.0,38.0 L 107.0,43.0 L 108.0,45.0 L 109.0,56.0 L 124.0,42.0 L 134.0,37.0 L 137.0,36.0" fill="#B8DBF8"/>
	<path d="M 137.0,36.0 L 159.0,36.0 L 167.0,40.0 L 172.0,45.0 L 175.0,50.0 L 176.0,54.0 L 176.0,63.0 L 172.0,71.0 L 167.0,76.0 L 159.0,80.0 L 146.0,81.0 L 138.0,88.0 L 72.0,154.0 L 64.0,158.0 L 57.0,160.0 L 32.0,160.0 L 22.0,154.0 L 17.0,146.0 L 16.0,143.0 L 16.0,132.0 L 22.0,122.0 L 32.0,116.0 L 46.0,115.0 L 54.0,108.0 L 71.0,92.0 L 78.0,85.0 L 83.0,81.0 L 84.0,47.0 L 88.0,41.0 L 92.0,38.0 L 101.0,38.0 L 107.0,43.0 L 108.0,45.0 L 109.0,56.0 L 124.0,42.0 L 134.0,37.0 L 137.0,36.0 M 138.0,44.0 L 128.0,49.0 L 116.0,61.0 L 108.0,68.0 L 97.0,79.0 L 89.0,86.0 L 80.0,95.0 L 72.0,102.0 L 63.0,111.0 L 55.0,118.0 L 50.0,122.0 L 47.0,123.0 L 34.0,124.0 L 28.0,128.0 L 24.0,134.0 L 24.0,142.0 L 28.0,148.0 L 34.0,152.0 L 56.0,152.0 L 64.0,149.0 L 70.0,145.0 L 140.0,75.0 L 144.0,73.0 L 158.0,72.0 L 164.0,68.0 L 168.0,62.0 L 168.0,54.0 L 164.0,48.0 L 158.0,44.0 L 138.0,44.0" fill="#485D67"/>
	<path d="M 87.0,88.0 L 88.0,88.0 L 89.0,119.0 L 92.0,123.0 L 68.0,147.0 L 60.0,151.0 L 56.0,152.0 L 34.0,152.0 L 28.0,148.0 L 24.0,142.0 L 24.0,134.0 L 28.0,128.0 L 34.0,124.0 L 47.0,123.0 L 53.0,120.0 L 61.0,112.0 L 69.0,105.0 L 78.0,96.0 L 86.0,89.0 L 87.0,88.0" fill="#B7DBF8"/>
	<path d="M 92.0,38.0 L 101.0,38.0 L 107.0,43.0 L 108.0,45.0 L 108.0,59.0 L 100.0,66.0 L 88.0,77.0 L 84.0,80.0 L 84.0,47.0 L 88.0,41.0 L 92.0,38.0" fill="#647F8D"/>
	<path d="M 135.0,102.0 L 162.0,102.0 L 162.0,129.0 L 155.0,123.0 L 151.0,122.0 L 136.0,137.0 L 132.0,135.0 L 127.0,130.0 L 129.0,126.0 L 143.0,112.0 L 137.0,105.0 L 135.0,102.0" fill="#FF8D69"/>
	<path d="M 104.0,72.0 L 105.0,72.0 L 104.0,82.0 L 100.0,115.0 L 93.0,122.0 L 89.0,120.0 L 88.0,119.0 L 88.0,87.0 L 95.0,80.0 L 103.0,73.0 L 104.0,72.0" fill="#44A5F3"/>
	<path d="M 94.0,10.0 L 102.0,11.0 L 107.0,16.0 L 108.0,17.0 L 108.0,27.0 L 103.0,33.0 L 100.0,34.0 L 92.0,34.0 L 86.0,29.0 L 84.0,25.0 L 84.0,19.0 L 88.0,13.0 L 94.0,10.0" fill="#FFB850"/>
	<path d="M 138.0,44.0 L 148.0,44.0 L 148.0,72.0 L 140.0,74.0 L 140.0,45.0 L 138.0,44.0" fill="#8EC8F6"/>
	<path d="M 50.0,122.0 L 52.0,122.0 L 52.0,152.0 L 44.0,152.0 L 44.0,124.0 L 50.0,122.0" fill="#8FC8F8"/>
	<path d="M 140.0,45.0 L 146.0,45.0 L 144.0,49.0 L 140.0,52.0 L 140.0,45.0" fill="#8FC9F8"/>
</svg>
