<?xml version="1.0" ?>
<svg baseProfile="full" height="600px" version="1.1" viewBox="-19.296000000000003 -19.296000000000003 230.592 230.592" width="600px" xmlns="http://www.w3.org/2000/svg" xmlns:ev="http://www.w3.org/2001/xml-events" xmlns:xlink="http://www.w3.org/1999/xlink">
	<defs/>
	<path d="M 0.0,0.0 L 192.0,0.0 L 192.0,192.0 L 0.0,192.0 L 0.0,0.0" fill="#CED7DB"/>
	<path d="M 0.0,0.0 L 192.0,0.0 L 192.0,192.0 L 0.0,192.0 L 0.0,0.0 M 31.0,28.0 L 25.0,32.0 L 21.0,37.0 L 20.0,39.0 L 20.0,161.0 L 24.0,167.0 L 29.0,171.0 L 31.0,172.0 L 159.0,172.0 L 166.0,169.0 L 171.0,163.0 L 172.0,160.0 L 172.0,39.0 L 168.0,33.0 L 163.0,29.0 L 161.0,28.0 L 140.0,28.0 L 139.0,47.0 L 135.0,51.0 L 129.0,51.0 L 125.0,47.0 L 124.0,28.0 L 68.0,28.0 L 67.0,47.0 L 63.0,51.0 L 57.0,51.0 L 53.0,47.0 L 52.0,28.0 L 31.0,28.0" fill="#FDFDFD"/>
	<path d="M 31.0,28.0 L 52.0,28.0 L 53.0,47.0 L 57.0,51.0 L 63.0,51.0 L 67.0,47.0 L 68.0,28.0 L 124.0,28.0 L 125.0,47.0 L 129.0,51.0 L 135.0,51.0 L 139.0,47.0 L 140.0,28.0 L 161.0,28.0 L 167.0,32.0 L 171.0,37.0 L 172.0,39.0 L 172.0,68.0 L 20.0,68.0 L 20.0,39.0 L 24.0,33.0 L 29.0,29.0 L 31.0,28.0" fill="#F24336"/>
	<path d="M 129.0,16.0 L 135.0,16.0 L 140.0,21.0 L 140.0,47.0 L 135.0,52.0 L 129.0,52.0 L 124.0,47.0 L 124.0,21.0 L 129.0,16.0" fill="#B1BCC3"/>
	<path d="M 57.0,16.0 L 63.0,16.0 L 68.0,21.0 L 68.0,47.0 L 63.0,52.0 L 57.0,52.0 L 52.0,47.0 L 52.0,21.0 L 57.0,16.0" fill="#B1BCC3"/>
	<path d="M 124.0,132.0 L 140.0,132.0 L 140.0,148.0 L 124.0,148.0 L 124.0,132.0" fill="#90A4AE"/>
	<path d="M 100.0,132.0 L 116.0,132.0 L 116.0,148.0 L 100.0,148.0 L 100.0,132.0" fill="#90A4AE"/>
	<path d="M 76.0,132.0 L 92.0,132.0 L 92.0,148.0 L 76.0,148.0 L 76.0,132.0" fill="#90A4AE"/>
	<path d="M 52.0,132.0 L 68.0,132.0 L 68.0,148.0 L 52.0,148.0 L 52.0,132.0" fill="#90A4AE"/>
	<path d="M 124.0,108.0 L 140.0,108.0 L 140.0,124.0 L 124.0,124.0 L 124.0,108.0" fill="#90A4AE"/>
	<path d="M 100.0,108.0 L 116.0,108.0 L 116.0,124.0 L 100.0,124.0 L 100.0,108.0" fill="#90A4AE"/>
	<path d="M 76.0,108.0 L 92.0,108.0 L 92.0,124.0 L 76.0,124.0 L 76.0,108.0" fill="#90A4AE"/>
	<path d="M 52.0,108.0 L 68.0,108.0 L 68.0,124.0 L 52.0,124.0 L 52.0,108.0" fill="#90A4AE"/>
	<path d="M 124.0,84.0 L 140.0,84.0 L 140.0,100.0 L 124.0,100.0 L 124.0,84.0" fill="#90A4AE"/>
	<path d="M 100.0,84.0 L 116.0,84.0 L 116.0,100.0 L 100.0,100.0 L 100.0,84.0" fill="#90A4AE"/>
	<path d="M 76.0,84.0 L 92.0,84.0 L 92.0,100.0 L 76.0,100.0 L 76.0,84.0" fill="#90A4AE"/>
	<path d="M 52.0,84.0 L 68.0,84.0 L 68.0,100.0 L 52.0,100.0 L 52.0,84.0" fill="#90A4AE"/>
	<path d="M 123.0,35.0 L 124.0,35.0 L 125.0,47.0 L 129.0,51.0 L 135.0,51.0 L 139.0,47.0 L 140.0,35.0 L 143.0,38.0 L 144.0,41.0 L 144.0,48.0 L 141.0,53.0 L 135.0,56.0 L 128.0,56.0 L 121.0,50.0 L 120.0,47.0 L 120.0,40.0 L 123.0,35.0" fill="#BA1F1E"/>
	<path d="M 51.0,35.0 L 52.0,35.0 L 53.0,47.0 L 57.0,51.0 L 63.0,51.0 L 67.0,47.0 L 68.0,35.0 L 71.0,38.0 L 72.0,41.0 L 72.0,48.0 L 69.0,53.0 L 63.0,56.0 L 56.0,56.0 L 49.0,50.0 L 48.0,47.0 L 48.0,40.0 L 51.0,35.0" fill="#BA1F1E"/>
</svg>
