<?xml version="1.0" ?>
<svg baseProfile="full" height="600px" version="1.1" viewBox="-12.864 -12.864 153.728 153.728" width="600px" xmlns="http://www.w3.org/2000/svg" xmlns:ev="http://www.w3.org/2001/xml-events" xmlns:xlink="http://www.w3.org/1999/xlink">
	<defs/>
	<path d="M 0.0,0.0 L 128.0,0.0 L 128.0,128.0 L 0.0,128.0 L 0.0,0.0" fill="#FCFCFC"/>
	<path d="M 74.0,69.0 L 76.0,69.0 L 83.0,77.0 L 103.0,97.0 L 104.0,76.0 L 112.0,76.0 L 112.0,112.0 L 76.0,112.0 L 76.0,104.0 L 97.0,103.0 L 69.0,75.0 L 74.0,69.0" fill="#020202"/>
	<path d="M 53.0,69.0 L 58.0,73.0 L 57.0,77.0 L 31.0,103.0 L 52.0,104.0 L 52.0,112.0 L 16.0,112.0 L 16.0,76.0 L 24.0,76.0 L 25.0,97.0 L 53.0,69.0" fill="#010101"/>
	<path d="M 76.0,16.0 L 112.0,16.0 L 112.0,52.0 L 104.0,52.0 L 103.0,31.0 L 76.0,58.0 L 72.0,57.0 L 69.0,53.0 L 97.0,25.0 L 76.0,24.0 L 76.0,16.0" fill="#010101"/>
	<path d="M 16.0,16.0 L 52.0,16.0 L 52.0,24.0 L 31.0,25.0 L 58.0,52.0 L 57.0,56.0 L 55.0,58.0 L 51.0,57.0 L 25.0,31.0 L 24.0,52.0 L 16.0,52.0 L 16.0,16.0" fill="#010101"/>
</svg>
