<?xml version="1.0" ?>
<svg baseProfile="full" height="600px" version="1.1" viewBox="-12.864 -12.864 153.728 153.728" width="600px" xmlns="http://www.w3.org/2000/svg" xmlns:ev="http://www.w3.org/2001/xml-events" xmlns:xlink="http://www.w3.org/1999/xlink">
	<defs/>
	<path d="M 0.0,0.0 L 128.0,0.0 L 128.0,128.0 L 0.0,128.0 L 0.0,0.0" fill="#FDFDFD"/>
	<path d="M 63.0,20.0 L 67.0,22.0 L 76.0,31.0 L 83.0,39.0 L 94.0,50.0 L 101.0,58.0 L 113.0,70.0 L 118.0,77.0 L 113.0,81.0 L 109.0,79.0 L 99.0,69.0 L 92.0,61.0 L 80.0,49.0 L 73.0,41.0 L 65.0,33.0 L 61.0,35.0 L 49.0,47.0 L 42.0,55.0 L 30.0,67.0 L 23.0,75.0 L 17.0,81.0 L 13.0,80.0 L 10.0,76.0 L 24.0,61.0 L 33.0,52.0 L 40.0,44.0 L 50.0,34.0 L 57.0,26.0 L 63.0,20.0" fill="#080808"/>
</svg>
