<?xml version="1.0" ?>
<svg baseProfile="full" height="600px" version="1.1" viewBox="-20.1 -20.1 240.2 240.2" width="600px" xmlns="http://www.w3.org/2000/svg" xmlns:ev="http://www.w3.org/2001/xml-events" xmlns:xlink="http://www.w3.org/1999/xlink">
	<defs/>
	<path d="M 0.0,0.0 L 200.0,0.0 L 200.0,200.0 L 0.0,200.0 L 0.0,0.0" fill="#FDFDFD"/>
	<path d="M 114.0,112.0 L 119.0,113.0 L 167.0,161.0 L 168.0,126.0 L 170.0,124.0 L 175.0,125.0 L 176.0,126.0 L 176.0,176.0 L 126.0,176.0 L 124.0,174.0 L 125.0,169.0 L 126.0,168.0 L 161.0,167.0 L 112.0,118.0 L 113.0,113.0 L 114.0,112.0" fill="#020202"/>
	<path d="M 82.0,112.0 L 87.0,113.0 L 88.0,118.0 L 39.0,167.0 L 74.0,168.0 L 76.0,170.0 L 75.0,175.0 L 74.0,176.0 L 24.0,176.0 L 24.0,126.0 L 26.0,124.0 L 31.0,125.0 L 32.0,126.0 L 33.0,161.0 L 82.0,112.0" fill="#010101"/>
	<path d="M 126.0,24.0 L 176.0,24.0 L 176.0,74.0 L 174.0,76.0 L 169.0,75.0 L 168.0,74.0 L 167.0,39.0 L 118.0,88.0 L 113.0,87.0 L 112.0,82.0 L 161.0,33.0 L 126.0,32.0 L 124.0,30.0 L 125.0,25.0 L 126.0,24.0" fill="#010101"/>
	<path d="M 24.0,24.0 L 74.0,24.0 L 76.0,26.0 L 75.0,31.0 L 74.0,32.0 L 39.0,33.0 L 88.0,82.0 L 87.0,87.0 L 82.0,88.0 L 33.0,39.0 L 32.0,74.0 L 30.0,76.0 L 25.0,75.0 L 24.0,74.0 L 24.0,24.0" fill="#020202"/>
</svg>
