<?xml version="1.0" ?>
<svg baseProfile="full" height="600px" version="1.1" viewBox="-12.06 -12.06 144.12 144.12" width="600px" xmlns="http://www.w3.org/2000/svg" xmlns:ev="http://www.w3.org/2001/xml-events" xmlns:xlink="http://www.w3.org/1999/xlink">
	<defs/>
	<path d="M 0.0,0.0 L 120.0,0.0 L 120.0,120.0 L 0.0,120.0 L 0.0,0.0" fill="#FCFCFC"/>
	<path d="M 22.0,72.0 L 27.0,72.0 L 38.0,81.0 L 46.0,90.0 L 48.0,93.0 L 48.0,98.0 L 47.0,99.0 L 42.0,99.0 L 36.0,92.0 L 32.0,94.0 L 22.0,104.0 L 17.0,103.0 L 16.0,98.0 L 28.0,86.0 L 27.0,83.0 L 20.0,77.0 L 21.0,73.0 L 22.0,72.0" fill="#050505"/>
	<path d="M 98.0,16.0 L 103.0,17.0 L 104.0,22.0 L 92.0,34.0 L 93.0,37.0 L 99.0,42.0 L 99.0,47.0 L 98.0,48.0 L 93.0,48.0 L 82.0,39.0 L 72.0,27.0 L 72.0,22.0 L 74.0,20.0 L 78.0,21.0 L 84.0,28.0 L 88.0,26.0 L 98.0,16.0" fill="#060606"/>
	<path d="M 18.0,16.0 L 23.0,17.0 L 34.0,28.0 L 37.0,27.0 L 43.0,20.0 L 47.0,21.0 L 48.0,22.0 L 48.0,27.0 L 39.0,38.0 L 30.0,46.0 L 27.0,48.0 L 22.0,48.0 L 21.0,47.0 L 21.0,42.0 L 28.0,36.0 L 26.0,32.0 L 16.0,22.0 L 17.0,17.0 L 18.0,16.0" fill="#060606"/>
	<path d="M 93.0,72.0 L 98.0,72.0 L 99.0,73.0 L 99.0,78.0 L 92.0,84.0 L 94.0,88.0 L 104.0,98.0 L 103.0,103.0 L 98.0,104.0 L 86.0,92.0 L 83.0,93.0 L 77.0,100.0 L 73.0,99.0 L 72.0,98.0 L 72.0,93.0 L 83.0,80.0 L 93.0,72.0" fill="#050505"/>
</svg>
