<?xml version="1.0" ?>
<svg baseProfile="full" height="600px" version="1.1" viewBox="-20.1 -20.1 240.2 240.2" width="600px" xmlns="http://www.w3.org/2000/svg" xmlns:ev="http://www.w3.org/2001/xml-events" xmlns:xlink="http://www.w3.org/1999/xlink">
	<defs/>
	<path d="M 0.0,0.0 L 200.0,0.0 L 200.0,200.0 L 0.0,200.0 L 0.0,0.0" fill="#FDFDFD"/>
	<path d="M 30.0,119.0 L 35.0,119.0 L 43.0,129.0 L 54.0,145.0 L 67.0,155.0 L 79.0,164.0 L 81.0,166.0 L 80.0,171.0 L 75.0,172.0 L 58.0,159.0 L 51.0,155.0 L 32.0,174.0 L 27.0,174.0 L 26.0,173.0 L 26.0,168.0 L 45.0,149.0 L 41.0,142.0 L 29.0,125.0 L 29.0,120.0 L 30.0,119.0" fill="#070707"/>
	<path d="M 168.0,26.0 L 174.0,27.0 L 174.0,32.0 L 156.0,50.0 L 157.0,54.0 L 169.0,70.0 L 172.0,74.0 L 172.0,79.0 L 170.0,81.0 L 165.0,80.0 L 151.0,61.0 L 144.0,53.0 L 126.0,40.0 L 120.0,36.0 L 119.0,31.0 L 121.0,29.0 L 126.0,29.0 L 145.0,43.0 L 149.0,45.0 L 168.0,26.0" fill="#060606"/>
	<path d="M 28.0,26.0 L 33.0,27.0 L 51.0,45.0 L 55.0,43.0 L 74.0,30.0 L 79.0,29.0 L 81.0,31.0 L 80.0,36.0 L 64.0,48.0 L 53.0,56.0 L 43.0,70.0 L 36.0,80.0 L 31.0,81.0 L 29.0,79.0 L 29.0,74.0 L 43.0,55.0 L 45.0,51.0 L 26.0,32.0 L 27.0,27.0 L 28.0,26.0" fill="#060606"/>
	<path d="M 166.0,119.0 L 171.0,120.0 L 172.0,125.0 L 159.0,143.0 L 156.0,147.0 L 157.0,151.0 L 174.0,168.0 L 173.0,173.0 L 168.0,174.0 L 149.0,155.0 L 138.0,162.0 L 125.0,171.0 L 121.0,170.0 L 120.0,169.0 L 120.0,164.0 L 138.0,151.0 L 145.0,146.0 L 147.0,146.0 L 149.0,142.0 L 161.0,125.0 L 166.0,119.0" fill="#070707"/>
</svg>
