<?xml version="1.0" ?>
<svg baseProfile="full" height="600px" version="1.1" viewBox="-12.864 -12.864 153.728 153.728" width="600px" xmlns="http://www.w3.org/2000/svg" xmlns:ev="http://www.w3.org/2001/xml-events" xmlns:xlink="http://www.w3.org/1999/xlink">
	<defs/>
	<path d="M 0.0,0.0 L 128.0,0.0 L 128.0,128.0 L 0.0,128.0 L 0.0,0.0" fill="#FCFCFC"/>
	<path d="M 22.0,17.0 L 24.0,17.0 L 31.0,25.0 L 51.0,45.0 L 52.0,24.0 L 60.0,24.0 L 60.0,60.0 L 24.0,60.0 L 24.0,52.0 L 45.0,51.0 L 17.0,23.0 L 22.0,17.0" fill="#020202"/>
	<path d="M 24.0,68.0 L 60.0,68.0 L 60.0,104.0 L 52.0,104.0 L 51.0,83.0 L 24.0,110.0 L 20.0,109.0 L 17.0,105.0 L 45.0,77.0 L 24.0,76.0 L 24.0,68.0" fill="#010101"/>
	<path d="M 105.0,17.0 L 110.0,21.0 L 109.0,25.0 L 83.0,51.0 L 104.0,52.0 L 104.0,60.0 L 68.0,60.0 L 68.0,24.0 L 76.0,24.0 L 77.0,45.0 L 105.0,17.0" fill="#010101"/>
	<path d="M 68.0,68.0 L 104.0,68.0 L 104.0,76.0 L 83.0,77.0 L 110.0,104.0 L 109.0,108.0 L 107.0,110.0 L 103.0,109.0 L 77.0,83.0 L 76.0,104.0 L 68.0,104.0 L 68.0,68.0" fill="#010101"/>
</svg>
