<?xml version="1.0" ?>
<svg baseProfile="full" height="600px" version="1.1" viewBox="-9.648000000000001 -9.648000000000001 115.296 115.296" width="600px" xmlns="http://www.w3.org/2000/svg" xmlns:ev="http://www.w3.org/2001/xml-events" xmlns:xlink="http://www.w3.org/1999/xlink">
	<defs/>
	<path d="M 0.0,0.0 L 96.0,0.0 L 96.0,96.0 L 0.0,96.0 L 0.0,0.0" fill="#FCFCFC"/>
	<path d="M 17.0,12.0 L 24.0,18.0 L 34.0,28.0 L 41.0,22.0 L 44.0,20.0 L 44.0,44.0 L 20.0,44.0 L 26.0,37.0 L 28.0,34.0 L 12.0,18.0 L 17.0,12.0" fill="#050505"/>
	<path d="M 78.0,12.0 L 84.0,17.0 L 78.0,24.0 L 68.0,34.0 L 74.0,41.0 L 76.0,44.0 L 52.0,44.0 L 52.0,20.0 L 59.0,26.0 L 62.0,28.0 L 78.0,12.0" fill="#030303"/>
	<path d="M 20.0,52.0 L 44.0,52.0 L 44.0,76.0 L 37.0,70.0 L 34.0,68.0 L 18.0,84.0 L 12.0,79.0 L 18.0,72.0 L 28.0,62.0 L 29.0,60.0 L 25.0,58.0 L 20.0,52.0" fill="#050505"/>
	<path d="M 52.0,52.0 L 76.0,52.0 L 70.0,59.0 L 67.0,60.0 L 74.0,68.0 L 84.0,78.0 L 79.0,84.0 L 72.0,78.0 L 62.0,68.0 L 60.0,67.0 L 58.0,71.0 L 52.0,76.0 L 52.0,52.0" fill="#050505"/>
</svg>
