<?xml version="1.0" ?>
<svg baseProfile="full" height="600px" version="1.1" viewBox="-19.296000000000003 -19.296000000000003 230.592 230.592" width="600px" xmlns="http://www.w3.org/2000/svg" xmlns:ev="http://www.w3.org/2001/xml-events" xmlns:xlink="http://www.w3.org/1999/xlink">
	<defs/>
	<path d="M 0.0,0.0 L 192.0,0.0 L 192.0,192.0 L 0.0,192.0 L 0.0,0.0" fill="#FDFEFE"/>
	<path d="M 33.0,60.0 L 38.0,62.0 L 49.0,73.0 L 57.0,80.0 L 72.0,94.0 L 84.0,105.0 L 95.0,115.0 L 99.0,113.0 L 115.0,98.0 L 125.0,89.0 L 140.0,75.0 L 150.0,66.0 L 157.0,60.0 L 161.0,62.0 L 168.0,70.0 L 170.0,73.0 L 163.0,80.0 L 155.0,87.0 L 139.0,102.0 L 127.0,113.0 L 114.0,125.0 L 102.0,136.0 L 97.0,140.0 L 92.0,138.0 L 82.0,128.0 L 74.0,121.0 L 58.0,106.0 L 48.0,97.0 L 33.0,83.0 L 22.0,73.0 L 28.0,66.0 L 33.0,60.0" fill="#2497F3"/>
</svg>
