<?xml version="1.0" ?>
<svg baseProfile="full" height="600px" version="1.1" viewBox="-12.864 -12.864 153.728 153.728" width="600px" xmlns="http://www.w3.org/2000/svg" xmlns:ev="http://www.w3.org/2001/xml-events" xmlns:xlink="http://www.w3.org/1999/xlink">
	<defs/>
	<path d="M 0.0,0.0 L 128.0,0.0 L 128.0,128.0 L 0.0,128.0 L 0.0,0.0" fill="#FCFCFC"/>
	<path d="M 22.0,17.0 L 24.0,17.0 L 31.0,25.0 L 34.0,28.0 L 39.0,27.0 L 50.0,19.0 L 54.0,21.0 L 56.0,25.0 L 43.0,35.0 L 42.0,38.0 L 38.0,42.0 L 33.0,45.0 L 25.0,56.0 L 19.0,52.0 L 21.0,47.0 L 28.0,37.0 L 27.0,33.0 L 17.0,23.0 L 22.0,17.0" fill="#080808"/>
	<path d="M 103.0,72.0 L 109.0,76.0 L 107.0,81.0 L 100.0,91.0 L 101.0,95.0 L 110.0,104.0 L 109.0,108.0 L 107.0,110.0 L 103.0,109.0 L 94.0,100.0 L 89.0,101.0 L 78.0,109.0 L 74.0,107.0 L 72.0,103.0 L 85.0,93.0 L 90.0,86.0 L 95.0,83.0 L 102.0,73.0 L 103.0,72.0" fill="#070707"/>
	<path d="M 24.0,72.0 L 29.0,77.0 L 35.0,85.0 L 42.0,91.0 L 47.0,96.0 L 56.0,103.0 L 52.0,109.0 L 47.0,107.0 L 37.0,100.0 L 33.0,101.0 L 24.0,110.0 L 20.0,109.0 L 17.0,105.0 L 29.0,93.0 L 22.0,82.0 L 19.0,78.0 L 21.0,74.0 L 24.0,72.0" fill="#070707"/>
	<path d="M 105.0,17.0 L 110.0,21.0 L 109.0,25.0 L 100.0,34.0 L 101.0,39.0 L 109.0,50.0 L 107.0,54.0 L 103.0,56.0 L 96.0,47.0 L 91.0,42.0 L 83.0,33.0 L 72.0,25.0 L 76.0,19.0 L 81.0,21.0 L 92.0,29.0 L 99.0,23.0 L 105.0,17.0" fill="#070707"/>
</svg>
