<?xml version="1.0" ?>
<svg baseProfile="full" height="600px" version="1.1" viewBox="-20.1 -20.1 240.2 240.2" width="600px" xmlns="http://www.w3.org/2000/svg" xmlns:ev="http://www.w3.org/2001/xml-events" xmlns:xlink="http://www.w3.org/1999/xlink">
	<defs/>
	<path d="M 0.0,0.0 L 200.0,0.0 L 200.0,200.0 L 0.0,200.0 L 0.0,0.0" fill="#FDFDFD"/>
	<path d="M 97.0,43.0 L 103.0,43.0 L 118.0,63.0 L 132.0,81.0 L 144.0,97.0 L 157.0,114.0 L 173.0,135.0 L 175.0,138.0 L 174.0,143.0 L 169.0,144.0 L 160.0,133.0 L 145.0,113.0 L 131.0,95.0 L 122.0,83.0 L 106.0,62.0 L 101.0,55.0 L 99.0,55.0 L 85.0,74.0 L 75.0,87.0 L 59.0,108.0 L 45.0,127.0 L 35.0,140.0 L 32.0,144.0 L 27.0,144.0 L 26.0,143.0 L 26.0,137.0 L 40.0,119.0 L 49.0,107.0 L 65.0,86.0 L 79.0,67.0 L 92.0,50.0 L 97.0,43.0" fill="#080808"/>
</svg>
