<?xml version="1.0" ?>
<svg baseProfile="full" height="600px" version="1.1" viewBox="-9.648000000000001 -9.648000000000001 115.296 115.296" width="600px" xmlns="http://www.w3.org/2000/svg" xmlns:ev="http://www.w3.org/2001/xml-events" xmlns:xlink="http://www.w3.org/1999/xlink">
	<defs/>
	<path d="M 0.0,0.0 L 96.0,0.0 L 96.0,96.0 L 0.0,96.0 L 0.0,0.0" fill="#FCFCFC"/>
	<path d="M 60.0,12.0 L 84.0,12.0 L 84.0,36.0 L 77.0,30.0 L 74.0,28.0 L 61.0,41.0 L 55.0,36.0 L 61.0,29.0 L 68.0,22.0 L 62.0,15.0 L 60.0,12.0" fill="#030303"/>
	<path d="M 60.0,55.0 L 67.0,61.0 L 74.0,68.0 L 76.0,69.0 L 78.0,65.0 L 84.0,60.0 L 84.0,84.0 L 60.0,84.0 L 66.0,77.0 L 68.0,74.0 L 55.0,61.0 L 60.0,55.0" fill="#050505"/>
	<path d="M 35.0,55.0 L 41.0,60.0 L 35.0,67.0 L 28.0,74.0 L 34.0,81.0 L 36.0,84.0 L 12.0,84.0 L 12.0,60.0 L 19.0,66.0 L 20.0,69.0 L 28.0,62.0 L 35.0,55.0" fill="#040404"/>
	<path d="M 12.0,12.0 L 36.0,12.0 L 30.0,19.0 L 27.0,20.0 L 34.0,28.0 L 41.0,35.0 L 36.0,41.0 L 29.0,35.0 L 22.0,28.0 L 20.0,27.0 L 18.0,31.0 L 12.0,36.0 L 12.0,12.0" fill="#050505"/>
</svg>
