<?xml version="1.0" ?>
<svg baseProfile="full" height="600px" version="1.1" viewBox="-19.296000000000003 -19.296000000000003 230.592 230.592" width="600px" xmlns="http://www.w3.org/2000/svg" xmlns:ev="http://www.w3.org/2001/xml-events" xmlns:xlink="http://www.w3.org/1999/xlink">
	<defs/>
	<path d="M 0.0,0.0 L 192.0,0.0 L 192.0,192.0 L 0.0,192.0 L 0.0,0.0" fill="#FDFEFE"/>
	<path d="M 95.0,44.0 L 99.0,46.0 L 106.0,54.0 L 118.0,66.0 L 125.0,74.0 L 137.0,86.0 L 144.0,94.0 L 155.0,105.0 L 162.0,113.0 L 170.0,121.0 L 168.0,125.0 L 159.0,134.0 L 155.0,133.0 L 144.0,121.0 L 134.0,111.0 L 127.0,103.0 L 116.0,92.0 L 109.0,84.0 L 97.0,72.0 L 93.0,74.0 L 79.0,88.0 L 72.0,96.0 L 60.0,108.0 L 53.0,116.0 L 42.0,127.0 L 35.0,135.0 L 28.0,129.0 L 22.0,123.0 L 24.0,119.0 L 36.0,107.0 L 43.0,99.0 L 55.0,87.0 L 62.0,79.0 L 73.0,68.0 L 80.0,60.0 L 91.0,49.0 L 95.0,44.0" fill="#2497F3"/>
</svg>
