<?xml version="1.0" ?>
<svg baseProfile="full" height="600px" version="1.1" viewBox="-20.1 -20.1 240.2 240.2" width="600px" xmlns="http://www.w3.org/2000/svg" xmlns:ev="http://www.w3.org/2001/xml-events" xmlns:xlink="http://www.w3.org/1999/xlink">
	<defs/>
	<path d="M 0.0,0.0 L 200.0,0.0 L 200.0,200.0 L 0.0,200.0 L 0.0,0.0" fill="#FBFBFB"/>
	<path d="M 0.0,0.0 L 200.0,0.0 L 200.0,89.0 L 199.0,89.0 L 195.0,75.0 L 187.0,59.0 L 176.0,47.0 L 167.0,40.0 L 153.0,33.0 L 137.0,29.0 L 92.0,29.0 L 70.0,30.0 L 54.0,35.0 L 42.0,42.0 L 31.0,51.0 L 22.0,63.0 L 15.0,78.0 L 12.0,90.0 L 12.0,110.0 L 15.0,122.0 L 20.0,134.0 L 27.0,145.0 L 36.0,155.0 L 50.0,164.0 L 62.0,169.0 L 69.0,171.0 L 136.0,171.0 L 150.0,168.0 L 166.0,161.0 L 176.0,153.0 L 184.0,145.0 L 191.0,134.0 L 196.0,122.0 L 199.0,110.0 L 200.0,110.0 L 200.0,200.0 L 0.0,200.0 L 0.0,0.0" fill="#FDFDFD"/>
	<path d="M 92.0,28.0 L 137.0,28.0 L 153.0,32.0 L 169.0,40.0 L 181.0,51.0 L 188.0,59.0 L 196.0,75.0 L 200.0,89.0 L 200.0,110.0 L 196.0,125.0 L 188.0,141.0 L 177.0,153.0 L 169.0,160.0 L 153.0,168.0 L 143.0,171.0 L 136.0,172.0 L 69.0,172.0 L 54.0,167.0 L 43.0,161.0 L 33.0,153.0 L 25.0,144.0 L 17.0,130.0 L 13.0,120.0 L 11.0,110.0 L 11.0,90.0 L 15.0,75.0 L 23.0,60.0 L 32.0,49.0 L 45.0,39.0 L 59.0,32.0 L 70.0,29.0 L 92.0,28.0 M 71.0,37.0 L 56.0,42.0 L 46.0,48.0 L 36.0,57.0 L 30.0,64.0 L 22.0,80.0 L 19.0,91.0 L 19.0,109.0 L 23.0,124.0 L 30.0,137.0 L 39.0,147.0 L 47.0,154.0 L 63.0,162.0 L 70.0,164.0 L 95.0,164.0 L 108.0,160.0 L 119.0,154.0 L 130.0,145.0 L 138.0,134.0 L 143.0,124.0 L 147.0,110.0 L 147.0,94.0 L 144.0,79.0 L 137.0,65.0 L 126.0,53.0 L 119.0,47.0 L 105.0,40.0 L 93.0,37.0 L 71.0,37.0" fill="#080808"/>
	<path d="M 136.0,37.0 L 145.0,38.0 L 158.0,43.0 L 169.0,50.0 L 178.0,59.0 L 185.0,70.0 L 190.0,82.0 L 192.0,90.0 L 192.0,107.0 L 190.0,117.0 L 185.0,130.0 L 178.0,141.0 L 169.0,150.0 L 158.0,157.0 L 142.0,163.0 L 136.0,163.0 L 140.0,159.0 L 149.0,152.0 L 157.0,143.0 L 165.0,129.0 L 169.0,118.0 L 170.0,111.0 L 170.0,86.0 L 166.0,73.0 L 159.0,60.0 L 151.0,50.0 L 142.0,42.0 L 136.0,38.0 L 136.0,37.0" fill="#F8F8F8"/>
	<path d="M 89.0,57.0 L 97.0,58.0 L 97.0,68.0 L 105.0,75.0 L 108.0,81.0 L 108.0,90.0 L 100.0,89.0 L 98.0,79.0 L 92.0,75.0 L 82.0,74.0 L 77.0,77.0 L 75.0,81.0 L 75.0,88.0 L 79.0,93.0 L 95.0,102.0 L 102.0,110.0 L 103.0,112.0 L 103.0,123.0 L 98.0,131.0 L 93.0,135.0 L 87.0,137.0 L 78.0,137.0 L 77.0,144.0 L 69.0,143.0 L 69.0,135.0 L 61.0,129.0 L 57.0,122.0 L 56.0,120.0 L 56.0,109.0 L 62.0,109.0 L 64.0,110.0 L 66.0,121.0 L 71.0,126.0 L 77.0,128.0 L 87.0,128.0 L 92.0,124.0 L 93.0,121.0 L 93.0,114.0 L 88.0,108.0 L 72.0,99.0 L 66.0,92.0 L 65.0,90.0 L 65.0,81.0 L 68.0,74.0 L 73.0,69.0 L 81.0,65.0 L 88.0,65.0 L 89.0,57.0" fill="#080808"/>
	<path d="M 124.0,41.0 L 130.0,43.0 L 140.0,50.0 L 146.0,55.0 L 155.0,67.0 L 161.0,80.0 L 163.0,87.0 L 163.0,112.0 L 159.0,125.0 L 153.0,136.0 L 144.0,147.0 L 132.0,156.0 L 128.0,157.0 L 133.0,152.0 L 141.0,143.0 L 148.0,131.0 L 153.0,116.0 L 154.0,111.0 L 154.0,93.0 L 151.0,78.0 L 146.0,66.0 L 139.0,56.0 L 130.0,46.0 L 124.0,42.0 L 124.0,41.0" fill="#F2F2F2"/>
</svg>
