<?xml version="1.0" ?>
<svg baseProfile="full" height="600px" version="1.1" viewBox="-16.08 -16.08 192.16 192.16" width="600px" xmlns="http://www.w3.org/2000/svg" xmlns:ev="http://www.w3.org/2001/xml-events" xmlns:xlink="http://www.w3.org/1999/xlink">
	<defs/>
	<path d="M 0.0,0.0 L 160.0,0.0 L 160.0,160.0 L 0.0,160.0 L 0.0,0.0" fill="#9C804A"/>
	<path d="M 55.0,36.0 L 72.0,36.0 L 89.0,41.0 L 99.0,47.0 L 109.0,56.0 L 115.0,64.0 L 121.0,76.0 L 124.0,88.0 L 124.0,105.0 L 120.0,118.0 L 115.0,128.0 L 108.0,137.0 L 99.0,145.0 L 91.0,150.0 L 80.0,154.0 L 71.0,156.0 L 55.0,156.0 L 39.0,151.0 L 29.0,145.0 L 17.0,134.0 L 9.0,121.0 L 5.0,109.0 L 4.0,102.0 L 4.0,87.0 L 8.0,73.0 L 15.0,61.0 L 24.0,51.0 L 35.0,43.0 L 47.0,38.0 L 55.0,36.0" fill="#FDEBA1"/>
	<path d="M 55.0,36.0 L 72.0,36.0 L 89.0,41.0 L 99.0,47.0 L 109.0,56.0 L 115.0,64.0 L 121.0,76.0 L 124.0,88.0 L 124.0,105.0 L 120.0,118.0 L 115.0,128.0 L 108.0,137.0 L 99.0,145.0 L 91.0,150.0 L 80.0,154.0 L 71.0,156.0 L 55.0,156.0 L 39.0,151.0 L 29.0,145.0 L 17.0,134.0 L 9.0,121.0 L 5.0,109.0 L 4.0,102.0 L 4.0,87.0 L 8.0,73.0 L 15.0,61.0 L 24.0,51.0 L 35.0,43.0 L 47.0,38.0 L 55.0,36.0 M 55.0,48.0 L 43.0,52.0 L 33.0,59.0 L 28.0,64.0 L 22.0,72.0 L 18.0,81.0 L 16.0,91.0 L 16.0,104.0 L 19.0,115.0 L 26.0,126.0 L 35.0,135.0 L 45.0,141.0 L 56.0,144.0 L 73.0,144.0 L 85.0,140.0 L 99.0,130.0 L 106.0,120.0 L 110.0,111.0 L 112.0,103.0 L 112.0,88.0 L 109.0,79.0 L 105.0,70.0 L 96.0,60.0 L 87.0,53.0 L 77.0,49.0 L 72.0,48.0 L 55.0,48.0" fill="#F2CC83"/>
	<path d="M 159.0,74.0 L 160.0,74.0 L 160.0,160.0 L 74.0,160.0 L 77.0,158.0 L 90.0,154.0 L 102.0,147.0 L 112.0,138.0 L 119.0,130.0 L 127.0,123.0 L 135.0,114.0 L 143.0,107.0 L 151.0,96.0 L 156.0,85.0 L 159.0,74.0" fill="#FDFDFC"/>
	<path d="M 0.0,0.0 L 86.0,0.0 L 83.0,2.0 L 70.0,6.0 L 59.0,12.0 L 47.0,23.0 L 41.0,30.0 L 33.0,37.0 L 24.0,47.0 L 16.0,54.0 L 7.0,68.0 L 2.0,81.0 L 1.0,86.0 L 0.0,86.0 L 0.0,0.0" fill="#FDFDFC"/>
	<path d="M 71.0,20.0 L 88.0,20.0 L 105.0,25.0 L 115.0,31.0 L 125.0,40.0 L 133.0,51.0 L 137.0,61.0 L 140.0,72.0 L 140.0,89.0 L 135.0,105.0 L 129.0,115.0 L 124.0,121.0 L 123.0,119.0 L 127.0,106.0 L 127.0,87.0 L 123.0,73.0 L 117.0,61.0 L 109.0,51.0 L 99.0,43.0 L 87.0,37.0 L 78.0,34.0 L 71.0,33.0 L 54.0,33.0 L 41.0,37.0 L 39.0,36.0 L 46.0,30.0 L 60.0,23.0 L 71.0,20.0" fill="#F2CC83"/>
	<path d="M 87.0,4.0 L 104.0,4.0 L 121.0,9.0 L 131.0,15.0 L 141.0,24.0 L 149.0,35.0 L 153.0,45.0 L 156.0,56.0 L 156.0,73.0 L 151.0,89.0 L 144.0,101.0 L 139.0,105.0 L 142.0,95.0 L 143.0,90.0 L 143.0,70.0 L 140.0,58.0 L 132.0,43.0 L 121.0,31.0 L 110.0,24.0 L 97.0,19.0 L 87.0,17.0 L 70.0,17.0 L 57.0,21.0 L 55.0,20.0 L 62.0,14.0 L 76.0,7.0 L 87.0,4.0" fill="#F2CC83"/>
	<path d="M 60.0,56.0 L 67.0,56.0 L 67.0,64.0 L 76.0,65.0 L 80.0,67.0 L 80.0,78.0 L 74.0,76.0 L 72.0,75.0 L 59.0,75.0 L 56.0,77.0 L 56.0,82.0 L 61.0,86.0 L 77.0,94.0 L 83.0,101.0 L 84.0,103.0 L 84.0,110.0 L 81.0,116.0 L 75.0,121.0 L 67.0,123.0 L 67.0,132.0 L 60.0,132.0 L 60.0,123.0 L 52.0,123.0 L 44.0,120.0 L 44.0,108.0 L 55.0,112.0 L 68.0,112.0 L 72.0,109.0 L 71.0,104.0 L 51.0,93.0 L 46.0,88.0 L 44.0,85.0 L 44.0,76.0 L 47.0,70.0 L 53.0,65.0 L 60.0,64.0 L 60.0,56.0" fill="#997D47"/>
	<path d="M 0.0,103.0 L 1.0,103.0 L 3.0,113.0 L 8.0,126.0 L 17.0,139.0 L 26.0,147.0 L 36.0,153.0 L 46.0,157.0 L 56.0,159.0 L 56.0,160.0 L 0.0,160.0 L 0.0,103.0" fill="#FCFCFA"/>
	<path d="M 103.0,0.0 L 160.0,0.0 L 160.0,55.0 L 159.0,55.0 L 157.0,47.0 L 153.0,36.0 L 147.0,26.0 L 138.0,16.0 L 128.0,9.0 L 116.0,4.0 L 103.0,1.0 L 103.0,0.0" fill="#FCFCFA"/>
	<path d="M 143.0,96.0 L 145.0,96.0 L 144.0,101.0 L 139.0,105.0 L 141.0,97.0 L 143.0,96.0" fill="#E7C27C"/>
	<path d="M 127.0,112.0 L 129.0,112.0 L 128.0,116.0 L 123.0,121.0 L 125.0,113.0 L 127.0,112.0" fill="#EAC47D"/>
</svg>
