<?xml version="1.0" ?>
<svg baseProfile="full" height="600px" version="1.1" viewBox="-19.296000000000003 -19.296000000000003 230.592 230.592" width="600px" xmlns="http://www.w3.org/2000/svg" xmlns:ev="http://www.w3.org/2001/xml-events" xmlns:xlink="http://www.w3.org/1999/xlink">
	<defs/>
	<path d="M 0.0,0.0 L 192.0,0.0 L 192.0,192.0 L 0.0,192.0 L 0.0,0.0" fill="#FFFEFD"/>
	<path d="M 84.0,16.0 L 107.0,16.0 L 113.0,21.0 L 118.0,33.0 L 120.0,41.0 L 122.0,55.0 L 123.0,72.0 L 123.0,127.0 L 119.0,155.0 L 115.0,167.0 L 111.0,173.0 L 107.0,176.0 L 85.0,176.0 L 80.0,171.0 L 75.0,159.0 L 72.0,145.0 L 70.0,132.0 L 69.0,120.0 L 69.0,68.0 L 72.0,44.0 L 76.0,29.0 L 81.0,19.0 L 84.0,16.0" fill="#FFDC75"/>
	<path d="M 89.0,16.0 L 107.0,16.0 L 113.0,21.0 L 118.0,33.0 L 120.0,41.0 L 122.0,55.0 L 123.0,72.0 L 123.0,127.0 L 119.0,155.0 L 115.0,167.0 L 111.0,173.0 L 107.0,176.0 L 89.0,176.0 L 94.0,169.0 L 99.0,154.0 L 102.0,139.0 L 104.0,119.0 L 104.0,78.0 L 103.0,61.0 L 100.0,42.0 L 95.0,25.0 L 91.0,19.0 L 89.0,16.0" fill="#FFE081"/>
	<path d="M 84.0,16.0 L 89.0,16.0 L 95.0,23.0 L 99.0,34.0 L 103.0,54.0 L 104.0,61.0 L 105.0,78.0 L 105.0,119.0 L 103.0,139.0 L 99.0,157.0 L 95.0,169.0 L 89.0,176.0 L 83.0,175.0 L 79.0,170.0 L 73.0,152.0 L 70.0,132.0 L 69.0,120.0 L 69.0,68.0 L 72.0,44.0 L 76.0,29.0 L 81.0,19.0 L 84.0,16.0 M 85.0,32.0 L 80.0,38.0 L 75.0,54.0 L 73.0,66.0 L 73.0,96.0 L 76.0,96.0 L 75.0,104.0 L 73.0,97.0 L 72.0,97.0 L 72.0,110.0 L 73.0,125.0 L 77.0,147.0 L 82.0,157.0 L 85.0,160.0 L 90.0,159.0 L 94.0,153.0 L 98.0,139.0 L 101.0,118.0 L 101.0,71.0 L 98.0,53.0 L 95.0,41.0 L 90.0,33.0 L 85.0,32.0" fill="#FFC30E"/>
	<path d="M 86.0,66.0 L 87.0,66.0 L 88.0,73.0 L 90.0,77.0 L 90.0,88.0 L 88.0,88.0 L 87.0,81.0 L 86.0,81.0 L 86.0,89.0 L 90.0,98.0 L 90.0,116.0 L 88.0,120.0 L 87.0,127.0 L 86.0,127.0 L 85.0,120.0 L 83.0,116.0 L 83.0,105.0 L 85.0,105.0 L 86.0,112.0 L 87.0,112.0 L 87.0,102.0 L 83.0,92.0 L 83.0,77.0 L 85.0,73.0 L 86.0,66.0" fill="#FFC311"/>
	<path d="M 77.0,128.0 L 79.0,128.0 L 79.0,138.0 L 82.0,138.0 L 82.0,147.0 L 79.0,145.0 L 78.0,149.0 L 75.0,137.0 L 76.0,130.0 L 77.0,128.0" fill="#FFD556"/>
	<path d="M 85.0,40.0 L 88.0,40.0 L 88.0,49.0 L 85.0,49.0 L 84.0,52.0 L 82.0,52.0 L 82.0,43.0 L 85.0,40.0" fill="#FFCC31"/>
	<path d="M 72.0,79.0 L 73.0,79.0 L 73.0,96.0 L 76.0,96.0 L 76.0,104.0 L 74.0,105.0 L 73.0,98.0 L 72.0,97.0 L 72.0,79.0" fill="#FFCF3F"/>
	<path d="M 77.0,128.0 L 79.0,128.0 L 79.0,137.0 L 75.0,137.0 L 76.0,130.0 L 77.0,128.0" fill="#FFD044"/>
	<path d="M 86.0,80.0 L 88.0,81.0 L 88.0,88.0 L 85.0,89.0 L 85.0,81.0 L 86.0,80.0" fill="#FFD965"/>
	<path d="M 79.0,50.0 L 81.0,52.0 L 80.0,60.0 L 78.0,58.0 L 78.0,52.0 L 79.0,50.0" fill="#FFC926"/>
	<path d="M 92.0,137.0 L 94.0,139.0 L 93.0,146.0 L 91.0,144.0 L 92.0,137.0" fill="#FFC823"/>
</svg>
