<?xml version="1.0" ?>
<svg baseProfile="full" height="600px" version="1.1" viewBox="-20.1 -20.1 240.2 240.2" width="600px" xmlns="http://www.w3.org/2000/svg" xmlns:ev="http://www.w3.org/2001/xml-events" xmlns:xlink="http://www.w3.org/1999/xlink">
	<defs/>
	<path d="M 0.0,0.0 L 200.0,0.0 L 200.0,200.0 L 0.0,200.0 L 0.0,0.0" fill="#FDFDFD"/>
	<path d="M 88.0,28.0 L 117.0,28.0 L 132.0,32.0 L 148.0,40.0 L 160.0,51.0 L 167.0,59.0 L 175.0,74.0 L 179.0,89.0 L 179.0,109.0 L 175.0,125.0 L 167.0,141.0 L 156.0,153.0 L 148.0,160.0 L 132.0,168.0 L 117.0,172.0 L 81.0,172.0 L 69.0,169.0 L 53.0,161.0 L 43.0,153.0 L 34.0,143.0 L 28.0,133.0 L 23.0,119.0 L 21.0,108.0 L 21.0,93.0 L 23.0,81.0 L 28.0,68.0 L 35.0,57.0 L 44.0,47.0 L 56.0,38.0 L 69.0,32.0 L 79.0,29.0 L 88.0,28.0" fill="#FBFBFB"/>
	<path d="M 88.0,28.0 L 117.0,28.0 L 132.0,32.0 L 148.0,40.0 L 160.0,51.0 L 167.0,59.0 L 175.0,74.0 L 179.0,89.0 L 179.0,109.0 L 175.0,125.0 L 167.0,141.0 L 156.0,153.0 L 148.0,160.0 L 132.0,168.0 L 117.0,172.0 L 81.0,172.0 L 69.0,169.0 L 53.0,161.0 L 43.0,153.0 L 34.0,143.0 L 28.0,133.0 L 23.0,119.0 L 21.0,108.0 L 21.0,93.0 L 23.0,81.0 L 28.0,68.0 L 35.0,57.0 L 44.0,47.0 L 56.0,38.0 L 69.0,32.0 L 79.0,29.0 L 88.0,28.0 M 82.0,37.0 L 70.0,40.0 L 57.0,47.0 L 45.0,57.0 L 36.0,70.0 L 31.0,82.0 L 29.0,94.0 L 29.0,107.0 L 32.0,121.0 L 36.0,131.0 L 43.0,141.0 L 48.0,147.0 L 60.0,156.0 L 73.0,162.0 L 82.0,164.0 L 104.0,164.0 L 120.0,159.0 L 130.0,153.0 L 140.0,144.0 L 146.0,137.0 L 154.0,121.0 L 156.0,114.0 L 157.0,106.0 L 157.0,91.0 L 153.0,77.0 L 146.0,64.0 L 137.0,54.0 L 129.0,47.0 L 115.0,40.0 L 104.0,37.0 L 82.0,37.0" fill="#060606"/>
	<path d="M 99.0,57.0 L 107.0,58.0 L 106.0,66.0 L 105.0,68.0 L 110.0,70.0 L 116.0,77.0 L 118.0,82.0 L 118.0,90.0 L 111.0,89.0 L 108.0,80.0 L 104.0,76.0 L 100.0,74.0 L 91.0,74.0 L 86.0,78.0 L 85.0,80.0 L 85.0,88.0 L 89.0,93.0 L 105.0,102.0 L 112.0,110.0 L 113.0,112.0 L 113.0,122.0 L 109.0,130.0 L 103.0,135.0 L 97.0,137.0 L 88.0,138.0 L 86.0,144.0 L 79.0,142.0 L 79.0,135.0 L 71.0,129.0 L 66.0,121.0 L 66.0,108.0 L 74.0,110.0 L 76.0,121.0 L 81.0,126.0 L 87.0,128.0 L 97.0,128.0 L 102.0,123.0 L 103.0,121.0 L 103.0,114.0 L 98.0,108.0 L 82.0,99.0 L 76.0,93.0 L 75.0,90.0 L 75.0,79.0 L 80.0,71.0 L 85.0,67.0 L 90.0,65.0 L 98.0,65.0 L 99.0,57.0" fill="#080808"/>
</svg>
