<?xml version="1.0" ?>
<svg baseProfile="full" height="600px" version="1.1" viewBox="-19.296000000000003 -19.296000000000003 230.592 230.592" width="600px" xmlns="http://www.w3.org/2000/svg" xmlns:ev="http://www.w3.org/2001/xml-events" xmlns:xlink="http://www.w3.org/1999/xlink">
	<defs/>
	<path d="M 0.0,0.0 L 192.0,0.0 L 192.0,192.0 L 0.0,192.0 L 0.0,0.0" fill="#FFFEFD"/>
	<path d="M 84.0,16.0 L 108.0,16.0 L 111.0,25.0 L 114.0,44.0 L 115.0,58.0 L 115.0,135.0 L 113.0,157.0 L 111.0,169.0 L 108.0,176.0 L 84.0,176.0 L 81.0,169.0 L 79.0,160.0 L 77.0,130.0 L 77.0,51.0 L 78.0,38.0 L 81.0,21.0 L 84.0,16.0" fill="#FFE081"/>
	<path d="M 106.0,16.0 L 108.0,16.0 L 111.0,25.0 L 114.0,44.0 L 115.0,58.0 L 115.0,135.0 L 113.0,157.0 L 111.0,169.0 L 108.0,176.0 L 105.0,175.0 L 101.0,162.0 L 98.0,131.0 L 98.0,62.0 L 100.0,38.0 L 104.0,18.0 L 106.0,16.0" fill="#FFDE7C"/>
	<path d="M 106.0,16.0 L 108.0,16.0 L 111.0,25.0 L 114.0,44.0 L 115.0,58.0 L 115.0,135.0 L 113.0,157.0 L 111.0,169.0 L 108.0,176.0 L 105.0,175.0 L 101.0,162.0 L 98.0,131.0 L 98.0,62.0 L 100.0,38.0 L 104.0,18.0 L 106.0,16.0 M 106.0,32.0 L 103.0,38.0 L 101.0,50.0 L 101.0,63.0 L 102.0,64.0 L 103.0,71.0 L 100.0,71.0 L 100.0,78.0 L 102.0,78.0 L 101.0,87.0 L 100.0,87.0 L 100.0,96.0 L 102.0,96.0 L 101.0,104.0 L 100.0,105.0 L 100.0,120.0 L 101.0,122.0 L 101.0,139.0 L 103.0,153.0 L 106.0,160.0 L 108.0,160.0 L 111.0,150.0 L 112.0,141.0 L 112.0,132.0 L 112.0,129.0 L 113.0,121.0 L 112.0,121.0 L 112.0,113.0 L 113.0,113.0 L 113.0,87.0 L 112.0,87.0 L 112.0,79.0 L 113.0,78.0 L 113.0,65.0 L 112.0,63.0 L 112.0,52.0 L 111.0,52.0 L 110.0,58.0 L 109.0,51.0 L 111.0,50.0 L 111.0,41.0 L 108.0,32.0 L 106.0,32.0" fill="#FFC412"/>
	<path d="M 111.0,40.0 L 113.0,40.0 L 114.0,44.0 L 115.0,58.0 L 115.0,135.0 L 113.0,157.0 L 111.0,153.0 L 110.0,150.0 L 111.0,135.0 L 110.0,135.0 L 110.0,126.0 L 112.0,126.0 L 111.0,122.0 L 111.0,112.0 L 112.0,112.0 L 112.0,88.0 L 111.0,88.0 L 111.0,79.0 L 112.0,78.0 L 112.0,71.0 L 111.0,71.0 L 111.0,60.0 L 109.0,58.0 L 108.0,52.0 L 108.0,43.0 L 109.0,43.0 L 110.0,50.0 L 111.0,40.0" fill="#FFCB2E"/>
	<path d="M 106.0,16.0 L 108.0,16.0 L 111.0,25.0 L 113.0,40.0 L 110.0,41.0 L 108.0,32.0 L 105.0,35.0 L 102.0,50.0 L 101.0,59.0 L 100.0,59.0 L 100.0,38.0 L 104.0,18.0 L 106.0,16.0" fill="#FFC30F"/>
	<path d="M 99.0,47.0 L 100.0,47.0 L 102.0,63.0 L 103.0,64.0 L 103.0,71.0 L 100.0,71.0 L 100.0,78.0 L 102.0,78.0 L 102.0,88.0 L 101.0,88.0 L 100.0,96.0 L 102.0,96.0 L 102.0,104.0 L 100.0,111.0 L 99.0,131.0 L 98.0,131.0 L 98.0,62.0 L 99.0,47.0" fill="#FFC925"/>
	<path d="M 111.0,132.0 L 112.0,132.0 L 112.0,141.0 L 110.0,155.0 L 108.0,160.0 L 105.0,159.0 L 102.0,148.0 L 103.0,137.0 L 105.0,138.0 L 106.0,143.0 L 108.0,139.0 L 111.0,132.0" fill="#FFDE79"/>
	<path d="M 106.0,66.0 L 107.0,66.0 L 108.0,73.0 L 108.0,88.0 L 107.0,90.0 L 108.0,95.0 L 108.0,118.0 L 107.0,127.0 L 106.0,127.0 L 105.0,118.0 L 105.0,105.0 L 106.0,101.0 L 105.0,96.0 L 105.0,74.0 L 106.0,66.0" fill="#FFC61B"/>
	<path d="M 106.0,32.0 L 108.0,32.0 L 110.0,40.0 L 108.0,42.0 L 106.0,50.0 L 105.0,51.0 L 104.0,60.0 L 101.0,58.0 L 101.0,50.0 L 104.0,35.0 L 106.0,32.0" fill="#FFDB6F"/>
	<path d="M 113.0,121.0 L 114.0,121.0 L 114.0,146.0 L 113.0,157.0 L 111.0,153.0 L 110.0,150.0 L 111.0,135.0 L 110.0,135.0 L 110.0,126.0 L 112.0,126.0 L 113.0,121.0" fill="#FFC61C"/>
	<path d="M 103.0,137.0 L 105.0,138.0 L 106.0,143.0 L 108.0,139.0 L 110.0,137.0 L 110.0,147.0 L 108.0,152.0 L 105.0,152.0 L 104.0,147.0 L 102.0,148.0 L 103.0,137.0" fill="#FFD043"/>
	<path d="M 100.0,96.0 L 102.0,96.0 L 102.0,104.0 L 100.0,111.0 L 99.0,131.0 L 98.0,131.0 L 98.0,107.0 L 100.0,96.0" fill="#FFCD39"/>
	<path d="M 106.0,40.0 L 107.0,40.0 L 107.0,48.0 L 105.0,51.0 L 104.0,58.0 L 103.0,58.0 L 103.0,50.0 L 104.0,43.0 L 106.0,43.0 L 106.0,40.0" fill="#FFCC33"/>
	<path d="M 108.0,43.0 L 109.0,43.0 L 110.0,50.0 L 112.0,48.0 L 111.0,60.0 L 109.0,58.0 L 108.0,52.0 L 108.0,43.0" fill="#FFCE3B"/>
	<path d="M 103.0,137.0 L 105.0,138.0 L 105.0,147.0 L 102.0,148.0 L 103.0,137.0" fill="#FFD24C"/>
	<path d="M 101.0,63.0 L 103.0,64.0 L 103.0,71.0 L 100.0,71.0 L 100.0,65.0 L 101.0,63.0" fill="#FFD148"/>
	<path d="M 110.0,126.0 L 113.0,126.0 L 113.0,132.0 L 111.0,132.0 L 110.0,135.0 L 110.0,126.0" fill="#FFD045"/>
</svg>
