<?xml version="1.0" ?>
<svg baseProfile="full" height="600px" version="1.1" viewBox="-12.06 -12.06 144.12 144.12" width="600px" xmlns="http://www.w3.org/2000/svg" xmlns:ev="http://www.w3.org/2001/xml-events" xmlns:xlink="http://www.w3.org/1999/xlink">
	<defs/>
	<path d="M 0.0,0.0 L 120.0,0.0 L 120.0,120.0 L 0.0,120.0 L 0.0,0.0" fill="#030303"/>
	<path d="M 0.0,0.0 L 120.0,0.0 L 120.0,58.0 L 116.0,54.0 L 108.0,44.0 L 101.0,37.0 L 91.0,30.0 L 77.0,23.0 L 69.0,21.0 L 52.0,21.0 L 41.0,24.0 L 27.0,31.0 L 16.0,40.0 L 9.0,47.0 L 1.0,58.0 L 0.0,58.0 L 0.0,0.0" fill="#FCFCFC"/>
	<path d="M 0.0,62.0 L 4.0,67.0 L 12.0,77.0 L 20.0,85.0 L 29.0,91.0 L 39.0,96.0 L 50.0,99.0 L 66.0,99.0 L 77.0,97.0 L 89.0,92.0 L 100.0,85.0 L 111.0,74.0 L 119.0,62.0 L 120.0,62.0 L 120.0,120.0 L 0.0,120.0 L 0.0,62.0" fill="#FCFCFC"/>
	<path d="M 32.0,62.0 L 48.0,62.0 L 51.0,67.0 L 51.0,69.0 L 56.0,71.0 L 63.0,71.0 L 69.0,69.0 L 71.0,63.0 L 72.0,62.0 L 88.0,62.0 L 86.0,71.0 L 81.0,79.0 L 75.0,84.0 L 66.0,88.0 L 54.0,88.0 L 45.0,84.0 L 37.0,77.0 L 33.0,69.0 L 32.0,62.0" fill="#F9F9F9"/>
</svg>
