<?xml version="1.0" ?>
<svg baseProfile="full" height="600px" version="1.1" viewBox="-19.296000000000003 -19.296000000000003 230.592 230.592" width="600px" xmlns="http://www.w3.org/2000/svg" xmlns:ev="http://www.w3.org/2001/xml-events" xmlns:xlink="http://www.w3.org/1999/xlink">
	<defs/>
	<path d="M 0.0,0.0 L 192.0,0.0 L 192.0,192.0 L 0.0,192.0 L 0.0,0.0" fill="#FDFDFD"/>
	<path d="M 88.0,40.0 L 107.0,40.0 L 125.0,44.0 L 141.0,52.0 L 150.0,58.0 L 160.0,67.0 L 167.0,74.0 L 176.0,87.0 L 179.0,89.0 L 179.0,95.0 L 178.0,96.0 L 131.0,96.0 L 131.0,102.0 L 125.0,114.0 L 118.0,121.0 L 107.0,127.0 L 100.0,128.0 L 88.0,128.0 L 78.0,124.0 L 69.0,117.0 L 63.0,108.0 L 60.0,99.0 L 60.0,96.0 L 16.0,96.0 L 14.0,94.0 L 15.0,89.0 L 18.0,88.0 L 20.0,83.0 L 29.0,71.0 L 39.0,61.0 L 52.0,52.0 L 66.0,45.0 L 79.0,41.0 L 88.0,40.0" fill="#FDB64E"/>
	<path d="M 17.0,96.0 L 60.0,96.0 L 64.0,108.0 L 70.0,117.0 L 80.0,124.0 L 88.0,127.0 L 100.0,127.0 L 109.0,125.0 L 119.0,119.0 L 126.0,111.0 L 130.0,102.0 L 131.0,96.0 L 175.0,96.0 L 169.0,104.0 L 162.0,111.0 L 157.0,116.0 L 147.0,125.0 L 133.0,134.0 L 120.0,140.0 L 104.0,144.0 L 89.0,144.0 L 74.0,141.0 L 60.0,135.0 L 49.0,128.0 L 40.0,121.0 L 28.0,110.0 L 18.0,99.0 L 17.0,96.0" fill="#FBFDFD"/>
	<path d="M 16.0,88.0 L 178.0,88.0 L 179.0,89.0 L 179.0,95.0 L 178.0,96.0 L 131.0,96.0 L 131.0,102.0 L 125.0,114.0 L 118.0,121.0 L 107.0,127.0 L 100.0,128.0 L 88.0,128.0 L 78.0,124.0 L 69.0,117.0 L 63.0,108.0 L 60.0,99.0 L 60.0,96.0 L 16.0,96.0 L 14.0,94.0 L 15.0,89.0 L 16.0,88.0" fill="#7A5649"/>
	<path d="M 60.0,96.0 L 80.0,96.0 L 86.0,104.0 L 91.0,107.0 L 100.0,107.0 L 107.0,103.0 L 111.0,96.0 L 131.0,96.0 L 131.0,102.0 L 125.0,114.0 L 118.0,121.0 L 107.0,127.0 L 100.0,128.0 L 88.0,128.0 L 78.0,124.0 L 69.0,117.0 L 63.0,108.0 L 60.0,99.0 L 60.0,96.0" fill="#03ABC0"/>
	<path d="M 17.0,96.0 L 27.0,96.0 L 45.0,114.0 L 61.0,125.0 L 75.0,132.0 L 88.0,135.0 L 105.0,135.0 L 118.0,131.0 L 134.0,123.0 L 146.0,114.0 L 158.0,103.0 L 164.0,96.0 L 175.0,96.0 L 169.0,104.0 L 162.0,111.0 L 157.0,116.0 L 147.0,125.0 L 133.0,134.0 L 120.0,140.0 L 104.0,144.0 L 89.0,144.0 L 74.0,141.0 L 60.0,135.0 L 49.0,128.0 L 40.0,121.0 L 28.0,110.0 L 18.0,99.0 L 17.0,96.0" fill="#D0D8DC"/>
	<path d="M 80.0,96.0 L 111.0,96.0 L 109.0,102.0 L 103.0,107.0 L 100.0,108.0 L 91.0,108.0 L 85.0,104.0 L 81.0,99.0 L 80.0,96.0" fill="#006266"/>
</svg>
