<?xml version="1.0" ?>
<svg baseProfile="full" height="600px" version="1.1" viewBox="-19.296000000000003 -19.296000000000003 230.592 230.592" width="600px" xmlns="http://www.w3.org/2000/svg" xmlns:ev="http://www.w3.org/2001/xml-events" xmlns:xlink="http://www.w3.org/1999/xlink">
	<defs/>
	<path d="M 0.0,0.0 L 192.0,0.0 L 192.0,192.0 L 0.0,192.0 L 0.0,0.0" fill="#FDFDFD"/>
	<path d="M 86.0,32.0 L 107.0,32.0 L 125.0,36.0 L 141.0,44.0 L 154.0,53.0 L 167.0,66.0 L 176.0,79.0 L 181.0,81.0 L 182.0,86.0 L 176.0,96.0 L 169.0,105.0 L 161.0,114.0 L 167.0,121.0 L 184.0,138.0 L 183.0,143.0 L 178.0,144.0 L 155.0,121.0 L 150.0,123.0 L 137.0,131.0 L 135.0,133.0 L 147.0,159.0 L 148.0,166.0 L 146.0,168.0 L 141.0,167.0 L 133.0,151.0 L 126.0,136.0 L 108.0,140.0 L 100.0,140.0 L 100.0,174.0 L 98.0,176.0 L 93.0,175.0 L 92.0,174.0 L 92.0,140.0 L 80.0,139.0 L 67.0,136.0 L 52.0,166.0 L 50.0,168.0 L 45.0,167.0 L 44.0,166.0 L 45.0,159.0 L 58.0,133.0 L 54.0,130.0 L 43.0,123.0 L 39.0,120.0 L 35.0,122.0 L 20.0,138.0 L 14.0,144.0 L 9.0,143.0 L 8.0,138.0 L 17.0,128.0 L 30.0,114.0 L 28.0,110.0 L 18.0,98.0 L 11.0,86.0 L 12.0,81.0 L 13.0,80.0 L 18.0,80.0 L 20.0,75.0 L 29.0,63.0 L 39.0,53.0 L 52.0,44.0 L 66.0,37.0 L 79.0,33.0 L 86.0,32.0" fill="#FDB64D"/>
	<path d="M 13.0,80.0 L 18.0,81.0 L 25.0,92.0 L 33.0,102.0 L 44.0,113.0 L 58.0,122.0 L 70.0,127.0 L 81.0,130.0 L 88.0,131.0 L 105.0,131.0 L 120.0,128.0 L 133.0,123.0 L 143.0,117.0 L 152.0,110.0 L 163.0,99.0 L 170.0,89.0 L 176.0,80.0 L 181.0,81.0 L 182.0,86.0 L 176.0,96.0 L 169.0,105.0 L 161.0,114.0 L 167.0,121.0 L 184.0,138.0 L 183.0,143.0 L 178.0,144.0 L 155.0,121.0 L 150.0,123.0 L 137.0,131.0 L 135.0,133.0 L 147.0,159.0 L 148.0,166.0 L 146.0,168.0 L 141.0,167.0 L 133.0,151.0 L 126.0,136.0 L 108.0,140.0 L 100.0,140.0 L 100.0,174.0 L 98.0,176.0 L 93.0,175.0 L 92.0,174.0 L 92.0,140.0 L 80.0,139.0 L 67.0,136.0 L 52.0,166.0 L 50.0,168.0 L 45.0,167.0 L 44.0,166.0 L 45.0,159.0 L 58.0,133.0 L 54.0,130.0 L 43.0,123.0 L 39.0,120.0 L 35.0,122.0 L 20.0,138.0 L 14.0,144.0 L 9.0,143.0 L 8.0,138.0 L 17.0,128.0 L 30.0,114.0 L 28.0,110.0 L 18.0,98.0 L 11.0,86.0 L 12.0,81.0 L 13.0,80.0" fill="#7C594B"/>
</svg>
