<?xml version="1.0" ?>
<svg baseProfile="full" height="600px" version="1.1" viewBox="-20.1 -20.1 240.2 240.2" width="600px" xmlns="http://www.w3.org/2000/svg" xmlns:ev="http://www.w3.org/2001/xml-events" xmlns:xlink="http://www.w3.org/1999/xlink">
	<defs/>
	<path d="M 0.0,0.0 L 200.0,0.0 L 200.0,200.0 L 0.0,200.0 L 0.0,0.0" fill="#FDFDFD"/>
	<path d="M 88.0,48.0 L 111.0,48.0 L 125.0,51.0 L 140.0,56.0 L 159.0,66.0 L 175.0,78.0 L 189.0,90.0 L 196.0,98.0 L 195.0,103.0 L 179.0,119.0 L 166.0,129.0 L 153.0,137.0 L 137.0,145.0 L 120.0,150.0 L 110.0,152.0 L 88.0,152.0 L 68.0,147.0 L 50.0,139.0 L 34.0,129.0 L 24.0,121.0 L 14.0,112.0 L 4.0,102.0 L 5.0,96.0 L 15.0,86.0 L 26.0,77.0 L 40.0,67.0 L 54.0,59.0 L 68.0,53.0 L 82.0,49.0 L 88.0,48.0" fill="#060606"/>
	<path d="M 93.0,56.0 L 109.0,56.0 L 126.0,60.0 L 141.0,66.0 L 157.0,75.0 L 169.0,84.0 L 182.0,95.0 L 182.0,96.0 L 18.0,96.0 L 23.0,91.0 L 33.0,82.0 L 48.0,72.0 L 63.0,64.0 L 81.0,58.0 L 93.0,56.0" fill="#FCFCFC"/>
	<path d="M 18.0,104.0 L 55.0,104.0 L 62.0,117.0 L 71.0,126.0 L 82.0,132.0 L 91.0,135.0 L 106.0,135.0 L 115.0,133.0 L 129.0,126.0 L 138.0,117.0 L 145.0,104.0 L 182.0,104.0 L 177.0,110.0 L 163.0,121.0 L 149.0,130.0 L 135.0,137.0 L 119.0,142.0 L 111.0,144.0 L 89.0,144.0 L 70.0,139.0 L 57.0,133.0 L 41.0,124.0 L 27.0,113.0 L 18.0,105.0 L 18.0,104.0" fill="#F8F8F8"/>
	<path d="M 64.0,104.0 L 89.0,104.0 L 95.0,107.0 L 105.0,107.0 L 111.0,104.0 L 136.0,104.0 L 134.0,110.0 L 125.0,120.0 L 113.0,126.0 L 105.0,128.0 L 92.0,128.0 L 80.0,123.0 L 72.0,117.0 L 66.0,110.0 L 64.0,104.0" fill="#F8F8F8"/>
</svg>
