<?xml version="1.0" ?>
<svg baseProfile="full" height="600px" version="1.1" viewBox="-19.296000000000003 -19.296000000000003 230.592 230.592" width="600px" xmlns="http://www.w3.org/2000/svg" xmlns:ev="http://www.w3.org/2001/xml-events" xmlns:xlink="http://www.w3.org/1999/xlink">
	<defs/>
	<path d="M 0.0,0.0 L 192.0,0.0 L 192.0,192.0 L 0.0,192.0 L 0.0,0.0" fill="#FDFDFD"/>
	<path d="M 84.0,38.0 L 109.0,38.0 L 125.0,42.0 L 142.0,50.0 L 154.0,59.0 L 160.0,64.0 L 167.0,72.0 L 176.0,85.0 L 180.0,87.0 L 180.0,92.0 L 171.0,98.0 L 156.0,104.0 L 136.0,110.0 L 124.0,111.0 L 122.0,115.0 L 113.0,122.0 L 106.0,125.0 L 100.0,126.0 L 91.0,126.0 L 81.0,123.0 L 73.0,118.0 L 67.0,112.0 L 46.0,107.0 L 27.0,100.0 L 14.0,93.0 L 13.0,88.0 L 18.0,84.0 L 24.0,75.0 L 33.0,65.0 L 41.0,57.0 L 55.0,48.0 L 68.0,42.0 L 84.0,38.0" fill="#FDB64D"/>
	<path d="M 18.0,95.0 L 34.0,102.0 L 53.0,108.0 L 67.0,111.0 L 75.0,119.0 L 86.0,124.0 L 91.0,125.0 L 100.0,125.0 L 108.0,123.0 L 116.0,119.0 L 123.0,113.0 L 124.0,111.0 L 139.0,108.0 L 159.0,102.0 L 169.0,98.0 L 171.0,99.0 L 162.0,109.0 L 153.0,118.0 L 139.0,128.0 L 127.0,135.0 L 117.0,139.0 L 102.0,142.0 L 89.0,142.0 L 78.0,140.0 L 63.0,134.0 L 52.0,128.0 L 40.0,119.0 L 27.0,107.0 L 20.0,99.0 L 18.0,95.0" fill="#D0D8DC"/>
	<path d="M 15.0,86.0 L 21.0,87.0 L 44.0,97.0 L 63.0,102.0 L 79.0,104.0 L 116.0,104.0 L 138.0,100.0 L 158.0,94.0 L 174.0,86.0 L 179.0,86.0 L 180.0,87.0 L 180.0,92.0 L 171.0,98.0 L 156.0,104.0 L 136.0,110.0 L 124.0,111.0 L 122.0,115.0 L 113.0,122.0 L 106.0,125.0 L 100.0,126.0 L 91.0,126.0 L 81.0,123.0 L 73.0,118.0 L 67.0,112.0 L 46.0,107.0 L 27.0,100.0 L 14.0,93.0 L 13.0,88.0 L 15.0,86.0" fill="#7C594B"/>
	<path d="M 37.0,104.0 L 46.0,106.0 L 67.0,111.0 L 75.0,119.0 L 86.0,124.0 L 91.0,125.0 L 100.0,125.0 L 108.0,123.0 L 116.0,119.0 L 123.0,113.0 L 124.0,111.0 L 139.0,108.0 L 147.0,106.0 L 152.0,106.0 L 146.0,113.0 L 135.0,121.0 L 123.0,128.0 L 108.0,133.0 L 83.0,133.0 L 67.0,127.0 L 58.0,122.0 L 47.0,114.0 L 37.0,105.0 L 37.0,104.0" fill="#FAFBFC"/>
	<path d="M 67.0,111.0 L 76.0,112.0 L 124.0,112.0 L 119.0,118.0 L 111.0,123.0 L 106.0,125.0 L 100.0,126.0 L 91.0,126.0 L 81.0,123.0 L 73.0,118.0 L 67.0,111.0" fill="#07ABBF"/>
	<path d="M 90.0,134.0 L 105.0,134.0 L 103.0,135.0 L 103.0,137.0 L 101.0,137.0 L 101.0,139.0 L 99.0,139.0 L 99.0,141.0 L 86.0,141.0 L 86.0,138.0 L 90.0,134.0" fill="#CED7DB"/>
</svg>
