<?xml version="1.0" ?>
<svg baseProfile="full" height="600px" version="1.1" viewBox="-19.296000000000003 -19.296000000000003 230.592 230.592" width="600px" xmlns="http://www.w3.org/2000/svg" xmlns:ev="http://www.w3.org/2001/xml-events" xmlns:xlink="http://www.w3.org/1999/xlink">
	<defs/>
	<path d="M 0.0,0.0 L 192.0,0.0 L 192.0,192.0 L 0.0,192.0 L 0.0,0.0" fill="#458BFF"/>
	<path d="M 0.0,0.0 L 192.0,0.0 L 192.0,192.0 L 0.0,192.0 L 0.0,0.0 M 82.0,10.0 L 67.0,14.0 L 51.0,22.0 L 40.0,30.0 L 30.0,40.0 L 23.0,51.0 L 17.0,64.0 L 15.0,71.0 L 14.0,80.0 L 14.0,95.0 L 16.0,106.0 L 20.0,118.0 L 26.0,129.0 L 35.0,140.0 L 39.0,144.0 L 40.0,182.0 L 50.0,177.0 L 73.0,163.0 L 88.0,165.0 L 105.0,165.0 L 117.0,163.0 L 136.0,156.0 L 148.0,148.0 L 160.0,137.0 L 169.0,124.0 L 175.0,111.0 L 178.0,98.0 L 178.0,77.0 L 174.0,61.0 L 166.0,46.0 L 158.0,36.0 L 150.0,28.0 L 136.0,19.0 L 125.0,14.0 L 115.0,11.0 L 107.0,10.0 L 82.0,10.0" fill="#FCFDFF"/>
	<path d="M 86.0,64.0 L 90.0,66.0 L 109.0,85.0 L 114.0,84.0 L 141.0,69.0 L 149.0,64.0 L 151.0,65.0 L 143.0,73.0 L 136.0,81.0 L 124.0,94.0 L 115.0,104.0 L 106.0,114.0 L 102.0,112.0 L 83.0,93.0 L 79.0,94.0 L 53.0,108.0 L 43.0,114.0 L 41.0,113.0 L 51.0,103.0 L 58.0,95.0 L 71.0,81.0 L 78.0,73.0 L 86.0,64.0" fill="#F8FAFF"/>
</svg>
