<?xml version="1.0" ?>
<svg baseProfile="full" height="600px" version="1.1" viewBox="-20.1 -20.1 240.2 240.2" width="600px" xmlns="http://www.w3.org/2000/svg" xmlns:ev="http://www.w3.org/2001/xml-events" xmlns:xlink="http://www.w3.org/1999/xlink">
	<defs/>
	<path d="M 0.0,0.0 L 200.0,0.0 L 200.0,200.0 L 0.0,200.0 L 0.0,0.0" fill="#FDFDFD"/>
	<path d="M 10.0,16.0 L 66.0,16.0 L 68.0,17.0 L 68.0,24.0 L 73.0,24.0 L 75.0,19.0 L 80.0,16.0 L 165.0,16.0 L 171.0,20.0 L 175.0,25.0 L 176.0,27.0 L 176.0,35.0 L 175.0,41.0 L 182.0,47.0 L 184.0,51.0 L 184.0,60.0 L 182.0,67.0 L 187.0,73.0 L 188.0,75.0 L 188.0,84.0 L 186.0,91.0 L 191.0,97.0 L 192.0,99.0 L 192.0,108.0 L 189.0,114.0 L 183.0,119.0 L 180.0,120.0 L 118.0,120.0 L 124.0,141.0 L 124.0,152.0 L 122.0,161.0 L 118.0,171.0 L 114.0,177.0 L 107.0,183.0 L 104.0,184.0 L 90.0,184.0 L 88.0,182.0 L 87.0,148.0 L 69.0,112.0 L 67.0,119.0 L 66.0,120.0 L 22.0,120.0 L 20.0,118.0 L 16.0,85.0 L 13.0,64.0 L 10.0,37.0 L 8.0,24.0 L 8.0,18.0 L 10.0,16.0" fill="#FCFCFC"/>
	<path d="M 10.0,16.0 L 66.0,16.0 L 68.0,17.0 L 68.0,24.0 L 73.0,24.0 L 75.0,19.0 L 80.0,16.0 L 165.0,16.0 L 171.0,20.0 L 175.0,25.0 L 176.0,27.0 L 176.0,35.0 L 175.0,41.0 L 182.0,47.0 L 184.0,51.0 L 184.0,60.0 L 182.0,67.0 L 187.0,73.0 L 188.0,75.0 L 188.0,84.0 L 186.0,91.0 L 191.0,97.0 L 192.0,99.0 L 192.0,108.0 L 189.0,114.0 L 183.0,119.0 L 180.0,120.0 L 118.0,120.0 L 124.0,141.0 L 124.0,152.0 L 122.0,161.0 L 118.0,171.0 L 114.0,177.0 L 107.0,183.0 L 104.0,184.0 L 90.0,184.0 L 88.0,182.0 L 87.0,148.0 L 69.0,112.0 L 67.0,119.0 L 66.0,120.0 L 22.0,120.0 L 20.0,118.0 L 16.0,85.0 L 13.0,64.0 L 10.0,37.0 L 8.0,24.0 L 8.0,18.0 L 10.0,16.0 M 82.0,24.0 L 78.0,30.0 L 68.0,32.0 L 68.0,100.0 L 75.0,102.0 L 77.0,110.0 L 95.0,146.0 L 96.0,176.0 L 103.0,176.0 L 108.0,172.0 L 115.0,158.0 L 116.0,153.0 L 116.0,144.0 L 111.0,124.0 L 109.0,118.0 L 110.0,113.0 L 178.0,112.0 L 183.0,109.0 L 184.0,107.0 L 184.0,101.0 L 179.0,96.0 L 175.0,93.0 L 176.0,88.0 L 180.0,83.0 L 180.0,77.0 L 175.0,72.0 L 171.0,69.0 L 172.0,64.0 L 176.0,59.0 L 176.0,53.0 L 173.0,49.0 L 164.0,45.0 L 165.0,40.0 L 168.0,35.0 L 168.0,29.0 L 165.0,25.0 L 162.0,24.0 L 82.0,24.0" fill="#050505"/>
	<path d="M 17.0,24.0 L 60.0,24.0 L 60.0,112.0 L 28.0,112.0 L 27.0,111.0 L 24.0,84.0 L 21.0,63.0 L 18.0,36.0 L 17.0,31.0 L 17.0,24.0" fill="#FCFCFC"/>
	<path d="M 44.0,88.0 L 50.0,89.0 L 52.0,91.0 L 51.0,98.0 L 49.0,100.0 L 43.0,100.0 L 40.0,97.0 L 40.0,91.0 L 44.0,88.0" fill="#0C0C0C"/>
</svg>
