<?xml version="1.0" ?>
<svg baseProfile="full" height="600px" version="1.1" viewBox="-20.1 -20.1 240.2 240.2" width="600px" xmlns="http://www.w3.org/2000/svg" xmlns:ev="http://www.w3.org/2001/xml-events" xmlns:xlink="http://www.w3.org/1999/xlink">
	<defs/>
	<path d="M 0.0,0.0 L 200.0,0.0 L 200.0,200.0 L 0.0,200.0 L 0.0,0.0" fill="#FDFDFD"/>
	<path d="M 104.0,44.0 L 117.0,44.0 L 130.0,48.0 L 139.0,55.0 L 146.0,63.0 L 151.0,75.0 L 152.0,85.0 L 152.0,100.0 L 150.0,110.0 L 143.0,127.0 L 138.0,133.0 L 134.0,139.0 L 126.0,145.0 L 117.0,149.0 L 87.0,149.0 L 86.0,148.0 L 69.0,147.0 L 61.0,143.0 L 53.0,134.0 L 50.0,127.0 L 46.0,105.0 L 45.0,94.0 L 45.0,79.0 L 48.0,70.0 L 54.0,62.0 L 60.0,57.0 L 68.0,53.0 L 89.0,47.0 L 96.0,45.0 L 104.0,44.0" fill="#FCFCFC"/>
	<path d="M 104.0,44.0 L 117.0,44.0 L 130.0,48.0 L 139.0,55.0 L 146.0,63.0 L 151.0,75.0 L 152.0,85.0 L 152.0,100.0 L 150.0,110.0 L 143.0,127.0 L 138.0,133.0 L 134.0,139.0 L 126.0,145.0 L 117.0,149.0 L 87.0,149.0 L 86.0,148.0 L 69.0,147.0 L 61.0,143.0 L 53.0,134.0 L 50.0,127.0 L 46.0,105.0 L 45.0,94.0 L 45.0,79.0 L 48.0,70.0 L 54.0,62.0 L 60.0,57.0 L 68.0,53.0 L 89.0,47.0 L 96.0,45.0 L 104.0,44.0 M 105.0,52.0 L 93.0,54.0 L 69.0,61.0 L 59.0,68.0 L 54.0,76.0 L 53.0,79.0 L 53.0,90.0 L 55.0,110.0 L 57.0,123.0 L 61.0,131.0 L 66.0,136.0 L 70.0,139.0 L 87.0,140.0 L 89.0,141.0 L 116.0,141.0 L 125.0,136.0 L 130.0,131.0 L 136.0,123.0 L 143.0,106.0 L 144.0,97.0 L 144.0,86.0 L 142.0,74.0 L 138.0,66.0 L 132.0,59.0 L 120.0,53.0 L 116.0,52.0 L 105.0,52.0" fill="#080808"/>
</svg>
