<?xml version="1.0" ?>
<svg baseProfile="full" height="600px" version="1.1" viewBox="-9.648000000000001 -9.648000000000001 115.296 115.296" width="600px" xmlns="http://www.w3.org/2000/svg" xmlns:ev="http://www.w3.org/2001/xml-events" xmlns:xlink="http://www.w3.org/1999/xlink">
	<defs/>
	<path d="M 0.0,0.0 L 96.0,0.0 L 96.0,96.0 L 0.0,96.0 L 0.0,0.0" fill="#FBFBFB"/>
	<path d="M 40.0,8.0 L 56.0,8.0 L 67.0,12.0 L 75.0,18.0 L 83.0,27.0 L 87.0,36.0 L 88.0,40.0 L 88.0,56.0 L 84.0,67.0 L 78.0,75.0 L 69.0,83.0 L 60.0,87.0 L 56.0,88.0 L 47.0,88.0 L 50.0,64.0 L 51.0,58.0 L 61.0,59.0 L 63.0,50.0 L 53.0,49.0 L 54.0,40.0 L 57.0,37.0 L 66.0,38.0 L 66.0,29.0 L 52.0,29.0 L 48.0,31.0 L 45.0,36.0 L 43.0,47.0 L 34.0,46.0 L 33.0,56.0 L 39.0,56.0 L 41.0,57.0 L 39.0,75.0 L 37.0,87.0 L 27.0,83.0 L 17.0,74.0 L 11.0,65.0 L 8.0,56.0 L 8.0,40.0 L 12.0,29.0 L 18.0,21.0 L 27.0,13.0 L 36.0,9.0 L 40.0,8.0" fill="#030303"/>
</svg>
