<?xml version="1.0" ?>
<svg baseProfile="full" height="600px" version="1.1" viewBox="-12.864 -12.864 153.728 153.728" width="600px" xmlns="http://www.w3.org/2000/svg" xmlns:ev="http://www.w3.org/2001/xml-events" xmlns:xlink="http://www.w3.org/1999/xlink">
	<defs/>
	<path d="M 0.0,0.0 L 128.0,0.0 L 128.0,128.0 L 0.0,128.0 L 0.0,0.0" fill="#FAFAFA"/>
	<path d="M 0.0,0.0 L 128.0,0.0 L 128.0,128.0 L 0.0,128.0 L 0.0,0.0 M 56.0,7.0 L 40.0,12.0 L 29.0,19.0 L 21.0,26.0 L 12.0,40.0 L 8.0,53.0 L 7.0,57.0 L 7.0,70.0 L 10.0,82.0 L 14.0,92.0 L 24.0,105.0 L 36.0,114.0 L 48.0,119.0 L 56.0,121.0 L 69.0,121.0 L 79.0,119.0 L 92.0,114.0 L 105.0,104.0 L 114.0,92.0 L 120.0,76.0 L 121.0,69.0 L 121.0,56.0 L 116.0,40.0 L 109.0,29.0 L 103.0,22.0 L 90.0,13.0 L 76.0,8.0 L 70.0,7.0 L 56.0,7.0" fill="#FCFCFC"/>
	<path d="M 56.0,7.0 L 70.0,7.0 L 82.0,10.0 L 92.0,14.0 L 105.0,24.0 L 114.0,36.0 L 119.0,48.0 L 121.0,56.0 L 121.0,69.0 L 119.0,79.0 L 114.0,92.0 L 104.0,105.0 L 92.0,114.0 L 76.0,120.0 L 69.0,121.0 L 56.0,121.0 L 40.0,116.0 L 29.0,109.0 L 22.0,103.0 L 13.0,90.0 L 8.0,76.0 L 7.0,70.0 L 7.0,57.0 L 11.0,42.0 L 18.0,30.0 L 25.0,22.0 L 38.0,13.0 L 48.0,9.0 L 56.0,7.0 M 55.0,17.0 L 44.0,21.0 L 34.0,27.0 L 26.0,35.0 L 18.0,51.0 L 17.0,56.0 L 17.0,71.0 L 21.0,84.0 L 27.0,94.0 L 35.0,102.0 L 46.0,108.0 L 51.0,110.0 L 57.0,110.0 L 57.0,77.0 L 46.0,77.0 L 46.0,65.0 L 57.0,65.0 L 58.0,50.0 L 62.0,42.0 L 67.0,39.0 L 84.0,38.0 L 84.0,49.0 L 74.0,49.0 L 70.0,54.0 L 70.0,65.0 L 84.0,65.0 L 83.0,77.0 L 70.0,77.0 L 70.0,111.0 L 79.0,109.0 L 93.0,102.0 L 102.0,93.0 L 110.0,77.0 L 111.0,71.0 L 111.0,55.0 L 107.0,44.0 L 101.0,34.0 L 93.0,26.0 L 79.0,19.0 L 71.0,17.0 L 55.0,17.0" fill="#060606"/>
</svg>
