<?xml version="1.0" ?>
<svg baseProfile="full" height="600px" version="1.1" viewBox="-19.296000000000003 -19.296000000000003 230.592 230.592" width="600px" xmlns="http://www.w3.org/2000/svg" xmlns:ev="http://www.w3.org/2001/xml-events" xmlns:xlink="http://www.w3.org/1999/xlink">
	<defs/>
	<path d="M 0.0,0.0 L 192.0,0.0 L 192.0,192.0 L 0.0,192.0 L 0.0,0.0" fill="#FDFDFF"/>
	<path d="M 88.0,16.0 L 105.0,16.0 L 119.0,19.0 L 134.0,25.0 L 147.0,34.0 L 157.0,44.0 L 164.0,55.0 L 169.0,66.0 L 172.0,79.0 L 172.0,96.0 L 170.0,106.0 L 165.0,119.0 L 159.0,129.0 L 150.0,139.0 L 142.0,146.0 L 130.0,153.0 L 115.0,158.0 L 106.0,160.0 L 89.0,160.0 L 74.0,158.0 L 60.0,167.0 L 45.0,176.0 L 44.0,176.0 L 43.0,140.0 L 35.0,132.0 L 28.0,121.0 L 22.0,107.0 L 20.0,97.0 L 20.0,81.0 L 22.0,69.0 L 27.0,57.0 L 33.0,47.0 L 42.0,37.0 L 50.0,30.0 L 64.0,22.0 L 79.0,17.0 L 88.0,16.0" fill="#458BFF"/>
	<path d="M 89.0,68.0 L 93.0,69.0 L 107.0,87.0 L 107.0,89.0 L 127.0,82.0 L 143.0,76.0 L 145.0,77.0 L 132.0,88.0 L 121.0,97.0 L 104.0,111.0 L 100.0,112.0 L 91.0,101.0 L 85.0,93.0 L 85.0,91.0 L 72.0,95.0 L 52.0,103.0 L 47.0,104.0 L 52.0,99.0 L 66.0,87.0 L 80.0,76.0 L 89.0,68.0" fill="#F9FBFF"/>
	<path d="M 55.0,96.0 L 57.0,97.0 L 54.0,101.0 L 52.0,103.0 L 47.0,104.0 L 52.0,99.0 L 55.0,96.0" fill="#E5EEFF"/>
</svg>
