<?xml version="1.0" ?>
<svg baseProfile="full" height="600px" version="1.1" viewBox="-16.08 -16.08 192.16 192.16" width="600px" xmlns="http://www.w3.org/2000/svg" xmlns:ev="http://www.w3.org/2001/xml-events" xmlns:xlink="http://www.w3.org/1999/xlink">
	<defs/>
	<path d="M 0.0,0.0 L 160.0,0.0 L 160.0,160.0 L 0.0,160.0 L 0.0,0.0" fill="#8AB6EE"/>
	<path d="M 0.0,0.0 L 160.0,0.0 L 160.0,160.0 L 0.0,160.0 L 0.0,0.0 M 72.0,4.0 L 58.0,7.0 L 46.0,12.0 L 36.0,18.0 L 24.0,29.0 L 16.0,40.0 L 11.0,51.0 L 8.0,62.0 L 8.0,83.0 L 13.0,99.0 L 19.0,110.0 L 29.0,121.0 L 30.0,157.0 L 40.0,152.0 L 60.0,140.0 L 70.0,141.0 L 89.0,141.0 L 105.0,137.0 L 115.0,133.0 L 127.0,125.0 L 138.0,114.0 L 145.0,103.0 L 151.0,87.0 L 152.0,82.0 L 152.0,62.0 L 147.0,46.0 L 140.0,34.0 L 129.0,22.0 L 118.0,14.0 L 105.0,8.0 L 99.0,6.0 L 89.0,4.0 L 72.0,4.0" fill="#FCFDFE"/>
	<path d="M 72.0,4.0 L 89.0,4.0 L 105.0,8.0 L 121.0,16.0 L 130.0,23.0 L 137.0,30.0 L 146.0,44.0 L 151.0,58.0 L 152.0,62.0 L 152.0,82.0 L 147.0,99.0 L 141.0,110.0 L 130.0,122.0 L 123.0,128.0 L 111.0,135.0 L 95.0,140.0 L 89.0,141.0 L 70.0,141.0 L 60.0,140.0 L 31.0,157.0 L 30.0,157.0 L 29.0,121.0 L 22.0,114.0 L 15.0,103.0 L 10.0,90.0 L 8.0,83.0 L 8.0,62.0 L 13.0,46.0 L 20.0,34.0 L 29.0,24.0 L 39.0,16.0 L 55.0,8.0 L 65.0,5.0 L 72.0,4.0 M 66.0,9.0 L 51.0,14.0 L 40.0,20.0 L 30.0,29.0 L 23.0,37.0 L 17.0,48.0 L 14.0,55.0 L 12.0,65.0 L 12.0,80.0 L 16.0,96.0 L 22.0,107.0 L 31.0,117.0 L 33.0,119.0 L 34.0,150.0 L 45.0,144.0 L 60.0,135.0 L 75.0,137.0 L 88.0,137.0 L 104.0,133.0 L 114.0,129.0 L 125.0,121.0 L 131.0,116.0 L 139.0,105.0 L 144.0,95.0 L 148.0,81.0 L 148.0,64.0 L 145.0,53.0 L 141.0,43.0 L 133.0,32.0 L 124.0,23.0 L 111.0,15.0 L 98.0,10.0 L 91.0,9.0 L 66.0,9.0" fill="#5680B9"/>
	<path d="M 78.0,51.0 L 83.0,56.0 L 96.0,71.0 L 96.0,73.0 L 122.0,61.0 L 131.0,57.0 L 133.0,58.0 L 123.0,68.0 L 115.0,75.0 L 99.0,90.0 L 92.0,96.0 L 89.0,96.0 L 80.0,85.0 L 73.0,77.0 L 73.0,75.0 L 38.0,91.0 L 36.0,90.0 L 47.0,79.0 L 55.0,72.0 L 71.0,57.0 L 78.0,51.0" fill="#FBFCFE"/>
	<path d="M 47.0,79.0 L 49.0,80.0 L 42.0,87.0 L 42.0,89.0 L 36.0,91.0 L 42.0,84.0 L 47.0,79.0" fill="#EFF5FC"/>
</svg>
