<?xml version="1.0" ?>
<svg baseProfile="full" height="600px" version="1.1" viewBox="-20.1 -20.1 240.2 240.2" width="600px" xmlns="http://www.w3.org/2000/svg" xmlns:ev="http://www.w3.org/2001/xml-events" xmlns:xlink="http://www.w3.org/1999/xlink">
	<defs/>
	<path d="M 0.0,0.0 L 200.0,0.0 L 200.0,200.0 L 0.0,200.0 L 0.0,0.0" fill="#FCFCFC"/>
	<path d="M 0.0,0.0 L 200.0,0.0 L 200.0,200.0 L 38.0,200.0 L 42.0,197.0 L 69.0,183.0 L 72.0,181.0 L 83.0,183.0 L 92.0,184.0 L 111.0,184.0 L 132.0,179.0 L 147.0,173.0 L 160.0,165.0 L 172.0,155.0 L 183.0,141.0 L 191.0,125.0 L 195.0,112.0 L 196.0,106.0 L 196.0,79.0 L 192.0,64.0 L 184.0,48.0 L 175.0,36.0 L 165.0,26.0 L 152.0,17.0 L 137.0,10.0 L 121.0,5.0 L 113.0,4.0 L 85.0,4.0 L 68.0,8.0 L 53.0,14.0 L 39.0,23.0 L 27.0,34.0 L 20.0,42.0 L 11.0,57.0 L 7.0,67.0 L 4.0,79.0 L 4.0,106.0 L 9.0,125.0 L 16.0,139.0 L 25.0,151.0 L 36.0,162.0 L 36.0,200.0 L 0.0,200.0 L 0.0,0.0" fill="#FCFCFC"/>
	<path d="M 85.0,3.0 L 113.0,3.0 L 124.0,5.0 L 142.0,11.0 L 157.0,19.0 L 168.0,28.0 L 178.0,38.0 L 188.0,53.0 L 194.0,67.0 L 197.0,79.0 L 197.0,106.0 L 194.0,119.0 L 188.0,134.0 L 181.0,145.0 L 170.0,158.0 L 156.0,169.0 L 140.0,177.0 L 125.0,182.0 L 111.0,185.0 L 92.0,185.0 L 78.0,183.0 L 72.0,182.0 L 49.0,194.0 L 38.0,200.0 L 36.0,200.0 L 35.0,162.0 L 22.0,149.0 L 12.0,134.0 L 6.0,119.0 L 3.0,106.0 L 3.0,79.0 L 7.0,65.0 L 12.0,53.0 L 20.0,41.0 L 29.0,31.0 L 40.0,21.0 L 53.0,13.0 L 68.0,7.0 L 85.0,3.0 M 88.0,11.0 L 71.0,15.0 L 59.0,20.0 L 48.0,26.0 L 38.0,34.0 L 28.0,44.0 L 19.0,58.0 L 13.0,74.0 L 11.0,83.0 L 11.0,103.0 L 16.0,122.0 L 23.0,136.0 L 31.0,146.0 L 42.0,157.0 L 44.0,158.0 L 45.0,186.0 L 64.0,177.0 L 71.0,173.0 L 81.0,175.0 L 90.0,176.0 L 113.0,176.0 L 132.0,171.0 L 144.0,166.0 L 155.0,159.0 L 166.0,150.0 L 177.0,136.0 L 184.0,122.0 L 189.0,104.0 L 189.0,83.0 L 185.0,67.0 L 177.0,51.0 L 168.0,40.0 L 159.0,31.0 L 145.0,22.0 L 132.0,16.0 L 116.0,12.0 L 111.0,11.0 L 88.0,11.0" fill="#080808"/>
	<path d="M 89.0,66.0 L 96.0,72.0 L 116.0,92.0 L 122.0,90.0 L 149.0,75.0 L 163.0,67.0 L 165.0,68.0 L 156.0,77.0 L 149.0,85.0 L 134.0,101.0 L 123.0,113.0 L 111.0,126.0 L 104.0,120.0 L 93.0,108.0 L 85.0,99.0 L 80.0,100.0 L 57.0,113.0 L 36.0,125.0 L 34.0,124.0 L 46.0,112.0 L 53.0,104.0 L 63.0,94.0 L 70.0,86.0 L 79.0,77.0 L 86.0,69.0 L 89.0,66.0" fill="#040404"/>
</svg>
