<?xml version="1.0" ?>
<svg baseProfile="full" height="600px" version="1.1" viewBox="-12.06 -12.06 144.12 144.12" width="600px" xmlns="http://www.w3.org/2000/svg" xmlns:ev="http://www.w3.org/2001/xml-events" xmlns:xlink="http://www.w3.org/1999/xlink">
	<defs/>
	<path d="M 0.0,0.0 L 120.0,0.0 L 120.0,120.0 L 0.0,120.0 L 0.0,0.0" fill="#040404"/>
	<path d="M 0.0,0.0 L 120.0,0.0 L 120.0,120.0 L 0.0,120.0 L 0.0,0.0 M 49.0,11.0 L 36.0,16.0 L 28.0,22.0 L 23.0,26.0 L 16.0,36.0 L 11.0,49.0 L 11.0,70.0 L 14.0,79.0 L 18.0,87.0 L 25.0,96.0 L 36.0,104.0 L 49.0,109.0 L 71.0,109.0 L 84.0,104.0 L 92.0,98.0 L 97.0,93.0 L 102.0,87.0 L 108.0,75.0 L 109.0,71.0 L 109.0,49.0 L 104.0,36.0 L 95.0,24.0 L 82.0,15.0 L 75.0,12.0 L 70.0,11.0 L 49.0,11.0" fill="#FCFCFC"/>
	<path d="M 61.0,28.0 L 79.0,28.0 L 79.0,41.0 L 68.0,42.0 L 66.0,44.0 L 65.0,55.0 L 79.0,55.0 L 77.0,68.0 L 65.0,68.0 L 65.0,105.0 L 55.0,105.0 L 51.0,104.0 L 51.0,68.0 L 38.0,68.0 L 38.0,55.0 L 51.0,55.0 L 51.0,42.0 L 54.0,34.0 L 61.0,28.0" fill="#F9F9F9"/>
</svg>
