<?xml version="1.0" ?>
<svg baseProfile="full" height="600px" version="1.1" viewBox="-19.296000000000003 -19.296000000000003 230.592 230.592" width="600px" xmlns="http://www.w3.org/2000/svg" xmlns:ev="http://www.w3.org/2001/xml-events" xmlns:xlink="http://www.w3.org/1999/xlink">
	<defs/>
	<path d="M 0.0,0.0 L 192.0,0.0 L 192.0,192.0 L 0.0,192.0 L 0.0,0.0" fill="#FEFDFE"/>
	<path d="M 111.0,24.0 L 119.0,24.0 L 125.0,28.0 L 128.0,33.0 L 128.0,52.0 L 125.0,67.0 L 123.0,72.0 L 163.0,72.0 L 168.0,75.0 L 172.0,80.0 L 172.0,88.0 L 169.0,93.0 L 164.0,95.0 L 164.0,97.0 L 168.0,99.0 L 172.0,104.0 L 172.0,112.0 L 169.0,117.0 L 162.0,121.0 L 168.0,128.0 L 168.0,136.0 L 165.0,141.0 L 158.0,145.0 L 164.0,152.0 L 164.0,160.0 L 161.0,165.0 L 156.0,168.0 L 86.0,168.0 L 78.0,164.0 L 73.0,159.0 L 72.0,164.0 L 32.0,164.0 L 30.0,155.0 L 26.0,123.0 L 24.0,111.0 L 21.0,86.0 L 20.0,76.0 L 72.0,76.0 L 73.0,81.0 L 81.0,73.0 L 88.0,65.0 L 99.0,53.0 L 104.0,44.0 L 109.0,26.0 L 111.0,24.0" fill="#FECB7F"/>
	<path d="M 20.0,76.0 L 72.0,76.0 L 72.0,164.0 L 32.0,164.0 L 30.0,155.0 L 26.0,123.0 L 24.0,111.0 L 21.0,86.0 L 20.0,76.0" fill="#BA69C8"/>
	<path d="M 49.0,136.0 L 57.0,137.0 L 60.0,141.0 L 60.0,147.0 L 55.0,152.0 L 49.0,152.0 L 45.0,149.0 L 44.0,141.0 L 49.0,136.0" fill="#F0DFF3"/>
	<path d="M 138.0,144.0 L 155.0,144.0 L 151.0,147.0 L 141.0,152.0 L 137.0,151.0 L 136.0,146.0 L 138.0,144.0" fill="#F2A35B"/>
	<path d="M 142.0,120.0 L 159.0,120.0 L 155.0,123.0 L 145.0,128.0 L 141.0,127.0 L 140.0,122.0 L 142.0,120.0" fill="#F2A35B"/>
	<path d="M 146.0,96.0 L 163.0,96.0 L 159.0,99.0 L 149.0,104.0 L 145.0,103.0 L 144.0,98.0 L 146.0,96.0" fill="#F2A35B"/>
</svg>
