<?xml version="1.0" ?>
<svg baseProfile="full" height="600px" version="1.1" viewBox="-12.06 -12.06 144.12 144.12" width="600px" xmlns="http://www.w3.org/2000/svg" xmlns:ev="http://www.w3.org/2001/xml-events" xmlns:xlink="http://www.w3.org/1999/xlink">
	<defs/>
	<path d="M 0.0,0.0 L 120.0,0.0 L 120.0,120.0 L 0.0,120.0 L 0.0,0.0" fill="#FCFCFC"/>
	<path d="M 10.0,8.0 L 38.0,8.0 L 40.0,12.0 L 47.0,11.0 L 51.0,8.0 L 97.0,8.0 L 102.0,11.0 L 103.0,13.0 L 102.0,22.0 L 107.0,24.0 L 109.0,27.0 L 109.0,34.0 L 108.0,38.0 L 112.0,43.0 L 112.0,50.0 L 109.0,55.0 L 112.0,59.0 L 112.0,66.0 L 108.0,71.0 L 106.0,72.0 L 67.0,72.0 L 70.0,77.0 L 76.0,81.0 L 80.0,86.0 L 80.0,94.0 L 77.0,99.0 L 70.0,98.0 L 49.0,87.0 L 43.0,78.0 L 40.0,73.0 L 40.0,71.0 L 38.0,72.0 L 14.0,72.0 L 12.0,70.0 L 11.0,66.0 L 8.0,17.0 L 8.0,10.0 L 10.0,8.0" fill="#030303"/>
	<path d="M 16.0,16.0 L 32.0,16.0 L 32.0,64.0 L 19.0,64.0 L 16.0,21.0 L 16.0,16.0" fill="#F6F6F6"/>
</svg>
