<?xml version="1.0" ?>
<svg baseProfile="full" height="600px" version="1.1" viewBox="-20.1 -20.1 240.2 240.2" width="600px" xmlns="http://www.w3.org/2000/svg" xmlns:ev="http://www.w3.org/2001/xml-events" xmlns:xlink="http://www.w3.org/1999/xlink">
	<defs/>
	<path d="M 0.0,0.0 L 200.0,0.0 L 200.0,200.0 L 0.0,200.0 L 0.0,0.0" fill="#FDFDFD"/>
	<path d="M 111.0,8.0 L 139.0,8.0 L 149.0,9.0 L 152.0,13.0 L 152.0,46.0 L 150.0,48.0 L 121.0,49.0 L 117.0,53.0 L 116.0,72.0 L 150.0,72.0 L 152.0,74.0 L 152.0,82.0 L 149.0,106.0 L 147.0,111.0 L 146.0,112.0 L 116.0,112.0 L 116.0,190.0 L 114.0,192.0 L 78.0,192.0 L 76.0,190.0 L 76.0,112.0 L 50.0,112.0 L 48.0,110.0 L 48.0,74.0 L 50.0,72.0 L 76.0,72.0 L 76.0,45.0 L 79.0,34.0 L 83.0,26.0 L 91.0,17.0 L 101.0,11.0 L 111.0,8.0" fill="#FCFCFC"/>
	<path d="M 111.0,8.0 L 139.0,8.0 L 149.0,9.0 L 152.0,13.0 L 152.0,46.0 L 150.0,48.0 L 121.0,49.0 L 117.0,53.0 L 116.0,72.0 L 150.0,72.0 L 152.0,74.0 L 152.0,82.0 L 149.0,106.0 L 147.0,111.0 L 146.0,112.0 L 116.0,112.0 L 116.0,190.0 L 114.0,192.0 L 78.0,192.0 L 76.0,190.0 L 76.0,112.0 L 50.0,112.0 L 48.0,110.0 L 48.0,74.0 L 50.0,72.0 L 76.0,72.0 L 76.0,45.0 L 79.0,34.0 L 83.0,26.0 L 91.0,17.0 L 101.0,11.0 L 111.0,8.0 M 112.0,16.0 L 101.0,20.0 L 95.0,24.0 L 89.0,31.0 L 85.0,40.0 L 84.0,45.0 L 83.0,78.0 L 82.0,79.0 L 56.0,80.0 L 56.0,104.0 L 82.0,105.0 L 83.0,106.0 L 84.0,184.0 L 108.0,184.0 L 109.0,106.0 L 110.0,105.0 L 141.0,104.0 L 143.0,86.0 L 143.0,80.0 L 110.0,79.0 L 109.0,78.0 L 109.0,51.0 L 113.0,45.0 L 119.0,41.0 L 144.0,40.0 L 144.0,17.0 L 134.0,16.0 L 112.0,16.0" fill="#030303"/>
</svg>
