<?xml version="1.0" ?>
<svg baseProfile="full" height="600px" version="1.1" viewBox="-19.296000000000003 -19.296000000000003 230.592 230.592" width="600px" xmlns="http://www.w3.org/2000/svg" xmlns:ev="http://www.w3.org/2001/xml-events" xmlns:xlink="http://www.w3.org/1999/xlink">
	<defs/>
	<path d="M 0.0,0.0 L 192.0,0.0 L 192.0,192.0 L 0.0,192.0 L 0.0,0.0" fill="#468BFF"/>
	<path d="M 0.0,0.0 L 192.0,0.0 L 192.0,192.0 L 0.0,192.0 L 0.0,0.0 M 84.0,10.0 L 65.0,15.0 L 48.0,24.0 L 35.0,35.0 L 27.0,45.0 L 21.0,55.0 L 17.0,65.0 L 14.0,78.0 L 14.0,93.0 L 17.0,110.0 L 25.0,127.0 L 33.0,137.0 L 39.0,143.0 L 40.0,182.0 L 51.0,176.0 L 73.0,163.0 L 86.0,165.0 L 105.0,165.0 L 126.0,160.0 L 142.0,152.0 L 151.0,145.0 L 162.0,134.0 L 169.0,123.0 L 174.0,112.0 L 178.0,96.0 L 178.0,78.0 L 174.0,63.0 L 170.0,53.0 L 162.0,41.0 L 154.0,32.0 L 141.0,22.0 L 126.0,15.0 L 112.0,11.0 L 105.0,10.0 L 84.0,10.0" fill="#FDFDFF"/>
	<path d="M 86.0,63.0 L 93.0,69.0 L 109.0,85.0 L 114.0,84.0 L 141.0,69.0 L 152.0,63.0 L 150.0,67.0 L 140.0,77.0 L 133.0,85.0 L 121.0,98.0 L 112.0,108.0 L 106.0,115.0 L 99.0,109.0 L 83.0,93.0 L 78.0,94.0 L 54.0,107.0 L 44.0,113.0 L 42.0,113.0 L 44.0,109.0 L 51.0,102.0 L 58.0,94.0 L 69.0,82.0 L 80.0,70.0 L 86.0,63.0" fill="#FAFBFF"/>
</svg>
