<?xml version="1.0" ?>
<svg baseProfile="full" height="600px" version="1.1" viewBox="-20.1 -20.1 240.2 240.2" width="600px" xmlns="http://www.w3.org/2000/svg" xmlns:ev="http://www.w3.org/2001/xml-events" xmlns:xlink="http://www.w3.org/1999/xlink">
	<defs/>
	<path d="M 0.0,0.0 L 200.0,0.0 L 200.0,200.0 L 0.0,200.0 L 0.0,0.0" fill="#FCFCFC"/>
	<path d="M 83.0,29.0 L 173.0,29.0 L 178.0,33.0 L 179.0,39.0 L 172.0,47.0 L 173.0,52.0 L 183.0,57.0 L 184.0,59.0 L 184.0,66.0 L 178.0,73.0 L 179.0,78.0 L 185.0,82.0 L 187.0,84.0 L 187.0,91.0 L 182.0,96.0 L 181.0,97.0 L 181.0,102.0 L 189.0,108.0 L 190.0,110.0 L 190.0,116.0 L 186.0,121.0 L 184.0,122.0 L 112.0,123.0 L 111.0,124.0 L 111.0,131.0 L 114.0,142.0 L 113.0,151.0 L 109.0,161.0 L 105.0,166.0 L 97.0,166.0 L 95.0,148.0 L 94.0,145.0 L 90.0,143.0 L 77.0,118.0 L 76.0,111.0 L 69.0,109.0 L 69.0,38.0 L 77.0,37.0 L 80.0,34.0 L 83.0,29.0" fill="#FCFCFC"/>
	<path d="M 15.0,21.0 L 66.0,21.0 L 68.0,22.0 L 68.0,29.0 L 73.0,28.0 L 77.0,23.0 L 81.0,21.0 L 175.0,21.0 L 181.0,24.0 L 186.0,30.0 L 187.0,32.0 L 187.0,42.0 L 185.0,48.0 L 190.0,53.0 L 193.0,58.0 L 193.0,66.0 L 190.0,75.0 L 195.0,81.0 L 196.0,85.0 L 196.0,92.0 L 193.0,97.0 L 194.0,101.0 L 198.0,107.0 L 198.0,119.0 L 194.0,125.0 L 189.0,129.0 L 186.0,130.0 L 119.0,130.0 L 122.0,139.0 L 122.0,149.0 L 117.0,165.0 L 111.0,172.0 L 105.0,175.0 L 92.0,175.0 L 89.0,172.0 L 87.0,152.0 L 82.0,146.0 L 70.0,123.0 L 69.0,120.0 L 68.0,128.0 L 66.0,130.0 L 7.0,130.0 L 5.0,128.0 L 6.0,110.0 L 13.0,28.0 L 15.0,21.0 M 83.0,29.0 L 77.0,37.0 L 69.0,38.0 L 69.0,109.0 L 76.0,111.0 L 78.0,120.0 L 90.0,143.0 L 94.0,145.0 L 96.0,156.0 L 97.0,166.0 L 105.0,166.0 L 111.0,157.0 L 114.0,147.0 L 113.0,139.0 L 111.0,131.0 L 111.0,124.0 L 112.0,123.0 L 184.0,122.0 L 189.0,118.0 L 190.0,116.0 L 190.0,110.0 L 185.0,105.0 L 181.0,102.0 L 181.0,97.0 L 186.0,93.0 L 187.0,91.0 L 187.0,84.0 L 181.0,79.0 L 178.0,77.0 L 179.0,71.0 L 184.0,66.0 L 184.0,59.0 L 180.0,55.0 L 172.0,51.0 L 173.0,46.0 L 179.0,39.0 L 178.0,33.0 L 173.0,29.0 L 83.0,29.0" fill="#060606"/>
	<path d="M 22.0,29.0 L 60.0,29.0 L 60.0,122.0 L 14.0,122.0 L 15.0,104.0 L 20.0,42.0 L 22.0,29.0" fill="#F9F9F9"/>
	<path d="M 42.0,38.0 L 49.0,38.0 L 51.0,40.0 L 51.0,47.0 L 48.0,50.0 L 42.0,50.0 L 39.0,46.0 L 39.0,41.0 L 42.0,38.0" fill="#070707"/>
</svg>
