<?xml version="1.0" ?>
<svg baseProfile="full" height="600px" version="1.1" viewBox="-12.06 -12.06 144.12 144.12" width="600px" xmlns="http://www.w3.org/2000/svg" xmlns:ev="http://www.w3.org/2001/xml-events" xmlns:xlink="http://www.w3.org/1999/xlink">
	<defs/>
	<path d="M 0.0,0.0 L 120.0,0.0 L 120.0,120.0 L 0.0,120.0 L 0.0,0.0" fill="#030303"/>
	<path d="M 0.0,0.0 L 120.0,0.0 L 120.0,120.0 L 0.0,120.0 L 0.0,0.0 M 52.0,8.0 L 39.0,12.0 L 29.0,18.0 L 20.0,26.0 L 13.0,37.0 L 9.0,47.0 L 8.0,52.0 L 8.0,69.0 L 14.0,85.0 L 22.0,96.0 L 30.0,103.0 L 44.0,110.0 L 53.0,112.0 L 68.0,112.0 L 83.0,107.0 L 94.0,100.0 L 103.0,90.0 L 109.0,78.0 L 112.0,68.0 L 112.0,53.0 L 109.0,41.0 L 103.0,30.0 L 94.0,20.0 L 83.0,13.0 L 69.0,8.0 L 52.0,8.0" fill="#FCFCFC"/>
	<path d="M 62.0,28.0 L 79.0,28.0 L 79.0,41.0 L 68.0,42.0 L 66.0,44.0 L 65.0,55.0 L 79.0,55.0 L 78.0,67.0 L 77.0,68.0 L 65.0,68.0 L 65.0,104.0 L 51.0,104.0 L 51.0,68.0 L 38.0,68.0 L 38.0,55.0 L 51.0,55.0 L 51.0,41.0 L 55.0,33.0 L 60.0,29.0 L 62.0,28.0" fill="#F9F9F9"/>
</svg>
