<?xml version="1.0" ?>
<svg baseProfile="full" height="600px" version="1.1" viewBox="-12.06 -12.06 144.12 144.12" width="600px" xmlns="http://www.w3.org/2000/svg" xmlns:ev="http://www.w3.org/2001/xml-events" xmlns:xlink="http://www.w3.org/1999/xlink">
	<defs/>
	<path d="M 0.0,0.0 L 120.0,0.0 L 120.0,120.0 L 0.0,120.0 L 0.0,0.0" fill="#FCFCFC"/>
	<path d="M 10.0,8.0 L 38.0,8.0 L 40.0,12.0 L 47.0,11.0 L 51.0,8.0 L 94.0,8.0 L 98.0,10.0 L 100.0,13.0 L 100.0,19.0 L 99.0,21.0 L 104.0,22.0 L 108.0,27.0 L 108.0,33.0 L 107.0,37.0 L 112.0,43.0 L 111.0,52.0 L 109.0,55.0 L 112.0,59.0 L 111.0,68.0 L 106.0,72.0 L 66.0,72.0 L 68.0,78.0 L 68.0,89.0 L 64.0,100.0 L 60.0,106.0 L 58.0,108.0 L 50.0,108.0 L 48.0,106.0 L 47.0,85.0 L 40.0,73.0 L 40.0,71.0 L 38.0,72.0 L 14.0,72.0 L 12.0,70.0 L 9.0,38.0 L 8.0,10.0 L 10.0,8.0" fill="#020202"/>
	<path d="M 16.0,16.0 L 32.0,16.0 L 32.0,64.0 L 20.0,64.0 L 18.0,46.0 L 16.0,20.0 L 16.0,16.0" fill="#F8F8F8"/>
</svg>
