<?xml version="1.0" ?>
<svg baseProfile="full" height="600px" version="1.1" viewBox="-19.296000000000003 -19.296000000000003 230.592 230.592" width="600px" xmlns="http://www.w3.org/2000/svg" xmlns:ev="http://www.w3.org/2001/xml-events" xmlns:xlink="http://www.w3.org/1999/xlink">
	<defs/>
	<path d="M 0.0,0.0 L 192.0,0.0 L 192.0,192.0 L 0.0,192.0 L 0.0,0.0" fill="#FEFDFE"/>
	<path d="M 86.0,24.0 L 159.0,24.0 L 165.0,27.0 L 168.0,32.0 L 168.0,40.0 L 165.0,45.0 L 162.0,47.0 L 159.0,47.0 L 159.0,49.0 L 163.0,50.0 L 168.0,56.0 L 168.0,64.0 L 165.0,69.0 L 162.0,71.0 L 159.0,71.0 L 159.0,73.0 L 163.0,74.0 L 168.0,80.0 L 168.0,88.0 L 165.0,93.0 L 162.0,95.0 L 159.0,95.0 L 159.0,97.0 L 163.0,98.0 L 167.0,102.0 L 168.0,104.0 L 168.0,112.0 L 165.0,117.0 L 160.0,120.0 L 123.0,120.0 L 127.0,133.0 L 128.0,140.0 L 128.0,158.0 L 125.0,164.0 L 119.0,168.0 L 111.0,168.0 L 108.0,163.0 L 103.0,146.0 L 97.0,137.0 L 83.0,122.0 L 76.0,114.0 L 73.0,111.0 L 72.0,116.0 L 20.0,116.0 L 22.0,96.0 L 26.0,70.0 L 30.0,38.0 L 32.0,28.0 L 72.0,28.0 L 73.0,33.0 L 81.0,26.0 L 86.0,24.0" fill="#FECB7F"/>
	<path d="M 32.0,28.0 L 72.0,28.0 L 72.0,116.0 L 20.0,116.0 L 22.0,96.0 L 26.0,70.0 L 30.0,38.0 L 32.0,28.0" fill="#BA69C8"/>
	<path d="M 49.0,40.0 L 57.0,41.0 L 60.0,45.0 L 60.0,51.0 L 55.0,56.0 L 49.0,56.0 L 45.0,53.0 L 44.0,45.0 L 49.0,40.0" fill="#F0DFF3"/>
	<path d="M 136.0,88.0 L 141.0,89.0 L 153.0,95.0 L 153.0,96.0 L 136.0,96.0 L 134.0,94.0 L 135.0,89.0 L 136.0,88.0" fill="#F2A35B"/>
	<path d="M 136.0,64.0 L 141.0,65.0 L 153.0,71.0 L 153.0,72.0 L 136.0,72.0 L 134.0,70.0 L 135.0,65.0 L 136.0,64.0" fill="#F2A35B"/>
	<path d="M 138.0,40.0 L 143.0,41.0 L 155.0,47.0 L 155.0,48.0 L 138.0,48.0 L 136.0,46.0 L 137.0,41.0 L 138.0,40.0" fill="#F2A35B"/>
</svg>
