<?xml version="1.0" ?>
<svg baseProfile="full" height="600px" version="1.1" viewBox="-20.1 -20.1 240.2 240.2" width="600px" xmlns="http://www.w3.org/2000/svg" xmlns:ev="http://www.w3.org/2001/xml-events" xmlns:xlink="http://www.w3.org/1999/xlink">
	<defs/>
	<path d="M 0.0,0.0 L 200.0,0.0 L 200.0,200.0 L 0.0,200.0 L 0.0,0.0" fill="#FDFDFD"/>
	<path d="M 124.0,18.0 L 143.0,18.0 L 163.0,26.0 L 173.0,31.0 L 174.0,33.0 L 173.0,42.0 L 165.0,64.0 L 164.0,65.0 L 157.0,65.0 L 143.0,61.0 L 135.0,61.0 L 131.0,66.0 L 126.0,80.0 L 136.0,83.0 L 155.0,90.0 L 157.0,92.0 L 156.0,99.0 L 143.0,125.0 L 141.0,127.0 L 134.0,126.0 L 114.0,119.0 L 111.0,129.0 L 90.0,186.0 L 87.0,191.0 L 80.0,190.0 L 46.0,177.0 L 44.0,175.0 L 45.0,168.0 L 61.0,125.0 L 69.0,104.0 L 69.0,102.0 L 49.0,94.0 L 48.0,89.0 L 59.0,59.0 L 61.0,57.0 L 69.0,58.0 L 88.0,65.0 L 91.0,56.0 L 99.0,38.0 L 106.0,29.0 L 113.0,23.0 L 121.0,19.0 L 124.0,18.0" fill="#FBFBFB"/>
	<path d="M 124.0,18.0 L 143.0,18.0 L 163.0,26.0 L 173.0,31.0 L 174.0,33.0 L 173.0,42.0 L 165.0,64.0 L 164.0,65.0 L 157.0,65.0 L 143.0,61.0 L 135.0,61.0 L 131.0,66.0 L 126.0,80.0 L 136.0,83.0 L 155.0,90.0 L 157.0,92.0 L 156.0,99.0 L 143.0,125.0 L 141.0,127.0 L 134.0,126.0 L 114.0,119.0 L 111.0,129.0 L 90.0,186.0 L 87.0,191.0 L 80.0,190.0 L 46.0,177.0 L 44.0,175.0 L 45.0,168.0 L 61.0,125.0 L 69.0,104.0 L 69.0,102.0 L 49.0,94.0 L 48.0,89.0 L 59.0,59.0 L 61.0,57.0 L 69.0,58.0 L 88.0,65.0 L 91.0,56.0 L 99.0,38.0 L 106.0,29.0 L 113.0,23.0 L 121.0,19.0 L 124.0,18.0 M 125.0,26.0 L 117.0,30.0 L 111.0,35.0 L 104.0,46.0 L 93.0,72.0 L 92.0,73.0 L 83.0,72.0 L 68.0,66.0 L 65.0,66.0 L 58.0,85.0 L 58.0,89.0 L 78.0,97.0 L 78.0,103.0 L 59.0,154.0 L 54.0,167.0 L 55.0,172.0 L 79.0,181.0 L 83.0,181.0 L 101.0,133.0 L 109.0,112.0 L 110.0,110.0 L 117.0,111.0 L 135.0,118.0 L 138.0,117.0 L 147.0,99.0 L 147.0,96.0 L 118.0,85.0 L 117.0,80.0 L 125.0,60.0 L 129.0,55.0 L 135.0,52.0 L 142.0,52.0 L 155.0,56.0 L 160.0,55.0 L 165.0,40.0 L 165.0,36.0 L 147.0,28.0 L 140.0,26.0 L 125.0,26.0" fill="#080808"/>
</svg>
