<?xml version="1.0" ?>
<svg baseProfile="full" height="600px" version="1.1" viewBox="-19.296000000000003 -19.296000000000003 230.592 230.592" width="600px" xmlns="http://www.w3.org/2000/svg" xmlns:ev="http://www.w3.org/2001/xml-events" xmlns:xlink="http://www.w3.org/1999/xlink">
	<defs/>
	<path d="M 0.0,0.0 L 192.0,0.0 L 192.0,192.0 L 0.0,192.0 L 0.0,0.0" fill="#FCFDFE"/>
	<path d="M 84.0,14.0 L 107.0,14.0 L 123.0,18.0 L 134.0,23.0 L 144.0,29.0 L 155.0,38.0 L 166.0,52.0 L 173.0,66.0 L 176.0,75.0 L 178.0,85.0 L 178.0,106.0 L 175.0,121.0 L 168.0,136.0 L 161.0,147.0 L 153.0,156.0 L 143.0,164.0 L 132.0,170.0 L 121.0,175.0 L 113.0,177.0 L 108.0,177.0 L 108.0,120.0 L 132.0,120.0 L 132.0,112.0 L 135.0,96.0 L 108.0,96.0 L 108.0,76.0 L 112.0,68.0 L 116.0,65.0 L 135.0,65.0 L 135.0,44.0 L 108.0,44.0 L 97.0,48.0 L 90.0,54.0 L 86.0,62.0 L 84.0,68.0 L 83.0,96.0 L 60.0,96.0 L 60.0,120.0 L 83.0,120.0 L 83.0,177.0 L 71.0,175.0 L 57.0,169.0 L 44.0,160.0 L 35.0,152.0 L 25.0,138.0 L 19.0,126.0 L 16.0,117.0 L 14.0,107.0 L 14.0,84.0 L 18.0,68.0 L 26.0,52.0 L 33.0,43.0 L 39.0,36.0 L 49.0,28.0 L 61.0,21.0 L 75.0,16.0 L 84.0,14.0" fill="#059CE5"/>
</svg>
