<?xml version="1.0" ?>
<svg baseProfile="full" height="600px" version="1.1" viewBox="-16.08 -16.08 192.16 192.16" width="600px" xmlns="http://www.w3.org/2000/svg" xmlns:ev="http://www.w3.org/2001/xml-events" xmlns:xlink="http://www.w3.org/1999/xlink">
	<defs/>
	<path d="M 0.0,0.0 L 160.0,0.0 L 160.0,160.0 L 0.0,160.0 L 0.0,0.0" fill="#8AB6EE"/>
	<path d="M 0.0,0.0 L 160.0,0.0 L 160.0,160.0 L 0.0,160.0 L 0.0,0.0 M 71.0,2.0 L 54.0,6.0 L 38.0,14.0 L 27.0,23.0 L 19.0,32.0 L 11.0,46.0 L 7.0,58.0 L 6.0,64.0 L 6.0,81.0 L 9.0,93.0 L 14.0,105.0 L 21.0,115.0 L 28.0,123.0 L 29.0,159.0 L 40.0,153.0 L 60.0,141.0 L 68.0,142.0 L 92.0,142.0 L 107.0,138.0 L 123.0,130.0 L 134.0,121.0 L 143.0,110.0 L 150.0,96.0 L 153.0,87.0 L 154.0,82.0 L 154.0,63.0 L 150.0,48.0 L 143.0,35.0 L 135.0,25.0 L 125.0,16.0 L 115.0,10.0 L 99.0,4.0 L 89.0,2.0 L 71.0,2.0" fill="#FCFDFD"/>
	<path d="M 71.0,2.0 L 89.0,2.0 L 105.0,6.0 L 116.0,11.0 L 126.0,17.0 L 138.0,28.0 L 147.0,42.0 L 152.0,54.0 L 154.0,63.0 L 154.0,82.0 L 151.0,93.0 L 146.0,105.0 L 139.0,115.0 L 131.0,124.0 L 118.0,133.0 L 105.0,139.0 L 92.0,142.0 L 68.0,142.0 L 60.0,141.0 L 30.0,159.0 L 29.0,159.0 L 28.0,123.0 L 19.0,113.0 L 11.0,99.0 L 7.0,86.0 L 6.0,81.0 L 6.0,64.0 L 10.0,48.0 L 17.0,35.0 L 25.0,25.0 L 34.0,17.0 L 47.0,9.0 L 54.0,6.0 L 71.0,2.0 M 68.0,7.0 L 51.0,12.0 L 40.0,18.0 L 30.0,26.0 L 22.0,35.0 L 16.0,45.0 L 13.0,52.0 L 10.0,65.0 L 10.0,78.0 L 13.0,92.0 L 17.0,101.0 L 23.0,111.0 L 32.0,121.0 L 33.0,152.0 L 47.0,144.0 L 58.0,137.0 L 65.0,137.0 L 68.0,138.0 L 91.0,138.0 L 103.0,135.0 L 115.0,130.0 L 125.0,123.0 L 134.0,115.0 L 141.0,105.0 L 146.0,95.0 L 149.0,84.0 L 150.0,77.0 L 150.0,66.0 L 146.0,50.0 L 140.0,38.0 L 132.0,28.0 L 123.0,20.0 L 111.0,13.0 L 100.0,9.0 L 93.0,7.0 L 68.0,7.0" fill="#5681BA"/>
	<path d="M 71.0,50.0 L 78.0,56.0 L 92.0,70.0 L 98.0,68.0 L 125.0,53.0 L 130.0,51.0 L 124.0,59.0 L 115.0,68.0 L 108.0,76.0 L 99.0,86.0 L 89.0,97.0 L 82.0,91.0 L 68.0,77.0 L 62.0,79.0 L 39.0,92.0 L 32.0,96.0 L 30.0,95.0 L 46.0,78.0 L 53.0,70.0 L 65.0,57.0 L 71.0,50.0" fill="#FBFCFE"/>
</svg>
