<?xml version="1.0" ?>
<svg baseProfile="full" height="600px" version="1.1" viewBox="-19.296000000000003 -19.296000000000003 230.592 230.592" width="600px" xmlns="http://www.w3.org/2000/svg" xmlns:ev="http://www.w3.org/2001/xml-events" xmlns:xlink="http://www.w3.org/1999/xlink">
	<defs/>
	<path d="M 0.0,0.0 L 192.0,0.0 L 192.0,192.0 L 0.0,192.0 L 0.0,0.0" fill="#FBFDFE"/>
	<path d="M 86.0,14.0 L 105.0,14.0 L 123.0,18.0 L 139.0,26.0 L 150.0,34.0 L 159.0,43.0 L 166.0,53.0 L 173.0,67.0 L 177.0,80.0 L 178.0,87.0 L 178.0,102.0 L 176.0,116.0 L 170.0,132.0 L 162.0,145.0 L 153.0,155.0 L 144.0,163.0 L 132.0,170.0 L 116.0,176.0 L 108.0,177.0 L 108.0,120.0 L 131.0,119.0 L 134.0,100.0 L 135.0,96.0 L 108.0,96.0 L 108.0,76.0 L 112.0,68.0 L 116.0,65.0 L 135.0,65.0 L 135.0,44.0 L 112.0,44.0 L 102.0,46.0 L 93.0,51.0 L 89.0,56.0 L 86.0,62.0 L 84.0,68.0 L 83.0,96.0 L 60.0,96.0 L 60.0,120.0 L 82.0,120.0 L 82.0,176.0 L 76.0,176.0 L 62.0,171.0 L 48.0,163.0 L 35.0,151.0 L 27.0,141.0 L 19.0,125.0 L 16.0,116.0 L 14.0,105.0 L 14.0,86.0 L 18.0,70.0 L 23.0,58.0 L 30.0,47.0 L 39.0,37.0 L 48.0,29.0 L 64.0,20.0 L 76.0,16.0 L 86.0,14.0" fill="#059CE5"/>
</svg>
