<?xml version="1.0" ?>
<svg baseProfile="full" height="600px" version="1.1" viewBox="-19.296000000000003 -19.296000000000003 230.592 230.592" width="600px" xmlns="http://www.w3.org/2000/svg" xmlns:ev="http://www.w3.org/2001/xml-events" xmlns:xlink="http://www.w3.org/1999/xlink">
	<defs/>
	<path d="M 0.0,0.0 L 192.0,0.0 L 192.0,192.0 L 0.0,192.0 L 0.0,0.0" fill="#FCFDFE"/>
	<path d="M 84.0,14.0 L 107.0,14.0 L 123.0,18.0 L 134.0,23.0 L 144.0,29.0 L 155.0,38.0 L 166.0,52.0 L 173.0,66.0 L 176.0,75.0 L 178.0,85.0 L 178.0,106.0 L 175.0,121.0 L 168.0,136.0 L 161.0,147.0 L 153.0,156.0 L 143.0,164.0 L 133.0,170.0 L 121.0,175.0 L 108.0,177.0 L 108.0,119.0 L 131.0,119.0 L 132.0,104.0 L 134.0,96.0 L 108.0,96.0 L 108.0,76.0 L 111.0,70.0 L 115.0,66.0 L 134.0,66.0 L 134.0,46.0 L 105.0,46.0 L 95.0,51.0 L 90.0,56.0 L 85.0,66.0 L 84.0,74.0 L 83.0,96.0 L 61.0,96.0 L 61.0,119.0 L 83.0,119.0 L 83.0,177.0 L 71.0,175.0 L 57.0,169.0 L 45.0,161.0 L 35.0,152.0 L 26.0,140.0 L 19.0,126.0 L 16.0,117.0 L 14.0,107.0 L 14.0,88.0 L 16.0,76.0 L 19.0,66.0 L 26.0,52.0 L 33.0,43.0 L 40.0,35.0 L 52.0,26.0 L 68.0,18.0 L 84.0,14.0" fill="#059CE5"/>
</svg>
