<?xml version="1.0" ?>
<svg baseProfile="full" height="600px" version="1.1" viewBox="-19.296000000000003 -19.296000000000003 230.592 230.592" width="600px" xmlns="http://www.w3.org/2000/svg" xmlns:ev="http://www.w3.org/2001/xml-events" xmlns:xlink="http://www.w3.org/1999/xlink">
	<defs/>
	<path d="M 0.0,0.0 L 192.0,0.0 L 192.0,192.0 L 0.0,192.0 L 0.0,0.0" fill="#FCFDFE"/>
	<path d="M 86.0,20.0 L 105.0,20.0 L 115.0,22.0 L 131.0,28.0 L 142.0,35.0 L 152.0,44.0 L 160.0,54.0 L 168.0,70.0 L 172.0,85.0 L 172.0,106.0 L 168.0,122.0 L 160.0,138.0 L 152.0,148.0 L 145.0,155.0 L 131.0,164.0 L 116.0,170.0 L 106.0,172.0 L 102.0,172.0 L 102.0,156.0 L 105.0,117.0 L 114.0,117.0 L 125.0,118.0 L 127.0,106.0 L 129.0,98.0 L 107.0,97.0 L 107.0,81.0 L 111.0,73.0 L 114.0,71.0 L 131.0,71.0 L 131.0,59.0 L 132.0,54.0 L 122.0,53.0 L 107.0,53.0 L 97.0,57.0 L 90.0,65.0 L 86.0,78.0 L 85.0,95.0 L 66.0,95.0 L 65.0,115.0 L 83.0,115.0 L 83.0,127.0 L 81.0,165.0 L 80.0,170.0 L 72.0,169.0 L 56.0,161.0 L 45.0,153.0 L 37.0,145.0 L 28.0,131.0 L 22.0,115.0 L 20.0,105.0 L 20.0,86.0 L 24.0,70.0 L 32.0,54.0 L 40.0,44.0 L 47.0,37.0 L 61.0,28.0 L 73.0,23.0 L 86.0,20.0" fill="#059CE5"/>
</svg>
