<?xml version="1.0" ?>
<svg baseProfile="full" height="600px" version="1.1" viewBox="-16.08 -16.08 192.16 192.16" width="600px" xmlns="http://www.w3.org/2000/svg" xmlns:ev="http://www.w3.org/2001/xml-events" xmlns:xlink="http://www.w3.org/1999/xlink">
	<defs/>
	<path d="M 0.0,0.0 L 160.0,0.0 L 160.0,160.0 L 0.0,160.0 L 0.0,0.0" fill="#8AB6EE"/>
	<path d="M 0.0,0.0 L 160.0,0.0 L 160.0,160.0 L 29.0,160.0 L 34.0,156.0 L 59.0,141.0 L 70.0,142.0 L 91.0,142.0 L 103.0,139.0 L 115.0,134.0 L 127.0,127.0 L 135.0,120.0 L 144.0,108.0 L 150.0,95.0 L 153.0,84.0 L 153.0,59.0 L 148.0,44.0 L 140.0,31.0 L 131.0,21.0 L 118.0,12.0 L 107.0,7.0 L 91.0,3.0 L 68.0,3.0 L 52.0,7.0 L 37.0,15.0 L 26.0,24.0 L 17.0,35.0 L 10.0,49.0 L 7.0,59.0 L 7.0,83.0 L 11.0,98.0 L 18.0,111.0 L 26.0,121.0 L 28.0,122.0 L 28.0,160.0 L 0.0,160.0 L 0.0,0.0" fill="#FCFCFD"/>
	<path d="M 68.0,2.0 L 91.0,2.0 L 110.0,7.0 L 123.0,14.0 L 134.0,23.0 L 142.0,32.0 L 149.0,44.0 L 154.0,59.0 L 154.0,84.0 L 149.0,100.0 L 143.0,111.0 L 133.0,123.0 L 121.0,132.0 L 106.0,139.0 L 96.0,142.0 L 91.0,143.0 L 70.0,143.0 L 59.0,142.0 L 29.0,160.0 L 28.0,160.0 L 28.0,122.0 L 25.0,121.0 L 17.0,111.0 L 9.0,95.0 L 6.0,83.0 L 6.0,59.0 L 11.0,44.0 L 19.0,31.0 L 29.0,20.0 L 42.0,11.0 L 55.0,5.0 L 68.0,2.0 M 69.0,6.0 L 52.0,11.0 L 40.0,17.0 L 30.0,25.0 L 22.0,34.0 L 16.0,44.0 L 12.0,53.0 L 10.0,61.0 L 10.0,82.0 L 13.0,95.0 L 20.0,108.0 L 30.0,120.0 L 33.0,120.0 L 33.0,152.0 L 44.0,146.0 L 59.0,137.0 L 75.0,139.0 L 86.0,139.0 L 98.0,137.0 L 108.0,134.0 L 121.0,127.0 L 132.0,118.0 L 140.0,108.0 L 147.0,94.0 L 149.0,88.0 L 150.0,81.0 L 150.0,62.0 L 146.0,48.0 L 140.0,37.0 L 131.0,26.0 L 120.0,17.0 L 106.0,10.0 L 96.0,7.0 L 88.0,6.0 L 69.0,6.0" fill="#5680B9"/>
	<path d="M 70.0,50.0 L 74.0,52.0 L 92.0,70.0 L 96.0,69.0 L 118.0,57.0 L 130.0,50.0 L 132.0,51.0 L 121.0,62.0 L 114.0,70.0 L 102.0,83.0 L 93.0,93.0 L 90.0,97.0 L 86.0,95.0 L 68.0,77.0 L 62.0,79.0 L 33.0,95.0 L 30.0,96.0 L 32.0,92.0 L 48.0,75.0 L 55.0,67.0 L 67.0,54.0 L 70.0,50.0" fill="#FBFCFE"/>
</svg>
