<?xml version="1.0" ?>
<svg baseProfile="full" height="600px" version="1.1" viewBox="-9.648000000000001 -9.648000000000001 115.296 115.296" width="600px" xmlns="http://www.w3.org/2000/svg" xmlns:ev="http://www.w3.org/2001/xml-events" xmlns:xlink="http://www.w3.org/1999/xlink">
	<defs/>
	<path d="M 0.0,0.0 L 96.0,0.0 L 96.0,96.0 L 0.0,96.0 L 0.0,0.0" fill="#030303"/>
	<path d="M 0.0,0.0 L 96.0,0.0 L 96.0,96.0 L 0.0,96.0 L 0.0,0.0 M 43.0,5.0 L 33.0,7.0 L 23.0,12.0 L 13.0,21.0 L 7.0,32.0 L 5.0,38.0 L 5.0,52.0 L 9.0,64.0 L 17.0,75.0 L 18.0,93.0 L 24.0,91.0 L 34.0,86.0 L 41.0,87.0 L 55.0,87.0 L 65.0,84.0 L 75.0,78.0 L 82.0,72.0 L 88.0,62.0 L 91.0,51.0 L 91.0,38.0 L 87.0,28.0 L 81.0,19.0 L 73.0,12.0 L 63.0,7.0 L 53.0,5.0 L 43.0,5.0" fill="#FBFBFB"/>
	<path d="M 43.0,34.0 L 49.0,38.0 L 54.0,42.0 L 59.0,41.0 L 74.0,34.0 L 76.0,35.0 L 54.0,57.0 L 50.0,56.0 L 41.0,49.0 L 24.0,56.0 L 22.0,55.0 L 43.0,34.0" fill="#F4F4F4"/>
</svg>
