<?xml version="1.0" ?>
<svg baseProfile="full" height="600px" version="1.1" viewBox="-19.296000000000003 -19.296000000000003 230.592 230.592" width="600px" xmlns="http://www.w3.org/2000/svg" xmlns:ev="http://www.w3.org/2001/xml-events" xmlns:xlink="http://www.w3.org/1999/xlink">
	<defs/>
	<path d="M 0.0,0.0 L 192.0,0.0 L 192.0,192.0 L 0.0,192.0 L 0.0,0.0" fill="#FEFDFE"/>
	<path d="M 134.0,48.0 L 140.0,48.0 L 145.0,54.0 L 145.0,56.0 L 161.0,56.0 L 166.0,59.0 L 169.0,63.0 L 169.0,73.0 L 164.0,78.0 L 161.0,80.0 L 166.0,83.0 L 169.0,87.0 L 169.0,97.0 L 164.0,102.0 L 161.0,103.0 L 167.0,110.0 L 168.0,112.0 L 168.0,120.0 L 163.0,126.0 L 159.0,128.0 L 165.0,132.0 L 167.0,136.0 L 167.0,143.0 L 163.0,149.0 L 158.0,152.0 L 87.0,152.0 L 77.0,147.0 L 73.0,143.0 L 72.0,148.0 L 26.0,148.0 L 24.0,105.0 L 23.0,60.0 L 72.0,60.0 L 73.0,65.0 L 78.0,60.0 L 85.0,56.0 L 122.0,55.0 L 134.0,48.0" fill="#FECB7F"/>
	<path d="M 23.0,60.0 L 72.0,60.0 L 72.0,148.0 L 26.0,148.0 L 24.0,105.0 L 23.0,60.0" fill="#BB6AC9"/>
	<path d="M 50.0,103.0 L 56.0,104.0 L 60.0,108.0 L 60.0,114.0 L 56.0,119.0 L 48.0,119.0 L 44.0,114.0 L 44.0,108.0 L 50.0,103.0" fill="#F1E0F3"/>
</svg>
