<?xml version="1.0" ?>
<svg baseProfile="full" height="600px" version="1.1" viewBox="-16.08 -16.08 192.16 192.16" width="600px" xmlns="http://www.w3.org/2000/svg" xmlns:ev="http://www.w3.org/2001/xml-events" xmlns:xlink="http://www.w3.org/1999/xlink">
	<defs/>
	<path d="M 0.0,0.0 L 160.0,0.0 L 160.0,160.0 L 0.0,160.0 L 0.0,0.0" fill="#8AB6EE"/>
	<path d="M 0.0,0.0 L 160.0,0.0 L 160.0,160.0 L 0.0,160.0 L 0.0,0.0 M 71.0,1.0 L 60.0,3.0 L 47.0,8.0 L 36.0,14.0 L 26.0,22.0 L 19.0,29.0 L 10.0,43.0 L 5.0,54.0 L 2.0,64.0 L 1.0,71.0 L 1.0,90.0 L 5.0,106.0 L 13.0,122.0 L 21.0,133.0 L 29.0,141.0 L 43.0,150.0 L 54.0,155.0 L 70.0,159.0 L 89.0,159.0 L 102.0,156.0 L 115.0,151.0 L 127.0,144.0 L 139.0,133.0 L 148.0,121.0 L 154.0,108.0 L 158.0,95.0 L 159.0,89.0 L 159.0,70.0 L 155.0,54.0 L 147.0,38.0 L 139.0,27.0 L 131.0,19.0 L 117.0,10.0 L 105.0,5.0 L 100.0,3.0 L 90.0,1.0 L 71.0,1.0" fill="#FCFCFD"/>
	<path d="M 87.0,24.0 L 108.0,24.0 L 108.0,43.0 L 93.0,44.0 L 90.0,47.0 L 89.0,62.0 L 107.0,62.0 L 106.0,76.0 L 105.0,80.0 L 89.0,80.0 L 89.0,135.0 L 66.0,135.0 L 66.0,80.0 L 52.0,80.0 L 52.0,61.0 L 66.0,61.0 L 66.0,42.0 L 70.0,33.0 L 77.0,27.0 L 87.0,24.0" fill="#FCFDFE"/>
	<path d="M 71.0,1.0 L 90.0,1.0 L 102.0,4.0 L 115.0,9.0 L 127.0,16.0 L 139.0,27.0 L 148.0,39.0 L 155.0,54.0 L 159.0,70.0 L 159.0,89.0 L 156.0,102.0 L 151.0,115.0 L 144.0,127.0 L 133.0,139.0 L 121.0,148.0 L 108.0,154.0 L 95.0,158.0 L 89.0,159.0 L 70.0,159.0 L 54.0,155.0 L 38.0,147.0 L 27.0,139.0 L 19.0,131.0 L 10.0,117.0 L 5.0,106.0 L 1.0,90.0 L 1.0,71.0 L 3.0,60.0 L 8.0,47.0 L 14.0,36.0 L 22.0,26.0 L 29.0,19.0 L 43.0,10.0 L 54.0,5.0 L 64.0,2.0 L 71.0,1.0 M 67.0,6.0 L 53.0,10.0 L 39.0,17.0 L 28.0,26.0 L 19.0,36.0 L 11.0,50.0 L 7.0,62.0 L 6.0,67.0 L 6.0,92.0 L 9.0,105.0 L 17.0,121.0 L 26.0,132.0 L 35.0,140.0 L 48.0,148.0 L 58.0,152.0 L 66.0,154.0 L 93.0,154.0 L 110.0,149.0 L 124.0,141.0 L 137.0,129.0 L 144.0,119.0 L 150.0,107.0 L 154.0,93.0 L 154.0,66.0 L 150.0,53.0 L 143.0,39.0 L 135.0,29.0 L 128.0,22.0 L 114.0,13.0 L 102.0,8.0 L 92.0,6.0 L 67.0,6.0" fill="#5781BA"/>
</svg>
