<?xml version="1.0" ?>
<svg baseProfile="full" height="600px" version="1.1" viewBox="-20.1 -20.1 240.2 240.2" width="600px" xmlns="http://www.w3.org/2000/svg" xmlns:ev="http://www.w3.org/2001/xml-events" xmlns:xlink="http://www.w3.org/1999/xlink">
	<defs/>
	<path d="M 0.0,0.0 L 200.0,0.0 L 200.0,200.0 L 0.0,200.0 L 0.0,0.0" fill="#FCFCFC"/>
	<path d="M 0.0,0.0 L 200.0,0.0 L 200.0,200.0 L 0.0,200.0 L 0.0,0.0 M 90.0,8.0 L 76.0,10.0 L 62.0,15.0 L 48.0,22.0 L 38.0,30.0 L 28.0,39.0 L 19.0,52.0 L 12.0,66.0 L 9.0,76.0 L 8.0,85.0 L 8.0,103.0 L 10.0,114.0 L 14.0,126.0 L 21.0,139.0 L 29.0,149.0 L 39.0,159.0 L 40.0,194.0 L 46.0,192.0 L 73.0,178.0 L 83.0,179.0 L 87.0,180.0 L 110.0,180.0 L 130.0,176.0 L 142.0,171.0 L 153.0,165.0 L 162.0,158.0 L 171.0,150.0 L 181.0,136.0 L 187.0,124.0 L 191.0,111.0 L 192.0,104.0 L 192.0,85.0 L 191.0,76.0 L 186.0,61.0 L 178.0,47.0 L 167.0,34.0 L 155.0,24.0 L 145.0,18.0 L 131.0,12.0 L 113.0,8.0 L 90.0,8.0" fill="#FCFCFC"/>
	<path d="M 90.0,8.0 L 113.0,8.0 L 131.0,12.0 L 146.0,19.0 L 156.0,25.0 L 169.0,36.0 L 180.0,50.0 L 188.0,66.0 L 191.0,76.0 L 192.0,85.0 L 192.0,104.0 L 189.0,118.0 L 183.0,133.0 L 174.0,146.0 L 165.0,156.0 L 152.0,166.0 L 133.0,175.0 L 117.0,179.0 L 110.0,180.0 L 87.0,180.0 L 79.0,178.0 L 73.0,178.0 L 42.0,194.0 L 40.0,194.0 L 39.0,159.0 L 26.0,146.0 L 17.0,132.0 L 12.0,121.0 L 9.0,111.0 L 8.0,103.0 L 8.0,85.0 L 9.0,76.0 L 13.0,64.0 L 20.0,50.0 L 30.0,37.0 L 41.0,27.0 L 52.0,20.0 L 64.0,14.0 L 80.0,9.0 L 90.0,8.0 M 87.0,16.0 L 68.0,21.0 L 52.0,29.0 L 42.0,37.0 L 32.0,47.0 L 23.0,61.0 L 18.0,74.0 L 16.0,84.0 L 16.0,104.0 L 19.0,116.0 L 24.0,128.0 L 30.0,138.0 L 39.0,148.0 L 47.0,155.0 L 48.0,181.0 L 54.0,179.0 L 73.0,169.0 L 91.0,172.0 L 109.0,172.0 L 125.0,169.0 L 138.0,164.0 L 149.0,158.0 L 159.0,150.0 L 168.0,141.0 L 175.0,130.0 L 180.0,119.0 L 184.0,105.0 L 184.0,86.0 L 181.0,71.0 L 176.0,59.0 L 167.0,46.0 L 155.0,34.0 L 142.0,26.0 L 131.0,21.0 L 112.0,16.0 L 87.0,16.0" fill="#070707"/>
	<path d="M 154.0,73.0 L 154.0,76.0 L 140.0,93.0 L 127.0,110.0 L 113.0,127.0 L 109.0,127.0 L 94.0,114.0 L 87.0,108.0 L 82.0,110.0 L 62.0,124.0 L 50.0,132.0 L 47.0,132.0 L 59.0,116.0 L 71.0,101.0 L 81.0,88.0 L 88.0,79.0 L 93.0,81.0 L 100.0,88.0 L 108.0,95.0 L 114.0,100.0 L 125.0,93.0 L 153.0,74.0 L 154.0,73.0" fill="#040404"/>
</svg>
