<?xml version="1.0" ?>
<svg baseProfile="full" height="600px" version="1.1" viewBox="-20.1 -20.1 240.2 240.2" width="600px" xmlns="http://www.w3.org/2000/svg" xmlns:ev="http://www.w3.org/2001/xml-events" xmlns:xlink="http://www.w3.org/1999/xlink">
	<defs/>
	<path d="M 0.0,0.0 L 200.0,0.0 L 200.0,200.0 L 0.0,200.0 L 0.0,0.0" fill="#FDFDFD"/>
	<path d="M 77.0,25.0 L 90.0,25.0 L 103.0,29.0 L 117.0,35.0 L 134.0,46.0 L 138.0,51.0 L 148.0,58.0 L 157.0,68.0 L 163.0,73.0 L 169.0,84.0 L 170.0,90.0 L 170.0,100.0 L 159.0,123.0 L 153.0,134.0 L 147.0,144.0 L 137.0,163.0 L 128.0,171.0 L 121.0,174.0 L 104.0,174.0 L 77.0,163.0 L 44.0,148.0 L 38.0,144.0 L 33.0,139.0 L 29.0,134.0 L 26.0,127.0 L 26.0,111.0 L 30.0,96.0 L 41.0,66.0 L 50.0,46.0 L 57.0,36.0 L 65.0,30.0 L 77.0,25.0" fill="#FBFBFB"/>
	<path d="M 77.0,25.0 L 90.0,25.0 L 103.0,29.0 L 117.0,35.0 L 134.0,46.0 L 138.0,51.0 L 148.0,58.0 L 157.0,68.0 L 163.0,73.0 L 169.0,84.0 L 170.0,90.0 L 170.0,100.0 L 159.0,123.0 L 153.0,134.0 L 147.0,144.0 L 137.0,163.0 L 128.0,171.0 L 121.0,174.0 L 104.0,174.0 L 77.0,163.0 L 44.0,148.0 L 38.0,144.0 L 33.0,139.0 L 29.0,134.0 L 26.0,127.0 L 26.0,111.0 L 30.0,96.0 L 41.0,66.0 L 50.0,46.0 L 57.0,36.0 L 65.0,30.0 L 77.0,25.0 M 78.0,33.0 L 66.0,39.0 L 58.0,48.0 L 49.0,68.0 L 40.0,93.0 L 34.0,110.0 L 34.0,124.0 L 39.0,134.0 L 46.0,140.0 L 70.0,151.0 L 81.0,156.0 L 83.0,156.0 L 97.0,121.0 L 98.0,116.0 L 92.0,113.0 L 98.0,98.0 L 98.0,95.0 L 103.0,97.0 L 107.0,96.0 L 113.0,84.0 L 122.0,78.0 L 131.0,78.0 L 141.0,82.0 L 149.0,88.0 L 151.0,88.0 L 145.0,102.0 L 145.0,104.0 L 133.0,100.0 L 129.0,101.0 L 128.0,106.0 L 138.0,111.0 L 141.0,113.0 L 132.0,128.0 L 125.0,127.0 L 119.0,126.0 L 108.0,153.0 L 104.0,163.0 L 105.0,166.0 L 118.0,166.0 L 125.0,163.0 L 130.0,159.0 L 142.0,136.0 L 148.0,126.0 L 156.0,110.0 L 161.0,101.0 L 162.0,97.0 L 162.0,89.0 L 157.0,79.0 L 152.0,74.0 L 146.0,69.0 L 139.0,61.0 L 132.0,56.0 L 127.0,51.0 L 111.0,41.0 L 91.0,33.0 L 78.0,33.0" fill="#090909"/>
	<path d="M 123.0,82.0 L 130.0,82.0 L 142.0,88.0 L 144.0,90.0 L 143.0,96.0 L 142.0,98.0 L 134.0,96.0 L 128.0,96.0 L 125.0,99.0 L 122.0,109.0 L 134.0,114.0 L 132.0,119.0 L 130.0,123.0 L 124.0,122.0 L 116.0,119.0 L 115.0,124.0 L 103.0,154.0 L 99.0,162.0 L 93.0,161.0 L 88.0,158.0 L 89.0,152.0 L 104.0,115.0 L 105.0,113.0 L 99.0,112.0 L 98.0,109.0 L 101.0,102.0 L 107.0,103.0 L 109.0,104.0 L 112.0,95.0 L 118.0,85.0 L 123.0,82.0" fill="#F7F7F7"/>
</svg>
