<?xml version="1.0" ?>
<svg baseProfile="full" height="600px" version="1.1" viewBox="-20.1 -20.1 240.2 240.2" width="600px" xmlns="http://www.w3.org/2000/svg" xmlns:ev="http://www.w3.org/2001/xml-events" xmlns:xlink="http://www.w3.org/1999/xlink">
	<defs/>
	<path d="M 0.0,0.0 L 200.0,0.0 L 200.0,200.0 L 0.0,200.0 L 0.0,0.0" fill="#FDFDFD"/>
	<path d="M 178.0,132.0 L 183.0,133.0 L 184.0,134.0 L 184.0,165.0 L 180.0,174.0 L 173.0,181.0 L 165.0,184.0 L 138.0,184.0 L 136.0,182.0 L 137.0,177.0 L 138.0,176.0 L 164.0,175.0 L 172.0,170.0 L 175.0,164.0 L 176.0,134.0 L 178.0,132.0" fill="#040404"/>
	<path d="M 18.0,132.0 L 23.0,133.0 L 24.0,134.0 L 25.0,164.0 L 29.0,171.0 L 35.0,175.0 L 62.0,176.0 L 64.0,178.0 L 63.0,183.0 L 62.0,184.0 L 34.0,184.0 L 26.0,180.0 L 18.0,171.0 L 16.0,165.0 L 16.0,134.0 L 18.0,132.0" fill="#040404"/>
	<path d="M 138.0,16.0 L 165.0,16.0 L 174.0,20.0 L 181.0,27.0 L 184.0,34.0 L 184.0,62.0 L 182.0,64.0 L 177.0,63.0 L 176.0,62.0 L 175.0,36.0 L 171.0,29.0 L 164.0,25.0 L 138.0,24.0 L 136.0,22.0 L 137.0,17.0 L 138.0,16.0" fill="#040404"/>
	<path d="M 34.0,16.0 L 62.0,16.0 L 64.0,18.0 L 63.0,23.0 L 62.0,24.0 L 35.0,25.0 L 29.0,29.0 L 25.0,35.0 L 24.0,62.0 L 22.0,64.0 L 17.0,63.0 L 16.0,62.0 L 16.0,34.0 L 20.0,26.0 L 27.0,19.0 L 34.0,16.0" fill="#040404"/>
	<path d="M 74.0,132.0 L 79.0,133.0 L 89.0,138.0 L 92.0,139.0 L 107.0,139.0 L 118.0,135.0 L 122.0,132.0 L 127.0,133.0 L 128.0,138.0 L 120.0,144.0 L 113.0,147.0 L 106.0,148.0 L 91.0,148.0 L 80.0,144.0 L 72.0,138.0 L 73.0,133.0 L 74.0,132.0" fill="#080808"/>
	<path d="M 102.0,72.0 L 107.0,73.0 L 108.0,74.0 L 108.0,112.0 L 105.0,117.0 L 99.0,120.0 L 90.0,120.0 L 88.0,118.0 L 89.0,113.0 L 90.0,112.0 L 98.0,111.0 L 99.0,110.0 L 100.0,74.0 L 102.0,72.0" fill="#030303"/>
	<path d="M 134.0,72.0 L 139.0,73.0 L 140.0,74.0 L 140.0,90.0 L 138.0,92.0 L 133.0,91.0 L 132.0,90.0 L 132.0,74.0 L 134.0,72.0" fill="#040404"/>
	<path d="M 62.0,72.0 L 67.0,73.0 L 68.0,74.0 L 68.0,90.0 L 66.0,92.0 L 61.0,91.0 L 60.0,90.0 L 60.0,74.0 L 62.0,72.0" fill="#040404"/>
</svg>
