<?xml version="1.0" ?>
<svg baseProfile="full" height="600px" version="1.1" viewBox="-19.296000000000003 -19.296000000000003 230.592 230.592" width="600px" xmlns="http://www.w3.org/2000/svg" xmlns:ev="http://www.w3.org/2001/xml-events" xmlns:xlink="http://www.w3.org/1999/xlink">
	<defs/>
	<path d="M 0.0,0.0 L 192.0,0.0 L 192.0,192.0 L 0.0,192.0 L 0.0,0.0" fill="#458BFF"/>
	<path d="M 0.0,0.0 L 192.0,0.0 L 192.0,192.0 L 0.0,192.0 L 0.0,0.0 M 86.0,11.0 L 69.0,15.0 L 58.0,20.0 L 46.0,27.0 L 33.0,39.0 L 26.0,49.0 L 19.0,63.0 L 16.0,74.0 L 16.0,99.0 L 20.0,114.0 L 27.0,128.0 L 36.0,139.0 L 40.0,143.0 L 41.0,180.0 L 46.0,178.0 L 73.0,162.0 L 86.0,164.0 L 106.0,164.0 L 122.0,160.0 L 135.0,155.0 L 147.0,147.0 L 159.0,136.0 L 166.0,126.0 L 172.0,114.0 L 175.0,105.0 L 176.0,98.0 L 176.0,74.0 L 171.0,58.0 L 164.0,46.0 L 156.0,36.0 L 146.0,27.0 L 135.0,20.0 L 116.0,13.0 L 106.0,11.0 L 86.0,11.0" fill="#FCFDFF"/>
	<path d="M 86.0,64.0 L 90.0,66.0 L 109.0,85.0 L 114.0,84.0 L 141.0,69.0 L 149.0,64.0 L 151.0,65.0 L 135.0,82.0 L 126.0,92.0 L 117.0,102.0 L 106.0,114.0 L 102.0,112.0 L 83.0,93.0 L 78.0,94.0 L 55.0,107.0 L 43.0,114.0 L 41.0,113.0 L 48.0,106.0 L 55.0,98.0 L 68.0,84.0 L 75.0,76.0 L 86.0,64.0" fill="#F9FBFF"/>
</svg>
