<?xml version="1.0" ?>
<svg baseProfile="full" height="600px" version="1.1" viewBox="-19.296000000000003 -19.296000000000003 230.592 230.592" width="600px" xmlns="http://www.w3.org/2000/svg" xmlns:ev="http://www.w3.org/2001/xml-events" xmlns:xlink="http://www.w3.org/1999/xlink">
	<defs/>
	<path d="M 0.0,0.0 L 192.0,0.0 L 192.0,192.0 L 0.0,192.0 L 0.0,0.0" fill="#FEFDFE"/>
	<path d="M 86.0,48.0 L 159.0,48.0 L 165.0,51.0 L 168.0,55.0 L 168.0,64.0 L 164.0,70.0 L 159.0,71.0 L 159.0,73.0 L 164.0,74.0 L 168.0,79.0 L 168.0,88.0 L 164.0,94.0 L 160.0,95.0 L 160.0,97.0 L 164.0,99.0 L 168.0,104.0 L 168.0,112.0 L 165.0,117.0 L 162.0,119.0 L 159.0,119.0 L 159.0,121.0 L 164.0,122.0 L 168.0,127.0 L 168.0,136.0 L 164.0,142.0 L 159.0,144.0 L 86.0,144.0 L 78.0,140.0 L 73.0,135.0 L 72.0,140.0 L 24.0,140.0 L 24.0,52.0 L 72.0,52.0 L 73.0,57.0 L 81.0,50.0 L 86.0,48.0" fill="#FECB7F"/>
	<path d="M 24.0,52.0 L 72.0,52.0 L 72.0,140.0 L 24.0,140.0 L 24.0,52.0" fill="#BB6AC9"/>
	<path d="M 49.0,88.0 L 57.0,89.0 L 60.0,93.0 L 60.0,99.0 L 55.0,104.0 L 49.0,104.0 L 45.0,101.0 L 44.0,93.0 L 49.0,88.0" fill="#F0DFF3"/>
</svg>
