<?xml version="1.0" ?>
<svg baseProfile="full" height="600px" version="1.1" viewBox="-19.296000000000003 -19.296000000000003 230.592 230.592" width="600px" xmlns="http://www.w3.org/2000/svg" xmlns:ev="http://www.w3.org/2001/xml-events" xmlns:xlink="http://www.w3.org/1999/xlink">
	<defs/>
	<path d="M 0.0,0.0 L 192.0,0.0 L 192.0,192.0 L 0.0,192.0 L 0.0,0.0" fill="#FBFDFE"/>
	<path d="M 82.0,16.0 L 107.0,16.0 L 124.0,20.0 L 140.0,28.0 L 149.0,35.0 L 160.0,46.0 L 168.0,59.0 L 173.0,70.0 L 176.0,83.0 L 176.0,108.0 L 174.0,117.0 L 169.0,131.0 L 162.0,143.0 L 153.0,153.0 L 146.0,160.0 L 133.0,168.0 L 121.0,173.0 L 113.0,175.0 L 108.0,175.0 L 108.0,119.0 L 131.0,119.0 L 132.0,106.0 L 134.0,96.0 L 108.0,96.0 L 108.0,76.0 L 112.0,68.0 L 117.0,65.0 L 134.0,65.0 L 134.0,45.0 L 108.0,45.0 L 97.0,49.0 L 90.0,55.0 L 85.0,66.0 L 84.0,70.0 L 83.0,96.0 L 61.0,96.0 L 61.0,119.0 L 83.0,119.0 L 83.0,175.0 L 75.0,174.0 L 65.0,171.0 L 52.0,164.0 L 43.0,157.0 L 32.0,146.0 L 24.0,133.0 L 19.0,121.0 L 16.0,107.0 L 16.0,82.0 L 20.0,68.0 L 28.0,52.0 L 35.0,43.0 L 46.0,32.0 L 59.0,24.0 L 70.0,19.0 L 82.0,16.0" fill="#059CE5"/>
</svg>
