<?xml version="1.0" ?>
<svg baseProfile="full" height="600px" version="1.1" viewBox="-20.1 -20.1 240.2 240.2" width="600px" xmlns="http://www.w3.org/2000/svg" xmlns:ev="http://www.w3.org/2001/xml-events" xmlns:xlink="http://www.w3.org/1999/xlink">
	<defs/>
	<path d="M 0.0,0.0 L 200.0,0.0 L 200.0,200.0 L 0.0,200.0 L 0.0,0.0" fill="#FDFDFD"/>
	<path d="M 35.0,31.0 L 44.0,32.0 L 61.0,38.0 L 63.0,41.0 L 64.0,60.0 L 69.0,65.0 L 80.0,71.0 L 82.0,71.0 L 95.0,43.0 L 100.0,42.0 L 123.0,55.0 L 129.0,59.0 L 130.0,64.0 L 125.0,75.0 L 125.0,79.0 L 158.0,94.0 L 189.0,108.0 L 190.0,109.0 L 190.0,115.0 L 175.0,147.0 L 168.0,163.0 L 165.0,166.0 L 160.0,165.0 L 124.0,149.0 L 96.0,136.0 L 95.0,141.0 L 90.0,150.0 L 85.0,151.0 L 55.0,137.0 L 54.0,132.0 L 63.0,112.0 L 62.0,108.0 L 46.0,98.0 L 36.0,92.0 L 26.0,83.0 L 21.0,74.0 L 20.0,70.0 L 20.0,56.0 L 28.0,40.0 L 35.0,31.0" fill="#FBFBFB"/>
	<path d="M 35.0,31.0 L 44.0,32.0 L 61.0,38.0 L 63.0,41.0 L 64.0,60.0 L 69.0,65.0 L 80.0,71.0 L 82.0,71.0 L 95.0,43.0 L 100.0,42.0 L 123.0,55.0 L 129.0,59.0 L 130.0,64.0 L 125.0,75.0 L 125.0,79.0 L 158.0,94.0 L 189.0,108.0 L 190.0,109.0 L 190.0,115.0 L 175.0,147.0 L 168.0,163.0 L 165.0,166.0 L 160.0,165.0 L 124.0,149.0 L 96.0,136.0 L 95.0,141.0 L 90.0,150.0 L 85.0,151.0 L 55.0,137.0 L 54.0,132.0 L 63.0,112.0 L 62.0,108.0 L 46.0,98.0 L 36.0,92.0 L 26.0,83.0 L 21.0,74.0 L 20.0,70.0 L 20.0,56.0 L 28.0,40.0 L 35.0,31.0 M 38.0,40.0 L 30.0,53.0 L 28.0,58.0 L 28.0,69.0 L 32.0,77.0 L 36.0,82.0 L 50.0,91.0 L 66.0,101.0 L 70.0,104.0 L 72.0,104.0 L 72.0,112.0 L 64.0,129.0 L 65.0,133.0 L 83.0,141.0 L 86.0,141.0 L 92.0,128.0 L 98.0,128.0 L 139.0,147.0 L 159.0,156.0 L 162.0,156.0 L 177.0,124.0 L 181.0,114.0 L 165.0,106.0 L 126.0,88.0 L 115.0,83.0 L 116.0,76.0 L 121.0,65.0 L 121.0,63.0 L 101.0,52.0 L 98.0,55.0 L 86.0,81.0 L 80.0,80.0 L 63.0,71.0 L 57.0,64.0 L 56.0,61.0 L 55.0,44.0 L 42.0,40.0 L 38.0,40.0" fill="#080808"/>
</svg>
