<?xml version="1.0" ?>
<svg baseProfile="full" height="600px" version="1.1" viewBox="-20.1 -20.1 240.2 240.2" width="600px" xmlns="http://www.w3.org/2000/svg" xmlns:ev="http://www.w3.org/2001/xml-events" xmlns:xlink="http://www.w3.org/1999/xlink">
	<defs/>
	<path d="M 0.0,0.0 L 200.0,0.0 L 200.0,200.0 L 0.0,200.0 L 0.0,0.0" fill="#FDFDFD"/>
	<path d="M 59.0,16.0 L 64.0,17.0 L 86.0,31.0 L 105.0,43.0 L 127.0,57.0 L 147.0,70.0 L 149.0,72.0 L 148.0,76.0 L 147.0,77.0 L 141.0,77.0 L 139.0,82.0 L 136.0,86.0 L 137.0,91.0 L 151.0,117.0 L 166.0,127.0 L 177.0,134.0 L 179.0,136.0 L 179.0,141.0 L 172.0,151.0 L 163.0,155.0 L 150.0,155.0 L 138.0,152.0 L 129.0,147.0 L 113.0,131.0 L 97.0,156.0 L 91.0,164.0 L 90.0,165.0 L 83.0,165.0 L 69.0,158.0 L 62.0,151.0 L 49.0,144.0 L 43.0,137.0 L 31.0,131.0 L 25.0,126.0 L 23.0,122.0 L 12.0,116.0 L 5.0,108.0 L 4.0,101.0 L 15.0,84.0 L 30.0,60.0 L 42.0,41.0 L 46.0,38.0 L 48.0,38.0 L 50.0,33.0 L 56.0,24.0 L 57.0,17.0 L 59.0,16.0" fill="#FCFCFC"/>
	<path d="M 59.0,16.0 L 64.0,17.0 L 86.0,31.0 L 105.0,43.0 L 127.0,57.0 L 147.0,70.0 L 149.0,72.0 L 148.0,76.0 L 147.0,77.0 L 141.0,77.0 L 139.0,82.0 L 136.0,86.0 L 137.0,91.0 L 151.0,117.0 L 166.0,127.0 L 177.0,134.0 L 179.0,136.0 L 179.0,141.0 L 172.0,151.0 L 163.0,155.0 L 150.0,155.0 L 138.0,152.0 L 129.0,147.0 L 113.0,131.0 L 97.0,156.0 L 91.0,164.0 L 90.0,165.0 L 83.0,165.0 L 69.0,158.0 L 62.0,151.0 L 49.0,144.0 L 43.0,137.0 L 31.0,131.0 L 25.0,126.0 L 23.0,122.0 L 12.0,116.0 L 5.0,108.0 L 4.0,101.0 L 15.0,84.0 L 30.0,60.0 L 42.0,41.0 L 46.0,38.0 L 48.0,38.0 L 50.0,33.0 L 56.0,24.0 L 57.0,17.0 L 59.0,16.0 M 62.0,30.0 L 55.0,40.0 L 50.0,45.0 L 46.0,50.0 L 34.0,69.0 L 22.0,88.0 L 13.0,102.0 L 14.0,107.0 L 23.0,113.0 L 29.0,116.0 L 33.0,122.0 L 38.0,126.0 L 48.0,130.0 L 56.0,139.0 L 68.0,145.0 L 73.0,151.0 L 82.0,156.0 L 87.0,156.0 L 97.0,141.0 L 110.0,121.0 L 114.0,120.0 L 122.0,128.0 L 129.0,136.0 L 136.0,142.0 L 146.0,146.0 L 150.0,147.0 L 162.0,147.0 L 168.0,143.0 L 169.0,139.0 L 159.0,132.0 L 145.0,123.0 L 131.0,97.0 L 128.0,92.0 L 128.0,84.0 L 133.0,76.0 L 133.0,74.0 L 107.0,58.0 L 85.0,44.0 L 66.0,32.0 L 62.0,30.0" fill="#070707"/>
</svg>
