<?xml version="1.0" ?>
<svg baseProfile="full" height="600px" version="1.1" viewBox="-19.296000000000003 -19.296000000000003 230.592 230.592" width="600px" xmlns="http://www.w3.org/2000/svg" xmlns:ev="http://www.w3.org/2001/xml-events" xmlns:xlink="http://www.w3.org/1999/xlink">
	<defs/>
	<path d="M 0.0,0.0 L 192.0,0.0 L 192.0,192.0 L 0.0,192.0 L 0.0,0.0" fill="#FCFDFE"/>
	<path d="M 86.0,20.0 L 105.0,20.0 L 115.0,22.0 L 131.0,28.0 L 142.0,35.0 L 152.0,44.0 L 160.0,54.0 L 168.0,70.0 L 172.0,85.0 L 172.0,106.0 L 168.0,122.0 L 160.0,138.0 L 152.0,148.0 L 145.0,155.0 L 131.0,164.0 L 116.0,170.0 L 106.0,172.0 L 85.0,172.0 L 70.0,168.0 L 56.0,161.0 L 56.0,158.0 L 65.0,148.0 L 74.0,137.0 L 83.0,127.0 L 90.0,118.0 L 92.0,118.0 L 92.0,120.0 L 96.0,122.0 L 105.0,130.0 L 113.0,124.0 L 120.0,118.0 L 115.0,113.0 L 104.0,103.0 L 110.0,95.0 L 118.0,88.0 L 120.0,87.0 L 126.0,87.0 L 137.0,96.0 L 141.0,94.0 L 149.0,85.0 L 143.0,78.0 L 135.0,71.0 L 126.0,67.0 L 123.0,66.0 L 114.0,66.0 L 106.0,70.0 L 96.0,79.0 L 88.0,88.0 L 84.0,86.0 L 74.0,78.0 L 70.0,80.0 L 61.0,91.0 L 66.0,96.0 L 74.0,103.0 L 72.0,107.0 L 59.0,122.0 L 47.0,136.0 L 39.0,145.0 L 37.0,145.0 L 28.0,131.0 L 22.0,115.0 L 20.0,105.0 L 20.0,86.0 L 24.0,70.0 L 32.0,54.0 L 40.0,44.0 L 47.0,37.0 L 61.0,28.0 L 73.0,23.0 L 86.0,20.0" fill="#059CE5"/>
</svg>
