<?xml version="1.0" ?>
<svg baseProfile="full" height="600px" version="1.1" viewBox="-20.1 -20.1 240.2 240.2" width="600px" xmlns="http://www.w3.org/2000/svg" xmlns:ev="http://www.w3.org/2001/xml-events" xmlns:xlink="http://www.w3.org/1999/xlink">
	<defs/>
	<path d="M 0.0,0.0 L 200.0,0.0 L 200.0,200.0 L 0.0,200.0 L 0.0,0.0" fill="#020202"/>
	<path d="M 0.0,0.0 L 200.0,0.0 L 200.0,200.0 L 0.0,200.0 L 0.0,0.0 M 52.0,8.0 L 47.0,11.0 L 44.0,16.0 L 44.0,183.0 L 47.0,188.0 L 52.0,192.0 L 147.0,192.0 L 153.0,189.0 L 156.0,183.0 L 156.0,16.0 L 150.0,9.0 L 147.0,8.0 L 52.0,8.0" fill="#FDFDFD"/>
	<path d="M 52.0,40.0 L 148.0,40.0 L 148.0,156.0 L 52.0,156.0 L 52.0,110.0 L 71.0,102.0 L 76.0,103.0 L 89.0,126.0 L 91.0,127.0 L 105.0,126.0 L 115.0,124.0 L 116.0,119.0 L 115.0,118.0 L 107.0,118.0 L 94.0,119.0 L 89.0,111.0 L 92.0,108.0 L 111.0,98.0 L 110.0,92.0 L 106.0,85.0 L 116.0,78.0 L 124.0,73.0 L 124.0,68.0 L 117.0,69.0 L 97.0,82.0 L 98.0,88.0 L 102.0,93.0 L 102.0,95.0 L 86.0,103.0 L 84.0,103.0 L 78.0,93.0 L 71.0,94.0 L 52.0,102.0 L 52.0,40.0" fill="#FCFCFC"/>
	<path d="M 52.0,164.0 L 148.0,164.0 L 148.0,182.0 L 146.0,184.0 L 54.0,184.0 L 52.0,182.0 L 52.0,164.0" fill="#FCFCFC"/>
	<path d="M 54.0,16.0 L 146.0,16.0 L 148.0,18.0 L 148.0,32.0 L 52.0,32.0 L 52.0,18.0 L 54.0,16.0" fill="#FDFDFD"/>
	<path d="M 86.0,168.0 L 114.0,168.0 L 116.0,170.0 L 115.0,175.0 L 114.0,176.0 L 86.0,176.0 L 84.0,174.0 L 85.0,169.0 L 86.0,168.0" fill="#030303"/>
</svg>
