<?xml version="1.0" ?>
<svg baseProfile="full" height="600px" version="1.1" viewBox="-12.06 -12.06 144.12 144.12" width="600px" xmlns="http://www.w3.org/2000/svg" xmlns:ev="http://www.w3.org/2001/xml-events" xmlns:xlink="http://www.w3.org/1999/xlink">
	<defs/>
	<path d="M 0.0,0.0 L 120.0,0.0 L 120.0,120.0 L 0.0,120.0 L 0.0,0.0" fill="#020202"/>
	<path d="M 0.0,0.0 L 120.0,0.0 L 120.0,120.0 L 0.0,120.0 L 0.0,0.0 M 13.0,12.0 L 8.0,17.0 L 6.0,36.0 L 6.0,83.0 L 8.0,94.0 L 12.0,99.0 L 17.0,101.0 L 32.0,103.0 L 83.0,103.0 L 101.0,101.0 L 108.0,99.0 L 112.0,94.0 L 114.0,86.0 L 114.0,49.0 L 113.0,30.0 L 110.0,23.0 L 106.0,20.0 L 93.0,18.0 L 43.0,18.0 L 41.0,14.0 L 38.0,12.0 L 13.0,12.0" fill="#FBFBFB"/>
	<path d="M 45.0,38.0 L 54.0,39.0 L 59.0,43.0 L 63.0,41.0 L 68.0,38.0 L 77.0,39.0 L 83.0,43.0 L 86.0,48.0 L 86.0,57.0 L 81.0,67.0 L 69.0,80.0 L 63.0,85.0 L 57.0,85.0 L 43.0,72.0 L 36.0,62.0 L 34.0,58.0 L 34.0,48.0 L 38.0,42.0 L 45.0,38.0" fill="#FAFAFA"/>
</svg>
