<?xml version="1.0" ?>
<svg baseProfile="full" height="600px" version="1.1" viewBox="-20.1 -20.1 240.2 240.2" width="600px" xmlns="http://www.w3.org/2000/svg" xmlns:ev="http://www.w3.org/2001/xml-events" xmlns:xlink="http://www.w3.org/1999/xlink">
	<defs/>
	<path d="M 0.0,0.0 L 200.0,0.0 L 200.0,200.0 L 0.0,200.0 L 0.0,0.0" fill="#FDFDFD"/>
	<path d="M 69.0,40.0 L 81.0,40.0 L 95.0,44.0 L 106.0,51.0 L 114.0,59.0 L 116.0,62.0 L 120.0,60.0 L 129.0,56.0 L 145.0,56.0 L 155.0,61.0 L 160.0,65.0 L 166.0,75.0 L 168.0,80.0 L 168.0,90.0 L 174.0,91.0 L 182.0,97.0 L 189.0,105.0 L 193.0,116.0 L 193.0,133.0 L 186.0,147.0 L 177.0,155.0 L 169.0,159.0 L 164.0,160.0 L 37.0,160.0 L 25.0,155.0 L 16.0,148.0 L 10.0,139.0 L 7.0,131.0 L 7.0,114.0 L 10.0,105.0 L 17.0,95.0 L 25.0,89.0 L 27.0,88.0 L 29.0,76.0 L 34.0,64.0 L 40.0,56.0 L 49.0,48.0 L 61.0,42.0 L 69.0,40.0" fill="#FBFBFB"/>
	<path d="M 69.0,40.0 L 81.0,40.0 L 95.0,44.0 L 106.0,51.0 L 114.0,59.0 L 116.0,62.0 L 120.0,60.0 L 129.0,56.0 L 145.0,56.0 L 155.0,61.0 L 160.0,65.0 L 166.0,75.0 L 168.0,80.0 L 168.0,90.0 L 174.0,91.0 L 182.0,97.0 L 189.0,105.0 L 193.0,116.0 L 193.0,133.0 L 186.0,147.0 L 177.0,155.0 L 169.0,159.0 L 164.0,160.0 L 37.0,160.0 L 25.0,155.0 L 16.0,148.0 L 10.0,139.0 L 7.0,131.0 L 7.0,114.0 L 10.0,105.0 L 17.0,95.0 L 25.0,89.0 L 27.0,88.0 L 29.0,76.0 L 34.0,64.0 L 40.0,56.0 L 49.0,48.0 L 61.0,42.0 L 69.0,40.0 M 66.0,49.0 L 56.0,53.0 L 46.0,61.0 L 40.0,70.0 L 36.0,81.0 L 35.0,91.0 L 31.0,95.0 L 25.0,99.0 L 18.0,107.0 L 15.0,114.0 L 15.0,129.0 L 19.0,138.0 L 26.0,146.0 L 38.0,152.0 L 163.0,152.0 L 173.0,148.0 L 178.0,144.0 L 184.0,134.0 L 185.0,130.0 L 185.0,116.0 L 181.0,108.0 L 176.0,102.0 L 167.0,97.0 L 161.0,95.0 L 159.0,79.0 L 154.0,71.0 L 148.0,66.0 L 144.0,64.0 L 130.0,64.0 L 122.0,69.0 L 118.0,73.0 L 113.0,73.0 L 106.0,62.0 L 98.0,55.0 L 88.0,50.0 L 84.0,49.0 L 66.0,49.0" fill="#060606"/>
	<path d="M 80.0,82.0 L 93.0,82.0 L 99.0,85.0 L 104.0,83.0 L 107.0,82.0 L 120.0,82.0 L 130.0,88.0 L 135.0,96.0 L 135.0,109.0 L 129.0,121.0 L 121.0,131.0 L 113.0,139.0 L 102.0,148.0 L 97.0,147.0 L 82.0,134.0 L 73.0,124.0 L 66.0,112.0 L 65.0,108.0 L 65.0,97.0 L 68.0,91.0 L 76.0,84.0 L 80.0,82.0" fill="#030303"/>
	<path d="M 83.0,92.0 L 90.0,92.0 L 95.0,95.0 L 99.0,99.0 L 103.0,97.0 L 109.0,92.0 L 116.0,92.0 L 122.0,95.0 L 125.0,99.0 L 125.0,108.0 L 118.0,118.0 L 107.0,130.0 L 101.0,135.0 L 97.0,133.0 L 89.0,126.0 L 80.0,116.0 L 75.0,107.0 L 75.0,100.0 L 78.0,95.0 L 83.0,92.0" fill="#272727"/>
</svg>
