<?xml version="1.0" ?>
<svg baseProfile="full" height="600px" version="1.1" viewBox="-20.1 -20.1 240.2 240.2" width="600px" xmlns="http://www.w3.org/2000/svg" xmlns:ev="http://www.w3.org/2001/xml-events" xmlns:xlink="http://www.w3.org/1999/xlink">
	<defs/>
	<path d="M 0.0,0.0 L 200.0,0.0 L 200.0,200.0 L 0.0,200.0 L 0.0,0.0" fill="#FDFDFD"/>
	<path d="M 117.0,43.0 L 132.0,43.0 L 144.0,47.0 L 153.0,53.0 L 162.0,63.0 L 167.0,74.0 L 168.0,78.0 L 168.0,89.0 L 175.0,90.0 L 185.0,96.0 L 192.0,104.0 L 197.0,115.0 L 197.0,132.0 L 192.0,144.0 L 184.0,153.0 L 173.0,159.0 L 168.0,160.0 L 35.0,160.0 L 25.0,157.0 L 16.0,151.0 L 8.0,142.0 L 3.0,130.0 L 3.0,113.0 L 7.0,103.0 L 13.0,95.0 L 20.0,89.0 L 26.0,86.0 L 28.0,76.0 L 34.0,64.0 L 43.0,56.0 L 54.0,51.0 L 72.0,51.0 L 86.0,58.0 L 90.0,61.0 L 92.0,57.0 L 101.0,49.0 L 112.0,44.0 L 117.0,43.0" fill="#FCFCFC"/>
	<path d="M 117.0,43.0 L 132.0,43.0 L 144.0,47.0 L 153.0,53.0 L 162.0,63.0 L 167.0,74.0 L 168.0,78.0 L 168.0,89.0 L 175.0,90.0 L 185.0,96.0 L 192.0,104.0 L 197.0,115.0 L 197.0,132.0 L 192.0,144.0 L 184.0,153.0 L 173.0,159.0 L 168.0,160.0 L 35.0,160.0 L 25.0,157.0 L 16.0,151.0 L 8.0,142.0 L 3.0,130.0 L 3.0,113.0 L 7.0,103.0 L 13.0,95.0 L 20.0,89.0 L 26.0,86.0 L 28.0,76.0 L 34.0,64.0 L 43.0,56.0 L 54.0,51.0 L 72.0,51.0 L 86.0,58.0 L 90.0,61.0 L 92.0,57.0 L 101.0,49.0 L 112.0,44.0 L 117.0,43.0 M 118.0,51.0 L 109.0,54.0 L 100.0,60.0 L 94.0,68.0 L 92.0,71.0 L 87.0,71.0 L 82.0,65.0 L 73.0,60.0 L 69.0,59.0 L 57.0,59.0 L 47.0,63.0 L 41.0,68.0 L 35.0,80.0 L 34.0,90.0 L 26.0,95.0 L 18.0,101.0 L 12.0,111.0 L 11.0,114.0 L 11.0,129.0 L 17.0,141.0 L 25.0,148.0 L 35.0,152.0 L 167.0,152.0 L 177.0,148.0 L 182.0,144.0 L 187.0,136.0 L 189.0,130.0 L 189.0,117.0 L 184.0,107.0 L 177.0,100.0 L 168.0,96.0 L 161.0,94.0 L 160.0,79.0 L 156.0,69.0 L 148.0,59.0 L 138.0,53.0 L 131.0,51.0 L 118.0,51.0" fill="#060606"/>
	<path d="M 83.0,83.0 L 91.0,83.0 L 101.0,86.0 L 108.0,83.0 L 116.0,83.0 L 125.0,87.0 L 130.0,92.0 L 133.0,97.0 L 133.0,109.0 L 127.0,121.0 L 118.0,132.0 L 107.0,142.0 L 102.0,146.0 L 97.0,145.0 L 87.0,136.0 L 81.0,131.0 L 73.0,121.0 L 67.0,110.0 L 67.0,97.0 L 72.0,89.0 L 80.0,84.0 L 83.0,83.0" fill="#060606"/>
	<path d="M 84.0,93.0 L 91.0,93.0 L 97.0,97.0 L 101.0,99.0 L 107.0,94.0 L 109.0,93.0 L 118.0,94.0 L 123.0,99.0 L 124.0,100.0 L 124.0,107.0 L 118.0,117.0 L 101.0,134.0 L 97.0,132.0 L 91.0,127.0 L 84.0,119.0 L 77.0,109.0 L 76.0,101.0 L 80.0,95.0 L 84.0,93.0" fill="#AAAAAA"/>
</svg>
