<?xml version="1.0" ?>
<svg baseProfile="full" height="600px" version="1.1" viewBox="-12.06 -12.06 144.12 144.12" width="600px" xmlns="http://www.w3.org/2000/svg" xmlns:ev="http://www.w3.org/2001/xml-events" xmlns:xlink="http://www.w3.org/1999/xlink">
	<defs/>
	<path d="M 0.0,0.0 L 120.0,0.0 L 120.0,120.0 L 0.0,120.0 L 0.0,0.0" fill="#020202"/>
	<path d="M 0.0,0.0 L 120.0,0.0 L 120.0,120.0 L 0.0,120.0 L 0.0,0.0 M 13.0,12.0 L 8.0,17.0 L 9.0,44.0 L 9.0,75.0 L 8.0,96.0 L 12.0,100.0 L 22.0,99.0 L 37.0,97.0 L 68.0,97.0 L 90.0,99.0 L 107.0,100.0 L 112.0,96.0 L 112.0,89.0 L 110.0,79.0 L 110.0,48.0 L 112.0,31.0 L 112.0,23.0 L 109.0,20.0 L 95.0,21.0 L 62.0,21.0 L 48.0,19.0 L 44.0,18.0 L 40.0,13.0 L 38.0,12.0 L 13.0,12.0" fill="#FCFCFC"/>
	<path d="M 49.0,47.0 L 55.0,47.0 L 61.0,49.0 L 64.0,47.0 L 70.0,47.0 L 75.0,50.0 L 77.0,54.0 L 76.0,61.0 L 70.0,69.0 L 63.0,76.0 L 59.0,77.0 L 51.0,70.0 L 45.0,63.0 L 44.0,61.0 L 44.0,52.0 L 49.0,47.0" fill="#F8F8F8"/>
</svg>
