<?xml version="1.0" ?>
<svg baseProfile="full" height="600px" version="1.1" viewBox="-20.1 -20.1 240.2 240.2" width="600px" xmlns="http://www.w3.org/2000/svg" xmlns:ev="http://www.w3.org/2001/xml-events" xmlns:xlink="http://www.w3.org/1999/xlink">
	<defs/>
	<path d="M 0.0,0.0 L 200.0,0.0 L 200.0,200.0 L 0.0,200.0 L 0.0,0.0" fill="#FDFDFD"/>
	<path d="M 72.0,37.0 L 84.0,37.0 L 96.0,40.0 L 106.0,45.0 L 116.0,53.0 L 123.0,63.0 L 128.0,61.0 L 133.0,59.0 L 148.0,59.0 L 156.0,63.0 L 162.0,68.0 L 167.0,77.0 L 168.0,81.0 L 168.0,90.0 L 173.0,91.0 L 181.0,97.0 L 188.0,105.0 L 192.0,115.0 L 192.0,133.0 L 185.0,147.0 L 176.0,155.0 L 167.0,159.0 L 162.0,160.0 L 38.0,160.0 L 26.0,155.0 L 17.0,148.0 L 11.0,139.0 L 8.0,131.0 L 8.0,114.0 L 11.0,105.0 L 17.0,96.0 L 26.0,89.0 L 28.0,89.0 L 28.0,80.0 L 32.0,67.0 L 38.0,57.0 L 48.0,47.0 L 59.0,41.0 L 72.0,37.0" fill="#FCFCFC"/>
	<path d="M 72.0,37.0 L 84.0,37.0 L 96.0,40.0 L 106.0,45.0 L 116.0,53.0 L 123.0,63.0 L 128.0,61.0 L 133.0,59.0 L 148.0,59.0 L 156.0,63.0 L 162.0,68.0 L 167.0,77.0 L 168.0,81.0 L 168.0,90.0 L 173.0,91.0 L 181.0,97.0 L 188.0,105.0 L 192.0,115.0 L 192.0,133.0 L 185.0,147.0 L 176.0,155.0 L 167.0,159.0 L 162.0,160.0 L 38.0,160.0 L 26.0,155.0 L 17.0,148.0 L 11.0,139.0 L 8.0,131.0 L 8.0,114.0 L 11.0,105.0 L 17.0,96.0 L 26.0,89.0 L 28.0,89.0 L 28.0,80.0 L 32.0,67.0 L 38.0,57.0 L 48.0,47.0 L 59.0,41.0 L 72.0,37.0 M 69.0,46.0 L 59.0,50.0 L 50.0,56.0 L 43.0,64.0 L 38.0,74.0 L 36.0,81.0 L 35.0,92.0 L 34.0,95.0 L 28.0,97.0 L 21.0,104.0 L 16.0,114.0 L 16.0,130.0 L 21.0,140.0 L 28.0,147.0 L 36.0,151.0 L 41.0,152.0 L 161.0,152.0 L 172.0,148.0 L 177.0,144.0 L 183.0,134.0 L 184.0,130.0 L 184.0,116.0 L 180.0,108.0 L 176.0,103.0 L 169.0,98.0 L 161.0,95.0 L 160.0,81.0 L 155.0,73.0 L 149.0,68.0 L 147.0,67.0 L 134.0,67.0 L 128.0,71.0 L 125.0,74.0 L 120.0,74.0 L 113.0,62.0 L 105.0,54.0 L 89.0,46.0 L 69.0,46.0" fill="#070707"/>
	<path d="M 86.0,86.0 L 95.0,87.0 L 101.0,89.0 L 108.0,86.0 L 115.0,86.0 L 123.0,90.0 L 128.0,96.0 L 130.0,100.0 L 130.0,108.0 L 123.0,122.0 L 113.0,133.0 L 102.0,142.0 L 98.0,142.0 L 88.0,133.0 L 83.0,129.0 L 75.0,119.0 L 71.0,111.0 L 70.0,107.0 L 70.0,100.0 L 75.0,92.0 L 80.0,88.0 L 86.0,86.0" fill="#070707"/>
</svg>
