<?xml version="1.0" ?>
<svg baseProfile="full" height="600px" version="1.1" viewBox="-12.06 -12.06 144.12 144.12" width="600px" xmlns="http://www.w3.org/2000/svg" xmlns:ev="http://www.w3.org/2001/xml-events" xmlns:xlink="http://www.w3.org/1999/xlink">
	<defs/>
	<path d="M 0.0,0.0 L 120.0,0.0 L 120.0,120.0 L 0.0,120.0 L 0.0,0.0" fill="#020202"/>
	<path d="M 0.0,0.0 L 120.0,0.0 L 120.0,120.0 L 0.0,120.0 L 0.0,0.0 M 13.0,12.0 L 8.0,17.0 L 8.0,95.0 L 13.0,100.0 L 107.0,100.0 L 112.0,95.0 L 112.0,24.0 L 107.0,20.0 L 53.0,20.0 L 45.0,19.0 L 40.0,13.0 L 38.0,12.0 L 13.0,12.0" fill="#FBFBFB"/>
	<path d="M 48.0,45.0 L 55.0,45.0 L 59.0,48.0 L 63.0,46.0 L 65.0,45.0 L 74.0,46.0 L 79.0,52.0 L 78.0,61.0 L 70.0,72.0 L 62.0,79.0 L 57.0,78.0 L 49.0,71.0 L 42.0,61.0 L 41.0,59.0 L 41.0,52.0 L 46.0,46.0 L 48.0,45.0" fill="#FAFAFA"/>
</svg>
