<?xml version="1.0" ?>
<svg baseProfile="full" height="600px" version="1.1" viewBox="-20.1 -20.1 240.2 240.2" width="600px" xmlns="http://www.w3.org/2000/svg" xmlns:ev="http://www.w3.org/2001/xml-events" xmlns:xlink="http://www.w3.org/1999/xlink">
	<defs/>
	<path d="M 0.0,0.0 L 200.0,0.0 L 200.0,200.0 L 0.0,200.0 L 0.0,0.0" fill="#FDFDFD"/>
	<path d="M 71.0,36.0 L 89.0,36.0 L 105.0,42.0 L 116.0,50.0 L 124.0,59.0 L 126.0,63.0 L 131.0,62.0 L 136.0,60.0 L 147.0,60.0 L 157.0,64.0 L 164.0,71.0 L 168.0,81.0 L 168.0,90.0 L 174.0,92.0 L 182.0,98.0 L 188.0,106.0 L 192.0,117.0 L 192.0,128.0 L 190.0,137.0 L 185.0,146.0 L 181.0,151.0 L 172.0,157.0 L 161.0,160.0 L 39.0,160.0 L 28.0,156.0 L 20.0,150.0 L 13.0,142.0 L 9.0,132.0 L 8.0,127.0 L 8.0,114.0 L 13.0,102.0 L 22.0,92.0 L 26.0,89.0 L 28.0,89.0 L 28.0,80.0 L 32.0,67.0 L 39.0,55.0 L 47.0,47.0 L 61.0,39.0 L 71.0,36.0" fill="#FBFBFB"/>
	<path d="M 71.0,36.0 L 89.0,36.0 L 105.0,42.0 L 116.0,50.0 L 124.0,59.0 L 126.0,63.0 L 131.0,62.0 L 136.0,60.0 L 147.0,60.0 L 157.0,64.0 L 164.0,71.0 L 168.0,81.0 L 168.0,90.0 L 174.0,92.0 L 182.0,98.0 L 188.0,106.0 L 192.0,117.0 L 192.0,128.0 L 190.0,137.0 L 185.0,146.0 L 181.0,151.0 L 172.0,157.0 L 161.0,160.0 L 39.0,160.0 L 28.0,156.0 L 20.0,150.0 L 13.0,142.0 L 9.0,132.0 L 8.0,127.0 L 8.0,114.0 L 13.0,102.0 L 22.0,92.0 L 26.0,89.0 L 28.0,89.0 L 28.0,80.0 L 32.0,67.0 L 39.0,55.0 L 47.0,47.0 L 61.0,39.0 L 71.0,36.0 M 74.0,44.0 L 63.0,47.0 L 53.0,53.0 L 46.0,59.0 L 38.0,73.0 L 36.0,81.0 L 35.0,92.0 L 34.0,95.0 L 29.0,97.0 L 22.0,103.0 L 16.0,115.0 L 16.0,128.0 L 20.0,138.0 L 26.0,145.0 L 34.0,150.0 L 40.0,152.0 L 162.0,152.0 L 171.0,148.0 L 179.0,141.0 L 184.0,129.0 L 184.0,117.0 L 179.0,107.0 L 170.0,99.0 L 161.0,95.0 L 160.0,81.0 L 154.0,72.0 L 147.0,68.0 L 137.0,68.0 L 128.0,74.0 L 123.0,75.0 L 117.0,63.0 L 106.0,52.0 L 92.0,45.0 L 88.0,44.0 L 74.0,44.0" fill="#060606"/>
	<path d="M 84.0,84.0 L 92.0,84.0 L 101.0,87.0 L 108.0,84.0 L 116.0,84.0 L 125.0,88.0 L 131.0,95.0 L 132.0,98.0 L 132.0,109.0 L 126.0,121.0 L 117.0,132.0 L 109.0,139.0 L 102.0,145.0 L 97.0,144.0 L 84.0,132.0 L 77.0,125.0 L 70.0,114.0 L 68.0,109.0 L 68.0,98.0 L 73.0,90.0 L 78.0,86.0 L 84.0,84.0" fill="#020202"/>
</svg>
