<?xml version="1.0" ?>
<svg baseProfile="full" height="600px" version="1.1" viewBox="-12.06 -12.06 144.12 144.12" width="600px" xmlns="http://www.w3.org/2000/svg" xmlns:ev="http://www.w3.org/2001/xml-events" xmlns:xlink="http://www.w3.org/1999/xlink">
	<defs/>
	<path d="M 0.0,0.0 L 120.0,0.0 L 120.0,120.0 L 0.0,120.0 L 0.0,0.0" fill="#030303"/>
	<path d="M 0.0,0.0 L 120.0,0.0 L 120.0,120.0 L 0.0,120.0 L 0.0,0.0 M 13.0,12.0 L 8.0,17.0 L 6.0,38.0 L 6.0,83.0 L 8.0,94.0 L 12.0,99.0 L 17.0,101.0 L 34.0,103.0 L 87.0,103.0 L 106.0,100.0 L 111.0,96.0 L 113.0,89.0 L 114.0,82.0 L 114.0,51.0 L 113.0,30.0 L 110.0,23.0 L 106.0,20.0 L 99.0,19.0 L 44.0,18.0 L 40.0,13.0 L 38.0,12.0 L 13.0,12.0" fill="#FBFBFB"/>
	<path d="M 43.0,40.0 L 54.0,40.0 L 59.0,43.0 L 59.0,45.0 L 61.0,45.0 L 61.0,43.0 L 66.0,40.0 L 76.0,40.0 L 82.0,44.0 L 85.0,49.0 L 85.0,56.0 L 81.0,65.0 L 72.0,76.0 L 62.0,84.0 L 56.0,83.0 L 46.0,74.0 L 37.0,62.0 L 35.0,57.0 L 35.0,49.0 L 39.0,43.0 L 43.0,40.0" fill="#FAFAFA"/>
</svg>
