<?xml version="1.0" ?>
<svg baseProfile="full" height="600px" version="1.1" viewBox="-19.296000000000003 -19.296000000000003 230.592 230.592" width="600px" xmlns="http://www.w3.org/2000/svg" xmlns:ev="http://www.w3.org/2001/xml-events" xmlns:xlink="http://www.w3.org/1999/xlink">
	<defs/>
	<path d="M 0.0,0.0 L 192.0,0.0 L 192.0,192.0 L 0.0,192.0 L 0.0,0.0" fill="#ECE5F4"/>
	<path d="M 0.0,0.0 L 192.0,0.0 L 192.0,192.0 L 0.0,192.0 L 0.0,0.0 M 86.0,16.0 L 70.0,20.0 L 58.0,25.0 L 50.0,30.0 L 41.0,37.0 L 34.0,44.0 L 30.0,50.0 L 26.0,56.0 L 21.0,67.0 L 16.0,84.0 L 16.0,107.0 L 21.0,126.0 L 25.0,134.0 L 32.0,145.0 L 38.0,152.0 L 40.0,152.0 L 40.0,154.0 L 51.0,163.0 L 66.0,171.0 L 79.0,175.0 L 88.0,176.0 L 106.0,176.0 L 119.0,173.0 L 132.0,168.0 L 142.0,162.0 L 155.0,151.0 L 164.0,139.0 L 171.0,125.0 L 175.0,111.0 L 176.0,104.0 L 176.0,87.0 L 173.0,72.0 L 169.0,62.0 L 160.0,47.0 L 145.0,32.0 L 134.0,25.0 L 123.0,20.0 L 106.0,16.0 L 86.0,16.0" fill="#FEFDFE"/>
	<path d="M 87.0,47.0 L 104.0,47.0 L 108.0,52.0 L 117.0,54.0 L 125.0,59.0 L 131.0,66.0 L 136.0,77.0 L 140.0,95.0 L 140.0,112.0 L 122.0,130.0 L 114.0,131.0 L 128.0,138.0 L 133.0,142.0 L 140.0,152.0 L 142.0,156.0 L 142.0,162.0 L 128.0,170.0 L 117.0,174.0 L 106.0,176.0 L 88.0,176.0 L 75.0,174.0 L 62.0,169.0 L 51.0,163.0 L 50.0,162.0 L 50.0,156.0 L 55.0,147.0 L 59.0,142.0 L 69.0,135.0 L 78.0,131.0 L 71.0,130.0 L 53.0,116.0 L 52.0,115.0 L 52.0,99.0 L 55.0,81.0 L 60.0,68.0 L 67.0,58.0 L 76.0,51.0 L 87.0,47.0" fill="#FD1A46"/>
	<path d="M 87.0,47.0 L 104.0,47.0 L 108.0,52.0 L 117.0,54.0 L 125.0,59.0 L 131.0,66.0 L 136.0,77.0 L 140.0,95.0 L 140.0,112.0 L 122.0,130.0 L 110.0,130.0 L 110.0,119.0 L 116.0,114.0 L 119.0,109.0 L 119.0,86.0 L 108.0,72.0 L 96.0,78.0 L 73.0,91.0 L 73.0,109.0 L 77.0,115.0 L 82.0,119.0 L 82.0,130.0 L 71.0,130.0 L 53.0,116.0 L 52.0,115.0 L 52.0,99.0 L 55.0,81.0 L 60.0,68.0 L 67.0,58.0 L 76.0,51.0 L 87.0,47.0" fill="#7A574B"/>
	<path d="M 107.0,71.0 L 112.0,76.0 L 120.0,86.0 L 120.0,109.0 L 115.0,116.0 L 111.0,119.0 L 110.0,135.0 L 106.0,145.0 L 100.0,151.0 L 93.0,151.0 L 86.0,145.0 L 82.0,134.0 L 81.0,119.0 L 75.0,114.0 L 72.0,109.0 L 72.0,91.0 L 89.0,81.0 L 107.0,71.0" fill="#FCB44B"/>
	<path d="M 82.0,119.0 L 91.0,122.0 L 102.0,122.0 L 110.0,119.0 L 110.0,135.0 L 106.0,145.0 L 100.0,151.0 L 93.0,151.0 L 86.0,145.0 L 82.0,134.0 L 82.0,119.0" fill="#FF9902"/>
	<path d="M 82.0,128.0 L 87.0,133.0 L 92.0,137.0 L 99.0,138.0 L 106.0,132.0 L 110.0,128.0 L 110.0,135.0 L 106.0,145.0 L 100.0,151.0 L 93.0,151.0 L 86.0,145.0 L 82.0,134.0 L 82.0,128.0" fill="#FEB24B"/>
	<path d="M 119.0,110.0 L 120.0,110.0 L 120.0,130.0 L 110.0,130.0 L 110.0,119.0 L 116.0,114.0 L 119.0,110.0" fill="#402923"/>
	<path d="M 72.0,110.0 L 79.0,116.0 L 82.0,119.0 L 82.0,130.0 L 72.0,130.0 L 72.0,110.0" fill="#402923"/>
	<path d="M 106.0,91.0 L 111.0,92.0 L 112.0,97.0 L 110.0,99.0 L 105.0,98.0 L 104.0,93.0 L 106.0,91.0" fill="#7D4B1A"/>
	<path d="M 82.0,91.0 L 87.0,92.0 L 88.0,97.0 L 86.0,99.0 L 81.0,98.0 L 80.0,93.0 L 82.0,91.0" fill="#7D4B1A"/>
</svg>
