<?xml version="1.0" ?>
<svg baseProfile="full" height="600px" version="1.1" viewBox="-19.296000000000003 -19.296000000000003 230.592 230.592" width="600px" xmlns="http://www.w3.org/2000/svg" xmlns:ev="http://www.w3.org/2001/xml-events" xmlns:xlink="http://www.w3.org/1999/xlink">
	<defs/>
	<path d="M 0.0,0.0 L 192.0,0.0 L 192.0,192.0 L 0.0,192.0 L 0.0,0.0" fill="#ECE6F4"/>
	<path d="M 0.0,0.0 L 192.0,0.0 L 192.0,192.0 L 0.0,192.0 L 0.0,0.0 M 86.0,16.0 L 70.0,20.0 L 58.0,25.0 L 50.0,30.0 L 41.0,37.0 L 34.0,44.0 L 30.0,50.0 L 26.0,56.0 L 21.0,67.0 L 16.0,84.0 L 16.0,107.0 L 21.0,126.0 L 25.0,134.0 L 32.0,145.0 L 38.0,152.0 L 40.0,152.0 L 40.0,154.0 L 50.0,162.0 L 64.0,170.0 L 79.0,175.0 L 84.0,176.0 L 107.0,176.0 L 123.0,172.0 L 139.0,164.0 L 153.0,153.0 L 164.0,139.0 L 171.0,125.0 L 175.0,111.0 L 176.0,104.0 L 176.0,87.0 L 173.0,72.0 L 169.0,62.0 L 160.0,47.0 L 145.0,32.0 L 134.0,25.0 L 123.0,20.0 L 106.0,16.0 L 86.0,16.0" fill="#FEFDFE"/>
	<path d="M 88.0,129.0 L 104.0,129.0 L 107.0,133.0 L 107.0,135.0 L 117.0,136.0 L 126.0,142.0 L 132.0,150.0 L 137.0,162.0 L 136.0,166.0 L 121.0,173.0 L 107.0,176.0 L 84.0,176.0 L 69.0,172.0 L 56.0,166.0 L 57.0,157.0 L 64.0,144.0 L 68.0,139.0 L 77.0,133.0 L 88.0,129.0" fill="#7A574B"/>
	<path d="M 106.0,154.0 L 110.0,155.0 L 120.0,169.0 L 121.0,173.0 L 107.0,176.0 L 84.0,176.0 L 75.0,174.0 L 75.0,171.0 L 101.0,157.0 L 106.0,154.0" fill="#F6B04C"/>
</svg>
