<?xml version="1.0" ?>
<svg baseProfile="full" height="600px" version="1.1" viewBox="-19.296000000000003 -19.296000000000003 230.592 230.592" width="600px" xmlns="http://www.w3.org/2000/svg" xmlns:ev="http://www.w3.org/2001/xml-events" xmlns:xlink="http://www.w3.org/1999/xlink">
	<defs/>
	<path d="M 0.0,0.0 L 192.0,0.0 L 192.0,192.0 L 0.0,192.0 L 0.0,0.0" fill="#ECE5F4"/>
	<path d="M 0.0,0.0 L 192.0,0.0 L 192.0,192.0 L 0.0,192.0 L 0.0,0.0 M 86.0,16.0 L 70.0,20.0 L 58.0,25.0 L 50.0,30.0 L 41.0,37.0 L 34.0,44.0 L 30.0,50.0 L 26.0,56.0 L 21.0,67.0 L 16.0,84.0 L 16.0,107.0 L 21.0,126.0 L 25.0,134.0 L 32.0,145.0 L 38.0,152.0 L 40.0,152.0 L 40.0,154.0 L 51.0,163.0 L 66.0,171.0 L 79.0,175.0 L 88.0,176.0 L 106.0,176.0 L 119.0,173.0 L 132.0,168.0 L 142.0,162.0 L 155.0,151.0 L 164.0,139.0 L 171.0,125.0 L 175.0,111.0 L 176.0,104.0 L 176.0,87.0 L 173.0,72.0 L 169.0,62.0 L 160.0,47.0 L 145.0,32.0 L 134.0,25.0 L 123.0,20.0 L 106.0,16.0 L 86.0,16.0" fill="#FEFDFE"/>
	<path d="M 87.0,44.0 L 104.0,44.0 L 108.0,49.0 L 119.0,52.0 L 125.0,56.0 L 131.0,63.0 L 136.0,74.0 L 140.0,93.0 L 140.0,109.0 L 123.0,126.0 L 121.0,126.0 L 121.0,128.0 L 126.0,130.0 L 134.0,137.0 L 140.0,145.0 L 143.0,154.0 L 143.0,161.0 L 134.0,167.0 L 122.0,172.0 L 112.0,175.0 L 106.0,176.0 L 88.0,176.0 L 75.0,174.0 L 62.0,169.0 L 51.0,163.0 L 49.0,161.0 L 49.0,152.0 L 55.0,140.0 L 64.0,131.0 L 69.0,128.0 L 71.0,128.0 L 66.0,123.0 L 53.0,113.0 L 52.0,112.0 L 52.0,98.0 L 54.0,82.0 L 59.0,67.0 L 66.0,56.0 L 74.0,49.0 L 83.0,45.0 L 87.0,44.0" fill="#FD1945"/>
	<path d="M 87.0,44.0 L 104.0,44.0 L 108.0,49.0 L 119.0,52.0 L 125.0,56.0 L 131.0,63.0 L 136.0,74.0 L 140.0,93.0 L 140.0,109.0 L 123.0,126.0 L 121.0,126.0 L 120.0,128.0 L 110.0,124.0 L 110.0,116.0 L 116.0,111.0 L 119.0,106.0 L 119.0,79.0 L 108.0,65.0 L 96.0,71.0 L 73.0,84.0 L 73.0,106.0 L 77.0,112.0 L 82.0,116.0 L 82.0,124.0 L 71.0,127.0 L 58.0,117.0 L 52.0,112.0 L 52.0,98.0 L 54.0,82.0 L 59.0,67.0 L 66.0,56.0 L 74.0,49.0 L 83.0,45.0 L 87.0,44.0" fill="#7A574B"/>
	<path d="M 107.0,64.0 L 112.0,69.0 L 120.0,79.0 L 120.0,106.0 L 115.0,113.0 L 111.0,116.0 L 110.0,127.0 L 106.0,138.0 L 99.0,144.0 L 92.0,144.0 L 85.0,136.0 L 82.0,128.0 L 81.0,116.0 L 75.0,111.0 L 72.0,106.0 L 72.0,84.0 L 89.0,74.0 L 107.0,64.0" fill="#FCB44B"/>
	<path d="M 82.0,116.0 L 90.0,119.0 L 101.0,119.0 L 110.0,116.0 L 110.0,127.0 L 106.0,138.0 L 99.0,144.0 L 92.0,144.0 L 85.0,136.0 L 82.0,128.0 L 82.0,116.0" fill="#FF9902"/>
	<path d="M 82.0,125.0 L 87.0,130.0 L 93.0,135.0 L 100.0,134.0 L 107.0,128.0 L 110.0,125.0 L 107.0,136.0 L 101.0,143.0 L 99.0,144.0 L 92.0,144.0 L 85.0,136.0 L 82.0,128.0 L 82.0,125.0" fill="#FEB04A"/>
	<path d="M 119.0,107.0 L 120.0,107.0 L 120.0,127.0 L 110.0,124.0 L 110.0,116.0 L 116.0,111.0 L 119.0,107.0" fill="#432924"/>
	<path d="M 72.0,107.0 L 79.0,113.0 L 82.0,116.0 L 82.0,124.0 L 72.0,127.0 L 72.0,107.0" fill="#432924"/>
	<path d="M 106.0,84.0 L 111.0,85.0 L 112.0,90.0 L 110.0,92.0 L 105.0,91.0 L 104.0,86.0 L 106.0,84.0" fill="#7D4B1A"/>
	<path d="M 82.0,84.0 L 87.0,85.0 L 88.0,90.0 L 86.0,92.0 L 81.0,91.0 L 80.0,86.0 L 82.0,84.0" fill="#7D4B1A"/>
</svg>
