<?xml version="1.0" ?>
<svg baseProfile="full" height="600px" version="1.1" viewBox="-12.06 -12.06 144.12 144.12" width="600px" xmlns="http://www.w3.org/2000/svg" xmlns:ev="http://www.w3.org/2001/xml-events" xmlns:xlink="http://www.w3.org/1999/xlink">
	<defs/>
	<path d="M 0.0,0.0 L 120.0,0.0 L 120.0,120.0 L 0.0,120.0 L 0.0,0.0" fill="#FCFCFC"/>
	<path d="M 76.0,14.0 L 85.0,14.0 L 95.0,18.0 L 101.0,25.0 L 104.0,33.0 L 104.0,42.0 L 100.0,51.0 L 91.0,59.0 L 87.0,63.0 L 87.0,73.0 L 93.0,85.0 L 93.0,95.0 L 89.0,103.0 L 84.0,108.0 L 78.0,112.0 L 75.0,113.0 L 64.0,113.0 L 56.0,109.0 L 51.0,104.0 L 47.0,98.0 L 43.0,82.0 L 40.0,79.0 L 37.0,78.0 L 25.0,77.0 L 15.0,72.0 L 9.0,65.0 L 6.0,57.0 L 6.0,48.0 L 11.0,38.0 L 20.0,31.0 L 22.0,30.0 L 34.0,30.0 L 44.0,34.0 L 53.0,34.0 L 58.0,30.0 L 63.0,22.0 L 70.0,16.0 L 76.0,14.0" fill="#040404"/>
	<path d="M 55.0,49.0 L 65.0,49.0 L 70.0,53.0 L 71.0,55.0 L 71.0,65.0 L 67.0,70.0 L 65.0,71.0 L 55.0,71.0 L 50.0,67.0 L 49.0,65.0 L 49.0,55.0 L 53.0,50.0 L 55.0,49.0" fill="#F8F8F8"/>
	<path d="M 67.0,82.0 L 74.0,83.0 L 77.0,86.0 L 77.0,93.0 L 73.0,97.0 L 66.0,97.0 L 62.0,93.0 L 62.0,86.0 L 67.0,82.0" fill="#F6F6F6"/>
	<path d="M 26.0,46.0 L 33.0,46.0 L 37.0,50.0 L 37.0,56.0 L 32.0,61.0 L 25.0,60.0 L 22.0,56.0 L 22.0,50.0 L 26.0,46.0" fill="#F5F5F5"/>
	<path d="M 77.0,30.0 L 85.0,30.0 L 88.0,33.0 L 88.0,41.0 L 84.0,45.0 L 78.0,45.0 L 74.0,41.0 L 73.0,34.0 L 77.0,30.0" fill="#F4F4F4"/>
</svg>
