<?xml version="1.0" ?>
<svg baseProfile="full" height="600px" version="1.1" viewBox="-20.1 -20.1 240.2 240.2" width="600px" xmlns="http://www.w3.org/2000/svg" xmlns:ev="http://www.w3.org/2001/xml-events" xmlns:xlink="http://www.w3.org/1999/xlink">
	<defs/>
	<path d="M 0.0,0.0 L 200.0,0.0 L 200.0,200.0 L 0.0,200.0 L 0.0,0.0" fill="#FDFDFD"/>
	<path d="M 91.0,8.0 L 103.0,8.0 L 111.0,10.0 L 119.0,14.0 L 129.0,23.0 L 135.0,35.0 L 136.0,38.0 L 136.0,52.0 L 133.0,62.0 L 126.0,74.0 L 126.0,85.0 L 130.0,93.0 L 136.0,97.0 L 146.0,99.0 L 165.0,101.0 L 175.0,106.0 L 185.0,115.0 L 191.0,127.0 L 192.0,130.0 L 192.0,144.0 L 189.0,154.0 L 184.0,162.0 L 176.0,170.0 L 165.0,175.0 L 162.0,176.0 L 147.0,176.0 L 138.0,173.0 L 130.0,168.0 L 123.0,161.0 L 118.0,151.0 L 114.0,143.0 L 109.0,139.0 L 105.0,137.0 L 95.0,137.0 L 87.0,142.0 L 83.0,148.0 L 79.0,158.0 L 70.0,168.0 L 62.0,173.0 L 52.0,176.0 L 39.0,176.0 L 30.0,173.0 L 22.0,168.0 L 14.0,160.0 L 10.0,152.0 L 8.0,143.0 L 8.0,130.0 L 13.0,118.0 L 22.0,108.0 L 32.0,102.0 L 39.0,100.0 L 58.0,98.0 L 66.0,94.0 L 70.0,88.0 L 71.0,85.0 L 71.0,75.0 L 63.0,62.0 L 60.0,51.0 L 60.0,38.0 L 65.0,26.0 L 74.0,16.0 L 84.0,10.0 L 91.0,8.0" fill="#F8F8F8"/>
	<path d="M 91.0,8.0 L 103.0,8.0 L 111.0,10.0 L 119.0,14.0 L 129.0,23.0 L 135.0,35.0 L 136.0,38.0 L 136.0,52.0 L 133.0,62.0 L 126.0,74.0 L 126.0,85.0 L 130.0,93.0 L 136.0,97.0 L 146.0,99.0 L 165.0,101.0 L 175.0,106.0 L 185.0,115.0 L 191.0,127.0 L 192.0,130.0 L 192.0,144.0 L 189.0,154.0 L 184.0,162.0 L 176.0,170.0 L 165.0,175.0 L 162.0,176.0 L 147.0,176.0 L 138.0,173.0 L 130.0,168.0 L 123.0,161.0 L 118.0,151.0 L 114.0,143.0 L 109.0,139.0 L 105.0,137.0 L 95.0,137.0 L 87.0,142.0 L 83.0,148.0 L 79.0,158.0 L 70.0,168.0 L 62.0,173.0 L 52.0,176.0 L 39.0,176.0 L 30.0,173.0 L 22.0,168.0 L 14.0,160.0 L 10.0,152.0 L 8.0,143.0 L 8.0,130.0 L 13.0,118.0 L 22.0,108.0 L 32.0,102.0 L 39.0,100.0 L 58.0,98.0 L 66.0,94.0 L 70.0,88.0 L 71.0,85.0 L 71.0,75.0 L 63.0,62.0 L 60.0,51.0 L 60.0,38.0 L 65.0,26.0 L 74.0,16.0 L 84.0,10.0 L 91.0,8.0 M 92.0,16.0 L 83.0,20.0 L 75.0,26.0 L 70.0,34.0 L 68.0,40.0 L 68.0,51.0 L 72.0,62.0 L 78.0,71.0 L 79.0,75.0 L 79.0,88.0 L 75.0,96.0 L 73.0,100.0 L 69.0,102.0 L 59.0,106.0 L 40.0,108.0 L 31.0,112.0 L 23.0,118.0 L 18.0,126.0 L 16.0,132.0 L 16.0,144.0 L 20.0,154.0 L 27.0,162.0 L 39.0,168.0 L 52.0,168.0 L 62.0,164.0 L 70.0,157.0 L 75.0,147.0 L 80.0,137.0 L 89.0,131.0 L 94.0,129.0 L 105.0,129.0 L 115.0,133.0 L 120.0,138.0 L 124.0,144.0 L 128.0,154.0 L 135.0,162.0 L 147.0,168.0 L 160.0,168.0 L 170.0,164.0 L 178.0,157.0 L 183.0,147.0 L 184.0,144.0 L 184.0,132.0 L 180.0,123.0 L 175.0,116.0 L 165.0,110.0 L 158.0,108.0 L 138.0,106.0 L 128.0,102.0 L 121.0,94.0 L 118.0,88.0 L 118.0,72.0 L 126.0,58.0 L 128.0,51.0 L 128.0,40.0 L 124.0,31.0 L 119.0,24.0 L 109.0,18.0 L 102.0,16.0 L 92.0,16.0" fill="#070707"/>
	<path d="M 41.0,116.0 L 51.0,116.0 L 59.0,120.0 L 66.0,128.0 L 68.0,134.0 L 68.0,144.0 L 64.0,152.0 L 57.0,158.0 L 53.0,160.0 L 41.0,160.0 L 34.0,157.0 L 28.0,152.0 L 24.0,143.0 L 24.0,133.0 L 28.0,125.0 L 36.0,118.0 L 41.0,116.0" fill="#090909"/>
	<path d="M 93.0,24.0 L 103.0,24.0 L 111.0,28.0 L 118.0,36.0 L 120.0,41.0 L 120.0,51.0 L 115.0,61.0 L 107.0,67.0 L 103.0,68.0 L 92.0,68.0 L 84.0,64.0 L 79.0,58.0 L 76.0,51.0 L 76.0,40.0 L 81.0,32.0 L 88.0,26.0 L 93.0,24.0" fill="#080808"/>
	<path d="M 149.0,116.0 L 159.0,116.0 L 167.0,120.0 L 174.0,128.0 L 176.0,133.0 L 176.0,143.0 L 171.0,153.0 L 163.0,159.0 L 159.0,160.0 L 148.0,160.0 L 140.0,156.0 L 135.0,150.0 L 132.0,143.0 L 132.0,134.0 L 135.0,126.0 L 142.0,119.0 L 149.0,116.0" fill="#070707"/>
	<path d="M 150.0,124.0 L 157.0,124.0 L 163.0,127.0 L 167.0,132.0 L 168.0,134.0 L 168.0,142.0 L 164.0,148.0 L 159.0,152.0 L 149.0,152.0 L 142.0,146.0 L 140.0,141.0 L 140.0,134.0 L 144.0,128.0 L 150.0,124.0" fill="#F5F5F5"/>
	<path d="M 94.0,32.0 L 101.0,32.0 L 107.0,35.0 L 111.0,40.0 L 112.0,42.0 L 112.0,50.0 L 108.0,56.0 L 103.0,60.0 L 93.0,60.0 L 86.0,54.0 L 84.0,49.0 L 84.0,42.0 L 88.0,36.0 L 94.0,32.0" fill="#F5F5F5"/>
	<path d="M 40.0,125.0 L 52.0,125.0 L 58.0,130.0 L 60.0,134.0 L 60.0,143.0 L 56.0,149.0 L 50.0,152.0 L 41.0,152.0 L 34.0,146.0 L 32.0,141.0 L 32.0,134.0 L 37.0,127.0 L 40.0,125.0" fill="#F5F5F5"/>
	<path d="M 95.0,92.0 L 101.0,92.0 L 108.0,98.0 L 108.0,106.0 L 104.0,111.0 L 102.0,112.0 L 94.0,112.0 L 89.0,107.0 L 88.0,105.0 L 88.0,99.0 L 93.0,93.0 L 95.0,92.0" fill="#070707"/>
	<path d="M 152.0,132.0 L 158.0,133.0 L 160.0,135.0 L 160.0,141.0 L 157.0,144.0 L 151.0,144.0 L 148.0,141.0 L 149.0,134.0 L 152.0,132.0" fill="#0C0C0C"/>
	<path d="M 96.0,40.0 L 102.0,41.0 L 104.0,43.0 L 104.0,49.0 L 101.0,52.0 L 95.0,52.0 L 92.0,49.0 L 93.0,42.0 L 96.0,40.0" fill="#0C0C0C"/>
	<path d="M 44.0,132.0 L 50.0,133.0 L 52.0,135.0 L 52.0,141.0 L 49.0,144.0 L 43.0,144.0 L 40.0,140.0 L 41.0,134.0 L 44.0,132.0" fill="#0B0B0B"/>
</svg>
