<?xml version="1.0" ?>
<svg baseProfile="full" height="600px" version="1.1" viewBox="-12.864 -12.864 153.728 153.728" width="600px" xmlns="http://www.w3.org/2000/svg" xmlns:ev="http://www.w3.org/2001/xml-events" xmlns:xlink="http://www.w3.org/1999/xlink">
	<defs/>
	<path d="M 0.0,0.0 L 128.0,0.0 L 128.0,128.0 L 0.0,128.0 L 0.0,0.0" fill="#FCFCFC"/>
	<path d="M 41.0,11.0 L 50.0,11.0 L 60.0,16.0 L 66.0,25.0 L 70.0,33.0 L 78.0,38.0 L 86.0,38.0 L 91.0,36.0 L 103.0,36.0 L 111.0,40.0 L 117.0,47.0 L 119.0,51.0 L 119.0,62.0 L 116.0,69.0 L 111.0,75.0 L 103.0,79.0 L 84.0,79.0 L 77.0,83.0 L 74.0,87.0 L 71.0,99.0 L 67.0,105.0 L 61.0,110.0 L 56.0,112.0 L 45.0,112.0 L 38.0,109.0 L 31.0,101.0 L 29.0,96.0 L 29.0,85.0 L 33.0,77.0 L 37.0,71.0 L 38.0,68.0 L 38.0,59.0 L 34.0,52.0 L 29.0,48.0 L 24.0,39.0 L 24.0,27.0 L 28.0,19.0 L 36.0,13.0 L 41.0,11.0" fill="#F8F8F8"/>
	<path d="M 41.0,11.0 L 50.0,11.0 L 60.0,16.0 L 66.0,25.0 L 70.0,33.0 L 78.0,38.0 L 86.0,38.0 L 91.0,36.0 L 103.0,36.0 L 111.0,40.0 L 117.0,47.0 L 119.0,51.0 L 119.0,62.0 L 116.0,69.0 L 111.0,75.0 L 103.0,79.0 L 84.0,79.0 L 77.0,83.0 L 74.0,87.0 L 71.0,99.0 L 67.0,105.0 L 61.0,110.0 L 56.0,112.0 L 45.0,112.0 L 38.0,109.0 L 31.0,101.0 L 29.0,96.0 L 29.0,85.0 L 33.0,77.0 L 37.0,71.0 L 38.0,68.0 L 38.0,59.0 L 34.0,52.0 L 29.0,48.0 L 24.0,39.0 L 24.0,27.0 L 28.0,19.0 L 36.0,13.0 L 41.0,11.0 M 40.0,19.0 L 34.0,23.0 L 31.0,30.0 L 31.0,37.0 L 35.0,43.0 L 43.0,52.0 L 45.0,57.0 L 45.0,70.0 L 42.0,78.0 L 36.0,87.0 L 36.0,95.0 L 40.0,101.0 L 46.0,105.0 L 54.0,105.0 L 60.0,102.0 L 64.0,97.0 L 67.0,85.0 L 71.0,79.0 L 79.0,73.0 L 82.0,72.0 L 103.0,71.0 L 109.0,67.0 L 112.0,61.0 L 112.0,53.0 L 108.0,47.0 L 104.0,44.0 L 101.0,43.0 L 93.0,43.0 L 88.0,45.0 L 78.0,45.0 L 68.0,41.0 L 62.0,34.0 L 57.0,24.0 L 53.0,20.0 L 50.0,19.0 L 40.0,19.0" fill="#080808"/>
	<path d="M 95.0,50.0 L 102.0,51.0 L 105.0,55.0 L 104.0,62.0 L 100.0,65.0 L 95.0,65.0 L 91.0,61.0 L 91.0,54.0 L 95.0,50.0" fill="#0B0B0B"/>
	<path d="M 42.0,26.0 L 48.0,26.0 L 53.0,30.0 L 52.0,37.0 L 49.0,40.0 L 42.0,40.0 L 38.0,35.0 L 39.0,29.0 L 42.0,26.0" fill="#0A0A0A"/>
	<path d="M 60.0,55.0 L 68.0,55.0 L 71.0,58.0 L 71.0,65.0 L 67.0,69.0 L 61.0,69.0 L 57.0,64.0 L 57.0,58.0 L 60.0,55.0" fill="#080808"/>
	<path d="M 47.0,84.0 L 53.0,84.0 L 57.0,87.0 L 57.0,95.0 L 53.0,98.0 L 47.0,98.0 L 43.0,94.0 L 43.0,88.0 L 47.0,84.0" fill="#070707"/>
</svg>
