<?xml version="1.0" ?>
<svg baseProfile="full" height="600px" version="1.1" viewBox="-19.296000000000003 -19.296000000000003 230.592 230.592" width="600px" xmlns="http://www.w3.org/2000/svg" xmlns:ev="http://www.w3.org/2001/xml-events" xmlns:xlink="http://www.w3.org/1999/xlink">
	<defs/>
	<path d="M 0.0,0.0 L 192.0,0.0 L 192.0,192.0 L 0.0,192.0 L 0.0,0.0" fill="#FCFDFD"/>
	<path d="M 108.0,27.0 L 120.0,27.0 L 130.0,31.0 L 135.0,35.0 L 141.0,45.0 L 142.0,48.0 L 142.0,59.0 L 138.0,69.0 L 131.0,79.0 L 128.0,90.0 L 128.0,99.0 L 130.0,107.0 L 135.0,117.0 L 141.0,124.0 L 151.0,131.0 L 156.0,137.0 L 159.0,143.0 L 159.0,158.0 L 156.0,166.0 L 148.0,174.0 L 138.0,178.0 L 125.0,178.0 L 117.0,174.0 L 112.0,170.0 L 107.0,162.0 L 102.0,152.0 L 97.0,146.0 L 90.0,141.0 L 80.0,137.0 L 62.0,137.0 L 53.0,140.0 L 47.0,143.0 L 42.0,144.0 L 33.0,144.0 L 24.0,140.0 L 16.0,133.0 L 12.0,125.0 L 11.0,122.0 L 11.0,111.0 L 15.0,102.0 L 22.0,94.0 L 32.0,90.0 L 58.0,90.0 L 69.0,86.0 L 78.0,79.0 L 84.0,69.0 L 87.0,59.0 L 88.0,46.0 L 93.0,37.0 L 101.0,30.0 L 108.0,27.0" fill="#2BB5F4"/>
	<path d="M 34.0,97.0 L 42.0,97.0 L 50.0,101.0 L 56.0,108.0 L 57.0,110.0 L 57.0,122.0 L 53.0,130.0 L 48.0,134.0 L 43.0,136.0 L 33.0,136.0 L 25.0,131.0 L 20.0,125.0 L 19.0,122.0 L 19.0,111.0 L 23.0,104.0 L 29.0,99.0 L 34.0,97.0" fill="#55717E"/>
	<path d="M 127.0,132.0 L 137.0,132.0 L 145.0,136.0 L 150.0,142.0 L 152.0,146.0 L 152.0,156.0 L 146.0,166.0 L 138.0,170.0 L 126.0,170.0 L 118.0,165.0 L 113.0,156.0 L 113.0,147.0 L 117.0,139.0 L 123.0,134.0 L 127.0,132.0" fill="#55717E"/>
	<path d="M 110.0,35.0 L 120.0,35.0 L 126.0,38.0 L 131.0,43.0 L 134.0,49.0 L 134.0,58.0 L 131.0,65.0 L 123.0,72.0 L 120.0,73.0 L 108.0,73.0 L 102.0,69.0 L 97.0,63.0 L 95.0,58.0 L 95.0,50.0 L 99.0,42.0 L 106.0,36.0 L 110.0,35.0" fill="#56727E"/>
	<path d="M 90.0,86.0 L 103.0,86.0 L 111.0,92.0 L 115.0,100.0 L 115.0,111.0 L 109.0,120.0 L 100.0,124.0 L 90.0,124.0 L 81.0,118.0 L 77.0,110.0 L 77.0,99.0 L 81.0,92.0 L 87.0,87.0 L 90.0,86.0" fill="#0389D2"/>
	<path d="M 128.0,140.0 L 137.0,140.0 L 143.0,145.0 L 144.0,147.0 L 144.0,155.0 L 141.0,160.0 L 136.0,163.0 L 129.0,163.0 L 122.0,157.0 L 121.0,154.0 L 121.0,147.0 L 126.0,141.0 L 128.0,140.0" fill="#F9F9FA"/>
	<path d="M 34.0,105.0 L 41.0,105.0 L 46.0,108.0 L 49.0,111.0 L 50.0,119.0 L 47.0,125.0 L 42.0,128.0 L 34.0,128.0 L 28.0,123.0 L 27.0,121.0 L 27.0,112.0 L 31.0,107.0 L 34.0,105.0" fill="#F9FAFA"/>
	<path d="M 110.0,43.0 L 119.0,43.0 L 125.0,48.0 L 126.0,50.0 L 126.0,58.0 L 120.0,65.0 L 110.0,65.0 L 104.0,60.0 L 103.0,57.0 L 103.0,50.0 L 108.0,44.0 L 110.0,43.0" fill="#FAFBFB"/>
</svg>
