<?xml version="1.0" ?>
<svg baseProfile="full" height="600px" version="1.1" viewBox="-9.648000000000001 -9.648000000000001 115.296 115.296" width="600px" xmlns="http://www.w3.org/2000/svg" xmlns:ev="http://www.w3.org/2001/xml-events" xmlns:xlink="http://www.w3.org/1999/xlink">
	<defs/>
	<path d="M 0.0,0.0 L 96.0,0.0 L 96.0,96.0 L 0.0,96.0 L 0.0,0.0" fill="#FCFCFC"/>
	<path d="M 63.0,20.0 L 74.0,20.0 L 80.0,24.0 L 83.0,29.0 L 83.0,39.0 L 79.0,45.0 L 75.0,48.0 L 67.0,51.0 L 64.0,56.0 L 65.0,64.0 L 69.0,71.0 L 69.0,78.0 L 66.0,84.0 L 61.0,88.0 L 59.0,89.0 L 49.0,89.0 L 42.0,84.0 L 40.0,80.0 L 39.0,66.0 L 35.0,60.0 L 30.0,57.0 L 19.0,55.0 L 13.0,51.0 L 10.0,46.0 L 10.0,36.0 L 14.0,30.0 L 21.0,26.0 L 30.0,27.0 L 38.0,32.0 L 49.0,32.0 L 55.0,28.0 L 61.0,21.0 L 63.0,20.0" fill="#040404"/>
	<path d="M 46.0,46.0 L 51.0,47.0 L 52.0,51.0 L 50.0,53.0 L 45.0,52.0 L 44.0,48.0 L 46.0,46.0" fill="#E6E6E6"/>
	<path d="M 23.0,37.0 L 27.0,38.0 L 28.0,43.0 L 26.0,45.0 L 22.0,44.0 L 21.0,39.0 L 23.0,37.0" fill="#E4E4E4"/>
	<path d="M 52.0,71.0 L 57.0,72.0 L 58.0,77.0 L 57.0,78.0 L 52.0,78.0 L 51.0,77.0 L 51.0,72.0 L 52.0,71.0" fill="#E7E7E7"/>
	<path d="M 66.0,31.0 L 71.0,31.0 L 72.0,32.0 L 72.0,37.0 L 67.0,38.0 L 65.0,36.0 L 66.0,31.0" fill="#E3E3E3"/>
</svg>
