<?xml version="1.0" ?>
<svg baseProfile="full" height="600px" version="1.1" viewBox="-12.864 -12.864 153.728 153.728" width="600px" xmlns="http://www.w3.org/2000/svg" xmlns:ev="http://www.w3.org/2001/xml-events" xmlns:xlink="http://www.w3.org/1999/xlink">
	<defs/>
	<path d="M 0.0,0.0 L 128.0,0.0 L 128.0,128.0 L 0.0,128.0 L 0.0,0.0" fill="#FCFCFC"/>
	<path d="M 78.0,16.0 L 91.0,16.0 L 99.0,20.0 L 105.0,28.0 L 106.0,30.0 L 106.0,43.0 L 102.0,51.0 L 91.0,61.0 L 89.0,65.0 L 89.0,76.0 L 94.0,85.0 L 95.0,89.0 L 95.0,100.0 L 91.0,108.0 L 84.0,114.0 L 79.0,116.0 L 68.0,116.0 L 58.0,110.0 L 53.0,102.0 L 50.0,87.0 L 46.0,82.0 L 40.0,79.0 L 24.0,78.0 L 16.0,73.0 L 11.0,67.0 L 9.0,62.0 L 9.0,50.0 L 14.0,42.0 L 20.0,37.0 L 25.0,35.0 L 35.0,35.0 L 45.0,39.0 L 52.0,39.0 L 59.0,36.0 L 64.0,30.0 L 68.0,23.0 L 74.0,18.0 L 78.0,16.0" fill="#F8F8F8"/>
	<path d="M 78.0,16.0 L 91.0,16.0 L 99.0,20.0 L 105.0,28.0 L 106.0,30.0 L 106.0,43.0 L 102.0,51.0 L 91.0,61.0 L 89.0,65.0 L 89.0,76.0 L 94.0,85.0 L 95.0,89.0 L 95.0,100.0 L 91.0,108.0 L 84.0,114.0 L 79.0,116.0 L 68.0,116.0 L 58.0,110.0 L 53.0,102.0 L 50.0,87.0 L 46.0,82.0 L 40.0,79.0 L 24.0,78.0 L 16.0,73.0 L 11.0,67.0 L 9.0,62.0 L 9.0,50.0 L 14.0,42.0 L 20.0,37.0 L 25.0,35.0 L 35.0,35.0 L 45.0,39.0 L 52.0,39.0 L 59.0,36.0 L 64.0,30.0 L 68.0,23.0 L 74.0,18.0 L 78.0,16.0 M 80.0,23.0 L 74.0,27.0 L 66.0,40.0 L 60.0,44.0 L 55.0,46.0 L 43.0,46.0 L 34.0,42.0 L 27.0,42.0 L 20.0,46.0 L 16.0,52.0 L 16.0,60.0 L 19.0,66.0 L 24.0,70.0 L 26.0,71.0 L 41.0,72.0 L 50.0,76.0 L 56.0,83.0 L 58.0,88.0 L 60.0,100.0 L 66.0,107.0 L 71.0,109.0 L 79.0,108.0 L 85.0,104.0 L 88.0,98.0 L 88.0,90.0 L 82.0,78.0 L 82.0,63.0 L 88.0,53.0 L 96.0,47.0 L 99.0,41.0 L 99.0,34.0 L 97.0,29.0 L 92.0,24.0 L 89.0,23.0 L 80.0,23.0" fill="#080808"/>
	<path d="M 61.0,54.0 L 68.0,55.0 L 71.0,59.0 L 70.0,66.0 L 66.0,69.0 L 61.0,69.0 L 57.0,65.0 L 57.0,58.0 L 61.0,54.0" fill="#0D0D0D"/>
	<path d="M 70.0,87.0 L 77.0,87.0 L 81.0,91.0 L 81.0,97.0 L 77.0,101.0 L 70.0,101.0 L 67.0,98.0 L 67.0,90.0 L 70.0,87.0" fill="#090909"/>
	<path d="M 27.0,49.0 L 33.0,49.0 L 37.0,53.0 L 37.0,60.0 L 34.0,63.0 L 26.0,63.0 L 23.0,59.0 L 23.0,53.0 L 27.0,49.0" fill="#090909"/>
	<path d="M 82.0,30.0 L 88.0,30.0 L 92.0,34.0 L 92.0,40.0 L 88.0,44.0 L 82.0,44.0 L 78.0,40.0 L 78.0,34.0 L 82.0,30.0" fill="#080808"/>
</svg>
