<?xml version="1.0" ?>
<svg baseProfile="full" height="600px" version="1.1" viewBox="-20.1 -20.1 240.2 240.2" width="600px" xmlns="http://www.w3.org/2000/svg" xmlns:ev="http://www.w3.org/2001/xml-events" xmlns:xlink="http://www.w3.org/1999/xlink">
	<defs/>
	<path d="M 0.0,0.0 L 200.0,0.0 L 200.0,200.0 L 0.0,200.0 L 0.0,0.0" fill="#FDFDFD"/>
	<path d="M 95.0,9.0 L 109.0,9.0 L 122.0,14.0 L 132.0,23.0 L 138.0,33.0 L 140.0,41.0 L 140.0,52.0 L 137.0,62.0 L 131.0,72.0 L 128.0,76.0 L 127.0,80.0 L 127.0,88.0 L 131.0,96.0 L 136.0,100.0 L 153.0,104.0 L 163.0,106.0 L 173.0,111.0 L 179.0,116.0 L 186.0,127.0 L 188.0,133.0 L 188.0,150.0 L 184.0,161.0 L 175.0,171.0 L 166.0,177.0 L 156.0,180.0 L 145.0,180.0 L 133.0,176.0 L 124.0,169.0 L 118.0,162.0 L 114.0,153.0 L 111.0,144.0 L 104.0,138.0 L 100.0,137.0 L 92.0,137.0 L 85.0,140.0 L 80.0,146.0 L 74.0,157.0 L 70.0,162.0 L 59.0,169.0 L 52.0,171.0 L 34.0,171.0 L 20.0,164.0 L 12.0,155.0 L 8.0,147.0 L 6.0,139.0 L 6.0,127.0 L 10.0,116.0 L 16.0,108.0 L 23.0,102.0 L 33.0,97.0 L 37.0,96.0 L 60.0,95.0 L 68.0,91.0 L 73.0,83.0 L 73.0,74.0 L 70.0,67.0 L 66.0,59.0 L 65.0,56.0 L 65.0,37.0 L 72.0,23.0 L 81.0,15.0 L 91.0,10.0 L 95.0,9.0" fill="#F8F8F8"/>
	<path d="M 95.0,9.0 L 109.0,9.0 L 122.0,14.0 L 132.0,23.0 L 138.0,33.0 L 140.0,41.0 L 140.0,52.0 L 137.0,62.0 L 131.0,72.0 L 128.0,76.0 L 127.0,80.0 L 127.0,88.0 L 131.0,96.0 L 136.0,100.0 L 153.0,104.0 L 163.0,106.0 L 173.0,111.0 L 179.0,116.0 L 186.0,127.0 L 188.0,133.0 L 188.0,150.0 L 184.0,161.0 L 175.0,171.0 L 166.0,177.0 L 156.0,180.0 L 145.0,180.0 L 133.0,176.0 L 124.0,169.0 L 118.0,162.0 L 114.0,153.0 L 111.0,144.0 L 104.0,138.0 L 100.0,137.0 L 92.0,137.0 L 85.0,140.0 L 80.0,146.0 L 74.0,157.0 L 70.0,162.0 L 59.0,169.0 L 52.0,171.0 L 34.0,171.0 L 20.0,164.0 L 12.0,155.0 L 8.0,147.0 L 6.0,139.0 L 6.0,127.0 L 10.0,116.0 L 16.0,108.0 L 23.0,102.0 L 33.0,97.0 L 37.0,96.0 L 60.0,95.0 L 68.0,91.0 L 73.0,83.0 L 73.0,74.0 L 70.0,67.0 L 66.0,59.0 L 65.0,56.0 L 65.0,37.0 L 72.0,23.0 L 81.0,15.0 L 91.0,10.0 L 95.0,9.0 M 96.0,17.0 L 87.0,21.0 L 79.0,28.0 L 74.0,36.0 L 73.0,40.0 L 73.0,54.0 L 77.0,63.0 L 81.0,71.0 L 81.0,84.0 L 76.0,94.0 L 69.0,100.0 L 59.0,103.0 L 38.0,104.0 L 29.0,108.0 L 21.0,114.0 L 16.0,122.0 L 14.0,128.0 L 14.0,138.0 L 18.0,149.0 L 25.0,157.0 L 33.0,162.0 L 35.0,163.0 L 51.0,163.0 L 59.0,160.0 L 68.0,152.0 L 76.0,137.0 L 84.0,131.0 L 89.0,129.0 L 103.0,129.0 L 113.0,134.0 L 119.0,142.0 L 125.0,158.0 L 131.0,165.0 L 139.0,170.0 L 147.0,172.0 L 155.0,172.0 L 166.0,168.0 L 175.0,160.0 L 180.0,150.0 L 180.0,134.0 L 175.0,124.0 L 166.0,116.0 L 160.0,113.0 L 143.0,110.0 L 132.0,107.0 L 123.0,99.0 L 119.0,90.0 L 119.0,77.0 L 124.0,67.0 L 128.0,62.0 L 132.0,53.0 L 132.0,42.0 L 128.0,31.0 L 121.0,23.0 L 111.0,18.0 L 108.0,17.0 L 96.0,17.0" fill="#090909"/>
	<path d="M 39.0,112.0 L 49.0,112.0 L 57.0,116.0 L 64.0,124.0 L 66.0,129.0 L 66.0,138.0 L 62.0,147.0 L 54.0,154.0 L 49.0,156.0 L 39.0,156.0 L 31.0,152.0 L 24.0,144.0 L 22.0,139.0 L 22.0,129.0 L 26.0,121.0 L 34.0,114.0 L 39.0,112.0" fill="#080808"/>
	<path d="M 145.0,120.0 L 155.0,120.0 L 164.0,124.0 L 170.0,131.0 L 172.0,135.0 L 172.0,148.0 L 168.0,156.0 L 162.0,161.0 L 154.0,164.0 L 146.0,164.0 L 136.0,159.0 L 130.0,150.0 L 129.0,148.0 L 129.0,136.0 L 133.0,128.0 L 141.0,122.0 L 145.0,120.0" fill="#080808"/>
	<path d="M 96.0,25.0 L 107.0,25.0 L 117.0,30.0 L 123.0,38.0 L 124.0,41.0 L 124.0,51.0 L 121.0,59.0 L 112.0,67.0 L 109.0,68.0 L 95.0,68.0 L 87.0,63.0 L 83.0,58.0 L 80.0,50.0 L 80.0,42.0 L 84.0,34.0 L 92.0,27.0 L 96.0,25.0" fill="#080808"/>
	<path d="M 40.0,120.0 L 47.0,120.0 L 53.0,123.0 L 57.0,128.0 L 58.0,130.0 L 58.0,137.0 L 55.0,143.0 L 50.0,147.0 L 47.0,148.0 L 40.0,148.0 L 34.0,144.0 L 31.0,140.0 L 30.0,137.0 L 30.0,130.0 L 34.0,124.0 L 40.0,120.0" fill="#F4F4F4"/>
	<path d="M 98.0,33.0 L 105.0,33.0 L 111.0,36.0 L 116.0,42.0 L 116.0,51.0 L 112.0,57.0 L 108.0,60.0 L 96.0,60.0 L 91.0,56.0 L 88.0,50.0 L 88.0,43.0 L 92.0,37.0 L 98.0,33.0" fill="#F5F5F5"/>
	<path d="M 147.0,128.0 L 154.0,128.0 L 161.0,132.0 L 164.0,136.0 L 164.0,147.0 L 160.0,153.0 L 154.0,156.0 L 147.0,156.0 L 141.0,152.0 L 137.0,147.0 L 137.0,137.0 L 143.0,130.0 L 147.0,128.0" fill="#F5F5F5"/>
	<path d="M 93.0,93.0 L 103.0,93.0 L 108.0,99.0 L 107.0,108.0 L 102.0,112.0 L 94.0,112.0 L 89.0,107.0 L 88.0,105.0 L 88.0,99.0 L 93.0,93.0" fill="#060606"/>
	<path d="M 99.0,41.0 L 105.0,41.0 L 108.0,44.0 L 107.0,51.0 L 104.0,53.0 L 98.0,52.0 L 96.0,49.0 L 96.0,44.0 L 99.0,41.0" fill="#0E0E0E"/>
	<path d="M 148.0,136.0 L 155.0,137.0 L 157.0,140.0 L 156.0,145.0 L 153.0,148.0 L 148.0,148.0 L 145.0,145.0 L 145.0,139.0 L 148.0,136.0" fill="#0D0D0D"/>
	<path d="M 42.0,128.0 L 48.0,129.0 L 50.0,131.0 L 49.0,138.0 L 46.0,140.0 L 41.0,140.0 L 38.0,136.0 L 38.0,131.0 L 42.0,128.0" fill="#0C0C0C"/>
</svg>
