<?xml version="1.0" ?>
<svg baseProfile="full" height="600px" version="1.1" viewBox="-12.864 -12.864 153.728 153.728" width="600px" xmlns="http://www.w3.org/2000/svg" xmlns:ev="http://www.w3.org/2001/xml-events" xmlns:xlink="http://www.w3.org/1999/xlink">
	<defs/>
	<path d="M 0.0,0.0 L 128.0,0.0 L 128.0,128.0 L 0.0,128.0 L 0.0,0.0" fill="#FCFCFC"/>
	<path d="M 66.0,10.0 L 80.0,10.0 L 88.0,14.0 L 94.0,21.0 L 96.0,26.0 L 96.0,38.0 L 90.0,50.0 L 90.0,59.0 L 93.0,66.0 L 98.0,71.0 L 106.0,78.0 L 110.0,86.0 L 110.0,96.0 L 106.0,105.0 L 98.0,112.0 L 92.0,114.0 L 81.0,114.0 L 71.0,108.0 L 63.0,96.0 L 55.0,92.0 L 45.0,92.0 L 36.0,96.0 L 22.0,96.0 L 13.0,90.0 L 8.0,82.0 L 7.0,80.0 L 7.0,68.0 L 11.0,60.0 L 18.0,54.0 L 25.0,51.0 L 38.0,50.0 L 44.0,47.0 L 48.0,42.0 L 50.0,37.0 L 52.0,23.0 L 56.0,17.0 L 62.0,12.0 L 66.0,10.0" fill="#F8F8F8"/>
	<path d="M 66.0,10.0 L 80.0,10.0 L 88.0,14.0 L 94.0,21.0 L 96.0,26.0 L 96.0,38.0 L 90.0,50.0 L 90.0,59.0 L 93.0,66.0 L 98.0,71.0 L 106.0,78.0 L 110.0,86.0 L 110.0,96.0 L 106.0,105.0 L 98.0,112.0 L 92.0,114.0 L 81.0,114.0 L 71.0,108.0 L 63.0,96.0 L 55.0,92.0 L 45.0,92.0 L 36.0,96.0 L 22.0,96.0 L 13.0,90.0 L 8.0,82.0 L 7.0,80.0 L 7.0,68.0 L 11.0,60.0 L 18.0,54.0 L 25.0,51.0 L 38.0,50.0 L 44.0,47.0 L 48.0,42.0 L 50.0,37.0 L 52.0,23.0 L 56.0,17.0 L 62.0,12.0 L 66.0,10.0 M 69.0,17.0 L 63.0,21.0 L 59.0,26.0 L 58.0,29.0 L 57.0,40.0 L 53.0,49.0 L 46.0,55.0 L 37.0,58.0 L 25.0,59.0 L 19.0,63.0 L 15.0,68.0 L 15.0,79.0 L 19.0,85.0 L 25.0,89.0 L 34.0,89.0 L 45.0,84.0 L 56.0,84.0 L 68.0,90.0 L 74.0,99.0 L 78.0,104.0 L 82.0,106.0 L 92.0,106.0 L 97.0,103.0 L 101.0,99.0 L 102.0,96.0 L 102.0,86.0 L 97.0,79.0 L 91.0,75.0 L 85.0,68.0 L 82.0,60.0 L 82.0,51.0 L 86.0,41.0 L 88.0,37.0 L 88.0,26.0 L 82.0,19.0 L 78.0,17.0 L 69.0,17.0" fill="#090909"/>
	<path d="M 71.0,24.0 L 78.0,25.0 L 81.0,29.0 L 81.0,35.0 L 77.0,39.0 L 70.0,39.0 L 66.0,35.0 L 66.0,29.0 L 71.0,24.0" fill="#0A0A0A"/>
	<path d="M 26.0,66.0 L 32.0,66.0 L 37.0,71.0 L 36.0,78.0 L 33.0,81.0 L 26.0,81.0 L 22.0,77.0 L 22.0,70.0 L 26.0,66.0" fill="#090909"/>
	<path d="M 83.0,84.0 L 91.0,84.0 L 95.0,89.0 L 94.0,95.0 L 89.0,99.0 L 83.0,98.0 L 80.0,95.0 L 80.0,87.0 L 83.0,84.0" fill="#090909"/>
	<path d="M 60.0,57.0 L 67.0,57.0 L 71.0,61.0 L 71.0,67.0 L 66.0,72.0 L 59.0,71.0 L 56.0,67.0 L 57.0,60.0 L 60.0,57.0" fill="#080808"/>
</svg>
