<?xml version="1.0" ?>
<svg baseProfile="full" height="600px" version="1.1" viewBox="-19.296000000000003 -19.296000000000003 230.592 230.592" width="600px" xmlns="http://www.w3.org/2000/svg" xmlns:ev="http://www.w3.org/2001/xml-events" xmlns:xlink="http://www.w3.org/1999/xlink">
	<defs/>
	<path d="M 0.0,0.0 L 192.0,0.0 L 192.0,192.0 L 0.0,192.0 L 0.0,0.0" fill="#FDFDFD"/>
	<path d="M 90.0,24.0 L 101.0,24.0 L 110.0,27.0 L 119.0,35.0 L 124.0,45.0 L 124.0,58.0 L 122.0,64.0 L 122.0,83.0 L 126.0,93.0 L 133.0,102.0 L 141.0,108.0 L 162.0,115.0 L 171.0,123.0 L 175.0,130.0 L 176.0,134.0 L 176.0,144.0 L 173.0,153.0 L 169.0,159.0 L 162.0,165.0 L 153.0,168.0 L 141.0,168.0 L 131.0,163.0 L 122.0,154.0 L 114.0,149.0 L 106.0,146.0 L 86.0,146.0 L 76.0,150.0 L 67.0,157.0 L 58.0,165.0 L 50.0,168.0 L 39.0,168.0 L 30.0,165.0 L 21.0,157.0 L 17.0,149.0 L 16.0,145.0 L 16.0,134.0 L 20.0,125.0 L 27.0,117.0 L 35.0,113.0 L 48.0,110.0 L 57.0,105.0 L 62.0,101.0 L 68.0,92.0 L 71.0,83.0 L 71.0,67.0 L 68.0,57.0 L 68.0,47.0 L 71.0,38.0 L 79.0,29.0 L 86.0,25.0 L 90.0,24.0" fill="#2BB5F4"/>
	<path d="M 144.0,120.0 L 153.0,120.0 L 161.0,124.0 L 167.0,132.0 L 168.0,135.0 L 168.0,144.0 L 164.0,153.0 L 156.0,159.0 L 152.0,160.0 L 143.0,160.0 L 135.0,156.0 L 129.0,148.0 L 128.0,145.0 L 128.0,136.0 L 131.0,129.0 L 135.0,124.0 L 140.0,121.0 L 144.0,120.0" fill="#54707D"/>
	<path d="M 40.0,120.0 L 49.0,120.0 L 57.0,124.0 L 63.0,132.0 L 64.0,135.0 L 64.0,144.0 L 60.0,153.0 L 52.0,159.0 L 48.0,160.0 L 39.0,160.0 L 31.0,156.0 L 25.0,148.0 L 24.0,145.0 L 24.0,136.0 L 27.0,129.0 L 31.0,124.0 L 36.0,121.0 L 40.0,120.0" fill="#54707D"/>
	<path d="M 92.0,32.0 L 101.0,32.0 L 109.0,36.0 L 115.0,44.0 L 116.0,47.0 L 116.0,56.0 L 112.0,65.0 L 104.0,71.0 L 100.0,72.0 L 91.0,72.0 L 83.0,68.0 L 77.0,60.0 L 76.0,57.0 L 76.0,48.0 L 79.0,41.0 L 83.0,36.0 L 88.0,33.0 L 92.0,32.0" fill="#54707D"/>
	<path d="M 92.0,88.0 L 101.0,88.0 L 110.0,93.0 L 115.0,100.0 L 116.0,103.0 L 116.0,112.0 L 113.0,119.0 L 109.0,124.0 L 100.0,128.0 L 91.0,128.0 L 83.0,124.0 L 79.0,119.0 L 76.0,113.0 L 76.0,104.0 L 80.0,95.0 L 88.0,89.0 L 92.0,88.0" fill="#0389D2"/>
	<path d="M 144.0,128.0 L 152.0,128.0 L 159.0,134.0 L 160.0,136.0 L 160.0,144.0 L 154.0,151.0 L 152.0,152.0 L 144.0,152.0 L 137.0,146.0 L 136.0,144.0 L 136.0,136.0 L 142.0,129.0 L 144.0,128.0" fill="#F8F9FA"/>
	<path d="M 40.0,128.0 L 48.0,128.0 L 55.0,134.0 L 56.0,136.0 L 56.0,144.0 L 50.0,151.0 L 48.0,152.0 L 40.0,152.0 L 33.0,146.0 L 32.0,144.0 L 32.0,136.0 L 38.0,129.0 L 40.0,128.0" fill="#F8F9FA"/>
	<path d="M 92.0,40.0 L 100.0,40.0 L 107.0,46.0 L 108.0,48.0 L 108.0,56.0 L 102.0,63.0 L 100.0,64.0 L 92.0,64.0 L 85.0,58.0 L 84.0,56.0 L 84.0,48.0 L 90.0,41.0 L 92.0,40.0" fill="#F8F9FA"/>
</svg>
