<?xml version="1.0" ?>
<svg baseProfile="full" height="600px" version="1.1" viewBox="-12.06 -12.06 144.12 144.12" width="600px" xmlns="http://www.w3.org/2000/svg" xmlns:ev="http://www.w3.org/2001/xml-events" xmlns:xlink="http://www.w3.org/1999/xlink">
	<defs/>
	<path d="M 0.0,0.0 L 120.0,0.0 L 120.0,120.0 L 0.0,120.0 L 0.0,0.0" fill="#FCFCFC"/>
	<path d="M 39.0,11.0 L 48.0,11.0 L 58.0,15.0 L 65.0,24.0 L 69.0,34.0 L 73.0,37.0 L 82.0,37.0 L 84.0,36.0 L 95.0,36.0 L 105.0,41.0 L 111.0,48.0 L 113.0,54.0 L 113.0,65.0 L 107.0,75.0 L 100.0,80.0 L 97.0,81.0 L 76.0,81.0 L 71.0,85.0 L 65.0,101.0 L 57.0,108.0 L 52.0,110.0 L 40.0,110.0 L 32.0,106.0 L 25.0,98.0 L 23.0,93.0 L 23.0,81.0 L 28.0,71.0 L 32.0,66.0 L 32.0,57.0 L 24.0,47.0 L 21.0,40.0 L 21.0,28.0 L 25.0,20.0 L 33.0,13.0 L 39.0,11.0" fill="#040404"/>
	<path d="M 55.0,49.0 L 64.0,49.0 L 71.0,55.0 L 71.0,64.0 L 68.0,69.0 L 64.0,71.0 L 55.0,71.0 L 49.0,64.0 L 49.0,55.0 L 54.0,50.0 L 55.0,49.0" fill="#F9F9F9"/>
	<path d="M 88.0,51.0 L 95.0,52.0 L 98.0,56.0 L 97.0,63.0 L 94.0,66.0 L 87.0,66.0 L 83.0,62.0 L 83.0,56.0 L 88.0,51.0" fill="#F4F4F4"/>
	<path d="M 42.0,80.0 L 49.0,80.0 L 53.0,84.0 L 53.0,91.0 L 48.0,95.0 L 43.0,95.0 L 39.0,91.0 L 39.0,83.0 L 42.0,80.0" fill="#F6F6F6"/>
	<path d="M 40.0,27.0 L 47.0,27.0 L 51.0,31.0 L 51.0,37.0 L 48.0,41.0 L 40.0,41.0 L 36.0,36.0 L 36.0,31.0 L 40.0,27.0" fill="#F7F7F7"/>
</svg>
