<?xml version="1.0" ?>
<svg baseProfile="full" height="600px" version="1.1" viewBox="-19.296000000000003 -19.296000000000003 230.592 230.592" width="600px" xmlns="http://www.w3.org/2000/svg" xmlns:ev="http://www.w3.org/2001/xml-events" xmlns:xlink="http://www.w3.org/1999/xlink">
	<defs/>
	<path d="M 0.0,0.0 L 192.0,0.0 L 192.0,192.0 L 0.0,192.0 L 0.0,0.0" fill="#FCFDFD"/>
	<path d="M 64.0,30.0 L 77.0,30.0 L 87.0,35.0 L 95.0,44.0 L 97.0,49.0 L 100.0,61.0 L 107.0,72.0 L 117.0,79.0 L 128.0,83.0 L 139.0,83.0 L 147.0,81.0 L 162.0,81.0 L 170.0,85.0 L 177.0,92.0 L 181.0,100.0 L 181.0,114.0 L 176.0,124.0 L 168.0,131.0 L 160.0,134.0 L 147.0,134.0 L 136.0,131.0 L 125.0,131.0 L 115.0,134.0 L 106.0,140.0 L 101.0,145.0 L 96.0,153.0 L 92.0,165.0 L 86.0,174.0 L 77.0,180.0 L 73.0,181.0 L 59.0,181.0 L 51.0,177.0 L 44.0,170.0 L 40.0,161.0 L 40.0,148.0 L 45.0,138.0 L 58.0,126.0 L 63.0,116.0 L 64.0,112.0 L 64.0,97.0 L 61.0,88.0 L 55.0,80.0 L 48.0,72.0 L 44.0,64.0 L 44.0,51.0 L 48.0,41.0 L 57.0,33.0 L 64.0,30.0" fill="#2BB4F3"/>
	<path d="M 92.0,85.0 L 102.0,85.0 L 111.0,91.0 L 115.0,98.0 L 115.0,109.0 L 111.0,117.0 L 104.0,122.0 L 101.0,123.0 L 90.0,123.0 L 82.0,118.0 L 77.0,110.0 L 77.0,99.0 L 81.0,91.0 L 88.0,86.0 L 92.0,85.0" fill="#0389D2"/>
	<path d="M 64.0,38.0 L 76.0,38.0 L 82.0,41.0 L 88.0,48.0 L 90.0,52.0 L 90.0,60.0 L 86.0,69.0 L 80.0,74.0 L 74.0,76.0 L 66.0,76.0 L 58.0,72.0 L 53.0,66.0 L 51.0,60.0 L 51.0,53.0 L 55.0,45.0 L 62.0,39.0 L 64.0,38.0" fill="#54717E"/>
	<path d="M 60.0,136.0 L 73.0,136.0 L 82.0,142.0 L 86.0,150.0 L 86.0,158.0 L 82.0,167.0 L 76.0,172.0 L 70.0,174.0 L 62.0,174.0 L 56.0,171.0 L 51.0,166.0 L 48.0,160.0 L 48.0,148.0 L 52.0,142.0 L 58.0,137.0 L 60.0,136.0" fill="#55717E"/>
	<path d="M 150.0,88.0 L 159.0,88.0 L 168.0,93.0 L 173.0,100.0 L 173.0,113.0 L 170.0,119.0 L 163.0,125.0 L 160.0,126.0 L 148.0,126.0 L 140.0,121.0 L 135.0,112.0 L 135.0,103.0 L 139.0,95.0 L 147.0,89.0 L 150.0,88.0" fill="#54717E"/>
	<path d="M 151.0,96.0 L 158.0,96.0 L 164.0,100.0 L 166.0,104.0 L 166.0,111.0 L 160.0,118.0 L 158.0,119.0 L 151.0,119.0 L 145.0,115.0 L 143.0,111.0 L 143.0,104.0 L 147.0,98.0 L 151.0,96.0" fill="#F8F9FA"/>
	<path d="M 67.0,45.0 L 76.0,46.0 L 82.0,53.0 L 82.0,61.0 L 78.0,66.0 L 74.0,68.0 L 66.0,68.0 L 61.0,64.0 L 59.0,61.0 L 59.0,53.0 L 65.0,46.0 L 67.0,45.0" fill="#F8F9FA"/>
	<path d="M 63.0,143.0 L 72.0,144.0 L 77.0,149.0 L 78.0,150.0 L 78.0,158.0 L 74.0,164.0 L 70.0,166.0 L 63.0,166.0 L 58.0,163.0 L 55.0,157.0 L 55.0,151.0 L 61.0,144.0 L 63.0,143.0" fill="#F9F9FA"/>
</svg>
