<?xml version="1.0" ?>
<svg baseProfile="full" height="600px" version="1.1" viewBox="-19.296000000000003 -19.296000000000003 230.592 230.592" width="600px" xmlns="http://www.w3.org/2000/svg" xmlns:ev="http://www.w3.org/2001/xml-events" xmlns:xlink="http://www.w3.org/1999/xlink">
	<defs/>
	<path d="M 0.0,0.0 L 192.0,0.0 L 192.0,192.0 L 0.0,192.0 L 0.0,0.0" fill="#FCFDFD"/>
	<path d="M 94.0,24.0 L 107.0,24.0 L 117.0,29.0 L 124.0,36.0 L 128.0,45.0 L 128.0,56.0 L 124.0,70.0 L 124.0,85.0 L 128.0,97.0 L 135.0,106.0 L 144.0,112.0 L 159.0,118.0 L 168.0,126.0 L 172.0,134.0 L 173.0,137.0 L 173.0,147.0 L 169.0,157.0 L 162.0,165.0 L 155.0,169.0 L 151.0,170.0 L 137.0,170.0 L 128.0,165.0 L 120.0,157.0 L 115.0,152.0 L 107.0,147.0 L 102.0,145.0 L 95.0,144.0 L 82.0,144.0 L 71.0,148.0 L 62.0,155.0 L 53.0,161.0 L 51.0,162.0 L 34.0,162.0 L 26.0,158.0 L 19.0,151.0 L 15.0,142.0 L 15.0,127.0 L 20.0,117.0 L 27.0,111.0 L 36.0,107.0 L 49.0,105.0 L 58.0,101.0 L 66.0,94.0 L 71.0,86.0 L 74.0,78.0 L 74.0,63.0 L 73.0,60.0 L 73.0,43.0 L 79.0,33.0 L 86.0,27.0 L 94.0,24.0" fill="#2AB5F4"/>
	<path d="M 37.0,115.0 L 47.0,115.0 L 55.0,119.0 L 60.0,125.0 L 62.0,129.0 L 62.0,140.0 L 56.0,150.0 L 47.0,155.0 L 38.0,155.0 L 30.0,151.0 L 24.0,144.0 L 22.0,139.0 L 22.0,130.0 L 28.0,120.0 L 34.0,116.0 L 37.0,115.0" fill="#55727F"/>
	<path d="M 91.0,87.0 L 100.0,87.0 L 108.0,91.0 L 114.0,97.0 L 116.0,103.0 L 116.0,112.0 L 110.0,122.0 L 103.0,126.0 L 99.0,127.0 L 92.0,127.0 L 85.0,124.0 L 80.0,119.0 L 76.0,111.0 L 76.0,102.0 L 81.0,93.0 L 87.0,89.0 L 91.0,87.0" fill="#0389D2"/>
	<path d="M 139.0,123.0 L 150.0,123.0 L 158.0,127.0 L 163.0,133.0 L 165.0,138.0 L 165.0,147.0 L 161.0,155.0 L 155.0,160.0 L 152.0,162.0 L 139.0,162.0 L 132.0,158.0 L 127.0,152.0 L 125.0,146.0 L 125.0,138.0 L 129.0,130.0 L 135.0,125.0 L 139.0,123.0" fill="#55717E"/>
	<path d="M 96.0,32.0 L 105.0,32.0 L 113.0,36.0 L 118.0,42.0 L 120.0,48.0 L 120.0,56.0 L 116.0,64.0 L 109.0,70.0 L 106.0,71.0 L 94.0,71.0 L 87.0,67.0 L 82.0,61.0 L 80.0,55.0 L 80.0,48.0 L 84.0,39.0 L 92.0,33.0 L 96.0,32.0" fill="#55717E"/>
	<path d="M 140.0,131.0 L 149.0,131.0 L 155.0,135.0 L 157.0,139.0 L 157.0,146.0 L 153.0,152.0 L 149.0,154.0 L 140.0,154.0 L 135.0,150.0 L 133.0,145.0 L 133.0,139.0 L 137.0,133.0 L 140.0,131.0" fill="#F8F9FA"/>
	<path d="M 38.0,123.0 L 45.0,123.0 L 51.0,126.0 L 54.0,131.0 L 54.0,138.0 L 51.0,143.0 L 47.0,146.0 L 37.0,146.0 L 32.0,142.0 L 30.0,138.0 L 30.0,132.0 L 34.0,126.0 L 38.0,123.0" fill="#F9FAFA"/>
	<path d="M 96.0,40.0 L 104.0,40.0 L 110.0,44.0 L 112.0,48.0 L 112.0,55.0 L 108.0,61.0 L 105.0,63.0 L 95.0,63.0 L 90.0,58.0 L 88.0,54.0 L 89.0,46.0 L 96.0,40.0" fill="#FAFAFB"/>
</svg>
