<?xml version="1.0" ?>
<svg baseProfile="full" height="600px" version="1.1" viewBox="-12.06 -12.06 144.12 144.12" width="600px" xmlns="http://www.w3.org/2000/svg" xmlns:ev="http://www.w3.org/2001/xml-events" xmlns:xlink="http://www.w3.org/1999/xlink">
	<defs/>
	<path d="M 0.0,0.0 L 120.0,0.0 L 120.0,120.0 L 0.0,120.0 L 0.0,0.0" fill="#FCFCFC"/>
	<path d="M 61.0,5.0 L 72.0,5.0 L 80.0,9.0 L 88.0,18.0 L 90.0,23.0 L 90.0,35.0 L 86.0,44.0 L 86.0,51.0 L 89.0,56.0 L 99.0,62.0 L 106.0,70.0 L 108.0,75.0 L 108.0,84.0 L 105.0,93.0 L 101.0,99.0 L 95.0,103.0 L 89.0,105.0 L 78.0,105.0 L 68.0,100.0 L 58.0,89.0 L 56.0,88.0 L 48.0,88.0 L 36.0,94.0 L 24.0,94.0 L 14.0,89.0 L 9.0,83.0 L 6.0,77.0 L 6.0,65.0 L 9.0,57.0 L 15.0,50.0 L 21.0,47.0 L 37.0,44.0 L 41.0,40.0 L 42.0,37.0 L 43.0,22.0 L 47.0,14.0 L 56.0,7.0 L 61.0,5.0" fill="#040404"/>
	<path d="M 56.0,48.0 L 63.0,48.0 L 69.0,52.0 L 72.0,56.0 L 72.0,63.0 L 68.0,69.0 L 63.0,72.0 L 56.0,72.0 L 50.0,67.0 L 48.0,63.0 L 48.0,56.0 L 54.0,49.0 L 56.0,48.0" fill="#F6F6F6"/>
	<path d="M 81.0,73.0 L 88.0,74.0 L 92.0,78.0 L 92.0,84.0 L 87.0,89.0 L 81.0,89.0 L 76.0,84.0 L 76.0,78.0 L 81.0,73.0" fill="#F0F0F0"/>
	<path d="M 63.0,21.0 L 69.0,21.0 L 74.0,26.0 L 74.0,32.0 L 69.0,37.0 L 62.0,36.0 L 59.0,33.0 L 59.0,25.0 L 63.0,21.0" fill="#F5F5F5"/>
	<path d="M 27.0,62.0 L 34.0,63.0 L 37.0,66.0 L 37.0,74.0 L 32.0,78.0 L 25.0,77.0 L 22.0,73.0 L 22.0,67.0 L 27.0,62.0" fill="#F6F6F6"/>
</svg>
