<?xml version="1.0" ?>
<svg baseProfile="full" height="600px" version="1.1" viewBox="-12.06 -12.06 144.12 144.12" width="600px" xmlns="http://www.w3.org/2000/svg" xmlns:ev="http://www.w3.org/2001/xml-events" xmlns:xlink="http://www.w3.org/1999/xlink">
	<defs/>
	<path d="M 0.0,0.0 L 120.0,0.0 L 120.0,120.0 L 0.0,120.0 L 0.0,0.0" fill="#FCFCFC"/>
	<path d="M 61.0,8.0 L 74.0,8.0 L 82.0,12.0 L 89.0,20.0 L 91.0,26.0 L 91.0,36.0 L 86.0,47.0 L 86.0,53.0 L 90.0,59.0 L 96.0,63.0 L 102.0,70.0 L 104.0,75.0 L 104.0,88.0 L 100.0,96.0 L 93.0,102.0 L 85.0,105.0 L 76.0,105.0 L 68.0,101.0 L 61.0,93.0 L 57.0,87.0 L 55.0,86.0 L 46.0,86.0 L 34.0,91.0 L 27.0,91.0 L 18.0,87.0 L 12.0,82.0 L 8.0,74.0 L 8.0,62.0 L 13.0,53.0 L 20.0,47.0 L 25.0,45.0 L 38.0,44.0 L 43.0,39.0 L 44.0,38.0 L 45.0,25.0 L 49.0,16.0 L 56.0,10.0 L 61.0,8.0" fill="#040404"/>
	<path d="M 55.0,49.0 L 64.0,49.0 L 71.0,55.0 L 71.0,64.0 L 68.0,69.0 L 64.0,71.0 L 55.0,71.0 L 49.0,64.0 L 49.0,55.0 L 54.0,50.0 L 55.0,49.0" fill="#F9F9F9"/>
	<path d="M 28.0,60.0 L 35.0,61.0 L 38.0,65.0 L 38.0,71.0 L 34.0,75.0 L 27.0,75.0 L 23.0,70.0 L 24.0,63.0 L 28.0,60.0" fill="#F3F3F3"/>
	<path d="M 65.0,23.0 L 71.0,23.0 L 75.0,27.0 L 75.0,34.0 L 70.0,38.0 L 63.0,37.0 L 60.0,33.0 L 61.0,26.0 L 65.0,23.0" fill="#F3F3F3"/>
	<path d="M 79.0,74.0 L 86.0,75.0 L 89.0,79.0 L 89.0,85.0 L 85.0,89.0 L 78.0,89.0 L 74.0,84.0 L 75.0,77.0 L 79.0,74.0" fill="#F5F5F5"/>
</svg>
