<?xml version="1.0" ?>
<svg baseProfile="full" height="600px" version="1.1" viewBox="-12.864 -12.864 153.728 153.728" width="600px" xmlns="http://www.w3.org/2000/svg" xmlns:ev="http://www.w3.org/2001/xml-events" xmlns:xlink="http://www.w3.org/1999/xlink">
	<defs/>
	<path d="M 0.0,0.0 L 128.0,0.0 L 128.0,128.0 L 0.0,128.0 L 0.0,0.0" fill="#FCFCFC"/>
	<path d="M 61.0,8.0 L 71.0,8.0 L 81.0,13.0 L 88.0,21.0 L 90.0,26.0 L 90.0,36.0 L 88.0,43.0 L 88.0,53.0 L 92.0,61.0 L 99.0,66.0 L 108.0,70.0 L 113.0,74.0 L 117.0,81.0 L 118.0,85.0 L 118.0,95.0 L 115.0,103.0 L 110.0,108.0 L 102.0,113.0 L 98.0,114.0 L 89.0,114.0 L 79.0,109.0 L 73.0,102.0 L 64.0,98.0 L 56.0,98.0 L 48.0,103.0 L 40.0,108.0 L 37.0,109.0 L 24.0,109.0 L 16.0,105.0 L 10.0,98.0 L 7.0,91.0 L 7.0,79.0 L 12.0,70.0 L 19.0,64.0 L 24.0,62.0 L 32.0,60.0 L 38.0,56.0 L 42.0,50.0 L 43.0,47.0 L 43.0,39.0 L 42.0,37.0 L 42.0,27.0 L 47.0,17.0 L 54.0,11.0 L 61.0,8.0" fill="#F8F8F8"/>
	<path d="M 61.0,8.0 L 71.0,8.0 L 81.0,13.0 L 88.0,21.0 L 90.0,26.0 L 90.0,36.0 L 88.0,43.0 L 88.0,53.0 L 92.0,61.0 L 99.0,66.0 L 108.0,70.0 L 113.0,74.0 L 117.0,81.0 L 118.0,85.0 L 118.0,95.0 L 115.0,103.0 L 110.0,108.0 L 102.0,113.0 L 98.0,114.0 L 89.0,114.0 L 79.0,109.0 L 73.0,102.0 L 64.0,98.0 L 56.0,98.0 L 48.0,103.0 L 40.0,108.0 L 37.0,109.0 L 24.0,109.0 L 16.0,105.0 L 10.0,98.0 L 7.0,91.0 L 7.0,79.0 L 12.0,70.0 L 19.0,64.0 L 24.0,62.0 L 32.0,60.0 L 38.0,56.0 L 42.0,50.0 L 43.0,47.0 L 43.0,39.0 L 42.0,37.0 L 42.0,27.0 L 47.0,17.0 L 54.0,11.0 L 61.0,8.0 M 62.0,16.0 L 53.0,22.0 L 50.0,28.0 L 50.0,35.0 L 51.0,38.0 L 51.0,48.0 L 47.0,58.0 L 42.0,63.0 L 36.0,67.0 L 31.0,69.0 L 23.0,71.0 L 18.0,75.0 L 15.0,81.0 L 15.0,89.0 L 19.0,97.0 L 25.0,101.0 L 36.0,101.0 L 42.0,97.0 L 52.0,91.0 L 55.0,90.0 L 66.0,90.0 L 78.0,96.0 L 86.0,104.0 L 90.0,106.0 L 97.0,106.0 L 105.0,102.0 L 109.0,97.0 L 110.0,94.0 L 110.0,85.0 L 106.0,79.0 L 101.0,75.0 L 92.0,71.0 L 85.0,65.0 L 81.0,57.0 L 80.0,53.0 L 80.0,42.0 L 82.0,36.0 L 82.0,27.0 L 76.0,19.0 L 69.0,16.0 L 62.0,16.0" fill="#080808"/>
	<path d="M 63.0,24.0 L 69.0,24.0 L 74.0,29.0 L 74.0,35.0 L 69.0,40.0 L 63.0,40.0 L 58.0,35.0 L 58.0,29.0 L 63.0,24.0" fill="#0B0B0B"/>
	<path d="M 90.0,82.0 L 97.0,82.0 L 102.0,87.0 L 101.0,94.0 L 98.0,97.0 L 92.0,98.0 L 86.0,93.0 L 86.0,87.0 L 90.0,82.0" fill="#080808"/>
	<path d="M 28.0,77.0 L 35.0,78.0 L 38.0,81.0 L 38.0,89.0 L 34.0,93.0 L 27.0,93.0 L 23.0,89.0 L 23.0,81.0 L 28.0,77.0" fill="#090909"/>
	<path d="M 60.0,60.0 L 67.0,60.0 L 71.0,64.0 L 71.0,72.0 L 68.0,75.0 L 60.0,75.0 L 56.0,71.0 L 56.0,64.0 L 60.0,60.0" fill="#050505"/>
</svg>
