<?xml version="1.0" ?>
<svg baseProfile="full" height="600px" version="1.1" viewBox="-20.1 -20.1 240.2 240.2" width="600px" xmlns="http://www.w3.org/2000/svg" xmlns:ev="http://www.w3.org/2001/xml-events" xmlns:xlink="http://www.w3.org/1999/xlink">
	<defs/>
	<path d="M 0.0,0.0 L 200.0,0.0 L 200.0,200.0 L 0.0,200.0 L 0.0,0.0" fill="#080808"/>
	<path d="M 0.0,0.0 L 200.0,0.0 L 200.0,200.0 L 0.0,200.0 L 0.0,0.0 M 38.0,7.0 L 22.0,8.0 L 22.0,36.0 L 25.0,124.0 L 28.0,192.0 L 79.0,194.0 L 140.0,197.0 L 169.0,198.0 L 185.0,198.0 L 187.0,163.0 L 191.0,79.0 L 191.0,64.0 L 177.0,49.0 L 168.0,39.0 L 156.0,26.0 L 145.0,14.0 L 143.0,12.0 L 84.0,9.0 L 56.0,8.0 L 55.0,7.0 L 38.0,7.0" fill="#FBFBFB"/>
	<path d="M 40.0,15.0 L 50.0,15.0 L 51.0,53.0 L 53.0,105.0 L 53.0,124.0 L 63.0,123.0 L 153.0,120.0 L 162.0,120.0 L 164.0,170.0 L 164.0,180.0 L 70.0,183.0 L 50.0,184.0 L 36.0,184.0 L 35.0,177.0 L 33.0,111.0 L 32.0,94.0 L 30.0,27.0 L 30.0,16.0 L 40.0,15.0" fill="#FBFBFB"/>
	<path d="M 66.0,17.0 L 83.0,17.0 L 127.0,19.0 L 137.0,20.0 L 136.0,53.0 L 135.0,68.0 L 171.0,69.0 L 183.0,70.0 L 182.0,99.0 L 179.0,162.0 L 178.0,190.0 L 143.0,189.0 L 143.0,188.0 L 154.0,187.0 L 172.0,187.0 L 170.0,139.0 L 170.0,114.0 L 166.0,112.0 L 157.0,103.0 L 149.0,96.0 L 142.0,89.0 L 134.0,82.0 L 127.0,75.0 L 119.0,68.0 L 102.0,52.0 L 86.0,37.0 L 73.0,25.0 L 66.0,19.0 L 66.0,17.0" fill="#FAFAFA"/>
	<path d="M 58.0,22.0 L 65.0,28.0 L 77.0,39.0 L 93.0,54.0 L 106.0,66.0 L 123.0,82.0 L 136.0,94.0 L 152.0,109.0 L 154.0,112.0 L 148.0,113.0 L 127.0,114.0 L 86.0,115.0 L 60.0,116.0 L 59.0,71.0 L 58.0,46.0 L 58.0,22.0" fill="#FBFBFB"/>
	<path d="M 145.0,27.0 L 152.0,33.0 L 161.0,43.0 L 173.0,56.0 L 176.0,61.0 L 159.0,61.0 L 144.0,60.0 L 144.0,33.0 L 145.0,27.0" fill="#FAFAFA"/>
</svg>
