<?xml version="1.0" ?>
<svg baseProfile="full" height="600px" version="1.1" viewBox="-16.08 -16.08 192.16 192.16" width="600px" xmlns="http://www.w3.org/2000/svg" xmlns:ev="http://www.w3.org/2001/xml-events" xmlns:xlink="http://www.w3.org/1999/xlink">
	<defs/>
	<path d="M 0.0,0.0 L 160.0,0.0 L 160.0,160.0 L 0.0,160.0 L 0.0,0.0" fill="#FCFCFD"/>
	<path d="M 23.0,6.0 L 73.0,6.0 L 73.0,18.0 L 87.0,18.0 L 93.0,23.0 L 93.0,149.0 L 89.0,153.0 L 87.0,154.0 L 9.0,154.0 L 4.0,151.0 L 3.0,149.0 L 3.0,23.0 L 9.0,18.0 L 23.0,18.0 L 23.0,6.0" fill="#DAD3F0"/>
	<path d="M 23.0,6.0 L 73.0,6.0 L 73.0,18.0 L 87.0,18.0 L 93.0,23.0 L 93.0,149.0 L 89.0,153.0 L 87.0,154.0 L 9.0,154.0 L 4.0,151.0 L 3.0,149.0 L 3.0,23.0 L 9.0,18.0 L 23.0,18.0 L 23.0,6.0 M 9.0,23.0 L 7.0,25.0 L 7.0,148.0 L 8.0,149.0 L 88.0,149.0 L 89.0,148.0 L 89.0,25.0 L 87.0,23.0 L 9.0,23.0" fill="#917DA7"/>
	<path d="M 40.0,40.0 L 44.0,40.0 L 44.0,44.0 L 60.0,44.0 L 60.0,128.0 L 44.0,128.0 L 44.0,132.0 L 40.0,132.0 L 40.0,40.0" fill="#8B75A1"/>
	<path d="M 44.0,64.0 L 56.0,64.0 L 56.0,108.0 L 44.0,108.0 L 44.0,64.0" fill="#89B5EE"/>
	<path d="M 44.0,44.0 L 60.0,44.0 L 60.0,128.0 L 44.0,128.0 L 44.0,124.0 L 56.0,124.0 L 56.0,112.0 L 44.0,112.0 L 44.0,108.0 L 56.0,108.0 L 56.0,64.0 L 44.0,64.0 L 44.0,60.0 L 56.0,60.0 L 56.0,48.0 L 44.0,48.0 L 44.0,44.0" fill="#4F7AB5"/>
	<path d="M 44.0,112.0 L 56.0,112.0 L 56.0,124.0 L 44.0,124.0 L 44.0,112.0" fill="#DAD3F0"/>
	<path d="M 44.0,48.0 L 56.0,48.0 L 56.0,60.0 L 44.0,60.0 L 44.0,48.0" fill="#DAD3F0"/>
</svg>
