<?xml version="1.0" ?>
<svg baseProfile="full" height="600px" version="1.1" viewBox="-16.08 -16.08 192.16 192.16" width="600px" xmlns="http://www.w3.org/2000/svg" xmlns:ev="http://www.w3.org/2001/xml-events" xmlns:xlink="http://www.w3.org/1999/xlink">
	<defs/>
	<path d="M 0.0,0.0 L 160.0,0.0 L 160.0,160.0 L 0.0,160.0 L 0.0,0.0" fill="#507CB6"/>
	<path d="M 0.0,0.0 L 160.0,0.0 L 160.0,160.0 L 0.0,160.0 L 0.0,0.0 M 24.0,8.0 L 24.0,20.0 L 8.0,20.0 L 3.0,25.0 L 3.0,146.0 L 8.0,152.0 L 87.0,152.0 L 92.0,148.0 L 93.0,146.0 L 93.0,128.0 L 122.0,128.0 L 122.0,44.0 L 93.0,44.0 L 93.0,26.0 L 89.0,21.0 L 87.0,20.0 L 72.0,20.0 L 72.0,8.0 L 24.0,8.0" fill="#FDFDFD"/>
	<path d="M 9.0,24.0 L 86.0,24.0 L 89.0,27.0 L 89.0,44.0 L 44.0,44.0 L 44.0,40.0 L 40.0,40.0 L 40.0,132.0 L 44.0,132.0 L 44.0,128.0 L 89.0,128.0 L 89.0,145.0 L 86.0,148.0 L 9.0,148.0 L 7.0,145.0 L 7.0,27.0 L 9.0,24.0" fill="#D9D2EF"/>
	<path d="M 44.0,64.0 L 118.0,64.0 L 118.0,108.0 L 44.0,108.0 L 44.0,64.0" fill="#89B5EE"/>
	<path d="M 24.0,8.0 L 72.0,8.0 L 72.0,20.0 L 87.0,20.0 L 92.0,24.0 L 93.0,26.0 L 93.0,44.0 L 89.0,44.0 L 88.0,25.0 L 9.0,25.0 L 8.0,27.0 L 8.0,145.0 L 9.0,147.0 L 88.0,147.0 L 89.0,128.0 L 93.0,128.0 L 93.0,146.0 L 89.0,151.0 L 87.0,152.0 L 8.0,152.0 L 3.0,146.0 L 3.0,25.0 L 8.0,20.0 L 24.0,20.0 L 24.0,8.0" fill="#8E79A4"/>
	<path d="M 40.0,40.0 L 44.0,40.0 L 44.0,132.0 L 40.0,132.0 L 40.0,40.0" fill="#8B75A1"/>
	<path d="M 106.0,112.0 L 118.0,112.0 L 118.0,124.0 L 106.0,124.0 L 106.0,112.0" fill="#F9FAFC"/>
	<path d="M 74.0,112.0 L 86.0,112.0 L 86.0,124.0 L 74.0,124.0 L 74.0,112.0" fill="#D7D1EF"/>
	<path d="M 58.0,112.0 L 70.0,112.0 L 70.0,124.0 L 58.0,124.0 L 58.0,112.0" fill="#D7D1EF"/>
	<path d="M 106.0,48.0 L 118.0,48.0 L 118.0,60.0 L 106.0,60.0 L 106.0,48.0" fill="#F9FAFC"/>
	<path d="M 74.0,48.0 L 86.0,48.0 L 86.0,60.0 L 74.0,60.0 L 74.0,48.0" fill="#D7D1EF"/>
	<path d="M 58.0,48.0 L 70.0,48.0 L 70.0,60.0 L 58.0,60.0 L 58.0,48.0" fill="#D7D1EF"/>
	<path d="M 44.0,112.0 L 54.0,112.0 L 54.0,124.0 L 44.0,124.0 L 44.0,112.0" fill="#DAD3F0"/>
	<path d="M 44.0,48.0 L 54.0,48.0 L 54.0,60.0 L 44.0,60.0 L 44.0,48.0" fill="#DAD3F0"/>
	<path d="M 93.0,112.0 L 102.0,112.0 L 102.0,124.0 L 93.0,124.0 L 93.0,112.0" fill="#FCFDFD"/>
	<path d="M 93.0,48.0 L 102.0,48.0 L 102.0,60.0 L 93.0,60.0 L 93.0,48.0" fill="#FDFDFD"/>
	<path d="M 90.0,112.0 L 93.0,112.0 L 93.0,124.0 L 90.0,124.0 L 90.0,112.0" fill="#9183AC"/>
	<path d="M 90.0,48.0 L 93.0,48.0 L 93.0,60.0 L 90.0,60.0 L 90.0,48.0" fill="#9183AC"/>
	<path d="M 86.0,48.0 L 88.0,51.0 L 90.0,51.0 L 90.0,55.0 L 88.0,55.0 L 87.0,60.0 L 86.0,60.0 L 86.0,48.0" fill="#5C83BB"/>
</svg>
