<?xml version="1.0" ?>
<svg baseProfile="full" height="600px" version="1.1" viewBox="-16.08 -16.08 192.16 192.16" width="600px" xmlns="http://www.w3.org/2000/svg" xmlns:ev="http://www.w3.org/2001/xml-events" xmlns:xlink="http://www.w3.org/1999/xlink">
	<defs/>
	<path d="M 0.0,0.0 L 160.0,0.0 L 160.0,160.0 L 0.0,160.0 L 0.0,0.0" fill="#4F7AB5"/>
	<path d="M 0.0,0.0 L 160.0,0.0 L 160.0,160.0 L 0.0,160.0 L 0.0,0.0 M 24.0,8.0 L 24.0,20.0 L 9.0,20.0 L 4.0,25.0 L 4.0,147.0 L 9.0,152.0 L 86.0,152.0 L 91.0,149.0 L 92.0,146.0 L 92.0,128.0 L 156.0,128.0 L 156.0,44.0 L 92.0,44.0 L 92.0,25.0 L 87.0,20.0 L 72.0,20.0 L 72.0,8.0 L 24.0,8.0" fill="#FDFDFE"/>
	<path d="M 10.0,24.0 L 86.0,24.0 L 88.0,26.0 L 88.0,44.0 L 44.0,44.0 L 44.0,40.0 L 40.0,40.0 L 40.0,132.0 L 44.0,132.0 L 44.0,128.0 L 88.0,128.0 L 88.0,146.0 L 86.0,148.0 L 10.0,148.0 L 8.0,146.0 L 8.0,26.0 L 10.0,24.0" fill="#DAD3F0"/>
	<path d="M 44.0,64.0 L 152.0,64.0 L 152.0,108.0 L 44.0,108.0 L 44.0,64.0" fill="#89B5EE"/>
	<path d="M 24.0,8.0 L 72.0,8.0 L 72.0,20.0 L 87.0,20.0 L 92.0,25.0 L 92.0,44.0 L 88.0,44.0 L 87.0,26.0 L 86.0,25.0 L 10.0,25.0 L 9.0,26.0 L 9.0,146.0 L 10.0,147.0 L 86.0,147.0 L 87.0,146.0 L 88.0,128.0 L 92.0,128.0 L 92.0,146.0 L 89.0,151.0 L 86.0,152.0 L 9.0,152.0 L 4.0,147.0 L 4.0,25.0 L 9.0,20.0 L 24.0,20.0 L 24.0,8.0" fill="#8B76A2"/>
	<path d="M 40.0,40.0 L 44.0,40.0 L 44.0,48.0 L 56.0,48.0 L 56.0,60.0 L 44.0,60.0 L 44.0,112.0 L 56.0,112.0 L 56.0,124.0 L 44.0,124.0 L 44.0,132.0 L 40.0,132.0 L 40.0,40.0" fill="#8B75A1"/>
	<path d="M 140.0,112.0 L 152.0,112.0 L 152.0,124.0 L 140.0,124.0 L 140.0,112.0" fill="#FCFCFD"/>
	<path d="M 124.0,112.0 L 136.0,112.0 L 136.0,124.0 L 124.0,124.0 L 124.0,112.0" fill="#FCFCFD"/>
	<path d="M 108.0,112.0 L 120.0,112.0 L 120.0,124.0 L 108.0,124.0 L 108.0,112.0" fill="#FCFCFD"/>
	<path d="M 92.0,112.0 L 104.0,112.0 L 104.0,124.0 L 92.0,124.0 L 92.0,112.0" fill="#FCFCFD"/>
	<path d="M 76.0,112.0 L 88.0,112.0 L 88.0,124.0 L 76.0,124.0 L 76.0,112.0" fill="#D9D2F0"/>
	<path d="M 60.0,112.0 L 72.0,112.0 L 72.0,124.0 L 60.0,124.0 L 60.0,112.0" fill="#D9D2F0"/>
	<path d="M 44.0,112.0 L 56.0,112.0 L 56.0,124.0 L 44.0,124.0 L 44.0,112.0" fill="#D9D2F0"/>
	<path d="M 140.0,48.0 L 152.0,48.0 L 152.0,60.0 L 140.0,60.0 L 140.0,48.0" fill="#FDFCFD"/>
	<path d="M 124.0,48.0 L 136.0,48.0 L 136.0,60.0 L 124.0,60.0 L 124.0,48.0" fill="#FCFCFD"/>
	<path d="M 108.0,48.0 L 120.0,48.0 L 120.0,60.0 L 108.0,60.0 L 108.0,48.0" fill="#FCFCFD"/>
	<path d="M 92.0,48.0 L 104.0,48.0 L 104.0,60.0 L 92.0,60.0 L 92.0,48.0" fill="#FCFCFD"/>
	<path d="M 76.0,48.0 L 88.0,48.0 L 88.0,60.0 L 76.0,60.0 L 76.0,48.0" fill="#D9D2F0"/>
	<path d="M 60.0,48.0 L 72.0,48.0 L 72.0,60.0 L 60.0,60.0 L 60.0,48.0" fill="#D9D2F0"/>
	<path d="M 44.0,48.0 L 56.0,48.0 L 56.0,60.0 L 44.0,60.0 L 44.0,48.0" fill="#D9D2F0"/>
</svg>
