<?xml version="1.0" ?>
<svg baseProfile="full" height="600px" version="1.1" viewBox="-16.08 -16.08 192.16 192.16" width="600px" xmlns="http://www.w3.org/2000/svg" xmlns:ev="http://www.w3.org/2001/xml-events" xmlns:xlink="http://www.w3.org/1999/xlink">
	<defs/>
	<path d="M 0.0,0.0 L 160.0,0.0 L 160.0,160.0 L 0.0,160.0 L 0.0,0.0" fill="#ADBED2"/>
	<path d="M 0.0,0.0 L 160.0,0.0 L 160.0,160.0 L 0.0,160.0 L 0.0,0.0 M 58.0,4.0 L 44.0,8.0 L 31.0,15.0 L 19.0,26.0 L 12.0,36.0 L 7.0,47.0 L 4.0,58.0 L 4.0,75.0 L 7.0,89.0 L 15.0,105.0 L 26.0,117.0 L 36.0,124.0 L 46.0,129.0 L 59.0,132.0 L 78.0,132.0 L 92.0,128.0 L 105.0,121.0 L 117.0,110.0 L 124.0,100.0 L 129.0,89.0 L 132.0,78.0 L 132.0,59.0 L 129.0,46.0 L 121.0,31.0 L 110.0,19.0 L 100.0,12.0 L 90.0,7.0 L 77.0,4.0 L 58.0,4.0" fill="#FDFDFD"/>
	<path d="M 58.0,4.0 L 77.0,4.0 L 90.0,7.0 L 105.0,15.0 L 117.0,26.0 L 124.0,36.0 L 129.0,46.0 L 132.0,59.0 L 132.0,78.0 L 128.0,92.0 L 121.0,105.0 L 110.0,117.0 L 100.0,124.0 L 89.0,129.0 L 78.0,132.0 L 59.0,132.0 L 44.0,128.0 L 31.0,121.0 L 19.0,110.0 L 12.0,100.0 L 7.0,89.0 L 4.0,75.0 L 4.0,58.0 L 9.0,42.0 L 15.0,31.0 L 26.0,19.0 L 36.0,12.0 L 47.0,7.0 L 58.0,4.0 M 59.0,8.0 L 45.0,12.0 L 34.0,18.0 L 24.0,27.0 L 18.0,34.0 L 11.0,48.0 L 8.0,59.0 L 8.0,74.0 L 10.0,84.0 L 15.0,97.0 L 23.0,108.0 L 30.0,115.0 L 41.0,122.0 L 52.0,126.0 L 60.0,128.0 L 77.0,128.0 L 91.0,124.0 L 102.0,118.0 L 112.0,109.0 L 118.0,102.0 L 125.0,88.0 L 128.0,77.0 L 128.0,60.0 L 123.0,43.0 L 117.0,33.0 L 108.0,23.0 L 97.0,15.0 L 84.0,10.0 L 76.0,8.0 L 59.0,8.0" fill="#6D7F94"/>
	<path d="M 96.0,53.0 L 104.0,53.0 L 111.0,57.0 L 115.0,62.0 L 116.0,65.0 L 116.0,74.0 L 112.0,80.0 L 107.0,84.0 L 105.0,85.0 L 95.0,85.0 L 89.0,81.0 L 85.0,76.0 L 84.0,73.0 L 84.0,64.0 L 88.0,58.0 L 96.0,53.0" fill="#88B4ED"/>
	<path d="M 64.0,20.0 L 73.0,20.0 L 79.0,23.0 L 84.0,29.0 L 85.0,31.0 L 85.0,41.0 L 81.0,47.0 L 76.0,51.0 L 74.0,52.0 L 66.0,52.0 L 59.0,49.0 L 54.0,43.0 L 53.0,40.0 L 53.0,32.0 L 58.0,24.0 L 64.0,20.0" fill="#88B4ED"/>
	<path d="M 31.0,51.0 L 40.0,51.0 L 46.0,54.0 L 51.0,60.0 L 52.0,62.0 L 52.0,70.0 L 49.0,77.0 L 44.0,81.0 L 39.0,83.0 L 32.0,83.0 L 25.0,79.0 L 21.0,74.0 L 20.0,71.0 L 20.0,62.0 L 24.0,56.0 L 29.0,52.0 L 31.0,51.0" fill="#88B4ED"/>
	<path d="M 62.0,84.0 L 71.0,84.0 L 78.0,88.0 L 82.0,93.0 L 83.0,96.0 L 83.0,103.0 L 79.0,111.0 L 73.0,115.0 L 70.0,116.0 L 62.0,116.0 L 56.0,112.0 L 52.0,107.0 L 51.0,104.0 L 51.0,95.0 L 55.0,89.0 L 60.0,85.0 L 62.0,84.0" fill="#88B4ED"/>
	<path d="M 64.0,20.0 L 73.0,20.0 L 79.0,23.0 L 84.0,29.0 L 85.0,31.0 L 85.0,41.0 L 81.0,47.0 L 76.0,51.0 L 74.0,52.0 L 66.0,52.0 L 59.0,49.0 L 54.0,43.0 L 53.0,40.0 L 53.0,32.0 L 58.0,24.0 L 64.0,20.0 M 65.0,24.0 L 59.0,29.0 L 57.0,34.0 L 58.0,41.0 L 63.0,47.0 L 65.0,48.0 L 73.0,48.0 L 78.0,45.0 L 81.0,40.0 L 81.0,32.0 L 78.0,27.0 L 72.0,24.0 L 65.0,24.0" fill="#537EB7"/>
	<path d="M 96.0,53.0 L 104.0,53.0 L 111.0,57.0 L 115.0,62.0 L 116.0,65.0 L 116.0,74.0 L 112.0,80.0 L 107.0,84.0 L 105.0,85.0 L 95.0,85.0 L 89.0,81.0 L 85.0,76.0 L 84.0,73.0 L 84.0,64.0 L 88.0,58.0 L 96.0,53.0 M 96.0,57.0 L 89.0,63.0 L 88.0,65.0 L 88.0,72.0 L 91.0,78.0 L 96.0,81.0 L 104.0,81.0 L 109.0,78.0 L 112.0,73.0 L 112.0,66.0 L 109.0,61.0 L 103.0,57.0 L 96.0,57.0" fill="#537EB7"/>
	<path d="M 31.0,51.0 L 40.0,51.0 L 46.0,54.0 L 51.0,60.0 L 52.0,62.0 L 52.0,70.0 L 49.0,77.0 L 44.0,81.0 L 39.0,83.0 L 32.0,83.0 L 25.0,79.0 L 21.0,74.0 L 20.0,71.0 L 20.0,62.0 L 24.0,56.0 L 29.0,52.0 L 31.0,51.0 M 32.0,55.0 L 27.0,58.0 L 24.0,63.0 L 24.0,70.0 L 27.0,75.0 L 33.0,79.0 L 41.0,78.0 L 46.0,74.0 L 48.0,71.0 L 48.0,63.0 L 45.0,58.0 L 39.0,55.0 L 32.0,55.0" fill="#537EB7"/>
	<path d="M 62.0,84.0 L 71.0,84.0 L 78.0,88.0 L 82.0,93.0 L 83.0,96.0 L 83.0,103.0 L 79.0,111.0 L 73.0,115.0 L 70.0,116.0 L 62.0,116.0 L 56.0,112.0 L 52.0,107.0 L 51.0,104.0 L 51.0,95.0 L 55.0,89.0 L 60.0,85.0 L 62.0,84.0 M 63.0,88.0 L 57.0,92.0 L 55.0,96.0 L 55.0,103.0 L 58.0,108.0 L 63.0,112.0 L 72.0,111.0 L 77.0,107.0 L 79.0,102.0 L 78.0,94.0 L 73.0,89.0 L 70.0,88.0 L 63.0,88.0" fill="#527EB7"/>
	<path d="M 65.0,60.0 L 71.0,60.0 L 76.0,65.0 L 76.0,71.0 L 71.0,76.0 L 65.0,76.0 L 60.0,71.0 L 60.0,65.0 L 65.0,60.0" fill="#3B4552"/>
</svg>
