<?xml version="1.0" ?>
<svg baseProfile="full" height="600px" version="1.1" viewBox="-20.1 -20.1 240.2 240.2" width="600px" xmlns="http://www.w3.org/2000/svg" xmlns:ev="http://www.w3.org/2001/xml-events" xmlns:xlink="http://www.w3.org/1999/xlink">
	<defs/>
	<path d="M 0.0,0.0 L 200.0,0.0 L 200.0,200.0 L 0.0,200.0 L 0.0,0.0" fill="#FDFDFD"/>
	<path d="M 0.0,0.0 L 85.0,0.0 L 101.0,4.0 L 113.0,9.0 L 124.0,16.0 L 135.0,27.0 L 144.0,41.0 L 149.0,52.0 L 152.0,66.0 L 152.0,84.0 L 149.0,99.0 L 142.0,115.0 L 133.0,127.0 L 125.0,135.0 L 111.0,144.0 L 99.0,149.0 L 86.0,152.0 L 66.0,152.0 L 50.0,148.0 L 34.0,140.0 L 24.0,132.0 L 17.0,125.0 L 8.0,111.0 L 2.0,95.0 L 0.0,85.0 L 0.0,0.0" fill="#F9F9F9"/>
	<path d="M 0.0,0.0 L 85.0,0.0 L 101.0,4.0 L 113.0,9.0 L 124.0,16.0 L 135.0,27.0 L 144.0,41.0 L 149.0,52.0 L 152.0,66.0 L 152.0,84.0 L 149.0,99.0 L 142.0,115.0 L 133.0,127.0 L 125.0,135.0 L 111.0,144.0 L 99.0,149.0 L 86.0,152.0 L 66.0,152.0 L 50.0,148.0 L 34.0,140.0 L 24.0,132.0 L 17.0,125.0 L 8.0,111.0 L 2.0,95.0 L 0.0,85.0 L 0.0,0.0 M 67.0,8.0 L 51.0,12.0 L 38.0,19.0 L 25.0,30.0 L 18.0,40.0 L 11.0,54.0 L 8.0,66.0 L 8.0,86.0 L 13.0,103.0 L 19.0,114.0 L 28.0,125.0 L 38.0,133.0 L 54.0,141.0 L 66.0,144.0 L 83.0,144.0 L 95.0,142.0 L 109.0,136.0 L 119.0,129.0 L 125.0,124.0 L 133.0,114.0 L 140.0,100.0 L 143.0,90.0 L 144.0,85.0 L 144.0,66.0 L 141.0,54.0 L 133.0,38.0 L 124.0,27.0 L 112.0,18.0 L 100.0,12.0 L 90.0,9.0 L 84.0,8.0 L 67.0,8.0" fill="#070707"/>
	<path d="M 0.0,0.0 L 66.0,0.0 L 66.0,1.0 L 50.0,5.0 L 34.0,13.0 L 24.0,21.0 L 15.0,31.0 L 7.0,45.0 L 2.0,60.0 L 1.0,66.0 L 0.0,66.0 L 0.0,0.0" fill="#FCFCFC"/>
	<path d="M 67.0,13.0 L 75.0,13.0 L 81.0,16.0 L 85.0,21.0 L 86.0,23.0 L 86.0,33.0 L 81.0,43.0 L 73.0,50.0 L 65.0,50.0 L 56.0,47.0 L 49.0,41.0 L 46.0,35.0 L 46.0,25.0 L 51.0,19.0 L 59.0,15.0 L 67.0,13.0" fill="#090909"/>
	<path d="M 61.0,98.0 L 71.0,98.0 L 76.0,102.0 L 81.0,110.0 L 83.0,116.0 L 83.0,123.0 L 79.0,131.0 L 72.0,135.0 L 64.0,135.0 L 51.0,130.0 L 44.0,124.0 L 43.0,122.0 L 43.0,111.0 L 49.0,103.0 L 56.0,99.0 L 61.0,98.0" fill="#090909"/>
	<path d="M 108.0,29.0 L 117.0,29.0 L 122.0,32.0 L 130.0,41.0 L 134.0,49.0 L 134.0,58.0 L 130.0,64.0 L 123.0,68.0 L 113.0,68.0 L 104.0,65.0 L 98.0,61.0 L 97.0,58.0 L 97.0,42.0 L 101.0,34.0 L 108.0,29.0" fill="#080808"/>
	<path d="M 108.0,84.0 L 122.0,84.0 L 128.0,88.0 L 132.0,93.0 L 132.0,103.0 L 127.0,112.0 L 119.0,120.0 L 115.0,122.0 L 106.0,122.0 L 100.0,118.0 L 96.0,112.0 L 95.0,108.0 L 95.0,93.0 L 97.0,89.0 L 104.0,85.0 L 108.0,84.0" fill="#070707"/>
	<path d="M 28.0,52.0 L 35.0,52.0 L 43.0,56.0 L 50.0,64.0 L 53.0,70.0 L 52.0,78.0 L 48.0,84.0 L 40.0,91.0 L 34.0,93.0 L 27.0,93.0 L 21.0,89.0 L 17.0,81.0 L 17.0,64.0 L 20.0,58.0 L 26.0,53.0 L 28.0,52.0" fill="#080808"/>
	<path d="M 29.0,60.0 L 36.0,61.0 L 41.0,66.0 L 45.0,72.0 L 43.0,77.0 L 39.0,82.0 L 34.0,85.0 L 28.0,85.0 L 25.0,81.0 L 25.0,66.0 L 27.0,61.0 L 29.0,60.0" fill="#F6F6F6"/>
	<path d="M 111.0,37.0 L 116.0,37.0 L 123.0,45.0 L 126.0,50.0 L 126.0,56.0 L 121.0,60.0 L 113.0,60.0 L 105.0,56.0 L 105.0,44.0 L 108.0,39.0 L 111.0,37.0" fill="#F8F8F8"/>
	<path d="M 61.0,106.0 L 68.0,106.0 L 75.0,116.0 L 75.0,122.0 L 72.0,126.0 L 62.0,126.0 L 52.0,121.0 L 51.0,120.0 L 51.0,113.0 L 57.0,108.0 L 61.0,106.0" fill="#F7F7F7"/>
	<path d="M 64.0,22.0 L 76.0,22.0 L 78.0,25.0 L 77.0,34.0 L 70.0,42.0 L 63.0,41.0 L 55.0,36.0 L 54.0,34.0 L 54.0,27.0 L 64.0,22.0" fill="#F8F8F8"/>
	<path d="M 108.0,92.0 L 120.0,92.0 L 124.0,95.0 L 124.0,101.0 L 118.0,110.0 L 113.0,114.0 L 106.0,113.0 L 103.0,107.0 L 103.0,95.0 L 108.0,92.0" fill="#F9F9F9"/>
	<path d="M 73.0,68.0 L 79.0,68.0 L 84.0,73.0 L 83.0,81.0 L 79.0,84.0 L 73.0,84.0 L 68.0,79.0 L 68.0,73.0 L 73.0,68.0" fill="#090909"/>
</svg>
