<?xml version="1.0" ?>
<svg baseProfile="full" height="600px" version="1.1" viewBox="-16.08 -16.08 192.16 192.16" width="600px" xmlns="http://www.w3.org/2000/svg" xmlns:ev="http://www.w3.org/2001/xml-events" xmlns:xlink="http://www.w3.org/1999/xlink">
	<defs/>
	<path d="M 0.0,0.0 L 160.0,0.0 L 160.0,160.0 L 0.0,160.0 L 0.0,0.0" fill="#517CB6"/>
	<path d="M 0.0,0.0 L 160.0,0.0 L 160.0,160.0 L 0.0,160.0 L 0.0,0.0 M 24.0,8.0 L 24.0,20.0 L 8.0,20.0 L 4.0,24.0 L 4.0,148.0 L 8.0,152.0 L 87.0,152.0 L 92.0,148.0 L 92.0,128.0 L 135.0,128.0 L 135.0,44.0 L 92.0,44.0 L 92.0,24.0 L 87.0,20.0 L 72.0,20.0 L 72.0,8.0 L 24.0,8.0" fill="#FCFCFD"/>
	<path d="M 10.0,24.0 L 86.0,24.0 L 88.0,26.0 L 88.0,44.0 L 44.0,44.0 L 44.0,40.0 L 40.0,40.0 L 40.0,132.0 L 44.0,132.0 L 44.0,128.0 L 88.0,128.0 L 88.0,146.0 L 86.0,148.0 L 10.0,148.0 L 8.0,146.0 L 8.0,26.0 L 10.0,24.0" fill="#DAD3F0"/>
	<path d="M 44.0,64.0 L 131.0,64.0 L 131.0,108.0 L 44.0,108.0 L 44.0,64.0" fill="#89B5EE"/>
	<path d="M 24.0,8.0 L 72.0,8.0 L 72.0,20.0 L 87.0,20.0 L 92.0,24.0 L 92.0,44.0 L 88.0,44.0 L 87.0,26.0 L 86.0,25.0 L 10.0,25.0 L 9.0,26.0 L 9.0,146.0 L 10.0,147.0 L 86.0,147.0 L 87.0,146.0 L 88.0,128.0 L 92.0,128.0 L 92.0,148.0 L 87.0,152.0 L 8.0,152.0 L 4.0,148.0 L 4.0,24.0 L 8.0,20.0 L 24.0,20.0 L 24.0,8.0" fill="#8D79A4"/>
	<path d="M 40.0,40.0 L 44.0,40.0 L 44.0,48.0 L 51.0,48.0 L 51.0,60.0 L 44.0,60.0 L 44.0,112.0 L 51.0,112.0 L 51.0,124.0 L 44.0,124.0 L 44.0,132.0 L 40.0,132.0 L 40.0,40.0" fill="#8B75A1"/>
	<path d="M 119.0,112.0 L 131.0,112.0 L 131.0,124.0 L 119.0,124.0 L 119.0,112.0" fill="#F8F9FB"/>
	<path d="M 103.0,112.0 L 115.0,112.0 L 115.0,124.0 L 103.0,124.0 L 103.0,112.0" fill="#F8F9FB"/>
	<path d="M 71.0,112.0 L 83.0,112.0 L 83.0,124.0 L 71.0,124.0 L 71.0,112.0" fill="#D6D1EF"/>
	<path d="M 55.0,112.0 L 67.0,112.0 L 67.0,124.0 L 55.0,124.0 L 55.0,112.0" fill="#D6D1EF"/>
	<path d="M 119.0,48.0 L 131.0,48.0 L 131.0,60.0 L 119.0,60.0 L 119.0,48.0" fill="#F8F9FB"/>
	<path d="M 103.0,48.0 L 115.0,48.0 L 115.0,60.0 L 103.0,60.0 L 103.0,48.0" fill="#F8F9FB"/>
	<path d="M 71.0,48.0 L 83.0,48.0 L 83.0,60.0 L 71.0,60.0 L 71.0,48.0" fill="#D6D1EF"/>
	<path d="M 55.0,48.0 L 67.0,48.0 L 67.0,60.0 L 55.0,60.0 L 55.0,48.0" fill="#D6D1EF"/>
	<path d="M 92.0,112.0 L 99.0,112.0 L 99.0,124.0 L 92.0,124.0 L 92.0,112.0" fill="#F5F4F7"/>
	<path d="M 44.0,112.0 L 51.0,112.0 L 51.0,124.0 L 44.0,124.0 L 44.0,112.0" fill="#DAD3F0"/>
	<path d="M 44.0,48.0 L 51.0,48.0 L 51.0,60.0 L 44.0,60.0 L 44.0,48.0" fill="#DAD3F0"/>
	<path d="M 92.0,48.0 L 99.0,48.0 L 99.0,60.0 L 92.0,60.0 L 92.0,48.0" fill="#F5F4F7"/>
	<path d="M 87.0,112.0 L 92.0,112.0 L 92.0,124.0 L 87.0,124.0 L 87.0,112.0" fill="#988AB4"/>
	<path d="M 87.0,48.0 L 92.0,48.0 L 92.0,60.0 L 87.0,60.0 L 87.0,48.0" fill="#988AB4"/>
	<path d="M 83.0,48.0 L 84.0,51.0 L 86.0,51.0 L 87.0,49.0 L 87.0,55.0 L 86.0,57.0 L 84.0,57.0 L 83.0,60.0 L 83.0,48.0" fill="#5C83BB"/>
	<path d="M 67.0,48.0 L 68.0,51.0 L 70.0,51.0 L 71.0,49.0 L 71.0,55.0 L 70.0,57.0 L 68.0,57.0 L 67.0,60.0 L 67.0,48.0" fill="#5C83BB"/>
	<path d="M 51.0,48.0 L 52.0,51.0 L 54.0,51.0 L 55.0,49.0 L 55.0,55.0 L 54.0,57.0 L 52.0,57.0 L 51.0,60.0 L 51.0,48.0" fill="#5C83BB"/>
</svg>
