<?xml version="1.0" ?>
<svg baseProfile="full" height="600px" version="1.1" viewBox="-16.08 -16.08 192.16 192.16" width="600px" xmlns="http://www.w3.org/2000/svg" xmlns:ev="http://www.w3.org/2001/xml-events" xmlns:xlink="http://www.w3.org/1999/xlink">
	<defs/>
	<path d="M 0.0,0.0 L 160.0,0.0 L 160.0,160.0 L 0.0,160.0 L 0.0,0.0" fill="#FDFDFD"/>
	<path d="M 23.0,8.0 L 73.0,8.0 L 73.0,20.0 L 87.0,20.0 L 92.0,23.0 L 93.0,25.0 L 94.0,44.0 L 94.0,128.0 L 93.0,147.0 L 88.0,152.0 L 8.0,152.0 L 3.0,147.0 L 3.0,25.0 L 8.0,20.0 L 23.0,20.0 L 23.0,8.0" fill="#527CB6"/>
	<path d="M 9.0,24.0 L 87.0,24.0 L 89.0,26.0 L 89.0,44.0 L 44.0,44.0 L 44.0,40.0 L 40.0,40.0 L 40.0,132.0 L 44.0,132.0 L 44.0,128.0 L 89.0,128.0 L 89.0,146.0 L 87.0,148.0 L 9.0,148.0 L 7.0,146.0 L 7.0,26.0 L 9.0,24.0" fill="#DAD3F0"/>
	<path d="M 44.0,64.0 L 90.0,64.0 L 90.0,108.0 L 44.0,108.0 L 44.0,64.0" fill="#88B4ED"/>
	<path d="M 23.0,8.0 L 73.0,8.0 L 73.0,20.0 L 87.0,20.0 L 92.0,23.0 L 93.0,25.0 L 93.0,44.0 L 89.0,44.0 L 88.0,26.0 L 87.0,25.0 L 9.0,25.0 L 8.0,26.0 L 8.0,146.0 L 9.0,147.0 L 87.0,147.0 L 88.0,146.0 L 89.0,128.0 L 93.0,128.0 L 93.0,147.0 L 88.0,152.0 L 8.0,152.0 L 3.0,147.0 L 3.0,25.0 L 8.0,20.0 L 23.0,20.0 L 23.0,8.0" fill="#8B76A2"/>
	<path d="M 40.0,40.0 L 44.0,40.0 L 44.0,132.0 L 40.0,132.0 L 40.0,40.0" fill="#8B75A1"/>
	<path d="M 62.0,112.0 L 74.0,112.0 L 74.0,124.0 L 62.0,124.0 L 62.0,112.0" fill="#D7D1EF"/>
	<path d="M 46.0,112.0 L 58.0,112.0 L 58.0,124.0 L 46.0,124.0 L 46.0,112.0" fill="#D7D1EF"/>
	<path d="M 62.0,48.0 L 74.0,48.0 L 74.0,60.0 L 62.0,60.0 L 62.0,48.0" fill="#D7D1EF"/>
	<path d="M 46.0,48.0 L 58.0,48.0 L 58.0,60.0 L 46.0,60.0 L 46.0,48.0" fill="#D7D1EF"/>
	<path d="M 78.0,112.0 L 89.0,112.0 L 89.0,124.0 L 78.0,124.0 L 78.0,112.0" fill="#DAD3F0"/>
	<path d="M 78.0,48.0 L 89.0,48.0 L 89.0,60.0 L 78.0,60.0 L 78.0,48.0" fill="#DAD3F0"/>
	<path d="M 77.0,48.0 L 78.0,48.0 L 78.0,60.0 L 76.0,57.0 L 74.0,57.0 L 74.0,51.0 L 76.0,51.0 L 77.0,48.0" fill="#5A82BA"/>
	<path d="M 61.0,48.0 L 62.0,48.0 L 62.0,60.0 L 60.0,57.0 L 58.0,57.0 L 58.0,51.0 L 60.0,51.0 L 61.0,48.0" fill="#5A82BA"/>
</svg>
