<?xml version="1.0" ?>
<svg baseProfile="full" height="600px" version="1.1" viewBox="-12.06 -12.06 144.12 144.12" width="600px" xmlns="http://www.w3.org/2000/svg" xmlns:ev="http://www.w3.org/2001/xml-events" xmlns:xlink="http://www.w3.org/1999/xlink">
	<defs/>
	<path d="M 0.0,0.0 L 120.0,0.0 L 120.0,120.0 L 0.0,120.0 L 0.0,0.0" fill="#040404"/>
	<path d="M 0.0,0.0 L 120.0,0.0 L 120.0,120.0 L 0.0,120.0 L 0.0,0.0 M 51.0,12.0 L 40.0,16.0 L 30.0,22.0 L 21.0,31.0 L 14.0,44.0 L 12.0,51.0 L 12.0,69.0 L 17.0,82.0 L 23.0,91.0 L 31.0,99.0 L 47.0,107.0 L 51.0,108.0 L 66.0,108.0 L 75.0,106.0 L 89.0,99.0 L 99.0,89.0 L 107.0,73.0 L 108.0,66.0 L 108.0,51.0 L 104.0,39.0 L 97.0,29.0 L 89.0,21.0 L 73.0,13.0 L 69.0,12.0 L 51.0,12.0" fill="#FCFCFC"/>
	<path d="M 50.0,80.0 L 59.0,80.0 L 65.0,84.0 L 67.0,88.0 L 66.0,97.0 L 62.0,100.0 L 52.0,100.0 L 44.0,96.0 L 43.0,94.0 L 43.0,88.0 L 47.0,82.0 L 50.0,80.0" fill="#F6F6F6"/>
	<path d="M 25.0,53.0 L 34.0,54.0 L 39.0,59.0 L 40.0,60.0 L 40.0,69.0 L 36.0,75.0 L 31.0,77.0 L 24.0,76.0 L 21.0,70.0 L 20.0,66.0 L 20.0,58.0 L 25.0,53.0" fill="#F7F7F7"/>
	<path d="M 76.0,27.0 L 83.0,27.0 L 91.0,34.0 L 93.0,37.0 L 93.0,44.0 L 87.0,49.0 L 78.0,49.0 L 72.0,44.0 L 71.0,42.0 L 71.0,33.0 L 76.0,27.0" fill="#F9F9F9"/>
	<path d="M 46.0,22.0 L 53.0,22.0 L 57.0,27.0 L 57.0,36.0 L 52.0,42.0 L 50.0,43.0 L 41.0,43.0 L 35.0,38.0 L 34.0,36.0 L 34.0,30.0 L 40.0,25.0 L 46.0,22.0" fill="#FAFAFA"/>
	<path d="M 84.0,63.0 L 93.0,63.0 L 98.0,67.0 L 97.0,76.0 L 92.0,84.0 L 89.0,86.0 L 82.0,85.0 L 77.0,79.0 L 77.0,70.0 L 82.0,64.0 L 84.0,63.0" fill="#FAFAFA"/>
	<path d="M 57.0,52.0 L 63.0,52.0 L 68.0,57.0 L 68.0,63.0 L 63.0,68.0 L 57.0,68.0 L 52.0,63.0 L 52.0,57.0 L 57.0,52.0" fill="#F0F0F0"/>
	<path d="M 109.0,84.0 L 111.0,86.0 L 115.0,96.0 L 114.0,100.0 L 113.0,101.0 L 108.0,101.0 L 104.0,93.0 L 109.0,84.0" fill="#0E0E0E"/>
</svg>
