<?xml version="1.0" ?>
<svg baseProfile="full" height="600px" version="1.1" viewBox="-16.08 -16.08 192.16 192.16" width="600px" xmlns="http://www.w3.org/2000/svg" xmlns:ev="http://www.w3.org/2001/xml-events" xmlns:xlink="http://www.w3.org/1999/xlink">
	<defs/>
	<path d="M 0.0,0.0 L 160.0,0.0 L 160.0,160.0 L 0.0,160.0 L 0.0,0.0" fill="#ADBFD2"/>
	<path d="M 0.0,0.0 L 160.0,0.0 L 160.0,160.0 L 0.0,160.0 L 0.0,0.0 M 58.0,4.0 L 42.0,9.0 L 31.0,15.0 L 19.0,26.0 L 12.0,36.0 L 7.0,47.0 L 4.0,58.0 L 4.0,75.0 L 8.0,91.0 L 15.0,105.0 L 26.0,117.0 L 36.0,124.0 L 46.0,129.0 L 58.0,132.0 L 78.0,132.0 L 94.0,127.0 L 105.0,121.0 L 117.0,110.0 L 119.0,107.0 L 120.0,137.0 L 124.0,147.0 L 132.0,154.0 L 137.0,156.0 L 156.0,156.0 L 156.0,148.0 L 138.0,147.0 L 132.0,143.0 L 129.0,136.0 L 129.0,89.0 L 132.0,78.0 L 132.0,59.0 L 129.0,46.0 L 121.0,31.0 L 110.0,19.0 L 100.0,12.0 L 89.0,7.0 L 75.0,4.0 L 58.0,4.0" fill="#FCFDFD"/>
	<path d="M 58.0,4.0 L 75.0,4.0 L 91.0,8.0 L 105.0,15.0 L 117.0,26.0 L 124.0,36.0 L 129.0,46.0 L 132.0,59.0 L 132.0,78.0 L 129.0,89.0 L 129.0,136.0 L 133.0,144.0 L 138.0,147.0 L 156.0,148.0 L 156.0,156.0 L 137.0,156.0 L 129.0,152.0 L 123.0,145.0 L 120.0,137.0 L 119.0,107.0 L 112.0,115.0 L 102.0,123.0 L 89.0,129.0 L 78.0,132.0 L 58.0,132.0 L 44.0,128.0 L 31.0,121.0 L 19.0,110.0 L 12.0,100.0 L 7.0,89.0 L 4.0,75.0 L 4.0,58.0 L 8.0,44.0 L 15.0,31.0 L 26.0,19.0 L 36.0,12.0 L 47.0,7.0 L 58.0,4.0 M 59.0,8.0 L 45.0,12.0 L 34.0,18.0 L 24.0,27.0 L 18.0,34.0 L 11.0,48.0 L 8.0,59.0 L 8.0,74.0 L 10.0,84.0 L 15.0,97.0 L 23.0,108.0 L 30.0,115.0 L 41.0,122.0 L 52.0,126.0 L 60.0,128.0 L 75.0,128.0 L 91.0,124.0 L 102.0,118.0 L 112.0,109.0 L 118.0,102.0 L 125.0,88.0 L 128.0,77.0 L 128.0,60.0 L 123.0,43.0 L 117.0,33.0 L 108.0,23.0 L 97.0,15.0 L 84.0,10.0 L 76.0,8.0 L 59.0,8.0" fill="#6D7F94"/>
	<path d="M 64.0,84.0 L 73.0,84.0 L 79.0,88.0 L 83.0,93.0 L 84.0,95.0 L 84.0,104.0 L 81.0,110.0 L 75.0,115.0 L 72.0,116.0 L 63.0,116.0 L 57.0,112.0 L 53.0,107.0 L 52.0,105.0 L 52.0,95.0 L 56.0,89.0 L 61.0,85.0 L 64.0,84.0" fill="#88B4ED"/>
	<path d="M 96.0,52.0 L 105.0,52.0 L 111.0,56.0 L 115.0,61.0 L 116.0,63.0 L 116.0,72.0 L 113.0,78.0 L 107.0,83.0 L 104.0,84.0 L 95.0,84.0 L 89.0,80.0 L 85.0,75.0 L 84.0,73.0 L 84.0,63.0 L 88.0,57.0 L 93.0,53.0 L 96.0,52.0" fill="#88B4ED"/>
	<path d="M 32.0,52.0 L 41.0,52.0 L 47.0,56.0 L 51.0,61.0 L 52.0,63.0 L 52.0,72.0 L 49.0,78.0 L 43.0,83.0 L 40.0,84.0 L 31.0,84.0 L 25.0,80.0 L 21.0,75.0 L 20.0,73.0 L 20.0,63.0 L 24.0,57.0 L 29.0,53.0 L 32.0,52.0" fill="#88B4ED"/>
	<path d="M 64.0,20.0 L 73.0,20.0 L 79.0,24.0 L 83.0,29.0 L 84.0,31.0 L 84.0,40.0 L 81.0,46.0 L 75.0,51.0 L 72.0,52.0 L 63.0,52.0 L 57.0,48.0 L 53.0,43.0 L 52.0,41.0 L 52.0,31.0 L 56.0,25.0 L 61.0,21.0 L 64.0,20.0" fill="#88B4ED"/>
	<path d="M 127.0,91.0 L 128.0,91.0 L 129.0,136.0 L 133.0,144.0 L 138.0,147.0 L 156.0,148.0 L 156.0,156.0 L 137.0,156.0 L 129.0,152.0 L 123.0,145.0 L 120.0,137.0 L 120.0,105.0 L 127.0,91.0" fill="#507CB5"/>
	<path d="M 64.0,84.0 L 73.0,84.0 L 79.0,88.0 L 83.0,93.0 L 84.0,95.0 L 84.0,104.0 L 81.0,110.0 L 75.0,115.0 L 72.0,116.0 L 63.0,116.0 L 57.0,112.0 L 53.0,107.0 L 52.0,105.0 L 52.0,95.0 L 56.0,89.0 L 61.0,85.0 L 64.0,84.0 M 65.0,88.0 L 60.0,91.0 L 56.0,96.0 L 56.0,104.0 L 62.0,111.0 L 64.0,112.0 L 71.0,112.0 L 76.0,109.0 L 79.0,106.0 L 80.0,103.0 L 80.0,96.0 L 74.0,89.0 L 72.0,88.0 L 65.0,88.0" fill="#537EB7"/>
	<path d="M 96.0,52.0 L 105.0,52.0 L 111.0,56.0 L 115.0,61.0 L 116.0,63.0 L 116.0,72.0 L 113.0,78.0 L 107.0,83.0 L 104.0,84.0 L 95.0,84.0 L 89.0,80.0 L 85.0,75.0 L 84.0,73.0 L 84.0,63.0 L 88.0,57.0 L 93.0,53.0 L 96.0,52.0 M 97.0,56.0 L 92.0,59.0 L 88.0,64.0 L 88.0,72.0 L 94.0,79.0 L 96.0,80.0 L 103.0,80.0 L 108.0,77.0 L 111.0,74.0 L 112.0,71.0 L 112.0,64.0 L 106.0,57.0 L 104.0,56.0 L 97.0,56.0" fill="#537EB7"/>
	<path d="M 32.0,52.0 L 41.0,52.0 L 47.0,56.0 L 51.0,61.0 L 52.0,63.0 L 52.0,72.0 L 49.0,78.0 L 43.0,83.0 L 40.0,84.0 L 31.0,84.0 L 25.0,80.0 L 21.0,75.0 L 20.0,73.0 L 20.0,63.0 L 24.0,57.0 L 29.0,53.0 L 32.0,52.0 M 33.0,56.0 L 28.0,59.0 L 24.0,64.0 L 24.0,72.0 L 30.0,79.0 L 32.0,80.0 L 39.0,80.0 L 44.0,77.0 L 47.0,74.0 L 48.0,71.0 L 48.0,64.0 L 42.0,57.0 L 40.0,56.0 L 33.0,56.0" fill="#537EB7"/>
	<path d="M 64.0,20.0 L 73.0,20.0 L 79.0,24.0 L 83.0,29.0 L 84.0,31.0 L 84.0,40.0 L 81.0,46.0 L 75.0,51.0 L 72.0,52.0 L 63.0,52.0 L 57.0,48.0 L 53.0,43.0 L 52.0,41.0 L 52.0,31.0 L 56.0,25.0 L 61.0,21.0 L 64.0,20.0 M 65.0,24.0 L 60.0,27.0 L 56.0,32.0 L 56.0,40.0 L 62.0,47.0 L 64.0,48.0 L 71.0,48.0 L 76.0,45.0 L 79.0,42.0 L 80.0,39.0 L 80.0,32.0 L 74.0,25.0 L 72.0,24.0 L 65.0,24.0" fill="#537EB7"/>
	<path d="M 65.0,60.0 L 71.0,60.0 L 76.0,65.0 L 76.0,71.0 L 71.0,76.0 L 65.0,76.0 L 60.0,71.0 L 60.0,65.0 L 65.0,60.0" fill="#3A4552"/>
</svg>
