<?xml version="1.0" ?>
<svg baseProfile="full" height="600px" version="1.1" viewBox="-12.06 -12.06 144.12 144.12" width="600px" xmlns="http://www.w3.org/2000/svg" xmlns:ev="http://www.w3.org/2001/xml-events" xmlns:xlink="http://www.w3.org/1999/xlink">
	<defs/>
	<path d="M 0.0,0.0 L 120.0,0.0 L 120.0,120.0 L 0.0,120.0 L 0.0,0.0" fill="#040404"/>
	<path d="M 0.0,0.0 L 120.0,0.0 L 120.0,120.0 L 0.0,120.0 L 0.0,0.0 M 51.0,12.0 L 37.0,17.0 L 28.0,24.0 L 21.0,31.0 L 13.0,47.0 L 12.0,51.0 L 12.0,69.0 L 17.0,82.0 L 23.0,91.0 L 31.0,99.0 L 42.0,105.0 L 51.0,108.0 L 66.0,108.0 L 75.0,106.0 L 89.0,99.0 L 99.0,89.0 L 107.0,73.0 L 108.0,66.0 L 108.0,51.0 L 104.0,39.0 L 97.0,29.0 L 89.0,21.0 L 73.0,13.0 L 69.0,12.0 L 51.0,12.0" fill="#FCFCFC"/>
	<path d="M 25.0,47.0 L 31.0,47.0 L 37.0,51.0 L 40.0,55.0 L 40.0,63.0 L 37.0,68.0 L 31.0,71.0 L 24.0,71.0 L 20.0,66.0 L 20.0,53.0 L 25.0,47.0" fill="#F6F6F6"/>
	<path d="M 81.0,68.0 L 90.0,68.0 L 96.0,73.0 L 95.0,80.0 L 89.0,88.0 L 85.0,91.0 L 80.0,91.0 L 75.0,86.0 L 73.0,82.0 L 74.0,74.0 L 81.0,68.0" fill="#F5F5F5"/>
	<path d="M 46.0,78.0 L 55.0,79.0 L 60.0,84.0 L 61.0,86.0 L 61.0,94.0 L 57.0,99.0 L 49.0,99.0 L 39.0,94.0 L 38.0,93.0 L 38.0,85.0 L 42.0,80.0 L 46.0,78.0" fill="#F8F8F8"/>
	<path d="M 49.0,21.0 L 59.0,21.0 L 62.0,24.0 L 63.0,26.0 L 62.0,35.0 L 57.0,40.0 L 55.0,41.0 L 47.0,41.0 L 41.0,37.0 L 39.0,32.0 L 40.0,26.0 L 46.0,22.0 L 49.0,21.0" fill="#F8F8F8"/>
	<path d="M 80.0,31.0 L 87.0,31.0 L 92.0,35.0 L 96.0,42.0 L 96.0,49.0 L 92.0,53.0 L 83.0,54.0 L 77.0,50.0 L 75.0,47.0 L 75.0,37.0 L 80.0,31.0" fill="#F8F8F8"/>
	<path d="M 57.0,52.0 L 63.0,52.0 L 68.0,57.0 L 68.0,63.0 L 63.0,68.0 L 57.0,68.0 L 52.0,63.0 L 52.0,57.0 L 57.0,52.0" fill="#F0F0F0"/>
	<path d="M 108.0,85.0 L 110.0,85.0 L 114.0,95.0 L 115.0,102.0 L 113.0,104.0 L 109.0,103.0 L 104.0,96.0 L 105.0,90.0 L 108.0,85.0" fill="#0E0E0E"/>
</svg>
