<?xml version="1.0" ?>
<svg baseProfile="full" height="600px" version="1.1" viewBox="-20.1 -20.1 240.2 240.2" width="600px" xmlns="http://www.w3.org/2000/svg" xmlns:ev="http://www.w3.org/2001/xml-events" xmlns:xlink="http://www.w3.org/1999/xlink">
	<defs/>
	<path d="M 0.0,0.0 L 200.0,0.0 L 200.0,200.0 L 0.0,200.0 L 0.0,0.0" fill="#F9F9F9"/>
	<path d="M 85.0,0.0 L 200.0,0.0 L 200.0,200.0 L 0.0,200.0 L 0.0,85.0 L 1.0,85.0 L 5.0,101.0 L 10.0,113.0 L 19.0,126.0 L 27.0,134.0 L 41.0,143.0 L 52.0,148.0 L 66.0,151.0 L 86.0,151.0 L 102.0,147.0 L 118.0,139.0 L 128.0,131.0 L 137.0,121.0 L 145.0,107.0 L 150.0,91.0 L 152.0,72.0 L 154.0,75.0 L 159.0,98.0 L 161.0,113.0 L 162.0,119.0 L 167.0,119.0 L 168.0,118.0 L 167.0,105.0 L 164.0,87.0 L 160.0,70.0 L 154.0,55.0 L 147.0,42.0 L 137.0,29.0 L 129.0,21.0 L 118.0,13.0 L 104.0,6.0 L 90.0,2.0 L 85.0,1.0 L 85.0,0.0" fill="#FDFDFD"/>
	<path d="M 0.0,0.0 L 85.0,0.0 L 101.0,4.0 L 113.0,9.0 L 124.0,16.0 L 137.0,28.0 L 146.0,39.0 L 154.0,53.0 L 160.0,67.0 L 164.0,83.0 L 167.0,98.0 L 169.0,112.0 L 169.0,118.0 L 167.0,120.0 L 162.0,119.0 L 160.0,113.0 L 156.0,87.0 L 153.0,75.0 L 150.0,95.0 L 145.0,109.0 L 138.0,121.0 L 127.0,133.0 L 115.0,142.0 L 99.0,149.0 L 86.0,152.0 L 66.0,152.0 L 50.0,148.0 L 34.0,140.0 L 24.0,132.0 L 17.0,125.0 L 8.0,111.0 L 2.0,95.0 L 0.0,85.0 L 0.0,0.0 M 67.0,8.0 L 51.0,12.0 L 38.0,19.0 L 25.0,30.0 L 18.0,40.0 L 11.0,54.0 L 8.0,66.0 L 8.0,86.0 L 13.0,103.0 L 19.0,114.0 L 28.0,125.0 L 38.0,133.0 L 54.0,141.0 L 66.0,144.0 L 83.0,144.0 L 95.0,142.0 L 109.0,136.0 L 119.0,129.0 L 125.0,124.0 L 133.0,114.0 L 140.0,100.0 L 143.0,90.0 L 144.0,85.0 L 144.0,66.0 L 141.0,54.0 L 133.0,38.0 L 125.0,28.0 L 115.0,20.0 L 103.0,13.0 L 90.0,9.0 L 84.0,8.0 L 67.0,8.0" fill="#070707"/>
	<path d="M 0.0,0.0 L 66.0,0.0 L 66.0,1.0 L 50.0,5.0 L 34.0,13.0 L 24.0,21.0 L 15.0,31.0 L 7.0,45.0 L 2.0,60.0 L 1.0,66.0 L 0.0,66.0 L 0.0,0.0" fill="#FCFCFC"/>
	<path d="M 26.0,55.0 L 33.0,55.0 L 43.0,60.0 L 50.0,69.0 L 51.0,71.0 L 51.0,80.0 L 45.0,89.0 L 36.0,95.0 L 33.0,96.0 L 25.0,96.0 L 18.0,91.0 L 15.0,84.0 L 15.0,67.0 L 19.0,59.0 L 26.0,55.0" fill="#090909"/>
	<path d="M 59.0,99.0 L 68.0,99.0 L 73.0,102.0 L 79.0,111.0 L 81.0,116.0 L 81.0,125.0 L 78.0,131.0 L 72.0,136.0 L 61.0,136.0 L 50.0,132.0 L 42.0,125.0 L 41.0,123.0 L 41.0,113.0 L 45.0,107.0 L 53.0,101.0 L 59.0,99.0" fill="#070707"/>
	<path d="M 108.0,31.0 L 116.0,31.0 L 123.0,35.0 L 129.0,43.0 L 133.0,51.0 L 133.0,60.0 L 129.0,66.0 L 122.0,70.0 L 110.0,70.0 L 100.0,65.0 L 96.0,60.0 L 96.0,46.0 L 99.0,38.0 L 106.0,32.0 L 108.0,31.0" fill="#070707"/>
	<path d="M 108.0,85.0 L 121.0,85.0 L 127.0,89.0 L 131.0,94.0 L 131.0,104.0 L 127.0,112.0 L 120.0,120.0 L 115.0,123.0 L 105.0,123.0 L 99.0,119.0 L 96.0,115.0 L 94.0,109.0 L 94.0,94.0 L 99.0,88.0 L 108.0,85.0" fill="#070707"/>
	<path d="M 62.0,16.0 L 73.0,16.0 L 79.0,19.0 L 83.0,24.0 L 83.0,37.0 L 77.0,47.0 L 71.0,52.0 L 62.0,52.0 L 54.0,49.0 L 48.0,45.0 L 44.0,39.0 L 43.0,30.0 L 47.0,23.0 L 57.0,17.0 L 62.0,16.0" fill="#090909"/>
	<path d="M 60.0,107.0 L 66.0,107.0 L 72.0,115.0 L 73.0,117.0 L 73.0,124.0 L 69.0,128.0 L 62.0,128.0 L 53.0,124.0 L 49.0,121.0 L 49.0,115.0 L 54.0,110.0 L 60.0,107.0" fill="#F5F5F5"/>
	<path d="M 27.0,63.0 L 33.0,63.0 L 41.0,70.0 L 43.0,73.0 L 42.0,79.0 L 35.0,87.0 L 33.0,88.0 L 27.0,88.0 L 23.0,83.0 L 23.0,68.0 L 27.0,63.0" fill="#F5F5F5"/>
	<path d="M 108.0,93.0 L 119.0,93.0 L 123.0,96.0 L 123.0,102.0 L 117.0,111.0 L 113.0,115.0 L 107.0,115.0 L 103.0,111.0 L 102.0,108.0 L 102.0,96.0 L 108.0,93.0" fill="#F9F9F9"/>
	<path d="M 62.0,24.0 L 73.0,24.0 L 75.0,27.0 L 75.0,34.0 L 71.0,41.0 L 68.0,44.0 L 62.0,44.0 L 54.0,39.0 L 51.0,35.0 L 51.0,30.0 L 59.0,25.0 L 62.0,24.0" fill="#F8F8F8"/>
	<path d="M 110.0,39.0 L 115.0,39.0 L 122.0,47.0 L 125.0,53.0 L 125.0,58.0 L 120.0,62.0 L 110.0,61.0 L 104.0,58.0 L 104.0,46.0 L 108.0,40.0 L 110.0,39.0" fill="#F9F9F9"/>
	<path d="M 73.0,68.0 L 79.0,68.0 L 84.0,73.0 L 83.0,81.0 L 79.0,84.0 L 73.0,84.0 L 68.0,79.0 L 68.0,73.0 L 73.0,68.0" fill="#090909"/>
</svg>
