<?xml version="1.0" ?>
<svg baseProfile="full" height="600px" version="1.1" viewBox="-20.1 -20.1 240.2 240.2" width="600px" xmlns="http://www.w3.org/2000/svg" xmlns:ev="http://www.w3.org/2001/xml-events" xmlns:xlink="http://www.w3.org/1999/xlink">
	<defs/>
	<path d="M 0.0,0.0 L 200.0,0.0 L 200.0,200.0 L 0.0,200.0 L 0.0,0.0" fill="#FCFCFC"/>
	<path d="M 0.0,0.0 L 200.0,0.0 L 200.0,200.0 L 0.0,200.0 L 0.0,0.0 M 44.0,8.0 L 38.0,12.0 L 36.0,15.0 L 36.0,28.0 L 26.0,28.0 L 16.0,33.0 L 10.0,40.0 L 7.0,49.0 L 7.0,171.0 L 10.0,180.0 L 16.0,187.0 L 26.0,192.0 L 110.0,192.0 L 120.0,187.0 L 126.0,180.0 L 129.0,171.0 L 129.0,160.0 L 171.0,160.0 L 171.0,60.0 L 129.0,60.0 L 129.0,48.0 L 126.0,40.0 L 120.0,33.0 L 112.0,29.0 L 109.0,28.0 L 100.0,28.0 L 100.0,15.0 L 96.0,10.0 L 91.0,8.0 L 44.0,8.0" fill="#FCFCFC"/>
	<path d="M 27.0,36.0 L 108.0,36.0 L 114.0,39.0 L 120.0,46.0 L 120.0,60.0 L 72.0,60.0 L 70.0,51.0 L 67.0,49.0 L 61.0,49.0 L 57.0,53.0 L 57.0,167.0 L 61.0,171.0 L 67.0,171.0 L 70.0,169.0 L 72.0,160.0 L 120.0,160.0 L 120.0,173.0 L 117.0,178.0 L 111.0,183.0 L 109.0,184.0 L 27.0,184.0 L 21.0,180.0 L 17.0,176.0 L 16.0,173.0 L 16.0,46.0 L 23.0,38.0 L 27.0,36.0" fill="#FDFDFD"/>
	<path d="M 44.0,8.0 L 91.0,8.0 L 97.0,11.0 L 100.0,15.0 L 100.0,28.0 L 109.0,28.0 L 118.0,32.0 L 124.0,37.0 L 128.0,44.0 L 129.0,48.0 L 129.0,60.0 L 171.0,60.0 L 171.0,160.0 L 129.0,160.0 L 129.0,171.0 L 126.0,180.0 L 120.0,187.0 L 110.0,192.0 L 26.0,192.0 L 16.0,187.0 L 10.0,180.0 L 7.0,171.0 L 7.0,49.0 L 10.0,40.0 L 16.0,33.0 L 26.0,28.0 L 36.0,28.0 L 36.0,15.0 L 40.0,10.0 L 44.0,8.0 M 27.0,36.0 L 21.0,40.0 L 16.0,46.0 L 16.0,173.0 L 19.0,178.0 L 25.0,183.0 L 27.0,184.0 L 109.0,184.0 L 115.0,180.0 L 119.0,176.0 L 120.0,173.0 L 120.0,160.0 L 72.0,160.0 L 70.0,169.0 L 67.0,171.0 L 61.0,171.0 L 57.0,167.0 L 57.0,53.0 L 61.0,49.0 L 67.0,49.0 L 71.0,53.0 L 72.0,60.0 L 120.0,60.0 L 120.0,46.0 L 113.0,38.0 L 108.0,36.0 L 27.0,36.0 M 64.0,68.0 L 64.0,152.0 L 163.0,152.0 L 163.0,68.0 L 64.0,68.0" fill="#070707"/>
	<path d="M 46.0,16.0 L 90.0,16.0 L 92.0,18.0 L 92.0,28.0 L 44.0,28.0 L 44.0,18.0 L 46.0,16.0" fill="#FCFCFC"/>
	<path d="M 147.0,132.0 L 155.0,132.0 L 155.0,144.0 L 147.0,144.0 L 147.0,132.0" fill="#080808"/>
	<path d="M 123.0,132.0 L 131.0,132.0 L 131.0,144.0 L 123.0,144.0 L 123.0,132.0" fill="#080808"/>
	<path d="M 99.0,132.0 L 107.0,132.0 L 107.0,144.0 L 99.0,144.0 L 99.0,132.0" fill="#080808"/>
	<path d="M 75.0,132.0 L 83.0,132.0 L 83.0,144.0 L 75.0,144.0 L 75.0,132.0" fill="#080808"/>
	<path d="M 147.0,76.0 L 155.0,76.0 L 155.0,88.0 L 147.0,88.0 L 147.0,76.0" fill="#080808"/>
	<path d="M 123.0,76.0 L 131.0,76.0 L 131.0,88.0 L 123.0,88.0 L 123.0,76.0" fill="#080808"/>
	<path d="M 99.0,76.0 L 107.0,76.0 L 107.0,88.0 L 99.0,88.0 L 99.0,76.0" fill="#080808"/>
	<path d="M 75.0,76.0 L 83.0,76.0 L 83.0,88.0 L 75.0,88.0 L 75.0,76.0" fill="#080808"/>
</svg>
