<?xml version="1.0" ?>
<svg baseProfile="full" height="600px" version="1.1" viewBox="-12.06 -12.06 144.12 144.12" width="600px" xmlns="http://www.w3.org/2000/svg" xmlns:ev="http://www.w3.org/2001/xml-events" xmlns:xlink="http://www.w3.org/1999/xlink">
	<defs/>
	<path d="M 0.0,0.0 L 120.0,0.0 L 120.0,120.0 L 0.0,120.0 L 0.0,0.0" fill="#040404"/>
	<path d="M 0.0,0.0 L 120.0,0.0 L 120.0,120.0 L 0.0,120.0 L 0.0,0.0 M 51.0,12.0 L 40.0,16.0 L 30.0,22.0 L 21.0,31.0 L 16.0,39.0 L 12.0,51.0 L 12.0,69.0 L 17.0,82.0 L 23.0,91.0 L 31.0,99.0 L 42.0,105.0 L 51.0,108.0 L 66.0,108.0 L 75.0,106.0 L 89.0,99.0 L 99.0,89.0 L 107.0,73.0 L 108.0,66.0 L 108.0,51.0 L 104.0,39.0 L 97.0,29.0 L 89.0,21.0 L 73.0,13.0 L 69.0,12.0 L 51.0,12.0" fill="#FCFCFC"/>
	<path d="M 45.0,78.0 L 52.0,78.0 L 57.0,81.0 L 61.0,86.0 L 61.0,93.0 L 58.0,98.0 L 56.0,99.0 L 49.0,99.0 L 39.0,94.0 L 37.0,91.0 L 38.0,84.0 L 45.0,78.0" fill="#F6F6F6"/>
	<path d="M 25.0,47.0 L 34.0,48.0 L 39.0,53.0 L 40.0,55.0 L 40.0,63.0 L 35.0,69.0 L 31.0,71.0 L 25.0,71.0 L 21.0,67.0 L 20.0,64.0 L 20.0,53.0 L 23.0,48.0 L 25.0,47.0" fill="#F6F6F6"/>
	<path d="M 81.0,31.0 L 87.0,31.0 L 92.0,35.0 L 97.0,44.0 L 96.0,50.0 L 90.0,54.0 L 82.0,54.0 L 76.0,49.0 L 75.0,47.0 L 75.0,37.0 L 79.0,32.0 L 81.0,31.0" fill="#F7F7F7"/>
	<path d="M 81.0,68.0 L 89.0,68.0 L 95.0,72.0 L 95.0,80.0 L 89.0,88.0 L 84.0,91.0 L 78.0,90.0 L 74.0,85.0 L 73.0,83.0 L 73.0,76.0 L 79.0,69.0 L 81.0,68.0" fill="#F7F7F7"/>
	<path d="M 49.0,21.0 L 60.0,21.0 L 63.0,25.0 L 63.0,33.0 L 59.0,39.0 L 55.0,41.0 L 47.0,41.0 L 41.0,36.0 L 39.0,32.0 L 40.0,26.0 L 46.0,22.0 L 49.0,21.0" fill="#F8F8F8"/>
	<path d="M 57.0,52.0 L 65.0,53.0 L 68.0,57.0 L 68.0,63.0 L 63.0,68.0 L 57.0,68.0 L 52.0,63.0 L 52.0,57.0 L 57.0,52.0" fill="#F0F0F0"/>
</svg>
