<?xml version="1.0" ?>
<svg baseProfile="full" height="600px" version="1.1" viewBox="-20.1 -20.1 240.2 240.2" width="600px" xmlns="http://www.w3.org/2000/svg" xmlns:ev="http://www.w3.org/2001/xml-events" xmlns:xlink="http://www.w3.org/1999/xlink">
	<defs/>
	<path d="M 0.0,0.0 L 200.0,0.0 L 200.0,200.0 L 0.0,200.0 L 0.0,0.0" fill="#060606"/>
	<path d="M 0.0,0.0 L 200.0,0.0 L 200.0,200.0 L 0.0,200.0 L 0.0,0.0 M 43.0,8.0 L 36.0,14.0 L 35.0,17.0 L 35.0,28.0 L 25.0,28.0 L 15.0,33.0 L 9.0,40.0 L 6.0,48.0 L 6.0,171.0 L 10.0,181.0 L 15.0,187.0 L 25.0,192.0 L 110.0,192.0 L 119.0,188.0 L 125.0,183.0 L 128.0,178.0 L 130.0,171.0 L 130.0,48.0 L 126.0,39.0 L 121.0,33.0 L 113.0,29.0 L 110.0,28.0 L 101.0,28.0 L 101.0,16.0 L 96.0,10.0 L 93.0,8.0 L 43.0,8.0" fill="#FDFDFD"/>
	<path d="M 26.0,36.0 L 108.0,36.0 L 115.0,39.0 L 120.0,45.0 L 121.0,47.0 L 121.0,60.0 L 72.0,60.0 L 70.0,51.0 L 67.0,49.0 L 61.0,49.0 L 57.0,52.0 L 57.0,167.0 L 61.0,171.0 L 69.0,170.0 L 71.0,167.0 L 72.0,160.0 L 121.0,160.0 L 121.0,172.0 L 118.0,178.0 L 112.0,183.0 L 109.0,184.0 L 26.0,184.0 L 20.0,180.0 L 16.0,175.0 L 15.0,172.0 L 15.0,47.0 L 19.0,41.0 L 24.0,37.0 L 26.0,36.0" fill="#FCFCFC"/>
	<path d="M 64.0,68.0 L 122.0,68.0 L 122.0,152.0 L 64.0,152.0 L 64.0,144.0 L 66.0,144.0 L 66.0,132.0 L 64.0,132.0 L 64.0,88.0 L 66.0,88.0 L 66.0,76.0 L 64.0,76.0 L 64.0,68.0" fill="#FBFBFB"/>
	<path d="M 45.0,16.0 L 90.0,16.0 L 93.0,19.0 L 93.0,28.0 L 43.0,28.0 L 43.0,19.0 L 45.0,16.0" fill="#F8F8F8"/>
	<path d="M 106.0,132.0 L 114.0,132.0 L 114.0,144.0 L 106.0,144.0 L 106.0,132.0" fill="#060606"/>
	<path d="M 82.0,132.0 L 90.0,132.0 L 90.0,144.0 L 82.0,144.0 L 82.0,132.0" fill="#060606"/>
	<path d="M 106.0,76.0 L 114.0,76.0 L 114.0,88.0 L 106.0,88.0 L 106.0,76.0" fill="#060606"/>
	<path d="M 82.0,76.0 L 90.0,76.0 L 90.0,88.0 L 82.0,88.0 L 82.0,76.0" fill="#060606"/>
</svg>
