<?xml version="1.0" ?>
<svg baseProfile="full" height="600px" version="1.1" viewBox="-12.06 -12.06 144.12 144.12" width="600px" xmlns="http://www.w3.org/2000/svg" xmlns:ev="http://www.w3.org/2001/xml-events" xmlns:xlink="http://www.w3.org/1999/xlink">
	<defs/>
	<path d="M 0.0,0.0 L 120.0,0.0 L 120.0,120.0 L 0.0,120.0 L 0.0,0.0" fill="#040404"/>
	<path d="M 0.0,0.0 L 120.0,0.0 L 120.0,120.0 L 0.0,120.0 L 0.0,0.0 M 51.0,12.0 L 40.0,16.0 L 30.0,22.0 L 21.0,31.0 L 16.0,39.0 L 12.0,51.0 L 12.0,69.0 L 17.0,82.0 L 23.0,91.0 L 31.0,99.0 L 42.0,105.0 L 51.0,108.0 L 66.0,108.0 L 75.0,106.0 L 89.0,99.0 L 99.0,89.0 L 107.0,73.0 L 108.0,66.0 L 108.0,51.0 L 104.0,39.0 L 97.0,29.0 L 89.0,21.0 L 73.0,13.0 L 69.0,12.0 L 51.0,12.0" fill="#FCFCFC"/>
	<path d="M 84.0,33.0 L 90.0,34.0 L 95.0,40.0 L 98.0,46.0 L 98.0,52.0 L 94.0,56.0 L 85.0,57.0 L 79.0,53.0 L 76.0,48.0 L 76.0,42.0 L 80.0,36.0 L 84.0,33.0" fill="#F6F6F6"/>
	<path d="M 42.0,77.0 L 49.0,77.0 L 55.0,80.0 L 58.0,85.0 L 58.0,93.0 L 54.0,98.0 L 46.0,98.0 L 37.0,93.0 L 34.0,89.0 L 35.0,83.0 L 40.0,78.0 L 42.0,77.0" fill="#F7F7F7"/>
	<path d="M 80.0,70.0 L 86.0,70.0 L 92.0,74.0 L 94.0,76.0 L 93.0,83.0 L 86.0,91.0 L 82.0,93.0 L 77.0,93.0 L 72.0,88.0 L 71.0,85.0 L 71.0,78.0 L 76.0,72.0 L 80.0,70.0" fill="#F7F7F7"/>
	<path d="M 52.0,20.0 L 61.0,20.0 L 66.0,24.0 L 66.0,33.0 L 61.0,39.0 L 59.0,40.0 L 49.0,40.0 L 44.0,35.0 L 43.0,33.0 L 43.0,25.0 L 49.0,21.0 L 52.0,20.0" fill="#F8F8F8"/>
	<path d="M 25.0,44.0 L 32.0,44.0 L 37.0,47.0 L 40.0,51.0 L 40.0,59.0 L 37.0,64.0 L 33.0,67.0 L 24.0,67.0 L 21.0,65.0 L 20.0,62.0 L 20.0,54.0 L 22.0,47.0 L 25.0,44.0" fill="#F8F8F8"/>
	<path d="M 57.0,52.0 L 63.0,52.0 L 68.0,57.0 L 68.0,63.0 L 63.0,68.0 L 57.0,68.0 L 52.0,63.0 L 52.0,57.0 L 57.0,52.0" fill="#F0F0F0"/>
</svg>
