<?xml version="1.0" ?>
<svg baseProfile="full" height="600px" version="1.1" viewBox="-12.864 -12.864 153.728 153.728" width="600px" xmlns="http://www.w3.org/2000/svg" xmlns:ev="http://www.w3.org/2001/xml-events" xmlns:xlink="http://www.w3.org/1999/xlink">
	<defs/>
	<path d="M 0.0,0.0 L 128.0,0.0 L 128.0,128.0 L 0.0,128.0 L 0.0,0.0" fill="#FCFCFC"/>
	<path d="M 55.0,16.0 L 73.0,16.0 L 86.0,21.0 L 95.0,27.0 L 103.0,35.0 L 109.0,46.0 L 112.0,55.0 L 112.0,100.0 L 107.0,102.0 L 104.0,102.0 L 103.0,93.0 L 93.0,103.0 L 77.0,111.0 L 70.0,112.0 L 55.0,112.0 L 43.0,108.0 L 33.0,101.0 L 25.0,93.0 L 17.0,77.0 L 16.0,73.0 L 16.0,55.0 L 20.0,44.0 L 26.0,34.0 L 35.0,25.0 L 51.0,17.0 L 55.0,16.0" fill="#F6F6F6"/>
	<path d="M 55.0,16.0 L 73.0,16.0 L 86.0,21.0 L 95.0,27.0 L 103.0,35.0 L 109.0,46.0 L 112.0,55.0 L 112.0,100.0 L 107.0,102.0 L 104.0,102.0 L 103.0,93.0 L 93.0,103.0 L 77.0,111.0 L 70.0,112.0 L 55.0,112.0 L 43.0,108.0 L 33.0,101.0 L 25.0,93.0 L 17.0,77.0 L 16.0,73.0 L 16.0,55.0 L 20.0,44.0 L 26.0,34.0 L 35.0,25.0 L 51.0,17.0 L 55.0,16.0 M 58.0,24.0 L 48.0,27.0 L 38.0,33.0 L 30.0,42.0 L 25.0,53.0 L 24.0,58.0 L 24.0,70.0 L 27.0,80.0 L 33.0,90.0 L 42.0,98.0 L 53.0,103.0 L 56.0,104.0 L 69.0,104.0 L 82.0,100.0 L 91.0,94.0 L 98.0,86.0 L 103.0,74.0 L 104.0,69.0 L 104.0,56.0 L 99.0,44.0 L 93.0,36.0 L 86.0,30.0 L 78.0,26.0 L 70.0,24.0 L 58.0,24.0" fill="#070707"/>
	<path d="M 60.0,52.0 L 67.0,52.0 L 72.0,55.0 L 76.0,60.0 L 76.0,68.0 L 73.0,73.0 L 67.0,76.0 L 60.0,76.0 L 53.0,70.0 L 52.0,67.0 L 52.0,60.0 L 55.0,55.0 L 60.0,52.0" fill="#060606"/>
	<path d="M 44.0,33.0 L 48.0,35.0 L 56.0,46.0 L 55.0,51.0 L 48.0,60.0 L 42.0,59.0 L 29.0,53.0 L 34.0,43.0 L 44.0,33.0" fill="#070707"/>
	<path d="M 46.0,72.0 L 51.0,73.0 L 60.0,80.0 L 59.0,85.0 L 53.0,99.0 L 43.0,94.0 L 33.0,84.0 L 35.0,80.0 L 46.0,72.0" fill="#060606"/>
	<path d="M 80.0,68.0 L 85.0,69.0 L 98.0,75.0 L 97.0,80.0 L 91.0,88.0 L 84.0,95.0 L 80.0,93.0 L 72.0,82.0 L 73.0,77.0 L 80.0,68.0" fill="#060606"/>
	<path d="M 75.0,30.0 L 80.0,31.0 L 88.0,37.0 L 95.0,44.0 L 93.0,48.0 L 82.0,56.0 L 77.0,55.0 L 68.0,48.0 L 69.0,43.0 L 74.0,31.0 L 75.0,30.0" fill="#060606"/>
	<path d="M 62.0,60.0 L 67.0,61.0 L 68.0,66.0 L 66.0,68.0 L 61.0,67.0 L 60.0,62.0 L 62.0,60.0" fill="#EAEAEA"/>
	<path d="M 46.0,82.0 L 50.0,83.0 L 49.0,87.0 L 45.0,85.0 L 46.0,82.0" fill="#E1E1E1"/>
	<path d="M 83.0,78.0 L 87.0,79.0 L 85.0,83.0 L 82.0,82.0 L 83.0,78.0" fill="#E1E1E1"/>
	<path d="M 43.0,45.0 L 46.0,46.0 L 45.0,50.0 L 41.0,49.0 L 43.0,45.0" fill="#E1E1E1"/>
	<path d="M 79.0,41.0 L 83.0,43.0 L 82.0,46.0 L 78.0,45.0 L 79.0,41.0" fill="#E0E0E0"/>
</svg>
