<?xml version="1.0" ?>
<svg baseProfile="full" height="600px" version="1.1" viewBox="-20.1 -20.1 240.2 240.2" width="600px" xmlns="http://www.w3.org/2000/svg" xmlns:ev="http://www.w3.org/2001/xml-events" xmlns:xlink="http://www.w3.org/1999/xlink">
	<defs/>
	<path d="M 0.0,0.0 L 200.0,0.0 L 200.0,200.0 L 0.0,200.0 L 0.0,0.0" fill="#FCFCFC"/>
	<path d="M 0.0,0.0 L 200.0,0.0 L 200.0,200.0 L 141.0,200.0 L 144.0,198.0 L 154.0,193.0 L 164.0,185.0 L 172.0,176.0 L 180.0,162.0 L 185.0,148.0 L 186.0,141.0 L 186.0,117.0 L 183.0,102.0 L 178.0,88.0 L 169.0,71.0 L 160.0,59.0 L 148.0,45.0 L 134.0,32.0 L 117.0,19.0 L 105.0,11.0 L 100.0,12.0 L 95.0,27.0 L 87.0,42.0 L 78.0,53.0 L 69.0,63.0 L 49.0,83.0 L 40.0,94.0 L 31.0,108.0 L 26.0,120.0 L 23.0,135.0 L 23.0,151.0 L 25.0,160.0 L 29.0,170.0 L 35.0,179.0 L 43.0,187.0 L 55.0,194.0 L 71.0,199.0 L 71.0,200.0 L 0.0,200.0 L 0.0,0.0" fill="#FDFDFD"/>
	<path d="M 101.0,10.0 L 107.0,11.0 L 125.0,24.0 L 138.0,35.0 L 151.0,47.0 L 163.0,61.0 L 173.0,76.0 L 182.0,95.0 L 186.0,110.0 L 187.0,117.0 L 187.0,141.0 L 185.0,151.0 L 180.0,164.0 L 173.0,176.0 L 162.0,188.0 L 152.0,195.0 L 144.0,199.0 L 137.0,200.0 L 135.0,198.0 L 136.0,193.0 L 153.0,184.0 L 165.0,172.0 L 173.0,158.0 L 177.0,147.0 L 178.0,140.0 L 178.0,117.0 L 174.0,100.0 L 167.0,84.0 L 158.0,69.0 L 146.0,55.0 L 133.0,42.0 L 122.0,33.0 L 107.0,22.0 L 105.0,21.0 L 102.0,30.0 L 95.0,44.0 L 83.0,60.0 L 68.0,76.0 L 51.0,93.0 L 40.0,108.0 L 33.0,124.0 L 31.0,133.0 L 31.0,150.0 L 34.0,162.0 L 39.0,171.0 L 46.0,179.0 L 59.0,187.0 L 72.0,191.0 L 82.0,192.0 L 84.0,194.0 L 83.0,199.0 L 82.0,200.0 L 71.0,200.0 L 55.0,195.0 L 42.0,187.0 L 32.0,177.0 L 25.0,164.0 L 23.0,158.0 L 22.0,151.0 L 22.0,135.0 L 25.0,120.0 L 31.0,106.0 L 39.0,94.0 L 51.0,80.0 L 75.0,56.0 L 87.0,40.0 L 95.0,25.0 L 99.0,12.0 L 101.0,10.0" fill="#080808"/>
	<path d="M 116.0,69.0 L 121.0,69.0 L 131.0,82.0 L 137.0,92.0 L 143.0,106.0 L 146.0,119.0 L 146.0,134.0 L 142.0,147.0 L 135.0,159.0 L 128.0,166.0 L 122.0,170.0 L 118.0,169.0 L 117.0,168.0 L 117.0,163.0 L 129.0,152.0 L 136.0,138.0 L 137.0,133.0 L 137.0,120.0 L 133.0,105.0 L 125.0,89.0 L 123.0,105.0 L 121.0,113.0 L 116.0,123.0 L 111.0,127.0 L 107.0,128.0 L 99.0,128.0 L 89.0,122.0 L 88.0,119.0 L 83.0,124.0 L 78.0,132.0 L 76.0,137.0 L 76.0,145.0 L 80.0,155.0 L 86.0,163.0 L 85.0,168.0 L 80.0,169.0 L 73.0,161.0 L 68.0,151.0 L 67.0,147.0 L 67.0,136.0 L 71.0,126.0 L 77.0,117.0 L 85.0,109.0 L 90.0,110.0 L 99.0,118.0 L 106.0,119.0 L 111.0,114.0 L 114.0,104.0 L 115.0,70.0 L 116.0,69.0" fill="#0A0A0A"/>
</svg>
