<?xml version="1.0" ?>
<svg baseProfile="full" height="600px" version="1.1" viewBox="-20.1 -20.1 240.2 240.2" width="600px" xmlns="http://www.w3.org/2000/svg" xmlns:ev="http://www.w3.org/2001/xml-events" xmlns:xlink="http://www.w3.org/1999/xlink">
	<defs/>
	<path d="M 0.0,0.0 L 200.0,0.0 L 200.0,200.0 L 0.0,200.0 L 0.0,0.0" fill="#FBFBFB"/>
	<path d="M 0.0,0.0 L 200.0,0.0 L 200.0,200.0 L 134.0,200.0 L 137.0,198.0 L 148.0,192.0 L 158.0,183.0 L 165.0,172.0 L 169.0,162.0 L 171.0,152.0 L 171.0,129.0 L 166.0,110.0 L 159.0,97.0 L 149.0,84.0 L 141.0,76.0 L 128.0,66.0 L 113.0,56.0 L 90.0,42.0 L 78.0,34.0 L 69.0,27.0 L 60.0,19.0 L 57.0,15.0 L 52.0,15.0 L 40.0,35.0 L 30.0,51.0 L 20.0,69.0 L 13.0,84.0 L 9.0,96.0 L 6.0,112.0 L 6.0,146.0 L 10.0,161.0 L 16.0,173.0 L 26.0,184.0 L 38.0,192.0 L 54.0,198.0 L 59.0,199.0 L 59.0,200.0 L 0.0,200.0 L 0.0,0.0" fill="#FDFDFD"/>
	<path d="M 52.0,14.0 L 57.0,14.0 L 66.0,24.0 L 79.0,34.0 L 103.0,49.0 L 124.0,62.0 L 138.0,73.0 L 148.0,82.0 L 156.0,91.0 L 164.0,104.0 L 169.0,116.0 L 172.0,129.0 L 172.0,152.0 L 169.0,164.0 L 165.0,174.0 L 157.0,185.0 L 148.0,193.0 L 134.0,200.0 L 129.0,199.0 L 128.0,194.0 L 133.0,191.0 L 144.0,185.0 L 150.0,180.0 L 157.0,170.0 L 162.0,156.0 L 163.0,151.0 L 163.0,129.0 L 159.0,114.0 L 151.0,99.0 L 140.0,87.0 L 133.0,80.0 L 115.0,67.0 L 94.0,54.0 L 77.0,43.0 L 65.0,34.0 L 56.0,26.0 L 53.0,29.0 L 37.0,55.0 L 27.0,73.0 L 19.0,91.0 L 14.0,113.0 L 14.0,143.0 L 16.0,155.0 L 23.0,169.0 L 28.0,175.0 L 39.0,183.0 L 49.0,188.0 L 60.0,191.0 L 71.0,192.0 L 73.0,194.0 L 72.0,199.0 L 71.0,200.0 L 59.0,200.0 L 45.0,196.0 L 33.0,190.0 L 23.0,182.0 L 15.0,173.0 L 9.0,161.0 L 5.0,146.0 L 5.0,112.0 L 9.0,93.0 L 15.0,77.0 L 27.0,54.0 L 43.0,28.0 L 52.0,14.0" fill="#080808"/>
	<path d="M 62.0,66.0 L 67.0,66.0 L 80.0,76.0 L 97.0,88.0 L 107.0,96.0 L 117.0,105.0 L 125.0,115.0 L 130.0,126.0 L 131.0,129.0 L 131.0,143.0 L 127.0,156.0 L 120.0,167.0 L 115.0,168.0 L 113.0,166.0 L 114.0,160.0 L 119.0,152.0 L 122.0,142.0 L 122.0,130.0 L 116.0,118.0 L 107.0,108.0 L 96.0,98.0 L 78.0,85.0 L 75.0,83.0 L 78.0,91.0 L 78.0,102.0 L 74.0,112.0 L 67.0,118.0 L 63.0,119.0 L 54.0,119.0 L 49.0,117.0 L 50.0,131.0 L 55.0,144.0 L 63.0,153.0 L 73.0,158.0 L 83.0,160.0 L 85.0,162.0 L 84.0,167.0 L 83.0,168.0 L 75.0,168.0 L 63.0,163.0 L 55.0,157.0 L 48.0,149.0 L 43.0,139.0 L 41.0,133.0 L 40.0,125.0 L 40.0,106.0 L 42.0,104.0 L 47.0,105.0 L 55.0,110.0 L 62.0,110.0 L 66.0,108.0 L 68.0,104.0 L 68.0,88.0 L 63.0,76.0 L 60.0,71.0 L 61.0,67.0 L 62.0,66.0" fill="#080808"/>
</svg>
