<?xml version="1.0" ?>
<svg baseProfile="full" height="600px" version="1.1" viewBox="-19.296000000000003 -19.296000000000003 230.592 230.592" width="600px" xmlns="http://www.w3.org/2000/svg" xmlns:ev="http://www.w3.org/2001/xml-events" xmlns:xlink="http://www.w3.org/1999/xlink">
	<defs/>
	<path d="M 0.0,0.0 L 192.0,0.0 L 192.0,192.0 L 0.0,192.0 L 0.0,0.0" fill="#FEFDFC"/>
	<path d="M 93.0,21.0 L 97.0,26.0 L 104.0,34.0 L 115.0,45.0 L 123.0,52.0 L 134.0,63.0 L 144.0,76.0 L 152.0,90.0 L 156.0,103.0 L 156.0,122.0 L 150.0,140.0 L 141.0,153.0 L 132.0,161.0 L 121.0,167.0 L 106.0,172.0 L 86.0,172.0 L 70.0,167.0 L 59.0,160.0 L 50.0,152.0 L 42.0,140.0 L 37.0,126.0 L 36.0,121.0 L 36.0,103.0 L 41.0,88.0 L 48.0,76.0 L 58.0,63.0 L 72.0,48.0 L 83.0,37.0 L 91.0,26.0 L 93.0,21.0" fill="#DE2E02"/>
	<path d="M 94.0,69.0 L 96.0,70.0 L 99.0,75.0 L 111.0,88.0 L 122.0,101.0 L 130.0,115.0 L 132.0,122.0 L 132.0,135.0 L 128.0,146.0 L 119.0,156.0 L 112.0,161.0 L 103.0,164.0 L 92.0,164.0 L 82.0,162.0 L 71.0,155.0 L 64.0,146.0 L 61.0,139.0 L 60.0,132.0 L 60.0,121.0 L 64.0,109.0 L 74.0,95.0 L 84.0,85.0 L 92.0,74.0 L 94.0,69.0" fill="#FD5620"/>
	<path d="M 95.0,109.0 L 100.0,114.0 L 108.0,122.0 L 115.0,133.0 L 116.0,136.0 L 116.0,145.0 L 113.0,152.0 L 106.0,158.0 L 101.0,160.0 L 90.0,160.0 L 82.0,155.0 L 77.0,149.0 L 76.0,146.0 L 76.0,136.0 L 81.0,126.0 L 92.0,113.0 L 95.0,109.0" fill="#FFBE08"/>
</svg>
