<?xml version="1.0" ?>
<svg baseProfile="full" height="600px" version="1.1" viewBox="-20.1 -20.1 240.2 240.2" width="600px" xmlns="http://www.w3.org/2000/svg" xmlns:ev="http://www.w3.org/2001/xml-events" xmlns:xlink="http://www.w3.org/1999/xlink">
	<defs/>
	<path d="M 0.0,0.0 L 200.0,0.0 L 200.0,200.0 L 0.0,200.0 L 0.0,0.0" fill="#FBFBFB"/>
	<path d="M 0.0,0.0 L 86.0,0.0 L 83.0,13.0 L 79.0,26.0 L 70.0,43.0 L 59.0,57.0 L 47.0,71.0 L 35.0,86.0 L 27.0,99.0 L 22.0,109.0 L 18.0,123.0 L 17.0,128.0 L 17.0,147.0 L 21.0,161.0 L 28.0,174.0 L 37.0,184.0 L 51.0,193.0 L 60.0,197.0 L 69.0,199.0 L 69.0,200.0 L 0.0,200.0 L 0.0,0.0" fill="#FDFDFD"/>
	<path d="M 90.0,0.0 L 200.0,0.0 L 200.0,200.0 L 142.0,200.0 L 146.0,197.0 L 157.0,190.0 L 164.0,183.0 L 171.0,173.0 L 178.0,159.0 L 182.0,145.0 L 183.0,140.0 L 183.0,118.0 L 178.0,99.0 L 171.0,83.0 L 160.0,66.0 L 149.0,52.0 L 137.0,39.0 L 122.0,25.0 L 108.0,14.0 L 90.0,1.0 L 90.0,0.0" fill="#FDFDFD"/>
	<path d="M 86.0,0.0 L 91.0,1.0 L 108.0,13.0 L 119.0,22.0 L 129.0,31.0 L 137.0,38.0 L 146.0,47.0 L 155.0,58.0 L 166.0,73.0 L 174.0,87.0 L 180.0,102.0 L 184.0,118.0 L 184.0,140.0 L 180.0,156.0 L 174.0,170.0 L 167.0,180.0 L 158.0,190.0 L 148.0,197.0 L 142.0,200.0 L 137.0,199.0 L 136.0,194.0 L 144.0,189.0 L 152.0,183.0 L 160.0,175.0 L 168.0,162.0 L 173.0,149.0 L 175.0,139.0 L 175.0,120.0 L 171.0,103.0 L 165.0,90.0 L 156.0,74.0 L 146.0,61.0 L 135.0,49.0 L 120.0,34.0 L 109.0,25.0 L 93.0,13.0 L 91.0,13.0 L 87.0,27.0 L 79.0,43.0 L 72.0,54.0 L 63.0,65.0 L 52.0,78.0 L 40.0,93.0 L 32.0,106.0 L 27.0,118.0 L 25.0,126.0 L 25.0,144.0 L 29.0,159.0 L 36.0,171.0 L 44.0,179.0 L 55.0,186.0 L 65.0,190.0 L 78.0,192.0 L 80.0,194.0 L 79.0,199.0 L 78.0,200.0 L 69.0,200.0 L 58.0,197.0 L 44.0,190.0 L 34.0,182.0 L 25.0,171.0 L 19.0,158.0 L 16.0,147.0 L 16.0,128.0 L 20.0,112.0 L 25.0,101.0 L 32.0,89.0 L 42.0,76.0 L 55.0,61.0 L 67.0,46.0 L 75.0,32.0 L 81.0,18.0 L 84.0,2.0 L 86.0,0.0" fill="#080808"/>
	<path d="M 100.0,62.0 L 107.0,63.0 L 123.0,79.0 L 132.0,92.0 L 139.0,107.0 L 141.0,116.0 L 141.0,137.0 L 137.0,150.0 L 131.0,162.0 L 126.0,168.0 L 121.0,167.0 L 120.0,162.0 L 126.0,152.0 L 131.0,141.0 L 132.0,135.0 L 132.0,117.0 L 128.0,104.0 L 121.0,91.0 L 110.0,78.0 L 109.0,106.0 L 107.0,114.0 L 103.0,122.0 L 97.0,127.0 L 94.0,128.0 L 87.0,128.0 L 79.0,123.0 L 73.0,117.0 L 71.0,117.0 L 66.0,128.0 L 65.0,133.0 L 65.0,143.0 L 70.0,153.0 L 80.0,162.0 L 79.0,167.0 L 74.0,168.0 L 65.0,161.0 L 59.0,152.0 L 56.0,143.0 L 56.0,130.0 L 61.0,117.0 L 68.0,106.0 L 70.0,104.0 L 75.0,105.0 L 83.0,115.0 L 89.0,119.0 L 95.0,118.0 L 99.0,109.0 L 100.0,104.0 L 100.0,79.0 L 99.0,63.0 L 100.0,62.0" fill="#080808"/>
</svg>
