<?xml version="1.0" ?>
<svg baseProfile="full" height="600px" version="1.1" viewBox="-20.1 -20.1 240.2 240.2" width="600px" xmlns="http://www.w3.org/2000/svg" xmlns:ev="http://www.w3.org/2001/xml-events" xmlns:xlink="http://www.w3.org/1999/xlink">
	<defs/>
	<path d="M 0.0,0.0 L 200.0,0.0 L 200.0,200.0 L 0.0,200.0 L 0.0,0.0" fill="#FDFDFD"/>
	<path d="M 101.0,118.0 L 128.0,118.0 L 152.0,121.0 L 164.0,123.0 L 188.0,126.0 L 198.0,126.0 L 200.0,125.0 L 200.0,200.0 L 6.0,200.0 L 7.0,198.0 L 8.0,125.0 L 28.0,127.0 L 47.0,127.0 L 62.0,125.0 L 94.0,119.0 L 101.0,118.0" fill="#FDFDFD"/>
	<path d="M 0.0,0.0 L 200.0,0.0 L 200.0,125.0 L 198.0,127.0 L 188.0,127.0 L 156.0,123.0 L 137.0,120.0 L 128.0,119.0 L 101.0,119.0 L 77.0,123.0 L 57.0,127.0 L 47.0,128.0 L 28.0,128.0 L 11.0,126.0 L 8.0,125.0 L 8.0,198.0 L 6.0,200.0 L 0.0,200.0 L 0.0,0.0 M 109.0,12.0 L 94.0,14.0 L 62.0,22.0 L 51.0,24.0 L 28.0,24.0 L 10.0,19.0 L 8.0,19.0 L 8.0,117.0 L 21.0,119.0 L 56.0,119.0 L 93.0,112.0 L 100.0,111.0 L 129.0,111.0 L 145.0,113.0 L 161.0,115.0 L 164.0,116.0 L 183.0,118.0 L 192.0,118.0 L 192.0,27.0 L 167.0,20.0 L 153.0,16.0 L 130.0,12.0 L 109.0,12.0" fill="#060606"/>
	<path d="M 0.0,0.0 L 200.0,0.0 L 200.0,21.0 L 190.0,19.0 L 172.0,14.0 L 150.0,8.0 L 131.0,5.0 L 108.0,5.0 L 95.0,7.0 L 80.0,10.0 L 55.0,16.0 L 50.0,17.0 L 29.0,17.0 L 17.0,14.0 L 6.0,9.0 L 0.0,10.0 L 0.0,0.0" fill="#FAFAFA"/>
</svg>
