<?xml version="1.0" ?>
<svg baseProfile="full" height="600px" version="1.1" viewBox="-20.1 -20.1 240.2 240.2" width="600px" xmlns="http://www.w3.org/2000/svg" xmlns:ev="http://www.w3.org/2001/xml-events" xmlns:xlink="http://www.w3.org/1999/xlink">
	<defs/>
	<path d="M 0.0,0.0 L 200.0,0.0 L 200.0,200.0 L 0.0,200.0 L 0.0,0.0" fill="#FCFCFC"/>
	<path d="M 0.0,0.0 L 200.0,0.0 L 200.0,200.0 L 0.0,200.0 L 0.0,0.0 M 90.0,9.0 L 78.0,15.0 L 68.0,24.0 L 59.0,38.0 L 53.0,52.0 L 53.0,54.0 L 39.0,55.0 L 24.0,59.0 L 13.0,66.0 L 7.0,74.0 L 4.0,82.0 L 4.0,95.0 L 7.0,105.0 L 13.0,115.0 L 22.0,125.0 L 30.0,132.0 L 35.0,135.0 L 34.0,141.0 L 34.0,167.0 L 38.0,178.0 L 44.0,186.0 L 52.0,192.0 L 60.0,195.0 L 71.0,195.0 L 87.0,190.0 L 103.0,181.0 L 107.0,178.0 L 112.0,179.0 L 124.0,185.0 L 134.0,188.0 L 148.0,188.0 L 158.0,185.0 L 166.0,179.0 L 170.0,174.0 L 175.0,161.0 L 175.0,140.0 L 171.0,120.0 L 181.0,110.0 L 188.0,99.0 L 191.0,91.0 L 191.0,77.0 L 188.0,68.0 L 181.0,59.0 L 171.0,52.0 L 156.0,46.0 L 145.0,44.0 L 135.0,44.0 L 133.0,38.0 L 127.0,27.0 L 116.0,15.0 L 106.0,10.0 L 103.0,9.0 L 90.0,9.0" fill="#FCFCFC"/>
	<path d="M 90.0,9.0 L 103.0,9.0 L 113.0,13.0 L 123.0,22.0 L 130.0,32.0 L 135.0,42.0 L 135.0,44.0 L 145.0,44.0 L 158.0,47.0 L 171.0,52.0 L 182.0,60.0 L 189.0,70.0 L 191.0,77.0 L 191.0,91.0 L 187.0,101.0 L 179.0,112.0 L 171.0,120.0 L 175.0,140.0 L 175.0,161.0 L 170.0,174.0 L 163.0,182.0 L 156.0,186.0 L 148.0,188.0 L 134.0,188.0 L 119.0,183.0 L 110.0,178.0 L 106.0,179.0 L 91.0,188.0 L 79.0,193.0 L 71.0,195.0 L 60.0,195.0 L 50.0,191.0 L 41.0,183.0 L 36.0,174.0 L 34.0,167.0 L 34.0,141.0 L 35.0,135.0 L 24.0,127.0 L 15.0,118.0 L 8.0,107.0 L 5.0,100.0 L 4.0,95.0 L 4.0,82.0 L 8.0,72.0 L 13.0,66.0 L 24.0,59.0 L 39.0,55.0 L 53.0,54.0 L 56.0,44.0 L 65.0,28.0 L 75.0,17.0 L 85.0,11.0 L 90.0,9.0 M 92.0,17.0 L 85.0,20.0 L 77.0,27.0 L 71.0,34.0 L 62.0,51.0 L 59.0,59.0 L 59.0,62.0 L 49.0,62.0 L 35.0,64.0 L 24.0,68.0 L 15.0,76.0 L 12.0,83.0 L 12.0,94.0 L 15.0,103.0 L 21.0,112.0 L 27.0,119.0 L 40.0,129.0 L 45.0,131.0 L 42.0,144.0 L 42.0,166.0 L 46.0,176.0 L 50.0,181.0 L 58.0,186.0 L 61.0,187.0 L 71.0,187.0 L 87.0,181.0 L 100.0,173.0 L 107.0,168.0 L 111.0,169.0 L 126.0,177.0 L 139.0,180.0 L 148.0,180.0 L 157.0,176.0 L 162.0,172.0 L 166.0,162.0 L 167.0,158.0 L 167.0,145.0 L 164.0,127.0 L 161.0,117.0 L 169.0,110.0 L 176.0,103.0 L 181.0,94.0 L 183.0,90.0 L 183.0,77.0 L 179.0,69.0 L 174.0,64.0 L 165.0,58.0 L 154.0,54.0 L 142.0,52.0 L 130.0,52.0 L 124.0,38.0 L 116.0,27.0 L 109.0,20.0 L 102.0,17.0 L 92.0,17.0" fill="#090909"/>
	<path d="M 97.0,72.0 L 103.0,73.0 L 105.0,78.0 L 105.0,87.0 L 102.0,99.0 L 116.0,91.0 L 118.0,90.0 L 127.0,90.0 L 129.0,92.0 L 129.0,97.0 L 123.0,101.0 L 113.0,103.0 L 104.0,104.0 L 114.0,112.0 L 120.0,120.0 L 120.0,126.0 L 118.0,128.0 L 113.0,128.0 L 106.0,120.0 L 100.0,108.0 L 92.0,124.0 L 87.0,129.0 L 82.0,128.0 L 81.0,127.0 L 81.0,121.0 L 88.0,112.0 L 96.0,105.0 L 79.0,103.0 L 71.0,99.0 L 70.0,94.0 L 73.0,91.0 L 80.0,91.0 L 90.0,95.0 L 97.0,99.0 L 94.0,87.0 L 94.0,76.0 L 97.0,72.0" fill="#090909"/>
</svg>
