<?xml version="1.0" ?>
<svg baseProfile="full" height="600px" version="1.1" viewBox="-20.1 -20.1 240.2 240.2" width="600px" xmlns="http://www.w3.org/2000/svg" xmlns:ev="http://www.w3.org/2001/xml-events" xmlns:xlink="http://www.w3.org/1999/xlink">
	<defs/>
	<path d="M 0.0,0.0 L 200.0,0.0 L 200.0,200.0 L 0.0,200.0 L 0.0,0.0" fill="#FCFCFC"/>
	<path d="M 0.0,0.0 L 200.0,0.0 L 200.0,200.0 L 0.0,200.0 L 0.0,0.0 M 79.0,10.0 L 71.0,14.0 L 64.0,20.0 L 57.0,31.0 L 53.0,42.0 L 51.0,50.0 L 51.0,55.0 L 43.0,56.0 L 27.0,63.0 L 14.0,73.0 L 8.0,81.0 L 4.0,89.0 L 3.0,94.0 L 3.0,108.0 L 9.0,120.0 L 18.0,129.0 L 30.0,136.0 L 37.0,138.0 L 37.0,160.0 L 39.0,170.0 L 43.0,180.0 L 49.0,189.0 L 58.0,196.0 L 66.0,199.0 L 77.0,199.0 L 87.0,196.0 L 97.0,190.0 L 107.0,181.0 L 111.0,177.0 L 121.0,180.0 L 133.0,183.0 L 157.0,183.0 L 168.0,179.0 L 174.0,174.0 L 180.0,162.0 L 180.0,143.0 L 175.0,127.0 L 172.0,120.0 L 173.0,115.0 L 180.0,105.0 L 187.0,91.0 L 190.0,80.0 L 190.0,64.0 L 185.0,54.0 L 176.0,46.0 L 163.0,42.0 L 133.0,42.0 L 123.0,29.0 L 113.0,19.0 L 101.0,12.0 L 96.0,10.0 L 79.0,10.0" fill="#FCFCFC"/>
	<path d="M 79.0,10.0 L 96.0,10.0 L 110.0,17.0 L 120.0,26.0 L 128.0,35.0 L 133.0,42.0 L 163.0,42.0 L 176.0,46.0 L 185.0,54.0 L 190.0,64.0 L 190.0,80.0 L 186.0,94.0 L 177.0,110.0 L 172.0,116.0 L 173.0,122.0 L 178.0,135.0 L 180.0,143.0 L 180.0,162.0 L 174.0,174.0 L 166.0,180.0 L 157.0,183.0 L 133.0,183.0 L 115.0,178.0 L 111.0,177.0 L 100.0,188.0 L 89.0,195.0 L 82.0,198.0 L 77.0,199.0 L 66.0,199.0 L 56.0,195.0 L 47.0,187.0 L 41.0,176.0 L 38.0,167.0 L 37.0,160.0 L 37.0,138.0 L 28.0,135.0 L 17.0,128.0 L 8.0,119.0 L 3.0,108.0 L 3.0,94.0 L 6.0,84.0 L 14.0,73.0 L 24.0,65.0 L 40.0,57.0 L 47.0,55.0 L 51.0,55.0 L 52.0,47.0 L 56.0,34.0 L 61.0,24.0 L 68.0,16.0 L 77.0,11.0 L 79.0,10.0 M 83.0,17.0 L 75.0,21.0 L 67.0,30.0 L 61.0,44.0 L 59.0,52.0 L 58.0,63.0 L 48.0,63.0 L 35.0,68.0 L 24.0,75.0 L 16.0,83.0 L 11.0,93.0 L 11.0,106.0 L 15.0,115.0 L 25.0,124.0 L 40.0,131.0 L 46.0,132.0 L 45.0,136.0 L 45.0,159.0 L 47.0,169.0 L 53.0,181.0 L 62.0,189.0 L 67.0,191.0 L 76.0,191.0 L 87.0,187.0 L 98.0,179.0 L 105.0,172.0 L 108.0,168.0 L 108.0,166.0 L 123.0,172.0 L 135.0,175.0 L 156.0,175.0 L 165.0,171.0 L 170.0,165.0 L 172.0,161.0 L 172.0,144.0 L 166.0,126.0 L 162.0,118.0 L 163.0,114.0 L 171.0,104.0 L 177.0,94.0 L 182.0,81.0 L 182.0,67.0 L 179.0,59.0 L 172.0,53.0 L 163.0,50.0 L 137.0,50.0 L 129.0,51.0 L 119.0,37.0 L 106.0,24.0 L 94.0,18.0 L 91.0,17.0 L 83.0,17.0" fill="#080808"/>
	<path d="M 93.0,73.0 L 99.0,73.0 L 102.0,77.0 L 103.0,98.0 L 113.0,90.0 L 119.0,87.0 L 126.0,87.0 L 128.0,89.0 L 128.0,94.0 L 123.0,98.0 L 113.0,102.0 L 105.0,104.0 L 117.0,112.0 L 122.0,118.0 L 123.0,123.0 L 120.0,126.0 L 115.0,126.0 L 107.0,118.0 L 101.0,108.0 L 98.0,116.0 L 94.0,126.0 L 89.0,131.0 L 85.0,130.0 L 84.0,129.0 L 84.0,121.0 L 93.0,108.0 L 95.0,106.0 L 76.0,105.0 L 70.0,101.0 L 70.0,96.0 L 72.0,94.0 L 83.0,94.0 L 97.0,100.0 L 92.0,86.0 L 91.0,76.0 L 93.0,73.0" fill="#090909"/>
</svg>
