<?xml version="1.0" ?>
<svg baseProfile="full" height="600px" version="1.1" viewBox="-20.1 -20.1 240.2 240.2" width="600px" xmlns="http://www.w3.org/2000/svg" xmlns:ev="http://www.w3.org/2001/xml-events" xmlns:xlink="http://www.w3.org/1999/xlink">
	<defs/>
	<path d="M 0.0,0.0 L 200.0,0.0 L 200.0,200.0 L 0.0,200.0 L 0.0,0.0" fill="#FCFCFC"/>
	<path d="M 0.0,0.0 L 200.0,0.0 L 200.0,200.0 L 0.0,200.0 L 0.0,0.0 M 94.0,8.0 L 82.0,13.0 L 70.0,24.0 L 62.0,37.0 L 57.0,48.0 L 57.0,50.0 L 39.0,51.0 L 26.0,55.0 L 16.0,61.0 L 10.0,68.0 L 6.0,76.0 L 5.0,79.0 L 5.0,91.0 L 8.0,102.0 L 13.0,111.0 L 22.0,121.0 L 32.0,130.0 L 31.0,140.0 L 30.0,144.0 L 30.0,159.0 L 32.0,169.0 L 38.0,181.0 L 45.0,188.0 L 56.0,193.0 L 69.0,193.0 L 85.0,188.0 L 99.0,180.0 L 104.0,178.0 L 120.0,186.0 L 129.0,189.0 L 149.0,189.0 L 159.0,185.0 L 164.0,181.0 L 169.0,173.0 L 172.0,163.0 L 172.0,143.0 L 170.0,131.0 L 169.0,125.0 L 177.0,118.0 L 185.0,109.0 L 192.0,95.0 L 193.0,92.0 L 193.0,76.0 L 188.0,66.0 L 183.0,60.0 L 174.0,54.0 L 160.0,49.0 L 146.0,47.0 L 139.0,47.0 L 138.0,42.0 L 132.0,30.0 L 125.0,21.0 L 116.0,13.0 L 108.0,9.0 L 103.0,8.0 L 94.0,8.0" fill="#FCFCFC"/>
	<path d="M 94.0,8.0 L 103.0,8.0 L 112.0,11.0 L 121.0,17.0 L 128.0,24.0 L 136.0,37.0 L 139.0,44.0 L 139.0,47.0 L 153.0,48.0 L 163.0,50.0 L 175.0,55.0 L 184.0,61.0 L 190.0,69.0 L 193.0,76.0 L 193.0,92.0 L 188.0,104.0 L 180.0,115.0 L 171.0,124.0 L 169.0,125.0 L 171.0,134.0 L 172.0,143.0 L 172.0,163.0 L 168.0,175.0 L 162.0,183.0 L 153.0,188.0 L 149.0,189.0 L 129.0,189.0 L 115.0,184.0 L 104.0,178.0 L 99.0,180.0 L 85.0,188.0 L 69.0,193.0 L 56.0,193.0 L 44.0,187.0 L 36.0,178.0 L 31.0,166.0 L 30.0,159.0 L 30.0,144.0 L 32.0,134.0 L 31.0,129.0 L 21.0,120.0 L 12.0,110.0 L 7.0,100.0 L 5.0,91.0 L 5.0,79.0 L 9.0,70.0 L 15.0,62.0 L 24.0,56.0 L 31.0,53.0 L 39.0,51.0 L 57.0,50.0 L 60.0,41.0 L 66.0,30.0 L 73.0,21.0 L 82.0,13.0 L 94.0,8.0 M 94.0,16.0 L 86.0,20.0 L 80.0,25.0 L 71.0,38.0 L 64.0,52.0 L 63.0,58.0 L 48.0,58.0 L 36.0,60.0 L 24.0,65.0 L 16.0,73.0 L 13.0,82.0 L 13.0,92.0 L 18.0,104.0 L 26.0,114.0 L 35.0,122.0 L 41.0,126.0 L 43.0,126.0 L 39.0,140.0 L 39.0,165.0 L 45.0,177.0 L 53.0,183.0 L 59.0,185.0 L 68.0,185.0 L 83.0,180.0 L 95.0,173.0 L 102.0,168.0 L 107.0,170.0 L 117.0,176.0 L 131.0,181.0 L 148.0,181.0 L 156.0,177.0 L 161.0,171.0 L 164.0,162.0 L 164.0,144.0 L 162.0,131.0 L 160.0,122.0 L 170.0,113.0 L 177.0,106.0 L 184.0,94.0 L 185.0,90.0 L 185.0,77.0 L 181.0,70.0 L 173.0,63.0 L 161.0,58.0 L 149.0,55.0 L 134.0,54.0 L 129.0,42.0 L 121.0,29.0 L 116.0,23.0 L 109.0,18.0 L 104.0,16.0 L 94.0,16.0" fill="#080808"/>
	<path d="M 98.0,72.0 L 103.0,73.0 L 105.0,75.0 L 105.0,88.0 L 103.0,99.0 L 113.0,93.0 L 120.0,90.0 L 127.0,90.0 L 129.0,92.0 L 129.0,98.0 L 122.0,102.0 L 115.0,103.0 L 104.0,103.0 L 109.0,108.0 L 117.0,116.0 L 120.0,121.0 L 120.0,126.0 L 117.0,129.0 L 112.0,128.0 L 107.0,122.0 L 101.0,110.0 L 101.0,107.0 L 99.0,107.0 L 98.0,112.0 L 93.0,122.0 L 88.0,128.0 L 83.0,129.0 L 81.0,127.0 L 81.0,120.0 L 89.0,110.0 L 95.0,105.0 L 81.0,103.0 L 73.0,100.0 L 71.0,98.0 L 71.0,92.0 L 74.0,90.0 L 82.0,91.0 L 94.0,97.0 L 97.0,99.0 L 95.0,90.0 L 95.0,75.0 L 98.0,72.0" fill="#090909"/>
</svg>
