<?xml version="1.0" ?>
<svg baseProfile="full" height="600px" version="1.1" viewBox="-20.1 -20.1 240.2 240.2" width="600px" xmlns="http://www.w3.org/2000/svg" xmlns:ev="http://www.w3.org/2001/xml-events" xmlns:xlink="http://www.w3.org/1999/xlink">
	<defs/>
	<path d="M 0.0,0.0 L 200.0,0.0 L 200.0,200.0 L 0.0,200.0 L 0.0,0.0" fill="#FCFCFC"/>
	<path d="M 0.0,0.0 L 200.0,0.0 L 200.0,200.0 L 0.0,200.0 L 0.0,0.0 M 102.0,12.0 L 94.0,16.0 L 80.0,15.0 L 61.0,15.0 L 45.0,19.0 L 33.0,25.0 L 23.0,34.0 L 17.0,42.0 L 12.0,52.0 L 9.0,63.0 L 8.0,72.0 L 8.0,93.0 L 12.0,119.0 L 16.0,133.0 L 20.0,182.0 L 22.0,184.0 L 54.0,184.0 L 56.0,182.0 L 58.0,161.0 L 59.0,149.0 L 59.0,139.0 L 65.0,140.0 L 78.0,140.0 L 85.0,139.0 L 85.0,152.0 L 88.0,182.0 L 90.0,184.0 L 122.0,184.0 L 124.0,182.0 L 125.0,157.0 L 128.0,136.0 L 135.0,115.0 L 138.0,107.0 L 138.0,103.0 L 156.0,110.0 L 161.0,115.0 L 163.0,120.0 L 163.0,131.0 L 161.0,138.0 L 156.0,139.0 L 151.0,134.0 L 147.0,129.0 L 142.0,130.0 L 133.0,137.0 L 132.0,142.0 L 138.0,151.0 L 146.0,157.0 L 153.0,160.0 L 164.0,160.0 L 174.0,155.0 L 180.0,148.0 L 184.0,140.0 L 188.0,128.0 L 191.0,107.0 L 192.0,92.0 L 192.0,61.0 L 188.0,45.0 L 181.0,32.0 L 172.0,22.0 L 160.0,15.0 L 147.0,12.0 L 136.0,12.0 L 126.0,15.0 L 120.0,14.0 L 113.0,12.0 L 102.0,12.0" fill="#FCFCFC"/>
	<path d="M 102.0,12.0 L 113.0,12.0 L 122.0,15.0 L 128.0,14.0 L 136.0,12.0 L 147.0,12.0 L 160.0,15.0 L 172.0,22.0 L 179.0,29.0 L 185.0,39.0 L 189.0,48.0 L 192.0,61.0 L 192.0,92.0 L 190.0,115.0 L 187.0,132.0 L 182.0,145.0 L 175.0,154.0 L 167.0,159.0 L 164.0,160.0 L 153.0,160.0 L 141.0,154.0 L 134.0,146.0 L 132.0,140.0 L 135.0,135.0 L 144.0,129.0 L 148.0,130.0 L 154.0,138.0 L 160.0,139.0 L 162.0,136.0 L 163.0,131.0 L 163.0,120.0 L 159.0,112.0 L 149.0,107.0 L 138.0,103.0 L 137.0,110.0 L 129.0,132.0 L 127.0,141.0 L 125.0,157.0 L 124.0,182.0 L 122.0,184.0 L 90.0,184.0 L 88.0,182.0 L 85.0,152.0 L 85.0,139.0 L 78.0,140.0 L 65.0,140.0 L 59.0,139.0 L 59.0,149.0 L 57.0,175.0 L 56.0,182.0 L 54.0,184.0 L 22.0,184.0 L 20.0,182.0 L 16.0,133.0 L 12.0,119.0 L 8.0,93.0 L 8.0,72.0 L 10.0,60.0 L 13.0,50.0 L 18.0,40.0 L 27.0,30.0 L 36.0,23.0 L 47.0,18.0 L 61.0,15.0 L 80.0,15.0 L 94.0,16.0 L 102.0,12.0 M 105.0,20.0 L 98.0,23.0 L 91.0,29.0 L 86.0,37.0 L 84.0,43.0 L 84.0,56.0 L 87.0,72.0 L 92.0,85.0 L 97.0,94.0 L 106.0,104.0 L 108.0,106.0 L 111.0,106.0 L 121.0,82.0 L 125.0,71.0 L 131.0,71.0 L 130.0,78.0 L 122.0,99.0 L 116.0,112.0 L 116.0,114.0 L 110.0,115.0 L 102.0,110.0 L 96.0,105.0 L 89.0,95.0 L 83.0,83.0 L 79.0,71.0 L 77.0,59.0 L 77.0,41.0 L 82.0,29.0 L 85.0,24.0 L 58.0,24.0 L 47.0,27.0 L 37.0,32.0 L 27.0,41.0 L 21.0,52.0 L 18.0,62.0 L 16.0,74.0 L 16.0,92.0 L 21.0,122.0 L 23.0,128.0 L 26.0,157.0 L 27.0,176.0 L 33.0,176.0 L 35.0,173.0 L 42.0,174.0 L 43.0,176.0 L 45.0,176.0 L 49.0,172.0 L 52.0,137.0 L 54.0,131.0 L 66.0,132.0 L 77.0,132.0 L 90.0,131.0 L 92.0,136.0 L 95.0,176.0 L 101.0,176.0 L 103.0,173.0 L 110.0,174.0 L 111.0,176.0 L 113.0,176.0 L 116.0,173.0 L 118.0,147.0 L 122.0,127.0 L 132.0,99.0 L 134.0,94.0 L 141.0,95.0 L 160.0,103.0 L 166.0,108.0 L 170.0,116.0 L 171.0,119.0 L 171.0,135.0 L 167.0,144.0 L 162.0,147.0 L 154.0,147.0 L 148.0,143.0 L 145.0,140.0 L 142.0,140.0 L 143.0,144.0 L 150.0,150.0 L 154.0,152.0 L 163.0,152.0 L 170.0,148.0 L 176.0,138.0 L 180.0,126.0 L 183.0,106.0 L 184.0,93.0 L 184.0,62.0 L 180.0,47.0 L 175.0,37.0 L 167.0,28.0 L 153.0,21.0 L 148.0,20.0 L 137.0,20.0 L 128.0,23.0 L 126.0,25.0 L 121.0,24.0 L 116.0,21.0 L 112.0,20.0 L 105.0,20.0" fill="#080808"/>
	<path d="M 162.0,60.0 L 167.0,61.0 L 168.0,66.0 L 166.0,68.0 L 161.0,67.0 L 160.0,62.0 L 162.0,60.0" fill="#0C0C0C"/>
</svg>
