<?xml version="1.0" ?>
<svg baseProfile="full" height="600px" version="1.1" viewBox="-12.864 -12.864 153.728 153.728" width="600px" xmlns="http://www.w3.org/2000/svg" xmlns:ev="http://www.w3.org/2001/xml-events" xmlns:xlink="http://www.w3.org/1999/xlink">
	<defs/>
	<path d="M 0.0,0.0 L 128.0,0.0 L 128.0,128.0 L 0.0,128.0 L 0.0,0.0" fill="#FCFCFC"/>
	<path d="M 64.0,16.0 L 77.0,16.0 L 73.0,26.0 L 73.0,37.0 L 78.0,47.0 L 84.0,52.0 L 92.0,55.0 L 101.0,55.0 L 112.0,51.0 L 112.0,64.0 L 107.0,76.0 L 101.0,84.0 L 94.0,90.0 L 86.0,94.0 L 79.0,96.0 L 60.0,96.0 L 60.0,88.0 L 78.0,87.0 L 88.0,83.0 L 95.0,78.0 L 101.0,68.0 L 102.0,64.0 L 89.0,64.0 L 80.0,60.0 L 72.0,54.0 L 66.0,44.0 L 64.0,39.0 L 64.0,26.0 L 57.0,28.0 L 48.0,35.0 L 43.0,43.0 L 41.0,49.0 L 40.0,56.0 L 53.0,56.0 L 53.0,64.0 L 11.0,64.0 L 11.0,56.0 L 32.0,56.0 L 32.0,48.0 L 36.0,37.0 L 43.0,28.0 L 50.0,22.0 L 60.0,17.0 L 64.0,16.0" fill="#060606"/>
	<path d="M 31.0,72.0 L 71.0,72.0 L 71.0,80.0 L 31.0,80.0 L 31.0,72.0" fill="#030303"/>
	<path d="M 14.0,88.0 L 50.0,88.0 L 50.0,96.0 L 14.0,96.0 L 14.0,88.0" fill="#000000"/>
</svg>
