<?xml version="1.0" ?>
<svg baseProfile="full" height="600px" version="1.1" viewBox="-20.1 -20.1 240.2 240.2" width="600px" xmlns="http://www.w3.org/2000/svg" xmlns:ev="http://www.w3.org/2001/xml-events" xmlns:xlink="http://www.w3.org/1999/xlink">
	<defs/>
	<path d="M 0.0,0.0 L 200.0,0.0 L 200.0,200.0 L 0.0,200.0 L 0.0,0.0" fill="#FDFDFD"/>
	<path d="M 21.0,61.0 L 179.0,61.0 L 180.0,63.0 L 180.0,174.0 L 179.0,176.0 L 21.0,176.0 L 20.0,174.0 L 20.0,63.0 L 21.0,61.0" fill="#FDFDFD"/>
	<path d="M 20.0,16.0 L 61.0,16.0 L 68.0,20.0 L 75.0,30.0 L 75.0,32.0 L 179.0,32.0 L 185.0,35.0 L 188.0,40.0 L 188.0,176.0 L 185.0,181.0 L 179.0,185.0 L 21.0,185.0 L 15.0,181.0 L 12.0,176.0 L 12.0,24.0 L 15.0,19.0 L 20.0,16.0 M 21.0,61.0 L 20.0,63.0 L 20.0,174.0 L 21.0,176.0 L 179.0,176.0 L 180.0,174.0 L 180.0,63.0 L 179.0,61.0 L 21.0,61.0" fill="#0D0D0D"/>
	<path d="M 22.0,24.0 L 61.0,24.0 L 68.0,35.0 L 74.0,39.0 L 178.0,40.0 L 180.0,42.0 L 180.0,53.0 L 20.0,53.0 L 20.0,26.0 L 22.0,24.0" fill="#FDFDFD"/>
</svg>
