<?xml version="1.0" ?>
<svg baseProfile="full" height="600px" version="1.1" viewBox="-20.1 -20.1 240.2 240.2" width="600px" xmlns="http://www.w3.org/2000/svg" xmlns:ev="http://www.w3.org/2001/xml-events" xmlns:xlink="http://www.w3.org/1999/xlink">
	<defs/>
	<path d="M 0.0,0.0 L 200.0,0.0 L 200.0,200.0 L 0.0,200.0 L 0.0,0.0" fill="#070707"/>
	<path d="M 13.0,80.0 L 187.0,80.0 L 189.0,81.0 L 189.0,93.0 L 185.0,128.0 L 181.0,168.0 L 179.0,176.0 L 21.0,176.0 L 19.0,169.0 L 16.0,140.0 L 11.0,91.0 L 11.0,82.0 L 13.0,80.0" fill="#FDFDFD"/>
	<path d="M 0.0,0.0 L 200.0,0.0 L 200.0,200.0 L 0.0,200.0 L 0.0,0.0 M 20.0,16.0 L 15.0,19.0 L 12.0,24.0 L 12.0,73.0 L 7.0,74.0 L 3.0,79.0 L 3.0,92.0 L 5.0,113.0 L 9.0,148.0 L 11.0,170.0 L 13.0,179.0 L 19.0,184.0 L 21.0,185.0 L 179.0,185.0 L 185.0,181.0 L 188.0,176.0 L 193.0,133.0 L 197.0,92.0 L 197.0,79.0 L 193.0,74.0 L 188.0,73.0 L 188.0,40.0 L 185.0,35.0 L 179.0,32.0 L 129.0,31.0 L 115.0,17.0 L 113.0,16.0 L 20.0,16.0" fill="#FCFCFC"/>
	<path d="M 52.0,24.0 L 108.0,24.0 L 109.0,70.0 L 110.0,72.0 L 52.0,72.0 L 52.0,24.0" fill="#FDFDFD"/>
	<path d="M 22.0,24.0 L 44.0,24.0 L 44.0,72.0 L 20.0,72.0 L 20.0,26.0 L 22.0,24.0" fill="#FDFDFD"/>
	<path d="M 138.0,40.0 L 178.0,40.0 L 180.0,42.0 L 180.0,72.0 L 164.0,72.0 L 162.0,65.0 L 138.0,41.0 L 138.0,40.0" fill="#FBFBFB"/>
	<path d="M 116.0,30.0 L 123.0,36.0 L 150.0,63.0 L 150.0,64.0 L 116.0,64.0 L 116.0,30.0" fill="#F8F8F8"/>
</svg>
