<?xml version="1.0" ?>
<svg baseProfile="full" height="600px" version="1.1" viewBox="-16.08 -16.08 192.16 192.16" width="600px" xmlns="http://www.w3.org/2000/svg" xmlns:ev="http://www.w3.org/2001/xml-events" xmlns:xlink="http://www.w3.org/1999/xlink">
	<defs/>
	<path d="M 0.0,0.0 L 160.0,0.0 L 160.0,160.0 L 0.0,160.0 L 0.0,0.0" fill="#F3CC83"/>
	<path d="M 0.0,0.0 L 160.0,0.0 L 160.0,160.0 L 0.0,160.0 L 0.0,0.0 M 4.0,16.0 L 4.0,144.0 L 144.0,144.0 L 153.0,90.0 L 159.0,53.0 L 159.0,47.0 L 144.0,47.0 L 144.0,28.0 L 60.0,27.0 L 49.0,16.0 L 4.0,16.0" fill="#FDFDFD"/>
	<path d="M 4.0,16.0 L 49.0,16.0 L 60.0,27.0 L 144.0,28.0 L 144.0,47.0 L 159.0,47.0 L 158.0,59.0 L 148.0,119.0 L 144.0,144.0 L 4.0,144.0 L 4.0,16.0 M 74.0,51.0 L 67.0,58.0 L 23.0,59.0 L 17.0,90.0 L 9.0,134.0 L 9.0,140.0 L 140.0,140.0 L 142.0,131.0 L 151.0,76.0 L 154.0,57.0 L 154.0,51.0 L 74.0,51.0" fill="#D8AE64"/>
	<path d="M 4.0,16.0 L 49.0,16.0 L 60.0,27.0 L 144.0,28.0 L 144.0,47.0 L 159.0,47.0 L 158.0,59.0 L 148.0,119.0 L 144.0,144.0 L 4.0,144.0 L 4.0,16.0 M 8.0,20.0 L 8.0,118.0 L 9.0,118.0 L 14.0,89.0 L 17.0,74.0 L 20.0,55.0 L 65.0,55.0 L 73.0,48.0 L 140.0,47.0 L 140.0,32.0 L 58.0,31.0 L 47.0,20.0 L 8.0,20.0 M 74.0,51.0 L 67.0,58.0 L 23.0,59.0 L 17.0,90.0 L 9.0,134.0 L 9.0,140.0 L 140.0,140.0 L 142.0,131.0 L 151.0,76.0 L 154.0,57.0 L 154.0,51.0 L 74.0,51.0" fill="#987C46"/>
</svg>
