<?xml version="1.0" ?>
<svg baseProfile="full" height="600px" version="1.1" viewBox="-16.08 -16.08 192.16 192.16" width="600px" xmlns="http://www.w3.org/2000/svg" xmlns:ev="http://www.w3.org/2001/xml-events" xmlns:xlink="http://www.w3.org/1999/xlink">
	<defs/>
	<path d="M 0.0,0.0 L 160.0,0.0 L 160.0,160.0 L 0.0,160.0 L 0.0,0.0" fill="#F2CC83"/>
	<path d="M 0.0,0.0 L 160.0,0.0 L 160.0,160.0 L 0.0,160.0 L 0.0,0.0 M 4.0,16.0 L 4.0,144.0 L 144.0,144.0 L 146.0,114.0 L 149.0,51.0 L 149.0,34.0 L 144.0,34.0 L 144.0,28.0 L 60.0,27.0 L 49.0,16.0 L 4.0,16.0" fill="#FEFDFD"/>
	<path d="M 4.0,16.0 L 49.0,16.0 L 60.0,27.0 L 144.0,28.0 L 144.0,34.0 L 149.0,34.0 L 149.0,51.0 L 145.0,133.0 L 144.0,144.0 L 4.0,144.0 L 4.0,16.0 M 65.0,38.0 L 56.0,45.0 L 13.0,46.0 L 9.0,112.0 L 8.0,140.0 L 140.0,140.0 L 142.0,113.0 L 144.0,67.0 L 145.0,52.0 L 145.0,38.0 L 65.0,38.0" fill="#997D47"/>
	<path d="M 8.0,20.0 L 47.0,20.0 L 58.0,31.0 L 140.0,32.0 L 140.0,34.0 L 64.0,35.0 L 55.0,42.0 L 9.0,42.0 L 9.0,52.0 L 8.0,52.0 L 8.0,20.0" fill="#D8AE63"/>
</svg>
