<?xml version="1.0" ?>
<svg baseProfile="full" height="600px" version="1.1" viewBox="-19.296000000000003 -19.296000000000003 230.592 230.592" width="600px" xmlns="http://www.w3.org/2000/svg" xmlns:ev="http://www.w3.org/2001/xml-events" xmlns:xlink="http://www.w3.org/1999/xlink">
	<defs/>
	<path d="M 0.0,0.0 L 192.0,0.0 L 192.0,192.0 L 0.0,192.0 L 0.0,0.0" fill="#FFC927"/>
	<path d="M 0.0,0.0 L 192.0,0.0 L 192.0,192.0 L 0.0,192.0 L 0.0,0.0 M 27.0,32.0 L 21.0,36.0 L 17.0,41.0 L 16.0,43.0 L 16.0,149.0 L 20.0,155.0 L 25.0,159.0 L 27.0,160.0 L 164.0,160.0 L 170.0,157.0 L 175.0,151.0 L 176.0,148.0 L 176.0,59.0 L 172.0,53.0 L 167.0,49.0 L 165.0,48.0 L 88.0,47.0 L 73.0,32.0 L 27.0,32.0" fill="#FFFEFD"/>
	<path d="M 27.0,32.0 L 73.0,32.0 L 87.0,46.0 L 87.0,48.0 L 27.0,49.0 L 21.0,53.0 L 17.0,59.0 L 16.0,59.0 L 16.0,43.0 L 20.0,37.0 L 25.0,33.0 L 27.0,32.0" fill="#FFA103"/>
</svg>
