<?xml version="1.0" ?>
<svg baseProfile="full" height="600px" version="1.1" viewBox="-16.08 -16.08 192.16 192.16" width="600px" xmlns="http://www.w3.org/2000/svg" xmlns:ev="http://www.w3.org/2001/xml-events" xmlns:xlink="http://www.w3.org/1999/xlink">
	<defs/>
	<path d="M 0.0,0.0 L 160.0,0.0 L 160.0,160.0 L 0.0,160.0 L 0.0,0.0" fill="#F3CC83"/>
	<path d="M 0.0,0.0 L 160.0,0.0 L 160.0,160.0 L 0.0,160.0 L 0.0,0.0 M 4.0,16.0 L 4.0,144.0 L 144.0,144.0 L 148.0,96.0 L 152.0,44.0 L 152.0,38.0 L 144.0,38.0 L 144.0,28.0 L 60.0,27.0 L 49.0,16.0 L 4.0,16.0" fill="#FDFDFD"/>
	<path d="M 4.0,16.0 L 49.0,16.0 L 60.0,27.0 L 144.0,28.0 L 144.0,38.0 L 152.0,38.0 L 151.0,55.0 L 145.0,135.0 L 144.0,144.0 L 4.0,144.0 L 4.0,16.0 M 68.0,42.0 L 59.0,49.0 L 16.0,50.0 L 13.0,76.0 L 9.0,126.0 L 9.0,140.0 L 140.0,140.0 L 142.0,121.0 L 147.0,56.0 L 147.0,42.0 L 68.0,42.0" fill="#987C46"/>
	<path d="M 8.0,20.0 L 47.0,20.0 L 58.0,31.0 L 140.0,32.0 L 140.0,38.0 L 66.0,39.0 L 57.0,46.0 L 12.0,46.0 L 12.0,55.0 L 9.0,92.0 L 8.0,92.0 L 8.0,20.0" fill="#D8AE63"/>
</svg>
