<?xml version="1.0" ?>
<svg baseProfile="full" height="600px" version="1.1" viewBox="-16.08 -16.08 192.16 192.16" width="600px" xmlns="http://www.w3.org/2000/svg" xmlns:ev="http://www.w3.org/2001/xml-events" xmlns:xlink="http://www.w3.org/1999/xlink">
	<defs/>
	<path d="M 0.0,0.0 L 160.0,0.0 L 160.0,160.0 L 0.0,160.0 L 0.0,0.0" fill="#F3CC83"/>
	<path d="M 0.0,0.0 L 160.0,0.0 L 160.0,160.0 L 0.0,160.0 L 0.0,0.0 M 4.0,16.0 L 4.0,144.0 L 144.0,144.0 L 146.0,132.0 L 150.0,104.0 L 152.0,92.0 L 156.0,64.0 L 158.0,54.0 L 158.0,46.0 L 144.0,46.0 L 144.0,28.0 L 60.0,27.0 L 49.0,16.0 L 4.0,16.0" fill="#FDFDFD"/>
	<path d="M 4.0,16.0 L 49.0,16.0 L 60.0,27.0 L 144.0,28.0 L 144.0,46.0 L 158.0,46.0 L 158.0,54.0 L 154.0,78.0 L 151.0,101.0 L 148.0,118.0 L 145.0,141.0 L 144.0,144.0 L 4.0,144.0 L 4.0,16.0 M 73.0,50.0 L 65.0,57.0 L 22.0,58.0 L 15.0,98.0 L 9.0,134.0 L 9.0,140.0 L 141.0,140.0 L 146.0,103.0 L 148.0,91.0 L 152.0,63.0 L 153.0,60.0 L 153.0,50.0 L 73.0,50.0" fill="#D8AE64"/>
	<path d="M 4.0,16.0 L 49.0,16.0 L 60.0,27.0 L 144.0,28.0 L 144.0,46.0 L 158.0,46.0 L 158.0,54.0 L 154.0,78.0 L 151.0,101.0 L 148.0,118.0 L 145.0,141.0 L 144.0,144.0 L 4.0,144.0 L 4.0,16.0 M 8.0,20.0 L 8.0,116.0 L 9.0,116.0 L 12.0,97.0 L 12.0,58.0 L 16.0,59.0 L 16.0,68.0 L 18.0,64.0 L 19.0,54.0 L 64.0,54.0 L 72.0,47.0 L 140.0,46.0 L 140.0,32.0 L 58.0,31.0 L 47.0,20.0 L 8.0,20.0 M 73.0,50.0 L 65.0,57.0 L 22.0,58.0 L 15.0,98.0 L 9.0,134.0 L 9.0,140.0 L 141.0,140.0 L 146.0,103.0 L 148.0,91.0 L 152.0,63.0 L 153.0,60.0 L 153.0,50.0 L 73.0,50.0" fill="#987C46"/>
	<path d="M 12.0,58.0 L 17.0,59.0 L 17.0,70.0 L 13.0,92.0 L 12.0,92.0 L 12.0,58.0" fill="#7A8B98"/>
</svg>
