<?xml version="1.0" ?>
<svg baseProfile="full" height="600px" version="1.1" viewBox="-20.1 -20.1 240.2 240.2" width="600px" xmlns="http://www.w3.org/2000/svg" xmlns:ev="http://www.w3.org/2001/xml-events" xmlns:xlink="http://www.w3.org/1999/xlink">
	<defs/>
	<path d="M 0.0,0.0 L 200.0,0.0 L 200.0,200.0 L 0.0,200.0 L 0.0,0.0" fill="#0B0B0B"/>
	<path d="M 11.0,81.0 L 189.0,81.0 L 190.0,82.0 L 190.0,96.0 L 185.0,134.0 L 181.0,169.0 L 179.0,176.0 L 21.0,176.0 L 19.0,169.0 L 16.0,142.0 L 12.0,112.0 L 9.0,87.0 L 10.0,82.0 L 11.0,81.0" fill="#FDFDFD"/>
	<path d="M 0.0,0.0 L 200.0,0.0 L 200.0,200.0 L 0.0,200.0 L 0.0,0.0 M 47.0,3.0 L 44.0,5.0 L 44.0,16.0 L 20.0,16.0 L 15.0,19.0 L 12.0,24.0 L 12.0,73.0 L 7.0,74.0 L 1.0,81.0 L 2.0,97.0 L 6.0,127.0 L 10.0,162.0 L 13.0,179.0 L 19.0,184.0 L 21.0,185.0 L 179.0,185.0 L 185.0,181.0 L 188.0,176.0 L 192.0,146.0 L 197.0,103.0 L 199.0,89.0 L 199.0,81.0 L 193.0,74.0 L 188.0,73.0 L 188.0,40.0 L 185.0,35.0 L 179.0,32.0 L 142.0,31.0 L 115.0,4.0 L 113.0,3.0 L 47.0,3.0" fill="#FDFDFD"/>
	<path d="M 52.0,12.0 L 108.0,12.0 L 109.0,59.0 L 156.0,60.0 L 156.0,73.0 L 52.0,73.0 L 52.0,12.0" fill="#FCFCFC"/>
	<path d="M 22.0,24.0 L 44.0,24.0 L 44.0,73.0 L 20.0,73.0 L 20.0,26.0 L 22.0,24.0" fill="#FCFCFC"/>
	<path d="M 151.0,40.0 L 178.0,40.0 L 180.0,42.0 L 180.0,73.0 L 164.0,73.0 L 163.0,54.0 L 156.0,46.0 L 151.0,40.0" fill="#FCFCFC"/>
	<path d="M 116.0,18.0 L 123.0,24.0 L 149.0,50.0 L 149.0,51.0 L 116.0,51.0 L 116.0,18.0" fill="#FDFDFD"/>
</svg>
