<?xml version="1.0" ?>
<svg baseProfile="full" height="600px" version="1.1" viewBox="-16.08 -16.08 192.16 192.16" width="600px" xmlns="http://www.w3.org/2000/svg" xmlns:ev="http://www.w3.org/2001/xml-events" xmlns:xlink="http://www.w3.org/1999/xlink">
	<defs/>
	<path d="M 0.0,0.0 L 160.0,0.0 L 160.0,160.0 L 0.0,160.0 L 0.0,0.0" fill="#F3CC83"/>
	<path d="M 0.0,0.0 L 160.0,0.0 L 160.0,48.0 L 144.0,48.0 L 144.0,28.0 L 60.0,28.0 L 49.0,17.0 L 4.0,16.0 L 4.0,144.0 L 144.0,144.0 L 145.0,132.0 L 151.0,98.0 L 159.0,50.0 L 160.0,50.0 L 160.0,160.0 L 0.0,160.0 L 0.0,0.0" fill="#FDFDFD"/>
	<path d="M 4.0,16.0 L 49.0,16.0 L 60.0,27.0 L 144.0,28.0 L 144.0,48.0 L 160.0,48.0 L 155.0,81.0 L 149.0,115.0 L 144.0,144.0 L 4.0,144.0 L 4.0,16.0 M 75.0,52.0 L 67.0,59.0 L 24.0,60.0 L 20.0,77.0 L 13.0,114.0 L 9.0,136.0 L 9.0,140.0 L 140.0,140.0 L 142.0,133.0 L 154.0,61.0 L 155.0,52.0 L 75.0,52.0" fill="#987C46"/>
	<path d="M 8.0,20.0 L 47.0,20.0 L 58.0,31.0 L 140.0,32.0 L 140.0,37.0 L 12.0,37.0 L 12.0,103.0 L 9.0,120.0 L 8.0,120.0 L 8.0,20.0" fill="#D5AD65"/>
	<path d="M 16.0,41.0 L 140.0,41.0 L 140.0,48.0 L 73.0,49.0 L 66.0,56.0 L 20.0,56.0 L 19.0,66.0 L 17.0,76.0 L 16.0,76.0 L 16.0,41.0" fill="#FDFDFC"/>
	<path d="M 12.0,37.0 L 144.0,37.0 L 144.0,48.0 L 140.0,48.0 L 140.0,41.0 L 16.0,41.0 L 17.0,80.0 L 13.0,99.0 L 12.0,99.0 L 12.0,37.0" fill="#8092A1"/>
</svg>
