<?xml version="1.0" ?>
<svg baseProfile="full" height="600px" version="1.1" viewBox="-19.296000000000003 -19.296000000000003 230.592 230.592" width="600px" xmlns="http://www.w3.org/2000/svg" xmlns:ev="http://www.w3.org/2001/xml-events" xmlns:xlink="http://www.w3.org/1999/xlink">
	<defs/>
	<path d="M 0.0,0.0 L 192.0,0.0 L 192.0,192.0 L 0.0,192.0 L 0.0,0.0" fill="#FFC927"/>
	<path d="M 0.0,0.0 L 192.0,0.0 L 192.0,192.0 L 0.0,192.0 L 0.0,0.0 M 27.0,32.0 L 21.0,36.0 L 17.0,41.0 L 16.0,43.0 L 16.0,149.0 L 20.0,155.0 L 25.0,159.0 L 27.0,160.0 L 164.0,160.0 L 170.0,156.0 L 174.0,151.0 L 175.0,149.0 L 178.0,118.0 L 180.0,84.0 L 180.0,70.0 L 177.0,66.0 L 175.0,57.0 L 169.0,50.0 L 163.0,48.0 L 88.0,47.0 L 73.0,32.0 L 27.0,32.0" fill="#FFFEFD"/>
	<path d="M 27.0,32.0 L 73.0,32.0 L 88.0,47.0 L 163.0,48.0 L 170.0,51.0 L 175.0,57.0 L 176.0,64.0 L 171.0,62.0 L 168.0,61.0 L 43.0,61.0 L 35.0,65.0 L 32.0,70.0 L 30.0,86.0 L 26.0,136.0 L 25.0,145.0 L 25.0,154.0 L 26.0,158.0 L 22.0,157.0 L 17.0,151.0 L 16.0,149.0 L 16.0,43.0 L 20.0,37.0 L 25.0,33.0 L 27.0,32.0" fill="#FFA101"/>
</svg>
