<?xml version="1.0" ?>
<svg baseProfile="full" height="600px" version="1.1" viewBox="-16.08 -16.08 192.16 192.16" width="600px" xmlns="http://www.w3.org/2000/svg" xmlns:ev="http://www.w3.org/2001/xml-events" xmlns:xlink="http://www.w3.org/1999/xlink">
	<defs/>
	<path d="M 0.0,0.0 L 160.0,0.0 L 160.0,160.0 L 0.0,160.0 L 0.0,0.0" fill="#FDFDFE"/>
	<path d="M 0.0,0.0 L 49.0,0.0 L 52.0,7.0 L 58.0,28.0 L 65.0,52.0 L 72.0,76.0 L 72.0,82.0 L 67.0,99.0 L 61.0,122.0 L 57.0,135.0 L 51.0,157.0 L 50.0,160.0 L 0.0,160.0 L 0.0,0.0" fill="#FDFDFE"/>
	<path d="M 46.0,0.0 L 50.0,1.0 L 57.0,26.0 L 61.0,38.0 L 67.0,59.0 L 72.0,76.0 L 72.0,82.0 L 67.0,99.0 L 61.0,122.0 L 57.0,135.0 L 51.0,157.0 L 50.0,160.0 L 42.0,159.0 L 35.0,157.0 L 36.0,148.0 L 42.0,126.0 L 48.0,104.0 L 53.0,87.0 L 53.0,78.0 L 48.0,57.0 L 44.0,42.0 L 39.0,23.0 L 34.0,4.0 L 36.0,2.0 L 46.0,0.0" fill="#5781BA"/>
	<path d="M 42.0,5.0 L 47.0,5.0 L 55.0,33.0 L 62.0,56.0 L 68.0,78.0 L 66.0,87.0 L 60.0,109.0 L 50.0,145.0 L 47.0,155.0 L 40.0,154.0 L 41.0,145.0 L 46.0,127.0 L 52.0,105.0 L 58.0,83.0 L 57.0,77.0 L 51.0,53.0 L 44.0,26.0 L 39.0,7.0 L 42.0,5.0" fill="#87B3EC"/>
</svg>
