<?xml version="1.0" ?>
<svg baseProfile="full" height="600px" version="1.1" viewBox="-19.296000000000003 -19.296000000000003 230.592 230.592" width="600px" xmlns="http://www.w3.org/2000/svg" xmlns:ev="http://www.w3.org/2001/xml-events" xmlns:xlink="http://www.w3.org/1999/xlink">
	<defs/>
	<path d="M 0.0,0.0 L 192.0,0.0 L 192.0,192.0 L 0.0,192.0 L 0.0,0.0" fill="#FDFEFE"/>
	<path d="M 69.0,22.0 L 73.0,24.0 L 86.0,37.0 L 94.0,44.0 L 105.0,55.0 L 113.0,62.0 L 125.0,74.0 L 133.0,81.0 L 144.0,92.0 L 148.0,95.0 L 146.0,99.0 L 138.0,106.0 L 126.0,118.0 L 118.0,125.0 L 107.0,136.0 L 99.0,143.0 L 86.0,156.0 L 78.0,163.0 L 71.0,170.0 L 67.0,168.0 L 57.0,158.0 L 61.0,153.0 L 69.0,146.0 L 81.0,134.0 L 89.0,127.0 L 101.0,115.0 L 109.0,108.0 L 120.0,97.0 L 118.0,93.0 L 104.0,79.0 L 96.0,72.0 L 84.0,60.0 L 76.0,53.0 L 64.0,41.0 L 57.0,35.0 L 63.0,28.0 L 69.0,22.0" fill="#2497F3"/>
</svg>
