<?xml version="1.0" ?>
<svg baseProfile="full" height="600px" version="1.1" viewBox="-16.08 -16.08 192.16 192.16" width="600px" xmlns="http://www.w3.org/2000/svg" xmlns:ev="http://www.w3.org/2001/xml-events" xmlns:xlink="http://www.w3.org/1999/xlink">
	<defs/>
	<path d="M 0.0,0.0 L 160.0,0.0 L 160.0,160.0 L 0.0,160.0 L 0.0,0.0" fill="#FDFDFE"/>
	<path d="M 77.0,3.0 L 82.0,5.0 L 91.0,10.0 L 90.0,14.0 L 76.0,42.0 L 66.0,61.0 L 57.0,78.0 L 59.0,84.0 L 79.0,123.0 L 92.0,149.0 L 89.0,152.0 L 80.0,157.0 L 77.0,156.0 L 61.0,127.0 L 47.0,103.0 L 36.0,83.0 L 35.0,80.0 L 52.0,48.0 L 64.0,26.0 L 76.0,4.0 L 77.0,3.0" fill="#88B4ED"/>
	<path d="M 77.0,3.0 L 82.0,5.0 L 91.0,10.0 L 90.0,14.0 L 76.0,42.0 L 66.0,61.0 L 57.0,78.0 L 59.0,84.0 L 79.0,123.0 L 92.0,149.0 L 89.0,152.0 L 80.0,157.0 L 77.0,156.0 L 61.0,127.0 L 47.0,103.0 L 36.0,83.0 L 35.0,80.0 L 52.0,48.0 L 64.0,26.0 L 76.0,4.0 L 77.0,3.0 M 78.0,9.0 L 66.0,31.0 L 48.0,65.0 L 40.0,79.0 L 41.0,84.0 L 54.0,107.0 L 66.0,128.0 L 79.0,151.0 L 84.0,150.0 L 86.0,149.0 L 85.0,144.0 L 74.0,122.0 L 64.0,103.0 L 53.0,81.0 L 54.0,75.0 L 64.0,56.0 L 72.0,41.0 L 80.0,25.0 L 86.0,12.0 L 81.0,9.0 L 78.0,9.0" fill="#5580B9"/>
</svg>
