<?xml version="1.0" ?>
<svg baseProfile="full" height="600px" version="1.1" viewBox="-20.1 -20.1 240.2 240.2" width="600px" xmlns="http://www.w3.org/2000/svg" xmlns:ev="http://www.w3.org/2001/xml-events" xmlns:xlink="http://www.w3.org/1999/xlink">
	<defs/>
	<path d="M 0.0,0.0 L 200.0,0.0 L 200.0,200.0 L 0.0,200.0 L 0.0,0.0" fill="#FBFBFB"/>
	<path d="M 0.0,0.0 L 200.0,0.0 L 200.0,200.0 L 0.0,200.0 L 0.0,0.0 M 88.0,8.0 L 71.0,12.0 L 55.0,19.0 L 42.0,28.0 L 31.0,38.0 L 21.0,52.0 L 13.0,68.0 L 9.0,83.0 L 8.0,89.0 L 8.0,111.0 L 11.0,126.0 L 19.0,145.0 L 28.0,158.0 L 37.0,168.0 L 50.0,178.0 L 66.0,186.0 L 82.0,191.0 L 89.0,192.0 L 109.0,192.0 L 125.0,189.0 L 141.0,183.0 L 154.0,175.0 L 167.0,164.0 L 178.0,150.0 L 186.0,134.0 L 191.0,117.0 L 192.0,110.0 L 192.0,89.0 L 189.0,74.0 L 183.0,59.0 L 175.0,46.0 L 164.0,33.0 L 150.0,22.0 L 134.0,14.0 L 122.0,10.0 L 109.0,8.0 L 88.0,8.0" fill="#FCFCFC"/>
	<path d="M 88.0,8.0 L 109.0,8.0 L 126.0,11.0 L 145.0,19.0 L 158.0,28.0 L 168.0,37.0 L 178.0,50.0 L 186.0,66.0 L 191.0,82.0 L 192.0,89.0 L 192.0,110.0 L 189.0,125.0 L 183.0,141.0 L 175.0,154.0 L 164.0,167.0 L 150.0,178.0 L 134.0,186.0 L 117.0,191.0 L 109.0,192.0 L 89.0,192.0 L 74.0,189.0 L 59.0,183.0 L 46.0,175.0 L 33.0,164.0 L 22.0,150.0 L 14.0,134.0 L 10.0,122.0 L 8.0,111.0 L 8.0,89.0 L 12.0,71.0 L 19.0,55.0 L 28.0,42.0 L 37.0,32.0 L 50.0,22.0 L 66.0,14.0 L 82.0,9.0 L 88.0,8.0 M 104.0,16.0 L 103.0,102.0 L 102.0,103.0 L 16.0,104.0 L 17.0,114.0 L 22.0,132.0 L 23.0,134.0 L 30.0,133.0 L 31.0,138.0 L 27.0,140.0 L 29.0,145.0 L 37.0,156.0 L 46.0,165.0 L 58.0,173.0 L 60.0,173.0 L 62.0,169.0 L 67.0,170.0 L 66.0,177.0 L 73.0,180.0 L 83.0,183.0 L 96.0,184.0 L 98.0,181.0 L 103.0,182.0 L 104.0,184.0 L 119.0,182.0 L 132.0,178.0 L 134.0,177.0 L 133.0,170.0 L 138.0,169.0 L 140.0,173.0 L 145.0,171.0 L 156.0,163.0 L 165.0,154.0 L 173.0,142.0 L 173.0,140.0 L 169.0,138.0 L 170.0,133.0 L 177.0,134.0 L 182.0,119.0 L 184.0,109.0 L 184.0,104.0 L 181.0,102.0 L 182.0,97.0 L 184.0,96.0 L 183.0,85.0 L 179.0,70.0 L 177.0,66.0 L 170.0,67.0 L 169.0,62.0 L 173.0,60.0 L 171.0,55.0 L 163.0,44.0 L 154.0,35.0 L 142.0,27.0 L 140.0,27.0 L 138.0,31.0 L 133.0,30.0 L 134.0,23.0 L 119.0,18.0 L 108.0,16.0 L 104.0,16.0" fill="#070707"/>
	<path d="M 93.0,16.0 L 96.0,16.0 L 96.0,96.0 L 16.0,96.0 L 17.0,83.0 L 23.0,65.0 L 32.0,50.0 L 43.0,38.0 L 53.0,30.0 L 65.0,23.0 L 83.0,17.0 L 93.0,16.0" fill="#FCFCFC"/>
	<path d="M 110.0,168.0 L 115.0,169.0 L 116.0,174.0 L 114.0,176.0 L 109.0,175.0 L 108.0,170.0 L 110.0,168.0" fill="#0C0C0C"/>
	<path d="M 86.0,168.0 L 91.0,169.0 L 92.0,174.0 L 90.0,176.0 L 85.0,175.0 L 84.0,170.0 L 86.0,168.0" fill="#0C0C0C"/>
	<path d="M 146.0,156.0 L 151.0,157.0 L 152.0,162.0 L 150.0,164.0 L 145.0,163.0 L 144.0,158.0 L 146.0,156.0" fill="#0C0C0C"/>
	<path d="M 122.0,156.0 L 127.0,157.0 L 128.0,162.0 L 126.0,164.0 L 121.0,163.0 L 120.0,158.0 L 122.0,156.0" fill="#0C0C0C"/>
	<path d="M 98.0,156.0 L 103.0,157.0 L 104.0,162.0 L 102.0,164.0 L 97.0,163.0 L 96.0,158.0 L 98.0,156.0" fill="#0C0C0C"/>
	<path d="M 74.0,156.0 L 79.0,157.0 L 80.0,162.0 L 78.0,164.0 L 73.0,163.0 L 72.0,158.0 L 74.0,156.0" fill="#0C0C0C"/>
	<path d="M 50.0,156.0 L 55.0,157.0 L 56.0,162.0 L 54.0,164.0 L 49.0,163.0 L 48.0,158.0 L 50.0,156.0" fill="#0C0C0C"/>
	<path d="M 158.0,144.0 L 163.0,145.0 L 164.0,150.0 L 162.0,152.0 L 157.0,151.0 L 156.0,146.0 L 158.0,144.0" fill="#0C0C0C"/>
	<path d="M 134.0,144.0 L 139.0,145.0 L 140.0,150.0 L 138.0,152.0 L 133.0,151.0 L 132.0,146.0 L 134.0,144.0" fill="#0C0C0C"/>
	<path d="M 110.0,144.0 L 115.0,145.0 L 116.0,150.0 L 114.0,152.0 L 109.0,151.0 L 108.0,146.0 L 110.0,144.0" fill="#0C0C0C"/>
	<path d="M 86.0,144.0 L 91.0,145.0 L 92.0,150.0 L 90.0,152.0 L 85.0,151.0 L 84.0,146.0 L 86.0,144.0" fill="#0C0C0C"/>
	<path d="M 62.0,144.0 L 67.0,145.0 L 68.0,150.0 L 66.0,152.0 L 61.0,151.0 L 60.0,146.0 L 62.0,144.0" fill="#0C0C0C"/>
	<path d="M 38.0,144.0 L 43.0,145.0 L 44.0,150.0 L 42.0,152.0 L 37.0,151.0 L 36.0,146.0 L 38.0,144.0" fill="#0C0C0C"/>
	<path d="M 146.0,132.0 L 151.0,133.0 L 152.0,138.0 L 150.0,140.0 L 145.0,139.0 L 144.0,134.0 L 146.0,132.0" fill="#0C0C0C"/>
	<path d="M 122.0,132.0 L 127.0,133.0 L 128.0,138.0 L 126.0,140.0 L 121.0,139.0 L 120.0,134.0 L 122.0,132.0" fill="#0C0C0C"/>
	<path d="M 98.0,132.0 L 103.0,133.0 L 104.0,138.0 L 102.0,140.0 L 97.0,139.0 L 96.0,134.0 L 98.0,132.0" fill="#0C0C0C"/>
	<path d="M 74.0,132.0 L 79.0,133.0 L 80.0,138.0 L 78.0,140.0 L 73.0,139.0 L 72.0,134.0 L 74.0,132.0" fill="#0C0C0C"/>
	<path d="M 50.0,132.0 L 55.0,133.0 L 56.0,138.0 L 54.0,140.0 L 49.0,139.0 L 48.0,134.0 L 50.0,132.0" fill="#0C0C0C"/>
	<path d="M 158.0,120.0 L 163.0,121.0 L 164.0,126.0 L 162.0,128.0 L 157.0,127.0 L 156.0,122.0 L 158.0,120.0" fill="#0C0C0C"/>
	<path d="M 134.0,120.0 L 139.0,121.0 L 140.0,126.0 L 138.0,128.0 L 133.0,127.0 L 132.0,122.0 L 134.0,120.0" fill="#0C0C0C"/>
	<path d="M 110.0,120.0 L 115.0,121.0 L 116.0,126.0 L 114.0,128.0 L 109.0,127.0 L 108.0,122.0 L 110.0,120.0" fill="#0C0C0C"/>
	<path d="M 86.0,120.0 L 91.0,121.0 L 92.0,126.0 L 90.0,128.0 L 85.0,127.0 L 84.0,122.0 L 86.0,120.0" fill="#0C0C0C"/>
	<path d="M 62.0,120.0 L 67.0,121.0 L 68.0,126.0 L 66.0,128.0 L 61.0,127.0 L 60.0,122.0 L 62.0,120.0" fill="#0C0C0C"/>
	<path d="M 38.0,120.0 L 43.0,121.0 L 44.0,126.0 L 42.0,128.0 L 37.0,127.0 L 36.0,122.0 L 38.0,120.0" fill="#0C0C0C"/>
	<path d="M 170.0,108.0 L 175.0,109.0 L 176.0,114.0 L 174.0,116.0 L 169.0,115.0 L 168.0,110.0 L 170.0,108.0" fill="#0C0C0C"/>
	<path d="M 146.0,108.0 L 151.0,109.0 L 152.0,114.0 L 150.0,116.0 L 145.0,115.0 L 144.0,110.0 L 146.0,108.0" fill="#0C0C0C"/>
	<path d="M 122.0,108.0 L 127.0,109.0 L 128.0,114.0 L 126.0,116.0 L 121.0,115.0 L 120.0,110.0 L 122.0,108.0" fill="#0C0C0C"/>
	<path d="M 98.0,108.0 L 103.0,109.0 L 104.0,114.0 L 102.0,116.0 L 97.0,115.0 L 96.0,110.0 L 98.0,108.0" fill="#0C0C0C"/>
	<path d="M 74.0,108.0 L 79.0,109.0 L 80.0,114.0 L 78.0,116.0 L 73.0,115.0 L 72.0,110.0 L 74.0,108.0" fill="#0C0C0C"/>
	<path d="M 50.0,108.0 L 55.0,109.0 L 56.0,114.0 L 54.0,116.0 L 49.0,115.0 L 48.0,110.0 L 50.0,108.0" fill="#0C0C0C"/>
	<path d="M 26.0,108.0 L 31.0,109.0 L 32.0,114.0 L 30.0,116.0 L 25.0,115.0 L 24.0,110.0 L 26.0,108.0" fill="#0C0C0C"/>
	<path d="M 158.0,96.0 L 163.0,97.0 L 164.0,102.0 L 162.0,104.0 L 157.0,103.0 L 156.0,98.0 L 158.0,96.0" fill="#0C0C0C"/>
	<path d="M 134.0,96.0 L 139.0,97.0 L 140.0,102.0 L 138.0,104.0 L 133.0,103.0 L 132.0,98.0 L 134.0,96.0" fill="#0C0C0C"/>
	<path d="M 110.0,96.0 L 115.0,97.0 L 116.0,102.0 L 114.0,104.0 L 109.0,103.0 L 108.0,98.0 L 110.0,96.0" fill="#0C0C0C"/>
	<path d="M 170.0,84.0 L 175.0,85.0 L 176.0,90.0 L 174.0,92.0 L 169.0,91.0 L 168.0,86.0 L 170.0,84.0" fill="#0C0C0C"/>
	<path d="M 146.0,84.0 L 151.0,85.0 L 152.0,90.0 L 150.0,92.0 L 145.0,91.0 L 144.0,86.0 L 146.0,84.0" fill="#0C0C0C"/>
	<path d="M 122.0,84.0 L 127.0,85.0 L 128.0,90.0 L 126.0,92.0 L 121.0,91.0 L 120.0,86.0 L 122.0,84.0" fill="#0C0C0C"/>
	<path d="M 158.0,72.0 L 163.0,73.0 L 164.0,78.0 L 162.0,80.0 L 157.0,79.0 L 156.0,74.0 L 158.0,72.0" fill="#0C0C0C"/>
	<path d="M 134.0,72.0 L 139.0,73.0 L 140.0,78.0 L 138.0,80.0 L 133.0,79.0 L 132.0,74.0 L 134.0,72.0" fill="#0C0C0C"/>
	<path d="M 110.0,72.0 L 115.0,73.0 L 116.0,78.0 L 114.0,80.0 L 109.0,79.0 L 108.0,74.0 L 110.0,72.0" fill="#0C0C0C"/>
	<path d="M 146.0,60.0 L 151.0,61.0 L 152.0,66.0 L 150.0,68.0 L 145.0,67.0 L 144.0,62.0 L 146.0,60.0" fill="#0C0C0C"/>
	<path d="M 122.0,60.0 L 127.0,61.0 L 128.0,66.0 L 126.0,68.0 L 121.0,67.0 L 120.0,62.0 L 122.0,60.0" fill="#0C0C0C"/>
	<path d="M 158.0,48.0 L 163.0,49.0 L 164.0,54.0 L 162.0,56.0 L 157.0,55.0 L 156.0,50.0 L 158.0,48.0" fill="#0C0C0C"/>
	<path d="M 134.0,48.0 L 139.0,49.0 L 140.0,54.0 L 138.0,56.0 L 133.0,55.0 L 132.0,50.0 L 134.0,48.0" fill="#0C0C0C"/>
	<path d="M 110.0,48.0 L 115.0,49.0 L 116.0,54.0 L 114.0,56.0 L 109.0,55.0 L 108.0,50.0 L 110.0,48.0" fill="#0C0C0C"/>
	<path d="M 146.0,36.0 L 151.0,37.0 L 152.0,42.0 L 150.0,44.0 L 145.0,43.0 L 144.0,38.0 L 146.0,36.0" fill="#0C0C0C"/>
	<path d="M 122.0,36.0 L 127.0,37.0 L 128.0,42.0 L 126.0,44.0 L 121.0,43.0 L 120.0,38.0 L 122.0,36.0" fill="#0C0C0C"/>
	<path d="M 110.0,24.0 L 115.0,25.0 L 116.0,30.0 L 114.0,32.0 L 109.0,31.0 L 108.0,26.0 L 110.0,24.0" fill="#0C0C0C"/>
</svg>
