<?xml version="1.0" ?>
<svg baseProfile="full" height="600px" version="1.1" viewBox="-9.648000000000001 -9.648000000000001 115.296 115.296" width="600px" xmlns="http://www.w3.org/2000/svg" xmlns:ev="http://www.w3.org/2001/xml-events" xmlns:xlink="http://www.w3.org/1999/xlink">
	<defs/>
	<path d="M 0.0,0.0 L 96.0,0.0 L 96.0,96.0 L 0.0,96.0 L 0.0,0.0" fill="#FCFCFC"/>
	<path d="M 29.0,13.0 L 37.0,13.0 L 37.0,31.0 L 33.0,36.0 L 31.0,37.0 L 13.0,37.0 L 13.0,29.0 L 29.0,29.0 L 29.0,13.0" fill="#0D0D0D"/>
	<path d="M 64.0,59.0 L 83.0,59.0 L 83.0,67.0 L 67.0,67.0 L 67.0,82.0 L 59.0,82.0 L 59.0,64.0 L 64.0,59.0" fill="#0A0A0A"/>
	<path d="M 13.0,59.0 L 31.0,59.0 L 35.0,61.0 L 37.0,64.0 L 37.0,82.0 L 29.0,82.0 L 29.0,67.0 L 13.0,67.0 L 13.0,59.0" fill="#0A0A0A"/>
	<path d="M 59.0,14.0 L 67.0,14.0 L 67.0,29.0 L 82.0,29.0 L 82.0,37.0 L 64.0,37.0 L 59.0,32.0 L 59.0,14.0" fill="#080808"/>
</svg>
