<?xml version="1.0" ?>
<svg baseProfile="full" height="600px" version="1.1" viewBox="-9.648000000000001 -9.648000000000001 115.296 115.296" width="600px" xmlns="http://www.w3.org/2000/svg" xmlns:ev="http://www.w3.org/2001/xml-events" xmlns:xlink="http://www.w3.org/1999/xlink">
	<defs/>
	<path d="M 0.0,0.0 L 96.0,0.0 L 96.0,96.0 L 0.0,96.0 L 0.0,0.0" fill="#FCFCFC"/>
	<path d="M 11.0,61.0 L 19.0,61.0 L 21.0,75.0 L 35.0,77.0 L 35.0,85.0 L 19.0,84.0 L 13.0,79.0 L 12.0,77.0 L 11.0,61.0" fill="#090909"/>
	<path d="M 30.0,11.0 L 35.0,11.0 L 35.0,19.0 L 21.0,21.0 L 19.0,35.0 L 11.0,35.0 L 12.0,19.0 L 17.0,13.0 L 19.0,12.0 L 30.0,11.0" fill="#090909"/>
	<path d="M 61.0,11.0 L 77.0,12.0 L 83.0,17.0 L 84.0,19.0 L 85.0,35.0 L 77.0,35.0 L 75.0,21.0 L 61.0,19.0 L 61.0,11.0" fill="#090909"/>
	<path d="M 77.0,61.0 L 85.0,61.0 L 85.0,69.0 L 83.0,79.0 L 79.0,83.0 L 69.0,85.0 L 61.0,85.0 L 61.0,77.0 L 75.0,75.0 L 77.0,61.0" fill="#070707"/>
</svg>
