<?xml version="1.0" ?>
<svg baseProfile="full" height="600px" version="1.1" viewBox="-12.06 -12.06 144.12 144.12" width="600px" xmlns="http://www.w3.org/2000/svg" xmlns:ev="http://www.w3.org/2001/xml-events" xmlns:xlink="http://www.w3.org/1999/xlink">
	<defs/>
	<path d="M 0.0,0.0 L 120.0,0.0 L 120.0,120.0 L 0.0,120.0 L 0.0,0.0" fill="#FCFCFC"/>
	<path d="M 18.0,76.0 L 23.0,77.0 L 24.0,82.0 L 21.0,99.0 L 28.0,97.0 L 42.0,96.0 L 44.0,98.0 L 43.0,103.0 L 37.0,105.0 L 20.0,108.0 L 14.0,108.0 L 12.0,106.0 L 13.0,93.0 L 16.0,78.0 L 18.0,76.0" fill="#0A0A0A"/>
	<path d="M 14.0,12.0 L 24.0,13.0 L 42.0,16.0 L 44.0,18.0 L 43.0,23.0 L 38.0,24.0 L 23.0,22.0 L 21.0,21.0 L 24.0,35.0 L 24.0,42.0 L 22.0,44.0 L 17.0,43.0 L 15.0,38.0 L 12.0,21.0 L 12.0,14.0 L 14.0,12.0" fill="#090909"/>
	<path d="M 96.0,13.0 L 107.0,13.0 L 108.0,14.0 L 107.0,26.0 L 104.0,42.0 L 102.0,44.0 L 97.0,43.0 L 96.0,42.0 L 97.0,29.0 L 99.0,21.0 L 86.0,24.0 L 78.0,24.0 L 76.0,22.0 L 77.0,17.0 L 81.0,15.0 L 96.0,13.0" fill="#0B0B0B"/>
	<path d="M 98.0,76.0 L 103.0,77.0 L 105.0,82.0 L 108.0,98.0 L 108.0,103.0 L 106.0,105.0 L 90.0,105.0 L 78.0,104.0 L 76.0,102.0 L 77.0,97.0 L 78.0,96.0 L 99.0,97.0 L 97.0,89.0 L 96.0,78.0 L 98.0,76.0" fill="#070707"/>
</svg>
