<?xml version="1.0" ?>
<svg baseProfile="full" height="600px" version="1.1" viewBox="-12.864 -12.864 153.728 153.728" width="600px" xmlns="http://www.w3.org/2000/svg" xmlns:ev="http://www.w3.org/2001/xml-events" xmlns:xlink="http://www.w3.org/1999/xlink">
	<defs/>
	<path d="M 0.0,0.0 L 128.0,0.0 L 128.0,128.0 L 0.0,128.0 L 0.0,0.0" fill="#FCFCFC"/>
	<path d="M 108.0,75.0 L 110.0,75.0 L 112.0,80.0 L 112.0,83.0 L 93.0,90.0 L 90.0,93.0 L 83.0,112.0 L 77.0,111.0 L 75.0,110.0 L 78.0,100.0 L 83.0,85.0 L 88.0,82.0 L 108.0,75.0" fill="#0A0A0A"/>
	<path d="M 18.0,75.0 L 28.0,78.0 L 44.0,84.0 L 48.0,94.0 L 53.0,108.0 L 53.0,110.0 L 45.0,112.0 L 37.0,91.0 L 17.0,84.0 L 16.0,80.0 L 18.0,75.0" fill="#0A0A0A"/>
	<path d="M 80.0,16.0 L 84.0,17.0 L 91.0,37.0 L 112.0,45.0 L 110.0,53.0 L 100.0,50.0 L 85.0,45.0 L 81.0,36.0 L 75.0,20.0 L 75.0,18.0 L 80.0,16.0" fill="#0A0A0A"/>
	<path d="M 45.0,16.0 L 53.0,18.0 L 50.0,28.0 L 44.0,44.0 L 20.0,53.0 L 18.0,53.0 L 16.0,45.0 L 26.0,41.0 L 37.0,37.0 L 44.0,17.0 L 45.0,16.0" fill="#0A0A0A"/>
</svg>
