<?xml version="1.0" ?>
<svg baseProfile="full" height="600px" version="1.1" viewBox="-12.06 -12.06 144.12 144.12" width="600px" xmlns="http://www.w3.org/2000/svg" xmlns:ev="http://www.w3.org/2001/xml-events" xmlns:xlink="http://www.w3.org/1999/xlink">
	<defs/>
	<path d="M 0.0,0.0 L 120.0,0.0 L 120.0,120.0 L 0.0,120.0 L 0.0,0.0" fill="#FCFCFC"/>
	<path d="M 69.0,68.0 L 91.0,68.0 L 96.0,70.0 L 97.0,75.0 L 95.0,77.0 L 82.0,77.0 L 77.0,76.0 L 77.0,95.0 L 75.0,97.0 L 70.0,96.0 L 69.0,95.0 L 68.0,85.0 L 68.0,69.0 L 69.0,68.0" fill="#0F0F0F"/>
	<path d="M 34.0,68.0 L 50.0,68.0 L 52.0,69.0 L 52.0,90.0 L 50.0,96.0 L 44.0,96.0 L 43.0,95.0 L 44.0,77.0 L 25.0,77.0 L 23.0,75.0 L 24.0,70.0 L 25.0,69.0 L 34.0,68.0" fill="#0D0D0D"/>
	<path d="M 45.0,23.0 L 50.0,24.0 L 52.0,31.0 L 52.0,50.0 L 50.0,52.0 L 25.0,51.0 L 23.0,49.0 L 24.0,44.0 L 25.0,43.0 L 44.0,43.0 L 43.0,25.0 L 45.0,23.0" fill="#0C0C0C"/>
	<path d="M 71.0,23.0 L 76.0,24.0 L 77.0,25.0 L 77.0,43.0 L 95.0,43.0 L 97.0,45.0 L 96.0,50.0 L 95.0,51.0 L 84.0,52.0 L 70.0,52.0 L 69.0,51.0 L 69.0,25.0 L 71.0,23.0" fill="#0C0C0C"/>
</svg>
