<?xml version="1.0" ?>
<svg baseProfile="full" height="600px" version="1.1" viewBox="-12.864 -12.864 153.728 153.728" width="600px" xmlns="http://www.w3.org/2000/svg" xmlns:ev="http://www.w3.org/2001/xml-events" xmlns:xlink="http://www.w3.org/1999/xlink">
	<defs/>
	<path d="M 0.0,0.0 L 128.0,0.0 L 128.0,128.0 L 0.0,128.0 L 0.0,0.0" fill="#FDFDFD"/>
	<path d="M 104.0,76.0 L 112.0,76.0 L 112.0,112.0 L 76.0,112.0 L 76.0,104.0 L 104.0,104.0 L 104.0,76.0" fill="#000000"/>
	<path d="M 16.0,76.0 L 24.0,76.0 L 24.0,104.0 L 52.0,104.0 L 52.0,112.0 L 16.0,112.0 L 16.0,76.0" fill="#000000"/>
	<path d="M 76.0,16.0 L 112.0,16.0 L 112.0,52.0 L 104.0,52.0 L 104.0,24.0 L 76.0,24.0 L 76.0,16.0" fill="#000000"/>
	<path d="M 16.0,16.0 L 52.0,16.0 L 52.0,24.0 L 24.0,24.0 L 24.0,52.0 L 16.0,52.0 L 16.0,16.0" fill="#000000"/>
</svg>
