<?xml version="1.0" ?>
<svg baseProfile="full" height="600px" version="1.1" viewBox="-9.648000000000001 -9.648000000000001 115.296 115.296" width="600px" xmlns="http://www.w3.org/2000/svg" xmlns:ev="http://www.w3.org/2001/xml-events" xmlns:xlink="http://www.w3.org/1999/xlink">
	<defs/>
	<path d="M 0.0,0.0 L 96.0,0.0 L 96.0,96.0 L 0.0,96.0 L 0.0,0.0" fill="#FDFDFD"/>
	<path d="M 60.0,12.0 L 68.0,12.0 L 68.0,28.0 L 84.0,28.0 L 84.0,36.0 L 65.0,36.0 L 60.0,31.0 L 60.0,12.0" fill="#030303"/>
	<path d="M 65.0,60.0 L 84.0,60.0 L 84.0,68.0 L 68.0,68.0 L 68.0,84.0 L 60.0,84.0 L 60.0,65.0 L 65.0,60.0" fill="#020202"/>
	<path d="M 12.0,60.0 L 30.0,60.0 L 34.0,62.0 L 36.0,65.0 L 36.0,84.0 L 28.0,84.0 L 28.0,68.0 L 12.0,68.0 L 12.0,60.0" fill="#010101"/>
	<path d="M 28.0,12.0 L 36.0,12.0 L 36.0,30.0 L 32.0,35.0 L 30.0,36.0 L 12.0,36.0 L 12.0,28.0 L 28.0,28.0 L 28.0,12.0" fill="#010101"/>
</svg>
