<?xml version="1.0" ?>
<svg baseProfile="full" height="600px" version="1.1" viewBox="-12.06 -12.06 144.12 144.12" width="600px" xmlns="http://www.w3.org/2000/svg" xmlns:ev="http://www.w3.org/2001/xml-events" xmlns:xlink="http://www.w3.org/1999/xlink">
	<defs/>
	<path d="M 0.0,0.0 L 120.0,0.0 L 120.0,120.0 L 0.0,120.0 L 0.0,0.0" fill="#FDFDFD"/>
	<path d="M 70.0,68.0 L 94.0,68.0 L 96.0,70.0 L 95.0,75.0 L 94.0,76.0 L 76.0,76.0 L 76.0,94.0 L 74.0,96.0 L 69.0,95.0 L 68.0,94.0 L 68.0,70.0 L 70.0,68.0" fill="#060606"/>
	<path d="M 26.0,68.0 L 50.0,68.0 L 52.0,70.0 L 52.0,94.0 L 50.0,96.0 L 45.0,95.0 L 44.0,94.0 L 44.0,76.0 L 26.0,76.0 L 24.0,74.0 L 25.0,69.0 L 26.0,68.0" fill="#030303"/>
	<path d="M 70.0,24.0 L 75.0,25.0 L 76.0,26.0 L 76.0,44.0 L 94.0,44.0 L 96.0,46.0 L 95.0,51.0 L 94.0,52.0 L 70.0,52.0 L 68.0,50.0 L 68.0,26.0 L 70.0,24.0" fill="#070707"/>
	<path d="M 46.0,24.0 L 51.0,25.0 L 52.0,26.0 L 52.0,50.0 L 50.0,52.0 L 26.0,52.0 L 24.0,50.0 L 25.0,45.0 L 26.0,44.0 L 44.0,44.0 L 44.0,26.0 L 46.0,24.0" fill="#030303"/>
</svg>
