<?xml version="1.0" ?>
<svg baseProfile="full" height="600px" version="1.1" viewBox="-12.864 -12.864 153.728 153.728" width="600px" xmlns="http://www.w3.org/2000/svg" xmlns:ev="http://www.w3.org/2001/xml-events" xmlns:xlink="http://www.w3.org/1999/xlink">
	<defs/>
	<path d="M 0.0,0.0 L 128.0,0.0 L 128.0,128.0 L 0.0,128.0 L 0.0,0.0" fill="#FCFCFC"/>
	<path d="M 20.0,76.0 L 24.0,77.0 L 31.0,97.0 L 52.0,105.0 L 50.0,113.0 L 40.0,110.0 L 25.0,105.0 L 21.0,96.0 L 15.0,80.0 L 15.0,78.0 L 20.0,76.0" fill="#0A0A0A"/>
	<path d="M 48.0,15.0 L 50.0,15.0 L 52.0,20.0 L 52.0,23.0 L 33.0,30.0 L 30.0,33.0 L 23.0,52.0 L 17.0,51.0 L 15.0,50.0 L 18.0,40.0 L 23.0,25.0 L 28.0,22.0 L 48.0,15.0" fill="#0A0A0A"/>
	<path d="M 78.0,15.0 L 88.0,18.0 L 104.0,24.0 L 108.0,34.0 L 113.0,48.0 L 113.0,50.0 L 105.0,52.0 L 97.0,31.0 L 77.0,24.0 L 76.0,20.0 L 78.0,15.0" fill="#0A0A0A"/>
	<path d="M 105.0,76.0 L 113.0,78.0 L 110.0,88.0 L 104.0,104.0 L 80.0,113.0 L 78.0,113.0 L 76.0,105.0 L 86.0,101.0 L 97.0,97.0 L 104.0,77.0 L 105.0,76.0" fill="#0A0A0A"/>
</svg>
