<?xml version="1.0" ?>
<svg baseProfile="full" height="600px" version="1.1" viewBox="-19.296000000000003 -19.296000000000003 230.592 230.592" width="600px" xmlns="http://www.w3.org/2000/svg" xmlns:ev="http://www.w3.org/2001/xml-events" xmlns:xlink="http://www.w3.org/1999/xlink">
	<defs/>
	<path d="M 0.0,0.0 L 192.0,0.0 L 192.0,192.0 L 0.0,192.0 L 0.0,0.0" fill="#FFFEFE"/>
	<path d="M 64.0,24.0 L 92.0,24.0 L 92.0,160.0 L 64.0,160.0 L 64.0,24.0" fill="#FF5722"/>
	<path d="M 28.0,40.0 L 56.0,40.0 L 56.0,160.0 L 28.0,160.0 L 28.0,40.0" fill="#FFC107"/>
	<path d="M 136.0,72.0 L 164.0,72.0 L 164.0,160.0 L 136.0,160.0 L 136.0,72.0" fill="#FF5722"/>
	<path d="M 100.0,88.0 L 128.0,88.0 L 128.0,160.0 L 100.0,160.0 L 100.0,88.0" fill="#FFC107"/>
	<path d="M 20.0,160.0 L 172.0,160.0 L 172.0,168.0 L 20.0,168.0 L 20.0,160.0" fill="#CFD8DC"/>
</svg>
