<?xml version="1.0" ?>
<svg baseProfile="full" height="600px" version="1.1" viewBox="-20.1 -20.1 240.2 240.2" width="600px" xmlns="http://www.w3.org/2000/svg" xmlns:ev="http://www.w3.org/2001/xml-events" xmlns:xlink="http://www.w3.org/1999/xlink">
	<defs/>
	<path d="M 0.0,0.0 L 200.0,0.0 L 200.0,200.0 L 0.0,200.0 L 0.0,0.0" fill="#FDFDFD"/>
	<path d="M 119.0,0.0 L 200.0,0.0 L 200.0,200.0 L 141.0,200.0 L 146.0,196.0 L 148.0,193.0 L 149.0,188.0 L 152.0,151.0 L 157.0,97.0 L 163.0,28.0 L 170.0,27.0 L 171.0,22.0 L 170.0,21.0 L 128.0,20.0 L 127.0,8.0 L 125.0,3.0 L 119.0,1.0 L 119.0,0.0" fill="#FCFCFC"/>
	<path d="M 0.0,0.0 L 80.0,0.0 L 77.0,3.0 L 75.0,3.0 L 73.0,8.0 L 72.0,20.0 L 30.0,21.0 L 29.0,26.0 L 36.0,28.0 L 38.0,41.0 L 48.0,151.0 L 51.0,187.0 L 53.0,195.0 L 58.0,200.0 L 0.0,200.0 L 0.0,0.0" fill="#FCFCFC"/>
	<path d="M 80.0,0.0 L 119.0,0.0 L 125.0,3.0 L 128.0,8.0 L 128.0,20.0 L 170.0,20.0 L 172.0,22.0 L 171.0,27.0 L 170.0,28.0 L 163.0,28.0 L 163.0,41.0 L 158.0,97.0 L 151.0,173.0 L 150.0,188.0 L 148.0,195.0 L 144.0,199.0 L 141.0,200.0 L 58.0,200.0 L 52.0,195.0 L 50.0,187.0 L 42.0,95.0 L 37.0,41.0 L 36.0,28.0 L 30.0,28.0 L 28.0,26.0 L 29.0,21.0 L 30.0,20.0 L 72.0,20.0 L 72.0,8.0 L 75.0,3.0 L 80.0,0.0 M 45.0,28.0 L 46.0,54.0 L 54.0,138.0 L 58.0,186.0 L 60.0,192.0 L 140.0,192.0 L 142.0,189.0 L 144.0,161.0 L 150.0,96.0 L 155.0,40.0 L 155.0,28.0 L 45.0,28.0" fill="#050505"/>
	<path d="M 122.0,40.0 L 127.0,41.0 L 128.0,42.0 L 128.0,178.0 L 126.0,180.0 L 121.0,179.0 L 120.0,178.0 L 120.0,42.0 L 122.0,40.0" fill="#010101"/>
	<path d="M 98.0,40.0 L 103.0,41.0 L 104.0,42.0 L 104.0,178.0 L 102.0,180.0 L 97.0,179.0 L 96.0,178.0 L 96.0,42.0 L 98.0,40.0" fill="#010101"/>
	<path d="M 74.0,40.0 L 79.0,41.0 L 80.0,42.0 L 80.0,178.0 L 78.0,180.0 L 73.0,179.0 L 72.0,178.0 L 72.0,42.0 L 74.0,40.0" fill="#010101"/>
	<path d="M 82.0,8.0 L 118.0,8.0 L 120.0,10.0 L 120.0,20.0 L 80.0,20.0 L 80.0,10.0 L 82.0,8.0" fill="#FCFCFC"/>
</svg>
