<?xml version="1.0" ?>
<svg baseProfile="full" height="600px" version="1.1" viewBox="-20.1 -20.1 240.2 240.2" width="600px" xmlns="http://www.w3.org/2000/svg" xmlns:ev="http://www.w3.org/2001/xml-events" xmlns:xlink="http://www.w3.org/1999/xlink">
	<defs/>
	<path d="M 0.0,0.0 L 200.0,0.0 L 200.0,200.0 L 0.0,200.0 L 0.0,0.0" fill="#FBFBFB"/>
	<path d="M 80.0,20.0 L 95.0,20.0 L 120.0,22.0 L 126.0,25.0 L 129.0,30.0 L 129.0,43.0 L 170.0,46.0 L 172.0,48.0 L 171.0,53.0 L 170.0,54.0 L 164.0,54.0 L 162.0,73.0 L 158.0,117.0 L 156.0,147.0 L 152.0,177.0 L 149.0,193.0 L 145.0,198.0 L 143.0,199.0 L 57.0,199.0 L 51.0,194.0 L 47.0,172.0 L 43.0,138.0 L 40.0,93.0 L 36.0,55.0 L 36.0,50.0 L 38.0,48.0 L 43.0,49.0 L 45.0,54.0 L 50.0,103.0 L 53.0,144.0 L 57.0,178.0 L 60.0,192.0 L 140.0,192.0 L 144.0,171.0 L 147.0,145.0 L 153.0,72.0 L 155.0,53.0 L 144.0,53.0 L 96.0,49.0 L 48.0,45.0 L 32.0,44.0 L 29.0,42.0 L 29.0,36.0 L 31.0,35.0 L 40.0,35.0 L 58.0,37.0 L 73.0,38.0 L 73.0,28.0 L 77.0,22.0 L 80.0,20.0" fill="#080808"/>
	<path d="M 122.0,65.0 L 127.0,66.0 L 128.0,67.0 L 128.0,181.0 L 127.0,182.0 L 121.0,182.0 L 120.0,181.0 L 120.0,67.0 L 122.0,65.0" fill="#080808"/>
	<path d="M 98.0,65.0 L 103.0,66.0 L 104.0,67.0 L 104.0,181.0 L 103.0,182.0 L 97.0,182.0 L 96.0,181.0 L 96.0,67.0 L 98.0,65.0" fill="#010101"/>
	<path d="M 74.0,65.0 L 79.0,66.0 L 80.0,67.0 L 80.0,181.0 L 79.0,182.0 L 73.0,182.0 L 72.0,181.0 L 72.0,67.0 L 74.0,65.0" fill="#080808"/>
	<path d="M 83.0,28.0 L 94.0,28.0 L 119.0,30.0 L 121.0,32.0 L 121.0,42.0 L 109.0,42.0 L 85.0,40.0 L 81.0,39.0 L 81.0,30.0 L 83.0,28.0" fill="#F7F7F7"/>
</svg>
