<?xml version="1.0" ?>
<svg baseProfile="full" height="600px" version="1.1" viewBox="-20.1 -20.1 240.2 240.2" width="600px" xmlns="http://www.w3.org/2000/svg" xmlns:ev="http://www.w3.org/2001/xml-events" xmlns:xlink="http://www.w3.org/1999/xlink">
	<defs/>
	<path d="M 0.0,0.0 L 200.0,0.0 L 200.0,200.0 L 0.0,200.0 L 0.0,0.0" fill="#FCFCFC"/>
	<path d="M 82.0,6.0 L 91.0,6.0 L 116.0,9.0 L 125.0,12.0 L 130.0,18.0 L 130.0,26.0 L 129.0,32.0 L 151.0,34.0 L 170.0,37.0 L 172.0,39.0 L 171.0,44.0 L 170.0,45.0 L 163.0,45.0 L 162.0,58.0 L 158.0,88.0 L 154.0,128.0 L 151.0,177.0 L 149.0,193.0 L 145.0,198.0 L 141.0,200.0 L 59.0,200.0 L 54.0,197.0 L 50.0,191.0 L 45.0,118.0 L 42.0,88.0 L 37.0,51.0 L 36.0,47.0 L 36.0,39.0 L 37.0,38.0 L 43.0,38.0 L 45.0,42.0 L 48.0,63.0 L 51.0,89.0 L 53.0,104.0 L 59.0,182.0 L 60.0,191.0 L 140.0,191.0 L 141.0,189.0 L 144.0,140.0 L 146.0,114.0 L 152.0,64.0 L 155.0,43.0 L 143.0,42.0 L 118.0,39.0 L 99.0,36.0 L 67.0,32.0 L 55.0,30.0 L 38.0,28.0 L 30.0,26.0 L 29.0,21.0 L 31.0,19.0 L 49.0,20.0 L 73.0,24.0 L 74.0,14.0 L 80.0,7.0 L 82.0,6.0" fill="#0B0B0B"/>
	<path d="M 73.0,56.0 L 79.0,56.0 L 80.0,57.0 L 81.0,74.0 L 81.0,161.0 L 80.0,180.0 L 79.0,181.0 L 73.0,181.0 L 72.0,180.0 L 72.0,57.0 L 73.0,56.0" fill="#090909"/>
	<path d="M 97.0,56.0 L 103.0,56.0 L 104.0,57.0 L 104.0,180.0 L 103.0,181.0 L 97.0,181.0 L 96.0,180.0 L 96.0,57.0 L 97.0,56.0" fill="#010101"/>
	<path d="M 121.0,56.0 L 127.0,56.0 L 128.0,57.0 L 128.0,180.0 L 127.0,181.0 L 121.0,181.0 L 120.0,180.0 L 119.0,158.0 L 119.0,68.0 L 120.0,57.0 L 121.0,56.0" fill="#090909"/>
	<path d="M 84.0,14.0 L 98.0,15.0 L 119.0,18.0 L 122.0,20.0 L 121.0,30.0 L 112.0,30.0 L 90.0,27.0 L 82.0,26.0 L 81.0,23.0 L 82.0,16.0 L 84.0,14.0" fill="#F6F6F6"/>
</svg>
