<?xml version="1.0" ?>
<svg baseProfile="full" height="600px" version="1.1" viewBox="-20.1 -20.1 240.2 240.2" width="600px" xmlns="http://www.w3.org/2000/svg" xmlns:ev="http://www.w3.org/2001/xml-events" xmlns:xlink="http://www.w3.org/1999/xlink">
	<defs/>
	<path d="M 0.0,0.0 L 200.0,0.0 L 200.0,200.0 L 0.0,200.0 L 0.0,0.0" fill="#FBFBFB"/>
	<path d="M 0.0,0.0 L 200.0,0.0 L 200.0,200.0 L 0.0,200.0 L 0.0,0.0 M 76.0,10.0 L 58.0,17.0 L 55.0,21.0 L 56.0,33.0 L 58.0,46.0 L 49.0,54.0 L 49.0,56.0 L 32.0,51.0 L 24.0,50.0 L 20.0,52.0 L 12.0,70.0 L 13.0,78.0 L 31.0,90.0 L 32.0,106.0 L 27.0,108.0 L 12.0,117.0 L 10.0,121.0 L 11.0,126.0 L 17.0,142.0 L 21.0,145.0 L 33.0,144.0 L 42.0,142.0 L 47.0,143.0 L 54.0,151.0 L 56.0,151.0 L 50.0,172.0 L 51.0,178.0 L 54.0,181.0 L 70.0,188.0 L 78.0,187.0 L 90.0,169.0 L 106.0,169.0 L 118.0,189.0 L 124.0,190.0 L 144.0,182.0 L 146.0,178.0 L 144.0,165.0 L 142.0,154.0 L 151.0,145.0 L 163.0,147.0 L 173.0,150.0 L 177.0,149.0 L 181.0,145.0 L 188.0,130.0 L 188.0,123.0 L 177.0,115.0 L 169.0,110.0 L 169.0,94.0 L 186.0,84.0 L 190.0,79.0 L 189.0,74.0 L 182.0,56.0 L 178.0,54.0 L 165.0,56.0 L 154.0,58.0 L 145.0,49.0 L 146.0,41.0 L 149.0,31.0 L 149.0,22.0 L 141.0,17.0 L 130.0,12.0 L 123.0,12.0 L 115.0,23.0 L 110.0,31.0 L 94.0,32.0 L 92.0,27.0 L 83.0,12.0 L 79.0,10.0 L 76.0,10.0" fill="#FCFCFC"/>
	<path d="M 76.0,10.0 L 82.0,11.0 L 88.0,20.0 L 94.0,30.0 L 94.0,32.0 L 110.0,31.0 L 122.0,13.0 L 123.0,12.0 L 130.0,12.0 L 147.0,20.0 L 149.0,22.0 L 149.0,31.0 L 145.0,45.0 L 146.0,50.0 L 154.0,58.0 L 165.0,56.0 L 178.0,54.0 L 182.0,56.0 L 190.0,76.0 L 189.0,81.0 L 181.0,87.0 L 169.0,94.0 L 169.0,110.0 L 187.0,122.0 L 188.0,123.0 L 188.0,130.0 L 180.0,147.0 L 176.0,150.0 L 165.0,148.0 L 154.0,145.0 L 150.0,146.0 L 142.0,154.0 L 144.0,165.0 L 146.0,178.0 L 144.0,182.0 L 124.0,190.0 L 118.0,189.0 L 106.0,169.0 L 90.0,169.0 L 78.0,187.0 L 70.0,188.0 L 52.0,180.0 L 50.0,176.0 L 51.0,168.0 L 56.0,151.0 L 52.0,149.0 L 46.0,142.0 L 38.0,143.0 L 26.0,145.0 L 19.0,144.0 L 16.0,139.0 L 10.0,124.0 L 11.0,118.0 L 20.0,112.0 L 30.0,106.0 L 32.0,106.0 L 31.0,90.0 L 13.0,78.0 L 12.0,70.0 L 20.0,52.0 L 24.0,50.0 L 36.0,52.0 L 49.0,56.0 L 51.0,52.0 L 58.0,46.0 L 56.0,33.0 L 55.0,21.0 L 60.0,16.0 L 76.0,10.0 M 75.0,19.0 L 63.0,24.0 L 66.0,42.0 L 66.0,49.0 L 61.0,54.0 L 53.0,62.0 L 46.0,63.0 L 29.0,59.0 L 26.0,59.0 L 21.0,70.0 L 22.0,74.0 L 38.0,85.0 L 40.0,88.0 L 39.0,109.0 L 36.0,112.0 L 19.0,122.0 L 20.0,127.0 L 24.0,137.0 L 42.0,134.0 L 49.0,134.0 L 54.0,139.0 L 63.0,148.0 L 62.0,158.0 L 59.0,171.0 L 59.0,174.0 L 70.0,179.0 L 74.0,178.0 L 85.0,162.0 L 88.0,160.0 L 110.0,161.0 L 116.0,170.0 L 122.0,180.0 L 124.0,181.0 L 137.0,176.0 L 135.0,163.0 L 134.0,158.0 L 134.0,150.0 L 146.0,139.0 L 146.0,137.0 L 155.0,137.0 L 171.0,141.0 L 174.0,141.0 L 179.0,130.0 L 179.0,126.0 L 165.0,117.0 L 160.0,112.0 L 161.0,90.0 L 170.0,84.0 L 181.0,78.0 L 180.0,73.0 L 176.0,63.0 L 163.0,65.0 L 150.0,66.0 L 139.0,54.0 L 137.0,51.0 L 137.0,44.0 L 141.0,26.0 L 127.0,20.0 L 117.0,35.0 L 112.0,40.0 L 91.0,39.0 L 87.0,35.0 L 78.0,19.0 L 75.0,19.0" fill="#080808"/>
	<path d="M 93.0,68.0 L 105.0,68.0 L 116.0,72.0 L 124.0,78.0 L 130.0,87.0 L 132.0,93.0 L 132.0,104.0 L 129.0,115.0 L 122.0,124.0 L 115.0,129.0 L 106.0,132.0 L 93.0,132.0 L 84.0,128.0 L 76.0,122.0 L 71.0,115.0 L 68.0,105.0 L 68.0,93.0 L 72.0,84.0 L 78.0,76.0 L 87.0,70.0 L 93.0,68.0" fill="#FAFAFA"/>
	<path d="M 93.0,68.0 L 105.0,68.0 L 116.0,72.0 L 124.0,78.0 L 130.0,87.0 L 132.0,93.0 L 132.0,104.0 L 129.0,115.0 L 122.0,124.0 L 115.0,129.0 L 106.0,132.0 L 93.0,132.0 L 84.0,128.0 L 76.0,122.0 L 71.0,115.0 L 68.0,105.0 L 68.0,93.0 L 72.0,84.0 L 78.0,76.0 L 87.0,70.0 L 93.0,68.0 M 94.0,76.0 L 86.0,80.0 L 78.0,89.0 L 76.0,94.0 L 76.0,105.0 L 81.0,115.0 L 89.0,122.0 L 94.0,124.0 L 105.0,124.0 L 115.0,119.0 L 121.0,112.0 L 124.0,105.0 L 124.0,94.0 L 120.0,86.0 L 112.0,79.0 L 104.0,76.0 L 94.0,76.0" fill="#080808"/>
</svg>
