<?xml version="1.0" ?>
<svg baseProfile="full" height="600px" version="1.1" viewBox="-19.296000000000003 -19.296000000000003 230.592 230.592" width="600px" xmlns="http://www.w3.org/2000/svg" xmlns:ev="http://www.w3.org/2001/xml-events" xmlns:xlink="http://www.w3.org/1999/xlink">
	<defs/>
	<path d="M 0.0,0.0 L 192.0,0.0 L 192.0,192.0 L 0.0,192.0 L 0.0,0.0" fill="#FCFDFD"/>
	<path d="M 89.0,15.0 L 95.0,15.0 L 99.0,23.0 L 104.0,37.0 L 118.0,41.0 L 124.0,40.0 L 134.0,31.0 L 138.0,28.0 L 143.0,28.0 L 169.0,54.0 L 168.0,59.0 L 157.0,72.0 L 155.0,77.0 L 159.0,92.0 L 177.0,99.0 L 182.0,102.0 L 181.0,108.0 L 174.0,136.0 L 172.0,141.0 L 162.0,141.0 L 146.0,139.0 L 138.0,148.0 L 135.0,150.0 L 136.0,163.0 L 137.0,174.0 L 135.0,176.0 L 112.0,182.0 L 101.0,185.0 L 97.0,184.0 L 93.0,176.0 L 88.0,162.0 L 75.0,159.0 L 70.0,158.0 L 59.0,168.0 L 54.0,172.0 L 49.0,172.0 L 24.0,147.0 L 23.0,142.0 L 34.0,129.0 L 37.0,125.0 L 35.0,116.0 L 34.0,107.0 L 23.0,104.0 L 11.0,99.0 L 11.0,91.0 L 17.0,68.0 L 20.0,60.0 L 21.0,59.0 L 28.0,59.0 L 47.0,62.0 L 54.0,54.0 L 57.0,51.0 L 59.0,51.0 L 55.0,30.0 L 56.0,25.0 L 59.0,23.0 L 89.0,15.0" fill="#617D8B"/>
	<path d="M 88.0,52.0 L 103.0,52.0 L 117.0,56.0 L 126.0,62.0 L 133.0,68.0 L 140.0,79.0 L 144.0,91.0 L 144.0,106.0 L 142.0,116.0 L 137.0,126.0 L 128.0,136.0 L 123.0,140.0 L 113.0,145.0 L 107.0,147.0 L 100.0,148.0 L 89.0,148.0 L 76.0,144.0 L 66.0,138.0 L 58.0,130.0 L 52.0,120.0 L 49.0,112.0 L 48.0,105.0 L 48.0,92.0 L 51.0,83.0 L 55.0,74.0 L 64.0,64.0 L 70.0,59.0 L 80.0,54.0 L 88.0,52.0" fill="#465B65"/>
	<path d="M 90.0,80.0 L 102.0,80.0 L 111.0,86.0 L 116.0,94.0 L 116.0,105.0 L 112.0,113.0 L 103.0,119.0 L 101.0,120.0 L 91.0,120.0 L 83.0,115.0 L 78.0,109.0 L 76.0,104.0 L 76.0,95.0 L 80.0,87.0 L 88.0,81.0 L 90.0,80.0" fill="#FAFBFB"/>
</svg>
