<?xml version="1.0" ?>
<svg baseProfile="full" height="600px" version="1.1" viewBox="-19.296000000000003 -19.296000000000003 230.592 230.592" width="600px" xmlns="http://www.w3.org/2000/svg" xmlns:ev="http://www.w3.org/2001/xml-events" xmlns:xlink="http://www.w3.org/1999/xlink">
	<defs/>
	<path d="M 0.0,0.0 L 192.0,0.0 L 192.0,192.0 L 0.0,192.0 L 0.0,0.0" fill="#FCFDFD"/>
	<path d="M 105.0,15.0 L 111.0,16.0 L 141.0,27.0 L 143.0,29.0 L 142.0,36.0 L 139.0,48.0 L 139.0,54.0 L 148.0,64.0 L 148.0,66.0 L 173.0,64.0 L 176.0,69.0 L 182.0,99.0 L 182.0,104.0 L 177.0,107.0 L 158.0,113.0 L 156.0,121.0 L 153.0,130.0 L 164.0,146.0 L 164.0,152.0 L 150.0,164.0 L 137.0,175.0 L 132.0,175.0 L 116.0,160.0 L 104.0,162.0 L 98.0,162.0 L 95.0,171.0 L 89.0,183.0 L 87.0,185.0 L 78.0,183.0 L 67.0,179.0 L 51.0,173.0 L 49.0,171.0 L 50.0,162.0 L 53.0,152.0 L 53.0,146.0 L 44.0,136.0 L 44.0,134.0 L 19.0,136.0 L 16.0,131.0 L 10.0,100.0 L 11.0,95.0 L 18.0,92.0 L 32.0,88.0 L 35.0,88.0 L 37.0,79.0 L 40.0,71.0 L 29.0,55.0 L 28.0,54.0 L 28.0,48.0 L 42.0,36.0 L 55.0,25.0 L 60.0,25.0 L 70.0,34.0 L 76.0,40.0 L 88.0,38.0 L 94.0,38.0 L 97.0,29.0 L 103.0,16.0 L 105.0,15.0" fill="#607D8A"/>
	<path d="M 88.0,52.0 L 103.0,52.0 L 117.0,56.0 L 127.0,63.0 L 132.0,68.0 L 138.0,76.0 L 142.0,85.0 L 144.0,95.0 L 144.0,106.0 L 142.0,116.0 L 137.0,126.0 L 128.0,136.0 L 123.0,140.0 L 113.0,145.0 L 104.0,148.0 L 91.0,148.0 L 81.0,146.0 L 72.0,142.0 L 64.0,136.0 L 57.0,129.0 L 50.0,115.0 L 48.0,109.0 L 48.0,92.0 L 51.0,81.0 L 58.0,70.0 L 67.0,61.0 L 83.0,53.0 L 88.0,52.0" fill="#465B65"/>
	<path d="M 90.0,80.0 L 101.0,80.0 L 109.0,84.0 L 115.0,92.0 L 116.0,94.0 L 116.0,105.0 L 111.0,114.0 L 106.0,118.0 L 101.0,120.0 L 91.0,120.0 L 83.0,116.0 L 78.0,110.0 L 76.0,104.0 L 76.0,95.0 L 80.0,87.0 L 88.0,81.0 L 90.0,80.0" fill="#FAFBFB"/>
</svg>
