<?xml version="1.0" ?>
<svg baseProfile="full" height="600px" version="1.1" viewBox="-20.1 -20.1 240.2 240.2" width="600px" xmlns="http://www.w3.org/2000/svg" xmlns:ev="http://www.w3.org/2001/xml-events" xmlns:xlink="http://www.w3.org/1999/xlink">
	<defs/>
	<path d="M 0.0,0.0 L 200.0,0.0 L 200.0,200.0 L 0.0,200.0 L 0.0,0.0" fill="#FCFCFC"/>
	<path d="M 140.0,100.0 L 153.0,100.0 L 157.0,103.0 L 158.0,110.0 L 164.0,111.0 L 175.0,117.0 L 183.0,116.0 L 188.0,121.0 L 192.0,127.0 L 192.0,132.0 L 188.0,136.0 L 189.0,157.0 L 193.0,160.0 L 193.0,167.0 L 188.0,176.0 L 184.0,178.0 L 176.0,177.0 L 168.0,183.0 L 162.0,186.0 L 159.0,194.0 L 156.0,196.0 L 143.0,196.0 L 139.0,192.0 L 137.0,187.0 L 128.0,183.0 L 122.0,179.0 L 113.0,180.0 L 110.0,179.0 L 104.0,169.0 L 104.0,163.0 L 108.0,160.0 L 107.0,139.0 L 103.0,136.0 L 103.0,129.0 L 108.0,120.0 L 112.0,118.0 L 120.0,119.0 L 129.0,112.0 L 134.0,110.0 L 137.0,102.0 L 140.0,100.0" fill="#F9F9F9"/>
	<path d="M 48.0,80.0 L 61.0,80.0 L 65.0,83.0 L 66.0,90.0 L 72.0,91.0 L 83.0,97.0 L 91.0,96.0 L 96.0,101.0 L 100.0,107.0 L 100.0,112.0 L 96.0,116.0 L 97.0,137.0 L 101.0,140.0 L 101.0,147.0 L 96.0,156.0 L 92.0,158.0 L 84.0,157.0 L 76.0,163.0 L 70.0,166.0 L 67.0,174.0 L 64.0,176.0 L 51.0,176.0 L 47.0,172.0 L 45.0,167.0 L 36.0,163.0 L 30.0,159.0 L 21.0,160.0 L 18.0,159.0 L 12.0,149.0 L 12.0,143.0 L 16.0,140.0 L 15.0,119.0 L 11.0,116.0 L 11.0,109.0 L 16.0,100.0 L 20.0,98.0 L 28.0,99.0 L 37.0,92.0 L 42.0,90.0 L 45.0,82.0 L 48.0,80.0" fill="#F9F9F9"/>
	<path d="M 115.0,8.0 L 128.0,8.0 L 132.0,11.0 L 134.0,18.0 L 145.0,24.0 L 148.0,27.0 L 156.0,26.0 L 160.0,28.0 L 165.0,37.0 L 165.0,44.0 L 161.0,47.0 L 160.0,68.0 L 163.0,71.0 L 164.0,77.0 L 157.0,87.0 L 150.0,88.0 L 146.0,87.0 L 136.0,93.0 L 130.0,94.0 L 128.0,102.0 L 125.0,104.0 L 112.0,104.0 L 108.0,101.0 L 106.0,94.0 L 98.0,90.0 L 92.0,85.0 L 84.0,86.0 L 80.0,84.0 L 75.0,75.0 L 75.0,68.0 L 80.0,64.0 L 80.0,45.0 L 76.0,40.0 L 77.0,33.0 L 84.0,24.0 L 94.0,25.0 L 103.0,19.0 L 110.0,16.0 L 112.0,10.0 L 115.0,8.0" fill="#F9F9F9"/>
	<path d="M 140.0,100.0 L 153.0,100.0 L 157.0,103.0 L 158.0,110.0 L 164.0,111.0 L 175.0,117.0 L 183.0,116.0 L 188.0,121.0 L 192.0,127.0 L 192.0,132.0 L 188.0,136.0 L 189.0,157.0 L 193.0,160.0 L 193.0,167.0 L 188.0,176.0 L 184.0,178.0 L 176.0,177.0 L 168.0,183.0 L 162.0,186.0 L 159.0,194.0 L 156.0,196.0 L 143.0,196.0 L 139.0,192.0 L 137.0,187.0 L 128.0,183.0 L 122.0,179.0 L 113.0,180.0 L 110.0,179.0 L 104.0,169.0 L 104.0,163.0 L 108.0,160.0 L 107.0,139.0 L 103.0,136.0 L 103.0,129.0 L 108.0,120.0 L 112.0,118.0 L 120.0,119.0 L 129.0,112.0 L 134.0,110.0 L 137.0,102.0 L 140.0,100.0 M 143.0,108.0 L 141.0,115.0 L 130.0,121.0 L 123.0,127.0 L 114.0,127.0 L 112.0,130.0 L 113.0,134.0 L 116.0,138.0 L 116.0,154.0 L 117.0,160.0 L 113.0,166.0 L 115.0,171.0 L 125.0,171.0 L 134.0,177.0 L 143.0,181.0 L 145.0,183.0 L 147.0,188.0 L 153.0,188.0 L 155.0,181.0 L 160.0,178.0 L 170.0,172.0 L 175.0,169.0 L 182.0,169.0 L 184.0,166.0 L 183.0,162.0 L 180.0,158.0 L 180.0,141.0 L 179.0,136.0 L 182.0,131.0 L 183.0,128.0 L 181.0,125.0 L 171.0,125.0 L 162.0,119.0 L 153.0,115.0 L 151.0,113.0 L 150.0,108.0 L 143.0,108.0" fill="#080808"/>
	<path d="M 48.0,80.0 L 61.0,80.0 L 65.0,83.0 L 66.0,90.0 L 72.0,91.0 L 83.0,97.0 L 91.0,96.0 L 96.0,101.0 L 100.0,107.0 L 100.0,112.0 L 96.0,116.0 L 97.0,137.0 L 101.0,140.0 L 101.0,147.0 L 96.0,156.0 L 92.0,158.0 L 84.0,157.0 L 76.0,163.0 L 70.0,166.0 L 67.0,174.0 L 64.0,176.0 L 51.0,176.0 L 47.0,172.0 L 45.0,167.0 L 36.0,163.0 L 30.0,159.0 L 21.0,160.0 L 18.0,159.0 L 12.0,149.0 L 12.0,143.0 L 16.0,140.0 L 15.0,119.0 L 11.0,116.0 L 11.0,109.0 L 16.0,100.0 L 20.0,98.0 L 28.0,99.0 L 37.0,92.0 L 42.0,90.0 L 45.0,82.0 L 48.0,80.0 M 51.0,88.0 L 49.0,95.0 L 38.0,101.0 L 31.0,107.0 L 22.0,107.0 L 20.0,110.0 L 21.0,114.0 L 24.0,118.0 L 24.0,134.0 L 25.0,140.0 L 21.0,146.0 L 23.0,151.0 L 33.0,151.0 L 42.0,157.0 L 51.0,161.0 L 53.0,163.0 L 55.0,168.0 L 61.0,168.0 L 63.0,161.0 L 68.0,158.0 L 78.0,152.0 L 83.0,149.0 L 90.0,149.0 L 92.0,146.0 L 91.0,142.0 L 88.0,138.0 L 88.0,121.0 L 87.0,116.0 L 90.0,111.0 L 91.0,108.0 L 89.0,105.0 L 79.0,105.0 L 70.0,99.0 L 61.0,95.0 L 59.0,93.0 L 58.0,88.0 L 51.0,88.0" fill="#080808"/>
	<path d="M 115.0,8.0 L 128.0,8.0 L 132.0,11.0 L 134.0,18.0 L 145.0,24.0 L 148.0,27.0 L 156.0,26.0 L 160.0,28.0 L 165.0,37.0 L 165.0,44.0 L 161.0,47.0 L 160.0,68.0 L 163.0,71.0 L 164.0,77.0 L 157.0,87.0 L 150.0,88.0 L 146.0,87.0 L 136.0,93.0 L 130.0,94.0 L 128.0,102.0 L 125.0,104.0 L 112.0,104.0 L 108.0,101.0 L 106.0,94.0 L 98.0,90.0 L 92.0,85.0 L 84.0,86.0 L 80.0,84.0 L 75.0,75.0 L 75.0,68.0 L 80.0,64.0 L 80.0,45.0 L 76.0,40.0 L 77.0,33.0 L 84.0,24.0 L 94.0,25.0 L 103.0,19.0 L 110.0,16.0 L 112.0,10.0 L 115.0,8.0 M 118.0,16.0 L 116.0,22.0 L 114.0,24.0 L 104.0,28.0 L 97.0,33.0 L 87.0,33.0 L 85.0,38.0 L 88.0,41.0 L 89.0,47.0 L 88.0,49.0 L 88.0,66.0 L 84.0,71.0 L 85.0,76.0 L 88.0,77.0 L 95.0,77.0 L 102.0,83.0 L 113.0,89.0 L 115.0,96.0 L 122.0,96.0 L 124.0,90.0 L 129.0,87.0 L 139.0,82.0 L 142.0,80.0 L 142.0,78.0 L 153.0,79.0 L 155.0,74.0 L 151.0,68.0 L 152.0,61.0 L 152.0,46.0 L 156.0,41.0 L 155.0,36.0 L 152.0,35.0 L 145.0,35.0 L 138.0,29.0 L 128.0,24.0 L 124.0,16.0 L 118.0,16.0" fill="#080808"/>
	<path d="M 144.0,128.0 L 153.0,128.0 L 161.0,132.0 L 167.0,140.0 L 168.0,143.0 L 168.0,153.0 L 164.0,161.0 L 156.0,167.0 L 153.0,168.0 L 143.0,168.0 L 135.0,164.0 L 129.0,156.0 L 128.0,153.0 L 128.0,143.0 L 132.0,135.0 L 140.0,129.0 L 144.0,128.0" fill="#080808"/>
	<path d="M 52.0,108.0 L 61.0,108.0 L 69.0,112.0 L 75.0,120.0 L 76.0,123.0 L 76.0,133.0 L 72.0,141.0 L 64.0,147.0 L 61.0,148.0 L 51.0,148.0 L 43.0,144.0 L 37.0,136.0 L 36.0,133.0 L 36.0,123.0 L 40.0,115.0 L 48.0,109.0 L 52.0,108.0" fill="#080808"/>
	<path d="M 115.0,36.0 L 125.0,36.0 L 133.0,40.0 L 139.0,48.0 L 140.0,51.0 L 140.0,60.0 L 137.0,67.0 L 133.0,72.0 L 125.0,76.0 L 115.0,76.0 L 107.0,72.0 L 101.0,64.0 L 100.0,61.0 L 100.0,52.0 L 103.0,45.0 L 107.0,40.0 L 115.0,36.0" fill="#080808"/>
	<path d="M 144.0,136.0 L 151.0,136.0 L 156.0,139.0 L 160.0,144.0 L 160.0,152.0 L 154.0,159.0 L 152.0,160.0 L 144.0,160.0 L 137.0,154.0 L 136.0,151.0 L 136.0,144.0 L 142.0,137.0 L 144.0,136.0" fill="#F7F7F7"/>
	<path d="M 52.0,116.0 L 59.0,116.0 L 64.0,119.0 L 68.0,124.0 L 68.0,132.0 L 62.0,139.0 L 60.0,140.0 L 52.0,140.0 L 45.0,134.0 L 44.0,131.0 L 44.0,124.0 L 50.0,117.0 L 52.0,116.0" fill="#F7F7F7"/>
	<path d="M 116.0,44.0 L 123.0,44.0 L 128.0,47.0 L 132.0,52.0 L 132.0,60.0 L 126.0,67.0 L 124.0,68.0 L 116.0,68.0 L 109.0,62.0 L 108.0,59.0 L 108.0,52.0 L 114.0,45.0 L 116.0,44.0" fill="#F7F7F7"/>
</svg>
