<?xml version="1.0" ?>
<svg baseProfile="full" height="600px" version="1.1" viewBox="-20.1 -20.1 240.2 240.2" width="600px" xmlns="http://www.w3.org/2000/svg" xmlns:ev="http://www.w3.org/2001/xml-events" xmlns:xlink="http://www.w3.org/1999/xlink">
	<defs/>
	<path d="M 0.0,0.0 L 200.0,0.0 L 200.0,200.0 L 0.0,200.0 L 0.0,0.0" fill="#FBFBFB"/>
	<path d="M 0.0,0.0 L 200.0,0.0 L 200.0,200.0 L 0.0,200.0 L 0.0,0.0 M 117.0,10.0 L 113.0,14.0 L 104.0,30.0 L 104.0,32.0 L 88.0,31.0 L 76.0,14.0 L 72.0,12.0 L 67.0,13.0 L 50.0,22.0 L 48.0,25.0 L 50.0,34.0 L 53.0,45.0 L 53.0,50.0 L 45.0,59.0 L 33.0,58.0 L 19.0,57.0 L 15.0,62.0 L 10.0,77.0 L 11.0,85.0 L 31.0,96.0 L 33.0,112.0 L 28.0,114.0 L 13.0,125.0 L 12.0,131.0 L 20.0,147.0 L 25.0,152.0 L 34.0,150.0 L 45.0,147.0 L 50.0,147.0 L 59.0,155.0 L 58.0,165.0 L 57.0,171.0 L 57.0,181.0 L 59.0,184.0 L 77.0,190.0 L 85.0,189.0 L 96.0,169.0 L 112.0,167.0 L 114.0,172.0 L 124.0,185.0 L 125.0,187.0 L 133.0,187.0 L 150.0,178.0 L 152.0,175.0 L 151.0,167.0 L 147.0,154.0 L 147.0,149.0 L 154.0,142.0 L 154.0,140.0 L 174.0,143.0 L 180.0,143.0 L 184.0,140.0 L 190.0,122.0 L 189.0,115.0 L 171.0,105.0 L 169.0,104.0 L 168.0,91.0 L 167.0,88.0 L 172.0,86.0 L 185.0,76.0 L 187.0,75.0 L 187.0,67.0 L 178.0,50.0 L 175.0,48.0 L 167.0,49.0 L 154.0,53.0 L 149.0,53.0 L 142.0,46.0 L 140.0,46.0 L 143.0,24.0 L 142.0,18.0 L 137.0,15.0 L 123.0,10.0 L 117.0,10.0" fill="#FCFCFC"/>
	<path d="M 117.0,10.0 L 123.0,10.0 L 140.0,16.0 L 143.0,20.0 L 141.0,38.0 L 140.0,46.0 L 144.0,48.0 L 149.0,53.0 L 157.0,52.0 L 170.0,48.0 L 177.0,49.0 L 182.0,57.0 L 187.0,67.0 L 187.0,75.0 L 173.0,85.0 L 169.0,88.0 L 167.0,88.0 L 168.0,91.0 L 169.0,104.0 L 188.0,114.0 L 190.0,117.0 L 189.0,125.0 L 184.0,140.0 L 180.0,143.0 L 168.0,142.0 L 154.0,140.0 L 152.0,144.0 L 147.0,149.0 L 148.0,157.0 L 152.0,171.0 L 151.0,177.0 L 143.0,182.0 L 133.0,187.0 L 125.0,187.0 L 115.0,173.0 L 112.0,169.0 L 112.0,167.0 L 96.0,169.0 L 85.0,189.0 L 77.0,190.0 L 59.0,184.0 L 57.0,181.0 L 57.0,171.0 L 59.0,161.0 L 59.0,155.0 L 50.0,147.0 L 41.0,148.0 L 28.0,152.0 L 23.0,151.0 L 18.0,143.0 L 12.0,131.0 L 13.0,125.0 L 28.0,114.0 L 33.0,112.0 L 31.0,96.0 L 11.0,85.0 L 10.0,77.0 L 16.0,60.0 L 19.0,57.0 L 33.0,58.0 L 45.0,59.0 L 53.0,50.0 L 52.0,41.0 L 48.0,28.0 L 49.0,23.0 L 57.0,18.0 L 69.0,12.0 L 75.0,13.0 L 86.0,28.0 L 88.0,31.0 L 104.0,32.0 L 106.0,27.0 L 115.0,11.0 L 117.0,10.0 M 120.0,19.0 L 112.0,33.0 L 109.0,38.0 L 107.0,39.0 L 86.0,40.0 L 81.0,35.0 L 71.0,21.0 L 65.0,23.0 L 57.0,27.0 L 59.0,36.0 L 62.0,47.0 L 61.0,54.0 L 52.0,63.0 L 47.0,68.0 L 38.0,67.0 L 23.0,65.0 L 19.0,76.0 L 20.0,81.0 L 38.0,91.0 L 39.0,93.0 L 40.0,114.0 L 35.0,119.0 L 21.0,129.0 L 23.0,135.0 L 27.0,143.0 L 36.0,141.0 L 47.0,138.0 L 54.0,139.0 L 62.0,147.0 L 67.0,151.0 L 68.0,158.0 L 65.0,172.0 L 65.0,177.0 L 75.0,181.0 L 80.0,181.0 L 91.0,162.0 L 93.0,161.0 L 114.0,160.0 L 117.0,160.0 L 119.0,165.0 L 129.0,178.0 L 135.0,177.0 L 143.0,173.0 L 142.0,165.0 L 138.0,152.0 L 138.0,147.0 L 146.0,139.0 L 150.0,133.0 L 156.0,132.0 L 177.0,135.0 L 181.0,124.0 L 180.0,119.0 L 162.0,109.0 L 161.0,107.0 L 160.0,83.0 L 165.0,81.0 L 178.0,71.0 L 177.0,65.0 L 173.0,57.0 L 165.0,58.0 L 152.0,62.0 L 146.0,61.0 L 138.0,53.0 L 133.0,49.0 L 132.0,47.0 L 133.0,35.0 L 134.0,23.0 L 124.0,19.0 L 120.0,19.0" fill="#080808"/>
	<path d="M 93.0,68.0 L 105.0,68.0 L 115.0,71.0 L 124.0,78.0 L 130.0,87.0 L 132.0,93.0 L 132.0,106.0 L 128.0,116.0 L 122.0,124.0 L 115.0,129.0 L 106.0,132.0 L 93.0,132.0 L 84.0,128.0 L 76.0,122.0 L 71.0,115.0 L 68.0,105.0 L 68.0,93.0 L 72.0,84.0 L 78.0,76.0 L 87.0,70.0 L 93.0,68.0" fill="#FAFAFA"/>
	<path d="M 93.0,68.0 L 105.0,68.0 L 115.0,71.0 L 124.0,78.0 L 130.0,87.0 L 132.0,93.0 L 132.0,106.0 L 128.0,116.0 L 122.0,124.0 L 115.0,129.0 L 106.0,132.0 L 93.0,132.0 L 84.0,128.0 L 76.0,122.0 L 71.0,115.0 L 68.0,105.0 L 68.0,93.0 L 72.0,84.0 L 78.0,76.0 L 87.0,70.0 L 93.0,68.0 M 94.0,76.0 L 86.0,80.0 L 78.0,89.0 L 76.0,94.0 L 76.0,104.0 L 80.0,114.0 L 89.0,122.0 L 94.0,124.0 L 105.0,124.0 L 115.0,119.0 L 121.0,112.0 L 124.0,105.0 L 124.0,94.0 L 120.0,86.0 L 112.0,79.0 L 104.0,76.0 L 94.0,76.0" fill="#080808"/>
</svg>
