<?xml version="1.0" ?>
<svg baseProfile="full" height="600px" version="1.1" viewBox="-19.296000000000003 -19.296000000000003 230.592 230.592" width="600px" xmlns="http://www.w3.org/2000/svg" xmlns:ev="http://www.w3.org/2001/xml-events" xmlns:xlink="http://www.w3.org/1999/xlink">
	<defs/>
	<path d="M 0.0,0.0 L 192.0,0.0 L 192.0,192.0 L 0.0,192.0 L 0.0,0.0" fill="#FCFDFD"/>
	<path d="M 113.0,17.0 L 120.0,18.0 L 142.0,29.0 L 150.0,33.0 L 150.0,39.0 L 144.0,55.0 L 145.0,60.0 L 152.0,71.0 L 152.0,73.0 L 177.0,73.0 L 179.0,80.0 L 181.0,98.0 L 181.0,114.0 L 178.0,116.0 L 159.0,119.0 L 156.0,120.0 L 151.0,132.0 L 150.0,137.0 L 158.0,153.0 L 158.0,159.0 L 128.0,179.0 L 123.0,178.0 L 114.0,168.0 L 109.0,162.0 L 91.0,162.0 L 89.0,167.0 L 79.0,183.0 L 74.0,183.0 L 58.0,175.0 L 43.0,167.0 L 42.0,166.0 L 42.0,160.0 L 48.0,144.0 L 47.0,139.0 L 40.0,129.0 L 40.0,127.0 L 15.0,127.0 L 13.0,120.0 L 11.0,94.0 L 11.0,87.0 L 14.0,84.0 L 37.0,81.0 L 40.0,72.0 L 44.0,65.0 L 34.0,47.0 L 34.0,41.0 L 56.0,26.0 L 63.0,21.0 L 68.0,21.0 L 79.0,33.0 L 83.0,38.0 L 101.0,38.0 L 103.0,33.0 L 112.0,18.0 L 113.0,17.0" fill="#607D8A"/>
	<path d="M 88.0,52.0 L 103.0,52.0 L 117.0,56.0 L 130.0,65.0 L 138.0,76.0 L 142.0,85.0 L 144.0,95.0 L 144.0,106.0 L 142.0,116.0 L 137.0,126.0 L 128.0,136.0 L 123.0,140.0 L 113.0,145.0 L 104.0,148.0 L 89.0,148.0 L 76.0,144.0 L 66.0,138.0 L 58.0,130.0 L 52.0,120.0 L 49.0,112.0 L 48.0,105.0 L 48.0,92.0 L 51.0,81.0 L 57.0,71.0 L 67.0,61.0 L 83.0,53.0 L 88.0,52.0" fill="#465B65"/>
	<path d="M 91.0,80.0 L 100.0,80.0 L 109.0,84.0 L 115.0,92.0 L 116.0,94.0 L 116.0,105.0 L 111.0,114.0 L 106.0,118.0 L 101.0,120.0 L 91.0,120.0 L 81.0,114.0 L 77.0,107.0 L 76.0,104.0 L 76.0,95.0 L 80.0,87.0 L 88.0,81.0 L 91.0,80.0" fill="#FAFBFB"/>
</svg>
