<?xml version="1.0" ?>
<svg baseProfile="full" height="600px" version="1.1" viewBox="-19.296000000000003 -19.296000000000003 230.592 230.592" width="600px" xmlns="http://www.w3.org/2000/svg" xmlns:ev="http://www.w3.org/2001/xml-events" xmlns:xlink="http://www.w3.org/1999/xlink">
	<defs/>
	<path d="M 0.0,0.0 L 192.0,0.0 L 192.0,192.0 L 0.0,192.0 L 0.0,0.0" fill="#FCFDFD"/>
	<path d="M 86.0,15.0 L 103.0,16.0 L 121.0,18.0 L 126.0,20.0 L 127.0,45.0 L 138.0,53.0 L 142.0,54.0 L 160.0,48.0 L 165.0,49.0 L 173.0,65.0 L 180.0,81.0 L 180.0,86.0 L 175.0,90.0 L 160.0,98.0 L 158.0,116.0 L 171.0,129.0 L 174.0,132.0 L 173.0,137.0 L 159.0,155.0 L 152.0,164.0 L 147.0,165.0 L 129.0,154.0 L 124.0,156.0 L 114.0,160.0 L 112.0,160.0 L 111.0,169.0 L 107.0,184.0 L 106.0,185.0 L 89.0,184.0 L 71.0,182.0 L 66.0,180.0 L 65.0,155.0 L 54.0,147.0 L 49.0,146.0 L 31.0,152.0 L 27.0,151.0 L 20.0,137.0 L 12.0,119.0 L 12.0,114.0 L 20.0,109.0 L 33.0,102.0 L 35.0,84.0 L 19.0,69.0 L 18.0,65.0 L 32.0,46.0 L 39.0,37.0 L 41.0,35.0 L 47.0,36.0 L 62.0,45.0 L 68.0,44.0 L 77.0,40.0 L 80.0,40.0 L 82.0,26.0 L 84.0,17.0 L 86.0,15.0" fill="#607D8A"/>
	<path d="M 88.0,52.0 L 105.0,52.0 L 117.0,56.0 L 127.0,63.0 L 135.0,71.0 L 141.0,82.0 L 144.0,91.0 L 144.0,106.0 L 142.0,116.0 L 137.0,126.0 L 128.0,136.0 L 123.0,140.0 L 112.0,146.0 L 102.0,148.0 L 87.0,148.0 L 75.0,144.0 L 65.0,137.0 L 57.0,129.0 L 51.0,118.0 L 48.0,107.0 L 48.0,92.0 L 51.0,81.0 L 58.0,70.0 L 67.0,61.0 L 83.0,53.0 L 88.0,52.0" fill="#465B65"/>
	<path d="M 91.0,80.0 L 100.0,80.0 L 109.0,84.0 L 115.0,92.0 L 116.0,96.0 L 116.0,105.0 L 112.0,113.0 L 104.0,119.0 L 101.0,120.0 L 91.0,120.0 L 83.0,116.0 L 78.0,110.0 L 76.0,104.0 L 76.0,95.0 L 80.0,87.0 L 88.0,81.0 L 91.0,80.0" fill="#FAFBFB"/>
</svg>
