<?xml version="1.0" ?>
<svg baseProfile="full" height="600px" version="1.1" viewBox="-20.1 -20.1 240.2 240.2" width="600px" xmlns="http://www.w3.org/2000/svg" xmlns:ev="http://www.w3.org/2001/xml-events" xmlns:xlink="http://www.w3.org/1999/xlink">
	<defs/>
	<path d="M 0.0,0.0 L 200.0,0.0 L 200.0,200.0 L 0.0,200.0 L 0.0,0.0" fill="#FCFCFC"/>
	<path d="M 43.0,81.0 L 49.0,82.0 L 52.0,86.0 L 52.0,88.0 L 61.0,88.0 L 66.0,89.0 L 73.0,89.0 L 75.0,87.0 L 82.0,87.0 L 91.0,94.0 L 92.0,100.0 L 90.0,106.0 L 94.0,114.0 L 96.0,122.0 L 102.0,125.0 L 105.0,131.0 L 112.0,131.0 L 114.0,126.0 L 122.0,117.0 L 122.0,109.0 L 127.0,104.0 L 135.0,101.0 L 141.0,102.0 L 144.0,106.0 L 144.0,108.0 L 153.0,108.0 L 158.0,109.0 L 165.0,109.0 L 167.0,107.0 L 174.0,107.0 L 183.0,114.0 L 184.0,120.0 L 182.0,126.0 L 186.0,134.0 L 188.0,142.0 L 194.0,145.0 L 196.0,148.0 L 195.0,161.0 L 191.0,165.0 L 184.0,166.0 L 178.0,175.0 L 174.0,179.0 L 174.0,187.0 L 171.0,191.0 L 161.0,195.0 L 155.0,194.0 L 152.0,190.0 L 152.0,188.0 L 140.0,188.0 L 133.0,186.0 L 129.0,189.0 L 122.0,189.0 L 113.0,182.0 L 112.0,176.0 L 114.0,170.0 L 109.0,158.0 L 108.0,154.0 L 102.0,151.0 L 99.0,145.0 L 92.0,146.0 L 86.0,155.0 L 82.0,159.0 L 82.0,167.0 L 79.0,171.0 L 69.0,175.0 L 63.0,174.0 L 60.0,170.0 L 60.0,168.0 L 48.0,168.0 L 41.0,166.0 L 37.0,169.0 L 30.0,169.0 L 21.0,162.0 L 20.0,156.0 L 22.0,150.0 L 17.0,138.0 L 16.0,134.0 L 10.0,131.0 L 8.0,128.0 L 8.0,120.0 L 10.0,114.0 L 13.0,111.0 L 20.0,111.0 L 22.0,106.0 L 30.0,97.0 L 30.0,89.0 L 35.0,84.0 L 43.0,81.0" fill="#070707"/>
	<path d="M 130.0,9.0 L 135.0,10.0 L 144.0,14.0 L 146.0,17.0 L 146.0,25.0 L 154.0,34.0 L 156.0,39.0 L 163.0,39.0 L 167.0,43.0 L 168.0,47.0 L 168.0,56.0 L 165.0,60.0 L 160.0,62.0 L 157.0,72.0 L 154.0,78.0 L 156.0,87.0 L 153.0,92.0 L 146.0,97.0 L 139.0,97.0 L 134.0,94.0 L 126.0,96.0 L 116.0,96.0 L 114.0,101.0 L 107.0,103.0 L 97.0,99.0 L 94.0,95.0 L 94.0,87.0 L 86.0,78.0 L 84.0,74.0 L 77.0,73.0 L 73.0,69.0 L 72.0,56.0 L 77.0,51.0 L 80.0,50.0 L 83.0,39.0 L 86.0,34.0 L 84.0,25.0 L 87.0,20.0 L 94.0,15.0 L 101.0,15.0 L 106.0,18.0 L 112.0,16.0 L 124.0,16.0 L 126.0,11.0 L 130.0,9.0" fill="#F9F9F9"/>
	<path d="M 42.0,90.0 L 45.0,90.0 L 50.0,95.0 L 65.0,97.0 L 74.0,98.0 L 79.0,95.0 L 83.0,98.0 L 82.0,102.0 L 82.0,109.0 L 87.0,118.0 L 90.0,129.0 L 96.0,131.0 L 95.0,137.0 L 88.0,139.0 L 85.0,142.0 L 79.0,151.0 L 75.0,154.0 L 73.0,164.0 L 70.0,166.0 L 67.0,166.0 L 62.0,161.0 L 49.0,160.0 L 44.0,158.0 L 38.0,158.0 L 33.0,161.0 L 29.0,158.0 L 30.0,154.0 L 30.0,147.0 L 25.0,137.0 L 23.0,130.0 L 22.0,127.0 L 16.0,125.0 L 16.0,120.0 L 24.0,117.0 L 27.0,114.0 L 33.0,105.0 L 38.0,101.0 L 39.0,91.0 L 42.0,90.0" fill="#F9F9F9"/>
	<path d="M 134.0,110.0 L 137.0,110.0 L 142.0,115.0 L 157.0,117.0 L 166.0,118.0 L 171.0,115.0 L 175.0,118.0 L 174.0,122.0 L 174.0,129.0 L 179.0,138.0 L 182.0,149.0 L 188.0,151.0 L 187.0,157.0 L 180.0,159.0 L 177.0,162.0 L 171.0,171.0 L 167.0,174.0 L 165.0,184.0 L 162.0,186.0 L 159.0,186.0 L 154.0,181.0 L 138.0,179.0 L 136.0,178.0 L 130.0,178.0 L 125.0,181.0 L 121.0,178.0 L 122.0,174.0 L 122.0,167.0 L 117.0,157.0 L 115.0,150.0 L 114.0,147.0 L 108.0,145.0 L 108.0,140.0 L 116.0,137.0 L 119.0,134.0 L 125.0,125.0 L 130.0,121.0 L 131.0,111.0 L 134.0,110.0" fill="#F9F9F9"/>
	<path d="M 130.0,9.0 L 135.0,10.0 L 144.0,14.0 L 146.0,17.0 L 146.0,25.0 L 154.0,34.0 L 156.0,39.0 L 163.0,39.0 L 167.0,43.0 L 168.0,47.0 L 168.0,56.0 L 165.0,60.0 L 160.0,62.0 L 157.0,72.0 L 154.0,78.0 L 156.0,87.0 L 153.0,92.0 L 146.0,97.0 L 139.0,97.0 L 134.0,94.0 L 126.0,96.0 L 116.0,96.0 L 114.0,101.0 L 107.0,103.0 L 97.0,99.0 L 94.0,95.0 L 94.0,87.0 L 86.0,78.0 L 84.0,74.0 L 77.0,73.0 L 73.0,69.0 L 72.0,56.0 L 77.0,51.0 L 80.0,50.0 L 83.0,39.0 L 86.0,34.0 L 84.0,25.0 L 87.0,20.0 L 94.0,15.0 L 101.0,15.0 L 106.0,18.0 L 112.0,16.0 L 124.0,16.0 L 126.0,11.0 L 130.0,9.0 M 131.0,18.0 L 126.0,23.0 L 110.0,25.0 L 108.0,26.0 L 102.0,26.0 L 97.0,23.0 L 93.0,26.0 L 94.0,30.0 L 94.0,37.0 L 89.0,46.0 L 86.0,57.0 L 80.0,59.0 L 81.0,65.0 L 88.0,67.0 L 91.0,70.0 L 97.0,79.0 L 102.0,83.0 L 103.0,92.0 L 106.0,94.0 L 109.0,94.0 L 114.0,89.0 L 129.0,87.0 L 138.0,86.0 L 143.0,89.0 L 147.0,86.0 L 146.0,82.0 L 146.0,75.0 L 151.0,65.0 L 153.0,58.0 L 154.0,55.0 L 160.0,53.0 L 160.0,48.0 L 152.0,45.0 L 150.0,44.0 L 146.0,37.0 L 142.0,32.0 L 139.0,30.0 L 137.0,20.0 L 134.0,18.0 L 131.0,18.0" fill="#070707"/>
	<path d="M 116.0,36.0 L 125.0,36.0 L 133.0,40.0 L 139.0,48.0 L 140.0,51.0 L 140.0,61.0 L 136.0,69.0 L 128.0,75.0 L 125.0,76.0 L 115.0,76.0 L 107.0,72.0 L 101.0,64.0 L 100.0,61.0 L 100.0,51.0 L 104.0,43.0 L 112.0,37.0 L 116.0,36.0" fill="#080808"/>
	<path d="M 144.0,128.0 L 153.0,128.0 L 161.0,132.0 L 167.0,140.0 L 168.0,143.0 L 168.0,152.0 L 165.0,159.0 L 161.0,164.0 L 153.0,168.0 L 143.0,168.0 L 135.0,164.0 L 129.0,156.0 L 128.0,153.0 L 128.0,144.0 L 131.0,137.0 L 135.0,132.0 L 140.0,129.0 L 144.0,128.0" fill="#080808"/>
	<path d="M 52.0,108.0 L 61.0,108.0 L 69.0,112.0 L 75.0,120.0 L 76.0,123.0 L 76.0,132.0 L 73.0,139.0 L 69.0,144.0 L 61.0,148.0 L 51.0,148.0 L 43.0,144.0 L 37.0,136.0 L 36.0,133.0 L 36.0,124.0 L 39.0,117.0 L 43.0,112.0 L 48.0,109.0 L 52.0,108.0" fill="#080808"/>
	<path d="M 144.0,136.0 L 151.0,136.0 L 156.0,139.0 L 160.0,144.0 L 160.0,152.0 L 154.0,159.0 L 152.0,160.0 L 144.0,160.0 L 137.0,154.0 L 136.0,151.0 L 136.0,144.0 L 142.0,137.0 L 144.0,136.0" fill="#F7F7F7"/>
	<path d="M 52.0,116.0 L 59.0,116.0 L 64.0,119.0 L 68.0,124.0 L 68.0,132.0 L 62.0,139.0 L 60.0,140.0 L 52.0,140.0 L 45.0,134.0 L 44.0,131.0 L 44.0,124.0 L 50.0,117.0 L 52.0,116.0" fill="#F7F7F7"/>
	<path d="M 116.0,44.0 L 123.0,44.0 L 128.0,47.0 L 132.0,52.0 L 132.0,60.0 L 126.0,67.0 L 124.0,68.0 L 116.0,68.0 L 109.0,62.0 L 108.0,59.0 L 108.0,52.0 L 114.0,45.0 L 116.0,44.0" fill="#F7F7F7"/>
</svg>
