<?xml version="1.0" ?>
<svg baseProfile="full" height="600px" version="1.1" viewBox="-20.1 -20.1 240.2 240.2" width="600px" xmlns="http://www.w3.org/2000/svg" xmlns:ev="http://www.w3.org/2001/xml-events" xmlns:xlink="http://www.w3.org/1999/xlink">
	<defs/>
	<path d="M 0.0,0.0 L 200.0,0.0 L 200.0,200.0 L 0.0,200.0 L 0.0,0.0" fill="#FBFBFB"/>
	<path d="M 0.0,0.0 L 200.0,0.0 L 200.0,200.0 L 0.0,200.0 L 0.0,0.0 M 88.0,8.0 L 84.0,12.0 L 81.0,30.0 L 81.0,35.0 L 76.0,36.0 L 69.0,39.0 L 65.0,38.0 L 49.0,27.0 L 42.0,27.0 L 27.0,42.0 L 27.0,49.0 L 37.0,63.0 L 39.0,66.0 L 38.0,71.0 L 35.0,78.0 L 35.0,81.0 L 19.0,83.0 L 12.0,84.0 L 8.0,88.0 L 8.0,111.0 L 11.0,115.0 L 32.0,119.0 L 35.0,119.0 L 38.0,129.0 L 39.0,134.0 L 27.0,151.0 L 27.0,158.0 L 42.0,173.0 L 49.0,173.0 L 66.0,161.0 L 71.0,162.0 L 78.0,165.0 L 81.0,165.0 L 85.0,189.0 L 88.0,192.0 L 112.0,192.0 L 115.0,189.0 L 119.0,168.0 L 119.0,165.0 L 129.0,162.0 L 134.0,161.0 L 151.0,173.0 L 158.0,173.0 L 173.0,158.0 L 173.0,151.0 L 161.0,134.0 L 162.0,128.0 L 165.0,120.0 L 179.0,117.0 L 189.0,115.0 L 192.0,111.0 L 192.0,88.0 L 189.0,85.0 L 168.0,81.0 L 165.0,81.0 L 162.0,71.0 L 161.0,66.0 L 173.0,49.0 L 173.0,42.0 L 158.0,27.0 L 151.0,27.0 L 134.0,39.0 L 129.0,38.0 L 122.0,35.0 L 119.0,35.0 L 117.0,21.0 L 115.0,11.0 L 111.0,8.0 L 88.0,8.0" fill="#FCFCFC"/>
	<path d="M 88.0,8.0 L 111.0,8.0 L 115.0,11.0 L 119.0,32.0 L 119.0,35.0 L 124.0,36.0 L 131.0,39.0 L 135.0,38.0 L 151.0,27.0 L 158.0,27.0 L 173.0,42.0 L 173.0,49.0 L 161.0,66.0 L 162.0,71.0 L 165.0,81.0 L 180.0,83.0 L 189.0,85.0 L 192.0,88.0 L 192.0,111.0 L 189.0,115.0 L 168.0,119.0 L 165.0,120.0 L 161.0,130.0 L 162.0,135.0 L 173.0,151.0 L 173.0,158.0 L 158.0,173.0 L 151.0,173.0 L 134.0,161.0 L 129.0,162.0 L 119.0,165.0 L 117.0,179.0 L 115.0,189.0 L 112.0,192.0 L 88.0,192.0 L 85.0,189.0 L 81.0,165.0 L 75.0,164.0 L 69.0,161.0 L 64.0,162.0 L 49.0,173.0 L 42.0,173.0 L 27.0,158.0 L 27.0,151.0 L 39.0,134.0 L 38.0,129.0 L 35.0,119.0 L 21.0,117.0 L 11.0,115.0 L 8.0,111.0 L 8.0,88.0 L 12.0,84.0 L 31.0,81.0 L 35.0,81.0 L 36.0,75.0 L 39.0,69.0 L 38.0,65.0 L 30.0,53.0 L 27.0,49.0 L 27.0,42.0 L 42.0,27.0 L 49.0,27.0 L 66.0,39.0 L 71.0,38.0 L 78.0,35.0 L 81.0,35.0 L 82.0,24.0 L 84.0,12.0 L 88.0,8.0 M 92.0,16.0 L 89.0,31.0 L 88.0,39.0 L 83.0,42.0 L 71.0,47.0 L 63.0,47.0 L 48.0,36.0 L 44.0,37.0 L 36.0,45.0 L 37.0,49.0 L 47.0,63.0 L 48.0,64.0 L 48.0,70.0 L 43.0,80.0 L 40.0,87.0 L 39.0,88.0 L 19.0,91.0 L 16.0,92.0 L 16.0,108.0 L 39.0,112.0 L 42.0,116.0 L 46.0,127.0 L 47.0,129.0 L 47.0,137.0 L 36.0,152.0 L 37.0,156.0 L 45.0,164.0 L 50.0,162.0 L 64.0,152.0 L 70.0,152.0 L 80.0,157.0 L 87.0,160.0 L 89.0,167.0 L 92.0,184.0 L 108.0,184.0 L 112.0,161.0 L 116.0,158.0 L 128.0,153.0 L 130.0,152.0 L 136.0,152.0 L 151.0,163.0 L 155.0,164.0 L 164.0,155.0 L 163.0,151.0 L 153.0,137.0 L 152.0,136.0 L 152.0,130.0 L 157.0,119.0 L 159.0,114.0 L 161.0,112.0 L 184.0,108.0 L 184.0,92.0 L 161.0,88.0 L 158.0,84.0 L 153.0,72.0 L 152.0,70.0 L 152.0,64.0 L 163.0,49.0 L 164.0,45.0 L 155.0,36.0 L 151.0,37.0 L 137.0,47.0 L 136.0,48.0 L 130.0,48.0 L 119.0,43.0 L 113.0,40.0 L 112.0,39.0 L 108.0,16.0 L 92.0,16.0" fill="#080808"/>
	<path d="M 93.0,68.0 L 107.0,68.0 L 121.0,75.0 L 127.0,82.0 L 131.0,90.0 L 132.0,93.0 L 132.0,104.0 L 129.0,115.0 L 122.0,124.0 L 115.0,129.0 L 106.0,132.0 L 93.0,132.0 L 84.0,128.0 L 76.0,122.0 L 70.0,112.0 L 68.0,105.0 L 68.0,93.0 L 72.0,84.0 L 78.0,76.0 L 87.0,70.0 L 93.0,68.0" fill="#FAFAFA"/>
	<path d="M 93.0,68.0 L 107.0,68.0 L 121.0,75.0 L 127.0,82.0 L 131.0,90.0 L 132.0,93.0 L 132.0,104.0 L 129.0,115.0 L 122.0,124.0 L 115.0,129.0 L 106.0,132.0 L 93.0,132.0 L 84.0,128.0 L 76.0,122.0 L 70.0,112.0 L 68.0,105.0 L 68.0,93.0 L 72.0,84.0 L 78.0,76.0 L 87.0,70.0 L 93.0,68.0 M 94.0,76.0 L 86.0,80.0 L 78.0,89.0 L 76.0,94.0 L 76.0,105.0 L 81.0,115.0 L 89.0,122.0 L 94.0,124.0 L 105.0,124.0 L 115.0,119.0 L 121.0,112.0 L 124.0,105.0 L 124.0,94.0 L 120.0,86.0 L 112.0,79.0 L 105.0,76.0 L 94.0,76.0" fill="#080808"/>
</svg>
