<?xml version="1.0" ?>
<svg baseProfile="full" height="600px" version="1.1" viewBox="-20.1 -20.1 240.2 240.2" width="600px" xmlns="http://www.w3.org/2000/svg" xmlns:ev="http://www.w3.org/2001/xml-events" xmlns:xlink="http://www.w3.org/1999/xlink">
	<defs/>
	<path d="M 0.0,0.0 L 200.0,0.0 L 200.0,200.0 L 0.0,200.0 L 0.0,0.0" fill="#FCFCFC"/>
	<path d="M 0.0,0.0 L 200.0,0.0 L 200.0,200.0 L 106.0,200.0 L 106.0,199.0 L 116.0,196.0 L 122.0,192.0 L 128.0,185.0 L 134.0,176.0 L 137.0,173.0 L 148.0,169.0 L 153.0,165.0 L 158.0,157.0 L 163.0,140.0 L 168.0,135.0 L 174.0,133.0 L 190.0,132.0 L 191.0,131.0 L 191.0,111.0 L 188.0,99.0 L 184.0,91.0 L 179.0,85.0 L 169.0,79.0 L 156.0,75.0 L 151.0,63.0 L 144.0,44.0 L 137.0,33.0 L 132.0,28.0 L 124.0,22.0 L 114.0,18.0 L 109.0,17.0 L 90.0,17.0 L 77.0,21.0 L 68.0,27.0 L 64.0,29.0 L 62.0,33.0 L 56.0,43.0 L 50.0,58.0 L 46.0,70.0 L 41.0,76.0 L 31.0,80.0 L 23.0,86.0 L 15.0,95.0 L 10.0,107.0 L 9.0,112.0 L 9.0,122.0 L 16.0,124.0 L 24.0,126.0 L 31.0,130.0 L 34.0,135.0 L 37.0,155.0 L 42.0,163.0 L 50.0,167.0 L 63.0,172.0 L 69.0,179.0 L 75.0,189.0 L 83.0,196.0 L 91.0,199.0 L 91.0,200.0 L 0.0,200.0 L 0.0,0.0" fill="#FDFDFD"/>
	<path d="M 90.0,16.0 L 109.0,16.0 L 122.0,20.0 L 131.0,26.0 L 136.0,31.0 L 143.0,40.0 L 149.0,54.0 L 155.0,71.0 L 156.0,75.0 L 166.0,77.0 L 176.0,82.0 L 182.0,87.0 L 187.0,94.0 L 191.0,105.0 L 192.0,111.0 L 192.0,131.0 L 190.0,133.0 L 174.0,134.0 L 166.0,137.0 L 163.0,142.0 L 159.0,157.0 L 153.0,166.0 L 144.0,172.0 L 136.0,175.0 L 130.0,183.0 L 124.0,191.0 L 118.0,196.0 L 111.0,199.0 L 106.0,200.0 L 91.0,200.0 L 81.0,196.0 L 73.0,188.0 L 66.0,176.0 L 61.0,172.0 L 43.0,165.0 L 38.0,159.0 L 36.0,155.0 L 33.0,135.0 L 30.0,130.0 L 22.0,126.0 L 10.0,124.0 L 8.0,122.0 L 8.0,112.0 L 12.0,99.0 L 18.0,90.0 L 26.0,82.0 L 37.0,76.0 L 42.0,74.0 L 46.0,68.0 L 53.0,47.0 L 60.0,34.0 L 64.0,29.0 L 75.0,21.0 L 85.0,17.0 L 90.0,16.0 M 91.0,24.0 L 78.0,28.0 L 68.0,37.0 L 62.0,47.0 L 53.0,71.0 L 47.0,80.0 L 32.0,88.0 L 23.0,96.0 L 17.0,108.0 L 17.0,117.0 L 30.0,121.0 L 38.0,128.0 L 42.0,136.0 L 44.0,154.0 L 46.0,158.0 L 63.0,164.0 L 72.0,170.0 L 81.0,185.0 L 87.0,190.0 L 96.0,192.0 L 107.0,192.0 L 116.0,188.0 L 123.0,179.0 L 127.0,173.0 L 134.0,167.0 L 146.0,161.0 L 151.0,155.0 L 156.0,138.0 L 160.0,132.0 L 168.0,127.0 L 184.0,125.0 L 184.0,115.0 L 182.0,103.0 L 178.0,95.0 L 169.0,87.0 L 155.0,82.0 L 148.0,74.0 L 142.0,60.0 L 136.0,45.0 L 130.0,36.0 L 125.0,31.0 L 119.0,27.0 L 108.0,24.0 L 91.0,24.0" fill="#080808"/>
	<path d="M 104.0,58.0 L 109.0,59.0 L 112.0,64.0 L 112.0,75.0 L 108.0,82.0 L 103.0,81.0 L 100.0,75.0 L 100.0,64.0 L 103.0,59.0 L 104.0,58.0" fill="#0A0A0A"/>
	<path d="M 76.0,58.0 L 81.0,59.0 L 84.0,64.0 L 84.0,75.0 L 80.0,82.0 L 75.0,81.0 L 72.0,75.0 L 72.0,64.0 L 75.0,59.0 L 76.0,58.0" fill="#0A0A0A"/>
</svg>
