<?xml version="1.0" ?>
<svg baseProfile="full" height="600px" version="1.1" viewBox="-12.06 -12.06 144.12 144.12" width="600px" xmlns="http://www.w3.org/2000/svg" xmlns:ev="http://www.w3.org/2001/xml-events" xmlns:xlink="http://www.w3.org/1999/xlink">
	<defs/>
	<path d="M 0.0,0.0 L 120.0,0.0 L 120.0,120.0 L 0.0,120.0 L 0.0,0.0" fill="#FCFCFC"/>
	<path d="M 51.0,22.0 L 67.0,22.0 L 74.0,25.0 L 79.0,30.0 L 83.0,36.0 L 89.0,51.0 L 89.0,53.0 L 99.0,56.0 L 104.0,61.0 L 108.0,69.0 L 108.0,82.0 L 96.0,84.0 L 93.0,87.0 L 89.0,98.0 L 84.0,102.0 L 78.0,105.0 L 70.0,115.0 L 66.0,117.0 L 53.0,117.0 L 47.0,112.0 L 42.0,104.0 L 30.0,99.0 L 27.0,95.0 L 26.0,84.0 L 22.0,80.0 L 12.0,78.0 L 12.0,71.0 L 17.0,61.0 L 24.0,55.0 L 30.0,52.0 L 34.0,43.0 L 38.0,33.0 L 45.0,25.0 L 51.0,22.0" fill="#020202"/>
	<path d="M 75.0,45.0 L 80.0,46.0 L 81.0,48.0 L 81.0,54.0 L 79.0,57.0 L 74.0,56.0 L 73.0,54.0 L 73.0,48.0 L 75.0,45.0" fill="#ECECEC"/>
	<path d="M 59.0,45.0 L 64.0,46.0 L 65.0,48.0 L 65.0,54.0 L 63.0,57.0 L 58.0,56.0 L 57.0,54.0 L 57.0,48.0 L 59.0,45.0" fill="#ECECEC"/>
</svg>
