<?xml version="1.0" ?>
<svg baseProfile="full" height="600px" version="1.1" viewBox="-12.06 -12.06 144.12 144.12" width="600px" xmlns="http://www.w3.org/2000/svg" xmlns:ev="http://www.w3.org/2001/xml-events" xmlns:xlink="http://www.w3.org/1999/xlink">
	<defs/>
	<path d="M 0.0,0.0 L 120.0,0.0 L 120.0,120.0 L 0.0,120.0 L 0.0,0.0" fill="#FCFCFC"/>
	<path d="M 53.0,7.0 L 65.0,7.0 L 74.0,10.0 L 81.0,18.0 L 87.0,32.0 L 90.0,38.0 L 99.0,42.0 L 104.0,46.0 L 107.0,51.0 L 108.0,55.0 L 108.0,67.0 L 97.0,69.0 L 93.0,73.0 L 89.0,84.0 L 83.0,88.0 L 77.0,91.0 L 71.0,100.0 L 65.0,103.0 L 54.0,103.0 L 48.0,99.0 L 42.0,90.0 L 34.0,86.0 L 28.0,83.0 L 26.0,70.0 L 21.0,65.0 L 12.0,63.0 L 12.0,56.0 L 16.0,48.0 L 23.0,41.0 L 29.0,38.0 L 31.0,38.0 L 34.0,29.0 L 39.0,17.0 L 43.0,12.0 L 53.0,7.0" fill="#020202"/>
	<path d="M 75.0,31.0 L 80.0,32.0 L 81.0,39.0 L 79.0,42.0 L 74.0,41.0 L 73.0,40.0 L 73.0,33.0 L 75.0,31.0" fill="#EDEDED"/>
	<path d="M 59.0,31.0 L 64.0,32.0 L 65.0,39.0 L 63.0,42.0 L 58.0,41.0 L 57.0,40.0 L 57.0,33.0 L 59.0,31.0" fill="#EDEDED"/>
</svg>
