<?xml version="1.0" ?>
<svg baseProfile="full" height="600px" version="1.1" viewBox="-20.1 -20.1 240.2 240.2" width="600px" xmlns="http://www.w3.org/2000/svg" xmlns:ev="http://www.w3.org/2001/xml-events" xmlns:xlink="http://www.w3.org/1999/xlink">
	<defs/>
	<path d="M 0.0,0.0 L 200.0,0.0 L 200.0,200.0 L 0.0,200.0 L 0.0,0.0" fill="#FCFCFC"/>
	<path d="M 0.0,0.0 L 90.0,0.0 L 90.0,1.0 L 77.0,5.0 L 68.0,11.0 L 64.0,13.0 L 62.0,17.0 L 56.0,27.0 L 50.0,42.0 L 46.0,54.0 L 41.0,60.0 L 31.0,64.0 L 23.0,70.0 L 15.0,79.0 L 10.0,91.0 L 9.0,96.0 L 9.0,106.0 L 16.0,108.0 L 24.0,110.0 L 31.0,114.0 L 34.0,119.0 L 37.0,139.0 L 42.0,147.0 L 50.0,151.0 L 63.0,156.0 L 69.0,163.0 L 75.0,173.0 L 83.0,180.0 L 91.0,183.0 L 106.0,183.0 L 116.0,180.0 L 122.0,176.0 L 128.0,169.0 L 134.0,160.0 L 137.0,157.0 L 148.0,153.0 L 153.0,149.0 L 158.0,141.0 L 163.0,124.0 L 168.0,119.0 L 174.0,117.0 L 190.0,116.0 L 191.0,115.0 L 191.0,95.0 L 188.0,83.0 L 184.0,75.0 L 179.0,69.0 L 169.0,63.0 L 156.0,59.0 L 151.0,47.0 L 144.0,28.0 L 137.0,17.0 L 132.0,12.0 L 124.0,6.0 L 114.0,2.0 L 109.0,1.0 L 109.0,0.0 L 200.0,0.0 L 200.0,200.0 L 0.0,200.0 L 0.0,0.0" fill="#FDFDFD"/>
	<path d="M 90.0,0.0 L 109.0,0.0 L 122.0,4.0 L 131.0,10.0 L 136.0,15.0 L 143.0,24.0 L 149.0,38.0 L 155.0,55.0 L 156.0,59.0 L 166.0,61.0 L 176.0,66.0 L 182.0,71.0 L 187.0,78.0 L 191.0,89.0 L 192.0,95.0 L 192.0,115.0 L 190.0,117.0 L 174.0,118.0 L 166.0,121.0 L 163.0,126.0 L 159.0,141.0 L 153.0,150.0 L 144.0,156.0 L 136.0,159.0 L 130.0,167.0 L 124.0,175.0 L 118.0,180.0 L 111.0,183.0 L 106.0,184.0 L 91.0,184.0 L 81.0,180.0 L 73.0,172.0 L 66.0,160.0 L 61.0,156.0 L 43.0,149.0 L 38.0,143.0 L 36.0,139.0 L 33.0,119.0 L 30.0,114.0 L 22.0,110.0 L 10.0,108.0 L 8.0,106.0 L 8.0,96.0 L 12.0,83.0 L 18.0,74.0 L 26.0,66.0 L 37.0,60.0 L 42.0,58.0 L 46.0,52.0 L 53.0,31.0 L 60.0,18.0 L 64.0,13.0 L 75.0,5.0 L 85.0,1.0 L 90.0,0.0 M 91.0,8.0 L 78.0,12.0 L 68.0,21.0 L 62.0,31.0 L 53.0,55.0 L 47.0,64.0 L 32.0,72.0 L 23.0,80.0 L 17.0,92.0 L 17.0,101.0 L 30.0,105.0 L 38.0,112.0 L 42.0,120.0 L 44.0,138.0 L 46.0,142.0 L 63.0,148.0 L 72.0,154.0 L 81.0,169.0 L 87.0,174.0 L 96.0,176.0 L 107.0,176.0 L 116.0,172.0 L 123.0,163.0 L 127.0,157.0 L 134.0,151.0 L 146.0,145.0 L 151.0,139.0 L 156.0,122.0 L 160.0,116.0 L 168.0,111.0 L 184.0,109.0 L 184.0,99.0 L 182.0,87.0 L 178.0,79.0 L 169.0,71.0 L 155.0,66.0 L 148.0,58.0 L 142.0,44.0 L 136.0,29.0 L 130.0,20.0 L 125.0,15.0 L 119.0,11.0 L 108.0,8.0 L 91.0,8.0" fill="#080808"/>
	<path d="M 124.0,43.0 L 129.0,44.0 L 133.0,50.0 L 133.0,57.0 L 130.0,63.0 L 124.0,64.0 L 121.0,61.0 L 120.0,59.0 L 120.0,48.0 L 124.0,43.0" fill="#090909"/>
	<path d="M 96.0,43.0 L 101.0,44.0 L 105.0,50.0 L 105.0,57.0 L 102.0,63.0 L 96.0,64.0 L 93.0,61.0 L 92.0,59.0 L 92.0,48.0 L 96.0,43.0" fill="#090909"/>
</svg>
