<?xml version="1.0" ?>
<svg baseProfile="full" height="600px" version="1.1" viewBox="-12.06 -12.06 144.12 144.12" width="600px" xmlns="http://www.w3.org/2000/svg" xmlns:ev="http://www.w3.org/2001/xml-events" xmlns:xlink="http://www.w3.org/1999/xlink">
	<defs/>
	<path d="M 0.0,0.0 L 120.0,0.0 L 120.0,120.0 L 0.0,120.0 L 0.0,0.0" fill="#FCFCFC"/>
	<path d="M 54.0,9.0 L 65.0,9.0 L 75.0,13.0 L 81.0,20.0 L 86.0,32.0 L 90.0,40.0 L 102.0,46.0 L 106.0,51.0 L 108.0,57.0 L 108.0,69.0 L 98.0,71.0 L 94.0,73.0 L 89.0,86.0 L 84.0,90.0 L 78.0,93.0 L 70.0,103.0 L 65.0,105.0 L 53.0,105.0 L 47.0,100.0 L 41.0,91.0 L 29.0,86.0 L 27.0,83.0 L 26.0,72.0 L 23.0,68.0 L 12.0,65.0 L 13.0,56.0 L 18.0,48.0 L 24.0,43.0 L 31.0,39.0 L 38.0,21.0 L 45.0,13.0 L 50.0,10.0 L 54.0,9.0" fill="#020202"/>
	<path d="M 74.0,37.0 L 80.0,37.0 L 81.0,40.0 L 74.0,41.0 L 74.0,37.0" fill="#E8E8E8"/>
	<path d="M 58.0,37.0 L 64.0,37.0 L 65.0,40.0 L 58.0,41.0 L 58.0,37.0" fill="#E8E8E8"/>
</svg>
