<?xml version="1.0" ?>
<svg baseProfile="full" height="600px" version="1.1" viewBox="-19.296000000000003 -19.296000000000003 230.592 230.592" width="600px" xmlns="http://www.w3.org/2000/svg" xmlns:ev="http://www.w3.org/2001/xml-events" xmlns:xlink="http://www.w3.org/1999/xlink">
	<defs/>
	<path d="M 0.0,0.0 L 192.0,0.0 L 192.0,192.0 L 0.0,192.0 L 0.0,0.0" fill="#FDFEFE"/>
	<path d="M 93.0,23.0 L 108.0,23.0 L 121.0,28.0 L 127.0,33.0 L 134.0,44.0 L 142.0,65.0 L 147.0,70.0 L 157.0,77.0 L 163.0,85.0 L 168.0,95.0 L 172.0,111.0 L 172.0,119.0 L 163.0,121.0 L 153.0,127.0 L 147.0,133.0 L 140.0,147.0 L 132.0,153.0 L 122.0,157.0 L 112.0,168.0 L 105.0,171.0 L 94.0,171.0 L 86.0,166.0 L 77.0,156.0 L 66.0,152.0 L 60.0,147.0 L 51.0,131.0 L 41.0,123.0 L 28.0,119.0 L 29.0,105.0 L 34.0,90.0 L 43.0,77.0 L 51.0,71.0 L 56.0,68.0 L 61.0,57.0 L 66.0,44.0 L 73.0,33.0 L 81.0,27.0 L 88.0,24.0 L 93.0,23.0" fill="#BADDF9"/>
	<path d="M 118.0,102.0 L 120.0,103.0 L 127.0,120.0 L 132.0,143.0 L 132.0,153.0 L 127.0,155.0 L 124.0,155.0 L 123.0,132.0 L 119.0,108.0 L 118.0,102.0" fill="#93CBF9"/>
	<path d="M 81.0,101.0 L 82.0,103.0 L 78.0,120.0 L 75.0,155.0 L 68.0,153.0 L 67.0,152.0 L 68.0,140.0 L 73.0,119.0 L 78.0,106.0 L 81.0,101.0" fill="#93CBF9"/>
	<path d="M 117.0,55.0 L 124.0,56.0 L 128.0,61.0 L 128.0,68.0 L 125.0,73.0 L 123.0,75.0 L 117.0,75.0 L 112.0,69.0 L 112.0,61.0 L 117.0,55.0" fill="#485E68"/>
	<path d="M 93.0,55.0 L 100.0,56.0 L 104.0,61.0 L 104.0,68.0 L 101.0,73.0 L 99.0,75.0 L 93.0,75.0 L 88.0,69.0 L 88.0,61.0 L 93.0,55.0" fill="#485E68"/>
	<path d="M 62.0,89.0 L 62.0,92.0 L 58.0,102.0 L 53.0,123.0 L 52.0,130.0 L 48.0,128.0 L 44.0,125.0 L 45.0,117.0 L 53.0,101.0 L 61.0,90.0 L 62.0,89.0" fill="#93CBF9"/>
	<path d="M 138.0,91.0 L 143.0,96.0 L 151.0,108.0 L 155.0,120.0 L 155.0,126.0 L 148.0,131.0 L 144.0,111.0 L 138.0,93.0 L 138.0,91.0" fill="#92CBF9"/>
</svg>
