<?xml version="1.0" ?>
<svg baseProfile="full" height="600px" version="1.1" viewBox="-12.06 -12.06 144.12 144.12" width="600px" xmlns="http://www.w3.org/2000/svg" xmlns:ev="http://www.w3.org/2001/xml-events" xmlns:xlink="http://www.w3.org/1999/xlink">
	<defs/>
	<path d="M 0.0,0.0 L 120.0,0.0 L 120.0,120.0 L 0.0,120.0 L 0.0,0.0" fill="#FCFCFC"/>
	<path d="M 54.0,14.0 L 65.0,14.0 L 75.0,18.0 L 81.0,25.0 L 86.0,37.0 L 90.0,45.0 L 102.0,51.0 L 107.0,59.0 L 108.0,62.0 L 108.0,74.0 L 98.0,76.0 L 94.0,78.0 L 89.0,91.0 L 84.0,95.0 L 78.0,98.0 L 74.0,103.0 L 70.0,108.0 L 65.0,110.0 L 55.0,110.0 L 49.0,107.0 L 42.0,97.0 L 33.0,93.0 L 28.0,90.0 L 27.0,88.0 L 26.0,77.0 L 23.0,73.0 L 18.0,71.0 L 12.0,70.0 L 13.0,61.0 L 18.0,53.0 L 24.0,48.0 L 30.0,45.0 L 34.0,36.0 L 39.0,24.0 L 46.0,17.0 L 54.0,14.0" fill="#020202"/>
	<path d="M 75.0,39.0 L 80.0,40.0 L 81.0,41.0 L 81.0,46.0 L 78.0,49.0 L 74.0,48.0 L 73.0,41.0 L 75.0,39.0" fill="#ECECEC"/>
	<path d="M 59.0,39.0 L 64.0,40.0 L 65.0,41.0 L 65.0,46.0 L 62.0,49.0 L 58.0,48.0 L 57.0,41.0 L 59.0,39.0" fill="#ECECEC"/>
</svg>
