<?xml version="1.0" ?>
<svg baseProfile="full" height="600px" version="1.1" viewBox="-19.296000000000003 -19.296000000000003 230.592 230.592" width="600px" xmlns="http://www.w3.org/2000/svg" xmlns:ev="http://www.w3.org/2001/xml-events" xmlns:xlink="http://www.w3.org/1999/xlink">
	<defs/>
	<path d="M 0.0,0.0 L 192.0,0.0 L 192.0,192.0 L 0.0,192.0 L 0.0,0.0" fill="#FDFEFE"/>
	<path d="M 92.0,32.0 L 109.0,32.0 L 121.0,37.0 L 128.0,43.0 L 136.0,57.0 L 142.0,73.0 L 146.0,79.0 L 155.0,84.0 L 161.0,91.0 L 166.0,99.0 L 171.0,114.0 L 172.0,119.0 L 172.0,128.0 L 161.0,131.0 L 152.0,137.0 L 146.0,144.0 L 140.0,156.0 L 132.0,162.0 L 122.0,166.0 L 113.0,176.0 L 105.0,180.0 L 97.0,180.0 L 88.0,177.0 L 81.0,170.0 L 77.0,165.0 L 66.0,161.0 L 61.0,157.0 L 56.0,149.0 L 52.0,141.0 L 43.0,133.0 L 32.0,129.0 L 28.0,128.0 L 28.0,120.0 L 32.0,104.0 L 38.0,92.0 L 44.0,85.0 L 53.0,79.0 L 57.0,75.0 L 67.0,51.0 L 73.0,42.0 L 81.0,36.0 L 84.0,34.0 L 92.0,32.0" fill="#BADDF9"/>
	<path d="M 119.0,113.0 L 121.0,114.0 L 127.0,130.0 L 131.0,146.0 L 132.0,153.0 L 132.0,162.0 L 124.0,163.0 L 122.0,133.0 L 119.0,116.0 L 119.0,113.0" fill="#92CBF9"/>
	<path d="M 80.0,112.0 L 81.0,115.0 L 78.0,128.0 L 76.0,146.0 L 75.0,163.0 L 68.0,162.0 L 67.0,159.0 L 68.0,148.0 L 73.0,129.0 L 77.0,117.0 L 80.0,112.0" fill="#92CBF9"/>
	<path d="M 105.0,64.0 L 111.0,64.0 L 116.0,70.0 L 116.0,78.0 L 112.0,83.0 L 105.0,84.0 L 101.0,80.0 L 100.0,77.0 L 100.0,70.0 L 105.0,64.0" fill="#485E68"/>
	<path d="M 81.0,64.0 L 87.0,64.0 L 92.0,70.0 L 92.0,78.0 L 88.0,83.0 L 81.0,84.0 L 77.0,80.0 L 76.0,77.0 L 76.0,70.0 L 81.0,64.0" fill="#485E68"/>
	<path d="M 62.0,98.0 L 63.0,100.0 L 59.0,109.0 L 54.0,126.0 L 52.0,139.0 L 48.0,137.0 L 44.0,134.0 L 45.0,127.0 L 49.0,117.0 L 55.0,107.0 L 62.0,98.0" fill="#92CBF9"/>
	<path d="M 138.0,100.0 L 143.0,105.0 L 149.0,114.0 L 153.0,122.0 L 155.0,128.0 L 155.0,134.0 L 150.0,139.0 L 148.0,139.0 L 143.0,116.0 L 138.0,103.0 L 138.0,100.0" fill="#92CBF9"/>
</svg>
