<?xml version="1.0" ?>
<svg baseProfile="full" height="600px" version="1.1" viewBox="-12.06 -12.06 144.12 144.12" width="600px" xmlns="http://www.w3.org/2000/svg" xmlns:ev="http://www.w3.org/2001/xml-events" xmlns:xlink="http://www.w3.org/1999/xlink">
	<defs/>
	<path d="M 0.0,0.0 L 120.0,0.0 L 120.0,120.0 L 0.0,120.0 L 0.0,0.0" fill="#FCFCFC"/>
	<path d="M 55.0,19.0 L 65.0,19.0 L 75.0,23.0 L 81.0,30.0 L 86.0,42.0 L 90.0,50.0 L 102.0,56.0 L 106.0,61.0 L 108.0,67.0 L 108.0,79.0 L 98.0,81.0 L 94.0,83.0 L 89.0,96.0 L 84.0,100.0 L 77.0,103.0 L 71.0,112.0 L 65.0,115.0 L 54.0,115.0 L 48.0,111.0 L 42.0,102.0 L 33.0,98.0 L 28.0,95.0 L 27.0,93.0 L 26.0,82.0 L 23.0,78.0 L 12.0,75.0 L 13.0,66.0 L 18.0,58.0 L 24.0,53.0 L 31.0,49.0 L 38.0,31.0 L 45.0,23.0 L 50.0,20.0 L 55.0,19.0" fill="#020202"/>
	<path d="M 75.0,43.0 L 80.0,44.0 L 81.0,46.0 L 81.0,52.0 L 78.0,55.0 L 74.0,54.0 L 73.0,52.0 L 73.0,45.0 L 75.0,43.0" fill="#EDEDED"/>
	<path d="M 59.0,43.0 L 64.0,44.0 L 65.0,46.0 L 65.0,52.0 L 62.0,55.0 L 58.0,54.0 L 57.0,52.0 L 57.0,45.0 L 59.0,43.0" fill="#EDEDED"/>
</svg>
