<?xml version="1.0" ?>
<svg baseProfile="full" height="600px" version="1.1" viewBox="-20.1 -20.1 240.2 240.2" width="600px" xmlns="http://www.w3.org/2000/svg" xmlns:ev="http://www.w3.org/2001/xml-events" xmlns:xlink="http://www.w3.org/1999/xlink">
	<defs/>
	<path d="M 0.0,0.0 L 200.0,0.0 L 200.0,200.0 L 0.0,200.0 L 0.0,0.0" fill="#FCFCFC"/>
	<path d="M 0.0,0.0 L 200.0,0.0 L 200.0,200.0 L 0.0,200.0 L 0.0,0.0 M 88.0,6.0 L 76.0,10.0 L 66.0,17.0 L 59.0,25.0 L 52.0,39.0 L 44.0,62.0 L 39.0,65.0 L 27.0,71.0 L 18.0,79.0 L 10.0,93.0 L 8.0,100.0 L 8.0,112.0 L 10.0,114.0 L 25.0,117.0 L 31.0,121.0 L 34.0,127.0 L 35.0,140.0 L 38.0,149.0 L 43.0,154.0 L 48.0,157.0 L 62.0,162.0 L 67.0,167.0 L 74.0,179.0 L 82.0,186.0 L 93.0,190.0 L 106.0,190.0 L 117.0,186.0 L 125.0,180.0 L 135.0,165.0 L 147.0,160.0 L 155.0,153.0 L 160.0,143.0 L 164.0,130.0 L 169.0,125.0 L 172.0,124.0 L 190.0,123.0 L 192.0,121.0 L 192.0,101.0 L 189.0,88.0 L 183.0,78.0 L 175.0,71.0 L 165.0,66.0 L 156.0,63.0 L 147.0,38.0 L 140.0,25.0 L 131.0,15.0 L 123.0,10.0 L 114.0,7.0 L 109.0,6.0 L 88.0,6.0" fill="#FDFDFD"/>
	<path d="M 88.0,6.0 L 109.0,6.0 L 120.0,9.0 L 128.0,13.0 L 137.0,21.0 L 144.0,32.0 L 150.0,46.0 L 156.0,63.0 L 165.0,66.0 L 175.0,71.0 L 184.0,79.0 L 190.0,91.0 L 192.0,101.0 L 192.0,121.0 L 190.0,123.0 L 172.0,124.0 L 166.0,127.0 L 162.0,135.0 L 158.0,148.0 L 154.0,154.0 L 147.0,160.0 L 135.0,165.0 L 125.0,180.0 L 117.0,186.0 L 106.0,190.0 L 93.0,190.0 L 82.0,186.0 L 74.0,179.0 L 67.0,167.0 L 62.0,162.0 L 45.0,156.0 L 40.0,152.0 L 37.0,147.0 L 35.0,140.0 L 34.0,127.0 L 31.0,121.0 L 25.0,117.0 L 10.0,114.0 L 8.0,112.0 L 8.0,100.0 L 12.0,89.0 L 19.0,78.0 L 29.0,70.0 L 39.0,65.0 L 44.0,62.0 L 54.0,34.0 L 60.0,24.0 L 68.0,15.0 L 78.0,9.0 L 88.0,6.0 M 88.0,14.0 L 76.0,19.0 L 69.0,25.0 L 63.0,35.0 L 53.0,61.0 L 47.0,69.0 L 39.0,74.0 L 30.0,79.0 L 23.0,86.0 L 17.0,98.0 L 16.0,106.0 L 22.0,108.0 L 32.0,112.0 L 37.0,116.0 L 42.0,126.0 L 43.0,131.0 L 44.0,145.0 L 46.0,148.0 L 64.0,154.0 L 72.0,160.0 L 78.0,170.0 L 84.0,178.0 L 90.0,181.0 L 109.0,181.0 L 115.0,178.0 L 122.0,170.0 L 129.0,160.0 L 138.0,155.0 L 146.0,151.0 L 150.0,146.0 L 154.0,135.0 L 157.0,126.0 L 162.0,120.0 L 170.0,116.0 L 184.0,115.0 L 184.0,102.0 L 181.0,90.0 L 175.0,81.0 L 165.0,75.0 L 154.0,71.0 L 148.0,64.0 L 142.0,50.0 L 136.0,34.0 L 128.0,23.0 L 119.0,17.0 L 110.0,14.0 L 88.0,14.0" fill="#090909"/>
	<path d="M 124.0,49.0 L 130.0,50.0 L 133.0,56.0 L 132.0,65.0 L 128.0,70.0 L 123.0,69.0 L 120.0,65.0 L 119.0,56.0 L 122.0,50.0 L 124.0,49.0" fill="#0D0D0D"/>
	<path d="M 96.0,49.0 L 102.0,50.0 L 105.0,56.0 L 104.0,65.0 L 100.0,70.0 L 95.0,69.0 L 92.0,65.0 L 91.0,56.0 L 94.0,50.0 L 96.0,49.0" fill="#0C0C0C"/>
</svg>
