<?xml version="1.0" ?>
<svg baseProfile="full" height="600px" version="1.1" viewBox="-16.08 -16.08 192.16 192.16" width="600px" xmlns="http://www.w3.org/2000/svg" xmlns:ev="http://www.w3.org/2001/xml-events" xmlns:xlink="http://www.w3.org/1999/xlink">
	<defs/>
	<path d="M 0.0,0.0 L 160.0,0.0 L 160.0,160.0 L 0.0,160.0 L 0.0,0.0" fill="#C74545"/>
	<path d="M 0.0,0.0 L 160.0,0.0 L 160.0,160.0 L 0.0,160.0 L 0.0,0.0 M 8.0,28.0 L 8.0,52.0 L 12.0,52.0 L 12.0,152.0 L 148.0,152.0 L 148.0,52.0 L 152.0,52.0 L 152.0,28.0 L 8.0,28.0" fill="#FEFDFD"/>
	<path d="M 96.0,52.0 L 144.0,52.0 L 144.0,148.0 L 96.0,148.0 L 96.0,52.0" fill="#F58D8D"/>
	<path d="M 16.0,52.0 L 64.0,52.0 L 64.0,148.0 L 16.0,148.0 L 16.0,52.0" fill="#F58D8D"/>
	<path d="M 68.0,52.0 L 92.0,52.0 L 92.0,148.0 L 68.0,148.0 L 68.0,52.0" fill="#FEECA2"/>
	<path d="M 50.0,4.0 L 58.0,4.0 L 64.0,7.0 L 76.0,18.0 L 79.0,22.0 L 79.0,24.0 L 81.0,24.0 L 83.0,20.0 L 90.0,12.0 L 101.0,4.0 L 109.0,4.0 L 116.0,8.0 L 119.0,13.0 L 119.0,22.0 L 116.0,27.0 L 115.0,28.0 L 45.0,28.0 L 42.0,25.0 L 41.0,22.0 L 41.0,13.0 L 45.0,7.0 L 50.0,4.0" fill="#BDA052"/>
	<path d="M 96.0,32.0 L 148.0,32.0 L 148.0,48.0 L 96.0,48.0 L 96.0,32.0" fill="#F58D8D"/>
	<path d="M 12.0,32.0 L 64.0,32.0 L 64.0,48.0 L 12.0,48.0 L 12.0,32.0" fill="#F58D8D"/>
	<path d="M 102.0,8.0 L 111.0,9.0 L 115.0,14.0 L 115.0,21.0 L 112.0,26.0 L 107.0,28.0 L 83.0,28.0 L 87.0,21.0 L 97.0,11.0 L 102.0,8.0" fill="#FCFCFA"/>
	<path d="M 51.0,8.0 L 58.0,8.0 L 66.0,14.0 L 74.0,22.0 L 77.0,28.0 L 52.0,28.0 L 47.0,25.0 L 45.0,21.0 L 45.0,14.0 L 50.0,9.0 L 51.0,8.0" fill="#FDFCFA"/>
	<path d="M 68.0,32.0 L 92.0,32.0 L 92.0,48.0 L 68.0,48.0 L 68.0,32.0" fill="#FEECA2"/>
</svg>
