<?xml version="1.0" ?>
<svg baseProfile="full" height="600px" version="1.1" viewBox="-19.296000000000003 -19.296000000000003 230.592 230.592" width="600px" xmlns="http://www.w3.org/2000/svg" xmlns:ev="http://www.w3.org/2001/xml-events" xmlns:xlink="http://www.w3.org/1999/xlink">
	<defs/>
	<path d="M 0.0,0.0 L 192.0,0.0 L 192.0,192.0 L 0.0,192.0 L 0.0,0.0" fill="#FEFDFD"/>
	<path d="M 36.0,78.0 L 156.0,78.0 L 156.0,163.0 L 151.0,168.0 L 40.0,168.0 L 36.0,164.0 L 36.0,78.0" fill="#D3302F"/>
	<path d="M 75.0,13.0 L 84.0,13.0 L 95.0,24.0 L 99.0,22.0 L 108.0,13.0 L 118.0,13.0 L 126.0,14.0 L 121.0,19.0 L 106.0,32.0 L 161.0,33.0 L 166.0,39.0 L 166.0,66.0 L 26.0,66.0 L 26.0,39.0 L 31.0,33.0 L 86.0,32.0 L 73.0,21.0 L 66.0,16.0 L 66.0,14.0 L 75.0,13.0" fill="#F34437"/>
	<path d="M 103.0,78.0 L 156.0,78.0 L 156.0,163.0 L 151.0,168.0 L 103.0,168.0 L 103.0,78.0" fill="#D3302F"/>
	<path d="M 104.0,33.0 L 161.0,33.0 L 166.0,39.0 L 166.0,66.0 L 104.0,66.0 L 104.0,33.0" fill="#F34437"/>
	<path d="M 89.0,78.0 L 103.0,78.0 L 103.0,168.0 L 89.0,168.0 L 89.0,78.0" fill="#FE8E01"/>
	<path d="M 75.0,13.0 L 84.0,13.0 L 95.0,24.0 L 99.0,22.0 L 108.0,13.0 L 118.0,13.0 L 126.0,14.0 L 121.0,19.0 L 106.0,32.0 L 104.0,32.0 L 104.0,66.0 L 88.0,66.0 L 88.0,32.0 L 84.0,30.0 L 68.0,17.0 L 66.0,16.0 L 66.0,14.0 L 75.0,13.0" fill="#FEBF09"/>
	<path d="M 108.0,13.0 L 118.0,13.0 L 126.0,14.0 L 121.0,19.0 L 106.0,32.0 L 104.0,32.0 L 104.0,66.0 L 103.0,66.0 L 102.0,32.0 L 96.0,25.0 L 108.0,13.0" fill="#FE9207"/>
</svg>
