<?xml version="1.0" ?>
<svg baseProfile="full" height="600px" version="1.1" viewBox="-19.296000000000003 -19.296000000000003 230.592 230.592" width="600px" xmlns="http://www.w3.org/2000/svg" xmlns:ev="http://www.w3.org/2001/xml-events" xmlns:xlink="http://www.w3.org/1999/xlink">
	<defs/>
	<path d="M 0.0,0.0 L 192.0,0.0 L 192.0,192.0 L 0.0,192.0 L 0.0,0.0" fill="#FEFDFC"/>
	<path d="M 64.0,30.0 L 82.0,30.0 L 95.0,44.0 L 99.0,42.0 L 110.0,30.0 L 128.0,30.0 L 122.0,37.0 L 108.0,51.0 L 105.0,53.0 L 165.0,54.0 L 170.0,59.0 L 170.0,85.0 L 161.0,85.0 L 161.0,162.0 L 157.0,167.0 L 155.0,168.0 L 36.0,168.0 L 31.0,162.0 L 31.0,85.0 L 22.0,85.0 L 22.0,59.0 L 27.0,54.0 L 87.0,54.0 L 87.0,52.0 L 83.0,50.0 L 64.0,31.0 L 64.0,30.0" fill="#D3302F"/>
	<path d="M 104.0,54.0 L 165.0,54.0 L 170.0,59.0 L 170.0,85.0 L 161.0,85.0 L 161.0,162.0 L 157.0,167.0 L 155.0,168.0 L 104.0,168.0 L 104.0,54.0" fill="#D3302F"/>
	<path d="M 64.0,30.0 L 82.0,30.0 L 95.0,44.0 L 99.0,42.0 L 110.0,30.0 L 128.0,30.0 L 122.0,37.0 L 108.0,51.0 L 105.0,53.0 L 104.0,168.0 L 88.0,168.0 L 87.0,52.0 L 83.0,50.0 L 64.0,31.0 L 64.0,30.0" fill="#FE8E01"/>
	<path d="M 104.0,54.0 L 165.0,54.0 L 170.0,59.0 L 170.0,85.0 L 161.0,85.0 L 161.0,100.0 L 160.0,100.0 L 160.0,85.0 L 105.0,85.0 L 105.0,152.0 L 104.0,152.0 L 104.0,54.0" fill="#F24436"/>
	<path d="M 27.0,54.0 L 88.0,54.0 L 88.0,85.0 L 32.0,85.0 L 32.0,93.0 L 31.0,93.0 L 31.0,85.0 L 22.0,85.0 L 22.0,59.0 L 27.0,54.0" fill="#F24437"/>
	<path d="M 64.0,30.0 L 82.0,30.0 L 95.0,44.0 L 99.0,42.0 L 110.0,30.0 L 128.0,30.0 L 122.0,37.0 L 108.0,51.0 L 105.0,53.0 L 104.0,85.0 L 88.0,85.0 L 87.0,52.0 L 83.0,50.0 L 64.0,31.0 L 64.0,30.0" fill="#FEC009"/>
	<path d="M 110.0,30.0 L 128.0,30.0 L 122.0,37.0 L 108.0,51.0 L 103.0,53.0 L 96.0,46.0 L 102.0,39.0 L 109.0,31.0 L 110.0,30.0" fill="#FE9209"/>
</svg>
