<?xml version="1.0" ?>
<svg baseProfile="full" height="600px" version="1.1" viewBox="-16.08 -16.08 192.16 192.16" width="600px" xmlns="http://www.w3.org/2000/svg" xmlns:ev="http://www.w3.org/2001/xml-events" xmlns:xlink="http://www.w3.org/1999/xlink">
	<defs/>
	<path d="M 0.0,0.0 L 160.0,0.0 L 160.0,160.0 L 0.0,160.0 L 0.0,0.0" fill="#C84847"/>
	<path d="M 0.0,0.0 L 160.0,0.0 L 160.0,160.0 L 0.0,160.0 L 0.0,0.0 M 6.0,36.0 L 6.0,60.0 L 11.0,60.0 L 11.0,144.0 L 12.0,152.0 L 147.0,152.0 L 149.0,145.0 L 150.0,136.0 L 150.0,63.0 L 149.0,60.0 L 154.0,60.0 L 154.0,36.0 L 6.0,36.0" fill="#FDFCFC"/>
	<path d="M 96.0,60.0 L 145.0,60.0 L 146.0,66.0 L 146.0,133.0 L 145.0,148.0 L 96.0,148.0 L 96.0,60.0" fill="#F58C8C"/>
	<path d="M 15.0,60.0 L 64.0,60.0 L 64.0,148.0 L 16.0,148.0 L 15.0,147.0 L 15.0,60.0" fill="#F58D8D"/>
	<path d="M 68.0,60.0 L 92.0,60.0 L 92.0,148.0 L 68.0,148.0 L 68.0,60.0" fill="#FEEBA1"/>
	<path d="M 47.0,14.0 L 57.0,14.0 L 65.0,18.0 L 77.0,29.0 L 79.0,32.0 L 81.0,32.0 L 88.0,24.0 L 100.0,15.0 L 102.0,14.0 L 113.0,14.0 L 120.0,19.0 L 122.0,23.0 L 122.0,30.0 L 119.0,36.0 L 41.0,36.0 L 38.0,31.0 L 38.0,23.0 L 42.0,17.0 L 47.0,14.0" fill="#BDA052"/>
	<path d="M 10.0,40.0 L 64.0,40.0 L 64.0,56.0 L 10.0,56.0 L 10.0,40.0" fill="#F58C8C"/>
	<path d="M 97.0,40.0 L 150.0,40.0 L 150.0,56.0 L 97.0,56.0 L 97.0,40.0" fill="#F58D8D"/>
	<path d="M 48.0,18.0 L 57.0,18.0 L 68.0,26.0 L 76.0,34.0 L 76.0,36.0 L 48.0,36.0 L 43.0,32.0 L 42.0,30.0 L 42.0,24.0 L 46.0,19.0 L 48.0,18.0" fill="#FDFCFA"/>
	<path d="M 103.0,18.0 L 111.0,18.0 L 116.0,21.0 L 118.0,24.0 L 118.0,30.0 L 114.0,35.0 L 111.0,36.0 L 84.0,36.0 L 86.0,32.0 L 94.0,24.0 L 103.0,18.0" fill="#FDFCFA"/>
	<path d="M 68.0,40.0 L 92.0,40.0 L 92.0,56.0 L 68.0,56.0 L 68.0,40.0" fill="#FEECA2"/>
</svg>
