<?xml version="1.0" ?>
<svg baseProfile="full" height="600px" version="1.1" viewBox="-20.1 -20.1 240.2 240.2" width="600px" xmlns="http://www.w3.org/2000/svg" xmlns:ev="http://www.w3.org/2001/xml-events" xmlns:xlink="http://www.w3.org/1999/xlink">
	<defs/>
	<path d="M 0.0,0.0 L 200.0,0.0 L 200.0,200.0 L 0.0,200.0 L 0.0,0.0" fill="#FDFDFD"/>
	<path d="M 56.0,38.0 L 75.0,38.0 L 88.0,43.0 L 96.0,49.0 L 99.0,52.0 L 103.0,50.0 L 110.0,44.0 L 118.0,40.0 L 124.0,38.0 L 143.0,38.0 L 156.0,43.0 L 164.0,49.0 L 172.0,58.0 L 177.0,68.0 L 178.0,72.0 L 178.0,92.0 L 173.0,108.0 L 167.0,118.0 L 158.0,129.0 L 149.0,138.0 L 132.0,151.0 L 115.0,163.0 L 102.0,173.0 L 98.0,173.0 L 81.0,160.0 L 64.0,148.0 L 54.0,140.0 L 44.0,131.0 L 35.0,121.0 L 27.0,108.0 L 23.0,96.0 L 22.0,91.0 L 22.0,72.0 L 26.0,62.0 L 32.0,53.0 L 39.0,46.0 L 53.0,39.0 L 56.0,38.0" fill="#FCFCFC"/>
	<path d="M 56.0,38.0 L 75.0,38.0 L 88.0,43.0 L 96.0,49.0 L 99.0,52.0 L 103.0,50.0 L 110.0,44.0 L 118.0,40.0 L 124.0,38.0 L 143.0,38.0 L 156.0,43.0 L 164.0,49.0 L 172.0,58.0 L 177.0,68.0 L 178.0,72.0 L 178.0,92.0 L 173.0,108.0 L 167.0,118.0 L 158.0,129.0 L 149.0,138.0 L 132.0,151.0 L 115.0,163.0 L 102.0,173.0 L 98.0,173.0 L 81.0,160.0 L 64.0,148.0 L 54.0,140.0 L 44.0,131.0 L 35.0,121.0 L 27.0,108.0 L 23.0,96.0 L 22.0,91.0 L 22.0,72.0 L 26.0,62.0 L 32.0,53.0 L 39.0,46.0 L 53.0,39.0 L 56.0,38.0 M 60.0,46.0 L 50.0,49.0 L 39.0,57.0 L 33.0,66.0 L 30.0,74.0 L 30.0,90.0 L 32.0,98.0 L 39.0,112.0 L 47.0,122.0 L 57.0,132.0 L 74.0,145.0 L 92.0,158.0 L 99.0,163.0 L 104.0,161.0 L 120.0,149.0 L 134.0,139.0 L 147.0,128.0 L 156.0,119.0 L 163.0,109.0 L 169.0,96.0 L 170.0,90.0 L 170.0,74.0 L 166.0,64.0 L 159.0,55.0 L 150.0,49.0 L 138.0,46.0 L 126.0,46.0 L 116.0,50.0 L 107.0,57.0 L 101.0,66.0 L 101.0,68.0 L 99.0,68.0 L 97.0,63.0 L 91.0,55.0 L 82.0,49.0 L 72.0,46.0 L 60.0,46.0" fill="#070707"/>
</svg>
