<?xml version="1.0" ?>
<svg baseProfile="full" height="600px" version="1.1" viewBox="-20.1 -20.1 240.2 240.2" width="600px" xmlns="http://www.w3.org/2000/svg" xmlns:ev="http://www.w3.org/2001/xml-events" xmlns:xlink="http://www.w3.org/1999/xlink">
	<defs/>
	<path d="M 0.0,0.0 L 200.0,0.0 L 200.0,200.0 L 0.0,200.0 L 0.0,0.0" fill="#FCFCFC"/>
	<path d="M 49.0,33.0 L 65.0,33.0 L 78.0,37.0 L 89.0,44.0 L 96.0,52.0 L 99.0,57.0 L 101.0,57.0 L 108.0,47.0 L 118.0,39.0 L 129.0,34.0 L 133.0,33.0 L 149.0,33.0 L 162.0,37.0 L 173.0,44.0 L 180.0,52.0 L 187.0,66.0 L 188.0,70.0 L 188.0,87.0 L 186.0,99.0 L 179.0,115.0 L 169.0,129.0 L 151.0,147.0 L 131.0,162.0 L 107.0,178.0 L 102.0,182.0 L 97.0,181.0 L 78.0,168.0 L 61.0,156.0 L 47.0,145.0 L 30.0,128.0 L 23.0,118.0 L 16.0,104.0 L 12.0,90.0 L 12.0,70.0 L 16.0,59.0 L 23.0,48.0 L 31.0,41.0 L 45.0,34.0 L 49.0,33.0" fill="#FDFDFD"/>
	<path d="M 52.0,24.0 L 65.0,24.0 L 81.0,29.0 L 91.0,35.0 L 99.0,42.0 L 103.0,40.0 L 113.0,32.0 L 126.0,26.0 L 136.0,24.0 L 149.0,24.0 L 165.0,29.0 L 175.0,35.0 L 184.0,43.0 L 191.0,54.0 L 195.0,63.0 L 197.0,72.0 L 197.0,85.0 L 194.0,100.0 L 188.0,116.0 L 179.0,130.0 L 167.0,144.0 L 157.0,153.0 L 140.0,166.0 L 112.0,185.0 L 101.0,193.0 L 96.0,191.0 L 81.0,180.0 L 63.0,168.0 L 47.0,156.0 L 37.0,147.0 L 30.0,141.0 L 21.0,130.0 L 12.0,116.0 L 7.0,103.0 L 4.0,92.0 L 4.0,67.0 L 8.0,56.0 L 14.0,46.0 L 22.0,37.0 L 33.0,30.0 L 42.0,26.0 L 52.0,24.0 M 49.0,33.0 L 38.0,37.0 L 27.0,44.0 L 20.0,52.0 L 13.0,66.0 L 12.0,70.0 L 12.0,90.0 L 17.0,107.0 L 25.0,121.0 L 33.0,131.0 L 49.0,147.0 L 69.0,162.0 L 93.0,178.0 L 98.0,182.0 L 103.0,181.0 L 122.0,168.0 L 139.0,156.0 L 153.0,145.0 L 170.0,128.0 L 180.0,113.0 L 186.0,99.0 L 188.0,87.0 L 188.0,70.0 L 184.0,59.0 L 177.0,48.0 L 169.0,41.0 L 157.0,35.0 L 149.0,33.0 L 133.0,33.0 L 122.0,37.0 L 111.0,44.0 L 104.0,52.0 L 101.0,57.0 L 99.0,57.0 L 91.0,46.0 L 80.0,38.0 L 70.0,34.0 L 65.0,33.0 L 49.0,33.0" fill="#080808"/>
</svg>
