<?xml version="1.0" ?>
<svg baseProfile="full" height="600px" version="1.1" viewBox="-12.06 -12.06 144.12 144.12" width="600px" xmlns="http://www.w3.org/2000/svg" xmlns:ev="http://www.w3.org/2001/xml-events" xmlns:xlink="http://www.w3.org/1999/xlink">
	<defs/>
	<path d="M 0.0,0.0 L 120.0,0.0 L 120.0,120.0 L 0.0,120.0 L 0.0,0.0" fill="#FBFBFB"/>
	<path d="M 50.0,10.0 L 56.0,10.0 L 61.0,12.0 L 64.0,10.0 L 71.0,11.0 L 75.0,16.0 L 77.0,21.0 L 77.0,33.0 L 106.0,34.0 L 111.0,37.0 L 113.0,40.0 L 113.0,50.0 L 7.0,50.0 L 7.0,40.0 L 11.0,35.0 L 13.0,34.0 L 44.0,34.0 L 43.0,32.0 L 43.0,20.0 L 48.0,12.0 L 50.0,10.0" fill="#040404"/>
	<path d="M 64.0,59.0 L 107.0,59.0 L 107.0,104.0 L 104.0,107.0 L 101.0,108.0 L 64.0,108.0 L 64.0,59.0" fill="#020202"/>
	<path d="M 13.0,59.0 L 56.0,59.0 L 56.0,108.0 L 18.0,108.0 L 13.0,104.0 L 13.0,59.0" fill="#020202"/>
	<path d="M 66.0,21.0 L 69.0,22.0 L 70.0,24.0 L 70.0,30.0 L 68.0,33.0 L 63.0,33.0 L 63.0,24.0 L 66.0,21.0" fill="#DEDEDE"/>
	<path d="M 52.0,21.0 L 56.0,23.0 L 56.0,32.0 L 51.0,32.0 L 50.0,30.0 L 50.0,23.0 L 52.0,21.0" fill="#F3F3F3"/>
</svg>
