<?xml version="1.0" ?>
<svg baseProfile="full" height="600px" version="1.1" viewBox="-19.296000000000003 -19.296000000000003 230.592 230.592" width="600px" xmlns="http://www.w3.org/2000/svg" xmlns:ev="http://www.w3.org/2001/xml-events" xmlns:xlink="http://www.w3.org/1999/xlink">
	<defs/>
	<path d="M 0.0,0.0 L 192.0,0.0 L 192.0,192.0 L 0.0,192.0 L 0.0,0.0" fill="#FEFDFC"/>
	<path d="M 31.0,90.0 L 161.0,90.0 L 162.0,91.0 L 164.0,109.0 L 164.0,146.0 L 162.0,158.0 L 160.0,165.0 L 156.0,168.0 L 35.0,168.0 L 31.0,164.0 L 29.0,152.0 L 28.0,137.0 L 28.0,108.0 L 30.0,91.0 L 31.0,90.0" fill="#D3302F"/>
	<path d="M 64.0,27.0 L 80.0,28.0 L 89.0,37.0 L 95.0,44.0 L 99.0,42.0 L 111.0,29.0 L 112.0,28.0 L 119.0,27.0 L 128.0,27.0 L 124.0,33.0 L 112.0,46.0 L 105.0,55.0 L 166.0,55.0 L 170.0,59.0 L 170.0,86.0 L 22.0,86.0 L 22.0,59.0 L 26.0,55.0 L 87.0,55.0 L 78.0,44.0 L 65.0,30.0 L 64.0,27.0" fill="#F34538"/>
	<path d="M 104.0,91.0 L 162.0,91.0 L 164.0,109.0 L 164.0,146.0 L 162.0,158.0 L 160.0,165.0 L 156.0,168.0 L 104.0,168.0 L 104.0,91.0" fill="#D33030"/>
	<path d="M 104.0,55.0 L 166.0,55.0 L 170.0,59.0 L 170.0,86.0 L 104.0,86.0 L 104.0,55.0" fill="#F34538"/>
	<path d="M 31.0,90.0 L 161.0,90.0 L 161.0,91.0 L 104.0,91.0 L 105.0,106.0 L 105.0,162.0 L 104.0,168.0 L 88.0,168.0 L 87.0,145.0 L 87.0,91.0 L 31.0,91.0 L 31.0,90.0" fill="#FC8E0E"/>
	<path d="M 64.0,27.0 L 80.0,28.0 L 89.0,37.0 L 95.0,44.0 L 99.0,42.0 L 111.0,29.0 L 112.0,28.0 L 119.0,27.0 L 128.0,27.0 L 124.0,33.0 L 112.0,46.0 L 105.0,55.0 L 104.0,86.0 L 88.0,86.0 L 87.0,55.0 L 78.0,44.0 L 65.0,30.0 L 64.0,27.0" fill="#FEC00C"/>
	<path d="M 88.0,55.0 L 104.0,55.0 L 104.0,86.0 L 88.0,86.0 L 88.0,55.0" fill="#FEBF08"/>
	<path d="M 119.0,27.0 L 128.0,27.0 L 124.0,33.0 L 112.0,46.0 L 105.0,54.0 L 101.0,52.0 L 97.0,47.0 L 98.0,43.0 L 112.0,28.0 L 119.0,27.0" fill="#FE9107"/>
</svg>
