<?xml version="1.0" ?>
<svg baseProfile="full" height="600px" version="1.1" viewBox="-19.296000000000003 -19.296000000000003 230.592 230.592" width="600px" xmlns="http://www.w3.org/2000/svg" xmlns:ev="http://www.w3.org/2001/xml-events" xmlns:xlink="http://www.w3.org/1999/xlink">
	<defs/>
	<path d="M 0.0,0.0 L 192.0,0.0 L 192.0,192.0 L 0.0,192.0 L 0.0,0.0" fill="#FEFDFD"/>
	<path d="M 38.0,73.0 L 154.0,73.0 L 154.0,164.0 L 149.0,168.0 L 42.0,168.0 L 38.0,164.0 L 38.0,73.0" fill="#D33030"/>
	<path d="M 79.0,13.0 L 84.0,13.0 L 95.0,23.0 L 99.0,21.0 L 108.0,13.0 L 123.0,14.0 L 127.0,16.0 L 106.0,30.0 L 162.0,31.0 L 167.0,35.0 L 167.0,64.0 L 25.0,64.0 L 25.0,35.0 L 30.0,31.0 L 85.0,30.0 L 70.0,20.0 L 65.0,17.0 L 65.0,15.0 L 79.0,13.0" fill="#F24337"/>
	<path d="M 103.0,73.0 L 154.0,73.0 L 154.0,164.0 L 149.0,168.0 L 103.0,168.0 L 103.0,73.0" fill="#D33030"/>
	<path d="M 104.0,31.0 L 162.0,31.0 L 167.0,35.0 L 167.0,63.0 L 104.0,63.0 L 104.0,31.0" fill="#F24337"/>
	<path d="M 89.0,73.0 L 103.0,73.0 L 103.0,168.0 L 89.0,168.0 L 89.0,73.0" fill="#FD8C02"/>
	<path d="M 79.0,13.0 L 84.0,13.0 L 95.0,23.0 L 99.0,21.0 L 108.0,13.0 L 123.0,14.0 L 127.0,16.0 L 105.0,31.0 L 104.0,63.0 L 167.0,63.0 L 167.0,64.0 L 25.0,64.0 L 25.0,63.0 L 88.0,63.0 L 87.0,31.0 L 70.0,20.0 L 65.0,17.0 L 65.0,15.0 L 79.0,13.0" fill="#FEBD1F"/>
	<path d="M 108.0,13.0 L 123.0,14.0 L 127.0,16.0 L 105.0,31.0 L 101.0,29.0 L 96.0,24.0 L 104.0,16.0 L 108.0,13.0" fill="#FE9208"/>
</svg>
