<?xml version="1.0" ?>
<svg baseProfile="full" height="600px" version="1.1" viewBox="-16.08 -16.08 192.16 192.16" width="600px" xmlns="http://www.w3.org/2000/svg" xmlns:ev="http://www.w3.org/2001/xml-events" xmlns:xlink="http://www.w3.org/1999/xlink">
	<defs/>
	<path d="M 0.0,0.0 L 160.0,0.0 L 160.0,160.0 L 0.0,160.0 L 0.0,0.0" fill="#C94848"/>
	<path d="M 0.0,0.0 L 160.0,0.0 L 160.0,160.0 L 0.0,160.0 L 0.0,0.0 M 12.0,53.0 L 12.0,65.0 L 13.0,82.0 L 13.0,135.0 L 12.0,152.0 L 148.0,152.0 L 147.0,132.0 L 147.0,75.0 L 148.0,53.0 L 12.0,53.0" fill="#FDFDFC"/>
	<path d="M 48.0,5.0 L 56.0,5.0 L 67.0,10.0 L 77.0,16.0 L 81.0,18.0 L 91.0,11.0 L 101.0,6.0 L 115.0,6.0 L 121.0,10.0 L 122.0,12.0 L 122.0,19.0 L 121.0,21.0 L 150.0,22.0 L 150.0,47.0 L 10.0,47.0 L 10.0,22.0 L 40.0,21.0 L 38.0,19.0 L 38.0,11.0 L 43.0,7.0 L 48.0,5.0" fill="#CD5552"/>
	<path d="M 96.0,57.0 L 143.0,57.0 L 143.0,129.0 L 144.0,148.0 L 96.0,148.0 L 96.0,57.0" fill="#F58D8D"/>
	<path d="M 17.0,57.0 L 64.0,57.0 L 64.0,148.0 L 16.0,148.0 L 17.0,136.0 L 17.0,57.0" fill="#F58C8C"/>
	<path d="M 68.0,58.0 L 92.0,58.0 L 92.0,148.0 L 68.0,148.0 L 68.0,58.0" fill="#FEECA2"/>
	<path d="M 48.0,5.0 L 56.0,5.0 L 67.0,10.0 L 77.0,16.0 L 81.0,18.0 L 91.0,11.0 L 101.0,6.0 L 115.0,6.0 L 121.0,10.0 L 122.0,12.0 L 122.0,19.0 L 121.0,21.0 L 150.0,22.0 L 150.0,23.0 L 10.0,23.0 L 10.0,22.0 L 40.0,21.0 L 38.0,19.0 L 38.0,11.0 L 43.0,7.0 L 48.0,5.0" fill="#C4A061"/>
	<path d="M 96.0,27.0 L 146.0,27.0 L 146.0,42.0 L 96.0,42.0 L 96.0,27.0" fill="#F68D8D"/>
	<path d="M 14.0,27.0 L 64.0,27.0 L 64.0,42.0 L 14.0,42.0 L 14.0,27.0" fill="#F68D8D"/>
	<path d="M 69.0,27.0 L 91.0,27.0 L 91.0,42.0 L 69.0,42.0 L 69.0,27.0" fill="#FFEEA3"/>
	<path d="M 46.0,10.0 L 58.0,10.0 L 68.0,15.0 L 76.0,21.0 L 76.0,22.0 L 54.0,22.0 L 45.0,20.0 L 42.0,18.0 L 42.0,13.0 L 46.0,10.0" fill="#FDFCFA"/>
	<path d="M 103.0,10.0 L 113.0,10.0 L 118.0,13.0 L 118.0,18.0 L 109.0,22.0 L 84.0,22.0 L 88.0,18.0 L 100.0,11.0 L 103.0,10.0" fill="#FDFCFA"/>
</svg>
