<?xml version="1.0" ?>
<svg baseProfile="full" height="600px" version="1.1" viewBox="-12.06 -12.06 144.12 144.12" width="600px" xmlns="http://www.w3.org/2000/svg" xmlns:ev="http://www.w3.org/2001/xml-events" xmlns:xlink="http://www.w3.org/1999/xlink">
	<defs/>
	<path d="M 0.0,0.0 L 120.0,0.0 L 120.0,120.0 L 0.0,120.0 L 0.0,0.0" fill="#F9F9F9"/>
	<path d="M 64.0,43.0 L 101.0,43.0 L 101.0,102.0 L 98.0,107.0 L 96.0,108.0 L 64.0,108.0 L 64.0,43.0" fill="#010101"/>
	<path d="M 19.0,43.0 L 56.0,43.0 L 56.0,108.0 L 24.0,108.0 L 20.0,104.0 L 19.0,102.0 L 19.0,43.0" fill="#010101"/>
	<path d="M 65.0,12.0 L 73.0,12.0 L 82.0,16.0 L 83.0,21.0 L 103.0,21.0 L 108.0,24.0 L 109.0,26.0 L 109.0,37.0 L 11.0,37.0 L 11.0,26.0 L 15.0,22.0 L 17.0,21.0 L 36.0,21.0 L 38.0,16.0 L 43.0,13.0 L 62.0,13.0 L 65.0,12.0" fill="#050505"/>
	<path d="M 66.0,18.0 L 73.0,18.0 L 74.0,21.0 L 65.0,21.0 L 66.0,18.0" fill="#F3F3F3"/>
	<path d="M 47.0,18.0 L 54.0,18.0 L 55.0,21.0 L 46.0,21.0 L 47.0,18.0" fill="#F3F3F3"/>
</svg>
