<?xml version="1.0" ?>
<svg baseProfile="full" height="600px" version="1.1" viewBox="-20.1 -20.1 240.2 240.2" width="600px" xmlns="http://www.w3.org/2000/svg" xmlns:ev="http://www.w3.org/2001/xml-events" xmlns:xlink="http://www.w3.org/1999/xlink">
	<defs/>
	<path d="M 0.0,0.0 L 200.0,0.0 L 200.0,200.0 L 0.0,200.0 L 0.0,0.0" fill="#060606"/>
	<path d="M 0.0,0.0 L 200.0,0.0 L 200.0,200.0 L 0.0,200.0 L 0.0,0.0 M 99.0,7.0 L 86.0,8.0 L 67.0,13.0 L 51.0,21.0 L 38.0,31.0 L 28.0,41.0 L 18.0,56.0 L 11.0,73.0 L 8.0,89.0 L 8.0,111.0 L 10.0,122.0 L 15.0,137.0 L 23.0,152.0 L 32.0,163.0 L 40.0,171.0 L 53.0,180.0 L 67.0,187.0 L 82.0,191.0 L 98.0,193.0 L 114.0,192.0 L 135.0,186.0 L 152.0,177.0 L 163.0,168.0 L 171.0,160.0 L 180.0,147.0 L 187.0,132.0 L 191.0,119.0 L 192.0,111.0 L 192.0,89.0 L 189.0,73.0 L 183.0,58.0 L 174.0,44.0 L 163.0,32.0 L 152.0,23.0 L 135.0,14.0 L 119.0,9.0 L 99.0,7.0" fill="#FCFCFC"/>
	<path d="M 39.0,53.0 L 44.0,54.0 L 67.0,61.0 L 65.0,80.0 L 63.0,96.0 L 27.0,96.0 L 28.0,81.0 L 33.0,64.0 L 39.0,53.0" fill="#FBFBFB"/>
	<path d="M 27.0,104.0 L 63.0,104.0 L 64.0,108.0 L 65.0,123.0 L 67.0,139.0 L 47.0,145.0 L 42.0,147.0 L 38.0,146.0 L 33.0,135.0 L 28.0,118.0 L 27.0,113.0 L 27.0,104.0" fill="#FBFBFB"/>
	<path d="M 115.0,104.0 L 151.0,104.0 L 151.0,114.0 L 148.0,130.0 L 145.0,141.0 L 136.0,140.0 L 113.0,137.0 L 114.0,115.0 L 115.0,104.0" fill="#FBFBFB"/>
	<path d="M 139.0,59.0 L 145.0,59.0 L 149.0,74.0 L 151.0,85.0 L 151.0,96.0 L 115.0,96.0 L 113.0,67.0 L 113.0,63.0 L 130.0,61.0 L 139.0,59.0" fill="#FBFBFB"/>
	<path d="M 75.0,63.0 L 86.0,63.0 L 105.0,64.0 L 106.0,71.0 L 107.0,96.0 L 71.0,96.0 L 71.0,85.0 L 74.0,66.0 L 75.0,63.0" fill="#FBFBFB"/>
	<path d="M 71.0,104.0 L 107.0,104.0 L 107.0,116.0 L 105.0,136.0 L 86.0,137.0 L 75.0,137.0 L 72.0,121.0 L 71.0,104.0" fill="#FBFBFB"/>
	<path d="M 159.0,104.0 L 184.0,104.0 L 184.0,113.0 L 179.0,130.0 L 171.0,146.0 L 168.0,150.0 L 163.0,149.0 L 153.0,145.0 L 152.0,143.0 L 157.0,122.0 L 159.0,104.0" fill="#FAFAFA"/>
	<path d="M 165.0,50.0 L 169.0,51.0 L 175.0,61.0 L 180.0,72.0 L 184.0,88.0 L 184.0,96.0 L 159.0,96.0 L 157.0,76.0 L 152.0,56.0 L 160.0,52.0 L 165.0,50.0" fill="#FAFAFA"/>
	<path d="M 112.0,145.0 L 121.0,145.0 L 139.0,148.0 L 141.0,149.0 L 139.0,155.0 L 132.0,166.0 L 125.0,174.0 L 115.0,181.0 L 110.0,183.0 L 107.0,183.0 L 108.0,177.0 L 112.0,145.0" fill="#F8F8F8"/>
	<path d="M 107.0,17.0 L 112.0,18.0 L 121.0,23.0 L 128.0,29.0 L 136.0,40.0 L 141.0,49.0 L 141.0,51.0 L 129.0,54.0 L 124.0,55.0 L 112.0,55.0 L 108.0,23.0 L 107.0,17.0" fill="#F9F9F9"/>
	<path d="M 97.0,16.0 L 99.0,16.0 L 101.0,25.0 L 104.0,50.0 L 104.0,56.0 L 87.0,56.0 L 79.0,55.0 L 78.0,54.0 L 79.0,46.0 L 84.0,33.0 L 91.0,21.0 L 97.0,16.0" fill="#F8F8F8"/>
	<path d="M 87.0,144.0 L 104.0,144.0 L 104.0,153.0 L 100.0,180.0 L 98.0,184.0 L 93.0,181.0 L 86.0,171.0 L 81.0,159.0 L 78.0,150.0 L 79.0,145.0 L 87.0,144.0" fill="#F9F9F9"/>
	<path d="M 67.0,147.0 L 70.0,148.0 L 75.0,164.0 L 83.0,180.0 L 84.0,182.0 L 78.0,181.0 L 64.0,174.0 L 54.0,166.0 L 47.0,159.0 L 44.0,154.0 L 57.0,149.0 L 67.0,147.0" fill="#F6F6F6"/>
	<path d="M 81.0,18.0 L 84.0,19.0 L 78.0,28.0 L 72.0,44.0 L 69.0,53.0 L 59.0,51.0 L 46.0,47.0 L 44.0,45.0 L 55.0,33.0 L 66.0,25.0 L 78.0,19.0 L 81.0,18.0" fill="#F7F7F7"/>
	<path d="M 149.0,152.0 L 158.0,155.0 L 162.0,157.0 L 158.0,162.0 L 145.0,172.0 L 134.0,178.0 L 132.0,177.0 L 140.0,168.0 L 149.0,152.0" fill="#F0F0F0"/>
	<path d="M 132.0,22.0 L 137.0,24.0 L 149.0,31.0 L 161.0,41.0 L 160.0,44.0 L 151.0,48.0 L 148.0,47.0 L 142.0,35.0 L 134.0,25.0 L 132.0,22.0" fill="#F3F3F3"/>
	<path d="M 27.0,57.0 L 28.0,59.0 L 23.0,72.0 L 20.0,89.0 L 19.0,96.0 L 16.0,96.0 L 16.0,87.0 L 20.0,72.0 L 26.0,58.0 L 27.0,57.0" fill="#DFDFDF"/>
	<path d="M 16.0,104.0 L 19.0,104.0 L 22.0,123.0 L 27.0,139.0 L 28.0,143.0 L 25.0,140.0 L 19.0,126.0 L 16.0,110.0 L 16.0,104.0" fill="#C0C0C0"/>
	<path d="M 16.0,104.0 L 19.0,104.0 L 20.0,111.0 L 20.0,120.0 L 18.0,120.0 L 16.0,110.0 L 16.0,104.0" fill="#E9E9E9"/>
	<path d="M 27.0,57.0 L 28.0,59.0 L 23.0,72.0 L 21.0,81.0 L 18.0,80.0 L 21.0,69.0 L 27.0,57.0" fill="#C4C4C4"/>
</svg>
