<?xml version="1.0" ?>
<svg baseProfile="full" height="600px" version="1.1" viewBox="-19.296000000000003 -19.296000000000003 230.592 230.592" width="600px" xmlns="http://www.w3.org/2000/svg" xmlns:ev="http://www.w3.org/2001/xml-events" xmlns:xlink="http://www.w3.org/1999/xlink">
	<defs/>
	<path d="M 0.0,0.0 L 192.0,0.0 L 192.0,192.0 L 0.0,192.0 L 0.0,0.0" fill="#1968C2"/>
	<path d="M 0.0,0.0 L 192.0,0.0 L 192.0,192.0 L 0.0,192.0 L 0.0,0.0 M 85.0,11.0 L 70.0,15.0 L 55.0,23.0 L 43.0,34.0 L 35.0,43.0 L 27.0,57.0 L 22.0,70.0 L 20.0,78.0 L 19.0,87.0 L 19.0,108.0 L 23.0,124.0 L 28.0,137.0 L 36.0,150.0 L 45.0,160.0 L 55.0,169.0 L 70.0,177.0 L 84.0,181.0 L 107.0,181.0 L 124.0,176.0 L 138.0,168.0 L 148.0,159.0 L 157.0,149.0 L 165.0,135.0 L 170.0,122.0 L 173.0,105.0 L 173.0,87.0 L 171.0,74.0 L 166.0,59.0 L 157.0,43.0 L 146.0,31.0 L 137.0,23.0 L 121.0,15.0 L 107.0,11.0 L 85.0,11.0" fill="#FCFDFE"/>
	<path d="M 82.0,62.0 L 112.0,62.0 L 114.0,74.0 L 114.0,92.0 L 81.0,92.0 L 81.0,70.0 L 82.0,62.0" fill="#8CC6F7"/>
	<path d="M 81.0,100.0 L 114.0,100.0 L 114.0,121.0 L 112.0,130.0 L 82.0,130.0 L 81.0,117.0 L 81.0,100.0" fill="#8CC7F7"/>
	<path d="M 43.0,100.0 L 73.0,100.0 L 74.0,114.0 L 74.0,130.0 L 48.0,130.0 L 45.0,120.0 L 43.0,109.0 L 43.0,100.0" fill="#8CC6F7"/>
	<path d="M 48.0,62.0 L 74.0,62.0 L 74.0,77.0 L 73.0,92.0 L 43.0,92.0 L 43.0,84.0 L 46.0,68.0 L 48.0,62.0" fill="#8CC6F7"/>
	<path d="M 120.0,62.0 L 145.0,62.0 L 149.0,75.0 L 150.0,92.0 L 122.0,92.0 L 120.0,68.0 L 120.0,62.0" fill="#8CC6F7"/>
	<path d="M 122.0,100.0 L 150.0,100.0 L 150.0,109.0 L 147.0,124.0 L 145.0,130.0 L 120.0,130.0 L 122.0,100.0" fill="#8CC7F7"/>
	<path d="M 94.0,20.0 L 99.0,20.0 L 105.0,29.0 L 109.0,43.0 L 111.0,53.0 L 84.0,53.0 L 85.0,42.0 L 90.0,26.0 L 94.0,20.0" fill="#8CC7F7"/>
	<path d="M 84.0,139.0 L 110.0,139.0 L 109.0,149.0 L 106.0,160.0 L 102.0,168.0 L 99.0,172.0 L 94.0,172.0 L 89.0,163.0 L 85.0,150.0 L 84.0,139.0" fill="#8DC7F7"/>
	<path d="M 53.0,139.0 L 76.0,139.0 L 81.0,163.0 L 83.0,167.0 L 83.0,170.0 L 77.0,168.0 L 66.0,160.0 L 56.0,147.0 L 53.0,141.0 L 53.0,139.0" fill="#8CC6F7"/>
	<path d="M 81.0,22.0 L 83.0,22.0 L 79.0,38.0 L 76.0,53.0 L 53.0,53.0 L 54.0,49.0 L 60.0,39.0 L 66.0,32.0 L 77.0,24.0 L 81.0,22.0" fill="#8CC7F7"/>
	<path d="M 118.0,139.0 L 141.0,139.0 L 136.0,149.0 L 125.0,161.0 L 116.0,168.0 L 110.0,170.0 L 113.0,161.0 L 117.0,146.0 L 118.0,139.0" fill="#8BC6F6"/>
	<path d="M 110.0,22.0 L 116.0,24.0 L 125.0,31.0 L 133.0,39.0 L 140.0,50.0 L 141.0,53.0 L 119.0,53.0 L 114.0,33.0 L 110.0,24.0 L 110.0,22.0" fill="#8CC6F7"/>
	<path d="M 34.0,62.0 L 40.0,62.0 L 37.0,78.0 L 36.0,91.0 L 35.0,92.0 L 27.0,92.0 L 27.0,84.0 L 31.0,68.0 L 34.0,62.0" fill="#88C3F5"/>
	<path d="M 27.0,100.0 L 36.0,100.0 L 37.0,115.0 L 40.0,130.0 L 34.0,130.0 L 30.0,120.0 L 27.0,109.0 L 27.0,100.0" fill="#88C3F5"/>
	<path d="M 158.0,100.0 L 165.0,100.0 L 164.0,113.0 L 160.0,126.0 L 158.0,130.0 L 153.0,130.0 L 156.0,115.0 L 158.0,100.0" fill="#87C3F5"/>
	<path d="M 153.0,62.0 L 158.0,62.0 L 161.0,68.0 L 165.0,83.0 L 165.0,92.0 L 158.0,92.0 L 155.0,70.0 L 153.0,62.0" fill="#87C2F5"/>
	<path d="M 39.0,139.0 L 44.0,139.0 L 51.0,152.0 L 50.0,154.0 L 42.0,145.0 L 39.0,139.0" fill="#85C0F3"/>
	<path d="M 51.0,37.0 L 51.0,40.0 L 46.0,49.0 L 44.0,53.0 L 39.0,53.0 L 43.0,46.0 L 51.0,37.0" fill="#75B4ED"/>
	<path d="M 143.0,40.0 L 148.0,45.0 L 153.0,52.0 L 149.0,53.0 L 144.0,43.0 L 143.0,40.0" fill="#77B5ED"/>
	<path d="M 149.0,139.0 L 153.0,140.0 L 147.0,148.0 L 146.0,146.0 L 149.0,139.0" fill="#83BFF3"/>
	<path d="M 44.0,47.0 L 45.0,51.0 L 44.0,53.0 L 39.0,53.0 L 41.0,49.0 L 44.0,47.0" fill="#87C3F5"/>
	<path d="M 46.0,145.0 L 49.0,149.0 L 51.0,154.0 L 46.0,150.0 L 45.0,147.0 L 46.0,145.0" fill="#73B2EB"/>
</svg>
