<?xml version="1.0" ?>
<svg baseProfile="full" height="600px" version="1.1" viewBox="-19.296000000000003 -19.296000000000003 230.592 230.592" width="600px" xmlns="http://www.w3.org/2000/svg" xmlns:ev="http://www.w3.org/2001/xml-events" xmlns:xlink="http://www.w3.org/1999/xlink">
	<defs/>
	<path d="M 0.0,0.0 L 192.0,0.0 L 192.0,192.0 L 0.0,192.0 L 0.0,0.0" fill="#1968C2"/>
	<path d="M 0.0,0.0 L 192.0,0.0 L 192.0,192.0 L 0.0,192.0 L 0.0,0.0 M 85.0,23.0 L 70.0,26.0 L 53.0,32.0 L 38.0,41.0 L 26.0,52.0 L 18.0,62.0 L 12.0,74.0 L 9.0,84.0 L 9.0,107.0 L 14.0,122.0 L 20.0,133.0 L 31.0,145.0 L 41.0,153.0 L 53.0,160.0 L 66.0,165.0 L 85.0,169.0 L 103.0,169.0 L 118.0,167.0 L 136.0,161.0 L 148.0,155.0 L 160.0,146.0 L 169.0,137.0 L 176.0,126.0 L 182.0,112.0 L 183.0,107.0 L 183.0,84.0 L 179.0,72.0 L 172.0,59.0 L 161.0,47.0 L 151.0,39.0 L 140.0,33.0 L 126.0,27.0 L 111.0,24.0 L 101.0,23.0 L 85.0,23.0" fill="#FCFDFE"/>
	<path d="M 62.0,67.0 L 93.0,67.0 L 93.0,92.0 L 58.0,92.0 L 58.0,83.0 L 61.0,68.0 L 62.0,67.0" fill="#8DC8F7"/>
	<path d="M 58.0,100.0 L 93.0,100.0 L 93.0,125.0 L 62.0,125.0 L 60.0,120.0 L 58.0,108.0 L 58.0,100.0" fill="#8EC8F8"/>
	<path d="M 102.0,67.0 L 132.0,67.0 L 134.0,72.0 L 136.0,82.0 L 136.0,92.0 L 102.0,92.0 L 102.0,67.0" fill="#8EC8F8"/>
	<path d="M 102.0,100.0 L 136.0,100.0 L 135.0,114.0 L 133.0,124.0 L 132.0,125.0 L 102.0,125.0 L 102.0,100.0" fill="#8EC8F8"/>
	<path d="M 141.0,67.0 L 167.0,67.0 L 173.0,80.0 L 174.0,84.0 L 174.0,92.0 L 145.0,92.0 L 143.0,77.0 L 141.0,67.0" fill="#8DC7F7"/>
	<path d="M 145.0,100.0 L 174.0,100.0 L 174.0,107.0 L 171.0,116.0 L 167.0,125.0 L 141.0,125.0 L 144.0,109.0 L 145.0,100.0" fill="#8DC8F7"/>
	<path d="M 30.0,67.0 L 53.0,67.0 L 49.0,92.0 L 23.0,92.0 L 23.0,84.0 L 28.0,70.0 L 30.0,67.0" fill="#8DC7F7"/>
	<path d="M 23.0,100.0 L 49.0,100.0 L 52.0,120.0 L 53.0,125.0 L 30.0,125.0 L 26.0,117.0 L 23.0,107.0 L 23.0,100.0" fill="#8DC7F7"/>
	<path d="M 90.0,31.0 L 93.0,31.0 L 93.0,60.0 L 65.0,60.0 L 67.0,54.0 L 74.0,43.0 L 82.0,35.0 L 90.0,31.0" fill="#89C4F6"/>
	<path d="M 65.0,132.0 L 93.0,132.0 L 93.0,148.0 L 92.0,161.0 L 85.0,159.0 L 75.0,150.0 L 68.0,140.0 L 65.0,135.0 L 65.0,132.0" fill="#8AC5F6"/>
	<path d="M 101.0,132.0 L 129.0,132.0 L 127.0,138.0 L 120.0,148.0 L 116.0,153.0 L 105.0,160.0 L 101.0,161.0 L 101.0,132.0" fill="#87C3F5"/>
	<path d="M 101.0,31.0 L 107.0,33.0 L 113.0,37.0 L 122.0,46.0 L 129.0,58.0 L 129.0,60.0 L 102.0,60.0 L 101.0,31.0" fill="#8AC5F6"/>
	<path d="M 139.0,132.0 L 161.0,132.0 L 161.0,134.0 L 159.0,134.0 L 157.0,138.0 L 146.0,147.0 L 131.0,155.0 L 126.0,157.0 L 123.0,156.0 L 131.0,147.0 L 139.0,132.0" fill="#88C3F5"/>
	<path d="M 124.0,35.0 L 133.0,38.0 L 146.0,45.0 L 159.0,56.0 L 161.0,60.0 L 139.0,60.0 L 131.0,45.0 L 126.0,39.0 L 126.0,37.0 L 124.0,37.0 L 124.0,35.0" fill="#89C4F5"/>
	<path d="M 35.0,132.0 L 55.0,132.0 L 64.0,149.0 L 70.0,157.0 L 61.0,154.0 L 49.0,147.0 L 38.0,137.0 L 35.0,132.0" fill="#87C2F5"/>
	<path d="M 68.0,35.0 L 70.0,36.0 L 64.0,43.0 L 55.0,60.0 L 35.0,60.0 L 39.0,54.0 L 49.0,45.0 L 63.0,37.0 L 68.0,35.0" fill="#87C2F5"/>
</svg>
