<?xml version="1.0" ?>
<svg baseProfile="full" height="600px" version="1.1" viewBox="-9.648000000000001 -9.648000000000001 115.296 115.296" width="600px" xmlns="http://www.w3.org/2000/svg" xmlns:ev="http://www.w3.org/2001/xml-events" xmlns:xlink="http://www.w3.org/1999/xlink">
	<defs/>
	<path d="M 0.0,0.0 L 96.0,0.0 L 96.0,96.0 L 0.0,96.0 L 0.0,0.0" fill="#FBFBFB"/>
	<path d="M 50.0,36.0 L 74.0,36.0 L 75.0,42.0 L 75.0,53.0 L 73.0,60.0 L 50.0,60.0 L 50.0,36.0" fill="#030303"/>
	<path d="M 20.0,36.0 L 42.0,36.0 L 42.0,60.0 L 20.0,60.0 L 19.0,56.0 L 19.0,38.0 L 20.0,36.0" fill="#030303"/>
	<path d="M 51.0,9.0 L 56.0,10.0 L 64.0,16.0 L 71.0,27.0 L 71.0,28.0 L 50.0,28.0 L 50.0,14.0 L 51.0,9.0" fill="#080808"/>
	<path d="M 50.0,68.0 L 71.0,68.0 L 67.0,76.0 L 62.0,82.0 L 54.0,87.0 L 51.0,87.0 L 50.0,81.0 L 50.0,68.0" fill="#0A0A0A"/>
	<path d="M 23.0,68.0 L 42.0,68.0 L 43.0,76.0 L 43.0,87.0 L 38.0,86.0 L 30.0,80.0 L 23.0,70.0 L 23.0,68.0" fill="#080808"/>
	<path d="M 40.0,9.0 L 43.0,9.0 L 42.0,28.0 L 23.0,28.0 L 25.0,23.0 L 31.0,15.0 L 40.0,9.0" fill="#060606"/>
	<path d="M 82.0,36.0 L 86.0,36.0 L 88.0,40.0 L 88.0,54.0 L 86.0,60.0 L 82.0,60.0 L 82.0,36.0" fill="#090909"/>
	<path d="M 10.0,36.0 L 12.0,36.0 L 12.0,60.0 L 9.0,60.0 L 8.0,53.0 L 8.0,40.0 L 10.0,36.0" fill="#161616"/>
	<path d="M 10.0,36.0 L 12.0,36.0 L 11.0,52.0 L 10.0,52.0 L 9.0,46.0 L 8.0,46.0 L 8.0,40.0 L 10.0,36.0" fill="#262626"/>
</svg>
