<?xml version="1.0" ?>
<svg baseProfile="full" height="600px" version="1.1" viewBox="-19.296000000000003 -19.296000000000003 230.592 230.592" width="600px" xmlns="http://www.w3.org/2000/svg" xmlns:ev="http://www.w3.org/2001/xml-events" xmlns:xlink="http://www.w3.org/1999/xlink">
	<defs/>
	<path d="M 0.0,0.0 L 192.0,0.0 L 192.0,192.0 L 0.0,192.0 L 0.0,0.0" fill="#1A69C2"/>
	<path d="M 0.0,0.0 L 192.0,0.0 L 192.0,192.0 L 0.0,192.0 L 0.0,0.0 M 90.0,4.0 L 77.0,7.0 L 63.0,14.0 L 53.0,22.0 L 46.0,29.0 L 37.0,42.0 L 29.0,59.0 L 25.0,75.0 L 24.0,83.0 L 24.0,109.0 L 27.0,125.0 L 32.0,140.0 L 40.0,155.0 L 49.0,166.0 L 56.0,173.0 L 70.0,182.0 L 84.0,187.0 L 90.0,188.0 L 99.0,188.0 L 117.0,184.0 L 129.0,178.0 L 139.0,170.0 L 146.0,163.0 L 153.0,153.0 L 161.0,137.0 L 164.0,130.0 L 168.0,110.0 L 168.0,83.0 L 166.0,71.0 L 162.0,57.0 L 154.0,41.0 L 148.0,32.0 L 139.0,22.0 L 129.0,14.0 L 117.0,8.0 L 106.0,5.0 L 99.0,4.0 L 90.0,4.0" fill="#FCFDFE"/>
	<path d="M 71.0,59.0 L 97.0,59.0 L 97.0,91.0 L 68.0,91.0 L 68.0,77.0 L 70.0,63.0 L 71.0,59.0" fill="#8CC6F7"/>
	<path d="M 68.0,101.0 L 97.0,101.0 L 97.0,133.0 L 71.0,133.0 L 68.0,116.0 L 68.0,101.0" fill="#8CC6F7"/>
	<path d="M 104.0,59.0 L 129.0,59.0 L 132.0,72.0 L 132.0,91.0 L 105.0,91.0 L 104.0,59.0" fill="#8BC6F6"/>
	<path d="M 105.0,101.0 L 132.0,101.0 L 132.0,117.0 L 130.0,131.0 L 129.0,132.0 L 105.0,132.0 L 105.0,101.0" fill="#8EC8F8"/>
	<path d="M 35.0,101.0 L 61.0,101.0 L 63.0,125.0 L 63.0,133.0 L 41.0,133.0 L 38.0,125.0 L 35.0,113.0 L 35.0,101.0" fill="#8CC6F7"/>
	<path d="M 41.0,59.0 L 63.0,59.0 L 63.0,68.0 L 62.0,73.0 L 61.0,91.0 L 35.0,91.0 L 35.0,80.0 L 39.0,63.0 L 41.0,59.0" fill="#8CC6F7"/>
	<path d="M 140.0,101.0 L 161.0,101.0 L 161.0,108.0 L 156.0,129.0 L 154.0,133.0 L 137.0,133.0 L 138.0,121.0 L 140.0,101.0" fill="#8CC6F7"/>
	<path d="M 137.0,59.0 L 154.0,59.0 L 157.0,65.0 L 161.0,83.0 L 161.0,91.0 L 140.0,91.0 L 138.0,70.0 L 137.0,59.0" fill="#8BC6F6"/>
	<path d="M 93.0,14.0 L 94.0,14.0 L 96.0,24.0 L 97.0,50.0 L 73.0,50.0 L 76.0,38.0 L 84.0,22.0 L 89.0,16.0 L 93.0,14.0" fill="#8CC6F7"/>
	<path d="M 73.0,142.0 L 97.0,142.0 L 96.0,169.0 L 94.0,177.0 L 90.0,176.0 L 85.0,171.0 L 79.0,161.0 L 73.0,143.0 L 73.0,142.0" fill="#8CC6F7"/>
	<path d="M 102.0,15.0 L 108.0,18.0 L 115.0,25.0 L 123.0,39.0 L 126.0,47.0 L 126.0,50.0 L 104.0,50.0 L 102.0,26.0 L 102.0,15.0" fill="#8BC6F6"/>
	<path d="M 104.0,142.0 L 126.0,142.0 L 123.0,152.0 L 117.0,164.0 L 107.0,175.0 L 102.0,177.0 L 102.0,163.0 L 103.0,158.0 L 104.0,142.0" fill="#8CC6F7"/>
	<path d="M 45.0,142.0 L 65.0,142.0 L 72.0,163.0 L 77.0,174.0 L 72.0,172.0 L 63.0,166.0 L 54.0,157.0 L 45.0,143.0 L 45.0,142.0" fill="#8BC6F6"/>
	<path d="M 75.0,18.0 L 77.0,19.0 L 71.0,31.0 L 65.0,50.0 L 45.0,50.0 L 49.0,42.0 L 56.0,33.0 L 64.0,25.0 L 75.0,18.0" fill="#8CC6F7"/>
	<path d="M 134.0,142.0 L 150.0,142.0 L 144.0,152.0 L 135.0,162.0 L 127.0,169.0 L 122.0,171.0 L 124.0,166.0 L 129.0,156.0 L 132.0,149.0 L 134.0,142.0" fill="#8AC5F6"/>
	<path d="M 121.0,20.0 L 128.0,24.0 L 138.0,33.0 L 145.0,41.0 L 150.0,50.0 L 134.0,50.0 L 127.0,31.0 L 121.0,22.0 L 121.0,20.0" fill="#8AC5F6"/>
</svg>
