<?xml version="1.0" ?>
<svg baseProfile="full" height="600px" version="1.1" viewBox="-12.06 -12.06 144.12 144.12" width="600px" xmlns="http://www.w3.org/2000/svg" xmlns:ev="http://www.w3.org/2001/xml-events" xmlns:xlink="http://www.w3.org/1999/xlink">
	<defs/>
	<path d="M 0.0,0.0 L 120.0,0.0 L 120.0,120.0 L 0.0,120.0 L 0.0,0.0" fill="#050505"/>
	<path d="M 0.0,0.0 L 120.0,0.0 L 120.0,120.0 L 0.0,120.0 L 0.0,0.0 M 51.0,12.0 L 39.0,16.0 L 30.0,22.0 L 23.0,28.0 L 16.0,39.0 L 12.0,51.0 L 12.0,68.0 L 16.0,81.0 L 22.0,90.0 L 27.0,96.0 L 37.0,103.0 L 47.0,107.0 L 51.0,108.0 L 66.0,108.0 L 75.0,106.0 L 89.0,99.0 L 99.0,89.0 L 107.0,73.0 L 108.0,66.0 L 108.0,51.0 L 104.0,39.0 L 97.0,29.0 L 89.0,21.0 L 73.0,13.0 L 66.0,12.0 L 51.0,12.0" fill="#FCFCFC"/>
	<path d="M 45.0,48.0 L 75.0,48.0 L 76.0,50.0 L 76.0,69.0 L 75.0,72.0 L 45.0,72.0 L 44.0,70.0 L 44.0,49.0 L 45.0,48.0" fill="#FAFAFA"/>
	<path d="M 84.0,48.0 L 98.0,48.0 L 100.0,52.0 L 100.0,65.0 L 98.0,72.0 L 83.0,72.0 L 84.0,48.0" fill="#F9F9F9"/>
	<path d="M 22.0,48.0 L 36.0,48.0 L 36.0,72.0 L 22.0,72.0 L 20.0,65.0 L 20.0,55.0 L 22.0,48.0" fill="#FBFBFB"/>
	<path d="M 58.0,20.0 L 63.0,21.0 L 68.0,26.0 L 73.0,37.0 L 73.0,40.0 L 47.0,40.0 L 48.0,34.0 L 54.0,23.0 L 58.0,20.0" fill="#F7F7F7"/>
	<path d="M 47.0,80.0 L 73.0,80.0 L 72.0,85.0 L 67.0,95.0 L 62.0,100.0 L 57.0,99.0 L 52.0,94.0 L 47.0,83.0 L 47.0,80.0" fill="#F8F8F8"/>
	<path d="M 82.0,80.0 L 94.0,80.0 L 92.0,85.0 L 85.0,92.0 L 77.0,96.0 L 80.0,85.0 L 82.0,80.0" fill="#EFEFEF"/>
	<path d="M 77.0,24.0 L 85.0,28.0 L 92.0,35.0 L 94.0,40.0 L 82.0,40.0 L 79.0,31.0 L 77.0,24.0" fill="#F2F2F2"/>
	<path d="M 26.0,80.0 L 38.0,80.0 L 41.0,88.0 L 43.0,96.0 L 34.0,91.0 L 27.0,83.0 L 26.0,80.0" fill="#EFEFEF"/>
	<path d="M 42.0,24.0 L 43.0,26.0 L 39.0,39.0 L 38.0,40.0 L 26.0,40.0 L 30.0,33.0 L 37.0,27.0 L 42.0,24.0" fill="#F1F1F1"/>
</svg>
