<?xml version="1.0" ?>
<svg baseProfile="full" height="600px" version="1.1" viewBox="-12.864 -12.864 153.728 153.728" width="600px" xmlns="http://www.w3.org/2000/svg" xmlns:ev="http://www.w3.org/2001/xml-events" xmlns:xlink="http://www.w3.org/1999/xlink">
	<defs/>
	<path d="M 0.0,0.0 L 128.0,0.0 L 128.0,128.0 L 0.0,128.0 L 0.0,0.0" fill="#FCFCFC"/>
	<path d="M 56.0,17.0 L 71.0,17.0 L 87.0,22.0 L 97.0,29.0 L 105.0,37.0 L 112.0,51.0 L 113.0,56.0 L 113.0,72.0 L 109.0,84.0 L 103.0,93.0 L 94.0,102.0 L 82.0,108.0 L 71.0,111.0 L 56.0,111.0 L 43.0,107.0 L 33.0,101.0 L 28.0,97.0 L 20.0,86.0 L 16.0,76.0 L 15.0,72.0 L 15.0,55.0 L 19.0,44.0 L 25.0,35.0 L 30.0,30.0 L 37.0,24.0 L 48.0,19.0 L 56.0,17.0" fill="#040404"/>
	<path d="M 54.0,48.0 L 76.0,48.0 L 77.0,51.0 L 77.0,60.0 L 53.0,60.0 L 53.0,49.0 L 54.0,48.0" fill="#F0F0F0"/>
	<path d="M 53.0,68.0 L 77.0,68.0 L 76.0,80.0 L 54.0,80.0 L 53.0,79.0 L 53.0,68.0" fill="#F2F2F2"/>
	<path d="M 27.0,48.0 L 46.0,48.0 L 45.0,60.0 L 24.0,60.0 L 26.0,50.0 L 27.0,48.0" fill="#EFEFEF"/>
	<path d="M 24.0,68.0 L 45.0,68.0 L 45.0,80.0 L 27.0,80.0 L 24.0,72.0 L 24.0,68.0" fill="#F1F1F1"/>
	<path d="M 84.0,48.0 L 102.0,48.0 L 105.0,57.0 L 105.0,60.0 L 85.0,60.0 L 84.0,48.0" fill="#EFEFEF"/>
	<path d="M 85.0,68.0 L 104.0,68.0 L 104.0,75.0 L 102.0,80.0 L 84.0,80.0 L 84.0,73.0 L 85.0,68.0" fill="#EFEFEF"/>
	<path d="M 63.0,25.0 L 67.0,26.0 L 73.0,35.0 L 74.0,41.0 L 55.0,41.0 L 58.0,31.0 L 63.0,25.0" fill="#EBEBEB"/>
	<path d="M 55.0,87.0 L 74.0,87.0 L 71.0,97.0 L 66.0,103.0 L 62.0,102.0 L 58.0,97.0 L 55.0,87.0" fill="#EDEDED"/>
	<path d="M 32.0,87.0 L 47.0,87.0 L 51.0,99.0 L 50.0,101.0 L 39.0,95.0 L 32.0,88.0 L 32.0,87.0" fill="#E9E9E9"/>
	<path d="M 50.0,27.0 L 51.0,29.0 L 48.0,37.0 L 47.0,41.0 L 32.0,41.0 L 38.0,34.0 L 48.0,28.0 L 50.0,27.0" fill="#EBEBEB"/>
	<path d="M 83.0,87.0 L 97.0,87.0 L 91.0,94.0 L 79.0,101.0 L 78.0,99.0 L 83.0,87.0" fill="#E4E4E4"/>
	<path d="M 78.0,27.0 L 88.0,32.0 L 97.0,40.0 L 97.0,41.0 L 83.0,41.0 L 78.0,29.0 L 78.0,27.0" fill="#E5E5E5"/>
</svg>
