<?xml version="1.0" ?>
<svg baseProfile="full" height="600px" version="1.1" viewBox="-9.648000000000001 -9.648000000000001 115.296 115.296" width="600px" xmlns="http://www.w3.org/2000/svg" xmlns:ev="http://www.w3.org/2001/xml-events" xmlns:xlink="http://www.w3.org/1999/xlink">
	<defs/>
	<path d="M 0.0,0.0 L 96.0,0.0 L 96.0,96.0 L 0.0,96.0 L 0.0,0.0" fill="#FCFCFC"/>
	<path d="M 37.0,36.0 L 66.0,36.0 L 67.0,41.0 L 67.0,55.0 L 66.0,60.0 L 37.0,60.0 L 36.0,59.0 L 36.0,38.0 L 37.0,36.0" fill="#080808"/>
	<path d="M 12.0,36.0 L 29.0,36.0 L 29.0,60.0 L 11.0,60.0 L 10.0,55.0 L 10.0,39.0 L 12.0,36.0" fill="#0A0A0A"/>
	<path d="M 47.0,9.0 L 52.0,10.0 L 58.0,15.0 L 64.0,26.0 L 64.0,29.0 L 38.0,29.0 L 40.0,19.0 L 45.0,11.0 L 47.0,9.0" fill="#0E0E0E"/>
	<path d="M 38.0,67.0 L 64.0,67.0 L 63.0,72.0 L 57.0,82.0 L 52.0,86.0 L 47.0,87.0 L 42.0,81.0 L 38.0,70.0 L 38.0,67.0" fill="#0D0D0D"/>
	<path d="M 75.0,36.0 L 87.0,36.0 L 89.0,40.0 L 89.0,53.0 L 87.0,60.0 L 74.0,60.0 L 75.0,36.0" fill="#0B0B0B"/>
	<path d="M 15.0,67.0 L 30.0,67.0 L 34.0,81.0 L 34.0,84.0 L 29.0,82.0 L 21.0,76.0 L 15.0,69.0 L 15.0,67.0" fill="#141414"/>
	<path d="M 32.0,12.0 L 34.0,12.0 L 30.0,29.0 L 15.0,29.0 L 17.0,25.0 L 24.0,17.0 L 32.0,12.0" fill="#141414"/>
	<path d="M 73.0,67.0 L 83.0,67.0 L 81.0,72.0 L 74.0,79.0 L 69.0,82.0 L 67.0,81.0 L 71.0,71.0 L 73.0,67.0" fill="#181818"/>
	<path d="M 67.0,14.0 L 72.0,16.0 L 80.0,23.0 L 83.0,27.0 L 83.0,29.0 L 73.0,29.0 L 68.0,17.0 L 67.0,14.0" fill="#191919"/>
</svg>
