<?xml version="1.0" ?>
<svg baseProfile="full" height="600px" version="1.1" viewBox="-12.864 -12.864 153.728 153.728" width="600px" xmlns="http://www.w3.org/2000/svg" xmlns:ev="http://www.w3.org/2001/xml-events" xmlns:xlink="http://www.w3.org/1999/xlink">
	<defs/>
	<path d="M 0.0,0.0 L 128.0,0.0 L 128.0,128.0 L 0.0,128.0 L 0.0,0.0" fill="#FCFCFC"/>
	<path d="M 56.0,16.0 L 73.0,16.0 L 86.0,21.0 L 95.0,27.0 L 103.0,35.0 L 109.0,46.0 L 112.0,55.0 L 112.0,70.0 L 110.0,79.0 L 103.0,93.0 L 93.0,103.0 L 77.0,111.0 L 73.0,112.0 L 57.0,112.0 L 48.0,110.0 L 38.0,105.0 L 28.0,96.0 L 22.0,88.0 L 17.0,77.0 L 16.0,73.0 L 16.0,55.0 L 20.0,44.0 L 26.0,34.0 L 35.0,25.0 L 51.0,17.0 L 56.0,16.0" fill="#040404"/>
	<path d="M 62.0,48.0 L 83.0,48.0 L 84.0,53.0 L 84.0,60.0 L 62.0,60.0 L 62.0,48.0" fill="#FAFAFA"/>
	<path d="M 62.0,68.0 L 84.0,68.0 L 83.0,80.0 L 62.0,80.0 L 62.0,68.0" fill="#FBFBFB"/>
	<path d="M 33.0,68.0 L 54.0,68.0 L 54.0,80.0 L 35.0,80.0 L 33.0,75.0 L 33.0,68.0" fill="#F9F9F9"/>
	<path d="M 35.0,48.0 L 54.0,48.0 L 54.0,60.0 L 33.0,60.0 L 34.0,49.0 L 35.0,48.0" fill="#FAFAFA"/>
	<path d="M 65.0,25.0 L 70.0,26.0 L 75.0,31.0 L 80.0,39.0 L 80.0,40.0 L 63.0,40.0 L 63.0,32.0 L 65.0,25.0" fill="#F4F4F4"/>
	<path d="M 63.0,88.0 L 80.0,88.0 L 76.0,96.0 L 72.0,101.0 L 69.0,103.0 L 65.0,103.0 L 63.0,93.0 L 63.0,88.0" fill="#F7F7F7"/>
	<path d="M 39.0,88.0 L 55.0,88.0 L 56.0,102.0 L 51.0,101.0 L 41.0,92.0 L 39.0,88.0" fill="#F3F3F3"/>
	<path d="M 53.0,26.0 L 56.0,26.0 L 55.0,40.0 L 39.0,40.0 L 42.0,35.0 L 51.0,27.0 L 53.0,26.0" fill="#F6F6F6"/>
	<path d="M 92.0,68.0 L 104.0,68.0 L 102.0,77.0 L 101.0,80.0 L 91.0,80.0 L 92.0,68.0" fill="#F4F4F4"/>
	<path d="M 91.0,48.0 L 101.0,48.0 L 103.0,53.0 L 103.0,60.0 L 92.0,60.0 L 91.0,48.0" fill="#F7F7F7"/>
	<path d="M 84.0,29.0 L 92.0,35.0 L 96.0,40.0 L 88.0,40.0 L 84.0,31.0 L 84.0,29.0" fill="#DEDEDE"/>
	<path d="M 88.0,88.0 L 96.0,88.0 L 90.0,95.0 L 86.0,98.0 L 84.0,97.0 L 88.0,88.0" fill="#E5E5E5"/>
</svg>
