<?xml version="1.0" ?>
<svg baseProfile="full" height="600px" version="1.1" viewBox="-19.296000000000003 -19.296000000000003 230.592 230.592" width="600px" xmlns="http://www.w3.org/2000/svg" xmlns:ev="http://www.w3.org/2001/xml-events" xmlns:xlink="http://www.w3.org/1999/xlink">
	<defs/>
	<path d="M 0.0,0.0 L 192.0,0.0 L 192.0,192.0 L 0.0,192.0 L 0.0,0.0" fill="#1968C1"/>
	<path d="M 0.0,0.0 L 192.0,0.0 L 192.0,192.0 L 0.0,192.0 L 0.0,0.0 M 84.0,16.0 L 68.0,20.0 L 52.0,28.0 L 39.0,38.0 L 30.0,48.0 L 22.0,62.0 L 17.0,74.0 L 15.0,83.0 L 15.0,106.0 L 17.0,118.0 L 24.0,134.0 L 31.0,145.0 L 41.0,156.0 L 52.0,164.0 L 68.0,172.0 L 84.0,176.0 L 107.0,176.0 L 121.0,173.0 L 137.0,166.0 L 148.0,158.0 L 157.0,150.0 L 166.0,138.0 L 173.0,123.0 L 175.0,118.0 L 177.0,109.0 L 177.0,84.0 L 173.0,68.0 L 166.0,54.0 L 159.0,45.0 L 151.0,36.0 L 140.0,28.0 L 126.0,21.0 L 114.0,17.0 L 107.0,16.0 L 84.0,16.0" fill="#FCFDFE"/>
	<path d="M 74.0,64.0 L 104.0,64.0 L 104.0,92.0 L 72.0,92.0 L 72.0,77.0 L 74.0,64.0" fill="#8DC7F7"/>
	<path d="M 72.0,100.0 L 104.0,100.0 L 104.0,123.0 L 103.0,128.0 L 74.0,128.0 L 72.0,116.0 L 72.0,100.0" fill="#8DC8F7"/>
	<path d="M 112.0,100.0 L 143.0,100.0 L 143.0,110.0 L 140.0,125.0 L 139.0,128.0 L 112.0,128.0 L 112.0,100.0" fill="#8DC7F7"/>
	<path d="M 112.0,64.0 L 139.0,64.0 L 142.0,74.0 L 143.0,83.0 L 143.0,92.0 L 112.0,92.0 L 112.0,64.0" fill="#8DC7F7"/>
	<path d="M 38.0,100.0 L 64.0,100.0 L 65.0,117.0 L 66.0,128.0 L 44.0,128.0 L 39.0,112.0 L 38.0,100.0" fill="#8DC7F7"/>
	<path d="M 44.0,64.0 L 66.0,64.0 L 64.0,92.0 L 38.0,92.0 L 40.0,75.0 L 43.0,65.0 L 44.0,64.0" fill="#8DC7F7"/>
	<path d="M 93.0,24.0 L 96.0,24.0 L 99.0,31.0 L 102.0,46.0 L 102.0,56.0 L 76.0,56.0 L 78.0,47.0 L 83.0,35.0 L 89.0,27.0 L 93.0,24.0" fill="#8BC6F6"/>
	<path d="M 76.0,136.0 L 102.0,136.0 L 101.0,150.0 L 99.0,160.0 L 96.0,168.0 L 91.0,167.0 L 84.0,159.0 L 79.0,147.0 L 76.0,136.0" fill="#8CC7F7"/>
	<path d="M 106.0,26.0 L 112.0,28.0 L 118.0,32.0 L 124.0,37.0 L 133.0,50.0 L 135.0,56.0 L 111.0,56.0 L 110.0,54.0 L 108.0,36.0 L 106.0,26.0" fill="#8BC5F6"/>
	<path d="M 111.0,136.0 L 135.0,136.0 L 133.0,142.0 L 126.0,152.0 L 121.0,158.0 L 111.0,165.0 L 106.0,166.0 L 108.0,155.0 L 110.0,139.0 L 111.0,136.0" fill="#8BC5F6"/>
	<path d="M 147.0,64.0 L 162.0,64.0 L 167.0,76.0 L 169.0,85.0 L 169.0,92.0 L 151.0,92.0 L 149.0,72.0 L 147.0,64.0" fill="#8BC6F6"/>
	<path d="M 151.0,100.0 L 169.0,100.0 L 167.0,116.0 L 162.0,128.0 L 148.0,128.0 L 150.0,111.0 L 151.0,100.0" fill="#8BC6F6"/>
	<path d="M 48.0,136.0 L 68.0,136.0 L 73.0,153.0 L 78.0,164.0 L 72.0,162.0 L 61.0,154.0 L 52.0,144.0 L 48.0,136.0" fill="#8AC5F6"/>
	<path d="M 75.0,28.0 L 78.0,29.0 L 72.0,41.0 L 68.0,56.0 L 48.0,56.0 L 51.0,50.0 L 58.0,41.0 L 67.0,33.0 L 75.0,28.0" fill="#8AC5F6"/>
	<path d="M 144.0,136.0 L 156.0,136.0 L 154.0,141.0 L 143.0,152.0 L 133.0,159.0 L 131.0,158.0 L 138.0,148.0 L 144.0,136.0" fill="#88C3F5"/>
	<path d="M 131.0,33.0 L 136.0,35.0 L 146.0,43.0 L 154.0,51.0 L 157.0,56.0 L 144.0,56.0 L 137.0,42.0 L 131.0,33.0" fill="#88C3F5"/>
	<path d="M 23.0,100.0 L 30.0,100.0 L 33.0,119.0 L 35.0,128.0 L 30.0,128.0 L 24.0,112.0 L 23.0,100.0" fill="#89C4F5"/>
	<path d="M 30.0,64.0 L 35.0,64.0 L 31.0,84.0 L 30.0,92.0 L 23.0,92.0 L 25.0,76.0 L 30.0,64.0" fill="#89C4F5"/>
	<path d="M 43.0,46.0 L 43.0,49.0 L 39.0,56.0 L 36.0,56.0 L 38.0,51.0 L 43.0,46.0" fill="#7AB8EF"/>
	<path d="M 35.0,136.0 L 39.0,136.0 L 43.0,143.0 L 42.0,145.0 L 35.0,137.0 L 35.0,136.0" fill="#7BB8EF"/>
</svg>
