<?xml version="1.0" ?>
<svg baseProfile="full" height="600px" version="1.1" viewBox="-20.1 -20.1 240.2 240.2" width="600px" xmlns="http://www.w3.org/2000/svg" xmlns:ev="http://www.w3.org/2001/xml-events" xmlns:xlink="http://www.w3.org/1999/xlink">
	<defs/>
	<path d="M 0.0,0.0 L 200.0,0.0 L 200.0,200.0 L 0.0,200.0 L 0.0,0.0" fill="#070707"/>
	<path d="M 0.0,0.0 L 200.0,0.0 L 200.0,200.0 L 0.0,200.0 L 0.0,0.0 M 87.0,10.0 L 70.0,14.0 L 55.0,20.0 L 41.0,29.0 L 29.0,40.0 L 22.0,48.0 L 13.0,63.0 L 8.0,76.0 L 5.0,92.0 L 5.0,106.0 L 8.0,123.0 L 14.0,139.0 L 23.0,153.0 L 32.0,163.0 L 42.0,172.0 L 55.0,180.0 L 70.0,186.0 L 87.0,190.0 L 110.0,190.0 L 127.0,187.0 L 142.0,181.0 L 155.0,174.0 L 166.0,165.0 L 175.0,156.0 L 185.0,141.0 L 192.0,124.0 L 195.0,109.0 L 195.0,94.0 L 192.0,76.0 L 186.0,61.0 L 177.0,47.0 L 168.0,37.0 L 158.0,28.0 L 144.0,20.0 L 132.0,15.0 L 123.0,12.0 L 111.0,10.0 L 87.0,10.0" fill="#FCFCFC"/>
	<path d="M 17.0,104.0 L 54.0,104.0 L 58.0,133.0 L 59.0,140.0 L 42.0,145.0 L 35.0,148.0 L 32.0,148.0 L 24.0,134.0 L 19.0,119.0 L 17.0,109.0 L 17.0,104.0" fill="#FBFBFB"/>
	<path d="M 32.0,52.0 L 37.0,53.0 L 55.0,59.0 L 59.0,60.0 L 55.0,87.0 L 54.0,96.0 L 17.0,96.0 L 19.0,81.0 L 23.0,68.0 L 30.0,55.0 L 32.0,52.0" fill="#FBFBFB"/>
	<path d="M 167.0,51.0 L 170.0,51.0 L 178.0,64.0 L 183.0,75.0 L 186.0,88.0 L 186.0,96.0 L 153.0,96.0 L 149.0,67.0 L 147.0,59.0 L 157.0,55.0 L 167.0,51.0" fill="#FBFBFB"/>
	<path d="M 153.0,104.0 L 186.0,104.0 L 186.0,111.0 L 181.0,130.0 L 173.0,145.0 L 170.0,149.0 L 165.0,148.0 L 149.0,142.0 L 148.0,137.0 L 152.0,113.0 L 153.0,104.0" fill="#FBFBFB"/>
	<path d="M 136.0,61.0 L 140.0,62.0 L 143.0,76.0 L 144.0,84.0 L 144.0,96.0 L 107.0,96.0 L 107.0,65.0 L 136.0,61.0" fill="#FAFAFA"/>
	<path d="M 107.0,104.0 L 144.0,104.0 L 144.0,117.0 L 141.0,133.0 L 139.0,139.0 L 116.0,136.0 L 107.0,135.0 L 107.0,104.0" fill="#FBFBFB"/>
	<path d="M 67.0,62.0 L 84.0,64.0 L 99.0,65.0 L 99.0,96.0 L 63.0,96.0 L 63.0,83.0 L 65.0,68.0 L 67.0,62.0" fill="#FBFBFB"/>
	<path d="M 63.0,104.0 L 99.0,104.0 L 99.0,135.0 L 67.0,138.0 L 65.0,131.0 L 63.0,117.0 L 63.0,104.0" fill="#FBFBFB"/>
	<path d="M 105.0,19.0 L 111.0,20.0 L 119.0,26.0 L 128.0,36.0 L 136.0,51.0 L 136.0,54.0 L 112.0,57.0 L 106.0,57.0 L 105.0,19.0" fill="#F7F7F7"/>
	<path d="M 106.0,143.0 L 125.0,144.0 L 136.0,146.0 L 133.0,155.0 L 127.0,165.0 L 118.0,175.0 L 111.0,180.0 L 105.0,181.0 L 106.0,143.0" fill="#F8F8F8"/>
	<path d="M 95.0,18.0 L 97.0,18.0 L 98.0,34.0 L 98.0,57.0 L 83.0,57.0 L 70.0,55.0 L 71.0,48.0 L 78.0,34.0 L 85.0,25.0 L 93.0,19.0 L 95.0,18.0" fill="#F8F8F8"/>
	<path d="M 83.0,143.0 L 98.0,143.0 L 98.0,161.0 L 97.0,182.0 L 91.0,180.0 L 83.0,173.0 L 76.0,162.0 L 71.0,151.0 L 70.0,145.0 L 83.0,143.0" fill="#FAFAFA"/>
	<path d="M 59.0,147.0 L 62.0,148.0 L 68.0,163.0 L 75.0,175.0 L 78.0,179.0 L 70.0,177.0 L 54.0,169.0 L 44.0,161.0 L 39.0,156.0 L 39.0,154.0 L 55.0,148.0 L 59.0,147.0" fill="#F6F6F6"/>
	<path d="M 76.0,21.0 L 78.0,22.0 L 71.0,31.0 L 63.0,48.0 L 61.0,52.0 L 52.0,51.0 L 39.0,46.0 L 41.0,42.0 L 51.0,33.0 L 65.0,25.0 L 76.0,21.0" fill="#F7F7F7"/>
	<path d="M 144.0,149.0 L 153.0,151.0 L 163.0,155.0 L 161.0,159.0 L 148.0,169.0 L 129.0,178.0 L 127.0,177.0 L 134.0,169.0 L 142.0,154.0 L 144.0,149.0" fill="#F6F6F6"/>
	<path d="M 127.0,22.0 L 136.0,25.0 L 148.0,31.0 L 158.0,39.0 L 163.0,43.0 L 163.0,45.0 L 147.0,51.0 L 144.0,51.0 L 136.0,34.0 L 128.0,24.0 L 127.0,22.0" fill="#F6F6F6"/>
</svg>
