<?xml version="1.0" ?>
<svg baseProfile="full" height="600px" version="1.1" viewBox="-12.864 -12.864 153.728 153.728" width="600px" xmlns="http://www.w3.org/2000/svg" xmlns:ev="http://www.w3.org/2001/xml-events" xmlns:xlink="http://www.w3.org/1999/xlink">
	<defs/>
	<path d="M 0.0,0.0 L 128.0,0.0 L 128.0,128.0 L 0.0,128.0 L 0.0,0.0" fill="#FCFCFC"/>
	<path d="M 55.0,16.0 L 73.0,16.0 L 86.0,21.0 L 95.0,27.0 L 103.0,35.0 L 109.0,46.0 L 112.0,55.0 L 112.0,70.0 L 110.0,79.0 L 103.0,93.0 L 93.0,103.0 L 77.0,111.0 L 70.0,112.0 L 55.0,112.0 L 43.0,108.0 L 33.0,101.0 L 25.0,93.0 L 17.0,77.0 L 16.0,73.0 L 16.0,55.0 L 20.0,44.0 L 26.0,34.0 L 35.0,25.0 L 45.0,19.0 L 55.0,16.0" fill="#040404"/>
	<path d="M 54.0,48.0 L 76.0,48.0 L 76.0,60.0 L 53.0,60.0 L 53.0,49.0 L 54.0,48.0" fill="#F8F8F8"/>
	<path d="M 53.0,68.0 L 76.0,68.0 L 76.0,80.0 L 54.0,80.0 L 53.0,77.0 L 53.0,68.0" fill="#F9F9F9"/>
	<path d="M 25.0,68.0 L 45.0,68.0 L 46.0,80.0 L 28.0,80.0 L 25.0,72.0 L 25.0,68.0" fill="#F8F8F8"/>
	<path d="M 28.0,48.0 L 46.0,48.0 L 45.0,60.0 L 25.0,60.0 L 26.0,52.0 L 28.0,48.0" fill="#F9F9F9"/>
	<path d="M 84.0,68.0 L 104.0,68.0 L 102.0,77.0 L 101.0,80.0 L 84.0,80.0 L 84.0,68.0" fill="#F7F7F7"/>
	<path d="M 84.0,48.0 L 101.0,48.0 L 103.0,53.0 L 103.0,60.0 L 84.0,60.0 L 84.0,48.0" fill="#F7F7F7"/>
	<path d="M 63.0,24.0 L 67.0,25.0 L 72.0,33.0 L 74.0,40.0 L 56.0,40.0 L 58.0,31.0 L 62.0,25.0 L 63.0,24.0" fill="#F7F7F7"/>
	<path d="M 56.0,88.0 L 74.0,88.0 L 70.0,99.0 L 66.0,104.0 L 62.0,103.0 L 57.0,95.0 L 56.0,88.0" fill="#F8F8F8"/>
	<path d="M 33.0,88.0 L 47.0,88.0 L 51.0,99.0 L 51.0,101.0 L 46.0,100.0 L 38.0,94.0 L 33.0,88.0" fill="#F5F5F5"/>
	<path d="M 48.0,27.0 L 51.0,28.0 L 48.0,39.0 L 47.0,40.0 L 33.0,40.0 L 39.0,33.0 L 48.0,27.0" fill="#F6F6F6"/>
	<path d="M 82.0,88.0 L 96.0,88.0 L 90.0,95.0 L 80.0,101.0 L 78.0,101.0 L 81.0,90.0 L 82.0,88.0" fill="#F1F1F1"/>
	<path d="M 78.0,27.0 L 84.0,29.0 L 92.0,35.0 L 96.0,40.0 L 82.0,40.0 L 78.0,27.0" fill="#F3F3F3"/>
</svg>
