<?xml version="1.0" ?>
<svg baseProfile="full" height="600px" version="1.1" viewBox="-12.06 -12.06 144.12 144.12" width="600px" xmlns="http://www.w3.org/2000/svg" xmlns:ev="http://www.w3.org/2001/xml-events" xmlns:xlink="http://www.w3.org/1999/xlink">
	<defs/>
	<path d="M 0.0,0.0 L 120.0,0.0 L 120.0,120.0 L 0.0,120.0 L 0.0,0.0" fill="#070707"/>
	<path d="M 0.0,0.0 L 120.0,0.0 L 120.0,120.0 L 0.0,120.0 L 0.0,0.0 M 54.0,14.0 L 41.0,17.0 L 28.0,24.0 L 22.0,29.0 L 14.0,40.0 L 10.0,50.0 L 10.0,69.0 L 15.0,82.0 L 22.0,91.0 L 33.0,99.0 L 44.0,104.0 L 53.0,106.0 L 66.0,106.0 L 81.0,102.0 L 92.0,96.0 L 98.0,91.0 L 104.0,83.0 L 108.0,75.0 L 110.0,69.0 L 110.0,50.0 L 105.0,38.0 L 98.0,29.0 L 87.0,21.0 L 75.0,16.0 L 67.0,14.0 L 54.0,14.0" fill="#FCFCFC"/>
	<path d="M 47.0,49.0 L 78.0,49.0 L 79.0,53.0 L 79.0,65.0 L 78.0,71.0 L 47.0,71.0 L 47.0,49.0" fill="#FBFBFB"/>
	<path d="M 21.0,49.0 L 38.0,49.0 L 38.0,71.0 L 21.0,71.0 L 20.0,66.0 L 20.0,53.0 L 21.0,49.0" fill="#FAFAFA"/>
	<path d="M 58.0,22.0 L 64.0,23.0 L 70.0,28.0 L 76.0,40.0 L 76.0,41.0 L 49.0,41.0 L 50.0,34.0 L 54.0,26.0 L 58.0,22.0" fill="#F7F7F7"/>
	<path d="M 49.0,79.0 L 75.0,79.0 L 74.0,85.0 L 68.0,94.0 L 62.0,98.0 L 57.0,97.0 L 52.0,91.0 L 49.0,82.0 L 49.0,79.0" fill="#F8F8F8"/>
	<path d="M 87.0,49.0 L 100.0,49.0 L 102.0,53.0 L 102.0,65.0 L 100.0,71.0 L 87.0,71.0 L 87.0,49.0" fill="#FAFAFA"/>
	<path d="M 26.0,79.0 L 40.0,79.0 L 44.0,91.0 L 45.0,95.0 L 39.0,93.0 L 29.0,85.0 L 26.0,81.0 L 26.0,79.0" fill="#EFEFEF"/>
	<path d="M 43.0,25.0 L 45.0,25.0 L 42.0,34.0 L 40.0,41.0 L 26.0,41.0 L 28.0,37.0 L 33.0,32.0 L 41.0,26.0 L 43.0,25.0" fill="#F1F1F1"/>
	<path d="M 84.0,79.0 L 96.0,79.0 L 93.0,84.0 L 85.0,91.0 L 79.0,94.0 L 81.0,88.0 L 84.0,79.0" fill="#EDEDED"/>
	<path d="M 79.0,26.0 L 88.0,31.0 L 95.0,38.0 L 96.0,41.0 L 85.0,41.0 L 80.0,30.0 L 79.0,26.0" fill="#F0F0F0"/>
</svg>
