<?xml version="1.0" ?>
<svg baseProfile="full" height="600px" version="1.1" viewBox="-20.1 -20.1 240.2 240.2" width="600px" xmlns="http://www.w3.org/2000/svg" xmlns:ev="http://www.w3.org/2001/xml-events" xmlns:xlink="http://www.w3.org/1999/xlink">
	<defs/>
	<path d="M 0.0,0.0 L 200.0,0.0 L 200.0,200.0 L 0.0,200.0 L 0.0,0.0" fill="#030303"/>
	<path d="M 32.0,74.0 L 41.0,79.0 L 56.0,90.0 L 75.0,103.0 L 95.0,117.0 L 99.0,120.0 L 103.0,118.0 L 115.0,110.0 L 135.0,96.0 L 158.0,80.0 L 167.0,74.0 L 168.0,74.0 L 168.0,192.0 L 32.0,192.0 L 32.0,74.0" fill="#FDFDFD"/>
	<path d="M 0.0,0.0 L 200.0,0.0 L 200.0,200.0 L 183.0,200.0 L 187.0,197.0 L 192.0,193.0 L 195.0,186.0 L 195.0,69.0 L 190.0,61.0 L 174.0,53.0 L 116.0,24.0 L 111.0,22.0 L 105.0,21.0 L 93.0,21.0 L 82.0,25.0 L 20.0,56.0 L 10.0,61.0 L 5.0,69.0 L 5.0,187.0 L 10.0,195.0 L 17.0,199.0 L 17.0,200.0 L 0.0,200.0 L 0.0,0.0" fill="#FDFDFD"/>
	<path d="M 94.0,28.0 L 104.0,28.0 L 114.0,31.0 L 172.0,60.0 L 167.0,65.0 L 151.0,76.0 L 131.0,90.0 L 108.0,106.0 L 101.0,111.0 L 96.0,109.0 L 78.0,96.0 L 59.0,83.0 L 39.0,69.0 L 28.0,61.0 L 32.0,58.0 L 88.0,30.0 L 94.0,28.0" fill="#FBFBFB"/>
	<path d="M 17.0,65.0 L 22.0,66.0 L 24.0,68.0 L 24.0,192.0 L 17.0,191.0 L 13.0,187.0 L 12.0,184.0 L 12.0,71.0 L 15.0,66.0 L 17.0,65.0" fill="#FDFDFD"/>
	<path d="M 180.0,65.0 L 184.0,66.0 L 187.0,69.0 L 188.0,71.0 L 188.0,184.0 L 185.0,190.0 L 180.0,192.0 L 176.0,192.0 L 176.0,68.0 L 180.0,65.0" fill="#FDFDFD"/>
</svg>
