<?xml version="1.0" ?>
<svg baseProfile="full" height="600px" version="1.1" viewBox="-16.08 -16.08 192.16 192.16" width="600px" xmlns="http://www.w3.org/2000/svg" xmlns:ev="http://www.w3.org/2001/xml-events" xmlns:xlink="http://www.w3.org/1999/xlink">
	<defs/>
	<path d="M 0.0,0.0 L 160.0,0.0 L 160.0,160.0 L 0.0,160.0 L 0.0,0.0" fill="#F58E8E"/>
	<path d="M 71.0,20.0 L 90.0,20.0 L 103.0,24.0 L 114.0,30.0 L 119.0,34.0 L 117.0,38.0 L 106.0,49.0 L 106.0,54.0 L 111.0,54.0 L 124.0,41.0 L 128.0,43.0 L 134.0,52.0 L 138.0,62.0 L 140.0,70.0 L 140.0,87.0 L 138.0,97.0 L 133.0,109.0 L 126.0,119.0 L 116.0,129.0 L 100.0,137.0 L 90.0,140.0 L 70.0,140.0 L 57.0,136.0 L 46.0,130.0 L 37.0,123.0 L 28.0,111.0 L 23.0,100.0 L 20.0,86.0 L 20.0,74.0 L 22.0,62.0 L 30.0,46.0 L 37.0,38.0 L 47.0,29.0 L 62.0,22.0 L 71.0,20.0" fill="#F69090"/>
	<path d="M 0.0,0.0 L 142.0,0.0 L 138.0,5.0 L 137.0,18.0 L 132.0,23.0 L 127.0,21.0 L 117.0,14.0 L 105.0,9.0 L 96.0,6.0 L 89.0,5.0 L 70.0,5.0 L 54.0,9.0 L 38.0,17.0 L 28.0,25.0 L 19.0,35.0 L 11.0,49.0 L 6.0,64.0 L 5.0,70.0 L 5.0,90.0 L 9.0,106.0 L 17.0,122.0 L 25.0,132.0 L 35.0,141.0 L 49.0,149.0 L 64.0,154.0 L 69.0,155.0 L 90.0,155.0 L 106.0,151.0 L 122.0,143.0 L 132.0,135.0 L 141.0,125.0 L 149.0,111.0 L 154.0,96.0 L 155.0,90.0 L 155.0,69.0 L 151.0,54.0 L 143.0,38.0 L 137.0,30.0 L 139.0,26.0 L 143.0,22.0 L 156.0,21.0 L 160.0,17.0 L 160.0,160.0 L 0.0,160.0 L 0.0,0.0" fill="#FDFCFC"/>
	<path d="M 71.0,20.0 L 90.0,20.0 L 103.0,24.0 L 114.0,30.0 L 119.0,34.0 L 117.0,38.0 L 109.0,46.0 L 105.0,44.0 L 92.0,38.0 L 85.0,37.0 L 72.0,37.0 L 60.0,41.0 L 49.0,49.0 L 43.0,57.0 L 39.0,65.0 L 37.0,72.0 L 37.0,85.0 L 39.0,94.0 L 45.0,106.0 L 51.0,113.0 L 61.0,119.0 L 72.0,123.0 L 86.0,123.0 L 99.0,119.0 L 109.0,113.0 L 117.0,103.0 L 122.0,91.0 L 123.0,88.0 L 123.0,73.0 L 120.0,63.0 L 115.0,54.0 L 115.0,50.0 L 124.0,41.0 L 128.0,43.0 L 134.0,52.0 L 138.0,62.0 L 140.0,70.0 L 140.0,87.0 L 138.0,97.0 L 133.0,109.0 L 126.0,119.0 L 116.0,129.0 L 100.0,137.0 L 90.0,140.0 L 70.0,140.0 L 57.0,136.0 L 46.0,130.0 L 37.0,123.0 L 28.0,111.0 L 23.0,100.0 L 20.0,86.0 L 20.0,74.0 L 22.0,62.0 L 30.0,46.0 L 37.0,38.0 L 47.0,29.0 L 62.0,22.0 L 71.0,20.0" fill="#FDFCFC"/>
	<path d="M 73.0,52.0 L 86.0,52.0 L 95.0,56.0 L 103.0,63.0 L 108.0,73.0 L 108.0,85.0 L 105.0,94.0 L 97.0,103.0 L 89.0,107.0 L 86.0,108.0 L 73.0,108.0 L 63.0,103.0 L 55.0,94.0 L 52.0,86.0 L 52.0,73.0 L 57.0,63.0 L 66.0,55.0 L 73.0,52.0" fill="#FEFBFB"/>
	<path d="M 70.0,4.0 L 89.0,4.0 L 99.0,6.0 L 115.0,12.0 L 126.0,19.0 L 130.0,22.0 L 129.0,26.0 L 124.0,24.0 L 114.0,17.0 L 98.0,11.0 L 88.0,9.0 L 71.0,9.0 L 55.0,13.0 L 41.0,20.0 L 31.0,28.0 L 22.0,38.0 L 14.0,52.0 L 10.0,66.0 L 9.0,71.0 L 9.0,86.0 L 12.0,101.0 L 17.0,114.0 L 26.0,127.0 L 34.0,135.0 L 48.0,144.0 L 61.0,149.0 L 72.0,151.0 L 89.0,151.0 L 105.0,147.0 L 119.0,140.0 L 129.0,132.0 L 138.0,122.0 L 144.0,112.0 L 149.0,99.0 L 151.0,89.0 L 151.0,70.0 L 147.0,55.0 L 140.0,41.0 L 134.0,33.0 L 135.0,30.0 L 139.0,31.0 L 148.0,45.0 L 152.0,54.0 L 156.0,69.0 L 156.0,90.0 L 152.0,106.0 L 144.0,122.0 L 136.0,132.0 L 129.0,139.0 L 115.0,148.0 L 103.0,153.0 L 90.0,156.0 L 69.0,156.0 L 54.0,152.0 L 38.0,144.0 L 28.0,136.0 L 21.0,129.0 L 12.0,115.0 L 7.0,102.0 L 4.0,90.0 L 4.0,70.0 L 8.0,54.0 L 16.0,38.0 L 24.0,28.0 L 31.0,21.0 L 45.0,12.0 L 57.0,7.0 L 70.0,4.0" fill="#CA4C4C"/>
	<path d="M 142.0,0.0 L 160.0,0.0 L 160.0,17.0 L 156.0,22.0 L 143.0,23.0 L 137.0,30.0 L 129.0,37.0 L 111.0,55.0 L 106.0,54.0 L 105.0,49.0 L 129.0,25.0 L 134.0,20.0 L 136.0,18.0 L 137.0,5.0 L 142.0,0.0" fill="#517CB5"/>
	<path d="M 76.0,68.0 L 83.0,68.0 L 88.0,71.0 L 92.0,76.0 L 92.0,84.0 L 89.0,89.0 L 83.0,92.0 L 76.0,92.0 L 69.0,86.0 L 68.0,83.0 L 68.0,76.0 L 71.0,71.0 L 76.0,68.0" fill="#F69090"/>
	<path d="M 136.0,18.0 L 137.0,18.0 L 137.0,23.0 L 142.0,23.0 L 137.0,30.0 L 129.0,37.0 L 111.0,55.0 L 106.0,54.0 L 105.0,49.0 L 129.0,25.0 L 134.0,20.0 L 136.0,18.0" fill="#697A8F"/>
	<path d="M 149.0,0.0 L 154.0,0.0 L 148.0,7.0 L 141.0,13.0 L 141.0,7.0 L 149.0,0.0" fill="#85B1EB"/>
	<path d="M 159.0,6.0 L 160.0,6.0 L 160.0,11.0 L 154.0,18.0 L 148.0,18.0 L 154.0,11.0 L 159.0,6.0" fill="#84B0E9"/>
</svg>
