<?xml version="1.0" ?>
<svg baseProfile="full" height="600px" version="1.1" viewBox="-20.1 -20.1 240.2 240.2" width="600px" xmlns="http://www.w3.org/2000/svg" xmlns:ev="http://www.w3.org/2001/xml-events" xmlns:xlink="http://www.w3.org/1999/xlink">
	<defs/>
	<path d="M 0.0,0.0 L 200.0,0.0 L 200.0,200.0 L 0.0,200.0 L 0.0,0.0" fill="#FBFBFB"/>
	<path d="M 0.0,0.0 L 200.0,0.0 L 200.0,200.0 L 0.0,200.0 L 0.0,0.0 M 88.0,8.0 L 71.0,12.0 L 55.0,19.0 L 41.0,29.0 L 27.0,43.0 L 17.0,59.0 L 11.0,74.0 L 8.0,88.0 L 8.0,111.0 L 11.0,126.0 L 18.0,143.0 L 26.0,155.0 L 35.0,166.0 L 49.0,177.0 L 61.0,184.0 L 74.0,189.0 L 89.0,192.0 L 111.0,192.0 L 125.0,189.0 L 141.0,183.0 L 157.0,173.0 L 173.0,157.0 L 183.0,141.0 L 190.0,122.0 L 192.0,110.0 L 192.0,89.0 L 189.0,74.0 L 182.0,57.0 L 172.0,42.0 L 165.0,34.0 L 154.0,25.0 L 141.0,17.0 L 126.0,11.0 L 109.0,8.0 L 88.0,8.0" fill="#FCFCFC"/>
	<path d="M 88.0,8.0 L 109.0,8.0 L 126.0,11.0 L 143.0,18.0 L 158.0,28.0 L 165.0,34.0 L 172.0,42.0 L 182.0,57.0 L 189.0,74.0 L 192.0,89.0 L 192.0,110.0 L 189.0,125.0 L 183.0,141.0 L 173.0,157.0 L 157.0,173.0 L 141.0,183.0 L 122.0,190.0 L 111.0,192.0 L 89.0,192.0 L 74.0,189.0 L 57.0,182.0 L 45.0,174.0 L 34.0,165.0 L 23.0,151.0 L 17.0,141.0 L 11.0,126.0 L 8.0,111.0 L 8.0,88.0 L 12.0,71.0 L 19.0,55.0 L 29.0,41.0 L 43.0,27.0 L 57.0,18.0 L 71.0,12.0 L 88.0,8.0 M 89.0,16.0 L 70.0,21.0 L 56.0,28.0 L 43.0,38.0 L 35.0,46.0 L 26.0,60.0 L 21.0,70.0 L 16.0,89.0 L 16.0,110.0 L 21.0,129.0 L 29.0,145.0 L 37.0,156.0 L 45.0,164.0 L 58.0,173.0 L 70.0,179.0 L 89.0,184.0 L 109.0,184.0 L 126.0,180.0 L 138.0,175.0 L 150.0,168.0 L 163.0,156.0 L 172.0,144.0 L 179.0,129.0 L 183.0,114.0 L 184.0,109.0 L 184.0,90.0 L 180.0,73.0 L 175.0,61.0 L 167.0,49.0 L 156.0,37.0 L 144.0,28.0 L 129.0,21.0 L 110.0,16.0 L 89.0,16.0" fill="#080808"/>
	<path d="M 78.0,23.0 L 87.0,24.0 L 92.0,29.0 L 95.0,38.0 L 97.0,61.0 L 98.0,63.0 L 110.0,63.0 L 121.0,61.0 L 131.0,61.0 L 137.0,64.0 L 140.0,68.0 L 141.0,75.0 L 146.0,79.0 L 148.0,83.0 L 148.0,90.0 L 147.0,95.0 L 150.0,99.0 L 150.0,107.0 L 147.0,113.0 L 147.0,123.0 L 143.0,130.0 L 129.0,137.0 L 112.0,140.0 L 96.0,142.0 L 70.0,142.0 L 50.0,140.0 L 49.0,132.0 L 67.0,132.0 L 71.0,133.0 L 97.0,133.0 L 124.0,129.0 L 137.0,124.0 L 138.0,123.0 L 138.0,118.0 L 136.0,115.0 L 137.0,110.0 L 141.0,106.0 L 141.0,101.0 L 135.0,97.0 L 136.0,92.0 L 139.0,89.0 L 139.0,83.0 L 134.0,81.0 L 132.0,78.0 L 131.0,70.0 L 122.0,70.0 L 109.0,72.0 L 96.0,72.0 L 90.0,67.0 L 88.0,63.0 L 86.0,39.0 L 83.0,32.0 L 80.0,32.0 L 77.0,49.0 L 73.0,59.0 L 61.0,76.0 L 54.0,90.0 L 47.0,96.0 L 44.0,96.0 L 44.0,88.0 L 49.0,80.0 L 57.0,66.0 L 66.0,53.0 L 70.0,38.0 L 72.0,28.0 L 78.0,23.0" fill="#080808"/>
</svg>
