<?xml version="1.0" ?>
<svg baseProfile="full" height="600px" version="1.1" viewBox="-16.08 -16.08 192.16 192.16" width="600px" xmlns="http://www.w3.org/2000/svg" xmlns:ev="http://www.w3.org/2001/xml-events" xmlns:xlink="http://www.w3.org/1999/xlink">
	<defs/>
	<path d="M 0.0,0.0 L 160.0,0.0 L 160.0,160.0 L 0.0,160.0 L 0.0,0.0" fill="#B7DEBB"/>
	<path d="M 0.0,0.0 L 160.0,0.0 L 160.0,160.0 L 0.0,160.0 L 0.0,0.0 M 70.0,4.0 L 54.0,8.0 L 38.0,16.0 L 28.0,24.0 L 21.0,31.0 L 12.0,45.0 L 7.0,57.0 L 4.0,70.0 L 4.0,91.0 L 8.0,106.0 L 16.0,122.0 L 24.0,132.0 L 31.0,139.0 L 45.0,148.0 L 56.0,153.0 L 70.0,156.0 L 91.0,156.0 L 106.0,152.0 L 122.0,144.0 L 132.0,136.0 L 139.0,129.0 L 148.0,115.0 L 154.0,100.0 L 156.0,90.0 L 156.0,70.0 L 152.0,54.0 L 144.0,38.0 L 136.0,28.0 L 129.0,21.0 L 115.0,12.0 L 104.0,7.0 L 91.0,4.0 L 70.0,4.0" fill="#FCFDFC"/>
	<path d="M 90.0,39.0 L 94.0,40.0 L 96.0,42.0 L 95.0,48.0 L 88.0,59.0 L 82.0,66.0 L 88.0,68.0 L 109.0,71.0 L 120.0,72.0 L 125.0,75.0 L 126.0,76.0 L 126.0,81.0 L 123.0,84.0 L 116.0,85.0 L 120.0,92.0 L 119.0,97.0 L 116.0,100.0 L 110.0,102.0 L 113.0,106.0 L 113.0,113.0 L 107.0,116.0 L 105.0,116.0 L 108.0,122.0 L 107.0,126.0 L 105.0,127.0 L 92.0,126.0 L 73.0,123.0 L 62.0,122.0 L 56.0,118.0 L 53.0,113.0 L 53.0,106.0 L 57.0,79.0 L 60.0,67.0 L 64.0,61.0 L 73.0,52.0 L 82.0,45.0 L 88.0,40.0 L 90.0,39.0" fill="#FBECA2"/>
	<path d="M 70.0,4.0 L 91.0,4.0 L 104.0,7.0 L 120.0,15.0 L 131.0,23.0 L 139.0,31.0 L 148.0,45.0 L 153.0,56.0 L 156.0,70.0 L 156.0,90.0 L 152.0,106.0 L 144.0,122.0 L 136.0,132.0 L 129.0,139.0 L 115.0,148.0 L 103.0,153.0 L 91.0,156.0 L 70.0,156.0 L 54.0,152.0 L 38.0,144.0 L 28.0,136.0 L 21.0,129.0 L 12.0,115.0 L 7.0,104.0 L 4.0,91.0 L 4.0,70.0 L 8.0,54.0 L 16.0,38.0 L 24.0,28.0 L 31.0,21.0 L 45.0,12.0 L 57.0,7.0 L 70.0,4.0 M 71.0,8.0 L 55.0,12.0 L 39.0,20.0 L 26.0,32.0 L 17.0,44.0 L 12.0,55.0 L 8.0,71.0 L 8.0,88.0 L 10.0,98.0 L 16.0,114.0 L 24.0,126.0 L 35.0,137.0 L 48.0,145.0 L 61.0,150.0 L 70.0,152.0 L 87.0,152.0 L 102.0,149.0 L 114.0,144.0 L 127.0,135.0 L 136.0,126.0 L 145.0,112.0 L 150.0,98.0 L 152.0,89.0 L 152.0,70.0 L 147.0,53.0 L 141.0,41.0 L 133.0,31.0 L 126.0,24.0 L 112.0,15.0 L 95.0,9.0 L 88.0,8.0 L 71.0,8.0" fill="#66A17D"/>
	<path d="M 89.0,35.0 L 96.0,36.0 L 100.0,41.0 L 100.0,47.0 L 94.0,58.0 L 89.0,65.0 L 103.0,66.0 L 121.0,68.0 L 127.0,71.0 L 130.0,75.0 L 130.0,82.0 L 126.0,87.0 L 124.0,88.0 L 124.0,96.0 L 121.0,101.0 L 119.0,103.0 L 116.0,103.0 L 118.0,107.0 L 117.0,114.0 L 113.0,118.0 L 111.0,118.0 L 112.0,125.0 L 107.0,131.0 L 98.0,131.0 L 63.0,126.0 L 56.0,123.0 L 51.0,118.0 L 49.0,112.0 L 50.0,98.0 L 53.0,75.0 L 57.0,64.0 L 63.0,56.0 L 73.0,47.0 L 81.0,40.0 L 86.0,36.0 L 89.0,35.0 M 90.0,39.0 L 84.0,43.0 L 75.0,51.0 L 67.0,58.0 L 61.0,65.0 L 58.0,73.0 L 55.0,90.0 L 53.0,106.0 L 53.0,113.0 L 57.0,119.0 L 62.0,122.0 L 80.0,124.0 L 99.0,127.0 L 105.0,127.0 L 108.0,125.0 L 107.0,120.0 L 105.0,116.0 L 112.0,114.0 L 113.0,113.0 L 113.0,106.0 L 110.0,102.0 L 118.0,99.0 L 120.0,96.0 L 119.0,91.0 L 116.0,85.0 L 123.0,84.0 L 126.0,81.0 L 126.0,76.0 L 123.0,73.0 L 120.0,72.0 L 95.0,69.0 L 83.0,67.0 L 83.0,65.0 L 93.0,52.0 L 96.0,46.0 L 95.0,41.0 L 93.0,39.0 L 90.0,39.0" fill="#67A17A"/>
</svg>
