<?xml version="1.0" ?>
<svg baseProfile="full" height="600px" version="1.1" viewBox="-20.1 -20.1 240.2 240.2" width="600px" xmlns="http://www.w3.org/2000/svg" xmlns:ev="http://www.w3.org/2001/xml-events" xmlns:xlink="http://www.w3.org/1999/xlink">
	<defs/>
	<path d="M 0.0,0.0 L 200.0,0.0 L 200.0,200.0 L 0.0,200.0 L 0.0,0.0" fill="#090909"/>
	<path d="M 0.0,0.0 L 200.0,0.0 L 200.0,200.0 L 0.0,200.0 L 0.0,0.0 M 118.0,22.0 L 85.0,39.0 L 46.0,59.0 L 21.0,72.0 L 18.0,75.0 L 17.0,91.0 L 17.0,143.0 L 20.0,146.0 L 49.0,163.0 L 69.0,175.0 L 101.0,194.0 L 107.0,198.0 L 113.0,198.0 L 148.0,180.0 L 166.0,170.0 L 167.0,168.0 L 173.0,99.0 L 175.0,75.0 L 175.0,61.0 L 167.0,54.0 L 152.0,43.0 L 133.0,29.0 L 124.0,22.0 L 118.0,22.0" fill="#FCFCFC"/>
	<path d="M 118.0,30.0 L 119.0,32.0 L 102.0,76.0 L 94.0,97.0 L 78.0,107.0 L 56.0,120.0 L 26.0,138.0 L 24.0,138.0 L 24.0,109.0 L 25.0,78.0 L 45.0,68.0 L 64.0,58.0 L 105.0,37.0 L 118.0,30.0" fill="#FCFCFC"/>
	<path d="M 121.0,30.0 L 128.0,34.0 L 141.0,44.0 L 160.0,58.0 L 168.0,64.0 L 167.0,84.0 L 161.0,154.0 L 160.0,163.0 L 155.0,159.0 L 146.0,148.0 L 135.0,136.0 L 126.0,125.0 L 119.0,117.0 L 120.0,51.0 L 121.0,30.0" fill="#FBFBFB"/>
	<path d="M 85.0,129.0 L 94.0,129.0 L 118.0,142.0 L 136.0,152.0 L 159.0,165.0 L 154.0,169.0 L 118.0,187.0 L 111.0,191.0 L 106.0,189.0 L 86.0,177.0 L 54.0,158.0 L 29.0,143.0 L 26.0,140.0 L 45.0,136.0 L 85.0,129.0" fill="#FBFBFB"/>
	<path d="M 120.0,30.0 L 121.0,30.0 L 121.0,51.0 L 120.0,117.0 L 129.0,127.0 L 138.0,138.0 L 149.0,150.0 L 158.0,161.0 L 159.0,164.0 L 154.0,163.0 L 128.0,149.0 L 110.0,139.0 L 94.0,130.0 L 85.0,130.0 L 35.0,139.0 L 27.0,139.0 L 29.0,135.0 L 58.0,118.0 L 90.0,99.0 L 93.0,97.0 L 112.0,47.0 L 118.0,32.0 L 120.0,30.0" fill="#050505"/>
	<path d="M 111.0,98.0 L 112.0,98.0 L 112.0,115.0 L 111.0,129.0 L 106.0,127.0 L 84.0,114.0 L 85.0,111.0 L 111.0,98.0" fill="#F5F5F5"/>
</svg>
