<?xml version="1.0" ?>
<svg baseProfile="full" height="600px" version="1.1" viewBox="-20.1 -20.1 240.2 240.2" width="600px" xmlns="http://www.w3.org/2000/svg" xmlns:ev="http://www.w3.org/2001/xml-events" xmlns:xlink="http://www.w3.org/1999/xlink">
	<defs/>
	<path d="M 0.0,0.0 L 200.0,0.0 L 200.0,200.0 L 0.0,200.0 L 0.0,0.0" fill="#FDFDFD"/>
	<path d="M 26.0,10.0 L 33.0,11.0 L 60.0,25.0 L 82.0,37.0 L 110.0,52.0 L 138.0,67.0 L 164.0,81.0 L 186.0,93.0 L 188.0,96.0 L 188.0,103.0 L 180.0,109.0 L 155.0,122.0 L 133.0,134.0 L 105.0,149.0 L 77.0,164.0 L 51.0,178.0 L 31.0,189.0 L 25.0,189.0 L 21.0,186.0 L 20.0,183.0 L 20.0,16.0 L 24.0,11.0 L 26.0,10.0" fill="#060606"/>
	<path d="M 28.0,21.0 L 35.0,27.0 L 48.0,39.0 L 61.0,51.0 L 74.0,63.0 L 87.0,75.0 L 100.0,87.0 L 113.0,99.0 L 108.0,104.0 L 99.0,113.0 L 91.0,120.0 L 75.0,135.0 L 63.0,146.0 L 48.0,160.0 L 36.0,171.0 L 28.0,177.0 L 28.0,21.0" fill="#FCFCFC"/>
	<path d="M 118.0,105.0 L 122.0,107.0 L 129.0,114.0 L 137.0,121.0 L 133.0,125.0 L 110.0,137.0 L 88.0,149.0 L 60.0,164.0 L 53.0,168.0 L 51.0,167.0 L 68.0,151.0 L 80.0,140.0 L 93.0,128.0 L 108.0,114.0 L 118.0,105.0" fill="#F9F9F9"/>
	<path d="M 49.0,29.0 L 54.0,31.0 L 78.0,44.0 L 106.0,59.0 L 132.0,73.0 L 137.0,76.0 L 131.0,83.0 L 120.0,93.0 L 115.0,91.0 L 105.0,81.0 L 97.0,74.0 L 81.0,59.0 L 69.0,48.0 L 56.0,36.0 L 49.0,30.0 L 49.0,29.0" fill="#F9F9F9"/>
	<path d="M 144.0,81.0 L 149.0,82.0 L 171.0,94.0 L 179.0,99.0 L 176.0,102.0 L 151.0,115.0 L 146.0,118.0 L 144.0,118.0 L 144.0,116.0 L 140.0,114.0 L 131.0,105.0 L 125.0,100.0 L 125.0,98.0 L 133.0,91.0 L 144.0,81.0" fill="#F9F9F9"/>
	<path d="M 57.0,161.0 L 59.0,162.0 L 57.0,166.0 L 51.0,168.0 L 57.0,161.0" fill="#D7D7D7"/>
	<path d="M 49.0,29.0 L 54.0,31.0 L 57.0,33.0 L 56.0,36.0 L 49.0,30.0 L 49.0,29.0" fill="#BDBDBD"/>
</svg>
