<?xml version="1.0" ?>
<svg baseProfile="full" height="600px" version="1.1" viewBox="-20.1 -20.1 240.2 240.2" width="600px" xmlns="http://www.w3.org/2000/svg" xmlns:ev="http://www.w3.org/2001/xml-events" xmlns:xlink="http://www.w3.org/1999/xlink">
	<defs/>
	<path d="M 0.0,0.0 L 200.0,0.0 L 200.0,200.0 L 0.0,200.0 L 0.0,0.0" fill="#FDFDFD"/>
	<path d="M 24.0,6.0 L 31.0,6.0 L 47.0,16.0 L 58.0,24.0 L 76.0,36.0 L 104.0,55.0 L 132.0,74.0 L 160.0,93.0 L 163.0,97.0 L 162.0,104.0 L 152.0,112.0 L 128.0,128.0 L 97.0,149.0 L 66.0,170.0 L 41.0,187.0 L 30.0,194.0 L 24.0,194.0 L 21.0,191.0 L 20.0,189.0 L 20.0,11.0 L 24.0,6.0" fill="#060606"/>
	<path d="M 28.0,18.0 L 33.0,23.0 L 42.0,33.0 L 51.0,44.0 L 60.0,54.0 L 69.0,65.0 L 78.0,75.0 L 87.0,86.0 L 96.0,96.0 L 98.0,100.0 L 89.0,111.0 L 80.0,121.0 L 71.0,132.0 L 62.0,142.0 L 53.0,153.0 L 44.0,163.0 L 35.0,174.0 L 29.0,181.0 L 28.0,181.0 L 28.0,18.0" fill="#FCFCFC"/>
	<path d="M 103.0,106.0 L 108.0,110.0 L 117.0,121.0 L 119.0,124.0 L 105.0,134.0 L 87.0,146.0 L 59.0,165.0 L 49.0,172.0 L 47.0,171.0 L 57.0,160.0 L 66.0,149.0 L 75.0,139.0 L 84.0,128.0 L 93.0,118.0 L 102.0,107.0 L 103.0,106.0" fill="#F8F8F8"/>
	<path d="M 47.0,27.0 L 51.0,29.0 L 69.0,41.0 L 94.0,58.0 L 119.0,75.0 L 113.0,83.0 L 104.0,93.0 L 99.0,89.0 L 90.0,78.0 L 81.0,68.0 L 72.0,57.0 L 63.0,47.0 L 54.0,36.0 L 47.0,28.0 L 47.0,27.0" fill="#F8F8F8"/>
	<path d="M 125.0,80.0 L 134.0,85.0 L 150.0,96.0 L 154.0,100.0 L 139.0,111.0 L 127.0,119.0 L 123.0,117.0 L 114.0,106.0 L 109.0,100.0 L 115.0,92.0 L 125.0,80.0" fill="#F9F9F9"/>
</svg>
