<?xml version="1.0" ?>
<svg baseProfile="full" height="600px" version="1.1" viewBox="-20.1 -20.1 240.2 240.2" width="600px" xmlns="http://www.w3.org/2000/svg" xmlns:ev="http://www.w3.org/2001/xml-events" xmlns:xlink="http://www.w3.org/1999/xlink">
	<defs/>
	<path d="M 0.0,0.0 L 200.0,0.0 L 200.0,200.0 L 0.0,200.0 L 0.0,0.0" fill="#080808"/>
	<path d="M 0.0,0.0 L 200.0,0.0 L 200.0,200.0 L 0.0,200.0 L 0.0,0.0 M 87.0,8.0 L 70.0,12.0 L 58.0,17.0 L 44.0,26.0 L 32.0,37.0 L 23.0,50.0 L 16.0,65.0 L 12.0,79.0 L 11.0,85.0 L 11.0,110.0 L 14.0,128.0 L 18.0,137.0 L 26.0,152.0 L 36.0,165.0 L 47.0,175.0 L 62.0,184.0 L 79.0,190.0 L 89.0,192.0 L 109.0,192.0 L 125.0,189.0 L 134.0,186.0 L 150.0,178.0 L 161.0,170.0 L 172.0,159.0 L 181.0,145.0 L 187.0,132.0 L 190.0,123.0 L 192.0,112.0 L 192.0,90.0 L 188.0,72.0 L 181.0,56.0 L 172.0,43.0 L 164.0,34.0 L 151.0,24.0 L 136.0,16.0 L 118.0,10.0 L 107.0,8.0 L 87.0,8.0" fill="#FCFCFC"/>
	<path d="M 82.0,17.0 L 111.0,17.0 L 123.0,20.0 L 138.0,26.0 L 150.0,33.0 L 162.0,44.0 L 169.0,52.0 L 178.0,68.0 L 183.0,84.0 L 184.0,91.0 L 184.0,111.0 L 181.0,124.0 L 176.0,137.0 L 170.0,148.0 L 159.0,161.0 L 145.0,172.0 L 130.0,179.0 L 111.0,184.0 L 90.0,184.0 L 71.0,179.0 L 57.0,172.0 L 47.0,164.0 L 38.0,155.0 L 29.0,141.0 L 26.0,135.0 L 27.0,132.0 L 49.0,128.0 L 54.0,129.0 L 61.0,140.0 L 70.0,148.0 L 80.0,153.0 L 90.0,156.0 L 111.0,156.0 L 124.0,152.0 L 136.0,145.0 L 145.0,136.0 L 152.0,124.0 L 156.0,111.0 L 156.0,90.0 L 151.0,76.0 L 144.0,65.0 L 136.0,57.0 L 125.0,50.0 L 115.0,46.0 L 110.0,45.0 L 87.0,45.0 L 73.0,50.0 L 62.0,58.0 L 56.0,65.0 L 49.0,79.0 L 46.0,93.0 L 49.0,92.0 L 63.0,91.0 L 65.0,109.0 L 65.0,116.0 L 29.0,120.0 L 21.0,120.0 L 19.0,109.0 L 19.0,86.0 L 23.0,69.0 L 28.0,57.0 L 36.0,45.0 L 43.0,37.0 L 56.0,27.0 L 71.0,20.0 L 82.0,17.0" fill="#FBFBFB"/>
	<path d="M 89.0,52.0 L 110.0,52.0 L 123.0,57.0 L 134.0,65.0 L 142.0,75.0 L 147.0,85.0 L 149.0,93.0 L 149.0,110.0 L 146.0,120.0 L 140.0,130.0 L 133.0,138.0 L 122.0,145.0 L 110.0,149.0 L 91.0,149.0 L 80.0,145.0 L 71.0,139.0 L 64.0,132.0 L 61.0,127.0 L 61.0,124.0 L 74.0,123.0 L 70.0,86.0 L 70.0,82.0 L 56.0,84.0 L 57.0,78.0 L 63.0,68.0 L 71.0,60.0 L 85.0,53.0 L 89.0,52.0" fill="#FCFCFC"/>
</svg>
