<?xml version="1.0" ?>
<svg baseProfile="full" height="600px" version="1.1" viewBox="-20.1 -20.1 240.2 240.2" width="600px" xmlns="http://www.w3.org/2000/svg" xmlns:ev="http://www.w3.org/2001/xml-events" xmlns:xlink="http://www.w3.org/1999/xlink">
	<defs/>
	<path d="M 0.0,0.0 L 200.0,0.0 L 200.0,200.0 L 0.0,200.0 L 0.0,0.0" fill="#080808"/>
	<path d="M 0.0,0.0 L 200.0,0.0 L 200.0,200.0 L 0.0,200.0 L 0.0,0.0 M 98.0,21.0 L 54.0,37.0 L 42.0,42.0 L 39.0,52.0 L 32.0,83.0 L 28.0,104.0 L 23.0,127.0 L 19.0,144.0 L 20.0,150.0 L 46.0,176.0 L 54.0,183.0 L 66.0,195.0 L 73.0,194.0 L 123.0,176.0 L 175.0,157.0 L 178.0,154.0 L 185.0,105.0 L 187.0,94.0 L 187.0,88.0 L 182.0,83.0 L 168.0,72.0 L 154.0,61.0 L 136.0,47.0 L 122.0,36.0 L 108.0,25.0 L 103.0,21.0 L 98.0,21.0" fill="#FCFCFC"/>
	<path d="M 176.0,92.0 L 179.0,92.0 L 179.0,99.0 L 177.0,110.0 L 173.0,139.0 L 171.0,151.0 L 140.0,162.0 L 85.0,182.0 L 74.0,186.0 L 72.0,186.0 L 74.0,180.0 L 91.0,148.0 L 103.0,126.0 L 107.0,122.0 L 148.0,104.0 L 176.0,92.0" fill="#FBFBFB"/>
	<path d="M 47.0,50.0 L 52.0,55.0 L 81.0,99.0 L 82.0,100.0 L 81.0,110.0 L 78.0,130.0 L 70.0,183.0 L 68.0,187.0 L 48.0,167.0 L 40.0,160.0 L 27.0,147.0 L 28.0,138.0 L 35.0,104.0 L 41.0,77.0 L 47.0,50.0" fill="#FBFBFB"/>
	<path d="M 97.0,29.0 L 103.0,30.0 L 115.0,40.0 L 128.0,50.0 L 142.0,61.0 L 156.0,72.0 L 174.0,86.0 L 178.0,90.0 L 134.0,92.0 L 122.0,93.0 L 110.0,93.0 L 92.0,80.0 L 73.0,66.0 L 55.0,53.0 L 48.0,48.0 L 51.0,46.0 L 89.0,32.0 L 97.0,29.0" fill="#FBFBFB"/>
	<path d="M 92.0,90.0 L 101.0,96.0 L 115.0,107.0 L 117.0,108.0 L 117.0,110.0 L 89.0,120.0 L 87.0,120.0 L 87.0,112.0 L 91.0,91.0 L 92.0,90.0" fill="#F6F6F6"/>
</svg>
