<?xml version="1.0" ?>
<svg baseProfile="full" height="600px" version="1.1" viewBox="-20.1 -20.1 240.2 240.2" width="600px" xmlns="http://www.w3.org/2000/svg" xmlns:ev="http://www.w3.org/2001/xml-events" xmlns:xlink="http://www.w3.org/1999/xlink">
	<defs/>
	<path d="M 0.0,0.0 L 200.0,0.0 L 200.0,200.0 L 0.0,200.0 L 0.0,0.0" fill="#FDFDFD"/>
	<path d="M 93.0,4.0 L 109.0,4.0 L 119.0,6.0 L 131.0,11.0 L 141.0,17.0 L 153.0,28.0 L 162.0,42.0 L 167.0,56.0 L 168.0,61.0 L 168.0,82.0 L 164.0,97.0 L 157.0,110.0 L 147.0,123.0 L 135.0,139.0 L 125.0,154.0 L 115.0,171.0 L 109.0,186.0 L 107.0,193.0 L 103.0,196.0 L 97.0,196.0 L 92.0,191.0 L 88.0,177.0 L 78.0,158.0 L 67.0,142.0 L 53.0,123.0 L 43.0,110.0 L 36.0,96.0 L 33.0,87.0 L 32.0,79.0 L 32.0,61.0 L 37.0,45.0 L 43.0,34.0 L 51.0,24.0 L 62.0,15.0 L 78.0,7.0 L 93.0,4.0" fill="#070707"/>
	<path d="M 156.0,54.0 L 158.0,56.0 L 160.0,64.0 L 160.0,79.0 L 156.0,94.0 L 150.0,105.0 L 140.0,118.0 L 126.0,137.0 L 115.0,153.0 L 106.0,169.0 L 101.0,183.0 L 99.0,187.0 L 97.0,178.0 L 88.0,159.0 L 81.0,148.0 L 82.0,144.0 L 96.0,127.0 L 105.0,116.0 L 114.0,105.0 L 123.0,94.0 L 132.0,83.0 L 141.0,72.0 L 150.0,61.0 L 156.0,54.0" fill="#FAFAFA"/>
	<path d="M 94.0,48.0 L 105.0,48.0 L 115.0,53.0 L 122.0,61.0 L 124.0,66.0 L 124.0,77.0 L 120.0,86.0 L 112.0,93.0 L 105.0,96.0 L 94.0,96.0 L 86.0,92.0 L 79.0,84.0 L 76.0,77.0 L 76.0,66.0 L 80.0,58.0 L 89.0,50.0 L 94.0,48.0" fill="#FAFAFA"/>
	<path d="M 67.0,74.0 L 68.0,74.0 L 71.0,84.0 L 77.0,94.0 L 87.0,101.0 L 93.0,103.0 L 104.0,104.0 L 101.0,109.0 L 87.0,126.0 L 78.0,137.0 L 75.0,139.0 L 59.0,118.0 L 48.0,103.0 L 47.0,98.0 L 59.0,84.0 L 67.0,74.0" fill="#FAFAFA"/>
	<path d="M 115.0,15.0 L 122.0,16.0 L 135.0,23.0 L 146.0,33.0 L 153.0,44.0 L 151.0,48.0 L 140.0,61.0 L 133.0,70.0 L 132.0,70.0 L 128.0,57.0 L 121.0,48.0 L 107.0,41.0 L 96.0,40.0 L 98.0,36.0 L 112.0,19.0 L 115.0,15.0" fill="#FAFAFA"/>
	<path d="M 52.0,36.0 L 57.0,38.0 L 70.0,49.0 L 74.0,52.0 L 72.0,56.0 L 58.0,73.0 L 49.0,84.0 L 44.0,90.0 L 42.0,90.0 L 40.0,82.0 L 40.0,63.0 L 44.0,49.0 L 50.0,38.0 L 52.0,36.0" fill="#F8F8F8"/>
	<path d="M 92.0,12.0 L 104.0,12.0 L 106.0,13.0 L 104.0,17.0 L 93.0,30.0 L 85.0,40.0 L 80.0,46.0 L 76.0,44.0 L 60.0,31.0 L 60.0,27.0 L 69.0,20.0 L 82.0,14.0 L 92.0,12.0" fill="#F9F9F9"/>
</svg>
