<?xml version="1.0" ?>
<svg baseProfile="full" height="600px" version="1.1" viewBox="-20.1 -20.1 240.2 240.2" width="600px" xmlns="http://www.w3.org/2000/svg" xmlns:ev="http://www.w3.org/2001/xml-events" xmlns:xlink="http://www.w3.org/1999/xlink">
	<defs/>
	<path d="M 0.0,0.0 L 200.0,0.0 L 200.0,200.0 L 0.0,200.0 L 0.0,0.0" fill="#090909"/>
	<path d="M 0.0,0.0 L 200.0,0.0 L 200.0,200.0 L 0.0,200.0 L 0.0,0.0 M 103.0,21.0 L 84.0,34.0 L 65.0,47.0 L 43.0,62.0 L 27.0,73.0 L 16.0,81.0 L 15.0,83.0 L 16.0,111.0 L 17.0,144.0 L 23.0,149.0 L 50.0,164.0 L 71.0,176.0 L 99.0,192.0 L 110.0,198.0 L 117.0,197.0 L 151.0,179.0 L 170.0,168.0 L 172.0,165.0 L 169.0,80.0 L 167.0,52.0 L 163.0,48.0 L 116.0,25.0 L 108.0,21.0 L 103.0,21.0" fill="#FDFDFD"/>
	<path d="M 106.0,29.0 L 112.0,31.0 L 146.0,48.0 L 160.0,55.0 L 161.0,61.0 L 164.0,132.0 L 164.0,160.0 L 157.0,154.0 L 147.0,144.0 L 140.0,136.0 L 114.0,110.0 L 109.0,62.0 L 106.0,36.0 L 106.0,29.0" fill="#FBFBFB"/>
	<path d="M 82.0,125.0 L 88.0,125.0 L 118.0,140.0 L 141.0,151.0 L 163.0,162.0 L 163.0,164.0 L 135.0,179.0 L 113.0,191.0 L 101.0,185.0 L 77.0,171.0 L 55.0,159.0 L 34.0,147.0 L 27.0,143.0 L 27.0,141.0 L 51.0,134.0 L 73.0,128.0 L 82.0,125.0" fill="#FBFBFB"/>
	<path d="M 101.0,31.0 L 103.0,31.0 L 101.0,42.0 L 92.0,78.0 L 87.0,95.0 L 74.0,105.0 L 56.0,118.0 L 40.0,130.0 L 26.0,140.0 L 24.0,140.0 L 23.0,111.0 L 23.0,85.0 L 35.0,76.0 L 47.0,68.0 L 66.0,55.0 L 85.0,42.0 L 101.0,31.0" fill="#FBFBFB"/>
	<path d="M 104.0,30.0 L 106.0,30.0 L 108.0,43.0 L 111.0,74.0 L 115.0,110.0 L 147.0,142.0 L 154.0,150.0 L 164.0,160.0 L 164.0,162.0 L 159.0,161.0 L 125.0,144.0 L 102.0,133.0 L 88.0,126.0 L 79.0,127.0 L 58.0,133.0 L 34.0,140.0 L 27.0,141.0 L 30.0,136.0 L 48.0,123.0 L 67.0,109.0 L 86.0,95.0 L 92.0,74.0 L 96.0,57.0 L 100.0,42.0 L 103.0,32.0 L 104.0,30.0" fill="#050505"/>
	<path d="M 104.0,93.0 L 105.0,93.0 L 106.0,114.0 L 106.0,126.0 L 100.0,124.0 L 79.0,112.0 L 84.0,107.0 L 103.0,94.0 L 104.0,93.0" fill="#F6F6F6"/>
</svg>
