<?xml version="1.0" ?>
<svg baseProfile="full" height="600px" version="1.1" viewBox="-20.1 -20.1 240.2 240.2" width="600px" xmlns="http://www.w3.org/2000/svg" xmlns:ev="http://www.w3.org/2001/xml-events" xmlns:xlink="http://www.w3.org/1999/xlink">
	<defs/>
	<path d="M 0.0,0.0 L 200.0,0.0 L 200.0,200.0 L 0.0,200.0 L 0.0,0.0" fill="#FDFDFD"/>
	<path d="M 90.0,4.0 L 109.0,4.0 L 120.0,8.0 L 130.0,17.0 L 137.0,28.0 L 142.0,41.0 L 145.0,53.0 L 146.0,64.0 L 146.0,84.0 L 143.0,100.0 L 139.0,112.0 L 127.0,136.0 L 119.0,162.0 L 113.0,183.0 L 109.0,194.0 L 107.0,196.0 L 92.0,196.0 L 89.0,192.0 L 85.0,172.0 L 77.0,149.0 L 66.0,123.0 L 59.0,107.0 L 56.0,98.0 L 54.0,87.0 L 54.0,60.0 L 57.0,43.0 L 63.0,27.0 L 71.0,16.0 L 80.0,8.0 L 90.0,4.0" fill="#070707"/>
	<path d="M 126.0,60.0 L 128.0,62.0 L 128.0,79.0 L 125.0,96.0 L 120.0,111.0 L 109.0,135.0 L 99.0,163.0 L 96.0,175.0 L 94.0,176.0 L 90.0,161.0 L 85.0,148.0 L 86.0,143.0 L 104.0,106.0 L 117.0,78.0 L 126.0,60.0" fill="#F8F8F8"/>
	<path d="M 93.0,48.0 L 99.0,49.0 L 103.0,54.0 L 107.0,63.0 L 107.0,80.0 L 102.0,92.0 L 97.0,96.0 L 91.0,95.0 L 87.0,90.0 L 83.0,80.0 L 83.0,63.0 L 89.0,51.0 L 93.0,48.0" fill="#F9F9F9"/>
	<path d="M 74.0,80.0 L 76.0,81.0 L 80.0,93.0 L 84.0,99.0 L 91.0,103.0 L 96.0,104.0 L 94.0,110.0 L 82.0,135.0 L 80.0,135.0 L 67.0,105.0 L 66.0,97.0 L 74.0,80.0" fill="#F8F8F8"/>
	<path d="M 105.0,16.0 L 110.0,18.0 L 118.0,28.0 L 124.0,42.0 L 123.0,49.0 L 116.0,64.0 L 114.0,64.0 L 112.0,55.0 L 106.0,45.0 L 99.0,41.0 L 94.0,40.0 L 96.0,34.0 L 104.0,17.0 L 105.0,16.0" fill="#F8F8F8"/>
	<path d="M 67.0,38.0 L 69.0,38.0 L 78.0,51.0 L 77.0,57.0 L 64.0,84.0 L 62.0,84.0 L 62.0,61.0 L 65.0,44.0 L 67.0,38.0" fill="#F7F7F7"/>
	<path d="M 90.0,12.0 L 97.0,12.0 L 96.0,17.0 L 83.0,44.0 L 78.0,39.0 L 72.0,30.0 L 74.0,25.0 L 81.0,17.0 L 90.0,12.0" fill="#F7F7F7"/>
	<path d="M 134.0,47.0 L 136.0,49.0 L 138.0,62.0 L 138.0,85.0 L 136.0,97.0 L 131.0,110.0 L 130.0,107.0 L 134.0,91.0 L 135.0,84.0 L 135.0,60.0 L 134.0,47.0" fill="#BFBFBF"/>
	<path d="M 114.0,144.0 L 115.0,148.0 L 109.0,168.0 L 104.0,185.0 L 103.0,188.0 L 101.0,188.0 L 102.0,180.0 L 110.0,154.0 L 114.0,144.0" fill="#DDDDDD"/>
	<path d="M 135.0,84.0 L 137.0,88.0 L 136.0,97.0 L 134.0,95.0 L 135.0,84.0" fill="#A7A7A7"/>
</svg>
