<?xml version="1.0" ?>
<svg baseProfile="full" height="600px" version="1.1" viewBox="-20.1 -20.1 240.2 240.2" width="600px" xmlns="http://www.w3.org/2000/svg" xmlns:ev="http://www.w3.org/2001/xml-events" xmlns:xlink="http://www.w3.org/1999/xlink">
	<defs/>
	<path d="M 0.0,0.0 L 200.0,0.0 L 200.0,200.0 L 0.0,200.0 L 0.0,0.0" fill="#050505"/>
	<path d="M 0.0,0.0 L 200.0,0.0 L 200.0,200.0 L 0.0,200.0 L 0.0,122.0 L 3.0,126.0 L 28.0,177.0 L 31.0,183.0 L 31.0,186.0 L 34.0,187.0 L 162.0,187.0 L 166.0,183.0 L 183.0,151.0 L 195.0,129.0 L 198.0,124.0 L 198.0,116.0 L 184.0,94.0 L 171.0,73.0 L 159.0,54.0 L 143.0,28.0 L 136.0,18.0 L 135.0,17.0 L 65.0,17.0 L 59.0,25.0 L 44.0,49.0 L 31.0,70.0 L 16.0,94.0 L 1.0,118.0 L 0.0,118.0 L 0.0,0.0" fill="#FCFCFC"/>
	<path d="M 187.0,120.0 L 191.0,120.0 L 189.0,125.0 L 172.0,157.0 L 159.0,180.0 L 40.0,180.0 L 45.0,175.0 L 60.0,161.0 L 68.0,154.0 L 79.0,144.0 L 87.0,137.0 L 98.0,127.0 L 106.0,125.0 L 155.0,122.0 L 187.0,120.0" fill="#FCFCFC"/>
	<path d="M 67.0,26.0 L 69.0,28.0 L 76.0,58.0 L 82.0,81.0 L 84.0,91.0 L 83.0,97.0 L 69.0,123.0 L 56.0,147.0 L 43.0,170.0 L 38.0,179.0 L 35.0,175.0 L 19.0,143.0 L 9.0,122.0 L 10.0,117.0 L 22.0,98.0 L 35.0,77.0 L 50.0,53.0 L 65.0,29.0 L 67.0,26.0" fill="#FCFCFC"/>
	<path d="M 69.0,24.0 L 132.0,24.0 L 148.0,50.0 L 160.0,69.0 L 176.0,95.0 L 188.0,114.0 L 190.0,118.0 L 181.0,116.0 L 155.0,108.0 L 129.0,100.0 L 117.0,96.0 L 103.0,75.0 L 74.0,32.0 L 69.0,24.0" fill="#FBFBFB"/>
	<path d="M 99.0,86.0 L 103.0,91.0 L 116.0,111.0 L 118.0,116.0 L 82.0,116.0 L 84.0,111.0 L 93.0,95.0 L 99.0,86.0" fill="#FAFAFA"/>
</svg>
