<?xml version="1.0" ?>
<svg baseProfile="full" height="600px" version="1.1" viewBox="-20.1 -20.1 240.2 240.2" width="600px" xmlns="http://www.w3.org/2000/svg" xmlns:ev="http://www.w3.org/2001/xml-events" xmlns:xlink="http://www.w3.org/1999/xlink">
	<defs/>
	<path d="M 0.0,0.0 L 200.0,0.0 L 200.0,200.0 L 0.0,200.0 L 0.0,0.0" fill="#FDFDFD"/>
	<path d="M 16.0,16.0 L 24.0,16.0 L 24.0,176.0 L 184.0,176.0 L 184.0,184.0 L 16.0,184.0 L 16.0,16.0" fill="#000000"/>
	<path d="M 90.0,64.0 L 95.0,65.0 L 112.0,82.0 L 111.0,87.0 L 106.0,88.0 L 93.0,75.0 L 89.0,77.0 L 58.0,108.0 L 54.0,113.0 L 46.0,120.0 L 38.0,128.0 L 33.0,127.0 L 32.0,122.0 L 46.0,108.0 L 50.0,103.0 L 58.0,96.0 L 90.0,64.0" fill="#030303"/>
	<path d="M 90.0,143.0 L 95.0,144.0 L 97.0,146.0 L 96.0,151.0 L 94.0,153.0 L 89.0,152.0 L 87.0,150.0 L 88.0,145.0 L 90.0,143.0" fill="#121212"/>
	<path d="M 90.0,103.0 L 95.0,104.0 L 97.0,106.0 L 96.0,111.0 L 94.0,113.0 L 89.0,112.0 L 87.0,110.0 L 88.0,105.0 L 90.0,103.0" fill="#121212"/>
	<path d="M 49.0,144.0 L 55.0,144.0 L 56.0,145.0 L 56.0,151.0 L 55.0,152.0 L 49.0,152.0 L 48.0,151.0 L 48.0,145.0 L 49.0,144.0" fill="#0C0C0C"/>
	<path d="M 131.0,144.0 L 135.0,145.0 L 136.0,149.0 L 133.0,152.0 L 129.0,151.0 L 128.0,147.0 L 131.0,144.0" fill="#202020"/>
	<path d="M 131.0,104.0 L 135.0,105.0 L 136.0,109.0 L 133.0,112.0 L 129.0,111.0 L 128.0,107.0 L 131.0,104.0" fill="#202020"/>
	<path d="M 131.0,64.0 L 135.0,65.0 L 136.0,69.0 L 133.0,72.0 L 129.0,71.0 L 128.0,67.0 L 131.0,64.0" fill="#202020"/>
	<path d="M 51.0,64.0 L 55.0,65.0 L 56.0,69.0 L 53.0,72.0 L 49.0,71.0 L 48.0,67.0 L 51.0,64.0" fill="#202020"/>
</svg>
