<?xml version="1.0" ?>
<svg baseProfile="full" height="600px" version="1.1" viewBox="-20.1 -20.1 240.2 240.2" width="600px" xmlns="http://www.w3.org/2000/svg" xmlns:ev="http://www.w3.org/2001/xml-events" xmlns:xlink="http://www.w3.org/1999/xlink">
	<defs/>
	<path d="M 0.0,0.0 L 200.0,0.0 L 200.0,200.0 L 0.0,200.0 L 0.0,0.0" fill="#FDFDFD"/>
	<path d="M 16.0,16.0 L 24.0,16.0 L 24.0,176.0 L 184.0,176.0 L 184.0,184.0 L 16.0,184.0 L 16.0,16.0" fill="#000000"/>
	<path d="M 178.0,56.0 L 183.0,57.0 L 184.0,62.0 L 160.0,86.0 L 155.0,86.0 L 154.0,85.0 L 154.0,80.0 L 178.0,56.0" fill="#030303"/>
	<path d="M 171.0,144.0 L 175.0,145.0 L 176.0,149.0 L 173.0,152.0 L 169.0,151.0 L 168.0,147.0 L 171.0,144.0" fill="#202020"/>
	<path d="M 171.0,104.0 L 175.0,105.0 L 176.0,109.0 L 173.0,112.0 L 169.0,111.0 L 168.0,107.0 L 171.0,104.0" fill="#202020"/>
	<path d="M 171.0,24.0 L 175.0,25.0 L 176.0,29.0 L 173.0,32.0 L 169.0,31.0 L 168.0,27.0 L 171.0,24.0" fill="#202020"/>
	<path d="M 131.0,24.0 L 135.0,25.0 L 136.0,29.0 L 133.0,32.0 L 129.0,31.0 L 128.0,27.0 L 131.0,24.0" fill="#202020"/>
	<path d="M 91.0,24.0 L 95.0,25.0 L 96.0,29.0 L 93.0,32.0 L 89.0,31.0 L 88.0,27.0 L 91.0,24.0" fill="#202020"/>
	<path d="M 51.0,24.0 L 55.0,25.0 L 56.0,29.0 L 53.0,32.0 L 49.0,31.0 L 48.0,27.0 L 51.0,24.0" fill="#202020"/>
</svg>
