<?xml version="1.0" ?>
<svg baseProfile="full" height="600px" version="1.1" viewBox="-20.1 -20.1 240.2 240.2" width="600px" xmlns="http://www.w3.org/2000/svg" xmlns:ev="http://www.w3.org/2001/xml-events" xmlns:xlink="http://www.w3.org/1999/xlink">
	<defs/>
	<path d="M 0.0,0.0 L 200.0,0.0 L 200.0,200.0 L 0.0,200.0 L 0.0,0.0" fill="#FCFCFC"/>
	<path d="M 81.0,3.0 L 90.0,3.0 L 97.0,6.0 L 105.0,5.0 L 109.0,3.0 L 119.0,3.0 L 125.0,7.0 L 132.0,15.0 L 145.0,18.0 L 152.0,24.0 L 154.0,28.0 L 155.0,37.0 L 159.0,42.0 L 166.0,48.0 L 168.0,52.0 L 168.0,62.0 L 165.0,68.0 L 165.0,74.0 L 168.0,80.0 L 168.0,88.0 L 165.0,95.0 L 159.0,100.0 L 155.0,104.0 L 154.0,114.0 L 150.0,120.0 L 148.0,124.0 L 165.0,153.0 L 171.0,163.0 L 171.0,168.0 L 168.0,170.0 L 146.0,172.0 L 141.0,174.0 L 129.0,193.0 L 124.0,194.0 L 120.0,189.0 L 106.0,164.0 L 101.0,155.0 L 99.0,154.0 L 97.0,159.0 L 85.0,181.0 L 77.0,194.0 L 72.0,193.0 L 64.0,182.0 L 59.0,174.0 L 59.0,172.0 L 44.0,171.0 L 32.0,170.0 L 29.0,168.0 L 29.0,163.0 L 44.0,138.0 L 52.0,124.0 L 50.0,120.0 L 47.0,116.0 L 45.0,104.0 L 41.0,100.0 L 35.0,95.0 L 32.0,89.0 L 32.0,80.0 L 35.0,74.0 L 35.0,68.0 L 32.0,61.0 L 32.0,52.0 L 36.0,46.0 L 44.0,39.0 L 45.0,37.0 L 46.0,28.0 L 50.0,22.0 L 55.0,18.0 L 57.0,17.0 L 66.0,16.0 L 71.0,12.0 L 77.0,5.0 L 81.0,3.0" fill="#FCFCFC"/>
	<path d="M 81.0,3.0 L 90.0,3.0 L 97.0,6.0 L 105.0,5.0 L 109.0,3.0 L 119.0,3.0 L 125.0,7.0 L 132.0,15.0 L 145.0,18.0 L 152.0,24.0 L 154.0,28.0 L 155.0,37.0 L 159.0,42.0 L 166.0,48.0 L 168.0,52.0 L 168.0,62.0 L 165.0,68.0 L 165.0,74.0 L 168.0,80.0 L 168.0,88.0 L 165.0,95.0 L 159.0,100.0 L 155.0,104.0 L 154.0,114.0 L 150.0,120.0 L 148.0,124.0 L 165.0,153.0 L 171.0,163.0 L 171.0,168.0 L 168.0,170.0 L 146.0,172.0 L 141.0,174.0 L 129.0,193.0 L 124.0,194.0 L 120.0,189.0 L 106.0,164.0 L 101.0,155.0 L 99.0,154.0 L 97.0,159.0 L 85.0,181.0 L 77.0,194.0 L 72.0,193.0 L 64.0,182.0 L 59.0,174.0 L 59.0,172.0 L 44.0,171.0 L 32.0,170.0 L 29.0,168.0 L 29.0,163.0 L 44.0,138.0 L 52.0,124.0 L 50.0,120.0 L 47.0,116.0 L 45.0,104.0 L 41.0,100.0 L 35.0,95.0 L 32.0,89.0 L 32.0,80.0 L 35.0,74.0 L 35.0,68.0 L 32.0,61.0 L 32.0,52.0 L 36.0,46.0 L 44.0,39.0 L 45.0,37.0 L 46.0,28.0 L 50.0,22.0 L 55.0,18.0 L 57.0,17.0 L 66.0,16.0 L 71.0,12.0 L 77.0,5.0 L 81.0,3.0 M 83.0,11.0 L 78.0,16.0 L 74.0,21.0 L 67.0,24.0 L 57.0,26.0 L 54.0,30.0 L 52.0,41.0 L 48.0,47.0 L 41.0,52.0 L 40.0,54.0 L 40.0,60.0 L 43.0,66.0 L 43.0,76.0 L 40.0,82.0 L 40.0,88.0 L 45.0,93.0 L 50.0,97.0 L 53.0,103.0 L 54.0,112.0 L 59.0,117.0 L 68.0,118.0 L 76.0,123.0 L 80.0,129.0 L 83.0,131.0 L 89.0,131.0 L 95.0,128.0 L 104.0,128.0 L 111.0,131.0 L 118.0,130.0 L 122.0,126.0 L 126.0,121.0 L 132.0,118.0 L 143.0,116.0 L 146.0,112.0 L 148.0,100.0 L 153.0,94.0 L 158.0,91.0 L 160.0,87.0 L 159.0,80.0 L 157.0,76.0 L 157.0,66.0 L 160.0,60.0 L 160.0,54.0 L 155.0,49.0 L 150.0,45.0 L 147.0,39.0 L 146.0,30.0 L 141.0,25.0 L 128.0,22.0 L 123.0,17.0 L 119.0,12.0 L 117.0,11.0 L 111.0,11.0 L 103.0,14.0 L 95.0,14.0 L 89.0,11.0 L 83.0,11.0" fill="#070707"/>
	<path d="M 61.0,125.0 L 68.0,126.0 L 72.0,130.0 L 76.0,135.0 L 82.0,138.0 L 91.0,138.0 L 97.0,135.0 L 101.0,136.0 L 87.0,161.0 L 75.0,182.0 L 71.0,178.0 L 64.0,167.0 L 62.0,165.0 L 40.0,162.0 L 46.0,150.0 L 61.0,125.0" fill="#FAFAFA"/>
	<path d="M 133.0,125.0 L 139.0,125.0 L 154.0,150.0 L 160.0,160.0 L 160.0,162.0 L 147.0,164.0 L 138.0,165.0 L 130.0,176.0 L 127.0,181.0 L 124.0,180.0 L 108.0,151.0 L 105.0,146.0 L 107.0,140.0 L 108.0,139.0 L 120.0,137.0 L 126.0,133.0 L 130.0,127.0 L 133.0,125.0" fill="#FAFAFA"/>
	<path d="M 128.0,45.0 L 133.0,46.0 L 135.0,48.0 L 134.0,52.0 L 123.0,70.0 L 108.0,93.0 L 99.0,107.0 L 96.0,107.0 L 90.0,102.0 L 91.0,98.0 L 94.0,95.0 L 97.0,94.0 L 112.0,70.0 L 125.0,50.0 L 128.0,45.0" fill="#080808"/>
</svg>
