<?xml version="1.0" ?>
<svg baseProfile="full" height="600px" version="1.1" viewBox="-12.06 -12.06 144.12 144.12" width="600px" xmlns="http://www.w3.org/2000/svg" xmlns:ev="http://www.w3.org/2001/xml-events" xmlns:xlink="http://www.w3.org/1999/xlink">
	<defs/>
	<path d="M 0.0,0.0 L 120.0,0.0 L 120.0,120.0 L 0.0,120.0 L 0.0,0.0" fill="#FBFBFB"/>
	<path d="M 58.0,8.0 L 63.0,9.0 L 67.0,14.0 L 73.0,14.0 L 80.0,13.0 L 82.0,15.0 L 84.0,24.0 L 93.0,26.0 L 95.0,28.0 L 94.0,41.0 L 100.0,46.0 L 99.0,51.0 L 94.0,55.0 L 94.0,61.0 L 95.0,68.0 L 93.0,70.0 L 84.0,72.0 L 82.0,81.0 L 80.0,83.0 L 67.0,82.0 L 62.0,88.0 L 57.0,87.0 L 53.0,82.0 L 47.0,82.0 L 40.0,83.0 L 38.0,81.0 L 36.0,72.0 L 27.0,70.0 L 25.0,68.0 L 26.0,55.0 L 20.0,50.0 L 21.0,45.0 L 26.0,41.0 L 26.0,35.0 L 25.0,28.0 L 27.0,26.0 L 36.0,24.0 L 38.0,15.0 L 40.0,13.0 L 53.0,14.0 L 58.0,8.0" fill="#030303"/>
	<path d="M 30.0,85.0 L 32.0,85.0 L 37.0,90.0 L 50.0,90.0 L 54.0,94.0 L 56.0,95.0 L 55.0,100.0 L 49.0,115.0 L 45.0,113.0 L 38.0,105.0 L 22.0,105.0 L 30.0,85.0" fill="#060606"/>
	<path d="M 88.0,85.0 L 90.0,85.0 L 97.0,102.0 L 97.0,105.0 L 82.0,105.0 L 73.0,115.0 L 71.0,115.0 L 64.0,98.0 L 64.0,95.0 L 69.0,92.0 L 70.0,90.0 L 82.0,90.0 L 87.0,87.0 L 88.0,85.0" fill="#050505"/>
	<path d="M 74.0,36.0 L 79.0,37.0 L 80.0,42.0 L 60.0,62.0 L 55.0,62.0 L 45.0,52.0 L 44.0,46.0 L 46.0,44.0 L 51.0,45.0 L 57.0,51.0 L 61.0,49.0 L 74.0,36.0" fill="#F6F6F6"/>
</svg>
