<?xml version="1.0" ?>
<svg baseProfile="full" height="600px" version="1.1" viewBox="-12.06 -12.06 144.12 144.12" width="600px" xmlns="http://www.w3.org/2000/svg" xmlns:ev="http://www.w3.org/2001/xml-events" xmlns:xlink="http://www.w3.org/1999/xlink">
	<defs/>
	<path d="M 0.0,0.0 L 120.0,0.0 L 120.0,120.0 L 0.0,120.0 L 0.0,0.0" fill="#FBFBFB"/>
	<path d="M 58.0,8.0 L 63.0,9.0 L 67.0,14.0 L 73.0,14.0 L 80.0,13.0 L 82.0,15.0 L 84.0,24.0 L 93.0,26.0 L 95.0,28.0 L 94.0,41.0 L 100.0,46.0 L 99.0,51.0 L 94.0,55.0 L 94.0,61.0 L 95.0,68.0 L 93.0,70.0 L 84.0,72.0 L 82.0,81.0 L 80.0,83.0 L 67.0,82.0 L 62.0,88.0 L 57.0,87.0 L 53.0,82.0 L 47.0,82.0 L 40.0,83.0 L 38.0,81.0 L 36.0,72.0 L 27.0,70.0 L 25.0,68.0 L 26.0,55.0 L 20.0,50.0 L 21.0,45.0 L 26.0,41.0 L 26.0,35.0 L 25.0,28.0 L 27.0,26.0 L 36.0,24.0 L 38.0,15.0 L 40.0,13.0 L 53.0,14.0 L 58.0,8.0" fill="#020202"/>
	<path d="M 20.0,76.0 L 30.0,78.0 L 33.0,87.0 L 37.0,90.0 L 44.0,91.0 L 40.0,97.0 L 30.0,109.0 L 28.0,109.0 L 23.0,97.0 L 23.0,95.0 L 10.0,93.0 L 8.0,92.0 L 10.0,88.0 L 20.0,76.0" fill="#060606"/>
	<path d="M 97.0,76.0 L 101.0,77.0 L 110.0,87.0 L 112.0,92.0 L 98.0,95.0 L 92.0,109.0 L 90.0,109.0 L 81.0,98.0 L 76.0,91.0 L 84.0,89.0 L 88.0,85.0 L 90.0,78.0 L 97.0,76.0" fill="#070707"/>
	<path d="M 74.0,36.0 L 79.0,37.0 L 80.0,42.0 L 75.0,47.0 L 70.0,47.0 L 69.0,46.0 L 69.0,41.0 L 74.0,36.0" fill="#F8F8F8"/>
</svg>
