<?xml version="1.0" ?>
<svg baseProfile="full" height="600px" version="1.1" viewBox="-12.864 -12.864 153.728 153.728" width="600px" xmlns="http://www.w3.org/2000/svg" xmlns:ev="http://www.w3.org/2001/xml-events" xmlns:xlink="http://www.w3.org/1999/xlink">
	<defs/>
	<path d="M 0.0,0.0 L 128.0,0.0 L 128.0,128.0 L 0.0,128.0 L 0.0,0.0" fill="#FCFCFC"/>
	<path d="M 56.0,8.0 L 63.0,8.0 L 68.0,11.0 L 72.0,16.0 L 72.0,35.0 L 82.0,35.0 L 87.0,39.0 L 98.0,41.0 L 104.0,48.0 L 104.0,96.0 L 101.0,106.0 L 93.0,115.0 L 85.0,119.0 L 82.0,120.0 L 48.0,120.0 L 38.0,115.0 L 30.0,106.0 L 24.0,89.0 L 24.0,77.0 L 27.0,71.0 L 32.0,66.0 L 34.0,66.0 L 29.0,46.0 L 25.0,31.0 L 25.0,23.0 L 30.0,17.0 L 32.0,16.0 L 41.0,16.0 L 46.0,19.0 L 47.0,21.0 L 49.0,14.0 L 54.0,9.0 L 56.0,8.0" fill="#060606"/>
	<path d="M 59.0,69.0 L 69.0,69.0 L 71.0,71.0 L 70.0,75.0 L 63.0,78.0 L 46.0,82.0 L 43.0,82.0 L 48.0,91.0 L 48.0,93.0 L 55.0,90.0 L 59.0,86.0 L 73.0,82.0 L 76.0,81.0 L 79.0,72.0 L 83.0,74.0 L 91.0,74.0 L 96.0,72.0 L 96.0,97.0 L 91.0,106.0 L 83.0,111.0 L 81.0,112.0 L 50.0,112.0 L 42.0,108.0 L 36.0,100.0 L 32.0,86.0 L 32.0,78.0 L 36.0,73.0 L 46.0,71.0 L 59.0,69.0" fill="#F9F9F9"/>
	<path d="M 58.0,16.0 L 63.0,17.0 L 64.0,18.0 L 64.0,47.0 L 60.0,57.0 L 59.0,62.0 L 42.0,63.0 L 37.0,45.0 L 33.0,30.0 L 33.0,25.0 L 34.0,24.0 L 39.0,24.0 L 42.0,29.0 L 47.0,49.0 L 48.0,54.0 L 50.0,53.0 L 56.0,53.0 L 56.0,18.0 L 58.0,16.0" fill="#F7F7F7"/>
	<path d="M 74.0,43.0 L 79.0,43.0 L 81.0,45.0 L 80.0,51.0 L 75.0,63.0 L 67.0,61.0 L 70.0,52.0 L 74.0,43.0" fill="#F0F0F0"/>
	<path d="M 90.0,48.0 L 95.0,49.0 L 96.0,54.0 L 91.0,66.0 L 90.0,67.0 L 85.0,67.0 L 84.0,66.0 L 85.0,57.0 L 89.0,49.0 L 90.0,48.0" fill="#F1F1F1"/>
</svg>
