<?xml version="1.0" ?>
<svg baseProfile="full" height="600px" version="1.1" viewBox="-20.1 -20.1 240.2 240.2" width="600px" xmlns="http://www.w3.org/2000/svg" xmlns:ev="http://www.w3.org/2001/xml-events" xmlns:xlink="http://www.w3.org/1999/xlink">
	<defs/>
	<path d="M 0.0,0.0 L 200.0,0.0 L 200.0,200.0 L 0.0,200.0 L 0.0,0.0" fill="#FDFDFD"/>
	<path d="M 96.0,2.0 L 105.0,2.0 L 111.0,6.0 L 115.0,11.0 L 116.0,13.0 L 116.0,32.0 L 115.0,52.0 L 122.0,53.0 L 128.0,57.0 L 131.0,62.0 L 131.0,65.0 L 136.0,63.0 L 144.0,63.0 L 152.0,68.0 L 156.0,75.0 L 157.0,91.0 L 161.0,99.0 L 165.0,115.0 L 165.0,167.0 L 162.0,178.0 L 157.0,186.0 L 152.0,191.0 L 143.0,197.0 L 132.0,200.0 L 71.0,200.0 L 59.0,195.0 L 52.0,188.0 L 48.0,180.0 L 41.0,155.0 L 37.0,142.0 L 37.0,123.0 L 42.0,113.0 L 50.0,106.0 L 49.0,92.0 L 43.0,63.0 L 37.0,32.0 L 37.0,21.0 L 41.0,15.0 L 46.0,12.0 L 57.0,12.0 L 64.0,16.0 L 68.0,23.0 L 76.0,55.0 L 78.0,65.0 L 80.0,52.0 L 84.0,15.0 L 89.0,7.0 L 94.0,3.0 L 96.0,2.0" fill="#090909"/>
	<path d="M 101.0,106.0 L 115.0,106.0 L 120.0,112.0 L 120.0,119.0 L 115.0,124.0 L 107.0,127.0 L 76.0,134.0 L 75.0,135.0 L 76.0,142.0 L 81.0,151.0 L 86.0,151.0 L 86.0,145.0 L 84.0,140.0 L 88.0,141.0 L 96.0,147.0 L 103.0,158.0 L 106.0,170.0 L 112.0,171.0 L 111.0,161.0 L 107.0,150.0 L 100.0,141.0 L 97.0,137.0 L 118.0,131.0 L 125.0,125.0 L 128.0,118.0 L 133.0,120.0 L 135.0,121.0 L 144.0,121.0 L 151.0,117.0 L 155.0,110.0 L 156.0,110.0 L 157.0,135.0 L 157.0,168.0 L 152.0,180.0 L 143.0,188.0 L 136.0,191.0 L 130.0,192.0 L 74.0,192.0 L 65.0,189.0 L 59.0,184.0 L 55.0,174.0 L 49.0,154.0 L 45.0,141.0 L 45.0,126.0 L 48.0,118.0 L 55.0,112.0 L 63.0,110.0 L 101.0,106.0" fill="#FAFAFA"/>
	<path d="M 96.0,11.0 L 105.0,11.0 L 108.0,15.0 L 108.0,27.0 L 106.0,56.0 L 102.0,61.0 L 101.0,64.0 L 100.0,99.0 L 64.0,103.0 L 59.0,103.0 L 51.0,60.0 L 45.0,29.0 L 45.0,22.0 L 47.0,20.0 L 56.0,20.0 L 60.0,25.0 L 64.0,41.0 L 71.0,69.0 L 76.0,92.0 L 78.0,95.0 L 83.0,94.0 L 88.0,53.0 L 92.0,17.0 L 96.0,11.0" fill="#F9F9F9"/>
	<path d="M 136.0,72.0 L 144.0,72.0 L 148.0,77.0 L 148.0,108.0 L 144.0,113.0 L 137.0,114.0 L 132.0,110.0 L 132.0,76.0 L 136.0,72.0" fill="#F6F6F6"/>
	<path d="M 113.0,60.0 L 120.0,61.0 L 124.0,66.0 L 124.0,103.0 L 116.0,99.0 L 108.0,97.0 L 108.0,65.0 L 113.0,60.0" fill="#F2F2F2"/>
</svg>
