<?xml version="1.0" ?>
<svg baseProfile="full" height="600px" version="1.1" viewBox="-12.864 -12.864 153.728 153.728" width="600px" xmlns="http://www.w3.org/2000/svg" xmlns:ev="http://www.w3.org/2001/xml-events" xmlns:xlink="http://www.w3.org/1999/xlink">
	<defs/>
	<path d="M 0.0,0.0 L 128.0,0.0 L 128.0,128.0 L 0.0,128.0 L 0.0,0.0" fill="#FCFCFC"/>
	<path d="M 39.0,28.0 L 51.0,28.0 L 59.0,33.0 L 62.0,36.0 L 62.0,38.0 L 89.0,32.0 L 96.0,31.0 L 106.0,31.0 L 112.0,36.0 L 113.0,38.0 L 113.0,47.0 L 110.0,51.0 L 118.0,56.0 L 120.0,60.0 L 120.0,68.0 L 115.0,74.0 L 110.0,76.0 L 93.0,76.0 L 93.0,86.0 L 89.0,91.0 L 87.0,102.0 L 81.0,107.0 L 79.0,108.0 L 31.0,108.0 L 21.0,104.0 L 14.0,98.0 L 9.0,89.0 L 8.0,85.0 L 8.0,52.0 L 13.0,42.0 L 22.0,34.0 L 32.0,30.0 L 39.0,28.0" fill="#070707"/>
	<path d="M 40.0,36.0 L 50.0,36.0 L 55.0,40.0 L 57.0,50.0 L 59.0,66.0 L 59.0,73.0 L 57.0,75.0 L 52.0,74.0 L 47.0,56.0 L 46.0,48.0 L 35.0,53.0 L 37.0,60.0 L 40.0,59.0 L 42.0,64.0 L 45.0,76.0 L 49.0,81.0 L 56.0,83.0 L 54.0,87.0 L 54.0,96.0 L 55.0,100.0 L 32.0,100.0 L 24.0,96.0 L 18.0,89.0 L 16.0,84.0 L 16.0,54.0 L 20.0,46.0 L 28.0,40.0 L 40.0,36.0" fill="#F8F8F8"/>
	<path d="M 97.0,39.0 L 104.0,39.0 L 105.0,40.0 L 105.0,45.0 L 102.0,47.0 L 75.0,52.0 L 75.0,60.0 L 110.0,60.0 L 112.0,62.0 L 111.0,67.0 L 110.0,68.0 L 80.0,68.0 L 66.0,63.0 L 64.0,46.0 L 71.0,44.0 L 97.0,39.0" fill="#F3F3F3"/>
	<path d="M 67.0,72.0 L 76.0,74.0 L 85.0,78.0 L 85.0,83.0 L 83.0,85.0 L 77.0,84.0 L 65.0,79.0 L 67.0,72.0" fill="#F4F4F4"/>
	<path d="M 63.0,88.0 L 70.0,89.0 L 79.0,93.0 L 80.0,98.0 L 78.0,100.0 L 71.0,99.0 L 62.0,95.0 L 61.0,90.0 L 63.0,88.0" fill="#F2F2F2"/>
</svg>
