<?xml version="1.0" ?>
<svg baseProfile="full" height="600px" version="1.1" viewBox="-20.1 -20.1 240.2 240.2" width="600px" xmlns="http://www.w3.org/2000/svg" xmlns:ev="http://www.w3.org/2001/xml-events" xmlns:xlink="http://www.w3.org/1999/xlink">
	<defs/>
	<path d="M 0.0,0.0 L 200.0,0.0 L 200.0,200.0 L 0.0,200.0 L 0.0,0.0" fill="#FDFDFD"/>
	<path d="M 93.0,4.0 L 101.0,4.0 L 109.0,9.0 L 113.0,16.0 L 113.0,52.0 L 122.0,53.0 L 127.0,56.0 L 132.0,64.0 L 134.0,63.0 L 144.0,63.0 L 151.0,67.0 L 155.0,73.0 L 156.0,88.0 L 162.0,101.0 L 165.0,113.0 L 165.0,170.0 L 161.0,181.0 L 154.0,190.0 L 144.0,196.0 L 135.0,199.0 L 108.0,200.0 L 72.0,200.0 L 60.0,195.0 L 55.0,191.0 L 50.0,183.0 L 45.0,168.0 L 39.0,147.0 L 37.0,140.0 L 37.0,123.0 L 43.0,111.0 L 51.0,105.0 L 50.0,93.0 L 45.0,58.0 L 41.0,33.0 L 41.0,21.0 L 45.0,15.0 L 51.0,11.0 L 60.0,11.0 L 66.0,14.0 L 71.0,20.0 L 73.0,25.0 L 77.0,49.0 L 77.0,54.0 L 79.0,54.0 L 79.0,41.0 L 81.0,17.0 L 85.0,9.0 L 93.0,4.0" fill="#090909"/>
	<path d="M 103.0,106.0 L 114.0,106.0 L 119.0,110.0 L 120.0,112.0 L 120.0,120.0 L 116.0,124.0 L 108.0,127.0 L 76.0,134.0 L 75.0,135.0 L 76.0,142.0 L 81.0,151.0 L 86.0,150.0 L 85.0,144.0 L 84.0,140.0 L 90.0,141.0 L 100.0,150.0 L 104.0,158.0 L 107.0,170.0 L 112.0,170.0 L 112.0,161.0 L 109.0,151.0 L 102.0,141.0 L 98.0,137.0 L 105.0,135.0 L 119.0,131.0 L 125.0,126.0 L 128.0,116.0 L 134.0,119.0 L 144.0,119.0 L 149.0,116.0 L 151.0,116.0 L 153.0,111.0 L 155.0,109.0 L 156.0,110.0 L 157.0,126.0 L 157.0,170.0 L 152.0,180.0 L 144.0,187.0 L 134.0,191.0 L 70.0,191.0 L 62.0,186.0 L 58.0,181.0 L 51.0,159.0 L 46.0,144.0 L 45.0,139.0 L 45.0,124.0 L 50.0,116.0 L 55.0,112.0 L 61.0,110.0 L 103.0,106.0" fill="#FBFBFB"/>
	<path d="M 93.0,13.0 L 101.0,13.0 L 105.0,17.0 L 105.0,57.0 L 101.0,64.0 L 100.0,99.0 L 70.0,102.0 L 60.0,102.0 L 57.0,85.0 L 52.0,50.0 L 49.0,32.0 L 49.0,22.0 L 52.0,19.0 L 59.0,19.0 L 64.0,24.0 L 69.0,49.0 L 76.0,92.0 L 78.0,95.0 L 83.0,94.0 L 85.0,74.0 L 87.0,42.0 L 89.0,18.0 L 93.0,13.0" fill="#F8F8F8"/>
	<path d="M 136.0,71.0 L 143.0,71.0 L 147.0,75.0 L 147.0,107.0 L 142.0,112.0 L 136.0,112.0 L 131.0,107.0 L 131.0,76.0 L 136.0,71.0" fill="#F7F7F7"/>
	<path d="M 113.0,60.0 L 120.0,61.0 L 123.0,64.0 L 123.0,102.0 L 117.0,99.0 L 108.0,98.0 L 108.0,65.0 L 113.0,60.0" fill="#F6F6F6"/>
</svg>
