<?xml version="1.0" ?>
<svg baseProfile="full" height="600px" version="1.1" viewBox="-19.296000000000003 -19.296000000000003 230.592 230.592" width="600px" xmlns="http://www.w3.org/2000/svg" xmlns:ev="http://www.w3.org/2001/xml-events" xmlns:xlink="http://www.w3.org/1999/xlink">
	<defs/>
	<path d="M 0.0,0.0 L 192.0,0.0 L 192.0,192.0 L 0.0,192.0 L 0.0,0.0" fill="#FFFEFD"/>
	<path d="M 90.0,16.0 L 97.0,16.0 L 103.0,19.0 L 106.0,23.0 L 108.0,73.0 L 109.0,85.0 L 114.0,80.0 L 115.0,79.0 L 124.0,79.0 L 130.0,83.0 L 133.0,89.0 L 138.0,84.0 L 139.0,83.0 L 148.0,83.0 L 154.0,87.0 L 156.0,91.0 L 156.0,144.0 L 152.0,157.0 L 145.0,166.0 L 136.0,172.0 L 130.0,175.0 L 124.0,176.0 L 87.0,176.0 L 77.0,174.0 L 67.0,168.0 L 55.0,157.0 L 43.0,141.0 L 39.0,134.0 L 39.0,125.0 L 43.0,119.0 L 51.0,112.0 L 58.0,105.0 L 58.0,98.0 L 49.0,54.0 L 48.0,50.0 L 48.0,38.0 L 53.0,32.0 L 55.0,31.0 L 63.0,31.0 L 69.0,35.0 L 72.0,41.0 L 81.0,77.0 L 82.0,83.0 L 82.0,24.0 L 88.0,17.0 L 90.0,16.0" fill="#FECB80"/>
	<path d="M 90.0,16.0 L 97.0,16.0 L 103.0,19.0 L 106.0,23.0 L 108.0,73.0 L 109.0,85.0 L 114.0,80.0 L 115.0,79.0 L 124.0,79.0 L 130.0,83.0 L 133.0,89.0 L 138.0,84.0 L 139.0,83.0 L 148.0,83.0 L 154.0,87.0 L 156.0,91.0 L 156.0,117.0 L 153.0,123.0 L 149.0,126.0 L 141.0,127.0 L 136.0,124.0 L 133.0,121.0 L 132.0,118.0 L 128.0,124.0 L 122.0,127.0 L 114.0,126.0 L 110.0,122.0 L 111.0,118.0 L 111.0,109.0 L 108.0,103.0 L 103.0,99.0 L 95.0,97.0 L 76.0,97.0 L 65.0,100.0 L 62.0,101.0 L 61.0,104.0 L 59.0,104.0 L 54.0,79.0 L 48.0,50.0 L 48.0,38.0 L 53.0,32.0 L 55.0,31.0 L 63.0,31.0 L 69.0,35.0 L 72.0,41.0 L 81.0,77.0 L 82.0,83.0 L 82.0,24.0 L 88.0,17.0 L 90.0,16.0" fill="#FECB81"/>
	<path d="M 76.0,96.0 L 95.0,96.0 L 104.0,99.0 L 110.0,104.0 L 112.0,109.0 L 112.0,118.0 L 111.0,122.0 L 114.0,125.0 L 122.0,126.0 L 128.0,123.0 L 131.0,117.0 L 133.0,118.0 L 136.0,123.0 L 141.0,126.0 L 149.0,125.0 L 154.0,120.0 L 156.0,117.0 L 156.0,144.0 L 152.0,157.0 L 145.0,166.0 L 136.0,172.0 L 130.0,175.0 L 124.0,176.0 L 104.0,176.0 L 101.0,160.0 L 97.0,150.0 L 89.0,140.0 L 79.0,131.0 L 73.0,127.0 L 75.0,124.0 L 97.0,123.0 L 102.0,118.0 L 103.0,110.0 L 100.0,104.0 L 97.0,102.0 L 80.0,101.0 L 64.0,101.0 L 65.0,99.0 L 76.0,96.0" fill="#FECB7F"/>
	<path d="M 76.0,96.0 L 95.0,96.0 L 104.0,99.0 L 110.0,104.0 L 112.0,109.0 L 112.0,118.0 L 111.0,122.0 L 114.0,125.0 L 122.0,126.0 L 128.0,123.0 L 131.0,117.0 L 133.0,118.0 L 136.0,123.0 L 141.0,126.0 L 149.0,125.0 L 154.0,120.0 L 156.0,117.0 L 156.0,131.0 L 147.0,135.0 L 140.0,135.0 L 131.0,132.0 L 123.0,135.0 L 116.0,135.0 L 107.0,131.0 L 103.0,130.0 L 98.0,132.0 L 95.0,132.0 L 101.0,140.0 L 108.0,151.0 L 112.0,165.0 L 112.0,176.0 L 104.0,176.0 L 101.0,160.0 L 97.0,150.0 L 89.0,140.0 L 79.0,131.0 L 73.0,127.0 L 75.0,124.0 L 97.0,123.0 L 102.0,118.0 L 103.0,110.0 L 100.0,104.0 L 97.0,102.0 L 80.0,101.0 L 64.0,101.0 L 65.0,99.0 L 76.0,96.0" fill="#F2AA6C"/>
	<path d="M 139.0,111.0 L 149.0,111.0 L 152.0,113.0 L 151.0,119.0 L 148.0,122.0 L 141.0,123.0 L 137.0,119.0 L 136.0,113.0 L 139.0,111.0" fill="#FEE9E8"/>
	<path d="M 114.0,111.0 L 125.0,111.0 L 128.0,113.0 L 127.0,119.0 L 124.0,122.0 L 117.0,123.0 L 112.0,117.0 L 113.0,112.0 L 114.0,111.0" fill="#FEE9E8"/>
</svg>
