<?xml version="1.0" ?>
<svg baseProfile="full" height="600px" version="1.1" viewBox="-12.864 -12.864 153.728 153.728" width="600px" xmlns="http://www.w3.org/2000/svg" xmlns:ev="http://www.w3.org/2001/xml-events" xmlns:xlink="http://www.w3.org/1999/xlink">
	<defs/>
	<path d="M 0.0,0.0 L 128.0,0.0 L 128.0,128.0 L 0.0,128.0 L 0.0,0.0" fill="#FCFCFC"/>
	<path d="M 55.0,8.0 L 62.0,8.0 L 68.0,11.0 L 71.0,15.0 L 71.0,35.0 L 73.0,34.0 L 82.0,35.0 L 86.0,39.0 L 98.0,41.0 L 103.0,47.0 L 103.0,97.0 L 99.0,107.0 L 92.0,115.0 L 84.0,119.0 L 81.0,120.0 L 48.0,120.0 L 38.0,115.0 L 30.0,106.0 L 24.0,89.0 L 24.0,77.0 L 27.0,71.0 L 31.0,67.0 L 31.0,19.0 L 37.0,13.0 L 45.0,12.0 L 49.0,13.0 L 55.0,8.0" fill="#070707"/>
	<path d="M 59.0,70.0 L 69.0,70.0 L 71.0,72.0 L 71.0,76.0 L 68.0,78.0 L 45.0,82.0 L 46.0,87.0 L 48.0,91.0 L 48.0,94.0 L 56.0,92.0 L 55.0,88.0 L 71.0,84.0 L 76.0,81.0 L 79.0,72.0 L 83.0,74.0 L 95.0,74.0 L 95.0,96.0 L 90.0,106.0 L 83.0,111.0 L 80.0,112.0 L 50.0,112.0 L 42.0,108.0 L 36.0,100.0 L 32.0,86.0 L 32.0,78.0 L 36.0,73.0 L 44.0,71.0 L 59.0,70.0" fill="#F9F9F9"/>
	<path d="M 57.0,16.0 L 62.0,17.0 L 63.0,18.0 L 63.0,50.0 L 60.0,63.0 L 49.0,64.0 L 40.0,64.0 L 39.0,49.0 L 39.0,22.0 L 40.0,21.0 L 45.0,21.0 L 47.0,23.0 L 48.0,53.0 L 56.0,53.0 L 55.0,33.0 L 55.0,18.0 L 57.0,16.0" fill="#F4F4F4"/>
	<path d="M 75.0,42.0 L 79.0,43.0 L 80.0,44.0 L 79.0,52.0 L 76.0,63.0 L 73.0,64.0 L 68.0,62.0 L 69.0,55.0 L 72.0,45.0 L 75.0,42.0" fill="#F3F3F3"/>
	<path d="M 89.0,48.0 L 94.0,48.0 L 95.0,49.0 L 94.0,58.0 L 91.0,66.0 L 86.0,67.0 L 84.0,65.0 L 85.0,59.0 L 88.0,49.0 L 89.0,48.0" fill="#F4F4F4"/>
</svg>
