<?xml version="1.0" ?>
<svg baseProfile="full" height="600px" version="1.1" viewBox="-19.296000000000003 -19.296000000000003 230.592 230.592" width="600px" xmlns="http://www.w3.org/2000/svg" xmlns:ev="http://www.w3.org/2001/xml-events" xmlns:xlink="http://www.w3.org/1999/xlink">
	<defs/>
	<path d="M 0.0,0.0 L 192.0,0.0 L 192.0,192.0 L 0.0,192.0 L 0.0,0.0" fill="#FFFEFD"/>
	<path d="M 92.0,16.0 L 99.0,16.0 L 104.0,19.0 L 108.0,24.0 L 109.0,86.0 L 114.0,81.0 L 116.0,80.0 L 123.0,80.0 L 129.0,83.0 L 133.0,90.0 L 138.0,85.0 L 140.0,84.0 L 147.0,84.0 L 152.0,87.0 L 156.0,92.0 L 156.0,144.0 L 152.0,157.0 L 145.0,166.0 L 135.0,173.0 L 126.0,176.0 L 87.0,176.0 L 77.0,174.0 L 66.0,167.0 L 53.0,154.0 L 41.0,136.0 L 40.0,133.0 L 40.0,124.0 L 47.0,116.0 L 59.0,104.0 L 55.0,88.0 L 48.0,61.0 L 44.0,47.0 L 44.0,40.0 L 50.0,33.0 L 52.0,32.0 L 59.0,32.0 L 65.0,35.0 L 68.0,39.0 L 72.0,52.0 L 83.0,87.0 L 84.0,24.0 L 88.0,18.0 L 92.0,16.0" fill="#FECB80"/>
	<path d="M 74.0,96.0 L 99.0,96.0 L 106.0,99.0 L 111.0,105.0 L 112.0,107.0 L 112.0,116.0 L 111.0,125.0 L 116.0,127.0 L 123.0,127.0 L 128.0,124.0 L 132.0,119.0 L 135.0,123.0 L 135.0,125.0 L 140.0,127.0 L 147.0,127.0 L 152.0,124.0 L 156.0,119.0 L 156.0,144.0 L 152.0,157.0 L 145.0,166.0 L 135.0,173.0 L 126.0,176.0 L 104.0,176.0 L 101.0,160.0 L 94.0,147.0 L 83.0,135.0 L 73.0,127.0 L 75.0,124.0 L 95.0,123.0 L 100.0,120.0 L 103.0,115.0 L 103.0,108.0 L 98.0,102.0 L 96.0,101.0 L 66.0,100.0 L 68.0,98.0 L 74.0,96.0" fill="#FECB80"/>
	<path d="M 74.0,96.0 L 99.0,96.0 L 106.0,99.0 L 111.0,105.0 L 112.0,107.0 L 112.0,116.0 L 111.0,125.0 L 116.0,127.0 L 123.0,127.0 L 128.0,124.0 L 132.0,119.0 L 135.0,123.0 L 135.0,125.0 L 140.0,127.0 L 147.0,127.0 L 152.0,124.0 L 156.0,119.0 L 156.0,132.0 L 151.0,135.0 L 148.0,136.0 L 138.0,136.0 L 131.0,133.0 L 124.0,136.0 L 115.0,136.0 L 107.0,132.0 L 103.0,129.0 L 94.0,133.0 L 101.0,140.0 L 107.0,150.0 L 112.0,167.0 L 112.0,176.0 L 104.0,176.0 L 101.0,160.0 L 94.0,147.0 L 83.0,135.0 L 73.0,127.0 L 75.0,124.0 L 95.0,123.0 L 100.0,120.0 L 103.0,115.0 L 103.0,108.0 L 98.0,102.0 L 96.0,101.0 L 66.0,100.0 L 68.0,98.0 L 74.0,96.0" fill="#F2A96C"/>
	<path d="M 139.0,112.0 L 148.0,112.0 L 152.0,114.0 L 151.0,120.0 L 147.0,124.0 L 141.0,124.0 L 137.0,121.0 L 136.0,114.0 L 139.0,112.0" fill="#FEE9E8"/>
	<path d="M 115.0,112.0 L 124.0,112.0 L 128.0,114.0 L 127.0,120.0 L 123.0,124.0 L 117.0,124.0 L 113.0,121.0 L 112.0,114.0 L 115.0,112.0" fill="#FEE9E8"/>
</svg>
