<?xml version="1.0" ?>
<svg baseProfile="full" height="600px" version="1.1" viewBox="-19.296000000000003 -19.296000000000003 230.592 230.592" width="600px" xmlns="http://www.w3.org/2000/svg" xmlns:ev="http://www.w3.org/2001/xml-events" xmlns:xlink="http://www.w3.org/1999/xlink">
	<defs/>
	<path d="M 0.0,0.0 L 192.0,0.0 L 192.0,192.0 L 0.0,192.0 L 0.0,0.0" fill="#FEFEFD"/>
	<path d="M 56.0,37.0 L 66.0,37.0 L 73.0,41.0 L 85.0,53.0 L 87.0,54.0 L 100.0,53.0 L 144.0,46.0 L 153.0,46.0 L 159.0,49.0 L 162.0,54.0 L 162.0,62.0 L 157.0,68.0 L 148.0,71.0 L 124.0,76.0 L 116.0,78.0 L 147.0,77.0 L 166.0,77.0 L 171.0,81.0 L 173.0,84.0 L 173.0,93.0 L 170.0,98.0 L 165.0,101.0 L 117.0,103.0 L 102.0,104.0 L 108.0,108.0 L 110.0,113.0 L 110.0,120.0 L 105.0,126.0 L 99.0,128.0 L 104.0,131.0 L 107.0,136.0 L 107.0,143.0 L 103.0,149.0 L 98.0,152.0 L 77.0,153.0 L 48.0,153.0 L 38.0,150.0 L 29.0,144.0 L 22.0,136.0 L 17.0,124.0 L 16.0,119.0 L 16.0,80.0 L 20.0,71.0 L 27.0,62.0 L 34.0,54.0 L 45.0,45.0 L 56.0,37.0" fill="#FECB81"/>
	<path d="M 56.0,37.0 L 66.0,37.0 L 73.0,41.0 L 85.0,53.0 L 87.0,54.0 L 87.0,56.0 L 91.0,56.0 L 95.0,66.0 L 96.0,71.0 L 96.0,80.0 L 94.0,98.0 L 90.0,106.0 L 87.0,109.0 L 81.0,111.0 L 74.0,111.0 L 67.0,108.0 L 66.0,112.0 L 66.0,121.0 L 71.0,126.0 L 75.0,128.0 L 72.0,130.0 L 67.0,135.0 L 66.0,143.0 L 70.0,149.0 L 73.0,152.0 L 61.0,152.0 L 57.0,144.0 L 57.0,137.0 L 59.0,131.0 L 59.0,126.0 L 57.0,122.0 L 57.0,111.0 L 61.0,103.0 L 58.0,94.0 L 47.0,103.0 L 31.0,109.0 L 24.0,110.0 L 16.0,110.0 L 16.0,80.0 L 20.0,71.0 L 27.0,62.0 L 34.0,54.0 L 45.0,45.0 L 56.0,37.0" fill="#FECB80"/>
	<path d="M 91.0,59.0 L 93.0,60.0 L 96.0,71.0 L 96.0,80.0 L 94.0,98.0 L 90.0,106.0 L 87.0,109.0 L 81.0,111.0 L 74.0,111.0 L 67.0,108.0 L 66.0,112.0 L 66.0,121.0 L 71.0,126.0 L 75.0,128.0 L 72.0,130.0 L 67.0,135.0 L 66.0,143.0 L 70.0,149.0 L 73.0,152.0 L 61.0,152.0 L 57.0,144.0 L 57.0,137.0 L 59.0,131.0 L 59.0,126.0 L 57.0,122.0 L 57.0,111.0 L 61.0,103.0 L 58.0,94.0 L 47.0,103.0 L 31.0,109.0 L 24.0,110.0 L 16.0,110.0 L 16.0,102.0 L 30.0,100.0 L 40.0,96.0 L 49.0,90.0 L 59.0,79.0 L 64.0,70.0 L 67.0,71.0 L 68.0,78.0 L 68.0,95.0 L 71.0,100.0 L 73.0,101.0 L 84.0,101.0 L 88.0,97.0 L 89.0,95.0 L 91.0,59.0" fill="#F2AA6C"/>
	<path d="M 75.0,132.0 L 79.0,133.0 L 81.0,135.0 L 81.0,146.0 L 79.0,148.0 L 74.0,148.0 L 69.0,143.0 L 70.0,136.0 L 75.0,132.0" fill="#FEE9E8"/>
	<path d="M 71.0,110.0 L 80.0,111.0 L 81.0,113.0 L 81.0,120.0 L 79.0,124.0 L 73.0,124.0 L 69.0,120.0 L 69.0,113.0 L 71.0,110.0" fill="#FEE9E7"/>
</svg>
