<?xml version="1.0" ?>
<svg baseProfile="full" height="600px" version="1.1" viewBox="-20.1 -20.1 240.2 240.2" width="600px" xmlns="http://www.w3.org/2000/svg" xmlns:ev="http://www.w3.org/2001/xml-events" xmlns:xlink="http://www.w3.org/1999/xlink">
	<defs/>
	<path d="M 0.0,0.0 L 200.0,0.0 L 200.0,200.0 L 0.0,200.0 L 0.0,0.0" fill="#FDFDFD"/>
	<path d="M 90.0,6.0 L 99.0,6.0 L 107.0,11.0 L 110.0,17.0 L 111.0,52.0 L 119.0,52.0 L 125.0,55.0 L 130.0,61.0 L 131.0,63.0 L 135.0,62.0 L 143.0,62.0 L 151.0,67.0 L 155.0,73.0 L 156.0,87.0 L 162.0,100.0 L 165.0,112.0 L 166.0,140.0 L 166.0,170.0 L 162.0,180.0 L 154.0,190.0 L 144.0,196.0 L 138.0,198.0 L 129.0,199.0 L 97.0,200.0 L 73.0,200.0 L 63.0,196.0 L 57.0,192.0 L 52.0,186.0 L 40.0,151.0 L 37.0,137.0 L 37.0,124.0 L 40.0,116.0 L 44.0,110.0 L 50.0,105.0 L 52.0,105.0 L 48.0,69.0 L 44.0,29.0 L 44.0,22.0 L 47.0,16.0 L 53.0,11.0 L 64.0,11.0 L 70.0,14.0 L 74.0,19.0 L 76.0,25.0 L 77.0,32.0 L 79.0,16.0 L 84.0,9.0 L 90.0,6.0" fill="#080808"/>
	<path d="M 101.0,106.0 L 114.0,106.0 L 120.0,111.0 L 120.0,121.0 L 115.0,125.0 L 104.0,128.0 L 76.0,134.0 L 75.0,135.0 L 76.0,142.0 L 80.0,150.0 L 85.0,149.0 L 84.0,140.0 L 91.0,141.0 L 99.0,147.0 L 104.0,155.0 L 106.0,161.0 L 107.0,169.0 L 112.0,170.0 L 113.0,169.0 L 113.0,160.0 L 109.0,149.0 L 102.0,140.0 L 99.0,138.0 L 99.0,136.0 L 115.0,133.0 L 123.0,128.0 L 126.0,125.0 L 129.0,116.0 L 134.0,118.0 L 143.0,118.0 L 151.0,113.0 L 154.0,107.0 L 156.0,108.0 L 157.0,113.0 L 158.0,167.0 L 154.0,177.0 L 147.0,185.0 L 139.0,189.0 L 136.0,190.0 L 93.0,192.0 L 76.0,192.0 L 67.0,189.0 L 59.0,182.0 L 46.0,141.0 L 45.0,136.0 L 45.0,124.0 L 50.0,115.0 L 56.0,111.0 L 68.0,109.0 L 101.0,106.0" fill="#FBFBFB"/>
	<path d="M 91.0,14.0 L 98.0,14.0 L 102.0,18.0 L 103.0,40.0 L 103.0,60.0 L 101.0,64.0 L 100.0,99.0 L 67.0,102.0 L 60.0,102.0 L 56.0,68.0 L 53.0,37.0 L 53.0,21.0 L 55.0,19.0 L 63.0,19.0 L 67.0,23.0 L 69.0,33.0 L 74.0,72.0 L 76.0,93.0 L 78.0,95.0 L 83.0,94.0 L 85.0,42.0 L 87.0,18.0 L 91.0,14.0" fill="#F9F9F9"/>
	<path d="M 137.0,70.0 L 142.0,70.0 L 147.0,75.0 L 147.0,105.0 L 143.0,110.0 L 136.0,111.0 L 131.0,106.0 L 131.0,76.0 L 135.0,71.0 L 137.0,70.0" fill="#F8F8F8"/>
	<path d="M 113.0,60.0 L 120.0,61.0 L 123.0,65.0 L 123.0,102.0 L 118.0,100.0 L 108.0,98.0 L 108.0,66.0 L 113.0,60.0" fill="#F4F4F4"/>
</svg>
