<?xml version="1.0" ?>
<svg baseProfile="full" height="600px" version="1.1" viewBox="-20.1 -20.1 240.2 240.2" width="600px" xmlns="http://www.w3.org/2000/svg" xmlns:ev="http://www.w3.org/2001/xml-events" xmlns:xlink="http://www.w3.org/1999/xlink">
	<defs/>
	<path d="M 0.0,0.0 L 200.0,0.0 L 200.0,200.0 L 0.0,200.0 L 0.0,0.0" fill="#070707"/>
	<path d="M 0.0,0.0 L 200.0,0.0 L 200.0,107.0 L 196.0,102.0 L 190.0,98.0 L 175.0,95.0 L 129.0,88.0 L 126.0,86.0 L 177.0,70.0 L 183.0,66.0 L 186.0,62.0 L 187.0,59.0 L 187.0,49.0 L 184.0,44.0 L 178.0,41.0 L 168.0,41.0 L 120.0,53.0 L 102.0,58.0 L 93.0,59.0 L 87.0,51.0 L 77.0,46.0 L 71.0,45.0 L 60.0,45.0 L 35.0,52.0 L 18.0,57.0 L 10.0,62.0 L 4.0,70.0 L 1.0,78.0 L 0.0,78.0 L 0.0,0.0" fill="#FCFCFC"/>
	<path d="M 199.0,116.0 L 200.0,116.0 L 200.0,200.0 L 0.0,200.0 L 0.0,141.0 L 1.0,141.0 L 4.0,152.0 L 10.0,160.0 L 18.0,167.0 L 25.0,170.0 L 30.0,171.0 L 86.0,171.0 L 96.0,169.0 L 108.0,164.0 L 125.0,163.0 L 131.0,159.0 L 134.0,155.0 L 135.0,152.0 L 135.0,143.0 L 134.0,140.0 L 142.0,136.0 L 146.0,131.0 L 148.0,125.0 L 159.0,125.0 L 179.0,127.0 L 189.0,127.0 L 195.0,123.0 L 198.0,119.0 L 199.0,116.0" fill="#FDFDFD"/>
	<path d="M 57.0,53.0 L 74.0,53.0 L 84.0,58.0 L 88.0,64.0 L 90.0,74.0 L 94.0,108.0 L 95.0,113.0 L 95.0,120.0 L 92.0,125.0 L 87.0,128.0 L 81.0,128.0 L 76.0,122.0 L 72.0,110.0 L 67.0,89.0 L 66.0,83.0 L 60.0,83.0 L 48.0,90.0 L 48.0,95.0 L 55.0,94.0 L 60.0,92.0 L 58.0,96.0 L 52.0,103.0 L 42.0,109.0 L 30.0,113.0 L 29.0,118.0 L 34.0,119.0 L 44.0,116.0 L 55.0,110.0 L 62.0,103.0 L 64.0,106.0 L 68.0,123.0 L 74.0,132.0 L 81.0,136.0 L 77.0,143.0 L 77.0,153.0 L 81.0,159.0 L 87.0,163.0 L 87.0,164.0 L 30.0,164.0 L 21.0,160.0 L 13.0,153.0 L 8.0,142.0 L 8.0,81.0 L 11.0,72.0 L 16.0,66.0 L 22.0,63.0 L 48.0,56.0 L 57.0,53.0" fill="#FBFBFB"/>
	<path d="M 169.0,48.0 L 177.0,48.0 L 180.0,51.0 L 180.0,58.0 L 175.0,63.0 L 161.0,68.0 L 140.0,74.0 L 129.0,78.0 L 108.0,84.0 L 105.0,86.0 L 106.0,91.0 L 123.0,94.0 L 180.0,103.0 L 188.0,105.0 L 192.0,109.0 L 192.0,115.0 L 187.0,120.0 L 171.0,119.0 L 146.0,116.0 L 139.0,110.0 L 137.0,109.0 L 102.0,108.0 L 101.0,107.0 L 97.0,73.0 L 97.0,67.0 L 110.0,63.0 L 155.0,52.0 L 169.0,48.0" fill="#FAFAFA"/>
	<path d="M 89.0,140.0 L 122.0,140.0 L 127.0,143.0 L 128.0,145.0 L 128.0,151.0 L 125.0,155.0 L 122.0,156.0 L 89.0,156.0 L 84.0,151.0 L 84.0,145.0 L 89.0,140.0" fill="#F9F9F9"/>
	<path d="M 103.0,116.0 L 134.0,116.0 L 139.0,119.0 L 140.0,121.0 L 140.0,127.0 L 137.0,131.0 L 134.0,132.0 L 97.0,132.0 L 102.0,123.0 L 103.0,116.0" fill="#FAFAFA"/>
</svg>
