<?xml version="1.0" ?>
<svg baseProfile="full" height="600px" version="1.1" viewBox="-12.864 -12.864 153.728 153.728" width="600px" xmlns="http://www.w3.org/2000/svg" xmlns:ev="http://www.w3.org/2001/xml-events" xmlns:xlink="http://www.w3.org/1999/xlink">
	<defs/>
	<path d="M 0.0,0.0 L 128.0,0.0 L 128.0,128.0 L 0.0,128.0 L 0.0,0.0" fill="#FCFCFC"/>
	<path d="M 39.0,28.0 L 51.0,28.0 L 59.0,33.0 L 62.0,36.0 L 62.0,38.0 L 82.0,33.0 L 95.0,29.0 L 102.0,29.0 L 108.0,32.0 L 111.0,37.0 L 110.0,46.0 L 105.0,51.0 L 115.0,53.0 L 119.0,58.0 L 120.0,61.0 L 120.0,68.0 L 115.0,74.0 L 110.0,76.0 L 93.0,76.0 L 93.0,86.0 L 90.0,90.0 L 88.0,90.0 L 88.0,99.0 L 85.0,104.0 L 79.0,108.0 L 33.0,108.0 L 23.0,105.0 L 15.0,99.0 L 9.0,89.0 L 8.0,85.0 L 8.0,52.0 L 13.0,42.0 L 22.0,34.0 L 32.0,30.0 L 39.0,28.0" fill="#080808"/>
	<path d="M 40.0,36.0 L 50.0,36.0 L 55.0,40.0 L 56.0,42.0 L 58.0,58.0 L 58.0,74.0 L 53.0,75.0 L 50.0,68.0 L 46.0,50.0 L 45.0,48.0 L 35.0,53.0 L 37.0,59.0 L 40.0,59.0 L 45.0,77.0 L 51.0,82.0 L 56.0,83.0 L 54.0,87.0 L 54.0,96.0 L 55.0,100.0 L 33.0,100.0 L 23.0,95.0 L 18.0,89.0 L 16.0,84.0 L 16.0,54.0 L 20.0,46.0 L 28.0,40.0 L 40.0,36.0" fill="#F8F8F8"/>
	<path d="M 96.0,37.0 L 101.0,37.0 L 103.0,39.0 L 102.0,43.0 L 100.0,45.0 L 79.0,51.0 L 74.0,52.0 L 75.0,54.0 L 75.0,60.0 L 110.0,60.0 L 112.0,62.0 L 111.0,67.0 L 109.0,68.0 L 80.0,68.0 L 66.0,64.0 L 65.0,59.0 L 65.0,46.0 L 82.0,41.0 L 96.0,37.0" fill="#F2F2F2"/>
	<path d="M 67.0,72.0 L 76.0,74.0 L 85.0,78.0 L 85.0,83.0 L 84.0,84.0 L 77.0,84.0 L 64.0,79.0 L 67.0,72.0" fill="#F4F4F4"/>
	<path d="M 63.0,88.0 L 70.0,89.0 L 79.0,93.0 L 80.0,98.0 L 79.0,99.0 L 72.0,99.0 L 62.0,95.0 L 61.0,90.0 L 63.0,88.0" fill="#F5F5F5"/>
</svg>
