<?xml version="1.0" ?>
<svg baseProfile="full" height="600px" version="1.1" viewBox="-12.864 -12.864 153.728 153.728" width="600px" xmlns="http://www.w3.org/2000/svg" xmlns:ev="http://www.w3.org/2001/xml-events" xmlns:xlink="http://www.w3.org/1999/xlink">
	<defs/>
	<path d="M 0.0,0.0 L 128.0,0.0 L 128.0,128.0 L 0.0,128.0 L 0.0,0.0" fill="#FCFCFC"/>
	<path d="M 39.0,28.0 L 51.0,28.0 L 59.0,33.0 L 61.0,35.0 L 107.0,35.0 L 113.0,39.0 L 116.0,43.0 L 116.0,54.0 L 120.0,59.0 L 120.0,66.0 L 117.0,72.0 L 112.0,75.0 L 93.0,75.0 L 94.0,83.0 L 91.0,89.0 L 89.0,90.0 L 87.0,102.0 L 81.0,107.0 L 30.0,107.0 L 21.0,103.0 L 13.0,96.0 L 9.0,88.0 L 8.0,85.0 L 8.0,52.0 L 13.0,42.0 L 22.0,34.0 L 32.0,30.0 L 39.0,28.0" fill="#080808"/>
	<path d="M 40.0,36.0 L 50.0,36.0 L 55.0,40.0 L 56.0,42.0 L 58.0,66.0 L 58.0,73.0 L 56.0,75.0 L 51.0,74.0 L 49.0,67.0 L 46.0,49.0 L 43.0,49.0 L 34.0,53.0 L 36.0,60.0 L 40.0,59.0 L 42.0,68.0 L 44.0,76.0 L 49.0,81.0 L 56.0,83.0 L 54.0,87.0 L 54.0,99.0 L 31.0,99.0 L 21.0,93.0 L 17.0,87.0 L 16.0,83.0 L 16.0,54.0 L 20.0,46.0 L 28.0,40.0 L 40.0,36.0" fill="#F9F9F9"/>
	<path d="M 64.0,44.0 L 107.0,44.0 L 108.0,49.0 L 106.0,51.0 L 91.0,52.0 L 75.0,52.0 L 75.0,60.0 L 111.0,60.0 L 112.0,65.0 L 110.0,67.0 L 77.0,67.0 L 65.0,64.0 L 64.0,44.0" fill="#F9F9F9"/>
	<path d="M 66.0,72.0 L 79.0,75.0 L 85.0,77.0 L 86.0,82.0 L 84.0,84.0 L 75.0,83.0 L 65.0,80.0 L 64.0,77.0 L 66.0,72.0" fill="#F3F3F3"/>
	<path d="M 63.0,88.0 L 69.0,89.0 L 79.0,92.0 L 80.0,93.0 L 80.0,98.0 L 79.0,99.0 L 72.0,99.0 L 61.0,95.0 L 61.0,90.0 L 63.0,88.0" fill="#F3F3F3"/>
</svg>
