<?xml version="1.0" ?>
<svg baseProfile="full" height="600px" version="1.1" viewBox="-19.296000000000003 -19.296000000000003 230.592 230.592" width="600px" xmlns="http://www.w3.org/2000/svg" xmlns:ev="http://www.w3.org/2001/xml-events" xmlns:xlink="http://www.w3.org/1999/xlink">
	<defs/>
	<path d="M 0.0,0.0 L 192.0,0.0 L 192.0,192.0 L 0.0,192.0 L 0.0,0.0" fill="#FEFEFC"/>
	<path d="M 58.0,38.0 L 65.0,38.0 L 74.0,43.0 L 86.0,53.0 L 93.0,53.0 L 110.0,48.0 L 132.0,42.0 L 143.0,39.0 L 150.0,39.0 L 156.0,44.0 L 158.0,47.0 L 158.0,54.0 L 155.0,59.0 L 152.0,62.0 L 107.0,78.0 L 102.0,80.0 L 106.0,81.0 L 164.0,83.0 L 169.0,86.0 L 173.0,91.0 L 173.0,99.0 L 168.0,105.0 L 166.0,106.0 L 105.0,106.0 L 109.0,111.0 L 109.0,121.0 L 105.0,126.0 L 100.0,128.0 L 106.0,135.0 L 106.0,144.0 L 101.0,150.0 L 95.0,152.0 L 77.0,153.0 L 46.0,153.0 L 37.0,150.0 L 28.0,144.0 L 21.0,136.0 L 16.0,123.0 L 15.0,111.0 L 15.0,81.0 L 20.0,71.0 L 29.0,61.0 L 36.0,54.0 L 46.0,46.0 L 55.0,39.0 L 58.0,38.0" fill="#FECB80"/>
	<path d="M 143.0,39.0 L 150.0,39.0 L 156.0,44.0 L 158.0,47.0 L 158.0,54.0 L 155.0,59.0 L 152.0,62.0 L 107.0,78.0 L 102.0,80.0 L 106.0,81.0 L 164.0,83.0 L 169.0,86.0 L 173.0,91.0 L 173.0,99.0 L 168.0,105.0 L 166.0,106.0 L 105.0,106.0 L 109.0,111.0 L 109.0,121.0 L 105.0,126.0 L 100.0,128.0 L 106.0,135.0 L 106.0,144.0 L 101.0,150.0 L 95.0,152.0 L 77.0,153.0 L 57.0,153.0 L 57.0,152.0 L 71.0,151.0 L 67.0,147.0 L 66.0,144.0 L 66.0,137.0 L 69.0,131.0 L 73.0,128.0 L 68.0,125.0 L 65.0,119.0 L 65.0,112.0 L 67.0,109.0 L 73.0,110.0 L 83.0,110.0 L 88.0,107.0 L 92.0,101.0 L 94.0,89.0 L 95.0,80.0 L 95.0,71.0 L 92.0,60.0 L 90.0,55.0 L 99.0,51.0 L 126.0,44.0 L 143.0,39.0" fill="#FECB81"/>
	<path d="M 91.0,59.0 L 93.0,60.0 L 96.0,71.0 L 96.0,80.0 L 94.0,98.0 L 90.0,106.0 L 86.0,110.0 L 83.0,111.0 L 73.0,111.0 L 67.0,109.0 L 66.0,112.0 L 66.0,119.0 L 68.0,125.0 L 73.0,127.0 L 75.0,129.0 L 69.0,131.0 L 67.0,137.0 L 67.0,144.0 L 70.0,149.0 L 74.0,152.0 L 57.0,153.0 L 46.0,153.0 L 37.0,150.0 L 28.0,144.0 L 21.0,136.0 L 16.0,123.0 L 16.0,103.0 L 31.0,101.0 L 45.0,94.0 L 55.0,85.0 L 64.0,71.0 L 68.0,73.0 L 67.0,94.0 L 70.0,100.0 L 73.0,102.0 L 82.0,102.0 L 87.0,99.0 L 89.0,95.0 L 91.0,59.0" fill="#FECB7F"/>
	<path d="M 91.0,59.0 L 93.0,60.0 L 96.0,71.0 L 96.0,80.0 L 94.0,98.0 L 90.0,106.0 L 86.0,110.0 L 83.0,111.0 L 73.0,111.0 L 67.0,109.0 L 66.0,112.0 L 66.0,119.0 L 68.0,125.0 L 73.0,127.0 L 75.0,129.0 L 69.0,131.0 L 67.0,137.0 L 67.0,144.0 L 70.0,149.0 L 74.0,152.0 L 61.0,152.0 L 58.0,145.0 L 58.0,134.0 L 60.0,130.0 L 59.0,126.0 L 57.0,120.0 L 57.0,111.0 L 60.0,104.0 L 58.0,95.0 L 50.0,101.0 L 39.0,107.0 L 23.0,111.0 L 16.0,111.0 L 16.0,103.0 L 31.0,101.0 L 45.0,94.0 L 55.0,85.0 L 64.0,71.0 L 68.0,73.0 L 67.0,94.0 L 70.0,100.0 L 73.0,102.0 L 82.0,102.0 L 87.0,99.0 L 89.0,95.0 L 91.0,59.0" fill="#F2A96C"/>
	<path d="M 75.0,132.0 L 80.0,133.0 L 81.0,135.0 L 81.0,146.0 L 80.0,148.0 L 74.0,148.0 L 70.0,144.0 L 70.0,137.0 L 75.0,132.0" fill="#FEE9E8"/>
	<path d="M 71.0,111.0 L 80.0,112.0 L 81.0,113.0 L 81.0,122.0 L 79.0,124.0 L 73.0,124.0 L 69.0,119.0 L 69.0,113.0 L 71.0,111.0" fill="#FEE9E8"/>
</svg>
