<?xml version="1.0" ?>
<svg baseProfile="full" height="600px" version="1.1" viewBox="-20.1 -20.1 240.2 240.2" width="600px" xmlns="http://www.w3.org/2000/svg" xmlns:ev="http://www.w3.org/2001/xml-events" xmlns:xlink="http://www.w3.org/1999/xlink">
	<defs/>
	<path d="M 0.0,0.0 L 200.0,0.0 L 200.0,200.0 L 0.0,200.0 L 0.0,0.0" fill="#070707"/>
	<path d="M 109.0,0.0 L 200.0,0.0 L 200.0,200.0 L 136.0,200.0 L 139.0,198.0 L 150.0,192.0 L 157.0,185.0 L 162.0,175.0 L 163.0,168.0 L 163.0,112.0 L 160.0,100.0 L 156.0,92.0 L 155.0,75.0 L 151.0,69.0 L 145.0,65.0 L 135.0,65.0 L 132.0,66.0 L 128.0,58.0 L 123.0,54.0 L 117.0,52.0 L 117.0,42.0 L 119.0,22.0 L 119.0,11.0 L 115.0,5.0 L 109.0,1.0 L 109.0,0.0" fill="#FDFDFD"/>
	<path d="M 0.0,0.0 L 99.0,0.0 L 94.0,4.0 L 90.0,10.0 L 87.0,23.0 L 80.0,69.0 L 78.0,73.0 L 73.0,57.0 L 65.0,33.0 L 62.0,22.0 L 56.0,15.0 L 51.0,13.0 L 42.0,13.0 L 35.0,17.0 L 33.0,21.0 L 33.0,31.0 L 45.0,80.0 L 50.0,98.0 L 51.0,107.0 L 43.0,113.0 L 38.0,123.0 L 37.0,127.0 L 37.0,140.0 L 44.0,164.0 L 49.0,181.0 L 53.0,189.0 L 60.0,195.0 L 70.0,199.0 L 70.0,200.0 L 0.0,200.0 L 0.0,0.0" fill="#FCFCFC"/>
	<path d="M 105.0,105.0 L 113.0,105.0 L 119.0,110.0 L 120.0,112.0 L 120.0,118.0 L 115.0,124.0 L 98.0,129.0 L 81.0,133.0 L 75.0,136.0 L 76.0,142.0 L 82.0,152.0 L 87.0,152.0 L 86.0,145.0 L 84.0,140.0 L 88.0,142.0 L 95.0,148.0 L 101.0,158.0 L 104.0,167.0 L 106.0,171.0 L 111.0,170.0 L 110.0,161.0 L 103.0,147.0 L 95.0,138.0 L 98.0,136.0 L 115.0,132.0 L 124.0,126.0 L 127.0,119.0 L 131.0,121.0 L 135.0,123.0 L 144.0,123.0 L 150.0,120.0 L 153.0,117.0 L 155.0,113.0 L 156.0,113.0 L 156.0,169.0 L 151.0,181.0 L 143.0,188.0 L 134.0,192.0 L 72.0,192.0 L 64.0,189.0 L 58.0,184.0 L 53.0,171.0 L 47.0,149.0 L 45.0,143.0 L 45.0,125.0 L 48.0,119.0 L 53.0,114.0 L 59.0,111.0 L 92.0,107.0 L 105.0,105.0" fill="#FBFBFB"/>
	<path d="M 101.0,8.0 L 108.0,8.0 L 112.0,12.0 L 112.0,21.0 L 109.0,52.0 L 102.0,61.0 L 101.0,63.0 L 100.0,98.0 L 91.0,100.0 L 68.0,103.0 L 59.0,103.0 L 56.0,94.0 L 44.0,45.0 L 40.0,31.0 L 40.0,23.0 L 43.0,20.0 L 50.0,20.0 L 55.0,25.0 L 65.0,55.0 L 69.0,68.0 L 75.0,87.0 L 77.0,94.0 L 82.0,95.0 L 84.0,89.0 L 90.0,51.0 L 94.0,26.0 L 96.0,14.0 L 101.0,8.0" fill="#F8F8F8"/>
	<path d="M 137.0,72.0 L 143.0,72.0 L 148.0,77.0 L 148.0,110.0 L 145.0,115.0 L 143.0,116.0 L 137.0,116.0 L 133.0,113.0 L 132.0,110.0 L 132.0,77.0 L 137.0,72.0" fill="#F9F9F9"/>
	<path d="M 113.0,60.0 L 119.0,60.0 L 124.0,65.0 L 124.0,103.0 L 115.0,98.0 L 108.0,97.0 L 108.0,65.0 L 113.0,60.0" fill="#FAFAFA"/>
</svg>
