<?xml version="1.0" ?>
<svg baseProfile="full" height="600px" version="1.1" viewBox="-19.296000000000003 -19.296000000000003 230.592 230.592" width="600px" xmlns="http://www.w3.org/2000/svg" xmlns:ev="http://www.w3.org/2001/xml-events" xmlns:xlink="http://www.w3.org/1999/xlink">
	<defs/>
	<path d="M 0.0,0.0 L 192.0,0.0 L 192.0,192.0 L 0.0,192.0 L 0.0,0.0" fill="#FEFEFC"/>
	<path d="M 57.0,36.0 L 67.0,36.0 L 73.0,40.0 L 87.0,54.0 L 87.0,56.0 L 112.0,50.0 L 145.0,43.0 L 154.0,43.0 L 159.0,46.0 L 161.0,49.0 L 161.0,59.0 L 158.0,64.0 L 147.0,68.0 L 129.0,73.0 L 111.0,78.0 L 107.0,79.0 L 165.0,80.0 L 172.0,84.0 L 175.0,89.0 L 174.0,98.0 L 170.0,103.0 L 168.0,104.0 L 105.0,105.0 L 110.0,110.0 L 111.0,111.0 L 111.0,119.0 L 108.0,125.0 L 102.0,128.0 L 107.0,135.0 L 107.0,145.0 L 103.0,150.0 L 99.0,152.0 L 46.0,152.0 L 35.0,148.0 L 26.0,141.0 L 19.0,130.0 L 16.0,119.0 L 16.0,82.0 L 19.0,72.0 L 25.0,63.0 L 36.0,51.0 L 49.0,41.0 L 57.0,36.0" fill="#FECB80"/>
	<path d="M 92.0,62.0 L 94.0,63.0 L 96.0,71.0 L 96.0,84.0 L 95.0,97.0 L 91.0,104.0 L 85.0,109.0 L 76.0,109.0 L 68.0,108.0 L 66.0,110.0 L 66.0,121.0 L 71.0,126.0 L 73.0,127.0 L 73.0,129.0 L 67.0,133.0 L 66.0,135.0 L 66.0,145.0 L 71.0,150.0 L 72.0,152.0 L 46.0,152.0 L 35.0,148.0 L 26.0,141.0 L 19.0,130.0 L 16.0,119.0 L 16.0,101.0 L 32.0,98.0 L 44.0,92.0 L 52.0,85.0 L 54.0,85.0 L 56.0,81.0 L 63.0,72.0 L 66.0,69.0 L 68.0,71.0 L 69.0,94.0 L 73.0,99.0 L 75.0,100.0 L 84.0,100.0 L 89.0,95.0 L 90.0,94.0 L 91.0,65.0 L 92.0,62.0" fill="#FECB80"/>
	<path d="M 92.0,62.0 L 94.0,63.0 L 96.0,71.0 L 96.0,84.0 L 95.0,97.0 L 91.0,104.0 L 85.0,109.0 L 76.0,109.0 L 68.0,108.0 L 66.0,110.0 L 66.0,121.0 L 71.0,126.0 L 73.0,127.0 L 73.0,129.0 L 67.0,133.0 L 66.0,135.0 L 66.0,145.0 L 71.0,150.0 L 72.0,152.0 L 60.0,152.0 L 57.0,146.0 L 57.0,133.0 L 59.0,127.0 L 56.0,119.0 L 56.0,112.0 L 59.0,105.0 L 62.0,100.0 L 60.0,97.0 L 60.0,92.0 L 55.0,95.0 L 49.0,100.0 L 39.0,105.0 L 30.0,108.0 L 16.0,109.0 L 16.0,101.0 L 32.0,98.0 L 44.0,92.0 L 52.0,85.0 L 54.0,85.0 L 56.0,81.0 L 63.0,72.0 L 66.0,69.0 L 68.0,71.0 L 69.0,94.0 L 73.0,99.0 L 75.0,100.0 L 84.0,100.0 L 89.0,95.0 L 90.0,94.0 L 91.0,65.0 L 92.0,62.0" fill="#F2AA6C"/>
	<path d="M 74.0,132.0 L 79.0,133.0 L 80.0,134.0 L 80.0,146.0 L 79.0,148.0 L 72.0,147.0 L 69.0,144.0 L 69.0,136.0 L 74.0,132.0" fill="#FEE9E9"/>
	<path d="M 72.0,109.0 L 79.0,109.0 L 80.0,112.0 L 80.0,121.0 L 78.0,124.0 L 73.0,124.0 L 69.0,120.0 L 68.0,114.0 L 72.0,109.0" fill="#FEE9E9"/>
</svg>
