<?xml version="1.0" ?>
<svg baseProfile="full" height="600px" version="1.1" viewBox="-12.06 -12.06 144.12 144.12" width="600px" xmlns="http://www.w3.org/2000/svg" xmlns:ev="http://www.w3.org/2001/xml-events" xmlns:xlink="http://www.w3.org/1999/xlink">
	<defs/>
	<path d="M 0.0,0.0 L 120.0,0.0 L 120.0,120.0 L 0.0,120.0 L 0.0,0.0" fill="#FCFCFC"/>
	<path d="M 46.0,64.0 L 53.0,64.0 L 56.0,68.0 L 55.0,74.0 L 45.0,85.0 L 45.0,87.0 L 49.0,85.0 L 57.0,77.0 L 60.0,71.0 L 66.0,76.0 L 74.0,76.0 L 79.0,74.0 L 82.0,76.0 L 92.0,76.0 L 92.0,98.0 L 88.0,104.0 L 83.0,108.0 L 77.0,110.0 L 50.0,112.0 L 43.0,112.0 L 37.0,108.0 L 30.0,100.0 L 26.0,92.0 L 26.0,83.0 L 30.0,77.0 L 44.0,65.0 L 46.0,64.0" fill="#030303"/>
	<path d="M 52.0,8.0 L 57.0,8.0 L 60.0,11.0 L 60.0,67.0 L 53.0,61.0 L 45.0,61.0 L 35.0,69.0 L 32.0,71.0 L 31.0,46.0 L 31.0,20.0 L 35.0,16.0 L 40.0,16.0 L 43.0,19.0 L 44.0,31.0 L 44.0,52.0 L 48.0,52.0 L 48.0,13.0 L 52.0,8.0" fill="#090909"/>
	<path d="M 67.0,48.0 L 73.0,48.0 L 76.0,51.0 L 76.0,70.0 L 73.0,73.0 L 67.0,73.0 L 64.0,70.0 L 64.0,51.0 L 67.0,48.0" fill="#050505"/>
	<path d="M 83.0,52.0 L 89.0,52.0 L 92.0,55.0 L 92.0,70.0 L 88.0,73.0 L 83.0,73.0 L 80.0,70.0 L 80.0,55.0 L 83.0,52.0" fill="#050505"/>
</svg>
