<?xml version="1.0" ?>
<svg baseProfile="full" height="600px" version="1.1" viewBox="-20.1 -20.1 240.2 240.2" width="600px" xmlns="http://www.w3.org/2000/svg" xmlns:ev="http://www.w3.org/2001/xml-events" xmlns:xlink="http://www.w3.org/1999/xlink">
	<defs/>
	<path d="M 0.0,0.0 L 200.0,0.0 L 200.0,200.0 L 0.0,200.0 L 0.0,0.0" fill="#FCFCFC"/>
	<path d="M 58.0,46.0 L 73.0,46.0 L 82.0,49.0 L 91.0,57.0 L 92.0,59.0 L 109.0,57.0 L 142.0,52.0 L 165.0,49.0 L 168.0,48.0 L 179.0,48.0 L 186.0,53.0 L 188.0,57.0 L 188.0,68.0 L 184.0,75.0 L 174.0,80.0 L 145.0,85.0 L 185.0,87.0 L 194.0,91.0 L 198.0,96.0 L 199.0,98.0 L 199.0,108.0 L 195.0,115.0 L 187.0,119.0 L 145.0,119.0 L 145.0,126.0 L 141.0,134.0 L 135.0,138.0 L 132.0,138.0 L 134.0,143.0 L 134.0,150.0 L 130.0,158.0 L 124.0,162.0 L 121.0,163.0 L 110.0,164.0 L 98.0,170.0 L 88.0,172.0 L 73.0,173.0 L 31.0,173.0 L 21.0,170.0 L 12.0,163.0 L 6.0,155.0 L 2.0,143.0 L 1.0,116.0 L 1.0,79.0 L 5.0,70.0 L 12.0,62.0 L 20.0,58.0 L 58.0,46.0" fill="#080808"/>
	<path d="M 59.0,54.0 L 73.0,54.0 L 81.0,58.0 L 86.0,64.0 L 89.0,81.0 L 92.0,114.0 L 92.0,121.0 L 88.0,127.0 L 86.0,128.0 L 77.0,128.0 L 73.0,123.0 L 70.0,113.0 L 64.0,85.0 L 62.0,83.0 L 58.0,84.0 L 49.0,91.0 L 48.0,96.0 L 53.0,97.0 L 58.0,94.0 L 57.0,100.0 L 49.0,108.0 L 38.0,113.0 L 30.0,116.0 L 31.0,121.0 L 39.0,120.0 L 51.0,115.0 L 60.0,108.0 L 62.0,109.0 L 66.0,125.0 L 70.0,131.0 L 75.0,135.0 L 81.0,136.0 L 77.0,144.0 L 77.0,151.0 L 81.0,159.0 L 87.0,163.0 L 87.0,164.0 L 71.0,165.0 L 30.0,165.0 L 22.0,161.0 L 17.0,157.0 L 12.0,149.0 L 10.0,142.0 L 9.0,128.0 L 9.0,80.0 L 13.0,72.0 L 19.0,67.0 L 55.0,55.0 L 59.0,54.0" fill="#FAFAFA"/>
	<path d="M 170.0,56.0 L 177.0,56.0 L 180.0,58.0 L 180.0,67.0 L 175.0,71.0 L 168.0,73.0 L 124.0,81.0 L 107.0,84.0 L 104.0,86.0 L 105.0,91.0 L 116.0,92.0 L 184.0,95.0 L 190.0,98.0 L 191.0,100.0 L 191.0,107.0 L 186.0,111.0 L 139.0,111.0 L 134.0,108.0 L 98.0,108.0 L 95.0,73.0 L 95.0,68.0 L 111.0,65.0 L 137.0,61.0 L 170.0,56.0" fill="#FAFAFA"/>
	<path d="M 103.0,139.0 L 121.0,139.0 L 126.0,144.0 L 125.0,151.0 L 122.0,154.0 L 120.0,155.0 L 88.0,155.0 L 84.0,150.0 L 85.0,144.0 L 89.0,140.0 L 103.0,139.0" fill="#F7F7F7"/>
	<path d="M 113.0,115.0 L 132.0,115.0 L 137.0,120.0 L 137.0,126.0 L 133.0,130.0 L 131.0,131.0 L 94.0,132.0 L 99.0,122.0 L 100.0,116.0 L 113.0,115.0" fill="#F7F7F7"/>
</svg>
