<?xml version="1.0" ?>
<svg baseProfile="full" height="600px" version="1.1" viewBox="-20.1 -20.1 240.2 240.2" width="600px" xmlns="http://www.w3.org/2000/svg" xmlns:ev="http://www.w3.org/2001/xml-events" xmlns:xlink="http://www.w3.org/1999/xlink">
	<defs/>
	<path d="M 0.0,0.0 L 200.0,0.0 L 200.0,200.0 L 0.0,200.0 L 0.0,0.0" fill="#FCFCFC"/>
	<path d="M 93.0,4.0 L 103.0,4.0 L 110.0,9.0 L 113.0,14.0 L 113.0,52.0 L 122.0,53.0 L 127.0,56.0 L 132.0,64.0 L 134.0,63.0 L 144.0,63.0 L 151.0,67.0 L 155.0,73.0 L 156.0,88.0 L 162.0,101.0 L 165.0,114.0 L 165.0,171.0 L 161.0,181.0 L 154.0,190.0 L 144.0,196.0 L 135.0,199.0 L 96.0,200.0 L 72.0,200.0 L 60.0,195.0 L 54.0,190.0 L 49.0,180.0 L 44.0,165.0 L 37.0,140.0 L 37.0,123.0 L 42.0,113.0 L 47.0,108.0 L 51.0,105.0 L 48.0,81.0 L 45.0,61.0 L 40.0,29.0 L 40.0,22.0 L 44.0,15.0 L 50.0,11.0 L 60.0,11.0 L 66.0,15.0 L 71.0,21.0 L 74.0,35.0 L 78.0,57.0 L 81.0,18.0 L 86.0,8.0 L 93.0,4.0" fill="#080808"/>
	<path d="M 99.0,106.0 L 114.0,106.0 L 119.0,110.0 L 120.0,112.0 L 120.0,120.0 L 114.0,125.0 L 99.0,129.0 L 76.0,134.0 L 75.0,135.0 L 76.0,142.0 L 81.0,151.0 L 86.0,150.0 L 85.0,144.0 L 84.0,140.0 L 89.0,141.0 L 95.0,145.0 L 101.0,152.0 L 104.0,158.0 L 106.0,169.0 L 107.0,170.0 L 112.0,170.0 L 112.0,160.0 L 107.0,148.0 L 98.0,138.0 L 99.0,136.0 L 116.0,132.0 L 124.0,127.0 L 127.0,121.0 L 128.0,117.0 L 133.0,119.0 L 145.0,119.0 L 151.0,115.0 L 154.0,109.0 L 156.0,109.0 L 157.0,131.0 L 157.0,170.0 L 152.0,180.0 L 144.0,187.0 L 134.0,191.0 L 102.0,192.0 L 73.0,192.0 L 63.0,187.0 L 58.0,181.0 L 46.0,143.0 L 45.0,139.0 L 45.0,124.0 L 50.0,116.0 L 55.0,112.0 L 60.0,110.0 L 92.0,107.0 L 99.0,106.0" fill="#FBFBFB"/>
	<path d="M 95.0,12.0 L 102.0,13.0 L 105.0,16.0 L 105.0,57.0 L 101.0,64.0 L 100.0,99.0 L 71.0,102.0 L 59.0,102.0 L 57.0,85.0 L 55.0,73.0 L 52.0,52.0 L 50.0,40.0 L 49.0,32.0 L 49.0,21.0 L 52.0,19.0 L 58.0,19.0 L 63.0,23.0 L 65.0,29.0 L 73.0,73.0 L 76.0,92.0 L 78.0,95.0 L 83.0,94.0 L 89.0,20.0 L 92.0,14.0 L 95.0,12.0" fill="#F8F8F8"/>
	<path d="M 136.0,71.0 L 143.0,71.0 L 147.0,75.0 L 147.0,108.0 L 143.0,112.0 L 135.0,112.0 L 131.0,107.0 L 131.0,77.0 L 136.0,71.0" fill="#F7F7F7"/>
	<path d="M 113.0,60.0 L 120.0,61.0 L 123.0,64.0 L 123.0,102.0 L 116.0,99.0 L 108.0,98.0 L 108.0,65.0 L 113.0,60.0" fill="#F7F7F7"/>
</svg>
