<?xml version="1.0" ?>
<svg baseProfile="full" height="600px" version="1.1" viewBox="-20.1 -20.1 240.2 240.2" width="600px" xmlns="http://www.w3.org/2000/svg" xmlns:ev="http://www.w3.org/2001/xml-events" xmlns:xlink="http://www.w3.org/1999/xlink">
	<defs/>
	<path d="M 0.0,0.0 L 200.0,0.0 L 200.0,200.0 L 0.0,200.0 L 0.0,0.0" fill="#FCFCFC"/>
	<path d="M 56.0,46.0 L 74.0,46.0 L 83.0,49.0 L 90.0,55.0 L 92.0,60.0 L 135.0,57.0 L 166.0,55.0 L 180.0,55.0 L 187.0,59.0 L 191.0,66.0 L 191.0,73.0 L 187.0,81.0 L 185.0,83.0 L 195.0,88.0 L 199.0,94.0 L 199.0,105.0 L 195.0,111.0 L 189.0,115.0 L 178.0,116.0 L 145.0,117.0 L 146.0,119.0 L 146.0,126.0 L 142.0,134.0 L 136.0,138.0 L 133.0,140.0 L 134.0,142.0 L 134.0,152.0 L 130.0,159.0 L 122.0,163.0 L 110.0,164.0 L 102.0,168.0 L 94.0,171.0 L 88.0,172.0 L 55.0,173.0 L 30.0,173.0 L 20.0,169.0 L 12.0,163.0 L 5.0,154.0 L 2.0,146.0 L 1.0,140.0 L 1.0,79.0 L 4.0,70.0 L 12.0,61.0 L 24.0,56.0 L 40.0,51.0 L 56.0,46.0" fill="#090909"/>
	<path d="M 57.0,54.0 L 73.0,54.0 L 80.0,57.0 L 85.0,62.0 L 88.0,68.0 L 92.0,107.0 L 93.0,113.0 L 93.0,121.0 L 90.0,126.0 L 87.0,128.0 L 79.0,128.0 L 74.0,123.0 L 72.0,118.0 L 66.0,92.0 L 63.0,83.0 L 58.0,84.0 L 48.0,91.0 L 48.0,96.0 L 54.0,96.0 L 57.0,93.0 L 59.0,93.0 L 58.0,98.0 L 52.0,105.0 L 42.0,111.0 L 30.0,115.0 L 30.0,120.0 L 37.0,120.0 L 50.0,115.0 L 59.0,108.0 L 62.0,106.0 L 67.0,125.0 L 71.0,131.0 L 77.0,135.0 L 81.0,137.0 L 77.0,144.0 L 77.0,151.0 L 81.0,159.0 L 87.0,163.0 L 87.0,164.0 L 60.0,165.0 L 31.0,165.0 L 19.0,159.0 L 12.0,150.0 L 10.0,145.0 L 9.0,131.0 L 9.0,79.0 L 13.0,71.0 L 18.0,67.0 L 29.0,63.0 L 57.0,54.0" fill="#FBFBFB"/>
	<path d="M 172.0,63.0 L 179.0,63.0 L 182.0,65.0 L 182.0,74.0 L 179.0,77.0 L 175.0,79.0 L 124.0,83.0 L 105.0,85.0 L 104.0,91.0 L 186.0,92.0 L 191.0,96.0 L 191.0,104.0 L 187.0,107.0 L 176.0,108.0 L 152.0,109.0 L 136.0,109.0 L 133.0,108.0 L 99.0,108.0 L 96.0,76.0 L 96.0,68.0 L 104.0,67.0 L 141.0,65.0 L 172.0,63.0" fill="#FAFAFA"/>
	<path d="M 89.0,140.0 L 122.0,140.0 L 126.0,144.0 L 126.0,151.0 L 121.0,155.0 L 108.0,156.0 L 90.0,156.0 L 85.0,152.0 L 84.0,145.0 L 89.0,140.0" fill="#F8F8F8"/>
	<path d="M 101.0,116.0 L 134.0,116.0 L 138.0,121.0 L 137.0,127.0 L 132.0,131.0 L 95.0,132.0 L 100.0,123.0 L 101.0,116.0" fill="#FBFBFB"/>
</svg>
