<?xml version="1.0" ?>
<svg baseProfile="full" height="600px" version="1.1" viewBox="-19.296000000000003 -19.296000000000003 230.592 230.592" width="600px" xmlns="http://www.w3.org/2000/svg" xmlns:ev="http://www.w3.org/2001/xml-events" xmlns:xlink="http://www.w3.org/1999/xlink">
	<defs/>
	<path d="M 0.0,0.0 L 192.0,0.0 L 192.0,192.0 L 0.0,192.0 L 0.0,0.0" fill="#FFFEFD"/>
	<path d="M 88.0,16.0 L 97.0,16.0 L 102.0,19.0 L 105.0,24.0 L 106.0,37.0 L 108.0,88.0 L 111.0,81.0 L 116.0,78.0 L 123.0,78.0 L 129.0,81.0 L 133.0,88.0 L 138.0,83.0 L 140.0,82.0 L 147.0,82.0 L 153.0,85.0 L 156.0,90.0 L 156.0,144.0 L 152.0,157.0 L 145.0,166.0 L 136.0,172.0 L 126.0,176.0 L 87.0,176.0 L 77.0,174.0 L 68.0,169.0 L 58.0,160.0 L 48.0,149.0 L 41.0,139.0 L 39.0,134.0 L 39.0,125.0 L 43.0,119.0 L 59.0,104.0 L 57.0,88.0 L 50.0,47.0 L 50.0,38.0 L 54.0,32.0 L 58.0,30.0 L 65.0,30.0 L 71.0,34.0 L 74.0,39.0 L 81.0,76.0 L 82.0,79.0 L 81.0,42.0 L 81.0,23.0 L 85.0,18.0 L 88.0,16.0" fill="#FECB7F"/>
	<path d="M 88.0,16.0 L 97.0,16.0 L 102.0,19.0 L 105.0,24.0 L 106.0,37.0 L 108.0,88.0 L 111.0,81.0 L 116.0,78.0 L 123.0,78.0 L 129.0,81.0 L 133.0,88.0 L 138.0,83.0 L 140.0,82.0 L 147.0,82.0 L 153.0,85.0 L 156.0,90.0 L 156.0,117.0 L 153.0,122.0 L 150.0,125.0 L 142.0,126.0 L 136.0,123.0 L 132.0,118.0 L 126.0,125.0 L 118.0,126.0 L 112.0,123.0 L 111.0,118.0 L 111.0,109.0 L 108.0,103.0 L 101.0,99.0 L 98.0,98.0 L 71.0,98.0 L 64.0,101.0 L 61.0,101.0 L 60.0,103.0 L 56.0,83.0 L 50.0,47.0 L 50.0,38.0 L 54.0,32.0 L 58.0,30.0 L 65.0,30.0 L 71.0,34.0 L 74.0,39.0 L 81.0,76.0 L 82.0,79.0 L 81.0,42.0 L 81.0,23.0 L 85.0,18.0 L 88.0,16.0" fill="#FECB80"/>
	<path d="M 105.0,128.0 L 115.0,133.0 L 124.0,133.0 L 132.0,130.0 L 139.0,133.0 L 148.0,133.0 L 156.0,130.0 L 156.0,144.0 L 152.0,157.0 L 145.0,166.0 L 136.0,172.0 L 126.0,176.0 L 112.0,176.0 L 111.0,163.0 L 105.0,147.0 L 97.0,136.0 L 95.0,133.0 L 105.0,128.0" fill="#FECB7F"/>
	<path d="M 71.0,97.0 L 98.0,97.0 L 107.0,101.0 L 111.0,106.0 L 112.0,109.0 L 112.0,122.0 L 118.0,125.0 L 126.0,124.0 L 130.0,119.0 L 132.0,117.0 L 137.0,123.0 L 142.0,125.0 L 150.0,124.0 L 154.0,120.0 L 156.0,117.0 L 156.0,130.0 L 148.0,134.0 L 139.0,134.0 L 131.0,131.0 L 124.0,134.0 L 115.0,134.0 L 107.0,130.0 L 105.0,129.0 L 96.0,134.0 L 105.0,145.0 L 110.0,157.0 L 112.0,163.0 L 112.0,176.0 L 104.0,176.0 L 102.0,163.0 L 99.0,154.0 L 93.0,144.0 L 90.0,141.0 L 90.0,139.0 L 88.0,139.0 L 88.0,137.0 L 84.0,135.0 L 76.0,129.0 L 73.0,126.0 L 75.0,124.0 L 96.0,124.0 L 101.0,120.0 L 103.0,115.0 L 102.0,107.0 L 96.0,102.0 L 84.0,101.0 L 64.0,101.0 L 65.0,99.0 L 71.0,97.0" fill="#F2A96C"/>
	<path d="M 115.0,110.0 L 126.0,110.0 L 128.0,112.0 L 128.0,117.0 L 123.0,122.0 L 117.0,122.0 L 113.0,118.0 L 112.0,112.0 L 115.0,110.0" fill="#FEE8E7"/>
	<path d="M 139.0,110.0 L 148.0,110.0 L 152.0,112.0 L 151.0,118.0 L 147.0,122.0 L 141.0,122.0 L 137.0,119.0 L 136.0,112.0 L 139.0,110.0" fill="#FEE9E8"/>
	<path d="M 82.0,67.0 L 83.0,67.0 L 83.0,84.0 L 82.0,84.0 L 80.0,73.0 L 82.0,73.0 L 82.0,67.0" fill="#FFF5E6"/>
</svg>
