<?xml version="1.0" ?>
<svg baseProfile="full" height="600px" version="1.1" viewBox="-19.296000000000003 -19.296000000000003 230.592 230.592" width="600px" xmlns="http://www.w3.org/2000/svg" xmlns:ev="http://www.w3.org/2001/xml-events" xmlns:xlink="http://www.w3.org/1999/xlink">
	<defs/>
	<path d="M 0.0,0.0 L 192.0,0.0 L 192.0,192.0 L 0.0,192.0 L 0.0,0.0" fill="#FEFEFD"/>
	<path d="M 57.0,36.0 L 67.0,36.0 L 72.0,39.0 L 88.0,55.0 L 104.0,51.0 L 135.0,43.0 L 144.0,40.0 L 153.0,40.0 L 159.0,45.0 L 161.0,48.0 L 161.0,55.0 L 157.0,61.0 L 148.0,65.0 L 107.0,79.0 L 102.0,80.0 L 166.0,83.0 L 172.0,86.0 L 175.0,91.0 L 175.0,99.0 L 172.0,104.0 L 167.0,107.0 L 140.0,107.0 L 119.0,106.0 L 107.0,106.0 L 111.0,111.0 L 111.0,121.0 L 107.0,126.0 L 102.0,129.0 L 107.0,134.0 L 108.0,142.0 L 105.0,148.0 L 99.0,152.0 L 45.0,152.0 L 35.0,148.0 L 26.0,141.0 L 20.0,132.0 L 16.0,121.0 L 16.0,80.0 L 21.0,68.0 L 29.0,58.0 L 37.0,50.0 L 49.0,41.0 L 57.0,36.0" fill="#FECB80"/>
	<path d="M 92.0,62.0 L 94.0,63.0 L 96.0,71.0 L 96.0,92.0 L 93.0,101.0 L 88.0,107.0 L 80.0,109.0 L 69.0,107.0 L 66.0,110.0 L 65.0,116.0 L 67.0,123.0 L 73.0,127.0 L 73.0,129.0 L 68.0,132.0 L 66.0,134.0 L 66.0,145.0 L 71.0,150.0 L 72.0,152.0 L 45.0,152.0 L 35.0,148.0 L 26.0,141.0 L 20.0,132.0 L 16.0,121.0 L 16.0,100.0 L 30.0,98.0 L 40.0,94.0 L 51.0,86.0 L 61.0,75.0 L 65.0,69.0 L 68.0,71.0 L 69.0,92.0 L 72.0,97.0 L 74.0,99.0 L 82.0,100.0 L 88.0,97.0 L 91.0,91.0 L 92.0,62.0" fill="#FECB80"/>
	<path d="M 92.0,62.0 L 94.0,63.0 L 96.0,71.0 L 96.0,92.0 L 93.0,101.0 L 88.0,107.0 L 80.0,109.0 L 69.0,107.0 L 66.0,110.0 L 65.0,116.0 L 67.0,123.0 L 73.0,127.0 L 73.0,129.0 L 68.0,132.0 L 66.0,134.0 L 66.0,145.0 L 71.0,150.0 L 72.0,152.0 L 60.0,152.0 L 57.0,146.0 L 56.0,136.0 L 59.0,127.0 L 57.0,124.0 L 56.0,119.0 L 56.0,112.0 L 60.0,103.0 L 62.0,99.0 L 59.0,91.0 L 51.0,98.0 L 43.0,103.0 L 33.0,107.0 L 28.0,108.0 L 16.0,108.0 L 16.0,100.0 L 30.0,98.0 L 40.0,94.0 L 51.0,86.0 L 61.0,75.0 L 65.0,69.0 L 68.0,71.0 L 69.0,92.0 L 72.0,97.0 L 74.0,99.0 L 82.0,100.0 L 88.0,97.0 L 91.0,91.0 L 92.0,62.0" fill="#F2A96C"/>
	<path d="M 73.0,132.0 L 78.0,132.0 L 80.0,134.0 L 80.0,145.0 L 78.0,148.0 L 73.0,148.0 L 68.0,142.0 L 69.0,136.0 L 73.0,132.0" fill="#FEE9E8"/>
	<path d="M 72.0,109.0 L 79.0,109.0 L 80.0,111.0 L 80.0,121.0 L 78.0,124.0 L 73.0,124.0 L 69.0,120.0 L 68.0,113.0 L 72.0,109.0" fill="#FEE9E9"/>
</svg>
