<?xml version="1.0" ?>
<svg baseProfile="full" height="600px" version="1.1" viewBox="-20.1 -20.1 240.2 240.2" width="600px" xmlns="http://www.w3.org/2000/svg" xmlns:ev="http://www.w3.org/2001/xml-events" xmlns:xlink="http://www.w3.org/1999/xlink">
	<defs/>
	<path d="M 0.0,0.0 L 200.0,0.0 L 200.0,200.0 L 0.0,200.0 L 0.0,0.0" fill="#FCFCFC"/>
	<path d="M 88.0,60.0 L 101.0,60.0 L 112.0,63.0 L 122.0,69.0 L 130.0,78.0 L 134.0,86.0 L 136.0,92.0 L 136.0,106.0 L 133.0,116.0 L 127.0,126.0 L 118.0,134.0 L 114.0,136.0 L 109.0,136.0 L 107.0,134.0 L 108.0,130.0 L 119.0,122.0 L 125.0,112.0 L 127.0,105.0 L 127.0,93.0 L 121.0,81.0 L 116.0,76.0 L 108.0,71.0 L 102.0,69.0 L 89.0,69.0 L 80.0,73.0 L 72.0,79.0 L 68.0,84.0 L 63.0,83.0 L 62.0,78.0 L 71.0,68.0 L 79.0,63.0 L 88.0,60.0" fill="#070707"/>
	<path d="M 34.0,116.0 L 99.0,116.0 L 102.0,118.0 L 101.0,123.0 L 100.0,124.0 L 34.0,124.0 L 32.0,122.0 L 33.0,117.0 L 34.0,116.0" fill="#080808"/>
	<path d="M 26.0,140.0 L 91.0,140.0 L 93.0,142.0 L 92.0,147.0 L 91.0,148.0 L 26.0,148.0 L 24.0,146.0 L 25.0,141.0 L 26.0,140.0" fill="#070707"/>
	<path d="M 30.0,92.0 L 90.0,92.0 L 92.0,94.0 L 91.0,99.0 L 90.0,100.0 L 29.0,100.0 L 28.0,99.0 L 28.0,94.0 L 30.0,92.0" fill="#070707"/>
	<path d="M 98.0,16.0 L 103.0,17.0 L 104.0,18.0 L 104.0,32.0 L 103.0,46.0 L 101.0,48.0 L 96.0,47.0 L 95.0,46.0 L 95.0,31.0 L 96.0,18.0 L 98.0,16.0" fill="#080808"/>
	<path d="M 131.0,138.0 L 136.0,138.0 L 143.0,145.0 L 150.0,153.0 L 154.0,158.0 L 153.0,162.0 L 152.0,163.0 L 147.0,163.0 L 133.0,148.0 L 130.0,144.0 L 130.0,139.0 L 131.0,138.0" fill="#090909"/>
	<path d="M 154.0,42.0 L 158.0,43.0 L 159.0,44.0 L 159.0,49.0 L 144.0,63.0 L 140.0,66.0 L 135.0,66.0 L 134.0,65.0 L 134.0,60.0 L 141.0,53.0 L 149.0,46.0 L 154.0,42.0" fill="#090909"/>
	<path d="M 40.0,37.0 L 45.0,37.0 L 58.0,51.0 L 62.0,56.0 L 62.0,61.0 L 61.0,62.0 L 56.0,62.0 L 48.0,54.0 L 41.0,46.0 L 38.0,42.0 L 39.0,38.0 L 40.0,37.0" fill="#090909"/>
	<path d="M 91.0,152.0 L 96.0,153.0 L 97.0,154.0 L 97.0,169.0 L 96.0,182.0 L 94.0,184.0 L 89.0,183.0 L 88.0,182.0 L 88.0,170.0 L 89.0,154.0 L 91.0,152.0" fill="#070707"/>
	<path d="M 150.0,99.0 L 164.0,99.0 L 178.0,100.0 L 180.0,102.0 L 179.0,107.0 L 178.0,108.0 L 165.0,108.0 L 150.0,107.0 L 148.0,105.0 L 149.0,100.0 L 150.0,99.0" fill="#070707"/>
</svg>
