<?xml version="1.0" ?>
<svg baseProfile="full" height="600px" version="1.1" viewBox="-20.1 -20.1 240.2 240.2" width="600px" xmlns="http://www.w3.org/2000/svg" xmlns:ev="http://www.w3.org/2001/xml-events" xmlns:xlink="http://www.w3.org/1999/xlink">
	<defs/>
	<path d="M 0.0,0.0 L 200.0,0.0 L 200.0,200.0 L 0.0,200.0 L 0.0,0.0" fill="#FCFCFC"/>
	<path d="M 88.0,60.0 L 101.0,60.0 L 112.0,63.0 L 122.0,69.0 L 130.0,78.0 L 134.0,86.0 L 136.0,92.0 L 136.0,106.0 L 133.0,116.0 L 127.0,126.0 L 118.0,134.0 L 114.0,136.0 L 109.0,136.0 L 107.0,134.0 L 108.0,130.0 L 119.0,122.0 L 125.0,112.0 L 127.0,105.0 L 127.0,93.0 L 121.0,81.0 L 116.0,76.0 L 108.0,71.0 L 102.0,69.0 L 89.0,69.0 L 80.0,73.0 L 72.0,79.0 L 68.0,84.0 L 63.0,83.0 L 62.0,78.0 L 71.0,68.0 L 79.0,63.0 L 88.0,60.0" fill="#070707"/>
	<path d="M 26.0,140.0 L 93.0,140.0 L 96.0,142.0 L 95.0,147.0 L 94.0,148.0 L 26.0,148.0 L 24.0,146.0 L 25.0,141.0 L 26.0,140.0" fill="#070707"/>
	<path d="M 38.0,116.0 L 103.0,116.0 L 105.0,118.0 L 105.0,123.0 L 104.0,124.0 L 38.0,124.0 L 36.0,122.0 L 37.0,117.0 L 38.0,116.0" fill="#070707"/>
	<path d="M 19.0,92.0 L 82.0,92.0 L 84.0,94.0 L 83.0,99.0 L 82.0,100.0 L 18.0,100.0 L 17.0,99.0 L 17.0,94.0 L 19.0,92.0" fill="#070707"/>
	<path d="M 133.0,136.0 L 138.0,137.0 L 156.0,155.0 L 155.0,160.0 L 154.0,161.0 L 149.0,161.0 L 142.0,154.0 L 135.0,146.0 L 131.0,142.0 L 132.0,137.0 L 133.0,136.0" fill="#0A0A0A"/>
	<path d="M 152.0,40.0 L 156.0,41.0 L 157.0,42.0 L 157.0,47.0 L 149.0,55.0 L 141.0,62.0 L 138.0,65.0 L 133.0,64.0 L 132.0,59.0 L 150.0,41.0 L 152.0,40.0" fill="#0A0A0A"/>
	<path d="M 38.0,39.0 L 43.0,39.0 L 50.0,46.0 L 57.0,54.0 L 61.0,58.0 L 60.0,63.0 L 55.0,64.0 L 36.0,45.0 L 37.0,40.0 L 38.0,39.0" fill="#090909"/>
	<path d="M 93.0,152.0 L 98.0,153.0 L 99.0,154.0 L 99.0,182.0 L 97.0,184.0 L 92.0,183.0 L 91.0,182.0 L 91.0,154.0 L 93.0,152.0" fill="#060606"/>
	<path d="M 150.0,97.0 L 178.0,97.0 L 180.0,99.0 L 179.0,104.0 L 178.0,105.0 L 150.0,105.0 L 148.0,103.0 L 149.0,98.0 L 150.0,97.0" fill="#050505"/>
	<path d="M 95.0,16.0 L 100.0,17.0 L 101.0,18.0 L 101.0,46.0 L 99.0,48.0 L 94.0,47.0 L 93.0,46.0 L 93.0,18.0 L 95.0,16.0" fill="#050505"/>
</svg>
