<?xml version="1.0" ?>
<svg baseProfile="full" height="600px" version="1.1" viewBox="-20.1 -20.1 240.2 240.2" width="600px" xmlns="http://www.w3.org/2000/svg" xmlns:ev="http://www.w3.org/2001/xml-events" xmlns:xlink="http://www.w3.org/1999/xlink">
	<defs/>
	<path d="M 0.0,0.0 L 200.0,0.0 L 200.0,200.0 L 0.0,200.0 L 0.0,0.0" fill="#FCFCFC"/>
	<path d="M 88.0,60.0 L 101.0,60.0 L 112.0,63.0 L 122.0,69.0 L 130.0,78.0 L 134.0,86.0 L 136.0,92.0 L 136.0,106.0 L 133.0,116.0 L 127.0,126.0 L 118.0,134.0 L 114.0,136.0 L 109.0,136.0 L 107.0,134.0 L 108.0,130.0 L 119.0,122.0 L 125.0,112.0 L 127.0,105.0 L 127.0,93.0 L 121.0,81.0 L 116.0,76.0 L 108.0,71.0 L 102.0,69.0 L 89.0,69.0 L 80.0,73.0 L 72.0,79.0 L 68.0,84.0 L 63.0,83.0 L 62.0,78.0 L 71.0,68.0 L 79.0,63.0 L 88.0,60.0" fill="#070707"/>
	<path d="M 14.0,92.0 L 80.0,92.0 L 82.0,94.0 L 82.0,99.0 L 81.0,100.0 L 14.0,100.0 L 12.0,98.0 L 13.0,93.0 L 14.0,92.0" fill="#070707"/>
	<path d="M 23.0,140.0 L 87.0,140.0 L 89.0,142.0 L 89.0,147.0 L 88.0,148.0 L 23.0,148.0 L 21.0,146.0 L 22.0,141.0 L 23.0,140.0" fill="#070707"/>
	<path d="M 44.0,116.0 L 106.0,116.0 L 108.0,118.0 L 107.0,123.0 L 106.0,124.0 L 44.0,124.0 L 42.0,122.0 L 43.0,117.0 L 44.0,116.0" fill="#080808"/>
	<path d="M 151.0,94.0 L 178.0,94.0 L 180.0,96.0 L 179.0,101.0 L 178.0,102.0 L 149.0,102.0 L 148.0,101.0 L 148.0,96.0 L 151.0,94.0" fill="#0A0A0A"/>
	<path d="M 149.0,38.0 L 154.0,39.0 L 155.0,44.0 L 143.0,57.0 L 137.0,63.0 L 132.0,63.0 L 131.0,62.0 L 131.0,57.0 L 145.0,42.0 L 149.0,38.0" fill="#080808"/>
	<path d="M 95.0,152.0 L 101.0,153.0 L 102.0,155.0 L 102.0,182.0 L 100.0,184.0 L 95.0,183.0 L 94.0,182.0 L 94.0,153.0 L 95.0,152.0" fill="#0A0A0A"/>
	<path d="M 134.0,135.0 L 139.0,135.0 L 155.0,150.0 L 158.0,153.0 L 157.0,158.0 L 152.0,159.0 L 139.0,147.0 L 133.0,141.0 L 133.0,136.0 L 134.0,135.0" fill="#080808"/>
	<path d="M 36.0,41.0 L 41.0,42.0 L 53.0,53.0 L 59.0,59.0 L 59.0,64.0 L 58.0,65.0 L 53.0,65.0 L 37.0,50.0 L 34.0,47.0 L 35.0,42.0 L 36.0,41.0" fill="#080808"/>
	<path d="M 92.0,16.0 L 97.0,17.0 L 98.0,18.0 L 98.0,47.0 L 93.0,48.0 L 90.0,45.0 L 90.0,18.0 L 92.0,16.0" fill="#0A0A0A"/>
</svg>
