<?xml version="1.0" ?>
<svg baseProfile="full" height="600px" version="1.1" viewBox="-12.06 -12.06 144.12 144.12" width="600px" xmlns="http://www.w3.org/2000/svg" xmlns:ev="http://www.w3.org/2001/xml-events" xmlns:xlink="http://www.w3.org/1999/xlink">
	<defs/>
	<path d="M 0.0,0.0 L 120.0,0.0 L 120.0,120.0 L 0.0,120.0 L 0.0,0.0" fill="#FCFCFC"/>
	<path d="M 54.0,32.0 L 65.0,32.0 L 74.0,35.0 L 83.0,43.0 L 88.0,53.0 L 88.0,65.0 L 85.0,74.0 L 81.0,79.0 L 79.0,80.0 L 31.0,80.0 L 29.0,79.0 L 29.0,73.0 L 31.0,72.0 L 65.0,71.0 L 66.0,66.0 L 65.0,65.0 L 9.0,64.0 L 7.0,62.0 L 8.0,57.0 L 9.0,56.0 L 32.0,56.0 L 35.0,46.0 L 43.0,37.0 L 51.0,33.0 L 54.0,32.0" fill="#030303"/>
	<path d="M 16.0,88.0 L 64.0,88.0 L 66.0,90.0 L 65.0,95.0 L 64.0,96.0 L 16.0,96.0 L 14.0,94.0 L 15.0,89.0 L 16.0,88.0" fill="#020202"/>
	<path d="M 86.0,84.0 L 92.0,84.0 L 102.0,94.0 L 101.0,99.0 L 96.0,100.0 L 86.0,91.0 L 85.0,85.0 L 86.0,84.0" fill="#0E0E0E"/>
	<path d="M 20.0,20.0 L 25.0,21.0 L 34.0,29.0 L 35.0,35.0 L 34.0,36.0 L 28.0,36.0 L 18.0,26.0 L 19.0,21.0 L 20.0,20.0" fill="#0C0C0C"/>
	<path d="M 98.0,55.0 L 115.0,55.0 L 116.0,61.0 L 113.0,63.0 L 98.0,63.0 L 96.0,61.0 L 97.0,56.0 L 98.0,55.0" fill="#0A0A0A"/>
	<path d="M 94.0,18.0 L 99.0,19.0 L 100.0,24.0 L 91.0,34.0 L 85.0,35.0 L 84.0,34.0 L 84.0,28.0 L 94.0,18.0" fill="#0B0B0B"/>
	<path d="M 56.0,4.0 L 62.0,5.0 L 63.0,7.0 L 63.0,22.0 L 61.0,24.0 L 56.0,23.0 L 55.0,22.0 L 55.0,5.0 L 56.0,4.0" fill="#0B0B0B"/>
	<path d="M 57.0,104.0 L 65.0,104.0 L 65.0,115.0 L 59.0,116.0 L 57.0,114.0 L 57.0,104.0" fill="#0E0E0E"/>
</svg>
