<?xml version="1.0" ?>
<svg baseProfile="full" height="600px" version="1.1" viewBox="-12.864 -12.864 153.728 153.728" width="600px" xmlns="http://www.w3.org/2000/svg" xmlns:ev="http://www.w3.org/2001/xml-events" xmlns:xlink="http://www.w3.org/1999/xlink">
	<defs/>
	<path d="M 0.0,0.0 L 128.0,0.0 L 128.0,128.0 L 0.0,128.0 L 0.0,0.0" fill="#FCFCFC"/>
	<path d="M 59.0,36.0 L 69.0,36.0 L 78.0,39.0 L 87.0,47.0 L 92.0,57.0 L 92.0,70.0 L 88.0,79.0 L 81.0,87.0 L 73.0,91.0 L 70.0,92.0 L 56.0,92.0 L 56.0,84.0 L 69.0,83.0 L 78.0,78.0 L 83.0,69.0 L 83.0,59.0 L 79.0,51.0 L 74.0,47.0 L 68.0,45.0 L 59.0,45.0 L 51.0,49.0 L 49.0,51.0 L 53.0,52.0 L 53.0,60.0 L 11.0,60.0 L 11.0,52.0 L 39.0,52.0 L 41.0,47.0 L 50.0,39.0 L 59.0,36.0" fill="#060606"/>
	<path d="M 31.0,68.0 L 71.0,68.0 L 71.0,76.0 L 31.0,76.0 L 31.0,68.0" fill="#030303"/>
	<path d="M 11.0,84.0 L 47.0,84.0 L 47.0,92.0 L 11.0,92.0 L 11.0,84.0" fill="#000000"/>
	<path d="M 95.0,23.0 L 99.0,25.0 L 102.0,29.0 L 89.0,43.0 L 83.0,39.0 L 85.0,35.0 L 92.0,27.0 L 95.0,23.0" fill="#0A0A0A"/>
	<path d="M 89.0,83.0 L 93.0,85.0 L 101.0,92.0 L 105.0,97.0 L 99.0,102.0 L 85.0,89.0 L 89.0,83.0" fill="#090909"/>
	<path d="M 28.0,26.0 L 36.0,32.0 L 43.0,39.0 L 39.0,45.0 L 35.0,43.0 L 27.0,36.0 L 23.0,31.0 L 28.0,26.0" fill="#090909"/>
	<path d="M 62.0,96.0 L 70.0,96.0 L 70.0,116.0 L 62.0,116.0 L 62.0,96.0" fill="#080808"/>
	<path d="M 96.0,58.0 L 116.0,58.0 L 116.0,66.0 L 96.0,66.0 L 96.0,58.0" fill="#070707"/>
	<path d="M 58.0,12.0 L 66.0,12.0 L 66.0,32.0 L 58.0,32.0 L 58.0,12.0" fill="#070707"/>
</svg>
