<?xml version="1.0" ?>
<svg baseProfile="full" height="600px" version="1.1" viewBox="-16.08 -16.08 192.16 192.16" width="600px" xmlns="http://www.w3.org/2000/svg" xmlns:ev="http://www.w3.org/2001/xml-events" xmlns:xlink="http://www.w3.org/1999/xlink">
	<defs/>
	<path d="M 0.0,0.0 L 160.0,0.0 L 160.0,160.0 L 0.0,160.0 L 0.0,0.0" fill="#FCEBA0"/>
	<path d="M 0.0,0.0 L 160.0,0.0 L 160.0,160.0 L 0.0,160.0 L 0.0,0.0 M 61.0,7.0 L 56.0,28.0 L 50.0,31.0 L 42.0,30.0 L 31.0,26.0 L 28.0,26.0 L 30.0,35.0 L 33.0,47.0 L 29.0,54.0 L 8.0,58.0 L 8.0,61.0 L 16.0,68.0 L 19.0,71.0 L 21.0,71.0 L 18.0,76.0 L 16.0,80.0 L 17.0,87.0 L 18.0,89.0 L 14.0,91.0 L 6.0,98.0 L 6.0,99.0 L 24.0,103.0 L 10.0,104.0 L 5.0,109.0 L 4.0,117.0 L 7.0,122.0 L 10.0,124.0 L 24.0,125.0 L 23.0,132.0 L 24.0,135.0 L 13.0,136.0 L 8.0,140.0 L 7.0,142.0 L 7.0,150.0 L 11.0,155.0 L 13.0,156.0 L 105.0,156.0 L 110.0,153.0 L 112.0,150.0 L 112.0,141.0 L 109.0,138.0 L 110.0,128.0 L 129.0,134.0 L 132.0,134.0 L 131.0,127.0 L 127.0,113.0 L 131.0,106.0 L 152.0,101.0 L 146.0,94.0 L 138.0,87.0 L 138.0,76.0 L 149.0,66.0 L 153.0,63.0 L 153.0,61.0 L 136.0,57.0 L 132.0,57.0 L 130.0,52.0 L 129.0,45.0 L 134.0,30.0 L 134.0,28.0 L 127.0,29.0 L 115.0,33.0 L 110.0,31.0 L 106.0,29.0 L 101.0,8.0 L 94.0,14.0 L 87.0,22.0 L 76.0,22.0 L 66.0,11.0 L 63.0,7.0 L 61.0,7.0" fill="#FDFDFD"/>
	<path d="M 25.0,76.0 L 82.0,76.0 L 86.0,80.0 L 85.0,86.0 L 82.0,88.0 L 67.0,88.0 L 67.0,92.0 L 93.0,92.0 L 97.0,96.0 L 96.0,102.0 L 93.0,104.0 L 82.0,104.0 L 82.0,108.0 L 89.0,108.0 L 93.0,111.0 L 92.0,118.0 L 89.0,120.0 L 72.0,120.0 L 72.0,124.0 L 102.0,124.0 L 106.0,128.0 L 105.0,134.0 L 102.0,136.0 L 94.0,136.0 L 94.0,140.0 L 104.0,140.0 L 108.0,143.0 L 108.0,149.0 L 105.0,152.0 L 14.0,152.0 L 11.0,149.0 L 11.0,143.0 L 15.0,140.0 L 39.0,140.0 L 39.0,136.0 L 31.0,136.0 L 27.0,132.0 L 28.0,127.0 L 31.0,124.0 L 39.0,124.0 L 39.0,120.0 L 12.0,120.0 L 8.0,116.0 L 8.0,111.0 L 11.0,108.0 L 43.0,108.0 L 43.0,104.0 L 36.0,104.0 L 33.0,101.0 L 33.0,95.0 L 37.0,92.0 L 43.0,92.0 L 43.0,88.0 L 24.0,88.0 L 21.0,85.0 L 21.0,78.0 L 25.0,76.0" fill="#E0E9F1"/>
	<path d="M 61.0,7.0 L 65.0,9.0 L 74.0,20.0 L 76.0,22.0 L 87.0,22.0 L 94.0,14.0 L 101.0,8.0 L 106.0,29.0 L 113.0,33.0 L 124.0,30.0 L 130.0,28.0 L 134.0,28.0 L 131.0,39.0 L 129.0,45.0 L 130.0,52.0 L 132.0,57.0 L 139.0,58.0 L 153.0,61.0 L 151.0,65.0 L 140.0,74.0 L 138.0,76.0 L 138.0,87.0 L 148.0,96.0 L 152.0,101.0 L 131.0,106.0 L 127.0,114.0 L 132.0,130.0 L 132.0,134.0 L 123.0,132.0 L 110.0,128.0 L 110.0,134.0 L 109.0,138.0 L 112.0,141.0 L 112.0,150.0 L 108.0,155.0 L 105.0,156.0 L 13.0,156.0 L 8.0,152.0 L 7.0,150.0 L 7.0,142.0 L 11.0,137.0 L 13.0,136.0 L 24.0,135.0 L 23.0,127.0 L 24.0,125.0 L 10.0,124.0 L 5.0,119.0 L 4.0,112.0 L 7.0,106.0 L 10.0,104.0 L 24.0,103.0 L 6.0,99.0 L 11.0,94.0 L 16.0,89.0 L 18.0,89.0 L 16.0,85.0 L 17.0,77.0 L 20.0,74.0 L 21.0,71.0 L 17.0,69.0 L 10.0,62.0 L 7.0,59.0 L 8.0,58.0 L 29.0,54.0 L 33.0,47.0 L 30.0,35.0 L 28.0,26.0 L 33.0,27.0 L 45.0,31.0 L 52.0,30.0 L 56.0,28.0 L 61.0,7.0 M 63.0,16.0 L 61.0,26.0 L 61.0,31.0 L 55.0,33.0 L 50.0,36.0 L 43.0,35.0 L 34.0,32.0 L 36.0,42.0 L 37.0,48.0 L 31.0,58.0 L 16.0,61.0 L 22.0,68.0 L 27.0,72.0 L 82.0,73.0 L 87.0,76.0 L 89.0,79.0 L 89.0,85.0 L 88.0,88.0 L 97.0,91.0 L 100.0,95.0 L 100.0,101.0 L 95.0,107.0 L 96.0,110.0 L 96.0,117.0 L 95.0,120.0 L 105.0,122.0 L 109.0,125.0 L 113.0,124.0 L 124.0,128.0 L 126.0,128.0 L 123.0,115.0 L 124.0,110.0 L 128.0,103.0 L 128.0,101.0 L 140.0,100.0 L 144.0,98.0 L 135.0,89.0 L 133.0,89.0 L 134.0,74.0 L 144.0,65.0 L 142.0,63.0 L 130.0,60.0 L 124.0,50.0 L 126.0,41.0 L 128.0,34.0 L 119.0,36.0 L 111.0,37.0 L 103.0,32.0 L 101.0,32.0 L 101.0,25.0 L 99.0,16.0 L 92.0,22.0 L 89.0,26.0 L 74.0,26.0 L 65.0,16.0 L 63.0,16.0 M 25.0,76.0 L 21.0,78.0 L 21.0,85.0 L 24.0,88.0 L 43.0,88.0 L 43.0,92.0 L 37.0,92.0 L 33.0,95.0 L 33.0,101.0 L 36.0,104.0 L 43.0,104.0 L 43.0,108.0 L 11.0,108.0 L 8.0,111.0 L 9.0,118.0 L 12.0,120.0 L 39.0,120.0 L 39.0,124.0 L 31.0,124.0 L 27.0,128.0 L 28.0,134.0 L 31.0,136.0 L 39.0,136.0 L 39.0,140.0 L 15.0,140.0 L 11.0,143.0 L 11.0,149.0 L 14.0,152.0 L 105.0,152.0 L 108.0,149.0 L 108.0,143.0 L 104.0,140.0 L 94.0,140.0 L 94.0,136.0 L 102.0,136.0 L 106.0,132.0 L 105.0,126.0 L 102.0,124.0 L 72.0,124.0 L 72.0,120.0 L 89.0,120.0 L 93.0,116.0 L 93.0,111.0 L 89.0,108.0 L 82.0,108.0 L 82.0,104.0 L 93.0,104.0 L 97.0,100.0 L 96.0,94.0 L 93.0,92.0 L 67.0,92.0 L 67.0,88.0 L 82.0,88.0 L 85.0,86.0 L 86.0,80.0 L 82.0,76.0 L 25.0,76.0" fill="#B2C2D4"/>
	<path d="M 72.0,40.0 L 87.0,40.0 L 99.0,44.0 L 108.0,51.0 L 114.0,58.0 L 118.0,67.0 L 120.0,73.0 L 120.0,84.0 L 118.0,94.0 L 112.0,105.0 L 105.0,112.0 L 97.0,116.0 L 95.0,107.0 L 100.0,101.0 L 100.0,95.0 L 96.0,90.0 L 88.0,88.0 L 89.0,79.0 L 85.0,74.0 L 82.0,73.0 L 44.0,72.0 L 41.0,71.0 L 44.0,62.0 L 50.0,53.0 L 58.0,46.0 L 66.0,42.0 L 72.0,40.0" fill="#F4CE86"/>
	<path d="M 25.0,76.0 L 82.0,76.0 L 86.0,80.0 L 85.0,86.0 L 82.0,88.0 L 67.0,88.0 L 67.0,92.0 L 93.0,92.0 L 97.0,96.0 L 96.0,102.0 L 93.0,104.0 L 82.0,104.0 L 82.0,108.0 L 89.0,108.0 L 93.0,111.0 L 92.0,118.0 L 89.0,120.0 L 72.0,120.0 L 59.0,115.0 L 53.0,111.0 L 53.0,109.0 L 51.0,109.0 L 51.0,107.0 L 49.0,107.0 L 46.0,102.0 L 42.0,94.0 L 43.0,88.0 L 24.0,88.0 L 21.0,85.0 L 21.0,78.0 L 25.0,76.0" fill="#EFF8FD"/>
	<path d="M 61.0,7.0 L 65.0,9.0 L 74.0,20.0 L 76.0,22.0 L 87.0,22.0 L 94.0,14.0 L 101.0,8.0 L 106.0,29.0 L 113.0,33.0 L 124.0,30.0 L 130.0,28.0 L 134.0,28.0 L 131.0,39.0 L 129.0,45.0 L 130.0,52.0 L 132.0,57.0 L 139.0,58.0 L 153.0,61.0 L 151.0,65.0 L 140.0,74.0 L 138.0,76.0 L 138.0,87.0 L 148.0,96.0 L 152.0,101.0 L 131.0,106.0 L 127.0,114.0 L 132.0,130.0 L 132.0,134.0 L 123.0,132.0 L 110.0,128.0 L 109.0,124.0 L 113.0,123.0 L 126.0,128.0 L 122.0,115.0 L 123.0,110.0 L 128.0,101.0 L 143.0,98.0 L 135.0,90.0 L 133.0,89.0 L 133.0,74.0 L 143.0,65.0 L 135.0,62.0 L 129.0,60.0 L 123.0,50.0 L 125.0,41.0 L 127.0,35.0 L 115.0,38.0 L 110.0,37.0 L 101.0,32.0 L 98.0,17.0 L 91.0,24.0 L 89.0,27.0 L 74.0,27.0 L 65.0,17.0 L 63.0,16.0 L 62.0,26.0 L 61.0,31.0 L 50.0,37.0 L 43.0,36.0 L 34.0,32.0 L 38.0,44.0 L 37.0,50.0 L 31.0,59.0 L 17.0,62.0 L 25.0,70.0 L 27.0,72.0 L 22.0,73.0 L 12.0,64.0 L 7.0,59.0 L 8.0,58.0 L 29.0,54.0 L 33.0,47.0 L 30.0,35.0 L 28.0,26.0 L 33.0,27.0 L 45.0,31.0 L 52.0,30.0 L 56.0,28.0 L 61.0,7.0" fill="#BEA151"/>
	<path d="M 25.0,76.0 L 40.0,76.0 L 41.0,88.0 L 24.0,88.0 L 21.0,85.0 L 21.0,78.0 L 25.0,76.0" fill="#E0E9F1"/>
	<path d="M 18.0,88.0 L 21.0,91.0 L 17.0,96.0 L 29.0,99.0 L 30.0,104.0 L 12.0,100.0 L 6.0,99.0 L 11.0,94.0 L 18.0,88.0" fill="#BEA153"/>
	<path d="M 20.0,91.0 L 30.0,92.0 L 29.0,99.0 L 22.0,98.0 L 16.0,96.0 L 20.0,91.0" fill="#FAE99F"/>
</svg>
