<?xml version="1.0" ?>
<svg baseProfile="full" height="600px" version="1.1" viewBox="-9.648000000000001 -9.648000000000001 115.296 115.296" width="600px" xmlns="http://www.w3.org/2000/svg" xmlns:ev="http://www.w3.org/2001/xml-events" xmlns:xlink="http://www.w3.org/1999/xlink">
	<defs/>
	<path d="M 0.0,0.0 L 96.0,0.0 L 96.0,96.0 L 0.0,96.0 L 0.0,0.0" fill="#FCFCFC"/>
	<path d="M 78.0,49.0 L 84.0,49.0 L 87.0,52.0 L 86.0,58.0 L 70.0,79.0 L 66.0,83.0 L 29.0,83.0 L 23.0,88.0 L 20.0,87.0 L 9.0,73.0 L 9.0,69.0 L 25.0,57.0 L 30.0,54.0 L 60.0,53.0 L 60.0,59.0 L 56.0,64.0 L 43.0,65.0 L 43.0,67.0 L 56.0,70.0 L 62.0,70.0 L 76.0,51.0 L 78.0,49.0" fill="#050505"/>
	<path d="M 53.0,16.0 L 59.0,16.0 L 63.0,17.0 L 65.0,16.0 L 71.0,16.0 L 75.0,20.0 L 75.0,26.0 L 68.0,35.0 L 63.0,39.0 L 58.0,37.0 L 50.0,28.0 L 49.0,26.0 L 49.0,20.0 L 53.0,16.0" fill="#060606"/>
</svg>
