<?xml version="1.0" ?>
<svg baseProfile="full" height="600px" version="1.1" viewBox="-20.1 -20.1 240.2 240.2" width="600px" xmlns="http://www.w3.org/2000/svg" xmlns:ev="http://www.w3.org/2001/xml-events" xmlns:xlink="http://www.w3.org/1999/xlink">
	<defs/>
	<path d="M 0.0,0.0 L 200.0,0.0 L 200.0,200.0 L 0.0,200.0 L 0.0,0.0" fill="#FCFCFC"/>
	<path d="M 180.0,104.0 L 189.0,104.0 L 196.0,108.0 L 200.0,114.0 L 200.0,200.0 L 0.0,200.0 L 0.0,154.0 L 13.0,142.0 L 24.0,133.0 L 34.0,124.0 L 45.0,116.0 L 51.0,113.0 L 56.0,112.0 L 121.0,112.0 L 128.0,116.0 L 132.0,122.0 L 132.0,130.0 L 128.0,138.0 L 121.0,142.0 L 100.0,146.0 L 136.0,146.0 L 176.0,106.0 L 180.0,104.0" fill="#070707"/>
	<path d="M 182.0,112.0 L 188.0,112.0 L 192.0,116.0 L 192.0,122.0 L 183.0,132.0 L 140.0,175.0 L 137.0,176.0 L 56.0,177.0 L 42.0,189.0 L 39.0,189.0 L 31.0,181.0 L 24.0,173.0 L 15.0,163.0 L 10.0,156.0 L 22.0,145.0 L 33.0,136.0 L 43.0,127.0 L 53.0,121.0 L 56.0,120.0 L 119.0,120.0 L 124.0,124.0 L 123.0,131.0 L 118.0,134.0 L 88.0,140.0 L 86.0,141.0 L 86.0,146.0 L 94.0,154.0 L 96.0,155.0 L 137.0,155.0 L 145.0,148.0 L 180.0,113.0 L 182.0,112.0" fill="#FBFBFB"/>
	<path d="M 98.0,12.0 L 108.0,12.0 L 118.0,17.0 L 124.0,24.0 L 126.0,27.0 L 131.0,26.0 L 135.0,20.0 L 141.0,15.0 L 147.0,12.0 L 157.0,12.0 L 166.0,16.0 L 173.0,23.0 L 176.0,30.0 L 176.0,41.0 L 170.0,52.0 L 159.0,64.0 L 154.0,69.0 L 145.0,78.0 L 131.0,89.0 L 127.0,91.0 L 114.0,80.0 L 106.0,73.0 L 96.0,64.0 L 86.0,52.0 L 80.0,40.0 L 80.0,30.0 L 84.0,22.0 L 93.0,14.0 L 98.0,12.0" fill="#FCFCFC"/>
	<path d="M 199.0,124.0 L 200.0,124.0 L 200.0,200.0 L 42.0,200.0 L 47.0,195.0 L 57.0,185.0 L 59.0,184.0 L 138.0,183.0 L 147.0,179.0 L 162.0,164.0 L 169.0,156.0 L 196.0,129.0 L 199.0,124.0" fill="#FCFCFC"/>
	<path d="M 97.0,4.0 L 109.0,4.0 L 119.0,8.0 L 127.0,15.0 L 131.0,13.0 L 137.0,8.0 L 146.0,4.0 L 159.0,4.0 L 169.0,8.0 L 178.0,16.0 L 183.0,26.0 L 184.0,29.0 L 184.0,41.0 L 179.0,53.0 L 170.0,65.0 L 162.0,74.0 L 154.0,81.0 L 141.0,92.0 L 131.0,99.0 L 125.0,99.0 L 113.0,90.0 L 102.0,81.0 L 93.0,73.0 L 86.0,65.0 L 77.0,53.0 L 72.0,41.0 L 72.0,29.0 L 76.0,19.0 L 84.0,10.0 L 94.0,5.0 L 97.0,4.0 M 98.0,12.0 L 90.0,16.0 L 83.0,23.0 L 80.0,30.0 L 80.0,40.0 L 86.0,52.0 L 98.0,66.0 L 112.0,79.0 L 126.0,90.0 L 130.0,90.0 L 143.0,79.0 L 151.0,72.0 L 158.0,66.0 L 165.0,58.0 L 173.0,47.0 L 176.0,41.0 L 176.0,30.0 L 172.0,22.0 L 165.0,15.0 L 157.0,12.0 L 147.0,12.0 L 138.0,17.0 L 132.0,24.0 L 130.0,27.0 L 125.0,26.0 L 119.0,18.0 L 111.0,13.0 L 108.0,12.0 L 98.0,12.0" fill="#070707"/>
	<path d="M 0.0,158.0 L 5.0,163.0 L 13.0,171.0 L 20.0,179.0 L 29.0,189.0 L 38.0,199.0 L 38.0,200.0 L 0.0,200.0 L 0.0,158.0" fill="#FBFBFB"/>
</svg>
