<?xml version="1.0" ?>
<svg baseProfile="full" height="600px" version="1.1" viewBox="-20.1 -20.1 240.2 240.2" width="600px" xmlns="http://www.w3.org/2000/svg" xmlns:ev="http://www.w3.org/2001/xml-events" xmlns:xlink="http://www.w3.org/1999/xlink">
	<defs/>
	<path d="M 0.0,0.0 L 200.0,0.0 L 200.0,200.0 L 0.0,200.0 L 0.0,0.0" fill="#FDFDFD"/>
	<path d="M 39.0,0.0 L 48.0,1.0 L 56.0,8.0 L 60.0,16.0 L 63.0,26.0 L 64.0,33.0 L 64.0,64.0 L 75.0,64.0 L 83.0,66.0 L 93.0,71.0 L 99.0,76.0 L 99.0,78.0 L 101.0,78.0 L 102.0,75.0 L 112.0,68.0 L 123.0,64.0 L 137.0,64.0 L 145.0,66.0 L 155.0,71.0 L 164.0,80.0 L 169.0,88.0 L 172.0,97.0 L 172.0,114.0 L 168.0,128.0 L 162.0,140.0 L 154.0,150.0 L 146.0,159.0 L 135.0,168.0 L 116.0,182.0 L 102.0,192.0 L 98.0,192.0 L 83.0,181.0 L 69.0,171.0 L 59.0,163.0 L 48.0,153.0 L 38.0,140.0 L 32.0,128.0 L 29.0,118.0 L 28.0,111.0 L 28.0,97.0 L 33.0,85.0 L 39.0,77.0 L 47.0,70.0 L 55.0,66.0 L 55.0,35.0 L 53.0,26.0 L 49.0,15.0 L 44.0,9.0 L 40.0,10.0 L 35.0,17.0 L 32.0,27.0 L 30.0,39.0 L 29.0,54.0 L 27.0,56.0 L 22.0,55.0 L 21.0,54.0 L 21.0,35.0 L 24.0,19.0 L 30.0,7.0 L 37.0,1.0 L 39.0,0.0" fill="#FCFCFC"/>
	<path d="M 39.0,0.0 L 48.0,1.0 L 56.0,8.0 L 60.0,16.0 L 63.0,26.0 L 64.0,33.0 L 64.0,64.0 L 75.0,64.0 L 83.0,66.0 L 93.0,71.0 L 99.0,76.0 L 99.0,78.0 L 101.0,78.0 L 102.0,75.0 L 112.0,68.0 L 123.0,64.0 L 137.0,64.0 L 145.0,66.0 L 155.0,71.0 L 164.0,80.0 L 169.0,88.0 L 172.0,97.0 L 172.0,114.0 L 168.0,128.0 L 162.0,140.0 L 154.0,150.0 L 146.0,159.0 L 135.0,168.0 L 116.0,182.0 L 102.0,192.0 L 98.0,192.0 L 83.0,181.0 L 69.0,171.0 L 59.0,163.0 L 48.0,153.0 L 38.0,140.0 L 32.0,128.0 L 29.0,118.0 L 28.0,111.0 L 28.0,97.0 L 33.0,85.0 L 39.0,77.0 L 47.0,70.0 L 55.0,66.0 L 55.0,35.0 L 53.0,26.0 L 49.0,15.0 L 44.0,9.0 L 40.0,10.0 L 35.0,17.0 L 32.0,27.0 L 30.0,39.0 L 29.0,54.0 L 27.0,56.0 L 22.0,55.0 L 21.0,54.0 L 21.0,35.0 L 24.0,19.0 L 30.0,7.0 L 37.0,1.0 L 39.0,0.0 M 62.0,72.0 L 53.0,76.0 L 45.0,82.0 L 39.0,91.0 L 36.0,100.0 L 36.0,112.0 L 39.0,124.0 L 45.0,136.0 L 54.0,147.0 L 64.0,157.0 L 81.0,170.0 L 98.0,182.0 L 103.0,181.0 L 123.0,167.0 L 139.0,154.0 L 149.0,144.0 L 156.0,134.0 L 161.0,124.0 L 164.0,113.0 L 164.0,100.0 L 161.0,91.0 L 155.0,82.0 L 147.0,76.0 L 140.0,73.0 L 135.0,72.0 L 124.0,72.0 L 114.0,76.0 L 104.0,85.0 L 101.0,90.0 L 99.0,90.0 L 93.0,82.0 L 86.0,76.0 L 74.0,72.0 L 62.0,72.0" fill="#080808"/>
	<path d="M 96.0,112.0 L 103.0,112.0 L 109.0,115.0 L 112.0,120.0 L 112.0,128.0 L 109.0,133.0 L 104.0,135.0 L 104.0,146.0 L 102.0,148.0 L 97.0,147.0 L 96.0,146.0 L 96.0,135.0 L 91.0,133.0 L 88.0,127.0 L 88.0,120.0 L 91.0,115.0 L 96.0,112.0" fill="#050505"/>
</svg>
