<?xml version="1.0" ?>
<svg baseProfile="full" height="600px" version="1.1" viewBox="-12.06 -12.06 144.12 144.12" width="600px" xmlns="http://www.w3.org/2000/svg" xmlns:ev="http://www.w3.org/2001/xml-events" xmlns:xlink="http://www.w3.org/1999/xlink">
	<defs/>
	<path d="M 0.0,0.0 L 120.0,0.0 L 120.0,120.0 L 0.0,120.0 L 0.0,0.0" fill="#FCFCFC"/>
	<path d="M 29.0,55.0 L 38.0,56.0 L 73.0,72.0 L 76.0,75.0 L 76.0,80.0 L 73.0,83.0 L 78.0,82.0 L 102.0,73.0 L 109.0,73.0 L 112.0,76.0 L 112.0,81.0 L 104.0,87.0 L 82.0,98.0 L 73.0,103.0 L 65.0,103.0 L 30.0,88.0 L 22.0,89.0 L 10.0,94.0 L 8.0,94.0 L 8.0,62.0 L 29.0,55.0" fill="#040404"/>
	<path d="M 68.0,23.0 L 76.0,23.0 L 81.0,25.0 L 84.0,23.0 L 92.0,23.0 L 97.0,29.0 L 97.0,35.0 L 91.0,45.0 L 82.0,53.0 L 77.0,52.0 L 69.0,45.0 L 64.0,37.0 L 63.0,29.0 L 68.0,23.0" fill="#040404"/>
</svg>
