<?xml version="1.0" ?>
<svg baseProfile="full" height="600px" version="1.1" viewBox="-19.296000000000003 -19.296000000000003 230.592 230.592" width="600px" xmlns="http://www.w3.org/2000/svg" xmlns:ev="http://www.w3.org/2001/xml-events" xmlns:xlink="http://www.w3.org/1999/xlink">
	<defs/>
	<path d="M 0.0,0.0 L 192.0,0.0 L 192.0,192.0 L 0.0,192.0 L 0.0,0.0" fill="#FEFDFD"/>
	<path d="M 46.0,89.0 L 55.0,90.0 L 76.0,101.0 L 99.0,114.0 L 108.0,119.0 L 112.0,122.0 L 128.0,113.0 L 131.0,111.0 L 140.0,112.0 L 145.0,113.0 L 152.0,113.0 L 155.0,115.0 L 166.0,117.0 L 171.0,122.0 L 172.0,124.0 L 172.0,132.0 L 167.0,137.0 L 139.0,154.0 L 111.0,171.0 L 108.0,172.0 L 99.0,172.0 L 87.0,166.0 L 65.0,154.0 L 39.0,140.0 L 35.0,139.0 L 22.0,147.0 L 20.0,147.0 L 20.0,104.0 L 43.0,90.0 L 46.0,89.0" fill="#FDB64D"/>
	<path d="M 131.0,111.0 L 140.0,112.0 L 145.0,113.0 L 152.0,113.0 L 156.0,116.0 L 155.0,119.0 L 143.0,125.0 L 135.0,130.0 L 123.0,137.0 L 112.0,144.0 L 107.0,147.0 L 103.0,149.0 L 96.0,149.0 L 89.0,146.0 L 82.0,140.0 L 80.0,139.0 L 80.0,137.0 L 76.0,135.0 L 65.0,126.0 L 63.0,123.0 L 69.0,125.0 L 86.0,135.0 L 94.0,139.0 L 97.0,140.0 L 104.0,140.0 L 109.0,137.0 L 111.0,135.0 L 112.0,122.0 L 128.0,113.0 L 131.0,111.0" fill="#EDA740"/>
	<path d="M 131.0,111.0 L 140.0,112.0 L 142.0,116.0 L 131.0,122.0 L 121.0,128.0 L 115.0,132.0 L 113.0,132.0 L 112.0,122.0 L 128.0,113.0 L 131.0,111.0" fill="#E49F39"/>
	<path d="M 100.0,123.0 L 106.0,124.0 L 108.0,126.0 L 108.0,134.0 L 105.0,137.0 L 97.0,137.0 L 95.0,135.0 L 96.0,129.0 L 100.0,123.0" fill="#FECA7D"/>
</svg>
