<?xml version="1.0" ?>
<svg baseProfile="full" height="600px" version="1.1" viewBox="-20.1 -20.1 240.2 240.2" width="600px" xmlns="http://www.w3.org/2000/svg" xmlns:ev="http://www.w3.org/2001/xml-events" xmlns:xlink="http://www.w3.org/1999/xlink">
	<defs/>
	<path d="M 0.0,0.0 L 200.0,0.0 L 200.0,200.0 L 0.0,200.0 L 0.0,0.0" fill="#FDFDFD"/>
	<path d="M 65.0,41.0 L 79.0,41.0 L 91.0,45.0 L 100.0,51.0 L 106.0,57.0 L 111.0,55.0 L 120.0,50.0 L 126.0,48.0 L 144.0,47.0 L 156.0,45.0 L 161.0,45.0 L 163.0,47.0 L 162.0,57.0 L 166.0,59.0 L 173.0,67.0 L 178.0,77.0 L 180.0,85.0 L 180.0,98.0 L 173.0,112.0 L 162.0,125.0 L 151.0,135.0 L 134.0,148.0 L 119.0,158.0 L 100.0,170.0 L 93.0,170.0 L 80.0,158.0 L 69.0,147.0 L 65.0,149.0 L 32.0,182.0 L 31.0,198.0 L 30.0,200.0 L 0.0,200.0 L 0.0,185.0 L 7.0,178.0 L 9.0,177.0 L 25.0,176.0 L 61.0,140.0 L 55.0,132.0 L 44.0,119.0 L 35.0,105.0 L 30.0,94.0 L 28.0,87.0 L 28.0,77.0 L 32.0,66.0 L 38.0,57.0 L 46.0,49.0 L 58.0,43.0 L 65.0,41.0" fill="#FCFCFC"/>
	<path d="M 65.0,41.0 L 79.0,41.0 L 91.0,45.0 L 100.0,51.0 L 106.0,57.0 L 111.0,55.0 L 120.0,50.0 L 126.0,48.0 L 144.0,47.0 L 156.0,45.0 L 161.0,45.0 L 163.0,47.0 L 162.0,57.0 L 166.0,59.0 L 173.0,67.0 L 178.0,77.0 L 180.0,85.0 L 180.0,98.0 L 173.0,112.0 L 162.0,125.0 L 151.0,135.0 L 134.0,148.0 L 119.0,158.0 L 100.0,170.0 L 93.0,170.0 L 80.0,158.0 L 69.0,147.0 L 65.0,149.0 L 32.0,182.0 L 31.0,198.0 L 30.0,200.0 L 0.0,200.0 L 0.0,185.0 L 7.0,178.0 L 9.0,177.0 L 25.0,176.0 L 61.0,140.0 L 55.0,132.0 L 44.0,119.0 L 35.0,105.0 L 30.0,94.0 L 28.0,87.0 L 28.0,77.0 L 32.0,66.0 L 38.0,57.0 L 46.0,49.0 L 58.0,43.0 L 65.0,41.0 M 64.0,50.0 L 53.0,54.0 L 43.0,63.0 L 37.0,75.0 L 36.0,78.0 L 36.0,88.0 L 44.0,104.0 L 53.0,117.0 L 62.0,128.0 L 67.0,133.0 L 71.0,131.0 L 96.0,106.0 L 98.0,105.0 L 100.0,99.0 L 101.0,98.0 L 108.0,99.0 L 109.0,100.0 L 109.0,106.0 L 106.0,109.0 L 101.0,112.0 L 74.0,139.0 L 76.0,143.0 L 87.0,154.0 L 95.0,161.0 L 97.0,162.0 L 113.0,152.0 L 133.0,138.0 L 147.0,127.0 L 159.0,116.0 L 167.0,107.0 L 172.0,97.0 L 172.0,86.0 L 168.0,75.0 L 162.0,67.0 L 154.0,60.0 L 144.0,56.0 L 127.0,56.0 L 113.0,63.0 L 109.0,67.0 L 103.0,68.0 L 101.0,63.0 L 94.0,56.0 L 82.0,50.0 L 64.0,50.0" fill="#090909"/>
	<path d="M 12.0,185.0 L 23.0,185.0 L 23.0,196.0 L 18.0,200.0 L 11.0,200.0 L 9.0,198.0 L 1.0,197.0 L 7.0,190.0 L 12.0,185.0" fill="#F8F8F8"/>
</svg>
