<?xml version="1.0" ?>
<svg baseProfile="full" height="600px" version="1.1" viewBox="-16.08 -16.08 192.16 192.16" width="600px" xmlns="http://www.w3.org/2000/svg" xmlns:ev="http://www.w3.org/2001/xml-events" xmlns:xlink="http://www.w3.org/1999/xlink">
	<defs/>
	<path d="M 0.0,0.0 L 160.0,0.0 L 160.0,160.0 L 0.0,160.0 L 0.0,0.0" fill="#F68D8D"/>
	<path d="M 0.0,0.0 L 160.0,0.0 L 160.0,160.0 L 0.0,160.0 L 0.0,0.0 M 38.0,20.0 L 28.0,24.0 L 22.0,28.0 L 14.0,36.0 L 9.0,46.0 L 7.0,53.0 L 7.0,62.0 L 11.0,74.0 L 19.0,88.0 L 29.0,101.0 L 43.0,116.0 L 56.0,129.0 L 64.0,136.0 L 78.0,148.0 L 82.0,148.0 L 99.0,135.0 L 113.0,123.0 L 131.0,105.0 L 141.0,92.0 L 149.0,77.0 L 153.0,63.0 L 153.0,53.0 L 149.0,41.0 L 143.0,33.0 L 134.0,25.0 L 125.0,21.0 L 121.0,20.0 L 104.0,20.0 L 95.0,24.0 L 89.0,28.0 L 84.0,32.0 L 81.0,36.0 L 81.0,38.0 L 79.0,38.0 L 77.0,34.0 L 72.0,29.0 L 67.0,25.0 L 55.0,20.0 L 38.0,20.0" fill="#FEFCFC"/>
	<path d="M 38.0,20.0 L 55.0,20.0 L 67.0,25.0 L 75.0,31.0 L 79.0,36.0 L 79.0,38.0 L 81.0,38.0 L 83.0,34.0 L 88.0,29.0 L 93.0,25.0 L 101.0,21.0 L 104.0,20.0 L 121.0,20.0 L 132.0,24.0 L 140.0,30.0 L 147.0,38.0 L 151.0,46.0 L 153.0,53.0 L 153.0,63.0 L 148.0,79.0 L 141.0,92.0 L 133.0,102.0 L 124.0,112.0 L 109.0,127.0 L 98.0,136.0 L 81.0,149.0 L 77.0,147.0 L 67.0,138.0 L 59.0,131.0 L 49.0,122.0 L 34.0,107.0 L 25.0,96.0 L 17.0,85.0 L 9.0,69.0 L 7.0,62.0 L 7.0,53.0 L 11.0,41.0 L 17.0,33.0 L 24.0,26.0 L 34.0,21.0 L 38.0,20.0 M 41.0,24.0 L 32.0,27.0 L 25.0,31.0 L 18.0,38.0 L 13.0,48.0 L 12.0,51.0 L 12.0,64.0 L 16.0,75.0 L 25.0,89.0 L 36.0,102.0 L 48.0,115.0 L 57.0,124.0 L 65.0,131.0 L 75.0,140.0 L 79.0,143.0 L 83.0,142.0 L 97.0,131.0 L 111.0,119.0 L 126.0,104.0 L 134.0,94.0 L 143.0,80.0 L 148.0,67.0 L 148.0,52.0 L 144.0,41.0 L 135.0,31.0 L 126.0,26.0 L 118.0,24.0 L 107.0,24.0 L 96.0,28.0 L 86.0,37.0 L 81.0,44.0 L 81.0,46.0 L 78.0,43.0 L 72.0,35.0 L 64.0,28.0 L 56.0,25.0 L 52.0,24.0 L 41.0,24.0" fill="#CA4B4B"/>
</svg>
