<?xml version="1.0" ?>
<svg baseProfile="full" height="600px" version="1.1" viewBox="-12.06 -12.06 144.12 144.12" width="600px" xmlns="http://www.w3.org/2000/svg" xmlns:ev="http://www.w3.org/2001/xml-events" xmlns:xlink="http://www.w3.org/1999/xlink">
	<defs/>
	<path d="M 0.0,0.0 L 120.0,0.0 L 120.0,120.0 L 0.0,120.0 L 0.0,0.0" fill="#FCFCFC"/>
	<path d="M 85.0,29.0 L 90.0,30.0 L 92.0,37.0 L 97.0,42.0 L 100.0,47.0 L 100.0,60.0 L 94.0,72.0 L 83.0,84.0 L 68.0,95.0 L 63.0,98.0 L 58.0,98.0 L 51.0,92.0 L 49.0,88.0 L 57.0,80.0 L 58.0,75.0 L 57.0,74.0 L 52.0,74.0 L 20.0,106.0 L 19.0,115.0 L 14.0,120.0 L 0.0,120.0 L 0.0,106.0 L 3.0,105.0 L 5.0,101.0 L 14.0,100.0 L 37.0,77.0 L 35.0,72.0 L 30.0,61.0 L 29.0,58.0 L 29.0,44.0 L 34.0,36.0 L 42.0,31.0 L 54.0,31.0 L 61.0,35.0 L 66.0,40.0 L 72.0,36.0 L 75.0,31.0 L 85.0,29.0" fill="#030303"/>
</svg>
