<?xml version="1.0" ?>
<svg baseProfile="full" height="600px" version="1.1" viewBox="-19.296000000000003 -19.296000000000003 230.592 230.592" width="600px" xmlns="http://www.w3.org/2000/svg" xmlns:ev="http://www.w3.org/2001/xml-events" xmlns:xlink="http://www.w3.org/1999/xlink">
	<defs/>
	<path d="M 0.0,0.0 L 192.0,0.0 L 192.0,192.0 L 0.0,192.0 L 0.0,0.0" fill="#FEFDFC"/>
	<path d="M 44.0,90.0 L 55.0,90.0 L 81.0,104.0 L 99.0,114.0 L 109.0,120.0 L 112.0,122.0 L 128.0,113.0 L 131.0,111.0 L 140.0,112.0 L 145.0,113.0 L 152.0,113.0 L 156.0,116.0 L 166.0,117.0 L 172.0,124.0 L 171.0,133.0 L 166.0,138.0 L 134.0,157.0 L 111.0,171.0 L 108.0,172.0 L 98.0,172.0 L 66.0,155.0 L 48.0,145.0 L 37.0,139.0 L 32.0,141.0 L 22.0,147.0 L 20.0,147.0 L 20.0,104.0 L 42.0,91.0 L 44.0,90.0" fill="#FDB64D"/>
	<path d="M 75.0,20.0 L 87.0,20.0 L 97.0,25.0 L 103.0,32.0 L 105.0,33.0 L 107.0,29.0 L 114.0,23.0 L 122.0,20.0 L 131.0,20.0 L 140.0,23.0 L 147.0,29.0 L 152.0,39.0 L 152.0,49.0 L 148.0,58.0 L 140.0,68.0 L 128.0,81.0 L 120.0,88.0 L 105.0,100.0 L 101.0,98.0 L 91.0,90.0 L 79.0,79.0 L 64.0,64.0 L 58.0,55.0 L 56.0,49.0 L 56.0,39.0 L 61.0,29.0 L 68.0,23.0 L 75.0,20.0" fill="#FF3E02"/>
	<path d="M 131.0,111.0 L 140.0,112.0 L 145.0,113.0 L 152.0,113.0 L 156.0,116.0 L 156.0,118.0 L 147.0,123.0 L 139.0,128.0 L 123.0,137.0 L 115.0,142.0 L 103.0,149.0 L 96.0,149.0 L 89.0,146.0 L 82.0,140.0 L 80.0,139.0 L 80.0,137.0 L 76.0,135.0 L 65.0,126.0 L 63.0,123.0 L 69.0,125.0 L 86.0,135.0 L 95.0,140.0 L 106.0,140.0 L 111.0,135.0 L 112.0,122.0 L 128.0,113.0 L 131.0,111.0" fill="#EDA740"/>
	<path d="M 131.0,111.0 L 140.0,112.0 L 142.0,116.0 L 131.0,122.0 L 121.0,128.0 L 115.0,132.0 L 113.0,132.0 L 112.0,122.0 L 128.0,113.0 L 131.0,111.0" fill="#E49F39"/>
	<path d="M 100.0,123.0 L 106.0,124.0 L 108.0,126.0 L 108.0,134.0 L 105.0,137.0 L 97.0,137.0 L 95.0,135.0 L 96.0,129.0 L 100.0,123.0" fill="#FECA7D"/>
</svg>
