<?xml version="1.0" ?>
<svg baseProfile="full" height="600px" version="1.1" viewBox="-9.648000000000001 -9.648000000000001 115.296 115.296" width="600px" xmlns="http://www.w3.org/2000/svg" xmlns:ev="http://www.w3.org/2001/xml-events" xmlns:xlink="http://www.w3.org/1999/xlink">
	<defs/>
	<path d="M 0.0,0.0 L 96.0,0.0 L 96.0,96.0 L 0.0,96.0 L 0.0,0.0" fill="#FCFCFC"/>
	<path d="M 80.0,49.0 L 86.0,50.0 L 88.0,53.0 L 87.0,58.0 L 75.0,71.0 L 68.0,79.0 L 65.0,81.0 L 31.0,82.0 L 25.0,88.0 L 22.0,88.0 L 15.0,80.0 L 8.0,73.0 L 14.0,66.0 L 25.0,57.0 L 30.0,54.0 L 53.0,51.0 L 59.0,51.0 L 59.0,58.0 L 54.0,63.0 L 43.0,65.0 L 43.0,67.0 L 62.0,69.0 L 64.0,65.0 L 72.0,57.0 L 78.0,50.0 L 80.0,49.0" fill="#050505"/>
	<path d="M 51.0,14.0 L 59.0,14.0 L 63.0,15.0 L 65.0,14.0 L 73.0,14.0 L 78.0,19.0 L 77.0,26.0 L 73.0,32.0 L 63.0,42.0 L 59.0,40.0 L 49.0,30.0 L 46.0,25.0 L 46.0,19.0 L 51.0,14.0" fill="#060606"/>
</svg>
