<?xml version="1.0" ?>
<svg baseProfile="full" height="600px" version="1.1" viewBox="-12.06 -12.06 144.12 144.12" width="600px" xmlns="http://www.w3.org/2000/svg" xmlns:ev="http://www.w3.org/2001/xml-events" xmlns:xlink="http://www.w3.org/1999/xlink">
	<defs/>
	<path d="M 0.0,0.0 L 120.0,0.0 L 120.0,120.0 L 0.0,120.0 L 0.0,0.0" fill="#FCFCFC"/>
	<path d="M 31.0,15.0 L 46.0,15.0 L 55.0,19.0 L 59.0,22.0 L 64.0,20.0 L 70.0,16.0 L 73.0,15.0 L 88.0,15.0 L 97.0,19.0 L 103.0,24.0 L 108.0,33.0 L 109.0,35.0 L 109.0,49.0 L 105.0,60.0 L 98.0,72.0 L 86.0,86.0 L 74.0,98.0 L 65.0,105.0 L 57.0,106.0 L 51.0,102.0 L 38.0,90.0 L 30.0,82.0 L 20.0,69.0 L 12.0,53.0 L 11.0,49.0 L 11.0,35.0 L 15.0,27.0 L 20.0,21.0 L 28.0,16.0 L 31.0,15.0" fill="#020202"/>
</svg>
