<?xml version="1.0" ?>
<svg baseProfile="full" height="600px" version="1.1" viewBox="-9.648000000000001 -9.648000000000001 115.296 115.296" width="600px" xmlns="http://www.w3.org/2000/svg" xmlns:ev="http://www.w3.org/2001/xml-events" xmlns:xlink="http://www.w3.org/1999/xlink">
	<defs/>
	<path d="M 0.0,0.0 L 96.0,0.0 L 96.0,96.0 L 0.0,96.0 L 0.0,0.0" fill="#FCFCFC"/>
	<path d="M 55.0,47.0 L 57.0,48.0 L 58.0,56.0 L 53.0,61.0 L 42.0,64.0 L 42.0,67.0 L 60.0,65.0 L 76.0,53.0 L 80.0,50.0 L 87.0,50.0 L 89.0,52.0 L 89.0,58.0 L 81.0,65.0 L 65.0,77.0 L 63.0,78.0 L 33.0,81.0 L 26.0,89.0 L 18.0,83.0 L 8.0,75.0 L 14.0,68.0 L 24.0,57.0 L 32.0,53.0 L 55.0,47.0" fill="#050505"/>
	<path d="M 47.0,7.0 L 56.0,7.0 L 61.0,10.0 L 66.0,8.0 L 68.0,7.0 L 75.0,7.0 L 81.0,10.0 L 85.0,15.0 L 85.0,23.0 L 79.0,33.0 L 65.0,47.0 L 61.0,48.0 L 53.0,41.0 L 45.0,33.0 L 40.0,25.0 L 39.0,22.0 L 39.0,15.0 L 44.0,9.0 L 47.0,7.0" fill="#030303"/>
</svg>
