<?xml version="1.0" ?>
<svg baseProfile="full" height="600px" version="1.1" viewBox="-12.864 -12.864 153.728 153.728" width="600px" xmlns="http://www.w3.org/2000/svg" xmlns:ev="http://www.w3.org/2001/xml-events" xmlns:xlink="http://www.w3.org/1999/xlink">
	<defs/>
	<path d="M 0.0,0.0 L 128.0,0.0 L 128.0,128.0 L 0.0,128.0 L 0.0,0.0" fill="#FCFCFC"/>
	<path d="M 36.0,72.0 L 47.0,72.0 L 54.0,75.0 L 64.0,83.0 L 68.0,85.0 L 80.0,86.0 L 80.0,95.0 L 72.0,95.0 L 62.0,92.0 L 51.0,84.0 L 46.0,81.0 L 37.0,81.0 L 25.0,86.0 L 23.0,86.0 L 24.0,93.0 L 38.0,88.0 L 43.0,89.0 L 61.0,100.0 L 68.0,105.0 L 77.0,102.0 L 112.0,88.0 L 115.0,88.0 L 117.0,92.0 L 116.0,96.0 L 69.0,115.0 L 64.0,113.0 L 44.0,100.0 L 41.0,98.0 L 34.0,99.0 L 20.0,104.0 L 16.0,94.0 L 12.0,84.0 L 12.0,81.0 L 36.0,72.0" fill="#080808"/>
	<path d="M 60.0,26.0 L 67.0,26.0 L 71.0,29.0 L 75.0,27.0 L 77.0,26.0 L 83.0,26.0 L 89.0,30.0 L 91.0,33.0 L 91.0,40.0 L 87.0,47.0 L 79.0,54.0 L 74.0,57.0 L 69.0,56.0 L 60.0,50.0 L 54.0,43.0 L 53.0,40.0 L 53.0,33.0 L 57.0,28.0 L 60.0,26.0" fill="#0E0E0E"/>
	<path d="M 61.0,31.0 L 66.0,31.0 L 69.0,34.0 L 69.0,37.0 L 75.0,37.0 L 76.0,33.0 L 78.0,31.0 L 83.0,31.0 L 86.0,34.0 L 86.0,40.0 L 81.0,46.0 L 73.0,52.0 L 68.0,50.0 L 59.0,42.0 L 58.0,40.0 L 58.0,34.0 L 61.0,31.0" fill="#F6F6F6"/>
</svg>
