<?xml version="1.0" ?>
<svg baseProfile="full" height="600px" version="1.1" viewBox="-19.296000000000003 -19.296000000000003 230.592 230.592" width="600px" xmlns="http://www.w3.org/2000/svg" xmlns:ev="http://www.w3.org/2001/xml-events" xmlns:xlink="http://www.w3.org/1999/xlink">
	<defs/>
	<path d="M 0.0,0.0 L 192.0,0.0 L 192.0,192.0 L 0.0,192.0 L 0.0,0.0" fill="#FEFDFC"/>
	<path d="M 47.0,24.0 L 65.0,24.0 L 78.0,29.0 L 87.0,35.0 L 95.0,43.0 L 95.0,45.0 L 97.0,45.0 L 99.0,41.0 L 107.0,33.0 L 123.0,25.0 L 129.0,24.0 L 145.0,24.0 L 158.0,29.0 L 167.0,35.0 L 175.0,43.0 L 181.0,54.0 L 183.0,59.0 L 184.0,67.0 L 184.0,77.0 L 182.0,86.0 L 177.0,98.0 L 168.0,111.0 L 157.0,123.0 L 147.0,133.0 L 133.0,144.0 L 118.0,155.0 L 97.0,168.0 L 92.0,166.0 L 77.0,157.0 L 63.0,147.0 L 49.0,136.0 L 36.0,124.0 L 28.0,116.0 L 17.0,101.0 L 11.0,89.0 L 9.0,84.0 L 8.0,77.0 L 8.0,63.0 L 12.0,52.0 L 18.0,42.0 L 27.0,33.0 L 43.0,25.0 L 47.0,24.0" fill="#FE3E01"/>
</svg>
