<?xml version="1.0" ?>
<svg baseProfile="full" height="600px" version="1.1" viewBox="-19.296000000000003 -19.296000000000003 230.592 230.592" width="600px" xmlns="http://www.w3.org/2000/svg" xmlns:ev="http://www.w3.org/2001/xml-events" xmlns:xlink="http://www.w3.org/1999/xlink">
	<defs/>
	<path d="M 0.0,0.0 L 192.0,0.0 L 192.0,192.0 L 0.0,192.0 L 0.0,0.0" fill="#FDFCFB"/>
	<path d="M 47.0,24.0 L 61.0,24.0 L 74.0,27.0 L 85.0,33.0 L 95.0,43.0 L 95.0,45.0 L 97.0,45.0 L 99.0,41.0 L 107.0,33.0 L 123.0,25.0 L 129.0,24.0 L 145.0,24.0 L 158.0,29.0 L 167.0,35.0 L 175.0,43.0 L 181.0,54.0 L 183.0,59.0 L 184.0,67.0 L 184.0,77.0 L 182.0,86.0 L 177.0,98.0 L 168.0,111.0 L 157.0,123.0 L 147.0,133.0 L 133.0,144.0 L 118.0,155.0 L 97.0,168.0 L 92.0,166.0 L 77.0,157.0 L 63.0,147.0 L 49.0,136.0 L 36.0,124.0 L 28.0,116.0 L 17.0,101.0 L 11.0,89.0 L 9.0,84.0 L 8.0,77.0 L 8.0,63.0 L 10.0,53.0 L 10.0,46.0 L 14.0,42.0 L 20.0,40.0 L 27.0,33.0 L 43.0,25.0 L 47.0,24.0" fill="#FE3E01"/>
	<path d="M 12.0,162.0 L 18.0,162.0 L 23.0,167.0 L 23.0,173.0 L 18.0,178.0 L 12.0,178.0 L 7.0,173.0 L 7.0,167.0 L 12.0,162.0" fill="#FE4409"/>
	<path d="M 135.0,5.0 L 140.0,5.0 L 145.0,10.0 L 145.0,17.0 L 141.0,21.0 L 134.0,21.0 L 129.0,16.0 L 130.0,9.0 L 135.0,5.0" fill="#FE450B"/>
	<path d="M 9.0,17.0 L 15.0,17.0 L 20.0,21.0 L 20.0,28.0 L 15.0,33.0 L 9.0,33.0 L 4.0,27.0 L 4.0,22.0 L 9.0,17.0" fill="#49A8F5"/>
	<path d="M 176.0,16.0 L 183.0,17.0 L 187.0,22.0 L 186.0,28.0 L 182.0,32.0 L 175.0,32.0 L 171.0,28.0 L 171.0,20.0 L 176.0,16.0" fill="#FF9B09"/>
	<path d="M 150.0,157.0 L 157.0,157.0 L 162.0,162.0 L 161.0,169.0 L 156.0,173.0 L 151.0,173.0 L 146.0,168.0 L 146.0,162.0 L 150.0,157.0" fill="#FE4308"/>
	<path d="M 168.0,124.0 L 174.0,125.0 L 178.0,130.0 L 177.0,136.0 L 175.0,139.0 L 167.0,140.0 L 162.0,135.0 L 162.0,129.0 L 168.0,124.0" fill="#49C559"/>
	<path d="M 24.0,131.0 L 30.0,131.0 L 35.0,136.0 L 34.0,143.0 L 31.0,146.0 L 24.0,147.0 L 19.0,141.0 L 20.0,135.0 L 24.0,131.0" fill="#FF9C0C"/>
	<path d="M 126.0,154.0 L 132.0,154.0 L 137.0,159.0 L 136.0,166.0 L 132.0,169.0 L 125.0,169.0 L 121.0,164.0 L 122.0,157.0 L 126.0,154.0" fill="#FF9B09"/>
	<path d="M 158.0,8.0 L 165.0,9.0 L 168.0,12.0 L 168.0,20.0 L 163.0,24.0 L 158.0,24.0 L 153.0,19.0 L 153.0,13.0 L 158.0,8.0" fill="#49A8F5"/>
	<path d="M 51.0,160.0 L 57.0,160.0 L 61.0,164.0 L 61.0,172.0 L 58.0,175.0 L 50.0,175.0 L 47.0,172.0 L 46.0,165.0 L 51.0,160.0" fill="#47A7F5"/>
	<path d="M 67.0,9.0 L 74.0,10.0 L 77.0,13.0 L 77.0,20.0 L 73.0,24.0 L 66.0,24.0 L 62.0,20.0 L 62.0,13.0 L 67.0,9.0" fill="#44C455"/>
	<path d="M 14.0,42.0 L 18.0,43.0 L 12.0,54.0 L 10.0,53.0 L 10.0,46.0 L 14.0,42.0" fill="#4DBE52"/>
</svg>
