<?xml version="1.0" ?>
<svg baseProfile="full" height="600px" version="1.1" viewBox="-12.06 -12.06 144.12 144.12" width="600px" xmlns="http://www.w3.org/2000/svg" xmlns:ev="http://www.w3.org/2001/xml-events" xmlns:xlink="http://www.w3.org/1999/xlink">
	<defs/>
	<path d="M 0.0,0.0 L 120.0,0.0 L 120.0,120.0 L 0.0,120.0 L 0.0,0.0" fill="#010101"/>
	<path d="M 0.0,0.0 L 120.0,0.0 L 120.0,120.0 L 0.0,120.0 L 0.0,0.0 M 31.0,9.0 L 22.0,12.0 L 14.0,18.0 L 8.0,26.0 L 5.0,33.0 L 5.0,48.0 L 10.0,61.0 L 19.0,75.0 L 30.0,88.0 L 45.0,103.0 L 54.0,110.0 L 56.0,111.0 L 63.0,111.0 L 69.0,108.0 L 84.0,94.0 L 95.0,83.0 L 106.0,68.0 L 113.0,54.0 L 115.0,48.0 L 115.0,33.0 L 109.0,21.0 L 100.0,13.0 L 90.0,9.0 L 76.0,9.0 L 64.0,15.0 L 61.0,18.0 L 57.0,16.0 L 49.0,11.0 L 42.0,9.0 L 31.0,9.0" fill="#FCFCFC"/>
</svg>
