<?xml version="1.0" ?>
<svg baseProfile="full" height="600px" version="1.1" viewBox="-12.06 -12.06 144.12 144.12" width="600px" xmlns="http://www.w3.org/2000/svg" xmlns:ev="http://www.w3.org/2001/xml-events" xmlns:xlink="http://www.w3.org/1999/xlink">
	<defs/>
	<path d="M 0.0,0.0 L 120.0,0.0 L 120.0,120.0 L 0.0,120.0 L 0.0,0.0" fill="#FCFCFC"/>
	<path d="M 28.0,56.0 L 35.0,56.0 L 64.0,62.0 L 73.0,64.0 L 76.0,67.0 L 76.0,72.0 L 73.0,75.0 L 78.0,74.0 L 102.0,64.0 L 109.0,64.0 L 112.0,67.0 L 111.0,73.0 L 102.0,79.0 L 75.0,94.0 L 73.0,95.0 L 64.0,95.0 L 34.0,90.0 L 23.0,90.0 L 9.0,96.0 L 8.0,96.0 L 8.0,64.0 L 20.0,59.0 L 28.0,56.0" fill="#030303"/>
	<path d="M 63.0,11.0 L 70.0,11.0 L 78.0,16.0 L 82.0,16.0 L 87.0,12.0 L 96.0,11.0 L 104.0,15.0 L 108.0,20.0 L 109.0,24.0 L 109.0,31.0 L 106.0,40.0 L 96.0,53.0 L 86.0,62.0 L 83.0,64.0 L 77.0,64.0 L 64.0,53.0 L 56.0,43.0 L 52.0,35.0 L 51.0,32.0 L 51.0,24.0 L 54.0,17.0 L 59.0,13.0 L 63.0,11.0" fill="#030303"/>
</svg>
