<?xml version="1.0" ?>
<svg baseProfile="full" height="600px" version="1.1" viewBox="-20.1 -20.1 240.2 240.2" width="600px" xmlns="http://www.w3.org/2000/svg" xmlns:ev="http://www.w3.org/2001/xml-events" xmlns:xlink="http://www.w3.org/1999/xlink">
	<defs/>
	<path d="M 0.0,0.0 L 200.0,0.0 L 200.0,200.0 L 0.0,200.0 L 0.0,0.0" fill="#FDFDFD"/>
	<path d="M 109.0,109.0 L 122.0,109.0 L 128.0,113.0 L 132.0,119.0 L 132.0,128.0 L 128.0,135.0 L 123.0,138.0 L 96.0,144.0 L 98.0,146.0 L 136.0,146.0 L 148.0,135.0 L 156.0,128.0 L 166.0,119.0 L 177.0,110.0 L 179.0,109.0 L 190.0,109.0 L 195.0,112.0 L 199.0,117.0 L 200.0,119.0 L 200.0,200.0 L 0.0,200.0 L 0.0,154.0 L 7.0,147.0 L 18.0,138.0 L 28.0,129.0 L 42.0,118.0 L 50.0,114.0 L 58.0,112.0 L 109.0,109.0" fill="#090909"/>
	<path d="M 111.0,117.0 L 120.0,117.0 L 124.0,121.0 L 124.0,127.0 L 121.0,130.0 L 94.0,136.0 L 85.0,138.0 L 84.0,143.0 L 94.0,154.0 L 96.0,155.0 L 137.0,155.0 L 145.0,149.0 L 158.0,137.0 L 166.0,130.0 L 176.0,121.0 L 181.0,117.0 L 189.0,117.0 L 192.0,121.0 L 191.0,128.0 L 177.0,142.0 L 169.0,149.0 L 147.0,171.0 L 140.0,176.0 L 56.0,177.0 L 43.0,188.0 L 40.0,190.0 L 26.0,175.0 L 19.0,167.0 L 10.0,157.0 L 10.0,155.0 L 21.0,146.0 L 36.0,133.0 L 46.0,125.0 L 55.0,121.0 L 59.0,120.0 L 111.0,117.0" fill="#FCFCFC"/>
	<path d="M 199.0,127.0 L 200.0,127.0 L 200.0,200.0 L 42.0,200.0 L 48.0,193.0 L 56.0,186.0 L 59.0,184.0 L 142.0,183.0 L 150.0,178.0 L 167.0,161.0 L 175.0,154.0 L 197.0,132.0 L 199.0,127.0" fill="#FBFBFB"/>
	<path d="M 104.0,18.0 L 116.0,18.0 L 124.0,22.0 L 127.0,25.0 L 131.0,23.0 L 139.0,18.0 L 151.0,18.0 L 160.0,22.0 L 166.0,30.0 L 168.0,34.0 L 168.0,44.0 L 164.0,54.0 L 155.0,65.0 L 147.0,73.0 L 133.0,84.0 L 130.0,86.0 L 124.0,85.0 L 111.0,74.0 L 103.0,67.0 L 94.0,57.0 L 89.0,48.0 L 88.0,44.0 L 88.0,34.0 L 93.0,25.0 L 101.0,19.0 L 104.0,18.0" fill="#FBFBFB"/>
	<path d="M 104.0,18.0 L 116.0,18.0 L 124.0,22.0 L 127.0,25.0 L 131.0,23.0 L 139.0,18.0 L 151.0,18.0 L 160.0,22.0 L 166.0,30.0 L 168.0,34.0 L 168.0,44.0 L 164.0,54.0 L 155.0,65.0 L 147.0,73.0 L 133.0,84.0 L 130.0,86.0 L 124.0,85.0 L 111.0,74.0 L 103.0,67.0 L 94.0,57.0 L 89.0,48.0 L 88.0,44.0 L 88.0,34.0 L 93.0,25.0 L 101.0,19.0 L 104.0,18.0 M 107.0,23.0 L 101.0,26.0 L 95.0,33.0 L 94.0,35.0 L 94.0,45.0 L 100.0,55.0 L 117.0,72.0 L 127.0,80.0 L 131.0,78.0 L 144.0,67.0 L 156.0,55.0 L 162.0,45.0 L 162.0,35.0 L 158.0,28.0 L 151.0,24.0 L 149.0,23.0 L 142.0,23.0 L 134.0,28.0 L 130.0,33.0 L 130.0,35.0 L 126.0,35.0 L 124.0,30.0 L 118.0,25.0 L 114.0,23.0 L 107.0,23.0" fill="#0B0B0B"/>
	<path d="M 0.0,157.0 L 5.0,162.0 L 16.0,174.0 L 23.0,182.0 L 32.0,192.0 L 38.0,200.0 L 0.0,200.0 L 0.0,157.0" fill="#FCFCFC"/>
</svg>
