<?xml version="1.0" ?>
<svg baseProfile="full" height="600px" version="1.1" viewBox="-19.296000000000003 -19.296000000000003 230.592 230.592" width="600px" xmlns="http://www.w3.org/2000/svg" xmlns:ev="http://www.w3.org/2001/xml-events" xmlns:xlink="http://www.w3.org/1999/xlink">
	<defs/>
	<path d="M 0.0,0.0 L 192.0,0.0 L 192.0,192.0 L 0.0,192.0 L 0.0,0.0" fill="#FEFDFC"/>
	<path d="M 44.0,92.0 L 53.0,92.0 L 67.0,100.0 L 95.0,117.0 L 108.0,125.0 L 112.0,124.0 L 128.0,113.0 L 135.0,112.0 L 141.0,115.0 L 142.0,114.0 L 151.0,114.0 L 154.0,116.0 L 163.0,117.0 L 169.0,122.0 L 170.0,124.0 L 170.0,131.0 L 167.0,136.0 L 148.0,150.0 L 129.0,164.0 L 111.0,177.0 L 108.0,178.0 L 98.0,178.0 L 76.0,165.0 L 50.0,149.0 L 37.0,141.0 L 28.0,144.0 L 22.0,147.0 L 20.0,147.0 L 20.0,104.0 L 41.0,93.0 L 44.0,92.0" fill="#FDB64D"/>
	<path d="M 86.0,36.0 L 95.0,36.0 L 101.0,40.0 L 103.0,44.0 L 105.0,44.0 L 107.0,40.0 L 113.0,36.0 L 121.0,36.0 L 129.0,40.0 L 133.0,47.0 L 133.0,55.0 L 125.0,66.0 L 114.0,77.0 L 105.0,84.0 L 101.0,82.0 L 90.0,73.0 L 81.0,64.0 L 76.0,57.0 L 75.0,54.0 L 75.0,47.0 L 79.0,40.0 L 86.0,36.0" fill="#FF4004"/>
	<path d="M 130.0,112.0 L 137.0,113.0 L 141.0,115.0 L 142.0,114.0 L 151.0,114.0 L 154.0,116.0 L 153.0,119.0 L 147.0,123.0 L 138.0,130.0 L 130.0,136.0 L 125.0,139.0 L 120.0,143.0 L 109.0,151.0 L 106.0,154.0 L 103.0,155.0 L 94.0,155.0 L 88.0,151.0 L 72.0,135.0 L 72.0,132.0 L 70.0,132.0 L 70.0,130.0 L 66.0,129.0 L 61.0,124.0 L 61.0,121.0 L 75.0,131.0 L 83.0,137.0 L 97.0,146.0 L 103.0,147.0 L 108.0,146.0 L 108.0,144.0 L 110.0,144.0 L 112.0,138.0 L 111.0,130.0 L 110.0,126.0 L 126.0,114.0 L 130.0,112.0" fill="#EAA53E"/>
	<path d="M 102.0,129.0 L 106.0,130.0 L 108.0,132.0 L 108.0,140.0 L 105.0,143.0 L 97.0,143.0 L 95.0,141.0 L 95.0,136.0 L 100.0,130.0 L 102.0,129.0" fill="#FFCB7D"/>
</svg>
