<?xml version="1.0" ?>
<svg baseProfile="full" height="600px" version="1.1" viewBox="-20.1 -20.1 240.2 240.2" width="600px" xmlns="http://www.w3.org/2000/svg" xmlns:ev="http://www.w3.org/2001/xml-events" xmlns:xlink="http://www.w3.org/1999/xlink">
	<defs/>
	<path d="M 0.0,0.0 L 200.0,0.0 L 200.0,200.0 L 0.0,200.0 L 0.0,0.0" fill="#010101"/>
	<path d="M 0.0,0.0 L 200.0,0.0 L 200.0,200.0 L 0.0,200.0 L 0.0,0.0 M 51.0,28.0 L 39.0,32.0 L 30.0,37.0 L 20.0,46.0 L 14.0,55.0 L 9.0,67.0 L 8.0,71.0 L 8.0,89.0 L 12.0,105.0 L 17.0,116.0 L 24.0,128.0 L 36.0,141.0 L 45.0,150.0 L 62.0,163.0 L 90.0,182.0 L 99.0,189.0 L 103.0,187.0 L 120.0,175.0 L 135.0,165.0 L 151.0,153.0 L 163.0,142.0 L 172.0,133.0 L 181.0,120.0 L 187.0,108.0 L 192.0,90.0 L 192.0,71.0 L 189.0,61.0 L 183.0,50.0 L 174.0,40.0 L 165.0,34.0 L 153.0,29.0 L 149.0,28.0 L 132.0,28.0 L 121.0,31.0 L 110.0,37.0 L 101.0,45.0 L 97.0,43.0 L 89.0,36.0 L 77.0,30.0 L 69.0,28.0 L 51.0,28.0" fill="#FDFDFD"/>
</svg>
