<?xml version="1.0" ?>
<svg baseProfile="full" height="600px" version="1.1" viewBox="-12.864 -12.864 153.728 153.728" width="600px" xmlns="http://www.w3.org/2000/svg" xmlns:ev="http://www.w3.org/2001/xml-events" xmlns:xlink="http://www.w3.org/1999/xlink">
	<defs/>
	<path d="M 0.0,0.0 L 128.0,0.0 L 128.0,128.0 L 0.0,128.0 L 0.0,0.0" fill="#FBFBFB"/>
	<path d="M 32.0,22.0 L 47.0,22.0 L 61.0,29.0 L 63.0,31.0 L 67.0,30.0 L 77.0,24.0 L 82.0,22.0 L 96.0,22.0 L 106.0,26.0 L 114.0,34.0 L 118.0,44.0 L 118.0,56.0 L 113.0,66.0 L 65.0,114.0 L 58.0,108.0 L 16.0,66.0 L 11.0,56.0 L 11.0,44.0 L 15.0,34.0 L 23.0,26.0 L 32.0,22.0" fill="#FAFAFA"/>
	<path d="M 32.0,22.0 L 47.0,22.0 L 61.0,29.0 L 63.0,31.0 L 67.0,30.0 L 77.0,24.0 L 82.0,22.0 L 96.0,22.0 L 106.0,26.0 L 114.0,34.0 L 118.0,44.0 L 118.0,56.0 L 113.0,66.0 L 65.0,114.0 L 58.0,108.0 L 16.0,66.0 L 11.0,56.0 L 11.0,44.0 L 15.0,34.0 L 23.0,26.0 L 32.0,22.0 M 32.0,30.0 L 24.0,36.0 L 19.0,43.0 L 18.0,46.0 L 18.0,53.0 L 22.0,61.0 L 64.0,103.0 L 71.0,97.0 L 107.0,61.0 L 111.0,53.0 L 111.0,46.0 L 107.0,38.0 L 99.0,31.0 L 96.0,30.0 L 82.0,30.0 L 72.0,36.0 L 67.0,40.0 L 64.0,43.0 L 56.0,35.0 L 46.0,30.0 L 32.0,30.0" fill="#080808"/>
	<path d="M 46.0,42.0 L 53.0,42.0 L 61.0,46.0 L 65.0,48.0 L 74.0,42.0 L 81.0,42.0 L 87.0,45.0 L 92.0,51.0 L 92.0,60.0 L 88.0,66.0 L 65.0,89.0 L 61.0,87.0 L 38.0,64.0 L 36.0,60.0 L 36.0,51.0 L 42.0,44.0 L 46.0,42.0" fill="#040404"/>
</svg>
