<?xml version="1.0" ?>
<svg baseProfile="full" height="600px" version="1.1" viewBox="-16.08 -16.08 192.16 192.16" width="600px" xmlns="http://www.w3.org/2000/svg" xmlns:ev="http://www.w3.org/2001/xml-events" xmlns:xlink="http://www.w3.org/1999/xlink">
	<defs/>
	<path d="M 0.0,0.0 L 160.0,0.0 L 160.0,160.0 L 0.0,160.0 L 0.0,0.0" fill="#FEFDFD"/>
	<path d="M 40.0,26.0 L 55.0,26.0 L 65.0,29.0 L 75.0,36.0 L 79.0,41.0 L 79.0,43.0 L 81.0,43.0 L 83.0,39.0 L 88.0,34.0 L 97.0,28.0 L 104.0,26.0 L 119.0,26.0 L 129.0,30.0 L 137.0,36.0 L 143.0,45.0 L 146.0,52.0 L 146.0,68.0 L 141.0,81.0 L 132.0,95.0 L 119.0,110.0 L 109.0,120.0 L 98.0,129.0 L 83.0,141.0 L 79.0,142.0 L 65.0,130.0 L 49.0,115.0 L 38.0,104.0 L 27.0,90.0 L 20.0,79.0 L 16.0,73.0 L 14.0,67.0 L 14.0,52.0 L 20.0,40.0 L 26.0,33.0 L 34.0,28.0 L 40.0,26.0" fill="#F68D8D"/>
	<path d="M 40.0,26.0 L 55.0,26.0 L 65.0,29.0 L 75.0,36.0 L 79.0,41.0 L 79.0,43.0 L 81.0,43.0 L 83.0,39.0 L 88.0,34.0 L 97.0,28.0 L 104.0,26.0 L 119.0,26.0 L 129.0,30.0 L 137.0,36.0 L 143.0,45.0 L 146.0,52.0 L 146.0,68.0 L 141.0,81.0 L 132.0,95.0 L 119.0,110.0 L 109.0,120.0 L 98.0,129.0 L 83.0,141.0 L 79.0,142.0 L 65.0,130.0 L 49.0,115.0 L 38.0,104.0 L 27.0,90.0 L 20.0,79.0 L 16.0,73.0 L 14.0,67.0 L 14.0,52.0 L 20.0,40.0 L 26.0,33.0 L 34.0,28.0 L 40.0,26.0 M 43.0,31.0 L 33.0,35.0 L 26.0,41.0 L 21.0,50.0 L 19.0,55.0 L 19.0,65.0 L 22.0,74.0 L 29.0,86.0 L 38.0,97.0 L 47.0,107.0 L 64.0,124.0 L 72.0,131.0 L 79.0,137.0 L 84.0,135.0 L 95.0,126.0 L 108.0,115.0 L 122.0,101.0 L 132.0,88.0 L 139.0,74.0 L 141.0,68.0 L 141.0,55.0 L 137.0,46.0 L 131.0,38.0 L 123.0,33.0 L 117.0,31.0 L 101.0,31.0 L 91.0,36.0 L 83.0,45.0 L 81.0,50.0 L 78.0,47.0 L 72.0,39.0 L 64.0,33.0 L 59.0,31.0 L 43.0,31.0" fill="#CC4B4B"/>
	<path d="M 136.0,82.0 L 138.0,83.0 L 137.0,87.0 L 131.0,96.0 L 119.0,110.0 L 109.0,120.0 L 98.0,129.0 L 95.0,128.0 L 101.0,120.0 L 111.0,111.0 L 121.0,101.0 L 131.0,88.0 L 134.0,83.0 L 136.0,82.0" fill="#CC4B4B"/>
	<path d="M 41.0,27.0 L 60.0,27.0 L 70.0,32.0 L 72.0,35.0 L 70.0,35.0 L 70.0,37.0 L 66.0,35.0 L 59.0,32.0 L 43.0,32.0 L 33.0,36.0 L 27.0,41.0 L 23.0,47.0 L 19.0,47.0 L 21.0,41.0 L 29.0,33.0 L 41.0,27.0" fill="#CB4A4A"/>
	<path d="M 104.0,26.0 L 119.0,26.0 L 129.0,30.0 L 137.0,36.0 L 143.0,45.0 L 146.0,52.0 L 146.0,68.0 L 144.0,71.0 L 144.0,57.0 L 141.0,47.0 L 135.0,38.0 L 128.0,32.0 L 118.0,28.0 L 104.0,27.0 L 104.0,26.0" fill="#F28F8F"/>
	<path d="M 40.0,26.0 L 55.0,26.0 L 55.0,27.0 L 41.0,28.0 L 29.0,34.0 L 22.0,41.0 L 17.0,52.0 L 16.0,55.0 L 16.0,69.0 L 14.0,67.0 L 14.0,52.0 L 20.0,40.0 L 26.0,33.0 L 34.0,28.0 L 40.0,26.0" fill="#F39292"/>
</svg>
