<?xml version="1.0" ?>
<svg baseProfile="full" height="600px" version="1.1" viewBox="-19.296000000000003 -19.296000000000003 230.592 230.592" width="600px" xmlns="http://www.w3.org/2000/svg" xmlns:ev="http://www.w3.org/2001/xml-events" xmlns:xlink="http://www.w3.org/1999/xlink">
	<defs/>
	<path d="M 0.0,0.0 L 192.0,0.0 L 192.0,192.0 L 0.0,192.0 L 0.0,0.0" fill="#FDFEFE"/>
	<path d="M 112.0,20.0 L 123.0,20.0 L 133.0,23.0 L 143.0,30.0 L 150.0,41.0 L 152.0,47.0 L 152.0,60.0 L 158.0,61.0 L 168.0,67.0 L 174.0,76.0 L 176.0,81.0 L 176.0,92.0 L 173.0,101.0 L 167.0,109.0 L 157.0,115.0 L 154.0,116.0 L 129.0,116.0 L 128.0,120.0 L 124.0,121.0 L 121.0,118.0 L 121.0,116.0 L 89.0,116.0 L 88.0,120.0 L 84.0,121.0 L 81.0,118.0 L 81.0,116.0 L 49.0,116.0 L 48.0,120.0 L 44.0,121.0 L 41.0,118.0 L 41.0,116.0 L 32.0,114.0 L 24.0,108.0 L 19.0,102.0 L 16.0,93.0 L 16.0,82.0 L 20.0,73.0 L 27.0,65.0 L 35.0,61.0 L 44.0,60.0 L 44.0,52.0 L 49.0,42.0 L 57.0,35.0 L 64.0,32.0 L 75.0,32.0 L 85.0,36.0 L 87.0,38.0 L 96.0,28.0 L 101.0,24.0 L 107.0,21.0 L 112.0,20.0" fill="#BADEFB"/>
	<path d="M 123.0,173.0 L 128.0,173.0 L 129.0,174.0 L 129.0,179.0 L 127.0,181.0 L 122.0,180.0 L 121.0,175.0 L 123.0,173.0" fill="#329EF4"/>
	<path d="M 83.0,173.0 L 88.0,173.0 L 89.0,174.0 L 89.0,179.0 L 87.0,181.0 L 82.0,180.0 L 81.0,175.0 L 83.0,173.0" fill="#329EF4"/>
	<path d="M 43.0,173.0 L 48.0,173.0 L 49.0,174.0 L 49.0,179.0 L 47.0,181.0 L 42.0,180.0 L 41.0,175.0 L 43.0,173.0" fill="#329EF4"/>
	<path d="M 119.0,185.0 L 124.0,185.0 L 125.0,186.0 L 125.0,191.0 L 124.0,192.0 L 118.0,192.0 L 117.0,187.0 L 119.0,185.0" fill="#2C9BF4"/>
	<path d="M 79.0,185.0 L 84.0,185.0 L 85.0,186.0 L 85.0,191.0 L 84.0,192.0 L 78.0,192.0 L 77.0,187.0 L 79.0,185.0" fill="#2C9BF4"/>
	<path d="M 39.0,185.0 L 44.0,185.0 L 45.0,186.0 L 45.0,191.0 L 44.0,192.0 L 38.0,192.0 L 37.0,187.0 L 39.0,185.0" fill="#2C9BF4"/>
	<path d="M 121.0,116.0 L 129.0,116.0 L 128.0,120.0 L 124.0,121.0 L 121.0,118.0 L 121.0,116.0" fill="#37A0F4"/>
	<path d="M 81.0,116.0 L 89.0,116.0 L 88.0,120.0 L 84.0,121.0 L 81.0,118.0 L 81.0,116.0" fill="#37A0F4"/>
	<path d="M 41.0,116.0 L 49.0,116.0 L 48.0,120.0 L 44.0,121.0 L 41.0,118.0 L 41.0,116.0" fill="#36A0F4"/>
</svg>
