<?xml version="1.0" ?>
<svg baseProfile="full" height="600px" version="1.1" viewBox="-19.296000000000003 -19.296000000000003 230.592 230.592" width="600px" xmlns="http://www.w3.org/2000/svg" xmlns:ev="http://www.w3.org/2001/xml-events" xmlns:xlink="http://www.w3.org/1999/xlink">
	<defs/>
	<path d="M 0.0,0.0 L 192.0,0.0 L 192.0,192.0 L 0.0,192.0 L 0.0,0.0" fill="#FDFEFE"/>
	<path d="M 112.0,20.0 L 123.0,20.0 L 133.0,23.0 L 143.0,30.0 L 150.0,41.0 L 152.0,47.0 L 152.0,60.0 L 158.0,61.0 L 168.0,67.0 L 174.0,76.0 L 176.0,81.0 L 176.0,92.0 L 173.0,101.0 L 167.0,109.0 L 157.0,115.0 L 154.0,116.0 L 38.0,116.0 L 29.0,112.0 L 21.0,105.0 L 17.0,96.0 L 16.0,93.0 L 16.0,82.0 L 20.0,73.0 L 27.0,65.0 L 35.0,61.0 L 44.0,60.0 L 44.0,52.0 L 49.0,42.0 L 57.0,35.0 L 64.0,32.0 L 75.0,32.0 L 85.0,36.0 L 87.0,38.0 L 96.0,28.0 L 101.0,24.0 L 107.0,21.0 L 112.0,20.0" fill="#BADEFB"/>
	<path d="M 120.0,181.0 L 125.0,182.0 L 126.0,183.0 L 126.0,188.0 L 125.0,189.0 L 120.0,189.0 L 118.0,187.0 L 119.0,182.0 L 120.0,181.0" fill="#359FF4"/>
	<path d="M 80.0,181.0 L 85.0,182.0 L 86.0,183.0 L 86.0,188.0 L 85.0,189.0 L 80.0,189.0 L 78.0,187.0 L 79.0,182.0 L 80.0,181.0" fill="#359FF4"/>
	<path d="M 40.0,181.0 L 45.0,182.0 L 46.0,183.0 L 46.0,188.0 L 45.0,189.0 L 40.0,189.0 L 38.0,187.0 L 39.0,182.0 L 40.0,181.0" fill="#359FF4"/>
	<path d="M 124.0,169.0 L 129.0,170.0 L 130.0,171.0 L 130.0,176.0 L 129.0,177.0 L 124.0,177.0 L 122.0,175.0 L 123.0,170.0 L 124.0,169.0" fill="#359FF4"/>
	<path d="M 84.0,169.0 L 89.0,170.0 L 90.0,171.0 L 90.0,176.0 L 89.0,177.0 L 84.0,177.0 L 82.0,175.0 L 83.0,170.0 L 84.0,169.0" fill="#359FF4"/>
	<path d="M 44.0,169.0 L 49.0,170.0 L 50.0,171.0 L 50.0,176.0 L 49.0,177.0 L 44.0,177.0 L 42.0,175.0 L 43.0,170.0 L 44.0,169.0" fill="#359FF4"/>
	<path d="M 128.0,157.0 L 133.0,158.0 L 134.0,159.0 L 134.0,164.0 L 133.0,165.0 L 128.0,165.0 L 126.0,163.0 L 127.0,158.0 L 128.0,157.0" fill="#359FF4"/>
	<path d="M 88.0,157.0 L 93.0,158.0 L 94.0,159.0 L 94.0,164.0 L 93.0,165.0 L 88.0,165.0 L 86.0,163.0 L 87.0,158.0 L 88.0,157.0" fill="#359FF4"/>
	<path d="M 48.0,157.0 L 53.0,158.0 L 54.0,159.0 L 54.0,164.0 L 53.0,165.0 L 48.0,165.0 L 46.0,163.0 L 47.0,158.0 L 48.0,157.0" fill="#359FF4"/>
	<path d="M 100.0,182.0 L 105.0,183.0 L 106.0,188.0 L 104.0,190.0 L 99.0,189.0 L 98.0,184.0 L 100.0,182.0" fill="#2C9BF3"/>
	<path d="M 60.0,182.0 L 65.0,183.0 L 66.0,188.0 L 64.0,190.0 L 59.0,189.0 L 58.0,184.0 L 60.0,182.0" fill="#2C9BF3"/>
	<path d="M 20.0,182.0 L 25.0,183.0 L 26.0,188.0 L 24.0,190.0 L 19.0,189.0 L 18.0,184.0 L 20.0,182.0" fill="#2C9BF3"/>
</svg>
