<?xml version="1.0" ?>
<svg baseProfile="full" height="600px" version="1.1" viewBox="-19.296000000000003 -19.296000000000003 230.592 230.592" width="600px" xmlns="http://www.w3.org/2000/svg" xmlns:ev="http://www.w3.org/2001/xml-events" xmlns:xlink="http://www.w3.org/1999/xlink">
	<defs/>
	<path d="M 0.0,0.0 L 192.0,0.0 L 192.0,192.0 L 0.0,192.0 L 0.0,0.0" fill="#FCFDFE"/>
	<path d="M 112.0,20.0 L 123.0,20.0 L 133.0,23.0 L 143.0,30.0 L 150.0,41.0 L 152.0,47.0 L 152.0,60.0 L 158.0,61.0 L 168.0,67.0 L 174.0,76.0 L 176.0,81.0 L 176.0,92.0 L 173.0,101.0 L 167.0,109.0 L 157.0,115.0 L 154.0,116.0 L 38.0,116.0 L 29.0,112.0 L 21.0,105.0 L 17.0,96.0 L 16.0,93.0 L 16.0,82.0 L 20.0,73.0 L 27.0,65.0 L 35.0,61.0 L 44.0,60.0 L 44.0,52.0 L 49.0,42.0 L 57.0,35.0 L 64.0,32.0 L 75.0,32.0 L 85.0,36.0 L 87.0,38.0 L 96.0,28.0 L 101.0,24.0 L 107.0,21.0 L 112.0,20.0" fill="#BADEFB"/>
	<path d="M 100.0,182.0 L 105.0,183.0 L 106.0,188.0 L 104.0,190.0 L 99.0,189.0 L 98.0,184.0 L 100.0,182.0" fill="#2C9BF3"/>
	<path d="M 60.0,182.0 L 65.0,183.0 L 66.0,188.0 L 64.0,190.0 L 59.0,189.0 L 58.0,184.0 L 60.0,182.0" fill="#2C9BF3"/>
	<path d="M 20.0,182.0 L 25.0,183.0 L 26.0,188.0 L 24.0,190.0 L 19.0,189.0 L 18.0,184.0 L 20.0,182.0" fill="#2C9BF3"/>
	<path d="M 104.0,170.0 L 109.0,171.0 L 110.0,176.0 L 108.0,178.0 L 103.0,177.0 L 102.0,172.0 L 104.0,170.0" fill="#2C9BF3"/>
	<path d="M 64.0,170.0 L 69.0,171.0 L 70.0,176.0 L 68.0,178.0 L 63.0,177.0 L 62.0,172.0 L 64.0,170.0" fill="#2C9BF3"/>
	<path d="M 24.0,170.0 L 29.0,171.0 L 30.0,176.0 L 28.0,178.0 L 23.0,177.0 L 22.0,172.0 L 24.0,170.0" fill="#2C9BF3"/>
	<path d="M 108.0,158.0 L 113.0,159.0 L 114.0,164.0 L 112.0,166.0 L 107.0,165.0 L 106.0,160.0 L 108.0,158.0" fill="#2C9BF3"/>
	<path d="M 68.0,158.0 L 73.0,159.0 L 74.0,164.0 L 72.0,166.0 L 67.0,165.0 L 66.0,160.0 L 68.0,158.0" fill="#2C9BF3"/>
	<path d="M 28.0,158.0 L 33.0,159.0 L 34.0,164.0 L 32.0,166.0 L 27.0,165.0 L 26.0,160.0 L 28.0,158.0" fill="#2C9BF3"/>
	<path d="M 112.0,146.0 L 117.0,147.0 L 118.0,152.0 L 116.0,154.0 L 111.0,153.0 L 110.0,148.0 L 112.0,146.0" fill="#2C9BF3"/>
	<path d="M 72.0,146.0 L 77.0,147.0 L 78.0,152.0 L 76.0,154.0 L 71.0,153.0 L 70.0,148.0 L 72.0,146.0" fill="#2C9BF3"/>
	<path d="M 32.0,146.0 L 37.0,147.0 L 38.0,152.0 L 36.0,154.0 L 31.0,153.0 L 30.0,148.0 L 32.0,146.0" fill="#2C9BF3"/>
	<path d="M 123.0,174.0 L 127.0,175.0 L 129.0,177.0 L 128.0,181.0 L 127.0,182.0 L 122.0,182.0 L 121.0,181.0 L 121.0,176.0 L 123.0,174.0" fill="#319EF4"/>
	<path d="M 83.0,174.0 L 87.0,175.0 L 89.0,177.0 L 88.0,181.0 L 87.0,182.0 L 82.0,182.0 L 81.0,181.0 L 81.0,176.0 L 83.0,174.0" fill="#319EF4"/>
	<path d="M 43.0,174.0 L 47.0,175.0 L 49.0,177.0 L 48.0,181.0 L 47.0,182.0 L 42.0,182.0 L 41.0,181.0 L 41.0,176.0 L 43.0,174.0" fill="#319EF4"/>
	<path d="M 127.0,162.0 L 131.0,163.0 L 133.0,165.0 L 132.0,169.0 L 131.0,170.0 L 126.0,170.0 L 125.0,169.0 L 125.0,164.0 L 127.0,162.0" fill="#319EF4"/>
	<path d="M 87.0,162.0 L 91.0,163.0 L 93.0,165.0 L 92.0,169.0 L 91.0,170.0 L 86.0,170.0 L 85.0,169.0 L 85.0,164.0 L 87.0,162.0" fill="#319EF4"/>
	<path d="M 47.0,162.0 L 51.0,163.0 L 53.0,165.0 L 52.0,169.0 L 51.0,170.0 L 46.0,170.0 L 45.0,169.0 L 45.0,164.0 L 47.0,162.0" fill="#319EF4"/>
	<path d="M 131.0,150.0 L 135.0,151.0 L 137.0,153.0 L 136.0,157.0 L 135.0,158.0 L 130.0,158.0 L 129.0,157.0 L 129.0,152.0 L 131.0,150.0" fill="#319EF4"/>
	<path d="M 91.0,150.0 L 95.0,151.0 L 97.0,153.0 L 96.0,157.0 L 95.0,158.0 L 90.0,158.0 L 89.0,157.0 L 89.0,152.0 L 91.0,150.0" fill="#319EF4"/>
	<path d="M 51.0,150.0 L 55.0,151.0 L 57.0,153.0 L 56.0,157.0 L 55.0,158.0 L 50.0,158.0 L 49.0,157.0 L 49.0,152.0 L 51.0,150.0" fill="#319EF4"/>
	<path d="M 135.0,138.0 L 139.0,139.0 L 141.0,141.0 L 140.0,145.0 L 139.0,146.0 L 134.0,146.0 L 133.0,145.0 L 133.0,140.0 L 135.0,138.0" fill="#319EF4"/>
	<path d="M 95.0,138.0 L 99.0,139.0 L 101.0,141.0 L 100.0,145.0 L 99.0,146.0 L 94.0,146.0 L 93.0,145.0 L 93.0,140.0 L 95.0,138.0" fill="#319EF4"/>
	<path d="M 55.0,138.0 L 59.0,139.0 L 61.0,141.0 L 60.0,145.0 L 59.0,146.0 L 54.0,146.0 L 53.0,145.0 L 53.0,140.0 L 55.0,138.0" fill="#319EF4"/>
	<path d="M 139.0,126.0 L 143.0,127.0 L 145.0,129.0 L 144.0,133.0 L 143.0,134.0 L 138.0,134.0 L 137.0,133.0 L 137.0,128.0 L 139.0,126.0" fill="#319EF4"/>
	<path d="M 99.0,126.0 L 103.0,127.0 L 105.0,129.0 L 104.0,133.0 L 103.0,134.0 L 98.0,134.0 L 97.0,133.0 L 97.0,128.0 L 99.0,126.0" fill="#319EF4"/>
	<path d="M 59.0,126.0 L 63.0,127.0 L 65.0,129.0 L 64.0,133.0 L 63.0,134.0 L 58.0,134.0 L 57.0,133.0 L 57.0,128.0 L 59.0,126.0" fill="#319EF4"/>
	<path d="M 119.0,186.0 L 123.0,187.0 L 125.0,189.0 L 125.0,192.0 L 117.0,192.0 L 118.0,187.0 L 119.0,186.0" fill="#319EF4"/>
	<path d="M 79.0,186.0 L 83.0,187.0 L 84.0,192.0 L 77.0,192.0 L 78.0,187.0 L 79.0,186.0" fill="#299AF3"/>
	<path d="M 39.0,186.0 L 43.0,187.0 L 44.0,192.0 L 37.0,192.0 L 38.0,187.0 L 39.0,186.0" fill="#299AF3"/>
</svg>
