<?xml version="1.0" ?>
<svg baseProfile="full" height="600px" version="1.1" viewBox="-19.296000000000003 -19.296000000000003 230.592 230.592" width="600px" xmlns="http://www.w3.org/2000/svg" xmlns:ev="http://www.w3.org/2001/xml-events" xmlns:xlink="http://www.w3.org/1999/xlink">
	<defs/>
	<path d="M 0.0,0.0 L 192.0,0.0 L 192.0,192.0 L 0.0,192.0 L 0.0,0.0" fill="#FCFDFE"/>
	<path d="M 112.0,20.0 L 123.0,20.0 L 133.0,23.0 L 143.0,30.0 L 150.0,41.0 L 152.0,47.0 L 152.0,60.0 L 158.0,61.0 L 168.0,67.0 L 174.0,76.0 L 176.0,81.0 L 176.0,92.0 L 173.0,101.0 L 167.0,109.0 L 157.0,115.0 L 154.0,116.0 L 38.0,116.0 L 29.0,112.0 L 21.0,105.0 L 17.0,96.0 L 16.0,93.0 L 16.0,82.0 L 20.0,73.0 L 27.0,65.0 L 35.0,61.0 L 44.0,60.0 L 44.0,52.0 L 49.0,42.0 L 57.0,35.0 L 64.0,32.0 L 75.0,32.0 L 85.0,36.0 L 87.0,38.0 L 96.0,28.0 L 101.0,24.0 L 107.0,21.0 L 112.0,20.0" fill="#BADEFB"/>
	<path d="M 102.0,176.0 L 107.0,177.0 L 108.0,182.0 L 106.0,184.0 L 101.0,183.0 L 100.0,178.0 L 102.0,176.0" fill="#2C9BF4"/>
	<path d="M 62.0,176.0 L 67.0,177.0 L 68.0,182.0 L 66.0,184.0 L 61.0,183.0 L 60.0,178.0 L 62.0,176.0" fill="#2C9BF4"/>
	<path d="M 22.0,176.0 L 27.0,177.0 L 28.0,182.0 L 26.0,184.0 L 21.0,183.0 L 20.0,178.0 L 22.0,176.0" fill="#2C9BF4"/>
	<path d="M 106.0,164.0 L 111.0,165.0 L 112.0,170.0 L 110.0,172.0 L 105.0,171.0 L 104.0,166.0 L 106.0,164.0" fill="#2C9BF4"/>
	<path d="M 66.0,164.0 L 71.0,165.0 L 72.0,170.0 L 70.0,172.0 L 65.0,171.0 L 64.0,166.0 L 66.0,164.0" fill="#2C9BF4"/>
	<path d="M 26.0,164.0 L 31.0,165.0 L 32.0,170.0 L 30.0,172.0 L 25.0,171.0 L 24.0,166.0 L 26.0,164.0" fill="#2C9BF4"/>
	<path d="M 121.0,178.0 L 126.0,178.0 L 127.0,179.0 L 127.0,184.0 L 125.0,186.0 L 121.0,185.0 L 119.0,183.0 L 120.0,179.0 L 121.0,178.0" fill="#319EF4"/>
	<path d="M 81.0,178.0 L 86.0,178.0 L 87.0,179.0 L 87.0,184.0 L 85.0,186.0 L 81.0,185.0 L 79.0,183.0 L 80.0,179.0 L 81.0,178.0" fill="#319EF4"/>
	<path d="M 41.0,178.0 L 46.0,178.0 L 47.0,179.0 L 47.0,184.0 L 45.0,186.0 L 41.0,185.0 L 39.0,183.0 L 40.0,179.0 L 41.0,178.0" fill="#319EF4"/>
	<path d="M 125.0,166.0 L 130.0,166.0 L 131.0,167.0 L 131.0,172.0 L 129.0,174.0 L 125.0,173.0 L 123.0,171.0 L 124.0,167.0 L 125.0,166.0" fill="#319EF4"/>
	<path d="M 85.0,166.0 L 90.0,166.0 L 91.0,167.0 L 91.0,172.0 L 89.0,174.0 L 85.0,173.0 L 83.0,171.0 L 84.0,167.0 L 85.0,166.0" fill="#319EF4"/>
	<path d="M 45.0,166.0 L 50.0,166.0 L 51.0,167.0 L 51.0,172.0 L 49.0,174.0 L 45.0,173.0 L 43.0,171.0 L 44.0,167.0 L 45.0,166.0" fill="#319EF4"/>
	<path d="M 129.0,154.0 L 134.0,154.0 L 135.0,155.0 L 135.0,160.0 L 133.0,162.0 L 129.0,161.0 L 127.0,159.0 L 128.0,155.0 L 129.0,154.0" fill="#319EF4"/>
	<path d="M 89.0,154.0 L 94.0,154.0 L 95.0,155.0 L 95.0,160.0 L 93.0,162.0 L 89.0,161.0 L 87.0,159.0 L 88.0,155.0 L 89.0,154.0" fill="#319EF4"/>
	<path d="M 49.0,154.0 L 54.0,154.0 L 55.0,155.0 L 55.0,160.0 L 53.0,162.0 L 49.0,161.0 L 47.0,159.0 L 48.0,155.0 L 49.0,154.0" fill="#319EF4"/>
	<path d="M 133.0,142.0 L 138.0,142.0 L 139.0,143.0 L 139.0,148.0 L 137.0,150.0 L 133.0,149.0 L 131.0,147.0 L 132.0,143.0 L 133.0,142.0" fill="#319EF4"/>
	<path d="M 93.0,142.0 L 98.0,142.0 L 99.0,143.0 L 99.0,148.0 L 97.0,150.0 L 93.0,149.0 L 91.0,147.0 L 92.0,143.0 L 93.0,142.0" fill="#319EF4"/>
	<path d="M 53.0,142.0 L 58.0,142.0 L 59.0,143.0 L 59.0,148.0 L 57.0,150.0 L 53.0,149.0 L 51.0,147.0 L 52.0,143.0 L 53.0,142.0" fill="#319EF4"/>
	<path d="M 98.0,188.0 L 103.0,189.0 L 104.0,192.0 L 96.0,192.0 L 98.0,188.0" fill="#2C9BF4"/>
	<path d="M 58.0,188.0 L 63.0,189.0 L 64.0,192.0 L 56.0,192.0 L 58.0,188.0" fill="#2C9BF4"/>
	<path d="M 18.0,188.0 L 23.0,189.0 L 24.0,192.0 L 16.0,192.0 L 18.0,188.0" fill="#2C9BF4"/>
</svg>
