<?xml version="1.0" ?>
<svg baseProfile="full" height="600px" version="1.1" viewBox="-20.1 -20.1 240.2 240.2" width="600px" xmlns="http://www.w3.org/2000/svg" xmlns:ev="http://www.w3.org/2001/xml-events" xmlns:xlink="http://www.w3.org/1999/xlink">
	<defs/>
	<path d="M 0.0,0.0 L 200.0,0.0 L 200.0,200.0 L 0.0,200.0 L 0.0,0.0" fill="#FDFDFD"/>
	<path d="M 72.0,39.0 L 82.0,39.0 L 95.0,42.0 L 106.0,48.0 L 113.0,54.0 L 119.0,62.0 L 124.0,60.0 L 132.0,57.0 L 145.0,57.0 L 153.0,60.0 L 163.0,69.0 L 167.0,77.0 L 168.0,81.0 L 168.0,90.0 L 173.0,91.0 L 182.0,97.0 L 189.0,106.0 L 193.0,116.0 L 193.0,129.0 L 190.0,139.0 L 185.0,147.0 L 180.0,152.0 L 173.0,157.0 L 162.0,160.0 L 39.0,160.0 L 29.0,157.0 L 20.0,151.0 L 12.0,142.0 L 7.0,130.0 L 7.0,114.0 L 12.0,102.0 L 21.0,92.0 L 27.0,88.0 L 30.0,72.0 L 36.0,60.0 L 44.0,51.0 L 54.0,44.0 L 61.0,41.0 L 72.0,39.0" fill="#FCFCFC"/>
	<path d="M 72.0,39.0 L 82.0,39.0 L 95.0,42.0 L 106.0,48.0 L 113.0,54.0 L 119.0,62.0 L 124.0,60.0 L 132.0,57.0 L 145.0,57.0 L 153.0,60.0 L 163.0,69.0 L 167.0,77.0 L 168.0,81.0 L 168.0,90.0 L 173.0,91.0 L 182.0,97.0 L 189.0,106.0 L 193.0,116.0 L 193.0,129.0 L 190.0,139.0 L 185.0,147.0 L 180.0,152.0 L 173.0,157.0 L 162.0,160.0 L 39.0,160.0 L 29.0,157.0 L 20.0,151.0 L 12.0,142.0 L 7.0,130.0 L 7.0,114.0 L 12.0,102.0 L 21.0,92.0 L 27.0,88.0 L 30.0,72.0 L 36.0,60.0 L 44.0,51.0 L 54.0,44.0 L 61.0,41.0 L 72.0,39.0 M 70.0,47.0 L 59.0,51.0 L 50.0,57.0 L 43.0,64.0 L 37.0,77.0 L 35.0,92.0 L 23.0,101.0 L 17.0,110.0 L 15.0,116.0 L 15.0,128.0 L 19.0,138.0 L 25.0,145.0 L 33.0,150.0 L 39.0,152.0 L 163.0,152.0 L 172.0,148.0 L 180.0,141.0 L 185.0,130.0 L 185.0,117.0 L 180.0,107.0 L 171.0,99.0 L 161.0,95.0 L 160.0,81.0 L 154.0,71.0 L 144.0,65.0 L 133.0,65.0 L 123.0,71.0 L 120.0,74.0 L 116.0,74.0 L 110.0,63.0 L 102.0,55.0 L 90.0,49.0 L 83.0,47.0 L 70.0,47.0" fill="#060606"/>
	<path d="M 97.0,76.0 L 107.0,76.0 L 115.0,81.0 L 120.0,89.0 L 120.0,99.0 L 113.0,111.0 L 109.0,117.0 L 108.0,124.0 L 96.0,124.0 L 96.0,113.0 L 106.0,98.0 L 107.0,92.0 L 104.0,89.0 L 99.0,89.0 L 97.0,91.0 L 96.0,96.0 L 84.0,96.0 L 84.0,89.0 L 89.0,81.0 L 97.0,76.0" fill="#040404"/>
	<path d="M 96.0,132.0 L 108.0,132.0 L 108.0,138.0 L 96.0,138.0 L 96.0,132.0" fill="#000000"/>
</svg>
