<?xml version="1.0" ?>
<svg baseProfile="full" height="600px" version="1.1" viewBox="-20.1 -20.1 240.2 240.2" width="600px" xmlns="http://www.w3.org/2000/svg" xmlns:ev="http://www.w3.org/2001/xml-events" xmlns:xlink="http://www.w3.org/1999/xlink">
	<defs/>
	<path d="M 0.0,0.0 L 200.0,0.0 L 200.0,200.0 L 0.0,200.0 L 0.0,0.0" fill="#FDFDFD"/>
	<path d="M 66.0,42.0 L 79.0,42.0 L 91.0,45.0 L 102.0,51.0 L 111.0,60.0 L 113.0,62.0 L 122.0,56.0 L 128.0,54.0 L 141.0,54.0 L 152.0,58.0 L 162.0,67.0 L 167.0,77.0 L 169.0,89.0 L 179.0,94.0 L 186.0,100.0 L 192.0,110.0 L 194.0,116.0 L 194.0,128.0 L 192.0,137.0 L 187.0,146.0 L 183.0,151.0 L 174.0,157.0 L 164.0,160.0 L 38.0,160.0 L 28.0,157.0 L 19.0,151.0 L 11.0,142.0 L 7.0,132.0 L 6.0,127.0 L 6.0,114.0 L 11.0,102.0 L 20.0,92.0 L 26.0,88.0 L 28.0,88.0 L 28.0,80.0 L 32.0,68.0 L 38.0,59.0 L 46.0,51.0 L 54.0,46.0 L 66.0,42.0" fill="#FCFCFC"/>
	<path d="M 66.0,42.0 L 79.0,42.0 L 91.0,45.0 L 102.0,51.0 L 111.0,60.0 L 113.0,62.0 L 122.0,56.0 L 128.0,54.0 L 141.0,54.0 L 152.0,58.0 L 162.0,67.0 L 167.0,77.0 L 169.0,89.0 L 179.0,94.0 L 186.0,100.0 L 192.0,110.0 L 194.0,116.0 L 194.0,128.0 L 192.0,137.0 L 187.0,146.0 L 183.0,151.0 L 174.0,157.0 L 164.0,160.0 L 38.0,160.0 L 28.0,157.0 L 19.0,151.0 L 11.0,142.0 L 7.0,132.0 L 6.0,127.0 L 6.0,114.0 L 11.0,102.0 L 20.0,92.0 L 26.0,88.0 L 28.0,88.0 L 28.0,80.0 L 32.0,68.0 L 38.0,59.0 L 46.0,51.0 L 54.0,46.0 L 66.0,42.0 M 67.0,50.0 L 57.0,54.0 L 48.0,60.0 L 41.0,68.0 L 36.0,81.0 L 35.0,91.0 L 32.0,94.0 L 23.0,100.0 L 17.0,108.0 L 14.0,116.0 L 14.0,128.0 L 18.0,138.0 L 24.0,145.0 L 32.0,150.0 L 38.0,152.0 L 164.0,152.0 L 173.0,148.0 L 181.0,141.0 L 186.0,129.0 L 186.0,117.0 L 181.0,107.0 L 172.0,99.0 L 168.0,97.0 L 161.0,95.0 L 160.0,81.0 L 156.0,73.0 L 152.0,68.0 L 146.0,64.0 L 141.0,62.0 L 129.0,62.0 L 121.0,66.0 L 116.0,71.0 L 114.0,73.0 L 108.0,73.0 L 106.0,67.0 L 98.0,58.0 L 85.0,51.0 L 80.0,50.0 L 67.0,50.0" fill="#060606"/>
	<path d="M 97.0,76.0 L 107.0,76.0 L 115.0,81.0 L 120.0,89.0 L 120.0,99.0 L 113.0,111.0 L 109.0,117.0 L 108.0,124.0 L 96.0,124.0 L 96.0,113.0 L 106.0,98.0 L 107.0,92.0 L 104.0,89.0 L 99.0,89.0 L 97.0,91.0 L 96.0,96.0 L 84.0,96.0 L 84.0,89.0 L 89.0,81.0 L 97.0,76.0" fill="#040404"/>
</svg>
