<?xml version="1.0" ?>
<svg baseProfile="full" height="600px" version="1.1" viewBox="-19.296000000000003 -19.296000000000003 230.592 230.592" width="600px" xmlns="http://www.w3.org/2000/svg" xmlns:ev="http://www.w3.org/2001/xml-events" xmlns:xlink="http://www.w3.org/1999/xlink">
	<defs/>
	<path d="M 0.0,0.0 L 192.0,0.0 L 192.0,192.0 L 0.0,192.0 L 0.0,0.0" fill="#FDFDFC"/>
	<path d="M 27.0,36.0 L 35.0,36.0 L 40.0,41.0 L 48.0,66.0 L 64.0,119.0 L 67.0,130.0 L 67.0,139.0 L 63.0,148.0 L 54.0,154.0 L 42.0,160.0 L 26.0,170.0 L 23.0,169.0 L 8.0,146.0 L 4.0,140.0 L 4.0,138.0 L 24.0,126.0 L 27.0,125.0 L 20.0,103.0 L 19.0,98.0 L 19.0,79.0 L 20.0,52.0 L 21.0,42.0 L 25.0,37.0 L 27.0,36.0" fill="#FDCB81"/>
	<path d="M 164.0,53.0 L 171.0,54.0 L 176.0,59.0 L 177.0,70.0 L 178.0,97.0 L 178.0,116.0 L 171.0,140.0 L 171.0,142.0 L 190.0,154.0 L 192.0,155.0 L 192.0,160.0 L 175.0,186.0 L 174.0,188.0 L 170.0,187.0 L 149.0,174.0 L 140.0,170.0 L 133.0,164.0 L 130.0,157.0 L 130.0,148.0 L 138.0,121.0 L 145.0,97.0 L 151.0,79.0 L 156.0,61.0 L 160.0,55.0 L 164.0,53.0" fill="#FDB64E"/>
	<path d="M 22.0,127.0 L 26.0,129.0 L 42.0,154.0 L 44.0,159.0 L 26.0,170.0 L 23.0,169.0 L 8.0,146.0 L 4.0,140.0 L 4.0,138.0 L 22.0,127.0" fill="#05988A"/>
	<path d="M 173.0,145.0 L 177.0,146.0 L 192.0,155.0 L 192.0,160.0 L 175.0,186.0 L 174.0,188.0 L 170.0,187.0 L 153.0,176.0 L 160.0,164.0 L 173.0,145.0" fill="#059789"/>
	<path d="M 147.0,95.0 L 156.0,95.0 L 163.0,99.0 L 167.0,104.0 L 169.0,108.0 L 169.0,119.0 L 161.0,145.0 L 160.0,146.0 L 155.0,146.0 L 154.0,145.0 L 154.0,138.0 L 160.0,118.0 L 160.0,109.0 L 156.0,105.0 L 149.0,104.0 L 144.0,106.0 L 145.0,97.0 L 147.0,95.0" fill="#E99733"/>
	<path d="M 40.0,78.0 L 51.0,78.0 L 53.0,82.0 L 53.0,88.0 L 50.0,87.0 L 41.0,87.0 L 37.0,91.0 L 37.0,100.0 L 44.0,123.0 L 43.0,127.0 L 42.0,128.0 L 37.0,128.0 L 33.0,118.0 L 28.0,101.0 L 28.0,92.0 L 31.0,85.0 L 38.0,79.0 L 40.0,78.0" fill="#F2A45C"/>
	<path d="M 45.0,93.0 L 50.0,94.0 L 52.0,95.0 L 51.0,100.0 L 47.0,102.0 L 42.0,102.0 L 41.0,101.0 L 41.0,96.0 L 45.0,93.0" fill="#FFE9AE"/>
	<path d="M 148.0,111.0 L 153.0,111.0 L 156.0,114.0 L 156.0,119.0 L 148.0,119.0 L 145.0,117.0 L 146.0,112.0 L 148.0,111.0" fill="#FFE9AE"/>
	<path d="M 167.0,168.0 L 172.0,169.0 L 173.0,174.0 L 171.0,176.0 L 166.0,175.0 L 165.0,170.0 L 167.0,168.0" fill="#A5D9D4"/>
	<path d="M 26.0,151.0 L 31.0,151.0 L 32.0,152.0 L 32.0,157.0 L 31.0,158.0 L 26.0,158.0 L 24.0,156.0 L 25.0,152.0 L 26.0,151.0" fill="#AADBD7"/>
</svg>
