<?xml version="1.0" ?>
<svg baseProfile="full" height="600px" version="1.1" viewBox="-19.296000000000003 -19.296000000000003 230.592 230.592" width="600px" xmlns="http://www.w3.org/2000/svg" xmlns:ev="http://www.w3.org/2001/xml-events" xmlns:xlink="http://www.w3.org/1999/xlink">
	<defs/>
	<path d="M 0.0,0.0 L 192.0,0.0 L 192.0,192.0 L 0.0,192.0 L 0.0,0.0" fill="#FDFDFC"/>
	<path d="M 88.0,20.0 L 95.0,21.0 L 99.0,25.0 L 100.0,27.0 L 101.0,49.0 L 106.0,44.0 L 113.0,44.0 L 117.0,46.0 L 121.0,54.0 L 136.0,98.0 L 137.0,131.0 L 155.0,142.0 L 164.0,148.0 L 159.0,157.0 L 147.0,176.0 L 143.0,180.0 L 118.0,165.0 L 109.0,161.0 L 104.0,157.0 L 100.0,149.0 L 99.0,128.0 L 93.0,136.0 L 84.0,140.0 L 57.0,156.0 L 53.0,152.0 L 41.0,133.0 L 36.0,124.0 L 45.0,118.0 L 63.0,107.0 L 64.0,74.0 L 71.0,53.0 L 74.0,45.0 L 81.0,25.0 L 85.0,21.0 L 88.0,20.0" fill="#FDB64D"/>
	<path d="M 88.0,20.0 L 95.0,21.0 L 99.0,25.0 L 100.0,27.0 L 101.0,52.0 L 100.0,67.0 L 95.0,65.0 L 86.0,65.0 L 78.0,69.0 L 74.0,75.0 L 73.0,78.0 L 73.0,110.0 L 78.0,111.0 L 79.0,110.0 L 80.0,79.0 L 83.0,74.0 L 87.0,72.0 L 94.0,72.0 L 99.0,77.0 L 100.0,80.0 L 100.0,124.0 L 97.0,131.0 L 93.0,136.0 L 84.0,140.0 L 57.0,156.0 L 53.0,152.0 L 41.0,133.0 L 36.0,124.0 L 45.0,118.0 L 63.0,107.0 L 64.0,74.0 L 71.0,53.0 L 74.0,45.0 L 81.0,25.0 L 85.0,21.0 L 88.0,20.0" fill="#FDCB80"/>
	<path d="M 55.0,112.0 L 60.0,117.0 L 72.0,137.0 L 76.0,144.0 L 67.0,150.0 L 56.0,156.0 L 49.0,146.0 L 37.0,126.0 L 37.0,123.0 L 55.0,112.0" fill="#059889"/>
	<path d="M 144.0,136.0 L 155.0,142.0 L 164.0,148.0 L 159.0,157.0 L 147.0,176.0 L 143.0,180.0 L 125.0,169.0 L 124.0,167.0 L 139.0,143.0 L 144.0,136.0" fill="#059789"/>
	<path d="M 106.0,88.0 L 115.0,88.0 L 123.0,93.0 L 127.0,99.0 L 128.0,103.0 L 128.0,134.0 L 126.0,136.0 L 121.0,135.0 L 120.0,134.0 L 119.0,104.0 L 117.0,99.0 L 112.0,97.0 L 105.0,98.0 L 100.0,102.0 L 100.0,91.0 L 106.0,88.0" fill="#E89632"/>
	<path d="M 86.0,64.0 L 95.0,64.0 L 100.0,67.0 L 100.0,78.0 L 94.0,73.0 L 87.0,73.0 L 83.0,75.0 L 81.0,79.0 L 80.0,110.0 L 78.0,112.0 L 73.0,111.0 L 72.0,110.0 L 72.0,78.0 L 76.0,70.0 L 83.0,65.0 L 86.0,64.0" fill="#F2A35B"/>
	<path d="M 26.0,44.0 L 33.0,45.0 L 54.0,52.0 L 56.0,54.0 L 55.0,59.0 L 54.0,60.0 L 46.0,59.0 L 25.0,52.0 L 24.0,51.0 L 24.0,46.0 L 26.0,44.0" fill="#E5DAC7"/>
	<path d="M 38.0,20.0 L 43.0,21.0 L 57.0,32.0 L 64.0,38.0 L 63.0,43.0 L 58.0,44.0 L 42.0,31.0 L 36.0,26.0 L 37.0,21.0 L 38.0,20.0" fill="#E5D9C6"/>
	<path d="M 150.0,20.0 L 155.0,21.0 L 156.0,26.0 L 147.0,34.0 L 134.0,44.0 L 129.0,43.0 L 128.0,38.0 L 136.0,31.0 L 150.0,20.0" fill="#E5D9C6"/>
	<path d="M 162.0,44.0 L 167.0,45.0 L 168.0,50.0 L 163.0,53.0 L 142.0,60.0 L 137.0,59.0 L 136.0,54.0 L 140.0,51.0 L 162.0,44.0" fill="#E5D9C6"/>
	<path d="M 87.0,80.0 L 94.0,81.0 L 96.0,83.0 L 96.0,87.0 L 94.0,88.0 L 86.0,88.0 L 84.0,87.0 L 85.0,82.0 L 87.0,80.0" fill="#FFE9AF"/>
	<path d="M 107.0,104.0 L 114.0,105.0 L 116.0,107.0 L 116.0,111.0 L 113.0,112.0 L 106.0,112.0 L 104.0,111.0 L 105.0,106.0 L 107.0,104.0" fill="#FEE8AD"/>
	<path d="M 138.0,160.0 L 143.0,161.0 L 144.0,166.0 L 142.0,168.0 L 137.0,167.0 L 136.0,162.0 L 138.0,160.0" fill="#A9DBD6"/>
	<path d="M 58.0,136.0 L 63.0,137.0 L 64.0,142.0 L 62.0,144.0 L 57.0,143.0 L 56.0,138.0 L 58.0,136.0" fill="#A9DBD6"/>
</svg>
