<?xml version="1.0" ?>
<svg baseProfile="full" height="600px" version="1.1" viewBox="-20.1 -20.1 240.2 240.2" width="600px" xmlns="http://www.w3.org/2000/svg" xmlns:ev="http://www.w3.org/2001/xml-events" xmlns:xlink="http://www.w3.org/1999/xlink">
	<defs/>
	<path d="M 0.0,0.0 L 200.0,0.0 L 200.0,200.0 L 0.0,200.0 L 0.0,0.0" fill="#FCFCFC"/>
	<path d="M 10.0,8.0 L 15.0,9.0 L 16.0,10.0 L 16.0,28.0 L 20.0,30.0 L 19.0,35.0 L 16.0,36.0 L 16.0,184.0 L 29.0,184.0 L 30.0,174.0 L 35.0,149.0 L 44.0,112.0 L 53.0,85.0 L 62.0,65.0 L 71.0,50.0 L 80.0,39.0 L 84.0,35.0 L 84.0,29.0 L 85.0,28.0 L 91.0,28.0 L 93.0,30.0 L 97.0,28.0 L 115.0,28.0 L 119.0,32.0 L 128.0,39.0 L 136.0,48.0 L 146.0,65.0 L 156.0,89.0 L 162.0,106.0 L 161.0,110.0 L 159.0,112.0 L 155.0,111.0 L 152.0,104.0 L 145.0,85.0 L 133.0,60.0 L 125.0,49.0 L 121.0,44.0 L 112.0,38.0 L 108.0,37.0 L 101.0,37.0 L 92.0,40.0 L 83.0,48.0 L 73.0,64.0 L 64.0,84.0 L 57.0,103.0 L 51.0,125.0 L 47.0,140.0 L 42.0,160.0 L 37.0,184.0 L 190.0,184.0 L 192.0,186.0 L 191.0,191.0 L 190.0,192.0 L 10.0,192.0 L 8.0,190.0 L 8.0,10.0 L 10.0,8.0" fill="#040404"/>
	<path d="M 38.0,28.0 L 43.0,29.0 L 44.0,34.0 L 42.0,36.0 L 37.0,35.0 L 36.0,30.0 L 38.0,28.0" fill="#0C0C0C"/>
	<path d="M 26.0,28.0 L 31.0,29.0 L 32.0,34.0 L 30.0,36.0 L 25.0,35.0 L 24.0,30.0 L 26.0,28.0" fill="#0C0C0C"/>
	<path d="M 74.0,28.0 L 79.0,29.0 L 80.0,34.0 L 78.0,36.0 L 73.0,35.0 L 72.0,30.0 L 74.0,28.0" fill="#030303"/>
	<path d="M 62.0,28.0 L 67.0,29.0 L 68.0,34.0 L 66.0,36.0 L 61.0,35.0 L 60.0,30.0 L 62.0,28.0" fill="#030303"/>
	<path d="M 50.0,28.0 L 55.0,29.0 L 56.0,34.0 L 54.0,36.0 L 49.0,35.0 L 48.0,30.0 L 50.0,28.0" fill="#030303"/>
</svg>
