<?xml version="1.0" ?>
<svg baseProfile="full" height="600px" version="1.1" viewBox="-20.1 -20.1 240.2 240.2" width="600px" xmlns="http://www.w3.org/2000/svg" xmlns:ev="http://www.w3.org/2001/xml-events" xmlns:xlink="http://www.w3.org/1999/xlink">
	<defs/>
	<path d="M 0.0,0.0 L 200.0,0.0 L 200.0,200.0 L 0.0,200.0 L 0.0,0.0" fill="#FCFCFC"/>
	<path d="M 22.0,76.0 L 27.0,77.0 L 29.0,82.0 L 29.0,135.0 L 25.0,188.0 L 72.0,188.0 L 72.0,174.0 L 73.0,151.0 L 73.0,110.0 L 75.0,108.0 L 125.0,108.0 L 127.0,110.0 L 127.0,160.0 L 128.0,171.0 L 128.0,188.0 L 175.0,188.0 L 171.0,136.0 L 171.0,81.0 L 174.0,76.0 L 179.0,77.0 L 180.0,78.0 L 180.0,135.0 L 183.0,178.0 L 184.0,194.0 L 182.0,196.0 L 18.0,196.0 L 17.0,195.0 L 17.0,181.0 L 20.0,142.0 L 20.0,78.0 L 22.0,76.0" fill="#090909"/>
	<path d="M 82.0,116.0 L 119.0,116.0 L 119.0,153.0 L 120.0,172.0 L 120.0,188.0 L 80.0,188.0 L 80.0,165.0 L 81.0,150.0 L 82.0,116.0" fill="#FCFCFC"/>
	<path d="M 97.0,3.0 L 103.0,3.0 L 122.0,17.0 L 141.0,31.0 L 160.0,45.0 L 179.0,59.0 L 189.0,66.0 L 190.0,72.0 L 189.0,73.0 L 183.0,73.0 L 164.0,59.0 L 145.0,45.0 L 126.0,31.0 L 107.0,17.0 L 102.0,13.0 L 97.0,14.0 L 76.0,30.0 L 62.0,40.0 L 43.0,54.0 L 27.0,66.0 L 16.0,74.0 L 11.0,73.0 L 10.0,68.0 L 21.0,59.0 L 39.0,46.0 L 55.0,34.0 L 74.0,20.0 L 93.0,6.0 L 97.0,3.0" fill="#080808"/>
</svg>
