<?xml version="1.0" ?>
<svg baseProfile="full" height="600px" version="1.1" viewBox="-20.1 -20.1 240.2 240.2" width="600px" xmlns="http://www.w3.org/2000/svg" xmlns:ev="http://www.w3.org/2001/xml-events" xmlns:xlink="http://www.w3.org/1999/xlink">
	<defs/>
	<path d="M 0.0,0.0 L 200.0,0.0 L 200.0,200.0 L 0.0,200.0 L 0.0,0.0" fill="#030303"/>
	<path d="M 0.0,0.0 L 200.0,0.0 L 200.0,200.0 L 0.0,200.0 L 0.0,0.0 M 78.0,4.0 L 4.0,78.0 L 5.0,83.0 L 10.0,84.0 L 15.0,79.0 L 16.0,186.0 L 18.0,188.0 L 182.0,188.0 L 184.0,186.0 L 184.0,84.0 L 197.0,84.0 L 199.0,82.0 L 198.0,77.0 L 176.0,55.0 L 175.0,27.0 L 172.0,24.0 L 143.0,23.0 L 135.0,15.0 L 127.0,8.0 L 122.0,4.0 L 78.0,4.0" fill="#FDFDFD"/>
	<path d="M 79.0,14.0 L 83.0,16.0 L 97.0,30.0 L 105.0,37.0 L 118.0,50.0 L 126.0,57.0 L 136.0,67.0 L 136.0,180.0 L 99.0,180.0 L 98.0,106.0 L 97.0,105.0 L 52.0,105.0 L 51.0,106.0 L 50.0,180.0 L 24.0,180.0 L 24.0,69.0 L 79.0,14.0" fill="#FCFCFC"/>
	<path d="M 144.0,75.0 L 151.0,81.0 L 153.0,83.0 L 176.0,84.0 L 176.0,180.0 L 144.0,180.0 L 144.0,75.0" fill="#FDFDFD"/>
	<path d="M 58.0,112.0 L 91.0,112.0 L 91.0,180.0 L 58.0,180.0 L 58.0,112.0" fill="#FAFAFA"/>
	<path d="M 90.0,12.0 L 120.0,12.0 L 136.0,28.0 L 137.0,46.0 L 142.0,46.0 L 143.0,45.0 L 144.0,32.0 L 152.0,32.0 L 153.0,54.0 L 158.0,55.0 L 160.0,55.0 L 160.0,32.0 L 166.0,32.0 L 167.0,58.0 L 177.0,68.0 L 185.0,75.0 L 185.0,76.0 L 157.0,76.0 L 149.0,69.0 L 137.0,57.0 L 129.0,50.0 L 116.0,37.0 L 108.0,30.0 L 96.0,18.0 L 90.0,13.0 L 90.0,12.0" fill="#F7F7F7"/>
</svg>
