<?xml version="1.0" ?>
<svg baseProfile="full" height="600px" version="1.1" viewBox="-20.1 -20.1 240.2 240.2" width="600px" xmlns="http://www.w3.org/2000/svg" xmlns:ev="http://www.w3.org/2001/xml-events" xmlns:xlink="http://www.w3.org/1999/xlink">
	<defs/>
	<path d="M 0.0,0.0 L 200.0,0.0 L 200.0,200.0 L 0.0,200.0 L 0.0,0.0" fill="#050505"/>
	<path d="M 98.0,45.0 L 104.0,46.0 L 127.0,59.0 L 152.0,72.0 L 175.0,85.0 L 177.0,90.0 L 178.0,102.0 L 178.0,169.0 L 177.0,188.0 L 128.0,188.0 L 128.0,122.0 L 124.0,118.0 L 74.0,118.0 L 73.0,119.0 L 72.0,126.0 L 72.0,188.0 L 24.0,188.0 L 22.0,170.0 L 22.0,101.0 L 23.0,86.0 L 45.0,74.0 L 71.0,60.0 L 93.0,48.0 L 98.0,45.0" fill="#FCFCFC"/>
	<path d="M 0.0,0.0 L 200.0,0.0 L 200.0,90.0 L 185.0,82.0 L 157.0,67.0 L 135.0,55.0 L 109.0,41.0 L 102.0,37.0 L 96.0,38.0 L 70.0,52.0 L 44.0,66.0 L 22.0,78.0 L 1.0,90.0 L 0.0,90.0 L 0.0,0.0" fill="#FDFDFD"/>
	<path d="M 13.0,91.0 L 15.0,91.0 L 15.0,169.0 L 17.0,194.0 L 18.0,195.0 L 182.0,195.0 L 183.0,194.0 L 185.0,170.0 L 185.0,91.0 L 190.0,93.0 L 194.0,95.0 L 200.0,94.0 L 200.0,200.0 L 0.0,200.0 L 0.0,94.0 L 6.0,95.0 L 13.0,91.0" fill="#FCFCFC"/>
	<path d="M 79.0,125.0 L 121.0,125.0 L 121.0,182.0 L 120.0,188.0 L 80.0,188.0 L 79.0,185.0 L 79.0,125.0" fill="#F9F9F9"/>
</svg>
