<?xml version="1.0" ?>
<svg baseProfile="full" height="600px" version="1.1" viewBox="-16.08 -16.08 192.16 192.16" width="600px" xmlns="http://www.w3.org/2000/svg" xmlns:ev="http://www.w3.org/2001/xml-events" xmlns:xlink="http://www.w3.org/1999/xlink">
	<defs/>
	<path d="M 0.0,0.0 L 160.0,0.0 L 160.0,160.0 L 0.0,160.0 L 0.0,0.0" fill="#D9F0FD"/>
	<path d="M 0.0,0.0 L 160.0,0.0 L 160.0,160.0 L 0.0,160.0 L 0.0,0.0 M 78.0,22.0 L 40.0,40.0 L 6.0,56.0 L 1.0,59.0 L 1.0,75.0 L 10.0,72.0 L 10.0,125.0 L 12.0,156.0 L 148.0,156.0 L 150.0,130.0 L 151.0,115.0 L 151.0,78.0 L 150.0,72.0 L 159.0,75.0 L 159.0,59.0 L 143.0,51.0 L 126.0,43.0 L 111.0,36.0 L 82.0,22.0 L 78.0,22.0" fill="#FDFCFC"/>
	<path d="M 78.0,22.0 L 84.0,23.0 L 111.0,36.0 L 135.0,47.0 L 158.0,58.0 L 159.0,59.0 L 159.0,75.0 L 150.0,72.0 L 151.0,78.0 L 151.0,115.0 L 149.0,147.0 L 148.0,156.0 L 12.0,156.0 L 10.0,125.0 L 10.0,72.0 L 1.0,75.0 L 1.0,59.0 L 18.0,50.0 L 46.0,37.0 L 78.0,22.0 M 77.0,39.0 L 48.0,53.0 L 20.0,66.0 L 15.0,69.0 L 15.0,135.0 L 16.0,136.0 L 54.0,136.0 L 56.0,95.0 L 104.0,95.0 L 104.0,102.0 L 105.0,107.0 L 106.0,136.0 L 145.0,136.0 L 147.0,118.0 L 147.0,79.0 L 145.0,69.0 L 129.0,61.0 L 102.0,48.0 L 82.0,39.0 L 77.0,39.0" fill="#B3D8EF"/>
	<path d="M 78.0,22.0 L 84.0,23.0 L 111.0,36.0 L 135.0,47.0 L 158.0,58.0 L 159.0,59.0 L 159.0,75.0 L 152.0,73.0 L 136.0,65.0 L 108.0,52.0 L 82.0,40.0 L 75.0,41.0 L 48.0,54.0 L 20.0,67.0 L 3.0,75.0 L 1.0,75.0 L 1.0,59.0 L 18.0,50.0 L 46.0,37.0 L 78.0,22.0" fill="#C94A4A"/>
	<path d="M 60.0,99.0 L 100.0,99.0 L 102.0,108.0 L 102.0,139.0 L 100.0,152.0 L 60.0,152.0 L 59.0,143.0 L 59.0,104.0 L 60.0,99.0" fill="#FDC29A"/>
	<path d="M 14.0,69.0 L 15.0,69.0 L 16.0,135.0 L 54.0,136.0 L 54.0,112.0 L 55.0,112.0 L 56.0,156.0 L 12.0,156.0 L 10.0,125.0 L 10.0,76.0 L 11.0,70.0 L 14.0,69.0" fill="#B4DAF1"/>
	<path d="M 79.0,26.0 L 85.0,28.0 L 109.0,39.0 L 125.0,47.0 L 153.0,60.0 L 155.0,61.0 L 155.0,69.0 L 149.0,67.0 L 122.0,54.0 L 94.0,41.0 L 81.0,35.0 L 76.0,36.0 L 47.0,50.0 L 19.0,63.0 L 5.0,69.0 L 5.0,61.0 L 30.0,49.0 L 52.0,39.0 L 68.0,31.0 L 79.0,26.0" fill="#F48B8B"/>
	<path d="M 56.0,95.0 L 104.0,95.0 L 105.0,102.0 L 105.0,149.0 L 104.0,156.0 L 56.0,156.0 L 55.0,144.0 L 55.0,99.0 L 56.0,95.0 M 60.0,99.0 L 59.0,104.0 L 59.0,143.0 L 60.0,152.0 L 100.0,152.0 L 102.0,139.0 L 102.0,108.0 L 100.0,99.0 L 60.0,99.0" fill="#A46D4D"/>
	<path d="M 14.0,69.0 L 15.0,69.0 L 16.0,152.0 L 55.0,152.0 L 55.0,144.0 L 56.0,144.0 L 56.0,156.0 L 12.0,156.0 L 10.0,125.0 L 10.0,76.0 L 11.0,70.0 L 14.0,69.0" fill="#809FC8"/>
	<path d="M 145.0,69.0 L 151.0,71.0 L 151.0,115.0 L 149.0,147.0 L 148.0,156.0 L 104.0,156.0 L 104.0,149.0 L 105.0,152.0 L 144.0,152.0 L 146.0,118.0 L 146.0,79.0 L 145.0,69.0" fill="#7A9BC6"/>
	<path d="M 90.0,120.0 L 96.0,121.0 L 97.0,126.0 L 94.0,128.0 L 89.0,128.0 L 87.0,126.0 L 88.0,121.0 L 90.0,120.0" fill="#A97251"/>
</svg>
