<?xml version="1.0" ?>
<svg baseProfile="full" height="600px" version="1.1" viewBox="-20.1 -20.1 240.2 240.2" width="600px" xmlns="http://www.w3.org/2000/svg" xmlns:ev="http://www.w3.org/2001/xml-events" xmlns:xlink="http://www.w3.org/1999/xlink">
	<defs/>
	<path d="M 0.0,0.0 L 200.0,0.0 L 200.0,200.0 L 0.0,200.0 L 0.0,0.0" fill="#FCFCFC"/>
	<path d="M 100.0,28.0 L 112.0,35.0 L 135.0,50.0 L 157.0,64.0 L 174.0,75.0 L 177.0,78.0 L 174.0,80.0 L 174.0,117.0 L 176.0,152.0 L 176.0,188.0 L 128.0,188.0 L 126.0,114.0 L 74.0,114.0 L 72.0,188.0 L 24.0,188.0 L 24.0,153.0 L 25.0,128.0 L 25.0,79.0 L 25.0,76.0 L 45.0,63.0 L 67.0,49.0 L 89.0,35.0 L 100.0,28.0" fill="#FCFCFC"/>
	<path d="M 97.0,20.0 L 103.0,20.0 L 122.0,32.0 L 139.0,43.0 L 161.0,57.0 L 178.0,68.0 L 195.0,79.0 L 195.0,85.0 L 189.0,86.0 L 182.0,81.0 L 182.0,115.0 L 184.0,159.0 L 184.0,194.0 L 182.0,196.0 L 18.0,196.0 L 16.0,194.0 L 16.0,160.0 L 17.0,129.0 L 18.0,118.0 L 18.0,81.0 L 11.0,86.0 L 6.0,86.0 L 5.0,85.0 L 5.0,79.0 L 27.0,65.0 L 52.0,49.0 L 77.0,33.0 L 97.0,20.0 M 100.0,28.0 L 81.0,40.0 L 56.0,56.0 L 34.0,70.0 L 24.0,77.0 L 25.0,79.0 L 25.0,128.0 L 24.0,153.0 L 24.0,188.0 L 72.0,188.0 L 74.0,114.0 L 126.0,114.0 L 128.0,188.0 L 176.0,188.0 L 176.0,152.0 L 174.0,117.0 L 174.0,80.0 L 177.0,77.0 L 152.0,61.0 L 135.0,50.0 L 110.0,34.0 L 100.0,28.0" fill="#080808"/>
	<path d="M 81.0,121.0 L 119.0,121.0 L 120.0,154.0 L 120.0,188.0 L 80.0,188.0 L 80.0,151.0 L 81.0,121.0" fill="#FDFDFD"/>
</svg>
