<?xml version="1.0" ?>
<svg baseProfile="full" height="600px" version="1.1" viewBox="-20.1 -20.1 240.2 240.2" width="600px" xmlns="http://www.w3.org/2000/svg" xmlns:ev="http://www.w3.org/2001/xml-events" xmlns:xlink="http://www.w3.org/1999/xlink">
	<defs/>
	<path d="M 0.0,0.0 L 200.0,0.0 L 200.0,200.0 L 0.0,200.0 L 0.0,0.0" fill="#040404"/>
	<path d="M 0.0,0.0 L 200.0,0.0 L 200.0,200.0 L 0.0,200.0 L 0.0,0.0 M 77.0,4.0 L 20.0,61.0 L 13.0,69.0 L 4.0,78.0 L 5.0,83.0 L 10.0,84.0 L 15.0,79.0 L 16.0,186.0 L 18.0,188.0 L 182.0,188.0 L 184.0,186.0 L 184.0,84.0 L 197.0,84.0 L 199.0,82.0 L 198.0,76.0 L 188.0,67.0 L 177.0,56.0 L 176.0,27.0 L 173.0,24.0 L 144.0,23.0 L 126.0,5.0 L 123.0,4.0 L 77.0,4.0" fill="#FDFDFD"/>
	<path d="M 78.0,14.0 L 86.0,20.0 L 113.0,47.0 L 121.0,54.0 L 133.0,66.0 L 133.0,180.0 L 97.0,180.0 L 96.0,106.0 L 95.0,105.0 L 51.0,105.0 L 50.0,106.0 L 49.0,180.0 L 24.0,180.0 L 24.0,69.0 L 55.0,38.0 L 62.0,30.0 L 78.0,14.0" fill="#FCFCFC"/>
	<path d="M 141.0,75.0 L 145.0,77.0 L 151.0,83.0 L 176.0,84.0 L 176.0,180.0 L 141.0,180.0 L 141.0,75.0" fill="#F9F9F9"/>
	<path d="M 57.0,112.0 L 89.0,112.0 L 89.0,180.0 L 57.0,180.0 L 57.0,112.0" fill="#FCFCFC"/>
	<path d="M 89.0,12.0 L 121.0,12.0 L 136.0,27.0 L 137.0,45.0 L 141.0,46.0 L 143.0,45.0 L 144.0,32.0 L 152.0,32.0 L 153.0,54.0 L 158.0,55.0 L 159.0,54.0 L 160.0,32.0 L 167.0,32.0 L 168.0,58.0 L 173.0,63.0 L 185.0,75.0 L 185.0,76.0 L 154.0,76.0 L 136.0,58.0 L 128.0,51.0 L 108.0,31.0 L 100.0,24.0 L 89.0,13.0 L 89.0,12.0" fill="#F9F9F9"/>
</svg>
