<?xml version="1.0" ?>
<svg baseProfile="full" height="600px" version="1.1" viewBox="-16.08 -16.08 192.16 192.16" width="600px" xmlns="http://www.w3.org/2000/svg" xmlns:ev="http://www.w3.org/2001/xml-events" xmlns:xlink="http://www.w3.org/1999/xlink">
	<defs/>
	<path d="M 0.0,0.0 L 160.0,0.0 L 160.0,160.0 L 0.0,160.0 L 0.0,0.0" fill="#D9F0FD"/>
	<path d="M 0.0,0.0 L 160.0,0.0 L 160.0,160.0 L 0.0,160.0 L 0.0,0.0 M 78.0,17.0 L 52.0,30.0 L 33.0,40.0 L 3.0,55.0 L 2.0,56.0 L 2.0,73.0 L 11.0,69.0 L 11.0,147.0 L 12.0,156.0 L 148.0,156.0 L 150.0,130.0 L 150.0,70.0 L 158.0,73.0 L 158.0,56.0 L 139.0,46.0 L 103.0,28.0 L 84.0,18.0 L 78.0,17.0" fill="#FDFCFC"/>
	<path d="M 78.0,17.0 L 84.0,18.0 L 99.0,26.0 L 115.0,34.0 L 157.0,55.0 L 158.0,56.0 L 158.0,73.0 L 150.0,70.0 L 150.0,130.0 L 148.0,156.0 L 12.0,156.0 L 11.0,147.0 L 11.0,69.0 L 2.0,73.0 L 2.0,56.0 L 21.0,46.0 L 43.0,35.0 L 62.0,25.0 L 78.0,17.0 M 78.0,34.0 L 36.0,55.0 L 17.0,65.0 L 15.0,66.0 L 15.0,135.0 L 16.0,136.0 L 55.0,136.0 L 56.0,92.0 L 104.0,92.0 L 106.0,136.0 L 145.0,136.0 L 146.0,119.0 L 146.0,70.0 L 145.0,66.0 L 123.0,55.0 L 104.0,45.0 L 82.0,34.0 L 78.0,34.0" fill="#B3DAF3"/>
	<path d="M 78.0,17.0 L 84.0,18.0 L 99.0,26.0 L 115.0,34.0 L 157.0,55.0 L 158.0,56.0 L 158.0,73.0 L 139.0,64.0 L 94.0,41.0 L 82.0,35.0 L 76.0,36.0 L 36.0,56.0 L 17.0,66.0 L 2.0,73.0 L 2.0,56.0 L 21.0,46.0 L 43.0,35.0 L 62.0,25.0 L 78.0,17.0" fill="#C94B4B"/>
	<path d="M 59.0,96.0 L 101.0,96.0 L 101.0,144.0 L 100.0,152.0 L 60.0,152.0 L 59.0,141.0 L 59.0,96.0" fill="#FDC29A"/>
	<path d="M 145.0,67.0 L 151.0,69.0 L 150.0,130.0 L 148.0,156.0 L 104.0,156.0 L 105.0,110.0 L 106.0,110.0 L 106.0,136.0 L 145.0,136.0 L 145.0,67.0" fill="#B4DAF2"/>
	<path d="M 79.0,21.0 L 85.0,23.0 L 104.0,33.0 L 146.0,54.0 L 154.0,59.0 L 154.0,66.0 L 148.0,64.0 L 115.0,47.0 L 83.0,31.0 L 78.0,30.0 L 55.0,42.0 L 27.0,56.0 L 8.0,66.0 L 6.0,66.0 L 6.0,59.0 L 20.0,51.0 L 52.0,35.0 L 71.0,25.0 L 79.0,21.0" fill="#F48A8A"/>
	<path d="M 56.0,92.0 L 104.0,92.0 L 105.0,96.0 L 105.0,143.0 L 104.0,156.0 L 56.0,156.0 L 55.0,140.0 L 55.0,95.0 L 56.0,92.0 M 59.0,96.0 L 59.0,141.0 L 60.0,152.0 L 100.0,152.0 L 101.0,144.0 L 101.0,96.0 L 59.0,96.0" fill="#A46E4E"/>
	<path d="M 145.0,67.0 L 151.0,69.0 L 150.0,130.0 L 148.0,156.0 L 104.0,156.0 L 104.0,143.0 L 105.0,143.0 L 105.0,152.0 L 144.0,152.0 L 145.0,119.0 L 145.0,67.0" fill="#7A9AC5"/>
	<path d="M 13.0,67.0 L 15.0,67.0 L 16.0,152.0 L 55.0,152.0 L 55.0,140.0 L 56.0,140.0 L 56.0,156.0 L 12.0,156.0 L 11.0,147.0 L 11.0,68.0 L 13.0,67.0" fill="#7999C5"/>
	<path d="M 90.0,120.0 L 96.0,121.0 L 96.0,126.0 L 94.0,128.0 L 88.0,127.0 L 88.0,121.0 L 90.0,120.0" fill="#A56E4D"/>
</svg>
