<?xml version="1.0" ?>
<svg baseProfile="full" height="600px" version="1.1" viewBox="-20.1 -20.1 240.2 240.2" width="600px" xmlns="http://www.w3.org/2000/svg" xmlns:ev="http://www.w3.org/2001/xml-events" xmlns:xlink="http://www.w3.org/1999/xlink">
	<defs/>
	<path d="M 0.0,0.0 L 200.0,0.0 L 200.0,200.0 L 0.0,200.0 L 0.0,0.0" fill="#FCFCFC"/>
	<path d="M 99.0,41.0 L 104.0,42.0 L 128.0,56.0 L 154.0,71.0 L 176.0,84.0 L 178.0,102.0 L 178.0,169.0 L 177.0,188.0 L 128.0,188.0 L 128.0,126.0 L 126.0,120.0 L 74.0,120.0 L 73.0,121.0 L 72.0,133.0 L 72.0,188.0 L 23.0,188.0 L 22.0,174.0 L 22.0,107.0 L 23.0,89.0 L 24.0,84.0 L 52.0,68.0 L 80.0,52.0 L 99.0,41.0" fill="#FCFCFC"/>
	<path d="M 98.0,32.0 L 103.0,32.0 L 120.0,42.0 L 146.0,57.0 L 170.0,71.0 L 196.0,86.0 L 199.0,88.0 L 199.0,94.0 L 198.0,95.0 L 193.0,95.0 L 186.0,91.0 L 187.0,114.0 L 187.0,157.0 L 185.0,187.0 L 184.0,194.0 L 182.0,196.0 L 18.0,196.0 L 16.0,194.0 L 13.0,158.0 L 13.0,121.0 L 14.0,91.0 L 7.0,95.0 L 2.0,95.0 L 1.0,94.0 L 1.0,88.0 L 27.0,73.0 L 55.0,57.0 L 81.0,42.0 L 98.0,32.0 M 99.0,41.0 L 76.0,54.0 L 52.0,68.0 L 29.0,81.0 L 24.0,84.0 L 23.0,89.0 L 22.0,107.0 L 22.0,174.0 L 23.0,188.0 L 72.0,188.0 L 72.0,133.0 L 73.0,121.0 L 74.0,120.0 L 126.0,120.0 L 128.0,126.0 L 128.0,188.0 L 177.0,188.0 L 178.0,169.0 L 178.0,102.0 L 176.0,84.0 L 152.0,70.0 L 126.0,55.0 L 102.0,41.0 L 99.0,41.0" fill="#080808"/>
	<path d="M 80.0,127.0 L 121.0,127.0 L 121.0,178.0 L 120.0,188.0 L 80.0,188.0 L 79.0,183.0 L 79.0,128.0 L 80.0,127.0" fill="#FBFBFB"/>
</svg>
