<?xml version="1.0" ?>
<svg baseProfile="full" height="600px" version="1.1" viewBox="-20.1 -20.1 240.2 240.2" width="600px" xmlns="http://www.w3.org/2000/svg" xmlns:ev="http://www.w3.org/2001/xml-events" xmlns:xlink="http://www.w3.org/1999/xlink">
	<defs/>
	<path d="M 0.0,0.0 L 200.0,0.0 L 200.0,200.0 L 0.0,200.0 L 0.0,0.0" fill="#FDFDFD"/>
	<path d="M 157.0,49.0 L 163.0,49.0 L 169.0,56.0 L 174.0,66.0 L 175.0,73.0 L 182.0,68.0 L 187.0,69.0 L 190.0,76.0 L 192.0,86.0 L 192.0,108.0 L 189.0,120.0 L 187.0,124.0 L 191.0,125.0 L 192.0,130.0 L 184.0,168.0 L 192.0,168.0 L 192.0,176.0 L 8.0,176.0 L 8.0,168.0 L 136.0,168.0 L 128.0,130.0 L 129.0,125.0 L 133.0,124.0 L 129.0,114.0 L 128.0,107.0 L 128.0,90.0 L 132.0,74.0 L 134.0,72.0 L 139.0,73.0 L 143.0,76.0 L 148.0,61.0 L 154.0,52.0 L 157.0,49.0" fill="#050505"/>
	<path d="M 14.0,24.0 L 169.0,24.0 L 174.0,27.0 L 176.0,30.0 L 176.0,52.0 L 171.0,47.0 L 168.0,44.0 L 168.0,32.0 L 16.0,32.0 L 16.0,136.0 L 122.0,136.0 L 123.0,144.0 L 14.0,144.0 L 9.0,140.0 L 8.0,137.0 L 8.0,30.0 L 12.0,25.0 L 14.0,24.0" fill="#010101"/>
	<path d="M 137.0,132.0 L 183.0,132.0 L 181.0,144.0 L 176.0,167.0 L 175.0,168.0 L 145.0,168.0 L 142.0,158.0 L 137.0,135.0 L 137.0,132.0" fill="#FBFBFB"/>
	<path d="M 181.0,79.0 L 183.0,83.0 L 184.0,87.0 L 184.0,109.0 L 179.0,122.0 L 178.0,124.0 L 156.0,124.0 L 156.0,117.0 L 159.0,106.0 L 166.0,94.0 L 181.0,79.0" fill="#F9F9F9"/>
	<path d="M 56.0,152.0 L 125.0,152.0 L 126.0,160.0 L 56.0,160.0 L 56.0,152.0" fill="#000000"/>
	<path d="M 44.0,55.0 L 51.0,61.0 L 68.0,78.0 L 68.0,79.0 L 58.0,81.0 L 62.0,90.0 L 61.0,94.0 L 58.0,95.0 L 52.0,83.0 L 45.0,90.0 L 44.0,90.0 L 44.0,55.0" fill="#0B0B0B"/>
	<path d="M 138.0,84.0 L 144.0,89.0 L 151.0,101.0 L 150.0,112.0 L 148.0,124.0 L 143.0,124.0 L 139.0,117.0 L 136.0,106.0 L 136.0,91.0 L 138.0,84.0" fill="#F6F6F6"/>
	<path d="M 159.0,59.0 L 162.0,60.0 L 166.0,68.0 L 168.0,74.0 L 168.0,81.0 L 160.0,90.0 L 156.0,94.0 L 152.0,88.0 L 152.0,74.0 L 156.0,63.0 L 159.0,59.0" fill="#F5F5F5"/>
</svg>
