<?xml version="1.0" ?>
<svg baseProfile="full" height="600px" version="1.1" viewBox="-20.1 -20.1 240.2 240.2" width="600px" xmlns="http://www.w3.org/2000/svg" xmlns:ev="http://www.w3.org/2001/xml-events" xmlns:xlink="http://www.w3.org/1999/xlink">
	<defs/>
	<path d="M 0.0,0.0 L 200.0,0.0 L 200.0,200.0 L 0.0,200.0 L 0.0,0.0" fill="#FDFDFD"/>
	<path d="M 159.0,26.0 L 161.0,28.0 L 170.0,69.0 L 175.0,90.0 L 184.0,132.0 L 185.0,135.0 L 185.0,142.0 L 178.0,144.0 L 167.0,144.0 L 163.0,140.0 L 160.0,132.0 L 142.0,136.0 L 127.0,136.0 L 119.0,132.0 L 109.0,123.0 L 103.0,118.0 L 102.0,124.0 L 96.0,138.0 L 88.0,146.0 L 79.0,150.0 L 61.0,154.0 L 58.0,154.0 L 59.0,158.0 L 59.0,166.0 L 54.0,171.0 L 40.0,174.0 L 38.0,169.0 L 32.0,140.0 L 23.0,101.0 L 15.0,65.0 L 15.0,58.0 L 22.0,56.0 L 33.0,56.0 L 38.0,62.0 L 40.0,68.0 L 59.0,64.0 L 73.0,64.0 L 81.0,68.0 L 91.0,77.0 L 96.0,81.0 L 104.0,62.0 L 112.0,54.0 L 121.0,50.0 L 142.0,46.0 L 141.0,42.0 L 141.0,34.0 L 146.0,29.0 L 159.0,26.0" fill="#0A0A0A"/>
	<path d="M 141.0,52.0 L 144.0,52.0 L 151.0,84.0 L 159.0,119.0 L 159.0,125.0 L 143.0,129.0 L 139.0,130.0 L 129.0,130.0 L 121.0,126.0 L 106.0,111.0 L 102.0,108.0 L 98.0,117.0 L 91.0,134.0 L 84.0,141.0 L 77.0,144.0 L 59.0,148.0 L 56.0,148.0 L 48.0,111.0 L 41.0,81.0 L 41.0,75.0 L 57.0,71.0 L 61.0,70.0 L 70.0,70.0 L 80.0,75.0 L 94.0,89.0 L 98.0,92.0 L 103.0,80.0 L 109.0,66.0 L 116.0,59.0 L 123.0,56.0 L 141.0,52.0" fill="#FAFAFA"/>
	<path d="M 47.0,82.0 L 55.0,82.0 L 63.0,85.0 L 73.0,94.0 L 81.0,104.0 L 87.0,114.0 L 87.0,120.0 L 82.0,128.0 L 73.0,134.0 L 62.0,138.0 L 60.0,136.0 L 47.0,84.0 L 47.0,82.0" fill="#020202"/>
	<path d="M 152.0,34.0 L 156.0,34.0 L 166.0,80.0 L 175.0,119.0 L 178.0,134.0 L 178.0,137.0 L 176.0,138.0 L 170.0,138.0 L 168.0,136.0 L 160.0,100.0 L 151.0,58.0 L 147.0,41.0 L 147.0,36.0 L 152.0,34.0" fill="#F6F6F6"/>
	<path d="M 25.0,62.0 L 30.0,62.0 L 32.0,64.0 L 47.0,133.0 L 53.0,160.0 L 52.0,165.0 L 44.0,166.0 L 35.0,126.0 L 27.0,90.0 L 22.0,66.0 L 22.0,63.0 L 25.0,62.0" fill="#F6F6F6"/>
</svg>
