<?xml version="1.0" ?>
<svg baseProfile="full" height="600px" version="1.1" viewBox="-16.08 -16.08 192.16 192.16" width="600px" xmlns="http://www.w3.org/2000/svg" xmlns:ev="http://www.w3.org/2001/xml-events" xmlns:xlink="http://www.w3.org/1999/xlink">
	<defs/>
	<path d="M 0.0,0.0 L 160.0,0.0 L 160.0,160.0 L 0.0,160.0 L 0.0,0.0" fill="#F0F7FD"/>
	<path d="M 0.0,0.0 L 160.0,0.0 L 160.0,160.0 L 0.0,160.0 L 0.0,0.0 M 24.0,4.0 L 24.0,20.0 L 36.0,20.0 L 36.0,45.0 L 38.0,54.0 L 44.0,66.0 L 51.0,74.0 L 59.0,79.0 L 61.0,79.0 L 61.0,81.0 L 55.0,83.0 L 46.0,91.0 L 40.0,100.0 L 36.0,112.0 L 36.0,140.0 L 24.0,140.0 L 24.0,156.0 L 136.0,156.0 L 136.0,140.0 L 124.0,140.0 L 124.0,113.0 L 121.0,103.0 L 116.0,94.0 L 109.0,86.0 L 101.0,81.0 L 99.0,81.0 L 99.0,79.0 L 105.0,77.0 L 113.0,70.0 L 119.0,61.0 L 123.0,51.0 L 124.0,46.0 L 124.0,20.0 L 136.0,20.0 L 136.0,4.0 L 24.0,4.0" fill="#FDFDFD"/>
	<path d="M 24.0,4.0 L 136.0,4.0 L 136.0,20.0 L 124.0,20.0 L 124.0,46.0 L 120.0,59.0 L 115.0,67.0 L 109.0,74.0 L 101.0,79.0 L 99.0,79.0 L 99.0,81.0 L 105.0,83.0 L 114.0,91.0 L 120.0,101.0 L 123.0,108.0 L 124.0,113.0 L 124.0,140.0 L 136.0,140.0 L 136.0,156.0 L 24.0,156.0 L 24.0,140.0 L 36.0,140.0 L 36.0,112.0 L 40.0,100.0 L 48.0,89.0 L 57.0,82.0 L 61.0,81.0 L 61.0,79.0 L 55.0,77.0 L 46.0,69.0 L 40.0,59.0 L 37.0,52.0 L 36.0,45.0 L 36.0,20.0 L 24.0,20.0 L 24.0,4.0 M 40.0,28.0 L 40.0,46.0 L 43.0,56.0 L 49.0,66.0 L 58.0,74.0 L 68.0,79.0 L 70.0,79.0 L 70.0,81.0 L 64.0,83.0 L 54.0,89.0 L 46.0,98.0 L 41.0,109.0 L 40.0,113.0 L 40.0,132.0 L 120.0,132.0 L 120.0,114.0 L 117.0,104.0 L 111.0,94.0 L 102.0,86.0 L 92.0,81.0 L 90.0,81.0 L 90.0,79.0 L 96.0,77.0 L 106.0,71.0 L 114.0,62.0 L 119.0,50.0 L 120.0,45.0 L 120.0,28.0 L 40.0,28.0" fill="#4E7AB5"/>
	<path d="M 40.0,136.0 L 120.0,136.0 L 120.0,144.0 L 132.0,144.0 L 132.0,152.0 L 28.0,152.0 L 28.0,144.0 L 40.0,144.0 L 40.0,136.0" fill="#89B5EE"/>
	<path d="M 28.0,8.0 L 132.0,8.0 L 132.0,16.0 L 120.0,16.0 L 120.0,24.0 L 40.0,24.0 L 40.0,16.0 L 28.0,16.0 L 28.0,8.0" fill="#89B5EE"/>
	<path d="M 71.0,76.0 L 89.0,76.0 L 87.0,78.0 L 84.0,78.0 L 84.0,112.0 L 89.0,114.0 L 98.0,120.0 L 107.0,129.0 L 108.0,132.0 L 52.0,132.0 L 55.0,127.0 L 63.0,119.0 L 74.0,112.0 L 76.0,112.0 L 76.0,78.0 L 71.0,77.0 L 71.0,76.0" fill="#FDC49D"/>
	<path d="M 36.0,132.0 L 124.0,132.0 L 124.0,140.0 L 136.0,140.0 L 136.0,156.0 L 24.0,156.0 L 24.0,140.0 L 36.0,140.0 L 36.0,132.0 M 40.0,136.0 L 40.0,144.0 L 28.0,144.0 L 28.0,152.0 L 132.0,152.0 L 132.0,144.0 L 120.0,144.0 L 120.0,136.0 L 40.0,136.0" fill="#4E7AB5"/>
	<path d="M 120.0,28.0 L 124.0,28.0 L 124.0,46.0 L 120.0,59.0 L 115.0,67.0 L 109.0,74.0 L 101.0,79.0 L 99.0,79.0 L 99.0,81.0 L 105.0,83.0 L 114.0,91.0 L 120.0,101.0 L 123.0,108.0 L 124.0,113.0 L 124.0,132.0 L 120.0,132.0 L 119.0,114.0 L 116.0,104.0 L 110.0,94.0 L 102.0,87.0 L 90.0,81.0 L 90.0,79.0 L 105.0,71.0 L 113.0,62.0 L 118.0,50.0 L 119.0,45.0 L 120.0,28.0" fill="#7E90A0"/>
	<path d="M 36.0,28.0 L 40.0,28.0 L 41.0,46.0 L 44.0,56.0 L 50.0,66.0 L 58.0,73.0 L 70.0,79.0 L 70.0,81.0 L 55.0,89.0 L 47.0,98.0 L 42.0,109.0 L 41.0,113.0 L 40.0,132.0 L 36.0,132.0 L 36.0,112.0 L 40.0,100.0 L 48.0,89.0 L 57.0,82.0 L 61.0,81.0 L 61.0,79.0 L 55.0,77.0 L 46.0,69.0 L 40.0,59.0 L 37.0,52.0 L 36.0,45.0 L 36.0,28.0" fill="#7E90A0"/>
</svg>
