<?xml version="1.0" ?>
<svg baseProfile="full" height="600px" version="1.1" viewBox="-16.08 -16.08 192.16 192.16" width="600px" xmlns="http://www.w3.org/2000/svg" xmlns:ev="http://www.w3.org/2001/xml-events" xmlns:xlink="http://www.w3.org/1999/xlink">
	<defs/>
	<path d="M 0.0,0.0 L 160.0,0.0 L 160.0,160.0 L 0.0,160.0 L 0.0,0.0" fill="#FDFDFD"/>
	<path d="M 125.0,25.0 L 129.0,25.0 L 137.0,62.0 L 143.0,89.0 L 147.0,106.0 L 147.0,110.0 L 140.0,112.0 L 135.0,112.0 L 133.0,106.0 L 133.0,104.0 L 119.0,107.0 L 101.0,107.0 L 91.0,102.0 L 84.0,96.0 L 77.0,108.0 L 70.0,115.0 L 62.0,119.0 L 47.0,123.0 L 42.0,123.0 L 44.0,133.0 L 32.0,135.0 L 29.0,126.0 L 13.0,54.0 L 13.0,50.0 L 20.0,48.0 L 25.0,48.0 L 27.0,55.0 L 36.0,54.0 L 46.0,52.0 L 59.0,53.0 L 69.0,58.0 L 76.0,64.0 L 82.0,53.0 L 90.0,45.0 L 100.0,40.0 L 112.0,37.0 L 118.0,37.0 L 117.0,34.0 L 117.0,27.0 L 125.0,25.0" fill="#EFF6FC"/>
	<path d="M 125.0,25.0 L 129.0,25.0 L 137.0,62.0 L 143.0,89.0 L 147.0,106.0 L 147.0,110.0 L 140.0,112.0 L 135.0,112.0 L 133.0,106.0 L 133.0,104.0 L 119.0,107.0 L 101.0,107.0 L 91.0,102.0 L 84.0,96.0 L 77.0,108.0 L 70.0,115.0 L 62.0,119.0 L 47.0,123.0 L 42.0,123.0 L 44.0,133.0 L 32.0,135.0 L 29.0,126.0 L 13.0,54.0 L 13.0,50.0 L 20.0,48.0 L 25.0,48.0 L 27.0,55.0 L 36.0,54.0 L 46.0,52.0 L 59.0,53.0 L 69.0,58.0 L 76.0,64.0 L 82.0,53.0 L 90.0,45.0 L 100.0,40.0 L 112.0,37.0 L 118.0,37.0 L 117.0,34.0 L 117.0,27.0 L 125.0,25.0 M 109.0,41.0 L 96.0,45.0 L 87.0,52.0 L 81.0,62.0 L 78.0,72.0 L 68.0,61.0 L 60.0,57.0 L 56.0,56.0 L 43.0,56.0 L 34.0,58.0 L 36.0,70.0 L 45.0,111.0 L 47.0,119.0 L 58.0,117.0 L 67.0,113.0 L 74.0,107.0 L 80.0,95.0 L 82.0,88.0 L 91.0,98.0 L 97.0,102.0 L 104.0,104.0 L 118.0,104.0 L 126.0,102.0 L 125.0,95.0 L 117.0,57.0 L 113.0,41.0 L 109.0,41.0" fill="#5983BB"/>
	<path d="M 36.0,61.0 L 45.0,62.0 L 54.0,66.0 L 61.0,72.0 L 71.0,86.0 L 72.0,88.0 L 71.0,97.0 L 67.0,105.0 L 59.0,112.0 L 50.0,116.0 L 48.0,116.0 L 41.0,86.0 L 36.0,61.0" fill="#FDC49E"/>
	<path d="M 17.0,52.0 L 23.0,52.0 L 25.0,59.0 L 31.0,59.0 L 39.0,95.0 L 44.0,116.0 L 44.0,120.0 L 38.0,121.0 L 40.0,130.0 L 34.0,131.0 L 28.0,107.0 L 21.0,75.0 L 17.0,57.0 L 17.0,52.0" fill="#88B4ED"/>
	<path d="M 120.0,29.0 L 126.0,29.0 L 130.0,44.0 L 141.0,95.0 L 143.0,103.0 L 143.0,108.0 L 137.0,108.0 L 136.0,100.0 L 129.0,101.0 L 120.0,60.0 L 116.0,40.0 L 122.0,39.0 L 120.0,29.0" fill="#88B4ED"/>
	<path d="M 20.0,48.0 L 25.0,48.0 L 27.0,55.0 L 34.0,56.0 L 44.0,103.0 L 48.0,119.0 L 47.0,123.0 L 42.0,123.0 L 44.0,133.0 L 32.0,135.0 L 29.0,126.0 L 13.0,54.0 L 13.0,50.0 L 20.0,48.0 M 17.0,52.0 L 18.0,60.0 L 24.0,88.0 L 33.0,128.0 L 34.0,131.0 L 40.0,130.0 L 38.0,121.0 L 44.0,120.0 L 43.0,113.0 L 32.0,62.0 L 31.0,59.0 L 25.0,59.0 L 23.0,52.0 L 17.0,52.0" fill="#5983BB"/>
	<path d="M 108.0,38.0 L 112.0,38.0 L 112.0,41.0 L 96.0,46.0 L 87.0,53.0 L 81.0,65.0 L 79.0,73.0 L 74.0,68.0 L 65.0,60.0 L 56.0,57.0 L 43.0,57.0 L 34.0,58.0 L 34.0,56.0 L 31.0,55.0 L 46.0,52.0 L 59.0,53.0 L 69.0,58.0 L 76.0,64.0 L 82.0,53.0 L 90.0,45.0 L 100.0,40.0 L 108.0,38.0" fill="#8495A5"/>
	<path d="M 81.0,87.0 L 86.0,92.0 L 95.0,100.0 L 104.0,103.0 L 118.0,103.0 L 126.0,102.0 L 126.0,104.0 L 129.0,105.0 L 119.0,107.0 L 101.0,107.0 L 91.0,102.0 L 84.0,96.0 L 77.0,108.0 L 70.0,115.0 L 62.0,119.0 L 52.0,122.0 L 48.0,122.0 L 49.0,118.0 L 61.0,115.0 L 70.0,110.0 L 76.0,102.0 L 79.0,95.0 L 81.0,87.0" fill="#8394A4"/>
</svg>
