<?xml version="1.0" ?>
<svg baseProfile="full" height="600px" version="1.1" viewBox="-12.06 -12.06 144.12 144.12" width="600px" xmlns="http://www.w3.org/2000/svg" xmlns:ev="http://www.w3.org/2001/xml-events" xmlns:xlink="http://www.w3.org/1999/xlink">
	<defs/>
	<path d="M 0.0,0.0 L 120.0,0.0 L 120.0,120.0 L 0.0,120.0 L 0.0,0.0" fill="#FCFCFC"/>
	<path d="M 22.0,12.0 L 98.0,12.0 L 100.0,14.0 L 99.0,19.0 L 98.0,20.0 L 92.0,20.0 L 92.0,32.0 L 89.0,43.0 L 82.0,54.0 L 77.0,59.0 L 75.0,59.0 L 75.0,61.0 L 79.0,63.0 L 87.0,73.0 L 92.0,85.0 L 92.0,100.0 L 98.0,100.0 L 100.0,102.0 L 99.0,107.0 L 98.0,108.0 L 22.0,108.0 L 20.0,106.0 L 21.0,101.0 L 22.0,100.0 L 28.0,100.0 L 28.0,85.0 L 33.0,73.0 L 40.0,64.0 L 43.0,61.0 L 45.0,61.0 L 45.0,59.0 L 41.0,57.0 L 33.0,47.0 L 29.0,37.0 L 28.0,33.0 L 28.0,20.0 L 22.0,20.0 L 20.0,18.0 L 21.0,13.0 L 22.0,12.0" fill="#030303"/>
	<path d="M 36.0,32.0 L 84.0,32.0 L 81.0,41.0 L 75.0,49.0 L 65.0,58.0 L 66.0,63.0 L 76.0,72.0 L 82.0,81.0 L 84.0,88.0 L 75.0,88.0 L 72.0,82.0 L 67.0,78.0 L 65.0,77.0 L 55.0,77.0 L 49.0,81.0 L 46.0,85.0 L 45.0,88.0 L 36.0,88.0 L 39.0,79.0 L 45.0,71.0 L 55.0,62.0 L 54.0,57.0 L 44.0,48.0 L 38.0,39.0 L 36.0,32.0" fill="#FAFAFA"/>
</svg>
