<?xml version="1.0" ?>
<svg baseProfile="full" height="600px" version="1.1" viewBox="-12.06 -12.06 144.12 144.12" width="600px" xmlns="http://www.w3.org/2000/svg" xmlns:ev="http://www.w3.org/2001/xml-events" xmlns:xlink="http://www.w3.org/1999/xlink">
	<defs/>
	<path d="M 0.0,0.0 L 120.0,0.0 L 120.0,120.0 L 0.0,120.0 L 0.0,0.0" fill="#FCFCFC"/>
	<path d="M 35.0,11.0 L 43.0,11.0 L 76.0,19.0 L 102.0,25.0 L 104.0,27.0 L 103.0,32.0 L 96.0,32.0 L 94.0,42.0 L 89.0,51.0 L 81.0,59.0 L 74.0,63.0 L 82.0,79.0 L 82.0,96.0 L 80.0,102.0 L 85.0,103.0 L 86.0,108.0 L 85.0,109.0 L 77.0,109.0 L 44.0,101.0 L 18.0,95.0 L 16.0,93.0 L 17.0,88.0 L 24.0,88.0 L 26.0,78.0 L 31.0,69.0 L 39.0,61.0 L 44.0,58.0 L 46.0,58.0 L 39.0,43.0 L 38.0,40.0 L 38.0,24.0 L 40.0,18.0 L 35.0,17.0 L 34.0,12.0 L 35.0,11.0" fill="#050505"/>
	<path d="M 45.0,31.0 L 52.0,32.0 L 84.0,39.0 L 86.0,40.0 L 84.0,45.0 L 78.0,52.0 L 67.0,58.0 L 64.0,60.0 L 65.0,64.0 L 72.0,74.0 L 75.0,81.0 L 75.0,89.0 L 68.0,88.0 L 36.0,81.0 L 34.0,80.0 L 36.0,74.0 L 45.0,66.0 L 55.0,61.0 L 55.0,56.0 L 48.0,46.0 L 45.0,38.0 L 45.0,31.0" fill="#F6F6F6"/>
	<path d="M 51.0,35.0 L 70.0,39.0 L 78.0,41.0 L 77.0,45.0 L 72.0,49.0 L 70.0,50.0 L 61.0,50.0 L 55.0,46.0 L 51.0,40.0 L 51.0,35.0" fill="#0B0B0B"/>
</svg>
