<?xml version="1.0" ?>
<svg baseProfile="full" height="600px" version="1.1" viewBox="-19.296000000000003 -19.296000000000003 230.592 230.592" width="600px" xmlns="http://www.w3.org/2000/svg" xmlns:ev="http://www.w3.org/2001/xml-events" xmlns:xlink="http://www.w3.org/1999/xlink">
	<defs/>
	<path d="M 0.0,0.0 L 192.0,0.0 L 192.0,192.0 L 0.0,192.0 L 0.0,0.0" fill="#FDFDFD"/>
	<path d="M 52.0,15.0 L 77.0,15.0 L 143.0,17.0 L 146.0,19.0 L 146.0,28.0 L 145.0,29.0 L 134.0,29.0 L 134.0,39.0 L 132.0,41.0 L 133.0,48.0 L 133.0,61.0 L 127.0,73.0 L 120.0,82.0 L 109.0,94.0 L 107.0,95.0 L 109.0,99.0 L 119.0,111.0 L 128.0,125.0 L 131.0,134.0 L 131.0,141.0 L 128.0,153.0 L 131.0,156.0 L 131.0,165.0 L 140.0,165.0 L 142.0,167.0 L 142.0,176.0 L 141.0,177.0 L 84.0,177.0 L 48.0,175.0 L 46.0,173.0 L 46.0,165.0 L 48.0,163.0 L 58.0,163.0 L 58.0,154.0 L 61.0,150.0 L 59.0,144.0 L 59.0,133.0 L 62.0,124.0 L 70.0,113.0 L 79.0,103.0 L 85.0,97.0 L 83.0,93.0 L 74.0,83.0 L 65.0,69.0 L 62.0,63.0 L 61.0,58.0 L 61.0,49.0 L 63.0,43.0 L 62.0,38.0 L 62.0,27.0 L 51.0,27.0 L 50.0,26.0 L 50.0,17.0 L 52.0,15.0" fill="#BBDDF8"/>
	<path d="M 52.0,15.0 L 77.0,15.0 L 143.0,17.0 L 146.0,19.0 L 146.0,28.0 L 145.0,29.0 L 134.0,29.0 L 134.0,39.0 L 132.0,41.0 L 96.0,41.0 L 64.0,40.0 L 62.0,38.0 L 62.0,27.0 L 51.0,27.0 L 50.0,26.0 L 50.0,17.0 L 52.0,15.0" fill="#8E7066"/>
	<path d="M 60.0,152.0 L 99.0,152.0 L 128.0,153.0 L 131.0,156.0 L 131.0,165.0 L 140.0,165.0 L 142.0,167.0 L 142.0,176.0 L 141.0,177.0 L 84.0,177.0 L 48.0,175.0 L 46.0,173.0 L 46.0,165.0 L 48.0,163.0 L 58.0,163.0 L 58.0,154.0 L 60.0,152.0" fill="#8D6F65"/>
	<path d="M 69.0,57.0 L 109.0,57.0 L 125.0,58.0 L 123.0,64.0 L 116.0,75.0 L 102.0,90.0 L 97.0,94.0 L 93.0,92.0 L 85.0,84.0 L 75.0,71.0 L 70.0,61.0 L 69.0,57.0" fill="#FD9905"/>
	<path d="M 62.0,28.0 L 109.0,28.0 L 133.0,29.0 L 133.0,40.0 L 132.0,41.0 L 96.0,41.0 L 64.0,40.0 L 62.0,38.0 L 62.0,28.0" fill="#6F4F44"/>
	<path d="M 60.0,152.0 L 99.0,152.0 L 128.0,153.0 L 130.0,154.0 L 130.0,165.0 L 104.0,165.0 L 59.0,164.0 L 59.0,153.0 L 60.0,152.0" fill="#6E4E43"/>
	<path d="M 94.0,100.0 L 99.0,101.0 L 100.0,106.0 L 98.0,108.0 L 93.0,107.0 L 92.0,102.0 L 94.0,100.0" fill="#FA9C0F"/>
</svg>
