<?xml version="1.0" ?>
<svg baseProfile="full" height="600px" version="1.1" viewBox="-20.1 -20.1 240.2 240.2" width="600px" xmlns="http://www.w3.org/2000/svg" xmlns:ev="http://www.w3.org/2001/xml-events" xmlns:xlink="http://www.w3.org/1999/xlink">
	<defs/>
	<path d="M 0.0,0.0 L 200.0,0.0 L 200.0,200.0 L 0.0,200.0 L 0.0,0.0" fill="#FAFAFA"/>
	<path d="M 14.0,140.0 L 58.0,140.0 L 60.0,142.0 L 60.0,186.0 L 58.0,188.0 L 14.0,188.0 L 12.0,186.0 L 12.0,142.0 L 14.0,140.0" fill="#010101"/>
	<path d="M 78.0,76.0 L 122.0,76.0 L 124.0,78.0 L 124.0,122.0 L 122.0,124.0 L 78.0,124.0 L 76.0,122.0 L 76.0,78.0 L 78.0,76.0" fill="#BCBCBC"/>
	<path d="M 14.0,76.0 L 58.0,76.0 L 60.0,78.0 L 60.0,122.0 L 58.0,124.0 L 14.0,124.0 L 12.0,122.0 L 12.0,78.0 L 14.0,76.0" fill="#010101"/>
	<path d="M 78.0,12.0 L 122.0,12.0 L 124.0,14.0 L 124.0,58.0 L 122.0,60.0 L 78.0,60.0 L 76.0,58.0 L 76.0,14.0 L 78.0,12.0" fill="#BCBCBC"/>
	<path d="M 14.0,12.0 L 58.0,12.0 L 60.0,14.0 L 60.0,58.0 L 58.0,60.0 L 14.0,60.0 L 12.0,58.0 L 12.0,14.0 L 14.0,12.0" fill="#010101"/>
	<path d="M 84.0,148.0 L 116.0,148.0 L 116.0,180.0 L 84.0,180.0 L 84.0,148.0" fill="#FDFDFD"/>
	<path d="M 20.0,148.0 L 52.0,148.0 L 52.0,180.0 L 20.0,180.0 L 20.0,148.0" fill="#FCFCFC"/>
	<path d="M 84.0,84.0 L 116.0,84.0 L 116.0,116.0 L 84.0,116.0 L 84.0,84.0" fill="#FDFDFD"/>
	<path d="M 20.0,84.0 L 52.0,84.0 L 52.0,116.0 L 20.0,116.0 L 20.0,84.0" fill="#FCFCFC"/>
	<path d="M 84.0,20.0 L 116.0,20.0 L 116.0,52.0 L 84.0,52.0 L 84.0,20.0" fill="#FDFDFD"/>
	<path d="M 20.0,20.0 L 52.0,20.0 L 52.0,52.0 L 20.0,52.0 L 20.0,20.0" fill="#FCFCFC"/>
	<path d="M 155.0,160.0 L 186.0,160.0 L 188.0,162.0 L 187.0,167.0 L 186.0,168.0 L 155.0,168.0 L 153.0,166.0 L 154.0,161.0 L 155.0,160.0" fill="#030303"/>
	<path d="M 166.0,96.0 L 186.0,96.0 L 188.0,98.0 L 187.0,103.0 L 186.0,104.0 L 166.0,104.0 L 164.0,102.0 L 165.0,97.0 L 166.0,96.0" fill="#030303"/>
	<path d="M 171.0,32.0 L 186.0,32.0 L 188.0,34.0 L 187.0,39.0 L 186.0,40.0 L 171.0,40.0 L 169.0,38.0 L 170.0,33.0 L 171.0,32.0" fill="#070707"/>
</svg>
