<?xml version="1.0" ?>
<svg baseProfile="full" height="600px" version="1.1" viewBox="-9.648000000000001 -9.648000000000001 115.296 115.296" width="600px" xmlns="http://www.w3.org/2000/svg" xmlns:ev="http://www.w3.org/2001/xml-events" xmlns:xlink="http://www.w3.org/1999/xlink">
	<defs/>
	<path d="M 0.0,0.0 L 96.0,0.0 L 96.0,96.0 L 0.0,96.0 L 0.0,0.0" fill="#FDFDFD"/>
	<path d="M 66.0,64.0 L 82.0,64.0 L 84.0,66.0 L 84.0,82.0 L 82.0,84.0 L 66.0,84.0 L 64.0,82.0 L 64.0,66.0 L 66.0,64.0" fill="#BEBEBE"/>
	<path d="M 10.0,64.0 L 26.0,64.0 L 28.0,66.0 L 28.0,82.0 L 26.0,84.0 L 10.0,84.0 L 8.0,82.0 L 8.0,66.0 L 10.0,64.0" fill="#0C0C0C"/>
	<path d="M 66.0,36.0 L 82.0,36.0 L 84.0,38.0 L 84.0,54.0 L 82.0,56.0 L 66.0,56.0 L 64.0,54.0 L 64.0,38.0 L 66.0,36.0" fill="#C1C1C1"/>
	<path d="M 10.0,36.0 L 26.0,36.0 L 28.0,38.0 L 28.0,54.0 L 26.0,56.0 L 10.0,56.0 L 8.0,54.0 L 8.0,38.0 L 10.0,36.0" fill="#0C0C0C"/>
	<path d="M 66.0,8.0 L 82.0,8.0 L 84.0,10.0 L 84.0,26.0 L 82.0,28.0 L 66.0,28.0 L 64.0,26.0 L 64.0,10.0 L 66.0,8.0" fill="#C0C0C0"/>
	<path d="M 10.0,8.0 L 26.0,8.0 L 28.0,10.0 L 28.0,26.0 L 26.0,28.0 L 10.0,28.0 L 8.0,26.0 L 8.0,10.0 L 10.0,8.0" fill="#0C0C0C"/>
	<path d="M 71.0,72.0 L 84.0,72.0 L 84.0,80.0 L 71.0,80.0 L 71.0,72.0" fill="#070707"/>
	<path d="M 76.0,44.0 L 84.0,44.0 L 84.0,52.0 L 76.0,52.0 L 76.0,44.0" fill="#0C0C0C"/>
	<path d="M 79.0,16.0 L 84.0,16.0 L 84.0,24.0 L 79.0,24.0 L 79.0,16.0" fill="#000000"/>
</svg>
