<?xml version="1.0" ?>
<svg baseProfile="full" height="600px" version="1.1" viewBox="-20.1 -20.1 240.2 240.2" width="600px" xmlns="http://www.w3.org/2000/svg" xmlns:ev="http://www.w3.org/2001/xml-events" xmlns:xlink="http://www.w3.org/1999/xlink">
	<defs/>
	<path d="M 0.0,0.0 L 200.0,0.0 L 200.0,200.0 L 0.0,200.0 L 0.0,0.0" fill="#FCFCFC"/>
	<path d="M 0.0,0.0 L 6.0,0.0 L 47.0,41.0 L 51.0,37.0 L 58.0,29.0 L 66.0,22.0 L 82.0,14.0 L 90.0,12.0 L 109.0,12.0 L 123.0,16.0 L 134.0,22.0 L 144.0,31.0 L 150.0,38.0 L 158.0,54.0 L 160.0,66.0 L 160.0,80.0 L 157.0,92.0 L 150.0,106.0 L 136.0,121.0 L 133.0,126.0 L 132.0,175.0 L 129.0,181.0 L 123.0,184.0 L 115.0,184.0 L 114.0,189.0 L 107.0,195.0 L 105.0,196.0 L 95.0,196.0 L 89.0,192.0 L 85.0,187.0 L 85.0,184.0 L 76.0,184.0 L 69.0,178.0 L 68.0,175.0 L 67.0,128.0 L 61.0,120.0 L 52.0,110.0 L 46.0,100.0 L 41.0,87.0 L 40.0,79.0 L 40.0,66.0 L 41.0,60.0 L 48.0,66.0 L 49.0,82.0 L 53.0,95.0 L 62.0,108.0 L 69.0,115.0 L 75.0,125.0 L 76.0,129.0 L 76.0,152.0 L 124.0,152.0 L 124.0,128.0 L 127.0,119.0 L 134.0,110.0 L 144.0,99.0 L 149.0,89.0 L 151.0,79.0 L 151.0,63.0 L 147.0,51.0 L 141.0,41.0 L 134.0,33.0 L 123.0,26.0 L 113.0,22.0 L 106.0,21.0 L 91.0,21.0 L 79.0,25.0 L 69.0,31.0 L 60.0,39.0 L 55.0,47.0 L 57.0,51.0 L 79.0,73.0 L 86.0,72.0 L 99.0,85.0 L 103.0,83.0 L 114.0,72.0 L 119.0,73.0 L 120.0,78.0 L 105.0,93.0 L 104.0,105.0 L 97.0,103.0 L 0.0,6.0 L 0.0,0.0" fill="#040404"/>
	<path d="M 76.0,160.0 L 124.0,160.0 L 124.0,174.0 L 122.0,176.0 L 78.0,176.0 L 76.0,174.0 L 76.0,160.0" fill="#FCFCFC"/>
	<path d="M 96.0,113.0 L 104.0,113.0 L 104.0,144.0 L 96.0,144.0 L 96.0,113.0" fill="#010101"/>
	<path d="M 93.0,184.0 L 107.0,184.0 L 103.0,188.0 L 97.0,188.0 L 93.0,184.0" fill="#E4E4E4"/>
</svg>
