<?xml version="1.0" ?>
<svg baseProfile="full" height="600px" version="1.1" viewBox="-12.864 -12.864 153.728 153.728" width="600px" xmlns="http://www.w3.org/2000/svg" xmlns:ev="http://www.w3.org/2001/xml-events" xmlns:xlink="http://www.w3.org/1999/xlink">
	<defs/>
	<path d="M 0.0,0.0 L 128.0,0.0 L 128.0,128.0 L 0.0,128.0 L 0.0,0.0" fill="#FCFCFC"/>
	<path d="M 58.0,20.0 L 68.0,20.0 L 79.0,24.0 L 86.0,30.0 L 92.0,42.0 L 92.0,54.0 L 86.0,66.0 L 77.0,76.0 L 72.0,88.0 L 56.0,88.0 L 52.0,78.0 L 48.0,72.0 L 41.0,65.0 L 37.0,57.0 L 36.0,54.0 L 36.0,42.0 L 42.0,30.0 L 51.0,23.0 L 58.0,20.0" fill="#FBFBFB"/>
	<path d="M 57.0,12.0 L 69.0,12.0 L 79.0,15.0 L 87.0,20.0 L 94.0,27.0 L 99.0,37.0 L 100.0,41.0 L 100.0,54.0 L 96.0,65.0 L 90.0,74.0 L 83.0,82.0 L 81.0,86.0 L 80.0,112.0 L 71.0,113.0 L 67.0,116.0 L 61.0,116.0 L 57.0,113.0 L 48.0,112.0 L 47.0,86.0 L 42.0,77.0 L 37.0,73.0 L 31.0,64.0 L 28.0,53.0 L 28.0,41.0 L 33.0,29.0 L 42.0,19.0 L 51.0,14.0 L 57.0,12.0 M 58.0,20.0 L 48.0,25.0 L 42.0,30.0 L 36.0,42.0 L 36.0,54.0 L 40.0,63.0 L 47.0,71.0 L 51.0,76.0 L 55.0,85.0 L 56.0,88.0 L 72.0,88.0 L 77.0,76.0 L 86.0,66.0 L 92.0,54.0 L 92.0,42.0 L 86.0,30.0 L 79.0,24.0 L 68.0,20.0 L 58.0,20.0" fill="#060606"/>
	<path d="M 56.0,96.0 L 72.0,96.0 L 72.0,104.0 L 56.0,104.0 L 56.0,96.0" fill="#FAFAFA"/>
	<path d="M 108.0,48.0 L 120.0,48.0 L 120.0,56.0 L 108.0,56.0 L 108.0,48.0" fill="#000000"/>
	<path d="M 8.0,48.0 L 20.0,48.0 L 20.0,56.0 L 8.0,56.0 L 8.0,48.0" fill="#000000"/>
	<path d="M 97.0,81.0 L 101.0,83.0 L 106.0,88.0 L 104.0,92.0 L 100.0,94.0 L 93.0,87.0 L 95.0,83.0 L 97.0,81.0" fill="#060606"/>
	<path d="M 29.0,81.0 L 33.0,83.0 L 35.0,87.0 L 28.0,94.0 L 24.0,92.0 L 22.0,88.0 L 29.0,81.0" fill="#060606"/>
	<path d="M 100.0,10.0 L 104.0,12.0 L 106.0,16.0 L 99.0,23.0 L 95.0,21.0 L 93.0,17.0 L 100.0,10.0" fill="#060606"/>
	<path d="M 26.0,10.0 L 30.0,12.0 L 35.0,17.0 L 33.0,21.0 L 29.0,23.0 L 22.0,16.0 L 24.0,12.0 L 26.0,10.0" fill="#060606"/>
</svg>
