<?xml version="1.0" ?>
<svg baseProfile="full" height="600px" version="1.1" viewBox="-16.08 -16.08 192.16 192.16" width="600px" xmlns="http://www.w3.org/2000/svg" xmlns:ev="http://www.w3.org/2001/xml-events" xmlns:xlink="http://www.w3.org/1999/xlink">
	<defs/>
	<path d="M 0.0,0.0 L 160.0,0.0 L 160.0,160.0 L 0.0,160.0 L 0.0,0.0" fill="#FDEBA0"/>
	<path d="M 0.0,0.0 L 160.0,0.0 L 160.0,160.0 L 0.0,160.0 L 0.0,0.0 M 70.0,4.0 L 54.0,8.0 L 38.0,16.0 L 28.0,24.0 L 21.0,31.0 L 12.0,45.0 L 7.0,57.0 L 4.0,70.0 L 4.0,91.0 L 9.0,108.0 L 16.0,122.0 L 24.0,132.0 L 31.0,139.0 L 45.0,148.0 L 56.0,153.0 L 69.0,156.0 L 90.0,156.0 L 106.0,152.0 L 122.0,144.0 L 132.0,136.0 L 139.0,129.0 L 148.0,115.0 L 154.0,100.0 L 156.0,90.0 L 156.0,69.0 L 152.0,54.0 L 144.0,38.0 L 136.0,28.0 L 129.0,21.0 L 115.0,12.0 L 104.0,7.0 L 89.0,4.0 L 70.0,4.0" fill="#FEFDFC"/>
	<path d="M 70.0,4.0 L 89.0,4.0 L 104.0,7.0 L 120.0,15.0 L 131.0,23.0 L 139.0,31.0 L 148.0,45.0 L 153.0,56.0 L 156.0,69.0 L 156.0,90.0 L 152.0,106.0 L 144.0,122.0 L 136.0,132.0 L 129.0,139.0 L 115.0,148.0 L 103.0,153.0 L 90.0,156.0 L 69.0,156.0 L 54.0,152.0 L 38.0,144.0 L 28.0,136.0 L 21.0,129.0 L 12.0,115.0 L 7.0,102.0 L 4.0,91.0 L 4.0,70.0 L 8.0,54.0 L 16.0,38.0 L 24.0,28.0 L 31.0,21.0 L 45.0,12.0 L 57.0,7.0 L 70.0,4.0 M 71.0,8.0 L 55.0,12.0 L 39.0,20.0 L 27.0,31.0 L 20.0,39.0 L 12.0,55.0 L 8.0,71.0 L 8.0,88.0 L 11.0,102.0 L 18.0,118.0 L 25.0,127.0 L 36.0,138.0 L 50.0,146.0 L 57.0,149.0 L 72.0,152.0 L 89.0,152.0 L 108.0,147.0 L 119.0,141.0 L 128.0,134.0 L 136.0,126.0 L 143.0,116.0 L 149.0,102.0 L 152.0,89.0 L 152.0,70.0 L 148.0,54.0 L 140.0,39.0 L 131.0,29.0 L 124.0,22.0 L 110.0,14.0 L 95.0,9.0 L 88.0,8.0 L 71.0,8.0" fill="#C69C5B"/>
	<path d="M 33.0,45.0 L 43.0,45.0 L 49.0,49.0 L 53.0,47.0 L 56.0,45.0 L 67.0,45.0 L 73.0,49.0 L 76.0,55.0 L 76.0,62.0 L 71.0,72.0 L 60.0,84.0 L 52.0,91.0 L 47.0,90.0 L 32.0,76.0 L 26.0,67.0 L 24.0,61.0 L 24.0,54.0 L 29.0,47.0 L 33.0,45.0" fill="#F58C8C"/>
	<path d="M 97.0,52.0 L 106.0,52.0 L 111.0,54.0 L 114.0,52.0 L 123.0,52.0 L 128.0,58.0 L 127.0,67.0 L 121.0,75.0 L 113.0,83.0 L 109.0,84.0 L 99.0,75.0 L 93.0,67.0 L 92.0,58.0 L 97.0,52.0" fill="#F48C8C"/>
	<path d="M 33.0,45.0 L 43.0,45.0 L 49.0,49.0 L 53.0,47.0 L 56.0,45.0 L 67.0,45.0 L 73.0,49.0 L 76.0,55.0 L 76.0,62.0 L 71.0,72.0 L 60.0,84.0 L 52.0,91.0 L 47.0,90.0 L 32.0,76.0 L 26.0,67.0 L 24.0,61.0 L 24.0,54.0 L 29.0,47.0 L 33.0,45.0 M 35.0,49.0 L 30.0,53.0 L 29.0,55.0 L 29.0,62.0 L 35.0,72.0 L 47.0,84.0 L 51.0,85.0 L 59.0,78.0 L 68.0,68.0 L 71.0,62.0 L 71.0,55.0 L 66.0,50.0 L 59.0,49.0 L 53.0,54.0 L 51.0,59.0 L 49.0,59.0 L 47.0,54.0 L 41.0,49.0 L 35.0,49.0" fill="#CA4A47"/>
	<path d="M 40.0,105.0 L 44.0,107.0 L 53.0,113.0 L 62.0,117.0 L 74.0,119.0 L 89.0,119.0 L 103.0,115.0 L 114.0,109.0 L 118.0,105.0 L 122.0,106.0 L 120.0,110.0 L 110.0,117.0 L 98.0,122.0 L 88.0,124.0 L 73.0,124.0 L 58.0,121.0 L 45.0,114.0 L 38.0,108.0 L 38.0,106.0 L 40.0,105.0" fill="#C59B58"/>
	<path d="M 97.0,52.0 L 106.0,52.0 L 111.0,54.0 L 114.0,52.0 L 123.0,52.0 L 128.0,58.0 L 127.0,67.0 L 121.0,75.0 L 113.0,83.0 L 109.0,84.0 L 99.0,75.0 L 93.0,67.0 L 92.0,58.0 L 97.0,52.0 M 99.0,55.0 L 95.0,59.0 L 96.0,66.0 L 105.0,76.0 L 109.0,80.0 L 113.0,78.0 L 122.0,69.0 L 125.0,64.0 L 125.0,59.0 L 121.0,55.0 L 115.0,55.0 L 111.0,60.0 L 109.0,60.0 L 105.0,55.0 L 99.0,55.0" fill="#CA4A48"/>
</svg>
