<?xml version="1.0" ?>
<svg baseProfile="full" height="600px" version="1.1" viewBox="-20.1 -20.1 240.2 240.2" width="600px" xmlns="http://www.w3.org/2000/svg" xmlns:ev="http://www.w3.org/2001/xml-events" xmlns:xlink="http://www.w3.org/1999/xlink">
	<defs/>
	<path d="M 0.0,0.0 L 200.0,0.0 L 200.0,200.0 L 0.0,200.0 L 0.0,0.0" fill="#FDFDFD"/>
	<path d="M 67.0,101.0 L 112.0,101.0 L 113.0,166.0 L 114.0,167.0 L 136.0,168.0 L 136.0,184.0 L 64.0,184.0 L 64.0,168.0 L 86.0,167.0 L 87.0,166.0 L 87.0,121.0 L 86.0,120.0 L 67.0,119.0 L 67.0,101.0" fill="#FDFDFD"/>
	<path d="M 61.0,92.0 L 117.0,92.0 L 120.0,94.0 L 120.0,160.0 L 142.0,160.0 L 144.0,162.0 L 144.0,190.0 L 142.0,192.0 L 58.0,192.0 L 56.0,190.0 L 56.0,162.0 L 58.0,160.0 L 80.0,160.0 L 80.0,127.0 L 60.0,127.0 L 59.0,126.0 L 59.0,94.0 L 61.0,92.0 M 67.0,101.0 L 67.0,119.0 L 86.0,120.0 L 87.0,121.0 L 87.0,166.0 L 86.0,167.0 L 64.0,168.0 L 64.0,184.0 L 136.0,184.0 L 136.0,168.0 L 114.0,167.0 L 113.0,166.0 L 112.0,101.0 L 67.0,101.0" fill="#050505"/>
	<path d="M 94.0,27.0 L 102.0,27.0 L 110.0,34.0 L 115.0,46.0 L 115.0,65.0 L 111.0,77.0 L 106.0,83.0 L 103.0,85.0 L 93.0,85.0 L 87.0,80.0 L 83.0,72.0 L 81.0,65.0 L 81.0,46.0 L 86.0,34.0 L 94.0,27.0" fill="#070707"/>
	<path d="M 95.0,38.0 L 101.0,38.0 L 106.0,43.0 L 109.0,50.0 L 109.0,62.0 L 105.0,71.0 L 100.0,75.0 L 95.0,75.0 L 89.0,68.0 L 87.0,61.0 L 87.0,50.0 L 91.0,41.0 L 95.0,38.0" fill="#F8F8F8"/>
</svg>
