<?xml version="1.0" ?>
<svg baseProfile="full" height="600px" version="1.1" viewBox="-19.296000000000003 -19.296000000000003 230.592 230.592" width="600px" xmlns="http://www.w3.org/2000/svg" xmlns:ev="http://www.w3.org/2001/xml-events" xmlns:xlink="http://www.w3.org/1999/xlink">
	<defs/>
	<path d="M 0.0,0.0 L 192.0,0.0 L 192.0,192.0 L 0.0,192.0 L 0.0,0.0" fill="#FDFEFD"/>
	<path d="M 56.0,69.0 L 112.0,69.0 L 112.0,144.0 L 136.0,144.0 L 136.0,176.0 L 56.0,176.0 L 56.0,144.0 L 80.0,144.0 L 80.0,101.0 L 56.0,101.0 L 56.0,69.0" fill="#8CC34B"/>
	<path d="M 90.0,9.0 L 97.0,9.0 L 106.0,13.0 L 113.0,21.0 L 115.0,26.0 L 115.0,41.0 L 111.0,50.0 L 106.0,55.0 L 99.0,59.0 L 89.0,59.0 L 83.0,56.0 L 78.0,51.0 L 74.0,45.0 L 73.0,41.0 L 73.0,26.0 L 77.0,18.0 L 85.0,11.0 L 90.0,9.0" fill="#8DC44C"/>
</svg>
