<?xml version="1.0" ?>
<svg baseProfile="full" height="600px" version="1.1" viewBox="-20.1 -20.1 240.2 240.2" width="600px" xmlns="http://www.w3.org/2000/svg" xmlns:ev="http://www.w3.org/2001/xml-events" xmlns:xlink="http://www.w3.org/1999/xlink">
	<defs/>
	<path d="M 0.0,0.0 L 200.0,0.0 L 200.0,200.0 L 0.0,200.0 L 0.0,0.0" fill="#FDFDFD"/>
	<path d="M 88.0,5.0 L 108.0,5.0 L 118.0,10.0 L 125.0,18.0 L 126.0,21.0 L 126.0,28.0 L 123.0,35.0 L 117.0,41.0 L 120.0,44.0 L 120.0,160.0 L 142.0,160.0 L 144.0,162.0 L 144.0,190.0 L 142.0,192.0 L 58.0,192.0 L 56.0,190.0 L 56.0,162.0 L 58.0,160.0 L 80.0,160.0 L 80.0,71.0 L 55.0,71.0 L 53.0,69.0 L 53.0,44.0 L 55.0,42.0 L 80.0,41.0 L 72.0,34.0 L 70.0,30.0 L 70.0,21.0 L 74.0,14.0 L 81.0,8.0 L 88.0,5.0" fill="#030303"/>
	<path d="M 61.0,50.0 L 112.0,50.0 L 113.0,166.0 L 114.0,167.0 L 136.0,168.0 L 136.0,184.0 L 64.0,184.0 L 64.0,168.0 L 86.0,167.0 L 87.0,166.0 L 87.0,65.0 L 86.0,64.0 L 61.0,63.0 L 61.0,50.0" fill="#FCFCFC"/>
	<path d="M 92.0,12.0 L 102.0,12.0 L 110.0,15.0 L 116.0,22.0 L 116.0,28.0 L 112.0,34.0 L 105.0,38.0 L 91.0,38.0 L 83.0,33.0 L 80.0,28.0 L 80.0,22.0 L 86.0,15.0 L 92.0,12.0" fill="#F8F8F8"/>
</svg>
