<?xml version="1.0" ?>
<svg baseProfile="full" height="600px" version="1.1" viewBox="-20.1 -20.1 240.2 240.2" width="600px" xmlns="http://www.w3.org/2000/svg" xmlns:ev="http://www.w3.org/2001/xml-events" xmlns:xlink="http://www.w3.org/1999/xlink">
	<defs/>
	<path d="M 0.0,0.0 L 200.0,0.0 L 200.0,200.0 L 0.0,200.0 L 0.0,0.0" fill="#FDFDFD"/>
	<path d="M 68.0,80.0 L 112.0,80.0 L 113.0,166.0 L 114.0,167.0 L 136.0,168.0 L 136.0,184.0 L 64.0,184.0 L 64.0,168.0 L 86.0,167.0 L 87.0,166.0 L 87.0,102.0 L 86.0,101.0 L 68.0,100.0 L 68.0,80.0" fill="#FCFCFC"/>
	<path d="M 62.0,72.0 L 118.0,72.0 L 120.0,74.0 L 120.0,160.0 L 142.0,160.0 L 144.0,162.0 L 144.0,190.0 L 142.0,192.0 L 58.0,192.0 L 56.0,190.0 L 56.0,162.0 L 58.0,160.0 L 80.0,160.0 L 80.0,108.0 L 62.0,108.0 L 60.0,106.0 L 60.0,74.0 L 62.0,72.0 M 68.0,80.0 L 68.0,100.0 L 86.0,101.0 L 87.0,102.0 L 87.0,166.0 L 86.0,167.0 L 64.0,168.0 L 64.0,184.0 L 136.0,184.0 L 136.0,168.0 L 114.0,167.0 L 113.0,166.0 L 112.0,80.0 L 68.0,80.0" fill="#020202"/>
	<path d="M 94.0,3.0 L 101.0,3.0 L 107.0,6.0 L 112.0,12.0 L 116.0,21.0 L 116.0,38.0 L 111.0,50.0 L 104.0,56.0 L 101.0,57.0 L 94.0,57.0 L 88.0,53.0 L 84.0,48.0 L 80.0,38.0 L 80.0,21.0 L 86.0,9.0 L 92.0,4.0 L 94.0,3.0" fill="#080808"/>
	<path d="M 95.0,13.0 L 101.0,13.0 L 107.0,18.0 L 110.0,26.0 L 110.0,33.0 L 107.0,42.0 L 101.0,47.0 L 95.0,47.0 L 89.0,42.0 L 87.0,37.0 L 87.0,22.0 L 91.0,16.0 L 95.0,13.0" fill="#F7F7F7"/>
</svg>
