<?xml version="1.0" ?>
<svg baseProfile="full" height="600px" version="1.1" viewBox="-20.1 -20.1 240.2 240.2" width="600px" xmlns="http://www.w3.org/2000/svg" xmlns:ev="http://www.w3.org/2001/xml-events" xmlns:xlink="http://www.w3.org/1999/xlink">
	<defs/>
	<path d="M 0.0,0.0 L 200.0,0.0 L 200.0,200.0 L 0.0,200.0 L 0.0,0.0" fill="#FCFCFC"/>
	<path d="M 0.0,0.0 L 200.0,0.0 L 200.0,200.0 L 0.0,200.0 L 0.0,0.0 M 55.0,12.0 L 43.0,16.0 L 31.0,23.0 L 23.0,31.0 L 15.0,45.0 L 12.0,55.0 L 12.0,145.0 L 16.0,157.0 L 23.0,169.0 L 31.0,177.0 L 41.0,183.0 L 52.0,187.0 L 55.0,188.0 L 142.0,188.0 L 152.0,186.0 L 166.0,179.0 L 176.0,170.0 L 183.0,159.0 L 187.0,149.0 L 188.0,142.0 L 188.0,55.0 L 184.0,43.0 L 179.0,34.0 L 170.0,24.0 L 159.0,17.0 L 149.0,13.0 L 145.0,12.0 L 55.0,12.0" fill="#FDFDFD"/>
	<path d="M 92.0,48.0 L 107.0,48.0 L 119.0,51.0 L 129.0,56.0 L 140.0,66.0 L 148.0,79.0 L 152.0,92.0 L 152.0,106.0 L 148.0,121.0 L 142.0,131.0 L 133.0,141.0 L 119.0,149.0 L 107.0,152.0 L 91.0,152.0 L 79.0,148.0 L 69.0,142.0 L 59.0,133.0 L 53.0,123.0 L 49.0,113.0 L 48.0,107.0 L 48.0,91.0 L 52.0,79.0 L 58.0,69.0 L 66.0,60.0 L 77.0,53.0 L 84.0,50.0 L 92.0,48.0" fill="#050505"/>
	<path d="M 55.0,12.0 L 145.0,12.0 L 157.0,16.0 L 169.0,23.0 L 177.0,31.0 L 183.0,41.0 L 187.0,52.0 L 188.0,55.0 L 188.0,142.0 L 186.0,152.0 L 179.0,166.0 L 170.0,176.0 L 159.0,183.0 L 149.0,187.0 L 142.0,188.0 L 55.0,188.0 L 43.0,184.0 L 34.0,179.0 L 24.0,170.0 L 17.0,159.0 L 13.0,149.0 L 12.0,145.0 L 12.0,55.0 L 16.0,43.0 L 23.0,31.0 L 31.0,23.0 L 45.0,15.0 L 55.0,12.0 M 56.0,20.0 L 45.0,24.0 L 36.0,30.0 L 31.0,34.0 L 24.0,45.0 L 20.0,56.0 L 20.0,142.0 L 22.0,150.0 L 28.0,162.0 L 33.0,168.0 L 43.0,175.0 L 52.0,179.0 L 56.0,180.0 L 143.0,180.0 L 153.0,177.0 L 163.0,171.0 L 168.0,167.0 L 175.0,157.0 L 179.0,148.0 L 180.0,143.0 L 180.0,56.0 L 176.0,45.0 L 170.0,36.0 L 165.0,31.0 L 157.0,25.0 L 148.0,21.0 L 142.0,20.0 L 56.0,20.0" fill="#040404"/>
	<path d="M 87.0,59.0 L 93.0,59.0 L 99.0,68.0 L 113.0,93.0 L 121.0,80.0 L 127.0,70.0 L 130.0,70.0 L 132.0,72.0 L 131.0,76.0 L 121.0,94.0 L 113.0,108.0 L 141.0,108.0 L 140.0,114.0 L 99.0,114.0 L 113.0,139.0 L 113.0,141.0 L 107.0,142.0 L 92.0,116.0 L 87.0,107.0 L 79.0,120.0 L 73.0,130.0 L 69.0,130.0 L 68.0,125.0 L 82.0,101.0 L 87.0,92.0 L 58.0,92.0 L 60.0,86.0 L 101.0,86.0 L 87.0,61.0 L 87.0,59.0" fill="#F5F5F5"/>
	<path d="M 145.0,44.0 L 151.0,44.0 L 156.0,49.0 L 155.0,57.0 L 151.0,60.0 L 145.0,60.0 L 140.0,55.0 L 140.0,49.0 L 145.0,44.0" fill="#0A0A0A"/>
</svg>
