<?xml version="1.0" ?>
<svg baseProfile="full" height="600px" version="1.1" viewBox="-20.1 -20.1 240.2 240.2" width="600px" xmlns="http://www.w3.org/2000/svg" xmlns:ev="http://www.w3.org/2001/xml-events" xmlns:xlink="http://www.w3.org/1999/xlink">
	<defs/>
	<path d="M 0.0,0.0 L 200.0,0.0 L 200.0,200.0 L 0.0,200.0 L 0.0,0.0" fill="#FCFCFC"/>
	<path d="M 0.0,0.0 L 200.0,0.0 L 200.0,200.0 L 0.0,200.0 L 0.0,0.0 M 45.0,20.0 L 33.0,24.0 L 23.0,31.0 L 15.0,40.0 L 10.0,51.0 L 9.0,54.0 L 9.0,145.0 L 14.0,158.0 L 21.0,167.0 L 28.0,173.0 L 38.0,178.0 L 46.0,180.0 L 129.0,180.0 L 138.0,178.0 L 147.0,174.0 L 155.0,168.0 L 162.0,160.0 L 166.0,152.0 L 168.0,145.0 L 168.0,54.0 L 163.0,42.0 L 156.0,33.0 L 149.0,27.0 L 141.0,23.0 L 130.0,20.0 L 45.0,20.0" fill="#090909"/>
	<path d="M 53.0,56.0 L 95.0,56.0 L 103.0,58.0 L 115.0,64.0 L 124.0,73.0 L 129.0,81.0 L 132.0,91.0 L 132.0,110.0 L 127.0,122.0 L 121.0,130.0 L 112.0,138.0 L 101.0,143.0 L 94.0,144.0 L 53.0,144.0 L 40.0,139.0 L 31.0,132.0 L 25.0,125.0 L 20.0,115.0 L 18.0,109.0 L 18.0,90.0 L 23.0,78.0 L 30.0,69.0 L 37.0,63.0 L 47.0,58.0 L 53.0,56.0" fill="#070707"/>
	<path d="M 0.0,0.0 L 200.0,0.0 L 200.0,200.0 L 0.0,200.0 L 0.0,0.0 M 47.0,12.0 L 33.0,15.0 L 21.0,22.0 L 10.0,33.0 L 2.0,49.0 L 1.0,53.0 L 1.0,146.0 L 4.0,156.0 L 10.0,167.0 L 21.0,178.0 L 31.0,184.0 L 41.0,187.0 L 47.0,188.0 L 153.0,188.0 L 169.0,184.0 L 180.0,177.0 L 190.0,167.0 L 197.0,153.0 L 199.0,145.0 L 199.0,54.0 L 196.0,44.0 L 190.0,33.0 L 179.0,22.0 L 169.0,16.0 L 153.0,12.0 L 47.0,12.0" fill="#F6F6F6"/>
	<path d="M 56.0,64.0 L 66.0,64.0 L 79.0,68.0 L 88.0,75.0 L 95.0,85.0 L 98.0,94.0 L 98.0,105.0 L 94.0,117.0 L 87.0,126.0 L 79.0,132.0 L 67.0,136.0 L 56.0,136.0 L 46.0,133.0 L 36.0,126.0 L 29.0,116.0 L 26.0,108.0 L 26.0,92.0 L 30.0,82.0 L 36.0,74.0 L 46.0,67.0 L 56.0,64.0" fill="#FBFBFB"/>
	<path d="M 199.0,140.0 L 200.0,140.0 L 200.0,200.0 L 0.0,200.0 L 0.0,141.0 L 1.0,141.0 L 4.0,153.0 L 11.0,167.0 L 21.0,177.0 L 31.0,183.0 L 41.0,186.0 L 47.0,187.0 L 153.0,187.0 L 169.0,183.0 L 180.0,176.0 L 189.0,167.0 L 196.0,153.0 L 199.0,140.0" fill="#FCFCFC"/>
	<path d="M 155.0,21.0 L 164.0,23.0 L 172.0,27.0 L 182.0,36.0 L 188.0,46.0 L 191.0,54.0 L 191.0,145.0 L 186.0,158.0 L 179.0,167.0 L 172.0,173.0 L 164.0,177.0 L 155.0,179.0 L 159.0,174.0 L 164.0,169.0 L 170.0,160.0 L 175.0,147.0 L 176.0,141.0 L 176.0,58.0 L 173.0,46.0 L 166.0,33.0 L 161.0,27.0 L 155.0,22.0 L 155.0,21.0" fill="#FAFAFA"/>
	<path d="M 88.0,64.0 L 99.0,65.0 L 109.0,70.0 L 116.0,76.0 L 122.0,86.0 L 124.0,91.0 L 124.0,109.0 L 118.0,121.0 L 112.0,128.0 L 104.0,133.0 L 93.0,136.0 L 88.0,136.0 L 94.0,129.0 L 100.0,121.0 L 104.0,111.0 L 105.0,106.0 L 105.0,93.0 L 101.0,81.0 L 95.0,72.0 L 88.0,65.0 L 88.0,64.0" fill="#F9F9F9"/>
	<path d="M 133.0,44.0 L 139.0,44.0 L 144.0,48.0 L 144.0,56.0 L 139.0,60.0 L 133.0,60.0 L 129.0,56.0 L 129.0,48.0 L 133.0,44.0" fill="#050505"/>
</svg>
