<?xml version="1.0" ?>
<svg baseProfile="full" height="600px" version="1.1" viewBox="-20.1 -20.1 240.2 240.2" width="600px" xmlns="http://www.w3.org/2000/svg" xmlns:ev="http://www.w3.org/2001/xml-events" xmlns:xlink="http://www.w3.org/1999/xlink">
	<defs/>
	<path d="M 0.0,0.0 L 200.0,0.0 L 200.0,200.0 L 0.0,200.0 L 0.0,0.0" fill="#FCFCFC"/>
	<path d="M 0.0,0.0 L 200.0,0.0 L 200.0,200.0 L 0.0,200.0 L 0.0,0.0 M 49.0,12.0 L 37.0,16.0 L 27.0,22.0 L 18.0,30.0 L 10.0,43.0 L 6.0,56.0 L 6.0,141.0 L 8.0,151.0 L 12.0,161.0 L 20.0,172.0 L 31.0,181.0 L 42.0,186.0 L 49.0,188.0 L 150.0,188.0 L 163.0,184.0 L 175.0,177.0 L 183.0,169.0 L 191.0,155.0 L 193.0,149.0 L 194.0,142.0 L 194.0,55.0 L 190.0,43.0 L 183.0,31.0 L 175.0,23.0 L 161.0,15.0 L 151.0,12.0 L 49.0,12.0" fill="#FCFCFC"/>
	<path d="M 49.0,12.0 L 151.0,12.0 L 163.0,16.0 L 175.0,23.0 L 183.0,31.0 L 191.0,45.0 L 194.0,55.0 L 194.0,142.0 L 192.0,152.0 L 185.0,166.0 L 176.0,176.0 L 165.0,183.0 L 155.0,187.0 L 150.0,188.0 L 49.0,188.0 L 37.0,184.0 L 27.0,178.0 L 19.0,171.0 L 12.0,161.0 L 7.0,148.0 L 6.0,141.0 L 6.0,56.0 L 10.0,43.0 L 16.0,33.0 L 24.0,24.0 L 35.0,17.0 L 45.0,13.0 L 49.0,12.0 M 50.0,20.0 L 39.0,24.0 L 30.0,30.0 L 23.0,37.0 L 18.0,45.0 L 15.0,55.0 L 14.0,59.0 L 14.0,142.0 L 19.0,157.0 L 26.0,166.0 L 35.0,174.0 L 47.0,179.0 L 50.0,180.0 L 137.0,180.0 L 147.0,177.0 L 156.0,172.0 L 164.0,165.0 L 171.0,154.0 L 174.0,144.0 L 174.0,55.0 L 170.0,44.0 L 162.0,33.0 L 153.0,26.0 L 142.0,21.0 L 138.0,20.0 L 50.0,20.0" fill="#050505"/>
	<path d="M 73.0,64.0 L 84.0,64.0 L 97.0,68.0 L 105.0,74.0 L 111.0,81.0 L 116.0,93.0 L 116.0,105.0 L 113.0,115.0 L 107.0,124.0 L 99.0,131.0 L 89.0,135.0 L 85.0,136.0 L 73.0,136.0 L 61.0,131.0 L 51.0,122.0 L 46.0,112.0 L 44.0,104.0 L 44.0,93.0 L 49.0,81.0 L 58.0,71.0 L 67.0,66.0 L 73.0,64.0" fill="#FCFCFC"/>
	<path d="M 72.0,56.0 L 99.0,56.0 L 111.0,59.0 L 120.0,64.0 L 128.0,71.0 L 134.0,81.0 L 137.0,88.0 L 138.0,93.0 L 138.0,105.0 L 135.0,117.0 L 130.0,126.0 L 123.0,134.0 L 113.0,140.0 L 105.0,143.0 L 99.0,144.0 L 73.0,144.0 L 63.0,141.0 L 54.0,136.0 L 46.0,129.0 L 40.0,119.0 L 37.0,111.0 L 36.0,105.0 L 36.0,92.0 L 40.0,80.0 L 48.0,69.0 L 57.0,62.0 L 65.0,58.0 L 72.0,56.0 M 73.0,64.0 L 61.0,69.0 L 51.0,78.0 L 46.0,87.0 L 44.0,93.0 L 44.0,104.0 L 48.0,117.0 L 54.0,125.0 L 61.0,131.0 L 73.0,136.0 L 85.0,136.0 L 95.0,133.0 L 104.0,127.0 L 111.0,119.0 L 115.0,109.0 L 116.0,105.0 L 116.0,93.0 L 111.0,81.0 L 102.0,71.0 L 92.0,66.0 L 84.0,64.0 L 73.0,64.0" fill="#070707"/>
	<path d="M 171.0,31.0 L 176.0,36.0 L 182.0,45.0 L 186.0,56.0 L 186.0,141.0 L 184.0,150.0 L 178.0,162.0 L 171.0,170.0 L 171.0,167.0 L 177.0,158.0 L 181.0,144.0 L 181.0,55.0 L 177.0,42.0 L 171.0,33.0 L 171.0,31.0" fill="#E5E5E5"/>
	<path d="M 112.0,69.0 L 117.0,72.0 L 125.0,81.0 L 130.0,93.0 L 130.0,104.0 L 127.0,115.0 L 121.0,124.0 L 113.0,131.0 L 113.0,128.0 L 117.0,123.0 L 122.0,111.0 L 123.0,106.0 L 123.0,93.0 L 120.0,83.0 L 115.0,74.0 L 112.0,71.0 L 112.0,69.0" fill="#EEEEEE"/>
	<path d="M 139.0,44.0 L 145.0,44.0 L 150.0,49.0 L 149.0,57.0 L 144.0,60.0 L 137.0,59.0 L 134.0,55.0 L 134.0,49.0 L 139.0,44.0" fill="#090909"/>
	<path d="M 180.0,154.0 L 181.0,157.0 L 173.0,168.0 L 170.0,170.0 L 172.0,166.0 L 177.0,158.0 L 178.0,155.0 L 180.0,154.0" fill="#C4C4C4"/>
	<path d="M 171.0,31.0 L 176.0,36.0 L 181.0,43.0 L 178.0,44.0 L 172.0,34.0 L 171.0,31.0" fill="#CACACA"/>
</svg>
