<?xml version="1.0" ?>
<svg baseProfile="full" height="600px" version="1.1" viewBox="-20.1 -20.1 240.2 240.2" width="600px" xmlns="http://www.w3.org/2000/svg" xmlns:ev="http://www.w3.org/2001/xml-events" xmlns:xlink="http://www.w3.org/1999/xlink">
	<defs/>
	<path d="M 0.0,0.0 L 200.0,0.0 L 200.0,200.0 L 0.0,200.0 L 0.0,0.0" fill="#FCFCFC"/>
	<path d="M 0.0,0.0 L 200.0,0.0 L 200.0,200.0 L 0.0,200.0 L 0.0,0.0 M 52.0,12.0 L 39.0,16.0 L 28.0,23.0 L 19.0,32.0 L 13.0,42.0 L 9.0,53.0 L 9.0,146.0 L 12.0,156.0 L 18.0,167.0 L 29.0,178.0 L 39.0,184.0 L 49.0,187.0 L 53.0,188.0 L 149.0,188.0 L 165.0,182.0 L 176.0,174.0 L 183.0,166.0 L 189.0,154.0 L 192.0,144.0 L 192.0,56.0 L 188.0,43.0 L 182.0,33.0 L 174.0,24.0 L 163.0,17.0 L 149.0,12.0 L 52.0,12.0" fill="#FCFCFC"/>
	<path d="M 52.0,12.0 L 149.0,12.0 L 165.0,18.0 L 176.0,26.0 L 183.0,34.0 L 190.0,48.0 L 192.0,56.0 L 192.0,144.0 L 187.0,159.0 L 180.0,170.0 L 170.0,179.0 L 158.0,185.0 L 149.0,188.0 L 53.0,188.0 L 42.0,185.0 L 32.0,180.0 L 22.0,171.0 L 16.0,164.0 L 10.0,151.0 L 9.0,146.0 L 9.0,53.0 L 13.0,42.0 L 19.0,32.0 L 29.0,22.0 L 39.0,16.0 L 52.0,12.0 M 53.0,20.0 L 39.0,25.0 L 29.0,33.0 L 22.0,42.0 L 17.0,54.0 L 17.0,145.0 L 22.0,158.0 L 29.0,167.0 L 36.0,173.0 L 46.0,178.0 L 54.0,180.0 L 137.0,180.0 L 149.0,177.0 L 157.0,173.0 L 167.0,164.0 L 173.0,154.0 L 176.0,146.0 L 177.0,142.0 L 177.0,58.0 L 174.0,48.0 L 168.0,37.0 L 160.0,29.0 L 152.0,24.0 L 138.0,20.0 L 53.0,20.0" fill="#050505"/>
	<path d="M 80.0,64.0 L 94.0,64.0 L 104.0,68.0 L 113.0,74.0 L 120.0,84.0 L 123.0,92.0 L 123.0,108.0 L 119.0,118.0 L 112.0,127.0 L 105.0,132.0 L 95.0,136.0 L 80.0,136.0 L 68.0,131.0 L 59.0,123.0 L 54.0,114.0 L 52.0,108.0 L 52.0,91.0 L 56.0,82.0 L 62.0,74.0 L 70.0,68.0 L 80.0,64.0" fill="#FBFBFB"/>
	<path d="M 79.0,56.0 L 103.0,56.0 L 116.0,60.0 L 127.0,68.0 L 133.0,75.0 L 139.0,87.0 L 140.0,91.0 L 140.0,108.0 L 137.0,118.0 L 130.0,129.0 L 121.0,137.0 L 111.0,142.0 L 102.0,144.0 L 79.0,144.0 L 68.0,140.0 L 59.0,134.0 L 51.0,126.0 L 46.0,116.0 L 43.0,106.0 L 43.0,93.0 L 47.0,81.0 L 53.0,72.0 L 61.0,64.0 L 75.0,57.0 L 79.0,56.0 M 80.0,64.0 L 68.0,69.0 L 59.0,77.0 L 54.0,85.0 L 52.0,91.0 L 52.0,108.0 L 56.0,118.0 L 62.0,126.0 L 70.0,132.0 L 80.0,136.0 L 95.0,136.0 L 106.0,131.0 L 114.0,125.0 L 121.0,114.0 L 123.0,108.0 L 123.0,92.0 L 119.0,82.0 L 112.0,73.0 L 103.0,67.0 L 94.0,64.0 L 80.0,64.0" fill="#080808"/>
	<path d="M 141.0,44.0 L 147.0,44.0 L 152.0,49.0 L 152.0,55.0 L 147.0,60.0 L 141.0,60.0 L 136.0,55.0 L 136.0,49.0 L 141.0,44.0" fill="#090909"/>
</svg>
