<?xml version="1.0" ?>
<svg baseProfile="full" height="600px" version="1.1" viewBox="-16.08 -16.08 192.16 192.16" width="600px" xmlns="http://www.w3.org/2000/svg" xmlns:ev="http://www.w3.org/2001/xml-events" xmlns:xlink="http://www.w3.org/1999/xlink">
	<defs/>
	<path d="M 0.0,0.0 L 160.0,0.0 L 160.0,160.0 L 0.0,160.0 L 0.0,0.0" fill="#FDFDFE"/>
	<path d="M 68.0,4.0 L 92.0,4.0 L 92.0,80.0 L 123.0,80.0 L 117.0,87.0 L 100.0,104.0 L 93.0,112.0 L 81.0,124.0 L 77.0,122.0 L 61.0,106.0 L 54.0,98.0 L 37.0,81.0 L 37.0,80.0 L 68.0,80.0 L 68.0,4.0" fill="#88B4EE"/>
	<path d="M 68.0,4.0 L 92.0,4.0 L 92.0,80.0 L 123.0,80.0 L 117.0,87.0 L 100.0,104.0 L 93.0,112.0 L 81.0,124.0 L 77.0,122.0 L 61.0,106.0 L 54.0,98.0 L 37.0,81.0 L 37.0,80.0 L 68.0,80.0 L 68.0,4.0 M 72.0,8.0 L 72.0,84.0 L 46.0,84.0 L 52.0,91.0 L 79.0,118.0 L 83.0,116.0 L 114.0,85.0 L 114.0,84.0 L 88.0,84.0 L 88.0,8.0 L 72.0,8.0" fill="#517CB6"/>
	<path d="M 4.0,118.0 L 8.0,118.0 L 8.0,152.0 L 152.0,152.0 L 152.0,118.0 L 156.0,118.0 L 156.0,156.0 L 4.0,156.0 L 4.0,118.0" fill="#4E7AB5"/>
</svg>
