<?xml version="1.0" ?>
<svg baseProfile="full" height="600px" version="1.1" viewBox="-20.1 -20.1 240.2 240.2" width="600px" xmlns="http://www.w3.org/2000/svg" xmlns:ev="http://www.w3.org/2001/xml-events" xmlns:xlink="http://www.w3.org/1999/xlink">
	<defs/>
	<path d="M 0.0,0.0 L 200.0,0.0 L 200.0,200.0 L 0.0,200.0 L 0.0,0.0" fill="#FCFCFC"/>
	<path d="M 0.0,0.0 L 200.0,0.0 L 200.0,200.0 L 0.0,200.0 L 0.0,0.0 M 46.0,20.0 L 35.0,24.0 L 26.0,30.0 L 21.0,34.0 L 14.0,45.0 L 10.0,56.0 L 10.0,144.0 L 15.0,157.0 L 23.0,168.0 L 33.0,175.0 L 42.0,179.0 L 46.0,180.0 L 131.0,180.0 L 140.0,178.0 L 152.0,172.0 L 162.0,162.0 L 168.0,150.0 L 170.0,141.0 L 170.0,56.0 L 166.0,45.0 L 160.0,36.0 L 152.0,28.0 L 138.0,21.0 L 134.0,20.0 L 46.0,20.0" fill="#040404"/>
	<path d="M 58.0,56.0 L 95.0,56.0 L 104.0,58.0 L 116.0,64.0 L 123.0,70.0 L 130.0,81.0 L 134.0,92.0 L 134.0,106.0 L 132.0,114.0 L 126.0,126.0 L 120.0,133.0 L 109.0,140.0 L 101.0,143.0 L 95.0,144.0 L 58.0,144.0 L 47.0,140.0 L 38.0,134.0 L 30.0,126.0 L 24.0,114.0 L 22.0,107.0 L 22.0,93.0 L 26.0,81.0 L 32.0,72.0 L 40.0,64.0 L 54.0,57.0 L 58.0,56.0" fill="#070707"/>
	<path d="M 0.0,0.0 L 200.0,0.0 L 200.0,200.0 L 0.0,200.0 L 0.0,0.0 M 45.0,12.0 L 33.0,16.0 L 21.0,23.0 L 13.0,31.0 L 7.0,41.0 L 3.0,51.0 L 2.0,56.0 L 2.0,142.0 L 5.0,155.0 L 11.0,166.0 L 20.0,176.0 L 29.0,182.0 L 37.0,186.0 L 45.0,188.0 L 152.0,188.0 L 162.0,186.0 L 176.0,179.0 L 186.0,170.0 L 192.0,161.0 L 197.0,150.0 L 198.0,146.0 L 198.0,54.0 L 193.0,40.0 L 185.0,29.0 L 175.0,20.0 L 163.0,14.0 L 155.0,12.0 L 45.0,12.0" fill="#FCFCFC"/>
	<path d="M 59.0,64.0 L 72.0,64.0 L 81.0,67.0 L 89.0,72.0 L 96.0,79.0 L 101.0,89.0 L 102.0,92.0 L 102.0,107.0 L 98.0,118.0 L 89.0,128.0 L 81.0,133.0 L 72.0,136.0 L 59.0,136.0 L 47.0,131.0 L 38.0,123.0 L 33.0,115.0 L 30.0,104.0 L 30.0,94.0 L 34.0,83.0 L 40.0,75.0 L 47.0,69.0 L 59.0,64.0" fill="#FBFBFB"/>
	<path d="M 156.0,21.0 L 165.0,24.0 L 176.0,31.0 L 184.0,41.0 L 189.0,52.0 L 190.0,57.0 L 190.0,141.0 L 187.0,153.0 L 181.0,163.0 L 176.0,169.0 L 165.0,176.0 L 156.0,179.0 L 161.0,174.0 L 168.0,166.0 L 175.0,152.0 L 177.0,142.0 L 177.0,55.0 L 173.0,43.0 L 166.0,31.0 L 159.0,24.0 L 156.0,21.0" fill="#FAFAFA"/>
	<path d="M 92.0,64.0 L 99.0,65.0 L 109.0,69.0 L 119.0,78.0 L 125.0,90.0 L 126.0,95.0 L 126.0,105.0 L 123.0,115.0 L 117.0,124.0 L 109.0,131.0 L 97.0,136.0 L 92.0,136.0 L 97.0,131.0 L 104.0,122.0 L 108.0,112.0 L 109.0,108.0 L 109.0,91.0 L 105.0,80.0 L 98.0,70.0 L 92.0,65.0 L 92.0,64.0" fill="#F7F7F7"/>
	<path d="M 135.0,44.0 L 141.0,44.0 L 146.0,49.0 L 145.0,57.0 L 140.0,60.0 L 133.0,59.0 L 130.0,55.0 L 130.0,49.0 L 135.0,44.0" fill="#090909"/>
</svg>
