<?xml version="1.0" ?>
<svg baseProfile="full" height="600px" version="1.1" viewBox="-12.06 -12.06 144.12 144.12" width="600px" xmlns="http://www.w3.org/2000/svg" xmlns:ev="http://www.w3.org/2001/xml-events" xmlns:xlink="http://www.w3.org/1999/xlink">
	<defs/>
	<path d="M 0.0,0.0 L 120.0,0.0 L 120.0,120.0 L 0.0,120.0 L 0.0,0.0" fill="#FBFBFB"/>
	<path d="M 54.0,14.0 L 65.0,14.0 L 75.0,16.0 L 87.0,21.0 L 95.0,27.0 L 100.0,32.0 L 106.0,40.0 L 110.0,50.0 L 110.0,69.0 L 108.0,74.0 L 101.0,70.0 L 101.0,53.0 L 100.0,50.0 L 95.0,50.0 L 95.0,65.0 L 86.0,60.0 L 86.0,49.0 L 60.0,49.0 L 60.0,71.0 L 72.0,71.0 L 72.0,79.0 L 60.0,79.0 L 62.0,92.0 L 62.0,97.0 L 72.0,94.0 L 72.0,105.0 L 64.0,106.0 L 53.0,106.0 L 41.0,103.0 L 28.0,96.0 L 22.0,91.0 L 14.0,80.0 L 10.0,69.0 L 10.0,50.0 L 15.0,38.0 L 22.0,29.0 L 33.0,21.0 L 44.0,16.0 L 54.0,14.0" fill="#090909"/>
	<path d="M 82.0,68.0 L 87.0,69.0 L 106.0,82.0 L 116.0,90.0 L 115.0,95.0 L 110.0,97.0 L 102.0,98.0 L 110.0,114.0 L 109.0,119.0 L 104.0,120.0 L 99.0,112.0 L 94.0,103.0 L 86.0,112.0 L 81.0,111.0 L 80.0,110.0 L 80.0,70.0 L 82.0,68.0" fill="#040404"/>
	<path d="M 29.0,49.0 L 51.0,49.0 L 51.0,71.0 L 29.0,71.0 L 28.0,66.0 L 28.0,52.0 L 29.0,49.0" fill="#FBFBFB"/>
	<path d="M 62.0,23.0 L 69.0,24.0 L 76.0,29.0 L 83.0,40.0 L 83.0,41.0 L 60.0,41.0 L 61.0,25.0 L 62.0,23.0" fill="#F4F4F4"/>
	<path d="M 33.0,79.0 L 52.0,79.0 L 54.0,97.0 L 49.0,96.0 L 40.0,90.0 L 34.0,83.0 L 33.0,79.0" fill="#F5F5F5"/>
	<path d="M 51.0,23.0 L 54.0,23.0 L 52.0,41.0 L 33.0,41.0 L 35.0,36.0 L 42.0,28.0 L 51.0,23.0" fill="#F4F4F4"/>
	<path d="M 88.0,32.0 L 95.0,38.0 L 96.0,41.0 L 92.0,41.0 L 88.0,34.0 L 88.0,32.0" fill="#DCDCDC"/>
</svg>
