<?xml version="1.0" ?>
<svg baseProfile="full" height="600px" version="1.1" viewBox="-16.08 -16.08 192.16 192.16" width="600px" xmlns="http://www.w3.org/2000/svg" xmlns:ev="http://www.w3.org/2001/xml-events" xmlns:xlink="http://www.w3.org/1999/xlink">
	<defs/>
	<path d="M 0.0,0.0 L 160.0,0.0 L 160.0,160.0 L 0.0,160.0 L 0.0,0.0" fill="#7694BE"/>
	<path d="M 0.0,0.0 L 160.0,0.0 L 160.0,160.0 L 0.0,160.0 L 0.0,0.0 M 74.0,3.0 L 58.0,6.0 L 42.0,13.0 L 32.0,20.0 L 22.0,29.0 L 13.0,42.0 L 6.0,58.0 L 4.0,68.0 L 4.0,91.0 L 8.0,107.0 L 16.0,123.0 L 28.0,137.0 L 39.0,145.0 L 53.0,152.0 L 62.0,155.0 L 74.0,157.0 L 83.0,157.0 L 97.0,155.0 L 107.0,152.0 L 123.0,144.0 L 127.0,143.0 L 140.0,156.0 L 144.0,154.0 L 156.0,142.0 L 155.0,138.0 L 143.0,126.0 L 144.0,122.0 L 145.0,118.0 L 147.0,118.0 L 153.0,104.0 L 156.0,90.0 L 156.0,67.0 L 151.0,50.0 L 144.0,37.0 L 135.0,26.0 L 126.0,18.0 L 112.0,10.0 L 101.0,6.0 L 83.0,3.0 L 74.0,3.0" fill="#FCFCFD"/>
	<path d="M 69.0,68.0 L 100.0,68.0 L 100.0,88.0 L 104.0,88.0 L 104.0,68.0 L 130.0,68.0 L 131.0,69.0 L 131.0,88.0 L 135.0,88.0 L 135.0,68.0 L 152.0,68.0 L 152.0,92.0 L 149.0,104.0 L 145.0,113.0 L 145.0,116.0 L 147.0,118.0 L 145.0,118.0 L 143.0,123.0 L 144.0,127.0 L 156.0,139.0 L 155.0,143.0 L 142.0,156.0 L 138.0,154.0 L 127.0,143.0 L 123.0,144.0 L 117.0,147.0 L 116.0,145.0 L 111.0,146.0 L 103.0,149.0 L 89.0,152.0 L 88.0,152.0 L 87.0,147.0 L 82.0,152.0 L 78.0,151.0 L 73.0,137.0 L 72.0,132.0 L 72.0,124.0 L 88.0,124.0 L 88.0,120.0 L 71.0,120.0 L 69.0,107.0 L 69.0,96.0 L 88.0,96.0 L 88.0,92.0 L 69.0,92.0 L 69.0,68.0" fill="#BFE0F4"/>
	<path d="M 96.0,96.0 L 137.0,96.0 L 131.0,103.0 L 127.0,107.0 L 128.0,111.0 L 141.0,124.0 L 141.0,126.0 L 145.0,128.0 L 156.0,139.0 L 155.0,143.0 L 142.0,156.0 L 138.0,154.0 L 110.0,126.0 L 106.0,128.0 L 97.0,137.0 L 96.0,137.0 L 96.0,96.0" fill="#627589"/>
	<path d="M 96.0,96.0 L 137.0,96.0 L 131.0,103.0 L 127.0,107.0 L 128.0,111.0 L 141.0,124.0 L 141.0,126.0 L 145.0,128.0 L 156.0,139.0 L 155.0,143.0 L 142.0,156.0 L 138.0,154.0 L 110.0,126.0 L 106.0,128.0 L 97.0,137.0 L 96.0,137.0 L 96.0,96.0 M 100.0,100.0 L 100.0,128.0 L 107.0,122.0 L 111.0,122.0 L 140.0,151.0 L 144.0,149.0 L 151.0,142.0 L 149.0,138.0 L 121.0,110.0 L 123.0,106.0 L 128.0,100.0 L 100.0,100.0" fill="#3A4551"/>
	<path d="M 36.0,68.0 L 65.0,68.0 L 65.0,92.0 L 36.0,92.0 L 36.0,68.0" fill="#C0E1F5"/>
	<path d="M 70.0,40.0 L 96.0,40.0 L 99.0,55.0 L 99.0,64.0 L 69.0,64.0 L 69.0,48.0 L 70.0,40.0" fill="#BFE1F5"/>
	<path d="M 43.0,40.0 L 66.0,40.0 L 66.0,59.0 L 65.0,64.0 L 37.0,64.0 L 38.0,56.0 L 42.0,41.0 L 43.0,40.0" fill="#C0E1F5"/>
	<path d="M 37.0,96.0 L 65.0,96.0 L 67.0,120.0 L 43.0,120.0 L 38.0,104.0 L 37.0,96.0" fill="#C0E1F5"/>
	<path d="M 101.0,40.0 L 123.0,40.0 L 128.0,53.0 L 129.0,64.0 L 103.0,64.0 L 101.0,45.0 L 101.0,40.0" fill="#C0E1F5"/>
	<path d="M 11.0,68.0 L 32.0,68.0 L 32.0,92.0 L 11.0,92.0 L 11.0,68.0" fill="#C0E1F5"/>
	<path d="M 22.0,40.0 L 38.0,40.0 L 36.0,51.0 L 33.0,64.0 L 12.0,64.0 L 15.0,52.0 L 21.0,41.0 L 22.0,40.0" fill="#BFE0F5"/>
	<path d="M 13.0,96.0 L 33.0,96.0 L 37.0,113.0 L 39.0,120.0 L 22.0,120.0 L 17.0,111.0 L 13.0,100.0 L 13.0,96.0" fill="#BFE1F5"/>
	<path d="M 79.0,8.0 L 84.0,9.0 L 90.0,18.0 L 95.0,33.0 L 95.0,36.0 L 71.0,36.0 L 75.0,16.0 L 78.0,9.0 L 79.0,8.0" fill="#BFE0F5"/>
	<path d="M 45.0,124.0 L 68.0,124.0 L 70.0,138.0 L 73.0,147.0 L 74.0,151.0 L 68.0,150.0 L 59.0,144.0 L 50.0,134.0 L 45.0,124.0" fill="#BEE0F4"/>
	<path d="M 73.0,8.0 L 74.0,10.0 L 70.0,21.0 L 67.0,36.0 L 45.0,36.0 L 50.0,26.0 L 59.0,16.0 L 68.0,10.0 L 73.0,8.0" fill="#BFE0F5"/>
	<path d="M 127.0,40.0 L 141.0,40.0 L 149.0,56.0 L 150.0,64.0 L 133.0,64.0 L 131.0,53.0 L 127.0,40.0" fill="#BFE0F5"/>
	<path d="M 89.0,9.0 L 94.0,10.0 L 103.0,15.0 L 113.0,24.0 L 120.0,34.0 L 120.0,36.0 L 99.0,36.0 L 96.0,23.0 L 90.0,11.0 L 89.0,9.0" fill="#BEE0F4"/>
	<path d="M 55.0,12.0 L 57.0,13.0 L 50.0,20.0 L 42.0,33.0 L 41.0,36.0 L 25.0,36.0 L 28.0,31.0 L 36.0,23.0 L 50.0,14.0 L 55.0,12.0" fill="#BEDFF4"/>
	<path d="M 25.0,124.0 L 41.0,124.0 L 48.0,137.0 L 57.0,147.0 L 55.0,148.0 L 42.0,141.0 L 31.0,132.0 L 25.0,124.0" fill="#BEDFF4"/>
	<path d="M 107.0,13.0 L 113.0,15.0 L 124.0,22.0 L 134.0,31.0 L 137.0,36.0 L 125.0,36.0 L 117.0,24.0 L 110.0,16.0 L 107.0,13.0" fill="#BDDEF3"/>
</svg>
