<?xml version="1.0" ?>
<svg baseProfile="full" height="600px" version="1.1" viewBox="-19.296000000000003 -19.296000000000003 230.592 230.592" width="600px" xmlns="http://www.w3.org/2000/svg" xmlns:ev="http://www.w3.org/2001/xml-events" xmlns:xlink="http://www.w3.org/1999/xlink">
	<defs/>
	<path d="M 0.0,0.0 L 192.0,0.0 L 192.0,192.0 L 0.0,192.0 L 0.0,0.0" fill="#44A6F5"/>
	<path d="M 0.0,0.0 L 192.0,0.0 L 192.0,192.0 L 0.0,192.0 L 0.0,0.0 M 84.0,16.0 L 69.0,20.0 L 53.0,28.0 L 42.0,36.0 L 34.0,44.0 L 25.0,58.0 L 20.0,69.0 L 16.0,84.0 L 16.0,107.0 L 20.0,123.0 L 28.0,139.0 L 36.0,150.0 L 43.0,157.0 L 56.0,166.0 L 69.0,172.0 L 84.0,176.0 L 106.0,176.0 L 120.0,173.0 L 131.0,169.0 L 141.0,170.0 L 148.0,163.0 L 150.0,163.0 L 158.0,181.0 L 160.0,183.0 L 165.0,182.0 L 178.0,176.0 L 178.0,170.0 L 170.0,152.0 L 182.0,152.0 L 186.0,149.0 L 186.0,143.0 L 176.0,133.0 L 171.0,129.0 L 172.0,123.0 L 175.0,112.0 L 176.0,106.0 L 176.0,85.0 L 172.0,69.0 L 164.0,53.0 L 154.0,40.0 L 145.0,32.0 L 132.0,24.0 L 117.0,18.0 L 107.0,16.0 L 84.0,16.0" fill="#FCFDFD"/>
	<path d="M 135.0,101.0 L 141.0,101.0 L 154.0,113.0 L 161.0,120.0 L 169.0,127.0 L 185.0,142.0 L 186.0,143.0 L 186.0,149.0 L 182.0,152.0 L 170.0,152.0 L 178.0,170.0 L 178.0,176.0 L 163.0,183.0 L 159.0,182.0 L 152.0,167.0 L 150.0,163.0 L 146.0,165.0 L 141.0,170.0 L 135.0,170.0 L 133.0,168.0 L 133.0,103.0 L 135.0,101.0" fill="#4B5F69"/>
	<path d="M 134.0,93.0 L 141.0,93.0 L 146.0,96.0 L 150.0,99.0 L 166.0,100.0 L 166.0,114.0 L 172.0,119.0 L 173.0,121.0 L 170.0,128.0 L 163.0,122.0 L 155.0,115.0 L 146.0,106.0 L 141.0,102.0 L 135.0,102.0 L 134.0,103.0 L 133.0,168.0 L 126.0,170.0 L 125.0,168.0 L 125.0,162.0 L 121.0,163.0 L 124.0,157.0 L 124.0,141.0 L 118.0,153.0 L 108.0,164.0 L 102.0,167.0 L 100.0,167.0 L 100.0,136.0 L 125.0,136.0 L 125.0,128.0 L 100.0,128.0 L 100.0,100.0 L 127.0,99.0 L 131.0,95.0 L 134.0,93.0" fill="#8BC7F8"/>
	<path d="M 140.0,111.0 L 148.0,117.0 L 158.0,127.0 L 166.0,134.0 L 173.0,141.0 L 176.0,143.0 L 176.0,145.0 L 159.0,146.0 L 167.0,163.0 L 170.0,172.0 L 166.0,174.0 L 163.0,174.0 L 153.0,151.0 L 148.0,153.0 L 141.0,160.0 L 140.0,160.0 L 140.0,111.0" fill="#F5F6F7"/>
	<path d="M 100.0,64.0 L 128.0,64.0 L 131.0,75.0 L 132.0,92.0 L 100.0,92.0 L 100.0,64.0" fill="#BADCF9"/>
	<path d="M 64.0,64.0 L 92.0,64.0 L 92.0,92.0 L 60.0,92.0 L 61.0,76.0 L 64.0,64.0" fill="#BADDF9"/>
	<path d="M 60.0,100.0 L 92.0,100.0 L 92.0,128.0 L 64.0,128.0 L 62.0,122.0 L 60.0,100.0" fill="#BADDF9"/>
	<path d="M 100.0,100.0 L 132.0,100.0 L 130.0,119.0 L 128.0,128.0 L 100.0,128.0 L 100.0,100.0" fill="#BADDF9"/>
	<path d="M 32.0,64.0 L 55.0,64.0 L 53.0,84.0 L 52.0,92.0 L 24.0,92.0 L 26.0,79.0 L 29.0,69.0 L 32.0,64.0" fill="#B9DCF9"/>
	<path d="M 25.0,100.0 L 52.0,100.0 L 55.0,123.0 L 55.0,128.0 L 32.0,128.0 L 28.0,120.0 L 25.0,109.0 L 25.0,100.0" fill="#BADCF9"/>
	<path d="M 137.0,64.0 L 159.0,64.0 L 163.0,72.0 L 166.0,84.0 L 166.0,92.0 L 140.0,92.0 L 137.0,68.0 L 137.0,64.0" fill="#BADCF9"/>
	<path d="M 100.0,25.0 L 105.0,26.0 L 115.0,35.0 L 122.0,46.0 L 125.0,53.0 L 125.0,56.0 L 100.0,56.0 L 100.0,25.0" fill="#B9DCF9"/>
	<path d="M 89.0,25.0 L 92.0,25.0 L 92.0,56.0 L 67.0,56.0 L 68.0,51.0 L 74.0,39.0 L 84.0,28.0 L 89.0,25.0" fill="#B9DCF9"/>
	<path d="M 67.0,136.0 L 92.0,136.0 L 92.0,167.0 L 87.0,166.0 L 77.0,157.0 L 70.0,146.0 L 67.0,139.0 L 67.0,136.0" fill="#BADCF9"/>
	<path d="M 100.0,136.0 L 125.0,136.0 L 122.0,145.0 L 117.0,154.0 L 108.0,164.0 L 102.0,167.0 L 100.0,167.0 L 100.0,136.0" fill="#BADCF9"/>
	<path d="M 37.0,136.0 L 58.0,136.0 L 63.0,149.0 L 71.0,162.0 L 69.0,163.0 L 56.0,156.0 L 46.0,148.0 L 37.0,138.0 L 37.0,136.0" fill="#B8DCF9"/>
	<path d="M 69.0,29.0 L 71.0,30.0 L 64.0,41.0 L 58.0,56.0 L 37.0,56.0 L 39.0,52.0 L 48.0,42.0 L 59.0,34.0 L 69.0,29.0" fill="#B8DCF9"/>
	<path d="M 140.0,100.0 L 166.0,100.0 L 166.0,114.0 L 172.0,119.0 L 173.0,121.0 L 170.0,128.0 L 163.0,122.0 L 155.0,115.0 L 146.0,106.0 L 140.0,101.0 L 140.0,100.0" fill="#B8DBF7"/>
	<path d="M 121.0,29.0 L 127.0,31.0 L 138.0,38.0 L 148.0,47.0 L 154.0,55.0 L 154.0,56.0 L 134.0,56.0 L 129.0,43.0 L 123.0,33.0 L 121.0,29.0" fill="#B8DCF9"/>
	<path d="M 134.0,93.0 L 141.0,93.0 L 146.0,96.0 L 150.0,100.0 L 135.0,102.0 L 134.0,103.0 L 133.0,168.0 L 126.0,170.0 L 125.0,168.0 L 125.0,161.0 L 130.0,158.0 L 132.0,158.0 L 131.0,103.0 L 132.0,100.0 L 127.0,100.0 L 129.0,96.0 L 134.0,93.0" fill="#82B6DE"/>
	<path d="M 164.0,112.0 L 169.0,117.0 L 173.0,119.0 L 170.0,128.0 L 163.0,122.0 L 161.0,120.0 L 164.0,112.0" fill="#8EC7F6"/>
	<path d="M 131.0,145.0 L 132.0,145.0 L 132.0,158.0 L 123.0,163.0 L 121.0,162.0 L 128.0,151.0 L 131.0,145.0" fill="#B7DBF9"/>
	<path d="M 130.0,158.0 L 132.0,158.0 L 133.0,168.0 L 126.0,170.0 L 125.0,168.0 L 125.0,161.0 L 130.0,158.0" fill="#8FC8F7"/>
</svg>
