<?xml version="1.0" ?>
<svg baseProfile="full" height="600px" version="1.1" viewBox="-20.1 -20.1 240.2 240.2" width="600px" xmlns="http://www.w3.org/2000/svg" xmlns:ev="http://www.w3.org/2001/xml-events" xmlns:xlink="http://www.w3.org/1999/xlink">
	<defs/>
	<path d="M 0.0,0.0 L 200.0,0.0 L 200.0,200.0 L 0.0,200.0 L 0.0,0.0" fill="#FCFCFC"/>
	<path d="M 93.0,7.0 L 114.0,9.0 L 127.0,13.0 L 143.0,21.0 L 154.0,29.0 L 165.0,40.0 L 174.0,54.0 L 180.0,67.0 L 183.0,78.0 L 184.0,85.0 L 184.0,106.0 L 180.0,123.0 L 173.0,117.0 L 176.0,100.0 L 155.0,100.0 L 145.0,91.0 L 144.0,90.0 L 141.0,68.0 L 138.0,59.0 L 138.0,56.0 L 101.0,56.0 L 101.0,92.0 L 120.0,92.0 L 120.0,100.0 L 101.0,100.0 L 101.0,136.0 L 120.0,136.0 L 120.0,144.0 L 100.0,144.0 L 100.0,175.0 L 111.0,171.0 L 120.0,165.0 L 120.0,181.0 L 104.0,184.0 L 83.0,184.0 L 64.0,179.0 L 47.0,170.0 L 37.0,162.0 L 27.0,152.0 L 18.0,138.0 L 12.0,125.0 L 8.0,108.0 L 8.0,82.0 L 12.0,67.0 L 18.0,53.0 L 27.0,40.0 L 36.0,30.0 L 48.0,21.0 L 64.0,13.0 L 76.0,9.0 L 93.0,7.0" fill="#060606"/>
	<path d="M 134.0,100.0 L 139.0,101.0 L 152.0,113.0 L 169.0,129.0 L 185.0,144.0 L 196.0,154.0 L 195.0,160.0 L 193.0,161.0 L 174.0,161.0 L 184.0,183.0 L 183.0,188.0 L 167.0,196.0 L 161.0,195.0 L 151.0,173.0 L 144.0,179.0 L 138.0,185.0 L 133.0,184.0 L 132.0,183.0 L 132.0,102.0 L 134.0,100.0" fill="#060606"/>
	<path d="M 55.0,56.0 L 93.0,56.0 L 93.0,92.0 L 49.0,92.0 L 49.0,81.0 L 52.0,63.0 L 55.0,56.0" fill="#FBFBFB"/>
	<path d="M 49.0,100.0 L 92.0,100.0 L 92.0,136.0 L 55.0,136.0 L 51.0,123.0 L 49.0,111.0 L 49.0,100.0" fill="#FDFDFD"/>
	<path d="M 140.0,114.0 L 148.0,120.0 L 160.0,132.0 L 168.0,139.0 L 176.0,147.0 L 181.0,151.0 L 181.0,153.0 L 165.0,154.0 L 164.0,159.0 L 174.0,180.0 L 173.0,184.0 L 169.0,186.0 L 166.0,186.0 L 155.0,163.0 L 150.0,162.0 L 141.0,171.0 L 140.0,171.0 L 140.0,114.0" fill="#F9F9F9"/>
	<path d="M 27.0,56.0 L 46.0,56.0 L 43.0,70.0 L 41.0,92.0 L 16.0,92.0 L 17.0,82.0 L 20.0,70.0 L 25.0,58.0 L 27.0,56.0" fill="#F9F9F9"/>
	<path d="M 16.0,100.0 L 41.0,100.0 L 43.0,120.0 L 46.0,132.0 L 46.0,136.0 L 27.0,136.0 L 21.0,124.0 L 17.0,109.0 L 16.0,100.0" fill="#FAFAFA"/>
	<path d="M 147.0,56.0 L 166.0,56.0 L 173.0,72.0 L 176.0,86.0 L 176.0,92.0 L 152.0,92.0 L 150.0,71.0 L 147.0,59.0 L 147.0,56.0" fill="#F9F9F9"/>
	<path d="M 100.0,16.0 L 105.0,17.0 L 115.0,22.0 L 123.0,29.0 L 132.0,42.0 L 134.0,48.0 L 100.0,48.0 L 100.0,16.0" fill="#F8F8F8"/>
	<path d="M 89.0,16.0 L 92.0,16.0 L 92.0,48.0 L 58.0,48.0 L 64.0,36.0 L 75.0,24.0 L 84.0,18.0 L 89.0,16.0" fill="#FBFBFB"/>
	<path d="M 59.0,144.0 L 92.0,144.0 L 92.0,175.0 L 84.0,174.0 L 74.0,167.0 L 65.0,157.0 L 59.0,147.0 L 59.0,144.0" fill="#FBFBFB"/>
	<path d="M 62.0,23.0 L 64.0,24.0 L 58.0,32.0 L 49.0,48.0 L 32.0,48.0 L 38.0,40.0 L 51.0,29.0 L 62.0,23.0" fill="#F6F6F6"/>
	<path d="M 127.0,22.0 L 132.0,24.0 L 142.0,30.0 L 153.0,39.0 L 160.0,47.0 L 160.0,48.0 L 143.0,48.0 L 136.0,34.0 L 129.0,25.0 L 127.0,22.0" fill="#F2F2F2"/>
	<path d="M 33.0,144.0 L 50.0,144.0 L 58.0,160.0 L 63.0,166.0 L 63.0,168.0 L 57.0,166.0 L 46.0,159.0 L 34.0,147.0 L 33.0,144.0" fill="#F7F7F7"/>
</svg>
