<?xml version="1.0" ?>
<svg baseProfile="full" height="600px" version="1.1" viewBox="-19.296000000000003 -19.296000000000003 230.592 230.592" width="600px" xmlns="http://www.w3.org/2000/svg" xmlns:ev="http://www.w3.org/2001/xml-events" xmlns:xlink="http://www.w3.org/1999/xlink">
	<defs/>
	<path d="M 0.0,0.0 L 192.0,0.0 L 192.0,192.0 L 0.0,192.0 L 0.0,0.0" fill="#45A6F5"/>
	<path d="M 0.0,0.0 L 192.0,0.0 L 192.0,148.0 L 185.0,142.0 L 170.0,128.0 L 174.0,112.0 L 175.0,106.0 L 175.0,85.0 L 171.0,69.0 L 163.0,53.0 L 153.0,40.0 L 141.0,30.0 L 125.0,22.0 L 112.0,18.0 L 105.0,17.0 L 84.0,17.0 L 69.0,21.0 L 53.0,29.0 L 42.0,37.0 L 35.0,44.0 L 26.0,58.0 L 21.0,69.0 L 17.0,84.0 L 17.0,107.0 L 21.0,123.0 L 29.0,139.0 L 37.0,150.0 L 48.0,160.0 L 62.0,168.0 L 75.0,173.0 L 84.0,175.0 L 106.0,175.0 L 116.0,173.0 L 132.0,168.0 L 133.0,175.0 L 135.0,177.0 L 142.0,176.0 L 148.0,170.0 L 150.0,170.0 L 150.0,168.0 L 152.0,168.0 L 161.0,189.0 L 163.0,192.0 L 0.0,192.0 L 0.0,0.0" fill="#FCFDFD"/>
	<path d="M 135.0,100.0 L 142.0,101.0 L 159.0,117.0 L 174.0,131.0 L 189.0,145.0 L 192.0,148.0 L 192.0,192.0 L 163.0,192.0 L 160.0,189.0 L 153.0,172.0 L 152.0,168.0 L 150.0,168.0 L 150.0,170.0 L 140.0,178.0 L 135.0,178.0 L 132.0,175.0 L 132.0,103.0 L 135.0,100.0" fill="#495D67"/>
	<path d="M 133.0,64.0 L 157.0,64.0 L 161.0,73.0 L 164.0,86.0 L 164.0,92.0 L 144.0,93.0 L 152.0,99.0 L 164.0,100.0 L 164.0,107.0 L 163.0,111.0 L 167.0,113.0 L 173.0,119.0 L 171.0,126.0 L 168.0,126.0 L 155.0,114.0 L 142.0,102.0 L 135.0,101.0 L 133.0,103.0 L 132.0,168.0 L 126.0,171.0 L 124.0,171.0 L 124.0,162.0 L 117.0,164.0 L 123.0,153.0 L 124.0,128.0 L 96.0,128.0 L 96.0,100.0 L 126.0,100.0 L 128.0,96.0 L 132.0,93.0 L 135.0,93.0 L 133.0,64.0" fill="#8FC8F8"/>
	<path d="M 140.0,111.0 L 147.0,117.0 L 159.0,128.0 L 175.0,143.0 L 180.0,149.0 L 177.0,150.0 L 162.0,151.0 L 174.0,178.0 L 174.0,180.0 L 169.0,182.0 L 166.0,182.0 L 155.0,157.0 L 155.0,155.0 L 147.0,161.0 L 140.0,167.0 L 140.0,111.0" fill="#F5F6F7"/>
	<path d="M 96.0,64.0 L 124.0,64.0 L 126.0,69.0 L 127.0,79.0 L 127.0,92.0 L 96.0,92.0 L 96.0,64.0" fill="#BADDF9"/>
	<path d="M 96.0,100.0 L 127.0,100.0 L 127.0,112.0 L 124.0,128.0 L 96.0,128.0 L 96.0,100.0" fill="#BADDF9"/>
	<path d="M 61.0,64.0 L 88.0,64.0 L 88.0,92.0 L 57.0,92.0 L 57.0,80.0 L 61.0,64.0" fill="#B9DCF9"/>
	<path d="M 57.0,100.0 L 88.0,100.0 L 88.0,128.0 L 61.0,128.0 L 57.0,111.0 L 57.0,100.0" fill="#B9DCF9"/>
	<path d="M 133.0,64.0 L 157.0,64.0 L 161.0,73.0 L 164.0,86.0 L 164.0,92.0 L 136.0,92.0 L 133.0,69.0 L 133.0,64.0" fill="#B9DCF9"/>
	<path d="M 32.0,64.0 L 52.0,64.0 L 51.0,74.0 L 49.0,92.0 L 24.0,92.0 L 26.0,79.0 L 29.0,69.0 L 32.0,64.0" fill="#B9DCF9"/>
	<path d="M 25.0,100.0 L 49.0,100.0 L 52.0,124.0 L 53.0,128.0 L 32.0,128.0 L 28.0,120.0 L 25.0,109.0 L 25.0,100.0" fill="#BADCF9"/>
	<path d="M 64.0,136.0 L 89.0,136.0 L 91.0,159.0 L 91.0,167.0 L 85.0,165.0 L 77.0,159.0 L 69.0,148.0 L 64.0,138.0 L 64.0,136.0" fill="#B8DCF9"/>
	<path d="M 88.0,25.0 L 91.0,25.0 L 89.0,56.0 L 64.0,56.0 L 66.0,49.0 L 73.0,38.0 L 80.0,30.0 L 88.0,25.0" fill="#B8DCF9"/>
	<path d="M 99.0,25.0 L 104.0,27.0 L 111.0,33.0 L 119.0,47.0 L 122.0,56.0 L 97.0,56.0 L 97.0,42.0 L 99.0,25.0" fill="#B8DCF9"/>
	<path d="M 191.0,153.0 L 192.0,153.0 L 192.0,192.0 L 166.0,192.0 L 169.0,190.0 L 182.0,184.0 L 181.0,176.0 L 174.0,160.0 L 174.0,158.0 L 188.0,156.0 L 191.0,153.0" fill="#FAFBFB"/>
	<path d="M 97.0,136.0 L 122.0,136.0 L 118.0,147.0 L 112.0,157.0 L 106.0,164.0 L 101.0,167.0 L 99.0,167.0 L 97.0,147.0 L 97.0,136.0" fill="#B9DCF9"/>
	<path d="M 117.0,28.0 L 122.0,29.0 L 133.0,35.0 L 144.0,44.0 L 152.0,54.0 L 152.0,56.0 L 130.0,56.0 L 124.0,40.0 L 117.0,28.0" fill="#B8DCF9"/>
	<path d="M 141.0,100.0 L 164.0,100.0 L 164.0,107.0 L 163.0,111.0 L 167.0,113.0 L 173.0,119.0 L 171.0,126.0 L 168.0,126.0 L 155.0,114.0 L 141.0,101.0 L 141.0,100.0" fill="#B8DAF7"/>
	<path d="M 37.0,136.0 L 55.0,136.0 L 62.0,151.0 L 69.0,162.0 L 63.0,160.0 L 53.0,154.0 L 41.0,143.0 L 37.0,138.0 L 37.0,136.0" fill="#B7DBF9"/>
	<path d="M 67.0,30.0 L 67.0,33.0 L 61.0,43.0 L 55.0,56.0 L 37.0,56.0 L 39.0,52.0 L 48.0,42.0 L 59.0,34.0 L 67.0,30.0" fill="#B8DBF9"/>
	<path d="M 131.0,136.0 L 132.0,136.0 L 132.0,168.0 L 126.0,171.0 L 124.0,171.0 L 124.0,162.0 L 117.0,164.0 L 123.0,153.0 L 128.0,143.0 L 131.0,136.0" fill="#B8DCF9"/>
	<path d="M 162.0,110.0 L 167.0,113.0 L 173.0,119.0 L 171.0,126.0 L 168.0,126.0 L 160.0,119.0 L 162.0,110.0" fill="#8EC7F6"/>
	<path d="M 131.0,157.0 L 132.0,157.0 L 132.0,168.0 L 126.0,171.0 L 124.0,171.0 L 124.0,161.0 L 131.0,157.0" fill="#90C9F8"/>
</svg>
