<?xml version="1.0" ?>
<svg baseProfile="full" height="600px" version="1.1" viewBox="-20.1 -20.1 240.2 240.2" width="600px" xmlns="http://www.w3.org/2000/svg" xmlns:ev="http://www.w3.org/2001/xml-events" xmlns:xlink="http://www.w3.org/1999/xlink">
	<defs/>
	<path d="M 0.0,0.0 L 200.0,0.0 L 200.0,200.0 L 0.0,200.0 L 0.0,0.0" fill="#FCFCFC"/>
	<path d="M 91.0,7.0 L 101.0,7.0 L 119.0,10.0 L 134.0,16.0 L 145.0,22.0 L 155.0,30.0 L 165.0,40.0 L 174.0,54.0 L 180.0,67.0 L 183.0,78.0 L 184.0,85.0 L 184.0,106.0 L 180.0,123.0 L 173.0,117.0 L 166.0,111.0 L 166.0,100.0 L 155.0,100.0 L 147.0,93.0 L 147.0,92.0 L 166.0,92.0 L 164.0,76.0 L 159.0,61.0 L 157.0,57.0 L 133.0,56.0 L 136.0,72.0 L 136.0,81.0 L 132.0,79.0 L 127.0,74.0 L 124.0,57.0 L 87.0,56.0 L 86.0,67.0 L 85.0,92.0 L 120.0,92.0 L 120.0,100.0 L 85.0,100.0 L 86.0,121.0 L 87.0,136.0 L 120.0,136.0 L 120.0,144.0 L 89.0,144.0 L 93.0,160.0 L 97.0,172.0 L 97.0,174.0 L 103.0,171.0 L 111.0,163.0 L 119.0,148.0 L 120.0,148.0 L 120.0,165.0 L 115.0,172.0 L 120.0,171.0 L 120.0,181.0 L 106.0,184.0 L 85.0,184.0 L 74.0,182.0 L 60.0,177.0 L 47.0,170.0 L 37.0,162.0 L 27.0,152.0 L 18.0,138.0 L 13.0,127.0 L 9.0,114.0 L 8.0,107.0 L 8.0,82.0 L 12.0,66.0 L 20.0,50.0 L 28.0,39.0 L 34.0,32.0 L 48.0,21.0 L 64.0,13.0 L 77.0,9.0 L 91.0,7.0" fill="#060606"/>
	<path d="M 134.0,100.0 L 139.0,101.0 L 152.0,113.0 L 169.0,129.0 L 185.0,144.0 L 196.0,154.0 L 195.0,160.0 L 193.0,161.0 L 174.0,161.0 L 184.0,183.0 L 183.0,188.0 L 167.0,196.0 L 161.0,195.0 L 151.0,173.0 L 144.0,179.0 L 138.0,185.0 L 133.0,184.0 L 132.0,183.0 L 132.0,102.0 L 134.0,100.0" fill="#060606"/>
	<path d="M 140.0,114.0 L 148.0,120.0 L 160.0,132.0 L 168.0,139.0 L 176.0,147.0 L 181.0,151.0 L 181.0,153.0 L 165.0,154.0 L 164.0,159.0 L 174.0,180.0 L 173.0,184.0 L 169.0,186.0 L 166.0,186.0 L 155.0,163.0 L 150.0,162.0 L 141.0,171.0 L 140.0,171.0 L 140.0,114.0" fill="#F9F9F9"/>
	<path d="M 46.0,56.0 L 78.0,56.0 L 78.0,73.0 L 77.0,92.0 L 39.0,92.0 L 39.0,83.0 L 41.0,70.0 L 45.0,58.0 L 46.0,56.0" fill="#FCFCFC"/>
	<path d="M 39.0,100.0 L 77.0,100.0 L 79.0,136.0 L 46.0,136.0 L 41.0,122.0 L 39.0,109.0 L 39.0,100.0" fill="#FCFCFC"/>
	<path d="M 97.0,17.0 L 102.0,19.0 L 110.0,26.0 L 117.0,37.0 L 121.0,45.0 L 121.0,48.0 L 88.0,48.0 L 89.0,38.0 L 94.0,22.0 L 97.0,17.0" fill="#F9F9F9"/>
	<path d="M 51.0,144.0 L 81.0,144.0 L 84.0,158.0 L 88.0,171.0 L 89.0,175.0 L 82.0,174.0 L 72.0,169.0 L 62.0,161.0 L 54.0,151.0 L 51.0,146.0 L 51.0,144.0" fill="#F9F9F9"/>
	<path d="M 84.0,17.0 L 88.0,18.0 L 84.0,29.0 L 80.0,48.0 L 50.0,48.0 L 55.0,39.0 L 66.0,27.0 L 77.0,20.0 L 84.0,17.0" fill="#F9F9F9"/>
	<path d="M 26.0,56.0 L 37.0,56.0 L 33.0,74.0 L 31.0,92.0 L 16.0,92.0 L 16.0,83.0 L 20.0,68.0 L 26.0,56.0" fill="#F6F6F6"/>
	<path d="M 16.0,100.0 L 31.0,100.0 L 33.0,118.0 L 37.0,133.0 L 37.0,136.0 L 26.0,136.0 L 19.0,121.0 L 16.0,108.0 L 16.0,100.0" fill="#F7F7F7"/>
	<path d="M 113.0,18.0 L 122.0,21.0 L 133.0,27.0 L 145.0,38.0 L 152.0,47.0 L 152.0,48.0 L 130.0,48.0 L 121.0,29.0 L 113.0,19.0 L 113.0,18.0" fill="#F7F7F7"/>
	<path d="M 52.0,28.0 L 54.0,29.0 L 46.0,39.0 L 41.0,48.0 L 32.0,48.0 L 36.0,42.0 L 44.0,34.0 L 52.0,28.0" fill="#EEEEEE"/>
	<path d="M 32.0,144.0 L 41.0,144.0 L 50.0,158.0 L 53.0,163.0 L 49.0,161.0 L 39.0,153.0 L 32.0,145.0 L 32.0,144.0" fill="#EEEEEE"/>
	<path d="M 119.0,148.0 L 120.0,148.0 L 120.0,165.0 L 119.0,165.0 L 118.0,155.0 L 116.0,156.0 L 118.0,150.0 L 119.0,148.0" fill="#1B1B1B"/>
</svg>
