<?xml version="1.0" ?>
<svg baseProfile="full" height="600px" version="1.1" viewBox="-20.1 -20.1 240.2 240.2" width="600px" xmlns="http://www.w3.org/2000/svg" xmlns:ev="http://www.w3.org/2001/xml-events" xmlns:xlink="http://www.w3.org/1999/xlink">
	<defs/>
	<path d="M 0.0,0.0 L 200.0,0.0 L 200.0,200.0 L 0.0,200.0 L 0.0,0.0" fill="#FCFCFC"/>
	<path d="M 94.0,7.0 L 110.0,8.0 L 125.0,12.0 L 142.0,20.0 L 154.0,29.0 L 165.0,40.0 L 174.0,54.0 L 180.0,67.0 L 183.0,78.0 L 184.0,85.0 L 184.0,106.0 L 180.0,123.0 L 173.0,117.0 L 172.0,116.0 L 173.0,105.0 L 174.0,100.0 L 155.0,100.0 L 143.0,89.0 L 141.0,87.0 L 138.0,68.0 L 135.0,57.0 L 97.0,56.0 L 97.0,92.0 L 120.0,92.0 L 120.0,100.0 L 97.0,100.0 L 97.0,136.0 L 120.0,136.0 L 120.0,144.0 L 98.0,144.0 L 99.0,158.0 L 99.0,175.0 L 110.0,171.0 L 119.0,163.0 L 120.0,163.0 L 120.0,181.0 L 108.0,184.0 L 85.0,184.0 L 74.0,182.0 L 60.0,177.0 L 47.0,170.0 L 37.0,162.0 L 27.0,152.0 L 18.0,138.0 L 13.0,127.0 L 9.0,114.0 L 8.0,107.0 L 8.0,82.0 L 12.0,66.0 L 20.0,50.0 L 28.0,39.0 L 34.0,32.0 L 48.0,21.0 L 64.0,13.0 L 77.0,9.0 L 94.0,7.0" fill="#050505"/>
	<path d="M 134.0,100.0 L 139.0,101.0 L 152.0,113.0 L 169.0,129.0 L 185.0,144.0 L 196.0,154.0 L 195.0,160.0 L 193.0,161.0 L 174.0,161.0 L 184.0,183.0 L 183.0,188.0 L 167.0,196.0 L 161.0,195.0 L 151.0,173.0 L 144.0,179.0 L 138.0,185.0 L 133.0,184.0 L 132.0,183.0 L 132.0,102.0 L 134.0,100.0" fill="#060606"/>
	<path d="M 53.0,56.0 L 89.0,56.0 L 89.0,92.0 L 46.0,92.0 L 46.0,83.0 L 50.0,63.0 L 53.0,56.0" fill="#FCFCFC"/>
	<path d="M 46.0,100.0 L 89.0,100.0 L 89.0,136.0 L 53.0,136.0 L 49.0,125.0 L 46.0,108.0 L 46.0,100.0" fill="#FCFCFC"/>
	<path d="M 140.0,114.0 L 148.0,120.0 L 160.0,132.0 L 168.0,139.0 L 176.0,147.0 L 181.0,151.0 L 181.0,153.0 L 165.0,154.0 L 164.0,159.0 L 174.0,180.0 L 173.0,184.0 L 169.0,186.0 L 166.0,186.0 L 155.0,163.0 L 150.0,162.0 L 141.0,171.0 L 140.0,171.0 L 140.0,114.0" fill="#F9F9F9"/>
	<path d="M 144.0,56.0 L 164.0,56.0 L 170.0,69.0 L 173.0,79.0 L 174.0,92.0 L 149.0,92.0 L 147.0,76.0 L 145.0,63.0 L 144.0,56.0" fill="#FAFAFA"/>
	<path d="M 26.0,56.0 L 44.0,56.0 L 41.0,69.0 L 38.0,92.0 L 16.0,92.0 L 16.0,83.0 L 20.0,68.0 L 26.0,56.0" fill="#FAFAFA"/>
	<path d="M 16.0,100.0 L 38.0,100.0 L 41.0,121.0 L 44.0,133.0 L 44.0,136.0 L 26.0,136.0 L 19.0,121.0 L 16.0,108.0 L 16.0,100.0" fill="#FAFAFA"/>
	<path d="M 90.0,16.0 L 91.0,16.0 L 91.0,30.0 L 90.0,48.0 L 56.0,48.0 L 61.0,38.0 L 70.0,27.0 L 81.0,19.0 L 90.0,16.0" fill="#F8F8F8"/>
	<path d="M 99.0,16.0 L 104.0,17.0 L 112.0,21.0 L 120.0,28.0 L 129.0,41.0 L 132.0,48.0 L 98.0,48.0 L 98.0,31.0 L 99.0,16.0" fill="#FAFAFA"/>
	<path d="M 57.0,144.0 L 90.0,144.0 L 91.0,157.0 L 91.0,175.0 L 84.0,174.0 L 74.0,168.0 L 65.0,159.0 L 58.0,148.0 L 57.0,144.0" fill="#FBFBFB"/>
	<path d="M 125.0,22.0 L 131.0,24.0 L 141.0,30.0 L 151.0,39.0 L 158.0,47.0 L 158.0,48.0 L 140.0,48.0 L 132.0,32.0 L 125.0,23.0 L 125.0,22.0" fill="#F7F7F7"/>
	<path d="M 61.0,23.0 L 63.0,24.0 L 57.0,31.0 L 49.0,45.0 L 47.0,48.0 L 32.0,48.0 L 36.0,42.0 L 44.0,34.0 L 59.0,24.0 L 61.0,23.0" fill="#F4F4F4"/>
	<path d="M 32.0,144.0 L 48.0,144.0 L 55.0,158.0 L 62.0,167.0 L 60.0,168.0 L 50.0,162.0 L 39.0,153.0 L 32.0,145.0 L 32.0,144.0" fill="#F4F4F4"/>
</svg>
