<?xml version="1.0" ?>
<svg baseProfile="full" height="600px" version="1.1" viewBox="-16.08 -16.08 192.16 192.16" width="600px" xmlns="http://www.w3.org/2000/svg" xmlns:ev="http://www.w3.org/2001/xml-events" xmlns:xlink="http://www.w3.org/1999/xlink">
	<defs/>
	<path d="M 0.0,0.0 L 160.0,0.0 L 160.0,160.0 L 0.0,160.0 L 0.0,0.0" fill="#7694BE"/>
	<path d="M 0.0,0.0 L 160.0,0.0 L 160.0,160.0 L 144.0,160.0 L 150.0,153.0 L 158.0,145.0 L 157.0,141.0 L 142.0,126.0 L 143.0,122.0 L 145.0,118.0 L 147.0,118.0 L 150.0,109.0 L 154.0,96.0 L 155.0,90.0 L 155.0,67.0 L 150.0,50.0 L 143.0,37.0 L 134.0,26.0 L 123.0,17.0 L 107.0,9.0 L 93.0,5.0 L 85.0,4.0 L 74.0,4.0 L 55.0,8.0 L 39.0,16.0 L 31.0,22.0 L 23.0,29.0 L 14.0,42.0 L 7.0,58.0 L 5.0,68.0 L 5.0,91.0 L 9.0,107.0 L 17.0,123.0 L 28.0,136.0 L 39.0,144.0 L 55.0,152.0 L 67.0,155.0 L 74.0,156.0 L 85.0,156.0 L 105.0,152.0 L 121.0,144.0 L 126.0,142.0 L 142.0,158.0 L 142.0,160.0 L 0.0,160.0 L 0.0,0.0" fill="#FCFCFD"/>
	<path d="M 89.0,68.0 L 118.0,68.0 L 118.0,88.0 L 123.0,88.0 L 123.0,68.0 L 144.0,68.0 L 145.0,71.0 L 145.0,88.0 L 149.0,88.0 L 149.0,68.0 L 152.0,68.0 L 152.0,92.0 L 149.0,104.0 L 145.0,113.0 L 145.0,116.0 L 147.0,118.0 L 145.0,118.0 L 143.0,123.0 L 144.0,127.0 L 159.0,142.0 L 158.0,146.0 L 144.0,160.0 L 142.0,160.0 L 135.0,152.0 L 126.0,143.0 L 121.0,145.0 L 117.0,147.0 L 116.0,144.0 L 110.0,146.0 L 99.0,150.0 L 88.0,152.0 L 85.0,151.0 L 87.0,132.0 L 88.0,88.0 L 89.0,68.0" fill="#BFE0F4"/>
	<path d="M 96.0,96.0 L 139.0,96.0 L 137.0,100.0 L 128.0,109.0 L 130.0,113.0 L 159.0,142.0 L 158.0,146.0 L 144.0,160.0 L 142.0,160.0 L 135.0,152.0 L 111.0,128.0 L 107.0,130.0 L 99.0,137.0 L 96.0,139.0 L 96.0,96.0" fill="#617488"/>
	<path d="M 96.0,96.0 L 139.0,96.0 L 137.0,100.0 L 128.0,109.0 L 130.0,113.0 L 159.0,142.0 L 158.0,146.0 L 144.0,160.0 L 142.0,160.0 L 135.0,152.0 L 111.0,128.0 L 107.0,130.0 L 99.0,137.0 L 96.0,139.0 L 96.0,96.0 M 100.0,100.0 L 100.0,130.0 L 107.0,124.0 L 110.0,122.0 L 142.0,154.0 L 146.0,152.0 L 154.0,144.0 L 152.0,140.0 L 122.0,110.0 L 128.0,103.0 L 130.0,100.0 L 100.0,100.0" fill="#39434F"/>
	<path d="M 55.0,68.0 L 86.0,68.0 L 86.0,92.0 L 55.0,92.0 L 55.0,68.0" fill="#C0E1F5"/>
	<path d="M 59.0,40.0 L 85.0,40.0 L 85.0,64.0 L 56.0,64.0 L 56.0,55.0 L 59.0,40.0" fill="#C0E1F5"/>
	<path d="M 56.0,96.0 L 85.0,96.0 L 85.0,120.0 L 59.0,120.0 L 56.0,104.0 L 56.0,96.0" fill="#C0E1F5"/>
	<path d="M 89.0,40.0 L 112.0,40.0 L 115.0,47.0 L 118.0,62.0 L 118.0,64.0 L 89.0,64.0 L 89.0,40.0" fill="#C0E1F5"/>
	<path d="M 25.0,68.0 L 51.0,68.0 L 51.0,92.0 L 26.0,92.0 L 25.0,89.0 L 25.0,68.0" fill="#BFE1F5"/>
	<path d="M 26.0,96.0 L 52.0,96.0 L 55.0,120.0 L 34.0,120.0 L 29.0,109.0 L 26.0,96.0" fill="#BFE1F5"/>
	<path d="M 34.0,40.0 L 55.0,40.0 L 53.0,52.0 L 52.0,64.0 L 27.0,64.0 L 27.0,57.0 L 32.0,43.0 L 34.0,40.0" fill="#BFE1F5"/>
	<path d="M 117.0,40.0 L 135.0,40.0 L 140.0,50.0 L 143.0,59.0 L 143.0,64.0 L 122.0,64.0 L 117.0,43.0 L 117.0,40.0" fill="#C0E1F5"/>
	<path d="M 77.0,8.0 L 81.0,9.0 L 83.0,17.0 L 84.0,36.0 L 60.0,36.0 L 64.0,24.0 L 71.0,12.0 L 77.0,8.0" fill="#BFE0F5"/>
	<path d="M 61.0,124.0 L 84.0,124.0 L 84.0,135.0 L 81.0,152.0 L 76.0,152.0 L 69.0,145.0 L 63.0,133.0 L 61.0,124.0" fill="#BFE0F5"/>
	<path d="M 85.0,9.0 L 90.0,10.0 L 96.0,14.0 L 103.0,21.0 L 109.0,31.0 L 110.0,36.0 L 88.0,36.0 L 86.0,18.0 L 85.0,9.0" fill="#BFE1F5"/>
	<path d="M 65.0,10.0 L 67.0,10.0 L 65.0,14.0 L 59.0,26.0 L 56.0,36.0 L 36.0,36.0 L 42.0,27.0 L 53.0,16.0 L 65.0,10.0" fill="#BEE0F4"/>
	<path d="M 37.0,124.0 L 56.0,124.0 L 62.0,140.0 L 67.0,148.0 L 67.0,150.0 L 60.0,148.0 L 50.0,141.0 L 41.0,132.0 L 37.0,126.0 L 37.0,124.0" fill="#BFE0F5"/>
	<path d="M 8.0,68.0 L 21.0,68.0 L 21.0,92.0 L 8.0,92.0 L 8.0,68.0" fill="#BFE1F5"/>
	<path d="M 19.0,40.0 L 29.0,40.0 L 26.0,51.0 L 22.0,64.0 L 10.0,64.0 L 11.0,56.0 L 19.0,40.0" fill="#BEE0F4"/>
	<path d="M 99.0,11.0 L 108.0,14.0 L 119.0,21.0 L 129.0,31.0 L 132.0,36.0 L 115.0,36.0 L 107.0,21.0 L 99.0,12.0 L 99.0,11.0" fill="#BEDFF4"/>
	<path d="M 10.0,96.0 L 22.0,96.0 L 24.0,102.0 L 28.0,115.0 L 29.0,120.0 L 19.0,120.0 L 12.0,106.0 L 10.0,96.0" fill="#BFE0F4"/>
	<path d="M 45.0,16.0 L 47.0,17.0 L 39.0,25.0 L 32.0,36.0 L 23.0,36.0 L 26.0,31.0 L 33.0,24.0 L 45.0,16.0" fill="#BCDDF2"/>
	<path d="M 23.0,124.0 L 32.0,124.0 L 41.0,137.0 L 47.0,144.0 L 42.0,142.0 L 34.0,136.0 L 26.0,129.0 L 23.0,124.0" fill="#BCDDF2"/>
	<path d="M 139.0,40.0 L 141.0,40.0 L 149.0,56.0 L 150.0,64.0 L 147.0,63.0 L 143.0,49.0 L 139.0,40.0" fill="#B6D7EE"/>
	<path d="M 149.0,68.0 L 152.0,68.0 L 152.0,76.0 L 151.0,77.0 L 150.0,86.0 L 149.0,86.0 L 149.0,68.0" fill="#B8DAF0"/>
</svg>
