<?xml version="1.0" ?>
<svg baseProfile="full" height="600px" version="1.1" viewBox="-16.08 -16.08 192.16 192.16" width="600px" xmlns="http://www.w3.org/2000/svg" xmlns:ev="http://www.w3.org/2001/xml-events" xmlns:xlink="http://www.w3.org/1999/xlink">
	<defs/>
	<path d="M 0.0,0.0 L 160.0,0.0 L 160.0,160.0 L 0.0,160.0 L 0.0,0.0" fill="#7694BE"/>
	<path d="M 0.0,0.0 L 160.0,0.0 L 160.0,160.0 L 144.0,160.0 L 150.0,153.0 L 158.0,145.0 L 157.0,141.0 L 142.0,126.0 L 143.0,122.0 L 145.0,118.0 L 147.0,118.0 L 150.0,109.0 L 154.0,96.0 L 155.0,90.0 L 155.0,67.0 L 150.0,50.0 L 143.0,37.0 L 134.0,26.0 L 123.0,17.0 L 107.0,9.0 L 93.0,5.0 L 84.0,4.0 L 75.0,4.0 L 55.0,8.0 L 39.0,16.0 L 31.0,22.0 L 23.0,29.0 L 14.0,42.0 L 7.0,58.0 L 5.0,68.0 L 5.0,91.0 L 9.0,107.0 L 17.0,123.0 L 28.0,136.0 L 39.0,144.0 L 55.0,152.0 L 67.0,155.0 L 76.0,156.0 L 85.0,156.0 L 101.0,153.0 L 114.0,148.0 L 124.0,142.0 L 128.0,144.0 L 142.0,158.0 L 142.0,160.0 L 0.0,160.0 L 0.0,0.0" fill="#FCFCFD"/>
	<path d="M 62.0,68.0 L 94.0,68.0 L 94.0,88.0 L 98.0,88.0 L 98.0,68.0 L 126.0,68.0 L 126.0,88.0 L 130.0,88.0 L 130.0,68.0 L 150.0,68.0 L 151.0,71.0 L 152.0,89.0 L 149.0,103.0 L 144.0,114.0 L 144.0,116.0 L 147.0,118.0 L 145.0,118.0 L 143.0,123.0 L 144.0,127.0 L 159.0,142.0 L 158.0,146.0 L 144.0,160.0 L 142.0,160.0 L 135.0,152.0 L 126.0,143.0 L 121.0,145.0 L 117.0,145.0 L 114.0,144.0 L 106.0,148.0 L 91.0,152.0 L 87.0,151.0 L 87.0,142.0 L 83.0,151.0 L 78.0,152.0 L 74.0,147.0 L 70.0,138.0 L 67.0,129.0 L 67.0,124.0 L 88.0,124.0 L 88.0,120.0 L 65.0,120.0 L 63.0,105.0 L 63.0,96.0 L 88.0,96.0 L 88.0,92.0 L 62.0,92.0 L 62.0,68.0" fill="#BFE0F5"/>
	<path d="M 96.0,96.0 L 139.0,96.0 L 137.0,100.0 L 128.0,109.0 L 130.0,113.0 L 159.0,142.0 L 158.0,146.0 L 144.0,160.0 L 142.0,160.0 L 135.0,152.0 L 111.0,128.0 L 107.0,130.0 L 99.0,137.0 L 96.0,139.0 L 96.0,96.0" fill="#617488"/>
	<path d="M 96.0,96.0 L 139.0,96.0 L 137.0,100.0 L 128.0,109.0 L 130.0,113.0 L 159.0,142.0 L 158.0,146.0 L 144.0,160.0 L 142.0,160.0 L 135.0,152.0 L 111.0,128.0 L 107.0,130.0 L 99.0,137.0 L 96.0,139.0 L 96.0,96.0 M 100.0,100.0 L 100.0,130.0 L 107.0,124.0 L 110.0,122.0 L 142.0,154.0 L 146.0,152.0 L 154.0,144.0 L 152.0,140.0 L 122.0,110.0 L 128.0,103.0 L 130.0,100.0 L 100.0,100.0" fill="#39434F"/>
	<path d="M 65.0,40.0 L 92.0,40.0 L 94.0,58.0 L 94.0,64.0 L 63.0,64.0 L 63.0,54.0 L 65.0,40.0" fill="#C0E1F5"/>
	<path d="M 31.0,68.0 L 58.0,68.0 L 58.0,92.0 L 31.0,92.0 L 31.0,68.0" fill="#C0E2F6"/>
	<path d="M 96.0,40.0 L 119.0,40.0 L 123.0,51.0 L 125.0,64.0 L 97.0,64.0 L 96.0,40.0" fill="#C0E1F5"/>
	<path d="M 39.0,40.0 L 61.0,40.0 L 59.0,64.0 L 32.0,64.0 L 34.0,51.0 L 38.0,41.0 L 39.0,40.0" fill="#C0E1F5"/>
	<path d="M 32.0,96.0 L 59.0,96.0 L 61.0,113.0 L 61.0,120.0 L 39.0,120.0 L 35.0,111.0 L 32.0,100.0 L 32.0,96.0" fill="#C0E1F5"/>
	<path d="M 78.0,8.0 L 83.0,9.0 L 87.0,17.0 L 91.0,33.0 L 91.0,36.0 L 67.0,36.0 L 68.0,27.0 L 73.0,14.0 L 78.0,8.0" fill="#BFE0F5"/>
	<path d="M 8.0,68.0 L 27.0,68.0 L 27.0,92.0 L 8.0,92.0 L 8.0,68.0" fill="#BFE0F5"/>
	<path d="M 123.0,40.0 L 140.0,40.0 L 147.0,54.0 L 149.0,64.0 L 129.0,64.0 L 125.0,47.0 L 123.0,40.0" fill="#BFE1F5"/>
	<path d="M 19.0,40.0 L 34.0,40.0 L 30.0,56.0 L 28.0,64.0 L 10.0,64.0 L 11.0,56.0 L 19.0,40.0" fill="#BFE0F5"/>
	<path d="M 10.0,96.0 L 28.0,96.0 L 34.0,118.0 L 34.0,120.0 L 19.0,120.0 L 12.0,106.0 L 10.0,96.0" fill="#BFE1F5"/>
	<path d="M 87.0,9.0 L 92.0,10.0 L 101.0,15.0 L 110.0,24.0 L 116.0,34.0 L 116.0,36.0 L 95.0,36.0 L 90.0,16.0 L 87.0,9.0" fill="#BFE0F5"/>
	<path d="M 69.0,9.0 L 71.0,9.0 L 69.0,14.0 L 65.0,24.0 L 62.0,36.0 L 41.0,36.0 L 45.0,28.0 L 54.0,18.0 L 64.0,11.0 L 69.0,9.0" fill="#BFE0F4"/>
	<path d="M 41.0,124.0 L 62.0,124.0 L 68.0,144.0 L 71.0,149.0 L 71.0,151.0 L 65.0,149.0 L 55.0,143.0 L 46.0,133.0 L 41.0,124.0" fill="#BFE0F4"/>
	<path d="M 104.0,12.0 L 110.0,14.0 L 121.0,20.0 L 133.0,31.0 L 136.0,36.0 L 121.0,36.0 L 114.0,24.0 L 105.0,14.0 L 104.0,12.0" fill="#BEDFF4"/>
	<path d="M 23.0,124.0 L 37.0,124.0 L 44.0,136.0 L 51.0,144.0 L 54.0,147.0 L 49.0,146.0 L 36.0,138.0 L 26.0,129.0 L 23.0,124.0" fill="#BDDEF3"/>
	<path d="M 51.0,13.0 L 53.0,14.0 L 46.0,21.0 L 36.0,36.0 L 23.0,36.0 L 26.0,31.0 L 33.0,24.0 L 47.0,15.0 L 51.0,13.0" fill="#BEDFF4"/>
	<path d="M 47.0,142.0 L 51.0,144.0 L 54.0,147.0 L 49.0,146.0 L 46.0,143.0 L 47.0,142.0" fill="#B5D6ED"/>
</svg>
