<?xml version="1.0" ?>
<svg baseProfile="full" height="600px" version="1.1" viewBox="-12.06 -12.06 144.12 144.12" width="600px" xmlns="http://www.w3.org/2000/svg" xmlns:ev="http://www.w3.org/2001/xml-events" xmlns:xlink="http://www.w3.org/1999/xlink">
	<defs/>
	<path d="M 0.0,0.0 L 120.0,0.0 L 120.0,120.0 L 0.0,120.0 L 0.0,0.0" fill="#FCFCFC"/>
	<path d="M 51.0,12.0 L 68.0,12.0 L 81.0,16.0 L 91.0,23.0 L 99.0,31.0 L 105.0,42.0 L 108.0,51.0 L 108.0,66.0 L 107.0,73.0 L 103.0,71.0 L 98.0,68.0 L 97.0,48.0 L 81.0,48.0 L 81.0,60.0 L 75.0,65.0 L 73.0,67.0 L 73.0,48.0 L 44.0,48.0 L 44.0,71.0 L 72.0,72.0 L 72.0,107.0 L 68.0,108.0 L 51.0,108.0 L 39.0,104.0 L 29.0,97.0 L 21.0,89.0 L 13.0,73.0 L 12.0,69.0 L 12.0,51.0 L 16.0,40.0 L 22.0,30.0 L 31.0,21.0 L 47.0,13.0 L 51.0,12.0" fill="#050505"/>
	<path d="M 82.0,68.0 L 87.0,69.0 L 106.0,82.0 L 116.0,90.0 L 115.0,95.0 L 110.0,97.0 L 102.0,98.0 L 110.0,114.0 L 109.0,119.0 L 104.0,120.0 L 99.0,112.0 L 94.0,103.0 L 86.0,112.0 L 81.0,111.0 L 80.0,110.0 L 80.0,70.0 L 82.0,68.0" fill="#040404"/>
	<path d="M 58.0,20.0 L 63.0,21.0 L 67.0,26.0 L 71.0,35.0 L 71.0,40.0 L 46.0,40.0 L 47.0,34.0 L 53.0,24.0 L 58.0,20.0" fill="#F7F7F7"/>
	<path d="M 46.0,80.0 L 71.0,80.0 L 70.0,87.0 L 65.0,97.0 L 62.0,100.0 L 56.0,99.0 L 50.0,92.0 L 46.0,82.0 L 46.0,80.0" fill="#F8F8F8"/>
	<path d="M 22.0,48.0 L 35.0,48.0 L 35.0,72.0 L 22.0,72.0 L 20.0,66.0 L 20.0,54.0 L 22.0,48.0" fill="#FBFBFB"/>
	<path d="M 74.0,23.0 L 79.0,25.0 L 87.0,31.0 L 93.0,38.0 L 93.0,40.0 L 79.0,40.0 L 76.0,28.0 L 74.0,23.0" fill="#F1F1F1"/>
	<path d="M 26.0,80.0 L 37.0,80.0 L 40.0,88.0 L 43.0,96.0 L 38.0,94.0 L 28.0,85.0 L 26.0,80.0" fill="#EDEDED"/>
	<path d="M 41.0,24.0 L 43.0,25.0 L 39.0,34.0 L 37.0,40.0 L 26.0,40.0 L 28.0,35.0 L 35.0,28.0 L 41.0,24.0" fill="#EFEFEF"/>
</svg>
