<?xml version="1.0" ?>
<svg baseProfile="full" height="600px" version="1.1" viewBox="-20.1 -20.1 240.2 240.2" width="600px" xmlns="http://www.w3.org/2000/svg" xmlns:ev="http://www.w3.org/2001/xml-events" xmlns:xlink="http://www.w3.org/1999/xlink">
	<defs/>
	<path d="M 0.0,0.0 L 200.0,0.0 L 200.0,200.0 L 0.0,200.0 L 0.0,0.0" fill="#FCFCFC"/>
	<path d="M 84.0,10.0 L 105.0,10.0 L 121.0,13.0 L 137.0,19.0 L 149.0,26.0 L 159.0,34.0 L 167.0,42.0 L 177.0,57.0 L 183.0,71.0 L 186.0,85.0 L 186.0,104.0 L 183.0,121.0 L 180.0,124.0 L 175.0,119.0 L 176.0,110.0 L 178.0,100.0 L 166.0,100.0 L 165.0,109.0 L 158.0,103.0 L 158.0,100.0 L 154.0,99.0 L 147.0,93.0 L 147.0,92.0 L 157.0,92.0 L 156.0,78.0 L 151.0,61.0 L 150.0,57.0 L 118.0,57.0 L 120.0,67.0 L 120.0,124.0 L 118.0,135.0 L 120.0,135.0 L 120.0,143.0 L 116.0,143.0 L 113.0,155.0 L 108.0,167.0 L 105.0,173.0 L 118.0,168.0 L 120.0,168.0 L 120.0,179.0 L 111.0,181.0 L 105.0,182.0 L 84.0,182.0 L 67.0,178.0 L 52.0,172.0 L 37.0,162.0 L 23.0,148.0 L 14.0,134.0 L 8.0,118.0 L 5.0,102.0 L 5.0,87.0 L 9.0,70.0 L 16.0,54.0 L 25.0,42.0 L 32.0,34.0 L 45.0,24.0 L 61.0,16.0 L 73.0,12.0 L 84.0,10.0" fill="#070707"/>
	<path d="M 134.0,100.0 L 139.0,101.0 L 152.0,113.0 L 169.0,129.0 L 185.0,144.0 L 196.0,154.0 L 195.0,160.0 L 193.0,161.0 L 174.0,161.0 L 184.0,183.0 L 183.0,188.0 L 167.0,196.0 L 161.0,195.0 L 151.0,173.0 L 144.0,179.0 L 138.0,185.0 L 133.0,184.0 L 132.0,183.0 L 132.0,102.0 L 134.0,100.0" fill="#060606"/>
	<path d="M 71.0,57.0 L 110.0,57.0 L 112.0,70.0 L 112.0,92.0 L 68.0,92.0 L 68.0,77.0 L 71.0,57.0" fill="#FCFCFC"/>
	<path d="M 68.0,100.0 L 112.0,100.0 L 112.0,119.0 L 110.0,135.0 L 72.0,135.0 L 69.0,122.0 L 68.0,116.0 L 68.0,100.0" fill="#FCFCFC"/>
	<path d="M 140.0,114.0 L 148.0,120.0 L 160.0,132.0 L 168.0,139.0 L 176.0,147.0 L 181.0,151.0 L 181.0,153.0 L 165.0,154.0 L 164.0,159.0 L 174.0,180.0 L 173.0,184.0 L 169.0,186.0 L 166.0,186.0 L 155.0,163.0 L 150.0,162.0 L 141.0,171.0 L 140.0,171.0 L 140.0,114.0" fill="#F9F9F9"/>
	<path d="M 27.0,100.0 L 60.0,100.0 L 61.0,118.0 L 63.0,129.0 L 63.0,135.0 L 36.0,135.0 L 32.0,127.0 L 28.0,115.0 L 27.0,100.0" fill="#FAFAFA"/>
	<path d="M 36.0,57.0 L 63.0,57.0 L 61.0,75.0 L 59.0,92.0 L 27.0,92.0 L 27.0,83.0 L 31.0,67.0 L 36.0,57.0" fill="#FBFBFB"/>
	<path d="M 93.0,19.0 L 96.0,20.0 L 105.0,37.0 L 108.0,46.0 L 108.0,49.0 L 74.0,49.0 L 77.0,40.0 L 82.0,30.0 L 91.0,20.0 L 93.0,19.0" fill="#F9F9F9"/>
	<path d="M 105.0,19.0 L 111.0,20.0 L 121.0,24.0 L 133.0,33.0 L 142.0,43.0 L 145.0,49.0 L 116.0,49.0 L 112.0,35.0 L 105.0,21.0 L 105.0,19.0" fill="#F9F9F9"/>
	<path d="M 75.0,143.0 L 107.0,143.0 L 106.0,150.0 L 101.0,163.0 L 96.0,172.0 L 92.0,171.0 L 84.0,163.0 L 77.0,151.0 L 75.0,143.0" fill="#FBFBFB"/>
	<path d="M 41.0,143.0 L 66.0,143.0 L 74.0,161.0 L 81.0,172.0 L 72.0,170.0 L 61.0,164.0 L 51.0,156.0 L 42.0,146.0 L 41.0,143.0" fill="#F8F8F8"/>
	<path d="M 77.0,20.0 L 80.0,21.0 L 76.0,26.0 L 68.0,42.0 L 65.0,49.0 L 41.0,49.0 L 45.0,42.0 L 54.0,33.0 L 68.0,24.0 L 77.0,20.0" fill="#F8F8F8"/>
	<path d="M 159.0,57.0 L 167.0,57.0 L 175.0,73.0 L 177.0,81.0 L 177.0,92.0 L 166.0,92.0 L 164.0,76.0 L 159.0,59.0 L 159.0,57.0" fill="#F9F9F9"/>
	<path d="M 24.0,57.0 L 27.0,58.0 L 22.0,71.0 L 20.0,81.0 L 19.0,92.0 L 14.0,92.0 L 14.0,83.0 L 19.0,67.0 L 24.0,57.0" fill="#E8E8E8"/>
	<path d="M 14.0,100.0 L 19.0,100.0 L 22.0,121.0 L 27.0,135.0 L 24.0,135.0 L 18.0,122.0 L 15.0,113.0 L 14.0,100.0" fill="#EAEAEA"/>
	<path d="M 145.0,34.0 L 149.0,36.0 L 157.0,43.0 L 161.0,49.0 L 154.0,49.0 L 148.0,39.0 L 145.0,34.0" fill="#E7E7E7"/>
</svg>
