<?xml version="1.0" ?>
<svg baseProfile="full" height="600px" version="1.1" viewBox="-19.296000000000003 -19.296000000000003 230.592 230.592" width="600px" xmlns="http://www.w3.org/2000/svg" xmlns:ev="http://www.w3.org/2001/xml-events" xmlns:xlink="http://www.w3.org/1999/xlink">
	<defs/>
	<path d="M 0.0,0.0 L 192.0,0.0 L 192.0,192.0 L 0.0,192.0 L 0.0,0.0" fill="#45A7F5"/>
	<path d="M 0.0,0.0 L 192.0,0.0 L 192.0,148.0 L 185.0,142.0 L 171.0,129.0 L 174.0,119.0 L 177.0,106.0 L 177.0,85.0 L 173.0,70.0 L 166.0,56.0 L 156.0,43.0 L 144.0,33.0 L 129.0,25.0 L 112.0,20.0 L 105.0,19.0 L 84.0,19.0 L 68.0,23.0 L 54.0,29.0 L 40.0,39.0 L 32.0,47.0 L 23.0,61.0 L 18.0,73.0 L 16.0,79.0 L 15.0,86.0 L 15.0,107.0 L 19.0,122.0 L 27.0,138.0 L 36.0,149.0 L 45.0,157.0 L 58.0,165.0 L 74.0,171.0 L 85.0,173.0 L 106.0,173.0 L 120.0,170.0 L 132.0,167.0 L 133.0,175.0 L 135.0,177.0 L 142.0,176.0 L 148.0,170.0 L 150.0,170.0 L 150.0,168.0 L 152.0,168.0 L 161.0,189.0 L 163.0,192.0 L 0.0,192.0 L 0.0,0.0" fill="#FCFDFD"/>
	<path d="M 135.0,100.0 L 142.0,101.0 L 159.0,117.0 L 174.0,131.0 L 189.0,145.0 L 192.0,148.0 L 192.0,192.0 L 163.0,192.0 L 160.0,189.0 L 153.0,172.0 L 152.0,168.0 L 150.0,168.0 L 150.0,170.0 L 140.0,178.0 L 135.0,178.0 L 132.0,175.0 L 132.0,103.0 L 135.0,100.0" fill="#495D67"/>
	<path d="M 133.0,65.0 L 155.0,65.0 L 160.0,80.0 L 161.0,92.0 L 144.0,93.0 L 152.0,99.0 L 161.0,100.0 L 162.0,109.0 L 167.0,112.0 L 171.0,117.0 L 174.0,120.0 L 172.0,127.0 L 169.0,127.0 L 154.0,113.0 L 142.0,102.0 L 135.0,101.0 L 133.0,103.0 L 132.0,167.0 L 123.0,170.0 L 124.0,160.0 L 117.0,162.0 L 123.0,152.0 L 124.0,127.0 L 95.0,127.0 L 95.0,100.0 L 126.0,100.0 L 128.0,96.0 L 132.0,93.0 L 135.0,93.0 L 134.0,76.0 L 133.0,65.0" fill="#8EC8F8"/>
	<path d="M 140.0,111.0 L 147.0,117.0 L 159.0,128.0 L 175.0,143.0 L 180.0,149.0 L 177.0,150.0 L 162.0,151.0 L 174.0,178.0 L 174.0,180.0 L 169.0,182.0 L 166.0,182.0 L 155.0,157.0 L 155.0,155.0 L 147.0,161.0 L 140.0,167.0 L 140.0,111.0" fill="#F5F6F7"/>
	<path d="M 95.0,65.0 L 124.0,65.0 L 126.0,72.0 L 127.0,81.0 L 127.0,92.0 L 95.0,92.0 L 95.0,65.0" fill="#BADDF9"/>
	<path d="M 58.0,65.0 L 87.0,65.0 L 87.0,92.0 L 55.0,92.0 L 55.0,78.0 L 58.0,65.0" fill="#B9DCF9"/>
	<path d="M 55.0,100.0 L 87.0,100.0 L 87.0,127.0 L 59.0,127.0 L 56.0,118.0 L 55.0,111.0 L 55.0,100.0" fill="#B9DCF9"/>
	<path d="M 95.0,100.0 L 127.0,100.0 L 127.0,110.0 L 124.0,127.0 L 95.0,127.0 L 95.0,100.0" fill="#BADDF9"/>
	<path d="M 133.0,65.0 L 155.0,65.0 L 160.0,80.0 L 161.0,92.0 L 136.0,92.0 L 133.0,71.0 L 133.0,65.0" fill="#B9DCF9"/>
	<path d="M 23.0,100.0 L 46.0,100.0 L 49.0,121.0 L 50.0,127.0 L 30.0,127.0 L 26.0,119.0 L 23.0,107.0 L 23.0,100.0" fill="#B9DCF9"/>
	<path d="M 30.0,65.0 L 50.0,65.0 L 48.0,79.0 L 46.0,92.0 L 23.0,92.0 L 23.0,84.0 L 27.0,71.0 L 30.0,65.0" fill="#B9DCF9"/>
	<path d="M 62.0,135.0 L 88.0,135.0 L 91.0,161.0 L 91.0,166.0 L 83.0,163.0 L 74.0,156.0 L 66.0,145.0 L 62.0,137.0 L 62.0,135.0" fill="#B7DBF9"/>
	<path d="M 87.0,27.0 L 91.0,28.0 L 88.0,57.0 L 62.0,57.0 L 64.0,51.0 L 70.0,41.0 L 75.0,35.0 L 85.0,28.0 L 87.0,27.0" fill="#B8DCF9"/>
	<path d="M 191.0,153.0 L 192.0,153.0 L 192.0,192.0 L 166.0,192.0 L 169.0,190.0 L 182.0,184.0 L 181.0,176.0 L 174.0,160.0 L 174.0,158.0 L 188.0,156.0 L 191.0,153.0" fill="#FAFBFB"/>
	<path d="M 99.0,27.0 L 104.0,29.0 L 111.0,35.0 L 118.0,46.0 L 122.0,57.0 L 96.0,57.0 L 97.0,38.0 L 99.0,27.0" fill="#B8DCF9"/>
	<path d="M 96.0,135.0 L 121.0,135.0 L 120.0,141.0 L 113.0,154.0 L 106.0,162.0 L 101.0,165.0 L 99.0,165.0 L 96.0,144.0 L 96.0,135.0" fill="#B9DCF9"/>
	<path d="M 117.0,30.0 L 124.0,32.0 L 137.0,41.0 L 145.0,49.0 L 150.0,57.0 L 130.0,57.0 L 124.0,42.0 L 117.0,30.0" fill="#B7DBF9"/>
	<path d="M 141.0,100.0 L 161.0,100.0 L 162.0,109.0 L 167.0,112.0 L 171.0,117.0 L 174.0,120.0 L 172.0,127.0 L 169.0,127.0 L 154.0,113.0 L 141.0,101.0 L 141.0,100.0" fill="#B8DBF7"/>
	<path d="M 35.0,135.0 L 53.0,135.0 L 61.0,151.0 L 67.0,160.0 L 61.0,158.0 L 50.0,151.0 L 40.0,142.0 L 35.0,135.0" fill="#B7DBF9"/>
	<path d="M 65.0,32.0 L 67.0,33.0 L 60.0,42.0 L 53.0,57.0 L 35.0,57.0 L 41.0,49.0 L 51.0,40.0 L 65.0,32.0" fill="#B7DBF9"/>
	<path d="M 131.0,135.0 L 132.0,135.0 L 132.0,167.0 L 123.0,170.0 L 124.0,160.0 L 117.0,162.0 L 124.0,151.0 L 130.0,136.0 L 131.0,135.0" fill="#B8DCF9"/>
	<path d="M 160.0,104.0 L 161.0,104.0 L 163.0,110.0 L 168.0,112.0 L 171.0,117.0 L 174.0,120.0 L 172.0,127.0 L 169.0,127.0 L 158.0,117.0 L 160.0,104.0" fill="#8CC6F6"/>
	<path d="M 131.0,154.0 L 132.0,154.0 L 132.0,167.0 L 123.0,170.0 L 123.0,159.0 L 131.0,154.0" fill="#91C9F8"/>
</svg>
