<?xml version="1.0" ?>
<svg baseProfile="full" height="600px" version="1.1" viewBox="-20.1 -20.1 240.2 240.2" width="600px" xmlns="http://www.w3.org/2000/svg" xmlns:ev="http://www.w3.org/2001/xml-events" xmlns:xlink="http://www.w3.org/1999/xlink">
	<defs/>
	<path d="M 0.0,0.0 L 200.0,0.0 L 200.0,200.0 L 0.0,200.0 L 0.0,0.0" fill="#FDFDFD"/>
	<path d="M 69.0,145.0 L 75.0,145.0 L 76.0,150.0 L 62.0,175.0 L 60.0,177.0 L 55.0,176.0 L 54.0,171.0 L 68.0,146.0 L 69.0,145.0" fill="#5B5B5B"/>
	<path d="M 146.0,124.0 L 151.0,124.0 L 168.0,134.0 L 177.0,140.0 L 176.0,145.0 L 171.0,146.0 L 146.0,132.0 L 145.0,131.0 L 145.0,125.0 L 146.0,124.0" fill="#0A0A0A"/>
	<path d="M 171.0,54.0 L 176.0,55.0 L 177.0,60.0 L 168.0,66.0 L 150.0,76.0 L 145.0,75.0 L 145.0,69.0 L 169.0,55.0 L 171.0,54.0" fill="#0A0A0A"/>
	<path d="M 140.0,23.0 L 145.0,24.0 L 146.0,29.0 L 132.0,54.0 L 131.0,55.0 L 125.0,55.0 L 124.0,49.0 L 139.0,24.0 L 140.0,23.0" fill="#0A0A0A"/>
	<path d="M 125.0,145.0 L 131.0,145.0 L 146.0,171.0 L 145.0,176.0 L 140.0,177.0 L 134.0,168.0 L 124.0,150.0 L 125.0,145.0" fill="#090909"/>
	<path d="M 56.0,23.0 L 61.0,24.0 L 71.0,41.0 L 76.0,49.0 L 75.0,55.0 L 69.0,55.0 L 54.0,29.0 L 55.0,24.0 L 56.0,23.0" fill="#ACACAC"/>
	<path d="M 98.0,152.0 L 103.0,153.0 L 104.0,154.0 L 104.0,186.0 L 102.0,188.0 L 97.0,187.0 L 96.0,186.0 L 96.0,154.0 L 98.0,152.0" fill="#020202"/>
	<path d="M 154.0,96.0 L 186.0,96.0 L 188.0,98.0 L 187.0,103.0 L 186.0,104.0 L 154.0,104.0 L 152.0,102.0 L 153.0,97.0 L 154.0,96.0" fill="#020202"/>
	<path d="M 98.0,12.0 L 103.0,13.0 L 104.0,14.0 L 104.0,46.0 L 102.0,48.0 L 97.0,47.0 L 96.0,46.0 L 96.0,14.0 L 98.0,12.0" fill="#565656"/>
</svg>
