<?xml version="1.0" ?>
<svg baseProfile="full" height="600px" version="1.1" viewBox="-12.06 -12.06 144.12 144.12" width="600px" xmlns="http://www.w3.org/2000/svg" xmlns:ev="http://www.w3.org/2001/xml-events" xmlns:xlink="http://www.w3.org/1999/xlink">
	<defs/>
	<path d="M 0.0,0.0 L 120.0,0.0 L 120.0,120.0 L 0.0,120.0 L 0.0,0.0" fill="#FDFDFD"/>
	<path d="M 72.0,80.0 L 77.0,81.0 L 86.0,96.0 L 85.0,101.0 L 80.0,102.0 L 74.0,93.0 L 70.0,86.0 L 71.0,81.0 L 72.0,80.0" fill="#0A0A0A"/>
	<path d="M 44.0,80.0 L 49.0,81.0 L 50.0,86.0 L 42.0,100.0 L 40.0,102.0 L 35.0,101.0 L 34.0,96.0 L 43.0,81.0 L 44.0,80.0" fill="#0A0A0A"/>
	<path d="M 82.0,70.0 L 88.0,71.0 L 101.0,79.0 L 102.0,84.0 L 100.0,86.0 L 94.0,85.0 L 81.0,77.0 L 80.0,72.0 L 82.0,70.0" fill="#0A0A0A"/>
	<path d="M 34.0,70.0 L 39.0,71.0 L 40.0,76.0 L 31.0,82.0 L 24.0,86.0 L 19.0,85.0 L 18.0,80.0 L 27.0,74.0 L 34.0,70.0" fill="#464646"/>
	<path d="M 96.0,34.0 L 101.0,35.0 L 102.0,40.0 L 93.0,46.0 L 86.0,50.0 L 81.0,49.0 L 80.0,44.0 L 89.0,38.0 L 96.0,34.0" fill="#242424"/>
	<path d="M 80.0,18.0 L 85.0,19.0 L 86.0,24.0 L 77.0,39.0 L 72.0,40.0 L 70.0,38.0 L 71.0,32.0 L 79.0,19.0 L 80.0,18.0" fill="#5B5B5B"/>
	<path d="M 58.0,84.0 L 63.0,85.0 L 64.0,86.0 L 64.0,106.0 L 62.0,108.0 L 57.0,107.0 L 56.0,106.0 L 56.0,86.0 L 58.0,84.0" fill="#040404"/>
	<path d="M 86.0,56.0 L 106.0,56.0 L 108.0,58.0 L 107.0,63.0 L 106.0,64.0 L 86.0,64.0 L 84.0,62.0 L 85.0,57.0 L 86.0,56.0" fill="#040404"/>
	<path d="M 14.0,56.0 L 34.0,56.0 L 36.0,58.0 L 35.0,63.0 L 34.0,64.0 L 14.0,64.0 L 12.0,62.0 L 13.0,57.0 L 14.0,56.0" fill="#BFBFBF"/>
	<path d="M 58.0,12.0 L 63.0,13.0 L 64.0,14.0 L 64.0,34.0 L 62.0,36.0 L 57.0,35.0 L 56.0,34.0 L 56.0,14.0 L 58.0,12.0" fill="#AAAAAA"/>
</svg>
