<?xml version="1.0" ?>
<svg baseProfile="full" height="600px" version="1.1" viewBox="-12.864 -12.864 153.728 153.728" width="600px" xmlns="http://www.w3.org/2000/svg" xmlns:ev="http://www.w3.org/2001/xml-events" xmlns:xlink="http://www.w3.org/1999/xlink">
	<defs/>
	<path d="M 0.0,0.0 L 128.0,0.0 L 128.0,128.0 L 0.0,128.0 L 0.0,0.0" fill="#FDFDFD"/>
	<path d="M 78.0,83.0 L 81.0,84.0 L 91.0,102.0 L 90.0,105.0 L 87.0,107.0 L 83.0,106.0 L 73.0,89.0 L 73.0,86.0 L 78.0,83.0" fill="#0A0A0A"/>
	<path d="M 41.0,21.0 L 45.0,22.0 L 55.0,39.0 L 55.0,42.0 L 50.0,45.0 L 47.0,44.0 L 37.0,26.0 L 38.0,23.0 L 41.0,21.0" fill="#ACACAC"/>
	<path d="M 86.0,73.0 L 90.0,74.0 L 107.0,84.0 L 105.0,90.0 L 102.0,91.0 L 83.0,80.0 L 85.0,75.0 L 86.0,73.0" fill="#090909"/>
	<path d="M 48.0,83.0 L 53.0,85.0 L 55.0,86.0 L 54.0,90.0 L 44.0,107.0 L 38.0,105.0 L 37.0,102.0 L 48.0,83.0" fill="#5A5A5A"/>
	<path d="M 102.0,37.0 L 105.0,38.0 L 107.0,44.0 L 89.0,55.0 L 86.0,55.0 L 83.0,50.0 L 83.0,48.0 L 102.0,37.0" fill="#090909"/>
	<path d="M 84.0,21.0 L 90.0,23.0 L 91.0,26.0 L 80.0,45.0 L 75.0,43.0 L 73.0,42.0 L 74.0,38.0 L 84.0,21.0" fill="#090909"/>
	<path d="M 60.0,88.0 L 68.0,88.0 L 68.0,112.0 L 60.0,112.0 L 60.0,88.0" fill="#000000"/>
	<path d="M 88.0,60.0 L 112.0,60.0 L 112.0,68.0 L 88.0,68.0 L 88.0,60.0" fill="#000000"/>
	<path d="M 60.0,16.0 L 68.0,16.0 L 68.0,40.0 L 60.0,40.0 L 60.0,16.0" fill="#545454"/>
</svg>
