<?xml version="1.0" ?>
<svg baseProfile="full" height="600px" version="1.1" viewBox="-20.1 -20.1 240.2 240.2" width="600px" xmlns="http://www.w3.org/2000/svg" xmlns:ev="http://www.w3.org/2001/xml-events" xmlns:xlink="http://www.w3.org/1999/xlink">
	<defs/>
	<path d="M 0.0,0.0 L 200.0,0.0 L 200.0,200.0 L 0.0,200.0 L 0.0,0.0" fill="#FDFDFD"/>
	<path d="M 140.0,23.0 L 145.0,24.0 L 146.0,29.0 L 132.0,54.0 L 131.0,55.0 L 125.0,55.0 L 124.0,49.0 L 139.0,24.0 L 140.0,23.0" fill="#323232"/>
	<path d="M 171.0,54.0 L 176.0,55.0 L 177.0,60.0 L 168.0,66.0 L 150.0,76.0 L 145.0,75.0 L 145.0,69.0 L 169.0,55.0 L 171.0,54.0" fill="#838383"/>
	<path d="M 154.0,96.0 L 186.0,96.0 L 188.0,98.0 L 187.0,103.0 L 186.0,104.0 L 154.0,104.0 L 152.0,102.0 L 153.0,97.0 L 154.0,96.0" fill="#D4D4D4"/>
	<path d="M 98.0,12.0 L 103.0,13.0 L 104.0,14.0 L 104.0,46.0 L 102.0,48.0 L 97.0,47.0 L 96.0,46.0 L 96.0,14.0 L 98.0,12.0" fill="#7F7F7F"/>
</svg>
