<?xml version="1.0" ?>
<svg baseProfile="full" height="600px" version="1.1" viewBox="-20.1 -20.1 240.2 240.2" width="600px" xmlns="http://www.w3.org/2000/svg" xmlns:ev="http://www.w3.org/2001/xml-events" xmlns:xlink="http://www.w3.org/1999/xlink">
	<defs/>
	<path d="M 0.0,0.0 L 200.0,0.0 L 200.0,200.0 L 0.0,200.0 L 0.0,0.0" fill="#090909"/>
	<path d="M 199.0,72.0 L 200.0,72.0 L 200.0,200.0 L 20.0,200.0 L 23.0,198.0 L 29.0,194.0 L 114.0,109.0 L 129.0,116.0 L 138.0,118.0 L 155.0,118.0 L 168.0,114.0 L 179.0,107.0 L 185.0,102.0 L 194.0,89.0 L 198.0,79.0 L 199.0,72.0" fill="#FDFDFD"/>
	<path d="M 0.0,0.0 L 125.0,0.0 L 121.0,2.0 L 109.0,7.0 L 96.0,17.0 L 88.0,28.0 L 84.0,37.0 L 82.0,43.0 L 82.0,62.0 L 86.0,75.0 L 91.0,86.0 L 39.0,138.0 L 35.0,136.0 L 28.0,130.0 L 20.0,130.0 L 12.0,137.0 L 2.0,147.0 L 0.0,149.0 L 0.0,0.0" fill="#FDFDFD"/>
	<path d="M 126.0,8.0 L 140.0,8.0 L 148.0,10.0 L 160.0,15.0 L 173.0,25.0 L 181.0,34.0 L 189.0,48.0 L 192.0,58.0 L 192.0,71.0 L 189.0,82.0 L 185.0,90.0 L 176.0,100.0 L 166.0,107.0 L 154.0,111.0 L 138.0,111.0 L 124.0,106.0 L 111.0,97.0 L 102.0,88.0 L 94.0,76.0 L 90.0,66.0 L 89.0,61.0 L 89.0,46.0 L 92.0,36.0 L 99.0,25.0 L 107.0,17.0 L 119.0,10.0 L 126.0,8.0" fill="#F9F9F9"/>
	<path d="M 130.0,31.0 L 141.0,31.0 L 153.0,37.0 L 161.0,44.0 L 167.0,53.0 L 169.0,59.0 L 169.0,70.0 L 164.0,79.0 L 156.0,86.0 L 150.0,88.0 L 139.0,88.0 L 127.0,82.0 L 118.0,73.0 L 113.0,63.0 L 112.0,60.0 L 112.0,50.0 L 115.0,43.0 L 122.0,35.0 L 130.0,31.0" fill="#FBFBFB"/>
	<path d="M 95.0,93.0 L 99.0,95.0 L 104.0,100.0 L 107.0,103.0 L 105.0,107.0 L 21.0,191.0 L 19.0,192.0 L 13.0,192.0 L 8.0,186.0 L 9.0,179.0 L 95.0,93.0" fill="#FCFCFC"/>
	<path d="M 128.0,23.0 L 142.0,23.0 L 153.0,27.0 L 162.0,34.0 L 169.0,41.0 L 175.0,51.0 L 177.0,57.0 L 177.0,71.0 L 173.0,80.0 L 167.0,88.0 L 158.0,94.0 L 153.0,96.0 L 137.0,96.0 L 123.0,89.0 L 114.0,81.0 L 107.0,70.0 L 104.0,61.0 L 104.0,47.0 L 109.0,37.0 L 114.0,31.0 L 123.0,25.0 L 128.0,23.0 M 130.0,31.0 L 122.0,35.0 L 114.0,44.0 L 112.0,50.0 L 112.0,60.0 L 116.0,70.0 L 125.0,80.0 L 134.0,86.0 L 139.0,88.0 L 150.0,88.0 L 157.0,85.0 L 165.0,78.0 L 169.0,70.0 L 169.0,59.0 L 165.0,50.0 L 158.0,41.0 L 150.0,35.0 L 141.0,31.0 L 130.0,31.0" fill="#080808"/>
	<path d="M 139.0,0.0 L 200.0,0.0 L 200.0,59.0 L 199.0,59.0 L 196.0,46.0 L 189.0,33.0 L 181.0,23.0 L 174.0,16.0 L 160.0,7.0 L 150.0,3.0 L 139.0,1.0 L 139.0,0.0" fill="#FAFAFA"/>
	<path d="M 22.0,137.0 L 27.0,138.0 L 32.0,143.0 L 30.0,147.0 L 16.0,161.0 L 9.0,155.0 L 8.0,152.0 L 15.0,144.0 L 22.0,137.0" fill="#F6F6F6"/>
	<path d="M 0.0,155.0 L 4.0,160.0 L 10.0,167.0 L 3.0,175.0 L 0.0,179.0 L 0.0,155.0" fill="#F6F6F6"/>
	<path d="M 0.0,187.0 L 2.0,190.0 L 6.0,196.0 L 13.0,199.0 L 13.0,200.0 L 0.0,200.0 L 0.0,187.0" fill="#EFEFEF"/>
</svg>
