<?xml version="1.0" ?>
<svg baseProfile="full" height="600px" version="1.1" viewBox="-20.1 -20.1 240.2 240.2" width="600px" xmlns="http://www.w3.org/2000/svg" xmlns:ev="http://www.w3.org/2001/xml-events" xmlns:xlink="http://www.w3.org/1999/xlink">
	<defs/>
	<path d="M 0.0,0.0 L 200.0,0.0 L 200.0,200.0 L 0.0,200.0 L 0.0,0.0" fill="#FDFDFD"/>
	<path d="M 153.0,12.0 L 165.0,12.0 L 174.0,16.0 L 182.0,23.0 L 188.0,32.0 L 189.0,36.0 L 189.0,45.0 L 183.0,57.0 L 175.0,68.0 L 166.0,79.0 L 157.0,88.0 L 137.0,103.0 L 129.0,107.0 L 126.0,108.0 L 115.0,109.0 L 27.0,197.0 L 20.0,200.0 L 0.0,200.0 L 0.0,179.0 L 5.0,171.0 L 9.0,166.0 L 9.0,160.0 L 13.0,154.0 L 27.0,140.0 L 32.0,137.0 L 39.0,137.0 L 92.0,84.0 L 93.0,72.0 L 99.0,61.0 L 109.0,47.0 L 120.0,35.0 L 130.0,26.0 L 146.0,15.0 L 153.0,12.0" fill="#090909"/>
	<path d="M 156.0,20.0 L 163.0,20.0 L 170.0,23.0 L 176.0,28.0 L 181.0,36.0 L 181.0,43.0 L 176.0,53.0 L 164.0,69.0 L 154.0,80.0 L 137.0,93.0 L 127.0,99.0 L 124.0,100.0 L 117.0,100.0 L 108.0,94.0 L 103.0,88.0 L 101.0,83.0 L 101.0,73.0 L 111.0,58.0 L 122.0,44.0 L 133.0,34.0 L 150.0,22.0 L 156.0,20.0" fill="#FBFBFB"/>
	<path d="M 95.0,93.0 L 99.0,95.0 L 101.0,99.0 L 105.0,101.0 L 107.0,105.0 L 21.0,191.0 L 19.0,192.0 L 13.0,192.0 L 8.0,186.0 L 9.0,179.0 L 95.0,93.0" fill="#FCFCFC"/>
	<path d="M 0.0,187.0 L 2.0,190.0 L 6.0,196.0 L 13.0,199.0 L 13.0,200.0 L 0.0,200.0 L 0.0,187.0" fill="#EFEFEF"/>
</svg>
