<?xml version="1.0" ?>
<svg baseProfile="full" height="600px" version="1.1" viewBox="-20.1 -20.1 240.2 240.2" width="600px" xmlns="http://www.w3.org/2000/svg" xmlns:ev="http://www.w3.org/2001/xml-events" xmlns:xlink="http://www.w3.org/1999/xlink">
	<defs/>
	<path d="M 0.0,0.0 L 200.0,0.0 L 200.0,200.0 L 0.0,200.0 L 0.0,0.0" fill="#FDFDFD"/>
	<path d="M 130.0,3.0 L 149.0,3.0 L 159.0,6.0 L 171.0,13.0 L 181.0,22.0 L 188.0,30.0 L 196.0,46.0 L 197.0,50.0 L 197.0,69.0 L 193.0,81.0 L 187.0,92.0 L 178.0,102.0 L 168.0,109.0 L 155.0,115.0 L 145.0,117.0 L 134.0,117.0 L 121.0,113.0 L 116.0,110.0 L 112.0,112.0 L 63.0,161.0 L 65.0,165.0 L 70.0,171.0 L 70.0,177.0 L 66.0,183.0 L 52.0,197.0 L 50.0,198.0 L 42.0,198.0 L 34.0,191.0 L 27.0,197.0 L 20.0,200.0 L 0.0,200.0 L 0.0,179.0 L 5.0,171.0 L 90.0,86.0 L 88.0,80.0 L 84.0,69.0 L 84.0,49.0 L 88.0,38.0 L 94.0,27.0 L 103.0,17.0 L 113.0,10.0 L 126.0,4.0 L 130.0,3.0" fill="#0A0A0A"/>
	<path d="M 131.0,11.0 L 148.0,11.0 L 161.0,16.0 L 174.0,26.0 L 183.0,37.0 L 188.0,48.0 L 189.0,51.0 L 189.0,68.0 L 184.0,81.0 L 178.0,90.0 L 170.0,98.0 L 160.0,104.0 L 148.0,108.0 L 131.0,108.0 L 121.0,104.0 L 110.0,96.0 L 102.0,88.0 L 94.0,74.0 L 92.0,68.0 L 92.0,52.0 L 95.0,42.0 L 100.0,33.0 L 109.0,23.0 L 117.0,17.0 L 128.0,12.0 L 131.0,11.0" fill="#FAFAFA"/>
	<path d="M 95.0,93.0 L 99.0,95.0 L 104.0,100.0 L 107.0,103.0 L 105.0,107.0 L 21.0,191.0 L 19.0,192.0 L 13.0,192.0 L 8.0,186.0 L 9.0,179.0 L 95.0,93.0" fill="#FCFCFC"/>
	<path d="M 135.0,35.0 L 146.0,35.0 L 154.0,38.0 L 160.0,43.0 L 164.0,51.0 L 165.0,55.0 L 165.0,64.0 L 160.0,74.0 L 151.0,82.0 L 146.0,84.0 L 134.0,84.0 L 124.0,79.0 L 119.0,73.0 L 116.0,64.0 L 116.0,54.0 L 121.0,45.0 L 129.0,38.0 L 135.0,35.0" fill="#FBFBFB"/>
	<path d="M 133.0,27.0 L 145.0,27.0 L 158.0,31.0 L 167.0,39.0 L 171.0,47.0 L 173.0,54.0 L 173.0,65.0 L 168.0,77.0 L 163.0,83.0 L 153.0,90.0 L 147.0,92.0 L 132.0,92.0 L 123.0,88.0 L 116.0,83.0 L 111.0,75.0 L 108.0,65.0 L 108.0,52.0 L 113.0,42.0 L 118.0,36.0 L 128.0,29.0 L 133.0,27.0 M 135.0,35.0 L 126.0,40.0 L 119.0,48.0 L 116.0,54.0 L 116.0,64.0 L 120.0,75.0 L 127.0,81.0 L 134.0,84.0 L 146.0,84.0 L 154.0,80.0 L 162.0,71.0 L 165.0,64.0 L 165.0,55.0 L 161.0,45.0 L 157.0,40.0 L 150.0,36.0 L 146.0,35.0 L 135.0,35.0" fill="#080808"/>
	<path d="M 55.0,168.0 L 59.0,170.0 L 62.0,173.0 L 60.0,178.0 L 49.0,189.0 L 44.0,190.0 L 39.0,184.0 L 55.0,168.0" fill="#F4F4F4"/>
	<path d="M 33.0,190.0 L 40.0,196.0 L 49.0,198.0 L 48.0,200.0 L 20.0,200.0 L 23.0,198.0 L 29.0,194.0 L 33.0,190.0" fill="#F4F4F4"/>
	<path d="M 0.0,187.0 L 2.0,190.0 L 6.0,196.0 L 13.0,199.0 L 13.0,200.0 L 0.0,200.0 L 0.0,187.0" fill="#EFEFEF"/>
</svg>
