<?xml version="1.0" ?>
<svg baseProfile="full" height="600px" version="1.1" viewBox="-20.1 -20.1 240.2 240.2" width="600px" xmlns="http://www.w3.org/2000/svg" xmlns:ev="http://www.w3.org/2001/xml-events" xmlns:xlink="http://www.w3.org/1999/xlink">
	<defs/>
	<path d="M 0.0,0.0 L 200.0,0.0 L 200.0,200.0 L 0.0,200.0 L 0.0,0.0" fill="#FCFCFC"/>
	<path d="M 31.0,8.0 L 41.0,8.0 L 49.0,12.0 L 57.0,21.0 L 59.0,26.0 L 65.0,24.0 L 77.0,19.0 L 90.0,16.0 L 109.0,16.0 L 122.0,19.0 L 135.0,24.0 L 141.0,27.0 L 143.0,21.0 L 149.0,13.0 L 158.0,8.0 L 169.0,8.0 L 179.0,13.0 L 187.0,21.0 L 192.0,31.0 L 192.0,42.0 L 188.0,50.0 L 181.0,56.0 L 175.0,59.0 L 177.0,64.0 L 185.0,80.0 L 189.0,91.0 L 192.0,104.0 L 192.0,126.0 L 190.0,133.0 L 182.0,133.0 L 183.0,123.0 L 183.0,107.0 L 180.0,93.0 L 175.0,80.0 L 167.0,65.0 L 156.0,51.0 L 149.0,44.0 L 136.0,35.0 L 126.0,30.0 L 118.0,27.0 L 108.0,25.0 L 90.0,25.0 L 74.0,30.0 L 62.0,36.0 L 49.0,46.0 L 41.0,54.0 L 30.0,70.0 L 21.0,89.0 L 18.0,100.0 L 17.0,109.0 L 17.0,126.0 L 22.0,141.0 L 28.0,150.0 L 36.0,158.0 L 50.0,166.0 L 66.0,174.0 L 82.0,181.0 L 92.0,183.0 L 104.0,183.0 L 120.0,180.0 L 134.0,174.0 L 150.0,166.0 L 161.0,160.0 L 166.0,156.0 L 170.0,158.0 L 173.0,162.0 L 165.0,168.0 L 149.0,176.0 L 130.0,186.0 L 115.0,191.0 L 110.0,192.0 L 89.0,192.0 L 72.0,187.0 L 53.0,177.0 L 36.0,169.0 L 25.0,160.0 L 17.0,150.0 L 12.0,140.0 L 9.0,131.0 L 8.0,124.0 L 8.0,104.0 L 13.0,85.0 L 20.0,69.0 L 26.0,59.0 L 20.0,57.0 L 12.0,50.0 L 8.0,42.0 L 8.0,31.0 L 12.0,23.0 L 21.0,13.0 L 31.0,8.0" fill="#080808"/>
	<path d="M 121.0,68.0 L 131.0,68.0 L 140.0,71.0 L 149.0,79.0 L 155.0,90.0 L 156.0,95.0 L 156.0,105.0 L 152.0,114.0 L 145.0,121.0 L 137.0,124.0 L 125.0,124.0 L 115.0,119.0 L 108.0,111.0 L 105.0,104.0 L 104.0,97.0 L 104.0,86.0 L 109.0,76.0 L 116.0,70.0 L 121.0,68.0" fill="#080808"/>
	<path d="M 67.0,68.0 L 77.0,68.0 L 87.0,72.0 L 93.0,79.0 L 96.0,86.0 L 96.0,98.0 L 92.0,111.0 L 84.0,120.0 L 74.0,124.0 L 62.0,124.0 L 54.0,120.0 L 46.0,111.0 L 44.0,105.0 L 44.0,94.0 L 48.0,84.0 L 54.0,76.0 L 62.0,70.0 L 67.0,68.0" fill="#070707"/>
	<path d="M 69.0,76.0 L 76.0,76.0 L 84.0,80.0 L 88.0,87.0 L 88.0,99.0 L 84.0,109.0 L 78.0,114.0 L 73.0,116.0 L 64.0,116.0 L 57.0,112.0 L 53.0,107.0 L 52.0,104.0 L 52.0,95.0 L 57.0,85.0 L 66.0,77.0 L 69.0,76.0" fill="#F8F8F8"/>
	<path d="M 123.0,76.0 L 130.0,76.0 L 138.0,80.0 L 145.0,88.0 L 148.0,95.0 L 148.0,103.0 L 144.0,111.0 L 138.0,115.0 L 135.0,116.0 L 126.0,116.0 L 118.0,111.0 L 114.0,105.0 L 112.0,98.0 L 112.0,87.0 L 117.0,79.0 L 123.0,76.0" fill="#F8F8F8"/>
	<path d="M 32.0,16.0 L 40.0,16.0 L 46.0,20.0 L 51.0,27.0 L 52.0,33.0 L 41.0,42.0 L 32.0,52.0 L 26.0,51.0 L 19.0,46.0 L 16.0,41.0 L 16.0,33.0 L 22.0,23.0 L 30.0,17.0 L 32.0,16.0" fill="#F8F8F8"/>
	<path d="M 159.0,16.0 L 166.0,16.0 L 173.0,19.0 L 180.0,25.0 L 183.0,30.0 L 184.0,40.0 L 180.0,46.0 L 175.0,50.0 L 168.0,52.0 L 157.0,40.0 L 148.0,33.0 L 149.0,27.0 L 155.0,19.0 L 159.0,16.0" fill="#FAFAFA"/>
	<path d="M 98.0,128.0 L 115.0,128.0 L 121.0,131.0 L 124.0,136.0 L 124.0,144.0 L 122.0,149.0 L 124.0,152.0 L 124.0,160.0 L 121.0,165.0 L 115.0,168.0 L 98.0,168.0 L 96.0,166.0 L 97.0,161.0 L 98.0,160.0 L 114.0,159.0 L 115.0,154.0 L 114.0,153.0 L 106.0,152.0 L 104.0,150.0 L 105.0,145.0 L 106.0,144.0 L 114.0,143.0 L 115.0,138.0 L 114.0,137.0 L 98.0,136.0 L 96.0,134.0 L 97.0,129.0 L 98.0,128.0" fill="#050505"/>
	<path d="M 175.0,137.0 L 184.0,138.0 L 186.0,137.0 L 192.0,137.0 L 198.0,142.0 L 198.0,150.0 L 191.0,158.0 L 186.0,162.0 L 181.0,162.0 L 171.0,153.0 L 169.0,150.0 L 169.0,142.0 L 173.0,138.0 L 175.0,137.0" fill="#0D0D0D"/>
	<path d="M 175.0,142.0 L 180.0,142.0 L 182.0,144.0 L 186.0,143.0 L 187.0,142.0 L 192.0,142.0 L 194.0,144.0 L 193.0,149.0 L 186.0,156.0 L 182.0,157.0 L 173.0,148.0 L 174.0,143.0 L 175.0,142.0" fill="#F5F5F5"/>
	<path d="M 126.0,84.0 L 133.0,84.0 L 138.0,87.0 L 140.0,90.0 L 139.0,95.0 L 134.0,96.0 L 132.0,92.0 L 128.0,92.0 L 126.0,96.0 L 121.0,95.0 L 120.0,90.0 L 124.0,85.0 L 126.0,84.0" fill="#080808"/>
	<path d="M 66.0,84.0 L 73.0,84.0 L 78.0,87.0 L 80.0,90.0 L 79.0,95.0 L 74.0,96.0 L 72.0,92.0 L 68.0,92.0 L 66.0,96.0 L 61.0,95.0 L 60.0,90.0 L 64.0,85.0 L 66.0,84.0" fill="#080808"/>
</svg>
