<?xml version="1.0" ?>
<svg baseProfile="full" height="600px" version="1.1" viewBox="-20.1 -20.1 240.2 240.2" width="600px" xmlns="http://www.w3.org/2000/svg" xmlns:ev="http://www.w3.org/2001/xml-events" xmlns:xlink="http://www.w3.org/1999/xlink">
	<defs/>
	<path d="M 0.0,0.0 L 200.0,0.0 L 200.0,200.0 L 0.0,200.0 L 0.0,0.0" fill="#FDFDFD"/>
	<path d="M 29.0,40.0 L 170.0,40.0 L 175.0,43.0 L 176.0,45.0 L 176.0,138.0 L 173.0,143.0 L 170.0,144.0 L 29.0,144.0 L 25.0,141.0 L 24.0,138.0 L 24.0,45.0 L 29.0,40.0" fill="#FDFDFD"/>
	<path d="M 27.0,32.0 L 173.0,32.0 L 179.0,36.0 L 183.0,41.0 L 184.0,43.0 L 184.0,140.0 L 183.0,143.0 L 194.0,144.0 L 196.0,146.0 L 195.0,156.0 L 189.0,164.0 L 181.0,168.0 L 19.0,168.0 L 11.0,164.0 L 5.0,156.0 L 4.0,153.0 L 4.0,146.0 L 6.0,144.0 L 17.0,143.0 L 16.0,141.0 L 16.0,43.0 L 20.0,37.0 L 25.0,33.0 L 27.0,32.0 M 29.0,40.0 L 24.0,45.0 L 24.0,138.0 L 27.0,143.0 L 29.0,144.0 L 170.0,144.0 L 175.0,141.0 L 176.0,138.0 L 176.0,45.0 L 173.0,41.0 L 170.0,40.0 L 29.0,40.0" fill="#010101"/>
	<path d="M 13.0,152.0 L 187.0,152.0 L 185.0,156.0 L 180.0,160.0 L 20.0,160.0 L 13.0,154.0 L 13.0,152.0" fill="#FDFDFD"/>
</svg>
