<?xml version="1.0" ?>
<svg baseProfile="full" height="600px" version="1.1" viewBox="-19.296000000000003 -19.296000000000003 230.592 230.592" width="600px" xmlns="http://www.w3.org/2000/svg" xmlns:ev="http://www.w3.org/2001/xml-events" xmlns:xlink="http://www.w3.org/1999/xlink">
	<defs/>
	<path d="M 0.0,0.0 L 192.0,0.0 L 192.0,192.0 L 0.0,192.0 L 0.0,0.0" fill="#FDFDFD"/>
	<path d="M 19.0,85.0 L 172.0,85.0 L 177.0,88.0 L 180.0,92.0 L 180.0,140.0 L 184.0,140.0 L 184.0,148.0 L 180.0,154.0 L 175.0,156.0 L 16.0,156.0 L 10.0,152.0 L 8.0,147.0 L 8.0,140.0 L 12.0,140.0 L 12.0,91.0 L 17.0,86.0 L 19.0,85.0" fill="#E880FA"/>
	<path d="M 19.0,85.0 L 172.0,85.0 L 177.0,88.0 L 180.0,92.0 L 180.0,140.0 L 184.0,140.0 L 184.0,148.0 L 180.0,154.0 L 175.0,156.0 L 16.0,156.0 L 10.0,152.0 L 8.0,147.0 L 8.0,140.0 L 12.0,140.0 L 12.0,91.0 L 17.0,86.0 L 19.0,85.0 M 20.0,94.0 L 20.0,140.0 L 172.0,140.0 L 172.0,94.0 L 20.0,94.0" fill="#607C8A"/>
	<path d="M 19.0,85.0 L 172.0,85.0 L 177.0,88.0 L 180.0,92.0 L 180.0,140.0 L 172.0,140.0 L 172.0,94.0 L 20.0,94.0 L 20.0,140.0 L 12.0,140.0 L 12.0,91.0 L 17.0,86.0 L 19.0,85.0" fill="#5C7582"/>
	<path d="M 48.0,134.0 L 144.0,134.0 L 144.0,140.0 L 48.0,140.0 L 48.0,134.0" fill="#F3B8FD"/>
	<path d="M 135.0,135.0 L 141.0,135.0 L 141.0,139.0 L 135.0,139.0 L 135.0,135.0" fill="#EC90FC"/>
	<path d="M 123.0,135.0 L 129.0,135.0 L 129.0,139.0 L 123.0,139.0 L 123.0,135.0" fill="#EC90FC"/>
	<path d="M 111.0,135.0 L 117.0,135.0 L 117.0,139.0 L 111.0,139.0 L 111.0,135.0" fill="#EC90FC"/>
	<path d="M 99.0,135.0 L 105.0,135.0 L 105.0,139.0 L 99.0,139.0 L 99.0,135.0" fill="#EC90FC"/>
	<path d="M 87.0,135.0 L 93.0,135.0 L 93.0,139.0 L 87.0,139.0 L 87.0,135.0" fill="#EC90FC"/>
	<path d="M 75.0,135.0 L 81.0,135.0 L 81.0,139.0 L 75.0,139.0 L 75.0,135.0" fill="#EC90FC"/>
	<path d="M 63.0,135.0 L 69.0,135.0 L 69.0,139.0 L 63.0,139.0 L 63.0,135.0" fill="#EC90FC"/>
	<path d="M 51.0,135.0 L 57.0,135.0 L 57.0,139.0 L 51.0,139.0 L 51.0,135.0" fill="#EC90FC"/>
</svg>
