<?xml version="1.0" ?>
<svg baseProfile="full" height="600px" version="1.1" viewBox="-20.1 -20.1 240.2 240.2" width="600px" xmlns="http://www.w3.org/2000/svg" xmlns:ev="http://www.w3.org/2001/xml-events" xmlns:xlink="http://www.w3.org/1999/xlink">
	<defs/>
	<path d="M 0.0,0.0 L 200.0,0.0 L 200.0,200.0 L 0.0,200.0 L 0.0,0.0" fill="#FDFDFD"/>
	<path d="M 20.0,128.0 L 181.0,128.0 L 189.0,132.0 L 195.0,140.0 L 196.0,143.0 L 196.0,153.0 L 192.0,161.0 L 186.0,166.0 L 181.0,168.0 L 19.0,168.0 L 11.0,164.0 L 5.0,156.0 L 4.0,153.0 L 4.0,144.0 L 7.0,137.0 L 11.0,132.0 L 16.0,129.0 L 20.0,128.0" fill="#020202"/>
	<path d="M 13.0,152.0 L 187.0,152.0 L 185.0,156.0 L 180.0,160.0 L 20.0,160.0 L 13.0,154.0 L 13.0,152.0" fill="#FDFDFD"/>
	<path d="M 20.0,136.0 L 179.0,136.0 L 184.0,139.0 L 187.0,142.0 L 187.0,144.0 L 13.0,144.0 L 15.0,140.0 L 20.0,136.0" fill="#FDFDFD"/>
</svg>
