<?xml version="1.0" ?>
<svg baseProfile="full" height="600px" version="1.1" viewBox="-20.1 -20.1 240.2 240.2" width="600px" xmlns="http://www.w3.org/2000/svg" xmlns:ev="http://www.w3.org/2001/xml-events" xmlns:xlink="http://www.w3.org/1999/xlink">
	<defs/>
	<path d="M 0.0,0.0 L 200.0,0.0 L 200.0,200.0 L 0.0,200.0 L 0.0,0.0" fill="#FDFDFD"/>
	<path d="M 26.0,62.0 L 173.0,62.0 L 182.0,66.0 L 186.0,71.0 L 188.0,75.0 L 188.0,86.0 L 185.0,117.0 L 183.0,143.0 L 194.0,144.0 L 196.0,146.0 L 196.0,153.0 L 192.0,161.0 L 186.0,166.0 L 181.0,168.0 L 19.0,168.0 L 11.0,164.0 L 5.0,156.0 L 4.0,153.0 L 4.0,146.0 L 6.0,144.0 L 18.0,144.0 L 17.0,142.0 L 13.0,95.0 L 12.0,87.0 L 12.0,75.0 L 17.0,67.0 L 23.0,63.0 L 26.0,62.0" fill="#FCFCFC"/>
	<path d="M 26.0,62.0 L 173.0,62.0 L 182.0,66.0 L 186.0,71.0 L 188.0,75.0 L 188.0,86.0 L 185.0,117.0 L 183.0,143.0 L 194.0,144.0 L 196.0,146.0 L 196.0,153.0 L 192.0,161.0 L 186.0,166.0 L 181.0,168.0 L 19.0,168.0 L 11.0,164.0 L 5.0,156.0 L 4.0,153.0 L 4.0,146.0 L 6.0,144.0 L 18.0,144.0 L 17.0,142.0 L 13.0,95.0 L 12.0,87.0 L 12.0,75.0 L 17.0,67.0 L 23.0,63.0 L 26.0,62.0 M 27.0,70.0 L 21.0,75.0 L 20.0,77.0 L 21.0,94.0 L 25.0,140.0 L 29.0,144.0 L 170.0,144.0 L 175.0,140.0 L 180.0,83.0 L 180.0,77.0 L 175.0,71.0 L 173.0,70.0 L 27.0,70.0" fill="#050505"/>
	<path d="M 13.0,152.0 L 187.0,152.0 L 185.0,156.0 L 180.0,160.0 L 20.0,160.0 L 13.0,154.0 L 13.0,152.0" fill="#FDFDFD"/>
</svg>
