<?xml version="1.0" ?>
<svg baseProfile="full" height="600px" version="1.1" viewBox="-19.296000000000003 -19.296000000000003 230.592 230.592" width="600px" xmlns="http://www.w3.org/2000/svg" xmlns:ev="http://www.w3.org/2001/xml-events" xmlns:xlink="http://www.w3.org/1999/xlink">
	<defs/>
	<path d="M 0.0,0.0 L 192.0,0.0 L 192.0,192.0 L 0.0,192.0 L 0.0,0.0" fill="#FDC829"/>
	<path d="M 0.0,0.0 L 192.0,0.0 L 192.0,192.0 L 0.0,192.0 L 0.0,0.0 M 86.0,16.0 L 72.0,19.0 L 56.0,26.0 L 45.0,34.0 L 37.0,41.0 L 28.0,53.0 L 20.0,69.0 L 16.0,86.0 L 16.0,105.0 L 20.0,122.0 L 25.0,134.0 L 33.0,146.0 L 40.0,154.0 L 50.0,162.0 L 64.0,170.0 L 79.0,175.0 L 86.0,176.0 L 106.0,176.0 L 125.0,171.0 L 139.0,164.0 L 148.0,157.0 L 154.0,152.0 L 162.0,142.0 L 169.0,130.0 L 174.0,115.0 L 176.0,106.0 L 176.0,85.0 L 172.0,69.0 L 164.0,53.0 L 157.0,44.0 L 153.0,39.0 L 142.0,30.0 L 130.0,23.0 L 112.0,17.0 L 105.0,16.0 L 86.0,16.0" fill="#FFFEFC"/>
	<path d="M 64.0,103.0 L 129.0,103.0 L 129.0,111.0 L 126.0,128.0 L 119.0,144.0 L 110.0,154.0 L 101.0,158.0 L 91.0,158.0 L 81.0,152.0 L 75.0,145.0 L 69.0,133.0 L 66.0,123.0 L 64.0,113.0 L 64.0,103.0" fill="#614336"/>
	<path d="M 77.0,130.0 L 110.0,130.0 L 122.0,132.0 L 123.0,136.0 L 118.0,145.0 L 110.0,154.0 L 101.0,158.0 L 91.0,158.0 L 81.0,152.0 L 75.0,145.0 L 69.0,133.0 L 71.0,131.0 L 77.0,130.0" fill="#C52A28"/>
	<path d="M 117.0,67.0 L 128.0,67.0 L 136.0,71.0 L 142.0,78.0 L 141.0,81.0 L 134.0,82.0 L 129.0,77.0 L 127.0,76.0 L 118.0,76.0 L 112.0,81.0 L 111.0,83.0 L 104.0,81.0 L 103.0,79.0 L 107.0,73.0 L 114.0,68.0 L 117.0,67.0" fill="#BA700A"/>
	<path d="M 61.0,67.0 L 72.0,67.0 L 80.0,71.0 L 86.0,78.0 L 85.0,81.0 L 78.0,82.0 L 73.0,77.0 L 71.0,76.0 L 62.0,76.0 L 56.0,81.0 L 55.0,83.0 L 48.0,81.0 L 47.0,79.0 L 51.0,73.0 L 58.0,68.0 L 61.0,67.0" fill="#BA700A"/>
</svg>
