<?xml version="1.0" ?>
<svg baseProfile="full" height="600px" version="1.1" viewBox="-19.296000000000003 -19.296000000000003 230.592 230.592" width="600px" xmlns="http://www.w3.org/2000/svg" xmlns:ev="http://www.w3.org/2001/xml-events" xmlns:xlink="http://www.w3.org/1999/xlink">
	<defs/>
	<path d="M 0.0,0.0 L 192.0,0.0 L 192.0,192.0 L 0.0,192.0 L 0.0,0.0" fill="#FDC829"/>
	<path d="M 0.0,0.0 L 192.0,0.0 L 192.0,192.0 L 0.0,192.0 L 0.0,0.0 M 86.0,16.0 L 72.0,19.0 L 56.0,26.0 L 45.0,34.0 L 37.0,41.0 L 28.0,53.0 L 20.0,69.0 L 16.0,86.0 L 16.0,105.0 L 20.0,122.0 L 25.0,134.0 L 33.0,146.0 L 40.0,154.0 L 50.0,162.0 L 64.0,170.0 L 79.0,175.0 L 86.0,176.0 L 106.0,176.0 L 125.0,171.0 L 139.0,164.0 L 148.0,157.0 L 154.0,152.0 L 162.0,142.0 L 169.0,130.0 L 174.0,115.0 L 176.0,106.0 L 176.0,85.0 L 172.0,69.0 L 164.0,53.0 L 157.0,44.0 L 153.0,39.0 L 142.0,30.0 L 130.0,23.0 L 112.0,17.0 L 105.0,16.0 L 86.0,16.0" fill="#FFFEFC"/>
	<path d="M 62.0,110.0 L 134.0,110.0 L 133.0,125.0 L 128.0,138.0 L 120.0,149.0 L 112.0,155.0 L 104.0,158.0 L 90.0,158.0 L 80.0,153.0 L 72.0,145.0 L 65.0,131.0 L 62.0,121.0 L 62.0,110.0" fill="#624336"/>
	<path d="M 82.0,129.0 L 109.0,129.0 L 118.0,132.0 L 125.0,136.0 L 127.0,139.0 L 121.0,148.0 L 114.0,154.0 L 104.0,158.0 L 90.0,158.0 L 80.0,153.0 L 72.0,145.0 L 68.0,138.0 L 69.0,134.0 L 79.0,130.0 L 82.0,129.0" fill="#C52928"/>
	<path d="M 120.0,72.0 L 127.0,72.0 L 137.0,76.0 L 143.0,81.0 L 143.0,83.0 L 136.0,87.0 L 131.0,83.0 L 129.0,82.0 L 118.0,82.0 L 112.0,86.0 L 108.0,85.0 L 105.0,83.0 L 107.0,79.0 L 114.0,74.0 L 120.0,72.0" fill="#BB710B"/>
	<path d="M 64.0,72.0 L 71.0,72.0 L 81.0,76.0 L 87.0,81.0 L 87.0,83.0 L 80.0,87.0 L 75.0,83.0 L 73.0,82.0 L 62.0,82.0 L 56.0,86.0 L 52.0,85.0 L 49.0,83.0 L 51.0,79.0 L 58.0,74.0 L 64.0,72.0" fill="#BB710B"/>
</svg>
