<?xml version="1.0" ?>
<svg baseProfile="full" height="600px" version="1.1" viewBox="-16.08 -16.08 192.16 192.16" width="600px" xmlns="http://www.w3.org/2000/svg" xmlns:ev="http://www.w3.org/2001/xml-events" xmlns:xlink="http://www.w3.org/1999/xlink">
	<defs/>
	<path d="M 0.0,0.0 L 160.0,0.0 L 160.0,160.0 L 0.0,160.0 L 0.0,0.0" fill="#FDEBA1"/>
	<path d="M 0.0,0.0 L 160.0,0.0 L 160.0,160.0 L 0.0,160.0 L 0.0,0.0 M 72.0,4.0 L 60.0,6.0 L 47.0,11.0 L 35.0,18.0 L 23.0,29.0 L 14.0,41.0 L 8.0,54.0 L 4.0,70.0 L 4.0,91.0 L 8.0,106.0 L 16.0,122.0 L 24.0,132.0 L 31.0,139.0 L 45.0,148.0 L 56.0,153.0 L 70.0,156.0 L 91.0,156.0 L 106.0,152.0 L 122.0,144.0 L 132.0,136.0 L 139.0,129.0 L 148.0,115.0 L 154.0,100.0 L 156.0,90.0 L 156.0,69.0 L 152.0,54.0 L 144.0,38.0 L 136.0,28.0 L 129.0,21.0 L 115.0,12.0 L 104.0,7.0 L 89.0,4.0 L 72.0,4.0" fill="#FDFDFC"/>
	<path d="M 72.0,4.0 L 89.0,4.0 L 104.0,7.0 L 120.0,15.0 L 131.0,23.0 L 139.0,31.0 L 148.0,45.0 L 153.0,56.0 L 156.0,69.0 L 156.0,90.0 L 152.0,106.0 L 144.0,122.0 L 136.0,132.0 L 129.0,139.0 L 115.0,148.0 L 103.0,153.0 L 91.0,156.0 L 70.0,156.0 L 54.0,152.0 L 38.0,144.0 L 28.0,136.0 L 21.0,129.0 L 12.0,115.0 L 7.0,104.0 L 4.0,91.0 L 4.0,70.0 L 8.0,54.0 L 16.0,38.0 L 24.0,28.0 L 31.0,21.0 L 45.0,12.0 L 57.0,7.0 L 64.0,5.0 L 72.0,4.0 M 71.0,8.0 L 55.0,12.0 L 39.0,20.0 L 26.0,32.0 L 17.0,44.0 L 12.0,55.0 L 8.0,71.0 L 8.0,88.0 L 10.0,98.0 L 16.0,114.0 L 24.0,126.0 L 35.0,137.0 L 48.0,145.0 L 61.0,150.0 L 74.0,152.0 L 87.0,152.0 L 102.0,149.0 L 114.0,144.0 L 127.0,135.0 L 136.0,126.0 L 145.0,112.0 L 149.0,102.0 L 152.0,89.0 L 152.0,70.0 L 147.0,53.0 L 141.0,41.0 L 134.0,32.0 L 125.0,23.0 L 112.0,15.0 L 95.0,9.0 L 88.0,8.0 L 71.0,8.0" fill="#C69C5B"/>
	<path d="M 32.0,76.0 L 51.0,78.0 L 56.0,79.0 L 87.0,79.0 L 108.0,76.0 L 112.0,76.0 L 109.0,85.0 L 103.0,94.0 L 96.0,101.0 L 86.0,106.0 L 78.0,108.0 L 65.0,108.0 L 55.0,105.0 L 46.0,99.0 L 39.0,92.0 L 32.0,78.0 L 32.0,76.0" fill="#F58C8C"/>
	<path d="M 32.0,76.0 L 51.0,78.0 L 56.0,79.0 L 87.0,79.0 L 108.0,76.0 L 112.0,76.0 L 109.0,85.0 L 103.0,94.0 L 96.0,101.0 L 86.0,106.0 L 78.0,108.0 L 65.0,108.0 L 55.0,105.0 L 46.0,99.0 L 39.0,92.0 L 32.0,78.0 L 32.0,76.0 M 103.0,81.0 L 84.0,83.0 L 57.0,83.0 L 39.0,82.0 L 41.0,87.0 L 47.0,95.0 L 58.0,102.0 L 68.0,104.0 L 77.0,104.0 L 90.0,100.0 L 98.0,93.0 L 104.0,86.0 L 106.0,81.0 L 103.0,81.0" fill="#CA4B48"/>
	<path d="M 94.0,40.0 L 103.0,40.0 L 111.0,43.0 L 117.0,48.0 L 115.0,51.0 L 111.0,49.0 L 106.0,46.0 L 102.0,45.0 L 95.0,45.0 L 87.0,49.0 L 84.0,51.0 L 82.0,50.0 L 84.0,46.0 L 89.0,42.0 L 94.0,40.0" fill="#C69C58"/>
	<path d="M 40.0,40.0 L 49.0,40.0 L 57.0,43.0 L 62.0,47.0 L 61.0,51.0 L 57.0,49.0 L 52.0,46.0 L 48.0,45.0 L 41.0,45.0 L 33.0,49.0 L 30.0,51.0 L 28.0,50.0 L 30.0,46.0 L 37.0,41.0 L 40.0,40.0" fill="#C69B58"/>
</svg>
