<?xml version="1.0" ?>
<svg baseProfile="full" height="600px" version="1.1" viewBox="-12.864 -12.864 153.728 153.728" width="600px" xmlns="http://www.w3.org/2000/svg" xmlns:ev="http://www.w3.org/2001/xml-events" xmlns:xlink="http://www.w3.org/1999/xlink">
	<defs/>
	<path d="M 0.0,0.0 L 128.0,0.0 L 128.0,128.0 L 0.0,128.0 L 0.0,0.0" fill="#FAFAFA"/>
	<path d="M 0.0,0.0 L 128.0,0.0 L 128.0,128.0 L 0.0,128.0 L 0.0,0.0 M 56.0,12.0 L 43.0,16.0 L 31.0,23.0 L 23.0,31.0 L 17.0,41.0 L 13.0,51.0 L 12.0,55.0 L 12.0,73.0 L 16.0,85.0 L 21.0,94.0 L 30.0,104.0 L 39.0,110.0 L 47.0,114.0 L 55.0,116.0 L 70.0,116.0 L 80.0,114.0 L 94.0,107.0 L 104.0,98.0 L 111.0,87.0 L 115.0,77.0 L 116.0,70.0 L 116.0,55.0 L 113.0,45.0 L 107.0,34.0 L 98.0,24.0 L 89.0,18.0 L 81.0,14.0 L 73.0,12.0 L 56.0,12.0" fill="#FCFCFC"/>
	<path d="M 56.0,12.0 L 73.0,12.0 L 83.0,15.0 L 94.0,21.0 L 104.0,30.0 L 110.0,39.0 L 114.0,47.0 L 116.0,55.0 L 116.0,70.0 L 114.0,80.0 L 107.0,94.0 L 98.0,104.0 L 89.0,110.0 L 77.0,115.0 L 70.0,116.0 L 55.0,116.0 L 45.0,113.0 L 34.0,107.0 L 24.0,98.0 L 18.0,89.0 L 14.0,80.0 L 12.0,73.0 L 12.0,55.0 L 16.0,43.0 L 21.0,34.0 L 30.0,24.0 L 41.0,17.0 L 51.0,13.0 L 56.0,12.0 M 56.0,20.0 L 45.0,24.0 L 34.0,31.0 L 26.0,41.0 L 21.0,52.0 L 20.0,56.0 L 20.0,70.0 L 22.0,78.0 L 28.0,90.0 L 34.0,97.0 L 45.0,104.0 L 56.0,108.0 L 69.0,108.0 L 78.0,106.0 L 90.0,100.0 L 97.0,94.0 L 104.0,83.0 L 107.0,76.0 L 108.0,69.0 L 108.0,56.0 L 104.0,45.0 L 97.0,34.0 L 87.0,26.0 L 76.0,21.0 L 70.0,20.0 L 56.0,20.0" fill="#080808"/>
	<path d="M 34.0,67.0 L 90.0,67.0 L 88.0,73.0 L 82.0,83.0 L 74.0,90.0 L 65.0,93.0 L 57.0,93.0 L 48.0,89.0 L 41.0,83.0 L 36.0,75.0 L 34.0,67.0" fill="#080808"/>
	<path d="M 76.0,40.0 L 86.0,40.0 L 94.0,44.0 L 97.0,48.0 L 92.0,52.0 L 88.0,51.0 L 85.0,49.0 L 78.0,49.0 L 74.0,52.0 L 70.0,51.0 L 67.0,48.0 L 68.0,45.0 L 76.0,40.0" fill="#0A0A0A"/>
	<path d="M 36.0,40.0 L 46.0,40.0 L 54.0,44.0 L 57.0,48.0 L 52.0,52.0 L 48.0,51.0 L 45.0,49.0 L 38.0,49.0 L 34.0,52.0 L 30.0,51.0 L 27.0,48.0 L 28.0,45.0 L 36.0,40.0" fill="#0A0A0A"/>
</svg>
