<?xml version="1.0" ?>
<svg baseProfile="full" height="600px" version="1.1" viewBox="-19.296000000000003 -19.296000000000003 230.592 230.592" width="600px" xmlns="http://www.w3.org/2000/svg" xmlns:ev="http://www.w3.org/2001/xml-events" xmlns:xlink="http://www.w3.org/1999/xlink">
	<defs/>
	<path d="M 0.0,0.0 L 192.0,0.0 L 192.0,192.0 L 0.0,192.0 L 0.0,0.0" fill="#FEFDFD"/>
	<path d="M 95.0,9.0 L 99.0,11.0 L 110.0,28.0 L 118.0,43.0 L 120.0,48.0 L 121.0,72.0 L 130.0,85.0 L 140.0,99.0 L 140.0,128.0 L 131.0,125.0 L 120.0,121.0 L 120.0,129.0 L 113.0,136.0 L 79.0,136.0 L 72.0,129.0 L 72.0,121.0 L 56.0,127.0 L 52.0,128.0 L 52.0,99.0 L 65.0,81.0 L 71.0,72.0 L 72.0,48.0 L 76.0,38.0 L 85.0,23.0 L 95.0,9.0" fill="#CFC2E8"/>
	<path d="M 80.0,136.0 L 112.0,136.0 L 112.0,144.0 L 120.0,145.0 L 122.0,144.0 L 133.0,144.0 L 140.0,150.0 L 142.0,155.0 L 142.0,162.0 L 138.0,169.0 L 131.0,173.0 L 124.0,173.0 L 120.0,172.0 L 113.0,177.0 L 100.0,177.0 L 97.0,175.0 L 92.0,176.0 L 85.0,179.0 L 76.0,179.0 L 69.0,175.0 L 65.0,171.0 L 54.0,169.0 L 50.0,164.0 L 49.0,162.0 L 49.0,153.0 L 53.0,148.0 L 56.0,146.0 L 67.0,146.0 L 72.0,142.0 L 80.0,141.0 L 80.0,136.0" fill="#FFCCD0"/>
	<path d="M 112.0,34.0 L 115.0,37.0 L 120.0,48.0 L 121.0,72.0 L 130.0,85.0 L 140.0,99.0 L 140.0,128.0 L 131.0,125.0 L 122.0,121.0 L 120.0,120.0 L 119.0,75.0 L 117.0,75.0 L 117.0,77.0 L 115.0,77.0 L 115.0,79.0 L 113.0,79.0 L 113.0,81.0 L 111.0,81.0 L 111.0,83.0 L 109.0,83.0 L 109.0,85.0 L 107.0,85.0 L 107.0,87.0 L 105.0,87.0 L 105.0,89.0 L 103.0,89.0 L 103.0,91.0 L 101.0,91.0 L 101.0,93.0 L 99.0,93.0 L 99.0,96.0 L 104.0,101.0 L 103.0,109.0 L 99.0,112.0 L 93.0,112.0 L 88.0,107.0 L 88.0,101.0 L 91.0,95.0 L 93.0,95.0 L 93.0,93.0 L 95.0,93.0 L 95.0,91.0 L 97.0,91.0 L 97.0,89.0 L 90.0,86.0 L 88.0,83.0 L 88.0,77.0 L 91.0,71.0 L 93.0,71.0 L 93.0,69.0 L 95.0,69.0 L 95.0,67.0 L 97.0,67.0 L 97.0,65.0 L 90.0,62.0 L 88.0,59.0 L 88.0,53.0 L 93.0,48.0 L 101.0,47.0 L 101.0,45.0 L 103.0,45.0 L 103.0,43.0 L 105.0,43.0 L 105.0,41.0 L 107.0,41.0 L 107.0,39.0 L 109.0,39.0 L 109.0,37.0 L 111.0,37.0 L 112.0,34.0" fill="#CFC2E8"/>
	<path d="M 95.0,9.0 L 99.0,11.0 L 110.0,28.0 L 113.0,34.0 L 111.0,37.0 L 109.0,37.0 L 109.0,39.0 L 107.0,39.0 L 107.0,41.0 L 105.0,41.0 L 105.0,43.0 L 103.0,43.0 L 103.0,45.0 L 101.0,45.0 L 101.0,47.0 L 91.0,50.0 L 89.0,53.0 L 89.0,59.0 L 93.0,63.0 L 95.0,65.0 L 93.0,65.0 L 93.0,67.0 L 91.0,67.0 L 91.0,69.0 L 89.0,69.0 L 89.0,71.0 L 87.0,71.0 L 87.0,73.0 L 85.0,73.0 L 85.0,75.0 L 83.0,75.0 L 83.0,77.0 L 81.0,77.0 L 81.0,79.0 L 79.0,79.0 L 79.0,81.0 L 77.0,81.0 L 77.0,83.0 L 75.0,83.0 L 75.0,85.0 L 73.0,85.0 L 72.0,120.0 L 61.0,125.0 L 52.0,128.0 L 52.0,99.0 L 65.0,81.0 L 71.0,72.0 L 72.0,48.0 L 76.0,38.0 L 85.0,23.0 L 95.0,9.0" fill="#D0C3E8"/>
	<path d="M 95.0,64.0 L 99.0,65.0 L 97.0,65.0 L 97.0,67.0 L 95.0,67.0 L 95.0,69.0 L 93.0,69.0 L 93.0,71.0 L 91.0,71.0 L 90.0,75.0 L 89.0,77.0 L 89.0,83.0 L 93.0,87.0 L 99.0,88.0 L 97.0,89.0 L 97.0,91.0 L 95.0,91.0 L 95.0,93.0 L 93.0,93.0 L 93.0,95.0 L 91.0,95.0 L 90.0,99.0 L 89.0,101.0 L 89.0,107.0 L 93.0,111.0 L 100.0,112.0 L 94.0,119.0 L 85.0,128.0 L 72.0,129.0 L 71.0,120.0 L 72.0,87.0 L 73.0,85.0 L 75.0,85.0 L 75.0,83.0 L 77.0,83.0 L 77.0,81.0 L 79.0,81.0 L 79.0,79.0 L 81.0,79.0 L 81.0,77.0 L 83.0,77.0 L 83.0,75.0 L 85.0,75.0 L 85.0,73.0 L 87.0,73.0 L 87.0,71.0 L 89.0,71.0 L 89.0,69.0 L 91.0,69.0 L 91.0,67.0 L 93.0,67.0 L 93.0,65.0 L 95.0,64.0" fill="#D0C3E8"/>
	<path d="M 120.0,73.0 L 125.0,78.0 L 137.0,95.0 L 140.0,99.0 L 140.0,128.0 L 131.0,125.0 L 122.0,121.0 L 120.0,120.0 L 120.0,73.0" fill="#7F59C2"/>
	<path d="M 71.0,73.0 L 72.0,73.0 L 72.0,120.0 L 61.0,125.0 L 52.0,128.0 L 52.0,99.0 L 65.0,81.0 L 71.0,73.0" fill="#7F58C2"/>
	<path d="M 80.0,136.0 L 112.0,136.0 L 111.0,145.0 L 102.0,159.0 L 97.0,165.0 L 93.0,163.0 L 83.0,149.0 L 80.0,143.0 L 80.0,136.0" fill="#FF4104"/>
	<path d="M 119.0,53.0 L 120.0,53.0 L 121.0,73.0 L 119.0,73.0 L 119.0,75.0 L 117.0,75.0 L 117.0,77.0 L 115.0,77.0 L 115.0,79.0 L 113.0,79.0 L 113.0,81.0 L 111.0,81.0 L 111.0,83.0 L 109.0,83.0 L 109.0,85.0 L 107.0,85.0 L 107.0,87.0 L 105.0,87.0 L 105.0,89.0 L 103.0,89.0 L 103.0,91.0 L 101.0,91.0 L 101.0,93.0 L 99.0,93.0 L 99.0,96.0 L 104.0,101.0 L 103.0,109.0 L 99.0,112.0 L 93.0,112.0 L 88.0,107.0 L 88.0,101.0 L 91.0,95.0 L 93.0,95.0 L 93.0,93.0 L 95.0,93.0 L 95.0,91.0 L 97.0,91.0 L 97.0,89.0 L 99.0,89.0 L 99.0,87.0 L 102.0,85.0 L 103.0,77.0 L 101.0,74.0 L 101.0,71.0 L 103.0,71.0 L 103.0,69.0 L 105.0,69.0 L 105.0,67.0 L 107.0,67.0 L 107.0,65.0 L 109.0,65.0 L 109.0,63.0 L 111.0,63.0 L 111.0,61.0 L 113.0,61.0 L 113.0,59.0 L 115.0,59.0 L 115.0,57.0 L 117.0,57.0 L 117.0,55.0 L 119.0,55.0 L 119.0,53.0" fill="#CFC2E8"/>
	<path d="M 119.0,97.0 L 120.0,97.0 L 120.0,120.0 L 122.0,121.0 L 120.0,121.0 L 120.0,129.0 L 89.0,128.0 L 91.0,127.0 L 91.0,125.0 L 93.0,125.0 L 93.0,123.0 L 95.0,123.0 L 95.0,121.0 L 97.0,121.0 L 97.0,119.0 L 99.0,119.0 L 99.0,117.0 L 101.0,117.0 L 101.0,115.0 L 103.0,115.0 L 103.0,113.0 L 105.0,113.0 L 105.0,111.0 L 107.0,111.0 L 107.0,109.0 L 109.0,109.0 L 109.0,107.0 L 111.0,107.0 L 111.0,105.0 L 113.0,105.0 L 113.0,103.0 L 115.0,103.0 L 115.0,101.0 L 117.0,101.0 L 117.0,99.0 L 119.0,99.0 L 119.0,97.0" fill="#D0C3E8"/>
	<path d="M 85.0,24.0 L 106.0,24.0 L 100.0,31.0 L 73.0,58.0 L 72.0,58.0 L 72.0,48.0 L 76.0,38.0 L 84.0,25.0 L 85.0,24.0" fill="#D1C4E9"/>
	<path d="M 95.0,9.0 L 99.0,11.0 L 109.0,26.0 L 109.0,29.0 L 107.0,29.0 L 107.0,31.0 L 105.0,31.0 L 105.0,33.0 L 103.0,33.0 L 103.0,35.0 L 101.0,35.0 L 101.0,37.0 L 99.0,37.0 L 99.0,39.0 L 97.0,39.0 L 97.0,41.0 L 95.0,41.0 L 95.0,43.0 L 93.0,43.0 L 93.0,45.0 L 91.0,45.0 L 91.0,47.0 L 89.0,47.0 L 89.0,49.0 L 87.0,49.0 L 87.0,51.0 L 85.0,51.0 L 85.0,53.0 L 83.0,53.0 L 83.0,55.0 L 81.0,55.0 L 81.0,57.0 L 79.0,57.0 L 79.0,59.0 L 77.0,59.0 L 77.0,61.0 L 75.0,61.0 L 75.0,63.0 L 73.0,63.0 L 72.0,65.0 L 72.0,58.0 L 105.0,25.0 L 85.0,24.0 L 91.0,14.0 L 95.0,9.0" fill="#D0C3E8"/>
	<path d="M 73.0,128.0 L 119.0,128.0 L 117.0,132.0 L 113.0,136.0 L 79.0,136.0 L 73.0,130.0 L 73.0,128.0" fill="#805AC3"/>
	<path d="M 93.0,96.0 L 99.0,96.0 L 104.0,101.0 L 103.0,109.0 L 99.0,112.0 L 93.0,112.0 L 88.0,107.0 L 88.0,101.0 L 93.0,96.0" fill="#372195"/>
	<path d="M 93.0,72.0 L 99.0,72.0 L 104.0,77.0 L 103.0,85.0 L 99.0,88.0 L 93.0,88.0 L 88.0,83.0 L 88.0,77.0 L 93.0,72.0" fill="#372195"/>
	<path d="M 93.0,48.0 L 99.0,48.0 L 104.0,53.0 L 103.0,61.0 L 99.0,64.0 L 93.0,64.0 L 88.0,59.0 L 88.0,53.0 L 93.0,48.0" fill="#372195"/>
	<path d="M 95.0,9.0 L 99.0,11.0 L 107.0,23.0 L 107.0,24.0 L 85.0,24.0 L 91.0,14.0 L 95.0,9.0" fill="#815BC3"/>
	<path d="M 89.0,136.0 L 104.0,136.0 L 104.0,141.0 L 97.0,150.0 L 93.0,148.0 L 88.0,141.0 L 89.0,136.0" fill="#FFE137"/>
</svg>
