<?xml version="1.0" ?>
<svg baseProfile="full" height="600px" version="1.1" viewBox="-20.1 -20.1 240.2 240.2" width="600px" xmlns="http://www.w3.org/2000/svg" xmlns:ev="http://www.w3.org/2001/xml-events" xmlns:xlink="http://www.w3.org/1999/xlink">
	<defs/>
	<path d="M 0.0,0.0 L 200.0,0.0 L 200.0,200.0 L 0.0,200.0 L 0.0,0.0" fill="#FCFCFC"/>
	<path d="M 163.0,23.0 L 166.0,24.0 L 173.0,45.0 L 178.0,66.0 L 180.0,82.0 L 180.0,117.0 L 178.0,130.0 L 171.0,149.0 L 162.0,163.0 L 151.0,174.0 L 140.0,180.0 L 132.0,183.0 L 116.0,183.0 L 105.0,179.0 L 99.0,175.0 L 92.0,167.0 L 89.0,161.0 L 89.0,158.0 L 99.0,150.0 L 109.0,141.0 L 120.0,130.0 L 129.0,119.0 L 139.0,105.0 L 148.0,90.0 L 156.0,73.0 L 155.0,69.0 L 150.0,69.0 L 139.0,92.0 L 131.0,104.0 L 121.0,117.0 L 112.0,127.0 L 104.0,136.0 L 96.0,143.0 L 85.0,152.0 L 76.0,151.0 L 64.0,144.0 L 56.0,137.0 L 47.0,124.0 L 43.0,113.0 L 43.0,101.0 L 47.0,89.0 L 54.0,78.0 L 63.0,68.0 L 72.0,60.0 L 86.0,52.0 L 100.0,47.0 L 135.0,39.0 L 151.0,32.0 L 160.0,26.0 L 163.0,23.0" fill="#FCFCFC"/>
	<path d="M 164.0,10.0 L 169.0,11.0 L 172.0,16.0 L 178.0,33.0 L 183.0,51.0 L 187.0,70.0 L 189.0,87.0 L 189.0,111.0 L 186.0,131.0 L 180.0,149.0 L 171.0,165.0 L 159.0,178.0 L 145.0,187.0 L 138.0,190.0 L 133.0,191.0 L 116.0,191.0 L 105.0,188.0 L 96.0,183.0 L 89.0,177.0 L 83.0,167.0 L 81.0,165.0 L 65.0,174.0 L 49.0,181.0 L 31.0,185.0 L 16.0,185.0 L 13.0,182.0 L 14.0,177.0 L 30.0,176.0 L 47.0,172.0 L 63.0,165.0 L 73.0,159.0 L 61.0,152.0 L 50.0,143.0 L 42.0,132.0 L 37.0,122.0 L 35.0,114.0 L 35.0,101.0 L 38.0,89.0 L 44.0,78.0 L 52.0,68.0 L 64.0,56.0 L 75.0,49.0 L 87.0,43.0 L 102.0,38.0 L 133.0,31.0 L 148.0,25.0 L 158.0,18.0 L 164.0,10.0 M 163.0,23.0 L 155.0,30.0 L 140.0,37.0 L 127.0,41.0 L 100.0,47.0 L 84.0,53.0 L 72.0,60.0 L 62.0,69.0 L 53.0,79.0 L 46.0,91.0 L 43.0,101.0 L 43.0,113.0 L 48.0,126.0 L 58.0,139.0 L 70.0,148.0 L 80.0,152.0 L 85.0,152.0 L 98.0,141.0 L 110.0,130.0 L 117.0,122.0 L 129.0,107.0 L 139.0,92.0 L 150.0,69.0 L 155.0,69.0 L 156.0,73.0 L 146.0,94.0 L 137.0,108.0 L 128.0,120.0 L 116.0,134.0 L 102.0,148.0 L 89.0,158.0 L 90.0,163.0 L 95.0,171.0 L 103.0,178.0 L 112.0,182.0 L 116.0,183.0 L 132.0,183.0 L 144.0,178.0 L 153.0,172.0 L 163.0,162.0 L 171.0,149.0 L 176.0,136.0 L 179.0,124.0 L 180.0,117.0 L 180.0,82.0 L 177.0,61.0 L 170.0,35.0 L 166.0,24.0 L 163.0,23.0" fill="#090909"/>
</svg>
