<?xml version="1.0" ?>
<svg baseProfile="full" height="600px" version="1.1" viewBox="-20.1 -20.1 240.2 240.2" width="600px" xmlns="http://www.w3.org/2000/svg" xmlns:ev="http://www.w3.org/2001/xml-events" xmlns:xlink="http://www.w3.org/1999/xlink">
	<defs/>
	<path d="M 0.0,0.0 L 200.0,0.0 L 200.0,200.0 L 0.0,200.0 L 0.0,0.0" fill="#FCFCFC"/>
	<path d="M 155.0,14.0 L 158.0,17.0 L 163.0,30.0 L 169.0,49.0 L 172.0,61.0 L 175.0,81.0 L 175.0,106.0 L 172.0,123.0 L 167.0,138.0 L 160.0,151.0 L 149.0,163.0 L 139.0,170.0 L 126.0,175.0 L 113.0,175.0 L 102.0,172.0 L 94.0,166.0 L 90.0,161.0 L 87.0,153.0 L 96.0,144.0 L 105.0,133.0 L 114.0,122.0 L 123.0,109.0 L 131.0,96.0 L 143.0,73.0 L 147.0,63.0 L 147.0,59.0 L 141.0,59.0 L 132.0,80.0 L 120.0,101.0 L 107.0,119.0 L 96.0,132.0 L 87.0,142.0 L 82.0,147.0 L 75.0,147.0 L 61.0,140.0 L 51.0,132.0 L 44.0,124.0 L 38.0,112.0 L 36.0,106.0 L 36.0,94.0 L 40.0,82.0 L 47.0,70.0 L 58.0,58.0 L 66.0,51.0 L 80.0,43.0 L 96.0,37.0 L 122.0,30.0 L 137.0,25.0 L 149.0,19.0 L 155.0,14.0" fill="#FCFCFC"/>
	<path d="M 155.0,2.0 L 160.0,3.0 L 163.0,8.0 L 171.0,28.0 L 176.0,44.0 L 181.0,65.0 L 183.0,82.0 L 183.0,109.0 L 180.0,126.0 L 174.0,142.0 L 168.0,153.0 L 162.0,161.0 L 156.0,168.0 L 145.0,176.0 L 132.0,182.0 L 125.0,183.0 L 110.0,183.0 L 98.0,179.0 L 87.0,171.0 L 80.0,160.0 L 70.0,168.0 L 59.0,175.0 L 47.0,181.0 L 33.0,185.0 L 16.0,185.0 L 13.0,182.0 L 14.0,177.0 L 19.0,176.0 L 34.0,176.0 L 50.0,170.0 L 63.0,162.0 L 72.0,155.0 L 56.0,147.0 L 46.0,139.0 L 37.0,129.0 L 31.0,117.0 L 28.0,105.0 L 28.0,93.0 L 32.0,80.0 L 38.0,69.0 L 46.0,59.0 L 58.0,47.0 L 76.0,36.0 L 97.0,28.0 L 127.0,20.0 L 140.0,15.0 L 149.0,9.0 L 155.0,2.0 M 155.0,14.0 L 147.0,20.0 L 135.0,26.0 L 112.0,33.0 L 93.0,38.0 L 76.0,45.0 L 65.0,52.0 L 55.0,61.0 L 47.0,70.0 L 39.0,84.0 L 36.0,94.0 L 36.0,106.0 L 41.0,119.0 L 48.0,129.0 L 58.0,138.0 L 72.0,146.0 L 75.0,147.0 L 82.0,147.0 L 94.0,135.0 L 103.0,124.0 L 113.0,111.0 L 123.0,96.0 L 135.0,74.0 L 141.0,59.0 L 147.0,59.0 L 146.0,66.0 L 134.0,91.0 L 125.0,106.0 L 112.0,125.0 L 99.0,140.0 L 88.0,152.0 L 87.0,154.0 L 92.0,164.0 L 100.0,171.0 L 109.0,174.0 L 113.0,175.0 L 126.0,175.0 L 139.0,170.0 L 150.0,162.0 L 157.0,155.0 L 164.0,144.0 L 169.0,133.0 L 173.0,120.0 L 175.0,106.0 L 175.0,81.0 L 171.0,57.0 L 167.0,42.0 L 159.0,19.0 L 156.0,14.0 L 155.0,14.0" fill="#080808"/>
</svg>
