<?xml version="1.0" ?>
<svg baseProfile="full" height="600px" version="1.1" viewBox="-16.08 -16.08 192.16 192.16" width="600px" xmlns="http://www.w3.org/2000/svg" xmlns:ev="http://www.w3.org/2001/xml-events" xmlns:xlink="http://www.w3.org/1999/xlink">
	<defs/>
	<path d="M 0.0,0.0 L 160.0,0.0 L 160.0,160.0 L 0.0,160.0 L 0.0,0.0" fill="#FDFDFD"/>
	<path d="M 51.0,54.0 L 52.0,54.0 L 52.0,68.0 L 157.0,68.0 L 157.0,92.0 L 52.0,92.0 L 52.0,106.0 L 48.0,102.0 L 36.0,85.0 L 34.0,82.0 L 35.0,77.0 L 48.0,58.0 L 51.0,54.0" fill="#B7DEBB"/>
	<path d="M 51.0,54.0 L 52.0,54.0 L 52.0,68.0 L 157.0,68.0 L 157.0,92.0 L 52.0,92.0 L 52.0,106.0 L 48.0,102.0 L 36.0,85.0 L 34.0,82.0 L 35.0,77.0 L 48.0,58.0 L 51.0,54.0 M 47.0,67.0 L 39.0,78.0 L 40.0,84.0 L 47.0,93.0 L 48.0,93.0 L 48.0,88.0 L 153.0,88.0 L 153.0,72.0 L 48.0,72.0 L 48.0,67.0 L 47.0,67.0" fill="#619E78"/>
</svg>
