<?xml version="1.0" ?>
<svg baseProfile="full" height="600px" version="1.1" viewBox="-20.1 -20.1 240.2 240.2" width="600px" xmlns="http://www.w3.org/2000/svg" xmlns:ev="http://www.w3.org/2001/xml-events" xmlns:xlink="http://www.w3.org/1999/xlink">
	<defs/>
	<path d="M 0.0,0.0 L 200.0,0.0 L 200.0,200.0 L 0.0,200.0 L 0.0,0.0" fill="#040404"/>
	<path d="M 94.0,8.0 L 106.0,8.0 L 116.0,14.0 L 130.0,27.0 L 141.0,36.0 L 156.0,50.0 L 164.0,57.0 L 174.0,66.0 L 182.0,73.0 L 191.0,81.0 L 189.0,85.0 L 175.0,96.0 L 161.0,107.0 L 147.0,118.0 L 146.0,116.0 L 147.0,114.0 L 147.0,108.0 L 144.0,106.0 L 138.0,106.0 L 134.0,106.0 L 127.0,106.0 L 125.0,108.0 L 125.0,114.0 L 128.0,119.0 L 134.0,123.0 L 138.0,125.0 L 134.0,127.0 L 121.0,117.0 L 114.0,112.0 L 105.0,109.0 L 94.0,109.0 L 84.0,113.0 L 68.0,126.0 L 64.0,127.0 L 51.0,116.0 L 38.0,106.0 L 23.0,94.0 L 9.0,83.0 L 11.0,79.0 L 26.0,65.0 L 37.0,56.0 L 52.0,42.0 L 63.0,33.0 L 77.0,20.0 L 88.0,11.0 L 94.0,8.0" fill="#FCFCFC"/>
	<path d="M 95.0,116.0 L 104.0,116.0 L 113.0,120.0 L 128.0,132.0 L 145.0,145.0 L 160.0,157.0 L 177.0,170.0 L 192.0,182.0 L 192.0,192.0 L 8.0,192.0 L 8.0,182.0 L 24.0,169.0 L 40.0,157.0 L 56.0,144.0 L 69.0,134.0 L 87.0,120.0 L 95.0,116.0" fill="#FCFCFC"/>
	<path d="M 105.0,0.0 L 200.0,0.0 L 200.0,78.0 L 192.0,72.0 L 178.0,59.0 L 170.0,52.0 L 160.0,43.0 L 152.0,36.0 L 142.0,27.0 L 134.0,20.0 L 120.0,8.0 L 112.0,3.0 L 105.0,1.0 L 105.0,0.0" fill="#FCFCFC"/>
	<path d="M 0.0,0.0 L 93.0,0.0 L 90.0,2.0 L 82.0,6.0 L 69.0,18.0 L 61.0,25.0 L 47.0,37.0 L 35.0,48.0 L 27.0,55.0 L 17.0,64.0 L 6.0,73.0 L 0.0,78.0 L 0.0,0.0" fill="#FCFCFC"/>
	<path d="M 190.0,93.0 L 192.0,93.0 L 192.0,172.0 L 184.0,166.0 L 171.0,156.0 L 153.0,142.0 L 141.0,133.0 L 146.0,128.0 L 161.0,116.0 L 175.0,105.0 L 189.0,94.0 L 190.0,93.0" fill="#FBFBFB"/>
	<path d="M 8.0,93.0 L 12.0,95.0 L 26.0,106.0 L 41.0,118.0 L 55.0,129.0 L 58.0,131.0 L 56.0,135.0 L 41.0,147.0 L 28.0,157.0 L 14.0,168.0 L 8.0,172.0 L 8.0,93.0" fill="#FCFCFC"/>
	<path d="M 70.0,65.0 L 76.0,65.0 L 81.0,67.0 L 84.0,65.0 L 90.0,65.0 L 95.0,69.0 L 96.0,71.0 L 96.0,78.0 L 92.0,84.0 L 84.0,91.0 L 79.0,93.0 L 70.0,86.0 L 65.0,80.0 L 64.0,77.0 L 64.0,70.0 L 70.0,65.0" fill="#050505"/>
	<path d="M 127.0,105.0 L 134.0,105.0 L 138.0,105.0 L 144.0,105.0 L 148.0,108.0 L 148.0,114.0 L 145.0,120.0 L 140.0,124.0 L 134.0,124.0 L 126.0,118.0 L 124.0,114.0 L 124.0,108.0 L 127.0,105.0" fill="#0A0A0A"/>
	<path d="M 131.0,122.0 L 138.0,124.0 L 136.0,127.0 L 131.0,125.0 L 131.0,122.0" fill="#D6D6D6"/>
</svg>
