<?xml version="1.0" ?>
<svg baseProfile="full" height="600px" version="1.1" viewBox="-20.1 -20.1 240.2 240.2" width="600px" xmlns="http://www.w3.org/2000/svg" xmlns:ev="http://www.w3.org/2001/xml-events" xmlns:xlink="http://www.w3.org/1999/xlink">
	<defs/>
	<path d="M 0.0,0.0 L 200.0,0.0 L 200.0,200.0 L 0.0,200.0 L 0.0,0.0" fill="#030303"/>
	<path d="M 0.0,0.0 L 200.0,0.0 L 200.0,56.0 L 0.0,56.0 L 0.0,0.0" fill="#FDFDFD"/>
	<path d="M 8.0,64.0 L 192.0,64.0 L 192.0,74.0 L 179.0,86.0 L 168.0,95.0 L 156.0,106.0 L 145.0,115.0 L 133.0,126.0 L 122.0,135.0 L 112.0,144.0 L 104.0,148.0 L 96.0,148.0 L 88.0,144.0 L 77.0,134.0 L 66.0,125.0 L 54.0,114.0 L 43.0,105.0 L 30.0,93.0 L 19.0,84.0 L 8.0,74.0 L 8.0,64.0" fill="#FDFDFD"/>
	<path d="M 65.0,137.0 L 70.0,138.0 L 83.0,150.0 L 91.0,154.0 L 94.0,155.0 L 105.0,155.0 L 115.0,151.0 L 126.0,142.0 L 132.0,137.0 L 136.0,138.0 L 151.0,150.0 L 164.0,160.0 L 178.0,171.0 L 192.0,182.0 L 192.0,192.0 L 8.0,192.0 L 8.0,182.0 L 24.0,169.0 L 37.0,159.0 L 55.0,145.0 L 65.0,137.0" fill="#FCFCFC"/>
	<path d="M 191.0,85.0 L 192.0,85.0 L 192.0,172.0 L 184.0,166.0 L 171.0,156.0 L 153.0,142.0 L 140.0,132.0 L 142.0,128.0 L 153.0,118.0 L 164.0,109.0 L 176.0,98.0 L 187.0,89.0 L 191.0,85.0" fill="#FBFBFB"/>
	<path d="M 8.0,85.0 L 16.0,91.0 L 30.0,104.0 L 41.0,113.0 L 53.0,124.0 L 60.0,130.0 L 59.0,133.0 L 46.0,143.0 L 28.0,157.0 L 14.0,168.0 L 8.0,172.0 L 8.0,85.0" fill="#FCFCFC"/>
</svg>
