<?xml version="1.0" ?>
<svg baseProfile="full" height="600px" version="1.1" viewBox="-19.296000000000003 -19.296000000000003 230.592 230.592" width="600px" xmlns="http://www.w3.org/2000/svg" xmlns:ev="http://www.w3.org/2001/xml-events" xmlns:xlink="http://www.w3.org/1999/xlink">
	<defs/>
	<path d="M 0.0,0.0 L 192.0,0.0 L 192.0,192.0 L 0.0,192.0 L 0.0,0.0" fill="#FDFDFD"/>
	<path d="M 88.0,54.0 L 101.0,54.0 L 104.0,57.0 L 114.0,60.0 L 119.0,64.0 L 124.0,73.0 L 127.0,83.0 L 128.0,87.0 L 128.0,99.0 L 116.0,111.0 L 125.0,118.0 L 128.0,121.0 L 128.0,132.0 L 64.0,132.0 L 64.0,121.0 L 73.0,113.0 L 75.0,111.0 L 64.0,102.0 L 64.0,89.0 L 67.0,75.0 L 72.0,65.0 L 79.0,58.0 L 88.0,54.0" fill="#FE5A26"/>
	<path d="M 88.0,16.0 L 105.0,16.0 L 119.0,19.0 L 134.0,25.0 L 138.0,29.0 L 132.0,38.0 L 117.0,32.0 L 106.0,29.0 L 87.0,29.0 L 71.0,33.0 L 58.0,40.0 L 46.0,50.0 L 37.0,63.0 L 32.0,74.0 L 29.0,86.0 L 29.0,102.0 L 31.0,113.0 L 36.0,127.0 L 38.0,130.0 L 38.0,141.0 L 29.0,139.0 L 23.0,130.0 L 18.0,115.0 L 16.0,107.0 L 16.0,86.0 L 20.0,69.0 L 28.0,53.0 L 37.0,41.0 L 47.0,32.0 L 60.0,24.0 L 75.0,18.0 L 88.0,16.0" fill="#2698F3"/>
	<path d="M 155.0,52.0 L 163.0,53.0 L 169.0,62.0 L 173.0,72.0 L 176.0,85.0 L 176.0,106.0 L 171.0,125.0 L 163.0,141.0 L 152.0,154.0 L 139.0,164.0 L 125.0,171.0 L 112.0,175.0 L 106.0,176.0 L 85.0,176.0 L 66.0,171.0 L 54.0,165.0 L 55.0,161.0 L 60.0,154.0 L 74.0,160.0 L 86.0,163.0 L 103.0,163.0 L 115.0,161.0 L 131.0,154.0 L 140.0,147.0 L 145.0,143.0 L 154.0,131.0 L 160.0,117.0 L 163.0,105.0 L 163.0,86.0 L 159.0,72.0 L 154.0,62.0 L 155.0,52.0" fill="#2698F3"/>
	<path d="M 84.0,109.0 L 88.0,109.0 L 92.0,118.0 L 98.0,119.0 L 101.0,116.0 L 104.0,109.0 L 112.0,110.0 L 113.0,113.0 L 117.0,112.0 L 125.0,118.0 L 128.0,121.0 L 128.0,132.0 L 64.0,132.0 L 64.0,121.0 L 73.0,113.0 L 78.0,112.0 L 79.0,113.0 L 80.0,110.0 L 84.0,109.0" fill="#617E8B"/>
	<path d="M 102.0,70.0 L 105.0,70.0 L 112.0,78.0 L 112.0,98.0 L 105.0,104.0 L 103.0,114.0 L 100.0,119.0 L 94.0,120.0 L 90.0,116.0 L 88.0,112.0 L 87.0,104.0 L 80.0,98.0 L 80.0,78.0 L 90.0,74.0 L 102.0,70.0" fill="#FEB44B"/>
	<path d="M 88.0,104.0 L 92.0,105.0 L 104.0,105.0 L 104.0,109.0 L 98.0,112.0 L 91.0,111.0 L 88.0,109.0 L 88.0,104.0" fill="#FE9904"/>
	<path d="M 110.0,99.0 L 112.0,99.0 L 112.0,110.0 L 104.0,109.0 L 104.0,104.0 L 110.0,99.0" fill="#BF3B10"/>
	<path d="M 80.0,99.0 L 84.0,101.0 L 88.0,104.0 L 88.0,109.0 L 80.0,110.0 L 80.0,99.0" fill="#BE3B10"/>
	<path d="M 155.0,52.0 L 163.0,53.0 L 163.0,56.0 L 157.0,60.0 L 155.0,60.0 L 154.0,62.0 L 155.0,52.0" fill="#349FF4"/>
</svg>
