<?xml version="1.0" ?>
<svg baseProfile="full" height="600px" version="1.1" viewBox="-19.296000000000003 -19.296000000000003 230.592 230.592" width="600px" xmlns="http://www.w3.org/2000/svg" xmlns:ev="http://www.w3.org/2001/xml-events" xmlns:xlink="http://www.w3.org/1999/xlink">
	<defs/>
	<path d="M 0.0,0.0 L 192.0,0.0 L 192.0,192.0 L 0.0,192.0 L 0.0,0.0" fill="#FCFDFD"/>
	<path d="M 91.0,58.0 L 102.0,58.0 L 104.0,61.0 L 112.0,65.0 L 116.0,71.0 L 116.0,90.0 L 112.0,99.0 L 106.0,104.0 L 104.0,104.0 L 104.0,109.0 L 111.0,110.0 L 123.0,116.0 L 128.0,121.0 L 128.0,132.0 L 64.0,132.0 L 64.0,121.0 L 72.0,114.0 L 83.0,109.0 L 88.0,109.0 L 88.0,104.0 L 83.0,102.0 L 77.0,94.0 L 76.0,91.0 L 76.0,74.0 L 81.0,64.0 L 88.0,59.0 L 91.0,58.0" fill="#FCB54D"/>
	<path d="M 155.0,52.0 L 163.0,53.0 L 169.0,62.0 L 173.0,72.0 L 176.0,85.0 L 176.0,106.0 L 171.0,125.0 L 163.0,141.0 L 152.0,154.0 L 139.0,164.0 L 125.0,171.0 L 112.0,175.0 L 106.0,176.0 L 85.0,176.0 L 66.0,171.0 L 55.0,165.0 L 54.0,163.0 L 60.0,154.0 L 74.0,160.0 L 86.0,163.0 L 104.0,163.0 L 117.0,160.0 L 129.0,155.0 L 139.0,148.0 L 145.0,143.0 L 153.0,132.0 L 159.0,120.0 L 162.0,110.0 L 163.0,103.0 L 163.0,86.0 L 159.0,72.0 L 154.0,62.0 L 155.0,52.0" fill="#2698F3"/>
	<path d="M 88.0,16.0 L 105.0,16.0 L 122.0,20.0 L 136.0,26.0 L 138.0,29.0 L 132.0,38.0 L 117.0,32.0 L 110.0,30.0 L 102.0,29.0 L 87.0,29.0 L 71.0,33.0 L 58.0,40.0 L 46.0,50.0 L 37.0,63.0 L 32.0,74.0 L 29.0,86.0 L 29.0,106.0 L 34.0,122.0 L 38.0,130.0 L 38.0,141.0 L 29.0,139.0 L 23.0,130.0 L 19.0,120.0 L 16.0,103.0 L 16.0,86.0 L 20.0,69.0 L 28.0,53.0 L 37.0,41.0 L 47.0,32.0 L 60.0,24.0 L 72.0,19.0 L 79.0,17.0 L 88.0,16.0" fill="#2698F3"/>
	<path d="M 83.0,109.0 L 88.0,109.0 L 91.0,114.0 L 92.0,115.0 L 99.0,115.0 L 103.0,111.0 L 104.0,109.0 L 111.0,110.0 L 123.0,116.0 L 128.0,121.0 L 128.0,132.0 L 64.0,132.0 L 64.0,121.0 L 72.0,114.0 L 83.0,109.0" fill="#617E8B"/>
	<path d="M 91.0,58.0 L 102.0,58.0 L 104.0,61.0 L 112.0,65.0 L 116.0,71.0 L 116.0,87.0 L 112.0,90.0 L 111.0,77.0 L 106.0,71.0 L 98.0,72.0 L 84.0,77.0 L 81.0,78.0 L 80.0,90.0 L 76.0,87.0 L 76.0,74.0 L 81.0,64.0 L 88.0,59.0 L 91.0,58.0" fill="#484746"/>
	<path d="M 88.0,105.0 L 104.0,105.0 L 104.0,111.0 L 99.0,116.0 L 92.0,116.0 L 88.0,112.0 L 88.0,105.0" fill="#FB9703"/>
	<path d="M 155.0,52.0 L 163.0,53.0 L 163.0,56.0 L 157.0,60.0 L 155.0,60.0 L 154.0,62.0 L 155.0,52.0" fill="#38A0F4"/>
</svg>
