<?xml version="1.0" ?>
<svg baseProfile="full" height="600px" version="1.1" viewBox="-16.08 -16.08 192.16 192.16" width="600px" xmlns="http://www.w3.org/2000/svg" xmlns:ev="http://www.w3.org/2001/xml-events" xmlns:xlink="http://www.w3.org/1999/xlink">
	<defs/>
	<path d="M 0.0,0.0 L 160.0,0.0 L 160.0,160.0 L 0.0,160.0 L 0.0,0.0" fill="#FEFDFD"/>
	<path d="M 72.0,4.0 L 89.0,4.0 L 102.0,9.0 L 111.0,15.0 L 119.0,23.0 L 125.0,34.0 L 128.0,43.0 L 128.0,58.0 L 125.0,70.0 L 116.0,87.0 L 108.0,100.0 L 105.0,107.0 L 104.0,140.0 L 101.0,145.0 L 92.0,150.0 L 86.0,155.0 L 83.0,156.0 L 75.0,156.0 L 67.0,149.0 L 61.0,146.0 L 57.0,142.0 L 56.0,139.0 L 55.0,107.0 L 48.0,93.0 L 40.0,80.0 L 34.0,67.0 L 32.0,57.0 L 32.0,43.0 L 36.0,32.0 L 42.0,22.0 L 51.0,13.0 L 67.0,5.0 L 72.0,4.0" fill="#FDECA1"/>
	<path d="M 72.0,4.0 L 89.0,4.0 L 102.0,9.0 L 111.0,15.0 L 119.0,23.0 L 125.0,34.0 L 128.0,43.0 L 128.0,58.0 L 125.0,70.0 L 116.0,87.0 L 108.0,100.0 L 105.0,107.0 L 104.0,140.0 L 101.0,145.0 L 92.0,150.0 L 86.0,155.0 L 83.0,156.0 L 75.0,156.0 L 67.0,149.0 L 61.0,146.0 L 57.0,142.0 L 56.0,139.0 L 55.0,107.0 L 48.0,93.0 L 40.0,80.0 L 34.0,67.0 L 32.0,57.0 L 32.0,43.0 L 36.0,32.0 L 42.0,22.0 L 51.0,13.0 L 67.0,5.0 L 72.0,4.0 M 73.0,8.0 L 63.0,11.0 L 53.0,17.0 L 47.0,22.0 L 40.0,33.0 L 37.0,40.0 L 36.0,45.0 L 36.0,56.0 L 39.0,69.0 L 47.0,84.0 L 56.0,99.0 L 60.0,112.0 L 100.0,112.0 L 102.0,103.0 L 112.0,85.0 L 118.0,75.0 L 122.0,67.0 L 124.0,57.0 L 124.0,44.0 L 120.0,33.0 L 113.0,22.0 L 103.0,14.0 L 91.0,9.0 L 84.0,8.0 L 73.0,8.0" fill="#8B75A1"/>
	<path d="M 66.0,41.0 L 73.0,41.0 L 79.0,46.0 L 83.0,44.0 L 88.0,41.0 L 96.0,42.0 L 101.0,47.0 L 102.0,48.0 L 102.0,57.0 L 98.0,63.0 L 93.0,68.0 L 92.0,112.0 L 68.0,112.0 L 67.0,68.0 L 59.0,59.0 L 58.0,57.0 L 58.0,48.0 L 62.0,43.0 L 66.0,41.0" fill="#FDECA3"/>
	<path d="M 72.0,4.0 L 89.0,4.0 L 102.0,9.0 L 111.0,15.0 L 119.0,23.0 L 125.0,34.0 L 128.0,43.0 L 128.0,58.0 L 125.0,70.0 L 116.0,87.0 L 108.0,100.0 L 105.0,107.0 L 104.0,112.0 L 100.0,112.0 L 101.0,103.0 L 111.0,85.0 L 117.0,75.0 L 121.0,67.0 L 123.0,57.0 L 123.0,44.0 L 119.0,33.0 L 112.0,22.0 L 101.0,14.0 L 91.0,10.0 L 84.0,9.0 L 73.0,9.0 L 63.0,12.0 L 53.0,18.0 L 48.0,22.0 L 41.0,33.0 L 38.0,40.0 L 37.0,45.0 L 37.0,56.0 L 40.0,69.0 L 48.0,84.0 L 57.0,99.0 L 60.0,107.0 L 60.0,112.0 L 56.0,112.0 L 53.0,102.0 L 43.0,85.0 L 35.0,70.0 L 33.0,64.0 L 32.0,57.0 L 32.0,43.0 L 36.0,32.0 L 42.0,22.0 L 51.0,13.0 L 67.0,5.0 L 72.0,4.0" fill="#BEA050"/>
	<path d="M 66.0,41.0 L 73.0,41.0 L 79.0,46.0 L 83.0,44.0 L 88.0,41.0 L 96.0,42.0 L 101.0,47.0 L 102.0,48.0 L 102.0,57.0 L 98.0,63.0 L 93.0,68.0 L 92.0,112.0 L 88.0,112.0 L 88.0,66.0 L 96.0,58.0 L 97.0,56.0 L 97.0,49.0 L 95.0,47.0 L 87.0,47.0 L 81.0,53.0 L 77.0,51.0 L 73.0,47.0 L 65.0,47.0 L 63.0,50.0 L 63.0,56.0 L 70.0,64.0 L 72.0,66.0 L 72.0,112.0 L 68.0,112.0 L 67.0,68.0 L 59.0,59.0 L 58.0,57.0 L 58.0,48.0 L 62.0,43.0 L 66.0,41.0" fill="#FEFDFA"/>
	<path d="M 60.0,116.0 L 100.0,116.0 L 100.0,120.0 L 76.0,120.0 L 76.0,124.0 L 100.0,124.0 L 100.0,128.0 L 76.0,128.0 L 76.0,132.0 L 100.0,132.0 L 100.0,136.0 L 76.0,136.0 L 76.0,140.0 L 99.0,140.0 L 96.0,143.0 L 94.0,144.0 L 65.0,144.0 L 61.0,140.0 L 68.0,140.0 L 68.0,136.0 L 60.0,136.0 L 60.0,132.0 L 68.0,132.0 L 68.0,128.0 L 60.0,128.0 L 60.0,124.0 L 68.0,124.0 L 68.0,120.0 L 60.0,120.0 L 60.0,116.0" fill="#DAD2F0"/>
	<path d="M 68.0,148.0 L 92.0,148.0 L 90.0,152.0 L 86.0,155.0 L 83.0,156.0 L 75.0,156.0 L 68.0,150.0 L 68.0,148.0" fill="#313944"/>
</svg>
