<?xml version="1.0" ?>
<svg baseProfile="full" height="600px" version="1.1" viewBox="-19.296000000000003 -19.296000000000003 230.592 230.592" width="600px" xmlns="http://www.w3.org/2000/svg" xmlns:ev="http://www.w3.org/2001/xml-events" xmlns:xlink="http://www.w3.org/1999/xlink">
	<defs/>
	<path d="M 0.0,0.0 L 192.0,0.0 L 192.0,192.0 L 0.0,192.0 L 0.0,0.0" fill="#FDFEFE"/>
	<path d="M 112.0,24.0 L 123.0,24.0 L 133.0,27.0 L 142.0,33.0 L 149.0,43.0 L 152.0,51.0 L 152.0,64.0 L 161.0,66.0 L 169.0,72.0 L 175.0,82.0 L 176.0,85.0 L 176.0,96.0 L 173.0,105.0 L 167.0,113.0 L 158.0,118.0 L 152.0,120.0 L 110.0,120.0 L 113.0,125.0 L 108.0,129.0 L 105.0,129.0 L 100.0,123.0 L 96.0,132.0 L 88.0,130.0 L 91.0,120.0 L 80.0,121.0 L 38.0,120.0 L 29.0,116.0 L 21.0,109.0 L 17.0,100.0 L 16.0,97.0 L 16.0,86.0 L 20.0,77.0 L 27.0,69.0 L 35.0,65.0 L 44.0,64.0 L 44.0,56.0 L 49.0,46.0 L 57.0,39.0 L 64.0,36.0 L 75.0,36.0 L 85.0,40.0 L 87.0,42.0 L 94.0,33.0 L 103.0,27.0 L 112.0,24.0" fill="#BBDEFB"/>
	<path d="M 134.0,143.0 L 139.0,144.0 L 141.0,145.0 L 140.0,151.0 L 139.0,155.0 L 149.0,154.0 L 150.0,162.0 L 148.0,163.0 L 140.0,163.0 L 144.0,169.0 L 145.0,173.0 L 141.0,177.0 L 137.0,175.0 L 134.0,171.0 L 134.0,169.0 L 132.0,169.0 L 131.0,174.0 L 129.0,179.0 L 122.0,176.0 L 124.0,167.0 L 114.0,167.0 L 113.0,159.0 L 123.0,157.0 L 118.0,151.0 L 119.0,147.0 L 124.0,144.0 L 129.0,150.0 L 129.0,152.0 L 131.0,152.0 L 132.0,146.0 L 134.0,143.0" fill="#299AF3"/>
	<path d="M 91.0,120.0 L 109.0,120.0 L 113.0,125.0 L 108.0,129.0 L 105.0,129.0 L 100.0,123.0 L 96.0,132.0 L 88.0,130.0 L 91.0,120.0" fill="#2A9AF3"/>
</svg>
