<?xml version="1.0" ?>
<svg baseProfile="full" height="600px" version="1.1" viewBox="-12.864 -12.864 153.728 153.728" width="600px" xmlns="http://www.w3.org/2000/svg" xmlns:ev="http://www.w3.org/2001/xml-events" xmlns:xlink="http://www.w3.org/1999/xlink">
	<defs/>
	<path d="M 0.0,0.0 L 128.0,0.0 L 128.0,128.0 L 0.0,128.0 L 0.0,0.0" fill="#FBFBFB"/>
	<path d="M 0.0,0.0 L 128.0,0.0 L 128.0,66.0 L 126.0,63.0 L 122.0,57.0 L 116.0,51.0 L 113.0,41.0 L 106.0,33.0 L 97.0,29.0 L 87.0,28.0 L 78.0,20.0 L 69.0,17.0 L 58.0,17.0 L 50.0,20.0 L 42.0,27.0 L 36.0,38.0 L 29.0,43.0 L 26.0,48.0 L 15.0,50.0 L 9.0,54.0 L 3.0,61.0 L 1.0,66.0 L 0.0,66.0 L 0.0,0.0" fill="#FCFCFC"/>
	<path d="M 58.0,16.0 L 69.0,16.0 L 78.0,19.0 L 87.0,27.0 L 100.0,29.0 L 107.0,33.0 L 114.0,41.0 L 117.0,51.0 L 125.0,59.0 L 128.0,66.0 L 128.0,77.0 L 124.0,86.0 L 117.0,93.0 L 109.0,96.0 L 88.0,96.0 L 88.0,88.0 L 107.0,87.0 L 115.0,83.0 L 119.0,75.0 L 119.0,67.0 L 114.0,60.0 L 108.0,57.0 L 107.0,47.0 L 102.0,40.0 L 97.0,37.0 L 88.0,37.0 L 83.0,38.0 L 77.0,29.0 L 68.0,25.0 L 59.0,25.0 L 50.0,30.0 L 46.0,36.0 L 44.0,44.0 L 37.0,47.0 L 33.0,52.0 L 32.0,57.0 L 19.0,57.0 L 13.0,61.0 L 9.0,67.0 L 9.0,76.0 L 13.0,83.0 L 19.0,87.0 L 48.0,88.0 L 48.0,96.0 L 18.0,96.0 L 10.0,92.0 L 2.0,83.0 L 0.0,77.0 L 0.0,66.0 L 4.0,58.0 L 11.0,51.0 L 18.0,48.0 L 26.0,48.0 L 28.0,43.0 L 36.0,37.0 L 41.0,27.0 L 50.0,19.0 L 58.0,16.0" fill="#060606"/>
	<path d="M 57.0,90.0 L 60.0,90.0 L 62.0,98.0 L 67.0,93.0 L 71.0,95.0 L 73.0,97.0 L 72.0,101.0 L 68.0,104.0 L 75.0,107.0 L 74.0,115.0 L 65.0,113.0 L 67.0,121.0 L 63.0,123.0 L 59.0,123.0 L 57.0,116.0 L 52.0,120.0 L 48.0,119.0 L 45.0,116.0 L 47.0,112.0 L 51.0,110.0 L 51.0,108.0 L 44.0,107.0 L 43.0,103.0 L 44.0,99.0 L 53.0,100.0 L 52.0,92.0 L 57.0,90.0" fill="#0A0A0A"/>
</svg>
