<?xml version="1.0" ?>
<svg baseProfile="full" height="600px" version="1.1" viewBox="-20.1 -20.1 240.2 240.2" width="600px" xmlns="http://www.w3.org/2000/svg" xmlns:ev="http://www.w3.org/2001/xml-events" xmlns:xlink="http://www.w3.org/1999/xlink">
	<defs/>
	<path d="M 0.0,0.0 L 200.0,0.0 L 200.0,200.0 L 0.0,200.0 L 0.0,0.0" fill="#FDFDFD"/>
	<path d="M 90.0,36.0 L 109.0,36.0 L 122.0,40.0 L 133.0,46.0 L 143.0,55.0 L 150.0,66.0 L 155.0,78.0 L 156.0,86.0 L 156.0,100.0 L 153.0,112.0 L 145.0,128.0 L 134.0,141.0 L 127.0,149.0 L 125.0,152.0 L 124.0,179.0 L 121.0,185.0 L 115.0,188.0 L 107.0,190.0 L 103.0,192.0 L 96.0,192.0 L 91.0,189.0 L 82.0,187.0 L 77.0,182.0 L 76.0,179.0 L 75.0,152.0 L 68.0,143.0 L 58.0,132.0 L 50.0,119.0 L 45.0,106.0 L 44.0,101.0 L 44.0,86.0 L 46.0,75.0 L 54.0,59.0 L 63.0,49.0 L 74.0,42.0 L 86.0,37.0 L 90.0,36.0" fill="#FCFCFC"/>
	<path d="M 90.0,36.0 L 109.0,36.0 L 122.0,40.0 L 133.0,46.0 L 143.0,55.0 L 150.0,66.0 L 155.0,78.0 L 156.0,86.0 L 156.0,100.0 L 153.0,112.0 L 145.0,128.0 L 134.0,141.0 L 127.0,149.0 L 125.0,152.0 L 124.0,179.0 L 121.0,185.0 L 115.0,188.0 L 107.0,190.0 L 103.0,192.0 L 96.0,192.0 L 91.0,189.0 L 82.0,187.0 L 77.0,182.0 L 76.0,179.0 L 75.0,152.0 L 68.0,143.0 L 58.0,132.0 L 50.0,119.0 L 45.0,106.0 L 44.0,101.0 L 44.0,86.0 L 46.0,75.0 L 54.0,59.0 L 63.0,49.0 L 74.0,42.0 L 86.0,37.0 L 90.0,36.0 M 93.0,44.0 L 80.0,48.0 L 70.0,54.0 L 61.0,63.0 L 54.0,77.0 L 52.0,85.0 L 52.0,102.0 L 57.0,115.0 L 64.0,126.0 L 74.0,137.0 L 81.0,147.0 L 83.0,152.0 L 117.0,152.0 L 122.0,142.0 L 133.0,130.0 L 141.0,119.0 L 145.0,111.0 L 147.0,106.0 L 148.0,99.0 L 148.0,84.0 L 145.0,74.0 L 139.0,63.0 L 129.0,53.0 L 116.0,46.0 L 106.0,44.0 L 93.0,44.0" fill="#060606"/>
	<path d="M 84.0,160.0 L 116.0,160.0 L 116.0,168.0 L 94.0,169.0 L 93.0,174.0 L 94.0,175.0 L 116.0,176.0 L 114.0,180.0 L 86.0,180.0 L 84.0,176.0 L 87.0,174.0 L 86.0,169.0 L 84.0,168.0 L 84.0,160.0" fill="#FBFBFB"/>
</svg>
