<?xml version="1.0" ?>
<svg baseProfile="full" height="600px" version="1.1" viewBox="-19.296000000000003 -19.296000000000003 230.592 230.592" width="600px" xmlns="http://www.w3.org/2000/svg" xmlns:ev="http://www.w3.org/2001/xml-events" xmlns:xlink="http://www.w3.org/1999/xlink">
	<defs/>
	<path d="M 0.0,0.0 L 192.0,0.0 L 192.0,192.0 L 0.0,192.0 L 0.0,0.0" fill="#FDFEFE"/>
	<path d="M 112.0,20.0 L 123.0,20.0 L 133.0,23.0 L 142.0,29.0 L 148.0,37.0 L 152.0,47.0 L 152.0,60.0 L 161.0,62.0 L 169.0,68.0 L 175.0,78.0 L 176.0,81.0 L 176.0,92.0 L 173.0,101.0 L 167.0,109.0 L 157.0,115.0 L 154.0,116.0 L 38.0,116.0 L 30.0,113.0 L 21.0,105.0 L 17.0,98.0 L 16.0,93.0 L 16.0,82.0 L 20.0,73.0 L 27.0,65.0 L 35.0,61.0 L 44.0,60.0 L 44.0,52.0 L 49.0,42.0 L 57.0,35.0 L 64.0,32.0 L 75.0,32.0 L 85.0,36.0 L 87.0,38.0 L 96.0,28.0 L 101.0,24.0 L 107.0,21.0 L 112.0,20.0" fill="#BADEFB"/>
	<path d="M 82.0,177.0 L 87.0,178.0 L 88.0,183.0 L 86.0,185.0 L 80.0,184.0 L 80.0,179.0 L 82.0,177.0" fill="#339FF4"/>
	<path d="M 58.0,177.0 L 63.0,178.0 L 64.0,183.0 L 62.0,185.0 L 56.0,184.0 L 56.0,179.0 L 58.0,177.0" fill="#339FF4"/>
	<path d="M 86.0,165.0 L 91.0,166.0 L 92.0,171.0 L 90.0,173.0 L 84.0,172.0 L 84.0,167.0 L 86.0,165.0" fill="#339FF4"/>
	<path d="M 62.0,165.0 L 67.0,166.0 L 68.0,171.0 L 66.0,173.0 L 60.0,172.0 L 60.0,167.0 L 62.0,165.0" fill="#339FF4"/>
	<path d="M 90.0,153.0 L 95.0,154.0 L 96.0,159.0 L 94.0,161.0 L 88.0,160.0 L 88.0,155.0 L 90.0,153.0" fill="#339FF4"/>
	<path d="M 66.0,153.0 L 71.0,154.0 L 72.0,159.0 L 70.0,161.0 L 64.0,160.0 L 64.0,155.0 L 66.0,153.0" fill="#339FF4"/>
	<path d="M 94.0,141.0 L 99.0,142.0 L 100.0,147.0 L 98.0,149.0 L 92.0,148.0 L 92.0,143.0 L 94.0,141.0" fill="#339FF4"/>
	<path d="M 70.0,141.0 L 75.0,142.0 L 76.0,147.0 L 74.0,149.0 L 68.0,148.0 L 68.0,143.0 L 70.0,141.0" fill="#339FF4"/>
	<path d="M 96.0,133.0 L 104.0,133.0 L 102.0,137.0 L 96.0,136.0 L 96.0,133.0" fill="#339FF4"/>
	<path d="M 72.0,133.0 L 80.0,133.0 L 78.0,137.0 L 72.0,136.0 L 72.0,133.0" fill="#339FF4"/>
	<path d="M 78.0,189.0 L 83.0,190.0 L 83.0,192.0 L 76.0,192.0 L 78.0,189.0" fill="#2F9DF4"/>
	<path d="M 54.0,189.0 L 59.0,190.0 L 59.0,192.0 L 52.0,192.0 L 54.0,189.0" fill="#2F9DF4"/>
</svg>
