<?xml version="1.0" ?>
<svg baseProfile="full" height="600px" version="1.1" viewBox="-20.1 -20.1 240.2 240.2" width="600px" xmlns="http://www.w3.org/2000/svg" xmlns:ev="http://www.w3.org/2001/xml-events" xmlns:xlink="http://www.w3.org/1999/xlink">
	<defs/>
	<path d="M 0.0,0.0 L 200.0,0.0 L 200.0,200.0 L 0.0,200.0 L 0.0,0.0" fill="#FDFDFD"/>
	<path d="M 140.0,0.0 L 200.0,0.0 L 200.0,200.0 L 66.0,200.0 L 73.0,189.0 L 88.0,166.0 L 107.0,137.0 L 126.0,108.0 L 143.0,82.0 L 142.0,77.0 L 110.0,76.0 L 120.0,53.0 L 138.0,13.0 L 141.0,6.0 L 140.0,0.0" fill="#FDFDFD"/>
	<path d="M 99.0,0.0 L 140.0,0.0 L 142.0,2.0 L 141.0,8.0 L 128.0,37.0 L 111.0,75.0 L 142.0,76.0 L 144.0,78.0 L 143.0,84.0 L 127.0,108.0 L 108.0,137.0 L 89.0,166.0 L 70.0,195.0 L 66.0,200.0 L 61.0,199.0 L 60.0,198.0 L 61.0,190.0 L 89.0,106.0 L 90.0,104.0 L 58.0,104.0 L 56.0,102.0 L 57.0,95.0 L 73.0,57.0 L 88.0,21.0 L 96.0,2.0 L 99.0,0.0" fill="#070707"/>
	<path d="M 102.0,8.0 L 132.0,8.0 L 122.0,31.0 L 103.0,73.0 L 101.0,78.0 L 102.0,83.0 L 132.0,84.0 L 130.0,89.0 L 116.0,110.0 L 97.0,139.0 L 82.0,162.0 L 79.0,165.0 L 81.0,156.0 L 99.0,102.0 L 98.0,97.0 L 66.0,96.0 L 72.0,80.0 L 91.0,35.0 L 102.0,8.0" fill="#FAFAFA"/>
</svg>
