<?xml version="1.0" ?>
<svg baseProfile="full" height="600px" version="1.1" viewBox="-20.1 -20.1 240.2 240.2" width="600px" xmlns="http://www.w3.org/2000/svg" xmlns:ev="http://www.w3.org/2001/xml-events" xmlns:xlink="http://www.w3.org/1999/xlink">
	<defs/>
	<path d="M 0.0,0.0 L 200.0,0.0 L 200.0,200.0 L 0.0,200.0 L 0.0,0.0" fill="#FDFDFD"/>
	<path d="M 82.0,16.0 L 95.0,16.0 L 104.0,18.0 L 114.0,23.0 L 124.0,32.0 L 130.0,43.0 L 130.0,46.0 L 136.0,44.0 L 149.0,44.0 L 158.0,46.0 L 166.0,50.0 L 176.0,59.0 L 181.0,67.0 L 184.0,76.0 L 184.0,90.0 L 182.0,98.0 L 176.0,109.0 L 169.0,116.0 L 160.0,121.0 L 156.0,123.0 L 150.0,124.0 L 138.0,124.0 L 136.0,122.0 L 137.0,117.0 L 138.0,116.0 L 153.0,114.0 L 165.0,108.0 L 171.0,100.0 L 175.0,91.0 L 175.0,77.0 L 171.0,68.0 L 165.0,60.0 L 153.0,54.0 L 150.0,53.0 L 139.0,53.0 L 130.0,56.0 L 124.0,58.0 L 122.0,47.0 L 117.0,38.0 L 112.0,33.0 L 107.0,29.0 L 96.0,25.0 L 83.0,25.0 L 73.0,29.0 L 63.0,38.0 L 58.0,48.0 L 57.0,51.0 L 56.0,69.0 L 42.0,69.0 L 34.0,73.0 L 27.0,81.0 L 25.0,86.0 L 25.0,97.0 L 30.0,107.0 L 37.0,113.0 L 42.0,115.0 L 54.0,116.0 L 56.0,118.0 L 55.0,123.0 L 54.0,124.0 L 41.0,124.0 L 32.0,120.0 L 24.0,114.0 L 19.0,107.0 L 16.0,97.0 L 16.0,85.0 L 20.0,76.0 L 26.0,68.0 L 35.0,62.0 L 41.0,60.0 L 48.0,60.0 L 48.0,50.0 L 52.0,39.0 L 59.0,29.0 L 66.0,23.0 L 78.0,17.0 L 82.0,16.0" fill="#080808"/>
</svg>
