<?xml version="1.0" ?>
<svg baseProfile="full" height="600px" version="1.1" viewBox="-19.296000000000003 -19.296000000000003 230.592 230.592" width="600px" xmlns="http://www.w3.org/2000/svg" xmlns:ev="http://www.w3.org/2001/xml-events" xmlns:xlink="http://www.w3.org/1999/xlink">
	<defs/>
	<path d="M 0.0,0.0 L 192.0,0.0 L 192.0,192.0 L 0.0,192.0 L 0.0,0.0" fill="#FEFDFD"/>
	<path d="M 88.0,24.0 L 105.0,24.0 L 113.0,26.0 L 123.0,30.0 L 133.0,36.0 L 141.0,44.0 L 148.0,55.0 L 152.0,65.0 L 153.0,70.0 L 153.0,89.0 L 151.0,99.0 L 144.0,112.0 L 135.0,122.0 L 126.0,129.0 L 122.0,137.0 L 121.0,140.0 L 86.0,140.0 L 72.0,139.0 L 68.0,129.0 L 53.0,115.0 L 47.0,105.0 L 43.0,96.0 L 42.0,91.0 L 42.0,68.0 L 46.0,57.0 L 51.0,48.0 L 60.0,38.0 L 69.0,31.0 L 80.0,26.0 L 88.0,24.0" fill="#FBC02F"/>
	<path d="M 85.0,64.0 L 91.0,65.0 L 98.0,69.0 L 107.0,64.0 L 111.0,65.0 L 121.0,73.0 L 122.0,74.0 L 121.0,81.0 L 111.0,95.0 L 109.0,98.0 L 108.0,140.0 L 86.0,140.0 L 85.0,97.0 L 78.0,86.0 L 73.0,79.0 L 73.0,73.0 L 85.0,64.0" fill="#FEF298"/>
	<path d="M 72.0,139.0 L 121.0,140.0 L 121.0,153.0 L 120.0,166.0 L 115.0,173.0 L 108.0,176.0 L 105.0,181.0 L 99.0,184.0 L 92.0,184.0 L 85.0,178.0 L 85.0,175.0 L 80.0,174.0 L 75.0,170.0 L 72.0,163.0 L 72.0,139.0" fill="#9CA5D8"/>
	<path d="M 86.0,74.0 L 91.0,75.0 L 95.0,78.0 L 100.0,78.0 L 106.0,74.0 L 110.0,75.0 L 112.0,79.0 L 101.0,95.0 L 100.0,140.0 L 94.0,140.0 L 93.0,93.0 L 83.0,78.0 L 83.0,76.0 L 86.0,74.0" fill="#FAC02F"/>
	<path d="M 112.0,162.0 L 120.0,162.0 L 119.0,168.0 L 115.0,173.0 L 108.0,176.0 L 105.0,181.0 L 99.0,184.0 L 92.0,184.0 L 85.0,178.0 L 85.0,175.0 L 80.0,174.0 L 75.0,170.0 L 75.0,167.0 L 105.0,163.0 L 112.0,162.0" fill="#606EC1"/>
	<path d="M 72.0,139.0 L 121.0,140.0 L 121.0,153.0 L 120.0,153.0 L 120.0,146.0 L 100.0,149.0 L 77.0,152.0 L 72.0,152.0 L 72.0,139.0" fill="#9FA7D6"/>
	<path d="M 116.0,146.0 L 120.0,146.0 L 120.0,154.0 L 76.0,160.0 L 73.0,160.0 L 73.0,152.0 L 90.0,149.0 L 116.0,146.0" fill="#5E6DC1"/>
	<path d="M 106.0,171.0 L 116.0,171.0 L 113.0,174.0 L 108.0,176.0 L 105.0,181.0 L 99.0,184.0 L 92.0,184.0 L 85.0,178.0 L 85.0,175.0 L 81.0,174.0 L 106.0,171.0" fill="#616FC2"/>
	<path d="M 106.0,171.0 L 116.0,171.0 L 113.0,174.0 L 108.0,176.0 L 86.0,176.0 L 85.0,178.0 L 85.0,175.0 L 81.0,174.0 L 106.0,171.0" fill="#9BA4D8"/>
	<path d="M 101.0,134.0 L 108.0,134.0 L 108.0,140.0 L 100.0,140.0 L 100.0,135.0 L 101.0,134.0" fill="#FEF49C"/>
	<path d="M 93.0,123.0 L 94.0,123.0 L 94.0,140.0 L 86.0,140.0 L 87.0,136.0 L 92.0,136.0 L 93.0,123.0" fill="#FDEE90"/>
</svg>
