<?xml version="1.0" ?>
<svg baseProfile="full" height="600px" version="1.1" viewBox="-20.1 -20.1 240.2 240.2" width="600px" xmlns="http://www.w3.org/2000/svg" xmlns:ev="http://www.w3.org/2001/xml-events" xmlns:xlink="http://www.w3.org/1999/xlink">
	<defs/>
	<path d="M 0.0,0.0 L 200.0,0.0 L 200.0,200.0 L 0.0,200.0 L 0.0,0.0" fill="#FDFDFD"/>
	<path d="M 140.0,0.0 L 200.0,0.0 L 200.0,200.0 L 66.0,200.0 L 68.0,196.0 L 79.0,179.0 L 98.0,150.0 L 117.0,121.0 L 136.0,92.0 L 142.0,83.0 L 142.0,78.0 L 141.0,77.0 L 111.0,76.0 L 112.0,71.0 L 129.0,33.0 L 140.0,8.0 L 140.0,0.0" fill="#FDFDFD"/>
	<path d="M 100.0,1.0 L 139.0,1.0 L 141.0,3.0 L 140.0,10.0 L 128.0,37.0 L 112.0,73.0 L 111.0,76.0 L 141.0,76.0 L 143.0,78.0 L 143.0,83.0 L 125.0,110.0 L 111.0,132.0 L 99.0,150.0 L 80.0,179.0 L 68.0,197.0 L 66.0,199.0 L 62.0,198.0 L 61.0,197.0 L 62.0,188.0 L 90.0,104.0 L 59.0,104.0 L 57.0,102.0 L 58.0,94.0 L 75.0,54.0 L 94.0,8.0 L 98.0,2.0 L 100.0,1.0" fill="#070707"/>
	<path d="M 103.0,9.0 L 131.0,9.0 L 130.0,13.0 L 114.0,49.0 L 101.0,78.0 L 102.0,83.0 L 132.0,84.0 L 127.0,93.0 L 117.0,108.0 L 98.0,137.0 L 80.0,164.0 L 79.0,162.0 L 99.0,102.0 L 98.0,97.0 L 67.0,96.0 L 70.0,86.0 L 87.0,46.0 L 102.0,10.0 L 103.0,9.0" fill="#F9F9F9"/>
</svg>
