<?xml version="1.0" ?>
<svg baseProfile="full" height="600px" version="1.1" viewBox="-19.296000000000003 -19.296000000000003 230.592 230.592" width="600px" xmlns="http://www.w3.org/2000/svg" xmlns:ev="http://www.w3.org/2001/xml-events" xmlns:xlink="http://www.w3.org/1999/xlink">
	<defs/>
	<path d="M 0.0,0.0 L 192.0,0.0 L 192.0,192.0 L 0.0,192.0 L 0.0,0.0" fill="#FDFEFE"/>
	<path d="M 112.0,24.0 L 123.0,24.0 L 133.0,27.0 L 142.0,33.0 L 149.0,43.0 L 152.0,51.0 L 152.0,64.0 L 161.0,66.0 L 169.0,72.0 L 175.0,82.0 L 176.0,85.0 L 176.0,96.0 L 173.0,105.0 L 167.0,113.0 L 158.0,118.0 L 152.0,120.0 L 84.0,120.0 L 84.0,122.0 L 82.0,122.0 L 80.0,126.0 L 78.0,129.0 L 88.0,130.0 L 88.0,138.0 L 77.0,138.0 L 80.0,145.0 L 79.0,149.0 L 73.0,151.0 L 69.0,142.0 L 63.0,149.0 L 58.0,147.0 L 56.0,144.0 L 61.0,137.0 L 52.0,135.0 L 52.0,127.0 L 63.0,128.0 L 60.0,122.0 L 60.0,120.0 L 38.0,120.0 L 29.0,116.0 L 21.0,109.0 L 17.0,100.0 L 16.0,97.0 L 16.0,86.0 L 20.0,77.0 L 27.0,69.0 L 35.0,65.0 L 44.0,64.0 L 44.0,56.0 L 49.0,46.0 L 57.0,39.0 L 64.0,36.0 L 75.0,36.0 L 85.0,40.0 L 87.0,42.0 L 94.0,33.0 L 103.0,27.0 L 112.0,24.0" fill="#BBDEFB"/>
	<path d="M 60.0,120.0 L 69.0,120.0 L 70.0,124.0 L 72.0,124.0 L 74.0,120.0 L 83.0,120.0 L 81.0,125.0 L 78.0,129.0 L 88.0,130.0 L 88.0,138.0 L 77.0,138.0 L 80.0,145.0 L 79.0,149.0 L 73.0,151.0 L 69.0,142.0 L 63.0,149.0 L 58.0,147.0 L 56.0,144.0 L 61.0,137.0 L 52.0,135.0 L 52.0,127.0 L 63.0,128.0 L 60.0,122.0 L 60.0,120.0" fill="#2799F3"/>
</svg>
