<?xml version="1.0" ?>
<svg baseProfile="full" height="600px" version="1.1" viewBox="-16.08 -16.08 192.16 192.16" width="600px" xmlns="http://www.w3.org/2000/svg" xmlns:ev="http://www.w3.org/2001/xml-events" xmlns:xlink="http://www.w3.org/1999/xlink">
	<defs/>
	<path d="M 0.0,0.0 L 160.0,0.0 L 160.0,160.0 L 0.0,160.0 L 0.0,0.0" fill="#FDFDFC"/>
	<path d="M 74.0,4.0 L 87.0,4.0 L 97.0,6.0 L 109.0,12.0 L 119.0,21.0 L 125.0,31.0 L 129.0,41.0 L 129.0,61.0 L 126.0,71.0 L 118.0,86.0 L 109.0,100.0 L 106.0,108.0 L 104.0,140.0 L 101.0,145.0 L 92.0,150.0 L 87.0,155.0 L 83.0,156.0 L 76.0,156.0 L 70.0,152.0 L 68.0,148.0 L 62.0,147.0 L 57.0,141.0 L 56.0,139.0 L 55.0,105.0 L 48.0,91.0 L 39.0,76.0 L 34.0,63.0 L 34.0,42.0 L 37.0,33.0 L 43.0,22.0 L 51.0,14.0 L 63.0,7.0 L 74.0,4.0" fill="#FDECA2"/>
	<path d="M 74.0,4.0 L 87.0,4.0 L 97.0,6.0 L 109.0,12.0 L 119.0,21.0 L 125.0,31.0 L 129.0,41.0 L 129.0,61.0 L 126.0,71.0 L 118.0,86.0 L 109.0,100.0 L 106.0,108.0 L 104.0,140.0 L 101.0,145.0 L 92.0,150.0 L 87.0,155.0 L 83.0,156.0 L 76.0,156.0 L 70.0,152.0 L 68.0,148.0 L 62.0,147.0 L 57.0,141.0 L 56.0,139.0 L 55.0,105.0 L 48.0,91.0 L 39.0,76.0 L 34.0,63.0 L 34.0,42.0 L 37.0,33.0 L 43.0,22.0 L 51.0,14.0 L 63.0,7.0 L 74.0,4.0 M 75.0,8.0 L 62.0,12.0 L 52.0,19.0 L 44.0,28.0 L 39.0,38.0 L 38.0,43.0 L 38.0,60.0 L 41.0,70.0 L 48.0,84.0 L 56.0,97.0 L 59.0,104.0 L 60.0,112.0 L 101.0,112.0 L 104.0,101.0 L 112.0,87.0 L 120.0,74.0 L 124.0,65.0 L 125.0,60.0 L 125.0,45.0 L 123.0,37.0 L 118.0,27.0 L 109.0,17.0 L 100.0,12.0 L 93.0,9.0 L 88.0,8.0 L 75.0,8.0" fill="#8E79A2"/>
	<path d="M 67.0,41.0 L 76.0,42.0 L 82.0,46.0 L 87.0,42.0 L 97.0,42.0 L 102.0,46.0 L 104.0,50.0 L 104.0,57.0 L 95.0,67.0 L 94.0,68.0 L 93.0,112.0 L 68.0,112.0 L 68.0,67.0 L 61.0,60.0 L 59.0,57.0 L 59.0,49.0 L 62.0,44.0 L 67.0,41.0" fill="#FDECA3"/>
	<path d="M 74.0,4.0 L 87.0,4.0 L 97.0,6.0 L 109.0,12.0 L 119.0,21.0 L 125.0,31.0 L 129.0,41.0 L 129.0,61.0 L 126.0,71.0 L 118.0,86.0 L 109.0,100.0 L 106.0,108.0 L 105.0,112.0 L 101.0,112.0 L 102.0,103.0 L 108.0,92.0 L 119.0,74.0 L 123.0,65.0 L 124.0,60.0 L 124.0,45.0 L 122.0,37.0 L 117.0,27.0 L 109.0,18.0 L 100.0,13.0 L 93.0,10.0 L 88.0,9.0 L 75.0,9.0 L 62.0,13.0 L 52.0,20.0 L 45.0,28.0 L 40.0,38.0 L 39.0,43.0 L 39.0,60.0 L 42.0,70.0 L 49.0,84.0 L 57.0,97.0 L 60.0,104.0 L 60.0,112.0 L 57.0,112.0 L 53.0,100.0 L 39.0,76.0 L 34.0,63.0 L 34.0,42.0 L 37.0,33.0 L 43.0,22.0 L 51.0,14.0 L 63.0,7.0 L 74.0,4.0" fill="#BEA050"/>
	<path d="M 67.0,41.0 L 76.0,42.0 L 82.0,46.0 L 87.0,42.0 L 97.0,42.0 L 102.0,46.0 L 104.0,50.0 L 104.0,57.0 L 95.0,67.0 L 94.0,68.0 L 93.0,112.0 L 89.0,112.0 L 89.0,66.0 L 98.0,57.0 L 99.0,51.0 L 96.0,47.0 L 88.0,47.0 L 81.0,53.0 L 73.0,46.0 L 66.0,47.0 L 64.0,50.0 L 64.0,56.0 L 73.0,65.0 L 73.0,112.0 L 68.0,112.0 L 68.0,67.0 L 61.0,60.0 L 59.0,57.0 L 59.0,49.0 L 62.0,44.0 L 67.0,41.0" fill="#FEFDF9"/>
	<path d="M 60.0,132.0 L 100.0,132.0 L 100.0,136.0 L 60.0,136.0 L 60.0,132.0" fill="#D7CFED"/>
	<path d="M 60.0,124.0 L 100.0,124.0 L 100.0,128.0 L 60.0,128.0 L 60.0,124.0" fill="#D6CFEC"/>
	<path d="M 61.0,116.0 L 101.0,116.0 L 101.0,120.0 L 61.0,120.0 L 61.0,116.0" fill="#D6CEEC"/>
	<path d="M 68.0,148.0 L 92.0,148.0 L 91.0,152.0 L 87.0,155.0 L 83.0,156.0 L 76.0,156.0 L 70.0,152.0 L 68.0,148.0" fill="#333A45"/>
	<path d="M 62.0,140.0 L 99.0,140.0 L 95.0,144.0 L 66.0,144.0 L 62.0,140.0" fill="#D7CFED"/>
	<path d="M 25.0,72.0 L 29.0,72.0 L 28.0,76.0 L 24.0,78.0 L 20.0,77.0 L 21.0,74.0 L 25.0,72.0" fill="#BFA256"/>
	<path d="M 136.0,26.0 L 140.0,27.0 L 139.0,30.0 L 135.0,32.0 L 131.0,32.0 L 132.0,28.0 L 136.0,26.0" fill="#BFA256"/>
	<path d="M 39.0,90.0 L 42.0,91.0 L 42.0,94.0 L 37.0,98.0 L 34.0,98.0 L 35.0,94.0 L 39.0,90.0" fill="#BFA356"/>
	<path d="M 136.0,50.0 L 144.0,50.0 L 144.0,54.0 L 136.0,54.0 L 136.0,50.0" fill="#BC9E4D"/>
	<path d="M 16.0,50.0 L 24.0,50.0 L 24.0,54.0 L 16.0,54.0 L 16.0,50.0" fill="#BC9E4D"/>
	<path d="M 123.0,6.0 L 126.0,6.0 L 125.0,10.0 L 122.0,14.0 L 118.0,13.0 L 120.0,9.0 L 123.0,6.0" fill="#BFA357"/>
	<path d="M 119.0,90.0 L 123.0,92.0 L 126.0,95.0 L 126.0,98.0 L 122.0,97.0 L 118.0,93.0 L 119.0,90.0" fill="#BEA153"/>
	<path d="M 34.0,6.0 L 38.0,7.0 L 42.0,11.0 L 41.0,14.0 L 37.0,12.0 L 34.0,9.0 L 34.0,6.0" fill="#BEA153"/>
	<path d="M 133.0,72.0 L 139.0,74.0 L 139.0,78.0 L 134.0,77.0 L 132.0,76.0 L 133.0,72.0" fill="#C1A55B"/>
</svg>
