<?xml version="1.0" ?>
<svg baseProfile="full" height="600px" version="1.1" viewBox="-19.296000000000003 -19.296000000000003 230.592 230.592" width="600px" xmlns="http://www.w3.org/2000/svg" xmlns:ev="http://www.w3.org/2001/xml-events" xmlns:xlink="http://www.w3.org/1999/xlink">
	<defs/>
	<path d="M 0.0,0.0 L 192.0,0.0 L 192.0,192.0 L 0.0,192.0 L 0.0,0.0" fill="#FDFDFE"/>
	<path d="M 110.0,24.0 L 127.0,24.0 L 140.0,29.0 L 147.0,35.0 L 153.0,44.0 L 154.0,47.0 L 154.0,62.0 L 162.0,63.0 L 171.0,68.0 L 178.0,77.0 L 180.0,83.0 L 180.0,92.0 L 176.0,102.0 L 172.0,107.0 L 163.0,113.0 L 155.0,115.0 L 102.0,115.0 L 101.0,120.0 L 119.0,120.0 L 117.0,126.0 L 104.0,147.0 L 88.0,174.0 L 86.0,176.0 L 87.0,168.0 L 92.0,150.0 L 96.0,135.0 L 76.0,135.0 L 81.0,116.0 L 36.0,115.0 L 27.0,112.0 L 19.0,106.0 L 14.0,99.0 L 12.0,93.0 L 12.0,84.0 L 16.0,74.0 L 23.0,67.0 L 31.0,63.0 L 34.0,62.0 L 42.0,62.0 L 42.0,54.0 L 45.0,47.0 L 50.0,41.0 L 62.0,35.0 L 72.0,35.0 L 83.0,38.0 L 88.0,41.0 L 90.0,36.0 L 97.0,30.0 L 107.0,25.0 L 110.0,24.0" fill="#BCDDFB"/>
	<path d="M 91.0,83.0 L 114.0,83.0 L 113.0,89.0 L 101.0,120.0 L 119.0,120.0 L 117.0,126.0 L 104.0,147.0 L 88.0,174.0 L 86.0,176.0 L 87.0,168.0 L 92.0,150.0 L 96.0,135.0 L 76.0,135.0 L 83.0,109.0 L 89.0,88.0 L 91.0,83.0" fill="#D504F9"/>
</svg>
