<?xml version="1.0" ?>
<svg baseProfile="full" height="600px" version="1.1" viewBox="-19.296000000000003 -19.296000000000003 230.592 230.592" width="600px" xmlns="http://www.w3.org/2000/svg" xmlns:ev="http://www.w3.org/2001/xml-events" xmlns:xlink="http://www.w3.org/1999/xlink">
	<defs/>
	<path d="M 0.0,0.0 L 192.0,0.0 L 192.0,192.0 L 0.0,192.0 L 0.0,0.0" fill="#FDFEFE"/>
	<path d="M 110.0,22.0 L 127.0,22.0 L 137.0,26.0 L 147.0,35.0 L 152.0,45.0 L 153.0,48.0 L 153.0,61.0 L 160.0,62.0 L 168.0,67.0 L 175.0,75.0 L 177.0,80.0 L 177.0,95.0 L 172.0,105.0 L 165.0,111.0 L 155.0,115.0 L 148.0,116.0 L 102.0,116.0 L 100.0,124.0 L 107.0,123.0 L 118.0,123.0 L 116.0,129.0 L 101.0,156.0 L 92.0,172.0 L 89.0,177.0 L 88.0,174.0 L 96.0,138.0 L 77.0,139.0 L 78.0,130.0 L 82.0,116.0 L 39.0,116.0 L 28.0,112.0 L 20.0,105.0 L 15.0,96.0 L 15.0,80.0 L 21.0,70.0 L 28.0,64.0 L 37.0,61.0 L 43.0,61.0 L 43.0,53.0 L 48.0,43.0 L 56.0,36.0 L 64.0,33.0 L 74.0,33.0 L 84.0,37.0 L 87.0,39.0 L 97.0,28.0 L 106.0,23.0 L 110.0,22.0" fill="#BCDDFB"/>
	<path d="M 96.0,88.0 L 112.0,88.0 L 100.0,124.0 L 107.0,123.0 L 118.0,123.0 L 116.0,129.0 L 101.0,156.0 L 92.0,172.0 L 89.0,177.0 L 88.0,174.0 L 96.0,138.0 L 77.0,139.0 L 78.0,130.0 L 84.0,106.0 L 88.0,89.0 L 96.0,88.0" fill="#EB81FD"/>
	<path d="M 96.0,88.0 L 112.0,88.0 L 103.0,116.0 L 82.0,116.0 L 84.0,106.0 L 88.0,89.0 L 96.0,88.0" fill="#C871FB"/>
</svg>
