<?xml version="1.0" ?>
<svg baseProfile="full" height="600px" version="1.1" viewBox="-20.1 -20.1 240.2 240.2" width="600px" xmlns="http://www.w3.org/2000/svg" xmlns:ev="http://www.w3.org/2001/xml-events" xmlns:xlink="http://www.w3.org/1999/xlink">
	<defs/>
	<path d="M 0.0,0.0 L 200.0,0.0 L 200.0,200.0 L 0.0,200.0 L 0.0,0.0" fill="#FDFDFD"/>
	<path d="M 114.0,6.0 L 136.0,6.0 L 137.0,11.0 L 125.0,42.0 L 111.0,77.0 L 128.0,76.0 L 140.0,76.0 L 142.0,78.0 L 141.0,83.0 L 129.0,104.0 L 120.0,119.0 L 101.0,151.0 L 92.0,166.0 L 75.0,194.0 L 70.0,194.0 L 69.0,193.0 L 70.0,183.0 L 86.0,127.0 L 93.0,104.0 L 85.0,105.0 L 63.0,105.0 L 61.0,103.0 L 62.0,97.0 L 85.0,34.0 L 94.0,10.0 L 97.0,7.0 L 114.0,6.0" fill="#090909"/>
	<path d="M 101.0,14.0 L 127.0,14.0 L 124.0,24.0 L 102.0,79.0 L 103.0,84.0 L 131.0,84.0 L 129.0,89.0 L 113.0,116.0 L 94.0,148.0 L 85.0,163.0 L 84.0,161.0 L 90.0,141.0 L 98.0,113.0 L 101.0,102.0 L 101.0,98.0 L 71.0,97.0 L 72.0,91.0 L 86.0,53.0 L 100.0,15.0 L 101.0,14.0" fill="#F9F9F9"/>
	<path d="M 88.0,153.0 L 89.0,156.0 L 85.0,163.0 L 84.0,161.0 L 87.0,154.0 L 88.0,153.0" fill="#C3C3C3"/>
</svg>
