<?xml version="1.0" ?>
<svg baseProfile="full" height="600px" version="1.1" viewBox="-19.296000000000003 -19.296000000000003 230.592 230.592" width="600px" xmlns="http://www.w3.org/2000/svg" xmlns:ev="http://www.w3.org/2001/xml-events" xmlns:xlink="http://www.w3.org/1999/xlink">
	<defs/>
	<path d="M 0.0,0.0 L 192.0,0.0 L 192.0,192.0 L 0.0,192.0 L 0.0,0.0" fill="#FEFDFD"/>
	<path d="M 95.0,19.0 L 99.0,20.0 L 101.0,24.0 L 106.0,24.0 L 107.0,19.0 L 113.0,19.0 L 114.0,20.0 L 114.0,25.0 L 120.0,26.0 L 121.0,22.0 L 125.0,21.0 L 127.0,23.0 L 128.0,29.0 L 136.0,28.0 L 138.0,30.0 L 139.0,35.0 L 146.0,37.0 L 148.0,44.0 L 154.0,47.0 L 156.0,58.0 L 160.0,59.0 L 161.0,64.0 L 160.0,68.0 L 160.0,71.0 L 165.0,73.0 L 164.0,78.0 L 161.0,79.0 L 163.0,86.0 L 164.0,87.0 L 164.0,92.0 L 160.0,94.0 L 159.0,99.0 L 161.0,101.0 L 160.0,105.0 L 155.0,107.0 L 152.0,112.0 L 150.0,117.0 L 144.0,121.0 L 142.0,123.0 L 140.0,129.0 L 135.0,130.0 L 130.0,131.0 L 124.0,142.0 L 101.0,141.0 L 76.0,138.0 L 72.0,127.0 L 71.0,124.0 L 64.0,124.0 L 62.0,122.0 L 62.0,117.0 L 58.0,111.0 L 54.0,109.0 L 52.0,97.0 L 47.0,96.0 L 47.0,91.0 L 48.0,90.0 L 49.0,83.0 L 46.0,83.0 L 45.0,77.0 L 49.0,76.0 L 50.0,69.0 L 48.0,69.0 L 47.0,64.0 L 52.0,61.0 L 53.0,55.0 L 54.0,50.0 L 60.0,47.0 L 63.0,39.0 L 70.0,36.0 L 72.0,31.0 L 74.0,29.0 L 80.0,30.0 L 82.0,25.0 L 83.0,24.0 L 88.0,24.0 L 92.0,25.0 L 93.0,21.0 L 95.0,19.0" fill="#FBC02E"/>
	<path d="M 75.0,136.0 L 76.0,138.0 L 85.0,138.0 L 101.0,140.0 L 118.0,141.0 L 124.0,142.0 L 122.0,166.0 L 118.0,172.0 L 110.0,177.0 L 103.0,183.0 L 100.0,184.0 L 93.0,184.0 L 87.0,179.0 L 85.0,175.0 L 78.0,171.0 L 74.0,163.0 L 74.0,150.0 L 75.0,136.0" fill="#5E6DC1"/>
	<path d="M 103.0,64.0 L 110.0,64.0 L 113.0,71.0 L 113.0,86.0 L 111.0,106.0 L 109.0,132.0 L 108.0,141.0 L 92.0,140.0 L 92.0,131.0 L 97.0,74.0 L 102.0,65.0 L 103.0,64.0" fill="#FEF39A"/>
	<path d="M 118.0,162.0 L 121.0,162.0 L 121.0,168.0 L 116.0,174.0 L 107.0,179.0 L 103.0,183.0 L 100.0,184.0 L 93.0,184.0 L 87.0,179.0 L 85.0,175.0 L 78.0,171.0 L 75.0,166.0 L 75.0,164.0 L 118.0,162.0" fill="#616FC2"/>
	<path d="M 74.0,150.0 L 75.0,150.0 L 75.0,156.0 L 115.0,154.0 L 123.0,154.0 L 122.0,166.0 L 121.0,162.0 L 118.0,163.0 L 93.0,164.0 L 75.0,164.0 L 74.0,163.0 L 74.0,150.0" fill="#9CA5D8"/>
	<path d="M 75.0,136.0 L 76.0,138.0 L 85.0,138.0 L 101.0,140.0 L 118.0,141.0 L 124.0,142.0 L 124.0,146.0 L 103.0,148.0 L 75.0,149.0 L 75.0,136.0" fill="#9EA7D7"/>
	<path d="M 100.0,171.0 L 118.0,171.0 L 114.0,175.0 L 106.0,180.0 L 103.0,183.0 L 100.0,184.0 L 93.0,184.0 L 87.0,179.0 L 85.0,175.0 L 81.0,172.0 L 100.0,171.0" fill="#9DA6D9"/>
	<path d="M 86.0,175.0 L 107.0,177.0 L 105.0,181.0 L 100.0,184.0 L 93.0,184.0 L 87.0,179.0 L 86.0,175.0" fill="#5F6EC1"/>
	<path d="M 94.0,111.0 L 95.0,111.0 L 96.0,116.0 L 108.0,116.0 L 110.0,115.0 L 110.0,123.0 L 107.0,119.0 L 94.0,119.0 L 94.0,111.0" fill="#FDEE8F"/>
	<path d="M 107.0,19.0 L 113.0,19.0 L 114.0,20.0 L 114.0,25.0 L 107.0,25.0 L 106.0,21.0 L 107.0,19.0" fill="#FEE910"/>
	<path d="M 122.0,21.0 L 126.0,22.0 L 127.0,23.0 L 127.0,29.0 L 120.0,27.0 L 121.0,22.0 L 122.0,21.0" fill="#FEEA11"/>
	<path d="M 95.0,19.0 L 99.0,20.0 L 100.0,25.0 L 92.0,25.0 L 93.0,21.0 L 95.0,19.0" fill="#FEEA11"/>
	<path d="M 94.0,136.0 L 97.0,136.0 L 99.0,138.0 L 106.0,138.0 L 107.0,141.0 L 92.0,140.0 L 94.0,136.0" fill="#F6EB9E"/>
	<path d="M 83.0,24.0 L 88.0,24.0 L 89.0,27.0 L 81.0,30.0 L 82.0,25.0 L 83.0,24.0" fill="#FEE912"/>
	<path d="M 132.0,28.0 L 137.0,29.0 L 138.0,34.0 L 132.0,32.0 L 132.0,28.0" fill="#FEEA1B"/>
	<path d="M 161.0,85.0 L 164.0,87.0 L 164.0,92.0 L 160.0,93.0 L 160.0,86.0 L 161.0,85.0" fill="#FEE711"/>
	<path d="M 158.0,99.0 L 161.0,101.0 L 160.0,105.0 L 155.0,106.0 L 157.0,100.0 L 158.0,99.0" fill="#FEE913"/>
	<path d="M 101.0,70.0 L 112.0,70.0 L 111.0,73.0 L 99.0,73.0 L 99.0,71.0 L 101.0,70.0" fill="#FFF59D"/>
	<path d="M 49.0,62.0 L 52.0,62.0 L 51.0,69.0 L 48.0,69.0 L 47.0,64.0 L 49.0,62.0" fill="#FEE714"/>
	<path d="M 74.0,29.0 L 78.0,30.0 L 78.0,32.0 L 71.0,36.0 L 72.0,31.0 L 74.0,29.0" fill="#FEE920"/>
	<path d="M 46.0,76.0 L 49.0,76.0 L 49.0,83.0 L 46.0,83.0 L 45.0,77.0 L 46.0,76.0" fill="#FEEB0F"/>
	<path d="M 92.0,131.0 L 99.0,132.0 L 101.0,132.0 L 100.0,135.0 L 94.0,135.0 L 92.0,139.0 L 92.0,131.0" fill="#FDEC8C"/>
	<path d="M 48.0,90.0 L 50.0,90.0 L 51.0,97.0 L 47.0,96.0 L 47.0,91.0 L 48.0,90.0" fill="#FEE80C"/>
	<path d="M 161.0,72.0 L 165.0,73.0 L 164.0,78.0 L 161.0,79.0 L 161.0,72.0" fill="#FEEA0B"/>
	<path d="M 140.0,123.0 L 141.0,127.0 L 138.0,130.0 L 134.0,129.0 L 138.0,125.0 L 140.0,125.0 L 140.0,123.0" fill="#FEE81A"/>
	<path d="M 62.0,118.0 L 66.0,120.0 L 68.0,123.0 L 64.0,124.0 L 62.0,122.0 L 62.0,118.0" fill="#FEEA0C"/>
	<path d="M 103.0,64.0 L 110.0,64.0 L 110.0,67.0 L 101.0,67.0 L 103.0,64.0" fill="#FDE884"/>
	<path d="M 95.0,96.0 L 96.0,96.0 L 97.0,104.0 L 101.0,104.0 L 100.0,107.0 L 95.0,106.0 L 95.0,96.0" fill="#FDEA88"/>
	<path d="M 55.0,49.0 L 58.0,49.0 L 56.0,54.0 L 54.0,56.0 L 53.0,51.0 L 55.0,49.0" fill="#FEE90B"/>
	<path d="M 103.0,66.0 L 110.0,66.0 L 110.0,69.0 L 101.0,69.0 L 101.0,67.0 L 103.0,66.0" fill="#FFF59D"/>
	<path d="M 141.0,36.0 L 146.0,37.0 L 146.0,42.0 L 141.0,38.0 L 141.0,36.0" fill="#FEE708"/>
	<path d="M 157.0,58.0 L 161.0,60.0 L 160.0,65.0 L 158.0,64.0 L 157.0,58.0" fill="#FEE90B"/>
	<path d="M 64.0,38.0 L 68.0,39.0 L 62.0,44.0 L 63.0,39.0 L 64.0,38.0" fill="#FEE917"/>
</svg>
