<?xml version="1.0" ?>
<svg baseProfile="full" height="600px" version="1.1" viewBox="-20.1 -20.1 240.2 240.2" width="600px" xmlns="http://www.w3.org/2000/svg" xmlns:ev="http://www.w3.org/2001/xml-events" xmlns:xlink="http://www.w3.org/1999/xlink">
	<defs/>
	<path d="M 0.0,0.0 L 200.0,0.0 L 200.0,200.0 L 0.0,200.0 L 0.0,0.0" fill="#FDFDFD"/>
	<path d="M 83.0,32.0 L 96.0,32.0 L 107.0,36.0 L 117.0,45.0 L 122.0,53.0 L 124.0,61.0 L 124.0,66.0 L 137.0,60.0 L 150.0,60.0 L 162.0,65.0 L 168.0,70.0 L 174.0,80.0 L 176.0,85.0 L 176.0,99.0 L 170.0,111.0 L 166.0,116.0 L 156.0,122.0 L 150.0,124.0 L 42.0,124.0 L 34.0,120.0 L 27.0,112.0 L 24.0,105.0 L 24.0,94.0 L 28.0,86.0 L 37.0,78.0 L 42.0,76.0 L 52.0,76.0 L 57.0,77.0 L 56.0,71.0 L 56.0,59.0 L 60.0,49.0 L 69.0,39.0 L 77.0,34.0 L 83.0,32.0" fill="#FCFCFC"/>
	<path d="M 82.0,24.0 L 95.0,24.0 L 104.0,26.0 L 114.0,31.0 L 123.0,39.0 L 130.0,51.0 L 130.0,54.0 L 136.0,52.0 L 149.0,52.0 L 160.0,55.0 L 170.0,61.0 L 178.0,70.0 L 183.0,80.0 L 184.0,84.0 L 184.0,98.0 L 182.0,106.0 L 176.0,117.0 L 169.0,124.0 L 156.0,131.0 L 150.0,132.0 L 139.0,132.0 L 139.0,136.0 L 146.0,136.0 L 147.0,137.0 L 147.0,142.0 L 145.0,144.0 L 139.0,144.0 L 139.0,150.0 L 137.0,152.0 L 132.0,151.0 L 131.0,144.0 L 125.0,144.0 L 124.0,143.0 L 124.0,137.0 L 125.0,136.0 L 131.0,136.0 L 131.0,132.0 L 41.0,132.0 L 32.0,128.0 L 24.0,122.0 L 18.0,112.0 L 16.0,105.0 L 16.0,93.0 L 20.0,84.0 L 26.0,76.0 L 35.0,70.0 L 41.0,68.0 L 48.0,68.0 L 48.0,58.0 L 52.0,47.0 L 58.0,38.0 L 66.0,31.0 L 78.0,25.0 L 82.0,24.0 M 83.0,32.0 L 73.0,36.0 L 63.0,45.0 L 58.0,53.0 L 56.0,59.0 L 56.0,71.0 L 57.0,77.0 L 52.0,76.0 L 42.0,76.0 L 34.0,80.0 L 26.0,89.0 L 24.0,94.0 L 24.0,105.0 L 29.0,115.0 L 37.0,122.0 L 42.0,124.0 L 150.0,124.0 L 162.0,119.0 L 168.0,114.0 L 174.0,104.0 L 176.0,99.0 L 176.0,85.0 L 170.0,73.0 L 166.0,68.0 L 156.0,62.0 L 150.0,60.0 L 137.0,60.0 L 124.0,66.0 L 123.0,56.0 L 118.0,46.0 L 110.0,38.0 L 102.0,34.0 L 96.0,32.0 L 83.0,32.0" fill="#060606"/>
	<path d="M 35.0,133.0 L 40.0,134.0 L 41.0,139.0 L 39.0,143.0 L 45.0,145.0 L 46.0,150.0 L 44.0,152.0 L 37.0,151.0 L 35.0,150.0 L 34.0,155.0 L 32.0,157.0 L 27.0,156.0 L 26.0,151.0 L 27.0,147.0 L 22.0,144.0 L 22.0,139.0 L 23.0,138.0 L 32.0,139.0 L 34.0,134.0 L 35.0,133.0" fill="#090909"/>
	<path d="M 59.0,172.0 L 64.0,173.0 L 65.0,178.0 L 71.0,178.0 L 72.0,183.0 L 69.0,186.0 L 67.0,186.0 L 66.0,192.0 L 61.0,193.0 L 59.0,191.0 L 59.0,187.0 L 53.0,187.0 L 52.0,186.0 L 52.0,181.0 L 54.0,179.0 L 57.0,179.0 L 57.0,174.0 L 59.0,172.0" fill="#0A0A0A"/>
</svg>
