<?xml version="1.0" ?>
<svg baseProfile="full" height="600px" version="1.1" viewBox="-19.296000000000003 -19.296000000000003 230.592 230.592" width="600px" xmlns="http://www.w3.org/2000/svg" xmlns:ev="http://www.w3.org/2001/xml-events" xmlns:xlink="http://www.w3.org/1999/xlink">
	<defs/>
	<path d="M 0.0,0.0 L 192.0,0.0 L 192.0,192.0 L 0.0,192.0 L 0.0,0.0" fill="#FEFDFC"/>
	<path d="M 88.0,24.0 L 105.0,24.0 L 120.0,29.0 L 130.0,35.0 L 138.0,42.0 L 145.0,52.0 L 150.0,63.0 L 152.0,71.0 L 152.0,88.0 L 150.0,96.0 L 145.0,108.0 L 137.0,119.0 L 129.0,126.0 L 124.0,131.0 L 120.0,140.0 L 72.0,140.0 L 66.0,128.0 L 54.0,118.0 L 47.0,108.0 L 42.0,96.0 L 40.0,89.0 L 40.0,74.0 L 43.0,60.0 L 50.0,47.0 L 58.0,38.0 L 68.0,31.0 L 79.0,26.0 L 88.0,24.0" fill="#FBC02E"/>
	<path d="M 82.0,64.0 L 88.0,65.0 L 95.0,70.0 L 100.0,68.0 L 106.0,64.0 L 112.0,65.0 L 123.0,73.0 L 124.0,74.0 L 124.0,79.0 L 116.0,88.0 L 109.0,97.0 L 108.0,140.0 L 84.0,140.0 L 83.0,97.0 L 72.0,83.0 L 68.0,78.0 L 69.0,73.0 L 82.0,64.0" fill="#FEF298"/>
	<path d="M 72.0,140.0 L 120.0,140.0 L 120.0,165.0 L 116.0,171.0 L 111.0,175.0 L 107.0,177.0 L 102.0,183.0 L 99.0,184.0 L 92.0,184.0 L 85.0,178.0 L 85.0,176.0 L 79.0,174.0 L 73.0,167.0 L 72.0,163.0 L 72.0,140.0" fill="#5E6DC1"/>
	<path d="M 83.0,74.0 L 88.0,75.0 L 94.0,79.0 L 99.0,79.0 L 106.0,74.0 L 111.0,75.0 L 114.0,78.0 L 108.0,85.0 L 101.0,94.0 L 100.0,140.0 L 92.0,140.0 L 91.0,93.0 L 80.0,80.0 L 79.0,77.0 L 83.0,74.0" fill="#FBC231"/>
	<path d="M 116.0,160.0 L 120.0,160.0 L 119.0,167.0 L 113.0,174.0 L 107.0,177.0 L 102.0,183.0 L 99.0,184.0 L 92.0,184.0 L 85.0,178.0 L 85.0,176.0 L 79.0,174.0 L 74.0,169.0 L 74.0,166.0 L 116.0,160.0" fill="#5E6DC1"/>
	<path d="M 115.0,152.0 L 120.0,152.0 L 120.0,160.0 L 111.0,162.0 L 73.0,167.0 L 72.0,159.0 L 73.0,158.0 L 115.0,152.0" fill="#9BA4D8"/>
	<path d="M 72.0,140.0 L 120.0,140.0 L 120.0,144.0 L 111.0,146.0 L 83.0,150.0 L 72.0,150.0 L 72.0,140.0" fill="#9CA5D9"/>
	<path d="M 115.0,168.0 L 118.0,169.0 L 111.0,175.0 L 107.0,177.0 L 102.0,183.0 L 99.0,184.0 L 92.0,184.0 L 85.0,178.0 L 85.0,176.0 L 79.0,174.0 L 79.0,173.0 L 115.0,168.0" fill="#9BA5D8"/>
	<path d="M 85.0,176.0 L 107.0,176.0 L 104.0,181.0 L 99.0,184.0 L 92.0,184.0 L 85.0,178.0 L 85.0,176.0" fill="#606EC1"/>
	<path d="M 161.0,80.0 L 166.0,80.0 L 168.0,82.0 L 167.0,87.0 L 166.0,88.0 L 161.0,88.0 L 160.0,81.0 L 161.0,80.0" fill="#FEEB15"/>
	<path d="M 64.0,15.0 L 69.0,16.0 L 70.0,21.0 L 68.0,23.0 L 63.0,23.0 L 62.0,22.0 L 62.0,17.0 L 64.0,15.0" fill="#FEEB18"/>
	<path d="M 153.0,110.0 L 158.0,111.0 L 159.0,116.0 L 157.0,118.0 L 152.0,118.0 L 151.0,112.0 L 153.0,110.0" fill="#FEEB0F"/>
	<path d="M 50.0,24.0 L 55.0,24.0 L 56.0,25.0 L 56.0,30.0 L 54.0,32.0 L 49.0,31.0 L 48.0,26.0 L 50.0,24.0" fill="#FEEB11"/>
	<path d="M 78.0,10.0 L 83.0,10.0 L 84.0,11.0 L 84.0,16.0 L 82.0,18.0 L 77.0,17.0 L 76.0,12.0 L 78.0,10.0" fill="#FEEB17"/>
	<path d="M 44.0,123.0 L 49.0,123.0 L 50.0,124.0 L 50.0,129.0 L 48.0,131.0 L 43.0,130.0 L 42.0,125.0 L 44.0,123.0" fill="#FEEB16"/>
	<path d="M 35.0,110.0 L 40.0,111.0 L 41.0,116.0 L 39.0,118.0 L 34.0,117.0 L 33.0,112.0 L 35.0,110.0" fill="#FEEA08"/>
	<path d="M 29.0,96.0 L 34.0,97.0 L 35.0,102.0 L 33.0,104.0 L 28.0,103.0 L 27.0,98.0 L 29.0,96.0" fill="#FEEB13"/>
	<path d="M 26.0,80.0 L 31.0,81.0 L 32.0,86.0 L 30.0,88.0 L 25.0,87.0 L 24.0,82.0 L 26.0,80.0" fill="#FEEA0A"/>
	<path d="M 161.0,64.0 L 166.0,65.0 L 167.0,70.0 L 165.0,72.0 L 160.0,71.0 L 159.0,66.0 L 161.0,64.0" fill="#FEEA0B"/>
	<path d="M 27.0,64.0 L 32.0,65.0 L 33.0,70.0 L 31.0,72.0 L 26.0,71.0 L 25.0,66.0 L 27.0,64.0" fill="#FEEB11"/>
	<path d="M 94.0,8.0 L 99.0,9.0 L 100.0,14.0 L 98.0,16.0 L 93.0,15.0 L 92.0,10.0 L 94.0,8.0" fill="#FEEA0D"/>
	<path d="M 138.0,24.0 L 143.0,25.0 L 144.0,30.0 L 142.0,32.0 L 137.0,31.0 L 136.0,26.0 L 138.0,24.0" fill="#FEEB11"/>
	<path d="M 40.0,35.0 L 45.0,36.0 L 45.0,42.0 L 44.0,43.0 L 39.0,43.0 L 38.0,42.0 L 38.0,37.0 L 40.0,35.0" fill="#FEEB0E"/>
	<path d="M 143.0,123.0 L 148.0,123.0 L 150.0,125.0 L 149.0,129.0 L 148.0,130.0 L 143.0,130.0 L 142.0,129.0 L 142.0,124.0 L 143.0,123.0" fill="#FEEA0E"/>
	<path d="M 159.0,96.0 L 164.0,96.0 L 165.0,97.0 L 165.0,102.0 L 164.0,103.0 L 159.0,103.0 L 157.0,101.0 L 158.0,97.0 L 159.0,96.0" fill="#FFEA09"/>
	<path d="M 157.0,49.0 L 161.0,50.0 L 162.0,51.0 L 162.0,56.0 L 161.0,57.0 L 156.0,57.0 L 155.0,56.0 L 155.0,51.0 L 157.0,49.0" fill="#FEEB0E"/>
	<path d="M 31.0,49.0 L 36.0,49.0 L 37.0,50.0 L 37.0,55.0 L 35.0,57.0 L 31.0,56.0 L 30.0,55.0 L 30.0,50.0 L 31.0,49.0" fill="#FEEA0B"/>
	<path d="M 149.0,35.0 L 153.0,36.0 L 154.0,37.0 L 154.0,42.0 L 153.0,43.0 L 148.0,43.0 L 147.0,42.0 L 147.0,37.0 L 149.0,35.0" fill="#FEEA0C"/>
	<path d="M 109.0,10.0 L 114.0,10.0 L 115.0,11.0 L 115.0,16.0 L 113.0,18.0 L 109.0,17.0 L 108.0,16.0 L 108.0,11.0 L 109.0,10.0" fill="#FEEB0D"/>
	<path d="M 124.0,16.0 L 129.0,16.0 L 130.0,17.0 L 130.0,22.0 L 126.0,24.0 L 123.0,22.0 L 123.0,17.0 L 124.0,16.0" fill="#FEEA0C"/>
</svg>
