<?xml version="1.0" ?>
<svg baseProfile="full" height="600px" version="1.1" viewBox="-19.296000000000003 -19.296000000000003 230.592 230.592" width="600px" xmlns="http://www.w3.org/2000/svg" xmlns:ev="http://www.w3.org/2001/xml-events" xmlns:xlink="http://www.w3.org/1999/xlink">
	<defs/>
	<path d="M 0.0,0.0 L 192.0,0.0 L 192.0,192.0 L 0.0,192.0 L 0.0,0.0" fill="#FEFDFD"/>
	<path d="M 84.0,24.0 L 97.0,24.0 L 113.0,28.0 L 124.0,34.0 L 134.0,43.0 L 141.0,53.0 L 146.0,65.0 L 147.0,68.0 L 147.0,91.0 L 143.0,103.0 L 138.0,112.0 L 129.0,122.0 L 123.0,127.0 L 118.0,139.0 L 104.0,140.0 L 70.0,141.0 L 65.0,131.0 L 54.0,122.0 L 47.0,115.0 L 41.0,105.0 L 37.0,96.0 L 36.0,91.0 L 36.0,68.0 L 41.0,55.0 L 48.0,44.0 L 56.0,36.0 L 67.0,29.0 L 78.0,25.0 L 84.0,24.0" fill="#FBC02E"/>
	<path d="M 104.0,139.0 L 118.0,139.0 L 119.0,148.0 L 119.0,165.0 L 113.0,173.0 L 107.0,175.0 L 105.0,180.0 L 101.0,183.0 L 92.0,184.0 L 86.0,180.0 L 84.0,177.0 L 76.0,173.0 L 71.0,165.0 L 70.0,141.0 L 74.0,140.0 L 104.0,139.0" fill="#6270C2"/>
	<path d="M 97.0,64.0 L 101.0,65.0 L 109.0,73.0 L 109.0,80.0 L 105.0,92.0 L 103.0,96.0 L 103.0,109.0 L 104.0,122.0 L 104.0,140.0 L 84.0,140.0 L 82.0,98.0 L 74.0,81.0 L 74.0,73.0 L 82.0,65.0 L 93.0,66.0 L 97.0,64.0" fill="#FEF299"/>
	<path d="M 104.0,139.0 L 118.0,139.0 L 118.0,148.0 L 111.0,150.0 L 82.0,155.0 L 71.0,157.0 L 70.0,141.0 L 74.0,140.0 L 104.0,139.0" fill="#9DA6D7"/>
	<path d="M 85.0,74.0 L 90.0,76.0 L 94.0,75.0 L 98.0,74.0 L 100.0,76.0 L 98.0,85.0 L 96.0,90.0 L 96.0,140.0 L 92.0,140.0 L 90.0,95.0 L 83.0,80.0 L 84.0,75.0 L 85.0,74.0" fill="#FBC232"/>
	<path d="M 116.0,148.0 L 118.0,148.0 L 118.0,156.0 L 117.0,157.0 L 83.0,163.0 L 80.0,164.0 L 71.0,164.0 L 71.0,157.0 L 72.0,156.0 L 104.0,150.0 L 116.0,148.0" fill="#5F6DC1"/>
	<path d="M 118.0,148.0 L 119.0,148.0 L 119.0,165.0 L 117.0,167.0 L 117.0,165.0 L 89.0,170.0 L 76.0,173.0 L 71.0,165.0 L 71.0,164.0 L 90.0,161.0 L 117.0,156.0 L 118.0,148.0" fill="#9CA5D8"/>
	<path d="M 78.0,144.0 L 95.0,144.0 L 95.0,145.0 L 71.0,149.0 L 71.0,145.0 L 78.0,144.0" fill="#6977C5"/>
	<path d="M 84.0,110.0 L 87.0,110.0 L 86.0,113.0 L 87.0,114.0 L 92.0,114.0 L 92.0,130.0 L 90.0,128.0 L 90.0,117.0 L 83.0,117.0 L 83.0,111.0 L 84.0,110.0" fill="#FDEB89"/>
	<path d="M 97.0,120.0 L 102.0,120.0 L 103.0,121.0 L 103.0,126.0 L 98.0,127.0 L 96.0,126.0 L 96.0,121.0 L 97.0,120.0" fill="#FEF49C"/>
	<path d="M 89.0,92.0 L 91.0,95.0 L 91.0,107.0 L 87.0,103.0 L 89.0,102.0 L 89.0,97.0 L 84.0,97.0 L 82.0,98.0 L 83.0,94.0 L 88.0,94.0 L 89.0,92.0" fill="#FEF195"/>
	<path d="M 105.0,87.0 L 106.0,89.0 L 104.0,93.0 L 96.0,93.0 L 95.0,90.0 L 103.0,90.0 L 105.0,87.0" fill="#FDEC8C"/>
	<path d="M 90.0,95.0 L 91.0,95.0 L 91.0,107.0 L 87.0,103.0 L 89.0,102.0 L 90.0,95.0" fill="#FDE883"/>
</svg>
