<?xml version="1.0" ?>
<svg baseProfile="full" height="600px" version="1.1" viewBox="-16.08 -16.08 192.16 192.16" width="600px" xmlns="http://www.w3.org/2000/svg" xmlns:ev="http://www.w3.org/2001/xml-events" xmlns:xlink="http://www.w3.org/1999/xlink">
	<defs/>
	<path d="M 0.0,0.0 L 160.0,0.0 L 160.0,160.0 L 0.0,160.0 L 0.0,0.0" fill="#FDFDFD"/>
	<path d="M 74.0,4.0 L 91.0,4.0 L 107.0,10.0 L 116.0,17.0 L 123.0,25.0 L 129.0,37.0 L 131.0,45.0 L 131.0,57.0 L 129.0,67.0 L 121.0,83.0 L 111.0,98.0 L 107.0,106.0 L 106.0,110.0 L 105.0,139.0 L 101.0,145.0 L 97.0,148.0 L 92.0,150.0 L 87.0,155.0 L 85.0,156.0 L 76.0,156.0 L 70.0,152.0 L 67.0,148.0 L 60.0,145.0 L 57.0,140.0 L 56.0,106.0 L 48.0,90.0 L 38.0,71.0 L 35.0,60.0 L 35.0,43.0 L 38.0,33.0 L 45.0,21.0 L 55.0,12.0 L 67.0,6.0 L 74.0,4.0" fill="#FDECA2"/>
	<path d="M 74.0,4.0 L 91.0,4.0 L 107.0,10.0 L 116.0,17.0 L 123.0,25.0 L 129.0,37.0 L 131.0,45.0 L 131.0,57.0 L 129.0,67.0 L 121.0,83.0 L 111.0,98.0 L 107.0,106.0 L 106.0,110.0 L 105.0,139.0 L 101.0,145.0 L 97.0,148.0 L 92.0,150.0 L 87.0,155.0 L 85.0,156.0 L 76.0,156.0 L 70.0,152.0 L 67.0,148.0 L 60.0,145.0 L 57.0,140.0 L 56.0,106.0 L 48.0,90.0 L 38.0,71.0 L 35.0,60.0 L 35.0,43.0 L 38.0,33.0 L 45.0,21.0 L 55.0,12.0 L 67.0,6.0 L 74.0,4.0 M 75.0,8.0 L 63.0,12.0 L 53.0,19.0 L 45.0,28.0 L 40.0,39.0 L 39.0,44.0 L 39.0,61.0 L 44.0,74.0 L 56.0,96.0 L 60.0,105.0 L 61.0,112.0 L 101.0,112.0 L 105.0,100.0 L 117.0,81.0 L 124.0,68.0 L 126.0,61.0 L 126.0,42.0 L 122.0,32.0 L 116.0,23.0 L 106.0,14.0 L 93.0,9.0 L 88.0,8.0 L 75.0,8.0" fill="#8F7AA4"/>
	<path d="M 68.0,41.0 L 75.0,41.0 L 81.0,45.0 L 85.0,45.0 L 89.0,42.0 L 98.0,42.0 L 104.0,47.0 L 105.0,49.0 L 105.0,56.0 L 102.0,61.0 L 95.0,68.0 L 94.0,97.0 L 93.0,112.0 L 61.0,112.0 L 61.0,111.0 L 69.0,111.0 L 69.0,67.0 L 62.0,60.0 L 60.0,56.0 L 60.0,49.0 L 63.0,44.0 L 68.0,41.0" fill="#FDECA3"/>
	<path d="M 74.0,4.0 L 91.0,4.0 L 107.0,10.0 L 116.0,17.0 L 123.0,25.0 L 129.0,37.0 L 131.0,45.0 L 131.0,57.0 L 129.0,67.0 L 121.0,83.0 L 111.0,98.0 L 107.0,106.0 L 105.0,113.0 L 101.0,113.0 L 102.0,105.0 L 107.0,95.0 L 118.0,78.0 L 123.0,68.0 L 125.0,61.0 L 125.0,42.0 L 121.0,32.0 L 115.0,23.0 L 106.0,15.0 L 93.0,10.0 L 88.0,9.0 L 75.0,9.0 L 63.0,13.0 L 53.0,20.0 L 46.0,28.0 L 41.0,39.0 L 40.0,44.0 L 40.0,61.0 L 45.0,74.0 L 57.0,96.0 L 61.0,105.0 L 61.0,111.0 L 57.0,111.0 L 54.0,101.0 L 46.0,86.0 L 38.0,71.0 L 35.0,60.0 L 35.0,43.0 L 38.0,33.0 L 45.0,21.0 L 55.0,12.0 L 67.0,6.0 L 74.0,4.0" fill="#BEA152"/>
	<path d="M 68.0,41.0 L 75.0,41.0 L 81.0,45.0 L 85.0,45.0 L 89.0,42.0 L 98.0,42.0 L 104.0,47.0 L 105.0,49.0 L 105.0,56.0 L 102.0,61.0 L 95.0,68.0 L 94.0,97.0 L 93.0,112.0 L 89.0,112.0 L 89.0,86.0 L 90.0,66.0 L 98.0,59.0 L 100.0,55.0 L 100.0,50.0 L 97.0,47.0 L 90.0,47.0 L 83.0,53.0 L 76.0,47.0 L 69.0,46.0 L 66.0,47.0 L 65.0,55.0 L 72.0,63.0 L 74.0,65.0 L 74.0,93.0 L 73.0,111.0 L 69.0,111.0 L 69.0,67.0 L 62.0,60.0 L 60.0,56.0 L 60.0,49.0 L 63.0,44.0 L 68.0,41.0" fill="#FEFCF8"/>
	<path d="M 61.0,116.0 L 101.0,116.0 L 101.0,120.0 L 83.0,120.0 L 83.0,124.0 L 101.0,124.0 L 101.0,129.0 L 83.0,128.0 L 83.0,132.0 L 100.0,132.0 L 101.0,136.0 L 83.0,136.0 L 83.0,140.0 L 99.0,140.0 L 98.0,143.0 L 96.0,144.0 L 66.0,144.0 L 62.0,140.0 L 75.0,140.0 L 75.0,136.0 L 61.0,136.0 L 61.0,132.0 L 75.0,132.0 L 75.0,128.0 L 61.0,128.0 L 61.0,124.0 L 75.0,124.0 L 75.0,120.0 L 61.0,120.0 L 61.0,116.0" fill="#D5CDEB"/>
	<path d="M 68.0,148.0 L 93.0,148.0 L 90.0,153.0 L 85.0,156.0 L 76.0,156.0 L 70.0,152.0 L 68.0,148.0" fill="#353C47"/>
	<path d="M 136.0,50.0 L 144.0,50.0 L 144.0,54.0 L 136.0,54.0 L 136.0,50.0" fill="#BC9E4D"/>
	<path d="M 16.0,50.0 L 21.0,51.0 L 20.0,54.0 L 16.0,54.0 L 16.0,50.0" fill="#BEA153"/>
</svg>
