<?xml version="1.0" ?>
<svg baseProfile="full" height="600px" version="1.1" viewBox="-16.08 -16.08 192.16 192.16" width="600px" xmlns="http://www.w3.org/2000/svg" xmlns:ev="http://www.w3.org/2001/xml-events" xmlns:xlink="http://www.w3.org/1999/xlink">
	<defs/>
	<path d="M 0.0,0.0 L 160.0,0.0 L 160.0,160.0 L 0.0,160.0 L 0.0,0.0" fill="#B0C1D2"/>
	<path d="M 159.0,86.0 L 160.0,86.0 L 160.0,160.0 L 0.0,160.0 L 0.0,89.0 L 2.0,93.0 L 6.0,101.0 L 14.0,108.0 L 21.0,111.0 L 60.0,112.0 L 57.0,120.0 L 76.0,120.0 L 73.0,129.0 L 61.0,156.0 L 66.0,154.0 L 78.0,140.0 L 87.0,129.0 L 98.0,116.0 L 101.0,112.0 L 106.0,112.0 L 104.0,123.0 L 99.0,141.0 L 103.0,141.0 L 105.0,136.0 L 115.0,119.0 L 120.0,112.0 L 135.0,111.0 L 144.0,107.0 L 152.0,101.0 L 157.0,92.0 L 159.0,86.0" fill="#FEFDFD"/>
	<path d="M 0.0,0.0 L 160.0,0.0 L 160.0,73.0 L 158.0,70.0 L 154.0,62.0 L 149.0,56.0 L 144.0,53.0 L 142.0,42.0 L 138.0,34.0 L 133.0,28.0 L 124.0,23.0 L 117.0,21.0 L 107.0,20.0 L 101.0,12.0 L 92.0,7.0 L 85.0,5.0 L 74.0,5.0 L 65.0,8.0 L 56.0,15.0 L 51.0,23.0 L 48.0,32.0 L 35.0,34.0 L 27.0,38.0 L 20.0,46.0 L 16.0,59.0 L 8.0,65.0 L 3.0,72.0 L 1.0,79.0 L 0.0,79.0 L 0.0,0.0" fill="#FDFDFD"/>
	<path d="M 129.0,51.0 L 133.0,52.0 L 123.0,79.0 L 121.0,85.0 L 129.0,83.0 L 137.0,83.0 L 135.0,88.0 L 125.0,104.0 L 121.0,104.0 L 122.0,100.0 L 129.0,88.0 L 120.0,90.0 L 114.0,90.0 L 117.0,81.0 L 121.0,69.0 L 125.0,59.0 L 126.0,56.0 L 118.0,58.0 L 105.0,59.0 L 102.0,72.0 L 108.0,72.0 L 99.0,91.0 L 98.0,93.0 L 96.0,93.0 L 94.0,102.0 L 93.0,104.0 L 108.0,104.0 L 106.0,107.0 L 111.0,108.0 L 111.0,112.0 L 101.0,113.0 L 92.0,124.0 L 81.0,137.0 L 70.0,150.0 L 65.0,156.0 L 61.0,156.0 L 64.0,147.0 L 76.0,120.0 L 57.0,120.0 L 58.0,115.0 L 73.0,78.0 L 76.0,72.0 L 97.0,71.0 L 101.0,56.0 L 108.0,54.0 L 129.0,51.0" fill="#C49A59"/>
	<path d="M 74.0,4.0 L 85.0,4.0 L 95.0,7.0 L 104.0,14.0 L 107.0,18.0 L 107.0,20.0 L 117.0,20.0 L 127.0,23.0 L 136.0,30.0 L 142.0,39.0 L 144.0,45.0 L 144.0,53.0 L 149.0,55.0 L 155.0,62.0 L 159.0,70.0 L 160.0,73.0 L 160.0,86.0 L 156.0,96.0 L 150.0,104.0 L 143.0,109.0 L 135.0,112.0 L 116.0,112.0 L 117.0,108.0 L 134.0,107.0 L 142.0,104.0 L 150.0,97.0 L 154.0,89.0 L 155.0,86.0 L 155.0,74.0 L 149.0,62.0 L 143.0,57.0 L 140.0,55.0 L 138.0,43.0 L 133.0,34.0 L 127.0,29.0 L 121.0,26.0 L 116.0,25.0 L 106.0,25.0 L 99.0,16.0 L 91.0,11.0 L 84.0,9.0 L 75.0,9.0 L 63.0,14.0 L 57.0,21.0 L 53.0,31.0 L 52.0,37.0 L 39.0,37.0 L 32.0,40.0 L 25.0,46.0 L 21.0,55.0 L 20.0,62.0 L 13.0,66.0 L 7.0,73.0 L 5.0,79.0 L 5.0,90.0 L 9.0,98.0 L 14.0,103.0 L 22.0,107.0 L 61.0,108.0 L 60.0,112.0 L 21.0,112.0 L 11.0,107.0 L 3.0,98.0 L 0.0,89.0 L 0.0,79.0 L 3.0,70.0 L 11.0,61.0 L 16.0,59.0 L 17.0,51.0 L 21.0,43.0 L 30.0,35.0 L 38.0,32.0 L 48.0,32.0 L 50.0,23.0 L 57.0,13.0 L 67.0,6.0 L 74.0,4.0" fill="#7E90A0"/>
	<path d="M 121.0,56.0 L 126.0,56.0 L 124.0,65.0 L 118.0,81.0 L 114.0,90.0 L 129.0,88.0 L 127.0,94.0 L 122.0,101.0 L 121.0,104.0 L 134.0,103.0 L 142.0,99.0 L 148.0,93.0 L 152.0,80.0 L 156.0,80.0 L 155.0,89.0 L 151.0,97.0 L 142.0,105.0 L 134.0,108.0 L 117.0,108.0 L 116.0,112.0 L 120.0,113.0 L 107.0,134.0 L 103.0,141.0 L 99.0,141.0 L 100.0,134.0 L 106.0,112.0 L 111.0,112.0 L 111.0,108.0 L 105.0,108.0 L 107.0,105.0 L 93.0,104.0 L 96.0,93.0 L 98.0,93.0 L 100.0,87.0 L 107.0,73.0 L 102.0,72.0 L 104.0,61.0 L 105.0,59.0 L 121.0,56.0" fill="#D6D5B9"/>
	<path d="M 79.0,76.0 L 96.0,76.0 L 94.0,89.0 L 91.0,98.0 L 86.0,108.0 L 99.0,108.0 L 96.0,113.0 L 84.0,127.0 L 73.0,141.0 L 72.0,139.0 L 82.0,116.0 L 63.0,116.0 L 64.0,111.0 L 78.0,77.0 L 79.0,76.0" fill="#FCEA9F"/>
	<path d="M 129.0,51.0 L 133.0,52.0 L 123.0,79.0 L 121.0,85.0 L 129.0,83.0 L 137.0,83.0 L 135.0,88.0 L 125.0,104.0 L 121.0,104.0 L 122.0,100.0 L 129.0,88.0 L 120.0,90.0 L 114.0,90.0 L 117.0,81.0 L 121.0,69.0 L 125.0,59.0 L 126.0,56.0 L 118.0,58.0 L 105.0,59.0 L 102.0,72.0 L 108.0,72.0 L 99.0,91.0 L 97.0,93.0 L 98.0,84.0 L 94.0,92.0 L 93.0,89.0 L 96.0,76.0 L 101.0,76.0 L 101.0,72.0 L 97.0,71.0 L 101.0,56.0 L 108.0,54.0 L 129.0,51.0" fill="#B9AD96"/>
	<path d="M 94.0,99.0 L 95.0,101.0 L 105.0,99.0 L 114.0,99.0 L 112.0,108.0 L 117.0,108.0 L 116.0,112.0 L 120.0,113.0 L 107.0,134.0 L 103.0,141.0 L 99.0,141.0 L 100.0,134.0 L 106.0,112.0 L 111.0,112.0 L 111.0,108.0 L 105.0,108.0 L 107.0,105.0 L 93.0,104.0 L 94.0,99.0" fill="#E0CBAA"/>
	<path d="M 4.0,84.0 L 8.0,84.0 L 11.0,94.0 L 15.0,99.0 L 23.0,103.0 L 63.0,104.0 L 62.0,108.0 L 22.0,108.0 L 14.0,104.0 L 9.0,99.0 L 5.0,93.0 L 4.0,84.0" fill="#DDE7EF"/>
	<path d="M 152.0,80.0 L 156.0,80.0 L 155.0,89.0 L 151.0,97.0 L 142.0,105.0 L 134.0,108.0 L 123.0,108.0 L 124.0,104.0 L 134.0,103.0 L 142.0,99.0 L 148.0,93.0 L 152.0,80.0" fill="#DCE6ED"/>
	<path d="M 101.0,72.0 L 108.0,72.0 L 99.0,91.0 L 97.0,93.0 L 98.0,84.0 L 94.0,92.0 L 93.0,89.0 L 96.0,76.0 L 101.0,76.0 L 101.0,72.0" fill="#E0C27B"/>
	<path d="M 106.0,112.0 L 115.0,112.0 L 109.0,123.0 L 108.0,125.0 L 103.0,125.0 L 105.0,115.0 L 106.0,112.0" fill="#E1CCAB"/>
	<path d="M 94.0,99.0 L 95.0,101.0 L 105.0,99.0 L 114.0,99.0 L 113.0,104.0 L 93.0,104.0 L 94.0,99.0" fill="#BAAE95"/>
	<path d="M 110.0,125.0 L 112.0,126.0 L 103.0,141.0 L 99.0,141.0 L 100.0,134.0 L 102.0,126.0 L 103.0,128.0 L 108.0,127.0 L 110.0,125.0" fill="#E0CBAB"/>
	<path d="M 108.0,104.0 L 113.0,104.0 L 112.0,108.0 L 117.0,108.0 L 116.0,112.0 L 111.0,112.0 L 111.0,108.0 L 105.0,108.0 L 108.0,104.0" fill="#D3CAB1"/>
	<path d="M 110.0,112.0 L 115.0,112.0 L 109.0,123.0 L 108.0,119.0 L 110.0,112.0" fill="#FAF0CB"/>
	<path d="M 104.0,108.0 L 111.0,108.0 L 111.0,112.0 L 102.0,112.0 L 104.0,108.0" fill="#8E8F88"/>
	<path d="M 113.0,104.0 L 120.0,104.0 L 118.0,108.0 L 112.0,108.0 L 113.0,104.0" fill="#EFEBC9"/>
	<path d="M 111.0,108.0 L 117.0,108.0 L 116.0,112.0 L 111.0,112.0 L 111.0,108.0" fill="#BBB99D"/>
	<path d="M 120.0,103.0 L 124.0,104.0 L 123.0,108.0 L 118.0,108.0 L 120.0,103.0" fill="#D0C3A5"/>
	<path d="M 104.0,135.0 L 106.0,136.0 L 103.0,141.0 L 99.0,141.0 L 100.0,137.0 L 102.0,137.0 L 104.0,135.0" fill="#E3D0B2"/>
	<path d="M 117.0,108.0 L 122.0,108.0 L 120.0,112.0 L 116.0,112.0 L 117.0,108.0" fill="#9D9279"/>
</svg>
