<?xml version="1.0" ?>
<svg baseProfile="full" height="600px" version="1.1" viewBox="-20.1 -20.1 240.2 240.2" width="600px" xmlns="http://www.w3.org/2000/svg" xmlns:ev="http://www.w3.org/2001/xml-events" xmlns:xlink="http://www.w3.org/1999/xlink">
	<defs/>
	<path d="M 0.0,0.0 L 200.0,0.0 L 200.0,200.0 L 0.0,200.0 L 0.0,0.0" fill="#FDFDFD"/>
	<path d="M 189.0,115.0 L 195.0,115.0 L 200.0,119.0 L 200.0,129.0 L 195.0,133.0 L 188.0,134.0 L 176.0,145.0 L 163.0,157.0 L 150.0,169.0 L 145.0,168.0 L 144.0,167.0 L 144.0,162.0 L 156.0,151.0 L 168.0,140.0 L 182.0,127.0 L 184.0,119.0 L 189.0,115.0" fill="#090909"/>
	<path d="M 190.0,11.0 L 196.0,11.0 L 200.0,14.0 L 200.0,26.0 L 195.0,29.0 L 189.0,29.0 L 176.0,41.0 L 163.0,53.0 L 151.0,64.0 L 146.0,63.0 L 145.0,58.0 L 150.0,53.0 L 158.0,45.0 L 166.0,38.0 L 183.0,22.0 L 185.0,15.0 L 190.0,11.0" fill="#090909"/>
</svg>
