<?xml version="1.0" ?>
<svg baseProfile="full" height="600px" version="1.1" viewBox="-20.1 -20.1 240.2 240.2" width="600px" xmlns="http://www.w3.org/2000/svg" xmlns:ev="http://www.w3.org/2001/xml-events" xmlns:xlink="http://www.w3.org/1999/xlink">
	<defs/>
	<path d="M 0.0,0.0 L 200.0,0.0 L 200.0,200.0 L 0.0,200.0 L 0.0,0.0" fill="#FDFDFD"/>
	<path d="M 5.0,147.0 L 11.0,147.0 L 16.0,151.0 L 17.0,153.0 L 24.0,155.0 L 25.0,160.0 L 23.0,162.0 L 14.0,163.0 L 11.0,165.0 L 5.0,165.0 L 0.0,161.0 L 0.0,151.0 L 5.0,147.0" fill="#0C0C0C"/>
	<path d="M 17.0,91.0 L 22.0,91.0 L 23.0,92.0 L 23.0,97.0 L 17.0,101.0 L 14.0,102.0 L 11.0,105.0 L 6.0,105.0 L 4.0,103.0 L 4.0,97.0 L 6.0,95.0 L 17.0,91.0" fill="#0A0A0A"/>
</svg>
