<?xml version="1.0" ?>
<svg baseProfile="full" height="600px" version="1.1" viewBox="-19.296000000000003 -19.296000000000003 230.592 230.592" width="600px" xmlns="http://www.w3.org/2000/svg" xmlns:ev="http://www.w3.org/2001/xml-events" xmlns:xlink="http://www.w3.org/1999/xlink">
	<defs/>
	<path d="M 0.0,0.0 L 192.0,0.0 L 192.0,192.0 L 0.0,192.0 L 0.0,0.0" fill="#0489D1"/>
	<path d="M 0.0,0.0 L 192.0,0.0 L 192.0,192.0 L 0.0,192.0 L 0.0,0.0 M 87.0,16.0 L 71.0,19.0 L 54.0,27.0 L 41.0,37.0 L 34.0,44.0 L 25.0,58.0 L 19.0,71.0 L 16.0,87.0 L 16.0,105.0 L 18.0,116.0 L 22.0,128.0 L 29.0,141.0 L 38.0,152.0 L 48.0,161.0 L 62.0,169.0 L 75.0,174.0 L 87.0,176.0 L 108.0,176.0 L 123.0,172.0 L 139.0,164.0 L 150.0,156.0 L 157.0,149.0 L 166.0,136.0 L 173.0,121.0 L 176.0,108.0 L 176.0,87.0 L 173.0,71.0 L 165.0,54.0 L 155.0,41.0 L 144.0,31.0 L 130.0,23.0 L 120.0,19.0 L 113.0,17.0 L 105.0,16.0 L 87.0,16.0" fill="#FCFDFE"/>
	<path d="M 99.0,55.0 L 105.0,55.0 L 108.0,86.0 L 109.0,101.0 L 109.0,115.0 L 103.0,116.0 L 93.0,116.0 L 92.0,109.0 L 84.0,116.0 L 79.0,118.0 L 69.0,118.0 L 59.0,113.0 L 53.0,104.0 L 51.0,89.0 L 49.0,67.0 L 49.0,60.0 L 53.0,59.0 L 65.0,59.0 L 66.0,64.0 L 68.0,92.0 L 72.0,98.0 L 75.0,100.0 L 83.0,100.0 L 88.0,97.0 L 90.0,93.0 L 90.0,76.0 L 89.0,67.0 L 89.0,56.0 L 99.0,55.0" fill="#F8FCFD"/>
	<path d="M 120.0,53.0 L 133.0,53.0 L 137.0,99.0 L 137.0,113.0 L 121.0,114.0 L 117.0,63.0 L 117.0,54.0 L 120.0,53.0" fill="#F8FBFD"/>
	<path d="M 128.0,121.0 L 134.0,121.0 L 139.0,126.0 L 139.0,132.0 L 134.0,137.0 L 127.0,137.0 L 123.0,132.0 L 123.0,126.0 L 128.0,121.0" fill="#F5FAFD"/>
</svg>
