<?xml version="1.0" ?>
<svg baseProfile="full" height="600px" version="1.1" viewBox="-20.1 -20.1 240.2 240.2" width="600px" xmlns="http://www.w3.org/2000/svg" xmlns:ev="http://www.w3.org/2001/xml-events" xmlns:xlink="http://www.w3.org/1999/xlink">
	<defs/>
	<path d="M 0.0,0.0 L 200.0,0.0 L 200.0,200.0 L 0.0,200.0 L 0.0,0.0" fill="#FCFCFC"/>
	<path d="M 0.0,0.0 L 200.0,0.0 L 200.0,200.0 L 0.0,200.0 L 0.0,0.0 M 86.0,6.0 L 70.0,10.0 L 58.0,15.0 L 46.0,22.0 L 35.0,31.0 L 27.0,39.0 L 20.0,49.0 L 12.0,64.0 L 7.0,80.0 L 6.0,85.0 L 6.0,115.0 L 10.0,130.0 L 17.0,146.0 L 25.0,158.0 L 36.0,170.0 L 46.0,178.0 L 60.0,186.0 L 69.0,190.0 L 85.0,194.0 L 112.0,194.0 L 128.0,191.0 L 146.0,183.0 L 158.0,175.0 L 170.0,164.0 L 178.0,154.0 L 186.0,140.0 L 192.0,124.0 L 194.0,112.0 L 194.0,85.0 L 190.0,69.0 L 182.0,52.0 L 174.0,41.0 L 165.0,31.0 L 154.0,22.0 L 140.0,14.0 L 124.0,8.0 L 115.0,6.0 L 86.0,6.0" fill="#FCFCFC"/>
	<path d="M 86.0,6.0 L 115.0,6.0 L 130.0,10.0 L 146.0,17.0 L 158.0,25.0 L 170.0,36.0 L 178.0,46.0 L 186.0,60.0 L 190.0,69.0 L 194.0,85.0 L 194.0,112.0 L 191.0,128.0 L 183.0,146.0 L 175.0,158.0 L 164.0,170.0 L 154.0,178.0 L 140.0,186.0 L 124.0,192.0 L 112.0,194.0 L 85.0,194.0 L 69.0,190.0 L 52.0,182.0 L 41.0,174.0 L 31.0,165.0 L 22.0,154.0 L 14.0,140.0 L 8.0,124.0 L 6.0,115.0 L 6.0,85.0 L 10.0,70.0 L 15.0,58.0 L 22.0,46.0 L 30.0,36.0 L 38.0,28.0 L 52.0,18.0 L 67.0,11.0 L 80.0,7.0 L 86.0,6.0 M 91.0,14.0 L 78.0,16.0 L 62.0,22.0 L 49.0,30.0 L 39.0,39.0 L 32.0,46.0 L 23.0,60.0 L 18.0,72.0 L 15.0,82.0 L 14.0,91.0 L 14.0,112.0 L 18.0,128.0 L 24.0,142.0 L 33.0,155.0 L 46.0,168.0 L 60.0,177.0 L 75.0,183.0 L 82.0,185.0 L 91.0,186.0 L 112.0,186.0 L 124.0,183.0 L 140.0,177.0 L 151.0,170.0 L 161.0,161.0 L 168.0,154.0 L 175.0,143.0 L 180.0,133.0 L 184.0,122.0 L 186.0,109.0 L 186.0,91.0 L 184.0,78.0 L 178.0,62.0 L 170.0,49.0 L 161.0,39.0 L 154.0,32.0 L 140.0,23.0 L 122.0,16.0 L 112.0,14.0 L 91.0,14.0" fill="#070707"/>
	<path d="M 88.0,75.0 L 98.0,75.0 L 109.0,77.0 L 111.0,81.0 L 116.0,79.0 L 126.0,79.0 L 135.0,82.0 L 144.0,89.0 L 150.0,99.0 L 151.0,103.0 L 151.0,117.0 L 146.0,148.0 L 144.0,150.0 L 134.0,150.0 L 124.0,148.0 L 122.0,146.0 L 122.0,138.0 L 125.0,121.0 L 125.0,108.0 L 121.0,104.0 L 112.0,104.0 L 108.0,108.0 L 107.0,110.0 L 103.0,141.0 L 100.0,144.0 L 88.0,143.0 L 79.0,141.0 L 78.0,136.0 L 83.0,101.0 L 87.0,76.0 L 88.0,75.0" fill="#0A0A0A"/>
	<path d="M 57.0,70.0 L 70.0,71.0 L 77.0,72.0 L 79.0,74.0 L 79.0,83.0 L 75.0,111.0 L 72.0,128.0 L 71.0,137.0 L 69.0,139.0 L 58.0,139.0 L 48.0,137.0 L 47.0,136.0 L 47.0,127.0 L 55.0,72.0 L 57.0,70.0" fill="#0A0A0A"/>
	<path d="M 94.0,83.0 L 102.0,84.0 L 104.0,91.0 L 109.0,90.0 L 116.0,87.0 L 125.0,87.0 L 134.0,91.0 L 141.0,99.0 L 143.0,104.0 L 143.0,113.0 L 139.0,142.0 L 131.0,141.0 L 132.0,129.0 L 133.0,122.0 L 133.0,106.0 L 128.0,99.0 L 122.0,96.0 L 110.0,96.0 L 104.0,100.0 L 100.0,106.0 L 95.0,135.0 L 87.0,135.0 L 88.0,126.0 L 91.0,105.0 L 94.0,83.0" fill="#F4F4F4"/>
	<path d="M 67.0,43.0 L 73.0,43.0 L 79.0,47.0 L 82.0,51.0 L 82.0,58.0 L 79.0,64.0 L 74.0,67.0 L 66.0,67.0 L 60.0,63.0 L 58.0,59.0 L 58.0,51.0 L 63.0,45.0 L 67.0,43.0" fill="#080808"/>
	<path d="M 62.0,79.0 L 70.0,79.0 L 70.0,89.0 L 67.0,106.0 L 64.0,131.0 L 55.0,130.0 L 62.0,79.0" fill="#F2F2F2"/>
	<path d="M 68.0,51.0 L 73.0,52.0 L 74.0,57.0 L 72.0,59.0 L 67.0,58.0 L 66.0,53.0 L 68.0,51.0" fill="#E7E7E7"/>
</svg>
