<?xml version="1.0" ?>
<svg baseProfile="full" height="600px" version="1.1" viewBox="-19.296000000000003 -19.296000000000003 230.592 230.592" width="600px" xmlns="http://www.w3.org/2000/svg" xmlns:ev="http://www.w3.org/2001/xml-events" xmlns:xlink="http://www.w3.org/1999/xlink">
	<defs/>
	<path d="M 0.0,0.0 L 192.0,0.0 L 192.0,192.0 L 0.0,192.0 L 0.0,0.0" fill="#FDFEFE"/>
	<path d="M 72.0,68.0 L 108.0,68.0 L 109.0,81.0 L 118.0,73.0 L 130.0,68.0 L 143.0,68.0 L 156.0,72.0 L 164.0,78.0 L 171.0,86.0 L 176.0,98.0 L 176.0,172.0 L 140.0,172.0 L 139.0,108.0 L 135.0,101.0 L 128.0,97.0 L 119.0,97.0 L 113.0,101.0 L 109.0,107.0 L 108.0,172.0 L 72.0,172.0 L 72.0,68.0" fill="#0388D1"/>
	<path d="M 16.0,99.0 L 52.0,99.0 L 52.0,172.0 L 16.0,172.0 L 16.0,99.0" fill="#0388D1"/>
	<path d="M 29.0,33.0 L 39.0,33.0 L 45.0,38.0 L 49.0,48.0 L 49.0,61.0 L 45.0,72.0 L 39.0,77.0 L 31.0,78.0 L 26.0,75.0 L 22.0,70.0 L 19.0,60.0 L 19.0,47.0 L 24.0,37.0 L 29.0,33.0" fill="#068AD2"/>
</svg>
