<?xml version="1.0" ?>
<svg baseProfile="full" height="600px" version="1.1" viewBox="-19.296000000000003 -19.296000000000003 230.592 230.592" width="600px" xmlns="http://www.w3.org/2000/svg" xmlns:ev="http://www.w3.org/2001/xml-events" xmlns:xlink="http://www.w3.org/1999/xlink">
	<defs/>
	<path d="M 0.0,0.0 L 192.0,0.0 L 192.0,192.0 L 0.0,192.0 L 0.0,0.0" fill="#0489D1"/>
	<path d="M 0.0,0.0 L 192.0,0.0 L 192.0,192.0 L 0.0,192.0 L 0.0,0.0 M 88.0,16.0 L 79.0,17.0 L 64.0,22.0 L 50.0,30.0 L 39.0,39.0 L 29.0,51.0 L 21.0,67.0 L 17.0,79.0 L 16.0,88.0 L 16.0,105.0 L 18.0,117.0 L 24.0,132.0 L 30.0,142.0 L 39.0,153.0 L 51.0,163.0 L 66.0,171.0 L 79.0,175.0 L 86.0,176.0 L 106.0,176.0 L 125.0,171.0 L 141.0,163.0 L 154.0,152.0 L 164.0,139.0 L 171.0,125.0 L 175.0,112.0 L 176.0,106.0 L 176.0,86.0 L 173.0,72.0 L 168.0,60.0 L 162.0,50.0 L 153.0,39.0 L 141.0,29.0 L 125.0,21.0 L 112.0,17.0 L 105.0,16.0 L 88.0,16.0" fill="#FCFDFE"/>
	<path d="M 84.0,76.0 L 100.0,76.0 L 101.0,83.0 L 110.0,77.0 L 112.0,76.0 L 122.0,76.0 L 130.0,79.0 L 135.0,83.0 L 140.0,92.0 L 140.0,136.0 L 124.0,136.0 L 123.0,100.0 L 118.0,94.0 L 116.0,93.0 L 108.0,93.0 L 102.0,98.0 L 101.0,100.0 L 100.0,136.0 L 84.0,136.0 L 84.0,76.0" fill="#FCFDFE"/>
	<path d="M 56.0,76.0 L 72.0,76.0 L 72.0,136.0 L 56.0,136.0 L 56.0,76.0" fill="#FDFEFE"/>
	<path d="M 61.0,52.0 L 68.0,52.0 L 72.0,57.0 L 72.0,63.0 L 67.0,68.0 L 60.0,68.0 L 57.0,65.0 L 56.0,57.0 L 61.0,52.0" fill="#F5FAFD"/>
</svg>
