<?xml version="1.0" ?>
<svg baseProfile="full" height="600px" version="1.1" viewBox="-20.1 -20.1 240.2 240.2" width="600px" xmlns="http://www.w3.org/2000/svg" xmlns:ev="http://www.w3.org/2001/xml-events" xmlns:xlink="http://www.w3.org/1999/xlink">
	<defs/>
	<path d="M 0.0,0.0 L 200.0,0.0 L 200.0,200.0 L 0.0,200.0 L 0.0,0.0" fill="#FBFBFB"/>
	<path d="M 0.0,0.0 L 200.0,0.0 L 200.0,200.0 L 0.0,200.0 L 0.0,0.0 M 88.0,3.0 L 75.0,5.0 L 59.0,11.0 L 45.0,19.0 L 35.0,27.0 L 24.0,38.0 L 14.0,53.0 L 8.0,66.0 L 4.0,79.0 L 3.0,88.0 L 3.0,113.0 L 5.0,125.0 L 12.0,143.0 L 19.0,155.0 L 27.0,165.0 L 38.0,176.0 L 53.0,186.0 L 69.0,193.0 L 79.0,196.0 L 88.0,197.0 L 113.0,197.0 L 125.0,195.0 L 143.0,188.0 L 155.0,181.0 L 165.0,173.0 L 176.0,162.0 L 186.0,147.0 L 191.0,136.0 L 195.0,125.0 L 197.0,113.0 L 197.0,88.0 L 195.0,75.0 L 189.0,59.0 L 183.0,48.0 L 174.0,36.0 L 162.0,24.0 L 147.0,14.0 L 136.0,9.0 L 125.0,5.0 L 113.0,3.0 L 88.0,3.0" fill="#FBFBFB"/>
	<path d="M 88.0,3.0 L 113.0,3.0 L 125.0,5.0 L 143.0,12.0 L 155.0,19.0 L 165.0,27.0 L 176.0,38.0 L 186.0,53.0 L 193.0,69.0 L 196.0,79.0 L 197.0,88.0 L 197.0,113.0 L 195.0,125.0 L 188.0,143.0 L 181.0,155.0 L 173.0,165.0 L 162.0,176.0 L 147.0,186.0 L 136.0,191.0 L 125.0,195.0 L 113.0,197.0 L 88.0,197.0 L 75.0,195.0 L 59.0,189.0 L 48.0,183.0 L 36.0,174.0 L 24.0,162.0 L 14.0,147.0 L 9.0,136.0 L 5.0,125.0 L 3.0,113.0 L 3.0,88.0 L 5.0,75.0 L 11.0,59.0 L 17.0,48.0 L 26.0,36.0 L 38.0,24.0 L 48.0,17.0 L 63.0,9.0 L 79.0,4.0 L 88.0,3.0 M 90.0,11.0 L 75.0,14.0 L 62.0,19.0 L 48.0,27.0 L 35.0,39.0 L 27.0,48.0 L 18.0,64.0 L 14.0,75.0 L 11.0,90.0 L 11.0,111.0 L 16.0,130.0 L 21.0,142.0 L 28.0,153.0 L 37.0,163.0 L 44.0,170.0 L 58.0,179.0 L 72.0,185.0 L 90.0,189.0 L 110.0,189.0 L 127.0,185.0 L 140.0,180.0 L 153.0,172.0 L 165.0,161.0 L 173.0,152.0 L 182.0,136.0 L 187.0,120.0 L 189.0,110.0 L 189.0,90.0 L 185.0,72.0 L 178.0,56.0 L 169.0,43.0 L 156.0,30.0 L 142.0,21.0 L 130.0,16.0 L 111.0,11.0 L 90.0,11.0" fill="#070707"/>
	<path d="M 84.0,72.0 L 107.0,72.0 L 109.0,76.0 L 120.0,72.0 L 130.0,72.0 L 142.0,76.0 L 150.0,82.0 L 157.0,91.0 L 160.0,99.0 L 160.0,149.0 L 157.0,151.0 L 135.0,151.0 L 132.0,148.0 L 131.0,107.0 L 126.0,102.0 L 124.0,101.0 L 117.0,101.0 L 111.0,106.0 L 110.0,108.0 L 109.0,149.0 L 107.0,151.0 L 84.0,151.0 L 81.0,148.0 L 81.0,75.0 L 84.0,72.0" fill="#090909"/>
	<path d="M 47.0,72.0 L 69.0,72.0 L 72.0,74.0 L 72.0,149.0 L 69.0,151.0 L 47.0,151.0 L 44.0,148.0 L 44.0,75.0 L 47.0,72.0" fill="#090909"/>
	<path d="M 91.0,82.0 L 100.0,82.0 L 102.0,89.0 L 107.0,89.0 L 113.0,84.0 L 118.0,82.0 L 133.0,82.0 L 142.0,87.0 L 148.0,94.0 L 151.0,101.0 L 151.0,142.0 L 142.0,142.0 L 141.0,107.0 L 137.0,99.0 L 131.0,94.0 L 126.0,92.0 L 115.0,92.0 L 109.0,95.0 L 104.0,100.0 L 101.0,106.0 L 100.0,142.0 L 91.0,142.0 L 91.0,82.0" fill="#F8F8F8"/>
	<path d="M 54.0,40.0 L 62.0,40.0 L 69.0,44.0 L 72.0,49.0 L 72.0,58.0 L 69.0,63.0 L 64.0,67.0 L 55.0,68.0 L 49.0,64.0 L 45.0,59.0 L 45.0,48.0 L 50.0,42.0 L 54.0,40.0" fill="#070707"/>
	<path d="M 54.0,81.0 L 63.0,81.0 L 63.0,142.0 L 54.0,142.0 L 54.0,81.0" fill="#F8F8F8"/>
	<path d="M 56.0,49.0 L 62.0,50.0 L 63.0,56.0 L 61.0,58.0 L 56.0,58.0 L 54.0,56.0 L 54.0,51.0 L 56.0,49.0" fill="#EFEFEF"/>
</svg>
