<?xml version="1.0" ?>
<svg baseProfile="full" height="600px" version="1.1" viewBox="-12.06 -12.06 144.12 144.12" width="600px" xmlns="http://www.w3.org/2000/svg" xmlns:ev="http://www.w3.org/2001/xml-events" xmlns:xlink="http://www.w3.org/1999/xlink">
	<defs/>
	<path d="M 0.0,0.0 L 120.0,0.0 L 120.0,120.0 L 0.0,120.0 L 0.0,0.0" fill="#030303"/>
	<path d="M 0.0,0.0 L 120.0,0.0 L 120.0,120.0 L 0.0,120.0 L 0.0,0.0 M 51.0,12.0 L 40.0,16.0 L 30.0,22.0 L 21.0,31.0 L 13.0,47.0 L 12.0,51.0 L 12.0,69.0 L 17.0,82.0 L 23.0,91.0 L 31.0,99.0 L 42.0,105.0 L 51.0,108.0 L 66.0,108.0 L 75.0,106.0 L 89.0,99.0 L 99.0,89.0 L 107.0,73.0 L 108.0,66.0 L 108.0,51.0 L 104.0,39.0 L 97.0,29.0 L 89.0,21.0 L 73.0,13.0 L 69.0,12.0 L 51.0,12.0" fill="#FCFCFC"/>
	<path d="M 56.0,48.0 L 68.0,48.0 L 69.0,51.0 L 72.0,49.0 L 81.0,49.0 L 86.0,53.0 L 88.0,57.0 L 88.0,69.0 L 87.0,82.0 L 75.0,81.0 L 75.0,59.0 L 71.0,58.0 L 68.0,61.0 L 66.0,80.0 L 55.0,80.0 L 55.0,64.0 L 56.0,48.0" fill="#F5F5F5"/>
	<path d="M 37.0,47.0 L 48.0,47.0 L 48.0,63.0 L 47.0,79.0 L 35.0,79.0 L 35.0,66.0 L 36.0,52.0 L 37.0,47.0" fill="#F9F9F9"/>
	<path d="M 41.0,32.0 L 47.0,33.0 L 49.0,35.0 L 49.0,40.0 L 46.0,43.0 L 40.0,43.0 L 37.0,40.0 L 37.0,35.0 L 41.0,32.0" fill="#E8E8E8"/>
</svg>
