<?xml version="1.0" ?>
<svg baseProfile="full" height="600px" version="1.1" viewBox="-19.296000000000003 -19.296000000000003 230.592 230.592" width="600px" xmlns="http://www.w3.org/2000/svg" xmlns:ev="http://www.w3.org/2001/xml-events" xmlns:xlink="http://www.w3.org/1999/xlink">
	<defs/>
	<path d="M 0.0,0.0 L 192.0,0.0 L 192.0,192.0 L 0.0,192.0 L 0.0,0.0" fill="#0489D1"/>
	<path d="M 0.0,0.0 L 192.0,0.0 L 192.0,192.0 L 0.0,192.0 L 0.0,0.0 M 82.0,10.0 L 67.0,14.0 L 50.0,22.0 L 40.0,30.0 L 31.0,38.0 L 21.0,52.0 L 14.0,67.0 L 10.0,82.0 L 10.0,107.0 L 12.0,119.0 L 18.0,134.0 L 25.0,146.0 L 36.0,159.0 L 49.0,169.0 L 64.0,177.0 L 77.0,181.0 L 83.0,182.0 L 110.0,182.0 L 127.0,177.0 L 143.0,169.0 L 152.0,162.0 L 160.0,155.0 L 169.0,143.0 L 177.0,127.0 L 182.0,110.0 L 182.0,83.0 L 178.0,67.0 L 170.0,51.0 L 164.0,42.0 L 155.0,32.0 L 143.0,23.0 L 127.0,15.0 L 114.0,11.0 L 107.0,10.0 L 82.0,10.0" fill="#FBFDFE"/>
	<path d="M 82.0,72.0 L 101.0,72.0 L 102.0,81.0 L 108.0,76.0 L 114.0,73.0 L 129.0,73.0 L 139.0,78.0 L 145.0,85.0 L 148.0,92.0 L 148.0,143.0 L 129.0,143.0 L 128.0,101.0 L 124.0,95.0 L 118.0,92.0 L 111.0,92.0 L 105.0,96.0 L 102.0,101.0 L 101.0,143.0 L 82.0,143.0 L 82.0,72.0" fill="#FAFCFE"/>
	<path d="M 49.0,72.0 L 68.0,72.0 L 68.0,143.0 L 49.0,143.0 L 49.0,72.0" fill="#F7FBFD"/>
	<path d="M 55.0,44.0 L 64.0,45.0 L 68.0,51.0 L 67.0,58.0 L 62.0,63.0 L 55.0,63.0 L 50.0,59.0 L 49.0,57.0 L 49.0,49.0 L 55.0,44.0" fill="#F6FAFD"/>
</svg>
