<?xml version="1.0" ?>
<svg baseProfile="full" height="600px" version="1.1" viewBox="-16.08 -16.08 192.16 192.16" width="600px" xmlns="http://www.w3.org/2000/svg" xmlns:ev="http://www.w3.org/2001/xml-events" xmlns:xlink="http://www.w3.org/1999/xlink">
	<defs/>
	<path d="M 0.0,0.0 L 160.0,0.0 L 160.0,160.0 L 0.0,160.0 L 0.0,0.0" fill="#8AB6EE"/>
	<path d="M 0.0,0.0 L 160.0,0.0 L 160.0,160.0 L 0.0,160.0 L 0.0,0.0 M 66.0,5.0 L 53.0,9.0 L 39.0,16.0 L 30.0,23.0 L 20.0,33.0 L 11.0,48.0 L 7.0,58.0 L 5.0,66.0 L 5.0,91.0 L 7.0,101.0 L 12.0,114.0 L 19.0,125.0 L 28.0,135.0 L 37.0,143.0 L 53.0,151.0 L 67.0,155.0 L 92.0,155.0 L 104.0,152.0 L 116.0,147.0 L 129.0,138.0 L 139.0,128.0 L 148.0,114.0 L 153.0,100.0 L 155.0,92.0 L 155.0,67.0 L 150.0,50.0 L 144.0,39.0 L 136.0,29.0 L 128.0,21.0 L 114.0,12.0 L 98.0,6.0 L 92.0,5.0 L 66.0,5.0" fill="#5681BA"/>
	<path d="M 68.0,55.0 L 87.0,55.0 L 88.0,63.0 L 96.0,57.0 L 102.0,55.0 L 113.0,55.0 L 122.0,59.0 L 128.0,64.0 L 132.0,72.0 L 133.0,75.0 L 133.0,124.0 L 114.0,124.0 L 113.0,82.0 L 110.0,77.0 L 104.0,74.0 L 97.0,74.0 L 92.0,77.0 L 89.0,80.0 L 88.0,83.0 L 87.0,124.0 L 68.0,124.0 L 68.0,55.0" fill="#FAFBFD"/>
	<path d="M 159.0,88.0 L 160.0,88.0 L 160.0,160.0 L 90.0,160.0 L 93.0,158.0 L 102.0,156.0 L 116.0,151.0 L 127.0,144.0 L 137.0,135.0 L 145.0,126.0 L 151.0,116.0 L 157.0,100.0 L 159.0,88.0" fill="#FBFCFD"/>
	<path d="M 89.0,0.0 L 160.0,0.0 L 160.0,71.0 L 159.0,71.0 L 157.0,60.0 L 152.0,46.0 L 144.0,33.0 L 135.0,23.0 L 126.0,15.0 L 115.0,9.0 L 107.0,5.0 L 89.0,1.0 L 89.0,0.0" fill="#FBFCFD"/>
	<path d="M 0.0,89.0 L 2.0,93.0 L 5.0,107.0 L 13.0,123.0 L 21.0,133.0 L 30.0,142.0 L 44.0,151.0 L 60.0,157.0 L 71.0,159.0 L 71.0,160.0 L 0.0,160.0 L 0.0,89.0" fill="#FBFCFD"/>
	<path d="M 0.0,0.0 L 70.0,0.0 L 70.0,1.0 L 54.0,5.0 L 42.0,10.0 L 29.0,19.0 L 18.0,30.0 L 11.0,41.0 L 6.0,51.0 L 2.0,64.0 L 1.0,70.0 L 0.0,70.0 L 0.0,0.0" fill="#FCFCFD"/>
	<path d="M 36.0,55.0 L 55.0,55.0 L 55.0,124.0 L 36.0,124.0 L 36.0,55.0" fill="#F9FBFD"/>
	<path d="M 42.0,27.0 L 49.0,27.0 L 54.0,31.0 L 55.0,33.0 L 55.0,39.0 L 52.0,44.0 L 50.0,45.0 L 41.0,45.0 L 37.0,41.0 L 36.0,39.0 L 36.0,33.0 L 41.0,28.0 L 42.0,27.0" fill="#F8FBFD"/>
</svg>
