<?xml version="1.0" ?>
<svg baseProfile="full" height="600px" version="1.1" viewBox="-20.1 -20.1 240.2 240.2" width="600px" xmlns="http://www.w3.org/2000/svg" xmlns:ev="http://www.w3.org/2001/xml-events" xmlns:xlink="http://www.w3.org/1999/xlink">
	<defs/>
	<path d="M 0.0,0.0 L 200.0,0.0 L 200.0,200.0 L 0.0,200.0 L 0.0,0.0" fill="#FDFDFD"/>
	<path d="M 70.0,60.0 L 114.0,60.0 L 116.0,62.0 L 117.0,69.0 L 126.0,64.0 L 134.0,61.0 L 138.0,60.0 L 153.0,60.0 L 165.0,63.0 L 176.0,70.0 L 183.0,78.0 L 189.0,90.0 L 192.0,101.0 L 192.0,182.0 L 190.0,184.0 L 146.0,184.0 L 144.0,182.0 L 143.0,110.0 L 139.0,104.0 L 133.0,101.0 L 126.0,101.0 L 120.0,105.0 L 117.0,110.0 L 116.0,182.0 L 114.0,184.0 L 70.0,184.0 L 68.0,182.0 L 68.0,62.0 L 70.0,60.0" fill="#FCFCFC"/>
	<path d="M 20.0,18.0 L 43.0,18.0 L 55.0,22.0 L 61.0,27.0 L 63.0,31.0 L 63.0,37.0 L 59.0,43.0 L 55.0,45.0 L 56.0,47.0 L 56.0,182.0 L 54.0,184.0 L 10.0,184.0 L 8.0,182.0 L 8.0,45.0 L 3.0,41.0 L 1.0,38.0 L 1.0,30.0 L 6.0,24.0 L 16.0,19.0 L 20.0,18.0" fill="#020202"/>
	<path d="M 70.0,60.0 L 114.0,60.0 L 116.0,62.0 L 117.0,69.0 L 126.0,64.0 L 134.0,61.0 L 138.0,60.0 L 153.0,60.0 L 165.0,63.0 L 176.0,70.0 L 183.0,78.0 L 189.0,90.0 L 192.0,101.0 L 192.0,182.0 L 190.0,184.0 L 146.0,184.0 L 144.0,182.0 L 143.0,110.0 L 139.0,104.0 L 133.0,101.0 L 126.0,101.0 L 120.0,105.0 L 117.0,110.0 L 116.0,182.0 L 114.0,184.0 L 70.0,184.0 L 68.0,182.0 L 68.0,62.0 L 70.0,60.0 M 76.0,68.0 L 76.0,176.0 L 108.0,176.0 L 109.0,108.0 L 115.0,98.0 L 124.0,93.0 L 135.0,93.0 L 145.0,98.0 L 151.0,108.0 L 152.0,176.0 L 184.0,176.0 L 184.0,102.0 L 180.0,89.0 L 174.0,79.0 L 165.0,72.0 L 152.0,68.0 L 139.0,68.0 L 125.0,73.0 L 116.0,80.0 L 115.0,81.0 L 109.0,81.0 L 108.0,68.0 L 76.0,68.0" fill="#030303"/>
	<path d="M 16.0,53.0 L 48.0,53.0 L 48.0,176.0 L 16.0,176.0 L 16.0,53.0" fill="#FDFDFD"/>
	<path d="M 24.0,24.0 L 38.0,24.0 L 48.0,27.0 L 53.0,32.0 L 52.0,38.0 L 47.0,42.0 L 39.0,44.0 L 23.0,44.0 L 13.0,39.0 L 11.0,36.0 L 12.0,30.0 L 20.0,25.0 L 24.0,24.0" fill="#F7F7F7"/>
</svg>
