<?xml version="1.0" ?>
<svg baseProfile="full" height="600px" version="1.1" viewBox="-19.296000000000003 -19.296000000000003 230.592 230.592" width="600px" xmlns="http://www.w3.org/2000/svg" xmlns:ev="http://www.w3.org/2001/xml-events" xmlns:xlink="http://www.w3.org/1999/xlink">
	<defs/>
	<path d="M 0.0,0.0 L 192.0,0.0 L 192.0,192.0 L 0.0,192.0 L 0.0,0.0" fill="#0589D1"/>
	<path d="M 0.0,0.0 L 192.0,0.0 L 192.0,192.0 L 0.0,192.0 L 0.0,0.0 M 88.0,16.0 L 79.0,17.0 L 64.0,22.0 L 50.0,30.0 L 39.0,39.0 L 29.0,51.0 L 21.0,67.0 L 17.0,79.0 L 16.0,88.0 L 16.0,105.0 L 18.0,117.0 L 24.0,132.0 L 30.0,142.0 L 39.0,153.0 L 51.0,163.0 L 66.0,171.0 L 79.0,175.0 L 86.0,176.0 L 106.0,176.0 L 119.0,173.0 L 132.0,168.0 L 142.0,162.0 L 153.0,153.0 L 163.0,141.0 L 171.0,125.0 L 175.0,112.0 L 176.0,106.0 L 176.0,86.0 L 173.0,72.0 L 168.0,60.0 L 162.0,50.0 L 153.0,39.0 L 141.0,29.0 L 125.0,21.0 L 112.0,17.0 L 105.0,16.0 L 88.0,16.0" fill="#FCFEFE"/>
	<path d="M 93.0,73.0 L 111.0,74.0 L 111.0,83.0 L 120.0,77.0 L 123.0,76.0 L 134.0,76.0 L 144.0,81.0 L 151.0,89.0 L 153.0,94.0 L 153.0,108.0 L 150.0,144.0 L 140.0,144.0 L 132.0,143.0 L 133.0,120.0 L 134.0,102.0 L 131.0,97.0 L 126.0,94.0 L 118.0,94.0 L 112.0,98.0 L 109.0,104.0 L 106.0,140.0 L 94.0,140.0 L 88.0,139.0 L 89.0,118.0 L 93.0,73.0" fill="#F8FCFD"/>
	<path d="M 63.0,71.0 L 80.0,71.0 L 80.0,85.0 L 75.0,137.0 L 63.0,137.0 L 58.0,136.0 L 58.0,119.0 L 62.0,76.0 L 63.0,71.0" fill="#F9FCFD"/>
	<path d="M 69.0,45.0 L 77.0,45.0 L 82.0,50.0 L 82.0,57.0 L 77.0,62.0 L 69.0,62.0 L 65.0,58.0 L 65.0,49.0 L 69.0,45.0" fill="#F9FCFD"/>
</svg>
