<?xml version="1.0" ?>
<svg baseProfile="full" height="600px" version="1.1" viewBox="-20.1 -20.1 240.2 240.2" width="600px" xmlns="http://www.w3.org/2000/svg" xmlns:ev="http://www.w3.org/2001/xml-events" xmlns:xlink="http://www.w3.org/1999/xlink">
	<defs/>
	<path d="M 0.0,0.0 L 200.0,0.0 L 200.0,200.0 L 0.0,200.0 L 0.0,0.0" fill="#FBFBFB"/>
	<path d="M 0.0,0.0 L 200.0,0.0 L 200.0,200.0 L 0.0,200.0 L 0.0,0.0 M 85.0,1.0 L 66.0,6.0 L 49.0,14.0 L 38.0,22.0 L 28.0,31.0 L 20.0,40.0 L 12.0,53.0 L 6.0,66.0 L 1.0,85.0 L 1.0,112.0 L 4.0,127.0 L 10.0,143.0 L 16.0,154.0 L 26.0,167.0 L 35.0,176.0 L 49.0,186.0 L 66.0,194.0 L 81.0,198.0 L 86.0,199.0 L 111.0,199.0 L 127.0,196.0 L 143.0,190.0 L 154.0,184.0 L 167.0,174.0 L 176.0,165.0 L 186.0,151.0 L 193.0,136.0 L 197.0,123.0 L 199.0,115.0 L 199.0,86.0 L 195.0,69.0 L 188.0,53.0 L 179.0,39.0 L 168.0,27.0 L 157.0,18.0 L 143.0,10.0 L 127.0,4.0 L 112.0,1.0 L 85.0,1.0" fill="#FBFBFB"/>
	<path d="M 85.0,1.0 L 112.0,1.0 L 127.0,4.0 L 143.0,10.0 L 154.0,16.0 L 167.0,26.0 L 176.0,35.0 L 186.0,49.0 L 194.0,66.0 L 198.0,81.0 L 199.0,86.0 L 199.0,115.0 L 193.0,136.0 L 185.0,152.0 L 178.0,162.0 L 169.0,172.0 L 160.0,180.0 L 147.0,188.0 L 136.0,193.0 L 123.0,197.0 L 111.0,199.0 L 86.0,199.0 L 69.0,195.0 L 53.0,188.0 L 39.0,179.0 L 27.0,168.0 L 18.0,157.0 L 10.0,143.0 L 4.0,127.0 L 1.0,112.0 L 1.0,85.0 L 6.0,66.0 L 14.0,49.0 L 22.0,38.0 L 31.0,28.0 L 40.0,20.0 L 53.0,12.0 L 66.0,6.0 L 85.0,1.0 M 94.0,9.0 L 81.0,11.0 L 69.0,14.0 L 53.0,22.0 L 42.0,30.0 L 32.0,39.0 L 22.0,53.0 L 14.0,69.0 L 10.0,84.0 L 9.0,94.0 L 9.0,109.0 L 14.0,130.0 L 20.0,144.0 L 29.0,157.0 L 39.0,168.0 L 53.0,178.0 L 69.0,186.0 L 84.0,190.0 L 94.0,191.0 L 106.0,191.0 L 123.0,188.0 L 138.0,183.0 L 152.0,175.0 L 165.0,164.0 L 175.0,152.0 L 183.0,138.0 L 189.0,120.0 L 191.0,106.0 L 191.0,94.0 L 189.0,81.0 L 186.0,69.0 L 178.0,53.0 L 170.0,42.0 L 161.0,32.0 L 147.0,22.0 L 133.0,15.0 L 114.0,10.0 L 109.0,9.0 L 94.0,9.0" fill="#060606"/>
	<path d="M 83.0,72.0 L 107.0,72.0 L 109.0,76.0 L 115.0,73.0 L 120.0,72.0 L 133.0,72.0 L 144.0,76.0 L 154.0,85.0 L 160.0,95.0 L 161.0,98.0 L 161.0,150.0 L 159.0,152.0 L 136.0,152.0 L 133.0,149.0 L 132.0,108.0 L 130.0,103.0 L 124.0,101.0 L 117.0,101.0 L 112.0,105.0 L 110.0,109.0 L 109.0,150.0 L 107.0,152.0 L 84.0,152.0 L 81.0,149.0 L 81.0,74.0 L 83.0,72.0" fill="#050505"/>
	<path d="M 45.0,72.0 L 70.0,72.0 L 72.0,75.0 L 72.0,149.0 L 69.0,152.0 L 46.0,152.0 L 43.0,149.0 L 43.0,75.0 L 45.0,72.0" fill="#0B0B0B"/>
	<path d="M 91.0,81.0 L 100.0,81.0 L 102.0,88.0 L 107.0,89.0 L 115.0,83.0 L 120.0,81.0 L 131.0,81.0 L 140.0,85.0 L 147.0,91.0 L 152.0,101.0 L 152.0,142.0 L 142.0,142.0 L 141.0,105.0 L 136.0,97.0 L 130.0,93.0 L 127.0,92.0 L 114.0,92.0 L 108.0,96.0 L 103.0,102.0 L 101.0,106.0 L 100.0,142.0 L 91.0,142.0 L 91.0,81.0" fill="#F6F6F6"/>
	<path d="M 52.0,39.0 L 62.0,39.0 L 67.0,42.0 L 71.0,47.0 L 72.0,49.0 L 72.0,56.0 L 67.0,64.0 L 62.0,67.0 L 53.0,67.0 L 46.0,62.0 L 43.0,56.0 L 43.0,49.0 L 47.0,43.0 L 52.0,39.0" fill="#090909"/>
	<path d="M 53.0,81.0 L 62.0,81.0 L 62.0,142.0 L 53.0,142.0 L 53.0,81.0" fill="#FDFDFD"/>
	<path d="M 55.0,48.0 L 61.0,49.0 L 62.0,50.0 L 62.0,55.0 L 60.0,57.0 L 55.0,57.0 L 53.0,55.0 L 53.0,50.0 L 55.0,48.0" fill="#F2F2F2"/>
</svg>
