<?xml version="1.0" ?>
<svg baseProfile="full" height="600px" version="1.1" viewBox="-19.296000000000003 -19.296000000000003 230.592 230.592" width="600px" xmlns="http://www.w3.org/2000/svg" xmlns:ev="http://www.w3.org/2001/xml-events" xmlns:xlink="http://www.w3.org/1999/xlink">
	<defs/>
	<path d="M 0.0,0.0 L 192.0,0.0 L 192.0,192.0 L 0.0,192.0 L 0.0,0.0" fill="#0589D1"/>
	<path d="M 0.0,0.0 L 192.0,0.0 L 192.0,192.0 L 0.0,192.0 L 0.0,0.0 M 88.0,16.0 L 75.0,18.0 L 60.0,24.0 L 50.0,30.0 L 39.0,39.0 L 29.0,51.0 L 21.0,67.0 L 17.0,79.0 L 16.0,88.0 L 16.0,105.0 L 18.0,117.0 L 24.0,132.0 L 30.0,142.0 L 39.0,153.0 L 51.0,163.0 L 66.0,171.0 L 79.0,175.0 L 86.0,176.0 L 107.0,176.0 L 128.0,170.0 L 142.0,162.0 L 153.0,153.0 L 163.0,141.0 L 171.0,125.0 L 175.0,112.0 L 176.0,106.0 L 176.0,86.0 L 173.0,72.0 L 168.0,60.0 L 162.0,50.0 L 153.0,39.0 L 141.0,29.0 L 125.0,21.0 L 112.0,17.0 L 105.0,16.0 L 88.0,16.0" fill="#FCFDFE"/>
	<path d="M 85.0,76.0 L 101.0,76.0 L 101.0,84.0 L 110.0,78.0 L 113.0,77.0 L 121.0,77.0 L 131.0,81.0 L 138.0,89.0 L 140.0,94.0 L 140.0,107.0 L 138.0,138.0 L 122.0,138.0 L 122.0,100.0 L 117.0,95.0 L 108.0,94.0 L 102.0,98.0 L 100.0,102.0 L 98.0,136.0 L 82.0,135.0 L 82.0,117.0 L 84.0,85.0 L 85.0,76.0" fill="#F9FCFD"/>
	<path d="M 57.0,74.0 L 73.0,74.0 L 73.0,90.0 L 70.0,134.0 L 54.0,134.0 L 54.0,121.0 L 56.0,89.0 L 57.0,74.0" fill="#F9FCFD"/>
	<path d="M 63.0,50.0 L 69.0,50.0 L 74.0,54.0 L 74.0,62.0 L 69.0,66.0 L 63.0,66.0 L 58.0,61.0 L 58.0,55.0 L 63.0,50.0" fill="#F3F9FC"/>
</svg>
