<?xml version="1.0" ?>
<svg baseProfile="full" height="600px" version="1.1" viewBox="-20.1 -20.1 240.2 240.2" width="600px" xmlns="http://www.w3.org/2000/svg" xmlns:ev="http://www.w3.org/2001/xml-events" xmlns:xlink="http://www.w3.org/1999/xlink">
	<defs/>
	<path d="M 0.0,0.0 L 200.0,0.0 L 200.0,200.0 L 0.0,200.0 L 0.0,0.0" fill="#FDFDFD"/>
	<path d="M 76.0,59.0 L 87.0,59.0 L 99.0,65.0 L 104.0,63.0 L 113.0,59.0 L 122.0,59.0 L 132.0,62.0 L 145.0,69.0 L 162.0,81.0 L 178.0,89.0 L 178.0,94.0 L 170.0,101.0 L 158.0,119.0 L 151.0,128.0 L 142.0,138.0 L 132.0,145.0 L 121.0,150.0 L 109.0,153.0 L 90.0,153.0 L 76.0,149.0 L 63.0,142.0 L 51.0,131.0 L 40.0,116.0 L 32.0,104.0 L 27.0,98.0 L 22.0,95.0 L 22.0,89.0 L 38.0,81.0 L 58.0,67.0 L 70.0,61.0 L 76.0,59.0" fill="#080808"/>
	<path d="M 77.0,67.0 L 85.0,67.0 L 95.0,72.0 L 96.0,73.0 L 104.0,73.0 L 112.0,68.0 L 114.0,67.0 L 123.0,67.0 L 139.0,75.0 L 164.0,92.0 L 161.0,94.0 L 154.0,97.0 L 129.0,102.0 L 109.0,104.0 L 89.0,104.0 L 70.0,102.0 L 47.0,97.0 L 36.0,93.0 L 36.0,91.0 L 47.0,85.0 L 62.0,74.0 L 74.0,68.0 L 77.0,67.0" fill="#FAFAFA"/>
	<path d="M 157.0,103.0 L 157.0,106.0 L 147.0,120.0 L 138.0,130.0 L 130.0,137.0 L 119.0,142.0 L 113.0,144.0 L 106.0,145.0 L 91.0,145.0 L 78.0,141.0 L 67.0,135.0 L 55.0,123.0 L 43.0,106.0 L 43.0,104.0 L 61.0,108.0 L 82.0,111.0 L 118.0,111.0 L 138.0,108.0 L 154.0,104.0 L 157.0,103.0" fill="#FBFBFB"/>
</svg>
