<?xml version="1.0" ?>
<svg baseProfile="full" height="600px" version="1.1" viewBox="-20.1 -20.1 240.2 240.2" width="600px" xmlns="http://www.w3.org/2000/svg" xmlns:ev="http://www.w3.org/2001/xml-events" xmlns:xlink="http://www.w3.org/1999/xlink">
	<defs/>
	<path d="M 0.0,0.0 L 200.0,0.0 L 200.0,200.0 L 0.0,200.0 L 0.0,0.0" fill="#FDFDFD"/>
	<path d="M 42.0,154.0 L 190.0,154.0 L 192.0,156.0 L 191.0,161.0 L 190.0,162.0 L 42.0,162.0 L 40.0,160.0 L 41.0,155.0 L 42.0,154.0" fill="#010101"/>
	<path d="M 42.0,114.0 L 190.0,114.0 L 192.0,116.0 L 191.0,121.0 L 190.0,122.0 L 42.0,122.0 L 40.0,120.0 L 41.0,115.0 L 42.0,114.0" fill="#010101"/>
	<path d="M 42.0,74.0 L 190.0,74.0 L 192.0,76.0 L 191.0,81.0 L 190.0,82.0 L 42.0,82.0 L 40.0,80.0 L 41.0,75.0 L 42.0,74.0" fill="#010101"/>
	<path d="M 42.0,34.0 L 190.0,34.0 L 192.0,36.0 L 191.0,41.0 L 190.0,42.0 L 42.0,42.0 L 40.0,40.0 L 41.0,35.0 L 42.0,34.0" fill="#010101"/>
	<path d="M 10.0,146.0 L 30.0,146.0 L 32.0,148.0 L 32.0,168.0 L 30.0,170.0 L 10.0,170.0 L 8.0,168.0 L 8.0,148.0 L 10.0,146.0" fill="#020202"/>
	<path d="M 10.0,106.0 L 30.0,106.0 L 32.0,108.0 L 32.0,128.0 L 30.0,130.0 L 10.0,130.0 L 8.0,128.0 L 8.0,108.0 L 10.0,106.0" fill="#020202"/>
	<path d="M 10.0,66.0 L 30.0,66.0 L 32.0,68.0 L 32.0,88.0 L 30.0,90.0 L 10.0,90.0 L 8.0,88.0 L 8.0,68.0 L 10.0,66.0" fill="#020202"/>
	<path d="M 10.0,26.0 L 30.0,26.0 L 32.0,28.0 L 32.0,48.0 L 30.0,50.0 L 10.0,50.0 L 8.0,48.0 L 8.0,28.0 L 10.0,26.0" fill="#020202"/>
	<path d="M 16.0,154.0 L 24.0,154.0 L 24.0,162.0 L 16.0,162.0 L 16.0,154.0" fill="#F9F9F9"/>
	<path d="M 16.0,114.0 L 24.0,114.0 L 24.0,122.0 L 16.0,122.0 L 16.0,114.0" fill="#F9F9F9"/>
	<path d="M 16.0,74.0 L 24.0,74.0 L 24.0,82.0 L 16.0,82.0 L 16.0,74.0" fill="#F9F9F9"/>
	<path d="M 16.0,34.0 L 24.0,34.0 L 24.0,42.0 L 16.0,42.0 L 16.0,34.0" fill="#F9F9F9"/>
</svg>
