<?xml version="1.0" ?>
<svg baseProfile="full" height="600px" version="1.1" viewBox="-20.1 -20.1 240.2 240.2" width="600px" xmlns="http://www.w3.org/2000/svg" xmlns:ev="http://www.w3.org/2001/xml-events" xmlns:xlink="http://www.w3.org/1999/xlink">
	<defs/>
	<path d="M 0.0,0.0 L 200.0,0.0 L 200.0,200.0 L 0.0,200.0 L 0.0,0.0" fill="#FBFBFB"/>
	<path d="M 42.0,141.0 L 190.0,141.0 L 192.0,143.0 L 191.0,149.0 L 41.0,149.0 L 40.0,143.0 L 42.0,141.0" fill="#0D0D0D"/>
	<path d="M 42.0,101.0 L 190.0,101.0 L 192.0,103.0 L 191.0,109.0 L 41.0,109.0 L 40.0,103.0 L 42.0,101.0" fill="#0D0D0D"/>
	<path d="M 42.0,61.0 L 190.0,61.0 L 192.0,63.0 L 191.0,69.0 L 41.0,69.0 L 40.0,63.0 L 42.0,61.0" fill="#0D0D0D"/>
	<path d="M 10.0,133.0 L 30.0,133.0 L 32.0,135.0 L 32.0,155.0 L 31.0,157.0 L 9.0,157.0 L 8.0,155.0 L 8.0,135.0 L 10.0,133.0" fill="#070707"/>
	<path d="M 10.0,93.0 L 30.0,93.0 L 32.0,95.0 L 32.0,115.0 L 31.0,117.0 L 9.0,117.0 L 8.0,115.0 L 8.0,95.0 L 10.0,93.0" fill="#070707"/>
	<path d="M 10.0,53.0 L 30.0,53.0 L 32.0,55.0 L 32.0,75.0 L 31.0,77.0 L 9.0,77.0 L 8.0,75.0 L 8.0,55.0 L 10.0,53.0" fill="#070707"/>
	<path d="M 16.0,141.0 L 24.0,141.0 L 24.0,149.0 L 16.0,149.0 L 16.0,141.0" fill="#EDEDED"/>
	<path d="M 16.0,101.0 L 24.0,101.0 L 24.0,109.0 L 16.0,109.0 L 16.0,101.0" fill="#EDEDED"/>
	<path d="M 16.0,61.0 L 24.0,61.0 L 24.0,69.0 L 16.0,69.0 L 16.0,61.0" fill="#EDEDED"/>
</svg>
