<?xml version="1.0" ?>
<svg baseProfile="full" height="600px" version="1.1" viewBox="-12.864 -12.864 153.728 153.728" width="600px" xmlns="http://www.w3.org/2000/svg" xmlns:ev="http://www.w3.org/2001/xml-events" xmlns:xlink="http://www.w3.org/1999/xlink">
	<defs/>
	<path d="M 0.0,0.0 L 128.0,0.0 L 128.0,128.0 L 0.0,128.0 L 0.0,0.0" fill="#FFFFFF"/>
	<path d="M 8.0,36.0 L 120.0,36.0 L 120.0,92.0 L 8.0,92.0 L 8.0,36.0" fill="#FDFDFD"/>
	<path d="M 8.0,36.0 L 120.0,36.0 L 120.0,92.0 L 8.0,92.0 L 8.0,36.0 M 16.0,44.0 L 16.0,84.0 L 112.0,84.0 L 112.0,44.0 L 16.0,44.0" fill="#000000"/>
	<path d="M 24.0,52.0 L 57.0,52.0 L 57.0,76.0 L 24.0,76.0 L 24.0,52.0" fill="#000000"/>
	<path d="M 32.0,60.0 L 49.0,60.0 L 49.0,68.0 L 32.0,68.0 L 32.0,60.0" fill="#FDFDFD"/>
</svg>
