<?xml version="1.0" ?>
<svg baseProfile="full" height="600px" version="1.1" viewBox="-20.1 -20.1 240.2 240.2" width="600px" xmlns="http://www.w3.org/2000/svg" xmlns:ev="http://www.w3.org/2001/xml-events" xmlns:xlink="http://www.w3.org/1999/xlink">
	<defs/>
	<path d="M 0.0,0.0 L 200.0,0.0 L 200.0,200.0 L 0.0,200.0 L 0.0,0.0" fill="#FCFCFC"/>
	<path d="M 66.0,46.0 L 79.0,46.0 L 88.0,48.0 L 102.0,55.0 L 111.0,64.0 L 111.0,66.0 L 125.0,59.0 L 128.0,58.0 L 139.0,58.0 L 150.0,61.0 L 158.0,67.0 L 163.0,73.0 L 167.0,81.0 L 168.0,84.0 L 168.0,94.0 L 174.0,95.0 L 182.0,101.0 L 190.0,110.0 L 194.0,120.0 L 194.0,132.0 L 192.0,141.0 L 188.0,149.0 L 183.0,155.0 L 174.0,161.0 L 164.0,164.0 L 150.0,164.0 L 148.0,162.0 L 149.0,157.0 L 150.0,156.0 L 164.0,155.0 L 173.0,151.0 L 180.0,145.0 L 184.0,136.0 L 185.0,133.0 L 185.0,122.0 L 181.0,113.0 L 176.0,107.0 L 167.0,102.0 L 161.0,100.0 L 160.0,99.0 L 159.0,86.0 L 155.0,77.0 L 150.0,72.0 L 143.0,68.0 L 140.0,67.0 L 129.0,67.0 L 119.0,72.0 L 114.0,78.0 L 109.0,78.0 L 102.0,67.0 L 93.0,60.0 L 84.0,56.0 L 80.0,55.0 L 67.0,55.0 L 56.0,59.0 L 47.0,66.0 L 41.0,75.0 L 37.0,85.0 L 36.0,95.0 L 32.0,99.0 L 23.0,105.0 L 17.0,114.0 L 15.0,121.0 L 15.0,132.0 L 19.0,142.0 L 25.0,149.0 L 34.0,154.0 L 50.0,156.0 L 52.0,158.0 L 51.0,163.0 L 50.0,164.0 L 36.0,164.0 L 24.0,159.0 L 14.0,150.0 L 8.0,140.0 L 6.0,131.0 L 6.0,118.0 L 11.0,106.0 L 20.0,96.0 L 26.0,92.0 L 28.0,92.0 L 28.0,84.0 L 32.0,72.0 L 39.0,62.0 L 47.0,54.0 L 58.0,48.0 L 66.0,46.0" fill="#070707"/>
	<path d="M 92.0,120.0 L 105.0,120.0 L 116.0,123.0 L 126.0,129.0 L 134.0,138.0 L 138.0,146.0 L 140.0,152.0 L 140.0,165.0 L 139.0,167.0 L 133.0,167.0 L 132.0,166.0 L 131.0,153.0 L 127.0,144.0 L 121.0,136.0 L 109.0,130.0 L 106.0,129.0 L 93.0,129.0 L 84.0,133.0 L 76.0,139.0 L 70.0,150.0 L 69.0,155.0 L 69.0,166.0 L 74.0,178.0 L 79.0,184.0 L 88.0,189.0 L 95.0,191.0 L 106.0,191.0 L 114.0,188.0 L 119.0,188.0 L 121.0,190.0 L 120.0,195.0 L 112.0,199.0 L 106.0,200.0 L 94.0,200.0 L 81.0,196.0 L 72.0,189.0 L 66.0,182.0 L 62.0,174.0 L 60.0,165.0 L 60.0,152.0 L 64.0,141.0 L 71.0,132.0 L 78.0,126.0 L 88.0,121.0 L 92.0,120.0" fill="#070707"/>
</svg>
