<?xml version="1.0" ?>
<svg baseProfile="full" height="600px" version="1.1" viewBox="-20.1 -20.1 240.2 240.2" width="600px" xmlns="http://www.w3.org/2000/svg" xmlns:ev="http://www.w3.org/2001/xml-events" xmlns:xlink="http://www.w3.org/1999/xlink">
	<defs/>
	<path d="M 0.0,0.0 L 200.0,0.0 L 200.0,200.0 L 0.0,200.0 L 0.0,0.0" fill="#FDFDFD"/>
	<path d="M 117.0,48.0 L 133.0,48.0 L 146.0,53.0 L 154.0,59.0 L 162.0,68.0 L 167.0,79.0 L 168.0,83.0 L 168.0,93.0 L 177.0,95.0 L 188.0,103.0 L 195.0,114.0 L 197.0,120.0 L 197.0,135.0 L 193.0,146.0 L 185.0,156.0 L 177.0,161.0 L 166.0,164.0 L 150.0,164.0 L 148.0,162.0 L 149.0,157.0 L 150.0,156.0 L 167.0,155.0 L 176.0,151.0 L 183.0,145.0 L 187.0,137.0 L 188.0,134.0 L 188.0,121.0 L 183.0,111.0 L 176.0,105.0 L 166.0,101.0 L 161.0,99.0 L 160.0,98.0 L 159.0,84.0 L 154.0,72.0 L 147.0,64.0 L 138.0,59.0 L 130.0,57.0 L 118.0,57.0 L 108.0,61.0 L 99.0,68.0 L 94.0,76.0 L 89.0,76.0 L 84.0,70.0 L 70.0,63.0 L 59.0,63.0 L 50.0,66.0 L 41.0,74.0 L 37.0,82.0 L 35.0,94.0 L 33.0,97.0 L 23.0,102.0 L 15.0,111.0 L 12.0,119.0 L 12.0,131.0 L 16.0,141.0 L 20.0,147.0 L 29.0,153.0 L 35.0,155.0 L 50.0,156.0 L 52.0,158.0 L 51.0,163.0 L 50.0,164.0 L 34.0,164.0 L 23.0,160.0 L 14.0,153.0 L 7.0,144.0 L 3.0,132.0 L 3.0,118.0 L 7.0,107.0 L 14.0,98.0 L 24.0,91.0 L 26.0,90.0 L 29.0,78.0 L 33.0,70.0 L 40.0,62.0 L 50.0,56.0 L 56.0,54.0 L 69.0,54.0 L 77.0,56.0 L 88.0,62.0 L 91.0,64.0 L 99.0,56.0 L 113.0,49.0 L 117.0,48.0" fill="#080808"/>
	<path d="M 129.0,136.0 L 133.0,137.0 L 137.0,143.0 L 140.0,152.0 L 140.0,167.0 L 137.0,176.0 L 131.0,186.0 L 122.0,194.0 L 114.0,198.0 L 110.0,199.0 L 103.0,199.0 L 102.0,198.0 L 102.0,193.0 L 114.0,188.0 L 123.0,182.0 L 129.0,172.0 L 131.0,165.0 L 131.0,153.0 L 127.0,144.0 L 126.0,138.0 L 129.0,136.0" fill="#090909"/>
</svg>
