<?xml version="1.0" ?>
<svg baseProfile="full" height="600px" version="1.1" viewBox="-20.1 -20.1 240.2 240.2" width="600px" xmlns="http://www.w3.org/2000/svg" xmlns:ev="http://www.w3.org/2001/xml-events" xmlns:xlink="http://www.w3.org/1999/xlink">
	<defs/>
	<path d="M 0.0,0.0 L 200.0,0.0 L 200.0,200.0 L 0.0,200.0 L 0.0,0.0" fill="#FBFBFB"/>
	<path d="M 0.0,0.0 L 200.0,0.0 L 200.0,70.0 L 197.0,66.0 L 192.0,60.0 L 185.0,57.0 L 16.0,57.0 L 9.0,60.0 L 4.0,65.0 L 1.0,71.0 L 0.0,71.0 L 0.0,0.0" fill="#FDFDFD"/>
	<path d="M 0.0,133.0 L 2.0,136.0 L 7.0,143.0 L 15.0,147.0 L 185.0,147.0 L 193.0,143.0 L 197.0,138.0 L 199.0,133.0 L 200.0,133.0 L 200.0,200.0 L 0.0,200.0 L 0.0,133.0" fill="#FDFDFD"/>
	<path d="M 109.0,64.0 L 182.0,64.0 L 188.0,67.0 L 192.0,73.0 L 192.0,130.0 L 189.0,136.0 L 185.0,139.0 L 182.0,140.0 L 109.0,140.0 L 109.0,64.0" fill="#FDFDFD"/>
	<path d="M 16.0,56.0 L 185.0,56.0 L 193.0,60.0 L 198.0,66.0 L 200.0,70.0 L 200.0,133.0 L 196.0,141.0 L 190.0,146.0 L 185.0,148.0 L 15.0,148.0 L 7.0,144.0 L 1.0,136.0 L 0.0,133.0 L 0.0,71.0 L 4.0,63.0 L 12.0,57.0 L 16.0,56.0 M 16.0,64.0 L 9.0,70.0 L 8.0,72.0 L 8.0,131.0 L 11.0,136.0 L 16.0,140.0 L 100.0,140.0 L 100.0,136.0 L 97.0,134.0 L 98.0,129.0 L 101.0,128.0 L 101.0,112.0 L 97.0,110.0 L 98.0,105.0 L 101.0,104.0 L 101.0,88.0 L 97.0,86.0 L 98.0,81.0 L 101.0,80.0 L 101.0,64.0 L 16.0,64.0 M 109.0,64.0 L 109.0,140.0 L 182.0,140.0 L 188.0,137.0 L 191.0,133.0 L 192.0,130.0 L 192.0,73.0 L 188.0,67.0 L 182.0,64.0 L 109.0,64.0" fill="#030303"/>
	<path d="M 74.0,128.0 L 79.0,129.0 L 80.0,134.0 L 78.0,136.0 L 73.0,135.0 L 72.0,130.0 L 74.0,128.0" fill="#0C0C0C"/>
	<path d="M 50.0,128.0 L 55.0,129.0 L 56.0,134.0 L 54.0,136.0 L 49.0,135.0 L 48.0,130.0 L 50.0,128.0" fill="#0C0C0C"/>
	<path d="M 26.0,128.0 L 31.0,129.0 L 32.0,134.0 L 30.0,136.0 L 25.0,135.0 L 24.0,130.0 L 26.0,128.0" fill="#0C0C0C"/>
	<path d="M 86.0,116.0 L 91.0,117.0 L 92.0,122.0 L 90.0,124.0 L 85.0,123.0 L 84.0,118.0 L 86.0,116.0" fill="#0C0C0C"/>
	<path d="M 62.0,116.0 L 67.0,117.0 L 68.0,122.0 L 66.0,124.0 L 61.0,123.0 L 60.0,118.0 L 62.0,116.0" fill="#0C0C0C"/>
	<path d="M 38.0,116.0 L 43.0,117.0 L 44.0,122.0 L 42.0,124.0 L 37.0,123.0 L 36.0,118.0 L 38.0,116.0" fill="#0C0C0C"/>
	<path d="M 14.0,116.0 L 19.0,117.0 L 20.0,122.0 L 18.0,124.0 L 13.0,123.0 L 12.0,118.0 L 14.0,116.0" fill="#0C0C0C"/>
	<path d="M 74.0,104.0 L 79.0,105.0 L 80.0,110.0 L 78.0,112.0 L 73.0,111.0 L 72.0,106.0 L 74.0,104.0" fill="#0C0C0C"/>
	<path d="M 50.0,104.0 L 55.0,105.0 L 56.0,110.0 L 54.0,112.0 L 49.0,111.0 L 48.0,106.0 L 50.0,104.0" fill="#0C0C0C"/>
	<path d="M 26.0,104.0 L 31.0,105.0 L 32.0,110.0 L 30.0,112.0 L 25.0,111.0 L 24.0,106.0 L 26.0,104.0" fill="#0C0C0C"/>
	<path d="M 86.0,92.0 L 91.0,93.0 L 92.0,98.0 L 90.0,100.0 L 85.0,99.0 L 84.0,94.0 L 86.0,92.0" fill="#0C0C0C"/>
	<path d="M 62.0,92.0 L 67.0,93.0 L 68.0,98.0 L 66.0,100.0 L 61.0,99.0 L 60.0,94.0 L 62.0,92.0" fill="#0C0C0C"/>
	<path d="M 38.0,92.0 L 43.0,93.0 L 44.0,98.0 L 42.0,100.0 L 37.0,99.0 L 36.0,94.0 L 38.0,92.0" fill="#0C0C0C"/>
	<path d="M 14.0,92.0 L 19.0,93.0 L 20.0,98.0 L 18.0,100.0 L 13.0,99.0 L 12.0,94.0 L 14.0,92.0" fill="#0C0C0C"/>
	<path d="M 74.0,80.0 L 79.0,81.0 L 80.0,86.0 L 78.0,88.0 L 73.0,87.0 L 72.0,82.0 L 74.0,80.0" fill="#0C0C0C"/>
	<path d="M 50.0,80.0 L 55.0,81.0 L 56.0,86.0 L 54.0,88.0 L 49.0,87.0 L 48.0,82.0 L 50.0,80.0" fill="#0C0C0C"/>
	<path d="M 26.0,80.0 L 31.0,81.0 L 32.0,86.0 L 30.0,88.0 L 25.0,87.0 L 24.0,82.0 L 26.0,80.0" fill="#0C0C0C"/>
	<path d="M 86.0,68.0 L 91.0,69.0 L 92.0,74.0 L 90.0,76.0 L 85.0,75.0 L 84.0,70.0 L 86.0,68.0" fill="#0C0C0C"/>
	<path d="M 62.0,68.0 L 67.0,69.0 L 68.0,74.0 L 66.0,76.0 L 61.0,75.0 L 60.0,70.0 L 62.0,68.0" fill="#0C0C0C"/>
	<path d="M 38.0,68.0 L 43.0,69.0 L 44.0,74.0 L 42.0,76.0 L 37.0,75.0 L 36.0,70.0 L 38.0,68.0" fill="#0C0C0C"/>
	<path d="M 14.0,68.0 L 19.0,69.0 L 20.0,74.0 L 18.0,76.0 L 13.0,75.0 L 12.0,70.0 L 14.0,68.0" fill="#0C0C0C"/>
</svg>
