<?xml version="1.0" ?>
<svg baseProfile="full" height="600px" version="1.1" viewBox="-20.1 -20.1 240.2 240.2" width="600px" xmlns="http://www.w3.org/2000/svg" xmlns:ev="http://www.w3.org/2001/xml-events" xmlns:xlink="http://www.w3.org/1999/xlink">
	<defs/>
	<path d="M 0.0,0.0 L 200.0,0.0 L 200.0,200.0 L 0.0,200.0 L 0.0,0.0" fill="#FCFCFC"/>
	<path d="M 0.0,0.0 L 200.0,0.0 L 200.0,120.0 L 198.0,117.0 L 193.0,107.0 L 189.0,102.0 L 182.0,97.0 L 174.0,94.0 L 168.0,93.0 L 167.0,79.0 L 163.0,66.0 L 156.0,55.0 L 148.0,47.0 L 137.0,41.0 L 125.0,37.0 L 107.0,37.0 L 95.0,41.0 L 84.0,48.0 L 77.0,55.0 L 71.0,65.0 L 66.0,64.0 L 57.0,61.0 L 46.0,61.0 L 37.0,65.0 L 31.0,70.0 L 26.0,80.0 L 24.0,89.0 L 13.0,96.0 L 6.0,104.0 L 1.0,116.0 L 0.0,116.0 L 0.0,0.0" fill="#FDFDFD"/>
	<path d="M 0.0,131.0 L 2.0,135.0 L 6.0,145.0 L 15.0,155.0 L 23.0,160.0 L 32.0,163.0 L 170.0,163.0 L 180.0,160.0 L 188.0,155.0 L 194.0,148.0 L 198.0,138.0 L 199.0,132.0 L 200.0,132.0 L 200.0,200.0 L 0.0,200.0 L 0.0,131.0" fill="#FDFDFD"/>
	<path d="M 107.0,36.0 L 125.0,36.0 L 140.0,41.0 L 150.0,48.0 L 158.0,56.0 L 164.0,66.0 L 168.0,79.0 L 168.0,93.0 L 177.0,94.0 L 185.0,98.0 L 191.0,103.0 L 198.0,114.0 L 200.0,120.0 L 200.0,132.0 L 197.0,144.0 L 191.0,153.0 L 184.0,159.0 L 175.0,163.0 L 170.0,164.0 L 32.0,164.0 L 21.0,160.0 L 13.0,154.0 L 5.0,145.0 L 1.0,135.0 L 0.0,131.0 L 0.0,116.0 L 5.0,104.0 L 14.0,94.0 L 23.0,89.0 L 26.0,77.0 L 32.0,68.0 L 37.0,64.0 L 46.0,60.0 L 57.0,60.0 L 71.0,65.0 L 73.0,60.0 L 79.0,52.0 L 88.0,44.0 L 100.0,38.0 L 107.0,36.0 M 108.0,44.0 L 97.0,48.0 L 86.0,56.0 L 80.0,64.0 L 74.0,75.0 L 69.0,74.0 L 57.0,68.0 L 47.0,68.0 L 39.0,72.0 L 35.0,77.0 L 32.0,85.0 L 31.0,93.0 L 23.0,98.0 L 14.0,105.0 L 9.0,114.0 L 8.0,119.0 L 8.0,130.0 L 12.0,140.0 L 18.0,148.0 L 27.0,154.0 L 33.0,156.0 L 170.0,156.0 L 182.0,151.0 L 188.0,144.0 L 192.0,133.0 L 192.0,122.0 L 188.0,113.0 L 181.0,105.0 L 173.0,101.0 L 162.0,99.0 L 161.0,98.0 L 160.0,80.0 L 156.0,68.0 L 149.0,58.0 L 141.0,51.0 L 133.0,47.0 L 122.0,44.0 L 108.0,44.0" fill="#060606"/>
</svg>
