<?xml version="1.0" ?>
<svg baseProfile="full" height="600px" version="1.1" viewBox="-20.1 -20.1 240.2 240.2" width="600px" xmlns="http://www.w3.org/2000/svg" xmlns:ev="http://www.w3.org/2001/xml-events" xmlns:xlink="http://www.w3.org/1999/xlink">
	<defs/>
	<path d="M 0.0,0.0 L 200.0,0.0 L 200.0,200.0 L 0.0,200.0 L 0.0,0.0" fill="#FDFDFD"/>
	<path d="M 17.0,64.0 L 182.0,64.0 L 188.0,67.0 L 192.0,73.0 L 192.0,130.0 L 189.0,136.0 L 185.0,139.0 L 182.0,140.0 L 17.0,140.0 L 11.0,136.0 L 8.0,130.0 L 8.0,73.0 L 12.0,67.0 L 17.0,64.0" fill="#FDFDFD"/>
	<path d="M 0.0,133.0 L 2.0,136.0 L 6.0,142.0 L 14.0,147.0 L 185.0,147.0 L 193.0,143.0 L 197.0,138.0 L 199.0,133.0 L 200.0,133.0 L 200.0,200.0 L 0.0,200.0 L 0.0,133.0" fill="#FDFDFD"/>
	<path d="M 14.0,56.0 L 185.0,56.0 L 193.0,60.0 L 198.0,66.0 L 200.0,70.0 L 200.0,133.0 L 196.0,141.0 L 190.0,146.0 L 185.0,148.0 L 14.0,148.0 L 6.0,143.0 L 2.0,138.0 L 0.0,133.0 L 0.0,70.0 L 5.0,62.0 L 10.0,58.0 L 14.0,56.0 M 17.0,64.0 L 11.0,68.0 L 8.0,73.0 L 8.0,130.0 L 11.0,136.0 L 17.0,140.0 L 182.0,140.0 L 188.0,137.0 L 191.0,133.0 L 192.0,130.0 L 192.0,73.0 L 188.0,67.0 L 182.0,64.0 L 17.0,64.0" fill="#010101"/>
</svg>
