<?xml version="1.0" ?>
<svg baseProfile="full" height="600px" version="1.1" viewBox="-12.06 -12.06 144.12 144.12" width="600px" xmlns="http://www.w3.org/2000/svg" xmlns:ev="http://www.w3.org/2001/xml-events" xmlns:xlink="http://www.w3.org/1999/xlink">
	<defs/>
	<path d="M 0.0,0.0 L 120.0,0.0 L 120.0,120.0 L 0.0,120.0 L 0.0,0.0" fill="#FDFDFD"/>
	<path d="M 0.0,65.0 L 2.0,68.0 L 7.0,75.0 L 15.0,79.0 L 105.0,79.0 L 113.0,75.0 L 118.0,68.0 L 120.0,65.0 L 120.0,120.0 L 0.0,120.0 L 0.0,65.0" fill="#FDFDFD"/>
	<path d="M 15.0,40.0 L 105.0,40.0 L 113.0,44.0 L 119.0,52.0 L 120.0,55.0 L 120.0,65.0 L 116.0,73.0 L 108.0,79.0 L 105.0,80.0 L 15.0,80.0 L 7.0,76.0 L 1.0,68.0 L 0.0,65.0 L 0.0,55.0 L 4.0,47.0 L 12.0,41.0 L 15.0,40.0" fill="#020202"/>
	<path d="M 52.0,48.0 L 103.0,48.0 L 108.0,51.0 L 112.0,56.0 L 112.0,63.0 L 109.0,68.0 L 106.0,71.0 L 103.0,72.0 L 52.0,72.0 L 52.0,48.0" fill="#FCFCFC"/>
</svg>
