<?xml version="1.0" ?>
<svg baseProfile="full" height="600px" version="1.1" viewBox="-20.1 -20.1 240.2 240.2" width="600px" xmlns="http://www.w3.org/2000/svg" xmlns:ev="http://www.w3.org/2001/xml-events" xmlns:xlink="http://www.w3.org/1999/xlink">
	<defs/>
	<path d="M 0.0,0.0 L 200.0,0.0 L 200.0,200.0 L 0.0,200.0 L 0.0,0.0" fill="#FCFCFC"/>
	<path d="M 92.0,120.0 L 105.0,120.0 L 114.0,122.0 L 125.0,128.0 L 132.0,135.0 L 137.0,143.0 L 140.0,152.0 L 140.0,166.0 L 138.0,174.0 L 132.0,185.0 L 125.0,192.0 L 112.0,199.0 L 106.0,200.0 L 94.0,200.0 L 81.0,196.0 L 72.0,189.0 L 66.0,182.0 L 62.0,174.0 L 60.0,165.0 L 60.0,152.0 L 64.0,142.0 L 70.0,133.0 L 78.0,126.0 L 88.0,121.0 L 92.0,120.0" fill="#FBFBFB"/>
	<path d="M 72.0,40.0 L 89.0,40.0 L 101.0,44.0 L 110.0,49.0 L 120.0,58.0 L 126.0,67.0 L 131.0,66.0 L 136.0,64.0 L 147.0,64.0 L 157.0,68.0 L 164.0,75.0 L 168.0,84.0 L 169.0,94.0 L 178.0,99.0 L 186.0,107.0 L 191.0,117.0 L 192.0,122.0 L 192.0,136.0 L 188.0,146.0 L 181.0,155.0 L 172.0,161.0 L 162.0,164.0 L 150.0,164.0 L 148.0,162.0 L 149.0,157.0 L 150.0,156.0 L 162.0,155.0 L 172.0,151.0 L 180.0,142.0 L 183.0,133.0 L 183.0,122.0 L 179.0,113.0 L 174.0,107.0 L 165.0,102.0 L 160.0,100.0 L 159.0,95.0 L 159.0,85.0 L 154.0,77.0 L 146.0,73.0 L 137.0,73.0 L 129.0,78.0 L 127.0,80.0 L 122.0,79.0 L 117.0,69.0 L 111.0,61.0 L 101.0,54.0 L 88.0,49.0 L 73.0,49.0 L 63.0,52.0 L 53.0,58.0 L 46.0,65.0 L 41.0,73.0 L 37.0,85.0 L 36.0,96.0 L 32.0,100.0 L 24.0,106.0 L 19.0,114.0 L 17.0,121.0 L 17.0,132.0 L 21.0,142.0 L 27.0,149.0 L 36.0,154.0 L 50.0,156.0 L 52.0,158.0 L 51.0,163.0 L 50.0,164.0 L 38.0,164.0 L 26.0,159.0 L 16.0,150.0 L 11.0,142.0 L 8.0,133.0 L 8.0,120.0 L 11.0,110.0 L 17.0,101.0 L 26.0,93.0 L 28.0,93.0 L 28.0,85.0 L 31.0,74.0 L 37.0,62.0 L 47.0,51.0 L 58.0,44.0 L 67.0,41.0 L 72.0,40.0" fill="#070707"/>
	<path d="M 92.0,120.0 L 105.0,120.0 L 114.0,122.0 L 125.0,128.0 L 132.0,135.0 L 137.0,143.0 L 140.0,152.0 L 140.0,166.0 L 138.0,174.0 L 132.0,185.0 L 125.0,192.0 L 112.0,199.0 L 106.0,200.0 L 94.0,200.0 L 81.0,196.0 L 72.0,189.0 L 66.0,182.0 L 62.0,174.0 L 60.0,165.0 L 60.0,152.0 L 64.0,142.0 L 70.0,133.0 L 78.0,126.0 L 88.0,121.0 L 92.0,120.0 M 93.0,128.0 L 84.0,132.0 L 75.0,139.0 L 69.0,150.0 L 68.0,153.0 L 68.0,166.0 L 73.0,178.0 L 78.0,184.0 L 88.0,190.0 L 93.0,192.0 L 106.0,192.0 L 118.0,187.0 L 124.0,182.0 L 130.0,172.0 L 132.0,167.0 L 132.0,153.0 L 126.0,141.0 L 122.0,136.0 L 112.0,130.0 L 106.0,128.0 L 93.0,128.0" fill="#070707"/>
</svg>
