<?xml version="1.0" ?>
<svg baseProfile="full" height="600px" version="1.1" viewBox="-16.08 -16.08 192.16 192.16" width="600px" xmlns="http://www.w3.org/2000/svg" xmlns:ev="http://www.w3.org/2001/xml-events" xmlns:xlink="http://www.w3.org/1999/xlink">
	<defs/>
	<path d="M 0.0,0.0 L 160.0,0.0 L 160.0,160.0 L 0.0,160.0 L 0.0,0.0" fill="#FFFFFF"/>
	<path d="M 4.0,40.0 L 156.0,40.0 L 156.0,124.0 L 4.0,124.0 L 4.0,40.0" fill="#DFE9F0"/>
	<path d="M 4.0,40.0 L 156.0,40.0 L 156.0,124.0 L 4.0,124.0 L 4.0,40.0 M 50.0,44.0 L 50.0,120.0 L 152.0,120.0 L 152.0,44.0 L 50.0,44.0" fill="#89B3EA"/>
	<path d="M 4.0,40.0 L 156.0,40.0 L 156.0,124.0 L 4.0,124.0 L 4.0,40.0 M 8.0,44.0 L 8.0,120.0 L 46.0,120.0 L 46.0,44.0 L 8.0,44.0 M 50.0,44.0 L 50.0,120.0 L 152.0,120.0 L 152.0,44.0 L 50.0,44.0" fill="#798C9D"/>
</svg>
