<?xml version="1.0" ?>
<svg baseProfile="full" height="600px" version="1.1" viewBox="-16.08 -16.08 192.16 192.16" width="600px" xmlns="http://www.w3.org/2000/svg" xmlns:ev="http://www.w3.org/2001/xml-events" xmlns:xlink="http://www.w3.org/1999/xlink">
	<defs/>
	<path d="M 0.0,0.0 L 160.0,0.0 L 160.0,160.0 L 0.0,160.0 L 0.0,0.0" fill="#7B9CC9"/>
	<path d="M 65.0,12.0 L 92.0,12.0 L 102.0,14.0 L 118.0,20.0 L 129.0,27.0 L 131.0,30.0 L 125.0,29.0 L 119.0,25.0 L 112.0,26.0 L 108.0,31.0 L 108.0,36.0 L 113.0,41.0 L 122.0,47.0 L 125.0,51.0 L 125.0,60.0 L 124.0,63.0 L 124.0,74.0 L 128.0,82.0 L 139.0,94.0 L 146.0,98.0 L 152.0,100.0 L 149.0,108.0 L 142.0,120.0 L 130.0,132.0 L 119.0,139.0 L 108.0,144.0 L 98.0,147.0 L 93.0,148.0 L 67.0,148.0 L 54.0,145.0 L 37.0,137.0 L 27.0,129.0 L 18.0,120.0 L 11.0,109.0 L 10.0,105.0 L 21.0,98.0 L 32.0,93.0 L 43.0,88.0 L 49.0,84.0 L 55.0,76.0 L 58.0,69.0 L 72.0,61.0 L 75.0,57.0 L 74.0,50.0 L 66.0,39.0 L 56.0,28.0 L 49.0,25.0 L 36.0,25.0 L 40.0,21.0 L 51.0,16.0 L 65.0,12.0" fill="#C0E6FE"/>
	<path d="M 0.0,85.0 L 1.0,85.0 L 4.0,100.0 L 9.0,112.0 L 16.0,123.0 L 26.0,133.0 L 40.0,142.0 L 53.0,148.0 L 65.0,151.0 L 92.0,151.0 L 107.0,148.0 L 124.0,140.0 L 135.0,132.0 L 144.0,123.0 L 152.0,110.0 L 156.0,100.0 L 159.0,86.0 L 160.0,86.0 L 160.0,160.0 L 0.0,160.0 L 0.0,85.0" fill="#FCFCFD"/>
	<path d="M 0.0,0.0 L 160.0,0.0 L 160.0,72.0 L 159.0,72.0 L 155.0,56.0 L 149.0,44.0 L 142.0,35.0 L 133.0,26.0 L 119.0,17.0 L 103.0,11.0 L 93.0,9.0 L 66.0,9.0 L 50.0,13.0 L 34.0,21.0 L 25.0,28.0 L 15.0,38.0 L 8.0,49.0 L 3.0,62.0 L 1.0,72.0 L 0.0,72.0 L 0.0,0.0" fill="#FCFDFD"/>
	<path d="M 35.0,24.0 L 49.0,24.0 L 57.0,28.0 L 64.0,35.0 L 74.0,48.0 L 76.0,53.0 L 75.0,59.0 L 69.0,64.0 L 58.0,70.0 L 54.0,79.0 L 47.0,87.0 L 35.0,93.0 L 23.0,98.0 L 11.0,105.0 L 9.0,104.0 L 5.0,91.0 L 5.0,70.0 L 7.0,60.0 L 15.0,44.0 L 22.0,35.0 L 33.0,25.0 L 35.0,24.0" fill="#8BB6EF"/>
	<path d="M 114.0,24.0 L 121.0,25.0 L 125.0,28.0 L 132.0,29.0 L 139.0,36.0 L 148.0,49.0 L 153.0,61.0 L 155.0,69.0 L 155.0,90.0 L 152.0,100.0 L 144.0,98.0 L 136.0,92.0 L 126.0,81.0 L 123.0,74.0 L 123.0,63.0 L 124.0,60.0 L 124.0,51.0 L 120.0,46.0 L 110.0,40.0 L 107.0,36.0 L 107.0,31.0 L 112.0,25.0 L 114.0,24.0" fill="#8BB7EF"/>
	<path d="M 149.0,82.0 L 155.0,83.0 L 155.0,90.0 L 153.0,94.0 L 153.0,92.0 L 145.0,92.0 L 145.0,86.0 L 149.0,82.0" fill="#BEE4FD"/>
	<path d="M 122.0,23.0 L 129.0,27.0 L 131.0,30.0 L 125.0,29.0 L 121.0,25.0 L 122.0,23.0" fill="#B8DEFA"/>
</svg>
