<?xml version="1.0" ?>
<svg baseProfile="full" height="600px" version="1.1" viewBox="-16.08 -16.08 192.16 192.16" width="600px" xmlns="http://www.w3.org/2000/svg" xmlns:ev="http://www.w3.org/2001/xml-events" xmlns:xlink="http://www.w3.org/1999/xlink">
	<defs/>
	<path d="M 0.0,0.0 L 160.0,0.0 L 160.0,160.0 L 0.0,160.0 L 0.0,0.0" fill="#8BB6EE"/>
	<path d="M 0.0,0.0 L 160.0,0.0 L 160.0,160.0 L 0.0,160.0 L 0.0,0.0 M 67.0,5.0 L 52.0,9.0 L 38.0,16.0 L 28.0,24.0 L 19.0,33.0 L 10.0,47.0 L 5.0,61.0 L 3.0,71.0 L 3.0,88.0 L 6.0,103.0 L 14.0,119.0 L 22.0,130.0 L 30.0,138.0 L 44.0,147.0 L 55.0,152.0 L 67.0,155.0 L 91.0,155.0 L 107.0,151.0 L 123.0,143.0 L 133.0,135.0 L 140.0,128.0 L 149.0,114.0 L 154.0,102.0 L 157.0,87.0 L 157.0,72.0 L 154.0,57.0 L 149.0,46.0 L 143.0,36.0 L 134.0,26.0 L 125.0,18.0 L 115.0,12.0 L 102.0,7.0 L 90.0,5.0 L 67.0,5.0" fill="#FCFDFD"/>
	<path d="M 94.0,11.0 L 101.0,11.0 L 114.0,16.0 L 118.0,20.0 L 110.0,27.0 L 103.0,37.0 L 101.0,42.0 L 108.0,44.0 L 108.0,47.0 L 97.0,56.0 L 93.0,60.0 L 93.0,65.0 L 88.0,68.0 L 86.0,68.0 L 86.0,75.0 L 82.0,85.0 L 77.0,93.0 L 77.0,101.0 L 81.0,105.0 L 92.0,106.0 L 99.0,109.0 L 102.0,112.0 L 105.0,125.0 L 108.0,132.0 L 109.0,141.0 L 110.0,145.0 L 100.0,149.0 L 90.0,151.0 L 69.0,151.0 L 56.0,148.0 L 51.0,146.0 L 53.0,141.0 L 58.0,137.0 L 63.0,132.0 L 65.0,126.0 L 65.0,117.0 L 53.0,114.0 L 48.0,110.0 L 46.0,105.0 L 41.0,103.0 L 20.0,102.0 L 15.0,97.0 L 13.0,93.0 L 8.0,92.0 L 8.0,85.0 L 11.0,82.0 L 20.0,84.0 L 23.0,87.0 L 23.0,94.0 L 25.0,94.0 L 26.0,81.0 L 29.0,74.0 L 33.0,70.0 L 45.0,67.0 L 54.0,62.0 L 56.0,59.0 L 55.0,53.0 L 49.0,46.0 L 42.0,45.0 L 36.0,49.0 L 29.0,54.0 L 25.0,53.0 L 24.0,52.0 L 24.0,43.0 L 30.0,35.0 L 33.0,32.0 L 39.0,32.0 L 42.0,35.0 L 50.0,35.0 L 51.0,31.0 L 46.0,26.0 L 41.0,23.0 L 38.0,21.0 L 48.0,15.0 L 57.0,12.0 L 66.0,13.0 L 67.0,17.0 L 67.0,26.0 L 66.0,29.0 L 66.0,41.0 L 74.0,37.0 L 87.0,26.0 L 93.0,14.0 L 94.0,11.0" fill="#BFE5FE"/>
	<path d="M 67.0,5.0 L 90.0,5.0 L 102.0,7.0 L 115.0,12.0 L 126.0,19.0 L 136.0,28.0 L 144.0,37.0 L 150.0,47.0 L 154.0,57.0 L 157.0,72.0 L 157.0,87.0 L 154.0,102.0 L 149.0,114.0 L 142.0,125.0 L 133.0,135.0 L 123.0,143.0 L 107.0,151.0 L 91.0,155.0 L 67.0,155.0 L 53.0,151.0 L 37.0,143.0 L 27.0,135.0 L 20.0,128.0 L 11.0,114.0 L 6.0,103.0 L 3.0,88.0 L 3.0,71.0 L 7.0,54.0 L 14.0,40.0 L 22.0,30.0 L 31.0,21.0 L 43.0,13.0 L 58.0,7.0 L 67.0,5.0 M 94.0,11.0 L 89.0,23.0 L 83.0,30.0 L 69.0,40.0 L 66.0,41.0 L 66.0,29.0 L 67.0,26.0 L 67.0,17.0 L 66.0,13.0 L 57.0,12.0 L 47.0,16.0 L 38.0,21.0 L 41.0,23.0 L 48.0,27.0 L 51.0,31.0 L 50.0,35.0 L 42.0,35.0 L 39.0,32.0 L 33.0,32.0 L 25.0,41.0 L 24.0,43.0 L 24.0,52.0 L 26.0,54.0 L 30.0,53.0 L 40.0,46.0 L 47.0,45.0 L 54.0,51.0 L 56.0,56.0 L 55.0,60.0 L 51.0,64.0 L 43.0,68.0 L 33.0,70.0 L 27.0,77.0 L 25.0,90.0 L 25.0,94.0 L 23.0,94.0 L 23.0,87.0 L 20.0,84.0 L 11.0,82.0 L 8.0,85.0 L 8.0,92.0 L 14.0,94.0 L 17.0,99.0 L 20.0,102.0 L 41.0,103.0 L 46.0,105.0 L 49.0,111.0 L 53.0,114.0 L 65.0,117.0 L 65.0,126.0 L 61.0,135.0 L 53.0,141.0 L 51.0,146.0 L 61.0,149.0 L 69.0,151.0 L 90.0,151.0 L 106.0,147.0 L 120.0,140.0 L 130.0,132.0 L 137.0,125.0 L 144.0,115.0 L 150.0,101.0 L 152.0,91.0 L 152.0,68.0 L 149.0,55.0 L 143.0,43.0 L 134.0,31.0 L 124.0,22.0 L 114.0,16.0 L 101.0,11.0 L 94.0,11.0" fill="#7A9CC8"/>
	<path d="M 37.0,22.0 L 44.0,23.0 L 49.0,27.0 L 52.0,31.0 L 51.0,35.0 L 50.0,36.0 L 42.0,36.0 L 39.0,33.0 L 33.0,33.0 L 26.0,41.0 L 25.0,43.0 L 25.0,52.0 L 29.0,53.0 L 40.0,45.0 L 47.0,44.0 L 55.0,51.0 L 57.0,56.0 L 56.0,60.0 L 51.0,65.0 L 43.0,69.0 L 33.0,71.0 L 28.0,77.0 L 25.0,94.0 L 23.0,94.0 L 22.0,87.0 L 17.0,84.0 L 9.0,83.0 L 8.0,89.0 L 7.0,89.0 L 7.0,72.0 L 11.0,56.0 L 15.0,47.0 L 21.0,37.0 L 31.0,26.0 L 37.0,22.0" fill="#8CB7EF"/>
	<path d="M 9.0,92.0 L 14.0,93.0 L 18.0,99.0 L 20.0,101.0 L 41.0,102.0 L 47.0,105.0 L 50.0,111.0 L 57.0,114.0 L 65.0,117.0 L 66.0,119.0 L 66.0,126.0 L 62.0,135.0 L 54.0,141.0 L 51.0,145.0 L 45.0,143.0 L 36.0,137.0 L 26.0,128.0 L 20.0,121.0 L 13.0,109.0 L 10.0,102.0 L 9.0,92.0" fill="#8BB7EF"/>
	<path d="M 68.0,9.0 L 89.0,9.0 L 98.0,10.0 L 94.0,11.0 L 93.0,17.0 L 88.0,26.0 L 79.0,34.0 L 69.0,41.0 L 66.0,41.0 L 65.0,38.0 L 65.0,29.0 L 66.0,26.0 L 66.0,13.0 L 60.0,13.0 L 58.0,11.0 L 68.0,9.0" fill="#8CB7EF"/>
	<path d="M 122.0,72.0 L 128.0,73.0 L 131.0,77.0 L 131.0,85.0 L 125.0,97.0 L 122.0,96.0 L 117.0,85.0 L 117.0,77.0 L 122.0,72.0" fill="#DF7679"/>
	<path d="M 11.0,100.0 L 18.0,103.0 L 21.0,109.0 L 22.0,122.0 L 18.0,118.0 L 12.0,106.0 L 11.0,100.0" fill="#BBE1FC"/>
	<path d="M 122.0,74.0 L 127.0,74.0 L 129.0,76.0 L 128.0,82.0 L 126.0,85.0 L 121.0,84.0 L 120.0,79.0 L 122.0,74.0" fill="#E47A7B"/>
	<path d="M 145.0,109.0 L 146.0,111.0 L 141.0,119.0 L 140.0,119.0 L 140.0,114.0 L 145.0,109.0" fill="#BAE0FA"/>
	<path d="M 122.0,78.0 L 126.0,78.0 L 126.0,83.0 L 122.0,83.0 L 122.0,78.0" fill="#F0F1F6"/>
	<path d="M 120.0,75.0 L 121.0,79.0 L 121.0,84.0 L 118.0,84.0 L 118.0,78.0 L 120.0,75.0" fill="#F58C8C"/>
</svg>
