<?xml version="1.0" ?>
<svg baseProfile="full" height="600px" version="1.1" viewBox="-9.648000000000001 -9.648000000000001 115.296 115.296" width="600px" xmlns="http://www.w3.org/2000/svg" xmlns:ev="http://www.w3.org/2001/xml-events" xmlns:xlink="http://www.w3.org/1999/xlink">
	<defs/>
	<path d="M 0.0,0.0 L 96.0,0.0 L 96.0,96.0 L 0.0,96.0 L 0.0,0.0" fill="#FBFBFB"/>
	<path d="M 42.0,5.0 L 53.0,5.0 L 62.0,9.0 L 69.0,17.0 L 71.0,21.0 L 72.0,32.0 L 77.0,34.0 L 79.0,37.0 L 79.0,83.0 L 75.0,87.0 L 21.0,87.0 L 17.0,83.0 L 17.0,37.0 L 22.0,32.0 L 63.0,32.0 L 62.0,22.0 L 57.0,16.0 L 52.0,14.0 L 43.0,14.0 L 37.0,18.0 L 34.0,22.0 L 33.0,30.0 L 24.0,30.0 L 25.0,21.0 L 30.0,13.0 L 37.0,7.0 L 42.0,5.0" fill="#030303"/>
	<path d="M 45.0,52.0 L 51.0,52.0 L 56.0,57.0 L 56.0,63.0 L 52.0,67.0 L 46.0,68.0 L 42.0,66.0 L 40.0,63.0 L 40.0,57.0 L 45.0,52.0" fill="#F7F7F7"/>
</svg>
