<?xml version="1.0" ?>
<svg baseProfile="full" height="600px" version="1.1" viewBox="-20.1 -20.1 240.2 240.2" width="600px" xmlns="http://www.w3.org/2000/svg" xmlns:ev="http://www.w3.org/2001/xml-events" xmlns:xlink="http://www.w3.org/1999/xlink">
	<defs/>
	<path d="M 0.0,0.0 L 200.0,0.0 L 200.0,200.0 L 0.0,200.0 L 0.0,0.0" fill="#FCFCFC"/>
	<path d="M 88.0,8.0 L 109.0,8.0 L 126.0,11.0 L 145.0,19.0 L 158.0,28.0 L 168.0,37.0 L 178.0,50.0 L 186.0,66.0 L 191.0,82.0 L 192.0,89.0 L 192.0,110.0 L 189.0,125.0 L 183.0,141.0 L 175.0,154.0 L 164.0,167.0 L 150.0,178.0 L 134.0,186.0 L 117.0,191.0 L 110.0,192.0 L 91.0,192.0 L 79.0,190.0 L 66.0,186.0 L 50.0,178.0 L 40.0,170.0 L 32.0,163.0 L 22.0,150.0 L 14.0,134.0 L 12.0,129.0 L 13.0,125.0 L 14.0,124.0 L 19.0,124.0 L 23.0,132.0 L 30.0,146.0 L 39.0,157.0 L 46.0,164.0 L 56.0,171.0 L 70.0,178.0 L 83.0,182.0 L 90.0,183.0 L 111.0,183.0 L 123.0,180.0 L 137.0,175.0 L 151.0,166.0 L 161.0,157.0 L 169.0,147.0 L 175.0,137.0 L 181.0,121.0 L 183.0,111.0 L 183.0,90.0 L 180.0,77.0 L 175.0,63.0 L 166.0,49.0 L 157.0,39.0 L 147.0,31.0 L 137.0,25.0 L 121.0,19.0 L 110.0,17.0 L 89.0,17.0 L 73.0,21.0 L 61.0,26.0 L 50.0,33.0 L 40.0,42.0 L 32.0,51.0 L 23.0,67.0 L 19.0,76.0 L 14.0,76.0 L 12.0,74.0 L 13.0,68.0 L 21.0,52.0 L 29.0,41.0 L 37.0,32.0 L 50.0,22.0 L 66.0,14.0 L 82.0,9.0 L 88.0,8.0" fill="#080808"/>
	<path d="M 0.0,91.0 L 26.0,96.0 L 28.0,98.0 L 27.0,103.0 L 21.0,105.0 L 0.0,109.0 L 0.0,91.0" fill="#070707"/>
</svg>
