<?xml version="1.0" ?>
<svg baseProfile="full" height="600px" version="1.1" viewBox="-19.296000000000003 -19.296000000000003 230.592 230.592" width="600px" xmlns="http://www.w3.org/2000/svg" xmlns:ev="http://www.w3.org/2001/xml-events" xmlns:xlink="http://www.w3.org/1999/xlink">
	<defs/>
	<path d="M 0.0,0.0 L 192.0,0.0 L 192.0,192.0 L 0.0,192.0 L 0.0,0.0" fill="#FDC929"/>
	<path d="M 0.0,0.0 L 192.0,0.0 L 192.0,192.0 L 0.0,192.0 L 0.0,0.0 M 86.0,16.0 L 72.0,19.0 L 56.0,26.0 L 45.0,34.0 L 37.0,41.0 L 28.0,53.0 L 20.0,69.0 L 17.0,79.0 L 16.0,86.0 L 16.0,105.0 L 20.0,122.0 L 25.0,134.0 L 33.0,146.0 L 40.0,154.0 L 50.0,162.0 L 64.0,170.0 L 79.0,175.0 L 86.0,176.0 L 105.0,176.0 L 122.0,172.0 L 134.0,167.0 L 146.0,159.0 L 154.0,152.0 L 162.0,142.0 L 169.0,130.0 L 174.0,115.0 L 176.0,106.0 L 176.0,86.0 L 173.0,72.0 L 167.0,58.0 L 159.0,46.0 L 153.0,39.0 L 142.0,30.0 L 130.0,23.0 L 115.0,18.0 L 105.0,16.0 L 86.0,16.0" fill="#FFFEFD"/>
	<path d="M 73.0,123.0 L 119.0,123.0 L 118.0,130.0 L 114.0,138.0 L 107.0,144.0 L 102.0,146.0 L 89.0,146.0 L 82.0,142.0 L 76.0,135.0 L 73.0,128.0 L 73.0,123.0" fill="#C72C28"/>
	<path d="M 62.0,78.0 L 75.0,78.0 L 83.0,83.0 L 88.0,89.0 L 87.0,91.0 L 80.0,92.0 L 75.0,88.0 L 72.0,87.0 L 63.0,87.0 L 57.0,91.0 L 53.0,92.0 L 48.0,90.0 L 51.0,85.0 L 57.0,80.0 L 62.0,78.0" fill="#BA6F0A"/>
	<path d="M 118.0,78.0 L 129.0,78.0 L 138.0,82.0 L 144.0,89.0 L 143.0,91.0 L 136.0,92.0 L 131.0,88.0 L 128.0,87.0 L 119.0,87.0 L 113.0,91.0 L 109.0,92.0 L 104.0,90.0 L 107.0,85.0 L 113.0,80.0 L 118.0,78.0" fill="#B96F0A"/>
</svg>
