<?xml version="1.0" ?>
<svg baseProfile="full" height="600px" version="1.1" viewBox="-19.296000000000003 -19.296000000000003 230.592 230.592" width="600px" xmlns="http://www.w3.org/2000/svg" xmlns:ev="http://www.w3.org/2001/xml-events" xmlns:xlink="http://www.w3.org/1999/xlink">
	<defs/>
	<path d="M 0.0,0.0 L 192.0,0.0 L 192.0,192.0 L 0.0,192.0 L 0.0,0.0" fill="#FDFDFD"/>
	<path d="M 78.0,16.0 L 114.0,16.0 L 116.0,18.0 L 116.0,24.0 L 139.0,24.0 L 144.0,29.0 L 144.0,170.0 L 141.0,175.0 L 139.0,176.0 L 53.0,176.0 L 48.0,171.0 L 48.0,29.0 L 53.0,24.0 L 76.0,24.0 L 76.0,18.0 L 78.0,16.0" fill="#CFD8DB"/>
	<path d="M 143.0,81.0 L 144.0,81.0 L 144.0,95.0 L 143.0,97.0 L 141.0,97.0 L 141.0,99.0 L 139.0,99.0 L 139.0,101.0 L 137.0,101.0 L 137.0,103.0 L 135.0,103.0 L 135.0,105.0 L 133.0,105.0 L 133.0,107.0 L 131.0,107.0 L 131.0,109.0 L 129.0,109.0 L 129.0,111.0 L 127.0,111.0 L 127.0,113.0 L 125.0,113.0 L 125.0,115.0 L 123.0,115.0 L 123.0,117.0 L 121.0,117.0 L 121.0,119.0 L 119.0,119.0 L 119.0,121.0 L 117.0,121.0 L 117.0,123.0 L 115.0,123.0 L 115.0,125.0 L 113.0,125.0 L 113.0,127.0 L 111.0,127.0 L 111.0,129.0 L 109.0,129.0 L 109.0,131.0 L 107.0,131.0 L 107.0,133.0 L 105.0,133.0 L 105.0,135.0 L 103.0,135.0 L 103.0,137.0 L 101.0,137.0 L 101.0,139.0 L 99.0,139.0 L 99.0,141.0 L 97.0,141.0 L 97.0,143.0 L 95.0,143.0 L 95.0,145.0 L 93.0,145.0 L 93.0,147.0 L 91.0,147.0 L 91.0,149.0 L 89.0,149.0 L 89.0,151.0 L 87.0,151.0 L 87.0,153.0 L 85.0,153.0 L 85.0,155.0 L 83.0,155.0 L 83.0,157.0 L 81.0,157.0 L 81.0,159.0 L 79.0,159.0 L 79.0,161.0 L 77.0,161.0 L 77.0,163.0 L 75.0,163.0 L 75.0,165.0 L 73.0,165.0 L 73.0,167.0 L 71.0,167.0 L 71.0,169.0 L 69.0,169.0 L 69.0,171.0 L 67.0,171.0 L 67.0,173.0 L 141.0,174.0 L 139.0,176.0 L 53.0,176.0 L 51.0,175.0 L 53.0,171.0 L 143.0,81.0" fill="#C7D6C9"/>
</svg>
