<?xml version="1.0" ?>
<svg baseProfile="full" height="600px" version="1.1" viewBox="-20.1 -20.1 240.2 240.2" width="600px" xmlns="http://www.w3.org/2000/svg" xmlns:ev="http://www.w3.org/2001/xml-events" xmlns:xlink="http://www.w3.org/1999/xlink">
	<defs/>
	<path d="M 0.0,0.0 L 200.0,0.0 L 200.0,200.0 L 0.0,200.0 L 0.0,0.0" fill="#FDFDFD"/>
	<path d="M 155.0,38.0 L 172.0,43.0 L 180.0,49.0 L 188.0,58.0 L 191.0,65.0 L 192.0,70.0 L 192.0,142.0 L 190.0,144.0 L 136.0,144.0 L 136.0,184.0 L 128.0,184.0 L 128.0,144.0 L 120.0,144.0 L 120.0,184.0 L 112.0,184.0 L 112.0,144.0 L 34.0,144.0 L 32.0,142.0 L 32.0,72.0 L 34.0,62.0 L 40.0,53.0 L 47.0,46.0 L 57.0,41.0 L 64.0,40.0 L 154.0,39.0 L 155.0,38.0" fill="#020202"/>
	<path d="M 91.0,48.0 L 144.0,48.0 L 138.0,57.0 L 129.0,68.0 L 122.0,71.0 L 121.0,73.0 L 121.0,79.0 L 125.0,83.0 L 133.0,82.0 L 135.0,78.0 L 136.0,71.0 L 145.0,60.0 L 149.0,55.0 L 153.0,57.0 L 161.0,65.0 L 165.0,63.0 L 172.0,55.0 L 175.0,55.0 L 180.0,61.0 L 184.0,70.0 L 184.0,136.0 L 104.0,136.0 L 103.0,70.0 L 100.0,60.0 L 94.0,52.0 L 91.0,48.0" fill="#FDFDFD"/>
	<path d="M 62.0,48.0 L 74.0,48.0 L 86.0,54.0 L 92.0,61.0 L 96.0,70.0 L 96.0,136.0 L 40.0,136.0 L 40.0,70.0 L 46.0,58.0 L 53.0,52.0 L 62.0,48.0" fill="#FCFCFC"/>
	<path d="M 54.0,80.0 L 82.0,80.0 L 84.0,82.0 L 83.0,87.0 L 82.0,88.0 L 54.0,88.0 L 52.0,86.0 L 53.0,81.0 L 54.0,80.0" fill="#030303"/>
</svg>
