<?xml version="1.0" ?>
<svg baseProfile="full" height="600px" version="1.1" viewBox="-12.864 -12.864 153.728 153.728" width="600px" xmlns="http://www.w3.org/2000/svg" xmlns:ev="http://www.w3.org/2001/xml-events" xmlns:xlink="http://www.w3.org/1999/xlink">
	<defs/>
	<path d="M 0.0,0.0 L 128.0,0.0 L 128.0,128.0 L 0.0,128.0 L 0.0,0.0" fill="#FDFDFD"/>
	<path d="M 32.0,28.0 L 97.0,28.0 L 105.0,32.0 L 111.0,40.0 L 112.0,43.0 L 112.0,100.0 L 72.0,100.0 L 72.0,116.0 L 64.0,116.0 L 64.0,100.0 L 16.0,100.0 L 16.0,44.0 L 19.0,37.0 L 23.0,32.0 L 28.0,29.0 L 32.0,28.0" fill="#020202"/>
	<path d="M 52.0,36.0 L 96.0,36.0 L 102.0,40.0 L 104.0,44.0 L 104.0,92.0 L 56.0,92.0 L 55.0,43.0 L 52.0,36.0" fill="#FDFDFD"/>
	<path d="M 32.0,36.0 L 39.0,36.0 L 44.0,39.0 L 48.0,44.0 L 48.0,92.0 L 24.0,92.0 L 24.0,44.0 L 30.0,37.0 L 32.0,36.0" fill="#FBFBFB"/>
	<path d="M 68.0,44.0 L 96.0,44.0 L 96.0,60.0 L 88.0,60.0 L 88.0,52.0 L 68.0,52.0 L 68.0,44.0" fill="#000000"/>
	<path d="M 28.0,52.0 L 44.0,52.0 L 44.0,60.0 L 28.0,60.0 L 28.0,52.0" fill="#000000"/>
</svg>
