<?xml version="1.0" ?>
<svg baseProfile="full" height="600px" version="1.1" viewBox="-20.1 -20.1 240.2 240.2" width="600px" xmlns="http://www.w3.org/2000/svg" xmlns:ev="http://www.w3.org/2001/xml-events" xmlns:xlink="http://www.w3.org/1999/xlink">
	<defs/>
	<path d="M 0.0,0.0 L 200.0,0.0 L 200.0,200.0 L 0.0,200.0 L 0.0,0.0" fill="#FDFDFD"/>
	<path d="M 86.0,16.0 L 104.0,16.0 L 114.0,21.0 L 121.0,29.0 L 127.0,42.0 L 130.0,55.0 L 131.0,63.0 L 131.0,83.0 L 127.0,111.0 L 121.0,134.0 L 109.0,170.0 L 104.0,182.0 L 101.0,184.0 L 89.0,184.0 L 87.0,183.0 L 76.0,155.0 L 67.0,128.0 L 61.0,103.0 L 59.0,88.0 L 59.0,57.0 L 63.0,41.0 L 69.0,29.0 L 75.0,22.0 L 83.0,17.0 L 86.0,16.0" fill="#FAFAFA"/>
	<path d="M 86.0,16.0 L 104.0,16.0 L 114.0,21.0 L 121.0,29.0 L 127.0,42.0 L 130.0,55.0 L 131.0,63.0 L 131.0,83.0 L 127.0,111.0 L 121.0,134.0 L 109.0,170.0 L 104.0,182.0 L 101.0,184.0 L 89.0,184.0 L 87.0,183.0 L 76.0,155.0 L 67.0,128.0 L 61.0,103.0 L 59.0,88.0 L 59.0,57.0 L 63.0,41.0 L 69.0,29.0 L 75.0,22.0 L 83.0,17.0 L 86.0,16.0 M 87.0,24.0 L 79.0,30.0 L 72.0,41.0 L 67.0,57.0 L 67.0,87.0 L 70.0,106.0 L 74.0,124.0 L 86.0,159.0 L 90.0,169.0 L 92.0,169.0 L 104.0,137.0 L 110.0,116.0 L 115.0,90.0 L 115.0,57.0 L 110.0,41.0 L 103.0,30.0 L 98.0,26.0 L 94.0,24.0 L 87.0,24.0" fill="#060606"/>
	<path d="M 86.0,44.0 L 93.0,45.0 L 98.0,50.0 L 101.0,56.0 L 102.0,60.0 L 102.0,82.0 L 99.0,93.0 L 95.0,98.0 L 91.0,100.0 L 84.0,99.0 L 79.0,93.0 L 76.0,85.0 L 75.0,78.0 L 75.0,64.0 L 78.0,53.0 L 82.0,47.0 L 86.0,44.0" fill="#090909"/>
	<path d="M 88.0,52.0 L 90.0,52.0 L 94.0,61.0 L 94.0,81.0 L 91.0,90.0 L 88.0,92.0 L 84.0,84.0 L 83.0,77.0 L 83.0,66.0 L 85.0,57.0 L 88.0,52.0" fill="#F4F4F4"/>
</svg>
