<?xml version="1.0" ?>
<svg baseProfile="full" height="600px" version="1.1" viewBox="-12.06 -12.06 144.12 144.12" width="600px" xmlns="http://www.w3.org/2000/svg" xmlns:ev="http://www.w3.org/2001/xml-events" xmlns:xlink="http://www.w3.org/1999/xlink">
	<defs/>
	<path d="M 0.0,0.0 L 120.0,0.0 L 120.0,120.0 L 0.0,120.0 L 0.0,0.0" fill="#FCFCFC"/>
	<path d="M 52.0,8.0 L 65.0,8.0 L 77.0,11.0 L 86.0,16.0 L 94.0,23.0 L 101.0,34.0 L 104.0,45.0 L 104.0,58.0 L 100.0,71.0 L 93.0,81.0 L 83.0,91.0 L 71.0,99.0 L 65.0,111.0 L 62.0,116.0 L 57.0,115.0 L 49.0,99.0 L 35.0,89.0 L 25.0,79.0 L 19.0,69.0 L 17.0,64.0 L 16.0,57.0 L 16.0,44.0 L 20.0,32.0 L 28.0,21.0 L 37.0,14.0 L 45.0,10.0 L 52.0,8.0" fill="#020202"/>
	<path d="M 56.0,40.0 L 63.0,40.0 L 68.0,43.0 L 72.0,48.0 L 72.0,56.0 L 66.0,63.0 L 64.0,64.0 L 56.0,64.0 L 49.0,58.0 L 48.0,55.0 L 48.0,48.0 L 54.0,41.0 L 56.0,40.0" fill="#F7F7F7"/>
</svg>
