<?xml version="1.0" ?>
<svg baseProfile="full" height="600px" version="1.1" viewBox="-20.1 -20.1 240.2 240.2" width="600px" xmlns="http://www.w3.org/2000/svg" xmlns:ev="http://www.w3.org/2001/xml-events" xmlns:xlink="http://www.w3.org/1999/xlink">
	<defs/>
	<path d="M 0.0,0.0 L 200.0,0.0 L 200.0,200.0 L 0.0,200.0 L 0.0,0.0" fill="#060606"/>
	<path d="M 16.0,35.0 L 21.0,37.0 L 51.0,53.0 L 54.0,55.0 L 60.0,54.0 L 72.0,48.0 L 74.0,62.0 L 81.0,82.0 L 91.0,101.0 L 102.0,117.0 L 110.0,127.0 L 115.0,126.0 L 125.0,113.0 L 136.0,95.0 L 144.0,79.0 L 150.0,61.0 L 151.0,54.0 L 173.0,41.0 L 184.0,35.0 L 184.0,170.0 L 152.0,189.0 L 149.0,191.0 L 143.0,190.0 L 114.0,175.0 L 102.0,169.0 L 96.0,170.0 L 74.0,182.0 L 58.0,191.0 L 52.0,190.0 L 34.0,180.0 L 16.0,170.0 L 16.0,35.0" fill="#FDFDFD"/>
	<path d="M 0.0,0.0 L 200.0,0.0 L 200.0,200.0 L 150.0,200.0 L 154.0,196.0 L 180.0,181.0 L 190.0,174.0 L 190.0,25.0 L 184.0,26.0 L 154.0,44.0 L 152.0,44.0 L 148.0,31.0 L 141.0,21.0 L 134.0,15.0 L 124.0,10.0 L 117.0,9.0 L 104.0,9.0 L 94.0,13.0 L 85.0,19.0 L 79.0,26.0 L 74.0,36.0 L 73.0,39.0 L 58.0,47.0 L 52.0,46.0 L 34.0,36.0 L 14.0,25.0 L 10.0,25.0 L 10.0,174.0 L 18.0,179.0 L 47.0,195.0 L 54.0,199.0 L 54.0,200.0 L 0.0,200.0 L 0.0,0.0" fill="#F9F9F9"/>
	<path d="M 105.0,16.0 L 118.0,16.0 L 130.0,21.0 L 136.0,26.0 L 142.0,36.0 L 144.0,41.0 L 144.0,57.0 L 137.0,77.0 L 126.0,98.0 L 115.0,114.0 L 113.0,117.0 L 110.0,116.0 L 98.0,98.0 L 88.0,80.0 L 82.0,65.0 L 80.0,54.0 L 80.0,41.0 L 84.0,32.0 L 90.0,24.0 L 99.0,18.0 L 105.0,16.0" fill="#FAFAFA"/>
	<path d="M 108.0,32.0 L 117.0,32.0 L 125.0,36.0 L 131.0,44.0 L 132.0,47.0 L 132.0,57.0 L 128.0,65.0 L 120.0,71.0 L 117.0,72.0 L 107.0,72.0 L 99.0,68.0 L 93.0,60.0 L 92.0,57.0 L 92.0,47.0 L 96.0,39.0 L 104.0,33.0 L 108.0,32.0" fill="#080808"/>
	<path d="M 98.0,177.0 L 104.0,178.0 L 144.0,198.0 L 145.0,200.0 L 58.0,200.0 L 63.0,196.0 L 95.0,179.0 L 98.0,177.0" fill="#FAFAFA"/>
	<path d="M 108.0,40.0 L 115.0,40.0 L 120.0,43.0 L 124.0,48.0 L 124.0,56.0 L 118.0,63.0 L 116.0,64.0 L 108.0,64.0 L 101.0,58.0 L 100.0,55.0 L 100.0,48.0 L 106.0,41.0 L 108.0,40.0" fill="#F7F7F7"/>
</svg>
