<?xml version="1.0" ?>
<svg baseProfile="full" height="600px" version="1.1" viewBox="-20.1 -20.1 240.2 240.2" width="600px" xmlns="http://www.w3.org/2000/svg" xmlns:ev="http://www.w3.org/2001/xml-events" xmlns:xlink="http://www.w3.org/1999/xlink">
	<defs/>
	<path d="M 0.0,0.0 L 200.0,0.0 L 200.0,200.0 L 0.0,200.0 L 0.0,0.0" fill="#060606"/>
	<path d="M 16.0,35.0 L 21.0,37.0 L 51.0,53.0 L 54.0,55.0 L 60.0,54.0 L 74.0,46.0 L 76.0,46.0 L 79.0,65.0 L 87.0,87.0 L 97.0,107.0 L 109.0,126.0 L 114.0,127.0 L 125.0,110.0 L 136.0,89.0 L 144.0,67.0 L 147.0,56.0 L 158.0,50.0 L 173.0,41.0 L 184.0,35.0 L 184.0,170.0 L 152.0,189.0 L 149.0,191.0 L 143.0,190.0 L 114.0,175.0 L 102.0,169.0 L 96.0,170.0 L 74.0,182.0 L 58.0,191.0 L 52.0,190.0 L 34.0,180.0 L 16.0,170.0 L 16.0,35.0" fill="#FDFDFD"/>
	<path d="M 0.0,0.0 L 200.0,0.0 L 200.0,200.0 L 150.0,200.0 L 154.0,196.0 L 180.0,181.0 L 190.0,174.0 L 190.0,25.0 L 184.0,26.0 L 152.0,45.0 L 148.0,47.0 L 147.0,33.0 L 143.0,22.0 L 137.0,13.0 L 129.0,6.0 L 120.0,2.0 L 104.0,2.0 L 92.0,8.0 L 85.0,15.0 L 78.0,29.0 L 76.0,37.0 L 58.0,47.0 L 52.0,46.0 L 34.0,36.0 L 14.0,25.0 L 10.0,25.0 L 10.0,174.0 L 18.0,179.0 L 47.0,195.0 L 54.0,199.0 L 54.0,200.0 L 0.0,200.0 L 0.0,0.0" fill="#F9F9F9"/>
	<path d="M 107.0,9.0 L 116.0,9.0 L 126.0,13.0 L 134.0,20.0 L 140.0,32.0 L 141.0,35.0 L 141.0,50.0 L 139.0,62.0 L 131.0,83.0 L 123.0,99.0 L 114.0,115.0 L 110.0,115.0 L 99.0,96.0 L 91.0,79.0 L 84.0,58.0 L 83.0,50.0 L 83.0,35.0 L 88.0,23.0 L 95.0,15.0 L 107.0,9.0" fill="#FAFAFA"/>
	<path d="M 108.0,26.0 L 115.0,26.0 L 123.0,30.0 L 129.0,38.0 L 130.0,41.0 L 130.0,54.0 L 126.0,62.0 L 120.0,67.0 L 115.0,69.0 L 108.0,69.0 L 100.0,64.0 L 96.0,59.0 L 94.0,54.0 L 94.0,41.0 L 98.0,33.0 L 104.0,28.0 L 108.0,26.0" fill="#080808"/>
	<path d="M 98.0,177.0 L 104.0,178.0 L 144.0,198.0 L 145.0,200.0 L 58.0,200.0 L 63.0,196.0 L 95.0,179.0 L 98.0,177.0" fill="#FAFAFA"/>
	<path d="M 108.0,35.0 L 115.0,35.0 L 120.0,38.0 L 123.0,43.0 L 123.0,52.0 L 119.0,58.0 L 115.0,60.0 L 108.0,60.0 L 103.0,55.0 L 101.0,51.0 L 101.0,43.0 L 105.0,37.0 L 108.0,35.0" fill="#F6F6F6"/>
</svg>
