<?xml version="1.0" ?>
<svg baseProfile="full" height="600px" version="1.1" viewBox="-20.1 -20.1 240.2 240.2" width="600px" xmlns="http://www.w3.org/2000/svg" xmlns:ev="http://www.w3.org/2001/xml-events" xmlns:xlink="http://www.w3.org/1999/xlink">
	<defs/>
	<path d="M 0.0,0.0 L 200.0,0.0 L 200.0,200.0 L 0.0,200.0 L 0.0,0.0" fill="#FDFDFD"/>
	<path d="M 81.0,16.0 L 102.0,16.0 L 106.0,20.0 L 108.0,33.0 L 109.0,42.0 L 109.0,111.0 L 106.0,160.0 L 104.0,182.0 L 102.0,184.0 L 80.0,184.0 L 78.0,182.0 L 74.0,131.0 L 73.0,105.0 L 73.0,47.0 L 75.0,27.0 L 77.0,19.0 L 81.0,16.0" fill="#060606"/>
	<path d="M 84.0,24.0 L 93.0,24.0 L 93.0,32.0 L 92.0,39.0 L 92.0,108.0 L 94.0,146.0 L 95.0,176.0 L 86.0,176.0 L 84.0,158.0 L 82.0,132.0 L 81.0,103.0 L 81.0,48.0 L 83.0,26.0 L 84.0,24.0" fill="#F8F8F8"/>
</svg>
