<?xml version="1.0" ?>
<svg baseProfile="full" height="600px" version="1.1" viewBox="-12.06 -12.06 144.12 144.12" width="600px" xmlns="http://www.w3.org/2000/svg" xmlns:ev="http://www.w3.org/2001/xml-events" xmlns:xlink="http://www.w3.org/1999/xlink">
	<defs/>
	<path d="M 0.0,0.0 L 120.0,0.0 L 120.0,120.0 L 0.0,120.0 L 0.0,0.0" fill="#FCFCFC"/>
	<path d="M 73.0,21.0 L 76.0,21.0 L 76.0,93.0 L 48.0,99.0 L 44.0,99.0 L 44.0,27.0 L 56.0,24.0 L 73.0,21.0" fill="#020202"/>
	<path d="M 84.0,21.0 L 103.0,26.0 L 111.0,29.0 L 112.0,30.0 L 112.0,98.0 L 110.0,100.0 L 102.0,99.0 L 84.0,94.0 L 84.0,21.0" fill="#010101"/>
	<path d="M 10.0,20.0 L 17.0,21.0 L 31.0,25.0 L 36.0,27.0 L 36.0,99.0 L 20.0,95.0 L 10.0,92.0 L 8.0,90.0 L 8.0,22.0 L 10.0,20.0" fill="#010101"/>
</svg>
