<?xml version="1.0" ?>
<svg baseProfile="full" height="600px" version="1.1" viewBox="-20.1 -20.1 240.2 240.2" width="600px" xmlns="http://www.w3.org/2000/svg" xmlns:ev="http://www.w3.org/2001/xml-events" xmlns:xlink="http://www.w3.org/1999/xlink">
	<defs/>
	<path d="M 0.0,0.0 L 200.0,0.0 L 200.0,200.0 L 0.0,200.0 L 0.0,0.0" fill="#0C0C0C"/>
	<path d="M 0.0,0.0 L 200.0,0.0 L 200.0,200.0 L 0.0,200.0 L 0.0,0.0 M 10.0,8.0 L 8.0,10.0 L 8.0,165.0 L 13.0,170.0 L 45.0,187.0 L 54.0,192.0 L 60.0,191.0 L 82.0,179.0 L 98.0,170.0 L 104.0,171.0 L 144.0,191.0 L 145.0,192.0 L 150.0,192.0 L 178.0,175.0 L 190.0,168.0 L 192.0,165.0 L 192.0,10.0 L 190.0,8.0 L 184.0,9.0 L 156.0,26.0 L 149.0,30.0 L 144.0,29.0 L 102.0,8.0 L 96.0,9.0 L 72.0,22.0 L 58.0,30.0 L 53.0,29.0 L 23.0,13.0 L 14.0,8.0 L 10.0,8.0" fill="#FCFCFC"/>
	<path d="M 104.0,19.0 L 110.0,21.0 L 140.0,36.0 L 144.0,38.0 L 144.0,181.0 L 138.0,179.0 L 104.0,162.0 L 104.0,19.0" fill="#FDFDFD"/>
	<path d="M 94.0,19.0 L 96.0,19.0 L 96.0,162.0 L 72.0,175.0 L 60.0,181.0 L 60.0,38.0 L 89.0,22.0 L 94.0,19.0" fill="#FDFDFD"/>
	<path d="M 16.0,19.0 L 32.0,27.0 L 52.0,38.0 L 52.0,181.0 L 36.0,173.0 L 16.0,162.0 L 16.0,19.0" fill="#FDFDFD"/>
	<path d="M 183.0,19.0 L 184.0,19.0 L 184.0,162.0 L 156.0,179.0 L 151.0,181.0 L 151.0,38.0 L 180.0,21.0 L 183.0,19.0" fill="#FAFAFA"/>
</svg>
