<?xml version="1.0" ?>
<svg baseProfile="full" height="600px" version="1.1" viewBox="-12.06 -12.06 144.12 144.12" width="600px" xmlns="http://www.w3.org/2000/svg" xmlns:ev="http://www.w3.org/2001/xml-events" xmlns:xlink="http://www.w3.org/1999/xlink">
	<defs/>
	<path d="M 0.0,0.0 L 120.0,0.0 L 120.0,120.0 L 0.0,120.0 L 0.0,0.0" fill="#FBFBFB"/>
	<path d="M 16.0,24.0 L 26.0,24.0 L 41.0,26.0 L 44.0,27.0 L 44.0,99.0 L 18.0,96.0 L 15.0,94.0 L 15.0,25.0 L 16.0,24.0" fill="#010101"/>
	<path d="M 73.0,21.0 L 83.0,24.0 L 93.0,28.0 L 94.0,29.0 L 94.0,96.0 L 92.0,98.0 L 85.0,98.0 L 74.0,94.0 L 73.0,93.0 L 73.0,21.0" fill="#050505"/>
	<path d="M 65.0,21.0 L 68.0,21.0 L 68.0,93.0 L 51.0,99.0 L 49.0,99.0 L 49.0,27.0 L 59.0,23.0 L 65.0,21.0" fill="#020202"/>
</svg>
