<?xml version="1.0" ?>
<svg baseProfile="full" height="600px" version="1.1" viewBox="-19.296000000000003 -19.296000000000003 230.592 230.592" width="600px" xmlns="http://www.w3.org/2000/svg" xmlns:ev="http://www.w3.org/2001/xml-events" xmlns:xlink="http://www.w3.org/1999/xlink">
	<defs/>
	<path d="M 0.0,0.0 L 192.0,0.0 L 192.0,192.0 L 0.0,192.0 L 0.0,0.0" fill="#FEFDFD"/>
	<path d="M 85.0,4.0 L 106.0,4.0 L 111.0,9.0 L 116.0,20.0 L 120.0,37.0 L 122.0,55.0 L 122.0,86.0 L 119.0,116.0 L 113.0,156.0 L 106.0,192.0 L 86.0,192.0 L 80.0,161.0 L 73.0,118.0 L 70.0,83.0 L 70.0,54.0 L 72.0,36.0 L 76.0,19.0 L 80.0,9.0 L 85.0,4.0" fill="#FD3E04"/>
	<path d="M 89.0,4.0 L 106.0,4.0 L 111.0,9.0 L 116.0,20.0 L 120.0,37.0 L 122.0,55.0 L 122.0,86.0 L 119.0,116.0 L 113.0,156.0 L 106.0,192.0 L 87.0,192.0 L 92.0,166.0 L 99.0,123.0 L 102.0,90.0 L 102.0,51.0 L 100.0,33.0 L 95.0,14.0 L 89.0,4.0" fill="#C72A2A"/>
	<path d="M 86.0,40.0 L 90.0,42.0 L 93.0,52.0 L 94.0,57.0 L 94.0,85.0 L 91.0,99.0 L 88.0,104.0 L 84.0,102.0 L 81.0,94.0 L 80.0,87.0 L 80.0,54.0 L 83.0,43.0 L 86.0,40.0" fill="#C72928"/>
</svg>
