<?xml version="1.0" ?>
<svg baseProfile="full" height="600px" version="1.1" viewBox="-19.296000000000003 -19.296000000000003 230.592 230.592" width="600px" xmlns="http://www.w3.org/2000/svg" xmlns:ev="http://www.w3.org/2001/xml-events" xmlns:xlink="http://www.w3.org/1999/xlink">
	<defs/>
	<path d="M 0.0,0.0 L 192.0,0.0 L 192.0,192.0 L 0.0,192.0 L 0.0,0.0" fill="#FEFDFD"/>
	<path d="M 89.0,4.0 L 106.0,4.0 L 121.0,9.0 L 131.0,15.0 L 141.0,24.0 L 148.0,32.0 L 156.0,48.0 L 159.0,58.0 L 159.0,83.0 L 154.0,102.0 L 144.0,125.0 L 132.0,146.0 L 124.0,158.0 L 114.0,172.0 L 104.0,185.0 L 98.0,192.0 L 93.0,191.0 L 80.0,175.0 L 68.0,158.0 L 57.0,141.0 L 48.0,125.0 L 39.0,106.0 L 34.0,91.0 L 32.0,79.0 L 32.0,62.0 L 36.0,46.0 L 43.0,33.0 L 51.0,23.0 L 60.0,15.0 L 71.0,9.0 L 81.0,5.0 L 89.0,4.0" fill="#FD3D02"/>
	<path d="M 93.0,40.0 L 100.0,40.0 L 110.0,45.0 L 118.0,54.0 L 122.0,64.0 L 122.0,79.0 L 118.0,90.0 L 110.0,99.0 L 102.0,103.0 L 94.0,104.0 L 87.0,102.0 L 78.0,95.0 L 72.0,85.0 L 70.0,78.0 L 70.0,64.0 L 74.0,55.0 L 80.0,47.0 L 87.0,42.0 L 93.0,40.0" fill="#FEFBFB"/>
	<path d="M 116.0,8.0 L 121.0,9.0 L 131.0,15.0 L 141.0,24.0 L 148.0,32.0 L 156.0,48.0 L 159.0,58.0 L 159.0,83.0 L 154.0,102.0 L 144.0,125.0 L 132.0,146.0 L 124.0,158.0 L 114.0,172.0 L 104.0,185.0 L 98.0,192.0 L 95.0,191.0 L 106.0,177.0 L 120.0,158.0 L 132.0,139.0 L 141.0,123.0 L 149.0,105.0 L 152.0,98.0 L 156.0,78.0 L 156.0,63.0 L 152.0,47.0 L 145.0,33.0 L 136.0,22.0 L 124.0,13.0 L 116.0,9.0 L 116.0,8.0" fill="#CB3330"/>
	<path d="M 89.0,40.0 L 93.0,41.0 L 84.0,45.0 L 78.0,50.0 L 73.0,58.0 L 71.0,64.0 L 71.0,78.0 L 75.0,89.0 L 80.0,96.0 L 89.0,102.0 L 86.0,103.0 L 78.0,98.0 L 71.0,90.0 L 67.0,80.0 L 67.0,65.0 L 70.0,56.0 L 74.0,50.0 L 82.0,43.0 L 89.0,40.0" fill="#CA3230"/>
	<path d="M 157.0,63.0 L 159.0,63.0 L 159.0,81.0 L 156.0,82.0 L 157.0,63.0" fill="#C82927"/>
	<path d="M 156.0,51.0 L 158.0,54.0 L 159.0,63.0 L 156.0,63.0 L 155.0,53.0 L 156.0,51.0" fill="#CE413F"/>
	<path d="M 133.0,19.0 L 137.0,20.0 L 143.0,26.0 L 142.0,29.0 L 136.0,22.0 L 133.0,19.0" fill="#CB2D28"/>
	<path d="M 145.0,118.0 L 146.0,121.0 L 143.0,127.0 L 141.0,123.0 L 143.0,119.0 L 145.0,118.0" fill="#CD3B38"/>
</svg>
