<?xml version="1.0" ?>
<svg baseProfile="full" height="600px" version="1.1" viewBox="-19.296000000000003 -19.296000000000003 230.592 230.592" width="600px" xmlns="http://www.w3.org/2000/svg" xmlns:ev="http://www.w3.org/2001/xml-events" xmlns:xlink="http://www.w3.org/1999/xlink">
	<defs/>
	<path d="M 0.0,0.0 L 192.0,0.0 L 192.0,192.0 L 0.0,192.0 L 0.0,0.0" fill="#2296F3"/>
	<path d="M 0.0,0.0 L 192.0,0.0 L 192.0,192.0 L 0.0,192.0 L 0.0,0.0 M 39.0,24.0 L 31.0,28.0 L 25.0,36.0 L 24.0,39.0 L 24.0,153.0 L 28.0,161.0 L 36.0,167.0 L 39.0,168.0 L 153.0,168.0 L 161.0,164.0 L 167.0,156.0 L 168.0,153.0 L 168.0,39.0 L 164.0,31.0 L 156.0,25.0 L 153.0,24.0 L 39.0,24.0" fill="#FDFEFE"/>
	<path d="M 64.0,58.0 L 140.0,58.0 L 140.0,124.0 L 124.0,124.0 L 124.0,140.0 L 52.0,140.0 L 52.0,76.0 L 64.0,76.0 L 64.0,58.0" fill="#E0F3FD"/>
	<path d="M 72.0,78.0 L 132.0,78.0 L 132.0,116.0 L 72.0,116.0 L 72.0,78.0" fill="#2296F3"/>
	<path d="M 60.0,96.0 L 64.0,96.0 L 64.0,124.0 L 116.0,124.0 L 116.0,132.0 L 60.0,132.0 L 60.0,96.0" fill="#2296F3"/>
</svg>
