<?xml version="1.0" ?>
<svg baseProfile="full" height="600px" version="1.1" viewBox="-16.08 -16.08 192.16 192.16" width="600px" xmlns="http://www.w3.org/2000/svg" xmlns:ev="http://www.w3.org/2001/xml-events" xmlns:xlink="http://www.w3.org/1999/xlink">
	<defs/>
	<path d="M 0.0,0.0 L 160.0,0.0 L 160.0,160.0 L 0.0,160.0 L 0.0,0.0" fill="#FDFDFD"/>
	<path d="M 32.0,4.0 L 60.0,4.0 L 68.0,20.0 L 79.0,43.0 L 79.0,45.0 L 81.0,45.0 L 83.0,39.0 L 99.0,5.0 L 100.0,4.0 L 128.0,4.0 L 120.0,22.0 L 111.0,41.0 L 103.0,57.0 L 96.0,72.0 L 100.0,73.0 L 108.0,79.0 L 115.0,87.0 L 120.0,97.0 L 122.0,105.0 L 122.0,118.0 L 118.0,131.0 L 112.0,141.0 L 105.0,148.0 L 97.0,153.0 L 86.0,156.0 L 71.0,156.0 L 60.0,152.0 L 51.0,146.0 L 43.0,137.0 L 38.0,127.0 L 36.0,117.0 L 36.0,104.0 L 40.0,92.0 L 46.0,83.0 L 53.0,76.0 L 63.0,70.0 L 48.0,39.0 L 35.0,11.0 L 32.0,4.0" fill="#FEECA1"/>
	<path d="M 32.0,4.0 L 60.0,4.0 L 68.0,20.0 L 79.0,43.0 L 79.0,45.0 L 81.0,45.0 L 83.0,39.0 L 99.0,5.0 L 100.0,4.0 L 128.0,4.0 L 120.0,22.0 L 111.0,41.0 L 103.0,57.0 L 96.0,71.0 L 86.0,69.0 L 71.0,69.0 L 63.0,70.0 L 48.0,39.0 L 35.0,11.0 L 32.0,4.0" fill="#64A07A"/>
	<path d="M 71.0,68.0 L 86.0,68.0 L 99.0,72.0 L 108.0,79.0 L 115.0,87.0 L 120.0,97.0 L 122.0,105.0 L 122.0,118.0 L 118.0,131.0 L 112.0,141.0 L 105.0,148.0 L 97.0,153.0 L 86.0,156.0 L 71.0,156.0 L 60.0,152.0 L 51.0,146.0 L 43.0,137.0 L 38.0,127.0 L 36.0,117.0 L 36.0,104.0 L 40.0,92.0 L 46.0,83.0 L 53.0,76.0 L 67.0,69.0 L 71.0,68.0 M 73.0,72.0 L 61.0,77.0 L 53.0,84.0 L 48.0,90.0 L 44.0,98.0 L 42.0,105.0 L 42.0,118.0 L 45.0,129.0 L 51.0,138.0 L 56.0,143.0 L 61.0,147.0 L 69.0,151.0 L 73.0,152.0 L 85.0,152.0 L 95.0,149.0 L 103.0,144.0 L 111.0,136.0 L 115.0,128.0 L 118.0,117.0 L 118.0,106.0 L 114.0,93.0 L 108.0,84.0 L 106.0,84.0 L 106.0,82.0 L 97.0,76.0 L 91.0,73.0 L 84.0,72.0 L 73.0,72.0" fill="#F4C57B"/>
	<path d="M 102.0,8.0 L 121.0,8.0 L 118.0,17.0 L 110.0,33.0 L 95.0,64.0 L 92.0,70.0 L 75.0,68.0 L 78.0,59.0 L 91.0,32.0 L 99.0,14.0 L 102.0,8.0" fill="#97C79C"/>
	<path d="M 39.0,8.0 L 58.0,8.0 L 68.0,30.0 L 76.0,46.0 L 77.0,54.0 L 70.0,69.0 L 67.0,69.0 L 54.0,42.0 L 42.0,16.0 L 39.0,10.0 L 39.0,8.0" fill="#97C79C"/>
	<path d="M 50.0,112.0 L 54.0,112.0 L 56.0,123.0 L 62.0,132.0 L 71.0,138.0 L 76.0,139.0 L 86.0,139.0 L 96.0,134.0 L 102.0,127.0 L 105.0,119.0 L 106.0,112.0 L 110.0,112.0 L 110.0,120.0 L 106.0,129.0 L 101.0,136.0 L 92.0,142.0 L 86.0,144.0 L 73.0,144.0 L 63.0,139.0 L 57.0,134.0 L 51.0,124.0 L 50.0,119.0 L 50.0,112.0" fill="#F5C579"/>
	<path d="M 79.0,88.0 L 82.0,88.0 L 82.0,128.0 L 76.0,128.0 L 75.0,97.0 L 69.0,99.0 L 69.0,93.0 L 79.0,88.0" fill="#F5C378"/>
</svg>
