<?xml version="1.0" ?>
<svg baseProfile="full" height="600px" version="1.1" viewBox="-20.1 -20.1 240.2 240.2" width="600px" xmlns="http://www.w3.org/2000/svg" xmlns:ev="http://www.w3.org/2001/xml-events" xmlns:xlink="http://www.w3.org/1999/xlink">
	<defs/>
	<path d="M 0.0,0.0 L 200.0,0.0 L 200.0,200.0 L 0.0,200.0 L 0.0,0.0" fill="#FCFCFC"/>
	<path d="M 17.0,8.0 L 22.0,9.0 L 28.0,18.0 L 44.0,44.0 L 60.0,70.0 L 60.0,72.0 L 65.0,70.0 L 52.0,49.0 L 40.0,30.0 L 30.0,14.0 L 31.0,9.0 L 36.0,8.0 L 44.0,19.0 L 56.0,39.0 L 70.0,61.0 L 72.0,66.0 L 78.0,64.0 L 85.0,63.0 L 88.0,55.0 L 78.0,35.0 L 68.0,16.0 L 67.0,10.0 L 69.0,8.0 L 74.0,9.0 L 86.0,31.0 L 93.0,45.0 L 95.0,43.0 L 94.0,38.0 L 83.0,16.0 L 82.0,15.0 L 82.0,10.0 L 84.0,8.0 L 89.0,9.0 L 99.0,28.0 L 101.0,30.0 L 111.0,10.0 L 113.0,8.0 L 118.0,9.0 L 119.0,10.0 L 119.0,15.0 L 111.0,31.0 L 95.0,63.0 L 100.0,64.0 L 102.0,58.0 L 126.0,10.0 L 128.0,8.0 L 133.0,9.0 L 134.0,14.0 L 109.0,64.0 L 119.0,68.0 L 135.0,47.0 L 151.0,26.0 L 163.0,10.0 L 165.0,8.0 L 170.0,9.0 L 171.0,14.0 L 155.0,35.0 L 139.0,56.0 L 127.0,72.0 L 128.0,76.0 L 133.0,71.0 L 144.0,57.0 L 158.0,39.0 L 172.0,21.0 L 182.0,8.0 L 188.0,9.0 L 188.0,15.0 L 175.0,31.0 L 163.0,47.0 L 151.0,62.0 L 141.0,75.0 L 135.0,83.0 L 137.0,88.0 L 143.0,101.0 L 146.0,113.0 L 147.0,120.0 L 147.0,135.0 L 144.0,151.0 L 140.0,162.0 L 134.0,173.0 L 124.0,184.0 L 114.0,190.0 L 107.0,192.0 L 77.0,192.0 L 66.0,188.0 L 58.0,182.0 L 53.0,177.0 L 47.0,170.0 L 40.0,155.0 L 36.0,139.0 L 36.0,116.0 L 40.0,100.0 L 47.0,86.0 L 53.0,79.0 L 52.0,74.0 L 39.0,53.0 L 22.0,25.0 L 15.0,14.0 L 16.0,9.0 L 17.0,8.0" fill="#070707"/>
	<path d="M 97.0,72.0 L 104.0,72.0 L 115.0,76.0 L 123.0,82.0 L 130.0,90.0 L 136.0,102.0 L 140.0,118.0 L 140.0,138.0 L 136.0,154.0 L 130.0,166.0 L 121.0,176.0 L 111.0,182.0 L 103.0,184.0 L 96.0,184.0 L 85.0,180.0 L 77.0,174.0 L 70.0,166.0 L 64.0,154.0 L 60.0,138.0 L 60.0,118.0 L 64.0,102.0 L 70.0,90.0 L 79.0,80.0 L 89.0,74.0 L 97.0,72.0" fill="#F9F9F9"/>
	<path d="M 96.0,98.0 L 103.0,98.0 L 109.0,101.0 L 113.0,107.0 L 114.0,111.0 L 114.0,122.0 L 110.0,130.0 L 97.0,143.0 L 96.0,146.0 L 115.0,146.0 L 115.0,155.0 L 85.0,155.0 L 85.0,147.0 L 89.0,139.0 L 98.0,129.0 L 103.0,124.0 L 105.0,120.0 L 104.0,109.0 L 98.0,109.0 L 95.0,113.0 L 94.0,121.0 L 86.0,121.0 L 86.0,111.0 L 90.0,103.0 L 96.0,98.0" fill="#080808"/>
	<path d="M 71.0,75.0 L 73.0,76.0 L 65.0,86.0 L 58.0,101.0 L 55.0,113.0 L 54.0,120.0 L 54.0,134.0 L 57.0,151.0 L 62.0,164.0 L 68.0,174.0 L 73.0,181.0 L 67.0,179.0 L 58.0,171.0 L 51.0,160.0 L 46.0,148.0 L 44.0,138.0 L 44.0,117.0 L 48.0,102.0 L 55.0,89.0 L 64.0,79.0 L 71.0,75.0" fill="#F5F5F5"/>
	<path d="M 95.0,172.0 L 99.0,172.0 L 99.0,180.0 L 95.0,180.0 L 95.0,172.0" fill="#242424"/>
	<path d="M 104.0,171.0 L 107.0,171.0 L 108.0,179.0 L 104.0,180.0 L 104.0,171.0" fill="#1E1E1E"/>
	<path d="M 120.0,161.0 L 124.0,165.0 L 125.0,168.0 L 121.0,170.0 L 119.0,166.0 L 120.0,161.0" fill="#1D1D1D"/>
	<path d="M 131.0,133.0 L 138.0,133.0 L 137.0,138.0 L 131.0,137.0 L 131.0,133.0" fill="#1F1F1F"/>
	<path d="M 123.0,87.0 L 126.0,89.0 L 124.0,94.0 L 123.0,96.0 L 120.0,95.0 L 121.0,90.0 L 123.0,87.0" fill="#1B1B1B"/>
	<path d="M 81.0,82.0 L 83.0,83.0 L 85.0,90.0 L 81.0,90.0 L 79.0,84.0 L 81.0,82.0" fill="#1B1B1B"/>
	<path d="M 126.0,153.0 L 131.0,157.0 L 130.0,161.0 L 126.0,159.0 L 125.0,154.0 L 126.0,153.0" fill="#161616"/>
	<path d="M 66.0,136.0 L 69.0,136.0 L 68.0,141.0 L 63.0,142.0 L 63.0,137.0 L 66.0,136.0" fill="#181818"/>
	<path d="M 136.0,120.0 L 138.0,120.0 L 138.0,125.0 L 131.0,125.0 L 132.0,121.0 L 136.0,120.0" fill="#222222"/>
	<path d="M 129.0,97.0 L 131.0,97.0 L 132.0,101.0 L 129.0,104.0 L 126.0,104.0 L 125.0,101.0 L 129.0,97.0" fill="#161616"/>
	<path d="M 106.0,77.0 L 110.0,77.0 L 109.0,83.0 L 108.0,85.0 L 105.0,85.0 L 106.0,77.0" fill="#202020"/>
	<path d="M 88.0,169.0 L 91.0,170.0 L 89.0,178.0 L 86.0,177.0 L 87.0,170.0 L 88.0,169.0" fill="#141414"/>
	<path d="M 112.0,168.0 L 115.0,168.0 L 117.0,175.0 L 113.0,176.0 L 112.0,168.0" fill="#151515"/>
	<path d="M 80.0,164.0 L 83.0,164.0 L 82.0,171.0 L 78.0,171.0 L 79.0,166.0 L 80.0,164.0" fill="#161616"/>
	<path d="M 69.0,147.0 L 72.0,147.0 L 71.0,152.0 L 67.0,154.0 L 66.0,149.0 L 69.0,147.0" fill="#161616"/>
	<path d="M 134.0,108.0 L 136.0,109.0 L 136.0,113.0 L 130.0,115.0 L 129.0,111.0 L 134.0,108.0" fill="#171717"/>
	<path d="M 75.0,156.0 L 77.0,157.0 L 76.0,161.0 L 74.0,164.0 L 72.0,164.0 L 71.0,160.0 L 75.0,156.0" fill="#0D0D0D"/>
	<path d="M 129.0,144.0 L 134.0,145.0 L 135.0,150.0 L 131.0,149.0 L 129.0,148.0 L 129.0,144.0" fill="#131313"/>
	<path d="M 64.0,112.0 L 70.0,114.0 L 69.0,118.0 L 63.0,116.0 L 64.0,112.0" fill="#131313"/>
	<path d="M 68.0,100.0 L 73.0,104.0 L 71.0,108.0 L 67.0,105.0 L 68.0,100.0" fill="#101010"/>
	<path d="M 88.0,78.0 L 91.0,78.0 L 92.0,80.0 L 92.0,86.0 L 89.0,86.0 L 88.0,78.0" fill="#121212"/>
	<path d="M 74.0,90.0 L 78.0,95.0 L 77.0,98.0 L 74.0,97.0 L 72.0,92.0 L 74.0,90.0" fill="#0C0C0C"/>
	<path d="M 115.0,81.0 L 118.0,82.0 L 117.0,88.0 L 113.0,88.0 L 115.0,81.0" fill="#0D0D0D"/>
	<path d="M 62.0,125.0 L 68.0,125.0 L 68.0,129.0 L 62.0,129.0 L 62.0,125.0" fill="#040404"/>
	<path d="M 97.0,76.0 L 100.0,76.0 L 100.0,84.0 L 97.0,84.0 L 97.0,76.0" fill="#020202"/>
</svg>
