<?xml version="1.0" ?>
<svg baseProfile="full" height="600px" version="1.1" viewBox="-20.1 -20.1 240.2 240.2" width="600px" xmlns="http://www.w3.org/2000/svg" xmlns:ev="http://www.w3.org/2001/xml-events" xmlns:xlink="http://www.w3.org/1999/xlink">
	<defs/>
	<path d="M 0.0,0.0 L 200.0,0.0 L 200.0,200.0 L 0.0,200.0 L 0.0,0.0" fill="#FCFCFC"/>
	<path d="M 17.0,8.0 L 22.0,9.0 L 27.0,17.0 L 42.0,45.0 L 55.0,68.0 L 58.0,74.0 L 58.0,76.0 L 62.0,74.0 L 60.0,68.0 L 45.0,41.0 L 30.0,14.0 L 31.0,9.0 L 36.0,8.0 L 42.0,17.0 L 55.0,41.0 L 68.0,64.0 L 70.0,68.0 L 80.0,65.0 L 85.0,63.0 L 88.0,55.0 L 78.0,35.0 L 68.0,16.0 L 67.0,10.0 L 69.0,8.0 L 74.0,9.0 L 86.0,31.0 L 93.0,45.0 L 95.0,43.0 L 94.0,38.0 L 83.0,16.0 L 82.0,15.0 L 82.0,10.0 L 84.0,8.0 L 89.0,9.0 L 99.0,28.0 L 101.0,30.0 L 111.0,10.0 L 113.0,8.0 L 118.0,9.0 L 119.0,10.0 L 119.0,15.0 L 111.0,31.0 L 95.0,63.0 L 100.0,64.0 L 102.0,58.0 L 126.0,10.0 L 128.0,8.0 L 133.0,9.0 L 134.0,14.0 L 110.0,62.0 L 109.0,65.0 L 119.0,67.0 L 126.0,70.0 L 142.0,44.0 L 156.0,21.0 L 163.0,10.0 L 165.0,8.0 L 170.0,9.0 L 171.0,14.0 L 155.0,40.0 L 139.0,66.0 L 134.0,74.0 L 136.0,78.0 L 139.0,75.0 L 155.0,50.0 L 169.0,28.0 L 182.0,8.0 L 188.0,9.0 L 188.0,15.0 L 177.0,32.0 L 163.0,54.0 L 149.0,76.0 L 144.0,84.0 L 145.0,89.0 L 150.0,97.0 L 153.0,104.0 L 156.0,117.0 L 156.0,138.0 L 154.0,147.0 L 149.0,161.0 L 140.0,174.0 L 130.0,183.0 L 116.0,190.0 L 106.0,192.0 L 84.0,192.0 L 72.0,188.0 L 60.0,181.0 L 50.0,171.0 L 42.0,158.0 L 37.0,143.0 L 36.0,137.0 L 36.0,117.0 L 40.0,103.0 L 47.0,89.0 L 52.0,83.0 L 50.0,78.0 L 36.0,52.0 L 23.0,28.0 L 15.0,14.0 L 16.0,9.0 L 17.0,8.0" fill="#F9F9F9"/>
	<path d="M 17.0,8.0 L 22.0,9.0 L 27.0,17.0 L 42.0,45.0 L 55.0,68.0 L 58.0,74.0 L 58.0,76.0 L 62.0,74.0 L 60.0,68.0 L 45.0,41.0 L 30.0,14.0 L 31.0,9.0 L 36.0,8.0 L 42.0,17.0 L 55.0,41.0 L 68.0,64.0 L 70.0,68.0 L 80.0,65.0 L 85.0,63.0 L 88.0,55.0 L 78.0,35.0 L 68.0,16.0 L 67.0,10.0 L 69.0,8.0 L 74.0,9.0 L 86.0,31.0 L 93.0,45.0 L 95.0,43.0 L 94.0,38.0 L 83.0,16.0 L 82.0,15.0 L 82.0,10.0 L 84.0,8.0 L 89.0,9.0 L 99.0,28.0 L 101.0,30.0 L 111.0,10.0 L 113.0,8.0 L 118.0,9.0 L 119.0,10.0 L 119.0,15.0 L 111.0,31.0 L 95.0,63.0 L 100.0,64.0 L 102.0,58.0 L 126.0,10.0 L 128.0,8.0 L 133.0,9.0 L 134.0,14.0 L 110.0,62.0 L 109.0,65.0 L 119.0,67.0 L 126.0,70.0 L 142.0,44.0 L 156.0,21.0 L 163.0,10.0 L 165.0,8.0 L 170.0,9.0 L 171.0,14.0 L 155.0,40.0 L 139.0,66.0 L 134.0,74.0 L 136.0,78.0 L 139.0,75.0 L 155.0,50.0 L 169.0,28.0 L 182.0,8.0 L 188.0,9.0 L 188.0,15.0 L 177.0,32.0 L 163.0,54.0 L 149.0,76.0 L 144.0,84.0 L 145.0,89.0 L 150.0,97.0 L 153.0,104.0 L 156.0,117.0 L 156.0,138.0 L 154.0,147.0 L 149.0,161.0 L 140.0,174.0 L 130.0,183.0 L 116.0,190.0 L 106.0,192.0 L 84.0,192.0 L 72.0,188.0 L 60.0,181.0 L 50.0,171.0 L 42.0,158.0 L 37.0,143.0 L 36.0,137.0 L 36.0,117.0 L 40.0,103.0 L 47.0,89.0 L 52.0,83.0 L 50.0,78.0 L 36.0,52.0 L 23.0,28.0 L 15.0,14.0 L 16.0,9.0 L 17.0,8.0 M 93.0,72.0 L 81.0,76.0 L 71.0,83.0 L 64.0,90.0 L 58.0,100.0 L 54.0,109.0 L 52.0,117.0 L 52.0,136.0 L 54.0,146.0 L 59.0,158.0 L 66.0,168.0 L 73.0,175.0 L 83.0,181.0 L 93.0,184.0 L 108.0,184.0 L 121.0,179.0 L 130.0,173.0 L 137.0,166.0 L 145.0,152.0 L 148.0,143.0 L 149.0,136.0 L 149.0,117.0 L 145.0,104.0 L 139.0,93.0 L 130.0,83.0 L 121.0,77.0 L 111.0,73.0 L 106.0,72.0 L 93.0,72.0" fill="#080808"/>
	<path d="M 100.0,99.0 L 108.0,99.0 L 108.0,155.0 L 98.0,155.0 L 98.0,119.0 L 86.0,119.0 L 86.0,110.0 L 94.0,108.0 L 98.0,104.0 L 100.0,99.0" fill="#040404"/>
	<path d="M 105.0,171.0 L 109.0,171.0 L 110.0,179.0 L 106.0,180.0 L 105.0,171.0" fill="#2C2C2C"/>
	<path d="M 95.0,172.0 L 99.0,172.0 L 99.0,180.0 L 95.0,180.0 L 95.0,172.0" fill="#232323"/>
	<path d="M 86.0,78.0 L 90.0,78.0 L 91.0,86.0 L 87.0,85.0 L 86.0,78.0" fill="#252525"/>
	<path d="M 97.0,76.0 L 101.0,76.0 L 101.0,84.0 L 97.0,84.0 L 97.0,76.0" fill="#1C1C1C"/>
	<path d="M 70.0,156.0 L 72.0,156.0 L 73.0,159.0 L 69.0,164.0 L 67.0,164.0 L 66.0,160.0 L 70.0,156.0" fill="#1E1E1E"/>
	<path d="M 131.0,154.0 L 135.0,155.0 L 137.0,157.0 L 136.0,161.0 L 132.0,159.0 L 130.0,155.0 L 131.0,154.0" fill="#1E1E1E"/>
	<path d="M 57.0,112.0 L 64.0,114.0 L 64.0,118.0 L 57.0,117.0 L 57.0,112.0" fill="#212121"/>
	<path d="M 124.0,162.0 L 128.0,164.0 L 130.0,168.0 L 126.0,170.0 L 123.0,165.0 L 124.0,162.0" fill="#1A1A1A"/>
	<path d="M 64.0,147.0 L 67.0,148.0 L 67.0,151.0 L 61.0,154.0 L 60.0,149.0 L 64.0,147.0" fill="#1A1A1A"/>
	<path d="M 69.0,90.0 L 74.0,95.0 L 73.0,98.0 L 69.0,96.0 L 67.0,92.0 L 69.0,90.0" fill="#171717"/>
	<path d="M 119.0,81.0 L 122.0,82.0 L 121.0,87.0 L 120.0,89.0 L 116.0,88.0 L 119.0,81.0" fill="#1B1B1B"/>
	<path d="M 77.0,164.0 L 80.0,165.0 L 79.0,170.0 L 78.0,172.0 L 74.0,171.0 L 76.0,166.0 L 77.0,164.0" fill="#171717"/>
	<path d="M 136.0,144.0 L 141.0,145.0 L 143.0,147.0 L 142.0,150.0 L 136.0,148.0 L 136.0,144.0" fill="#171717"/>
	<path d="M 138.0,133.0 L 145.0,133.0 L 145.0,138.0 L 138.0,137.0 L 138.0,133.0" fill="#1A1A1A"/>
	<path d="M 128.0,88.0 L 131.0,89.0 L 130.0,93.0 L 126.0,96.0 L 125.0,92.0 L 128.0,88.0" fill="#171717"/>
	<path d="M 77.0,83.0 L 80.0,84.0 L 82.0,90.0 L 78.0,90.0 L 76.0,87.0 L 77.0,83.0" fill="#161616"/>
	<path d="M 108.0,77.0 L 112.0,77.0 L 111.0,83.0 L 110.0,85.0 L 107.0,85.0 L 108.0,77.0" fill="#1A1A1A"/>
	<path d="M 86.0,169.0 L 89.0,170.0 L 88.0,177.0 L 84.0,177.0 L 85.0,171.0 L 86.0,169.0" fill="#131313"/>
	<path d="M 115.0,168.0 L 118.0,168.0 L 120.0,172.0 L 119.0,176.0 L 116.0,175.0 L 115.0,168.0" fill="#131313"/>
	<path d="M 62.0,136.0 L 63.0,140.0 L 57.0,142.0 L 56.0,137.0 L 62.0,136.0" fill="#181818"/>
	<path d="M 55.0,125.0 L 62.0,125.0 L 62.0,129.0 L 55.0,129.0 L 55.0,125.0" fill="#0A0A0A"/>
	<path d="M 139.0,121.0 L 146.0,121.0 L 146.0,125.0 L 139.0,125.0 L 139.0,121.0" fill="#191919"/>
	<path d="M 141.0,108.0 L 143.0,108.0 L 142.0,113.0 L 137.0,114.0 L 137.0,110.0 L 141.0,108.0" fill="#151515"/>
	<path d="M 62.0,100.0 L 68.0,104.0 L 67.0,107.0 L 62.0,105.0 L 61.0,101.0 L 62.0,100.0" fill="#131313"/>
	<path d="M 136.0,97.0 L 138.0,98.0 L 137.0,102.0 L 132.0,104.0 L 131.0,101.0 L 136.0,97.0" fill="#101010"/>
</svg>
