<?xml version="1.0" ?>
<svg baseProfile="full" height="600px" version="1.1" viewBox="-12.06 -12.06 144.12 144.12" width="600px" xmlns="http://www.w3.org/2000/svg" xmlns:ev="http://www.w3.org/2001/xml-events" xmlns:xlink="http://www.w3.org/1999/xlink">
	<defs/>
	<path d="M 0.0,0.0 L 120.0,0.0 L 120.0,120.0 L 0.0,120.0 L 0.0,0.0" fill="#FCFCFC"/>
	<path d="M 11.0,8.0 L 20.0,8.0 L 28.0,17.0 L 39.0,31.0 L 48.0,42.0 L 48.0,44.0 L 54.0,44.0 L 56.0,40.0 L 76.0,10.0 L 78.0,8.0 L 87.0,8.0 L 80.0,19.0 L 63.0,45.0 L 68.0,46.0 L 70.0,47.0 L 72.0,43.0 L 85.0,27.0 L 98.0,11.0 L 100.0,8.0 L 110.0,8.0 L 104.0,16.0 L 90.0,33.0 L 79.0,47.0 L 76.0,51.0 L 77.0,55.0 L 81.0,66.0 L 82.0,69.0 L 82.0,82.0 L 78.0,95.0 L 72.0,103.0 L 67.0,107.0 L 63.0,108.0 L 48.0,108.0 L 41.0,105.0 L 36.0,101.0 L 32.0,95.0 L 28.0,83.0 L 28.0,69.0 L 32.0,57.0 L 38.0,49.0 L 41.0,48.0 L 38.0,43.0 L 25.0,27.0 L 14.0,13.0 L 11.0,8.0" fill="#060606"/>
	<path d="M 57.0,60.0 L 63.0,60.0 L 67.0,64.0 L 67.0,70.0 L 64.0,75.0 L 67.0,76.0 L 68.0,83.0 L 65.0,88.0 L 64.0,89.0 L 56.0,89.0 L 52.0,83.0 L 52.0,80.0 L 57.0,80.0 L 58.0,83.0 L 62.0,82.0 L 62.0,78.0 L 58.0,77.0 L 58.0,72.0 L 62.0,70.0 L 61.0,66.0 L 58.0,66.0 L 57.0,69.0 L 53.0,69.0 L 54.0,62.0 L 57.0,60.0" fill="#EFEFEF"/>
	<path d="M 34.0,8.0 L 43.0,8.0 L 56.0,29.0 L 55.0,34.0 L 53.0,37.0 L 50.0,36.0 L 38.0,16.0 L 34.0,10.0 L 34.0,8.0" fill="#080808"/>
	<path d="M 41.0,58.0 L 42.0,60.0 L 40.0,65.0 L 40.0,85.0 L 42.0,94.0 L 39.0,91.0 L 36.0,82.0 L 36.0,70.0 L 40.0,59.0 L 41.0,58.0" fill="#B0B0B0"/>
</svg>
