<?xml version="1.0" ?>
<svg baseProfile="full" height="600px" version="1.1" viewBox="-12.06 -12.06 144.12 144.12" width="600px" xmlns="http://www.w3.org/2000/svg" xmlns:ev="http://www.w3.org/2001/xml-events" xmlns:xlink="http://www.w3.org/1999/xlink">
	<defs/>
	<path d="M 0.0,0.0 L 120.0,0.0 L 120.0,120.0 L 0.0,120.0 L 0.0,0.0" fill="#FCFCFC"/>
	<path d="M 10.0,8.0 L 19.0,8.0 L 32.0,26.0 L 46.0,45.0 L 55.0,43.0 L 78.0,9.0 L 79.0,8.0 L 88.0,8.0 L 83.0,17.0 L 66.0,42.0 L 64.0,45.0 L 70.0,46.0 L 73.0,47.0 L 86.0,29.0 L 99.0,11.0 L 101.0,8.0 L 111.0,8.0 L 105.0,17.0 L 91.0,36.0 L 80.0,51.0 L 81.0,55.0 L 86.0,65.0 L 87.0,69.0 L 87.0,83.0 L 83.0,93.0 L 79.0,99.0 L 72.0,105.0 L 64.0,108.0 L 50.0,108.0 L 40.0,103.0 L 33.0,95.0 L 29.0,86.0 L 28.0,82.0 L 28.0,71.0 L 31.0,61.0 L 37.0,52.0 L 38.0,48.0 L 26.0,32.0 L 13.0,14.0 L 10.0,10.0 L 10.0,8.0" fill="#050505"/>
	<path d="M 56.0,60.0 L 64.0,60.0 L 69.0,65.0 L 68.0,72.0 L 65.0,73.0 L 65.0,75.0 L 69.0,77.0 L 69.0,85.0 L 64.0,89.0 L 55.0,89.0 L 50.0,83.0 L 50.0,80.0 L 56.0,80.0 L 58.0,83.0 L 62.0,83.0 L 62.0,78.0 L 57.0,77.0 L 57.0,72.0 L 62.0,71.0 L 62.0,66.0 L 57.0,67.0 L 56.0,69.0 L 51.0,69.0 L 52.0,63.0 L 56.0,60.0" fill="#EFEFEF"/>
	<path d="M 32.0,8.0 L 42.0,8.0 L 56.0,30.0 L 55.0,34.0 L 51.0,38.0 L 34.0,12.0 L 32.0,8.0" fill="#090909"/>
</svg>
