<?xml version="1.0" ?>
<svg baseProfile="full" height="600px" version="1.1" viewBox="-12.06 -12.06 144.12 144.12" width="600px" xmlns="http://www.w3.org/2000/svg" xmlns:ev="http://www.w3.org/2001/xml-events" xmlns:xlink="http://www.w3.org/1999/xlink">
	<defs/>
	<path d="M 0.0,0.0 L 120.0,0.0 L 120.0,120.0 L 0.0,120.0 L 0.0,0.0" fill="#FCFCFC"/>
	<path d="M 10.0,8.0 L 19.0,8.0 L 33.0,26.0 L 46.0,44.0 L 55.0,43.0 L 78.0,8.0 L 88.0,8.0 L 81.0,19.0 L 64.0,45.0 L 70.0,46.0 L 73.0,47.0 L 75.0,43.0 L 89.0,24.0 L 101.0,8.0 L 110.0,8.0 L 108.0,12.0 L 95.0,30.0 L 79.0,51.0 L 80.0,55.0 L 84.0,63.0 L 86.0,71.0 L 86.0,82.0 L 82.0,93.0 L 76.0,102.0 L 68.0,107.0 L 65.0,108.0 L 49.0,108.0 L 40.0,103.0 L 33.0,95.0 L 29.0,85.0 L 28.0,81.0 L 28.0,69.0 L 33.0,57.0 L 39.0,50.0 L 37.0,46.0 L 23.0,27.0 L 10.0,9.0 L 10.0,8.0" fill="#050505"/>
	<path d="M 33.0,8.0 L 42.0,8.0 L 56.0,30.0 L 55.0,34.0 L 51.0,38.0 L 35.0,13.0 L 33.0,8.0" fill="#080808"/>
	<path d="M 58.0,60.0 L 64.0,60.0 L 64.0,89.0 L 58.0,89.0 L 57.0,68.0 L 52.0,71.0 L 52.0,65.0 L 58.0,60.0" fill="#E3E3E3"/>
</svg>
