<?xml version="1.0" ?>
<svg baseProfile="full" height="600px" version="1.1" viewBox="-12.06 -12.06 144.12 144.12" width="600px" xmlns="http://www.w3.org/2000/svg" xmlns:ev="http://www.w3.org/2001/xml-events" xmlns:xlink="http://www.w3.org/1999/xlink">
	<defs/>
	<path d="M 0.0,0.0 L 120.0,0.0 L 120.0,120.0 L 0.0,120.0 L 0.0,0.0" fill="#FCFCFC"/>
	<path d="M 9.0,8.0 L 18.0,8.0 L 26.0,19.0 L 39.0,38.0 L 44.0,45.0 L 44.0,47.0 L 52.0,44.0 L 56.0,44.0 L 58.0,40.0 L 65.0,29.0 L 79.0,8.0 L 89.0,8.0 L 82.0,19.0 L 72.0,34.0 L 65.0,45.0 L 72.0,46.0 L 75.0,47.0 L 88.0,28.0 L 102.0,8.0 L 111.0,8.0 L 109.0,13.0 L 101.0,24.0 L 90.0,40.0 L 82.0,52.0 L 84.0,56.0 L 89.0,66.0 L 90.0,69.0 L 90.0,82.0 L 86.0,93.0 L 77.0,103.0 L 69.0,107.0 L 64.0,108.0 L 52.0,108.0 L 40.0,102.0 L 33.0,94.0 L 29.0,86.0 L 28.0,82.0 L 28.0,70.0 L 32.0,60.0 L 37.0,53.0 L 36.0,49.0 L 28.0,37.0 L 12.0,14.0 L 9.0,10.0 L 9.0,8.0" fill="#050505"/>
	<path d="M 55.0,60.0 L 64.0,60.0 L 70.0,65.0 L 70.0,71.0 L 61.0,81.0 L 60.0,82.0 L 70.0,83.0 L 70.0,89.0 L 50.0,89.0 L 50.0,84.0 L 59.0,75.0 L 62.0,71.0 L 62.0,66.0 L 57.0,67.0 L 56.0,69.0 L 50.0,69.0 L 51.0,64.0 L 55.0,60.0" fill="#F1F1F1"/>
	<path d="M 32.0,8.0 L 41.0,8.0 L 56.0,31.0 L 54.0,36.0 L 51.0,38.0 L 43.0,27.0 L 32.0,10.0 L 32.0,8.0" fill="#080808"/>
</svg>
