<?xml version="1.0" ?>
<svg baseProfile="full" height="600px" version="1.1" viewBox="-12.06 -12.06 144.12 144.12" width="600px" xmlns="http://www.w3.org/2000/svg" xmlns:ev="http://www.w3.org/2001/xml-events" xmlns:xlink="http://www.w3.org/1999/xlink">
	<defs/>
	<path d="M 0.0,0.0 L 120.0,0.0 L 120.0,120.0 L 0.0,120.0 L 0.0,0.0" fill="#FCFCFC"/>
	<path d="M 10.0,8.0 L 20.0,8.0 L 34.0,26.0 L 44.0,39.0 L 47.0,43.0 L 54.0,43.0 L 65.0,27.0 L 78.0,8.0 L 87.0,8.0 L 85.0,13.0 L 78.0,23.0 L 65.0,42.0 L 65.0,44.0 L 71.0,46.0 L 82.0,32.0 L 96.0,14.0 L 101.0,8.0 L 110.0,8.0 L 104.0,17.0 L 92.0,32.0 L 82.0,45.0 L 77.0,52.0 L 82.0,63.0 L 83.0,66.0 L 83.0,85.0 L 79.0,95.0 L 75.0,101.0 L 69.0,106.0 L 65.0,108.0 L 48.0,108.0 L 40.0,104.0 L 33.0,96.0 L 29.0,87.0 L 28.0,81.0 L 28.0,69.0 L 32.0,58.0 L 38.0,50.0 L 39.0,46.0 L 28.0,32.0 L 14.0,14.0 L 10.0,8.0" fill="#050505"/>
	<path d="M 33.0,8.0 L 43.0,8.0 L 56.0,30.0 L 55.0,34.0 L 53.0,38.0 L 51.0,38.0 L 40.0,20.0 L 33.0,9.0 L 33.0,8.0" fill="#090909"/>
	<path d="M 57.0,61.0 L 63.0,61.0 L 63.0,89.0 L 58.0,89.0 L 57.0,68.0 L 53.0,71.0 L 53.0,65.0 L 57.0,61.0" fill="#F7F7F7"/>
</svg>
