<?xml version="1.0" ?>
<svg baseProfile="full" height="600px" version="1.1" viewBox="-16.08 -16.08 192.16 192.16" width="600px" xmlns="http://www.w3.org/2000/svg" xmlns:ev="http://www.w3.org/2001/xml-events" xmlns:xlink="http://www.w3.org/1999/xlink">
	<defs/>
	<path d="M 0.0,0.0 L 160.0,0.0 L 160.0,160.0 L 0.0,160.0 L 0.0,0.0" fill="#FDFDFD"/>
	<path d="M 32.0,4.0 L 60.0,4.0 L 67.0,18.0 L 79.0,46.0 L 79.0,49.0 L 81.0,49.0 L 82.0,44.0 L 99.0,5.0 L 100.0,4.0 L 128.0,4.0 L 119.0,23.0 L 99.0,63.0 L 95.0,71.0 L 99.0,75.0 L 104.0,80.0 L 110.0,89.0 L 114.0,102.0 L 114.0,122.0 L 110.0,135.0 L 104.0,144.0 L 99.0,149.0 L 92.0,154.0 L 86.0,156.0 L 67.0,156.0 L 55.0,151.0 L 46.0,143.0 L 40.0,133.0 L 36.0,121.0 L 36.0,103.0 L 40.0,91.0 L 47.0,80.0 L 55.0,73.0 L 61.0,70.0 L 63.0,70.0 L 59.0,60.0 L 43.0,28.0 L 32.0,5.0 L 32.0,4.0" fill="#FEECA1"/>
	<path d="M 32.0,4.0 L 60.0,4.0 L 67.0,18.0 L 79.0,46.0 L 79.0,49.0 L 81.0,49.0 L 82.0,44.0 L 99.0,5.0 L 100.0,4.0 L 128.0,4.0 L 119.0,23.0 L 99.0,63.0 L 95.0,71.0 L 89.0,70.0 L 86.0,69.0 L 64.0,69.0 L 54.0,50.0 L 43.0,28.0 L 32.0,5.0 L 32.0,4.0" fill="#64A07B"/>
	<path d="M 63.0,68.0 L 86.0,68.0 L 95.0,72.0 L 102.0,77.0 L 109.0,87.0 L 113.0,98.0 L 114.0,102.0 L 114.0,122.0 L 110.0,135.0 L 104.0,144.0 L 99.0,149.0 L 92.0,154.0 L 86.0,156.0 L 67.0,156.0 L 55.0,151.0 L 46.0,143.0 L 40.0,133.0 L 36.0,121.0 L 36.0,103.0 L 40.0,91.0 L 47.0,80.0 L 55.0,73.0 L 61.0,70.0 L 63.0,70.0 L 63.0,68.0 M 75.0,72.0 L 67.0,75.0 L 57.0,84.0 L 52.0,93.0 L 49.0,102.0 L 49.0,121.0 L 52.0,130.0 L 57.0,140.0 L 64.0,147.0 L 71.0,151.0 L 76.0,152.0 L 85.0,152.0 L 94.0,148.0 L 102.0,141.0 L 108.0,131.0 L 111.0,120.0 L 111.0,103.0 L 108.0,94.0 L 103.0,84.0 L 96.0,77.0 L 88.0,73.0 L 84.0,72.0 L 75.0,72.0" fill="#F4C47A"/>
	<path d="M 102.0,8.0 L 121.0,8.0 L 119.0,14.0 L 109.0,34.0 L 100.0,51.0 L 92.0,67.0 L 89.0,70.0 L 77.0,68.0 L 80.0,59.0 L 87.0,42.0 L 94.0,27.0 L 102.0,8.0" fill="#97C79C"/>
	<path d="M 39.0,8.0 L 58.0,8.0 L 65.0,25.0 L 72.0,40.0 L 78.0,54.0 L 76.0,60.0 L 72.0,68.0 L 67.0,67.0 L 55.0,43.0 L 46.0,24.0 L 39.0,10.0 L 39.0,8.0" fill="#97C79C"/>
	<path d="M 55.0,112.0 L 58.0,112.0 L 61.0,124.0 L 66.0,133.0 L 71.0,137.0 L 76.0,139.0 L 83.0,139.0 L 92.0,135.0 L 98.0,127.0 L 101.0,119.0 L 102.0,112.0 L 105.0,112.0 L 105.0,119.0 L 102.0,128.0 L 98.0,135.0 L 90.0,142.0 L 84.0,144.0 L 75.0,144.0 L 67.0,140.0 L 60.0,132.0 L 56.0,123.0 L 55.0,112.0" fill="#F5C579"/>
	<path d="M 79.0,88.0 L 82.0,88.0 L 82.0,128.0 L 77.0,128.0 L 76.0,97.0 L 71.0,99.0 L 71.0,93.0 L 79.0,88.0" fill="#F5C478"/>
</svg>
