<?xml version="1.0" ?>
<svg baseProfile="full" height="600px" version="1.1" viewBox="-12.06 -12.06 144.12 144.12" width="600px" xmlns="http://www.w3.org/2000/svg" xmlns:ev="http://www.w3.org/2001/xml-events" xmlns:xlink="http://www.w3.org/1999/xlink">
	<defs/>
	<path d="M 0.0,0.0 L 120.0,0.0 L 120.0,120.0 L 0.0,120.0 L 0.0,0.0" fill="#FCFCFC"/>
	<path d="M 8.0,8.0 L 18.0,8.0 L 44.0,47.0 L 56.0,43.0 L 79.0,9.0 L 80.0,8.0 L 89.0,8.0 L 84.0,17.0 L 67.0,42.0 L 67.0,44.0 L 76.0,47.0 L 102.0,8.0 L 112.0,8.0 L 105.0,19.0 L 84.0,51.0 L 85.0,55.0 L 90.0,63.0 L 92.0,69.0 L 92.0,80.0 L 89.0,91.0 L 82.0,100.0 L 75.0,105.0 L 64.0,108.0 L 53.0,108.0 L 43.0,104.0 L 35.0,97.0 L 30.0,89.0 L 28.0,83.0 L 28.0,69.0 L 32.0,59.0 L 37.0,52.0 L 8.0,9.0 L 8.0,8.0" fill="#050505"/>
	<path d="M 55.0,60.0 L 64.0,60.0 L 69.0,63.0 L 70.0,64.0 L 70.0,71.0 L 66.0,73.0 L 66.0,75.0 L 70.0,76.0 L 71.0,77.0 L 71.0,84.0 L 67.0,88.0 L 65.0,89.0 L 54.0,89.0 L 49.0,84.0 L 49.0,80.0 L 55.0,80.0 L 57.0,83.0 L 62.0,83.0 L 63.0,78.0 L 56.0,77.0 L 56.0,72.0 L 63.0,70.0 L 62.0,66.0 L 57.0,66.0 L 56.0,69.0 L 49.0,69.0 L 50.0,64.0 L 55.0,60.0" fill="#F1F1F1"/>
	<path d="M 31.0,8.0 L 40.0,8.0 L 48.0,19.0 L 56.0,31.0 L 54.0,36.0 L 51.0,39.0 L 31.0,9.0 L 31.0,8.0" fill="#090909"/>
</svg>
