<?xml version="1.0" ?>
<svg baseProfile="full" height="600px" version="1.1" viewBox="-20.1 -20.1 240.2 240.2" width="600px" xmlns="http://www.w3.org/2000/svg" xmlns:ev="http://www.w3.org/2001/xml-events" xmlns:xlink="http://www.w3.org/1999/xlink">
	<defs/>
	<path d="M 0.0,0.0 L 200.0,0.0 L 200.0,200.0 L 0.0,200.0 L 0.0,0.0" fill="#FCFCFC"/>
	<path d="M 0.0,0.0 L 200.0,0.0 L 200.0,200.0 L 0.0,200.0 L 0.0,0.0 M 18.0,16.0 L 16.0,18.0 L 16.0,182.0 L 18.0,184.0 L 182.0,184.0 L 184.0,182.0 L 184.0,18.0 L 182.0,16.0 L 18.0,16.0" fill="#FDFDFD"/>
	<path d="M 44.0,52.0 L 77.0,52.0 L 95.0,90.0 L 103.0,107.0 L 103.0,109.0 L 105.0,109.0 L 108.0,99.0 L 127.0,53.0 L 128.0,52.0 L 160.0,52.0 L 159.0,56.0 L 153.0,63.0 L 153.0,132.0 L 160.0,141.0 L 160.0,144.0 L 116.0,144.0 L 118.0,140.0 L 127.0,132.0 L 127.0,75.0 L 110.0,118.0 L 104.0,134.0 L 100.0,144.0 L 93.0,144.0 L 85.0,128.0 L 72.0,100.0 L 61.0,77.0 L 61.0,128.0 L 72.0,141.0 L 72.0,144.0 L 40.0,144.0 L 41.0,140.0 L 51.0,128.0 L 51.0,64.0 L 44.0,55.0 L 44.0,52.0" fill="#040404"/>
	<path d="M 18.0,16.0 L 182.0,16.0 L 184.0,18.0 L 184.0,182.0 L 182.0,184.0 L 18.0,184.0 L 16.0,182.0 L 16.0,18.0 L 18.0,16.0 M 24.0,24.0 L 24.0,176.0 L 176.0,176.0 L 176.0,24.0 L 24.0,24.0" fill="#000000"/>
	<path d="M 136.0,60.0 L 145.0,60.0 L 145.0,136.0 L 135.0,136.0 L 136.0,60.0" fill="#FBFBFB"/>
	<path d="M 63.0,60.0 L 72.0,60.0 L 85.0,88.0 L 100.0,120.0 L 97.0,129.0 L 95.0,130.0 L 77.0,92.0 L 63.0,62.0 L 63.0,60.0" fill="#F5F5F5"/>
</svg>
