<?xml version="1.0" ?>
<svg baseProfile="full" height="600px" version="1.1" viewBox="-20.1 -20.1 240.2 240.2" width="600px" xmlns="http://www.w3.org/2000/svg" xmlns:ev="http://www.w3.org/2001/xml-events" xmlns:xlink="http://www.w3.org/1999/xlink">
	<defs/>
	<path d="M 0.0,0.0 L 200.0,0.0 L 200.0,200.0 L 0.0,200.0 L 0.0,0.0" fill="#FCFCFC"/>
	<path d="M 0.0,0.0 L 200.0,0.0 L 200.0,200.0 L 0.0,200.0 L 0.0,0.0 M 18.0,16.0 L 16.0,18.0 L 16.0,182.0 L 18.0,184.0 L 182.0,184.0 L 184.0,182.0 L 184.0,18.0 L 182.0,16.0 L 18.0,16.0" fill="#FDFDFD"/>
	<path d="M 18.0,16.0 L 182.0,16.0 L 184.0,18.0 L 184.0,182.0 L 182.0,184.0 L 18.0,184.0 L 16.0,182.0 L 16.0,18.0 L 18.0,16.0 M 24.0,24.0 L 24.0,176.0 L 176.0,176.0 L 176.0,24.0 L 24.0,24.0" fill="#000000"/>
	<path d="M 52.0,54.0 L 147.0,54.0 L 147.0,66.0 L 52.0,65.0 L 52.0,54.0" fill="#181818"/>
	<path d="M 143.0,109.0 L 147.0,110.0 L 147.0,118.0 L 143.0,119.0 L 115.0,121.0 L 81.0,123.0 L 57.0,126.0 L 52.0,126.0 L 52.0,113.0 L 122.0,110.0 L 143.0,109.0" fill="#202020"/>
	<path d="M 145.0,139.0 L 147.0,139.0 L 147.0,149.0 L 54.0,148.0 L 55.0,140.0 L 145.0,139.0" fill="#010101"/>
	<path d="M 55.0,82.0 L 104.0,83.0 L 133.0,84.0 L 144.0,85.0 L 143.0,92.0 L 113.0,92.0 L 64.0,90.0 L 52.0,89.0 L 53.0,84.0 L 55.0,82.0" fill="#0C0C0C"/>
</svg>
