<?xml version="1.0" ?>
<svg baseProfile="full" height="600px" version="1.1" viewBox="-20.1 -20.1 240.2 240.2" width="600px" xmlns="http://www.w3.org/2000/svg" xmlns:ev="http://www.w3.org/2001/xml-events" xmlns:xlink="http://www.w3.org/1999/xlink">
	<defs/>
	<path d="M 0.0,0.0 L 200.0,0.0 L 200.0,200.0 L 0.0,200.0 L 0.0,0.0" fill="#FDFDFD"/>
	<path d="M 0.0,0.0 L 200.0,0.0 L 200.0,200.0 L 0.0,200.0 L 0.0,0.0 M 32.0,16.0 L 25.0,19.0 L 20.0,23.0 L 17.0,28.0 L 16.0,32.0 L 16.0,169.0 L 20.0,177.0 L 28.0,183.0 L 31.0,184.0 L 169.0,184.0 L 177.0,180.0 L 183.0,172.0 L 184.0,169.0 L 184.0,31.0 L 180.0,23.0 L 172.0,17.0 L 169.0,16.0 L 32.0,16.0" fill="#FDFDFD"/>
	<path d="M 32.0,16.0 L 169.0,16.0 L 177.0,20.0 L 183.0,28.0 L 184.0,31.0 L 184.0,169.0 L 180.0,177.0 L 172.0,183.0 L 169.0,184.0 L 31.0,184.0 L 23.0,180.0 L 17.0,172.0 L 16.0,169.0 L 16.0,32.0 L 19.0,25.0 L 23.0,20.0 L 28.0,17.0 L 32.0,16.0 M 32.0,24.0 L 25.0,30.0 L 24.0,32.0 L 24.0,167.0 L 27.0,172.0 L 32.0,176.0 L 168.0,176.0 L 175.0,170.0 L 176.0,168.0 L 176.0,32.0 L 170.0,25.0 L 167.0,24.0 L 32.0,24.0" fill="#020202"/>
	<path d="M 62.0,66.0 L 66.0,67.0 L 83.0,81.0 L 97.0,92.0 L 103.0,96.0 L 143.0,106.0 L 150.0,108.0 L 149.0,116.0 L 140.0,115.0 L 121.0,110.0 L 119.0,110.0 L 132.0,120.0 L 142.0,128.0 L 140.0,132.0 L 138.0,134.0 L 134.0,133.0 L 117.0,119.0 L 103.0,108.0 L 97.0,104.0 L 57.0,94.0 L 50.0,92.0 L 51.0,84.0 L 60.0,85.0 L 78.0,90.0 L 79.0,89.0 L 62.0,75.0 L 58.0,72.0 L 60.0,68.0 L 62.0,66.0" fill="#090909"/>
</svg>
