<?xml version="1.0" ?>
<svg baseProfile="full" height="600px" version="1.1" viewBox="-16.08 -16.08 192.16 192.16" width="600px" xmlns="http://www.w3.org/2000/svg" xmlns:ev="http://www.w3.org/2001/xml-events" xmlns:xlink="http://www.w3.org/1999/xlink">
	<defs/>
	<path d="M 0.0,0.0 L 160.0,0.0 L 160.0,160.0 L 0.0,160.0 L 0.0,0.0" fill="#FDFDFE"/>
	<path d="M 31.0,21.0 L 35.0,23.0 L 79.0,67.0 L 83.0,65.0 L 127.0,21.0 L 131.0,23.0 L 139.0,31.0 L 137.0,35.0 L 93.0,79.0 L 95.0,83.0 L 139.0,127.0 L 137.0,131.0 L 129.0,139.0 L 125.0,137.0 L 81.0,93.0 L 77.0,95.0 L 33.0,139.0 L 29.0,137.0 L 21.0,129.0 L 23.0,125.0 L 67.0,81.0 L 65.0,77.0 L 21.0,33.0 L 23.0,29.0 L 31.0,21.0" fill="#7A9BC7"/>
	<path d="M 31.0,27.0 L 35.0,29.0 L 79.0,73.0 L 83.0,71.0 L 127.0,27.0 L 131.0,29.0 L 133.0,33.0 L 87.0,79.0 L 89.0,83.0 L 133.0,127.0 L 131.0,131.0 L 127.0,133.0 L 81.0,87.0 L 77.0,89.0 L 33.0,133.0 L 29.0,131.0 L 27.0,127.0 L 73.0,81.0 L 71.0,77.0 L 27.0,33.0 L 29.0,29.0 L 31.0,27.0" fill="#BFE5FD"/>
</svg>
