<?xml version="1.0" ?>
<svg baseProfile="full" height="600px" version="1.1" viewBox="-16.08 -16.08 192.16 192.16" width="600px" xmlns="http://www.w3.org/2000/svg" xmlns:ev="http://www.w3.org/2001/xml-events" xmlns:xlink="http://www.w3.org/1999/xlink">
	<defs/>
	<path d="M 0.0,0.0 L 160.0,0.0 L 160.0,160.0 L 0.0,160.0 L 0.0,0.0" fill="#FDFDFE"/>
	<path d="M 19.0,39.0 L 23.0,40.0 L 39.0,48.0 L 57.0,58.0 L 73.0,66.0 L 78.0,69.0 L 84.0,68.0 L 98.0,60.0 L 114.0,52.0 L 132.0,42.0 L 138.0,39.0 L 142.0,40.0 L 148.0,52.0 L 134.0,61.0 L 113.0,74.0 L 105.0,79.0 L 103.0,79.0 L 103.0,81.0 L 108.0,83.0 L 131.0,97.0 L 148.0,108.0 L 142.0,120.0 L 138.0,121.0 L 104.0,103.0 L 82.0,91.0 L 76.0,92.0 L 54.0,104.0 L 25.0,119.0 L 22.0,121.0 L 18.0,120.0 L 12.0,108.0 L 34.0,94.0 L 55.0,81.0 L 57.0,81.0 L 57.0,79.0 L 52.0,77.0 L 32.0,65.0 L 13.0,53.0 L 14.0,48.0 L 19.0,39.0" fill="#BEE4FC"/>
	<path d="M 19.0,39.0 L 23.0,40.0 L 39.0,48.0 L 57.0,58.0 L 73.0,66.0 L 78.0,69.0 L 84.0,68.0 L 98.0,60.0 L 114.0,52.0 L 132.0,42.0 L 138.0,39.0 L 142.0,40.0 L 148.0,52.0 L 134.0,61.0 L 113.0,74.0 L 105.0,79.0 L 103.0,79.0 L 103.0,81.0 L 108.0,83.0 L 131.0,97.0 L 148.0,108.0 L 142.0,120.0 L 138.0,121.0 L 104.0,103.0 L 82.0,91.0 L 76.0,92.0 L 54.0,104.0 L 25.0,119.0 L 22.0,121.0 L 18.0,120.0 L 12.0,108.0 L 34.0,94.0 L 55.0,81.0 L 57.0,81.0 L 57.0,79.0 L 52.0,77.0 L 32.0,65.0 L 13.0,53.0 L 14.0,48.0 L 19.0,39.0 M 21.0,44.0 L 18.0,49.0 L 19.0,52.0 L 42.0,66.0 L 61.0,78.0 L 63.0,79.0 L 63.0,81.0 L 40.0,95.0 L 21.0,107.0 L 18.0,109.0 L 20.0,115.0 L 22.0,116.0 L 53.0,100.0 L 75.0,88.0 L 81.0,86.0 L 104.0,98.0 L 126.0,110.0 L 139.0,116.0 L 142.0,111.0 L 141.0,108.0 L 118.0,94.0 L 97.0,81.0 L 97.0,79.0 L 115.0,68.0 L 136.0,55.0 L 142.0,51.0 L 140.0,45.0 L 136.0,45.0 L 107.0,60.0 L 85.0,72.0 L 79.0,74.0 L 56.0,62.0 L 34.0,50.0 L 21.0,44.0" fill="#7A9BC7"/>
</svg>
