<?xml version="1.0" ?>
<svg baseProfile="full" height="600px" version="1.1" viewBox="-20.1 -20.1 240.2 240.2" width="600px" xmlns="http://www.w3.org/2000/svg" xmlns:ev="http://www.w3.org/2001/xml-events" xmlns:xlink="http://www.w3.org/1999/xlink">
	<defs/>
	<path d="M 0.0,0.0 L 200.0,0.0 L 200.0,200.0 L 0.0,200.0 L 0.0,0.0" fill="#FDFDFD"/>
	<path d="M 47.0,61.0 L 52.0,61.0 L 53.0,62.0 L 53.0,67.0 L 39.0,82.0 L 27.0,95.0 L 192.0,96.0 L 194.0,98.0 L 193.0,103.0 L 192.0,104.0 L 27.0,105.0 L 36.0,116.0 L 47.0,128.0 L 51.0,133.0 L 51.0,138.0 L 50.0,139.0 L 45.0,139.0 L 38.0,132.0 L 29.0,121.0 L 19.0,110.0 L 15.0,105.0 L 10.0,102.0 L 11.0,97.0 L 17.0,93.0 L 33.0,76.0 L 44.0,64.0 L 47.0,61.0" fill="#030303"/>
</svg>
