<?xml version="1.0" ?>
<svg baseProfile="full" height="600px" version="1.1" viewBox="-19.296000000000003 -19.296000000000003 230.592 230.592" width="600px" xmlns="http://www.w3.org/2000/svg" xmlns:ev="http://www.w3.org/2001/xml-events" xmlns:xlink="http://www.w3.org/1999/xlink">
	<defs/>
	<path d="M 0.0,0.0 L 192.0,0.0 L 192.0,192.0 L 0.0,192.0 L 0.0,0.0" fill="#FDFDFE"/>
	<path d="M 79.0,16.0 L 81.0,16.0 L 91.0,29.0 L 104.0,45.0 L 112.0,55.0 L 123.0,69.0 L 136.0,85.0 L 144.0,95.0 L 142.0,99.0 L 131.0,113.0 L 122.0,124.0 L 110.0,139.0 L 99.0,153.0 L 90.0,164.0 L 81.0,175.0 L 77.0,174.0 L 68.0,165.0 L 69.0,161.0 L 82.0,145.0 L 93.0,131.0 L 101.0,121.0 L 113.0,106.0 L 120.0,97.0 L 118.0,93.0 L 108.0,80.0 L 95.0,64.0 L 82.0,47.0 L 68.0,30.0 L 69.0,26.0 L 79.0,16.0" fill="#3B8FCE"/>
</svg>
