<?xml version="1.0" ?>
<svg baseProfile="full" height="600px" version="1.1" viewBox="-16.08 -16.08 192.16 192.16" width="600px" xmlns="http://www.w3.org/2000/svg" xmlns:ev="http://www.w3.org/2001/xml-events" xmlns:xlink="http://www.w3.org/1999/xlink">
	<defs/>
	<path d="M 0.0,0.0 L 160.0,0.0 L 160.0,160.0 L 0.0,160.0 L 0.0,0.0" fill="#FDFDFE"/>
	<path d="M 14.0,53.0 L 147.0,53.0 L 147.0,69.0 L 14.0,69.0 L 14.0,53.0" fill="#7899C6"/>
	<path d="M 14.0,91.0 L 146.0,91.0 L 146.0,107.0 L 14.0,107.0 L 14.0,91.0" fill="#7597C5"/>
	<path d="M 14.0,72.0 L 146.0,72.0 L 146.0,88.0 L 14.0,88.0 L 14.0,72.0" fill="#7597C5"/>
	<path d="M 18.0,57.0 L 143.0,57.0 L 143.0,65.0 L 18.0,65.0 L 18.0,57.0" fill="#BDE3FB"/>
	<path d="M 18.0,95.0 L 142.0,95.0 L 142.0,103.0 L 18.0,103.0 L 18.0,95.0" fill="#BFE5FD"/>
	<path d="M 18.0,76.0 L 142.0,76.0 L 142.0,84.0 L 18.0,84.0 L 18.0,76.0" fill="#C0E6FD"/>
</svg>
