<?xml version="1.0" ?>
<svg baseProfile="full" height="600px" version="1.1" viewBox="-12.06 -12.06 144.12 144.12" width="600px" xmlns="http://www.w3.org/2000/svg" xmlns:ev="http://www.w3.org/2001/xml-events" xmlns:xlink="http://www.w3.org/1999/xlink">
	<defs/>
	<path d="M 0.0,0.0 L 120.0,0.0 L 120.0,120.0 L 0.0,120.0 L 0.0,0.0" fill="#FDFDFD"/>
	<path d="M 10.0,84.0 L 110.0,84.0 L 112.0,86.0 L 111.0,91.0 L 110.0,92.0 L 10.0,92.0 L 8.0,90.0 L 9.0,85.0 L 10.0,84.0" fill="#010101"/>
	<path d="M 10.0,56.0 L 110.0,56.0 L 112.0,58.0 L 111.0,63.0 L 110.0,64.0 L 10.0,64.0 L 8.0,62.0 L 9.0,57.0 L 10.0,56.0" fill="#010101"/>
	<path d="M 10.0,28.0 L 110.0,28.0 L 112.0,30.0 L 111.0,35.0 L 110.0,36.0 L 10.0,36.0 L 8.0,34.0 L 9.0,29.0 L 10.0,28.0" fill="#010101"/>
</svg>
