<?xml version="1.0" ?>
<svg baseProfile="full" height="600px" version="1.1" viewBox="-20.1 -20.1 240.2 240.2" width="600px" xmlns="http://www.w3.org/2000/svg" xmlns:ev="http://www.w3.org/2001/xml-events" xmlns:xlink="http://www.w3.org/1999/xlink">
	<defs/>
	<path d="M 0.0,0.0 L 200.0,0.0 L 200.0,200.0 L 0.0,200.0 L 0.0,0.0" fill="#FDFDFD"/>
	<path d="M 46.0,56.0 L 51.0,57.0 L 52.0,62.0 L 45.0,69.0 L 38.0,77.0 L 21.0,94.0 L 20.0,96.0 L 193.0,96.0 L 195.0,97.0 L 195.0,103.0 L 194.0,104.0 L 20.0,104.0 L 27.0,112.0 L 44.0,129.0 L 51.0,137.0 L 52.0,142.0 L 50.0,144.0 L 45.0,143.0 L 28.0,126.0 L 21.0,118.0 L 4.0,101.0 L 6.0,97.0 L 27.0,76.0 L 34.0,68.0 L 46.0,56.0" fill="#030303"/>
</svg>
