<?xml version="1.0" ?>
<svg baseProfile="full" height="600px" version="1.1" viewBox="-19.296000000000003 -19.296000000000003 230.592 230.592" width="600px" xmlns="http://www.w3.org/2000/svg" xmlns:ev="http://www.w3.org/2001/xml-events" xmlns:xlink="http://www.w3.org/1999/xlink">
	<defs/>
	<path d="M 0.0,0.0 L 192.0,0.0 L 192.0,192.0 L 0.0,192.0 L 0.0,0.0" fill="#FDFDFE"/>
	<path d="M 115.0,18.0 L 119.0,19.0 L 129.0,29.0 L 125.0,35.0 L 116.0,45.0 L 107.0,56.0 L 98.0,66.0 L 89.0,77.0 L 80.0,87.0 L 74.0,94.0 L 75.0,99.0 L 85.0,110.0 L 94.0,121.0 L 103.0,131.0 L 112.0,142.0 L 121.0,152.0 L 129.0,162.0 L 123.0,169.0 L 116.0,175.0 L 104.0,161.0 L 92.0,147.0 L 80.0,133.0 L 68.0,119.0 L 55.0,104.0 L 49.0,97.0 L 51.0,93.0 L 64.0,78.0 L 76.0,64.0 L 89.0,49.0 L 101.0,35.0 L 113.0,21.0 L 115.0,18.0" fill="#2E93E4"/>
</svg>
