<?xml version="1.0" ?>
<svg baseProfile="full" height="600px" version="1.1" viewBox="-16.08 -16.08 192.16 192.16" width="600px" xmlns="http://www.w3.org/2000/svg" xmlns:ev="http://www.w3.org/2001/xml-events" xmlns:xlink="http://www.w3.org/1999/xlink">
	<defs/>
	<path d="M 0.0,0.0 L 160.0,0.0 L 160.0,160.0 L 0.0,160.0 L 0.0,0.0" fill="#C0E6FD"/>
	<path d="M 0.0,0.0 L 160.0,0.0 L 160.0,160.0 L 0.0,160.0 L 0.0,0.0 M 8.0,8.0 L 8.0,152.0 L 152.0,152.0 L 152.0,8.0 L 8.0,8.0" fill="#FFFFFF"/>
	<path d="M 8.0,8.0 L 152.0,8.0 L 152.0,152.0 L 8.0,152.0 L 8.0,8.0 M 12.0,12.0 L 12.0,148.0 L 148.0,148.0 L 148.0,12.0 L 12.0,12.0" fill="#7496C4"/>
	<path d="M 36.0,92.0 L 124.0,92.0 L 124.0,100.0 L 36.0,100.0 L 36.0,92.0" fill="#36404D"/>
	<path d="M 36.0,76.0 L 124.0,76.0 L 124.0,84.0 L 36.0,84.0 L 36.0,76.0" fill="#36404D"/>
	<path d="M 36.0,60.0 L 124.0,60.0 L 124.0,68.0 L 36.0,68.0 L 36.0,60.0" fill="#36404D"/>
</svg>
