<?xml version="1.0" ?>
<svg baseProfile="full" height="600px" version="1.1" viewBox="-9.648000000000001 -9.648000000000001 115.296 115.296" width="600px" xmlns="http://www.w3.org/2000/svg" xmlns:ev="http://www.w3.org/2001/xml-events" xmlns:xlink="http://www.w3.org/1999/xlink">
	<defs/>
	<path d="M 0.0,0.0 L 96.0,0.0 L 96.0,96.0 L 0.0,96.0 L 0.0,0.0" fill="#FDFDFD"/>
	<path d="M 16.0,12.0 L 20.0,13.0 L 47.0,40.0 L 51.0,38.0 L 77.0,12.0 L 81.0,13.0 L 84.0,16.0 L 83.0,20.0 L 56.0,47.0 L 58.0,51.0 L 84.0,77.0 L 83.0,81.0 L 80.0,84.0 L 76.0,83.0 L 49.0,56.0 L 45.0,58.0 L 19.0,84.0 L 15.0,83.0 L 12.0,80.0 L 13.0,76.0 L 40.0,49.0 L 38.0,45.0 L 12.0,19.0 L 13.0,15.0 L 16.0,12.0" fill="#121212"/>
</svg>
