<?xml version="1.0" ?>
<svg baseProfile="full" height="600px" version="1.1" viewBox="-20.1 -20.1 240.2 240.2" width="600px" xmlns="http://www.w3.org/2000/svg" xmlns:ev="http://www.w3.org/2001/xml-events" xmlns:xlink="http://www.w3.org/1999/xlink">
	<defs/>
	<path d="M 0.0,0.0 L 200.0,0.0 L 200.0,200.0 L 0.0,200.0 L 0.0,0.0" fill="#FDFDFD"/>
	<path d="M 155.0,127.0 L 161.0,127.0 L 163.0,129.0 L 162.0,134.0 L 119.0,149.0 L 68.0,166.0 L 60.0,169.0 L 42.0,175.0 L 37.0,175.0 L 36.0,174.0 L 36.0,169.0 L 40.0,166.0 L 91.0,149.0 L 134.0,134.0 L 155.0,127.0" fill="#090909"/>
	<path d="M 37.0,25.0 L 45.0,26.0 L 97.0,44.0 L 139.0,59.0 L 161.0,67.0 L 163.0,69.0 L 162.0,74.0 L 155.0,74.0 L 100.0,55.0 L 58.0,40.0 L 38.0,33.0 L 36.0,31.0 L 36.0,26.0 L 37.0,25.0" fill="#080808"/>
	<path d="M 10.0,96.0 L 59.0,96.0 L 61.0,98.0 L 60.0,103.0 L 59.0,104.0 L 10.0,104.0 L 8.0,102.0 L 9.0,97.0 L 10.0,96.0" fill="#030303"/>
</svg>
