<?xml version="1.0" ?>
<svg baseProfile="full" height="600px" version="1.1" viewBox="-16.08 -16.08 192.16 192.16" width="600px" xmlns="http://www.w3.org/2000/svg" xmlns:ev="http://www.w3.org/2001/xml-events" xmlns:xlink="http://www.w3.org/1999/xlink">
	<defs/>
	<path d="M 0.0,0.0 L 160.0,0.0 L 160.0,160.0 L 0.0,160.0 L 0.0,0.0" fill="#FDFDFE"/>
	<path d="M 47.0,36.0 L 48.0,36.0 L 48.0,72.0 L 156.0,72.0 L 156.0,88.0 L 48.0,88.0 L 48.0,124.0 L 41.0,118.0 L 4.0,81.0 L 6.0,77.0 L 47.0,36.0" fill="#BEE4FC"/>
	<path d="M 47.0,36.0 L 48.0,36.0 L 48.0,72.0 L 156.0,72.0 L 156.0,88.0 L 48.0,88.0 L 48.0,124.0 L 41.0,118.0 L 4.0,81.0 L 6.0,77.0 L 47.0,36.0 M 43.0,46.0 L 10.0,79.0 L 12.0,83.0 L 43.0,114.0 L 44.0,114.0 L 44.0,84.0 L 152.0,84.0 L 152.0,76.0 L 44.0,76.0 L 44.0,46.0 L 43.0,46.0" fill="#7A9BC7"/>
</svg>
