<?xml version="1.0" ?>
<svg baseProfile="full" height="600px" version="1.1" viewBox="-12.06 -12.06 144.12 144.12" width="600px" xmlns="http://www.w3.org/2000/svg" xmlns:ev="http://www.w3.org/2001/xml-events" xmlns:xlink="http://www.w3.org/1999/xlink">
	<defs/>
	<path d="M 0.0,0.0 L 120.0,0.0 L 120.0,120.0 L 0.0,120.0 L 0.0,0.0" fill="#FDFDFD"/>
	<path d="M 51.0,47.0 L 57.0,47.0 L 59.0,49.0 L 80.0,50.0 L 86.0,54.0 L 89.0,58.0 L 89.0,97.0 L 85.0,105.0 L 77.0,110.0 L 43.0,110.0 L 34.0,106.0 L 26.0,97.0 L 18.0,86.0 L 9.0,76.0 L 7.0,74.0 L 7.0,69.0 L 12.0,65.0 L 20.0,66.0 L 30.0,75.0 L 32.0,77.0 L 33.0,58.0 L 36.0,53.0 L 41.0,50.0 L 49.0,49.0 L 51.0,47.0" fill="#040404"/>
</svg>
