<?xml version="1.0" ?>
<svg baseProfile="full" height="600px" version="1.1" viewBox="-20.1 -20.1 240.2 240.2" width="600px" xmlns="http://www.w3.org/2000/svg" xmlns:ev="http://www.w3.org/2001/xml-events" xmlns:xlink="http://www.w3.org/1999/xlink">
	<defs/>
	<path d="M 0.0,0.0 L 200.0,0.0 L 200.0,200.0 L 0.0,200.0 L 0.0,0.0" fill="#FCFCFC"/>
	<path d="M 0.0,0.0 L 103.0,0.0 L 98.0,4.0 L 94.0,9.0 L 93.0,11.0 L 92.0,71.0 L 78.0,71.0 L 72.0,75.0 L 69.0,81.0 L 68.0,119.0 L 63.0,116.0 L 47.0,104.0 L 42.0,102.0 L 35.0,102.0 L 27.0,107.0 L 23.0,114.0 L 23.0,123.0 L 28.0,131.0 L 44.0,148.0 L 55.0,160.0 L 64.0,170.0 L 76.0,183.0 L 81.0,189.0 L 90.0,195.0 L 99.0,199.0 L 99.0,200.0 L 0.0,200.0 L 0.0,0.0" fill="#FDFDFD"/>
	<path d="M 111.0,0.0 L 200.0,0.0 L 200.0,200.0 L 140.0,200.0 L 140.0,199.0 L 149.0,197.0 L 158.0,192.0 L 165.0,185.0 L 170.0,175.0 L 171.0,168.0 L 171.0,85.0 L 167.0,78.0 L 161.0,75.0 L 150.0,75.0 L 147.0,76.0 L 143.0,70.0 L 137.0,67.0 L 124.0,67.0 L 123.0,11.0 L 119.0,5.0 L 115.0,2.0 L 111.0,0.0" fill="#FDFDFD"/>
	<path d="M 103.0,0.0 L 111.0,0.0 L 118.0,3.0 L 123.0,9.0 L 124.0,11.0 L 124.0,67.0 L 126.0,66.0 L 137.0,66.0 L 144.0,70.0 L 148.0,75.0 L 150.0,74.0 L 161.0,74.0 L 168.0,78.0 L 172.0,85.0 L 172.0,168.0 L 170.0,177.0 L 165.0,186.0 L 157.0,194.0 L 147.0,199.0 L 140.0,200.0 L 99.0,200.0 L 85.0,193.0 L 78.0,187.0 L 71.0,179.0 L 57.0,164.0 L 48.0,154.0 L 37.0,142.0 L 25.0,129.0 L 22.0,123.0 L 22.0,114.0 L 27.0,106.0 L 35.0,101.0 L 42.0,101.0 L 50.0,105.0 L 64.0,116.0 L 67.0,118.0 L 68.0,81.0 L 73.0,73.0 L 78.0,70.0 L 89.0,70.0 L 92.0,71.0 L 92.0,11.0 L 96.0,5.0 L 101.0,1.0 L 103.0,0.0 M 105.0,8.0 L 100.0,13.0 L 99.0,94.0 L 94.0,95.0 L 93.0,94.0 L 92.0,82.0 L 88.0,78.0 L 80.0,78.0 L 76.0,83.0 L 75.0,130.0 L 70.0,131.0 L 56.0,120.0 L 43.0,110.0 L 37.0,109.0 L 31.0,114.0 L 30.0,121.0 L 37.0,130.0 L 44.0,137.0 L 51.0,145.0 L 65.0,160.0 L 74.0,170.0 L 86.0,183.0 L 94.0,189.0 L 101.0,192.0 L 142.0,192.0 L 154.0,186.0 L 160.0,179.0 L 164.0,169.0 L 164.0,86.0 L 160.0,82.0 L 152.0,82.0 L 148.0,87.0 L 147.0,99.0 L 142.0,100.0 L 141.0,99.0 L 140.0,78.0 L 136.0,74.0 L 128.0,74.0 L 124.0,79.0 L 123.0,90.0 L 118.0,91.0 L 117.0,90.0 L 116.0,13.0 L 113.0,9.0 L 105.0,8.0" fill="#040404"/>
</svg>
