<?xml version="1.0" ?>
<svg baseProfile="full" height="600px" version="1.1" viewBox="-12.06 -12.06 144.12 144.12" width="600px" xmlns="http://www.w3.org/2000/svg" xmlns:ev="http://www.w3.org/2001/xml-events" xmlns:xlink="http://www.w3.org/1999/xlink">
	<defs/>
	<path d="M 0.0,0.0 L 120.0,0.0 L 120.0,120.0 L 0.0,120.0 L 0.0,0.0" fill="#FDFDFD"/>
	<path d="M 51.0,8.0 L 58.0,9.0 L 60.0,11.0 L 60.0,48.0 L 83.0,48.0 L 89.0,51.0 L 92.0,56.0 L 92.0,100.0 L 89.0,106.0 L 83.0,111.0 L 81.0,112.0 L 41.0,112.0 L 33.0,108.0 L 26.0,101.0 L 17.0,90.0 L 9.0,83.0 L 0.0,77.0 L 1.0,72.0 L 6.0,68.0 L 14.0,68.0 L 31.0,78.0 L 32.0,56.0 L 35.0,51.0 L 40.0,48.0 L 48.0,48.0 L 48.0,11.0 L 51.0,8.0" fill="#020202"/>
</svg>
