<?xml version="1.0" ?>
<svg baseProfile="full" height="600px" version="1.1" viewBox="-20.1 -20.1 240.2 240.2" width="600px" xmlns="http://www.w3.org/2000/svg" xmlns:ev="http://www.w3.org/2001/xml-events" xmlns:xlink="http://www.w3.org/1999/xlink">
	<defs/>
	<path d="M 0.0,0.0 L 200.0,0.0 L 200.0,200.0 L 0.0,200.0 L 0.0,0.0" fill="#FDFDFD"/>
	<path d="M 103.0,33.0 L 113.0,33.0 L 119.0,37.0 L 123.0,42.0 L 124.0,45.0 L 124.0,70.0 L 126.0,69.0 L 137.0,69.0 L 143.0,73.0 L 146.0,77.0 L 146.0,79.0 L 149.0,77.0 L 161.0,77.0 L 167.0,81.0 L 171.0,87.0 L 171.0,169.0 L 167.0,181.0 L 161.0,189.0 L 152.0,195.0 L 140.0,199.0 L 100.0,199.0 L 89.0,195.0 L 80.0,188.0 L 71.0,178.0 L 62.0,167.0 L 51.0,154.0 L 42.0,143.0 L 31.0,130.0 L 27.0,124.0 L 26.0,121.0 L 26.0,112.0 L 30.0,106.0 L 36.0,101.0 L 48.0,101.0 L 57.0,107.0 L 68.0,116.0 L 68.0,85.0 L 71.0,79.0 L 78.0,73.0 L 90.0,73.0 L 92.0,74.0 L 92.0,44.0 L 96.0,38.0 L 101.0,34.0 L 103.0,33.0" fill="#FCFCFC"/>
	<path d="M 103.0,33.0 L 113.0,33.0 L 119.0,37.0 L 123.0,42.0 L 124.0,45.0 L 124.0,70.0 L 126.0,69.0 L 137.0,69.0 L 143.0,73.0 L 146.0,77.0 L 146.0,79.0 L 149.0,77.0 L 161.0,77.0 L 167.0,81.0 L 171.0,87.0 L 171.0,169.0 L 167.0,181.0 L 161.0,189.0 L 152.0,195.0 L 140.0,199.0 L 100.0,199.0 L 89.0,195.0 L 80.0,188.0 L 71.0,178.0 L 62.0,167.0 L 51.0,154.0 L 42.0,143.0 L 31.0,130.0 L 27.0,124.0 L 26.0,121.0 L 26.0,112.0 L 30.0,106.0 L 36.0,101.0 L 48.0,101.0 L 57.0,107.0 L 68.0,116.0 L 68.0,85.0 L 71.0,79.0 L 78.0,73.0 L 90.0,73.0 L 92.0,74.0 L 92.0,44.0 L 96.0,38.0 L 101.0,34.0 L 103.0,33.0 M 105.0,41.0 L 100.0,46.0 L 99.0,94.0 L 94.0,95.0 L 93.0,94.0 L 92.0,85.0 L 88.0,81.0 L 80.0,81.0 L 76.0,86.0 L 75.0,128.0 L 71.0,129.0 L 60.0,120.0 L 46.0,109.0 L 38.0,109.0 L 34.0,114.0 L 34.0,120.0 L 41.0,129.0 L 52.0,142.0 L 61.0,153.0 L 72.0,166.0 L 81.0,177.0 L 86.0,183.0 L 97.0,190.0 L 101.0,191.0 L 141.0,191.0 L 153.0,185.0 L 160.0,177.0 L 163.0,169.0 L 163.0,89.0 L 159.0,85.0 L 151.0,85.0 L 148.0,88.0 L 147.0,100.0 L 145.0,102.0 L 141.0,101.0 L 140.0,100.0 L 139.0,81.0 L 135.0,77.0 L 128.0,77.0 L 124.0,81.0 L 123.0,90.0 L 122.0,91.0 L 117.0,91.0 L 116.0,46.0 L 111.0,41.0 L 105.0,41.0" fill="#070707"/>
</svg>
