<?xml version="1.0" ?>
<svg baseProfile="full" height="600px" version="1.1" viewBox="-20.1 -20.1 240.2 240.2" width="600px" xmlns="http://www.w3.org/2000/svg" xmlns:ev="http://www.w3.org/2001/xml-events" xmlns:xlink="http://www.w3.org/1999/xlink">
	<defs/>
	<path d="M 0.0,0.0 L 200.0,0.0 L 200.0,200.0 L 0.0,200.0 L 0.0,0.0" fill="#FDFDFD"/>
	<path d="M 103.0,64.0 L 113.0,64.0 L 119.0,68.0 L 123.0,66.0 L 127.0,64.0 L 137.0,64.0 L 143.0,68.0 L 147.0,73.0 L 151.0,72.0 L 161.0,72.0 L 167.0,76.0 L 171.0,81.0 L 172.0,83.0 L 172.0,168.0 L 170.0,177.0 L 166.0,185.0 L 157.0,194.0 L 147.0,199.0 L 140.0,200.0 L 96.0,200.0 L 86.0,196.0 L 77.0,189.0 L 67.0,176.0 L 54.0,159.0 L 41.0,142.0 L 28.0,125.0 L 24.0,118.0 L 24.0,108.0 L 28.0,102.0 L 34.0,97.0 L 36.0,96.0 L 45.0,96.0 L 53.0,100.0 L 64.0,112.0 L 67.0,116.0 L 68.0,79.0 L 72.0,73.0 L 77.0,69.0 L 79.0,68.0 L 89.0,68.0 L 95.0,70.0 L 101.0,65.0 L 103.0,64.0" fill="#FCFCFC"/>
	<path d="M 103.0,64.0 L 113.0,64.0 L 119.0,68.0 L 123.0,66.0 L 127.0,64.0 L 137.0,64.0 L 143.0,68.0 L 147.0,73.0 L 151.0,72.0 L 161.0,72.0 L 167.0,76.0 L 171.0,81.0 L 172.0,83.0 L 172.0,168.0 L 170.0,177.0 L 166.0,185.0 L 157.0,194.0 L 147.0,199.0 L 140.0,200.0 L 96.0,200.0 L 86.0,196.0 L 77.0,189.0 L 67.0,176.0 L 54.0,159.0 L 41.0,142.0 L 28.0,125.0 L 24.0,118.0 L 24.0,108.0 L 28.0,102.0 L 34.0,97.0 L 36.0,96.0 L 45.0,96.0 L 53.0,100.0 L 64.0,112.0 L 67.0,116.0 L 68.0,79.0 L 72.0,73.0 L 77.0,69.0 L 79.0,68.0 L 89.0,68.0 L 95.0,70.0 L 101.0,65.0 L 103.0,64.0 M 105.0,72.0 L 100.0,77.0 L 99.0,94.0 L 94.0,95.0 L 93.0,94.0 L 92.0,81.0 L 89.0,77.0 L 81.0,76.0 L 76.0,81.0 L 75.0,130.0 L 70.0,131.0 L 55.0,115.0 L 48.0,107.0 L 44.0,104.0 L 38.0,104.0 L 33.0,108.0 L 32.0,110.0 L 32.0,116.0 L 42.0,130.0 L 56.0,148.0 L 69.0,165.0 L 82.0,182.0 L 90.0,189.0 L 98.0,192.0 L 142.0,192.0 L 154.0,186.0 L 160.0,179.0 L 164.0,169.0 L 164.0,85.0 L 161.0,81.0 L 153.0,80.0 L 148.0,85.0 L 147.0,98.0 L 142.0,99.0 L 141.0,98.0 L 140.0,77.0 L 137.0,73.0 L 129.0,72.0 L 124.0,77.0 L 123.0,90.0 L 118.0,91.0 L 117.0,90.0 L 116.0,77.0 L 113.0,73.0 L 105.0,72.0" fill="#050505"/>
</svg>
