<?xml version="1.0" ?>
<svg baseProfile="full" height="600px" version="1.1" viewBox="-20.1 -20.1 240.2 240.2" width="600px" xmlns="http://www.w3.org/2000/svg" xmlns:ev="http://www.w3.org/2001/xml-events" xmlns:xlink="http://www.w3.org/1999/xlink">
	<defs/>
	<path d="M 0.0,0.0 L 200.0,0.0 L 200.0,200.0 L 0.0,200.0 L 0.0,0.0" fill="#070707"/>
	<path d="M 35.0,0.0 L 200.0,0.0 L 200.0,200.0 L 0.0,200.0 L 0.0,158.0 L 2.0,161.0 L 5.0,167.0 L 10.0,172.0 L 18.0,176.0 L 29.0,176.0 L 38.0,172.0 L 43.0,167.0 L 47.0,158.0 L 47.0,147.0 L 46.0,142.0 L 62.0,131.0 L 70.0,126.0 L 78.0,133.0 L 88.0,138.0 L 92.0,139.0 L 106.0,139.0 L 113.0,138.0 L 120.0,153.0 L 119.0,157.0 L 114.0,163.0 L 111.0,170.0 L 111.0,181.0 L 115.0,189.0 L 120.0,194.0 L 128.0,198.0 L 139.0,198.0 L 147.0,195.0 L 152.0,191.0 L 157.0,181.0 L 157.0,169.0 L 153.0,161.0 L 146.0,155.0 L 139.0,152.0 L 128.0,152.0 L 121.0,137.0 L 122.0,133.0 L 131.0,125.0 L 137.0,114.0 L 147.0,116.0 L 150.0,117.0 L 153.0,129.0 L 157.0,135.0 L 163.0,140.0 L 168.0,142.0 L 179.0,142.0 L 188.0,138.0 L 193.0,133.0 L 197.0,125.0 L 197.0,113.0 L 193.0,105.0 L 188.0,100.0 L 180.0,96.0 L 168.0,96.0 L 160.0,100.0 L 154.0,107.0 L 153.0,109.0 L 145.0,108.0 L 140.0,106.0 L 139.0,92.0 L 135.0,81.0 L 128.0,72.0 L 121.0,66.0 L 122.0,61.0 L 126.0,52.0 L 141.0,51.0 L 149.0,46.0 L 154.0,40.0 L 156.0,34.0 L 156.0,23.0 L 153.0,15.0 L 145.0,8.0 L 140.0,6.0 L 126.0,6.0 L 116.0,12.0 L 111.0,20.0 L 110.0,25.0 L 110.0,32.0 L 114.0,42.0 L 119.0,47.0 L 118.0,52.0 L 113.0,62.0 L 105.0,61.0 L 92.0,61.0 L 81.0,65.0 L 77.0,68.0 L 73.0,66.0 L 66.0,58.0 L 59.0,51.0 L 52.0,43.0 L 49.0,40.0 L 50.0,35.0 L 52.0,31.0 L 52.0,17.0 L 46.0,7.0 L 40.0,3.0 L 35.0,1.0 L 35.0,0.0" fill="#FCFCFC"/>
	<path d="M 0.0,0.0 L 23.0,0.0 L 21.0,2.0 L 14.0,6.0 L 9.0,12.0 L 6.0,19.0 L 6.0,28.0 L 10.0,38.0 L 18.0,45.0 L 23.0,47.0 L 34.0,47.0 L 43.0,44.0 L 57.0,59.0 L 70.0,73.0 L 64.0,83.0 L 61.0,92.0 L 61.0,105.0 L 63.0,114.0 L 65.0,120.0 L 45.0,134.0 L 40.0,136.0 L 32.0,131.0 L 29.0,130.0 L 18.0,130.0 L 10.0,134.0 L 3.0,142.0 L 1.0,147.0 L 0.0,147.0 L 0.0,0.0" fill="#FCFCFC"/>
	<path d="M 93.0,68.0 L 106.0,68.0 L 118.0,73.0 L 124.0,78.0 L 130.0,88.0 L 132.0,93.0 L 132.0,107.0 L 126.0,119.0 L 122.0,124.0 L 112.0,130.0 L 106.0,132.0 L 93.0,132.0 L 81.0,126.0 L 76.0,122.0 L 70.0,112.0 L 68.0,106.0 L 68.0,93.0 L 72.0,84.0 L 78.0,76.0 L 87.0,70.0 L 93.0,68.0" fill="#FBFBFB"/>
	<path d="M 130.0,159.0 L 137.0,159.0 L 145.0,163.0 L 150.0,170.0 L 150.0,180.0 L 146.0,186.0 L 141.0,190.0 L 138.0,191.0 L 129.0,191.0 L 123.0,187.0 L 120.0,184.0 L 118.0,180.0 L 118.0,171.0 L 123.0,163.0 L 130.0,159.0" fill="#F8F8F8"/>
	<path d="M 20.0,137.0 L 27.0,137.0 L 35.0,141.0 L 39.0,146.0 L 40.0,150.0 L 40.0,157.0 L 36.0,164.0 L 31.0,168.0 L 28.0,169.0 L 19.0,169.0 L 13.0,165.0 L 9.0,160.0 L 8.0,158.0 L 8.0,149.0 L 12.0,142.0 L 17.0,138.0 L 20.0,137.0" fill="#F9F9F9"/>
	<path d="M 170.0,103.0 L 179.0,103.0 L 185.0,107.0 L 189.0,112.0 L 190.0,114.0 L 190.0,123.0 L 187.0,129.0 L 181.0,134.0 L 178.0,135.0 L 169.0,135.0 L 161.0,129.0 L 158.0,122.0 L 158.0,115.0 L 163.0,107.0 L 170.0,103.0" fill="#F8F8F8"/>
	<path d="M 25.0,8.0 L 32.0,8.0 L 39.0,11.0 L 44.0,17.0 L 45.0,19.0 L 45.0,28.0 L 42.0,34.0 L 36.0,39.0 L 33.0,40.0 L 25.0,40.0 L 17.0,35.0 L 13.0,27.0 L 13.0,20.0 L 18.0,12.0 L 25.0,8.0" fill="#F9F9F9"/>
	<path d="M 128.0,13.0 L 138.0,13.0 L 144.0,16.0 L 149.0,23.0 L 149.0,33.0 L 145.0,40.0 L 141.0,43.0 L 138.0,44.0 L 128.0,44.0 L 122.0,40.0 L 118.0,34.0 L 117.0,25.0 L 120.0,19.0 L 126.0,14.0 L 128.0,13.0" fill="#FAFAFA"/>
</svg>
