<?xml version="1.0" ?>
<svg baseProfile="full" height="600px" version="1.1" viewBox="-20.1 -20.1 240.2 240.2" width="600px" xmlns="http://www.w3.org/2000/svg" xmlns:ev="http://www.w3.org/2001/xml-events" xmlns:xlink="http://www.w3.org/1999/xlink">
	<defs/>
	<path d="M 0.0,0.0 L 200.0,0.0 L 200.0,200.0 L 0.0,200.0 L 0.0,0.0" fill="#070707"/>
	<path d="M 48.0,0.0 L 200.0,0.0 L 200.0,200.0 L 0.0,200.0 L 0.0,140.0 L 2.0,143.0 L 5.0,149.0 L 10.0,154.0 L 18.0,158.0 L 29.0,158.0 L 37.0,155.0 L 42.0,151.0 L 46.0,143.0 L 47.0,140.0 L 47.0,129.0 L 63.0,121.0 L 67.0,122.0 L 75.0,131.0 L 83.0,136.0 L 92.0,139.0 L 106.0,140.0 L 108.0,146.0 L 109.0,151.0 L 101.0,157.0 L 96.0,167.0 L 96.0,178.0 L 99.0,186.0 L 103.0,191.0 L 110.0,195.0 L 114.0,196.0 L 125.0,196.0 L 133.0,192.0 L 139.0,185.0 L 142.0,178.0 L 142.0,168.0 L 137.0,158.0 L 131.0,153.0 L 124.0,150.0 L 117.0,149.0 L 114.0,140.0 L 114.0,137.0 L 125.0,131.0 L 133.0,122.0 L 135.0,119.0 L 141.0,120.0 L 146.0,122.0 L 147.0,135.0 L 153.0,144.0 L 161.0,149.0 L 164.0,150.0 L 175.0,150.0 L 185.0,145.0 L 190.0,139.0 L 192.0,133.0 L 192.0,120.0 L 188.0,112.0 L 182.0,107.0 L 175.0,104.0 L 163.0,104.0 L 154.0,109.0 L 149.0,114.0 L 143.0,113.0 L 139.0,111.0 L 139.0,92.0 L 135.0,81.0 L 128.0,72.0 L 127.0,68.0 L 133.0,60.0 L 137.0,61.0 L 151.0,61.0 L 159.0,57.0 L 165.0,50.0 L 167.0,46.0 L 167.0,31.0 L 162.0,23.0 L 156.0,18.0 L 152.0,16.0 L 137.0,16.0 L 129.0,21.0 L 124.0,27.0 L 122.0,31.0 L 122.0,45.0 L 127.0,56.0 L 121.0,65.0 L 116.0,64.0 L 105.0,61.0 L 92.0,61.0 L 81.0,65.0 L 78.0,65.0 L 64.0,46.0 L 61.0,42.0 L 62.0,38.0 L 66.0,29.0 L 66.0,18.0 L 62.0,10.0 L 54.0,3.0 L 48.0,1.0 L 48.0,0.0" fill="#FCFCFC"/>
	<path d="M 0.0,0.0 L 37.0,0.0 L 34.0,2.0 L 28.0,6.0 L 22.0,13.0 L 20.0,18.0 L 20.0,29.0 L 24.0,38.0 L 32.0,45.0 L 37.0,47.0 L 48.0,47.0 L 55.0,46.0 L 71.0,67.0 L 73.0,71.0 L 67.0,78.0 L 63.0,86.0 L 61.0,92.0 L 61.0,105.0 L 62.0,113.0 L 46.0,121.0 L 42.0,120.0 L 36.0,115.0 L 29.0,112.0 L 19.0,112.0 L 10.0,116.0 L 3.0,124.0 L 1.0,129.0 L 0.0,129.0 L 0.0,0.0" fill="#FCFCFC"/>
	<path d="M 93.0,68.0 L 106.0,68.0 L 118.0,73.0 L 124.0,78.0 L 130.0,88.0 L 132.0,93.0 L 132.0,107.0 L 126.0,119.0 L 122.0,124.0 L 112.0,130.0 L 106.0,132.0 L 93.0,132.0 L 81.0,126.0 L 76.0,122.0 L 70.0,112.0 L 68.0,106.0 L 68.0,93.0 L 72.0,84.0 L 78.0,76.0 L 87.0,70.0 L 93.0,68.0" fill="#FBFBFB"/>
	<path d="M 114.0,157.0 L 123.0,157.0 L 131.0,162.0 L 135.0,169.0 L 135.0,176.0 L 131.0,184.0 L 126.0,188.0 L 122.0,189.0 L 114.0,189.0 L 108.0,185.0 L 104.0,180.0 L 103.0,177.0 L 103.0,168.0 L 107.0,162.0 L 112.0,158.0 L 114.0,157.0" fill="#F8F8F8"/>
	<path d="M 20.0,119.0 L 27.0,119.0 L 35.0,123.0 L 39.0,128.0 L 40.0,131.0 L 40.0,139.0 L 37.0,145.0 L 31.0,150.0 L 28.0,151.0 L 19.0,151.0 L 13.0,147.0 L 9.0,142.0 L 8.0,139.0 L 8.0,131.0 L 12.0,124.0 L 20.0,119.0" fill="#F9F9F9"/>
	<path d="M 38.0,8.0 L 46.0,8.0 L 54.0,12.0 L 59.0,19.0 L 59.0,28.0 L 55.0,35.0 L 50.0,39.0 L 46.0,40.0 L 38.0,40.0 L 30.0,34.0 L 27.0,27.0 L 27.0,19.0 L 31.0,13.0 L 38.0,8.0" fill="#F9F9F9"/>
	<path d="M 165.0,111.0 L 174.0,111.0 L 181.0,115.0 L 185.0,121.0 L 185.0,132.0 L 181.0,138.0 L 176.0,142.0 L 172.0,143.0 L 165.0,143.0 L 157.0,138.0 L 154.0,132.0 L 154.0,121.0 L 159.0,114.0 L 165.0,111.0" fill="#FAFAFA"/>
	<path d="M 139.0,23.0 L 149.0,23.0 L 156.0,27.0 L 160.0,33.0 L 160.0,43.0 L 157.0,49.0 L 152.0,53.0 L 150.0,54.0 L 138.0,54.0 L 131.0,48.0 L 129.0,44.0 L 129.0,33.0 L 133.0,27.0 L 139.0,23.0" fill="#FBFBFB"/>
</svg>
