<?xml version="1.0" ?>
<svg baseProfile="full" height="600px" version="1.1" viewBox="-20.1 -20.1 240.2 240.2" width="600px" xmlns="http://www.w3.org/2000/svg" xmlns:ev="http://www.w3.org/2001/xml-events" xmlns:xlink="http://www.w3.org/1999/xlink">
	<defs/>
	<path d="M 0.0,0.0 L 200.0,0.0 L 200.0,200.0 L 0.0,200.0 L 0.0,0.0" fill="#FCFCFC"/>
	<path d="M 0.0,0.0 L 124.0,0.0 L 134.0,5.0 L 141.0,13.0 L 143.0,18.0 L 143.0,29.0 L 139.0,38.0 L 130.0,46.0 L 124.0,48.0 L 117.0,48.0 L 114.0,63.0 L 120.0,65.0 L 128.0,71.0 L 134.0,78.0 L 139.0,88.0 L 140.0,92.0 L 140.0,99.0 L 151.0,99.0 L 153.0,92.0 L 159.0,85.0 L 169.0,80.0 L 179.0,80.0 L 188.0,84.0 L 194.0,89.0 L 198.0,97.0 L 198.0,112.0 L 192.0,121.0 L 187.0,125.0 L 180.0,128.0 L 168.0,128.0 L 160.0,124.0 L 153.0,116.0 L 151.0,112.0 L 151.0,107.0 L 139.0,107.0 L 138.0,114.0 L 132.0,125.0 L 126.0,131.0 L 127.0,136.0 L 134.0,147.0 L 150.0,147.0 L 160.0,153.0 L 166.0,162.0 L 167.0,164.0 L 167.0,177.0 L 163.0,185.0 L 155.0,192.0 L 147.0,195.0 L 138.0,195.0 L 128.0,190.0 L 122.0,183.0 L 119.0,176.0 L 119.0,165.0 L 123.0,157.0 L 126.0,153.0 L 124.0,148.0 L 118.0,138.0 L 112.0,139.0 L 106.0,140.0 L 92.0,140.0 L 81.0,136.0 L 73.0,131.0 L 64.0,140.0 L 56.0,147.0 L 56.0,150.0 L 58.0,155.0 L 58.0,167.0 L 53.0,177.0 L 46.0,183.0 L 40.0,185.0 L 27.0,185.0 L 21.0,182.0 L 15.0,177.0 L 10.0,167.0 L 10.0,156.0 L 15.0,146.0 L 22.0,140.0 L 31.0,137.0 L 39.0,137.0 L 48.0,141.0 L 52.0,139.0 L 63.0,128.0 L 67.0,125.0 L 65.0,120.0 L 61.0,112.0 L 60.0,105.0 L 60.0,92.0 L 64.0,81.0 L 66.0,77.0 L 52.0,65.0 L 41.0,56.0 L 38.0,56.0 L 29.0,60.0 L 18.0,60.0 L 10.0,56.0 L 2.0,47.0 L 0.0,41.0 L 0.0,0.0" fill="#080808"/>
	<path d="M 0.0,0.0 L 113.0,0.0 L 110.0,2.0 L 101.0,8.0 L 96.0,18.0 L 96.0,29.0 L 100.0,38.0 L 105.0,43.0 L 109.0,46.0 L 108.0,54.0 L 106.0,60.0 L 92.0,61.0 L 81.0,65.0 L 73.0,71.0 L 69.0,69.0 L 55.0,57.0 L 45.0,49.0 L 46.0,44.0 L 47.0,41.0 L 47.0,30.0 L 43.0,22.0 L 38.0,17.0 L 29.0,13.0 L 18.0,13.0 L 10.0,17.0 L 5.0,22.0 L 1.0,30.0 L 0.0,30.0 L 0.0,0.0" fill="#FCFCFC"/>
	<path d="M 93.0,68.0 L 106.0,68.0 L 118.0,73.0 L 124.0,78.0 L 130.0,88.0 L 132.0,93.0 L 132.0,107.0 L 126.0,119.0 L 122.0,124.0 L 112.0,130.0 L 106.0,132.0 L 93.0,132.0 L 81.0,126.0 L 76.0,122.0 L 70.0,112.0 L 68.0,106.0 L 68.0,93.0 L 72.0,84.0 L 78.0,76.0 L 87.0,70.0 L 93.0,68.0" fill="#FBFBFB"/>
	<path d="M 114.0,8.0 L 122.0,8.0 L 130.0,12.0 L 134.0,17.0 L 135.0,20.0 L 135.0,28.0 L 130.0,36.0 L 126.0,39.0 L 122.0,40.0 L 114.0,40.0 L 108.0,36.0 L 104.0,31.0 L 103.0,27.0 L 103.0,19.0 L 107.0,13.0 L 112.0,9.0 L 114.0,8.0" fill="#F8F8F8"/>
	<path d="M 19.0,20.0 L 28.0,20.0 L 34.0,23.0 L 39.0,29.0 L 40.0,31.0 L 40.0,39.0 L 36.0,47.0 L 30.0,51.0 L 27.0,52.0 L 20.0,52.0 L 13.0,48.0 L 9.0,42.0 L 8.0,39.0 L 8.0,31.0 L 12.0,25.0 L 17.0,21.0 L 19.0,20.0" fill="#F9F9F9"/>
	<path d="M 138.0,155.0 L 147.0,155.0 L 153.0,158.0 L 158.0,164.0 L 159.0,166.0 L 159.0,174.0 L 156.0,181.0 L 151.0,185.0 L 146.0,187.0 L 139.0,187.0 L 131.0,182.0 L 127.0,175.0 L 127.0,167.0 L 130.0,161.0 L 136.0,156.0 L 138.0,155.0" fill="#F9F9F9"/>
	<path d="M 170.0,88.0 L 178.0,88.0 L 184.0,91.0 L 190.0,98.0 L 190.0,109.0 L 186.0,116.0 L 178.0,120.0 L 170.0,120.0 L 163.0,116.0 L 159.0,109.0 L 159.0,98.0 L 166.0,90.0 L 170.0,88.0" fill="#F9F9F9"/>
	<path d="M 28.0,146.0 L 40.0,146.0 L 47.0,151.0 L 50.0,158.0 L 50.0,165.0 L 46.0,173.0 L 39.0,177.0 L 29.0,177.0 L 23.0,173.0 L 19.0,168.0 L 18.0,166.0 L 18.0,157.0 L 22.0,151.0 L 28.0,146.0" fill="#FAFAFA"/>
</svg>
