<?xml version="1.0" ?>
<svg baseProfile="full" height="600px" version="1.1" viewBox="-20.1 -20.1 240.2 240.2" width="600px" xmlns="http://www.w3.org/2000/svg" xmlns:ev="http://www.w3.org/2001/xml-events" xmlns:xlink="http://www.w3.org/1999/xlink">
	<defs/>
	<path d="M 0.0,0.0 L 200.0,0.0 L 200.0,200.0 L 0.0,200.0 L 0.0,0.0" fill="#FDFDFD"/>
	<path d="M 10.0,8.0 L 15.0,9.0 L 16.0,10.0 L 16.0,158.0 L 18.0,158.0 L 18.0,162.0 L 16.0,162.0 L 16.0,184.0 L 190.0,184.0 L 192.0,186.0 L 191.0,191.0 L 190.0,192.0 L 10.0,192.0 L 8.0,190.0 L 8.0,10.0 L 10.0,8.0" fill="#010101"/>
	<path d="M 30.0,16.0 L 35.0,17.0 L 37.0,22.0 L 43.0,51.0 L 50.0,77.0 L 51.0,79.0 L 51.0,86.0 L 50.0,87.0 L 45.0,87.0 L 42.0,80.0 L 37.0,63.0 L 31.0,39.0 L 28.0,22.0 L 29.0,17.0 L 30.0,16.0" fill="#070707"/>
</svg>
