<?xml version="1.0" ?>
<svg baseProfile="full" height="600px" version="1.1" viewBox="-16.08 -16.08 192.16 192.16" width="600px" xmlns="http://www.w3.org/2000/svg" xmlns:ev="http://www.w3.org/2001/xml-events" xmlns:xlink="http://www.w3.org/1999/xlink">
	<defs/>
	<path d="M 0.0,0.0 L 160.0,0.0 L 160.0,160.0 L 0.0,160.0 L 0.0,0.0" fill="#B7DEBB"/>
	<path d="M 0.0,0.0 L 160.0,0.0 L 160.0,160.0 L 0.0,160.0 L 0.0,0.0 M 139.0,17.0 L 17.0,23.0 L 3.0,24.0 L 3.0,50.0 L 6.0,112.0 L 11.0,112.0 L 11.0,120.0 L 15.0,120.0 L 15.0,127.0 L 39.0,127.0 L 146.0,122.0 L 151.0,121.0 L 151.0,113.0 L 155.0,113.0 L 155.0,105.0 L 158.0,105.0 L 158.0,87.0 L 155.0,22.0 L 154.0,17.0 L 139.0,17.0" fill="#FCFDFC"/>
	<path d="M 139.0,17.0 L 154.0,17.0 L 155.0,22.0 L 158.0,87.0 L 158.0,105.0 L 155.0,105.0 L 155.0,113.0 L 151.0,113.0 L 151.0,121.0 L 146.0,122.0 L 39.0,127.0 L 15.0,127.0 L 15.0,120.0 L 11.0,120.0 L 11.0,112.0 L 6.0,112.0 L 3.0,50.0 L 3.0,24.0 L 76.0,20.0 L 139.0,17.0 M 144.0,21.0 L 54.0,25.0 L 12.0,27.0 L 7.0,28.0 L 7.0,45.0 L 9.0,91.0 L 10.0,104.0 L 11.0,107.0 L 38.0,107.0 L 95.0,104.0 L 143.0,102.0 L 154.0,101.0 L 153.0,71.0 L 151.0,29.0 L 150.0,21.0 L 144.0,21.0" fill="#67A27D"/>
	<path d="M 72.0,37.0 L 87.0,37.0 L 95.0,40.0 L 103.0,47.0 L 108.0,57.0 L 108.0,71.0 L 104.0,80.0 L 99.0,86.0 L 90.0,91.0 L 86.0,92.0 L 73.0,92.0 L 63.0,87.0 L 56.0,79.0 L 53.0,73.0 L 52.0,68.0 L 52.0,61.0 L 55.0,52.0 L 59.0,46.0 L 66.0,40.0 L 72.0,37.0" fill="#FCFDFC"/>
	<path d="M 76.0,32.0 L 85.0,32.0 L 98.0,37.0 L 105.0,43.0 L 111.0,53.0 L 112.0,58.0 L 112.0,72.0 L 108.0,81.0 L 103.0,88.0 L 94.0,94.0 L 87.0,96.0 L 72.0,96.0 L 60.0,90.0 L 53.0,82.0 L 49.0,74.0 L 48.0,69.0 L 48.0,60.0 L 51.0,50.0 L 57.0,42.0 L 66.0,35.0 L 76.0,32.0 M 72.0,37.0 L 63.0,42.0 L 56.0,50.0 L 53.0,56.0 L 52.0,61.0 L 52.0,68.0 L 55.0,77.0 L 59.0,83.0 L 66.0,89.0 L 73.0,92.0 L 86.0,92.0 L 94.0,89.0 L 102.0,83.0 L 107.0,74.0 L 108.0,71.0 L 108.0,57.0 L 103.0,47.0 L 95.0,40.0 L 87.0,37.0 L 72.0,37.0" fill="#66A17D"/>
	<path d="M 146.0,105.0 L 150.0,105.0 L 150.0,109.0 L 122.0,111.0 L 53.0,114.0 L 40.0,115.0 L 15.0,115.0 L 15.0,111.0 L 146.0,105.0" fill="#B3DBB8"/>
	<path d="M 138.0,113.0 L 147.0,113.0 L 147.0,117.0 L 141.0,118.0 L 95.0,120.0 L 38.0,123.0 L 19.0,123.0 L 19.0,119.0 L 121.0,114.0 L 138.0,113.0" fill="#B3DBB8"/>
	<path d="M 128.0,50.0 L 137.0,50.0 L 142.0,54.0 L 144.0,57.0 L 144.0,66.0 L 140.0,72.0 L 136.0,74.0 L 129.0,74.0 L 124.0,71.0 L 120.0,65.0 L 120.0,58.0 L 126.0,51.0 L 128.0,50.0" fill="#64A07B"/>
	<path d="M 24.0,55.0 L 32.0,55.0 L 37.0,58.0 L 40.0,62.0 L 40.0,72.0 L 36.0,77.0 L 31.0,79.0 L 23.0,78.0 L 18.0,74.0 L 16.0,69.0 L 17.0,62.0 L 22.0,56.0 L 24.0,55.0" fill="#66A17C"/>
	<path d="M 129.0,54.0 L 135.0,54.0 L 140.0,58.0 L 140.0,65.0 L 135.0,70.0 L 129.0,70.0 L 124.0,64.0 L 124.0,59.0 L 129.0,54.0" fill="#F6F9F7"/>
	<path d="M 25.0,59.0 L 31.0,59.0 L 36.0,63.0 L 36.0,70.0 L 31.0,75.0 L 25.0,75.0 L 21.0,71.0 L 21.0,63.0 L 25.0,59.0" fill="#F8FBF9"/>
</svg>
