<?xml version="1.0" ?>
<svg baseProfile="full" height="600px" version="1.1" viewBox="-20.1 -20.1 240.2 240.2" width="600px" xmlns="http://www.w3.org/2000/svg" xmlns:ev="http://www.w3.org/2001/xml-events" xmlns:xlink="http://www.w3.org/1999/xlink">
	<defs/>
	<path d="M 0.0,0.0 L 200.0,0.0 L 200.0,200.0 L 0.0,200.0 L 0.0,0.0" fill="#FCFCFC"/>
	<path d="M 44.0,32.0 L 156.0,32.0 L 156.0,120.0 L 44.0,120.0 L 44.0,32.0" fill="#FCFCFC"/>
	<path d="M 10.0,24.0 L 190.0,24.0 L 192.0,26.0 L 192.0,126.0 L 190.0,128.0 L 10.0,128.0 L 8.0,126.0 L 8.0,26.0 L 10.0,24.0 M 44.0,32.0 L 44.0,120.0 L 156.0,120.0 L 156.0,32.0 L 44.0,32.0" fill="#000000"/>
	<path d="M 164.0,32.0 L 184.0,32.0 L 184.0,120.0 L 164.0,120.0 L 164.0,32.0" fill="#FCFCFC"/>
	<path d="M 16.0,32.0 L 36.0,32.0 L 36.0,120.0 L 16.0,120.0 L 16.0,32.0" fill="#FDFDFD"/>
	<path d="M 10.0,132.0 L 35.0,132.0 L 71.0,134.0 L 103.0,137.0 L 121.0,140.0 L 144.0,145.0 L 148.0,146.0 L 148.0,134.0 L 150.0,132.0 L 155.0,133.0 L 156.0,134.0 L 156.0,149.0 L 162.0,150.0 L 171.0,153.0 L 172.0,134.0 L 174.0,132.0 L 179.0,133.0 L 180.0,134.0 L 180.0,162.0 L 178.0,164.0 L 171.0,163.0 L 150.0,156.0 L 125.0,150.0 L 102.0,146.0 L 62.0,142.0 L 44.0,141.0 L 10.0,140.0 L 8.0,138.0 L 9.0,133.0 L 10.0,132.0" fill="#060606"/>
	<path d="M 10.0,144.0 L 25.0,144.0 L 59.0,146.0 L 93.0,152.0 L 113.0,158.0 L 133.0,165.0 L 139.0,168.0 L 140.0,161.0 L 142.0,159.0 L 147.0,160.0 L 148.0,161.0 L 149.0,173.0 L 159.0,179.0 L 160.0,166.0 L 162.0,164.0 L 167.0,165.0 L 168.0,166.0 L 168.0,190.0 L 166.0,192.0 L 161.0,191.0 L 145.0,181.0 L 126.0,172.0 L 107.0,165.0 L 82.0,159.0 L 58.0,155.0 L 32.0,153.0 L 10.0,152.0 L 8.0,150.0 L 9.0,145.0 L 10.0,144.0" fill="#070707"/>
	<path d="M 94.0,44.0 L 105.0,44.0 L 114.0,48.0 L 121.0,55.0 L 123.0,59.0 L 123.0,64.0 L 129.0,64.0 L 135.0,68.0 L 139.0,73.0 L 140.0,75.0 L 140.0,84.0 L 137.0,90.0 L 131.0,95.0 L 129.0,96.0 L 122.0,96.0 L 120.0,94.0 L 121.0,89.0 L 130.0,85.0 L 131.0,83.0 L 131.0,77.0 L 129.0,74.0 L 118.0,72.0 L 116.0,70.0 L 114.0,61.0 L 110.0,56.0 L 104.0,53.0 L 95.0,53.0 L 89.0,57.0 L 85.0,63.0 L 84.0,70.0 L 82.0,72.0 L 73.0,73.0 L 69.0,77.0 L 69.0,83.0 L 73.0,87.0 L 79.0,89.0 L 80.0,94.0 L 78.0,96.0 L 71.0,96.0 L 65.0,92.0 L 61.0,87.0 L 60.0,85.0 L 60.0,75.0 L 64.0,69.0 L 69.0,65.0 L 71.0,64.0 L 77.0,64.0 L 78.0,57.0 L 85.0,49.0 L 91.0,45.0 L 94.0,44.0" fill="#070707"/>
</svg>
