<?xml version="1.0" ?>
<svg baseProfile="full" height="600px" version="1.1" viewBox="-16.08 -16.08 192.16 192.16" width="600px" xmlns="http://www.w3.org/2000/svg" xmlns:ev="http://www.w3.org/2001/xml-events" xmlns:xlink="http://www.w3.org/1999/xlink">
	<defs/>
	<path d="M 0.0,0.0 L 160.0,0.0 L 160.0,160.0 L 0.0,160.0 L 0.0,0.0" fill="#B8DEBB"/>
	<path d="M 0.0,0.0 L 160.0,0.0 L 160.0,160.0 L 0.0,160.0 L 0.0,0.0 M 4.0,24.0 L 4.0,112.0 L 8.0,112.0 L 8.0,120.0 L 12.0,120.0 L 12.0,128.0 L 54.0,131.0 L 77.0,134.0 L 105.0,139.0 L 133.0,147.0 L 148.0,152.0 L 148.0,131.0 L 152.0,131.0 L 152.0,112.0 L 156.0,112.0 L 156.0,24.0 L 4.0,24.0" fill="#FDFEFD"/>
	<path d="M 4.0,24.0 L 156.0,24.0 L 156.0,112.0 L 152.0,112.0 L 152.0,131.0 L 148.0,131.0 L 148.0,152.0 L 120.0,143.0 L 95.0,137.0 L 72.0,133.0 L 41.0,130.0 L 12.0,128.0 L 12.0,120.0 L 8.0,120.0 L 8.0,112.0 L 4.0,112.0 L 4.0,24.0 M 8.0,28.0 L 8.0,108.0 L 152.0,108.0 L 152.0,28.0 L 8.0,28.0" fill="#619E78"/>
	<path d="M 74.0,40.0 L 84.0,40.0 L 93.0,43.0 L 99.0,47.0 L 104.0,53.0 L 108.0,62.0 L 108.0,73.0 L 104.0,83.0 L 98.0,90.0 L 88.0,95.0 L 85.0,96.0 L 74.0,96.0 L 65.0,92.0 L 57.0,85.0 L 52.0,74.0 L 52.0,62.0 L 56.0,53.0 L 63.0,45.0 L 74.0,40.0" fill="#FCFDFC"/>
	<path d="M 16.0,120.0 L 48.0,120.0 L 82.0,122.0 L 122.0,126.0 L 139.0,129.0 L 144.0,130.0 L 144.0,146.0 L 134.0,143.0 L 121.0,139.0 L 101.0,134.0 L 73.0,129.0 L 31.0,125.0 L 16.0,124.0 L 16.0,120.0" fill="#B4DCB8"/>
	<path d="M 12.0,112.0 L 148.0,112.0 L 148.0,127.0 L 133.0,125.0 L 130.0,124.0 L 105.0,121.0 L 49.0,117.0 L 12.0,116.0 L 12.0,112.0" fill="#B7DDBA"/>
	<path d="M 73.0,36.0 L 85.0,36.0 L 94.0,39.0 L 103.0,45.0 L 110.0,55.0 L 112.0,61.0 L 112.0,74.0 L 108.0,84.0 L 102.0,92.0 L 95.0,97.0 L 86.0,100.0 L 73.0,100.0 L 64.0,96.0 L 56.0,90.0 L 50.0,81.0 L 48.0,73.0 L 48.0,61.0 L 52.0,52.0 L 58.0,44.0 L 67.0,38.0 L 73.0,36.0 M 74.0,40.0 L 62.0,46.0 L 55.0,54.0 L 52.0,62.0 L 52.0,74.0 L 58.0,86.0 L 65.0,92.0 L 74.0,96.0 L 85.0,96.0 L 95.0,92.0 L 102.0,86.0 L 107.0,76.0 L 108.0,73.0 L 108.0,62.0 L 104.0,53.0 L 97.0,45.0 L 89.0,41.0 L 84.0,40.0 L 74.0,40.0" fill="#65A17C"/>
	<path d="M 128.0,56.0 L 135.0,56.0 L 140.0,59.0 L 144.0,64.0 L 144.0,72.0 L 141.0,77.0 L 135.0,80.0 L 128.0,80.0 L 121.0,74.0 L 120.0,71.0 L 120.0,64.0 L 123.0,59.0 L 128.0,56.0" fill="#639F7A"/>
	<path d="M 24.0,56.0 L 31.0,56.0 L 36.0,59.0 L 40.0,64.0 L 40.0,72.0 L 37.0,77.0 L 31.0,80.0 L 24.0,80.0 L 17.0,74.0 L 16.0,71.0 L 16.0,64.0 L 19.0,59.0 L 24.0,56.0" fill="#639F7A"/>
	<path d="M 129.0,60.0 L 137.0,61.0 L 140.0,65.0 L 140.0,71.0 L 135.0,76.0 L 129.0,76.0 L 125.0,73.0 L 124.0,65.0 L 129.0,60.0" fill="#F5F9F7"/>
	<path d="M 25.0,60.0 L 33.0,61.0 L 36.0,65.0 L 36.0,71.0 L 31.0,76.0 L 25.0,76.0 L 21.0,73.0 L 20.0,65.0 L 25.0,60.0" fill="#F5F9F7"/>
</svg>
