<?xml version="1.0" ?>
<svg baseProfile="full" height="600px" version="1.1" viewBox="-19.296000000000003 -19.296000000000003 230.592 230.592" width="600px" xmlns="http://www.w3.org/2000/svg" xmlns:ev="http://www.w3.org/2001/xml-events" xmlns:xlink="http://www.w3.org/1999/xlink">
	<defs/>
	<path d="M 0.0,0.0 L 192.0,0.0 L 192.0,192.0 L 0.0,192.0 L 0.0,0.0" fill="#FEFDFD"/>
	<path d="M 12.0,28.0 L 148.0,28.0 L 148.0,112.0 L 168.0,112.0 L 168.0,140.0 L 156.0,137.0 L 156.0,164.0 L 142.0,157.0 L 128.0,150.0 L 106.0,142.0 L 93.0,138.0 L 68.0,133.0 L 56.0,131.0 L 32.0,129.0 L 12.0,128.0 L 12.0,28.0" fill="#FECBBB"/>
	<path d="M 12.0,112.0 L 136.0,112.0 L 136.0,131.0 L 151.0,134.0 L 156.0,136.0 L 156.0,164.0 L 142.0,157.0 L 128.0,150.0 L 106.0,142.0 L 93.0,138.0 L 68.0,133.0 L 56.0,131.0 L 32.0,129.0 L 12.0,128.0 L 12.0,112.0" fill="#FF9D7E"/>
	<path d="M 148.0,28.0 L 180.0,28.0 L 180.0,112.0 L 148.0,112.0 L 148.0,28.0" fill="#FBE8E5"/>
	<path d="M 52.0,44.0 L 59.0,44.0 L 66.0,47.0 L 73.0,55.0 L 76.0,63.0 L 76.0,76.0 L 73.0,85.0 L 65.0,94.0 L 60.0,96.0 L 51.0,96.0 L 45.0,92.0 L 39.0,85.0 L 36.0,77.0 L 36.0,64.0 L 39.0,55.0 L 46.0,47.0 L 52.0,44.0" fill="#FF9E7F"/>
	<path d="M 12.0,120.0 L 49.0,120.0 L 88.0,123.0 L 111.0,126.0 L 123.0,128.0 L 124.0,129.0 L 124.0,147.0 L 118.0,146.0 L 93.0,138.0 L 68.0,133.0 L 56.0,131.0 L 32.0,129.0 L 12.0,128.0 L 12.0,120.0" fill="#FF7246"/>
	<path d="M 84.0,76.0 L 117.0,76.0 L 123.0,81.0 L 124.0,83.0 L 124.0,90.0 L 120.0,95.0 L 118.0,96.0 L 74.0,96.0 L 80.0,86.0 L 84.0,76.0" fill="#FF9E80"/>
	<path d="M 123.0,128.0 L 138.0,131.0 L 153.0,135.0 L 156.0,136.0 L 156.0,164.0 L 142.0,157.0 L 128.0,150.0 L 123.0,148.0 L 123.0,128.0" fill="#FF8A65"/>
</svg>
