<?xml version="1.0" ?>
<svg baseProfile="full" height="600px" version="1.1" viewBox="-16.08 -16.08 192.16 192.16" width="600px" xmlns="http://www.w3.org/2000/svg" xmlns:ev="http://www.w3.org/2001/xml-events" xmlns:xlink="http://www.w3.org/1999/xlink">
	<defs/>
	<path d="M 0.0,0.0 L 160.0,0.0 L 160.0,160.0 L 0.0,160.0 L 0.0,0.0" fill="#B7DEBA"/>
	<path d="M 0.0,0.0 L 160.0,0.0 L 160.0,160.0 L 0.0,160.0 L 0.0,0.0 M 137.0,15.0 L 94.0,18.0 L 39.0,21.0 L 2.0,24.0 L 2.0,45.0 L 4.0,73.0 L 6.0,105.0 L 7.0,112.0 L 11.0,112.0 L 11.0,119.0 L 15.0,120.0 L 16.0,127.0 L 29.0,127.0 L 95.0,124.0 L 147.0,122.0 L 151.0,121.0 L 151.0,112.0 L 155.0,112.0 L 155.0,103.0 L 158.0,103.0 L 158.0,83.0 L 156.0,55.0 L 154.0,23.0 L 153.0,15.0 L 137.0,15.0" fill="#FCFDFC"/>
	<path d="M 137.0,15.0 L 153.0,15.0 L 155.0,34.0 L 157.0,72.0 L 158.0,83.0 L 158.0,103.0 L 155.0,103.0 L 155.0,112.0 L 151.0,112.0 L 151.0,121.0 L 147.0,122.0 L 71.0,125.0 L 29.0,127.0 L 16.0,127.0 L 15.0,120.0 L 11.0,119.0 L 11.0,112.0 L 7.0,112.0 L 5.0,94.0 L 3.0,56.0 L 2.0,45.0 L 2.0,24.0 L 39.0,21.0 L 62.0,20.0 L 105.0,17.0 L 137.0,15.0 M 144.0,19.0 L 106.0,21.0 L 63.0,24.0 L 10.0,27.0 L 6.0,28.0 L 7.0,55.0 L 9.0,93.0 L 10.0,104.0 L 11.0,107.0 L 32.0,107.0 L 64.0,105.0 L 113.0,102.0 L 145.0,100.0 L 154.0,99.0 L 154.0,84.0 L 151.0,41.0 L 150.0,19.0 L 144.0,19.0" fill="#66A17C"/>
	<path d="M 73.0,36.0 L 87.0,36.0 L 96.0,40.0 L 101.0,44.0 L 107.0,54.0 L 108.0,57.0 L 108.0,69.0 L 104.0,78.0 L 97.0,86.0 L 89.0,90.0 L 86.0,91.0 L 73.0,91.0 L 63.0,86.0 L 55.0,77.0 L 52.0,68.0 L 52.0,57.0 L 58.0,45.0 L 67.0,38.0 L 73.0,36.0" fill="#FCFDFC"/>
	<path d="M 74.0,31.0 L 84.0,31.0 L 94.0,34.0 L 102.0,40.0 L 108.0,47.0 L 112.0,57.0 L 112.0,68.0 L 109.0,78.0 L 103.0,86.0 L 95.0,92.0 L 87.0,95.0 L 72.0,95.0 L 63.0,91.0 L 55.0,84.0 L 49.0,74.0 L 48.0,69.0 L 48.0,56.0 L 52.0,47.0 L 59.0,39.0 L 64.0,35.0 L 74.0,31.0 M 73.0,36.0 L 65.0,39.0 L 58.0,45.0 L 52.0,57.0 L 52.0,68.0 L 55.0,77.0 L 64.0,87.0 L 73.0,91.0 L 86.0,91.0 L 96.0,87.0 L 103.0,80.0 L 107.0,72.0 L 108.0,69.0 L 108.0,57.0 L 103.0,47.0 L 99.0,42.0 L 93.0,38.0 L 87.0,36.0 L 73.0,36.0" fill="#66A17C"/>
	<path d="M 138.0,103.0 L 151.0,103.0 L 151.0,108.0 L 144.0,109.0 L 79.0,112.0 L 32.0,115.0 L 15.0,115.0 L 15.0,111.0 L 61.0,108.0 L 114.0,105.0 L 138.0,103.0" fill="#B1D9B6"/>
	<path d="M 124.0,113.0 L 147.0,113.0 L 147.0,118.0 L 85.0,120.0 L 45.0,122.0 L 34.0,123.0 L 19.0,123.0 L 19.0,119.0 L 80.0,115.0 L 124.0,113.0" fill="#B3DBB8"/>
	<path d="M 128.0,48.0 L 135.0,48.0 L 140.0,51.0 L 143.0,54.0 L 144.0,57.0 L 144.0,64.0 L 141.0,69.0 L 136.0,72.0 L 127.0,72.0 L 122.0,68.0 L 120.0,65.0 L 120.0,56.0 L 123.0,51.0 L 128.0,48.0" fill="#65A17B"/>
	<path d="M 23.0,55.0 L 33.0,55.0 L 39.0,60.0 L 40.0,63.0 L 40.0,70.0 L 37.0,75.0 L 31.0,79.0 L 23.0,78.0 L 18.0,74.0 L 16.0,69.0 L 17.0,61.0 L 21.0,56.0 L 23.0,55.0" fill="#66A17C"/>
	<path d="M 129.0,52.0 L 136.0,53.0 L 140.0,57.0 L 140.0,63.0 L 135.0,68.0 L 129.0,68.0 L 124.0,63.0 L 124.0,57.0 L 129.0,52.0" fill="#F7FAF8"/>
	<path d="M 24.0,59.0 L 32.0,59.0 L 36.0,64.0 L 35.0,71.0 L 32.0,74.0 L 24.0,74.0 L 20.0,69.0 L 21.0,62.0 L 24.0,59.0" fill="#F9FBFA"/>
</svg>
