<?xml version="1.0" ?>
<svg baseProfile="full" height="600px" version="1.1" viewBox="-12.06 -12.06 144.12 144.12" width="600px" xmlns="http://www.w3.org/2000/svg" xmlns:ev="http://www.w3.org/2001/xml-events" xmlns:xlink="http://www.w3.org/1999/xlink">
	<defs/>
	<path d="M 0.0,0.0 L 120.0,0.0 L 120.0,120.0 L 0.0,120.0 L 0.0,0.0" fill="#030303"/>
	<path d="M 0.0,0.0 L 120.0,0.0 L 120.0,120.0 L 0.0,120.0 L 0.0,0.0 M 13.0,16.0 L 8.0,21.0 L 8.0,99.0 L 13.0,104.0 L 16.0,104.0 L 16.0,93.0 L 28.0,93.0 L 28.0,104.0 L 92.0,104.0 L 92.0,93.0 L 104.0,93.0 L 104.0,104.0 L 110.0,102.0 L 112.0,98.0 L 112.0,21.0 L 107.0,16.0 L 104.0,16.0 L 104.0,25.0 L 92.0,25.0 L 92.0,16.0 L 28.0,16.0 L 28.0,25.0 L 16.0,25.0 L 16.0,16.0 L 13.0,16.0" fill="#FDFDFD"/>
	<path d="M 32.0,89.0 L 88.0,89.0 L 87.0,93.0 L 33.0,93.0 L 32.0,89.0" fill="#E9E9E9"/>
	<path d="M 32.0,29.0 L 88.0,29.0 L 87.0,33.0 L 33.0,33.0 L 32.0,29.0" fill="#EDEDED"/>
	<path d="M 92.0,73.0 L 104.0,73.0 L 104.0,85.0 L 92.0,85.0 L 92.0,73.0" fill="#F7F7F7"/>
	<path d="M 16.0,73.0 L 28.0,73.0 L 28.0,85.0 L 16.0,85.0 L 16.0,73.0" fill="#F7F7F7"/>
	<path d="M 92.0,53.0 L 104.0,53.0 L 104.0,65.0 L 92.0,65.0 L 92.0,53.0" fill="#F7F7F7"/>
	<path d="M 16.0,53.0 L 28.0,53.0 L 28.0,65.0 L 16.0,65.0 L 16.0,53.0" fill="#F7F7F7"/>
	<path d="M 92.0,33.0 L 104.0,33.0 L 104.0,45.0 L 92.0,45.0 L 92.0,33.0" fill="#F8F8F8"/>
	<path d="M 16.0,33.0 L 28.0,33.0 L 28.0,45.0 L 16.0,45.0 L 16.0,33.0" fill="#F8F8F8"/>
</svg>
