<?xml version="1.0" ?>
<svg baseProfile="full" height="600px" version="1.1" viewBox="-12.06 -12.06 144.12 144.12" width="600px" xmlns="http://www.w3.org/2000/svg" xmlns:ev="http://www.w3.org/2001/xml-events" xmlns:xlink="http://www.w3.org/1999/xlink">
	<defs/>
	<path d="M 0.0,0.0 L 120.0,0.0 L 120.0,120.0 L 0.0,120.0 L 0.0,0.0" fill="#010101"/>
	<path d="M 0.0,0.0 L 120.0,0.0 L 120.0,120.0 L 0.0,120.0 L 0.0,0.0 M 13.0,16.0 L 8.0,21.0 L 8.0,99.0 L 13.0,104.0 L 16.0,104.0 L 16.0,98.0 L 28.0,98.0 L 28.0,104.0 L 92.0,104.0 L 92.0,98.0 L 104.0,98.0 L 104.0,104.0 L 110.0,102.0 L 112.0,98.0 L 112.0,21.0 L 107.0,16.0 L 13.0,16.0" fill="#FDFDFD"/>
	<path d="M 33.0,54.0 L 87.0,54.0 L 87.0,58.0 L 33.0,58.0 L 33.0,54.0" fill="#F9F9F9"/>
	<path d="M 92.0,78.0 L 104.0,78.0 L 104.0,90.0 L 92.0,90.0 L 92.0,78.0" fill="#FCFCFC"/>
	<path d="M 16.0,78.0 L 28.0,78.0 L 28.0,90.0 L 16.0,90.0 L 16.0,78.0" fill="#FCFCFC"/>
	<path d="M 92.0,58.0 L 104.0,58.0 L 104.0,70.0 L 92.0,70.0 L 92.0,58.0" fill="#FCFCFC"/>
	<path d="M 16.0,58.0 L 28.0,58.0 L 28.0,70.0 L 16.0,70.0 L 16.0,58.0" fill="#FCFCFC"/>
	<path d="M 92.0,38.0 L 104.0,38.0 L 104.0,50.0 L 92.0,50.0 L 92.0,38.0" fill="#FCFCFC"/>
	<path d="M 16.0,38.0 L 28.0,38.0 L 28.0,50.0 L 16.0,50.0 L 16.0,38.0" fill="#FCFCFC"/>
	<path d="M 92.0,18.0 L 104.0,18.0 L 104.0,30.0 L 92.0,30.0 L 92.0,18.0" fill="#FCFCFC"/>
	<path d="M 16.0,18.0 L 28.0,18.0 L 28.0,30.0 L 16.0,30.0 L 16.0,18.0" fill="#FCFCFC"/>
</svg>
