<?xml version="1.0" ?>
<svg baseProfile="full" height="600px" version="1.1" viewBox="-20.1 -20.1 240.2 240.2" width="600px" xmlns="http://www.w3.org/2000/svg" xmlns:ev="http://www.w3.org/2001/xml-events" xmlns:xlink="http://www.w3.org/1999/xlink">
	<defs/>
	<path d="M 0.0,0.0 L 200.0,0.0 L 200.0,200.0 L 0.0,200.0 L 0.0,0.0" fill="#030303"/>
	<path d="M 0.0,0.0 L 200.0,0.0 L 200.0,200.0 L 0.0,200.0 L 0.0,0.0 M 16.0,16.0 L 16.0,184.0 L 24.0,184.0 L 24.0,179.0 L 40.0,179.0 L 40.0,184.0 L 48.0,184.0 L 48.0,179.0 L 152.0,179.0 L 152.0,184.0 L 160.0,184.0 L 160.0,179.0 L 176.0,179.0 L 176.0,184.0 L 184.0,184.0 L 184.0,16.0 L 16.0,16.0" fill="#FDFDFD"/>
	<path d="M 48.0,99.0 L 152.0,99.0 L 152.0,171.0 L 48.0,171.0 L 48.0,99.0" fill="#FDFDFD"/>
	<path d="M 48.0,19.0 L 152.0,19.0 L 152.0,91.0 L 48.0,91.0 L 48.0,19.0" fill="#FEFEFE"/>
	<path d="M 160.0,159.0 L 176.0,159.0 L 176.0,171.0 L 160.0,171.0 L 160.0,159.0" fill="#F6F6F6"/>
	<path d="M 24.0,159.0 L 40.0,159.0 L 40.0,171.0 L 24.0,171.0 L 24.0,159.0" fill="#F7F7F7"/>
	<path d="M 160.0,139.0 L 176.0,139.0 L 176.0,151.0 L 160.0,151.0 L 160.0,139.0" fill="#F6F6F6"/>
	<path d="M 24.0,139.0 L 40.0,139.0 L 40.0,151.0 L 24.0,151.0 L 24.0,139.0" fill="#F7F7F7"/>
	<path d="M 160.0,119.0 L 176.0,119.0 L 176.0,131.0 L 160.0,131.0 L 160.0,119.0" fill="#F6F6F6"/>
	<path d="M 24.0,119.0 L 40.0,119.0 L 40.0,131.0 L 24.0,131.0 L 24.0,119.0" fill="#F7F7F7"/>
	<path d="M 160.0,99.0 L 176.0,99.0 L 176.0,111.0 L 160.0,111.0 L 160.0,99.0" fill="#F6F6F6"/>
	<path d="M 24.0,99.0 L 40.0,99.0 L 40.0,111.0 L 24.0,111.0 L 24.0,99.0" fill="#F7F7F7"/>
	<path d="M 160.0,79.0 L 176.0,79.0 L 176.0,91.0 L 160.0,91.0 L 160.0,79.0" fill="#F6F6F6"/>
	<path d="M 24.0,79.0 L 40.0,79.0 L 40.0,91.0 L 24.0,91.0 L 24.0,79.0" fill="#F7F7F7"/>
	<path d="M 160.0,59.0 L 176.0,59.0 L 176.0,71.0 L 160.0,71.0 L 160.0,59.0" fill="#F6F6F6"/>
	<path d="M 24.0,59.0 L 40.0,59.0 L 40.0,71.0 L 24.0,71.0 L 24.0,59.0" fill="#F7F7F7"/>
	<path d="M 160.0,39.0 L 176.0,39.0 L 176.0,51.0 L 160.0,51.0 L 160.0,39.0" fill="#F6F6F6"/>
	<path d="M 24.0,39.0 L 40.0,39.0 L 40.0,51.0 L 24.0,51.0 L 24.0,39.0" fill="#F7F7F7"/>
	<path d="M 160.0,19.0 L 176.0,19.0 L 176.0,31.0 L 160.0,31.0 L 160.0,19.0" fill="#FAFAFA"/>
	<path d="M 24.0,19.0 L 40.0,19.0 L 40.0,31.0 L 24.0,31.0 L 24.0,19.0" fill="#FBFBFB"/>
</svg>
