<?xml version="1.0" ?>
<svg baseProfile="full" height="600px" version="1.1" viewBox="-20.1 -20.1 240.2 240.2" width="600px" xmlns="http://www.w3.org/2000/svg" xmlns:ev="http://www.w3.org/2001/xml-events" xmlns:xlink="http://www.w3.org/1999/xlink">
	<defs/>
	<path d="M 0.0,0.0 L 200.0,0.0 L 200.0,200.0 L 0.0,200.0 L 0.0,0.0" fill="#FDFDFD"/>
	<path d="M 48.0,80.0 L 140.0,80.0 L 140.0,190.0 L 138.0,192.0 L 50.0,192.0 L 48.0,190.0 L 48.0,80.0" fill="#FDFDFD"/>
	<path d="M 42.0,72.0 L 146.0,72.0 L 148.0,74.0 L 148.0,100.0 L 165.0,100.0 L 172.0,103.0 L 178.0,110.0 L 180.0,114.0 L 180.0,128.0 L 178.0,139.0 L 172.0,151.0 L 167.0,157.0 L 157.0,163.0 L 148.0,164.0 L 148.0,192.0 L 145.0,197.0 L 139.0,200.0 L 48.0,200.0 L 43.0,197.0 L 40.0,191.0 L 40.0,74.0 L 42.0,72.0 M 48.0,80.0 L 48.0,190.0 L 50.0,192.0 L 138.0,192.0 L 140.0,190.0 L 140.0,80.0 L 48.0,80.0" fill="#020202"/>
	<path d="M 148.0,108.0 L 164.0,108.0 L 170.0,111.0 L 172.0,115.0 L 172.0,129.0 L 168.0,142.0 L 164.0,148.0 L 157.0,154.0 L 148.0,156.0 L 148.0,108.0" fill="#FAFAFA"/>
	<path d="M 121.0,23.0 L 127.0,23.0 L 128.0,25.0 L 128.0,32.0 L 125.0,39.0 L 124.0,40.0 L 119.0,40.0 L 118.0,39.0 L 119.0,31.0 L 121.0,23.0" fill="#070707"/>
	<path d="M 101.0,1.0 L 106.0,1.0 L 108.0,3.0 L 107.0,8.0 L 102.0,9.0 L 100.0,7.0 L 101.0,1.0" fill="#060606"/>
</svg>
