<?xml version="1.0" ?>
<svg baseProfile="full" height="600px" version="1.1" viewBox="-19.296000000000003 -19.296000000000003 230.592 230.592" width="600px" xmlns="http://www.w3.org/2000/svg" xmlns:ev="http://www.w3.org/2001/xml-events" xmlns:xlink="http://www.w3.org/1999/xlink">
	<defs/>
	<path d="M 0.0,0.0 L 192.0,0.0 L 192.0,192.0 L 0.0,192.0 L 0.0,0.0" fill="#FEFCFD"/>
	<path d="M 81.0,22.0 L 92.0,23.0 L 115.0,28.0 L 141.0,33.0 L 143.0,52.0 L 143.0,61.0 L 134.0,60.0 L 103.0,54.0 L 98.0,52.0 L 99.0,58.0 L 102.0,103.0 L 103.0,123.0 L 103.0,136.0 L 99.0,148.0 L 92.0,157.0 L 81.0,164.0 L 75.0,166.0 L 60.0,166.0 L 51.0,163.0 L 42.0,157.0 L 35.0,148.0 L 32.0,141.0 L 31.0,136.0 L 31.0,124.0 L 34.0,114.0 L 40.0,106.0 L 48.0,99.0 L 60.0,94.0 L 73.0,94.0 L 84.0,98.0 L 81.0,38.0 L 81.0,22.0" fill="#E92165"/>
</svg>
