<?xml version="1.0" ?>
<svg baseProfile="full" height="600px" version="1.1" viewBox="-19.296000000000003 -19.296000000000003 230.592 230.592" width="600px" xmlns="http://www.w3.org/2000/svg" xmlns:ev="http://www.w3.org/2001/xml-events" xmlns:xlink="http://www.w3.org/1999/xlink">
	<defs/>
	<path d="M 0.0,0.0 L 192.0,0.0 L 192.0,192.0 L 0.0,192.0 L 0.0,0.0" fill="#FEFCFD"/>
	<path d="M 62.0,17.0 L 80.0,17.0 L 123.0,19.0 L 125.0,23.0 L 129.0,42.0 L 129.0,47.0 L 105.0,46.0 L 84.0,45.0 L 88.0,61.0 L 98.0,109.0 L 100.0,117.0 L 100.0,135.0 L 96.0,144.0 L 90.0,152.0 L 82.0,158.0 L 72.0,162.0 L 56.0,162.0 L 47.0,158.0 L 41.0,154.0 L 33.0,145.0 L 29.0,136.0 L 28.0,131.0 L 28.0,122.0 L 32.0,109.0 L 39.0,100.0 L 47.0,94.0 L 58.0,90.0 L 69.0,90.0 L 77.0,92.0 L 67.0,44.0 L 62.0,22.0 L 62.0,17.0" fill="#E92165"/>
</svg>
