<?xml version="1.0" ?>
<svg baseProfile="full" height="600px" version="1.1" viewBox="-20.1 -20.1 240.2 240.2" width="600px" xmlns="http://www.w3.org/2000/svg" xmlns:ev="http://www.w3.org/2001/xml-events" xmlns:xlink="http://www.w3.org/1999/xlink">
	<defs/>
	<path d="M 0.0,0.0 L 200.0,0.0 L 200.0,200.0 L 0.0,200.0 L 0.0,0.0" fill="#FDFDFD"/>
	<path d="M 90.0,20.0 L 103.0,20.0 L 116.0,25.0 L 126.0,29.0 L 146.0,30.0 L 149.0,34.0 L 150.0,49.0 L 150.0,62.0 L 144.0,66.0 L 129.0,66.0 L 118.0,62.0 L 106.0,57.0 L 96.0,57.0 L 96.0,83.0 L 99.0,128.0 L 99.0,155.0 L 95.0,164.0 L 87.0,171.0 L 76.0,174.0 L 58.0,174.0 L 48.0,170.0 L 42.0,163.0 L 40.0,159.0 L 40.0,143.0 L 47.0,135.0 L 57.0,131.0 L 78.0,128.0 L 86.0,124.0 L 88.0,120.0 L 88.0,101.0 L 86.0,63.0 L 85.0,52.0 L 85.0,23.0 L 90.0,20.0" fill="#090909"/>
	<path d="M 89.0,132.0 L 91.0,132.0 L 91.0,153.0 L 87.0,161.0 L 83.0,164.0 L 75.0,166.0 L 59.0,166.0 L 51.0,162.0 L 48.0,158.0 L 48.0,145.0 L 53.0,141.0 L 63.0,138.0 L 81.0,136.0 L 89.0,132.0" fill="#F9F9F9"/>
	<path d="M 93.0,29.0 L 105.0,29.0 L 121.0,36.0 L 141.0,38.0 L 142.0,58.0 L 132.0,58.0 L 122.0,55.0 L 112.0,50.0 L 108.0,49.0 L 94.0,48.0 L 93.0,45.0 L 93.0,29.0" fill="#F9F9F9"/>
</svg>
