<?xml version="1.0" ?>
<svg baseProfile="full" height="600px" version="1.1" viewBox="-19.296000000000003 -19.296000000000003 230.592 230.592" width="600px" xmlns="http://www.w3.org/2000/svg" xmlns:ev="http://www.w3.org/2001/xml-events" xmlns:xlink="http://www.w3.org/1999/xlink">
	<defs/>
	<path d="M 0.0,0.0 L 192.0,0.0 L 192.0,192.0 L 0.0,192.0 L 0.0,0.0" fill="#FEFCFD"/>
	<path d="M 114.0,30.0 L 119.0,31.0 L 153.0,47.0 L 171.0,56.0 L 166.0,83.0 L 161.0,82.0 L 124.0,64.0 L 122.0,80.0 L 112.0,131.0 L 109.0,145.0 L 103.0,155.0 L 95.0,162.0 L 87.0,166.0 L 83.0,167.0 L 65.0,167.0 L 53.0,161.0 L 46.0,154.0 L 40.0,143.0 L 39.0,136.0 L 39.0,124.0 L 44.0,112.0 L 52.0,103.0 L 66.0,96.0 L 83.0,96.0 L 95.0,101.0 L 99.0,104.0 L 101.0,99.0 L 109.0,57.0 L 114.0,30.0" fill="#E92165"/>
</svg>
