<?xml version="1.0" ?>
<svg baseProfile="full" height="600px" version="1.1" viewBox="-19.296000000000003 -19.296000000000003 230.592 230.592" width="600px" xmlns="http://www.w3.org/2000/svg" xmlns:ev="http://www.w3.org/2001/xml-events" xmlns:xlink="http://www.w3.org/1999/xlink">
	<defs/>
	<path d="M 0.0,0.0 L 192.0,0.0 L 192.0,192.0 L 0.0,192.0 L 0.0,0.0" fill="#FEFCFD"/>
	<path d="M 111.0,24.0 L 120.0,27.0 L 144.0,37.0 L 168.0,47.0 L 168.0,58.0 L 165.0,75.0 L 155.0,72.0 L 127.0,60.0 L 123.0,59.0 L 119.0,93.0 L 117.0,105.0 L 114.0,132.0 L 110.0,144.0 L 104.0,153.0 L 97.0,159.0 L 86.0,164.0 L 68.0,164.0 L 56.0,158.0 L 50.0,153.0 L 44.0,143.0 L 41.0,134.0 L 41.0,122.0 L 45.0,111.0 L 52.0,102.0 L 62.0,95.0 L 69.0,93.0 L 86.0,93.0 L 96.0,97.0 L 100.0,100.0 L 101.0,99.0 L 106.0,58.0 L 110.0,28.0 L 111.0,24.0" fill="#E92165"/>
</svg>
