<?xml version="1.0" ?>
<svg baseProfile="full" height="600px" version="1.1" viewBox="-20.1 -20.1 240.2 240.2" width="600px" xmlns="http://www.w3.org/2000/svg" xmlns:ev="http://www.w3.org/2001/xml-events" xmlns:xlink="http://www.w3.org/1999/xlink">
	<defs/>
	<path d="M 0.0,0.0 L 200.0,0.0 L 200.0,200.0 L 0.0,200.0 L 0.0,0.0" fill="#FDFDFD"/>
	<path d="M 104.0,24.0 L 117.0,24.0 L 129.0,28.0 L 140.0,34.0 L 144.0,35.0 L 159.0,36.0 L 163.0,38.0 L 164.0,40.0 L 164.0,68.0 L 160.0,72.0 L 145.0,72.0 L 133.0,68.0 L 125.0,63.0 L 118.0,61.0 L 110.0,61.0 L 109.0,62.0 L 108.0,152.0 L 106.0,161.0 L 101.0,169.0 L 96.0,173.0 L 91.0,175.0 L 85.0,176.0 L 72.0,176.0 L 59.0,173.0 L 51.0,166.0 L 48.0,159.0 L 48.0,146.0 L 52.0,139.0 L 60.0,134.0 L 67.0,132.0 L 86.0,131.0 L 94.0,128.0 L 98.0,124.0 L 99.0,121.0 L 100.0,28.0 L 104.0,24.0" fill="#050505"/>
	<path d="M 99.0,135.0 L 100.0,135.0 L 100.0,153.0 L 96.0,163.0 L 89.0,167.0 L 86.0,168.0 L 71.0,168.0 L 62.0,165.0 L 57.0,160.0 L 56.0,158.0 L 56.0,147.0 L 61.0,142.0 L 72.0,140.0 L 89.0,139.0 L 99.0,135.0" fill="#FAFAFA"/>
	<path d="M 108.0,32.0 L 116.0,32.0 L 126.0,36.0 L 139.0,42.0 L 143.0,43.0 L 156.0,44.0 L 156.0,64.0 L 146.0,64.0 L 136.0,60.0 L 127.0,55.0 L 121.0,53.0 L 108.0,52.0 L 108.0,32.0" fill="#FAFAFA"/>
</svg>
