<?xml version="1.0" ?>
<svg baseProfile="full" height="600px" version="1.1" viewBox="-20.1 -20.1 240.2 240.2" width="600px" xmlns="http://www.w3.org/2000/svg" xmlns:ev="http://www.w3.org/2001/xml-events" xmlns:xlink="http://www.w3.org/1999/xlink">
	<defs/>
	<path d="M 0.0,0.0 L 200.0,0.0 L 200.0,200.0 L 0.0,200.0 L 0.0,0.0" fill="#FDFDFD"/>
	<path d="M 118.0,26.0 L 129.0,26.0 L 141.0,30.0 L 152.0,38.0 L 158.0,41.0 L 173.0,44.0 L 177.0,47.0 L 177.0,59.0 L 174.0,76.0 L 171.0,79.0 L 160.0,79.0 L 150.0,76.0 L 142.0,71.0 L 133.0,65.0 L 128.0,63.0 L 121.0,63.0 L 120.0,64.0 L 116.0,91.0 L 112.0,124.0 L 108.0,152.0 L 103.0,164.0 L 96.0,170.0 L 87.0,173.0 L 74.0,173.0 L 63.0,170.0 L 55.0,166.0 L 49.0,159.0 L 48.0,157.0 L 48.0,141.0 L 53.0,133.0 L 59.0,129.0 L 64.0,128.0 L 94.0,128.0 L 100.0,125.0 L 103.0,119.0 L 106.0,100.0 L 110.0,67.0 L 115.0,30.0 L 118.0,26.0" fill="#080808"/>
	<path d="M 99.0,135.0 L 101.0,135.0 L 101.0,143.0 L 99.0,153.0 L 96.0,159.0 L 90.0,164.0 L 88.0,165.0 L 75.0,165.0 L 62.0,161.0 L 57.0,156.0 L 56.0,154.0 L 56.0,142.0 L 61.0,137.0 L 64.0,136.0 L 95.0,136.0 L 99.0,135.0" fill="#F8F8F8"/>
	<path d="M 123.0,34.0 L 132.0,35.0 L 140.0,39.0 L 148.0,45.0 L 160.0,50.0 L 169.0,52.0 L 168.0,63.0 L 167.0,71.0 L 160.0,71.0 L 150.0,67.0 L 139.0,59.0 L 129.0,55.0 L 121.0,54.0 L 122.0,38.0 L 123.0,34.0" fill="#F9F9F9"/>
</svg>
