<?xml version="1.0" ?>
<svg baseProfile="full" height="600px" version="1.1" viewBox="-12.864 -12.864 153.728 153.728" width="600px" xmlns="http://www.w3.org/2000/svg" xmlns:ev="http://www.w3.org/2001/xml-events" xmlns:xlink="http://www.w3.org/1999/xlink">
	<defs/>
	<path d="M 0.0,0.0 L 128.0,0.0 L 128.0,128.0 L 0.0,128.0 L 0.0,0.0" fill="#FDFDFD"/>
	<path d="M 59.0,19.0 L 60.0,19.0 L 60.0,109.0 L 53.0,103.0 L 35.0,85.0 L 16.0,84.0 L 16.0,44.0 L 35.0,43.0 L 59.0,19.0" fill="#010101"/>
	<path d="M 51.0,38.0 L 52.0,38.0 L 52.0,90.0 L 45.0,84.0 L 38.0,77.0 L 24.0,76.0 L 24.0,52.0 L 38.0,51.0 L 51.0,38.0" fill="#FBFBFB"/>
	<path d="M 73.0,50.0 L 77.0,51.0 L 80.0,58.0 L 80.0,70.0 L 76.0,78.0 L 72.0,77.0 L 69.0,74.0 L 71.0,69.0 L 71.0,59.0 L 69.0,54.0 L 73.0,50.0" fill="#0D0D0D"/>
</svg>
