<?xml version="1.0" ?>
<svg baseProfile="full" height="600px" version="1.1" viewBox="-16.08 -16.08 192.16 192.16" width="600px" xmlns="http://www.w3.org/2000/svg" xmlns:ev="http://www.w3.org/2001/xml-events" xmlns:xlink="http://www.w3.org/1999/xlink">
	<defs/>
	<path d="M 0.0,0.0 L 160.0,0.0 L 160.0,160.0 L 0.0,160.0 L 0.0,0.0" fill="#FCFDFD"/>
	<path d="M 86.0,5.0 L 88.0,5.0 L 94.0,37.0 L 98.0,67.0 L 98.0,90.0 L 96.0,109.0 L 90.0,145.0 L 88.0,155.0 L 84.0,153.0 L 71.0,142.0 L 60.0,133.0 L 47.0,122.0 L 36.0,113.0 L 12.0,112.0 L 5.0,106.0 L 4.0,103.0 L 4.0,56.0 L 7.0,51.0 L 12.0,48.0 L 37.0,47.0 L 48.0,37.0 L 59.0,28.0 L 74.0,15.0 L 85.0,6.0 L 86.0,5.0" fill="#AEBFD2"/>
	<path d="M 86.0,5.0 L 88.0,5.0 L 94.0,37.0 L 98.0,67.0 L 98.0,90.0 L 96.0,109.0 L 90.0,145.0 L 88.0,155.0 L 84.0,153.0 L 71.0,142.0 L 60.0,133.0 L 47.0,122.0 L 36.0,113.0 L 12.0,112.0 L 5.0,106.0 L 4.0,103.0 L 4.0,56.0 L 7.0,51.0 L 12.0,48.0 L 37.0,47.0 L 48.0,37.0 L 59.0,28.0 L 74.0,15.0 L 85.0,6.0 L 86.0,5.0 M 83.0,13.0 L 73.0,22.0 L 62.0,31.0 L 48.0,43.0 L 40.0,50.0 L 40.0,111.0 L 55.0,124.0 L 66.0,133.0 L 79.0,144.0 L 85.0,148.0 L 90.0,123.0 L 93.0,102.0 L 94.0,87.0 L 94.0,70.0 L 90.0,38.0 L 85.0,13.0 L 83.0,13.0" fill="#6B7E93"/>
	<path d="M 13.0,52.0 L 36.0,52.0 L 36.0,108.0 L 13.0,108.0 L 9.0,105.0 L 8.0,102.0 L 8.0,57.0 L 13.0,52.0" fill="#AEBFD2"/>
	<path d="M 101.0,48.0 L 104.0,49.0 L 113.0,71.0 L 113.0,73.0 L 115.0,73.0 L 118.0,64.0 L 124.0,49.0 L 127.0,48.0 L 129.0,49.0 L 126.0,58.0 L 117.0,79.0 L 120.0,88.0 L 129.0,109.0 L 129.0,111.0 L 125.0,112.0 L 120.0,101.0 L 115.0,89.0 L 115.0,86.0 L 113.0,86.0 L 112.0,91.0 L 103.0,112.0 L 99.0,111.0 L 102.0,102.0 L 111.0,81.0 L 108.0,72.0 L 99.0,51.0 L 99.0,49.0 L 101.0,48.0" fill="#92BBF0"/>
</svg>
