<?xml version="1.0" ?>
<svg baseProfile="full" height="600px" version="1.1" viewBox="-20.1 -20.1 240.2 240.2" width="600px" xmlns="http://www.w3.org/2000/svg" xmlns:ev="http://www.w3.org/2001/xml-events" xmlns:xlink="http://www.w3.org/1999/xlink">
	<defs/>
	<path d="M 0.0,0.0 L 200.0,0.0 L 200.0,200.0 L 0.0,200.0 L 0.0,0.0" fill="#FCFCFC"/>
	<path d="M 95.0,20.0 L 99.0,21.0 L 100.0,22.0 L 102.0,34.0 L 104.0,52.0 L 107.0,75.0 L 108.0,86.0 L 108.0,113.0 L 104.0,150.0 L 100.0,177.0 L 98.0,180.0 L 93.0,179.0 L 41.0,127.0 L 40.0,125.0 L 40.0,74.0 L 93.0,21.0 L 95.0,20.0" fill="#FCFCFC"/>
	<path d="M 93.0,12.0 L 102.0,13.0 L 107.0,18.0 L 109.0,28.0 L 113.0,57.0 L 116.0,85.0 L 116.0,110.0 L 113.0,142.0 L 108.0,178.0 L 105.0,184.0 L 102.0,187.0 L 93.0,188.0 L 87.0,184.0 L 40.0,137.0 L 8.0,136.0 L 2.0,132.0 L 0.0,128.0 L 0.0,72.0 L 4.0,66.0 L 8.0,64.0 L 39.0,63.0 L 49.0,54.0 L 89.0,14.0 L 93.0,12.0 M 95.0,20.0 L 87.0,27.0 L 40.0,74.0 L 40.0,125.0 L 47.0,133.0 L 93.0,179.0 L 98.0,180.0 L 100.0,177.0 L 104.0,150.0 L 108.0,113.0 L 108.0,86.0 L 105.0,57.0 L 103.0,45.0 L 102.0,34.0 L 100.0,22.0 L 98.0,20.0 L 95.0,20.0" fill="#050505"/>
	<path d="M 10.0,72.0 L 32.0,72.0 L 33.0,128.0 L 10.0,128.0 L 8.0,126.0 L 8.0,74.0 L 10.0,72.0" fill="#F9F9F9"/>
	<path d="M 121.0,70.0 L 126.0,71.0 L 130.0,79.0 L 134.0,87.0 L 141.0,71.0 L 142.0,70.0 L 147.0,70.0 L 148.0,71.0 L 148.0,77.0 L 139.0,99.0 L 142.0,108.0 L 148.0,123.0 L 148.0,129.0 L 147.0,130.0 L 142.0,130.0 L 137.0,120.0 L 134.0,113.0 L 132.0,116.0 L 126.0,129.0 L 121.0,130.0 L 119.0,128.0 L 120.0,121.0 L 128.0,102.0 L 127.0,96.0 L 119.0,76.0 L 120.0,71.0 L 121.0,70.0" fill="#080808"/>
</svg>
