<?xml version="1.0" ?>
<svg baseProfile="full" height="600px" version="1.1" viewBox="-12.864 -12.864 153.728 153.728" width="600px" xmlns="http://www.w3.org/2000/svg" xmlns:ev="http://www.w3.org/2001/xml-events" xmlns:xlink="http://www.w3.org/1999/xlink">
	<defs/>
	<path d="M 0.0,0.0 L 128.0,0.0 L 128.0,128.0 L 0.0,128.0 L 0.0,0.0" fill="#FDFDFD"/>
	<path d="M 59.0,19.0 L 60.0,19.0 L 60.0,109.0 L 53.0,103.0 L 35.0,85.0 L 16.0,84.0 L 16.0,44.0 L 35.0,43.0 L 59.0,19.0" fill="#010101"/>
	<path d="M 51.0,38.0 L 52.0,38.0 L 52.0,90.0 L 45.0,84.0 L 38.0,77.0 L 24.0,76.0 L 24.0,52.0 L 38.0,51.0 L 51.0,38.0" fill="#FBFBFB"/>
	<path d="M 80.0,47.0 L 82.0,47.0 L 89.0,55.0 L 93.0,57.0 L 103.0,47.0 L 108.0,51.0 L 107.0,55.0 L 99.0,63.0 L 101.0,67.0 L 108.0,74.0 L 107.0,78.0 L 105.0,80.0 L 101.0,79.0 L 93.0,71.0 L 89.0,73.0 L 82.0,80.0 L 78.0,79.0 L 75.0,75.0 L 85.0,65.0 L 83.0,61.0 L 75.0,53.0 L 80.0,47.0" fill="#060606"/>
</svg>
