<?xml version="1.0" ?>
<svg baseProfile="full" height="600px" version="1.1" viewBox="-19.296000000000003 -19.296000000000003 230.592 230.592" width="600px" xmlns="http://www.w3.org/2000/svg" xmlns:ev="http://www.w3.org/2001/xml-events" xmlns:xlink="http://www.w3.org/1999/xlink">
	<defs/>
	<path d="M 0.0,0.0 L 192.0,0.0 L 192.0,192.0 L 0.0,192.0 L 0.0,0.0" fill="#FDFDFD"/>
	<path d="M 103.0,24.0 L 104.0,24.0 L 104.0,168.0 L 96.0,162.0 L 81.0,149.0 L 70.0,140.0 L 57.0,129.0 L 25.0,128.0 L 21.0,125.0 L 20.0,122.0 L 20.0,69.0 L 25.0,64.0 L 57.0,63.0 L 67.0,54.0 L 78.0,45.0 L 91.0,34.0 L 102.0,25.0 L 103.0,24.0" fill="#78909B"/>
	<path d="M 25.0,64.0 L 56.0,64.0 L 56.0,128.0 L 25.0,128.0 L 21.0,125.0 L 20.0,122.0 L 20.0,69.0 L 25.0,64.0" fill="#556E7A"/>
	<path d="M 126.0,66.0 L 130.0,68.0 L 137.0,76.0 L 143.0,83.0 L 145.0,83.0 L 152.0,75.0 L 160.0,66.0 L 164.0,68.0 L 173.0,76.0 L 167.0,83.0 L 160.0,91.0 L 156.0,95.0 L 158.0,99.0 L 166.0,107.0 L 173.0,115.0 L 168.0,121.0 L 162.0,126.0 L 158.0,124.0 L 151.0,116.0 L 145.0,109.0 L 142.0,110.0 L 135.0,118.0 L 128.0,126.0 L 124.0,124.0 L 115.0,116.0 L 121.0,109.0 L 128.0,101.0 L 132.0,97.0 L 130.0,93.0 L 122.0,85.0 L 115.0,77.0 L 120.0,71.0 L 126.0,66.0" fill="#FF4004"/>
</svg>
