<?xml version="1.0" ?>
<svg baseProfile="full" height="600px" version="1.1" viewBox="-19.296000000000003 -19.296000000000003 230.592 230.592" width="600px" xmlns="http://www.w3.org/2000/svg" xmlns:ev="http://www.w3.org/2001/xml-events" xmlns:xlink="http://www.w3.org/1999/xlink">
	<defs/>
	<path d="M 0.0,0.0 L 192.0,0.0 L 192.0,192.0 L 0.0,192.0 L 0.0,0.0" fill="#FDFEFE"/>
	<path d="M 103.0,24.0 L 104.0,24.0 L 104.0,168.0 L 96.0,162.0 L 81.0,149.0 L 70.0,140.0 L 57.0,129.0 L 25.0,128.0 L 21.0,125.0 L 20.0,122.0 L 20.0,69.0 L 25.0,64.0 L 57.0,63.0 L 67.0,54.0 L 78.0,45.0 L 91.0,34.0 L 102.0,25.0 L 103.0,24.0" fill="#78909B"/>
	<path d="M 25.0,64.0 L 56.0,64.0 L 56.0,128.0 L 25.0,128.0 L 21.0,125.0 L 20.0,122.0 L 20.0,69.0 L 25.0,64.0" fill="#556E7A"/>
	<path d="M 112.0,72.0 L 118.0,74.0 L 126.0,82.0 L 129.0,90.0 L 129.0,102.0 L 126.0,110.0 L 118.0,118.0 L 112.0,120.0 L 112.0,111.0 L 118.0,106.0 L 120.0,101.0 L 120.0,90.0 L 116.0,84.0 L 112.0,81.0 L 112.0,72.0" fill="#0BACF4"/>
</svg>
