<?xml version="1.0" ?>
<svg baseProfile="full" height="600px" version="1.1" viewBox="-16.08 -16.08 192.16 192.16" width="600px" xmlns="http://www.w3.org/2000/svg" xmlns:ev="http://www.w3.org/2001/xml-events" xmlns:xlink="http://www.w3.org/1999/xlink">
	<defs/>
	<path d="M 0.0,0.0 L 160.0,0.0 L 160.0,160.0 L 0.0,160.0 L 0.0,0.0" fill="#FDFDFD"/>
	<path d="M 86.0,5.0 L 88.0,5.0 L 94.0,37.0 L 96.0,55.0 L 100.0,55.0 L 99.0,60.0 L 99.0,98.0 L 100.0,105.0 L 96.0,105.0 L 94.0,122.0 L 88.0,155.0 L 84.0,153.0 L 71.0,142.0 L 60.0,133.0 L 47.0,122.0 L 36.0,113.0 L 12.0,112.0 L 5.0,106.0 L 4.0,103.0 L 4.0,56.0 L 7.0,51.0 L 12.0,48.0 L 37.0,47.0 L 48.0,37.0 L 59.0,28.0 L 74.0,15.0 L 85.0,6.0 L 86.0,5.0" fill="#AEBFD2"/>
	<path d="M 86.0,5.0 L 88.0,5.0 L 94.0,37.0 L 96.0,51.0 L 95.0,60.0 L 94.0,65.0 L 92.0,61.0 L 87.0,26.0 L 85.0,13.0 L 76.0,20.0 L 61.0,33.0 L 48.0,44.0 L 41.0,50.0 L 41.0,111.0 L 55.0,123.0 L 66.0,132.0 L 79.0,143.0 L 84.0,147.0 L 89.0,123.0 L 93.0,95.0 L 94.0,95.0 L 96.0,103.0 L 95.0,115.0 L 90.0,145.0 L 88.0,155.0 L 84.0,153.0 L 71.0,142.0 L 60.0,133.0 L 47.0,122.0 L 36.0,113.0 L 12.0,112.0 L 5.0,106.0 L 4.0,103.0 L 4.0,56.0 L 7.0,51.0 L 12.0,48.0 L 37.0,47.0 L 48.0,37.0 L 59.0,28.0 L 74.0,15.0 L 85.0,6.0 L 86.0,5.0" fill="#6B7E93"/>
	<path d="M 13.0,52.0 L 36.0,52.0 L 36.0,108.0 L 13.0,108.0 L 9.0,105.0 L 8.0,102.0 L 8.0,57.0 L 13.0,52.0" fill="#AEBFD2"/>
	<path d="M 96.0,55.0 L 100.0,55.0 L 99.0,60.0 L 99.0,98.0 L 100.0,105.0 L 96.0,105.0 L 93.0,95.0 L 92.0,91.0 L 92.0,72.0 L 95.0,56.0 L 96.0,55.0" fill="#8CB2E1"/>
</svg>
