<?xml version="1.0" ?>
<svg baseProfile="full" height="600px" version="1.1" viewBox="-20.1 -20.1 240.2 240.2" width="600px" xmlns="http://www.w3.org/2000/svg" xmlns:ev="http://www.w3.org/2001/xml-events" xmlns:xlink="http://www.w3.org/1999/xlink">
	<defs/>
	<path d="M 0.0,0.0 L 200.0,0.0 L 200.0,200.0 L 0.0,200.0 L 0.0,0.0" fill="#FDFDFD"/>
	<path d="M 76.0,12.0 L 124.0,12.0 L 124.0,52.0 L 76.0,52.0 L 76.0,36.0 L 44.0,37.0 L 38.0,42.0 L 37.0,44.0 L 36.0,80.0 L 56.0,80.0 L 56.0,120.0 L 8.0,120.0 L 8.0,80.0 L 28.0,80.0 L 28.0,43.0 L 32.0,35.0 L 40.0,29.0 L 43.0,28.0 L 76.0,28.0 L 76.0,12.0" fill="#010101"/>
	<path d="M 28.0,128.0 L 36.0,128.0 L 37.0,155.0 L 40.0,160.0 L 44.0,163.0 L 76.0,164.0 L 76.0,148.0 L 124.0,148.0 L 124.0,188.0 L 76.0,188.0 L 76.0,172.0 L 43.0,172.0 L 35.0,168.0 L 29.0,160.0 L 28.0,157.0 L 28.0,128.0" fill="#010101"/>
	<path d="M 132.0,28.0 L 157.0,28.0 L 165.0,32.0 L 171.0,40.0 L 172.0,43.0 L 172.0,80.0 L 192.0,80.0 L 192.0,120.0 L 144.0,120.0 L 144.0,80.0 L 164.0,80.0 L 163.0,44.0 L 158.0,38.0 L 155.0,37.0 L 132.0,36.0 L 132.0,28.0" fill="#010101"/>
	<path d="M 84.0,156.0 L 116.0,156.0 L 116.0,180.0 L 84.0,180.0 L 84.0,156.0" fill="#FCFCFC"/>
	<path d="M 152.0,88.0 L 184.0,88.0 L 184.0,112.0 L 152.0,112.0 L 152.0,88.0" fill="#FCFCFC"/>
	<path d="M 16.0,88.0 L 48.0,88.0 L 48.0,112.0 L 16.0,112.0 L 16.0,88.0" fill="#FCFCFC"/>
	<path d="M 164.0,128.0 L 172.0,128.0 L 172.0,157.0 L 168.0,165.0 L 162.0,170.0 L 157.0,172.0 L 132.0,172.0 L 132.0,164.0 L 156.0,163.0 L 162.0,158.0 L 163.0,156.0 L 164.0,128.0" fill="#030303"/>
</svg>
