<?xml version="1.0" ?>
<svg baseProfile="full" height="600px" version="1.1" viewBox="-19.296000000000003 -19.296000000000003 230.592 230.592" width="600px" xmlns="http://www.w3.org/2000/svg" xmlns:ev="http://www.w3.org/2001/xml-events" xmlns:xlink="http://www.w3.org/1999/xlink">
	<defs/>
	<path d="M 0.0,0.0 L 192.0,0.0 L 192.0,192.0 L 0.0,192.0 L 0.0,0.0" fill="#FDC929"/>
	<path d="M 0.0,0.0 L 192.0,0.0 L 192.0,192.0 L 0.0,192.0 L 0.0,0.0 M 86.0,16.0 L 72.0,19.0 L 56.0,26.0 L 45.0,34.0 L 37.0,41.0 L 28.0,53.0 L 20.0,69.0 L 17.0,79.0 L 16.0,86.0 L 16.0,105.0 L 20.0,122.0 L 25.0,134.0 L 33.0,146.0 L 40.0,154.0 L 50.0,162.0 L 64.0,170.0 L 79.0,175.0 L 86.0,176.0 L 106.0,176.0 L 125.0,171.0 L 139.0,164.0 L 148.0,157.0 L 154.0,152.0 L 162.0,142.0 L 169.0,130.0 L 175.0,112.0 L 176.0,106.0 L 176.0,86.0 L 173.0,72.0 L 167.0,58.0 L 159.0,46.0 L 153.0,39.0 L 142.0,30.0 L 130.0,23.0 L 115.0,18.0 L 105.0,16.0 L 86.0,16.0" fill="#FEFDFD"/>
	<path d="M 57.0,83.0 L 78.0,83.0 L 86.0,87.0 L 87.0,89.0 L 87.0,95.0 L 83.0,99.0 L 79.0,101.0 L 57.0,101.0 L 51.0,98.0 L 49.0,95.0 L 49.0,89.0 L 54.0,84.0 L 57.0,83.0" fill="#704F40"/>
	<path d="M 113.0,83.0 L 134.0,83.0 L 140.0,86.0 L 143.0,89.0 L 143.0,95.0 L 139.0,99.0 L 135.0,101.0 L 113.0,101.0 L 107.0,98.0 L 105.0,94.0 L 105.0,89.0 L 110.0,84.0 L 113.0,83.0" fill="#704F41"/>
	<path d="M 76.0,132.0 L 116.0,132.0 L 116.0,140.0 L 76.0,140.0 L 76.0,132.0" fill="#B76C09"/>
</svg>
