<?xml version="1.0" ?>
<svg baseProfile="full" height="600px" version="1.1" viewBox="-19.296000000000003 -19.296000000000003 230.592 230.592" width="600px" xmlns="http://www.w3.org/2000/svg" xmlns:ev="http://www.w3.org/2001/xml-events" xmlns:xlink="http://www.w3.org/1999/xlink">
	<defs/>
	<path d="M 0.0,0.0 L 192.0,0.0 L 192.0,192.0 L 0.0,192.0 L 0.0,0.0" fill="#4CAD50"/>
	<path d="M 0.0,0.0 L 192.0,0.0 L 192.0,192.0 L 0.0,192.0 L 0.0,0.0 M 27.0,24.0 L 22.0,27.0 L 21.0,29.0 L 21.0,56.0 L 28.0,56.0 L 31.0,98.0 L 33.0,122.0 L 33.0,129.0 L 28.0,156.0 L 28.0,163.0 L 33.0,168.0 L 158.0,168.0 L 163.0,165.0 L 164.0,162.0 L 163.0,130.0 L 161.0,84.0 L 162.0,71.0 L 164.0,56.0 L 172.0,56.0 L 172.0,29.0 L 167.0,24.0 L 27.0,24.0" fill="#FDFDFD"/>
	<path d="M 27.0,24.0 L 167.0,24.0 L 172.0,29.0 L 172.0,56.0 L 21.0,56.0 L 21.0,29.0 L 25.0,25.0 L 27.0,24.0" fill="#81C684"/>
	<path d="M 137.0,119.0 L 140.0,120.0 L 146.0,130.0 L 142.0,130.0 L 142.0,144.0 L 134.0,144.0 L 134.0,130.0 L 130.0,129.0 L 137.0,119.0" fill="#256E29"/>
	<path d="M 117.0,119.0 L 120.0,120.0 L 126.0,130.0 L 122.0,130.0 L 122.0,144.0 L 114.0,144.0 L 114.0,130.0 L 110.0,129.0 L 117.0,119.0" fill="#256E29"/>
	<path d="M 110.0,148.0 L 146.0,148.0 L 146.0,152.0 L 110.0,152.0 L 110.0,148.0" fill="#246D28"/>
	<path d="M 159.0,81.0 L 160.0,81.0 L 160.0,97.0 L 154.0,101.0 L 156.0,92.0 L 159.0,81.0" fill="#439B47"/>
	<path d="M 34.0,130.0 L 35.0,130.0 L 37.0,143.0 L 32.0,139.0 L 32.0,134.0 L 34.0,130.0" fill="#4AA04E"/>
</svg>
