<?xml version="1.0" ?>
<svg baseProfile="full" height="600px" version="1.1" viewBox="-19.296000000000003 -19.296000000000003 230.592 230.592" width="600px" xmlns="http://www.w3.org/2000/svg" xmlns:ev="http://www.w3.org/2001/xml-events" xmlns:xlink="http://www.w3.org/1999/xlink">
	<defs/>
	<path d="M 0.0,0.0 L 192.0,0.0 L 192.0,192.0 L 0.0,192.0 L 0.0,0.0" fill="#4CAD50"/>
	<path d="M 0.0,0.0 L 192.0,0.0 L 192.0,192.0 L 0.0,192.0 L 0.0,0.0 M 136.0,24.0 L 27.0,25.0 L 21.0,30.0 L 21.0,56.0 L 28.0,56.0 L 28.0,67.0 L 30.0,105.0 L 30.0,136.0 L 28.0,154.0 L 28.0,163.0 L 33.0,168.0 L 158.0,168.0 L 163.0,165.0 L 164.0,162.0 L 163.0,106.0 L 163.0,71.0 L 164.0,56.0 L 172.0,56.0 L 172.0,29.0 L 167.0,24.0 L 136.0,24.0" fill="#FDFDFD"/>
	<path d="M 136.0,24.0 L 167.0,24.0 L 172.0,29.0 L 172.0,56.0 L 21.0,56.0 L 21.0,30.0 L 27.0,25.0 L 136.0,24.0" fill="#81C684"/>
	<path d="M 138.0,119.0 L 143.0,124.0 L 147.0,131.0 L 143.0,131.0 L 143.0,144.0 L 135.0,144.0 L 135.0,131.0 L 131.0,131.0 L 133.0,127.0 L 138.0,119.0" fill="#236A27"/>
	<path d="M 118.0,119.0 L 123.0,124.0 L 127.0,131.0 L 123.0,131.0 L 123.0,144.0 L 115.0,144.0 L 115.0,131.0 L 111.0,131.0 L 113.0,127.0 L 118.0,119.0" fill="#236A27"/>
	<path d="M 111.0,148.0 L 147.0,148.0 L 147.0,152.0 L 111.0,152.0 L 111.0,148.0" fill="#216726"/>
	<path d="M 160.0,84.0 L 162.0,85.0 L 162.0,96.0 L 158.0,97.0 L 159.0,89.0 L 160.0,84.0" fill="#459D49"/>
</svg>
