<?xml version="1.0" ?>
<svg baseProfile="full" height="600px" version="1.1" viewBox="-19.296000000000003 -19.296000000000003 230.592 230.592" width="600px" xmlns="http://www.w3.org/2000/svg" xmlns:ev="http://www.w3.org/2001/xml-events" xmlns:xlink="http://www.w3.org/1999/xlink">
	<defs/>
	<path d="M 0.0,0.0 L 192.0,0.0 L 192.0,192.0 L 0.0,192.0 L 0.0,0.0" fill="#4CAD50"/>
	<path d="M 0.0,0.0 L 192.0,0.0 L 192.0,192.0 L 0.0,192.0 L 0.0,0.0 M 148.0,24.0 L 115.0,25.0 L 62.0,26.0 L 29.0,27.0 L 24.0,30.0 L 22.0,33.0 L 23.0,48.0 L 24.0,56.0 L 28.0,56.0 L 30.0,71.0 L 39.0,124.0 L 38.0,131.0 L 28.0,158.0 L 29.0,165.0 L 33.0,168.0 L 158.0,168.0 L 163.0,165.0 L 164.0,162.0 L 163.0,142.0 L 160.0,115.0 L 157.0,78.0 L 164.0,58.0 L 164.0,56.0 L 172.0,56.0 L 172.0,28.0 L 167.0,24.0 L 148.0,24.0" fill="#FCFDFC"/>
	<path d="M 148.0,24.0 L 167.0,24.0 L 172.0,28.0 L 172.0,56.0 L 164.0,56.0 L 163.0,58.0 L 163.0,56.0 L 24.0,56.0 L 22.0,39.0 L 22.0,33.0 L 26.0,28.0 L 29.0,27.0 L 62.0,26.0 L 115.0,25.0 L 148.0,24.0" fill="#81C684"/>
	<path d="M 135.0,117.0 L 138.0,118.0 L 144.0,128.0 L 140.0,128.0 L 140.0,144.0 L 132.0,144.0 L 132.0,128.0 L 128.0,127.0 L 135.0,117.0" fill="#2E7D32"/>
	<path d="M 115.0,117.0 L 118.0,118.0 L 124.0,128.0 L 120.0,128.0 L 120.0,144.0 L 112.0,144.0 L 112.0,128.0 L 108.0,127.0 L 115.0,117.0" fill="#2E7D32"/>
	<path d="M 108.0,148.0 L 144.0,148.0 L 144.0,152.0 L 108.0,152.0 L 108.0,148.0" fill="#2D7C32"/>
	<path d="M 155.0,81.0 L 157.0,82.0 L 157.0,97.0 L 150.0,106.0 L 145.0,113.0 L 144.0,110.0 L 148.0,100.0 L 155.0,81.0" fill="#449C48"/>
	<path d="M 39.0,132.0 L 41.0,132.0 L 45.0,146.0 L 44.0,150.0 L 37.0,140.0 L 37.0,134.0 L 39.0,132.0" fill="#439B47"/>
</svg>
