<?xml version="1.0" ?>
<svg baseProfile="full" height="600px" version="1.1" viewBox="-12.06 -12.06 144.12 144.12" width="600px" xmlns="http://www.w3.org/2000/svg" xmlns:ev="http://www.w3.org/2001/xml-events" xmlns:xlink="http://www.w3.org/1999/xlink">
	<defs/>
	<path d="M 0.0,0.0 L 120.0,0.0 L 120.0,120.0 L 0.0,120.0 L 0.0,0.0" fill="#FDFDFD"/>
	<path d="M 28.0,26.0 L 34.0,26.0 L 36.0,27.0 L 35.0,36.0 L 44.0,32.0 L 55.0,32.0 L 65.0,36.0 L 72.0,43.0 L 72.0,45.0 L 74.0,44.0 L 83.0,44.0 L 91.0,49.0 L 96.0,57.0 L 97.0,61.0 L 103.0,65.0 L 108.0,73.0 L 108.0,82.0 L 104.0,90.0 L 99.0,94.0 L 94.0,96.0 L 25.0,96.0 L 18.0,92.0 L 14.0,87.0 L 12.0,83.0 L 12.0,73.0 L 15.0,67.0 L 13.0,62.0 L 10.0,55.0 L 10.0,46.0 L 13.0,38.0 L 20.0,30.0 L 28.0,26.0" fill="#030303"/>
	<path d="M 24.0,37.0 L 26.0,37.0 L 30.0,49.0 L 37.0,55.0 L 47.0,58.0 L 45.0,62.0 L 37.0,66.0 L 30.0,66.0 L 22.0,61.0 L 18.0,54.0 L 18.0,46.0 L 23.0,38.0 L 24.0,37.0" fill="#F3F3F3"/>
	<path d="M 102.0,32.0 L 107.0,33.0 L 112.0,39.0 L 111.0,43.0 L 105.0,48.0 L 101.0,47.0 L 96.0,42.0 L 97.0,37.0 L 100.0,36.0 L 102.0,32.0" fill="#171717"/>
</svg>
