<?xml version="1.0" ?>
<svg baseProfile="full" height="600px" version="1.1" viewBox="-12.06 -12.06 144.12 144.12" width="600px" xmlns="http://www.w3.org/2000/svg" xmlns:ev="http://www.w3.org/2001/xml-events" xmlns:xlink="http://www.w3.org/1999/xlink">
	<defs/>
	<path d="M 0.0,0.0 L 120.0,0.0 L 120.0,120.0 L 0.0,120.0 L 0.0,0.0" fill="#FCFCFC"/>
	<path d="M 27.0,26.0 L 35.0,26.0 L 37.0,28.0 L 36.0,33.0 L 35.0,36.0 L 44.0,32.0 L 55.0,32.0 L 65.0,36.0 L 72.0,43.0 L 72.0,45.0 L 74.0,44.0 L 83.0,44.0 L 91.0,49.0 L 96.0,57.0 L 97.0,61.0 L 103.0,65.0 L 108.0,73.0 L 108.0,82.0 L 104.0,90.0 L 99.0,94.0 L 94.0,96.0 L 25.0,96.0 L 18.0,92.0 L 14.0,87.0 L 12.0,83.0 L 12.0,73.0 L 16.0,65.0 L 12.0,58.0 L 11.0,55.0 L 11.0,44.0 L 14.0,36.0 L 21.0,29.0 L 27.0,26.0" fill="#020202"/>
	<path d="M 25.0,36.0 L 27.0,36.0 L 29.0,46.0 L 36.0,54.0 L 40.0,56.0 L 48.0,57.0 L 46.0,61.0 L 42.0,64.0 L 39.0,65.0 L 29.0,65.0 L 22.0,60.0 L 19.0,54.0 L 19.0,44.0 L 23.0,38.0 L 25.0,36.0" fill="#F5F5F5"/>
	<path d="M 103.0,34.0 L 107.0,36.0 L 110.0,39.0 L 108.0,43.0 L 105.0,46.0 L 101.0,44.0 L 98.0,41.0 L 100.0,37.0 L 103.0,34.0" fill="#0F0F0F"/>
	<path d="M 86.0,16.0 L 90.0,16.0 L 92.0,21.0 L 89.0,24.0 L 84.0,22.0 L 84.0,18.0 L 86.0,18.0 L 86.0,16.0" fill="#1A1A1A"/>
</svg>
