<?xml version="1.0" ?>
<svg baseProfile="full" height="600px" version="1.1" viewBox="-20.1 -20.1 240.2 240.2" width="600px" xmlns="http://www.w3.org/2000/svg" xmlns:ev="http://www.w3.org/2001/xml-events" xmlns:xlink="http://www.w3.org/1999/xlink">
	<defs/>
	<path d="M 0.0,0.0 L 200.0,0.0 L 200.0,200.0 L 0.0,200.0 L 0.0,0.0" fill="#FDFDFD"/>
	<path d="M 89.0,72.0 L 102.0,72.0 L 114.0,77.0 L 120.0,82.0 L 126.0,92.0 L 128.0,98.0 L 128.0,104.0 L 138.0,100.0 L 150.0,100.0 L 162.0,106.0 L 168.0,113.0 L 172.0,122.0 L 172.0,133.0 L 167.0,145.0 L 159.0,152.0 L 150.0,156.0 L 55.0,156.0 L 47.0,152.0 L 42.0,146.0 L 40.0,141.0 L 40.0,131.0 L 44.0,123.0 L 52.0,117.0 L 55.0,116.0 L 66.0,116.0 L 64.0,110.0 L 64.0,97.0 L 68.0,88.0 L 74.0,80.0 L 83.0,74.0 L 89.0,72.0" fill="#FCFCFC"/>
	<path d="M 88.0,64.0 L 103.0,64.0 L 112.0,67.0 L 122.0,73.0 L 130.0,82.0 L 134.0,90.0 L 134.0,93.0 L 140.0,92.0 L 149.0,92.0 L 160.0,95.0 L 168.0,101.0 L 176.0,110.0 L 179.0,117.0 L 180.0,122.0 L 180.0,132.0 L 178.0,141.0 L 173.0,150.0 L 165.0,158.0 L 155.0,163.0 L 148.0,164.0 L 53.0,164.0 L 43.0,159.0 L 35.0,150.0 L 32.0,141.0 L 32.0,130.0 L 36.0,121.0 L 43.0,113.0 L 51.0,109.0 L 56.0,108.0 L 56.0,96.0 L 60.0,86.0 L 66.0,77.0 L 74.0,70.0 L 84.0,65.0 L 88.0,64.0 M 89.0,72.0 L 80.0,76.0 L 71.0,83.0 L 65.0,94.0 L 64.0,97.0 L 64.0,110.0 L 66.0,116.0 L 55.0,116.0 L 47.0,120.0 L 41.0,128.0 L 40.0,131.0 L 40.0,141.0 L 44.0,149.0 L 52.0,155.0 L 55.0,156.0 L 150.0,156.0 L 162.0,150.0 L 168.0,143.0 L 172.0,133.0 L 172.0,122.0 L 168.0,113.0 L 161.0,105.0 L 150.0,100.0 L 138.0,100.0 L 128.0,104.0 L 127.0,94.0 L 122.0,85.0 L 118.0,80.0 L 108.0,74.0 L 102.0,72.0 L 89.0,72.0" fill="#050505"/>
	<path d="M 143.0,23.0 L 146.0,23.0 L 146.0,39.0 L 149.0,49.0 L 155.0,58.0 L 164.0,65.0 L 173.0,68.0 L 191.0,69.0 L 190.0,81.0 L 186.0,91.0 L 179.0,99.0 L 174.0,99.0 L 173.0,98.0 L 173.0,93.0 L 179.0,85.0 L 182.0,77.0 L 170.0,77.0 L 158.0,72.0 L 148.0,63.0 L 142.0,55.0 L 138.0,45.0 L 137.0,34.0 L 126.0,40.0 L 118.0,49.0 L 112.0,58.0 L 107.0,57.0 L 106.0,52.0 L 113.0,41.0 L 118.0,35.0 L 128.0,28.0 L 143.0,23.0" fill="#090909"/>
	<path d="M 14.0,73.0 L 19.0,74.0 L 23.0,78.0 L 22.0,83.0 L 18.0,87.0 L 13.0,86.0 L 9.0,82.0 L 10.0,77.0 L 14.0,73.0" fill="#0F0F0F"/>
	<path d="M 46.0,30.0 L 51.0,31.0 L 54.0,34.0 L 53.0,39.0 L 50.0,42.0 L 45.0,41.0 L 42.0,38.0 L 43.0,33.0 L 46.0,30.0" fill="#020202"/>
</svg>
