<?xml version="1.0" ?>
<svg baseProfile="full" height="600px" version="1.1" viewBox="-16.08 -16.08 192.16 192.16" width="600px" xmlns="http://www.w3.org/2000/svg" xmlns:ev="http://www.w3.org/2001/xml-events" xmlns:xlink="http://www.w3.org/1999/xlink">
	<defs/>
	<path d="M 0.0,0.0 L 160.0,0.0 L 160.0,160.0 L 0.0,160.0 L 0.0,0.0" fill="#FFFFFF"/>
	<path d="M 132.0,12.0 L 156.0,12.0 L 156.0,152.0 L 132.0,152.0 L 132.0,12.0" fill="#DFE9F1"/>
	<path d="M 100.0,44.0 L 124.0,44.0 L 124.0,152.0 L 100.0,152.0 L 100.0,44.0" fill="#DFE9F1"/>
	<path d="M 36.0,100.0 L 60.0,100.0 L 60.0,152.0 L 36.0,152.0 L 36.0,100.0" fill="#B8DFBC"/>
	<path d="M 132.0,12.0 L 156.0,12.0 L 156.0,152.0 L 132.0,152.0 L 132.0,12.0 M 136.0,16.0 L 136.0,148.0 L 152.0,148.0 L 152.0,16.0 L 136.0,16.0" fill="#A3B7CC"/>
	<path d="M 68.0,72.0 L 81.0,72.0 L 81.0,152.0 L 68.0,152.0 L 68.0,72.0" fill="#B9DFBD"/>
	<path d="M 100.0,44.0 L 124.0,44.0 L 124.0,152.0 L 100.0,152.0 L 100.0,44.0 M 104.0,48.0 L 104.0,148.0 L 120.0,148.0 L 120.0,48.0 L 104.0,48.0" fill="#A3B7CC"/>
	<path d="M 81.0,72.0 L 92.0,72.0 L 92.0,152.0 L 81.0,152.0 L 81.0,72.0" fill="#DFE9F1"/>
	<path d="M 4.0,120.0 L 28.0,120.0 L 28.0,152.0 L 4.0,152.0 L 4.0,120.0" fill="#B8DFBC"/>
	<path d="M 36.0,100.0 L 60.0,100.0 L 60.0,152.0 L 36.0,152.0 L 36.0,100.0 M 40.0,104.0 L 40.0,148.0 L 56.0,148.0 L 56.0,104.0 L 40.0,104.0" fill="#5E9C76"/>
	<path d="M 68.0,72.0 L 81.0,72.0 L 81.0,76.0 L 72.0,76.0 L 72.0,148.0 L 81.0,148.0 L 81.0,152.0 L 68.0,152.0 L 68.0,72.0" fill="#5E9C76"/>
	<path d="M 4.0,120.0 L 28.0,120.0 L 28.0,152.0 L 4.0,152.0 L 4.0,120.0 M 8.0,124.0 L 8.0,148.0 L 24.0,148.0 L 24.0,124.0 L 8.0,124.0" fill="#5E9C76"/>
	<path d="M 81.0,72.0 L 92.0,72.0 L 92.0,152.0 L 81.0,152.0 L 81.0,148.0 L 88.0,148.0 L 88.0,76.0 L 81.0,76.0 L 81.0,72.0" fill="#A3B7CC"/>
</svg>
