<?xml version="1.0" ?>
<svg baseProfile="full" height="600px" version="1.1" viewBox="-9.648000000000001 -9.648000000000001 115.296 115.296" width="600px" xmlns="http://www.w3.org/2000/svg" xmlns:ev="http://www.w3.org/2001/xml-events" xmlns:xlink="http://www.w3.org/1999/xlink">
	<defs/>
	<path d="M 0.0,0.0 L 96.0,0.0 L 96.0,96.0 L 0.0,96.0 L 0.0,0.0" fill="#FBFBFB"/>
	<path d="M 17.0,13.0 L 21.0,15.0 L 86.0,80.0 L 85.0,84.0 L 83.0,86.0 L 79.0,85.0 L 36.0,42.0 L 33.0,43.0 L 28.0,51.0 L 29.0,55.0 L 36.0,62.0 L 35.0,72.0 L 34.0,82.0 L 32.0,84.0 L 14.0,84.0 L 12.0,82.0 L 12.0,71.0 L 16.0,55.0 L 23.0,42.0 L 28.0,36.0 L 26.0,32.0 L 13.0,19.0 L 15.0,15.0 L 17.0,13.0" fill="#030303"/>
	<path d="M 71.0,12.0 L 82.0,12.0 L 84.0,14.0 L 84.0,32.0 L 82.0,34.0 L 68.0,36.0 L 62.0,36.0 L 54.0,28.0 L 49.0,29.0 L 45.0,29.0 L 41.0,24.0 L 51.0,18.0 L 61.0,14.0 L 71.0,12.0" fill="#040404"/>
</svg>
