<?xml version="1.0" ?>
<svg baseProfile="full" height="600px" version="1.1" viewBox="-12.06 -12.06 144.12 144.12" width="600px" xmlns="http://www.w3.org/2000/svg" xmlns:ev="http://www.w3.org/2001/xml-events" xmlns:xlink="http://www.w3.org/1999/xlink">
	<defs/>
	<path d="M 0.0,0.0 L 120.0,0.0 L 120.0,120.0 L 0.0,120.0 L 0.0,0.0" fill="#FCFCFC"/>
	<path d="M 23.0,19.0 L 103.0,20.0 L 108.0,25.0 L 108.0,90.0 L 105.0,95.0 L 103.0,97.0 L 118.0,112.0 L 117.0,116.0 L 115.0,118.0 L 111.0,117.0 L 20.0,26.0 L 16.0,27.0 L 13.0,31.0 L 17.0,33.0 L 79.0,95.0 L 79.0,96.0 L 57.0,97.0 L 43.0,115.0 L 38.0,116.0 L 36.0,114.0 L 36.0,96.0 L 17.0,96.0 L 12.0,91.0 L 12.0,25.0 L 17.0,20.0 L 23.0,19.0" fill="#020202"/>
</svg>
