<?xml version="1.0" ?>
<svg baseProfile="full" height="600px" version="1.1" viewBox="-20.1 -20.1 240.2 240.2" width="600px" xmlns="http://www.w3.org/2000/svg" xmlns:ev="http://www.w3.org/2001/xml-events" xmlns:xlink="http://www.w3.org/1999/xlink">
	<defs/>
	<path d="M 0.0,0.0 L 200.0,0.0 L 200.0,200.0 L 0.0,200.0 L 0.0,0.0" fill="#FFFFFF"/>
	<path d="M 104.0,52.0 L 144.0,52.0 L 144.0,192.0 L 104.0,192.0 L 104.0,52.0" fill="#000000"/>
	<path d="M 160.0,16.0 L 184.0,16.0 L 184.0,184.0 L 160.0,184.0 L 160.0,16.0" fill="#FEFEFE"/>
	<path d="M 56.0,96.0 L 96.0,96.0 L 96.0,192.0 L 56.0,192.0 L 56.0,96.0" fill="#000000"/>
	<path d="M 152.0,8.0 L 192.0,8.0 L 192.0,192.0 L 152.0,192.0 L 152.0,8.0 M 160.0,16.0 L 160.0,184.0 L 184.0,184.0 L 184.0,16.0 L 160.0,16.0" fill="#000000"/>
	<path d="M 8.0,140.0 L 48.0,140.0 L 48.0,192.0 L 8.0,192.0 L 8.0,140.0" fill="#000000"/>
</svg>
