<?xml version="1.0" ?>
<svg baseProfile="full" height="600px" version="1.1" viewBox="-12.864 -12.864 153.728 153.728" width="600px" xmlns="http://www.w3.org/2000/svg" xmlns:ev="http://www.w3.org/2001/xml-events" xmlns:xlink="http://www.w3.org/1999/xlink">
	<defs/>
	<path d="M 0.0,0.0 L 128.0,0.0 L 128.0,128.0 L 0.0,128.0 L 0.0,0.0" fill="#FEFEFE"/>
	<path d="M 84.0,16.0 L 108.0,16.0 L 108.0,112.0 L 84.0,112.0 L 84.0,16.0" fill="#000000"/>
	<path d="M 52.0,44.0 L 76.0,44.0 L 76.0,112.0 L 52.0,112.0 L 52.0,44.0" fill="#000000"/>
	<path d="M 20.0,72.0 L 44.0,72.0 L 44.0,112.0 L 20.0,112.0 L 20.0,72.0" fill="#000000"/>
	<path d="M 92.0,24.0 L 100.0,24.0 L 100.0,104.0 L 92.0,104.0 L 92.0,24.0" fill="#FEFEFE"/>
	<path d="M 60.0,52.0 L 68.0,52.0 L 68.0,104.0 L 60.0,104.0 L 60.0,52.0" fill="#FEFEFE"/>
	<path d="M 28.0,80.0 L 36.0,80.0 L 36.0,104.0 L 28.0,104.0 L 28.0,80.0" fill="#FBFBFB"/>
</svg>
