<?xml version="1.0" ?>
<svg baseProfile="full" height="600px" version="1.1" viewBox="-19.296000000000003 -19.296000000000003 230.592 230.592" width="600px" xmlns="http://www.w3.org/2000/svg" xmlns:ev="http://www.w3.org/2001/xml-events" xmlns:xlink="http://www.w3.org/1999/xlink">
	<defs/>
	<path d="M 0.0,0.0 L 192.0,0.0 L 192.0,192.0 L 0.0,192.0 L 0.0,0.0" fill="#FEFEFE"/>
	<path d="M 76.0,76.0 L 116.0,76.0 L 116.0,168.0 L 76.0,168.0 L 76.0,76.0" fill="#8BC34A"/>
	<path d="M 128.0,92.0 L 168.0,92.0 L 168.0,168.0 L 128.0,168.0 L 128.0,92.0" fill="#8BC34A"/>
	<path d="M 24.0,97.0 L 64.0,97.0 L 64.0,168.0 L 24.0,168.0 L 24.0,97.0" fill="#8BC34A"/>
	<path d="M 128.0,24.0 L 168.0,24.0 L 168.0,92.0 L 128.0,92.0 L 128.0,24.0" fill="#CFD8DC"/>
	<path d="M 76.0,64.0 L 116.0,64.0 L 116.0,76.0 L 76.0,76.0 L 76.0,64.0" fill="#CED7D9"/>
</svg>
