<?xml version="1.0" ?>
<svg baseProfile="full" height="600px" version="1.1" viewBox="-20.1 -20.1 240.2 240.2" width="600px" xmlns="http://www.w3.org/2000/svg" xmlns:ev="http://www.w3.org/2001/xml-events" xmlns:xlink="http://www.w3.org/1999/xlink">
	<defs/>
	<path d="M 0.0,0.0 L 200.0,0.0 L 200.0,200.0 L 0.0,200.0 L 0.0,0.0" fill="#FDFDFD"/>
	<path d="M 62.0,12.0 L 137.0,12.0 L 146.0,16.0 L 154.0,25.0 L 156.0,30.0 L 156.0,169.0 L 152.0,178.0 L 145.0,185.0 L 137.0,188.0 L 62.0,188.0 L 54.0,184.0 L 46.0,175.0 L 44.0,169.0 L 44.0,30.0 L 48.0,22.0 L 55.0,15.0 L 62.0,12.0" fill="#FCFCFC"/>
	<path d="M 68.0,40.0 L 132.0,40.0 L 132.0,156.0 L 68.0,156.0 L 68.0,40.0" fill="#FDFDFD"/>
	<path d="M 62.0,12.0 L 137.0,12.0 L 146.0,16.0 L 154.0,25.0 L 156.0,30.0 L 156.0,169.0 L 152.0,178.0 L 145.0,185.0 L 137.0,188.0 L 62.0,188.0 L 54.0,184.0 L 46.0,175.0 L 44.0,169.0 L 44.0,30.0 L 48.0,22.0 L 55.0,15.0 L 62.0,12.0 M 63.0,20.0 L 57.0,24.0 L 53.0,29.0 L 52.0,31.0 L 52.0,168.0 L 56.0,175.0 L 63.0,180.0 L 136.0,180.0 L 144.0,175.0 L 147.0,171.0 L 148.0,167.0 L 148.0,31.0 L 142.0,23.0 L 136.0,20.0 L 63.0,20.0" fill="#020202"/>
	<path d="M 62.0,32.0 L 138.0,32.0 L 140.0,34.0 L 140.0,162.0 L 138.0,164.0 L 62.0,164.0 L 60.0,162.0 L 60.0,34.0 L 62.0,32.0 M 68.0,40.0 L 68.0,156.0 L 132.0,156.0 L 132.0,40.0 L 68.0,40.0" fill="#000000"/>
	<path d="M 98.0,168.0 L 103.0,169.0 L 104.0,174.0 L 102.0,176.0 L 97.0,175.0 L 96.0,170.0 L 98.0,168.0" fill="#0C0C0C"/>
</svg>
