<?xml version="1.0" ?>
<svg baseProfile="full" height="600px" version="1.1" viewBox="-9.648000000000001 -9.648000000000001 115.296 115.296" width="600px" xmlns="http://www.w3.org/2000/svg" xmlns:ev="http://www.w3.org/2001/xml-events" xmlns:xlink="http://www.w3.org/1999/xlink">
	<defs/>
	<path d="M 0.0,0.0 L 96.0,0.0 L 96.0,96.0 L 0.0,96.0 L 0.0,0.0" fill="#FCFCFC"/>
	<path d="M 26.0,4.0 L 69.0,4.0 L 74.0,7.0 L 76.0,10.0 L 76.0,59.0 L 69.0,53.0 L 68.0,52.0 L 68.0,16.0 L 28.0,16.0 L 28.0,72.0 L 65.0,71.0 L 46.0,52.0 L 47.0,48.0 L 49.0,46.0 L 53.0,47.0 L 86.0,80.0 L 85.0,84.0 L 83.0,86.0 L 79.0,85.0 L 77.0,83.0 L 73.0,90.0 L 69.0,92.0 L 26.0,92.0 L 21.0,87.0 L 20.0,85.0 L 20.0,10.0 L 25.0,5.0 L 26.0,4.0" fill="#020202"/>
	<path d="M 45.0,76.0 L 51.0,76.0 L 52.0,77.0 L 52.0,83.0 L 51.0,84.0 L 45.0,84.0 L 44.0,83.0 L 44.0,77.0 L 45.0,76.0" fill="#F2F2F2"/>
</svg>
