<?xml version="1.0" ?>
<svg baseProfile="full" height="600px" version="1.1" viewBox="-20.1 -20.1 240.2 240.2" width="600px" xmlns="http://www.w3.org/2000/svg" xmlns:ev="http://www.w3.org/2001/xml-events" xmlns:xlink="http://www.w3.org/1999/xlink">
	<defs/>
	<path d="M 0.0,0.0 L 200.0,0.0 L 200.0,200.0 L 0.0,200.0 L 0.0,0.0" fill="#030303"/>
	<path d="M 0.0,6.0 L 7.0,12.0 L 98.0,103.0 L 103.0,102.0 L 102.0,97.0 L 38.0,33.0 L 38.0,32.0 L 192.0,32.0 L 192.0,42.0 L 178.0,55.0 L 167.0,64.0 L 154.0,76.0 L 143.0,85.0 L 131.0,96.0 L 120.0,105.0 L 111.0,113.0 L 103.0,116.0 L 95.0,116.0 L 87.0,111.0 L 73.0,99.0 L 63.0,90.0 L 52.0,81.0 L 40.0,70.0 L 29.0,61.0 L 17.0,50.0 L 9.0,43.0 L 8.0,42.0 L 8.0,32.0 L 12.0,31.0 L 6.0,25.0 L 0.0,24.0 L 0.0,6.0" fill="#FBFBFB"/>
	<path d="M 66.0,104.0 L 71.0,107.0 L 82.0,117.0 L 94.0,123.0 L 105.0,123.0 L 115.0,119.0 L 129.0,107.0 L 134.0,104.0 L 148.0,115.0 L 162.0,126.0 L 176.0,137.0 L 192.0,150.0 L 192.0,160.0 L 8.0,160.0 L 8.0,150.0 L 21.0,139.0 L 34.0,129.0 L 49.0,117.0 L 63.0,106.0 L 66.0,104.0" fill="#FCFCFC"/>
	<path d="M 0.0,168.0 L 200.0,168.0 L 200.0,200.0 L 0.0,200.0 L 0.0,168.0" fill="#FDFDFD"/>
	<path d="M 6.0,0.0 L 200.0,0.0 L 200.0,24.0 L 29.0,24.0 L 6.0,1.0 L 6.0,0.0" fill="#FDFDFD"/>
	<path d="M 191.0,53.0 L 192.0,53.0 L 192.0,139.0 L 188.0,137.0 L 174.0,126.0 L 159.0,114.0 L 145.0,103.0 L 140.0,98.0 L 147.0,91.0 L 158.0,82.0 L 170.0,71.0 L 181.0,62.0 L 191.0,53.0" fill="#FBFBFB"/>
	<path d="M 8.0,53.0 L 16.0,59.0 L 28.0,70.0 L 39.0,79.0 L 51.0,90.0 L 59.0,97.0 L 59.0,100.0 L 43.0,113.0 L 30.0,123.0 L 16.0,134.0 L 10.0,139.0 L 8.0,139.0 L 8.0,53.0" fill="#FCFCFC"/>
</svg>
