<?xml version="1.0" ?>
<svg baseProfile="full" height="600px" version="1.1" viewBox="-20.1 -20.1 240.2 240.2" width="600px" xmlns="http://www.w3.org/2000/svg" xmlns:ev="http://www.w3.org/2001/xml-events" xmlns:xlink="http://www.w3.org/1999/xlink">
	<defs/>
	<path d="M 0.0,0.0 L 200.0,0.0 L 200.0,200.0 L 0.0,200.0 L 0.0,0.0" fill="#030303"/>
	<path d="M 8.0,32.0 L 30.0,32.0 L 32.0,37.0 L 194.0,199.0 L 194.0,200.0 L 0.0,200.0 L 0.0,168.0 L 148.0,167.0 L 142.0,161.0 L 8.0,160.0 L 8.0,150.0 L 21.0,139.0 L 34.0,129.0 L 49.0,117.0 L 63.0,106.0 L 67.0,104.0 L 78.0,113.0 L 85.0,119.0 L 94.0,123.0 L 104.0,124.0 L 97.0,116.0 L 89.0,113.0 L 79.0,104.0 L 68.0,95.0 L 55.0,83.0 L 44.0,74.0 L 32.0,63.0 L 21.0,54.0 L 8.0,42.0 L 8.0,32.0" fill="#FCFCFC"/>
	<path d="M 38.0,32.0 L 192.0,32.0 L 192.0,42.0 L 178.0,55.0 L 167.0,64.0 L 155.0,75.0 L 144.0,84.0 L 131.0,96.0 L 120.0,105.0 L 116.0,109.0 L 112.0,107.0 L 38.0,33.0 L 38.0,32.0" fill="#FCFCFC"/>
	<path d="M 0.0,0.0 L 200.0,0.0 L 200.0,24.0 L 0.0,24.0 L 0.0,0.0" fill="#FDFDFD"/>
	<path d="M 191.0,53.0 L 192.0,53.0 L 192.0,139.0 L 188.0,137.0 L 174.0,126.0 L 159.0,114.0 L 145.0,103.0 L 140.0,98.0 L 147.0,91.0 L 158.0,82.0 L 170.0,71.0 L 181.0,62.0 L 191.0,53.0" fill="#FBFBFB"/>
	<path d="M 8.0,53.0 L 16.0,59.0 L 28.0,70.0 L 39.0,79.0 L 51.0,90.0 L 59.0,97.0 L 59.0,100.0 L 43.0,113.0 L 30.0,123.0 L 16.0,134.0 L 10.0,139.0 L 8.0,139.0 L 8.0,53.0" fill="#FCFCFC"/>
	<path d="M 133.0,104.0 L 138.0,107.0 L 153.0,119.0 L 167.0,130.0 L 181.0,141.0 L 192.0,150.0 L 192.0,160.0 L 165.0,160.0 L 121.0,116.0 L 123.0,112.0 L 133.0,104.0" fill="#FAFAFA"/>
	<path d="M 174.0,168.0 L 200.0,168.0 L 200.0,194.0 L 193.0,188.0 L 174.0,169.0 L 174.0,168.0" fill="#F9F9F9"/>
</svg>
