<?xml version="1.0" ?>
<svg baseProfile="full" height="600px" version="1.1" viewBox="-12.864 -12.864 153.728 153.728" width="600px" xmlns="http://www.w3.org/2000/svg" xmlns:ev="http://www.w3.org/2001/xml-events" xmlns:xlink="http://www.w3.org/1999/xlink">
	<defs/>
	<path d="M 0.0,0.0 L 128.0,0.0 L 128.0,128.0 L 0.0,128.0 L 0.0,0.0" fill="#FDFDFD"/>
	<path d="M 40.0,16.0 L 87.0,16.0 L 92.0,19.0 L 96.0,24.0 L 96.0,104.0 L 93.0,109.0 L 87.0,112.0 L 40.0,112.0 L 33.0,106.0 L 32.0,103.0 L 32.0,24.0 L 35.0,19.0 L 40.0,16.0" fill="#FDFDFD"/>
	<path d="M 40.0,16.0 L 87.0,16.0 L 92.0,19.0 L 96.0,24.0 L 96.0,104.0 L 93.0,109.0 L 87.0,112.0 L 40.0,112.0 L 33.0,106.0 L 32.0,103.0 L 32.0,24.0 L 35.0,19.0 L 40.0,16.0 M 42.0,24.0 L 40.0,26.0 L 40.0,102.0 L 42.0,104.0 L 86.0,104.0 L 88.0,102.0 L 88.0,26.0 L 86.0,24.0 L 42.0,24.0" fill="#010101"/>
	<path d="M 62.0,92.0 L 67.0,93.0 L 68.0,98.0 L 66.0,100.0 L 61.0,99.0 L 60.0,94.0 L 62.0,92.0" fill="#0C0C0C"/>
</svg>
