<?xml version="1.0" ?>
<svg baseProfile="full" height="600px" version="1.1" viewBox="-20.1 -20.1 240.2 240.2" width="600px" xmlns="http://www.w3.org/2000/svg" xmlns:ev="http://www.w3.org/2001/xml-events" xmlns:xlink="http://www.w3.org/1999/xlink">
	<defs/>
	<path d="M 0.0,0.0 L 200.0,0.0 L 200.0,200.0 L 0.0,200.0 L 0.0,0.0" fill="#FCFCFC"/>
	<path d="M 95.0,4.0 L 105.0,4.0 L 111.0,8.0 L 115.0,13.0 L 116.0,15.0 L 116.0,24.0 L 115.0,26.0 L 125.0,29.0 L 136.0,36.0 L 144.0,45.0 L 150.0,58.0 L 152.0,65.0 L 153.0,88.0 L 156.0,110.0 L 163.0,126.0 L 173.0,136.0 L 176.0,141.0 L 176.0,148.0 L 170.0,156.0 L 166.0,160.0 L 200.0,194.0 L 200.0,200.0 L 194.0,200.0 L 131.0,137.0 L 132.0,132.0 L 137.0,131.0 L 158.0,152.0 L 164.0,150.0 L 167.0,146.0 L 166.0,142.0 L 157.0,133.0 L 149.0,117.0 L 146.0,107.0 L 144.0,91.0 L 143.0,67.0 L 140.0,57.0 L 135.0,48.0 L 128.0,41.0 L 118.0,36.0 L 113.0,34.0 L 107.0,35.0 L 105.0,36.0 L 95.0,36.0 L 91.0,34.0 L 85.0,35.0 L 75.0,39.0 L 65.0,48.0 L 59.0,59.0 L 57.0,67.0 L 56.0,92.0 L 53.0,111.0 L 48.0,124.0 L 42.0,134.0 L 33.0,143.0 L 34.0,148.0 L 42.0,153.0 L 59.0,157.0 L 78.0,159.0 L 119.0,159.0 L 142.0,157.0 L 146.0,165.0 L 133.0,167.0 L 124.0,167.0 L 124.0,177.0 L 120.0,186.0 L 113.0,193.0 L 105.0,196.0 L 94.0,196.0 L 86.0,192.0 L 78.0,183.0 L 76.0,177.0 L 76.0,167.0 L 64.0,167.0 L 46.0,164.0 L 34.0,159.0 L 27.0,153.0 L 24.0,148.0 L 24.0,141.0 L 30.0,133.0 L 37.0,126.0 L 42.0,115.0 L 45.0,105.0 L 47.0,91.0 L 48.0,65.0 L 52.0,53.0 L 57.0,44.0 L 65.0,35.0 L 79.0,27.0 L 84.0,25.0 L 84.0,15.0 L 88.0,9.0 L 93.0,5.0 L 95.0,4.0" fill="#070707"/>
	<path d="M 84.0,168.0 L 116.0,168.0 L 116.0,177.0 L 110.0,185.0 L 105.0,188.0 L 96.0,188.0 L 89.0,184.0 L 84.0,177.0 L 84.0,168.0" fill="#F8F8F8"/>
	<path d="M 97.0,12.0 L 103.0,12.0 L 108.0,17.0 L 108.0,23.0 L 103.0,28.0 L 97.0,28.0 L 92.0,23.0 L 92.0,17.0 L 97.0,12.0" fill="#EFEFEF"/>
</svg>
