<?xml version="1.0" ?>
<svg baseProfile="full" height="600px" version="1.1" viewBox="-12.864 -12.864 153.728 153.728" width="600px" xmlns="http://www.w3.org/2000/svg" xmlns:ev="http://www.w3.org/2001/xml-events" xmlns:xlink="http://www.w3.org/1999/xlink">
	<defs/>
	<path d="M 0.0,0.0 L 128.0,0.0 L 128.0,128.0 L 0.0,128.0 L 0.0,0.0" fill="#FDFDFD"/>
	<path d="M 61.0,12.0 L 67.0,12.0 L 72.0,17.0 L 73.0,21.0 L 83.0,26.0 L 90.0,33.0 L 95.0,43.0 L 96.0,46.0 L 97.0,90.0 L 104.0,92.0 L 104.0,100.0 L 76.0,100.0 L 76.0,107.0 L 73.0,113.0 L 67.0,116.0 L 60.0,116.0 L 53.0,110.0 L 52.0,107.0 L 52.0,100.0 L 24.0,100.0 L 24.0,92.0 L 31.0,90.0 L 32.0,45.0 L 36.0,36.0 L 42.0,28.0 L 51.0,22.0 L 56.0,21.0 L 57.0,15.0 L 61.0,12.0" fill="#FCFCFC"/>
	<path d="M 61.0,12.0 L 67.0,12.0 L 72.0,17.0 L 73.0,21.0 L 83.0,26.0 L 90.0,33.0 L 95.0,43.0 L 96.0,46.0 L 97.0,90.0 L 104.0,92.0 L 104.0,100.0 L 76.0,100.0 L 76.0,107.0 L 73.0,113.0 L 67.0,116.0 L 60.0,116.0 L 53.0,110.0 L 52.0,107.0 L 52.0,100.0 L 24.0,100.0 L 24.0,92.0 L 31.0,90.0 L 32.0,45.0 L 36.0,36.0 L 42.0,28.0 L 51.0,22.0 L 56.0,21.0 L 57.0,15.0 L 61.0,12.0 M 58.0,28.0 L 50.0,32.0 L 42.0,41.0 L 40.0,46.0 L 40.0,92.0 L 88.0,92.0 L 88.0,47.0 L 83.0,37.0 L 76.0,31.0 L 68.0,28.0 L 58.0,28.0" fill="#030303"/>
	<path d="M 62.0,100.0 L 67.0,101.0 L 68.0,106.0 L 66.0,108.0 L 61.0,107.0 L 60.0,102.0 L 62.0,100.0" fill="#EAEAEA"/>
</svg>
