<?xml version="1.0" ?>
<svg baseProfile="full" height="600px" version="1.1" viewBox="-9.648000000000001 -9.648000000000001 115.296 115.296" width="600px" xmlns="http://www.w3.org/2000/svg" xmlns:ev="http://www.w3.org/2001/xml-events" xmlns:xlink="http://www.w3.org/1999/xlink">
	<defs/>
	<path d="M 0.0,0.0 L 96.0,0.0 L 96.0,96.0 L 0.0,96.0 L 0.0,0.0" fill="#FBFBFB"/>
	<path d="M 43.0,12.0 L 44.0,12.0 L 44.0,38.0 L 40.0,42.0 L 41.0,46.0 L 44.0,49.0 L 44.0,84.0 L 37.0,78.0 L 20.0,61.0 L 9.0,60.0 L 4.0,55.0 L 4.0,41.0 L 9.0,36.0 L 20.0,35.0 L 43.0,12.0" fill="#050505"/>
	<path d="M 77.0,14.0 L 79.0,14.0 L 86.0,24.0 L 90.0,32.0 L 92.0,39.0 L 92.0,54.0 L 90.0,63.0 L 87.0,70.0 L 81.0,65.0 L 82.0,58.0 L 83.0,54.0 L 83.0,40.0 L 78.0,28.0 L 73.0,21.0 L 74.0,17.0 L 77.0,14.0" fill="#0A0A0A"/>
	<path d="M 49.0,46.0 L 53.0,47.0 L 86.0,80.0 L 85.0,84.0 L 83.0,86.0 L 79.0,85.0 L 46.0,52.0 L 47.0,48.0 L 49.0,46.0" fill="#040404"/>
	<path d="M 65.0,26.0 L 69.0,27.0 L 74.0,35.0 L 76.0,41.0 L 76.0,54.0 L 74.0,58.0 L 68.0,52.0 L 66.0,39.0 L 61.0,32.0 L 63.0,28.0 L 65.0,26.0" fill="#0D0D0D"/>
</svg>
