<?xml version="1.0" ?>
<svg baseProfile="full" height="600px" version="1.1" viewBox="-12.06 -12.06 144.12 144.12" width="600px" xmlns="http://www.w3.org/2000/svg" xmlns:ev="http://www.w3.org/2001/xml-events" xmlns:xlink="http://www.w3.org/1999/xlink">
	<defs/>
	<path d="M 0.0,0.0 L 120.0,0.0 L 120.0,120.0 L 0.0,120.0 L 0.0,0.0" fill="#FBFBFB"/>
	<path d="M 8.0,0.0 L 120.0,0.0 L 120.0,51.0 L 119.0,51.0 L 115.0,34.0 L 108.0,20.0 L 102.0,12.0 L 97.0,13.0 L 98.0,19.0 L 105.0,29.0 L 110.0,42.0 L 112.0,51.0 L 112.0,71.0 L 108.0,86.0 L 103.0,96.0 L 99.0,94.0 L 91.0,86.0 L 95.0,70.0 L 95.0,55.0 L 92.0,40.0 L 86.0,28.0 L 82.0,23.0 L 77.0,24.0 L 78.0,30.0 L 84.0,39.0 L 88.0,52.0 L 88.0,69.0 L 85.0,79.0 L 78.0,73.0 L 72.0,67.0 L 70.0,50.0 L 65.0,40.0 L 61.0,35.0 L 56.0,36.0 L 56.0,41.0 L 62.0,49.0 L 64.0,58.0 L 57.0,52.0 L 44.0,39.0 L 43.0,29.0 L 38.0,33.0 L 8.0,3.0 L 6.0,1.0 L 8.0,0.0" fill="#FAFAFA"/>
	<path d="M 5.0,2.0 L 9.0,3.0 L 38.0,32.0 L 44.0,28.0 L 45.0,39.0 L 63.0,57.0 L 60.0,47.0 L 55.0,41.0 L 55.0,36.0 L 57.0,34.0 L 62.0,35.0 L 69.0,45.0 L 71.0,50.0 L 73.0,67.0 L 84.0,78.0 L 87.0,69.0 L 87.0,52.0 L 83.0,39.0 L 76.0,28.0 L 77.0,23.0 L 82.0,22.0 L 88.0,30.0 L 93.0,40.0 L 96.0,55.0 L 96.0,70.0 L 92.0,86.0 L 101.0,95.0 L 103.0,95.0 L 108.0,83.0 L 111.0,71.0 L 111.0,51.0 L 107.0,36.0 L 101.0,24.0 L 96.0,17.0 L 97.0,12.0 L 102.0,11.0 L 110.0,22.0 L 116.0,34.0 L 120.0,51.0 L 120.0,72.0 L 117.0,84.0 L 111.0,99.0 L 109.0,103.0 L 114.0,109.0 L 108.0,114.0 L 2.0,8.0 L 3.0,4.0 L 5.0,2.0" fill="#050505"/>
	<path d="M 8.0,44.0 L 28.0,44.0 L 44.0,60.0 L 44.0,92.0 L 37.0,86.0 L 28.0,77.0 L 8.0,76.0 L 3.0,73.0 L 0.0,67.0 L 0.0,52.0 L 3.0,47.0 L 8.0,44.0" fill="#030303"/>
	<path d="M 59.0,77.0 L 63.0,79.0 L 65.0,83.0 L 62.0,86.0 L 58.0,85.0 L 57.0,84.0 L 57.0,79.0 L 59.0,77.0" fill="#131313"/>
</svg>
