<?xml version="1.0" ?>
<svg baseProfile="full" height="600px" version="1.1" viewBox="-16.08 -16.08 192.16 192.16" width="600px" xmlns="http://www.w3.org/2000/svg" xmlns:ev="http://www.w3.org/2001/xml-events" xmlns:xlink="http://www.w3.org/1999/xlink">
	<defs/>
	<path d="M 0.0,0.0 L 160.0,0.0 L 160.0,160.0 L 0.0,160.0 L 0.0,0.0" fill="#FCFDFD"/>
	<path d="M 87.0,4.0 L 88.0,4.0 L 88.0,156.0 L 80.0,150.0 L 65.0,137.0 L 54.0,128.0 L 41.0,117.0 L 36.0,113.0 L 12.0,112.0 L 5.0,106.0 L 4.0,103.0 L 4.0,56.0 L 7.0,51.0 L 12.0,48.0 L 37.0,47.0 L 48.0,37.0 L 59.0,28.0 L 74.0,15.0 L 85.0,6.0 L 87.0,4.0" fill="#AEBFD2"/>
	<path d="M 87.0,4.0 L 88.0,4.0 L 88.0,156.0 L 80.0,150.0 L 65.0,137.0 L 54.0,128.0 L 41.0,117.0 L 36.0,113.0 L 12.0,112.0 L 5.0,106.0 L 4.0,103.0 L 4.0,56.0 L 7.0,51.0 L 12.0,48.0 L 37.0,47.0 L 48.0,37.0 L 59.0,28.0 L 74.0,15.0 L 85.0,6.0 L 87.0,4.0 M 83.0,13.0 L 68.0,26.0 L 54.0,38.0 L 43.0,47.0 L 40.0,50.0 L 40.0,111.0 L 55.0,124.0 L 66.0,133.0 L 79.0,144.0 L 84.0,147.0 L 84.0,13.0 L 83.0,13.0" fill="#697B91"/>
	<path d="M 13.0,52.0 L 36.0,52.0 L 36.0,108.0 L 13.0,108.0 L 9.0,105.0 L 8.0,102.0 L 8.0,57.0 L 13.0,52.0" fill="#AEBFD2"/>
	<path d="M 108.0,16.0 L 115.0,17.0 L 126.0,23.0 L 137.0,32.0 L 145.0,42.0 L 153.0,58.0 L 156.0,73.0 L 156.0,90.0 L 151.0,107.0 L 145.0,118.0 L 136.0,129.0 L 126.0,137.0 L 112.0,144.0 L 108.0,144.0 L 108.0,140.0 L 120.0,135.0 L 132.0,126.0 L 139.0,118.0 L 146.0,106.0 L 151.0,89.0 L 151.0,72.0 L 147.0,56.0 L 139.0,42.0 L 130.0,32.0 L 120.0,25.0 L 108.0,19.0 L 108.0,16.0" fill="#92BBF0"/>
	<path d="M 103.0,33.0 L 111.0,36.0 L 120.0,43.0 L 128.0,52.0 L 134.0,64.0 L 136.0,71.0 L 136.0,86.0 L 134.0,95.0 L 130.0,105.0 L 123.0,114.0 L 114.0,122.0 L 104.0,127.0 L 102.0,123.0 L 114.0,116.0 L 123.0,107.0 L 129.0,95.0 L 131.0,85.0 L 131.0,72.0 L 127.0,60.0 L 121.0,51.0 L 114.0,44.0 L 102.0,37.0 L 103.0,33.0" fill="#92BBF0"/>
	<path d="M 96.0,54.0 L 102.0,55.0 L 111.0,63.0 L 115.0,70.0 L 116.0,75.0 L 116.0,86.0 L 112.0,95.0 L 105.0,103.0 L 100.0,106.0 L 96.0,106.0 L 96.0,102.0 L 103.0,98.0 L 109.0,91.0 L 111.0,85.0 L 111.0,74.0 L 106.0,65.0 L 100.0,60.0 L 96.0,57.0 L 96.0,54.0" fill="#92BBF0"/>
</svg>
