<?xml version="1.0" ?>
<svg baseProfile="full" height="600px" version="1.1" viewBox="-12.864 -12.864 153.728 153.728" width="600px" xmlns="http://www.w3.org/2000/svg" xmlns:ev="http://www.w3.org/2001/xml-events" xmlns:xlink="http://www.w3.org/1999/xlink">
	<defs/>
	<path d="M 0.0,0.0 L 128.0,0.0 L 128.0,128.0 L 0.0,128.0 L 0.0,0.0" fill="#FCFCFC"/>
	<path d="M 14.0,9.0 L 16.0,9.0 L 23.0,17.0 L 41.0,35.0 L 45.0,33.0 L 59.0,19.0 L 60.0,19.0 L 60.0,109.0 L 53.0,103.0 L 35.0,85.0 L 16.0,84.0 L 16.0,44.0 L 27.0,44.0 L 34.0,50.0 L 34.0,52.0 L 24.0,52.0 L 24.0,76.0 L 38.0,76.0 L 51.0,89.0 L 51.0,39.0 L 44.0,47.0 L 40.0,46.0 L 9.0,15.0 L 14.0,9.0" fill="#020202"/>
	<path d="M 95.0,26.0 L 98.0,26.0 L 105.0,36.0 L 110.0,47.0 L 112.0,56.0 L 112.0,70.0 L 108.0,86.0 L 102.0,97.0 L 98.0,102.0 L 94.0,101.0 L 91.0,98.0 L 93.0,94.0 L 99.0,84.0 L 103.0,73.0 L 103.0,56.0 L 100.0,46.0 L 95.0,37.0 L 91.0,32.0 L 93.0,28.0 L 95.0,26.0" fill="#090909"/>
	<path d="M 84.0,37.0 L 88.0,39.0 L 93.0,48.0 L 96.0,56.0 L 96.0,70.0 L 93.0,80.0 L 87.0,90.0 L 83.0,90.0 L 80.0,87.0 L 81.0,83.0 L 86.0,73.0 L 87.0,69.0 L 87.0,57.0 L 81.0,45.0 L 80.0,41.0 L 84.0,37.0" fill="#0A0A0A"/>
	<path d="M 73.0,48.0 L 75.0,48.0 L 80.0,58.0 L 80.0,69.0 L 76.0,78.0 L 72.0,79.0 L 69.0,76.0 L 70.0,70.0 L 71.0,68.0 L 71.0,60.0 L 68.0,55.0 L 70.0,51.0 L 73.0,48.0" fill="#0E0E0E"/>
</svg>
