<?xml version="1.0" ?>
<svg baseProfile="full" height="600px" version="1.1" viewBox="-9.648000000000001 -9.648000000000001 115.296 115.296" width="600px" xmlns="http://www.w3.org/2000/svg" xmlns:ev="http://www.w3.org/2001/xml-events" xmlns:xlink="http://www.w3.org/1999/xlink">
	<defs/>
	<path d="M 0.0,0.0 L 96.0,0.0 L 96.0,96.0 L 0.0,96.0 L 0.0,0.0" fill="#FCFCFC"/>
	<path d="M 13.0,10.0 L 17.0,11.0 L 75.0,69.0 L 73.0,73.0 L 71.0,75.0 L 66.0,76.0 L 9.0,76.0 L 4.0,71.0 L 4.0,25.0 L 9.0,20.0 L 13.0,19.0 L 10.0,16.0 L 11.0,12.0 L 13.0,10.0" fill="#010101"/>
	<path d="M 37.0,20.0 L 67.0,20.0 L 72.0,25.0 L 73.0,38.0 L 87.0,27.0 L 92.0,24.0 L 92.0,72.0 L 86.0,68.0 L 73.0,57.0 L 37.0,21.0 L 37.0,20.0" fill="#040404"/>
</svg>
