<?xml version="1.0" ?>
<svg baseProfile="full" height="600px" version="1.1" viewBox="-20.1 -20.1 240.2 240.2" width="600px" xmlns="http://www.w3.org/2000/svg" xmlns:ev="http://www.w3.org/2001/xml-events" xmlns:xlink="http://www.w3.org/1999/xlink">
	<defs/>
	<path d="M 0.0,0.0 L 200.0,0.0 L 200.0,200.0 L 0.0,200.0 L 0.0,0.0" fill="#FCFCFC"/>
	<path d="M 32.0,30.0 L 37.0,31.0 L 41.0,35.0 L 133.0,36.0 L 141.0,40.0 L 147.0,48.0 L 148.0,51.0 L 149.0,76.0 L 172.0,64.0 L 194.0,52.0 L 200.0,50.0 L 200.0,200.0 L 194.0,200.0 L 30.0,36.0 L 31.0,31.0 L 32.0,30.0" fill="#030303"/>
	<path d="M 50.0,44.0 L 131.0,44.0 L 136.0,47.0 L 140.0,52.0 L 140.0,134.0 L 133.0,128.0 L 50.0,45.0 L 50.0,44.0" fill="#FBFBFB"/>
	<path d="M 191.0,63.0 L 192.0,63.0 L 192.0,137.0 L 176.0,129.0 L 153.0,117.0 L 148.0,114.0 L 148.0,86.0 L 176.0,71.0 L 191.0,63.0" fill="#FCFCFC"/>
	<path d="M 15.0,36.0 L 26.0,36.0 L 26.0,44.0 L 16.0,45.0 L 10.0,50.0 L 9.0,52.0 L 9.0,148.0 L 14.0,154.0 L 16.0,155.0 L 132.0,155.0 L 136.0,154.0 L 140.0,158.0 L 138.0,162.0 L 133.0,164.0 L 15.0,164.0 L 7.0,160.0 L 1.0,152.0 L 0.0,149.0 L 0.0,51.0 L 4.0,43.0 L 12.0,37.0 L 15.0,36.0" fill="#020202"/>
	<path d="M 148.0,123.0 L 164.0,131.0 L 187.0,143.0 L 200.0,150.0 L 200.0,194.0 L 193.0,188.0 L 148.0,143.0 L 148.0,123.0" fill="#FAFAFA"/>
</svg>
