<?xml version="1.0" ?>
<svg baseProfile="full" height="600px" version="1.1" viewBox="-16.08 -16.08 192.16 192.16" width="600px" xmlns="http://www.w3.org/2000/svg" xmlns:ev="http://www.w3.org/2001/xml-events" xmlns:xlink="http://www.w3.org/1999/xlink">
	<defs/>
	<path d="M 0.0,0.0 L 160.0,0.0 L 160.0,160.0 L 0.0,160.0 L 0.0,0.0" fill="#B8DEBB"/>
	<path d="M 0.0,0.0 L 160.0,0.0 L 160.0,160.0 L 0.0,160.0 L 0.0,0.0 M 12.0,11.0 L 12.0,15.0 L 27.0,30.0 L 28.0,32.0 L 19.0,33.0 L 13.0,37.0 L 6.0,45.0 L 4.0,50.0 L 4.0,109.0 L 8.0,118.0 L 17.0,126.0 L 22.0,128.0 L 105.0,128.0 L 114.0,124.0 L 121.0,117.0 L 124.0,109.0 L 125.0,99.0 L 152.0,114.0 L 156.0,116.0 L 156.0,44.0 L 144.0,50.0 L 127.0,60.0 L 125.0,61.0 L 124.0,50.0 L 120.0,42.0 L 113.0,35.0 L 105.0,32.0 L 34.0,31.0 L 14.0,11.0 L 12.0,11.0" fill="#FCFDFD"/>
	<path d="M 12.0,11.0 L 16.0,13.0 L 34.0,31.0 L 105.0,32.0 L 114.0,36.0 L 121.0,43.0 L 124.0,50.0 L 125.0,61.0 L 143.0,51.0 L 155.0,44.0 L 156.0,44.0 L 156.0,116.0 L 145.0,110.0 L 125.0,99.0 L 123.0,112.0 L 120.0,118.0 L 113.0,125.0 L 105.0,128.0 L 22.0,128.0 L 14.0,124.0 L 6.0,115.0 L 4.0,109.0 L 4.0,50.0 L 8.0,42.0 L 15.0,35.0 L 22.0,32.0 L 28.0,32.0 L 21.0,24.0 L 11.0,14.0 L 12.0,11.0 M 23.0,36.0 L 14.0,41.0 L 9.0,48.0 L 8.0,51.0 L 8.0,108.0 L 11.0,115.0 L 16.0,120.0 L 21.0,123.0 L 23.0,124.0 L 104.0,124.0 L 111.0,121.0 L 116.0,117.0 L 120.0,109.0 L 120.0,51.0 L 116.0,43.0 L 110.0,38.0 L 104.0,36.0 L 40.0,36.0 L 42.0,40.0 L 80.0,78.0 L 80.0,80.0 L 76.0,78.0 L 34.0,36.0 L 23.0,36.0" fill="#619C78"/>
	<path d="M 151.0,51.0 L 152.0,51.0 L 152.0,109.0 L 142.0,104.0 L 125.0,94.0 L 124.0,93.0 L 124.0,67.0 L 137.0,59.0 L 151.0,51.0" fill="#B8DEBB"/>
	<path d="M 12.0,11.0 L 16.0,13.0 L 81.0,78.0 L 80.0,81.0 L 76.0,79.0 L 11.0,14.0 L 12.0,11.0" fill="#37414E"/>
</svg>
