<?xml version="1.0" ?>
<svg baseProfile="full" height="600px" version="1.1" viewBox="-12.864 -12.864 153.728 153.728" width="600px" xmlns="http://www.w3.org/2000/svg" xmlns:ev="http://www.w3.org/2001/xml-events" xmlns:xlink="http://www.w3.org/1999/xlink">
	<defs/>
	<path d="M 0.0,0.0 L 128.0,0.0 L 128.0,128.0 L 0.0,128.0 L 0.0,0.0" fill="#FCFCFC"/>
	<path d="M 8.0,32.0 L 96.0,32.0 L 96.0,45.0 L 118.0,34.0 L 120.0,34.0 L 120.0,94.0 L 114.0,92.0 L 96.0,83.0 L 97.0,91.0 L 118.0,112.0 L 117.0,116.0 L 115.0,118.0 L 111.0,117.0 L 62.0,68.0 L 63.0,64.0 L 65.0,62.0 L 69.0,63.0 L 87.0,81.0 L 88.0,40.0 L 16.0,40.0 L 16.0,88.0 L 71.0,88.0 L 78.0,95.0 L 78.0,96.0 L 8.0,96.0 L 8.0,32.0" fill="#010101"/>
	<path d="M 110.0,47.0 L 112.0,47.0 L 112.0,81.0 L 106.0,79.0 L 96.0,74.0 L 96.0,54.0 L 110.0,47.0" fill="#F9F9F9"/>
</svg>
