<?xml version="1.0" ?>
<svg baseProfile="full" height="600px" version="1.1" viewBox="-20.1 -20.1 240.2 240.2" width="600px" xmlns="http://www.w3.org/2000/svg" xmlns:ev="http://www.w3.org/2001/xml-events" xmlns:xlink="http://www.w3.org/1999/xlink">
	<defs/>
	<path d="M 0.0,0.0 L 200.0,0.0 L 200.0,200.0 L 0.0,200.0 L 0.0,0.0" fill="#FDFDFD"/>
	<path d="M 0.0,0.0 L 6.0,0.0 L 8.0,2.0 L 8.0,192.0 L 24.0,188.0 L 30.0,184.0 L 38.0,175.0 L 44.0,163.0 L 49.0,148.0 L 53.0,134.0 L 58.0,113.0 L 62.0,97.0 L 69.0,81.0 L 76.0,70.0 L 83.0,64.0 L 91.0,60.0 L 94.0,59.0 L 106.0,59.0 L 118.0,65.0 L 124.0,70.0 L 131.0,81.0 L 137.0,95.0 L 143.0,116.0 L 148.0,137.0 L 152.0,152.0 L 158.0,168.0 L 164.0,178.0 L 169.0,183.0 L 174.0,187.0 L 184.0,191.0 L 198.0,192.0 L 200.0,194.0 L 200.0,200.0 L 0.0,200.0 L 0.0,0.0" fill="#FCFCFC"/>
	<path d="M 0.0,0.0 L 6.0,0.0 L 8.0,2.0 L 8.0,192.0 L 24.0,188.0 L 30.0,184.0 L 38.0,175.0 L 44.0,163.0 L 49.0,148.0 L 53.0,134.0 L 58.0,113.0 L 62.0,97.0 L 69.0,81.0 L 76.0,70.0 L 83.0,64.0 L 91.0,60.0 L 94.0,59.0 L 106.0,59.0 L 118.0,65.0 L 124.0,70.0 L 131.0,81.0 L 137.0,95.0 L 143.0,116.0 L 148.0,137.0 L 152.0,152.0 L 158.0,168.0 L 164.0,178.0 L 169.0,183.0 L 174.0,187.0 L 184.0,191.0 L 198.0,192.0 L 200.0,194.0 L 200.0,200.0 L 0.0,200.0 L 0.0,0.0 M 92.0,67.0 L 85.0,71.0 L 79.0,78.0 L 73.0,90.0 L 67.0,112.0 L 62.0,133.0 L 58.0,148.0 L 51.0,167.0 L 45.0,178.0 L 36.0,188.0 L 32.0,192.0 L 167.0,192.0 L 161.0,185.0 L 155.0,178.0 L 147.0,163.0 L 142.0,150.0 L 136.0,127.0 L 131.0,104.0 L 124.0,83.0 L 118.0,74.0 L 112.0,69.0 L 107.0,67.0 L 92.0,67.0" fill="#040404"/>
</svg>
