<?xml version="1.0" ?>
<svg baseProfile="full" height="600px" version="1.1" viewBox="-19.296000000000003 -19.296000000000003 230.592 230.592" width="600px" xmlns="http://www.w3.org/2000/svg" xmlns:ev="http://www.w3.org/2001/xml-events" xmlns:xlink="http://www.w3.org/1999/xlink">
	<defs/>
	<path d="M 0.0,0.0 L 192.0,0.0 L 192.0,192.0 L 0.0,192.0 L 0.0,0.0" fill="#BADDFA"/>
	<path d="M 0.0,0.0 L 192.0,0.0 L 192.0,192.0 L 0.0,192.0 L 0.0,0.0 M 86.0,16.0 L 72.0,19.0 L 56.0,26.0 L 45.0,34.0 L 35.0,43.0 L 28.0,53.0 L 20.0,69.0 L 17.0,79.0 L 16.0,88.0 L 16.0,105.0 L 19.0,120.0 L 26.0,136.0 L 34.0,147.0 L 40.0,154.0 L 50.0,162.0 L 60.0,168.0 L 72.0,173.0 L 86.0,176.0 L 104.0,176.0 L 119.0,173.0 L 132.0,168.0 L 142.0,162.0 L 155.0,151.0 L 164.0,139.0 L 171.0,125.0 L 175.0,111.0 L 176.0,106.0 L 176.0,89.0 L 172.0,69.0 L 164.0,53.0 L 157.0,44.0 L 151.0,37.0 L 139.0,28.0 L 123.0,20.0 L 105.0,16.0 L 86.0,16.0" fill="#FDFEFE"/>
	<path d="M 101.0,64.0 L 111.0,64.0 L 111.0,75.0 L 110.0,76.0 L 100.0,78.0 L 95.0,81.0 L 92.0,86.0 L 92.0,88.0 L 98.0,85.0 L 106.0,85.0 L 114.0,89.0 L 119.0,96.0 L 120.0,99.0 L 120.0,112.0 L 116.0,120.0 L 109.0,126.0 L 104.0,128.0 L 92.0,128.0 L 84.0,123.0 L 79.0,117.0 L 77.0,114.0 L 76.0,109.0 L 76.0,90.0 L 80.0,80.0 L 84.0,74.0 L 91.0,68.0 L 101.0,64.0" fill="#1D79D3"/>
	<path d="M 95.0,96.0 L 102.0,97.0 L 105.0,101.0 L 106.0,109.0 L 103.0,115.0 L 100.0,117.0 L 95.0,117.0 L 91.0,113.0 L 90.0,110.0 L 90.0,100.0 L 95.0,96.0" fill="#B3D9F9"/>
</svg>
