<?xml version="1.0" ?>
<svg baseProfile="full" height="600px" version="1.1" viewBox="-20.1 -20.1 240.2 240.2" width="600px" xmlns="http://www.w3.org/2000/svg" xmlns:ev="http://www.w3.org/2001/xml-events" xmlns:xlink="http://www.w3.org/1999/xlink">
	<defs/>
	<path d="M 0.0,0.0 L 200.0,0.0 L 200.0,200.0 L 0.0,200.0 L 0.0,0.0" fill="#FDFDFD"/>
	<path d="M 158.0,32.0 L 163.0,33.0 L 164.0,34.0 L 165.0,153.0 L 194.0,124.0 L 199.0,125.0 L 199.0,131.0 L 161.0,169.0 L 157.0,167.0 L 121.0,131.0 L 121.0,125.0 L 126.0,124.0 L 155.0,153.0 L 156.0,34.0 L 158.0,32.0" fill="#020202"/>
	<path d="M 47.0,41.0 L 53.0,41.0 L 58.0,45.0 L 59.0,52.0 L 53.0,59.0 L 47.0,63.0 L 46.0,65.0 L 59.0,65.0 L 59.0,69.0 L 40.0,69.0 L 41.0,63.0 L 50.0,55.0 L 53.0,52.0 L 53.0,47.0 L 48.0,46.0 L 46.0,52.0 L 41.0,52.0 L 42.0,45.0 L 47.0,41.0" fill="#171717"/>
	<path d="M 33.0,90.0 L 36.0,90.0 L 36.0,116.0 L 32.0,116.0 L 32.0,98.0 L 25.0,98.0 L 25.0,94.0 L 32.0,91.0 L 33.0,90.0" fill="#070707"/>
</svg>
