<?xml version="1.0" ?>
<svg baseProfile="full" height="600px" version="1.1" viewBox="-20.1 -20.1 240.2 240.2" width="600px" xmlns="http://www.w3.org/2000/svg" xmlns:ev="http://www.w3.org/2001/xml-events" xmlns:xlink="http://www.w3.org/1999/xlink">
	<defs/>
	<path d="M 0.0,0.0 L 200.0,0.0 L 200.0,200.0 L 0.0,200.0 L 0.0,0.0" fill="#FDFDFD"/>
	<path d="M 158.0,32.0 L 163.0,33.0 L 164.0,34.0 L 165.0,153.0 L 194.0,124.0 L 199.0,125.0 L 199.0,131.0 L 161.0,169.0 L 157.0,167.0 L 121.0,131.0 L 121.0,125.0 L 126.0,124.0 L 155.0,153.0 L 156.0,34.0 L 158.0,32.0" fill="#020202"/>
	<path d="M 35.0,120.0 L 45.0,120.0 L 54.0,124.0 L 59.0,129.0 L 62.0,135.0 L 62.0,146.0 L 57.0,156.0 L 48.0,164.0 L 36.0,172.0 L 31.0,177.0 L 30.0,179.0 L 62.0,179.0 L 62.0,189.0 L 16.0,189.0 L 17.0,180.0 L 21.0,172.0 L 29.0,164.0 L 41.0,156.0 L 47.0,151.0 L 50.0,145.0 L 50.0,136.0 L 45.0,131.0 L 35.0,131.0 L 31.0,135.0 L 29.0,146.0 L 18.0,146.0 L 18.0,137.0 L 22.0,129.0 L 30.0,122.0 L 35.0,120.0" fill="#070707"/>
	<path d="M 45.0,7.0 L 54.0,7.0 L 54.0,74.0 L 42.0,74.0 L 42.0,26.0 L 26.0,26.0 L 26.0,18.0 L 38.0,15.0 L 43.0,11.0 L 45.0,7.0" fill="#020202"/>
</svg>
