<?xml version="1.0" ?>
<svg baseProfile="full" height="600px" version="1.1" viewBox="-20.1 -20.1 240.2 240.2" width="600px" xmlns="http://www.w3.org/2000/svg" xmlns:ev="http://www.w3.org/2001/xml-events" xmlns:xlink="http://www.w3.org/1999/xlink">
	<defs/>
	<path d="M 0.0,0.0 L 200.0,0.0 L 200.0,200.0 L 0.0,200.0 L 0.0,0.0" fill="#FCFCFC"/>
	<path d="M 106.0,5.0 L 115.0,6.0 L 122.0,12.0 L 123.0,14.0 L 124.0,48.0 L 128.0,40.0 L 137.0,13.0 L 143.0,8.0 L 145.0,7.0 L 154.0,7.0 L 160.0,11.0 L 163.0,15.0 L 163.0,26.0 L 157.0,46.0 L 151.0,61.0 L 148.0,68.0 L 157.0,57.0 L 165.0,47.0 L 171.0,43.0 L 179.0,43.0 L 185.0,46.0 L 189.0,52.0 L 189.0,62.0 L 182.0,73.0 L 168.0,93.0 L 159.0,106.0 L 158.0,110.0 L 158.0,125.0 L 162.0,130.0 L 166.0,132.0 L 168.0,135.0 L 169.0,161.0 L 169.0,188.0 L 167.0,190.0 L 144.0,190.0 L 118.0,181.0 L 92.0,170.0 L 73.0,162.0 L 62.0,154.0 L 57.0,150.0 L 46.0,133.0 L 40.0,121.0 L 30.0,97.0 L 31.0,92.0 L 37.0,89.0 L 42.0,88.0 L 51.0,88.0 L 59.0,92.0 L 65.0,99.0 L 75.0,118.0 L 80.0,120.0 L 83.0,115.0 L 82.0,98.0 L 70.0,76.0 L 53.0,47.0 L 53.0,37.0 L 57.0,31.0 L 62.0,28.0 L 71.0,28.0 L 78.0,33.0 L 87.0,48.0 L 93.0,59.0 L 95.0,45.0 L 96.0,14.0 L 102.0,7.0 L 106.0,5.0" fill="#FBFBFB"/>
	<path d="M 106.0,5.0 L 115.0,6.0 L 122.0,12.0 L 123.0,14.0 L 124.0,48.0 L 128.0,40.0 L 137.0,13.0 L 143.0,8.0 L 145.0,7.0 L 154.0,7.0 L 160.0,11.0 L 163.0,15.0 L 163.0,26.0 L 157.0,46.0 L 151.0,61.0 L 148.0,68.0 L 157.0,57.0 L 165.0,47.0 L 171.0,43.0 L 179.0,43.0 L 185.0,46.0 L 189.0,52.0 L 189.0,62.0 L 182.0,73.0 L 168.0,93.0 L 159.0,106.0 L 158.0,110.0 L 158.0,125.0 L 162.0,130.0 L 166.0,132.0 L 168.0,135.0 L 169.0,161.0 L 169.0,188.0 L 167.0,190.0 L 144.0,190.0 L 118.0,181.0 L 92.0,170.0 L 73.0,162.0 L 62.0,154.0 L 57.0,150.0 L 46.0,133.0 L 40.0,121.0 L 30.0,97.0 L 31.0,92.0 L 37.0,89.0 L 42.0,88.0 L 51.0,88.0 L 59.0,92.0 L 65.0,99.0 L 75.0,118.0 L 80.0,120.0 L 83.0,115.0 L 82.0,98.0 L 70.0,76.0 L 53.0,47.0 L 53.0,37.0 L 57.0,31.0 L 62.0,28.0 L 71.0,28.0 L 78.0,33.0 L 87.0,48.0 L 93.0,59.0 L 95.0,45.0 L 96.0,14.0 L 102.0,7.0 L 106.0,5.0 M 108.0,13.0 L 104.0,16.0 L 103.0,45.0 L 99.0,76.0 L 94.0,77.0 L 86.0,63.0 L 77.0,47.0 L 70.0,37.0 L 64.0,36.0 L 61.0,39.0 L 61.0,45.0 L 78.0,74.0 L 90.0,96.0 L 91.0,107.0 L 91.0,117.0 L 83.0,131.0 L 78.0,130.0 L 69.0,123.0 L 67.0,123.0 L 65.0,117.0 L 56.0,100.0 L 50.0,96.0 L 42.0,96.0 L 40.0,97.0 L 41.0,102.0 L 51.0,126.0 L 62.0,143.0 L 71.0,151.0 L 81.0,157.0 L 118.0,172.0 L 142.0,181.0 L 146.0,182.0 L 160.0,182.0 L 160.0,138.0 L 153.0,133.0 L 150.0,127.0 L 150.0,109.0 L 152.0,102.0 L 164.0,85.0 L 180.0,61.0 L 181.0,60.0 L 181.0,54.0 L 178.0,51.0 L 171.0,52.0 L 163.0,62.0 L 150.0,78.0 L 142.0,88.0 L 137.0,88.0 L 134.0,83.0 L 135.0,76.0 L 148.0,48.0 L 154.0,29.0 L 155.0,24.0 L 155.0,17.0 L 152.0,15.0 L 145.0,16.0 L 139.0,32.0 L 134.0,47.0 L 120.0,73.0 L 118.0,75.0 L 114.0,74.0 L 114.0,63.0 L 115.0,54.0 L 115.0,16.0 L 111.0,13.0 L 108.0,13.0" fill="#080808"/>
</svg>
