<?xml version="1.0" ?>
<svg baseProfile="full" height="600px" version="1.1" viewBox="-12.06 -12.06 144.12 144.12" width="600px" xmlns="http://www.w3.org/2000/svg" xmlns:ev="http://www.w3.org/2001/xml-events" xmlns:xlink="http://www.w3.org/1999/xlink">
	<defs/>
	<path d="M 0.0,0.0 L 120.0,0.0 L 120.0,120.0 L 0.0,120.0 L 0.0,0.0" fill="#FCFCFC"/>
	<path d="M 57.0,8.0 L 62.0,9.0 L 68.0,17.0 L 76.0,31.0 L 78.0,43.0 L 78.0,49.0 L 80.0,49.0 L 85.0,24.0 L 87.0,15.0 L 90.0,12.0 L 96.0,12.0 L 99.0,15.0 L 99.0,22.0 L 96.0,38.0 L 92.0,51.0 L 92.0,72.0 L 104.0,72.0 L 104.0,104.0 L 49.0,104.0 L 40.0,101.0 L 33.0,95.0 L 19.0,70.0 L 19.0,65.0 L 22.0,63.0 L 29.0,63.0 L 35.0,67.0 L 42.0,77.0 L 44.0,79.0 L 50.0,79.0 L 51.0,77.0 L 51.0,66.0 L 46.0,61.0 L 36.0,53.0 L 23.0,45.0 L 21.0,43.0 L 21.0,36.0 L 24.0,34.0 L 31.0,35.0 L 44.0,43.0 L 51.0,48.0 L 46.0,41.0 L 31.0,30.0 L 28.0,27.0 L 29.0,20.0 L 32.0,18.0 L 38.0,19.0 L 51.0,29.0 L 59.0,36.0 L 65.0,47.0 L 63.0,34.0 L 53.0,17.0 L 54.0,10.0 L 57.0,8.0" fill="#030303"/>
</svg>
