<?xml version="1.0" ?>
<svg baseProfile="full" height="600px" version="1.1" viewBox="-20.1 -20.1 240.2 240.2" width="600px" xmlns="http://www.w3.org/2000/svg" xmlns:ev="http://www.w3.org/2001/xml-events" xmlns:xlink="http://www.w3.org/1999/xlink">
	<defs/>
	<path d="M 0.0,0.0 L 200.0,0.0 L 200.0,200.0 L 0.0,200.0 L 0.0,0.0" fill="#FCFCFC"/>
	<path d="M 109.0,6.0 L 120.0,6.0 L 127.0,12.0 L 128.0,14.0 L 128.0,49.0 L 135.0,33.0 L 141.0,16.0 L 145.0,11.0 L 150.0,8.0 L 157.0,8.0 L 163.0,11.0 L 168.0,17.0 L 168.0,27.0 L 158.0,55.0 L 150.0,71.0 L 162.0,57.0 L 171.0,47.0 L 175.0,45.0 L 182.0,45.0 L 188.0,48.0 L 192.0,53.0 L 193.0,55.0 L 193.0,62.0 L 189.0,70.0 L 174.0,90.0 L 160.0,109.0 L 158.0,115.0 L 158.0,125.0 L 162.0,130.0 L 166.0,132.0 L 168.0,135.0 L 169.0,161.0 L 169.0,188.0 L 167.0,190.0 L 144.0,190.0 L 121.0,182.0 L 95.0,171.0 L 75.0,162.0 L 64.0,154.0 L 59.0,150.0 L 52.0,140.0 L 44.0,126.0 L 35.0,101.0 L 32.0,94.0 L 33.0,89.0 L 42.0,86.0 L 53.0,86.0 L 61.0,90.0 L 66.0,96.0 L 75.0,115.0 L 80.0,119.0 L 82.0,120.0 L 84.0,115.0 L 85.0,108.0 L 84.0,97.0 L 70.0,69.0 L 57.0,46.0 L 57.0,35.0 L 63.0,28.0 L 65.0,27.0 L 75.0,27.0 L 80.0,30.0 L 84.0,35.0 L 96.0,57.0 L 99.0,45.0 L 100.0,16.0 L 104.0,9.0 L 109.0,6.0" fill="#FBFBFB"/>
	<path d="M 109.0,6.0 L 120.0,6.0 L 127.0,12.0 L 128.0,14.0 L 128.0,49.0 L 135.0,33.0 L 141.0,16.0 L 145.0,11.0 L 150.0,8.0 L 157.0,8.0 L 163.0,11.0 L 168.0,17.0 L 168.0,27.0 L 158.0,55.0 L 150.0,71.0 L 162.0,57.0 L 171.0,47.0 L 175.0,45.0 L 182.0,45.0 L 188.0,48.0 L 192.0,53.0 L 193.0,55.0 L 193.0,62.0 L 189.0,70.0 L 174.0,90.0 L 160.0,109.0 L 158.0,115.0 L 158.0,125.0 L 162.0,130.0 L 166.0,132.0 L 168.0,135.0 L 169.0,161.0 L 169.0,188.0 L 167.0,190.0 L 144.0,190.0 L 121.0,182.0 L 95.0,171.0 L 75.0,162.0 L 64.0,154.0 L 59.0,150.0 L 52.0,140.0 L 44.0,126.0 L 35.0,101.0 L 32.0,94.0 L 33.0,89.0 L 42.0,86.0 L 53.0,86.0 L 61.0,90.0 L 66.0,96.0 L 75.0,115.0 L 80.0,119.0 L 82.0,120.0 L 84.0,115.0 L 85.0,108.0 L 84.0,97.0 L 70.0,69.0 L 57.0,46.0 L 57.0,35.0 L 63.0,28.0 L 65.0,27.0 L 75.0,27.0 L 80.0,30.0 L 84.0,35.0 L 96.0,57.0 L 99.0,45.0 L 100.0,16.0 L 104.0,9.0 L 109.0,6.0 M 111.0,14.0 L 108.0,17.0 L 107.0,46.0 L 102.0,75.0 L 101.0,77.0 L 96.0,76.0 L 85.0,53.0 L 75.0,36.0 L 74.0,35.0 L 67.0,35.0 L 65.0,37.0 L 65.0,43.0 L 83.0,77.0 L 92.0,95.0 L 93.0,115.0 L 85.0,129.0 L 80.0,130.0 L 69.0,121.0 L 58.0,98.0 L 52.0,94.0 L 43.0,94.0 L 42.0,97.0 L 52.0,124.0 L 63.0,142.0 L 73.0,151.0 L 83.0,157.0 L 113.0,170.0 L 139.0,180.0 L 146.0,182.0 L 160.0,182.0 L 160.0,138.0 L 153.0,133.0 L 150.0,127.0 L 150.0,114.0 L 153.0,105.0 L 167.0,86.0 L 181.0,67.0 L 185.0,61.0 L 184.0,55.0 L 181.0,53.0 L 175.0,54.0 L 162.0,69.0 L 149.0,84.0 L 145.0,89.0 L 140.0,89.0 L 137.0,85.0 L 137.0,78.0 L 147.0,59.0 L 153.0,46.0 L 160.0,25.0 L 160.0,19.0 L 156.0,16.0 L 151.0,17.0 L 147.0,23.0 L 139.0,46.0 L 123.0,73.0 L 123.0,75.0 L 117.0,75.0 L 117.0,64.0 L 120.0,46.0 L 120.0,16.0 L 118.0,14.0 L 111.0,14.0" fill="#080808"/>
</svg>
