<?xml version="1.0" ?>
<svg baseProfile="full" height="600px" version="1.1" viewBox="-12.06 -12.06 144.12 144.12" width="600px" xmlns="http://www.w3.org/2000/svg" xmlns:ev="http://www.w3.org/2001/xml-events" xmlns:xlink="http://www.w3.org/1999/xlink">
	<defs/>
	<path d="M 0.0,0.0 L 120.0,0.0 L 120.0,120.0 L 0.0,120.0 L 0.0,0.0" fill="#FBFBFB"/>
	<path d="M 73.0,3.0 L 78.0,3.0 L 82.0,7.0 L 83.0,20.0 L 84.0,46.0 L 88.0,34.0 L 92.0,14.0 L 95.0,11.0 L 100.0,11.0 L 104.0,15.0 L 103.0,25.0 L 99.0,42.0 L 95.0,54.0 L 94.0,72.0 L 104.0,72.0 L 104.0,104.0 L 57.0,104.0 L 47.0,102.0 L 39.0,97.0 L 33.0,87.0 L 21.0,63.0 L 21.0,58.0 L 22.0,57.0 L 31.0,57.0 L 38.0,63.0 L 44.0,74.0 L 45.0,77.0 L 50.0,77.0 L 51.0,76.0 L 51.0,63.0 L 39.0,44.0 L 32.0,37.0 L 25.0,28.0 L 25.0,23.0 L 28.0,20.0 L 34.0,20.0 L 42.0,28.0 L 49.0,36.0 L 58.0,50.0 L 52.0,29.0 L 47.0,14.0 L 48.0,8.0 L 51.0,6.0 L 57.0,7.0 L 61.0,15.0 L 69.0,40.0 L 70.0,45.0 L 70.0,6.0 L 73.0,3.0" fill="#030303"/>
</svg>
