<?xml version="1.0" ?>
<svg baseProfile="full" height="600px" version="1.1" viewBox="-20.1 -20.1 240.2 240.2" width="600px" xmlns="http://www.w3.org/2000/svg" xmlns:ev="http://www.w3.org/2001/xml-events" xmlns:xlink="http://www.w3.org/1999/xlink">
	<defs/>
	<path d="M 0.0,0.0 L 200.0,0.0 L 200.0,200.0 L 0.0,200.0 L 0.0,0.0" fill="#FCFCFC"/>
	<path d="M 84.0,8.0 L 93.0,8.0 L 100.0,13.0 L 111.0,27.0 L 122.0,40.0 L 124.0,49.0 L 125.0,37.0 L 130.0,30.0 L 135.0,27.0 L 142.0,27.0 L 148.0,30.0 L 152.0,35.0 L 153.0,37.0 L 153.0,49.0 L 151.0,102.0 L 160.0,114.0 L 167.0,121.0 L 168.0,123.0 L 168.0,189.0 L 166.0,191.0 L 158.0,190.0 L 136.0,183.0 L 124.0,181.0 L 105.0,181.0 L 91.0,184.0 L 79.0,184.0 L 69.0,179.0 L 54.0,168.0 L 49.0,163.0 L 32.0,129.0 L 31.0,123.0 L 36.0,120.0 L 44.0,117.0 L 52.0,117.0 L 61.0,121.0 L 67.0,128.0 L 73.0,138.0 L 73.0,140.0 L 82.0,142.0 L 89.0,143.0 L 99.0,132.0 L 98.0,127.0 L 92.0,113.0 L 92.0,111.0 L 86.0,110.0 L 71.0,105.0 L 66.0,107.0 L 53.0,114.0 L 43.0,114.0 L 38.0,110.0 L 36.0,106.0 L 36.0,98.0 L 43.0,90.0 L 57.0,80.0 L 63.0,76.0 L 77.0,76.0 L 74.0,70.0 L 74.0,68.0 L 68.0,66.0 L 49.0,56.0 L 45.0,51.0 L 45.0,40.0 L 50.0,34.0 L 54.0,32.0 L 61.0,32.0 L 88.0,44.0 L 86.0,40.0 L 76.0,27.0 L 75.0,18.0 L 79.0,12.0 L 84.0,8.0" fill="#FBFBFB"/>
	<path d="M 84.0,8.0 L 93.0,8.0 L 100.0,13.0 L 111.0,27.0 L 122.0,40.0 L 124.0,49.0 L 125.0,37.0 L 130.0,30.0 L 135.0,27.0 L 142.0,27.0 L 148.0,30.0 L 152.0,35.0 L 153.0,37.0 L 153.0,49.0 L 151.0,102.0 L 160.0,114.0 L 167.0,121.0 L 168.0,123.0 L 168.0,189.0 L 166.0,191.0 L 158.0,190.0 L 136.0,183.0 L 124.0,181.0 L 105.0,181.0 L 91.0,184.0 L 79.0,184.0 L 69.0,179.0 L 54.0,168.0 L 49.0,163.0 L 32.0,129.0 L 31.0,123.0 L 36.0,120.0 L 44.0,117.0 L 52.0,117.0 L 61.0,121.0 L 67.0,128.0 L 73.0,138.0 L 73.0,140.0 L 82.0,142.0 L 89.0,143.0 L 99.0,132.0 L 98.0,127.0 L 92.0,113.0 L 92.0,111.0 L 86.0,110.0 L 71.0,105.0 L 66.0,107.0 L 53.0,114.0 L 43.0,114.0 L 38.0,110.0 L 36.0,106.0 L 36.0,98.0 L 43.0,90.0 L 57.0,80.0 L 63.0,76.0 L 77.0,76.0 L 74.0,70.0 L 74.0,68.0 L 68.0,66.0 L 49.0,56.0 L 45.0,51.0 L 45.0,40.0 L 50.0,34.0 L 54.0,32.0 L 61.0,32.0 L 88.0,44.0 L 86.0,40.0 L 76.0,27.0 L 75.0,18.0 L 79.0,12.0 L 84.0,8.0 M 86.0,16.0 L 83.0,19.0 L 84.0,25.0 L 96.0,39.0 L 103.0,48.0 L 104.0,52.0 L 105.0,73.0 L 104.0,74.0 L 99.0,74.0 L 89.0,55.0 L 84.0,51.0 L 60.0,40.0 L 54.0,41.0 L 53.0,42.0 L 53.0,49.0 L 72.0,59.0 L 78.0,62.0 L 83.0,70.0 L 88.0,80.0 L 88.0,85.0 L 80.0,85.0 L 74.0,84.0 L 65.0,84.0 L 48.0,97.0 L 44.0,100.0 L 45.0,106.0 L 51.0,106.0 L 67.0,97.0 L 75.0,98.0 L 97.0,105.0 L 102.0,115.0 L 108.0,129.0 L 107.0,135.0 L 98.0,145.0 L 94.0,150.0 L 92.0,151.0 L 82.0,150.0 L 70.0,147.0 L 66.0,142.0 L 57.0,128.0 L 51.0,125.0 L 45.0,125.0 L 41.0,127.0 L 43.0,133.0 L 56.0,159.0 L 66.0,167.0 L 78.0,175.0 L 81.0,176.0 L 90.0,176.0 L 102.0,173.0 L 125.0,173.0 L 140.0,176.0 L 156.0,181.0 L 160.0,181.0 L 160.0,126.0 L 153.0,119.0 L 144.0,106.0 L 143.0,103.0 L 143.0,90.0 L 144.0,69.0 L 144.0,38.0 L 142.0,36.0 L 136.0,36.0 L 133.0,39.0 L 131.0,76.0 L 130.0,83.0 L 125.0,84.0 L 120.0,78.0 L 118.0,66.0 L 116.0,49.0 L 113.0,42.0 L 101.0,28.0 L 93.0,18.0 L 91.0,16.0 L 86.0,16.0" fill="#080808"/>
</svg>
