<?xml version="1.0" ?>
<svg baseProfile="full" height="600px" version="1.1" viewBox="-20.1 -20.1 240.2 240.2" width="600px" xmlns="http://www.w3.org/2000/svg" xmlns:ev="http://www.w3.org/2001/xml-events" xmlns:xlink="http://www.w3.org/1999/xlink">
	<defs/>
	<path d="M 0.0,0.0 L 200.0,0.0 L 200.0,200.0 L 0.0,200.0 L 0.0,0.0" fill="#FCFCFC"/>
	<path d="M 111.0,7.0 L 120.0,7.0 L 126.0,12.0 L 132.0,27.0 L 137.0,41.0 L 137.0,59.0 L 143.0,42.0 L 149.0,35.0 L 151.0,34.0 L 159.0,34.0 L 165.0,37.0 L 169.0,42.0 L 169.0,52.0 L 163.0,75.0 L 158.0,92.0 L 155.0,103.0 L 157.0,112.0 L 160.0,120.0 L 167.0,126.0 L 168.0,128.0 L 168.0,189.0 L 166.0,191.0 L 157.0,190.0 L 132.0,184.0 L 120.0,181.0 L 101.0,178.0 L 80.0,176.0 L 66.0,169.0 L 50.0,154.0 L 46.0,149.0 L 33.0,120.0 L 31.0,115.0 L 31.0,109.0 L 41.0,105.0 L 52.0,105.0 L 60.0,109.0 L 66.0,116.0 L 73.0,129.0 L 73.0,131.0 L 78.0,132.0 L 85.0,134.0 L 92.0,126.0 L 91.0,116.0 L 87.0,106.0 L 70.0,93.0 L 61.0,90.0 L 48.0,85.0 L 45.0,81.0 L 45.0,72.0 L 51.0,67.0 L 68.0,65.0 L 77.0,65.0 L 84.0,69.0 L 83.0,59.0 L 75.0,48.0 L 68.0,39.0 L 67.0,36.0 L 67.0,29.0 L 71.0,23.0 L 74.0,21.0 L 85.0,21.0 L 93.0,28.0 L 104.0,39.0 L 108.0,44.0 L 108.0,51.0 L 110.0,51.0 L 107.0,37.0 L 103.0,24.0 L 103.0,15.0 L 106.0,10.0 L 111.0,7.0" fill="#FBFBFB"/>
	<path d="M 111.0,7.0 L 120.0,7.0 L 126.0,12.0 L 132.0,27.0 L 137.0,41.0 L 137.0,59.0 L 143.0,42.0 L 149.0,35.0 L 151.0,34.0 L 159.0,34.0 L 165.0,37.0 L 169.0,42.0 L 169.0,52.0 L 163.0,75.0 L 158.0,92.0 L 155.0,103.0 L 157.0,112.0 L 160.0,120.0 L 167.0,126.0 L 168.0,128.0 L 168.0,189.0 L 166.0,191.0 L 157.0,190.0 L 132.0,184.0 L 120.0,181.0 L 101.0,178.0 L 80.0,176.0 L 66.0,169.0 L 50.0,154.0 L 46.0,149.0 L 33.0,120.0 L 31.0,115.0 L 31.0,109.0 L 41.0,105.0 L 52.0,105.0 L 60.0,109.0 L 66.0,116.0 L 73.0,129.0 L 73.0,131.0 L 78.0,132.0 L 85.0,134.0 L 92.0,126.0 L 91.0,116.0 L 87.0,106.0 L 70.0,93.0 L 61.0,90.0 L 48.0,85.0 L 45.0,81.0 L 45.0,72.0 L 51.0,67.0 L 68.0,65.0 L 77.0,65.0 L 84.0,69.0 L 83.0,59.0 L 75.0,48.0 L 68.0,39.0 L 67.0,36.0 L 67.0,29.0 L 71.0,23.0 L 74.0,21.0 L 85.0,21.0 L 93.0,28.0 L 104.0,39.0 L 108.0,44.0 L 108.0,51.0 L 110.0,51.0 L 107.0,37.0 L 103.0,24.0 L 103.0,15.0 L 106.0,10.0 L 111.0,7.0 M 113.0,15.0 L 111.0,17.0 L 112.0,26.0 L 117.0,43.0 L 117.0,50.0 L 113.0,70.0 L 111.0,74.0 L 106.0,75.0 L 102.0,56.0 L 100.0,47.0 L 88.0,35.0 L 83.0,29.0 L 78.0,28.0 L 75.0,31.0 L 76.0,37.0 L 84.0,46.0 L 90.0,54.0 L 93.0,72.0 L 93.0,81.0 L 89.0,82.0 L 75.0,73.0 L 59.0,74.0 L 53.0,75.0 L 54.0,79.0 L 73.0,85.0 L 91.0,99.0 L 95.0,102.0 L 101.0,123.0 L 101.0,128.0 L 89.0,142.0 L 83.0,143.0 L 69.0,137.0 L 63.0,128.0 L 57.0,117.0 L 53.0,114.0 L 50.0,113.0 L 43.0,113.0 L 40.0,114.0 L 42.0,120.0 L 53.0,145.0 L 71.0,163.0 L 82.0,168.0 L 110.0,171.0 L 135.0,176.0 L 150.0,180.0 L 160.0,181.0 L 160.0,131.0 L 152.0,123.0 L 148.0,111.0 L 147.0,101.0 L 151.0,87.0 L 158.0,63.0 L 161.0,52.0 L 161.0,45.0 L 158.0,42.0 L 153.0,42.0 L 150.0,46.0 L 136.0,85.0 L 131.0,86.0 L 127.0,81.0 L 128.0,65.0 L 129.0,55.0 L 129.0,43.0 L 120.0,17.0 L 117.0,15.0 L 113.0,15.0" fill="#080808"/>
</svg>
