<?xml version="1.0" ?>
<svg baseProfile="full" height="600px" version="1.1" viewBox="-19.296000000000003 -19.296000000000003 230.592 230.592" width="600px" xmlns="http://www.w3.org/2000/svg" xmlns:ev="http://www.w3.org/2001/xml-events" xmlns:xlink="http://www.w3.org/1999/xlink">
	<defs/>
	<path d="M 0.0,0.0 L 192.0,0.0 L 192.0,192.0 L 0.0,192.0 L 0.0,0.0" fill="#C7E6C8"/>
	<path d="M 0.0,0.0 L 192.0,0.0 L 192.0,192.0 L 0.0,192.0 L 0.0,0.0 M 84.0,18.0 L 70.0,22.0 L 58.0,27.0 L 45.0,36.0 L 35.0,46.0 L 26.0,60.0 L 21.0,73.0 L 18.0,84.0 L 18.0,105.0 L 21.0,120.0 L 27.0,134.0 L 36.0,147.0 L 46.0,157.0 L 60.0,166.0 L 72.0,171.0 L 87.0,174.0 L 106.0,174.0 L 116.0,172.0 L 132.0,166.0 L 143.0,159.0 L 153.0,150.0 L 160.0,142.0 L 168.0,128.0 L 173.0,113.0 L 174.0,106.0 L 174.0,87.0 L 171.0,72.0 L 166.0,60.0 L 159.0,49.0 L 150.0,39.0 L 142.0,32.0 L 130.0,25.0 L 117.0,20.0 L 105.0,18.0 L 84.0,18.0" fill="#FDFEFD"/>
	<path d="M 164.0,60.0 L 166.0,60.0 L 171.0,72.0 L 174.0,87.0 L 174.0,106.0 L 172.0,116.0 L 166.0,132.0 L 159.0,143.0 L 150.0,153.0 L 142.0,160.0 L 128.0,168.0 L 113.0,173.0 L 106.0,174.0 L 87.0,174.0 L 72.0,171.0 L 60.0,166.0 L 62.0,162.0 L 164.0,60.0" fill="#C7E6C8"/>
	<path d="M 148.0,38.0 L 155.0,44.0 L 163.0,55.0 L 165.0,60.0 L 60.0,165.0 L 55.0,163.0 L 44.0,155.0 L 38.0,148.0 L 41.0,147.0 L 41.0,145.0 L 43.0,145.0 L 43.0,143.0 L 45.0,143.0 L 45.0,141.0 L 47.0,141.0 L 47.0,139.0 L 49.0,139.0 L 49.0,137.0 L 51.0,137.0 L 51.0,135.0 L 53.0,135.0 L 53.0,133.0 L 55.0,133.0 L 55.0,131.0 L 57.0,131.0 L 57.0,129.0 L 59.0,129.0 L 59.0,127.0 L 61.0,127.0 L 61.0,125.0 L 63.0,125.0 L 63.0,123.0 L 65.0,123.0 L 65.0,121.0 L 67.0,121.0 L 67.0,119.0 L 69.0,119.0 L 69.0,117.0 L 71.0,117.0 L 71.0,115.0 L 73.0,115.0 L 73.0,113.0 L 75.0,113.0 L 75.0,111.0 L 77.0,111.0 L 77.0,109.0 L 79.0,109.0 L 79.0,107.0 L 81.0,107.0 L 81.0,105.0 L 83.0,105.0 L 83.0,103.0 L 85.0,103.0 L 85.0,101.0 L 87.0,101.0 L 87.0,99.0 L 89.0,99.0 L 89.0,97.0 L 91.0,97.0 L 91.0,95.0 L 93.0,95.0 L 93.0,93.0 L 95.0,93.0 L 95.0,91.0 L 97.0,91.0 L 97.0,89.0 L 99.0,89.0 L 99.0,87.0 L 101.0,87.0 L 101.0,85.0 L 103.0,85.0 L 103.0,83.0 L 105.0,83.0 L 105.0,81.0 L 107.0,81.0 L 107.0,79.0 L 109.0,79.0 L 109.0,77.0 L 111.0,77.0 L 111.0,75.0 L 113.0,75.0 L 113.0,73.0 L 115.0,73.0 L 115.0,71.0 L 117.0,71.0 L 117.0,69.0 L 119.0,69.0 L 119.0,67.0 L 121.0,67.0 L 123.0,63.0 L 139.0,47.0 L 141.0,47.0 L 141.0,45.0 L 143.0,45.0 L 143.0,43.0 L 145.0,43.0 L 145.0,41.0 L 147.0,41.0 L 148.0,38.0" fill="#C7E6C8"/>
	<path d="M 137.0,59.0 L 141.0,60.0 L 149.0,68.0 L 148.0,72.0 L 107.0,113.0 L 103.0,112.0 L 95.0,104.0 L 96.0,100.0 L 137.0,59.0" fill="#4FB053"/>
</svg>
