<?xml version="1.0" ?>
<svg baseProfile="full" height="600px" version="1.1" viewBox="-19.296000000000003 -19.296000000000003 230.592 230.592" width="600px" xmlns="http://www.w3.org/2000/svg" xmlns:ev="http://www.w3.org/2001/xml-events" xmlns:xlink="http://www.w3.org/1999/xlink">
	<defs/>
	<path d="M 0.0,0.0 L 192.0,0.0 L 192.0,192.0 L 0.0,192.0 L 0.0,0.0" fill="#FDFEFD"/>
	<path d="M 87.0,104.0 L 105.0,104.0 L 113.0,108.0 L 120.0,114.0 L 122.0,117.0 L 122.0,126.0 L 70.0,126.0 L 70.0,117.0 L 76.0,110.0 L 84.0,105.0 L 87.0,104.0" fill="#386C23"/>
	<path d="M 81.0,138.0 L 89.0,138.0 L 96.0,142.0 L 100.0,147.0 L 101.0,149.0 L 101.0,159.0 L 97.0,165.0 L 92.0,169.0 L 89.0,170.0 L 80.0,170.0 L 74.0,166.0 L 70.0,161.0 L 69.0,158.0 L 69.0,149.0 L 75.0,141.0 L 81.0,138.0" fill="#7EB446"/>
	<path d="M 140.0,118.0 L 149.0,118.0 L 155.0,121.0 L 160.0,127.0 L 161.0,129.0 L 161.0,139.0 L 157.0,145.0 L 150.0,150.0 L 141.0,150.0 L 134.0,146.0 L 130.0,141.0 L 129.0,138.0 L 129.0,129.0 L 133.0,123.0 L 138.0,119.0 L 140.0,118.0" fill="#7EB446"/>
	<path d="M 44.0,42.0 L 51.0,42.0 L 59.0,47.0 L 63.0,54.0 L 63.0,63.0 L 59.0,69.0 L 54.0,73.0 L 51.0,74.0 L 42.0,74.0 L 36.0,70.0 L 32.0,65.0 L 31.0,62.0 L 31.0,53.0 L 35.0,47.0 L 40.0,43.0 L 44.0,42.0" fill="#7EB445"/>
	<path d="M 32.0,100.0 L 39.0,100.0 L 47.0,104.0 L 51.0,109.0 L 52.0,113.0 L 52.0,121.0 L 48.0,127.0 L 43.0,131.0 L 41.0,132.0 L 30.0,132.0 L 22.0,125.0 L 20.0,121.0 L 20.0,112.0 L 24.0,105.0 L 32.0,100.0" fill="#7EB446"/>
	<path d="M 102.0,22.0 L 111.0,22.0 L 117.0,25.0 L 122.0,31.0 L 123.0,33.0 L 123.0,41.0 L 119.0,49.0 L 113.0,53.0 L 110.0,54.0 L 103.0,54.0 L 96.0,50.0 L 92.0,45.0 L 91.0,43.0 L 91.0,33.0 L 95.0,27.0 L 100.0,23.0 L 102.0,22.0" fill="#7EB445"/>
	<path d="M 150.0,60.0 L 161.0,60.0 L 167.0,64.0 L 171.0,69.0 L 172.0,71.0 L 172.0,80.0 L 167.0,88.0 L 159.0,92.0 L 152.0,92.0 L 144.0,87.0 L 140.0,79.0 L 140.0,71.0 L 144.0,65.0 L 150.0,60.0" fill="#7EB445"/>
	<path d="M 92.0,66.0 L 99.0,66.0 L 105.0,69.0 L 110.0,75.0 L 111.0,77.0 L 111.0,84.0 L 107.0,92.0 L 103.0,95.0 L 99.0,96.0 L 91.0,96.0 L 84.0,91.0 L 81.0,84.0 L 81.0,77.0 L 85.0,71.0 L 90.0,67.0 L 92.0,66.0" fill="#FFA92B"/>
</svg>
