<?xml version="1.0" ?>
<svg baseProfile="full" height="600px" version="1.1" viewBox="-19.296000000000003 -19.296000000000003 230.592 230.592" width="600px" xmlns="http://www.w3.org/2000/svg" xmlns:ev="http://www.w3.org/2001/xml-events" xmlns:xlink="http://www.w3.org/1999/xlink">
	<defs/>
	<path d="M 0.0,0.0 L 192.0,0.0 L 192.0,192.0 L 0.0,192.0 L 0.0,0.0" fill="#FDFEFD"/>
	<path d="M 87.0,105.0 L 104.0,105.0 L 114.0,109.0 L 122.0,115.0 L 126.0,121.0 L 126.0,130.0 L 66.0,130.0 L 66.0,121.0 L 72.0,113.0 L 81.0,107.0 L 87.0,105.0" fill="#346A20"/>
	<path d="M 90.0,62.0 L 101.0,62.0 L 108.0,66.0 L 112.0,71.0 L 113.0,74.0 L 113.0,83.0 L 109.0,91.0 L 101.0,96.0 L 91.0,96.0 L 83.0,91.0 L 79.0,84.0 L 79.0,74.0 L 83.0,67.0 L 90.0,62.0" fill="#FFA829"/>
	<path d="M 91.0,144.0 L 101.0,144.0 L 107.0,148.0 L 111.0,153.0 L 112.0,155.0 L 112.0,164.0 L 109.0,170.0 L 103.0,175.0 L 101.0,176.0 L 91.0,176.0 L 85.0,172.0 L 81.0,167.0 L 80.0,165.0 L 80.0,155.0 L 84.0,149.0 L 89.0,145.0 L 91.0,144.0" fill="#7FB446"/>
	<path d="M 151.0,112.0 L 161.0,112.0 L 167.0,116.0 L 171.0,121.0 L 172.0,123.0 L 172.0,132.0 L 169.0,138.0 L 163.0,143.0 L 161.0,144.0 L 151.0,144.0 L 145.0,140.0 L 141.0,135.0 L 140.0,133.0 L 140.0,123.0 L 144.0,117.0 L 149.0,113.0 L 151.0,112.0" fill="#7FB446"/>
	<path d="M 31.0,112.0 L 41.0,112.0 L 47.0,116.0 L 51.0,121.0 L 52.0,123.0 L 52.0,132.0 L 49.0,138.0 L 43.0,143.0 L 41.0,144.0 L 31.0,144.0 L 25.0,140.0 L 21.0,135.0 L 20.0,133.0 L 20.0,123.0 L 24.0,117.0 L 29.0,113.0 L 31.0,112.0" fill="#7FB446"/>
	<path d="M 151.0,48.0 L 161.0,48.0 L 167.0,52.0 L 171.0,57.0 L 172.0,59.0 L 172.0,68.0 L 169.0,74.0 L 163.0,79.0 L 161.0,80.0 L 151.0,80.0 L 145.0,76.0 L 141.0,71.0 L 140.0,69.0 L 140.0,59.0 L 144.0,53.0 L 149.0,49.0 L 151.0,48.0" fill="#7FB446"/>
	<path d="M 31.0,48.0 L 41.0,48.0 L 47.0,52.0 L 51.0,57.0 L 52.0,59.0 L 52.0,68.0 L 49.0,74.0 L 43.0,79.0 L 41.0,80.0 L 31.0,80.0 L 25.0,76.0 L 21.0,71.0 L 20.0,69.0 L 20.0,59.0 L 24.0,53.0 L 29.0,49.0 L 31.0,48.0" fill="#7FB446"/>
	<path d="M 91.0,16.0 L 101.0,16.0 L 107.0,20.0 L 111.0,25.0 L 112.0,27.0 L 112.0,36.0 L 109.0,42.0 L 103.0,47.0 L 101.0,48.0 L 91.0,48.0 L 85.0,44.0 L 81.0,39.0 L 80.0,37.0 L 80.0,27.0 L 84.0,21.0 L 89.0,17.0 L 91.0,16.0" fill="#7FB446"/>
</svg>
