<?xml version="1.0" ?>
<svg baseProfile="full" height="600px" version="1.1" viewBox="-19.296000000000003 -19.296000000000003 230.592 230.592" width="600px" xmlns="http://www.w3.org/2000/svg" xmlns:ev="http://www.w3.org/2001/xml-events" xmlns:xlink="http://www.w3.org/1999/xlink">
	<defs/>
	<path d="M 0.0,0.0 L 192.0,0.0 L 192.0,192.0 L 0.0,192.0 L 0.0,0.0" fill="#FDFEFD"/>
	<path d="M 88.0,104.0 L 101.0,104.0 L 111.0,107.0 L 119.0,113.0 L 124.0,119.0 L 124.0,128.0 L 68.0,128.0 L 68.0,119.0 L 76.0,110.0 L 88.0,104.0" fill="#366B22"/>
	<path d="M 97.0,141.0 L 106.0,141.0 L 112.0,145.0 L 116.0,150.0 L 117.0,152.0 L 117.0,163.0 L 112.0,170.0 L 107.0,173.0 L 96.0,173.0 L 90.0,169.0 L 85.0,162.0 L 85.0,153.0 L 90.0,145.0 L 97.0,141.0" fill="#7FB546"/>
	<path d="M 85.0,19.0 L 95.0,19.0 L 101.0,22.0 L 106.0,28.0 L 107.0,31.0 L 107.0,39.0 L 101.0,48.0 L 95.0,51.0 L 86.0,51.0 L 80.0,47.0 L 76.0,42.0 L 75.0,39.0 L 75.0,29.0 L 80.0,22.0 L 85.0,19.0" fill="#7FB546"/>
	<path d="M 36.0,115.0 L 47.0,115.0 L 53.0,119.0 L 57.0,125.0 L 57.0,135.0 L 54.0,141.0 L 48.0,146.0 L 45.0,147.0 L 37.0,147.0 L 29.0,142.0 L 25.0,134.0 L 25.0,127.0 L 28.0,121.0 L 34.0,116.0 L 36.0,115.0" fill="#7FB446"/>
	<path d="M 147.0,45.0 L 154.0,45.0 L 162.0,49.0 L 167.0,57.0 L 167.0,65.0 L 162.0,73.0 L 158.0,76.0 L 155.0,77.0 L 146.0,77.0 L 139.0,73.0 L 135.0,66.0 L 135.0,56.0 L 139.0,50.0 L 144.0,46.0 L 147.0,45.0" fill="#7FB446"/>
	<path d="M 92.0,64.0 L 99.0,64.0 L 107.0,68.0 L 112.0,75.0 L 112.0,84.0 L 109.0,90.0 L 103.0,95.0 L 100.0,96.0 L 91.0,96.0 L 85.0,92.0 L 81.0,87.0 L 80.0,83.0 L 80.0,76.0 L 84.0,69.0 L 89.0,65.0 L 92.0,64.0" fill="#FFA92A"/>
	<path d="M 150.0,107.0 L 162.0,107.0 L 169.0,112.0 L 172.0,118.0 L 172.0,126.0 L 168.0,134.0 L 161.0,138.0 L 150.0,138.0 L 144.0,134.0 L 140.0,127.0 L 140.0,118.0 L 144.0,111.0 L 150.0,107.0" fill="#7EB445"/>
	<path d="M 30.0,54.0 L 41.0,54.0 L 48.0,58.0 L 52.0,65.0 L 52.0,74.0 L 47.0,82.0 L 41.0,85.0 L 30.0,85.0 L 24.0,81.0 L 20.0,73.0 L 20.0,65.0 L 25.0,57.0 L 30.0,54.0" fill="#7EB445"/>
</svg>
