<?xml version="1.0" ?>
<svg baseProfile="full" height="600px" version="1.1" viewBox="-19.296000000000003 -19.296000000000003 230.592 230.592" width="600px" xmlns="http://www.w3.org/2000/svg" xmlns:ev="http://www.w3.org/2001/xml-events" xmlns:xlink="http://www.w3.org/1999/xlink">
	<defs/>
	<path d="M 0.0,0.0 L 192.0,0.0 L 192.0,192.0 L 0.0,192.0 L 0.0,0.0" fill="#FDFEFD"/>
	<path d="M 112.0,28.0 L 123.0,28.0 L 129.0,32.0 L 133.0,37.0 L 134.0,39.0 L 134.0,48.0 L 129.0,56.0 L 122.0,60.0 L 114.0,60.0 L 106.0,55.0 L 102.0,49.0 L 102.0,39.0 L 107.0,31.0 L 112.0,28.0" fill="#7FB546"/>
	<path d="M 70.0,132.0 L 77.0,132.0 L 85.0,136.0 L 89.0,141.0 L 90.0,143.0 L 90.0,152.0 L 86.0,160.0 L 79.0,164.0 L 69.0,164.0 L 64.0,161.0 L 59.0,155.0 L 58.0,153.0 L 58.0,144.0 L 63.0,136.0 L 70.0,132.0" fill="#7FB446"/>
	<path d="M 128.0,124.0 L 139.0,124.0 L 146.0,128.0 L 150.0,135.0 L 150.0,145.0 L 144.0,153.0 L 137.0,156.0 L 130.0,156.0 L 122.0,151.0 L 118.0,143.0 L 118.0,135.0 L 122.0,129.0 L 128.0,124.0" fill="#7FB446"/>
	<path d="M 54.0,36.0 L 61.0,36.0 L 69.0,40.0 L 74.0,48.0 L 74.0,56.0 L 71.0,62.0 L 65.0,67.0 L 63.0,68.0 L 52.0,68.0 L 46.0,64.0 L 42.0,56.0 L 42.0,47.0 L 46.0,41.0 L 54.0,36.0" fill="#7EB446"/>
	<path d="M 30.0,89.0 L 41.0,89.0 L 48.0,93.0 L 52.0,100.0 L 52.0,108.0 L 48.0,116.0 L 42.0,120.0 L 39.0,121.0 L 32.0,121.0 L 24.0,116.0 L 20.0,109.0 L 20.0,100.0 L 24.0,93.0 L 30.0,89.0" fill="#7EB446"/>
	<path d="M 150.0,72.0 L 162.0,72.0 L 169.0,77.0 L 172.0,83.0 L 172.0,92.0 L 168.0,99.0 L 161.0,103.0 L 150.0,103.0 L 144.0,99.0 L 140.0,91.0 L 140.0,84.0 L 144.0,76.0 L 150.0,72.0" fill="#7EB445"/>
	<path d="M 88.0,103.0 L 103.0,103.0 L 113.0,108.0 L 120.0,116.0 L 120.0,123.0 L 72.0,123.0 L 72.0,116.0 L 79.0,108.0 L 88.0,103.0" fill="#366B22"/>
	<path d="M 92.0,69.0 L 99.0,69.0 L 105.0,72.0 L 109.0,77.0 L 109.0,87.0 L 106.0,92.0 L 102.0,95.0 L 99.0,96.0 L 92.0,96.0 L 86.0,92.0 L 83.0,88.0 L 83.0,77.0 L 88.0,71.0 L 92.0,69.0" fill="#FFA82A"/>
</svg>
