<?xml version="1.0" ?>
<svg baseProfile="full" height="600px" version="1.1" viewBox="-19.296000000000003 -19.296000000000003 230.592 230.592" width="600px" xmlns="http://www.w3.org/2000/svg" xmlns:ev="http://www.w3.org/2001/xml-events" xmlns:xlink="http://www.w3.org/1999/xlink">
	<defs/>
	<path d="M 0.0,0.0 L 192.0,0.0 L 192.0,192.0 L 0.0,192.0 L 0.0,0.0" fill="#FEFEFD"/>
	<path d="M 68.0,50.0 L 75.0,50.0 L 81.0,54.0 L 84.0,59.0 L 85.0,82.0 L 90.0,77.0 L 92.0,76.0 L 99.0,76.0 L 104.0,79.0 L 107.0,82.0 L 107.0,84.0 L 109.0,84.0 L 111.0,79.0 L 116.0,76.0 L 123.0,76.0 L 129.0,79.0 L 133.0,86.0 L 139.0,81.0 L 141.0,80.0 L 147.0,80.0 L 153.0,84.0 L 156.0,88.0 L 156.0,144.0 L 152.0,157.0 L 145.0,166.0 L 136.0,172.0 L 130.0,175.0 L 123.0,176.0 L 84.0,176.0 L 71.0,172.0 L 58.0,163.0 L 49.0,154.0 L 37.0,136.0 L 36.0,133.0 L 36.0,125.0 L 42.0,117.0 L 53.0,108.0 L 59.0,104.0 L 60.0,58.0 L 66.0,51.0 L 68.0,50.0" fill="#FECB80"/>
	<path d="M 57.0,105.0 L 60.0,105.0 L 60.0,139.0 L 58.0,137.0 L 48.0,114.0 L 50.0,110.0 L 57.0,105.0" fill="#F2A45C"/>
</svg>
