<?xml version="1.0" ?>
<svg baseProfile="full" height="600px" version="1.1" viewBox="-20.1 -20.1 240.2 240.2" width="600px" xmlns="http://www.w3.org/2000/svg" xmlns:ev="http://www.w3.org/2001/xml-events" xmlns:xlink="http://www.w3.org/1999/xlink">
	<defs/>
	<path d="M 0.0,0.0 L 200.0,0.0 L 200.0,200.0 L 0.0,200.0 L 0.0,0.0" fill="#FDFDFD"/>
	<path d="M 62.0,24.0 L 73.0,24.0 L 80.0,28.0 L 84.0,35.0 L 85.0,61.0 L 87.0,60.0 L 97.0,60.0 L 103.0,64.0 L 107.0,66.0 L 111.0,64.0 L 121.0,64.0 L 127.0,68.0 L 130.0,72.0 L 130.0,74.0 L 135.0,72.0 L 145.0,72.0 L 151.0,76.0 L 155.0,82.0 L 156.0,85.0 L 156.0,168.0 L 154.0,177.0 L 149.0,186.0 L 141.0,194.0 L 131.0,199.0 L 124.0,200.0 L 76.0,200.0 L 64.0,195.0 L 56.0,188.0 L 50.0,178.0 L 39.0,156.0 L 36.0,145.0 L 36.0,132.0 L 42.0,120.0 L 51.0,113.0 L 52.0,34.0 L 57.0,27.0 L 62.0,24.0" fill="#FCFCFC"/>
	<path d="M 62.0,24.0 L 73.0,24.0 L 80.0,28.0 L 84.0,35.0 L 85.0,61.0 L 87.0,60.0 L 97.0,60.0 L 103.0,64.0 L 107.0,66.0 L 111.0,64.0 L 121.0,64.0 L 127.0,68.0 L 130.0,72.0 L 130.0,74.0 L 135.0,72.0 L 145.0,72.0 L 151.0,76.0 L 155.0,82.0 L 156.0,85.0 L 156.0,168.0 L 154.0,177.0 L 149.0,186.0 L 141.0,194.0 L 131.0,199.0 L 124.0,200.0 L 76.0,200.0 L 64.0,195.0 L 56.0,188.0 L 50.0,178.0 L 39.0,156.0 L 36.0,145.0 L 36.0,132.0 L 42.0,120.0 L 51.0,113.0 L 52.0,34.0 L 57.0,27.0 L 62.0,24.0 M 64.0,32.0 L 60.0,36.0 L 59.0,117.0 L 49.0,124.0 L 44.0,133.0 L 44.0,144.0 L 48.0,156.0 L 60.0,180.0 L 68.0,188.0 L 77.0,192.0 L 126.0,192.0 L 138.0,186.0 L 144.0,179.0 L 148.0,169.0 L 148.0,86.0 L 145.0,81.0 L 143.0,80.0 L 137.0,80.0 L 133.0,83.0 L 131.0,94.0 L 126.0,95.0 L 125.0,94.0 L 124.0,78.0 L 121.0,73.0 L 120.0,72.0 L 112.0,72.0 L 108.0,76.0 L 107.0,90.0 L 102.0,91.0 L 101.0,90.0 L 100.0,73.0 L 95.0,68.0 L 89.0,68.0 L 84.0,73.0 L 83.0,94.0 L 78.0,95.0 L 77.0,94.0 L 76.0,36.0 L 72.0,32.0 L 64.0,32.0" fill="#040404"/>
</svg>
