<?xml version="1.0" ?>
<svg baseProfile="full" height="600px" version="1.1" viewBox="-12.864 -12.864 153.728 153.728" width="600px" xmlns="http://www.w3.org/2000/svg" xmlns:ev="http://www.w3.org/2001/xml-events" xmlns:xlink="http://www.w3.org/1999/xlink">
	<defs/>
	<path d="M 0.0,0.0 L 128.0,0.0 L 128.0,128.0 L 0.0,128.0 L 0.0,0.0" fill="#FBFBFB"/>
	<path d="M 14.0,9.0 L 16.0,9.0 L 23.0,17.0 L 58.0,52.0 L 67.0,52.0 L 73.0,55.0 L 76.0,60.0 L 76.0,70.0 L 85.0,79.0 L 87.0,79.0 L 91.0,69.0 L 91.0,58.0 L 87.0,49.0 L 84.0,45.0 L 86.0,41.0 L 90.0,39.0 L 96.0,46.0 L 100.0,57.0 L 100.0,68.0 L 98.0,77.0 L 93.0,87.0 L 102.0,96.0 L 100.0,100.0 L 96.0,102.0 L 9.0,15.0 L 14.0,9.0" fill="#050505"/>
	<path d="M 105.0,22.0 L 109.0,24.0 L 116.0,33.0 L 122.0,46.0 L 124.0,58.0 L 124.0,70.0 L 122.0,81.0 L 117.0,93.0 L 110.0,103.0 L 107.0,106.0 L 103.0,104.0 L 101.0,100.0 L 108.0,91.0 L 114.0,77.0 L 115.0,73.0 L 115.0,55.0 L 111.0,43.0 L 104.0,31.0 L 101.0,28.0 L 103.0,24.0 L 105.0,22.0" fill="#070707"/>
	<path d="M 13.0,32.0 L 17.0,34.0 L 19.0,36.0 L 18.0,41.0 L 14.0,51.0 L 13.0,55.0 L 13.0,70.0 L 15.0,79.0 L 20.0,91.0 L 27.0,100.0 L 25.0,104.0 L 21.0,106.0 L 14.0,98.0 L 7.0,84.0 L 4.0,73.0 L 4.0,58.0 L 7.0,43.0 L 13.0,32.0" fill="#080808"/>
	<path d="M 31.0,49.0 L 37.0,54.0 L 37.0,70.0 L 43.0,82.0 L 43.0,86.0 L 40.0,89.0 L 36.0,87.0 L 31.0,80.0 L 28.0,69.0 L 28.0,56.0 L 31.0,49.0" fill="#090909"/>
</svg>
