<?xml version="1.0" ?>
<svg baseProfile="full" height="600px" version="1.1" viewBox="-9.648000000000001 -9.648000000000001 115.296 115.296" width="600px" xmlns="http://www.w3.org/2000/svg" xmlns:ev="http://www.w3.org/2001/xml-events" xmlns:xlink="http://www.w3.org/1999/xlink">
	<defs/>
	<path d="M 0.0,0.0 L 96.0,0.0 L 96.0,96.0 L 0.0,96.0 L 0.0,0.0" fill="#FBFBFB"/>
	<path d="M 13.0,10.0 L 17.0,11.0 L 75.0,69.0 L 73.0,73.0 L 71.0,76.0 L 73.0,80.0 L 69.0,82.0 L 65.0,75.0 L 65.0,71.0 L 60.0,68.0 L 54.0,60.0 L 51.0,57.0 L 43.0,55.0 L 40.0,51.0 L 38.0,44.0 L 34.0,41.0 L 33.0,51.0 L 36.0,58.0 L 39.0,61.0 L 37.0,66.0 L 36.0,68.0 L 32.0,66.0 L 26.0,59.0 L 24.0,53.0 L 24.0,42.0 L 27.0,33.0 L 24.0,30.0 L 22.0,30.0 L 17.0,41.0 L 17.0,54.0 L 22.0,66.0 L 26.0,71.0 L 31.0,76.0 L 27.0,82.0 L 21.0,78.0 L 14.0,70.0 L 10.0,62.0 L 8.0,53.0 L 8.0,40.0 L 12.0,29.0 L 16.0,22.0 L 10.0,16.0 L 11.0,12.0 L 13.0,10.0" fill="#060606"/>
	<path d="M 69.0,14.0 L 75.0,18.0 L 82.0,26.0 L 86.0,34.0 L 88.0,40.0 L 88.0,54.0 L 85.0,64.0 L 84.0,66.0 L 80.0,64.0 L 78.0,62.0 L 79.0,53.0 L 79.0,41.0 L 73.0,29.0 L 68.0,24.0 L 65.0,20.0 L 69.0,14.0" fill="#090909"/>
	<path d="M 60.0,28.0 L 64.0,30.0 L 70.0,37.0 L 72.0,42.0 L 72.0,54.0 L 68.0,52.0 L 64.0,48.0 L 61.0,40.0 L 57.0,35.0 L 59.0,30.0 L 60.0,28.0" fill="#0C0C0C"/>
	<path d="M 66.0,74.0 L 71.0,74.0 L 73.0,80.0 L 69.0,82.0 L 65.0,75.0 L 66.0,74.0" fill="#111111"/>
	<path d="M 40.0,46.0 L 42.0,46.0 L 45.0,51.0 L 48.0,54.0 L 48.0,56.0 L 43.0,55.0 L 40.0,51.0 L 40.0,46.0" fill="#101010"/>
</svg>
