<?xml version="1.0" ?>
<svg baseProfile="full" height="600px" version="1.1" viewBox="-20.1 -20.1 240.2 240.2" width="600px" xmlns="http://www.w3.org/2000/svg" xmlns:ev="http://www.w3.org/2001/xml-events" xmlns:xlink="http://www.w3.org/1999/xlink">
	<defs/>
	<path d="M 0.0,0.0 L 200.0,0.0 L 200.0,200.0 L 0.0,200.0 L 0.0,0.0" fill="#FCFCFC"/>
	<path d="M 166.0,28.0 L 171.0,29.0 L 181.0,40.0 L 190.0,55.0 L 196.0,70.0 L 200.0,87.0 L 200.0,200.0 L 194.0,200.0 L 120.0,126.0 L 121.0,121.0 L 126.0,120.0 L 136.0,130.0 L 140.0,126.0 L 145.0,115.0 L 147.0,109.0 L 147.0,92.0 L 144.0,82.0 L 138.0,71.0 L 131.0,64.0 L 131.0,59.0 L 132.0,58.0 L 138.0,58.0 L 146.0,67.0 L 154.0,83.0 L 156.0,90.0 L 156.0,106.0 L 154.0,116.0 L 149.0,128.0 L 144.0,135.0 L 145.0,139.0 L 167.0,161.0 L 172.0,157.0 L 182.0,141.0 L 187.0,128.0 L 190.0,116.0 L 191.0,111.0 L 191.0,88.0 L 187.0,71.0 L 180.0,55.0 L 171.0,42.0 L 164.0,34.0 L 165.0,29.0 L 166.0,28.0" fill="#060606"/>
	<path d="M 30.0,28.0 L 35.0,29.0 L 36.0,34.0 L 26.0,46.0 L 17.0,61.0 L 13.0,71.0 L 9.0,88.0 L 9.0,110.0 L 12.0,126.0 L 20.0,145.0 L 29.0,158.0 L 36.0,166.0 L 35.0,171.0 L 30.0,172.0 L 23.0,165.0 L 14.0,152.0 L 7.0,138.0 L 2.0,123.0 L 0.0,111.0 L 0.0,87.0 L 4.0,70.0 L 10.0,55.0 L 18.0,42.0 L 26.0,32.0 L 30.0,28.0" fill="#090909"/>
	<path d="M 96.0,80.0 L 105.0,80.0 L 113.0,84.0 L 119.0,92.0 L 120.0,95.0 L 120.0,105.0 L 116.0,113.0 L 110.0,118.0 L 105.0,120.0 L 95.0,120.0 L 87.0,116.0 L 81.0,108.0 L 80.0,105.0 L 80.0,95.0 L 84.0,87.0 L 92.0,81.0 L 96.0,80.0" fill="#080808"/>
	<path d="M 199.0,110.0 L 200.0,110.0 L 200.0,194.0 L 193.0,188.0 L 174.0,169.0 L 176.0,164.0 L 184.0,154.0 L 192.0,138.0 L 197.0,123.0 L 199.0,110.0" fill="#F9F9F9"/>
	<path d="M 62.0,58.0 L 68.0,58.0 L 69.0,59.0 L 69.0,64.0 L 62.0,71.0 L 55.0,84.0 L 53.0,93.0 L 53.0,106.0 L 56.0,118.0 L 62.0,129.0 L 69.0,136.0 L 69.0,141.0 L 68.0,142.0 L 62.0,142.0 L 54.0,133.0 L 47.0,119.0 L 44.0,109.0 L 44.0,90.0 L 48.0,78.0 L 54.0,67.0 L 62.0,58.0" fill="#0A0A0A"/>
	<path d="M 96.0,88.0 L 103.0,88.0 L 108.0,91.0 L 112.0,96.0 L 112.0,104.0 L 106.0,111.0 L 104.0,112.0 L 96.0,112.0 L 89.0,106.0 L 88.0,103.0 L 88.0,96.0 L 94.0,89.0 L 96.0,88.0" fill="#F7F7F7"/>
</svg>
