<?xml version="1.0" ?>
<svg baseProfile="full" height="600px" version="1.1" viewBox="-16.08 -16.08 192.16 192.16" width="600px" xmlns="http://www.w3.org/2000/svg" xmlns:ev="http://www.w3.org/2001/xml-events" xmlns:xlink="http://www.w3.org/1999/xlink">
	<defs/>
	<path d="M 0.0,0.0 L 160.0,0.0 L 160.0,160.0 L 0.0,160.0 L 0.0,0.0" fill="#F68D8D"/>
	<path d="M 0.0,0.0 L 160.0,0.0 L 160.0,160.0 L 0.0,160.0 L 0.0,0.0 M 12.0,24.0 L 6.0,28.0 L 4.0,32.0 L 4.0,127.0 L 7.0,133.0 L 12.0,136.0 L 147.0,136.0 L 153.0,133.0 L 156.0,127.0 L 156.0,32.0 L 153.0,27.0 L 147.0,24.0 L 12.0,24.0" fill="#FEFEFE"/>
	<path d="M 12.0,24.0 L 147.0,24.0 L 153.0,27.0 L 156.0,32.0 L 156.0,44.0 L 4.0,44.0 L 4.0,32.0 L 7.0,27.0 L 12.0,24.0" fill="#F68D8D"/>
	<path d="M 8.0,48.0 L 152.0,48.0 L 152.0,60.0 L 8.0,60.0 L 8.0,48.0" fill="#B4C7D4"/>
	<path d="M 4.0,44.0 L 156.0,44.0 L 156.0,64.0 L 4.0,64.0 L 4.0,44.0 M 8.0,48.0 L 8.0,60.0 L 152.0,60.0 L 152.0,48.0 L 8.0,48.0" fill="#788B9C"/>
	<path d="M 4.0,64.0 L 8.0,64.0 L 9.0,127.0 L 13.0,131.0 L 146.0,131.0 L 150.0,130.0 L 151.0,126.0 L 152.0,64.0 L 156.0,64.0 L 156.0,127.0 L 153.0,133.0 L 147.0,136.0 L 12.0,136.0 L 7.0,133.0 L 4.0,127.0 L 4.0,64.0" fill="#C74444"/>
	<path d="M 12.0,24.0 L 147.0,24.0 L 153.0,27.0 L 156.0,32.0 L 156.0,44.0 L 152.0,44.0 L 151.0,33.0 L 147.0,29.0 L 13.0,29.0 L 9.0,33.0 L 8.0,44.0 L 4.0,44.0 L 4.0,32.0 L 7.0,27.0 L 12.0,24.0" fill="#C74545"/>
	<path d="M 20.0,72.0 L 76.0,72.0 L 76.0,84.0 L 20.0,84.0 L 20.0,72.0" fill="#FEFEFE"/>
</svg>
