<?xml version="1.0" ?>
<svg baseProfile="full" height="600px" version="1.1" viewBox="-20.1 -20.1 240.2 240.2" width="600px" xmlns="http://www.w3.org/2000/svg" xmlns:ev="http://www.w3.org/2001/xml-events" xmlns:xlink="http://www.w3.org/1999/xlink">
	<defs/>
	<path d="M 0.0,0.0 L 200.0,0.0 L 200.0,200.0 L 0.0,200.0 L 0.0,0.0" fill="#FDFDFD"/>
	<path d="M 0.0,0.0 L 6.0,0.0 L 41.0,35.0 L 177.0,36.0 L 185.0,40.0 L 191.0,48.0 L 192.0,51.0 L 192.0,149.0 L 188.0,157.0 L 182.0,162.0 L 177.0,164.0 L 23.0,164.0 L 15.0,160.0 L 9.0,152.0 L 8.0,149.0 L 8.0,51.0 L 12.0,43.0 L 18.0,38.0 L 22.0,40.0 L 25.0,44.0 L 18.0,50.0 L 17.0,52.0 L 16.0,64.0 L 46.0,64.0 L 65.0,83.0 L 65.0,84.0 L 16.0,84.0 L 17.0,147.0 L 20.0,152.0 L 24.0,155.0 L 176.0,155.0 L 182.0,150.0 L 183.0,148.0 L 184.0,84.0 L 91.0,85.0 L 104.0,98.0 L 103.0,103.0 L 98.0,104.0 L 0.0,6.0 L 0.0,0.0" fill="#010101"/>
	<path d="M 50.0,44.0 L 175.0,44.0 L 180.0,47.0 L 184.0,52.0 L 184.0,64.0 L 69.0,64.0 L 50.0,45.0 L 50.0,44.0" fill="#FCFCFC"/>
	<path d="M 36.0,96.0 L 78.0,96.0 L 85.0,103.0 L 85.0,104.0 L 36.0,104.0 L 36.0,96.0" fill="#000000"/>
</svg>
