<?xml version="1.0" ?>
<svg baseProfile="full" height="600px" version="1.1" viewBox="-16.08 -16.08 192.16 192.16" width="600px" xmlns="http://www.w3.org/2000/svg" xmlns:ev="http://www.w3.org/2001/xml-events" xmlns:xlink="http://www.w3.org/1999/xlink">
	<defs/>
	<path d="M 0.0,0.0 L 160.0,0.0 L 160.0,160.0 L 0.0,160.0 L 0.0,0.0" fill="#F58C8D"/>
	<path d="M 0.0,0.0 L 160.0,0.0 L 160.0,160.0 L 0.0,160.0 L 0.0,0.0 M 12.0,24.0 L 6.0,28.0 L 4.0,32.0 L 4.0,127.0 L 7.0,133.0 L 12.0,136.0 L 134.0,137.0 L 146.0,149.0 L 149.0,148.0 L 147.0,144.0 L 140.0,137.0 L 150.0,135.0 L 155.0,130.0 L 156.0,127.0 L 156.0,32.0 L 153.0,27.0 L 147.0,24.0 L 12.0,24.0" fill="#FEFEFE"/>
	<path d="M 8.0,64.0 L 62.0,64.0 L 128.0,130.0 L 128.0,132.0 L 13.0,132.0 L 8.0,127.0 L 8.0,64.0" fill="#F58D8D"/>
	<path d="M 67.0,64.0 L 152.0,64.0 L 152.0,126.0 L 149.0,131.0 L 146.0,132.0 L 134.0,132.0 L 67.0,65.0 L 67.0,64.0" fill="#F48D8D"/>
	<path d="M 34.0,32.0 L 41.0,38.0 L 134.0,131.0 L 146.0,131.0 L 150.0,129.0 L 151.0,126.0 L 152.0,64.0 L 156.0,64.0 L 156.0,127.0 L 153.0,133.0 L 147.0,136.0 L 140.0,137.0 L 149.0,146.0 L 148.0,149.0 L 144.0,147.0 L 134.0,137.0 L 12.0,136.0 L 7.0,133.0 L 4.0,127.0 L 4.0,64.0 L 8.0,64.0 L 9.0,127.0 L 13.0,131.0 L 128.0,132.0 L 121.0,124.0 L 32.0,35.0 L 34.0,32.0" fill="#37414D"/>
	<path d="M 52.0,48.0 L 152.0,48.0 L 152.0,60.0 L 62.0,60.0 L 52.0,50.0 L 52.0,48.0" fill="#B3C6D3"/>
	<path d="M 47.0,44.0 L 156.0,44.0 L 156.0,64.0 L 66.0,64.0 L 63.0,60.0 L 152.0,60.0 L 152.0,48.0 L 51.0,49.0 L 47.0,44.0" fill="#778A9B"/>
	<path d="M 4.0,64.0 L 8.0,64.0 L 9.0,127.0 L 13.0,131.0 L 129.0,131.0 L 133.0,136.0 L 12.0,136.0 L 7.0,133.0 L 4.0,127.0 L 4.0,64.0" fill="#C74444"/>
	<path d="M 12.0,24.0 L 147.0,24.0 L 153.0,27.0 L 156.0,32.0 L 156.0,44.0 L 152.0,44.0 L 151.0,33.0 L 147.0,29.0 L 13.0,29.0 L 9.0,33.0 L 8.0,44.0 L 4.0,44.0 L 4.0,32.0 L 7.0,27.0 L 12.0,24.0" fill="#C74545"/>
	<path d="M 20.0,72.0 L 70.0,72.0 L 76.0,78.0 L 76.0,84.0 L 20.0,84.0 L 20.0,72.0" fill="#FDFDFD"/>
	<path d="M 8.0,48.0 L 46.0,48.0 L 56.0,58.0 L 56.0,60.0 L 8.0,60.0 L 8.0,48.0" fill="#B3C6D3"/>
	<path d="M 40.0,43.0 L 45.0,48.0 L 8.0,48.0 L 8.0,60.0 L 57.0,59.0 L 61.0,64.0 L 4.0,64.0 L 4.0,44.0 L 40.0,43.0" fill="#778A9B"/>
	<path d="M 152.0,64.0 L 156.0,64.0 L 156.0,127.0 L 153.0,133.0 L 147.0,136.0 L 138.0,136.0 L 135.0,132.0 L 146.0,131.0 L 150.0,129.0 L 151.0,126.0 L 152.0,64.0" fill="#C74545"/>
</svg>
