<?xml version="1.0" ?>
<svg baseProfile="full" height="600px" version="1.1" viewBox="-16.08 -16.08 192.16 192.16" width="600px" xmlns="http://www.w3.org/2000/svg" xmlns:ev="http://www.w3.org/2001/xml-events" xmlns:xlink="http://www.w3.org/1999/xlink">
	<defs/>
	<path d="M 0.0,0.0 L 160.0,0.0 L 160.0,160.0 L 0.0,160.0 L 0.0,0.0" fill="#FDECA1"/>
	<path d="M 0.0,0.0 L 160.0,0.0 L 160.0,160.0 L 0.0,160.0 L 0.0,0.0 M 73.0,29.0 L 60.0,34.0 L 33.0,47.0 L 28.0,48.0 L 28.0,50.0 L 22.0,52.0 L 5.0,60.0 L 4.0,61.0 L 4.0,152.0 L 156.0,152.0 L 156.0,61.0 L 140.0,53.0 L 133.0,50.0 L 132.0,48.0 L 123.0,45.0 L 91.0,30.0 L 88.0,29.0 L 73.0,29.0" fill="#FDFDFD"/>
	<path d="M 73.0,29.0 L 88.0,29.0 L 106.0,37.0 L 127.0,47.0 L 132.0,48.0 L 133.0,50.0 L 155.0,60.0 L 156.0,61.0 L 156.0,152.0 L 4.0,152.0 L 4.0,61.0 L 20.0,53.0 L 26.0,50.0 L 28.0,50.0 L 28.0,48.0 L 37.0,45.0 L 69.0,30.0 L 73.0,29.0 M 8.0,65.0 L 8.0,148.0 L 152.0,148.0 L 152.0,65.0 L 141.0,72.0 L 123.0,85.0 L 109.0,95.0 L 51.0,95.0 L 33.0,82.0 L 17.0,71.0 L 8.0,65.0" fill="#BB9D4B"/>
	<path d="M 32.0,52.0 L 128.0,52.0 L 128.0,77.0 L 112.0,89.0 L 107.0,92.0 L 53.0,92.0 L 37.0,81.0 L 32.0,77.0 L 32.0,52.0" fill="#FDFDFD"/>
	<path d="M 73.0,29.0 L 88.0,29.0 L 106.0,37.0 L 127.0,47.0 L 132.0,48.0 L 132.0,74.0 L 128.0,76.0 L 128.0,52.0 L 32.0,52.0 L 32.0,77.0 L 28.0,75.0 L 28.0,48.0 L 37.0,45.0 L 69.0,30.0 L 73.0,29.0" fill="#788B9B"/>
	<path d="M 74.0,33.0 L 86.0,33.0 L 96.0,37.0 L 116.0,46.0 L 117.0,48.0 L 42.0,48.0 L 45.0,46.0 L 70.0,34.0 L 74.0,33.0" fill="#FDF8DC"/>
	<path d="M 73.0,29.0 L 88.0,29.0 L 106.0,37.0 L 127.0,47.0 L 127.0,48.0 L 117.0,48.0 L 101.0,40.0 L 90.0,35.0 L 86.0,34.0 L 74.0,34.0 L 61.0,39.0 L 42.0,48.0 L 33.0,48.0 L 37.0,45.0 L 69.0,30.0 L 73.0,29.0" fill="#BEA152"/>
	<path d="M 49.0,72.0 L 111.0,72.0 L 111.0,76.0 L 49.0,76.0 L 49.0,72.0" fill="#C5D4DE"/>
	<path d="M 49.0,84.0 L 95.0,84.0 L 95.0,88.0 L 48.0,89.0 L 47.0,87.0 L 49.0,84.0" fill="#C6D5DE"/>
	<path d="M 25.0,55.0 L 28.0,55.0 L 28.0,74.0 L 21.0,70.0 L 11.0,63.0 L 15.0,60.0 L 25.0,55.0" fill="#FCF6D9"/>
	<path d="M 132.0,55.0 L 141.0,58.0 L 148.0,62.0 L 143.0,67.0 L 132.0,74.0 L 132.0,55.0" fill="#FCF6DA"/>
</svg>
