<?xml version="1.0" ?>
<svg baseProfile="full" height="600px" version="1.1" viewBox="-20.1 -20.1 240.2 240.2" width="600px" xmlns="http://www.w3.org/2000/svg" xmlns:ev="http://www.w3.org/2001/xml-events" xmlns:xlink="http://www.w3.org/1999/xlink">
	<defs/>
	<path d="M 0.0,0.0 L 200.0,0.0 L 200.0,200.0 L 0.0,200.0 L 0.0,0.0" fill="#060606"/>
	<path d="M 95.0,116.0 L 104.0,116.0 L 113.0,120.0 L 128.0,132.0 L 145.0,145.0 L 160.0,157.0 L 177.0,170.0 L 192.0,182.0 L 192.0,192.0 L 8.0,192.0 L 8.0,182.0 L 24.0,169.0 L 40.0,157.0 L 56.0,144.0 L 69.0,134.0 L 87.0,120.0 L 95.0,116.0" fill="#FDFDFD"/>
	<path d="M 0.0,0.0 L 200.0,0.0 L 200.0,79.0 L 195.0,74.0 L 185.0,65.0 L 174.0,56.0 L 161.0,44.0 L 150.0,35.0 L 137.0,23.0 L 126.0,14.0 L 117.0,6.0 L 108.0,2.0 L 92.0,2.0 L 82.0,7.0 L 72.0,16.0 L 61.0,25.0 L 49.0,36.0 L 38.0,45.0 L 25.0,57.0 L 17.0,64.0 L 3.0,76.0 L 0.0,79.0 L 0.0,0.0" fill="#FCFCFC"/>
	<path d="M 93.0,9.0 L 105.0,9.0 L 112.0,12.0 L 123.0,21.0 L 133.0,30.0 L 144.0,39.0 L 157.0,51.0 L 168.0,60.0 L 181.0,72.0 L 189.0,79.0 L 191.0,83.0 L 174.0,97.0 L 170.0,100.0 L 168.0,100.0 L 167.0,64.0 L 165.0,63.0 L 34.0,63.0 L 33.0,64.0 L 32.0,100.0 L 28.0,98.0 L 14.0,87.0 L 9.0,83.0 L 11.0,79.0 L 25.0,66.0 L 36.0,57.0 L 49.0,45.0 L 60.0,36.0 L 73.0,24.0 L 84.0,15.0 L 93.0,9.0" fill="#FCFCFC"/>
	<path d="M 40.0,70.0 L 160.0,70.0 L 160.0,108.0 L 147.0,118.0 L 142.0,122.0 L 127.0,122.0 L 117.0,114.0 L 111.0,111.0 L 111.0,110.0 L 143.0,110.0 L 143.0,104.0 L 142.0,103.0 L 58.0,103.0 L 57.0,108.0 L 57.0,110.0 L 88.0,110.0 L 87.0,112.0 L 80.0,116.0 L 73.0,122.0 L 58.0,122.0 L 42.0,109.0 L 40.0,108.0 L 40.0,70.0" fill="#F5F5F5"/>
	<path d="M 190.0,93.0 L 192.0,93.0 L 192.0,172.0 L 184.0,166.0 L 171.0,156.0 L 153.0,142.0 L 141.0,133.0 L 146.0,128.0 L 161.0,116.0 L 175.0,105.0 L 189.0,94.0 L 190.0,93.0" fill="#FBFBFB"/>
	<path d="M 8.0,93.0 L 12.0,95.0 L 26.0,106.0 L 41.0,118.0 L 55.0,129.0 L 58.0,131.0 L 56.0,135.0 L 41.0,147.0 L 28.0,157.0 L 14.0,168.0 L 8.0,172.0 L 8.0,93.0" fill="#FCFCFC"/>
	<path d="M 58.0,82.0 L 142.0,82.0 L 144.0,84.0 L 143.0,90.0 L 57.0,90.0 L 56.0,84.0 L 58.0,82.0" fill="#0D0D0D"/>
</svg>
