<?xml version="1.0" ?>
<svg baseProfile="full" height="600px" version="1.1" viewBox="-20.1 -20.1 240.2 240.2" width="600px" xmlns="http://www.w3.org/2000/svg" xmlns:ev="http://www.w3.org/2001/xml-events" xmlns:xlink="http://www.w3.org/1999/xlink">
	<defs/>
	<path d="M 0.0,0.0 L 200.0,0.0 L 200.0,200.0 L 0.0,200.0 L 0.0,0.0" fill="#FDFDFD"/>
	<path d="M 96.0,20.0 L 103.0,20.0 L 109.0,23.0 L 112.0,28.0 L 113.0,32.0 L 116.0,68.0 L 118.0,70.0 L 118.0,186.0 L 116.0,188.0 L 84.0,188.0 L 82.0,186.0 L 82.0,70.0 L 84.0,65.0 L 88.0,28.0 L 91.0,23.0 L 96.0,20.0" fill="#070707"/>
	<path d="M 90.0,76.0 L 109.0,76.0 L 109.0,124.0 L 108.0,124.0 L 107.0,109.0 L 107.0,134.0 L 108.0,134.0 L 108.0,152.0 L 110.0,152.0 L 110.0,180.0 L 90.0,180.0 L 90.0,151.0 L 92.0,151.0 L 92.0,144.0 L 91.0,144.0 L 91.0,112.0 L 92.0,112.0 L 92.0,105.0 L 90.0,105.0 L 90.0,76.0" fill="#EEEEEE"/>
	<path d="M 90.0,76.0 L 109.0,76.0 L 109.0,124.0 L 108.0,124.0 L 107.0,104.0 L 100.0,104.0 L 100.0,113.0 L 99.0,113.0 L 97.0,105.0 L 94.0,104.0 L 93.0,107.0 L 91.0,105.0 L 90.0,105.0 L 90.0,76.0" fill="#F8F8F8"/>
	<path d="M 95.0,43.0 L 106.0,43.0 L 107.0,57.0 L 107.0,68.0 L 92.0,68.0 L 94.0,49.0 L 95.0,43.0" fill="#F6F6F6"/>
	<path d="M 95.0,104.0 L 98.0,105.0 L 99.0,108.0 L 100.0,104.0 L 104.0,104.0 L 104.0,112.0 L 102.0,112.0 L 102.0,124.0 L 104.0,124.0 L 104.0,132.0 L 102.0,132.0 L 102.0,144.0 L 104.0,144.0 L 104.0,152.0 L 100.0,152.0 L 99.0,132.0 L 97.0,136.0 L 96.0,152.0 L 95.0,152.0 L 95.0,104.0" fill="#707070"/>
	<path d="M 93.0,109.0 L 94.0,109.0 L 94.0,146.0 L 91.0,144.0 L 91.0,112.0 L 93.0,109.0" fill="#8E8E8E"/>
	<path d="M 101.0,104.0 L 104.0,104.0 L 104.0,112.0 L 102.0,112.0 L 102.0,124.0 L 104.0,124.0 L 104.0,132.0 L 102.0,132.0 L 102.0,144.0 L 104.0,144.0 L 104.0,152.0 L 101.0,152.0 L 101.0,104.0" fill="#191919"/>
	<path d="M 102.0,112.0 L 105.0,112.0 L 105.0,144.0 L 102.0,144.0 L 102.0,132.0 L 104.0,132.0 L 104.0,124.0 L 102.0,124.0 L 102.0,112.0" fill="#FCFCFC"/>
	<path d="M 106.0,104.0 L 107.0,104.0 L 108.0,109.0 L 109.0,130.0 L 108.0,134.0 L 107.0,152.0 L 106.0,152.0 L 106.0,104.0" fill="#191919"/>
	<path d="M 95.0,104.0 L 98.0,105.0 L 99.0,108.0 L 99.0,127.0 L 98.0,127.0 L 97.0,113.0 L 96.0,127.0 L 95.0,127.0 L 95.0,104.0" fill="#050505"/>
	<path d="M 98.0,28.0 L 103.0,29.0 L 104.0,34.0 L 102.0,36.0 L 97.0,35.0 L 96.0,30.0 L 98.0,28.0" fill="#EAEAEA"/>
	<path d="M 101.0,144.0 L 104.0,144.0 L 104.0,152.0 L 101.0,152.0 L 101.0,144.0" fill="#000000"/>
	<path d="M 101.0,104.0 L 104.0,104.0 L 104.0,112.0 L 101.0,112.0 L 101.0,104.0" fill="#000000"/>
</svg>
