<?xml version="1.0" ?>
<svg baseProfile="full" height="600px" version="1.1" viewBox="-20.1 -20.1 240.2 240.2" width="600px" xmlns="http://www.w3.org/2000/svg" xmlns:ev="http://www.w3.org/2001/xml-events" xmlns:xlink="http://www.w3.org/1999/xlink">
	<defs/>
	<path d="M 0.0,0.0 L 200.0,0.0 L 200.0,200.0 L 0.0,200.0 L 0.0,0.0" fill="#040404"/>
	<path d="M 0.0,0.0 L 200.0,0.0 L 200.0,76.0 L 195.0,73.0 L 157.0,65.0 L 127.0,59.0 L 117.0,57.0 L 88.0,57.0 L 64.0,61.0 L 32.0,68.0 L 6.0,73.0 L 2.0,75.0 L 0.0,77.0 L 0.0,0.0" fill="#FDFDFD"/>
	<path d="M 95.0,116.0 L 104.0,116.0 L 113.0,120.0 L 128.0,132.0 L 145.0,145.0 L 160.0,157.0 L 177.0,170.0 L 192.0,182.0 L 192.0,192.0 L 8.0,192.0 L 8.0,182.0 L 24.0,169.0 L 37.0,159.0 L 55.0,145.0 L 69.0,134.0 L 87.0,120.0 L 95.0,116.0" fill="#FCFCFC"/>
	<path d="M 89.0,64.0 L 112.0,64.0 L 130.0,67.0 L 161.0,73.0 L 189.0,79.0 L 192.0,80.0 L 190.0,84.0 L 174.0,97.0 L 170.0,100.0 L 168.0,100.0 L 167.0,89.0 L 166.0,88.0 L 34.0,88.0 L 33.0,89.0 L 32.0,100.0 L 28.0,98.0 L 14.0,87.0 L 8.0,82.0 L 8.0,80.0 L 62.0,69.0 L 82.0,65.0 L 89.0,64.0" fill="#F9F9F9"/>
	<path d="M 190.0,93.0 L 192.0,93.0 L 192.0,172.0 L 184.0,166.0 L 171.0,156.0 L 153.0,142.0 L 141.0,133.0 L 146.0,128.0 L 161.0,116.0 L 175.0,105.0 L 189.0,94.0 L 190.0,93.0" fill="#FBFBFB"/>
	<path d="M 8.0,93.0 L 12.0,95.0 L 26.0,106.0 L 41.0,118.0 L 55.0,129.0 L 58.0,131.0 L 56.0,135.0 L 41.0,147.0 L 28.0,157.0 L 14.0,168.0 L 8.0,172.0 L 8.0,93.0" fill="#FCFCFC"/>
	<path d="M 40.0,95.0 L 160.0,95.0 L 160.0,108.0 L 147.0,118.0 L 135.0,127.0 L 130.0,124.0 L 120.0,116.0 L 120.0,115.0 L 142.0,114.0 L 143.0,109.0 L 142.0,108.0 L 58.0,108.0 L 57.0,113.0 L 58.0,114.0 L 80.0,115.0 L 75.0,120.0 L 66.0,127.0 L 62.0,125.0 L 47.0,113.0 L 40.0,108.0 L 40.0,95.0" fill="#FAFAFA"/>
</svg>
