<?xml version="1.0" ?>
<svg baseProfile="full" height="600px" version="1.1" viewBox="-16.08 -16.08 192.16 192.16" width="600px" xmlns="http://www.w3.org/2000/svg" xmlns:ev="http://www.w3.org/2001/xml-events" xmlns:xlink="http://www.w3.org/1999/xlink">
	<defs/>
	<path d="M 0.0,0.0 L 160.0,0.0 L 160.0,160.0 L 0.0,160.0 L 0.0,0.0" fill="#FDECA1"/>
	<path d="M 0.0,0.0 L 160.0,0.0 L 160.0,160.0 L 0.0,160.0 L 0.0,0.0 M 74.0,15.0 L 66.0,19.0 L 56.0,26.0 L 28.0,27.0 L 28.0,46.0 L 23.0,48.0 L 4.0,61.0 L 4.0,152.0 L 156.0,152.0 L 156.0,61.0 L 134.0,46.0 L 132.0,46.0 L 132.0,27.0 L 104.0,26.0 L 91.0,17.0 L 84.0,15.0 L 74.0,15.0" fill="#FDFDFD"/>
	<path d="M 32.0,31.0 L 128.0,31.0 L 128.0,77.0 L 112.0,89.0 L 107.0,92.0 L 53.0,92.0 L 37.0,81.0 L 32.0,77.0 L 32.0,31.0" fill="#FBFCFC"/>
	<path d="M 74.0,15.0 L 84.0,15.0 L 93.0,18.0 L 104.0,26.0 L 132.0,27.0 L 132.0,46.0 L 137.0,48.0 L 153.0,59.0 L 156.0,61.0 L 156.0,152.0 L 4.0,152.0 L 4.0,61.0 L 26.0,46.0 L 28.0,46.0 L 28.0,27.0 L 56.0,26.0 L 71.0,16.0 L 74.0,15.0 M 32.0,31.0 L 32.0,77.0 L 45.0,87.0 L 53.0,92.0 L 107.0,92.0 L 126.0,79.0 L 128.0,77.0 L 128.0,31.0 L 32.0,31.0 M 8.0,65.0 L 8.0,148.0 L 152.0,148.0 L 152.0,65.0 L 141.0,72.0 L 123.0,85.0 L 109.0,95.0 L 51.0,95.0 L 33.0,82.0 L 17.0,71.0 L 8.0,65.0" fill="#BC9D4B"/>
	<path d="M 74.0,15.0 L 84.0,15.0 L 93.0,18.0 L 104.0,26.0 L 132.0,27.0 L 132.0,51.0 L 137.0,53.0 L 149.0,61.0 L 149.0,63.0 L 137.0,71.0 L 130.0,76.0 L 128.0,76.0 L 128.0,31.0 L 32.0,31.0 L 32.0,77.0 L 21.0,70.0 L 11.0,63.0 L 11.0,61.0 L 26.0,51.0 L 27.0,50.0 L 28.0,27.0 L 56.0,26.0 L 71.0,16.0 L 74.0,15.0" fill="#7D8F9E"/>
	<path d="M 74.0,15.0 L 84.0,15.0 L 93.0,18.0 L 104.0,26.0 L 104.0,27.0 L 56.0,27.0 L 60.0,23.0 L 71.0,16.0 L 74.0,15.0" fill="#BEA152"/>
	<path d="M 49.0,75.0 L 111.0,75.0 L 112.0,79.0 L 48.0,79.0 L 49.0,75.0" fill="#CAD8E1"/>
	<path d="M 49.0,51.0 L 111.0,51.0 L 112.0,55.0 L 48.0,55.0 L 49.0,51.0" fill="#CAD8E1"/>
	<path d="M 27.0,50.0 L 28.0,50.0 L 28.0,74.0 L 21.0,70.0 L 11.0,63.0 L 11.0,61.0 L 26.0,51.0 L 27.0,50.0" fill="#FDF7DB"/>
	<path d="M 132.0,51.0 L 137.0,53.0 L 149.0,61.0 L 149.0,63.0 L 137.0,71.0 L 132.0,74.0 L 132.0,51.0" fill="#FCF6DA"/>
	<path d="M 49.0,63.0 L 95.0,63.0 L 96.0,67.0 L 48.0,67.0 L 49.0,63.0" fill="#CAD8E1"/>
	<path d="M 75.0,19.0 L 85.0,19.0 L 93.0,23.0 L 97.0,27.0 L 63.0,27.0 L 68.0,23.0 L 72.0,20.0 L 75.0,19.0" fill="#FBF5D8"/>
</svg>
