<?xml version="1.0" ?>
<svg baseProfile="full" height="600px" version="1.1" viewBox="-16.08 -16.08 192.16 192.16" width="600px" xmlns="http://www.w3.org/2000/svg" xmlns:ev="http://www.w3.org/2001/xml-events" xmlns:xlink="http://www.w3.org/1999/xlink">
	<defs/>
	<path d="M 0.0,0.0 L 160.0,0.0 L 160.0,160.0 L 0.0,160.0 L 0.0,0.0" fill="#FDECA1"/>
	<path d="M 0.0,0.0 L 160.0,0.0 L 160.0,160.0 L 0.0,160.0 L 0.0,0.0 M 72.0,12.0 L 63.0,18.0 L 56.0,23.0 L 28.0,24.0 L 27.0,44.0 L 11.0,56.0 L 4.0,61.0 L 4.0,152.0 L 156.0,152.0 L 156.0,61.0 L 138.0,48.0 L 133.0,44.0 L 132.0,24.0 L 104.0,23.0 L 90.0,13.0 L 87.0,12.0 L 72.0,12.0" fill="#FDFDFD"/>
	<path d="M 32.0,28.0 L 128.0,28.0 L 128.0,77.0 L 112.0,89.0 L 107.0,92.0 L 53.0,92.0 L 37.0,81.0 L 32.0,77.0 L 32.0,28.0" fill="#FDFDFD"/>
	<path d="M 72.0,12.0 L 87.0,12.0 L 93.0,15.0 L 104.0,23.0 L 132.0,24.0 L 133.0,44.0 L 146.0,54.0 L 156.0,61.0 L 156.0,152.0 L 4.0,152.0 L 4.0,61.0 L 23.0,47.0 L 27.0,44.0 L 28.0,24.0 L 56.0,23.0 L 70.0,13.0 L 72.0,12.0 M 32.0,28.0 L 32.0,77.0 L 45.0,87.0 L 53.0,92.0 L 107.0,92.0 L 126.0,79.0 L 128.0,77.0 L 128.0,28.0 L 32.0,28.0 M 8.0,65.0 L 8.0,148.0 L 152.0,148.0 L 152.0,65.0 L 141.0,72.0 L 123.0,85.0 L 109.0,95.0 L 51.0,95.0 L 33.0,82.0 L 17.0,71.0 L 8.0,65.0" fill="#BB9D4B"/>
	<path d="M 72.0,12.0 L 87.0,12.0 L 93.0,15.0 L 104.0,23.0 L 132.0,24.0 L 132.0,74.0 L 128.0,76.0 L 128.0,28.0 L 32.0,28.0 L 32.0,77.0 L 28.0,75.0 L 28.0,24.0 L 56.0,23.0 L 70.0,13.0 L 72.0,12.0" fill="#788B9B"/>
	<path d="M 72.0,12.0 L 87.0,12.0 L 93.0,15.0 L 104.0,23.0 L 104.0,24.0 L 56.0,24.0 L 60.0,20.0 L 70.0,13.0 L 72.0,12.0" fill="#BFA254"/>
	<path d="M 49.0,72.0 L 111.0,72.0 L 111.0,76.0 L 49.0,76.0 L 49.0,72.0" fill="#C5D4DE"/>
	<path d="M 49.0,48.0 L 111.0,48.0 L 111.0,52.0 L 49.0,52.0 L 49.0,48.0" fill="#C5D4DE"/>
	<path d="M 27.0,49.0 L 28.0,49.0 L 28.0,74.0 L 21.0,70.0 L 11.0,63.0 L 12.0,60.0 L 26.0,50.0 L 27.0,49.0" fill="#FCF7DA"/>
	<path d="M 132.0,49.0 L 141.0,55.0 L 149.0,61.0 L 144.0,66.0 L 133.0,74.0 L 132.0,74.0 L 132.0,49.0" fill="#FCF6DA"/>
	<path d="M 75.0,16.0 L 86.0,16.0 L 97.0,23.0 L 97.0,24.0 L 63.0,24.0 L 68.0,19.0 L 75.0,16.0" fill="#FDF7DB"/>
	<path d="M 49.0,60.0 L 95.0,60.0 L 95.0,64.0 L 49.0,64.0 L 49.0,60.0" fill="#C6D4DE"/>
</svg>
