<?xml version="1.0" ?>
<svg baseProfile="full" height="600px" version="1.1" viewBox="-20.1 -20.1 240.2 240.2" width="600px" xmlns="http://www.w3.org/2000/svg" xmlns:ev="http://www.w3.org/2001/xml-events" xmlns:xlink="http://www.w3.org/1999/xlink">
	<defs/>
	<path d="M 0.0,0.0 L 200.0,0.0 L 200.0,200.0 L 0.0,200.0 L 0.0,0.0" fill="#030303"/>
	<path d="M 0.0,0.0 L 200.0,0.0 L 200.0,200.0 L 0.0,200.0 L 0.0,0.0 M 28.0,8.0 L 28.0,192.0 L 172.0,192.0 L 172.0,8.0 L 28.0,8.0" fill="#FDFDFD"/>
	<path d="M 36.0,25.0 L 40.0,29.0 L 52.0,46.0 L 65.0,64.0 L 78.0,82.0 L 86.0,93.0 L 85.0,97.0 L 85.0,111.0 L 86.0,117.0 L 81.0,131.0 L 81.0,141.0 L 85.0,149.0 L 92.0,154.0 L 95.0,155.0 L 105.0,155.0 L 113.0,151.0 L 117.0,146.0 L 119.0,141.0 L 119.0,131.0 L 114.0,117.0 L 115.0,110.0 L 115.0,97.0 L 114.0,93.0 L 126.0,77.0 L 138.0,60.0 L 151.0,42.0 L 163.0,25.0 L 164.0,25.0 L 164.0,184.0 L 36.0,184.0 L 36.0,25.0" fill="#FCFCFC"/>
	<path d="M 40.0,16.0 L 160.0,16.0 L 153.0,27.0 L 149.0,31.0 L 144.0,28.0 L 141.0,32.0 L 143.0,36.0 L 143.0,40.0 L 142.0,42.0 L 138.0,41.0 L 135.0,39.0 L 133.0,44.0 L 132.0,46.0 L 136.0,50.0 L 132.0,54.0 L 127.0,52.0 L 123.0,58.0 L 127.0,60.0 L 126.0,64.0 L 125.0,66.0 L 118.0,64.0 L 116.0,67.0 L 116.0,70.0 L 119.0,72.0 L 117.0,77.0 L 114.0,77.0 L 110.0,75.0 L 107.0,81.0 L 111.0,85.0 L 106.0,92.0 L 94.0,92.0 L 89.0,84.0 L 93.0,80.0 L 89.0,75.0 L 84.0,78.0 L 81.0,74.0 L 82.0,71.0 L 84.0,70.0 L 83.0,66.0 L 82.0,64.0 L 75.0,66.0 L 73.0,63.0 L 74.0,59.0 L 77.0,58.0 L 73.0,52.0 L 67.0,54.0 L 64.0,49.0 L 68.0,45.0 L 65.0,41.0 L 65.0,39.0 L 61.0,42.0 L 57.0,41.0 L 56.0,37.0 L 59.0,34.0 L 57.0,30.0 L 55.0,28.0 L 50.0,30.0 L 42.0,20.0 L 40.0,16.0" fill="#FBFBFB"/>
	<path d="M 95.0,116.0 L 106.0,116.0 L 112.0,133.0 L 111.0,142.0 L 104.0,148.0 L 96.0,148.0 L 89.0,142.0 L 88.0,140.0 L 88.0,133.0 L 94.0,117.0 L 95.0,116.0" fill="#F6F6F6"/>
	<path d="M 92.0,100.0 L 108.0,100.0 L 108.0,108.0 L 92.0,108.0 L 92.0,100.0" fill="#FDFDFD"/>
	<path d="M 98.0,131.0 L 104.0,132.0 L 106.0,135.0 L 105.0,140.0 L 103.0,142.0 L 97.0,142.0 L 94.0,139.0 L 95.0,133.0 L 98.0,131.0" fill="#121212"/>
</svg>
