<?xml version="1.0" ?>
<svg baseProfile="full" height="600px" version="1.1" viewBox="-20.1 -20.1 240.2 240.2" width="600px" xmlns="http://www.w3.org/2000/svg" xmlns:ev="http://www.w3.org/2001/xml-events" xmlns:xlink="http://www.w3.org/1999/xlink">
	<defs/>
	<path d="M 0.0,0.0 L 200.0,0.0 L 200.0,200.0 L 0.0,200.0 L 0.0,0.0" fill="#FCFCFC"/>
	<path d="M 0.0,0.0 L 200.0,0.0 L 200.0,37.0 L 186.0,52.0 L 182.0,56.0 L 180.0,57.0 L 20.0,57.0 L 15.0,54.0 L 6.0,44.0 L 0.0,37.0 L 0.0,0.0" fill="#040404"/>
	<path d="M 17.0,61.0 L 22.0,61.0 L 24.0,63.0 L 24.0,191.0 L 176.0,191.0 L 176.0,63.0 L 178.0,61.0 L 183.0,61.0 L 184.0,62.0 L 184.0,199.0 L 16.0,199.0 L 16.0,62.0 L 17.0,61.0" fill="#050505"/>
	<path d="M 8.0,13.0 L 192.0,13.0 L 192.0,30.0 L 8.0,30.0 L 8.0,13.0" fill="#FDFDFD"/>
	<path d="M 66.0,84.0 L 133.0,84.0 L 141.0,89.0 L 143.0,92.0 L 143.0,103.0 L 139.0,109.0 L 134.0,112.0 L 66.0,112.0 L 60.0,108.0 L 57.0,103.0 L 57.0,93.0 L 61.0,87.0 L 66.0,84.0" fill="#050505"/>
	<path d="M 13.0,38.0 L 187.0,38.0 L 181.0,46.0 L 178.0,49.0 L 22.0,49.0 L 13.0,39.0 L 13.0,38.0" fill="#F3F3F3"/>
	<path d="M 0.0,0.0 L 200.0,0.0 L 200.0,6.0 L 0.0,6.0 L 0.0,0.0" fill="#FAFAFA"/>
	<path d="M 68.0,92.0 L 132.0,92.0 L 135.0,95.0 L 135.0,102.0 L 132.0,104.0 L 68.0,104.0 L 65.0,102.0 L 65.0,95.0 L 68.0,92.0" fill="#F9F9F9"/>
</svg>
