<?xml version="1.0" ?>
<svg baseProfile="full" height="600px" version="1.1" viewBox="-20.1 -20.1 240.2 240.2" width="600px" xmlns="http://www.w3.org/2000/svg" xmlns:ev="http://www.w3.org/2001/xml-events" xmlns:xlink="http://www.w3.org/1999/xlink">
	<defs/>
	<path d="M 0.0,0.0 L 200.0,0.0 L 200.0,200.0 L 0.0,200.0 L 0.0,0.0" fill="#FDFDFD"/>
	<path d="M 36.0,16.0 L 85.0,16.0 L 85.0,49.0 L 86.0,55.0 L 81.0,70.0 L 81.0,80.0 L 84.0,86.0 L 85.0,89.0 L 89.0,91.0 L 90.0,110.0 L 91.0,111.0 L 109.0,111.0 L 110.0,110.0 L 111.0,91.0 L 115.0,89.0 L 117.0,84.0 L 119.0,80.0 L 119.0,70.0 L 114.0,56.0 L 115.0,49.0 L 115.0,24.0 L 116.0,16.0 L 164.0,16.0 L 164.0,184.0 L 36.0,184.0 L 36.0,16.0" fill="#FDFDFD"/>
	<path d="M 28.0,8.0 L 172.0,8.0 L 172.0,192.0 L 28.0,192.0 L 28.0,8.0 M 36.0,16.0 L 36.0,184.0 L 164.0,184.0 L 164.0,16.0 L 116.0,16.0 L 115.0,24.0 L 115.0,49.0 L 114.0,56.0 L 117.0,63.0 L 119.0,70.0 L 119.0,80.0 L 115.0,87.0 L 115.0,89.0 L 111.0,91.0 L 110.0,110.0 L 109.0,111.0 L 91.0,111.0 L 90.0,110.0 L 89.0,91.0 L 85.0,89.0 L 83.0,85.0 L 81.0,80.0 L 81.0,70.0 L 86.0,55.0 L 85.0,49.0 L 85.0,16.0 L 36.0,16.0" fill="#020202"/>
	<path d="M 94.0,55.0 L 106.0,55.0 L 112.0,71.0 L 112.0,79.0 L 107.0,85.0 L 105.0,86.0 L 95.0,86.0 L 90.0,82.0 L 88.0,79.0 L 88.0,71.0 L 94.0,55.0" fill="#F5F5F5"/>
	<path d="M 92.0,39.0 L 108.0,39.0 L 108.0,46.0 L 92.0,46.0 L 92.0,39.0" fill="#FDFDFD"/>
	<path d="M 97.0,70.0 L 103.0,70.0 L 106.0,73.0 L 105.0,79.0 L 102.0,81.0 L 96.0,80.0 L 94.0,77.0 L 95.0,72.0 L 97.0,70.0" fill="#121212"/>
	<path d="M 93.0,22.0 L 107.0,22.0 L 107.0,29.0 L 93.0,29.0 L 93.0,22.0" fill="#E4E4E4"/>
	<path d="M 98.0,96.0 L 102.0,96.0 L 102.0,104.0 L 98.0,104.0 L 98.0,96.0" fill="#F7F7F7"/>
</svg>
