<?xml version="1.0" ?>
<svg baseProfile="full" height="600px" version="1.1" viewBox="-20.1 -20.1 240.2 240.2" width="600px" xmlns="http://www.w3.org/2000/svg" xmlns:ev="http://www.w3.org/2001/xml-events" xmlns:xlink="http://www.w3.org/1999/xlink">
	<defs/>
	<path d="M 0.0,0.0 L 200.0,0.0 L 200.0,200.0 L 0.0,200.0 L 0.0,0.0" fill="#FDFDFD"/>
	<path d="M 36.0,16.0 L 84.0,16.0 L 86.0,21.0 L 85.0,28.0 L 81.0,40.0 L 81.0,49.0 L 85.0,57.0 L 89.0,61.0 L 90.0,110.0 L 91.0,111.0 L 109.0,111.0 L 110.0,110.0 L 111.0,61.0 L 117.0,54.0 L 119.0,50.0 L 119.0,41.0 L 115.0,28.0 L 114.0,21.0 L 116.0,16.0 L 164.0,16.0 L 164.0,184.0 L 36.0,184.0 L 36.0,16.0" fill="#FDFDFD"/>
	<path d="M 89.0,0.0 L 110.0,0.0 L 114.0,2.0 L 116.0,5.0 L 116.0,8.0 L 172.0,8.0 L 172.0,192.0 L 28.0,192.0 L 28.0,8.0 L 84.0,8.0 L 85.0,3.0 L 89.0,0.0 M 36.0,16.0 L 36.0,184.0 L 164.0,184.0 L 164.0,16.0 L 116.0,16.0 L 114.0,21.0 L 115.0,28.0 L 119.0,41.0 L 119.0,50.0 L 114.0,58.0 L 111.0,61.0 L 110.0,110.0 L 109.0,111.0 L 91.0,111.0 L 90.0,110.0 L 89.0,61.0 L 83.0,54.0 L 81.0,49.0 L 81.0,40.0 L 86.0,25.0 L 85.0,19.0 L 84.0,16.0 L 36.0,16.0" fill="#020202"/>
	<path d="M 95.0,24.0 L 106.0,24.0 L 112.0,41.0 L 112.0,49.0 L 108.0,54.0 L 104.0,56.0 L 96.0,56.0 L 90.0,52.0 L 88.0,48.0 L 88.0,41.0 L 94.0,25.0 L 95.0,24.0" fill="#F0F0F0"/>
	<path d="M 92.0,8.0 L 108.0,8.0 L 108.0,16.0 L 92.0,16.0 L 92.0,8.0" fill="#F6F6F6"/>
	<path d="M 97.0,40.0 L 103.0,40.0 L 106.0,43.0 L 105.0,48.0 L 103.0,50.0 L 97.0,50.0 L 94.0,47.0 L 95.0,42.0 L 97.0,40.0" fill="#0B0B0B"/>
	<path d="M 98.0,96.0 L 102.0,96.0 L 102.0,104.0 L 98.0,104.0 L 98.0,96.0" fill="#F7F7F7"/>
	<path d="M 98.0,80.0 L 102.0,80.0 L 102.0,88.0 L 98.0,88.0 L 98.0,80.0" fill="#F4F4F4"/>
	<path d="M 98.0,66.0 L 102.0,66.0 L 102.0,72.0 L 98.0,72.0 L 98.0,66.0" fill="#FDFDFD"/>
</svg>
