<?xml version="1.0" ?>
<svg baseProfile="full" height="600px" version="1.1" viewBox="-20.1 -20.1 240.2 240.2" width="600px" xmlns="http://www.w3.org/2000/svg" xmlns:ev="http://www.w3.org/2001/xml-events" xmlns:xlink="http://www.w3.org/1999/xlink">
	<defs/>
	<path d="M 0.0,0.0 L 200.0,0.0 L 200.0,200.0 L 0.0,200.0 L 0.0,0.0" fill="#FDFDFD"/>
	<path d="M 96.0,12.0 L 101.0,13.0 L 108.0,20.0 L 115.0,28.0 L 145.0,58.0 L 177.0,55.0 L 187.0,55.0 L 192.0,60.0 L 194.0,75.0 L 194.0,81.0 L 190.0,86.0 L 186.0,86.0 L 184.0,96.0 L 178.0,124.0 L 171.0,155.0 L 167.0,160.0 L 162.0,162.0 L 123.0,167.0 L 76.0,172.0 L 63.0,172.0 L 57.0,167.0 L 41.0,133.0 L 29.0,107.0 L 29.0,105.0 L 24.0,105.0 L 19.0,100.0 L 17.0,88.0 L 17.0,78.0 L 21.0,73.0 L 43.0,70.0 L 62.0,69.0 L 64.0,64.0 L 81.0,35.0 L 94.0,14.0 L 96.0,12.0" fill="#FBFBFB"/>
	<path d="M 96.0,12.0 L 101.0,13.0 L 108.0,20.0 L 115.0,28.0 L 145.0,58.0 L 177.0,55.0 L 187.0,55.0 L 192.0,60.0 L 194.0,75.0 L 194.0,81.0 L 190.0,86.0 L 186.0,86.0 L 184.0,96.0 L 178.0,124.0 L 171.0,155.0 L 167.0,160.0 L 162.0,162.0 L 123.0,167.0 L 76.0,172.0 L 63.0,172.0 L 57.0,167.0 L 41.0,133.0 L 29.0,107.0 L 29.0,105.0 L 24.0,105.0 L 19.0,100.0 L 17.0,88.0 L 17.0,78.0 L 21.0,73.0 L 43.0,70.0 L 62.0,69.0 L 64.0,64.0 L 81.0,35.0 L 94.0,14.0 L 96.0,12.0 M 178.0,63.0 L 123.0,69.0 L 88.0,73.0 L 65.0,76.0 L 29.0,80.0 L 25.0,81.0 L 26.0,96.0 L 32.0,98.0 L 35.0,101.0 L 54.0,141.0 L 63.0,161.0 L 65.0,164.0 L 77.0,164.0 L 145.0,156.0 L 161.0,154.0 L 164.0,149.0 L 172.0,114.0 L 179.0,82.0 L 181.0,80.0 L 186.0,79.0 L 184.0,63.0 L 178.0,63.0" fill="#080808"/>
	<path d="M 98.0,23.0 L 105.0,29.0 L 127.0,51.0 L 134.0,59.0 L 130.0,61.0 L 98.0,65.0 L 78.0,67.0 L 72.0,67.0 L 78.0,56.0 L 97.0,24.0 L 98.0,23.0" fill="#F9F9F9"/>
	<path d="M 137.0,87.0 L 141.0,88.0 L 144.0,90.0 L 143.0,94.0 L 130.0,110.0 L 119.0,124.0 L 106.0,140.0 L 102.0,141.0 L 89.0,130.0 L 76.0,120.0 L 78.0,116.0 L 80.0,113.0 L 84.0,115.0 L 100.0,128.0 L 104.0,129.0 L 115.0,115.0 L 127.0,100.0 L 137.0,87.0" fill="#090909"/>
</svg>
