<?xml version="1.0" ?>
<svg baseProfile="full" height="600px" version="1.1" viewBox="-12.06 -12.06 144.12 144.12" width="600px" xmlns="http://www.w3.org/2000/svg" xmlns:ev="http://www.w3.org/2001/xml-events" xmlns:xlink="http://www.w3.org/1999/xlink">
	<defs/>
	<path d="M 0.0,0.0 L 120.0,0.0 L 120.0,120.0 L 0.0,120.0 L 0.0,0.0" fill="#FBFBFB"/>
	<path d="M 7.0,36.0 L 17.0,36.0 L 73.0,41.0 L 105.0,43.0 L 109.0,46.0 L 108.0,58.0 L 103.0,61.0 L 94.0,97.0 L 90.0,102.0 L 70.0,102.0 L 23.0,98.0 L 16.0,97.0 L 12.0,92.0 L 10.0,71.0 L 9.0,62.0 L 9.0,52.0 L 5.0,51.0 L 4.0,50.0 L 5.0,38.0 L 7.0,36.0" fill="#020202"/>
	<path d="M 58.0,4.0 L 63.0,5.0 L 75.0,19.0 L 86.0,32.0 L 86.0,34.0 L 76.0,34.0 L 67.0,24.0 L 60.0,15.0 L 56.0,17.0 L 41.0,30.0 L 28.0,30.0 L 33.0,25.0 L 48.0,12.0 L 58.0,4.0" fill="#090909"/>
	<path d="M 40.0,66.0 L 45.0,67.0 L 49.0,72.0 L 53.0,70.0 L 59.0,66.0 L 64.0,67.0 L 65.0,72.0 L 55.0,80.0 L 51.0,83.0 L 45.0,82.0 L 38.0,72.0 L 39.0,67.0 L 40.0,66.0" fill="#F4F4F4"/>
</svg>
