<?xml version="1.0" ?>
<svg baseProfile="full" height="600px" version="1.1" viewBox="-16.08 -16.08 192.16 192.16" width="600px" xmlns="http://www.w3.org/2000/svg" xmlns:ev="http://www.w3.org/2001/xml-events" xmlns:xlink="http://www.w3.org/1999/xlink">
	<defs/>
	<path d="M 0.0,0.0 L 160.0,0.0 L 160.0,160.0 L 0.0,160.0 L 0.0,0.0" fill="#B8DEBB"/>
	<path d="M 0.0,0.0 L 160.0,0.0 L 160.0,160.0 L 0.0,160.0 L 0.0,0.0 M 76.0,12.0 L 68.0,18.0 L 53.0,32.0 L 45.0,39.0 L 32.0,51.0 L 26.0,56.0 L 5.0,56.0 L 5.0,76.0 L 10.0,77.0 L 20.0,137.0 L 21.0,145.0 L 22.0,146.0 L 69.0,148.0 L 107.0,150.0 L 126.0,150.0 L 130.0,133.0 L 134.0,118.0 L 139.0,99.0 L 143.0,84.0 L 149.0,83.0 L 149.0,63.0 L 130.0,62.0 L 116.0,47.0 L 109.0,39.0 L 98.0,27.0 L 89.0,17.0 L 83.0,12.0 L 76.0,12.0" fill="#FCFDFC"/>
	<path d="M 76.0,12.0 L 83.0,12.0 L 91.0,19.0 L 106.0,35.0 L 113.0,43.0 L 124.0,55.0 L 130.0,62.0 L 149.0,63.0 L 149.0,83.0 L 143.0,84.0 L 136.0,112.0 L 132.0,126.0 L 126.0,150.0 L 107.0,150.0 L 22.0,146.0 L 21.0,145.0 L 13.0,94.0 L 10.0,77.0 L 5.0,76.0 L 5.0,56.0 L 26.0,56.0 L 40.0,43.0 L 48.0,36.0 L 61.0,24.0 L 69.0,17.0 L 76.0,12.0 M 15.0,77.0 L 16.0,88.0 L 23.0,131.0 L 25.0,142.0 L 72.0,144.0 L 104.0,146.0 L 122.0,146.0 L 128.0,125.0 L 135.0,100.0 L 139.0,83.0 L 48.0,78.0 L 29.0,77.0 L 15.0,77.0" fill="#66A17C"/>
	<path d="M 76.0,12.0 L 83.0,12.0 L 91.0,19.0 L 106.0,35.0 L 113.0,43.0 L 124.0,55.0 L 129.0,62.0 L 100.0,62.0 L 93.0,61.0 L 66.0,60.0 L 31.0,58.0 L 26.0,57.0 L 30.0,52.0 L 38.0,45.0 L 50.0,34.0 L 60.0,25.0 L 70.0,16.0 L 76.0,12.0" fill="#6C7E93"/>
	<path d="M 9.0,61.0 L 29.0,61.0 L 84.0,64.0 L 128.0,66.0 L 145.0,67.0 L 145.0,79.0 L 133.0,79.0 L 53.0,75.0 L 9.0,73.0 L 9.0,61.0" fill="#B7DDBA"/>
	<path d="M 77.0,16.0 L 83.0,17.0 L 85.0,19.0 L 85.0,25.0 L 80.0,30.0 L 72.0,38.0 L 64.0,45.0 L 52.0,56.0 L 49.0,58.0 L 31.0,58.0 L 35.0,53.0 L 43.0,46.0 L 55.0,35.0 L 63.0,28.0 L 75.0,17.0 L 77.0,16.0" fill="#ACBED0"/>
	<path d="M 78.0,37.0 L 82.0,39.0 L 89.0,47.0 L 100.0,59.0 L 100.0,61.0 L 66.0,60.0 L 54.0,59.0 L 59.0,54.0 L 75.0,39.0 L 78.0,37.0" fill="#F9FAFA"/>
	<path d="M 89.0,24.0 L 96.0,30.0 L 103.0,38.0 L 112.0,48.0 L 122.0,59.0 L 123.0,62.0 L 113.0,62.0 L 106.0,61.0 L 94.0,48.0 L 83.0,36.0 L 82.0,33.0 L 88.0,27.0 L 89.0,24.0" fill="#8B9EB3"/>
</svg>
