<?xml version="1.0" ?>
<svg baseProfile="full" height="600px" version="1.1" viewBox="-16.08 -16.08 192.16 192.16" width="600px" xmlns="http://www.w3.org/2000/svg" xmlns:ev="http://www.w3.org/2001/xml-events" xmlns:xlink="http://www.w3.org/1999/xlink">
	<defs/>
	<path d="M 0.0,0.0 L 160.0,0.0 L 160.0,160.0 L 0.0,160.0 L 0.0,0.0" fill="#B9DEBC"/>
	<path d="M 0.0,0.0 L 160.0,0.0 L 160.0,160.0 L 0.0,160.0 L 0.0,0.0 M 77.0,12.0 L 69.0,19.0 L 56.0,33.0 L 49.0,41.0 L 38.0,53.0 L 31.0,61.0 L 30.0,62.0 L 11.0,63.0 L 11.0,84.0 L 18.0,84.0 L 20.0,96.0 L 27.0,120.0 L 35.0,150.0 L 58.0,150.0 L 136.0,146.0 L 139.0,145.0 L 142.0,128.0 L 145.0,109.0 L 147.0,97.0 L 150.0,77.0 L 155.0,76.0 L 155.0,56.0 L 134.0,56.0 L 119.0,42.0 L 111.0,35.0 L 99.0,24.0 L 91.0,17.0 L 84.0,12.0 L 77.0,12.0" fill="#FCFDFD"/>
	<path d="M 77.0,12.0 L 84.0,12.0 L 92.0,18.0 L 107.0,32.0 L 115.0,39.0 L 127.0,50.0 L 134.0,56.0 L 155.0,56.0 L 155.0,76.0 L 150.0,77.0 L 146.0,106.0 L 143.0,123.0 L 140.0,142.0 L 139.0,145.0 L 136.0,146.0 L 58.0,150.0 L 35.0,150.0 L 25.0,114.0 L 18.0,87.0 L 18.0,84.0 L 11.0,84.0 L 11.0,63.0 L 30.0,62.0 L 37.0,55.0 L 44.0,47.0 L 53.0,37.0 L 63.0,26.0 L 70.0,18.0 L 77.0,12.0 M 134.0,77.0 L 22.0,83.0 L 23.0,91.0 L 30.0,116.0 L 38.0,146.0 L 57.0,146.0 L 131.0,142.0 L 136.0,141.0 L 145.0,84.0 L 145.0,77.0 L 134.0,77.0" fill="#67A27D"/>
	<path d="M 134.0,61.0 L 151.0,61.0 L 151.0,72.0 L 144.0,73.0 L 106.0,75.0 L 95.0,76.0 L 30.0,79.0 L 15.0,79.0 L 15.0,67.0 L 50.0,65.0 L 115.0,62.0 L 134.0,61.0" fill="#B7DDBB"/>
	<path d="M 107.0,84.0 L 115.0,90.0 L 115.0,94.0 L 105.0,105.0 L 98.0,113.0 L 86.0,126.0 L 81.0,132.0 L 77.0,131.0 L 70.0,124.0 L 62.0,117.0 L 53.0,109.0 L 55.0,105.0 L 60.0,100.0 L 64.0,102.0 L 75.0,112.0 L 80.0,114.0 L 91.0,102.0 L 100.0,92.0 L 107.0,84.0" fill="#FBFDFC"/>
	<path d="M 77.0,12.0 L 84.0,12.0 L 92.0,18.0 L 107.0,32.0 L 115.0,39.0 L 127.0,50.0 L 134.0,56.0 L 134.0,57.0 L 128.0,57.0 L 114.0,44.0 L 106.0,37.0 L 94.0,26.0 L 92.0,25.0 L 92.0,23.0 L 90.0,23.0 L 89.0,28.0 L 85.0,34.0 L 97.0,45.0 L 105.0,52.0 L 111.0,57.0 L 111.0,58.0 L 105.0,58.0 L 95.0,49.0 L 85.0,40.0 L 83.0,38.0 L 79.0,39.0 L 72.0,47.0 L 63.0,57.0 L 59.0,62.0 L 54.0,61.0 L 60.0,53.0 L 68.0,45.0 L 75.0,37.0 L 84.0,27.0 L 85.0,25.0 L 85.0,19.0 L 82.0,17.0 L 76.0,18.0 L 66.0,29.0 L 59.0,37.0 L 48.0,49.0 L 41.0,57.0 L 36.0,62.0 L 30.0,63.0 L 36.0,56.0 L 45.0,46.0 L 52.0,38.0 L 63.0,26.0 L 70.0,18.0 L 77.0,12.0" fill="#6B7E93"/>
	<path d="M 78.0,16.0 L 84.0,17.0 L 86.0,19.0 L 86.0,25.0 L 77.0,36.0 L 70.0,43.0 L 63.0,51.0 L 53.0,62.0 L 37.0,62.0 L 40.0,57.0 L 54.0,42.0 L 61.0,34.0 L 72.0,22.0 L 76.0,17.0 L 78.0,16.0" fill="#ACBDD0"/>
	<path d="M 80.0,37.0 L 84.0,38.0 L 92.0,46.0 L 100.0,53.0 L 106.0,58.0 L 106.0,59.0 L 68.0,61.0 L 60.0,61.0 L 62.0,57.0 L 69.0,50.0 L 76.0,42.0 L 80.0,37.0" fill="#F9FAFA"/>
	<path d="M 90.0,23.0 L 92.0,23.0 L 92.0,25.0 L 96.0,27.0 L 112.0,42.0 L 120.0,49.0 L 129.0,57.0 L 129.0,58.0 L 111.0,58.0 L 101.0,49.0 L 89.0,38.0 L 84.0,33.0 L 89.0,26.0 L 90.0,23.0" fill="#8B9EB2"/>
</svg>
