<?xml version="1.0" ?>
<svg baseProfile="full" height="600px" version="1.1" viewBox="-12.06 -12.06 144.12 144.12" width="600px" xmlns="http://www.w3.org/2000/svg" xmlns:ev="http://www.w3.org/2001/xml-events" xmlns:xlink="http://www.w3.org/1999/xlink">
	<defs/>
	<path d="M 0.0,0.0 L 120.0,0.0 L 120.0,120.0 L 0.0,120.0 L 0.0,0.0" fill="#FCFCFC"/>
	<path d="M 10.0,40.0 L 110.0,40.0 L 112.0,42.0 L 112.0,54.0 L 110.0,56.0 L 107.0,56.0 L 106.0,67.0 L 101.0,95.0 L 96.0,100.0 L 24.0,100.0 L 19.0,95.0 L 13.0,61.0 L 13.0,56.0 L 9.0,55.0 L 8.0,54.0 L 8.0,42.0 L 10.0,40.0" fill="#010101"/>
	<path d="M 58.0,4.0 L 63.0,5.0 L 89.0,31.0 L 89.0,32.0 L 78.0,32.0 L 61.0,15.0 L 57.0,17.0 L 42.0,32.0 L 31.0,32.0 L 37.0,25.0 L 58.0,4.0" fill="#020202"/>
	<path d="M 74.0,57.0 L 79.0,58.0 L 80.0,63.0 L 66.0,76.0 L 56.0,84.0 L 52.0,83.0 L 43.0,73.0 L 44.0,68.0 L 49.0,67.0 L 56.0,73.0 L 69.0,61.0 L 74.0,57.0" fill="#F4F4F4"/>
</svg>
