<?xml version="1.0" ?>
<svg baseProfile="full" height="600px" version="1.1" viewBox="-12.06 -12.06 144.12 144.12" width="600px" xmlns="http://www.w3.org/2000/svg" xmlns:ev="http://www.w3.org/2001/xml-events" xmlns:xlink="http://www.w3.org/1999/xlink">
	<defs/>
	<path d="M 0.0,0.0 L 120.0,0.0 L 120.0,120.0 L 0.0,120.0 L 0.0,0.0" fill="#FDFDFD"/>
	<path d="M 21.0,6.0 L 91.0,6.0 L 96.0,11.0 L 96.0,32.0 L 93.0,37.0 L 90.0,38.0 L 21.0,38.0 L 16.0,33.0 L 16.0,11.0 L 21.0,6.0" fill="#010101"/>
	<path d="M 102.0,18.0 L 110.0,18.0 L 112.0,20.0 L 112.0,44.0 L 108.0,51.0 L 102.0,55.0 L 92.0,57.0 L 66.0,61.0 L 61.0,65.0 L 61.0,77.0 L 64.0,80.0 L 64.0,98.0 L 60.0,103.0 L 54.0,104.0 L 49.0,100.0 L 48.0,98.0 L 48.0,80.0 L 51.0,77.0 L 52.0,64.0 L 56.0,57.0 L 64.0,52.0 L 97.0,47.0 L 102.0,44.0 L 103.0,42.0 L 104.0,26.0 L 100.0,24.0 L 101.0,19.0 L 102.0,18.0" fill="#060606"/>
</svg>
