<?xml version="1.0" ?>
<svg baseProfile="full" height="600px" version="1.1" viewBox="-20.1 -20.1 240.2 240.2" width="600px" xmlns="http://www.w3.org/2000/svg" xmlns:ev="http://www.w3.org/2001/xml-events" xmlns:xlink="http://www.w3.org/1999/xlink">
	<defs/>
	<path d="M 0.0,0.0 L 200.0,0.0 L 200.0,200.0 L 0.0,200.0 L 0.0,0.0" fill="#FDFDFD"/>
	<path d="M 9.0,4.0 L 171.0,4.0 L 176.0,9.0 L 176.0,32.0 L 186.0,32.0 L 188.0,34.0 L 188.0,81.0 L 183.0,85.0 L 155.0,91.0 L 117.0,99.0 L 100.0,103.0 L 96.0,103.0 L 96.0,116.0 L 107.0,116.0 L 112.0,121.0 L 112.0,190.0 L 109.0,195.0 L 106.0,196.0 L 77.0,196.0 L 72.0,191.0 L 72.0,121.0 L 77.0,116.0 L 88.0,116.0 L 88.0,99.0 L 91.0,96.0 L 108.0,92.0 L 131.0,87.0 L 162.0,80.0 L 177.0,77.0 L 180.0,77.0 L 180.0,40.0 L 176.0,40.0 L 176.0,62.0 L 173.0,67.0 L 170.0,68.0 L 9.0,68.0 L 4.0,63.0 L 4.0,9.0 L 9.0,4.0" fill="#020202"/>
	<path d="M 12.0,12.0 L 168.0,12.0 L 168.0,60.0 L 12.0,60.0 L 12.0,12.0" fill="#FDFDFD"/>
	<path d="M 80.0,124.0 L 104.0,124.0 L 104.0,188.0 L 80.0,188.0 L 80.0,124.0" fill="#FDFDFD"/>
</svg>
