<?xml version="1.0" ?>
<svg baseProfile="full" height="600px" version="1.1" viewBox="-16.08 -16.08 192.16 192.16" width="600px" xmlns="http://www.w3.org/2000/svg" xmlns:ev="http://www.w3.org/2001/xml-events" xmlns:xlink="http://www.w3.org/1999/xlink">
	<defs/>
	<path d="M 0.0,0.0 L 160.0,0.0 L 160.0,160.0 L 0.0,160.0 L 0.0,0.0" fill="#FDFDFD"/>
	<path d="M 12.0,4.0 L 140.0,4.0 L 140.0,28.0 L 149.0,28.0 L 154.0,31.0 L 156.0,34.0 L 156.0,63.0 L 151.0,68.0 L 136.0,72.0 L 98.0,80.0 L 82.0,84.0 L 80.0,90.0 L 92.0,90.0 L 93.0,112.0 L 93.0,143.0 L 88.0,148.0 L 68.0,148.0 L 63.0,143.0 L 63.0,99.0 L 64.0,90.0 L 76.0,90.0 L 76.0,84.0 L 83.0,78.0 L 121.0,70.0 L 148.0,64.0 L 151.0,61.0 L 151.0,36.0 L 148.0,33.0 L 140.0,32.0 L 140.0,56.0 L 12.0,56.0 L 12.0,32.0 L 8.0,32.0 L 8.0,28.0 L 12.0,28.0 L 12.0,4.0" fill="#F68D8D"/>
	<path d="M 12.0,4.0 L 140.0,4.0 L 140.0,28.0 L 149.0,28.0 L 154.0,31.0 L 156.0,34.0 L 156.0,63.0 L 151.0,68.0 L 136.0,72.0 L 98.0,80.0 L 82.0,84.0 L 80.0,90.0 L 92.0,90.0 L 93.0,112.0 L 93.0,143.0 L 88.0,148.0 L 68.0,148.0 L 63.0,143.0 L 63.0,99.0 L 64.0,90.0 L 76.0,90.0 L 76.0,84.0 L 83.0,78.0 L 121.0,70.0 L 148.0,64.0 L 151.0,61.0 L 151.0,36.0 L 148.0,33.0 L 140.0,32.0 L 140.0,56.0 L 12.0,56.0 L 12.0,32.0 L 8.0,32.0 L 8.0,28.0 L 12.0,28.0 L 12.0,4.0 M 16.0,8.0 L 16.0,52.0 L 136.0,52.0 L 136.0,8.0 L 16.0,8.0" fill="#C69C5B"/>
	<path d="M 12.0,4.0 L 140.0,4.0 L 140.0,56.0 L 12.0,56.0 L 12.0,32.0 L 8.0,32.0 L 8.0,28.0 L 12.0,28.0 L 12.0,4.0 M 16.0,8.0 L 16.0,52.0 L 136.0,52.0 L 136.0,8.0 L 16.0,8.0" fill="#C64444"/>
	<path d="M 68.0,94.0 L 88.0,94.0 L 89.0,117.0 L 89.0,142.0 L 87.0,144.0 L 69.0,144.0 L 67.0,142.0 L 67.0,116.0 L 68.0,94.0" fill="#F2C074"/>
	<path d="M 140.0,28.0 L 149.0,28.0 L 154.0,31.0 L 156.0,34.0 L 156.0,63.0 L 151.0,68.0 L 136.0,72.0 L 98.0,80.0 L 82.0,84.0 L 80.0,90.0 L 76.0,90.0 L 76.0,84.0 L 83.0,78.0 L 121.0,70.0 L 148.0,64.0 L 151.0,61.0 L 151.0,36.0 L 148.0,33.0 L 140.0,32.0 L 140.0,28.0" fill="#6F8095"/>
</svg>
