<?xml version="1.0" ?>
<svg baseProfile="full" height="600px" version="1.1" viewBox="-20.1 -20.1 240.2 240.2" width="600px" xmlns="http://www.w3.org/2000/svg" xmlns:ev="http://www.w3.org/2001/xml-events" xmlns:xlink="http://www.w3.org/1999/xlink">
	<defs/>
	<path d="M 0.0,0.0 L 200.0,0.0 L 200.0,200.0 L 0.0,200.0 L 0.0,0.0" fill="#FDFDFD"/>
	<path d="M 9.0,23.0 L 171.0,23.0 L 176.0,28.0 L 176.0,51.0 L 186.0,51.0 L 188.0,53.0 L 189.0,60.0 L 190.0,81.0 L 190.0,93.0 L 188.0,95.0 L 134.0,104.0 L 108.0,108.0 L 96.0,109.0 L 96.0,126.0 L 107.0,126.0 L 112.0,131.0 L 115.0,178.0 L 115.0,185.0 L 113.0,189.0 L 109.0,191.0 L 74.0,191.0 L 69.0,186.0 L 69.0,173.0 L 71.0,139.0 L 73.0,129.0 L 77.0,126.0 L 88.0,126.0 L 88.0,106.0 L 91.0,102.0 L 125.0,96.0 L 168.0,89.0 L 174.0,88.0 L 182.0,88.0 L 180.0,67.0 L 180.0,59.0 L 176.0,59.0 L 176.0,82.0 L 173.0,86.0 L 170.0,87.0 L 9.0,87.0 L 5.0,84.0 L 4.0,81.0 L 4.0,28.0 L 9.0,23.0" fill="#050505"/>
	<path d="M 12.0,31.0 L 168.0,31.0 L 168.0,53.0 L 102.0,54.0 L 101.0,59.0 L 102.0,60.0 L 168.0,61.0 L 168.0,79.0 L 12.0,79.0 L 12.0,48.0 L 61.0,47.0 L 63.0,46.0 L 63.0,41.0 L 61.0,40.0 L 12.0,39.0 L 12.0,31.0" fill="#FDFDFD"/>
	<path d="M 80.0,134.0 L 104.0,134.0 L 107.0,175.0 L 107.0,183.0 L 77.0,183.0 L 78.0,155.0 L 80.0,134.0" fill="#FAFAFA"/>
</svg>
