<?xml version="1.0" ?>
<svg baseProfile="full" height="600px" version="1.1" viewBox="-12.06 -12.06 144.12 144.12" width="600px" xmlns="http://www.w3.org/2000/svg" xmlns:ev="http://www.w3.org/2001/xml-events" xmlns:xlink="http://www.w3.org/1999/xlink">
	<defs/>
	<path d="M 0.0,0.0 L 120.0,0.0 L 120.0,120.0 L 0.0,120.0 L 0.0,0.0" fill="#FCFCFC"/>
	<path d="M 20.0,8.0 L 91.0,8.0 L 96.0,13.0 L 96.0,34.0 L 94.0,38.0 L 90.0,40.0 L 21.0,40.0 L 17.0,36.0 L 16.0,34.0 L 16.0,12.0 L 20.0,8.0" fill="#020202"/>
	<path d="M 102.0,20.0 L 110.0,20.0 L 112.0,22.0 L 112.0,46.0 L 108.0,52.0 L 103.0,56.0 L 87.0,59.0 L 64.0,63.0 L 61.0,66.0 L 60.0,78.0 L 62.0,78.0 L 64.0,81.0 L 64.0,99.0 L 59.0,104.0 L 52.0,104.0 L 48.0,99.0 L 48.0,81.0 L 50.0,78.0 L 52.0,78.0 L 52.0,65.0 L 57.0,57.0 L 62.0,54.0 L 87.0,50.0 L 99.0,48.0 L 102.0,46.0 L 103.0,43.0 L 104.0,28.0 L 100.0,26.0 L 101.0,21.0 L 102.0,20.0" fill="#050505"/>
</svg>
