<?xml version="1.0" ?>
<svg baseProfile="full" height="600px" version="1.1" viewBox="-20.1 -20.1 240.2 240.2" width="600px" xmlns="http://www.w3.org/2000/svg" xmlns:ev="http://www.w3.org/2001/xml-events" xmlns:xlink="http://www.w3.org/1999/xlink">
	<defs/>
	<path d="M 0.0,0.0 L 200.0,0.0 L 200.0,200.0 L 0.0,200.0 L 0.0,0.0" fill="#FDFDFD"/>
	<path d="M 9.0,28.0 L 170.0,28.0 L 174.0,30.0 L 176.0,33.0 L 176.0,56.0 L 186.0,56.0 L 188.0,58.0 L 190.0,76.0 L 190.0,98.0 L 189.0,99.0 L 173.0,102.0 L 151.0,105.0 L 132.0,108.0 L 113.0,111.0 L 96.0,113.0 L 96.0,130.0 L 107.0,130.0 L 112.0,135.0 L 115.0,170.0 L 115.0,188.0 L 111.0,192.0 L 109.0,193.0 L 74.0,193.0 L 69.0,189.0 L 68.0,187.0 L 68.0,176.0 L 71.0,143.0 L 73.0,133.0 L 77.0,130.0 L 88.0,130.0 L 88.0,109.0 L 93.0,105.0 L 118.0,101.0 L 150.0,96.0 L 176.0,92.0 L 182.0,92.0 L 180.0,65.0 L 176.0,64.0 L 176.0,87.0 L 172.0,92.0 L 8.0,92.0 L 4.0,87.0 L 4.0,33.0 L 9.0,28.0" fill="#080808"/>
	<path d="M 12.0,36.0 L 86.0,36.0 L 85.0,42.0 L 86.0,43.0 L 142.0,43.0 L 143.0,38.0 L 142.0,36.0 L 168.0,36.0 L 168.0,70.0 L 102.0,71.0 L 101.0,76.0 L 102.0,77.0 L 168.0,78.0 L 168.0,84.0 L 12.0,84.0 L 12.0,64.0 L 62.0,63.0 L 63.0,58.0 L 62.0,57.0 L 12.0,56.0 L 12.0,36.0" fill="#FAFAFA"/>
	<path d="M 80.0,138.0 L 104.0,138.0 L 107.0,173.0 L 107.0,184.0 L 77.0,184.0 L 77.0,168.0 L 79.0,144.0 L 80.0,138.0" fill="#FBFBFB"/>
	<path d="M 87.0,37.0 L 143.0,37.0 L 144.0,42.0 L 142.0,44.0 L 86.0,44.0 L 84.0,40.0 L 87.0,37.0" fill="#010101"/>
	<path d="M 176.0,64.0 L 181.0,65.0 L 182.0,77.0 L 182.0,92.0 L 171.0,94.0 L 10.0,93.0 L 10.0,92.0 L 172.0,91.0 L 175.0,87.0 L 176.0,64.0" fill="#C7C7C7"/>
</svg>
