<?xml version="1.0" ?>
<svg baseProfile="full" height="600px" version="1.1" viewBox="-16.08 -16.08 192.16 192.16" width="600px" xmlns="http://www.w3.org/2000/svg" xmlns:ev="http://www.w3.org/2001/xml-events" xmlns:xlink="http://www.w3.org/1999/xlink">
	<defs/>
	<path d="M 0.0,0.0 L 160.0,0.0 L 160.0,160.0 L 0.0,160.0 L 0.0,0.0" fill="#FDFDFD"/>
	<path d="M 12.0,24.0 L 140.0,24.0 L 140.0,48.0 L 150.0,48.0 L 155.0,52.0 L 156.0,54.0 L 156.0,75.0 L 153.0,80.0 L 148.0,83.0 L 117.0,90.0 L 83.0,97.0 L 81.0,99.0 L 80.0,104.0 L 92.0,104.0 L 96.0,135.0 L 96.0,143.0 L 92.0,148.0 L 90.0,149.0 L 66.0,149.0 L 62.0,147.0 L 60.0,143.0 L 61.0,129.0 L 64.0,104.0 L 76.0,104.0 L 76.0,98.0 L 81.0,93.0 L 102.0,88.0 L 138.0,80.0 L 150.0,77.0 L 151.0,75.0 L 151.0,55.0 L 149.0,53.0 L 140.0,52.0 L 140.0,76.0 L 12.0,76.0 L 12.0,52.0 L 8.0,52.0 L 8.0,48.0 L 12.0,48.0 L 12.0,24.0" fill="#F58C8C"/>
	<path d="M 12.0,24.0 L 140.0,24.0 L 140.0,48.0 L 150.0,48.0 L 155.0,52.0 L 156.0,54.0 L 156.0,75.0 L 153.0,80.0 L 148.0,83.0 L 117.0,90.0 L 83.0,97.0 L 81.0,99.0 L 80.0,104.0 L 92.0,104.0 L 96.0,135.0 L 96.0,143.0 L 92.0,148.0 L 90.0,149.0 L 66.0,149.0 L 62.0,147.0 L 60.0,143.0 L 61.0,129.0 L 64.0,104.0 L 76.0,104.0 L 76.0,98.0 L 81.0,93.0 L 102.0,88.0 L 138.0,80.0 L 150.0,77.0 L 151.0,75.0 L 151.0,55.0 L 149.0,53.0 L 140.0,52.0 L 140.0,76.0 L 12.0,76.0 L 12.0,52.0 L 8.0,52.0 L 8.0,48.0 L 12.0,48.0 L 12.0,24.0 M 16.0,28.0 L 16.0,35.0 L 36.0,35.0 L 36.0,39.0 L 16.0,39.0 L 16.0,55.0 L 56.0,55.0 L 56.0,59.0 L 16.0,59.0 L 16.0,72.0 L 136.0,72.0 L 136.0,67.0 L 88.0,67.0 L 88.0,63.0 L 136.0,63.0 L 136.0,28.0 L 16.0,28.0" fill="#C69B5B"/>
	<path d="M 12.0,24.0 L 140.0,24.0 L 140.0,76.0 L 12.0,76.0 L 12.0,52.0 L 8.0,52.0 L 8.0,48.0 L 12.0,48.0 L 12.0,24.0 M 16.0,28.0 L 16.0,35.0 L 36.0,35.0 L 36.0,39.0 L 16.0,39.0 L 16.0,55.0 L 56.0,55.0 L 56.0,59.0 L 16.0,59.0 L 16.0,72.0 L 136.0,72.0 L 136.0,67.0 L 88.0,67.0 L 88.0,63.0 L 136.0,63.0 L 136.0,28.0 L 16.0,28.0" fill="#C84748"/>
	<path d="M 68.0,108.0 L 88.0,108.0 L 90.0,118.0 L 92.0,136.0 L 92.0,142.0 L 90.0,145.0 L 67.0,145.0 L 64.0,142.0 L 67.0,110.0 L 68.0,108.0" fill="#F2BF74"/>
	<path d="M 140.0,48.0 L 150.0,48.0 L 155.0,52.0 L 156.0,54.0 L 156.0,75.0 L 153.0,80.0 L 148.0,83.0 L 117.0,90.0 L 83.0,97.0 L 81.0,99.0 L 80.0,104.0 L 76.0,104.0 L 76.0,98.0 L 81.0,93.0 L 102.0,88.0 L 138.0,80.0 L 150.0,77.0 L 151.0,75.0 L 151.0,55.0 L 149.0,53.0 L 140.0,52.0 L 140.0,48.0" fill="#6E8095"/>
	<path d="M 76.0,43.0 L 116.0,43.0 L 116.0,47.0 L 76.0,47.0 L 76.0,43.0" fill="#C84444"/>
</svg>
