<?xml version="1.0" ?>
<svg baseProfile="full" height="600px" version="1.1" viewBox="-16.08 -16.08 192.16 192.16" width="600px" xmlns="http://www.w3.org/2000/svg" xmlns:ev="http://www.w3.org/2001/xml-events" xmlns:xlink="http://www.w3.org/1999/xlink">
	<defs/>
	<path d="M 0.0,0.0 L 160.0,0.0 L 160.0,160.0 L 0.0,160.0 L 0.0,0.0" fill="#FDFDFD"/>
	<path d="M 12.0,16.0 L 140.0,16.0 L 140.0,40.0 L 149.0,40.0 L 154.0,43.0 L 156.0,46.0 L 156.0,71.0 L 153.0,76.0 L 147.0,79.0 L 97.0,90.0 L 83.0,93.0 L 81.0,95.0 L 80.0,100.0 L 92.0,100.0 L 94.0,125.0 L 94.0,148.0 L 90.0,152.0 L 66.0,152.0 L 62.0,148.0 L 62.0,130.0 L 63.0,107.0 L 64.0,100.0 L 76.0,100.0 L 76.0,94.0 L 80.0,89.0 L 96.0,85.0 L 138.0,76.0 L 149.0,73.0 L 151.0,71.0 L 151.0,48.0 L 148.0,45.0 L 140.0,44.0 L 140.0,68.0 L 12.0,68.0 L 12.0,44.0 L 8.0,44.0 L 8.0,40.0 L 12.0,40.0 L 12.0,16.0" fill="#F58C8C"/>
	<path d="M 12.0,16.0 L 140.0,16.0 L 140.0,40.0 L 149.0,40.0 L 154.0,43.0 L 156.0,46.0 L 156.0,71.0 L 153.0,76.0 L 147.0,79.0 L 97.0,90.0 L 83.0,93.0 L 81.0,95.0 L 80.0,100.0 L 92.0,100.0 L 94.0,125.0 L 94.0,148.0 L 90.0,152.0 L 66.0,152.0 L 62.0,148.0 L 62.0,130.0 L 63.0,107.0 L 64.0,100.0 L 76.0,100.0 L 76.0,94.0 L 80.0,89.0 L 96.0,85.0 L 138.0,76.0 L 149.0,73.0 L 151.0,71.0 L 151.0,48.0 L 148.0,45.0 L 140.0,44.0 L 140.0,68.0 L 12.0,68.0 L 12.0,44.0 L 8.0,44.0 L 8.0,40.0 L 12.0,40.0 L 12.0,16.0 M 16.0,20.0 L 16.0,26.0 L 56.0,26.0 L 56.0,30.0 L 16.0,30.0 L 16.0,64.0 L 136.0,64.0 L 136.0,38.0 L 88.0,38.0 L 88.0,34.0 L 136.0,34.0 L 136.0,20.0 L 16.0,20.0" fill="#C69B59"/>
	<path d="M 12.0,16.0 L 140.0,16.0 L 140.0,68.0 L 12.0,68.0 L 12.0,44.0 L 8.0,44.0 L 8.0,40.0 L 12.0,40.0 L 12.0,16.0 M 16.0,20.0 L 16.0,26.0 L 56.0,26.0 L 56.0,30.0 L 16.0,30.0 L 16.0,64.0 L 136.0,64.0 L 136.0,38.0 L 88.0,38.0 L 88.0,34.0 L 136.0,34.0 L 136.0,20.0 L 16.0,20.0" fill="#C74545"/>
	<path d="M 68.0,104.0 L 88.0,104.0 L 90.0,132.0 L 90.0,147.0 L 88.0,148.0 L 68.0,148.0 L 66.0,146.0 L 66.0,133.0 L 67.0,108.0 L 68.0,104.0" fill="#F3C074"/>
	<path d="M 140.0,40.0 L 149.0,40.0 L 154.0,43.0 L 156.0,46.0 L 156.0,71.0 L 153.0,76.0 L 147.0,79.0 L 97.0,90.0 L 83.0,93.0 L 81.0,95.0 L 80.0,100.0 L 76.0,100.0 L 76.0,94.0 L 80.0,89.0 L 96.0,85.0 L 138.0,76.0 L 149.0,73.0 L 151.0,71.0 L 151.0,48.0 L 148.0,45.0 L 140.0,44.0 L 140.0,40.0" fill="#6E7F94"/>
</svg>
