<?xml version="1.0" ?>
<svg baseProfile="full" height="600px" version="1.1" viewBox="-16.08 -16.08 192.16 192.16" width="600px" xmlns="http://www.w3.org/2000/svg" xmlns:ev="http://www.w3.org/2001/xml-events" xmlns:xlink="http://www.w3.org/1999/xlink">
	<defs/>
	<path d="M 0.0,0.0 L 160.0,0.0 L 160.0,160.0 L 0.0,160.0 L 0.0,0.0" fill="#FDFDFC"/>
	<path d="M 12.0,19.0 L 140.0,19.0 L 140.0,43.0 L 148.0,43.0 L 153.0,46.0 L 156.0,50.0 L 156.0,73.0 L 153.0,78.0 L 149.0,81.0 L 101.0,91.0 L 83.0,95.0 L 81.0,97.0 L 80.0,102.0 L 92.0,102.0 L 94.0,123.0 L 95.0,147.0 L 91.0,151.0 L 89.0,152.0 L 66.0,152.0 L 62.0,148.0 L 61.0,146.0 L 61.0,135.0 L 62.0,128.0 L 63.0,109.0 L 64.0,102.0 L 76.0,102.0 L 76.0,96.0 L 81.0,91.0 L 86.0,89.0 L 120.0,82.0 L 148.0,76.0 L 151.0,73.0 L 151.0,51.0 L 148.0,48.0 L 140.0,47.0 L 140.0,71.0 L 12.0,71.0 L 12.0,47.0 L 8.0,47.0 L 8.0,43.0 L 12.0,43.0 L 12.0,19.0" fill="#F58C8C"/>
	<path d="M 12.0,19.0 L 140.0,19.0 L 140.0,43.0 L 148.0,43.0 L 153.0,46.0 L 156.0,50.0 L 156.0,73.0 L 153.0,78.0 L 149.0,81.0 L 101.0,91.0 L 83.0,95.0 L 81.0,97.0 L 80.0,102.0 L 92.0,102.0 L 94.0,123.0 L 95.0,147.0 L 91.0,151.0 L 89.0,152.0 L 66.0,152.0 L 62.0,148.0 L 61.0,146.0 L 61.0,135.0 L 62.0,128.0 L 63.0,109.0 L 64.0,102.0 L 76.0,102.0 L 76.0,96.0 L 81.0,91.0 L 86.0,89.0 L 120.0,82.0 L 148.0,76.0 L 151.0,73.0 L 151.0,51.0 L 148.0,48.0 L 140.0,47.0 L 140.0,71.0 L 12.0,71.0 L 12.0,47.0 L 8.0,47.0 L 8.0,43.0 L 12.0,43.0 L 12.0,19.0 M 16.0,23.0 L 16.0,38.0 L 56.0,38.0 L 56.0,42.0 L 16.0,42.0 L 16.0,67.0 L 136.0,67.0 L 136.0,51.0 L 88.0,51.0 L 88.0,46.0 L 136.0,46.0 L 136.0,23.0 L 16.0,23.0" fill="#C59B5A"/>
	<path d="M 12.0,19.0 L 140.0,19.0 L 140.0,71.0 L 12.0,71.0 L 12.0,47.0 L 8.0,47.0 L 8.0,43.0 L 12.0,43.0 L 12.0,19.0 M 16.0,23.0 L 16.0,38.0 L 56.0,38.0 L 56.0,42.0 L 16.0,42.0 L 16.0,67.0 L 136.0,67.0 L 136.0,51.0 L 88.0,51.0 L 88.0,46.0 L 136.0,46.0 L 136.0,23.0 L 16.0,23.0" fill="#CA4B4B"/>
	<path d="M 68.0,106.0 L 88.0,106.0 L 89.0,109.0 L 90.0,122.0 L 90.0,147.0 L 88.0,148.0 L 68.0,148.0 L 65.0,145.0 L 65.0,136.0 L 67.0,108.0 L 68.0,106.0" fill="#F2BF74"/>
	<path d="M 140.0,43.0 L 148.0,43.0 L 153.0,46.0 L 156.0,50.0 L 156.0,73.0 L 153.0,78.0 L 149.0,81.0 L 101.0,91.0 L 83.0,95.0 L 81.0,97.0 L 80.0,102.0 L 76.0,102.0 L 76.0,96.0 L 81.0,91.0 L 86.0,89.0 L 120.0,82.0 L 148.0,76.0 L 151.0,73.0 L 151.0,51.0 L 148.0,48.0 L 140.0,47.0 L 140.0,43.0" fill="#6F8095"/>
	<path d="M 76.0,26.0 L 116.0,26.0 L 116.0,31.0 L 76.0,31.0 L 76.0,26.0" fill="#D05151"/>
</svg>
