<?xml version="1.0" ?>
<svg baseProfile="full" height="600px" version="1.1" viewBox="-12.06 -12.06 144.12 144.12" width="600px" xmlns="http://www.w3.org/2000/svg" xmlns:ev="http://www.w3.org/2001/xml-events" xmlns:xlink="http://www.w3.org/1999/xlink">
	<defs/>
	<path d="M 0.0,0.0 L 120.0,0.0 L 120.0,120.0 L 0.0,120.0 L 0.0,0.0" fill="#FCFCFC"/>
	<path d="M 40.0,25.0 L 52.0,25.0 L 52.0,52.0 L 56.0,52.0 L 56.0,25.0 L 68.0,25.0 L 68.0,52.0 L 72.0,52.0 L 72.0,25.0 L 84.0,25.0 L 84.0,52.0 L 88.0,52.0 L 88.0,31.0 L 91.0,28.0 L 98.0,29.0 L 100.0,31.0 L 100.0,100.0 L 97.0,106.0 L 91.0,111.0 L 89.0,112.0 L 48.0,112.0 L 42.0,108.0 L 38.0,103.0 L 21.0,75.0 L 16.0,67.0 L 16.0,61.0 L 21.0,56.0 L 27.0,56.0 L 32.0,61.0 L 39.0,70.0 L 40.0,25.0" fill="#010101"/>
	<path d="M 35.0,8.0 L 87.0,8.0 L 89.0,10.0 L 88.0,15.0 L 87.0,16.0 L 35.0,16.0 L 33.0,14.0 L 34.0,9.0 L 35.0,8.0" fill="#010101"/>
</svg>
