<?xml version="1.0" ?>
<svg baseProfile="full" height="600px" version="1.1" viewBox="-20.1 -20.1 240.2 240.2" width="600px" xmlns="http://www.w3.org/2000/svg" xmlns:ev="http://www.w3.org/2001/xml-events" xmlns:xlink="http://www.w3.org/1999/xlink">
	<defs/>
	<path d="M 0.0,0.0 L 200.0,0.0 L 200.0,200.0 L 0.0,200.0 L 0.0,0.0" fill="#FCFCFC"/>
	<path d="M 41.0,104.0 L 56.0,104.0 L 64.0,115.0 L 64.0,117.0 L 69.0,117.0 L 70.0,116.0 L 70.0,104.0 L 144.0,104.0 L 144.0,142.0 L 142.0,154.0 L 135.0,167.0 L 127.0,174.0 L 122.0,176.0 L 91.0,176.0 L 83.0,172.0 L 73.0,163.0 L 64.0,151.0 L 55.0,135.0 L 41.0,107.0 L 41.0,104.0" fill="#FCFCFC"/>
	<path d="M 94.0,16.0 L 101.0,16.0 L 107.0,19.0 L 111.0,24.0 L 113.0,33.0 L 117.0,29.0 L 120.0,28.0 L 127.0,28.0 L 134.0,32.0 L 137.0,37.0 L 137.0,51.0 L 141.0,48.0 L 149.0,48.0 L 155.0,53.0 L 156.0,56.0 L 156.0,68.0 L 154.0,88.0 L 146.0,88.0 L 146.0,76.0 L 147.0,71.0 L 147.0,57.0 L 143.0,57.0 L 140.0,66.0 L 134.0,88.0 L 124.0,88.0 L 125.0,73.0 L 128.0,47.0 L 128.0,39.0 L 125.0,37.0 L 120.0,38.0 L 118.0,42.0 L 113.0,88.0 L 104.0,88.0 L 103.0,28.0 L 101.0,25.0 L 95.0,25.0 L 93.0,27.0 L 92.0,88.0 L 82.0,88.0 L 75.0,59.0 L 71.0,41.0 L 70.0,37.0 L 64.0,37.0 L 61.0,40.0 L 61.0,47.0 L 67.0,80.0 L 67.0,88.0 L 59.0,88.0 L 52.0,47.0 L 52.0,38.0 L 56.0,32.0 L 62.0,28.0 L 69.0,28.0 L 75.0,31.0 L 79.0,36.0 L 83.0,52.0 L 84.0,25.0 L 91.0,17.0 L 94.0,16.0" fill="#060606"/>
	<path d="M 18.0,96.0 L 182.0,96.0 L 184.0,98.0 L 183.0,103.0 L 182.0,104.0 L 152.0,104.0 L 152.0,146.0 L 147.0,163.0 L 140.0,174.0 L 133.0,180.0 L 124.0,184.0 L 90.0,184.0 L 81.0,180.0 L 75.0,176.0 L 68.0,170.0 L 58.0,157.0 L 45.0,133.0 L 33.0,109.0 L 32.0,104.0 L 18.0,104.0 L 16.0,102.0 L 17.0,97.0 L 18.0,96.0 M 41.0,104.0 L 42.0,109.0 L 59.0,143.0 L 69.0,158.0 L 80.0,170.0 L 88.0,175.0 L 91.0,176.0 L 122.0,176.0 L 130.0,172.0 L 137.0,164.0 L 142.0,154.0 L 144.0,142.0 L 144.0,104.0 L 70.0,104.0 L 70.0,116.0 L 66.0,117.0 L 64.0,117.0 L 62.0,113.0 L 56.0,104.0 L 41.0,104.0" fill="#040404"/>
	<path d="M 178.0,156.0 L 183.0,157.0 L 184.0,158.0 L 184.0,182.0 L 182.0,184.0 L 158.0,184.0 L 156.0,182.0 L 157.0,177.0 L 158.0,176.0 L 176.0,176.0 L 176.0,158.0 L 178.0,156.0" fill="#020202"/>
	<path d="M 18.0,156.0 L 23.0,157.0 L 24.0,158.0 L 24.0,176.0 L 42.0,176.0 L 44.0,178.0 L 43.0,183.0 L 42.0,184.0 L 18.0,184.0 L 16.0,182.0 L 16.0,158.0 L 18.0,156.0" fill="#020202"/>
	<path d="M 158.0,16.0 L 182.0,16.0 L 184.0,18.0 L 184.0,42.0 L 182.0,44.0 L 177.0,43.0 L 176.0,42.0 L 176.0,24.0 L 158.0,24.0 L 156.0,22.0 L 157.0,17.0 L 158.0,16.0" fill="#020202"/>
	<path d="M 18.0,16.0 L 42.0,16.0 L 44.0,18.0 L 43.0,23.0 L 42.0,24.0 L 24.0,24.0 L 24.0,42.0 L 22.0,44.0 L 17.0,43.0 L 16.0,42.0 L 16.0,18.0 L 18.0,16.0" fill="#020202"/>
</svg>
