<?xml version="1.0" ?>
<svg baseProfile="full" height="600px" version="1.1" viewBox="-20.1 -20.1 240.2 240.2" width="600px" xmlns="http://www.w3.org/2000/svg" xmlns:ev="http://www.w3.org/2001/xml-events" xmlns:xlink="http://www.w3.org/1999/xlink">
	<defs/>
	<path d="M 0.0,0.0 L 200.0,0.0 L 200.0,200.0 L 0.0,200.0 L 0.0,0.0" fill="#FDFDFD"/>
	<path d="M 40.0,21.0 L 54.0,29.0 L 77.0,42.0 L 104.0,58.0 L 136.0,77.0 L 164.0,94.0 L 174.0,100.0 L 169.0,104.0 L 148.0,116.0 L 126.0,129.0 L 97.0,146.0 L 75.0,159.0 L 51.0,173.0 L 40.0,179.0 L 40.0,21.0" fill="#FCFCFC"/>
	<path d="M 40.0,21.0 L 54.0,29.0 L 77.0,42.0 L 104.0,58.0 L 136.0,77.0 L 164.0,94.0 L 174.0,100.0 L 169.0,104.0 L 148.0,116.0 L 126.0,129.0 L 97.0,146.0 L 75.0,159.0 L 51.0,173.0 L 40.0,179.0 L 40.0,21.0 M 48.0,35.0 L 48.0,165.0 L 59.0,159.0 L 85.0,144.0 L 89.0,141.0 L 90.0,127.0 L 97.0,124.0 L 97.0,136.0 L 107.0,131.0 L 129.0,118.0 L 158.0,101.0 L 154.0,97.0 L 133.0,85.0 L 105.0,68.0 L 100.0,65.0 L 98.0,65.0 L 97.0,75.0 L 90.0,73.0 L 90.0,59.0 L 69.0,47.0 L 49.0,35.0 L 48.0,35.0" fill="#050505"/>
</svg>
