<?xml version="1.0" ?>
<svg baseProfile="full" height="600px" version="1.1" viewBox="-12.864 -12.864 153.728 153.728" width="600px" xmlns="http://www.w3.org/2000/svg" xmlns:ev="http://www.w3.org/2001/xml-events" xmlns:xlink="http://www.w3.org/1999/xlink">
	<defs/>
	<path d="M 0.0,0.0 L 128.0,0.0 L 128.0,128.0 L 0.0,128.0 L 0.0,0.0" fill="#FDFDFD"/>
	<path d="M 36.0,21.0 L 41.0,23.0 L 57.0,33.0 L 62.0,35.0 L 67.0,37.0 L 83.0,47.0 L 93.0,54.0 L 99.0,66.0 L 100.0,70.0 L 75.0,86.0 L 63.0,94.0 L 62.0,92.0 L 44.0,103.0 L 38.0,107.0 L 36.0,107.0 L 36.0,21.0" fill="#0B0B0B"/>
	<path d="M 45.0,36.0 L 50.0,38.0 L 58.0,43.0 L 58.0,85.0 L 47.0,92.0 L 45.0,92.0 L 45.0,36.0" fill="#F9F9F9"/>
	<path d="M 70.0,49.0 L 82.0,56.0 L 87.0,59.0 L 89.0,63.0 L 88.0,68.0 L 71.0,79.0 L 70.0,79.0 L 70.0,49.0" fill="#F2F2F2"/>
</svg>
