<?xml version="1.0" ?>
<svg baseProfile="full" height="600px" version="1.1" viewBox="-19.296000000000003 -19.296000000000003 230.592 230.592" width="600px" xmlns="http://www.w3.org/2000/svg" xmlns:ev="http://www.w3.org/2001/xml-events" xmlns:xlink="http://www.w3.org/1999/xlink">
	<defs/>
	<path d="M 0.0,0.0 L 192.0,0.0 L 192.0,192.0 L 0.0,192.0 L 0.0,0.0" fill="#2397F3"/>
	<path d="M 0.0,0.0 L 192.0,0.0 L 192.0,192.0 L 0.0,192.0 L 0.0,0.0 M 86.0,15.0 L 69.0,19.0 L 53.0,27.0 L 40.0,37.0 L 31.0,47.0 L 22.0,62.0 L 19.0,69.0 L 15.0,86.0 L 15.0,106.0 L 19.0,122.0 L 24.0,134.0 L 32.0,146.0 L 42.0,157.0 L 56.0,167.0 L 67.0,172.0 L 80.0,176.0 L 86.0,177.0 L 105.0,177.0 L 123.0,173.0 L 139.0,165.0 L 152.0,155.0 L 161.0,145.0 L 170.0,130.0 L 173.0,123.0 L 177.0,105.0 L 177.0,86.0 L 173.0,70.0 L 168.0,58.0 L 160.0,46.0 L 150.0,35.0 L 137.0,26.0 L 125.0,20.0 L 116.0,17.0 L 106.0,15.0 L 86.0,15.0" fill="#FDFEFE"/>
	<path d="M 65.0,60.0 L 90.0,63.0 L 119.0,67.0 L 131.0,69.0 L 131.0,123.0 L 121.0,125.0 L 97.0,128.0 L 78.0,131.0 L 65.0,132.0 L 65.0,60.0" fill="#FCFDFE"/>
</svg>
