<?xml version="1.0" ?>
<svg baseProfile="full" height="600px" version="1.1" viewBox="-12.864 -12.864 153.728 153.728" width="600px" xmlns="http://www.w3.org/2000/svg" xmlns:ev="http://www.w3.org/2001/xml-events" xmlns:xlink="http://www.w3.org/1999/xlink">
	<defs/>
	<path d="M 0.0,0.0 L 128.0,0.0 L 128.0,128.0 L 0.0,128.0 L 0.0,0.0" fill="#FDFDFD"/>
	<path d="M 37.0,20.0 L 42.0,22.0 L 60.0,34.0 L 61.0,35.0 L 61.0,93.0 L 51.0,100.0 L 39.0,108.0 L 37.0,108.0 L 37.0,20.0" fill="#0E0E0E"/>
	<path d="M 67.0,31.0 L 72.0,33.0 L 92.0,46.0 L 93.0,47.0 L 96.0,71.0 L 96.0,80.0 L 78.0,91.0 L 69.0,97.0 L 67.0,97.0 L 67.0,31.0" fill="#080808"/>
	<path d="M 46.0,35.0 L 53.0,39.0 L 53.0,89.0 L 46.0,93.0 L 46.0,35.0" fill="#FCFCFC"/>
	<path d="M 75.0,45.0 L 85.0,51.0 L 87.0,67.0 L 87.0,76.0 L 75.0,83.0 L 75.0,45.0" fill="#F2F2F2"/>
</svg>
