<?xml version="1.0" ?>
<svg baseProfile="full" height="600px" version="1.1" viewBox="-20.1 -20.1 240.2 240.2" width="600px" xmlns="http://www.w3.org/2000/svg" xmlns:ev="http://www.w3.org/2001/xml-events" xmlns:xlink="http://www.w3.org/1999/xlink">
	<defs/>
	<path d="M 0.0,0.0 L 200.0,0.0 L 200.0,200.0 L 0.0,200.0 L 0.0,0.0" fill="#FDFDFD"/>
	<path d="M 164.0,14.0 L 175.0,14.0 L 182.0,18.0 L 186.0,25.0 L 186.0,34.0 L 183.0,40.0 L 180.0,43.0 L 178.0,50.0 L 60.0,168.0 L 56.0,171.0 L 46.0,174.0 L 23.0,184.0 L 17.0,184.0 L 16.0,183.0 L 17.0,174.0 L 28.0,145.0 L 35.0,137.0 L 151.0,21.0 L 157.0,19.0 L 162.0,15.0 L 164.0,14.0" fill="#040404"/>
	<path d="M 135.0,48.0 L 139.0,50.0 L 152.0,63.0 L 150.0,67.0 L 56.0,161.0 L 52.0,160.0 L 51.0,151.0 L 49.0,149.0 L 40.0,148.0 L 38.0,145.0 L 135.0,48.0" fill="#F9F9F9"/>
	<path d="M 152.0,31.0 L 156.0,33.0 L 169.0,46.0 L 167.0,50.0 L 159.0,58.0 L 152.0,52.0 L 142.0,42.0 L 148.0,35.0 L 152.0,31.0" fill="#F5F5F5"/>
	<path d="M 166.0,22.0 L 174.0,22.0 L 178.0,26.0 L 178.0,33.0 L 173.0,39.0 L 166.0,33.0 L 161.0,28.0 L 163.0,24.0 L 166.0,22.0" fill="#F5F5F5"/>
	<path d="M 34.0,153.0 L 39.0,156.0 L 43.0,157.0 L 46.0,165.0 L 33.0,171.0 L 29.0,169.0 L 30.0,163.0 L 34.0,153.0" fill="#F6F6F6"/>
</svg>
