<?xml version="1.0" ?>
<svg baseProfile="full" height="600px" version="1.1" viewBox="-16.08 -16.08 192.16 192.16" width="600px" xmlns="http://www.w3.org/2000/svg" xmlns:ev="http://www.w3.org/2001/xml-events" xmlns:xlink="http://www.w3.org/1999/xlink">
	<defs/>
	<path d="M 0.0,0.0 L 160.0,0.0 L 160.0,160.0 L 0.0,160.0 L 0.0,0.0" fill="#FDFDFD"/>
	<path d="M 134.0,6.0 L 143.0,6.0 L 149.0,10.0 L 153.0,15.0 L 154.0,17.0 L 154.0,26.0 L 150.0,32.0 L 141.0,42.0 L 136.0,47.0 L 120.0,62.0 L 103.0,79.0 L 96.0,87.0 L 45.0,138.0 L 10.0,153.0 L 6.0,154.0 L 9.0,145.0 L 22.0,116.0 L 29.0,108.0 L 45.0,93.0 L 107.0,31.0 L 114.0,23.0 L 125.0,12.0 L 134.0,6.0" fill="#B7DDBA"/>
	<path d="M 108.0,30.0 L 111.0,31.0 L 109.0,35.0 L 31.0,113.0 L 33.0,120.0 L 37.0,121.0 L 42.0,127.0 L 47.0,129.0 L 127.0,49.0 L 130.0,50.0 L 128.0,54.0 L 103.0,79.0 L 96.0,87.0 L 45.0,138.0 L 10.0,153.0 L 6.0,154.0 L 9.0,145.0 L 22.0,116.0 L 29.0,108.0 L 45.0,93.0 L 108.0,30.0" fill="#649E79"/>
	<path d="M 134.0,6.0 L 143.0,6.0 L 149.0,10.0 L 153.0,15.0 L 154.0,17.0 L 154.0,26.0 L 150.0,32.0 L 141.0,42.0 L 136.0,47.0 L 130.0,52.0 L 123.0,44.0 L 110.0,31.0 L 108.0,29.0 L 125.0,12.0 L 134.0,6.0" fill="#7F909E"/>
	<path d="M 134.0,6.0 L 143.0,6.0 L 149.0,10.0 L 153.0,15.0 L 154.0,17.0 L 154.0,26.0 L 150.0,32.0 L 147.0,34.0 L 126.0,13.0 L 130.0,8.0 L 134.0,6.0" fill="#F38C8C"/>
	<path d="M 125.0,18.0 L 132.0,24.0 L 142.0,34.0 L 136.0,41.0 L 132.0,45.0 L 128.0,43.0 L 115.0,30.0 L 117.0,26.0 L 125.0,18.0" fill="#D5E3F1"/>
	<path d="M 25.0,118.0 L 29.0,119.0 L 29.0,123.0 L 34.0,124.0 L 37.0,127.0 L 38.0,130.0 L 43.0,132.0 L 43.0,134.0 L 27.0,141.0 L 23.0,140.0 L 19.0,136.0 L 20.0,131.0 L 25.0,118.0" fill="#F1CB83"/>
	<path d="M 15.0,133.0 L 18.0,134.0 L 18.0,136.0 L 22.0,138.0 L 24.0,142.0 L 27.0,143.0 L 26.0,146.0 L 8.0,154.0 L 6.0,154.0 L 9.0,145.0 L 15.0,133.0" fill="#3F4751"/>
	<path d="M 134.0,6.0 L 143.0,6.0 L 149.0,10.0 L 153.0,15.0 L 154.0,17.0 L 154.0,26.0 L 150.0,32.0 L 147.0,34.0 L 145.0,31.0 L 149.0,25.0 L 149.0,18.0 L 146.0,13.0 L 142.0,11.0 L 135.0,11.0 L 128.0,15.0 L 126.0,12.0 L 132.0,7.0 L 134.0,6.0" fill="#C8494A"/>
	<path d="M 34.0,103.0 L 36.0,104.0 L 26.0,114.0 L 25.0,121.0 L 20.0,132.0 L 18.0,136.0 L 15.0,132.0 L 23.0,114.0 L 34.0,103.0" fill="#659E79"/>
	<path d="M 41.0,134.0 L 45.0,135.0 L 45.0,138.0 L 28.0,145.0 L 24.0,141.0 L 41.0,134.0" fill="#9B814D"/>
	<path d="M 22.0,116.0 L 26.0,117.0 L 21.0,131.0 L 19.0,136.0 L 15.0,132.0 L 22.0,116.0" fill="#9A804C"/>
</svg>
