<?xml version="1.0" ?>
<svg baseProfile="full" height="600px" version="1.1" viewBox="-16.08 -16.08 192.16 192.16" width="600px" xmlns="http://www.w3.org/2000/svg" xmlns:ev="http://www.w3.org/2001/xml-events" xmlns:xlink="http://www.w3.org/1999/xlink">
	<defs/>
	<path d="M 0.0,0.0 L 160.0,0.0 L 160.0,160.0 L 0.0,160.0 L 0.0,0.0" fill="#FDFDFD"/>
	<path d="M 133.0,7.0 L 140.0,7.0 L 148.0,11.0 L 153.0,19.0 L 153.0,26.0 L 150.0,32.0 L 139.0,44.0 L 134.0,49.0 L 119.0,63.0 L 101.0,81.0 L 94.0,89.0 L 49.0,134.0 L 24.0,145.0 L 13.0,149.0 L 11.0,149.0 L 12.0,144.0 L 20.0,124.0 L 27.0,110.0 L 37.0,100.0 L 45.0,93.0 L 106.0,32.0 L 113.0,24.0 L 124.0,13.0 L 133.0,7.0" fill="#639E79"/>
	<path d="M 109.0,34.0 L 113.0,35.0 L 126.0,48.0 L 125.0,52.0 L 50.0,127.0 L 44.0,124.0 L 40.0,118.0 L 36.0,116.0 L 33.0,110.0 L 109.0,34.0" fill="#B6DDBA"/>
	<path d="M 133.0,7.0 L 140.0,7.0 L 148.0,11.0 L 153.0,19.0 L 153.0,26.0 L 150.0,32.0 L 147.0,35.0 L 143.0,33.0 L 126.0,16.0 L 125.0,13.0 L 131.0,8.0 L 133.0,7.0" fill="#F18B8C"/>
	<path d="M 123.0,20.0 L 127.0,21.0 L 140.0,34.0 L 139.0,38.0 L 131.0,46.0 L 127.0,45.0 L 113.0,31.0 L 119.0,24.0 L 123.0,20.0" fill="#D3E1EF"/>
	<path d="M 124.0,13.0 L 129.0,18.0 L 145.0,34.0 L 147.0,36.0 L 138.0,45.0 L 133.0,50.0 L 129.0,53.0 L 122.0,45.0 L 112.0,35.0 L 107.0,30.0 L 124.0,13.0 M 123.0,20.0 L 113.0,30.0 L 119.0,37.0 L 128.0,46.0 L 132.0,45.0 L 140.0,37.0 L 139.0,33.0 L 126.0,20.0 L 123.0,20.0" fill="#7D8E9D"/>
	<path d="M 29.0,114.0 L 32.0,115.0 L 33.0,120.0 L 38.0,121.0 L 41.0,125.0 L 41.0,128.0 L 46.0,129.0 L 46.0,131.0 L 30.0,138.0 L 26.0,137.0 L 22.0,133.0 L 23.0,128.0 L 29.0,114.0" fill="#EFCA82"/>
	<path d="M 133.0,7.0 L 140.0,7.0 L 148.0,11.0 L 153.0,19.0 L 153.0,26.0 L 150.0,32.0 L 147.0,35.0 L 144.0,34.0 L 146.0,29.0 L 148.0,25.0 L 147.0,18.0 L 142.0,13.0 L 134.0,12.0 L 128.0,16.0 L 126.0,16.0 L 125.0,13.0 L 131.0,8.0 L 133.0,7.0" fill="#C94E4E"/>
	<path d="M 18.0,130.0 L 22.0,132.0 L 31.0,141.0 L 29.0,143.0 L 13.0,149.0 L 11.0,149.0 L 12.0,144.0 L 17.0,131.0 L 18.0,130.0" fill="#3D4651"/>
	<path d="M 107.0,31.0 L 109.0,32.0 L 107.0,31.0 M 37.0,100.0 L 39.0,101.0 L 29.0,111.0 L 28.0,113.0 L 30.0,114.0 L 22.0,132.0 L 18.0,129.0 L 26.0,111.0 L 37.0,100.0" fill="#659E79"/>
	<path d="M 46.0,130.0 L 48.0,134.0 L 36.0,140.0 L 30.0,141.0 L 28.0,138.0 L 46.0,130.0" fill="#9A7F4B"/>
	<path d="M 26.0,112.0 L 30.0,114.0 L 22.0,132.0 L 18.0,129.0 L 25.0,113.0 L 26.0,112.0" fill="#997F4C"/>
</svg>
