<?xml version="1.0" ?>
<svg baseProfile="full" height="600px" version="1.1" viewBox="-20.1 -20.1 240.2 240.2" width="600px" xmlns="http://www.w3.org/2000/svg" xmlns:ev="http://www.w3.org/2001/xml-events" xmlns:xlink="http://www.w3.org/1999/xlink">
	<defs/>
	<path d="M 0.0,0.0 L 200.0,0.0 L 200.0,200.0 L 0.0,200.0 L 0.0,0.0" fill="#FDFDFD"/>
	<path d="M 153.0,34.0 L 161.0,34.0 L 169.0,38.0 L 173.0,43.0 L 174.0,46.0 L 174.0,54.0 L 170.0,62.0 L 167.0,65.0 L 165.0,65.0 L 165.0,71.0 L 151.0,83.0 L 137.0,95.0 L 124.0,106.0 L 110.0,118.0 L 97.0,129.0 L 83.0,141.0 L 73.0,149.0 L 53.0,155.0 L 42.0,158.0 L 42.0,160.0 L 41.0,165.0 L 40.0,166.0 L 35.0,166.0 L 29.0,159.0 L 30.0,154.0 L 38.0,138.0 L 47.0,119.0 L 57.0,110.0 L 68.0,101.0 L 83.0,88.0 L 97.0,76.0 L 108.0,67.0 L 118.0,58.0 L 129.0,49.0 L 140.0,40.0 L 145.0,39.0 L 153.0,34.0" fill="#070707"/>
	<path d="M 122.0,66.0 L 126.0,68.0 L 135.0,79.0 L 137.0,81.0 L 136.0,85.0 L 121.0,98.0 L 108.0,109.0 L 94.0,121.0 L 83.0,130.0 L 73.0,139.0 L 69.0,138.0 L 68.0,128.0 L 67.0,127.0 L 59.0,126.0 L 56.0,122.0 L 66.0,113.0 L 77.0,104.0 L 92.0,91.0 L 106.0,79.0 L 119.0,68.0 L 122.0,66.0" fill="#FAFAFA"/>
	<path d="M 139.0,51.0 L 143.0,52.0 L 155.0,66.0 L 154.0,70.0 L 145.0,77.0 L 141.0,75.0 L 130.0,62.0 L 130.0,59.0 L 139.0,51.0" fill="#F7F7F7"/>
	<path d="M 51.0,130.0 L 53.0,130.0 L 53.0,132.0 L 60.0,133.0 L 62.0,141.0 L 62.0,144.0 L 51.0,147.0 L 46.0,146.0 L 45.0,142.0 L 51.0,130.0" fill="#F6F6F6"/>
	<path d="M 155.0,42.0 L 162.0,43.0 L 166.0,47.0 L 166.0,53.0 L 164.0,57.0 L 159.0,59.0 L 149.0,48.0 L 149.0,46.0 L 155.0,42.0" fill="#F5F5F5"/>
</svg>
