<?xml version="1.0" ?>
<svg baseProfile="full" height="600px" version="1.1" viewBox="-20.1 -20.1 240.2 240.2" width="600px" xmlns="http://www.w3.org/2000/svg" xmlns:ev="http://www.w3.org/2001/xml-events" xmlns:xlink="http://www.w3.org/1999/xlink">
	<defs/>
	<path d="M 0.0,0.0 L 200.0,0.0 L 200.0,200.0 L 0.0,200.0 L 0.0,0.0" fill="#FDFDFD"/>
	<path d="M 166.0,12.0 L 177.0,12.0 L 183.0,16.0 L 187.0,21.0 L 188.0,23.0 L 188.0,32.0 L 185.0,38.0 L 182.0,41.0 L 180.0,48.0 L 53.0,175.0 L 23.0,186.0 L 18.0,188.0 L 13.0,187.0 L 12.0,182.0 L 23.0,152.0 L 26.0,146.0 L 153.0,19.0 L 159.0,17.0 L 164.0,13.0 L 166.0,12.0" fill="#030303"/>
	<path d="M 137.0,46.0 L 141.0,48.0 L 154.0,61.0 L 152.0,65.0 L 52.0,165.0 L 48.0,163.0 L 47.0,154.0 L 46.0,153.0 L 37.0,152.0 L 35.0,148.0 L 137.0,46.0" fill="#F9F9F9"/>
	<path d="M 154.0,29.0 L 161.0,35.0 L 169.0,43.0 L 171.0,44.0 L 169.0,48.0 L 161.0,56.0 L 159.0,56.0 L 152.0,48.0 L 144.0,40.0 L 150.0,33.0 L 154.0,29.0" fill="#F9F9F9"/>
	<path d="M 30.0,157.0 L 34.0,159.0 L 40.0,160.0 L 42.0,167.0 L 43.0,170.0 L 30.0,175.0 L 26.0,173.0 L 25.0,170.0 L 30.0,157.0" fill="#F4F4F4"/>
	<path d="M 168.0,20.0 L 175.0,20.0 L 180.0,25.0 L 180.0,31.0 L 175.0,37.0 L 168.0,31.0 L 163.0,26.0 L 165.0,22.0 L 168.0,20.0" fill="#F6F6F6"/>
</svg>
