<?xml version="1.0" ?>
<svg baseProfile="full" height="600px" version="1.1" viewBox="-12.06 -12.06 144.12 144.12" width="600px" xmlns="http://www.w3.org/2000/svg" xmlns:ev="http://www.w3.org/2001/xml-events" xmlns:xlink="http://www.w3.org/1999/xlink">
	<defs/>
	<path d="M 0.0,0.0 L 120.0,0.0 L 120.0,120.0 L 0.0,120.0 L 0.0,0.0" fill="#FCFCFC"/>
	<path d="M 0.0,0.0 L 69.0,0.0 L 83.0,4.0 L 89.0,8.0 L 87.0,25.0 L 81.0,23.0 L 72.0,18.0 L 78.0,11.0 L 66.0,9.0 L 51.0,9.0 L 39.0,13.0 L 27.0,20.0 L 20.0,27.0 L 12.0,41.0 L 9.0,51.0 L 8.0,70.0 L 7.0,71.0 L 2.0,71.0 L 0.0,69.0 L 0.0,0.0" fill="#070707"/>
	<path d="M 60.0,27.0 L 63.0,30.0 L 76.0,29.0 L 79.0,34.0 L 80.0,40.0 L 86.0,39.0 L 84.0,44.0 L 63.0,86.0 L 60.0,87.0 L 38.0,76.0 L 37.0,73.0 L 60.0,27.0" fill="#030303"/>
	<path d="M 0.0,0.0 L 50.0,0.0 L 47.0,2.0 L 37.0,5.0 L 26.0,11.0 L 16.0,20.0 L 9.0,29.0 L 3.0,42.0 L 1.0,52.0 L 0.0,52.0 L 0.0,0.0" fill="#FAFAFA"/>
	<path d="M 31.0,85.0 L 37.0,87.0 L 56.0,97.0 L 55.0,102.0 L 50.0,111.0 L 47.0,114.0 L 40.0,114.0 L 27.0,107.0 L 24.0,103.0 L 25.0,96.0 L 31.0,85.0" fill="#060606"/>
</svg>
