<?xml version="1.0" ?>
<svg baseProfile="full" height="600px" version="1.1" viewBox="-16.08 -16.08 192.16 192.16" width="600px" xmlns="http://www.w3.org/2000/svg" xmlns:ev="http://www.w3.org/2001/xml-events" xmlns:xlink="http://www.w3.org/1999/xlink">
	<defs/>
	<path d="M 0.0,0.0 L 160.0,0.0 L 160.0,160.0 L 0.0,160.0 L 0.0,0.0" fill="#FDFDFD"/>
	<path d="M 70.0,4.0 L 91.0,4.0 L 104.0,7.0 L 114.0,12.0 L 114.0,35.0 L 113.0,51.0 L 93.0,90.0 L 80.0,115.0 L 72.0,131.0 L 65.0,144.0 L 60.0,148.0 L 57.0,149.0 L 48.0,149.0 L 42.0,145.0 L 38.0,140.0 L 37.0,137.0 L 37.0,129.0 L 46.0,112.0 L 54.0,96.0 L 72.0,60.0 L 80.0,44.0 L 86.0,35.0 L 98.0,24.0 L 110.0,16.0 L 107.0,14.0 L 95.0,10.0 L 90.0,9.0 L 71.0,9.0 L 55.0,13.0 L 41.0,20.0 L 31.0,28.0 L 22.0,38.0 L 14.0,52.0 L 10.0,66.0 L 9.0,71.0 L 8.0,90.0 L 4.0,90.0 L 4.0,70.0 L 8.0,54.0 L 16.0,38.0 L 24.0,28.0 L 31.0,21.0 L 45.0,12.0 L 57.0,7.0 L 70.0,4.0" fill="#B7DDBB"/>
	<path d="M 70.0,4.0 L 91.0,4.0 L 104.0,7.0 L 114.0,12.0 L 114.0,35.0 L 113.0,51.0 L 93.0,90.0 L 79.0,117.0 L 75.0,116.0 L 77.0,110.0 L 88.0,88.0 L 98.0,69.0 L 104.0,57.0 L 104.0,54.0 L 102.0,53.0 L 102.0,51.0 L 95.0,50.0 L 92.0,48.0 L 92.0,46.0 L 85.0,46.0 L 61.0,93.0 L 55.0,104.0 L 51.0,103.0 L 60.0,84.0 L 72.0,60.0 L 80.0,44.0 L 86.0,35.0 L 98.0,24.0 L 110.0,16.0 L 107.0,14.0 L 95.0,10.0 L 90.0,9.0 L 71.0,9.0 L 55.0,13.0 L 41.0,20.0 L 31.0,28.0 L 22.0,38.0 L 14.0,52.0 L 10.0,66.0 L 9.0,71.0 L 8.0,90.0 L 4.0,90.0 L 4.0,70.0 L 8.0,54.0 L 16.0,38.0 L 24.0,28.0 L 31.0,21.0 L 45.0,12.0 L 57.0,7.0 L 70.0,4.0" fill="#66A07B"/>
	<path d="M 50.0,103.0 L 56.0,105.0 L 75.0,115.0 L 79.0,118.0 L 67.0,141.0 L 63.0,146.0 L 57.0,149.0 L 48.0,149.0 L 42.0,145.0 L 38.0,140.0 L 37.0,137.0 L 37.0,129.0 L 46.0,112.0 L 50.0,103.0" fill="#7E8F9E"/>
	<path d="M 70.0,4.0 L 91.0,4.0 L 104.0,7.0 L 114.0,12.0 L 114.0,33.0 L 99.0,26.0 L 101.0,22.0 L 110.0,16.0 L 107.0,14.0 L 95.0,10.0 L 90.0,9.0 L 71.0,9.0 L 55.0,13.0 L 41.0,20.0 L 31.0,28.0 L 22.0,38.0 L 14.0,52.0 L 10.0,66.0 L 9.0,71.0 L 8.0,90.0 L 4.0,90.0 L 4.0,70.0 L 8.0,54.0 L 16.0,38.0 L 24.0,28.0 L 31.0,21.0 L 45.0,12.0 L 57.0,7.0 L 70.0,4.0" fill="#414A56"/>
	<path d="M 40.0,124.0 L 56.0,132.0 L 67.0,138.0 L 66.0,142.0 L 61.0,147.0 L 57.0,149.0 L 48.0,149.0 L 42.0,145.0 L 38.0,140.0 L 37.0,137.0 L 37.0,129.0 L 40.0,124.0" fill="#F38B8C"/>
	<path d="M 52.0,109.0 L 56.0,110.0 L 72.0,118.0 L 73.0,120.0 L 66.0,133.0 L 47.0,124.0 L 46.0,121.0 L 52.0,109.0" fill="#D5E3F1"/>
	<path d="M 101.0,27.0 L 107.0,29.0 L 110.0,31.0 L 109.0,48.0 L 107.0,51.0 L 104.0,49.0 L 104.0,47.0 L 98.0,47.0 L 94.0,44.0 L 94.0,42.0 L 88.0,42.0 L 88.0,39.0 L 101.0,27.0" fill="#EECA82"/>
	<path d="M 40.0,124.0 L 43.0,126.0 L 42.0,130.0 L 42.0,137.0 L 45.0,142.0 L 49.0,144.0 L 56.0,144.0 L 61.0,141.0 L 64.0,137.0 L 67.0,138.0 L 66.0,142.0 L 61.0,147.0 L 57.0,149.0 L 48.0,149.0 L 42.0,145.0 L 38.0,140.0 L 37.0,137.0 L 37.0,129.0 L 40.0,124.0" fill="#C94C4C"/>
	<path d="M 98.0,24.0 L 99.0,26.0 L 101.0,26.0 L 99.0,30.0 L 88.0,40.0 L 84.0,38.0 L 89.0,32.0 L 97.0,25.0 L 98.0,24.0" fill="#9B814D"/>
	<path d="M 110.0,31.0 L 114.0,33.0 L 113.0,51.0 L 108.0,51.0 L 110.0,31.0" fill="#9B814E"/>
</svg>
