<?xml version="1.0" ?>
<svg baseProfile="full" height="600px" version="1.1" viewBox="-20.1 -20.1 240.2 240.2" width="600px" xmlns="http://www.w3.org/2000/svg" xmlns:ev="http://www.w3.org/2001/xml-events" xmlns:xlink="http://www.w3.org/1999/xlink">
	<defs/>
	<path d="M 0.0,0.0 L 200.0,0.0 L 200.0,200.0 L 0.0,200.0 L 0.0,0.0" fill="#060606"/>
	<path d="M 0.0,0.0 L 200.0,0.0 L 200.0,151.0 L 198.0,148.0 L 193.0,139.0 L 183.0,132.0 L 165.0,124.0 L 161.0,120.0 L 161.0,110.0 L 165.0,102.0 L 171.0,91.0 L 171.0,61.0 L 166.0,52.0 L 159.0,47.0 L 154.0,45.0 L 153.0,41.0 L 140.0,41.0 L 132.0,42.0 L 126.0,33.0 L 118.0,29.0 L 113.0,28.0 L 110.0,22.0 L 108.0,21.0 L 93.0,22.0 L 81.0,27.0 L 71.0,36.0 L 67.0,44.0 L 65.0,43.0 L 65.0,41.0 L 54.0,41.0 L 44.0,44.0 L 36.0,50.0 L 31.0,56.0 L 29.0,61.0 L 29.0,91.0 L 37.0,107.0 L 39.0,110.0 L 39.0,121.0 L 34.0,125.0 L 16.0,133.0 L 8.0,139.0 L 4.0,144.0 L 1.0,151.0 L 0.0,151.0 L 0.0,0.0" fill="#FCFCFC"/>
	<path d="M 102.0,28.0 L 105.0,28.0 L 109.0,34.0 L 117.0,36.0 L 124.0,42.0 L 128.0,51.0 L 128.0,65.0 L 126.0,70.0 L 127.0,75.0 L 128.0,80.0 L 126.0,86.0 L 122.0,88.0 L 120.0,96.0 L 114.0,107.0 L 114.0,124.0 L 122.0,133.0 L 136.0,140.0 L 152.0,147.0 L 161.0,155.0 L 164.0,164.0 L 36.0,164.0 L 39.0,155.0 L 48.0,147.0 L 76.0,134.0 L 84.0,127.0 L 86.0,124.0 L 86.0,107.0 L 80.0,97.0 L 79.0,95.0 L 79.0,89.0 L 77.0,89.0 L 73.0,85.0 L 72.0,76.0 L 73.0,67.0 L 72.0,64.0 L 72.0,50.0 L 77.0,40.0 L 85.0,33.0 L 91.0,30.0 L 102.0,28.0" fill="#FCFCFC"/>
	<path d="M 0.0,158.0 L 2.0,159.0 L 29.0,160.0 L 28.0,171.0 L 172.0,171.0 L 171.0,160.0 L 198.0,159.0 L 200.0,158.0 L 200.0,200.0 L 0.0,200.0 L 0.0,158.0" fill="#FCFCFC"/>
	<path d="M 144.0,48.0 L 148.0,49.0 L 150.0,53.0 L 158.0,55.0 L 162.0,59.0 L 164.0,63.0 L 164.0,77.0 L 163.0,83.0 L 164.0,84.0 L 164.0,90.0 L 160.0,93.0 L 157.0,103.0 L 154.0,107.0 L 154.0,122.0 L 158.0,128.0 L 174.0,136.0 L 184.0,141.0 L 191.0,149.0 L 191.0,152.0 L 167.0,152.0 L 159.0,143.0 L 147.0,136.0 L 127.0,128.0 L 121.0,123.0 L 121.0,109.0 L 126.0,101.0 L 128.0,93.0 L 132.0,89.0 L 135.0,81.0 L 135.0,74.0 L 134.0,69.0 L 135.0,66.0 L 136.0,49.0 L 144.0,48.0" fill="#FAFAFA"/>
	<path d="M 54.0,48.0 L 59.0,48.0 L 64.0,53.0 L 65.0,66.0 L 66.0,72.0 L 65.0,74.0 L 65.0,84.0 L 68.0,90.0 L 72.0,95.0 L 76.0,105.0 L 79.0,109.0 L 79.0,123.0 L 71.0,129.0 L 51.0,137.0 L 40.0,144.0 L 33.0,152.0 L 9.0,152.0 L 11.0,146.0 L 20.0,139.0 L 40.0,130.0 L 45.0,125.0 L 46.0,123.0 L 46.0,107.0 L 43.0,103.0 L 40.0,93.0 L 36.0,90.0 L 36.0,84.0 L 37.0,79.0 L 36.0,77.0 L 36.0,63.0 L 40.0,56.0 L 48.0,50.0 L 54.0,48.0" fill="#FAFAFA"/>
</svg>
