<?xml version="1.0" ?>
<svg baseProfile="full" height="600px" version="1.1" viewBox="-19.296000000000003 -19.296000000000003 230.592 230.592" width="600px" xmlns="http://www.w3.org/2000/svg" xmlns:ev="http://www.w3.org/2001/xml-events" xmlns:xlink="http://www.w3.org/1999/xlink">
	<defs/>
	<path d="M 0.0,0.0 L 192.0,0.0 L 192.0,192.0 L 0.0,192.0 L 0.0,0.0" fill="#FDFDFD"/>
	<path d="M 85.0,107.0 L 108.0,107.0 L 121.0,112.0 L 130.0,118.0 L 146.0,122.0 L 155.0,128.0 L 163.0,137.0 L 164.0,139.0 L 164.0,152.0 L 28.0,152.0 L 28.0,139.0 L 34.0,131.0 L 42.0,124.0 L 54.0,119.0 L 62.0,118.0 L 73.0,111.0 L 80.0,108.0 L 85.0,107.0" fill="#607C89"/>
	<path d="M 90.0,40.0 L 101.0,40.0 L 110.0,44.0 L 118.0,53.0 L 120.0,58.0 L 120.0,70.0 L 116.0,78.0 L 109.0,85.0 L 101.0,88.0 L 90.0,88.0 L 82.0,84.0 L 74.0,75.0 L 72.0,69.0 L 72.0,58.0 L 76.0,50.0 L 83.0,43.0 L 90.0,40.0" fill="#FEB74E"/>
	<path d="M 56.0,80.0 L 67.0,80.0 L 74.0,84.0 L 79.0,91.0 L 79.0,101.0 L 75.0,109.0 L 71.0,113.0 L 66.0,114.0 L 57.0,114.0 L 50.0,110.0 L 46.0,104.0 L 45.0,101.0 L 45.0,93.0 L 48.0,86.0 L 56.0,80.0" fill="#FEA82A"/>
	<path d="M 124.0,80.0 L 135.0,80.0 L 142.0,84.0 L 147.0,91.0 L 147.0,101.0 L 143.0,109.0 L 137.0,113.0 L 134.0,114.0 L 125.0,114.0 L 119.0,112.0 L 114.0,104.0 L 113.0,101.0 L 113.0,93.0 L 116.0,86.0 L 124.0,80.0" fill="#FEA82A"/>
	<path d="M 131.0,119.0 L 140.0,120.0 L 150.0,124.0 L 160.0,133.0 L 164.0,139.0 L 164.0,152.0 L 144.0,152.0 L 143.0,135.0 L 135.0,124.0 L 131.0,119.0" fill="#475C65"/>
	<path d="M 52.0,120.0 L 59.0,120.0 L 57.0,124.0 L 51.0,132.0 L 49.0,135.0 L 48.0,152.0 L 28.0,152.0 L 28.0,139.0 L 34.0,131.0 L 42.0,124.0 L 52.0,120.0" fill="#465B65"/>
</svg>
