<?xml version="1.0" ?>
<svg baseProfile="full" height="600px" version="1.1" viewBox="-19.296000000000003 -19.296000000000003 230.592 230.592" width="600px" xmlns="http://www.w3.org/2000/svg" xmlns:ev="http://www.w3.org/2001/xml-events" xmlns:xlink="http://www.w3.org/1999/xlink">
	<defs/>
	<path d="M 0.0,0.0 L 192.0,0.0 L 192.0,192.0 L 0.0,192.0 L 0.0,0.0" fill="#FDFDFD"/>
	<path d="M 85.0,107.0 L 108.0,107.0 L 121.0,112.0 L 126.0,115.0 L 134.0,114.0 L 153.0,114.0 L 164.0,118.0 L 173.0,124.0 L 182.0,134.0 L 184.0,138.0 L 184.0,152.0 L 8.0,152.0 L 8.0,138.0 L 14.0,129.0 L 21.0,122.0 L 32.0,116.0 L 38.0,114.0 L 57.0,114.0 L 66.0,115.0 L 80.0,108.0 L 85.0,107.0" fill="#607C89"/>
	<path d="M 90.0,44.0 L 101.0,44.0 L 110.0,48.0 L 118.0,57.0 L 120.0,62.0 L 120.0,74.0 L 116.0,82.0 L 109.0,89.0 L 101.0,92.0 L 90.0,92.0 L 82.0,88.0 L 74.0,79.0 L 72.0,73.0 L 72.0,62.0 L 76.0,54.0 L 83.0,47.0 L 90.0,44.0" fill="#FEB74E"/>
	<path d="M 38.0,114.0 L 57.0,114.0 L 63.0,116.0 L 61.0,120.0 L 52.0,130.0 L 49.0,135.0 L 48.0,152.0 L 8.0,152.0 L 8.0,138.0 L 14.0,129.0 L 21.0,122.0 L 32.0,116.0 L 38.0,114.0" fill="#465B65"/>
	<path d="M 134.0,114.0 L 153.0,114.0 L 164.0,118.0 L 173.0,124.0 L 182.0,134.0 L 184.0,138.0 L 184.0,152.0 L 144.0,152.0 L 143.0,135.0 L 135.0,124.0 L 129.0,118.0 L 130.0,115.0 L 134.0,114.0" fill="#465B65"/>
	<path d="M 140.0,64.0 L 149.0,64.0 L 157.0,68.0 L 163.0,76.0 L 164.0,79.0 L 164.0,88.0 L 161.0,95.0 L 157.0,100.0 L 149.0,104.0 L 139.0,104.0 L 131.0,100.0 L 125.0,92.0 L 124.0,89.0 L 124.0,80.0 L 127.0,73.0 L 131.0,68.0 L 136.0,65.0 L 140.0,64.0" fill="#FEA829"/>
	<path d="M 44.0,64.0 L 53.0,64.0 L 61.0,68.0 L 67.0,76.0 L 68.0,79.0 L 68.0,88.0 L 65.0,95.0 L 61.0,100.0 L 53.0,104.0 L 43.0,104.0 L 35.0,100.0 L 29.0,92.0 L 28.0,89.0 L 28.0,80.0 L 31.0,73.0 L 35.0,68.0 L 40.0,65.0 L 44.0,64.0" fill="#FEA829"/>
</svg>
