<?xml version="1.0" ?>
<svg baseProfile="full" height="600px" version="1.1" viewBox="-20.1 -20.1 240.2 240.2" width="600px" xmlns="http://www.w3.org/2000/svg" xmlns:ev="http://www.w3.org/2001/xml-events" xmlns:xlink="http://www.w3.org/1999/xlink">
	<defs/>
	<path d="M 0.0,0.0 L 200.0,0.0 L 200.0,200.0 L 0.0,200.0 L 0.0,0.0" fill="#FDFDFD"/>
	<path d="M 88.0,16.0 L 95.0,16.0 L 101.0,19.0 L 104.0,24.0 L 104.0,28.0 L 114.0,26.0 L 127.0,21.0 L 143.0,17.0 L 150.0,16.0 L 179.0,16.0 L 187.0,20.0 L 191.0,25.0 L 192.0,27.0 L 192.0,37.0 L 188.0,43.0 L 182.0,47.0 L 178.0,48.0 L 153.0,48.0 L 140.0,46.0 L 124.0,42.0 L 112.0,37.0 L 104.0,36.0 L 104.0,42.0 L 102.0,44.0 L 96.0,44.0 L 96.0,52.0 L 110.0,52.0 L 112.0,54.0 L 113.0,92.0 L 122.0,97.0 L 132.0,106.0 L 138.0,115.0 L 143.0,127.0 L 144.0,131.0 L 144.0,146.0 L 142.0,157.0 L 135.0,170.0 L 126.0,180.0 L 122.0,183.0 L 120.0,183.0 L 120.0,190.0 L 118.0,192.0 L 66.0,192.0 L 64.0,190.0 L 64.0,183.0 L 59.0,181.0 L 51.0,173.0 L 45.0,163.0 L 42.0,157.0 L 40.0,149.0 L 40.0,131.0 L 44.0,119.0 L 49.0,110.0 L 58.0,100.0 L 69.0,93.0 L 71.0,92.0 L 72.0,54.0 L 74.0,52.0 L 88.0,52.0 L 88.0,44.0 L 82.0,44.0 L 80.0,42.0 L 80.0,24.0 L 83.0,19.0 L 88.0,16.0" fill="#050505"/>
	<path d="M 48.0,144.0 L 68.0,144.0 L 73.0,159.0 L 79.0,168.0 L 84.0,173.0 L 86.0,175.0 L 91.0,174.0 L 90.0,169.0 L 81.0,159.0 L 77.0,149.0 L 77.0,144.0 L 136.0,144.0 L 135.0,152.0 L 128.0,166.0 L 122.0,173.0 L 114.0,179.0 L 112.0,184.0 L 72.0,184.0 L 69.0,178.0 L 59.0,170.0 L 52.0,159.0 L 48.0,148.0 L 48.0,144.0" fill="#FBFBFB"/>
	<path d="M 91.0,100.0 L 111.0,100.0 L 122.0,107.0 L 130.0,117.0 L 135.0,128.0 L 136.0,136.0 L 76.0,136.0 L 77.0,130.0 L 87.0,114.0 L 90.0,107.0 L 91.0,100.0" fill="#FBFBFB"/>
	<path d="M 80.0,60.0 L 104.0,60.0 L 104.0,92.0 L 80.0,92.0 L 80.0,60.0" fill="#FCFCFC"/>
	<path d="M 151.0,24.0 L 178.0,24.0 L 183.0,27.0 L 184.0,28.0 L 184.0,35.0 L 179.0,40.0 L 154.0,40.0 L 136.0,37.0 L 123.0,33.0 L 123.0,31.0 L 137.0,27.0 L 151.0,24.0" fill="#F8F8F8"/>
	<path d="M 73.0,100.0 L 84.0,100.0 L 83.0,105.0 L 79.0,113.0 L 71.0,126.0 L 69.0,136.0 L 48.0,136.0 L 49.0,128.0 L 56.0,114.0 L 62.0,107.0 L 73.0,100.0" fill="#F8F8F8"/>
	<path d="M 34.0,40.0 L 46.0,40.0 L 48.0,42.0 L 47.0,47.0 L 46.0,48.0 L 34.0,48.0 L 32.0,46.0 L 33.0,41.0 L 34.0,40.0" fill="#090909"/>
	<path d="M 58.0,28.0 L 70.0,28.0 L 72.0,30.0 L 71.0,35.0 L 70.0,36.0 L 58.0,36.0 L 56.0,34.0 L 57.0,29.0 L 58.0,28.0" fill="#050505"/>
	<path d="M 34.0,16.0 L 46.0,16.0 L 48.0,18.0 L 47.0,23.0 L 46.0,24.0 L 34.0,24.0 L 32.0,22.0 L 33.0,17.0 L 34.0,16.0" fill="#040404"/>
	<path d="M 90.0,24.0 L 95.0,25.0 L 96.0,26.0 L 96.0,36.0 L 88.0,36.0 L 88.0,26.0 L 90.0,24.0" fill="#F6F6F6"/>
</svg>
