<?xml version="1.0" ?>
<svg baseProfile="full" height="600px" version="1.1" viewBox="-12.06 -12.06 144.12 144.12" width="600px" xmlns="http://www.w3.org/2000/svg" xmlns:ev="http://www.w3.org/2001/xml-events" xmlns:xlink="http://www.w3.org/1999/xlink">
	<defs/>
	<path d="M 0.0,0.0 L 120.0,0.0 L 120.0,120.0 L 0.0,120.0 L 0.0,0.0" fill="#FDFDFD"/>
	<path d="M 48.0,64.0 L 81.0,64.0 L 94.0,66.0 L 106.0,72.0 L 112.0,81.0 L 112.0,94.0 L 108.0,98.0 L 100.0,97.0 L 82.0,93.0 L 78.0,84.0 L 77.0,80.0 L 75.0,79.0 L 51.0,79.0 L 43.0,80.0 L 40.0,93.0 L 35.0,96.0 L 24.0,100.0 L 17.0,102.0 L 11.0,101.0 L 8.0,95.0 L 8.0,86.0 L 12.0,78.0 L 19.0,72.0 L 31.0,67.0 L 48.0,64.0" fill="#040404"/>
</svg>
