<?xml version="1.0" ?>
<svg baseProfile="full" height="600px" version="1.1" viewBox="-19.296000000000003 -19.296000000000003 230.592 230.592" width="600px" xmlns="http://www.w3.org/2000/svg" xmlns:ev="http://www.w3.org/2001/xml-events" xmlns:xlink="http://www.w3.org/1999/xlink">
	<defs/>
	<path d="M 0.0,0.0 L 192.0,0.0 L 192.0,192.0 L 0.0,192.0 L 0.0,0.0" fill="#FCFEFE"/>
	<path d="M 30.0,29.0 L 66.0,29.0 L 69.0,33.0 L 70.0,43.0 L 70.0,69.0 L 55.0,84.0 L 56.0,90.0 L 64.0,101.0 L 81.0,118.0 L 95.0,129.0 L 105.0,135.0 L 109.0,134.0 L 124.0,118.0 L 139.0,117.0 L 159.0,117.0 L 164.0,121.0 L 165.0,124.0 L 165.0,157.0 L 161.0,161.0 L 130.0,161.0 L 114.0,156.0 L 102.0,151.0 L 84.0,140.0 L 68.0,127.0 L 52.0,111.0 L 41.0,96.0 L 33.0,82.0 L 27.0,65.0 L 25.0,50.0 L 25.0,34.0 L 30.0,29.0" fill="#039789"/>
</svg>
