<?xml version="1.0" ?>
<svg baseProfile="full" height="600px" version="1.1" viewBox="-12.06 -12.06 144.12 144.12" width="600px" xmlns="http://www.w3.org/2000/svg" xmlns:ev="http://www.w3.org/2001/xml-events" xmlns:xlink="http://www.w3.org/1999/xlink">
	<defs/>
	<path d="M 0.0,0.0 L 120.0,0.0 L 120.0,120.0 L 0.0,120.0 L 0.0,0.0" fill="#FCFCFC"/>
	<path d="M 39.0,63.0 L 59.0,63.0 L 85.0,67.0 L 100.0,73.0 L 108.0,80.0 L 111.0,85.0 L 111.0,97.0 L 108.0,103.0 L 107.0,104.0 L 100.0,103.0 L 81.0,96.0 L 78.0,87.0 L 76.0,81.0 L 65.0,79.0 L 44.0,79.0 L 40.0,88.0 L 37.0,92.0 L 17.0,96.0 L 11.0,96.0 L 8.0,92.0 L 8.0,79.0 L 12.0,73.0 L 18.0,68.0 L 29.0,64.0 L 39.0,63.0" fill="#060606"/>
	<path d="M 58.0,24.0 L 63.0,25.0 L 64.0,26.0 L 64.0,34.0 L 62.0,36.0 L 57.0,35.0 L 56.0,34.0 L 56.0,26.0 L 58.0,24.0" fill="#060606"/>
	<path d="M 86.0,36.0 L 91.0,36.0 L 92.0,37.0 L 92.0,42.0 L 88.0,46.0 L 83.0,46.0 L 82.0,45.0 L 82.0,40.0 L 86.0,36.0" fill="#030303"/>
	<path d="M 29.0,36.0 L 34.0,36.0 L 38.0,40.0 L 38.0,45.0 L 37.0,46.0 L 32.0,46.0 L 28.0,42.0 L 28.0,37.0 L 29.0,36.0" fill="#040404"/>
</svg>
