<?xml version="1.0" ?>
<svg baseProfile="full" height="600px" version="1.1" viewBox="-12.06 -12.06 144.12 144.12" width="600px" xmlns="http://www.w3.org/2000/svg" xmlns:ev="http://www.w3.org/2001/xml-events" xmlns:xlink="http://www.w3.org/1999/xlink">
	<defs/>
	<path d="M 0.0,0.0 L 120.0,0.0 L 120.0,120.0 L 0.0,120.0 L 0.0,0.0" fill="#FCFCFC"/>
	<path d="M 62.0,63.0 L 83.0,63.0 L 95.0,65.0 L 105.0,70.0 L 111.0,77.0 L 112.0,79.0 L 112.0,92.0 L 109.0,96.0 L 97.0,95.0 L 83.0,92.0 L 80.0,87.0 L 76.0,79.0 L 56.0,79.0 L 44.0,81.0 L 42.0,87.0 L 40.0,95.0 L 28.0,100.0 L 17.0,104.0 L 12.0,103.0 L 9.0,97.0 L 9.0,85.0 L 13.0,79.0 L 20.0,73.0 L 32.0,68.0 L 46.0,65.0 L 62.0,63.0" fill="#050505"/>
	<path d="M 95.0,27.0 L 100.0,28.0 L 101.0,33.0 L 89.0,45.0 L 84.0,44.0 L 83.0,39.0 L 95.0,27.0" fill="#0C0C0C"/>
	<path d="M 21.0,27.0 L 26.0,28.0 L 37.0,39.0 L 36.0,44.0 L 31.0,45.0 L 19.0,33.0 L 20.0,28.0 L 21.0,27.0" fill="#0C0C0C"/>
	<path d="M 58.0,12.0 L 63.0,13.0 L 64.0,14.0 L 64.0,31.0 L 63.0,33.0 L 57.0,33.0 L 56.0,31.0 L 56.0,14.0 L 58.0,12.0" fill="#040404"/>
</svg>
