<?xml version="1.0" ?>
<svg baseProfile="full" height="600px" version="1.1" viewBox="-19.296000000000003 -19.296000000000003 230.592 230.592" width="600px" xmlns="http://www.w3.org/2000/svg" xmlns:ev="http://www.w3.org/2001/xml-events" xmlns:xlink="http://www.w3.org/1999/xlink">
	<defs/>
	<path d="M 0.0,0.0 L 192.0,0.0 L 192.0,192.0 L 0.0,192.0 L 0.0,0.0" fill="#FCFEFE"/>
	<path d="M 88.0,88.0 L 117.0,88.0 L 132.0,90.0 L 147.0,94.0 L 164.0,101.0 L 178.0,110.0 L 188.0,119.0 L 189.0,121.0 L 189.0,128.0 L 180.0,138.0 L 168.0,151.0 L 165.0,153.0 L 159.0,153.0 L 148.0,144.0 L 133.0,130.0 L 133.0,107.0 L 116.0,105.0 L 87.0,105.0 L 71.0,108.0 L 62.0,110.0 L 61.0,135.0 L 48.0,148.0 L 41.0,156.0 L 37.0,159.0 L 30.0,158.0 L 18.0,147.0 L 6.0,136.0 L 6.0,128.0 L 12.0,120.0 L 23.0,111.0 L 37.0,102.0 L 56.0,94.0 L 72.0,90.0 L 88.0,88.0" fill="#039789"/>
	<path d="M 132.0,68.0 L 138.0,70.0 L 140.0,72.0 L 139.0,74.0 L 132.0,72.0 L 131.0,70.0 L 132.0,68.0" fill="#3AA1F4"/>
	<path d="M 58.0,68.0 L 60.0,68.0 L 61.0,71.0 L 55.0,74.0 L 53.0,74.0 L 52.0,71.0 L 58.0,68.0" fill="#36A0F4"/>
	<path d="M 92.0,61.0 L 100.0,61.0 L 100.0,64.0 L 92.0,64.0 L 92.0,61.0" fill="#2196F3"/>
</svg>
