<?xml version="1.0" ?>
<svg baseProfile="full" height="600px" version="1.1" viewBox="-9.648000000000001 -9.648000000000001 115.296 115.296" width="600px" xmlns="http://www.w3.org/2000/svg" xmlns:ev="http://www.w3.org/2001/xml-events" xmlns:xlink="http://www.w3.org/1999/xlink">
	<defs/>
	<path d="M 0.0,0.0 L 96.0,0.0 L 96.0,96.0 L 0.0,96.0 L 0.0,0.0" fill="#FCFCFC"/>
	<path d="M 25.0,4.0 L 71.0,4.0 L 76.0,9.0 L 76.0,21.0 L 69.0,28.0 L 68.0,28.0 L 68.0,20.0 L 28.0,20.0 L 28.0,76.0 L 68.0,76.0 L 68.0,68.0 L 75.0,74.0 L 76.0,75.0 L 76.0,86.0 L 73.0,91.0 L 70.0,92.0 L 25.0,92.0 L 20.0,87.0 L 20.0,9.0 L 25.0,4.0" fill="#020202"/>
	<path d="M 81.0,26.0 L 85.0,27.0 L 90.0,35.0 L 92.0,41.0 L 92.0,52.0 L 89.0,63.0 L 84.0,70.0 L 80.0,69.0 L 77.0,66.0 L 79.0,62.0 L 83.0,53.0 L 83.0,42.0 L 79.0,34.0 L 77.0,30.0 L 81.0,26.0" fill="#0A0A0A"/>
	<path d="M 69.0,38.0 L 72.0,39.0 L 74.0,42.0 L 74.0,53.0 L 71.0,58.0 L 67.0,56.0 L 65.0,52.0 L 66.0,45.0 L 66.0,41.0 L 69.0,38.0" fill="#060606"/>
</svg>
