<?xml version="1.0" ?>
<svg baseProfile="full" height="600px" version="1.1" viewBox="-19.296000000000003 -19.296000000000003 230.592 230.592" width="600px" xmlns="http://www.w3.org/2000/svg" xmlns:ev="http://www.w3.org/2001/xml-events" xmlns:xlink="http://www.w3.org/1999/xlink">
	<defs/>
	<path d="M 0.0,0.0 L 192.0,0.0 L 192.0,192.0 L 0.0,192.0 L 0.0,0.0" fill="#FDFEFE"/>
	<path d="M 80.0,88.0 L 109.0,88.0 L 130.0,91.0 L 154.0,99.0 L 167.0,106.0 L 179.0,115.0 L 187.0,123.0 L 188.0,130.0 L 185.0,135.0 L 165.0,155.0 L 163.0,156.0 L 157.0,156.0 L 149.0,149.0 L 132.0,132.0 L 132.0,108.0 L 116.0,106.0 L 110.0,105.0 L 83.0,105.0 L 64.0,108.0 L 60.0,108.0 L 60.0,132.0 L 37.0,155.0 L 35.0,156.0 L 29.0,156.0 L 21.0,149.0 L 5.0,133.0 L 4.0,131.0 L 4.0,125.0 L 11.0,117.0 L 19.0,110.0 L 32.0,102.0 L 48.0,95.0 L 66.0,90.0 L 80.0,88.0" fill="#039789"/>
</svg>
