<?xml version="1.0" ?>
<svg baseProfile="full" height="600px" version="1.1" viewBox="-19.296000000000003 -19.296000000000003 230.592 230.592" width="600px" xmlns="http://www.w3.org/2000/svg" xmlns:ev="http://www.w3.org/2001/xml-events" xmlns:xlink="http://www.w3.org/1999/xlink">
	<defs/>
	<path d="M 0.0,0.0 L 192.0,0.0 L 192.0,192.0 L 0.0,192.0 L 0.0,0.0" fill="#FEFEFE"/>
	<path d="M 60.0,16.0 L 132.0,16.0 L 138.0,19.0 L 143.0,25.0 L 144.0,28.0 L 144.0,72.0 L 139.0,70.0 L 137.0,74.0 L 142.0,81.0 L 143.0,84.0 L 143.0,99.0 L 139.0,108.0 L 137.0,112.0 L 141.0,114.0 L 145.0,110.0 L 145.0,164.0 L 140.0,172.0 L 132.0,176.0 L 59.0,176.0 L 53.0,172.0 L 49.0,164.0 L 48.0,109.0 L 48.0,27.0 L 52.0,21.0 L 57.0,17.0 L 60.0,16.0" fill="#FEF2DF"/>
	<path d="M 60.0,16.0 L 132.0,16.0 L 138.0,19.0 L 143.0,25.0 L 144.0,28.0 L 144.0,72.0 L 139.0,70.0 L 137.0,74.0 L 142.0,81.0 L 143.0,84.0 L 143.0,99.0 L 139.0,108.0 L 137.0,112.0 L 141.0,114.0 L 145.0,110.0 L 145.0,164.0 L 140.0,172.0 L 132.0,176.0 L 59.0,176.0 L 53.0,172.0 L 49.0,164.0 L 48.0,109.0 L 48.0,27.0 L 52.0,21.0 L 57.0,17.0 L 60.0,16.0 M 62.0,28.0 L 60.0,30.0 L 60.0,150.0 L 62.0,152.0 L 131.0,152.0 L 133.0,150.0 L 133.0,123.0 L 132.0,30.0 L 130.0,28.0 L 62.0,28.0" fill="#E38A3A"/>
	<path d="M 143.0,49.0 L 144.0,49.0 L 144.0,72.0 L 139.0,70.0 L 137.0,74.0 L 142.0,81.0 L 143.0,84.0 L 143.0,99.0 L 139.0,108.0 L 137.0,112.0 L 141.0,114.0 L 145.0,110.0 L 145.0,164.0 L 144.0,164.0 L 143.0,134.0 L 132.0,123.0 L 132.0,60.0 L 143.0,49.0" fill="#F6A82C"/>
	<path d="M 139.0,69.0 L 143.0,71.0 L 148.0,79.0 L 150.0,85.0 L 150.0,98.0 L 145.0,110.0 L 141.0,115.0 L 137.0,113.0 L 137.0,109.0 L 141.0,102.0 L 142.0,99.0 L 142.0,84.0 L 138.0,76.0 L 136.0,72.0 L 139.0,69.0" fill="#2F9AEB"/>
	<path d="M 95.0,158.0 L 101.0,159.0 L 103.0,161.0 L 103.0,167.0 L 99.0,170.0 L 93.0,169.0 L 91.0,166.0 L 92.0,160.0 L 95.0,158.0" fill="#A8652A"/>
</svg>
