<?xml version="1.0" ?>
<svg baseProfile="full" height="600px" version="1.1" viewBox="-19.296000000000003 -19.296000000000003 230.592 230.592" width="600px" xmlns="http://www.w3.org/2000/svg" xmlns:ev="http://www.w3.org/2001/xml-events" xmlns:xlink="http://www.w3.org/1999/xlink">
	<defs/>
	<path d="M 0.0,0.0 L 192.0,0.0 L 192.0,192.0 L 0.0,192.0 L 0.0,0.0" fill="#FDFEFE"/>
	<path d="M 32.0,28.0 L 67.0,28.0 L 72.0,33.0 L 72.0,69.0 L 64.0,76.0 L 56.0,84.0 L 57.0,90.0 L 66.0,102.0 L 77.0,114.0 L 86.0,123.0 L 99.0,133.0 L 104.0,136.0 L 109.0,135.0 L 121.0,123.0 L 123.0,120.0 L 159.0,120.0 L 164.0,125.0 L 164.0,159.0 L 159.0,164.0 L 133.0,164.0 L 113.0,158.0 L 96.0,149.0 L 79.0,137.0 L 66.0,125.0 L 56.0,115.0 L 45.0,100.0 L 36.0,84.0 L 31.0,72.0 L 28.0,57.0 L 28.0,32.0 L 32.0,28.0" fill="#029789"/>
	<path d="M 113.0,28.0 L 159.0,28.0 L 164.0,33.0 L 164.0,66.0 L 161.0,71.0 L 158.0,72.0 L 120.0,73.0 L 109.0,84.0 L 108.0,84.0 L 108.0,33.0 L 113.0,28.0" fill="#2296F3"/>
</svg>
