<?xml version="1.0" ?>
<svg baseProfile="full" height="600px" version="1.1" viewBox="-9.648000000000001 -9.648000000000001 115.296 115.296" width="600px" xmlns="http://www.w3.org/2000/svg" xmlns:ev="http://www.w3.org/2001/xml-events" xmlns:xlink="http://www.w3.org/1999/xlink">
	<defs/>
	<path d="M 0.0,0.0 L 96.0,0.0 L 96.0,96.0 L 0.0,96.0 L 0.0,0.0" fill="#FBFBFB"/>
	<path d="M 27.0,3.0 L 44.0,3.0 L 72.0,5.0 L 76.0,7.0 L 78.0,10.0 L 78.0,22.0 L 70.0,29.0 L 69.0,29.0 L 69.0,21.0 L 54.0,21.0 L 29.0,19.0 L 29.0,35.0 L 27.0,75.0 L 40.0,75.0 L 59.0,76.0 L 67.0,77.0 L 67.0,70.0 L 74.0,76.0 L 74.0,88.0 L 69.0,93.0 L 52.0,93.0 L 23.0,91.0 L 19.0,87.0 L 18.0,85.0 L 19.0,57.0 L 21.0,19.0 L 22.0,8.0 L 27.0,3.0" fill="#060606"/>
	<path d="M 70.0,37.0 L 74.0,39.0 L 76.0,43.0 L 76.0,52.0 L 73.0,58.0 L 69.0,58.0 L 66.0,55.0 L 67.0,45.0 L 66.0,41.0 L 70.0,37.0" fill="#565656"/>
	<path d="M 57.0,42.0 L 60.0,44.0 L 60.0,52.0 L 59.0,54.0 L 56.0,53.0 L 57.0,51.0 L 57.0,45.0 L 57.0,42.0" fill="#151515"/>
</svg>
