<?xml version="1.0" ?>
<svg baseProfile="full" height="600px" version="1.1" viewBox="-16.08 -16.08 192.16 192.16" width="600px" xmlns="http://www.w3.org/2000/svg" xmlns:ev="http://www.w3.org/2001/xml-events" xmlns:xlink="http://www.w3.org/1999/xlink">
	<defs/>
	<path d="M 0.0,0.0 L 160.0,0.0 L 160.0,160.0 L 0.0,160.0 L 0.0,0.0" fill="#FDFDFD"/>
	<path d="M 44.0,8.0 L 115.0,8.0 L 120.0,11.0 L 123.0,14.0 L 124.0,18.0 L 124.0,144.0 L 119.0,150.0 L 116.0,152.0 L 44.0,152.0 L 37.0,146.0 L 36.0,143.0 L 36.0,16.0 L 41.0,10.0 L 44.0,8.0" fill="#F0F8FD"/>
	<path d="M 44.0,8.0 L 115.0,8.0 L 120.0,11.0 L 123.0,14.0 L 124.0,18.0 L 124.0,144.0 L 119.0,150.0 L 116.0,152.0 L 44.0,152.0 L 37.0,146.0 L 36.0,143.0 L 36.0,16.0 L 41.0,10.0 L 44.0,8.0 M 40.0,28.0 L 40.0,132.0 L 120.0,132.0 L 120.0,28.0 L 40.0,28.0" fill="#677A90"/>
	<path d="M 40.0,136.0 L 120.0,136.0 L 120.0,143.0 L 115.0,148.0 L 45.0,148.0 L 40.0,142.0 L 40.0,136.0" fill="#AEBFD2"/>
	<path d="M 45.0,12.0 L 114.0,12.0 L 119.0,16.0 L 120.0,18.0 L 120.0,24.0 L 40.0,24.0 L 40.0,17.0 L 45.0,12.0" fill="#ADBED1"/>
	<path d="M 138.0,51.0 L 142.0,53.0 L 149.0,64.0 L 152.0,73.0 L 152.0,86.0 L 149.0,96.0 L 144.0,104.0 L 139.0,109.0 L 136.0,107.0 L 136.0,105.0 L 141.0,100.0 L 146.0,90.0 L 146.0,70.0 L 141.0,60.0 L 136.0,55.0 L 138.0,51.0" fill="#6087BC"/>
	<path d="M 72.0,140.0 L 88.0,140.0 L 88.0,144.0 L 72.0,144.0 L 72.0,140.0" fill="#66798F"/>
</svg>
