<?xml version="1.0" ?>
<svg baseProfile="full" height="600px" version="1.1" viewBox="-12.06 -12.06 144.12 144.12" width="600px" xmlns="http://www.w3.org/2000/svg" xmlns:ev="http://www.w3.org/2001/xml-events" xmlns:xlink="http://www.w3.org/1999/xlink">
	<defs/>
	<path d="M 0.0,0.0 L 120.0,0.0 L 120.0,120.0 L 0.0,120.0 L 0.0,0.0" fill="#FBFBFB"/>
	<path d="M 0.0,0.0 L 40.0,0.0 L 40.0,2.0 L 31.0,4.0 L 29.0,7.0 L 24.0,61.0 L 21.0,98.0 L 21.0,108.0 L 26.0,113.0 L 71.0,117.0 L 87.0,118.0 L 86.0,120.0 L 0.0,120.0 L 0.0,0.0" fill="#FCFCFC"/>
	<path d="M 33.0,2.0 L 43.0,2.0 L 93.0,6.0 L 98.0,9.0 L 100.0,11.0 L 100.0,23.0 L 92.0,23.0 L 92.0,14.0 L 79.0,15.0 L 76.0,17.0 L 64.0,17.0 L 54.0,16.0 L 49.0,12.0 L 36.0,10.0 L 35.0,28.0 L 29.0,99.0 L 28.0,106.0 L 41.0,106.0 L 84.0,110.0 L 84.0,103.0 L 92.0,103.0 L 92.0,113.0 L 87.0,118.0 L 71.0,118.0 L 26.0,114.0 L 21.0,110.0 L 20.0,108.0 L 20.0,98.0 L 24.0,52.0 L 28.0,7.0 L 33.0,2.0" fill="#0A0A0A"/>
	<path d="M 92.0,26.0 L 97.0,26.0 L 105.0,35.0 L 109.0,44.0 L 110.0,48.0 L 110.0,71.0 L 106.0,83.0 L 100.0,91.0 L 97.0,94.0 L 92.0,94.0 L 90.0,92.0 L 91.0,87.0 L 96.0,82.0 L 101.0,70.0 L 101.0,49.0 L 97.0,39.0 L 90.0,31.0 L 91.0,27.0 L 92.0,26.0" fill="#828282"/>
	<path d="M 81.0,37.0 L 86.0,38.0 L 92.0,45.0 L 95.0,52.0 L 95.0,67.0 L 91.0,77.0 L 85.0,83.0 L 80.0,82.0 L 79.0,77.0 L 84.0,71.0 L 86.0,66.0 L 86.0,53.0 L 81.0,45.0 L 79.0,43.0 L 80.0,38.0 L 81.0,37.0" fill="#060606"/>
	<path d="M 57.0,8.0 L 67.0,8.0 L 68.0,12.0 L 57.0,12.0 L 57.0,8.0" fill="#ECECEC"/>
</svg>
