<?xml version="1.0" ?>
<svg baseProfile="full" height="600px" version="1.1" viewBox="-20.1 -20.1 240.2 240.2" width="600px" xmlns="http://www.w3.org/2000/svg" xmlns:ev="http://www.w3.org/2001/xml-events" xmlns:xlink="http://www.w3.org/1999/xlink">
	<defs/>
	<path d="M 0.0,0.0 L 200.0,0.0 L 200.0,200.0 L 0.0,200.0 L 0.0,0.0" fill="#FDFDFD"/>
	<path d="M 61.0,118.0 L 94.0,118.0 L 118.0,121.0 L 140.0,125.0 L 158.0,131.0 L 174.0,139.0 L 182.0,146.0 L 182.0,158.0 L 179.0,175.0 L 175.0,177.0 L 148.0,169.0 L 140.0,166.0 L 137.0,153.0 L 135.0,142.0 L 134.0,139.0 L 124.0,137.0 L 93.0,133.0 L 68.0,133.0 L 63.0,136.0 L 56.0,155.0 L 53.0,159.0 L 20.0,163.0 L 15.0,162.0 L 14.0,160.0 L 14.0,139.0 L 17.0,131.0 L 25.0,126.0 L 38.0,122.0 L 45.0,120.0 L 61.0,118.0" fill="#FAFAFA"/>
	<path d="M 60.0,110.0 L 91.0,110.0 L 126.0,114.0 L 149.0,119.0 L 169.0,127.0 L 181.0,134.0 L 189.0,142.0 L 190.0,144.0 L 190.0,162.0 L 187.0,176.0 L 184.0,181.0 L 179.0,185.0 L 170.0,184.0 L 151.0,178.0 L 137.0,174.0 L 132.0,168.0 L 129.0,154.0 L 129.0,146.0 L 101.0,142.0 L 69.0,142.0 L 63.0,160.0 L 59.0,165.0 L 55.0,167.0 L 21.0,171.0 L 14.0,171.0 L 8.0,166.0 L 6.0,162.0 L 6.0,138.0 L 9.0,128.0 L 16.0,122.0 L 26.0,117.0 L 39.0,113.0 L 60.0,110.0 M 61.0,118.0 L 45.0,120.0 L 30.0,124.0 L 18.0,130.0 L 15.0,135.0 L 14.0,139.0 L 14.0,160.0 L 16.0,163.0 L 36.0,161.0 L 53.0,159.0 L 57.0,153.0 L 63.0,136.0 L 68.0,133.0 L 93.0,133.0 L 124.0,137.0 L 134.0,139.0 L 137.0,153.0 L 140.0,166.0 L 148.0,169.0 L 168.0,175.0 L 177.0,177.0 L 180.0,172.0 L 182.0,158.0 L 182.0,146.0 L 174.0,139.0 L 158.0,131.0 L 140.0,125.0 L 112.0,120.0 L 94.0,118.0 L 61.0,118.0" fill="#0A0A0A"/>
	<path d="M 98.0,50.0 L 103.0,51.0 L 104.0,52.0 L 104.0,67.0 L 102.0,69.0 L 97.0,68.0 L 96.0,67.0 L 96.0,52.0 L 98.0,50.0" fill="#0C0C0C"/>
	<path d="M 45.0,62.0 L 50.0,63.0 L 55.0,73.0 L 54.0,79.0 L 48.0,79.0 L 43.0,69.0 L 43.0,64.0 L 45.0,62.0" fill="#0B0B0B"/>
	<path d="M 152.0,62.0 L 156.0,63.0 L 157.0,64.0 L 156.0,71.0 L 152.0,79.0 L 146.0,79.0 L 145.0,73.0 L 150.0,63.0 L 152.0,62.0" fill="#090909"/>
</svg>
