<?xml version="1.0" ?>
<svg baseProfile="full" height="600px" version="1.1" viewBox="-19.296000000000003 -19.296000000000003 230.592 230.592" width="600px" xmlns="http://www.w3.org/2000/svg" xmlns:ev="http://www.w3.org/2001/xml-events" xmlns:xlink="http://www.w3.org/1999/xlink">
	<defs/>
	<path d="M 0.0,0.0 L 192.0,0.0 L 192.0,192.0 L 0.0,192.0 L 0.0,0.0" fill="#FCFEFE"/>
	<path d="M 37.0,26.0 L 49.0,26.0 L 70.0,27.0 L 75.0,30.0 L 76.0,32.0 L 76.0,54.0 L 75.0,68.0 L 62.0,80.0 L 58.0,83.0 L 59.0,90.0 L 67.0,102.0 L 78.0,115.0 L 87.0,125.0 L 98.0,134.0 L 104.0,138.0 L 108.0,137.0 L 123.0,123.0 L 140.0,123.0 L 158.0,124.0 L 163.0,128.0 L 163.0,147.0 L 162.0,163.0 L 160.0,167.0 L 158.0,168.0 L 137.0,168.0 L 118.0,163.0 L 102.0,155.0 L 90.0,147.0 L 79.0,138.0 L 71.0,131.0 L 64.0,123.0 L 54.0,111.0 L 44.0,95.0 L 37.0,80.0 L 32.0,63.0 L 32.0,31.0 L 37.0,26.0" fill="#039789"/>
	<path d="M 106.0,46.0 L 111.0,47.0 L 122.0,58.0 L 121.0,63.0 L 109.0,75.0 L 108.0,84.0 L 101.0,78.0 L 91.0,68.0 L 90.0,62.0 L 106.0,46.0" fill="#2598F3"/>
</svg>
