<?xml version="1.0" ?>
<svg baseProfile="full" height="600px" version="1.1" viewBox="-12.06 -12.06 144.12 144.12" width="600px" xmlns="http://www.w3.org/2000/svg" xmlns:ev="http://www.w3.org/2001/xml-events" xmlns:xlink="http://www.w3.org/1999/xlink">
	<defs/>
	<path d="M 0.0,0.0 L 120.0,0.0 L 120.0,120.0 L 0.0,120.0 L 0.0,0.0" fill="#FDFDFD"/>
	<path d="M 50.0,64.0 L 77.0,64.0 L 92.0,67.0 L 102.0,71.0 L 109.0,77.0 L 112.0,83.0 L 112.0,94.0 L 109.0,99.0 L 108.0,100.0 L 101.0,99.0 L 84.0,95.0 L 80.0,91.0 L 77.0,81.0 L 74.0,79.0 L 47.0,79.0 L 43.0,81.0 L 40.0,91.0 L 36.0,95.0 L 16.0,100.0 L 11.0,99.0 L 8.0,94.0 L 8.0,83.0 L 13.0,75.0 L 18.0,71.0 L 27.0,67.0 L 37.0,65.0 L 50.0,64.0" fill="#040404"/>
</svg>
