<?xml version="1.0" ?>
<svg baseProfile="full" height="600px" version="1.1" viewBox="-12.06 -12.06 144.12 144.12" width="600px" xmlns="http://www.w3.org/2000/svg" xmlns:ev="http://www.w3.org/2001/xml-events" xmlns:xlink="http://www.w3.org/1999/xlink">
	<defs/>
	<path d="M 0.0,0.0 L 120.0,0.0 L 120.0,120.0 L 0.0,120.0 L 0.0,0.0" fill="#FBFBFB"/>
	<path d="M 0.0,0.0 L 86.0,0.0 L 86.0,2.0 L 26.0,7.0 L 21.0,11.0 L 22.0,30.0 L 25.0,65.0 L 29.0,113.0 L 33.0,117.0 L 39.0,118.0 L 39.0,120.0 L 0.0,120.0 L 0.0,0.0" fill="#FBFBFB"/>
	<path d="M 74.0,2.0 L 87.0,2.0 L 92.0,7.0 L 95.0,38.0 L 95.0,47.0 L 87.0,48.0 L 84.0,19.0 L 84.0,10.0 L 71.0,12.0 L 68.0,15.0 L 55.0,17.0 L 44.0,17.0 L 41.0,15.0 L 28.0,14.0 L 30.0,29.0 L 34.0,75.0 L 36.0,101.0 L 36.0,110.0 L 76.0,106.0 L 92.0,106.0 L 89.0,76.0 L 89.0,67.0 L 97.0,67.0 L 100.0,95.0 L 100.0,108.0 L 96.0,113.0 L 94.0,114.0 L 68.0,116.0 L 43.0,118.0 L 33.0,118.0 L 28.0,113.0 L 23.0,56.0 L 20.0,19.0 L 20.0,11.0 L 26.0,6.0 L 74.0,2.0" fill="#0B0B0B"/>
	<path d="M 73.0,45.0 L 79.0,46.0 L 84.0,52.0 L 85.0,55.0 L 85.0,65.0 L 80.0,73.0 L 77.0,75.0 L 72.0,74.0 L 71.0,69.0 L 75.0,67.0 L 76.0,63.0 L 76.0,56.0 L 75.0,53.0 L 71.0,51.0 L 72.0,46.0 L 73.0,45.0" fill="#080808"/>
	<path d="M 53.0,8.0 L 59.0,8.0 L 59.0,12.0 L 48.0,12.0 L 48.0,9.0 L 53.0,8.0" fill="#F0F0F0"/>
</svg>
