<?xml version="1.0" ?>
<svg baseProfile="full" height="600px" version="1.1" viewBox="-12.864 -12.864 153.728 153.728" width="600px" xmlns="http://www.w3.org/2000/svg" xmlns:ev="http://www.w3.org/2001/xml-events" xmlns:xlink="http://www.w3.org/1999/xlink">
	<defs/>
	<path d="M 0.0,0.0 L 128.0,0.0 L 128.0,128.0 L 0.0,128.0 L 0.0,0.0" fill="#FCFCFC"/>
	<path d="M 54.0,23.0 L 70.0,23.0 L 74.0,94.0 L 74.0,103.0 L 40.0,105.0 L 26.0,105.0 L 22.0,36.0 L 22.0,25.0 L 54.0,23.0" fill="#FBFBFB"/>
	<path d="M 57.0,15.0 L 73.0,15.0 L 78.0,20.0 L 80.0,49.0 L 82.0,87.0 L 82.0,106.0 L 78.0,110.0 L 76.0,111.0 L 37.0,113.0 L 23.0,113.0 L 19.0,110.0 L 17.0,98.0 L 14.0,41.0 L 14.0,22.0 L 19.0,17.0 L 57.0,15.0 M 54.0,23.0 L 22.0,25.0 L 22.0,36.0 L 26.0,105.0 L 40.0,105.0 L 74.0,103.0 L 73.0,75.0 L 70.0,23.0 L 54.0,23.0" fill="#0A0A0A"/>
	<path d="M 104.0,39.0 L 108.0,41.0 L 114.0,51.0 L 116.0,57.0 L 116.0,68.0 L 114.0,77.0 L 109.0,86.0 L 106.0,89.0 L 102.0,87.0 L 97.0,82.0 L 94.0,78.0 L 96.0,73.0 L 98.0,69.0 L 98.0,59.0 L 94.0,52.0 L 95.0,48.0 L 98.0,45.0 L 100.0,45.0 L 100.0,43.0 L 102.0,43.0 L 104.0,39.0" fill="#A7A7A7"/>
	<path d="M 98.0,45.0 L 100.0,45.0 L 105.0,53.0 L 107.0,59.0 L 107.0,69.0 L 103.0,79.0 L 100.0,83.0 L 96.0,81.0 L 94.0,76.0 L 98.0,69.0 L 98.0,59.0 L 94.0,52.0 L 95.0,48.0 L 98.0,45.0" fill="#090909"/>
	<path d="M 42.0,92.0 L 58.0,92.0 L 58.0,100.0 L 42.0,100.0 L 42.0,92.0" fill="#0A0A0A"/>
	<path d="M 106.0,70.0 L 107.0,74.0 L 102.0,84.0 L 100.0,84.0 L 101.0,80.0 L 106.0,70.0" fill="#C1C1C1"/>
</svg>
