<?xml version="1.0" ?>
<svg baseProfile="full" height="600px" version="1.1" viewBox="-12.06 -12.06 144.12 144.12" width="600px" xmlns="http://www.w3.org/2000/svg" xmlns:ev="http://www.w3.org/2001/xml-events" xmlns:xlink="http://www.w3.org/1999/xlink">
	<defs/>
	<path d="M 0.0,0.0 L 120.0,0.0 L 120.0,120.0 L 0.0,120.0 L 0.0,0.0" fill="#FCFCFC"/>
	<path d="M 29.0,4.0 L 91.0,4.0 L 96.0,9.0 L 96.0,20.0 L 88.0,20.0 L 88.0,12.0 L 75.0,12.0 L 75.0,14.0 L 71.0,16.0 L 48.0,16.0 L 44.0,13.0 L 32.0,12.0 L 32.0,108.0 L 88.0,108.0 L 88.0,100.0 L 96.0,100.0 L 96.0,110.0 L 93.0,115.0 L 91.0,116.0 L 29.0,116.0 L 24.0,111.0 L 24.0,9.0 L 29.0,4.0" fill="#030303"/>
	<path d="M 92.0,26.0 L 97.0,26.0 L 105.0,35.0 L 109.0,44.0 L 110.0,48.0 L 110.0,71.0 L 106.0,83.0 L 100.0,91.0 L 97.0,94.0 L 92.0,94.0 L 90.0,92.0 L 91.0,88.0 L 97.0,81.0 L 101.0,70.0 L 101.0,49.0 L 97.0,39.0 L 90.0,31.0 L 91.0,27.0 L 92.0,26.0" fill="#080808"/>
	<path d="M 73.0,45.0 L 79.0,46.0 L 84.0,52.0 L 85.0,55.0 L 85.0,65.0 L 80.0,73.0 L 77.0,75.0 L 72.0,74.0 L 71.0,69.0 L 75.0,67.0 L 76.0,63.0 L 76.0,56.0 L 75.0,53.0 L 71.0,51.0 L 72.0,46.0 L 73.0,45.0" fill="#080808"/>
	<path d="M 53.0,8.0 L 63.0,8.0 L 63.0,12.0 L 53.0,12.0 L 53.0,8.0" fill="#F3F3F3"/>
</svg>
