<?xml version="1.0" ?>
<svg baseProfile="full" height="600px" version="1.1" viewBox="-12.864 -12.864 153.728 153.728" width="600px" xmlns="http://www.w3.org/2000/svg" xmlns:ev="http://www.w3.org/2001/xml-events" xmlns:xlink="http://www.w3.org/1999/xlink">
	<defs/>
	<path d="M 0.0,0.0 L 128.0,0.0 L 128.0,128.0 L 0.0,128.0 L 0.0,0.0" fill="#FCFCFC"/>
	<path d="M 26.0,23.0 L 54.0,24.0 L 74.0,25.0 L 74.0,37.0 L 71.0,94.0 L 70.0,105.0 L 42.0,104.0 L 22.0,103.0 L 22.0,89.0 L 25.0,32.0 L 26.0,23.0" fill="#FAFAFA"/>
	<path d="M 23.0,15.0 L 44.0,15.0 L 76.0,17.0 L 80.0,19.0 L 82.0,22.0 L 82.0,38.0 L 78.0,108.0 L 73.0,113.0 L 52.0,113.0 L 19.0,111.0 L 15.0,107.0 L 14.0,105.0 L 14.0,92.0 L 18.0,20.0 L 23.0,15.0 M 26.0,23.0 L 24.0,51.0 L 22.0,89.0 L 22.0,103.0 L 61.0,105.0 L 70.0,105.0 L 72.0,75.0 L 74.0,37.0 L 74.0,25.0 L 35.0,23.0 L 26.0,23.0" fill="#080808"/>
	<path d="M 104.0,39.0 L 106.0,39.0 L 114.0,53.0 L 115.0,58.0 L 115.0,70.0 L 111.0,81.0 L 107.0,87.0 L 104.0,89.0 L 100.0,84.0 L 102.0,79.0 L 106.0,70.0 L 106.0,58.0 L 100.0,46.0 L 101.0,42.0 L 104.0,39.0" fill="#080808"/>
	<path d="M 93.0,50.0 L 96.0,51.0 L 100.0,59.0 L 100.0,68.0 L 96.0,77.0 L 92.0,77.0 L 89.0,74.0 L 90.0,70.0 L 91.0,67.0 L 91.0,60.0 L 89.0,57.0 L 90.0,53.0 L 93.0,50.0" fill="#646464"/>
	<path d="M 38.0,92.0 L 54.0,92.0 L 54.0,100.0 L 38.0,100.0 L 38.0,92.0" fill="#0A0A0A"/>
</svg>
