<?xml version="1.0" ?>
<svg baseProfile="full" height="600px" version="1.1" viewBox="-19.296000000000003 -19.296000000000003 230.592 230.592" width="600px" xmlns="http://www.w3.org/2000/svg" xmlns:ev="http://www.w3.org/2001/xml-events" xmlns:xlink="http://www.w3.org/1999/xlink">
	<defs/>
	<path d="M 0.0,0.0 L 192.0,0.0 L 192.0,192.0 L 0.0,192.0 L 0.0,0.0" fill="#FEFEFE"/>
	<path d="M 60.0,15.0 L 88.0,15.0 L 132.0,17.0 L 140.0,21.0 L 144.0,26.0 L 145.0,28.0 L 145.0,61.0 L 141.0,162.0 L 138.0,170.0 L 133.0,175.0 L 128.0,177.0 L 103.0,177.0 L 56.0,175.0 L 50.0,171.0 L 45.0,165.0 L 44.0,162.0 L 44.0,147.0 L 45.0,121.0 L 46.0,108.0 L 49.0,27.0 L 53.0,20.0 L 58.0,16.0 L 60.0,15.0" fill="#FEF2DF"/>
	<path d="M 60.0,15.0 L 88.0,15.0 L 132.0,17.0 L 140.0,21.0 L 144.0,26.0 L 145.0,28.0 L 145.0,61.0 L 141.0,162.0 L 138.0,170.0 L 133.0,175.0 L 128.0,177.0 L 103.0,177.0 L 56.0,175.0 L 50.0,171.0 L 45.0,165.0 L 44.0,162.0 L 44.0,147.0 L 45.0,121.0 L 46.0,108.0 L 49.0,27.0 L 53.0,20.0 L 58.0,16.0 L 60.0,15.0 M 63.0,27.0 L 61.0,29.0 L 59.0,74.0 L 57.0,131.0 L 57.0,149.0 L 59.0,151.0 L 102.0,153.0 L 127.0,153.0 L 129.0,151.0 L 131.0,92.0 L 132.0,76.0 L 133.0,31.0 L 131.0,29.0 L 114.0,28.0 L 82.0,27.0 L 63.0,27.0" fill="#E38B3C"/>
	<path d="M 132.0,44.0 L 133.0,44.0 L 134.0,60.0 L 143.0,51.0 L 144.0,45.0 L 145.0,45.0 L 145.0,61.0 L 142.0,137.0 L 140.0,137.0 L 133.0,129.0 L 131.0,127.0 L 130.0,139.0 L 129.0,139.0 L 129.0,118.0 L 131.0,76.0 L 132.0,44.0" fill="#F8AA2E"/>
	<path d="M 151.0,54.0 L 155.0,56.0 L 162.0,67.0 L 166.0,76.0 L 168.0,85.0 L 168.0,98.0 L 165.0,110.0 L 158.0,124.0 L 153.0,130.0 L 149.0,128.0 L 145.0,124.0 L 147.0,120.0 L 153.0,110.0 L 155.0,106.0 L 156.0,100.0 L 156.0,82.0 L 152.0,72.0 L 146.0,63.0 L 146.0,59.0 L 151.0,54.0" fill="#2999F3"/>
	<path d="M 121.0,81.0 L 123.0,81.0 L 126.0,86.0 L 126.0,97.0 L 123.0,103.0 L 119.0,101.0 L 111.0,93.0 L 113.0,89.0 L 121.0,81.0" fill="#48A7F0"/>
	<path d="M 89.0,158.0 L 96.0,159.0 L 98.0,162.0 L 97.0,168.0 L 94.0,170.0 L 88.0,169.0 L 86.0,166.0 L 87.0,160.0 L 89.0,158.0" fill="#A8652A"/>
</svg>
