<?xml version="1.0" ?>
<svg baseProfile="full" height="600px" version="1.1" viewBox="-20.1 -20.1 240.2 240.2" width="600px" xmlns="http://www.w3.org/2000/svg" xmlns:ev="http://www.w3.org/2001/xml-events" xmlns:xlink="http://www.w3.org/1999/xlink">
	<defs/>
	<path d="M 0.0,0.0 L 200.0,0.0 L 200.0,200.0 L 0.0,200.0 L 0.0,0.0" fill="#050505"/>
	<path d="M 8.0,8.0 L 136.0,8.0 L 136.0,136.0 L 8.0,136.0 L 8.0,8.0" fill="#030303"/>
	<path d="M 8.0,8.0 L 136.0,8.0 L 136.0,136.0 L 8.0,136.0 L 8.0,8.0 M 18.0,16.0 L 16.0,18.0 L 16.0,114.0 L 18.0,116.0 L 126.0,116.0 L 128.0,114.0 L 128.0,18.0 L 126.0,16.0 L 18.0,16.0" fill="#FCFCFC"/>
	<path d="M 24.0,24.0 L 120.0,24.0 L 120.0,108.0 L 112.0,108.0 L 109.0,99.0 L 105.0,94.0 L 93.0,88.0 L 85.0,84.0 L 85.0,78.0 L 92.0,65.0 L 92.0,40.0 L 88.0,34.0 L 77.0,29.0 L 66.0,29.0 L 58.0,33.0 L 54.0,38.0 L 52.0,43.0 L 52.0,66.0 L 56.0,72.0 L 59.0,78.0 L 59.0,85.0 L 41.0,93.0 L 35.0,100.0 L 32.0,108.0 L 24.0,108.0 L 24.0,24.0" fill="#FCFCFC"/>
	<path d="M 0.0,142.0 L 2.0,143.0 L 15.0,144.0 L 17.0,150.0 L 31.0,153.0 L 30.0,169.0 L 50.0,173.0 L 75.0,179.0 L 111.0,187.0 L 140.0,194.0 L 162.0,199.0 L 162.0,200.0 L 0.0,200.0 L 0.0,142.0" fill="#FCFCFC"/>
	<path d="M 175.0,63.0 L 191.0,66.0 L 190.0,73.0 L 182.0,109.0 L 174.0,143.0 L 166.0,179.0 L 163.0,191.0 L 156.0,190.0 L 124.0,183.0 L 95.0,176.0 L 63.0,169.0 L 38.0,163.0 L 39.0,155.0 L 49.0,156.0 L 98.0,164.0 L 133.0,170.0 L 149.0,173.0 L 155.0,173.0 L 157.0,169.0 L 160.0,166.0 L 167.0,134.0 L 173.0,109.0 L 179.0,81.0 L 180.0,74.0 L 178.0,72.0 L 174.0,71.0 L 175.0,63.0" fill="#F7F7F7"/>
	<path d="M 144.0,35.0 L 156.0,36.0 L 171.0,39.0 L 165.0,78.0 L 157.0,125.0 L 150.0,165.0 L 134.0,163.0 L 50.0,149.0 L 27.0,145.0 L 27.0,144.0 L 142.0,143.0 L 145.0,141.0 L 156.0,76.0 L 160.0,53.0 L 160.0,46.0 L 144.0,43.0 L 144.0,35.0" fill="#F7F7F7"/>
	<path d="M 142.0,0.0 L 200.0,0.0 L 200.0,62.0 L 199.0,60.0 L 188.0,58.0 L 177.0,55.0 L 178.0,44.0 L 179.0,34.0 L 173.0,32.0 L 146.0,27.0 L 144.0,26.0 L 143.0,2.0 L 142.0,0.0" fill="#FCFCFC"/>
	<path d="M 199.0,67.0 L 200.0,67.0 L 200.0,200.0 L 168.0,200.0 L 174.0,176.0 L 181.0,144.0 L 188.0,115.0 L 195.0,83.0 L 199.0,67.0" fill="#FBFBFB"/>
	<path d="M 67.0,36.0 L 75.0,36.0 L 83.0,40.0 L 85.0,42.0 L 85.0,63.0 L 82.0,68.0 L 78.0,76.0 L 78.0,86.0 L 83.0,91.0 L 99.0,99.0 L 104.0,104.0 L 104.0,108.0 L 40.0,108.0 L 41.0,103.0 L 47.0,98.0 L 59.0,93.0 L 65.0,88.0 L 66.0,86.0 L 66.0,76.0 L 62.0,68.0 L 61.0,65.0 L 59.0,64.0 L 60.0,41.0 L 64.0,37.0 L 67.0,36.0" fill="#F9F9F9"/>
	<path d="M 144.0,51.0 L 152.0,52.0 L 151.0,65.0 L 145.0,100.0 L 144.0,100.0 L 144.0,51.0" fill="#F7F7F7"/>
</svg>
