<?xml version="1.0" ?>
<svg baseProfile="full" height="600px" version="1.1" viewBox="-20.1 -20.1 240.2 240.2" width="600px" xmlns="http://www.w3.org/2000/svg" xmlns:ev="http://www.w3.org/2001/xml-events" xmlns:xlink="http://www.w3.org/1999/xlink">
	<defs/>
	<path d="M 0.0,0.0 L 200.0,0.0 L 200.0,200.0 L 0.0,200.0 L 0.0,0.0" fill="#080808"/>
	<path d="M 0.0,0.0 L 200.0,0.0 L 200.0,200.0 L 0.0,200.0 L 0.0,0.0 M 11.0,2.0 L 8.0,5.0 L 4.0,92.0 L 3.0,119.0 L 3.0,145.0 L 11.0,148.0 L 16.0,150.0 L 21.0,150.0 L 20.0,152.0 L 20.0,160.0 L 22.0,162.0 L 43.0,166.0 L 57.0,168.0 L 82.0,172.0 L 143.0,182.0 L 151.0,183.0 L 161.0,183.0 L 164.0,170.0 L 168.0,145.0 L 177.0,87.0 L 183.0,51.0 L 183.0,43.0 L 181.0,41.0 L 168.0,40.0 L 169.0,33.0 L 169.0,24.0 L 167.0,22.0 L 160.0,21.0 L 152.0,21.0 L 152.0,9.0 L 150.0,8.0 L 113.0,6.0 L 40.0,3.0 L 23.0,2.0 L 11.0,2.0" fill="#FCFCFC"/>
	<path d="M 11.0,2.0 L 23.0,2.0 L 86.0,5.0 L 136.0,7.0 L 150.0,8.0 L 152.0,9.0 L 152.0,21.0 L 160.0,21.0 L 167.0,22.0 L 169.0,24.0 L 169.0,33.0 L 168.0,40.0 L 181.0,41.0 L 183.0,43.0 L 183.0,51.0 L 173.0,112.0 L 166.0,156.0 L 164.0,170.0 L 161.0,183.0 L 151.0,183.0 L 93.0,174.0 L 78.0,171.0 L 57.0,168.0 L 26.0,163.0 L 21.0,161.0 L 20.0,160.0 L 20.0,152.0 L 21.0,150.0 L 12.0,149.0 L 10.0,147.0 L 3.0,145.0 L 3.0,119.0 L 6.0,46.0 L 8.0,5.0 L 11.0,2.0 M 16.0,10.0 L 13.0,70.0 L 11.0,116.0 L 11.0,138.0 L 21.0,139.0 L 128.0,144.0 L 139.0,144.0 L 143.0,50.0 L 144.0,33.0 L 144.0,16.0 L 137.0,15.0 L 106.0,14.0 L 24.0,10.0 L 16.0,10.0" fill="#080808"/>
	<path d="M 16.0,10.0 L 45.0,11.0 L 106.0,14.0 L 137.0,15.0 L 144.0,16.0 L 144.0,33.0 L 140.0,117.0 L 139.0,144.0 L 105.0,143.0 L 21.0,139.0 L 11.0,138.0 L 11.0,116.0 L 14.0,49.0 L 16.0,10.0 M 25.0,19.0 L 24.0,20.0 L 23.0,27.0 L 20.0,92.0 L 20.0,117.0 L 22.0,119.0 L 64.0,121.0 L 104.0,123.0 L 130.0,123.0 L 132.0,121.0 L 136.0,32.0 L 136.0,26.0 L 133.0,23.0 L 40.0,19.0 L 25.0,19.0" fill="#F7F7F7"/>
	<path d="M 31.0,27.0 L 66.0,28.0 L 127.0,31.0 L 127.0,58.0 L 124.0,115.0 L 116.0,115.0 L 113.0,105.0 L 109.0,100.0 L 93.0,92.0 L 90.0,90.0 L 90.0,83.0 L 93.0,79.0 L 97.0,72.0 L 98.0,71.0 L 98.0,61.0 L 99.0,56.0 L 99.0,46.0 L 95.0,40.0 L 83.0,34.0 L 72.0,34.0 L 64.0,38.0 L 59.0,46.0 L 58.0,69.0 L 64.0,82.0 L 64.0,89.0 L 54.0,93.0 L 44.0,98.0 L 38.0,105.0 L 36.0,111.0 L 28.0,111.0 L 28.0,99.0 L 31.0,27.0" fill="#FAFAFA"/>
	<path d="M 73.0,41.0 L 82.0,41.0 L 91.0,46.0 L 92.0,48.0 L 92.0,55.0 L 91.0,65.0 L 91.0,69.0 L 88.0,71.0 L 85.0,78.0 L 83.0,81.0 L 83.0,91.0 L 88.0,97.0 L 105.0,106.0 L 108.0,110.0 L 108.0,114.0 L 88.0,114.0 L 44.0,112.0 L 45.0,107.0 L 51.0,102.0 L 64.0,97.0 L 71.0,91.0 L 71.0,80.0 L 68.0,74.0 L 66.0,69.0 L 65.0,64.0 L 66.0,63.0 L 66.0,48.0 L 69.0,43.0 L 73.0,41.0" fill="#F8F8F8"/>
	<path d="M 166.0,48.0 L 174.0,48.0 L 173.0,61.0 L 163.0,125.0 L 155.0,175.0 L 138.0,173.0 L 77.0,163.0 L 33.0,156.0 L 29.0,155.0 L 29.0,151.0 L 50.0,153.0 L 86.0,157.0 L 126.0,162.0 L 143.0,164.0 L 151.0,164.0 L 153.0,160.0 L 156.0,134.0 L 160.0,98.0 L 166.0,48.0" fill="#F2F2F2"/>
	<path d="M 152.0,29.0 L 160.0,29.0 L 160.0,40.0 L 155.0,80.0 L 150.0,125.0 L 148.0,139.0 L 147.0,139.0 L 147.0,124.0 L 149.0,74.0 L 152.0,29.0" fill="#F3F3F3"/>
	<path d="M 95.0,150.0 L 114.0,150.0 L 133.0,151.0 L 146.0,151.0 L 146.0,156.0 L 127.0,155.0 L 95.0,151.0 L 95.0,150.0" fill="#E8E8E8"/>
	<path d="M 148.0,97.0 L 149.0,97.0 L 149.0,111.0 L 151.0,111.0 L 149.0,135.0 L 147.0,139.0 L 147.0,124.0 L 148.0,97.0" fill="#C8C8C8"/>
	<path d="M 95.0,150.0 L 114.0,150.0 L 124.0,152.0 L 124.0,153.0 L 113.0,153.0 L 95.0,151.0 L 95.0,150.0" fill="#D3D3D3"/>
</svg>
