<?xml version="1.0" ?>
<svg baseProfile="full" height="600px" version="1.1" viewBox="-19.296000000000003 -19.296000000000003 230.592 230.592" width="600px" xmlns="http://www.w3.org/2000/svg" xmlns:ev="http://www.w3.org/2001/xml-events" xmlns:xlink="http://www.w3.org/1999/xlink">
	<defs/>
	<path d="M 0.0,0.0 L 192.0,0.0 L 192.0,192.0 L 0.0,192.0 L 0.0,0.0" fill="#FCFDFD"/>
	<path d="M 28.0,28.0 L 116.0,28.0 L 116.0,108.0 L 28.0,108.0 L 28.0,28.0" fill="#4DAF51"/>
	<path d="M 128.0,39.0 L 144.0,41.0 L 153.0,43.0 L 152.0,54.0 L 151.0,62.0 L 162.0,65.0 L 176.0,70.0 L 164.0,107.0 L 151.0,147.0 L 143.0,171.0 L 141.0,176.0 L 132.0,174.0 L 78.0,156.0 L 35.0,141.0 L 35.0,135.0 L 25.0,134.0 L 24.0,133.0 L 24.0,128.0 L 128.0,128.0 L 128.0,39.0" fill="#65B4F5"/>
	<path d="M 16.0,16.0 L 128.0,16.0 L 128.0,128.0 L 16.0,128.0 L 16.0,16.0 M 28.0,28.0 L 28.0,108.0 L 116.0,108.0 L 116.0,28.0 L 28.0,28.0" fill="#BADEF9"/>
	<path d="M 128.0,39.0 L 144.0,41.0 L 153.0,43.0 L 152.0,54.0 L 148.0,77.0 L 143.0,104.0 L 136.0,141.0 L 133.0,153.0 L 120.0,152.0 L 85.0,145.0 L 66.0,142.0 L 46.0,138.0 L 35.0,137.0 L 35.0,135.0 L 25.0,134.0 L 24.0,133.0 L 24.0,128.0 L 128.0,128.0 L 128.0,39.0" fill="#8EC9F8"/>
	<path d="M 69.0,44.0 L 77.0,45.0 L 80.0,49.0 L 81.0,53.0 L 88.0,52.0 L 93.0,55.0 L 94.0,57.0 L 94.0,63.0 L 91.0,67.0 L 89.0,67.0 L 89.0,69.0 L 93.0,71.0 L 94.0,73.0 L 94.0,79.0 L 89.0,84.0 L 83.0,84.0 L 81.0,83.0 L 78.0,90.0 L 75.0,92.0 L 69.0,92.0 L 65.0,89.0 L 64.0,82.0 L 61.0,84.0 L 55.0,84.0 L 51.0,81.0 L 50.0,73.0 L 53.0,69.0 L 55.0,69.0 L 55.0,67.0 L 51.0,65.0 L 50.0,57.0 L 55.0,52.0 L 63.0,53.0 L 66.0,46.0 L 69.0,44.0" fill="#F8FBF8"/>
	<path d="M 148.0,73.0 L 159.0,76.0 L 160.0,80.0 L 154.0,100.0 L 142.0,136.0 L 136.0,153.0 L 134.0,153.0 L 134.0,146.0 L 140.0,114.0 L 143.0,99.0 L 148.0,73.0" fill="#228AE5"/>
	<path d="M 128.0,51.0 L 139.0,53.0 L 138.0,64.0 L 135.0,83.0 L 132.0,98.0 L 129.0,115.0 L 128.0,115.0 L 128.0,51.0" fill="#44A6F4"/>
	<path d="M 69.0,60.0 L 75.0,60.0 L 80.0,65.0 L 79.0,73.0 L 74.0,76.0 L 67.0,75.0 L 64.0,71.0 L 64.0,65.0 L 69.0,60.0" fill="#FEC310"/>
	<path d="M 106.0,128.0 L 126.0,128.0 L 126.0,132.0 L 111.0,130.0 L 106.0,129.0 L 106.0,128.0" fill="#49A8F5"/>
</svg>
