<?xml version="1.0" ?>
<svg baseProfile="full" height="600px" version="1.1" viewBox="-20.1 -20.1 240.2 240.2" width="600px" xmlns="http://www.w3.org/2000/svg" xmlns:ev="http://www.w3.org/2001/xml-events" xmlns:xlink="http://www.w3.org/1999/xlink">
	<defs/>
	<path d="M 0.0,0.0 L 200.0,0.0 L 200.0,200.0 L 0.0,200.0 L 0.0,0.0" fill="#080808"/>
	<path d="M 0.0,0.0 L 200.0,0.0 L 200.0,200.0 L 0.0,200.0 L 0.0,0.0 M 8.0,2.0 L 7.0,3.0 L 5.0,39.0 L 3.0,95.0 L 2.0,143.0 L 5.0,146.0 L 12.0,147.0 L 12.0,154.0 L 19.0,156.0 L 87.0,163.0 L 130.0,167.0 L 141.0,168.0 L 154.0,168.0 L 155.0,166.0 L 159.0,129.0 L 163.0,89.0 L 168.0,38.0 L 168.0,27.0 L 166.0,25.0 L 159.0,25.0 L 159.0,15.0 L 157.0,13.0 L 151.0,13.0 L 150.0,8.0 L 148.0,6.0 L 89.0,4.0 L 43.0,2.0 L 8.0,2.0" fill="#FCFCFC"/>
	<path d="M 8.0,2.0 L 43.0,2.0 L 118.0,5.0 L 148.0,6.0 L 151.0,9.0 L 151.0,13.0 L 157.0,13.0 L 159.0,15.0 L 159.0,25.0 L 166.0,25.0 L 168.0,27.0 L 168.0,38.0 L 161.0,109.0 L 155.0,166.0 L 154.0,168.0 L 141.0,168.0 L 101.0,164.0 L 68.0,161.0 L 19.0,156.0 L 12.0,154.0 L 12.0,147.0 L 5.0,146.0 L 2.0,143.0 L 3.0,95.0 L 5.0,39.0 L 7.0,3.0 L 8.0,2.0 M 15.0,10.0 L 13.0,42.0 L 10.0,125.0 L 10.0,138.0 L 110.0,142.0 L 138.0,142.0 L 139.0,134.0 L 140.0,94.0 L 142.0,49.0 L 143.0,14.0 L 98.0,12.0 L 58.0,11.0 L 42.0,10.0 L 15.0,10.0" fill="#070707"/>
	<path d="M 15.0,10.0 L 42.0,10.0 L 58.0,11.0 L 123.0,13.0 L 143.0,14.0 L 141.0,76.0 L 140.0,94.0 L 139.0,134.0 L 138.0,142.0 L 110.0,142.0 L 10.0,138.0 L 10.0,125.0 L 13.0,42.0 L 15.0,10.0 M 24.0,18.0 L 22.0,20.0 L 20.0,68.0 L 19.0,116.0 L 21.0,118.0 L 30.0,119.0 L 96.0,121.0 L 112.0,122.0 L 129.0,122.0 L 131.0,120.0 L 132.0,110.0 L 134.0,44.0 L 134.0,24.0 L 132.0,22.0 L 41.0,18.0 L 24.0,18.0" fill="#F6F6F6"/>
	<path d="M 30.0,27.0 L 56.0,27.0 L 94.0,28.0 L 126.0,30.0 L 126.0,53.0 L 125.0,70.0 L 124.0,109.0 L 123.0,114.0 L 115.0,114.0 L 113.0,106.0 L 109.0,100.0 L 100.0,94.0 L 89.0,89.0 L 89.0,82.0 L 92.0,78.0 L 97.0,68.0 L 97.0,44.0 L 93.0,38.0 L 85.0,34.0 L 81.0,33.0 L 72.0,33.0 L 65.0,36.0 L 60.0,41.0 L 58.0,45.0 L 57.0,70.0 L 60.0,74.0 L 63.0,81.0 L 63.0,88.0 L 56.0,91.0 L 42.0,98.0 L 37.0,105.0 L 35.0,110.0 L 28.0,110.0 L 28.0,69.0 L 30.0,27.0" fill="#FAFAFA"/>
	<path d="M 72.0,40.0 L 80.0,40.0 L 89.0,44.0 L 90.0,46.0 L 90.0,56.0 L 89.0,62.0 L 90.0,67.0 L 87.0,70.0 L 82.0,80.0 L 82.0,90.0 L 87.0,96.0 L 104.0,105.0 L 107.0,109.0 L 107.0,113.0 L 83.0,113.0 L 43.0,111.0 L 44.0,106.0 L 49.0,102.0 L 65.0,95.0 L 70.0,90.0 L 70.0,80.0 L 65.0,68.0 L 64.0,63.0 L 65.0,46.0 L 70.0,41.0 L 72.0,40.0" fill="#F8F8F8"/>
	<path d="M 47.0,150.0 L 60.0,150.0 L 110.0,154.0 L 136.0,156.0 L 147.0,157.0 L 147.0,160.0 L 131.0,159.0 L 47.0,151.0 L 47.0,150.0" fill="#AEAEAE"/>
	<path d="M 131.0,157.0 L 147.0,157.0 L 147.0,160.0 L 131.0,159.0 L 131.0,157.0" fill="#EEEEEE"/>
	<path d="M 119.0,155.0 L 136.0,156.0 L 136.0,157.0 L 131.0,158.0 L 121.0,158.0 L 119.0,155.0" fill="#C7C7C7"/>
</svg>
