<?xml version="1.0" ?>
<svg baseProfile="full" height="600px" version="1.1" viewBox="-19.296000000000003 -19.296000000000003 230.592 230.592" width="600px" xmlns="http://www.w3.org/2000/svg" xmlns:ev="http://www.w3.org/2001/xml-events" xmlns:xlink="http://www.w3.org/1999/xlink">
	<defs/>
	<path d="M 0.0,0.0 L 192.0,0.0 L 192.0,192.0 L 0.0,192.0 L 0.0,0.0" fill="#FDFDFD"/>
	<path d="M 29.0,28.0 L 117.0,28.0 L 117.0,109.0 L 58.0,109.0 L 28.0,108.0 L 28.0,72.0 L 29.0,28.0" fill="#4FB054"/>
	<path d="M 17.0,16.0 L 73.0,16.0 L 129.0,17.0 L 129.0,59.0 L 128.0,129.0 L 127.0,131.0 L 98.0,131.0 L 39.0,130.0 L 19.0,129.0 L 16.0,128.0 L 16.0,80.0 L 17.0,16.0 M 29.0,28.0 L 28.0,72.0 L 28.0,108.0 L 58.0,109.0 L 117.0,109.0 L 117.0,28.0 L 29.0,28.0" fill="#BADDF8"/>
	<path d="M 69.0,45.0 L 77.0,45.0 L 81.0,50.0 L 81.0,54.0 L 83.0,53.0 L 90.0,53.0 L 94.0,57.0 L 94.0,65.0 L 90.0,69.0 L 94.0,73.0 L 94.0,80.0 L 89.0,85.0 L 82.0,84.0 L 81.0,83.0 L 79.0,90.0 L 76.0,92.0 L 68.0,92.0 L 65.0,89.0 L 64.0,82.0 L 62.0,84.0 L 55.0,84.0 L 51.0,80.0 L 51.0,72.0 L 55.0,68.0 L 51.0,64.0 L 51.0,57.0 L 56.0,52.0 L 63.0,53.0 L 64.0,54.0 L 66.0,47.0 L 69.0,45.0" fill="#F9FBF7"/>
	<path d="M 20.0,128.0 L 99.0,128.0 L 126.0,129.0 L 126.0,131.0 L 98.0,131.0 L 39.0,130.0 L 20.0,129.0 L 20.0,128.0" fill="#81C2F7"/>
	<path d="M 69.0,61.0 L 76.0,61.0 L 80.0,65.0 L 80.0,72.0 L 76.0,76.0 L 69.0,76.0 L 65.0,72.0 L 65.0,65.0 L 69.0,61.0" fill="#FEC10B"/>
</svg>
