<?xml version="1.0" ?>
<svg baseProfile="full" height="600px" version="1.1" viewBox="-19.296000000000003 -19.296000000000003 230.592 230.592" width="600px" xmlns="http://www.w3.org/2000/svg" xmlns:ev="http://www.w3.org/2001/xml-events" xmlns:xlink="http://www.w3.org/1999/xlink">
	<defs/>
	<path d="M 0.0,0.0 L 192.0,0.0 L 192.0,192.0 L 0.0,192.0 L 0.0,0.0" fill="#BADDF9"/>
	<path d="M 0.0,0.0 L 192.0,0.0 L 192.0,192.0 L 0.0,192.0 L 0.0,0.0 M 17.0,16.0 L 16.0,80.0 L 16.0,128.0 L 24.0,128.0 L 24.0,133.0 L 30.0,135.0 L 35.0,135.0 L 35.0,141.0 L 72.0,154.0 L 108.0,166.0 L 138.0,176.0 L 141.0,175.0 L 153.0,139.0 L 175.0,73.0 L 175.0,70.0 L 153.0,62.0 L 150.0,62.0 L 153.0,47.0 L 153.0,43.0 L 135.0,40.0 L 129.0,39.0 L 129.0,17.0 L 65.0,16.0 L 17.0,16.0" fill="#FCFDFD"/>
	<path d="M 29.0,28.0 L 71.0,28.0 L 117.0,29.0 L 117.0,109.0 L 28.0,109.0 L 28.0,74.0 L 29.0,28.0" fill="#4FB054"/>
	<path d="M 150.0,62.0 L 156.0,63.0 L 175.0,70.0 L 173.0,79.0 L 143.0,169.0 L 140.0,176.0 L 129.0,173.0 L 78.0,156.0 L 35.0,141.0 L 36.0,136.0 L 51.0,138.0 L 78.0,143.0 L 115.0,150.0 L 133.0,153.0 L 134.0,144.0 L 138.0,124.0 L 143.0,97.0 L 149.0,63.0 L 150.0,62.0" fill="#65B4F5"/>
	<path d="M 129.0,40.0 L 140.0,41.0 L 153.0,43.0 L 152.0,52.0 L 143.0,102.0 L 138.0,128.0 L 135.0,144.0 L 133.0,153.0 L 120.0,152.0 L 85.0,145.0 L 66.0,142.0 L 46.0,138.0 L 35.0,137.0 L 35.0,135.0 L 25.0,134.0 L 24.0,133.0 L 24.0,128.0 L 79.0,128.0 L 128.0,129.0 L 128.0,64.0 L 129.0,40.0" fill="#8EC9F8"/>
	<path d="M 69.0,45.0 L 76.0,45.0 L 81.0,50.0 L 82.0,54.0 L 83.0,53.0 L 90.0,53.0 L 95.0,58.0 L 94.0,65.0 L 89.0,69.0 L 93.0,71.0 L 95.0,75.0 L 94.0,81.0 L 89.0,85.0 L 82.0,84.0 L 81.0,83.0 L 79.0,90.0 L 75.0,93.0 L 68.0,92.0 L 65.0,89.0 L 64.0,83.0 L 62.0,84.0 L 55.0,84.0 L 51.0,80.0 L 51.0,73.0 L 55.0,68.0 L 51.0,64.0 L 51.0,57.0 L 55.0,53.0 L 63.0,53.0 L 64.0,54.0 L 66.0,48.0 L 69.0,45.0" fill="#F9FBF8"/>
	<path d="M 147.0,74.0 L 154.0,75.0 L 160.0,77.0 L 158.0,86.0 L 144.0,128.0 L 140.0,142.0 L 136.0,153.0 L 134.0,153.0 L 134.0,144.0 L 138.0,124.0 L 143.0,97.0 L 147.0,74.0" fill="#228AE5"/>
	<path d="M 129.0,52.0 L 139.0,53.0 L 138.0,62.0 L 131.0,103.0 L 129.0,106.0 L 129.0,52.0" fill="#44A5F4"/>
	<path d="M 69.0,61.0 L 76.0,61.0 L 81.0,66.0 L 80.0,73.0 L 75.0,77.0 L 68.0,76.0 L 65.0,72.0 L 65.0,65.0 L 69.0,61.0" fill="#FEC311"/>
	<path d="M 111.0,129.0 L 126.0,129.0 L 126.0,132.0 L 111.0,130.0 L 111.0,129.0" fill="#5BB0F5"/>
</svg>
