<?xml version="1.0" ?>
<svg baseProfile="full" height="600px" version="1.1" viewBox="-12.06 -12.06 144.12 144.12" width="600px" xmlns="http://www.w3.org/2000/svg" xmlns:ev="http://www.w3.org/2001/xml-events" xmlns:xlink="http://www.w3.org/1999/xlink">
	<defs/>
	<path d="M 0.0,0.0 L 120.0,0.0 L 120.0,120.0 L 0.0,120.0 L 0.0,0.0" fill="#FCFCFC"/>
	<path d="M 88.0,36.0 L 110.0,36.0 L 115.0,41.0 L 116.0,53.0 L 117.0,84.0 L 117.0,98.0 L 115.0,102.0 L 111.0,104.0 L 60.0,106.0 L 29.0,106.0 L 25.0,102.0 L 24.0,99.0 L 23.0,58.0 L 23.0,43.0 L 29.0,38.0 L 88.0,36.0" fill="#030303"/>
	<path d="M 66.0,49.0 L 72.0,49.0 L 79.0,54.0 L 80.0,56.0 L 81.0,69.0 L 77.0,76.0 L 77.0,82.0 L 89.0,87.0 L 92.0,90.0 L 92.0,93.0 L 67.0,94.0 L 49.0,94.0 L 51.0,89.0 L 64.0,82.0 L 64.0,77.0 L 59.0,70.0 L 59.0,55.0 L 64.0,50.0 L 66.0,49.0" fill="#F6F6F6"/>
</svg>
