<?xml version="1.0" ?>
<svg baseProfile="full" height="600px" version="1.1" viewBox="-12.06 -12.06 144.12 144.12" width="600px" xmlns="http://www.w3.org/2000/svg" xmlns:ev="http://www.w3.org/2001/xml-events" xmlns:xlink="http://www.w3.org/1999/xlink">
	<defs/>
	<path d="M 0.0,0.0 L 120.0,0.0 L 120.0,120.0 L 0.0,120.0 L 0.0,0.0" fill="#FAFAFA"/>
	<path d="M 96.0,37.0 L 108.0,37.0 L 112.0,41.0 L 118.0,86.0 L 118.0,100.0 L 113.0,104.0 L 101.0,106.0 L 68.0,110.0 L 39.0,114.0 L 32.0,114.0 L 27.0,108.0 L 22.0,72.0 L 21.0,64.0 L 21.0,50.0 L 26.0,46.0 L 73.0,40.0 L 96.0,37.0" fill="#030303"/>
	<path d="M 86.0,18.0 L 93.0,18.0 L 99.0,23.0 L 99.0,29.0 L 80.0,32.0 L 39.0,37.0 L 17.0,40.0 L 13.0,44.0 L 13.0,57.0 L 17.0,88.0 L 17.0,95.0 L 14.0,92.0 L 11.0,71.0 L 8.0,43.0 L 8.0,31.0 L 13.0,27.0 L 45.0,23.0 L 81.0,19.0 L 86.0,18.0" fill="#060606"/>
	<path d="M 65.0,53.0 L 70.0,53.0 L 78.0,58.0 L 79.0,60.0 L 80.0,73.0 L 77.0,79.0 L 77.0,85.0 L 90.0,89.0 L 94.0,93.0 L 92.0,95.0 L 59.0,99.0 L 51.0,99.0 L 53.0,94.0 L 61.0,89.0 L 64.0,87.0 L 64.0,81.0 L 61.0,78.0 L 61.0,76.0 L 59.0,76.0 L 57.0,67.0 L 57.0,60.0 L 61.0,55.0 L 65.0,53.0" fill="#F7F7F7"/>
	<path d="M 9.0,50.0 L 12.0,51.0 L 16.0,78.0 L 17.0,95.0 L 14.0,92.0 L 11.0,71.0 L 9.0,50.0" fill="#151515"/>
	<path d="M 9.0,50.0 L 12.0,51.0 L 13.0,59.0 L 11.0,59.0 L 10.0,63.0 L 9.0,50.0" fill="#252525"/>
</svg>
