<?xml version="1.0" ?>
<svg baseProfile="full" height="600px" version="1.1" viewBox="-19.296000000000003 -19.296000000000003 230.592 230.592" width="600px" xmlns="http://www.w3.org/2000/svg" xmlns:ev="http://www.w3.org/2001/xml-events" xmlns:xlink="http://www.w3.org/1999/xlink">
	<defs/>
	<path d="M 0.0,0.0 L 192.0,0.0 L 192.0,192.0 L 0.0,192.0 L 0.0,0.0" fill="#FCFDFD"/>
	<path d="M 20.0,16.0 L 58.0,17.0 L 114.0,19.0 L 132.0,20.0 L 132.0,30.0 L 137.0,30.0 L 138.0,39.0 L 147.0,40.0 L 147.0,48.0 L 139.0,103.0 L 135.0,131.0 L 133.0,148.0 L 113.0,146.0 L 87.0,142.0 L 62.0,139.0 L 41.0,136.0 L 27.0,134.0 L 25.0,133.0 L 25.0,130.0 L 20.0,130.0 L 20.0,128.0 L 16.0,128.0 L 18.0,56.0 L 19.0,27.0 L 20.0,16.0" fill="#B9DDF8"/>
	<path d="M 31.0,29.0 L 58.0,29.0 L 119.0,31.0 L 119.0,69.0 L 117.0,111.0 L 82.0,111.0 L 64.0,110.0 L 29.0,109.0 L 29.0,93.0 L 31.0,29.0" fill="#4EB053"/>
	<path d="M 136.0,40.0 L 147.0,40.0 L 147.0,48.0 L 139.0,103.0 L 135.0,131.0 L 133.0,148.0 L 113.0,146.0 L 87.0,142.0 L 62.0,139.0 L 41.0,136.0 L 27.0,134.0 L 26.0,130.0 L 35.0,130.0 L 66.0,133.0 L 128.0,138.0 L 128.0,128.0 L 132.0,84.0 L 135.0,45.0 L 136.0,40.0" fill="#68B6F5"/>
	<path d="M 72.0,46.0 L 78.0,46.0 L 83.0,52.0 L 83.0,56.0 L 85.0,55.0 L 92.0,55.0 L 96.0,59.0 L 96.0,66.0 L 91.0,71.0 L 96.0,76.0 L 95.0,83.0 L 92.0,86.0 L 84.0,86.0 L 82.0,84.0 L 80.0,91.0 L 76.0,94.0 L 70.0,94.0 L 66.0,90.0 L 65.0,84.0 L 64.0,85.0 L 56.0,85.0 L 52.0,80.0 L 52.0,74.0 L 57.0,69.0 L 53.0,65.0 L 53.0,58.0 L 57.0,54.0 L 64.0,54.0 L 66.0,56.0 L 68.0,49.0 L 72.0,46.0" fill="#FAFCFA"/>
	<path d="M 25.0,129.0 L 58.0,129.0 L 93.0,130.0 L 128.0,132.0 L 128.0,138.0 L 114.0,138.0 L 66.0,134.0 L 26.0,130.0 L 25.0,133.0 L 25.0,129.0" fill="#8FC9F8"/>
	<path d="M 131.0,30.0 L 137.0,30.0 L 138.0,40.0 L 136.0,40.0 L 134.0,69.0 L 130.0,117.0 L 129.0,128.0 L 128.0,128.0 L 128.0,112.0 L 131.0,30.0" fill="#94CBF8"/>
	<path d="M 71.0,62.0 L 77.0,62.0 L 82.0,67.0 L 82.0,73.0 L 77.0,78.0 L 71.0,78.0 L 66.0,73.0 L 66.0,67.0 L 71.0,62.0" fill="#FEC311"/>
</svg>
