<?xml version="1.0" ?>
<svg baseProfile="full" height="600px" version="1.1" viewBox="-19.296000000000003 -19.296000000000003 230.592 230.592" width="600px" xmlns="http://www.w3.org/2000/svg" xmlns:ev="http://www.w3.org/2001/xml-events" xmlns:xlink="http://www.w3.org/1999/xlink">
	<defs/>
	<path d="M 0.0,0.0 L 192.0,0.0 L 192.0,192.0 L 0.0,192.0 L 0.0,0.0" fill="#FDFDFD"/>
	<path d="M 52.0,43.0 L 111.0,43.0 L 117.0,47.0 L 128.0,58.0 L 141.0,76.0 L 144.0,81.0 L 144.0,83.0 L 164.0,83.0 L 173.0,85.0 L 174.0,101.0 L 189.0,102.0 L 189.0,121.0 L 184.0,126.0 L 168.0,126.0 L 167.0,135.0 L 163.0,141.0 L 158.0,145.0 L 154.0,147.0 L 142.0,147.0 L 134.0,142.0 L 130.0,137.0 L 128.0,132.0 L 128.0,126.0 L 60.0,126.0 L 59.0,135.0 L 53.0,143.0 L 45.0,147.0 L 36.0,147.0 L 29.0,144.0 L 24.0,140.0 L 20.0,132.0 L 20.0,126.0 L 3.0,126.0 L 3.0,82.0 L 47.0,82.0 L 47.0,49.0 L 49.0,45.0 L 52.0,43.0" fill="#4CAD50"/>
	<path d="M 143.0,107.0 L 153.0,107.0 L 161.0,111.0 L 167.0,119.0 L 168.0,122.0 L 168.0,132.0 L 164.0,140.0 L 158.0,145.0 L 154.0,147.0 L 142.0,147.0 L 134.0,142.0 L 130.0,137.0 L 128.0,132.0 L 128.0,122.0 L 132.0,114.0 L 140.0,108.0 L 143.0,107.0" fill="#5F433A"/>
	<path d="M 36.0,107.0 L 44.0,107.0 L 52.0,110.0 L 58.0,117.0 L 60.0,123.0 L 60.0,132.0 L 56.0,140.0 L 50.0,145.0 L 45.0,147.0 L 36.0,147.0 L 29.0,144.0 L 24.0,140.0 L 20.0,132.0 L 20.0,122.0 L 24.0,114.0 L 30.0,109.0 L 36.0,107.0" fill="#5F4339"/>
	<path d="M 88.0,51.0 L 109.0,51.0 L 117.0,57.0 L 126.0,68.0 L 133.0,78.0 L 134.0,82.0 L 88.0,82.0 L 88.0,51.0" fill="#1B5F20"/>
	<path d="M 60.0,51.0 L 80.0,51.0 L 80.0,82.0 L 60.0,82.0 L 60.0,51.0" fill="#1B5F20"/>
	<path d="M 3.0,90.0 L 13.0,90.0 L 15.0,92.0 L 15.0,117.0 L 14.0,118.0 L 3.0,118.0 L 3.0,90.0" fill="#FA3F02"/>
	<path d="M 173.0,85.0 L 184.0,89.0 L 189.0,93.0 L 189.0,102.0 L 174.0,102.0 L 173.0,101.0 L 173.0,85.0" fill="#B9DDF5"/>
	<path d="M 145.0,119.0 L 151.0,119.0 L 156.0,124.0 L 155.0,132.0 L 151.0,135.0 L 145.0,135.0 L 140.0,130.0 L 140.0,124.0 L 145.0,119.0" fill="#B7A59F"/>
	<path d="M 37.0,119.0 L 43.0,119.0 L 48.0,124.0 L 47.0,132.0 L 42.0,135.0 L 35.0,134.0 L 32.0,130.0 L 32.0,124.0 L 37.0,119.0" fill="#B7A59F"/>
</svg>
