<?xml version="1.0" ?>
<svg baseProfile="full" height="600px" version="1.1" viewBox="-19.296000000000003 -19.296000000000003 230.592 230.592" width="600px" xmlns="http://www.w3.org/2000/svg" xmlns:ev="http://www.w3.org/2001/xml-events" xmlns:xlink="http://www.w3.org/1999/xlink">
	<defs/>
	<path d="M 0.0,0.0 L 192.0,0.0 L 192.0,192.0 L 0.0,192.0 L 0.0,0.0" fill="#FDFDFD"/>
	<path d="M 53.0,43.0 L 110.0,43.0 L 119.0,49.0 L 130.0,61.0 L 141.0,77.0 L 144.0,82.0 L 160.0,83.0 L 172.0,86.0 L 173.0,100.0 L 174.0,102.0 L 188.0,103.0 L 188.0,123.0 L 183.0,127.0 L 168.0,127.0 L 167.0,135.0 L 161.0,143.0 L 153.0,147.0 L 143.0,147.0 L 135.0,143.0 L 130.0,137.0 L 128.0,132.0 L 128.0,127.0 L 60.0,127.0 L 59.0,135.0 L 53.0,143.0 L 45.0,147.0 L 35.0,147.0 L 27.0,143.0 L 22.0,137.0 L 20.0,131.0 L 20.0,127.0 L 3.0,127.0 L 3.0,83.0 L 48.0,83.0 L 48.0,48.0 L 53.0,43.0" fill="#4CAE50"/>
	<path d="M 34.0,107.0 L 46.0,107.0 L 54.0,112.0 L 58.0,117.0 L 60.0,121.0 L 60.0,132.0 L 56.0,140.0 L 51.0,144.0 L 45.0,147.0 L 35.0,147.0 L 27.0,143.0 L 22.0,137.0 L 20.0,131.0 L 20.0,121.0 L 25.0,113.0 L 30.0,109.0 L 34.0,107.0" fill="#5F443A"/>
	<path d="M 142.0,107.0 L 152.0,107.0 L 161.0,111.0 L 166.0,117.0 L 168.0,121.0 L 168.0,132.0 L 164.0,140.0 L 158.0,145.0 L 153.0,147.0 L 143.0,147.0 L 135.0,143.0 L 130.0,137.0 L 128.0,132.0 L 128.0,122.0 L 132.0,114.0 L 138.0,109.0 L 142.0,107.0" fill="#5F433A"/>
	<path d="M 88.0,51.0 L 109.0,51.0 L 119.0,60.0 L 130.0,74.0 L 135.0,83.0 L 88.0,83.0 L 88.0,51.0" fill="#1B5F20"/>
	<path d="M 60.0,51.0 L 80.0,51.0 L 80.0,83.0 L 60.0,83.0 L 60.0,51.0" fill="#1B5F20"/>
	<path d="M 3.0,91.0 L 14.0,91.0 L 16.0,93.0 L 16.0,116.0 L 13.0,119.0 L 3.0,119.0 L 3.0,91.0" fill="#F44608"/>
	<path d="M 172.0,86.0 L 178.0,87.0 L 186.0,91.0 L 189.0,94.0 L 189.0,121.0 L 188.0,121.0 L 188.0,103.0 L 174.0,103.0 L 172.0,100.0 L 172.0,86.0" fill="#B3DAE9"/>
	<path d="M 145.0,119.0 L 151.0,119.0 L 156.0,124.0 L 155.0,132.0 L 150.0,135.0 L 143.0,134.0 L 140.0,130.0 L 140.0,124.0 L 145.0,119.0" fill="#B7A59F"/>
	<path d="M 36.0,119.0 L 43.0,119.0 L 48.0,124.0 L 47.0,132.0 L 42.0,135.0 L 37.0,135.0 L 32.0,130.0 L 32.0,124.0 L 36.0,119.0" fill="#B7A59F"/>
</svg>
