<?xml version="1.0" ?>
<svg baseProfile="full" height="600px" version="1.1" viewBox="-19.296000000000003 -19.296000000000003 230.592 230.592" width="600px" xmlns="http://www.w3.org/2000/svg" xmlns:ev="http://www.w3.org/2001/xml-events" xmlns:xlink="http://www.w3.org/1999/xlink">
	<defs/>
	<path d="M 0.0,0.0 L 192.0,0.0 L 192.0,192.0 L 0.0,192.0 L 0.0,0.0" fill="#FCFDFE"/>
	<path d="M 88.0,16.0 L 96.0,16.0 L 96.0,95.0 L 109.0,85.0 L 126.0,71.0 L 140.0,60.0 L 151.0,51.0 L 157.0,46.0 L 160.0,47.0 L 167.0,58.0 L 172.0,69.0 L 175.0,78.0 L 176.0,84.0 L 176.0,106.0 L 173.0,120.0 L 168.0,132.0 L 161.0,144.0 L 149.0,157.0 L 136.0,166.0 L 128.0,170.0 L 113.0,175.0 L 107.0,176.0 L 86.0,176.0 L 72.0,173.0 L 60.0,168.0 L 50.0,162.0 L 39.0,153.0 L 30.0,142.0 L 22.0,128.0 L 18.0,117.0 L 16.0,105.0 L 16.0,88.0 L 18.0,75.0 L 24.0,60.0 L 30.0,50.0 L 39.0,39.0 L 51.0,29.0 L 67.0,21.0 L 79.0,17.0 L 88.0,16.0" fill="#02BBD4"/>
	<path d="M 157.0,46.0 L 160.0,47.0 L 167.0,58.0 L 172.0,69.0 L 175.0,78.0 L 176.0,84.0 L 176.0,106.0 L 173.0,120.0 L 168.0,132.0 L 161.0,144.0 L 149.0,157.0 L 136.0,166.0 L 130.0,168.0 L 122.0,152.0 L 108.0,123.0 L 100.0,105.0 L 96.0,97.0 L 96.0,95.0 L 109.0,85.0 L 126.0,71.0 L 140.0,60.0 L 151.0,51.0 L 157.0,46.0" fill="#3F52B5"/>
	<path d="M 157.0,46.0 L 160.0,47.0 L 167.0,58.0 L 172.0,69.0 L 175.0,78.0 L 176.0,84.0 L 176.0,96.0 L 96.0,96.0 L 100.0,92.0 L 110.0,84.0 L 126.0,71.0 L 140.0,60.0 L 151.0,51.0 L 157.0,46.0" fill="#468AFD"/>
</svg>
