<?xml version="1.0" ?>
<svg baseProfile="full" height="600px" version="1.1" viewBox="-16.08 -16.08 192.16 192.16" width="600px" xmlns="http://www.w3.org/2000/svg" xmlns:ev="http://www.w3.org/2001/xml-events" xmlns:xlink="http://www.w3.org/1999/xlink">
	<defs/>
	<path d="M 0.0,0.0 L 160.0,0.0 L 160.0,160.0 L 0.0,160.0 L 0.0,0.0" fill="#F58D8D"/>
	<path d="M 0.0,0.0 L 160.0,0.0 L 160.0,160.0 L 0.0,160.0 L 0.0,0.0 M 121.0,28.0 L 113.0,35.0 L 106.0,41.0 L 106.0,43.0 L 53.0,43.0 L 42.0,46.0 L 30.0,52.0 L 21.0,60.0 L 20.0,62.0 L 17.0,61.0 L 15.0,57.0 L 15.0,46.0 L 16.0,40.0 L 12.0,41.0 L 10.0,45.0 L 10.0,57.0 L 14.0,65.0 L 15.0,69.0 L 11.0,77.0 L 9.0,84.0 L 9.0,100.0 L 11.0,108.0 L 18.0,122.0 L 25.0,130.0 L 27.0,130.0 L 27.0,154.0 L 32.0,159.0 L 51.0,159.0 L 56.0,155.0 L 60.0,145.0 L 60.0,143.0 L 88.0,144.0 L 93.0,155.0 L 97.0,159.0 L 119.0,159.0 L 123.0,157.0 L 125.0,153.0 L 125.0,134.0 L 133.0,127.0 L 140.0,119.0 L 157.0,112.0 L 159.0,109.0 L 159.0,80.0 L 155.0,76.0 L 140.0,67.0 L 131.0,57.0 L 127.0,53.0 L 123.0,30.0 L 121.0,28.0" fill="#FEFCFC"/>
	<path d="M 121.0,28.0 L 123.0,30.0 L 127.0,53.0 L 138.0,64.0 L 143.0,69.0 L 158.0,78.0 L 159.0,80.0 L 159.0,109.0 L 155.0,113.0 L 140.0,119.0 L 131.0,129.0 L 125.0,134.0 L 125.0,153.0 L 123.0,157.0 L 119.0,159.0 L 97.0,159.0 L 92.0,154.0 L 88.0,144.0 L 60.0,143.0 L 57.0,153.0 L 53.0,158.0 L 51.0,159.0 L 32.0,159.0 L 27.0,154.0 L 27.0,130.0 L 23.0,128.0 L 15.0,117.0 L 10.0,106.0 L 9.0,100.0 L 9.0,84.0 L 13.0,72.0 L 15.0,69.0 L 14.0,65.0 L 10.0,57.0 L 10.0,45.0 L 13.0,40.0 L 16.0,40.0 L 15.0,46.0 L 15.0,57.0 L 18.0,62.0 L 20.0,62.0 L 25.0,56.0 L 35.0,49.0 L 48.0,44.0 L 53.0,43.0 L 106.0,43.0 L 108.0,39.0 L 121.0,28.0 M 118.0,36.0 L 109.0,44.0 L 108.0,46.0 L 100.0,47.0 L 99.0,50.0 L 53.0,50.0 L 52.0,48.0 L 43.0,50.0 L 32.0,56.0 L 23.0,64.0 L 15.0,78.0 L 13.0,86.0 L 13.0,99.0 L 17.0,112.0 L 24.0,123.0 L 30.0,128.0 L 31.0,153.0 L 33.0,155.0 L 50.0,155.0 L 54.0,149.0 L 57.0,139.0 L 92.0,139.0 L 94.0,148.0 L 97.0,154.0 L 99.0,155.0 L 118.0,155.0 L 121.0,152.0 L 121.0,132.0 L 130.0,125.0 L 138.0,115.0 L 154.0,109.0 L 155.0,108.0 L 155.0,81.0 L 137.0,70.0 L 130.0,61.0 L 123.0,55.0 L 119.0,36.0 L 118.0,36.0" fill="#C94949"/>
	<path d="M 121.0,73.0 L 127.0,73.0 L 127.0,77.0 L 121.0,77.0 L 121.0,73.0" fill="#3D434F"/>
</svg>
