<?xml version="1.0" ?>
<svg baseProfile="full" height="600px" version="1.1" viewBox="-12.06 -12.06 144.12 144.12" width="600px" xmlns="http://www.w3.org/2000/svg" xmlns:ev="http://www.w3.org/2001/xml-events" xmlns:xlink="http://www.w3.org/1999/xlink">
	<defs/>
	<path d="M 0.0,0.0 L 120.0,0.0 L 120.0,120.0 L 0.0,120.0 L 0.0,0.0" fill="#FCFCFC"/>
	<path d="M 98.0,32.0 L 100.0,32.0 L 99.0,41.0 L 97.0,46.0 L 98.0,51.0 L 103.0,61.0 L 111.0,64.0 L 112.0,70.0 L 109.0,82.0 L 106.0,84.0 L 100.0,86.0 L 93.0,94.0 L 92.0,95.0 L 92.0,106.0 L 90.0,108.0 L 74.0,108.0 L 71.0,104.0 L 48.0,104.0 L 41.0,102.0 L 40.0,106.0 L 38.0,108.0 L 23.0,108.0 L 20.0,105.0 L 16.0,82.0 L 12.0,69.0 L 12.0,64.0 L 8.0,62.0 L 9.0,57.0 L 13.0,56.0 L 14.0,51.0 L 20.0,42.0 L 29.0,36.0 L 33.0,35.0 L 37.0,39.0 L 63.0,39.0 L 68.0,34.0 L 77.0,36.0 L 83.0,37.0 L 98.0,32.0" fill="#020202"/>
	<path d="M 82.0,59.0 L 89.0,59.0 L 92.0,61.0 L 90.0,65.0 L 82.0,65.0 L 80.0,61.0 L 82.0,59.0" fill="#F4F4F4"/>
</svg>
