<?xml version="1.0" ?>
<svg baseProfile="full" height="600px" version="1.1" viewBox="-12.06 -12.06 144.12 144.12" width="600px" xmlns="http://www.w3.org/2000/svg" xmlns:ev="http://www.w3.org/2001/xml-events" xmlns:xlink="http://www.w3.org/1999/xlink">
	<defs/>
	<path d="M 0.0,0.0 L 120.0,0.0 L 120.0,120.0 L 0.0,120.0 L 0.0,0.0" fill="#FCFCFC"/>
	<path d="M 94.0,32.0 L 99.0,32.0 L 96.0,51.0 L 98.0,51.0 L 104.0,61.0 L 104.0,63.0 L 113.0,66.0 L 114.0,71.0 L 110.0,83.0 L 108.0,85.0 L 101.0,87.0 L 95.0,94.0 L 93.0,95.0 L 93.0,106.0 L 91.0,108.0 L 75.0,108.0 L 72.0,105.0 L 72.0,103.0 L 70.0,104.0 L 47.0,104.0 L 40.0,102.0 L 39.0,107.0 L 37.0,108.0 L 21.0,108.0 L 18.0,103.0 L 15.0,86.0 L 11.0,74.0 L 11.0,68.0 L 7.0,66.0 L 7.0,61.0 L 11.0,60.0 L 13.0,52.0 L 19.0,44.0 L 28.0,38.0 L 33.0,39.0 L 35.0,41.0 L 64.0,41.0 L 68.0,36.0 L 77.0,38.0 L 83.0,39.0 L 92.0,33.0 L 94.0,32.0" fill="#020202"/>
	<path d="M 84.0,57.0 L 90.0,58.0 L 92.0,61.0 L 92.0,66.0 L 89.0,69.0 L 83.0,69.0 L 80.0,66.0 L 81.0,59.0 L 84.0,57.0" fill="#F2F2F2"/>
	<path d="M 48.0,30.0 L 56.0,30.0 L 62.0,33.0 L 63.0,35.0 L 42.0,35.0 L 46.0,31.0 L 48.0,30.0" fill="#0A0A0A"/>
</svg>
