<?xml version="1.0" ?>
<svg baseProfile="full" height="600px" version="1.1" viewBox="-16.08 -16.08 192.16 192.16" width="600px" xmlns="http://www.w3.org/2000/svg" xmlns:ev="http://www.w3.org/2001/xml-events" xmlns:xlink="http://www.w3.org/1999/xlink">
	<defs/>
	<path d="M 0.0,0.0 L 160.0,0.0 L 160.0,160.0 L 0.0,160.0 L 0.0,0.0" fill="#F58E8E"/>
	<path d="M 0.0,0.0 L 160.0,0.0 L 160.0,160.0 L 0.0,160.0 L 0.0,0.0 M 70.0,4.0 L 54.0,8.0 L 38.0,16.0 L 28.0,24.0 L 21.0,31.0 L 12.0,45.0 L 7.0,57.0 L 4.0,70.0 L 4.0,91.0 L 9.0,108.0 L 16.0,122.0 L 24.0,132.0 L 31.0,139.0 L 45.0,148.0 L 56.0,153.0 L 70.0,156.0 L 90.0,156.0 L 106.0,152.0 L 122.0,144.0 L 132.0,136.0 L 139.0,129.0 L 148.0,115.0 L 154.0,100.0 L 156.0,90.0 L 156.0,69.0 L 152.0,54.0 L 144.0,38.0 L 136.0,28.0 L 129.0,21.0 L 115.0,12.0 L 99.0,6.0 L 91.0,4.0 L 70.0,4.0" fill="#FEFCFC"/>
	<path d="M 71.0,36.0 L 86.0,36.0 L 98.0,39.0 L 108.0,44.0 L 117.0,53.0 L 123.0,65.0 L 124.0,70.0 L 124.0,83.0 L 122.0,93.0 L 118.0,103.0 L 111.0,112.0 L 103.0,118.0 L 94.0,121.0 L 81.0,121.0 L 74.0,117.0 L 70.0,114.0 L 69.0,122.0 L 64.0,138.0 L 58.0,148.0 L 53.0,147.0 L 52.0,146.0 L 52.0,127.0 L 56.0,111.0 L 60.0,95.0 L 59.0,85.0 L 59.0,75.0 L 62.0,69.0 L 69.0,63.0 L 75.0,63.0 L 80.0,67.0 L 81.0,69.0 L 81.0,78.0 L 76.0,95.0 L 76.0,103.0 L 80.0,108.0 L 82.0,109.0 L 90.0,109.0 L 98.0,104.0 L 102.0,99.0 L 106.0,89.0 L 107.0,84.0 L 107.0,71.0 L 103.0,61.0 L 99.0,56.0 L 91.0,51.0 L 86.0,50.0 L 69.0,50.0 L 57.0,56.0 L 50.0,65.0 L 47.0,74.0 L 47.0,83.0 L 50.0,92.0 L 52.0,95.0 L 51.0,103.0 L 50.0,107.0 L 46.0,106.0 L 41.0,102.0 L 36.0,94.0 L 33.0,85.0 L 33.0,72.0 L 36.0,62.0 L 42.0,52.0 L 49.0,45.0 L 60.0,39.0 L 71.0,36.0" fill="#FEFBFB"/>
	<path d="M 70.0,4.0 L 91.0,4.0 L 108.0,9.0 L 122.0,16.0 L 132.0,24.0 L 139.0,31.0 L 148.0,45.0 L 153.0,56.0 L 156.0,69.0 L 156.0,90.0 L 152.0,106.0 L 144.0,122.0 L 136.0,132.0 L 129.0,139.0 L 115.0,148.0 L 103.0,153.0 L 90.0,156.0 L 70.0,156.0 L 54.0,152.0 L 38.0,144.0 L 28.0,136.0 L 21.0,129.0 L 12.0,115.0 L 6.0,99.0 L 4.0,91.0 L 4.0,70.0 L 8.0,54.0 L 16.0,38.0 L 24.0,28.0 L 31.0,21.0 L 45.0,12.0 L 57.0,7.0 L 70.0,4.0 M 71.0,8.0 L 55.0,12.0 L 39.0,20.0 L 26.0,32.0 L 17.0,44.0 L 12.0,55.0 L 8.0,71.0 L 8.0,88.0 L 10.0,98.0 L 16.0,114.0 L 24.0,126.0 L 35.0,137.0 L 50.0,146.0 L 61.0,150.0 L 70.0,152.0 L 89.0,152.0 L 105.0,148.0 L 119.0,141.0 L 129.0,133.0 L 136.0,126.0 L 145.0,112.0 L 150.0,99.0 L 152.0,89.0 L 152.0,74.0 L 150.0,62.0 L 145.0,48.0 L 138.0,37.0 L 129.0,27.0 L 119.0,19.0 L 107.0,13.0 L 95.0,9.0 L 88.0,8.0 L 71.0,8.0" fill="#CA4C4C"/>
</svg>
