<?xml version="1.0" ?>
<svg baseProfile="full" height="600px" version="1.1" viewBox="-19.296000000000003 -19.296000000000003 230.592 230.592" width="600px" xmlns="http://www.w3.org/2000/svg" xmlns:ev="http://www.w3.org/2001/xml-events" xmlns:xlink="http://www.w3.org/1999/xlink">
	<defs/>
	<path d="M 0.0,0.0 L 192.0,0.0 L 192.0,192.0 L 0.0,192.0 L 0.0,0.0" fill="#D33030"/>
	<path d="M 0.0,0.0 L 192.0,0.0 L 192.0,192.0 L 0.0,192.0 L 0.0,0.0 M 88.0,16.0 L 75.0,18.0 L 60.0,24.0 L 50.0,30.0 L 39.0,39.0 L 29.0,51.0 L 21.0,67.0 L 17.0,79.0 L 16.0,88.0 L 16.0,105.0 L 18.0,117.0 L 24.0,132.0 L 30.0,142.0 L 39.0,153.0 L 51.0,163.0 L 66.0,171.0 L 79.0,175.0 L 86.0,176.0 L 106.0,176.0 L 119.0,173.0 L 132.0,168.0 L 142.0,162.0 L 153.0,153.0 L 163.0,141.0 L 171.0,125.0 L 175.0,112.0 L 176.0,106.0 L 176.0,86.0 L 173.0,72.0 L 168.0,60.0 L 162.0,50.0 L 153.0,39.0 L 141.0,29.0 L 125.0,21.0 L 112.0,17.0 L 105.0,16.0 L 88.0,16.0" fill="#FEFDFD"/>
	<path d="M 95.0,74.0 L 104.0,74.0 L 112.0,79.0 L 117.0,85.0 L 119.0,89.0 L 119.0,100.0 L 116.0,106.0 L 109.0,112.0 L 103.0,114.0 L 95.0,114.0 L 87.0,109.0 L 84.0,105.0 L 84.0,99.0 L 76.0,101.0 L 66.0,101.0 L 68.0,99.0 L 81.0,94.0 L 91.0,89.0 L 96.0,85.0 L 102.0,85.0 L 104.0,87.0 L 104.0,94.0 L 97.0,95.0 L 90.0,97.0 L 90.0,103.0 L 91.0,106.0 L 101.0,106.0 L 108.0,103.0 L 112.0,98.0 L 112.0,89.0 L 109.0,84.0 L 103.0,81.0 L 95.0,81.0 L 90.0,84.0 L 88.0,84.0 L 87.0,89.0 L 83.0,88.0 L 83.0,82.0 L 90.0,76.0 L 95.0,74.0" fill="#FCF3F3"/>
	<path d="M 71.0,98.0 L 74.0,99.0 L 76.0,101.0 L 66.0,101.0 L 68.0,99.0 L 71.0,98.0" fill="#F7DADA"/>
</svg>
