<?xml version="1.0" ?>
<svg baseProfile="full" height="600px" version="1.1" viewBox="-19.296000000000003 -19.296000000000003 230.592 230.592" width="600px" xmlns="http://www.w3.org/2000/svg" xmlns:ev="http://www.w3.org/2001/xml-events" xmlns:xlink="http://www.w3.org/1999/xlink">
	<defs/>
	<path d="M 0.0,0.0 L 192.0,0.0 L 192.0,192.0 L 0.0,192.0 L 0.0,0.0" fill="#D33131"/>
	<path d="M 0.0,0.0 L 192.0,0.0 L 192.0,192.0 L 0.0,192.0 L 0.0,0.0 M 82.0,10.0 L 67.0,14.0 L 50.0,22.0 L 36.0,33.0 L 26.0,44.0 L 18.0,58.0 L 13.0,70.0 L 10.0,82.0 L 10.0,110.0 L 14.0,125.0 L 22.0,141.0 L 28.0,150.0 L 39.0,162.0 L 49.0,169.0 L 64.0,177.0 L 78.0,181.0 L 83.0,182.0 L 110.0,182.0 L 127.0,177.0 L 143.0,169.0 L 156.0,159.0 L 165.0,149.0 L 172.0,138.0 L 177.0,127.0 L 182.0,110.0 L 182.0,83.0 L 178.0,67.0 L 170.0,51.0 L 164.0,42.0 L 154.0,31.0 L 143.0,23.0 L 127.0,15.0 L 115.0,11.0 L 107.0,10.0 L 82.0,10.0" fill="#FEFCFC"/>
	<path d="M 86.0,35.0 L 107.0,35.0 L 115.0,37.0 L 129.0,44.0 L 137.0,51.0 L 144.0,62.0 L 148.0,74.0 L 148.0,89.0 L 146.0,99.0 L 141.0,111.0 L 134.0,121.0 L 126.0,128.0 L 116.0,133.0 L 111.0,134.0 L 101.0,134.0 L 91.0,129.0 L 87.0,125.0 L 83.0,143.0 L 75.0,163.0 L 69.0,175.0 L 68.0,175.0 L 69.0,164.0 L 73.0,138.0 L 74.0,121.0 L 74.0,96.0 L 73.0,90.0 L 73.0,76.0 L 77.0,70.0 L 81.0,68.0 L 91.0,68.0 L 97.0,71.0 L 101.0,76.0 L 101.0,84.0 L 97.0,90.0 L 91.0,92.0 L 92.0,108.0 L 96.0,116.0 L 99.0,118.0 L 112.0,118.0 L 119.0,114.0 L 124.0,106.0 L 127.0,97.0 L 128.0,91.0 L 128.0,76.0 L 124.0,65.0 L 118.0,57.0 L 110.0,52.0 L 104.0,50.0 L 89.0,50.0 L 79.0,53.0 L 70.0,59.0 L 63.0,69.0 L 59.0,81.0 L 59.0,95.0 L 60.0,99.0 L 65.0,102.0 L 67.0,104.0 L 67.0,110.0 L 63.0,114.0 L 55.0,114.0 L 49.0,109.0 L 45.0,99.0 L 44.0,94.0 L 44.0,75.0 L 47.0,65.0 L 53.0,55.0 L 57.0,50.0 L 68.0,42.0 L 79.0,37.0 L 86.0,35.0" fill="#FDFAFA"/>
	<path d="M 69.0,164.0 L 70.0,168.0 L 72.0,169.0 L 69.0,175.0 L 68.0,175.0 L 69.0,164.0" fill="#F3C9C9"/>
</svg>
