<?xml version="1.0" ?>
<svg baseProfile="full" height="600px" version="1.1" viewBox="-19.296000000000003 -19.296000000000003 230.592 230.592" width="600px" xmlns="http://www.w3.org/2000/svg" xmlns:ev="http://www.w3.org/2001/xml-events" xmlns:xlink="http://www.w3.org/1999/xlink">
	<defs/>
	<path d="M 0.0,0.0 L 192.0,0.0 L 192.0,192.0 L 0.0,192.0 L 0.0,0.0" fill="#D33131"/>
	<path d="M 0.0,0.0 L 192.0,0.0 L 192.0,192.0 L 0.0,192.0 L 0.0,0.0 M 88.0,16.0 L 75.0,18.0 L 60.0,24.0 L 50.0,30.0 L 39.0,39.0 L 29.0,51.0 L 21.0,67.0 L 17.0,79.0 L 16.0,88.0 L 16.0,105.0 L 18.0,117.0 L 24.0,132.0 L 30.0,142.0 L 39.0,153.0 L 51.0,163.0 L 66.0,171.0 L 79.0,175.0 L 86.0,176.0 L 106.0,176.0 L 119.0,173.0 L 132.0,168.0 L 142.0,162.0 L 153.0,153.0 L 163.0,141.0 L 171.0,125.0 L 175.0,112.0 L 176.0,106.0 L 176.0,86.0 L 173.0,72.0 L 168.0,60.0 L 162.0,50.0 L 153.0,39.0 L 141.0,29.0 L 125.0,21.0 L 112.0,17.0 L 105.0,16.0 L 88.0,16.0" fill="#FEFDFD"/>
	<path d="M 89.0,45.0 L 104.0,45.0 L 112.0,47.0 L 124.0,53.0 L 132.0,61.0 L 137.0,70.0 L 139.0,76.0 L 139.0,92.0 L 136.0,103.0 L 131.0,113.0 L 122.0,122.0 L 112.0,127.0 L 98.0,127.0 L 90.0,122.0 L 89.0,120.0 L 85.0,136.0 L 78.0,153.0 L 74.0,161.0 L 73.0,157.0 L 75.0,146.0 L 77.0,128.0 L 77.0,78.0 L 82.0,73.0 L 93.0,73.0 L 99.0,77.0 L 100.0,79.0 L 100.0,87.0 L 95.0,92.0 L 93.0,93.0 L 93.0,107.0 L 96.0,112.0 L 98.0,114.0 L 110.0,114.0 L 116.0,110.0 L 121.0,100.0 L 122.0,95.0 L 122.0,77.0 L 117.0,67.0 L 112.0,62.0 L 104.0,58.0 L 88.0,58.0 L 76.0,64.0 L 70.0,71.0 L 66.0,81.0 L 66.0,98.0 L 71.0,101.0 L 72.0,107.0 L 69.0,111.0 L 62.0,111.0 L 57.0,107.0 L 54.0,99.0 L 53.0,95.0 L 53.0,78.0 L 56.0,69.0 L 62.0,60.0 L 71.0,52.0 L 81.0,47.0 L 89.0,45.0" fill="#FDF9F9"/>
</svg>
