<?xml version="1.0" ?>
<svg baseProfile="full" height="600px" version="1.1" viewBox="-16.08 -16.08 192.16 192.16" width="600px" xmlns="http://www.w3.org/2000/svg" xmlns:ev="http://www.w3.org/2001/xml-events" xmlns:xlink="http://www.w3.org/1999/xlink">
	<defs/>
	<path d="M 0.0,0.0 L 160.0,0.0 L 160.0,160.0 L 0.0,160.0 L 0.0,0.0" fill="#CB4D4D"/>
	<path d="M 66.0,5.0 L 91.0,5.0 L 101.0,7.0 L 114.0,12.0 L 125.0,19.0 L 135.0,28.0 L 142.0,36.0 L 150.0,50.0 L 155.0,67.0 L 155.0,92.0 L 151.0,107.0 L 144.0,121.0 L 137.0,130.0 L 128.0,139.0 L 114.0,148.0 L 100.0,153.0 L 92.0,155.0 L 67.0,155.0 L 57.0,153.0 L 59.0,152.0 L 62.0,143.0 L 66.0,130.0 L 68.0,121.0 L 71.0,121.0 L 76.0,125.0 L 83.0,128.0 L 94.0,128.0 L 106.0,124.0 L 115.0,118.0 L 122.0,110.0 L 127.0,100.0 L 130.0,91.0 L 131.0,85.0 L 131.0,68.0 L 127.0,56.0 L 120.0,45.0 L 112.0,38.0 L 98.0,31.0 L 88.0,29.0 L 71.0,29.0 L 55.0,33.0 L 43.0,40.0 L 36.0,47.0 L 29.0,59.0 L 26.0,70.0 L 26.0,87.0 L 31.0,100.0 L 37.0,108.0 L 40.0,110.0 L 44.0,110.0 L 46.0,102.0 L 45.0,97.0 L 40.0,85.0 L 40.0,74.0 L 43.0,64.0 L 49.0,55.0 L 57.0,48.0 L 65.0,44.0 L 69.0,43.0 L 86.0,43.0 L 97.0,47.0 L 107.0,56.0 L 112.0,66.0 L 113.0,69.0 L 113.0,83.0 L 111.0,93.0 L 107.0,103.0 L 100.0,111.0 L 95.0,114.0 L 91.0,115.0 L 82.0,115.0 L 76.0,111.0 L 74.0,107.0 L 74.0,100.0 L 80.0,78.0 L 80.0,67.0 L 76.0,62.0 L 65.0,62.0 L 60.0,67.0 L 57.0,74.0 L 57.0,88.0 L 58.0,95.0 L 50.0,128.0 L 48.0,136.0 L 47.0,148.0 L 39.0,144.0 L 29.0,136.0 L 21.0,128.0 L 12.0,114.0 L 6.0,98.0 L 5.0,91.0 L 5.0,66.0 L 10.0,50.0 L 18.0,36.0 L 29.0,24.0 L 36.0,18.0 L 48.0,11.0 L 58.0,7.0 L 66.0,5.0" fill="#F58E8E"/>
	<path d="M 71.0,28.0 L 88.0,28.0 L 100.0,31.0 L 112.0,37.0 L 121.0,45.0 L 128.0,56.0 L 132.0,68.0 L 132.0,85.0 L 129.0,97.0 L 125.0,106.0 L 119.0,115.0 L 110.0,123.0 L 101.0,127.0 L 94.0,129.0 L 83.0,129.0 L 73.0,124.0 L 69.0,121.0 L 65.0,138.0 L 59.0,152.0 L 52.0,151.0 L 47.0,148.0 L 47.0,136.0 L 51.0,121.0 L 57.0,95.0 L 56.0,88.0 L 56.0,74.0 L 59.0,67.0 L 64.0,62.0 L 65.0,61.0 L 76.0,61.0 L 81.0,67.0 L 81.0,78.0 L 75.0,100.0 L 75.0,107.0 L 77.0,111.0 L 82.0,114.0 L 91.0,114.0 L 98.0,111.0 L 104.0,106.0 L 109.0,96.0 L 111.0,91.0 L 112.0,83.0 L 112.0,69.0 L 107.0,57.0 L 100.0,50.0 L 92.0,46.0 L 86.0,44.0 L 69.0,44.0 L 59.0,48.0 L 51.0,54.0 L 45.0,62.0 L 42.0,69.0 L 41.0,74.0 L 41.0,85.0 L 46.0,97.0 L 47.0,102.0 L 45.0,110.0 L 40.0,111.0 L 34.0,106.0 L 28.0,96.0 L 25.0,87.0 L 25.0,70.0 L 29.0,57.0 L 36.0,46.0 L 43.0,39.0 L 55.0,32.0 L 71.0,28.0" fill="#FEFBFB"/>
	<path d="M 159.0,90.0 L 160.0,90.0 L 160.0,160.0 L 88.0,160.0 L 88.0,159.0 L 100.0,157.0 L 116.0,151.0 L 127.0,144.0 L 137.0,135.0 L 145.0,126.0 L 151.0,116.0 L 157.0,100.0 L 159.0,90.0" fill="#FDFBFB"/>
	<path d="M 89.0,0.0 L 160.0,0.0 L 160.0,71.0 L 159.0,71.0 L 157.0,60.0 L 152.0,46.0 L 144.0,33.0 L 135.0,23.0 L 126.0,15.0 L 111.0,7.0 L 100.0,3.0 L 89.0,1.0 L 89.0,0.0" fill="#FDFBFB"/>
	<path d="M 0.0,89.0 L 2.0,93.0 L 5.0,107.0 L 13.0,123.0 L 21.0,133.0 L 30.0,142.0 L 44.0,151.0 L 60.0,157.0 L 71.0,159.0 L 71.0,160.0 L 0.0,160.0 L 0.0,89.0" fill="#FDFBFB"/>
	<path d="M 0.0,0.0 L 70.0,0.0 L 70.0,1.0 L 54.0,5.0 L 42.0,10.0 L 29.0,19.0 L 18.0,30.0 L 11.0,41.0 L 6.0,51.0 L 2.0,64.0 L 1.0,70.0 L 0.0,70.0 L 0.0,0.0" fill="#FEFCFC"/>
</svg>
