<?xml version="1.0" ?>
<svg baseProfile="full" height="600px" version="1.1" viewBox="-19.296000000000003 -19.296000000000003 230.592 230.592" width="600px" xmlns="http://www.w3.org/2000/svg" xmlns:ev="http://www.w3.org/2001/xml-events" xmlns:xlink="http://www.w3.org/1999/xlink">
	<defs/>
	<path d="M 0.0,0.0 L 192.0,0.0 L 192.0,192.0 L 0.0,192.0 L 0.0,0.0" fill="#D33131"/>
	<path d="M 0.0,0.0 L 192.0,0.0 L 192.0,192.0 L 0.0,192.0 L 0.0,0.0 M 88.0,16.0 L 75.0,18.0 L 60.0,24.0 L 50.0,30.0 L 39.0,39.0 L 29.0,51.0 L 21.0,67.0 L 17.0,79.0 L 16.0,88.0 L 16.0,105.0 L 18.0,117.0 L 24.0,132.0 L 30.0,142.0 L 39.0,153.0 L 51.0,163.0 L 66.0,171.0 L 79.0,175.0 L 86.0,176.0 L 106.0,176.0 L 119.0,173.0 L 132.0,168.0 L 142.0,162.0 L 153.0,153.0 L 163.0,141.0 L 171.0,125.0 L 175.0,112.0 L 176.0,106.0 L 176.0,86.0 L 173.0,72.0 L 168.0,60.0 L 162.0,50.0 L 153.0,39.0 L 141.0,29.0 L 125.0,21.0 L 112.0,17.0 L 105.0,16.0 L 88.0,16.0" fill="#FEFDFD"/>
	<path d="M 89.0,44.0 L 106.0,44.0 L 119.0,49.0 L 128.0,55.0 L 135.0,64.0 L 139.0,73.0 L 140.0,80.0 L 140.0,91.0 L 138.0,100.0 L 134.0,109.0 L 128.0,117.0 L 120.0,124.0 L 109.0,128.0 L 99.0,128.0 L 91.0,123.0 L 89.0,121.0 L 85.0,136.0 L 79.0,151.0 L 74.0,161.0 L 73.0,161.0 L 73.0,154.0 L 75.0,144.0 L 77.0,122.0 L 77.0,98.0 L 76.0,88.0 L 76.0,79.0 L 81.0,73.0 L 83.0,72.0 L 92.0,72.0 L 98.0,76.0 L 100.0,79.0 L 99.0,88.0 L 95.0,92.0 L 92.0,92.0 L 93.0,107.0 L 96.0,113.0 L 100.0,115.0 L 108.0,115.0 L 114.0,112.0 L 119.0,106.0 L 122.0,98.0 L 123.0,90.0 L 123.0,80.0 L 120.0,71.0 L 115.0,63.0 L 106.0,58.0 L 103.0,57.0 L 89.0,57.0 L 79.0,61.0 L 71.0,68.0 L 66.0,79.0 L 65.0,82.0 L 65.0,99.0 L 70.0,101.0 L 71.0,102.0 L 71.0,108.0 L 67.0,112.0 L 62.0,112.0 L 57.0,108.0 L 53.0,99.0 L 52.0,92.0 L 52.0,77.0 L 56.0,67.0 L 62.0,58.0 L 71.0,51.0 L 81.0,46.0 L 89.0,44.0" fill="#FDF9F9"/>
</svg>
