<?xml version="1.0" ?>
<svg baseProfile="full" height="600px" version="1.1" viewBox="-19.296000000000003 -19.296000000000003 230.592 230.592" width="600px" xmlns="http://www.w3.org/2000/svg" xmlns:ev="http://www.w3.org/2001/xml-events" xmlns:xlink="http://www.w3.org/1999/xlink">
	<defs/>
	<path d="M 0.0,0.0 L 192.0,0.0 L 192.0,192.0 L 0.0,192.0 L 0.0,0.0" fill="#D33131"/>
	<path d="M 0.0,0.0 L 192.0,0.0 L 192.0,192.0 L 0.0,192.0 L 0.0,0.0 M 88.0,16.0 L 75.0,18.0 L 60.0,24.0 L 50.0,30.0 L 39.0,39.0 L 29.0,51.0 L 21.0,67.0 L 17.0,79.0 L 16.0,88.0 L 16.0,105.0 L 18.0,117.0 L 24.0,132.0 L 30.0,142.0 L 39.0,153.0 L 51.0,163.0 L 66.0,171.0 L 79.0,175.0 L 86.0,176.0 L 106.0,176.0 L 119.0,173.0 L 132.0,168.0 L 142.0,162.0 L 153.0,153.0 L 163.0,141.0 L 171.0,125.0 L 175.0,112.0 L 176.0,106.0 L 176.0,86.0 L 173.0,72.0 L 168.0,60.0 L 162.0,50.0 L 153.0,39.0 L 141.0,29.0 L 125.0,21.0 L 112.0,17.0 L 105.0,16.0 L 88.0,16.0" fill="#FEFDFD"/>
	<path d="M 89.0,46.0 L 110.0,46.0 L 126.0,53.0 L 136.0,62.0 L 143.0,72.0 L 147.0,84.0 L 147.0,96.0 L 142.0,109.0 L 138.0,115.0 L 133.0,121.0 L 123.0,128.0 L 113.0,132.0 L 108.0,133.0 L 95.0,133.0 L 85.0,129.0 L 79.0,124.0 L 75.0,117.0 L 75.0,109.0 L 73.0,109.0 L 72.0,112.0 L 59.0,121.0 L 36.0,132.0 L 34.0,131.0 L 47.0,120.0 L 59.0,109.0 L 75.0,93.0 L 82.0,83.0 L 88.0,74.0 L 93.0,70.0 L 100.0,69.0 L 107.0,73.0 L 110.0,78.0 L 110.0,86.0 L 105.0,91.0 L 103.0,92.0 L 95.0,92.0 L 88.0,100.0 L 86.0,103.0 L 86.0,112.0 L 91.0,117.0 L 94.0,119.0 L 105.0,119.0 L 115.0,114.0 L 124.0,106.0 L 129.0,97.0 L 131.0,92.0 L 131.0,79.0 L 126.0,70.0 L 118.0,63.0 L 109.0,59.0 L 94.0,59.0 L 82.0,65.0 L 75.0,72.0 L 72.0,77.0 L 73.0,85.0 L 69.0,89.0 L 63.0,89.0 L 60.0,86.0 L 59.0,83.0 L 59.0,76.0 L 65.0,64.0 L 75.0,53.0 L 89.0,46.0" fill="#FDF8F8"/>
</svg>
