<?xml version="1.0" ?>
<svg baseProfile="full" height="600px" version="1.1" viewBox="-19.296000000000003 -19.296000000000003 230.592 230.592" width="600px" xmlns="http://www.w3.org/2000/svg" xmlns:ev="http://www.w3.org/2001/xml-events" xmlns:xlink="http://www.w3.org/1999/xlink">
	<defs/>
	<path d="M 0.0,0.0 L 192.0,0.0 L 192.0,192.0 L 0.0,192.0 L 0.0,0.0" fill="#D33131"/>
	<path d="M 0.0,0.0 L 192.0,0.0 L 192.0,192.0 L 0.0,192.0 L 0.0,0.0 M 84.0,14.0 L 68.0,18.0 L 52.0,26.0 L 43.0,33.0 L 35.0,40.0 L 26.0,52.0 L 18.0,68.0 L 14.0,85.0 L 14.0,107.0 L 18.0,123.0 L 23.0,134.0 L 30.0,146.0 L 40.0,157.0 L 52.0,166.0 L 68.0,174.0 L 85.0,178.0 L 104.0,178.0 L 121.0,175.0 L 135.0,169.0 L 147.0,161.0 L 157.0,152.0 L 166.0,140.0 L 173.0,126.0 L 176.0,116.0 L 178.0,108.0 L 178.0,85.0 L 174.0,68.0 L 166.0,52.0 L 159.0,43.0 L 152.0,35.0 L 140.0,26.0 L 126.0,19.0 L 117.0,16.0 L 107.0,14.0 L 84.0,14.0" fill="#FEFDFD"/>
	<path d="M 90.0,44.0 L 104.0,44.0 L 120.0,49.0 L 131.0,57.0 L 138.0,67.0 L 141.0,76.0 L 142.0,80.0 L 142.0,91.0 L 138.0,104.0 L 132.0,114.0 L 127.0,120.0 L 118.0,126.0 L 110.0,129.0 L 97.0,129.0 L 89.0,124.0 L 85.0,119.0 L 80.0,133.0 L 71.0,149.0 L 64.0,159.0 L 63.0,156.0 L 70.0,133.0 L 73.0,121.0 L 77.0,98.0 L 78.0,78.0 L 83.0,72.0 L 85.0,71.0 L 94.0,71.0 L 100.0,75.0 L 102.0,78.0 L 101.0,87.0 L 98.0,91.0 L 92.0,92.0 L 92.0,110.0 L 97.0,115.0 L 99.0,116.0 L 109.0,116.0 L 115.0,112.0 L 120.0,105.0 L 124.0,93.0 L 124.0,76.0 L 119.0,66.0 L 112.0,60.0 L 101.0,57.0 L 90.0,57.0 L 80.0,61.0 L 74.0,66.0 L 69.0,74.0 L 66.0,82.0 L 66.0,94.0 L 70.0,98.0 L 70.0,104.0 L 67.0,107.0 L 61.0,107.0 L 56.0,103.0 L 53.0,95.0 L 53.0,80.0 L 57.0,67.0 L 64.0,57.0 L 73.0,50.0 L 82.0,46.0 L 90.0,44.0" fill="#FDF8F8"/>
</svg>
