<?xml version="1.0" ?>
<svg baseProfile="full" height="600px" version="1.1" viewBox="-20.1 -20.1 240.2 240.2" width="600px" xmlns="http://www.w3.org/2000/svg" xmlns:ev="http://www.w3.org/2001/xml-events" xmlns:xlink="http://www.w3.org/1999/xlink">
	<defs/>
	<path d="M 0.0,0.0 L 200.0,0.0 L 200.0,200.0 L 0.0,200.0 L 0.0,0.0" fill="#FCFCFC"/>
	<path d="M 0.0,0.0 L 200.0,0.0 L 200.0,200.0 L 0.0,200.0 L 0.0,0.0 M 94.0,9.0 L 81.0,11.0 L 69.0,14.0 L 53.0,22.0 L 42.0,30.0 L 32.0,39.0 L 22.0,53.0 L 14.0,69.0 L 10.0,84.0 L 9.0,94.0 L 9.0,109.0 L 14.0,130.0 L 20.0,144.0 L 29.0,157.0 L 39.0,168.0 L 53.0,178.0 L 69.0,186.0 L 84.0,190.0 L 94.0,191.0 L 106.0,191.0 L 123.0,188.0 L 138.0,183.0 L 152.0,175.0 L 165.0,164.0 L 175.0,152.0 L 183.0,138.0 L 189.0,120.0 L 191.0,106.0 L 191.0,94.0 L 189.0,81.0 L 186.0,69.0 L 178.0,53.0 L 170.0,42.0 L 161.0,32.0 L 147.0,22.0 L 133.0,15.0 L 114.0,10.0 L 109.0,9.0 L 94.0,9.0" fill="#FBFBFB"/>
	<path d="M 95.0,39.0 L 108.0,39.0 L 122.0,42.0 L 134.0,48.0 L 144.0,57.0 L 151.0,71.0 L 152.0,75.0 L 152.0,92.0 L 149.0,105.0 L 142.0,118.0 L 133.0,127.0 L 123.0,132.0 L 119.0,133.0 L 103.0,133.0 L 95.0,129.0 L 92.0,126.0 L 85.0,150.0 L 77.0,164.0 L 73.0,169.0 L 70.0,169.0 L 69.0,162.0 L 69.0,145.0 L 75.0,119.0 L 79.0,102.0 L 78.0,95.0 L 78.0,81.0 L 82.0,73.0 L 87.0,69.0 L 96.0,68.0 L 102.0,72.0 L 103.0,74.0 L 103.0,86.0 L 98.0,103.0 L 98.0,113.0 L 99.0,117.0 L 104.0,119.0 L 114.0,119.0 L 120.0,115.0 L 125.0,109.0 L 129.0,100.0 L 132.0,86.0 L 132.0,77.0 L 129.0,67.0 L 125.0,62.0 L 125.0,60.0 L 121.0,58.0 L 110.0,54.0 L 91.0,54.0 L 79.0,59.0 L 72.0,65.0 L 65.0,79.0 L 65.0,95.0 L 69.0,103.0 L 70.0,107.0 L 67.0,115.0 L 61.0,114.0 L 54.0,108.0 L 49.0,98.0 L 48.0,94.0 L 48.0,78.0 L 53.0,65.0 L 61.0,55.0 L 71.0,47.0 L 82.0,42.0 L 95.0,39.0" fill="#050505"/>
	<path d="M 86.0,1.0 L 112.0,1.0 L 127.0,4.0 L 143.0,10.0 L 154.0,16.0 L 167.0,26.0 L 176.0,35.0 L 186.0,49.0 L 194.0,66.0 L 198.0,81.0 L 199.0,86.0 L 199.0,115.0 L 193.0,136.0 L 185.0,152.0 L 178.0,162.0 L 169.0,172.0 L 160.0,180.0 L 147.0,188.0 L 136.0,193.0 L 123.0,197.0 L 115.0,199.0 L 86.0,199.0 L 69.0,195.0 L 53.0,188.0 L 39.0,179.0 L 27.0,168.0 L 18.0,157.0 L 10.0,143.0 L 4.0,127.0 L 1.0,112.0 L 1.0,86.0 L 5.0,69.0 L 10.0,57.0 L 16.0,46.0 L 26.0,33.0 L 35.0,24.0 L 49.0,14.0 L 66.0,6.0 L 81.0,2.0 L 86.0,1.0 M 94.0,9.0 L 81.0,11.0 L 69.0,14.0 L 53.0,22.0 L 42.0,30.0 L 32.0,39.0 L 22.0,53.0 L 14.0,69.0 L 10.0,84.0 L 9.0,94.0 L 9.0,109.0 L 14.0,130.0 L 20.0,144.0 L 29.0,157.0 L 39.0,168.0 L 53.0,178.0 L 69.0,186.0 L 84.0,190.0 L 94.0,191.0 L 106.0,191.0 L 123.0,188.0 L 138.0,183.0 L 152.0,175.0 L 165.0,164.0 L 175.0,152.0 L 183.0,138.0 L 189.0,120.0 L 191.0,106.0 L 191.0,94.0 L 189.0,81.0 L 186.0,69.0 L 178.0,53.0 L 170.0,42.0 L 161.0,32.0 L 147.0,22.0 L 133.0,15.0 L 114.0,10.0 L 109.0,9.0 L 94.0,9.0" fill="#060606"/>
</svg>
