<?xml version="1.0" ?>
<svg baseProfile="full" height="600px" version="1.1" viewBox="-9.648000000000001 -9.648000000000001 115.296 115.296" width="600px" xmlns="http://www.w3.org/2000/svg" xmlns:ev="http://www.w3.org/2001/xml-events" xmlns:xlink="http://www.w3.org/1999/xlink">
	<defs/>
	<path d="M 0.0,0.0 L 96.0,0.0 L 96.0,96.0 L 0.0,96.0 L 0.0,0.0" fill="#FAFAFA"/>
	<path d="M 40.0,8.0 L 53.0,8.0 L 64.0,11.0 L 74.0,17.0 L 82.0,26.0 L 86.0,34.0 L 88.0,40.0 L 88.0,54.0 L 86.0,62.0 L 80.0,73.0 L 73.0,80.0 L 62.0,86.0 L 54.0,88.0 L 40.0,88.0 L 37.0,86.0 L 39.0,80.0 L 43.0,67.0 L 47.0,69.0 L 49.0,70.0 L 58.0,70.0 L 67.0,64.0 L 72.0,55.0 L 72.0,38.0 L 67.0,30.0 L 61.0,26.0 L 56.0,24.0 L 41.0,24.0 L 31.0,29.0 L 26.0,35.0 L 24.0,39.0 L 24.0,53.0 L 27.0,59.0 L 32.0,63.0 L 32.0,56.0 L 30.0,51.0 L 30.0,42.0 L 35.0,34.0 L 42.0,30.0 L 53.0,30.0 L 61.0,35.0 L 64.0,40.0 L 64.0,53.0 L 60.0,61.0 L 56.0,64.0 L 49.0,64.0 L 46.0,61.0 L 47.0,52.0 L 48.0,48.0 L 48.0,40.0 L 42.0,39.0 L 38.0,44.0 L 38.0,56.0 L 34.0,73.0 L 33.0,85.0 L 28.0,83.0 L 20.0,77.0 L 14.0,70.0 L 10.0,62.0 L 8.0,53.0 L 8.0,40.0 L 12.0,29.0 L 19.0,20.0 L 26.0,14.0 L 34.0,10.0 L 40.0,8.0" fill="#050505"/>
</svg>
