<?xml version="1.0" ?>
<svg baseProfile="full" height="600px" version="1.1" viewBox="-19.296000000000003 -19.296000000000003 230.592 230.592" width="600px" xmlns="http://www.w3.org/2000/svg" xmlns:ev="http://www.w3.org/2001/xml-events" xmlns:xlink="http://www.w3.org/1999/xlink">
	<defs/>
	<path d="M 0.0,0.0 L 192.0,0.0 L 192.0,192.0 L 0.0,192.0 L 0.0,0.0" fill="#D33131"/>
	<path d="M 0.0,0.0 L 192.0,0.0 L 192.0,192.0 L 0.0,192.0 L 0.0,0.0 M 88.0,16.0 L 75.0,18.0 L 60.0,24.0 L 50.0,30.0 L 39.0,39.0 L 29.0,51.0 L 21.0,67.0 L 17.0,79.0 L 16.0,88.0 L 16.0,105.0 L 18.0,117.0 L 24.0,132.0 L 30.0,142.0 L 39.0,153.0 L 51.0,163.0 L 66.0,171.0 L 79.0,175.0 L 86.0,176.0 L 106.0,176.0 L 119.0,173.0 L 132.0,168.0 L 142.0,162.0 L 153.0,153.0 L 163.0,141.0 L 171.0,125.0 L 175.0,112.0 L 176.0,106.0 L 176.0,86.0 L 173.0,72.0 L 168.0,60.0 L 162.0,50.0 L 153.0,39.0 L 141.0,29.0 L 125.0,21.0 L 112.0,17.0 L 105.0,16.0 L 88.0,16.0" fill="#FEFDFD"/>
	<path d="M 90.0,39.0 L 103.0,39.0 L 113.0,41.0 L 127.0,48.0 L 134.0,54.0 L 141.0,65.0 L 144.0,74.0 L 144.0,92.0 L 142.0,100.0 L 137.0,112.0 L 126.0,124.0 L 120.0,128.0 L 110.0,131.0 L 101.0,131.0 L 94.0,128.0 L 88.0,123.0 L 84.0,141.0 L 79.0,153.0 L 71.0,169.0 L 70.0,165.0 L 74.0,141.0 L 75.0,130.0 L 75.0,93.0 L 74.0,88.0 L 74.0,79.0 L 78.0,72.0 L 82.0,70.0 L 92.0,70.0 L 98.0,74.0 L 100.0,76.0 L 100.0,86.0 L 96.0,91.0 L 92.0,92.0 L 93.0,109.0 L 96.0,114.0 L 101.0,117.0 L 110.0,117.0 L 118.0,112.0 L 123.0,102.0 L 125.0,95.0 L 125.0,75.0 L 121.0,66.0 L 118.0,62.0 L 118.0,60.0 L 114.0,58.0 L 109.0,55.0 L 103.0,53.0 L 90.0,53.0 L 79.0,57.0 L 73.0,61.0 L 67.0,68.0 L 62.0,81.0 L 62.0,99.0 L 67.0,101.0 L 69.0,103.0 L 69.0,109.0 L 65.0,113.0 L 58.0,113.0 L 53.0,109.0 L 49.0,99.0 L 48.0,96.0 L 48.0,75.0 L 53.0,62.0 L 62.0,52.0 L 70.0,46.0 L 81.0,41.0 L 90.0,39.0" fill="#FDF9F9"/>
</svg>
