<?xml version="1.0" ?>
<svg baseProfile="full" height="600px" version="1.1" viewBox="-9.648000000000001 -9.648000000000001 115.296 115.296" width="600px" xmlns="http://www.w3.org/2000/svg" xmlns:ev="http://www.w3.org/2001/xml-events" xmlns:xlink="http://www.w3.org/1999/xlink">
	<defs/>
	<path d="M 0.0,0.0 L 96.0,0.0 L 96.0,96.0 L 0.0,96.0 L 0.0,0.0" fill="#FAFAFA"/>
	<path d="M 38.0,6.0 L 57.0,6.0 L 70.0,11.0 L 80.0,20.0 L 86.0,28.0 L 90.0,38.0 L 90.0,57.0 L 85.0,70.0 L 76.0,80.0 L 68.0,86.0 L 57.0,90.0 L 38.0,90.0 L 37.0,87.0 L 41.0,74.0 L 42.0,70.0 L 46.0,72.0 L 48.0,73.0 L 59.0,73.0 L 67.0,69.0 L 73.0,62.0 L 76.0,55.0 L 76.0,39.0 L 73.0,32.0 L 67.0,25.0 L 59.0,21.0 L 55.0,20.0 L 41.0,20.0 L 31.0,24.0 L 25.0,29.0 L 21.0,36.0 L 20.0,40.0 L 20.0,53.0 L 24.0,61.0 L 29.0,65.0 L 30.0,58.0 L 27.0,52.0 L 27.0,42.0 L 31.0,34.0 L 39.0,28.0 L 42.0,27.0 L 52.0,27.0 L 61.0,31.0 L 65.0,36.0 L 67.0,40.0 L 67.0,53.0 L 62.0,63.0 L 56.0,67.0 L 50.0,67.0 L 46.0,64.0 L 46.0,55.0 L 48.0,50.0 L 48.0,39.0 L 47.0,38.0 L 40.0,38.0 L 36.0,44.0 L 36.0,59.0 L 32.0,76.0 L 31.0,87.0 L 23.0,83.0 L 13.0,73.0 L 8.0,63.0 L 6.0,57.0 L 6.0,38.0 L 11.0,26.0 L 20.0,16.0 L 28.0,10.0 L 38.0,6.0" fill="#060606"/>
</svg>
