<?xml version="1.0" ?>
<svg baseProfile="full" height="600px" version="1.1" viewBox="-19.296000000000003 -19.296000000000003 230.592 230.592" width="600px" xmlns="http://www.w3.org/2000/svg" xmlns:ev="http://www.w3.org/2001/xml-events" xmlns:xlink="http://www.w3.org/1999/xlink">
	<defs/>
	<path d="M 0.0,0.0 L 192.0,0.0 L 192.0,192.0 L 0.0,192.0 L 0.0,0.0" fill="#FDFDFE"/>
	<path d="M 88.0,18.0 L 101.0,18.0 L 110.0,20.0 L 122.0,26.0 L 131.0,35.0 L 138.0,49.0 L 139.0,52.0 L 139.0,68.0 L 134.0,83.0 L 126.0,99.0 L 114.0,119.0 L 103.0,135.0 L 97.0,143.0 L 93.0,141.0 L 73.0,111.0 L 63.0,93.0 L 56.0,78.0 L 53.0,68.0 L 53.0,52.0 L 58.0,40.0 L 64.0,32.0 L 73.0,24.0 L 84.0,19.0 L 88.0,18.0" fill="#FE3F03"/>
	<path d="M 117.0,112.0 L 118.0,114.0 L 130.0,115.0 L 145.0,118.0 L 161.0,124.0 L 171.0,130.0 L 176.0,136.0 L 177.0,138.0 L 177.0,147.0 L 171.0,154.0 L 161.0,160.0 L 149.0,165.0 L 126.0,170.0 L 117.0,171.0 L 74.0,171.0 L 50.0,167.0 L 32.0,161.0 L 21.0,154.0 L 16.0,148.0 L 15.0,146.0 L 15.0,139.0 L 19.0,132.0 L 27.0,126.0 L 37.0,121.0 L 56.0,116.0 L 66.0,114.0 L 76.0,114.0 L 90.0,135.0 L 95.0,142.0 L 98.0,141.0 L 116.0,114.0 L 117.0,112.0" fill="#D0E7FB"/>
	<path d="M 89.0,43.0 L 102.0,43.0 L 110.0,48.0 L 115.0,56.0 L 115.0,69.0 L 112.0,75.0 L 105.0,81.0 L 100.0,83.0 L 91.0,83.0 L 84.0,79.0 L 78.0,72.0 L 76.0,66.0 L 76.0,58.0 L 80.0,50.0 L 87.0,44.0 L 89.0,43.0" fill="#FDFBFB"/>
</svg>
