<?xml version="1.0" ?>
<svg baseProfile="full" height="600px" version="1.1" viewBox="-20.1 -20.1 240.2 240.2" width="600px" xmlns="http://www.w3.org/2000/svg" xmlns:ev="http://www.w3.org/2001/xml-events" xmlns:xlink="http://www.w3.org/1999/xlink">
	<defs/>
	<path d="M 0.0,0.0 L 200.0,0.0 L 200.0,200.0 L 0.0,200.0 L 0.0,0.0" fill="#FCFCFC"/>
	<path d="M 89.0,5.0 L 109.0,5.0 L 117.0,7.0 L 126.0,11.0 L 135.0,17.0 L 142.0,24.0 L 148.0,34.0 L 152.0,45.0 L 153.0,50.0 L 153.0,61.0 L 149.0,81.0 L 143.0,98.0 L 132.0,121.0 L 121.0,139.0 L 109.0,156.0 L 103.0,164.0 L 97.0,164.0 L 85.0,148.0 L 75.0,133.0 L 63.0,112.0 L 54.0,91.0 L 49.0,75.0 L 47.0,62.0 L 47.0,51.0 L 50.0,38.0 L 56.0,27.0 L 65.0,17.0 L 75.0,10.0 L 89.0,5.0" fill="#FBFBFB"/>
	<path d="M 89.0,5.0 L 109.0,5.0 L 117.0,7.0 L 126.0,11.0 L 135.0,17.0 L 142.0,24.0 L 148.0,34.0 L 152.0,45.0 L 153.0,50.0 L 153.0,61.0 L 149.0,81.0 L 143.0,98.0 L 132.0,121.0 L 121.0,139.0 L 109.0,156.0 L 103.0,164.0 L 97.0,164.0 L 85.0,148.0 L 75.0,133.0 L 63.0,112.0 L 54.0,91.0 L 49.0,75.0 L 47.0,62.0 L 47.0,51.0 L 50.0,38.0 L 56.0,27.0 L 65.0,17.0 L 75.0,10.0 L 89.0,5.0 M 92.0,13.0 L 82.0,16.0 L 73.0,21.0 L 65.0,28.0 L 58.0,40.0 L 56.0,46.0 L 56.0,67.0 L 60.0,83.0 L 66.0,99.0 L 79.0,124.0 L 93.0,145.0 L 99.0,153.0 L 102.0,152.0 L 118.0,128.0 L 130.0,107.0 L 139.0,86.0 L 143.0,73.0 L 144.0,67.0 L 144.0,46.0 L 139.0,34.0 L 131.0,24.0 L 122.0,18.0 L 112.0,14.0 L 107.0,13.0 L 92.0,13.0" fill="#090909"/>
	<path d="M 76.0,145.0 L 80.0,146.0 L 84.0,151.0 L 84.0,153.0 L 63.0,156.0 L 48.0,160.0 L 40.0,164.0 L 37.0,167.0 L 39.0,171.0 L 45.0,175.0 L 55.0,178.0 L 68.0,181.0 L 85.0,183.0 L 117.0,183.0 L 141.0,179.0 L 154.0,174.0 L 159.0,170.0 L 158.0,165.0 L 152.0,161.0 L 137.0,156.0 L 116.0,153.0 L 118.0,148.0 L 120.0,145.0 L 131.0,146.0 L 143.0,148.0 L 156.0,153.0 L 164.0,159.0 L 168.0,165.0 L 167.0,173.0 L 161.0,180.0 L 151.0,185.0 L 138.0,189.0 L 116.0,192.0 L 86.0,192.0 L 60.0,189.0 L 45.0,185.0 L 34.0,179.0 L 29.0,173.0 L 28.0,165.0 L 33.0,158.0 L 43.0,152.0 L 53.0,149.0 L 66.0,146.0 L 76.0,145.0" fill="#090909"/>
	<path d="M 95.0,26.0 L 105.0,26.0 L 115.0,31.0 L 122.0,39.0 L 124.0,44.0 L 124.0,56.0 L 119.0,66.0 L 112.0,72.0 L 103.0,75.0 L 96.0,75.0 L 86.0,71.0 L 79.0,63.0 L 76.0,57.0 L 76.0,44.0 L 80.0,36.0 L 88.0,29.0 L 95.0,26.0" fill="#090909"/>
	<path d="M 96.0,34.0 L 103.0,34.0 L 111.0,38.0 L 115.0,43.0 L 116.0,45.0 L 116.0,55.0 L 113.0,61.0 L 108.0,65.0 L 104.0,67.0 L 96.0,67.0 L 88.0,62.0 L 85.0,58.0 L 84.0,55.0 L 84.0,45.0 L 88.0,39.0 L 93.0,35.0 L 96.0,34.0" fill="#F8F8F8"/>
</svg>
