<?xml version="1.0" ?>
<svg baseProfile="full" height="600px" version="1.1" viewBox="-19.296000000000003 -19.296000000000003 230.592 230.592" width="600px" xmlns="http://www.w3.org/2000/svg" xmlns:ev="http://www.w3.org/2001/xml-events" xmlns:xlink="http://www.w3.org/1999/xlink">
	<defs/>
	<path d="M 0.0,0.0 L 192.0,0.0 L 192.0,192.0 L 0.0,192.0 L 0.0,0.0" fill="#FDFDFE"/>
	<path d="M 90.0,4.0 L 101.0,4.0 L 111.0,7.0 L 119.0,12.0 L 124.0,17.0 L 131.0,26.0 L 134.0,33.0 L 136.0,42.0 L 136.0,56.0 L 132.0,69.0 L 125.0,86.0 L 113.0,109.0 L 99.0,132.0 L 97.0,135.0 L 95.0,135.0 L 78.0,107.0 L 65.0,82.0 L 57.0,61.0 L 56.0,55.0 L 56.0,42.0 L 59.0,31.0 L 65.0,20.0 L 70.0,14.0 L 80.0,7.0 L 90.0,4.0" fill="#FE3F02"/>
	<path d="M 71.0,117.0 L 85.0,117.0 L 95.0,133.0 L 95.0,135.0 L 97.0,135.0 L 99.0,130.0 L 107.0,117.0 L 119.0,117.0 L 137.0,120.0 L 154.0,126.0 L 163.0,132.0 L 167.0,136.0 L 168.0,139.0 L 168.0,146.0 L 161.0,154.0 L 147.0,161.0 L 133.0,165.0 L 112.0,168.0 L 79.0,168.0 L 60.0,165.0 L 45.0,161.0 L 31.0,154.0 L 25.0,147.0 L 24.0,145.0 L 24.0,138.0 L 31.0,130.0 L 45.0,123.0 L 64.0,118.0 L 71.0,117.0" fill="#92CAF7"/>
	<path d="M 90.0,30.0 L 101.0,30.0 L 108.0,34.0 L 114.0,44.0 L 114.0,57.0 L 110.0,65.0 L 104.0,70.0 L 99.0,72.0 L 92.0,72.0 L 85.0,68.0 L 80.0,62.0 L 78.0,57.0 L 78.0,44.0 L 83.0,35.0 L 90.0,30.0" fill="#FDFBFA"/>
</svg>
