<?xml version="1.0" ?>
<svg baseProfile="full" height="600px" version="1.1" viewBox="-20.1 -20.1 240.2 240.2" width="600px" xmlns="http://www.w3.org/2000/svg" xmlns:ev="http://www.w3.org/2001/xml-events" xmlns:xlink="http://www.w3.org/1999/xlink">
	<defs/>
	<path d="M 0.0,0.0 L 200.0,0.0 L 200.0,200.0 L 0.0,200.0 L 0.0,0.0" fill="#FCFCFC"/>
	<path d="M 90.0,8.0 L 107.0,8.0 L 116.0,10.0 L 128.0,15.0 L 137.0,22.0 L 144.0,29.0 L 151.0,41.0 L 154.0,50.0 L 154.0,75.0 L 150.0,92.0 L 141.0,116.0 L 131.0,136.0 L 121.0,153.0 L 107.0,174.0 L 102.0,180.0 L 97.0,179.0 L 90.0,170.0 L 79.0,153.0 L 69.0,136.0 L 61.0,120.0 L 53.0,101.0 L 48.0,86.0 L 46.0,75.0 L 46.0,50.0 L 51.0,37.0 L 58.0,27.0 L 66.0,19.0 L 76.0,13.0 L 86.0,9.0 L 90.0,8.0" fill="#FBFBFB"/>
	<path d="M 90.0,8.0 L 107.0,8.0 L 116.0,10.0 L 128.0,15.0 L 137.0,22.0 L 144.0,29.0 L 151.0,41.0 L 154.0,50.0 L 154.0,75.0 L 150.0,92.0 L 141.0,116.0 L 131.0,136.0 L 121.0,153.0 L 107.0,174.0 L 102.0,180.0 L 97.0,179.0 L 90.0,170.0 L 79.0,153.0 L 69.0,136.0 L 61.0,120.0 L 53.0,101.0 L 48.0,86.0 L 46.0,75.0 L 46.0,50.0 L 51.0,37.0 L 58.0,27.0 L 66.0,19.0 L 76.0,13.0 L 86.0,9.0 L 90.0,8.0 M 90.0,17.0 L 81.0,20.0 L 71.0,26.0 L 62.0,35.0 L 56.0,47.0 L 54.0,53.0 L 54.0,74.0 L 61.0,99.0 L 69.0,117.0 L 82.0,142.0 L 96.0,164.0 L 99.0,168.0 L 101.0,168.0 L 112.0,151.0 L 123.0,132.0 L 132.0,115.0 L 140.0,95.0 L 145.0,78.0 L 146.0,71.0 L 146.0,53.0 L 142.0,42.0 L 136.0,33.0 L 128.0,25.0 L 114.0,18.0 L 111.0,17.0 L 90.0,17.0" fill="#070707"/>
	<path d="M 97.0,37.0 L 107.0,38.0 L 115.0,42.0 L 123.0,51.0 L 125.0,56.0 L 125.0,68.0 L 120.0,78.0 L 112.0,85.0 L 103.0,88.0 L 92.0,87.0 L 84.0,82.0 L 77.0,74.0 L 75.0,68.0 L 75.0,56.0 L 79.0,48.0 L 86.0,41.0 L 92.0,38.0 L 97.0,37.0" fill="#080808"/>
	<path d="M 67.0,147.0 L 72.0,148.0 L 75.0,153.0 L 75.0,155.0 L 58.0,158.0 L 47.0,162.0 L 41.0,166.0 L 41.0,170.0 L 49.0,175.0 L 62.0,179.0 L 83.0,182.0 L 114.0,182.0 L 135.0,179.0 L 148.0,175.0 L 156.0,170.0 L 155.0,165.0 L 144.0,159.0 L 124.0,155.0 L 129.0,147.0 L 141.0,149.0 L 153.0,153.0 L 161.0,159.0 L 165.0,164.0 L 165.0,171.0 L 161.0,177.0 L 153.0,183.0 L 138.0,188.0 L 126.0,190.0 L 113.0,191.0 L 82.0,191.0 L 60.0,188.0 L 44.0,183.0 L 34.0,176.0 L 31.0,170.0 L 32.0,163.0 L 36.0,158.0 L 46.0,152.0 L 60.0,148.0 L 67.0,147.0" fill="#2E2E2E"/>
	<path d="M 94.0,46.0 L 105.0,46.0 L 112.0,50.0 L 117.0,58.0 L 117.0,66.0 L 113.0,74.0 L 108.0,78.0 L 105.0,79.0 L 94.0,79.0 L 86.0,73.0 L 83.0,67.0 L 83.0,58.0 L 88.0,50.0 L 94.0,46.0" fill="#F9F9F9"/>
</svg>
