<?xml version="1.0" ?>
<svg baseProfile="full" height="600px" version="1.1" viewBox="-20.1 -20.1 240.2 240.2" width="600px" xmlns="http://www.w3.org/2000/svg" xmlns:ev="http://www.w3.org/2001/xml-events" xmlns:xlink="http://www.w3.org/1999/xlink">
	<defs/>
	<path d="M 0.0,0.0 L 200.0,0.0 L 200.0,200.0 L 0.0,200.0 L 0.0,0.0" fill="#FCFCFC"/>
	<path d="M 94.0,12.0 L 109.0,12.0 L 122.0,16.0 L 132.0,21.0 L 142.0,30.0 L 148.0,38.0 L 153.0,49.0 L 154.0,53.0 L 154.0,77.0 L 151.0,90.0 L 144.0,111.0 L 132.0,136.0 L 120.0,157.0 L 105.0,179.0 L 102.0,182.0 L 97.0,181.0 L 90.0,172.0 L 80.0,157.0 L 69.0,138.0 L 61.0,123.0 L 52.0,101.0 L 47.0,84.0 L 45.0,70.0 L 45.0,59.0 L 48.0,46.0 L 54.0,35.0 L 63.0,25.0 L 73.0,18.0 L 86.0,13.0 L 94.0,12.0" fill="#FBFBFB"/>
	<path d="M 94.0,12.0 L 109.0,12.0 L 122.0,16.0 L 132.0,21.0 L 142.0,30.0 L 148.0,38.0 L 153.0,49.0 L 154.0,53.0 L 154.0,77.0 L 151.0,90.0 L 144.0,111.0 L 132.0,136.0 L 120.0,157.0 L 105.0,179.0 L 102.0,182.0 L 97.0,181.0 L 90.0,172.0 L 80.0,157.0 L 69.0,138.0 L 61.0,123.0 L 52.0,101.0 L 47.0,84.0 L 45.0,70.0 L 45.0,59.0 L 48.0,46.0 L 54.0,35.0 L 63.0,25.0 L 73.0,18.0 L 86.0,13.0 L 94.0,12.0 M 90.0,21.0 L 80.0,24.0 L 70.0,30.0 L 62.0,38.0 L 55.0,52.0 L 54.0,57.0 L 54.0,76.0 L 60.0,98.0 L 70.0,122.0 L 82.0,144.0 L 94.0,163.0 L 99.0,170.0 L 101.0,170.0 L 112.0,153.0 L 122.0,136.0 L 133.0,115.0 L 141.0,94.0 L 145.0,80.0 L 146.0,73.0 L 146.0,57.0 L 143.0,47.0 L 137.0,37.0 L 129.0,29.0 L 117.0,23.0 L 111.0,21.0 L 90.0,21.0" fill="#080808"/>
	<path d="M 95.0,45.0 L 105.0,45.0 L 117.0,51.0 L 123.0,59.0 L 125.0,64.0 L 125.0,76.0 L 120.0,86.0 L 112.0,93.0 L 106.0,95.0 L 94.0,95.0 L 87.0,92.0 L 79.0,85.0 L 75.0,76.0 L 75.0,64.0 L 80.0,54.0 L 88.0,48.0 L 95.0,45.0" fill="#080808"/>
	<path d="M 59.0,146.0 L 69.0,146.0 L 73.0,153.0 L 53.0,157.0 L 42.0,161.0 L 35.0,165.0 L 34.0,171.0 L 38.0,173.0 L 49.0,178.0 L 61.0,181.0 L 83.0,184.0 L 114.0,184.0 L 137.0,181.0 L 153.0,176.0 L 161.0,171.0 L 162.0,166.0 L 153.0,160.0 L 136.0,155.0 L 127.0,153.0 L 130.0,147.0 L 131.0,146.0 L 143.0,147.0 L 159.0,153.0 L 165.0,157.0 L 170.0,163.0 L 171.0,170.0 L 166.0,178.0 L 161.0,182.0 L 151.0,187.0 L 131.0,191.0 L 117.0,193.0 L 84.0,193.0 L 59.0,190.0 L 44.0,186.0 L 34.0,181.0 L 29.0,177.0 L 25.0,170.0 L 26.0,164.0 L 30.0,158.0 L 39.0,152.0 L 52.0,148.0 L 59.0,146.0" fill="#272727"/>
	<path d="M 94.0,54.0 L 106.0,54.0 L 112.0,58.0 L 117.0,66.0 L 117.0,74.0 L 113.0,82.0 L 107.0,86.0 L 104.0,87.0 L 95.0,87.0 L 88.0,83.0 L 83.0,75.0 L 83.0,66.0 L 87.0,59.0 L 92.0,55.0 L 94.0,54.0" fill="#F9F9F9"/>
</svg>
