<?xml version="1.0" ?>
<svg baseProfile="full" height="600px" version="1.1" viewBox="-19.296000000000003 -19.296000000000003 230.592 230.592" width="600px" xmlns="http://www.w3.org/2000/svg" xmlns:ev="http://www.w3.org/2001/xml-events" xmlns:xlink="http://www.w3.org/1999/xlink">
	<defs/>
	<path d="M 0.0,0.0 L 192.0,0.0 L 192.0,192.0 L 0.0,192.0 L 0.0,0.0" fill="#FDFEFC"/>
	<path d="M 53.0,99.0 L 70.0,99.0 L 79.0,102.0 L 86.0,110.0 L 87.0,113.0 L 87.0,120.0 L 84.0,126.0 L 80.0,131.0 L 87.0,137.0 L 92.0,145.0 L 95.0,142.0 L 103.0,132.0 L 105.0,130.0 L 102.0,125.0 L 102.0,116.0 L 106.0,110.0 L 114.0,106.0 L 125.0,106.0 L 142.0,112.0 L 152.0,118.0 L 152.0,121.0 L 145.0,129.0 L 137.0,141.0 L 130.0,148.0 L 126.0,150.0 L 113.0,150.0 L 107.0,145.0 L 105.0,143.0 L 99.0,153.0 L 96.0,170.0 L 94.0,172.0 L 89.0,171.0 L 88.0,170.0 L 87.0,156.0 L 83.0,147.0 L 78.0,141.0 L 73.0,148.0 L 67.0,151.0 L 57.0,151.0 L 49.0,147.0 L 42.0,139.0 L 33.0,119.0 L 29.0,111.0 L 27.0,108.0 L 35.0,104.0 L 48.0,100.0 L 53.0,99.0" fill="#6AA039"/>
	<path d="M 116.0,18.0 L 120.0,19.0 L 131.0,26.0 L 141.0,25.0 L 148.0,24.0 L 151.0,38.0 L 161.0,45.0 L 166.0,48.0 L 164.0,54.0 L 158.0,63.0 L 159.0,73.0 L 160.0,80.0 L 146.0,83.0 L 136.0,98.0 L 132.0,97.0 L 121.0,90.0 L 111.0,91.0 L 104.0,92.0 L 101.0,78.0 L 86.0,68.0 L 88.0,62.0 L 94.0,53.0 L 93.0,44.0 L 92.0,36.0 L 106.0,33.0 L 116.0,18.0" fill="#FF9A04"/>
	<path d="M 123.0,38.0 L 130.0,38.0 L 138.0,42.0 L 144.0,49.0 L 146.0,54.0 L 146.0,61.0 L 142.0,70.0 L 135.0,76.0 L 129.0,78.0 L 122.0,78.0 L 114.0,74.0 L 108.0,67.0 L 106.0,62.0 L 106.0,55.0 L 109.0,47.0 L 117.0,40.0 L 123.0,38.0" fill="#FFE839"/>
	<path d="M 53.0,99.0 L 70.0,99.0 L 79.0,102.0 L 86.0,110.0 L 87.0,113.0 L 87.0,120.0 L 84.0,126.0 L 80.0,130.0 L 75.0,129.0 L 61.0,121.0 L 43.0,113.0 L 28.0,108.0 L 30.0,106.0 L 48.0,100.0 L 53.0,99.0" fill="#8BC24C"/>
	<path d="M 114.0,106.0 L 125.0,106.0 L 142.0,112.0 L 152.0,118.0 L 152.0,119.0 L 132.0,123.0 L 108.0,130.0 L 104.0,129.0 L 102.0,125.0 L 102.0,116.0 L 106.0,110.0 L 114.0,106.0" fill="#8BC24C"/>
	<path d="M 79.0,131.0 L 87.0,137.0 L 92.0,145.0 L 95.0,142.0 L 103.0,132.0 L 106.0,131.0 L 106.0,142.0 L 100.0,151.0 L 98.0,156.0 L 96.0,170.0 L 94.0,172.0 L 89.0,171.0 L 88.0,170.0 L 87.0,156.0 L 83.0,147.0 L 77.0,140.0 L 79.0,131.0" fill="#8CC34E"/>
</svg>
