<?xml version="1.0" ?>
<svg baseProfile="full" height="600px" version="1.1" viewBox="-19.296000000000003 -19.296000000000003 230.592 230.592" width="600px" xmlns="http://www.w3.org/2000/svg" xmlns:ev="http://www.w3.org/2001/xml-events" xmlns:xlink="http://www.w3.org/1999/xlink">
	<defs/>
	<path d="M 0.0,0.0 L 192.0,0.0 L 192.0,192.0 L 0.0,192.0 L 0.0,0.0" fill="#FDFEFC"/>
	<path d="M 53.0,103.0 L 72.0,103.0 L 81.0,107.0 L 86.0,113.0 L 87.0,115.0 L 87.0,126.0 L 83.0,132.0 L 81.0,135.0 L 85.0,137.0 L 91.0,146.0 L 91.0,148.0 L 93.0,148.0 L 95.0,143.0 L 100.0,138.0 L 103.0,135.0 L 101.0,130.0 L 100.0,129.0 L 100.0,122.0 L 104.0,115.0 L 110.0,111.0 L 126.0,111.0 L 142.0,117.0 L 152.0,123.0 L 146.0,130.0 L 136.0,145.0 L 129.0,152.0 L 123.0,155.0 L 114.0,155.0 L 107.0,151.0 L 104.0,146.0 L 99.0,153.0 L 97.0,160.0 L 96.0,170.0 L 94.0,172.0 L 89.0,171.0 L 88.0,170.0 L 86.0,157.0 L 80.0,145.0 L 78.0,145.0 L 74.0,151.0 L 68.0,155.0 L 58.0,155.0 L 50.0,151.0 L 43.0,143.0 L 38.0,133.0 L 31.0,117.0 L 28.0,112.0 L 33.0,109.0 L 48.0,104.0 L 53.0,103.0" fill="#8BC24D"/>
	<path d="M 137.0,22.0 L 140.0,23.0 L 147.0,37.0 L 158.0,41.0 L 159.0,45.0 L 156.0,53.0 L 157.0,58.0 L 162.0,69.0 L 161.0,72.0 L 147.0,79.0 L 142.0,91.0 L 133.0,89.0 L 127.0,88.0 L 115.0,94.0 L 112.0,93.0 L 105.0,79.0 L 94.0,75.0 L 93.0,71.0 L 96.0,62.0 L 95.0,57.0 L 90.0,47.0 L 91.0,44.0 L 105.0,37.0 L 109.0,25.0 L 118.0,27.0 L 124.0,28.0 L 137.0,22.0" fill="#FF9A03"/>
	<path d="M 28.0,112.0 L 36.0,113.0 L 52.0,119.0 L 73.0,130.0 L 79.0,134.0 L 79.0,141.0 L 76.0,149.0 L 70.0,154.0 L 68.0,155.0 L 58.0,155.0 L 50.0,151.0 L 43.0,143.0 L 38.0,133.0 L 31.0,117.0 L 28.0,112.0" fill="#69A039"/>
	<path d="M 120.0,40.0 L 132.0,40.0 L 138.0,44.0 L 143.0,50.0 L 144.0,52.0 L 144.0,63.0 L 141.0,69.0 L 134.0,75.0 L 131.0,76.0 L 120.0,76.0 L 114.0,72.0 L 109.0,66.0 L 108.0,62.0 L 108.0,52.0 L 112.0,46.0 L 118.0,41.0 L 120.0,40.0" fill="#FFE839"/>
	<path d="M 53.0,103.0 L 72.0,103.0 L 81.0,107.0 L 86.0,113.0 L 87.0,115.0 L 87.0,126.0 L 83.0,132.0 L 79.0,137.0 L 78.0,134.0 L 60.0,124.0 L 42.0,116.0 L 29.0,112.0 L 30.0,110.0 L 41.0,106.0 L 53.0,103.0" fill="#8BC24B"/>
	<path d="M 140.0,124.0 L 150.0,124.0 L 148.0,128.0 L 140.0,139.0 L 134.0,147.0 L 127.0,153.0 L 123.0,155.0 L 114.0,155.0 L 107.0,151.0 L 104.0,144.0 L 104.0,136.0 L 108.0,133.0 L 127.0,127.0 L 140.0,124.0" fill="#6AA13A"/>
</svg>
