<?xml version="1.0" ?>
<svg baseProfile="full" height="600px" version="1.1" viewBox="-19.296000000000003 -19.296000000000003 230.592 230.592" width="600px" xmlns="http://www.w3.org/2000/svg" xmlns:ev="http://www.w3.org/2001/xml-events" xmlns:xlink="http://www.w3.org/1999/xlink">
	<defs/>
	<path d="M 0.0,0.0 L 192.0,0.0 L 192.0,192.0 L 0.0,192.0 L 0.0,0.0" fill="#F44538"/>
	<path d="M 0.0,0.0 L 192.0,0.0 L 192.0,192.0 L 0.0,192.0 L 0.0,0.0 M 86.0,11.0 L 69.0,15.0 L 55.0,21.0 L 42.0,30.0 L 29.0,43.0 L 20.0,57.0 L 14.0,72.0 L 11.0,86.0 L 11.0,106.0 L 15.0,122.0 L 20.0,135.0 L 27.0,146.0 L 36.0,156.0 L 43.0,163.0 L 57.0,172.0 L 72.0,178.0 L 86.0,181.0 L 105.0,181.0 L 122.0,177.0 L 137.0,171.0 L 150.0,162.0 L 163.0,149.0 L 172.0,135.0 L 178.0,120.0 L 181.0,105.0 L 181.0,86.0 L 177.0,69.0 L 171.0,55.0 L 162.0,42.0 L 149.0,29.0 L 133.0,19.0 L 116.0,13.0 L 106.0,11.0 L 86.0,11.0" fill="#FEFDFC"/>
	<path d="M 64.0,50.0 L 80.0,58.0 L 96.0,67.0 L 114.0,77.0 L 132.0,87.0 L 146.0,95.0 L 146.0,97.0 L 117.0,113.0 L 90.0,128.0 L 65.0,142.0 L 64.0,142.0 L 64.0,50.0" fill="#FEFCFC"/>
</svg>
