<?xml version="1.0" ?>
<svg baseProfile="full" height="600px" version="1.1" viewBox="-12.864 -12.864 153.728 153.728" width="600px" xmlns="http://www.w3.org/2000/svg" xmlns:ev="http://www.w3.org/2001/xml-events" xmlns:xlink="http://www.w3.org/1999/xlink">
	<defs/>
	<path d="M 0.0,0.0 L 128.0,0.0 L 128.0,128.0 L 0.0,128.0 L 0.0,0.0" fill="#FDFDFD"/>
	<path d="M 48.0,37.0 L 53.0,39.0 L 78.0,53.0 L 95.0,63.0 L 94.0,66.0 L 72.0,78.0 L 55.0,88.0 L 50.0,91.0 L 48.0,91.0 L 48.0,37.0" fill="#050505"/>
	<path d="M 55.0,16.0 L 64.0,16.0 L 64.0,24.0 L 50.0,27.0 L 39.0,33.0 L 31.0,42.0 L 26.0,53.0 L 25.0,58.0 L 25.0,70.0 L 28.0,80.0 L 32.0,88.0 L 27.0,92.0 L 23.0,90.0 L 17.0,77.0 L 16.0,73.0 L 16.0,55.0 L 20.0,44.0 L 26.0,34.0 L 35.0,25.0 L 51.0,17.0 L 55.0,16.0" fill="#080808"/>
	<path d="M 56.0,51.0 L 61.0,53.0 L 79.0,63.0 L 79.0,65.0 L 58.0,77.0 L 56.0,77.0 L 56.0,51.0" fill="#F9F9F9"/>
</svg>
