<?xml version="1.0" ?>
<svg baseProfile="full" height="600px" version="1.1" viewBox="-19.296000000000003 -19.296000000000003 230.592 230.592" width="600px" xmlns="http://www.w3.org/2000/svg" xmlns:ev="http://www.w3.org/2001/xml-events" xmlns:xlink="http://www.w3.org/1999/xlink">
	<defs/>
	<path d="M 0.0,0.0 L 192.0,0.0 L 192.0,192.0 L 0.0,192.0 L 0.0,0.0" fill="#FDFDFE"/>
	<path d="M 78.0,16.0 L 113.0,16.0 L 122.0,20.0 L 130.0,29.0 L 132.0,34.0 L 132.0,72.0 L 140.0,72.0 L 140.0,114.0 L 136.0,125.0 L 131.0,131.0 L 121.0,137.0 L 109.0,140.0 L 104.0,140.0 L 104.0,164.0 L 119.0,166.0 L 136.0,170.0 L 137.0,152.0 L 141.0,154.0 L 157.0,164.0 L 154.0,167.0 L 141.0,174.0 L 140.0,180.0 L 52.0,180.0 L 52.0,172.0 L 60.0,169.0 L 77.0,165.0 L 88.0,165.0 L 88.0,140.0 L 80.0,140.0 L 69.0,136.0 L 60.0,130.0 L 54.0,121.0 L 52.0,113.0 L 52.0,72.0 L 60.0,72.0 L 60.0,34.0 L 64.0,26.0 L 71.0,19.0 L 78.0,16.0" fill="#9EA7D9"/>
	<path d="M 52.0,72.0 L 92.0,72.0 L 92.0,80.0 L 60.0,80.0 L 60.0,88.0 L 92.0,88.0 L 92.0,96.0 L 60.0,96.0 L 61.0,114.0 L 65.0,122.0 L 71.0,127.0 L 78.0,130.0 L 85.0,131.0 L 109.0,131.0 L 119.0,128.0 L 125.0,124.0 L 129.0,119.0 L 131.0,113.0 L 132.0,96.0 L 100.0,96.0 L 100.0,88.0 L 132.0,88.0 L 132.0,80.0 L 100.0,80.0 L 100.0,72.0 L 140.0,72.0 L 140.0,114.0 L 136.0,125.0 L 131.0,131.0 L 121.0,137.0 L 109.0,140.0 L 104.0,140.0 L 104.0,164.0 L 119.0,166.0 L 136.0,170.0 L 137.0,152.0 L 141.0,154.0 L 157.0,164.0 L 154.0,167.0 L 141.0,174.0 L 140.0,180.0 L 52.0,180.0 L 52.0,172.0 L 60.0,169.0 L 77.0,165.0 L 88.0,165.0 L 88.0,140.0 L 80.0,140.0 L 69.0,136.0 L 60.0,130.0 L 54.0,121.0 L 52.0,113.0 L 52.0,72.0" fill="#4153B5"/>
	<path d="M 78.0,16.0 L 113.0,16.0 L 122.0,20.0 L 130.0,29.0 L 132.0,34.0 L 132.0,64.0 L 129.0,67.0 L 98.0,67.0 L 98.0,65.0 L 60.0,64.0 L 60.0,34.0 L 64.0,26.0 L 71.0,19.0 L 78.0,16.0" fill="#9DA6D8"/>
	<path d="M 78.0,16.0 L 113.0,16.0 L 122.0,20.0 L 130.0,29.0 L 132.0,34.0 L 132.0,40.0 L 100.0,40.0 L 100.0,47.0 L 95.0,47.0 L 95.0,44.0 L 93.0,43.0 L 93.0,40.0 L 60.0,40.0 L 61.0,31.0 L 65.0,25.0 L 73.0,18.0 L 78.0,16.0" fill="#9EA7D9"/>
	<path d="M 137.0,152.0 L 141.0,154.0 L 157.0,164.0 L 154.0,167.0 L 141.0,174.0 L 140.0,180.0 L 52.0,180.0 L 52.0,172.0 L 60.0,169.0 L 77.0,165.0 L 88.0,164.0 L 103.0,164.0 L 119.0,166.0 L 136.0,170.0 L 137.0,152.0" fill="#32409F"/>
	<path d="M 131.0,100.0 L 132.0,100.0 L 132.0,113.0 L 128.0,122.0 L 121.0,128.0 L 113.0,131.0 L 109.0,132.0 L 85.0,132.0 L 75.0,130.0 L 67.0,125.0 L 62.0,119.0 L 60.0,114.0 L 60.0,101.0 L 62.0,104.0 L 66.0,111.0 L 73.0,117.0 L 78.0,119.0 L 113.0,119.0 L 122.0,115.0 L 128.0,109.0 L 131.0,100.0" fill="#FAFAFD"/>
	<path d="M 137.0,152.0 L 141.0,154.0 L 157.0,164.0 L 154.0,167.0 L 137.0,176.0 L 136.0,176.0 L 135.0,170.0 L 137.0,152.0" fill="#2898F2"/>
	<path d="M 100.0,88.0 L 132.0,88.0 L 132.0,96.0 L 100.0,96.0 L 100.0,88.0" fill="#5B6ABF"/>
	<path d="M 60.0,88.0 L 92.0,88.0 L 92.0,96.0 L 60.0,96.0 L 60.0,88.0" fill="#5B6ABF"/>
	<path d="M 100.0,72.0 L 132.0,72.0 L 132.0,80.0 L 100.0,80.0 L 100.0,72.0" fill="#5B6ABF"/>
	<path d="M 60.0,72.0 L 92.0,72.0 L 92.0,80.0 L 60.0,80.0 L 60.0,72.0" fill="#5B6ABF"/>
	<path d="M 100.0,56.0 L 132.0,56.0 L 132.0,64.0 L 100.0,64.0 L 100.0,56.0" fill="#5B6ABF"/>
	<path d="M 60.0,56.0 L 92.0,56.0 L 92.0,64.0 L 60.0,64.0 L 60.0,56.0" fill="#5B6ABF"/>
	<path d="M 100.0,40.0 L 132.0,40.0 L 132.0,48.0 L 100.0,48.0 L 100.0,40.0" fill="#5B6ABF"/>
	<path d="M 60.0,40.0 L 92.0,40.0 L 92.0,48.0 L 60.0,48.0 L 60.0,40.0" fill="#5B6ABF"/>
	<path d="M 133.0,170.0 L 136.0,171.0 L 137.0,175.0 L 140.0,174.0 L 140.0,180.0 L 132.0,180.0 L 132.0,172.0 L 133.0,170.0" fill="#1E2C88"/>
	<path d="M 78.0,16.0 L 84.0,16.0 L 83.0,19.0 L 80.0,17.0 L 79.0,21.0 L 77.0,23.0 L 74.0,23.0 L 72.0,21.0 L 70.0,20.0 L 78.0,16.0" fill="#A6AEDC"/>
	<path d="M 128.0,31.0 L 131.0,31.0 L 132.0,39.0 L 129.0,35.0 L 126.0,34.0 L 128.0,31.0" fill="#A9B1DE"/>
</svg>
