<?xml version="1.0" ?>
<svg baseProfile="full" height="600px" version="1.1" viewBox="-20.1 -20.1 240.2 240.2" width="600px" xmlns="http://www.w3.org/2000/svg" xmlns:ev="http://www.w3.org/2001/xml-events" xmlns:xlink="http://www.w3.org/1999/xlink">
	<defs/>
	<path d="M 0.0,0.0 L 200.0,0.0 L 200.0,200.0 L 0.0,200.0 L 0.0,0.0" fill="#FCFCFC"/>
	<path d="M 70.0,52.0 L 75.0,53.0 L 100.0,67.0 L 124.0,81.0 L 147.0,94.0 L 152.0,98.0 L 151.0,103.0 L 129.0,116.0 L 100.0,133.0 L 76.0,147.0 L 70.0,148.0 L 68.0,146.0 L 68.0,54.0 L 70.0,52.0" fill="#FBFBFB"/>
	<path d="M 88.0,8.0 L 102.0,8.0 L 104.0,10.0 L 103.0,15.0 L 102.0,16.0 L 83.0,18.0 L 65.0,24.0 L 53.0,31.0 L 43.0,39.0 L 36.0,46.0 L 29.0,56.0 L 22.0,70.0 L 18.0,83.0 L 17.0,89.0 L 17.0,110.0 L 20.0,123.0 L 26.0,139.0 L 34.0,151.0 L 43.0,161.0 L 53.0,169.0 L 65.0,176.0 L 83.0,182.0 L 89.0,183.0 L 111.0,183.0 L 123.0,180.0 L 137.0,175.0 L 151.0,166.0 L 161.0,157.0 L 169.0,147.0 L 175.0,137.0 L 181.0,121.0 L 183.0,111.0 L 183.0,90.0 L 181.0,79.0 L 176.0,65.0 L 168.0,51.0 L 165.0,47.0 L 165.0,42.0 L 171.0,41.0 L 179.0,52.0 L 187.0,68.0 L 191.0,82.0 L 192.0,91.0 L 192.0,110.0 L 189.0,125.0 L 183.0,141.0 L 175.0,154.0 L 164.0,167.0 L 150.0,178.0 L 134.0,186.0 L 117.0,191.0 L 110.0,192.0 L 89.0,192.0 L 74.0,189.0 L 59.0,183.0 L 46.0,175.0 L 33.0,164.0 L 22.0,150.0 L 14.0,134.0 L 10.0,122.0 L 8.0,111.0 L 8.0,88.0 L 12.0,71.0 L 19.0,55.0 L 28.0,42.0 L 37.0,32.0 L 50.0,22.0 L 66.0,14.0 L 78.0,10.0 L 88.0,8.0" fill="#080808"/>
	<path d="M 70.0,52.0 L 75.0,53.0 L 100.0,67.0 L 124.0,81.0 L 147.0,94.0 L 152.0,98.0 L 151.0,103.0 L 129.0,116.0 L 100.0,133.0 L 76.0,147.0 L 70.0,148.0 L 68.0,146.0 L 68.0,54.0 L 70.0,52.0 M 76.0,64.0 L 76.0,137.0 L 88.0,131.0 L 103.0,122.0 L 127.0,108.0 L 139.0,101.0 L 138.0,98.0 L 118.0,87.0 L 94.0,73.0 L 78.0,64.0 L 76.0,64.0" fill="#060606"/>
</svg>
