<?xml version="1.0" ?>
<svg baseProfile="full" height="600px" version="1.1" viewBox="-16.08 -16.08 192.16 192.16" width="600px" xmlns="http://www.w3.org/2000/svg" xmlns:ev="http://www.w3.org/2001/xml-events" xmlns:xlink="http://www.w3.org/1999/xlink">
	<defs/>
	<path d="M 0.0,0.0 L 160.0,0.0 L 160.0,160.0 L 0.0,160.0 L 0.0,0.0" fill="#8AB6EE"/>
	<path d="M 0.0,0.0 L 160.0,0.0 L 160.0,160.0 L 0.0,160.0 L 0.0,0.0 M 70.0,8.0 L 54.0,12.0 L 39.0,20.0 L 27.0,31.0 L 20.0,39.0 L 12.0,54.0 L 8.0,70.0 L 8.0,89.0 L 11.0,102.0 L 16.0,114.0 L 23.0,125.0 L 35.0,137.0 L 46.0,144.0 L 60.0,150.0 L 69.0,152.0 L 90.0,152.0 L 105.0,148.0 L 121.0,140.0 L 133.0,129.0 L 140.0,121.0 L 148.0,105.0 L 152.0,90.0 L 152.0,69.0 L 149.0,57.0 L 141.0,41.0 L 134.0,32.0 L 125.0,23.0 L 112.0,15.0 L 100.0,10.0 L 89.0,8.0 L 70.0,8.0" fill="#FCFDFD"/>
	<path d="M 70.0,8.0 L 89.0,8.0 L 102.0,11.0 L 114.0,16.0 L 125.0,23.0 L 137.0,35.0 L 144.0,46.0 L 150.0,60.0 L 152.0,69.0 L 152.0,90.0 L 148.0,105.0 L 140.0,121.0 L 129.0,133.0 L 121.0,140.0 L 105.0,148.0 L 90.0,152.0 L 69.0,152.0 L 57.0,149.0 L 41.0,141.0 L 32.0,134.0 L 23.0,125.0 L 15.0,112.0 L 10.0,100.0 L 8.0,89.0 L 8.0,70.0 L 12.0,54.0 L 20.0,39.0 L 31.0,27.0 L 39.0,20.0 L 54.0,12.0 L 70.0,8.0 M 71.0,12.0 L 55.0,16.0 L 39.0,25.0 L 30.0,33.0 L 22.0,44.0 L 15.0,58.0 L 12.0,71.0 L 12.0,88.0 L 16.0,104.0 L 23.0,118.0 L 32.0,128.0 L 39.0,135.0 L 53.0,143.0 L 67.0,147.0 L 72.0,148.0 L 87.0,148.0 L 101.0,145.0 L 113.0,140.0 L 124.0,132.0 L 130.0,127.0 L 138.0,116.0 L 144.0,104.0 L 147.0,94.0 L 148.0,89.0 L 148.0,74.0 L 146.0,62.0 L 141.0,49.0 L 134.0,38.0 L 121.0,25.0 L 107.0,17.0 L 93.0,13.0 L 88.0,12.0 L 71.0,12.0" fill="#5680B9"/>
	<path d="M 56.0,48.0 L 68.0,54.0 L 85.0,64.0 L 108.0,77.0 L 111.0,79.0 L 111.0,81.0 L 85.0,96.0 L 57.0,112.0 L 56.0,112.0 L 56.0,48.0" fill="#FCFDFE"/>
</svg>
