<?xml version="1.0" ?>
<svg baseProfile="full" height="600px" version="1.1" viewBox="-20.1 -20.1 240.2 240.2" width="600px" xmlns="http://www.w3.org/2000/svg" xmlns:ev="http://www.w3.org/2001/xml-events" xmlns:xlink="http://www.w3.org/1999/xlink">
	<defs/>
	<path d="M 0.0,0.0 L 200.0,0.0 L 200.0,200.0 L 0.0,200.0 L 0.0,0.0" fill="#FDFDFD"/>
	<path d="M 70.0,52.0 L 75.0,53.0 L 100.0,67.0 L 124.0,81.0 L 147.0,94.0 L 152.0,98.0 L 151.0,103.0 L 129.0,116.0 L 100.0,133.0 L 76.0,147.0 L 70.0,148.0 L 68.0,146.0 L 68.0,54.0 L 70.0,52.0" fill="#FBFBFB"/>
	<path d="M 70.0,52.0 L 75.0,53.0 L 100.0,67.0 L 124.0,81.0 L 147.0,94.0 L 152.0,98.0 L 151.0,103.0 L 129.0,116.0 L 100.0,133.0 L 76.0,147.0 L 70.0,148.0 L 68.0,146.0 L 68.0,54.0 L 70.0,52.0 M 76.0,64.0 L 76.0,137.0 L 88.0,131.0 L 103.0,122.0 L 127.0,108.0 L 139.0,101.0 L 138.0,98.0 L 118.0,87.0 L 94.0,73.0 L 78.0,64.0 L 76.0,64.0" fill="#060606"/>
</svg>
