<?xml version="1.0" ?>
<svg baseProfile="full" height="600px" version="1.1" viewBox="-12.864 -12.864 153.728 153.728" width="600px" xmlns="http://www.w3.org/2000/svg" xmlns:ev="http://www.w3.org/2001/xml-events" xmlns:xlink="http://www.w3.org/1999/xlink">
	<defs/>
	<path d="M 0.0,0.0 L 128.0,0.0 L 128.0,128.0 L 0.0,128.0 L 0.0,0.0" fill="#FCFCFC"/>
	<path d="M 64.0,16.0 L 73.0,16.0 L 86.0,21.0 L 95.0,27.0 L 103.0,35.0 L 109.0,46.0 L 112.0,55.0 L 112.0,70.0 L 110.0,79.0 L 103.0,93.0 L 93.0,103.0 L 77.0,111.0 L 70.0,112.0 L 55.0,112.0 L 43.0,108.0 L 33.0,101.0 L 25.0,93.0 L 17.0,77.0 L 16.0,73.0 L 16.0,65.0 L 24.0,65.0 L 28.0,80.0 L 34.0,90.0 L 42.0,97.0 L 53.0,102.0 L 56.0,103.0 L 69.0,103.0 L 82.0,99.0 L 91.0,93.0 L 97.0,86.0 L 102.0,74.0 L 103.0,69.0 L 103.0,56.0 L 98.0,44.0 L 92.0,36.0 L 84.0,30.0 L 74.0,26.0 L 64.0,24.0 L 64.0,16.0" fill="#080808"/>
	<path d="M 48.0,37.0 L 53.0,39.0 L 78.0,53.0 L 95.0,63.0 L 94.0,66.0 L 72.0,78.0 L 55.0,88.0 L 50.0,91.0 L 48.0,91.0 L 48.0,37.0" fill="#050505"/>
	<path d="M 56.0,51.0 L 61.0,53.0 L 79.0,63.0 L 79.0,65.0 L 58.0,77.0 L 56.0,77.0 L 56.0,51.0" fill="#F9F9F9"/>
</svg>
