<?xml version="1.0" ?>
<svg baseProfile="full" height="600px" version="1.1" viewBox="-16.08 -16.08 192.16 192.16" width="600px" xmlns="http://www.w3.org/2000/svg" xmlns:ev="http://www.w3.org/2001/xml-events" xmlns:xlink="http://www.w3.org/1999/xlink">
	<defs/>
	<path d="M 0.0,0.0 L 160.0,0.0 L 160.0,160.0 L 0.0,160.0 L 0.0,0.0" fill="#8AB6EE"/>
	<path d="M 0.0,0.0 L 160.0,0.0 L 160.0,160.0 L 0.0,160.0 L 0.0,0.0 M 70.0,2.0 L 51.0,7.0 L 38.0,14.0 L 29.0,21.0 L 18.0,32.0 L 10.0,45.0 L 5.0,57.0 L 2.0,70.0 L 2.0,89.0 L 6.0,105.0 L 11.0,117.0 L 18.0,128.0 L 24.0,135.0 L 35.0,144.0 L 49.0,152.0 L 62.0,156.0 L 71.0,158.0 L 90.0,158.0 L 105.0,154.0 L 117.0,149.0 L 129.0,141.0 L 142.0,128.0 L 150.0,115.0 L 155.0,102.0 L 158.0,86.0 L 158.0,71.0 L 154.0,54.0 L 146.0,38.0 L 139.0,29.0 L 128.0,18.0 L 115.0,10.0 L 99.0,4.0 L 89.0,2.0 L 70.0,2.0" fill="#FCFCFD"/>
	<path d="M 52.0,43.0 L 57.0,45.0 L 79.0,57.0 L 96.0,67.0 L 117.0,79.0 L 117.0,81.0 L 94.0,94.0 L 68.0,109.0 L 54.0,117.0 L 52.0,117.0 L 52.0,43.0" fill="#FCFDFE"/>
	<path d="M 70.0,2.0 L 89.0,2.0 L 105.0,6.0 L 117.0,11.0 L 129.0,19.0 L 142.0,32.0 L 150.0,45.0 L 155.0,57.0 L 158.0,71.0 L 158.0,86.0 L 155.0,102.0 L 149.0,117.0 L 141.0,129.0 L 128.0,142.0 L 115.0,150.0 L 103.0,155.0 L 90.0,158.0 L 71.0,158.0 L 54.0,154.0 L 38.0,146.0 L 29.0,139.0 L 24.0,135.0 L 14.0,122.0 L 7.0,108.0 L 3.0,94.0 L 2.0,89.0 L 2.0,70.0 L 7.0,51.0 L 14.0,38.0 L 21.0,29.0 L 32.0,18.0 L 45.0,10.0 L 57.0,5.0 L 70.0,2.0 M 71.0,7.0 L 59.0,9.0 L 43.0,16.0 L 31.0,25.0 L 23.0,33.0 L 16.0,43.0 L 9.0,59.0 L 7.0,68.0 L 7.0,91.0 L 10.0,103.0 L 16.0,117.0 L 24.0,128.0 L 34.0,138.0 L 47.0,146.0 L 59.0,151.0 L 71.0,153.0 L 90.0,153.0 L 100.0,151.0 L 113.0,146.0 L 124.0,139.0 L 134.0,130.0 L 142.0,120.0 L 149.0,106.0 L 152.0,97.0 L 153.0,90.0 L 153.0,69.0 L 149.0,53.0 L 142.0,40.0 L 135.0,31.0 L 126.0,22.0 L 111.0,13.0 L 100.0,9.0 L 89.0,7.0 L 71.0,7.0" fill="#5681BA"/>
</svg>
