<?xml version="1.0" ?>
<svg baseProfile="full" height="600px" version="1.1" viewBox="-9.648000000000001 -9.648000000000001 115.296 115.296" width="600px" xmlns="http://www.w3.org/2000/svg" xmlns:ev="http://www.w3.org/2001/xml-events" xmlns:xlink="http://www.w3.org/1999/xlink">
	<defs/>
	<path d="M 0.0,0.0 L 96.0,0.0 L 96.0,96.0 L 0.0,96.0 L 0.0,0.0" fill="#FCFCFC"/>
	<path d="M 58.0,23.0 L 62.0,23.0 L 70.0,47.0 L 67.0,57.0 L 63.0,70.0 L 62.0,73.0 L 55.0,72.0 L 54.0,68.0 L 60.0,50.0 L 59.0,42.0 L 54.0,27.0 L 55.0,24.0 L 58.0,23.0" fill="#0B0B0B"/>
	<path d="M 33.0,23.0 L 38.0,25.0 L 40.0,26.0 L 38.0,31.0 L 38.0,65.0 L 40.0,70.0 L 35.0,73.0 L 32.0,72.0 L 29.0,67.0 L 29.0,29.0 L 33.0,23.0" fill="#090909"/>
</svg>
