<?xml version="1.0" ?>
<svg baseProfile="full" height="600px" version="1.1" viewBox="-20.1 -20.1 240.2 240.2" width="600px" xmlns="http://www.w3.org/2000/svg" xmlns:ev="http://www.w3.org/2001/xml-events" xmlns:xlink="http://www.w3.org/1999/xlink">
	<defs/>
	<path d="M 0.0,0.0 L 200.0,0.0 L 200.0,200.0 L 0.0,200.0 L 0.0,0.0" fill="#FDFDFD"/>
	<path d="M 70.0,52.0 L 75.0,53.0 L 100.0,67.0 L 124.0,81.0 L 147.0,94.0 L 152.0,98.0 L 151.0,103.0 L 129.0,116.0 L 100.0,133.0 L 76.0,147.0 L 70.0,148.0 L 68.0,146.0 L 68.0,54.0 L 70.0,52.0" fill="#FBFBFB"/>
	<path d="M 98.0,8.0 L 109.0,8.0 L 126.0,11.0 L 145.0,19.0 L 158.0,28.0 L 168.0,37.0 L 178.0,50.0 L 186.0,66.0 L 191.0,82.0 L 192.0,89.0 L 192.0,110.0 L 189.0,125.0 L 183.0,141.0 L 175.0,154.0 L 164.0,167.0 L 150.0,178.0 L 134.0,186.0 L 126.0,189.0 L 121.0,188.0 L 120.0,187.0 L 120.0,182.0 L 127.0,179.0 L 141.0,173.0 L 155.0,163.0 L 165.0,153.0 L 174.0,139.0 L 179.0,127.0 L 182.0,116.0 L 183.0,109.0 L 183.0,90.0 L 180.0,77.0 L 175.0,63.0 L 166.0,49.0 L 157.0,39.0 L 147.0,31.0 L 137.0,25.0 L 121.0,19.0 L 110.0,17.0 L 98.0,16.0 L 96.0,14.0 L 97.0,9.0 L 98.0,8.0" fill="#080808"/>
	<path d="M 70.0,52.0 L 75.0,53.0 L 100.0,67.0 L 124.0,81.0 L 147.0,94.0 L 152.0,98.0 L 151.0,103.0 L 129.0,116.0 L 100.0,133.0 L 76.0,147.0 L 70.0,148.0 L 68.0,146.0 L 68.0,54.0 L 70.0,52.0 M 76.0,64.0 L 76.0,137.0 L 88.0,131.0 L 103.0,122.0 L 127.0,108.0 L 139.0,101.0 L 138.0,98.0 L 118.0,87.0 L 94.0,73.0 L 78.0,64.0 L 76.0,64.0" fill="#060606"/>
</svg>
