<?xml version="1.0" ?>
<svg baseProfile="full" height="600px" version="1.1" viewBox="-12.864 -12.864 153.728 153.728" width="600px" xmlns="http://www.w3.org/2000/svg" xmlns:ev="http://www.w3.org/2001/xml-events" xmlns:xlink="http://www.w3.org/1999/xlink">
	<defs/>
	<path d="M 0.0,0.0 L 128.0,0.0 L 128.0,128.0 L 0.0,128.0 L 0.0,0.0" fill="#FDFDFD"/>
	<path d="M 76.0,64.0 L 90.0,72.0 L 111.0,85.0 L 127.0,95.0 L 126.0,98.0 L 106.0,110.0 L 80.0,126.0 L 76.0,128.0 L 76.0,64.0" fill="#050505"/>
	<path d="M 49.0,16.0 L 79.0,16.0 L 84.0,21.0 L 84.0,59.0 L 79.0,57.0 L 76.0,55.0 L 76.0,24.0 L 52.0,24.0 L 52.0,72.0 L 68.0,72.0 L 68.0,80.0 L 49.0,80.0 L 44.0,75.0 L 44.0,21.0 L 49.0,16.0" fill="#020202"/>
	<path d="M 127.0,95.0 L 128.0,95.0 L 128.0,128.0 L 77.0,128.0 L 82.0,124.0 L 103.0,111.0 L 124.0,98.0 L 127.0,95.0" fill="#FBFBFB"/>
	<path d="M 28.0,56.0 L 36.0,56.0 L 37.0,76.0 L 41.0,83.0 L 48.0,87.0 L 68.0,88.0 L 68.0,112.0 L 44.0,112.0 L 44.0,104.0 L 60.0,104.0 L 60.0,96.0 L 46.0,96.0 L 38.0,92.0 L 30.0,83.0 L 28.0,77.0 L 28.0,56.0" fill="#020202"/>
	<path d="M 84.0,79.0 L 89.0,81.0 L 112.0,95.0 L 112.0,97.0 L 86.0,113.0 L 84.0,113.0 L 84.0,79.0" fill="#FAFAFA"/>
	<path d="M 92.0,56.0 L 100.0,56.0 L 100.0,69.0 L 95.0,67.0 L 92.0,65.0 L 92.0,56.0" fill="#040404"/>
</svg>
