<?xml version="1.0" ?>
<svg baseProfile="full" height="600px" version="1.1" viewBox="-12.864 -12.864 153.728 153.728" width="600px" xmlns="http://www.w3.org/2000/svg" xmlns:ev="http://www.w3.org/2001/xml-events" xmlns:xlink="http://www.w3.org/1999/xlink">
	<defs/>
	<path d="M 0.0,0.0 L 128.0,0.0 L 128.0,128.0 L 0.0,128.0 L 0.0,0.0" fill="#FDFDFD"/>
	<path d="M 49.0,16.0 L 79.0,16.0 L 84.0,21.0 L 84.0,68.0 L 77.0,80.0 L 49.0,80.0 L 44.0,75.0 L 44.0,21.0 L 49.0,16.0" fill="#020202"/>
	<path d="M 91.0,67.0 L 94.0,70.0 L 109.0,96.0 L 117.0,110.0 L 117.0,112.0 L 80.0,114.0 L 67.0,114.0 L 69.0,108.0 L 81.0,85.0 L 91.0,67.0" fill="#0A0A0A"/>
	<path d="M 52.0,24.0 L 76.0,24.0 L 76.0,72.0 L 52.0,72.0 L 52.0,24.0" fill="#FDFDFD"/>
	<path d="M 28.0,56.0 L 36.0,56.0 L 37.0,76.0 L 41.0,83.0 L 48.0,87.0 L 72.0,88.0 L 70.0,94.0 L 60.0,112.0 L 44.0,112.0 L 44.0,104.0 L 60.0,104.0 L 60.0,96.0 L 46.0,96.0 L 38.0,92.0 L 30.0,83.0 L 28.0,77.0 L 28.0,56.0" fill="#040404"/>
	<path d="M 91.0,82.0 L 93.0,82.0 L 106.0,104.0 L 106.0,105.0 L 84.0,107.0 L 78.0,107.0 L 80.0,102.0 L 90.0,83.0 L 91.0,82.0" fill="#F6F6F6"/>
	<path d="M 93.0,56.0 L 100.0,56.0 L 100.0,67.0 L 96.0,62.0 L 93.0,56.0" fill="#080808"/>
</svg>
