<?xml version="1.0" ?>
<svg baseProfile="full" height="600px" version="1.1" viewBox="-12.864 -12.864 153.728 153.728" width="600px" xmlns="http://www.w3.org/2000/svg" xmlns:ev="http://www.w3.org/2001/xml-events" xmlns:xlink="http://www.w3.org/1999/xlink">
	<defs/>
	<path d="M 0.0,0.0 L 128.0,0.0 L 128.0,128.0 L 0.0,128.0 L 0.0,0.0" fill="#FBFBFB"/>
	<path d="M 0.0,0.0 L 128.0,0.0 L 128.0,128.0 L 0.0,128.0 L 0.0,0.0 M 56.0,12.0 L 43.0,16.0 L 33.0,22.0 L 24.0,30.0 L 17.0,41.0 L 14.0,48.0 L 12.0,56.0 L 12.0,69.0 L 14.0,79.0 L 18.0,89.0 L 26.0,100.0 L 37.0,109.0 L 48.0,114.0 L 56.0,116.0 L 72.0,116.0 L 87.0,111.0 L 98.0,104.0 L 107.0,94.0 L 113.0,82.0 L 116.0,70.0 L 116.0,56.0 L 112.0,43.0 L 106.0,33.0 L 99.0,25.0 L 89.0,18.0 L 76.0,13.0 L 69.0,12.0 L 56.0,12.0" fill="#FCFCFC"/>
	<path d="M 56.0,12.0 L 69.0,12.0 L 79.0,14.0 L 89.0,18.0 L 100.0,26.0 L 109.0,37.0 L 114.0,48.0 L 116.0,56.0 L 116.0,70.0 L 113.0,82.0 L 107.0,94.0 L 98.0,104.0 L 87.0,111.0 L 72.0,116.0 L 56.0,116.0 L 43.0,112.0 L 33.0,106.0 L 25.0,99.0 L 18.0,89.0 L 13.0,76.0 L 12.0,69.0 L 12.0,56.0 L 16.0,43.0 L 22.0,33.0 L 30.0,24.0 L 41.0,17.0 L 48.0,14.0 L 56.0,12.0 M 57.0,21.0 L 47.0,24.0 L 37.0,30.0 L 29.0,38.0 L 22.0,52.0 L 21.0,57.0 L 21.0,71.0 L 25.0,83.0 L 31.0,92.0 L 38.0,99.0 L 52.0,106.0 L 57.0,107.0 L 70.0,107.0 L 83.0,103.0 L 92.0,97.0 L 99.0,90.0 L 105.0,78.0 L 107.0,70.0 L 107.0,57.0 L 104.0,47.0 L 98.0,37.0 L 90.0,29.0 L 78.0,23.0 L 70.0,21.0 L 57.0,21.0" fill="#0A0A0A"/>
	<path d="M 45.0,32.0 L 50.0,34.0 L 77.0,49.0 L 101.0,63.0 L 101.0,65.0 L 78.0,78.0 L 57.0,90.0 L 47.0,96.0 L 45.0,96.0 L 45.0,32.0" fill="#080808"/>
	<path d="M 55.0,49.0 L 61.0,51.0 L 82.0,63.0 L 82.0,65.0 L 57.0,79.0 L 55.0,79.0 L 55.0,49.0" fill="#F9F9F9"/>
</svg>
