<?xml version="1.0" ?>
<svg baseProfile="full" height="600px" version="1.1" viewBox="-9.648000000000001 -9.648000000000001 115.296 115.296" width="600px" xmlns="http://www.w3.org/2000/svg" xmlns:ev="http://www.w3.org/2001/xml-events" xmlns:xlink="http://www.w3.org/1999/xlink">
	<defs/>
	<path d="M 0.0,0.0 L 96.0,0.0 L 96.0,96.0 L 0.0,96.0 L 0.0,0.0" fill="#030303"/>
	<path d="M 0.0,0.0 L 96.0,0.0 L 96.0,96.0 L 0.0,96.0 L 0.0,0.0 M 41.0,5.0 L 31.0,8.0 L 21.0,14.0 L 13.0,22.0 L 6.0,36.0 L 5.0,41.0 L 5.0,54.0 L 9.0,67.0 L 15.0,76.0 L 22.0,83.0 L 36.0,90.0 L 40.0,91.0 L 53.0,91.0 L 65.0,88.0 L 75.0,82.0 L 83.0,74.0 L 90.0,60.0 L 91.0,53.0 L 91.0,41.0 L 88.0,31.0 L 82.0,21.0 L 74.0,13.0 L 62.0,7.0 L 53.0,5.0 L 41.0,5.0" fill="#FBFBFB"/>
	<path d="M 39.0,28.0 L 44.0,30.0 L 62.0,44.0 L 66.0,47.0 L 64.0,51.0 L 45.0,65.0 L 41.0,68.0 L 39.0,68.0 L 39.0,28.0" fill="#FAFAFA"/>
</svg>
