<?xml version="1.0" ?>
<svg baseProfile="full" height="600px" version="1.1" viewBox="-12.864 -12.864 153.728 153.728" width="600px" xmlns="http://www.w3.org/2000/svg" xmlns:ev="http://www.w3.org/2001/xml-events" xmlns:xlink="http://www.w3.org/1999/xlink">
	<defs/>
	<path d="M 0.0,0.0 L 128.0,0.0 L 128.0,128.0 L 0.0,128.0 L 0.0,0.0" fill="#FDFDFD"/>
	<path d="M 49.0,16.0 L 79.0,16.0 L 84.0,21.0 L 84.0,74.0 L 81.0,79.0 L 78.0,80.0 L 49.0,80.0 L 44.0,75.0 L 44.0,21.0 L 49.0,16.0" fill="#020202"/>
	<path d="M 28.0,56.0 L 36.0,56.0 L 37.0,76.0 L 41.0,83.0 L 48.0,87.0 L 80.0,87.0 L 88.0,82.0 L 91.0,76.0 L 92.0,56.0 L 100.0,56.0 L 100.0,77.0 L 96.0,86.0 L 89.0,93.0 L 85.0,94.0 L 79.0,90.0 L 78.0,96.0 L 68.0,96.0 L 68.0,104.0 L 78.0,104.0 L 78.0,112.0 L 44.0,112.0 L 44.0,104.0 L 60.0,104.0 L 60.0,96.0 L 46.0,96.0 L 38.0,92.0 L 30.0,83.0 L 28.0,77.0 L 28.0,56.0" fill="#030303"/>
	<path d="M 52.0,24.0 L 76.0,24.0 L 76.0,72.0 L 52.0,72.0 L 52.0,24.0" fill="#FDFDFD"/>
	<path d="M 81.0,94.0 L 90.0,99.0 L 97.0,104.0 L 94.0,107.0 L 83.0,112.0 L 81.0,112.0 L 81.0,94.0" fill="#040404"/>
	<path d="M 83.0,98.0 L 92.0,104.0 L 88.0,107.0 L 83.0,108.0 L 83.0,98.0" fill="#EBEBEB"/>
	<path d="M 85.0,97.0 L 90.0,99.0 L 97.0,104.0 L 94.0,107.0 L 89.0,109.0 L 91.0,104.0 L 84.0,99.0 L 85.0,97.0" fill="#161616"/>
	<path d="M 78.0,89.0 L 85.0,93.0 L 84.0,96.0 L 82.0,95.0 L 81.0,113.0 L 80.0,113.0 L 79.0,94.0 L 78.0,94.0 L 78.0,89.0" fill="#B3B3B3"/>
	<path d="M 88.0,106.0 L 90.0,107.0 L 87.0,110.0 L 81.0,112.0 L 81.0,109.0 L 88.0,106.0" fill="#0D0D0D"/>
</svg>
