<?xml version="1.0" ?>
<svg baseProfile="full" height="600px" version="1.1" viewBox="-9.648000000000001 -9.648000000000001 115.296 115.296" width="600px" xmlns="http://www.w3.org/2000/svg" xmlns:ev="http://www.w3.org/2001/xml-events" xmlns:xlink="http://www.w3.org/1999/xlink">
	<defs/>
	<path d="M 0.0,0.0 L 96.0,0.0 L 96.0,96.0 L 0.0,96.0 L 0.0,0.0" fill="#6C6C6C"/>
	<path d="M 0.0,0.0 L 96.0,0.0 L 96.0,96.0 L 0.0,96.0 L 0.0,0.0 M 40.0,4.0 L 28.0,8.0 L 17.0,16.0 L 10.0,25.0 L 6.0,33.0 L 4.0,40.0 L 4.0,53.0 L 7.0,65.0 L 12.0,74.0 L 19.0,82.0 L 30.0,89.0 L 41.0,92.0 L 54.0,92.0 L 67.0,88.0 L 77.0,82.0 L 85.0,73.0 L 90.0,62.0 L 92.0,54.0 L 92.0,41.0 L 89.0,30.0 L 83.0,21.0 L 78.0,22.0 L 73.0,17.0 L 68.0,13.0 L 58.0,9.0 L 48.0,8.0 L 48.0,4.0 L 40.0,4.0" fill="#FBFBFB"/>
	<path d="M 40.0,4.0 L 48.0,4.0 L 48.0,13.0 L 37.0,15.0 L 27.0,20.0 L 20.0,27.0 L 15.0,37.0 L 14.0,40.0 L 14.0,55.0 L 18.0,65.0 L 22.0,71.0 L 29.0,77.0 L 37.0,81.0 L 40.0,82.0 L 54.0,82.0 L 65.0,78.0 L 73.0,72.0 L 79.0,63.0 L 82.0,54.0 L 82.0,40.0 L 78.0,31.0 L 76.0,25.0 L 81.0,21.0 L 85.0,23.0 L 90.0,33.0 L 92.0,41.0 L 92.0,54.0 L 88.0,67.0 L 82.0,77.0 L 73.0,85.0 L 62.0,90.0 L 54.0,92.0 L 41.0,92.0 L 28.0,88.0 L 17.0,80.0 L 10.0,71.0 L 5.0,59.0 L 4.0,53.0 L 4.0,40.0 L 8.0,28.0 L 16.0,17.0 L 25.0,10.0 L 33.0,6.0 L 40.0,4.0" fill="#050505"/>
	<path d="M 40.0,31.0 L 44.0,33.0 L 63.0,47.0 L 62.0,50.0 L 43.0,64.0 L 40.0,65.0 L 40.0,31.0" fill="#010101"/>
</svg>
