<?xml version="1.0" ?>
<svg baseProfile="full" height="600px" version="1.1" viewBox="-20.1 -20.1 240.2 240.2" width="600px" xmlns="http://www.w3.org/2000/svg" xmlns:ev="http://www.w3.org/2001/xml-events" xmlns:xlink="http://www.w3.org/1999/xlink">
	<defs/>
	<path d="M 0.0,0.0 L 200.0,0.0 L 200.0,200.0 L 0.0,200.0 L 0.0,0.0" fill="#FDFDFD"/>
	<path d="M 192.0,20.0 L 196.0,20.0 L 196.0,28.0 L 187.0,30.0 L 178.0,36.0 L 169.0,50.0 L 161.0,70.0 L 145.0,125.0 L 138.0,145.0 L 130.0,161.0 L 122.0,172.0 L 113.0,178.0 L 108.0,180.0 L 99.0,180.0 L 89.0,175.0 L 82.0,169.0 L 73.0,155.0 L 65.0,137.0 L 53.0,101.0 L 48.0,87.0 L 48.0,83.0 L 55.0,81.0 L 70.0,124.0 L 78.0,144.0 L 87.0,161.0 L 92.0,167.0 L 99.0,171.0 L 110.0,171.0 L 116.0,167.0 L 122.0,159.0 L 129.0,143.0 L 136.0,122.0 L 142.0,99.0 L 151.0,70.0 L 160.0,49.0 L 169.0,35.0 L 178.0,26.0 L 187.0,21.0 L 192.0,20.0" fill="#080808"/>
	<path d="M 0.0,16.0 L 8.0,16.0 L 8.0,96.0 L 44.0,96.0 L 46.0,104.0 L 8.0,104.0 L 8.0,184.0 L 0.0,184.0 L 0.0,16.0" fill="#010101"/>
	<path d="M 69.0,96.0 L 135.0,96.0 L 134.0,104.0 L 71.0,104.0 L 69.0,99.0 L 69.0,96.0" fill="#010101"/>
	<path d="M 160.0,96.0 L 200.0,96.0 L 200.0,104.0 L 159.0,104.0 L 160.0,96.0" fill="#010101"/>
</svg>
