<?xml version="1.0" ?>
<svg baseProfile="full" height="600px" version="1.1" viewBox="-20.1 -20.1 240.2 240.2" width="600px" xmlns="http://www.w3.org/2000/svg" xmlns:ev="http://www.w3.org/2001/xml-events" xmlns:xlink="http://www.w3.org/1999/xlink">
	<defs/>
	<path d="M 0.0,0.0 L 200.0,0.0 L 200.0,200.0 L 0.0,200.0 L 0.0,0.0" fill="#FDFDFD"/>
	<path d="M 0.0,16.0 L 8.0,16.0 L 8.0,21.0 L 15.0,22.0 L 25.0,28.0 L 33.0,36.0 L 42.0,50.0 L 52.0,71.0 L 61.0,96.0 L 76.0,140.0 L 85.0,159.0 L 94.0,169.0 L 98.0,171.0 L 110.0,171.0 L 116.0,167.0 L 122.0,159.0 L 129.0,143.0 L 136.0,122.0 L 142.0,99.0 L 151.0,70.0 L 160.0,49.0 L 169.0,35.0 L 178.0,26.0 L 187.0,21.0 L 196.0,20.0 L 196.0,28.0 L 187.0,30.0 L 178.0,36.0 L 169.0,50.0 L 161.0,70.0 L 145.0,125.0 L 138.0,145.0 L 130.0,161.0 L 122.0,172.0 L 113.0,178.0 L 108.0,180.0 L 101.0,180.0 L 91.0,176.0 L 81.0,167.0 L 73.0,154.0 L 66.0,140.0 L 56.0,112.0 L 43.0,74.0 L 33.0,51.0 L 25.0,39.0 L 16.0,31.0 L 8.0,28.0 L 8.0,96.0 L 43.0,96.0 L 45.0,100.0 L 45.0,104.0 L 8.0,104.0 L 8.0,184.0 L 0.0,184.0 L 0.0,16.0" fill="#050505"/>
	<path d="M 69.0,96.0 L 135.0,96.0 L 134.0,104.0 L 71.0,104.0 L 69.0,99.0 L 69.0,96.0" fill="#010101"/>
	<path d="M 160.0,96.0 L 200.0,96.0 L 200.0,104.0 L 159.0,104.0 L 160.0,96.0" fill="#010101"/>
</svg>
