<?xml version="1.0" ?>
<svg baseProfile="full" height="600px" version="1.1" viewBox="-20.1 -20.1 240.2 240.2" width="600px" xmlns="http://www.w3.org/2000/svg" xmlns:ev="http://www.w3.org/2001/xml-events" xmlns:xlink="http://www.w3.org/1999/xlink">
	<defs/>
	<path d="M 0.0,0.0 L 200.0,0.0 L 200.0,200.0 L 0.0,200.0 L 0.0,0.0" fill="#FDFDFD"/>
	<path d="M 8.0,104.0 L 200.0,104.0 L 200.0,200.0 L 0.0,200.0 L 0.0,184.0 L 8.0,184.0 L 8.0,104.0" fill="#FDFDFD"/>
	<path d="M 0.0,16.0 L 8.0,16.0 L 8.0,96.0 L 200.0,96.0 L 200.0,104.0 L 8.0,104.0 L 8.0,184.0 L 0.0,184.0 L 0.0,16.0" fill="#000000"/>
	<path d="M 191.0,20.0 L 196.0,20.0 L 196.0,28.0 L 188.0,30.0 L 179.0,36.0 L 173.0,44.0 L 165.0,59.0 L 158.0,79.0 L 151.0,78.0 L 150.0,74.0 L 158.0,53.0 L 166.0,38.0 L 175.0,28.0 L 184.0,22.0 L 191.0,20.0" fill="#080808"/>
</svg>
