<?xml version="1.0" ?>
<svg baseProfile="full" height="600px" version="1.1" viewBox="-19.296000000000003 -19.296000000000003 230.592 230.592" width="600px" xmlns="http://www.w3.org/2000/svg" xmlns:ev="http://www.w3.org/2001/xml-events" xmlns:xlink="http://www.w3.org/1999/xlink">
	<defs/>
	<path d="M 0.0,0.0 L 192.0,0.0 L 192.0,192.0 L 0.0,192.0 L 0.0,0.0" fill="#FDFEFD"/>
	<path d="M 88.0,22.0 L 105.0,22.0 L 121.0,26.0 L 137.0,34.0 L 148.0,43.0 L 156.0,52.0 L 164.0,66.0 L 169.0,81.0 L 170.0,87.0 L 170.0,102.0 L 168.0,115.0 L 162.0,130.0 L 155.0,141.0 L 145.0,152.0 L 132.0,161.0 L 120.0,166.0 L 115.0,168.0 L 102.0,170.0 L 87.0,170.0 L 71.0,166.0 L 55.0,158.0 L 44.0,149.0 L 36.0,140.0 L 28.0,126.0 L 24.0,115.0 L 22.0,103.0 L 22.0,88.0 L 25.0,74.0 L 32.0,58.0 L 42.0,45.0 L 52.0,36.0 L 66.0,28.0 L 81.0,23.0 L 88.0,22.0" fill="#4EB051"/>
	<path d="M 86.0,62.0 L 106.0,62.0 L 106.0,86.0 L 130.0,86.0 L 130.0,106.0 L 106.0,106.0 L 106.0,130.0 L 86.0,130.0 L 86.0,106.0 L 62.0,106.0 L 62.0,86.0 L 86.0,86.0 L 86.0,62.0" fill="#FCFDFC"/>
</svg>
