<?xml version="1.0" ?>
<svg baseProfile="full" height="600px" version="1.1" viewBox="-19.296000000000003 -19.296000000000003 230.592 230.592" width="600px" xmlns="http://www.w3.org/2000/svg" xmlns:ev="http://www.w3.org/2001/xml-events" xmlns:xlink="http://www.w3.org/1999/xlink">
	<defs/>
	<path d="M 0.0,0.0 L 192.0,0.0 L 192.0,192.0 L 0.0,192.0 L 0.0,0.0" fill="#4EB052"/>
	<path d="M 0.0,0.0 L 192.0,0.0 L 192.0,192.0 L 0.0,192.0 L 0.0,0.0 M 85.0,19.0 L 69.0,23.0 L 55.0,30.0 L 42.0,40.0 L 34.0,49.0 L 26.0,62.0 L 21.0,75.0 L 19.0,85.0 L 19.0,108.0 L 24.0,125.0 L 30.0,137.0 L 40.0,150.0 L 49.0,158.0 L 62.0,166.0 L 75.0,171.0 L 84.0,173.0 L 105.0,173.0 L 117.0,171.0 L 130.0,166.0 L 144.0,157.0 L 154.0,148.0 L 164.0,134.0 L 171.0,117.0 L 173.0,105.0 L 173.0,84.0 L 169.0,69.0 L 162.0,55.0 L 152.0,42.0 L 143.0,34.0 L 130.0,26.0 L 113.0,20.0 L 108.0,19.0 L 85.0,19.0" fill="#FDFEFD"/>
	<path d="M 85.0,59.0 L 107.0,59.0 L 107.0,85.0 L 133.0,85.0 L 133.0,107.0 L 107.0,107.0 L 107.0,133.0 L 85.0,133.0 L 85.0,107.0 L 59.0,107.0 L 59.0,85.0 L 85.0,85.0 L 85.0,59.0" fill="#FDFEFD"/>
</svg>
