<?xml version="1.0" ?>
<svg baseProfile="full" height="600px" version="1.1" viewBox="-19.296000000000003 -19.296000000000003 230.592 230.592" width="600px" xmlns="http://www.w3.org/2000/svg" xmlns:ev="http://www.w3.org/2001/xml-events" xmlns:xlink="http://www.w3.org/1999/xlink">
	<defs/>
	<path d="M 0.0,0.0 L 192.0,0.0 L 192.0,192.0 L 0.0,192.0 L 0.0,0.0" fill="#4DAF51"/>
	<path d="M 0.0,0.0 L 192.0,0.0 L 192.0,192.0 L 0.0,192.0 L 0.0,0.0 M 86.0,17.0 L 70.0,21.0 L 54.0,29.0 L 43.0,37.0 L 35.0,45.0 L 26.0,59.0 L 21.0,70.0 L 17.0,86.0 L 17.0,102.0 L 20.0,118.0 L 25.0,131.0 L 32.0,143.0 L 44.0,156.0 L 57.0,165.0 L 70.0,171.0 L 86.0,175.0 L 105.0,175.0 L 121.0,171.0 L 133.0,166.0 L 144.0,159.0 L 156.0,148.0 L 165.0,135.0 L 170.0,124.0 L 175.0,105.0 L 175.0,86.0 L 170.0,67.0 L 162.0,52.0 L 153.0,41.0 L 143.0,32.0 L 129.0,24.0 L 114.0,19.0 L 103.0,17.0 L 86.0,17.0" fill="#FDFEFD"/>
	<path d="M 84.0,57.0 L 108.0,57.0 L 108.0,84.0 L 135.0,84.0 L 135.0,108.0 L 108.0,108.0 L 108.0,135.0 L 84.0,135.0 L 84.0,108.0 L 57.0,108.0 L 57.0,84.0 L 84.0,84.0 L 84.0,57.0" fill="#F8FBF8"/>
</svg>
