<?xml version="1.0" ?>
<svg baseProfile="full" height="600px" version="1.1" viewBox="-16.08 -16.08 192.16 192.16" width="600px" xmlns="http://www.w3.org/2000/svg" xmlns:ev="http://www.w3.org/2001/xml-events" xmlns:xlink="http://www.w3.org/1999/xlink">
	<defs/>
	<path d="M 0.0,0.0 L 160.0,0.0 L 160.0,160.0 L 0.0,160.0 L 0.0,0.0" fill="#AFC0D2"/>
	<path d="M 0.0,0.0 L 160.0,0.0 L 160.0,160.0 L 116.0,160.0 L 116.0,126.0 L 123.0,123.0 L 127.0,118.0 L 128.0,114.0 L 137.0,112.0 L 139.0,108.0 L 139.0,23.0 L 135.0,19.0 L 128.0,18.0 L 125.0,9.0 L 119.0,7.0 L 32.0,7.0 L 27.0,10.0 L 25.0,14.0 L 25.0,117.0 L 28.0,122.0 L 32.0,125.0 L 36.0,126.0 L 36.0,160.0 L 0.0,160.0 L 0.0,0.0" fill="#FDFDFD"/>
	<path d="M 32.0,6.0 L 119.0,6.0 L 125.0,9.0 L 128.0,14.0 L 128.0,18.0 L 135.0,18.0 L 140.0,23.0 L 140.0,108.0 L 137.0,113.0 L 128.0,114.0 L 127.0,120.0 L 120.0,126.0 L 116.0,126.0 L 116.0,160.0 L 36.0,160.0 L 36.0,126.0 L 30.0,125.0 L 25.0,120.0 L 24.0,117.0 L 24.0,14.0 L 28.0,8.0 L 32.0,6.0 M 33.0,10.0 L 28.0,15.0 L 28.0,116.0 L 31.0,121.0 L 33.0,122.0 L 119.0,122.0 L 124.0,117.0 L 124.0,15.0 L 121.0,11.0 L 118.0,10.0 L 33.0,10.0" fill="#66798E"/>
	<path d="M 36.0,126.0 L 88.0,126.0 L 88.0,160.0 L 36.0,160.0 L 36.0,126.0" fill="#F58D8D"/>
	<path d="M 40.0,22.0 L 112.0,22.0 L 112.0,46.0 L 40.0,46.0 L 40.0,22.0" fill="#B7DEBB"/>
	<path d="M 132.0,18.0 L 137.0,19.0 L 140.0,23.0 L 140.0,108.0 L 137.0,113.0 L 132.0,114.0 L 132.0,18.0" fill="#66798E"/>
	<path d="M 40.0,22.0 L 112.0,22.0 L 112.0,46.0 L 40.0,46.0 L 40.0,22.0 M 44.0,26.0 L 44.0,42.0 L 108.0,42.0 L 108.0,26.0 L 44.0,26.0" fill="#5F9D77"/>
	<path d="M 100.0,126.0 L 116.0,126.0 L 116.0,160.0 L 100.0,160.0 L 100.0,126.0" fill="#F58D8D"/>
	<path d="M 32.0,6.0 L 119.0,6.0 L 125.0,9.0 L 128.0,14.0 L 128.0,19.0 L 123.0,15.0 L 121.0,12.0 L 118.0,11.0 L 33.0,11.0 L 29.0,15.0 L 24.0,16.0 L 26.0,10.0 L 32.0,6.0" fill="#677A8F"/>
	<path d="M 88.0,126.0 L 100.0,126.0 L 100.0,160.0 L 88.0,160.0 L 88.0,126.0" fill="#36414E"/>
	<path d="M 128.0,18.0 L 132.0,18.0 L 132.0,114.0 L 128.0,114.0 L 128.0,18.0" fill="#36414E"/>
	<path d="M 132.0,22.0 L 136.0,24.0 L 136.0,107.0 L 134.0,110.0 L 132.0,110.0 L 132.0,22.0" fill="#919EAF"/>
	<path d="M 112.0,126.0 L 116.0,126.0 L 116.0,160.0 L 112.0,160.0 L 112.0,126.0" fill="#C74444"/>
	<path d="M 36.0,126.0 L 40.0,126.0 L 40.0,160.0 L 36.0,160.0 L 36.0,126.0" fill="#C74444"/>
	<path d="M 104.0,102.0 L 112.0,102.0 L 112.0,110.0 L 104.0,110.0 L 104.0,102.0" fill="#FDFDFD"/>
	<path d="M 88.0,102.0 L 96.0,102.0 L 96.0,110.0 L 88.0,110.0 L 88.0,102.0" fill="#FDFDFD"/>
	<path d="M 72.0,102.0 L 80.0,102.0 L 80.0,110.0 L 72.0,110.0 L 72.0,102.0" fill="#FDFDFD"/>
	<path d="M 56.0,102.0 L 64.0,102.0 L 64.0,110.0 L 56.0,110.0 L 56.0,102.0" fill="#FDFDFD"/>
	<path d="M 40.0,102.0 L 48.0,102.0 L 48.0,110.0 L 40.0,110.0 L 40.0,102.0" fill="#FDFDFD"/>
	<path d="M 104.0,86.0 L 112.0,86.0 L 112.0,94.0 L 104.0,94.0 L 104.0,86.0" fill="#B8DEBC"/>
	<path d="M 88.0,86.0 L 96.0,86.0 L 96.0,94.0 L 88.0,94.0 L 88.0,86.0" fill="#FDFDFD"/>
	<path d="M 72.0,86.0 L 80.0,86.0 L 80.0,94.0 L 72.0,94.0 L 72.0,86.0" fill="#FDFDFD"/>
	<path d="M 56.0,86.0 L 64.0,86.0 L 64.0,94.0 L 56.0,94.0 L 56.0,86.0" fill="#FDFDFD"/>
	<path d="M 40.0,86.0 L 48.0,86.0 L 48.0,94.0 L 40.0,94.0 L 40.0,86.0" fill="#FDFDFD"/>
	<path d="M 104.0,70.0 L 112.0,70.0 L 112.0,78.0 L 104.0,78.0 L 104.0,70.0" fill="#FEEDA3"/>
	<path d="M 88.0,70.0 L 96.0,70.0 L 96.0,78.0 L 88.0,78.0 L 88.0,70.0" fill="#FDFDFD"/>
	<path d="M 72.0,70.0 L 80.0,70.0 L 80.0,78.0 L 72.0,78.0 L 72.0,70.0" fill="#FDFDFD"/>
	<path d="M 56.0,70.0 L 64.0,70.0 L 64.0,78.0 L 56.0,78.0 L 56.0,70.0" fill="#FDFDFD"/>
	<path d="M 40.0,70.0 L 48.0,70.0 L 48.0,78.0 L 40.0,78.0 L 40.0,70.0" fill="#FDFDFD"/>
	<path d="M 104.0,54.0 L 112.0,54.0 L 112.0,62.0 L 104.0,62.0 L 104.0,54.0" fill="#F58D8E"/>
	<path d="M 88.0,54.0 L 96.0,54.0 L 96.0,62.0 L 88.0,62.0 L 88.0,54.0" fill="#FDFDFD"/>
	<path d="M 72.0,54.0 L 80.0,54.0 L 80.0,62.0 L 72.0,62.0 L 72.0,54.0" fill="#FDFDFD"/>
	<path d="M 56.0,54.0 L 64.0,54.0 L 64.0,62.0 L 56.0,62.0 L 56.0,54.0" fill="#FDFDFD"/>
	<path d="M 40.0,54.0 L 48.0,54.0 L 48.0,62.0 L 40.0,62.0 L 40.0,54.0" fill="#FDFDFD"/>
	<path d="M 32.0,6.0 L 34.0,7.0 L 33.0,11.0 L 29.0,15.0 L 24.0,16.0 L 26.0,10.0 L 32.0,6.0" fill="#6E8094"/>
	<path d="M 132.0,18.0 L 137.0,19.0 L 140.0,23.0 L 140.0,25.0 L 135.0,24.0 L 132.0,22.0 L 132.0,18.0" fill="#6D7F93"/>
	<path d="M 27.0,9.0 L 29.0,12.0 L 29.0,15.0 L 24.0,16.0 L 26.0,10.0 L 27.0,9.0" fill="#76879A"/>
	<path d="M 124.0,112.0 L 127.0,114.0 L 127.0,119.0 L 124.0,119.0 L 124.0,112.0" fill="#64778D"/>
	<path d="M 134.0,109.0 L 136.0,109.0 L 136.0,113.0 L 132.0,114.0 L 132.0,110.0 L 134.0,109.0" fill="#687B90"/>
</svg>
