<?xml version="1.0" ?>
<svg baseProfile="full" height="600px" version="1.1" viewBox="-20.1 -20.1 240.2 240.2" width="600px" xmlns="http://www.w3.org/2000/svg" xmlns:ev="http://www.w3.org/2001/xml-events" xmlns:xlink="http://www.w3.org/1999/xlink">
	<defs/>
	<path d="M 0.0,0.0 L 200.0,0.0 L 200.0,200.0 L 0.0,200.0 L 0.0,0.0" fill="#FCFCFC"/>
	<path d="M 47.0,12.0 L 141.0,12.0 L 147.0,17.0 L 148.0,19.0 L 148.0,135.0 L 145.0,141.0 L 139.0,144.0 L 49.0,144.0 L 43.0,140.0 L 41.0,136.0 L 41.0,18.0 L 46.0,13.0 L 47.0,12.0" fill="#F5F5F5"/>
	<path d="M 47.0,12.0 L 141.0,12.0 L 147.0,17.0 L 148.0,19.0 L 148.0,135.0 L 145.0,141.0 L 139.0,144.0 L 49.0,144.0 L 43.0,140.0 L 41.0,136.0 L 41.0,18.0 L 46.0,13.0 L 47.0,12.0 M 50.0,20.0 L 49.0,21.0 L 49.0,134.0 L 51.0,136.0 L 138.0,136.0 L 140.0,134.0 L 140.0,21.0 L 139.0,20.0 L 50.0,20.0" fill="#070707"/>
	<path d="M 61.0,28.0 L 127.0,28.0 L 132.0,33.0 L 132.0,62.0 L 128.0,67.0 L 126.0,68.0 L 62.0,68.0 L 57.0,64.0 L 56.0,61.0 L 56.0,33.0 L 61.0,28.0" fill="#090909"/>
	<path d="M 56.0,151.0 L 64.0,151.0 L 65.0,186.0 L 68.0,189.0 L 92.0,190.0 L 92.0,151.0 L 112.0,151.0 L 112.0,190.0 L 122.0,188.0 L 123.0,186.0 L 124.0,152.0 L 132.0,152.0 L 132.0,187.0 L 129.0,193.0 L 124.0,197.0 L 122.0,198.0 L 66.0,198.0 L 60.0,194.0 L 56.0,188.0 L 56.0,151.0" fill="#070707"/>
	<path d="M 64.0,36.0 L 124.0,36.0 L 124.0,60.0 L 64.0,60.0 L 64.0,36.0" fill="#F8F8F8"/>
	<path d="M 157.0,48.0 L 163.0,48.0 L 164.0,50.0 L 164.0,130.0 L 163.0,132.0 L 157.0,132.0 L 156.0,130.0 L 156.0,50.0 L 157.0,48.0" fill="#010101"/>
	<path d="M 113.0,116.0 L 131.0,116.0 L 132.0,117.0 L 132.0,126.0 L 130.0,128.0 L 113.0,128.0 L 112.0,127.0 L 112.0,117.0 L 113.0,116.0" fill="#080808"/>
	<path d="M 85.0,116.0 L 103.0,116.0 L 104.0,117.0 L 104.0,126.0 L 102.0,128.0 L 85.0,128.0 L 84.0,127.0 L 84.0,117.0 L 85.0,116.0" fill="#080808"/>
	<path d="M 57.0,116.0 L 75.0,116.0 L 76.0,117.0 L 76.0,126.0 L 74.0,128.0 L 57.0,128.0 L 56.0,127.0 L 56.0,117.0 L 57.0,116.0" fill="#080808"/>
	<path d="M 113.0,96.0 L 131.0,96.0 L 132.0,97.0 L 132.0,106.0 L 130.0,108.0 L 113.0,108.0 L 112.0,107.0 L 112.0,97.0 L 113.0,96.0" fill="#080808"/>
	<path d="M 85.0,96.0 L 103.0,96.0 L 104.0,97.0 L 104.0,106.0 L 102.0,108.0 L 85.0,108.0 L 84.0,107.0 L 84.0,97.0 L 85.0,96.0" fill="#080808"/>
	<path d="M 57.0,96.0 L 75.0,96.0 L 76.0,97.0 L 76.0,106.0 L 74.0,108.0 L 57.0,108.0 L 56.0,107.0 L 56.0,97.0 L 57.0,96.0" fill="#080808"/>
	<path d="M 113.0,76.0 L 131.0,76.0 L 132.0,77.0 L 132.0,86.0 L 130.0,88.0 L 113.0,88.0 L 112.0,87.0 L 112.0,77.0 L 113.0,76.0" fill="#080808"/>
	<path d="M 85.0,76.0 L 103.0,76.0 L 104.0,77.0 L 104.0,86.0 L 102.0,88.0 L 85.0,88.0 L 84.0,87.0 L 84.0,77.0 L 85.0,76.0" fill="#080808"/>
	<path d="M 57.0,76.0 L 75.0,76.0 L 76.0,77.0 L 76.0,86.0 L 74.0,88.0 L 57.0,88.0 L 56.0,87.0 L 56.0,77.0 L 57.0,76.0" fill="#080808"/>
</svg>
