<?xml version="1.0" ?>
<svg baseProfile="full" height="600px" version="1.1" viewBox="-20.1 -20.1 240.2 240.2" width="600px" xmlns="http://www.w3.org/2000/svg" xmlns:ev="http://www.w3.org/2001/xml-events" xmlns:xlink="http://www.w3.org/1999/xlink">
	<defs/>
	<path d="M 0.0,0.0 L 200.0,0.0 L 200.0,200.0 L 0.0,200.0 L 0.0,0.0" fill="#FDFDFD"/>
	<path d="M 48.0,16.0 L 141.0,16.0 L 147.0,21.0 L 148.0,23.0 L 148.0,140.0 L 145.0,145.0 L 140.0,148.0 L 48.0,148.0 L 42.0,143.0 L 41.0,140.0 L 41.0,23.0 L 46.0,17.0 L 48.0,16.0" fill="#FBFBFB"/>
	<path d="M 48.0,16.0 L 141.0,16.0 L 147.0,21.0 L 148.0,23.0 L 148.0,140.0 L 145.0,145.0 L 140.0,148.0 L 48.0,148.0 L 42.0,143.0 L 41.0,140.0 L 41.0,23.0 L 46.0,17.0 L 48.0,16.0 M 50.0,24.0 L 49.0,25.0 L 49.0,139.0 L 50.0,140.0 L 138.0,140.0 L 140.0,138.0 L 140.0,25.0 L 138.0,24.0 L 50.0,24.0" fill="#020202"/>
	<path d="M 61.0,32.0 L 126.0,32.0 L 130.0,34.0 L 132.0,37.0 L 132.0,66.0 L 130.0,70.0 L 126.0,72.0 L 61.0,72.0 L 57.0,68.0 L 56.0,66.0 L 56.0,37.0 L 61.0,32.0" fill="#010101"/>
	<path d="M 64.0,40.0 L 124.0,40.0 L 124.0,64.0 L 64.0,64.0 L 64.0,40.0" fill="#FDFDFD"/>
	<path d="M 158.0,52.0 L 163.0,53.0 L 164.0,54.0 L 164.0,135.0 L 162.0,137.0 L 157.0,136.0 L 156.0,135.0 L 156.0,54.0 L 158.0,52.0" fill="#020202"/>
	<path d="M 113.0,120.0 L 131.0,120.0 L 132.0,121.0 L 132.0,131.0 L 131.0,132.0 L 113.0,132.0 L 112.0,131.0 L 112.0,121.0 L 113.0,120.0" fill="#030303"/>
	<path d="M 85.0,120.0 L 103.0,120.0 L 104.0,121.0 L 104.0,131.0 L 103.0,132.0 L 85.0,132.0 L 84.0,131.0 L 84.0,121.0 L 85.0,120.0" fill="#030303"/>
	<path d="M 57.0,120.0 L 75.0,120.0 L 76.0,121.0 L 76.0,131.0 L 75.0,132.0 L 57.0,132.0 L 56.0,131.0 L 56.0,121.0 L 57.0,120.0" fill="#030303"/>
	<path d="M 113.0,100.0 L 131.0,100.0 L 132.0,101.0 L 132.0,111.0 L 131.0,112.0 L 113.0,112.0 L 112.0,111.0 L 112.0,101.0 L 113.0,100.0" fill="#030303"/>
	<path d="M 85.0,100.0 L 103.0,100.0 L 104.0,101.0 L 104.0,111.0 L 103.0,112.0 L 85.0,112.0 L 84.0,111.0 L 84.0,101.0 L 85.0,100.0" fill="#030303"/>
	<path d="M 57.0,100.0 L 75.0,100.0 L 76.0,101.0 L 76.0,111.0 L 75.0,112.0 L 57.0,112.0 L 56.0,111.0 L 56.0,101.0 L 57.0,100.0" fill="#030303"/>
	<path d="M 113.0,80.0 L 131.0,80.0 L 132.0,81.0 L 132.0,91.0 L 131.0,92.0 L 113.0,92.0 L 112.0,91.0 L 112.0,81.0 L 113.0,80.0" fill="#030303"/>
	<path d="M 85.0,80.0 L 103.0,80.0 L 104.0,81.0 L 104.0,91.0 L 103.0,92.0 L 85.0,92.0 L 84.0,91.0 L 84.0,81.0 L 85.0,80.0" fill="#030303"/>
	<path d="M 57.0,80.0 L 75.0,80.0 L 76.0,81.0 L 76.0,91.0 L 75.0,92.0 L 57.0,92.0 L 56.0,91.0 L 56.0,81.0 L 57.0,80.0" fill="#030303"/>
</svg>
