<?xml version="1.0" ?>
<svg baseProfile="full" height="600px" version="1.1" viewBox="-16.08 -16.08 192.16 192.16" width="600px" xmlns="http://www.w3.org/2000/svg" xmlns:ev="http://www.w3.org/2001/xml-events" xmlns:xlink="http://www.w3.org/1999/xlink">
	<defs/>
	<path d="M 0.0,0.0 L 160.0,0.0 L 160.0,160.0 L 0.0,160.0 L 0.0,0.0" fill="#AFC0D3"/>
	<path d="M 0.0,0.0 L 160.0,0.0 L 160.0,160.0 L 0.0,160.0 L 0.0,0.0 M 32.0,4.0 L 27.0,7.0 L 24.0,12.0 L 24.0,115.0 L 27.0,120.0 L 32.0,124.0 L 36.0,124.0 L 36.0,141.0 L 39.0,146.0 L 42.0,148.0 L 109.0,148.0 L 114.0,145.0 L 116.0,142.0 L 116.0,124.0 L 122.0,123.0 L 127.0,118.0 L 128.0,112.0 L 137.0,111.0 L 140.0,106.0 L 140.0,21.0 L 135.0,16.0 L 128.0,16.0 L 127.0,10.0 L 122.0,5.0 L 119.0,4.0 L 32.0,4.0" fill="#FDFDFD"/>
	<path d="M 32.0,4.0 L 119.0,4.0 L 125.0,7.0 L 128.0,12.0 L 128.0,16.0 L 135.0,16.0 L 140.0,21.0 L 140.0,106.0 L 137.0,111.0 L 128.0,112.0 L 127.0,118.0 L 122.0,123.0 L 116.0,124.0 L 116.0,142.0 L 111.0,147.0 L 109.0,148.0 L 42.0,148.0 L 37.0,143.0 L 36.0,141.0 L 36.0,124.0 L 30.0,123.0 L 25.0,118.0 L 24.0,115.0 L 24.0,12.0 L 27.0,7.0 L 32.0,4.0 M 33.0,8.0 L 28.0,13.0 L 28.0,114.0 L 31.0,119.0 L 33.0,120.0 L 118.0,120.0 L 122.0,118.0 L 124.0,114.0 L 124.0,13.0 L 120.0,9.0 L 118.0,8.0 L 33.0,8.0" fill="#65788E"/>
	<path d="M 40.0,20.0 L 112.0,20.0 L 112.0,44.0 L 40.0,44.0 L 40.0,20.0" fill="#B8DEBB"/>
	<path d="M 124.0,12.0 L 128.0,14.0 L 128.0,16.0 L 135.0,16.0 L 140.0,21.0 L 140.0,106.0 L 137.0,111.0 L 128.0,112.0 L 127.0,118.0 L 122.0,123.0 L 118.0,122.0 L 118.0,119.0 L 122.0,118.0 L 123.0,114.0 L 124.0,12.0" fill="#65788E"/>
	<path d="M 40.0,124.0 L 88.0,124.0 L 88.0,144.0 L 44.0,144.0 L 40.0,140.0 L 40.0,124.0" fill="#F58D8D"/>
	<path d="M 132.0,16.0 L 137.0,17.0 L 140.0,21.0 L 140.0,106.0 L 137.0,111.0 L 132.0,112.0 L 132.0,16.0" fill="#65788E"/>
	<path d="M 40.0,20.0 L 112.0,20.0 L 112.0,44.0 L 40.0,44.0 L 40.0,20.0 M 44.0,24.0 L 44.0,40.0 L 108.0,40.0 L 108.0,24.0 L 44.0,24.0" fill="#5E9C76"/>
	<path d="M 36.0,124.0 L 40.0,124.0 L 41.0,140.0 L 44.0,143.0 L 88.0,144.0 L 88.0,124.0 L 100.0,124.0 L 100.0,144.0 L 110.0,142.0 L 111.0,140.0 L 112.0,124.0 L 116.0,124.0 L 116.0,142.0 L 111.0,147.0 L 109.0,148.0 L 42.0,148.0 L 37.0,143.0 L 36.0,141.0 L 36.0,124.0" fill="#36414E"/>
	<path d="M 34.0,120.0 L 119.0,120.0 L 119.0,124.0 L 112.0,124.0 L 112.0,140.0 L 108.0,144.0 L 100.0,144.0 L 100.0,124.0 L 34.0,124.0 L 34.0,120.0" fill="#65788E"/>
	<path d="M 128.0,16.0 L 132.0,16.0 L 132.0,112.0 L 128.0,112.0 L 128.0,16.0" fill="#36414E"/>
	<path d="M 132.0,20.0 L 136.0,22.0 L 136.0,106.0 L 132.0,108.0 L 132.0,20.0" fill="#919EAF"/>
	<path d="M 36.0,124.0 L 40.0,124.0 L 41.0,140.0 L 44.0,143.0 L 88.0,144.0 L 88.0,148.0 L 42.0,148.0 L 37.0,143.0 L 36.0,141.0 L 36.0,124.0" fill="#C74545"/>
	<path d="M 100.0,124.0 L 112.0,124.0 L 112.0,140.0 L 108.0,144.0 L 100.0,144.0 L 100.0,124.0" fill="#F58D8D"/>
	<path d="M 112.0,124.0 L 116.0,124.0 L 116.0,142.0 L 111.0,147.0 L 109.0,148.0 L 100.0,148.0 L 100.0,144.0 L 110.0,142.0 L 111.0,140.0 L 112.0,124.0" fill="#C84747"/>
	<path d="M 104.0,100.0 L 112.0,100.0 L 112.0,108.0 L 104.0,108.0 L 104.0,100.0" fill="#FDFDFE"/>
	<path d="M 88.0,100.0 L 96.0,100.0 L 96.0,108.0 L 88.0,108.0 L 88.0,100.0" fill="#FDFDFE"/>
	<path d="M 72.0,100.0 L 80.0,100.0 L 80.0,108.0 L 72.0,108.0 L 72.0,100.0" fill="#FDFDFE"/>
	<path d="M 56.0,100.0 L 64.0,100.0 L 64.0,108.0 L 56.0,108.0 L 56.0,100.0" fill="#FDFDFE"/>
	<path d="M 40.0,100.0 L 48.0,100.0 L 48.0,108.0 L 40.0,108.0 L 40.0,100.0" fill="#FDFDFE"/>
	<path d="M 104.0,84.0 L 112.0,84.0 L 112.0,92.0 L 104.0,92.0 L 104.0,84.0" fill="#B8DEBC"/>
	<path d="M 88.0,84.0 L 96.0,84.0 L 96.0,92.0 L 88.0,92.0 L 88.0,84.0" fill="#FDFDFE"/>
	<path d="M 72.0,84.0 L 80.0,84.0 L 80.0,92.0 L 72.0,92.0 L 72.0,84.0" fill="#FDFDFE"/>
	<path d="M 56.0,84.0 L 64.0,84.0 L 64.0,92.0 L 56.0,92.0 L 56.0,84.0" fill="#FDFDFE"/>
	<path d="M 40.0,84.0 L 48.0,84.0 L 48.0,92.0 L 40.0,92.0 L 40.0,84.0" fill="#FDFDFE"/>
	<path d="M 104.0,68.0 L 112.0,68.0 L 112.0,76.0 L 104.0,76.0 L 104.0,68.0" fill="#FFEEA3"/>
	<path d="M 88.0,68.0 L 96.0,68.0 L 96.0,76.0 L 88.0,76.0 L 88.0,68.0" fill="#FDFDFE"/>
	<path d="M 72.0,68.0 L 80.0,68.0 L 80.0,76.0 L 72.0,76.0 L 72.0,68.0" fill="#FDFDFE"/>
	<path d="M 56.0,68.0 L 64.0,68.0 L 64.0,76.0 L 56.0,76.0 L 56.0,68.0" fill="#FDFDFE"/>
	<path d="M 40.0,68.0 L 48.0,68.0 L 48.0,76.0 L 40.0,76.0 L 40.0,68.0" fill="#FDFDFE"/>
	<path d="M 104.0,52.0 L 112.0,52.0 L 112.0,60.0 L 104.0,60.0 L 104.0,52.0" fill="#F68D8D"/>
	<path d="M 88.0,52.0 L 96.0,52.0 L 96.0,60.0 L 88.0,60.0 L 88.0,52.0" fill="#FDFDFE"/>
	<path d="M 72.0,52.0 L 80.0,52.0 L 80.0,60.0 L 72.0,60.0 L 72.0,52.0" fill="#FDFDFE"/>
	<path d="M 56.0,52.0 L 64.0,52.0 L 64.0,60.0 L 56.0,60.0 L 56.0,52.0" fill="#FDFDFE"/>
	<path d="M 40.0,52.0 L 48.0,52.0 L 48.0,60.0 L 40.0,60.0 L 40.0,52.0" fill="#FDFDFE"/>
	<path d="M 123.0,114.0 L 128.0,114.0 L 126.0,119.0 L 122.0,123.0 L 118.0,122.0 L 118.0,119.0 L 122.0,118.0 L 123.0,114.0" fill="#6F8296"/>
	<path d="M 132.0,16.0 L 137.0,17.0 L 140.0,21.0 L 140.0,27.0 L 135.0,22.0 L 132.0,20.0 L 132.0,16.0" fill="#6C7E93"/>
	<path d="M 118.0,4.0 L 125.0,7.0 L 128.0,12.0 L 127.0,14.0 L 123.0,13.0 L 120.0,10.0 L 118.0,8.0 L 118.0,4.0" fill="#6F8196"/>
	<path d="M 28.0,114.0 L 33.0,119.0 L 34.0,124.0 L 29.0,122.0 L 25.0,117.0 L 28.0,114.0" fill="#6C7E93"/>
	<path d="M 26.0,9.0 L 29.0,13.0 L 27.0,15.0 L 24.0,16.0 L 25.0,10.0 L 26.0,9.0" fill="#718397"/>
	<path d="M 138.0,105.0 L 140.0,106.0 L 137.0,111.0 L 134.0,110.0 L 138.0,105.0" fill="#6E8095"/>
</svg>
