<?xml version="1.0" ?>
<svg baseProfile="full" height="600px" version="1.1" viewBox="-19.296000000000003 -19.296000000000003 230.592 230.592" width="600px" xmlns="http://www.w3.org/2000/svg" xmlns:ev="http://www.w3.org/2001/xml-events" xmlns:xlink="http://www.w3.org/1999/xlink">
	<defs/>
	<path d="M 0.0,0.0 L 192.0,0.0 L 192.0,192.0 L 0.0,192.0 L 0.0,0.0" fill="#FCFDFD"/>
	<path d="M 49.0,12.0 L 129.0,12.0 L 135.0,16.0 L 139.0,21.0 L 140.0,23.0 L 140.0,32.0 L 151.0,32.0 L 156.0,37.0 L 156.0,118.0 L 153.0,123.0 L 150.0,124.0 L 140.0,124.0 L 140.0,132.0 L 137.0,138.0 L 131.0,143.0 L 124.0,144.0 L 124.0,176.0 L 121.0,181.0 L 119.0,182.0 L 53.0,182.0 L 48.0,177.0 L 48.0,143.0 L 43.0,142.0 L 37.0,135.0 L 36.0,133.0 L 36.0,23.0 L 40.0,17.0 L 45.0,13.0 L 49.0,12.0" fill="#607D8B"/>
	<path d="M 49.0,12.0 L 129.0,12.0 L 135.0,16.0 L 139.0,21.0 L 140.0,23.0 L 140.0,32.0 L 151.0,32.0 L 156.0,37.0 L 156.0,118.0 L 153.0,123.0 L 150.0,124.0 L 140.0,124.0 L 140.0,60.0 L 36.0,60.0 L 36.0,23.0 L 40.0,17.0 L 45.0,13.0 L 49.0,12.0" fill="#556F7A"/>
	<path d="M 48.0,144.0 L 124.0,144.0 L 124.0,176.0 L 121.0,181.0 L 119.0,182.0 L 53.0,182.0 L 48.0,177.0 L 48.0,144.0" fill="#2195F1"/>
	<path d="M 50.0,24.0 L 126.0,24.0 L 128.0,26.0 L 128.0,46.0 L 126.0,48.0 L 50.0,48.0 L 48.0,46.0 L 48.0,26.0 L 50.0,24.0" fill="#9ACA64"/>
	<path d="M 140.0,32.0 L 151.0,32.0 L 156.0,37.0 L 156.0,118.0 L 153.0,123.0 L 150.0,124.0 L 140.0,124.0 L 140.0,32.0" fill="#465A64"/>
	<path d="M 108.0,144.0 L 124.0,144.0 L 124.0,176.0 L 121.0,181.0 L 119.0,182.0 L 108.0,182.0 L 108.0,144.0" fill="#2295F1"/>
	<path d="M 96.0,144.0 L 108.0,144.0 L 108.0,182.0 L 96.0,182.0 L 96.0,144.0" fill="#263339"/>
	<path d="M 48.0,144.0 L 96.0,144.0 L 96.0,152.0 L 48.0,152.0 L 48.0,144.0" fill="#1976D2"/>
	<path d="M 118.0,116.0 L 130.0,116.0 L 132.0,118.0 L 132.0,130.0 L 130.0,132.0 L 118.0,132.0 L 116.0,130.0 L 116.0,118.0 L 118.0,116.0" fill="#FDC008"/>
	<path d="M 94.0,116.0 L 106.0,116.0 L 108.0,118.0 L 108.0,130.0 L 106.0,132.0 L 94.0,132.0 L 92.0,130.0 L 92.0,118.0 L 94.0,116.0" fill="#DDDEDE"/>
	<path d="M 70.0,116.0 L 82.0,116.0 L 84.0,118.0 L 84.0,130.0 L 82.0,132.0 L 70.0,132.0 L 68.0,130.0 L 68.0,118.0 L 70.0,116.0" fill="#DDDEDE"/>
	<path d="M 46.0,116.0 L 58.0,116.0 L 60.0,118.0 L 60.0,130.0 L 58.0,132.0 L 46.0,132.0 L 44.0,130.0 L 44.0,118.0 L 46.0,116.0" fill="#DDDEDE"/>
	<path d="M 118.0,92.0 L 130.0,92.0 L 132.0,94.0 L 132.0,106.0 L 130.0,108.0 L 118.0,108.0 L 116.0,106.0 L 116.0,94.0 L 118.0,92.0" fill="#80C584"/>
	<path d="M 94.0,92.0 L 106.0,92.0 L 108.0,94.0 L 108.0,106.0 L 106.0,108.0 L 94.0,108.0 L 92.0,106.0 L 92.0,94.0 L 94.0,92.0" fill="#DDDEDE"/>
	<path d="M 70.0,92.0 L 82.0,92.0 L 84.0,94.0 L 84.0,106.0 L 82.0,108.0 L 70.0,108.0 L 68.0,106.0 L 68.0,94.0 L 70.0,92.0" fill="#DDDEDE"/>
	<path d="M 46.0,92.0 L 58.0,92.0 L 60.0,94.0 L 60.0,106.0 L 58.0,108.0 L 46.0,108.0 L 44.0,106.0 L 44.0,94.0 L 46.0,92.0" fill="#DDDEDE"/>
	<path d="M 118.0,68.0 L 130.0,68.0 L 132.0,70.0 L 132.0,82.0 L 130.0,84.0 L 118.0,84.0 L 116.0,82.0 L 116.0,70.0 L 118.0,68.0" fill="#FC5252"/>
	<path d="M 94.0,68.0 L 106.0,68.0 L 108.0,70.0 L 108.0,82.0 L 106.0,84.0 L 94.0,84.0 L 92.0,82.0 L 92.0,70.0 L 94.0,68.0" fill="#DDDEDE"/>
	<path d="M 70.0,68.0 L 82.0,68.0 L 84.0,70.0 L 84.0,82.0 L 82.0,84.0 L 70.0,84.0 L 68.0,82.0 L 68.0,70.0 L 70.0,68.0" fill="#DDDEDE"/>
	<path d="M 46.0,68.0 L 58.0,68.0 L 60.0,70.0 L 60.0,82.0 L 58.0,84.0 L 46.0,84.0 L 44.0,82.0 L 44.0,70.0 L 46.0,68.0" fill="#DDDEDE"/>
	<path d="M 108.0,144.0 L 124.0,144.0 L 124.0,152.0 L 108.0,152.0 L 108.0,144.0" fill="#1976D2"/>
</svg>
