<?xml version="1.0" ?>
<svg baseProfile="full" height="600px" version="1.1" viewBox="-19.296000000000003 -19.296000000000003 230.592 230.592" width="600px" xmlns="http://www.w3.org/2000/svg" xmlns:ev="http://www.w3.org/2001/xml-events" xmlns:xlink="http://www.w3.org/1999/xlink">
	<defs/>
	<path d="M 0.0,0.0 L 192.0,0.0 L 192.0,192.0 L 0.0,192.0 L 0.0,0.0" fill="#FDFDFD"/>
	<path d="M 78.0,58.0 L 85.0,59.0 L 92.0,66.0 L 96.0,73.0 L 101.0,68.0 L 109.0,62.0 L 113.0,60.0 L 118.0,60.0 L 120.0,62.0 L 119.0,67.0 L 108.0,73.0 L 103.0,81.0 L 101.0,89.0 L 100.0,100.0 L 144.0,100.0 L 144.0,118.0 L 142.0,120.0 L 137.0,120.0 L 136.0,131.0 L 129.0,166.0 L 128.0,168.0 L 64.0,168.0 L 61.0,156.0 L 55.0,126.0 L 55.0,120.0 L 50.0,120.0 L 48.0,118.0 L 48.0,100.0 L 92.0,100.0 L 91.0,87.0 L 87.0,75.0 L 81.0,67.0 L 77.0,64.0 L 77.0,59.0 L 78.0,58.0" fill="#E64A19"/>
	<path d="M 78.0,58.0 L 85.0,59.0 L 92.0,66.0 L 96.0,73.0 L 101.0,68.0 L 109.0,62.0 L 113.0,60.0 L 118.0,60.0 L 120.0,62.0 L 119.0,67.0 L 108.0,73.0 L 103.0,81.0 L 101.0,89.0 L 100.0,100.0 L 144.0,100.0 L 144.0,118.0 L 142.0,120.0 L 50.0,120.0 L 48.0,118.0 L 48.0,100.0 L 92.0,100.0 L 91.0,87.0 L 87.0,75.0 L 81.0,67.0 L 77.0,64.0 L 77.0,59.0 L 78.0,58.0" fill="#BF360C"/>
	<path d="M 78.0,58.0 L 85.0,59.0 L 92.0,66.0 L 96.0,73.0 L 101.0,68.0 L 109.0,62.0 L 113.0,60.0 L 118.0,60.0 L 120.0,62.0 L 119.0,67.0 L 108.0,73.0 L 103.0,81.0 L 101.0,89.0 L 100.0,100.0 L 92.0,100.0 L 91.0,87.0 L 87.0,75.0 L 81.0,67.0 L 77.0,64.0 L 77.0,59.0 L 78.0,58.0" fill="#8CC34E"/>
</svg>
