<?xml version="1.0" ?>
<svg baseProfile="full" height="600px" version="1.1" viewBox="-19.296000000000003 -19.296000000000003 230.592 230.592" width="600px" xmlns="http://www.w3.org/2000/svg" xmlns:ev="http://www.w3.org/2001/xml-events" xmlns:xlink="http://www.w3.org/1999/xlink">
	<defs/>
	<path d="M 0.0,0.0 L 192.0,0.0 L 192.0,192.0 L 0.0,192.0 L 0.0,0.0" fill="#FDFDFC"/>
	<path d="M 52.0,24.0 L 71.0,24.0 L 82.0,28.0 L 89.0,34.0 L 92.0,40.0 L 92.0,48.0 L 88.0,56.0 L 86.0,60.0 L 94.0,69.0 L 97.0,73.0 L 103.0,66.0 L 111.0,61.0 L 108.0,53.0 L 108.0,44.0 L 114.0,36.0 L 122.0,32.0 L 133.0,32.0 L 142.0,34.0 L 158.0,41.0 L 168.0,47.0 L 168.0,49.0 L 163.0,53.0 L 150.0,75.0 L 141.0,85.0 L 134.0,88.0 L 124.0,88.0 L 117.0,84.0 L 114.0,79.0 L 114.0,70.0 L 107.0,74.0 L 102.0,84.0 L 100.0,100.0 L 144.0,100.0 L 144.0,118.0 L 142.0,120.0 L 137.0,120.0 L 136.0,131.0 L 129.0,166.0 L 128.0,168.0 L 64.0,168.0 L 61.0,156.0 L 55.0,126.0 L 55.0,120.0 L 50.0,120.0 L 48.0,118.0 L 48.0,100.0 L 92.0,100.0 L 91.0,87.0 L 87.0,75.0 L 82.0,68.0 L 80.0,67.0 L 78.0,76.0 L 74.0,81.0 L 68.0,84.0 L 57.0,84.0 L 48.0,80.0 L 41.0,72.0 L 35.0,58.0 L 29.0,40.0 L 25.0,34.0 L 25.0,31.0 L 37.0,27.0 L 52.0,24.0" fill="#8BC24C"/>
	<path d="M 48.0,100.0 L 144.0,100.0 L 144.0,118.0 L 142.0,120.0 L 137.0,120.0 L 136.0,131.0 L 129.0,166.0 L 128.0,168.0 L 64.0,168.0 L 61.0,156.0 L 55.0,126.0 L 55.0,120.0 L 50.0,120.0 L 48.0,118.0 L 48.0,100.0" fill="#E64A19"/>
	<path d="M 48.0,100.0 L 144.0,100.0 L 144.0,118.0 L 142.0,120.0 L 50.0,120.0 L 48.0,118.0 L 48.0,100.0" fill="#BF360C"/>
	<path d="M 27.0,33.0 L 36.0,35.0 L 53.0,44.0 L 81.0,61.0 L 80.0,70.0 L 77.0,77.0 L 72.0,82.0 L 68.0,84.0 L 57.0,84.0 L 48.0,80.0 L 41.0,72.0 L 35.0,58.0 L 29.0,40.0 L 27.0,36.0 L 27.0,33.0" fill="#69A039"/>
	<path d="M 160.0,48.0 L 167.0,48.0 L 161.0,56.0 L 150.0,75.0 L 141.0,85.0 L 134.0,88.0 L 124.0,88.0 L 117.0,84.0 L 114.0,79.0 L 114.0,70.0 L 116.0,64.0 L 127.0,59.0 L 152.0,50.0 L 160.0,48.0" fill="#6AA03A"/>
</svg>
