<?xml version="1.0" ?>
<svg baseProfile="full" height="600px" version="1.1" viewBox="-19.296000000000003 -19.296000000000003 230.592 230.592" width="600px" xmlns="http://www.w3.org/2000/svg" xmlns:ev="http://www.w3.org/2001/xml-events" xmlns:xlink="http://www.w3.org/1999/xlink">
	<defs/>
	<path d="M 0.0,0.0 L 192.0,0.0 L 192.0,192.0 L 0.0,192.0 L 0.0,0.0" fill="#FEFDFD"/>
	<path d="M 88.0,24.0 L 105.0,24.0 L 121.0,28.0 L 137.0,36.0 L 149.0,47.0 L 156.0,55.0 L 164.0,71.0 L 168.0,85.0 L 168.0,104.0 L 165.0,118.0 L 158.0,134.0 L 150.0,144.0 L 141.0,153.0 L 130.0,160.0 L 118.0,165.0 L 106.0,168.0 L 85.0,168.0 L 71.0,164.0 L 55.0,156.0 L 43.0,145.0 L 36.0,137.0 L 28.0,121.0 L 24.0,105.0 L 24.0,85.0 L 28.0,70.0 L 36.0,55.0 L 47.0,43.0 L 55.0,36.0 L 70.0,28.0 L 80.0,25.0 L 88.0,24.0" fill="#F44538"/>
	<path d="M 66.0,67.0 L 70.0,69.0 L 75.0,75.0 L 73.0,80.0 L 69.0,87.0 L 68.0,91.0 L 68.0,100.0 L 71.0,109.0 L 75.0,115.0 L 81.0,120.0 L 87.0,123.0 L 92.0,124.0 L 101.0,124.0 L 113.0,119.0 L 120.0,111.0 L 124.0,101.0 L 124.0,92.0 L 121.0,83.0 L 117.0,77.0 L 119.0,72.0 L 124.0,67.0 L 128.0,69.0 L 134.0,78.0 L 137.0,87.0 L 138.0,90.0 L 138.0,101.0 L 134.0,114.0 L 128.0,123.0 L 121.0,130.0 L 109.0,136.0 L 106.0,137.0 L 87.0,137.0 L 78.0,134.0 L 69.0,128.0 L 62.0,121.0 L 56.0,109.0 L 55.0,105.0 L 55.0,87.0 L 58.0,78.0 L 64.0,69.0 L 66.0,67.0" fill="#FEC9CE"/>
	<path d="M 90.0,55.0 L 102.0,55.0 L 102.0,93.0 L 90.0,93.0 L 90.0,55.0" fill="#FECBD0"/>
</svg>
