<?xml version="1.0" ?>
<svg baseProfile="full" height="600px" version="1.1" viewBox="-19.296000000000003 -19.296000000000003 230.592 230.592" width="600px" xmlns="http://www.w3.org/2000/svg" xmlns:ev="http://www.w3.org/2001/xml-events" xmlns:xlink="http://www.w3.org/1999/xlink">
	<defs/>
	<path d="M 0.0,0.0 L 192.0,0.0 L 192.0,192.0 L 0.0,192.0 L 0.0,0.0" fill="#FEFDFC"/>
	<path d="M 84.0,24.0 L 107.0,24.0 L 116.0,26.0 L 129.0,31.0 L 140.0,38.0 L 150.0,47.0 L 159.0,59.0 L 165.0,72.0 L 168.0,84.0 L 168.0,108.0 L 166.0,116.0 L 161.0,129.0 L 154.0,140.0 L 145.0,150.0 L 133.0,159.0 L 122.0,164.0 L 108.0,168.0 L 84.0,168.0 L 72.0,165.0 L 56.0,157.0 L 46.0,149.0 L 37.0,139.0 L 29.0,125.0 L 25.0,112.0 L 24.0,108.0 L 24.0,84.0 L 28.0,69.0 L 35.0,56.0 L 43.0,46.0 L 54.0,36.0 L 69.0,28.0 L 78.0,25.0 L 84.0,24.0" fill="#F44437"/>
	<path d="M 66.0,66.0 L 73.0,72.0 L 75.0,76.0 L 69.0,86.0 L 68.0,89.0 L 68.0,102.0 L 72.0,112.0 L 77.0,118.0 L 89.0,124.0 L 103.0,124.0 L 115.0,118.0 L 121.0,110.0 L 124.0,103.0 L 124.0,89.0 L 118.0,77.0 L 117.0,75.0 L 124.0,67.0 L 127.0,67.0 L 134.0,76.0 L 137.0,83.0 L 138.0,88.0 L 138.0,103.0 L 135.0,113.0 L 129.0,123.0 L 122.0,130.0 L 108.0,137.0 L 104.0,138.0 L 87.0,138.0 L 76.0,134.0 L 67.0,127.0 L 60.0,119.0 L 55.0,109.0 L 54.0,104.0 L 54.0,87.0 L 58.0,77.0 L 64.0,68.0 L 66.0,66.0" fill="#FEC9CE"/>
	<path d="M 89.0,54.0 L 103.0,54.0 L 103.0,93.0 L 89.0,93.0 L 89.0,54.0" fill="#FEC1C5"/>
</svg>
