<?xml version="1.0" ?>
<svg baseProfile="full" height="600px" version="1.1" viewBox="-19.296000000000003 -19.296000000000003 230.592 230.592" width="600px" xmlns="http://www.w3.org/2000/svg" xmlns:ev="http://www.w3.org/2001/xml-events" xmlns:xlink="http://www.w3.org/1999/xlink">
	<defs/>
	<path d="M 0.0,0.0 L 192.0,0.0 L 192.0,192.0 L 0.0,192.0 L 0.0,0.0" fill="#FEFDFD"/>
	<path d="M 88.0,22.0 L 105.0,22.0 L 117.0,25.0 L 130.0,30.0 L 141.0,37.0 L 152.0,47.0 L 161.0,60.0 L 166.0,71.0 L 170.0,87.0 L 170.0,102.0 L 168.0,115.0 L 162.0,130.0 L 155.0,141.0 L 145.0,152.0 L 132.0,161.0 L 120.0,166.0 L 115.0,168.0 L 102.0,170.0 L 87.0,170.0 L 71.0,166.0 L 55.0,158.0 L 44.0,149.0 L 36.0,140.0 L 28.0,126.0 L 24.0,115.0 L 22.0,105.0 L 22.0,88.0 L 25.0,74.0 L 30.0,62.0 L 37.0,51.0 L 47.0,40.0 L 60.0,31.0 L 71.0,26.0 L 81.0,23.0 L 88.0,22.0" fill="#F44538"/>
	<path d="M 64.0,65.0 L 68.0,67.0 L 74.0,74.0 L 72.0,78.0 L 67.0,88.0 L 67.0,103.0 L 71.0,112.0 L 78.0,120.0 L 88.0,125.0 L 102.0,125.0 L 111.0,122.0 L 120.0,114.0 L 124.0,106.0 L 125.0,102.0 L 125.0,90.0 L 122.0,81.0 L 118.0,76.0 L 120.0,71.0 L 126.0,65.0 L 128.0,65.0 L 135.0,75.0 L 138.0,81.0 L 140.0,88.0 L 140.0,101.0 L 137.0,113.0 L 131.0,123.0 L 126.0,129.0 L 115.0,136.0 L 106.0,139.0 L 101.0,140.0 L 88.0,140.0 L 77.0,136.0 L 68.0,130.0 L 63.0,125.0 L 57.0,117.0 L 53.0,106.0 L 52.0,102.0 L 52.0,89.0 L 55.0,79.0 L 61.0,69.0 L 64.0,65.0" fill="#FEC8CD"/>
	<path d="M 89.0,52.0 L 103.0,52.0 L 103.0,93.0 L 89.0,93.0 L 89.0,52.0" fill="#FEC5C9"/>
</svg>
