<?xml version="1.0" ?>
<svg baseProfile="full" height="600px" version="1.1" viewBox="-19.296000000000003 -19.296000000000003 230.592 230.592" width="600px" xmlns="http://www.w3.org/2000/svg" xmlns:ev="http://www.w3.org/2001/xml-events" xmlns:xlink="http://www.w3.org/1999/xlink">
	<defs/>
	<path d="M 0.0,0.0 L 192.0,0.0 L 192.0,192.0 L 0.0,192.0 L 0.0,0.0" fill="#F44538"/>
	<path d="M 0.0,0.0 L 192.0,0.0 L 192.0,192.0 L 0.0,192.0 L 0.0,0.0 M 86.0,17.0 L 70.0,21.0 L 54.0,29.0 L 43.0,37.0 L 35.0,45.0 L 26.0,59.0 L 21.0,70.0 L 17.0,86.0 L 17.0,102.0 L 20.0,118.0 L 25.0,131.0 L 32.0,143.0 L 44.0,156.0 L 57.0,165.0 L 70.0,171.0 L 86.0,175.0 L 105.0,175.0 L 124.0,170.0 L 140.0,162.0 L 151.0,153.0 L 160.0,143.0 L 168.0,129.0 L 173.0,114.0 L 175.0,105.0 L 175.0,86.0 L 170.0,67.0 L 162.0,52.0 L 153.0,41.0 L 143.0,32.0 L 129.0,24.0 L 114.0,19.0 L 106.0,17.0 L 86.0,17.0" fill="#FEFDFD"/>
	<path d="M 60.0,60.0 L 63.0,61.0 L 71.0,71.0 L 64.0,83.0 L 62.0,91.0 L 62.0,102.0 L 67.0,115.0 L 73.0,122.0 L 83.0,128.0 L 90.0,130.0 L 101.0,130.0 L 111.0,127.0 L 121.0,120.0 L 127.0,111.0 L 129.0,106.0 L 130.0,100.0 L 130.0,90.0 L 126.0,79.0 L 121.0,71.0 L 130.0,60.0 L 134.0,62.0 L 141.0,72.0 L 146.0,85.0 L 146.0,106.0 L 141.0,120.0 L 133.0,131.0 L 125.0,138.0 L 113.0,144.0 L 106.0,146.0 L 85.0,146.0 L 72.0,141.0 L 61.0,133.0 L 54.0,125.0 L 49.0,115.0 L 46.0,106.0 L 46.0,85.0 L 51.0,72.0 L 59.0,61.0 L 60.0,60.0" fill="#FEC9CE"/>
	<path d="M 88.0,45.0 L 104.0,45.0 L 104.0,92.0 L 88.0,92.0 L 88.0,45.0" fill="#FEC6CA"/>
</svg>
