<?xml version="1.0" ?>
<svg baseProfile="full" height="600px" version="1.1" viewBox="-20.1 -20.1 240.2 240.2" width="600px" xmlns="http://www.w3.org/2000/svg" xmlns:ev="http://www.w3.org/2001/xml-events" xmlns:xlink="http://www.w3.org/1999/xlink">
	<defs/>
	<path d="M 0.0,0.0 L 200.0,0.0 L 200.0,200.0 L 0.0,200.0 L 0.0,0.0" fill="#FCFCFC"/>
	<path d="M 0.0,0.0 L 200.0,0.0 L 200.0,200.0 L 0.0,200.0 L 0.0,0.0 M 132.0,8.0 L 108.0,9.0 L 100.0,14.0 L 86.0,29.0 L 71.0,45.0 L 64.0,52.0 L 57.0,60.0 L 48.0,69.0 L 41.0,77.0 L 31.0,87.0 L 24.0,95.0 L 15.0,104.0 L 10.0,111.0 L 10.0,119.0 L 17.0,127.0 L 26.0,136.0 L 34.0,143.0 L 43.0,152.0 L 51.0,159.0 L 61.0,169.0 L 69.0,176.0 L 78.0,185.0 L 89.0,194.0 L 97.0,194.0 L 105.0,187.0 L 116.0,176.0 L 123.0,168.0 L 132.0,159.0 L 139.0,151.0 L 149.0,141.0 L 156.0,133.0 L 165.0,124.0 L 172.0,116.0 L 182.0,106.0 L 189.0,98.0 L 192.0,94.0 L 193.0,91.0 L 193.0,56.0 L 192.0,19.0 L 189.0,13.0 L 183.0,8.0 L 132.0,8.0" fill="#FDFDFD"/>
	<path d="M 132.0,8.0 L 183.0,8.0 L 190.0,14.0 L 192.0,19.0 L 193.0,56.0 L 193.0,91.0 L 190.0,97.0 L 183.0,104.0 L 176.0,112.0 L 166.0,122.0 L 159.0,130.0 L 150.0,139.0 L 143.0,147.0 L 133.0,157.0 L 126.0,165.0 L 117.0,174.0 L 110.0,182.0 L 99.0,193.0 L 97.0,194.0 L 89.0,194.0 L 75.0,182.0 L 63.0,170.0 L 55.0,163.0 L 45.0,153.0 L 37.0,146.0 L 28.0,137.0 L 20.0,130.0 L 11.0,121.0 L 10.0,119.0 L 10.0,111.0 L 18.0,101.0 L 30.0,89.0 L 37.0,81.0 L 47.0,71.0 L 54.0,63.0 L 63.0,54.0 L 70.0,46.0 L 80.0,36.0 L 87.0,28.0 L 95.0,20.0 L 102.0,12.0 L 108.0,9.0 L 132.0,8.0 M 147.0,16.0 L 110.0,17.0 L 102.0,24.0 L 93.0,33.0 L 86.0,41.0 L 77.0,50.0 L 70.0,58.0 L 61.0,67.0 L 54.0,75.0 L 45.0,84.0 L 38.0,92.0 L 28.0,102.0 L 21.0,110.0 L 18.0,113.0 L 19.0,118.0 L 34.0,132.0 L 41.0,139.0 L 49.0,146.0 L 58.0,155.0 L 66.0,162.0 L 76.0,172.0 L 84.0,179.0 L 91.0,186.0 L 96.0,185.0 L 103.0,178.0 L 110.0,170.0 L 119.0,161.0 L 126.0,153.0 L 136.0,143.0 L 143.0,135.0 L 152.0,126.0 L 159.0,118.0 L 169.0,108.0 L 176.0,100.0 L 184.0,92.0 L 185.0,90.0 L 185.0,65.0 L 184.0,31.0 L 183.0,18.0 L 181.0,16.0 L 147.0,16.0" fill="#080808"/>
	<path d="M 151.0,28.0 L 161.0,28.0 L 167.0,32.0 L 171.0,37.0 L 172.0,39.0 L 172.0,49.0 L 168.0,55.0 L 163.0,59.0 L 161.0,60.0 L 151.0,60.0 L 145.0,56.0 L 141.0,51.0 L 140.0,49.0 L 140.0,39.0 L 144.0,33.0 L 149.0,29.0 L 151.0,28.0" fill="#080808"/>
	<path d="M 153.0,36.0 L 159.0,36.0 L 164.0,41.0 L 164.0,47.0 L 159.0,52.0 L 153.0,52.0 L 149.0,49.0 L 148.0,41.0 L 153.0,36.0" fill="#F0F0F0"/>
</svg>
