<?xml version="1.0" ?>
<svg baseProfile="full" height="600px" version="1.1" viewBox="-19.296000000000003 -19.296000000000003 230.592 230.592" width="600px" xmlns="http://www.w3.org/2000/svg" xmlns:ev="http://www.w3.org/2001/xml-events" xmlns:xlink="http://www.w3.org/1999/xlink">
	<defs/>
	<path d="M 0.0,0.0 L 192.0,0.0 L 192.0,192.0 L 0.0,192.0 L 0.0,0.0" fill="#FFFEFD"/>
	<path d="M 149.0,19.0 L 158.0,19.0 L 166.0,23.0 L 170.0,28.0 L 172.0,37.0 L 176.0,79.0 L 176.0,90.0 L 167.0,101.0 L 156.0,114.0 L 147.0,125.0 L 135.0,139.0 L 126.0,150.0 L 115.0,163.0 L 106.0,174.0 L 99.0,177.0 L 92.0,177.0 L 85.0,174.0 L 75.0,165.0 L 64.0,156.0 L 50.0,144.0 L 39.0,135.0 L 29.0,126.0 L 26.0,121.0 L 26.0,111.0 L 34.0,100.0 L 47.0,85.0 L 56.0,74.0 L 67.0,61.0 L 78.0,48.0 L 87.0,37.0 L 98.0,24.0 L 149.0,19.0" fill="#FFC108"/>
	<path d="M 145.0,36.0 L 151.0,36.0 L 156.0,41.0 L 156.0,47.0 L 151.0,52.0 L 145.0,52.0 L 140.0,47.0 L 140.0,41.0 L 145.0,36.0" fill="#FFFBF1"/>
</svg>
