<?xml version="1.0" ?>
<svg baseProfile="full" height="600px" version="1.1" viewBox="-19.296000000000003 -19.296000000000003 230.592 230.592" width="600px" xmlns="http://www.w3.org/2000/svg" xmlns:ev="http://www.w3.org/2001/xml-events" xmlns:xlink="http://www.w3.org/1999/xlink">
	<defs/>
	<path d="M 0.0,0.0 L 192.0,0.0 L 192.0,192.0 L 0.0,192.0 L 0.0,0.0" fill="#FDFEFD"/>
	<path d="M 105.0,11.0 L 113.0,12.0 L 153.0,20.0 L 165.0,23.0 L 171.0,28.0 L 173.0,32.0 L 173.0,43.0 L 166.0,79.0 L 162.0,96.0 L 152.0,103.0 L 108.0,132.0 L 93.0,142.0 L 78.0,152.0 L 69.0,157.0 L 59.0,157.0 L 53.0,153.0 L 45.0,142.0 L 16.0,98.0 L 11.0,90.0 L 10.0,87.0 L 10.0,78.0 L 14.0,72.0 L 23.0,65.0 L 61.0,40.0 L 105.0,11.0" fill="#4EB052"/>
	<path d="M 98.0,55.0 L 108.0,55.0 L 116.0,59.0 L 120.0,61.0 L 125.0,58.0 L 128.0,58.0 L 131.0,62.0 L 131.0,64.0 L 125.0,68.0 L 123.0,68.0 L 125.0,72.0 L 125.0,82.0 L 121.0,90.0 L 116.0,94.0 L 114.0,94.0 L 108.0,85.0 L 110.0,81.0 L 112.0,79.0 L 112.0,71.0 L 109.0,68.0 L 103.0,68.0 L 98.0,73.0 L 98.0,84.0 L 99.0,87.0 L 99.0,100.0 L 94.0,108.0 L 86.0,113.0 L 77.0,113.0 L 69.0,109.0 L 66.0,106.0 L 61.0,108.0 L 57.0,109.0 L 54.0,104.0 L 59.0,100.0 L 61.0,100.0 L 59.0,93.0 L 59.0,82.0 L 63.0,76.0 L 67.0,72.0 L 71.0,73.0 L 76.0,81.0 L 76.0,83.0 L 72.0,87.0 L 72.0,95.0 L 75.0,99.0 L 83.0,99.0 L 86.0,98.0 L 86.0,66.0 L 90.0,60.0 L 98.0,55.0" fill="#F9FCF9"/>
	<path d="M 145.0,36.0 L 153.0,37.0 L 156.0,41.0 L 156.0,47.0 L 151.0,52.0 L 145.0,52.0 L 141.0,49.0 L 140.0,41.0 L 145.0,36.0" fill="#F4FAF4"/>
</svg>
