<?xml version="1.0" ?>
<svg baseProfile="full" height="600px" version="1.1" viewBox="-19.296000000000003 -19.296000000000003 230.592 230.592" width="600px" xmlns="http://www.w3.org/2000/svg" xmlns:ev="http://www.w3.org/2001/xml-events" xmlns:xlink="http://www.w3.org/1999/xlink">
	<defs/>
	<path d="M 0.0,0.0 L 192.0,0.0 L 192.0,192.0 L 0.0,192.0 L 0.0,0.0" fill="#FDFEFD"/>
	<path d="M 99.0,20.0 L 161.0,20.0 L 167.0,24.0 L 171.0,29.0 L 172.0,31.0 L 172.0,93.0 L 97.0,168.0 L 90.0,172.0 L 81.0,172.0 L 74.0,168.0 L 23.0,117.0 L 20.0,111.0 L 20.0,102.0 L 25.0,94.0 L 99.0,20.0" fill="#4EB052"/>
	<path d="M 129.0,62.0 L 133.0,64.0 L 135.0,67.0 L 130.0,72.0 L 131.0,76.0 L 133.0,81.0 L 133.0,88.0 L 129.0,97.0 L 125.0,100.0 L 117.0,92.0 L 118.0,88.0 L 119.0,86.0 L 119.0,79.0 L 116.0,76.0 L 109.0,76.0 L 106.0,79.0 L 106.0,89.0 L 110.0,102.0 L 110.0,113.0 L 106.0,119.0 L 100.0,124.0 L 98.0,125.0 L 87.0,125.0 L 79.0,121.0 L 74.0,126.0 L 70.0,124.0 L 68.0,121.0 L 73.0,116.0 L 71.0,111.0 L 69.0,105.0 L 69.0,96.0 L 74.0,88.0 L 78.0,88.0 L 85.0,95.0 L 82.0,101.0 L 83.0,108.0 L 87.0,112.0 L 94.0,112.0 L 97.0,109.0 L 97.0,99.0 L 92.0,86.0 L 92.0,76.0 L 98.0,67.0 L 105.0,63.0 L 115.0,63.0 L 121.0,66.0 L 126.0,65.0 L 129.0,62.0" fill="#F9FCF9"/>
	<path d="M 145.0,36.0 L 153.0,37.0 L 156.0,41.0 L 156.0,47.0 L 151.0,52.0 L 145.0,52.0 L 141.0,49.0 L 140.0,41.0 L 145.0,36.0" fill="#F4FAF4"/>
</svg>
