<?xml version="1.0" ?>
<svg baseProfile="full" height="600px" version="1.1" viewBox="-19.296000000000003 -19.296000000000003 230.592 230.592" width="600px" xmlns="http://www.w3.org/2000/svg" xmlns:ev="http://www.w3.org/2001/xml-events" xmlns:xlink="http://www.w3.org/1999/xlink">
	<defs/>
	<path d="M 0.0,0.0 L 192.0,0.0 L 192.0,192.0 L 0.0,192.0 L 0.0,0.0" fill="#FDFEFD"/>
	<path d="M 120.0,20.0 L 161.0,20.0 L 167.0,24.0 L 171.0,29.0 L 172.0,33.0 L 173.0,64.0 L 173.0,92.0 L 159.0,107.0 L 151.0,115.0 L 144.0,123.0 L 133.0,134.0 L 126.0,142.0 L 115.0,153.0 L 108.0,161.0 L 98.0,171.0 L 91.0,174.0 L 82.0,173.0 L 71.0,164.0 L 56.0,149.0 L 48.0,142.0 L 38.0,132.0 L 30.0,125.0 L 23.0,117.0 L 22.0,114.0 L 22.0,104.0 L 28.0,96.0 L 38.0,86.0 L 45.0,78.0 L 55.0,68.0 L 62.0,60.0 L 74.0,48.0 L 81.0,40.0 L 90.0,31.0 L 97.0,23.0 L 99.0,21.0 L 120.0,20.0" fill="#4EB052"/>
	<path d="M 130.0,62.0 L 135.0,65.0 L 134.0,69.0 L 131.0,72.0 L 132.0,77.0 L 134.0,82.0 L 134.0,89.0 L 130.0,98.0 L 126.0,100.0 L 118.0,92.0 L 120.0,87.0 L 120.0,80.0 L 117.0,77.0 L 110.0,77.0 L 107.0,80.0 L 107.0,91.0 L 112.0,103.0 L 112.0,113.0 L 108.0,121.0 L 101.0,126.0 L 98.0,127.0 L 90.0,127.0 L 81.0,123.0 L 76.0,128.0 L 72.0,126.0 L 70.0,123.0 L 75.0,118.0 L 73.0,113.0 L 71.0,109.0 L 71.0,96.0 L 76.0,89.0 L 81.0,91.0 L 86.0,96.0 L 85.0,100.0 L 84.0,102.0 L 84.0,108.0 L 88.0,113.0 L 95.0,114.0 L 99.0,109.0 L 99.0,102.0 L 93.0,87.0 L 93.0,77.0 L 99.0,68.0 L 106.0,64.0 L 116.0,64.0 L 122.0,67.0 L 126.0,66.0 L 130.0,62.0" fill="#F9FCF9"/>
	<path d="M 145.0,36.0 L 153.0,37.0 L 156.0,41.0 L 156.0,47.0 L 151.0,52.0 L 145.0,52.0 L 141.0,49.0 L 140.0,41.0 L 145.0,36.0" fill="#F5FAF5"/>
</svg>
