<?xml version="1.0" ?>
<svg baseProfile="full" height="600px" version="1.1" viewBox="-20.1 -20.1 240.2 240.2" width="600px" xmlns="http://www.w3.org/2000/svg" xmlns:ev="http://www.w3.org/2001/xml-events" xmlns:xlink="http://www.w3.org/1999/xlink">
	<defs/>
	<path d="M 0.0,0.0 L 200.0,0.0 L 200.0,200.0 L 0.0,200.0 L 0.0,0.0" fill="#FBFBFB"/>
	<path d="M 0.0,0.0 L 200.0,0.0 L 200.0,200.0 L 0.0,200.0 L 0.0,0.0 M 109.0,4.0 L 95.0,15.0 L 82.0,26.0 L 72.0,34.0 L 61.0,43.0 L 45.0,56.0 L 34.0,65.0 L 18.0,78.0 L 7.0,87.0 L 2.0,93.0 L 2.0,100.0 L 8.0,109.0 L 19.0,122.0 L 27.0,132.0 L 40.0,148.0 L 49.0,159.0 L 62.0,175.0 L 69.0,183.0 L 73.0,185.0 L 79.0,185.0 L 88.0,179.0 L 101.0,168.0 L 111.0,160.0 L 122.0,151.0 L 138.0,138.0 L 149.0,129.0 L 160.0,120.0 L 171.0,111.0 L 182.0,102.0 L 187.0,96.0 L 189.0,85.0 L 191.0,59.0 L 194.0,32.0 L 194.0,20.0 L 190.0,14.0 L 186.0,11.0 L 165.0,8.0 L 122.0,4.0 L 109.0,4.0" fill="#FDFDFD"/>
	<path d="M 109.0,4.0 L 122.0,4.0 L 175.0,9.0 L 188.0,12.0 L 193.0,18.0 L 194.0,20.0 L 194.0,32.0 L 191.0,59.0 L 189.0,85.0 L 187.0,96.0 L 180.0,104.0 L 169.0,113.0 L 158.0,122.0 L 147.0,131.0 L 136.0,140.0 L 120.0,153.0 L 109.0,162.0 L 93.0,175.0 L 81.0,184.0 L 79.0,185.0 L 73.0,185.0 L 67.0,181.0 L 55.0,167.0 L 47.0,157.0 L 38.0,146.0 L 25.0,130.0 L 16.0,119.0 L 7.0,108.0 L 2.0,100.0 L 2.0,93.0 L 9.0,85.0 L 20.0,76.0 L 36.0,63.0 L 47.0,54.0 L 63.0,41.0 L 74.0,32.0 L 85.0,23.0 L 96.0,14.0 L 109.0,4.0 M 111.0,12.0 L 102.0,20.0 L 88.0,31.0 L 74.0,43.0 L 60.0,54.0 L 47.0,65.0 L 37.0,73.0 L 21.0,86.0 L 10.0,95.0 L 11.0,100.0 L 22.0,113.0 L 33.0,127.0 L 44.0,140.0 L 55.0,154.0 L 66.0,167.0 L 73.0,176.0 L 79.0,176.0 L 93.0,164.0 L 107.0,153.0 L 120.0,142.0 L 134.0,131.0 L 147.0,120.0 L 157.0,112.0 L 168.0,103.0 L 179.0,94.0 L 180.0,91.0 L 184.0,51.0 L 186.0,31.0 L 186.0,22.0 L 182.0,18.0 L 123.0,12.0 L 111.0,12.0" fill="#080808"/>
	<path d="M 100.0,65.0 L 111.0,65.0 L 118.0,69.0 L 123.0,68.0 L 125.0,66.0 L 129.0,67.0 L 132.0,72.0 L 127.0,76.0 L 125.0,76.0 L 128.0,83.0 L 128.0,90.0 L 124.0,100.0 L 121.0,103.0 L 117.0,98.0 L 118.0,94.0 L 119.0,91.0 L 119.0,84.0 L 115.0,78.0 L 109.0,74.0 L 102.0,75.0 L 97.0,79.0 L 97.0,87.0 L 105.0,107.0 L 105.0,115.0 L 101.0,123.0 L 93.0,129.0 L 90.0,130.0 L 81.0,130.0 L 71.0,125.0 L 67.0,125.0 L 63.0,127.0 L 59.0,123.0 L 59.0,120.0 L 63.0,117.0 L 61.0,108.0 L 61.0,99.0 L 65.0,91.0 L 68.0,87.0 L 72.0,89.0 L 74.0,94.0 L 71.0,97.0 L 70.0,100.0 L 70.0,109.0 L 76.0,117.0 L 80.0,120.0 L 89.0,120.0 L 94.0,116.0 L 95.0,113.0 L 95.0,106.0 L 88.0,90.0 L 87.0,86.0 L 87.0,77.0 L 91.0,71.0 L 96.0,67.0 L 100.0,65.0" fill="#080808"/>
	<path d="M 151.0,28.0 L 161.0,28.0 L 167.0,32.0 L 171.0,37.0 L 172.0,39.0 L 172.0,48.0 L 169.0,54.0 L 163.0,59.0 L 161.0,60.0 L 151.0,60.0 L 145.0,56.0 L 141.0,51.0 L 140.0,49.0 L 140.0,39.0 L 144.0,33.0 L 149.0,29.0 L 151.0,28.0" fill="#080808"/>
	<path d="M 153.0,36.0 L 159.0,36.0 L 164.0,41.0 L 164.0,47.0 L 159.0,52.0 L 153.0,52.0 L 148.0,47.0 L 148.0,41.0 L 153.0,36.0" fill="#F0F0F0"/>
</svg>
