<?xml version="1.0" ?>
<svg baseProfile="full" height="600px" version="1.1" viewBox="-20.1 -20.1 240.2 240.2" width="600px" xmlns="http://www.w3.org/2000/svg" xmlns:ev="http://www.w3.org/2001/xml-events" xmlns:xlink="http://www.w3.org/1999/xlink">
	<defs/>
	<path d="M 0.0,0.0 L 200.0,0.0 L 200.0,200.0 L 0.0,200.0 L 0.0,0.0" fill="#FCFCFC"/>
	<path d="M 0.0,0.0 L 200.0,0.0 L 200.0,200.0 L 0.0,200.0 L 0.0,0.0 M 109.0,5.0 L 103.0,9.0 L 88.0,22.0 L 73.0,35.0 L 59.0,47.0 L 45.0,59.0 L 31.0,71.0 L 17.0,83.0 L 6.0,92.0 L 3.0,97.0 L 3.0,103.0 L 8.0,111.0 L 18.0,122.0 L 27.0,133.0 L 36.0,143.0 L 45.0,154.0 L 54.0,164.0 L 63.0,175.0 L 72.0,185.0 L 76.0,187.0 L 84.0,186.0 L 95.0,177.0 L 110.0,164.0 L 124.0,152.0 L 139.0,139.0 L 153.0,127.0 L 167.0,115.0 L 182.0,102.0 L 187.0,97.0 L 189.0,89.0 L 192.0,56.0 L 193.0,39.0 L 193.0,18.0 L 188.0,12.0 L 184.0,10.0 L 137.0,6.0 L 121.0,5.0 L 109.0,5.0" fill="#FCFCFC"/>
	<path d="M 109.0,5.0 L 121.0,5.0 L 174.0,9.0 L 184.0,10.0 L 190.0,14.0 L 193.0,18.0 L 193.0,39.0 L 190.0,78.0 L 188.0,94.0 L 185.0,100.0 L 174.0,109.0 L 163.0,119.0 L 152.0,128.0 L 142.0,137.0 L 131.0,146.0 L 120.0,156.0 L 109.0,165.0 L 99.0,174.0 L 88.0,183.0 L 84.0,186.0 L 76.0,187.0 L 70.0,183.0 L 57.0,168.0 L 44.0,153.0 L 32.0,139.0 L 20.0,125.0 L 8.0,111.0 L 3.0,103.0 L 3.0,97.0 L 6.0,92.0 L 17.0,83.0 L 28.0,73.0 L 39.0,64.0 L 49.0,55.0 L 60.0,46.0 L 70.0,37.0 L 81.0,28.0 L 92.0,18.0 L 103.0,9.0 L 109.0,5.0 M 111.0,13.0 L 97.0,25.0 L 83.0,37.0 L 69.0,49.0 L 54.0,62.0 L 40.0,74.0 L 26.0,86.0 L 12.0,98.0 L 11.0,102.0 L 20.0,112.0 L 29.0,123.0 L 39.0,134.0 L 48.0,145.0 L 57.0,155.0 L 66.0,166.0 L 77.0,178.0 L 83.0,177.0 L 95.0,166.0 L 106.0,157.0 L 116.0,148.0 L 127.0,139.0 L 138.0,129.0 L 149.0,120.0 L 159.0,111.0 L 170.0,102.0 L 180.0,93.0 L 181.0,90.0 L 183.0,61.0 L 184.0,55.0 L 185.0,34.0 L 185.0,20.0 L 182.0,18.0 L 162.0,16.0 L 127.0,13.0 L 111.0,13.0" fill="#080808"/>
	<path d="M 151.0,28.0 L 161.0,28.0 L 167.0,32.0 L 171.0,37.0 L 172.0,39.0 L 172.0,49.0 L 168.0,55.0 L 163.0,59.0 L 161.0,60.0 L 151.0,60.0 L 145.0,56.0 L 141.0,51.0 L 140.0,49.0 L 140.0,39.0 L 144.0,33.0 L 149.0,29.0 L 151.0,28.0" fill="#080808"/>
	<path d="M 153.0,36.0 L 159.0,36.0 L 164.0,41.0 L 164.0,47.0 L 159.0,52.0 L 153.0,52.0 L 148.0,47.0 L 148.0,41.0 L 153.0,36.0" fill="#F0F0F0"/>
</svg>
