<?xml version="1.0" ?>
<svg baseProfile="full" height="600px" version="1.1" viewBox="-20.1 -20.1 240.2 240.2" width="600px" xmlns="http://www.w3.org/2000/svg" xmlns:ev="http://www.w3.org/2001/xml-events" xmlns:xlink="http://www.w3.org/1999/xlink">
	<defs/>
	<path d="M 0.0,0.0 L 200.0,0.0 L 200.0,200.0 L 0.0,200.0 L 0.0,0.0" fill="#FCFCFC"/>
	<path d="M 0.0,0.0 L 200.0,0.0 L 200.0,200.0 L 0.0,200.0 L 0.0,0.0 M 109.0,4.0 L 100.0,11.0 L 84.0,24.0 L 73.0,33.0 L 62.0,42.0 L 46.0,55.0 L 35.0,64.0 L 19.0,77.0 L 8.0,86.0 L 3.0,91.0 L 2.0,93.0 L 2.0,100.0 L 6.0,107.0 L 18.0,121.0 L 29.0,135.0 L 40.0,148.0 L 51.0,162.0 L 63.0,176.0 L 69.0,183.0 L 71.0,184.0 L 80.0,184.0 L 86.0,180.0 L 99.0,169.0 L 113.0,158.0 L 126.0,147.0 L 136.0,139.0 L 152.0,126.0 L 163.0,117.0 L 174.0,108.0 L 185.0,99.0 L 187.0,94.0 L 191.0,63.0 L 194.0,32.0 L 194.0,20.0 L 190.0,14.0 L 186.0,11.0 L 165.0,8.0 L 125.0,4.0 L 109.0,4.0" fill="#FCFCFC"/>
	<path d="M 109.0,4.0 L 125.0,4.0 L 175.0,9.0 L 188.0,12.0 L 193.0,18.0 L 194.0,20.0 L 194.0,32.0 L 191.0,63.0 L 187.0,94.0 L 184.0,100.0 L 171.0,111.0 L 161.0,119.0 L 150.0,128.0 L 134.0,141.0 L 123.0,150.0 L 112.0,159.0 L 96.0,172.0 L 85.0,181.0 L 80.0,184.0 L 71.0,184.0 L 64.0,178.0 L 53.0,164.0 L 41.0,150.0 L 30.0,136.0 L 19.0,123.0 L 11.0,113.0 L 3.0,103.0 L 2.0,100.0 L 2.0,93.0 L 5.0,88.0 L 19.0,77.0 L 32.0,66.0 L 46.0,55.0 L 59.0,44.0 L 73.0,33.0 L 87.0,21.0 L 101.0,10.0 L 109.0,4.0 M 111.0,12.0 L 97.0,24.0 L 87.0,32.0 L 76.0,41.0 L 65.0,50.0 L 49.0,63.0 L 38.0,72.0 L 22.0,85.0 L 11.0,94.0 L 10.0,99.0 L 22.0,113.0 L 30.0,123.0 L 39.0,134.0 L 52.0,150.0 L 61.0,161.0 L 70.0,172.0 L 73.0,176.0 L 78.0,176.0 L 95.0,162.0 L 111.0,149.0 L 122.0,140.0 L 133.0,131.0 L 149.0,118.0 L 160.0,109.0 L 171.0,100.0 L 179.0,93.0 L 181.0,80.0 L 186.0,31.0 L 186.0,22.0 L 182.0,18.0 L 150.0,15.0 L 124.0,12.0 L 111.0,12.0" fill="#080808"/>
	<path d="M 151.0,28.0 L 161.0,28.0 L 167.0,32.0 L 171.0,37.0 L 172.0,39.0 L 172.0,48.0 L 169.0,54.0 L 163.0,59.0 L 161.0,60.0 L 151.0,60.0 L 145.0,56.0 L 141.0,51.0 L 140.0,49.0 L 140.0,39.0 L 144.0,33.0 L 149.0,29.0 L 151.0,28.0" fill="#080808"/>
	<path d="M 153.0,36.0 L 159.0,36.0 L 164.0,41.0 L 164.0,47.0 L 159.0,52.0 L 153.0,52.0 L 148.0,47.0 L 148.0,41.0 L 153.0,36.0" fill="#F0F0F0"/>
</svg>
