<?xml version="1.0" ?>
<svg baseProfile="full" height="600px" version="1.1" viewBox="-20.1 -20.1 240.2 240.2" width="600px" xmlns="http://www.w3.org/2000/svg" xmlns:ev="http://www.w3.org/2001/xml-events" xmlns:xlink="http://www.w3.org/1999/xlink">
	<defs/>
	<path d="M 0.0,0.0 L 200.0,0.0 L 200.0,200.0 L 0.0,200.0 L 0.0,0.0" fill="#FCFCFC"/>
	<path d="M 16.0,60.0 L 183.0,60.0 L 188.0,63.0 L 192.0,68.0 L 192.0,148.0 L 189.0,153.0 L 183.0,156.0 L 152.0,156.0 L 151.0,163.0 L 49.0,163.0 L 48.0,156.0 L 16.0,156.0 L 9.0,150.0 L 8.0,147.0 L 8.0,68.0 L 11.0,63.0 L 16.0,60.0" fill="#FDFDFD"/>
	<path d="M 16.0,60.0 L 183.0,60.0 L 188.0,63.0 L 192.0,68.0 L 192.0,148.0 L 189.0,153.0 L 183.0,156.0 L 152.0,156.0 L 151.0,163.0 L 49.0,163.0 L 48.0,156.0 L 16.0,156.0 L 9.0,150.0 L 8.0,147.0 L 8.0,68.0 L 11.0,63.0 L 16.0,60.0 M 18.0,68.0 L 16.0,70.0 L 16.0,146.0 L 18.0,148.0 L 48.0,148.0 L 48.0,120.0 L 38.0,119.0 L 37.0,114.0 L 38.0,113.0 L 162.0,113.0 L 163.0,118.0 L 162.0,119.0 L 152.0,120.0 L 152.0,148.0 L 182.0,148.0 L 184.0,146.0 L 184.0,70.0 L 182.0,68.0 L 18.0,68.0" fill="#020202"/>
	<path d="M 56.0,120.0 L 69.0,120.0 L 69.0,127.0 L 115.0,127.0 L 115.0,120.0 L 144.0,120.0 L 144.0,155.0 L 56.0,155.0 L 56.0,120.0" fill="#F8F8F8"/>
	<path d="M 70.0,135.0 L 130.0,135.0 L 132.0,137.0 L 131.0,143.0 L 69.0,143.0 L 68.0,137.0 L 70.0,135.0" fill="#0D0D0D"/>
	<path d="M 165.0,80.0 L 171.0,80.0 L 176.0,85.0 L 175.0,93.0 L 171.0,96.0 L 165.0,96.0 L 160.0,91.0 L 160.0,85.0 L 165.0,80.0" fill="#0A0A0A"/>
</svg>
