<?xml version="1.0" ?>
<svg baseProfile="full" height="600px" version="1.1" viewBox="-19.296000000000003 -19.296000000000003 230.592 230.592" width="600px" xmlns="http://www.w3.org/2000/svg" xmlns:ev="http://www.w3.org/2001/xml-events" xmlns:xlink="http://www.w3.org/1999/xlink">
	<defs/>
	<path d="M 0.0,0.0 L 192.0,0.0 L 192.0,192.0 L 0.0,192.0 L 0.0,0.0" fill="#FD9701"/>
	<path d="M 0.0,0.0 L 192.0,0.0 L 192.0,192.0 L 0.0,192.0 L 0.0,0.0 M 25.0,24.0 L 20.0,29.0 L 20.0,56.0 L 28.0,56.0 L 28.0,163.0 L 33.0,168.0 L 158.0,168.0 L 163.0,165.0 L 164.0,162.0 L 164.0,56.0 L 172.0,56.0 L 172.0,29.0 L 167.0,24.0 L 25.0,24.0" fill="#FFFEFD"/>
	<path d="M 25.0,24.0 L 167.0,24.0 L 172.0,29.0 L 172.0,56.0 L 20.0,56.0 L 20.0,29.0 L 25.0,24.0" fill="#FFAA2D"/>
	<path d="M 120.0,120.0 L 125.0,125.0 L 129.0,132.0 L 124.0,132.0 L 124.0,144.0 L 116.0,144.0 L 116.0,132.0 L 113.0,131.0 L 120.0,120.0" fill="#774700"/>
	<path d="M 139.0,121.0 L 142.0,122.0 L 148.0,132.0 L 144.0,132.0 L 144.0,144.0 L 136.0,144.0 L 136.0,132.0 L 132.0,131.0 L 139.0,121.0" fill="#774700"/>
	<path d="M 112.0,148.0 L 148.0,148.0 L 148.0,152.0 L 112.0,152.0 L 112.0,148.0" fill="#754600"/>
</svg>
