<?xml version="1.0" ?>
<svg baseProfile="full" height="600px" version="1.1" viewBox="-20.1 -20.1 240.2 240.2" width="600px" xmlns="http://www.w3.org/2000/svg" xmlns:ev="http://www.w3.org/2001/xml-events" xmlns:xlink="http://www.w3.org/1999/xlink">
	<defs/>
	<path d="M 0.0,0.0 L 200.0,0.0 L 200.0,200.0 L 0.0,200.0 L 0.0,0.0" fill="#FDFDFD"/>
	<path d="M 0.0,0.0 L 200.0,0.0 L 200.0,200.0 L 0.0,200.0 L 0.0,0.0 M 42.0,16.0 L 29.0,27.0 L 18.0,36.0 L 16.0,38.0 L 16.0,182.0 L 18.0,184.0 L 182.0,184.0 L 184.0,182.0 L 184.0,38.0 L 173.0,28.0 L 162.0,19.0 L 157.0,16.0 L 42.0,16.0" fill="#FDFDFD"/>
	<path d="M 42.0,16.0 L 157.0,16.0 L 163.0,20.0 L 177.0,32.0 L 184.0,38.0 L 184.0,182.0 L 182.0,184.0 L 18.0,184.0 L 16.0,182.0 L 16.0,38.0 L 27.0,28.0 L 38.0,19.0 L 42.0,16.0 M 24.0,44.0 L 24.0,176.0 L 176.0,176.0 L 176.0,44.0 L 24.0,44.0" fill="#010101"/>
	<path d="M 82.0,60.0 L 117.0,60.0 L 122.0,63.0 L 124.0,66.0 L 124.0,74.0 L 119.0,79.0 L 118.0,80.0 L 82.0,80.0 L 77.0,75.0 L 76.0,73.0 L 76.0,66.0 L 81.0,61.0 L 82.0,60.0" fill="#040404"/>
	<path d="M 104.0,24.0 L 155.0,24.0 L 168.0,35.0 L 168.0,36.0 L 104.0,36.0 L 104.0,24.0" fill="#FDFDFD"/>
	<path d="M 45.0,24.0 L 96.0,24.0 L 96.0,36.0 L 32.0,36.0 L 37.0,31.0 L 45.0,24.0" fill="#FDFDFD"/>
	<path d="M 112.0,156.0 L 164.0,156.0 L 164.0,164.0 L 112.0,164.0 L 112.0,156.0" fill="#000000"/>
	<path d="M 151.0,124.0 L 155.0,126.0 L 164.0,135.0 L 164.0,136.0 L 156.0,136.0 L 156.0,152.0 L 148.0,152.0 L 148.0,136.0 L 140.0,136.0 L 146.0,129.0 L 151.0,124.0" fill="#0A0A0A"/>
	<path d="M 123.0,124.0 L 127.0,126.0 L 136.0,135.0 L 136.0,136.0 L 128.0,136.0 L 128.0,152.0 L 120.0,152.0 L 120.0,136.0 L 112.0,136.0 L 118.0,129.0 L 123.0,124.0" fill="#0A0A0A"/>
	<path d="M 85.0,68.0 L 115.0,68.0 L 115.0,72.0 L 85.0,72.0 L 85.0,68.0" fill="#FAFAFA"/>
</svg>
