<?xml version="1.0" ?>
<svg baseProfile="full" height="600px" version="1.1" viewBox="-19.296000000000003 -19.296000000000003 230.592 230.592" width="600px" xmlns="http://www.w3.org/2000/svg" xmlns:ev="http://www.w3.org/2001/xml-events" xmlns:xlink="http://www.w3.org/1999/xlink">
	<defs/>
	<path d="M 0.0,0.0 L 192.0,0.0 L 192.0,192.0 L 0.0,192.0 L 0.0,0.0" fill="#FD9701"/>
	<path d="M 0.0,0.0 L 192.0,0.0 L 192.0,192.0 L 0.0,192.0 L 0.0,0.0 M 24.0,31.0 L 19.0,35.0 L 19.0,63.0 L 27.0,63.0 L 27.0,148.0 L 28.0,163.0 L 33.0,168.0 L 158.0,168.0 L 163.0,165.0 L 164.0,163.0 L 165.0,145.0 L 165.0,63.0 L 173.0,63.0 L 173.0,36.0 L 168.0,31.0 L 24.0,31.0" fill="#FFFEFD"/>
	<path d="M 24.0,31.0 L 168.0,31.0 L 173.0,36.0 L 173.0,63.0 L 165.0,63.0 L 165.0,100.0 L 164.0,100.0 L 164.0,63.0 L 28.0,63.0 L 28.0,148.0 L 27.0,148.0 L 27.0,63.0 L 19.0,63.0 L 19.0,35.0 L 24.0,31.0" fill="#FFAA2E"/>
	<path d="M 120.0,121.0 L 122.0,121.0 L 128.0,130.0 L 129.0,133.0 L 124.0,133.0 L 124.0,145.0 L 116.0,145.0 L 116.0,133.0 L 113.0,133.0 L 115.0,128.0 L 120.0,121.0" fill="#7D4B00"/>
	<path d="M 140.0,121.0 L 145.0,126.0 L 149.0,133.0 L 144.0,133.0 L 144.0,145.0 L 136.0,145.0 L 136.0,133.0 L 133.0,133.0 L 135.0,128.0 L 140.0,121.0" fill="#7E4B00"/>
	<path d="M 112.0,148.0 L 148.0,148.0 L 148.0,152.0 L 112.0,152.0 L 112.0,148.0" fill="#804C00"/>
</svg>
