<?xml version="1.0" ?>
<svg baseProfile="full" height="600px" version="1.1" viewBox="-20.1 -20.1 240.2 240.2" width="600px" xmlns="http://www.w3.org/2000/svg" xmlns:ev="http://www.w3.org/2001/xml-events" xmlns:xlink="http://www.w3.org/1999/xlink">
	<defs/>
	<path d="M 0.0,0.0 L 200.0,0.0 L 200.0,200.0 L 0.0,200.0 L 0.0,0.0" fill="#FCFCFC"/>
	<path d="M 0.0,0.0 L 200.0,0.0 L 200.0,200.0 L 0.0,200.0 L 0.0,0.0 M 41.0,21.0 L 27.0,33.0 L 17.0,41.0 L 16.0,46.0 L 18.0,63.0 L 18.0,146.0 L 16.0,175.0 L 16.0,182.0 L 18.0,184.0 L 182.0,184.0 L 184.0,182.0 L 182.0,147.0 L 182.0,68.0 L 184.0,42.0 L 175.0,34.0 L 165.0,26.0 L 159.0,21.0 L 41.0,21.0" fill="#FCFCFC"/>
	<path d="M 41.0,21.0 L 159.0,21.0 L 173.0,33.0 L 183.0,41.0 L 184.0,46.0 L 182.0,68.0 L 182.0,147.0 L 184.0,182.0 L 182.0,184.0 L 18.0,184.0 L 16.0,182.0 L 17.0,163.0 L 18.0,146.0 L 18.0,63.0 L 16.0,42.0 L 25.0,34.0 L 35.0,26.0 L 41.0,21.0 M 25.0,48.0 L 26.0,60.0 L 27.0,75.0 L 27.0,133.0 L 25.0,164.0 L 25.0,176.0 L 175.0,176.0 L 174.0,154.0 L 173.0,133.0 L 173.0,80.0 L 174.0,60.0 L 175.0,48.0 L 25.0,48.0" fill="#080808"/>
	<path d="M 83.0,63.0 L 116.0,63.0 L 121.0,66.0 L 124.0,70.0 L 124.0,76.0 L 122.0,80.0 L 117.0,83.0 L 83.0,83.0 L 77.0,78.0 L 76.0,76.0 L 76.0,70.0 L 81.0,64.0 L 83.0,63.0" fill="#090909"/>
	<path d="M 45.0,28.0 L 96.0,28.0 L 96.0,40.0 L 32.0,40.0 L 37.0,35.0 L 45.0,28.0" fill="#F4F4F4"/>
	<path d="M 104.0,28.0 L 155.0,28.0 L 168.0,39.0 L 168.0,40.0 L 104.0,40.0 L 104.0,28.0" fill="#F4F4F4"/>
	<path d="M 112.0,157.0 L 164.0,157.0 L 164.0,164.0 L 112.0,164.0 L 112.0,157.0" fill="#000000"/>
	<path d="M 122.0,126.0 L 126.0,128.0 L 134.0,136.0 L 134.0,137.0 L 127.0,137.0 L 128.0,143.0 L 128.0,153.0 L 120.0,153.0 L 119.0,137.0 L 112.0,137.0 L 118.0,130.0 L 122.0,126.0" fill="#090909"/>
	<path d="M 149.0,126.0 L 153.0,128.0 L 160.0,136.0 L 160.0,137.0 L 154.0,137.0 L 156.0,147.0 L 156.0,153.0 L 148.0,153.0 L 146.0,137.0 L 139.0,137.0 L 145.0,130.0 L 149.0,126.0" fill="#080808"/>
	<path d="M 85.0,71.0 L 115.0,71.0 L 115.0,75.0 L 85.0,75.0 L 85.0,71.0" fill="#EFEFEF"/>
</svg>
