<?xml version="1.0" ?>
<svg baseProfile="full" height="600px" version="1.1" viewBox="-19.296000000000003 -19.296000000000003 230.592 230.592" width="600px" xmlns="http://www.w3.org/2000/svg" xmlns:ev="http://www.w3.org/2001/xml-events" xmlns:xlink="http://www.w3.org/1999/xlink">
	<defs/>
	<path d="M 0.0,0.0 L 192.0,0.0 L 192.0,192.0 L 0.0,192.0 L 0.0,0.0" fill="#FFFDFC"/>
	<path d="M 30.0,64.0 L 162.0,64.0 L 162.0,164.0 L 157.0,168.0 L 34.0,168.0 L 30.0,164.0 L 30.0,64.0" fill="#FD9701"/>
	<path d="M 24.0,28.0 L 167.0,28.0 L 172.0,31.0 L 174.0,33.0 L 174.0,60.0 L 18.0,60.0 L 18.0,33.0 L 24.0,28.0" fill="#FFAC33"/>
	<path d="M 119.0,124.0 L 123.0,126.0 L 128.0,133.0 L 128.0,135.0 L 123.0,135.0 L 123.0,146.0 L 115.0,146.0 L 115.0,135.0 L 112.0,135.0 L 112.0,133.0 L 114.0,133.0 L 116.0,128.0 L 119.0,124.0" fill="#7F4C00"/>
	<path d="M 137.0,124.0 L 140.0,125.0 L 145.0,132.0 L 145.0,135.0 L 143.0,135.0 L 143.0,146.0 L 135.0,146.0 L 134.0,135.0 L 131.0,133.0 L 137.0,124.0" fill="#7E4B00"/>
	<path d="M 112.0,149.0 L 147.0,149.0 L 147.0,153.0 L 112.0,153.0 L 112.0,149.0" fill="#804C00"/>
</svg>
