<?xml version="1.0" ?>
<svg baseProfile="full" height="600px" version="1.1" viewBox="-20.1 -20.1 240.2 240.2" width="600px" xmlns="http://www.w3.org/2000/svg" xmlns:ev="http://www.w3.org/2001/xml-events" xmlns:xlink="http://www.w3.org/1999/xlink">
	<defs/>
	<path d="M 0.0,0.0 L 200.0,0.0 L 200.0,200.0 L 0.0,200.0 L 0.0,0.0" fill="#FCFCFC"/>
	<path d="M 0.0,0.0 L 200.0,0.0 L 200.0,200.0 L 0.0,200.0 L 0.0,0.0 M 42.0,17.0 L 24.0,30.0 L 16.0,36.0 L 14.0,51.0 L 14.0,145.0 L 15.0,170.0 L 17.0,175.0 L 18.0,176.0 L 182.0,176.0 L 184.0,174.0 L 185.0,165.0 L 186.0,142.0 L 186.0,51.0 L 184.0,36.0 L 168.0,24.0 L 157.0,17.0 L 42.0,17.0" fill="#FBFBFB"/>
	<path d="M 42.0,17.0 L 157.0,17.0 L 168.0,24.0 L 184.0,36.0 L 186.0,51.0 L 186.0,142.0 L 185.0,165.0 L 184.0,174.0 L 182.0,176.0 L 18.0,176.0 L 16.0,174.0 L 15.0,170.0 L 14.0,145.0 L 14.0,51.0 L 16.0,36.0 L 32.0,24.0 L 42.0,17.0 M 23.0,42.0 L 22.0,57.0 L 22.0,146.0 L 23.0,163.0 L 24.0,168.0 L 177.0,168.0 L 178.0,143.0 L 178.0,52.0 L 177.0,42.0 L 23.0,42.0" fill="#0A0A0A"/>
	<path d="M 83.0,57.0 L 116.0,57.0 L 121.0,60.0 L 124.0,63.0 L 123.0,72.0 L 118.0,76.0 L 81.0,76.0 L 77.0,72.0 L 76.0,64.0 L 81.0,58.0 L 83.0,57.0" fill="#060606"/>
	<path d="M 104.0,25.0 L 155.0,25.0 L 167.0,33.0 L 167.0,34.0 L 104.0,34.0 L 104.0,25.0" fill="#FCFCFC"/>
	<path d="M 45.0,25.0 L 96.0,25.0 L 96.0,34.0 L 34.0,34.0 L 39.0,29.0 L 45.0,25.0" fill="#FDFDFD"/>
	<path d="M 112.0,149.0 L 164.0,149.0 L 164.0,157.0 L 112.0,157.0 L 112.0,149.0" fill="#0A0A0A"/>
	<path d="M 153.0,119.0 L 157.0,121.0 L 165.0,129.0 L 165.0,130.0 L 157.0,130.0 L 156.0,146.0 L 148.0,145.0 L 148.0,136.0 L 149.0,130.0 L 142.0,130.0 L 148.0,123.0 L 153.0,119.0" fill="#090909"/>
	<path d="M 124.0,119.0 L 128.0,121.0 L 135.0,128.0 L 137.0,130.0 L 128.0,130.0 L 128.0,145.0 L 120.0,145.0 L 120.0,130.0 L 113.0,130.0 L 119.0,123.0 L 124.0,119.0" fill="#070707"/>
	<path d="M 85.0,65.0 L 115.0,65.0 L 115.0,69.0 L 85.0,69.0 L 85.0,65.0" fill="#EBEBEB"/>
</svg>
