<?xml version="1.0" ?>
<svg baseProfile="full" height="600px" version="1.1" viewBox="-19.296000000000003 -19.296000000000003 230.592 230.592" width="600px" xmlns="http://www.w3.org/2000/svg" xmlns:ev="http://www.w3.org/2001/xml-events" xmlns:xlink="http://www.w3.org/1999/xlink">
	<defs/>
	<path d="M 0.0,0.0 L 192.0,0.0 L 192.0,192.0 L 0.0,192.0 L 0.0,0.0" fill="#FCFDFD"/>
	<path d="M 95.0,16.0 L 97.0,16.0 L 102.0,21.0 L 111.0,29.0 L 125.0,38.0 L 136.0,43.0 L 150.0,47.0 L 160.0,48.0 L 160.0,64.0 L 158.0,80.0 L 153.0,102.0 L 145.0,124.0 L 136.0,140.0 L 127.0,152.0 L 121.0,159.0 L 110.0,168.0 L 98.0,176.0 L 92.0,174.0 L 79.0,165.0 L 68.0,155.0 L 57.0,141.0 L 48.0,125.0 L 42.0,111.0 L 36.0,91.0 L 33.0,74.0 L 32.0,61.0 L 32.0,48.0 L 49.0,45.0 L 67.0,37.0 L 81.0,28.0 L 92.0,19.0 L 95.0,16.0" fill="#2899D8"/>
	<path d="M 68.0,98.0 L 80.0,98.0 L 81.0,109.0 L 84.0,116.0 L 90.0,119.0 L 105.0,120.0 L 105.0,132.0 L 88.0,132.0 L 78.0,127.0 L 73.0,122.0 L 68.0,112.0 L 68.0,98.0" fill="#DCEEFA"/>
	<path d="M 87.0,64.0 L 103.0,64.0 L 113.0,68.0 L 118.0,72.0 L 122.0,78.0 L 124.0,84.0 L 124.0,98.0 L 112.0,98.0 L 111.0,85.0 L 108.0,80.0 L 101.0,77.0 L 87.0,76.0 L 87.0,64.0" fill="#DCEEFA"/>
</svg>
