<?xml version="1.0" ?>
<svg baseProfile="full" height="600px" version="1.1" viewBox="-19.296000000000003 -19.296000000000003 230.592 230.592" width="600px" xmlns="http://www.w3.org/2000/svg" xmlns:ev="http://www.w3.org/2001/xml-events" xmlns:xlink="http://www.w3.org/1999/xlink">
	<defs/>
	<path d="M 0.0,0.0 L 192.0,0.0 L 192.0,192.0 L 0.0,192.0 L 0.0,0.0" fill="#FCFDFD"/>
	<path d="M 95.0,16.0 L 97.0,16.0 L 102.0,21.0 L 111.0,29.0 L 125.0,38.0 L 136.0,43.0 L 150.0,47.0 L 160.0,48.0 L 160.0,64.0 L 157.0,85.0 L 153.0,103.0 L 145.0,124.0 L 135.0,142.0 L 126.0,153.0 L 113.0,166.0 L 98.0,176.0 L 92.0,174.0 L 79.0,165.0 L 68.0,155.0 L 57.0,141.0 L 48.0,125.0 L 42.0,111.0 L 37.0,95.0 L 33.0,74.0 L 32.0,61.0 L 32.0,48.0 L 49.0,45.0 L 67.0,37.0 L 81.0,28.0 L 92.0,19.0 L 95.0,16.0" fill="#399D7D"/>
</svg>
