<?xml version="1.0" ?>
<svg baseProfile="full" height="600px" version="1.1" viewBox="-20.1 -20.1 240.2 240.2" width="600px" xmlns="http://www.w3.org/2000/svg" xmlns:ev="http://www.w3.org/2001/xml-events" xmlns:xlink="http://www.w3.org/1999/xlink">
	<defs/>
	<path d="M 0.0,0.0 L 200.0,0.0 L 200.0,200.0 L 0.0,200.0 L 0.0,0.0" fill="#070707"/>
	<path d="M 0.0,48.0 L 32.0,48.0 L 41.0,65.0 L 49.0,81.0 L 53.0,84.0 L 60.0,84.0 L 69.0,82.0 L 76.0,82.0 L 76.0,121.0 L 69.0,160.0 L 69.0,167.0 L 75.0,176.0 L 84.0,186.0 L 91.0,195.0 L 98.0,199.0 L 98.0,200.0 L 0.0,200.0 L 0.0,48.0" fill="#FDFDFD"/>
	<path d="M 168.0,48.0 L 200.0,48.0 L 200.0,200.0 L 105.0,200.0 L 108.0,198.0 L 113.0,193.0 L 114.0,184.0 L 113.0,181.0 L 132.0,168.0 L 135.0,164.0 L 135.0,155.0 L 130.0,140.0 L 125.0,122.0 L 124.0,120.0 L 124.0,81.0 L 140.0,84.0 L 147.0,84.0 L 152.0,80.0 L 163.0,58.0 L 168.0,48.0" fill="#FDFDFD"/>
	<path d="M 0.0,0.0 L 200.0,0.0 L 200.0,40.0 L 170.0,40.0 L 167.0,33.0 L 162.0,30.0 L 156.0,30.0 L 151.0,33.0 L 147.0,40.0 L 122.0,40.0 L 121.0,29.0 L 116.0,21.0 L 110.0,16.0 L 105.0,14.0 L 95.0,14.0 L 87.0,18.0 L 81.0,25.0 L 79.0,30.0 L 78.0,40.0 L 53.0,40.0 L 49.0,33.0 L 45.0,31.0 L 37.0,31.0 L 32.0,35.0 L 30.0,40.0 L 0.0,40.0 L 0.0,0.0" fill="#FDFDFD"/>
	<path d="M 41.0,48.0 L 49.0,48.0 L 58.0,65.0 L 64.0,66.0 L 91.0,56.0 L 108.0,56.0 L 137.0,66.0 L 143.0,64.0 L 151.0,48.0 L 159.0,48.0 L 152.0,64.0 L 146.0,76.0 L 138.0,76.0 L 122.0,73.0 L 117.0,74.0 L 117.0,120.0 L 122.0,137.0 L 128.0,157.0 L 128.0,162.0 L 110.0,174.0 L 106.0,172.0 L 103.0,167.0 L 113.0,159.0 L 114.0,153.0 L 103.0,128.0 L 98.0,127.0 L 95.0,136.0 L 90.0,155.0 L 90.0,163.0 L 104.0,181.0 L 106.0,184.0 L 106.0,190.0 L 104.0,192.0 L 98.0,191.0 L 87.0,179.0 L 78.0,168.0 L 76.0,165.0 L 77.0,157.0 L 83.0,122.0 L 83.0,74.0 L 75.0,74.0 L 58.0,77.0 L 54.0,76.0 L 41.0,49.0 L 41.0,48.0" fill="#F9F9F9"/>
	<path d="M 96.0,21.0 L 103.0,21.0 L 109.0,24.0 L 113.0,29.0 L 114.0,31.0 L 114.0,39.0 L 113.0,40.0 L 87.0,40.0 L 86.0,39.0 L 86.0,31.0 L 90.0,25.0 L 96.0,21.0" fill="#F7F7F7"/>
	<path d="M 118.0,48.0 L 142.0,48.0 L 140.0,54.0 L 138.0,58.0 L 127.0,55.0 L 116.0,51.0 L 118.0,48.0" fill="#F6F6F6"/>
	<path d="M 58.0,48.0 L 82.0,48.0 L 84.0,51.0 L 65.0,58.0 L 62.0,58.0 L 58.0,50.0 L 58.0,48.0" fill="#F7F7F7"/>
	<path d="M 100.0,144.0 L 102.0,144.0 L 106.0,153.0 L 105.0,156.0 L 99.0,160.0 L 97.0,160.0 L 98.0,152.0 L 100.0,144.0" fill="#EAEAEA"/>
</svg>
