<?xml version="1.0" ?>
<svg baseProfile="full" height="600px" version="1.1" viewBox="-20.1 -20.1 240.2 240.2" width="600px" xmlns="http://www.w3.org/2000/svg" xmlns:ev="http://www.w3.org/2001/xml-events" xmlns:xlink="http://www.w3.org/1999/xlink">
	<defs/>
	<path d="M 0.0,0.0 L 200.0,0.0 L 200.0,200.0 L 0.0,200.0 L 0.0,0.0" fill="#070707"/>
	<path d="M 0.0,48.0 L 32.0,48.0 L 41.0,65.0 L 49.0,82.0 L 68.0,92.0 L 76.0,96.0 L 76.0,135.0 L 69.0,174.0 L 69.0,181.0 L 72.0,186.0 L 80.0,191.0 L 95.0,198.0 L 103.0,198.0 L 108.0,194.0 L 110.0,191.0 L 131.0,186.0 L 134.0,185.0 L 135.0,181.0 L 135.0,173.0 L 130.0,155.0 L 124.0,133.0 L 124.0,96.0 L 140.0,88.0 L 150.0,83.0 L 160.0,64.0 L 168.0,48.0 L 200.0,48.0 L 200.0,200.0 L 0.0,200.0 L 0.0,48.0" fill="#FDFDFD"/>
	<path d="M 0.0,0.0 L 200.0,0.0 L 200.0,40.0 L 170.0,40.0 L 167.0,33.0 L 162.0,30.0 L 156.0,30.0 L 151.0,33.0 L 147.0,40.0 L 108.0,40.0 L 105.0,39.0 L 94.0,39.0 L 91.0,40.0 L 53.0,40.0 L 49.0,33.0 L 45.0,31.0 L 37.0,31.0 L 32.0,35.0 L 30.0,40.0 L 0.0,40.0 L 0.0,0.0" fill="#FDFDFD"/>
	<path d="M 41.0,48.0 L 49.0,48.0 L 61.0,70.0 L 87.0,77.0 L 95.0,81.0 L 105.0,81.0 L 113.0,77.0 L 137.0,71.0 L 142.0,66.0 L 151.0,48.0 L 159.0,48.0 L 152.0,64.0 L 145.0,77.0 L 126.0,87.0 L 118.0,91.0 L 117.0,92.0 L 117.0,136.0 L 124.0,160.0 L 128.0,176.0 L 127.0,180.0 L 113.0,183.0 L 110.0,183.0 L 107.0,178.0 L 106.0,176.0 L 114.0,173.0 L 113.0,166.0 L 103.0,142.0 L 98.0,141.0 L 95.0,148.0 L 90.0,168.0 L 89.0,174.0 L 90.0,178.0 L 96.0,180.0 L 103.0,184.0 L 102.0,190.0 L 97.0,191.0 L 78.0,182.0 L 76.0,180.0 L 77.0,171.0 L 83.0,136.0 L 83.0,93.0 L 82.0,90.0 L 76.0,88.0 L 56.0,78.0 L 51.0,70.0 L 41.0,49.0 L 41.0,48.0" fill="#F9F9F9"/>
	<path d="M 92.0,48.0 L 108.0,48.0 L 113.0,54.0 L 114.0,56.0 L 114.0,63.0 L 111.0,69.0 L 106.0,73.0 L 103.0,74.0 L 96.0,74.0 L 90.0,70.0 L 86.0,64.0 L 86.0,56.0 L 90.0,50.0 L 92.0,48.0" fill="#F8F8F8"/>
	<path d="M 119.0,48.0 L 142.0,48.0 L 140.0,54.0 L 135.0,63.0 L 126.0,66.0 L 121.0,67.0 L 121.0,54.0 L 119.0,48.0" fill="#FAFAFA"/>
	<path d="M 58.0,48.0 L 81.0,48.0 L 79.0,54.0 L 79.0,67.0 L 66.0,64.0 L 58.0,50.0 L 58.0,48.0" fill="#F9F9F9"/>
	<path d="M 100.0,157.0 L 102.0,158.0 L 105.0,165.0 L 105.0,168.0 L 101.0,170.0 L 97.0,170.0 L 100.0,157.0" fill="#E6E6E6"/>
</svg>
