<?xml version="1.0" ?>
<svg baseProfile="full" height="600px" version="1.1" viewBox="-20.1 -20.1 240.2 240.2" width="600px" xmlns="http://www.w3.org/2000/svg" xmlns:ev="http://www.w3.org/2001/xml-events" xmlns:xlink="http://www.w3.org/1999/xlink">
	<defs/>
	<path d="M 0.0,0.0 L 200.0,0.0 L 200.0,200.0 L 0.0,200.0 L 0.0,0.0" fill="#FDFDFD"/>
	<path d="M 0.0,0.0 L 200.0,0.0 L 200.0,48.0 L 168.0,49.0 L 152.0,82.0 L 144.0,86.0 L 127.0,91.0 L 124.0,91.0 L 125.0,126.0 L 133.0,152.0 L 136.0,164.0 L 135.0,173.0 L 129.0,178.0 L 115.0,185.0 L 113.0,194.0 L 109.0,198.0 L 107.0,199.0 L 96.0,199.0 L 90.0,195.0 L 77.0,183.0 L 70.0,177.0 L 68.0,172.0 L 68.0,165.0 L 73.0,139.0 L 75.0,127.0 L 76.0,92.0 L 65.0,89.0 L 52.0,85.0 L 46.0,78.0 L 32.0,49.0 L 0.0,48.0 L 0.0,0.0" fill="#070707"/>
	<path d="M 0.0,0.0 L 200.0,0.0 L 200.0,40.0 L 170.0,40.0 L 167.0,33.0 L 162.0,30.0 L 156.0,30.0 L 151.0,33.0 L 147.0,40.0 L 119.0,40.0 L 113.0,33.0 L 106.0,30.0 L 93.0,30.0 L 85.0,35.0 L 81.0,40.0 L 53.0,40.0 L 49.0,33.0 L 45.0,31.0 L 37.0,31.0 L 32.0,35.0 L 30.0,40.0 L 0.0,40.0 L 0.0,0.0" fill="#FDFDFD"/>
	<path d="M 41.0,48.0 L 49.0,48.0 L 58.0,65.0 L 58.0,67.0 L 61.0,68.0 L 91.0,70.0 L 93.0,71.0 L 106.0,71.0 L 109.0,70.0 L 139.0,68.0 L 143.0,64.0 L 151.0,48.0 L 159.0,48.0 L 152.0,64.0 L 145.0,77.0 L 129.0,82.0 L 119.0,85.0 L 117.0,88.0 L 117.0,126.0 L 123.0,147.0 L 128.0,164.0 L 128.0,169.0 L 113.0,177.0 L 108.0,176.0 L 104.0,171.0 L 113.0,166.0 L 115.0,166.0 L 113.0,157.0 L 103.0,134.0 L 98.0,133.0 L 95.0,140.0 L 90.0,160.0 L 90.0,167.0 L 97.0,175.0 L 106.0,185.0 L 106.0,190.0 L 105.0,191.0 L 98.0,191.0 L 88.0,182.0 L 80.0,175.0 L 76.0,171.0 L 77.0,161.0 L 83.0,128.0 L 83.0,88.0 L 82.0,85.0 L 72.0,83.0 L 55.0,77.0 L 47.0,61.0 L 41.0,48.0" fill="#F8F8F8"/>
	<path d="M 86.0,48.0 L 114.0,48.0 L 114.0,55.0 L 110.0,61.0 L 105.0,64.0 L 95.0,64.0 L 89.0,60.0 L 86.0,54.0 L 86.0,48.0" fill="#F9F9F9"/>
	<path d="M 122.0,48.0 L 142.0,48.0 L 140.0,54.0 L 136.0,61.0 L 120.0,61.0 L 122.0,48.0" fill="#F9F9F9"/>
	<path d="M 58.0,48.0 L 78.0,48.0 L 80.0,61.0 L 64.0,61.0 L 58.0,50.0 L 58.0,48.0" fill="#FBFBFB"/>
	<path d="M 101.0,150.0 L 104.0,154.0 L 106.0,161.0 L 100.0,165.0 L 97.0,164.0 L 99.0,155.0 L 101.0,150.0" fill="#ECECEC"/>
	<path d="M 95.0,37.0 L 105.0,37.0 L 109.0,40.0 L 91.0,40.0 L 95.0,37.0" fill="#F4F4F4"/>
</svg>
