<?xml version="1.0" ?>
<svg baseProfile="full" height="600px" version="1.1" viewBox="-20.1 -20.1 240.2 240.2" width="600px" xmlns="http://www.w3.org/2000/svg" xmlns:ev="http://www.w3.org/2001/xml-events" xmlns:xlink="http://www.w3.org/1999/xlink">
	<defs/>
	<path d="M 0.0,0.0 L 200.0,0.0 L 200.0,200.0 L 0.0,200.0 L 0.0,0.0" fill="#060606"/>
	<path d="M 0.0,48.0 L 32.0,48.0 L 41.0,65.0 L 49.0,82.0 L 60.0,92.0 L 71.0,101.0 L 76.0,105.0 L 76.0,147.0 L 69.0,184.0 L 69.0,192.0 L 72.0,198.0 L 74.0,200.0 L 0.0,200.0 L 0.0,48.0" fill="#FDFDFD"/>
	<path d="M 168.0,48.0 L 200.0,48.0 L 200.0,200.0 L 130.0,200.0 L 134.0,198.0 L 135.0,188.0 L 129.0,163.0 L 125.0,148.0 L 124.0,144.0 L 124.0,105.0 L 138.0,93.0 L 148.0,85.0 L 152.0,80.0 L 163.0,58.0 L 168.0,48.0" fill="#FDFDFD"/>
	<path d="M 0.0,0.0 L 200.0,0.0 L 200.0,40.0 L 170.0,40.0 L 167.0,33.0 L 162.0,30.0 L 156.0,30.0 L 151.0,33.0 L 147.0,40.0 L 53.0,40.0 L 49.0,33.0 L 45.0,31.0 L 37.0,31.0 L 32.0,35.0 L 30.0,40.0 L 0.0,40.0 L 0.0,0.0" fill="#FDFDFD"/>
	<path d="M 41.0,48.0 L 49.0,48.0 L 62.0,73.0 L 78.0,83.0 L 88.0,91.0 L 94.0,94.0 L 105.0,94.0 L 115.0,89.0 L 123.0,82.0 L 138.0,73.0 L 148.0,54.0 L 151.0,48.0 L 159.0,48.0 L 152.0,64.0 L 144.0,79.0 L 131.0,90.0 L 118.0,100.0 L 117.0,102.0 L 117.0,147.0 L 121.0,161.0 L 128.0,188.0 L 128.0,192.0 L 106.0,192.0 L 106.0,185.0 L 114.0,184.0 L 113.0,177.0 L 103.0,153.0 L 98.0,152.0 L 95.0,159.0 L 90.0,177.0 L 90.0,184.0 L 97.0,185.0 L 98.0,190.0 L 96.0,192.0 L 77.0,192.0 L 76.0,191.0 L 77.0,180.0 L 83.0,148.0 L 83.0,103.0 L 79.0,98.0 L 68.0,89.0 L 58.0,80.0 L 54.0,76.0 L 41.0,49.0 L 41.0,48.0" fill="#F8F8F8"/>
	<path d="M 58.0,48.0 L 142.0,48.0 L 140.0,54.0 L 133.0,67.0 L 123.0,74.0 L 122.0,74.0 L 120.0,65.0 L 115.0,57.0 L 105.0,52.0 L 94.0,52.0 L 84.0,58.0 L 79.0,67.0 L 78.0,74.0 L 67.0,67.0 L 58.0,50.0 L 58.0,48.0" fill="#FAFAFA"/>
	<path d="M 96.0,59.0 L 103.0,59.0 L 109.0,62.0 L 113.0,67.0 L 114.0,69.0 L 114.0,76.0 L 111.0,82.0 L 106.0,86.0 L 103.0,87.0 L 96.0,87.0 L 90.0,83.0 L 87.0,79.0 L 86.0,76.0 L 86.0,69.0 L 90.0,63.0 L 96.0,59.0" fill="#F9F9F9"/>
	<path d="M 100.0,168.0 L 103.0,171.0 L 104.0,177.0 L 98.0,177.0 L 100.0,168.0" fill="#E4E4E4"/>
</svg>
