<?xml version="1.0" ?>
<svg baseProfile="full" height="600px" version="1.1" viewBox="-20.1 -20.1 240.2 240.2" width="600px" xmlns="http://www.w3.org/2000/svg" xmlns:ev="http://www.w3.org/2001/xml-events" xmlns:xlink="http://www.w3.org/1999/xlink">
	<defs/>
	<path d="M 0.0,0.0 L 200.0,0.0 L 200.0,200.0 L 0.0,200.0 L 0.0,0.0" fill="#070707"/>
	<path d="M 0.0,48.0 L 32.0,48.0 L 41.0,65.0 L 49.0,81.0 L 53.0,84.0 L 63.0,83.0 L 76.0,81.0 L 76.0,118.0 L 69.0,158.0 L 70.0,166.0 L 80.0,180.0 L 91.0,194.0 L 96.0,198.0 L 98.0,200.0 L 0.0,200.0 L 0.0,48.0" fill="#FDFDFD"/>
	<path d="M 168.0,48.0 L 200.0,48.0 L 200.0,200.0 L 106.0,200.0 L 111.0,196.0 L 114.0,190.0 L 114.0,182.0 L 114.0,178.0 L 130.0,166.0 L 134.0,162.0 L 135.0,160.0 L 135.0,153.0 L 129.0,132.0 L 124.0,116.0 L 124.0,81.0 L 134.0,82.0 L 139.0,83.0 L 149.0,83.0 L 153.0,78.0 L 167.0,49.0 L 168.0,48.0" fill="#FDFDFD"/>
	<path d="M 0.0,0.0 L 200.0,0.0 L 200.0,40.0 L 170.0,40.0 L 167.0,33.0 L 162.0,30.0 L 156.0,30.0 L 151.0,33.0 L 147.0,40.0 L 121.0,40.0 L 121.0,28.0 L 117.0,20.0 L 111.0,15.0 L 106.0,13.0 L 93.0,13.0 L 85.0,18.0 L 81.0,23.0 L 79.0,28.0 L 79.0,40.0 L 53.0,40.0 L 49.0,33.0 L 45.0,31.0 L 37.0,31.0 L 32.0,35.0 L 30.0,40.0 L 0.0,40.0 L 0.0,0.0" fill="#FDFDFD"/>
	<path d="M 41.0,48.0 L 49.0,48.0 L 57.0,63.0 L 60.0,65.0 L 66.0,64.0 L 92.0,55.0 L 107.0,55.0 L 137.0,65.0 L 144.0,64.0 L 146.0,58.0 L 151.0,48.0 L 159.0,48.0 L 152.0,64.0 L 146.0,76.0 L 135.0,75.0 L 126.0,73.0 L 117.0,73.0 L 117.0,117.0 L 125.0,143.0 L 128.0,153.0 L 128.0,158.0 L 118.0,166.0 L 109.0,172.0 L 107.0,172.0 L 103.0,166.0 L 105.0,162.0 L 113.0,155.0 L 114.0,149.0 L 103.0,125.0 L 98.0,124.0 L 95.0,132.0 L 90.0,152.0 L 90.0,160.0 L 101.0,176.0 L 107.0,185.0 L 106.0,190.0 L 104.0,192.0 L 98.0,191.0 L 89.0,180.0 L 76.0,162.0 L 77.0,154.0 L 83.0,119.0 L 84.0,73.0 L 76.0,73.0 L 62.0,76.0 L 54.0,76.0 L 41.0,49.0 L 41.0,48.0" fill="#F9F9F9"/>
	<path d="M 95.0,20.0 L 105.0,20.0 L 111.0,24.0 L 114.0,29.0 L 114.0,37.0 L 113.0,40.0 L 87.0,40.0 L 86.0,38.0 L 86.0,29.0 L 91.0,22.0 L 95.0,20.0" fill="#F8F8F8"/>
	<path d="M 116.0,48.0 L 142.0,48.0 L 140.0,54.0 L 138.0,57.0 L 127.0,54.0 L 115.0,50.0 L 116.0,48.0" fill="#F5F5F5"/>
	<path d="M 58.0,48.0 L 84.0,48.0 L 85.0,50.0 L 64.0,57.0 L 62.0,57.0 L 58.0,50.0 L 58.0,48.0" fill="#F7F7F7"/>
	<path d="M 101.0,140.0 L 103.0,143.0 L 106.0,149.0 L 106.0,152.0 L 99.0,158.0 L 97.0,158.0 L 98.0,149.0 L 101.0,140.0" fill="#E4E4E4"/>
</svg>
