<?xml version="1.0" ?>
<svg baseProfile="full" height="600px" version="1.1" viewBox="-19.296000000000003 -19.296000000000003 230.592 230.592" width="600px" xmlns="http://www.w3.org/2000/svg" xmlns:ev="http://www.w3.org/2001/xml-events" xmlns:xlink="http://www.w3.org/1999/xlink">
	<defs/>
	<path d="M 0.0,0.0 L 192.0,0.0 L 192.0,192.0 L 0.0,192.0 L 0.0,0.0" fill="#FEFDFD"/>
	<path d="M 62.0,66.0 L 70.0,66.0 L 99.0,77.0 L 119.0,85.0 L 124.0,91.0 L 126.0,101.0 L 141.0,107.0 L 138.0,116.0 L 135.0,122.0 L 129.0,121.0 L 100.0,109.0 L 75.0,99.0 L 73.0,99.0 L 76.0,105.0 L 76.0,111.0 L 69.0,119.0 L 59.0,134.0 L 58.0,135.0 L 176.0,136.0 L 176.0,144.0 L 16.0,144.0 L 16.0,136.0 L 50.0,135.0 L 48.0,132.0 L 48.0,127.0 L 61.0,108.0 L 60.0,102.0 L 53.0,86.0 L 53.0,75.0 L 60.0,67.0 L 62.0,66.0" fill="#FD754C"/>
	<path d="M 16.0,136.0 L 176.0,136.0 L 176.0,144.0 L 16.0,144.0 L 16.0,136.0" fill="#546E7A"/>
	<path d="M 53.0,75.0 L 55.0,78.0 L 61.0,78.0 L 65.0,81.0 L 71.0,95.0 L 71.0,97.0 L 73.0,98.0 L 76.0,105.0 L 76.0,111.0 L 69.0,119.0 L 59.0,134.0 L 56.0,136.0 L 51.0,136.0 L 48.0,132.0 L 48.0,127.0 L 61.0,108.0 L 60.0,102.0 L 53.0,86.0 L 53.0,75.0" fill="#FEB751"/>
	<path d="M 115.0,84.0 L 120.0,86.0 L 124.0,91.0 L 126.0,101.0 L 141.0,107.0 L 138.0,116.0 L 135.0,122.0 L 129.0,121.0 L 105.0,111.0 L 106.0,105.0 L 115.0,84.0" fill="#9877CA"/>
	<path d="M 141.0,108.0 L 150.0,111.0 L 173.0,121.0 L 176.0,125.0 L 175.0,133.0 L 170.0,136.0 L 162.0,135.0 L 134.0,123.0 L 140.0,109.0 L 141.0,108.0" fill="#FEB751"/>
	<path d="M 31.0,55.0 L 38.0,55.0 L 46.0,60.0 L 49.0,66.0 L 48.0,75.0 L 42.0,82.0 L 39.0,83.0 L 30.0,83.0 L 24.0,79.0 L 21.0,74.0 L 21.0,64.0 L 27.0,57.0 L 31.0,55.0" fill="#FEB751"/>
	<path d="M 67.0,86.0 L 83.0,92.0 L 94.0,97.0 L 107.0,102.0 L 106.0,107.0 L 105.0,110.0 L 95.0,107.0 L 71.0,97.0 L 67.0,88.0 L 67.0,86.0" fill="#E64E1E"/>
</svg>
