<?xml version="1.0" ?>
<svg baseProfile="full" height="600px" version="1.1" viewBox="-19.296000000000003 -19.296000000000003 230.592 230.592" width="600px" xmlns="http://www.w3.org/2000/svg" xmlns:ev="http://www.w3.org/2001/xml-events" xmlns:xlink="http://www.w3.org/1999/xlink">
	<defs/>
	<path d="M 0.0,0.0 L 192.0,0.0 L 192.0,192.0 L 0.0,192.0 L 0.0,0.0" fill="#FEFDFD"/>
	<path d="M 52.0,100.0 L 71.0,100.0 L 107.0,102.0 L 115.0,107.0 L 118.0,112.0 L 118.0,116.0 L 129.0,116.0 L 136.0,117.0 L 135.0,133.0 L 120.0,133.0 L 95.0,131.0 L 77.0,130.0 L 65.0,130.0 L 58.0,135.0 L 176.0,136.0 L 176.0,144.0 L 16.0,144.0 L 16.0,136.0 L 50.0,135.0 L 48.0,132.0 L 49.0,125.0 L 46.0,124.0 L 43.0,118.0 L 43.0,109.0 L 50.0,101.0 L 52.0,100.0" fill="#FD764E"/>
	<path d="M 16.0,136.0 L 176.0,136.0 L 176.0,144.0 L 16.0,144.0 L 16.0,136.0" fill="#546E7A"/>
	<path d="M 136.0,118.0 L 151.0,118.0 L 171.0,120.0 L 176.0,125.0 L 175.0,133.0 L 171.0,136.0 L 56.0,136.0 L 61.0,132.0 L 65.0,129.0 L 77.0,129.0 L 111.0,131.0 L 135.0,133.0 L 135.0,124.0 L 136.0,118.0" fill="#FEB751"/>
	<path d="M 104.0,103.0 L 111.0,104.0 L 116.0,109.0 L 118.0,112.0 L 118.0,116.0 L 129.0,116.0 L 136.0,117.0 L 135.0,133.0 L 120.0,133.0 L 102.0,131.0 L 102.0,120.0 L 104.0,103.0" fill="#9977C9"/>
	<path d="M 75.0,106.0 L 80.0,107.0 L 82.0,110.0 L 81.0,117.0 L 70.0,126.0 L 56.0,136.0 L 51.0,136.0 L 48.0,132.0 L 49.0,125.0 L 46.0,124.0 L 44.0,119.0 L 48.0,114.0 L 75.0,106.0" fill="#FEB54E"/>
	<path d="M 18.0,98.0 L 27.0,98.0 L 32.0,101.0 L 36.0,105.0 L 37.0,108.0 L 37.0,115.0 L 34.0,121.0 L 29.0,125.0 L 26.0,126.0 L 19.0,126.0 L 13.0,122.0 L 10.0,118.0 L 9.0,115.0 L 9.0,107.0 L 13.0,101.0 L 18.0,98.0" fill="#FEB751"/>
	<path d="M 65.0,129.0 L 77.0,129.0 L 111.0,131.0 L 120.0,132.0 L 141.0,133.0 L 158.0,135.0 L 158.0,136.0 L 56.0,136.0 L 61.0,132.0 L 65.0,129.0" fill="#FDFBFA"/>
	<path d="M 75.0,121.0 L 97.0,122.0 L 102.0,123.0 L 102.0,131.0 L 77.0,130.0 L 66.0,129.0 L 71.0,124.0 L 75.0,121.0" fill="#E74F1F"/>
	<path d="M 71.0,124.0 L 73.0,125.0 L 71.0,127.0 L 74.0,129.0 L 66.0,129.0 L 71.0,124.0" fill="#EA5B2A"/>
</svg>
