<?xml version="1.0" ?>
<svg baseProfile="full" height="600px" version="1.1" viewBox="-19.296000000000003 -19.296000000000003 230.592 230.592" width="600px" xmlns="http://www.w3.org/2000/svg" xmlns:ev="http://www.w3.org/2001/xml-events" xmlns:xlink="http://www.w3.org/1999/xlink">
	<defs/>
	<path d="M 0.0,0.0 L 192.0,0.0 L 192.0,192.0 L 0.0,192.0 L 0.0,0.0" fill="#FEFDFD"/>
	<path d="M 55.0,83.0 L 66.0,83.0 L 112.0,93.0 L 119.0,99.0 L 121.0,104.0 L 121.0,108.0 L 136.0,111.0 L 138.0,112.0 L 135.0,127.0 L 131.0,128.0 L 84.0,117.0 L 79.0,119.0 L 61.0,133.0 L 58.0,135.0 L 176.0,136.0 L 176.0,144.0 L 16.0,144.0 L 16.0,136.0 L 50.0,135.0 L 48.0,132.0 L 48.0,127.0 L 60.0,117.0 L 64.0,113.0 L 55.0,110.0 L 49.0,106.0 L 47.0,104.0 L 47.0,91.0 L 52.0,85.0 L 55.0,83.0" fill="#FD764D"/>
	<path d="M 16.0,136.0 L 176.0,136.0 L 176.0,144.0 L 16.0,144.0 L 16.0,136.0" fill="#546E7A"/>
	<path d="M 51.0,96.0 L 58.0,97.0 L 78.0,106.0 L 84.0,110.0 L 84.0,115.0 L 74.0,123.0 L 58.0,135.0 L 51.0,136.0 L 48.0,132.0 L 48.0,127.0 L 60.0,117.0 L 64.0,113.0 L 55.0,110.0 L 49.0,106.0 L 47.0,104.0 L 48.0,99.0 L 51.0,96.0" fill="#FEB650"/>
	<path d="M 109.0,93.0 L 114.0,94.0 L 120.0,101.0 L 121.0,108.0 L 136.0,111.0 L 138.0,112.0 L 135.0,127.0 L 131.0,128.0 L 102.0,121.0 L 106.0,104.0 L 108.0,94.0 L 109.0,93.0" fill="#9978CA"/>
	<path d="M 138.0,113.0 L 147.0,114.0 L 171.0,120.0 L 176.0,125.0 L 175.0,133.0 L 171.0,136.0 L 160.0,135.0 L 134.0,128.0 L 137.0,114.0 L 138.0,113.0" fill="#FEB751"/>
	<path d="M 22.0,80.0 L 31.0,80.0 L 37.0,84.0 L 41.0,90.0 L 41.0,97.0 L 38.0,103.0 L 33.0,107.0 L 30.0,108.0 L 23.0,108.0 L 17.0,104.0 L 14.0,101.0 L 13.0,98.0 L 13.0,89.0 L 17.0,83.0 L 22.0,80.0" fill="#FEB750"/>
	<path d="M 82.0,108.0 L 90.0,109.0 L 104.0,112.0 L 103.0,119.0 L 102.0,120.0 L 92.0,119.0 L 83.0,116.0 L 83.0,110.0 L 82.0,108.0" fill="#E64F20"/>
</svg>
