<?xml version="1.0" ?>
<svg baseProfile="full" height="600px" version="1.1" viewBox="-19.296000000000003 -19.296000000000003 230.592 230.592" width="600px" xmlns="http://www.w3.org/2000/svg" xmlns:ev="http://www.w3.org/2001/xml-events" xmlns:xlink="http://www.w3.org/1999/xlink">
	<defs/>
	<path d="M 0.0,0.0 L 192.0,0.0 L 192.0,192.0 L 0.0,192.0 L 0.0,0.0" fill="#FEFDFD"/>
	<path d="M 53.0,97.0 L 65.0,97.0 L 97.0,100.0 L 108.0,101.0 L 115.0,105.0 L 118.0,110.0 L 118.0,115.0 L 128.0,115.0 L 153.0,118.0 L 171.0,120.0 L 176.0,125.0 L 175.0,133.0 L 173.0,135.0 L 176.0,136.0 L 176.0,144.0 L 16.0,144.0 L 16.0,136.0 L 50.0,135.0 L 48.0,132.0 L 48.0,127.0 L 50.0,124.0 L 45.0,119.0 L 43.0,114.0 L 44.0,105.0 L 48.0,100.0 L 53.0,97.0" fill="#FEB752"/>
	<path d="M 53.0,97.0 L 65.0,97.0 L 97.0,100.0 L 108.0,101.0 L 115.0,105.0 L 118.0,110.0 L 118.0,115.0 L 128.0,115.0 L 136.0,116.0 L 136.0,124.0 L 134.0,132.0 L 123.0,132.0 L 82.0,128.0 L 70.0,126.0 L 75.0,121.0 L 81.0,117.0 L 82.0,115.0 L 82.0,109.0 L 81.0,108.0 L 69.0,108.0 L 48.0,112.0 L 44.0,116.0 L 43.0,114.0 L 44.0,105.0 L 48.0,100.0 L 53.0,97.0" fill="#FD764E"/>
	<path d="M 16.0,136.0 L 176.0,136.0 L 176.0,144.0 L 16.0,144.0 L 16.0,136.0" fill="#546E7A"/>
	<path d="M 69.0,107.0 L 81.0,107.0 L 83.0,109.0 L 83.0,115.0 L 79.0,119.0 L 71.0,125.0 L 74.0,127.0 L 67.0,128.0 L 56.0,136.0 L 51.0,136.0 L 48.0,132.0 L 48.0,127.0 L 50.0,124.0 L 45.0,119.0 L 44.0,116.0 L 48.0,111.0 L 69.0,107.0" fill="#FEB44F"/>
	<path d="M 105.0,101.0 L 111.0,102.0 L 116.0,107.0 L 118.0,110.0 L 118.0,115.0 L 128.0,115.0 L 136.0,116.0 L 136.0,124.0 L 134.0,132.0 L 123.0,132.0 L 101.0,130.0 L 103.0,112.0 L 104.0,103.0 L 105.0,101.0" fill="#9877CA"/>
	<path d="M 20.0,92.0 L 29.0,92.0 L 35.0,96.0 L 38.0,100.0 L 38.0,111.0 L 34.0,117.0 L 28.0,120.0 L 21.0,120.0 L 14.0,116.0 L 11.0,110.0 L 11.0,101.0 L 15.0,95.0 L 20.0,92.0" fill="#FEB750"/>
	<path d="M 67.0,127.0 L 82.0,127.0 L 145.0,133.0 L 161.0,135.0 L 161.0,136.0 L 56.0,136.0 L 61.0,132.0 L 67.0,127.0" fill="#FEFCFB"/>
	<path d="M 77.0,119.0 L 87.0,119.0 L 102.0,121.0 L 102.0,129.0 L 90.0,129.0 L 70.0,126.0 L 75.0,121.0 L 77.0,119.0" fill="#E74F1E"/>
</svg>
