<?xml version="1.0" ?>
<svg baseProfile="full" height="600px" version="1.1" viewBox="-20.1 -20.1 240.2 240.2" width="600px" xmlns="http://www.w3.org/2000/svg" xmlns:ev="http://www.w3.org/2001/xml-events" xmlns:xlink="http://www.w3.org/1999/xlink">
	<defs/>
	<path d="M 0.0,0.0 L 200.0,0.0 L 200.0,200.0 L 0.0,200.0 L 0.0,0.0" fill="#FCFCFC"/>
	<path d="M 91.0,12.0 L 109.0,12.0 L 126.0,15.0 L 145.0,23.0 L 158.0,32.0 L 168.0,41.0 L 178.0,54.0 L 186.0,70.0 L 191.0,86.0 L 192.0,93.0 L 192.0,114.0 L 189.0,129.0 L 183.0,145.0 L 175.0,158.0 L 164.0,171.0 L 150.0,182.0 L 134.0,190.0 L 117.0,195.0 L 110.0,196.0 L 89.0,196.0 L 74.0,193.0 L 59.0,187.0 L 46.0,179.0 L 33.0,168.0 L 22.0,154.0 L 14.0,138.0 L 10.0,126.0 L 8.0,115.0 L 8.0,95.0 L 10.0,82.0 L 13.0,72.0 L 16.0,69.0 L 20.0,70.0 L 21.0,71.0 L 20.0,80.0 L 17.0,94.0 L 17.0,114.0 L 20.0,127.0 L 26.0,143.0 L 34.0,155.0 L 43.0,165.0 L 53.0,173.0 L 65.0,180.0 L 83.0,186.0 L 89.0,187.0 L 111.0,187.0 L 123.0,184.0 L 137.0,179.0 L 151.0,170.0 L 161.0,161.0 L 169.0,151.0 L 175.0,141.0 L 181.0,125.0 L 183.0,115.0 L 183.0,94.0 L 181.0,83.0 L 175.0,67.0 L 166.0,53.0 L 157.0,43.0 L 147.0,35.0 L 137.0,29.0 L 121.0,23.0 L 110.0,21.0 L 90.0,21.0 L 76.0,24.0 L 63.0,29.0 L 58.0,32.0 L 53.0,31.0 L 52.0,26.0 L 57.0,22.0 L 71.0,16.0 L 82.0,13.0 L 91.0,12.0" fill="#080808"/>
	<path d="M 112.0,132.0 L 134.0,132.0 L 136.0,134.0 L 135.0,139.0 L 134.0,140.0 L 113.0,141.0 L 92.0,144.0 L 77.0,149.0 L 72.0,152.0 L 67.0,151.0 L 66.0,146.0 L 71.0,142.0 L 84.0,137.0 L 104.0,133.0 L 112.0,132.0" fill="#080808"/>
	<path d="M 68.0,71.0 L 75.0,71.0 L 81.0,75.0 L 83.0,78.0 L 83.0,89.0 L 79.0,95.0 L 75.0,97.0 L 68.0,97.0 L 63.0,93.0 L 61.0,89.0 L 61.0,78.0 L 66.0,72.0 L 68.0,71.0" fill="#050505"/>
	<path d="M 124.0,71.0 L 131.0,71.0 L 137.0,75.0 L 139.0,78.0 L 139.0,89.0 L 135.0,95.0 L 131.0,97.0 L 124.0,97.0 L 119.0,93.0 L 117.0,89.0 L 117.0,79.0 L 121.0,73.0 L 124.0,71.0" fill="#040404"/>
	<path d="M 68.0,50.0 L 79.0,50.0 L 89.0,55.0 L 92.0,58.0 L 92.0,63.0 L 91.0,64.0 L 86.0,64.0 L 78.0,59.0 L 69.0,59.0 L 60.0,65.0 L 59.0,66.0 L 54.0,66.0 L 52.0,64.0 L 53.0,59.0 L 63.0,52.0 L 68.0,50.0" fill="#080808"/>
	<path d="M 121.0,50.0 L 131.0,50.0 L 143.0,56.0 L 148.0,61.0 L 147.0,66.0 L 141.0,66.0 L 132.0,60.0 L 130.0,59.0 L 123.0,59.0 L 115.0,63.0 L 114.0,64.0 L 109.0,64.0 L 108.0,63.0 L 108.0,58.0 L 114.0,53.0 L 121.0,50.0" fill="#090909"/>
	<path d="M 26.0,20.0 L 34.0,20.0 L 39.0,23.0 L 41.0,26.0 L 41.0,34.0 L 39.0,40.0 L 40.0,49.0 L 35.0,50.0 L 34.0,48.0 L 34.0,38.0 L 35.0,35.0 L 35.0,28.0 L 33.0,26.0 L 26.0,26.0 L 23.0,29.0 L 23.0,38.0 L 18.0,39.0 L 17.0,37.0 L 17.0,29.0 L 21.0,23.0 L 26.0,20.0" fill="#0F0F0F"/>
	<path d="M 41.0,53.0 L 44.0,54.0 L 45.0,58.0 L 40.0,60.0 L 38.0,57.0 L 38.0,54.0 L 41.0,53.0" fill="#141414"/>
</svg>
