<?xml version="1.0" ?>
<svg baseProfile="full" height="600px" version="1.1" viewBox="-16.08 -16.08 192.16 192.16" width="600px" xmlns="http://www.w3.org/2000/svg" xmlns:ev="http://www.w3.org/2001/xml-events" xmlns:xlink="http://www.w3.org/1999/xlink">
	<defs/>
	<path d="M 0.0,0.0 L 160.0,0.0 L 160.0,160.0 L 0.0,160.0 L 0.0,0.0" fill="#FDFDFD"/>
	<path d="M 74.0,27.0 L 87.0,27.0 L 87.0,33.0 L 78.0,34.0 L 74.0,35.0 L 73.0,47.0 L 80.0,47.0 L 80.0,53.0 L 74.0,54.0 L 73.0,73.0 L 80.0,73.0 L 80.0,67.0 L 87.0,67.0 L 87.0,73.0 L 106.0,72.0 L 107.0,67.0 L 113.0,67.0 L 113.0,73.0 L 120.0,73.0 L 120.0,67.0 L 127.0,67.0 L 127.0,73.0 L 133.0,73.0 L 133.0,67.0 L 140.0,67.0 L 140.0,73.0 L 134.0,74.0 L 133.0,87.0 L 126.0,87.0 L 126.0,80.0 L 120.0,80.0 L 120.0,86.0 L 115.0,87.0 L 113.0,86.0 L 113.0,80.0 L 107.0,80.0 L 108.0,86.0 L 113.0,87.0 L 113.0,93.0 L 108.0,94.0 L 107.0,100.0 L 100.0,100.0 L 101.0,106.0 L 119.0,106.0 L 120.0,100.0 L 127.0,100.0 L 127.0,106.0 L 139.0,106.0 L 140.0,107.0 L 140.0,113.0 L 127.0,113.0 L 127.0,120.0 L 133.0,120.0 L 133.0,127.0 L 128.0,127.0 L 127.0,133.0 L 133.0,133.0 L 133.0,140.0 L 127.0,140.0 L 126.0,139.0 L 126.0,133.0 L 120.0,133.0 L 119.0,127.0 L 113.0,127.0 L 113.0,133.0 L 88.0,133.0 L 86.0,127.0 L 80.0,127.0 L 80.0,120.0 L 73.0,120.0 L 73.0,113.0 L 67.0,113.0 L 67.0,107.0 L 72.0,106.0 L 74.0,100.0 L 80.0,100.0 L 80.0,80.0 L 73.0,80.0 L 73.0,87.0 L 68.0,87.0 L 67.0,86.0 L 67.0,73.0 L 60.0,73.0 L 60.0,67.0 L 66.0,66.0 L 67.0,34.0 L 73.0,33.0 L 74.0,27.0" fill="#F3F5F6"/>
	<path d="M 20.0,100.0 L 60.0,100.0 L 60.0,140.0 L 20.0,140.0 L 20.0,100.0" fill="#EEF0F3"/>
	<path d="M 20.0,20.0 L 60.0,20.0 L 60.0,60.0 L 20.0,60.0 L 20.0,20.0" fill="#EFF0F3"/>
	<path d="M 100.0,20.0 L 139.0,20.0 L 140.0,21.0 L 140.0,60.0 L 100.0,60.0 L 100.0,20.0" fill="#EFF0F3"/>
	<path d="M 27.0,106.0 L 52.0,106.0 L 54.0,111.0 L 54.0,131.0 L 53.0,133.0 L 27.0,133.0 L 27.0,106.0" fill="#FDFDFD"/>
	<path d="M 27.0,27.0 L 53.0,27.0 L 54.0,35.0 L 54.0,51.0 L 51.0,54.0 L 30.0,54.0 L 27.0,53.0 L 27.0,27.0" fill="#FDFDFD"/>
	<path d="M 107.0,27.0 L 133.0,27.0 L 133.0,53.0 L 126.0,54.0 L 110.0,54.0 L 107.0,53.0 L 107.0,27.0" fill="#FDFDFD"/>
	<path d="M 120.0,100.0 L 127.0,100.0 L 127.0,106.0 L 139.0,106.0 L 140.0,107.0 L 140.0,113.0 L 127.0,113.0 L 127.0,120.0 L 133.0,120.0 L 133.0,127.0 L 128.0,127.0 L 127.0,133.0 L 133.0,133.0 L 133.0,140.0 L 127.0,140.0 L 126.0,139.0 L 126.0,133.0 L 120.0,133.0 L 119.0,127.0 L 114.0,127.0 L 113.0,126.0 L 113.0,121.0 L 114.0,120.0 L 120.0,120.0 L 120.0,113.0 L 113.0,113.0 L 113.0,120.0 L 107.0,120.0 L 107.0,113.0 L 100.0,113.0 L 100.0,107.0 L 107.0,106.0 L 119.0,106.0 L 120.0,100.0" fill="#EFF1F3"/>
	<path d="M 34.0,67.0 L 40.0,67.0 L 40.0,73.0 L 47.0,73.0 L 46.0,68.0 L 47.0,67.0 L 53.0,67.0 L 53.0,73.0 L 60.0,73.0 L 61.0,86.0 L 67.0,87.0 L 67.0,93.0 L 73.0,93.0 L 73.0,100.0 L 67.0,100.0 L 66.0,93.0 L 60.0,93.0 L 60.0,87.0 L 54.0,87.0 L 53.0,82.0 L 53.0,80.0 L 47.0,80.0 L 47.0,87.0 L 40.0,87.0 L 40.0,80.0 L 34.0,81.0 L 33.0,87.0 L 28.0,87.0 L 26.0,81.0 L 20.0,80.0 L 20.0,74.0 L 21.0,73.0 L 34.0,73.0 L 34.0,67.0" fill="#EFF0F3"/>
	<path d="M 113.0,33.0 L 126.0,33.0 L 127.0,38.0 L 127.0,47.0 L 114.0,47.0 L 113.0,46.0 L 113.0,33.0" fill="#EFF1F3"/>
	<path d="M 35.0,113.0 L 47.0,113.0 L 47.0,127.0 L 34.0,127.0 L 34.0,114.0 L 35.0,113.0" fill="#EEF0F3"/>
	<path d="M 37.0,33.0 L 46.0,33.0 L 47.0,34.0 L 47.0,47.0 L 34.0,47.0 L 34.0,34.0 L 37.0,33.0" fill="#EEF0F3"/>
	<path d="M 88.0,126.0 L 111.0,126.0 L 113.0,127.0 L 113.0,133.0 L 88.0,133.0 L 87.0,132.0 L 87.0,127.0 L 88.0,126.0" fill="#EEF0F3"/>
	<path d="M 108.0,86.0 L 113.0,87.0 L 113.0,93.0 L 108.0,94.0 L 107.0,100.0 L 100.0,100.0 L 100.0,93.0 L 106.0,93.0 L 106.0,88.0 L 108.0,86.0" fill="#EFF1F3"/>
	<path d="M 73.0,113.0 L 80.0,113.0 L 80.0,120.0 L 73.0,120.0 L 73.0,113.0" fill="#EFF1F3"/>
	<path d="M 113.0,93.0 L 120.0,93.0 L 120.0,100.0 L 113.0,100.0 L 113.0,93.0" fill="#EFF1F3"/>
	<path d="M 80.0,40.0 L 87.0,40.0 L 87.0,47.0 L 80.0,47.0 L 80.0,40.0" fill="#EFF1F3"/>
	<path d="M 80.0,133.0 L 86.0,133.0 L 87.0,134.0 L 87.0,140.0 L 80.0,140.0 L 80.0,133.0" fill="#EFF1F3"/>
	<path d="M 80.0,120.0 L 87.0,120.0 L 87.0,127.0 L 80.0,127.0 L 80.0,120.0" fill="#EFF1F3"/>
	<path d="M 94.0,100.0 L 100.0,100.0 L 100.0,106.0 L 95.0,107.0 L 93.0,106.0 L 93.0,101.0 L 94.0,100.0" fill="#EFF1F3"/>
	<path d="M 134.0,86.0 L 139.0,86.0 L 140.0,87.0 L 140.0,93.0 L 134.0,93.0 L 133.0,92.0 L 133.0,87.0 L 134.0,86.0" fill="#EFF1F3"/>
	<path d="M 128.0,133.0 L 133.0,133.0 L 133.0,140.0 L 127.0,140.0 L 127.0,137.0 L 128.0,133.0" fill="#EFF0F3"/>
	<path d="M 87.0,60.0 L 93.0,60.0 L 93.0,67.0 L 88.0,67.0 L 87.0,66.0 L 87.0,60.0" fill="#EEF0F2"/>
	<path d="M 88.0,20.0 L 93.0,20.0 L 93.0,27.0 L 88.0,27.0 L 87.0,26.0 L 87.0,21.0 L 88.0,20.0" fill="#EEF0F3"/>
	<path d="M 68.0,20.0 L 73.0,20.0 L 73.0,27.0 L 68.0,27.0 L 67.0,26.0 L 67.0,21.0 L 68.0,20.0" fill="#EEF0F3"/>
	<path d="M 120.0,120.0 L 126.0,120.0 L 126.0,127.0 L 121.0,127.0 L 120.0,126.0 L 120.0,120.0" fill="#FDFDFD"/>
	<path d="M 67.0,120.0 L 73.0,120.0 L 73.0,127.0 L 68.0,127.0 L 67.0,126.0 L 67.0,120.0" fill="#EEF0F3"/>
	<path d="M 68.0,106.0 L 73.0,107.0 L 73.0,113.0 L 67.0,113.0 L 67.0,107.0 L 68.0,106.0" fill="#EEF0F3"/>
	<path d="M 36.0,86.0 L 40.0,87.0 L 40.0,93.0 L 34.0,93.0 L 34.0,87.0 L 36.0,86.0" fill="#EEF0F3"/>
	<path d="M 89.0,33.0 L 93.0,34.0 L 93.0,40.0 L 87.0,40.0 L 87.0,34.0 L 89.0,33.0" fill="#EEF0F3"/>
	<path d="M 87.0,47.0 L 93.0,47.0 L 93.0,53.0 L 88.0,53.0 L 87.0,52.0 L 87.0,47.0" fill="#EEF0F2"/>
</svg>
