<?xml version="1.0" ?>
<svg baseProfile="full" height="600px" version="1.1" viewBox="-12.06 -12.06 144.12 144.12" width="600px" xmlns="http://www.w3.org/2000/svg" xmlns:ev="http://www.w3.org/2001/xml-events" xmlns:xlink="http://www.w3.org/1999/xlink">
	<defs/>
	<path d="M 0.0,0.0 L 120.0,0.0 L 120.0,120.0 L 0.0,120.0 L 0.0,0.0" fill="#FDFDFD"/>
	<path d="M 76.0,56.0 L 77.0,56.0 L 77.0,63.0 L 83.0,63.0 L 83.0,57.0 L 90.0,57.0 L 90.0,63.0 L 96.0,63.0 L 97.0,64.0 L 97.0,70.0 L 90.0,70.0 L 91.0,76.0 L 97.0,76.0 L 97.0,83.0 L 90.0,83.0 L 90.0,90.0 L 83.0,90.0 L 83.0,97.0 L 76.0,97.0 L 76.0,90.0 L 70.0,90.0 L 70.0,97.0 L 64.0,97.0 L 63.0,96.0 L 63.0,90.0 L 57.0,90.0 L 57.0,83.0 L 63.0,83.0 L 63.0,77.0 L 57.0,77.0 L 57.0,70.0 L 63.0,70.0 L 63.0,64.0 L 57.0,64.0 L 57.0,57.0 L 63.0,57.0 L 63.0,63.0 L 70.0,63.0 L 70.0,57.0 L 76.0,56.0" fill="#F4F4F4"/>
	<path d="M 28.0,23.0 L 45.0,23.0 L 50.0,27.0 L 50.0,46.0 L 46.0,50.0 L 27.0,50.0 L 24.0,47.0 L 23.0,44.0 L 23.0,29.0 L 26.0,24.0 L 28.0,23.0" fill="#E4E4E4"/>
	<path d="M 28.0,70.0 L 45.0,70.0 L 49.0,72.0 L 50.0,74.0 L 50.0,92.0 L 45.0,97.0 L 28.0,97.0 L 23.0,92.0 L 23.0,75.0 L 28.0,70.0" fill="#E4E4E4"/>
	<path d="M 75.0,23.0 L 92.0,23.0 L 97.0,28.0 L 97.0,45.0 L 92.0,50.0 L 74.0,50.0 L 71.0,48.0 L 70.0,45.0 L 70.0,28.0 L 75.0,23.0" fill="#E4E4E4"/>
	<path d="M 84.0,63.0 L 89.0,63.0 L 90.0,64.0 L 91.0,76.0 L 97.0,76.0 L 97.0,83.0 L 83.0,83.0 L 83.0,77.0 L 77.0,76.0 L 77.0,70.0 L 83.0,70.0 L 83.0,64.0 L 84.0,63.0" fill="#FCFCFC"/>
	<path d="M 30.0,77.0 L 43.0,77.0 L 43.0,90.0 L 30.0,90.0 L 30.0,77.0" fill="#FCFCFC"/>
	<path d="M 77.0,30.0 L 90.0,30.0 L 90.0,43.0 L 77.0,43.0 L 77.0,30.0" fill="#FDFDFD"/>
	<path d="M 30.0,30.0 L 43.0,30.0 L 43.0,43.0 L 30.0,43.0 L 30.0,30.0" fill="#FCFCFC"/>
	<path d="M 63.0,77.0 L 70.0,77.0 L 70.0,83.0 L 64.0,84.0 L 64.0,89.0 L 70.0,90.0 L 70.0,97.0 L 64.0,97.0 L 63.0,96.0 L 63.0,90.0 L 57.0,90.0 L 57.0,83.0 L 63.0,83.0 L 63.0,77.0" fill="#E5E5E5"/>
	<path d="M 83.0,57.0 L 90.0,57.0 L 90.0,63.0 L 96.0,63.0 L 97.0,64.0 L 97.0,70.0 L 90.0,70.0 L 89.0,64.0 L 84.0,64.0 L 83.0,70.0 L 77.0,70.0 L 77.0,63.0 L 83.0,63.0 L 83.0,57.0" fill="#E5E5E5"/>
	<path d="M 84.0,70.0 L 90.0,70.0 L 91.0,76.0 L 97.0,76.0 L 97.0,83.0 L 90.0,83.0 L 90.0,77.0 L 84.0,77.0 L 83.0,76.0 L 83.0,71.0 L 84.0,70.0" fill="#E5E5E5"/>
	<path d="M 83.0,83.0 L 90.0,83.0 L 90.0,90.0 L 83.0,90.0 L 83.0,83.0" fill="#E5E5E5"/>
	<path d="M 33.0,33.0 L 40.0,33.0 L 40.0,40.0 L 33.0,40.0 L 33.0,33.0" fill="#E6E6E6"/>
	<path d="M 33.0,80.0 L 40.0,80.0 L 40.0,87.0 L 34.0,87.0 L 33.0,86.0 L 33.0,80.0" fill="#E6E6E6"/>
	<path d="M 80.0,33.0 L 86.0,33.0 L 87.0,34.0 L 87.0,40.0 L 80.0,40.0 L 80.0,33.0" fill="#E5E5E5"/>
	<path d="M 64.0,83.0 L 70.0,83.0 L 70.0,90.0 L 64.0,90.0 L 63.0,89.0 L 63.0,84.0 L 64.0,83.0" fill="#FBFBFB"/>
	<path d="M 76.0,56.0 L 77.0,56.0 L 77.0,63.0 L 70.0,63.0 L 70.0,57.0 L 76.0,56.0" fill="#E4E4E4"/>
	<path d="M 77.0,83.0 L 83.0,83.0 L 83.0,90.0 L 77.0,90.0 L 77.0,83.0" fill="#FCFCFC"/>
	<path d="M 70.0,83.0 L 76.0,83.0 L 76.0,90.0 L 70.0,90.0 L 70.0,83.0" fill="#E4E4E4"/>
	<path d="M 57.0,70.0 L 63.0,70.0 L 63.0,77.0 L 57.0,77.0 L 57.0,70.0" fill="#E4E4E4"/>
	<path d="M 43.0,57.0 L 50.0,57.0 L 50.0,63.0 L 43.0,63.0 L 43.0,57.0" fill="#E4E4E4"/>
	<path d="M 30.0,57.0 L 37.0,57.0 L 37.0,63.0 L 30.0,63.0 L 30.0,57.0" fill="#E4E4E4"/>
	<path d="M 57.0,43.0 L 63.0,43.0 L 63.0,50.0 L 57.0,50.0 L 57.0,43.0" fill="#E4E4E4"/>
	<path d="M 57.0,30.0 L 63.0,30.0 L 63.0,37.0 L 57.0,37.0 L 57.0,30.0" fill="#E4E4E4"/>
	<path d="M 70.0,70.0 L 76.0,70.0 L 76.0,76.0 L 70.0,77.0 L 70.0,70.0" fill="#E3E3E3"/>
	<path d="M 77.0,90.0 L 83.0,90.0 L 83.0,96.0 L 77.0,96.0 L 77.0,90.0" fill="#E3E3E3"/>
	<path d="M 77.0,77.0 L 83.0,77.0 L 83.0,83.0 L 77.0,83.0 L 77.0,77.0" fill="#E3E3E3"/>
	<path d="M 70.0,77.0 L 76.0,77.0 L 76.0,83.0 L 70.0,83.0 L 70.0,77.0" fill="#FDFDFD"/>
	<path d="M 70.0,64.0 L 76.0,64.0 L 76.0,70.0 L 70.0,70.0 L 70.0,64.0" fill="#FDFDFD"/>
	<path d="M 64.0,64.0 L 70.0,64.0 L 70.0,70.0 L 64.0,70.0 L 64.0,64.0" fill="#E3E3E3"/>
	<path d="M 57.0,57.0 L 63.0,57.0 L 63.0,63.0 L 57.0,63.0 L 57.0,57.0" fill="#E3E3E3"/>
</svg>
