<?xml version="1.0" ?>
<svg baseProfile="full" height="600px" version="1.1" viewBox="-12.06 -12.06 144.12 144.12" width="600px" xmlns="http://www.w3.org/2000/svg" xmlns:ev="http://www.w3.org/2001/xml-events" xmlns:xlink="http://www.w3.org/1999/xlink">
	<defs/>
	<path d="M 0.0,0.0 L 120.0,0.0 L 120.0,120.0 L 0.0,120.0 L 0.0,0.0" fill="#FDFDFD"/>
	<path d="M 77.0,16.0 L 99.0,16.0 L 104.0,21.0 L 104.0,42.0 L 101.0,47.0 L 99.0,48.0 L 77.0,48.0 L 72.0,43.0 L 72.0,21.0 L 77.0,16.0" fill="#030303"/>
	<path d="M 21.0,16.0 L 43.0,16.0 L 48.0,21.0 L 48.0,42.0 L 45.0,47.0 L 43.0,48.0 L 21.0,48.0 L 16.0,43.0 L 16.0,21.0 L 21.0,16.0" fill="#030303"/>
	<path d="M 21.0,72.0 L 43.0,72.0 L 48.0,77.0 L 48.0,98.0 L 45.0,103.0 L 42.0,104.0 L 21.0,104.0 L 16.0,99.0 L 16.0,77.0 L 21.0,72.0" fill="#030303"/>
	<path d="M 24.0,80.0 L 40.0,80.0 L 40.0,96.0 L 24.0,96.0 L 24.0,80.0" fill="#FAFAFA"/>
	<path d="M 80.0,24.0 L 96.0,24.0 L 96.0,40.0 L 80.0,40.0 L 80.0,24.0" fill="#F9F9F9"/>
	<path d="M 24.0,24.0 L 40.0,24.0 L 40.0,40.0 L 24.0,40.0 L 24.0,24.0" fill="#F9F9F9"/>
	<path d="M 80.0,96.0 L 88.0,96.0 L 88.0,104.0 L 80.0,104.0 L 80.0,96.0" fill="#000000"/>
	<path d="M 64.0,96.0 L 72.0,96.0 L 72.0,104.0 L 64.0,104.0 L 64.0,96.0" fill="#000000"/>
	<path d="M 80.0,88.0 L 88.0,88.0 L 88.0,96.0 L 80.0,96.0 L 80.0,88.0" fill="#F9F9F9"/>
	<path d="M 64.0,88.0 L 72.0,88.0 L 72.0,96.0 L 64.0,96.0 L 64.0,88.0" fill="#FAFAFA"/>
	<path d="M 88.0,88.0 L 96.0,88.0 L 96.0,96.0 L 88.0,96.0 L 88.0,88.0" fill="#000000"/>
	<path d="M 72.0,88.0 L 80.0,88.0 L 80.0,96.0 L 72.0,96.0 L 72.0,88.0" fill="#000000"/>
	<path d="M 56.0,88.0 L 64.0,88.0 L 64.0,96.0 L 56.0,96.0 L 56.0,88.0" fill="#000000"/>
	<path d="M 28.0,84.0 L 36.0,84.0 L 36.0,92.0 L 28.0,92.0 L 28.0,84.0" fill="#000000"/>
	<path d="M 88.0,80.0 L 96.0,80.0 L 96.0,88.0 L 88.0,88.0 L 88.0,80.0" fill="#F9F9F9"/>
	<path d="M 72.0,80.0 L 80.0,80.0 L 80.0,88.0 L 72.0,88.0 L 72.0,80.0" fill="#FBFBFB"/>
	<path d="M 96.0,80.0 L 104.0,80.0 L 104.0,88.0 L 96.0,88.0 L 96.0,80.0" fill="#000000"/>
	<path d="M 80.0,80.0 L 88.0,80.0 L 88.0,88.0 L 80.0,88.0 L 80.0,80.0" fill="#000000"/>
	<path d="M 64.0,80.0 L 72.0,80.0 L 72.0,88.0 L 64.0,88.0 L 64.0,80.0" fill="#000000"/>
	<path d="M 88.0,72.0 L 96.0,72.0 L 96.0,80.0 L 88.0,80.0 L 88.0,72.0" fill="#000000"/>
	<path d="M 80.0,72.0 L 88.0,72.0 L 88.0,80.0 L 80.0,80.0 L 80.0,72.0" fill="#FBFBFB"/>
	<path d="M 72.0,72.0 L 80.0,72.0 L 80.0,80.0 L 72.0,80.0 L 72.0,72.0" fill="#000000"/>
	<path d="M 64.0,72.0 L 72.0,72.0 L 72.0,80.0 L 64.0,80.0 L 64.0,72.0" fill="#FBFBFB"/>
	<path d="M 56.0,72.0 L 64.0,72.0 L 64.0,80.0 L 56.0,80.0 L 56.0,72.0" fill="#000000"/>
	<path d="M 96.0,64.0 L 104.0,64.0 L 104.0,72.0 L 96.0,72.0 L 96.0,64.0" fill="#000000"/>
	<path d="M 88.0,64.0 L 96.0,64.0 L 96.0,72.0 L 88.0,72.0 L 88.0,64.0" fill="#F9F9F9"/>
	<path d="M 80.0,64.0 L 88.0,64.0 L 88.0,72.0 L 80.0,72.0 L 80.0,64.0" fill="#000000"/>
	<path d="M 72.0,64.0 L 80.0,64.0 L 80.0,72.0 L 72.0,72.0 L 72.0,64.0" fill="#FBFBFB"/>
	<path d="M 64.0,64.0 L 72.0,64.0 L 72.0,72.0 L 64.0,72.0 L 64.0,64.0" fill="#000000"/>
	<path d="M 88.0,56.0 L 96.0,56.0 L 96.0,64.0 L 88.0,64.0 L 88.0,56.0" fill="#000000"/>
	<path d="M 72.0,56.0 L 80.0,56.0 L 80.0,64.0 L 72.0,64.0 L 72.0,56.0" fill="#000000"/>
	<path d="M 56.0,56.0 L 64.0,56.0 L 64.0,64.0 L 56.0,64.0 L 56.0,56.0" fill="#000000"/>
	<path d="M 40.0,56.0 L 48.0,56.0 L 48.0,64.0 L 40.0,64.0 L 40.0,56.0" fill="#000000"/>
	<path d="M 24.0,56.0 L 32.0,56.0 L 32.0,64.0 L 24.0,64.0 L 24.0,56.0" fill="#000000"/>
	<path d="M 56.0,40.0 L 64.0,40.0 L 64.0,48.0 L 56.0,48.0 L 56.0,40.0" fill="#000000"/>
	<path d="M 84.0,28.0 L 92.0,28.0 L 92.0,36.0 L 84.0,36.0 L 84.0,28.0" fill="#000000"/>
	<path d="M 28.0,28.0 L 36.0,28.0 L 36.0,36.0 L 28.0,36.0 L 28.0,28.0" fill="#000000"/>
	<path d="M 56.0,24.0 L 64.0,24.0 L 64.0,32.0 L 56.0,32.0 L 56.0,24.0" fill="#000000"/>
</svg>
