<?xml version="1.0" ?>
<svg baseProfile="full" height="600px" version="1.1" viewBox="-20.1 -20.1 240.2 240.2" width="600px" xmlns="http://www.w3.org/2000/svg" xmlns:ev="http://www.w3.org/2001/xml-events" xmlns:xlink="http://www.w3.org/1999/xlink">
	<defs/>
	<path d="M 0.0,0.0 L 200.0,0.0 L 200.0,200.0 L 0.0,200.0 L 0.0,0.0" fill="#FDFDFD"/>
	<path d="M 80.0,24.0 L 104.0,24.0 L 104.0,40.0 L 120.0,40.0 L 120.0,68.0 L 104.0,68.0 L 104.0,80.0 L 152.0,80.0 L 152.0,108.0 L 160.0,108.0 L 160.0,100.0 L 184.0,100.0 L 184.0,136.0 L 152.0,136.0 L 152.0,144.0 L 184.0,144.0 L 184.0,184.0 L 144.0,184.0 L 144.0,152.0 L 120.0,152.0 L 120.0,168.0 L 96.0,168.0 L 96.0,144.0 L 112.0,144.0 L 112.0,128.0 L 144.0,128.0 L 144.0,116.0 L 124.0,116.0 L 124.0,104.0 L 96.0,104.0 L 96.0,88.0 L 89.0,89.0 L 88.0,120.0 L 64.0,120.0 L 64.0,104.0 L 52.0,104.0 L 52.0,120.0 L 28.0,120.0 L 28.0,96.0 L 44.0,96.0 L 44.0,80.0 L 80.0,80.0 L 80.0,60.0 L 96.0,60.0 L 96.0,48.0 L 80.0,48.0 L 80.0,24.0" fill="#D3D3D3"/>
	<path d="M 96.0,100.0 L 132.0,100.0 L 132.0,108.0 L 144.0,108.0 L 144.0,100.0 L 152.0,100.0 L 152.0,108.0 L 160.0,108.0 L 160.0,100.0 L 184.0,100.0 L 184.0,136.0 L 152.0,136.0 L 152.0,144.0 L 184.0,144.0 L 184.0,184.0 L 144.0,184.0 L 144.0,152.0 L 120.0,152.0 L 120.0,168.0 L 96.0,168.0 L 96.0,144.0 L 112.0,144.0 L 112.0,128.0 L 144.0,128.0 L 144.0,116.0 L 124.0,116.0 L 124.0,104.0 L 96.0,104.0 L 96.0,100.0" fill="#010101"/>
	<path d="M 16.0,128.0 L 72.0,128.0 L 72.0,184.0 L 16.0,184.0 L 16.0,128.0" fill="#FCFCFC"/>
	<path d="M 128.0,16.0 L 184.0,16.0 L 184.0,72.0 L 128.0,72.0 L 128.0,16.0" fill="#FBFBFB"/>
	<path d="M 16.0,16.0 L 72.0,16.0 L 72.0,72.0 L 16.0,72.0 L 16.0,16.0" fill="#FBFBFB"/>
	<path d="M 128.0,16.0 L 184.0,16.0 L 184.0,72.0 L 128.0,72.0 L 128.0,16.0 M 136.0,24.0 L 136.0,64.0 L 175.0,64.0 L 176.0,63.0 L 176.0,24.0 L 136.0,24.0" fill="#D3D3D3"/>
	<path d="M 16.0,16.0 L 72.0,16.0 L 72.0,72.0 L 16.0,72.0 L 16.0,16.0 M 24.0,24.0 L 24.0,64.0 L 63.0,64.0 L 64.0,63.0 L 64.0,24.0 L 24.0,24.0" fill="#D3D3D3"/>
	<path d="M 16.0,128.0 L 72.0,128.0 L 72.0,184.0 L 16.0,184.0 L 16.0,128.0 M 24.0,136.0 L 24.0,176.0 L 64.0,176.0 L 64.0,136.0 L 24.0,136.0" fill="#000000"/>
	<path d="M 28.0,100.0 L 72.0,100.0 L 72.0,112.0 L 80.0,112.0 L 80.0,100.0 L 88.0,100.0 L 88.0,120.0 L 64.0,120.0 L 64.0,104.0 L 52.0,104.0 L 52.0,120.0 L 28.0,120.0 L 28.0,100.0" fill="#040404"/>
	<path d="M 152.0,152.0 L 176.0,152.0 L 176.0,176.0 L 152.0,176.0 L 152.0,152.0" fill="#FBFBFB"/>
	<path d="M 32.0,144.0 L 56.0,144.0 L 56.0,168.0 L 32.0,168.0 L 32.0,144.0" fill="#000000"/>
	<path d="M 144.0,32.0 L 168.0,32.0 L 168.0,56.0 L 144.0,56.0 L 144.0,32.0" fill="#D3D3D3"/>
	<path d="M 32.0,32.0 L 56.0,32.0 L 56.0,56.0 L 32.0,56.0 L 32.0,32.0" fill="#D3D3D3"/>
	<path d="M 104.0,88.0 L 144.0,88.0 L 144.0,108.0 L 132.0,108.0 L 132.0,96.0 L 104.0,96.0 L 104.0,88.0" fill="#FCFCFC"/>
	<path d="M 168.0,104.0 L 176.0,104.0 L 176.0,128.0 L 152.0,128.0 L 152.0,116.0 L 168.0,116.0 L 168.0,104.0" fill="#FBFBFB"/>
	<path d="M 52.0,88.0 L 80.0,88.0 L 80.0,112.0 L 72.0,112.0 L 72.0,96.0 L 52.0,96.0 L 52.0,88.0" fill="#FBFBFB"/>
	<path d="M 120.0,136.0 L 144.0,136.0 L 144.0,144.0 L 120.0,144.0 L 120.0,136.0" fill="#F9F9F9"/>
	<path d="M 160.0,96.0 L 184.0,96.0 L 184.0,100.0 L 160.0,100.0 L 160.0,96.0" fill="#D3D3D3"/>
	<path d="M 88.0,68.0 L 96.0,68.0 L 96.0,80.0 L 88.0,80.0 L 88.0,68.0" fill="#FCFCFC"/>
	<path d="M 104.0,48.0 L 112.0,48.0 L 112.0,60.0 L 104.0,60.0 L 104.0,48.0" fill="#FCFCFC"/>
	<path d="M 104.0,152.0 L 112.0,152.0 L 112.0,160.0 L 104.0,160.0 L 104.0,152.0" fill="#F8F8F8"/>
	<path d="M 40.0,152.0 L 48.0,152.0 L 48.0,160.0 L 40.0,160.0 L 40.0,152.0" fill="#F8F8F8"/>
	<path d="M 36.0,104.0 L 44.0,104.0 L 44.0,112.0 L 36.0,112.0 L 36.0,104.0" fill="#F8F8F8"/>
	<path d="M 153.0,40.0 L 160.0,40.0 L 160.0,48.0 L 152.0,48.0 L 152.0,41.0 L 153.0,40.0" fill="#F8F8F8"/>
	<path d="M 41.0,40.0 L 48.0,40.0 L 48.0,48.0 L 40.0,48.0 L 40.0,41.0 L 41.0,40.0" fill="#F8F8F8"/>
	<path d="M 89.0,32.0 L 96.0,32.0 L 96.0,40.0 L 88.0,40.0 L 88.0,33.0 L 89.0,32.0" fill="#F8F8F8"/>
</svg>
