<?xml version="1.0" ?>
<svg baseProfile="full" height="600px" version="1.1" viewBox="-20.1 -20.1 240.2 240.2" width="600px" xmlns="http://www.w3.org/2000/svg" xmlns:ev="http://www.w3.org/2001/xml-events" xmlns:xlink="http://www.w3.org/1999/xlink">
	<defs/>
	<path d="M 0.0,0.0 L 200.0,0.0 L 200.0,200.0 L 0.0,200.0 L 0.0,0.0" fill="#FDFDFD"/>
	<path d="M 143.0,61.0 L 157.0,61.0 L 172.0,66.0 L 182.0,74.0 L 189.0,84.0 L 193.0,96.0 L 193.0,109.0 L 190.0,119.0 L 185.0,128.0 L 178.0,136.0 L 168.0,142.0 L 158.0,145.0 L 142.0,146.0 L 134.0,151.0 L 130.0,156.0 L 122.0,169.0 L 119.0,172.0 L 113.0,172.0 L 106.0,167.0 L 105.0,161.0 L 115.0,144.0 L 124.0,134.0 L 136.0,128.0 L 141.0,127.0 L 156.0,126.0 L 165.0,122.0 L 171.0,115.0 L 174.0,108.0 L 174.0,98.0 L 169.0,88.0 L 163.0,83.0 L 156.0,80.0 L 146.0,80.0 L 136.0,85.0 L 129.0,93.0 L 123.0,94.0 L 115.0,88.0 L 114.0,87.0 L 114.0,82.0 L 121.0,73.0 L 130.0,66.0 L 139.0,62.0 L 143.0,61.0" fill="#0B0B0B"/>
	<path d="M 145.0,67.0 L 157.0,67.0 L 170.0,72.0 L 180.0,81.0 L 186.0,93.0 L 187.0,97.0 L 187.0,110.0 L 182.0,122.0 L 173.0,132.0 L 164.0,137.0 L 158.0,139.0 L 142.0,140.0 L 133.0,144.0 L 128.0,148.0 L 117.0,166.0 L 112.0,164.0 L 113.0,160.0 L 122.0,145.0 L 131.0,137.0 L 142.0,133.0 L 157.0,132.0 L 167.0,128.0 L 174.0,122.0 L 179.0,112.0 L 180.0,109.0 L 180.0,97.0 L 176.0,88.0 L 171.0,81.0 L 161.0,75.0 L 156.0,74.0 L 144.0,74.0 L 132.0,80.0 L 126.0,87.0 L 122.0,86.0 L 120.0,84.0 L 129.0,74.0 L 141.0,68.0 L 145.0,67.0" fill="#F2F2F2"/>
	<path d="M 96.0,177.0 L 102.0,178.0 L 111.0,184.0 L 110.0,190.0 L 104.0,199.0 L 98.0,198.0 L 89.0,192.0 L 90.0,186.0 L 96.0,177.0" fill="#070707"/>
	<path d="M 99.0,184.0 L 104.0,187.0 L 101.0,192.0 L 96.0,189.0 L 99.0,184.0" fill="#E6E6E6"/>
</svg>
