<?xml version="1.0" ?>
<svg baseProfile="full" height="600px" version="1.1" viewBox="-20.1 -20.1 240.2 240.2" width="600px" xmlns="http://www.w3.org/2000/svg" xmlns:ev="http://www.w3.org/2001/xml-events" xmlns:xlink="http://www.w3.org/1999/xlink">
	<defs/>
	<path d="M 0.0,0.0 L 200.0,0.0 L 200.0,200.0 L 0.0,200.0 L 0.0,0.0" fill="#FDFDFD"/>
	<path d="M 92.0,0.0 L 105.0,0.0 L 119.0,3.0 L 133.0,10.0 L 141.0,17.0 L 150.0,30.0 L 154.0,40.0 L 155.0,45.0 L 155.0,68.0 L 150.0,82.0 L 144.0,91.0 L 138.0,98.0 L 128.0,105.0 L 119.0,111.0 L 114.0,119.0 L 113.0,123.0 L 112.0,154.0 L 108.0,159.0 L 106.0,160.0 L 92.0,160.0 L 88.0,156.0 L 88.0,118.0 L 92.0,107.0 L 99.0,96.0 L 108.0,88.0 L 119.0,81.0 L 123.0,79.0 L 125.0,75.0 L 130.0,66.0 L 131.0,61.0 L 131.0,50.0 L 127.0,40.0 L 119.0,31.0 L 112.0,27.0 L 103.0,25.0 L 93.0,25.0 L 84.0,29.0 L 77.0,34.0 L 71.0,44.0 L 69.0,51.0 L 67.0,61.0 L 62.0,64.0 L 49.0,64.0 L 44.0,59.0 L 44.0,46.0 L 48.0,34.0 L 54.0,23.0 L 63.0,13.0 L 74.0,6.0 L 86.0,1.0 L 92.0,0.0" fill="#070707"/>
	<path d="M 93.0,8.0 L 108.0,8.0 L 124.0,14.0 L 134.0,22.0 L 142.0,32.0 L 146.0,41.0 L 148.0,48.0 L 148.0,61.0 L 146.0,70.0 L 141.0,82.0 L 132.0,92.0 L 125.0,98.0 L 115.0,104.0 L 109.0,112.0 L 105.0,121.0 L 104.0,152.0 L 96.0,152.0 L 96.0,121.0 L 100.0,110.0 L 107.0,100.0 L 114.0,94.0 L 125.0,87.0 L 132.0,80.0 L 137.0,70.0 L 139.0,62.0 L 139.0,49.0 L 135.0,38.0 L 129.0,29.0 L 120.0,22.0 L 111.0,18.0 L 104.0,17.0 L 92.0,17.0 L 79.0,22.0 L 69.0,31.0 L 64.0,39.0 L 61.0,48.0 L 60.0,56.0 L 52.0,56.0 L 52.0,48.0 L 56.0,36.0 L 62.0,26.0 L 70.0,18.0 L 82.0,11.0 L 93.0,8.0" fill="#F5F5F5"/>
	<path d="M 90.0,176.0 L 110.0,176.0 L 112.0,178.0 L 112.0,198.0 L 110.0,200.0 L 90.0,200.0 L 88.0,198.0 L 88.0,178.0 L 90.0,176.0" fill="#010101"/>
	<path d="M 96.0,184.0 L 104.0,184.0 L 104.0,192.0 L 96.0,192.0 L 96.0,184.0" fill="#F8F8F8"/>
</svg>
