<?xml version="1.0" ?>
<svg baseProfile="full" height="600px" version="1.1" viewBox="-16.08 -16.08 192.16 192.16" width="600px" xmlns="http://www.w3.org/2000/svg" xmlns:ev="http://www.w3.org/2001/xml-events" xmlns:xlink="http://www.w3.org/1999/xlink">
	<defs/>
	<path d="M 0.0,0.0 L 160.0,0.0 L 160.0,160.0 L 0.0,160.0 L 0.0,0.0" fill="#FCFCFD"/>
	<path d="M 96.0,4.0 L 100.0,4.0 L 98.0,17.0 L 89.0,61.0 L 88.0,64.0 L 128.0,64.0 L 121.0,75.0 L 109.0,92.0 L 105.0,98.0 L 106.0,103.0 L 149.0,146.0 L 148.0,149.0 L 144.0,147.0 L 102.0,105.0 L 99.0,106.0 L 91.0,118.0 L 77.0,138.0 L 66.0,154.0 L 64.0,156.0 L 60.0,156.0 L 61.0,148.0 L 69.0,105.0 L 72.0,92.0 L 32.0,92.0 L 38.0,83.0 L 51.0,65.0 L 54.0,61.0 L 53.0,56.0 L 11.0,14.0 L 12.0,11.0 L 16.0,13.0 L 57.0,54.0 L 60.0,53.0 L 70.0,39.0 L 83.0,21.0 L 95.0,5.0 L 96.0,4.0" fill="#799AC6"/>
	<path d="M 92.0,16.0 L 93.0,20.0 L 84.0,65.0 L 83.0,68.0 L 120.0,68.0 L 113.0,79.0 L 102.0,95.0 L 98.0,96.0 L 62.0,60.0 L 63.0,56.0 L 75.0,39.0 L 89.0,20.0 L 92.0,16.0" fill="#BEE4FB"/>
	<path d="M 58.0,63.0 L 62.0,64.0 L 97.0,99.0 L 96.0,104.0 L 83.0,122.0 L 70.0,141.0 L 66.0,145.0 L 71.0,116.0 L 76.0,89.0 L 40.0,88.0 L 46.0,79.0 L 58.0,63.0" fill="#BEE3FB"/>
	<path d="M 96.0,4.0 L 100.0,4.0 L 98.0,17.0 L 89.0,61.0 L 88.0,64.0 L 128.0,64.0 L 121.0,75.0 L 109.0,92.0 L 105.0,98.0 L 103.0,101.0 L 99.0,96.0 L 104.0,91.0 L 119.0,69.0 L 83.0,68.0 L 85.0,55.0 L 92.0,20.0 L 92.0,17.0 L 79.0,35.0 L 65.0,54.0 L 61.0,59.0 L 58.0,55.0 L 68.0,42.0 L 78.0,28.0 L 91.0,10.0 L 96.0,4.0" fill="#7A9BC7"/>
	<path d="M 12.0,11.0 L 16.0,13.0 L 149.0,146.0 L 148.0,149.0 L 144.0,147.0 L 11.0,14.0 L 12.0,11.0" fill="#37414E"/>
</svg>
