<?xml version="1.0" ?>
<svg baseProfile="full" height="600px" version="1.1" viewBox="-9.648000000000001 -9.648000000000001 115.296 115.296" width="600px" xmlns="http://www.w3.org/2000/svg" xmlns:ev="http://www.w3.org/2001/xml-events" xmlns:xlink="http://www.w3.org/1999/xlink">
	<defs/>
	<path d="M 0.0,0.0 L 96.0,0.0 L 96.0,96.0 L 0.0,96.0 L 0.0,0.0" fill="#FCFCFC"/>
	<path d="M 59.0,8.0 L 60.0,8.0 L 59.0,23.0 L 57.0,41.0 L 56.0,44.0 L 76.0,44.0 L 70.0,51.0 L 59.0,63.0 L 50.0,73.0 L 39.0,85.0 L 36.0,88.0 L 36.0,80.0 L 39.0,55.0 L 40.0,52.0 L 20.0,52.0 L 26.0,45.0 L 32.0,38.0 L 38.0,43.0 L 42.0,41.0 L 49.0,34.0 L 43.0,26.0 L 57.0,11.0 L 59.0,8.0" fill="#070707"/>
	<path d="M 13.0,10.0 L 17.0,11.0 L 37.0,31.0 L 35.0,35.0 L 31.0,37.0 L 10.0,16.0 L 11.0,12.0 L 13.0,10.0" fill="#040404"/>
</svg>
