<?xml version="1.0" ?>
<svg baseProfile="full" height="600px" version="1.1" viewBox="-9.648000000000001 -9.648000000000001 115.296 115.296" width="600px" xmlns="http://www.w3.org/2000/svg" xmlns:ev="http://www.w3.org/2001/xml-events" xmlns:xlink="http://www.w3.org/1999/xlink">
	<defs/>
	<path d="M 0.0,0.0 L 96.0,0.0 L 96.0,96.0 L 0.0,96.0 L 0.0,0.0" fill="#FCFCFC"/>
	<path d="M 59.0,8.0 L 60.0,8.0 L 59.0,23.0 L 57.0,40.0 L 50.0,34.0 L 46.0,36.0 L 39.0,43.0 L 44.0,49.0 L 48.0,47.0 L 52.0,45.0 L 59.0,53.0 L 86.0,80.0 L 85.0,84.0 L 83.0,86.0 L 79.0,85.0 L 59.0,65.0 L 57.0,64.0 L 55.0,68.0 L 48.0,75.0 L 41.0,83.0 L 36.0,88.0 L 36.0,80.0 L 39.0,55.0 L 40.0,52.0 L 20.0,52.0 L 26.0,45.0 L 37.0,33.0 L 46.0,23.0 L 57.0,11.0 L 59.0,8.0" fill="#090909"/>
	<path d="M 50.0,47.0 L 54.0,48.0 L 86.0,80.0 L 85.0,84.0 L 83.0,86.0 L 79.0,85.0 L 59.0,65.0 L 51.0,58.0 L 46.0,53.0 L 48.0,49.0 L 50.0,47.0" fill="#030303"/>
	<path d="M 61.0,44.0 L 76.0,44.0 L 70.0,51.0 L 67.0,51.0 L 61.0,44.0" fill="#101010"/>
</svg>
