<?xml version="1.0" ?>
<svg baseProfile="full" height="600px" version="1.1" viewBox="-19.296000000000003 -19.296000000000003 230.592 230.592" width="600px" xmlns="http://www.w3.org/2000/svg" xmlns:ev="http://www.w3.org/2001/xml-events" xmlns:xlink="http://www.w3.org/1999/xlink">
	<defs/>
	<path d="M 0.0,0.0 L 192.0,0.0 L 192.0,192.0 L 0.0,192.0 L 0.0,0.0" fill="#FDFDFE"/>
	<path d="M 32.0,24.0 L 159.0,24.0 L 164.0,27.0 L 168.0,32.0 L 168.0,128.0 L 165.0,133.0 L 159.0,136.0 L 58.0,137.0 L 45.0,149.0 L 28.0,165.0 L 24.0,168.0 L 24.0,32.0 L 27.0,27.0 L 32.0,24.0" fill="#683BB7"/>
	<path d="M 127.0,49.0 L 132.0,49.0 L 139.0,69.0 L 139.0,82.0 L 135.0,104.0 L 134.0,107.0 L 126.0,109.0 L 125.0,87.0 L 124.0,76.0 L 119.0,78.0 L 115.0,77.0 L 109.0,58.0 L 109.0,55.0 L 127.0,49.0" fill="#CDBFE7"/>
	<path d="M 68.0,52.0 L 92.0,52.0 L 91.0,76.0 L 85.0,90.0 L 78.0,101.0 L 74.0,107.0 L 65.0,107.0 L 72.0,86.0 L 74.0,76.0 L 67.0,76.0 L 67.0,56.0 L 68.0,52.0" fill="#CDBFE7"/>
</svg>
