<?xml version="1.0" ?>
<svg baseProfile="full" height="600px" version="1.1" viewBox="-12.864 -12.864 153.728 153.728" width="600px" xmlns="http://www.w3.org/2000/svg" xmlns:ev="http://www.w3.org/2001/xml-events" xmlns:xlink="http://www.w3.org/1999/xlink">
	<defs/>
	<path d="M 0.0,0.0 L 128.0,0.0 L 128.0,128.0 L 0.0,128.0 L 0.0,0.0" fill="#FAFAFA"/>
	<path d="M 0.0,0.0 L 128.0,0.0 L 128.0,70.0 L 126.0,67.0 L 122.0,61.0 L 116.0,55.0 L 113.0,45.0 L 106.0,37.0 L 97.0,33.0 L 87.0,32.0 L 78.0,24.0 L 69.0,21.0 L 58.0,21.0 L 50.0,24.0 L 42.0,31.0 L 36.0,42.0 L 29.0,47.0 L 26.0,52.0 L 15.0,54.0 L 9.0,58.0 L 3.0,65.0 L 1.0,70.0 L 0.0,70.0 L 0.0,0.0" fill="#FCFCFC"/>
	<path d="M 58.0,20.0 L 69.0,20.0 L 79.0,24.0 L 87.0,31.0 L 100.0,33.0 L 107.0,37.0 L 114.0,45.0 L 117.0,55.0 L 125.0,63.0 L 128.0,70.0 L 128.0,81.0 L 124.0,90.0 L 117.0,97.0 L 109.0,100.0 L 94.0,100.0 L 100.0,93.0 L 101.0,92.0 L 110.0,90.0 L 116.0,86.0 L 119.0,79.0 L 119.0,71.0 L 114.0,64.0 L 108.0,61.0 L 106.0,49.0 L 102.0,44.0 L 96.0,41.0 L 88.0,41.0 L 83.0,42.0 L 77.0,33.0 L 68.0,29.0 L 59.0,29.0 L 51.0,33.0 L 46.0,40.0 L 44.0,48.0 L 37.0,51.0 L 33.0,56.0 L 32.0,61.0 L 19.0,61.0 L 13.0,65.0 L 9.0,71.0 L 9.0,79.0 L 12.0,86.0 L 17.0,90.0 L 27.0,92.0 L 21.0,99.0 L 15.0,99.0 L 6.0,93.0 L 2.0,87.0 L 0.0,81.0 L 0.0,70.0 L 4.0,62.0 L 11.0,55.0 L 18.0,52.0 L 26.0,52.0 L 28.0,47.0 L 36.0,41.0 L 41.0,31.0 L 50.0,23.0 L 58.0,20.0" fill="#080808"/>
	<path d="M 93.0,77.0 L 97.0,78.0 L 100.0,81.0 L 98.0,85.0 L 88.0,94.0 L 62.0,120.0 L 56.0,115.0 L 62.0,108.0 L 93.0,77.0" fill="#050505"/>
	<path d="M 73.0,77.0 L 77.0,78.0 L 80.0,81.0 L 78.0,85.0 L 68.0,94.0 L 42.0,120.0 L 36.0,115.0 L 42.0,108.0 L 73.0,77.0" fill="#050505"/>
	<path d="M 34.0,96.0 L 38.0,98.0 L 40.0,102.0 L 22.0,120.0 L 16.0,115.0 L 22.0,108.0 L 34.0,96.0" fill="#020202"/>
	<path d="M 101.0,92.0 L 103.0,92.0 L 103.0,100.0 L 94.0,100.0 L 100.0,93.0 L 101.0,92.0" fill="#000000"/>
</svg>
