<?xml version="1.0" ?>
<svg baseProfile="full" height="600px" version="1.1" viewBox="-9.648000000000001 -9.648000000000001 115.296 115.296" width="600px" xmlns="http://www.w3.org/2000/svg" xmlns:ev="http://www.w3.org/2001/xml-events" xmlns:xlink="http://www.w3.org/1999/xlink">
	<defs/>
	<path d="M 0.0,0.0 L 96.0,0.0 L 96.0,96.0 L 0.0,96.0 L 0.0,0.0" fill="#030303"/>
	<path d="M 36.0,44.0 L 60.0,44.0 L 60.0,56.0 L 76.0,56.0 L 76.0,76.0 L 86.0,73.0 L 91.0,69.0 L 95.0,61.0 L 96.0,61.0 L 96.0,96.0 L 0.0,96.0 L 0.0,57.0 L 2.0,60.0 L 6.0,67.0 L 13.0,73.0 L 20.0,75.0 L 20.0,52.0 L 36.0,52.0 L 36.0,44.0" fill="#FDFDFD"/>
	<path d="M 0.0,0.0 L 96.0,0.0 L 96.0,51.0 L 94.0,48.0 L 89.0,41.0 L 81.0,37.0 L 77.0,36.0 L 73.0,26.0 L 67.0,19.0 L 57.0,14.0 L 53.0,13.0 L 41.0,13.0 L 29.0,19.0 L 23.0,26.0 L 22.0,28.0 L 11.0,32.0 L 4.0,39.0 L 1.0,46.0 L 0.0,46.0 L 0.0,0.0" fill="#FCFCFC"/>
	<path d="M 28.0,60.0 L 36.0,60.0 L 36.0,85.0 L 28.0,85.0 L 28.0,60.0" fill="#000000"/>
	<path d="M 44.0,52.0 L 52.0,52.0 L 52.0,68.0 L 44.0,68.0 L 44.0,52.0" fill="#070707"/>
	<path d="M 60.0,64.0 L 68.0,64.0 L 68.0,67.0 L 60.0,67.0 L 60.0,64.0" fill="#2A2A2A"/>
</svg>
