<?xml version="1.0" ?>
<svg baseProfile="full" height="600px" version="1.1" viewBox="-19.296000000000003 -19.296000000000003 230.592 230.592" width="600px" xmlns="http://www.w3.org/2000/svg" xmlns:ev="http://www.w3.org/2001/xml-events" xmlns:xlink="http://www.w3.org/1999/xlink">
	<defs/>
	<path d="M 0.0,0.0 L 192.0,0.0 L 192.0,192.0 L 0.0,192.0 L 0.0,0.0" fill="#FDFEFD"/>
	<path d="M 20.0,168.0 L 84.0,169.0 L 116.0,170.0 L 132.0,171.0 L 132.0,172.0 L 20.0,172.0 L 20.0,168.0" fill="#FEC10C"/>
	<path d="M 68.0,169.0 L 84.0,169.0 L 116.0,170.0 L 132.0,171.0 L 132.0,172.0 L 68.0,172.0 L 68.0,169.0" fill="#506DD0"/>
	<path d="M 20.0,168.0 L 36.0,168.0 L 36.0,172.0 L 20.0,172.0 L 20.0,168.0" fill="#F54E42"/>
	<path d="M 68.0,169.0 L 84.0,169.0 L 84.0,172.0 L 68.0,172.0 L 68.0,169.0" fill="#67BB6A"/>
	<path d="M 36.0,169.0 L 52.0,169.0 L 52.0,172.0 L 36.0,172.0 L 36.0,169.0" fill="#FE9701"/>
</svg>
