<?xml version="1.0" ?>
<svg baseProfile="full" height="600px" version="1.1" viewBox="-19.296000000000003 -19.296000000000003 230.592 230.592" width="600px" xmlns="http://www.w3.org/2000/svg" xmlns:ev="http://www.w3.org/2001/xml-events" xmlns:xlink="http://www.w3.org/1999/xlink">
	<defs/>
	<path d="M 0.0,0.0 L 192.0,0.0 L 192.0,192.0 L 0.0,192.0 L 0.0,0.0" fill="#FDFEFD"/>
	<path d="M 156.0,20.0 L 172.0,20.0 L 172.0,132.0 L 166.0,132.0 L 166.0,116.0 L 164.0,116.0 L 163.0,100.0 L 163.0,84.0 L 161.0,84.0 L 161.0,68.0 L 159.0,68.0 L 159.0,52.0 L 157.0,52.0 L 156.0,36.0 L 156.0,20.0" fill="#FE9906"/>
	<path d="M 161.0,68.0 L 172.0,68.0 L 172.0,132.0 L 166.0,132.0 L 166.0,116.0 L 164.0,116.0 L 163.0,100.0 L 163.0,84.0 L 161.0,84.0 L 161.0,68.0" fill="#3F52B5"/>
	<path d="M 156.0,20.0 L 172.0,20.0 L 172.0,36.0 L 156.0,36.0 L 156.0,20.0" fill="#F44336"/>
	<path d="M 159.0,52.0 L 172.0,52.0 L 172.0,68.0 L 159.0,68.0 L 159.0,52.0" fill="#FEC009"/>
	<path d="M 161.0,68.0 L 172.0,68.0 L 172.0,84.0 L 161.0,84.0 L 161.0,68.0" fill="#4CAF50"/>
	<path d="M 163.0,84.0 L 172.0,84.0 L 172.0,100.0 L 165.0,100.0 L 165.0,116.0 L 164.0,116.0 L 163.0,100.0 L 163.0,84.0" fill="#2D97EF"/>
	<path d="M 166.0,116.0 L 172.0,116.0 L 172.0,132.0 L 166.0,132.0 L 166.0,116.0" fill="#A030B3"/>
</svg>
