<?xml version="1.0" ?>
<svg baseProfile="full" height="600px" version="1.1" viewBox="-12.864 -12.864 153.728 153.728" width="600px" xmlns="http://www.w3.org/2000/svg" xmlns:ev="http://www.w3.org/2001/xml-events" xmlns:xlink="http://www.w3.org/1999/xlink">
	<defs/>
	<path d="M 0.0,0.0 L 128.0,0.0 L 128.0,128.0 L 0.0,128.0 L 0.0,0.0" fill="#FCFCFC"/>
	<path d="M 54.0,20.0 L 73.0,20.0 L 86.0,24.0 L 97.0,30.0 L 106.0,38.0 L 105.0,42.0 L 102.0,45.0 L 98.0,43.0 L 90.0,36.0 L 79.0,31.0 L 70.0,29.0 L 57.0,29.0 L 44.0,33.0 L 34.0,39.0 L 26.0,47.0 L 19.0,61.0 L 17.0,69.0 L 16.0,108.0 L 8.0,108.0 L 8.0,70.0 L 10.0,59.0 L 18.0,43.0 L 27.0,33.0 L 38.0,26.0 L 50.0,21.0 L 54.0,20.0" fill="#070707"/>
	<path d="M 56.0,36.0 L 69.0,36.0 L 80.0,39.0 L 90.0,45.0 L 97.0,53.0 L 92.0,58.0 L 89.0,57.0 L 85.0,52.0 L 73.0,46.0 L 70.0,45.0 L 57.0,45.0 L 48.0,49.0 L 40.0,55.0 L 34.0,66.0 L 33.0,69.0 L 32.0,108.0 L 24.0,108.0 L 24.0,68.0 L 28.0,57.0 L 35.0,48.0 L 42.0,42.0 L 52.0,37.0 L 56.0,36.0" fill="#050505"/>
	<path d="M 58.0,52.0 L 69.0,52.0 L 78.0,56.0 L 85.0,63.0 L 87.0,69.0 L 79.0,71.0 L 74.0,64.0 L 68.0,61.0 L 59.0,61.0 L 53.0,65.0 L 49.0,71.0 L 48.0,108.0 L 40.0,108.0 L 40.0,70.0 L 44.0,62.0 L 51.0,55.0 L 58.0,52.0" fill="#050505"/>
</svg>
