<?xml version="1.0" ?>
<svg baseProfile="full" height="600px" version="1.1" viewBox="-12.06 -12.06 144.12 144.12" width="600px" xmlns="http://www.w3.org/2000/svg" xmlns:ev="http://www.w3.org/2001/xml-events" xmlns:xlink="http://www.w3.org/1999/xlink">
	<defs/>
	<path d="M 0.0,0.0 L 120.0,0.0 L 120.0,120.0 L 0.0,120.0 L 0.0,0.0" fill="#FCFCFC"/>
	<path d="M 63.0,25.0 L 68.0,25.0 L 70.0,27.0 L 69.0,32.0 L 79.0,32.0 L 89.0,36.0 L 96.0,43.0 L 99.0,49.0 L 99.0,53.0 L 105.0,55.0 L 110.0,61.0 L 112.0,65.0 L 112.0,74.0 L 108.0,82.0 L 103.0,86.0 L 99.0,88.0 L 33.0,88.0 L 26.0,84.0 L 22.0,79.0 L 19.0,71.0 L 20.0,65.0 L 25.0,57.0 L 31.0,53.0 L 33.0,53.0 L 35.0,47.0 L 41.0,42.0 L 45.0,40.0 L 56.0,39.0 L 61.0,35.0 L 63.0,34.0 L 61.0,32.0 L 61.0,26.0 L 63.0,25.0" fill="#020202"/>
	<path d="M 32.0,24.0 L 39.0,24.0 L 47.0,28.0 L 49.0,32.0 L 39.0,35.0 L 33.0,39.0 L 28.0,45.0 L 25.0,51.0 L 21.0,47.0 L 20.0,45.0 L 20.0,36.0 L 24.0,29.0 L 32.0,24.0" fill="#080808"/>
	<path d="M 54.0,92.0 L 59.0,93.0 L 60.0,94.0 L 60.0,100.0 L 57.0,103.0 L 52.0,101.0 L 52.0,94.0 L 54.0,92.0" fill="#0D0D0D"/>
	<path d="M 93.0,94.0 L 99.0,94.0 L 100.0,95.0 L 100.0,102.0 L 98.0,104.0 L 93.0,103.0 L 92.0,102.0 L 92.0,95.0 L 93.0,94.0" fill="#0B0B0B"/>
	<path d="M 63.0,25.0 L 68.0,25.0 L 70.0,27.0 L 70.0,33.0 L 65.0,34.0 L 61.0,32.0 L 61.0,26.0 L 63.0,25.0" fill="#131313"/>
	<path d="M 47.0,7.0 L 52.0,8.0 L 53.0,13.0 L 51.0,16.0 L 46.0,16.0 L 44.0,14.0 L 45.0,9.0 L 47.0,7.0" fill="#121212"/>
	<path d="M 33.0,99.0 L 39.0,99.0 L 40.0,100.0 L 40.0,106.0 L 38.0,108.0 L 33.0,107.0 L 32.0,106.0 L 32.0,100.0 L 33.0,99.0" fill="#0D0D0D"/>
	<path d="M 23.0,9.0 L 29.0,10.0 L 30.0,16.0 L 28.0,18.0 L 23.0,17.0 L 21.0,15.0 L 22.0,10.0 L 23.0,9.0" fill="#111111"/>
	<path d="M 7.0,47.0 L 13.0,47.0 L 14.0,52.0 L 11.0,55.0 L 6.0,54.0 L 5.0,53.0 L 5.0,48.0 L 7.0,47.0" fill="#0D0D0D"/>
	<path d="M 6.0,25.0 L 12.0,25.0 L 14.0,27.0 L 14.0,32.0 L 8.0,33.0 L 5.0,30.0 L 6.0,25.0" fill="#0D0D0D"/>
</svg>
