<?xml version="1.0" ?>
<svg baseProfile="full" height="600px" version="1.1" viewBox="-20.1 -20.1 240.2 240.2" width="600px" xmlns="http://www.w3.org/2000/svg" xmlns:ev="http://www.w3.org/2001/xml-events" xmlns:xlink="http://www.w3.org/1999/xlink">
	<defs/>
	<path d="M 0.0,0.0 L 200.0,0.0 L 200.0,200.0 L 0.0,200.0 L 0.0,0.0" fill="#FCFCFC"/>
	<path d="M 109.0,64.0 L 122.0,64.0 L 134.0,69.0 L 140.0,74.0 L 146.0,84.0 L 148.0,90.0 L 148.0,96.0 L 158.0,92.0 L 170.0,92.0 L 182.0,98.0 L 188.0,105.0 L 192.0,114.0 L 192.0,125.0 L 187.0,137.0 L 179.0,144.0 L 170.0,148.0 L 75.0,148.0 L 67.0,144.0 L 62.0,138.0 L 60.0,133.0 L 60.0,123.0 L 64.0,115.0 L 72.0,109.0 L 75.0,108.0 L 86.0,108.0 L 84.0,102.0 L 84.0,89.0 L 88.0,80.0 L 94.0,72.0 L 103.0,66.0 L 109.0,64.0" fill="#FCFCFC"/>
	<path d="M 108.0,56.0 L 123.0,56.0 L 132.0,59.0 L 142.0,65.0 L 150.0,74.0 L 154.0,82.0 L 154.0,85.0 L 160.0,84.0 L 169.0,84.0 L 180.0,87.0 L 188.0,93.0 L 196.0,102.0 L 199.0,109.0 L 200.0,114.0 L 200.0,124.0 L 198.0,133.0 L 193.0,142.0 L 185.0,150.0 L 175.0,155.0 L 168.0,156.0 L 73.0,156.0 L 63.0,151.0 L 55.0,142.0 L 52.0,133.0 L 52.0,122.0 L 56.0,113.0 L 63.0,105.0 L 71.0,101.0 L 76.0,100.0 L 76.0,88.0 L 80.0,78.0 L 86.0,69.0 L 94.0,62.0 L 104.0,57.0 L 108.0,56.0 M 109.0,64.0 L 100.0,68.0 L 91.0,75.0 L 85.0,86.0 L 84.0,89.0 L 84.0,102.0 L 86.0,108.0 L 75.0,108.0 L 67.0,112.0 L 61.0,120.0 L 60.0,123.0 L 60.0,133.0 L 64.0,141.0 L 72.0,147.0 L 75.0,148.0 L 170.0,148.0 L 182.0,142.0 L 188.0,135.0 L 192.0,125.0 L 192.0,114.0 L 188.0,105.0 L 181.0,97.0 L 170.0,92.0 L 158.0,92.0 L 148.0,96.0 L 147.0,86.0 L 142.0,77.0 L 138.0,72.0 L 128.0,66.0 L 122.0,64.0 L 109.0,64.0" fill="#050505"/>
	<path d="M 61.0,44.0 L 73.0,44.0 L 83.0,47.0 L 90.0,52.0 L 90.0,57.0 L 88.0,59.0 L 83.0,58.0 L 73.0,53.0 L 62.0,53.0 L 54.0,57.0 L 47.0,65.0 L 45.0,70.0 L 45.0,80.0 L 49.0,90.0 L 58.0,98.0 L 58.0,103.0 L 57.0,104.0 L 50.0,103.0 L 43.0,97.0 L 38.0,88.0 L 36.0,81.0 L 36.0,69.0 L 40.0,60.0 L 46.0,52.0 L 55.0,46.0 L 61.0,44.0" fill="#090909"/>
	<path d="M 31.0,101.0 L 36.0,101.0 L 38.0,103.0 L 37.0,108.0 L 27.0,117.0 L 22.0,121.0 L 17.0,120.0 L 16.0,119.0 L 16.0,114.0 L 31.0,101.0" fill="#070707"/>
	<path d="M 114.0,31.0 L 119.0,32.0 L 120.0,33.0 L 120.0,38.0 L 105.0,51.0 L 100.0,51.0 L 98.0,49.0 L 99.0,44.0 L 109.0,35.0 L 114.0,31.0" fill="#070707"/>
	<path d="M 25.0,24.0 L 30.0,24.0 L 42.0,38.0 L 43.0,44.0 L 41.0,46.0 L 36.0,45.0 L 24.0,31.0 L 23.0,26.0 L 25.0,24.0" fill="#0B0B0B"/>
	<path d="M 3.0,67.0 L 25.0,68.0 L 27.0,70.0 L 27.0,75.0 L 26.0,76.0 L 11.0,76.0 L 3.0,75.0 L 1.0,73.0 L 2.0,68.0 L 3.0,67.0" fill="#0A0A0A"/>
	<path d="M 71.0,9.0 L 76.0,10.0 L 77.0,11.0 L 77.0,23.0 L 76.0,33.0 L 74.0,35.0 L 69.0,35.0 L 68.0,34.0 L 68.0,22.0 L 69.0,11.0 L 71.0,9.0" fill="#090909"/>
	<path d="M 119.0,183.0 L 124.0,184.0 L 125.0,189.0 L 118.0,196.0 L 113.0,195.0 L 112.0,190.0 L 119.0,183.0" fill="#060606"/>
</svg>
