<?xml version="1.0" ?>
<svg baseProfile="full" height="600px" version="1.1" viewBox="-19.296000000000003 -19.296000000000003 230.592 230.592" width="600px" xmlns="http://www.w3.org/2000/svg" xmlns:ev="http://www.w3.org/2001/xml-events" xmlns:xlink="http://www.w3.org/1999/xlink">
	<defs/>
	<path d="M 0.0,0.0 L 192.0,0.0 L 192.0,192.0 L 0.0,192.0 L 0.0,0.0" fill="#FDFEFE"/>
	<path d="M 112.0,28.0 L 123.0,28.0 L 133.0,31.0 L 142.0,37.0 L 149.0,47.0 L 152.0,55.0 L 152.0,68.0 L 161.0,70.0 L 169.0,76.0 L 175.0,86.0 L 176.0,89.0 L 176.0,100.0 L 173.0,109.0 L 167.0,117.0 L 158.0,122.0 L 152.0,124.0 L 38.0,124.0 L 29.0,120.0 L 21.0,113.0 L 17.0,104.0 L 16.0,101.0 L 16.0,90.0 L 20.0,81.0 L 27.0,73.0 L 35.0,69.0 L 44.0,68.0 L 44.0,60.0 L 49.0,50.0 L 57.0,43.0 L 64.0,40.0 L 75.0,40.0 L 85.0,44.0 L 87.0,46.0 L 94.0,37.0 L 103.0,31.0 L 112.0,28.0" fill="#BADEFB"/>
	<path d="M 104.0,136.0 L 108.0,136.0 L 107.0,144.0 L 101.0,160.0 L 96.0,164.0 L 88.0,164.0 L 82.0,160.0 L 80.0,155.0 L 80.0,148.0 L 84.0,143.0 L 96.0,138.0 L 104.0,136.0" fill="#2899F3"/>
</svg>
