<?xml version="1.0" ?>
<svg baseProfile="full" height="600px" version="1.1" viewBox="-19.296000000000003 -19.296000000000003 230.592 230.592" width="600px" xmlns="http://www.w3.org/2000/svg" xmlns:ev="http://www.w3.org/2001/xml-events" xmlns:xlink="http://www.w3.org/1999/xlink">
	<defs/>
	<path d="M 0.0,0.0 L 192.0,0.0 L 192.0,192.0 L 0.0,192.0 L 0.0,0.0" fill="#FDFEFE"/>
	<path d="M 116.0,24.0 L 127.0,24.0 L 137.0,27.0 L 146.0,33.0 L 152.0,41.0 L 156.0,51.0 L 156.0,64.0 L 162.0,65.0 L 170.0,70.0 L 175.0,75.0 L 180.0,85.0 L 180.0,96.0 L 177.0,105.0 L 171.0,113.0 L 165.0,117.0 L 156.0,120.0 L 123.0,121.0 L 121.0,124.0 L 116.0,124.0 L 114.0,120.0 L 83.0,121.0 L 81.0,124.0 L 76.0,124.0 L 74.0,120.0 L 43.0,120.0 L 34.0,117.0 L 25.0,109.0 L 21.0,102.0 L 20.0,97.0 L 20.0,86.0 L 24.0,77.0 L 31.0,69.0 L 39.0,65.0 L 48.0,64.0 L 48.0,56.0 L 53.0,46.0 L 61.0,39.0 L 68.0,36.0 L 79.0,36.0 L 89.0,40.0 L 91.0,42.0 L 98.0,33.0 L 107.0,27.0 L 116.0,24.0" fill="#BBDEFB"/>
	<path d="M 123.0,153.0 L 128.0,153.0 L 129.0,154.0 L 128.0,162.0 L 126.0,164.0 L 121.0,163.0 L 120.0,162.0 L 121.0,155.0 L 123.0,153.0" fill="#2C9BF4"/>
	<path d="M 83.0,153.0 L 88.0,153.0 L 89.0,154.0 L 88.0,162.0 L 86.0,164.0 L 81.0,163.0 L 80.0,162.0 L 81.0,155.0 L 83.0,153.0" fill="#2C9BF4"/>
	<path d="M 43.0,153.0 L 48.0,153.0 L 49.0,154.0 L 48.0,162.0 L 46.0,164.0 L 41.0,163.0 L 40.0,162.0 L 41.0,155.0 L 43.0,153.0" fill="#2C9BF4"/>
	<path d="M 115.0,120.0 L 123.0,120.0 L 121.0,124.0 L 116.0,124.0 L 115.0,120.0" fill="#2F9DF4"/>
	<path d="M 75.0,120.0 L 83.0,120.0 L 81.0,124.0 L 76.0,124.0 L 75.0,120.0" fill="#2F9DF4"/>
</svg>
