<?xml version="1.0" ?>
<svg baseProfile="full" height="600px" version="1.1" viewBox="-12.06 -12.06 144.12 144.12" width="600px" xmlns="http://www.w3.org/2000/svg" xmlns:ev="http://www.w3.org/2001/xml-events" xmlns:xlink="http://www.w3.org/1999/xlink">
	<defs/>
	<path d="M 0.0,0.0 L 120.0,0.0 L 120.0,120.0 L 0.0,120.0 L 0.0,0.0" fill="#FDFDFD"/>
	<path d="M 64.0,12.0 L 75.0,12.0 L 85.0,16.0 L 92.0,23.0 L 96.0,32.0 L 96.0,40.0 L 105.0,43.0 L 110.0,49.0 L 112.0,53.0 L 112.0,62.0 L 108.0,70.0 L 103.0,74.0 L 99.0,76.0 L 21.0,76.0 L 14.0,72.0 L 10.0,67.0 L 8.0,63.0 L 8.0,53.0 L 13.0,45.0 L 21.0,40.0 L 24.0,39.0 L 27.0,31.0 L 33.0,26.0 L 37.0,24.0 L 45.0,24.0 L 48.0,25.0 L 50.0,21.0 L 57.0,15.0 L 64.0,12.0" fill="#020202"/>
	<path d="M 70.0,84.0 L 75.0,85.0 L 76.0,86.0 L 76.0,94.0 L 74.0,96.0 L 69.0,95.0 L 68.0,94.0 L 68.0,86.0 L 70.0,84.0" fill="#070707"/>
	<path d="M 22.0,84.0 L 27.0,85.0 L 28.0,86.0 L 28.0,93.0 L 27.0,95.0 L 21.0,95.0 L 20.0,93.0 L 20.0,86.0 L 22.0,84.0" fill="#070707"/>
	<path d="M 94.0,92.0 L 99.0,93.0 L 100.0,94.0 L 100.0,100.0 L 98.0,102.0 L 93.0,101.0 L 92.0,100.0 L 92.0,94.0 L 94.0,92.0" fill="#060606"/>
</svg>
