<?xml version="1.0" ?>
<svg baseProfile="full" height="600px" version="1.1" viewBox="-19.296000000000003 -19.296000000000003 230.592 230.592" width="600px" xmlns="http://www.w3.org/2000/svg" xmlns:ev="http://www.w3.org/2001/xml-events" xmlns:xlink="http://www.w3.org/1999/xlink">
	<defs/>
	<path d="M 0.0,0.0 L 192.0,0.0 L 192.0,192.0 L 0.0,192.0 L 0.0,0.0" fill="#FDFEFE"/>
	<path d="M 112.0,20.0 L 123.0,20.0 L 133.0,23.0 L 142.0,29.0 L 148.0,37.0 L 152.0,47.0 L 152.0,60.0 L 161.0,62.0 L 169.0,68.0 L 175.0,78.0 L 176.0,81.0 L 176.0,92.0 L 173.0,101.0 L 167.0,109.0 L 161.0,113.0 L 152.0,116.0 L 68.0,117.0 L 63.0,129.0 L 58.0,132.0 L 52.0,132.0 L 46.0,127.0 L 45.0,118.0 L 46.0,116.0 L 38.0,116.0 L 30.0,113.0 L 21.0,105.0 L 17.0,98.0 L 16.0,93.0 L 16.0,82.0 L 20.0,73.0 L 27.0,65.0 L 35.0,61.0 L 44.0,60.0 L 44.0,52.0 L 49.0,42.0 L 58.0,34.0 L 64.0,32.0 L 75.0,32.0 L 85.0,36.0 L 87.0,38.0 L 94.0,29.0 L 103.0,23.0 L 112.0,20.0" fill="#BADEFB"/>
	<path d="M 145.0,119.0 L 149.0,119.0 L 149.0,126.0 L 143.0,142.0 L 137.0,146.0 L 131.0,146.0 L 125.0,142.0 L 123.0,139.0 L 123.0,130.0 L 127.0,125.0 L 140.0,120.0 L 145.0,119.0" fill="#2699F3"/>
	<path d="M 47.0,116.0 L 67.0,116.0 L 65.0,125.0 L 63.0,129.0 L 58.0,132.0 L 52.0,132.0 L 46.0,127.0 L 45.0,118.0 L 47.0,116.0" fill="#2698F3"/>
	<path d="M 77.0,181.0 L 81.0,181.0 L 79.0,188.0 L 74.0,187.0 L 75.0,182.0 L 77.0,181.0" fill="#349FF4"/>
</svg>
