<?xml version="1.0" ?>
<svg baseProfile="full" height="600px" version="1.1" viewBox="-20.1 -20.1 240.2 240.2" width="600px" xmlns="http://www.w3.org/2000/svg" xmlns:ev="http://www.w3.org/2001/xml-events" xmlns:xlink="http://www.w3.org/1999/xlink">
	<defs/>
	<path d="M 0.0,0.0 L 200.0,0.0 L 200.0,200.0 L 0.0,200.0 L 0.0,0.0" fill="#FDFDFD"/>
	<path d="M 0.0,0.0 L 200.0,0.0 L 200.0,200.0 L 0.0,200.0 L 0.0,0.0 M 26.0,5.0 L 24.0,7.0 L 24.0,176.0 L 17.0,176.0 L 12.0,181.0 L 12.0,187.0 L 17.0,192.0 L 182.0,192.0 L 187.0,189.0 L 188.0,181.0 L 183.0,176.0 L 176.0,176.0 L 176.0,7.0 L 174.0,5.0 L 168.0,6.0 L 162.0,7.0 L 158.0,5.0 L 152.0,6.0 L 146.0,7.0 L 142.0,5.0 L 136.0,6.0 L 130.0,7.0 L 126.0,5.0 L 120.0,6.0 L 114.0,7.0 L 110.0,5.0 L 104.0,6.0 L 98.0,7.0 L 94.0,5.0 L 88.0,6.0 L 82.0,7.0 L 78.0,5.0 L 72.0,6.0 L 66.0,7.0 L 62.0,5.0 L 56.0,6.0 L 50.0,7.0 L 46.0,5.0 L 40.0,6.0 L 34.0,7.0 L 30.0,5.0 L 26.0,5.0" fill="#FCFCFC"/>
	<path d="M 26.0,5.0 L 32.0,6.0 L 38.0,7.0 L 42.0,5.0 L 48.0,6.0 L 54.0,7.0 L 58.0,5.0 L 64.0,6.0 L 70.0,7.0 L 74.0,5.0 L 80.0,6.0 L 86.0,7.0 L 90.0,5.0 L 96.0,6.0 L 102.0,7.0 L 106.0,5.0 L 112.0,6.0 L 118.0,7.0 L 122.0,5.0 L 128.0,6.0 L 134.0,7.0 L 138.0,5.0 L 144.0,6.0 L 150.0,7.0 L 154.0,5.0 L 160.0,6.0 L 166.0,7.0 L 170.0,5.0 L 175.0,6.0 L 176.0,7.0 L 176.0,176.0 L 183.0,176.0 L 188.0,181.0 L 187.0,189.0 L 182.0,192.0 L 17.0,192.0 L 12.0,187.0 L 12.0,181.0 L 17.0,176.0 L 24.0,176.0 L 24.0,7.0 L 26.0,5.0 M 42.0,14.0 L 38.0,16.0 L 32.0,16.0 L 32.0,179.0 L 168.0,179.0 L 168.0,16.0 L 162.0,16.0 L 158.0,14.0 L 152.0,15.0 L 146.0,16.0 L 142.0,14.0 L 136.0,15.0 L 130.0,16.0 L 126.0,14.0 L 120.0,15.0 L 114.0,16.0 L 110.0,14.0 L 104.0,15.0 L 98.0,16.0 L 94.0,14.0 L 88.0,15.0 L 82.0,16.0 L 78.0,14.0 L 72.0,15.0 L 66.0,16.0 L 62.0,14.0 L 56.0,15.0 L 50.0,16.0 L 46.0,14.0 L 42.0,14.0" fill="#050505"/>
	<path d="M 50.0,88.0 L 114.0,88.0 L 116.0,90.0 L 115.0,95.0 L 114.0,96.0 L 50.0,96.0 L 48.0,94.0 L 49.0,89.0 L 50.0,88.0" fill="#010101"/>
	<path d="M 50.0,40.0 L 114.0,40.0 L 116.0,42.0 L 115.0,47.0 L 114.0,48.0 L 50.0,48.0 L 48.0,46.0 L 49.0,41.0 L 50.0,40.0" fill="#010101"/>
	<path d="M 50.0,112.0 L 98.0,112.0 L 100.0,114.0 L 99.0,119.0 L 98.0,120.0 L 50.0,120.0 L 48.0,118.0 L 49.0,113.0 L 50.0,112.0" fill="#020202"/>
	<path d="M 50.0,64.0 L 98.0,64.0 L 100.0,66.0 L 99.0,71.0 L 98.0,72.0 L 50.0,72.0 L 48.0,70.0 L 49.0,65.0 L 50.0,64.0" fill="#020202"/>
	<path d="M 122.0,156.0 L 150.0,156.0 L 152.0,158.0 L 151.0,163.0 L 150.0,164.0 L 122.0,164.0 L 120.0,162.0 L 121.0,157.0 L 122.0,156.0" fill="#030303"/>
	<path d="M 134.0,112.0 L 150.0,112.0 L 152.0,114.0 L 151.0,119.0 L 150.0,120.0 L 134.0,120.0 L 132.0,118.0 L 133.0,113.0 L 134.0,112.0" fill="#040404"/>
	<path d="M 134.0,88.0 L 150.0,88.0 L 152.0,90.0 L 151.0,95.0 L 150.0,96.0 L 134.0,96.0 L 132.0,94.0 L 133.0,89.0 L 134.0,88.0" fill="#040404"/>
	<path d="M 134.0,64.0 L 150.0,64.0 L 152.0,66.0 L 151.0,71.0 L 150.0,72.0 L 134.0,72.0 L 132.0,70.0 L 133.0,65.0 L 134.0,64.0" fill="#040404"/>
	<path d="M 134.0,40.0 L 150.0,40.0 L 152.0,42.0 L 151.0,47.0 L 150.0,48.0 L 134.0,48.0 L 132.0,46.0 L 133.0,41.0 L 134.0,40.0" fill="#040404"/>
	<path d="M 146.0,136.0 L 151.0,137.0 L 152.0,142.0 L 150.0,144.0 L 145.0,143.0 L 144.0,138.0 L 146.0,136.0" fill="#0C0C0C"/>
	<path d="M 134.0,136.0 L 139.0,137.0 L 140.0,142.0 L 138.0,144.0 L 133.0,143.0 L 132.0,138.0 L 134.0,136.0" fill="#0C0C0C"/>
	<path d="M 122.0,136.0 L 127.0,137.0 L 128.0,142.0 L 126.0,144.0 L 121.0,143.0 L 120.0,138.0 L 122.0,136.0" fill="#0C0C0C"/>
	<path d="M 110.0,136.0 L 115.0,137.0 L 116.0,142.0 L 114.0,144.0 L 109.0,143.0 L 108.0,138.0 L 110.0,136.0" fill="#0C0C0C"/>
	<path d="M 98.0,136.0 L 103.0,137.0 L 104.0,142.0 L 102.0,144.0 L 97.0,143.0 L 96.0,138.0 L 98.0,136.0" fill="#0C0C0C"/>
	<path d="M 86.0,136.0 L 91.0,137.0 L 92.0,142.0 L 90.0,144.0 L 85.0,143.0 L 84.0,138.0 L 86.0,136.0" fill="#0C0C0C"/>
	<path d="M 74.0,136.0 L 79.0,137.0 L 80.0,142.0 L 78.0,144.0 L 73.0,143.0 L 72.0,138.0 L 74.0,136.0" fill="#0C0C0C"/>
	<path d="M 62.0,136.0 L 67.0,137.0 L 68.0,142.0 L 66.0,144.0 L 61.0,143.0 L 60.0,138.0 L 62.0,136.0" fill="#0C0C0C"/>
	<path d="M 50.0,136.0 L 55.0,137.0 L 56.0,142.0 L 54.0,144.0 L 49.0,143.0 L 48.0,138.0 L 50.0,136.0" fill="#0C0C0C"/>
</svg>
