<?xml version="1.0" ?>
<svg baseProfile="full" height="600px" version="1.1" viewBox="-20.1 -20.1 240.2 240.2" width="600px" xmlns="http://www.w3.org/2000/svg" xmlns:ev="http://www.w3.org/2001/xml-events" xmlns:xlink="http://www.w3.org/1999/xlink">
	<defs/>
	<path d="M 0.0,0.0 L 200.0,0.0 L 200.0,200.0 L 0.0,200.0 L 0.0,0.0" fill="#FDFDFD"/>
	<path d="M 24.0,1.0 L 176.0,1.0 L 179.0,11.0 L 183.0,17.0 L 184.0,18.0 L 196.0,19.0 L 198.0,21.0 L 198.0,27.0 L 194.0,30.0 L 186.0,30.0 L 182.0,28.0 L 17.0,28.0 L 12.0,30.0 L 6.0,30.0 L 2.0,27.0 L 2.0,21.0 L 4.0,19.0 L 16.0,18.0 L 20.0,13.0 L 23.0,5.0 L 24.0,1.0" fill="#080808"/>
	<path d="M 17.0,176.0 L 183.0,176.0 L 188.0,181.0 L 187.0,189.0 L 182.0,192.0 L 17.0,192.0 L 12.0,187.0 L 12.0,181.0 L 17.0,176.0" fill="#010101"/>
	<path d="M 43.0,6.0 L 49.0,8.0 L 55.0,8.0 L 61.0,6.0 L 65.0,8.0 L 71.0,8.0 L 77.0,6.0 L 81.0,8.0 L 87.0,8.0 L 93.0,6.0 L 97.0,8.0 L 103.0,8.0 L 109.0,6.0 L 113.0,8.0 L 119.0,8.0 L 125.0,6.0 L 129.0,8.0 L 135.0,8.0 L 141.0,6.0 L 145.0,8.0 L 151.0,8.0 L 157.0,6.0 L 161.0,8.0 L 169.0,8.0 L 173.0,17.0 L 173.0,19.0 L 27.0,19.0 L 29.0,13.0 L 31.0,8.0 L 39.0,8.0 L 43.0,6.0" fill="#FBFBFB"/>
	<path d="M 0.0,0.0 L 176.0,0.0 L 176.0,1.0 L 24.0,1.0 L 23.0,9.0 L 18.0,17.0 L 16.0,19.0 L 4.0,20.0 L 2.0,25.0 L 0.0,25.0 L 0.0,0.0" fill="#F0F0F0"/>
</svg>
