<?xml version="1.0" ?>
<svg baseProfile="full" height="600px" version="1.1" viewBox="-20.1 -20.1 240.2 240.2" width="600px" xmlns="http://www.w3.org/2000/svg" xmlns:ev="http://www.w3.org/2001/xml-events" xmlns:xlink="http://www.w3.org/1999/xlink">
	<defs/>
	<path d="M 0.0,0.0 L 200.0,0.0 L 200.0,200.0 L 0.0,200.0 L 0.0,0.0" fill="#FCFCFC"/>
	<path d="M 42.0,14.0 L 48.0,15.0 L 54.0,16.0 L 58.0,14.0 L 64.0,15.0 L 70.0,16.0 L 74.0,14.0 L 80.0,15.0 L 86.0,16.0 L 90.0,14.0 L 96.0,15.0 L 102.0,16.0 L 106.0,14.0 L 112.0,15.0 L 118.0,16.0 L 122.0,14.0 L 128.0,15.0 L 134.0,16.0 L 138.0,14.0 L 144.0,15.0 L 150.0,16.0 L 154.0,14.0 L 160.0,15.0 L 166.0,16.0 L 169.0,16.0 L 172.0,46.0 L 177.0,80.0 L 181.0,101.0 L 181.0,106.0 L 20.0,106.0 L 21.0,93.0 L 28.0,45.0 L 30.0,31.0 L 31.0,18.0 L 32.0,16.0 L 38.0,16.0 L 42.0,14.0" fill="#F8F8F8"/>
	<path d="M 26.0,5.0 L 32.0,6.0 L 38.0,7.0 L 42.0,5.0 L 48.0,6.0 L 54.0,7.0 L 58.0,5.0 L 64.0,6.0 L 70.0,7.0 L 74.0,5.0 L 80.0,6.0 L 86.0,7.0 L 90.0,5.0 L 96.0,6.0 L 102.0,7.0 L 106.0,5.0 L 112.0,6.0 L 118.0,7.0 L 122.0,5.0 L 128.0,6.0 L 134.0,7.0 L 138.0,5.0 L 144.0,6.0 L 150.0,7.0 L 154.0,5.0 L 160.0,6.0 L 166.0,7.0 L 170.0,5.0 L 175.0,6.0 L 176.0,7.0 L 181.0,52.0 L 186.0,81.0 L 190.0,108.0 L 189.0,113.0 L 188.0,114.0 L 12.0,114.0 L 11.0,113.0 L 11.0,102.0 L 16.0,71.0 L 19.0,54.0 L 24.0,7.0 L 26.0,5.0 M 42.0,14.0 L 38.0,16.0 L 32.0,16.0 L 31.0,18.0 L 29.0,37.0 L 22.0,87.0 L 20.0,99.0 L 20.0,106.0 L 181.0,106.0 L 180.0,96.0 L 177.0,80.0 L 172.0,46.0 L 169.0,16.0 L 162.0,16.0 L 158.0,14.0 L 152.0,15.0 L 146.0,16.0 L 142.0,14.0 L 136.0,15.0 L 130.0,16.0 L 126.0,14.0 L 120.0,15.0 L 114.0,16.0 L 110.0,14.0 L 104.0,15.0 L 98.0,16.0 L 94.0,14.0 L 88.0,15.0 L 82.0,16.0 L 78.0,14.0 L 72.0,15.0 L 66.0,16.0 L 62.0,14.0 L 56.0,15.0 L 50.0,16.0 L 46.0,14.0 L 42.0,14.0" fill="#080808"/>
	<path d="M 17.0,176.0 L 183.0,176.0 L 188.0,181.0 L 187.0,189.0 L 182.0,192.0 L 17.0,192.0 L 12.0,187.0 L 12.0,181.0 L 17.0,176.0" fill="#010101"/>
	<path d="M 49.0,64.0 L 115.0,64.0 L 116.0,67.0 L 114.0,68.0 L 50.0,68.0 L 48.0,67.0 L 49.0,64.0" fill="#181818"/>
	<path d="M 49.0,40.0 L 115.0,40.0 L 116.0,43.0 L 114.0,44.0 L 50.0,44.0 L 48.0,43.0 L 49.0,40.0" fill="#181818"/>
	<path d="M 49.0,76.0 L 99.0,76.0 L 100.0,79.0 L 98.0,80.0 L 50.0,80.0 L 48.0,79.0 L 49.0,76.0" fill="#181818"/>
	<path d="M 49.0,52.0 L 99.0,52.0 L 100.0,55.0 L 98.0,56.0 L 50.0,56.0 L 48.0,55.0 L 49.0,52.0" fill="#181818"/>
	<path d="M 133.0,76.0 L 151.0,76.0 L 152.0,79.0 L 150.0,80.0 L 134.0,80.0 L 132.0,79.0 L 133.0,76.0" fill="#1A1A1A"/>
	<path d="M 133.0,64.0 L 151.0,64.0 L 152.0,67.0 L 150.0,68.0 L 134.0,68.0 L 132.0,67.0 L 133.0,64.0" fill="#1A1A1A"/>
	<path d="M 133.0,52.0 L 151.0,52.0 L 152.0,55.0 L 150.0,56.0 L 134.0,56.0 L 132.0,55.0 L 133.0,52.0" fill="#1A1A1A"/>
	<path d="M 133.0,40.0 L 151.0,40.0 L 152.0,43.0 L 150.0,44.0 L 134.0,44.0 L 132.0,43.0 L 133.0,40.0" fill="#1A1A1A"/>
	<path d="M 145.0,88.0 L 151.0,88.0 L 152.0,91.0 L 146.0,92.0 L 144.0,91.0 L 145.0,88.0" fill="#1D1D1D"/>
	<path d="M 133.0,88.0 L 139.0,88.0 L 140.0,91.0 L 134.0,92.0 L 132.0,91.0 L 133.0,88.0" fill="#1D1D1D"/>
	<path d="M 121.0,88.0 L 127.0,88.0 L 128.0,91.0 L 122.0,92.0 L 120.0,91.0 L 121.0,88.0" fill="#1D1D1D"/>
	<path d="M 109.0,88.0 L 115.0,88.0 L 116.0,91.0 L 110.0,92.0 L 108.0,91.0 L 109.0,88.0" fill="#1D1D1D"/>
	<path d="M 97.0,88.0 L 103.0,88.0 L 104.0,91.0 L 98.0,92.0 L 96.0,91.0 L 97.0,88.0" fill="#1D1D1D"/>
	<path d="M 85.0,88.0 L 91.0,88.0 L 92.0,91.0 L 86.0,92.0 L 84.0,91.0 L 85.0,88.0" fill="#1D1D1D"/>
	<path d="M 73.0,88.0 L 79.0,88.0 L 80.0,91.0 L 74.0,92.0 L 72.0,91.0 L 73.0,88.0" fill="#1D1D1D"/>
	<path d="M 61.0,88.0 L 67.0,88.0 L 68.0,91.0 L 62.0,92.0 L 60.0,91.0 L 61.0,88.0" fill="#1D1D1D"/>
	<path d="M 49.0,88.0 L 55.0,88.0 L 56.0,91.0 L 50.0,92.0 L 48.0,91.0 L 49.0,88.0" fill="#1D1D1D"/>
</svg>
