<?xml version="1.0" ?>
<svg baseProfile="full" height="600px" version="1.1" viewBox="-20.1 -20.1 240.2 240.2" width="600px" xmlns="http://www.w3.org/2000/svg" xmlns:ev="http://www.w3.org/2001/xml-events" xmlns:xlink="http://www.w3.org/1999/xlink">
	<defs/>
	<path d="M 0.0,0.0 L 200.0,0.0 L 200.0,200.0 L 0.0,200.0 L 0.0,0.0" fill="#FBFBFB"/>
	<path d="M 0.0,0.0 L 200.0,0.0 L 200.0,200.0 L 0.0,200.0 L 0.0,0.0 M 32.0,12.0 L 25.0,15.0 L 20.0,19.0 L 16.0,27.0 L 16.0,37.0 L 20.0,45.0 L 28.0,51.0 L 31.0,52.0 L 41.0,52.0 L 49.0,48.0 L 55.0,40.0 L 56.0,36.0 L 65.0,34.0 L 73.0,29.0 L 81.0,21.0 L 88.0,22.0 L 93.0,32.0 L 95.0,42.0 L 96.0,52.0 L 86.0,52.0 L 70.0,55.0 L 51.0,62.0 L 45.0,65.0 L 38.0,61.0 L 35.0,60.0 L 24.0,60.0 L 16.0,64.0 L 10.0,71.0 L 8.0,76.0 L 8.0,87.0 L 12.0,96.0 L 14.0,100.0 L 12.0,108.0 L 12.0,121.0 L 15.0,134.0 L 21.0,145.0 L 30.0,155.0 L 39.0,163.0 L 51.0,170.0 L 67.0,176.0 L 79.0,179.0 L 87.0,180.0 L 110.0,180.0 L 130.0,177.0 L 146.0,171.0 L 158.0,165.0 L 168.0,157.0 L 177.0,148.0 L 183.0,138.0 L 187.0,127.0 L 188.0,124.0 L 188.0,109.0 L 186.0,98.0 L 191.0,90.0 L 192.0,88.0 L 192.0,76.0 L 188.0,68.0 L 181.0,62.0 L 175.0,60.0 L 164.0,60.0 L 156.0,64.0 L 150.0,63.0 L 139.0,58.0 L 125.0,54.0 L 113.0,52.0 L 104.0,52.0 L 104.0,41.0 L 101.0,26.0 L 95.0,16.0 L 88.0,12.0 L 80.0,12.0 L 71.0,18.0 L 67.0,23.0 L 59.0,27.0 L 55.0,28.0 L 54.0,22.0 L 49.0,16.0 L 41.0,12.0 L 32.0,12.0" fill="#FCFCFC"/>
	<path d="M 32.0,12.0 L 41.0,12.0 L 49.0,16.0 L 55.0,24.0 L 55.0,28.0 L 64.0,25.0 L 69.0,20.0 L 76.0,14.0 L 80.0,12.0 L 88.0,12.0 L 95.0,16.0 L 101.0,26.0 L 104.0,41.0 L 104.0,52.0 L 113.0,52.0 L 128.0,55.0 L 144.0,60.0 L 152.0,64.0 L 158.0,63.0 L 164.0,60.0 L 175.0,60.0 L 184.0,64.0 L 190.0,71.0 L 192.0,76.0 L 192.0,88.0 L 187.0,97.0 L 186.0,100.0 L 188.0,109.0 L 188.0,124.0 L 184.0,136.0 L 179.0,145.0 L 170.0,155.0 L 161.0,163.0 L 151.0,169.0 L 135.0,175.0 L 125.0,178.0 L 110.0,180.0 L 87.0,180.0 L 74.0,178.0 L 56.0,172.0 L 42.0,165.0 L 32.0,157.0 L 23.0,148.0 L 17.0,138.0 L 13.0,127.0 L 12.0,121.0 L 12.0,108.0 L 14.0,98.0 L 10.0,93.0 L 8.0,87.0 L 8.0,76.0 L 12.0,68.0 L 19.0,62.0 L 24.0,60.0 L 35.0,60.0 L 44.0,64.0 L 46.0,65.0 L 58.0,59.0 L 74.0,54.0 L 86.0,52.0 L 96.0,52.0 L 94.0,36.0 L 90.0,25.0 L 86.0,21.0 L 81.0,21.0 L 71.0,31.0 L 62.0,35.0 L 56.0,36.0 L 53.0,43.0 L 49.0,48.0 L 41.0,52.0 L 31.0,52.0 L 23.0,48.0 L 17.0,40.0 L 16.0,37.0 L 16.0,27.0 L 20.0,19.0 L 28.0,13.0 L 32.0,12.0 M 87.0,60.0 L 65.0,65.0 L 48.0,73.0 L 35.0,83.0 L 28.0,91.0 L 21.0,105.0 L 20.0,109.0 L 20.0,122.0 L 23.0,132.0 L 29.0,142.0 L 38.0,152.0 L 52.0,161.0 L 68.0,168.0 L 87.0,172.0 L 109.0,172.0 L 128.0,169.0 L 144.0,163.0 L 155.0,157.0 L 165.0,149.0 L 172.0,141.0 L 178.0,129.0 L 180.0,123.0 L 180.0,110.0 L 177.0,100.0 L 171.0,90.0 L 162.0,80.0 L 148.0,71.0 L 132.0,64.0 L 118.0,61.0 L 110.0,60.0 L 87.0,60.0" fill="#070707"/>
	<path d="M 46.0,120.0 L 51.0,121.0 L 60.0,134.0 L 69.0,142.0 L 83.0,149.0 L 92.0,151.0 L 107.0,151.0 L 116.0,149.0 L 128.0,144.0 L 138.0,136.0 L 146.0,126.0 L 150.0,120.0 L 155.0,121.0 L 156.0,126.0 L 149.0,137.0 L 138.0,148.0 L 124.0,156.0 L 110.0,160.0 L 91.0,160.0 L 78.0,157.0 L 65.0,150.0 L 55.0,141.0 L 48.0,133.0 L 44.0,126.0 L 45.0,121.0 L 46.0,120.0" fill="#080808"/>
	<path d="M 127.0,88.0 L 137.0,88.0 L 143.0,92.0 L 147.0,97.0 L 148.0,99.0 L 148.0,108.0 L 145.0,114.0 L 139.0,119.0 L 137.0,120.0 L 127.0,120.0 L 121.0,116.0 L 117.0,111.0 L 116.0,109.0 L 116.0,99.0 L 120.0,93.0 L 125.0,89.0 L 127.0,88.0" fill="#080808"/>
	<path d="M 63.0,88.0 L 73.0,88.0 L 79.0,92.0 L 83.0,97.0 L 84.0,99.0 L 84.0,108.0 L 81.0,114.0 L 75.0,119.0 L 73.0,120.0 L 63.0,120.0 L 57.0,116.0 L 53.0,111.0 L 52.0,109.0 L 52.0,99.0 L 56.0,93.0 L 61.0,89.0 L 63.0,88.0" fill="#080808"/>
	<path d="M 32.0,20.0 L 39.0,20.0 L 44.0,23.0 L 48.0,28.0 L 48.0,36.0 L 42.0,43.0 L 40.0,44.0 L 32.0,44.0 L 25.0,38.0 L 24.0,35.0 L 24.0,28.0 L 30.0,21.0 L 32.0,20.0" fill="#F7F7F7"/>
	<path d="M 25.0,68.0 L 34.0,68.0 L 38.0,71.0 L 28.0,80.0 L 21.0,88.0 L 20.0,90.0 L 17.0,89.0 L 16.0,86.0 L 16.0,77.0 L 23.0,69.0 L 25.0,68.0" fill="#F2F2F2"/>
	<path d="M 165.0,68.0 L 174.0,68.0 L 180.0,72.0 L 184.0,77.0 L 184.0,86.0 L 182.0,90.0 L 180.0,90.0 L 173.0,81.0 L 165.0,73.0 L 162.0,70.0 L 165.0,68.0" fill="#F3F3F3"/>
	<path d="M 129.0,96.0 L 135.0,96.0 L 140.0,101.0 L 140.0,107.0 L 135.0,112.0 L 129.0,112.0 L 124.0,107.0 L 124.0,101.0 L 129.0,96.0" fill="#EFEFEF"/>
	<path d="M 65.0,96.0 L 71.0,96.0 L 76.0,101.0 L 76.0,107.0 L 71.0,112.0 L 65.0,112.0 L 60.0,107.0 L 60.0,101.0 L 65.0,96.0" fill="#EFEFEF"/>
</svg>
