<?xml version="1.0" ?>
<svg baseProfile="full" height="600px" version="1.1" viewBox="-20.1 -20.1 240.2 240.2" width="600px" xmlns="http://www.w3.org/2000/svg" xmlns:ev="http://www.w3.org/2001/xml-events" xmlns:xlink="http://www.w3.org/1999/xlink">
	<defs/>
	<path d="M 0.0,0.0 L 200.0,0.0 L 200.0,200.0 L 0.0,200.0 L 0.0,0.0" fill="#FBFBFB"/>
	<path d="M 0.0,0.0 L 200.0,0.0 L 200.0,200.0 L 0.0,200.0 L 0.0,0.0 M 83.0,12.0 L 78.0,16.0 L 76.0,20.0 L 74.0,32.0 L 69.0,31.0 L 65.0,29.0 L 56.0,29.0 L 48.0,33.0 L 42.0,40.0 L 40.0,45.0 L 40.0,54.0 L 44.0,62.0 L 46.0,65.0 L 38.0,61.0 L 35.0,60.0 L 24.0,60.0 L 16.0,64.0 L 10.0,71.0 L 8.0,76.0 L 8.0,87.0 L 12.0,96.0 L 14.0,100.0 L 12.0,108.0 L 12.0,121.0 L 15.0,134.0 L 21.0,145.0 L 30.0,155.0 L 39.0,163.0 L 51.0,170.0 L 67.0,176.0 L 79.0,179.0 L 89.0,180.0 L 110.0,180.0 L 130.0,177.0 L 146.0,171.0 L 158.0,165.0 L 168.0,157.0 L 177.0,148.0 L 183.0,138.0 L 187.0,127.0 L 188.0,124.0 L 188.0,109.0 L 186.0,98.0 L 191.0,90.0 L 192.0,88.0 L 192.0,76.0 L 188.0,68.0 L 181.0,62.0 L 175.0,60.0 L 164.0,60.0 L 156.0,64.0 L 150.0,63.0 L 139.0,58.0 L 125.0,54.0 L 113.0,52.0 L 104.0,52.0 L 103.0,30.0 L 99.0,19.0 L 92.0,13.0 L 90.0,12.0 L 83.0,12.0" fill="#FCFCFC"/>
	<path d="M 83.0,12.0 L 90.0,12.0 L 96.0,16.0 L 100.0,21.0 L 103.0,30.0 L 104.0,52.0 L 113.0,52.0 L 128.0,55.0 L 144.0,60.0 L 152.0,64.0 L 158.0,63.0 L 164.0,60.0 L 175.0,60.0 L 184.0,64.0 L 190.0,71.0 L 192.0,76.0 L 192.0,88.0 L 187.0,97.0 L 186.0,100.0 L 188.0,109.0 L 188.0,124.0 L 184.0,136.0 L 179.0,145.0 L 170.0,155.0 L 161.0,163.0 L 151.0,169.0 L 135.0,175.0 L 125.0,178.0 L 110.0,180.0 L 89.0,180.0 L 74.0,178.0 L 56.0,172.0 L 42.0,165.0 L 32.0,157.0 L 23.0,148.0 L 17.0,138.0 L 13.0,127.0 L 12.0,121.0 L 12.0,108.0 L 14.0,98.0 L 10.0,93.0 L 8.0,87.0 L 8.0,76.0 L 12.0,68.0 L 19.0,62.0 L 24.0,60.0 L 35.0,60.0 L 44.0,64.0 L 46.0,64.0 L 42.0,59.0 L 40.0,54.0 L 40.0,45.0 L 44.0,37.0 L 51.0,31.0 L 56.0,29.0 L 65.0,29.0 L 71.0,32.0 L 74.0,32.0 L 76.0,20.0 L 80.0,14.0 L 83.0,12.0 M 87.0,60.0 L 74.0,63.0 L 68.0,67.0 L 56.0,69.0 L 45.0,75.0 L 34.0,84.0 L 26.0,94.0 L 21.0,105.0 L 20.0,109.0 L 20.0,122.0 L 23.0,132.0 L 29.0,142.0 L 38.0,152.0 L 52.0,161.0 L 68.0,168.0 L 87.0,172.0 L 109.0,172.0 L 128.0,169.0 L 144.0,163.0 L 155.0,157.0 L 166.0,148.0 L 174.0,138.0 L 179.0,126.0 L 180.0,123.0 L 180.0,110.0 L 177.0,100.0 L 171.0,90.0 L 162.0,80.0 L 148.0,71.0 L 132.0,64.0 L 118.0,61.0 L 110.0,60.0 L 87.0,60.0" fill="#070707"/>
	<path d="M 48.0,123.0 L 53.0,123.0 L 61.0,134.0 L 68.0,141.0 L 78.0,147.0 L 88.0,150.0 L 92.0,151.0 L 107.0,151.0 L 122.0,147.0 L 133.0,140.0 L 141.0,132.0 L 147.0,123.0 L 152.0,123.0 L 153.0,124.0 L 152.0,131.0 L 144.0,142.0 L 133.0,151.0 L 121.0,157.0 L 110.0,160.0 L 91.0,160.0 L 76.0,156.0 L 64.0,149.0 L 55.0,141.0 L 48.0,131.0 L 47.0,124.0 L 48.0,123.0" fill="#080808"/>
	<path d="M 57.0,37.0 L 63.0,37.0 L 69.0,41.0 L 72.0,45.0 L 72.0,53.0 L 68.0,59.0 L 64.0,61.0 L 56.0,61.0 L 50.0,56.0 L 48.0,52.0 L 48.0,46.0 L 52.0,40.0 L 57.0,37.0" fill="#F7F7F7"/>
	<path d="M 85.0,20.0 L 90.0,21.0 L 94.0,29.0 L 96.0,39.0 L 96.0,52.0 L 80.0,53.0 L 79.0,43.0 L 78.0,39.0 L 81.0,36.0 L 83.0,31.0 L 84.0,22.0 L 85.0,20.0" fill="#F4F4F4"/>
	<path d="M 118.0,100.0 L 146.0,100.0 L 148.0,102.0 L 147.0,107.0 L 146.0,108.0 L 118.0,108.0 L 116.0,106.0 L 117.0,101.0 L 118.0,100.0" fill="#030303"/>
	<path d="M 54.0,100.0 L 82.0,100.0 L 84.0,102.0 L 83.0,107.0 L 82.0,108.0 L 54.0,108.0 L 52.0,106.0 L 53.0,101.0 L 54.0,100.0" fill="#030303"/>
	<path d="M 25.0,68.0 L 34.0,68.0 L 38.0,71.0 L 28.0,80.0 L 21.0,88.0 L 20.0,90.0 L 17.0,89.0 L 16.0,86.0 L 16.0,77.0 L 23.0,69.0 L 25.0,68.0" fill="#F2F2F2"/>
	<path d="M 165.0,68.0 L 174.0,68.0 L 180.0,72.0 L 184.0,77.0 L 184.0,86.0 L 182.0,90.0 L 180.0,90.0 L 173.0,81.0 L 165.0,73.0 L 162.0,70.0 L 165.0,68.0" fill="#F3F3F3"/>
</svg>
