<?xml version="1.0" ?>
<svg baseProfile="full" height="600px" version="1.1" viewBox="-12.06 -12.06 144.12 144.12" width="600px" xmlns="http://www.w3.org/2000/svg" xmlns:ev="http://www.w3.org/2001/xml-events" xmlns:xlink="http://www.w3.org/1999/xlink">
	<defs/>
	<path d="M 0.0,0.0 L 120.0,0.0 L 120.0,120.0 L 0.0,120.0 L 0.0,0.0" fill="#FCFCFC"/>
	<path d="M 51.0,12.0 L 69.0,12.0 L 77.0,15.0 L 78.0,20.0 L 77.0,22.0 L 70.0,22.0 L 66.0,21.0 L 52.0,21.0 L 40.0,26.0 L 32.0,32.0 L 26.0,40.0 L 22.0,49.0 L 20.0,59.0 L 18.0,61.0 L 13.0,60.0 L 12.0,59.0 L 12.0,51.0 L 16.0,40.0 L 22.0,30.0 L 31.0,21.0 L 47.0,13.0 L 51.0,12.0" fill="#090909"/>
	<path d="M 101.0,60.0 L 107.0,60.0 L 108.0,62.0 L 107.0,73.0 L 99.0,89.0 L 89.0,99.0 L 73.0,107.0 L 66.0,108.0 L 51.0,108.0 L 47.0,105.0 L 48.0,100.0 L 52.0,99.0 L 65.0,99.0 L 78.0,95.0 L 87.0,89.0 L 93.0,82.0 L 98.0,70.0 L 100.0,61.0 L 101.0,60.0" fill="#080808"/>
</svg>
