<?xml version="1.0" ?>
<svg baseProfile="full" height="600px" version="1.1" viewBox="-20.1 -20.1 240.2 240.2" width="600px" xmlns="http://www.w3.org/2000/svg" xmlns:ev="http://www.w3.org/2001/xml-events" xmlns:xlink="http://www.w3.org/1999/xlink">
	<defs/>
	<path d="M 0.0,0.0 L 200.0,0.0 L 200.0,200.0 L 0.0,200.0 L 0.0,0.0" fill="#FDFDFD"/>
	<path d="M 0.0,0.0 L 200.0,0.0 L 200.0,200.0 L 0.0,200.0 L 0.0,0.0 M 16.0,16.0 L 11.0,19.0 L 8.0,24.0 L 8.0,175.0 L 11.0,180.0 L 16.0,184.0 L 183.0,184.0 L 189.0,181.0 L 192.0,175.0 L 192.0,40.0 L 186.0,33.0 L 183.0,32.0 L 71.0,32.0 L 69.0,27.0 L 63.0,19.0 L 57.0,16.0 L 16.0,16.0" fill="#FDFDFD"/>
	<path d="M 16.0,16.0 L 57.0,16.0 L 64.0,20.0 L 71.0,30.0 L 71.0,32.0 L 183.0,32.0 L 188.0,35.0 L 192.0,40.0 L 192.0,175.0 L 189.0,181.0 L 183.0,184.0 L 16.0,184.0 L 9.0,178.0 L 8.0,175.0 L 8.0,24.0 L 11.0,19.0 L 16.0,16.0 M 18.0,60.0 L 16.0,62.0 L 16.0,174.0 L 18.0,176.0 L 182.0,176.0 L 184.0,174.0 L 184.0,62.0 L 182.0,60.0 L 18.0,60.0" fill="#010101"/>
	<path d="M 18.0,24.0 L 57.0,24.0 L 64.0,35.0 L 70.0,39.0 L 182.0,40.0 L 184.0,42.0 L 184.0,53.0 L 16.0,52.0 L 16.0,26.0 L 18.0,24.0" fill="#FDFDFD"/>
	<path d="M 130.0,76.0 L 135.0,77.0 L 136.0,78.0 L 136.0,106.0 L 134.0,108.0 L 106.0,108.0 L 104.0,106.0 L 105.0,101.0 L 106.0,100.0 L 123.0,99.0 L 116.0,93.0 L 106.0,89.0 L 93.0,89.0 L 84.0,93.0 L 76.0,99.0 L 71.0,107.0 L 69.0,113.0 L 69.0,126.0 L 74.0,138.0 L 79.0,144.0 L 87.0,149.0 L 93.0,151.0 L 107.0,151.0 L 121.0,144.0 L 127.0,136.0 L 130.0,129.0 L 132.0,118.0 L 134.0,116.0 L 139.0,117.0 L 140.0,118.0 L 140.0,126.0 L 138.0,134.0 L 132.0,145.0 L 125.0,152.0 L 116.0,157.0 L 112.0,159.0 L 105.0,160.0 L 92.0,160.0 L 81.0,156.0 L 72.0,149.0 L 66.0,142.0 L 61.0,132.0 L 60.0,125.0 L 60.0,112.0 L 64.0,101.0 L 71.0,92.0 L 78.0,86.0 L 88.0,81.0 L 92.0,80.0 L 105.0,80.0 L 116.0,83.0 L 126.0,89.0 L 127.0,90.0 L 128.0,78.0 L 130.0,76.0" fill="#060606"/>
</svg>
