<?xml version="1.0" ?>
<svg baseProfile="full" height="600px" version="1.1" viewBox="-16.08 -16.08 192.16 192.16" width="600px" xmlns="http://www.w3.org/2000/svg" xmlns:ev="http://www.w3.org/2001/xml-events" xmlns:xlink="http://www.w3.org/1999/xlink">
	<defs/>
	<path d="M 0.0,0.0 L 160.0,0.0 L 160.0,160.0 L 0.0,160.0 L 0.0,0.0" fill="#FCFDFD"/>
	<path d="M 141.0,25.0 L 141.0,28.0 L 140.0,33.0 L 147.0,43.0 L 152.0,54.0 L 156.0,69.0 L 156.0,90.0 L 152.0,106.0 L 144.0,122.0 L 136.0,132.0 L 129.0,139.0 L 115.0,148.0 L 103.0,153.0 L 90.0,156.0 L 69.0,156.0 L 64.0,155.0 L 64.0,138.0 L 65.0,134.0 L 71.0,135.0 L 87.0,135.0 L 102.0,131.0 L 114.0,124.0 L 118.0,120.0 L 120.0,120.0 L 122.0,116.0 L 129.0,106.0 L 133.0,96.0 L 135.0,85.0 L 135.0,72.0 L 132.0,61.0 L 126.0,49.0 L 124.0,46.0 L 117.0,47.0 L 122.0,38.0 L 127.0,32.0 L 141.0,25.0" fill="#88B4ED"/>
	<path d="M 70.0,4.0 L 87.0,4.0 L 96.0,5.0 L 96.0,20.0 L 95.0,26.0 L 88.0,25.0 L 71.0,25.0 L 58.0,29.0 L 46.0,36.0 L 40.0,41.0 L 31.0,54.0 L 27.0,63.0 L 25.0,71.0 L 25.0,88.0 L 29.0,102.0 L 36.0,114.0 L 43.0,113.0 L 38.0,122.0 L 33.0,128.0 L 20.0,135.0 L 18.0,134.0 L 20.0,131.0 L 19.0,126.0 L 11.0,113.0 L 5.0,96.0 L 4.0,91.0 L 4.0,70.0 L 8.0,54.0 L 16.0,38.0 L 24.0,28.0 L 31.0,21.0 L 45.0,12.0 L 57.0,7.0 L 70.0,4.0" fill="#88B4ED"/>
	<path d="M 141.0,25.0 L 141.0,28.0 L 140.0,33.0 L 147.0,43.0 L 152.0,54.0 L 156.0,69.0 L 156.0,90.0 L 152.0,106.0 L 144.0,122.0 L 136.0,132.0 L 129.0,139.0 L 115.0,148.0 L 103.0,153.0 L 90.0,156.0 L 69.0,156.0 L 64.0,155.0 L 64.0,138.0 L 65.0,134.0 L 71.0,135.0 L 87.0,135.0 L 102.0,131.0 L 114.0,124.0 L 118.0,120.0 L 120.0,120.0 L 122.0,116.0 L 129.0,106.0 L 133.0,96.0 L 135.0,85.0 L 135.0,72.0 L 132.0,61.0 L 126.0,49.0 L 124.0,46.0 L 117.0,47.0 L 122.0,38.0 L 127.0,32.0 L 141.0,25.0 M 134.0,33.0 L 128.0,37.0 L 126.0,42.0 L 133.0,53.0 L 138.0,66.0 L 139.0,71.0 L 139.0,86.0 L 137.0,98.0 L 129.0,114.0 L 120.0,124.0 L 111.0,131.0 L 101.0,136.0 L 88.0,139.0 L 69.0,139.0 L 68.0,151.0 L 74.0,152.0 L 87.0,152.0 L 102.0,149.0 L 116.0,143.0 L 128.0,134.0 L 136.0,126.0 L 145.0,112.0 L 150.0,99.0 L 152.0,89.0 L 152.0,74.0 L 150.0,62.0 L 145.0,48.0 L 138.0,37.0 L 134.0,33.0" fill="#5681BA"/>
	<path d="M 70.0,4.0 L 87.0,4.0 L 96.0,5.0 L 96.0,20.0 L 95.0,26.0 L 88.0,25.0 L 71.0,25.0 L 58.0,29.0 L 46.0,36.0 L 40.0,41.0 L 31.0,54.0 L 27.0,63.0 L 25.0,71.0 L 25.0,88.0 L 29.0,102.0 L 36.0,114.0 L 43.0,113.0 L 38.0,122.0 L 33.0,128.0 L 20.0,135.0 L 18.0,134.0 L 20.0,131.0 L 19.0,126.0 L 11.0,113.0 L 5.0,96.0 L 4.0,91.0 L 4.0,70.0 L 8.0,54.0 L 16.0,38.0 L 24.0,28.0 L 31.0,21.0 L 45.0,12.0 L 57.0,7.0 L 70.0,4.0 M 71.0,8.0 L 55.0,12.0 L 41.0,19.0 L 31.0,27.0 L 24.0,34.0 L 15.0,48.0 L 10.0,61.0 L 8.0,71.0 L 8.0,88.0 L 10.0,98.0 L 16.0,114.0 L 25.0,127.0 L 31.0,124.0 L 34.0,120.0 L 32.0,115.0 L 26.0,105.0 L 22.0,94.0 L 21.0,87.0 L 21.0,70.0 L 25.0,57.0 L 31.0,46.0 L 40.0,36.0 L 49.0,29.0 L 62.0,23.0 L 70.0,21.0 L 92.0,21.0 L 92.0,9.0 L 88.0,8.0 L 71.0,8.0" fill="#5680B9"/>
</svg>
