<?xml version="1.0" ?>
<svg baseProfile="full" height="600px" version="1.1" viewBox="-20.1 -20.1 240.2 240.2" width="600px" xmlns="http://www.w3.org/2000/svg" xmlns:ev="http://www.w3.org/2001/xml-events" xmlns:xlink="http://www.w3.org/1999/xlink">
	<defs/>
	<path d="M 0.0,0.0 L 200.0,0.0 L 200.0,200.0 L 0.0,200.0 L 0.0,0.0" fill="#FDFDFD"/>
	<path d="M 76.0,16.0 L 112.0,16.0 L 112.0,24.0 L 74.0,25.0 L 62.0,31.0 L 57.0,37.0 L 53.0,46.0 L 52.0,135.0 L 44.0,135.0 L 44.0,48.0 L 46.0,38.0 L 52.0,29.0 L 59.0,22.0 L 69.0,17.0 L 76.0,16.0" fill="#020202"/>
	<path d="M 148.0,65.0 L 156.0,65.0 L 156.0,152.0 L 154.0,161.0 L 150.0,169.0 L 141.0,178.0 L 131.0,183.0 L 124.0,184.0 L 88.0,184.0 L 88.0,176.0 L 126.0,175.0 L 138.0,169.0 L 143.0,163.0 L 147.0,153.0 L 148.0,65.0" fill="#020202"/>
</svg>
