<?xml version="1.0" ?>
<svg baseProfile="full" height="600px" version="1.1" viewBox="-12.06 -12.06 144.12 144.12" width="600px" xmlns="http://www.w3.org/2000/svg" xmlns:ev="http://www.w3.org/2001/xml-events" xmlns:xlink="http://www.w3.org/1999/xlink">
	<defs/>
	<path d="M 0.0,0.0 L 120.0,0.0 L 120.0,120.0 L 0.0,120.0 L 0.0,0.0" fill="#FCFCFC"/>
	<path d="M 16.0,37.0 L 20.0,39.0 L 33.0,59.0 L 33.0,60.0 L 20.0,60.0 L 24.0,76.0 L 30.0,86.0 L 38.0,93.0 L 49.0,98.0 L 52.0,99.0 L 65.0,99.0 L 78.0,95.0 L 87.0,89.0 L 92.0,88.0 L 94.0,90.0 L 93.0,95.0 L 86.0,101.0 L 73.0,107.0 L 66.0,108.0 L 51.0,108.0 L 39.0,104.0 L 29.0,97.0 L 21.0,89.0 L 13.0,73.0 L 12.0,69.0 L 12.0,60.0 L 1.0,60.0 L 8.0,49.0 L 16.0,37.0" fill="#070707"/>
	<path d="M 51.0,12.0 L 69.0,12.0 L 82.0,17.0 L 91.0,23.0 L 99.0,31.0 L 105.0,42.0 L 108.0,51.0 L 108.0,56.0 L 120.0,56.0 L 113.0,67.0 L 105.0,79.0 L 102.0,78.0 L 88.0,57.0 L 88.0,56.0 L 99.0,56.0 L 97.0,46.0 L 91.0,35.0 L 82.0,27.0 L 74.0,23.0 L 66.0,21.0 L 52.0,21.0 L 40.0,26.0 L 32.0,32.0 L 30.0,34.0 L 25.0,33.0 L 24.0,28.0 L 31.0,21.0 L 47.0,13.0 L 51.0,12.0" fill="#070707"/>
</svg>
