<?xml version="1.0" ?>
<svg baseProfile="full" height="600px" version="1.1" viewBox="-19.296000000000003 -19.296000000000003 230.592 230.592" width="600px" xmlns="http://www.w3.org/2000/svg" xmlns:ev="http://www.w3.org/2001/xml-events" xmlns:xlink="http://www.w3.org/1999/xlink">
	<defs/>
	<path d="M 0.0,0.0 L 192.0,0.0 L 192.0,192.0 L 0.0,192.0 L 0.0,0.0" fill="#FCFDFE"/>
	<path d="M 68.0,12.0 L 121.0,12.0 L 131.0,14.0 L 142.0,21.0 L 150.0,30.0 L 154.0,38.0 L 156.0,44.0 L 156.0,140.0 L 140.0,140.0 L 139.0,46.0 L 135.0,38.0 L 128.0,32.0 L 120.0,29.0 L 70.0,29.0 L 66.0,30.0 L 60.0,19.0 L 60.0,15.0 L 68.0,12.0" fill="#1766C0"/>
	<path d="M 36.0,55.0 L 52.0,55.0 L 53.0,145.0 L 58.0,155.0 L 65.0,161.0 L 70.0,163.0 L 122.0,164.0 L 125.0,179.0 L 121.0,180.0 L 68.0,180.0 L 56.0,175.0 L 48.0,169.0 L 42.0,162.0 L 38.0,154.0 L 36.0,145.0 L 36.0,55.0" fill="#1666C0"/>
</svg>
