<?xml version="1.0" ?>
<svg baseProfile="full" height="600px" version="1.1" viewBox="-20.1 -20.1 240.2 240.2" width="600px" xmlns="http://www.w3.org/2000/svg" xmlns:ev="http://www.w3.org/2001/xml-events" xmlns:xlink="http://www.w3.org/1999/xlink">
	<defs/>
	<path d="M 0.0,0.0 L 200.0,0.0 L 200.0,200.0 L 0.0,200.0 L 0.0,0.0" fill="#FDFDFD"/>
	<path d="M 117.0,37.0 L 135.0,37.0 L 145.0,40.0 L 150.0,46.0 L 155.0,60.0 L 157.0,67.0 L 158.0,75.0 L 158.0,90.0 L 154.0,103.0 L 146.0,117.0 L 139.0,126.0 L 139.0,136.0 L 132.0,150.0 L 129.0,152.0 L 126.0,158.0 L 123.0,161.0 L 104.0,164.0 L 77.0,171.0 L 64.0,172.0 L 58.0,167.0 L 45.0,142.0 L 42.0,132.0 L 42.0,118.0 L 46.0,102.0 L 52.0,88.0 L 51.0,83.0 L 49.0,79.0 L 49.0,63.0 L 52.0,54.0 L 61.0,47.0 L 70.0,40.0 L 74.0,38.0 L 82.0,39.0 L 97.0,39.0 L 117.0,37.0" fill="#FCFCFC"/>
	<path d="M 117.0,37.0 L 135.0,37.0 L 145.0,40.0 L 150.0,46.0 L 155.0,60.0 L 157.0,67.0 L 158.0,75.0 L 158.0,90.0 L 154.0,103.0 L 146.0,117.0 L 139.0,126.0 L 139.0,136.0 L 132.0,150.0 L 129.0,152.0 L 126.0,158.0 L 123.0,161.0 L 104.0,164.0 L 77.0,171.0 L 64.0,172.0 L 58.0,167.0 L 45.0,142.0 L 42.0,132.0 L 42.0,118.0 L 46.0,102.0 L 52.0,88.0 L 51.0,83.0 L 49.0,79.0 L 49.0,63.0 L 52.0,54.0 L 61.0,47.0 L 70.0,40.0 L 74.0,38.0 L 82.0,39.0 L 97.0,39.0 L 117.0,37.0 M 119.0,45.0 L 99.0,46.0 L 74.0,46.0 L 63.0,55.0 L 57.0,60.0 L 56.0,65.0 L 56.0,77.0 L 59.0,82.0 L 59.0,90.0 L 51.0,110.0 L 50.0,115.0 L 50.0,134.0 L 55.0,146.0 L 63.0,161.0 L 65.0,164.0 L 73.0,164.0 L 94.0,159.0 L 110.0,155.0 L 120.0,154.0 L 125.0,146.0 L 129.0,141.0 L 132.0,134.0 L 132.0,123.0 L 140.0,113.0 L 146.0,103.0 L 150.0,92.0 L 151.0,88.0 L 151.0,75.0 L 147.0,59.0 L 142.0,46.0 L 141.0,45.0 L 119.0,45.0" fill="#0A0A0A"/>
</svg>
