<?xml version="1.0" ?>
<svg baseProfile="full" height="600px" version="1.1" viewBox="-20.1 -20.1 240.2 240.2" width="600px" xmlns="http://www.w3.org/2000/svg" xmlns:ev="http://www.w3.org/2001/xml-events" xmlns:xlink="http://www.w3.org/1999/xlink">
	<defs/>
	<path d="M 0.0,0.0 L 200.0,0.0 L 200.0,200.0 L 0.0,200.0 L 0.0,0.0" fill="#FCFCFC"/>
	<path d="M 0.0,0.0 L 200.0,0.0 L 200.0,200.0 L 0.0,200.0 L 0.0,0.0 M 28.0,17.0 L 14.0,18.0 L 8.0,23.0 L 6.0,26.0 L 6.0,53.0 L 7.0,96.0 L 9.0,157.0 L 10.0,178.0 L 13.0,183.0 L 18.0,186.0 L 50.0,186.0 L 91.0,185.0 L 114.0,184.0 L 186.0,182.0 L 192.0,177.0 L 194.0,173.0 L 194.0,155.0 L 192.0,61.0 L 191.0,39.0 L 187.0,33.0 L 181.0,30.0 L 150.0,30.0 L 127.0,31.0 L 84.0,32.0 L 69.0,33.0 L 67.0,27.0 L 61.0,20.0 L 56.0,17.0 L 28.0,17.0" fill="#FCFCFC"/>
	<path d="M 28.0,17.0 L 56.0,17.0 L 64.0,23.0 L 69.0,31.0 L 69.0,33.0 L 84.0,32.0 L 127.0,31.0 L 150.0,30.0 L 181.0,30.0 L 187.0,33.0 L 191.0,39.0 L 192.0,61.0 L 194.0,155.0 L 194.0,173.0 L 190.0,179.0 L 186.0,182.0 L 114.0,184.0 L 91.0,185.0 L 50.0,186.0 L 18.0,186.0 L 12.0,182.0 L 10.0,178.0 L 9.0,157.0 L 7.0,96.0 L 6.0,53.0 L 6.0,26.0 L 12.0,19.0 L 14.0,18.0 L 28.0,17.0 M 153.0,58.0 L 125.0,59.0 L 31.0,61.0 L 17.0,62.0 L 16.0,63.0 L 16.0,116.0 L 18.0,176.0 L 20.0,178.0 L 35.0,178.0 L 156.0,175.0 L 183.0,174.0 L 186.0,172.0 L 186.0,155.0 L 184.0,84.0 L 183.0,60.0 L 181.0,58.0 L 153.0,58.0" fill="#0A0A0A"/>
	<path d="M 33.0,25.0 L 55.0,25.0 L 62.0,35.0 L 67.0,39.0 L 69.0,40.0 L 89.0,40.0 L 130.0,39.0 L 153.0,38.0 L 180.0,38.0 L 183.0,41.0 L 183.0,50.0 L 166.0,51.0 L 74.0,53.0 L 33.0,54.0 L 15.0,54.0 L 15.0,27.0 L 16.0,26.0 L 33.0,25.0" fill="#F9F9F9"/>
	<path d="M 97.0,77.0 L 103.0,78.0 L 108.0,81.0 L 109.0,86.0 L 103.0,94.0 L 98.0,93.0 L 97.0,89.0 L 88.0,91.0 L 78.0,97.0 L 72.0,105.0 L 69.0,113.0 L 69.0,124.0 L 72.0,135.0 L 79.0,144.0 L 88.0,149.0 L 93.0,151.0 L 105.0,151.0 L 116.0,147.0 L 123.0,142.0 L 129.0,132.0 L 131.0,125.0 L 132.0,115.0 L 134.0,113.0 L 139.0,114.0 L 140.0,115.0 L 140.0,126.0 L 138.0,134.0 L 132.0,145.0 L 125.0,152.0 L 116.0,157.0 L 112.0,159.0 L 106.0,160.0 L 92.0,160.0 L 81.0,156.0 L 72.0,149.0 L 66.0,142.0 L 61.0,132.0 L 60.0,125.0 L 60.0,112.0 L 64.0,101.0 L 71.0,92.0 L 78.0,86.0 L 89.0,81.0 L 95.0,80.0 L 97.0,77.0" fill="#090909"/>
</svg>
