<?xml version="1.0" ?>
<svg baseProfile="full" height="600px" version="1.1" viewBox="-19.296000000000003 -19.296000000000003 230.592 230.592" width="600px" xmlns="http://www.w3.org/2000/svg" xmlns:ev="http://www.w3.org/2001/xml-events" xmlns:xlink="http://www.w3.org/1999/xlink">
	<defs/>
	<path d="M 0.0,0.0 L 192.0,0.0 L 192.0,192.0 L 0.0,192.0 L 0.0,0.0" fill="#FCFDFE"/>
	<path d="M 68.0,12.0 L 121.0,12.0 L 134.0,16.0 L 143.0,22.0 L 150.0,30.0 L 152.0,33.0 L 151.0,37.0 L 140.0,42.0 L 136.0,40.0 L 130.0,33.0 L 120.0,29.0 L 70.0,29.0 L 62.0,33.0 L 55.0,41.0 L 53.0,46.0 L 52.0,100.0 L 69.0,100.0 L 63.0,107.0 L 46.0,123.0 L 42.0,123.0 L 32.0,113.0 L 24.0,106.0 L 19.0,100.0 L 36.0,100.0 L 36.0,44.0 L 40.0,33.0 L 47.0,24.0 L 54.0,18.0 L 62.0,14.0 L 68.0,12.0" fill="#1867C1"/>
	<path d="M 147.0,68.0 L 151.0,70.0 L 162.0,81.0 L 170.0,88.0 L 173.0,92.0 L 156.0,92.0 L 156.0,146.0 L 153.0,156.0 L 147.0,166.0 L 138.0,174.0 L 130.0,178.0 L 121.0,180.0 L 68.0,180.0 L 56.0,175.0 L 48.0,169.0 L 42.0,162.0 L 40.0,159.0 L 40.0,155.0 L 52.0,150.0 L 56.0,152.0 L 62.0,159.0 L 70.0,163.0 L 121.0,163.0 L 131.0,158.0 L 137.0,151.0 L 139.0,145.0 L 140.0,92.0 L 123.0,92.0 L 129.0,85.0 L 142.0,73.0 L 147.0,68.0" fill="#1767C1"/>
</svg>
