<?xml version="1.0" ?>
<svg baseProfile="full" height="600px" version="1.1" viewBox="-20.1 -20.1 240.2 240.2" width="600px" xmlns="http://www.w3.org/2000/svg" xmlns:ev="http://www.w3.org/2001/xml-events" xmlns:xlink="http://www.w3.org/1999/xlink">
	<defs/>
	<path d="M 0.0,0.0 L 200.0,0.0 L 200.0,200.0 L 0.0,200.0 L 0.0,0.0" fill="#FCFCFC"/>
	<path d="M 68.0,43.0 L 86.0,43.0 L 99.0,48.0 L 108.0,54.0 L 113.0,58.0 L 119.0,66.0 L 124.0,64.0 L 132.0,61.0 L 144.0,61.0 L 154.0,65.0 L 163.0,73.0 L 168.0,84.0 L 168.0,94.0 L 174.0,96.0 L 180.0,100.0 L 187.0,107.0 L 192.0,117.0 L 193.0,122.0 L 193.0,135.0 L 189.0,146.0 L 182.0,155.0 L 173.0,161.0 L 162.0,164.0 L 150.0,164.0 L 148.0,162.0 L 149.0,157.0 L 150.0,156.0 L 163.0,155.0 L 172.0,151.0 L 179.0,145.0 L 183.0,137.0 L 184.0,134.0 L 184.0,123.0 L 181.0,115.0 L 175.0,107.0 L 166.0,102.0 L 160.0,100.0 L 159.0,94.0 L 159.0,85.0 L 153.0,75.0 L 143.0,70.0 L 133.0,70.0 L 123.0,76.0 L 120.0,79.0 L 115.0,78.0 L 109.0,67.0 L 102.0,60.0 L 91.0,54.0 L 83.0,52.0 L 69.0,52.0 L 58.0,56.0 L 50.0,62.0 L 43.0,70.0 L 38.0,81.0 L 36.0,95.0 L 31.0,100.0 L 23.0,106.0 L 18.0,114.0 L 16.0,120.0 L 16.0,133.0 L 22.0,145.0 L 29.0,151.0 L 35.0,154.0 L 50.0,156.0 L 52.0,158.0 L 51.0,163.0 L 50.0,164.0 L 37.0,164.0 L 25.0,159.0 L 15.0,150.0 L 10.0,142.0 L 8.0,138.0 L 7.0,132.0 L 7.0,118.0 L 12.0,106.0 L 21.0,96.0 L 27.0,92.0 L 29.0,80.0 L 34.0,68.0 L 42.0,57.0 L 51.0,50.0 L 61.0,45.0 L 68.0,43.0" fill="#080808"/>
	<path d="M 92.0,120.0 L 105.0,120.0 L 116.0,123.0 L 125.0,128.0 L 131.0,134.0 L 133.0,128.0 L 138.0,127.0 L 140.0,128.0 L 139.0,146.0 L 137.0,152.0 L 132.0,153.0 L 114.0,150.0 L 112.0,148.0 L 113.0,143.0 L 114.0,142.0 L 126.0,143.0 L 122.0,137.0 L 112.0,131.0 L 106.0,129.0 L 93.0,129.0 L 84.0,133.0 L 76.0,139.0 L 70.0,150.0 L 69.0,155.0 L 69.0,166.0 L 73.0,176.0 L 79.0,184.0 L 88.0,189.0 L 95.0,191.0 L 105.0,191.0 L 116.0,187.0 L 124.0,181.0 L 130.0,171.0 L 131.0,170.0 L 136.0,170.0 L 137.0,171.0 L 136.0,179.0 L 129.0,188.0 L 122.0,194.0 L 112.0,199.0 L 106.0,200.0 L 94.0,200.0 L 81.0,196.0 L 72.0,189.0 L 66.0,182.0 L 61.0,172.0 L 60.0,165.0 L 60.0,152.0 L 64.0,141.0 L 71.0,132.0 L 78.0,126.0 L 88.0,121.0 L 92.0,120.0" fill="#080808"/>
</svg>
