<?xml version="1.0" ?>
<svg baseProfile="full" height="600px" version="1.1" viewBox="-20.1 -20.1 240.2 240.2" width="600px" xmlns="http://www.w3.org/2000/svg" xmlns:ev="http://www.w3.org/2001/xml-events" xmlns:xlink="http://www.w3.org/1999/xlink">
	<defs/>
	<path d="M 0.0,0.0 L 200.0,0.0 L 200.0,200.0 L 0.0,200.0 L 0.0,0.0" fill="#FDFDFD"/>
	<path d="M 18.0,60.0 L 182.0,60.0 L 184.0,62.0 L 184.0,174.0 L 182.0,176.0 L 18.0,176.0 L 16.0,174.0 L 16.0,62.0 L 18.0,60.0" fill="#FDFDFD"/>
	<path d="M 16.0,16.0 L 57.0,16.0 L 64.0,20.0 L 71.0,30.0 L 71.0,32.0 L 183.0,32.0 L 188.0,35.0 L 192.0,40.0 L 192.0,175.0 L 189.0,181.0 L 183.0,184.0 L 16.0,184.0 L 9.0,178.0 L 8.0,175.0 L 8.0,24.0 L 11.0,19.0 L 16.0,16.0 M 18.0,60.0 L 16.0,62.0 L 16.0,174.0 L 18.0,176.0 L 182.0,176.0 L 184.0,174.0 L 184.0,62.0 L 182.0,60.0 L 18.0,60.0" fill="#010101"/>
	<path d="M 18.0,24.0 L 57.0,24.0 L 64.0,35.0 L 70.0,39.0 L 182.0,40.0 L 184.0,42.0 L 184.0,53.0 L 16.0,52.0 L 16.0,26.0 L 18.0,24.0" fill="#FDFDFD"/>
</svg>
