<?xml version="1.0" ?>
<svg baseProfile="full" height="600px" version="1.1" viewBox="-12.06 -12.06 144.12 144.12" width="600px" xmlns="http://www.w3.org/2000/svg" xmlns:ev="http://www.w3.org/2001/xml-events" xmlns:xlink="http://www.w3.org/1999/xlink">
	<defs/>
	<path d="M 0.0,0.0 L 120.0,0.0 L 120.0,120.0 L 0.0,120.0 L 0.0,0.0" fill="#FCFCFC"/>
	<path d="M 18.0,37.0 L 23.0,38.0 L 24.0,39.0 L 23.0,46.0 L 21.0,54.0 L 21.0,66.0 L 24.0,76.0 L 30.0,86.0 L 38.0,93.0 L 49.0,98.0 L 52.0,99.0 L 70.0,100.0 L 71.0,105.0 L 68.0,108.0 L 51.0,108.0 L 39.0,104.0 L 29.0,97.0 L 21.0,89.0 L 13.0,73.0 L 12.0,69.0 L 12.0,51.0 L 16.0,40.0 L 18.0,37.0" fill="#080808"/>
	<path d="M 51.0,12.0 L 69.0,12.0 L 82.0,17.0 L 91.0,23.0 L 99.0,31.0 L 105.0,42.0 L 108.0,51.0 L 108.0,66.0 L 107.0,73.0 L 104.0,76.0 L 100.0,75.0 L 98.0,73.0 L 99.0,65.0 L 99.0,52.0 L 94.0,40.0 L 88.0,32.0 L 80.0,26.0 L 70.0,22.0 L 66.0,21.0 L 47.0,21.0 L 45.0,19.0 L 46.0,14.0 L 51.0,12.0" fill="#090909"/>
</svg>
