<?xml version="1.0" ?>
<svg baseProfile="full" height="600px" version="1.1" viewBox="-20.1 -20.1 240.2 240.2" width="600px" xmlns="http://www.w3.org/2000/svg" xmlns:ev="http://www.w3.org/2001/xml-events" xmlns:xlink="http://www.w3.org/1999/xlink">
	<defs/>
	<path d="M 0.0,0.0 L 200.0,0.0 L 200.0,200.0 L 0.0,200.0 L 0.0,0.0" fill="#FCFCFC"/>
	<path d="M 0.0,0.0 L 200.0,0.0 L 200.0,200.0 L 0.0,200.0 L 0.0,0.0 M 21.0,11.0 L 15.0,15.0 L 12.0,21.0 L 10.0,56.0 L 8.0,82.0 L 5.0,139.0 L 4.0,150.0 L 4.0,171.0 L 8.0,177.0 L 12.0,179.0 L 76.0,183.0 L 86.0,184.0 L 124.0,186.0 L 166.0,189.0 L 178.0,189.0 L 184.0,186.0 L 187.0,181.0 L 188.0,174.0 L 193.0,97.0 L 195.0,61.0 L 195.0,44.0 L 191.0,39.0 L 187.0,37.0 L 145.0,34.0 L 76.0,30.0 L 70.0,19.0 L 64.0,14.0 L 62.0,13.0 L 30.0,11.0 L 21.0,11.0" fill="#FBFBFB"/>
	<path d="M 21.0,11.0 L 45.0,12.0 L 62.0,13.0 L 68.0,17.0 L 74.0,26.0 L 76.0,30.0 L 113.0,32.0 L 156.0,35.0 L 187.0,37.0 L 193.0,41.0 L 195.0,44.0 L 195.0,61.0 L 193.0,97.0 L 190.0,146.0 L 188.0,174.0 L 186.0,183.0 L 181.0,188.0 L 178.0,189.0 L 166.0,189.0 L 108.0,185.0 L 86.0,184.0 L 44.0,181.0 L 12.0,179.0 L 6.0,175.0 L 4.0,171.0 L 4.0,150.0 L 6.0,118.0 L 9.0,66.0 L 11.0,38.0 L 12.0,21.0 L 16.0,14.0 L 21.0,11.0 M 21.0,55.0 L 19.0,56.0 L 17.0,74.0 L 13.0,142.0 L 12.0,157.0 L 12.0,169.0 L 14.0,171.0 L 56.0,174.0 L 125.0,178.0 L 152.0,180.0 L 177.0,181.0 L 180.0,178.0 L 182.0,145.0 L 186.0,73.0 L 186.0,67.0 L 184.0,65.0 L 74.0,58.0 L 48.0,56.0 L 21.0,55.0" fill="#0A0A0A"/>
	<path d="M 23.0,19.0 L 62.0,21.0 L 67.0,31.0 L 69.0,35.0 L 73.0,37.0 L 75.0,38.0 L 112.0,40.0 L 155.0,43.0 L 176.0,44.0 L 185.0,45.0 L 187.0,47.0 L 187.0,58.0 L 145.0,55.0 L 92.0,52.0 L 49.0,49.0 L 20.0,47.0 L 20.0,30.0 L 21.0,21.0 L 23.0,19.0" fill="#FAFAFA"/>
	<path d="M 92.0,80.0 L 105.0,80.0 L 114.0,82.0 L 122.0,86.0 L 132.0,95.0 L 137.0,103.0 L 140.0,112.0 L 140.0,126.0 L 137.0,136.0 L 131.0,146.0 L 122.0,154.0 L 118.0,156.0 L 113.0,155.0 L 112.0,150.0 L 122.0,142.0 L 127.0,136.0 L 131.0,125.0 L 131.0,113.0 L 127.0,104.0 L 121.0,96.0 L 109.0,90.0 L 106.0,89.0 L 90.0,89.0 L 88.0,87.0 L 88.0,82.0 L 92.0,80.0" fill="#080808"/>
</svg>
