<?xml version="1.0" ?>
<svg baseProfile="full" height="600px" version="1.1" viewBox="-20.1 -20.1 240.2 240.2" width="600px" xmlns="http://www.w3.org/2000/svg" xmlns:ev="http://www.w3.org/2001/xml-events" xmlns:xlink="http://www.w3.org/1999/xlink">
	<defs/>
	<path d="M 0.0,0.0 L 200.0,0.0 L 200.0,200.0 L 0.0,200.0 L 0.0,0.0" fill="#FDFDFD"/>
	<path d="M 77.0,16.0 L 125.0,16.0 L 136.0,19.0 L 144.0,25.0 L 152.0,34.0 L 155.0,41.0 L 156.0,46.0 L 156.0,124.0 L 148.0,124.0 L 147.0,46.0 L 143.0,37.0 L 137.0,30.0 L 126.0,25.0 L 77.0,24.0 L 77.0,16.0" fill="#020202"/>
	<path d="M 44.0,76.0 L 52.0,76.0 L 53.0,154.0 L 59.0,166.0 L 65.0,171.0 L 74.0,175.0 L 123.0,176.0 L 123.0,184.0 L 76.0,184.0 L 66.0,182.0 L 57.0,176.0 L 50.0,169.0 L 46.0,161.0 L 44.0,153.0 L 44.0,76.0" fill="#020202"/>
</svg>
