<?xml version="1.0" ?>
<svg baseProfile="full" height="600px" version="1.1" viewBox="-19.296000000000003 -19.296000000000003 230.592 230.592" width="600px" xmlns="http://www.w3.org/2000/svg" xmlns:ev="http://www.w3.org/2001/xml-events" xmlns:xlink="http://www.w3.org/1999/xlink">
	<defs/>
	<path d="M 0.0,0.0 L 192.0,0.0 L 192.0,192.0 L 0.0,192.0 L 0.0,0.0" fill="#FCFDFE"/>
	<path d="M 144.0,26.0 L 148.0,27.0 L 153.0,36.0 L 156.0,44.0 L 156.0,146.0 L 153.0,156.0 L 147.0,166.0 L 138.0,174.0 L 130.0,178.0 L 121.0,180.0 L 86.0,180.0 L 86.0,164.0 L 121.0,163.0 L 131.0,158.0 L 137.0,151.0 L 139.0,145.0 L 139.0,46.0 L 135.0,38.0 L 134.0,35.0 L 142.0,28.0 L 144.0,26.0" fill="#1766C0"/>
	<path d="M 68.0,12.0 L 102.0,12.0 L 102.0,28.0 L 70.0,29.0 L 62.0,33.0 L 55.0,41.0 L 53.0,46.0 L 53.0,144.0 L 56.0,154.0 L 44.0,162.0 L 42.0,162.0 L 38.0,154.0 L 36.0,145.0 L 36.0,44.0 L 40.0,33.0 L 47.0,24.0 L 54.0,18.0 L 62.0,14.0 L 68.0,12.0" fill="#1766C0"/>
</svg>
