<?xml version="1.0" ?>
<svg baseProfile="full" height="600px" version="1.1" viewBox="-20.1 -20.1 240.2 240.2" width="600px" xmlns="http://www.w3.org/2000/svg" xmlns:ev="http://www.w3.org/2001/xml-events" xmlns:xlink="http://www.w3.org/1999/xlink">
	<defs/>
	<path d="M 0.0,0.0 L 200.0,0.0 L 200.0,200.0 L 0.0,200.0 L 0.0,0.0" fill="#FDFDFD"/>
	<path d="M 76.0,16.0 L 123.0,16.0 L 123.0,24.0 L 74.0,25.0 L 62.0,31.0 L 57.0,37.0 L 53.0,46.0 L 53.0,141.0 L 73.0,121.0 L 78.0,125.0 L 77.0,129.0 L 49.0,157.0 L 45.0,155.0 L 18.0,128.0 L 19.0,124.0 L 21.0,122.0 L 25.0,123.0 L 43.0,141.0 L 44.0,48.0 L 46.0,38.0 L 52.0,29.0 L 59.0,22.0 L 69.0,17.0 L 76.0,16.0" fill="#030303"/>
	<path d="M 151.0,43.0 L 155.0,45.0 L 182.0,72.0 L 181.0,76.0 L 179.0,78.0 L 175.0,77.0 L 157.0,59.0 L 156.0,152.0 L 154.0,161.0 L 150.0,169.0 L 141.0,178.0 L 131.0,183.0 L 124.0,184.0 L 77.0,184.0 L 77.0,176.0 L 126.0,175.0 L 138.0,169.0 L 143.0,163.0 L 147.0,153.0 L 147.0,59.0 L 128.0,78.0 L 124.0,77.0 L 121.0,73.0 L 151.0,43.0" fill="#030303"/>
</svg>
