<?xml version="1.0" ?>
<svg baseProfile="full" height="600px" version="1.1" viewBox="-12.06 -12.06 144.12 144.12" width="600px" xmlns="http://www.w3.org/2000/svg" xmlns:ev="http://www.w3.org/2001/xml-events" xmlns:xlink="http://www.w3.org/1999/xlink">
	<defs/>
	<path d="M 0.0,0.0 L 120.0,0.0 L 120.0,120.0 L 0.0,120.0 L 0.0,0.0" fill="#FCFCFC"/>
	<path d="M 14.0,56.0 L 19.0,57.0 L 20.0,58.0 L 23.0,74.0 L 29.0,85.0 L 38.0,93.0 L 49.0,98.0 L 52.0,99.0 L 65.0,99.0 L 76.0,96.0 L 80.0,97.0 L 82.0,99.0 L 81.0,103.0 L 73.0,107.0 L 66.0,108.0 L 51.0,108.0 L 39.0,104.0 L 29.0,97.0 L 21.0,89.0 L 13.0,73.0 L 12.0,69.0 L 12.0,58.0 L 14.0,56.0" fill="#090909"/>
	<path d="M 51.0,12.0 L 69.0,12.0 L 82.0,17.0 L 91.0,23.0 L 99.0,31.0 L 105.0,42.0 L 108.0,51.0 L 108.0,65.0 L 106.0,67.0 L 101.0,66.0 L 100.0,65.0 L 99.0,52.0 L 94.0,40.0 L 88.0,32.0 L 80.0,26.0 L 70.0,22.0 L 66.0,21.0 L 50.0,21.0 L 48.0,19.0 L 49.0,14.0 L 51.0,12.0" fill="#080808"/>
</svg>
