<?xml version="1.0" ?>
<svg baseProfile="full" height="600px" version="1.1" viewBox="-20.1 -20.1 240.2 240.2" width="600px" xmlns="http://www.w3.org/2000/svg" xmlns:ev="http://www.w3.org/2001/xml-events" xmlns:xlink="http://www.w3.org/1999/xlink">
	<defs/>
	<path d="M 0.0,0.0 L 200.0,0.0 L 200.0,200.0 L 0.0,200.0 L 0.0,0.0" fill="#FDFDFD"/>
	<path d="M 108.0,27.0 L 113.0,27.0 L 139.0,53.0 L 147.0,60.0 L 173.0,86.0 L 172.0,91.0 L 157.0,106.0 L 152.0,111.0 L 143.0,116.0 L 125.0,116.0 L 113.0,113.0 L 115.0,118.0 L 117.0,127.0 L 117.0,141.0 L 113.0,150.0 L 106.0,158.0 L 92.0,173.0 L 87.0,173.0 L 61.0,147.0 L 53.0,140.0 L 27.0,114.0 L 28.0,109.0 L 41.0,96.0 L 42.0,94.0 L 44.0,94.0 L 44.0,92.0 L 52.0,86.0 L 57.0,84.0 L 73.0,84.0 L 86.0,86.0 L 83.0,72.0 L 83.0,58.0 L 88.0,48.0 L 96.0,40.0 L 103.0,32.0 L 108.0,27.0" fill="#FCFCFC"/>
	<path d="M 108.0,27.0 L 113.0,27.0 L 139.0,53.0 L 147.0,60.0 L 173.0,86.0 L 172.0,91.0 L 157.0,106.0 L 152.0,111.0 L 143.0,116.0 L 125.0,116.0 L 113.0,113.0 L 115.0,118.0 L 117.0,127.0 L 117.0,141.0 L 113.0,150.0 L 106.0,158.0 L 92.0,173.0 L 87.0,173.0 L 61.0,147.0 L 53.0,140.0 L 27.0,114.0 L 28.0,109.0 L 41.0,96.0 L 42.0,94.0 L 44.0,94.0 L 44.0,92.0 L 52.0,86.0 L 57.0,84.0 L 73.0,84.0 L 86.0,86.0 L 83.0,72.0 L 83.0,58.0 L 88.0,48.0 L 96.0,40.0 L 103.0,32.0 L 108.0,27.0 M 110.0,35.0 L 93.0,52.0 L 89.0,61.0 L 89.0,70.0 L 93.0,87.0 L 93.0,93.0 L 85.0,93.0 L 70.0,90.0 L 61.0,90.0 L 53.0,93.0 L 35.0,111.0 L 37.0,115.0 L 53.0,131.0 L 61.0,138.0 L 88.0,165.0 L 92.0,163.0 L 107.0,148.0 L 111.0,139.0 L 111.0,130.0 L 107.0,113.0 L 107.0,107.0 L 119.0,108.0 L 128.0,110.0 L 139.0,110.0 L 148.0,106.0 L 165.0,89.0 L 163.0,85.0 L 147.0,69.0 L 139.0,62.0 L 112.0,35.0 L 110.0,35.0" fill="#0A0A0A"/>
</svg>
