<?xml version="1.0" ?>
<svg baseProfile="full" height="600px" version="1.1" viewBox="-12.06 -12.06 144.12 144.12" width="600px" xmlns="http://www.w3.org/2000/svg" xmlns:ev="http://www.w3.org/2001/xml-events" xmlns:xlink="http://www.w3.org/1999/xlink">
	<defs/>
	<path d="M 0.0,0.0 L 120.0,0.0 L 120.0,120.0 L 0.0,120.0 L 0.0,0.0" fill="#FCFCFC"/>
	<path d="M 37.0,17.0 L 43.0,18.0 L 43.0,24.0 L 33.0,31.0 L 27.0,38.0 L 22.0,49.0 L 21.0,54.0 L 21.0,66.0 L 25.0,78.0 L 31.0,87.0 L 31.0,92.0 L 30.0,93.0 L 25.0,93.0 L 19.0,86.0 L 13.0,73.0 L 12.0,69.0 L 12.0,51.0 L 17.0,37.0 L 24.0,28.0 L 31.0,21.0 L 37.0,17.0" fill="#080808"/>
	<path d="M 94.0,30.0 L 99.0,31.0 L 107.0,47.0 L 108.0,55.0 L 108.0,66.0 L 106.0,75.0 L 99.0,89.0 L 89.0,99.0 L 84.0,99.0 L 82.0,97.0 L 83.0,92.0 L 91.0,85.0 L 97.0,73.0 L 99.0,65.0 L 99.0,52.0 L 94.0,40.0 L 92.0,37.0 L 92.0,32.0 L 94.0,30.0" fill="#070707"/>
</svg>
