<?xml version="1.0" ?>
<svg baseProfile="full" height="600px" version="1.1" viewBox="-19.296000000000003 -19.296000000000003 230.592 230.592" width="600px" xmlns="http://www.w3.org/2000/svg" xmlns:ev="http://www.w3.org/2001/xml-events" xmlns:xlink="http://www.w3.org/1999/xlink">
	<defs/>
	<path d="M 0.0,0.0 L 192.0,0.0 L 192.0,192.0 L 0.0,192.0 L 0.0,0.0" fill="#FCFDFE"/>
	<path d="M 86.0,16.0 L 105.0,16.0 L 122.0,20.0 L 136.0,26.0 L 147.0,34.0 L 155.0,41.0 L 164.0,53.0 L 172.0,69.0 L 175.0,80.0 L 176.0,87.0 L 176.0,100.0 L 165.0,100.0 L 160.0,99.0 L 158.0,81.0 L 153.0,68.0 L 147.0,58.0 L 138.0,48.0 L 128.0,41.0 L 114.0,35.0 L 102.0,33.0 L 88.0,33.0 L 72.0,37.0 L 59.0,44.0 L 47.0,55.0 L 39.0,68.0 L 35.0,78.0 L 33.0,87.0 L 33.0,102.0 L 35.0,113.0 L 40.0,126.0 L 46.0,135.0 L 54.0,144.0 L 64.0,151.0 L 75.0,156.0 L 88.0,159.0 L 103.0,159.0 L 113.0,157.0 L 126.0,152.0 L 128.0,151.0 L 127.0,147.0 L 126.0,143.0 L 155.0,136.0 L 161.0,134.0 L 165.0,135.0 L 150.0,164.0 L 145.0,172.0 L 141.0,167.0 L 140.0,164.0 L 125.0,171.0 L 106.0,176.0 L 85.0,176.0 L 69.0,172.0 L 53.0,164.0 L 44.0,157.0 L 37.0,151.0 L 28.0,139.0 L 21.0,125.0 L 16.0,107.0 L 16.0,89.0 L 18.0,76.0 L 23.0,62.0 L 30.0,50.0 L 38.0,40.0 L 47.0,32.0 L 60.0,24.0 L 72.0,19.0 L 86.0,16.0" fill="#2598F3"/>
</svg>
