<?xml version="1.0" ?>
<svg baseProfile="full" height="600px" version="1.1" viewBox="-19.296000000000003 -19.296000000000003 230.592 230.592" width="600px" xmlns="http://www.w3.org/2000/svg" xmlns:ev="http://www.w3.org/2001/xml-events" xmlns:xlink="http://www.w3.org/1999/xlink">
	<defs/>
	<path d="M 0.0,0.0 L 192.0,0.0 L 192.0,192.0 L 0.0,192.0 L 0.0,0.0" fill="#FCFEFE"/>
	<path d="M 92.0,6.0 L 95.0,6.0 L 95.0,16.0 L 105.0,16.0 L 122.0,20.0 L 134.0,25.0 L 146.0,33.0 L 154.0,40.0 L 162.0,50.0 L 170.0,64.0 L 175.0,79.0 L 176.0,85.0 L 176.0,106.0 L 172.0,122.0 L 167.0,134.0 L 159.0,146.0 L 152.0,154.0 L 142.0,162.0 L 128.0,170.0 L 111.0,175.0 L 106.0,176.0 L 86.0,176.0 L 69.0,172.0 L 53.0,164.0 L 44.0,157.0 L 38.0,152.0 L 30.0,142.0 L 23.0,130.0 L 18.0,115.0 L 16.0,105.0 L 16.0,89.0 L 19.0,72.0 L 24.0,60.0 L 30.0,51.0 L 37.0,55.0 L 43.0,59.0 L 41.0,64.0 L 37.0,72.0 L 33.0,87.0 L 33.0,106.0 L 39.0,124.0 L 46.0,135.0 L 54.0,144.0 L 68.0,153.0 L 78.0,157.0 L 86.0,159.0 L 103.0,159.0 L 113.0,157.0 L 126.0,152.0 L 139.0,143.0 L 147.0,134.0 L 154.0,122.0 L 158.0,110.0 L 159.0,103.0 L 159.0,86.0 L 154.0,70.0 L 147.0,58.0 L 138.0,48.0 L 124.0,39.0 L 110.0,34.0 L 96.0,32.0 L 96.0,40.0 L 86.0,37.0 L 59.0,29.0 L 57.0,27.0 L 86.0,10.0 L 92.0,6.0" fill="#2598F3"/>
</svg>
