<?xml version="1.0" ?>
<svg baseProfile="full" height="600px" version="1.1" viewBox="-19.296000000000003 -19.296000000000003 230.592 230.592" width="600px" xmlns="http://www.w3.org/2000/svg" xmlns:ev="http://www.w3.org/2001/xml-events" xmlns:xlink="http://www.w3.org/1999/xlink">
	<defs/>
	<path d="M 0.0,0.0 L 192.0,0.0 L 192.0,192.0 L 0.0,192.0 L 0.0,0.0" fill="#FDFDFC"/>
	<path d="M 84.0,16.0 L 105.0,16.0 L 121.0,20.0 L 133.0,25.0 L 144.0,32.0 L 156.0,43.0 L 162.0,51.0 L 162.0,53.0 L 179.0,44.0 L 180.0,46.0 L 171.0,75.0 L 168.0,84.0 L 152.0,78.0 L 132.0,70.0 L 135.0,67.0 L 147.0,61.0 L 145.0,56.0 L 135.0,46.0 L 121.0,38.0 L 108.0,34.0 L 104.0,33.0 L 87.0,33.0 L 72.0,37.0 L 59.0,44.0 L 47.0,55.0 L 40.0,66.0 L 35.0,78.0 L 33.0,86.0 L 33.0,102.0 L 35.0,113.0 L 40.0,126.0 L 47.0,137.0 L 55.0,145.0 L 66.0,152.0 L 78.0,157.0 L 86.0,159.0 L 105.0,159.0 L 116.0,156.0 L 127.0,151.0 L 136.0,145.0 L 145.0,136.0 L 153.0,123.0 L 154.0,120.0 L 158.0,121.0 L 168.0,125.0 L 169.0,129.0 L 161.0,143.0 L 150.0,155.0 L 142.0,162.0 L 132.0,168.0 L 119.0,173.0 L 106.0,176.0 L 85.0,176.0 L 69.0,172.0 L 53.0,164.0 L 45.0,158.0 L 36.0,150.0 L 28.0,139.0 L 21.0,125.0 L 17.0,112.0 L 16.0,105.0 L 16.0,88.0 L 18.0,75.0 L 24.0,60.0 L 30.0,50.0 L 38.0,40.0 L 47.0,32.0 L 58.0,25.0 L 69.0,20.0 L 84.0,16.0" fill="#7EB445"/>
</svg>
