<?xml version="1.0" ?>
<svg baseProfile="full" height="600px" version="1.1" viewBox="-19.296000000000003 -19.296000000000003 230.592 230.592" width="600px" xmlns="http://www.w3.org/2000/svg" xmlns:ev="http://www.w3.org/2001/xml-events" xmlns:xlink="http://www.w3.org/1999/xlink">
	<defs/>
	<path d="M 0.0,0.0 L 192.0,0.0 L 192.0,192.0 L 0.0,192.0 L 0.0,0.0" fill="#FDFEFE"/>
	<path d="M 0.0,95.0 L 2.0,95.0 L 9.0,103.0 L 29.0,123.0 L 30.0,104.0 L 162.0,104.0 L 163.0,123.0 L 189.0,97.0 L 192.0,96.0 L 192.0,192.0 L 0.0,192.0 L 0.0,95.0" fill="#FDFEFE"/>
	<path d="M 29.0,68.0 L 30.0,68.0 L 30.0,88.0 L 162.0,88.0 L 162.0,68.0 L 169.0,74.0 L 190.0,95.0 L 188.0,99.0 L 163.0,124.0 L 162.0,124.0 L 162.0,104.0 L 30.0,104.0 L 30.0,124.0 L 23.0,118.0 L 2.0,97.0 L 4.0,93.0 L 29.0,68.0" fill="#2497F3"/>
</svg>
