<?xml version="1.0" ?>
<svg baseProfile="full" height="600px" version="1.1" viewBox="-19.296000000000003 -19.296000000000003 230.592 230.592" width="600px" xmlns="http://www.w3.org/2000/svg" xmlns:ev="http://www.w3.org/2001/xml-events" xmlns:xlink="http://www.w3.org/1999/xlink">
	<defs/>
	<path d="M 0.0,0.0 L 192.0,0.0 L 192.0,192.0 L 0.0,192.0 L 0.0,0.0" fill="#FDFEFE"/>
	<path d="M 97.0,0.0 L 192.0,0.0 L 192.0,192.0 L 97.0,192.0 L 99.0,188.0 L 123.0,164.0 L 104.0,163.0 L 104.0,29.0 L 123.0,28.0 L 97.0,2.0 L 97.0,0.0" fill="#FDFEFE"/>
	<path d="M 95.0,1.0 L 99.0,3.0 L 124.0,28.0 L 124.0,29.0 L 104.0,29.0 L 104.0,163.0 L 124.0,163.0 L 118.0,170.0 L 97.0,191.0 L 93.0,189.0 L 68.0,164.0 L 68.0,163.0 L 88.0,163.0 L 88.0,29.0 L 68.0,29.0 L 74.0,22.0 L 95.0,1.0" fill="#2497F3"/>
</svg>
