<?xml version="1.0" ?>
<svg baseProfile="full" height="600px" version="1.1" viewBox="-20.1 -20.1 240.2 240.2" width="600px" xmlns="http://www.w3.org/2000/svg" xmlns:ev="http://www.w3.org/2001/xml-events" xmlns:xlink="http://www.w3.org/1999/xlink">
	<defs/>
	<path d="M 0.0,0.0 L 200.0,0.0 L 200.0,200.0 L 0.0,200.0 L 0.0,0.0" fill="#FCFCFC"/>
	<path d="M 0.0,0.0 L 200.0,0.0 L 200.0,200.0 L 0.0,200.0 L 0.0,0.0 M 32.0,16.0 L 25.0,19.0 L 20.0,23.0 L 16.0,31.0 L 16.0,169.0 L 20.0,177.0 L 28.0,183.0 L 31.0,184.0 L 169.0,184.0 L 177.0,180.0 L 183.0,172.0 L 184.0,169.0 L 184.0,31.0 L 180.0,23.0 L 172.0,17.0 L 169.0,16.0 L 32.0,16.0" fill="#FDFDFD"/>
	<path d="M 76.0,49.0 L 151.0,49.0 L 155.0,53.0 L 155.0,119.0 L 150.0,124.0 L 77.0,124.0 L 72.0,119.0 L 72.0,53.0 L 76.0,49.0" fill="#090909"/>
	<path d="M 32.0,16.0 L 169.0,16.0 L 177.0,20.0 L 183.0,28.0 L 184.0,31.0 L 184.0,169.0 L 180.0,177.0 L 174.0,182.0 L 169.0,184.0 L 31.0,184.0 L 23.0,180.0 L 17.0,172.0 L 16.0,169.0 L 16.0,31.0 L 20.0,23.0 L 28.0,17.0 L 32.0,16.0 M 32.0,24.0 L 25.0,30.0 L 24.0,32.0 L 24.0,167.0 L 27.0,172.0 L 32.0,176.0 L 168.0,176.0 L 175.0,170.0 L 176.0,168.0 L 176.0,32.0 L 170.0,25.0 L 167.0,24.0 L 32.0,24.0" fill="#020202"/>
	<path d="M 80.0,73.0 L 147.0,73.0 L 147.0,116.0 L 80.0,116.0 L 80.0,73.0" fill="#FCFCFC"/>
	<path d="M 52.0,80.0 L 67.0,80.0 L 67.0,88.0 L 56.0,88.0 L 56.0,96.0 L 67.0,96.0 L 67.0,104.0 L 56.0,104.0 L 56.0,142.0 L 120.0,142.0 L 120.0,128.0 L 128.0,128.0 L 128.0,145.0 L 123.0,150.0 L 53.0,150.0 L 48.0,145.0 L 48.0,85.0 L 52.0,80.0" fill="#030303"/>
	<path d="M 79.0,57.0 L 148.0,57.0 L 148.0,65.0 L 79.0,65.0 L 79.0,57.0" fill="#EDEDED"/>
</svg>
