<?xml version="1.0" ?>
<svg baseProfile="full" height="600px" version="1.1" viewBox="-9.648000000000001 -9.648000000000001 115.296 115.296" width="600px" xmlns="http://www.w3.org/2000/svg" xmlns:ev="http://www.w3.org/2001/xml-events" xmlns:xlink="http://www.w3.org/1999/xlink">
	<defs/>
	<path d="M 0.0,0.0 L 96.0,0.0 L 96.0,96.0 L 0.0,96.0 L 0.0,0.0" fill="#FCFCFC"/>
	<path d="M 40.0,8.0 L 53.0,8.0 L 64.0,11.0 L 74.0,17.0 L 82.0,26.0 L 86.0,34.0 L 88.0,40.0 L 88.0,54.0 L 86.0,62.0 L 80.0,73.0 L 73.0,80.0 L 64.0,85.0 L 62.0,85.0 L 63.0,92.0 L 54.0,92.0 L 38.0,89.0 L 44.0,82.0 L 55.0,71.0 L 57.0,71.0 L 60.0,77.0 L 70.0,71.0 L 76.0,62.0 L 79.0,53.0 L 79.0,43.0 L 76.0,34.0 L 70.0,25.0 L 60.0,19.0 L 54.0,17.0 L 41.0,17.0 L 32.0,21.0 L 24.0,27.0 L 23.0,29.0 L 19.0,28.0 L 16.0,26.0 L 17.0,22.0 L 26.0,14.0 L 34.0,10.0 L 40.0,8.0" fill="#070707"/>
</svg>
