<?xml version="1.0" ?>
<svg baseProfile="full" height="600px" version="1.1" viewBox="-9.648000000000001 -9.648000000000001 115.296 115.296" width="600px" xmlns="http://www.w3.org/2000/svg" xmlns:ev="http://www.w3.org/2001/xml-events" xmlns:xlink="http://www.w3.org/1999/xlink">
	<defs/>
	<path d="M 0.0,0.0 L 96.0,0.0 L 96.0,96.0 L 0.0,96.0 L 0.0,0.0" fill="#FBFBFB"/>
	<path d="M 58.0,10.0 L 64.0,11.0 L 73.0,16.0 L 80.0,23.0 L 85.0,31.0 L 88.0,40.0 L 88.0,54.0 L 86.0,62.0 L 80.0,73.0 L 73.0,80.0 L 64.0,85.0 L 60.0,87.0 L 54.0,88.0 L 40.0,88.0 L 29.0,84.0 L 20.0,77.0 L 14.0,70.0 L 10.0,62.0 L 8.0,53.0 L 8.0,40.0 L 12.0,29.0 L 14.0,26.0 L 9.0,24.0 L 8.0,22.0 L 28.0,11.0 L 30.0,11.0 L 30.0,20.0 L 28.0,36.0 L 23.0,33.0 L 20.0,33.0 L 17.0,41.0 L 17.0,54.0 L 22.0,66.0 L 26.0,71.0 L 33.0,76.0 L 41.0,79.0 L 53.0,79.0 L 64.0,75.0 L 71.0,70.0 L 77.0,60.0 L 79.0,53.0 L 79.0,41.0 L 75.0,32.0 L 69.0,24.0 L 56.0,17.0 L 58.0,10.0" fill="#070707"/>
</svg>
