<?xml version="1.0" ?>
<svg baseProfile="full" height="600px" version="1.1" viewBox="-20.1 -20.1 240.2 240.2" width="600px" xmlns="http://www.w3.org/2000/svg" xmlns:ev="http://www.w3.org/2001/xml-events" xmlns:xlink="http://www.w3.org/1999/xlink">
	<defs/>
	<path d="M 0.0,0.0 L 200.0,0.0 L 200.0,200.0 L 0.0,200.0 L 0.0,0.0" fill="#FCFCFC"/>
	<path d="M 0.0,0.0 L 200.0,0.0 L 200.0,200.0 L 0.0,200.0 L 0.0,0.0 M 32.0,16.0 L 25.0,19.0 L 20.0,23.0 L 16.0,31.0 L 16.0,169.0 L 20.0,177.0 L 28.0,183.0 L 31.0,184.0 L 169.0,184.0 L 177.0,180.0 L 183.0,172.0 L 184.0,169.0 L 184.0,31.0 L 180.0,23.0 L 172.0,17.0 L 169.0,16.0 L 32.0,16.0" fill="#FDFDFD"/>
	<path d="M 80.0,48.0 L 150.0,48.0 L 156.0,53.0 L 156.0,115.0 L 153.0,120.0 L 151.0,121.0 L 80.0,121.0 L 75.0,116.0 L 75.0,53.0 L 80.0,48.0" fill="#040404"/>
	<path d="M 32.0,16.0 L 169.0,16.0 L 177.0,20.0 L 183.0,28.0 L 184.0,31.0 L 184.0,169.0 L 180.0,177.0 L 174.0,182.0 L 169.0,184.0 L 31.0,184.0 L 23.0,180.0 L 17.0,172.0 L 16.0,169.0 L 16.0,31.0 L 20.0,23.0 L 28.0,17.0 L 32.0,16.0 M 32.0,24.0 L 25.0,30.0 L 24.0,32.0 L 24.0,167.0 L 27.0,172.0 L 32.0,176.0 L 168.0,176.0 L 175.0,170.0 L 176.0,168.0 L 176.0,32.0 L 170.0,25.0 L 167.0,24.0 L 32.0,24.0" fill="#020202"/>
	<path d="M 83.0,72.0 L 148.0,72.0 L 148.0,113.0 L 83.0,113.0 L 83.0,72.0" fill="#FCFCFC"/>
	<path d="M 53.0,80.0 L 70.0,80.0 L 70.0,88.0 L 56.0,88.0 L 56.0,96.0 L 71.0,96.0 L 71.0,104.0 L 56.0,104.0 L 56.0,143.0 L 120.0,143.0 L 120.0,125.0 L 128.0,125.0 L 128.0,146.0 L 124.0,151.0 L 52.0,151.0 L 48.0,146.0 L 48.0,85.0 L 53.0,80.0" fill="#060606"/>
	<path d="M 83.0,56.0 L 148.0,56.0 L 148.0,64.0 L 83.0,64.0 L 83.0,56.0" fill="#F7F7F7"/>
</svg>
