<?xml version="1.0" ?>
<svg baseProfile="full" height="600px" version="1.1" viewBox="-12.864 -12.864 153.728 153.728" width="600px" xmlns="http://www.w3.org/2000/svg" xmlns:ev="http://www.w3.org/2001/xml-events" xmlns:xlink="http://www.w3.org/1999/xlink">
	<defs/>
	<path d="M 0.0,0.0 L 128.0,0.0 L 128.0,128.0 L 0.0,128.0 L 0.0,0.0" fill="#FDFDFD"/>
	<path d="M 80.0,22.0 L 85.0,22.0 L 115.0,52.0 L 114.0,57.0 L 89.0,82.0 L 95.0,89.0 L 96.0,90.0 L 96.0,95.0 L 66.0,125.0 L 61.0,124.0 L 3.0,66.0 L 4.0,61.0 L 33.0,32.0 L 38.0,32.0 L 53.0,47.0 L 57.0,45.0 L 80.0,22.0" fill="#090909"/>
	<path d="M 63.0,70.0 L 67.0,72.0 L 86.0,91.0 L 84.0,95.0 L 65.0,114.0 L 61.0,112.0 L 44.0,95.0 L 42.0,94.0 L 43.0,90.0 L 63.0,70.0" fill="#F9F9F9"/>
	<path d="M 35.0,42.0 L 39.0,44.0 L 58.0,63.0 L 56.0,67.0 L 37.0,86.0 L 33.0,84.0 L 14.0,65.0 L 16.0,61.0 L 35.0,42.0" fill="#F9F9F9"/>
	<path d="M 81.0,32.0 L 85.0,34.0 L 104.0,53.0 L 102.0,57.0 L 83.0,76.0 L 79.0,74.0 L 68.0,63.0 L 63.0,58.0 L 60.0,55.0 L 62.0,51.0 L 81.0,32.0" fill="#F9F9F9"/>
</svg>
