<?xml version="1.0" ?>
<svg baseProfile="full" height="600px" version="1.1" viewBox="-19.296000000000003 -19.296000000000003 230.592 230.592" width="600px" xmlns="http://www.w3.org/2000/svg" xmlns:ev="http://www.w3.org/2001/xml-events" xmlns:xlink="http://www.w3.org/1999/xlink">
	<defs/>
	<path d="M 0.0,0.0 L 192.0,0.0 L 192.0,192.0 L 0.0,192.0 L 0.0,0.0" fill="#FDFDFD"/>
	<path d="M 158.0,22.0 L 166.0,22.0 L 165.0,35.0 L 160.0,54.0 L 155.0,67.0 L 111.0,111.0 L 106.0,138.0 L 105.0,146.0 L 86.0,165.0 L 84.0,165.0 L 76.0,147.0 L 71.0,152.0 L 58.0,153.0 L 53.0,157.0 L 44.0,160.0 L 34.0,162.0 L 26.0,162.0 L 26.0,153.0 L 30.0,137.0 L 34.0,131.0 L 35.0,130.0 L 36.0,117.0 L 41.0,112.0 L 23.0,104.0 L 25.0,100.0 L 42.0,83.0 L 77.0,77.0 L 121.0,33.0 L 136.0,27.0 L 158.0,22.0" fill="#D0C2E8"/>
	<path d="M 72.0,78.0 L 76.0,79.0 L 44.0,111.0 L 37.0,110.0 L 23.0,104.0 L 25.0,100.0 L 42.0,83.0 L 72.0,78.0" fill="#825CC3"/>
	<path d="M 109.0,112.0 L 110.0,116.0 L 105.0,146.0 L 86.0,165.0 L 84.0,165.0 L 77.0,149.0 L 78.0,144.0 L 107.0,115.0 L 109.0,112.0" fill="#815AC2"/>
	<path d="M 36.0,129.0 L 43.0,135.0 L 59.0,151.0 L 55.0,156.0 L 49.0,159.0 L 34.0,162.0 L 26.0,162.0 L 26.0,153.0 L 30.0,137.0 L 34.0,131.0 L 36.0,129.0" fill="#FE4406"/>
	<path d="M 37.0,119.0 L 41.0,121.0 L 70.0,150.0 L 70.0,151.0 L 58.0,151.0 L 37.0,130.0 L 37.0,119.0" fill="#845BBD"/>
	<path d="M 76.0,101.0 L 82.0,101.0 L 87.0,106.0 L 87.0,112.0 L 84.0,116.0 L 76.0,117.0 L 71.0,112.0 L 71.0,106.0 L 76.0,101.0" fill="#372195"/>
	<path d="M 116.0,61.0 L 123.0,62.0 L 127.0,67.0 L 126.0,74.0 L 122.0,77.0 L 115.0,77.0 L 111.0,73.0 L 111.0,66.0 L 116.0,61.0" fill="#382295"/>
	<path d="M 96.0,81.0 L 103.0,82.0 L 107.0,86.0 L 106.0,94.0 L 102.0,97.0 L 95.0,97.0 L 91.0,92.0 L 91.0,86.0 L 96.0,81.0" fill="#372195"/>
	<path d="M 158.0,22.0 L 166.0,22.0 L 165.0,35.0 L 164.0,40.0 L 160.0,38.0 L 148.0,26.0 L 148.0,24.0 L 158.0,22.0" fill="#8560C4"/>
	<path d="M 42.0,135.0 L 49.0,141.0 L 53.0,146.0 L 49.0,150.0 L 46.0,151.0 L 37.0,151.0 L 37.0,142.0 L 40.0,136.0 L 42.0,135.0" fill="#FEE739"/>
</svg>
