<?xml version="1.0" ?>
<svg baseProfile="full" height="600px" version="1.1" viewBox="-19.296000000000003 -19.296000000000003 230.592 230.592" width="600px" xmlns="http://www.w3.org/2000/svg" xmlns:ev="http://www.w3.org/2001/xml-events" xmlns:xlink="http://www.w3.org/1999/xlink">
	<defs/>
	<path d="M 0.0,0.0 L 192.0,0.0 L 192.0,192.0 L 0.0,192.0 L 0.0,0.0" fill="#FDFDFD"/>
	<path d="M 156.0,17.0 L 162.0,17.0 L 160.0,36.0 L 154.0,58.0 L 149.0,66.0 L 134.0,82.0 L 118.0,99.0 L 110.0,108.0 L 108.0,114.0 L 105.0,137.0 L 103.0,145.0 L 88.0,160.0 L 86.0,163.0 L 84.0,163.0 L 76.0,146.0 L 72.0,148.0 L 70.0,150.0 L 58.0,150.0 L 56.0,154.0 L 52.0,157.0 L 36.0,162.0 L 25.0,163.0 L 26.0,146.0 L 29.0,136.0 L 33.0,130.0 L 34.0,129.0 L 35.0,117.0 L 39.0,112.0 L 31.0,108.0 L 21.0,104.0 L 23.0,100.0 L 39.0,83.0 L 40.0,82.0 L 65.0,77.0 L 74.0,75.0 L 85.0,63.0 L 95.0,53.0 L 102.0,45.0 L 116.0,30.0 L 127.0,25.0 L 147.0,19.0 L 156.0,17.0" fill="#D0C2E8"/>
	<path d="M 65.0,77.0 L 72.0,77.0 L 66.0,84.0 L 54.0,97.0 L 41.0,111.0 L 36.0,110.0 L 21.0,104.0 L 23.0,100.0 L 39.0,83.0 L 40.0,82.0 L 65.0,77.0" fill="#815BC2"/>
	<path d="M 107.0,110.0 L 108.0,114.0 L 105.0,137.0 L 103.0,145.0 L 88.0,160.0 L 86.0,163.0 L 84.0,163.0 L 76.0,146.0 L 77.0,142.0 L 91.0,127.0 L 107.0,110.0" fill="#815AC2"/>
	<path d="M 34.0,129.0 L 38.0,130.0 L 50.0,142.0 L 58.0,149.0 L 57.0,153.0 L 52.0,157.0 L 36.0,162.0 L 25.0,163.0 L 26.0,146.0 L 29.0,136.0 L 33.0,130.0 L 34.0,129.0" fill="#FD4306"/>
	<path d="M 35.0,117.0 L 42.0,123.0 L 55.0,135.0 L 65.0,145.0 L 70.0,150.0 L 58.0,150.0 L 41.0,134.0 L 35.0,129.0 L 35.0,117.0" fill="#835CC0"/>
	<path d="M 74.0,99.0 L 80.0,99.0 L 85.0,104.0 L 85.0,110.0 L 80.0,115.0 L 74.0,115.0 L 69.0,110.0 L 69.0,104.0 L 74.0,99.0" fill="#372195"/>
	<path d="M 93.0,79.0 L 100.0,79.0 L 104.0,83.0 L 104.0,90.0 L 99.0,95.0 L 92.0,94.0 L 88.0,89.0 L 89.0,82.0 L 93.0,79.0" fill="#372295"/>
	<path d="M 113.0,58.0 L 120.0,59.0 L 123.0,62.0 L 123.0,70.0 L 119.0,74.0 L 112.0,74.0 L 108.0,70.0 L 107.0,64.0 L 111.0,59.0 L 113.0,58.0" fill="#372295"/>
	<path d="M 40.0,135.0 L 44.0,136.0 L 52.0,143.0 L 51.0,147.0 L 48.0,150.0 L 45.0,151.0 L 36.0,151.0 L 36.0,141.0 L 39.0,136.0 L 40.0,135.0" fill="#FEE63A"/>
	<path d="M 156.0,17.0 L 162.0,17.0 L 161.0,29.0 L 159.0,35.0 L 153.0,31.0 L 144.0,22.0 L 144.0,20.0 L 156.0,17.0" fill="#845EC4"/>
</svg>
