<?xml version="1.0" ?>
<svg baseProfile="full" height="600px" version="1.1" viewBox="-20.1 -20.1 240.2 240.2" width="600px" xmlns="http://www.w3.org/2000/svg" xmlns:ev="http://www.w3.org/2001/xml-events" xmlns:xlink="http://www.w3.org/1999/xlink">
	<defs/>
	<path d="M 0.0,0.0 L 200.0,0.0 L 200.0,200.0 L 0.0,200.0 L 0.0,0.0" fill="#FCFCFC"/>
	<path d="M 190.0,0.0 L 200.0,0.0 L 200.0,10.0 L 197.0,29.0 L 190.0,52.0 L 181.0,71.0 L 172.0,83.0 L 166.0,90.0 L 158.0,97.0 L 144.0,110.0 L 133.0,119.0 L 125.0,126.0 L 124.0,161.0 L 119.0,167.0 L 108.0,176.0 L 98.0,184.0 L 93.0,184.0 L 90.0,176.0 L 86.0,160.0 L 86.0,158.0 L 77.0,160.0 L 64.0,168.0 L 57.0,168.0 L 48.0,162.0 L 36.0,150.0 L 32.0,143.0 L 32.0,136.0 L 40.0,123.0 L 42.0,114.0 L 24.0,110.0 L 16.0,107.0 L 16.0,102.0 L 27.0,89.0 L 36.0,78.0 L 39.0,76.0 L 74.0,75.0 L 83.0,65.0 L 92.0,54.0 L 106.0,39.0 L 111.0,33.0 L 122.0,24.0 L 133.0,17.0 L 145.0,11.0 L 159.0,6.0 L 175.0,2.0 L 190.0,0.0" fill="#FBFBFB"/>
	<path d="M 190.0,0.0 L 200.0,0.0 L 200.0,10.0 L 197.0,29.0 L 190.0,52.0 L 181.0,71.0 L 172.0,83.0 L 166.0,90.0 L 158.0,97.0 L 144.0,110.0 L 133.0,119.0 L 125.0,126.0 L 124.0,161.0 L 119.0,167.0 L 108.0,176.0 L 98.0,184.0 L 93.0,184.0 L 90.0,176.0 L 86.0,160.0 L 86.0,158.0 L 77.0,160.0 L 64.0,168.0 L 57.0,168.0 L 48.0,162.0 L 36.0,150.0 L 32.0,143.0 L 32.0,136.0 L 40.0,123.0 L 42.0,114.0 L 24.0,110.0 L 16.0,107.0 L 16.0,102.0 L 27.0,89.0 L 36.0,78.0 L 39.0,76.0 L 74.0,75.0 L 83.0,65.0 L 92.0,54.0 L 106.0,39.0 L 111.0,33.0 L 122.0,24.0 L 133.0,17.0 L 145.0,11.0 L 159.0,6.0 L 175.0,2.0 L 190.0,0.0 M 184.0,9.0 L 164.0,13.0 L 147.0,19.0 L 130.0,28.0 L 119.0,37.0 L 107.0,49.0 L 100.0,57.0 L 88.0,71.0 L 77.0,84.0 L 66.0,98.0 L 55.0,111.0 L 49.0,119.0 L 50.0,125.0 L 57.0,134.0 L 69.0,146.0 L 77.0,151.0 L 82.0,150.0 L 92.0,142.0 L 108.0,129.0 L 119.0,120.0 L 132.0,109.0 L 146.0,97.0 L 159.0,85.0 L 166.0,78.0 L 173.0,68.0 L 181.0,53.0 L 187.0,35.0 L 190.0,22.0 L 191.0,9.0 L 184.0,9.0" fill="#090909"/>
	<path d="M 133.0,41.0 L 146.0,41.0 L 154.0,46.0 L 158.0,51.0 L 159.0,54.0 L 159.0,67.0 L 154.0,75.0 L 148.0,79.0 L 145.0,80.0 L 133.0,80.0 L 124.0,74.0 L 120.0,66.0 L 120.0,54.0 L 125.0,46.0 L 133.0,41.0" fill="#090909"/>
	<path d="M 27.0,150.0 L 31.0,151.0 L 34.0,156.0 L 24.0,164.0 L 22.0,167.0 L 21.0,179.0 L 33.0,177.0 L 38.0,174.0 L 44.0,166.0 L 50.0,170.0 L 49.0,174.0 L 41.0,183.0 L 31.0,187.0 L 16.0,187.0 L 13.0,184.0 L 13.0,165.0 L 19.0,156.0 L 27.0,150.0" fill="#080808"/>
	<path d="M 114.0,134.0 L 115.0,134.0 L 115.0,159.0 L 104.0,169.0 L 98.0,173.0 L 93.0,155.0 L 94.0,150.0 L 111.0,136.0 L 114.0,134.0" fill="#FAFAFA"/>
	<path d="M 41.0,85.0 L 66.0,85.0 L 62.0,91.0 L 49.0,107.0 L 41.0,106.0 L 29.0,103.0 L 27.0,101.0 L 40.0,86.0 L 41.0,85.0" fill="#FAFAFA"/>
	<path d="M 135.0,49.0 L 144.0,49.0 L 150.0,54.0 L 151.0,56.0 L 151.0,65.0 L 146.0,71.0 L 144.0,72.0 L 135.0,72.0 L 129.0,67.0 L 128.0,65.0 L 128.0,56.0 L 133.0,50.0 L 135.0,49.0" fill="#FBFBFB"/>
	<path d="M 44.0,132.0 L 47.0,133.0 L 54.0,142.0 L 61.0,149.0 L 69.0,155.0 L 65.0,158.0 L 62.0,160.0 L 57.0,159.0 L 45.0,148.0 L 40.0,141.0 L 41.0,137.0 L 44.0,132.0" fill="#F6F6F6"/>
</svg>
