<?xml version="1.0" ?>
<svg baseProfile="full" height="600px" version="1.1" viewBox="-19.296000000000003 -19.296000000000003 230.592 230.592" width="600px" xmlns="http://www.w3.org/2000/svg" xmlns:ev="http://www.w3.org/2001/xml-events" xmlns:xlink="http://www.w3.org/1999/xlink">
	<defs/>
	<path d="M 0.0,0.0 L 192.0,0.0 L 192.0,192.0 L 0.0,192.0 L 0.0,0.0" fill="#FDFDFD"/>
	<path d="M 159.0,19.0 L 164.0,19.0 L 162.0,38.0 L 155.0,61.0 L 149.0,70.0 L 126.0,93.0 L 119.0,101.0 L 110.0,110.0 L 106.0,135.0 L 104.0,145.0 L 92.0,157.0 L 86.0,164.0 L 84.0,164.0 L 77.0,148.0 L 75.0,146.0 L 71.0,151.0 L 59.0,152.0 L 54.0,157.0 L 46.0,161.0 L 32.0,164.0 L 24.0,164.0 L 24.0,152.0 L 28.0,137.0 L 32.0,131.0 L 34.0,129.0 L 35.0,117.0 L 40.0,111.0 L 31.0,108.0 L 22.0,104.0 L 24.0,100.0 L 39.0,85.0 L 40.0,83.0 L 75.0,76.0 L 86.0,65.0 L 93.0,57.0 L 119.0,31.0 L 132.0,26.0 L 149.0,21.0 L 159.0,19.0" fill="#D0C2E8"/>
	<path d="M 34.0,129.0 L 38.0,130.0 L 54.0,146.0 L 59.0,150.0 L 57.0,155.0 L 51.0,159.0 L 42.0,162.0 L 32.0,164.0 L 24.0,164.0 L 24.0,152.0 L 28.0,137.0 L 32.0,131.0 L 34.0,129.0" fill="#FE4306"/>
	<path d="M 108.0,111.0 L 109.0,115.0 L 104.0,145.0 L 92.0,157.0 L 86.0,164.0 L 84.0,164.0 L 77.0,148.0 L 76.0,144.0 L 93.0,127.0 L 100.0,119.0 L 108.0,111.0" fill="#815AC2"/>
	<path d="M 66.0,78.0 L 73.0,78.0 L 67.0,85.0 L 51.0,102.0 L 42.0,111.0 L 36.0,110.0 L 22.0,104.0 L 24.0,100.0 L 39.0,85.0 L 40.0,83.0 L 66.0,78.0" fill="#815AC2"/>
	<path d="M 36.0,118.0 L 43.0,124.0 L 55.0,135.0 L 68.0,148.0 L 70.0,149.0 L 70.0,151.0 L 59.0,151.0 L 46.0,139.0 L 36.0,129.0 L 36.0,118.0" fill="#845BBE"/>
	<path d="M 40.0,135.0 L 44.0,136.0 L 52.0,144.0 L 51.0,149.0 L 46.0,152.0 L 35.0,152.0 L 35.0,142.0 L 38.0,137.0 L 40.0,135.0" fill="#FEE439"/>
	<path d="M 75.0,100.0 L 81.0,100.0 L 86.0,105.0 L 86.0,111.0 L 83.0,115.0 L 75.0,116.0 L 70.0,111.0 L 70.0,105.0 L 75.0,100.0" fill="#372195"/>
	<path d="M 113.0,60.0 L 120.0,60.0 L 125.0,65.0 L 125.0,71.0 L 119.0,76.0 L 114.0,76.0 L 110.0,73.0 L 109.0,64.0 L 113.0,60.0" fill="#372195"/>
	<path d="M 94.0,80.0 L 101.0,80.0 L 105.0,84.0 L 105.0,92.0 L 100.0,96.0 L 93.0,95.0 L 90.0,92.0 L 90.0,84.0 L 94.0,80.0" fill="#341F94"/>
	<path d="M 159.0,19.0 L 164.0,19.0 L 162.0,34.0 L 160.0,37.0 L 152.0,30.0 L 146.0,24.0 L 146.0,22.0 L 159.0,19.0" fill="#845EC4"/>
</svg>
