<?xml version="1.0" ?>
<svg baseProfile="full" height="600px" version="1.1" viewBox="-20.1 -20.1 240.2 240.2" width="600px" xmlns="http://www.w3.org/2000/svg" xmlns:ev="http://www.w3.org/2001/xml-events" xmlns:xlink="http://www.w3.org/1999/xlink">
	<defs/>
	<path d="M 0.0,0.0 L 200.0,0.0 L 200.0,200.0 L 0.0,200.0 L 0.0,0.0" fill="#FCFCFC"/>
	<path d="M 183.0,1.0 L 199.0,1.0 L 199.0,14.0 L 196.0,33.0 L 188.0,57.0 L 179.0,74.0 L 171.0,84.0 L 166.0,90.0 L 158.0,97.0 L 144.0,110.0 L 133.0,119.0 L 125.0,126.0 L 123.0,126.0 L 123.0,163.0 L 113.0,172.0 L 102.0,181.0 L 97.0,185.0 L 93.0,184.0 L 90.0,177.0 L 86.0,161.0 L 86.0,158.0 L 83.0,160.0 L 74.0,162.0 L 64.0,168.0 L 56.0,168.0 L 48.0,162.0 L 40.0,155.0 L 32.0,144.0 L 31.0,137.0 L 39.0,124.0 L 40.0,117.0 L 42.0,114.0 L 31.0,112.0 L 18.0,109.0 L 15.0,106.0 L 16.0,102.0 L 27.0,89.0 L 36.0,78.0 L 37.0,77.0 L 74.0,77.0 L 76.0,73.0 L 88.0,59.0 L 100.0,45.0 L 107.0,38.0 L 111.0,33.0 L 122.0,24.0 L 135.0,16.0 L 150.0,9.0 L 163.0,5.0 L 183.0,1.0" fill="#FBFBFB"/>
	<path d="M 183.0,1.0 L 199.0,1.0 L 199.0,14.0 L 196.0,33.0 L 188.0,57.0 L 179.0,74.0 L 171.0,84.0 L 166.0,90.0 L 158.0,97.0 L 144.0,110.0 L 133.0,119.0 L 125.0,126.0 L 123.0,126.0 L 123.0,163.0 L 113.0,172.0 L 102.0,181.0 L 97.0,185.0 L 93.0,184.0 L 90.0,177.0 L 86.0,161.0 L 86.0,158.0 L 83.0,160.0 L 74.0,162.0 L 64.0,168.0 L 56.0,168.0 L 48.0,162.0 L 40.0,155.0 L 32.0,144.0 L 31.0,137.0 L 39.0,124.0 L 40.0,117.0 L 42.0,114.0 L 31.0,112.0 L 18.0,109.0 L 15.0,106.0 L 16.0,102.0 L 27.0,89.0 L 36.0,78.0 L 37.0,77.0 L 74.0,77.0 L 76.0,73.0 L 88.0,59.0 L 100.0,45.0 L 107.0,38.0 L 111.0,33.0 L 122.0,24.0 L 135.0,16.0 L 150.0,9.0 L 163.0,5.0 L 183.0,1.0 M 185.0,9.0 L 168.0,12.0 L 147.0,19.0 L 130.0,28.0 L 119.0,37.0 L 106.0,50.0 L 97.0,61.0 L 87.0,72.0 L 78.0,83.0 L 64.0,100.0 L 51.0,116.0 L 49.0,119.0 L 50.0,125.0 L 58.0,136.0 L 65.0,143.0 L 75.0,150.0 L 81.0,151.0 L 97.0,138.0 L 113.0,125.0 L 126.0,114.0 L 137.0,105.0 L 149.0,94.0 L 157.0,87.0 L 166.0,78.0 L 176.0,63.0 L 184.0,45.0 L 188.0,32.0 L 191.0,16.0 L 191.0,9.0 L 185.0,9.0" fill="#070707"/>
	<path d="M 133.0,41.0 L 145.0,41.0 L 153.0,45.0 L 159.0,54.0 L 159.0,66.0 L 155.0,74.0 L 150.0,78.0 L 142.0,81.0 L 135.0,81.0 L 127.0,77.0 L 121.0,70.0 L 120.0,67.0 L 120.0,54.0 L 125.0,46.0 L 133.0,41.0" fill="#090909"/>
	<path d="M 27.0,150.0 L 31.0,151.0 L 34.0,156.0 L 22.0,165.0 L 19.0,170.0 L 18.0,182.0 L 30.0,180.0 L 36.0,177.0 L 44.0,166.0 L 50.0,170.0 L 49.0,174.0 L 43.0,182.0 L 37.0,187.0 L 28.0,190.0 L 11.0,190.0 L 10.0,189.0 L 10.0,169.0 L 15.0,159.0 L 27.0,150.0" fill="#0B0B0B"/>
	<path d="M 41.0,85.0 L 66.0,85.0 L 62.0,91.0 L 53.0,102.0 L 49.0,107.0 L 39.0,106.0 L 27.0,103.0 L 29.0,99.0 L 40.0,86.0 L 41.0,85.0" fill="#F9F9F9"/>
	<path d="M 114.0,134.0 L 115.0,134.0 L 115.0,159.0 L 104.0,169.0 L 99.0,173.0 L 97.0,173.0 L 93.0,157.0 L 93.0,151.0 L 106.0,140.0 L 114.0,134.0" fill="#F9F9F9"/>
	<path d="M 135.0,49.0 L 144.0,49.0 L 150.0,54.0 L 151.0,56.0 L 151.0,65.0 L 146.0,71.0 L 144.0,72.0 L 134.0,72.0 L 129.0,67.0 L 128.0,65.0 L 128.0,55.0 L 135.0,49.0" fill="#FAFAFA"/>
	<path d="M 44.0,132.0 L 46.0,132.0 L 53.0,141.0 L 62.0,150.0 L 69.0,155.0 L 64.0,159.0 L 58.0,160.0 L 48.0,151.0 L 40.0,142.0 L 41.0,136.0 L 44.0,132.0" fill="#F5F5F5"/>
</svg>
