<?xml version="1.0" ?>
<svg baseProfile="full" height="600px" version="1.1" viewBox="-19.296000000000003 -19.296000000000003 230.592 230.592" width="600px" xmlns="http://www.w3.org/2000/svg" xmlns:ev="http://www.w3.org/2001/xml-events" xmlns:xlink="http://www.w3.org/1999/xlink">
	<defs/>
	<path d="M 0.0,0.0 L 192.0,0.0 L 192.0,192.0 L 0.0,192.0 L 0.0,0.0" fill="#FDFDFD"/>
	<path d="M 155.0,17.0 L 161.0,17.0 L 161.0,25.0 L 156.0,50.0 L 152.0,62.0 L 143.0,72.0 L 129.0,87.0 L 114.0,103.0 L 109.0,110.0 L 104.0,143.0 L 93.0,155.0 L 86.0,163.0 L 84.0,163.0 L 76.0,146.0 L 72.0,148.0 L 70.0,150.0 L 59.0,151.0 L 54.0,157.0 L 45.0,161.0 L 34.0,164.0 L 23.0,165.0 L 23.0,155.0 L 26.0,140.0 L 30.0,132.0 L 34.0,128.0 L 35.0,117.0 L 39.0,112.0 L 31.0,108.0 L 21.0,104.0 L 23.0,100.0 L 37.0,85.0 L 40.0,82.0 L 74.0,75.0 L 81.0,67.0 L 91.0,57.0 L 98.0,49.0 L 112.0,34.0 L 117.0,29.0 L 130.0,24.0 L 150.0,18.0 L 155.0,17.0" fill="#D0C2E8"/>
	<path d="M 33.0,129.0 L 38.0,130.0 L 51.0,143.0 L 59.0,150.0 L 56.0,155.0 L 51.0,159.0 L 39.0,163.0 L 23.0,165.0 L 23.0,155.0 L 26.0,140.0 L 30.0,132.0 L 33.0,129.0" fill="#FD4105"/>
	<path d="M 65.0,77.0 L 72.0,77.0 L 66.0,84.0 L 51.0,100.0 L 41.0,111.0 L 36.0,110.0 L 21.0,104.0 L 23.0,100.0 L 37.0,85.0 L 40.0,82.0 L 65.0,77.0" fill="#815BC3"/>
	<path d="M 107.0,110.0 L 108.0,110.0 L 107.0,121.0 L 104.0,143.0 L 93.0,155.0 L 86.0,163.0 L 84.0,163.0 L 76.0,146.0 L 77.0,142.0 L 88.0,130.0 L 95.0,123.0 L 102.0,115.0 L 107.0,110.0" fill="#815AC2"/>
	<path d="M 35.0,118.0 L 39.0,120.0 L 56.0,136.0 L 65.0,145.0 L 70.0,150.0 L 58.0,150.0 L 42.0,135.0 L 37.0,130.0 L 34.0,128.0 L 35.0,118.0" fill="#845BBF"/>
	<path d="M 39.0,135.0 L 44.0,136.0 L 52.0,144.0 L 50.0,149.0 L 48.0,151.0 L 40.0,153.0 L 34.0,153.0 L 34.0,143.0 L 37.0,137.0 L 39.0,135.0" fill="#FEE338"/>
	<path d="M 74.0,99.0 L 80.0,99.0 L 85.0,104.0 L 85.0,110.0 L 81.0,115.0 L 74.0,115.0 L 69.0,110.0 L 69.0,104.0 L 74.0,99.0" fill="#382295"/>
	<path d="M 112.0,58.0 L 118.0,58.0 L 123.0,62.0 L 123.0,69.0 L 118.0,74.0 L 112.0,74.0 L 108.0,70.0 L 107.0,63.0 L 112.0,58.0" fill="#372195"/>
	<path d="M 92.0,79.0 L 100.0,79.0 L 104.0,83.0 L 104.0,90.0 L 100.0,94.0 L 92.0,94.0 L 88.0,89.0 L 89.0,82.0 L 92.0,79.0" fill="#351F94"/>
	<path d="M 155.0,17.0 L 161.0,17.0 L 161.0,25.0 L 159.0,35.0 L 151.0,29.0 L 144.0,22.0 L 144.0,20.0 L 155.0,17.0" fill="#835DC3"/>
</svg>
