<?xml version="1.0" ?>
<svg baseProfile="full" height="600px" version="1.1" viewBox="-19.296000000000003 -19.296000000000003 230.592 230.592" width="600px" xmlns="http://www.w3.org/2000/svg" xmlns:ev="http://www.w3.org/2001/xml-events" xmlns:xlink="http://www.w3.org/1999/xlink">
	<defs/>
	<path d="M 0.0,0.0 L 192.0,0.0 L 192.0,192.0 L 0.0,192.0 L 0.0,0.0" fill="#FDFDFD"/>
	<path d="M 158.0,18.0 L 163.0,18.0 L 162.0,31.0 L 157.0,53.0 L 152.0,64.0 L 145.0,72.0 L 130.0,88.0 L 118.0,100.0 L 111.0,108.0 L 109.0,113.0 L 105.0,139.0 L 103.0,145.0 L 91.0,158.0 L 86.0,163.0 L 84.0,163.0 L 76.0,146.0 L 70.0,151.0 L 59.0,152.0 L 55.0,157.0 L 46.0,161.0 L 27.0,165.0 L 23.0,165.0 L 23.0,156.0 L 26.0,140.0 L 30.0,132.0 L 33.0,129.0 L 35.0,129.0 L 35.0,117.0 L 40.0,111.0 L 31.0,108.0 L 22.0,104.0 L 24.0,100.0 L 31.0,92.0 L 40.0,83.0 L 52.0,80.0 L 72.0,76.0 L 77.0,73.0 L 85.0,65.0 L 92.0,57.0 L 101.0,48.0 L 108.0,40.0 L 117.0,31.0 L 125.0,27.0 L 137.0,23.0 L 158.0,18.0" fill="#D0C2E8"/>
	<path d="M 35.0,128.0 L 42.0,134.0 L 52.0,144.0 L 59.0,150.0 L 57.0,155.0 L 49.0,160.0 L 33.0,164.0 L 23.0,165.0 L 23.0,156.0 L 26.0,140.0 L 30.0,132.0 L 35.0,128.0" fill="#FD4306"/>
	<path d="M 69.0,77.0 L 73.0,78.0 L 66.0,85.0 L 59.0,93.0 L 45.0,107.0 L 42.0,111.0 L 36.0,110.0 L 22.0,104.0 L 24.0,100.0 L 31.0,92.0 L 40.0,83.0 L 52.0,80.0 L 69.0,77.0" fill="#815BC2"/>
	<path d="M 107.0,111.0 L 108.0,111.0 L 107.0,128.0 L 104.0,144.0 L 90.0,159.0 L 86.0,163.0 L 84.0,163.0 L 76.0,146.0 L 78.0,142.0 L 87.0,132.0 L 97.0,122.0 L 104.0,114.0 L 107.0,111.0" fill="#815AC2"/>
	<path d="M 36.0,118.0 L 43.0,124.0 L 55.0,135.0 L 69.0,149.0 L 69.0,150.0 L 58.0,150.0 L 43.0,136.0 L 36.0,129.0 L 36.0,118.0" fill="#8259BE"/>
	<path d="M 40.0,135.0 L 44.0,136.0 L 52.0,144.0 L 50.0,150.0 L 40.0,153.0 L 35.0,153.0 L 35.0,140.0 L 40.0,135.0" fill="#FEE639"/>
	<path d="M 94.0,79.0 L 101.0,80.0 L 105.0,84.0 L 105.0,90.0 L 101.0,95.0 L 93.0,95.0 L 89.0,90.0 L 89.0,84.0 L 94.0,79.0" fill="#372195"/>
	<path d="M 113.0,59.0 L 119.0,59.0 L 124.0,63.0 L 124.0,70.0 L 119.0,75.0 L 113.0,75.0 L 109.0,71.0 L 108.0,64.0 L 113.0,59.0" fill="#372195"/>
	<path d="M 74.0,100.0 L 81.0,100.0 L 86.0,105.0 L 85.0,112.0 L 82.0,115.0 L 74.0,115.0 L 70.0,111.0 L 70.0,104.0 L 74.0,100.0" fill="#362094"/>
	<path d="M 158.0,18.0 L 163.0,18.0 L 162.0,31.0 L 160.0,36.0 L 154.0,32.0 L 145.0,23.0 L 146.0,21.0 L 158.0,18.0" fill="#8560C4"/>
</svg>
