<?xml version="1.0" ?>
<svg baseProfile="full" height="600px" version="1.1" viewBox="-20.1 -20.1 240.2 240.2" width="600px" xmlns="http://www.w3.org/2000/svg" xmlns:ev="http://www.w3.org/2001/xml-events" xmlns:xlink="http://www.w3.org/1999/xlink">
	<defs/>
	<path d="M 0.0,0.0 L 200.0,0.0 L 200.0,200.0 L 0.0,200.0 L 0.0,0.0" fill="#FDFDFD"/>
	<path d="M 113.0,15.0 L 125.0,15.0 L 133.0,19.0 L 139.0,27.0 L 142.0,40.0 L 153.0,105.0 L 159.0,138.0 L 159.0,152.0 L 153.0,161.0 L 147.0,165.0 L 127.0,169.0 L 79.0,177.0 L 71.0,179.0 L 62.0,179.0 L 53.0,175.0 L 48.0,171.0 L 44.0,163.0 L 39.0,136.0 L 29.0,77.0 L 25.0,54.0 L 25.0,43.0 L 30.0,35.0 L 37.0,29.0 L 42.0,27.0 L 84.0,20.0 L 113.0,15.0" fill="#F6F6F6"/>
	<path d="M 111.0,41.0 L 119.0,41.0 L 122.0,53.0 L 129.0,95.0 L 135.0,128.0 L 135.0,137.0 L 123.0,140.0 L 75.0,148.0 L 71.0,149.0 L 64.0,149.0 L 59.0,123.0 L 52.0,81.0 L 48.0,58.0 L 48.0,52.0 L 107.0,42.0 L 111.0,41.0" fill="#FCFCFC"/>
	<path d="M 113.0,15.0 L 125.0,15.0 L 133.0,19.0 L 139.0,27.0 L 142.0,40.0 L 153.0,105.0 L 159.0,138.0 L 159.0,152.0 L 153.0,161.0 L 147.0,165.0 L 127.0,169.0 L 79.0,177.0 L 71.0,179.0 L 62.0,179.0 L 53.0,175.0 L 48.0,171.0 L 44.0,163.0 L 39.0,136.0 L 29.0,77.0 L 25.0,54.0 L 25.0,43.0 L 30.0,35.0 L 37.0,29.0 L 42.0,27.0 L 84.0,20.0 L 113.0,15.0 M 115.0,22.0 L 62.0,31.0 L 41.0,35.0 L 35.0,40.0 L 32.0,46.0 L 32.0,54.0 L 35.0,70.0 L 44.0,122.0 L 51.0,161.0 L 55.0,167.0 L 61.0,171.0 L 72.0,171.0 L 124.0,162.0 L 142.0,159.0 L 148.0,155.0 L 152.0,149.0 L 151.0,135.0 L 144.0,96.0 L 137.0,54.0 L 132.0,29.0 L 124.0,22.0 L 115.0,22.0" fill="#090909"/>
	<path d="M 114.0,33.0 L 125.0,33.0 L 128.0,46.0 L 136.0,91.0 L 144.0,137.0 L 144.0,142.0 L 142.0,144.0 L 79.0,155.0 L 63.0,158.0 L 58.0,157.0 L 56.0,149.0 L 49.0,107.0 L 41.0,62.0 L 39.0,52.0 L 40.0,47.0 L 45.0,45.0 L 87.0,38.0 L 114.0,33.0 M 111.0,41.0 L 71.0,48.0 L 48.0,52.0 L 49.0,64.0 L 56.0,106.0 L 63.0,145.0 L 64.0,149.0 L 71.0,149.0 L 116.0,141.0 L 133.0,138.0 L 135.0,137.0 L 135.0,128.0 L 127.0,83.0 L 120.0,43.0 L 119.0,41.0 L 111.0,41.0" fill="#0A0A0A"/>
	<path d="M 101.0,154.0 L 105.0,155.0 L 106.0,160.0 L 105.0,161.0 L 100.0,161.0 L 99.0,156.0 L 101.0,154.0" fill="#0B0B0B"/>
</svg>
