<?xml version="1.0" ?>
<svg baseProfile="full" height="600px" version="1.1" viewBox="-20.1 -20.1 240.2 240.2" width="600px" xmlns="http://www.w3.org/2000/svg" xmlns:ev="http://www.w3.org/2001/xml-events" xmlns:xlink="http://www.w3.org/1999/xlink">
	<defs/>
	<path d="M 0.0,0.0 L 200.0,0.0 L 200.0,200.0 L 0.0,200.0 L 0.0,0.0" fill="#FCFCFC"/>
	<path d="M 0.0,0.0 L 200.0,0.0 L 200.0,49.0 L 198.0,46.0 L 194.0,40.0 L 188.0,35.0 L 183.0,33.0 L 90.0,33.0 L 82.0,37.0 L 76.0,44.0 L 73.0,50.0 L 73.0,181.0 L 78.0,191.0 L 86.0,197.0 L 91.0,199.0 L 91.0,200.0 L 0.0,200.0 L 0.0,0.0" fill="#FDFDFD"/>
	<path d="M 96.0,60.0 L 176.0,60.0 L 176.0,168.0 L 96.0,168.0 L 96.0,60.0" fill="#FDFDFD"/>
	<path d="M 90.0,32.0 L 183.0,32.0 L 191.0,36.0 L 198.0,44.0 L 200.0,49.0 L 200.0,200.0 L 91.0,200.0 L 81.0,195.0 L 75.0,188.0 L 72.0,181.0 L 72.0,50.0 L 77.0,41.0 L 85.0,34.0 L 90.0,32.0 M 92.0,40.0 L 84.0,45.0 L 80.0,52.0 L 80.0,179.0 L 83.0,185.0 L 90.0,191.0 L 92.0,192.0 L 181.0,192.0 L 187.0,189.0 L 191.0,184.0 L 192.0,181.0 L 192.0,50.0 L 188.0,44.0 L 184.0,41.0 L 181.0,40.0 L 92.0,40.0" fill="#020202"/>
	<path d="M 90.0,52.0 L 182.0,52.0 L 184.0,54.0 L 184.0,174.0 L 182.0,176.0 L 90.0,176.0 L 88.0,174.0 L 88.0,54.0 L 90.0,52.0 M 96.0,60.0 L 96.0,168.0 L 176.0,168.0 L 176.0,60.0 L 96.0,60.0" fill="#000000"/>
	<path d="M 0.0,0.0 L 78.0,0.0 L 80.0,2.0 L 79.0,7.0 L 78.0,8.0 L 43.0,9.0 L 37.0,12.0 L 34.0,16.0 L 33.0,19.0 L 33.0,57.0 L 50.0,40.0 L 55.0,41.0 L 56.0,46.0 L 29.0,73.0 L 25.0,71.0 L 0.0,46.0 L 0.0,0.0" fill="#030303"/>
	<path d="M 0.0,0.0 L 42.0,0.0 L 39.0,2.0 L 32.0,6.0 L 27.0,12.0 L 25.0,17.0 L 24.0,58.0 L 17.0,52.0 L 6.0,41.0 L 0.0,42.0 L 0.0,0.0" fill="#FCFCFC"/>
	<path d="M 199.0,182.0 L 200.0,182.0 L 200.0,200.0 L 182.0,200.0 L 185.0,198.0 L 191.0,195.0 L 197.0,188.0 L 199.0,182.0" fill="#F2F2F2"/>
	<path d="M 134.0,180.0 L 139.0,181.0 L 140.0,186.0 L 138.0,188.0 L 133.0,187.0 L 132.0,182.0 L 134.0,180.0" fill="#0C0C0C"/>
</svg>
