<?xml version="1.0" ?>
<svg baseProfile="full" height="600px" version="1.1" viewBox="-20.1 -20.1 240.2 240.2" width="600px" xmlns="http://www.w3.org/2000/svg" xmlns:ev="http://www.w3.org/2001/xml-events" xmlns:xlink="http://www.w3.org/1999/xlink">
	<defs/>
	<path d="M 0.0,0.0 L 200.0,0.0 L 200.0,200.0 L 0.0,200.0 L 0.0,0.0" fill="#070707"/>
	<path d="M 0.0,0.0 L 200.0,0.0 L 200.0,134.0 L 195.0,132.0 L 177.0,91.0 L 172.0,81.0 L 168.0,78.0 L 165.0,77.0 L 152.0,77.0 L 138.0,78.0 L 106.0,78.0 L 100.0,83.0 L 100.0,93.0 L 104.0,98.0 L 108.0,102.0 L 119.0,130.0 L 119.0,132.0 L 103.0,132.0 L 85.0,91.0 L 80.0,81.0 L 74.0,77.0 L 60.0,77.0 L 48.0,78.0 L 14.0,78.0 L 8.0,83.0 L 8.0,93.0 L 12.0,98.0 L 15.0,100.0 L 27.0,131.0 L 27.0,132.0 L 2.0,133.0 L 0.0,134.0 L 0.0,0.0" fill="#FCFCFC"/>
	<path d="M 61.0,84.0 L 72.0,84.0 L 76.0,88.0 L 91.0,122.0 L 95.0,132.0 L 48.0,133.0 L 47.0,138.0 L 48.0,139.0 L 122.0,140.0 L 126.0,148.0 L 139.0,181.0 L 139.0,184.0 L 133.0,182.0 L 123.0,175.0 L 118.0,176.0 L 112.0,181.0 L 102.0,185.0 L 90.0,185.0 L 78.0,179.0 L 73.0,175.0 L 68.0,176.0 L 62.0,181.0 L 58.0,183.0 L 55.0,183.0 L 42.0,149.0 L 24.0,104.0 L 24.0,101.0 L 52.0,101.0 L 59.0,116.0 L 57.0,117.0 L 51.0,115.0 L 45.0,115.0 L 40.0,120.0 L 41.0,125.0 L 46.0,124.0 L 50.0,122.0 L 64.0,127.0 L 69.0,126.0 L 68.0,119.0 L 58.0,96.0 L 55.0,94.0 L 32.0,94.0 L 16.0,92.0 L 15.0,91.0 L 15.0,86.0 L 16.0,85.0 L 50.0,85.0 L 61.0,84.0" fill="#FAFAFA"/>
	<path d="M 151.0,84.0 L 164.0,84.0 L 168.0,88.0 L 183.0,122.0 L 187.0,132.0 L 140.0,133.0 L 139.0,138.0 L 140.0,139.0 L 198.0,139.0 L 200.0,138.0 L 200.0,185.0 L 191.0,185.0 L 181.0,181.0 L 174.0,175.0 L 169.0,176.0 L 159.0,183.0 L 152.0,185.0 L 148.0,185.0 L 132.0,144.0 L 116.0,103.0 L 116.0,101.0 L 144.0,101.0 L 151.0,116.0 L 149.0,117.0 L 143.0,115.0 L 137.0,115.0 L 132.0,120.0 L 133.0,125.0 L 138.0,124.0 L 142.0,122.0 L 156.0,127.0 L 161.0,126.0 L 160.0,119.0 L 150.0,96.0 L 147.0,94.0 L 124.0,94.0 L 108.0,92.0 L 107.0,91.0 L 107.0,86.0 L 108.0,85.0 L 142.0,85.0 L 151.0,84.0" fill="#FAFAFA"/>
	<path d="M 20.0,184.0 L 25.0,186.0 L 35.0,191.0 L 40.0,192.0 L 51.0,192.0 L 60.0,190.0 L 69.0,185.0 L 73.0,184.0 L 78.0,188.0 L 89.0,192.0 L 103.0,192.0 L 112.0,189.0 L 121.0,184.0 L 126.0,186.0 L 133.0,190.0 L 139.0,192.0 L 153.0,192.0 L 165.0,188.0 L 171.0,184.0 L 176.0,186.0 L 186.0,191.0 L 189.0,192.0 L 200.0,193.0 L 200.0,200.0 L 0.0,200.0 L 0.0,193.0 L 10.0,190.0 L 19.0,185.0 L 20.0,184.0" fill="#FBFBFB"/>
	<path d="M 0.0,138.0 L 2.0,139.0 L 30.0,140.0 L 35.0,151.0 L 48.0,184.0 L 48.0,185.0 L 40.0,185.0 L 31.0,181.0 L 23.0,175.0 L 18.0,176.0 L 12.0,181.0 L 5.0,184.0 L 0.0,184.0 L 0.0,138.0" fill="#FBFBFB"/>
	<path d="M 48.0,28.0 L 57.0,28.0 L 65.0,32.0 L 71.0,40.0 L 72.0,42.0 L 72.0,53.0 L 68.0,61.0 L 60.0,67.0 L 57.0,68.0 L 47.0,68.0 L 39.0,64.0 L 34.0,58.0 L 32.0,53.0 L 32.0,43.0 L 36.0,35.0 L 44.0,29.0 L 48.0,28.0" fill="#080808"/>
	<path d="M 138.0,28.0 L 149.0,28.0 L 157.0,33.0 L 162.0,39.0 L 163.0,41.0 L 163.0,54.0 L 160.0,60.0 L 153.0,66.0 L 148.0,68.0 L 138.0,68.0 L 130.0,63.0 L 125.0,57.0 L 124.0,54.0 L 124.0,41.0 L 128.0,35.0 L 134.0,30.0 L 138.0,28.0" fill="#070707"/>
	<path d="M 48.0,36.0 L 55.0,36.0 L 60.0,39.0 L 64.0,44.0 L 64.0,51.0 L 61.0,56.0 L 56.0,60.0 L 48.0,60.0 L 41.0,54.0 L 40.0,51.0 L 40.0,44.0 L 46.0,37.0 L 48.0,36.0" fill="#F7F7F7"/>
	<path d="M 140.0,36.0 L 148.0,36.0 L 154.0,41.0 L 155.0,43.0 L 155.0,53.0 L 151.0,58.0 L 147.0,60.0 L 140.0,60.0 L 134.0,56.0 L 132.0,52.0 L 132.0,43.0 L 136.0,38.0 L 140.0,36.0" fill="#F7F7F7"/>
</svg>
