<?xml version="1.0" ?>
<svg baseProfile="full" height="600px" version="1.1" viewBox="-20.1 -20.1 240.2 240.2" width="600px" xmlns="http://www.w3.org/2000/svg" xmlns:ev="http://www.w3.org/2001/xml-events" xmlns:xlink="http://www.w3.org/1999/xlink">
	<defs/>
	<path d="M 0.0,0.0 L 200.0,0.0 L 200.0,200.0 L 0.0,200.0 L 0.0,0.0" fill="#FAFAFA"/>
	<path d="M 0.0,0.0 L 200.0,0.0 L 200.0,134.0 L 195.0,131.0 L 179.0,83.0 L 175.0,78.0 L 172.0,77.0 L 162.0,77.0 L 138.0,83.0 L 130.0,83.0 L 119.0,79.0 L 110.0,79.0 L 105.0,83.0 L 104.0,85.0 L 105.0,94.0 L 106.0,97.0 L 110.0,99.0 L 119.0,127.0 L 120.0,132.0 L 104.0,132.0 L 100.0,122.0 L 86.0,81.0 L 81.0,77.0 L 70.0,77.0 L 46.0,83.0 L 38.0,83.0 L 27.0,79.0 L 18.0,79.0 L 13.0,83.0 L 12.0,85.0 L 13.0,94.0 L 14.0,97.0 L 18.0,99.0 L 27.0,127.0 L 28.0,132.0 L 2.0,133.0 L 0.0,134.0 L 0.0,0.0" fill="#FCFCFC"/>
	<path d="M 70.0,76.0 L 81.0,76.0 L 87.0,81.0 L 101.0,122.0 L 104.0,131.0 L 120.0,132.0 L 109.0,99.0 L 104.0,94.0 L 103.0,85.0 L 107.0,80.0 L 110.0,78.0 L 119.0,78.0 L 130.0,82.0 L 138.0,82.0 L 162.0,76.0 L 172.0,76.0 L 177.0,79.0 L 180.0,83.0 L 196.0,131.0 L 200.0,134.0 L 199.0,139.0 L 198.0,140.0 L 142.0,140.0 L 140.0,138.0 L 141.0,133.0 L 142.0,132.0 L 187.0,132.0 L 175.0,96.0 L 172.0,88.0 L 172.0,85.0 L 162.0,85.0 L 138.0,91.0 L 130.0,91.0 L 117.0,87.0 L 111.0,87.0 L 113.0,91.0 L 123.0,95.0 L 130.0,97.0 L 139.0,96.0 L 148.0,94.0 L 153.0,94.0 L 155.0,96.0 L 160.0,113.0 L 162.0,120.0 L 162.0,126.0 L 160.0,128.0 L 153.0,127.0 L 142.0,123.0 L 138.0,125.0 L 133.0,126.0 L 131.0,124.0 L 132.0,118.0 L 137.0,114.0 L 146.0,115.0 L 152.0,117.0 L 148.0,105.0 L 148.0,103.0 L 136.0,106.0 L 128.0,106.0 L 120.0,103.0 L 137.0,154.0 L 138.0,160.0 L 136.0,162.0 L 131.0,162.0 L 127.0,152.0 L 124.0,143.0 L 124.0,140.0 L 50.0,140.0 L 48.0,138.0 L 49.0,133.0 L 50.0,132.0 L 95.0,132.0 L 83.0,96.0 L 79.0,86.0 L 78.0,85.0 L 70.0,85.0 L 46.0,91.0 L 38.0,91.0 L 25.0,87.0 L 19.0,87.0 L 21.0,91.0 L 31.0,95.0 L 38.0,97.0 L 47.0,96.0 L 56.0,94.0 L 61.0,94.0 L 63.0,96.0 L 68.0,113.0 L 70.0,120.0 L 70.0,126.0 L 68.0,128.0 L 61.0,127.0 L 50.0,123.0 L 46.0,125.0 L 41.0,126.0 L 39.0,124.0 L 40.0,118.0 L 45.0,114.0 L 54.0,115.0 L 60.0,117.0 L 56.0,105.0 L 56.0,103.0 L 44.0,106.0 L 36.0,106.0 L 28.0,103.0 L 45.0,154.0 L 46.0,160.0 L 44.0,162.0 L 39.0,162.0 L 35.0,152.0 L 32.0,143.0 L 32.0,140.0 L 2.0,140.0 L 0.0,138.0 L 1.0,133.0 L 2.0,132.0 L 28.0,132.0 L 17.0,99.0 L 12.0,94.0 L 11.0,85.0 L 15.0,80.0 L 18.0,78.0 L 27.0,78.0 L 38.0,82.0 L 46.0,82.0 L 70.0,76.0" fill="#060606"/>
	<path d="M 48.0,184.0 L 53.0,186.0 L 63.0,191.0 L 66.0,192.0 L 79.0,192.0 L 92.0,188.0 L 98.0,184.0 L 103.0,186.0 L 113.0,191.0 L 116.0,192.0 L 129.0,192.0 L 142.0,188.0 L 148.0,184.0 L 153.0,186.0 L 163.0,191.0 L 166.0,192.0 L 179.0,192.0 L 192.0,188.0 L 198.0,184.0 L 200.0,184.0 L 200.0,200.0 L 0.0,200.0 L 0.0,185.0 L 12.0,191.0 L 16.0,192.0 L 29.0,192.0 L 42.0,188.0 L 48.0,184.0" fill="#FAFAFA"/>
	<path d="M 0.0,174.0 L 8.0,180.0 L 17.0,184.0 L 30.0,184.0 L 42.0,178.0 L 47.0,174.0 L 52.0,175.0 L 60.0,181.0 L 69.0,184.0 L 80.0,184.0 L 90.0,180.0 L 97.0,174.0 L 102.0,175.0 L 110.0,181.0 L 119.0,184.0 L 130.0,184.0 L 140.0,180.0 L 147.0,174.0 L 152.0,175.0 L 160.0,181.0 L 168.0,184.0 L 180.0,184.0 L 190.0,180.0 L 198.0,174.0 L 200.0,174.0 L 200.0,184.0 L 190.0,190.0 L 179.0,193.0 L 166.0,193.0 L 154.0,188.0 L 150.0,185.0 L 145.0,187.0 L 137.0,191.0 L 129.0,193.0 L 116.0,193.0 L 104.0,188.0 L 100.0,185.0 L 95.0,187.0 L 87.0,191.0 L 79.0,193.0 L 66.0,193.0 L 54.0,188.0 L 50.0,185.0 L 45.0,187.0 L 37.0,191.0 L 29.0,193.0 L 16.0,193.0 L 6.0,189.0 L 0.0,185.0 L 0.0,174.0" fill="#070707"/>
	<path d="M 146.0,28.0 L 156.0,28.0 L 164.0,32.0 L 169.0,38.0 L 171.0,42.0 L 171.0,53.0 L 167.0,61.0 L 161.0,66.0 L 156.0,68.0 L 146.0,68.0 L 140.0,65.0 L 135.0,60.0 L 131.0,52.0 L 131.0,43.0 L 137.0,33.0 L 146.0,28.0" fill="#080808"/>
	<path d="M 54.0,28.0 L 65.0,28.0 L 75.0,34.0 L 80.0,43.0 L 80.0,51.0 L 77.0,59.0 L 72.0,64.0 L 64.0,68.0 L 54.0,68.0 L 46.0,63.0 L 42.0,58.0 L 40.0,53.0 L 40.0,42.0 L 45.0,34.0 L 50.0,30.0 L 54.0,28.0" fill="#080808"/>
	<path d="M 147.0,36.0 L 154.0,36.0 L 161.0,40.0 L 163.0,44.0 L 163.0,52.0 L 160.0,57.0 L 154.0,60.0 L 147.0,60.0 L 141.0,55.0 L 139.0,51.0 L 139.0,45.0 L 143.0,39.0 L 147.0,36.0" fill="#F7F7F7"/>
	<path d="M 56.0,36.0 L 64.0,36.0 L 70.0,41.0 L 72.0,45.0 L 72.0,51.0 L 68.0,57.0 L 63.0,60.0 L 56.0,60.0 L 50.0,56.0 L 48.0,52.0 L 48.0,44.0 L 51.0,39.0 L 56.0,36.0" fill="#F7F7F7"/>
</svg>
