<?xml version="1.0" ?>
<svg baseProfile="full" height="600px" version="1.1" viewBox="-20.1 -20.1 240.2 240.2" width="600px" xmlns="http://www.w3.org/2000/svg" xmlns:ev="http://www.w3.org/2001/xml-events" xmlns:xlink="http://www.w3.org/1999/xlink">
	<defs/>
	<path d="M 0.0,0.0 L 200.0,0.0 L 200.0,200.0 L 0.0,200.0 L 0.0,0.0" fill="#FCFCFC"/>
	<path d="M 0.0,0.0 L 200.0,0.0 L 200.0,200.0 L 0.0,200.0 L 0.0,0.0 M 126.0,18.0 L 109.0,21.0 L 92.0,26.0 L 73.0,35.0 L 61.0,43.0 L 51.0,51.0 L 38.0,64.0 L 28.0,78.0 L 19.0,94.0 L 13.0,109.0 L 10.0,120.0 L 8.0,132.0 L 8.0,149.0 L 12.0,162.0 L 16.0,168.0 L 24.0,174.0 L 32.0,178.0 L 50.0,182.0 L 72.0,182.0 L 91.0,179.0 L 112.0,172.0 L 128.0,164.0 L 139.0,157.0 L 150.0,148.0 L 161.0,137.0 L 172.0,122.0 L 183.0,101.0 L 191.0,75.0 L 191.0,48.0 L 188.0,38.0 L 183.0,31.0 L 174.0,25.0 L 160.0,20.0 L 147.0,18.0 L 126.0,18.0" fill="#FDFDFD"/>
	<path d="M 126.0,18.0 L 147.0,18.0 L 163.0,21.0 L 176.0,26.0 L 185.0,33.0 L 190.0,43.0 L 191.0,48.0 L 191.0,75.0 L 183.0,101.0 L 172.0,122.0 L 163.0,134.0 L 154.0,144.0 L 147.0,151.0 L 132.0,162.0 L 117.0,170.0 L 101.0,176.0 L 91.0,179.0 L 72.0,182.0 L 50.0,182.0 L 32.0,178.0 L 19.0,171.0 L 13.0,164.0 L 9.0,154.0 L 8.0,149.0 L 8.0,132.0 L 12.0,112.0 L 18.0,96.0 L 26.0,81.0 L 36.0,67.0 L 45.0,57.0 L 54.0,48.0 L 70.0,37.0 L 85.0,29.0 L 101.0,23.0 L 113.0,20.0 L 126.0,18.0 M 127.0,26.0 L 111.0,29.0 L 96.0,33.0 L 75.0,43.0 L 61.0,53.0 L 49.0,64.0 L 41.0,73.0 L 31.0,88.0 L 23.0,105.0 L 18.0,121.0 L 16.0,131.0 L 16.0,146.0 L 18.0,156.0 L 20.0,160.0 L 31.0,160.0 L 48.0,157.0 L 64.0,152.0 L 80.0,145.0 L 96.0,136.0 L 113.0,124.0 L 124.0,115.0 L 136.0,104.0 L 147.0,92.0 L 158.0,77.0 L 167.0,62.0 L 176.0,43.0 L 177.0,37.0 L 172.0,33.0 L 160.0,28.0 L 146.0,26.0 L 127.0,26.0" fill="#080808"/>
	<path d="M 182.0,48.0 L 184.0,52.0 L 184.0,65.0 L 181.0,83.0 L 173.0,104.0 L 165.0,118.0 L 156.0,130.0 L 145.0,142.0 L 131.0,153.0 L 115.0,162.0 L 100.0,168.0 L 85.0,172.0 L 72.0,174.0 L 54.0,174.0 L 40.0,172.0 L 30.0,168.0 L 30.0,167.0 L 45.0,165.0 L 66.0,159.0 L 84.0,151.0 L 103.0,140.0 L 117.0,130.0 L 128.0,121.0 L 138.0,112.0 L 148.0,102.0 L 159.0,88.0 L 169.0,73.0 L 180.0,52.0 L 182.0,48.0" fill="#F9F9F9"/>
</svg>
