<?xml version="1.0" ?>
<svg baseProfile="full" height="600px" version="1.1" viewBox="-20.1 -20.1 240.2 240.2" width="600px" xmlns="http://www.w3.org/2000/svg" xmlns:ev="http://www.w3.org/2001/xml-events" xmlns:xlink="http://www.w3.org/1999/xlink">
	<defs/>
	<path d="M 0.0,0.0 L 200.0,0.0 L 200.0,200.0 L 0.0,200.0 L 0.0,0.0" fill="#FDFDFD"/>
	<path d="M 117.0,7.0 L 135.0,7.0 L 142.0,10.0 L 150.0,17.0 L 157.0,27.0 L 163.0,41.0 L 167.0,58.0 L 168.0,68.0 L 168.0,90.0 L 163.0,113.0 L 157.0,129.0 L 148.0,145.0 L 140.0,155.0 L 131.0,165.0 L 122.0,173.0 L 107.0,183.0 L 92.0,190.0 L 81.0,193.0 L 63.0,193.0 L 56.0,189.0 L 51.0,184.0 L 46.0,178.0 L 39.0,164.0 L 34.0,147.0 L 32.0,135.0 L 32.0,110.0 L 35.0,93.0 L 41.0,75.0 L 50.0,58.0 L 59.0,46.0 L 68.0,36.0 L 79.0,26.0 L 93.0,17.0 L 105.0,11.0 L 117.0,7.0" fill="#FBFBFB"/>
	<path d="M 121.0,14.0 L 133.0,14.0 L 130.0,24.0 L 117.0,62.0 L 105.0,91.0 L 88.0,128.0 L 76.0,153.0 L 61.0,183.0 L 54.0,177.0 L 48.0,166.0 L 44.0,156.0 L 40.0,140.0 L 40.0,105.0 L 44.0,88.0 L 51.0,71.0 L 59.0,58.0 L 67.0,48.0 L 74.0,40.0 L 85.0,31.0 L 99.0,22.0 L 112.0,16.0 L 121.0,14.0" fill="#FCFCFC"/>
	<path d="M 117.0,7.0 L 135.0,7.0 L 142.0,10.0 L 150.0,17.0 L 157.0,27.0 L 163.0,41.0 L 167.0,58.0 L 168.0,68.0 L 168.0,90.0 L 163.0,113.0 L 157.0,129.0 L 148.0,145.0 L 140.0,155.0 L 131.0,165.0 L 122.0,173.0 L 107.0,183.0 L 92.0,190.0 L 81.0,193.0 L 63.0,193.0 L 56.0,189.0 L 51.0,184.0 L 46.0,178.0 L 39.0,164.0 L 34.0,147.0 L 32.0,135.0 L 32.0,110.0 L 35.0,93.0 L 41.0,75.0 L 50.0,58.0 L 59.0,46.0 L 68.0,36.0 L 79.0,26.0 L 93.0,17.0 L 105.0,11.0 L 117.0,7.0 M 121.0,14.0 L 110.0,17.0 L 94.0,25.0 L 81.0,34.0 L 70.0,44.0 L 59.0,58.0 L 51.0,71.0 L 44.0,88.0 L 40.0,105.0 L 40.0,140.0 L 44.0,156.0 L 49.0,169.0 L 56.0,179.0 L 61.0,183.0 L 86.0,133.0 L 101.0,100.0 L 113.0,72.0 L 124.0,42.0 L 133.0,16.0 L 133.0,14.0 L 121.0,14.0 M 139.0,18.0 L 126.0,56.0 L 115.0,84.0 L 102.0,113.0 L 89.0,141.0 L 77.0,166.0 L 68.0,184.0 L 68.0,186.0 L 79.0,186.0 L 92.0,182.0 L 108.0,174.0 L 121.0,164.0 L 136.0,149.0 L 146.0,134.0 L 154.0,117.0 L 159.0,99.0 L 160.0,93.0 L 160.0,64.0 L 158.0,52.0 L 154.0,38.0 L 147.0,25.0 L 141.0,18.0 L 139.0,18.0" fill="#090909"/>
</svg>
