<?xml version="1.0" ?>
<svg baseProfile="full" height="600px" version="1.1" viewBox="-9.648000000000001 -9.648000000000001 115.296 115.296" width="600px" xmlns="http://www.w3.org/2000/svg" xmlns:ev="http://www.w3.org/2001/xml-events" xmlns:xlink="http://www.w3.org/1999/xlink">
	<defs/>
	<path d="M 0.0,0.0 L 96.0,0.0 L 96.0,96.0 L 0.0,96.0 L 0.0,0.0" fill="#FDFDFD"/>
	<path d="M 60.0,12.0 L 71.0,12.0 L 81.0,17.0 L 87.0,26.0 L 88.0,28.0 L 88.0,38.0 L 84.0,49.0 L 76.0,60.0 L 65.0,71.0 L 60.0,75.0 L 56.0,74.0 L 55.0,73.0 L 55.0,68.0 L 63.0,60.0 L 68.0,55.0 L 74.0,48.0 L 79.0,39.0 L 79.0,30.0 L 75.0,24.0 L 70.0,21.0 L 63.0,21.0 L 56.0,24.0 L 52.0,28.0 L 48.0,27.0 L 47.0,26.0 L 47.0,21.0 L 55.0,14.0 L 60.0,12.0" fill="#090909"/>
</svg>
