<?xml version="1.0" ?>
<svg baseProfile="full" height="600px" version="1.1" viewBox="-20.1 -20.1 240.2 240.2" width="600px" xmlns="http://www.w3.org/2000/svg" xmlns:ev="http://www.w3.org/2001/xml-events" xmlns:xlink="http://www.w3.org/1999/xlink">
	<defs/>
	<path d="M 0.0,0.0 L 200.0,0.0 L 200.0,200.0 L 0.0,200.0 L 0.0,0.0" fill="#FDFDFD"/>
	<path d="M 88.0,8.0 L 111.0,8.0 L 128.0,12.0 L 143.0,18.0 L 154.0,25.0 L 167.0,36.0 L 178.0,50.0 L 186.0,66.0 L 191.0,82.0 L 192.0,89.0 L 192.0,110.0 L 189.0,125.0 L 187.0,131.0 L 180.0,129.0 L 179.0,127.0 L 181.0,121.0 L 183.0,110.0 L 183.0,93.0 L 180.0,76.0 L 174.0,61.0 L 167.0,50.0 L 156.0,38.0 L 144.0,29.0 L 132.0,23.0 L 115.0,18.0 L 108.0,17.0 L 89.0,17.0 L 73.0,21.0 L 59.0,27.0 L 45.0,37.0 L 36.0,46.0 L 29.0,56.0 L 22.0,70.0 L 17.0,89.0 L 17.0,110.0 L 20.0,123.0 L 26.0,139.0 L 33.0,150.0 L 44.0,162.0 L 56.0,171.0 L 70.0,178.0 L 89.0,183.0 L 115.0,183.0 L 116.0,185.0 L 116.0,191.0 L 112.0,192.0 L 91.0,192.0 L 78.0,190.0 L 63.0,185.0 L 47.0,176.0 L 33.0,164.0 L 22.0,150.0 L 14.0,134.0 L 10.0,121.0 L 8.0,111.0 L 8.0,91.0 L 10.0,78.0 L 15.0,63.0 L 24.0,47.0 L 35.0,34.0 L 47.0,24.0 L 63.0,15.0 L 78.0,10.0 L 88.0,8.0" fill="#090909"/>
</svg>
