<?xml version="1.0" ?>
<svg baseProfile="full" height="600px" version="1.1" viewBox="-19.296000000000003 -19.296000000000003 230.592 230.592" width="600px" xmlns="http://www.w3.org/2000/svg" xmlns:ev="http://www.w3.org/2001/xml-events" xmlns:xlink="http://www.w3.org/1999/xlink">
	<defs/>
	<path d="M 0.0,0.0 L 192.0,0.0 L 192.0,192.0 L 0.0,192.0 L 0.0,0.0" fill="#FDFDFD"/>
	<path d="M 87.0,32.0 L 104.0,32.0 L 119.0,36.0 L 131.0,42.0 L 141.0,50.0 L 148.0,58.0 L 155.0,70.0 L 159.0,83.0 L 160.0,88.0 L 160.0,105.0 L 155.0,122.0 L 148.0,134.0 L 138.0,145.0 L 124.0,154.0 L 113.0,158.0 L 105.0,160.0 L 88.0,160.0 L 72.0,156.0 L 61.0,150.0 L 51.0,142.0 L 44.0,134.0 L 38.0,124.0 L 33.0,109.0 L 32.0,104.0 L 32.0,87.0 L 37.0,70.0 L 42.0,61.0 L 50.0,51.0 L 58.0,44.0 L 68.0,38.0 L 82.0,33.0 L 87.0,32.0" fill="#FDFDFD"/>
	<path d="M 96.0,16.0 L 105.0,16.0 L 117.0,18.0 L 132.0,24.0 L 142.0,30.0 L 153.0,39.0 L 163.0,51.0 L 171.0,66.0 L 175.0,79.0 L 176.0,84.0 L 176.0,106.0 L 173.0,119.0 L 168.0,132.0 L 162.0,142.0 L 153.0,153.0 L 141.0,163.0 L 125.0,171.0 L 117.0,174.0 L 106.0,176.0 L 84.0,176.0 L 69.0,172.0 L 53.0,164.0 L 45.0,158.0 L 36.0,150.0 L 26.0,136.0 L 19.0,120.0 L 19.0,116.0 L 31.0,113.0 L 35.0,114.0 L 41.0,128.0 L 50.0,140.0 L 58.0,147.0 L 72.0,155.0 L 88.0,159.0 L 105.0,159.0 L 122.0,154.0 L 134.0,147.0 L 144.0,138.0 L 153.0,124.0 L 157.0,113.0 L 159.0,105.0 L 159.0,88.0 L 156.0,75.0 L 149.0,61.0 L 141.0,51.0 L 131.0,43.0 L 119.0,37.0 L 104.0,33.0 L 96.0,32.0 L 96.0,16.0" fill="#7EB446"/>
	<path d="M 86.0,16.0 L 96.0,16.0 L 96.0,32.0 L 82.0,34.0 L 68.0,39.0 L 58.0,45.0 L 48.0,54.0 L 41.0,64.0 L 36.0,76.0 L 33.0,87.0 L 33.0,104.0 L 35.0,114.0 L 26.0,115.0 L 18.0,117.0 L 16.0,105.0 L 16.0,86.0 L 20.0,69.0 L 28.0,53.0 L 38.0,40.0 L 47.0,32.0 L 60.0,24.0 L 76.0,18.0 L 86.0,16.0" fill="#CFD8DB"/>
</svg>
