<?xml version="1.0" ?>
<svg baseProfile="full" height="600px" version="1.1" viewBox="-20.1 -20.1 240.2 240.2" width="600px" xmlns="http://www.w3.org/2000/svg" xmlns:ev="http://www.w3.org/2001/xml-events" xmlns:xlink="http://www.w3.org/1999/xlink">
	<defs/>
	<path d="M 0.0,0.0 L 200.0,0.0 L 200.0,200.0 L 0.0,200.0 L 0.0,0.0" fill="#FCFCFC"/>
	<path d="M 88.0,8.0 L 109.0,8.0 L 126.0,11.0 L 145.0,19.0 L 158.0,28.0 L 168.0,37.0 L 178.0,50.0 L 186.0,66.0 L 191.0,82.0 L 192.0,89.0 L 192.0,110.0 L 189.0,125.0 L 183.0,141.0 L 175.0,154.0 L 164.0,167.0 L 150.0,178.0 L 134.0,186.0 L 122.0,190.0 L 119.0,190.0 L 118.0,182.0 L 137.0,175.0 L 150.0,167.0 L 162.0,156.0 L 170.0,146.0 L 178.0,130.0 L 182.0,116.0 L 183.0,109.0 L 183.0,90.0 L 180.0,76.0 L 174.0,61.0 L 166.0,49.0 L 157.0,39.0 L 147.0,31.0 L 137.0,25.0 L 121.0,19.0 L 110.0,17.0 L 89.0,17.0 L 73.0,21.0 L 61.0,26.0 L 50.0,33.0 L 38.0,44.0 L 29.0,56.0 L 22.0,70.0 L 18.0,83.0 L 17.0,89.0 L 17.0,110.0 L 20.0,123.0 L 26.0,139.0 L 33.0,150.0 L 44.0,162.0 L 54.0,170.0 L 70.0,178.0 L 83.0,182.0 L 89.0,183.0 L 88.0,191.0 L 78.0,190.0 L 63.0,185.0 L 47.0,176.0 L 33.0,164.0 L 22.0,150.0 L 14.0,134.0 L 10.0,122.0 L 8.0,111.0 L 8.0,89.0 L 11.0,74.0 L 17.0,59.0 L 25.0,46.0 L 34.0,35.0 L 47.0,24.0 L 63.0,15.0 L 78.0,10.0 L 88.0,8.0" fill="#080808"/>
</svg>
