<?xml version="1.0" ?>
<svg baseProfile="full" height="600px" version="1.1" viewBox="-20.1 -20.1 240.2 240.2" width="600px" xmlns="http://www.w3.org/2000/svg" xmlns:ev="http://www.w3.org/2001/xml-events" xmlns:xlink="http://www.w3.org/1999/xlink">
	<defs/>
	<path d="M 0.0,0.0 L 200.0,0.0 L 200.0,200.0 L 0.0,200.0 L 0.0,0.0" fill="#FDFDFD"/>
	<path d="M 145.0,56.0 L 155.0,56.0 L 168.0,59.0 L 178.0,65.0 L 184.0,70.0 L 191.0,80.0 L 195.0,90.0 L 196.0,97.0 L 196.0,108.0 L 193.0,119.0 L 188.0,129.0 L 181.0,137.0 L 170.0,144.0 L 161.0,147.0 L 156.0,148.0 L 145.0,148.0 L 135.0,146.0 L 123.0,140.0 L 116.0,134.0 L 107.0,121.0 L 101.0,112.0 L 101.0,110.0 L 99.0,110.0 L 97.0,115.0 L 87.0,130.0 L 82.0,136.0 L 72.0,143.0 L 61.0,147.0 L 56.0,148.0 L 45.0,148.0 L 40.0,147.0 L 41.0,140.0 L 44.0,139.0 L 57.0,139.0 L 70.0,134.0 L 80.0,125.0 L 90.0,109.0 L 94.0,103.0 L 92.0,98.0 L 81.0,81.0 L 81.0,78.0 L 85.0,75.0 L 88.0,75.0 L 99.0,92.0 L 99.0,94.0 L 101.0,94.0 L 103.0,89.0 L 113.0,74.0 L 118.0,68.0 L 128.0,61.0 L 134.0,58.0 L 145.0,56.0" fill="#FBFBFB"/>
	<path d="M 145.0,56.0 L 155.0,56.0 L 168.0,59.0 L 178.0,65.0 L 184.0,70.0 L 191.0,80.0 L 195.0,90.0 L 196.0,97.0 L 196.0,108.0 L 193.0,119.0 L 188.0,129.0 L 181.0,137.0 L 170.0,144.0 L 161.0,147.0 L 156.0,148.0 L 145.0,148.0 L 135.0,146.0 L 123.0,140.0 L 116.0,134.0 L 107.0,121.0 L 101.0,112.0 L 101.0,110.0 L 99.0,110.0 L 97.0,115.0 L 87.0,130.0 L 82.0,136.0 L 72.0,143.0 L 61.0,147.0 L 56.0,148.0 L 45.0,148.0 L 40.0,147.0 L 41.0,140.0 L 44.0,139.0 L 57.0,139.0 L 70.0,134.0 L 80.0,125.0 L 90.0,109.0 L 94.0,103.0 L 92.0,98.0 L 81.0,81.0 L 81.0,78.0 L 85.0,75.0 L 88.0,75.0 L 99.0,92.0 L 99.0,94.0 L 101.0,94.0 L 103.0,89.0 L 113.0,74.0 L 118.0,68.0 L 128.0,61.0 L 134.0,58.0 L 145.0,56.0 M 143.0,64.0 L 132.0,68.0 L 124.0,74.0 L 117.0,82.0 L 107.0,98.0 L 105.0,103.0 L 120.0,126.0 L 127.0,133.0 L 139.0,139.0 L 144.0,140.0 L 157.0,140.0 L 170.0,135.0 L 180.0,126.0 L 185.0,118.0 L 188.0,109.0 L 188.0,96.0 L 185.0,86.0 L 179.0,77.0 L 170.0,69.0 L 160.0,65.0 L 156.0,64.0 L 143.0,64.0" fill="#060606"/>
</svg>
