<?xml version="1.0" ?>
<svg baseProfile="full" height="600px" version="1.1" viewBox="-20.1 -20.1 240.2 240.2" width="600px" xmlns="http://www.w3.org/2000/svg" xmlns:ev="http://www.w3.org/2001/xml-events" xmlns:xlink="http://www.w3.org/1999/xlink">
	<defs/>
	<path d="M 0.0,0.0 L 200.0,0.0 L 200.0,200.0 L 0.0,200.0 L 0.0,0.0" fill="#FDFDFD"/>
	<path d="M 100.0,8.0 L 109.0,8.0 L 125.0,11.0 L 141.0,17.0 L 154.0,25.0 L 167.0,36.0 L 178.0,50.0 L 186.0,66.0 L 191.0,82.0 L 192.0,89.0 L 192.0,110.0 L 189.0,125.0 L 183.0,141.0 L 175.0,154.0 L 164.0,167.0 L 150.0,178.0 L 134.0,186.0 L 130.0,187.0 L 128.0,183.0 L 128.0,179.0 L 144.0,171.0 L 155.0,163.0 L 165.0,153.0 L 174.0,139.0 L 179.0,127.0 L 181.0,121.0 L 183.0,109.0 L 183.0,90.0 L 180.0,77.0 L 175.0,63.0 L 166.0,49.0 L 157.0,39.0 L 147.0,31.0 L 137.0,25.0 L 121.0,19.0 L 100.0,16.0 L 100.0,8.0" fill="#080808"/>
</svg>
