<?xml version="1.0" ?>
<svg baseProfile="full" height="600px" version="1.1" viewBox="-12.864 -12.864 153.728 153.728" width="600px" xmlns="http://www.w3.org/2000/svg" xmlns:ev="http://www.w3.org/2001/xml-events" xmlns:xlink="http://www.w3.org/1999/xlink">
	<defs/>
	<path d="M 0.0,0.0 L 128.0,0.0 L 128.0,128.0 L 0.0,128.0 L 0.0,0.0" fill="#FDFDFD"/>
	<path d="M 31.0,20.0 L 43.0,20.0 L 54.0,24.0 L 63.0,30.0 L 67.0,35.0 L 62.0,39.0 L 57.0,37.0 L 48.0,31.0 L 43.0,29.0 L 33.0,29.0 L 25.0,33.0 L 19.0,40.0 L 17.0,45.0 L 17.0,53.0 L 21.0,61.0 L 63.0,103.0 L 67.0,101.0 L 106.0,62.0 L 110.0,63.0 L 113.0,65.0 L 112.0,69.0 L 65.0,116.0 L 61.0,114.0 L 15.0,68.0 L 10.0,60.0 L 8.0,55.0 L 8.0,43.0 L 14.0,31.0 L 22.0,24.0 L 31.0,20.0" fill="#0B0B0B"/>
</svg>
