<?xml version="1.0" ?>
<svg baseProfile="full" height="600px" version="1.1" viewBox="-20.1 -20.1 240.2 240.2" width="600px" xmlns="http://www.w3.org/2000/svg" xmlns:ev="http://www.w3.org/2001/xml-events" xmlns:xlink="http://www.w3.org/1999/xlink">
	<defs/>
	<path d="M 0.0,0.0 L 200.0,0.0 L 200.0,200.0 L 0.0,200.0 L 0.0,0.0" fill="#FDFDFD"/>
	<path d="M 88.0,8.0 L 109.0,8.0 L 125.0,11.0 L 141.0,17.0 L 154.0,25.0 L 167.0,36.0 L 178.0,50.0 L 186.0,66.0 L 191.0,82.0 L 192.0,89.0 L 192.0,110.0 L 189.0,125.0 L 183.0,141.0 L 175.0,154.0 L 164.0,167.0 L 150.0,178.0 L 134.0,186.0 L 117.0,191.0 L 110.0,192.0 L 91.0,192.0 L 79.0,190.0 L 68.0,187.0 L 67.0,184.0 L 69.0,179.0 L 77.0,180.0 L 83.0,182.0 L 90.0,183.0 L 111.0,183.0 L 127.0,179.0 L 141.0,173.0 L 154.0,164.0 L 165.0,153.0 L 172.0,142.0 L 177.0,132.0 L 181.0,119.0 L 183.0,111.0 L 183.0,89.0 L 178.0,70.0 L 171.0,56.0 L 162.0,44.0 L 154.0,36.0 L 144.0,29.0 L 132.0,23.0 L 115.0,18.0 L 108.0,17.0 L 89.0,17.0 L 70.0,22.0 L 54.0,30.0 L 43.0,39.0 L 35.0,47.0 L 26.0,61.0 L 20.0,75.0 L 12.0,74.0 L 13.0,68.0 L 21.0,52.0 L 29.0,41.0 L 37.0,32.0 L 50.0,22.0 L 66.0,14.0 L 82.0,9.0 L 88.0,8.0" fill="#080808"/>
</svg>
