<?xml version="1.0" ?>
<svg baseProfile="full" height="600px" version="1.1" viewBox="-20.1 -20.1 240.2 240.2" width="600px" xmlns="http://www.w3.org/2000/svg" xmlns:ev="http://www.w3.org/2001/xml-events" xmlns:xlink="http://www.w3.org/1999/xlink">
	<defs/>
	<path d="M 0.0,0.0 L 200.0,0.0 L 200.0,200.0 L 0.0,200.0 L 0.0,0.0" fill="#FDFDFD"/>
	<path d="M 184.0,70.0 L 188.0,71.0 L 191.0,82.0 L 192.0,91.0 L 192.0,110.0 L 189.0,125.0 L 183.0,141.0 L 175.0,154.0 L 164.0,167.0 L 150.0,178.0 L 134.0,186.0 L 122.0,190.0 L 119.0,190.0 L 118.0,182.0 L 126.0,179.0 L 139.0,174.0 L 150.0,167.0 L 162.0,156.0 L 171.0,144.0 L 177.0,132.0 L 181.0,119.0 L 183.0,110.0 L 183.0,90.0 L 180.0,76.0 L 181.0,71.0 L 184.0,70.0" fill="#090909"/>
</svg>
