<?xml version="1.0" ?>
<svg baseProfile="full" height="600px" version="1.1" viewBox="-9.648000000000001 -9.648000000000001 115.296 115.296" width="600px" xmlns="http://www.w3.org/2000/svg" xmlns:ev="http://www.w3.org/2001/xml-events" xmlns:xlink="http://www.w3.org/1999/xlink">
	<defs/>
	<path d="M 0.0,0.0 L 96.0,0.0 L 96.0,96.0 L 0.0,96.0 L 0.0,0.0" fill="#FCFCFC"/>
	<path d="M 80.0,41.0 L 87.0,41.0 L 88.0,42.0 L 88.0,54.0 L 86.0,62.0 L 80.0,73.0 L 73.0,80.0 L 60.0,87.0 L 54.0,88.0 L 40.0,88.0 L 29.0,84.0 L 20.0,77.0 L 14.0,70.0 L 10.0,62.0 L 9.0,55.0 L 17.0,54.0 L 22.0,66.0 L 27.0,72.0 L 36.0,77.0 L 41.0,79.0 L 54.0,79.0 L 66.0,74.0 L 71.0,70.0 L 77.0,60.0 L 79.0,52.0 L 80.0,41.0" fill="#080808"/>
</svg>
