<?xml version="1.0" ?>
<svg baseProfile="full" height="600px" version="1.1" viewBox="-9.648000000000001 -9.648000000000001 115.296 115.296" width="600px" xmlns="http://www.w3.org/2000/svg" xmlns:ev="http://www.w3.org/2001/xml-events" xmlns:xlink="http://www.w3.org/1999/xlink">
	<defs/>
	<path d="M 0.0,0.0 L 96.0,0.0 L 96.0,96.0 L 0.0,96.0 L 0.0,0.0" fill="#FCFCFC"/>
	<path d="M 48.0,8.0 L 58.0,9.0 L 68.0,13.0 L 76.0,19.0 L 82.0,26.0 L 87.0,36.0 L 88.0,40.0 L 88.0,54.0 L 86.0,62.0 L 80.0,73.0 L 73.0,80.0 L 60.0,87.0 L 48.0,88.0 L 48.0,80.0 L 60.0,77.0 L 70.0,71.0 L 76.0,62.0 L 79.0,52.0 L 79.0,41.0 L 73.0,29.0 L 68.0,24.0 L 60.0,19.0 L 48.0,16.0 L 48.0,8.0" fill="#080808"/>
</svg>
