<?xml version="1.0" ?>
<svg baseProfile="full" height="600px" version="1.1" viewBox="-9.648000000000001 -9.648000000000001 115.296 115.296" width="600px" xmlns="http://www.w3.org/2000/svg" xmlns:ev="http://www.w3.org/2001/xml-events" xmlns:xlink="http://www.w3.org/1999/xlink">
	<defs/>
	<path d="M 0.0,0.0 L 96.0,0.0 L 96.0,96.0 L 0.0,96.0 L 0.0,0.0" fill="#FBFBFB"/>
	<path d="M 0.0,0.0 L 96.0,0.0 L 96.0,42.0 L 88.0,43.0 L 88.0,52.0 L 83.0,60.0 L 76.0,64.0 L 67.0,64.0 L 61.0,60.0 L 55.0,52.0 L 46.0,38.0 L 39.0,30.0 L 31.0,26.0 L 27.0,25.0 L 18.0,25.0 L 10.0,29.0 L 3.0,37.0 L 1.0,42.0 L 0.0,42.0 L 0.0,0.0" fill="#FCFCFC"/>
	<path d="M 18.0,24.0 L 27.0,24.0 L 36.0,27.0 L 45.0,35.0 L 55.0,50.0 L 61.0,59.0 L 67.0,63.0 L 76.0,63.0 L 84.0,58.0 L 87.0,52.0 L 88.0,43.0 L 96.0,42.0 L 96.0,53.0 L 92.0,62.0 L 85.0,69.0 L 77.0,72.0 L 67.0,72.0 L 57.0,67.0 L 50.0,60.0 L 36.0,38.0 L 31.0,34.0 L 28.0,33.0 L 19.0,33.0 L 13.0,37.0 L 9.0,43.0 L 9.0,52.0 L 13.0,59.0 L 20.0,63.0 L 29.0,63.0 L 35.0,60.0 L 40.0,66.0 L 32.0,71.0 L 29.0,72.0 L 18.0,72.0 L 10.0,68.0 L 2.0,59.0 L 0.0,53.0 L 0.0,42.0 L 4.0,34.0 L 11.0,27.0 L 18.0,24.0" fill="#080808"/>
</svg>
