<?xml version="1.0" ?>
<svg baseProfile="full" height="600px" version="1.1" viewBox="-16.08 -16.08 192.16 192.16" width="600px" xmlns="http://www.w3.org/2000/svg" xmlns:ev="http://www.w3.org/2001/xml-events" xmlns:xlink="http://www.w3.org/1999/xlink">
	<defs/>
	<path d="M 0.0,0.0 L 160.0,0.0 L 160.0,160.0 L 0.0,160.0 L 0.0,0.0" fill="#FDFDFD"/>
	<path d="M 151.0,66.0 L 155.0,66.0 L 156.0,69.0 L 156.0,90.0 L 152.0,106.0 L 144.0,122.0 L 136.0,132.0 L 129.0,139.0 L 115.0,148.0 L 103.0,153.0 L 90.0,156.0 L 69.0,156.0 L 54.0,152.0 L 38.0,144.0 L 28.0,136.0 L 21.0,129.0 L 12.0,115.0 L 7.0,104.0 L 5.0,93.0 L 9.0,93.0 L 13.0,105.0 L 20.0,119.0 L 27.0,128.0 L 35.0,136.0 L 48.0,144.0 L 61.0,149.0 L 70.0,151.0 L 89.0,151.0 L 105.0,147.0 L 119.0,140.0 L 129.0,132.0 L 138.0,122.0 L 145.0,110.0 L 150.0,94.0 L 151.0,89.0 L 151.0,66.0" fill="#6F8196"/>
</svg>
