<?xml version="1.0" ?>
<svg baseProfile="full" height="600px" version="1.1" viewBox="-9.648000000000001 -9.648000000000001 115.296 115.296" width="600px" xmlns="http://www.w3.org/2000/svg" xmlns:ev="http://www.w3.org/2001/xml-events" xmlns:xlink="http://www.w3.org/1999/xlink">
	<defs/>
	<path d="M 0.0,0.0 L 96.0,0.0 L 96.0,96.0 L 0.0,96.0 L 0.0,0.0" fill="#8F8F8F"/>
	<path d="M 0.0,0.0 L 96.0,0.0 L 96.0,96.0 L 0.0,96.0 L 0.0,0.0 M 40.0,8.0 L 30.0,12.0 L 21.0,18.0 L 14.0,26.0 L 9.0,36.0 L 8.0,40.0 L 8.0,55.0 L 12.0,67.0 L 18.0,75.0 L 27.0,83.0 L 36.0,87.0 L 40.0,88.0 L 56.0,88.0 L 69.0,83.0 L 79.0,74.0 L 85.0,65.0 L 88.0,56.0 L 88.0,40.0 L 84.0,29.0 L 78.0,21.0 L 70.0,14.0 L 62.0,10.0 L 55.0,8.0 L 40.0,8.0" fill="#FCFCFC"/>
	<path d="M 48.0,8.0 L 55.0,8.0 L 67.0,12.0 L 75.0,18.0 L 83.0,27.0 L 87.0,36.0 L 88.0,40.0 L 88.0,56.0 L 83.0,69.0 L 74.0,79.0 L 65.0,85.0 L 56.0,88.0 L 40.0,88.0 L 29.0,84.0 L 21.0,78.0 L 14.0,70.0 L 10.0,62.0 L 8.0,55.0 L 8.0,40.0 L 10.0,35.0 L 18.0,37.0 L 17.0,41.0 L 17.0,54.0 L 22.0,66.0 L 27.0,72.0 L 41.0,79.0 L 53.0,79.0 L 62.0,76.0 L 71.0,70.0 L 77.0,60.0 L 79.0,52.0 L 79.0,41.0 L 73.0,29.0 L 68.0,24.0 L 60.0,19.0 L 48.0,16.0 L 48.0,8.0" fill="#070707"/>
</svg>
