<?xml version="1.0" ?>
<svg baseProfile="full" height="600px" version="1.1" viewBox="-12.864 -12.864 153.728 153.728" width="600px" xmlns="http://www.w3.org/2000/svg" xmlns:ev="http://www.w3.org/2001/xml-events" xmlns:xlink="http://www.w3.org/1999/xlink">
	<defs/>
	<path d="M 0.0,0.0 L 128.0,0.0 L 128.0,128.0 L 0.0,128.0 L 0.0,0.0" fill="#FDFDFD"/>
	<path d="M 64.0,16.0 L 73.0,16.0 L 86.0,21.0 L 95.0,27.0 L 103.0,35.0 L 109.0,46.0 L 112.0,55.0 L 112.0,70.0 L 110.0,79.0 L 103.0,93.0 L 93.0,103.0 L 77.0,111.0 L 64.0,112.0 L 64.0,104.0 L 80.0,100.0 L 90.0,94.0 L 97.0,86.0 L 102.0,74.0 L 103.0,69.0 L 103.0,56.0 L 98.0,44.0 L 92.0,36.0 L 84.0,30.0 L 74.0,26.0 L 64.0,24.0 L 64.0,16.0" fill="#080808"/>
</svg>
