<?xml version="1.0" ?>
<svg baseProfile="full" height="600px" version="1.1" viewBox="-12.864 -12.864 153.728 153.728" width="600px" xmlns="http://www.w3.org/2000/svg" xmlns:ev="http://www.w3.org/2001/xml-events" xmlns:xlink="http://www.w3.org/1999/xlink">
	<defs/>
	<path d="M 0.0,0.0 L 128.0,0.0 L 128.0,128.0 L 0.0,128.0 L 0.0,0.0" fill="#FDFDFD"/>
	<path d="M 29.0,36.0 L 41.0,36.0 L 50.0,39.0 L 59.0,47.0 L 63.0,53.0 L 63.0,55.0 L 65.0,55.0 L 67.0,50.0 L 75.0,41.0 L 85.0,36.0 L 97.0,36.0 L 106.0,39.0 L 115.0,47.0 L 120.0,57.0 L 120.0,70.0 L 116.0,79.0 L 109.0,87.0 L 101.0,91.0 L 98.0,92.0 L 85.0,92.0 L 77.0,88.0 L 70.0,82.0 L 65.0,75.0 L 65.0,73.0 L 63.0,73.0 L 61.0,78.0 L 54.0,86.0 L 52.0,86.0 L 48.0,81.0 L 50.0,77.0 L 56.0,69.0 L 58.0,65.0 L 57.0,60.0 L 50.0,50.0 L 43.0,46.0 L 40.0,45.0 L 31.0,45.0 L 27.0,47.0 L 23.0,46.0 L 21.0,43.0 L 22.0,39.0 L 29.0,36.0" fill="#080808"/>
	<path d="M 87.0,44.0 L 96.0,44.0 L 105.0,48.0 L 111.0,56.0 L 112.0,59.0 L 112.0,69.0 L 107.0,78.0 L 99.0,83.0 L 97.0,84.0 L 87.0,84.0 L 81.0,81.0 L 74.0,74.0 L 69.0,65.0 L 70.0,60.0 L 78.0,49.0 L 84.0,45.0 L 87.0,44.0" fill="#F9F9F9"/>
</svg>
