<?xml version="1.0" ?>
<svg baseProfile="full" height="600px" version="1.1" viewBox="-12.864 -12.864 153.728 153.728" width="600px" xmlns="http://www.w3.org/2000/svg" xmlns:ev="http://www.w3.org/2001/xml-events" xmlns:xlink="http://www.w3.org/1999/xlink">
	<defs/>
	<path d="M 0.0,0.0 L 128.0,0.0 L 128.0,128.0 L 0.0,128.0 L 0.0,0.0" fill="#FCFCFC"/>
	<path d="M 55.0,16.0 L 73.0,16.0 L 86.0,21.0 L 95.0,27.0 L 103.0,35.0 L 109.0,46.0 L 112.0,55.0 L 112.0,70.0 L 110.0,79.0 L 103.0,93.0 L 93.0,103.0 L 79.0,110.0 L 72.0,112.0 L 55.0,112.0 L 47.0,109.0 L 48.0,103.0 L 53.0,102.0 L 58.0,103.0 L 69.0,103.0 L 82.0,99.0 L 91.0,93.0 L 97.0,86.0 L 102.0,74.0 L 103.0,71.0 L 103.0,57.0 L 99.0,46.0 L 93.0,37.0 L 86.0,31.0 L 78.0,27.0 L 70.0,25.0 L 57.0,25.0 L 46.0,29.0 L 37.0,35.0 L 31.0,42.0 L 26.0,52.0 L 19.0,51.0 L 18.0,48.0 L 25.0,35.0 L 35.0,25.0 L 51.0,17.0 L 55.0,16.0" fill="#080808"/>
</svg>
