<?xml version="1.0" ?>
<svg baseProfile="full" height="600px" version="1.1" viewBox="-20.1 -20.1 240.2 240.2" width="600px" xmlns="http://www.w3.org/2000/svg" xmlns:ev="http://www.w3.org/2001/xml-events" xmlns:xlink="http://www.w3.org/1999/xlink">
	<defs/>
	<path d="M 0.0,0.0 L 200.0,0.0 L 200.0,200.0 L 0.0,200.0 L 0.0,0.0" fill="#FDFDFD"/>
	<path d="M 91.0,8.0 L 109.0,8.0 L 126.0,11.0 L 145.0,19.0 L 158.0,28.0 L 164.0,33.0 L 163.0,37.0 L 160.0,40.0 L 156.0,38.0 L 146.0,30.0 L 130.0,22.0 L 116.0,18.0 L 108.0,17.0 L 89.0,17.0 L 73.0,21.0 L 59.0,27.0 L 45.0,37.0 L 36.0,46.0 L 29.0,56.0 L 22.0,70.0 L 17.0,89.0 L 17.0,108.0 L 19.0,121.0 L 26.0,139.0 L 34.0,151.0 L 43.0,161.0 L 53.0,169.0 L 65.0,176.0 L 76.0,180.0 L 89.0,183.0 L 111.0,183.0 L 127.0,179.0 L 141.0,173.0 L 154.0,164.0 L 157.0,161.0 L 161.0,163.0 L 163.0,165.0 L 163.0,168.0 L 150.0,178.0 L 134.0,186.0 L 117.0,191.0 L 110.0,192.0 L 89.0,192.0 L 74.0,189.0 L 59.0,183.0 L 46.0,175.0 L 33.0,164.0 L 22.0,150.0 L 14.0,134.0 L 10.0,122.0 L 8.0,109.0 L 8.0,88.0 L 12.0,71.0 L 19.0,55.0 L 28.0,42.0 L 37.0,32.0 L 50.0,22.0 L 66.0,14.0 L 82.0,9.0 L 91.0,8.0" fill="#080808"/>
</svg>
