<?xml version="1.0" ?>
<svg baseProfile="full" height="600px" version="1.1" viewBox="-19.296000000000003 -19.296000000000003 230.592 230.592" width="600px" xmlns="http://www.w3.org/2000/svg" xmlns:ev="http://www.w3.org/2001/xml-events" xmlns:xlink="http://www.w3.org/1999/xlink">
	<defs/>
	<path d="M 0.0,0.0 L 192.0,0.0 L 192.0,192.0 L 0.0,192.0 L 0.0,0.0" fill="#FEFEFD"/>
	<path d="M 68.0,12.0 L 124.0,12.0 L 125.0,34.0 L 128.0,46.0 L 133.0,53.0 L 141.0,60.0 L 145.0,62.0 L 154.0,63.0 L 162.0,67.0 L 167.0,72.0 L 168.0,75.0 L 168.0,86.0 L 164.0,94.0 L 156.0,101.0 L 149.0,104.0 L 139.0,106.0 L 137.0,107.0 L 136.0,117.0 L 132.0,121.0 L 126.0,120.0 L 125.0,117.0 L 114.0,122.0 L 107.0,124.0 L 85.0,124.0 L 75.0,121.0 L 62.0,113.0 L 56.0,111.0 L 55.0,107.0 L 50.0,105.0 L 40.0,103.0 L 30.0,97.0 L 26.0,91.0 L 24.0,85.0 L 24.0,75.0 L 28.0,69.0 L 33.0,65.0 L 38.0,63.0 L 50.0,61.0 L 57.0,54.0 L 62.0,49.0 L 65.0,44.0 L 67.0,35.0 L 68.0,12.0" fill="#FDA627"/>
	<path d="M 84.0,12.0 L 108.0,12.0 L 109.0,47.0 L 114.0,72.0 L 120.0,94.0 L 119.0,98.0 L 112.0,104.0 L 106.0,107.0 L 101.0,108.0 L 90.0,108.0 L 80.0,104.0 L 72.0,97.0 L 74.0,87.0 L 80.0,63.0 L 83.0,48.0 L 84.0,12.0" fill="#FEB64C"/>
	<path d="M 135.0,107.0 L 136.0,107.0 L 136.0,117.0 L 132.0,121.0 L 126.0,120.0 L 124.0,117.0 L 125.0,112.0 L 135.0,107.0" fill="#82B548"/>
	<path d="M 56.0,107.0 L 61.0,109.0 L 76.0,117.0 L 89.0,123.0 L 85.0,124.0 L 75.0,121.0 L 62.0,113.0 L 56.0,111.0 L 56.0,107.0" fill="#D3902C"/>
	<path d="M 122.0,114.0 L 124.0,114.0 L 124.0,117.0 L 114.0,122.0 L 105.0,124.0 L 106.0,122.0 L 122.0,114.0" fill="#D18E2B"/>
	<path d="M 56.0,107.0 L 61.0,109.0 L 63.0,110.0 L 62.0,113.0 L 56.0,111.0 L 56.0,107.0" fill="#8CB54B"/>
</svg>
