<?xml version="1.0" ?>
<svg baseProfile="full" height="600px" version="1.1" viewBox="-12.864 -12.864 153.728 153.728" width="600px" xmlns="http://www.w3.org/2000/svg" xmlns:ev="http://www.w3.org/2001/xml-events" xmlns:xlink="http://www.w3.org/1999/xlink">
	<defs/>
	<path d="M 0.0,0.0 L 128.0,0.0 L 128.0,128.0 L 0.0,128.0 L 0.0,0.0" fill="#FDFDFD"/>
	<path d="M 105.0,49.0 L 110.0,49.0 L 112.0,55.0 L 112.0,70.0 L 110.0,79.0 L 103.0,93.0 L 93.0,103.0 L 77.0,111.0 L 70.0,112.0 L 55.0,112.0 L 43.0,108.0 L 36.0,104.0 L 38.0,100.0 L 40.0,97.0 L 46.0,99.0 L 56.0,103.0 L 69.0,103.0 L 82.0,99.0 L 91.0,93.0 L 97.0,86.0 L 102.0,74.0 L 103.0,69.0 L 103.0,56.0 L 102.0,50.0 L 105.0,49.0" fill="#090909"/>
</svg>
