<?xml version="1.0" ?>
<svg baseProfile="full" height="600px" version="1.1" viewBox="-19.296000000000003 -19.296000000000003 230.592 230.592" width="600px" xmlns="http://www.w3.org/2000/svg" xmlns:ev="http://www.w3.org/2001/xml-events" xmlns:xlink="http://www.w3.org/1999/xlink">
	<defs/>
	<path d="M 0.0,0.0 L 192.0,0.0 L 192.0,192.0 L 0.0,192.0 L 0.0,0.0" fill="#FEFEFD"/>
	<path d="M 68.0,12.0 L 124.0,12.0 L 125.0,36.0 L 127.0,46.0 L 132.0,56.0 L 141.0,65.0 L 141.0,67.0 L 148.0,67.0 L 159.0,71.0 L 165.0,78.0 L 166.0,80.0 L 166.0,93.0 L 162.0,101.0 L 153.0,107.0 L 141.0,109.0 L 137.0,111.0 L 136.0,142.0 L 133.0,145.0 L 127.0,145.0 L 124.0,141.0 L 123.0,129.0 L 118.0,128.0 L 115.0,136.0 L 110.0,137.0 L 108.0,135.0 L 108.0,128.0 L 84.0,128.0 L 82.0,133.0 L 76.0,134.0 L 72.0,130.0 L 71.0,123.0 L 68.0,121.0 L 65.0,121.0 L 64.0,128.0 L 62.0,130.0 L 57.0,129.0 L 56.0,128.0 L 55.0,111.0 L 51.0,109.0 L 39.0,107.0 L 31.0,102.0 L 27.0,96.0 L 26.0,93.0 L 26.0,80.0 L 30.0,74.0 L 35.0,70.0 L 42.0,67.0 L 50.0,66.0 L 60.0,56.0 L 64.0,48.0 L 67.0,39.0 L 68.0,12.0" fill="#FDA627"/>
	<path d="M 84.0,12.0 L 108.0,12.0 L 109.0,47.0 L 115.0,79.0 L 120.0,98.0 L 119.0,102.0 L 112.0,108.0 L 103.0,112.0 L 88.0,112.0 L 78.0,107.0 L 72.0,101.0 L 75.0,86.0 L 80.0,65.0 L 83.0,48.0 L 84.0,12.0" fill="#FEB64C"/>
	<path d="M 134.0,111.0 L 136.0,111.0 L 136.0,142.0 L 133.0,145.0 L 127.0,145.0 L 124.0,141.0 L 123.0,129.0 L 118.0,128.0 L 115.0,136.0 L 110.0,137.0 L 108.0,135.0 L 108.0,126.0 L 132.0,112.0 L 134.0,111.0" fill="#7FB344"/>
	<path d="M 56.0,111.0 L 62.0,113.0 L 84.0,126.0 L 83.0,132.0 L 80.0,134.0 L 74.0,133.0 L 72.0,130.0 L 71.0,123.0 L 68.0,121.0 L 65.0,121.0 L 64.0,128.0 L 62.0,130.0 L 57.0,129.0 L 56.0,128.0 L 56.0,111.0" fill="#84B345"/>
</svg>
