<?xml version="1.0" ?>
<svg baseProfile="full" height="600px" version="1.1" viewBox="-20.1 -20.1 240.2 240.2" width="600px" xmlns="http://www.w3.org/2000/svg" xmlns:ev="http://www.w3.org/2001/xml-events" xmlns:xlink="http://www.w3.org/1999/xlink">
	<defs/>
	<path d="M 0.0,0.0 L 200.0,0.0 L 200.0,200.0 L 0.0,200.0 L 0.0,0.0" fill="#FCFCFC"/>
	<path d="M 123.0,60.0 L 131.0,60.0 L 137.0,63.0 L 141.0,68.0 L 141.0,70.0 L 149.0,71.0 L 155.0,75.0 L 159.0,79.0 L 159.0,81.0 L 172.0,82.0 L 178.0,85.0 L 179.0,86.0 L 179.0,105.0 L 178.0,113.0 L 181.0,114.0 L 182.0,116.0 L 182.0,130.0 L 180.0,141.0 L 174.0,156.0 L 168.0,167.0 L 157.0,181.0 L 149.0,188.0 L 145.0,190.0 L 138.0,191.0 L 60.0,191.0 L 51.0,188.0 L 43.0,181.0 L 34.0,170.0 L 26.0,156.0 L 20.0,141.0 L 18.0,129.0 L 18.0,116.0 L 22.0,112.0 L 24.0,112.0 L 21.0,102.0 L 21.0,89.0 L 23.0,87.0 L 33.0,87.0 L 34.0,83.0 L 38.0,78.0 L 45.0,74.0 L 53.0,74.0 L 54.0,70.0 L 59.0,65.0 L 63.0,63.0 L 72.0,63.0 L 81.0,69.0 L 94.0,70.0 L 100.0,65.0 L 105.0,63.0 L 112.0,63.0 L 118.0,65.0 L 118.0,63.0 L 123.0,60.0" fill="#090909"/>
	<path d="M 29.0,143.0 L 171.0,143.0 L 170.0,148.0 L 161.0,165.0 L 152.0,176.0 L 144.0,183.0 L 139.0,184.0 L 60.0,184.0 L 53.0,181.0 L 45.0,173.0 L 36.0,160.0 L 29.0,146.0 L 29.0,143.0" fill="#FBFBFB"/>
	<path d="M 24.0,119.0 L 176.0,119.0 L 175.0,130.0 L 174.0,136.0 L 26.0,136.0 L 24.0,124.0 L 24.0,119.0" fill="#FBFBFB"/>
	<path d="M 146.0,88.0 L 164.0,88.0 L 171.0,89.0 L 172.0,90.0 L 172.0,105.0 L 170.0,112.0 L 147.0,112.0 L 151.0,108.0 L 158.0,104.0 L 157.0,100.0 L 151.0,101.0 L 140.0,108.0 L 135.0,112.0 L 122.0,112.0 L 123.0,106.0 L 129.0,97.0 L 137.0,91.0 L 146.0,88.0" fill="#FAFAFA"/>
	<path d="M 64.0,70.0 L 70.0,70.0 L 76.0,74.0 L 78.0,78.0 L 89.0,77.0 L 95.0,81.0 L 96.0,87.0 L 86.0,89.0 L 79.0,92.0 L 71.0,99.0 L 69.0,103.0 L 65.0,101.0 L 57.0,95.0 L 46.0,90.0 L 40.0,89.0 L 41.0,85.0 L 46.0,81.0 L 55.0,80.0 L 59.0,78.0 L 60.0,73.0 L 64.0,70.0" fill="#F8F8F8"/>
	<path d="M 125.0,67.0 L 131.0,67.0 L 135.0,71.0 L 136.0,76.0 L 146.0,77.0 L 150.0,81.0 L 136.0,85.0 L 126.0,91.0 L 119.0,100.0 L 117.0,102.0 L 111.0,94.0 L 103.0,89.0 L 101.0,79.0 L 99.0,75.0 L 105.0,70.0 L 112.0,70.0 L 116.0,72.0 L 121.0,71.0 L 125.0,67.0" fill="#F7F7F7"/>
	<path d="M 89.0,94.0 L 98.0,94.0 L 107.0,99.0 L 113.0,107.0 L 113.0,112.0 L 73.0,112.0 L 74.0,106.0 L 78.0,100.0 L 86.0,95.0 L 89.0,94.0" fill="#F9F9F9"/>
	<path d="M 28.0,94.0 L 41.0,95.0 L 54.0,100.0 L 63.0,108.0 L 65.0,112.0 L 48.0,112.0 L 41.0,104.0 L 37.0,105.0 L 38.0,110.0 L 39.0,112.0 L 32.0,112.0 L 29.0,104.0 L 28.0,94.0" fill="#F6F6F6"/>
</svg>
