<?xml version="1.0" ?>
<svg baseProfile="full" height="600px" version="1.1" viewBox="-20.1 -20.1 240.2 240.2" width="600px" xmlns="http://www.w3.org/2000/svg" xmlns:ev="http://www.w3.org/2001/xml-events" xmlns:xlink="http://www.w3.org/1999/xlink">
	<defs/>
	<path d="M 0.0,0.0 L 200.0,0.0 L 200.0,200.0 L 0.0,200.0 L 0.0,0.0" fill="#050505"/>
	<path d="M 0.0,0.0 L 200.0,0.0 L 200.0,200.0 L 0.0,200.0 L 0.0,0.0 M 127.0,40.0 L 121.0,44.0 L 118.0,45.0 L 115.0,44.0 L 104.0,44.0 L 94.0,50.0 L 93.0,53.0 L 78.0,51.0 L 72.0,46.0 L 67.0,44.0 L 57.0,44.0 L 49.0,49.0 L 45.0,54.0 L 45.0,56.0 L 38.0,56.0 L 30.0,60.0 L 23.0,67.0 L 22.0,72.0 L 10.0,72.0 L 8.0,74.0 L 8.0,85.0 L 11.0,98.0 L 12.0,100.0 L 8.0,101.0 L 4.0,105.0 L 4.0,117.0 L 7.0,133.0 L 15.0,153.0 L 24.0,168.0 L 35.0,181.0 L 43.0,188.0 L 50.0,191.0 L 55.0,192.0 L 142.0,192.0 L 152.0,190.0 L 160.0,186.0 L 169.0,177.0 L 180.0,162.0 L 188.0,146.0 L 193.0,133.0 L 196.0,116.0 L 196.0,105.0 L 192.0,101.0 L 190.0,101.0 L 192.0,92.0 L 192.0,71.0 L 188.0,67.0 L 169.0,63.0 L 162.0,56.0 L 153.0,52.0 L 147.0,52.0 L 146.0,47.0 L 139.0,41.0 L 137.0,40.0 L 127.0,40.0" fill="#FDFDFD"/>
	<path d="M 17.0,136.0 L 183.0,136.0 L 178.0,149.0 L 169.0,164.0 L 160.0,174.0 L 155.0,180.0 L 148.0,183.0 L 141.0,184.0 L 57.0,184.0 L 47.0,181.0 L 40.0,175.0 L 29.0,161.0 L 21.0,147.0 L 17.0,136.0" fill="#FCFCFC"/>
	<path d="M 12.0,108.0 L 188.0,108.0 L 188.0,117.0 L 186.0,127.0 L 185.0,128.0 L 15.0,128.0 L 14.0,127.0 L 12.0,116.0 L 12.0,108.0" fill="#FDFDFD"/>
	<path d="M 157.0,72.0 L 174.0,72.0 L 184.0,75.0 L 184.0,91.0 L 182.0,100.0 L 154.0,100.0 L 159.0,96.0 L 167.0,91.0 L 166.0,86.0 L 160.0,87.0 L 144.0,97.0 L 141.0,100.0 L 125.0,100.0 L 126.0,95.0 L 131.0,86.0 L 135.0,81.0 L 146.0,75.0 L 157.0,72.0" fill="#F8F8F8"/>
	<path d="M 59.0,52.0 L 66.0,52.0 L 72.0,56.0 L 75.0,61.0 L 80.0,60.0 L 87.0,60.0 L 92.0,63.0 L 96.0,68.0 L 96.0,72.0 L 85.0,73.0 L 76.0,77.0 L 68.0,83.0 L 63.0,91.0 L 56.0,85.0 L 47.0,79.0 L 30.0,73.0 L 32.0,69.0 L 37.0,65.0 L 39.0,64.0 L 49.0,63.0 L 55.0,54.0 L 59.0,52.0" fill="#F8F8F8"/>
	<path d="M 129.0,48.0 L 137.0,49.0 L 140.0,53.0 L 141.0,60.0 L 152.0,60.0 L 159.0,64.0 L 159.0,65.0 L 147.0,67.0 L 138.0,71.0 L 129.0,77.0 L 123.0,85.0 L 120.0,89.0 L 113.0,80.0 L 104.0,75.0 L 102.0,64.0 L 99.0,59.0 L 101.0,55.0 L 106.0,52.0 L 113.0,52.0 L 119.0,55.0 L 123.0,55.0 L 127.0,49.0 L 129.0,48.0" fill="#F9F9F9"/>
	<path d="M 86.0,80.0 L 97.0,80.0 L 107.0,85.0 L 114.0,93.0 L 115.0,100.0 L 69.0,100.0 L 70.0,93.0 L 78.0,84.0 L 86.0,80.0" fill="#FAFAFA"/>
	<path d="M 16.0,80.0 L 26.0,80.0 L 38.0,83.0 L 50.0,89.0 L 57.0,96.0 L 59.0,100.0 L 40.0,100.0 L 32.0,92.0 L 27.0,92.0 L 27.0,97.0 L 28.0,100.0 L 20.0,100.0 L 16.0,84.0 L 16.0,80.0" fill="#F7F7F7"/>
</svg>
