<?xml version="1.0" ?>
<svg baseProfile="full" height="600px" version="1.1" viewBox="-20.1 -20.1 240.2 240.2" width="600px" xmlns="http://www.w3.org/2000/svg" xmlns:ev="http://www.w3.org/2001/xml-events" xmlns:xlink="http://www.w3.org/1999/xlink">
	<defs/>
	<path d="M 0.0,0.0 L 200.0,0.0 L 200.0,200.0 L 0.0,200.0 L 0.0,0.0" fill="#080808"/>
	<path d="M 0.0,0.0 L 200.0,0.0 L 200.0,200.0 L 0.0,200.0 L 0.0,0.0 M 138.0,8.0 L 132.0,12.0 L 115.0,12.0 L 107.0,17.0 L 103.0,22.0 L 101.0,26.0 L 101.0,33.0 L 99.0,33.0 L 97.0,28.0 L 91.0,23.0 L 86.0,21.0 L 75.0,21.0 L 73.0,17.0 L 65.0,13.0 L 54.0,13.0 L 45.0,19.0 L 43.0,25.0 L 36.0,25.0 L 29.0,28.0 L 23.0,33.0 L 20.0,38.0 L 20.0,40.0 L 6.0,40.0 L 4.0,42.0 L 4.0,53.0 L 6.0,65.0 L 11.0,76.0 L 17.0,85.0 L 24.0,92.0 L 36.0,99.0 L 42.0,101.0 L 10.0,102.0 L 6.0,107.0 L 6.0,119.0 L 10.0,137.0 L 16.0,152.0 L 22.0,163.0 L 30.0,174.0 L 41.0,186.0 L 48.0,190.0 L 57.0,192.0 L 140.0,192.0 L 154.0,189.0 L 162.0,183.0 L 172.0,172.0 L 182.0,156.0 L 190.0,138.0 L 194.0,118.0 L 194.0,107.0 L 189.0,102.0 L 181.0,102.0 L 188.0,92.0 L 193.0,80.0 L 196.0,66.0 L 196.0,51.0 L 193.0,46.0 L 188.0,44.0 L 183.0,44.0 L 183.0,37.0 L 179.0,29.0 L 171.0,22.0 L 164.0,19.0 L 159.0,18.0 L 155.0,12.0 L 149.0,8.0 L 138.0,8.0" fill="#FBFBFB"/>
	<path d="M 19.0,137.0 L 181.0,137.0 L 178.0,146.0 L 170.0,161.0 L 162.0,171.0 L 154.0,180.0 L 147.0,183.0 L 140.0,184.0 L 57.0,184.0 L 48.0,181.0 L 41.0,175.0 L 30.0,161.0 L 21.0,144.0 L 19.0,137.0" fill="#FCFCFC"/>
	<path d="M 14.0,110.0 L 186.0,110.0 L 186.0,119.0 L 184.0,129.0 L 16.0,129.0 L 14.0,116.0 L 14.0,110.0" fill="#FDFDFD"/>
	<path d="M 159.0,50.0 L 176.0,50.0 L 188.0,52.0 L 188.0,65.0 L 186.0,77.0 L 178.0,93.0 L 169.0,101.0 L 167.0,102.0 L 132.0,102.0 L 138.0,93.0 L 149.0,83.0 L 162.0,74.0 L 169.0,70.0 L 171.0,70.0 L 171.0,64.0 L 165.0,64.0 L 152.0,72.0 L 143.0,79.0 L 133.0,88.0 L 128.0,93.0 L 128.0,81.0 L 133.0,67.0 L 142.0,57.0 L 152.0,52.0 L 159.0,50.0" fill="#F8F8F8"/>
	<path d="M 140.0,16.0 L 148.0,16.0 L 151.0,19.0 L 153.0,26.0 L 164.0,27.0 L 170.0,31.0 L 174.0,36.0 L 175.0,42.0 L 160.0,43.0 L 148.0,46.0 L 138.0,51.0 L 132.0,56.0 L 124.0,70.0 L 122.0,74.0 L 115.0,65.0 L 112.0,63.0 L 110.0,54.0 L 104.0,46.0 L 101.0,44.0 L 101.0,41.0 L 108.0,37.0 L 109.0,27.0 L 113.0,22.0 L 119.0,19.0 L 128.0,20.0 L 131.0,22.0 L 135.0,22.0 L 138.0,17.0 L 140.0,16.0" fill="#FAFAFA"/>
	<path d="M 55.0,21.0 L 64.0,21.0 L 70.0,26.0 L 71.0,30.0 L 76.0,29.0 L 86.0,29.0 L 91.0,33.0 L 93.0,37.0 L 93.0,48.0 L 101.0,53.0 L 103.0,58.0 L 88.0,58.0 L 78.0,62.0 L 70.0,69.0 L 66.0,74.0 L 59.0,62.0 L 50.0,52.0 L 40.0,46.0 L 28.0,42.0 L 30.0,37.0 L 36.0,33.0 L 47.0,31.0 L 53.0,23.0 L 55.0,21.0" fill="#FAFAFA"/>
	<path d="M 89.0,65.0 L 99.0,65.0 L 108.0,69.0 L 113.0,74.0 L 117.0,80.0 L 118.0,83.0 L 118.0,93.0 L 114.0,102.0 L 75.0,102.0 L 71.0,93.0 L 71.0,83.0 L 76.0,73.0 L 84.0,67.0 L 89.0,65.0" fill="#F9F9F9"/>
	<path d="M 12.0,48.0 L 20.0,48.0 L 30.0,50.0 L 42.0,55.0 L 52.0,64.0 L 58.0,74.0 L 62.0,86.0 L 61.0,90.0 L 50.0,81.0 L 36.0,69.0 L 28.0,61.0 L 28.0,59.0 L 23.0,59.0 L 22.0,64.0 L 29.0,72.0 L 36.0,79.0 L 47.0,88.0 L 53.0,93.0 L 53.0,94.0 L 46.0,94.0 L 34.0,89.0 L 26.0,83.0 L 19.0,75.0 L 14.0,64.0 L 12.0,54.0 L 12.0,48.0" fill="#F5F5F5"/>
</svg>
