<?xml version="1.0" ?>
<svg baseProfile="full" height="600px" version="1.1" viewBox="-20.1 -20.1 240.2 240.2" width="600px" xmlns="http://www.w3.org/2000/svg" xmlns:ev="http://www.w3.org/2001/xml-events" xmlns:xlink="http://www.w3.org/1999/xlink">
	<defs/>
	<path d="M 0.0,0.0 L 200.0,0.0 L 200.0,200.0 L 0.0,200.0 L 0.0,0.0" fill="#FBFBFB"/>
	<path d="M 0.0,0.0 L 200.0,0.0 L 200.0,200.0 L 0.0,200.0 L 0.0,0.0 M 88.0,15.0 L 78.0,24.0 L 75.0,28.0 L 53.0,28.0 L 49.0,33.0 L 45.0,45.0 L 45.0,49.0 L 36.0,52.0 L 28.0,56.0 L 25.0,59.0 L 25.0,70.0 L 26.0,75.0 L 26.0,82.0 L 16.0,94.0 L 16.0,103.0 L 26.0,115.0 L 25.0,125.0 L 24.0,130.0 L 24.0,137.0 L 29.0,142.0 L 42.0,148.0 L 44.0,148.0 L 46.0,158.0 L 49.0,166.0 L 53.0,170.0 L 74.0,170.0 L 81.0,178.0 L 87.0,183.0 L 93.0,183.0 L 106.0,175.0 L 114.0,176.0 L 123.0,179.0 L 129.0,179.0 L 134.0,175.0 L 142.0,162.0 L 143.0,161.0 L 159.0,159.0 L 164.0,155.0 L 165.0,153.0 L 167.0,134.0 L 179.0,125.0 L 182.0,121.0 L 182.0,114.0 L 176.0,101.0 L 177.0,96.0 L 182.0,86.0 L 182.0,77.0 L 174.0,70.0 L 167.0,65.0 L 166.0,46.0 L 161.0,41.0 L 143.0,37.0 L 135.0,23.0 L 131.0,20.0 L 123.0,20.0 L 111.0,24.0 L 106.0,22.0 L 97.0,16.0 L 88.0,15.0" fill="#FDFDFD"/>
	<path d="M 88.0,15.0 L 97.0,16.0 L 109.0,24.0 L 120.0,21.0 L 123.0,20.0 L 131.0,20.0 L 136.0,25.0 L 143.0,37.0 L 161.0,41.0 L 166.0,46.0 L 167.0,65.0 L 180.0,75.0 L 182.0,77.0 L 182.0,86.0 L 176.0,98.0 L 177.0,104.0 L 182.0,114.0 L 182.0,121.0 L 177.0,127.0 L 167.0,134.0 L 165.0,153.0 L 160.0,158.0 L 159.0,159.0 L 143.0,161.0 L 137.0,170.0 L 131.0,178.0 L 129.0,179.0 L 120.0,178.0 L 111.0,175.0 L 106.0,175.0 L 93.0,183.0 L 87.0,183.0 L 79.0,176.0 L 74.0,170.0 L 53.0,170.0 L 48.0,165.0 L 44.0,151.0 L 44.0,148.0 L 35.0,145.0 L 26.0,140.0 L 24.0,137.0 L 24.0,130.0 L 26.0,120.0 L 26.0,115.0 L 16.0,103.0 L 16.0,94.0 L 26.0,82.0 L 26.0,75.0 L 25.0,70.0 L 25.0,59.0 L 31.0,54.0 L 43.0,49.0 L 45.0,49.0 L 46.0,42.0 L 50.0,31.0 L 53.0,28.0 L 75.0,28.0 L 84.0,18.0 L 88.0,15.0 M 90.0,23.0 L 81.0,32.0 L 78.0,36.0 L 56.0,36.0 L 51.0,52.0 L 51.0,55.0 L 42.0,58.0 L 32.0,63.0 L 35.0,79.0 L 34.0,85.0 L 24.0,96.0 L 23.0,99.0 L 34.0,113.0 L 33.0,125.0 L 32.0,135.0 L 50.0,143.0 L 55.0,161.0 L 60.0,162.0 L 77.0,162.0 L 89.0,175.0 L 93.0,174.0 L 106.0,166.0 L 115.0,168.0 L 124.0,171.0 L 128.0,170.0 L 137.0,155.0 L 137.0,153.0 L 145.0,153.0 L 157.0,151.0 L 159.0,130.0 L 174.0,119.0 L 173.0,114.0 L 167.0,101.0 L 170.0,92.0 L 174.0,84.0 L 173.0,79.0 L 159.0,69.0 L 158.0,48.0 L 139.0,45.0 L 131.0,32.0 L 129.0,28.0 L 122.0,29.0 L 111.0,32.0 L 105.0,31.0 L 93.0,23.0 L 90.0,23.0" fill="#090909"/>
	<path d="M 84.0,84.0 L 90.0,84.0 L 102.0,115.0 L 102.0,116.0 L 96.0,116.0 L 93.0,110.0 L 93.0,108.0 L 80.0,109.0 L 77.0,116.0 L 72.0,116.0 L 73.0,110.0 L 83.0,85.0 L 84.0,84.0" fill="#0F0F0F"/>
	<path d="M 134.0,84.0 L 157.0,84.0 L 157.0,89.0 L 140.0,89.0 L 140.0,97.0 L 156.0,97.0 L 156.0,102.0 L 140.0,102.0 L 140.0,111.0 L 158.0,111.0 L 158.0,116.0 L 134.0,116.0 L 134.0,84.0" fill="#121212"/>
	<path d="M 49.0,84.0 L 61.0,84.0 L 66.0,88.0 L 67.0,94.0 L 62.0,94.0 L 59.0,90.0 L 51.0,90.0 L 50.0,94.0 L 56.0,97.0 L 65.0,100.0 L 68.0,103.0 L 68.0,110.0 L 64.0,115.0 L 59.0,117.0 L 50.0,117.0 L 44.0,113.0 L 42.0,109.0 L 42.0,106.0 L 48.0,106.0 L 51.0,111.0 L 59.0,111.0 L 61.0,110.0 L 61.0,105.0 L 48.0,101.0 L 43.0,96.0 L 44.0,89.0 L 49.0,84.0" fill="#0E0E0E"/>
	<path d="M 107.0,84.0 L 112.0,84.0 L 112.0,111.0 L 128.0,111.0 L 128.0,115.0 L 107.0,115.0 L 107.0,84.0" fill="#010101"/>
	<path d="M 86.0,90.0 L 88.0,92.0 L 91.0,103.0 L 82.0,103.0 L 85.0,92.0 L 86.0,90.0" fill="#EDEDED"/>
</svg>
