<?xml version="1.0" ?>
<svg baseProfile="full" height="600px" version="1.1" viewBox="-20.1 -20.1 240.2 240.2" width="600px" xmlns="http://www.w3.org/2000/svg" xmlns:ev="http://www.w3.org/2001/xml-events" xmlns:xlink="http://www.w3.org/1999/xlink">
	<defs/>
	<path d="M 0.0,0.0 L 200.0,0.0 L 200.0,200.0 L 0.0,200.0 L 0.0,0.0" fill="#FDFDFD"/>
	<path d="M 103.0,28.0 L 110.0,29.0 L 119.0,38.0 L 137.0,38.0 L 142.0,43.0 L 146.0,55.0 L 154.0,59.0 L 160.0,62.0 L 163.0,65.0 L 163.0,72.0 L 162.0,75.0 L 162.0,83.0 L 171.0,94.0 L 171.0,100.0 L 163.0,111.0 L 163.0,118.0 L 164.0,121.0 L 164.0,130.0 L 159.0,135.0 L 150.0,139.0 L 148.0,139.0 L 145.0,153.0 L 140.0,158.0 L 123.0,159.0 L 113.0,169.0 L 106.0,169.0 L 95.0,163.0 L 88.0,164.0 L 83.0,166.0 L 75.0,166.0 L 68.0,157.0 L 65.0,152.0 L 51.0,150.0 L 46.0,145.0 L 45.0,142.0 L 45.0,129.0 L 40.0,127.0 L 32.0,120.0 L 31.0,113.0 L 36.0,102.0 L 34.0,96.0 L 30.0,88.0 L 31.0,81.0 L 42.0,72.0 L 43.0,57.0 L 46.0,52.0 L 50.0,50.0 L 62.0,48.0 L 69.0,36.0 L 72.0,33.0 L 79.0,33.0 L 91.0,36.0 L 103.0,28.0" fill="#FAFAFA"/>
	<path d="M 103.0,28.0 L 110.0,29.0 L 119.0,38.0 L 137.0,38.0 L 142.0,43.0 L 146.0,55.0 L 154.0,59.0 L 160.0,62.0 L 163.0,65.0 L 163.0,72.0 L 162.0,75.0 L 162.0,83.0 L 171.0,94.0 L 171.0,100.0 L 163.0,111.0 L 163.0,118.0 L 164.0,121.0 L 164.0,130.0 L 159.0,135.0 L 150.0,139.0 L 148.0,139.0 L 145.0,153.0 L 140.0,158.0 L 123.0,159.0 L 113.0,169.0 L 106.0,169.0 L 95.0,163.0 L 88.0,164.0 L 83.0,166.0 L 75.0,166.0 L 68.0,157.0 L 65.0,152.0 L 51.0,150.0 L 46.0,145.0 L 45.0,142.0 L 45.0,129.0 L 40.0,127.0 L 32.0,120.0 L 31.0,113.0 L 36.0,102.0 L 34.0,96.0 L 30.0,88.0 L 31.0,81.0 L 42.0,72.0 L 43.0,57.0 L 46.0,52.0 L 50.0,50.0 L 62.0,48.0 L 69.0,36.0 L 72.0,33.0 L 79.0,33.0 L 91.0,36.0 L 103.0,28.0 M 105.0,36.0 L 93.0,44.0 L 82.0,42.0 L 75.0,41.0 L 67.0,55.0 L 51.0,58.0 L 51.0,76.0 L 47.0,78.0 L 38.0,85.0 L 44.0,98.0 L 43.0,105.0 L 39.0,114.0 L 41.0,118.0 L 51.0,125.0 L 53.0,125.0 L 53.0,142.0 L 54.0,143.0 L 70.0,145.0 L 78.0,158.0 L 85.0,157.0 L 93.0,154.0 L 97.0,155.0 L 107.0,161.0 L 111.0,160.0 L 120.0,150.0 L 137.0,150.0 L 140.0,141.0 L 142.0,134.0 L 156.0,127.0 L 155.0,117.0 L 154.0,110.0 L 163.0,98.0 L 161.0,94.0 L 153.0,85.0 L 154.0,77.0 L 155.0,68.0 L 141.0,62.0 L 139.0,62.0 L 138.0,55.0 L 135.0,46.0 L 117.0,47.0 L 106.0,36.0 L 105.0,36.0" fill="#0A0A0A"/>
	<path d="M 86.0,87.0 L 92.0,87.0 L 101.0,110.0 L 101.0,113.0 L 96.0,113.0 L 94.0,106.0 L 83.0,106.0 L 82.0,111.0 L 81.0,113.0 L 76.0,113.0 L 82.0,96.0 L 86.0,87.0" fill="#0D0D0D"/>
	<path d="M 59.0,86.0 L 68.0,87.0 L 72.0,91.0 L 72.0,95.0 L 68.0,95.0 L 66.0,92.0 L 59.0,92.0 L 59.0,96.0 L 69.0,99.0 L 73.0,102.0 L 73.0,110.0 L 67.0,114.0 L 57.0,114.0 L 52.0,109.0 L 52.0,105.0 L 57.0,106.0 L 59.0,109.0 L 68.0,109.0 L 67.0,104.0 L 55.0,100.0 L 53.0,98.0 L 53.0,91.0 L 57.0,87.0 L 59.0,86.0" fill="#121212"/>
	<path d="M 129.0,87.0 L 148.0,87.0 L 148.0,91.0 L 134.0,91.0 L 134.0,97.0 L 147.0,97.0 L 147.0,102.0 L 134.0,102.0 L 134.0,109.0 L 148.0,109.0 L 148.0,113.0 L 129.0,113.0 L 129.0,87.0" fill="#1A1A1A"/>
	<path d="M 106.0,87.0 L 110.0,87.0 L 110.0,109.0 L 124.0,109.0 L 124.0,113.0 L 106.0,113.0 L 106.0,87.0" fill="#010101"/>
	<path d="M 88.0,92.0 L 90.0,93.0 L 92.0,99.0 L 92.0,103.0 L 85.0,103.0 L 87.0,94.0 L 88.0,92.0" fill="#DDDDDD"/>
</svg>
