<?xml version="1.0" ?>
<svg baseProfile="full" height="600px" version="1.1" viewBox="-19.296000000000003 -19.296000000000003 230.592 230.592" width="600px" xmlns="http://www.w3.org/2000/svg" xmlns:ev="http://www.w3.org/2001/xml-events" xmlns:xlink="http://www.w3.org/1999/xlink">
	<defs/>
	<path d="M 0.0,0.0 L 192.0,0.0 L 192.0,192.0 L 0.0,192.0 L 0.0,0.0" fill="#F44437"/>
	<path d="M 0.0,0.0 L 192.0,0.0 L 192.0,192.0 L 0.0,192.0 L 0.0,0.0 M 77.0,10.0 L 64.0,32.0 L 37.0,31.0 L 36.0,58.0 L 12.0,69.0 L 18.0,80.0 L 25.0,92.0 L 18.0,103.0 L 10.0,114.0 L 13.0,117.0 L 32.0,128.0 L 31.0,155.0 L 58.0,156.0 L 69.0,180.0 L 83.0,172.0 L 93.0,167.0 L 110.0,179.0 L 115.0,182.0 L 128.0,160.0 L 137.0,160.0 L 155.0,161.0 L 156.0,134.0 L 180.0,123.0 L 174.0,112.0 L 168.0,102.0 L 169.0,96.0 L 177.0,85.0 L 182.0,77.0 L 160.0,64.0 L 160.0,52.0 L 161.0,37.0 L 134.0,36.0 L 124.0,13.0 L 122.0,12.0 L 100.0,25.0 L 89.0,18.0 L 78.0,10.0 L 77.0,10.0" fill="#FEFCFC"/>
	<path d="M 85.0,84.0 L 90.0,84.0 L 97.0,105.0 L 97.0,108.0 L 92.0,108.0 L 91.0,103.0 L 84.0,103.0 L 83.0,108.0 L 78.0,108.0 L 80.0,98.0 L 84.0,85.0 L 85.0,84.0" fill="#FEF4F4"/>
	<path d="M 62.0,84.0 L 70.0,84.0 L 74.0,88.0 L 74.0,91.0 L 69.0,91.0 L 68.0,89.0 L 65.0,89.0 L 66.0,93.0 L 72.0,96.0 L 74.0,98.0 L 74.0,104.0 L 71.0,108.0 L 62.0,108.0 L 58.0,103.0 L 58.0,100.0 L 63.0,100.0 L 64.0,103.0 L 69.0,104.0 L 67.0,99.0 L 60.0,95.0 L 59.0,93.0 L 59.0,87.0 L 62.0,84.0" fill="#FEF3F2"/>
	<path d="M 119.0,84.0 L 133.0,84.0 L 133.0,88.0 L 124.0,88.0 L 124.0,93.0 L 131.0,93.0 L 131.0,98.0 L 123.0,98.0 L 123.0,104.0 L 132.0,104.0 L 132.0,108.0 L 119.0,108.0 L 119.0,84.0" fill="#FEF2F1"/>
	<path d="M 101.0,84.0 L 106.0,84.0 L 106.0,104.0 L 114.0,104.0 L 114.0,108.0 L 101.0,108.0 L 101.0,84.0" fill="#FEF6F5"/>
	<path d="M 87.0,91.0 L 89.0,95.0 L 89.0,99.0 L 85.0,99.0 L 86.0,93.0 L 87.0,91.0" fill="#F56257"/>
</svg>
