<?xml version="1.0" ?>
<svg baseProfile="full" height="600px" version="1.1" viewBox="-19.296000000000003 -19.296000000000003 230.592 230.592" width="600px" xmlns="http://www.w3.org/2000/svg" xmlns:ev="http://www.w3.org/2001/xml-events" xmlns:xlink="http://www.w3.org/1999/xlink">
	<defs/>
	<path d="M 0.0,0.0 L 192.0,0.0 L 192.0,192.0 L 0.0,192.0 L 0.0,0.0" fill="#F44538"/>
	<path d="M 0.0,0.0 L 192.0,0.0 L 192.0,192.0 L 0.0,192.0 L 0.0,0.0 M 95.0,8.0 L 88.0,16.0 L 79.0,26.0 L 79.0,28.0 L 61.0,22.0 L 52.0,20.0 L 47.0,39.0 L 45.0,46.0 L 21.0,51.0 L 20.0,55.0 L 28.0,79.0 L 24.0,81.0 L 10.0,94.0 L 8.0,95.0 L 8.0,97.0 L 16.0,104.0 L 27.0,114.0 L 24.0,125.0 L 20.0,138.0 L 20.0,140.0 L 39.0,145.0 L 46.0,147.0 L 51.0,169.0 L 53.0,172.0 L 72.0,166.0 L 78.0,165.0 L 86.0,173.0 L 93.0,181.0 L 95.0,184.0 L 97.0,184.0 L 104.0,176.0 L 113.0,166.0 L 113.0,164.0 L 131.0,170.0 L 140.0,172.0 L 145.0,153.0 L 146.0,146.0 L 166.0,142.0 L 172.0,140.0 L 169.0,128.0 L 165.0,114.0 L 172.0,107.0 L 180.0,100.0 L 184.0,97.0 L 184.0,95.0 L 176.0,88.0 L 166.0,79.0 L 164.0,79.0 L 169.0,63.0 L 172.0,53.0 L 169.0,51.0 L 147.0,46.0 L 145.0,39.0 L 140.0,20.0 L 128.0,23.0 L 113.0,28.0 L 111.0,24.0 L 98.0,10.0 L 97.0,8.0 L 95.0,8.0" fill="#FEFCFC"/>
	<path d="M 81.0,80.0 L 88.0,80.0 L 95.0,101.0 L 97.0,108.0 L 97.0,112.0 L 91.0,112.0 L 89.0,109.0 L 89.0,106.0 L 80.0,107.0 L 79.0,112.0 L 72.0,112.0 L 74.0,102.0 L 81.0,80.0" fill="#FEF4F3"/>
	<path d="M 52.0,80.0 L 61.0,80.0 L 66.0,84.0 L 67.0,90.0 L 60.0,90.0 L 58.0,86.0 L 54.0,87.0 L 55.0,91.0 L 65.0,97.0 L 67.0,100.0 L 67.0,106.0 L 64.0,111.0 L 62.0,112.0 L 52.0,112.0 L 47.0,108.0 L 46.0,102.0 L 52.0,102.0 L 54.0,106.0 L 59.0,106.0 L 59.0,101.0 L 49.0,95.0 L 47.0,92.0 L 47.0,85.0 L 52.0,80.0" fill="#FEF5F5"/>
	<path d="M 126.0,80.0 L 144.0,80.0 L 144.0,85.0 L 132.0,85.0 L 132.0,93.0 L 142.0,93.0 L 142.0,98.0 L 133.0,98.0 L 133.0,106.0 L 145.0,106.0 L 145.0,112.0 L 126.0,112.0 L 126.0,80.0" fill="#FEF7F7"/>
	<path d="M 102.0,80.0 L 109.0,80.0 L 109.0,106.0 L 120.0,106.0 L 120.0,112.0 L 102.0,112.0 L 102.0,80.0" fill="#FEF0EF"/>
	<path d="M 84.0,90.0 L 86.0,93.0 L 87.0,100.0 L 81.0,100.0 L 84.0,90.0" fill="#F45145"/>
</svg>
