<?xml version="1.0" ?>
<svg baseProfile="full" height="600px" version="1.1" viewBox="-19.296000000000003 -19.296000000000003 230.592 230.592" width="600px" xmlns="http://www.w3.org/2000/svg" xmlns:ev="http://www.w3.org/2001/xml-events" xmlns:xlink="http://www.w3.org/1999/xlink">
	<defs/>
	<path d="M 0.0,0.0 L 192.0,0.0 L 192.0,192.0 L 0.0,192.0 L 0.0,0.0" fill="#F44538"/>
	<path d="M 0.0,0.0 L 192.0,0.0 L 192.0,192.0 L 0.0,192.0 L 0.0,0.0 M 109.0,9.0 L 96.0,20.0 L 90.0,25.0 L 81.0,22.0 L 64.0,14.0 L 55.0,36.0 L 55.0,39.0 L 43.0,39.0 L 28.0,40.0 L 29.0,52.0 L 30.0,59.0 L 30.0,68.0 L 9.0,82.0 L 15.0,90.0 L 24.0,101.0 L 25.0,105.0 L 15.0,124.0 L 14.0,128.0 L 36.0,137.0 L 39.0,137.0 L 40.0,164.0 L 52.0,163.0 L 65.0,161.0 L 68.0,160.0 L 70.0,165.0 L 82.0,183.0 L 90.0,177.0 L 101.0,168.0 L 105.0,167.0 L 124.0,177.0 L 128.0,178.0 L 137.0,155.0 L 137.0,153.0 L 149.0,153.0 L 164.0,152.0 L 163.0,141.0 L 162.0,134.0 L 162.0,124.0 L 183.0,110.0 L 177.0,102.0 L 167.0,89.0 L 176.0,69.0 L 178.0,64.0 L 155.0,55.0 L 153.0,55.0 L 152.0,28.0 L 139.0,29.0 L 124.0,32.0 L 122.0,27.0 L 110.0,9.0 L 109.0,9.0" fill="#FEFCFC"/>
	<path d="M 83.0,82.0 L 89.0,82.0 L 96.0,103.0 L 97.0,110.0 L 91.0,110.0 L 90.0,104.0 L 82.0,104.0 L 81.0,110.0 L 75.0,110.0 L 77.0,100.0 L 83.0,82.0" fill="#FEF3F2"/>
	<path d="M 122.0,82.0 L 138.0,82.0 L 138.0,86.0 L 128.0,86.0 L 128.0,93.0 L 137.0,93.0 L 137.0,98.0 L 128.0,98.0 L 128.0,105.0 L 138.0,105.0 L 138.0,110.0 L 122.0,110.0 L 122.0,82.0" fill="#FEF5F5"/>
	<path d="M 57.0,82.0 L 66.0,82.0 L 70.0,86.0 L 70.0,90.0 L 65.0,90.0 L 64.0,88.0 L 59.0,87.0 L 60.0,92.0 L 68.0,96.0 L 70.0,98.0 L 70.0,107.0 L 66.0,110.0 L 57.0,110.0 L 53.0,107.0 L 52.0,101.0 L 58.0,101.0 L 59.0,105.0 L 65.0,105.0 L 63.0,100.0 L 55.0,95.0 L 53.0,92.0 L 53.0,86.0 L 57.0,82.0" fill="#FEF5F5"/>
	<path d="M 102.0,82.0 L 107.0,82.0 L 107.0,105.0 L 117.0,105.0 L 117.0,110.0 L 102.0,110.0 L 102.0,82.0" fill="#FEFDFD"/>
	<path d="M 85.0,91.0 L 87.0,92.0 L 88.0,99.0 L 84.0,99.0 L 85.0,91.0" fill="#F5564A"/>
</svg>
