<?xml version="1.0" ?>
<svg baseProfile="full" height="600px" version="1.1" viewBox="-12.864 -12.864 153.728 153.728" width="600px" xmlns="http://www.w3.org/2000/svg" xmlns:ev="http://www.w3.org/2001/xml-events" xmlns:xlink="http://www.w3.org/1999/xlink">
	<defs/>
	<path d="M 0.0,0.0 L 128.0,0.0 L 128.0,128.0 L 0.0,128.0 L 0.0,0.0" fill="#080808"/>
	<path d="M 0.0,0.0 L 128.0,0.0 L 128.0,128.0 L 0.0,128.0 L 0.0,0.0 M 79.0,13.0 L 26.0,22.0 L 10.0,25.0 L 10.0,32.0 L 18.0,77.0 L 24.0,111.0 L 25.0,118.0 L 32.0,118.0 L 68.0,112.0 L 102.0,106.0 L 110.0,104.0 L 117.0,103.0 L 118.0,102.0 L 117.0,90.0 L 107.0,32.0 L 104.0,27.0 L 84.0,13.0 L 79.0,13.0" fill="#FCFCFC"/>
	<path d="M 76.0,22.0 L 82.0,22.0 L 98.0,34.0 L 101.0,49.0 L 108.0,89.0 L 108.0,95.0 L 107.0,96.0 L 100.0,96.0 L 94.0,64.0 L 94.0,59.0 L 38.0,69.0 L 35.0,69.0 L 41.0,102.0 L 41.0,107.0 L 39.0,108.0 L 32.0,108.0 L 27.0,77.0 L 20.0,39.0 L 20.0,33.0 L 24.0,32.0 L 28.0,56.0 L 37.0,55.0 L 77.0,48.0 L 76.0,36.0 L 74.0,23.0 L 76.0,22.0" fill="#F7F7F7"/>
	<path d="M 82.0,69.0 L 87.0,69.0 L 91.0,91.0 L 91.0,98.0 L 71.0,102.0 L 54.0,105.0 L 49.0,105.0 L 45.0,82.0 L 45.0,76.0 L 65.0,72.0 L 82.0,69.0" fill="#FAFAFA"/>
	<path d="M 62.0,25.0 L 66.0,25.0 L 68.0,36.0 L 68.0,42.0 L 40.0,47.0 L 35.0,47.0 L 33.0,40.0 L 32.0,31.0 L 45.0,28.0 L 49.0,28.0 L 50.0,36.0 L 52.0,35.0 L 58.0,35.0 L 57.0,26.0 L 62.0,25.0" fill="#F5F5F5"/>
</svg>
