<?xml version="1.0" ?>
<svg baseProfile="full" height="600px" version="1.1" viewBox="-19.296000000000003 -19.296000000000003 230.592 230.592" width="600px" xmlns="http://www.w3.org/2000/svg" xmlns:ev="http://www.w3.org/2001/xml-events" xmlns:xlink="http://www.w3.org/1999/xlink">
	<defs/>
	<path d="M 0.0,0.0 L 192.0,0.0 L 192.0,192.0 L 0.0,192.0 L 0.0,0.0" fill="#3798DA"/>
	<path d="M 0.0,0.0 L 192.0,0.0 L 192.0,192.0 L 0.0,192.0 L 0.0,0.0 M 134.0,15.0 L 108.0,18.0 L 29.0,28.0 L 12.0,31.0 L 14.0,53.0 L 18.0,81.0 L 22.0,115.0 L 26.0,146.0 L 29.0,166.0 L 30.0,177.0 L 31.0,180.0 L 53.0,178.0 L 89.0,173.0 L 105.0,171.0 L 146.0,166.0 L 177.0,162.0 L 180.0,161.0 L 179.0,150.0 L 175.0,116.0 L 171.0,85.0 L 166.0,49.0 L 164.0,32.0 L 152.0,23.0 L 141.0,15.0 L 134.0,15.0" fill="#FCFDFD"/>
	<path d="M 145.0,89.0 L 157.0,89.0 L 159.0,91.0 L 164.0,128.0 L 166.0,144.0 L 166.0,153.0 L 164.0,155.0 L 143.0,158.0 L 125.0,160.0 L 94.0,164.0 L 50.0,170.0 L 44.0,170.0 L 41.0,165.0 L 37.0,131.0 L 34.0,110.0 L 35.0,105.0 L 37.0,103.0 L 70.0,99.0 L 101.0,95.0 L 145.0,89.0" fill="#FAFCFD"/>
	<path d="M 122.0,16.0 L 126.0,17.0 L 124.0,17.0 L 127.0,37.0 L 129.0,53.0 L 129.0,62.0 L 125.0,67.0 L 100.0,71.0 L 66.0,75.0 L 55.0,75.0 L 50.0,70.0 L 45.0,31.0 L 44.0,26.0 L 116.0,17.0 L 122.0,16.0" fill="#ACBCC4"/>
	<path d="M 37.0,27.0 L 45.0,27.0 L 48.0,45.0 L 51.0,70.0 L 56.0,76.0 L 46.0,78.0 L 35.0,78.0 L 30.0,73.0 L 27.0,56.0 L 25.0,38.0 L 25.0,31.0 L 26.0,29.0 L 37.0,27.0" fill="#2B81BA"/>
	<path d="M 141.0,119.0 L 146.0,119.0 L 146.0,128.0 L 116.0,132.0 L 82.0,136.0 L 70.0,138.0 L 55.0,139.0 L 54.0,130.0 L 79.0,127.0 L 113.0,123.0 L 141.0,119.0" fill="#D1DADD"/>
	<path d="M 140.0,136.0 L 148.0,136.0 L 148.0,144.0 L 138.0,146.0 L 104.0,150.0 L 92.0,152.0 L 65.0,155.0 L 57.0,156.0 L 57.0,147.0 L 69.0,145.0 L 96.0,142.0 L 108.0,140.0 L 124.0,138.0 L 140.0,136.0" fill="#D1DADD"/>
	<path d="M 137.0,103.0 L 143.0,103.0 L 144.0,111.0 L 133.0,113.0 L 99.0,117.0 L 60.0,122.0 L 53.0,122.0 L 52.0,114.0 L 64.0,112.0 L 91.0,109.0 L 126.0,104.0 L 137.0,103.0" fill="#D0D9DD"/>
	<path d="M 106.0,27.0 L 108.0,27.0 L 111.0,44.0 L 112.0,61.0 L 96.0,62.0 L 95.0,60.0 L 92.0,35.0 L 92.0,29.0 L 106.0,27.0" fill="#29353B"/>
</svg>
