<?xml version="1.0" ?>
<svg baseProfile="full" height="600px" version="1.1" viewBox="-19.296000000000003 -19.296000000000003 230.592 230.592" width="600px" xmlns="http://www.w3.org/2000/svg" xmlns:ev="http://www.w3.org/2001/xml-events" xmlns:xlink="http://www.w3.org/1999/xlink">
	<defs/>
	<path d="M 0.0,0.0 L 192.0,0.0 L 192.0,192.0 L 0.0,192.0 L 0.0,0.0" fill="#3899DA"/>
	<path d="M 0.0,0.0 L 192.0,0.0 L 192.0,192.0 L 0.0,192.0 L 0.0,0.0 M 29.0,25.0 L 27.0,81.0 L 25.0,152.0 L 25.0,163.0 L 146.0,167.0 L 163.0,167.0 L 166.0,78.0 L 166.0,48.0 L 155.0,36.0 L 148.0,28.0 L 48.0,25.0 L 29.0,25.0" fill="#FCFDFD"/>
	<path d="M 41.0,94.0 L 54.0,94.0 L 108.0,96.0 L 141.0,97.0 L 152.0,98.0 L 153.0,99.0 L 153.0,118.0 L 152.0,156.0 L 150.0,158.0 L 112.0,158.0 L 40.0,156.0 L 37.0,154.0 L 37.0,138.0 L 38.0,97.0 L 41.0,94.0" fill="#FBFCFD"/>
	<path d="M 65.0,26.0 L 87.0,26.0 L 148.0,28.0 L 148.0,29.0 L 138.0,29.0 L 138.0,47.0 L 137.0,69.0 L 132.0,74.0 L 114.0,74.0 L 71.0,73.0 L 65.0,69.0 L 65.0,26.0" fill="#ACBCC4"/>
	<path d="M 40.0,26.0 L 65.0,26.0 L 66.0,69.0 L 68.0,72.0 L 45.0,72.0 L 40.0,67.0 L 40.0,26.0" fill="#2A81BA"/>
	<path d="M 53.0,137.0 L 86.0,137.0 L 121.0,138.0 L 137.0,139.0 L 137.0,147.0 L 89.0,146.0 L 64.0,145.0 L 53.0,144.0 L 53.0,137.0" fill="#D1DADD"/>
	<path d="M 54.0,106.0 L 137.0,108.0 L 138.0,109.0 L 138.0,116.0 L 111.0,116.0 L 54.0,114.0 L 54.0,106.0" fill="#D1D9DD"/>
	<path d="M 53.0,122.0 L 87.0,122.0 L 120.0,123.0 L 137.0,124.0 L 137.0,131.0 L 106.0,131.0 L 67.0,130.0 L 53.0,129.0 L 53.0,122.0" fill="#D0D9DD"/>
	<path d="M 107.0,35.0 L 123.0,35.0 L 122.0,66.0 L 107.0,66.0 L 107.0,35.0" fill="#2A363C"/>
</svg>
