<?xml version="1.0" ?>
<svg baseProfile="full" height="600px" version="1.1" viewBox="-12.864 -12.864 153.728 153.728" width="600px" xmlns="http://www.w3.org/2000/svg" xmlns:ev="http://www.w3.org/2001/xml-events" xmlns:xlink="http://www.w3.org/1999/xlink">
	<defs/>
	<path d="M 0.0,0.0 L 128.0,0.0 L 128.0,128.0 L 0.0,128.0 L 0.0,0.0" fill="#FDFDFD"/>
	<path d="M 20.0,20.0 L 90.0,20.0 L 108.0,38.0 L 108.0,108.0 L 20.0,108.0 L 20.0,20.0" fill="#000000"/>
	<path d="M 28.0,28.0 L 40.0,28.0 L 40.0,52.0 L 88.0,52.0 L 88.0,30.0 L 95.0,36.0 L 100.0,41.0 L 100.0,100.0 L 92.0,100.0 L 92.0,64.0 L 36.0,64.0 L 36.0,100.0 L 28.0,100.0 L 28.0,28.0" fill="#FCFCFC"/>
	<path d="M 44.0,72.0 L 84.0,72.0 L 84.0,100.0 L 44.0,100.0 L 44.0,72.0" fill="#FCFCFC"/>
	<path d="M 48.0,28.0 L 64.0,28.0 L 64.0,36.0 L 72.0,36.0 L 72.0,28.0 L 80.0,28.0 L 80.0,44.0 L 48.0,44.0 L 48.0,28.0" fill="#FAFAFA"/>
</svg>
