<?xml version="1.0" ?>
<svg baseProfile="full" height="600px" version="1.1" viewBox="-12.864 -12.864 153.728 153.728" width="600px" xmlns="http://www.w3.org/2000/svg" xmlns:ev="http://www.w3.org/2001/xml-events" xmlns:xlink="http://www.w3.org/1999/xlink">
	<defs/>
	<path d="M 0.0,0.0 L 128.0,0.0 L 128.0,128.0 L 0.0,128.0 L 0.0,0.0" fill="#080808"/>
	<path d="M 0.0,0.0 L 128.0,0.0 L 128.0,128.0 L 0.0,128.0 L 0.0,0.0 M 74.0,16.0 L 25.0,22.0 L 13.0,24.0 L 15.0,45.0 L 20.0,87.0 L 24.0,115.0 L 54.0,112.0 L 103.0,106.0 L 115.0,104.0 L 113.0,85.0 L 108.0,41.0 L 106.0,31.0 L 93.0,21.0 L 86.0,16.0 L 74.0,16.0" fill="#FCFCFC"/>
	<path d="M 79.0,24.0 L 84.0,25.0 L 98.0,36.0 L 99.0,37.0 L 105.0,89.0 L 105.0,97.0 L 97.0,97.0 L 93.0,64.0 L 93.0,61.0 L 42.0,67.0 L 35.0,67.0 L 38.0,86.0 L 39.0,105.0 L 31.0,105.0 L 27.0,75.0 L 23.0,39.0 L 23.0,31.0 L 29.0,31.0 L 30.0,34.0 L 32.0,55.0 L 81.0,49.0 L 79.0,34.0 L 79.0,24.0" fill="#F7F7F7"/>
	<path d="M 81.0,70.0 L 86.0,70.0 L 89.0,95.0 L 89.0,99.0 L 54.0,103.0 L 48.0,103.0 L 45.0,85.0 L 45.0,74.0 L 81.0,70.0" fill="#F9F9F9"/>
	<path d="M 65.0,26.0 L 70.0,26.0 L 72.0,42.0 L 70.0,43.0 L 44.0,46.0 L 39.0,46.0 L 38.0,41.0 L 38.0,29.0 L 54.0,28.0 L 54.0,36.0 L 63.0,35.0 L 62.0,27.0 L 65.0,26.0" fill="#F6F6F6"/>
</svg>
