<?xml version="1.0" ?>
<svg baseProfile="full" height="600px" version="1.1" viewBox="-12.06 -12.06 144.12 144.12" width="600px" xmlns="http://www.w3.org/2000/svg" xmlns:ev="http://www.w3.org/2001/xml-events" xmlns:xlink="http://www.w3.org/1999/xlink">
	<defs/>
	<path d="M 0.0,0.0 L 120.0,0.0 L 120.0,120.0 L 0.0,120.0 L 0.0,0.0" fill="#040404"/>
	<path d="M 0.0,0.0 L 120.0,0.0 L 120.0,120.0 L 0.0,120.0 L 0.0,0.0 M 75.0,9.0 L 62.0,11.0 L 61.0,12.0 L 61.0,19.0 L 64.0,36.0 L 63.0,41.0 L 62.0,42.0 L 31.0,47.0 L 27.0,48.0 L 20.0,48.0 L 18.0,41.0 L 15.0,24.0 L 14.0,21.0 L 9.0,22.0 L 7.0,25.0 L 8.0,39.0 L 17.0,90.0 L 21.0,109.0 L 25.0,113.0 L 38.0,112.0 L 96.0,102.0 L 109.0,99.0 L 113.0,95.0 L 113.0,86.0 L 102.0,23.0 L 92.0,15.0 L 83.0,9.0 L 75.0,9.0" fill="#FBFBFB"/>
	<path d="M 75.0,61.0 L 87.0,61.0 L 92.0,66.0 L 96.0,89.0 L 96.0,93.0 L 45.0,102.0 L 37.0,103.0 L 33.0,82.0 L 33.0,73.0 L 38.0,68.0 L 59.0,64.0 L 75.0,61.0" fill="#FAFAFA"/>
	<path d="M 45.0,14.0 L 52.0,14.0 L 54.0,23.0 L 55.0,35.0 L 47.0,36.0 L 44.0,21.0 L 44.0,15.0 L 45.0,14.0" fill="#0B0B0B"/>
</svg>
