<?xml version="1.0" ?>
<svg baseProfile="full" height="600px" version="1.1" viewBox="-12.864 -12.864 153.728 153.728" width="600px" xmlns="http://www.w3.org/2000/svg" xmlns:ev="http://www.w3.org/2001/xml-events" xmlns:xlink="http://www.w3.org/1999/xlink">
	<defs/>
	<path d="M 0.0,0.0 L 128.0,0.0 L 128.0,128.0 L 0.0,128.0 L 0.0,0.0" fill="#FCFCFC"/>
	<path d="M 23.0,21.0 L 65.0,21.0 L 90.0,22.0 L 104.0,37.0 L 107.0,40.0 L 106.0,93.0 L 105.0,107.0 L 64.0,107.0 L 21.0,105.0 L 21.0,79.0 L 22.0,33.0 L 23.0,21.0" fill="#080808"/>
	<path d="M 30.0,29.0 L 43.0,29.0 L 43.0,52.0 L 89.0,53.0 L 89.0,34.0 L 96.0,40.0 L 99.0,43.0 L 99.0,58.0 L 98.0,99.0 L 90.0,99.0 L 90.0,73.0 L 91.0,65.0 L 77.0,65.0 L 37.0,63.0 L 37.0,80.0 L 36.0,98.0 L 29.0,98.0 L 29.0,70.0 L 30.0,29.0" fill="#F7F7F7"/>
	<path d="M 44.0,71.0 L 69.0,71.0 L 83.0,72.0 L 83.0,88.0 L 82.0,99.0 L 67.0,99.0 L 44.0,98.0 L 44.0,71.0" fill="#F5F5F5"/>
	<path d="M 51.0,29.0 L 59.0,29.0 L 66.0,30.0 L 66.0,37.0 L 74.0,37.0 L 74.0,30.0 L 81.0,30.0 L 81.0,45.0 L 51.0,45.0 L 51.0,29.0" fill="#F5F5F5"/>
</svg>
