<?xml version="1.0" ?>
<svg baseProfile="full" height="600px" version="1.1" viewBox="-12.06 -12.06 144.12 144.12" width="600px" xmlns="http://www.w3.org/2000/svg" xmlns:ev="http://www.w3.org/2001/xml-events" xmlns:xlink="http://www.w3.org/1999/xlink">
	<defs/>
	<path d="M 0.0,0.0 L 120.0,0.0 L 120.0,120.0 L 0.0,120.0 L 0.0,0.0" fill="#FCFCFC"/>
	<path d="M 27.0,14.0 L 37.0,14.0 L 46.0,16.0 L 45.0,31.0 L 45.0,42.0 L 66.0,45.0 L 84.0,46.0 L 85.0,44.0 L 87.0,27.0 L 88.0,21.0 L 93.0,22.0 L 103.0,35.0 L 105.0,38.0 L 104.0,50.0 L 99.0,95.0 L 96.0,104.0 L 93.0,106.0 L 83.0,106.0 L 53.0,102.0 L 19.0,98.0 L 14.0,93.0 L 14.0,84.0 L 17.0,59.0 L 22.0,19.0 L 27.0,14.0" fill="#050505"/>
	<path d="M 36.0,62.0 L 47.0,62.0 L 75.0,65.0 L 82.0,67.0 L 85.0,70.0 L 85.0,82.0 L 83.0,97.0 L 74.0,97.0 L 34.0,92.0 L 30.0,91.0 L 31.0,74.0 L 32.0,66.0 L 36.0,62.0" fill="#FBFBFB"/>
	<path d="M 73.0,19.0 L 80.0,20.0 L 79.0,35.0 L 78.0,39.0 L 71.0,38.0 L 71.0,29.0 L 73.0,19.0" fill="#0D0D0D"/>
</svg>
