<?xml version="1.0" ?>
<svg baseProfile="full" height="600px" version="1.1" viewBox="-19.296000000000003 -19.296000000000003 230.592 230.592" width="600px" xmlns="http://www.w3.org/2000/svg" xmlns:ev="http://www.w3.org/2001/xml-events" xmlns:xlink="http://www.w3.org/1999/xlink">
	<defs/>
	<path d="M 0.0,0.0 L 192.0,0.0 L 192.0,192.0 L 0.0,192.0 L 0.0,0.0" fill="#3798DA"/>
	<path d="M 0.0,0.0 L 192.0,0.0 L 192.0,192.0 L 0.0,192.0 L 0.0,0.0 M 130.0,14.0 L 62.0,24.0 L 18.0,31.0 L 11.0,33.0 L 12.0,50.0 L 17.0,80.0 L 19.0,96.0 L 21.0,107.0 L 24.0,127.0 L 29.0,162.0 L 31.0,172.0 L 32.0,181.0 L 41.0,181.0 L 67.0,177.0 L 83.0,175.0 L 100.0,172.0 L 116.0,170.0 L 133.0,167.0 L 149.0,165.0 L 166.0,162.0 L 182.0,160.0 L 179.0,137.0 L 174.0,104.0 L 169.0,71.0 L 166.0,51.0 L 163.0,31.0 L 143.0,16.0 L 140.0,14.0 L 130.0,14.0" fill="#FCFDFD"/>
	<path d="M 150.0,87.0 L 156.0,87.0 L 159.0,89.0 L 164.0,124.0 L 167.0,141.0 L 167.0,152.0 L 165.0,154.0 L 116.0,161.0 L 104.0,163.0 L 80.0,167.0 L 50.0,171.0 L 45.0,171.0 L 43.0,169.0 L 40.0,151.0 L 37.0,129.0 L 35.0,118.0 L 35.0,106.0 L 41.0,104.0 L 65.0,100.0 L 81.0,98.0 L 93.0,96.0 L 114.0,93.0 L 131.0,90.0 L 147.0,88.0 L 150.0,87.0" fill="#FBFCFD"/>
	<path d="M 115.0,16.0 L 122.0,16.0 L 125.0,31.0 L 128.0,50.0 L 128.0,62.0 L 125.0,66.0 L 110.0,69.0 L 62.0,76.0 L 54.0,76.0 L 50.0,72.0 L 45.0,43.0 L 43.0,27.0 L 115.0,16.0" fill="#ACBCC4"/>
	<path d="M 36.0,28.0 L 43.0,28.0 L 45.0,34.0 L 49.0,60.0 L 51.0,72.0 L 54.0,75.0 L 57.0,77.0 L 43.0,79.0 L 34.0,79.0 L 29.0,74.0 L 25.0,50.0 L 23.0,36.0 L 23.0,30.0 L 36.0,28.0" fill="#2B81BA"/>
	<path d="M 142.0,118.0 L 146.0,118.0 L 147.0,127.0 L 93.0,135.0 L 60.0,140.0 L 56.0,140.0 L 55.0,132.0 L 62.0,130.0 L 142.0,118.0" fill="#D1DADD"/>
	<path d="M 141.0,135.0 L 148.0,135.0 L 150.0,141.0 L 150.0,143.0 L 125.0,147.0 L 106.0,150.0 L 66.0,156.0 L 58.0,157.0 L 58.0,148.0 L 82.0,144.0 L 98.0,142.0 L 115.0,139.0 L 141.0,135.0" fill="#D1DADD"/>
	<path d="M 136.0,102.0 L 143.0,102.0 L 145.0,108.0 L 145.0,110.0 L 80.0,120.0 L 61.0,123.0 L 54.0,123.0 L 53.0,122.0 L 53.0,115.0 L 70.0,112.0 L 136.0,102.0" fill="#D1DADD"/>
	<path d="M 99.0,27.0 L 107.0,27.0 L 111.0,51.0 L 111.0,60.0 L 109.0,61.0 L 95.0,62.0 L 90.0,31.0 L 90.0,29.0 L 99.0,27.0" fill="#29353B"/>
</svg>
