<?xml version="1.0" ?>
<svg baseProfile="full" height="600px" version="1.1" viewBox="-19.296000000000003 -19.296000000000003 230.592 230.592" width="600px" xmlns="http://www.w3.org/2000/svg" xmlns:ev="http://www.w3.org/2001/xml-events" xmlns:xlink="http://www.w3.org/1999/xlink">
	<defs/>
	<path d="M 0.0,0.0 L 192.0,0.0 L 192.0,192.0 L 0.0,192.0 L 0.0,0.0" fill="#3397D9"/>
	<path d="M 0.0,0.0 L 192.0,0.0 L 192.0,192.0 L 0.0,192.0 L 0.0,0.0 M 24.0,24.0 L 24.0,168.0 L 168.0,168.0 L 168.0,43.0 L 149.0,24.0 L 24.0,24.0" fill="#FDFEFD"/>
	<path d="M 38.0,96.0 L 154.0,96.0 L 156.0,98.0 L 156.0,144.0 L 148.0,145.0 L 145.0,148.0 L 145.0,156.0 L 148.0,160.0 L 38.0,160.0 L 36.0,158.0 L 36.0,98.0 L 38.0,96.0" fill="#FDFEFD"/>
	<path d="M 60.0,24.0 L 136.0,24.0 L 136.0,67.0 L 131.0,72.0 L 65.0,72.0 L 60.0,67.0 L 60.0,24.0" fill="#AEBDC5"/>
	<path d="M 36.0,24.0 L 60.0,24.0 L 61.0,67.0 L 65.0,72.0 L 41.0,72.0 L 36.0,67.0 L 36.0,24.0" fill="#2980B9"/>
	<path d="M 52.0,140.0 L 140.0,140.0 L 140.0,148.0 L 52.0,148.0 L 52.0,140.0" fill="#CDD7DA"/>
	<path d="M 52.0,124.0 L 140.0,124.0 L 140.0,132.0 L 52.0,132.0 L 52.0,124.0" fill="#CDD7DA"/>
	<path d="M 52.0,108.0 L 140.0,108.0 L 140.0,116.0 L 52.0,116.0 L 52.0,108.0" fill="#CDD7DA"/>
	<path d="M 104.0,32.0 L 120.0,32.0 L 120.0,64.0 L 104.0,64.0 L 104.0,32.0" fill="#263238"/>
	<path d="M 148.0,144.0 L 155.0,144.0 L 160.0,148.0 L 160.0,156.0 L 156.0,160.0 L 148.0,160.0 L 144.0,156.0 L 144.0,148.0 L 148.0,144.0" fill="#47A24C"/>
	<path d="M 151.0,146.0 L 154.0,149.0 L 156.0,155.0 L 150.0,157.0 L 150.0,154.0 L 152.0,154.0 L 150.0,147.0 L 151.0,146.0" fill="#C5E1B5"/>
</svg>
