<?xml version="1.0" ?>
<svg baseProfile="full" height="600px" version="1.1" viewBox="-16.08 -16.08 192.16 192.16" width="600px" xmlns="http://www.w3.org/2000/svg" xmlns:ev="http://www.w3.org/2001/xml-events" xmlns:xlink="http://www.w3.org/1999/xlink">
	<defs/>
	<path d="M 0.0,0.0 L 160.0,0.0 L 160.0,160.0 L 0.0,160.0 L 0.0,0.0" fill="#FEFDFC"/>
	<path d="M 60.0,11.0 L 67.0,11.0 L 72.0,14.0 L 75.0,18.0 L 76.0,23.0 L 77.0,47.0 L 81.0,45.0 L 87.0,45.0 L 93.0,49.0 L 97.0,47.0 L 100.0,45.0 L 109.0,46.0 L 114.0,51.0 L 120.0,49.0 L 129.0,50.0 L 135.0,57.0 L 135.0,121.0 L 131.0,130.0 L 123.0,137.0 L 115.0,140.0 L 75.0,140.0 L 65.0,136.0 L 55.0,127.0 L 20.0,92.0 L 17.0,86.0 L 17.0,79.0 L 20.0,74.0 L 26.0,69.0 L 34.0,69.0 L 40.0,72.0 L 51.0,83.0 L 53.0,84.0 L 53.0,18.0 L 58.0,12.0 L 60.0,11.0" fill="#FDECA0"/>
	<path d="M 60.0,11.0 L 67.0,11.0 L 72.0,14.0 L 75.0,18.0 L 76.0,23.0 L 77.0,47.0 L 81.0,45.0 L 87.0,45.0 L 93.0,49.0 L 97.0,47.0 L 100.0,45.0 L 109.0,46.0 L 114.0,51.0 L 120.0,49.0 L 129.0,50.0 L 135.0,57.0 L 135.0,121.0 L 131.0,130.0 L 123.0,137.0 L 115.0,140.0 L 75.0,140.0 L 65.0,136.0 L 55.0,127.0 L 20.0,92.0 L 17.0,86.0 L 17.0,79.0 L 20.0,74.0 L 26.0,69.0 L 34.0,69.0 L 40.0,72.0 L 51.0,83.0 L 53.0,84.0 L 53.0,18.0 L 58.0,12.0 L 60.0,11.0 M 61.0,20.0 L 57.0,24.0 L 57.0,94.0 L 55.0,94.0 L 53.0,90.0 L 50.0,87.0 L 48.0,87.0 L 48.0,85.0 L 46.0,85.0 L 46.0,83.0 L 44.0,83.0 L 44.0,81.0 L 42.0,81.0 L 42.0,79.0 L 40.0,79.0 L 40.0,77.0 L 38.0,77.0 L 38.0,75.0 L 34.0,73.0 L 27.0,73.0 L 22.0,78.0 L 21.0,85.0 L 24.0,90.0 L 65.0,131.0 L 75.0,136.0 L 115.0,136.0 L 125.0,131.0 L 129.0,126.0 L 131.0,120.0 L 131.0,58.0 L 127.0,54.0 L 121.0,53.0 L 116.0,57.0 L 116.0,61.0 L 111.0,61.0 L 111.0,53.0 L 106.0,49.0 L 99.0,50.0 L 96.0,54.0 L 96.0,61.0 L 92.0,61.0 L 92.0,54.0 L 86.0,49.0 L 80.0,50.0 L 76.0,55.0 L 76.0,61.0 L 72.0,61.0 L 72.0,24.0 L 68.0,20.0 L 61.0,20.0" fill="#BEA151"/>
	<path d="M 60.0,11.0 L 67.0,11.0 L 72.0,14.0 L 75.0,18.0 L 74.0,22.0 L 70.0,16.0 L 68.0,15.0 L 59.0,15.0 L 54.0,23.0 L 53.0,23.0 L 54.0,16.0 L 60.0,11.0" fill="#CD5654"/>
	<path d="M 59.0,14.0 L 68.0,14.0 L 71.0,17.0 L 60.0,17.0 L 57.0,18.0 L 59.0,14.0" fill="#EE8983"/>
</svg>
