<?xml version="1.0" ?>
<svg baseProfile="full" height="600px" version="1.1" viewBox="-20.1 -20.1 240.2 240.2" width="600px" xmlns="http://www.w3.org/2000/svg" xmlns:ev="http://www.w3.org/2001/xml-events" xmlns:xlink="http://www.w3.org/1999/xlink">
	<defs/>
	<path d="M 0.0,0.0 L 200.0,0.0 L 200.0,200.0 L 0.0,200.0 L 0.0,0.0" fill="#FDFDFD"/>
	<path d="M 78.0,25.0 L 90.0,25.0 L 96.0,29.0 L 100.0,35.0 L 100.0,64.0 L 103.0,63.0 L 112.0,63.0 L 118.0,66.0 L 122.0,69.0 L 126.0,67.0 L 136.0,67.0 L 143.0,71.0 L 147.0,76.0 L 149.0,75.0 L 160.0,75.0 L 165.0,78.0 L 170.0,84.0 L 171.0,86.0 L 171.0,146.0 L 168.0,156.0 L 162.0,165.0 L 154.0,172.0 L 145.0,176.0 L 139.0,177.0 L 100.0,177.0 L 86.0,173.0 L 75.0,166.0 L 62.0,154.0 L 26.0,118.0 L 22.0,111.0 L 22.0,100.0 L 26.0,94.0 L 33.0,90.0 L 40.0,90.0 L 48.0,94.0 L 68.0,114.0 L 69.0,35.0 L 73.0,29.0 L 78.0,25.0" fill="#FBFBFB"/>
	<path d="M 78.0,25.0 L 90.0,25.0 L 96.0,29.0 L 100.0,35.0 L 100.0,64.0 L 103.0,63.0 L 112.0,63.0 L 118.0,66.0 L 122.0,69.0 L 126.0,67.0 L 136.0,67.0 L 143.0,71.0 L 147.0,76.0 L 149.0,75.0 L 160.0,75.0 L 165.0,78.0 L 170.0,84.0 L 171.0,86.0 L 171.0,146.0 L 168.0,156.0 L 162.0,165.0 L 154.0,172.0 L 145.0,176.0 L 139.0,177.0 L 100.0,177.0 L 86.0,173.0 L 75.0,166.0 L 62.0,154.0 L 26.0,118.0 L 22.0,111.0 L 22.0,100.0 L 26.0,94.0 L 33.0,90.0 L 40.0,90.0 L 48.0,94.0 L 68.0,114.0 L 69.0,35.0 L 73.0,29.0 L 78.0,25.0 M 80.0,33.0 L 77.0,36.0 L 76.0,126.0 L 74.0,128.0 L 70.0,127.0 L 42.0,99.0 L 40.0,98.0 L 34.0,98.0 L 29.0,104.0 L 30.0,110.0 L 81.0,161.0 L 93.0,167.0 L 100.0,169.0 L 140.0,169.0 L 150.0,165.0 L 157.0,159.0 L 163.0,147.0 L 163.0,88.0 L 159.0,83.0 L 151.0,83.0 L 147.0,88.0 L 146.0,96.0 L 141.0,97.0 L 140.0,96.0 L 139.0,79.0 L 135.0,75.0 L 128.0,75.0 L 124.0,79.0 L 123.0,88.0 L 122.0,89.0 L 117.0,89.0 L 116.0,76.0 L 111.0,71.0 L 104.0,71.0 L 100.0,75.0 L 99.0,89.0 L 93.0,90.0 L 92.0,37.0 L 88.0,33.0 L 80.0,33.0" fill="#0A0A0A"/>
</svg>
