<?xml version="1.0" ?>
<svg baseProfile="full" height="600px" version="1.1" viewBox="-20.1 -20.1 240.2 240.2" width="600px" xmlns="http://www.w3.org/2000/svg" xmlns:ev="http://www.w3.org/2001/xml-events" xmlns:xlink="http://www.w3.org/1999/xlink">
	<defs/>
	<path d="M 0.0,0.0 L 200.0,0.0 L 200.0,200.0 L 0.0,200.0 L 0.0,0.0" fill="#FDFDFD"/>
	<path d="M 78.0,23.0 L 89.0,23.0 L 96.0,27.0 L 100.0,34.0 L 100.0,76.0 L 102.0,75.0 L 113.0,75.0 L 120.0,79.0 L 121.0,81.0 L 126.0,79.0 L 137.0,79.0 L 142.0,82.0 L 147.0,88.0 L 150.0,87.0 L 161.0,87.0 L 167.0,91.0 L 171.0,96.0 L 172.0,99.0 L 172.0,158.0 L 170.0,166.0 L 165.0,176.0 L 158.0,183.0 L 149.0,188.0 L 140.0,190.0 L 98.0,190.0 L 86.0,186.0 L 77.0,181.0 L 67.0,172.0 L 23.0,128.0 L 20.0,121.0 L 21.0,112.0 L 28.0,104.0 L 33.0,102.0 L 42.0,103.0 L 48.0,107.0 L 67.0,126.0 L 68.0,34.0 L 72.0,28.0 L 78.0,23.0" fill="#FBFBFB"/>
	<path d="M 78.0,23.0 L 89.0,23.0 L 96.0,27.0 L 100.0,34.0 L 100.0,76.0 L 102.0,75.0 L 113.0,75.0 L 120.0,79.0 L 121.0,81.0 L 126.0,79.0 L 137.0,79.0 L 142.0,82.0 L 147.0,88.0 L 150.0,87.0 L 161.0,87.0 L 167.0,91.0 L 171.0,96.0 L 172.0,99.0 L 172.0,158.0 L 170.0,166.0 L 165.0,176.0 L 158.0,183.0 L 149.0,188.0 L 140.0,190.0 L 98.0,190.0 L 86.0,186.0 L 77.0,181.0 L 67.0,172.0 L 23.0,128.0 L 20.0,121.0 L 21.0,112.0 L 28.0,104.0 L 33.0,102.0 L 42.0,103.0 L 48.0,107.0 L 67.0,126.0 L 68.0,34.0 L 72.0,28.0 L 78.0,23.0 M 80.0,31.0 L 76.0,36.0 L 75.0,140.0 L 70.0,140.0 L 42.0,112.0 L 40.0,111.0 L 32.0,111.0 L 29.0,114.0 L 29.0,122.0 L 36.0,130.0 L 77.0,171.0 L 88.0,178.0 L 99.0,182.0 L 141.0,182.0 L 151.0,178.0 L 157.0,173.0 L 162.0,165.0 L 164.0,158.0 L 164.0,100.0 L 159.0,95.0 L 152.0,95.0 L 148.0,99.0 L 147.0,108.0 L 146.0,109.0 L 141.0,109.0 L 140.0,92.0 L 136.0,87.0 L 128.0,87.0 L 124.0,91.0 L 123.0,101.0 L 119.0,102.0 L 117.0,101.0 L 116.0,88.0 L 112.0,83.0 L 104.0,83.0 L 100.0,87.0 L 99.0,101.0 L 95.0,102.0 L 93.0,101.0 L 92.0,36.0 L 88.0,31.0 L 80.0,31.0" fill="#050505"/>
</svg>
