<?xml version="1.0" ?>
<svg baseProfile="full" height="600px" version="1.1" viewBox="-16.08 -16.08 192.16 192.16" width="600px" xmlns="http://www.w3.org/2000/svg" xmlns:ev="http://www.w3.org/2001/xml-events" xmlns:xlink="http://www.w3.org/1999/xlink">
	<defs/>
	<path d="M 0.0,0.0 L 160.0,0.0 L 160.0,160.0 L 0.0,160.0 L 0.0,0.0" fill="#FDFDFC"/>
	<path d="M 60.0,17.0 L 68.0,17.0 L 76.0,21.0 L 82.0,30.0 L 82.0,40.0 L 78.0,47.0 L 77.0,48.0 L 77.0,56.0 L 80.0,54.0 L 87.0,54.0 L 94.0,58.0 L 100.0,54.0 L 107.0,54.0 L 113.0,58.0 L 114.0,60.0 L 120.0,58.0 L 127.0,58.0 L 134.0,64.0 L 135.0,66.0 L 135.0,130.0 L 130.0,140.0 L 123.0,146.0 L 117.0,148.0 L 72.0,148.0 L 64.0,144.0 L 52.0,133.0 L 21.0,102.0 L 17.0,94.0 L 17.0,88.0 L 21.0,82.0 L 26.0,78.0 L 35.0,78.0 L 40.0,81.0 L 51.0,92.0 L 53.0,93.0 L 52.0,49.0 L 48.0,45.0 L 46.0,39.0 L 46.0,30.0 L 52.0,21.0 L 60.0,17.0" fill="#FDECA0"/>
	<path d="M 60.0,17.0 L 68.0,17.0 L 76.0,21.0 L 82.0,30.0 L 82.0,40.0 L 78.0,47.0 L 77.0,48.0 L 77.0,56.0 L 80.0,54.0 L 87.0,54.0 L 94.0,58.0 L 100.0,54.0 L 107.0,54.0 L 113.0,58.0 L 114.0,60.0 L 120.0,58.0 L 127.0,58.0 L 134.0,64.0 L 135.0,66.0 L 135.0,130.0 L 130.0,140.0 L 123.0,146.0 L 117.0,148.0 L 72.0,148.0 L 64.0,144.0 L 52.0,133.0 L 21.0,102.0 L 17.0,94.0 L 17.0,88.0 L 21.0,82.0 L 26.0,78.0 L 35.0,78.0 L 40.0,81.0 L 51.0,92.0 L 53.0,93.0 L 52.0,49.0 L 48.0,45.0 L 46.0,39.0 L 46.0,30.0 L 52.0,21.0 L 60.0,17.0 M 61.0,38.0 L 57.0,42.0 L 57.0,103.0 L 55.0,103.0 L 53.0,99.0 L 38.0,84.0 L 34.0,82.0 L 27.0,82.0 L 22.0,87.0 L 21.0,88.0 L 21.0,95.0 L 30.0,105.0 L 65.0,140.0 L 73.0,144.0 L 117.0,144.0 L 123.0,141.0 L 129.0,134.0 L 131.0,128.0 L 131.0,67.0 L 126.0,62.0 L 119.0,63.0 L 115.0,68.0 L 115.0,70.0 L 111.0,70.0 L 111.0,63.0 L 106.0,58.0 L 99.0,59.0 L 96.0,63.0 L 96.0,70.0 L 92.0,70.0 L 92.0,64.0 L 88.0,59.0 L 81.0,58.0 L 76.0,63.0 L 76.0,70.0 L 72.0,70.0 L 72.0,42.0 L 68.0,38.0 L 61.0,38.0" fill="#BEA151"/>
	<path d="M 60.0,21.0 L 67.0,21.0 L 73.0,24.0 L 77.0,29.0 L 78.0,32.0 L 78.0,39.0 L 76.0,42.0 L 71.0,36.0 L 69.0,35.0 L 60.0,35.0 L 55.0,39.0 L 53.0,44.0 L 50.0,40.0 L 50.0,31.0 L 54.0,25.0 L 60.0,21.0" fill="#F48C8B"/>
	<path d="M 60.0,17.0 L 68.0,17.0 L 76.0,21.0 L 82.0,30.0 L 82.0,40.0 L 78.0,47.0 L 76.0,48.0 L 77.0,32.0 L 74.0,26.0 L 70.0,23.0 L 67.0,22.0 L 60.0,22.0 L 54.0,26.0 L 51.0,31.0 L 51.0,40.0 L 53.0,44.0 L 53.0,49.0 L 48.0,45.0 L 46.0,39.0 L 46.0,30.0 L 52.0,21.0 L 60.0,17.0" fill="#CB504F"/>
</svg>
