<?xml version="1.0" ?>
<svg baseProfile="full" height="600px" version="1.1" viewBox="-20.1 -20.1 240.2 240.2" width="600px" xmlns="http://www.w3.org/2000/svg" xmlns:ev="http://www.w3.org/2001/xml-events" xmlns:xlink="http://www.w3.org/1999/xlink">
	<defs/>
	<path d="M 0.0,0.0 L 200.0,0.0 L 200.0,200.0 L 0.0,200.0 L 0.0,0.0" fill="#FCFCFC"/>
	<path d="M 0.0,0.0 L 200.0,0.0 L 200.0,200.0 L 0.0,200.0 L 0.0,0.0 M 88.0,2.0 L 72.0,6.0 L 60.0,11.0 L 49.0,18.0 L 37.0,29.0 L 28.0,42.0 L 21.0,57.0 L 18.0,73.0 L 18.0,91.0 L 20.0,103.0 L 26.0,118.0 L 35.0,132.0 L 48.0,145.0 L 53.0,147.0 L 45.0,165.0 L 45.0,168.0 L 62.0,175.0 L 70.0,158.0 L 81.0,160.0 L 86.0,161.0 L 107.0,161.0 L 121.0,158.0 L 133.0,153.0 L 145.0,146.0 L 157.0,135.0 L 165.0,124.0 L 172.0,110.0 L 175.0,101.0 L 177.0,91.0 L 177.0,72.0 L 172.0,53.0 L 165.0,39.0 L 157.0,29.0 L 147.0,19.0 L 136.0,12.0 L 125.0,7.0 L 111.0,3.0 L 103.0,2.0 L 88.0,2.0" fill="#FDFDFD"/>
	<path d="M 88.0,2.0 L 103.0,2.0 L 119.0,5.0 L 132.0,10.0 L 143.0,16.0 L 155.0,27.0 L 163.0,36.0 L 169.0,46.0 L 174.0,59.0 L 177.0,72.0 L 177.0,91.0 L 173.0,107.0 L 167.0,121.0 L 160.0,131.0 L 151.0,141.0 L 139.0,150.0 L 124.0,157.0 L 114.0,160.0 L 107.0,161.0 L 86.0,161.0 L 73.0,158.0 L 70.0,158.0 L 62.0,175.0 L 50.0,170.0 L 45.0,168.0 L 46.0,163.0 L 53.0,147.0 L 48.0,145.0 L 34.0,131.0 L 26.0,118.0 L 20.0,103.0 L 18.0,91.0 L 18.0,73.0 L 21.0,57.0 L 29.0,40.0 L 38.0,28.0 L 45.0,21.0 L 55.0,14.0 L 69.0,7.0 L 82.0,3.0 L 88.0,2.0 M 89.0,12.0 L 77.0,14.0 L 63.0,20.0 L 52.0,28.0 L 41.0,39.0 L 33.0,53.0 L 30.0,60.0 L 27.0,74.0 L 27.0,89.0 L 30.0,102.0 L 35.0,115.0 L 44.0,128.0 L 52.0,136.0 L 66.0,145.0 L 79.0,150.0 L 88.0,152.0 L 104.0,152.0 L 118.0,149.0 L 130.0,144.0 L 141.0,137.0 L 148.0,131.0 L 157.0,119.0 L 163.0,107.0 L 166.0,98.0 L 167.0,91.0 L 167.0,71.0 L 163.0,56.0 L 155.0,41.0 L 143.0,28.0 L 133.0,21.0 L 122.0,16.0 L 113.0,13.0 L 106.0,12.0 L 89.0,12.0" fill="#070707"/>
	<path d="M 64.0,62.0 L 69.0,63.0 L 81.0,75.0 L 80.0,79.0 L 78.0,81.0 L 74.0,80.0 L 62.0,68.0 L 63.0,63.0 L 64.0,62.0" fill="#070707"/>
</svg>
