<?xml version="1.0" ?>
<svg baseProfile="full" height="600px" version="1.1" viewBox="-19.296000000000003 -19.296000000000003 230.592 230.592" width="600px" xmlns="http://www.w3.org/2000/svg" xmlns:ev="http://www.w3.org/2001/xml-events" xmlns:xlink="http://www.w3.org/1999/xlink">
	<defs/>
	<path d="M 0.0,0.0 L 192.0,0.0 L 192.0,192.0 L 0.0,192.0 L 0.0,0.0" fill="#FDFDFD"/>
	<path d="M 27.0,32.0 L 73.0,32.0 L 88.0,47.0 L 165.0,48.0 L 171.0,52.0 L 175.0,57.0 L 176.0,59.0 L 176.0,148.0 L 173.0,154.0 L 167.0,159.0 L 160.0,160.0 L 165.0,149.0 L 166.0,145.0 L 166.0,126.0 L 159.0,112.0 L 152.0,105.0 L 138.0,98.0 L 133.0,97.0 L 122.0,97.0 L 112.0,100.0 L 102.0,106.0 L 94.0,115.0 L 90.0,123.0 L 89.0,128.0 L 89.0,145.0 L 93.0,156.0 L 95.0,160.0 L 27.0,160.0 L 21.0,156.0 L 17.0,151.0 L 16.0,149.0 L 16.0,43.0 L 20.0,37.0 L 25.0,33.0 L 27.0,32.0" fill="#FEC828"/>
	<path d="M 122.0,96.0 L 133.0,96.0 L 143.0,99.0 L 153.0,105.0 L 160.0,112.0 L 167.0,126.0 L 167.0,145.0 L 163.0,156.0 L 161.0,159.0 L 162.0,163.0 L 180.0,181.0 L 174.0,188.0 L 170.0,187.0 L 156.0,173.0 L 153.0,169.0 L 149.0,171.0 L 136.0,176.0 L 118.0,176.0 L 108.0,172.0 L 99.0,165.0 L 92.0,156.0 L 88.0,145.0 L 88.0,128.0 L 91.0,119.0 L 97.0,110.0 L 106.0,102.0 L 114.0,98.0 L 122.0,96.0" fill="#65B4F3"/>
	<path d="M 122.0,96.0 L 133.0,96.0 L 143.0,99.0 L 153.0,105.0 L 160.0,112.0 L 167.0,126.0 L 167.0,145.0 L 163.0,156.0 L 161.0,159.0 L 162.0,163.0 L 180.0,181.0 L 174.0,188.0 L 170.0,187.0 L 156.0,173.0 L 153.0,169.0 L 149.0,171.0 L 136.0,176.0 L 118.0,176.0 L 108.0,172.0 L 99.0,165.0 L 92.0,156.0 L 88.0,145.0 L 88.0,128.0 L 91.0,119.0 L 97.0,110.0 L 106.0,102.0 L 114.0,98.0 L 122.0,96.0 M 120.0,105.0 L 110.0,109.0 L 102.0,116.0 L 96.0,128.0 L 96.0,144.0 L 100.0,154.0 L 106.0,161.0 L 114.0,166.0 L 121.0,168.0 L 134.0,168.0 L 145.0,164.0 L 152.0,158.0 L 157.0,150.0 L 159.0,144.0 L 159.0,129.0 L 155.0,119.0 L 148.0,111.0 L 139.0,106.0 L 135.0,105.0 L 120.0,105.0" fill="#636464"/>
	<path d="M 27.0,32.0 L 73.0,32.0 L 87.0,46.0 L 87.0,48.0 L 27.0,49.0 L 21.0,53.0 L 17.0,59.0 L 16.0,59.0 L 16.0,43.0 L 20.0,37.0 L 25.0,33.0 L 27.0,32.0" fill="#FEA103"/>
	<path d="M 123.0,112.0 L 132.0,112.0 L 141.0,116.0 L 146.0,120.0 L 147.0,127.0 L 146.0,128.0 L 141.0,128.0 L 135.0,123.0 L 133.0,122.0 L 122.0,122.0 L 116.0,126.0 L 114.0,128.0 L 109.0,128.0 L 108.0,127.0 L 109.0,120.0 L 117.0,114.0 L 123.0,112.0" fill="#B5DBFA"/>
	<path d="M 163.0,166.0 L 167.0,168.0 L 180.0,181.0 L 174.0,188.0 L 170.0,187.0 L 157.0,174.0 L 159.0,170.0 L 163.0,166.0" fill="#3E4D54"/>
</svg>
