<?xml version="1.0" ?>
<svg baseProfile="full" height="600px" version="1.1" viewBox="-19.296000000000003 -19.296000000000003 230.592 230.592" width="600px" xmlns="http://www.w3.org/2000/svg" xmlns:ev="http://www.w3.org/2001/xml-events" xmlns:xlink="http://www.w3.org/1999/xlink">
	<defs/>
	<path d="M 0.0,0.0 L 192.0,0.0 L 192.0,192.0 L 0.0,192.0 L 0.0,0.0" fill="#FEFEFE"/>
	<path d="M 57.0,16.0 L 75.0,16.0 L 87.0,19.0 L 103.0,27.0 L 113.0,36.0 L 119.0,43.0 L 125.0,54.0 L 129.0,65.0 L 130.0,69.0 L 130.0,88.0 L 128.0,98.0 L 123.0,110.0 L 122.0,113.0 L 136.0,124.0 L 150.0,135.0 L 164.0,146.0 L 172.0,152.0 L 168.0,158.0 L 163.0,165.0 L 158.0,163.0 L 144.0,152.0 L 130.0,141.0 L 113.0,127.0 L 109.0,128.0 L 98.0,136.0 L 87.0,141.0 L 74.0,144.0 L 60.0,144.0 L 45.0,141.0 L 29.0,133.0 L 17.0,122.0 L 8.0,108.0 L 4.0,98.0 L 2.0,89.0 L 2.0,74.0 L 5.0,59.0 L 12.0,45.0 L 19.0,36.0 L 29.0,27.0 L 45.0,19.0 L 57.0,16.0" fill="#64B4F5"/>
	<path d="M 57.0,16.0 L 75.0,16.0 L 87.0,19.0 L 103.0,27.0 L 113.0,36.0 L 119.0,43.0 L 125.0,54.0 L 129.0,65.0 L 130.0,69.0 L 130.0,88.0 L 128.0,98.0 L 123.0,110.0 L 122.0,113.0 L 136.0,124.0 L 150.0,135.0 L 164.0,146.0 L 172.0,152.0 L 168.0,158.0 L 163.0,165.0 L 158.0,163.0 L 144.0,152.0 L 130.0,141.0 L 113.0,127.0 L 109.0,128.0 L 98.0,136.0 L 87.0,141.0 L 74.0,144.0 L 60.0,144.0 L 45.0,141.0 L 29.0,133.0 L 17.0,122.0 L 8.0,108.0 L 4.0,98.0 L 2.0,89.0 L 2.0,74.0 L 5.0,59.0 L 12.0,45.0 L 19.0,36.0 L 29.0,27.0 L 45.0,19.0 L 57.0,16.0 M 57.0,28.0 L 45.0,32.0 L 33.0,39.0 L 25.0,47.0 L 17.0,61.0 L 14.0,71.0 L 14.0,86.0 L 18.0,101.0 L 25.0,113.0 L 33.0,121.0 L 47.0,129.0 L 57.0,132.0 L 75.0,132.0 L 85.0,129.0 L 96.0,123.0 L 106.0,114.0 L 112.0,105.0 L 116.0,96.0 L 118.0,87.0 L 118.0,70.0 L 114.0,58.0 L 107.0,47.0 L 98.0,38.0 L 82.0,30.0 L 72.0,28.0 L 57.0,28.0" fill="#626363"/>
	<path d="M 132.0,123.0 L 136.0,124.0 L 150.0,135.0 L 164.0,146.0 L 172.0,152.0 L 168.0,158.0 L 163.0,165.0 L 158.0,163.0 L 144.0,152.0 L 130.0,141.0 L 123.0,135.0 L 129.0,127.0 L 132.0,123.0" fill="#3A4A51"/>
	<path d="M 58.0,44.0 L 72.0,44.0 L 84.0,48.0 L 89.0,52.0 L 89.0,57.0 L 88.0,58.0 L 81.0,57.0 L 75.0,54.0 L 69.0,53.0 L 60.0,53.0 L 48.0,59.0 L 43.0,65.0 L 39.0,70.0 L 34.0,69.0 L 33.0,64.0 L 39.0,56.0 L 47.0,49.0 L 55.0,45.0 L 58.0,44.0" fill="#B7DCFA"/>
</svg>
