<?xml version="1.0" ?>
<svg baseProfile="full" height="600px" version="1.1" viewBox="-20.1 -20.1 240.2 240.2" width="600px" xmlns="http://www.w3.org/2000/svg" xmlns:ev="http://www.w3.org/2001/xml-events" xmlns:xlink="http://www.w3.org/1999/xlink">
	<defs/>
	<path d="M 0.0,0.0 L 200.0,0.0 L 200.0,200.0 L 0.0,200.0 L 0.0,0.0" fill="#FDFDFD"/>
	<path d="M 62.0,7.0 L 80.0,7.0 L 95.0,11.0 L 109.0,18.0 L 121.0,29.0 L 128.0,37.0 L 136.0,53.0 L 139.0,66.0 L 139.0,85.0 L 134.0,102.0 L 127.0,115.0 L 129.0,119.0 L 142.0,131.0 L 150.0,138.0 L 160.0,147.0 L 171.0,156.0 L 180.0,164.0 L 178.0,168.0 L 170.0,177.0 L 162.0,171.0 L 149.0,159.0 L 141.0,152.0 L 131.0,143.0 L 123.0,136.0 L 115.0,129.0 L 111.0,131.0 L 101.0,137.0 L 87.0,142.0 L 83.0,143.0 L 59.0,143.0 L 43.0,138.0 L 30.0,130.0 L 20.0,121.0 L 12.0,110.0 L 6.0,97.0 L 3.0,84.0 L 3.0,68.0 L 5.0,56.0 L 12.0,40.0 L 19.0,31.0 L 24.0,26.0 L 33.0,18.0 L 47.0,11.0 L 62.0,7.0" fill="#FCFCFC"/>
	<path d="M 62.0,7.0 L 80.0,7.0 L 95.0,11.0 L 109.0,18.0 L 121.0,29.0 L 128.0,37.0 L 136.0,53.0 L 139.0,66.0 L 139.0,85.0 L 134.0,102.0 L 127.0,115.0 L 129.0,119.0 L 142.0,131.0 L 150.0,138.0 L 160.0,147.0 L 171.0,156.0 L 180.0,164.0 L 178.0,168.0 L 170.0,177.0 L 162.0,171.0 L 149.0,159.0 L 141.0,152.0 L 131.0,143.0 L 123.0,136.0 L 115.0,129.0 L 111.0,131.0 L 101.0,137.0 L 87.0,142.0 L 83.0,143.0 L 59.0,143.0 L 43.0,138.0 L 30.0,130.0 L 20.0,121.0 L 12.0,110.0 L 6.0,97.0 L 3.0,84.0 L 3.0,68.0 L 5.0,56.0 L 12.0,40.0 L 19.0,31.0 L 24.0,26.0 L 33.0,18.0 L 47.0,11.0 L 62.0,7.0 M 63.0,15.0 L 51.0,18.0 L 39.0,24.0 L 30.0,31.0 L 21.0,41.0 L 14.0,55.0 L 11.0,66.0 L 11.0,85.0 L 15.0,98.0 L 21.0,109.0 L 30.0,119.0 L 38.0,126.0 L 50.0,132.0 L 62.0,135.0 L 78.0,135.0 L 94.0,131.0 L 105.0,125.0 L 115.0,116.0 L 121.0,109.0 L 129.0,93.0 L 131.0,82.0 L 131.0,67.0 L 128.0,55.0 L 121.0,41.0 L 110.0,29.0 L 99.0,22.0 L 88.0,17.0 L 77.0,15.0 L 63.0,15.0" fill="#070707"/>
</svg>
