<?xml version="1.0" ?>
<svg baseProfile="full" height="600px" version="1.1" viewBox="-19.296000000000003 -19.296000000000003 230.592 230.592" width="600px" xmlns="http://www.w3.org/2000/svg" xmlns:ev="http://www.w3.org/2001/xml-events" xmlns:xlink="http://www.w3.org/1999/xlink">
	<defs/>
	<path d="M 0.0,0.0 L 192.0,0.0 L 192.0,192.0 L 0.0,192.0 L 0.0,0.0" fill="#FEFEFE"/>
	<path d="M 74.0,8.0 L 96.0,8.0 L 104.0,10.0 L 116.0,15.0 L 125.0,21.0 L 134.0,29.0 L 143.0,43.0 L 147.0,52.0 L 149.0,60.0 L 149.0,82.0 L 146.0,93.0 L 138.0,109.0 L 132.0,117.0 L 145.0,133.0 L 158.0,150.0 L 171.0,166.0 L 167.0,171.0 L 158.0,177.0 L 147.0,164.0 L 137.0,151.0 L 126.0,137.0 L 119.0,128.0 L 114.0,129.0 L 98.0,135.0 L 74.0,135.0 L 62.0,132.0 L 49.0,125.0 L 39.0,116.0 L 32.0,108.0 L 25.0,94.0 L 21.0,78.0 L 21.0,63.0 L 25.0,48.0 L 32.0,35.0 L 41.0,25.0 L 49.0,18.0 L 65.0,10.0 L 74.0,8.0" fill="#64B4F5"/>
	<path d="M 74.0,8.0 L 96.0,8.0 L 104.0,10.0 L 116.0,15.0 L 125.0,21.0 L 134.0,29.0 L 143.0,43.0 L 147.0,52.0 L 149.0,60.0 L 149.0,82.0 L 146.0,93.0 L 138.0,109.0 L 132.0,117.0 L 145.0,133.0 L 158.0,150.0 L 171.0,166.0 L 167.0,171.0 L 158.0,177.0 L 147.0,164.0 L 137.0,151.0 L 126.0,137.0 L 119.0,128.0 L 114.0,129.0 L 98.0,135.0 L 74.0,135.0 L 62.0,132.0 L 49.0,125.0 L 39.0,116.0 L 32.0,108.0 L 25.0,94.0 L 21.0,78.0 L 21.0,63.0 L 25.0,48.0 L 32.0,35.0 L 41.0,25.0 L 49.0,18.0 L 65.0,10.0 L 74.0,8.0 M 74.0,20.0 L 63.0,24.0 L 52.0,31.0 L 44.0,39.0 L 37.0,50.0 L 33.0,64.0 L 33.0,79.0 L 38.0,94.0 L 44.0,104.0 L 54.0,114.0 L 70.0,122.0 L 75.0,123.0 L 96.0,123.0 L 110.0,118.0 L 121.0,110.0 L 128.0,102.0 L 135.0,88.0 L 137.0,79.0 L 137.0,61.0 L 133.0,50.0 L 127.0,40.0 L 120.0,32.0 L 109.0,25.0 L 99.0,21.0 L 95.0,20.0 L 74.0,20.0" fill="#626364"/>
	<path d="M 139.0,129.0 L 143.0,131.0 L 156.0,147.0 L 167.0,161.0 L 171.0,167.0 L 163.0,174.0 L 158.0,177.0 L 147.0,164.0 L 137.0,151.0 L 128.0,140.0 L 130.0,136.0 L 139.0,129.0" fill="#3A4951"/>
	<path d="M 76.0,36.0 L 93.0,36.0 L 104.0,40.0 L 114.0,49.0 L 117.0,53.0 L 117.0,59.0 L 115.0,61.0 L 111.0,60.0 L 104.0,51.0 L 98.0,47.0 L 93.0,45.0 L 77.0,45.0 L 68.0,50.0 L 63.0,50.0 L 61.0,48.0 L 62.0,44.0 L 67.0,40.0 L 76.0,36.0" fill="#B8DCFA"/>
</svg>
