<?xml version="1.0" ?>
<svg baseProfile="full" height="600px" version="1.1" viewBox="-12.864 -12.864 153.728 153.728" width="600px" xmlns="http://www.w3.org/2000/svg" xmlns:ev="http://www.w3.org/2001/xml-events" xmlns:xlink="http://www.w3.org/1999/xlink">
	<defs/>
	<path d="M 0.0,0.0 L 128.0,0.0 L 128.0,128.0 L 0.0,128.0 L 0.0,0.0" fill="#FCFCFC"/>
	<path d="M 68.0,7.0 L 82.0,7.0 L 95.0,11.0 L 103.0,17.0 L 111.0,26.0 L 116.0,38.0 L 116.0,54.0 L 112.0,66.0 L 106.0,74.0 L 98.0,81.0 L 88.0,86.0 L 81.0,87.0 L 68.0,87.0 L 56.0,82.0 L 49.0,78.0 L 39.0,87.0 L 27.0,98.0 L 19.0,105.0 L 15.0,107.0 L 11.0,102.0 L 13.0,98.0 L 25.0,87.0 L 35.0,78.0 L 43.0,71.0 L 37.0,58.0 L 36.0,53.0 L 36.0,40.0 L 40.0,29.0 L 46.0,20.0 L 54.0,13.0 L 62.0,9.0 L 68.0,7.0" fill="#FBFBFB"/>
	<path d="M 68.0,7.0 L 82.0,7.0 L 95.0,11.0 L 103.0,17.0 L 111.0,26.0 L 116.0,38.0 L 116.0,54.0 L 112.0,66.0 L 106.0,74.0 L 98.0,81.0 L 88.0,86.0 L 81.0,87.0 L 68.0,87.0 L 56.0,82.0 L 49.0,78.0 L 39.0,87.0 L 27.0,98.0 L 19.0,105.0 L 15.0,107.0 L 11.0,102.0 L 13.0,98.0 L 25.0,87.0 L 35.0,78.0 L 43.0,71.0 L 37.0,58.0 L 36.0,53.0 L 36.0,40.0 L 40.0,29.0 L 46.0,20.0 L 54.0,13.0 L 62.0,9.0 L 68.0,7.0 M 71.0,15.0 L 62.0,18.0 L 56.0,22.0 L 51.0,27.0 L 46.0,35.0 L 44.0,41.0 L 44.0,52.0 L 48.0,63.0 L 53.0,70.0 L 62.0,76.0 L 71.0,79.0 L 82.0,79.0 L 92.0,75.0 L 98.0,71.0 L 104.0,64.0 L 107.0,58.0 L 108.0,53.0 L 108.0,41.0 L 105.0,32.0 L 99.0,24.0 L 91.0,18.0 L 82.0,15.0 L 71.0,15.0" fill="#080808"/>
</svg>
