<?xml version="1.0" ?>
<svg baseProfile="full" height="600px" version="1.1" viewBox="-20.1 -20.1 240.2 240.2" width="600px" xmlns="http://www.w3.org/2000/svg" xmlns:ev="http://www.w3.org/2001/xml-events" xmlns:xlink="http://www.w3.org/1999/xlink">
	<defs/>
	<path d="M 0.0,0.0 L 200.0,0.0 L 200.0,200.0 L 0.0,200.0 L 0.0,0.0" fill="#FDFDFD"/>
	<path d="M 63.0,12.0 L 81.0,12.0 L 93.0,15.0 L 105.0,20.0 L 115.0,27.0 L 123.0,34.0 L 132.0,47.0 L 137.0,58.0 L 140.0,71.0 L 140.0,90.0 L 135.0,107.0 L 130.0,116.0 L 132.0,120.0 L 146.0,131.0 L 160.0,142.0 L 174.0,153.0 L 186.0,162.0 L 185.0,166.0 L 177.0,176.0 L 169.0,170.0 L 153.0,158.0 L 137.0,145.0 L 124.0,135.0 L 119.0,131.0 L 115.0,133.0 L 105.0,140.0 L 93.0,145.0 L 82.0,148.0 L 61.0,148.0 L 45.0,143.0 L 34.0,137.0 L 23.0,128.0 L 15.0,118.0 L 8.0,104.0 L 5.0,95.0 L 4.0,89.0 L 4.0,69.0 L 9.0,53.0 L 15.0,42.0 L 23.0,32.0 L 34.0,23.0 L 50.0,15.0 L 63.0,12.0" fill="#FCFCFC"/>
	<path d="M 63.0,12.0 L 81.0,12.0 L 93.0,15.0 L 105.0,20.0 L 115.0,27.0 L 123.0,34.0 L 132.0,47.0 L 137.0,58.0 L 140.0,71.0 L 140.0,90.0 L 135.0,107.0 L 130.0,116.0 L 132.0,120.0 L 146.0,131.0 L 160.0,142.0 L 174.0,153.0 L 186.0,162.0 L 185.0,166.0 L 177.0,176.0 L 169.0,170.0 L 153.0,158.0 L 137.0,145.0 L 124.0,135.0 L 119.0,131.0 L 115.0,133.0 L 105.0,140.0 L 93.0,145.0 L 82.0,148.0 L 61.0,148.0 L 45.0,143.0 L 34.0,137.0 L 23.0,128.0 L 15.0,118.0 L 8.0,104.0 L 5.0,95.0 L 4.0,89.0 L 4.0,69.0 L 9.0,53.0 L 15.0,42.0 L 23.0,32.0 L 34.0,23.0 L 50.0,15.0 L 63.0,12.0 M 64.0,20.0 L 52.0,23.0 L 38.0,30.0 L 28.0,39.0 L 22.0,46.0 L 15.0,60.0 L 12.0,71.0 L 12.0,86.0 L 14.0,96.0 L 19.0,109.0 L 26.0,119.0 L 35.0,128.0 L 49.0,136.0 L 64.0,140.0 L 79.0,140.0 L 88.0,138.0 L 101.0,133.0 L 111.0,126.0 L 120.0,117.0 L 128.0,103.0 L 132.0,87.0 L 132.0,72.0 L 128.0,57.0 L 122.0,46.0 L 113.0,36.0 L 106.0,30.0 L 92.0,23.0 L 86.0,21.0 L 78.0,20.0 L 64.0,20.0" fill="#070707"/>
</svg>
