<?xml version="1.0" ?>
<svg baseProfile="full" height="600px" version="1.1" viewBox="-19.296000000000003 -19.296000000000003 230.592 230.592" width="600px" xmlns="http://www.w3.org/2000/svg" xmlns:ev="http://www.w3.org/2001/xml-events" xmlns:xlink="http://www.w3.org/1999/xlink">
	<defs/>
	<path d="M 0.0,0.0 L 192.0,0.0 L 192.0,192.0 L 0.0,192.0 L 0.0,0.0" fill="#FDFDFD"/>
	<path d="M 27.0,32.0 L 73.0,32.0 L 88.0,47.0 L 165.0,48.0 L 171.0,52.0 L 175.0,57.0 L 176.0,59.0 L 176.0,148.0 L 173.0,154.0 L 169.0,158.0 L 164.0,157.0 L 161.0,153.0 L 165.0,146.0 L 168.0,139.0 L 168.0,119.0 L 164.0,109.0 L 157.0,100.0 L 148.0,94.0 L 138.0,90.0 L 123.0,90.0 L 113.0,93.0 L 102.0,100.0 L 96.0,108.0 L 92.0,116.0 L 91.0,119.0 L 91.0,137.0 L 95.0,148.0 L 99.0,154.0 L 104.0,160.0 L 27.0,160.0 L 21.0,156.0 L 17.0,151.0 L 16.0,149.0 L 16.0,43.0 L 20.0,37.0 L 25.0,33.0 L 27.0,32.0" fill="#FEC828"/>
	<path d="M 123.0,89.0 L 138.0,89.0 L 152.0,95.0 L 160.0,102.0 L 167.0,113.0 L 169.0,119.0 L 169.0,139.0 L 164.0,150.0 L 162.0,154.0 L 167.0,158.0 L 174.0,166.0 L 181.0,173.0 L 179.0,177.0 L 174.0,181.0 L 155.0,162.0 L 150.0,164.0 L 140.0,168.0 L 135.0,169.0 L 122.0,169.0 L 111.0,165.0 L 100.0,157.0 L 94.0,148.0 L 90.0,137.0 L 90.0,119.0 L 94.0,110.0 L 98.0,104.0 L 102.0,99.0 L 113.0,92.0 L 123.0,89.0" fill="#65B3F3"/>
	<path d="M 123.0,89.0 L 138.0,89.0 L 152.0,95.0 L 160.0,102.0 L 167.0,113.0 L 169.0,119.0 L 169.0,139.0 L 164.0,150.0 L 162.0,154.0 L 167.0,158.0 L 174.0,166.0 L 181.0,173.0 L 179.0,177.0 L 174.0,181.0 L 155.0,162.0 L 150.0,164.0 L 140.0,168.0 L 135.0,169.0 L 122.0,169.0 L 111.0,165.0 L 100.0,157.0 L 94.0,148.0 L 90.0,137.0 L 90.0,119.0 L 94.0,110.0 L 98.0,104.0 L 102.0,99.0 L 113.0,92.0 L 123.0,89.0 M 122.0,97.0 L 110.0,103.0 L 103.0,110.0 L 99.0,118.0 L 98.0,122.0 L 98.0,136.0 L 102.0,146.0 L 109.0,154.0 L 119.0,160.0 L 123.0,161.0 L 134.0,161.0 L 144.0,158.0 L 152.0,152.0 L 158.0,145.0 L 161.0,136.0 L 161.0,120.0 L 156.0,110.0 L 148.0,102.0 L 139.0,98.0 L 135.0,97.0 L 122.0,97.0" fill="#636363"/>
	<path d="M 27.0,32.0 L 73.0,32.0 L 87.0,46.0 L 87.0,48.0 L 27.0,49.0 L 21.0,53.0 L 17.0,59.0 L 16.0,59.0 L 16.0,43.0 L 20.0,37.0 L 25.0,33.0 L 27.0,32.0" fill="#FEA103"/>
	<path d="M 123.0,105.0 L 135.0,105.0 L 145.0,110.0 L 149.0,114.0 L 149.0,120.0 L 148.0,121.0 L 143.0,121.0 L 136.0,115.0 L 134.0,114.0 L 125.0,114.0 L 119.0,118.0 L 116.0,121.0 L 111.0,121.0 L 110.0,120.0 L 110.0,114.0 L 117.0,108.0 L 123.0,105.0" fill="#B6DBFA"/>
	<path d="M 165.0,159.0 L 169.0,161.0 L 181.0,173.0 L 179.0,177.0 L 174.0,181.0 L 159.0,166.0 L 159.0,164.0 L 165.0,159.0" fill="#38474F"/>
</svg>
