<?xml version="1.0" ?>
<svg baseProfile="full" height="600px" version="1.1" viewBox="-12.864 -12.864 153.728 153.728" width="600px" xmlns="http://www.w3.org/2000/svg" xmlns:ev="http://www.w3.org/2001/xml-events" xmlns:xlink="http://www.w3.org/1999/xlink">
	<defs/>
	<path d="M 0.0,0.0 L 128.0,0.0 L 128.0,128.0 L 0.0,128.0 L 0.0,0.0" fill="#FCFCFC"/>
	<path d="M 64.0,21.0 L 81.0,21.0 L 91.0,26.0 L 96.0,30.0 L 102.0,39.0 L 104.0,46.0 L 104.0,60.0 L 100.0,69.0 L 95.0,76.0 L 86.0,82.0 L 79.0,84.0 L 64.0,84.0 L 52.0,78.0 L 45.0,70.0 L 41.0,60.0 L 41.0,45.0 L 45.0,35.0 L 52.0,27.0 L 64.0,21.0" fill="#FCFCFC"/>
	<path d="M 64.0,13.0 L 82.0,13.0 L 92.0,17.0 L 101.0,24.0 L 108.0,33.0 L 112.0,43.0 L 112.0,61.0 L 107.0,73.0 L 101.0,81.0 L 92.0,88.0 L 82.0,92.0 L 62.0,92.0 L 50.0,86.0 L 46.0,87.0 L 39.0,94.0 L 32.0,102.0 L 25.0,109.0 L 18.0,117.0 L 14.0,115.0 L 11.0,111.0 L 23.0,99.0 L 30.0,91.0 L 38.0,83.0 L 41.0,78.0 L 35.0,68.0 L 32.0,58.0 L 32.0,46.0 L 36.0,35.0 L 42.0,26.0 L 51.0,18.0 L 59.0,14.0 L 64.0,13.0 M 64.0,21.0 L 52.0,27.0 L 45.0,35.0 L 41.0,45.0 L 41.0,60.0 L 45.0,70.0 L 52.0,78.0 L 64.0,84.0 L 79.0,84.0 L 88.0,81.0 L 96.0,75.0 L 101.0,68.0 L 104.0,60.0 L 104.0,46.0 L 101.0,37.0 L 95.0,29.0 L 86.0,23.0 L 81.0,21.0 L 64.0,21.0" fill="#090909"/>
</svg>
