<?xml version="1.0" ?>
<svg baseProfile="full" height="600px" version="1.1" viewBox="-19.296000000000003 -19.296000000000003 230.592 230.592" width="600px" xmlns="http://www.w3.org/2000/svg" xmlns:ev="http://www.w3.org/2001/xml-events" xmlns:xlink="http://www.w3.org/1999/xlink">
	<defs/>
	<path d="M 0.0,0.0 L 192.0,0.0 L 192.0,192.0 L 0.0,192.0 L 0.0,0.0" fill="#FDFDFD"/>
	<path d="M 27.0,32.0 L 73.0,32.0 L 88.0,47.0 L 165.0,48.0 L 171.0,52.0 L 175.0,57.0 L 176.0,59.0 L 176.0,118.0 L 172.0,113.0 L 165.0,105.0 L 157.0,100.0 L 149.0,97.0 L 130.0,97.0 L 120.0,101.0 L 112.0,107.0 L 106.0,114.0 L 101.0,125.0 L 100.0,129.0 L 100.0,142.0 L 105.0,155.0 L 107.0,160.0 L 27.0,160.0 L 21.0,156.0 L 17.0,151.0 L 16.0,149.0 L 16.0,43.0 L 20.0,37.0 L 25.0,33.0 L 27.0,32.0" fill="#FEC828"/>
	<path d="M 130.0,96.0 L 149.0,96.0 L 159.0,100.0 L 168.0,107.0 L 175.0,116.0 L 179.0,126.0 L 179.0,144.0 L 175.0,155.0 L 172.0,159.0 L 174.0,163.0 L 184.0,172.0 L 191.0,179.0 L 190.0,183.0 L 184.0,188.0 L 165.0,169.0 L 161.0,170.0 L 149.0,175.0 L 131.0,175.0 L 122.0,172.0 L 113.0,166.0 L 106.0,159.0 L 100.0,146.0 L 99.0,142.0 L 99.0,129.0 L 103.0,118.0 L 109.0,109.0 L 118.0,101.0 L 126.0,97.0 L 130.0,96.0" fill="#65B3F2"/>
	<path d="M 130.0,96.0 L 149.0,96.0 L 159.0,100.0 L 168.0,107.0 L 175.0,116.0 L 179.0,126.0 L 179.0,144.0 L 175.0,155.0 L 172.0,159.0 L 174.0,163.0 L 184.0,172.0 L 191.0,179.0 L 190.0,183.0 L 184.0,188.0 L 165.0,169.0 L 161.0,170.0 L 149.0,175.0 L 131.0,175.0 L 122.0,172.0 L 113.0,166.0 L 106.0,159.0 L 100.0,146.0 L 99.0,142.0 L 99.0,129.0 L 103.0,118.0 L 109.0,109.0 L 118.0,101.0 L 126.0,97.0 L 130.0,96.0 M 131.0,104.0 L 119.0,110.0 L 112.0,118.0 L 108.0,126.0 L 107.0,130.0 L 107.0,141.0 L 111.0,151.0 L 115.0,157.0 L 122.0,163.0 L 131.0,167.0 L 148.0,167.0 L 158.0,162.0 L 164.0,157.0 L 169.0,149.0 L 171.0,142.0 L 171.0,129.0 L 168.0,120.0 L 161.0,111.0 L 153.0,106.0 L 148.0,104.0 L 131.0,104.0" fill="#636463"/>
	<path d="M 27.0,32.0 L 73.0,32.0 L 87.0,46.0 L 87.0,48.0 L 27.0,49.0 L 21.0,53.0 L 17.0,59.0 L 16.0,59.0 L 16.0,43.0 L 20.0,37.0 L 25.0,33.0 L 27.0,32.0" fill="#FEA103"/>
	<path d="M 132.0,112.0 L 147.0,112.0 L 155.0,117.0 L 159.0,121.0 L 159.0,126.0 L 158.0,127.0 L 153.0,127.0 L 145.0,121.0 L 134.0,121.0 L 128.0,125.0 L 125.0,128.0 L 121.0,127.0 L 119.0,125.0 L 120.0,121.0 L 128.0,114.0 L 132.0,112.0" fill="#B6DBFA"/>
	<path d="M 175.0,165.0 L 179.0,167.0 L 191.0,179.0 L 190.0,183.0 L 184.0,188.0 L 169.0,173.0 L 171.0,169.0 L 175.0,165.0" fill="#404E56"/>
</svg>
