<?xml version="1.0" ?>
<svg baseProfile="full" height="600px" version="1.1" viewBox="-12.864 -12.864 153.728 153.728" width="600px" xmlns="http://www.w3.org/2000/svg" xmlns:ev="http://www.w3.org/2001/xml-events" xmlns:xlink="http://www.w3.org/1999/xlink">
	<defs/>
	<path d="M 0.0,0.0 L 128.0,0.0 L 128.0,128.0 L 0.0,128.0 L 0.0,0.0" fill="#FCFCFC"/>
	<path d="M 68.0,12.0 L 81.0,12.0 L 92.0,15.0 L 102.0,21.0 L 110.0,30.0 L 114.0,38.0 L 116.0,44.0 L 116.0,58.0 L 114.0,66.0 L 108.0,77.0 L 101.0,84.0 L 88.0,91.0 L 82.0,92.0 L 68.0,92.0 L 58.0,88.0 L 53.0,85.0 L 48.0,86.0 L 20.0,114.0 L 16.0,113.0 L 14.0,111.0 L 15.0,107.0 L 44.0,78.0 L 42.0,74.0 L 38.0,66.0 L 36.0,57.0 L 36.0,44.0 L 40.0,33.0 L 47.0,24.0 L 54.0,18.0 L 62.0,14.0 L 68.0,12.0" fill="#FAFAFA"/>
	<path d="M 68.0,12.0 L 81.0,12.0 L 92.0,15.0 L 102.0,21.0 L 110.0,30.0 L 114.0,38.0 L 116.0,44.0 L 116.0,58.0 L 114.0,66.0 L 108.0,77.0 L 101.0,84.0 L 88.0,91.0 L 82.0,92.0 L 68.0,92.0 L 58.0,88.0 L 53.0,85.0 L 48.0,86.0 L 20.0,114.0 L 16.0,113.0 L 14.0,111.0 L 15.0,107.0 L 44.0,78.0 L 42.0,74.0 L 38.0,66.0 L 36.0,57.0 L 36.0,44.0 L 40.0,33.0 L 47.0,24.0 L 54.0,18.0 L 62.0,14.0 L 68.0,12.0 M 69.0,20.0 L 60.0,24.0 L 52.0,30.0 L 46.0,39.0 L 44.0,45.0 L 44.0,58.0 L 49.0,70.0 L 55.0,77.0 L 63.0,82.0 L 69.0,84.0 L 82.0,84.0 L 94.0,79.0 L 101.0,73.0 L 108.0,59.0 L 108.0,45.0 L 104.0,36.0 L 98.0,28.0 L 88.0,22.0 L 82.0,20.0 L 69.0,20.0" fill="#060606"/>
</svg>
