<?xml version="1.0" ?>
<svg baseProfile="full" height="600px" version="1.1" viewBox="-19.296000000000003 -19.296000000000003 230.592 230.592" width="600px" xmlns="http://www.w3.org/2000/svg" xmlns:ev="http://www.w3.org/2001/xml-events" xmlns:xlink="http://www.w3.org/1999/xlink">
	<defs/>
	<path d="M 0.0,0.0 L 192.0,0.0 L 192.0,192.0 L 0.0,192.0 L 0.0,0.0" fill="#FEFEFE"/>
	<path d="M 71.0,1.0 L 93.0,1.0 L 108.0,5.0 L 121.0,12.0 L 133.0,23.0 L 142.0,37.0 L 147.0,52.0 L 147.0,74.0 L 144.0,86.0 L 140.0,96.0 L 132.0,107.0 L 129.0,110.0 L 131.0,115.0 L 141.0,128.0 L 155.0,147.0 L 166.0,162.0 L 161.0,167.0 L 154.0,172.0 L 151.0,171.0 L 138.0,153.0 L 126.0,137.0 L 116.0,123.0 L 116.0,121.0 L 101.0,127.0 L 91.0,129.0 L 76.0,129.0 L 60.0,125.0 L 47.0,118.0 L 35.0,107.0 L 29.0,99.0 L 23.0,87.0 L 20.0,75.0 L 20.0,53.0 L 24.0,39.0 L 31.0,27.0 L 42.0,15.0 L 56.0,6.0 L 71.0,1.0" fill="#64B4F5"/>
	<path d="M 71.0,1.0 L 93.0,1.0 L 108.0,5.0 L 121.0,12.0 L 133.0,23.0 L 142.0,37.0 L 147.0,52.0 L 147.0,74.0 L 144.0,86.0 L 140.0,96.0 L 132.0,107.0 L 129.0,110.0 L 131.0,115.0 L 141.0,128.0 L 155.0,147.0 L 166.0,162.0 L 161.0,167.0 L 154.0,172.0 L 151.0,171.0 L 138.0,153.0 L 126.0,137.0 L 116.0,123.0 L 116.0,121.0 L 101.0,127.0 L 91.0,129.0 L 76.0,129.0 L 60.0,125.0 L 47.0,118.0 L 35.0,107.0 L 29.0,99.0 L 23.0,87.0 L 20.0,75.0 L 20.0,53.0 L 24.0,39.0 L 31.0,27.0 L 42.0,15.0 L 56.0,6.0 L 71.0,1.0 M 74.0,13.0 L 61.0,17.0 L 50.0,24.0 L 42.0,32.0 L 35.0,44.0 L 32.0,53.0 L 32.0,76.0 L 37.0,89.0 L 44.0,99.0 L 51.0,106.0 L 65.0,114.0 L 72.0,116.0 L 95.0,116.0 L 108.0,111.0 L 118.0,104.0 L 125.0,97.0 L 131.0,87.0 L 135.0,75.0 L 135.0,55.0 L 131.0,42.0 L 124.0,31.0 L 117.0,24.0 L 107.0,18.0 L 98.0,14.0 L 93.0,13.0 L 74.0,13.0" fill="#626364"/>
	<path d="M 135.0,124.0 L 139.0,125.0 L 149.0,139.0 L 163.0,158.0 L 166.0,163.0 L 154.0,172.0 L 151.0,171.0 L 138.0,153.0 L 126.0,137.0 L 124.0,132.0 L 135.0,124.0" fill="#3A4951"/>
	<path d="M 76.0,29.0 L 92.0,29.0 L 102.0,33.0 L 112.0,42.0 L 117.0,49.0 L 116.0,55.0 L 111.0,56.0 L 103.0,45.0 L 98.0,41.0 L 91.0,38.0 L 76.0,38.0 L 68.0,42.0 L 63.0,42.0 L 62.0,41.0 L 62.0,35.0 L 71.0,30.0 L 76.0,29.0" fill="#B8DCFA"/>
</svg>
