<?xml version="1.0" ?>
<svg baseProfile="full" height="600px" version="1.1" viewBox="-9.648000000000001 -9.648000000000001 115.296 115.296" width="600px" xmlns="http://www.w3.org/2000/svg" xmlns:ev="http://www.w3.org/2001/xml-events" xmlns:xlink="http://www.w3.org/1999/xlink">
	<defs/>
	<path d="M 0.0,0.0 L 96.0,0.0 L 96.0,96.0 L 0.0,96.0 L 0.0,0.0" fill="#FCFCFC"/>
	<path d="M 33.0,12.0 L 45.0,12.0 L 57.0,17.0 L 64.0,25.0 L 68.0,34.0 L 68.0,44.0 L 64.0,55.0 L 62.0,60.0 L 69.0,62.0 L 76.0,70.0 L 90.0,85.0 L 89.0,88.0 L 83.0,93.0 L 79.0,91.0 L 72.0,84.0 L 65.0,76.0 L 59.0,70.0 L 58.0,63.0 L 53.0,65.0 L 45.0,68.0 L 33.0,68.0 L 23.0,63.0 L 16.0,56.0 L 12.0,47.0 L 12.0,33.0 L 17.0,23.0 L 26.0,15.0 L 33.0,12.0" fill="#070707"/>
	<path d="M 35.0,20.0 L 44.0,20.0 L 52.0,24.0 L 58.0,31.0 L 60.0,36.0 L 60.0,45.0 L 54.0,55.0 L 45.0,60.0 L 35.0,60.0 L 27.0,56.0 L 21.0,48.0 L 20.0,44.0 L 20.0,34.0 L 25.0,26.0 L 32.0,21.0 L 35.0,20.0" fill="#F9F9F9"/>
</svg>
