<?xml version="1.0" ?>
<svg baseProfile="full" height="600px" version="1.1" viewBox="-20.1 -20.1 240.2 240.2" width="600px" xmlns="http://www.w3.org/2000/svg" xmlns:ev="http://www.w3.org/2001/xml-events" xmlns:xlink="http://www.w3.org/1999/xlink">
	<defs/>
	<path d="M 0.0,0.0 L 200.0,0.0 L 200.0,200.0 L 0.0,200.0 L 0.0,0.0" fill="#FDFDFD"/>
	<path d="M 99.0,11.0 L 112.0,11.0 L 129.0,15.0 L 141.0,20.0 L 153.0,27.0 L 163.0,36.0 L 170.0,43.0 L 179.0,57.0 L 185.0,70.0 L 189.0,87.0 L 189.0,109.0 L 185.0,125.0 L 180.0,137.0 L 173.0,149.0 L 164.0,159.0 L 156.0,167.0 L 145.0,174.0 L 135.0,179.0 L 124.0,183.0 L 113.0,185.0 L 89.0,185.0 L 73.0,181.0 L 57.0,173.0 L 47.0,166.0 L 46.0,165.0 L 46.0,160.0 L 49.0,157.0 L 55.0,158.0 L 65.0,165.0 L 79.0,171.0 L 93.0,174.0 L 110.0,174.0 L 123.0,171.0 L 136.0,166.0 L 148.0,159.0 L 159.0,149.0 L 168.0,136.0 L 173.0,125.0 L 176.0,116.0 L 177.0,110.0 L 177.0,84.0 L 172.0,68.0 L 165.0,55.0 L 154.0,42.0 L 142.0,33.0 L 129.0,27.0 L 121.0,24.0 L 111.0,22.0 L 99.0,21.0 L 97.0,19.0 L 97.0,13.0 L 99.0,11.0" fill="#070707"/>
</svg>
