<?xml version="1.0" ?>
<svg baseProfile="full" height="600px" version="1.1" viewBox="-12.864 -12.864 153.728 153.728" width="600px" xmlns="http://www.w3.org/2000/svg" xmlns:ev="http://www.w3.org/2001/xml-events" xmlns:xlink="http://www.w3.org/1999/xlink">
	<defs/>
	<path d="M 0.0,0.0 L 128.0,0.0 L 128.0,128.0 L 0.0,128.0 L 0.0,0.0" fill="#FCFCFC"/>
	<path d="M 63.0,4.0 L 79.0,4.0 L 88.0,7.0 L 98.0,13.0 L 106.0,22.0 L 111.0,33.0 L 112.0,37.0 L 112.0,50.0 L 108.0,62.0 L 101.0,72.0 L 92.0,79.0 L 83.0,83.0 L 78.0,84.0 L 64.0,84.0 L 53.0,80.0 L 45.0,75.0 L 29.0,90.0 L 16.0,102.0 L 12.0,105.0 L 7.0,100.0 L 9.0,96.0 L 22.0,84.0 L 38.0,69.0 L 37.0,65.0 L 32.0,52.0 L 32.0,35.0 L 37.0,23.0 L 46.0,13.0 L 55.0,7.0 L 63.0,4.0" fill="#FBFBFB"/>
	<path d="M 63.0,4.0 L 79.0,4.0 L 88.0,7.0 L 98.0,13.0 L 106.0,22.0 L 111.0,33.0 L 112.0,37.0 L 112.0,50.0 L 108.0,62.0 L 101.0,72.0 L 92.0,79.0 L 83.0,83.0 L 78.0,84.0 L 64.0,84.0 L 53.0,80.0 L 45.0,75.0 L 29.0,90.0 L 16.0,102.0 L 12.0,105.0 L 7.0,100.0 L 9.0,96.0 L 22.0,84.0 L 38.0,69.0 L 37.0,65.0 L 32.0,52.0 L 32.0,35.0 L 37.0,23.0 L 46.0,13.0 L 55.0,7.0 L 63.0,4.0 M 65.0,12.0 L 55.0,16.0 L 46.0,24.0 L 40.0,36.0 L 40.0,50.0 L 44.0,61.0 L 51.0,69.0 L 60.0,74.0 L 67.0,76.0 L 77.0,76.0 L 88.0,72.0 L 98.0,63.0 L 102.0,55.0 L 104.0,49.0 L 104.0,38.0 L 99.0,26.0 L 94.0,20.0 L 84.0,14.0 L 76.0,12.0 L 65.0,12.0" fill="#080808"/>
</svg>
