<?xml version="1.0" ?>
<svg baseProfile="full" height="600px" version="1.1" viewBox="-19.296000000000003 -19.296000000000003 230.592 230.592" width="600px" xmlns="http://www.w3.org/2000/svg" xmlns:ev="http://www.w3.org/2001/xml-events" xmlns:xlink="http://www.w3.org/1999/xlink">
	<defs/>
	<path d="M 0.0,0.0 L 192.0,0.0 L 192.0,192.0 L 0.0,192.0 L 0.0,0.0" fill="#FEFEFE"/>
	<path d="M 55.0,9.0 L 75.0,9.0 L 83.0,11.0 L 96.0,16.0 L 106.0,23.0 L 112.0,28.0 L 121.0,40.0 L 126.0,51.0 L 129.0,61.0 L 129.0,83.0 L 125.0,97.0 L 119.0,109.0 L 131.0,120.0 L 139.0,127.0 L 149.0,136.0 L 160.0,145.0 L 166.0,151.0 L 164.0,155.0 L 156.0,164.0 L 148.0,158.0 L 141.0,151.0 L 133.0,144.0 L 119.0,132.0 L 112.0,125.0 L 107.0,122.0 L 97.0,129.0 L 85.0,134.0 L 73.0,137.0 L 56.0,137.0 L 42.0,133.0 L 30.0,127.0 L 18.0,117.0 L 10.0,106.0 L 4.0,93.0 L 1.0,79.0 L 1.0,66.0 L 4.0,52.0 L 12.0,36.0 L 23.0,24.0 L 33.0,17.0 L 43.0,12.0 L 55.0,9.0" fill="#64B4F5"/>
	<path d="M 55.0,9.0 L 75.0,9.0 L 83.0,11.0 L 96.0,16.0 L 106.0,23.0 L 112.0,28.0 L 121.0,40.0 L 126.0,51.0 L 129.0,61.0 L 129.0,83.0 L 125.0,97.0 L 119.0,109.0 L 131.0,120.0 L 139.0,127.0 L 149.0,136.0 L 160.0,145.0 L 166.0,151.0 L 164.0,155.0 L 156.0,164.0 L 148.0,158.0 L 141.0,151.0 L 133.0,144.0 L 119.0,132.0 L 112.0,125.0 L 107.0,122.0 L 97.0,129.0 L 85.0,134.0 L 73.0,137.0 L 56.0,137.0 L 42.0,133.0 L 30.0,127.0 L 18.0,117.0 L 10.0,106.0 L 4.0,93.0 L 1.0,79.0 L 1.0,66.0 L 4.0,52.0 L 12.0,36.0 L 23.0,24.0 L 33.0,17.0 L 43.0,12.0 L 55.0,9.0 M 55.0,21.0 L 43.0,25.0 L 32.0,32.0 L 24.0,40.0 L 16.0,54.0 L 13.0,66.0 L 13.0,80.0 L 17.0,93.0 L 21.0,101.0 L 30.0,112.0 L 44.0,121.0 L 57.0,125.0 L 73.0,125.0 L 88.0,120.0 L 99.0,113.0 L 106.0,106.0 L 113.0,95.0 L 117.0,82.0 L 117.0,64.0 L 114.0,53.0 L 108.0,42.0 L 102.0,35.0 L 91.0,27.0 L 78.0,22.0 L 73.0,21.0 L 55.0,21.0" fill="#626364"/>
	<path d="M 129.0,119.0 L 135.0,123.0 L 149.0,136.0 L 160.0,145.0 L 166.0,151.0 L 164.0,155.0 L 156.0,164.0 L 148.0,158.0 L 141.0,151.0 L 133.0,144.0 L 119.0,132.0 L 121.0,128.0 L 129.0,119.0" fill="#3A4951"/>
	<path d="M 58.0,37.0 L 72.0,37.0 L 83.0,41.0 L 91.0,47.0 L 92.0,52.0 L 90.0,54.0 L 85.0,53.0 L 77.0,48.0 L 72.0,46.0 L 58.0,46.0 L 48.0,51.0 L 42.0,58.0 L 37.0,59.0 L 35.0,57.0 L 35.0,52.0 L 44.0,43.0 L 54.0,38.0 L 58.0,37.0" fill="#B8DCFA"/>
</svg>
