<?xml version="1.0" ?>
<svg baseProfile="full" height="600px" version="1.1" viewBox="-12.864 -12.864 153.728 153.728" width="600px" xmlns="http://www.w3.org/2000/svg" xmlns:ev="http://www.w3.org/2001/xml-events" xmlns:xlink="http://www.w3.org/1999/xlink">
	<defs/>
	<path d="M 0.0,0.0 L 128.0,0.0 L 128.0,128.0 L 0.0,128.0 L 0.0,0.0" fill="#FCFCFC"/>
	<path d="M 60.0,10.0 L 73.0,10.0 L 86.0,14.0 L 97.0,22.0 L 104.0,32.0 L 107.0,40.0 L 107.0,60.0 L 103.0,69.0 L 97.0,78.0 L 86.0,86.0 L 74.0,90.0 L 61.0,90.0 L 51.0,87.0 L 46.0,84.0 L 42.0,85.0 L 30.0,98.0 L 23.0,106.0 L 15.0,115.0 L 11.0,114.0 L 8.0,111.0 L 10.0,107.0 L 25.0,91.0 L 32.0,83.0 L 36.0,78.0 L 35.0,74.0 L 29.0,62.0 L 28.0,59.0 L 28.0,40.0 L 35.0,26.0 L 39.0,21.0 L 49.0,14.0 L 60.0,10.0" fill="#FBFBFB"/>
	<path d="M 60.0,10.0 L 73.0,10.0 L 86.0,14.0 L 97.0,22.0 L 104.0,32.0 L 107.0,40.0 L 107.0,60.0 L 103.0,69.0 L 97.0,78.0 L 86.0,86.0 L 74.0,90.0 L 61.0,90.0 L 51.0,87.0 L 46.0,84.0 L 42.0,85.0 L 30.0,98.0 L 23.0,106.0 L 15.0,115.0 L 11.0,114.0 L 8.0,111.0 L 10.0,107.0 L 25.0,91.0 L 32.0,83.0 L 36.0,78.0 L 35.0,74.0 L 29.0,62.0 L 28.0,59.0 L 28.0,40.0 L 35.0,26.0 L 39.0,21.0 L 49.0,14.0 L 60.0,10.0 M 61.0,18.0 L 51.0,22.0 L 41.0,31.0 L 36.0,42.0 L 36.0,58.0 L 42.0,70.0 L 51.0,78.0 L 61.0,82.0 L 73.0,82.0 L 84.0,78.0 L 94.0,69.0 L 99.0,59.0 L 99.0,41.0 L 94.0,31.0 L 87.0,24.0 L 77.0,19.0 L 74.0,18.0 L 61.0,18.0" fill="#080808"/>
</svg>
