<?xml version="1.0" ?>
<svg baseProfile="full" height="600px" version="1.1" viewBox="-20.1 -20.1 240.2 240.2" width="600px" xmlns="http://www.w3.org/2000/svg" xmlns:ev="http://www.w3.org/2001/xml-events" xmlns:xlink="http://www.w3.org/1999/xlink">
	<defs/>
	<path d="M 0.0,0.0 L 200.0,0.0 L 200.0,200.0 L 0.0,200.0 L 0.0,0.0" fill="#FDFDFD"/>
	<path d="M 90.0,21.0 L 109.0,21.0 L 124.0,25.0 L 140.0,33.0 L 150.0,41.0 L 157.0,48.0 L 164.0,59.0 L 169.0,69.0 L 173.0,85.0 L 173.0,106.0 L 169.0,121.0 L 161.0,137.0 L 150.0,149.0 L 141.0,157.0 L 125.0,165.0 L 116.0,168.0 L 108.0,169.0 L 90.0,169.0 L 78.0,167.0 L 62.0,160.0 L 51.0,152.0 L 40.0,141.0 L 32.0,128.0 L 27.0,114.0 L 25.0,103.0 L 25.0,85.0 L 29.0,69.0 L 36.0,55.0 L 44.0,45.0 L 51.0,38.0 L 65.0,29.0 L 76.0,24.0 L 90.0,21.0" fill="#FDFDFD"/>
	<path d="M 88.0,11.0 L 110.0,11.0 L 131.0,17.0 L 145.0,24.0 L 156.0,33.0 L 165.0,42.0 L 174.0,56.0 L 180.0,70.0 L 183.0,84.0 L 183.0,107.0 L 180.0,119.0 L 175.0,132.0 L 168.0,144.0 L 164.0,149.0 L 165.0,155.0 L 155.0,165.0 L 149.0,163.0 L 140.0,169.0 L 130.0,174.0 L 117.0,178.0 L 109.0,179.0 L 89.0,179.0 L 73.0,176.0 L 62.0,171.0 L 51.0,165.0 L 37.0,153.0 L 28.0,141.0 L 20.0,125.0 L 16.0,112.0 L 15.0,106.0 L 15.0,83.0 L 19.0,67.0 L 27.0,51.0 L 35.0,40.0 L 45.0,30.0 L 60.0,20.0 L 72.0,15.0 L 88.0,11.0 M 90.0,21.0 L 74.0,25.0 L 58.0,33.0 L 48.0,41.0 L 41.0,48.0 L 33.0,60.0 L 27.0,75.0 L 25.0,85.0 L 25.0,103.0 L 27.0,114.0 L 32.0,128.0 L 38.0,138.0 L 47.0,148.0 L 57.0,157.0 L 73.0,165.0 L 82.0,168.0 L 90.0,169.0 L 108.0,169.0 L 120.0,167.0 L 136.0,160.0 L 147.0,152.0 L 158.0,141.0 L 166.0,128.0 L 171.0,114.0 L 173.0,106.0 L 173.0,85.0 L 169.0,69.0 L 162.0,55.0 L 154.0,45.0 L 147.0,38.0 L 133.0,29.0 L 121.0,24.0 L 109.0,21.0 L 90.0,21.0" fill="#070707"/>
</svg>
