<?xml version="1.0" ?>
<svg baseProfile="full" height="600px" version="1.1" viewBox="-19.296000000000003 -19.296000000000003 230.592 230.592" width="600px" xmlns="http://www.w3.org/2000/svg" xmlns:ev="http://www.w3.org/2001/xml-events" xmlns:xlink="http://www.w3.org/1999/xlink">
	<defs/>
	<path d="M 0.0,0.0 L 192.0,0.0 L 192.0,192.0 L 0.0,192.0 L 0.0,0.0" fill="#FEFEFE"/>
	<path d="M 63.0,17.0 L 84.0,17.0 L 96.0,20.0 L 112.0,28.0 L 124.0,39.0 L 133.0,53.0 L 138.0,69.0 L 138.0,92.0 L 133.0,108.0 L 129.0,115.0 L 129.0,118.0 L 137.0,125.0 L 151.0,137.0 L 163.0,148.0 L 171.0,155.0 L 176.0,160.0 L 166.0,171.0 L 162.0,170.0 L 148.0,157.0 L 140.0,150.0 L 130.0,141.0 L 122.0,134.0 L 118.0,130.0 L 114.0,132.0 L 100.0,140.0 L 87.0,144.0 L 83.0,145.0 L 66.0,145.0 L 51.0,141.0 L 38.0,134.0 L 26.0,123.0 L 20.0,115.0 L 15.0,105.0 L 12.0,97.0 L 11.0,91.0 L 11.0,68.0 L 15.0,56.0 L 22.0,43.0 L 32.0,32.0 L 42.0,25.0 L 55.0,19.0 L 63.0,17.0" fill="#64B4F5"/>
	<path d="M 63.0,17.0 L 84.0,17.0 L 96.0,20.0 L 112.0,28.0 L 124.0,39.0 L 133.0,53.0 L 138.0,69.0 L 138.0,92.0 L 133.0,108.0 L 129.0,115.0 L 129.0,118.0 L 137.0,125.0 L 151.0,137.0 L 163.0,148.0 L 171.0,155.0 L 176.0,160.0 L 166.0,171.0 L 162.0,170.0 L 148.0,157.0 L 140.0,150.0 L 130.0,141.0 L 122.0,134.0 L 118.0,130.0 L 114.0,132.0 L 100.0,140.0 L 87.0,144.0 L 83.0,145.0 L 66.0,145.0 L 51.0,141.0 L 38.0,134.0 L 26.0,123.0 L 20.0,115.0 L 15.0,105.0 L 12.0,97.0 L 11.0,91.0 L 11.0,68.0 L 15.0,56.0 L 22.0,43.0 L 32.0,32.0 L 42.0,25.0 L 55.0,19.0 L 63.0,17.0 M 64.0,29.0 L 50.0,34.0 L 38.0,43.0 L 32.0,50.0 L 27.0,58.0 L 23.0,71.0 L 23.0,91.0 L 28.0,105.0 L 35.0,115.0 L 42.0,122.0 L 52.0,128.0 L 62.0,132.0 L 67.0,133.0 L 81.0,133.0 L 95.0,129.0 L 106.0,123.0 L 117.0,112.0 L 124.0,98.0 L 126.0,92.0 L 126.0,71.0 L 122.0,58.0 L 115.0,47.0 L 108.0,40.0 L 98.0,34.0 L 89.0,30.0 L 83.0,29.0 L 64.0,29.0" fill="#626364"/>
	<path d="M 138.0,127.0 L 142.0,129.0 L 155.0,141.0 L 166.0,150.0 L 176.0,159.0 L 170.0,167.0 L 166.0,171.0 L 162.0,170.0 L 148.0,157.0 L 140.0,150.0 L 130.0,141.0 L 128.0,140.0 L 130.0,136.0 L 138.0,127.0" fill="#3B4A52"/>
	<path d="M 67.0,45.0 L 83.0,45.0 L 93.0,49.0 L 101.0,56.0 L 100.0,61.0 L 95.0,62.0 L 87.0,56.0 L 82.0,54.0 L 67.0,54.0 L 59.0,58.0 L 53.0,63.0 L 50.0,67.0 L 45.0,66.0 L 44.0,61.0 L 51.0,53.0 L 58.0,48.0 L 67.0,45.0" fill="#B8DCFA"/>
</svg>
