<?xml version="1.0" ?>
<svg baseProfile="full" height="600px" version="1.1" viewBox="-20.1 -20.1 240.2 240.2" width="600px" xmlns="http://www.w3.org/2000/svg" xmlns:ev="http://www.w3.org/2001/xml-events" xmlns:xlink="http://www.w3.org/1999/xlink">
	<defs/>
	<path d="M 0.0,0.0 L 200.0,0.0 L 200.0,200.0 L 0.0,200.0 L 0.0,0.0" fill="#FDFDFD"/>
	<path d="M 91.0,11.0 L 104.0,11.0 L 107.0,14.0 L 106.0,20.0 L 105.0,21.0 L 87.0,23.0 L 71.0,28.0 L 57.0,36.0 L 45.0,47.0 L 36.0,59.0 L 30.0,72.0 L 27.0,82.0 L 26.0,91.0 L 26.0,105.0 L 28.0,118.0 L 34.0,133.0 L 41.0,144.0 L 50.0,154.0 L 60.0,162.0 L 76.0,170.0 L 88.0,173.0 L 96.0,174.0 L 108.0,174.0 L 121.0,172.0 L 136.0,166.0 L 148.0,159.0 L 159.0,149.0 L 168.0,136.0 L 173.0,125.0 L 176.0,116.0 L 177.0,110.0 L 177.0,84.0 L 174.0,74.0 L 175.0,69.0 L 177.0,67.0 L 182.0,67.0 L 185.0,70.0 L 189.0,87.0 L 189.0,109.0 L 185.0,125.0 L 180.0,137.0 L 173.0,149.0 L 164.0,159.0 L 156.0,167.0 L 145.0,174.0 L 135.0,179.0 L 124.0,183.0 L 113.0,185.0 L 93.0,185.0 L 80.0,183.0 L 66.0,178.0 L 55.0,172.0 L 42.0,162.0 L 32.0,151.0 L 24.0,138.0 L 19.0,126.0 L 16.0,116.0 L 15.0,108.0 L 15.0,88.0 L 18.0,72.0 L 25.0,56.0 L 32.0,45.0 L 44.0,32.0 L 58.0,22.0 L 71.0,16.0 L 84.0,12.0 L 91.0,11.0" fill="#070707"/>
</svg>
