<?xml version="1.0" ?>
<svg baseProfile="full" height="600px" version="1.1" viewBox="-19.296000000000003 -19.296000000000003 230.592 230.592" width="600px" xmlns="http://www.w3.org/2000/svg" xmlns:ev="http://www.w3.org/2001/xml-events" xmlns:xlink="http://www.w3.org/1999/xlink">
	<defs/>
	<path d="M 0.0,0.0 L 192.0,0.0 L 192.0,192.0 L 0.0,192.0 L 0.0,0.0" fill="#FEFDFC"/>
	<path d="M 69.0,79.0 L 74.0,80.0 L 91.0,86.0 L 93.0,88.0 L 92.0,96.0 L 91.0,102.0 L 98.0,110.0 L 112.0,110.0 L 114.0,112.0 L 117.0,129.0 L 117.0,135.0 L 107.0,139.0 L 103.0,139.0 L 102.0,146.0 L 100.0,152.0 L 107.0,161.0 L 106.0,165.0 L 93.0,177.0 L 90.0,179.0 L 85.0,178.0 L 78.0,171.0 L 65.0,172.0 L 63.0,178.0 L 59.0,185.0 L 52.0,184.0 L 36.0,178.0 L 35.0,174.0 L 37.0,162.0 L 30.0,154.0 L 15.0,154.0 L 12.0,141.0 L 11.0,136.0 L 11.0,129.0 L 19.0,126.0 L 24.0,125.0 L 28.0,113.0 L 21.0,103.0 L 22.0,99.0 L 32.0,90.0 L 38.0,85.0 L 42.0,86.0 L 49.0,93.0 L 60.0,92.0 L 63.0,91.0 L 69.0,79.0" fill="#E65303"/>
	<path d="M 122.0,8.0 L 128.0,8.0 L 133.0,19.0 L 145.0,21.0 L 153.0,13.0 L 157.0,14.0 L 168.0,23.0 L 171.0,26.0 L 170.0,31.0 L 165.0,37.0 L 166.0,43.0 L 167.0,50.0 L 173.0,51.0 L 180.0,53.0 L 181.0,54.0 L 180.0,62.0 L 178.0,74.0 L 177.0,76.0 L 162.0,75.0 L 160.0,79.0 L 156.0,83.0 L 158.0,92.0 L 158.0,98.0 L 141.0,104.0 L 136.0,104.0 L 131.0,93.0 L 119.0,91.0 L 111.0,99.0 L 107.0,98.0 L 96.0,89.0 L 93.0,86.0 L 94.0,81.0 L 99.0,75.0 L 98.0,69.0 L 97.0,62.0 L 90.0,61.0 L 83.0,58.0 L 84.0,47.0 L 87.0,36.0 L 102.0,37.0 L 104.0,33.0 L 108.0,29.0 L 106.0,20.0 L 106.0,14.0 L 122.0,8.0" fill="#FEA103"/>
	<path d="M 127.0,36.0 L 136.0,36.0 L 145.0,40.0 L 151.0,48.0 L 152.0,51.0 L 152.0,61.0 L 147.0,70.0 L 139.0,75.0 L 137.0,76.0 L 127.0,76.0 L 119.0,72.0 L 114.0,66.0 L 112.0,61.0 L 112.0,51.0 L 116.0,43.0 L 124.0,37.0 L 127.0,36.0" fill="#FEFCF9"/>
	<path d="M 59.0,112.0 L 68.0,112.0 L 77.0,116.0 L 83.0,124.0 L 84.0,127.0 L 84.0,137.0 L 80.0,145.0 L 74.0,150.0 L 69.0,152.0 L 59.0,152.0 L 53.0,149.0 L 48.0,144.0 L 44.0,136.0 L 44.0,127.0 L 49.0,118.0 L 56.0,113.0 L 59.0,112.0" fill="#FEFBF9"/>
</svg>
