<?xml version="1.0" ?>
<svg baseProfile="full" height="600px" version="1.1" viewBox="-19.296000000000003 -19.296000000000003 230.592 230.592" width="600px" xmlns="http://www.w3.org/2000/svg" xmlns:ev="http://www.w3.org/2001/xml-events" xmlns:xlink="http://www.w3.org/1999/xlink">
	<defs/>
	<path d="M 0.0,0.0 L 192.0,0.0 L 192.0,192.0 L 0.0,192.0 L 0.0,0.0" fill="#FEFDFC"/>
	<path d="M 52.0,80.0 L 58.0,80.0 L 63.0,90.0 L 63.0,92.0 L 71.0,92.0 L 77.0,93.0 L 85.0,84.0 L 89.0,85.0 L 103.0,96.0 L 106.0,99.0 L 105.0,103.0 L 100.0,110.0 L 101.0,115.0 L 103.0,120.0 L 103.0,124.0 L 116.0,126.0 L 117.0,127.0 L 117.0,134.0 L 114.0,152.0 L 113.0,153.0 L 98.0,152.0 L 96.0,157.0 L 92.0,161.0 L 94.0,170.0 L 94.0,177.0 L 74.0,185.0 L 70.0,184.0 L 64.0,173.0 L 52.0,171.0 L 43.0,180.0 L 38.0,179.0 L 26.0,169.0 L 22.0,166.0 L 23.0,161.0 L 28.0,154.0 L 27.0,148.0 L 25.0,142.0 L 12.0,138.0 L 11.0,137.0 L 12.0,123.0 L 14.0,113.0 L 15.0,112.0 L 30.0,112.0 L 32.0,108.0 L 36.0,103.0 L 35.0,97.0 L 33.0,89.0 L 37.0,86.0 L 52.0,80.0" fill="#E65303"/>
	<path d="M 138.0,8.0 L 145.0,9.0 L 159.0,15.0 L 160.0,18.0 L 157.0,27.0 L 158.0,31.0 L 163.0,37.0 L 178.0,38.0 L 181.0,55.0 L 181.0,60.0 L 175.0,62.0 L 167.0,63.0 L 166.0,69.0 L 164.0,75.0 L 170.0,84.0 L 169.0,88.0 L 160.0,96.0 L 155.0,100.0 L 151.0,99.0 L 144.0,92.0 L 131.0,92.0 L 129.0,98.0 L 126.0,104.0 L 119.0,103.0 L 107.0,98.0 L 105.0,97.0 L 105.0,90.0 L 107.0,85.0 L 106.0,81.0 L 101.0,75.0 L 86.0,74.0 L 84.0,65.0 L 83.0,52.0 L 89.0,50.0 L 96.0,48.0 L 100.0,37.0 L 94.0,28.0 L 95.0,24.0 L 104.0,16.0 L 109.0,12.0 L 113.0,13.0 L 120.0,20.0 L 133.0,20.0 L 135.0,14.0 L 138.0,8.0" fill="#FFA103"/>
	<path d="M 127.0,36.0 L 136.0,36.0 L 145.0,40.0 L 151.0,48.0 L 152.0,51.0 L 152.0,61.0 L 148.0,69.0 L 142.0,74.0 L 137.0,76.0 L 127.0,76.0 L 119.0,72.0 L 114.0,66.0 L 112.0,60.0 L 112.0,51.0 L 116.0,43.0 L 124.0,37.0 L 127.0,36.0" fill="#FEFCF8"/>
	<path d="M 59.0,112.0 L 68.0,112.0 L 77.0,116.0 L 83.0,124.0 L 84.0,128.0 L 84.0,137.0 L 80.0,145.0 L 72.0,151.0 L 69.0,152.0 L 59.0,152.0 L 53.0,149.0 L 48.0,144.0 L 44.0,137.0 L 44.0,127.0 L 50.0,117.0 L 59.0,112.0" fill="#FEFBF9"/>
</svg>
