<?xml version="1.0" ?>
<svg baseProfile="full" height="600px" version="1.1" viewBox="-16.08 -16.08 192.16 192.16" width="600px" xmlns="http://www.w3.org/2000/svg" xmlns:ev="http://www.w3.org/2001/xml-events" xmlns:xlink="http://www.w3.org/1999/xlink">
	<defs/>
	<path d="M 0.0,0.0 L 160.0,0.0 L 160.0,160.0 L 0.0,160.0 L 0.0,0.0" fill="#FDFDFD"/>
	<path d="M 46.0,56.0 L 62.0,56.0 L 64.0,69.0 L 74.0,73.0 L 80.0,78.0 L 85.0,77.0 L 94.0,74.0 L 101.0,86.0 L 101.0,89.0 L 92.0,95.0 L 92.0,117.0 L 101.0,123.0 L 100.0,127.0 L 94.0,138.0 L 88.0,136.0 L 83.0,134.0 L 79.0,135.0 L 70.0,141.0 L 64.0,143.0 L 62.0,156.0 L 46.0,156.0 L 44.0,143.0 L 34.0,139.0 L 28.0,134.0 L 23.0,135.0 L 14.0,138.0 L 7.0,126.0 L 7.0,123.0 L 16.0,117.0 L 16.0,95.0 L 7.0,88.0 L 9.0,83.0 L 14.0,74.0 L 20.0,76.0 L 25.0,78.0 L 29.0,77.0 L 38.0,71.0 L 45.0,69.0 L 45.0,61.0 L 46.0,56.0" fill="#D9D1EF"/>
	<path d="M 110.0,4.0 L 122.0,4.0 L 123.0,13.0 L 132.0,16.0 L 139.0,21.0 L 148.0,19.0 L 153.0,27.0 L 152.0,31.0 L 148.0,34.0 L 148.0,54.0 L 153.0,58.0 L 152.0,63.0 L 148.0,69.0 L 139.0,67.0 L 131.0,73.0 L 123.0,75.0 L 122.0,84.0 L 110.0,84.0 L 109.0,75.0 L 103.0,74.0 L 93.0,67.0 L 84.0,69.0 L 79.0,61.0 L 80.0,57.0 L 84.0,54.0 L 84.0,34.0 L 79.0,30.0 L 80.0,25.0 L 84.0,19.0 L 93.0,21.0 L 101.0,15.0 L 106.0,13.0 L 109.0,13.0 L 110.0,4.0" fill="#BEE4FA"/>
	<path d="M 46.0,56.0 L 62.0,56.0 L 64.0,69.0 L 74.0,73.0 L 80.0,78.0 L 85.0,77.0 L 94.0,74.0 L 101.0,86.0 L 101.0,89.0 L 92.0,95.0 L 92.0,117.0 L 101.0,123.0 L 100.0,127.0 L 94.0,138.0 L 88.0,136.0 L 83.0,134.0 L 79.0,135.0 L 70.0,141.0 L 64.0,143.0 L 62.0,156.0 L 46.0,156.0 L 44.0,143.0 L 34.0,139.0 L 28.0,134.0 L 23.0,135.0 L 14.0,138.0 L 7.0,126.0 L 7.0,123.0 L 16.0,117.0 L 16.0,95.0 L 7.0,88.0 L 9.0,83.0 L 14.0,74.0 L 20.0,76.0 L 25.0,78.0 L 29.0,77.0 L 38.0,71.0 L 45.0,69.0 L 45.0,61.0 L 46.0,56.0 M 49.0,60.0 L 49.0,73.0 L 41.0,74.0 L 32.0,80.0 L 29.0,82.0 L 29.0,84.0 L 19.0,80.0 L 15.0,81.0 L 12.0,87.0 L 21.0,94.0 L 20.0,101.0 L 20.0,110.0 L 21.0,118.0 L 12.0,125.0 L 15.0,131.0 L 19.0,132.0 L 26.0,129.0 L 30.0,130.0 L 37.0,136.0 L 48.0,140.0 L 50.0,152.0 L 59.0,152.0 L 60.0,140.0 L 71.0,136.0 L 78.0,131.0 L 78.0,129.0 L 84.0,130.0 L 92.0,133.0 L 96.0,125.0 L 87.0,118.0 L 88.0,111.0 L 88.0,100.0 L 87.0,94.0 L 96.0,87.0 L 92.0,79.0 L 82.0,83.0 L 78.0,82.0 L 71.0,76.0 L 60.0,72.0 L 58.0,60.0 L 49.0,60.0" fill="#917CA6"/>
	<path d="M 110.0,4.0 L 122.0,4.0 L 123.0,13.0 L 132.0,16.0 L 139.0,21.0 L 148.0,19.0 L 153.0,27.0 L 152.0,31.0 L 148.0,34.0 L 148.0,54.0 L 153.0,58.0 L 152.0,63.0 L 148.0,69.0 L 139.0,67.0 L 131.0,73.0 L 123.0,75.0 L 122.0,84.0 L 110.0,84.0 L 109.0,75.0 L 103.0,74.0 L 93.0,67.0 L 84.0,69.0 L 79.0,61.0 L 80.0,57.0 L 84.0,54.0 L 84.0,34.0 L 79.0,30.0 L 80.0,25.0 L 84.0,19.0 L 93.0,21.0 L 101.0,15.0 L 106.0,13.0 L 109.0,13.0 L 110.0,4.0 M 113.0,8.0 L 113.0,16.0 L 105.0,18.0 L 96.0,24.0 L 92.0,26.0 L 86.0,24.0 L 84.0,29.0 L 88.0,32.0 L 90.0,32.0 L 88.0,38.0 L 88.0,50.0 L 89.0,56.0 L 84.0,59.0 L 85.0,63.0 L 87.0,64.0 L 91.0,62.0 L 95.0,63.0 L 101.0,68.0 L 107.0,71.0 L 112.0,72.0 L 114.0,80.0 L 119.0,80.0 L 119.0,72.0 L 124.0,71.0 L 134.0,66.0 L 138.0,62.0 L 146.0,64.0 L 148.0,59.0 L 144.0,56.0 L 142.0,56.0 L 144.0,49.0 L 144.0,38.0 L 143.0,32.0 L 148.0,29.0 L 146.0,24.0 L 141.0,26.0 L 137.0,25.0 L 131.0,20.0 L 120.0,16.0 L 119.0,8.0 L 113.0,8.0" fill="#7E91A1"/>
	<path d="M 49.0,88.0 L 58.0,88.0 L 66.0,92.0 L 70.0,97.0 L 72.0,101.0 L 72.0,109.0 L 69.0,116.0 L 65.0,121.0 L 57.0,124.0 L 49.0,124.0 L 41.0,119.0 L 37.0,113.0 L 36.0,110.0 L 36.0,101.0 L 41.0,93.0 L 49.0,88.0" fill="#FBFBFC"/>
	<path d="M 113.0,28.0 L 120.0,28.0 L 127.0,32.0 L 131.0,37.0 L 132.0,40.0 L 132.0,47.0 L 129.0,54.0 L 124.0,58.0 L 120.0,60.0 L 112.0,60.0 L 105.0,56.0 L 101.0,51.0 L 100.0,48.0 L 100.0,41.0 L 103.0,34.0 L 109.0,29.0 L 113.0,28.0" fill="#FBFBFC"/>
	<path d="M 48.0,84.0 L 59.0,84.0 L 69.0,89.0 L 75.0,98.0 L 76.0,101.0 L 76.0,110.0 L 73.0,118.0 L 69.0,123.0 L 63.0,127.0 L 59.0,128.0 L 48.0,128.0 L 38.0,122.0 L 33.0,114.0 L 32.0,111.0 L 32.0,100.0 L 37.0,91.0 L 46.0,85.0 L 48.0,84.0 M 49.0,88.0 L 41.0,93.0 L 36.0,101.0 L 36.0,110.0 L 40.0,118.0 L 45.0,122.0 L 49.0,124.0 L 57.0,124.0 L 65.0,121.0 L 71.0,113.0 L 72.0,109.0 L 72.0,101.0 L 67.0,93.0 L 61.0,89.0 L 58.0,88.0 L 49.0,88.0" fill="#907BA6"/>
	<path d="M 112.0,24.0 L 121.0,24.0 L 129.0,28.0 L 135.0,36.0 L 136.0,39.0 L 136.0,48.0 L 132.0,57.0 L 126.0,62.0 L 120.0,64.0 L 111.0,64.0 L 103.0,60.0 L 97.0,52.0 L 96.0,49.0 L 96.0,40.0 L 99.0,33.0 L 103.0,28.0 L 108.0,25.0 L 112.0,24.0 M 113.0,28.0 L 106.0,31.0 L 101.0,37.0 L 100.0,41.0 L 100.0,48.0 L 104.0,55.0 L 109.0,59.0 L 112.0,60.0 L 120.0,60.0 L 128.0,55.0 L 131.0,50.0 L 132.0,47.0 L 132.0,40.0 L 128.0,33.0 L 123.0,29.0 L 120.0,28.0 L 113.0,28.0" fill="#7E91A2"/>
</svg>
