<?xml version="1.0" ?>
<svg baseProfile="full" height="600px" version="1.1" viewBox="-12.864 -12.864 153.728 153.728" width="600px" xmlns="http://www.w3.org/2000/svg" xmlns:ev="http://www.w3.org/2001/xml-events" xmlns:xlink="http://www.w3.org/1999/xlink">
	<defs/>
	<path d="M 0.0,0.0 L 128.0,0.0 L 128.0,128.0 L 0.0,128.0 L 0.0,0.0" fill="#FCFCFC"/>
	<path d="M 51.0,12.0 L 74.0,12.0 L 77.0,24.0 L 77.0,27.0 L 83.0,29.0 L 86.0,31.0 L 95.0,29.0 L 100.0,27.0 L 103.0,27.0 L 114.0,45.0 L 108.0,52.0 L 104.0,56.0 L 104.0,69.0 L 114.0,77.0 L 115.0,80.0 L 105.0,98.0 L 90.0,95.0 L 80.0,101.0 L 78.0,114.0 L 77.0,116.0 L 54.0,116.0 L 51.0,104.0 L 51.0,101.0 L 45.0,99.0 L 42.0,97.0 L 35.0,98.0 L 28.0,101.0 L 25.0,101.0 L 14.0,83.0 L 20.0,76.0 L 24.0,72.0 L 24.0,59.0 L 14.0,51.0 L 13.0,48.0 L 23.0,30.0 L 38.0,33.0 L 48.0,27.0 L 50.0,13.0 L 51.0,12.0" fill="#F9F9F9"/>
	<path d="M 51.0,12.0 L 74.0,12.0 L 77.0,24.0 L 77.0,27.0 L 83.0,29.0 L 86.0,31.0 L 95.0,29.0 L 100.0,27.0 L 103.0,27.0 L 114.0,45.0 L 108.0,52.0 L 104.0,56.0 L 104.0,69.0 L 114.0,77.0 L 115.0,80.0 L 105.0,98.0 L 90.0,95.0 L 80.0,101.0 L 78.0,114.0 L 77.0,116.0 L 54.0,116.0 L 51.0,104.0 L 51.0,101.0 L 45.0,99.0 L 42.0,97.0 L 35.0,98.0 L 28.0,101.0 L 25.0,101.0 L 14.0,83.0 L 20.0,76.0 L 24.0,72.0 L 24.0,59.0 L 14.0,51.0 L 13.0,48.0 L 23.0,30.0 L 38.0,33.0 L 48.0,27.0 L 50.0,13.0 L 51.0,12.0 M 57.0,20.0 L 56.0,33.0 L 49.0,35.0 L 40.0,42.0 L 32.0,40.0 L 27.0,40.0 L 23.0,46.0 L 25.0,50.0 L 31.0,55.0 L 33.0,55.0 L 32.0,58.0 L 32.0,70.0 L 33.0,75.0 L 24.0,83.0 L 29.0,91.0 L 39.0,88.0 L 44.0,89.0 L 52.0,94.0 L 58.0,95.0 L 60.0,107.0 L 61.0,108.0 L 70.0,108.0 L 72.0,99.0 L 72.0,95.0 L 78.0,93.0 L 87.0,87.0 L 90.0,86.0 L 96.0,88.0 L 101.0,88.0 L 105.0,80.0 L 97.0,73.0 L 95.0,73.0 L 96.0,69.0 L 96.0,59.0 L 95.0,53.0 L 104.0,45.0 L 99.0,37.0 L 93.0,38.0 L 89.0,40.0 L 84.0,39.0 L 76.0,34.0 L 70.0,33.0 L 67.0,20.0 L 57.0,20.0" fill="#070707"/>
	<path d="M 60.0,44.0 L 69.0,44.0 L 77.0,48.0 L 83.0,56.0 L 84.0,59.0 L 84.0,68.0 L 80.0,77.0 L 74.0,82.0 L 69.0,84.0 L 59.0,84.0 L 51.0,80.0 L 45.0,72.0 L 44.0,69.0 L 44.0,59.0 L 48.0,51.0 L 56.0,45.0 L 60.0,44.0" fill="#080808"/>
	<path d="M 60.0,52.0 L 68.0,52.0 L 75.0,58.0 L 76.0,60.0 L 76.0,67.0 L 73.0,72.0 L 68.0,76.0 L 60.0,76.0 L 53.0,70.0 L 52.0,68.0 L 52.0,60.0 L 58.0,53.0 L 60.0,52.0" fill="#F7F7F7"/>
</svg>
