<?xml version="1.0" ?>
<svg baseProfile="full" height="600px" version="1.1" viewBox="-16.08 -16.08 192.16 192.16" width="600px" xmlns="http://www.w3.org/2000/svg" xmlns:ev="http://www.w3.org/2001/xml-events" xmlns:xlink="http://www.w3.org/1999/xlink">
	<defs/>
	<path d="M 0.0,0.0 L 160.0,0.0 L 160.0,160.0 L 0.0,160.0 L 0.0,0.0" fill="#FDFDFD"/>
	<path d="M 46.0,56.0 L 50.0,57.0 L 53.0,65.0 L 53.0,68.0 L 64.0,69.0 L 74.0,72.0 L 83.0,65.0 L 90.0,71.0 L 95.0,77.0 L 88.0,86.0 L 91.0,95.0 L 92.0,99.0 L 92.0,107.0 L 103.0,110.0 L 104.0,114.0 L 101.0,125.0 L 100.0,126.0 L 87.0,126.0 L 78.0,136.0 L 74.0,139.0 L 74.0,152.0 L 67.0,155.0 L 59.0,156.0 L 55.0,146.0 L 55.0,144.0 L 46.0,144.0 L 36.0,140.0 L 31.0,142.0 L 24.0,147.0 L 13.0,136.0 L 19.0,128.0 L 20.0,124.0 L 16.0,111.0 L 16.0,105.0 L 10.0,104.0 L 4.0,101.0 L 6.0,89.0 L 7.0,86.0 L 21.0,86.0 L 30.0,76.0 L 34.0,73.0 L 34.0,59.0 L 46.0,56.0" fill="#D9D1EF"/>
	<path d="M 120.0,4.0 L 130.0,6.0 L 132.0,7.0 L 132.0,16.0 L 140.0,22.0 L 144.0,27.0 L 144.0,29.0 L 153.0,28.0 L 156.0,36.0 L 156.0,40.0 L 151.0,42.0 L 148.0,42.0 L 148.0,50.0 L 144.0,60.0 L 146.0,64.0 L 148.0,69.0 L 141.0,76.0 L 136.0,74.0 L 132.0,72.0 L 122.0,76.0 L 114.0,76.0 L 113.0,81.0 L 112.0,84.0 L 104.0,83.0 L 100.0,81.0 L 101.0,72.0 L 97.0,70.0 L 91.0,65.0 L 88.0,60.0 L 79.0,60.0 L 76.0,51.0 L 76.0,48.0 L 81.0,46.0 L 84.0,46.0 L 84.0,37.0 L 88.0,28.0 L 86.0,24.0 L 84.0,19.0 L 91.0,12.0 L 96.0,14.0 L 100.0,16.0 L 109.0,12.0 L 118.0,12.0 L 119.0,6.0 L 120.0,4.0" fill="#BEE4FA"/>
	<path d="M 46.0,56.0 L 50.0,57.0 L 53.0,65.0 L 53.0,68.0 L 64.0,69.0 L 74.0,72.0 L 83.0,65.0 L 90.0,71.0 L 95.0,77.0 L 88.0,86.0 L 91.0,95.0 L 92.0,99.0 L 92.0,107.0 L 103.0,110.0 L 104.0,114.0 L 101.0,125.0 L 100.0,126.0 L 87.0,126.0 L 78.0,136.0 L 74.0,139.0 L 74.0,152.0 L 67.0,155.0 L 59.0,156.0 L 55.0,146.0 L 55.0,144.0 L 46.0,144.0 L 36.0,140.0 L 31.0,142.0 L 24.0,147.0 L 13.0,136.0 L 19.0,128.0 L 20.0,124.0 L 16.0,111.0 L 16.0,105.0 L 10.0,104.0 L 4.0,101.0 L 6.0,89.0 L 7.0,86.0 L 21.0,86.0 L 30.0,76.0 L 34.0,73.0 L 34.0,59.0 L 46.0,56.0 M 42.0,61.0 L 38.0,62.0 L 39.0,75.0 L 29.0,82.0 L 23.0,91.0 L 10.0,90.0 L 9.0,99.0 L 19.0,103.0 L 22.0,118.0 L 25.0,124.0 L 24.0,128.0 L 19.0,134.0 L 19.0,137.0 L 21.0,137.0 L 21.0,139.0 L 23.0,139.0 L 23.0,141.0 L 27.0,140.0 L 33.0,135.0 L 39.0,137.0 L 49.0,140.0 L 58.0,140.0 L 59.0,145.0 L 61.0,151.0 L 69.0,150.0 L 70.0,149.0 L 69.0,137.0 L 79.0,130.0 L 85.0,121.0 L 97.0,122.0 L 99.0,118.0 L 99.0,113.0 L 91.0,110.0 L 88.0,110.0 L 88.0,101.0 L 85.0,91.0 L 83.0,85.0 L 89.0,78.0 L 87.0,74.0 L 84.0,71.0 L 80.0,73.0 L 75.0,77.0 L 71.0,76.0 L 58.0,72.0 L 50.0,72.0 L 49.0,66.0 L 47.0,61.0 L 42.0,61.0" fill="#917CA6"/>
	<path d="M 120.0,4.0 L 130.0,6.0 L 132.0,7.0 L 132.0,16.0 L 140.0,22.0 L 144.0,27.0 L 144.0,29.0 L 153.0,28.0 L 156.0,36.0 L 156.0,40.0 L 151.0,42.0 L 148.0,42.0 L 148.0,50.0 L 144.0,60.0 L 146.0,64.0 L 148.0,69.0 L 141.0,76.0 L 136.0,74.0 L 132.0,72.0 L 122.0,76.0 L 114.0,76.0 L 113.0,81.0 L 112.0,84.0 L 104.0,83.0 L 100.0,81.0 L 101.0,72.0 L 97.0,70.0 L 91.0,65.0 L 88.0,60.0 L 79.0,60.0 L 76.0,51.0 L 76.0,48.0 L 81.0,46.0 L 84.0,46.0 L 84.0,37.0 L 88.0,28.0 L 86.0,24.0 L 84.0,19.0 L 91.0,12.0 L 96.0,14.0 L 100.0,16.0 L 109.0,12.0 L 118.0,12.0 L 119.0,6.0 L 120.0,4.0 M 123.0,9.0 L 120.0,15.0 L 107.0,17.0 L 98.0,21.0 L 92.0,17.0 L 89.0,21.0 L 93.0,27.0 L 89.0,36.0 L 88.0,38.0 L 87.0,48.0 L 81.0,51.0 L 81.0,55.0 L 88.0,55.0 L 90.0,54.0 L 92.0,59.0 L 99.0,67.0 L 104.0,70.0 L 105.0,79.0 L 110.0,78.0 L 112.0,73.0 L 124.0,71.0 L 134.0,67.0 L 140.0,71.0 L 143.0,67.0 L 139.0,61.0 L 144.0,49.0 L 144.0,39.0 L 150.0,38.0 L 151.0,33.0 L 142.0,32.0 L 136.0,24.0 L 131.0,20.0 L 126.0,18.0 L 127.0,16.0 L 127.0,9.0 L 123.0,9.0" fill="#7E91A2"/>
	<path d="M 49.0,88.0 L 58.0,88.0 L 66.0,92.0 L 70.0,97.0 L 72.0,101.0 L 72.0,110.0 L 68.0,118.0 L 63.0,122.0 L 58.0,124.0 L 49.0,124.0 L 41.0,119.0 L 37.0,113.0 L 36.0,110.0 L 36.0,101.0 L 41.0,93.0 L 49.0,88.0" fill="#FBFBFC"/>
	<path d="M 113.0,28.0 L 120.0,28.0 L 127.0,32.0 L 131.0,37.0 L 132.0,40.0 L 132.0,47.0 L 129.0,54.0 L 124.0,58.0 L 120.0,60.0 L 112.0,60.0 L 105.0,56.0 L 101.0,51.0 L 100.0,48.0 L 100.0,41.0 L 103.0,34.0 L 109.0,29.0 L 113.0,28.0" fill="#FBFBFC"/>
	<path d="M 48.0,84.0 L 59.0,84.0 L 69.0,89.0 L 75.0,98.0 L 76.0,101.0 L 76.0,110.0 L 73.0,118.0 L 69.0,123.0 L 63.0,127.0 L 59.0,128.0 L 50.0,128.0 L 42.0,125.0 L 37.0,121.0 L 32.0,111.0 L 32.0,100.0 L 37.0,91.0 L 46.0,85.0 L 48.0,84.0 M 49.0,88.0 L 41.0,93.0 L 36.0,101.0 L 36.0,110.0 L 40.0,118.0 L 45.0,122.0 L 49.0,124.0 L 58.0,124.0 L 66.0,120.0 L 71.0,113.0 L 72.0,110.0 L 72.0,101.0 L 67.0,93.0 L 61.0,89.0 L 58.0,88.0 L 49.0,88.0" fill="#907BA5"/>
	<path d="M 112.0,24.0 L 121.0,24.0 L 129.0,28.0 L 135.0,36.0 L 136.0,39.0 L 136.0,48.0 L 132.0,57.0 L 126.0,62.0 L 121.0,64.0 L 111.0,64.0 L 103.0,60.0 L 97.0,52.0 L 96.0,49.0 L 96.0,40.0 L 99.0,33.0 L 103.0,28.0 L 108.0,25.0 L 112.0,24.0 M 113.0,28.0 L 106.0,31.0 L 101.0,37.0 L 100.0,41.0 L 100.0,48.0 L 104.0,55.0 L 109.0,59.0 L 112.0,60.0 L 120.0,60.0 L 128.0,55.0 L 131.0,50.0 L 132.0,47.0 L 132.0,40.0 L 128.0,33.0 L 123.0,29.0 L 120.0,28.0 L 113.0,28.0" fill="#7E91A2"/>
</svg>
