<?xml version="1.0" ?>
<svg baseProfile="full" height="600px" version="1.1" viewBox="-12.06 -12.06 144.12 144.12" width="600px" xmlns="http://www.w3.org/2000/svg" xmlns:ev="http://www.w3.org/2001/xml-events" xmlns:xlink="http://www.w3.org/1999/xlink">
	<defs/>
	<path d="M 0.0,0.0 L 120.0,0.0 L 120.0,120.0 L 0.0,120.0 L 0.0,0.0" fill="#FBFBFB"/>
	<path d="M 32.0,33.0 L 36.0,33.0 L 38.0,39.0 L 50.0,39.0 L 52.0,33.0 L 58.0,34.0 L 59.0,42.0 L 63.0,45.0 L 69.0,45.0 L 74.0,43.0 L 77.0,46.0 L 75.0,51.0 L 75.0,57.0 L 78.0,61.0 L 86.0,62.0 L 87.0,68.0 L 81.0,71.0 L 81.0,82.0 L 87.0,84.0 L 86.0,90.0 L 78.0,91.0 L 75.0,95.0 L 75.0,101.0 L 77.0,106.0 L 74.0,109.0 L 69.0,107.0 L 63.0,107.0 L 59.0,110.0 L 58.0,118.0 L 52.0,119.0 L 50.0,113.0 L 39.0,113.0 L 36.0,119.0 L 30.0,118.0 L 29.0,110.0 L 25.0,107.0 L 19.0,107.0 L 14.0,109.0 L 11.0,106.0 L 13.0,101.0 L 13.0,95.0 L 10.0,91.0 L 2.0,90.0 L 1.0,84.0 L 7.0,82.0 L 7.0,70.0 L 1.0,68.0 L 2.0,62.0 L 10.0,61.0 L 13.0,57.0 L 13.0,51.0 L 11.0,46.0 L 14.0,43.0 L 19.0,45.0 L 25.0,45.0 L 29.0,42.0 L 30.0,34.0 L 32.0,33.0" fill="#060606"/>
	<path d="M 38.0,52.0 L 49.0,52.0 L 59.0,57.0 L 66.0,65.0 L 68.0,70.0 L 68.0,81.0 L 63.0,91.0 L 56.0,97.0 L 49.0,100.0 L 38.0,100.0 L 30.0,96.0 L 23.0,88.0 L 20.0,81.0 L 20.0,70.0 L 24.0,62.0 L 33.0,54.0 L 38.0,52.0" fill="#F9F9F9"/>
	<path d="M 68.0,1.0 L 73.0,1.0 L 76.0,7.0 L 84.0,7.0 L 87.0,1.0 L 92.0,1.0 L 93.0,2.0 L 93.0,11.0 L 98.0,13.0 L 102.0,12.0 L 107.0,10.0 L 110.0,13.0 L 108.0,18.0 L 107.0,22.0 L 109.0,27.0 L 118.0,27.0 L 119.0,28.0 L 119.0,33.0 L 113.0,36.0 L 113.0,44.0 L 119.0,47.0 L 119.0,52.0 L 118.0,53.0 L 109.0,53.0 L 107.0,58.0 L 108.0,62.0 L 110.0,67.0 L 107.0,70.0 L 102.0,68.0 L 98.0,67.0 L 94.0,69.0 L 92.0,62.0 L 89.0,58.0 L 95.0,53.0 L 99.0,45.0 L 99.0,35.0 L 95.0,27.0 L 90.0,23.0 L 84.0,21.0 L 75.0,21.0 L 67.0,25.0 L 62.0,31.0 L 57.0,27.0 L 51.0,26.0 L 53.0,22.0 L 52.0,18.0 L 50.0,13.0 L 53.0,10.0 L 58.0,12.0 L 62.0,13.0 L 67.0,11.0 L 67.0,2.0 L 68.0,1.0" fill="#050505"/>
	<path d="M 41.0,68.0 L 47.0,68.0 L 52.0,73.0 L 51.0,81.0 L 47.0,84.0 L 41.0,84.0 L 36.0,79.0 L 36.0,73.0 L 41.0,68.0" fill="#090909"/>
	<path d="M 119.0,32.0 L 120.0,32.0 L 120.0,49.0 L 119.0,47.0 L 113.0,45.0 L 112.0,44.0 L 112.0,36.0 L 119.0,32.0" fill="#F2F2F2"/>
	<path d="M 78.0,36.0 L 83.0,37.0 L 84.0,42.0 L 82.0,44.0 L 77.0,43.0 L 76.0,38.0 L 78.0,36.0" fill="#030303"/>
	<path d="M 92.0,72.0 L 93.0,72.0 L 93.0,78.0 L 88.0,77.0 L 88.0,75.0 L 92.0,72.0" fill="#222222"/>
	<path d="M 42.0,27.0 L 48.0,27.0 L 45.0,32.0 L 43.0,32.0 L 42.0,27.0" fill="#212121"/>
</svg>
