<?xml version="1.0" ?>
<svg baseProfile="full" height="600px" version="1.1" viewBox="-12.06 -12.06 144.12 144.12" width="600px" xmlns="http://www.w3.org/2000/svg" xmlns:ev="http://www.w3.org/2001/xml-events" xmlns:xlink="http://www.w3.org/1999/xlink">
	<defs/>
	<path d="M 0.0,0.0 L 120.0,0.0 L 120.0,120.0 L 0.0,120.0 L 0.0,0.0" fill="#FBFBFB"/>
	<path d="M 36.0,32.0 L 41.0,33.0 L 44.0,39.0 L 54.0,40.0 L 56.0,35.0 L 59.0,34.0 L 62.0,36.0 L 63.0,45.0 L 67.0,48.0 L 78.0,47.0 L 80.0,52.0 L 77.0,55.0 L 78.0,63.0 L 79.0,65.0 L 86.0,66.0 L 88.0,68.0 L 87.0,73.0 L 81.0,76.0 L 80.0,86.0 L 85.0,88.0 L 86.0,91.0 L 84.0,94.0 L 75.0,95.0 L 72.0,99.0 L 73.0,110.0 L 68.0,112.0 L 65.0,109.0 L 59.0,109.0 L 55.0,111.0 L 54.0,118.0 L 52.0,120.0 L 0.0,120.0 L 0.0,80.0 L 7.0,76.0 L 8.0,66.0 L 3.0,64.0 L 2.0,61.0 L 4.0,58.0 L 13.0,57.0 L 16.0,53.0 L 15.0,42.0 L 20.0,40.0 L 23.0,43.0 L 30.0,42.0 L 33.0,41.0 L 34.0,34.0 L 36.0,32.0" fill="#060606"/>
	<path d="M 83.0,0.0 L 120.0,0.0 L 120.0,48.0 L 119.0,49.0 L 111.0,50.0 L 109.0,54.0 L 110.0,58.0 L 112.0,61.0 L 111.0,66.0 L 108.0,67.0 L 104.0,65.0 L 99.0,66.0 L 97.0,68.0 L 97.0,76.0 L 93.0,78.0 L 94.0,75.0 L 94.0,65.0 L 89.0,60.0 L 87.0,58.0 L 95.0,53.0 L 99.0,45.0 L 99.0,35.0 L 95.0,27.0 L 90.0,23.0 L 84.0,21.0 L 75.0,21.0 L 67.0,25.0 L 64.0,28.0 L 54.0,28.0 L 50.0,32.0 L 48.0,32.0 L 48.0,30.0 L 50.0,30.0 L 51.0,23.0 L 47.0,18.0 L 49.0,14.0 L 52.0,13.0 L 56.0,15.0 L 61.0,14.0 L 63.0,12.0 L 63.0,4.0 L 66.0,2.0 L 69.0,2.0 L 72.0,7.0 L 80.0,7.0 L 83.0,0.0" fill="#060606"/>
	<path d="M 38.0,52.0 L 49.0,52.0 L 59.0,57.0 L 66.0,65.0 L 68.0,70.0 L 68.0,81.0 L 63.0,91.0 L 56.0,97.0 L 49.0,100.0 L 38.0,100.0 L 30.0,96.0 L 23.0,88.0 L 20.0,81.0 L 20.0,70.0 L 24.0,62.0 L 33.0,54.0 L 38.0,52.0" fill="#FAFAFA"/>
	<path d="M 0.0,83.0 L 2.0,85.0 L 9.0,86.0 L 12.0,91.0 L 12.0,97.0 L 9.0,100.0 L 10.0,105.0 L 16.0,103.0 L 21.0,103.0 L 26.0,107.0 L 27.0,116.0 L 31.0,117.0 L 34.0,112.0 L 44.0,112.0 L 47.0,117.0 L 48.0,120.0 L 0.0,120.0 L 0.0,83.0" fill="#F9F9F9"/>
	<path d="M 87.0,0.0 L 120.0,0.0 L 120.0,43.0 L 113.0,41.0 L 112.0,40.0 L 112.0,32.0 L 116.0,29.0 L 118.0,29.0 L 116.0,24.0 L 108.0,24.0 L 104.0,19.0 L 105.0,14.0 L 106.0,10.0 L 101.0,9.0 L 97.0,12.0 L 92.0,11.0 L 89.0,9.0 L 89.0,1.0 L 87.0,0.0" fill="#F9F9F9"/>
	<path d="M 41.0,68.0 L 47.0,68.0 L 52.0,73.0 L 52.0,79.0 L 47.0,84.0 L 41.0,84.0 L 36.0,79.0 L 36.0,73.0 L 41.0,68.0" fill="#0A0A0A"/>
	<path d="M 78.0,36.0 L 83.0,37.0 L 84.0,42.0 L 82.0,44.0 L 77.0,43.0 L 76.0,38.0 L 78.0,36.0" fill="#070707"/>
	<path d="M 95.0,69.0 L 97.0,71.0 L 97.0,76.0 L 93.0,78.0 L 95.0,69.0" fill="#313131"/>
</svg>
