<?xml version="1.0" ?>
<svg baseProfile="full" height="600px" version="1.1" viewBox="-19.296000000000003 -19.296000000000003 230.592 230.592" width="600px" xmlns="http://www.w3.org/2000/svg" xmlns:ev="http://www.w3.org/2001/xml-events" xmlns:xlink="http://www.w3.org/1999/xlink">
	<defs/>
	<path d="M 0.0,0.0 L 192.0,0.0 L 192.0,192.0 L 0.0,192.0 L 0.0,0.0" fill="#FEFEFD"/>
	<path d="M 73.0,81.0 L 78.0,82.0 L 96.0,90.0 L 97.0,91.0 L 97.0,97.0 L 94.0,107.0 L 99.0,113.0 L 99.0,115.0 L 115.0,115.0 L 117.0,117.0 L 119.0,132.0 L 119.0,141.0 L 112.0,143.0 L 103.0,144.0 L 100.0,153.0 L 101.0,158.0 L 106.0,166.0 L 105.0,170.0 L 94.0,179.0 L 88.0,183.0 L 83.0,183.0 L 76.0,175.0 L 75.0,174.0 L 62.0,174.0 L 60.0,180.0 L 56.0,187.0 L 49.0,186.0 L 33.0,179.0 L 31.0,177.0 L 32.0,170.0 L 34.0,161.0 L 29.0,155.0 L 29.0,153.0 L 13.0,153.0 L 11.0,151.0 L 9.0,135.0 L 9.0,128.0 L 11.0,126.0 L 19.0,124.0 L 25.0,124.0 L 26.0,119.0 L 28.0,115.0 L 27.0,110.0 L 22.0,102.0 L 23.0,97.0 L 41.0,84.0 L 45.0,86.0 L 53.0,95.0 L 65.0,95.0 L 67.0,90.0 L 73.0,81.0" fill="#E65303"/>
	<path d="M 120.0,8.0 L 125.0,8.0 L 131.0,18.0 L 131.0,20.0 L 142.0,19.0 L 151.0,10.0 L 155.0,12.0 L 169.0,22.0 L 170.0,26.0 L 164.0,36.0 L 166.0,41.0 L 168.0,46.0 L 181.0,49.0 L 181.0,59.0 L 179.0,72.0 L 164.0,72.0 L 162.0,76.0 L 160.0,79.0 L 160.0,85.0 L 162.0,90.0 L 162.0,95.0 L 152.0,100.0 L 143.0,104.0 L 139.0,102.0 L 134.0,93.0 L 122.0,91.0 L 120.0,95.0 L 114.0,102.0 L 109.0,100.0 L 95.0,89.0 L 96.0,84.0 L 100.0,77.0 L 99.0,71.0 L 97.0,66.0 L 84.0,63.0 L 84.0,53.0 L 86.0,40.0 L 87.0,39.0 L 101.0,39.0 L 103.0,35.0 L 105.0,32.0 L 104.0,24.0 L 102.0,17.0 L 107.0,14.0 L 120.0,8.0" fill="#FEA103"/>
	<path d="M 59.0,112.0 L 69.0,112.0 L 77.0,116.0 L 82.0,121.0 L 86.0,129.0 L 86.0,139.0 L 82.0,147.0 L 77.0,152.0 L 69.0,156.0 L 60.0,156.0 L 52.0,153.0 L 47.0,148.0 L 44.0,144.0 L 42.0,138.0 L 42.0,129.0 L 46.0,121.0 L 51.0,116.0 L 59.0,112.0" fill="#FEFCFB"/>
	<path d="M 127.0,36.0 L 137.0,36.0 L 145.0,40.0 L 150.0,46.0 L 152.0,50.0 L 152.0,61.0 L 148.0,69.0 L 142.0,74.0 L 137.0,76.0 L 127.0,76.0 L 119.0,71.0 L 114.0,65.0 L 113.0,62.0 L 113.0,49.0 L 117.0,43.0 L 123.0,38.0 L 127.0,36.0" fill="#FEFDFB"/>
</svg>
