<?xml version="1.0" ?>
<svg baseProfile="full" height="600px" version="1.1" viewBox="-19.296000000000003 -19.296000000000003 230.592 230.592" width="600px" xmlns="http://www.w3.org/2000/svg" xmlns:ev="http://www.w3.org/2001/xml-events" xmlns:xlink="http://www.w3.org/1999/xlink">
	<defs/>
	<path d="M 0.0,0.0 L 192.0,0.0 L 192.0,192.0 L 0.0,192.0 L 0.0,0.0" fill="#FEFEFD"/>
	<path d="M 52.0,80.0 L 76.0,80.0 L 78.0,82.0 L 79.0,96.0 L 89.0,101.0 L 100.0,96.0 L 105.0,97.0 L 116.0,116.0 L 115.0,120.0 L 105.0,127.0 L 103.0,127.0 L 103.0,140.0 L 107.0,142.0 L 115.0,148.0 L 115.0,153.0 L 106.0,168.0 L 103.0,172.0 L 98.0,171.0 L 89.0,167.0 L 85.0,169.0 L 79.0,172.0 L 77.0,187.0 L 76.0,188.0 L 52.0,188.0 L 50.0,186.0 L 49.0,171.0 L 43.0,169.0 L 38.0,167.0 L 28.0,172.0 L 24.0,171.0 L 18.0,162.0 L 12.0,152.0 L 13.0,148.0 L 24.0,140.0 L 25.0,128.0 L 21.0,126.0 L 13.0,120.0 L 12.0,117.0 L 23.0,98.0 L 24.0,97.0 L 31.0,98.0 L 38.0,101.0 L 42.0,100.0 L 47.0,97.0 L 49.0,97.0 L 51.0,81.0 L 52.0,80.0" fill="#E65202"/>
	<path d="M 121.0,8.0 L 144.0,8.0 L 145.0,22.0 L 152.0,26.0 L 158.0,25.0 L 165.0,22.0 L 169.0,23.0 L 179.0,40.0 L 178.0,44.0 L 169.0,50.0 L 168.0,62.0 L 173.0,64.0 L 180.0,69.0 L 179.0,74.0 L 169.0,90.0 L 164.0,89.0 L 157.0,86.0 L 152.0,87.0 L 146.0,89.0 L 145.0,103.0 L 144.0,104.0 L 121.0,104.0 L 120.0,103.0 L 119.0,89.0 L 114.0,87.0 L 108.0,86.0 L 99.0,90.0 L 95.0,89.0 L 85.0,72.0 L 86.0,68.0 L 95.0,62.0 L 96.0,50.0 L 91.0,48.0 L 85.0,43.0 L 86.0,38.0 L 95.0,23.0 L 99.0,22.0 L 108.0,26.0 L 113.0,25.0 L 118.0,22.0 L 120.0,9.0 L 121.0,8.0" fill="#FEA102"/>
	<path d="M 59.0,112.0 L 69.0,112.0 L 77.0,116.0 L 82.0,121.0 L 86.0,129.0 L 86.0,139.0 L 82.0,147.0 L 77.0,152.0 L 69.0,156.0 L 59.0,156.0 L 51.0,152.0 L 46.0,147.0 L 42.0,139.0 L 42.0,129.0 L 47.0,119.0 L 56.0,113.0 L 59.0,112.0" fill="#FEFCFB"/>
	<path d="M 127.0,36.0 L 137.0,36.0 L 145.0,40.0 L 151.0,47.0 L 152.0,50.0 L 152.0,61.0 L 148.0,69.0 L 142.0,74.0 L 137.0,76.0 L 127.0,76.0 L 119.0,71.0 L 114.0,65.0 L 113.0,62.0 L 113.0,49.0 L 117.0,43.0 L 123.0,38.0 L 127.0,36.0" fill="#FEFDFB"/>
</svg>
