<?xml version="1.0" ?>
<svg baseProfile="full" height="600px" version="1.1" viewBox="-16.08 -16.08 192.16 192.16" width="600px" xmlns="http://www.w3.org/2000/svg" xmlns:ev="http://www.w3.org/2001/xml-events" xmlns:xlink="http://www.w3.org/1999/xlink">
	<defs/>
	<path d="M 0.0,0.0 L 160.0,0.0 L 160.0,160.0 L 0.0,160.0 L 0.0,0.0" fill="#FDFDFD"/>
	<path d="M 66.0,57.0 L 75.0,60.0 L 81.0,63.0 L 80.0,69.0 L 79.0,77.0 L 87.0,86.0 L 89.0,92.0 L 103.0,92.0 L 104.0,97.0 L 104.0,108.0 L 95.0,111.0 L 92.0,111.0 L 89.0,122.0 L 85.0,129.0 L 86.0,134.0 L 90.0,140.0 L 88.0,144.0 L 77.0,151.0 L 70.0,144.0 L 70.0,142.0 L 60.0,144.0 L 47.0,144.0 L 45.0,149.0 L 42.0,155.0 L 33.0,152.0 L 27.0,149.0 L 28.0,142.0 L 29.0,135.0 L 21.0,126.0 L 19.0,120.0 L 5.0,120.0 L 4.0,115.0 L 4.0,104.0 L 8.0,102.0 L 16.0,100.0 L 19.0,90.0 L 23.0,83.0 L 22.0,78.0 L 18.0,72.0 L 19.0,69.0 L 30.0,61.0 L 37.0,67.0 L 39.0,70.0 L 46.0,68.0 L 61.0,68.0 L 63.0,63.0 L 66.0,57.0" fill="#D9D1EF"/>
	<path d="M 104.0,5.0 L 107.0,6.0 L 109.0,12.0 L 121.0,12.0 L 130.0,13.0 L 134.0,9.0 L 138.0,10.0 L 144.0,15.0 L 142.0,21.0 L 142.0,25.0 L 146.0,31.0 L 148.0,37.0 L 148.0,41.0 L 156.0,42.0 L 156.0,52.0 L 155.0,54.0 L 146.0,54.0 L 144.0,60.0 L 138.0,68.0 L 135.0,69.0 L 137.0,74.0 L 137.0,79.0 L 128.0,83.0 L 126.0,83.0 L 123.0,78.0 L 123.0,76.0 L 109.0,76.0 L 102.0,75.0 L 98.0,79.0 L 94.0,78.0 L 88.0,73.0 L 90.0,67.0 L 90.0,63.0 L 85.0,53.0 L 84.0,47.0 L 76.0,46.0 L 76.0,38.0 L 77.0,34.0 L 86.0,34.0 L 87.0,29.0 L 94.0,20.0 L 97.0,19.0 L 95.0,9.0 L 104.0,5.0" fill="#BEE4FA"/>
	<path d="M 66.0,57.0 L 75.0,60.0 L 81.0,63.0 L 80.0,69.0 L 79.0,77.0 L 87.0,86.0 L 89.0,92.0 L 103.0,92.0 L 104.0,97.0 L 104.0,108.0 L 95.0,111.0 L 92.0,111.0 L 89.0,122.0 L 85.0,129.0 L 86.0,134.0 L 90.0,140.0 L 88.0,144.0 L 77.0,151.0 L 70.0,144.0 L 70.0,142.0 L 60.0,144.0 L 47.0,144.0 L 45.0,149.0 L 42.0,155.0 L 33.0,152.0 L 27.0,149.0 L 28.0,142.0 L 29.0,135.0 L 21.0,126.0 L 19.0,120.0 L 5.0,120.0 L 4.0,115.0 L 4.0,104.0 L 8.0,102.0 L 16.0,100.0 L 19.0,90.0 L 23.0,83.0 L 22.0,78.0 L 18.0,72.0 L 19.0,69.0 L 30.0,61.0 L 37.0,67.0 L 39.0,70.0 L 46.0,68.0 L 61.0,68.0 L 63.0,63.0 L 66.0,57.0 M 68.0,62.0 L 63.0,71.0 L 63.0,73.0 L 58.0,72.0 L 47.0,72.0 L 38.0,74.0 L 31.0,67.0 L 26.0,69.0 L 24.0,71.0 L 25.0,75.0 L 28.0,80.0 L 27.0,85.0 L 22.0,93.0 L 19.0,104.0 L 9.0,106.0 L 8.0,107.0 L 8.0,114.0 L 9.0,115.0 L 21.0,116.0 L 26.0,126.0 L 34.0,134.0 L 32.0,143.0 L 32.0,147.0 L 37.0,149.0 L 41.0,148.0 L 45.0,141.0 L 45.0,139.0 L 48.0,140.0 L 59.0,140.0 L 70.0,138.0 L 77.0,145.0 L 82.0,143.0 L 84.0,141.0 L 83.0,137.0 L 80.0,132.0 L 81.0,127.0 L 86.0,119.0 L 88.0,108.0 L 99.0,106.0 L 100.0,101.0 L 99.0,97.0 L 87.0,96.0 L 82.0,86.0 L 74.0,78.0 L 75.0,71.0 L 76.0,65.0 L 70.0,62.0 L 68.0,62.0" fill="#927EA7"/>
	<path d="M 104.0,5.0 L 107.0,6.0 L 109.0,12.0 L 121.0,12.0 L 130.0,13.0 L 134.0,9.0 L 138.0,10.0 L 144.0,15.0 L 142.0,21.0 L 142.0,25.0 L 146.0,31.0 L 148.0,37.0 L 148.0,41.0 L 156.0,42.0 L 156.0,52.0 L 155.0,54.0 L 146.0,54.0 L 144.0,60.0 L 138.0,68.0 L 135.0,69.0 L 137.0,74.0 L 137.0,79.0 L 128.0,83.0 L 126.0,83.0 L 123.0,78.0 L 123.0,76.0 L 109.0,76.0 L 102.0,75.0 L 98.0,79.0 L 94.0,78.0 L 88.0,73.0 L 90.0,67.0 L 90.0,63.0 L 85.0,53.0 L 84.0,47.0 L 76.0,46.0 L 76.0,38.0 L 77.0,34.0 L 86.0,34.0 L 87.0,29.0 L 94.0,20.0 L 97.0,19.0 L 95.0,9.0 L 104.0,5.0 M 103.0,10.0 L 100.0,11.0 L 101.0,20.0 L 93.0,27.0 L 89.0,35.0 L 89.0,38.0 L 80.0,38.0 L 80.0,43.0 L 88.0,44.0 L 89.0,53.0 L 94.0,62.0 L 96.0,65.0 L 93.0,70.0 L 95.0,74.0 L 99.0,72.0 L 101.0,70.0 L 110.0,72.0 L 120.0,72.0 L 125.0,71.0 L 127.0,77.0 L 129.0,78.0 L 132.0,76.0 L 131.0,68.0 L 138.0,62.0 L 143.0,52.0 L 143.0,50.0 L 152.0,50.0 L 152.0,45.0 L 144.0,44.0 L 143.0,35.0 L 138.0,26.0 L 136.0,23.0 L 139.0,18.0 L 137.0,14.0 L 133.0,16.0 L 131.0,18.0 L 124.0,17.0 L 120.0,16.0 L 111.0,16.0 L 107.0,17.0 L 105.0,11.0 L 103.0,10.0" fill="#7E91A2"/>
	<path d="M 49.0,88.0 L 58.0,88.0 L 66.0,92.0 L 70.0,97.0 L 72.0,101.0 L 72.0,109.0 L 69.0,116.0 L 65.0,121.0 L 57.0,124.0 L 49.0,124.0 L 41.0,119.0 L 37.0,113.0 L 36.0,110.0 L 36.0,101.0 L 41.0,93.0 L 49.0,88.0" fill="#FBFBFC"/>
	<path d="M 113.0,28.0 L 120.0,28.0 L 127.0,32.0 L 131.0,37.0 L 132.0,40.0 L 132.0,47.0 L 129.0,54.0 L 124.0,58.0 L 120.0,60.0 L 112.0,60.0 L 105.0,56.0 L 101.0,51.0 L 100.0,48.0 L 100.0,41.0 L 103.0,34.0 L 109.0,29.0 L 113.0,28.0" fill="#FBFBFC"/>
	<path d="M 48.0,84.0 L 59.0,84.0 L 69.0,89.0 L 75.0,98.0 L 76.0,101.0 L 76.0,110.0 L 73.0,118.0 L 69.0,123.0 L 63.0,127.0 L 59.0,128.0 L 48.0,128.0 L 38.0,122.0 L 33.0,114.0 L 32.0,111.0 L 32.0,100.0 L 38.0,90.0 L 48.0,84.0 M 49.0,88.0 L 41.0,93.0 L 36.0,101.0 L 36.0,110.0 L 40.0,118.0 L 45.0,122.0 L 49.0,124.0 L 57.0,124.0 L 65.0,121.0 L 71.0,113.0 L 72.0,109.0 L 72.0,101.0 L 67.0,93.0 L 61.0,89.0 L 58.0,88.0 L 49.0,88.0" fill="#907BA6"/>
	<path d="M 112.0,24.0 L 121.0,24.0 L 129.0,28.0 L 135.0,36.0 L 136.0,39.0 L 136.0,48.0 L 132.0,57.0 L 126.0,62.0 L 121.0,64.0 L 111.0,64.0 L 103.0,60.0 L 97.0,52.0 L 96.0,49.0 L 96.0,40.0 L 99.0,33.0 L 103.0,28.0 L 108.0,25.0 L 112.0,24.0 M 113.0,28.0 L 106.0,31.0 L 101.0,37.0 L 100.0,41.0 L 100.0,48.0 L 104.0,55.0 L 109.0,59.0 L 112.0,60.0 L 120.0,60.0 L 128.0,55.0 L 131.0,50.0 L 132.0,47.0 L 132.0,40.0 L 128.0,33.0 L 123.0,29.0 L 120.0,28.0 L 113.0,28.0" fill="#7E91A2"/>
</svg>
