<?xml version="1.0" ?>
<svg baseProfile="full" height="600px" version="1.1" viewBox="-19.296000000000003 -19.296000000000003 230.592 230.592" width="600px" xmlns="http://www.w3.org/2000/svg" xmlns:ev="http://www.w3.org/2001/xml-events" xmlns:xlink="http://www.w3.org/1999/xlink">
	<defs/>
	<path d="M 0.0,0.0 L 192.0,0.0 L 192.0,192.0 L 0.0,192.0 L 0.0,0.0" fill="#FEFEFD"/>
	<path d="M 70.0,80.0 L 76.0,81.0 L 94.0,88.0 L 95.0,92.0 L 92.0,101.0 L 93.0,106.0 L 98.0,113.0 L 114.0,114.0 L 115.0,115.0 L 118.0,136.0 L 118.0,140.0 L 104.0,144.0 L 100.0,153.0 L 101.0,157.0 L 107.0,166.0 L 106.0,170.0 L 90.0,183.0 L 85.0,183.0 L 77.0,174.0 L 65.0,175.0 L 58.0,188.0 L 52.0,187.0 L 34.0,180.0 L 33.0,175.0 L 37.0,162.0 L 35.0,162.0 L 30.0,155.0 L 14.0,155.0 L 13.0,154.0 L 10.0,134.0 L 10.0,129.0 L 17.0,126.0 L 25.0,124.0 L 28.0,113.0 L 21.0,102.0 L 22.0,98.0 L 38.0,85.0 L 43.0,85.0 L 51.0,94.0 L 63.0,93.0 L 69.0,81.0 L 70.0,80.0" fill="#E65202"/>
	<path d="M 122.0,7.0 L 127.0,8.0 L 132.0,18.0 L 132.0,20.0 L 143.0,20.0 L 151.0,12.0 L 156.0,13.0 L 170.0,24.0 L 169.0,29.0 L 164.0,38.0 L 168.0,47.0 L 180.0,50.0 L 181.0,51.0 L 180.0,65.0 L 178.0,74.0 L 163.0,75.0 L 158.0,81.0 L 160.0,90.0 L 161.0,97.0 L 149.0,102.0 L 142.0,105.0 L 138.0,104.0 L 132.0,93.0 L 121.0,92.0 L 114.0,100.0 L 109.0,99.0 L 95.0,88.0 L 94.0,84.0 L 100.0,75.0 L 97.0,65.0 L 85.0,62.0 L 83.0,60.0 L 85.0,42.0 L 87.0,37.0 L 102.0,37.0 L 104.0,33.0 L 106.0,30.0 L 105.0,23.0 L 104.0,15.0 L 112.0,11.0 L 122.0,7.0" fill="#FFA103"/>
	<path d="M 58.0,112.0 L 69.0,112.0 L 77.0,116.0 L 82.0,121.0 L 85.0,126.0 L 86.0,130.0 L 86.0,139.0 L 82.0,147.0 L 77.0,152.0 L 72.0,155.0 L 68.0,156.0 L 59.0,156.0 L 51.0,152.0 L 46.0,147.0 L 42.0,139.0 L 42.0,128.0 L 48.0,118.0 L 58.0,112.0" fill="#FEFCFB"/>
	<path d="M 127.0,36.0 L 137.0,36.0 L 145.0,40.0 L 150.0,46.0 L 152.0,50.0 L 152.0,61.0 L 148.0,69.0 L 142.0,74.0 L 137.0,76.0 L 127.0,76.0 L 119.0,71.0 L 114.0,65.0 L 113.0,62.0 L 113.0,49.0 L 117.0,43.0 L 123.0,38.0 L 127.0,36.0" fill="#FEFDFB"/>
</svg>
