<?xml version="1.0" ?>
<svg baseProfile="full" height="600px" version="1.1" viewBox="-20.1 -20.1 240.2 240.2" width="600px" xmlns="http://www.w3.org/2000/svg" xmlns:ev="http://www.w3.org/2001/xml-events" xmlns:xlink="http://www.w3.org/1999/xlink">
	<defs/>
	<path d="M 0.0,0.0 L 200.0,0.0 L 200.0,200.0 L 0.0,200.0 L 0.0,0.0" fill="#FCFCFC"/>
	<path d="M 60.0,79.0 L 80.0,81.0 L 81.0,90.0 L 81.0,99.0 L 89.0,100.0 L 100.0,94.0 L 103.0,94.0 L 114.0,108.0 L 108.0,116.0 L 104.0,121.0 L 105.0,129.0 L 114.0,130.0 L 121.0,133.0 L 119.0,153.0 L 102.0,154.0 L 100.0,158.0 L 101.0,163.0 L 106.0,173.0 L 106.0,175.0 L 92.0,186.0 L 88.0,184.0 L 79.0,176.0 L 72.0,178.0 L 68.0,192.0 L 67.0,193.0 L 54.0,192.0 L 47.0,191.0 L 47.0,174.0 L 42.0,172.0 L 38.0,173.0 L 28.0,178.0 L 25.0,178.0 L 14.0,164.0 L 20.0,156.0 L 23.0,152.0 L 23.0,144.0 L 11.0,141.0 L 7.0,139.0 L 9.0,119.0 L 26.0,118.0 L 28.0,114.0 L 27.0,109.0 L 22.0,100.0 L 22.0,97.0 L 36.0,86.0 L 44.0,92.0 L 48.0,96.0 L 55.0,95.0 L 60.0,79.0" fill="#F8F8F8"/>
	<path d="M 145.0,8.0 L 153.0,9.0 L 163.0,12.0 L 164.0,17.0 L 163.0,28.0 L 166.0,31.0 L 170.0,30.0 L 179.0,27.0 L 182.0,27.0 L 190.0,44.0 L 179.0,53.0 L 179.0,60.0 L 188.0,63.0 L 193.0,66.0 L 190.0,77.0 L 188.0,84.0 L 172.0,83.0 L 170.0,86.0 L 171.0,93.0 L 173.0,98.0 L 172.0,103.0 L 159.0,110.0 L 155.0,109.0 L 148.0,100.0 L 141.0,100.0 L 134.0,113.0 L 127.0,112.0 L 117.0,109.0 L 116.0,104.0 L 116.0,92.0 L 114.0,90.0 L 107.0,91.0 L 98.0,93.0 L 90.0,79.0 L 91.0,75.0 L 100.0,68.0 L 99.0,61.0 L 87.0,55.0 L 89.0,45.0 L 92.0,37.0 L 108.0,37.0 L 110.0,35.0 L 109.0,26.0 L 107.0,21.0 L 107.0,18.0 L 122.0,10.0 L 126.0,12.0 L 133.0,21.0 L 139.0,21.0 L 141.0,16.0 L 145.0,8.0" fill="#F8F8F8"/>
	<path d="M 60.0,79.0 L 80.0,81.0 L 81.0,90.0 L 81.0,99.0 L 89.0,100.0 L 100.0,94.0 L 103.0,94.0 L 114.0,108.0 L 108.0,116.0 L 104.0,121.0 L 105.0,129.0 L 114.0,130.0 L 121.0,133.0 L 119.0,153.0 L 102.0,154.0 L 100.0,158.0 L 101.0,163.0 L 106.0,173.0 L 106.0,175.0 L 92.0,186.0 L 88.0,184.0 L 79.0,176.0 L 72.0,178.0 L 68.0,192.0 L 67.0,193.0 L 54.0,192.0 L 47.0,191.0 L 47.0,174.0 L 42.0,172.0 L 38.0,173.0 L 28.0,178.0 L 25.0,178.0 L 14.0,164.0 L 20.0,156.0 L 23.0,152.0 L 23.0,144.0 L 11.0,141.0 L 7.0,139.0 L 9.0,119.0 L 26.0,118.0 L 28.0,114.0 L 27.0,109.0 L 22.0,100.0 L 22.0,97.0 L 36.0,86.0 L 44.0,92.0 L 48.0,96.0 L 55.0,95.0 L 60.0,79.0 M 66.0,88.0 L 63.0,96.0 L 62.0,103.0 L 55.0,103.0 L 46.0,105.0 L 37.0,97.0 L 33.0,99.0 L 33.0,103.0 L 38.0,112.0 L 36.0,116.0 L 32.0,124.0 L 32.0,127.0 L 17.0,127.0 L 16.0,134.0 L 29.0,138.0 L 33.0,151.0 L 31.0,156.0 L 25.0,163.0 L 27.0,167.0 L 30.0,168.0 L 42.0,162.0 L 51.0,168.0 L 54.0,169.0 L 55.0,183.0 L 56.0,184.0 L 62.0,184.0 L 65.0,175.0 L 65.0,170.0 L 74.0,169.0 L 81.0,167.0 L 90.0,175.0 L 94.0,174.0 L 96.0,171.0 L 90.0,160.0 L 92.0,156.0 L 96.0,147.0 L 96.0,145.0 L 112.0,145.0 L 112.0,138.0 L 98.0,134.0 L 95.0,122.0 L 96.0,117.0 L 103.0,109.0 L 101.0,105.0 L 97.0,105.0 L 88.0,110.0 L 83.0,108.0 L 74.0,104.0 L 73.0,89.0 L 72.0,88.0 L 66.0,88.0" fill="#080808"/>
	<path d="M 145.0,8.0 L 153.0,9.0 L 163.0,12.0 L 164.0,17.0 L 163.0,28.0 L 166.0,31.0 L 170.0,30.0 L 179.0,27.0 L 182.0,27.0 L 190.0,44.0 L 179.0,53.0 L 179.0,60.0 L 188.0,63.0 L 193.0,66.0 L 190.0,77.0 L 188.0,84.0 L 172.0,83.0 L 170.0,86.0 L 171.0,93.0 L 173.0,98.0 L 172.0,103.0 L 159.0,110.0 L 155.0,109.0 L 148.0,100.0 L 141.0,100.0 L 134.0,113.0 L 127.0,112.0 L 117.0,109.0 L 116.0,104.0 L 116.0,92.0 L 114.0,90.0 L 107.0,91.0 L 98.0,93.0 L 90.0,79.0 L 91.0,75.0 L 100.0,68.0 L 99.0,61.0 L 87.0,55.0 L 89.0,45.0 L 92.0,37.0 L 108.0,37.0 L 110.0,35.0 L 109.0,26.0 L 107.0,21.0 L 107.0,18.0 L 122.0,10.0 L 126.0,12.0 L 133.0,21.0 L 139.0,21.0 L 141.0,16.0 L 145.0,8.0 M 150.0,17.0 L 144.0,27.0 L 144.0,29.0 L 129.0,29.0 L 122.0,20.0 L 117.0,22.0 L 119.0,31.0 L 120.0,36.0 L 113.0,44.0 L 112.0,46.0 L 98.0,45.0 L 97.0,51.0 L 107.0,56.0 L 109.0,56.0 L 109.0,71.0 L 100.0,78.0 L 101.0,83.0 L 109.0,82.0 L 116.0,81.0 L 124.0,88.0 L 126.0,88.0 L 125.0,94.0 L 125.0,103.0 L 130.0,104.0 L 136.0,92.0 L 146.0,91.0 L 151.0,89.0 L 153.0,93.0 L 158.0,100.0 L 162.0,99.0 L 163.0,95.0 L 160.0,87.0 L 161.0,83.0 L 167.0,76.0 L 167.0,74.0 L 182.0,75.0 L 183.0,70.0 L 173.0,65.0 L 171.0,65.0 L 171.0,55.0 L 170.0,50.0 L 180.0,42.0 L 178.0,37.0 L 169.0,39.0 L 164.0,40.0 L 157.0,34.0 L 153.0,33.0 L 155.0,22.0 L 155.0,18.0 L 150.0,17.0" fill="#090909"/>
	<path d="M 136.0,40.0 L 145.0,40.0 L 153.0,44.0 L 159.0,52.0 L 160.0,55.0 L 160.0,65.0 L 156.0,73.0 L 148.0,79.0 L 145.0,80.0 L 135.0,80.0 L 127.0,76.0 L 121.0,68.0 L 120.0,65.0 L 120.0,55.0 L 124.0,47.0 L 132.0,41.0 L 136.0,40.0" fill="#080808"/>
	<path d="M 60.0,116.0 L 69.0,116.0 L 77.0,120.0 L 83.0,128.0 L 84.0,131.0 L 84.0,141.0 L 80.0,149.0 L 74.0,154.0 L 69.0,156.0 L 59.0,156.0 L 51.0,152.0 L 45.0,144.0 L 44.0,141.0 L 44.0,132.0 L 47.0,125.0 L 51.0,120.0 L 56.0,117.0 L 60.0,116.0" fill="#080808"/>
	<path d="M 60.0,124.0 L 67.0,124.0 L 72.0,127.0 L 76.0,132.0 L 76.0,140.0 L 70.0,147.0 L 68.0,148.0 L 60.0,148.0 L 53.0,142.0 L 52.0,139.0 L 52.0,132.0 L 58.0,125.0 L 60.0,124.0" fill="#F7F7F7"/>
	<path d="M 136.0,48.0 L 143.0,48.0 L 148.0,51.0 L 152.0,56.0 L 152.0,64.0 L 146.0,71.0 L 144.0,72.0 L 136.0,72.0 L 129.0,66.0 L 128.0,63.0 L 128.0,56.0 L 134.0,49.0 L 136.0,48.0" fill="#F7F7F7"/>
	<path d="M 110.0,89.0 L 115.0,90.0 L 117.0,92.0 L 117.0,104.0 L 116.0,108.0 L 112.0,107.0 L 103.0,96.0 L 103.0,94.0 L 99.0,95.0 L 98.0,93.0 L 110.0,89.0" fill="#F1F1F1"/>
</svg>
