<?xml version="1.0" ?>
<svg baseProfile="full" height="600px" version="1.1" viewBox="-12.864 -12.864 153.728 153.728" width="600px" xmlns="http://www.w3.org/2000/svg" xmlns:ev="http://www.w3.org/2001/xml-events" xmlns:xlink="http://www.w3.org/1999/xlink">
	<defs/>
	<path d="M 0.0,0.0 L 128.0,0.0 L 128.0,128.0 L 0.0,128.0 L 0.0,0.0" fill="#FCFCFC"/>
	<path d="M 52.0,12.0 L 55.0,13.0 L 62.0,23.0 L 76.0,24.0 L 85.0,16.0 L 90.0,18.0 L 104.0,28.0 L 102.0,34.0 L 99.0,41.0 L 100.0,47.0 L 102.0,51.0 L 102.0,54.0 L 107.0,55.0 L 117.0,58.0 L 115.0,81.0 L 99.0,83.0 L 93.0,91.0 L 95.0,107.0 L 81.0,114.0 L 74.0,116.0 L 66.0,105.0 L 52.0,104.0 L 43.0,112.0 L 38.0,110.0 L 24.0,100.0 L 27.0,91.0 L 29.0,87.0 L 28.0,81.0 L 26.0,74.0 L 17.0,72.0 L 11.0,70.0 L 13.0,47.0 L 16.0,46.0 L 29.0,45.0 L 35.0,37.0 L 33.0,21.0 L 49.0,13.0 L 52.0,12.0" fill="#F9F9F9"/>
	<path d="M 52.0,12.0 L 55.0,13.0 L 62.0,23.0 L 76.0,24.0 L 85.0,16.0 L 90.0,18.0 L 104.0,28.0 L 102.0,34.0 L 99.0,41.0 L 100.0,47.0 L 102.0,51.0 L 102.0,54.0 L 107.0,55.0 L 117.0,58.0 L 115.0,81.0 L 99.0,83.0 L 93.0,91.0 L 95.0,107.0 L 81.0,114.0 L 74.0,116.0 L 66.0,105.0 L 52.0,104.0 L 43.0,112.0 L 38.0,110.0 L 24.0,100.0 L 27.0,91.0 L 29.0,87.0 L 28.0,81.0 L 26.0,74.0 L 17.0,72.0 L 11.0,70.0 L 13.0,47.0 L 16.0,46.0 L 29.0,45.0 L 35.0,37.0 L 33.0,21.0 L 49.0,13.0 L 52.0,12.0 M 49.0,22.0 L 42.0,25.0 L 44.0,35.0 L 44.0,39.0 L 39.0,44.0 L 34.0,52.0 L 34.0,54.0 L 21.0,54.0 L 20.0,64.0 L 32.0,68.0 L 35.0,78.0 L 38.0,83.0 L 37.0,89.0 L 34.0,95.0 L 35.0,98.0 L 42.0,102.0 L 50.0,95.0 L 57.0,96.0 L 71.0,96.0 L 73.0,101.0 L 77.0,106.0 L 83.0,104.0 L 85.0,103.0 L 84.0,89.0 L 89.0,84.0 L 94.0,76.0 L 94.0,74.0 L 107.0,74.0 L 108.0,64.0 L 99.0,61.0 L 96.0,61.0 L 94.0,52.0 L 90.0,45.0 L 91.0,38.0 L 94.0,31.0 L 87.0,26.0 L 81.0,30.0 L 76.0,34.0 L 68.0,32.0 L 57.0,32.0 L 55.0,27.0 L 51.0,22.0 L 49.0,22.0" fill="#090909"/>
	<path d="M 60.0,44.0 L 69.0,44.0 L 77.0,48.0 L 83.0,56.0 L 84.0,59.0 L 84.0,69.0 L 80.0,77.0 L 74.0,82.0 L 69.0,84.0 L 59.0,84.0 L 51.0,80.0 L 45.0,72.0 L 44.0,69.0 L 44.0,59.0 L 48.0,51.0 L 56.0,45.0 L 60.0,44.0" fill="#080808"/>
	<path d="M 60.0,52.0 L 67.0,52.0 L 72.0,55.0 L 76.0,60.0 L 76.0,68.0 L 70.0,75.0 L 68.0,76.0 L 60.0,76.0 L 53.0,70.0 L 52.0,67.0 L 52.0,60.0 L 58.0,53.0 L 60.0,52.0" fill="#F7F7F7"/>
</svg>
