<?xml version="1.0" ?>
<svg baseProfile="full" height="600px" version="1.1" viewBox="-12.864 -12.864 153.728 153.728" width="600px" xmlns="http://www.w3.org/2000/svg" xmlns:ev="http://www.w3.org/2001/xml-events" xmlns:xlink="http://www.w3.org/1999/xlink">
	<defs/>
	<path d="M 0.0,0.0 L 128.0,0.0 L 128.0,128.0 L 0.0,128.0 L 0.0,0.0" fill="#FCFCFC"/>
	<path d="M 53.0,12.0 L 57.0,13.0 L 64.0,24.0 L 77.0,25.0 L 86.0,17.0 L 90.0,18.0 L 104.0,29.0 L 105.0,32.0 L 99.0,43.0 L 101.0,49.0 L 103.0,55.0 L 117.0,60.0 L 116.0,71.0 L 114.0,83.0 L 99.0,84.0 L 93.0,92.0 L 92.0,97.0 L 93.0,101.0 L 93.0,109.0 L 75.0,116.0 L 71.0,115.0 L 64.0,104.0 L 51.0,103.0 L 41.0,112.0 L 33.0,106.0 L 23.0,98.0 L 25.0,92.0 L 29.0,85.0 L 26.0,76.0 L 25.0,73.0 L 11.0,68.0 L 12.0,56.0 L 14.0,45.0 L 29.0,44.0 L 35.0,36.0 L 36.0,31.0 L 35.0,19.0 L 53.0,12.0" fill="#F8F8F8"/>
	<path d="M 53.0,12.0 L 57.0,13.0 L 64.0,24.0 L 77.0,25.0 L 86.0,17.0 L 90.0,18.0 L 104.0,29.0 L 105.0,32.0 L 99.0,43.0 L 101.0,49.0 L 103.0,55.0 L 117.0,60.0 L 116.0,71.0 L 114.0,83.0 L 99.0,84.0 L 93.0,92.0 L 92.0,97.0 L 93.0,101.0 L 93.0,109.0 L 75.0,116.0 L 71.0,115.0 L 64.0,104.0 L 51.0,103.0 L 41.0,112.0 L 33.0,106.0 L 23.0,98.0 L 25.0,92.0 L 29.0,85.0 L 26.0,76.0 L 25.0,73.0 L 11.0,68.0 L 12.0,56.0 L 14.0,45.0 L 29.0,44.0 L 35.0,36.0 L 36.0,31.0 L 35.0,19.0 L 53.0,12.0 M 49.0,22.0 L 44.0,24.0 L 45.0,38.0 L 39.0,43.0 L 35.0,49.0 L 35.0,52.0 L 25.0,52.0 L 21.0,53.0 L 20.0,62.0 L 29.0,66.0 L 32.0,66.0 L 34.0,76.0 L 38.0,83.0 L 36.0,89.0 L 33.0,94.0 L 34.0,97.0 L 39.0,101.0 L 44.0,99.0 L 49.0,94.0 L 59.0,96.0 L 69.0,97.0 L 75.0,106.0 L 84.0,104.0 L 83.0,90.0 L 88.0,86.0 L 93.0,78.0 L 93.0,76.0 L 105.0,76.0 L 107.0,75.0 L 108.0,66.0 L 98.0,62.0 L 96.0,62.0 L 94.0,52.0 L 90.0,45.0 L 92.0,39.0 L 95.0,34.0 L 94.0,31.0 L 89.0,27.0 L 84.0,29.0 L 79.0,34.0 L 70.0,32.0 L 59.0,31.0 L 53.0,22.0 L 49.0,22.0" fill="#080808"/>
	<path d="M 60.0,44.0 L 69.0,44.0 L 77.0,48.0 L 83.0,56.0 L 84.0,59.0 L 84.0,68.0 L 81.0,75.0 L 77.0,80.0 L 69.0,84.0 L 59.0,84.0 L 51.0,80.0 L 45.0,72.0 L 44.0,69.0 L 44.0,60.0 L 47.0,53.0 L 51.0,48.0 L 56.0,45.0 L 60.0,44.0" fill="#080808"/>
	<path d="M 60.0,52.0 L 68.0,52.0 L 75.0,58.0 L 76.0,60.0 L 76.0,67.0 L 73.0,72.0 L 70.0,75.0 L 67.0,76.0 L 60.0,76.0 L 53.0,70.0 L 52.0,68.0 L 52.0,60.0 L 58.0,53.0 L 60.0,52.0" fill="#F7F7F7"/>
</svg>
