<?xml version="1.0" ?>
<svg baseProfile="full" height="600px" version="1.1" viewBox="-9.648000000000001 -9.648000000000001 115.296 115.296" width="600px" xmlns="http://www.w3.org/2000/svg" xmlns:ev="http://www.w3.org/2001/xml-events" xmlns:xlink="http://www.w3.org/1999/xlink">
	<defs/>
	<path d="M 0.0,0.0 L 96.0,0.0 L 96.0,96.0 L 0.0,96.0 L 0.0,0.0" fill="#FBFBFB"/>
	<path d="M 36.0,8.0 L 54.0,8.0 L 56.0,11.0 L 57.0,18.0 L 63.0,19.0 L 67.0,21.0 L 76.0,18.0 L 86.0,32.0 L 84.0,36.0 L 80.0,40.0 L 81.0,51.0 L 88.0,56.0 L 87.0,60.0 L 80.0,74.0 L 70.0,72.0 L 63.0,77.0 L 61.0,77.0 L 61.0,87.0 L 60.0,88.0 L 41.0,88.0 L 38.0,79.0 L 29.0,75.0 L 20.0,78.0 L 10.0,64.0 L 12.0,60.0 L 16.0,56.0 L 15.0,45.0 L 8.0,40.0 L 11.0,31.0 L 16.0,22.0 L 20.0,23.0 L 27.0,23.0 L 33.0,19.0 L 35.0,19.0 L 35.0,9.0 L 36.0,8.0" fill="#040404"/>
	<path d="M 43.0,32.0 L 51.0,32.0 L 58.0,35.0 L 63.0,41.0 L 64.0,44.0 L 64.0,51.0 L 60.0,59.0 L 54.0,63.0 L 51.0,64.0 L 43.0,64.0 L 35.0,58.0 L 32.0,51.0 L 32.0,43.0 L 36.0,37.0 L 41.0,33.0 L 43.0,32.0" fill="#F9F9F9"/>
</svg>
