<?xml version="1.0" ?>
<svg baseProfile="full" height="600px" version="1.1" viewBox="-12.864 -12.864 153.728 153.728" width="600px" xmlns="http://www.w3.org/2000/svg" xmlns:ev="http://www.w3.org/2001/xml-events" xmlns:xlink="http://www.w3.org/1999/xlink">
	<defs/>
	<path d="M 0.0,0.0 L 128.0,0.0 L 128.0,128.0 L 0.0,128.0 L 0.0,0.0" fill="#FCFCFC"/>
	<path d="M 67.0,11.0 L 72.0,11.0 L 75.0,22.0 L 75.0,26.0 L 84.0,29.0 L 88.0,30.0 L 98.0,26.0 L 102.0,27.0 L 113.0,43.0 L 111.0,47.0 L 104.0,54.0 L 104.0,67.0 L 115.0,75.0 L 114.0,81.0 L 107.0,96.0 L 98.0,95.0 L 90.0,94.0 L 83.0,99.0 L 81.0,99.0 L 80.0,114.0 L 79.0,115.0 L 61.0,117.0 L 56.0,117.0 L 53.0,105.0 L 53.0,102.0 L 47.0,101.0 L 42.0,98.0 L 37.0,99.0 L 30.0,102.0 L 26.0,101.0 L 15.0,85.0 L 17.0,81.0 L 24.0,74.0 L 24.0,61.0 L 12.0,52.0 L 21.0,32.0 L 24.0,31.0 L 35.0,34.0 L 39.0,33.0 L 45.0,29.0 L 47.0,29.0 L 49.0,13.0 L 67.0,11.0" fill="#F8F8F8"/>
	<path d="M 67.0,11.0 L 72.0,11.0 L 75.0,22.0 L 75.0,26.0 L 84.0,29.0 L 88.0,30.0 L 98.0,26.0 L 102.0,27.0 L 113.0,43.0 L 111.0,47.0 L 104.0,54.0 L 104.0,67.0 L 115.0,75.0 L 114.0,81.0 L 107.0,96.0 L 98.0,95.0 L 90.0,94.0 L 83.0,99.0 L 81.0,99.0 L 80.0,114.0 L 79.0,115.0 L 61.0,117.0 L 56.0,117.0 L 53.0,105.0 L 53.0,102.0 L 47.0,101.0 L 42.0,98.0 L 37.0,99.0 L 30.0,102.0 L 26.0,101.0 L 15.0,85.0 L 17.0,81.0 L 24.0,74.0 L 24.0,61.0 L 12.0,52.0 L 21.0,32.0 L 24.0,31.0 L 35.0,34.0 L 39.0,33.0 L 45.0,29.0 L 47.0,29.0 L 49.0,13.0 L 67.0,11.0 M 56.0,20.0 L 54.0,33.0 L 45.0,38.0 L 38.0,43.0 L 26.0,41.0 L 23.0,47.0 L 24.0,51.0 L 31.0,56.0 L 32.0,70.0 L 33.0,76.0 L 25.0,84.0 L 27.0,89.0 L 29.0,92.0 L 35.0,91.0 L 40.0,89.0 L 45.0,90.0 L 52.0,94.0 L 59.0,96.0 L 62.0,108.0 L 72.0,108.0 L 74.0,95.0 L 83.0,90.0 L 88.0,86.0 L 88.0,84.0 L 99.0,87.0 L 102.0,87.0 L 105.0,81.0 L 104.0,77.0 L 96.0,71.0 L 96.0,58.0 L 95.0,52.0 L 103.0,44.0 L 101.0,39.0 L 99.0,36.0 L 92.0,37.0 L 88.0,39.0 L 83.0,38.0 L 73.0,33.0 L 69.0,32.0 L 66.0,20.0 L 56.0,20.0" fill="#070707"/>
	<path d="M 59.0,44.0 L 69.0,44.0 L 77.0,48.0 L 83.0,56.0 L 84.0,59.0 L 84.0,68.0 L 80.0,77.0 L 74.0,82.0 L 69.0,84.0 L 59.0,84.0 L 51.0,80.0 L 46.0,74.0 L 44.0,69.0 L 44.0,59.0 L 48.0,51.0 L 56.0,45.0 L 59.0,44.0" fill="#080808"/>
	<path d="M 60.0,52.0 L 68.0,52.0 L 75.0,58.0 L 76.0,60.0 L 76.0,67.0 L 73.0,72.0 L 68.0,76.0 L 60.0,76.0 L 53.0,70.0 L 52.0,68.0 L 52.0,60.0 L 58.0,53.0 L 60.0,52.0" fill="#F7F7F7"/>
</svg>
