<?xml version="1.0" ?>
<svg baseProfile="full" height="600px" version="1.1" viewBox="-12.06 -12.06 144.12 144.12" width="600px" xmlns="http://www.w3.org/2000/svg" xmlns:ev="http://www.w3.org/2001/xml-events" xmlns:xlink="http://www.w3.org/1999/xlink">
	<defs/>
	<path d="M 0.0,0.0 L 120.0,0.0 L 120.0,120.0 L 0.0,120.0 L 0.0,0.0" fill="#FAFAFA"/>
	<path d="M 41.0,32.0 L 47.0,32.0 L 50.0,40.0 L 59.0,41.0 L 62.0,37.0 L 67.0,38.0 L 68.0,42.0 L 68.0,49.0 L 71.0,52.0 L 81.0,52.0 L 83.0,55.0 L 83.0,58.0 L 79.0,61.0 L 80.0,69.0 L 81.0,71.0 L 88.0,73.0 L 88.0,79.0 L 80.0,82.0 L 79.0,91.0 L 83.0,94.0 L 82.0,99.0 L 77.0,100.0 L 71.0,100.0 L 68.0,103.0 L 68.0,113.0 L 65.0,115.0 L 62.0,115.0 L 59.0,111.0 L 50.0,112.0 L 47.0,120.0 L 0.0,120.0 L 0.0,73.0 L 7.0,71.0 L 9.0,65.0 L 8.0,60.0 L 5.0,58.0 L 6.0,53.0 L 10.0,52.0 L 17.0,52.0 L 20.0,49.0 L 20.0,39.0 L 23.0,37.0 L 26.0,37.0 L 29.0,41.0 L 37.0,40.0 L 39.0,39.0 L 41.0,32.0" fill="#040404"/>
	<path d="M 77.0,0.0 L 120.0,0.0 L 120.0,43.0 L 112.0,46.0 L 111.0,52.0 L 116.0,57.0 L 114.0,62.0 L 109.0,62.0 L 105.0,61.0 L 102.0,64.0 L 102.0,74.0 L 97.0,76.0 L 95.0,74.0 L 93.0,69.0 L 88.0,66.0 L 86.0,64.0 L 89.0,61.0 L 91.0,56.0 L 96.0,51.0 L 99.0,45.0 L 99.0,35.0 L 95.0,27.0 L 90.0,23.0 L 85.0,21.0 L 75.0,21.0 L 67.0,25.0 L 63.0,30.0 L 58.0,32.0 L 55.0,34.0 L 52.0,28.0 L 50.0,26.0 L 45.0,24.0 L 45.0,20.0 L 46.0,18.0 L 55.0,19.0 L 59.0,15.0 L 58.0,6.0 L 63.0,4.0 L 68.0,9.0 L 74.0,8.0 L 77.0,0.0" fill="#070707"/>
	<path d="M 38.0,52.0 L 49.0,52.0 L 59.0,57.0 L 66.0,65.0 L 68.0,70.0 L 68.0,81.0 L 63.0,91.0 L 56.0,97.0 L 49.0,100.0 L 38.0,100.0 L 30.0,96.0 L 23.0,88.0 L 20.0,81.0 L 20.0,70.0 L 24.0,62.0 L 33.0,54.0 L 38.0,52.0" fill="#FAFAFA"/>
	<path d="M 0.0,79.0 L 7.0,80.0 L 9.0,82.0 L 10.0,91.0 L 7.0,94.0 L 5.0,94.0 L 7.0,99.0 L 17.0,99.0 L 21.0,103.0 L 21.0,113.0 L 26.0,115.0 L 28.0,111.0 L 33.0,110.0 L 40.0,113.0 L 41.0,120.0 L 0.0,120.0 L 0.0,79.0" fill="#F9F9F9"/>
	<path d="M 83.0,0.0 L 120.0,0.0 L 120.0,37.0 L 113.0,36.0 L 110.0,31.0 L 111.0,27.0 L 115.0,23.0 L 114.0,18.0 L 104.0,19.0 L 101.0,16.0 L 102.0,6.0 L 97.0,5.0 L 92.0,10.0 L 86.0,9.0 L 84.0,7.0 L 83.0,0.0" fill="#FAFAFA"/>
	<path d="M 41.0,68.0 L 47.0,68.0 L 52.0,73.0 L 51.0,81.0 L 47.0,84.0 L 41.0,84.0 L 36.0,79.0 L 36.0,73.0 L 41.0,68.0" fill="#090909"/>
	<path d="M 78.0,36.0 L 83.0,37.0 L 84.0,42.0 L 82.0,44.0 L 77.0,43.0 L 76.0,38.0 L 78.0,36.0" fill="#030303"/>
</svg>
