<?xml version="1.0" ?>
<svg baseProfile="full" height="600px" version="1.1" viewBox="-19.296000000000003 -19.296000000000003 230.592 230.592" width="600px" xmlns="http://www.w3.org/2000/svg" xmlns:ev="http://www.w3.org/2001/xml-events" xmlns:xlink="http://www.w3.org/1999/xlink">
	<defs/>
	<path d="M 0.0,0.0 L 192.0,0.0 L 192.0,192.0 L 0.0,192.0 L 0.0,0.0" fill="#FCFDFE"/>
	<path d="M 142.0,28.0 L 153.0,28.0 L 163.0,32.0 L 171.0,39.0 L 175.0,46.0 L 176.0,51.0 L 176.0,60.0 L 173.0,70.0 L 165.0,79.0 L 157.0,83.0 L 154.0,84.0 L 141.0,84.0 L 131.0,79.0 L 126.0,78.0 L 81.0,95.0 L 79.0,95.0 L 79.0,97.0 L 89.0,100.0 L 125.0,114.0 L 130.0,114.0 L 136.0,110.0 L 142.0,108.0 L 153.0,108.0 L 163.0,112.0 L 171.0,119.0 L 175.0,126.0 L 176.0,131.0 L 176.0,140.0 L 173.0,150.0 L 165.0,159.0 L 157.0,163.0 L 154.0,164.0 L 141.0,164.0 L 131.0,159.0 L 123.0,150.0 L 120.0,141.0 L 120.0,138.0 L 110.0,135.0 L 71.0,120.0 L 66.0,118.0 L 61.0,119.0 L 53.0,123.0 L 50.0,124.0 L 37.0,124.0 L 27.0,119.0 L 19.0,110.0 L 16.0,101.0 L 16.0,90.0 L 20.0,81.0 L 27.0,73.0 L 35.0,69.0 L 38.0,68.0 L 49.0,68.0 L 59.0,72.0 L 62.0,74.0 L 69.0,73.0 L 118.0,54.0 L 120.0,54.0 L 121.0,47.0 L 125.0,39.0 L 134.0,31.0 L 142.0,28.0" fill="#1D7FDA"/>
	<path d="M 38.0,68.0 L 49.0,68.0 L 59.0,72.0 L 65.0,75.0 L 67.0,79.0 L 71.0,87.0 L 72.0,90.0 L 72.0,101.0 L 68.0,111.0 L 65.0,116.0 L 61.0,119.0 L 53.0,123.0 L 50.0,124.0 L 37.0,124.0 L 27.0,119.0 L 19.0,110.0 L 16.0,101.0 L 16.0,90.0 L 20.0,81.0 L 27.0,73.0 L 35.0,69.0 L 38.0,68.0" fill="#2088E3"/>
	<path d="M 142.0,28.0 L 153.0,28.0 L 163.0,32.0 L 171.0,39.0 L 175.0,46.0 L 176.0,51.0 L 176.0,60.0 L 173.0,70.0 L 165.0,79.0 L 157.0,83.0 L 154.0,84.0 L 141.0,84.0 L 131.0,79.0 L 126.0,74.0 L 121.0,65.0 L 120.0,55.0 L 118.0,54.0 L 120.0,54.0 L 121.0,47.0 L 125.0,39.0 L 134.0,31.0 L 142.0,28.0" fill="#2088E3"/>
</svg>
