<?xml version="1.0" ?>
<svg baseProfile="full" height="600px" version="1.1" viewBox="-20.1 -20.1 240.2 240.2" width="600px" xmlns="http://www.w3.org/2000/svg" xmlns:ev="http://www.w3.org/2001/xml-events" xmlns:xlink="http://www.w3.org/1999/xlink">
	<defs/>
	<path d="M 0.0,0.0 L 200.0,0.0 L 200.0,200.0 L 0.0,200.0 L 0.0,0.0" fill="#FDFDFD"/>
	<path d="M 147.0,12.0 L 161.0,12.0 L 173.0,17.0 L 182.0,25.0 L 188.0,37.0 L 188.0,54.0 L 185.0,63.0 L 178.0,72.0 L 169.0,78.0 L 159.0,81.0 L 148.0,81.0 L 138.0,77.0 L 132.0,76.0 L 86.0,99.0 L 84.0,99.0 L 84.0,101.0 L 90.0,103.0 L 107.0,112.0 L 126.0,121.0 L 133.0,125.0 L 137.0,124.0 L 147.0,120.0 L 161.0,120.0 L 173.0,125.0 L 182.0,133.0 L 188.0,145.0 L 188.0,162.0 L 185.0,171.0 L 178.0,180.0 L 169.0,186.0 L 159.0,189.0 L 148.0,189.0 L 138.0,185.0 L 132.0,181.0 L 124.0,172.0 L 120.0,161.0 L 62.0,132.0 L 53.0,134.0 L 49.0,135.0 L 38.0,135.0 L 26.0,130.0 L 17.0,122.0 L 12.0,113.0 L 10.0,105.0 L 10.0,94.0 L 14.0,84.0 L 18.0,78.0 L 26.0,71.0 L 34.0,67.0 L 37.0,66.0 L 49.0,66.0 L 57.0,68.0 L 64.0,67.0 L 120.0,39.0 L 124.0,29.0 L 130.0,21.0 L 139.0,15.0 L 147.0,12.0" fill="#080808"/>
	<path d="M 39.0,74.0 L 50.0,74.0 L 59.0,78.0 L 66.0,84.0 L 70.0,92.0 L 71.0,95.0 L 71.0,106.0 L 65.0,118.0 L 57.0,124.0 L 48.0,127.0 L 41.0,127.0 L 32.0,124.0 L 24.0,117.0 L 20.0,111.0 L 18.0,104.0 L 18.0,95.0 L 24.0,83.0 L 33.0,76.0 L 39.0,74.0" fill="#FAFAFA"/>
	<path d="M 148.0,128.0 L 160.0,128.0 L 170.0,133.0 L 175.0,138.0 L 179.0,144.0 L 180.0,148.0 L 180.0,161.0 L 176.0,170.0 L 167.0,178.0 L 158.0,181.0 L 149.0,181.0 L 137.0,175.0 L 131.0,168.0 L 128.0,160.0 L 128.0,148.0 L 133.0,138.0 L 141.0,131.0 L 148.0,128.0" fill="#FBFBFB"/>
	<path d="M 148.0,20.0 L 160.0,20.0 L 170.0,25.0 L 175.0,30.0 L 179.0,36.0 L 180.0,40.0 L 180.0,53.0 L 176.0,62.0 L 167.0,70.0 L 158.0,73.0 L 149.0,73.0 L 137.0,67.0 L 131.0,60.0 L 128.0,52.0 L 128.0,40.0 L 133.0,30.0 L 141.0,23.0 L 148.0,20.0" fill="#FBFBFB"/>
	<path d="M 118.0,49.0 L 120.0,49.0 L 124.0,62.0 L 127.0,67.0 L 127.0,69.0 L 112.0,77.0 L 93.0,86.0 L 80.0,93.0 L 78.0,93.0 L 74.0,83.0 L 68.0,76.0 L 68.0,74.0 L 118.0,49.0" fill="#F9F9F9"/>
	<path d="M 78.0,107.0 L 83.0,109.0 L 125.0,130.0 L 128.0,131.0 L 126.0,135.0 L 121.0,146.0 L 120.0,151.0 L 114.0,149.0 L 68.0,126.0 L 74.0,117.0 L 78.0,107.0" fill="#FBFBFB"/>
</svg>
