<?xml version="1.0" ?>
<svg baseProfile="full" height="600px" version="1.1" viewBox="-20.1 -20.1 240.2 240.2" width="600px" xmlns="http://www.w3.org/2000/svg" xmlns:ev="http://www.w3.org/2001/xml-events" xmlns:xlink="http://www.w3.org/1999/xlink">
	<defs/>
	<path d="M 0.0,0.0 L 200.0,0.0 L 200.0,200.0 L 0.0,200.0 L 0.0,0.0" fill="#FDFDFD"/>
	<path d="M 132.0,17.0 L 146.0,17.0 L 158.0,21.0 L 169.0,28.0 L 177.0,38.0 L 182.0,49.0 L 183.0,54.0 L 183.0,67.0 L 180.0,78.0 L 176.0,86.0 L 167.0,96.0 L 161.0,100.0 L 172.0,109.0 L 179.0,119.0 L 183.0,130.0 L 183.0,147.0 L 179.0,160.0 L 171.0,171.0 L 160.0,179.0 L 149.0,183.0 L 129.0,183.0 L 117.0,178.0 L 108.0,171.0 L 101.0,162.0 L 97.0,153.0 L 95.0,141.0 L 87.0,137.0 L 81.0,139.0 L 73.0,143.0 L 68.0,144.0 L 50.0,144.0 L 38.0,139.0 L 30.0,133.0 L 22.0,124.0 L 17.0,112.0 L 16.0,109.0 L 16.0,91.0 L 21.0,78.0 L 29.0,68.0 L 37.0,62.0 L 46.0,58.0 L 54.0,56.0 L 65.0,56.0 L 73.0,58.0 L 81.0,61.0 L 86.0,60.0 L 95.0,55.0 L 97.0,46.0 L 103.0,35.0 L 113.0,25.0 L 125.0,19.0 L 132.0,17.0" fill="#080808"/>
	<path d="M 53.0,64.0 L 68.0,64.0 L 78.0,68.0 L 87.0,75.0 L 94.0,86.0 L 96.0,92.0 L 96.0,108.0 L 91.0,120.0 L 82.0,130.0 L 70.0,136.0 L 66.0,137.0 L 53.0,137.0 L 43.0,133.0 L 34.0,127.0 L 28.0,119.0 L 24.0,109.0 L 23.0,105.0 L 23.0,94.0 L 27.0,83.0 L 33.0,75.0 L 40.0,69.0 L 48.0,65.0 L 53.0,64.0" fill="#FBFBFB"/>
	<path d="M 132.0,25.0 L 147.0,25.0 L 159.0,30.0 L 168.0,38.0 L 173.0,46.0 L 175.0,52.0 L 175.0,69.0 L 171.0,80.0 L 162.0,90.0 L 154.0,95.0 L 145.0,98.0 L 133.0,98.0 L 122.0,94.0 L 114.0,88.0 L 107.0,80.0 L 103.0,69.0 L 103.0,52.0 L 110.0,38.0 L 119.0,30.0 L 127.0,26.0 L 132.0,25.0" fill="#FCFCFC"/>
	<path d="M 126.0,105.0 L 153.0,105.0 L 163.0,111.0 L 171.0,120.0 L 175.0,129.0 L 176.0,134.0 L 176.0,145.0 L 173.0,155.0 L 166.0,165.0 L 159.0,171.0 L 149.0,175.0 L 145.0,176.0 L 132.0,176.0 L 120.0,171.0 L 110.0,162.0 L 104.0,150.0 L 103.0,147.0 L 103.0,131.0 L 107.0,122.0 L 111.0,116.0 L 120.0,108.0 L 126.0,105.0" fill="#FCFCFC"/>
	<path d="M 103.0,90.0 L 107.0,91.0 L 114.0,97.0 L 119.0,101.0 L 109.0,108.0 L 107.0,110.0 L 103.0,109.0 L 103.0,90.0" fill="#F6F6F6"/>
	<path d="M 94.0,64.0 L 96.0,66.0 L 98.0,78.0 L 94.0,73.0 L 89.0,67.0 L 94.0,64.0" fill="#D8D8D8"/>
	<path d="M 97.0,123.0 L 98.0,126.0 L 96.0,133.0 L 92.0,131.0 L 96.0,124.0 L 97.0,123.0" fill="#DBDBDB"/>
</svg>
