<?xml version="1.0" ?>
<svg baseProfile="full" height="600px" version="1.1" viewBox="-12.06 -12.06 144.12 144.12" width="600px" xmlns="http://www.w3.org/2000/svg" xmlns:ev="http://www.w3.org/2001/xml-events" xmlns:xlink="http://www.w3.org/1999/xlink">
	<defs/>
	<path d="M 0.0,0.0 L 120.0,0.0 L 120.0,120.0 L 0.0,120.0 L 0.0,0.0" fill="#FDFDFD"/>
	<path d="M 87.0,12.0 L 97.0,12.0 L 103.0,16.0 L 107.0,21.0 L 108.0,23.0 L 108.0,32.0 L 105.0,38.0 L 99.0,43.0 L 97.0,44.0 L 87.0,44.0 L 81.0,40.0 L 76.0,41.0 L 46.0,56.0 L 44.0,56.0 L 44.0,64.0 L 50.0,66.0 L 78.0,80.0 L 82.0,79.0 L 87.0,76.0 L 97.0,76.0 L 103.0,80.0 L 107.0,85.0 L 108.0,87.0 L 108.0,96.0 L 105.0,102.0 L 99.0,107.0 L 97.0,108.0 L 87.0,108.0 L 81.0,104.0 L 77.0,99.0 L 76.0,97.0 L 76.0,88.0 L 70.0,86.0 L 42.0,72.0 L 38.0,73.0 L 33.0,76.0 L 23.0,76.0 L 17.0,72.0 L 13.0,67.0 L 12.0,65.0 L 12.0,55.0 L 16.0,49.0 L 21.0,45.0 L 23.0,44.0 L 33.0,44.0 L 39.0,48.0 L 44.0,47.0 L 74.0,32.0 L 76.0,32.0 L 76.0,23.0 L 80.0,17.0 L 85.0,13.0 L 87.0,12.0" fill="#050505"/>
</svg>
