<?xml version="1.0" ?>
<svg baseProfile="full" height="600px" version="1.1" viewBox="-9.648000000000001 -9.648000000000001 115.296 115.296" width="600px" xmlns="http://www.w3.org/2000/svg" xmlns:ev="http://www.w3.org/2001/xml-events" xmlns:xlink="http://www.w3.org/1999/xlink">
	<defs/>
	<path d="M 0.0,0.0 L 96.0,0.0 L 96.0,96.0 L 0.0,96.0 L 0.0,0.0" fill="#030303"/>
	<path d="M 0.0,0.0 L 96.0,0.0 L 96.0,96.0 L 0.0,96.0 L 0.0,0.0 M 47.0,4.0 L 13.0,19.0 L 12.0,20.0 L 12.0,53.0 L 16.0,65.0 L 22.0,75.0 L 32.0,85.0 L 45.0,92.0 L 53.0,91.0 L 62.0,86.0 L 72.0,77.0 L 78.0,69.0 L 82.0,60.0 L 84.0,50.0 L 84.0,20.0 L 72.0,14.0 L 49.0,4.0 L 47.0,4.0" fill="#FCFCFC"/>
	<path d="M 37.0,32.0 L 39.0,32.0 L 46.0,40.0 L 50.0,40.0 L 58.0,32.0 L 63.0,36.0 L 62.0,40.0 L 55.0,47.0 L 57.0,51.0 L 64.0,58.0 L 59.0,64.0 L 52.0,58.0 L 49.0,55.0 L 45.0,57.0 L 39.0,63.0 L 35.0,62.0 L 33.0,60.0 L 34.0,56.0 L 41.0,49.0 L 39.0,45.0 L 32.0,39.0 L 34.0,35.0 L 37.0,32.0" fill="#F7F7F7"/>
</svg>
