<?xml version="1.0" ?>
<svg baseProfile="full" height="600px" version="1.1" viewBox="-16.08 -16.08 192.16 192.16" width="600px" xmlns="http://www.w3.org/2000/svg" xmlns:ev="http://www.w3.org/2001/xml-events" xmlns:xlink="http://www.w3.org/1999/xlink">
	<defs/>
	<path d="M 0.0,0.0 L 160.0,0.0 L 160.0,160.0 L 0.0,160.0 L 0.0,0.0" fill="#C0E6FD"/>
	<path d="M 4.0,24.0 L 96.0,24.0 L 96.0,48.0 L 140.0,48.0 L 145.0,52.0 L 158.0,77.0 L 160.0,81.0 L 160.0,128.0 L 140.0,128.0 L 139.0,135.0 L 133.0,142.0 L 129.0,144.0 L 119.0,144.0 L 113.0,140.0 L 109.0,135.0 L 108.0,128.0 L 56.0,128.0 L 55.0,135.0 L 49.0,142.0 L 45.0,144.0 L 35.0,144.0 L 29.0,140.0 L 25.0,135.0 L 24.0,128.0 L 4.0,128.0 L 4.0,66.0 L 8.0,66.0 L 8.0,124.0 L 25.0,124.0 L 26.0,119.0 L 33.0,113.0 L 35.0,112.0 L 43.0,112.0 L 50.0,115.0 L 55.0,121.0 L 55.0,124.0 L 92.0,124.0 L 92.0,28.0 L 4.0,28.0 L 4.0,24.0" fill="#507CB6"/>
	<path d="M 0.0,0.0 L 160.0,0.0 L 160.0,81.0 L 157.0,77.0 L 144.0,52.0 L 140.0,49.0 L 96.0,48.0 L 96.0,24.0 L 4.0,24.0 L 4.0,40.0 L 0.0,40.0 L 0.0,0.0" fill="#FDFEFE"/>
	<path d="M 0.0,60.0 L 4.0,60.0 L 4.0,128.0 L 24.0,128.0 L 27.0,137.0 L 33.0,142.0 L 35.0,143.0 L 45.0,143.0 L 51.0,139.0 L 55.0,133.0 L 56.0,128.0 L 108.0,128.0 L 111.0,137.0 L 117.0,142.0 L 119.0,143.0 L 129.0,143.0 L 135.0,139.0 L 139.0,133.0 L 140.0,128.0 L 160.0,128.0 L 160.0,160.0 L 0.0,160.0 L 0.0,60.0" fill="#FDFEFE"/>
	<path d="M 96.0,52.0 L 138.0,52.0 L 142.0,56.0 L 143.0,60.0 L 121.0,61.0 L 117.0,65.0 L 117.0,79.0 L 121.0,83.0 L 128.0,84.0 L 135.0,91.0 L 156.0,92.0 L 156.0,124.0 L 139.0,124.0 L 136.0,118.0 L 131.0,114.0 L 129.0,113.0 L 119.0,113.0 L 113.0,117.0 L 110.0,121.0 L 109.0,124.0 L 96.0,124.0 L 96.0,52.0" fill="#8AB6EE"/>
	<path d="M 4.0,28.0 L 92.0,28.0 L 92.0,41.0 L 87.0,46.0 L 71.0,62.0 L 67.0,60.0 L 69.0,56.0 L 80.0,45.0 L 0.0,44.0 L 0.0,40.0 L 4.0,40.0 L 4.0,28.0" fill="#BFE5FD"/>
	<path d="M 4.0,66.0 L 8.0,66.0 L 8.0,124.0 L 25.0,124.0 L 26.0,119.0 L 33.0,113.0 L 35.0,112.0 L 43.0,112.0 L 50.0,115.0 L 55.0,121.0 L 56.0,124.0 L 56.0,133.0 L 52.0,139.0 L 47.0,143.0 L 45.0,144.0 L 35.0,144.0 L 29.0,140.0 L 25.0,135.0 L 24.0,128.0 L 4.0,128.0 L 4.0,66.0" fill="#6C7F95"/>
	<path d="M 4.0,24.0 L 96.0,24.0 L 96.0,128.0 L 56.0,128.0 L 56.0,124.0 L 92.0,124.0 L 92.0,28.0 L 4.0,28.0 L 4.0,24.0" fill="#7496C4"/>
	<path d="M 122.0,64.0 L 146.0,64.0 L 156.0,82.0 L 156.0,88.0 L 137.0,88.0 L 130.0,81.0 L 122.0,80.0 L 120.0,78.0 L 120.0,66.0 L 122.0,64.0" fill="#BEE4FC"/>
	<path d="M 151.0,92.0 L 156.0,92.0 L 156.0,124.0 L 139.0,124.0 L 136.0,118.0 L 131.0,114.0 L 133.0,110.0 L 151.0,92.0" fill="#8AB6EE"/>
	<path d="M 120.0,116.0 L 128.0,116.0 L 135.0,122.0 L 136.0,124.0 L 136.0,131.0 L 133.0,136.0 L 130.0,139.0 L 127.0,140.0 L 120.0,140.0 L 113.0,134.0 L 112.0,132.0 L 112.0,124.0 L 118.0,117.0 L 120.0,116.0" fill="#ACBED1"/>
	<path d="M 36.0,116.0 L 44.0,116.0 L 51.0,122.0 L 52.0,124.0 L 52.0,131.0 L 49.0,136.0 L 46.0,139.0 L 43.0,140.0 L 36.0,140.0 L 29.0,134.0 L 28.0,132.0 L 28.0,124.0 L 34.0,117.0 L 36.0,116.0" fill="#ACBED1"/>
	<path d="M 0.0,40.0 L 90.0,40.0 L 84.0,47.0 L 70.0,61.0 L 67.0,60.0 L 69.0,56.0 L 80.0,45.0 L 0.0,44.0 L 0.0,40.0" fill="#7496C4"/>
	<path d="M 119.0,112.0 L 129.0,112.0 L 135.0,116.0 L 139.0,121.0 L 140.0,124.0 L 140.0,133.0 L 136.0,139.0 L 131.0,143.0 L 129.0,144.0 L 119.0,144.0 L 113.0,140.0 L 109.0,135.0 L 108.0,128.0 L 96.0,128.0 L 96.0,124.0 L 109.0,124.0 L 110.0,119.0 L 117.0,113.0 L 119.0,112.0 M 120.0,116.0 L 113.0,122.0 L 112.0,124.0 L 112.0,132.0 L 118.0,139.0 L 120.0,140.0 L 127.0,140.0 L 132.0,137.0 L 135.0,134.0 L 136.0,131.0 L 136.0,124.0 L 130.0,117.0 L 128.0,116.0 L 120.0,116.0" fill="#6B7E95"/>
	<path d="M 4.0,66.0 L 8.0,66.0 L 8.0,124.0 L 24.0,124.0 L 24.0,128.0 L 4.0,128.0 L 4.0,66.0" fill="#7496C4"/>
	<path d="M 143.0,108.0 L 145.0,108.0 L 147.0,111.0 L 156.0,112.0 L 156.0,124.0 L 139.0,124.0 L 136.0,118.0 L 137.0,114.0 L 143.0,108.0" fill="#8AB6EE"/>
	<path d="M 147.0,100.0 L 156.0,100.0 L 156.0,112.0 L 147.0,112.0 L 144.0,108.0 L 144.0,103.0 L 147.0,100.0" fill="#FBFCFE"/>
	<path d="M 0.0,56.0 L 13.0,56.0 L 13.0,60.0 L 0.0,60.0 L 0.0,56.0" fill="#7496C4"/>
	<path d="M 96.0,124.0 L 108.0,124.0 L 108.0,128.0 L 96.0,128.0 L 96.0,124.0" fill="#4E7AB5"/>
	<path d="M 0.0,44.0 L 4.0,44.0 L 4.0,56.0 L 0.0,56.0 L 0.0,44.0" fill="#FDFEFE"/>
</svg>
