<?xml version="1.0" ?>
<svg baseProfile="full" height="600px" version="1.1" viewBox="-20.1 -20.1 240.2 240.2" width="600px" xmlns="http://www.w3.org/2000/svg" xmlns:ev="http://www.w3.org/2001/xml-events" xmlns:xlink="http://www.w3.org/1999/xlink">
	<defs/>
	<path d="M 0.0,0.0 L 200.0,0.0 L 200.0,200.0 L 0.0,200.0 L 0.0,0.0" fill="#030303"/>
	<path d="M 9.0,40.0 L 114.0,40.0 L 116.0,42.0 L 116.0,152.0 L 75.0,152.0 L 72.0,143.0 L 63.0,135.0 L 57.0,133.0 L 46.0,133.0 L 38.0,137.0 L 31.0,145.0 L 29.0,152.0 L 10.0,152.0 L 8.0,150.0 L 8.0,41.0 L 9.0,40.0" fill="#FCFCFC"/>
	<path d="M 0.0,0.0 L 200.0,0.0 L 200.0,104.0 L 198.0,102.0 L 193.0,92.0 L 180.0,75.0 L 173.0,66.0 L 166.0,62.0 L 163.0,61.0 L 124.0,60.0 L 123.0,40.0 L 120.0,35.0 L 115.0,33.0 L 7.0,33.0 L 2.0,37.0 L 0.0,39.0 L 0.0,0.0" fill="#FDFDFD"/>
	<path d="M 0.0,151.0 L 4.0,156.0 L 8.0,159.0 L 29.0,160.0 L 32.0,168.0 L 38.0,175.0 L 46.0,179.0 L 57.0,179.0 L 66.0,175.0 L 73.0,167.0 L 75.0,160.0 L 137.0,160.0 L 140.0,168.0 L 146.0,175.0 L 154.0,179.0 L 165.0,179.0 L 174.0,175.0 L 181.0,167.0 L 183.0,160.0 L 192.0,159.0 L 197.0,155.0 L 200.0,152.0 L 200.0,200.0 L 0.0,200.0 L 0.0,151.0" fill="#FCFCFC"/>
	<path d="M 127.0,68.0 L 144.0,68.0 L 145.0,108.0 L 150.0,114.0 L 152.0,115.0 L 192.0,116.0 L 192.0,149.0 L 189.0,152.0 L 183.0,152.0 L 180.0,143.0 L 171.0,135.0 L 165.0,133.0 L 154.0,133.0 L 146.0,137.0 L 139.0,145.0 L 137.0,152.0 L 124.0,152.0 L 124.0,71.0 L 127.0,68.0" fill="#FCFCFC"/>
	<path d="M 152.0,68.0 L 162.0,68.0 L 168.0,72.0 L 175.0,80.0 L 189.0,99.0 L 192.0,108.0 L 155.0,108.0 L 152.0,105.0 L 152.0,68.0" fill="#FCFCFC"/>
	<path d="M 49.0,48.0 L 105.0,48.0 L 107.0,50.0 L 106.0,55.0 L 95.0,67.0 L 84.0,79.0 L 73.0,91.0 L 63.0,102.0 L 59.0,100.0 L 57.0,96.0 L 66.0,86.0 L 78.0,73.0 L 89.0,61.0 L 92.0,57.0 L 49.0,56.0 L 49.0,48.0" fill="#050505"/>
	<path d="M 155.0,140.0 L 164.0,140.0 L 171.0,144.0 L 176.0,151.0 L 176.0,159.0 L 172.0,167.0 L 165.0,172.0 L 156.0,172.0 L 149.0,168.0 L 145.0,163.0 L 144.0,160.0 L 144.0,151.0 L 148.0,145.0 L 153.0,141.0 L 155.0,140.0" fill="#F8F8F8"/>
	<path d="M 47.0,140.0 L 56.0,140.0 L 63.0,144.0 L 68.0,151.0 L 68.0,159.0 L 64.0,167.0 L 57.0,172.0 L 48.0,172.0 L 41.0,168.0 L 37.0,163.0 L 36.0,160.0 L 36.0,151.0 L 40.0,145.0 L 45.0,141.0 L 47.0,140.0" fill="#F8F8F8"/>
</svg>
