<?xml version="1.0" ?>
<svg baseProfile="full" height="600px" version="1.1" viewBox="-20.1 -20.1 240.2 240.2" width="600px" xmlns="http://www.w3.org/2000/svg" xmlns:ev="http://www.w3.org/2001/xml-events" xmlns:xlink="http://www.w3.org/1999/xlink">
	<defs/>
	<path d="M 0.0,0.0 L 200.0,0.0 L 200.0,200.0 L 0.0,200.0 L 0.0,0.0" fill="#FCFCFC"/>
	<path d="M 0.0,0.0 L 200.0,0.0 L 200.0,200.0 L 186.0,200.0 L 187.0,198.0 L 187.0,183.0 L 183.0,83.0 L 179.0,74.0 L 173.0,59.0 L 173.0,51.0 L 179.0,31.0 L 179.0,26.0 L 178.0,25.0 L 22.0,25.0 L 21.0,30.0 L 27.0,51.0 L 27.0,59.0 L 18.0,81.0 L 16.0,111.0 L 13.0,184.0 L 13.0,198.0 L 14.0,200.0 L 0.0,200.0 L 0.0,0.0" fill="#FDFDFD"/>
	<path d="M 30.0,32.0 L 171.0,32.0 L 168.0,43.0 L 165.0,53.0 L 166.0,60.0 L 173.0,80.0 L 27.0,80.0 L 30.0,70.0 L 35.0,58.0 L 34.0,51.0 L 30.0,36.0 L 30.0,32.0" fill="#FCFCFC"/>
	<path d="M 22.0,24.0 L 178.0,24.0 L 180.0,26.0 L 179.0,34.0 L 174.0,51.0 L 174.0,59.0 L 183.0,82.0 L 184.0,83.0 L 188.0,183.0 L 188.0,198.0 L 186.0,200.0 L 14.0,200.0 L 12.0,198.0 L 12.0,184.0 L 15.0,111.0 L 17.0,81.0 L 26.0,59.0 L 26.0,51.0 L 20.0,30.0 L 21.0,25.0 L 22.0,24.0 M 30.0,32.0 L 31.0,39.0 L 35.0,53.0 L 34.0,60.0 L 27.0,78.0 L 27.0,80.0 L 173.0,80.0 L 166.0,60.0 L 165.0,53.0 L 171.0,34.0 L 171.0,32.0 L 30.0,32.0 M 25.0,88.0 L 24.0,95.0 L 21.0,158.0 L 20.0,192.0 L 180.0,192.0 L 179.0,161.0 L 176.0,88.0 L 25.0,88.0" fill="#040404"/>
	<path d="M 61.0,96.0 L 67.0,96.0 L 72.0,101.0 L 71.0,109.0 L 69.0,111.0 L 69.0,132.0 L 74.0,142.0 L 77.0,145.0 L 77.0,147.0 L 81.0,149.0 L 90.0,154.0 L 95.0,155.0 L 105.0,155.0 L 116.0,151.0 L 126.0,142.0 L 130.0,135.0 L 131.0,131.0 L 131.0,111.0 L 128.0,107.0 L 128.0,101.0 L 133.0,96.0 L 139.0,96.0 L 144.0,101.0 L 143.0,109.0 L 141.0,111.0 L 140.0,133.0 L 135.0,145.0 L 126.0,155.0 L 116.0,161.0 L 105.0,164.0 L 92.0,164.0 L 80.0,159.0 L 72.0,153.0 L 65.0,145.0 L 60.0,133.0 L 59.0,111.0 L 56.0,107.0 L 56.0,101.0 L 61.0,96.0" fill="#060606"/>
</svg>
