<?xml version="1.0" ?>
<svg baseProfile="full" height="600px" version="1.1" viewBox="-16.08 -16.08 192.16 192.16" width="600px" xmlns="http://www.w3.org/2000/svg" xmlns:ev="http://www.w3.org/2001/xml-events" xmlns:xlink="http://www.w3.org/1999/xlink">
	<defs/>
	<path d="M 0.0,0.0 L 160.0,0.0 L 160.0,160.0 L 0.0,160.0 L 0.0,0.0" fill="#8AB6EE"/>
	<path d="M 0.0,0.0 L 160.0,0.0 L 160.0,160.0 L 0.0,160.0 L 0.0,0.0 M 12.0,52.0 L 12.0,64.0 L 18.0,142.0 L 19.0,152.0 L 141.0,152.0 L 142.0,149.0 L 143.0,128.0 L 145.0,110.0 L 146.0,91.0 L 147.0,84.0 L 148.0,67.0 L 148.0,52.0 L 12.0,52.0" fill="#507CB6"/>
	<path d="M 0.0,0.0 L 53.0,0.0 L 55.0,4.0 L 10.0,4.0 L 17.0,23.0 L 18.0,29.0 L 8.0,46.0 L 8.0,60.0 L 11.0,95.0 L 13.0,125.0 L 15.0,143.0 L 15.0,156.0 L 145.0,156.0 L 145.0,146.0 L 151.0,66.0 L 152.0,57.0 L 152.0,46.0 L 142.0,29.0 L 144.0,20.0 L 150.0,4.0 L 105.0,4.0 L 107.0,0.0 L 160.0,0.0 L 160.0,160.0 L 0.0,160.0 L 0.0,0.0" fill="#FBFCFD"/>
	<path d="M 58.0,0.0 L 102.0,0.0 L 100.0,6.0 L 92.0,13.0 L 85.0,16.0 L 75.0,16.0 L 65.0,11.0 L 59.0,4.0 L 58.0,0.0" fill="#F1CB83"/>
	<path d="M 51.0,80.0 L 54.0,80.0 L 56.0,96.0 L 61.0,106.0 L 70.0,112.0 L 74.0,113.0 L 86.0,113.0 L 94.0,110.0 L 99.0,106.0 L 104.0,97.0 L 105.0,81.0 L 109.0,80.0 L 109.0,96.0 L 105.0,106.0 L 100.0,111.0 L 95.0,115.0 L 87.0,118.0 L 73.0,118.0 L 63.0,114.0 L 57.0,109.0 L 52.0,100.0 L 51.0,97.0 L 51.0,80.0" fill="#F6F9FC"/>
	<path d="M 53.0,0.0 L 58.0,0.0 L 63.0,8.0 L 68.0,12.0 L 75.0,15.0 L 85.0,15.0 L 95.0,10.0 L 100.0,4.0 L 102.0,0.0 L 107.0,0.0 L 102.0,10.0 L 95.0,16.0 L 85.0,20.0 L 74.0,20.0 L 62.0,14.0 L 56.0,7.0 L 53.0,0.0" fill="#967C4A"/>
	<path d="M 67.0,0.0 L 94.0,0.0 L 90.0,5.0 L 83.0,8.0 L 76.0,8.0 L 69.0,4.0 L 67.0,0.0" fill="#FEEBA0"/>
	<path d="M 50.0,76.0 L 57.0,77.0 L 59.0,80.0 L 58.0,86.0 L 55.0,87.0 L 54.0,81.0 L 51.0,80.0 L 51.0,87.0 L 47.0,85.0 L 47.0,79.0 L 50.0,76.0" fill="#3F4A59"/>
	<path d="M 105.0,76.0 L 110.0,76.0 L 113.0,79.0 L 113.0,85.0 L 110.0,87.0 L 109.0,81.0 L 106.0,81.0 L 105.0,87.0 L 102.0,86.0 L 101.0,80.0 L 105.0,76.0" fill="#3B4756"/>
</svg>
