<?xml version="1.0" ?>
<svg baseProfile="full" height="600px" version="1.1" viewBox="-20.1 -20.1 240.2 240.2" width="600px" xmlns="http://www.w3.org/2000/svg" xmlns:ev="http://www.w3.org/2001/xml-events" xmlns:xlink="http://www.w3.org/1999/xlink">
	<defs/>
	<path d="M 0.0,0.0 L 200.0,0.0 L 200.0,200.0 L 0.0,200.0 L 0.0,0.0" fill="#FCFCFC"/>
	<path d="M 0.0,0.0 L 200.0,0.0 L 200.0,200.0 L 186.0,200.0 L 187.0,198.0 L 186.0,172.0 L 181.0,77.0 L 173.0,59.0 L 173.0,51.0 L 178.0,35.0 L 178.0,30.0 L 24.0,30.0 L 23.0,31.0 L 24.0,40.0 L 27.0,51.0 L 27.0,58.0 L 20.0,76.0 L 18.0,101.0 L 15.0,156.0 L 13.0,184.0 L 13.0,198.0 L 14.0,200.0 L 0.0,200.0 L 0.0,0.0" fill="#FCFCFC"/>
	<path d="M 24.0,29.0 L 176.0,29.0 L 179.0,32.0 L 177.0,41.0 L 174.0,51.0 L 174.0,59.0 L 182.0,77.0 L 188.0,189.0 L 188.0,198.0 L 186.0,200.0 L 14.0,200.0 L 12.0,198.0 L 12.0,184.0 L 15.0,141.0 L 18.0,86.0 L 20.0,73.0 L 26.0,58.0 L 26.0,51.0 L 22.0,37.0 L 22.0,31.0 L 24.0,29.0 M 27.0,83.0 L 25.0,102.0 L 21.0,174.0 L 21.0,192.0 L 180.0,192.0 L 178.0,156.0 L 174.0,83.0 L 27.0,83.0" fill="#060606"/>
	<path d="M 31.0,37.0 L 169.0,37.0 L 168.0,43.0 L 165.0,53.0 L 166.0,60.0 L 171.0,72.0 L 171.0,75.0 L 29.0,75.0 L 30.0,70.0 L 35.0,58.0 L 34.0,49.0 L 31.0,40.0 L 31.0,37.0" fill="#F8F8F8"/>
	<path d="M 60.0,89.0 L 67.0,89.0 L 72.0,94.0 L 71.0,101.0 L 70.0,103.0 L 68.0,103.0 L 70.0,108.0 L 80.0,113.0 L 87.0,115.0 L 111.0,115.0 L 124.0,111.0 L 131.0,107.0 L 132.0,103.0 L 130.0,103.0 L 128.0,99.0 L 129.0,92.0 L 132.0,89.0 L 139.0,89.0 L 144.0,94.0 L 143.0,101.0 L 142.0,103.0 L 140.0,103.0 L 139.0,110.0 L 134.0,116.0 L 126.0,120.0 L 117.0,123.0 L 111.0,124.0 L 88.0,124.0 L 75.0,121.0 L 65.0,115.0 L 61.0,110.0 L 60.0,103.0 L 58.0,103.0 L 56.0,99.0 L 57.0,92.0 L 60.0,89.0" fill="#070707"/>
</svg>
