<?xml version="1.0" ?>
<svg baseProfile="full" height="600px" version="1.1" viewBox="-20.1 -20.1 240.2 240.2" width="600px" xmlns="http://www.w3.org/2000/svg" xmlns:ev="http://www.w3.org/2001/xml-events" xmlns:xlink="http://www.w3.org/1999/xlink">
	<defs/>
	<path d="M 0.0,0.0 L 200.0,0.0 L 200.0,200.0 L 0.0,200.0 L 0.0,0.0" fill="#040404"/>
	<path d="M 13.0,88.0 L 187.0,88.0 L 187.0,192.0 L 13.0,192.0 L 13.0,88.0" fill="#FDFDFD"/>
	<path d="M 0.0,0.0 L 200.0,0.0 L 200.0,200.0 L 194.0,200.0 L 195.0,198.0 L 195.0,81.0 L 180.0,58.0 L 179.0,53.0 L 183.0,42.0 L 187.0,25.0 L 15.0,25.0 L 14.0,26.0 L 15.0,34.0 L 21.0,53.0 L 20.0,58.0 L 9.0,75.0 L 5.0,81.0 L 5.0,198.0 L 6.0,200.0 L 0.0,200.0 L 0.0,0.0" fill="#FCFCFC"/>
	<path d="M 23.0,32.0 L 177.0,32.0 L 174.0,43.0 L 171.0,52.0 L 171.0,58.0 L 184.0,79.0 L 184.0,80.0 L 121.0,80.0 L 112.0,76.0 L 110.0,75.0 L 90.0,75.0 L 80.0,79.0 L 79.0,80.0 L 16.0,80.0 L 18.0,75.0 L 29.0,58.0 L 28.0,49.0 L 23.0,32.0" fill="#FDFDFD"/>
	<path d="M 57.0,96.0 L 66.0,97.0 L 69.0,100.0 L 69.0,108.0 L 66.0,111.0 L 66.0,131.0 L 70.0,140.0 L 75.0,146.0 L 85.0,152.0 L 93.0,155.0 L 105.0,155.0 L 117.0,151.0 L 125.0,145.0 L 131.0,138.0 L 134.0,132.0 L 134.0,111.0 L 131.0,108.0 L 131.0,100.0 L 136.0,96.0 L 143.0,96.0 L 148.0,101.0 L 148.0,107.0 L 146.0,110.0 L 144.0,110.0 L 144.0,132.0 L 139.0,144.0 L 131.0,153.0 L 120.0,160.0 L 111.0,163.0 L 105.0,164.0 L 93.0,164.0 L 80.0,160.0 L 69.0,153.0 L 61.0,144.0 L 57.0,136.0 L 56.0,132.0 L 56.0,110.0 L 54.0,110.0 L 52.0,107.0 L 52.0,101.0 L 57.0,96.0" fill="#080808"/>
</svg>
