<?xml version="1.0" ?>
<svg baseProfile="full" height="600px" version="1.1" viewBox="-20.1 -20.1 240.2 240.2" width="600px" xmlns="http://www.w3.org/2000/svg" xmlns:ev="http://www.w3.org/2001/xml-events" xmlns:xlink="http://www.w3.org/1999/xlink">
	<defs/>
	<path d="M 0.0,0.0 L 200.0,0.0 L 200.0,200.0 L 0.0,200.0 L 0.0,0.0" fill="#050505"/>
	<path d="M 21.0,88.0 L 179.0,88.0 L 182.0,165.0 L 182.0,192.0 L 18.0,192.0 L 19.0,140.0 L 20.0,122.0 L 21.0,88.0" fill="#FCFCFC"/>
	<path d="M 28.0,32.0 L 61.0,32.0 L 69.0,48.0 L 78.0,56.0 L 89.0,61.0 L 94.0,62.0 L 107.0,62.0 L 120.0,57.0 L 128.0,51.0 L 134.0,43.0 L 139.0,32.0 L 172.0,32.0 L 170.0,41.0 L 167.0,51.0 L 167.0,59.0 L 176.0,78.0 L 176.0,80.0 L 24.0,80.0 L 26.0,74.0 L 33.0,59.0 L 33.0,51.0 L 28.0,34.0 L 28.0,32.0" fill="#FCFCFC"/>
	<path d="M 0.0,0.0 L 67.0,0.0 L 62.0,11.0 L 60.0,24.0 L 20.0,25.0 L 19.0,26.0 L 20.0,33.0 L 25.0,50.0 L 26.0,57.0 L 14.0,82.0 L 11.0,160.0 L 11.0,200.0 L 0.0,200.0 L 0.0,0.0" fill="#FCFCFC"/>
	<path d="M 133.0,0.0 L 200.0,0.0 L 200.0,200.0 L 188.0,200.0 L 190.0,199.0 L 188.0,124.0 L 186.0,82.0 L 174.0,57.0 L 175.0,50.0 L 181.0,30.0 L 180.0,25.0 L 140.0,24.0 L 138.0,11.0 L 133.0,0.0" fill="#FCFCFC"/>
	<path d="M 77.0,0.0 L 123.0,0.0 L 130.0,10.0 L 132.0,16.0 L 132.0,29.0 L 127.0,41.0 L 123.0,46.0 L 114.0,52.0 L 106.0,55.0 L 94.0,55.0 L 82.0,50.0 L 77.0,46.0 L 71.0,37.0 L 68.0,29.0 L 68.0,16.0 L 72.0,7.0 L 77.0,0.0" fill="#FBFBFB"/>
	<path d="M 60.0,96.0 L 68.0,97.0 L 71.0,101.0 L 71.0,107.0 L 68.0,111.0 L 68.0,131.0 L 72.0,140.0 L 79.0,148.0 L 88.0,153.0 L 93.0,155.0 L 105.0,155.0 L 114.0,152.0 L 123.0,146.0 L 130.0,137.0 L 132.0,132.0 L 132.0,111.0 L 129.0,107.0 L 129.0,101.0 L 134.0,96.0 L 142.0,97.0 L 145.0,100.0 L 145.0,107.0 L 142.0,111.0 L 141.0,134.0 L 137.0,143.0 L 131.0,151.0 L 124.0,157.0 L 114.0,162.0 L 105.0,164.0 L 92.0,164.0 L 79.0,159.0 L 70.0,152.0 L 64.0,145.0 L 60.0,137.0 L 59.0,134.0 L 58.0,111.0 L 55.0,107.0 L 55.0,100.0 L 60.0,96.0" fill="#050505"/>
</svg>
