<?xml version="1.0" ?>
<svg baseProfile="full" height="600px" version="1.1" viewBox="-16.08 -16.08 192.16 192.16" width="600px" xmlns="http://www.w3.org/2000/svg" xmlns:ev="http://www.w3.org/2001/xml-events" xmlns:xlink="http://www.w3.org/1999/xlink">
	<defs/>
	<path d="M 0.0,0.0 L 160.0,0.0 L 160.0,160.0 L 0.0,160.0 L 0.0,0.0" fill="#8AB5EE"/>
	<path d="M 0.0,0.0 L 160.0,0.0 L 160.0,160.0 L 0.0,160.0 L 0.0,0.0 M 15.0,4.0 L 16.0,156.0 L 144.0,156.0 L 145.0,4.0 L 15.0,4.0" fill="#FAFBFD"/>
	<path d="M 15.0,4.0 L 145.0,4.0 L 144.0,156.0 L 16.0,156.0 L 15.0,4.0 M 19.0,11.0 L 19.0,93.0 L 20.0,152.0 L 140.0,152.0 L 141.0,108.0 L 141.0,11.0 L 19.0,11.0" fill="#4F7BB6"/>
	<path d="M 53.0,28.0 L 56.0,29.0 L 57.0,49.0 L 62.0,59.0 L 70.0,65.0 L 75.0,67.0 L 84.0,67.0 L 93.0,63.0 L 99.0,58.0 L 103.0,48.0 L 104.0,29.0 L 108.0,29.0 L 108.0,49.0 L 104.0,59.0 L 98.0,66.0 L 88.0,71.0 L 85.0,72.0 L 76.0,72.0 L 67.0,69.0 L 59.0,63.0 L 54.0,55.0 L 52.0,50.0 L 52.0,29.0 L 53.0,28.0" fill="#F8FAFD"/>
	<path d="M 104.0,24.0 L 110.0,25.0 L 112.0,27.0 L 111.0,34.0 L 108.0,36.0 L 107.0,29.0 L 105.0,29.0 L 104.0,36.0 L 100.0,33.0 L 101.0,26.0 L 104.0,24.0" fill="#3C4857"/>
	<path d="M 52.0,24.0 L 58.0,25.0 L 60.0,27.0 L 59.0,34.0 L 56.0,36.0 L 55.0,29.0 L 53.0,29.0 L 52.0,36.0 L 48.0,33.0 L 49.0,26.0 L 52.0,24.0" fill="#3C4857"/>
</svg>
