<?xml version="1.0" ?>
<svg baseProfile="full" height="600px" version="1.1" viewBox="-20.1 -20.1 240.2 240.2" width="600px" xmlns="http://www.w3.org/2000/svg" xmlns:ev="http://www.w3.org/2001/xml-events" xmlns:xlink="http://www.w3.org/1999/xlink">
	<defs/>
	<path d="M 0.0,0.0 L 200.0,0.0 L 200.0,200.0 L 0.0,200.0 L 0.0,0.0" fill="#FCFCFC"/>
	<path d="M 0.0,0.0 L 200.0,0.0 L 200.0,200.0 L 186.0,200.0 L 187.0,198.0 L 187.0,187.0 L 184.0,146.0 L 182.0,118.0 L 179.0,77.0 L 177.0,69.0 L 173.0,59.0 L 173.0,51.0 L 176.0,41.0 L 176.0,36.0 L 175.0,35.0 L 25.0,35.0 L 24.0,40.0 L 28.0,54.0 L 27.0,59.0 L 22.0,71.0 L 18.0,119.0 L 16.0,149.0 L 13.0,187.0 L 13.0,198.0 L 14.0,200.0 L 0.0,200.0 L 0.0,0.0" fill="#FDFDFD"/>
	<path d="M 25.0,34.0 L 175.0,34.0 L 177.0,36.0 L 176.0,44.0 L 174.0,51.0 L 174.0,59.0 L 179.0,71.0 L 181.0,88.0 L 184.0,137.0 L 187.0,173.0 L 188.0,187.0 L 188.0,198.0 L 186.0,200.0 L 14.0,200.0 L 12.0,198.0 L 12.0,187.0 L 15.0,149.0 L 18.0,106.0 L 21.0,71.0 L 27.0,57.0 L 25.0,47.0 L 23.0,40.0 L 24.0,35.0 L 25.0,34.0 M 28.0,78.0 L 25.0,118.0 L 24.0,139.0 L 22.0,161.0 L 21.0,180.0 L 21.0,192.0 L 180.0,192.0 L 177.0,147.0 L 173.0,97.0 L 172.0,78.0 L 28.0,78.0" fill="#060606"/>
	<path d="M 33.0,42.0 L 168.0,42.0 L 165.0,53.0 L 166.0,60.0 L 169.0,70.0 L 31.0,70.0 L 34.0,60.0 L 35.0,53.0 L 33.0,47.0 L 33.0,42.0" fill="#F7F7F7"/>
	<path d="M 60.0,92.0 L 68.0,92.0 L 72.0,96.0 L 72.0,102.0 L 69.0,106.0 L 69.0,117.0 L 74.0,123.0 L 85.0,129.0 L 91.0,131.0 L 107.0,131.0 L 119.0,127.0 L 129.0,120.0 L 131.0,117.0 L 131.0,106.0 L 128.0,102.0 L 128.0,96.0 L 132.0,92.0 L 140.0,92.0 L 144.0,96.0 L 144.0,102.0 L 141.0,106.0 L 140.0,119.0 L 134.0,128.0 L 124.0,135.0 L 114.0,139.0 L 108.0,140.0 L 90.0,140.0 L 78.0,136.0 L 68.0,130.0 L 62.0,123.0 L 60.0,119.0 L 59.0,106.0 L 56.0,102.0 L 56.0,96.0 L 60.0,92.0" fill="#070707"/>
</svg>
