<?xml version="1.0" ?>
<svg baseProfile="full" height="600px" version="1.1" viewBox="-16.08 -16.08 192.16 192.16" width="600px" xmlns="http://www.w3.org/2000/svg" xmlns:ev="http://www.w3.org/2001/xml-events" xmlns:xlink="http://www.w3.org/1999/xlink">
	<defs/>
	<path d="M 0.0,0.0 L 160.0,0.0 L 160.0,160.0 L 0.0,160.0 L 0.0,0.0" fill="#FDFDFC"/>
	<path d="M 9.0,4.0 L 25.0,4.0 L 33.0,8.0 L 38.0,14.0 L 40.0,19.0 L 41.0,30.0 L 55.0,31.0 L 68.0,32.0 L 79.0,17.0 L 83.0,19.0 L 95.0,28.0 L 100.0,23.0 L 103.0,19.0 L 107.0,21.0 L 120.0,31.0 L 133.0,41.0 L 156.0,45.0 L 154.0,54.0 L 147.0,81.0 L 142.0,98.0 L 139.0,103.0 L 136.0,104.0 L 54.0,104.0 L 56.0,111.0 L 59.0,127.0 L 64.0,133.0 L 68.0,135.0 L 140.0,136.0 L 140.0,140.0 L 135.0,141.0 L 136.0,142.0 L 136.0,149.0 L 133.0,154.0 L 129.0,156.0 L 122.0,156.0 L 117.0,151.0 L 116.0,149.0 L 116.0,142.0 L 117.0,141.0 L 83.0,141.0 L 84.0,142.0 L 84.0,149.0 L 81.0,154.0 L 77.0,156.0 L 70.0,156.0 L 65.0,151.0 L 64.0,149.0 L 64.0,142.0 L 65.0,139.0 L 59.0,135.0 L 55.0,130.0 L 52.0,119.0 L 45.0,79.0 L 37.0,33.0 L 34.0,17.0 L 29.0,11.0 L 24.0,9.0 L 20.0,9.0 L 19.0,17.0 L 14.0,20.0 L 7.0,19.0 L 4.0,15.0 L 4.0,9.0 L 9.0,4.0" fill="#B8DEBB"/>
	<path d="M 9.0,4.0 L 25.0,4.0 L 33.0,8.0 L 38.0,14.0 L 40.0,19.0 L 41.0,30.0 L 55.0,31.0 L 68.0,32.0 L 79.0,17.0 L 83.0,19.0 L 95.0,28.0 L 100.0,23.0 L 103.0,19.0 L 107.0,21.0 L 120.0,31.0 L 133.0,41.0 L 156.0,45.0 L 154.0,54.0 L 147.0,81.0 L 142.0,98.0 L 139.0,103.0 L 136.0,104.0 L 54.0,104.0 L 56.0,111.0 L 59.0,127.0 L 64.0,133.0 L 68.0,135.0 L 140.0,136.0 L 140.0,140.0 L 135.0,141.0 L 136.0,142.0 L 136.0,149.0 L 133.0,154.0 L 129.0,156.0 L 122.0,156.0 L 117.0,151.0 L 116.0,149.0 L 116.0,142.0 L 117.0,141.0 L 83.0,141.0 L 84.0,142.0 L 84.0,149.0 L 81.0,154.0 L 77.0,156.0 L 70.0,156.0 L 65.0,151.0 L 64.0,149.0 L 64.0,142.0 L 65.0,139.0 L 59.0,135.0 L 55.0,130.0 L 52.0,119.0 L 45.0,79.0 L 37.0,33.0 L 34.0,17.0 L 29.0,11.0 L 24.0,9.0 L 20.0,9.0 L 19.0,17.0 L 14.0,20.0 L 7.0,19.0 L 4.0,15.0 L 4.0,9.0 L 9.0,4.0 M 42.0,34.0 L 48.0,70.0 L 53.0,100.0 L 135.0,100.0 L 138.0,97.0 L 146.0,69.0 L 150.0,53.0 L 150.0,48.0 L 101.0,41.0 L 69.0,37.0 L 46.0,34.0 L 42.0,34.0" fill="#639F7A"/>
	<path d="M 9.0,4.0 L 25.0,4.0 L 33.0,8.0 L 38.0,14.0 L 40.0,19.0 L 46.0,53.0 L 53.0,93.0 L 58.0,124.0 L 61.0,130.0 L 66.0,134.0 L 68.0,135.0 L 140.0,136.0 L 140.0,140.0 L 135.0,141.0 L 136.0,142.0 L 136.0,149.0 L 133.0,154.0 L 129.0,156.0 L 122.0,156.0 L 117.0,151.0 L 116.0,149.0 L 116.0,142.0 L 117.0,141.0 L 83.0,141.0 L 84.0,142.0 L 84.0,149.0 L 81.0,154.0 L 77.0,156.0 L 70.0,156.0 L 65.0,151.0 L 64.0,149.0 L 64.0,142.0 L 65.0,139.0 L 59.0,135.0 L 55.0,130.0 L 52.0,119.0 L 45.0,79.0 L 37.0,33.0 L 34.0,17.0 L 29.0,11.0 L 24.0,9.0 L 20.0,9.0 L 19.0,17.0 L 14.0,20.0 L 7.0,19.0 L 4.0,15.0 L 4.0,9.0 L 9.0,4.0" fill="#6C7F93"/>
	<path d="M 79.0,17.0 L 83.0,19.0 L 95.0,28.0 L 100.0,23.0 L 103.0,19.0 L 107.0,21.0 L 120.0,31.0 L 133.0,41.0 L 133.0,42.0 L 125.0,41.0 L 111.0,30.0 L 106.0,26.0 L 102.0,28.0 L 100.0,32.0 L 108.0,38.0 L 106.0,39.0 L 99.0,37.0 L 87.0,28.0 L 82.0,24.0 L 79.0,25.0 L 73.0,33.0 L 68.0,33.0 L 72.0,26.0 L 79.0,17.0" fill="#9B814C"/>
	<path d="M 9.0,4.0 L 15.0,4.0 L 20.0,9.0 L 19.0,17.0 L 14.0,20.0 L 7.0,19.0 L 4.0,15.0 L 4.0,9.0 L 9.0,4.0" fill="#65A07B"/>
	<path d="M 104.0,25.0 L 108.0,27.0 L 125.0,40.0 L 121.0,41.0 L 108.0,39.0 L 99.0,32.0 L 102.0,27.0 L 104.0,25.0" fill="#EDC982"/>
	<path d="M 80.0,23.0 L 84.0,25.0 L 97.0,35.0 L 98.0,37.0 L 84.0,36.0 L 72.0,34.0 L 78.0,25.0 L 80.0,23.0" fill="#ECC982"/>
	<path d="M 120.0,56.0 L 124.0,56.0 L 124.0,88.0 L 120.0,88.0 L 120.0,56.0" fill="#5F9C76"/>
	<path d="M 104.0,56.0 L 108.0,56.0 L 108.0,88.0 L 104.0,88.0 L 104.0,56.0" fill="#5F9C76"/>
	<path d="M 88.0,56.0 L 92.0,56.0 L 92.0,88.0 L 88.0,88.0 L 88.0,56.0" fill="#5F9C76"/>
	<path d="M 72.0,56.0 L 76.0,56.0 L 76.0,88.0 L 72.0,88.0 L 72.0,56.0" fill="#5F9C76"/>
	<path d="M 124.0,140.0 L 130.0,141.0 L 132.0,144.0 L 131.0,150.0 L 128.0,152.0 L 122.0,151.0 L 120.0,148.0 L 121.0,142.0 L 124.0,140.0" fill="#ACBDD0"/>
	<path d="M 72.0,140.0 L 78.0,141.0 L 80.0,144.0 L 79.0,150.0 L 76.0,152.0 L 70.0,151.0 L 68.0,148.0 L 69.0,142.0 L 72.0,140.0" fill="#ACBDD0"/>
	<path d="M 10.0,8.0 L 15.0,9.0 L 16.0,14.0 L 14.0,16.0 L 9.0,15.0 L 8.0,10.0 L 10.0,8.0" fill="#B1D9B6"/>
</svg>
