<?xml version="1.0" ?>
<svg baseProfile="full" height="600px" version="1.1" viewBox="-16.08 -16.08 192.16 192.16" width="600px" xmlns="http://www.w3.org/2000/svg" xmlns:ev="http://www.w3.org/2001/xml-events" xmlns:xlink="http://www.w3.org/1999/xlink">
	<defs/>
	<path d="M 0.0,0.0 L 160.0,0.0 L 160.0,160.0 L 0.0,160.0 L 0.0,0.0" fill="#8AB5EE"/>
	<path d="M 0.0,0.0 L 160.0,0.0 L 160.0,160.0 L 0.0,160.0 L 0.0,0.0 M 14.0,40.0 L 15.0,71.0 L 19.0,141.0 L 20.0,152.0 L 140.0,152.0 L 141.0,144.0 L 145.0,66.0 L 146.0,53.0 L 146.0,40.0 L 14.0,40.0" fill="#507CB6"/>
	<path d="M 0.0,0.0 L 160.0,0.0 L 160.0,160.0 L 0.0,160.0 L 0.0,0.0 M 12.0,4.0 L 17.0,20.0 L 16.0,25.0 L 10.0,35.0 L 10.0,49.0 L 13.0,102.0 L 15.0,148.0 L 16.0,156.0 L 144.0,156.0 L 145.0,149.0 L 150.0,50.0 L 150.0,35.0 L 143.0,23.0 L 145.0,14.0 L 148.0,4.0 L 12.0,4.0" fill="#FCFCFD"/>
	<path d="M 52.0,66.0 L 56.0,66.0 L 57.0,83.0 L 62.0,93.0 L 71.0,99.0 L 73.0,100.0 L 87.0,100.0 L 97.0,94.0 L 101.0,88.0 L 103.0,82.0 L 104.0,66.0 L 108.0,66.0 L 108.0,83.0 L 104.0,93.0 L 100.0,98.0 L 90.0,104.0 L 88.0,105.0 L 72.0,105.0 L 64.0,101.0 L 59.0,97.0 L 54.0,89.0 L 52.0,82.0 L 52.0,66.0" fill="#F8FAFD"/>
	<path d="M 103.0,62.0 L 109.0,62.0 L 112.0,65.0 L 112.0,70.0 L 108.0,73.0 L 108.0,66.0 L 104.0,66.0 L 104.0,73.0 L 100.0,70.0 L 101.0,63.0 L 103.0,62.0" fill="#3B4654"/>
	<path d="M 51.0,62.0 L 57.0,62.0 L 60.0,65.0 L 60.0,70.0 L 56.0,73.0 L 56.0,66.0 L 52.0,66.0 L 52.0,73.0 L 48.0,70.0 L 49.0,63.0 L 51.0,62.0" fill="#3B4654"/>
</svg>
