<?xml version="1.0" ?>
<svg baseProfile="full" height="600px" version="1.1" viewBox="-16.08 -16.08 192.16 192.16" width="600px" xmlns="http://www.w3.org/2000/svg" xmlns:ev="http://www.w3.org/2001/xml-events" xmlns:xlink="http://www.w3.org/1999/xlink">
	<defs/>
	<path d="M 0.0,0.0 L 160.0,0.0 L 160.0,160.0 L 0.0,160.0 L 0.0,0.0" fill="#8AB6EE"/>
	<path d="M 0.0,0.0 L 160.0,0.0 L 160.0,160.0 L 0.0,160.0 L 0.0,0.0 M 6.0,52.0 L 10.0,104.0 L 14.0,152.0 L 146.0,152.0 L 149.0,116.0 L 153.0,68.0 L 154.0,52.0 L 6.0,52.0" fill="#507BB6"/>
	<path d="M 0.0,0.0 L 160.0,0.0 L 160.0,160.0 L 0.0,160.0 L 0.0,0.0 M 5.0,4.0 L 8.0,15.0 L 12.0,25.0 L 11.0,31.0 L 1.0,47.0 L 3.0,72.0 L 10.0,156.0 L 150.0,156.0 L 155.0,95.0 L 158.0,60.0 L 159.0,47.0 L 148.0,29.0 L 149.0,23.0 L 155.0,7.0 L 155.0,4.0 L 5.0,4.0" fill="#FAFBFC"/>
	<path d="M 44.0,80.0 L 47.0,80.0 L 49.0,95.0 L 53.0,103.0 L 59.0,108.0 L 67.0,112.0 L 72.0,113.0 L 89.0,113.0 L 101.0,108.0 L 107.0,103.0 L 111.0,96.0 L 112.0,81.0 L 116.0,80.0 L 116.0,97.0 L 111.0,106.0 L 104.0,112.0 L 94.0,117.0 L 91.0,118.0 L 69.0,118.0 L 57.0,113.0 L 49.0,106.0 L 44.0,96.0 L 44.0,80.0" fill="#F5F8FC"/>
	<path d="M 75.0,40.0 L 84.0,40.0 L 94.0,44.0 L 97.0,48.0 L 63.0,48.0 L 68.0,43.0 L 75.0,40.0" fill="#ECC883"/>
	<path d="M 74.0,36.0 L 85.0,36.0 L 95.0,40.0 L 103.0,47.0 L 103.0,48.0 L 97.0,48.0 L 92.0,44.0 L 84.0,41.0 L 75.0,41.0 L 65.0,46.0 L 63.0,48.0 L 57.0,48.0 L 62.0,42.0 L 74.0,36.0" fill="#947B4B"/>
	<path d="M 111.0,76.0 L 118.0,77.0 L 120.0,79.0 L 119.0,86.0 L 116.0,87.0 L 116.0,80.0 L 113.0,81.0 L 112.0,88.0 L 108.0,85.0 L 108.0,79.0 L 111.0,76.0" fill="#3F4A5A"/>
	<path d="M 44.0,76.0 L 49.0,76.0 L 52.0,79.0 L 51.0,86.0 L 48.0,87.0 L 47.0,81.0 L 44.0,80.0 L 44.0,87.0 L 41.0,86.0 L 40.0,80.0 L 44.0,76.0" fill="#3D4957"/>
</svg>
