<?xml version="1.0" ?>
<svg baseProfile="full" height="600px" version="1.1" viewBox="-12.864 -12.864 153.728 153.728" width="600px" xmlns="http://www.w3.org/2000/svg" xmlns:ev="http://www.w3.org/2001/xml-events" xmlns:xlink="http://www.w3.org/1999/xlink">
	<defs/>
	<path d="M 0.0,0.0 L 128.0,0.0 L 128.0,128.0 L 0.0,128.0 L 0.0,0.0" fill="#FCFCFC"/>
	<path d="M 18.0,28.0 L 31.0,28.0 L 36.0,31.0 L 40.0,45.0 L 47.0,74.0 L 47.0,76.0 L 93.0,76.0 L 95.0,66.0 L 100.0,48.0 L 46.0,48.0 L 44.0,43.0 L 44.0,40.0 L 51.0,40.0 L 52.0,35.0 L 53.0,33.0 L 59.0,34.0 L 71.0,39.0 L 73.0,32.0 L 78.0,33.0 L 93.0,39.0 L 111.0,40.0 L 109.0,49.0 L 102.0,76.0 L 99.0,82.0 L 94.0,85.0 L 99.0,90.0 L 100.0,92.0 L 100.0,99.0 L 97.0,105.0 L 91.0,108.0 L 84.0,108.0 L 77.0,102.0 L 76.0,99.0 L 76.0,92.0 L 79.0,87.0 L 82.0,85.0 L 58.0,85.0 L 63.0,90.0 L 64.0,92.0 L 64.0,99.0 L 61.0,105.0 L 55.0,108.0 L 48.0,108.0 L 41.0,102.0 L 40.0,99.0 L 40.0,92.0 L 43.0,87.0 L 46.0,85.0 L 40.0,81.0 L 29.0,38.0 L 29.0,36.0 L 18.0,36.0 L 16.0,34.0 L 17.0,29.0 L 18.0,28.0" fill="#050505"/>
	<path d="M 86.0,92.0 L 91.0,93.0 L 92.0,98.0 L 90.0,100.0 L 85.0,99.0 L 84.0,94.0 L 86.0,92.0" fill="#EAEAEA"/>
	<path d="M 50.0,92.0 L 55.0,93.0 L 56.0,98.0 L 54.0,100.0 L 49.0,99.0 L 48.0,94.0 L 50.0,92.0" fill="#EAEAEA"/>
</svg>
