<?xml version="1.0" ?>
<svg baseProfile="full" height="600px" version="1.1" viewBox="-20.1 -20.1 240.2 240.2" width="600px" xmlns="http://www.w3.org/2000/svg" xmlns:ev="http://www.w3.org/2001/xml-events" xmlns:xlink="http://www.w3.org/1999/xlink">
	<defs/>
	<path d="M 0.0,0.0 L 200.0,0.0 L 200.0,200.0 L 0.0,200.0 L 0.0,0.0" fill="#040404"/>
	<path d="M 0.0,0.0 L 200.0,0.0 L 200.0,200.0 L 161.0,200.0 L 166.0,196.0 L 170.0,191.0 L 171.0,188.0 L 171.0,179.0 L 168.0,174.0 L 166.0,169.0 L 97.0,168.0 L 91.0,163.0 L 88.0,154.0 L 86.0,144.0 L 161.0,143.0 L 164.0,142.0 L 165.0,136.0 L 184.0,85.0 L 191.0,66.0 L 190.0,61.0 L 170.0,60.0 L 152.0,48.0 L 134.0,36.0 L 130.0,36.0 L 125.0,43.0 L 120.0,41.0 L 114.0,37.0 L 109.0,38.0 L 101.0,50.0 L 94.0,60.0 L 65.0,60.0 L 60.0,42.0 L 55.0,21.0 L 51.0,15.0 L 51.0,13.0 L 47.0,11.0 L 42.0,9.0 L 5.0,9.0 L 0.0,13.0 L 0.0,0.0" fill="#FDFDFD"/>
	<path d="M 16.0,16.0 L 40.0,16.0 L 46.0,20.0 L 49.0,26.0 L 83.0,162.0 L 87.0,170.0 L 91.0,173.0 L 89.0,179.0 L 89.0,189.0 L 93.0,195.0 L 99.0,199.0 L 99.0,200.0 L 0.0,200.0 L 0.0,19.0 L 5.0,23.0 L 13.0,22.0 L 16.0,16.0" fill="#FDFDFD"/>
	<path d="M 67.0,68.0 L 182.0,68.0 L 179.0,78.0 L 158.0,135.0 L 157.0,136.0 L 84.0,136.0 L 77.0,110.0 L 67.0,69.0 L 67.0,68.0" fill="#FCFCFC"/>
	<path d="M 118.0,176.0 L 142.0,176.0 L 141.0,179.0 L 141.0,189.0 L 145.0,195.0 L 151.0,199.0 L 151.0,200.0 L 109.0,200.0 L 114.0,196.0 L 118.0,191.0 L 119.0,188.0 L 119.0,179.0 L 118.0,176.0" fill="#FCFCFC"/>
	<path d="M 112.0,46.0 L 117.0,48.0 L 134.0,59.0 L 134.0,60.0 L 104.0,60.0 L 109.0,51.0 L 112.0,46.0" fill="#F6F6F6"/>
	<path d="M 153.0,176.0 L 159.0,176.0 L 164.0,181.0 L 164.0,187.0 L 159.0,192.0 L 153.0,192.0 L 148.0,187.0 L 148.0,181.0 L 153.0,176.0" fill="#EFEFEF"/>
	<path d="M 101.0,176.0 L 107.0,176.0 L 112.0,181.0 L 112.0,187.0 L 107.0,192.0 L 101.0,192.0 L 96.0,187.0 L 96.0,181.0 L 101.0,176.0" fill="#EFEFEF"/>
	<path d="M 133.0,45.0 L 138.0,47.0 L 155.0,59.0 L 155.0,60.0 L 148.0,60.0 L 132.0,49.0 L 133.0,45.0" fill="#EEEEEE"/>
</svg>
