<?xml version="1.0" ?>
<svg baseProfile="full" height="600px" version="1.1" viewBox="-20.1 -20.1 240.2 240.2" width="600px" xmlns="http://www.w3.org/2000/svg" xmlns:ev="http://www.w3.org/2001/xml-events" xmlns:xlink="http://www.w3.org/1999/xlink">
	<defs/>
	<path d="M 0.0,0.0 L 200.0,0.0 L 200.0,200.0 L 0.0,200.0 L 0.0,0.0" fill="#FDFDFD"/>
	<path d="M 153.0,8.0 L 165.0,8.0 L 175.0,11.0 L 184.0,18.0 L 190.0,27.0 L 192.0,33.0 L 192.0,46.0 L 188.0,56.0 L 182.0,64.0 L 175.0,69.0 L 171.0,71.0 L 148.0,125.0 L 124.0,181.0 L 119.0,191.0 L 117.0,192.0 L 106.0,192.0 L 99.0,188.0 L 89.0,186.0 L 79.0,181.0 L 72.0,175.0 L 68.0,169.0 L 54.0,165.0 L 46.0,160.0 L 39.0,152.0 L 35.0,142.0 L 35.0,137.0 L 30.0,136.0 L 22.0,130.0 L 17.0,124.0 L 15.0,118.0 L 14.0,103.0 L 9.0,95.0 L 8.0,93.0 L 8.0,83.0 L 12.0,79.0 L 43.0,66.0 L 84.0,48.0 L 112.0,36.0 L 128.0,29.0 L 130.0,29.0 L 132.0,24.0 L 138.0,16.0 L 147.0,10.0 L 153.0,8.0" fill="#070707"/>
	<path d="M 102.0,84.0 L 109.0,90.0 L 116.0,97.0 L 114.0,101.0 L 104.0,115.0 L 90.0,134.0 L 76.0,153.0 L 71.0,160.0 L 64.0,160.0 L 54.0,156.0 L 48.0,151.0 L 44.0,143.0 L 43.0,134.0 L 58.0,121.0 L 71.0,110.0 L 84.0,99.0 L 97.0,88.0 L 102.0,84.0" fill="#FAFAFA"/>
	<path d="M 85.0,68.0 L 89.0,70.0 L 96.0,77.0 L 94.0,81.0 L 79.0,94.0 L 66.0,105.0 L 52.0,117.0 L 41.0,126.0 L 38.0,129.0 L 32.0,128.0 L 25.0,122.0 L 23.0,117.0 L 23.0,103.0 L 48.0,89.0 L 69.0,77.0 L 85.0,68.0" fill="#FAFAFA"/>
	<path d="M 121.0,104.0 L 125.0,106.0 L 133.0,114.0 L 131.0,120.0 L 102.0,178.0 L 101.0,179.0 L 93.0,179.0 L 83.0,174.0 L 76.0,167.0 L 78.0,163.0 L 88.0,149.0 L 102.0,130.0 L 114.0,114.0 L 121.0,104.0" fill="#FAFAFA"/>
	<path d="M 154.0,16.0 L 165.0,16.0 L 175.0,21.0 L 182.0,29.0 L 184.0,34.0 L 184.0,45.0 L 180.0,54.0 L 171.0,62.0 L 167.0,60.0 L 138.0,31.0 L 140.0,26.0 L 149.0,18.0 L 154.0,16.0" fill="#FBFBFB"/>
	<path d="M 77.0,60.0 L 80.0,61.0 L 77.0,64.0 L 52.0,78.0 L 28.0,92.0 L 21.0,96.0 L 18.0,95.0 L 16.0,91.0 L 17.0,86.0 L 70.0,63.0 L 77.0,60.0" fill="#F2F2F2"/>
	<path d="M 123.0,66.0 L 127.0,68.0 L 133.0,74.0 L 131.0,78.0 L 122.0,91.0 L 118.0,89.0 L 109.0,80.0 L 111.0,76.0 L 122.0,67.0 L 123.0,66.0" fill="#F5F5F5"/>
	<path d="M 138.0,81.0 L 142.0,83.0 L 146.0,87.0 L 145.0,92.0 L 137.0,107.0 L 130.0,101.0 L 127.0,98.0 L 129.0,93.0 L 138.0,81.0" fill="#F5F5F5"/>
	<path d="M 138.0,121.0 L 140.0,121.0 L 137.0,130.0 L 119.0,172.0 L 114.0,184.0 L 108.0,184.0 L 109.0,180.0 L 118.0,161.0 L 127.0,144.0 L 138.0,121.0" fill="#EEEEEE"/>
	<path d="M 109.0,54.0 L 114.0,55.0 L 118.0,59.0 L 118.0,61.0 L 107.0,70.0 L 104.0,73.0 L 100.0,71.0 L 94.0,65.0 L 95.0,62.0 L 109.0,54.0" fill="#F4F4F4"/>
	<path d="M 143.0,49.0 L 147.0,51.0 L 149.0,54.0 L 139.0,68.0 L 135.0,66.0 L 130.0,60.0 L 143.0,49.0" fill="#F3F3F3"/>
	<path d="M 154.0,60.0 L 158.0,62.0 L 159.0,64.0 L 151.0,80.0 L 147.0,78.0 L 144.0,75.0 L 146.0,70.0 L 154.0,60.0" fill="#F3F3F3"/>
	<path d="M 133.0,40.0 L 137.0,41.0 L 138.0,44.0 L 127.0,53.0 L 123.0,54.0 L 119.0,50.0 L 119.0,48.0 L 133.0,40.0" fill="#F1F1F1"/>
	<path d="M 138.0,121.0 L 140.0,121.0 L 137.0,130.0 L 130.0,146.0 L 126.0,147.0 L 128.0,141.0 L 136.0,125.0 L 138.0,121.0" fill="#E5E5E5"/>
	<path d="M 138.0,121.0 L 140.0,121.0 L 137.0,130.0 L 135.0,135.0 L 132.0,135.0 L 134.0,129.0 L 138.0,121.0" fill="#D3D3D3"/>
	<path d="M 77.0,60.0 L 80.0,61.0 L 77.0,64.0 L 72.0,66.0 L 73.0,62.0 L 77.0,60.0" fill="#E4E4E4"/>
</svg>
