<?xml version="1.0" ?>
<svg baseProfile="full" height="600px" version="1.1" viewBox="-20.1 -20.1 240.2 240.2" width="600px" xmlns="http://www.w3.org/2000/svg" xmlns:ev="http://www.w3.org/2001/xml-events" xmlns:xlink="http://www.w3.org/1999/xlink">
	<defs/>
	<path d="M 0.0,0.0 L 200.0,0.0 L 200.0,200.0 L 0.0,200.0 L 0.0,0.0" fill="#FDFDFD"/>
	<path d="M 125.0,13.0 L 134.0,14.0 L 150.0,22.0 L 160.0,30.0 L 168.0,37.0 L 178.0,50.0 L 186.0,66.0 L 191.0,82.0 L 192.0,91.0 L 192.0,110.0 L 189.0,125.0 L 183.0,141.0 L 175.0,154.0 L 167.0,163.0 L 162.0,162.0 L 161.0,157.0 L 170.0,146.0 L 178.0,130.0 L 182.0,116.0 L 183.0,109.0 L 183.0,90.0 L 180.0,76.0 L 174.0,61.0 L 167.0,50.0 L 156.0,38.0 L 144.0,29.0 L 132.0,23.0 L 124.0,19.0 L 124.0,14.0 L 125.0,13.0" fill="#080808"/>
	<path d="M 98.0,8.0 L 103.0,9.0 L 104.0,10.0 L 104.0,102.0 L 102.0,104.0 L 97.0,103.0 L 96.0,102.0 L 96.0,10.0 L 98.0,8.0" fill="#010101"/>
</svg>
