<?xml version="1.0" ?>
<svg baseProfile="full" height="600px" version="1.1" viewBox="-20.1 -20.1 240.2 240.2" width="600px" xmlns="http://www.w3.org/2000/svg" xmlns:ev="http://www.w3.org/2001/xml-events" xmlns:xlink="http://www.w3.org/1999/xlink">
	<defs/>
	<path d="M 0.0,0.0 L 200.0,0.0 L 200.0,200.0 L 0.0,200.0 L 0.0,0.0" fill="#FDFDFD"/>
	<path d="M 153.0,8.0 L 165.0,8.0 L 175.0,11.0 L 184.0,18.0 L 190.0,27.0 L 192.0,33.0 L 192.0,46.0 L 188.0,56.0 L 182.0,64.0 L 175.0,69.0 L 172.0,70.0 L 153.0,113.0 L 130.0,167.0 L 121.0,188.0 L 118.0,191.0 L 110.0,191.0 L 97.0,188.0 L 89.0,182.0 L 87.0,178.0 L 77.0,178.0 L 63.0,171.0 L 54.0,162.0 L 49.0,153.0 L 49.0,150.0 L 40.0,147.0 L 31.0,141.0 L 25.0,134.0 L 21.0,124.0 L 19.0,112.0 L 14.0,107.0 L 9.0,97.0 L 9.0,82.0 L 12.0,79.0 L 43.0,66.0 L 84.0,48.0 L 112.0,36.0 L 128.0,29.0 L 130.0,29.0 L 132.0,24.0 L 138.0,16.0 L 147.0,10.0 L 153.0,8.0" fill="#070707"/>
	<path d="M 91.0,74.0 L 95.0,76.0 L 105.0,86.0 L 103.0,90.0 L 51.0,142.0 L 42.0,139.0 L 34.0,133.0 L 29.0,123.0 L 29.0,112.0 L 38.0,106.0 L 60.0,93.0 L 90.0,75.0 L 91.0,74.0" fill="#FBFBFB"/>
	<path d="M 111.0,93.0 L 118.0,99.0 L 124.0,105.0 L 123.0,110.0 L 111.0,130.0 L 97.0,152.0 L 86.0,170.0 L 78.0,170.0 L 68.0,164.0 L 60.0,156.0 L 56.0,149.0 L 58.0,145.0 L 83.0,120.0 L 91.0,113.0 L 111.0,93.0" fill="#FAFAFA"/>
	<path d="M 154.0,16.0 L 165.0,16.0 L 175.0,21.0 L 182.0,29.0 L 184.0,34.0 L 184.0,45.0 L 180.0,54.0 L 171.0,62.0 L 167.0,60.0 L 138.0,31.0 L 140.0,26.0 L 149.0,18.0 L 154.0,16.0" fill="#FBFBFB"/>
	<path d="M 130.0,113.0 L 134.0,115.0 L 140.0,121.0 L 138.0,127.0 L 118.0,173.0 L 113.0,183.0 L 104.0,182.0 L 96.0,178.0 L 93.0,174.0 L 95.0,169.0 L 108.0,148.0 L 123.0,124.0 L 130.0,113.0" fill="#F9F9F9"/>
	<path d="M 77.0,60.0 L 81.0,62.0 L 86.0,67.0 L 86.0,69.0 L 64.0,82.0 L 32.0,101.0 L 26.0,105.0 L 22.0,104.0 L 17.0,96.0 L 17.0,86.0 L 70.0,63.0 L 77.0,60.0" fill="#F8F8F8"/>
	<path d="M 131.0,73.0 L 138.0,79.0 L 140.0,83.0 L 130.0,99.0 L 126.0,97.0 L 117.0,88.0 L 123.0,81.0 L 131.0,73.0" fill="#F6F6F6"/>
	<path d="M 116.0,59.0 L 120.0,61.0 L 125.0,66.0 L 123.0,70.0 L 112.0,81.0 L 108.0,79.0 L 100.0,71.0 L 100.0,69.0 L 116.0,59.0" fill="#F6F6F6"/>
	<path d="M 146.0,88.0 L 152.0,93.0 L 149.0,102.0 L 144.0,113.0 L 140.0,111.0 L 135.0,105.0 L 145.0,89.0 L 146.0,88.0" fill="#F4F4F4"/>
	<path d="M 105.0,48.0 L 109.0,50.0 L 111.0,54.0 L 94.0,64.0 L 87.0,58.0 L 87.0,56.0 L 105.0,48.0" fill="#F1F1F1"/>
	<path d="M 149.0,55.0 L 153.0,57.0 L 154.0,61.0 L 145.0,75.0 L 138.0,69.0 L 138.0,66.0 L 149.0,55.0" fill="#F4F4F4"/>
	<path d="M 139.0,45.0 L 143.0,47.0 L 143.0,51.0 L 132.0,61.0 L 128.0,59.0 L 125.0,56.0 L 126.0,53.0 L 139.0,45.0" fill="#F2F2F2"/>
	<path d="M 160.0,65.0 L 163.0,67.0 L 162.0,72.0 L 156.0,85.0 L 152.0,83.0 L 151.0,79.0 L 160.0,65.0" fill="#F0F0F0"/>
	<path d="M 130.0,37.0 L 134.0,38.0 L 134.0,40.0 L 119.0,49.0 L 115.0,46.0 L 116.0,43.0 L 130.0,37.0" fill="#EDEDED"/>
</svg>
