<?xml version="1.0" ?>
<svg baseProfile="full" height="600px" version="1.1" viewBox="-20.1 -20.1 240.2 240.2" width="600px" xmlns="http://www.w3.org/2000/svg" xmlns:ev="http://www.w3.org/2001/xml-events" xmlns:xlink="http://www.w3.org/1999/xlink">
	<defs/>
	<path d="M 0.0,0.0 L 200.0,0.0 L 200.0,200.0 L 0.0,200.0 L 0.0,0.0" fill="#FDFDFD"/>
	<path d="M 153.0,8.0 L 165.0,8.0 L 175.0,11.0 L 184.0,18.0 L 190.0,27.0 L 192.0,33.0 L 192.0,46.0 L 188.0,56.0 L 182.0,64.0 L 175.0,69.0 L 171.0,71.0 L 148.0,125.0 L 135.0,155.0 L 120.0,190.0 L 115.0,193.0 L 106.0,192.0 L 100.0,189.0 L 89.0,188.0 L 79.0,184.0 L 69.0,175.0 L 65.0,169.0 L 54.0,165.0 L 46.0,160.0 L 38.0,152.0 L 32.0,140.0 L 31.0,134.0 L 27.0,132.0 L 21.0,127.0 L 15.0,118.0 L 12.0,109.0 L 11.0,100.0 L 8.0,93.0 L 8.0,82.0 L 14.0,78.0 L 68.0,55.0 L 121.0,32.0 L 130.0,29.0 L 132.0,24.0 L 138.0,16.0 L 147.0,10.0 L 153.0,8.0" fill="#060606"/>
	<path d="M 101.0,84.0 L 105.0,86.0 L 116.0,97.0 L 114.0,101.0 L 101.0,117.0 L 90.0,131.0 L 77.0,147.0 L 67.0,160.0 L 60.0,159.0 L 50.0,153.0 L 44.0,146.0 L 40.0,138.0 L 39.0,131.0 L 59.0,116.0 L 77.0,102.0 L 96.0,88.0 L 101.0,84.0" fill="#FAFAFA"/>
	<path d="M 121.0,104.0 L 125.0,106.0 L 134.0,115.0 L 133.0,120.0 L 123.0,139.0 L 111.0,162.0 L 101.0,180.0 L 90.0,180.0 L 80.0,175.0 L 73.0,167.0 L 74.0,163.0 L 87.0,147.0 L 98.0,133.0 L 111.0,117.0 L 121.0,104.0" fill="#FAFAFA"/>
	<path d="M 83.0,67.0 L 87.0,68.0 L 96.0,77.0 L 96.0,79.0 L 80.0,91.0 L 59.0,107.0 L 43.0,119.0 L 34.0,126.0 L 30.0,124.0 L 24.0,117.0 L 21.0,111.0 L 20.0,101.0 L 45.0,87.0 L 71.0,73.0 L 83.0,67.0" fill="#FAFAFA"/>
	<path d="M 154.0,16.0 L 165.0,16.0 L 175.0,21.0 L 182.0,29.0 L 184.0,34.0 L 184.0,45.0 L 180.0,54.0 L 171.0,62.0 L 167.0,60.0 L 138.0,31.0 L 140.0,26.0 L 149.0,18.0 L 154.0,16.0" fill="#FBFBFB"/>
	<path d="M 123.0,67.0 L 127.0,68.0 L 134.0,75.0 L 130.0,81.0 L 122.0,91.0 L 118.0,89.0 L 109.0,80.0 L 110.0,77.0 L 122.0,68.0 L 123.0,67.0" fill="#F5F5F5"/>
	<path d="M 139.0,82.0 L 143.0,84.0 L 148.0,89.0 L 146.0,95.0 L 139.0,108.0 L 135.0,106.0 L 127.0,98.0 L 129.0,94.0 L 139.0,82.0" fill="#F4F4F4"/>
	<path d="M 110.0,53.0 L 114.0,55.0 L 119.0,61.0 L 104.0,73.0 L 100.0,71.0 L 93.0,64.0 L 94.0,61.0 L 110.0,53.0" fill="#F2F2F2"/>
	<path d="M 76.0,60.0 L 79.0,61.0 L 57.0,72.0 L 34.0,85.0 L 18.0,94.0 L 16.0,92.0 L 16.0,86.0 L 51.0,71.0 L 76.0,60.0" fill="#E8E8E8"/>
	<path d="M 145.0,50.0 L 150.0,54.0 L 148.0,59.0 L 140.0,69.0 L 136.0,67.0 L 131.0,61.0 L 142.0,52.0 L 145.0,50.0" fill="#F3F3F3"/>
	<path d="M 132.0,137.0 L 133.0,140.0 L 121.0,167.0 L 114.0,184.0 L 108.0,184.0 L 110.0,179.0 L 125.0,150.0 L 132.0,137.0" fill="#EDEDED"/>
	<path d="M 156.0,61.0 L 160.0,64.0 L 159.0,69.0 L 152.0,82.0 L 145.0,76.0 L 147.0,72.0 L 155.0,62.0 L 156.0,61.0" fill="#F6F6F6"/>
	<path d="M 135.0,41.0 L 139.0,43.0 L 137.0,47.0 L 127.0,55.0 L 123.0,54.0 L 119.0,49.0 L 135.0,41.0" fill="#F3F3F3"/>
	<path d="M 132.0,137.0 L 133.0,140.0 L 127.0,154.0 L 124.0,154.0 L 126.0,149.0 L 132.0,137.0" fill="#D3D3D3"/>
	<path d="M 125.0,153.0 L 126.0,156.0 L 123.0,163.0 L 120.0,162.0 L 122.0,156.0 L 125.0,153.0" fill="#E4E4E4"/>
	<path d="M 63.0,66.0 L 66.0,67.0 L 58.0,71.0 L 58.0,68.0 L 63.0,66.0" fill="#E2E2E2"/>
</svg>
