<?xml version="1.0" ?>
<svg baseProfile="full" height="600px" version="1.1" viewBox="-20.1 -20.1 240.2 240.2" width="600px" xmlns="http://www.w3.org/2000/svg" xmlns:ev="http://www.w3.org/2001/xml-events" xmlns:xlink="http://www.w3.org/1999/xlink">
	<defs/>
	<path d="M 0.0,0.0 L 200.0,0.0 L 200.0,200.0 L 0.0,200.0 L 0.0,0.0" fill="#FDFDFD"/>
	<path d="M 153.0,8.0 L 165.0,8.0 L 175.0,11.0 L 184.0,18.0 L 190.0,27.0 L 192.0,33.0 L 192.0,46.0 L 188.0,56.0 L 182.0,64.0 L 175.0,69.0 L 171.0,71.0 L 148.0,125.0 L 135.0,155.0 L 120.0,190.0 L 118.0,192.0 L 109.0,192.0 L 99.0,190.0 L 88.0,186.0 L 78.0,178.0 L 76.0,175.0 L 63.0,171.0 L 53.0,164.0 L 46.0,156.0 L 39.0,143.0 L 28.0,135.0 L 21.0,127.0 L 17.0,117.0 L 15.0,106.0 L 10.0,98.0 L 8.0,92.0 L 8.0,83.0 L 12.0,79.0 L 68.0,55.0 L 121.0,32.0 L 130.0,29.0 L 132.0,24.0 L 138.0,16.0 L 147.0,10.0 L 153.0,8.0" fill="#060606"/>
	<path d="M 106.0,89.0 L 110.0,91.0 L 120.0,101.0 L 119.0,106.0 L 106.0,124.0 L 90.0,147.0 L 78.0,164.0 L 77.0,166.0 L 69.0,165.0 L 60.0,159.0 L 53.0,152.0 L 48.0,143.0 L 49.0,139.0 L 62.0,128.0 L 76.0,116.0 L 88.0,105.0 L 96.0,98.0 L 106.0,89.0" fill="#FBFBFB"/>
	<path d="M 88.0,71.0 L 92.0,73.0 L 101.0,82.0 L 99.0,86.0 L 89.0,95.0 L 81.0,102.0 L 71.0,111.0 L 60.0,120.0 L 49.0,130.0 L 44.0,134.0 L 38.0,133.0 L 32.0,128.0 L 26.0,119.0 L 24.0,114.0 L 24.0,108.0 L 37.0,100.0 L 58.0,88.0 L 86.0,72.0 L 88.0,71.0" fill="#FAFAFA"/>
	<path d="M 126.0,109.0 L 130.0,111.0 L 137.0,118.0 L 136.0,123.0 L 113.0,170.0 L 107.0,182.0 L 100.0,182.0 L 91.0,178.0 L 83.0,171.0 L 85.0,167.0 L 101.0,144.0 L 113.0,127.0 L 125.0,110.0 L 126.0,109.0" fill="#F9F9F9"/>
	<path d="M 154.0,16.0 L 165.0,16.0 L 175.0,21.0 L 182.0,29.0 L 184.0,34.0 L 184.0,45.0 L 180.0,54.0 L 171.0,62.0 L 167.0,60.0 L 138.0,31.0 L 140.0,26.0 L 149.0,18.0 L 154.0,16.0" fill="#FBFBFB"/>
	<path d="M 77.0,60.0 L 81.0,62.0 L 83.0,65.0 L 66.0,75.0 L 41.0,89.0 L 23.0,100.0 L 20.0,100.0 L 16.0,90.0 L 16.0,86.0 L 51.0,71.0 L 77.0,60.0" fill="#F6F6F6"/>
	<path d="M 127.0,70.0 L 131.0,72.0 L 137.0,78.0 L 135.0,83.0 L 126.0,96.0 L 119.0,90.0 L 113.0,83.0 L 126.0,71.0 L 127.0,70.0" fill="#F4F4F4"/>
	<path d="M 113.0,57.0 L 117.0,58.0 L 122.0,63.0 L 120.0,67.0 L 109.0,77.0 L 105.0,76.0 L 97.0,68.0 L 98.0,65.0 L 113.0,57.0" fill="#F5F5F5"/>
	<path d="M 143.0,85.0 L 150.0,91.0 L 148.0,97.0 L 141.0,111.0 L 134.0,105.0 L 132.0,103.0 L 133.0,99.0 L 142.0,86.0 L 143.0,85.0" fill="#F4F4F4"/>
	<path d="M 147.0,53.0 L 151.0,55.0 L 152.0,59.0 L 143.0,72.0 L 139.0,70.0 L 134.0,64.0 L 144.0,55.0 L 147.0,53.0" fill="#F4F4F4"/>
	<path d="M 137.0,43.0 L 141.0,45.0 L 141.0,48.0 L 129.0,59.0 L 122.0,53.0 L 125.0,50.0 L 137.0,43.0" fill="#F2F2F2"/>
	<path d="M 158.0,63.0 L 162.0,66.0 L 160.0,72.0 L 154.0,84.0 L 148.0,79.0 L 150.0,74.0 L 158.0,63.0" fill="#F1F1F1"/>
	<path d="M 105.0,48.0 L 108.0,49.0 L 107.0,52.0 L 93.0,60.0 L 88.0,59.0 L 88.0,55.0 L 105.0,48.0" fill="#EDEDED"/>
	<path d="M 125.0,39.0 L 128.0,40.0 L 117.0,46.0 L 114.0,45.0 L 116.0,43.0 L 125.0,39.0" fill="#D0D0D0"/>
</svg>
