<?xml version="1.0" ?>
<svg baseProfile="full" height="600px" version="1.1" viewBox="-12.06 -12.06 144.12 144.12" width="600px" xmlns="http://www.w3.org/2000/svg" xmlns:ev="http://www.w3.org/2001/xml-events" xmlns:xlink="http://www.w3.org/1999/xlink">
	<defs/>
	<path d="M 0.0,0.0 L 120.0,0.0 L 120.0,120.0 L 0.0,120.0 L 0.0,0.0" fill="#FCFCFC"/>
	<path d="M 85.0,12.0 L 95.0,12.0 L 103.0,17.0 L 107.0,22.0 L 108.0,25.0 L 108.0,35.0 L 103.0,43.0 L 100.0,46.0 L 94.0,65.0 L 87.0,87.0 L 83.0,100.0 L 80.0,109.0 L 77.0,112.0 L 69.0,112.0 L 61.0,108.0 L 56.0,103.0 L 43.0,102.0 L 35.0,98.0 L 29.0,91.0 L 27.0,85.0 L 26.0,75.0 L 18.0,71.0 L 12.0,63.0 L 10.0,58.0 L 8.0,48.0 L 8.0,42.0 L 12.0,39.0 L 63.0,23.0 L 73.0,20.0 L 81.0,14.0 L 85.0,12.0" fill="#060606"/>
	<path d="M 59.0,55.0 L 66.0,61.0 L 71.0,65.0 L 69.0,70.0 L 57.0,92.0 L 55.0,94.0 L 44.0,94.0 L 38.0,90.0 L 35.0,84.0 L 35.0,74.0 L 48.0,63.0 L 59.0,55.0" fill="#F9F9F9"/>
	<path d="M 47.0,40.0 L 50.0,40.0 L 54.0,47.0 L 52.0,51.0 L 38.0,62.0 L 32.0,67.0 L 25.0,66.0 L 19.0,59.0 L 18.0,51.0 L 42.0,42.0 L 47.0,40.0" fill="#F6F6F6"/>
	<path d="M 78.0,70.0 L 83.0,71.0 L 81.0,80.0 L 74.0,102.0 L 73.0,103.0 L 66.0,102.0 L 63.0,99.0 L 64.0,94.0 L 77.0,71.0 L 78.0,70.0" fill="#F5F5F5"/>
	<path d="M 83.0,36.0 L 86.0,38.0 L 84.0,44.0 L 76.0,58.0 L 72.0,56.0 L 66.0,51.0 L 66.0,49.0 L 82.0,37.0 L 83.0,36.0" fill="#F5F5F5"/>
	<path d="M 75.0,30.0 L 78.0,31.0 L 65.0,41.0 L 60.0,43.0 L 57.0,37.0 L 69.0,32.0 L 75.0,30.0" fill="#EAEAEA"/>
	<path d="M 89.0,49.0 L 90.0,52.0 L 86.0,64.0 L 82.0,62.0 L 89.0,49.0" fill="#D4D4D4"/>
</svg>
