<?xml version="1.0" ?>
<svg baseProfile="full" height="600px" version="1.1" viewBox="-12.06 -12.06 144.12 144.12" width="600px" xmlns="http://www.w3.org/2000/svg" xmlns:ev="http://www.w3.org/2001/xml-events" xmlns:xlink="http://www.w3.org/1999/xlink">
	<defs/>
	<path d="M 0.0,0.0 L 120.0,0.0 L 120.0,120.0 L 0.0,120.0 L 0.0,0.0" fill="#FCFCFC"/>
	<path d="M 85.0,12.0 L 95.0,12.0 L 103.0,17.0 L 107.0,22.0 L 108.0,25.0 L 108.0,35.0 L 103.0,43.0 L 100.0,47.0 L 81.0,108.0 L 77.0,112.0 L 65.0,112.0 L 57.0,108.0 L 52.0,102.0 L 52.0,100.0 L 40.0,100.0 L 31.0,96.0 L 24.0,90.0 L 21.0,83.0 L 20.0,69.0 L 12.0,62.0 L 8.0,53.0 L 8.0,42.0 L 12.0,39.0 L 31.0,33.0 L 48.0,28.0 L 70.0,21.0 L 76.0,18.0 L 81.0,14.0 L 85.0,12.0" fill="#060606"/>
	<path d="M 55.0,52.0 L 59.0,54.0 L 67.0,62.0 L 66.0,67.0 L 53.0,89.0 L 49.0,92.0 L 41.0,92.0 L 33.0,88.0 L 29.0,82.0 L 29.0,69.0 L 34.0,65.0 L 55.0,52.0" fill="#F9F9F9"/>
	<path d="M 74.0,68.0 L 83.0,71.0 L 80.0,82.0 L 73.0,104.0 L 66.0,104.0 L 60.0,100.0 L 59.0,93.0 L 72.0,71.0 L 74.0,68.0" fill="#F8F8F8"/>
	<path d="M 46.0,37.0 L 49.0,38.0 L 51.0,43.0 L 51.0,46.0 L 25.0,62.0 L 20.0,59.0 L 16.0,52.0 L 16.0,47.0 L 23.0,44.0 L 36.0,40.0 L 46.0,37.0" fill="#F5F5F5"/>
	<path d="M 82.0,35.0 L 84.0,35.0 L 82.0,40.0 L 73.0,56.0 L 69.0,54.0 L 64.0,49.0 L 64.0,46.0 L 82.0,35.0" fill="#EFEFEF"/>
	<path d="M 89.0,43.0 L 91.0,43.0 L 90.0,50.0 L 86.0,63.0 L 80.0,62.0 L 79.0,60.0 L 89.0,43.0" fill="#F3F3F3"/>
	<path d="M 75.0,28.0 L 77.0,28.0 L 77.0,30.0 L 59.0,41.0 L 56.0,37.0 L 56.0,34.0 L 75.0,28.0" fill="#E4E4E4"/>
</svg>
