<?xml version="1.0" ?>
<svg baseProfile="full" height="600px" version="1.1" viewBox="-20.1 -20.1 240.2 240.2" width="600px" xmlns="http://www.w3.org/2000/svg" xmlns:ev="http://www.w3.org/2001/xml-events" xmlns:xlink="http://www.w3.org/1999/xlink">
	<defs/>
	<path d="M 0.0,0.0 L 200.0,0.0 L 200.0,200.0 L 0.0,200.0 L 0.0,0.0" fill="#FDFDFD"/>
	<path d="M 153.0,8.0 L 165.0,8.0 L 175.0,11.0 L 184.0,18.0 L 190.0,27.0 L 192.0,33.0 L 192.0,46.0 L 188.0,56.0 L 182.0,64.0 L 175.0,69.0 L 171.0,71.0 L 148.0,125.0 L 132.0,162.0 L 120.0,190.0 L 117.0,192.0 L 107.0,192.0 L 97.0,187.0 L 97.0,185.0 L 87.0,185.0 L 78.0,182.0 L 69.0,176.0 L 63.0,169.0 L 60.0,164.0 L 60.0,162.0 L 52.0,161.0 L 41.0,154.0 L 34.0,146.0 L 29.0,136.0 L 26.0,127.0 L 18.0,120.0 L 12.0,108.0 L 9.0,92.0 L 8.0,83.0 L 12.0,79.0 L 54.0,61.0 L 98.0,42.0 L 128.0,29.0 L 130.0,29.0 L 132.0,24.0 L 138.0,16.0 L 147.0,10.0 L 153.0,8.0" fill="#060606"/>
	<path d="M 98.0,81.0 L 102.0,83.0 L 113.0,94.0 L 109.0,100.0 L 100.0,110.0 L 91.0,121.0 L 78.0,136.0 L 66.0,150.0 L 63.0,154.0 L 54.0,153.0 L 44.0,146.0 L 38.0,137.0 L 36.0,130.0 L 36.0,125.0 L 55.0,111.0 L 75.0,97.0 L 95.0,83.0 L 98.0,81.0" fill="#FBFBFB"/>
	<path d="M 118.0,101.0 L 122.0,103.0 L 131.0,112.0 L 130.0,117.0 L 116.0,143.0 L 103.0,166.0 L 97.0,177.0 L 86.0,177.0 L 76.0,171.0 L 68.0,162.0 L 69.0,158.0 L 78.0,148.0 L 87.0,137.0 L 96.0,127.0 L 105.0,116.0 L 118.0,101.0" fill="#FBFBFB"/>
	<path d="M 81.0,65.0 L 85.0,66.0 L 93.0,74.0 L 88.0,79.0 L 68.0,93.0 L 51.0,105.0 L 32.0,119.0 L 27.0,118.0 L 21.0,109.0 L 19.0,104.0 L 19.0,97.0 L 35.0,88.0 L 72.0,69.0 L 81.0,65.0" fill="#F9F9F9"/>
	<path d="M 154.0,16.0 L 165.0,16.0 L 175.0,21.0 L 182.0,29.0 L 184.0,34.0 L 184.0,45.0 L 180.0,54.0 L 171.0,62.0 L 167.0,60.0 L 138.0,31.0 L 140.0,26.0 L 149.0,18.0 L 154.0,16.0" fill="#FBFBFB"/>
	<path d="M 137.0,120.0 L 140.0,121.0 L 137.0,130.0 L 118.0,174.0 L 114.0,184.0 L 108.0,184.0 L 104.0,182.0 L 105.0,177.0 L 120.0,150.0 L 135.0,123.0 L 137.0,120.0" fill="#F3F3F3"/>
	<path d="M 122.0,64.0 L 129.0,70.0 L 131.0,74.0 L 119.0,88.0 L 115.0,86.0 L 106.0,77.0 L 106.0,75.0 L 122.0,64.0" fill="#F5F5F5"/>
	<path d="M 137.0,79.0 L 144.0,85.0 L 145.0,90.0 L 136.0,106.0 L 129.0,100.0 L 124.0,94.0 L 136.0,80.0 L 137.0,79.0" fill="#F5F5F5"/>
	<path d="M 107.0,52.0 L 112.0,53.0 L 116.0,57.0 L 114.0,61.0 L 101.0,70.0 L 97.0,68.0 L 91.0,62.0 L 91.0,60.0 L 107.0,52.0" fill="#F3F3F3"/>
	<path d="M 143.0,49.0 L 147.0,51.0 L 148.0,54.0 L 139.0,65.0 L 136.0,67.0 L 129.0,60.0 L 133.0,56.0 L 143.0,49.0" fill="#F4F4F4"/>
	<path d="M 154.0,59.0 L 159.0,64.0 L 150.0,80.0 L 143.0,74.0 L 145.0,69.0 L 154.0,59.0" fill="#F3F3F3"/>
	<path d="M 133.0,40.0 L 137.0,41.0 L 137.0,44.0 L 125.0,53.0 L 121.0,52.0 L 118.0,49.0 L 118.0,47.0 L 133.0,40.0" fill="#F2F2F2"/>
	<path d="M 151.0,94.0 L 152.0,96.0 L 145.0,112.0 L 142.0,113.0 L 143.0,109.0 L 151.0,94.0" fill="#C9C9C9"/>
	<path d="M 32.0,79.0 L 35.0,80.0 L 18.0,89.0 L 17.0,86.0 L 32.0,79.0" fill="#CDCDCD"/>
</svg>
