<?xml version="1.0" ?>
<svg baseProfile="full" height="600px" version="1.1" viewBox="-20.1 -20.1 240.2 240.2" width="600px" xmlns="http://www.w3.org/2000/svg" xmlns:ev="http://www.w3.org/2001/xml-events" xmlns:xlink="http://www.w3.org/1999/xlink">
	<defs/>
	<path d="M 0.0,0.0 L 200.0,0.0 L 200.0,200.0 L 0.0,200.0 L 0.0,0.0" fill="#FDFDFD"/>
	<path d="M 0.0,0.0 L 200.0,0.0 L 200.0,200.0 L 0.0,200.0 L 0.0,0.0 M 89.0,16.0 L 73.0,20.0 L 59.0,26.0 L 45.0,36.0 L 35.0,46.0 L 28.0,56.0 L 21.0,70.0 L 17.0,83.0 L 16.0,89.0 L 16.0,110.0 L 19.0,123.0 L 25.0,139.0 L 33.0,151.0 L 42.0,161.0 L 50.0,168.0 L 63.0,176.0 L 79.0,182.0 L 89.0,184.0 L 109.0,184.0 L 121.0,182.0 L 137.0,176.0 L 147.0,170.0 L 157.0,162.0 L 165.0,154.0 L 172.0,144.0 L 179.0,130.0 L 182.0,121.0 L 184.0,107.0 L 188.0,103.0 L 187.0,98.0 L 188.0,96.0 L 184.0,92.0 L 182.0,79.0 L 177.0,65.0 L 169.0,51.0 L 157.0,38.0 L 146.0,29.0 L 132.0,22.0 L 121.0,18.0 L 110.0,16.0 L 89.0,16.0" fill="#FCFCFC"/>
	<path d="M 88.0,8.0 L 109.0,8.0 L 126.0,11.0 L 145.0,19.0 L 158.0,28.0 L 168.0,37.0 L 178.0,50.0 L 186.0,66.0 L 191.0,82.0 L 192.0,93.0 L 190.0,95.0 L 185.0,95.0 L 183.0,92.0 L 181.0,79.0 L 176.0,65.0 L 168.0,51.0 L 156.0,38.0 L 146.0,30.0 L 132.0,23.0 L 121.0,19.0 L 110.0,17.0 L 89.0,17.0 L 73.0,21.0 L 59.0,27.0 L 45.0,37.0 L 36.0,46.0 L 29.0,56.0 L 22.0,70.0 L 18.0,83.0 L 17.0,89.0 L 17.0,110.0 L 20.0,123.0 L 26.0,139.0 L 34.0,151.0 L 43.0,161.0 L 53.0,169.0 L 65.0,176.0 L 79.0,181.0 L 89.0,183.0 L 109.0,183.0 L 121.0,181.0 L 137.0,175.0 L 147.0,169.0 L 157.0,161.0 L 164.0,154.0 L 171.0,144.0 L 178.0,130.0 L 181.0,121.0 L 183.0,107.0 L 185.0,105.0 L 190.0,105.0 L 191.0,106.0 L 191.0,117.0 L 186.0,134.0 L 178.0,150.0 L 170.0,160.0 L 163.0,168.0 L 150.0,178.0 L 134.0,186.0 L 117.0,191.0 L 109.0,192.0 L 89.0,192.0 L 74.0,189.0 L 59.0,183.0 L 46.0,175.0 L 33.0,164.0 L 22.0,150.0 L 14.0,134.0 L 10.0,122.0 L 8.0,111.0 L 8.0,88.0 L 12.0,71.0 L 19.0,55.0 L 28.0,42.0 L 37.0,32.0 L 50.0,22.0 L 66.0,14.0 L 78.0,10.0 L 88.0,8.0" fill="#080808"/>
	<path d="M 189.0,96.0 L 200.0,96.0 L 200.0,104.0 L 189.0,104.0 L 186.0,102.0 L 187.0,97.0 L 189.0,96.0" fill="#070707"/>
</svg>
