<?xml version="1.0" ?>
<svg baseProfile="full" height="600px" version="1.1" viewBox="-20.1 -20.1 240.2 240.2" width="600px" xmlns="http://www.w3.org/2000/svg" xmlns:ev="http://www.w3.org/2001/xml-events" xmlns:xlink="http://www.w3.org/1999/xlink">
	<defs/>
	<path d="M 0.0,0.0 L 200.0,0.0 L 200.0,200.0 L 0.0,200.0 L 0.0,0.0" fill="#FDFDFD"/>
	<path d="M 45.0,20.0 L 53.0,20.0 L 61.0,23.0 L 69.0,30.0 L 76.0,40.0 L 86.0,59.0 L 95.0,82.0 L 110.0,125.0 L 120.0,147.0 L 129.0,161.0 L 133.0,166.0 L 141.0,171.0 L 149.0,171.0 L 155.0,167.0 L 162.0,157.0 L 169.0,143.0 L 176.0,124.0 L 182.0,104.0 L 110.0,104.0 L 108.0,96.0 L 200.0,96.0 L 200.0,104.0 L 191.0,104.0 L 189.0,115.0 L 183.0,134.0 L 175.0,153.0 L 168.0,165.0 L 160.0,174.0 L 151.0,179.0 L 149.0,180.0 L 141.0,180.0 L 133.0,177.0 L 123.0,168.0 L 116.0,158.0 L 108.0,143.0 L 98.0,118.0 L 83.0,75.0 L 74.0,55.0 L 66.0,41.0 L 57.0,31.0 L 53.0,29.0 L 47.0,29.0 L 41.0,31.0 L 37.0,27.0 L 39.0,23.0 L 45.0,20.0" fill="#060606"/>
	<path d="M 0.0,16.0 L 8.0,16.0 L 8.0,96.0 L 83.0,96.0 L 85.0,104.0 L 8.0,104.0 L 8.0,184.0 L 0.0,184.0 L 0.0,16.0" fill="#000000"/>
</svg>
