<?xml version="1.0" ?>
<svg baseProfile="full" height="600px" version="1.1" viewBox="-20.1 -20.1 240.2 240.2" width="600px" xmlns="http://www.w3.org/2000/svg" xmlns:ev="http://www.w3.org/2001/xml-events" xmlns:xlink="http://www.w3.org/1999/xlink">
	<defs/>
	<path d="M 0.0,0.0 L 200.0,0.0 L 200.0,200.0 L 0.0,200.0 L 0.0,0.0" fill="#FDFDFD"/>
	<path d="M 0.0,16.0 L 8.0,16.0 L 9.0,93.0 L 13.0,74.0 L 19.0,55.0 L 25.0,41.0 L 33.0,29.0 L 40.0,23.0 L 46.0,20.0 L 53.0,20.0 L 61.0,23.0 L 69.0,30.0 L 76.0,40.0 L 86.0,59.0 L 95.0,82.0 L 110.0,125.0 L 117.0,141.0 L 117.0,143.0 L 110.0,146.0 L 104.0,134.0 L 93.0,104.0 L 83.0,75.0 L 74.0,55.0 L 66.0,41.0 L 57.0,31.0 L 53.0,29.0 L 46.0,29.0 L 40.0,34.0 L 34.0,44.0 L 27.0,62.0 L 20.0,85.0 L 17.0,96.0 L 83.0,96.0 L 85.0,104.0 L 8.0,104.0 L 8.0,184.0 L 0.0,184.0 L 0.0,16.0" fill="#040404"/>
	<path d="M 108.0,96.0 L 200.0,96.0 L 200.0,104.0 L 110.0,104.0 L 108.0,96.0" fill="#010101"/>
</svg>
