<?xml version="1.0" ?>
<svg baseProfile="full" height="600px" version="1.1" viewBox="-20.1 -20.1 240.2 240.2" width="600px" xmlns="http://www.w3.org/2000/svg" xmlns:ev="http://www.w3.org/2001/xml-events" xmlns:xlink="http://www.w3.org/1999/xlink">
	<defs/>
	<path d="M 0.0,0.0 L 200.0,0.0 L 200.0,200.0 L 0.0,200.0 L 0.0,0.0" fill="#FDFDFD"/>
	<path d="M 8.0,104.0 L 183.0,104.0 L 180.0,116.0 L 173.0,137.0 L 167.0,151.0 L 159.0,164.0 L 163.0,166.0 L 167.0,165.0 L 174.0,153.0 L 182.0,133.0 L 187.0,119.0 L 191.0,104.0 L 200.0,104.0 L 200.0,200.0 L 0.0,200.0 L 0.0,184.0 L 8.0,184.0 L 8.0,104.0" fill="#FDFDFD"/>
	<path d="M 0.0,16.0 L 8.0,16.0 L 8.0,96.0 L 200.0,96.0 L 200.0,104.0 L 191.0,104.0 L 188.0,119.0 L 179.0,144.0 L 171.0,160.0 L 166.0,167.0 L 162.0,166.0 L 159.0,164.0 L 161.0,159.0 L 167.0,149.0 L 176.0,126.0 L 181.0,109.0 L 182.0,105.0 L 8.0,104.0 L 8.0,184.0 L 0.0,184.0 L 0.0,16.0" fill="#020202"/>
</svg>
