<?xml version="1.0" ?>
<svg baseProfile="full" height="600px" version="1.1" viewBox="-20.1 -20.1 240.2 240.2" width="600px" xmlns="http://www.w3.org/2000/svg" xmlns:ev="http://www.w3.org/2001/xml-events" xmlns:xlink="http://www.w3.org/1999/xlink">
	<defs/>
	<path d="M 0.0,0.0 L 200.0,0.0 L 200.0,200.0 L 0.0,200.0 L 0.0,0.0" fill="#FDFDFD"/>
	<path d="M 19.0,79.0 L 29.0,79.0 L 37.0,83.0 L 43.0,90.0 L 45.0,95.0 L 45.0,105.0 L 40.0,114.0 L 35.0,118.0 L 29.0,121.0 L 19.0,121.0 L 11.0,117.0 L 5.0,110.0 L 3.0,105.0 L 3.0,95.0 L 7.0,87.0 L 14.0,81.0 L 19.0,79.0" fill="#0B0B0B"/>
	<path d="M 19.0,136.0 L 29.0,136.0 L 37.0,140.0 L 43.0,148.0 L 44.0,151.0 L 44.0,161.0 L 40.0,169.0 L 32.0,175.0 L 29.0,176.0 L 19.0,176.0 L 11.0,172.0 L 5.0,164.0 L 4.0,161.0 L 4.0,151.0 L 8.0,143.0 L 16.0,137.0 L 19.0,136.0" fill="#080808"/>
	<path d="M 19.0,24.0 L 29.0,24.0 L 37.0,28.0 L 43.0,36.0 L 44.0,39.0 L 44.0,49.0 L 40.0,57.0 L 32.0,63.0 L 29.0,64.0 L 19.0,64.0 L 11.0,60.0 L 5.0,52.0 L 4.0,49.0 L 4.0,39.0 L 8.0,31.0 L 16.0,25.0 L 19.0,24.0" fill="#080808"/>
	<path d="M 52.0,152.0 L 196.0,152.0 L 196.0,160.0 L 52.0,160.0 L 52.0,152.0" fill="#000000"/>
	<path d="M 52.0,96.0 L 196.0,96.0 L 196.0,104.0 L 52.0,104.0 L 52.0,96.0" fill="#000000"/>
	<path d="M 52.0,40.0 L 196.0,40.0 L 196.0,48.0 L 52.0,48.0 L 52.0,40.0" fill="#000000"/>
	<path d="M 19.0,88.0 L 28.0,88.0 L 33.0,91.0 L 36.0,95.0 L 36.0,105.0 L 31.0,111.0 L 29.0,112.0 L 19.0,112.0 L 13.0,107.0 L 12.0,105.0 L 12.0,95.0 L 17.0,89.0 L 19.0,88.0" fill="#F7F7F7"/>
	<path d="M 20.0,144.0 L 27.0,144.0 L 32.0,147.0 L 36.0,152.0 L 36.0,160.0 L 30.0,167.0 L 28.0,168.0 L 20.0,168.0 L 13.0,162.0 L 12.0,159.0 L 12.0,152.0 L 18.0,145.0 L 20.0,144.0" fill="#F7F7F7"/>
	<path d="M 20.0,32.0 L 27.0,32.0 L 32.0,35.0 L 36.0,40.0 L 36.0,48.0 L 30.0,55.0 L 28.0,56.0 L 20.0,56.0 L 13.0,50.0 L 12.0,47.0 L 12.0,40.0 L 18.0,33.0 L 20.0,32.0" fill="#F6F6F6"/>
	<path d="M 22.0,96.0 L 27.0,97.0 L 28.0,102.0 L 26.0,104.0 L 21.0,103.0 L 20.0,98.0 L 22.0,96.0" fill="#0C0C0C"/>
	<path d="M 22.0,41.0 L 27.0,42.0 L 26.0,47.0 L 21.0,46.0 L 22.0,41.0" fill="#1F1F1F"/>
</svg>
