<?xml version="1.0" ?>
<svg baseProfile="full" height="600px" version="1.1" viewBox="-19.296000000000003 -19.296000000000003 230.592 230.592" width="600px" xmlns="http://www.w3.org/2000/svg" xmlns:ev="http://www.w3.org/2001/xml-events" xmlns:xlink="http://www.w3.org/1999/xlink">
	<defs/>
	<path d="M 0.0,0.0 L 192.0,0.0 L 192.0,192.0 L 0.0,192.0 L 0.0,0.0" fill="#FEFDFC"/>
	<path d="M 84.0,40.0 L 123.0,40.0 L 131.0,44.0 L 136.0,51.0 L 136.0,59.0 L 131.0,74.0 L 130.0,76.0 L 152.0,76.0 L 156.0,79.0 L 155.0,86.0 L 152.0,88.0 L 119.0,88.0 L 116.0,84.0 L 115.0,80.0 L 104.0,90.0 L 106.0,94.0 L 119.0,107.0 L 120.0,109.0 L 120.0,146.0 L 118.0,150.0 L 130.0,150.0 L 142.0,146.0 L 146.0,145.0 L 149.0,149.0 L 148.0,153.0 L 141.0,157.0 L 127.0,161.0 L 132.0,166.0 L 132.0,174.0 L 127.0,179.0 L 125.0,180.0 L 118.0,180.0 L 113.0,175.0 L 112.0,173.0 L 112.0,166.0 L 117.0,161.0 L 75.0,161.0 L 80.0,166.0 L 80.0,174.0 L 75.0,179.0 L 73.0,180.0 L 66.0,180.0 L 61.0,175.0 L 60.0,173.0 L 60.0,166.0 L 65.0,161.0 L 49.0,156.0 L 42.0,152.0 L 44.0,147.0 L 45.0,145.0 L 50.0,146.0 L 56.0,149.0 L 61.0,150.0 L 106.0,150.0 L 104.0,147.0 L 103.0,116.0 L 88.0,105.0 L 81.0,111.0 L 70.0,122.0 L 66.0,124.0 L 33.0,124.0 L 28.0,119.0 L 28.0,112.0 L 32.0,108.0 L 61.0,108.0 L 63.0,103.0 L 71.0,92.0 L 72.0,83.0 L 77.0,75.0 L 96.0,56.0 L 97.0,54.0 L 87.0,53.0 L 60.0,68.0 L 55.0,68.0 L 52.0,64.0 L 52.0,59.0 L 61.0,53.0 L 84.0,40.0" fill="#61BF8D"/>
	<path d="M 84.0,40.0 L 123.0,40.0 L 131.0,44.0 L 136.0,51.0 L 136.0,59.0 L 131.0,74.0 L 130.0,76.0 L 152.0,76.0 L 156.0,79.0 L 155.0,86.0 L 152.0,88.0 L 119.0,88.0 L 116.0,84.0 L 115.0,80.0 L 103.0,91.0 L 96.0,85.0 L 82.0,71.0 L 88.0,64.0 L 96.0,56.0 L 97.0,54.0 L 87.0,53.0 L 60.0,68.0 L 55.0,68.0 L 52.0,64.0 L 52.0,59.0 L 61.0,53.0 L 84.0,40.0" fill="#FD754C"/>
	<path d="M 45.0,145.0 L 50.0,146.0 L 56.0,149.0 L 63.0,151.0 L 127.0,151.0 L 142.0,146.0 L 146.0,145.0 L 149.0,149.0 L 148.0,153.0 L 141.0,157.0 L 127.0,161.0 L 132.0,166.0 L 132.0,174.0 L 127.0,179.0 L 125.0,180.0 L 118.0,180.0 L 113.0,175.0 L 112.0,173.0 L 112.0,166.0 L 117.0,161.0 L 75.0,161.0 L 80.0,166.0 L 80.0,174.0 L 75.0,179.0 L 73.0,180.0 L 66.0,180.0 L 61.0,175.0 L 60.0,173.0 L 60.0,166.0 L 65.0,161.0 L 49.0,156.0 L 42.0,152.0 L 44.0,147.0 L 45.0,145.0" fill="#FE764E"/>
	<path d="M 84.0,40.0 L 123.0,40.0 L 123.0,43.0 L 124.0,44.0 L 124.0,51.0 L 118.0,56.0 L 107.0,56.0 L 97.0,55.0 L 92.0,53.0 L 85.0,54.0 L 60.0,68.0 L 55.0,68.0 L 52.0,64.0 L 52.0,59.0 L 61.0,53.0 L 84.0,40.0" fill="#FDB64F"/>
	<path d="M 116.0,106.0 L 119.0,107.0 L 120.0,109.0 L 120.0,146.0 L 118.0,150.0 L 127.0,151.0 L 127.0,152.0 L 63.0,152.0 L 63.0,151.0 L 106.0,150.0 L 104.0,147.0 L 104.0,116.0 L 113.0,108.0 L 116.0,106.0" fill="#FDB655"/>
	<path d="M 138.0,16.0 L 145.0,16.0 L 151.0,19.0 L 155.0,24.0 L 156.0,26.0 L 156.0,34.0 L 152.0,40.0 L 146.0,44.0 L 138.0,44.0 L 132.0,40.0 L 129.0,36.0 L 128.0,33.0 L 128.0,26.0 L 132.0,20.0 L 138.0,16.0" fill="#FDB64F"/>
	<path d="M 32.0,108.0 L 61.0,108.0 L 71.0,119.0 L 70.0,122.0 L 66.0,124.0 L 33.0,124.0 L 28.0,119.0 L 28.0,112.0 L 32.0,108.0" fill="#F7A626"/>
	<path d="M 132.0,64.0 L 133.0,64.0 L 132.0,71.0 L 130.0,76.0 L 152.0,76.0 L 156.0,79.0 L 155.0,86.0 L 152.0,88.0 L 119.0,88.0 L 116.0,84.0 L 116.0,78.0 L 128.0,67.0 L 132.0,64.0" fill="#FDB64E"/>
	<path d="M 72.0,93.0 L 75.0,94.0 L 75.0,96.0 L 79.0,98.0 L 87.0,103.0 L 85.0,107.0 L 72.0,120.0 L 67.0,116.0 L 61.0,109.0 L 62.0,105.0 L 70.0,94.0 L 72.0,93.0" fill="#45A56F"/>
	<path d="M 118.0,160.0 L 125.0,160.0 L 130.0,163.0 L 132.0,166.0 L 132.0,174.0 L 127.0,179.0 L 125.0,180.0 L 118.0,180.0 L 113.0,175.0 L 112.0,173.0 L 112.0,166.0 L 117.0,161.0 L 118.0,160.0" fill="#64808D"/>
	<path d="M 66.0,160.0 L 73.0,160.0 L 78.0,163.0 L 80.0,166.0 L 80.0,174.0 L 75.0,179.0 L 73.0,180.0 L 66.0,180.0 L 61.0,175.0 L 60.0,173.0 L 60.0,166.0 L 65.0,161.0 L 66.0,160.0" fill="#64808D"/>
	<path d="M 98.0,54.0 L 111.0,56.0 L 107.0,59.0 L 88.0,68.0 L 83.0,70.0 L 89.0,63.0 L 98.0,54.0" fill="#E74D1C"/>
	<path d="M 120.0,166.0 L 125.0,167.0 L 126.0,172.0 L 124.0,174.0 L 119.0,173.0 L 118.0,168.0 L 120.0,166.0" fill="#28353B"/>
	<path d="M 68.0,166.0 L 73.0,167.0 L 74.0,172.0 L 72.0,174.0 L 67.0,173.0 L 66.0,168.0 L 68.0,166.0" fill="#28353B"/>
	<path d="M 32.0,108.0 L 35.0,109.0 L 35.0,111.0 L 33.0,111.0 L 33.0,113.0 L 31.0,113.0 L 30.0,115.0 L 28.0,114.0 L 30.0,110.0 L 32.0,108.0" fill="#F9AD37"/>
</svg>
