<?xml version="1.0" ?>
<svg baseProfile="full" height="600px" version="1.1" viewBox="-20.1 -20.1 240.2 240.2" width="600px" xmlns="http://www.w3.org/2000/svg" xmlns:ev="http://www.w3.org/2001/xml-events" xmlns:xlink="http://www.w3.org/1999/xlink">
	<defs/>
	<path d="M 0.0,0.0 L 200.0,0.0 L 200.0,200.0 L 0.0,200.0 L 0.0,0.0" fill="#FCFCFC"/>
	<path d="M 96.0,36.0 L 137.0,36.0 L 145.0,40.0 L 149.0,45.0 L 151.0,49.0 L 151.0,61.0 L 146.0,69.0 L 143.0,71.0 L 158.0,72.0 L 164.0,75.0 L 167.0,79.0 L 167.0,89.0 L 163.0,94.0 L 158.0,96.0 L 118.0,97.0 L 123.0,101.0 L 133.0,110.0 L 135.0,114.0 L 135.0,163.0 L 152.0,163.0 L 164.0,157.0 L 169.0,156.0 L 171.0,157.0 L 171.0,163.0 L 161.0,169.0 L 153.0,172.0 L 155.0,175.0 L 155.0,185.0 L 151.0,190.0 L 146.0,192.0 L 139.0,192.0 L 133.0,187.0 L 132.0,185.0 L 132.0,175.0 L 133.0,173.0 L 90.0,173.0 L 91.0,175.0 L 91.0,185.0 L 87.0,190.0 L 82.0,192.0 L 75.0,192.0 L 69.0,187.0 L 68.0,185.0 L 68.0,175.0 L 70.0,171.0 L 64.0,170.0 L 52.0,163.0 L 51.0,158.0 L 53.0,156.0 L 59.0,157.0 L 71.0,163.0 L 108.0,164.0 L 107.0,160.0 L 107.0,125.0 L 103.0,123.0 L 95.0,117.0 L 91.0,118.0 L 72.0,137.0 L 65.0,140.0 L 28.0,140.0 L 22.0,136.0 L 19.0,130.0 L 19.0,121.0 L 25.0,114.0 L 29.0,112.0 L 55.0,111.0 L 74.0,92.0 L 77.0,82.0 L 98.0,61.0 L 89.0,64.0 L 73.0,71.0 L 72.0,72.0 L 64.0,72.0 L 58.0,68.0 L 55.0,62.0 L 56.0,56.0 L 62.0,49.0 L 89.0,37.0 L 96.0,36.0" fill="#070707"/>
	<path d="M 110.0,44.0 L 136.0,44.0 L 142.0,49.0 L 143.0,51.0 L 143.0,58.0 L 140.0,63.0 L 120.0,83.0 L 113.0,91.0 L 108.0,96.0 L 109.0,101.0 L 125.0,113.0 L 127.0,116.0 L 127.0,161.0 L 124.0,164.0 L 119.0,164.0 L 115.0,160.0 L 114.0,122.0 L 107.0,116.0 L 88.0,102.0 L 83.0,97.0 L 83.0,88.0 L 90.0,80.0 L 110.0,60.0 L 119.0,59.0 L 120.0,54.0 L 119.0,53.0 L 94.0,53.0 L 71.0,63.0 L 66.0,64.0 L 64.0,62.0 L 65.0,57.0 L 79.0,50.0 L 91.0,45.0 L 110.0,44.0" fill="#F9F9F9"/>
	<path d="M 164.0,8.0 L 174.0,8.0 L 183.0,12.0 L 189.0,19.0 L 191.0,23.0 L 191.0,37.0 L 186.0,45.0 L 180.0,50.0 L 174.0,52.0 L 164.0,52.0 L 156.0,48.0 L 150.0,41.0 L 147.0,34.0 L 147.0,27.0 L 150.0,19.0 L 157.0,11.0 L 164.0,8.0" fill="#080808"/>
	<path d="M 73.0,93.0 L 75.0,96.0 L 76.0,102.0 L 67.0,111.0 L 60.0,119.0 L 59.0,120.0 L 31.0,121.0 L 28.0,124.0 L 28.0,129.0 L 30.0,131.0 L 64.0,131.0 L 70.0,127.0 L 86.0,111.0 L 91.0,114.0 L 91.0,118.0 L 72.0,137.0 L 65.0,140.0 L 28.0,140.0 L 22.0,136.0 L 19.0,130.0 L 19.0,121.0 L 25.0,114.0 L 29.0,112.0 L 55.0,111.0 L 73.0,93.0" fill="#040404"/>
	<path d="M 76.0,101.0 L 81.0,106.0 L 86.0,110.0 L 84.0,114.0 L 68.0,130.0 L 64.0,132.0 L 30.0,132.0 L 27.0,129.0 L 28.0,122.0 L 31.0,120.0 L 59.0,119.0 L 75.0,102.0 L 76.0,101.0" fill="#F7F7F7"/>
	<path d="M 165.0,16.0 L 174.0,16.0 L 180.0,20.0 L 183.0,25.0 L 183.0,34.0 L 179.0,41.0 L 173.0,44.0 L 165.0,44.0 L 159.0,40.0 L 156.0,35.0 L 156.0,25.0 L 160.0,19.0 L 165.0,16.0" fill="#F8F8F8"/>
	<path d="M 134.0,80.0 L 157.0,80.0 L 159.0,82.0 L 158.0,87.0 L 157.0,88.0 L 127.0,88.0 L 133.0,81.0 L 134.0,80.0" fill="#FAFAFA"/>
	<path d="M 141.0,176.0 L 146.0,177.0 L 147.0,182.0 L 145.0,184.0 L 140.0,183.0 L 139.0,179.0 L 141.0,176.0" fill="#EAEAEA"/>
	<path d="M 77.0,176.0 L 82.0,177.0 L 83.0,182.0 L 81.0,184.0 L 76.0,183.0 L 75.0,179.0 L 77.0,176.0" fill="#EAEAEA"/>
</svg>
