<?xml version="1.0" ?>
<svg baseProfile="full" height="600px" version="1.1" viewBox="-19.296000000000003 -19.296000000000003 230.592 230.592" width="600px" xmlns="http://www.w3.org/2000/svg" xmlns:ev="http://www.w3.org/2001/xml-events" xmlns:xlink="http://www.w3.org/1999/xlink">
	<defs/>
	<path d="M 0.0,0.0 L 192.0,0.0 L 192.0,192.0 L 0.0,192.0 L 0.0,0.0" fill="#FEFDFD"/>
	<path d="M 105.0,39.0 L 116.0,39.0 L 124.0,43.0 L 128.0,48.0 L 128.0,58.0 L 124.0,64.0 L 115.0,75.0 L 108.0,84.0 L 111.0,96.0 L 121.0,104.0 L 122.0,106.0 L 122.0,119.0 L 126.0,137.0 L 126.0,146.0 L 121.0,150.0 L 130.0,150.0 L 140.0,146.0 L 144.0,145.0 L 147.0,149.0 L 146.0,153.0 L 135.0,158.0 L 125.0,161.0 L 130.0,166.0 L 130.0,174.0 L 125.0,179.0 L 123.0,180.0 L 116.0,180.0 L 111.0,175.0 L 110.0,173.0 L 110.0,166.0 L 115.0,161.0 L 73.0,161.0 L 78.0,166.0 L 78.0,174.0 L 73.0,179.0 L 71.0,180.0 L 64.0,180.0 L 59.0,175.0 L 58.0,173.0 L 58.0,166.0 L 63.0,161.0 L 47.0,156.0 L 40.0,152.0 L 42.0,146.0 L 46.0,145.0 L 54.0,149.0 L 59.0,150.0 L 105.0,151.0 L 103.0,148.0 L 103.0,133.0 L 104.0,126.0 L 104.0,117.0 L 103.0,114.0 L 76.0,102.0 L 71.0,97.0 L 70.0,95.0 L 70.0,85.0 L 79.0,72.0 L 81.0,69.0 L 83.0,58.0 L 87.0,54.0 L 95.0,50.0 L 103.0,40.0 L 105.0,39.0" fill="#FDB651"/>
	<path d="M 43.0,145.0 L 48.0,146.0 L 54.0,149.0 L 61.0,151.0 L 125.0,151.0 L 138.0,147.0 L 141.0,145.0 L 145.0,146.0 L 147.0,149.0 L 146.0,153.0 L 135.0,158.0 L 125.0,161.0 L 130.0,166.0 L 130.0,174.0 L 125.0,179.0 L 123.0,180.0 L 116.0,180.0 L 111.0,175.0 L 110.0,173.0 L 110.0,166.0 L 115.0,161.0 L 73.0,161.0 L 78.0,166.0 L 78.0,174.0 L 73.0,179.0 L 71.0,180.0 L 64.0,180.0 L 59.0,175.0 L 58.0,173.0 L 58.0,166.0 L 63.0,161.0 L 47.0,156.0 L 40.0,152.0 L 42.0,146.0 L 43.0,145.0" fill="#FE764D"/>
	<path d="M 76.0,76.0 L 81.0,77.0 L 96.0,87.0 L 103.0,110.0 L 103.0,112.0 L 106.0,113.0 L 103.0,114.0 L 76.0,102.0 L 71.0,97.0 L 70.0,95.0 L 70.0,85.0 L 76.0,76.0" fill="#62BF8E"/>
	<path d="M 126.0,12.0 L 135.0,12.0 L 141.0,16.0 L 144.0,20.0 L 145.0,28.0 L 141.0,36.0 L 135.0,40.0 L 127.0,40.0 L 122.0,37.0 L 117.0,31.0 L 117.0,21.0 L 121.0,15.0 L 126.0,12.0" fill="#FDB750"/>
	<path d="M 109.0,39.0 L 116.0,39.0 L 124.0,43.0 L 128.0,48.0 L 128.0,58.0 L 124.0,64.0 L 115.0,75.0 L 108.0,83.0 L 106.0,81.0 L 105.0,74.0 L 113.0,55.0 L 114.0,52.0 L 114.0,44.0 L 111.0,41.0 L 109.0,39.0" fill="#FE774D"/>
	<path d="M 97.0,48.0 L 99.0,48.0 L 97.0,60.0 L 94.0,72.0 L 94.0,79.0 L 95.0,86.0 L 90.0,84.0 L 77.0,76.0 L 81.0,69.0 L 83.0,58.0 L 87.0,54.0 L 95.0,50.0 L 97.0,48.0" fill="#E8501E"/>
	<path d="M 116.0,160.0 L 123.0,160.0 L 128.0,163.0 L 130.0,166.0 L 130.0,174.0 L 125.0,179.0 L 123.0,180.0 L 116.0,180.0 L 111.0,175.0 L 110.0,173.0 L 110.0,166.0 L 115.0,161.0 L 116.0,160.0" fill="#64808D"/>
	<path d="M 64.0,160.0 L 71.0,160.0 L 76.0,163.0 L 78.0,166.0 L 78.0,174.0 L 73.0,179.0 L 71.0,180.0 L 64.0,180.0 L 59.0,175.0 L 58.0,173.0 L 58.0,166.0 L 63.0,161.0 L 64.0,160.0" fill="#64808D"/>
	<path d="M 95.0,62.0 L 96.0,64.0 L 94.0,72.0 L 94.0,79.0 L 95.0,86.0 L 90.0,84.0 L 77.0,76.0 L 79.0,73.0 L 88.0,67.0 L 95.0,62.0" fill="#FB764B"/>
	<path d="M 120.0,124.0 L 123.0,125.0 L 126.0,137.0 L 126.0,146.0 L 123.0,149.0 L 117.0,149.0 L 120.0,124.0" fill="#F8A82A"/>
	<path d="M 92.0,52.0 L 94.0,53.0 L 83.0,68.0 L 82.0,68.0 L 82.0,61.0 L 85.0,55.0 L 92.0,52.0" fill="#FDB75B"/>
	<path d="M 118.0,166.0 L 123.0,167.0 L 124.0,172.0 L 122.0,174.0 L 117.0,173.0 L 116.0,168.0 L 118.0,166.0" fill="#28353B"/>
	<path d="M 66.0,166.0 L 71.0,167.0 L 72.0,172.0 L 70.0,174.0 L 65.0,173.0 L 64.0,168.0 L 66.0,166.0" fill="#28353B"/>
	<path d="M 111.0,97.0 L 119.0,102.0 L 115.0,107.0 L 113.0,107.0 L 111.0,97.0" fill="#77BE87"/>
</svg>
