<?xml version="1.0" ?>
<svg baseProfile="full" height="600px" version="1.1" viewBox="-19.296000000000003 -19.296000000000003 230.592 230.592" width="600px" xmlns="http://www.w3.org/2000/svg" xmlns:ev="http://www.w3.org/2001/xml-events" xmlns:xlink="http://www.w3.org/1999/xlink">
	<defs/>
	<path d="M 0.0,0.0 L 192.0,0.0 L 192.0,192.0 L 0.0,192.0 L 0.0,0.0" fill="#FEFDFC"/>
	<path d="M 109.0,39.0 L 118.0,39.0 L 127.0,43.0 L 132.0,51.0 L 132.0,57.0 L 127.0,65.0 L 118.0,74.0 L 119.0,77.0 L 130.0,86.0 L 131.0,87.0 L 131.0,93.0 L 128.0,96.0 L 123.0,96.0 L 112.0,88.0 L 107.0,86.0 L 103.0,90.0 L 103.0,92.0 L 114.0,101.0 L 120.0,107.0 L 120.0,124.0 L 119.0,147.0 L 117.0,150.0 L 130.0,150.0 L 142.0,145.0 L 145.0,145.0 L 148.0,150.0 L 147.0,153.0 L 136.0,158.0 L 126.0,161.0 L 131.0,166.0 L 131.0,173.0 L 128.0,178.0 L 124.0,180.0 L 117.0,180.0 L 112.0,176.0 L 111.0,174.0 L 111.0,166.0 L 115.0,161.0 L 74.0,161.0 L 79.0,166.0 L 79.0,173.0 L 76.0,178.0 L 72.0,180.0 L 65.0,180.0 L 60.0,176.0 L 59.0,174.0 L 59.0,166.0 L 63.0,161.0 L 48.0,156.0 L 41.0,152.0 L 42.0,148.0 L 44.0,145.0 L 49.0,146.0 L 58.0,150.0 L 105.0,150.0 L 103.0,146.0 L 103.0,123.0 L 104.0,115.0 L 99.0,113.0 L 94.0,110.0 L 91.0,119.0 L 87.0,129.0 L 69.0,143.0 L 62.0,148.0 L 54.0,148.0 L 50.0,144.0 L 50.0,138.0 L 54.0,133.0 L 68.0,122.0 L 73.0,118.0 L 74.0,101.0 L 71.0,92.0 L 71.0,83.0 L 79.0,72.0 L 81.0,70.0 L 84.0,63.0 L 107.0,40.0 L 109.0,39.0" fill="#61BF8D"/>
	<path d="M 44.0,145.0 L 49.0,146.0 L 58.0,150.0 L 62.0,151.0 L 125.0,151.0 L 138.0,147.0 L 142.0,145.0 L 145.0,145.0 L 148.0,150.0 L 147.0,153.0 L 136.0,158.0 L 126.0,161.0 L 131.0,166.0 L 131.0,173.0 L 128.0,178.0 L 124.0,180.0 L 117.0,180.0 L 112.0,176.0 L 111.0,174.0 L 111.0,166.0 L 115.0,161.0 L 74.0,161.0 L 79.0,166.0 L 79.0,173.0 L 76.0,178.0 L 72.0,180.0 L 65.0,180.0 L 60.0,176.0 L 59.0,174.0 L 59.0,166.0 L 63.0,161.0 L 48.0,156.0 L 41.0,152.0 L 42.0,148.0 L 44.0,145.0" fill="#FE774E"/>
	<path d="M 115.0,40.0 L 124.0,41.0 L 129.0,46.0 L 132.0,51.0 L 132.0,57.0 L 127.0,65.0 L 118.0,74.0 L 119.0,77.0 L 130.0,86.0 L 131.0,87.0 L 131.0,93.0 L 128.0,96.0 L 123.0,96.0 L 112.0,88.0 L 107.0,86.0 L 101.0,91.0 L 91.0,82.0 L 93.0,71.0 L 109.0,59.0 L 115.0,55.0 L 118.0,48.0 L 117.0,43.0 L 115.0,40.0" fill="#FD764C"/>
	<path d="M 109.0,39.0 L 118.0,39.0 L 116.0,41.0 L 119.0,44.0 L 118.0,52.0 L 114.0,57.0 L 95.0,70.0 L 92.0,79.0 L 86.0,101.0 L 83.0,104.0 L 77.0,104.0 L 74.0,101.0 L 71.0,92.0 L 71.0,83.0 L 79.0,72.0 L 81.0,70.0 L 84.0,63.0 L 107.0,40.0 L 109.0,39.0" fill="#FCB54F"/>
	<path d="M 116.0,105.0 L 120.0,107.0 L 120.0,124.0 L 119.0,147.0 L 117.0,150.0 L 125.0,151.0 L 125.0,152.0 L 62.0,152.0 L 62.0,151.0 L 105.0,150.0 L 103.0,146.0 L 103.0,123.0 L 104.0,115.0 L 116.0,105.0" fill="#FDB757"/>
	<path d="M 73.0,118.0 L 84.0,120.0 L 89.0,122.0 L 88.0,128.0 L 73.0,140.0 L 62.0,148.0 L 54.0,148.0 L 50.0,144.0 L 50.0,138.0 L 54.0,133.0 L 68.0,122.0 L 73.0,118.0" fill="#F8A728"/>
	<path d="M 132.0,13.0 L 141.0,14.0 L 148.0,20.0 L 149.0,22.0 L 149.0,32.0 L 145.0,38.0 L 140.0,41.0 L 130.0,41.0 L 123.0,35.0 L 122.0,33.0 L 122.0,22.0 L 128.0,15.0 L 132.0,13.0" fill="#FDB74F"/>
	<path d="M 117.0,160.0 L 125.0,160.0 L 130.0,165.0 L 131.0,166.0 L 131.0,173.0 L 128.0,178.0 L 124.0,180.0 L 117.0,180.0 L 112.0,176.0 L 111.0,174.0 L 111.0,166.0 L 115.0,161.0 L 117.0,160.0" fill="#66818E"/>
	<path d="M 65.0,160.0 L 73.0,160.0 L 78.0,165.0 L 79.0,166.0 L 79.0,173.0 L 76.0,178.0 L 72.0,180.0 L 65.0,180.0 L 60.0,176.0 L 59.0,174.0 L 59.0,166.0 L 63.0,161.0 L 65.0,160.0" fill="#66818E"/>
	<path d="M 84.0,102.0 L 93.0,108.0 L 91.0,119.0 L 90.0,122.0 L 84.0,121.0 L 74.0,118.0 L 74.0,108.0 L 75.0,103.0 L 83.0,103.0 L 84.0,102.0" fill="#49A670"/>
	<path d="M 116.0,75.0 L 124.0,81.0 L 131.0,87.0 L 131.0,93.0 L 128.0,96.0 L 123.0,96.0 L 112.0,88.0 L 108.0,84.0 L 116.0,75.0" fill="#FDB750"/>
	<path d="M 79.0,72.0 L 81.0,73.0 L 78.0,84.0 L 75.0,95.0 L 73.0,96.0 L 71.0,92.0 L 71.0,83.0 L 79.0,72.0" fill="#64C08F"/>
	<path d="M 118.0,166.0 L 123.0,166.0 L 125.0,168.0 L 124.0,173.0 L 119.0,174.0 L 117.0,172.0 L 117.0,167.0 L 118.0,166.0" fill="#29373E"/>
	<path d="M 66.0,166.0 L 71.0,166.0 L 73.0,168.0 L 72.0,173.0 L 67.0,174.0 L 65.0,172.0 L 65.0,167.0 L 66.0,166.0" fill="#29373E"/>
	<path d="M 79.0,72.0 L 81.0,73.0 L 79.0,77.0 L 74.0,80.0 L 76.0,76.0 L 79.0,72.0" fill="#78C392"/>
</svg>
