<?xml version="1.0" ?>
<svg baseProfile="full" height="600px" version="1.1" viewBox="-12.06 -12.06 144.12 144.12" width="600px" xmlns="http://www.w3.org/2000/svg" xmlns:ev="http://www.w3.org/2001/xml-events" xmlns:xlink="http://www.w3.org/1999/xlink">
	<defs/>
	<path d="M 0.0,0.0 L 120.0,0.0 L 120.0,120.0 L 0.0,120.0 L 0.0,0.0" fill="#FCFCFC"/>
	<path d="M 70.0,26.0 L 78.0,27.0 L 82.0,31.0 L 82.0,40.0 L 76.0,51.0 L 73.0,56.0 L 74.0,61.0 L 79.0,71.0 L 78.0,85.0 L 76.0,96.0 L 86.0,94.0 L 90.0,92.0 L 95.0,93.0 L 96.0,98.0 L 88.0,103.0 L 86.0,104.0 L 77.0,104.0 L 78.0,108.0 L 83.0,109.0 L 84.0,114.0 L 82.0,116.0 L 75.0,115.0 L 71.0,116.0 L 68.0,113.0 L 68.0,104.0 L 34.0,104.0 L 25.0,99.0 L 24.0,94.0 L 26.0,92.0 L 32.0,93.0 L 36.0,95.0 L 68.0,96.0 L 67.0,92.0 L 66.0,75.0 L 58.0,67.0 L 53.0,66.0 L 52.0,65.0 L 51.0,52.0 L 63.0,32.0 L 68.0,27.0 L 70.0,26.0" fill="#050505"/>
	<path d="M 83.0,5.0 L 90.0,6.0 L 95.0,11.0 L 95.0,20.0 L 90.0,25.0 L 81.0,25.0 L 76.0,20.0 L 76.0,11.0 L 81.0,6.0 L 83.0,5.0" fill="#070707"/>
	<path d="M 38.0,108.0 L 43.0,109.0 L 44.0,114.0 L 42.0,116.0 L 37.0,115.0 L 36.0,110.0 L 38.0,108.0" fill="#0C0C0C"/>
</svg>
