<?xml version="1.0" ?>
<svg baseProfile="full" height="600px" version="1.1" viewBox="-12.06 -12.06 144.12 144.12" width="600px" xmlns="http://www.w3.org/2000/svg" xmlns:ev="http://www.w3.org/2001/xml-events" xmlns:xlink="http://www.w3.org/1999/xlink">
	<defs/>
	<path d="M 0.0,0.0 L 120.0,0.0 L 120.0,120.0 L 0.0,120.0 L 0.0,0.0" fill="#FCFCFC"/>
	<path d="M 61.0,28.0 L 88.0,28.0 L 93.0,31.0 L 95.0,34.0 L 95.0,41.0 L 91.0,47.0 L 81.0,57.0 L 87.0,70.0 L 87.0,96.0 L 97.0,94.0 L 101.0,92.0 L 106.0,93.0 L 107.0,98.0 L 99.0,103.0 L 97.0,104.0 L 45.0,104.0 L 36.0,99.0 L 35.0,94.0 L 37.0,92.0 L 43.0,93.0 L 47.0,95.0 L 78.0,95.0 L 75.0,77.0 L 72.0,72.0 L 62.0,62.0 L 59.0,57.0 L 59.0,51.0 L 65.0,43.0 L 69.0,39.0 L 68.0,38.0 L 61.0,39.0 L 49.0,48.0 L 44.0,48.0 L 43.0,47.0 L 43.0,42.0 L 54.0,33.0 L 61.0,28.0" fill="#040404"/>
	<path d="M 98.0,8.0 L 105.0,8.0 L 110.0,13.0 L 111.0,14.0 L 111.0,21.0 L 108.0,26.0 L 104.0,28.0 L 97.0,28.0 L 92.0,23.0 L 91.0,21.0 L 91.0,15.0 L 94.0,10.0 L 98.0,8.0" fill="#070707"/>
	<path d="M 56.0,66.0 L 60.0,68.0 L 65.0,74.0 L 57.0,80.0 L 34.0,80.0 L 32.0,78.0 L 33.0,73.0 L 34.0,72.0 L 53.0,69.0 L 56.0,66.0" fill="#030303"/>
	<path d="M 97.0,49.0 L 101.0,51.0 L 110.0,55.0 L 115.0,58.0 L 114.0,63.0 L 113.0,64.0 L 105.0,63.0 L 95.0,59.0 L 91.0,55.0 L 97.0,49.0" fill="#0A0A0A"/>
	<path d="M 89.0,108.0 L 94.0,109.0 L 95.0,114.0 L 93.0,116.0 L 88.0,115.0 L 87.0,110.0 L 89.0,108.0" fill="#0D0D0D"/>
	<path d="M 49.0,108.0 L 54.0,109.0 L 55.0,114.0 L 53.0,116.0 L 48.0,115.0 L 47.0,110.0 L 49.0,108.0" fill="#0D0D0D"/>
</svg>
