<?xml version="1.0" ?>
<svg baseProfile="full" height="600px" version="1.1" viewBox="-19.296000000000003 -19.296000000000003 230.592 230.592" width="600px" xmlns="http://www.w3.org/2000/svg" xmlns:ev="http://www.w3.org/2001/xml-events" xmlns:xlink="http://www.w3.org/1999/xlink">
	<defs/>
	<path d="M 0.0,0.0 L 192.0,0.0 L 192.0,192.0 L 0.0,192.0 L 0.0,0.0" fill="#FEFDFC"/>
	<path d="M 105.0,39.0 L 115.0,39.0 L 122.0,43.0 L 126.0,49.0 L 126.0,57.0 L 119.0,68.0 L 115.0,73.0 L 116.0,78.0 L 127.0,91.0 L 134.0,100.0 L 134.0,105.0 L 130.0,109.0 L 124.0,108.0 L 111.0,92.0 L 107.0,87.0 L 107.0,85.0 L 103.0,89.0 L 104.0,93.0 L 116.0,101.0 L 121.0,106.0 L 121.0,117.0 L 119.0,134.0 L 118.0,146.0 L 116.0,150.0 L 129.0,150.0 L 141.0,145.0 L 145.0,147.0 L 147.0,152.0 L 137.0,157.0 L 126.0,160.0 L 126.0,162.0 L 129.0,166.0 L 129.0,174.0 L 125.0,179.0 L 116.0,180.0 L 110.0,175.0 L 109.0,167.0 L 114.0,161.0 L 107.0,160.0 L 106.0,170.0 L 102.0,178.0 L 99.0,180.0 L 93.0,180.0 L 90.0,176.0 L 90.0,160.0 L 73.0,161.0 L 77.0,166.0 L 77.0,174.0 L 73.0,179.0 L 64.0,180.0 L 58.0,175.0 L 57.0,167.0 L 62.0,161.0 L 49.0,157.0 L 39.0,152.0 L 41.0,147.0 L 45.0,145.0 L 57.0,150.0 L 62.0,151.0 L 91.0,151.0 L 92.0,140.0 L 92.0,125.0 L 81.0,105.0 L 72.0,99.0 L 69.0,93.0 L 69.0,86.0 L 76.0,75.0 L 80.0,70.0 L 82.0,61.0 L 89.0,56.0 L 99.0,41.0 L 105.0,39.0" fill="#FE764D"/>
	<path d="M 105.0,39.0 L 115.0,39.0 L 122.0,43.0 L 126.0,49.0 L 126.0,57.0 L 119.0,68.0 L 115.0,73.0 L 116.0,78.0 L 127.0,91.0 L 134.0,100.0 L 134.0,105.0 L 130.0,109.0 L 124.0,108.0 L 111.0,92.0 L 107.0,87.0 L 107.0,85.0 L 102.0,90.0 L 100.0,91.0 L 84.0,80.0 L 77.0,75.0 L 80.0,70.0 L 82.0,61.0 L 89.0,56.0 L 99.0,41.0 L 105.0,39.0" fill="#FDB64F"/>
	<path d="M 76.0,75.0 L 81.0,77.0 L 97.0,88.0 L 102.0,90.0 L 107.0,95.0 L 117.0,102.0 L 115.0,106.0 L 106.0,114.0 L 104.0,114.0 L 104.0,120.0 L 95.0,127.0 L 93.0,127.0 L 81.0,105.0 L 72.0,99.0 L 69.0,93.0 L 69.0,86.0 L 76.0,75.0" fill="#61BF8E"/>
	<path d="M 117.0,103.0 L 121.0,106.0 L 121.0,117.0 L 119.0,134.0 L 118.0,146.0 L 116.0,150.0 L 125.0,151.0 L 125.0,152.0 L 91.0,152.0 L 93.0,127.0 L 103.0,120.0 L 104.0,114.0 L 115.0,105.0 L 117.0,103.0" fill="#FDB650"/>
	<path d="M 122.0,11.0 L 132.0,11.0 L 139.0,17.0 L 141.0,22.0 L 141.0,29.0 L 137.0,35.0 L 131.0,39.0 L 123.0,39.0 L 117.0,35.0 L 113.0,29.0 L 113.0,21.0 L 116.0,16.0 L 122.0,11.0" fill="#FDB750"/>
	<path d="M 96.0,46.0 L 97.0,46.0 L 100.0,63.0 L 102.0,75.0 L 104.0,82.0 L 105.0,86.0 L 100.0,91.0 L 84.0,80.0 L 77.0,75.0 L 80.0,70.0 L 82.0,61.0 L 89.0,56.0 L 96.0,46.0" fill="#FC754B"/>
	<path d="M 107.0,39.0 L 115.0,39.0 L 122.0,43.0 L 126.0,49.0 L 126.0,57.0 L 119.0,68.0 L 114.0,74.0 L 113.0,74.0 L 112.0,47.0 L 110.0,42.0 L 107.0,39.0" fill="#FE794D"/>
	<path d="M 116.0,160.0 L 125.0,161.0 L 129.0,166.0 L 129.0,174.0 L 125.0,179.0 L 116.0,180.0 L 110.0,175.0 L 109.0,167.0 L 114.0,161.0 L 116.0,160.0" fill="#637F8C"/>
	<path d="M 64.0,160.0 L 73.0,161.0 L 77.0,166.0 L 77.0,174.0 L 73.0,179.0 L 64.0,180.0 L 58.0,175.0 L 57.0,167.0 L 62.0,161.0 L 64.0,160.0" fill="#637F8C"/>
	<path d="M 103.0,120.0 L 104.0,120.0 L 103.0,147.0 L 107.0,152.0 L 91.0,152.0 L 93.0,127.0 L 103.0,120.0" fill="#F8A72A"/>
	<path d="M 90.0,160.0 L 107.0,160.0 L 106.0,170.0 L 102.0,178.0 L 99.0,180.0 L 93.0,180.0 L 90.0,176.0 L 90.0,160.0" fill="#F8A828"/>
	<path d="M 82.0,104.0 L 102.0,113.0 L 104.0,114.0 L 104.0,120.0 L 95.0,127.0 L 93.0,127.0 L 82.0,106.0 L 82.0,104.0" fill="#47A66F"/>
	<path d="M 96.0,46.0 L 97.0,46.0 L 98.0,51.0 L 98.0,59.0 L 85.0,70.0 L 80.0,74.0 L 78.0,73.0 L 80.0,70.0 L 82.0,61.0 L 89.0,56.0 L 96.0,46.0" fill="#E74F1E"/>
	<path d="M 105.0,85.0 L 107.0,85.0 L 114.0,94.0 L 122.0,104.0 L 119.0,105.0 L 112.0,99.0 L 102.0,92.0 L 103.0,87.0 L 105.0,85.0" fill="#FCF8F2"/>
	<path d="M 117.0,166.0 L 122.0,167.0 L 123.0,168.0 L 123.0,173.0 L 117.0,174.0 L 115.0,172.0 L 116.0,167.0 L 117.0,166.0" fill="#29373E"/>
	<path d="M 65.0,166.0 L 70.0,167.0 L 71.0,168.0 L 71.0,173.0 L 65.0,174.0 L 63.0,172.0 L 64.0,167.0 L 65.0,166.0" fill="#29373E"/>
	<path d="M 101.0,121.0 L 103.0,121.0 L 103.0,125.0 L 101.0,125.0 L 101.0,127.0 L 99.0,127.0 L 99.0,129.0 L 97.0,129.0 L 97.0,131.0 L 95.0,131.0 L 94.0,133.0 L 94.0,127.0 L 101.0,121.0" fill="#F3A626"/>
	<path d="M 87.0,57.0 L 89.0,58.0 L 82.0,68.0 L 81.0,68.0 L 82.0,61.0 L 87.0,57.0" fill="#FDB75F"/>
	<path d="M 90.0,160.0 L 97.0,160.0 L 95.0,161.0 L 95.0,163.0 L 93.0,163.0 L 93.0,165.0 L 90.0,166.0 L 90.0,160.0" fill="#F9AD36"/>
</svg>
