<?xml version="1.0" ?>
<svg baseProfile="full" height="600px" version="1.1" viewBox="-19.296000000000003 -19.296000000000003 230.592 230.592" width="600px" xmlns="http://www.w3.org/2000/svg" xmlns:ev="http://www.w3.org/2001/xml-events" xmlns:xlink="http://www.w3.org/1999/xlink">
	<defs/>
	<path d="M 0.0,0.0 L 192.0,0.0 L 192.0,192.0 L 0.0,192.0 L 0.0,0.0" fill="#FEFDFC"/>
	<path d="M 110.0,40.0 L 123.0,40.0 L 130.0,44.0 L 134.0,50.0 L 134.0,60.0 L 129.0,67.0 L 127.0,72.0 L 127.0,75.0 L 144.0,79.0 L 148.0,81.0 L 149.0,87.0 L 145.0,91.0 L 133.0,90.0 L 116.0,87.0 L 112.0,84.0 L 108.0,86.0 L 104.0,90.0 L 106.0,94.0 L 119.0,107.0 L 120.0,109.0 L 120.0,146.0 L 117.0,151.0 L 130.0,150.0 L 141.0,146.0 L 146.0,145.0 L 149.0,150.0 L 149.0,152.0 L 137.0,158.0 L 128.0,160.0 L 128.0,162.0 L 132.0,167.0 L 131.0,175.0 L 127.0,179.0 L 118.0,180.0 L 113.0,176.0 L 112.0,174.0 L 112.0,166.0 L 116.0,161.0 L 75.0,161.0 L 80.0,167.0 L 79.0,175.0 L 75.0,179.0 L 66.0,180.0 L 61.0,176.0 L 60.0,174.0 L 60.0,166.0 L 64.0,161.0 L 49.0,156.0 L 42.0,152.0 L 43.0,147.0 L 45.0,145.0 L 49.0,146.0 L 59.0,150.0 L 106.0,150.0 L 104.0,148.0 L 103.0,116.0 L 90.0,107.0 L 87.0,108.0 L 77.0,122.0 L 75.0,122.0 L 73.0,126.0 L 61.0,129.0 L 53.0,131.0 L 37.0,132.0 L 33.0,128.0 L 33.0,120.0 L 38.0,116.0 L 58.0,112.0 L 64.0,112.0 L 67.0,103.0 L 72.0,94.0 L 72.0,82.0 L 76.0,76.0 L 86.0,66.0 L 91.0,60.0 L 87.0,61.0 L 66.0,82.0 L 59.0,82.0 L 56.0,79.0 L 56.0,74.0 L 82.0,48.0 L 104.0,42.0 L 110.0,40.0" fill="#61BF8D"/>
	<path d="M 110.0,40.0 L 123.0,40.0 L 130.0,44.0 L 134.0,50.0 L 134.0,60.0 L 129.0,67.0 L 127.0,72.0 L 127.0,75.0 L 144.0,79.0 L 148.0,81.0 L 149.0,87.0 L 145.0,91.0 L 133.0,90.0 L 116.0,87.0 L 112.0,84.0 L 108.0,86.0 L 104.0,90.0 L 100.0,89.0 L 92.0,82.0 L 82.0,72.0 L 84.0,68.0 L 91.0,60.0 L 87.0,61.0 L 66.0,82.0 L 59.0,82.0 L 56.0,79.0 L 56.0,74.0 L 82.0,48.0 L 104.0,42.0 L 110.0,40.0" fill="#FD754C"/>
	<path d="M 45.0,145.0 L 49.0,146.0 L 59.0,150.0 L 63.0,151.0 L 126.0,151.0 L 139.0,147.0 L 143.0,145.0 L 146.0,145.0 L 149.0,150.0 L 149.0,152.0 L 137.0,158.0 L 128.0,160.0 L 128.0,162.0 L 132.0,167.0 L 131.0,175.0 L 127.0,179.0 L 118.0,180.0 L 113.0,176.0 L 112.0,174.0 L 112.0,166.0 L 116.0,161.0 L 75.0,161.0 L 80.0,167.0 L 79.0,175.0 L 75.0,179.0 L 66.0,180.0 L 61.0,176.0 L 60.0,174.0 L 60.0,166.0 L 64.0,161.0 L 49.0,156.0 L 42.0,152.0 L 43.0,147.0 L 45.0,145.0" fill="#FE764D"/>
	<path d="M 110.0,40.0 L 118.0,40.0 L 122.0,44.0 L 122.0,51.0 L 116.0,56.0 L 103.0,58.0 L 88.0,60.0 L 66.0,82.0 L 59.0,82.0 L 56.0,79.0 L 56.0,74.0 L 82.0,48.0 L 104.0,42.0 L 110.0,40.0" fill="#FDB64F"/>
	<path d="M 115.0,106.0 L 119.0,107.0 L 120.0,109.0 L 120.0,146.0 L 117.0,151.0 L 126.0,151.0 L 126.0,152.0 L 63.0,152.0 L 63.0,151.0 L 106.0,150.0 L 104.0,148.0 L 104.0,116.0 L 115.0,106.0" fill="#FDB756"/>
	<path d="M 136.0,15.0 L 143.0,15.0 L 149.0,18.0 L 153.0,23.0 L 154.0,25.0 L 154.0,32.0 L 151.0,38.0 L 146.0,42.0 L 143.0,43.0 L 135.0,43.0 L 127.0,36.0 L 126.0,33.0 L 126.0,24.0 L 132.0,17.0 L 136.0,15.0" fill="#FDB750"/>
	<path d="M 58.0,112.0 L 65.0,112.0 L 76.0,121.0 L 73.0,126.0 L 61.0,129.0 L 53.0,131.0 L 37.0,132.0 L 33.0,128.0 L 33.0,120.0 L 38.0,116.0 L 58.0,112.0" fill="#F8A728"/>
	<path d="M 127.0,67.0 L 128.0,70.0 L 127.0,75.0 L 144.0,79.0 L 148.0,81.0 L 149.0,87.0 L 145.0,91.0 L 133.0,90.0 L 116.0,87.0 L 111.0,82.0 L 119.0,74.0 L 127.0,67.0" fill="#FDB752"/>
	<path d="M 72.0,94.0 L 75.0,95.0 L 75.0,97.0 L 80.0,99.0 L 88.0,105.0 L 86.0,110.0 L 77.0,122.0 L 69.0,116.0 L 64.0,112.0 L 67.0,103.0 L 72.0,94.0" fill="#46A670"/>
	<path d="M 118.0,160.0 L 125.0,160.0 L 131.0,165.0 L 132.0,172.0 L 129.0,177.0 L 124.0,180.0 L 118.0,180.0 L 113.0,176.0 L 112.0,174.0 L 112.0,166.0 L 116.0,161.0 L 118.0,160.0" fill="#647F8D"/>
	<path d="M 66.0,160.0 L 73.0,160.0 L 79.0,165.0 L 80.0,172.0 L 77.0,177.0 L 72.0,180.0 L 66.0,180.0 L 61.0,176.0 L 60.0,174.0 L 60.0,166.0 L 64.0,161.0 L 66.0,160.0" fill="#647F8D"/>
	<path d="M 94.0,58.0 L 105.0,58.0 L 100.0,62.0 L 85.0,70.0 L 82.0,70.0 L 92.0,59.0 L 94.0,58.0" fill="#E85221"/>
	<path d="M 120.0,166.0 L 125.0,167.0 L 126.0,172.0 L 124.0,174.0 L 119.0,174.0 L 118.0,173.0 L 118.0,167.0 L 120.0,166.0" fill="#2A383F"/>
	<path d="M 68.0,166.0 L 73.0,167.0 L 74.0,172.0 L 72.0,174.0 L 67.0,174.0 L 66.0,173.0 L 66.0,167.0 L 68.0,166.0" fill="#2A383F"/>
	<path d="M 38.0,116.0 L 42.0,117.0 L 34.0,125.0 L 33.0,125.0 L 33.0,120.0 L 38.0,116.0" fill="#F9AB31"/>
	<path d="M 73.0,121.0 L 76.0,122.0 L 71.0,127.0 L 69.0,127.0 L 69.0,125.0 L 71.0,125.0 L 71.0,123.0 L 73.0,123.0 L 73.0,121.0" fill="#F9AC31"/>
</svg>
