<?xml version="1.0" ?>
<svg baseProfile="full" height="600px" version="1.1" viewBox="-20.1 -20.1 240.2 240.2" width="600px" xmlns="http://www.w3.org/2000/svg" xmlns:ev="http://www.w3.org/2001/xml-events" xmlns:xlink="http://www.w3.org/1999/xlink">
	<defs/>
	<path d="M 0.0,0.0 L 200.0,0.0 L 200.0,200.0 L 0.0,200.0 L 0.0,0.0" fill="#FDFDFD"/>
	<path d="M 88.0,36.0 L 129.0,36.0 L 136.0,39.0 L 143.0,47.0 L 144.0,50.0 L 144.0,58.0 L 141.0,66.0 L 136.0,71.0 L 151.0,72.0 L 156.0,75.0 L 160.0,80.0 L 160.0,87.0 L 157.0,93.0 L 151.0,96.0 L 111.0,97.0 L 115.0,101.0 L 124.0,108.0 L 128.0,115.0 L 128.0,161.0 L 127.0,164.0 L 143.0,163.0 L 153.0,159.0 L 158.0,156.0 L 163.0,157.0 L 164.0,162.0 L 155.0,168.0 L 148.0,171.0 L 145.0,171.0 L 148.0,176.0 L 148.0,183.0 L 145.0,189.0 L 139.0,192.0 L 132.0,192.0 L 125.0,186.0 L 124.0,183.0 L 124.0,176.0 L 126.0,173.0 L 82.0,173.0 L 84.0,176.0 L 84.0,183.0 L 81.0,189.0 L 75.0,192.0 L 68.0,192.0 L 61.0,186.0 L 60.0,183.0 L 60.0,176.0 L 63.0,171.0 L 57.0,170.0 L 46.0,164.0 L 44.0,162.0 L 45.0,157.0 L 50.0,156.0 L 61.0,162.0 L 65.0,163.0 L 101.0,164.0 L 100.0,161.0 L 99.0,126.0 L 87.0,117.0 L 83.0,119.0 L 66.0,136.0 L 59.0,140.0 L 21.0,140.0 L 15.0,136.0 L 12.0,131.0 L 11.0,129.0 L 12.0,120.0 L 16.0,115.0 L 22.0,112.0 L 48.0,111.0 L 63.0,95.0 L 66.0,92.0 L 69.0,83.0 L 78.0,73.0 L 90.0,61.0 L 77.0,66.0 L 63.0,72.0 L 56.0,72.0 L 49.0,66.0 L 48.0,57.0 L 52.0,51.0 L 59.0,47.0 L 81.0,37.0 L 88.0,36.0" fill="#050505"/>
	<path d="M 89.0,44.0 L 128.0,44.0 L 133.0,47.0 L 136.0,52.0 L 135.0,60.0 L 124.0,72.0 L 101.0,95.0 L 100.0,101.0 L 104.0,103.0 L 116.0,112.0 L 120.0,117.0 L 120.0,160.0 L 116.0,164.0 L 110.0,163.0 L 108.0,160.0 L 107.0,123.0 L 102.0,118.0 L 82.0,103.0 L 76.0,98.0 L 75.0,90.0 L 78.0,85.0 L 103.0,60.0 L 111.0,59.0 L 112.0,54.0 L 111.0,53.0 L 86.0,53.0 L 62.0,64.0 L 57.0,63.0 L 56.0,59.0 L 60.0,55.0 L 84.0,45.0 L 89.0,44.0" fill="#F9F9F9"/>
	<path d="M 156.0,8.0 L 167.0,8.0 L 177.0,13.0 L 183.0,22.0 L 184.0,24.0 L 184.0,35.0 L 179.0,45.0 L 170.0,51.0 L 167.0,52.0 L 156.0,52.0 L 146.0,46.0 L 141.0,38.0 L 140.0,35.0 L 140.0,24.0 L 146.0,14.0 L 156.0,8.0" fill="#080808"/>
	<path d="M 67.0,88.0 L 68.0,88.0 L 68.0,103.0 L 51.0,120.0 L 23.0,121.0 L 21.0,123.0 L 21.0,131.0 L 57.0,131.0 L 65.0,124.0 L 78.0,111.0 L 82.0,113.0 L 85.0,115.0 L 83.0,119.0 L 66.0,136.0 L 59.0,140.0 L 21.0,140.0 L 15.0,136.0 L 12.0,131.0 L 11.0,129.0 L 12.0,120.0 L 16.0,115.0 L 22.0,112.0 L 48.0,111.0 L 63.0,95.0 L 66.0,92.0 L 67.0,88.0" fill="#080808"/>
	<path d="M 68.0,102.0 L 70.0,102.0 L 75.0,107.0 L 79.0,111.0 L 59.0,131.0 L 57.0,132.0 L 23.0,132.0 L 20.0,129.0 L 20.0,123.0 L 23.0,120.0 L 51.0,119.0 L 68.0,102.0" fill="#FAFAFA"/>
	<path d="M 158.0,16.0 L 165.0,16.0 L 171.0,19.0 L 175.0,24.0 L 176.0,26.0 L 176.0,33.0 L 173.0,39.0 L 168.0,43.0 L 165.0,44.0 L 158.0,44.0 L 152.0,40.0 L 149.0,36.0 L 148.0,33.0 L 148.0,26.0 L 152.0,20.0 L 158.0,16.0" fill="#FAFAFA"/>
	<path d="M 126.0,80.0 L 150.0,80.0 L 152.0,82.0 L 151.0,87.0 L 150.0,88.0 L 120.0,88.0 L 122.0,84.0 L 126.0,80.0" fill="#F6F6F6"/>
	<path d="M 134.0,176.0 L 139.0,177.0 L 140.0,182.0 L 138.0,184.0 L 133.0,183.0 L 132.0,178.0 L 134.0,176.0" fill="#EAEAEA"/>
	<path d="M 70.0,176.0 L 75.0,177.0 L 76.0,182.0 L 74.0,184.0 L 69.0,183.0 L 68.0,178.0 L 70.0,176.0" fill="#EAEAEA"/>
</svg>
