<?xml version="1.0" ?>
<svg baseProfile="full" height="600px" version="1.1" viewBox="-12.06 -12.06 144.12 144.12" width="600px" xmlns="http://www.w3.org/2000/svg" xmlns:ev="http://www.w3.org/2001/xml-events" xmlns:xlink="http://www.w3.org/1999/xlink">
	<defs/>
	<path d="M 0.0,0.0 L 120.0,0.0 L 120.0,120.0 L 0.0,120.0 L 0.0,0.0" fill="#FCFCFC"/>
	<path d="M 74.0,27.0 L 81.0,28.0 L 86.0,33.0 L 86.0,42.0 L 77.0,53.0 L 74.0,58.0 L 80.0,70.0 L 80.0,88.0 L 79.0,96.0 L 89.0,94.0 L 93.0,92.0 L 98.0,93.0 L 99.0,98.0 L 91.0,103.0 L 89.0,104.0 L 62.0,105.0 L 60.0,107.0 L 55.0,107.0 L 54.0,104.0 L 37.0,104.0 L 28.0,99.0 L 27.0,94.0 L 29.0,92.0 L 35.0,93.0 L 39.0,95.0 L 58.0,96.0 L 60.0,91.0 L 63.0,86.0 L 64.0,86.0 L 64.0,96.0 L 71.0,96.0 L 68.0,77.0 L 65.0,72.0 L 54.0,61.0 L 52.0,57.0 L 52.0,51.0 L 60.0,41.0 L 55.0,42.0 L 44.0,53.0 L 39.0,52.0 L 38.0,48.0 L 45.0,40.0 L 54.0,31.0 L 72.0,28.0 L 74.0,27.0" fill="#050505"/>
	<path d="M 88.0,7.0 L 97.0,8.0 L 101.0,12.0 L 101.0,22.0 L 95.0,27.0 L 88.0,27.0 L 83.0,23.0 L 82.0,21.0 L 82.0,13.0 L 86.0,8.0 L 88.0,7.0" fill="#050505"/>
	<path d="M 85.0,53.0 L 93.0,59.0 L 99.0,64.0 L 99.0,69.0 L 98.0,70.0 L 93.0,70.0 L 81.0,61.0 L 80.0,58.0 L 85.0,53.0" fill="#080808"/>
	<path d="M 81.0,108.0 L 86.0,109.0 L 87.0,114.0 L 85.0,116.0 L 80.0,115.0 L 79.0,110.0 L 81.0,108.0" fill="#0D0D0D"/>
	<path d="M 41.0,108.0 L 46.0,109.0 L 47.0,114.0 L 45.0,116.0 L 40.0,115.0 L 39.0,110.0 L 41.0,108.0" fill="#0D0D0D"/>
</svg>
