<?xml version="1.0" ?>
<svg baseProfile="full" height="600px" version="1.1" viewBox="-19.296000000000003 -19.296000000000003 230.592 230.592" width="600px" xmlns="http://www.w3.org/2000/svg" xmlns:ev="http://www.w3.org/2001/xml-events" xmlns:xlink="http://www.w3.org/1999/xlink">
	<defs/>
	<path d="M 0.0,0.0 L 192.0,0.0 L 192.0,192.0 L 0.0,192.0 L 0.0,0.0" fill="#FEFDFC"/>
	<path d="M 108.0,40.0 L 123.0,40.0 L 130.0,46.0 L 132.0,49.0 L 132.0,59.0 L 126.0,67.0 L 117.0,76.0 L 119.0,81.0 L 125.0,88.0 L 125.0,93.0 L 122.0,96.0 L 115.0,95.0 L 108.0,88.0 L 108.0,86.0 L 103.0,91.0 L 115.0,101.0 L 120.0,105.0 L 121.0,107.0 L 121.0,121.0 L 119.0,147.0 L 117.0,150.0 L 131.0,150.0 L 141.0,146.0 L 145.0,145.0 L 148.0,149.0 L 147.0,153.0 L 134.0,159.0 L 126.0,161.0 L 131.0,166.0 L 131.0,173.0 L 128.0,178.0 L 124.0,180.0 L 117.0,180.0 L 112.0,175.0 L 111.0,174.0 L 111.0,166.0 L 116.0,161.0 L 74.0,161.0 L 79.0,166.0 L 79.0,173.0 L 76.0,178.0 L 72.0,180.0 L 65.0,180.0 L 60.0,175.0 L 59.0,174.0 L 59.0,166.0 L 64.0,161.0 L 48.0,156.0 L 41.0,152.0 L 43.0,147.0 L 44.0,145.0 L 49.0,146.0 L 59.0,150.0 L 67.0,151.0 L 67.0,144.0 L 78.0,127.0 L 82.0,121.0 L 81.0,112.0 L 79.0,102.0 L 70.0,99.0 L 68.0,96.0 L 69.0,90.0 L 74.0,78.0 L 82.0,60.0 L 100.0,46.0 L 108.0,40.0" fill="#FDB754"/>
	<path d="M 108.0,40.0 L 123.0,40.0 L 130.0,46.0 L 132.0,49.0 L 132.0,59.0 L 126.0,67.0 L 117.0,76.0 L 119.0,81.0 L 125.0,88.0 L 125.0,93.0 L 122.0,96.0 L 115.0,95.0 L 108.0,88.0 L 108.0,86.0 L 101.0,91.0 L 89.0,81.0 L 86.0,80.0 L 85.0,85.0 L 79.0,98.0 L 77.0,100.0 L 70.0,99.0 L 68.0,96.0 L 69.0,90.0 L 74.0,78.0 L 82.0,60.0 L 100.0,46.0 L 108.0,40.0" fill="#FD764C"/>
	<path d="M 44.0,145.0 L 49.0,146.0 L 62.0,151.0 L 127.0,151.0 L 141.0,146.0 L 145.0,145.0 L 148.0,149.0 L 147.0,153.0 L 134.0,159.0 L 126.0,161.0 L 131.0,166.0 L 131.0,173.0 L 128.0,178.0 L 124.0,180.0 L 117.0,180.0 L 112.0,175.0 L 111.0,174.0 L 111.0,166.0 L 116.0,161.0 L 74.0,161.0 L 79.0,166.0 L 79.0,173.0 L 76.0,178.0 L 72.0,180.0 L 65.0,180.0 L 60.0,175.0 L 59.0,174.0 L 59.0,166.0 L 64.0,161.0 L 48.0,156.0 L 41.0,152.0 L 43.0,147.0 L 44.0,145.0" fill="#FE764E"/>
	<path d="M 108.0,40.0 L 116.0,40.0 L 120.0,44.0 L 120.0,50.0 L 114.0,57.0 L 98.0,65.0 L 92.0,69.0 L 88.0,79.0 L 86.0,80.0 L 85.0,85.0 L 79.0,98.0 L 77.0,100.0 L 70.0,99.0 L 68.0,96.0 L 69.0,90.0 L 74.0,78.0 L 82.0,60.0 L 100.0,46.0 L 108.0,40.0" fill="#FDB64F"/>
	<path d="M 86.0,80.0 L 90.0,81.0 L 106.0,94.0 L 118.0,103.0 L 113.0,109.0 L 106.0,115.0 L 100.0,113.0 L 100.0,120.0 L 83.0,120.0 L 79.0,102.0 L 77.0,99.0 L 80.0,94.0 L 86.0,80.0" fill="#62BF8D"/>
	<path d="M 132.0,14.0 L 141.0,14.0 L 147.0,18.0 L 150.0,22.0 L 150.0,33.0 L 146.0,39.0 L 140.0,42.0 L 133.0,42.0 L 128.0,39.0 L 123.0,33.0 L 123.0,23.0 L 127.0,17.0 L 132.0,14.0" fill="#FDB74F"/>
	<path d="M 83.0,120.0 L 99.0,120.0 L 99.0,126.0 L 82.0,152.0 L 62.0,152.0 L 62.0,151.0 L 67.0,151.0 L 67.0,144.0 L 78.0,127.0 L 83.0,120.0" fill="#F8A727"/>
	<path d="M 100.0,113.0 L 105.0,115.0 L 105.0,126.0 L 104.0,137.0 L 104.0,146.0 L 106.0,151.0 L 83.0,151.0 L 85.0,146.0 L 98.0,126.0 L 100.0,113.0" fill="#FEFBF8"/>
	<path d="M 117.0,160.0 L 126.0,161.0 L 131.0,166.0 L 131.0,173.0 L 128.0,178.0 L 124.0,180.0 L 117.0,180.0 L 112.0,175.0 L 111.0,174.0 L 111.0,166.0 L 116.0,161.0 L 117.0,160.0" fill="#64808D"/>
	<path d="M 65.0,160.0 L 74.0,161.0 L 79.0,166.0 L 79.0,173.0 L 76.0,178.0 L 72.0,180.0 L 65.0,180.0 L 60.0,175.0 L 59.0,174.0 L 59.0,166.0 L 64.0,161.0 L 65.0,160.0" fill="#64808D"/>
	<path d="M 81.0,103.0 L 86.0,104.0 L 98.0,111.0 L 99.0,112.0 L 99.0,120.0 L 83.0,120.0 L 81.0,112.0 L 81.0,103.0" fill="#4BA66E"/>
	<path d="M 115.0,77.0 L 120.0,82.0 L 125.0,88.0 L 125.0,93.0 L 122.0,96.0 L 115.0,95.0 L 108.0,88.0 L 107.0,85.0 L 115.0,77.0" fill="#FDB752"/>
	<path d="M 87.0,139.0 L 90.0,140.0 L 82.0,152.0 L 62.0,152.0 L 62.0,151.0 L 68.0,150.0 L 77.0,151.0 L 77.0,149.0 L 79.0,149.0 L 79.0,147.0 L 81.0,147.0 L 81.0,145.0 L 83.0,145.0 L 85.0,141.0 L 87.0,139.0" fill="#FAA73A"/>
	<path d="M 119.0,166.0 L 124.0,167.0 L 125.0,172.0 L 123.0,174.0 L 118.0,173.0 L 117.0,168.0 L 119.0,166.0" fill="#28353B"/>
	<path d="M 67.0,166.0 L 72.0,167.0 L 73.0,172.0 L 71.0,174.0 L 66.0,173.0 L 65.0,168.0 L 67.0,166.0" fill="#28353B"/>
</svg>
