<?xml version="1.0" ?>
<svg baseProfile="full" height="600px" version="1.1" viewBox="-12.06 -12.06 144.12 144.12" width="600px" xmlns="http://www.w3.org/2000/svg" xmlns:ev="http://www.w3.org/2001/xml-events" xmlns:xlink="http://www.w3.org/1999/xlink">
	<defs/>
	<path d="M 0.0,0.0 L 120.0,0.0 L 120.0,120.0 L 0.0,120.0 L 0.0,0.0" fill="#FCFCFC"/>
	<path d="M 69.0,25.0 L 75.0,25.0 L 81.0,30.0 L 82.0,32.0 L 82.0,38.0 L 81.0,40.0 L 81.0,48.0 L 84.0,54.0 L 92.0,61.0 L 94.0,63.0 L 94.0,66.0 L 88.0,67.0 L 97.0,81.0 L 97.0,86.0 L 92.0,87.0 L 84.0,78.0 L 82.0,68.0 L 79.0,62.0 L 75.0,58.0 L 73.0,57.0 L 81.0,72.0 L 80.0,81.0 L 76.0,96.0 L 86.0,94.0 L 90.0,92.0 L 95.0,93.0 L 96.0,98.0 L 88.0,103.0 L 86.0,104.0 L 34.0,104.0 L 25.0,99.0 L 24.0,94.0 L 26.0,92.0 L 32.0,93.0 L 36.0,95.0 L 68.0,96.0 L 68.0,76.0 L 55.0,63.0 L 53.0,59.0 L 53.0,52.0 L 64.0,29.0 L 69.0,25.0" fill="#040404"/>
	<path d="M 80.0,4.0 L 86.0,4.0 L 91.0,7.0 L 93.0,10.0 L 93.0,18.0 L 89.0,23.0 L 87.0,24.0 L 79.0,24.0 L 74.0,19.0 L 73.0,17.0 L 73.0,11.0 L 78.0,5.0 L 80.0,4.0" fill="#070707"/>
	<path d="M 80.0,61.0 L 89.0,66.0 L 90.0,70.0 L 97.0,81.0 L 97.0,86.0 L 92.0,87.0 L 84.0,78.0 L 82.0,68.0 L 79.0,62.0 L 80.0,61.0" fill="#0E0E0E"/>
	<path d="M 78.0,108.0 L 83.0,109.0 L 84.0,114.0 L 82.0,116.0 L 77.0,115.0 L 76.0,110.0 L 78.0,108.0" fill="#0C0C0C"/>
	<path d="M 38.0,108.0 L 43.0,109.0 L 44.0,114.0 L 42.0,116.0 L 37.0,115.0 L 36.0,110.0 L 38.0,108.0" fill="#0C0C0C"/>
</svg>
