<?xml version="1.0" ?>
<svg baseProfile="full" height="600px" version="1.1" viewBox="-20.1 -20.1 240.2 240.2" width="600px" xmlns="http://www.w3.org/2000/svg" xmlns:ev="http://www.w3.org/2001/xml-events" xmlns:xlink="http://www.w3.org/1999/xlink">
	<defs/>
	<path d="M 0.0,0.0 L 200.0,0.0 L 200.0,200.0 L 0.0,200.0 L 0.0,0.0" fill="#FDFDFD"/>
	<path d="M 165.0,31.0 L 166.0,31.0 L 165.0,63.0 L 164.0,76.0 L 164.0,115.0 L 166.0,161.0 L 166.0,169.0 L 155.0,162.0 L 137.0,149.0 L 120.0,137.0 L 102.0,124.0 L 85.0,112.0 L 72.0,103.0 L 72.0,164.0 L 40.0,164.0 L 40.0,36.0 L 72.0,36.0 L 72.0,97.0 L 92.0,83.0 L 110.0,70.0 L 127.0,58.0 L 144.0,46.0 L 162.0,33.0 L 165.0,31.0" fill="#040404"/>
	<path d="M 155.0,48.0 L 157.0,48.0 L 157.0,152.0 L 152.0,150.0 L 137.0,139.0 L 120.0,127.0 L 102.0,114.0 L 83.0,101.0 L 83.0,99.0 L 99.0,88.0 L 117.0,75.0 L 134.0,63.0 L 152.0,50.0 L 155.0,48.0" fill="#FBFBFB"/>
	<path d="M 48.0,44.0 L 64.0,44.0 L 64.0,156.0 L 48.0,156.0 L 48.0,44.0" fill="#FCFCFC"/>
</svg>
