<?xml version="1.0" ?>
<svg baseProfile="full" height="600px" version="1.1" viewBox="-20.1 -20.1 240.2 240.2" width="600px" xmlns="http://www.w3.org/2000/svg" xmlns:ev="http://www.w3.org/2001/xml-events" xmlns:xlink="http://www.w3.org/1999/xlink">
	<defs/>
	<path d="M 0.0,0.0 L 200.0,0.0 L 200.0,200.0 L 0.0,200.0 L 0.0,0.0" fill="#FDFDFD"/>
	<path d="M 41.0,33.0 L 50.0,38.0 L 64.0,48.0 L 79.0,58.0 L 98.0,71.0 L 123.0,88.0 L 127.0,91.0 L 128.0,36.0 L 160.0,36.0 L 160.0,164.0 L 128.0,164.0 L 127.0,109.0 L 110.0,121.0 L 86.0,137.0 L 66.0,151.0 L 42.0,167.0 L 41.0,167.0 L 41.0,33.0" fill="#040404"/>
	<path d="M 49.0,48.0 L 60.0,55.0 L 84.0,71.0 L 101.0,83.0 L 113.0,91.0 L 125.0,99.0 L 125.0,101.0 L 113.0,109.0 L 91.0,124.0 L 69.0,139.0 L 50.0,152.0 L 49.0,152.0 L 49.0,48.0" fill="#FCFCFC"/>
	<path d="M 136.0,44.0 L 152.0,44.0 L 152.0,156.0 L 136.0,156.0 L 136.0,44.0" fill="#FDFDFD"/>
</svg>
