<?xml version="1.0" ?>
<svg baseProfile="full" height="600px" version="1.1" viewBox="-20.1 -20.1 240.2 240.2" width="600px" xmlns="http://www.w3.org/2000/svg" xmlns:ev="http://www.w3.org/2001/xml-events" xmlns:xlink="http://www.w3.org/1999/xlink">
	<defs/>
	<path d="M 0.0,0.0 L 200.0,0.0 L 200.0,200.0 L 0.0,200.0 L 0.0,0.0" fill="#FDFDFD"/>
	<path d="M 40.0,32.0 L 72.0,32.0 L 72.0,48.0 L 71.0,59.0 L 97.0,45.0 L 103.0,42.0 L 103.0,158.0 L 91.0,152.0 L 71.0,141.0 L 72.0,157.0 L 72.0,168.0 L 40.0,168.0 L 38.0,135.0 L 38.0,60.0 L 40.0,32.0" fill="#050505"/>
	<path d="M 47.0,40.0 L 64.0,40.0 L 63.0,62.0 L 63.0,139.0 L 64.0,160.0 L 47.0,160.0 L 46.0,126.0 L 46.0,67.0 L 47.0,40.0" fill="#F8F8F8"/>
	<path d="M 94.0,55.0 L 95.0,55.0 L 95.0,145.0 L 79.0,137.0 L 70.0,131.0 L 70.0,69.0 L 79.0,63.0 L 94.0,55.0" fill="#F9F9F9"/>
</svg>
