<?xml version="1.0" ?>
<svg baseProfile="full" height="600px" version="1.1" viewBox="-16.08 -16.08 192.16 192.16" width="600px" xmlns="http://www.w3.org/2000/svg" xmlns:ev="http://www.w3.org/2001/xml-events" xmlns:xlink="http://www.w3.org/1999/xlink">
	<defs/>
	<path d="M 0.0,0.0 L 160.0,0.0 L 160.0,160.0 L 0.0,160.0 L 0.0,0.0" fill="#FDFDFE"/>
	<path d="M 44.0,42.0 L 64.0,42.0 L 64.0,76.0 L 90.0,59.0 L 110.0,46.0 L 111.0,46.0 L 111.0,113.0 L 106.0,111.0 L 90.0,101.0 L 65.0,85.0 L 63.0,84.0 L 64.0,118.0 L 44.0,118.0 L 43.0,106.0 L 43.0,49.0 L 44.0,42.0" fill="#547FB9"/>
	<path d="M 104.0,55.0 L 106.0,55.0 L 106.0,105.0 L 101.0,103.0 L 83.0,92.0 L 68.0,82.0 L 66.0,81.0 L 66.0,79.0 L 85.0,67.0 L 104.0,55.0" fill="#89B5EE"/>
	<path d="M 48.0,46.0 L 60.0,46.0 L 60.0,114.0 L 48.0,114.0 L 47.0,105.0 L 47.0,56.0 L 48.0,46.0" fill="#89B5EE"/>
</svg>
