<?xml version="1.0" ?>
<svg baseProfile="full" height="600px" version="1.1" viewBox="-20.1 -20.1 240.2 240.2" width="600px" xmlns="http://www.w3.org/2000/svg" xmlns:ev="http://www.w3.org/2001/xml-events" xmlns:xlink="http://www.w3.org/1999/xlink">
	<defs/>
	<path d="M 0.0,0.0 L 200.0,0.0 L 200.0,200.0 L 0.0,200.0 L 0.0,0.0" fill="#FDFDFD"/>
	<path d="M 153.0,31.0 L 154.0,31.0 L 154.0,169.0 L 143.0,162.0 L 125.0,149.0 L 105.0,135.0 L 87.0,122.0 L 71.0,111.0 L 71.0,136.0 L 72.0,149.0 L 72.0,165.0 L 40.0,165.0 L 40.0,35.0 L 72.0,35.0 L 72.0,52.0 L 71.0,71.0 L 71.0,89.0 L 91.0,75.0 L 109.0,62.0 L 128.0,49.0 L 143.0,38.0 L 153.0,31.0" fill="#0A0A0A"/>
	<path d="M 144.0,47.0 L 146.0,47.0 L 146.0,153.0 L 142.0,151.0 L 123.0,138.0 L 108.0,127.0 L 91.0,115.0 L 74.0,103.0 L 71.0,101.0 L 71.0,99.0 L 88.0,87.0 L 105.0,75.0 L 122.0,63.0 L 140.0,50.0 L 144.0,47.0" fill="#FAFAFA"/>
	<path d="M 48.0,44.0 L 63.0,44.0 L 63.0,66.0 L 62.0,87.0 L 62.0,119.0 L 63.0,135.0 L 63.0,156.0 L 48.0,156.0 L 48.0,44.0" fill="#FCFCFC"/>
</svg>
