<?xml version="1.0" ?>
<svg baseProfile="full" height="600px" version="1.1" viewBox="-16.08 -16.08 192.16 192.16" width="600px" xmlns="http://www.w3.org/2000/svg" xmlns:ev="http://www.w3.org/2001/xml-events" xmlns:xlink="http://www.w3.org/1999/xlink">
	<defs/>
	<path d="M 0.0,0.0 L 160.0,0.0 L 160.0,160.0 L 0.0,160.0 L 0.0,0.0" fill="#FDFDFE"/>
	<path d="M 44.0,41.0 L 64.0,41.0 L 64.0,56.0 L 76.0,49.0 L 77.0,49.0 L 77.0,111.0 L 66.0,105.0 L 64.0,104.0 L 64.0,119.0 L 44.0,119.0 L 42.0,103.0 L 42.0,56.0 L 44.0,41.0" fill="#547FB9"/>
	<path d="M 48.0,45.0 L 60.0,45.0 L 60.0,53.0 L 59.0,60.0 L 59.0,101.0 L 60.0,115.0 L 48.0,115.0 L 47.0,113.0 L 46.0,102.0 L 46.0,61.0 L 47.0,46.0 L 48.0,45.0" fill="#87B3EC"/>
	<path d="M 71.0,56.0 L 73.0,56.0 L 73.0,104.0 L 68.0,102.0 L 63.0,99.0 L 63.0,61.0 L 71.0,56.0" fill="#88B4ED"/>
</svg>
