<?xml version="1.0" ?>
<svg baseProfile="full" height="600px" version="1.1" viewBox="-16.08 -16.08 192.16 192.16" width="600px" xmlns="http://www.w3.org/2000/svg" xmlns:ev="http://www.w3.org/2001/xml-events" xmlns:xlink="http://www.w3.org/1999/xlink">
	<defs/>
	<path d="M 0.0,0.0 L 160.0,0.0 L 160.0,160.0 L 0.0,160.0 L 0.0,0.0" fill="#FDFDFE"/>
	<path d="M 121.0,44.0 L 122.0,44.0 L 122.0,116.0 L 115.0,112.0 L 97.0,99.0 L 79.0,86.0 L 72.0,81.0 L 72.0,79.0 L 90.0,66.0 L 108.0,53.0 L 121.0,44.0" fill="#88B4ED"/>
	<path d="M 44.0,44.0 L 64.0,44.0 L 64.0,116.0 L 44.0,116.0 L 44.0,44.0" fill="#89B5EE"/>
	<path d="M 121.0,44.0 L 122.0,44.0 L 122.0,116.0 L 115.0,112.0 L 97.0,99.0 L 79.0,86.0 L 72.0,81.0 L 72.0,79.0 L 90.0,66.0 L 108.0,53.0 L 121.0,44.0 M 117.0,52.0 L 100.0,64.0 L 82.0,77.0 L 79.0,79.0 L 79.0,81.0 L 97.0,94.0 L 114.0,106.0 L 118.0,108.0 L 118.0,52.0 L 117.0,52.0" fill="#5681B9"/>
	<path d="M 44.0,44.0 L 64.0,44.0 L 64.0,116.0 L 44.0,116.0 L 44.0,44.0 M 48.0,48.0 L 48.0,112.0 L 60.0,112.0 L 60.0,48.0 L 48.0,48.0" fill="#4E7AB5"/>
</svg>
