<?xml version="1.0" ?>
<svg baseProfile="full" height="600px" version="1.1" viewBox="-20.1 -20.1 240.2 240.2" width="600px" xmlns="http://www.w3.org/2000/svg" xmlns:ev="http://www.w3.org/2001/xml-events" xmlns:xlink="http://www.w3.org/1999/xlink">
	<defs/>
	<path d="M 0.0,0.0 L 200.0,0.0 L 200.0,200.0 L 0.0,200.0 L 0.0,0.0" fill="#FDFDFD"/>
	<path d="M 46.0,31.0 L 57.0,38.0 L 75.0,51.0 L 95.0,65.0 L 113.0,78.0 L 129.0,89.0 L 129.0,68.0 L 128.0,51.0 L 128.0,35.0 L 160.0,35.0 L 160.0,165.0 L 128.0,165.0 L 128.0,148.0 L 129.0,133.0 L 129.0,111.0 L 109.0,125.0 L 91.0,138.0 L 71.0,152.0 L 54.0,164.0 L 46.0,169.0 L 46.0,31.0" fill="#0A0A0A"/>
	<path d="M 54.0,47.0 L 58.0,49.0 L 77.0,62.0 L 92.0,73.0 L 109.0,85.0 L 126.0,97.0 L 129.0,99.0 L 129.0,101.0 L 109.0,115.0 L 91.0,128.0 L 71.0,142.0 L 56.0,153.0 L 54.0,153.0 L 54.0,47.0" fill="#FAFAFA"/>
	<path d="M 137.0,44.0 L 152.0,44.0 L 152.0,156.0 L 137.0,156.0 L 137.0,138.0 L 138.0,119.0 L 138.0,82.0 L 137.0,67.0 L 137.0,44.0" fill="#FDFDFD"/>
</svg>
