<?xml version="1.0" ?>
<svg baseProfile="full" height="600px" version="1.1" viewBox="-16.08 -16.08 192.16 192.16" width="600px" xmlns="http://www.w3.org/2000/svg" xmlns:ev="http://www.w3.org/2001/xml-events" xmlns:xlink="http://www.w3.org/1999/xlink">
	<defs/>
	<path d="M 0.0,0.0 L 160.0,0.0 L 160.0,160.0 L 0.0,160.0 L 0.0,0.0" fill="#FDFDFE"/>
	<path d="M 115.0,44.0 L 116.0,44.0 L 116.0,116.0 L 105.0,109.0 L 85.0,95.0 L 69.0,84.0 L 65.0,81.0 L 66.0,78.0 L 89.0,62.0 L 105.0,51.0 L 115.0,44.0" fill="#89B5EE"/>
	<path d="M 44.0,44.0 L 64.0,44.0 L 64.0,116.0 L 44.0,116.0 L 44.0,44.0" fill="#89B5EE"/>
	<path d="M 115.0,44.0 L 116.0,44.0 L 116.0,116.0 L 105.0,109.0 L 85.0,95.0 L 69.0,84.0 L 65.0,81.0 L 66.0,78.0 L 89.0,62.0 L 105.0,51.0 L 115.0,44.0 M 111.0,52.0 L 92.0,65.0 L 72.0,79.0 L 73.0,82.0 L 95.0,97.0 L 111.0,108.0 L 112.0,108.0 L 112.0,52.0 L 111.0,52.0" fill="#537EB8"/>
	<path d="M 44.0,44.0 L 64.0,44.0 L 64.0,116.0 L 44.0,116.0 L 44.0,44.0 M 48.0,48.0 L 48.0,112.0 L 60.0,112.0 L 60.0,48.0 L 48.0,48.0" fill="#4E7AB5"/>
</svg>
