<?xml version="1.0" ?>
<svg baseProfile="full" height="600px" version="1.1" viewBox="-20.1 -20.1 240.2 240.2" width="600px" xmlns="http://www.w3.org/2000/svg" xmlns:ev="http://www.w3.org/2001/xml-events" xmlns:xlink="http://www.w3.org/1999/xlink">
	<defs/>
	<path d="M 0.0,0.0 L 200.0,0.0 L 200.0,200.0 L 0.0,200.0 L 0.0,0.0" fill="#FDFDFD"/>
	<path d="M 158.0,33.0 L 159.0,33.0 L 159.0,167.0 L 150.0,162.0 L 133.0,150.0 L 121.0,142.0 L 99.0,127.0 L 77.0,112.0 L 73.0,109.0 L 72.0,164.0 L 40.0,164.0 L 40.0,36.0 L 72.0,36.0 L 73.0,91.0 L 87.0,81.0 L 99.0,73.0 L 121.0,58.0 L 143.0,43.0 L 158.0,33.0" fill="#040404"/>
	<path d="M 150.0,48.0 L 151.0,48.0 L 151.0,152.0 L 140.0,145.0 L 116.0,129.0 L 96.0,115.0 L 75.0,101.0 L 75.0,99.0 L 99.0,83.0 L 119.0,69.0 L 143.0,53.0 L 150.0,48.0" fill="#FCFCFC"/>
	<path d="M 48.0,44.0 L 64.0,44.0 L 64.0,156.0 L 48.0,156.0 L 48.0,44.0" fill="#FCFCFC"/>
</svg>
