<?xml version="1.0" ?>
<svg baseProfile="full" height="600px" version="1.1" viewBox="-20.1 -20.1 240.2 240.2" width="600px" xmlns="http://www.w3.org/2000/svg" xmlns:ev="http://www.w3.org/2001/xml-events" xmlns:xlink="http://www.w3.org/1999/xlink">
	<defs/>
	<path d="M 0.0,0.0 L 200.0,0.0 L 200.0,200.0 L 0.0,200.0 L 0.0,0.0" fill="#FCFCFC"/>
	<path d="M 40.0,33.0 L 72.0,33.0 L 72.0,88.0 L 93.0,75.0 L 115.0,61.0 L 134.0,49.0 L 153.0,37.0 L 155.0,37.0 L 155.0,163.0 L 150.0,161.0 L 126.0,146.0 L 104.0,132.0 L 80.0,117.0 L 72.0,112.0 L 72.0,167.0 L 40.0,167.0 L 39.0,144.0 L 39.0,47.0 L 40.0,33.0" fill="#090909"/>
	<path d="M 144.0,52.0 L 146.0,52.0 L 146.0,148.0 L 141.0,146.0 L 123.0,135.0 L 98.0,119.0 L 74.0,104.0 L 70.0,101.0 L 71.0,98.0 L 90.0,86.0 L 109.0,74.0 L 128.0,62.0 L 144.0,52.0" fill="#FBFBFB"/>
	<path d="M 48.0,41.0 L 64.0,41.0 L 63.0,78.0 L 63.0,125.0 L 64.0,144.0 L 64.0,159.0 L 48.0,159.0 L 47.0,151.0 L 47.0,60.0 L 48.0,41.0" fill="#FAFAFA"/>
</svg>
