<?xml version="1.0" ?>
<svg baseProfile="full" height="600px" version="1.1" viewBox="-20.1 -20.1 240.2 240.2" width="600px" xmlns="http://www.w3.org/2000/svg" xmlns:ev="http://www.w3.org/2001/xml-events" xmlns:xlink="http://www.w3.org/1999/xlink">
	<defs/>
	<path d="M 0.0,0.0 L 200.0,0.0 L 200.0,200.0 L 0.0,200.0 L 0.0,0.0" fill="#FDFDFD"/>
	<path d="M 34.0,31.0 L 45.0,38.0 L 63.0,51.0 L 80.0,63.0 L 98.0,76.0 L 115.0,88.0 L 128.0,97.0 L 128.0,36.0 L 160.0,36.0 L 160.0,164.0 L 128.0,164.0 L 128.0,103.0 L 108.0,117.0 L 90.0,130.0 L 73.0,142.0 L 56.0,154.0 L 38.0,167.0 L 35.0,168.0 L 35.0,131.0 L 36.0,118.0 L 36.0,83.0 L 34.0,31.0" fill="#040404"/>
	<path d="M 43.0,48.0 L 48.0,50.0 L 63.0,61.0 L 80.0,73.0 L 98.0,86.0 L 117.0,99.0 L 117.0,101.0 L 101.0,112.0 L 83.0,125.0 L 66.0,137.0 L 49.0,149.0 L 45.0,152.0 L 43.0,152.0 L 43.0,48.0" fill="#FBFBFB"/>
	<path d="M 136.0,44.0 L 152.0,44.0 L 152.0,156.0 L 136.0,156.0 L 136.0,44.0" fill="#FDFDFD"/>
</svg>
