<?xml version="1.0" ?>
<svg baseProfile="full" height="600px" version="1.1" viewBox="-16.08 -16.08 192.16 192.16" width="600px" xmlns="http://www.w3.org/2000/svg" xmlns:ev="http://www.w3.org/2001/xml-events" xmlns:xlink="http://www.w3.org/1999/xlink">
	<defs/>
	<path d="M 0.0,0.0 L 160.0,0.0 L 160.0,160.0 L 0.0,160.0 L 0.0,0.0" fill="#FDFDFE"/>
	<path d="M 44.0,44.0 L 64.0,44.0 L 63.0,63.0 L 63.0,77.0 L 77.0,67.0 L 95.0,54.0 L 109.0,44.0 L 111.0,44.0 L 111.0,117.0 L 102.0,111.0 L 84.0,98.0 L 66.0,85.0 L 63.0,83.0 L 63.0,102.0 L 64.0,116.0 L 44.0,116.0 L 44.0,44.0" fill="#537EB8"/>
	<path d="M 106.0,51.0 L 107.0,51.0 L 107.0,108.0 L 102.0,106.0 L 83.0,92.0 L 67.0,81.0 L 67.0,79.0 L 80.0,70.0 L 98.0,57.0 L 106.0,51.0" fill="#88B4ED"/>
	<path d="M 48.0,48.0 L 59.0,48.0 L 59.0,112.0 L 48.0,112.0 L 48.0,48.0" fill="#89B5EE"/>
</svg>
