<?xml version="1.0" ?>
<svg baseProfile="full" height="600px" version="1.1" viewBox="-16.08 -16.08 192.16 192.16" width="600px" xmlns="http://www.w3.org/2000/svg" xmlns:ev="http://www.w3.org/2001/xml-events" xmlns:xlink="http://www.w3.org/1999/xlink">
	<defs/>
	<path d="M 0.0,0.0 L 160.0,0.0 L 160.0,160.0 L 0.0,160.0 L 0.0,0.0" fill="#FDFDFE"/>
	<path d="M 96.0,42.0 L 116.0,42.0 L 117.0,54.0 L 117.0,107.0 L 116.0,118.0 L 96.0,118.0 L 96.0,104.0 L 97.0,84.0 L 72.0,100.0 L 52.0,113.0 L 50.0,113.0 L 50.0,47.0 L 55.0,49.0 L 72.0,60.0 L 94.0,74.0 L 97.0,76.0 L 96.0,42.0" fill="#547FB9"/>
	<path d="M 54.0,54.0 L 65.0,60.0 L 82.0,71.0 L 94.0,79.0 L 93.0,82.0 L 74.0,94.0 L 57.0,105.0 L 54.0,106.0 L 54.0,54.0" fill="#89B5EE"/>
	<path d="M 100.0,46.0 L 112.0,46.0 L 113.0,51.0 L 113.0,104.0 L 112.0,114.0 L 100.0,114.0 L 100.0,46.0" fill="#88B4ED"/>
</svg>
