<?xml version="1.0" ?>
<svg baseProfile="full" height="600px" version="1.1" viewBox="-19.296000000000003 -19.296000000000003 230.592 230.592" width="600px" xmlns="http://www.w3.org/2000/svg" xmlns:ev="http://www.w3.org/2001/xml-events" xmlns:xlink="http://www.w3.org/1999/xlink">
	<defs/>
	<path d="M 0.0,0.0 L 192.0,0.0 L 192.0,192.0 L 0.0,192.0 L 0.0,0.0" fill="#05AAF4"/>
	<path d="M 0.0,0.0 L 192.0,0.0 L 192.0,192.0 L 0.0,192.0 L 0.0,0.0 M 50.0,12.0 L 40.0,15.0 L 30.0,21.0 L 23.0,27.0 L 16.0,38.0 L 13.0,47.0 L 12.0,53.0 L 12.0,63.0 L 15.0,76.0 L 16.0,78.0 L 16.0,105.0 L 18.0,117.0 L 24.0,132.0 L 30.0,142.0 L 39.0,153.0 L 51.0,163.0 L 66.0,171.0 L 79.0,175.0 L 86.0,176.0 L 114.0,176.0 L 122.0,179.0 L 129.0,180.0 L 142.0,180.0 L 156.0,175.0 L 167.0,167.0 L 175.0,156.0 L 179.0,145.0 L 180.0,140.0 L 180.0,129.0 L 178.0,119.0 L 176.0,114.0 L 176.0,86.0 L 173.0,72.0 L 168.0,60.0 L 162.0,50.0 L 153.0,39.0 L 141.0,29.0 L 125.0,21.0 L 112.0,17.0 L 105.0,16.0 L 78.0,16.0 L 69.0,13.0 L 63.0,12.0 L 50.0,12.0" fill="#FCFEFE"/>
	<path d="M 86.0,53.0 L 102.0,53.0 L 111.0,55.0 L 123.0,61.0 L 130.0,69.0 L 131.0,71.0 L 131.0,77.0 L 126.0,82.0 L 120.0,82.0 L 115.0,78.0 L 109.0,71.0 L 100.0,68.0 L 91.0,68.0 L 87.0,70.0 L 85.0,73.0 L 86.0,80.0 L 98.0,86.0 L 115.0,92.0 L 123.0,97.0 L 128.0,103.0 L 130.0,107.0 L 130.0,119.0 L 126.0,128.0 L 121.0,134.0 L 113.0,138.0 L 110.0,139.0 L 88.0,139.0 L 76.0,135.0 L 66.0,128.0 L 61.0,119.0 L 61.0,113.0 L 65.0,108.0 L 73.0,108.0 L 78.0,113.0 L 84.0,121.0 L 92.0,124.0 L 103.0,124.0 L 109.0,120.0 L 110.0,118.0 L 110.0,112.0 L 106.0,108.0 L 80.0,98.0 L 74.0,94.0 L 69.0,89.0 L 66.0,82.0 L 66.0,71.0 L 70.0,63.0 L 78.0,56.0 L 86.0,53.0" fill="#F9FDFE"/>
</svg>
