<?xml version="1.0" ?>
<svg baseProfile="full" height="600px" version="1.1" viewBox="-19.296000000000003 -19.296000000000003 230.592 230.592" width="600px" xmlns="http://www.w3.org/2000/svg" xmlns:ev="http://www.w3.org/2001/xml-events" xmlns:xlink="http://www.w3.org/1999/xlink">
	<defs/>
	<path d="M 0.0,0.0 L 192.0,0.0 L 192.0,192.0 L 0.0,192.0 L 0.0,0.0" fill="#05AAF4"/>
	<path d="M 0.0,0.0 L 192.0,0.0 L 192.0,192.0 L 0.0,192.0 L 0.0,0.0 M 50.0,12.0 L 40.0,15.0 L 30.0,21.0 L 23.0,27.0 L 16.0,38.0 L 13.0,47.0 L 12.0,53.0 L 12.0,63.0 L 15.0,76.0 L 16.0,78.0 L 16.0,105.0 L 18.0,117.0 L 24.0,132.0 L 30.0,142.0 L 39.0,153.0 L 51.0,163.0 L 66.0,171.0 L 79.0,175.0 L 86.0,176.0 L 114.0,176.0 L 122.0,179.0 L 129.0,180.0 L 142.0,180.0 L 156.0,175.0 L 167.0,167.0 L 175.0,156.0 L 179.0,145.0 L 180.0,140.0 L 180.0,129.0 L 178.0,119.0 L 176.0,114.0 L 176.0,86.0 L 173.0,72.0 L 168.0,60.0 L 162.0,50.0 L 153.0,39.0 L 141.0,29.0 L 125.0,21.0 L 112.0,17.0 L 105.0,16.0 L 78.0,16.0 L 69.0,13.0 L 63.0,12.0 L 50.0,12.0" fill="#FCFEFE"/>
	<path d="M 90.0,49.0 L 103.0,49.0 L 112.0,51.0 L 121.0,55.0 L 128.0,60.0 L 131.0,65.0 L 131.0,73.0 L 127.0,77.0 L 118.0,77.0 L 110.0,69.0 L 101.0,65.0 L 90.0,65.0 L 83.0,69.0 L 82.0,71.0 L 82.0,78.0 L 87.0,82.0 L 118.0,90.0 L 126.0,94.0 L 133.0,102.0 L 135.0,108.0 L 135.0,121.0 L 130.0,131.0 L 125.0,136.0 L 116.0,141.0 L 108.0,143.0 L 87.0,143.0 L 75.0,139.0 L 66.0,133.0 L 61.0,125.0 L 61.0,116.0 L 65.0,112.0 L 73.0,112.0 L 79.0,117.0 L 85.0,124.0 L 92.0,127.0 L 103.0,127.0 L 111.0,123.0 L 114.0,119.0 L 114.0,113.0 L 111.0,109.0 L 85.0,102.0 L 72.0,97.0 L 65.0,91.0 L 61.0,82.0 L 61.0,70.0 L 66.0,60.0 L 73.0,54.0 L 83.0,50.0 L 90.0,49.0" fill="#FAFDFE"/>
</svg>
