<?xml version="1.0" ?>
<svg baseProfile="full" height="600px" version="1.1" viewBox="-19.296000000000003 -19.296000000000003 230.592 230.592" width="600px" xmlns="http://www.w3.org/2000/svg" xmlns:ev="http://www.w3.org/2001/xml-events" xmlns:xlink="http://www.w3.org/1999/xlink">
	<defs/>
	<path d="M 0.0,0.0 L 192.0,0.0 L 192.0,192.0 L 0.0,192.0 L 0.0,0.0" fill="#05AAF4"/>
	<path d="M 0.0,0.0 L 192.0,0.0 L 192.0,192.0 L 0.0,192.0 L 0.0,0.0 M 50.0,12.0 L 40.0,15.0 L 31.0,20.0 L 22.0,28.0 L 16.0,38.0 L 13.0,45.0 L 12.0,50.0 L 12.0,65.0 L 16.0,78.0 L 16.0,105.0 L 18.0,116.0 L 22.0,128.0 L 29.0,141.0 L 38.0,152.0 L 48.0,161.0 L 62.0,169.0 L 75.0,174.0 L 87.0,176.0 L 114.0,176.0 L 125.0,180.0 L 142.0,180.0 L 154.0,176.0 L 164.0,170.0 L 173.0,160.0 L 178.0,149.0 L 180.0,142.0 L 180.0,125.0 L 176.0,114.0 L 176.0,87.0 L 173.0,71.0 L 165.0,54.0 L 155.0,41.0 L 144.0,31.0 L 130.0,23.0 L 120.0,19.0 L 113.0,17.0 L 105.0,16.0 L 78.0,16.0 L 65.0,12.0 L 50.0,12.0" fill="#FCFDFE"/>
	<path d="M 89.0,48.0 L 104.0,48.0 L 117.0,52.0 L 125.0,58.0 L 129.0,63.0 L 130.0,72.0 L 126.0,77.0 L 124.0,78.0 L 118.0,78.0 L 110.0,71.0 L 105.0,67.0 L 99.0,65.0 L 88.0,65.0 L 80.0,68.0 L 76.0,73.0 L 76.0,79.0 L 78.0,83.0 L 86.0,86.0 L 112.0,90.0 L 124.0,95.0 L 131.0,103.0 L 133.0,108.0 L 133.0,122.0 L 129.0,131.0 L 121.0,138.0 L 109.0,143.0 L 103.0,144.0 L 86.0,144.0 L 76.0,141.0 L 68.0,136.0 L 63.0,130.0 L 62.0,123.0 L 66.0,118.0 L 68.0,117.0 L 74.0,117.0 L 80.0,121.0 L 85.0,125.0 L 89.0,127.0 L 104.0,127.0 L 111.0,123.0 L 112.0,121.0 L 112.0,113.0 L 107.0,110.0 L 93.0,107.0 L 76.0,105.0 L 66.0,101.0 L 59.0,95.0 L 55.0,87.0 L 55.0,70.0 L 59.0,62.0 L 68.0,54.0 L 77.0,50.0 L 89.0,48.0" fill="#F9FDFE"/>
</svg>
