<?xml version="1.0" ?>
<svg baseProfile="full" height="600px" version="1.1" viewBox="-19.296000000000003 -19.296000000000003 230.592 230.592" width="600px" xmlns="http://www.w3.org/2000/svg" xmlns:ev="http://www.w3.org/2001/xml-events" xmlns:xlink="http://www.w3.org/1999/xlink">
	<defs/>
	<path d="M 0.0,0.0 L 192.0,0.0 L 192.0,192.0 L 0.0,192.0 L 0.0,0.0" fill="#05AAF4"/>
	<path d="M 0.0,0.0 L 192.0,0.0 L 192.0,192.0 L 0.0,192.0 L 0.0,0.0 M 50.0,12.0 L 40.0,15.0 L 30.0,21.0 L 23.0,27.0 L 16.0,38.0 L 13.0,47.0 L 12.0,53.0 L 12.0,63.0 L 15.0,76.0 L 16.0,78.0 L 16.0,105.0 L 18.0,117.0 L 24.0,132.0 L 30.0,142.0 L 39.0,153.0 L 51.0,163.0 L 66.0,171.0 L 79.0,175.0 L 86.0,176.0 L 114.0,176.0 L 122.0,179.0 L 129.0,180.0 L 139.0,180.0 L 151.0,177.0 L 161.0,172.0 L 168.0,166.0 L 175.0,156.0 L 178.0,150.0 L 180.0,142.0 L 180.0,129.0 L 178.0,119.0 L 176.0,114.0 L 176.0,86.0 L 173.0,72.0 L 168.0,60.0 L 162.0,50.0 L 153.0,39.0 L 141.0,29.0 L 125.0,21.0 L 112.0,17.0 L 105.0,16.0 L 78.0,16.0 L 69.0,13.0 L 63.0,12.0 L 50.0,12.0" fill="#FCFEFE"/>
	<path d="M 87.0,48.0 L 102.0,48.0 L 112.0,50.0 L 122.0,54.0 L 130.0,61.0 L 132.0,65.0 L 131.0,74.0 L 127.0,77.0 L 119.0,77.0 L 111.0,69.0 L 106.0,66.0 L 102.0,65.0 L 88.0,65.0 L 83.0,68.0 L 82.0,70.0 L 82.0,78.0 L 88.0,82.0 L 116.0,89.0 L 125.0,93.0 L 132.0,99.0 L 136.0,108.0 L 136.0,119.0 L 133.0,128.0 L 129.0,134.0 L 121.0,140.0 L 107.0,144.0 L 88.0,144.0 L 75.0,140.0 L 66.0,134.0 L 62.0,129.0 L 60.0,124.0 L 60.0,117.0 L 65.0,112.0 L 72.0,112.0 L 79.0,118.0 L 84.0,124.0 L 90.0,127.0 L 104.0,127.0 L 111.0,124.0 L 114.0,120.0 L 114.0,113.0 L 110.0,109.0 L 102.0,106.0 L 78.0,100.0 L 69.0,95.0 L 62.0,87.0 L 60.0,80.0 L 60.0,71.0 L 64.0,61.0 L 71.0,54.0 L 79.0,50.0 L 87.0,48.0" fill="#F9FDFE"/>
</svg>
