<?xml version="1.0" ?>
<svg baseProfile="full" height="600px" version="1.1" viewBox="-12.864 -12.864 153.728 153.728" width="600px" xmlns="http://www.w3.org/2000/svg" xmlns:ev="http://www.w3.org/2001/xml-events" xmlns:xlink="http://www.w3.org/1999/xlink">
	<defs/>
	<path d="M 0.0,0.0 L 128.0,0.0 L 128.0,128.0 L 0.0,128.0 L 0.0,0.0" fill="#FCFCFC"/>
	<path d="M 56.0,16.0 L 69.0,16.0 L 78.0,18.0 L 88.0,22.0 L 97.0,29.0 L 105.0,38.0 L 110.0,48.0 L 112.0,57.0 L 112.0,70.0 L 110.0,79.0 L 106.0,88.0 L 102.0,94.0 L 96.0,101.0 L 85.0,108.0 L 78.0,111.0 L 72.0,112.0 L 54.0,112.0 L 43.0,108.0 L 32.0,101.0 L 24.0,92.0 L 19.0,82.0 L 16.0,73.0 L 16.0,59.0 L 19.0,46.0 L 24.0,37.0 L 33.0,27.0 L 44.0,20.0 L 56.0,16.0" fill="#FAFAFA"/>
	<path d="M 56.0,16.0 L 69.0,16.0 L 78.0,18.0 L 88.0,22.0 L 97.0,29.0 L 105.0,38.0 L 110.0,48.0 L 112.0,57.0 L 112.0,70.0 L 110.0,79.0 L 106.0,88.0 L 102.0,94.0 L 96.0,101.0 L 85.0,108.0 L 78.0,111.0 L 72.0,112.0 L 54.0,112.0 L 43.0,108.0 L 32.0,101.0 L 24.0,92.0 L 19.0,82.0 L 16.0,73.0 L 16.0,59.0 L 19.0,46.0 L 24.0,37.0 L 33.0,27.0 L 44.0,20.0 L 56.0,16.0 M 59.0,24.0 L 46.0,28.0 L 35.0,36.0 L 28.0,46.0 L 24.0,57.0 L 24.0,70.0 L 27.0,80.0 L 33.0,90.0 L 40.0,97.0 L 52.0,103.0 L 57.0,104.0 L 71.0,104.0 L 83.0,100.0 L 91.0,94.0 L 98.0,86.0 L 102.0,78.0 L 104.0,69.0 L 104.0,58.0 L 101.0,48.0 L 96.0,40.0 L 91.0,34.0 L 82.0,28.0 L 70.0,24.0 L 59.0,24.0" fill="#080808"/>
	<path d="M 68.0,50.0 L 92.0,50.0 L 92.0,58.0 L 68.0,58.0 L 68.0,50.0" fill="#080808"/>
	<path d="M 36.0,50.0 L 60.0,50.0 L 60.0,58.0 L 36.0,58.0 L 36.0,50.0" fill="#080808"/>
	<path d="M 55.0,77.0 L 72.0,77.0 L 73.0,78.0 L 73.0,86.0 L 55.0,86.0 L 55.0,77.0" fill="#262626"/>
</svg>
