<?xml version="1.0" ?>
<svg baseProfile="full" height="600px" version="1.1" viewBox="-19.296000000000003 -19.296000000000003 230.592 230.592" width="600px" xmlns="http://www.w3.org/2000/svg" xmlns:ev="http://www.w3.org/2001/xml-events" xmlns:xlink="http://www.w3.org/1999/xlink">
	<defs/>
	<path d="M 0.0,0.0 L 192.0,0.0 L 192.0,192.0 L 0.0,192.0 L 0.0,0.0" fill="#FFEE59"/>
	<path d="M 0.0,0.0 L 192.0,0.0 L 192.0,192.0 L 0.0,192.0 L 0.0,0.0 M 84.0,16.0 L 68.0,20.0 L 51.0,29.0 L 41.0,37.0 L 34.0,44.0 L 25.0,58.0 L 19.0,71.0 L 16.0,87.0 L 16.0,105.0 L 19.0,120.0 L 24.0,132.0 L 31.0,144.0 L 43.0,157.0 L 56.0,166.0 L 69.0,172.0 L 80.0,175.0 L 87.0,176.0 L 108.0,176.0 L 123.0,172.0 L 139.0,164.0 L 150.0,156.0 L 157.0,149.0 L 166.0,136.0 L 173.0,121.0 L 176.0,108.0 L 176.0,87.0 L 173.0,72.0 L 168.0,60.0 L 161.0,48.0 L 149.0,35.0 L 136.0,26.0 L 123.0,20.0 L 113.0,17.0 L 105.0,16.0 L 84.0,16.0" fill="#FFFEFC"/>
	<path d="M 88.0,44.0 L 98.0,44.0 L 112.0,51.0 L 129.0,51.0 L 131.0,56.0 L 143.0,59.0 L 145.0,60.0 L 145.0,63.0 L 135.0,68.0 L 129.0,75.0 L 125.0,82.0 L 125.0,89.0 L 130.0,92.0 L 137.0,95.0 L 136.0,99.0 L 135.0,100.0 L 125.0,100.0 L 126.0,110.0 L 126.0,123.0 L 122.0,132.0 L 117.0,138.0 L 107.0,143.0 L 103.0,144.0 L 90.0,144.0 L 80.0,139.0 L 72.0,130.0 L 69.0,117.0 L 69.0,104.0 L 62.0,106.0 L 57.0,106.0 L 56.0,101.0 L 66.0,95.0 L 66.0,89.0 L 59.0,80.0 L 50.0,74.0 L 42.0,72.0 L 43.0,68.0 L 51.0,64.0 L 55.0,64.0 L 56.0,57.0 L 71.0,55.0 L 82.0,47.0 L 88.0,44.0" fill="#FFFEFC"/>
</svg>
