<?xml version="1.0" ?>
<svg baseProfile="full" height="600px" version="1.1" viewBox="-20.1 -20.1 240.2 240.2" width="600px" xmlns="http://www.w3.org/2000/svg" xmlns:ev="http://www.w3.org/2001/xml-events" xmlns:xlink="http://www.w3.org/1999/xlink">
	<defs/>
	<path d="M 0.0,0.0 L 200.0,0.0 L 200.0,200.0 L 0.0,200.0 L 0.0,0.0" fill="#FCFCFC"/>
	<path d="M 91.0,20.0 L 106.0,20.0 L 119.0,23.0 L 129.0,29.0 L 136.0,36.0 L 142.0,47.0 L 143.0,54.0 L 143.0,86.0 L 146.0,90.0 L 157.0,90.0 L 159.0,89.0 L 165.0,89.0 L 164.0,92.0 L 151.0,97.0 L 146.0,101.0 L 145.0,103.0 L 145.0,112.0 L 151.0,124.0 L 158.0,133.0 L 167.0,141.0 L 181.0,148.0 L 179.0,150.0 L 163.0,154.0 L 160.0,158.0 L 158.0,164.0 L 136.0,164.0 L 126.0,169.0 L 116.0,176.0 L 107.0,180.0 L 93.0,180.0 L 79.0,173.0 L 71.0,167.0 L 62.0,164.0 L 42.0,164.0 L 38.0,155.0 L 35.0,153.0 L 21.0,150.0 L 19.0,148.0 L 34.0,140.0 L 44.0,131.0 L 51.0,121.0 L 55.0,112.0 L 55.0,103.0 L 50.0,98.0 L 38.0,93.0 L 35.0,91.0 L 35.0,89.0 L 42.0,90.0 L 53.0,90.0 L 57.0,86.0 L 57.0,54.0 L 59.0,45.0 L 65.0,35.0 L 72.0,28.0 L 83.0,22.0 L 91.0,20.0" fill="#FCFCFC"/>
	<path d="M 89.0,12.0 L 109.0,12.0 L 117.0,14.0 L 129.0,19.0 L 139.0,27.0 L 146.0,37.0 L 151.0,49.0 L 151.0,83.0 L 159.0,80.0 L 168.0,81.0 L 173.0,85.0 L 174.0,92.0 L 168.0,99.0 L 155.0,104.0 L 153.0,106.0 L 154.0,113.0 L 161.0,124.0 L 166.0,130.0 L 176.0,137.0 L 190.0,142.0 L 192.0,144.0 L 191.0,151.0 L 185.0,156.0 L 173.0,160.0 L 167.0,160.0 L 166.0,168.0 L 163.0,172.0 L 138.0,172.0 L 129.0,177.0 L 118.0,184.0 L 111.0,187.0 L 106.0,188.0 L 91.0,188.0 L 75.0,180.0 L 66.0,174.0 L 62.0,172.0 L 48.0,172.0 L 39.0,173.0 L 34.0,169.0 L 32.0,161.0 L 17.0,157.0 L 11.0,153.0 L 8.0,149.0 L 8.0,144.0 L 11.0,141.0 L 24.0,137.0 L 35.0,129.0 L 44.0,117.0 L 47.0,111.0 L 48.0,105.0 L 39.0,102.0 L 31.0,98.0 L 26.0,92.0 L 27.0,85.0 L 32.0,81.0 L 41.0,81.0 L 49.0,83.0 L 49.0,49.0 L 54.0,37.0 L 62.0,26.0 L 73.0,18.0 L 85.0,13.0 L 89.0,12.0 M 91.0,20.0 L 81.0,23.0 L 71.0,29.0 L 64.0,36.0 L 58.0,47.0 L 57.0,54.0 L 57.0,86.0 L 53.0,90.0 L 42.0,90.0 L 35.0,89.0 L 36.0,92.0 L 49.0,97.0 L 54.0,101.0 L 55.0,103.0 L 55.0,112.0 L 48.0,126.0 L 37.0,138.0 L 27.0,144.0 L 19.0,148.0 L 21.0,150.0 L 37.0,154.0 L 40.0,158.0 L 42.0,164.0 L 62.0,164.0 L 72.0,168.0 L 86.0,177.0 L 93.0,180.0 L 107.0,180.0 L 121.0,173.0 L 131.0,166.0 L 136.0,164.0 L 158.0,164.0 L 162.0,155.0 L 165.0,153.0 L 179.0,150.0 L 181.0,148.0 L 167.0,141.0 L 155.0,130.0 L 147.0,117.0 L 145.0,112.0 L 145.0,103.0 L 150.0,98.0 L 159.0,94.0 L 165.0,91.0 L 165.0,89.0 L 159.0,89.0 L 157.0,90.0 L 146.0,90.0 L 143.0,86.0 L 143.0,54.0 L 141.0,45.0 L 135.0,35.0 L 128.0,28.0 L 116.0,22.0 L 106.0,20.0 L 91.0,20.0" fill="#080808"/>
</svg>
