<?xml version="1.0" ?>
<svg baseProfile="full" height="600px" version="1.1" viewBox="-20.1 -20.1 240.2 240.2" width="600px" xmlns="http://www.w3.org/2000/svg" xmlns:ev="http://www.w3.org/2001/xml-events" xmlns:xlink="http://www.w3.org/1999/xlink">
	<defs/>
	<path d="M 0.0,0.0 L 200.0,0.0 L 200.0,200.0 L 0.0,200.0 L 0.0,0.0" fill="#FCFCFC"/>
	<path d="M 92.0,32.0 L 106.0,32.0 L 118.0,35.0 L 129.0,41.0 L 137.0,50.0 L 142.0,59.0 L 143.0,63.0 L 144.0,101.0 L 148.0,103.0 L 157.0,102.0 L 165.0,101.0 L 164.0,104.0 L 150.0,110.0 L 145.0,115.0 L 145.0,124.0 L 152.0,138.0 L 161.0,148.0 L 170.0,155.0 L 181.0,160.0 L 179.0,162.0 L 163.0,166.0 L 160.0,170.0 L 159.0,176.0 L 139.0,176.0 L 130.0,179.0 L 115.0,189.0 L 108.0,192.0 L 92.0,192.0 L 80.0,186.0 L 70.0,179.0 L 61.0,176.0 L 41.0,176.0 L 39.0,168.0 L 32.0,165.0 L 20.0,162.0 L 19.0,160.0 L 35.0,152.0 L 46.0,141.0 L 54.0,127.0 L 55.0,124.0 L 55.0,115.0 L 50.0,110.0 L 36.0,104.0 L 35.0,101.0 L 41.0,102.0 L 44.0,103.0 L 52.0,103.0 L 56.0,101.0 L 57.0,99.0 L 57.0,63.0 L 61.0,53.0 L 68.0,44.0 L 76.0,38.0 L 84.0,34.0 L 92.0,32.0" fill="#FCFCFC"/>
	<path d="M 91.0,24.0 L 109.0,24.0 L 122.0,28.0 L 133.0,34.0 L 142.0,43.0 L 149.0,55.0 L 151.0,61.0 L 151.0,95.0 L 158.0,93.0 L 167.0,93.0 L 172.0,96.0 L 174.0,99.0 L 173.0,106.0 L 168.0,111.0 L 154.0,117.0 L 153.0,118.0 L 154.0,125.0 L 160.0,135.0 L 168.0,144.0 L 178.0,150.0 L 190.0,154.0 L 192.0,157.0 L 191.0,164.0 L 184.0,169.0 L 168.0,173.0 L 165.0,182.0 L 162.0,185.0 L 155.0,185.0 L 151.0,184.0 L 139.0,184.0 L 129.0,189.0 L 119.0,196.0 L 108.0,200.0 L 90.0,200.0 L 76.0,193.0 L 66.0,186.0 L 61.0,184.0 L 48.0,184.0 L 45.0,185.0 L 38.0,185.0 L 34.0,180.0 L 32.0,173.0 L 16.0,169.0 L 9.0,164.0 L 8.0,157.0 L 12.0,153.0 L 24.0,149.0 L 33.0,143.0 L 41.0,134.0 L 47.0,123.0 L 47.0,118.0 L 38.0,114.0 L 28.0,108.0 L 26.0,104.0 L 27.0,98.0 L 31.0,94.0 L 33.0,93.0 L 41.0,93.0 L 49.0,95.0 L 49.0,63.0 L 52.0,53.0 L 59.0,42.0 L 67.0,34.0 L 83.0,26.0 L 91.0,24.0 M 92.0,32.0 L 79.0,36.0 L 68.0,44.0 L 61.0,53.0 L 57.0,63.0 L 57.0,99.0 L 54.0,102.0 L 52.0,103.0 L 44.0,103.0 L 39.0,101.0 L 35.0,101.0 L 36.0,104.0 L 50.0,110.0 L 55.0,115.0 L 55.0,124.0 L 48.0,138.0 L 39.0,148.0 L 32.0,154.0 L 19.0,160.0 L 20.0,162.0 L 38.0,167.0 L 40.0,170.0 L 41.0,176.0 L 61.0,176.0 L 72.0,180.0 L 85.0,189.0 L 92.0,192.0 L 108.0,192.0 L 120.0,186.0 L 130.0,179.0 L 139.0,176.0 L 159.0,176.0 L 161.0,168.0 L 163.0,166.0 L 179.0,162.0 L 181.0,160.0 L 167.0,153.0 L 157.0,144.0 L 150.0,135.0 L 145.0,124.0 L 145.0,115.0 L 150.0,110.0 L 164.0,104.0 L 165.0,101.0 L 157.0,102.0 L 148.0,103.0 L 144.0,101.0 L 143.0,63.0 L 139.0,53.0 L 132.0,44.0 L 124.0,38.0 L 112.0,33.0 L 106.0,32.0 L 92.0,32.0" fill="#080808"/>
	<path d="M 167.0,0.0 L 200.0,0.0 L 200.0,27.0 L 194.0,37.0 L 186.0,42.0 L 180.0,44.0 L 169.0,45.0 L 162.0,48.0 L 156.0,48.0 L 154.0,46.0 L 155.0,38.0 L 150.0,32.0 L 148.0,28.0 L 148.0,17.0 L 152.0,9.0 L 160.0,3.0 L 167.0,0.0" fill="#070707"/>
	<path d="M 168.0,8.0 L 178.0,8.0 L 186.0,11.0 L 191.0,17.0 L 192.0,19.0 L 192.0,25.0 L 188.0,31.0 L 182.0,35.0 L 168.0,37.0 L 164.0,37.0 L 161.0,32.0 L 157.0,28.0 L 156.0,26.0 L 156.0,18.0 L 162.0,11.0 L 168.0,8.0" fill="#F9F9F9"/>
	<path d="M 179.0,0.0 L 200.0,0.0 L 200.0,17.0 L 197.0,13.0 L 194.0,8.0 L 186.0,3.0 L 179.0,1.0 L 179.0,0.0" fill="#F4F4F4"/>
</svg>
