<?xml version="1.0" ?>
<svg baseProfile="full" height="600px" version="1.1" viewBox="-19.296000000000003 -19.296000000000003 230.592 230.592" width="600px" xmlns="http://www.w3.org/2000/svg" xmlns:ev="http://www.w3.org/2001/xml-events" xmlns:xlink="http://www.w3.org/1999/xlink">
	<defs/>
	<path d="M 0.0,0.0 L 192.0,0.0 L 192.0,192.0 L 0.0,192.0 L 0.0,0.0" fill="#FFEE59"/>
	<path d="M 0.0,0.0 L 192.0,0.0 L 192.0,192.0 L 0.0,192.0 L 0.0,0.0 M 82.0,10.0 L 67.0,14.0 L 50.0,22.0 L 36.0,33.0 L 27.0,43.0 L 20.0,54.0 L 14.0,67.0 L 10.0,82.0 L 10.0,107.0 L 13.0,122.0 L 20.0,138.0 L 27.0,149.0 L 38.0,161.0 L 49.0,169.0 L 64.0,177.0 L 77.0,181.0 L 83.0,182.0 L 110.0,182.0 L 127.0,177.0 L 143.0,169.0 L 152.0,162.0 L 161.0,154.0 L 169.0,143.0 L 177.0,127.0 L 182.0,110.0 L 182.0,83.0 L 178.0,67.0 L 170.0,51.0 L 164.0,42.0 L 154.0,31.0 L 143.0,23.0 L 127.0,15.0 L 114.0,11.0 L 107.0,10.0 L 82.0,10.0" fill="#FFFEFC"/>
	<path d="M 87.0,41.0 L 103.0,41.0 L 114.0,45.0 L 123.0,53.0 L 128.0,63.0 L 128.0,89.0 L 141.0,88.0 L 143.0,90.0 L 142.0,94.0 L 130.0,100.0 L 130.0,107.0 L 136.0,117.0 L 145.0,125.0 L 155.0,129.0 L 155.0,133.0 L 144.0,137.0 L 140.0,138.0 L 138.0,145.0 L 121.0,145.0 L 111.0,151.0 L 101.0,156.0 L 92.0,156.0 L 82.0,152.0 L 73.0,146.0 L 71.0,145.0 L 54.0,145.0 L 52.0,138.0 L 41.0,135.0 L 36.0,132.0 L 36.0,129.0 L 49.0,124.0 L 58.0,115.0 L 62.0,107.0 L 62.0,100.0 L 50.0,94.0 L 49.0,90.0 L 51.0,88.0 L 63.0,89.0 L 64.0,63.0 L 69.0,53.0 L 78.0,45.0 L 87.0,41.0" fill="#FFFEFC"/>
</svg>
