<?xml version="1.0" ?>
<svg baseProfile="full" height="600px" version="1.1" viewBox="-19.296000000000003 -19.296000000000003 230.592 230.592" width="600px" xmlns="http://www.w3.org/2000/svg" xmlns:ev="http://www.w3.org/2001/xml-events" xmlns:xlink="http://www.w3.org/1999/xlink">
	<defs/>
	<path d="M 0.0,0.0 L 192.0,0.0 L 192.0,192.0 L 0.0,192.0 L 0.0,0.0" fill="#FFEE59"/>
	<path d="M 0.0,0.0 L 192.0,0.0 L 192.0,192.0 L 0.0,192.0 L 0.0,0.0 M 88.0,16.0 L 79.0,17.0 L 64.0,22.0 L 50.0,30.0 L 39.0,39.0 L 29.0,51.0 L 21.0,67.0 L 17.0,79.0 L 16.0,88.0 L 16.0,105.0 L 18.0,117.0 L 24.0,132.0 L 30.0,142.0 L 39.0,153.0 L 51.0,163.0 L 66.0,171.0 L 82.0,175.0 L 86.0,176.0 L 106.0,176.0 L 122.0,172.0 L 134.0,167.0 L 145.0,160.0 L 156.0,150.0 L 164.0,139.0 L 171.0,125.0 L 175.0,112.0 L 176.0,106.0 L 176.0,85.0 L 172.0,69.0 L 164.0,53.0 L 154.0,40.0 L 145.0,32.0 L 132.0,24.0 L 119.0,19.0 L 105.0,16.0 L 88.0,16.0" fill="#FFFEFC"/>
	<path d="M 98.0,69.0 L 108.0,69.0 L 116.0,73.0 L 122.0,82.0 L 122.0,91.0 L 118.0,97.0 L 113.0,103.0 L 113.0,105.0 L 117.0,107.0 L 117.0,111.0 L 108.0,110.0 L 106.0,113.0 L 106.0,124.0 L 109.0,129.0 L 109.0,131.0 L 95.0,130.0 L 89.0,125.0 L 80.0,124.0 L 74.0,120.0 L 71.0,115.0 L 68.0,107.0 L 62.0,103.0 L 62.0,97.0 L 59.0,92.0 L 59.0,89.0 L 62.0,90.0 L 75.0,90.0 L 79.0,88.0 L 78.0,77.0 L 82.0,78.0 L 84.0,81.0 L 86.0,81.0 L 93.0,72.0 L 98.0,69.0" fill="#FFFEFB"/>
</svg>
