<?xml version="1.0" ?>
<svg baseProfile="full" height="600px" version="1.1" viewBox="-19.296000000000003 -19.296000000000003 230.592 230.592" width="600px" xmlns="http://www.w3.org/2000/svg" xmlns:ev="http://www.w3.org/2001/xml-events" xmlns:xlink="http://www.w3.org/1999/xlink">
	<defs/>
	<path d="M 0.0,0.0 L 192.0,0.0 L 192.0,192.0 L 0.0,192.0 L 0.0,0.0" fill="#FFEE5A"/>
	<path d="M 0.0,0.0 L 192.0,0.0 L 192.0,192.0 L 0.0,192.0 L 0.0,0.0 M 88.0,16.0 L 79.0,17.0 L 64.0,22.0 L 50.0,30.0 L 39.0,39.0 L 29.0,51.0 L 21.0,67.0 L 17.0,79.0 L 16.0,88.0 L 16.0,105.0 L 18.0,117.0 L 24.0,132.0 L 30.0,142.0 L 39.0,153.0 L 51.0,163.0 L 66.0,171.0 L 82.0,175.0 L 86.0,176.0 L 106.0,176.0 L 125.0,171.0 L 141.0,163.0 L 154.0,152.0 L 164.0,139.0 L 171.0,125.0 L 175.0,112.0 L 176.0,106.0 L 176.0,85.0 L 172.0,69.0 L 164.0,53.0 L 157.0,44.0 L 151.0,37.0 L 139.0,28.0 L 125.0,21.0 L 112.0,17.0 L 105.0,16.0 L 88.0,16.0" fill="#FFFEFC"/>
	<path d="M 89.0,48.0 L 102.0,48.0 L 111.0,51.0 L 119.0,58.0 L 124.0,68.0 L 124.0,90.0 L 135.0,89.0 L 137.0,93.0 L 134.0,96.0 L 125.0,99.0 L 125.0,105.0 L 132.0,116.0 L 140.0,122.0 L 148.0,125.0 L 146.0,129.0 L 135.0,132.0 L 132.0,139.0 L 117.0,139.0 L 104.0,147.0 L 101.0,148.0 L 90.0,148.0 L 80.0,142.0 L 75.0,139.0 L 60.0,139.0 L 58.0,133.0 L 46.0,129.0 L 44.0,125.0 L 54.0,121.0 L 60.0,116.0 L 67.0,105.0 L 67.0,99.0 L 58.0,96.0 L 55.0,93.0 L 57.0,89.0 L 68.0,90.0 L 68.0,69.0 L 72.0,59.0 L 81.0,51.0 L 89.0,48.0" fill="#FFFEFC"/>
</svg>
