<?xml version="1.0" ?>
<svg baseProfile="full" height="600px" version="1.1" viewBox="-19.296000000000003 -19.296000000000003 230.592 230.592" width="600px" xmlns="http://www.w3.org/2000/svg" xmlns:ev="http://www.w3.org/2001/xml-events" xmlns:xlink="http://www.w3.org/1999/xlink">
	<defs/>
	<path d="M 0.0,0.0 L 192.0,0.0 L 192.0,192.0 L 0.0,192.0 L 0.0,0.0" fill="#FFEE5A"/>
	<path d="M 0.0,0.0 L 192.0,0.0 L 192.0,192.0 L 0.0,192.0 L 0.0,0.0 M 88.0,16.0 L 79.0,17.0 L 64.0,22.0 L 50.0,30.0 L 39.0,39.0 L 29.0,51.0 L 21.0,67.0 L 17.0,79.0 L 16.0,88.0 L 16.0,105.0 L 18.0,117.0 L 24.0,132.0 L 30.0,142.0 L 39.0,153.0 L 51.0,163.0 L 66.0,171.0 L 82.0,175.0 L 86.0,176.0 L 106.0,176.0 L 122.0,172.0 L 134.0,167.0 L 145.0,160.0 L 156.0,150.0 L 164.0,139.0 L 171.0,125.0 L 175.0,112.0 L 176.0,106.0 L 176.0,85.0 L 172.0,69.0 L 164.0,53.0 L 154.0,40.0 L 145.0,32.0 L 132.0,24.0 L 119.0,19.0 L 105.0,16.0 L 88.0,16.0" fill="#FFFEFC"/>
	<path d="M 86.0,43.0 L 100.0,43.0 L 110.0,47.0 L 118.0,54.0 L 123.0,64.0 L 124.0,70.0 L 124.0,88.0 L 131.0,86.0 L 137.0,86.0 L 139.0,90.0 L 134.0,94.0 L 127.0,98.0 L 127.0,105.0 L 133.0,113.0 L 141.0,120.0 L 148.0,123.0 L 153.0,124.0 L 152.0,128.0 L 143.0,132.0 L 139.0,133.0 L 137.0,140.0 L 122.0,141.0 L 112.0,147.0 L 107.0,151.0 L 102.0,153.0 L 91.0,153.0 L 84.0,150.0 L 75.0,145.0 L 57.0,145.0 L 55.0,138.0 L 45.0,137.0 L 39.0,134.0 L 39.0,131.0 L 51.0,125.0 L 58.0,117.0 L 62.0,109.0 L 62.0,102.0 L 50.0,97.0 L 49.0,92.0 L 50.0,91.0 L 62.0,91.0 L 62.0,64.0 L 68.0,54.0 L 76.0,47.0 L 86.0,43.0" fill="#FFFEFC"/>
</svg>
