<?xml version="1.0" ?>
<svg baseProfile="full" height="600px" version="1.1" viewBox="-19.296000000000003 -19.296000000000003 230.592 230.592" width="600px" xmlns="http://www.w3.org/2000/svg" xmlns:ev="http://www.w3.org/2001/xml-events" xmlns:xlink="http://www.w3.org/1999/xlink">
	<defs/>
	<path d="M 0.0,0.0 L 192.0,0.0 L 192.0,192.0 L 0.0,192.0 L 0.0,0.0" fill="#FFEE5A"/>
	<path d="M 0.0,0.0 L 192.0,0.0 L 192.0,192.0 L 0.0,192.0 L 0.0,0.0 M 88.0,16.0 L 79.0,17.0 L 64.0,22.0 L 50.0,30.0 L 39.0,39.0 L 29.0,51.0 L 21.0,67.0 L 17.0,79.0 L 16.0,88.0 L 16.0,105.0 L 18.0,117.0 L 24.0,132.0 L 30.0,142.0 L 39.0,153.0 L 51.0,163.0 L 66.0,171.0 L 79.0,175.0 L 86.0,176.0 L 106.0,176.0 L 125.0,171.0 L 141.0,163.0 L 154.0,152.0 L 164.0,139.0 L 171.0,125.0 L 175.0,112.0 L 176.0,106.0 L 176.0,85.0 L 172.0,69.0 L 164.0,53.0 L 157.0,44.0 L 151.0,37.0 L 139.0,28.0 L 125.0,21.0 L 112.0,17.0 L 105.0,16.0 L 88.0,16.0" fill="#FFFEFC"/>
	<path d="M 92.0,49.0 L 109.0,49.0 L 119.0,54.0 L 124.0,58.0 L 129.0,67.0 L 130.0,70.0 L 130.0,79.0 L 125.0,96.0 L 124.0,98.0 L 134.0,99.0 L 136.0,100.0 L 136.0,105.0 L 123.0,108.0 L 122.0,109.0 L 122.0,116.0 L 127.0,128.0 L 131.0,133.0 L 138.0,138.0 L 138.0,140.0 L 136.0,141.0 L 123.0,142.0 L 120.0,146.0 L 113.0,145.0 L 111.0,144.0 L 100.0,144.0 L 92.0,147.0 L 83.0,147.0 L 75.0,143.0 L 68.0,136.0 L 63.0,131.0 L 57.0,129.0 L 50.0,128.0 L 50.0,120.0 L 44.0,118.0 L 38.0,113.0 L 38.0,110.0 L 47.0,109.0 L 56.0,105.0 L 64.0,99.0 L 66.0,96.0 L 66.0,91.0 L 58.0,84.0 L 59.0,79.0 L 65.0,80.0 L 72.0,82.0 L 73.0,72.0 L 78.0,59.0 L 86.0,52.0 L 92.0,49.0" fill="#FFFEFC"/>
</svg>
