<?xml version="1.0" ?>
<svg baseProfile="full" height="600px" version="1.1" viewBox="-20.1 -20.1 240.2 240.2" width="600px" xmlns="http://www.w3.org/2000/svg" xmlns:ev="http://www.w3.org/2001/xml-events" xmlns:xlink="http://www.w3.org/1999/xlink">
	<defs/>
	<path d="M 0.0,0.0 L 200.0,0.0 L 200.0,200.0 L 0.0,200.0 L 0.0,0.0" fill="#FCFCFC"/>
	<path d="M 62.0,16.0 L 85.0,16.0 L 100.0,19.0 L 116.0,27.0 L 126.0,36.0 L 133.0,46.0 L 138.0,58.0 L 140.0,67.0 L 141.0,79.0 L 155.0,94.0 L 160.0,101.0 L 159.0,110.0 L 154.0,114.0 L 143.0,120.0 L 143.0,132.0 L 140.0,135.0 L 115.0,136.0 L 112.0,137.0 L 111.0,139.0 L 134.0,140.0 L 138.0,142.0 L 140.0,145.0 L 139.0,153.0 L 137.0,157.0 L 135.0,169.0 L 131.0,176.0 L 126.0,180.0 L 119.0,183.0 L 114.0,184.0 L 99.0,184.0 L 92.0,182.0 L 92.0,184.0 L 84.0,184.0 L 84.0,174.0 L 86.0,172.0 L 94.0,173.0 L 100.0,175.0 L 115.0,175.0 L 124.0,171.0 L 127.0,165.0 L 129.0,153.0 L 132.0,148.0 L 113.0,148.0 L 107.0,145.0 L 103.0,140.0 L 104.0,133.0 L 110.0,128.0 L 113.0,127.0 L 134.0,127.0 L 134.0,117.0 L 139.0,112.0 L 150.0,106.0 L 152.0,106.0 L 149.0,101.0 L 136.0,87.0 L 132.0,81.0 L 130.0,63.0 L 125.0,49.0 L 119.0,41.0 L 110.0,33.0 L 95.0,27.0 L 82.0,25.0 L 63.0,25.0 L 47.0,29.0 L 37.0,35.0 L 30.0,41.0 L 22.0,54.0 L 18.0,67.0 L 17.0,74.0 L 17.0,96.0 L 21.0,109.0 L 30.0,125.0 L 33.0,132.0 L 36.0,149.0 L 36.0,184.0 L 28.0,184.0 L 27.0,145.0 L 23.0,132.0 L 17.0,121.0 L 11.0,108.0 L 8.0,93.0 L 8.0,71.0 L 12.0,56.0 L 20.0,40.0 L 29.0,30.0 L 40.0,23.0 L 52.0,18.0 L 62.0,16.0" fill="#070707"/>
	<path d="M 103.0,79.0 L 112.0,81.0 L 121.0,85.0 L 120.0,90.0 L 119.0,91.0 L 110.0,90.0 L 101.0,86.0 L 101.0,81.0 L 103.0,79.0" fill="#0C0C0C"/>
	<path d="M 186.0,160.0 L 191.0,161.0 L 192.0,166.0 L 190.0,168.0 L 185.0,167.0 L 184.0,162.0 L 186.0,160.0" fill="#0C0C0C"/>
	<path d="M 174.0,152.0 L 179.0,153.0 L 180.0,158.0 L 178.0,160.0 L 173.0,159.0 L 172.0,154.0 L 174.0,152.0" fill="#0C0C0C"/>
	<path d="M 186.0,144.0 L 191.0,145.0 L 192.0,150.0 L 190.0,152.0 L 185.0,151.0 L 184.0,146.0 L 186.0,144.0" fill="#0C0C0C"/>
	<path d="M 162.0,144.0 L 167.0,145.0 L 168.0,150.0 L 166.0,152.0 L 161.0,151.0 L 160.0,146.0 L 162.0,144.0" fill="#0C0C0C"/>
	<path d="M 174.0,136.0 L 179.0,137.0 L 180.0,142.0 L 178.0,144.0 L 173.0,143.0 L 172.0,138.0 L 174.0,136.0" fill="#0C0C0C"/>
	<path d="M 150.0,136.0 L 155.0,137.0 L 156.0,142.0 L 154.0,144.0 L 149.0,143.0 L 148.0,138.0 L 150.0,136.0" fill="#0C0C0C"/>
	<path d="M 186.0,128.0 L 191.0,129.0 L 192.0,134.0 L 190.0,136.0 L 185.0,135.0 L 184.0,130.0 L 186.0,128.0" fill="#0C0C0C"/>
	<path d="M 162.0,128.0 L 167.0,129.0 L 168.0,134.0 L 166.0,136.0 L 161.0,135.0 L 160.0,130.0 L 162.0,128.0" fill="#0C0C0C"/>
	<path d="M 174.0,120.0 L 179.0,121.0 L 180.0,126.0 L 178.0,128.0 L 173.0,127.0 L 172.0,122.0 L 174.0,120.0" fill="#0C0C0C"/>
	<path d="M 186.0,112.0 L 191.0,113.0 L 192.0,118.0 L 190.0,120.0 L 185.0,119.0 L 184.0,114.0 L 186.0,112.0" fill="#0C0C0C"/>
</svg>
