<?xml version="1.0" ?>
<svg baseProfile="full" height="600px" version="1.1" viewBox="-19.296000000000003 -19.296000000000003 230.592 230.592" width="600px" xmlns="http://www.w3.org/2000/svg" xmlns:ev="http://www.w3.org/2001/xml-events" xmlns:xlink="http://www.w3.org/1999/xlink">
	<defs/>
	<path d="M 0.0,0.0 L 192.0,0.0 L 192.0,192.0 L 0.0,192.0 L 0.0,0.0" fill="#FDFDFD"/>
	<path d="M 28.0,16.0 L 43.0,16.0 L 61.0,19.0 L 76.0,25.0 L 84.0,30.0 L 85.0,39.0 L 94.0,53.0 L 99.0,68.0 L 101.0,81.0 L 116.0,106.0 L 115.0,113.0 L 109.0,117.0 L 104.0,119.0 L 101.0,119.0 L 101.0,132.0 L 96.0,134.0 L 90.0,136.0 L 90.0,140.0 L 99.0,144.0 L 98.0,151.0 L 92.0,159.0 L 82.0,164.0 L 73.0,164.0 L 64.0,162.0 L 64.0,176.0 L 24.0,176.0 L 24.0,17.0 L 28.0,16.0" fill="#FDB857"/>
	<path d="M 28.0,16.0 L 43.0,16.0 L 61.0,19.0 L 76.0,25.0 L 84.0,30.0 L 83.0,40.0 L 79.0,50.0 L 71.0,61.0 L 63.0,68.0 L 56.0,73.0 L 48.0,96.0 L 43.0,99.0 L 39.0,97.0 L 35.0,94.0 L 24.0,92.0 L 24.0,17.0 L 28.0,16.0" fill="#7B544B"/>
	<path d="M 36.0,156.0 L 50.0,158.0 L 64.0,161.0 L 64.0,176.0 L 36.0,176.0 L 36.0,156.0" fill="#F9A826"/>
	<path d="M 161.0,152.0 L 167.0,152.0 L 172.0,157.0 L 171.0,165.0 L 167.0,168.0 L 161.0,168.0 L 156.0,163.0 L 156.0,157.0 L 161.0,152.0" fill="#86D5FA"/>
	<path d="M 139.0,141.0 L 145.0,141.0 L 150.0,146.0 L 150.0,152.0 L 145.0,157.0 L 139.0,157.0 L 135.0,154.0 L 134.0,146.0 L 139.0,141.0" fill="#55C5F7"/>
	<path d="M 161.0,130.0 L 167.0,130.0 L 172.0,135.0 L 171.0,143.0 L 167.0,146.0 L 161.0,146.0 L 156.0,141.0 L 156.0,135.0 L 161.0,130.0" fill="#86D5FA"/>
	<path d="M 117.0,130.0 L 123.0,130.0 L 128.0,135.0 L 127.0,143.0 L 123.0,146.0 L 117.0,146.0 L 112.0,141.0 L 112.0,135.0 L 117.0,130.0" fill="#0CACF4"/>
	<path d="M 161.0,108.0 L 167.0,108.0 L 172.0,113.0 L 171.0,121.0 L 167.0,124.0 L 161.0,124.0 L 156.0,119.0 L 156.0,113.0 L 161.0,108.0" fill="#86D5FA"/>
	<path d="M 139.0,119.0 L 147.0,120.0 L 150.0,124.0 L 150.0,130.0 L 145.0,135.0 L 139.0,135.0 L 135.0,132.0 L 134.0,124.0 L 139.0,119.0" fill="#55C5F7"/>
	<path d="M 77.0,91.0 L 87.0,91.0 L 89.0,93.0 L 88.0,97.0 L 85.0,99.0 L 79.0,99.0 L 74.0,94.0 L 77.0,91.0" fill="#7C5227"/>
</svg>
