<?xml version="1.0" ?>
<svg baseProfile="full" height="600px" version="1.1" viewBox="-20.1 -20.1 240.2 240.2" width="600px" xmlns="http://www.w3.org/2000/svg" xmlns:ev="http://www.w3.org/2001/xml-events" xmlns:xlink="http://www.w3.org/1999/xlink">
	<defs/>
	<path d="M 0.0,0.0 L 200.0,0.0 L 200.0,200.0 L 0.0,200.0 L 0.0,0.0" fill="#FCFCFC"/>
	<path d="M 148.0,2.0 L 153.0,3.0 L 154.0,4.0 L 153.0,11.0 L 157.0,12.0 L 158.0,17.0 L 156.0,19.0 L 151.0,19.0 L 150.0,27.0 L 149.0,31.0 L 157.0,28.0 L 161.0,28.0 L 160.0,23.0 L 162.0,20.0 L 167.0,21.0 L 168.0,24.0 L 176.0,23.0 L 178.0,25.0 L 177.0,30.0 L 172.0,32.0 L 172.0,38.0 L 170.0,40.0 L 165.0,39.0 L 164.0,35.0 L 153.0,39.0 L 158.0,44.0 L 162.0,46.0 L 163.0,45.0 L 168.0,45.0 L 169.0,46.0 L 169.0,54.0 L 171.0,56.0 L 171.0,61.0 L 169.0,63.0 L 165.0,62.0 L 161.0,61.0 L 156.0,62.0 L 154.0,61.0 L 154.0,53.0 L 146.0,46.0 L 144.0,58.0 L 148.0,59.0 L 149.0,64.0 L 147.0,66.0 L 142.0,66.0 L 140.0,72.0 L 135.0,73.0 L 133.0,71.0 L 134.0,64.0 L 130.0,63.0 L 129.0,58.0 L 131.0,56.0 L 136.0,56.0 L 137.0,48.0 L 138.0,44.0 L 129.0,47.0 L 126.0,47.0 L 126.0,54.0 L 121.0,55.0 L 118.0,52.0 L 111.0,52.0 L 109.0,50.0 L 110.0,45.0 L 112.0,43.0 L 115.0,43.0 L 115.0,37.0 L 117.0,35.0 L 122.0,36.0 L 123.0,40.0 L 134.0,35.0 L 127.0,29.0 L 119.0,30.0 L 118.0,29.0 L 118.0,21.0 L 116.0,19.0 L 116.0,14.0 L 118.0,12.0 L 122.0,13.0 L 126.0,14.0 L 131.0,13.0 L 133.0,14.0 L 133.0,22.0 L 139.0,28.0 L 141.0,28.0 L 143.0,17.0 L 139.0,16.0 L 138.0,11.0 L 140.0,9.0 L 145.0,8.0 L 147.0,3.0 L 148.0,2.0" fill="#090909"/>
	<path d="M 72.0,18.0 L 77.0,19.0 L 78.0,20.0 L 77.0,29.0 L 74.0,43.0 L 91.0,37.0 L 97.0,37.0 L 99.0,39.0 L 98.0,43.0 L 94.0,46.0 L 78.0,51.0 L 84.0,58.0 L 92.0,65.0 L 93.0,70.0 L 91.0,72.0 L 86.0,71.0 L 76.0,62.0 L 71.0,59.0 L 67.0,78.0 L 65.0,81.0 L 60.0,80.0 L 59.0,79.0 L 60.0,68.0 L 63.0,56.0 L 45.0,62.0 L 39.0,62.0 L 38.0,56.0 L 47.0,52.0 L 58.0,48.0 L 58.0,46.0 L 48.0,37.0 L 44.0,34.0 L 44.0,29.0 L 46.0,27.0 L 51.0,28.0 L 65.0,41.0 L 70.0,20.0 L 72.0,18.0" fill="#080808"/>
	<path d="M 72.0,147.0 L 77.0,147.0 L 78.0,148.0 L 78.0,155.0 L 76.0,163.0 L 86.0,159.0 L 91.0,160.0 L 92.0,165.0 L 88.0,168.0 L 79.0,170.0 L 84.0,175.0 L 88.0,179.0 L 88.0,184.0 L 87.0,185.0 L 82.0,185.0 L 74.0,178.0 L 73.0,178.0 L 70.0,191.0 L 65.0,192.0 L 63.0,190.0 L 63.0,183.0 L 64.0,176.0 L 55.0,179.0 L 50.0,178.0 L 49.0,173.0 L 53.0,170.0 L 61.0,167.0 L 53.0,160.0 L 53.0,154.0 L 54.0,153.0 L 59.0,153.0 L 67.0,160.0 L 69.0,154.0 L 71.0,148.0 L 72.0,147.0" fill="#070707"/>
	<path d="M 33.0,92.0 L 38.0,93.0 L 39.0,94.0 L 38.0,107.0 L 45.0,105.0 L 51.0,105.0 L 53.0,107.0 L 52.0,111.0 L 43.0,115.0 L 40.0,115.0 L 44.0,120.0 L 49.0,124.0 L 49.0,129.0 L 48.0,130.0 L 42.0,130.0 L 36.0,124.0 L 34.0,124.0 L 31.0,136.0 L 26.0,137.0 L 24.0,136.0 L 24.0,126.0 L 25.0,121.0 L 16.0,124.0 L 11.0,123.0 L 10.0,118.0 L 14.0,115.0 L 22.0,112.0 L 13.0,104.0 L 14.0,99.0 L 19.0,98.0 L 29.0,106.0 L 31.0,94.0 L 33.0,92.0" fill="#080808"/>
	<path d="M 125.0,157.0 L 130.0,158.0 L 132.0,161.0 L 133.0,168.0 L 144.0,167.0 L 146.0,169.0 L 146.0,174.0 L 137.0,177.0 L 135.0,177.0 L 136.0,189.0 L 135.0,190.0 L 129.0,190.0 L 127.0,184.0 L 127.0,179.0 L 115.0,180.0 L 113.0,178.0 L 114.0,173.0 L 119.0,171.0 L 125.0,171.0 L 123.0,163.0 L 124.0,158.0 L 125.0,157.0" fill="#090909"/>
	<path d="M 168.0,137.0 L 173.0,138.0 L 174.0,139.0 L 174.0,144.0 L 182.0,144.0 L 184.0,146.0 L 183.0,151.0 L 177.0,152.0 L 177.0,160.0 L 175.0,162.0 L 170.0,161.0 L 169.0,160.0 L 169.0,154.0 L 167.0,155.0 L 161.0,155.0 L 159.0,153.0 L 160.0,148.0 L 166.0,146.0 L 166.0,139.0 L 168.0,137.0" fill="#090909"/>
</svg>
