<?xml version="1.0" ?>
<svg baseProfile="full" height="600px" version="1.1" viewBox="-20.1 -20.1 240.2 240.2" width="600px" xmlns="http://www.w3.org/2000/svg" xmlns:ev="http://www.w3.org/2001/xml-events" xmlns:xlink="http://www.w3.org/1999/xlink">
	<defs/>
	<path d="M 0.0,0.0 L 200.0,0.0 L 200.0,200.0 L 0.0,200.0 L 0.0,0.0" fill="#FCFCFC"/>
	<path d="M 141.0,2.0 L 146.0,2.0 L 148.0,4.0 L 148.0,10.0 L 153.0,11.0 L 153.0,16.0 L 148.0,17.0 L 149.0,29.0 L 156.0,25.0 L 158.0,25.0 L 157.0,19.0 L 160.0,16.0 L 164.0,17.0 L 165.0,20.0 L 168.0,18.0 L 174.0,18.0 L 175.0,19.0 L 175.0,24.0 L 171.0,28.0 L 171.0,33.0 L 169.0,35.0 L 164.0,34.0 L 162.0,32.0 L 153.0,37.0 L 158.0,41.0 L 163.0,43.0 L 166.0,40.0 L 170.0,41.0 L 171.0,42.0 L 171.0,48.0 L 175.0,51.0 L 175.0,56.0 L 174.0,57.0 L 168.0,57.0 L 165.0,55.0 L 163.0,59.0 L 158.0,58.0 L 157.0,53.0 L 158.0,50.0 L 153.0,48.0 L 149.0,46.0 L 148.0,58.0 L 153.0,59.0 L 153.0,64.0 L 151.0,66.0 L 148.0,66.0 L 148.0,71.0 L 146.0,73.0 L 141.0,73.0 L 140.0,72.0 L 140.0,66.0 L 135.0,65.0 L 134.0,64.0 L 134.0,59.0 L 139.0,58.0 L 138.0,46.0 L 131.0,50.0 L 129.0,50.0 L 130.0,56.0 L 127.0,59.0 L 123.0,58.0 L 122.0,55.0 L 119.0,57.0 L 113.0,57.0 L 112.0,56.0 L 112.0,51.0 L 116.0,47.0 L 116.0,42.0 L 118.0,40.0 L 123.0,41.0 L 125.0,43.0 L 134.0,38.0 L 130.0,35.0 L 124.0,32.0 L 121.0,35.0 L 117.0,34.0 L 116.0,33.0 L 116.0,27.0 L 112.0,24.0 L 112.0,19.0 L 113.0,18.0 L 119.0,18.0 L 122.0,20.0 L 124.0,16.0 L 129.0,17.0 L 130.0,22.0 L 129.0,25.0 L 134.0,27.0 L 138.0,29.0 L 139.0,17.0 L 134.0,16.0 L 134.0,11.0 L 139.0,9.0 L 141.0,2.0" fill="#0A0A0A"/>
	<path d="M 62.0,20.0 L 67.0,21.0 L 68.0,22.0 L 69.0,44.0 L 86.0,34.0 L 91.0,35.0 L 92.0,40.0 L 83.0,46.0 L 75.0,51.0 L 73.0,51.0 L 73.0,53.0 L 78.0,55.0 L 91.0,63.0 L 92.0,68.0 L 90.0,70.0 L 84.0,69.0 L 69.0,60.0 L 68.0,82.0 L 66.0,84.0 L 61.0,83.0 L 60.0,82.0 L 59.0,60.0 L 42.0,70.0 L 37.0,69.0 L 36.0,64.0 L 45.0,58.0 L 53.0,53.0 L 55.0,53.0 L 55.0,51.0 L 50.0,49.0 L 37.0,41.0 L 36.0,36.0 L 38.0,34.0 L 44.0,35.0 L 59.0,44.0 L 60.0,22.0 L 62.0,20.0" fill="#050505"/>
	<path d="M 74.0,149.0 L 79.0,150.0 L 80.0,151.0 L 81.0,164.0 L 90.0,159.0 L 95.0,160.0 L 96.0,165.0 L 87.0,171.0 L 85.0,171.0 L 85.0,173.0 L 90.0,175.0 L 96.0,179.0 L 95.0,184.0 L 90.0,185.0 L 81.0,180.0 L 80.0,193.0 L 78.0,195.0 L 73.0,194.0 L 72.0,193.0 L 71.0,180.0 L 62.0,185.0 L 57.0,184.0 L 56.0,179.0 L 65.0,173.0 L 67.0,173.0 L 67.0,171.0 L 62.0,169.0 L 56.0,165.0 L 57.0,160.0 L 62.0,159.0 L 71.0,164.0 L 72.0,151.0 L 74.0,149.0" fill="#050505"/>
	<path d="M 30.0,97.0 L 35.0,98.0 L 36.0,99.0 L 37.0,112.0 L 46.0,107.0 L 51.0,108.0 L 52.0,113.0 L 43.0,119.0 L 41.0,119.0 L 41.0,121.0 L 46.0,123.0 L 52.0,127.0 L 51.0,132.0 L 46.0,133.0 L 37.0,128.0 L 36.0,141.0 L 34.0,143.0 L 29.0,142.0 L 28.0,141.0 L 27.0,128.0 L 18.0,133.0 L 13.0,132.0 L 12.0,127.0 L 21.0,121.0 L 23.0,121.0 L 23.0,119.0 L 18.0,117.0 L 12.0,113.0 L 13.0,108.0 L 18.0,107.0 L 27.0,112.0 L 28.0,99.0 L 30.0,97.0" fill="#050505"/>
	<path d="M 129.0,156.0 L 134.0,157.0 L 138.0,165.0 L 143.0,164.0 L 150.0,163.0 L 152.0,165.0 L 151.0,170.0 L 143.0,174.0 L 144.0,179.0 L 145.0,186.0 L 143.0,188.0 L 138.0,187.0 L 133.0,178.0 L 126.0,181.0 L 121.0,180.0 L 120.0,175.0 L 126.0,171.0 L 130.0,169.0 L 127.0,162.0 L 128.0,157.0 L 129.0,156.0" fill="#090909"/>
	<path d="M 171.0,132.0 L 176.0,133.0 L 178.0,137.0 L 186.0,137.0 L 188.0,139.0 L 187.0,144.0 L 183.0,146.0 L 183.0,154.0 L 181.0,156.0 L 176.0,155.0 L 173.0,150.0 L 166.0,151.0 L 164.0,149.0 L 165.0,144.0 L 170.0,141.0 L 169.0,134.0 L 171.0,132.0" fill="#070707"/>
</svg>
