<?xml version="1.0" ?>
<svg baseProfile="full" height="600px" version="1.1" viewBox="-20.1 -20.1 240.2 240.2" width="600px" xmlns="http://www.w3.org/2000/svg" xmlns:ev="http://www.w3.org/2001/xml-events" xmlns:xlink="http://www.w3.org/1999/xlink">
	<defs/>
	<path d="M 0.0,0.0 L 200.0,0.0 L 200.0,200.0 L 0.0,200.0 L 0.0,0.0" fill="#FCFCFC"/>
	<path d="M 132.0,3.0 L 137.0,4.0 L 139.0,8.0 L 145.0,10.0 L 146.0,15.0 L 143.0,17.0 L 145.0,27.0 L 147.0,27.0 L 152.0,22.0 L 151.0,14.0 L 153.0,12.0 L 158.0,12.0 L 161.0,12.0 L 163.0,10.0 L 168.0,11.0 L 169.0,16.0 L 167.0,18.0 L 168.0,26.0 L 166.0,28.0 L 159.0,27.0 L 153.0,34.0 L 157.0,36.0 L 163.0,37.0 L 166.0,33.0 L 171.0,34.0 L 172.0,35.0 L 172.0,40.0 L 177.0,41.0 L 179.0,43.0 L 178.0,47.0 L 177.0,48.0 L 170.0,49.0 L 168.0,52.0 L 163.0,52.0 L 162.0,51.0 L 162.0,46.0 L 150.0,43.0 L 153.0,52.0 L 153.0,55.0 L 159.0,55.0 L 160.0,56.0 L 160.0,61.0 L 157.0,63.0 L 157.0,70.0 L 155.0,72.0 L 150.0,71.0 L 148.0,67.0 L 142.0,65.0 L 141.0,60.0 L 145.0,58.0 L 142.0,47.0 L 135.0,53.0 L 133.0,56.0 L 136.0,57.0 L 135.0,62.0 L 134.0,63.0 L 129.0,63.0 L 126.0,63.0 L 124.0,65.0 L 119.0,64.0 L 118.0,59.0 L 120.0,57.0 L 119.0,49.0 L 121.0,47.0 L 128.0,48.0 L 134.0,41.0 L 125.0,38.0 L 123.0,37.0 L 122.0,41.0 L 117.0,42.0 L 115.0,40.0 L 115.0,35.0 L 110.0,34.0 L 108.0,32.0 L 109.0,28.0 L 110.0,27.0 L 117.0,27.0 L 119.0,23.0 L 124.0,23.0 L 125.0,24.0 L 125.0,29.0 L 136.0,31.0 L 134.0,20.0 L 128.0,20.0 L 127.0,19.0 L 127.0,14.0 L 131.0,12.0 L 130.0,5.0 L 132.0,3.0" fill="#060606"/>
	<path d="M 67.0,14.0 L 72.0,15.0 L 75.0,24.0 L 78.0,32.0 L 78.0,36.0 L 84.0,31.0 L 91.0,23.0 L 94.0,20.0 L 99.0,21.0 L 100.0,26.0 L 88.0,39.0 L 85.0,43.0 L 95.0,44.0 L 107.0,47.0 L 108.0,48.0 L 108.0,53.0 L 106.0,55.0 L 99.0,54.0 L 84.0,51.0 L 89.0,68.0 L 89.0,74.0 L 88.0,75.0 L 83.0,75.0 L 81.0,73.0 L 76.0,56.0 L 76.0,53.0 L 74.0,53.0 L 72.0,57.0 L 64.0,65.0 L 61.0,69.0 L 56.0,69.0 L 54.0,67.0 L 55.0,62.0 L 63.0,54.0 L 68.0,48.0 L 53.0,44.0 L 47.0,42.0 L 46.0,37.0 L 48.0,35.0 L 57.0,36.0 L 71.0,39.0 L 65.0,21.0 L 65.0,16.0 L 67.0,14.0" fill="#080808"/>
	<path d="M 23.0,81.0 L 27.0,82.0 L 31.0,91.0 L 32.0,94.0 L 40.0,85.0 L 45.0,85.0 L 47.0,87.0 L 46.0,92.0 L 39.0,99.0 L 38.0,101.0 L 50.0,103.0 L 52.0,105.0 L 51.0,110.0 L 50.0,111.0 L 37.0,110.0 L 39.0,116.0 L 39.0,123.0 L 38.0,124.0 L 33.0,124.0 L 29.0,115.0 L 27.0,113.0 L 19.0,121.0 L 14.0,120.0 L 13.0,115.0 L 21.0,106.0 L 10.0,103.0 L 8.0,101.0 L 9.0,96.0 L 10.0,95.0 L 19.0,96.0 L 23.0,97.0 L 20.0,87.0 L 21.0,82.0 L 23.0,81.0" fill="#090909"/>
	<path d="M 52.0,142.0 L 57.0,143.0 L 62.0,154.0 L 69.0,146.0 L 74.0,145.0 L 76.0,147.0 L 76.0,152.0 L 69.0,159.0 L 69.0,161.0 L 79.0,163.0 L 81.0,165.0 L 81.0,170.0 L 80.0,171.0 L 73.0,171.0 L 66.0,169.0 L 69.0,178.0 L 69.0,183.0 L 67.0,185.0 L 62.0,184.0 L 57.0,173.0 L 49.0,181.0 L 44.0,181.0 L 43.0,180.0 L 43.0,175.0 L 50.0,167.0 L 42.0,164.0 L 37.0,161.0 L 38.0,157.0 L 40.0,155.0 L 50.0,157.0 L 53.0,158.0 L 50.0,148.0 L 51.0,143.0 L 52.0,142.0" fill="#080808"/>
	<path d="M 120.0,161.0 L 125.0,162.0 L 124.0,171.0 L 124.0,175.0 L 133.0,179.0 L 133.0,184.0 L 131.0,186.0 L 124.0,185.0 L 119.0,183.0 L 116.0,192.0 L 115.0,193.0 L 110.0,193.0 L 109.0,192.0 L 110.0,183.0 L 111.0,179.0 L 105.0,178.0 L 101.0,175.0 L 102.0,170.0 L 107.0,169.0 L 115.0,172.0 L 118.0,162.0 L 120.0,161.0" fill="#080808"/>
	<path d="M 163.0,148.0 L 168.0,149.0 L 169.0,150.0 L 168.0,158.0 L 174.0,160.0 L 174.0,166.0 L 173.0,167.0 L 164.0,166.0 L 163.0,171.0 L 162.0,172.0 L 157.0,172.0 L 156.0,171.0 L 157.0,162.0 L 152.0,161.0 L 150.0,159.0 L 151.0,154.0 L 156.0,153.0 L 160.0,153.0 L 163.0,148.0" fill="#0A0A0A"/>
</svg>
