<?xml version="1.0" ?>
<svg baseProfile="full" height="600px" version="1.1" viewBox="-20.1 -20.1 240.2 240.2" width="600px" xmlns="http://www.w3.org/2000/svg" xmlns:ev="http://www.w3.org/2001/xml-events" xmlns:xlink="http://www.w3.org/1999/xlink">
	<defs/>
	<path d="M 0.0,0.0 L 200.0,0.0 L 200.0,200.0 L 0.0,200.0 L 0.0,0.0" fill="#040404"/>
	<path d="M 0.0,0.0 L 200.0,0.0 L 200.0,200.0 L 0.0,200.0 L 0.0,0.0 M 88.0,8.0 L 71.0,12.0 L 55.0,19.0 L 42.0,28.0 L 31.0,38.0 L 21.0,52.0 L 13.0,68.0 L 9.0,83.0 L 8.0,88.0 L 8.0,109.0 L 11.0,126.0 L 19.0,145.0 L 28.0,158.0 L 37.0,168.0 L 50.0,178.0 L 66.0,186.0 L 82.0,191.0 L 89.0,192.0 L 110.0,192.0 L 125.0,189.0 L 141.0,183.0 L 154.0,175.0 L 167.0,164.0 L 178.0,150.0 L 186.0,134.0 L 191.0,117.0 L 192.0,110.0 L 192.0,89.0 L 189.0,74.0 L 183.0,59.0 L 175.0,46.0 L 164.0,33.0 L 150.0,22.0 L 134.0,14.0 L 122.0,10.0 L 109.0,8.0 L 88.0,8.0" fill="#FCFCFC"/>
	<path d="M 68.0,22.0 L 75.0,23.0 L 95.0,34.0 L 96.0,35.0 L 96.0,65.0 L 70.0,79.0 L 64.0,78.0 L 40.0,65.0 L 40.0,41.0 L 50.0,32.0 L 63.0,24.0 L 68.0,22.0" fill="#FCFCFC"/>
	<path d="M 127.0,22.0 L 134.0,23.0 L 144.0,28.0 L 156.0,37.0 L 160.0,41.0 L 160.0,65.0 L 134.0,79.0 L 128.0,78.0 L 104.0,65.0 L 104.0,35.0 L 112.0,30.0 L 127.0,22.0" fill="#FCFCFC"/>
	<path d="M 66.0,124.0 L 71.0,125.0 L 95.0,138.0 L 96.0,139.0 L 96.0,169.0 L 77.0,179.0 L 73.0,180.0 L 59.0,174.0 L 45.0,164.0 L 40.0,159.0 L 40.0,139.0 L 48.0,134.0 L 66.0,124.0" fill="#FBFBFB"/>
	<path d="M 130.0,124.0 L 135.0,125.0 L 159.0,138.0 L 160.0,139.0 L 160.0,159.0 L 150.0,168.0 L 137.0,176.0 L 127.0,180.0 L 123.0,179.0 L 104.0,169.0 L 104.0,139.0 L 112.0,134.0 L 130.0,124.0" fill="#FBFBFB"/>
	<path d="M 162.0,72.0 L 167.0,73.0 L 182.0,81.0 L 184.0,90.0 L 184.0,111.0 L 182.0,121.0 L 177.0,125.0 L 166.0,131.0 L 160.0,130.0 L 136.0,117.0 L 136.0,87.0 L 144.0,82.0 L 162.0,72.0" fill="#FBFBFB"/>
	<path d="M 34.0,72.0 L 39.0,73.0 L 63.0,86.0 L 64.0,87.0 L 64.0,117.0 L 38.0,131.0 L 32.0,130.0 L 19.0,123.0 L 16.0,110.0 L 16.0,89.0 L 18.0,81.0 L 34.0,72.0" fill="#FBFBFB"/>
</svg>
