<?xml version="1.0" ?>
<svg baseProfile="full" height="600px" version="1.1" viewBox="-20.1 -20.1 240.2 240.2" width="600px" xmlns="http://www.w3.org/2000/svg" xmlns:ev="http://www.w3.org/2001/xml-events" xmlns:xlink="http://www.w3.org/1999/xlink">
	<defs/>
	<path d="M 0.0,0.0 L 200.0,0.0 L 200.0,200.0 L 0.0,200.0 L 0.0,0.0" fill="#040404"/>
	<path d="M 0.0,0.0 L 200.0,0.0 L 200.0,200.0 L 0.0,200.0 L 0.0,0.0 M 91.0,19.0 L 78.0,21.0 L 63.0,26.0 L 46.0,35.0 L 33.0,45.0 L 25.0,53.0 L 16.0,66.0 L 9.0,80.0 L 5.0,94.0 L 5.0,120.0 L 9.0,135.0 L 13.0,145.0 L 21.0,157.0 L 32.0,169.0 L 46.0,179.0 L 61.0,186.0 L 78.0,191.0 L 88.0,192.0 L 106.0,192.0 L 121.0,190.0 L 142.0,183.0 L 158.0,174.0 L 169.0,165.0 L 177.0,157.0 L 186.0,144.0 L 192.0,132.0 L 197.0,115.0 L 197.0,91.0 L 193.0,75.0 L 186.0,61.0 L 177.0,49.0 L 169.0,41.0 L 156.0,32.0 L 142.0,25.0 L 125.0,20.0 L 121.0,19.0 L 91.0,19.0" fill="#FCFCFC"/>
	<path d="M 110.0,126.0 L 121.0,129.0 L 141.0,135.0 L 143.0,141.0 L 146.0,158.0 L 146.0,163.0 L 137.0,170.0 L 120.0,182.0 L 108.0,179.0 L 88.0,173.0 L 84.0,150.0 L 84.0,144.0 L 100.0,133.0 L 110.0,126.0" fill="#FBFBFB"/>
	<path d="M 135.0,73.0 L 145.0,75.0 L 167.0,82.0 L 169.0,89.0 L 171.0,103.0 L 171.0,110.0 L 156.0,121.0 L 146.0,128.0 L 139.0,127.0 L 113.0,119.0 L 109.0,91.0 L 126.0,79.0 L 135.0,73.0" fill="#FBFBFB"/>
	<path d="M 94.0,30.0 L 104.0,32.0 L 126.0,39.0 L 128.0,47.0 L 130.0,58.0 L 130.0,67.0 L 114.0,79.0 L 105.0,85.0 L 99.0,84.0 L 78.0,78.0 L 72.0,76.0 L 69.0,56.0 L 69.0,48.0 L 79.0,40.0 L 94.0,30.0" fill="#FBFBFB"/>
	<path d="M 44.0,46.0 L 52.0,47.0 L 60.0,50.0 L 62.0,58.0 L 64.0,72.0 L 64.0,78.0 L 48.0,89.0 L 38.0,96.0 L 26.0,93.0 L 17.0,90.0 L 16.0,85.0 L 24.0,68.0 L 35.0,54.0 L 44.0,46.0" fill="#FAFAFA"/>
	<path d="M 43.0,137.0 L 54.0,139.0 L 72.0,145.0 L 76.0,146.0 L 79.0,165.0 L 79.0,174.0 L 71.0,180.0 L 65.0,179.0 L 49.0,171.0 L 38.0,163.0 L 29.0,154.0 L 26.0,149.0 L 43.0,137.0" fill="#FAFAFA"/>
	<path d="M 14.0,97.0 L 28.0,101.0 L 35.0,103.0 L 38.0,121.0 L 38.0,132.0 L 23.0,142.0 L 21.0,142.0 L 16.0,130.0 L 14.0,123.0 L 13.0,115.0 L 13.0,101.0 L 14.0,97.0" fill="#F9F9F9"/>
	<path d="M 182.0,76.0 L 184.0,76.0 L 188.0,88.0 L 189.0,93.0 L 189.0,111.0 L 179.0,108.0 L 176.0,87.0 L 176.0,80.0 L 182.0,76.0" fill="#F0F0F0"/>
	<path d="M 116.0,27.0 L 126.0,28.0 L 131.0,30.0 L 130.0,32.0 L 118.0,29.0 L 116.0,27.0" fill="#C2C2C2"/>
</svg>
