<?xml version="1.0" ?>
<svg baseProfile="full" height="600px" version="1.1" viewBox="-20.1 -20.1 240.2 240.2" width="600px" xmlns="http://www.w3.org/2000/svg" xmlns:ev="http://www.w3.org/2001/xml-events" xmlns:xlink="http://www.w3.org/1999/xlink">
	<defs/>
	<path d="M 0.0,0.0 L 200.0,0.0 L 200.0,200.0 L 0.0,200.0 L 0.0,0.0" fill="#030303"/>
	<path d="M 0.0,0.0 L 200.0,0.0 L 200.0,200.0 L 0.0,200.0 L 0.0,0.0 M 84.0,12.0 L 69.0,16.0 L 53.0,23.0 L 41.0,31.0 L 28.0,43.0 L 18.0,57.0 L 11.0,72.0 L 7.0,87.0 L 7.0,116.0 L 13.0,136.0 L 20.0,149.0 L 30.0,162.0 L 37.0,169.0 L 51.0,179.0 L 65.0,186.0 L 78.0,190.0 L 92.0,192.0 L 110.0,192.0 L 125.0,189.0 L 144.0,182.0 L 158.0,173.0 L 170.0,162.0 L 179.0,151.0 L 187.0,136.0 L 191.0,125.0 L 193.0,113.0 L 193.0,88.0 L 189.0,72.0 L 181.0,56.0 L 173.0,45.0 L 166.0,37.0 L 153.0,27.0 L 141.0,20.0 L 120.0,13.0 L 113.0,12.0 L 84.0,12.0" fill="#FCFCFC"/>
	<path d="M 58.0,73.0 L 63.0,75.0 L 87.0,88.0 L 87.0,118.0 L 71.0,126.0 L 59.0,132.0 L 54.0,130.0 L 30.0,117.0 L 30.0,87.0 L 58.0,73.0" fill="#FAFAFA"/>
	<path d="M 122.0,75.0 L 128.0,76.0 L 152.0,89.0 L 152.0,119.0 L 124.0,133.0 L 118.0,131.0 L 95.0,118.0 L 95.0,89.0 L 114.0,79.0 L 122.0,75.0" fill="#FBFBFB"/>
	<path d="M 142.0,31.0 L 146.0,32.0 L 158.0,41.0 L 167.0,50.0 L 176.0,64.0 L 179.0,70.0 L 179.0,72.0 L 159.0,82.0 L 154.0,82.0 L 131.0,69.0 L 129.0,68.0 L 129.0,38.0 L 142.0,31.0" fill="#FAFAFA"/>
	<path d="M 154.0,126.0 L 159.0,127.0 L 176.0,137.0 L 175.0,142.0 L 167.0,153.0 L 160.0,161.0 L 147.0,171.0 L 140.0,175.0 L 134.0,174.0 L 127.0,170.0 L 127.0,140.0 L 146.0,130.0 L 154.0,126.0" fill="#FBFBFB"/>
	<path d="M 49.0,35.0 L 55.0,36.0 L 55.0,66.0 L 36.0,76.0 L 28.0,80.0 L 23.0,79.0 L 19.0,77.0 L 20.0,72.0 L 27.0,58.0 L 35.0,48.0 L 45.0,38.0 L 49.0,35.0" fill="#FAFAFA"/>
	<path d="M 24.0,124.0 L 29.0,125.0 L 53.0,138.0 L 54.0,139.0 L 54.0,168.0 L 50.0,169.0 L 38.0,158.0 L 29.0,148.0 L 22.0,136.0 L 19.0,127.0 L 24.0,124.0" fill="#F7F7F7"/>
	<path d="M 106.0,20.0 L 120.0,21.0 L 134.0,26.0 L 130.0,29.0 L 124.0,31.0 L 106.0,21.0 L 106.0,20.0" fill="#EFEFEF"/>
	<path d="M 121.0,176.0 L 127.0,178.0 L 128.0,180.0 L 116.0,183.0 L 110.0,183.0 L 114.0,180.0 L 121.0,176.0" fill="#E7E7E7"/>
</svg>
