<?xml version="1.0" ?>
<svg baseProfile="full" height="600px" version="1.1" viewBox="-20.1 -20.1 240.2 240.2" width="600px" xmlns="http://www.w3.org/2000/svg" xmlns:ev="http://www.w3.org/2001/xml-events" xmlns:xlink="http://www.w3.org/1999/xlink">
	<defs/>
	<path d="M 0.0,0.0 L 200.0,0.0 L 200.0,200.0 L 0.0,200.0 L 0.0,0.0" fill="#040404"/>
	<path d="M 0.0,0.0 L 200.0,0.0 L 200.0,200.0 L 0.0,200.0 L 0.0,0.0 M 90.0,2.0 L 71.0,7.0 L 55.0,15.0 L 42.0,25.0 L 34.0,33.0 L 25.0,46.0 L 18.0,60.0 L 15.0,69.0 L 13.0,79.0 L 13.0,110.0 L 18.0,127.0 L 26.0,143.0 L 35.0,155.0 L 44.0,164.0 L 57.0,173.0 L 72.0,180.0 L 83.0,183.0 L 92.0,184.0 L 112.0,184.0 L 128.0,180.0 L 144.0,173.0 L 157.0,164.0 L 170.0,151.0 L 180.0,136.0 L 187.0,119.0 L 190.0,104.0 L 190.0,83.0 L 187.0,66.0 L 182.0,53.0 L 176.0,42.0 L 168.0,32.0 L 162.0,25.0 L 149.0,15.0 L 135.0,8.0 L 118.0,3.0 L 113.0,2.0 L 90.0,2.0" fill="#FCFCFC"/>
	<path d="M 101.0,65.0 L 106.0,66.0 L 116.0,75.0 L 127.0,84.0 L 126.0,95.0 L 122.0,113.0 L 112.0,117.0 L 97.0,122.0 L 92.0,123.0 L 79.0,112.0 L 69.0,104.0 L 70.0,96.0 L 74.0,75.0 L 84.0,71.0 L 101.0,65.0" fill="#FBFBFB"/>
	<path d="M 138.0,21.0 L 145.0,22.0 L 155.0,30.0 L 164.0,39.0 L 166.0,42.0 L 165.0,52.0 L 162.0,68.0 L 149.0,73.0 L 134.0,78.0 L 129.0,76.0 L 114.0,63.0 L 109.0,59.0 L 110.0,49.0 L 114.0,29.0 L 138.0,21.0" fill="#FBFBFB"/>
	<path d="M 123.0,121.0 L 128.0,123.0 L 137.0,131.0 L 148.0,140.0 L 147.0,152.0 L 145.0,162.0 L 140.0,166.0 L 127.0,172.0 L 116.0,175.0 L 108.0,175.0 L 94.0,163.0 L 90.0,160.0 L 93.0,140.0 L 95.0,131.0 L 114.0,124.0 L 123.0,121.0" fill="#FBFBFB"/>
	<path d="M 40.0,54.0 L 45.0,55.0 L 59.0,67.0 L 66.0,72.0 L 66.0,80.0 L 62.0,100.0 L 60.0,103.0 L 34.0,112.0 L 30.0,111.0 L 20.0,102.0 L 20.0,83.0 L 25.0,64.0 L 27.0,59.0 L 40.0,54.0" fill="#FAFAFA"/>
	<path d="M 98.0,10.0 L 112.0,10.0 L 128.0,14.0 L 130.0,16.0 L 111.0,22.0 L 98.0,11.0 L 98.0,10.0" fill="#F5F5F5"/>
	<path d="M 172.0,53.0 L 174.0,54.0 L 180.0,70.0 L 181.0,79.0 L 173.0,73.0 L 170.0,70.0 L 171.0,57.0 L 172.0,53.0" fill="#EDEDED"/>
	<path d="M 84.0,166.0 L 88.0,168.0 L 96.0,175.0 L 93.0,176.0 L 80.0,174.0 L 72.0,171.0 L 75.0,169.0 L 84.0,166.0" fill="#EBEBEB"/>
	<path d="M 166.0,138.0 L 169.0,139.0 L 161.0,149.0 L 154.0,155.0 L 155.0,146.0 L 156.0,142.0 L 166.0,138.0" fill="#EEEEEE"/>
	<path d="M 40.0,39.0 L 41.0,39.0 L 40.0,46.0 L 34.0,48.0 L 36.0,44.0 L 40.0,39.0" fill="#E7E7E7"/>
</svg>
