<?xml version="1.0" ?>
<svg baseProfile="full" height="600px" version="1.1" viewBox="-12.06 -12.06 144.12 144.12" width="600px" xmlns="http://www.w3.org/2000/svg" xmlns:ev="http://www.w3.org/2001/xml-events" xmlns:xlink="http://www.w3.org/1999/xlink">
	<defs/>
	<path d="M 0.0,0.0 L 120.0,0.0 L 120.0,120.0 L 0.0,120.0 L 0.0,0.0" fill="#FCFCFC"/>
	<path d="M 53.0,6.0 L 67.0,6.0 L 78.0,10.0 L 87.0,16.0 L 94.0,24.0 L 100.0,36.0 L 102.0,47.0 L 102.0,58.0 L 100.0,68.0 L 96.0,77.0 L 90.0,86.0 L 82.0,93.0 L 74.0,97.0 L 67.0,99.0 L 52.0,99.0 L 40.0,94.0 L 31.0,87.0 L 25.0,79.0 L 21.0,71.0 L 18.0,58.0 L 18.0,43.0 L 22.0,31.0 L 29.0,20.0 L 38.0,12.0 L 48.0,7.0 L 53.0,6.0" fill="#050505"/>
	<path d="M 43.0,18.0 L 46.0,18.0 L 51.0,30.0 L 51.0,33.0 L 72.0,31.0 L 74.0,19.0 L 78.0,19.0 L 86.0,26.0 L 91.0,33.0 L 91.0,36.0 L 77.0,37.0 L 75.0,49.0 L 74.0,60.0 L 90.0,70.0 L 89.0,75.0 L 80.0,85.0 L 70.0,90.0 L 66.0,91.0 L 52.0,91.0 L 45.0,88.0 L 47.0,86.0 L 54.0,85.0 L 62.0,85.0 L 63.0,75.0 L 65.0,66.0 L 65.0,62.0 L 49.0,52.0 L 42.0,58.0 L 34.0,66.0 L 40.0,82.0 L 39.0,84.0 L 31.0,75.0 L 26.0,64.0 L 25.0,57.0 L 25.0,46.0 L 29.0,33.0 L 36.0,24.0 L 43.0,18.0" fill="#F8F8F8"/>
</svg>
