<?xml version="1.0" ?>
<svg baseProfile="full" height="600px" version="1.1" viewBox="-12.06 -12.06 144.12 144.12" width="600px" xmlns="http://www.w3.org/2000/svg" xmlns:ev="http://www.w3.org/2001/xml-events" xmlns:xlink="http://www.w3.org/1999/xlink">
	<defs/>
	<path d="M 0.0,0.0 L 120.0,0.0 L 120.0,120.0 L 0.0,120.0 L 0.0,0.0" fill="#FCFCFC"/>
	<path d="M 50.0,31.0 L 70.0,31.0 L 86.0,35.0 L 102.0,43.0 L 111.0,51.0 L 116.0,60.0 L 117.0,64.0 L 117.0,75.0 L 113.0,84.0 L 106.0,92.0 L 98.0,98.0 L 87.0,103.0 L 77.0,106.0 L 69.0,107.0 L 51.0,107.0 L 38.0,105.0 L 25.0,100.0 L 15.0,93.0 L 8.0,86.0 L 4.0,78.0 L 3.0,74.0 L 3.0,63.0 L 9.0,51.0 L 19.0,42.0 L 33.0,35.0 L 50.0,31.0" fill="#060606"/>
	<path d="M 71.0,39.0 L 79.0,40.0 L 91.0,45.0 L 99.0,51.0 L 105.0,58.0 L 107.0,62.0 L 106.0,66.0 L 101.0,58.0 L 101.0,56.0 L 72.0,57.0 L 69.0,66.0 L 66.0,74.0 L 78.0,80.0 L 89.0,84.0 L 104.0,76.0 L 106.0,76.0 L 104.0,82.0 L 98.0,89.0 L 94.0,92.0 L 88.0,92.0 L 76.0,99.0 L 66.0,101.0 L 51.0,101.0 L 35.0,97.0 L 34.0,95.0 L 49.0,94.0 L 55.0,79.0 L 55.0,77.0 L 34.0,68.0 L 28.0,70.0 L 14.0,77.0 L 13.0,75.0 L 13.0,62.0 L 19.0,53.0 L 27.0,46.0 L 31.0,44.0 L 34.0,44.0 L 38.0,51.0 L 38.0,53.0 L 45.0,52.0 L 67.0,52.0 L 68.0,46.0 L 71.0,39.0" fill="#F8F8F8"/>
	<path d="M 101.0,55.0 L 104.0,56.0 L 107.0,62.0 L 106.0,66.0 L 101.0,58.0 L 101.0,55.0" fill="#DEDEDE"/>
</svg>
