<?xml version="1.0" ?>
<svg baseProfile="full" height="600px" version="1.1" viewBox="-12.06 -12.06 144.12 144.12" width="600px" xmlns="http://www.w3.org/2000/svg" xmlns:ev="http://www.w3.org/2001/xml-events" xmlns:xlink="http://www.w3.org/1999/xlink">
	<defs/>
	<path d="M 0.0,0.0 L 120.0,0.0 L 120.0,120.0 L 0.0,120.0 L 0.0,0.0" fill="#FCFCFC"/>
	<path d="M 54.0,6.0 L 65.0,6.0 L 78.0,11.0 L 87.0,19.0 L 95.0,32.0 L 98.0,41.0 L 99.0,46.0 L 99.0,68.0 L 97.0,76.0 L 92.0,88.0 L 86.0,96.0 L 77.0,104.0 L 66.0,108.0 L 52.0,108.0 L 40.0,102.0 L 31.0,93.0 L 24.0,79.0 L 22.0,74.0 L 21.0,68.0 L 21.0,45.0 L 25.0,32.0 L 31.0,22.0 L 38.0,14.0 L 48.0,8.0 L 54.0,6.0" fill="#060606"/>
	<path d="M 66.0,16.0 L 71.0,17.0 L 80.0,23.0 L 87.0,32.0 L 90.0,38.0 L 90.0,42.0 L 85.0,41.0 L 74.0,37.0 L 72.0,43.0 L 65.0,55.0 L 66.0,59.0 L 75.0,75.0 L 80.0,74.0 L 91.0,70.0 L 90.0,75.0 L 84.0,87.0 L 76.0,95.0 L 68.0,99.0 L 66.0,99.0 L 66.0,92.0 L 57.0,89.0 L 48.0,86.0 L 44.0,93.0 L 40.0,91.0 L 34.0,84.0 L 29.0,72.0 L 29.0,70.0 L 38.0,73.0 L 47.0,76.0 L 49.0,70.0 L 56.0,58.0 L 55.0,53.0 L 46.0,38.0 L 40.0,39.0 L 31.0,43.0 L 29.0,43.0 L 32.0,34.0 L 39.0,24.0 L 42.0,21.0 L 45.0,22.0 L 48.0,27.0 L 57.0,24.0 L 66.0,21.0 L 66.0,16.0" fill="#F8F8F8"/>
</svg>
