<?xml version="1.0" ?>
<svg baseProfile="full" height="600px" version="1.1" viewBox="-19.296000000000003 -19.296000000000003 230.592 230.592" width="600px" xmlns="http://www.w3.org/2000/svg" xmlns:ev="http://www.w3.org/2001/xml-events" xmlns:xlink="http://www.w3.org/1999/xlink">
	<defs/>
	<path d="M 0.0,0.0 L 192.0,0.0 L 192.0,192.0 L 0.0,192.0 L 0.0,0.0" fill="#FDFEFF"/>
	<path d="M 92.0,26.0 L 100.0,26.0 L 100.0,170.0 L 92.0,170.0 L 92.0,26.0" fill="#2296F3"/>
	<path d="M 28.0,24.0 L 36.0,24.0 L 36.0,168.0 L 28.0,168.0 L 28.0,24.0" fill="#2296F3"/>
	<path d="M 156.0,50.0 L 164.0,50.0 L 164.0,146.0 L 156.0,146.0 L 156.0,50.0" fill="#2296F3"/>
	<path d="M 76.0,48.0 L 84.0,48.0 L 84.0,144.0 L 76.0,144.0 L 76.0,48.0" fill="#2296F3"/>
	<path d="M 108.0,60.0 L 116.0,60.0 L 116.0,132.0 L 108.0,132.0 L 108.0,60.0" fill="#2296F3"/>
	<path d="M 44.0,60.0 L 52.0,60.0 L 52.0,132.0 L 44.0,132.0 L 44.0,60.0" fill="#2296F3"/>
	<path d="M 140.0,72.0 L 148.0,72.0 L 148.0,120.0 L 140.0,120.0 L 140.0,72.0" fill="#2296F3"/>
	<path d="M 124.0,82.0 L 132.0,82.0 L 132.0,110.0 L 124.0,110.0 L 124.0,82.0" fill="#2296F3"/>
	<path d="M 60.0,82.0 L 68.0,82.0 L 68.0,110.0 L 60.0,110.0 L 60.0,82.0" fill="#2296F3"/>
</svg>
