<?xml version="1.0" ?>
<svg baseProfile="full" height="600px" version="1.1" viewBox="-20.1 -20.1 240.2 240.2" width="600px" xmlns="http://www.w3.org/2000/svg" xmlns:ev="http://www.w3.org/2001/xml-events" xmlns:xlink="http://www.w3.org/1999/xlink">
	<defs/>
	<path d="M 0.0,0.0 L 200.0,0.0 L 200.0,200.0 L 0.0,200.0 L 0.0,0.0" fill="#FDFDFD"/>
	<path d="M 122.0,41.0 L 127.0,42.0 L 128.0,43.0 L 128.0,157.0 L 126.0,159.0 L 121.0,158.0 L 120.0,157.0 L 120.0,43.0 L 122.0,41.0" fill="#010101"/>
	<path d="M 26.0,41.0 L 31.0,42.0 L 32.0,43.0 L 32.0,157.0 L 30.0,159.0 L 25.0,158.0 L 24.0,157.0 L 24.0,43.0 L 26.0,41.0" fill="#010101"/>
	<path d="M 194.0,47.0 L 199.0,48.0 L 200.0,49.0 L 200.0,151.0 L 198.0,153.0 L 193.0,152.0 L 192.0,151.0 L 192.0,49.0 L 194.0,47.0" fill="#010101"/>
	<path d="M 98.0,47.0 L 103.0,48.0 L 104.0,49.0 L 104.0,151.0 L 102.0,153.0 L 97.0,152.0 L 96.0,151.0 L 96.0,49.0 L 98.0,47.0" fill="#010101"/>
	<path d="M 2.0,47.0 L 7.0,48.0 L 8.0,49.0 L 8.0,151.0 L 6.0,153.0 L 1.0,152.0 L 0.0,151.0 L 0.0,49.0 L 2.0,47.0" fill="#020202"/>
	<path d="M 145.0,73.0 L 151.0,73.0 L 152.0,74.0 L 152.0,125.0 L 150.0,127.0 L 145.0,126.0 L 144.0,125.0 L 144.0,74.0 L 145.0,73.0" fill="#020202"/>
	<path d="M 49.0,73.0 L 55.0,73.0 L 56.0,74.0 L 56.0,125.0 L 54.0,127.0 L 49.0,126.0 L 48.0,125.0 L 48.0,74.0 L 49.0,73.0" fill="#020202"/>
	<path d="M 73.0,74.0 L 79.0,74.0 L 80.0,75.0 L 80.0,124.0 L 78.0,126.0 L 73.0,125.0 L 72.0,124.0 L 72.0,75.0 L 73.0,74.0" fill="#020202"/>
	<path d="M 170.0,75.0 L 175.0,76.0 L 176.0,77.0 L 176.0,122.0 L 174.0,124.0 L 169.0,123.0 L 168.0,122.0 L 168.0,77.0 L 170.0,75.0" fill="#010101"/>
</svg>
