<?xml version="1.0" ?>
<svg baseProfile="full" height="600px" version="1.1" viewBox="-16.08 -16.08 192.16 192.16" width="600px" xmlns="http://www.w3.org/2000/svg" xmlns:ev="http://www.w3.org/2001/xml-events" xmlns:xlink="http://www.w3.org/1999/xlink">
	<defs/>
	<path d="M 0.0,0.0 L 160.0,0.0 L 160.0,160.0 L 0.0,160.0 L 0.0,0.0" fill="#FFFFFF"/>
	<path d="M 92.0,24.0 L 104.0,24.0 L 104.0,136.0 L 92.0,136.0 L 92.0,24.0" fill="#4E7AB5"/>
	<path d="M 24.0,24.0 L 36.0,24.0 L 36.0,136.0 L 24.0,136.0 L 24.0,24.0" fill="#4E7AB5"/>
	<path d="M 140.0,52.0 L 152.0,52.0 L 152.0,108.0 L 140.0,108.0 L 140.0,52.0" fill="#4F7BB6"/>
	<path d="M 108.0,52.0 L 120.0,52.0 L 120.0,108.0 L 108.0,108.0 L 108.0,52.0" fill="#4F7BB6"/>
	<path d="M 74.0,52.0 L 86.0,52.0 L 86.0,108.0 L 74.0,108.0 L 74.0,52.0" fill="#507CB6"/>
	<path d="M 8.0,52.0 L 20.0,52.0 L 20.0,108.0 L 8.0,108.0 L 8.0,52.0" fill="#4F7BB6"/>
	<path d="M 40.0,52.0 L 52.0,52.0 L 52.0,108.0 L 40.0,108.0 L 40.0,52.0" fill="#4E7AB5"/>
	<path d="M 96.0,28.0 L 100.0,28.0 L 100.0,132.0 L 96.0,132.0 L 96.0,28.0" fill="#89B5EE"/>
	<path d="M 28.0,28.0 L 32.0,28.0 L 32.0,132.0 L 28.0,132.0 L 28.0,28.0" fill="#89B5EE"/>
	<path d="M 56.0,68.0 L 68.0,68.0 L 68.0,92.0 L 56.0,92.0 L 56.0,68.0" fill="#517CB6"/>
	<path d="M 124.0,68.0 L 136.0,68.0 L 136.0,92.0 L 124.0,92.0 L 124.0,68.0" fill="#4E7AB5"/>
	<path d="M 144.0,56.0 L 148.0,56.0 L 148.0,104.0 L 144.0,104.0 L 144.0,56.0" fill="#89B5EE"/>
	<path d="M 112.0,56.0 L 116.0,56.0 L 116.0,104.0 L 112.0,104.0 L 112.0,56.0" fill="#89B5EE"/>
	<path d="M 78.0,56.0 L 82.0,56.0 L 82.0,104.0 L 78.0,104.0 L 78.0,56.0" fill="#88B4ED"/>
	<path d="M 44.0,56.0 L 48.0,56.0 L 48.0,104.0 L 44.0,104.0 L 44.0,56.0" fill="#89B5EE"/>
	<path d="M 12.0,56.0 L 16.0,56.0 L 16.0,104.0 L 12.0,104.0 L 12.0,56.0" fill="#88B4ED"/>
	<path d="M 128.0,72.0 L 132.0,72.0 L 132.0,88.0 L 128.0,88.0 L 128.0,72.0" fill="#89B5EE"/>
	<path d="M 60.0,72.0 L 64.0,72.0 L 64.0,88.0 L 60.0,88.0 L 60.0,72.0" fill="#87B3EC"/>
</svg>
