<?xml version="1.0" ?>
<svg baseProfile="full" height="600px" version="1.1" viewBox="-12.06 -12.06 144.12 144.12" width="600px" xmlns="http://www.w3.org/2000/svg" xmlns:ev="http://www.w3.org/2001/xml-events" xmlns:xlink="http://www.w3.org/1999/xlink">
	<defs/>
	<path d="M 0.0,0.0 L 120.0,0.0 L 120.0,120.0 L 0.0,120.0 L 0.0,0.0" fill="#FDFDFD"/>
	<path d="M 57.0,21.0 L 62.0,21.0 L 64.0,23.0 L 64.0,97.0 L 63.0,99.0 L 58.0,99.0 L 56.0,97.0 L 56.0,23.0 L 57.0,21.0" fill="#010101"/>
	<path d="M 106.0,21.0 L 111.0,22.0 L 112.0,23.0 L 112.0,97.0 L 110.0,99.0 L 105.0,98.0 L 104.0,97.0 L 104.0,23.0 L 106.0,21.0" fill="#020202"/>
	<path d="M 10.0,28.0 L 15.0,29.0 L 16.0,30.0 L 16.0,90.0 L 14.0,92.0 L 9.0,91.0 L 8.0,90.0 L 8.0,30.0 L 10.0,28.0" fill="#010101"/>
	<path d="M 42.0,29.0 L 47.0,30.0 L 48.0,31.0 L 48.0,89.0 L 46.0,91.0 L 41.0,90.0 L 40.0,89.0 L 40.0,31.0 L 42.0,29.0" fill="#020202"/>
	<path d="M 73.0,30.0 L 79.0,30.0 L 80.0,31.0 L 80.0,88.0 L 79.0,90.0 L 73.0,90.0 L 72.0,88.0 L 72.0,31.0 L 73.0,30.0" fill="#020202"/>
	<path d="M 89.0,43.0 L 94.0,43.0 L 96.0,45.0 L 96.0,75.0 L 95.0,77.0 L 90.0,77.0 L 88.0,75.0 L 88.0,45.0 L 89.0,43.0" fill="#020202"/>
	<path d="M 25.0,44.0 L 31.0,44.0 L 32.0,45.0 L 32.0,74.0 L 31.0,76.0 L 25.0,76.0 L 24.0,74.0 L 24.0,45.0 L 25.0,44.0" fill="#040404"/>
</svg>
