<?xml version="1.0" ?>
<svg baseProfile="full" height="600px" version="1.1" viewBox="-20.1 -20.1 240.2 240.2" width="600px" xmlns="http://www.w3.org/2000/svg" xmlns:ev="http://www.w3.org/2001/xml-events" xmlns:xlink="http://www.w3.org/1999/xlink">
	<defs/>
	<path d="M 0.0,0.0 L 200.0,0.0 L 200.0,200.0 L 0.0,200.0 L 0.0,0.0" fill="#FDFDFD"/>
	<path d="M 74.0,34.0 L 79.0,35.0 L 80.0,36.0 L 80.0,164.0 L 79.0,165.0 L 73.0,165.0 L 72.0,164.0 L 72.0,36.0 L 74.0,34.0" fill="#010101"/>
	<path d="M 170.0,35.0 L 175.0,36.0 L 176.0,37.0 L 176.0,162.0 L 175.0,164.0 L 169.0,164.0 L 168.0,162.0 L 168.0,37.0 L 170.0,35.0" fill="#010101"/>
	<path d="M 194.0,50.0 L 199.0,50.0 L 200.0,52.0 L 200.0,148.0 L 198.0,150.0 L 193.0,149.0 L 192.0,148.0 L 192.0,52.0 L 194.0,50.0" fill="#010101"/>
	<path d="M 97.0,53.0 L 103.0,53.0 L 104.0,54.0 L 104.0,145.0 L 102.0,147.0 L 97.0,146.0 L 96.0,145.0 L 96.0,54.0 L 97.0,53.0" fill="#010101"/>
	<path d="M 1.0,53.0 L 7.0,53.0 L 8.0,54.0 L 8.0,145.0 L 6.0,147.0 L 1.0,146.0 L 0.0,145.0 L 0.0,54.0 L 1.0,53.0" fill="#010101"/>
	<path d="M 50.0,67.0 L 55.0,68.0 L 56.0,69.0 L 56.0,131.0 L 54.0,133.0 L 49.0,132.0 L 48.0,131.0 L 48.0,69.0 L 50.0,67.0" fill="#010101"/>
	<path d="M 146.0,70.0 L 151.0,70.0 L 152.0,72.0 L 152.0,128.0 L 150.0,130.0 L 145.0,129.0 L 144.0,128.0 L 144.0,72.0 L 146.0,70.0" fill="#010101"/>
	<path d="M 122.0,78.0 L 127.0,79.0 L 128.0,80.0 L 128.0,119.0 L 127.0,121.0 L 121.0,121.0 L 120.0,119.0 L 120.0,80.0 L 122.0,78.0" fill="#020202"/>
	<path d="M 26.0,78.0 L 31.0,79.0 L 32.0,80.0 L 32.0,119.0 L 31.0,121.0 L 25.0,121.0 L 24.0,119.0 L 24.0,80.0 L 26.0,78.0" fill="#020202"/>
</svg>
