<?xml version="1.0" ?>
<svg baseProfile="full" height="600px" version="1.1" viewBox="-12.864 -12.864 153.728 153.728" width="600px" xmlns="http://www.w3.org/2000/svg" xmlns:ev="http://www.w3.org/2001/xml-events" xmlns:xlink="http://www.w3.org/1999/xlink">
	<defs/>
	<path d="M 0.0,0.0 L 128.0,0.0 L 128.0,128.0 L 0.0,128.0 L 0.0,0.0" fill="#FDFDFD"/>
	<path d="M 84.0,20.0 L 92.0,20.0 L 92.0,108.0 L 84.0,108.0 L 84.0,20.0" fill="#000000"/>
	<path d="M 36.0,20.0 L 44.0,20.0 L 44.0,108.0 L 36.0,108.0 L 36.0,20.0" fill="#000000"/>
	<path d="M 100.0,44.0 L 108.0,44.0 L 108.0,84.0 L 100.0,84.0 L 100.0,44.0" fill="#000000"/>
	<path d="M 68.0,44.0 L 76.0,44.0 L 76.0,84.0 L 68.0,84.0 L 68.0,44.0" fill="#000000"/>
	<path d="M 20.0,44.0 L 28.0,44.0 L 28.0,84.0 L 20.0,84.0 L 20.0,44.0" fill="#000000"/>
	<path d="M 116.0,56.0 L 124.0,56.0 L 124.0,72.0 L 116.0,72.0 L 116.0,56.0" fill="#000000"/>
	<path d="M 52.0,56.0 L 60.0,56.0 L 60.0,72.0 L 52.0,72.0 L 52.0,56.0" fill="#000000"/>
	<path d="M 4.0,56.0 L 12.0,56.0 L 12.0,72.0 L 4.0,72.0 L 4.0,56.0" fill="#000000"/>
</svg>
