<?xml version="1.0" ?>
<svg baseProfile="full" height="600px" version="1.1" viewBox="-20.1 -20.1 240.2 240.2" width="600px" xmlns="http://www.w3.org/2000/svg" xmlns:ev="http://www.w3.org/2001/xml-events" xmlns:xlink="http://www.w3.org/1999/xlink">
	<defs/>
	<path d="M 0.0,0.0 L 200.0,0.0 L 200.0,200.0 L 0.0,200.0 L 0.0,0.0" fill="#FDFDFD"/>
	<path d="M 122.0,24.0 L 127.0,25.0 L 128.0,26.0 L 128.0,174.0 L 126.0,176.0 L 121.0,175.0 L 120.0,174.0 L 120.0,26.0 L 122.0,24.0" fill="#010101"/>
	<path d="M 26.0,24.0 L 31.0,25.0 L 32.0,26.0 L 32.0,174.0 L 30.0,176.0 L 25.0,175.0 L 24.0,174.0 L 24.0,26.0 L 26.0,24.0" fill="#010101"/>
	<path d="M 194.0,64.0 L 199.0,65.0 L 200.0,66.0 L 200.0,134.0 L 198.0,136.0 L 193.0,135.0 L 192.0,134.0 L 192.0,66.0 L 194.0,64.0" fill="#020202"/>
	<path d="M 146.0,64.0 L 151.0,65.0 L 152.0,66.0 L 152.0,134.0 L 150.0,136.0 L 145.0,135.0 L 144.0,134.0 L 144.0,66.0 L 146.0,64.0" fill="#020202"/>
	<path d="M 98.0,64.0 L 103.0,65.0 L 104.0,66.0 L 104.0,134.0 L 102.0,136.0 L 97.0,135.0 L 96.0,134.0 L 96.0,66.0 L 98.0,64.0" fill="#020202"/>
	<path d="M 50.0,64.0 L 55.0,65.0 L 56.0,66.0 L 56.0,134.0 L 54.0,136.0 L 49.0,135.0 L 48.0,134.0 L 48.0,66.0 L 50.0,64.0" fill="#020202"/>
	<path d="M 2.0,64.0 L 7.0,65.0 L 8.0,66.0 L 8.0,134.0 L 6.0,136.0 L 1.0,135.0 L 0.0,133.0 L 0.0,66.0 L 2.0,64.0" fill="#040404"/>
	<path d="M 170.0,83.0 L 175.0,84.0 L 176.0,85.0 L 176.0,114.0 L 174.0,116.0 L 169.0,115.0 L 168.0,114.0 L 168.0,85.0 L 170.0,83.0" fill="#060606"/>
	<path d="M 74.0,84.0 L 79.0,85.0 L 80.0,86.0 L 80.0,114.0 L 78.0,116.0 L 73.0,115.0 L 72.0,114.0 L 72.0,86.0 L 74.0,84.0" fill="#040404"/>
</svg>
