<?xml version="1.0" ?>
<svg baseProfile="full" height="600px" version="1.1" viewBox="-12.06 -12.06 144.12 144.12" width="600px" xmlns="http://www.w3.org/2000/svg" xmlns:ev="http://www.w3.org/2001/xml-events" xmlns:xlink="http://www.w3.org/1999/xlink">
	<defs/>
	<path d="M 0.0,0.0 L 120.0,0.0 L 120.0,120.0 L 0.0,120.0 L 0.0,0.0" fill="#FDFDFD"/>
	<path d="M 89.0,31.0 L 95.0,31.0 L 96.0,32.0 L 96.0,87.0 L 95.0,89.0 L 89.0,89.0 L 88.0,87.0 L 88.0,32.0 L 89.0,31.0" fill="#020202"/>
	<path d="M 57.0,34.0 L 63.0,34.0 L 64.0,35.0 L 64.0,84.0 L 63.0,86.0 L 57.0,86.0 L 56.0,85.0 L 56.0,35.0 L 57.0,34.0" fill="#020202"/>
	<path d="M 26.0,34.0 L 31.0,35.0 L 32.0,36.0 L 32.0,84.0 L 30.0,86.0 L 25.0,85.0 L 24.0,84.0 L 24.0,36.0 L 26.0,34.0" fill="#010101"/>
	<path d="M 106.0,35.0 L 111.0,36.0 L 112.0,37.0 L 112.0,83.0 L 110.0,85.0 L 105.0,84.0 L 104.0,83.0 L 104.0,37.0 L 106.0,35.0" fill="#020202"/>
	<path d="M 74.0,46.0 L 79.0,47.0 L 80.0,48.0 L 80.0,72.0 L 78.0,74.0 L 73.0,73.0 L 72.0,72.0 L 72.0,48.0 L 74.0,46.0" fill="#070707"/>
	<path d="M 10.0,46.0 L 15.0,47.0 L 16.0,48.0 L 16.0,72.0 L 14.0,74.0 L 9.0,73.0 L 8.0,72.0 L 8.0,48.0 L 10.0,46.0" fill="#070707"/>
	<path d="M 42.0,46.0 L 47.0,47.0 L 48.0,48.0 L 48.0,72.0 L 46.0,74.0 L 41.0,73.0 L 40.0,72.0 L 40.0,48.0 L 42.0,46.0" fill="#030303"/>
</svg>
