<?xml version="1.0" ?>
<svg baseProfile="full" height="600px" version="1.1" viewBox="-16.08 -16.08 192.16 192.16" width="600px" xmlns="http://www.w3.org/2000/svg" xmlns:ev="http://www.w3.org/2001/xml-events" xmlns:xlink="http://www.w3.org/1999/xlink">
	<defs/>
	<path d="M 0.0,0.0 L 160.0,0.0 L 160.0,160.0 L 0.0,160.0 L 0.0,0.0" fill="#FEFEFE"/>
	<path d="M 140.0,32.0 L 152.0,32.0 L 152.0,128.0 L 140.0,128.0 L 140.0,32.0" fill="#4F7BB5"/>
	<path d="M 74.0,32.0 L 86.0,32.0 L 86.0,128.0 L 74.0,128.0 L 74.0,32.0" fill="#4F7BB5"/>
	<path d="M 8.0,32.0 L 20.0,32.0 L 20.0,128.0 L 8.0,128.0 L 8.0,32.0" fill="#4E7AB5"/>
	<path d="M 124.0,35.0 L 136.0,35.0 L 136.0,125.0 L 124.0,125.0 L 124.0,35.0" fill="#517DB7"/>
	<path d="M 56.0,35.0 L 68.0,35.0 L 68.0,125.0 L 56.0,125.0 L 56.0,35.0" fill="#517CB7"/>
	<path d="M 92.0,48.0 L 104.0,48.0 L 104.0,112.0 L 92.0,112.0 L 92.0,48.0" fill="#4F7BB5"/>
	<path d="M 24.0,57.0 L 36.0,57.0 L 36.0,103.0 L 24.0,103.0 L 24.0,57.0" fill="#4F7BB6"/>
	<path d="M 108.0,60.0 L 120.0,60.0 L 120.0,100.0 L 108.0,100.0 L 108.0,60.0" fill="#4F7BB6"/>
	<path d="M 40.0,60.0 L 52.0,60.0 L 52.0,100.0 L 40.0,100.0 L 40.0,60.0" fill="#4E7AB5"/>
	<path d="M 144.0,36.0 L 148.0,36.0 L 148.0,124.0 L 144.0,124.0 L 144.0,36.0" fill="#89B5EE"/>
	<path d="M 78.0,36.0 L 82.0,36.0 L 82.0,124.0 L 78.0,124.0 L 78.0,36.0" fill="#89B5EE"/>
	<path d="M 12.0,36.0 L 16.0,36.0 L 16.0,124.0 L 12.0,124.0 L 12.0,36.0" fill="#89B5EE"/>
	<path d="M 128.0,40.0 L 132.0,40.0 L 132.0,120.0 L 128.0,120.0 L 128.0,40.0" fill="#8AB6EF"/>
	<path d="M 60.0,40.0 L 64.0,40.0 L 64.0,120.0 L 60.0,120.0 L 60.0,40.0" fill="#89B5EE"/>
	<path d="M 96.0,52.0 L 100.0,52.0 L 100.0,108.0 L 96.0,108.0 L 96.0,52.0" fill="#89B5EE"/>
	<path d="M 28.0,61.0 L 32.0,61.0 L 32.0,99.0 L 28.0,99.0 L 28.0,61.0" fill="#89B5EE"/>
	<path d="M 112.0,64.0 L 116.0,64.0 L 116.0,96.0 L 112.0,96.0 L 112.0,64.0" fill="#89B5EE"/>
	<path d="M 44.0,64.0 L 48.0,64.0 L 48.0,96.0 L 44.0,96.0 L 44.0,64.0" fill="#89B5EE"/>
</svg>
