<?xml version="1.0" ?>
<svg baseProfile="full" height="600px" version="1.1" viewBox="-12.06 -12.06 144.12 144.12" width="600px" xmlns="http://www.w3.org/2000/svg" xmlns:ev="http://www.w3.org/2001/xml-events" xmlns:xlink="http://www.w3.org/1999/xlink">
	<defs/>
	<path d="M 0.0,0.0 L 120.0,0.0 L 120.0,120.0 L 0.0,120.0 L 0.0,0.0" fill="#FDFDFD"/>
	<path d="M 10.0,19.0 L 15.0,20.0 L 16.0,21.0 L 16.0,99.0 L 14.0,101.0 L 9.0,100.0 L 8.0,99.0 L 8.0,21.0 L 10.0,19.0" fill="#030303"/>
	<path d="M 74.0,21.0 L 79.0,22.0 L 80.0,23.0 L 80.0,97.0 L 78.0,99.0 L 73.0,98.0 L 72.0,97.0 L 72.0,23.0 L 74.0,21.0" fill="#010101"/>
	<path d="M 42.0,21.0 L 47.0,22.0 L 48.0,23.0 L 48.0,97.0 L 46.0,99.0 L 41.0,98.0 L 40.0,97.0 L 40.0,23.0 L 42.0,21.0" fill="#010101"/>
	<path d="M 58.0,28.0 L 63.0,29.0 L 64.0,30.0 L 64.0,90.0 L 62.0,92.0 L 57.0,91.0 L 56.0,90.0 L 56.0,30.0 L 58.0,28.0" fill="#040404"/>
	<path d="M 106.0,29.0 L 111.0,30.0 L 112.0,31.0 L 112.0,89.0 L 111.0,90.0 L 105.0,90.0 L 104.0,89.0 L 104.0,31.0 L 106.0,29.0" fill="#030303"/>
	<path d="M 90.0,35.0 L 95.0,36.0 L 96.0,37.0 L 96.0,83.0 L 94.0,85.0 L 89.0,84.0 L 88.0,83.0 L 88.0,37.0 L 90.0,35.0" fill="#050505"/>
	<path d="M 26.0,38.0 L 31.0,39.0 L 32.0,40.0 L 32.0,80.0 L 30.0,82.0 L 25.0,81.0 L 24.0,80.0 L 24.0,40.0 L 26.0,38.0" fill="#010101"/>
</svg>
