<?xml version="1.0" ?>
<svg baseProfile="full" height="600px" version="1.1" viewBox="-12.864 -12.864 153.728 153.728" width="600px" xmlns="http://www.w3.org/2000/svg" xmlns:ev="http://www.w3.org/2001/xml-events" xmlns:xlink="http://www.w3.org/1999/xlink">
	<defs/>
	<path d="M 0.0,0.0 L 128.0,0.0 L 128.0,128.0 L 0.0,128.0 L 0.0,0.0" fill="#FCFCFC"/>
	<path d="M 84.0,30.0 L 92.0,30.0 L 92.0,98.0 L 84.0,98.0 L 84.0,30.0" fill="#010101"/>
	<path d="M 36.0,30.0 L 44.0,30.0 L 44.0,98.0 L 36.0,98.0 L 36.0,30.0" fill="#010101"/>
	<path d="M 100.0,34.0 L 108.0,34.0 L 108.0,94.0 L 100.0,94.0 L 100.0,34.0" fill="#000000"/>
	<path d="M 68.0,34.0 L 76.0,34.0 L 76.0,94.0 L 68.0,94.0 L 68.0,34.0" fill="#000000"/>
	<path d="M 20.0,34.0 L 28.0,34.0 L 28.0,94.0 L 20.0,94.0 L 20.0,34.0" fill="#000000"/>
	<path d="M 116.0,51.0 L 124.0,51.0 L 124.0,77.0 L 116.0,77.0 L 116.0,51.0" fill="#000000"/>
	<path d="M 52.0,51.0 L 60.0,51.0 L 60.0,77.0 L 52.0,77.0 L 52.0,51.0" fill="#000000"/>
	<path d="M 4.0,51.0 L 12.0,51.0 L 12.0,77.0 L 4.0,77.0 L 4.0,51.0" fill="#000000"/>
</svg>
