<?xml version="1.0" ?>
<svg baseProfile="full" height="600px" version="1.1" viewBox="-9.648000000000001 -9.648000000000001 115.296 115.296" width="600px" xmlns="http://www.w3.org/2000/svg" xmlns:ev="http://www.w3.org/2001/xml-events" xmlns:xlink="http://www.w3.org/1999/xlink">
	<defs/>
	<path d="M 0.0,0.0 L 96.0,0.0 L 96.0,96.0 L 0.0,96.0 L 0.0,0.0" fill="#FEFEFE"/>
	<path d="M 80.0,15.0 L 88.0,15.0 L 88.0,81.0 L 80.0,81.0 L 80.0,15.0" fill="#000000"/>
	<path d="M 32.0,15.0 L 40.0,15.0 L 40.0,81.0 L 32.0,81.0 L 32.0,15.0" fill="#000000"/>
	<path d="M 44.0,17.0 L 52.0,17.0 L 52.0,79.0 L 44.0,79.0 L 44.0,17.0" fill="#010101"/>
	<path d="M 68.0,29.0 L 76.0,29.0 L 76.0,67.0 L 68.0,67.0 L 68.0,29.0" fill="#010101"/>
	<path d="M 20.0,29.0 L 28.0,29.0 L 28.0,67.0 L 20.0,67.0 L 20.0,29.0" fill="#010101"/>
	<path d="M 56.0,31.0 L 64.0,31.0 L 64.0,65.0 L 56.0,65.0 L 56.0,31.0" fill="#000000"/>
	<path d="M 8.0,31.0 L 16.0,31.0 L 16.0,65.0 L 8.0,65.0 L 8.0,31.0" fill="#000000"/>
</svg>
