<?xml version="1.0" ?>
<svg baseProfile="full" height="600px" version="1.1" viewBox="-20.1 -20.1 240.2 240.2" width="600px" xmlns="http://www.w3.org/2000/svg" xmlns:ev="http://www.w3.org/2001/xml-events" xmlns:xlink="http://www.w3.org/1999/xlink">
	<defs/>
	<path d="M 0.0,0.0 L 200.0,0.0 L 200.0,200.0 L 0.0,200.0 L 0.0,0.0" fill="#FDFDFD"/>
	<path d="M 170.0,29.0 L 175.0,30.0 L 176.0,31.0 L 176.0,169.0 L 174.0,171.0 L 169.0,170.0 L 168.0,169.0 L 168.0,31.0 L 170.0,29.0" fill="#010101"/>
	<path d="M 73.0,30.0 L 79.0,30.0 L 80.0,31.0 L 80.0,168.0 L 78.0,170.0 L 73.0,169.0 L 72.0,168.0 L 72.0,31.0 L 73.0,30.0" fill="#010101"/>
	<path d="M 50.0,55.0 L 55.0,56.0 L 56.0,57.0 L 56.0,143.0 L 54.0,145.0 L 49.0,144.0 L 48.0,143.0 L 48.0,57.0 L 50.0,55.0" fill="#010101"/>
	<path d="M 146.0,58.0 L 151.0,59.0 L 152.0,60.0 L 152.0,139.0 L 151.0,141.0 L 145.0,141.0 L 144.0,139.0 L 144.0,60.0 L 146.0,58.0" fill="#020202"/>
	<path d="M 194.0,63.0 L 199.0,64.0 L 200.0,65.0 L 200.0,134.0 L 198.0,136.0 L 193.0,136.0 L 192.0,134.0 L 192.0,65.0 L 194.0,63.0" fill="#020202"/>
	<path d="M 98.0,67.0 L 103.0,68.0 L 104.0,69.0 L 104.0,131.0 L 102.0,133.0 L 97.0,132.0 L 96.0,131.0 L 96.0,69.0 L 98.0,67.0" fill="#010101"/>
	<path d="M 2.0,67.0 L 7.0,68.0 L 8.0,69.0 L 8.0,131.0 L 6.0,133.0 L 1.0,132.0 L 0.0,131.0 L 0.0,69.0 L 2.0,67.0" fill="#010101"/>
	<path d="M 26.0,80.0 L 31.0,81.0 L 32.0,82.0 L 32.0,117.0 L 30.0,119.0 L 25.0,118.0 L 24.0,117.0 L 24.0,82.0 L 26.0,80.0" fill="#040404"/>
	<path d="M 122.0,81.0 L 127.0,82.0 L 128.0,83.0 L 128.0,117.0 L 126.0,119.0 L 121.0,118.0 L 120.0,117.0 L 120.0,83.0 L 122.0,81.0" fill="#040404"/>
</svg>
