<?xml version="1.0" ?>
<svg baseProfile="full" height="600px" version="1.1" viewBox="-12.864 -12.864 153.728 153.728" width="600px" xmlns="http://www.w3.org/2000/svg" xmlns:ev="http://www.w3.org/2001/xml-events" xmlns:xlink="http://www.w3.org/1999/xlink">
	<defs/>
	<path d="M 0.0,0.0 L 128.0,0.0 L 128.0,128.0 L 0.0,128.0 L 0.0,0.0" fill="#FCFCFC"/>
	<path d="M 54.0,12.0 L 75.0,12.0 L 92.0,17.0 L 103.0,23.0 L 111.0,30.0 L 118.0,41.0 L 120.0,47.0 L 120.0,59.0 L 116.0,71.0 L 108.0,81.0 L 98.0,88.0 L 84.0,94.0 L 74.0,96.0 L 58.0,97.0 L 37.0,113.0 L 32.0,116.0 L 32.0,88.0 L 27.0,86.0 L 18.0,79.0 L 11.0,69.0 L 8.0,59.0 L 8.0,47.0 L 12.0,37.0 L 20.0,27.0 L 30.0,20.0 L 41.0,15.0 L 54.0,12.0" fill="#FAFAFA"/>
	<path d="M 54.0,12.0 L 75.0,12.0 L 92.0,17.0 L 103.0,23.0 L 111.0,30.0 L 118.0,41.0 L 120.0,47.0 L 120.0,59.0 L 116.0,71.0 L 108.0,81.0 L 98.0,88.0 L 84.0,94.0 L 74.0,96.0 L 58.0,97.0 L 37.0,113.0 L 32.0,116.0 L 32.0,88.0 L 27.0,86.0 L 18.0,79.0 L 11.0,69.0 L 8.0,59.0 L 8.0,47.0 L 12.0,37.0 L 20.0,27.0 L 30.0,20.0 L 41.0,15.0 L 54.0,12.0 M 54.0,20.0 L 40.0,24.0 L 28.0,31.0 L 21.0,38.0 L 17.0,46.0 L 16.0,49.0 L 16.0,59.0 L 20.0,68.0 L 27.0,76.0 L 36.0,82.0 L 40.0,83.0 L 40.0,100.0 L 49.0,94.0 L 55.0,89.0 L 74.0,88.0 L 92.0,82.0 L 102.0,75.0 L 108.0,68.0 L 112.0,59.0 L 112.0,48.0 L 108.0,40.0 L 100.0,31.0 L 90.0,25.0 L 78.0,21.0 L 70.0,20.0 L 54.0,20.0" fill="#070707"/>
	<path d="M 36.0,45.0 L 46.0,45.0 L 52.0,50.0 L 53.0,52.0 L 53.0,61.0 L 48.0,67.0 L 46.0,68.0 L 36.0,68.0 L 31.0,63.0 L 30.0,61.0 L 30.0,51.0 L 35.0,46.0 L 36.0,45.0" fill="#030303"/>
	<path d="M 85.0,48.0 L 91.0,48.0 L 96.0,53.0 L 95.0,61.0 L 91.0,64.0 L 85.0,64.0 L 80.0,59.0 L 80.0,53.0 L 85.0,48.0" fill="#090909"/>
	<path d="M 61.0,48.0 L 67.0,48.0 L 72.0,53.0 L 71.0,61.0 L 67.0,64.0 L 61.0,64.0 L 56.0,59.0 L 56.0,53.0 L 61.0,48.0" fill="#090909"/>
</svg>
