<?xml version="1.0" ?>
<svg baseProfile="full" height="600px" version="1.1" viewBox="-12.06 -12.06 144.12 144.12" width="600px" xmlns="http://www.w3.org/2000/svg" xmlns:ev="http://www.w3.org/2001/xml-events" xmlns:xlink="http://www.w3.org/1999/xlink">
	<defs/>
	<path d="M 0.0,0.0 L 120.0,0.0 L 120.0,120.0 L 0.0,120.0 L 0.0,0.0" fill="#020202"/>
	<path d="M 0.0,0.0 L 120.0,0.0 L 120.0,120.0 L 0.0,120.0 L 0.0,0.0 M 54.0,12.0 L 39.0,15.0 L 26.0,22.0 L 18.0,29.0 L 11.0,40.0 L 8.0,48.0 L 8.0,61.0 L 12.0,74.0 L 20.0,85.0 L 25.0,89.0 L 25.0,98.0 L 22.0,104.0 L 16.0,109.0 L 17.0,112.0 L 27.0,111.0 L 37.0,106.0 L 44.0,100.0 L 66.0,100.0 L 80.0,97.0 L 94.0,90.0 L 102.0,83.0 L 109.0,72.0 L 112.0,61.0 L 112.0,48.0 L 107.0,36.0 L 99.0,26.0 L 89.0,19.0 L 77.0,14.0 L 69.0,12.0 L 54.0,12.0" fill="#FCFCFC"/>
	<path d="M 32.0,44.0 L 40.0,44.0 L 45.0,47.0 L 48.0,52.0 L 48.0,59.0 L 45.0,65.0 L 39.0,68.0 L 32.0,68.0 L 27.0,65.0 L 24.0,59.0 L 24.0,52.0 L 27.0,47.0 L 32.0,44.0" fill="#F8F8F8"/>
	<path d="M 81.0,48.0 L 89.0,49.0 L 92.0,53.0 L 92.0,59.0 L 87.0,64.0 L 81.0,64.0 L 77.0,61.0 L 76.0,53.0 L 81.0,48.0" fill="#F5F5F5"/>
	<path d="M 57.0,48.0 L 65.0,49.0 L 68.0,53.0 L 68.0,59.0 L 63.0,64.0 L 57.0,64.0 L 53.0,61.0 L 52.0,53.0 L 57.0,48.0" fill="#F5F5F5"/>
</svg>
