<?xml version="1.0" ?>
<svg baseProfile="full" height="600px" version="1.1" viewBox="-20.1 -20.1 240.2 240.2" width="600px" xmlns="http://www.w3.org/2000/svg" xmlns:ev="http://www.w3.org/2001/xml-events" xmlns:xlink="http://www.w3.org/1999/xlink">
	<defs/>
	<path d="M 0.0,0.0 L 200.0,0.0 L 200.0,200.0 L 0.0,200.0 L 0.0,0.0" fill="#FDFDFD"/>
	<path d="M 87.0,24.0 L 110.0,24.0 L 130.0,28.0 L 146.0,35.0 L 159.0,44.0 L 170.0,55.0 L 177.0,66.0 L 182.0,77.0 L 184.0,85.0 L 184.0,105.0 L 181.0,117.0 L 173.0,133.0 L 162.0,145.0 L 154.0,152.0 L 140.0,160.0 L 126.0,165.0 L 110.0,168.0 L 90.0,168.0 L 74.0,166.0 L 70.0,171.0 L 60.0,178.0 L 48.0,183.0 L 44.0,183.0 L 46.0,177.0 L 51.0,162.0 L 51.0,155.0 L 41.0,148.0 L 30.0,137.0 L 23.0,126.0 L 18.0,114.0 L 16.0,104.0 L 16.0,85.0 L 20.0,72.0 L 27.0,59.0 L 38.0,47.0 L 46.0,40.0 L 60.0,32.0 L 73.0,27.0 L 87.0,24.0" fill="#FDFDFD"/>
	<path d="M 90.0,16.0 L 111.0,16.0 L 125.0,19.0 L 143.0,25.0 L 154.0,31.0 L 166.0,40.0 L 175.0,49.0 L 184.0,63.0 L 189.0,74.0 L 192.0,87.0 L 192.0,104.0 L 188.0,120.0 L 180.0,136.0 L 172.0,146.0 L 164.0,154.0 L 149.0,164.0 L 135.0,170.0 L 122.0,174.0 L 110.0,176.0 L 89.0,176.0 L 76.0,175.0 L 68.0,182.0 L 54.0,189.0 L 42.0,192.0 L 29.0,192.0 L 34.0,183.0 L 40.0,172.0 L 43.0,163.0 L 42.0,158.0 L 33.0,151.0 L 25.0,143.0 L 16.0,129.0 L 11.0,118.0 L 8.0,102.0 L 8.0,87.0 L 12.0,72.0 L 20.0,56.0 L 28.0,46.0 L 36.0,38.0 L 46.0,31.0 L 62.0,23.0 L 77.0,18.0 L 90.0,16.0 M 87.0,24.0 L 70.0,28.0 L 58.0,33.0 L 46.0,40.0 L 36.0,49.0 L 27.0,59.0 L 19.0,74.0 L 16.0,85.0 L 16.0,104.0 L 18.0,114.0 L 23.0,126.0 L 30.0,137.0 L 43.0,150.0 L 51.0,155.0 L 51.0,162.0 L 46.0,177.0 L 44.0,183.0 L 51.0,182.0 L 65.0,175.0 L 72.0,169.0 L 74.0,166.0 L 90.0,168.0 L 110.0,168.0 L 126.0,165.0 L 142.0,159.0 L 154.0,152.0 L 166.0,141.0 L 173.0,133.0 L 181.0,117.0 L 184.0,105.0 L 184.0,85.0 L 180.0,72.0 L 173.0,59.0 L 162.0,47.0 L 154.0,40.0 L 140.0,32.0 L 126.0,27.0 L 110.0,24.0 L 87.0,24.0" fill="#0B0B0B"/>
</svg>
