<?xml version="1.0" ?>
<svg baseProfile="full" height="600px" version="1.1" viewBox="-20.1 -20.1 240.2 240.2" width="600px" xmlns="http://www.w3.org/2000/svg" xmlns:ev="http://www.w3.org/2001/xml-events" xmlns:xlink="http://www.w3.org/1999/xlink">
	<defs/>
	<path d="M 0.0,0.0 L 200.0,0.0 L 200.0,200.0 L 0.0,200.0 L 0.0,0.0" fill="#FDFDFD"/>
	<path d="M 94.0,10.0 L 105.0,10.0 L 115.0,15.0 L 121.0,24.0 L 122.0,26.0 L 122.0,37.0 L 117.0,47.0 L 108.0,53.0 L 105.0,54.0 L 94.0,54.0 L 84.0,48.0 L 79.0,40.0 L 78.0,37.0 L 78.0,26.0 L 84.0,16.0 L 94.0,10.0" fill="#080808"/>
	<path d="M 141.0,31.0 L 154.0,31.0 L 162.0,35.0 L 167.0,41.0 L 169.0,45.0 L 169.0,58.0 L 165.0,66.0 L 157.0,72.0 L 155.0,73.0 L 142.0,73.0 L 134.0,69.0 L 128.0,61.0 L 127.0,57.0 L 127.0,45.0 L 133.0,36.0 L 141.0,31.0" fill="#060606"/>
	<path d="M 26.0,80.0 L 37.0,80.0 L 45.0,84.0 L 50.0,90.0 L 52.0,94.0 L 52.0,105.0 L 48.0,113.0 L 42.0,118.0 L 37.0,120.0 L 26.0,120.0 L 18.0,115.0 L 14.0,110.0 L 12.0,105.0 L 12.0,94.0 L 17.0,86.0 L 22.0,82.0 L 26.0,80.0" fill="#050505"/>
	<path d="M 46.0,32.0 L 57.0,32.0 L 65.0,36.0 L 71.0,44.0 L 72.0,47.0 L 72.0,56.0 L 69.0,63.0 L 65.0,68.0 L 56.0,72.0 L 47.0,72.0 L 39.0,68.0 L 33.0,60.0 L 32.0,57.0 L 32.0,46.0 L 37.0,38.0 L 42.0,34.0 L 46.0,32.0" fill="#090909"/>
	<path d="M 162.0,85.0 L 173.0,85.0 L 179.0,89.0 L 183.0,94.0 L 183.0,105.0 L 179.0,111.0 L 173.0,115.0 L 162.0,115.0 L 155.0,109.0 L 153.0,105.0 L 153.0,94.0 L 160.0,86.0 L 162.0,85.0" fill="#080808"/>
	<path d="M 47.0,133.0 L 56.0,133.0 L 62.0,136.0 L 66.0,141.0 L 67.0,143.0 L 67.0,153.0 L 63.0,159.0 L 60.0,162.0 L 57.0,163.0 L 46.0,163.0 L 38.0,156.0 L 37.0,153.0 L 37.0,142.0 L 44.0,134.0 L 47.0,133.0" fill="#080808"/>
	<path d="M 95.0,19.0 L 105.0,19.0 L 111.0,24.0 L 113.0,27.0 L 113.0,36.0 L 109.0,42.0 L 104.0,45.0 L 95.0,45.0 L 89.0,40.0 L 87.0,37.0 L 87.0,27.0 L 92.0,21.0 L 95.0,19.0" fill="#F9F9F9"/>
	<path d="M 144.0,39.0 L 151.0,39.0 L 157.0,42.0 L 161.0,48.0 L 161.0,55.0 L 157.0,62.0 L 151.0,65.0 L 142.0,64.0 L 136.0,57.0 L 135.0,55.0 L 135.0,48.0 L 139.0,42.0 L 144.0,39.0" fill="#F6F6F6"/>
	<path d="M 28.0,88.0 L 36.0,88.0 L 42.0,92.0 L 44.0,96.0 L 44.0,103.0 L 41.0,109.0 L 35.0,112.0 L 28.0,112.0 L 22.0,108.0 L 20.0,103.0 L 20.0,96.0 L 24.0,90.0 L 28.0,88.0" fill="#F8F8F8"/>
	<path d="M 48.0,40.0 L 55.0,40.0 L 60.0,43.0 L 64.0,48.0 L 64.0,55.0 L 60.0,61.0 L 55.0,64.0 L 48.0,64.0 L 41.0,58.0 L 40.0,55.0 L 40.0,48.0 L 43.0,43.0 L 48.0,40.0" fill="#F8F8F8"/>
	<path d="M 164.0,91.0 L 171.0,91.0 L 175.0,93.0 L 177.0,96.0 L 177.0,103.0 L 175.0,107.0 L 171.0,109.0 L 164.0,109.0 L 160.0,105.0 L 159.0,103.0 L 159.0,96.0 L 164.0,91.0" fill="#F8F8F8"/>
	<path d="M 48.0,139.0 L 55.0,139.0 L 61.0,144.0 L 61.0,151.0 L 56.0,157.0 L 48.0,157.0 L 43.0,152.0 L 43.0,144.0 L 48.0,139.0" fill="#F8F8F8"/>
	<path d="M 146.0,145.0 L 151.0,146.0 L 150.0,151.0 L 145.0,150.0 L 146.0,145.0" fill="#696969"/>
</svg>
