<?xml version="1.0" ?>
<svg baseProfile="full" height="600px" version="1.1" viewBox="-16.08 -16.08 192.16 192.16" width="600px" xmlns="http://www.w3.org/2000/svg" xmlns:ev="http://www.w3.org/2001/xml-events" xmlns:xlink="http://www.w3.org/1999/xlink">
	<defs/>
	<path d="M 0.0,0.0 L 160.0,0.0 L 160.0,160.0 L 0.0,160.0 L 0.0,0.0" fill="#FCFDFE"/>
	<path d="M 36.0,102.0 L 45.0,102.0 L 53.0,107.0 L 57.0,112.0 L 58.0,115.0 L 58.0,124.0 L 55.0,130.0 L 48.0,136.0 L 45.0,137.0 L 36.0,137.0 L 28.0,133.0 L 24.0,127.0 L 23.0,124.0 L 23.0,114.0 L 27.0,108.0 L 33.0,103.0 L 36.0,102.0" fill="#88B5EE"/>
	<path d="M 114.0,104.0 L 125.0,104.0 L 130.0,107.0 L 135.0,113.0 L 136.0,115.0 L 136.0,124.0 L 131.0,132.0 L 124.0,136.0 L 115.0,136.0 L 109.0,132.0 L 105.0,128.0 L 104.0,125.0 L 104.0,114.0 L 108.0,108.0 L 114.0,104.0" fill="#87B4EE"/>
	<path d="M 76.0,120.0 L 83.0,120.0 L 90.0,123.0 L 95.0,129.0 L 96.0,131.0 L 96.0,140.0 L 93.0,146.0 L 87.0,151.0 L 84.0,152.0 L 75.0,152.0 L 69.0,148.0 L 65.0,143.0 L 64.0,141.0 L 64.0,131.0 L 68.0,125.0 L 73.0,121.0 L 76.0,120.0" fill="#88B5EE"/>
	<path d="M 131.0,68.0 L 141.0,68.0 L 147.0,73.0 L 148.0,75.0 L 148.0,85.0 L 143.0,91.0 L 140.0,92.0 L 131.0,92.0 L 126.0,88.0 L 124.0,84.0 L 124.0,75.0 L 128.0,70.0 L 131.0,68.0" fill="#88B4EE"/>
	<path d="M 19.0,68.0 L 28.0,68.0 L 34.0,72.0 L 36.0,75.0 L 36.0,84.0 L 32.0,90.0 L 28.0,92.0 L 19.0,92.0 L 13.0,87.0 L 12.0,85.0 L 12.0,75.0 L 17.0,69.0 L 19.0,68.0" fill="#88B5EE"/>
	<path d="M 36.0,102.0 L 45.0,102.0 L 53.0,107.0 L 57.0,112.0 L 58.0,115.0 L 58.0,124.0 L 55.0,130.0 L 48.0,136.0 L 45.0,137.0 L 36.0,137.0 L 28.0,133.0 L 24.0,127.0 L 23.0,124.0 L 23.0,114.0 L 27.0,108.0 L 33.0,103.0 L 36.0,102.0 M 35.0,107.0 L 29.0,112.0 L 27.0,116.0 L 27.0,123.0 L 31.0,129.0 L 37.0,133.0 L 44.0,133.0 L 50.0,129.0 L 53.0,124.0 L 53.0,115.0 L 49.0,109.0 L 45.0,107.0 L 35.0,107.0" fill="#4E8DCA"/>
	<path d="M 76.0,120.0 L 83.0,120.0 L 90.0,123.0 L 95.0,129.0 L 96.0,131.0 L 96.0,140.0 L 93.0,146.0 L 87.0,151.0 L 84.0,152.0 L 75.0,152.0 L 69.0,148.0 L 65.0,143.0 L 64.0,141.0 L 64.0,131.0 L 68.0,125.0 L 73.0,121.0 L 76.0,120.0 M 77.0,124.0 L 72.0,127.0 L 69.0,130.0 L 68.0,133.0 L 68.0,140.0 L 71.0,145.0 L 76.0,148.0 L 83.0,148.0 L 88.0,145.0 L 91.0,142.0 L 92.0,139.0 L 92.0,132.0 L 87.0,126.0 L 82.0,124.0 L 77.0,124.0" fill="#508ECA"/>
	<path d="M 114.0,104.0 L 125.0,104.0 L 130.0,107.0 L 135.0,113.0 L 136.0,115.0 L 136.0,124.0 L 131.0,132.0 L 124.0,136.0 L 115.0,136.0 L 109.0,132.0 L 105.0,128.0 L 104.0,125.0 L 104.0,114.0 L 108.0,108.0 L 114.0,104.0 M 115.0,108.0 L 109.0,113.0 L 108.0,115.0 L 108.0,124.0 L 111.0,129.0 L 116.0,132.0 L 123.0,132.0 L 129.0,128.0 L 132.0,123.0 L 132.0,116.0 L 128.0,110.0 L 124.0,108.0 L 115.0,108.0" fill="#4F8DCA"/>
	<path d="M 19.0,68.0 L 28.0,68.0 L 34.0,72.0 L 36.0,75.0 L 36.0,84.0 L 32.0,90.0 L 28.0,92.0 L 19.0,92.0 L 13.0,87.0 L 12.0,85.0 L 12.0,75.0 L 17.0,69.0 L 19.0,68.0 M 20.0,71.0 L 15.0,76.0 L 15.0,83.0 L 17.0,87.0 L 21.0,89.0 L 28.0,89.0 L 32.0,85.0 L 33.0,77.0 L 29.0,72.0 L 27.0,71.0 L 20.0,71.0" fill="#508ECB"/>
	<path d="M 131.0,68.0 L 141.0,68.0 L 147.0,73.0 L 148.0,75.0 L 148.0,85.0 L 143.0,91.0 L 140.0,92.0 L 131.0,92.0 L 126.0,88.0 L 124.0,84.0 L 124.0,75.0 L 128.0,70.0 L 131.0,68.0 M 132.0,71.0 L 127.0,76.0 L 127.0,83.0 L 131.0,88.0 L 133.0,89.0 L 140.0,89.0 L 145.0,84.0 L 145.0,76.0 L 142.0,72.0 L 139.0,71.0 L 132.0,71.0" fill="#508ECA"/>
	<path d="M 39.0,38.0 L 43.0,39.0 L 42.0,43.0 L 38.0,42.0 L 39.0,38.0" fill="#80AEE0"/>
</svg>
