<?xml version="1.0" ?>
<svg baseProfile="full" height="600px" version="1.1" viewBox="-16.08 -16.08 192.16 192.16" width="600px" xmlns="http://www.w3.org/2000/svg" xmlns:ev="http://www.w3.org/2001/xml-events" xmlns:xlink="http://www.w3.org/1999/xlink">
	<defs/>
	<path d="M 0.0,0.0 L 160.0,0.0 L 160.0,160.0 L 0.0,160.0 L 0.0,0.0" fill="#FDFDFE"/>
	<path d="M 75.0,8.0 L 85.0,8.0 L 97.0,10.0 L 108.0,13.0 L 114.0,17.0 L 122.0,21.0 L 124.0,25.0 L 129.0,27.0 L 140.0,39.0 L 144.0,47.0 L 147.0,52.0 L 149.0,60.0 L 151.0,64.0 L 151.0,71.0 L 147.0,79.0 L 140.0,84.0 L 130.0,84.0 L 123.0,80.0 L 119.0,74.0 L 118.0,67.0 L 114.0,59.0 L 111.0,55.0 L 111.0,53.0 L 107.0,51.0 L 99.0,45.0 L 92.0,42.0 L 75.0,40.0 L 69.0,36.0 L 65.0,31.0 L 64.0,29.0 L 64.0,19.0 L 68.0,13.0 L 73.0,9.0 L 75.0,8.0" fill="#547FB9"/>
	<path d="M 131.0,56.0 L 138.0,56.0 L 144.0,60.0 L 147.0,65.0 L 146.0,73.0 L 142.0,78.0 L 139.0,80.0 L 131.0,80.0 L 125.0,76.0 L 123.0,72.0 L 123.0,64.0 L 126.0,59.0 L 131.0,56.0" fill="#88B4ED"/>
	<path d="M 77.0,12.0 L 81.0,13.0 L 77.0,18.0 L 76.0,20.0 L 76.0,30.0 L 79.0,36.0 L 74.0,35.0 L 68.0,28.0 L 68.0,20.0 L 74.0,13.0 L 77.0,12.0" fill="#85B1EB"/>
	<path d="M 123.0,36.0 L 131.0,37.0 L 136.0,42.0 L 126.0,43.0 L 120.0,47.0 L 116.0,54.0 L 114.0,52.0 L 114.0,45.0 L 118.0,39.0 L 123.0,36.0" fill="#85B1EB"/>
	<path d="M 107.0,21.0 L 116.0,22.0 L 118.0,24.0 L 109.0,28.0 L 105.0,34.0 L 103.0,42.0 L 100.0,39.0 L 99.0,37.0 L 99.0,29.0 L 105.0,22.0 L 107.0,21.0" fill="#86B2EB"/>
	<path d="M 99.0,16.0 L 106.0,17.0 L 101.0,21.0 L 97.0,26.0 L 96.0,28.0 L 95.0,38.0 L 90.0,34.0 L 89.0,26.0 L 92.0,20.0 L 96.0,17.0 L 99.0,16.0" fill="#86B2EB"/>
	<path d="M 115.0,28.0 L 122.0,28.0 L 127.0,31.0 L 127.0,32.0 L 118.0,35.0 L 113.0,40.0 L 110.0,47.0 L 107.0,43.0 L 107.0,36.0 L 112.0,30.0 L 115.0,28.0" fill="#86B2EB"/>
	<path d="M 87.0,13.0 L 94.0,13.0 L 88.0,20.0 L 86.0,24.0 L 86.0,32.0 L 87.0,36.0 L 82.0,34.0 L 79.0,29.0 L 79.0,21.0 L 85.0,14.0 L 87.0,13.0" fill="#86B2EC"/>
	<path d="M 127.0,46.0 L 136.0,46.0 L 142.0,51.0 L 143.0,54.0 L 139.0,53.0 L 130.0,53.0 L 124.0,57.0 L 120.0,60.0 L 120.0,53.0 L 125.0,47.0 L 127.0,46.0" fill="#87B3EC"/>
</svg>
