<?xml version="1.0" ?>
<svg baseProfile="full" height="600px" version="1.1" viewBox="-20.1 -20.1 240.2 240.2" width="600px" xmlns="http://www.w3.org/2000/svg" xmlns:ev="http://www.w3.org/2001/xml-events" xmlns:xlink="http://www.w3.org/1999/xlink">
	<defs/>
	<path d="M 0.0,0.0 L 200.0,0.0 L 200.0,200.0 L 0.0,200.0 L 0.0,0.0" fill="#FDFDFD"/>
	<path d="M 89.0,8.0 L 109.0,8.0 L 125.0,11.0 L 141.0,17.0 L 154.0,25.0 L 167.0,36.0 L 178.0,50.0 L 186.0,66.0 L 190.0,79.0 L 190.0,84.0 L 182.0,85.0 L 179.0,73.0 L 173.0,59.0 L 166.0,49.0 L 157.0,39.0 L 146.0,30.0 L 130.0,22.0 L 116.0,18.0 L 110.0,17.0 L 89.0,17.0 L 73.0,21.0 L 61.0,26.0 L 50.0,33.0 L 40.0,42.0 L 32.0,51.0 L 25.0,63.0 L 19.0,61.0 L 18.0,57.0 L 25.0,46.0 L 34.0,35.0 L 47.0,24.0 L 63.0,15.0 L 78.0,10.0 L 89.0,8.0" fill="#080808"/>
</svg>
