<?xml version="1.0" ?>
<svg baseProfile="full" height="600px" version="1.1" viewBox="-16.08 -16.08 192.16 192.16" width="600px" xmlns="http://www.w3.org/2000/svg" xmlns:ev="http://www.w3.org/2001/xml-events" xmlns:xlink="http://www.w3.org/1999/xlink">
	<defs/>
	<path d="M 0.0,0.0 L 160.0,0.0 L 160.0,160.0 L 0.0,160.0 L 0.0,0.0" fill="#FCFDFE"/>
	<path d="M 20.0,63.0 L 28.0,63.0 L 36.0,67.0 L 41.0,75.0 L 41.0,85.0 L 36.0,93.0 L 29.0,97.0 L 20.0,97.0 L 12.0,93.0 L 7.0,86.0 L 7.0,74.0 L 13.0,66.0 L 20.0,63.0" fill="#88B4EE"/>
	<path d="M 76.0,120.0 L 83.0,120.0 L 90.0,123.0 L 95.0,129.0 L 96.0,131.0 L 96.0,140.0 L 93.0,146.0 L 87.0,151.0 L 84.0,152.0 L 75.0,152.0 L 69.0,148.0 L 65.0,143.0 L 64.0,141.0 L 64.0,131.0 L 68.0,125.0 L 73.0,121.0 L 76.0,120.0" fill="#88B5EE"/>
	<path d="M 36.0,104.0 L 45.0,104.0 L 52.0,108.0 L 56.0,114.0 L 56.0,124.0 L 53.0,130.0 L 48.0,134.0 L 44.0,136.0 L 37.0,136.0 L 31.0,133.0 L 25.0,126.0 L 24.0,123.0 L 24.0,116.0 L 28.0,109.0 L 33.0,105.0 L 36.0,104.0" fill="#88B5EE"/>
	<path d="M 114.0,105.0 L 125.0,105.0 L 131.0,109.0 L 135.0,115.0 L 135.0,123.0 L 132.0,129.0 L 126.0,134.0 L 123.0,135.0 L 116.0,135.0 L 109.0,131.0 L 105.0,125.0 L 105.0,114.0 L 109.0,108.0 L 114.0,105.0" fill="#88B4EE"/>
	<path d="M 20.0,63.0 L 28.0,63.0 L 36.0,67.0 L 41.0,75.0 L 41.0,85.0 L 36.0,93.0 L 29.0,97.0 L 20.0,97.0 L 12.0,93.0 L 7.0,86.0 L 7.0,74.0 L 13.0,66.0 L 20.0,63.0 M 20.0,67.0 L 13.0,72.0 L 11.0,76.0 L 11.0,83.0 L 15.0,90.0 L 21.0,93.0 L 29.0,92.0 L 35.0,87.0 L 37.0,82.0 L 36.0,74.0 L 30.0,68.0 L 27.0,67.0 L 20.0,67.0" fill="#4E8DCA"/>
	<path d="M 36.0,104.0 L 45.0,104.0 L 52.0,108.0 L 56.0,114.0 L 56.0,124.0 L 53.0,130.0 L 48.0,134.0 L 44.0,136.0 L 37.0,136.0 L 31.0,133.0 L 25.0,126.0 L 24.0,123.0 L 24.0,116.0 L 28.0,109.0 L 33.0,105.0 L 36.0,104.0 M 37.0,108.0 L 32.0,111.0 L 29.0,114.0 L 29.0,125.0 L 34.0,130.0 L 35.0,131.0 L 45.0,131.0 L 51.0,126.0 L 52.0,123.0 L 52.0,116.0 L 49.0,111.0 L 44.0,108.0 L 37.0,108.0" fill="#508ECB"/>
	<path d="M 76.0,120.0 L 83.0,120.0 L 90.0,123.0 L 95.0,129.0 L 96.0,131.0 L 96.0,140.0 L 93.0,146.0 L 87.0,151.0 L 84.0,152.0 L 75.0,152.0 L 69.0,148.0 L 65.0,143.0 L 64.0,141.0 L 64.0,131.0 L 68.0,125.0 L 73.0,121.0 L 76.0,120.0 M 77.0,124.0 L 72.0,127.0 L 69.0,130.0 L 68.0,133.0 L 68.0,140.0 L 71.0,145.0 L 76.0,148.0 L 83.0,148.0 L 88.0,145.0 L 91.0,142.0 L 92.0,139.0 L 92.0,132.0 L 87.0,126.0 L 82.0,124.0 L 77.0,124.0" fill="#508ECA"/>
	<path d="M 37.0,30.0 L 43.0,30.0 L 49.0,34.0 L 50.0,36.0 L 50.0,44.0 L 46.0,49.0 L 44.0,50.0 L 36.0,50.0 L 31.0,45.0 L 30.0,43.0 L 30.0,37.0 L 35.0,31.0 L 37.0,30.0" fill="#87B4ED"/>
	<path d="M 114.0,105.0 L 125.0,105.0 L 131.0,109.0 L 135.0,115.0 L 135.0,123.0 L 132.0,129.0 L 126.0,134.0 L 123.0,135.0 L 116.0,135.0 L 109.0,131.0 L 105.0,125.0 L 105.0,114.0 L 109.0,108.0 L 114.0,105.0 M 117.0,108.0 L 112.0,111.0 L 109.0,114.0 L 108.0,122.0 L 111.0,127.0 L 116.0,131.0 L 125.0,130.0 L 130.0,125.0 L 131.0,116.0 L 128.0,111.0 L 122.0,108.0 L 117.0,108.0" fill="#4F8DCA"/>
	<path d="M 37.0,30.0 L 43.0,30.0 L 49.0,34.0 L 50.0,36.0 L 50.0,44.0 L 46.0,49.0 L 44.0,50.0 L 36.0,50.0 L 31.0,45.0 L 30.0,43.0 L 30.0,37.0 L 35.0,31.0 L 37.0,30.0 M 37.0,33.0 L 33.0,37.0 L 33.0,43.0 L 38.0,48.0 L 43.0,48.0 L 48.0,43.0 L 47.0,36.0 L 43.0,33.0 L 37.0,33.0" fill="#5591CC"/>
	<path d="M 30.0,37.0 L 33.0,40.0 L 36.0,46.0 L 38.0,47.0 L 38.0,50.0 L 33.0,48.0 L 30.0,43.0 L 30.0,37.0" fill="#5F97CF"/>
	<path d="M 48.0,43.0 L 49.0,46.0 L 44.0,50.0 L 38.0,50.0 L 38.0,48.0 L 46.0,46.0 L 46.0,44.0 L 48.0,43.0" fill="#4C8BC9"/>
</svg>
