<?xml version="1.0" ?>
<svg baseProfile="full" height="600px" version="1.1" viewBox="-12.864 -12.864 153.728 153.728" width="600px" xmlns="http://www.w3.org/2000/svg" xmlns:ev="http://www.w3.org/2001/xml-events" xmlns:xlink="http://www.w3.org/1999/xlink">
	<defs/>
	<path d="M 0.0,0.0 L 128.0,0.0 L 128.0,128.0 L 0.0,128.0 L 0.0,0.0" fill="#FDFDFD"/>
	<path d="M 59.0,11.0 L 68.0,11.0 L 73.0,14.0 L 77.0,19.0 L 77.0,28.0 L 73.0,34.0 L 68.0,37.0 L 59.0,37.0 L 52.0,31.0 L 51.0,28.0 L 51.0,19.0 L 57.0,12.0 L 59.0,11.0" fill="#050505"/>
	<path d="M 32.0,24.0 L 40.0,24.0 L 46.0,28.0 L 48.0,31.0 L 48.0,40.0 L 44.0,46.0 L 40.0,48.0 L 31.0,48.0 L 26.0,44.0 L 24.0,40.0 L 24.0,32.0 L 28.0,26.0 L 32.0,24.0" fill="#050505"/>
	<path d="M 21.0,54.0 L 27.0,54.0 L 33.0,59.0 L 34.0,61.0 L 34.0,67.0 L 29.0,73.0 L 27.0,74.0 L 21.0,74.0 L 15.0,69.0 L 14.0,67.0 L 14.0,61.0 L 19.0,55.0 L 21.0,54.0" fill="#060606"/>
	<path d="M 33.0,85.0 L 40.0,86.0 L 43.0,89.0 L 42.0,96.0 L 38.0,99.0 L 33.0,99.0 L 29.0,94.0 L 29.0,89.0 L 33.0,85.0" fill="#0E0E0E"/>
	<path d="M 62.0,101.0 L 67.0,102.0 L 66.0,107.0 L 61.0,106.0 L 62.0,101.0" fill="#030303"/>
</svg>
