<?xml version="1.0" ?>
<svg baseProfile="full" height="600px" version="1.1" viewBox="-16.08 -16.08 192.16 192.16" width="600px" xmlns="http://www.w3.org/2000/svg" xmlns:ev="http://www.w3.org/2001/xml-events" xmlns:xlink="http://www.w3.org/1999/xlink">
	<defs/>
	<path d="M 0.0,0.0 L 160.0,0.0 L 160.0,160.0 L 0.0,160.0 L 0.0,0.0" fill="#FDFDFE"/>
	<path d="M 75.0,8.0 L 85.0,8.0 L 91.0,12.0 L 94.0,15.0 L 94.0,17.0 L 101.0,14.0 L 109.0,14.0 L 117.0,18.0 L 121.0,24.0 L 122.0,31.0 L 130.0,31.0 L 136.0,35.0 L 140.0,39.0 L 141.0,42.0 L 141.0,52.0 L 141.0,56.0 L 147.0,60.0 L 151.0,66.0 L 151.0,76.0 L 148.0,82.0 L 145.0,86.0 L 149.0,92.0 L 149.0,102.0 L 145.0,109.0 L 139.0,113.0 L 135.0,113.0 L 135.0,125.0 L 131.0,131.0 L 126.0,135.0 L 124.0,136.0 L 115.0,136.0 L 113.0,135.0 L 111.0,142.0 L 106.0,147.0 L 102.0,149.0 L 92.0,149.0 L 87.0,146.0 L 83.0,146.0 L 78.0,150.0 L 75.0,151.0 L 66.0,151.0 L 59.0,147.0 L 55.0,139.0 L 55.0,130.0 L 59.0,124.0 L 64.0,120.0 L 67.0,119.0 L 74.0,119.0 L 82.0,123.0 L 84.0,123.0 L 89.0,119.0 L 93.0,117.0 L 100.0,117.0 L 104.0,118.0 L 105.0,112.0 L 110.0,106.0 L 114.0,104.0 L 118.0,104.0 L 117.0,102.0 L 117.0,93.0 L 121.0,87.0 L 124.0,83.0 L 120.0,77.0 L 119.0,74.0 L 119.0,67.0 L 120.0,63.0 L 114.0,59.0 L 110.0,53.0 L 109.0,46.0 L 100.0,46.0 L 92.0,40.0 L 90.0,37.0 L 85.0,40.0 L 75.0,40.0 L 69.0,36.0 L 65.0,31.0 L 64.0,29.0 L 64.0,19.0 L 68.0,13.0 L 73.0,9.0 L 75.0,8.0" fill="#5680B9"/>
	<path d="M 68.0,123.0 L 76.0,124.0 L 81.0,128.0 L 83.0,132.0 L 82.0,141.0 L 77.0,146.0 L 74.0,147.0 L 67.0,147.0 L 61.0,143.0 L 59.0,139.0 L 59.0,132.0 L 62.0,127.0 L 65.0,124.0 L 68.0,123.0" fill="#88B4ED"/>
	<path d="M 77.0,12.0 L 84.0,12.0 L 91.0,18.0 L 90.0,31.0 L 84.0,36.0 L 76.0,36.0 L 69.0,30.0 L 68.0,28.0 L 68.0,20.0 L 74.0,13.0 L 77.0,12.0" fill="#88B4ED"/>
	<path d="M 122.0,35.0 L 129.0,35.0 L 135.0,39.0 L 137.0,43.0 L 137.0,52.0 L 134.0,56.0 L 126.0,59.0 L 119.0,58.0 L 114.0,52.0 L 114.0,42.0 L 118.0,37.0 L 122.0,35.0" fill="#88B4ED"/>
	<path d="M 129.0,86.0 L 138.0,86.0 L 143.0,90.0 L 145.0,93.0 L 145.0,102.0 L 140.0,108.0 L 138.0,109.0 L 131.0,109.0 L 122.0,103.0 L 121.0,101.0 L 121.0,94.0 L 125.0,88.0 L 129.0,86.0" fill="#88B4ED"/>
	<path d="M 115.0,108.0 L 124.0,108.0 L 130.0,113.0 L 131.0,115.0 L 131.0,124.0 L 128.0,129.0 L 122.0,132.0 L 116.0,132.0 L 111.0,127.0 L 108.0,122.0 L 108.0,115.0 L 113.0,109.0 L 115.0,108.0" fill="#88B4ED"/>
	<path d="M 103.0,18.0 L 111.0,19.0 L 116.0,24.0 L 117.0,25.0 L 117.0,34.0 L 112.0,39.0 L 109.0,42.0 L 102.0,42.0 L 97.0,39.0 L 94.0,35.0 L 94.0,25.0 L 99.0,20.0 L 103.0,18.0" fill="#88B4ED"/>
	<path d="M 92.0,122.0 L 102.0,122.0 L 107.0,126.0 L 109.0,131.0 L 108.0,139.0 L 103.0,144.0 L 101.0,145.0 L 93.0,145.0 L 87.0,141.0 L 86.0,128.0 L 90.0,123.0 L 92.0,122.0" fill="#88B4ED"/>
	<path d="M 131.0,60.0 L 140.0,60.0 L 146.0,65.0 L 147.0,67.0 L 147.0,76.0 L 142.0,82.0 L 129.0,82.0 L 124.0,76.0 L 124.0,66.0 L 129.0,61.0 L 131.0,60.0" fill="#88B4ED"/>
</svg>
