<?xml version="1.0" ?>
<svg baseProfile="full" height="600px" version="1.1" viewBox="-12.864 -12.864 153.728 153.728" width="600px" xmlns="http://www.w3.org/2000/svg" xmlns:ev="http://www.w3.org/2001/xml-events" xmlns:xlink="http://www.w3.org/1999/xlink">
	<defs/>
	<path d="M 0.0,0.0 L 128.0,0.0 L 128.0,128.0 L 0.0,128.0 L 0.0,0.0" fill="#FCFCFC"/>
	<path d="M 55.0,12.0 L 73.0,12.0 L 83.0,15.0 L 94.0,21.0 L 104.0,30.0 L 110.0,39.0 L 111.0,41.0 L 113.0,37.0 L 120.0,39.0 L 119.0,45.0 L 113.0,62.0 L 109.0,60.0 L 93.0,49.0 L 95.0,44.0 L 99.0,42.0 L 103.0,44.0 L 94.0,32.0 L 83.0,25.0 L 76.0,22.0 L 70.0,21.0 L 56.0,21.0 L 47.0,23.0 L 45.0,18.0 L 45.0,15.0 L 55.0,12.0" fill="#080808"/>
	<path d="M 30.0,24.0 L 38.0,24.0 L 36.0,44.0 L 35.0,46.0 L 29.0,46.0 L 27.0,41.0 L 22.0,52.0 L 21.0,56.0 L 21.0,70.0 L 23.0,78.0 L 29.0,90.0 L 34.0,96.0 L 37.0,99.0 L 33.0,104.0 L 29.0,103.0 L 20.0,93.0 L 14.0,80.0 L 12.0,73.0 L 12.0,55.0 L 15.0,45.0 L 20.0,35.0 L 15.0,34.0 L 15.0,26.0 L 30.0,24.0" fill="#080808"/>
	<path d="M 107.0,71.0 L 115.0,71.0 L 114.0,80.0 L 107.0,94.0 L 98.0,104.0 L 89.0,110.0 L 77.0,115.0 L 70.0,116.0 L 60.0,116.0 L 62.0,121.0 L 57.0,125.0 L 52.0,121.0 L 42.0,108.0 L 43.0,105.0 L 60.0,98.0 L 63.0,98.0 L 65.0,102.0 L 64.0,106.0 L 62.0,107.0 L 71.0,107.0 L 81.0,104.0 L 91.0,98.0 L 96.0,94.0 L 103.0,83.0 L 106.0,76.0 L 107.0,71.0" fill="#070707"/>
</svg>
