<?xml version="1.0" ?>
<svg baseProfile="full" height="600px" version="1.1" viewBox="-19.296000000000003 -19.296000000000003 230.592 230.592" width="600px" xmlns="http://www.w3.org/2000/svg" xmlns:ev="http://www.w3.org/2001/xml-events" xmlns:xlink="http://www.w3.org/1999/xlink">
	<defs/>
	<path d="M 0.0,0.0 L 192.0,0.0 L 192.0,192.0 L 0.0,192.0 L 0.0,0.0" fill="#FDFEFD"/>
	<path d="M 135.0,124.0 L 145.0,124.0 L 151.0,128.0 L 155.0,133.0 L 156.0,135.0 L 156.0,144.0 L 153.0,150.0 L 147.0,155.0 L 145.0,156.0 L 135.0,156.0 L 129.0,152.0 L 125.0,147.0 L 124.0,145.0 L 124.0,135.0 L 128.0,129.0 L 133.0,125.0 L 135.0,124.0" fill="#7FB546"/>
	<path d="M 90.0,143.0 L 101.0,143.0 L 107.0,147.0 L 110.0,153.0 L 109.0,161.0 L 105.0,167.0 L 98.0,170.0 L 90.0,169.0 L 85.0,165.0 L 82.0,159.0 L 83.0,150.0 L 87.0,145.0 L 90.0,143.0" fill="#80B547"/>
	<path d="M 150.0,83.0 L 161.0,83.0 L 167.0,87.0 L 170.0,93.0 L 169.0,101.0 L 165.0,107.0 L 158.0,110.0 L 150.0,109.0 L 145.0,105.0 L 142.0,99.0 L 143.0,90.0 L 147.0,85.0 L 150.0,83.0" fill="#80B547"/>
	<path d="M 136.0,41.0 L 144.0,41.0 L 150.0,46.0 L 151.0,48.0 L 151.0,56.0 L 146.0,62.0 L 144.0,63.0 L 136.0,63.0 L 130.0,58.0 L 129.0,56.0 L 129.0,48.0 L 134.0,42.0 L 136.0,41.0" fill="#7EB445"/>
	<path d="M 48.0,130.0 L 56.0,130.0 L 61.0,134.0 L 62.0,136.0 L 62.0,144.0 L 58.0,149.0 L 56.0,150.0 L 48.0,150.0 L 43.0,146.0 L 42.0,144.0 L 42.0,136.0 L 46.0,131.0 L 48.0,130.0" fill="#7DB444"/>
	<path d="M 93.0,30.0 L 99.0,30.0 L 102.0,33.0 L 102.0,39.0 L 99.0,42.0 L 93.0,42.0 L 90.0,39.0 L 90.0,33.0 L 93.0,30.0" fill="#7FB546"/>
	<path d="M 33.0,90.0 L 39.0,90.0 L 42.0,93.0 L 42.0,99.0 L 39.0,102.0 L 33.0,102.0 L 30.0,99.0 L 30.0,93.0 L 33.0,90.0" fill="#81B649"/>
	<path d="M 50.0,47.0 L 55.0,48.0 L 57.0,50.0 L 56.0,56.0 L 50.0,57.0 L 47.0,54.0 L 48.0,48.0 L 50.0,47.0" fill="#83B74C"/>
</svg>
