<?xml version="1.0" ?>
<svg baseProfile="full" height="600px" version="1.1" viewBox="-19.296000000000003 -19.296000000000003 230.592 230.592" width="600px" xmlns="http://www.w3.org/2000/svg" xmlns:ev="http://www.w3.org/2001/xml-events" xmlns:xlink="http://www.w3.org/1999/xlink">
	<defs/>
	<path d="M 0.0,0.0 L 192.0,0.0 L 192.0,192.0 L 0.0,192.0 L 0.0,0.0" fill="#FDFEFC"/>
	<path d="M 91.0,20.0 L 101.0,20.0 L 107.0,24.0 L 111.0,29.0 L 112.0,31.0 L 112.0,40.0 L 109.0,46.0 L 103.0,51.0 L 100.0,52.0 L 91.0,52.0 L 85.0,48.0 L 81.0,43.0 L 80.0,41.0 L 80.0,31.0 L 84.0,25.0 L 89.0,21.0 L 91.0,20.0" fill="#7FB546"/>
	<path d="M 150.0,74.0 L 160.0,74.0 L 166.0,77.0 L 171.0,83.0 L 172.0,86.0 L 172.0,94.0 L 167.0,102.0 L 160.0,106.0 L 152.0,106.0 L 146.0,103.0 L 141.0,97.0 L 140.0,95.0 L 140.0,84.0 L 144.0,78.0 L 150.0,74.0" fill="#7FB546"/>
	<path d="M 34.0,55.0 L 44.0,55.0 L 51.0,59.0 L 55.0,66.0 L 55.0,75.0 L 52.0,81.0 L 47.0,85.0 L 43.0,87.0 L 35.0,87.0 L 27.0,82.0 L 23.0,74.0 L 23.0,66.0 L 27.0,60.0 L 32.0,56.0 L 34.0,55.0" fill="#7FB546"/>
	<path d="M 60.0,134.0 L 69.0,134.0 L 75.0,137.0 L 80.0,143.0 L 81.0,145.0 L 81.0,153.0 L 77.0,161.0 L 71.0,165.0 L 68.0,166.0 L 60.0,166.0 L 54.0,162.0 L 50.0,157.0 L 49.0,154.0 L 49.0,145.0 L 53.0,139.0 L 58.0,135.0 L 60.0,134.0" fill="#7EB445"/>
	<path d="M 132.0,34.0 L 142.0,34.0 L 148.0,37.0 L 152.0,42.0 L 153.0,44.0 L 153.0,55.0 L 149.0,62.0 L 142.0,66.0 L 133.0,66.0 L 127.0,62.0 L 123.0,57.0 L 122.0,55.0 L 122.0,44.0 L 126.0,38.0 L 132.0,34.0" fill="#7EB445"/>
	<path d="M 141.0,117.0 L 151.0,117.0 L 157.0,120.0 L 161.0,125.0 L 162.0,127.0 L 162.0,138.0 L 158.0,144.0 L 152.0,148.0 L 140.0,148.0 L 132.0,141.0 L 130.0,137.0 L 130.0,129.0 L 133.0,123.0 L 139.0,118.0 L 141.0,117.0" fill="#7EB445"/>
	<path d="M 33.0,99.0 L 44.0,99.0 L 51.0,103.0 L 55.0,110.0 L 55.0,119.0 L 50.0,127.0 L 44.0,130.0 L 33.0,130.0 L 27.0,126.0 L 23.0,118.0 L 23.0,110.0 L 28.0,102.0 L 33.0,99.0" fill="#7EB445"/>
	<path d="M 103.0,139.0 L 113.0,139.0 L 119.0,142.0 L 123.0,147.0 L 124.0,149.0 L 124.0,160.0 L 120.0,166.0 L 117.0,169.0 L 111.0,171.0 L 102.0,170.0 L 94.0,163.0 L 93.0,160.0 L 93.0,149.0 L 97.0,143.0 L 103.0,139.0" fill="#7EB445"/>
</svg>
