<?xml version="1.0" ?>
<svg baseProfile="full" height="600px" version="1.1" viewBox="-9.648000000000001 -9.648000000000001 115.296 115.296" width="600px" xmlns="http://www.w3.org/2000/svg" xmlns:ev="http://www.w3.org/2001/xml-events" xmlns:xlink="http://www.w3.org/1999/xlink">
	<defs/>
	<path d="M 0.0,0.0 L 96.0,0.0 L 96.0,96.0 L 0.0,96.0 L 0.0,0.0" fill="#FCFCFC"/>
	<path d="M 21.0,16.0 L 27.0,16.0 L 32.0,21.0 L 32.0,27.0 L 27.0,32.0 L 21.0,32.0 L 16.0,27.0 L 16.0,21.0 L 21.0,16.0" fill="#0A0A0A"/>
	<path d="M 45.0,9.0 L 51.0,9.0 L 55.0,12.0 L 55.0,19.0 L 51.0,23.0 L 44.0,23.0 L 41.0,19.0 L 41.0,13.0 L 45.0,9.0" fill="#060606"/>
	<path d="M 69.0,19.0 L 75.0,19.0 L 77.0,21.0 L 77.0,27.0 L 75.0,29.0 L 69.0,29.0 L 67.0,27.0 L 67.0,21.0 L 69.0,19.0" fill="#0D0D0D"/>
	<path d="M 78.0,45.0 L 83.0,46.0 L 84.0,49.0 L 81.0,52.0 L 77.0,50.0 L 77.0,46.0 L 78.0,45.0" fill="#171717"/>
</svg>
