<?xml version="1.0" ?>
<svg baseProfile="full" height="600px" version="1.1" viewBox="-16.08 -16.08 192.16 192.16" width="600px" xmlns="http://www.w3.org/2000/svg" xmlns:ev="http://www.w3.org/2001/xml-events" xmlns:xlink="http://www.w3.org/1999/xlink">
	<defs/>
	<path d="M 0.0,0.0 L 160.0,0.0 L 160.0,160.0 L 0.0,160.0 L 0.0,0.0" fill="#FDFDFD"/>
	<path d="M 0.0,0.0 L 160.0,0.0 L 160.0,160.0 L 0.0,160.0 L 0.0,0.0 M 71.0,8.0 L 55.0,12.0 L 39.0,20.0 L 26.0,32.0 L 17.0,44.0 L 12.0,55.0 L 8.0,71.0 L 8.0,88.0 L 11.0,103.0 L 19.0,119.0 L 26.0,128.0 L 35.0,137.0 L 48.0,145.0 L 62.0,150.0 L 71.0,152.0 L 89.0,152.0 L 105.0,148.0 L 119.0,141.0 L 129.0,133.0 L 136.0,126.0 L 143.0,116.0 L 148.0,105.0 L 152.0,89.0 L 152.0,74.0 L 149.0,58.0 L 144.0,46.0 L 135.0,33.0 L 126.0,24.0 L 112.0,15.0 L 98.0,10.0 L 88.0,8.0 L 71.0,8.0" fill="#FDFDFD"/>
	<path d="M 68.0,4.0 L 91.0,4.0 L 109.0,9.0 L 122.0,16.0 L 132.0,24.0 L 139.0,31.0 L 148.0,45.0 L 153.0,56.0 L 156.0,70.0 L 156.0,88.0 L 154.0,99.0 L 151.0,109.0 L 142.0,125.0 L 131.0,137.0 L 119.0,146.0 L 106.0,152.0 L 95.0,155.0 L 88.0,156.0 L 73.0,156.0 L 60.0,154.0 L 47.0,149.0 L 35.0,142.0 L 22.0,130.0 L 13.0,117.0 L 8.0,107.0 L 4.0,91.0 L 4.0,72.0 L 6.0,60.0 L 11.0,47.0 L 18.0,35.0 L 29.0,23.0 L 41.0,14.0 L 56.0,7.0 L 68.0,4.0 M 71.0,8.0 L 55.0,12.0 L 39.0,20.0 L 26.0,32.0 L 17.0,44.0 L 12.0,55.0 L 8.0,71.0 L 8.0,88.0 L 11.0,103.0 L 19.0,119.0 L 26.0,128.0 L 35.0,137.0 L 48.0,145.0 L 62.0,150.0 L 71.0,152.0 L 89.0,152.0 L 105.0,148.0 L 119.0,141.0 L 129.0,133.0 L 136.0,126.0 L 143.0,116.0 L 148.0,105.0 L 152.0,89.0 L 152.0,74.0 L 149.0,58.0 L 144.0,46.0 L 135.0,33.0 L 126.0,24.0 L 112.0,15.0 L 98.0,10.0 L 88.0,8.0 L 71.0,8.0" fill="#C7D5DF"/>
	<path d="M 68.0,4.0 L 91.0,4.0 L 109.0,9.0 L 122.0,16.0 L 132.0,24.0 L 139.0,31.0 L 148.0,45.0 L 153.0,56.0 L 156.0,70.0 L 156.0,88.0 L 154.0,99.0 L 151.0,109.0 L 147.0,108.0 L 149.0,98.0 L 151.0,89.0 L 151.0,74.0 L 148.0,58.0 L 143.0,46.0 L 134.0,33.0 L 126.0,25.0 L 112.0,16.0 L 98.0,11.0 L 88.0,9.0 L 71.0,9.0 L 55.0,13.0 L 45.0,18.0 L 41.0,17.0 L 41.0,14.0 L 56.0,7.0 L 68.0,4.0" fill="#6F8296"/>
</svg>
