<?xml version="1.0" ?>
<svg baseProfile="full" height="600px" version="1.1" viewBox="-19.296000000000003 -19.296000000000003 230.592 230.592" width="600px" xmlns="http://www.w3.org/2000/svg" xmlns:ev="http://www.w3.org/2001/xml-events" xmlns:xlink="http://www.w3.org/1999/xlink">
	<defs/>
	<path d="M 0.0,0.0 L 192.0,0.0 L 192.0,192.0 L 0.0,192.0 L 0.0,0.0" fill="#FEFEFE"/>
	<path d="M 70.0,4.0 L 76.0,6.0 L 102.0,20.0 L 108.0,23.0 L 108.0,25.0 L 97.0,34.0 L 87.0,43.0 L 76.0,52.0 L 75.0,52.0 L 74.0,36.0 L 61.0,43.0 L 51.0,51.0 L 44.0,59.0 L 36.0,75.0 L 33.0,88.0 L 32.0,105.0 L 21.0,107.0 L 17.0,107.0 L 16.0,103.0 L 16.0,85.0 L 20.0,69.0 L 28.0,53.0 L 38.0,40.0 L 50.0,30.0 L 62.0,23.0 L 72.0,20.0 L 71.0,18.0 L 70.0,4.0" fill="#2497F3"/>
	<path d="M 125.0,22.0 L 134.0,25.0 L 146.0,33.0 L 154.0,40.0 L 164.0,53.0 L 172.0,69.0 L 176.0,85.0 L 176.0,105.0 L 175.0,116.0 L 186.0,122.0 L 183.0,125.0 L 159.0,139.0 L 154.0,142.0 L 152.0,142.0 L 148.0,107.0 L 148.0,103.0 L 153.0,105.0 L 159.0,108.0 L 159.0,90.0 L 156.0,75.0 L 148.0,59.0 L 138.0,48.0 L 124.0,39.0 L 121.0,37.0 L 123.0,28.0 L 125.0,22.0" fill="#2598F3"/>
	<path d="M 28.0,122.0 L 34.0,124.0 L 64.0,139.0 L 60.0,143.0 L 57.0,146.0 L 68.0,153.0 L 78.0,157.0 L 86.0,159.0 L 104.0,159.0 L 116.0,156.0 L 128.0,151.0 L 135.0,147.0 L 142.0,154.0 L 145.0,158.0 L 145.0,160.0 L 130.0,169.0 L 116.0,174.0 L 105.0,176.0 L 86.0,176.0 L 69.0,172.0 L 53.0,164.0 L 43.0,156.0 L 39.0,158.0 L 31.0,163.0 L 28.0,129.0 L 28.0,122.0" fill="#2497F3"/>
</svg>
