<?xml version="1.0" ?>
<svg baseProfile="full" height="600px" version="1.1" viewBox="-19.296000000000003 -19.296000000000003 230.592 230.592" width="600px" xmlns="http://www.w3.org/2000/svg" xmlns:ev="http://www.w3.org/2001/xml-events" xmlns:xlink="http://www.w3.org/1999/xlink">
	<defs/>
	<path d="M 0.0,0.0 L 192.0,0.0 L 192.0,192.0 L 0.0,192.0 L 0.0,0.0" fill="#FDFEFD"/>
	<path d="M 30.0,81.0 L 41.0,81.0 L 47.0,85.0 L 51.0,90.0 L 51.0,101.0 L 47.0,107.0 L 41.0,111.0 L 30.0,111.0 L 23.0,105.0 L 21.0,101.0 L 21.0,91.0 L 24.0,86.0 L 30.0,81.0" fill="#7EB444"/>
	<path d="M 47.0,125.0 L 56.0,125.0 L 62.0,128.0 L 66.0,133.0 L 67.0,135.0 L 67.0,144.0 L 64.0,150.0 L 59.0,154.0 L 56.0,155.0 L 47.0,155.0 L 41.0,151.0 L 38.0,147.0 L 37.0,144.0 L 37.0,135.0 L 41.0,129.0 L 47.0,125.0" fill="#7EB445"/>
	<path d="M 92.0,144.0 L 99.0,144.0 L 105.0,147.0 L 108.0,152.0 L 108.0,160.0 L 105.0,165.0 L 99.0,168.0 L 92.0,168.0 L 85.0,162.0 L 84.0,159.0 L 84.0,152.0 L 87.0,147.0 L 92.0,144.0" fill="#7FB546"/>
	<path d="M 47.0,41.0 L 57.0,41.0 L 62.0,45.0 L 64.0,49.0 L 63.0,57.0 L 59.0,62.0 L 55.0,64.0 L 49.0,64.0 L 43.0,60.0 L 40.0,55.0 L 40.0,49.0 L 44.0,43.0 L 47.0,41.0" fill="#81B649"/>
	<path d="M 135.0,131.0 L 144.0,131.0 L 149.0,135.0 L 149.0,145.0 L 145.0,149.0 L 135.0,149.0 L 131.0,144.0 L 131.0,135.0 L 135.0,131.0" fill="#7EB445"/>
	<path d="M 93.0,28.0 L 99.0,28.0 L 104.0,33.0 L 104.0,39.0 L 99.0,44.0 L 93.0,44.0 L 88.0,39.0 L 88.0,33.0 L 93.0,28.0" fill="#80B548"/>
	<path d="M 153.0,90.0 L 159.0,90.0 L 162.0,93.0 L 162.0,99.0 L 159.0,102.0 L 153.0,102.0 L 150.0,99.0 L 150.0,93.0 L 153.0,90.0" fill="#7FB546"/>
	<path d="M 137.0,47.0 L 143.0,47.0 L 146.0,50.0 L 145.0,55.0 L 142.0,58.0 L 137.0,57.0 L 134.0,54.0 L 135.0,49.0 L 137.0,47.0" fill="#84B84E"/>
</svg>
