<?xml version="1.0" ?>
<svg baseProfile="full" height="600px" version="1.1" viewBox="-19.296000000000003 -19.296000000000003 230.592 230.592" width="600px" xmlns="http://www.w3.org/2000/svg" xmlns:ev="http://www.w3.org/2001/xml-events" xmlns:xlink="http://www.w3.org/1999/xlink">
	<defs/>
	<path d="M 0.0,0.0 L 192.0,0.0 L 192.0,192.0 L 0.0,192.0 L 0.0,0.0" fill="#FEFEFE"/>
	<path d="M 160.0,98.0 L 176.0,98.0 L 176.0,107.0 L 172.0,122.0 L 166.0,136.0 L 158.0,147.0 L 150.0,156.0 L 136.0,166.0 L 122.0,172.0 L 116.0,174.0 L 97.0,177.0 L 95.0,191.0 L 90.0,186.0 L 80.0,175.0 L 73.0,167.0 L 74.0,163.0 L 93.0,150.0 L 101.0,145.0 L 100.0,159.0 L 114.0,157.0 L 128.0,151.0 L 140.0,142.0 L 148.0,133.0 L 155.0,119.0 L 158.0,110.0 L 160.0,98.0" fill="#2598F3"/>
	<path d="M 46.0,41.0 L 48.0,41.0 L 50.0,54.0 L 51.0,76.0 L 45.0,72.0 L 39.0,68.0 L 34.0,82.0 L 33.0,88.0 L 33.0,102.0 L 35.0,113.0 L 40.0,126.0 L 49.0,139.0 L 58.0,147.0 L 62.0,151.0 L 55.0,164.0 L 50.0,162.0 L 38.0,152.0 L 30.0,142.0 L 22.0,128.0 L 18.0,115.0 L 16.0,106.0 L 16.0,85.0 L 20.0,70.0 L 24.0,60.0 L 25.0,56.0 L 15.0,48.0 L 18.0,46.0 L 46.0,41.0" fill="#2598F3"/>
	<path d="M 85.0,16.0 L 105.0,16.0 L 119.0,19.0 L 134.0,25.0 L 146.0,33.0 L 159.0,46.0 L 164.0,53.0 L 164.0,55.0 L 176.0,50.0 L 179.0,51.0 L 168.0,82.0 L 162.0,80.0 L 136.0,68.0 L 136.0,66.0 L 146.0,62.0 L 149.0,62.0 L 143.0,53.0 L 134.0,45.0 L 122.0,38.0 L 106.0,33.0 L 87.0,33.0 L 72.0,37.0 L 68.0,39.0 L 65.0,39.0 L 58.0,28.0 L 58.0,25.0 L 72.0,19.0 L 85.0,16.0" fill="#2497F3"/>
</svg>
