<?xml version="1.0" ?>
<svg baseProfile="full" height="600px" version="1.1" viewBox="-19.296000000000003 -19.296000000000003 230.592 230.592" width="600px" xmlns="http://www.w3.org/2000/svg" xmlns:ev="http://www.w3.org/2001/xml-events" xmlns:xlink="http://www.w3.org/1999/xlink">
	<defs/>
	<path d="M 0.0,0.0 L 192.0,0.0 L 192.0,192.0 L 0.0,192.0 L 0.0,0.0" fill="#FDFEFD"/>
	<path d="M 135.0,124.0 L 145.0,124.0 L 151.0,128.0 L 155.0,133.0 L 156.0,135.0 L 156.0,144.0 L 153.0,150.0 L 147.0,155.0 L 144.0,156.0 L 135.0,156.0 L 129.0,152.0 L 125.0,147.0 L 124.0,145.0 L 124.0,135.0 L 128.0,129.0 L 133.0,125.0 L 135.0,124.0" fill="#7FB546"/>
	<path d="M 150.0,81.0 L 161.0,81.0 L 167.0,85.0 L 171.0,90.0 L 171.0,101.0 L 167.0,107.0 L 161.0,111.0 L 150.0,111.0 L 143.0,105.0 L 141.0,101.0 L 141.0,91.0 L 144.0,86.0 L 150.0,81.0" fill="#83BA47"/>
	<path d="M 135.0,38.0 L 145.0,38.0 L 151.0,42.0 L 154.0,47.0 L 154.0,56.0 L 150.0,63.0 L 144.0,66.0 L 135.0,66.0 L 129.0,62.0 L 126.0,57.0 L 126.0,47.0 L 130.0,41.0 L 135.0,38.0" fill="#8CC34D"/>
	<path d="M 91.0,24.0 L 100.0,24.0 L 106.0,28.0 L 108.0,31.0 L 108.0,40.0 L 104.0,46.0 L 100.0,48.0 L 91.0,48.0 L 86.0,44.0 L 84.0,41.0 L 84.0,31.0 L 89.0,25.0 L 91.0,24.0" fill="#97C95E"/>
	<path d="M 49.0,41.0 L 55.0,41.0 L 60.0,44.0 L 63.0,49.0 L 63.0,55.0 L 60.0,60.0 L 55.0,63.0 L 49.0,63.0 L 44.0,60.0 L 41.0,54.0 L 42.0,47.0 L 47.0,42.0 L 49.0,41.0" fill="#A2CF6F"/>
	<path d="M 32.0,88.0 L 40.0,88.0 L 44.0,92.0 L 45.0,98.0 L 42.0,103.0 L 38.0,105.0 L 32.0,104.0 L 28.0,100.0 L 28.0,92.0 L 32.0,88.0" fill="#AAD37D"/>
	<path d="M 49.0,133.0 L 55.0,133.0 L 59.0,137.0 L 59.0,143.0 L 55.0,147.0 L 49.0,147.0 L 45.0,142.0 L 45.0,137.0 L 49.0,133.0" fill="#C2D8B5"/>
	<path d="M 93.0,150.0 L 99.0,150.0 L 102.0,153.0 L 102.0,159.0 L 99.0,162.0 L 93.0,162.0 L 90.0,159.0 L 90.0,152.0 L 93.0,150.0" fill="#D0D9DB"/>
	<path d="M 39.0,88.0 L 43.0,90.0 L 45.0,94.0 L 44.0,100.0 L 42.0,97.0 L 42.0,94.0 L 38.0,89.0 L 39.0,88.0" fill="#B5D88C"/>
	<path d="M 29.0,98.0 L 34.0,101.0 L 35.0,103.0 L 38.0,105.0 L 32.0,104.0 L 28.0,100.0 L 29.0,98.0" fill="#B5D88D"/>
</svg>
