<?xml version="1.0" ?>
<svg baseProfile="full" height="600px" version="1.1" viewBox="-16.08 -16.08 192.16 192.16" width="600px" xmlns="http://www.w3.org/2000/svg" xmlns:ev="http://www.w3.org/2001/xml-events" xmlns:xlink="http://www.w3.org/1999/xlink">
	<defs/>
	<path d="M 0.0,0.0 L 160.0,0.0 L 160.0,160.0 L 0.0,160.0 L 0.0,0.0" fill="#FDFDFE"/>
	<path d="M 75.0,8.0 L 85.0,8.0 L 92.0,12.0 L 96.0,19.0 L 96.0,29.0 L 92.0,36.0 L 85.0,40.0 L 75.0,40.0 L 68.0,36.0 L 64.0,29.0 L 64.0,19.0 L 68.0,12.0 L 75.0,8.0" fill="#88B4ED"/>
	<path d="M 75.0,8.0 L 85.0,8.0 L 92.0,12.0 L 96.0,19.0 L 96.0,29.0 L 92.0,36.0 L 85.0,40.0 L 75.0,40.0 L 68.0,36.0 L 64.0,29.0 L 64.0,19.0 L 68.0,12.0 L 75.0,8.0 M 77.0,12.0 L 72.0,15.0 L 68.0,20.0 L 68.0,28.0 L 74.0,35.0 L 76.0,36.0 L 84.0,36.0 L 91.0,30.0 L 92.0,27.0 L 92.0,20.0 L 86.0,13.0 L 84.0,12.0 L 77.0,12.0" fill="#517DB7"/>
</svg>
