<?xml version="1.0" ?>
<svg baseProfile="full" height="600px" version="1.1" viewBox="-20.1 -20.1 240.2 240.2" width="600px" xmlns="http://www.w3.org/2000/svg" xmlns:ev="http://www.w3.org/2001/xml-events" xmlns:xlink="http://www.w3.org/1999/xlink">
	<defs/>
	<path d="M 0.0,0.0 L 200.0,0.0 L 200.0,200.0 L 0.0,200.0 L 0.0,0.0" fill="#FDFDFD"/>
	<path d="M 95.0,8.0 L 109.0,8.0 L 126.0,11.0 L 145.0,19.0 L 158.0,28.0 L 168.0,37.0 L 178.0,50.0 L 186.0,66.0 L 191.0,82.0 L 192.0,89.0 L 192.0,112.0 L 188.0,128.0 L 182.0,143.0 L 175.0,154.0 L 164.0,167.0 L 150.0,178.0 L 134.0,186.0 L 117.0,191.0 L 110.0,191.0 L 110.0,183.0 L 123.0,180.0 L 137.0,175.0 L 150.0,167.0 L 162.0,156.0 L 170.0,146.0 L 178.0,130.0 L 182.0,116.0 L 183.0,109.0 L 183.0,90.0 L 180.0,77.0 L 175.0,63.0 L 166.0,49.0 L 157.0,39.0 L 147.0,31.0 L 137.0,25.0 L 121.0,19.0 L 110.0,17.0 L 95.0,16.0 L 95.0,8.0" fill="#090909"/>
</svg>
