<?xml version="1.0" ?>
<svg baseProfile="full" height="600px" version="1.1" viewBox="-20.1 -20.1 240.2 240.2" width="600px" xmlns="http://www.w3.org/2000/svg" xmlns:ev="http://www.w3.org/2001/xml-events" xmlns:xlink="http://www.w3.org/1999/xlink">
	<defs/>
	<path d="M 0.0,0.0 L 200.0,0.0 L 200.0,200.0 L 0.0,200.0 L 0.0,0.0" fill="#FDFDFD"/>
	<path d="M 162.0,78.0 L 173.0,78.0 L 183.0,83.0 L 189.0,92.0 L 190.0,94.0 L 190.0,105.0 L 185.0,115.0 L 176.0,121.0 L 173.0,122.0 L 162.0,122.0 L 152.0,116.0 L 147.0,108.0 L 146.0,105.0 L 146.0,94.0 L 152.0,84.0 L 162.0,78.0" fill="#080808"/>
	<path d="M 143.0,30.0 L 153.0,30.0 L 161.0,34.0 L 168.0,42.0 L 170.0,47.0 L 170.0,56.0 L 165.0,66.0 L 159.0,71.0 L 154.0,73.0 L 141.0,73.0 L 133.0,68.0 L 129.0,63.0 L 127.0,58.0 L 127.0,45.0 L 132.0,37.0 L 138.0,32.0 L 143.0,30.0" fill="#070707"/>
	<path d="M 142.0,128.0 L 153.0,128.0 L 161.0,132.0 L 167.0,139.0 L 168.0,142.0 L 168.0,154.0 L 165.0,160.0 L 157.0,167.0 L 154.0,168.0 L 142.0,168.0 L 135.0,164.0 L 130.0,158.0 L 128.0,153.0 L 128.0,142.0 L 133.0,134.0 L 138.0,130.0 L 142.0,128.0" fill="#060606"/>
	<path d="M 94.0,152.0 L 105.0,152.0 L 112.0,156.0 L 116.0,162.0 L 116.0,173.0 L 112.0,180.0 L 105.0,184.0 L 94.0,184.0 L 87.0,179.0 L 84.0,173.0 L 84.0,162.0 L 88.0,156.0 L 94.0,152.0" fill="#080808"/>
	<path d="M 163.0,87.0 L 173.0,87.0 L 179.0,92.0 L 181.0,95.0 L 181.0,104.0 L 177.0,110.0 L 172.0,113.0 L 163.0,113.0 L 157.0,108.0 L 155.0,105.0 L 155.0,95.0 L 160.0,89.0 L 163.0,87.0" fill="#F9F9F9"/>
	<path d="M 144.0,39.0 L 151.0,39.0 L 157.0,42.0 L 161.0,48.0 L 161.0,55.0 L 158.0,61.0 L 154.0,64.0 L 151.0,65.0 L 144.0,65.0 L 138.0,61.0 L 135.0,55.0 L 135.0,48.0 L 139.0,42.0 L 144.0,39.0" fill="#F7F7F7"/>
	<path d="M 144.0,136.0 L 151.0,136.0 L 157.0,139.0 L 160.0,144.0 L 160.0,152.0 L 156.0,158.0 L 152.0,160.0 L 144.0,160.0 L 138.0,156.0 L 136.0,151.0 L 136.0,144.0 L 142.0,137.0 L 144.0,136.0" fill="#F9F9F9"/>
	<path d="M 47.0,137.0 L 56.0,137.0 L 62.0,142.0 L 63.0,144.0 L 63.0,152.0 L 60.0,157.0 L 56.0,159.0 L 47.0,159.0 L 42.0,155.0 L 41.0,153.0 L 41.0,143.0 L 46.0,138.0 L 47.0,137.0" fill="#0A0A0A"/>
	<path d="M 97.0,158.0 L 105.0,159.0 L 110.0,165.0 L 110.0,171.0 L 105.0,177.0 L 103.0,178.0 L 97.0,178.0 L 91.0,173.0 L 90.0,171.0 L 90.0,165.0 L 95.0,159.0 L 97.0,158.0" fill="#F5F5F5"/>
	<path d="M 50.0,141.0 L 56.0,142.0 L 59.0,146.0 L 58.0,152.0 L 54.0,155.0 L 49.0,155.0 L 45.0,151.0 L 46.0,144.0 L 50.0,141.0" fill="#EEEEEE"/>
	<path d="M 30.0,94.0 L 35.0,95.0 L 37.0,97.0 L 37.0,103.0 L 34.0,106.0 L 29.0,105.0 L 26.0,102.0 L 27.0,97.0 L 30.0,94.0" fill="#3D3D3D"/>
	<path d="M 30.0,97.0 L 35.0,98.0 L 34.0,103.0 L 29.0,102.0 L 30.0,97.0" fill="#F7F7F7"/>
	<path d="M 31.0,95.0 L 36.0,96.0 L 37.0,97.0 L 37.0,103.0 L 35.0,105.0 L 32.0,104.0 L 34.0,102.0 L 33.0,97.0 L 31.0,95.0" fill="#0C0C0C"/>
	<path d="M 30.0,94.0 L 34.0,95.0 L 33.0,97.0 L 29.0,99.0 L 27.0,101.0 L 28.0,96.0 L 30.0,94.0" fill="#292929"/>
</svg>
