<?xml version="1.0" ?>
<svg baseProfile="full" height="600px" version="1.1" viewBox="-12.864 -12.864 153.728 153.728" width="600px" xmlns="http://www.w3.org/2000/svg" xmlns:ev="http://www.w3.org/2001/xml-events" xmlns:xlink="http://www.w3.org/1999/xlink">
	<defs/>
	<path d="M 0.0,0.0 L 128.0,0.0 L 128.0,128.0 L 0.0,128.0 L 0.0,0.0" fill="#FCFCFC"/>
	<path d="M 88.0,23.0 L 96.0,23.0 L 102.0,27.0 L 105.0,32.0 L 105.0,39.0 L 102.0,45.0 L 98.0,48.0 L 95.0,49.0 L 88.0,49.0 L 82.0,45.0 L 79.0,40.0 L 79.0,32.0 L 83.0,26.0 L 88.0,23.0" fill="#060606"/>
	<path d="M 99.0,52.0 L 109.0,52.0 L 115.0,57.0 L 116.0,59.0 L 116.0,69.0 L 111.0,75.0 L 109.0,76.0 L 99.0,76.0 L 93.0,71.0 L 92.0,69.0 L 92.0,59.0 L 97.0,53.0 L 99.0,52.0" fill="#030303"/>
	<path d="M 32.0,24.0 L 39.0,24.0 L 45.0,27.0 L 48.0,32.0 L 48.0,39.0 L 45.0,45.0 L 39.0,48.0 L 32.0,48.0 L 27.0,45.0 L 24.0,39.0 L 24.0,32.0 L 27.0,27.0 L 32.0,24.0" fill="#050505"/>
	<path d="M 60.0,12.0 L 67.0,12.0 L 73.0,15.0 L 76.0,20.0 L 76.0,27.0 L 73.0,33.0 L 67.0,36.0 L 60.0,36.0 L 55.0,33.0 L 52.0,27.0 L 52.0,20.0 L 55.0,15.0 L 60.0,12.0" fill="#050505"/>
	<path d="M 60.0,92.0 L 67.0,92.0 L 73.0,95.0 L 76.0,100.0 L 76.0,107.0 L 73.0,113.0 L 67.0,116.0 L 60.0,116.0 L 53.0,110.0 L 52.0,107.0 L 52.0,100.0 L 55.0,95.0 L 60.0,92.0" fill="#050505"/>
	<path d="M 32.0,80.0 L 39.0,80.0 L 45.0,83.0 L 48.0,88.0 L 48.0,95.0 L 45.0,101.0 L 39.0,104.0 L 32.0,104.0 L 25.0,98.0 L 24.0,95.0 L 24.0,88.0 L 27.0,83.0 L 32.0,80.0" fill="#050505"/>
	<path d="M 20.0,52.0 L 27.0,52.0 L 33.0,55.0 L 36.0,60.0 L 36.0,67.0 L 33.0,73.0 L 27.0,76.0 L 20.0,76.0 L 13.0,70.0 L 12.0,67.0 L 12.0,60.0 L 15.0,55.0 L 20.0,52.0" fill="#050505"/>
	<path d="M 87.0,81.0 L 97.0,81.0 L 104.0,87.0 L 104.0,97.0 L 99.0,103.0 L 97.0,104.0 L 87.0,104.0 L 81.0,97.0 L 80.0,95.0 L 80.0,89.0 L 84.0,83.0 L 87.0,81.0" fill="#050505"/>
</svg>
