<?xml version="1.0" ?>
<svg baseProfile="full" height="600px" version="1.1" viewBox="-12.864 -12.864 153.728 153.728" width="600px" xmlns="http://www.w3.org/2000/svg" xmlns:ev="http://www.w3.org/2001/xml-events" xmlns:xlink="http://www.w3.org/1999/xlink">
	<defs/>
	<path d="M 0.0,0.0 L 128.0,0.0 L 128.0,128.0 L 0.0,128.0 L 0.0,0.0" fill="#FCFCFC"/>
	<path d="M 19.0,52.0 L 29.0,52.0 L 35.0,57.0 L 36.0,59.0 L 36.0,69.0 L 31.0,75.0 L 29.0,76.0 L 19.0,76.0 L 13.0,71.0 L 12.0,69.0 L 12.0,59.0 L 17.0,53.0 L 19.0,52.0" fill="#030303"/>
	<path d="M 59.0,92.0 L 69.0,92.0 L 75.0,97.0 L 76.0,99.0 L 76.0,108.0 L 73.0,113.0 L 68.0,116.0 L 59.0,116.0 L 53.0,111.0 L 52.0,109.0 L 52.0,99.0 L 57.0,93.0 L 59.0,92.0" fill="#050505"/>
	<path d="M 32.0,80.0 L 39.0,80.0 L 45.0,83.0 L 48.0,88.0 L 48.0,95.0 L 45.0,101.0 L 39.0,104.0 L 32.0,104.0 L 25.0,98.0 L 24.0,95.0 L 24.0,88.0 L 27.0,83.0 L 32.0,80.0" fill="#050505"/>
	<path d="M 32.0,24.0 L 39.0,24.0 L 44.0,27.0 L 48.0,32.0 L 48.0,40.0 L 42.0,47.0 L 39.0,48.0 L 32.0,48.0 L 25.0,42.0 L 24.0,39.0 L 24.0,32.0 L 30.0,25.0 L 32.0,24.0" fill="#050505"/>
	<path d="M 62.0,18.0 L 68.0,19.0 L 70.0,22.0 L 69.0,28.0 L 66.0,30.0 L 60.0,29.0 L 58.0,26.0 L 59.0,21.0 L 62.0,18.0" fill="#161616"/>
	<path d="M 90.0,32.0 L 95.0,33.0 L 96.0,38.0 L 94.0,40.0 L 89.0,39.0 L 88.0,34.0 L 90.0,32.0" fill="#252525"/>
	<path d="M 91.0,89.0 L 95.0,90.0 L 95.0,95.0 L 90.0,95.0 L 89.0,91.0 L 91.0,89.0" fill="#161616"/>
</svg>
