<?xml version="1.0" ?>
<svg baseProfile="full" height="600px" version="1.1" viewBox="-20.1 -20.1 240.2 240.2" width="600px" xmlns="http://www.w3.org/2000/svg" xmlns:ev="http://www.w3.org/2001/xml-events" xmlns:xlink="http://www.w3.org/1999/xlink">
	<defs/>
	<path d="M 0.0,0.0 L 200.0,0.0 L 200.0,200.0 L 0.0,200.0 L 0.0,0.0" fill="#FDFDFD"/>
	<path d="M 96.0,12.0 L 105.0,12.0 L 113.0,16.0 L 119.0,24.0 L 120.0,27.0 L 120.0,37.0 L 116.0,45.0 L 108.0,51.0 L 105.0,52.0 L 95.0,52.0 L 87.0,48.0 L 81.0,40.0 L 80.0,37.0 L 80.0,28.0 L 83.0,21.0 L 87.0,16.0 L 92.0,13.0 L 96.0,12.0" fill="#080808"/>
	<path d="M 47.0,36.0 L 56.0,36.0 L 62.0,39.0 L 67.0,45.0 L 68.0,47.0 L 68.0,57.0 L 64.0,63.0 L 59.0,67.0 L 57.0,68.0 L 47.0,68.0 L 41.0,64.0 L 37.0,59.0 L 36.0,56.0 L 36.0,47.0 L 40.0,40.0 L 47.0,36.0" fill="#090909"/>
	<path d="M 144.0,37.0 L 151.0,37.0 L 157.0,40.0 L 162.0,46.0 L 163.0,48.0 L 163.0,55.0 L 160.0,61.0 L 154.0,66.0 L 145.0,67.0 L 139.0,64.0 L 135.0,60.0 L 133.0,55.0 L 133.0,48.0 L 137.0,42.0 L 142.0,38.0 L 144.0,37.0" fill="#0C0C0C"/>
	<path d="M 96.0,20.0 L 103.0,20.0 L 108.0,23.0 L 112.0,28.0 L 112.0,36.0 L 106.0,43.0 L 104.0,44.0 L 96.0,44.0 L 89.0,38.0 L 88.0,35.0 L 88.0,28.0 L 94.0,21.0 L 96.0,20.0" fill="#F7F7F7"/>
	<path d="M 165.0,90.0 L 171.0,90.0 L 177.0,95.0 L 178.0,102.0 L 175.0,107.0 L 170.0,110.0 L 163.0,109.0 L 158.0,103.0 L 158.0,97.0 L 163.0,91.0 L 165.0,90.0" fill="#161616"/>
	<path d="M 49.0,42.0 L 57.0,43.0 L 61.0,47.0 L 61.0,56.0 L 56.0,61.0 L 47.0,61.0 L 42.0,55.0 L 42.0,49.0 L 47.0,43.0 L 49.0,42.0" fill="#F5F5F5"/>
	<path d="M 30.0,90.0 L 36.0,91.0 L 41.0,96.0 L 41.0,104.0 L 36.0,109.0 L 28.0,109.0 L 23.0,104.0 L 22.0,98.0 L 26.0,92.0 L 30.0,90.0" fill="#101010"/>
	<path d="M 145.0,43.0 L 151.0,43.0 L 156.0,47.0 L 157.0,54.0 L 154.0,59.0 L 150.0,61.0 L 145.0,61.0 L 140.0,56.0 L 139.0,49.0 L 143.0,44.0 L 145.0,43.0" fill="#F1F1F1"/>
	<path d="M 50.0,141.0 L 56.0,142.0 L 59.0,146.0 L 58.0,152.0 L 54.0,155.0 L 48.0,154.0 L 45.0,150.0 L 46.0,144.0 L 50.0,141.0" fill="#232323"/>
	<path d="M 145.0,142.0 L 151.0,142.0 L 154.0,145.0 L 154.0,151.0 L 151.0,154.0 L 145.0,154.0 L 142.0,151.0 L 142.0,145.0 L 145.0,142.0" fill="#0C0C0C"/>
	<path d="M 97.0,162.0 L 104.0,163.0 L 106.0,165.0 L 105.0,172.0 L 102.0,174.0 L 97.0,174.0 L 94.0,171.0 L 94.0,165.0 L 97.0,162.0" fill="#242424"/>
	<path d="M 166.0,94.0 L 172.0,95.0 L 174.0,98.0 L 173.0,104.0 L 170.0,106.0 L 164.0,105.0 L 162.0,102.0 L 163.0,96.0 L 166.0,94.0" fill="#E6E6E6"/>
	<path d="M 30.0,94.0 L 35.0,95.0 L 38.0,98.0 L 37.0,103.0 L 34.0,106.0 L 29.0,105.0 L 26.0,102.0 L 27.0,97.0 L 30.0,94.0" fill="#EBEBEB"/>
	<path d="M 50.0,144.0 L 55.0,145.0 L 56.0,150.0 L 54.0,152.0 L 49.0,151.0 L 48.0,146.0 L 50.0,144.0" fill="#EAEAEA"/>
	<path d="M 147.0,144.0 L 151.0,145.0 L 152.0,150.0 L 150.0,152.0 L 145.0,151.0 L 144.0,147.0 L 147.0,144.0" fill="#DCDCDC"/>
	<path d="M 95.0,166.0 L 97.0,169.0 L 97.0,171.0 L 103.0,169.0 L 104.0,167.0 L 106.0,167.0 L 105.0,172.0 L 102.0,174.0 L 97.0,174.0 L 94.0,171.0 L 95.0,166.0" fill="#171717"/>
	<path d="M 48.0,142.0 L 50.0,143.0 L 49.0,150.0 L 53.0,153.0 L 48.0,154.0 L 45.0,150.0 L 46.0,144.0 L 48.0,142.0" fill="#151515"/>
	<path d="M 98.0,165.0 L 103.0,166.0 L 102.0,171.0 L 97.0,171.0 L 97.0,166.0 L 98.0,165.0" fill="#FAFAFA"/>
	<path d="M 143.0,146.0 L 145.0,150.0 L 150.0,152.0 L 150.0,154.0 L 145.0,154.0 L 142.0,151.0 L 143.0,146.0" fill="#040404"/>
	<path d="M 104.0,167.0 L 106.0,167.0 L 105.0,172.0 L 101.0,174.0 L 101.0,172.0 L 99.0,171.0 L 103.0,169.0 L 104.0,167.0" fill="#212121"/>
	<path d="M 97.0,162.0 L 101.0,164.0 L 98.0,166.0 L 96.0,169.0 L 94.0,165.0 L 97.0,162.0" fill="#414141"/>
</svg>
