<?xml version="1.0" ?>
<svg baseProfile="full" height="600px" version="1.1" viewBox="-16.08 -16.08 192.16 192.16" width="600px" xmlns="http://www.w3.org/2000/svg" xmlns:ev="http://www.w3.org/2001/xml-events" xmlns:xlink="http://www.w3.org/1999/xlink">
	<defs/>
	<path d="M 0.0,0.0 L 160.0,0.0 L 160.0,160.0 L 0.0,160.0 L 0.0,0.0" fill="#FCFDFD"/>
	<path d="M 19.0,53.0 L 30.0,53.0 L 37.0,57.0 L 41.0,64.0 L 41.0,73.0 L 38.0,79.0 L 33.0,83.0 L 29.0,85.0 L 22.0,85.0 L 14.0,81.0 L 10.0,75.0 L 9.0,72.0 L 9.0,64.0 L 13.0,58.0 L 19.0,53.0" fill="#88B4ED"/>
	<path d="M 130.0,50.0 L 139.0,50.0 L 145.0,54.0 L 149.0,59.0 L 150.0,61.0 L 150.0,71.0 L 146.0,78.0 L 139.0,82.0 L 129.0,82.0 L 123.0,78.0 L 119.0,72.0 L 118.0,69.0 L 118.0,62.0 L 123.0,54.0 L 130.0,50.0" fill="#88B4EE"/>
	<path d="M 42.0,19.0 L 49.0,19.0 L 57.0,23.0 L 61.0,28.0 L 62.0,30.0 L 62.0,40.0 L 58.0,47.0 L 51.0,51.0 L 42.0,51.0 L 36.0,48.0 L 31.0,42.0 L 30.0,39.0 L 30.0,31.0 L 35.0,23.0 L 42.0,19.0" fill="#88B4ED"/>
	<path d="M 25.0,92.0 L 37.0,92.0 L 43.0,96.0 L 47.0,102.0 L 47.0,112.0 L 44.0,118.0 L 39.0,122.0 L 37.0,123.0 L 25.0,123.0 L 17.0,116.0 L 15.0,112.0 L 15.0,103.0 L 19.0,97.0 L 25.0,92.0" fill="#88B4ED"/>
	<path d="M 96.0,116.0 L 105.0,116.0 L 112.0,120.0 L 116.0,125.0 L 117.0,128.0 L 117.0,135.0 L 113.0,143.0 L 107.0,147.0 L 104.0,148.0 L 96.0,148.0 L 90.0,144.0 L 86.0,139.0 L 85.0,136.0 L 85.0,127.0 L 89.0,121.0 L 94.0,117.0 L 96.0,116.0" fill="#88B4ED"/>
	<path d="M 56.0,117.0 L 67.0,117.0 L 74.0,122.0 L 77.0,127.0 L 77.0,138.0 L 73.0,144.0 L 68.0,148.0 L 65.0,149.0 L 57.0,149.0 L 49.0,144.0 L 46.0,139.0 L 46.0,127.0 L 50.0,121.0 L 56.0,117.0" fill="#88B4ED"/>
	<path d="M 124.0,90.0 L 135.0,90.0 L 142.0,94.0 L 146.0,101.0 L 146.0,110.0 L 142.0,116.0 L 138.0,120.0 L 135.0,121.0 L 124.0,121.0 L 117.0,116.0 L 114.0,109.0 L 114.0,100.0 L 120.0,92.0 L 124.0,90.0" fill="#88B4ED"/>
	<path d="M 106.0,16.0 L 113.0,16.0 L 121.0,21.0 L 125.0,26.0 L 125.0,38.0 L 121.0,44.0 L 117.0,47.0 L 114.0,48.0 L 104.0,48.0 L 98.0,44.0 L 94.0,38.0 L 94.0,26.0 L 101.0,18.0 L 106.0,16.0" fill="#89B5EE"/>
	<path d="M 130.0,50.0 L 139.0,50.0 L 145.0,54.0 L 149.0,59.0 L 150.0,61.0 L 150.0,71.0 L 146.0,78.0 L 139.0,82.0 L 129.0,82.0 L 123.0,78.0 L 119.0,72.0 L 118.0,69.0 L 118.0,62.0 L 123.0,54.0 L 130.0,50.0 M 129.0,55.0 L 124.0,59.0 L 123.0,61.0 L 123.0,71.0 L 128.0,77.0 L 130.0,78.0 L 138.0,78.0 L 144.0,74.0 L 146.0,71.0 L 146.0,62.0 L 141.0,56.0 L 139.0,55.0 L 129.0,55.0" fill="#5882BA"/>
	<path d="M 19.0,53.0 L 30.0,53.0 L 37.0,57.0 L 41.0,64.0 L 41.0,73.0 L 38.0,79.0 L 33.0,83.0 L 29.0,85.0 L 22.0,85.0 L 14.0,81.0 L 10.0,75.0 L 9.0,72.0 L 9.0,64.0 L 13.0,58.0 L 19.0,53.0 M 20.0,57.0 L 15.0,62.0 L 13.0,66.0 L 14.0,74.0 L 19.0,79.0 L 20.0,80.0 L 30.0,80.0 L 36.0,75.0 L 37.0,72.0 L 37.0,65.0 L 34.0,60.0 L 29.0,57.0 L 20.0,57.0" fill="#5781BA"/>
	<path d="M 106.0,16.0 L 113.0,16.0 L 121.0,21.0 L 125.0,26.0 L 125.0,38.0 L 121.0,44.0 L 117.0,47.0 L 114.0,48.0 L 104.0,48.0 L 98.0,44.0 L 94.0,38.0 L 94.0,26.0 L 101.0,18.0 L 106.0,16.0 M 104.0,21.0 L 98.0,27.0 L 98.0,37.0 L 103.0,43.0 L 105.0,44.0 L 114.0,44.0 L 120.0,39.0 L 121.0,36.0 L 121.0,27.0 L 114.0,21.0 L 104.0,21.0" fill="#5681BA"/>
	<path d="M 42.0,19.0 L 49.0,19.0 L 57.0,23.0 L 61.0,28.0 L 62.0,30.0 L 62.0,40.0 L 58.0,47.0 L 51.0,51.0 L 42.0,51.0 L 36.0,48.0 L 31.0,42.0 L 30.0,39.0 L 30.0,31.0 L 35.0,23.0 L 42.0,19.0 M 44.0,23.0 L 38.0,26.0 L 34.0,32.0 L 35.0,41.0 L 40.0,46.0 L 43.0,47.0 L 50.0,47.0 L 56.0,43.0 L 58.0,39.0 L 58.0,31.0 L 53.0,25.0 L 49.0,23.0 L 44.0,23.0" fill="#5781B9"/>
	<path d="M 56.0,117.0 L 67.0,117.0 L 74.0,122.0 L 77.0,127.0 L 77.0,138.0 L 73.0,144.0 L 68.0,148.0 L 65.0,149.0 L 57.0,149.0 L 49.0,144.0 L 46.0,139.0 L 46.0,127.0 L 50.0,121.0 L 56.0,117.0 M 57.0,121.0 L 51.0,126.0 L 50.0,128.0 L 50.0,138.0 L 55.0,143.0 L 59.0,145.0 L 67.0,144.0 L 72.0,139.0 L 73.0,137.0 L 73.0,129.0 L 70.0,124.0 L 65.0,121.0 L 57.0,121.0" fill="#5680B9"/>
	<path d="M 124.0,90.0 L 135.0,90.0 L 142.0,94.0 L 146.0,101.0 L 146.0,110.0 L 142.0,116.0 L 138.0,120.0 L 135.0,121.0 L 124.0,121.0 L 117.0,116.0 L 114.0,109.0 L 114.0,100.0 L 120.0,92.0 L 124.0,90.0 M 125.0,94.0 L 120.0,98.0 L 118.0,103.0 L 119.0,111.0 L 124.0,116.0 L 125.0,117.0 L 134.0,117.0 L 140.0,113.0 L 142.0,109.0 L 142.0,102.0 L 138.0,96.0 L 134.0,94.0 L 125.0,94.0" fill="#5580B9"/>
	<path d="M 96.0,116.0 L 105.0,116.0 L 112.0,120.0 L 116.0,125.0 L 117.0,128.0 L 117.0,135.0 L 113.0,143.0 L 107.0,147.0 L 104.0,148.0 L 96.0,148.0 L 90.0,144.0 L 86.0,139.0 L 85.0,136.0 L 85.0,127.0 L 89.0,121.0 L 94.0,117.0 L 96.0,116.0 M 97.0,120.0 L 91.0,124.0 L 89.0,128.0 L 89.0,135.0 L 92.0,140.0 L 97.0,144.0 L 106.0,143.0 L 111.0,139.0 L 113.0,134.0 L 112.0,126.0 L 107.0,121.0 L 104.0,120.0 L 97.0,120.0" fill="#557FB9"/>
	<path d="M 25.0,92.0 L 37.0,92.0 L 43.0,96.0 L 47.0,102.0 L 47.0,112.0 L 44.0,118.0 L 39.0,122.0 L 37.0,123.0 L 25.0,123.0 L 17.0,116.0 L 15.0,112.0 L 15.0,103.0 L 19.0,97.0 L 25.0,92.0 M 27.0,96.0 L 21.0,100.0 L 19.0,104.0 L 19.0,111.0 L 23.0,117.0 L 27.0,119.0 L 36.0,119.0 L 42.0,114.0 L 43.0,112.0 L 43.0,103.0 L 38.0,97.0 L 36.0,96.0 L 27.0,96.0" fill="#5681B9"/>
</svg>
