<?xml version="1.0" ?>
<svg baseProfile="full" height="600px" version="1.1" viewBox="-16.08 -16.08 192.16 192.16" width="600px" xmlns="http://www.w3.org/2000/svg" xmlns:ev="http://www.w3.org/2001/xml-events" xmlns:xlink="http://www.w3.org/1999/xlink">
	<defs/>
	<path d="M 0.0,0.0 L 160.0,0.0 L 160.0,160.0 L 0.0,160.0 L 0.0,0.0" fill="#FCFDFD"/>
	<path d="M 48.0,15.0 L 58.0,15.0 L 64.0,18.0 L 68.0,23.0 L 69.0,25.0 L 69.0,36.0 L 65.0,42.0 L 62.0,45.0 L 57.0,47.0 L 50.0,47.0 L 45.0,45.0 L 47.0,48.0 L 47.0,57.0 L 43.0,64.0 L 38.0,68.0 L 33.0,70.0 L 39.0,77.0 L 40.0,79.0 L 40.0,88.0 L 37.0,94.0 L 34.0,97.0 L 41.0,98.0 L 48.0,103.0 L 51.0,108.0 L 51.0,120.0 L 55.0,117.0 L 66.0,117.0 L 72.0,121.0 L 76.0,126.0 L 77.0,128.0 L 83.0,121.0 L 87.0,119.0 L 98.0,119.0 L 104.0,122.0 L 104.0,115.0 L 109.0,107.0 L 115.0,103.0 L 124.0,103.0 L 132.0,107.0 L 136.0,113.0 L 136.0,124.0 L 132.0,130.0 L 127.0,134.0 L 123.0,135.0 L 116.0,135.0 L 109.0,131.0 L 109.0,139.0 L 105.0,145.0 L 101.0,149.0 L 95.0,151.0 L 87.0,150.0 L 81.0,146.0 L 78.0,142.0 L 76.0,139.0 L 72.0,145.0 L 65.0,149.0 L 57.0,149.0 L 49.0,144.0 L 46.0,140.0 L 45.0,136.0 L 45.0,127.0 L 40.0,130.0 L 31.0,130.0 L 23.0,125.0 L 20.0,120.0 L 20.0,108.0 L 24.0,102.0 L 25.0,101.0 L 17.0,99.0 L 10.0,93.0 L 8.0,89.0 L 8.0,80.0 L 12.0,73.0 L 17.0,69.0 L 22.0,67.0 L 16.0,60.0 L 15.0,58.0 L 15.0,48.0 L 19.0,42.0 L 24.0,38.0 L 26.0,37.0 L 34.0,37.0 L 39.0,39.0 L 38.0,36.0 L 38.0,25.0 L 42.0,19.0 L 48.0,15.0" fill="#5680B9"/>
	<path d="M 130.0,73.0 L 140.0,73.0 L 147.0,77.0 L 151.0,83.0 L 151.0,93.0 L 148.0,99.0 L 143.0,103.0 L 139.0,105.0 L 132.0,105.0 L 126.0,102.0 L 120.0,95.0 L 119.0,92.0 L 119.0,85.0 L 123.0,78.0 L 128.0,74.0 L 130.0,73.0" fill="#88B4ED"/>
	<path d="M 56.0,121.0 L 65.0,121.0 L 71.0,125.0 L 73.0,129.0 L 73.0,136.0 L 69.0,142.0 L 64.0,145.0 L 56.0,144.0 L 51.0,140.0 L 49.0,135.0 L 49.0,129.0 L 53.0,123.0 L 56.0,121.0" fill="#88B4ED"/>
	<path d="M 21.0,72.0 L 30.0,73.0 L 36.0,80.0 L 36.0,87.0 L 33.0,93.0 L 27.0,96.0 L 20.0,96.0 L 14.0,91.0 L 12.0,88.0 L 12.0,81.0 L 15.0,76.0 L 18.0,73.0 L 21.0,72.0" fill="#88B4ED"/>
	<path d="M 27.0,41.0 L 36.0,42.0 L 41.0,46.0 L 43.0,49.0 L 43.0,56.0 L 40.0,61.0 L 37.0,64.0 L 34.0,65.0 L 27.0,65.0 L 20.0,59.0 L 19.0,57.0 L 19.0,49.0 L 25.0,42.0 L 27.0,41.0" fill="#88B4ED"/>
	<path d="M 116.0,107.0 L 123.0,107.0 L 129.0,110.0 L 132.0,114.0 L 132.0,123.0 L 129.0,128.0 L 124.0,131.0 L 117.0,131.0 L 111.0,127.0 L 109.0,124.0 L 109.0,114.0 L 114.0,108.0 L 116.0,107.0" fill="#88B4ED"/>
	<path d="M 31.0,102.0 L 40.0,102.0 L 45.0,106.0 L 47.0,109.0 L 47.0,118.0 L 44.0,123.0 L 39.0,126.0 L 32.0,126.0 L 26.0,122.0 L 24.0,119.0 L 24.0,109.0 L 29.0,103.0 L 31.0,102.0" fill="#88B4ED"/>
	<path d="M 49.0,19.0 L 58.0,19.0 L 64.0,24.0 L 65.0,26.0 L 65.0,35.0 L 62.0,40.0 L 56.0,43.0 L 48.0,42.0 L 42.0,35.0 L 42.0,26.0 L 47.0,20.0 L 49.0,19.0" fill="#88B4ED"/>
	<path d="M 88.0,123.0 L 97.0,123.0 L 102.0,126.0 L 105.0,133.0 L 104.0,139.0 L 101.0,144.0 L 97.0,146.0 L 88.0,146.0 L 82.0,141.0 L 81.0,139.0 L 81.0,130.0 L 86.0,124.0 L 88.0,123.0" fill="#88B4ED"/>
	<path d="M 130.0,73.0 L 140.0,73.0 L 147.0,77.0 L 151.0,83.0 L 151.0,93.0 L 148.0,99.0 L 143.0,103.0 L 139.0,105.0 L 132.0,105.0 L 126.0,102.0 L 120.0,95.0 L 119.0,92.0 L 119.0,85.0 L 123.0,78.0 L 128.0,74.0 L 130.0,73.0 M 131.0,77.0 L 124.0,83.0 L 123.0,91.0 L 127.0,98.0 L 130.0,100.0 L 140.0,100.0 L 146.0,95.0 L 147.0,92.0 L 147.0,85.0 L 144.0,80.0 L 139.0,77.0 L 131.0,77.0" fill="#5781BA"/>
</svg>
