<?xml version="1.0" ?>
<svg baseProfile="full" height="600px" version="1.1" viewBox="-9.648000000000001 -9.648000000000001 115.296 115.296" width="600px" xmlns="http://www.w3.org/2000/svg" xmlns:ev="http://www.w3.org/2001/xml-events" xmlns:xlink="http://www.w3.org/1999/xlink">
	<defs/>
	<path d="M 0.0,0.0 L 96.0,0.0 L 96.0,96.0 L 0.0,96.0 L 0.0,0.0" fill="#FCFCFC"/>
	<path d="M 80.0,51.0 L 88.0,51.0 L 87.0,60.0 L 80.0,73.0 L 73.0,80.0 L 62.0,86.0 L 54.0,88.0 L 40.0,88.0 L 42.0,82.0 L 44.0,80.0 L 57.0,78.0 L 67.0,73.0 L 72.0,68.0 L 77.0,60.0 L 80.0,51.0" fill="#0B0B0B"/>
	<path d="M 17.0,22.0 L 19.0,22.0 L 22.0,27.0 L 21.0,32.0 L 18.0,38.0 L 17.0,43.0 L 17.0,54.0 L 22.0,66.0 L 26.0,71.0 L 29.0,73.0 L 27.0,79.0 L 23.0,80.0 L 16.0,73.0 L 10.0,62.0 L 8.0,53.0 L 8.0,40.0 L 12.0,29.0 L 17.0,22.0" fill="#080808"/>
	<path d="M 40.0,8.0 L 53.0,8.0 L 66.0,12.0 L 75.0,18.0 L 82.0,26.0 L 86.0,35.0 L 77.0,35.0 L 70.0,25.0 L 60.0,19.0 L 54.0,17.0 L 41.0,17.0 L 35.0,19.0 L 31.0,13.0 L 31.0,11.0 L 40.0,8.0" fill="#070707"/>
</svg>
