<?xml version="1.0" ?>
<svg baseProfile="full" height="600px" version="1.1" viewBox="-20.1 -20.1 240.2 240.2" width="600px" xmlns="http://www.w3.org/2000/svg" xmlns:ev="http://www.w3.org/2001/xml-events" xmlns:xlink="http://www.w3.org/1999/xlink">
	<defs/>
	<path d="M 0.0,0.0 L 200.0,0.0 L 200.0,200.0 L 0.0,200.0 L 0.0,0.0" fill="#FDFDFD"/>
	<path d="M 63.0,20.0 L 73.0,20.0 L 83.0,26.0 L 88.0,35.0 L 88.0,44.0 L 84.0,53.0 L 76.0,59.0 L 72.0,60.0 L 62.0,60.0 L 59.0,59.0 L 60.0,61.0 L 60.0,74.0 L 56.0,80.0 L 51.0,85.0 L 43.0,88.0 L 49.0,93.0 L 52.0,99.0 L 52.0,111.0 L 47.0,119.0 L 46.0,120.0 L 55.0,123.0 L 61.0,127.0 L 66.0,136.0 L 66.0,144.0 L 65.0,147.0 L 71.0,144.0 L 82.0,144.0 L 90.0,148.0 L 97.0,157.0 L 104.0,149.0 L 111.0,146.0 L 119.0,146.0 L 128.0,150.0 L 130.0,139.0 L 135.0,132.0 L 142.0,128.0 L 144.0,127.0 L 154.0,127.0 L 164.0,133.0 L 168.0,139.0 L 169.0,142.0 L 169.0,151.0 L 166.0,158.0 L 161.0,164.0 L 155.0,167.0 L 143.0,167.0 L 136.0,163.0 L 134.0,175.0 L 127.0,183.0 L 120.0,186.0 L 111.0,186.0 L 104.0,183.0 L 99.0,178.0 L 95.0,173.0 L 91.0,179.0 L 82.0,184.0 L 72.0,184.0 L 64.0,180.0 L 58.0,172.0 L 57.0,168.0 L 57.0,158.0 L 51.0,161.0 L 40.0,161.0 L 32.0,156.0 L 28.0,151.0 L 26.0,147.0 L 26.0,135.0 L 31.0,127.0 L 32.0,126.0 L 22.0,123.0 L 17.0,119.0 L 12.0,109.0 L 12.0,100.0 L 17.0,91.0 L 24.0,86.0 L 29.0,84.0 L 24.0,79.0 L 21.0,73.0 L 21.0,60.0 L 25.0,54.0 L 31.0,49.0 L 36.0,47.0 L 44.0,47.0 L 49.0,48.0 L 48.0,46.0 L 48.0,34.0 L 53.0,26.0 L 60.0,21.0 L 63.0,20.0" fill="#080808"/>
	<path d="M 160.0,91.0 L 173.0,91.0 L 179.0,94.0 L 186.0,102.0 L 187.0,105.0 L 187.0,115.0 L 184.0,122.0 L 176.0,129.0 L 173.0,130.0 L 161.0,130.0 L 153.0,125.0 L 149.0,120.0 L 147.0,114.0 L 147.0,107.0 L 150.0,99.0 L 158.0,92.0 L 160.0,91.0" fill="#060606"/>
	<path d="M 145.0,135.0 L 152.0,135.0 L 158.0,139.0 L 161.0,143.0 L 161.0,151.0 L 158.0,156.0 L 152.0,159.0 L 145.0,159.0 L 140.0,156.0 L 137.0,150.0 L 137.0,143.0 L 143.0,136.0 L 145.0,135.0" fill="#F7F7F7"/>
	<path d="M 28.0,93.0 L 35.0,93.0 L 41.0,96.0 L 44.0,101.0 L 44.0,109.0 L 41.0,114.0 L 35.0,117.0 L 26.0,116.0 L 21.0,110.0 L 20.0,108.0 L 20.0,101.0 L 26.0,94.0 L 28.0,93.0" fill="#F7F7F7"/>
	<path d="M 64.0,28.0 L 72.0,28.0 L 78.0,33.0 L 80.0,37.0 L 79.0,46.0 L 74.0,51.0 L 71.0,52.0 L 64.0,52.0 L 58.0,48.0 L 56.0,44.0 L 56.0,36.0 L 62.0,29.0 L 64.0,28.0" fill="#F7F7F7"/>
	<path d="M 73.0,152.0 L 80.0,152.0 L 85.0,155.0 L 89.0,160.0 L 89.0,168.0 L 84.0,174.0 L 80.0,176.0 L 73.0,176.0 L 66.0,170.0 L 65.0,167.0 L 65.0,160.0 L 68.0,155.0 L 73.0,152.0" fill="#F8F8F8"/>
	<path d="M 42.0,129.0 L 49.0,129.0 L 55.0,133.0 L 58.0,138.0 L 58.0,144.0 L 54.0,150.0 L 49.0,153.0 L 42.0,153.0 L 36.0,149.0 L 34.0,144.0 L 34.0,137.0 L 37.0,132.0 L 42.0,129.0" fill="#F8F8F8"/>
	<path d="M 112.0,154.0 L 121.0,155.0 L 126.0,160.0 L 127.0,161.0 L 127.0,171.0 L 122.0,177.0 L 119.0,178.0 L 111.0,178.0 L 105.0,173.0 L 104.0,171.0 L 104.0,161.0 L 108.0,156.0 L 112.0,154.0" fill="#F7F7F7"/>
	<path d="M 162.0,99.0 L 172.0,99.0 L 178.0,104.0 L 179.0,106.0 L 179.0,114.0 L 176.0,119.0 L 172.0,122.0 L 162.0,122.0 L 157.0,118.0 L 155.0,113.0 L 155.0,107.0 L 159.0,101.0 L 162.0,99.0" fill="#F7F7F7"/>
	<path d="M 37.0,55.0 L 46.0,56.0 L 51.0,61.0 L 52.0,62.0 L 52.0,71.0 L 49.0,76.0 L 44.0,79.0 L 36.0,79.0 L 30.0,74.0 L 29.0,72.0 L 29.0,62.0 L 33.0,57.0 L 37.0,55.0" fill="#F7F7F7"/>
</svg>
