<?xml version="1.0" ?>
<svg baseProfile="full" height="600px" version="1.1" viewBox="-19.296000000000003 -19.296000000000003 230.592 230.592" width="600px" xmlns="http://www.w3.org/2000/svg" xmlns:ev="http://www.w3.org/2001/xml-events" xmlns:xlink="http://www.w3.org/1999/xlink">
	<defs/>
	<path d="M 0.0,0.0 L 192.0,0.0 L 192.0,192.0 L 0.0,192.0 L 0.0,0.0" fill="#FDFEFD"/>
	<path d="M 45.0,35.0 L 58.0,35.0 L 64.0,39.0 L 68.0,43.0 L 69.0,46.0 L 69.0,58.0 L 65.0,64.0 L 60.0,68.0 L 58.0,69.0 L 46.0,69.0 L 40.0,65.0 L 36.0,60.0 L 34.0,55.0 L 34.0,48.0 L 38.0,41.0 L 45.0,35.0" fill="#7EB444"/>
	<path d="M 90.0,19.0 L 101.0,19.0 L 107.0,22.0 L 112.0,28.0 L 113.0,30.0 L 113.0,41.0 L 109.0,48.0 L 104.0,52.0 L 101.0,53.0 L 90.0,53.0 L 84.0,49.0 L 80.0,44.0 L 79.0,42.0 L 79.0,30.0 L 83.0,24.0 L 90.0,19.0" fill="#7EB445"/>
	<path d="M 32.0,80.0 L 40.0,80.0 L 46.0,83.0 L 51.0,88.0 L 52.0,91.0 L 52.0,100.0 L 48.0,108.0 L 40.0,112.0 L 31.0,112.0 L 24.0,108.0 L 20.0,100.0 L 20.0,92.0 L 24.0,84.0 L 32.0,80.0" fill="#7DB444"/>
	<path d="M 47.0,127.0 L 56.0,127.0 L 62.0,131.0 L 65.0,135.0 L 65.0,145.0 L 60.0,151.0 L 57.0,153.0 L 48.0,153.0 L 43.0,150.0 L 39.0,144.0 L 39.0,135.0 L 44.0,129.0 L 47.0,127.0" fill="#7FB445"/>
	<path d="M 92.0,147.0 L 99.0,147.0 L 105.0,152.0 L 105.0,159.0 L 101.0,164.0 L 99.0,165.0 L 92.0,165.0 L 87.0,159.0 L 87.0,152.0 L 92.0,147.0" fill="#7FB546"/>
	<path d="M 137.0,136.0 L 143.0,136.0 L 144.0,137.0 L 144.0,143.0 L 143.0,144.0 L 137.0,144.0 L 136.0,143.0 L 136.0,137.0 L 137.0,136.0" fill="#81B649"/>
</svg>
