<?xml version="1.0" ?>
<svg baseProfile="full" height="600px" version="1.1" viewBox="-9.648000000000001 -9.648000000000001 115.296 115.296" width="600px" xmlns="http://www.w3.org/2000/svg" xmlns:ev="http://www.w3.org/2001/xml-events" xmlns:xlink="http://www.w3.org/1999/xlink">
	<defs/>
	<path d="M 0.0,0.0 L 96.0,0.0 L 96.0,96.0 L 0.0,96.0 L 0.0,0.0" fill="#FCFCFC"/>
	<path d="M 14.0,40.0 L 20.0,41.0 L 24.0,45.0 L 23.0,52.0 L 18.0,56.0 L 12.0,55.0 L 8.0,50.0 L 9.0,44.0 L 14.0,40.0" fill="#0B0B0B"/>
	<path d="M 22.0,18.0 L 28.0,19.0 L 30.0,22.0 L 29.0,28.0 L 26.0,30.0 L 20.0,29.0 L 18.0,26.0 L 19.0,20.0 L 22.0,18.0" fill="#121212"/>
	<path d="M 46.0,12.0 L 51.0,13.0 L 52.0,18.0 L 50.0,20.0 L 45.0,19.0 L 44.0,14.0 L 46.0,12.0" fill="#0A0A0A"/>
</svg>
