<?xml version="1.0" ?>
<svg baseProfile="full" height="600px" version="1.1" viewBox="-19.296000000000003 -19.296000000000003 230.592 230.592" width="600px" xmlns="http://www.w3.org/2000/svg" xmlns:ev="http://www.w3.org/2001/xml-events" xmlns:xlink="http://www.w3.org/1999/xlink">
	<defs/>
	<path d="M 0.0,0.0 L 192.0,0.0 L 192.0,192.0 L 0.0,192.0 L 0.0,0.0" fill="#FDFEFD"/>
	<path d="M 103.0,19.0 L 113.0,19.0 L 119.0,23.0 L 128.0,27.0 L 137.0,29.0 L 144.0,35.0 L 146.0,39.0 L 151.0,43.0 L 152.0,45.0 L 159.0,49.0 L 163.0,55.0 L 164.0,62.0 L 167.0,67.0 L 169.0,72.0 L 172.0,76.0 L 173.0,80.0 L 173.0,87.0 L 168.0,95.0 L 161.0,99.0 L 153.0,99.0 L 147.0,96.0 L 142.0,90.0 L 139.0,83.0 L 136.0,79.0 L 134.0,70.0 L 126.0,64.0 L 122.0,58.0 L 111.0,55.0 L 107.0,52.0 L 91.0,52.0 L 85.0,48.0 L 81.0,43.0 L 80.0,41.0 L 80.0,31.0 L 84.0,25.0 L 89.0,21.0 L 91.0,20.0 L 103.0,19.0" fill="#7EB444"/>
</svg>
