<?xml version="1.0" ?>
<svg baseProfile="full" height="600px" version="1.1" viewBox="-9.648000000000001 -9.648000000000001 115.296 115.296" width="600px" xmlns="http://www.w3.org/2000/svg" xmlns:ev="http://www.w3.org/2001/xml-events" xmlns:xlink="http://www.w3.org/1999/xlink">
	<defs/>
	<path d="M 0.0,0.0 L 96.0,0.0 L 96.0,96.0 L 0.0,96.0 L 0.0,0.0" fill="#FCFCFC"/>
	<path d="M 21.0,63.0 L 29.0,64.0 L 33.0,69.0 L 33.0,75.0 L 29.0,80.0 L 27.0,81.0 L 21.0,81.0 L 16.0,77.0 L 15.0,69.0 L 19.0,64.0 L 21.0,63.0" fill="#0C0C0C"/>
	<path d="M 45.0,71.0 L 52.0,72.0 L 57.0,77.0 L 56.0,84.0 L 52.0,88.0 L 45.0,89.0 L 40.0,84.0 L 39.0,77.0 L 44.0,72.0 L 45.0,71.0" fill="#0D0D0D"/>
	<path d="M 68.0,64.0 L 76.0,64.0 L 80.0,68.0 L 80.0,76.0 L 76.0,80.0 L 68.0,80.0 L 64.0,76.0 L 64.0,68.0 L 68.0,64.0" fill="#050505"/>
	<path d="M 13.0,40.0 L 19.0,40.0 L 24.0,45.0 L 24.0,51.0 L 19.0,56.0 L 13.0,56.0 L 8.0,51.0 L 8.0,45.0 L 13.0,40.0" fill="#060606"/>
	<path d="M 77.0,40.0 L 83.0,40.0 L 88.0,45.0 L 87.0,53.0 L 83.0,56.0 L 77.0,56.0 L 72.0,51.0 L 72.0,45.0 L 77.0,40.0" fill="#090909"/>
	<path d="M 69.0,16.0 L 75.0,16.0 L 80.0,21.0 L 79.0,29.0 L 75.0,32.0 L 69.0,32.0 L 64.0,27.0 L 64.0,21.0 L 69.0,16.0" fill="#090909"/>
	<path d="M 22.0,17.0 L 28.0,18.0 L 31.0,22.0 L 30.0,28.0 L 26.0,31.0 L 20.0,30.0 L 17.0,26.0 L 18.0,20.0 L 22.0,17.0" fill="#151515"/>
	<path d="M 45.0,12.0 L 51.0,12.0 L 52.0,13.0 L 52.0,19.0 L 51.0,20.0 L 45.0,20.0 L 44.0,19.0 L 44.0,13.0 L 45.0,12.0" fill="#070707"/>
</svg>
