<?xml version="1.0" ?>
<svg baseProfile="full" height="600px" version="1.1" viewBox="-12.864 -12.864 153.728 153.728" width="600px" xmlns="http://www.w3.org/2000/svg" xmlns:ev="http://www.w3.org/2001/xml-events" xmlns:xlink="http://www.w3.org/1999/xlink">
	<defs/>
	<path d="M 0.0,0.0 L 128.0,0.0 L 128.0,128.0 L 0.0,128.0 L 0.0,0.0" fill="#FCFCFC"/>
	<path d="M 17.0,50.0 L 20.0,51.0 L 31.0,69.0 L 27.0,73.0 L 24.0,74.0 L 22.0,71.0 L 23.0,78.0 L 29.0,90.0 L 34.0,96.0 L 43.0,102.0 L 52.0,106.0 L 67.0,108.0 L 67.0,116.0 L 55.0,116.0 L 45.0,113.0 L 34.0,107.0 L 24.0,98.0 L 18.0,89.0 L 13.0,77.0 L 13.0,72.0 L 8.0,74.0 L 3.0,69.0 L 17.0,50.0" fill="#080808"/>
	<path d="M 105.0,36.0 L 109.0,37.0 L 114.0,47.0 L 116.0,55.0 L 116.0,70.0 L 114.0,80.0 L 107.0,94.0 L 98.0,104.0 L 95.0,105.0 L 95.0,107.0 L 101.0,108.0 L 100.0,115.0 L 90.0,114.0 L 76.0,111.0 L 79.0,102.0 L 85.0,89.0 L 90.0,90.0 L 93.0,93.0 L 91.0,98.0 L 96.0,94.0 L 103.0,83.0 L 106.0,76.0 L 107.0,69.0 L 107.0,56.0 L 103.0,45.0 L 101.0,39.0 L 105.0,36.0" fill="#070707"/>
	<path d="M 88.0,9.0 L 92.0,9.0 L 98.0,27.0 L 98.0,31.0 L 75.0,33.0 L 75.0,25.0 L 78.0,23.0 L 72.0,21.0 L 56.0,21.0 L 45.0,25.0 L 34.0,32.0 L 27.0,41.0 L 25.0,44.0 L 20.0,43.0 L 18.0,39.0 L 24.0,30.0 L 31.0,23.0 L 41.0,17.0 L 51.0,13.0 L 55.0,12.0 L 73.0,12.0 L 83.0,15.0 L 85.0,16.0 L 84.0,11.0 L 88.0,9.0" fill="#090909"/>
</svg>
