<?xml version="1.0" ?>
<svg baseProfile="full" height="600px" version="1.1" viewBox="-20.1 -20.1 240.2 240.2" width="600px" xmlns="http://www.w3.org/2000/svg" xmlns:ev="http://www.w3.org/2001/xml-events" xmlns:xlink="http://www.w3.org/1999/xlink">
	<defs/>
	<path d="M 0.0,0.0 L 200.0,0.0 L 200.0,200.0 L 0.0,200.0 L 0.0,0.0" fill="#FCFCFC"/>
	<path d="M 88.0,16.0 L 109.0,16.0 L 124.0,19.0 L 139.0,25.0 L 150.0,32.0 L 160.0,41.0 L 169.0,51.0 L 177.0,65.0 L 179.0,72.0 L 181.0,72.0 L 183.0,65.0 L 186.0,62.0 L 191.0,63.0 L 192.0,68.0 L 185.0,83.0 L 180.0,93.0 L 173.0,89.0 L 155.0,76.0 L 154.0,75.0 L 154.0,70.0 L 155.0,69.0 L 161.0,69.0 L 172.0,77.0 L 167.0,65.0 L 160.0,54.0 L 150.0,43.0 L 140.0,36.0 L 128.0,30.0 L 115.0,26.0 L 110.0,25.0 L 93.0,25.0 L 84.0,26.0 L 69.0,31.0 L 67.0,32.0 L 61.0,32.0 L 60.0,27.0 L 65.0,23.0 L 72.0,20.0 L 88.0,16.0" fill="#080808"/>
	<path d="M 177.0,101.0 L 182.0,101.0 L 184.0,103.0 L 184.0,111.0 L 180.0,127.0 L 174.0,141.0 L 165.0,154.0 L 153.0,166.0 L 139.0,175.0 L 125.0,181.0 L 109.0,184.0 L 87.0,184.0 L 93.0,190.0 L 92.0,195.0 L 87.0,196.0 L 72.0,181.0 L 65.0,173.0 L 67.0,171.0 L 94.0,161.0 L 98.0,162.0 L 99.0,163.0 L 99.0,168.0 L 87.0,173.0 L 85.0,173.0 L 85.0,175.0 L 108.0,175.0 L 120.0,173.0 L 135.0,167.0 L 146.0,160.0 L 157.0,150.0 L 164.0,140.0 L 170.0,128.0 L 173.0,120.0 L 176.0,102.0 L 177.0,101.0" fill="#080808"/>
	<path d="M 49.0,34.0 L 54.0,34.0 L 53.0,49.0 L 51.0,64.0 L 49.0,66.0 L 44.0,65.0 L 43.0,64.0 L 44.0,50.0 L 42.0,50.0 L 40.0,54.0 L 32.0,67.0 L 27.0,80.0 L 25.0,89.0 L 25.0,110.0 L 28.0,122.0 L 34.0,137.0 L 41.0,147.0 L 50.0,157.0 L 59.0,164.0 L 60.0,169.0 L 58.0,171.0 L 53.0,170.0 L 44.0,163.0 L 34.0,153.0 L 25.0,139.0 L 19.0,124.0 L 16.0,111.0 L 16.0,88.0 L 20.0,72.0 L 28.0,56.0 L 35.0,46.0 L 24.0,47.0 L 22.0,45.0 L 22.0,40.0 L 25.0,38.0 L 49.0,34.0" fill="#080808"/>
</svg>
