<?xml version="1.0" ?>
<svg baseProfile="full" height="600px" version="1.1" viewBox="-20.1 -20.1 240.2 240.2" width="600px" xmlns="http://www.w3.org/2000/svg" xmlns:ev="http://www.w3.org/2001/xml-events" xmlns:xlink="http://www.w3.org/1999/xlink">
	<defs/>
	<path d="M 0.0,0.0 L 200.0,0.0 L 200.0,200.0 L 0.0,200.0 L 0.0,0.0" fill="#FDFDFD"/>
	<path d="M 96.0,12.0 L 118.0,13.0 L 124.0,16.0 L 133.0,18.0 L 150.0,27.0 L 158.0,34.0 L 164.0,39.0 L 170.0,47.0 L 174.0,52.0 L 178.0,60.0 L 182.0,67.0 L 183.0,74.0 L 186.0,79.0 L 186.0,91.0 L 182.0,99.0 L 173.0,105.0 L 160.0,105.0 L 152.0,100.0 L 147.0,92.0 L 143.0,79.0 L 136.0,68.0 L 129.0,62.0 L 120.0,57.0 L 114.0,54.0 L 95.0,52.0 L 87.0,48.0 L 81.0,40.0 L 80.0,37.0 L 80.0,28.0 L 83.0,21.0 L 87.0,16.0 L 92.0,13.0 L 96.0,12.0" fill="#0B0B0B"/>
	<path d="M 157.0,53.0 L 164.0,53.0 L 176.0,56.0 L 180.0,63.0 L 182.0,67.0 L 183.0,74.0 L 186.0,79.0 L 186.0,91.0 L 182.0,99.0 L 173.0,105.0 L 160.0,105.0 L 152.0,100.0 L 147.0,92.0 L 143.0,79.0 L 143.0,68.0 L 146.0,61.0 L 154.0,54.0 L 157.0,53.0" fill="#090909"/>
	<path d="M 96.0,12.0 L 118.0,13.0 L 124.0,16.0 L 133.0,18.0 L 139.0,22.0 L 139.0,23.0 L 132.0,23.0 L 131.0,25.0 L 129.0,24.0 L 128.0,26.0 L 122.0,26.0 L 117.0,29.0 L 115.0,33.0 L 115.0,41.0 L 121.0,56.0 L 116.0,55.0 L 107.0,53.0 L 95.0,52.0 L 87.0,48.0 L 81.0,40.0 L 80.0,37.0 L 80.0,28.0 L 83.0,21.0 L 87.0,16.0 L 92.0,13.0 L 96.0,12.0" fill="#080808"/>
	<path d="M 96.0,12.0 L 118.0,13.0 L 118.0,14.0 L 107.0,15.0 L 98.0,21.0 L 94.0,28.0 L 94.0,38.0 L 98.0,45.0 L 104.0,50.0 L 106.0,52.0 L 95.0,52.0 L 87.0,48.0 L 81.0,40.0 L 80.0,37.0 L 80.0,28.0 L 83.0,21.0 L 87.0,16.0 L 92.0,13.0 L 96.0,12.0" fill="#0E0E0E"/>
	<path d="M 149.0,42.0 L 161.0,42.0 L 168.0,45.0 L 174.0,52.0 L 175.0,56.0 L 169.0,55.0 L 164.0,54.0 L 157.0,54.0 L 150.0,58.0 L 146.0,62.0 L 144.0,68.0 L 143.0,77.0 L 139.0,73.0 L 136.0,67.0 L 137.0,54.0 L 141.0,48.0 L 147.0,43.0 L 149.0,42.0" fill="#080808"/>
	<path d="M 161.0,74.0 L 171.0,74.0 L 177.0,79.0 L 178.0,81.0 L 178.0,90.0 L 173.0,96.0 L 171.0,97.0 L 161.0,97.0 L 155.0,90.0 L 155.0,80.0 L 161.0,74.0" fill="#FBFBFB"/>
	<path d="M 157.0,53.0 L 164.0,53.0 L 176.0,56.0 L 180.0,63.0 L 182.0,67.0 L 182.0,73.0 L 178.0,70.0 L 178.0,68.0 L 172.0,66.0 L 168.0,63.0 L 159.0,62.0 L 153.0,66.0 L 150.0,74.0 L 148.0,81.0 L 146.0,81.0 L 145.0,83.0 L 143.0,79.0 L 143.0,68.0 L 146.0,61.0 L 154.0,54.0 L 157.0,53.0" fill="#070707"/>
	<path d="M 124.0,17.0 L 133.0,18.0 L 139.0,22.0 L 139.0,23.0 L 132.0,23.0 L 131.0,25.0 L 129.0,24.0 L 128.0,26.0 L 122.0,26.0 L 117.0,29.0 L 115.0,33.0 L 115.0,41.0 L 121.0,56.0 L 116.0,55.0 L 111.0,51.0 L 107.0,47.0 L 106.0,42.0 L 106.0,31.0 L 108.0,27.0 L 116.0,20.0 L 124.0,17.0" fill="#050505"/>
	<path d="M 134.0,31.0 L 141.0,31.0 L 142.0,33.0 L 134.0,37.0 L 129.0,45.0 L 127.0,49.0 L 125.0,46.0 L 125.0,40.0 L 129.0,34.0 L 134.0,31.0" fill="#E3E3E3"/>
	<path d="M 110.0,21.0 L 113.0,22.0 L 109.0,27.0 L 107.0,31.0 L 106.0,42.0 L 104.0,42.0 L 101.0,36.0 L 101.0,30.0 L 105.0,24.0 L 110.0,21.0" fill="#E9E9E9"/>
	<path d="M 159.0,61.0 L 168.0,62.0 L 172.0,66.0 L 160.0,67.0 L 151.0,72.0 L 152.0,66.0 L 157.0,62.0 L 159.0,61.0" fill="#EAEAEA"/>
	<path d="M 151.0,50.0 L 161.0,50.0 L 164.0,53.0 L 154.0,55.0 L 146.0,62.0 L 144.0,64.0 L 144.0,58.0 L 148.0,52.0 L 151.0,50.0" fill="#ECECEC"/>
	<path d="M 122.0,25.0 L 128.0,25.0 L 123.0,30.0 L 119.0,36.0 L 117.0,44.0 L 114.0,41.0 L 114.0,33.0 L 118.0,27.0 L 122.0,25.0" fill="#EEEEEE"/>
	<path d="M 143.0,40.0 L 153.0,40.0 L 154.0,42.0 L 145.0,45.0 L 139.0,52.0 L 136.0,56.0 L 136.0,47.0 L 141.0,41.0 L 143.0,40.0" fill="#F0F0F0"/>
	<path d="M 94.0,21.0 L 97.0,22.0 L 94.0,28.0 L 94.0,38.0 L 95.0,42.0 L 91.0,40.0 L 88.0,35.0 L 88.0,28.0 L 94.0,21.0" fill="#F1F1F1"/>
</svg>
