<?xml version="1.0" ?>
<svg baseProfile="full" height="600px" version="1.1" viewBox="-9.648000000000001 -9.648000000000001 115.296 115.296" width="600px" xmlns="http://www.w3.org/2000/svg" xmlns:ev="http://www.w3.org/2001/xml-events" xmlns:xlink="http://www.w3.org/1999/xlink">
	<defs/>
	<path d="M 0.0,0.0 L 96.0,0.0 L 96.0,96.0 L 0.0,96.0 L 0.0,0.0" fill="#FCFCFC"/>
	<path d="M 40.0,8.0 L 55.0,8.0 L 60.0,9.0 L 59.0,13.0 L 56.0,17.0 L 41.0,17.0 L 32.0,21.0 L 24.0,27.0 L 19.0,35.0 L 17.0,41.0 L 9.0,40.0 L 10.0,34.0 L 15.0,24.0 L 24.0,15.0 L 36.0,9.0 L 40.0,8.0" fill="#0A0A0A"/>
	<path d="M 9.0,56.0 L 17.0,56.0 L 23.0,67.0 L 28.0,72.0 L 36.0,77.0 L 42.0,79.0 L 58.0,79.0 L 60.0,83.0 L 60.0,86.0 L 53.0,88.0 L 40.0,88.0 L 28.0,83.0 L 20.0,77.0 L 14.0,70.0 L 9.0,60.0 L 9.0,56.0" fill="#0A0A0A"/>
	<path d="M 74.0,18.0 L 80.0,23.0 L 85.0,31.0 L 88.0,40.0 L 88.0,54.0 L 84.0,66.0 L 78.0,75.0 L 74.0,77.0 L 71.0,72.0 L 72.0,68.0 L 77.0,60.0 L 79.0,51.0 L 79.0,41.0 L 72.0,27.0 L 70.0,23.0 L 74.0,18.0" fill="#090909"/>
</svg>
