<?xml version="1.0" ?>
<svg baseProfile="full" height="600px" version="1.1" viewBox="-19.296000000000003 -19.296000000000003 230.592 230.592" width="600px" xmlns="http://www.w3.org/2000/svg" xmlns:ev="http://www.w3.org/2001/xml-events" xmlns:xlink="http://www.w3.org/1999/xlink">
	<defs/>
	<path d="M 0.0,0.0 L 192.0,0.0 L 192.0,192.0 L 0.0,192.0 L 0.0,0.0" fill="#FEFEFE"/>
	<path d="M 53.0,35.0 L 56.0,35.0 L 55.0,53.0 L 52.0,76.0 L 46.0,72.0 L 39.0,66.0 L 36.0,75.0 L 33.0,88.0 L 33.0,104.0 L 36.0,116.0 L 41.0,128.0 L 50.0,140.0 L 54.0,144.0 L 52.0,149.0 L 46.0,157.0 L 42.0,155.0 L 37.0,150.0 L 30.0,142.0 L 24.0,132.0 L 19.0,119.0 L 16.0,105.0 L 16.0,85.0 L 20.0,69.0 L 26.0,57.0 L 26.0,53.0 L 18.0,46.0 L 16.0,43.0 L 53.0,35.0" fill="#2497F3"/>
	<path d="M 85.0,16.0 L 103.0,16.0 L 115.0,18.0 L 130.0,23.0 L 142.0,30.0 L 154.0,40.0 L 164.0,53.0 L 167.0,58.0 L 174.0,57.0 L 181.0,56.0 L 178.0,67.0 L 170.0,90.0 L 168.0,92.0 L 157.0,83.0 L 146.0,73.0 L 140.0,68.0 L 141.0,66.0 L 150.0,63.0 L 142.0,52.0 L 134.0,45.0 L 122.0,38.0 L 105.0,33.0 L 88.0,33.0 L 74.0,36.0 L 68.0,21.0 L 76.0,18.0 L 85.0,16.0" fill="#2497F3"/>
	<path d="M 159.0,108.0 L 169.0,108.0 L 175.0,109.0 L 173.0,120.0 L 167.0,134.0 L 159.0,146.0 L 150.0,156.0 L 139.0,164.0 L 125.0,171.0 L 116.0,174.0 L 106.0,176.0 L 94.0,176.0 L 93.0,184.0 L 91.0,188.0 L 87.0,186.0 L 63.0,162.0 L 63.0,160.0 L 85.0,153.0 L 98.0,149.0 L 100.0,149.0 L 99.0,157.0 L 98.0,160.0 L 114.0,157.0 L 128.0,151.0 L 139.0,143.0 L 147.0,134.0 L 153.0,124.0 L 159.0,108.0" fill="#2598F3"/>
</svg>
