<?xml version="1.0" ?>
<svg baseProfile="full" height="600px" version="1.1" viewBox="-20.1 -20.1 240.2 240.2" width="600px" xmlns="http://www.w3.org/2000/svg" xmlns:ev="http://www.w3.org/2001/xml-events" xmlns:xlink="http://www.w3.org/1999/xlink">
	<defs/>
	<path d="M 0.0,0.0 L 200.0,0.0 L 200.0,200.0 L 0.0,200.0 L 0.0,0.0" fill="#FDFDFD"/>
	<path d="M 94.0,10.0 L 105.0,10.0 L 115.0,15.0 L 121.0,24.0 L 122.0,26.0 L 122.0,37.0 L 117.0,47.0 L 108.0,53.0 L 105.0,54.0 L 94.0,54.0 L 84.0,48.0 L 79.0,40.0 L 78.0,37.0 L 78.0,26.0 L 84.0,16.0 L 94.0,10.0" fill="#080808"/>
	<path d="M 45.0,32.0 L 57.0,32.0 L 65.0,36.0 L 70.0,42.0 L 72.0,46.0 L 72.0,58.0 L 67.0,66.0 L 62.0,70.0 L 58.0,72.0 L 46.0,72.0 L 38.0,67.0 L 34.0,62.0 L 32.0,57.0 L 32.0,45.0 L 36.0,39.0 L 43.0,33.0 L 45.0,32.0" fill="#060606"/>
	<path d="M 26.0,84.0 L 37.0,84.0 L 44.0,88.0 L 48.0,94.0 L 48.0,105.0 L 44.0,112.0 L 37.0,116.0 L 26.0,116.0 L 19.0,111.0 L 16.0,105.0 L 16.0,94.0 L 20.0,88.0 L 26.0,84.0" fill="#080808"/>
	<path d="M 95.0,19.0 L 105.0,19.0 L 111.0,24.0 L 113.0,27.0 L 113.0,36.0 L 109.0,42.0 L 104.0,45.0 L 95.0,45.0 L 89.0,40.0 L 87.0,37.0 L 87.0,27.0 L 92.0,21.0 L 95.0,19.0" fill="#F9F9F9"/>
	<path d="M 47.0,40.0 L 56.0,40.0 L 62.0,44.0 L 64.0,48.0 L 64.0,55.0 L 61.0,60.0 L 58.0,63.0 L 55.0,64.0 L 48.0,64.0 L 42.0,60.0 L 40.0,56.0 L 40.0,47.0 L 44.0,42.0 L 47.0,40.0" fill="#F8F8F8"/>
	<path d="M 47.0,137.0 L 56.0,137.0 L 62.0,142.0 L 63.0,144.0 L 63.0,152.0 L 60.0,157.0 L 56.0,159.0 L 47.0,159.0 L 42.0,155.0 L 41.0,153.0 L 41.0,143.0 L 46.0,138.0 L 47.0,137.0" fill="#0A0A0A"/>
	<path d="M 29.0,90.0 L 37.0,91.0 L 42.0,97.0 L 42.0,103.0 L 37.0,109.0 L 35.0,110.0 L 29.0,110.0 L 23.0,105.0 L 22.0,103.0 L 22.0,97.0 L 27.0,91.0 L 29.0,90.0" fill="#F5F5F5"/>
	<path d="M 50.0,141.0 L 56.0,142.0 L 59.0,146.0 L 58.0,152.0 L 54.0,155.0 L 49.0,155.0 L 45.0,151.0 L 46.0,144.0 L 50.0,141.0" fill="#EEEEEE"/>
	<path d="M 98.0,162.0 L 103.0,163.0 L 105.0,165.0 L 105.0,171.0 L 102.0,174.0 L 97.0,173.0 L 94.0,170.0 L 95.0,165.0 L 98.0,162.0" fill="#3D3D3D"/>
	<path d="M 98.0,165.0 L 103.0,166.0 L 102.0,171.0 L 97.0,170.0 L 98.0,165.0" fill="#F7F7F7"/>
	<path d="M 99.0,163.0 L 104.0,164.0 L 105.0,165.0 L 105.0,171.0 L 103.0,173.0 L 100.0,172.0 L 102.0,170.0 L 101.0,165.0 L 99.0,163.0" fill="#0C0C0C"/>
	<path d="M 98.0,162.0 L 102.0,163.0 L 101.0,165.0 L 97.0,167.0 L 95.0,169.0 L 96.0,164.0 L 98.0,162.0" fill="#292929"/>
</svg>
