<?xml version="1.0" ?>
<svg baseProfile="full" height="600px" version="1.1" viewBox="-12.864 -12.864 153.728 153.728" width="600px" xmlns="http://www.w3.org/2000/svg" xmlns:ev="http://www.w3.org/2001/xml-events" xmlns:xlink="http://www.w3.org/1999/xlink">
	<defs/>
	<path d="M 0.0,0.0 L 128.0,0.0 L 128.0,128.0 L 0.0,128.0 L 0.0,0.0" fill="#FCFCFC"/>
	<path d="M 108.0,64.0 L 116.0,64.0 L 115.0,77.0 L 110.0,89.0 L 104.0,98.0 L 97.0,105.0 L 87.0,111.0 L 77.0,115.0 L 64.0,117.0 L 67.0,122.0 L 67.0,124.0 L 60.0,127.0 L 53.0,117.0 L 49.0,110.0 L 51.0,106.0 L 63.0,95.0 L 67.0,97.0 L 69.0,101.0 L 63.0,107.0 L 71.0,107.0 L 81.0,104.0 L 91.0,98.0 L 96.0,94.0 L 103.0,83.0 L 106.0,76.0 L 108.0,64.0" fill="#070707"/>
	<path d="M 23.0,29.0 L 31.0,29.0 L 36.0,45.0 L 36.0,49.0 L 31.0,51.0 L 28.0,51.0 L 26.0,44.0 L 22.0,52.0 L 21.0,56.0 L 21.0,70.0 L 23.0,78.0 L 29.0,90.0 L 34.0,96.0 L 42.0,102.0 L 39.0,109.0 L 34.0,107.0 L 24.0,98.0 L 18.0,89.0 L 14.0,81.0 L 12.0,73.0 L 12.0,55.0 L 15.0,45.0 L 18.0,39.0 L 10.0,38.0 L 10.0,30.0 L 23.0,29.0" fill="#090909"/>
	<path d="M 56.0,12.0 L 73.0,12.0 L 83.0,15.0 L 94.0,21.0 L 104.0,30.0 L 109.0,37.0 L 112.0,32.0 L 116.0,33.0 L 120.0,36.0 L 111.0,53.0 L 103.0,52.0 L 91.0,48.0 L 92.0,42.0 L 94.0,40.0 L 101.0,42.0 L 98.0,37.0 L 94.0,32.0 L 83.0,25.0 L 76.0,22.0 L 70.0,21.0 L 56.0,21.0 L 45.0,25.0 L 41.0,26.0 L 38.0,19.0 L 45.0,15.0 L 56.0,12.0" fill="#080808"/>
</svg>
