<?xml version="1.0" ?>
<svg baseProfile="full" height="600px" version="1.1" viewBox="-9.648000000000001 -9.648000000000001 115.296 115.296" width="600px" xmlns="http://www.w3.org/2000/svg" xmlns:ev="http://www.w3.org/2001/xml-events" xmlns:xlink="http://www.w3.org/1999/xlink">
	<defs/>
	<path d="M 0.0,0.0 L 96.0,0.0 L 96.0,96.0 L 0.0,96.0 L 0.0,0.0" fill="#FCFCFC"/>
	<path d="M 77.0,40.0 L 83.0,40.0 L 88.0,45.0 L 87.0,53.0 L 83.0,56.0 L 77.0,56.0 L 72.0,51.0 L 72.0,45.0 L 77.0,40.0" fill="#0A0A0A"/>
	<path d="M 69.0,65.0 L 76.0,66.0 L 79.0,69.0 L 79.0,75.0 L 75.0,79.0 L 69.0,79.0 L 65.0,74.0 L 65.0,69.0 L 69.0,65.0" fill="#0C0C0C"/>
	<path d="M 45.0,75.0 L 51.0,75.0 L 53.0,77.0 L 53.0,83.0 L 51.0,85.0 L 45.0,85.0 L 43.0,83.0 L 43.0,77.0 L 45.0,75.0" fill="#0D0D0D"/>
	<path d="M 22.0,69.0 L 27.0,70.0 L 26.0,75.0 L 21.0,74.0 L 22.0,69.0" fill="#141414"/>
</svg>
