<?xml version="1.0" ?>
<svg baseProfile="full" height="600px" version="1.1" viewBox="-20.1 -20.1 240.2 240.2" width="600px" xmlns="http://www.w3.org/2000/svg" xmlns:ev="http://www.w3.org/2001/xml-events" xmlns:xlink="http://www.w3.org/1999/xlink">
	<defs/>
	<path d="M 0.0,0.0 L 200.0,0.0 L 200.0,200.0 L 0.0,200.0 L 0.0,0.0" fill="#FDFDFD"/>
	<path d="M 94.0,12.0 L 106.0,12.0 L 112.0,15.0 L 119.0,23.0 L 120.0,26.0 L 120.0,38.0 L 117.0,44.0 L 109.0,51.0 L 106.0,52.0 L 94.0,52.0 L 88.0,49.0 L 81.0,41.0 L 80.0,38.0 L 80.0,26.0 L 83.0,20.0 L 91.0,13.0 L 94.0,12.0" fill="#060606"/>
	<path d="M 96.0,20.0 L 103.0,20.0 L 108.0,23.0 L 112.0,28.0 L 112.0,36.0 L 106.0,43.0 L 104.0,44.0 L 96.0,44.0 L 89.0,38.0 L 88.0,35.0 L 88.0,28.0 L 94.0,21.0 L 96.0,20.0" fill="#F7F7F7"/>
</svg>
