<?xml version="1.0" ?>
<svg baseProfile="full" height="600px" version="1.1" viewBox="-20.1 -20.1 240.2 240.2" width="600px" xmlns="http://www.w3.org/2000/svg" xmlns:ev="http://www.w3.org/2001/xml-events" xmlns:xlink="http://www.w3.org/1999/xlink">
	<defs/>
	<path d="M 0.0,0.0 L 200.0,0.0 L 200.0,200.0 L 0.0,200.0 L 0.0,0.0" fill="#FDFDFD"/>
	<path d="M 88.0,8.0 L 109.0,8.0 L 126.0,11.0 L 145.0,19.0 L 158.0,28.0 L 168.0,37.0 L 178.0,50.0 L 186.0,66.0 L 188.0,71.0 L 188.0,75.0 L 180.0,76.0 L 174.0,61.0 L 167.0,50.0 L 156.0,38.0 L 146.0,30.0 L 132.0,23.0 L 121.0,19.0 L 110.0,17.0 L 89.0,17.0 L 73.0,21.0 L 61.0,26.0 L 50.0,33.0 L 40.0,42.0 L 32.0,51.0 L 24.0,65.0 L 21.0,71.0 L 16.0,70.0 L 14.0,69.0 L 15.0,63.0 L 24.0,47.0 L 35.0,34.0 L 47.0,24.0 L 63.0,15.0 L 78.0,10.0 L 88.0,8.0" fill="#080808"/>
</svg>
