<?xml version="1.0" ?>
<svg baseProfile="full" height="600px" version="1.1" viewBox="-20.1 -20.1 240.2 240.2" width="600px" xmlns="http://www.w3.org/2000/svg" xmlns:ev="http://www.w3.org/2001/xml-events" xmlns:xlink="http://www.w3.org/1999/xlink">
	<defs/>
	<path d="M 0.0,0.0 L 200.0,0.0 L 200.0,200.0 L 0.0,200.0 L 0.0,0.0" fill="#FDFDFD"/>
	<path d="M 95.0,21.0 L 104.0,21.0 L 109.0,24.0 L 111.0,27.0 L 111.0,36.0 L 108.0,41.0 L 104.0,43.0 L 95.0,43.0 L 90.0,38.0 L 89.0,36.0 L 89.0,27.0 L 94.0,22.0 L 95.0,21.0" fill="#0B0B0B"/>
	<path d="M 98.0,25.0 L 104.0,26.0 L 107.0,30.0 L 106.0,36.0 L 102.0,39.0 L 96.0,38.0 L 93.0,34.0 L 94.0,28.0 L 98.0,25.0" fill="#F0F0F0"/>
	<path d="M 50.0,46.0 L 55.0,47.0 L 57.0,49.0 L 57.0,55.0 L 55.0,57.0 L 49.0,57.0 L 46.0,54.0 L 47.0,48.0 L 50.0,46.0" fill="#303030"/>
	<path d="M 54.0,48.0 L 57.0,49.0 L 57.0,55.0 L 55.0,57.0 L 49.0,57.0 L 48.0,54.0 L 54.0,54.0 L 54.0,48.0" fill="#0D0D0D"/>
	<path d="M 50.0,49.0 L 55.0,50.0 L 54.0,55.0 L 49.0,54.0 L 50.0,49.0" fill="#F6F6F6"/>
</svg>
