<?xml version="1.0" ?>
<svg baseProfile="full" height="600px" version="1.1" viewBox="-20.1 -20.1 240.2 240.2" width="600px" xmlns="http://www.w3.org/2000/svg" xmlns:ev="http://www.w3.org/2001/xml-events" xmlns:xlink="http://www.w3.org/1999/xlink">
	<defs/>
	<path d="M 0.0,0.0 L 200.0,0.0 L 200.0,200.0 L 0.0,200.0 L 0.0,0.0" fill="#FDFDFD"/>
	<path d="M 0.0,0.0 L 200.0,0.0 L 200.0,200.0 L 0.0,200.0 L 0.0,0.0 M 89.0,16.0 L 70.0,21.0 L 58.0,27.0 L 49.0,33.0 L 39.0,42.0 L 32.0,50.0 L 24.0,63.0 L 18.0,79.0 L 16.0,89.0 L 16.0,108.0 L 18.0,121.0 L 23.0,135.0 L 31.0,149.0 L 43.0,162.0 L 53.0,170.0 L 65.0,177.0 L 79.0,182.0 L 90.0,184.0 L 109.0,184.0 L 127.0,180.0 L 141.0,174.0 L 155.0,164.0 L 165.0,154.0 L 172.0,144.0 L 177.0,134.0 L 182.0,119.0 L 184.0,109.0 L 184.0,90.0 L 180.0,73.0 L 175.0,61.0 L 167.0,49.0 L 158.0,39.0 L 150.0,32.0 L 136.0,24.0 L 123.0,19.0 L 110.0,16.0 L 89.0,16.0" fill="#FDFDFD"/>
	<path d="M 87.0,8.0 L 111.0,8.0 L 132.0,13.0 L 148.0,21.0 L 159.0,29.0 L 169.0,38.0 L 180.0,53.0 L 187.0,68.0 L 192.0,87.0 L 192.0,110.0 L 189.0,125.0 L 186.0,136.0 L 183.0,141.0 L 175.0,154.0 L 164.0,167.0 L 150.0,178.0 L 134.0,186.0 L 122.0,190.0 L 112.0,192.0 L 89.0,192.0 L 74.0,189.0 L 57.0,182.0 L 46.0,175.0 L 33.0,164.0 L 22.0,150.0 L 14.0,134.0 L 10.0,121.0 L 8.0,111.0 L 8.0,88.0 L 12.0,71.0 L 19.0,55.0 L 28.0,42.0 L 36.0,33.0 L 50.0,22.0 L 66.0,14.0 L 79.0,10.0 L 87.0,8.0 M 89.0,16.0 L 70.0,21.0 L 58.0,27.0 L 49.0,33.0 L 39.0,42.0 L 32.0,50.0 L 24.0,63.0 L 18.0,79.0 L 16.0,89.0 L 16.0,108.0 L 18.0,121.0 L 23.0,135.0 L 31.0,149.0 L 43.0,162.0 L 53.0,170.0 L 65.0,177.0 L 79.0,182.0 L 90.0,184.0 L 109.0,184.0 L 127.0,180.0 L 141.0,174.0 L 155.0,164.0 L 165.0,154.0 L 172.0,144.0 L 177.0,134.0 L 182.0,119.0 L 184.0,109.0 L 184.0,90.0 L 180.0,73.0 L 175.0,61.0 L 167.0,49.0 L 158.0,39.0 L 150.0,32.0 L 136.0,24.0 L 123.0,19.0 L 110.0,16.0 L 89.0,16.0" fill="#B3B3B3"/>
	<path d="M 87.0,8.0 L 111.0,8.0 L 132.0,13.0 L 148.0,21.0 L 159.0,29.0 L 169.0,38.0 L 180.0,53.0 L 187.0,68.0 L 192.0,87.0 L 192.0,110.0 L 189.0,125.0 L 186.0,134.0 L 183.0,135.0 L 178.0,133.0 L 179.0,126.0 L 183.0,109.0 L 183.0,90.0 L 179.0,73.0 L 174.0,61.0 L 166.0,49.0 L 157.0,39.0 L 147.0,31.0 L 132.0,23.0 L 119.0,19.0 L 110.0,17.0 L 89.0,17.0 L 70.0,22.0 L 58.0,28.0 L 54.0,26.0 L 52.0,21.0 L 68.0,13.0 L 87.0,8.0" fill="#090909"/>
</svg>
