<?xml version="1.0" ?>
<svg baseProfile="full" height="600px" version="1.1" viewBox="-19.296000000000003 -19.296000000000003 230.592 230.592" width="600px" xmlns="http://www.w3.org/2000/svg" xmlns:ev="http://www.w3.org/2001/xml-events" xmlns:xlink="http://www.w3.org/1999/xlink">
	<defs/>
	<path d="M 0.0,0.0 L 192.0,0.0 L 192.0,192.0 L 0.0,192.0 L 0.0,0.0" fill="#FDFEFD"/>
	<path d="M 47.0,125.0 L 56.0,125.0 L 62.0,128.0 L 66.0,133.0 L 67.0,135.0 L 67.0,144.0 L 64.0,150.0 L 59.0,154.0 L 56.0,155.0 L 47.0,155.0 L 41.0,151.0 L 38.0,147.0 L 37.0,144.0 L 37.0,135.0 L 41.0,129.0 L 47.0,125.0" fill="#7EB445"/>
	<path d="M 90.0,142.0 L 101.0,142.0 L 107.0,146.0 L 110.0,151.0 L 110.0,161.0 L 106.0,167.0 L 101.0,170.0 L 91.0,170.0 L 85.0,166.0 L 82.0,161.0 L 82.0,150.0 L 87.0,144.0 L 90.0,142.0" fill="#7EB445"/>
	<path d="M 32.0,83.0 L 39.0,83.0 L 46.0,87.0 L 49.0,92.0 L 49.0,99.0 L 45.0,106.0 L 39.0,109.0 L 32.0,109.0 L 26.0,105.0 L 23.0,100.0 L 23.0,93.0 L 26.0,87.0 L 32.0,83.0" fill="#81B649"/>
	<path d="M 136.0,128.0 L 143.0,128.0 L 148.0,131.0 L 152.0,136.0 L 152.0,144.0 L 149.0,149.0 L 143.0,152.0 L 136.0,152.0 L 129.0,146.0 L 128.0,143.0 L 128.0,136.0 L 131.0,131.0 L 136.0,128.0" fill="#7FB546"/>
	<path d="M 153.0,87.0 L 161.0,88.0 L 165.0,93.0 L 165.0,99.0 L 161.0,104.0 L 159.0,105.0 L 153.0,105.0 L 148.0,101.0 L 147.0,93.0 L 151.0,88.0 L 153.0,87.0" fill="#82B74B"/>
	<path d="M 49.0,44.0 L 55.0,44.0 L 60.0,49.0 L 60.0,55.0 L 55.0,60.0 L 49.0,60.0 L 44.0,55.0 L 44.0,49.0 L 49.0,44.0" fill="#80B548"/>
	<path d="M 137.0,46.0 L 143.0,46.0 L 146.0,49.0 L 146.0,55.0 L 143.0,58.0 L 137.0,58.0 L 134.0,55.0 L 134.0,49.0 L 137.0,46.0" fill="#7FB546"/>
	<path d="M 93.0,31.0 L 99.0,31.0 L 101.0,33.0 L 101.0,39.0 L 99.0,41.0 L 93.0,41.0 L 91.0,39.0 L 91.0,33.0 L 93.0,31.0" fill="#7FB546"/>
</svg>
