<?xml version="1.0" ?>
<svg baseProfile="full" height="600px" version="1.1" viewBox="-12.864 -12.864 153.728 153.728" width="600px" xmlns="http://www.w3.org/2000/svg" xmlns:ev="http://www.w3.org/2001/xml-events" xmlns:xlink="http://www.w3.org/1999/xlink">
	<defs/>
	<path d="M 0.0,0.0 L 128.0,0.0 L 128.0,128.0 L 0.0,128.0 L 0.0,0.0" fill="#FCFCFC"/>
	<path d="M 87.0,18.0 L 93.0,20.0 L 105.0,31.0 L 111.0,41.0 L 115.0,51.0 L 116.0,55.0 L 116.0,70.0 L 114.0,79.0 L 112.0,85.0 L 118.0,84.0 L 120.0,89.0 L 120.0,92.0 L 99.0,99.0 L 97.0,99.0 L 95.0,79.0 L 95.0,75.0 L 103.0,75.0 L 103.0,81.0 L 105.0,81.0 L 107.0,69.0 L 107.0,56.0 L 103.0,45.0 L 96.0,34.0 L 87.0,27.0 L 84.0,24.0 L 87.0,18.0" fill="#080808"/>
	<path d="M 16.0,74.0 L 22.0,76.0 L 36.0,84.0 L 37.0,88.0 L 34.0,92.0 L 31.0,92.0 L 36.0,97.0 L 41.0,101.0 L 52.0,106.0 L 56.0,107.0 L 71.0,107.0 L 81.0,104.0 L 88.0,101.0 L 92.0,108.0 L 80.0,114.0 L 70.0,116.0 L 55.0,116.0 L 45.0,113.0 L 34.0,107.0 L 24.0,98.0 L 23.0,97.0 L 22.0,100.0 L 14.0,99.0 L 14.0,88.0 L 16.0,74.0" fill="#080808"/>
	<path d="M 60.0,3.0 L 64.0,5.0 L 75.0,15.0 L 78.0,17.0 L 78.0,19.0 L 62.0,29.0 L 58.0,30.0 L 54.0,24.0 L 57.0,22.0 L 49.0,23.0 L 38.0,29.0 L 31.0,35.0 L 23.0,49.0 L 21.0,56.0 L 20.0,66.0 L 12.0,66.0 L 12.0,56.0 L 16.0,43.0 L 21.0,34.0 L 30.0,24.0 L 39.0,18.0 L 51.0,13.0 L 58.0,11.0 L 56.0,10.0 L 57.0,6.0 L 60.0,3.0" fill="#070707"/>
</svg>
