<?xml version="1.0" ?>
<svg baseProfile="full" height="600px" version="1.1" viewBox="-16.08 -16.08 192.16 192.16" width="600px" xmlns="http://www.w3.org/2000/svg" xmlns:ev="http://www.w3.org/2001/xml-events" xmlns:xlink="http://www.w3.org/1999/xlink">
	<defs/>
	<path d="M 0.0,0.0 L 160.0,0.0 L 160.0,160.0 L 0.0,160.0 L 0.0,0.0" fill="#FDFDFD"/>
	<path d="M 0.0,0.0 L 160.0,0.0 L 160.0,160.0 L 0.0,160.0 L 0.0,0.0 M 71.0,8.0 L 55.0,12.0 L 39.0,20.0 L 26.0,32.0 L 17.0,44.0 L 12.0,55.0 L 9.0,64.0 L 8.0,71.0 L 8.0,86.0 L 11.0,101.0 L 16.0,114.0 L 25.0,127.0 L 34.0,136.0 L 48.0,145.0 L 61.0,150.0 L 74.0,152.0 L 89.0,152.0 L 104.0,148.0 L 114.0,144.0 L 127.0,135.0 L 136.0,126.0 L 145.0,112.0 L 150.0,99.0 L 151.0,94.0 L 151.0,65.0 L 146.0,50.0 L 139.0,38.0 L 130.0,28.0 L 122.0,21.0 L 110.0,14.0 L 95.0,9.0 L 88.0,8.0 L 71.0,8.0" fill="#FDFDFD"/>
	<path d="M 5.0,67.0 L 9.0,67.0 L 9.0,86.0 L 12.0,101.0 L 17.0,114.0 L 26.0,127.0 L 34.0,135.0 L 48.0,144.0 L 61.0,149.0 L 74.0,151.0 L 89.0,151.0 L 104.0,147.0 L 114.0,143.0 L 127.0,134.0 L 135.0,126.0 L 144.0,112.0 L 149.0,99.0 L 151.0,89.0 L 152.0,73.0 L 156.0,73.0 L 156.0,88.0 L 153.0,103.0 L 148.0,115.0 L 141.0,126.0 L 132.0,136.0 L 122.0,144.0 L 106.0,152.0 L 95.0,155.0 L 88.0,156.0 L 70.0,156.0 L 54.0,152.0 L 38.0,144.0 L 28.0,136.0 L 21.0,129.0 L 12.0,115.0 L 7.0,103.0 L 4.0,91.0 L 4.0,68.0 L 5.0,67.0" fill="#6F8196"/>
	<path d="M 70.0,4.0 L 89.0,4.0 L 99.0,6.0 L 115.0,12.0 L 126.0,19.0 L 136.0,28.0 L 144.0,38.0 L 152.0,54.0 L 155.0,64.0 L 156.0,73.0 L 152.0,73.0 L 152.0,89.0 L 151.0,89.0 L 150.0,65.0 L 145.0,50.0 L 138.0,38.0 L 129.0,28.0 L 122.0,22.0 L 110.0,15.0 L 95.0,10.0 L 88.0,9.0 L 71.0,9.0 L 55.0,13.0 L 39.0,21.0 L 26.0,33.0 L 17.0,46.0 L 12.0,58.0 L 9.0,67.0 L 5.0,67.0 L 7.0,57.0 L 12.0,45.0 L 19.0,34.0 L 28.0,24.0 L 38.0,16.0 L 54.0,8.0 L 70.0,4.0" fill="#C8D5DF"/>
</svg>
