<?xml version="1.0" ?>
<svg baseProfile="full" height="600px" version="1.1" viewBox="-12.864 -12.864 153.728 153.728" width="600px" xmlns="http://www.w3.org/2000/svg" xmlns:ev="http://www.w3.org/2001/xml-events" xmlns:xlink="http://www.w3.org/1999/xlink">
	<defs/>
	<path d="M 0.0,0.0 L 128.0,0.0 L 128.0,128.0 L 0.0,128.0 L 0.0,0.0" fill="#FCFCFC"/>
	<path d="M 32.0,23.0 L 40.0,23.0 L 46.0,27.0 L 49.0,32.0 L 49.0,39.0 L 46.0,45.0 L 42.0,48.0 L 39.0,49.0 L 32.0,49.0 L 26.0,45.0 L 23.0,40.0 L 23.0,32.0 L 27.0,26.0 L 32.0,23.0" fill="#060606"/>
	<path d="M 31.0,80.0 L 40.0,80.0 L 46.0,84.0 L 48.0,87.0 L 48.0,96.0 L 44.0,102.0 L 40.0,104.0 L 31.0,104.0 L 26.0,100.0 L 24.0,96.0 L 24.0,87.0 L 28.0,82.0 L 31.0,80.0" fill="#040404"/>
	<path d="M 20.0,52.0 L 27.0,52.0 L 33.0,55.0 L 36.0,60.0 L 36.0,67.0 L 33.0,73.0 L 27.0,76.0 L 20.0,76.0 L 13.0,70.0 L 12.0,67.0 L 12.0,60.0 L 15.0,55.0 L 20.0,52.0" fill="#050505"/>
	<path d="M 61.0,13.0 L 67.0,13.0 L 73.0,17.0 L 75.0,21.0 L 75.0,27.0 L 71.0,33.0 L 67.0,35.0 L 61.0,35.0 L 55.0,31.0 L 53.0,27.0 L 53.0,21.0 L 57.0,15.0 L 61.0,13.0" fill="#0A0A0A"/>
	<path d="M 88.0,27.0 L 96.0,27.0 L 101.0,32.0 L 101.0,40.0 L 96.0,45.0 L 88.0,45.0 L 83.0,40.0 L 83.0,32.0 L 88.0,27.0" fill="#060606"/>
	<path d="M 61.0,98.0 L 67.0,98.0 L 70.0,101.0 L 70.0,107.0 L 67.0,110.0 L 61.0,110.0 L 58.0,107.0 L 58.0,101.0 L 61.0,98.0" fill="#060606"/>
	<path d="M 102.0,60.0 L 107.0,61.0 L 108.0,66.0 L 106.0,68.0 L 101.0,67.0 L 100.0,62.0 L 102.0,60.0" fill="#252525"/>
</svg>
