<?xml version="1.0" ?>
<svg baseProfile="full" height="600px" version="1.1" viewBox="-19.296000000000003 -19.296000000000003 230.592 230.592" width="600px" xmlns="http://www.w3.org/2000/svg" xmlns:ev="http://www.w3.org/2001/xml-events" xmlns:xlink="http://www.w3.org/1999/xlink">
	<defs/>
	<path d="M 0.0,0.0 L 192.0,0.0 L 192.0,192.0 L 0.0,192.0 L 0.0,0.0" fill="#FDFEFD"/>
	<path d="M 91.0,20.0 L 101.0,20.0 L 107.0,24.0 L 112.0,30.0 L 117.0,26.0 L 119.0,25.0 L 129.0,25.0 L 135.0,28.0 L 139.0,33.0 L 140.0,35.0 L 140.0,45.0 L 150.0,45.0 L 156.0,49.0 L 160.0,55.0 L 160.0,66.0 L 159.0,69.0 L 168.0,74.0 L 173.0,80.0 L 173.0,92.0 L 169.0,98.0 L 165.0,101.0 L 163.0,101.0 L 169.0,110.0 L 169.0,119.0 L 165.0,126.0 L 157.0,131.0 L 154.0,132.0 L 156.0,136.0 L 156.0,144.0 L 152.0,151.0 L 147.0,155.0 L 144.0,156.0 L 135.0,156.0 L 131.0,154.0 L 128.0,162.0 L 123.0,167.0 L 118.0,169.0 L 109.0,169.0 L 103.0,165.0 L 101.0,164.0 L 95.0,171.0 L 91.0,173.0 L 80.0,173.0 L 73.0,168.0 L 70.0,161.0 L 70.0,152.0 L 74.0,146.0 L 80.0,142.0 L 91.0,142.0 L 100.0,147.0 L 102.0,142.0 L 110.0,137.0 L 119.0,137.0 L 124.0,140.0 L 125.0,133.0 L 130.0,127.0 L 136.0,124.0 L 139.0,124.0 L 137.0,118.0 L 137.0,110.0 L 141.0,104.0 L 147.0,99.0 L 143.0,94.0 L 142.0,92.0 L 142.0,80.0 L 144.0,77.0 L 138.0,76.0 L 131.0,70.0 L 129.0,66.0 L 129.0,56.0 L 127.0,57.0 L 118.0,56.0 L 110.0,49.0 L 108.0,47.0 L 103.0,51.0 L 100.0,52.0 L 91.0,52.0 L 85.0,48.0 L 81.0,43.0 L 80.0,41.0 L 80.0,31.0 L 84.0,25.0 L 89.0,21.0 L 91.0,20.0" fill="#7EB445"/>
</svg>
