<?xml version="1.0" ?>
<svg baseProfile="full" height="600px" version="1.1" viewBox="-16.08 -16.08 192.16 192.16" width="600px" xmlns="http://www.w3.org/2000/svg" xmlns:ev="http://www.w3.org/2001/xml-events" xmlns:xlink="http://www.w3.org/1999/xlink">
	<defs/>
	<path d="M 0.0,0.0 L 160.0,0.0 L 160.0,160.0 L 0.0,160.0 L 0.0,0.0" fill="#FCFDFD"/>
	<path d="M 75.0,8.0 L 85.0,8.0 L 91.0,12.0 L 95.0,17.0 L 96.0,19.0 L 96.0,28.0 L 93.0,34.0 L 87.0,39.0 L 85.0,40.0 L 75.0,40.0 L 69.0,36.0 L 65.0,31.0 L 64.0,29.0 L 64.0,19.0 L 68.0,13.0 L 73.0,9.0 L 75.0,8.0" fill="#88B4ED"/>
	<path d="M 86.0,119.0 L 96.0,119.0 L 102.0,122.0 L 107.0,128.0 L 108.0,131.0 L 108.0,138.0 L 104.0,146.0 L 98.0,150.0 L 95.0,151.0 L 88.0,151.0 L 82.0,148.0 L 76.0,141.0 L 76.0,129.0 L 81.0,122.0 L 86.0,119.0" fill="#88B4ED"/>
	<path d="M 131.0,58.0 L 139.0,58.0 L 147.0,62.0 L 152.0,70.0 L 152.0,78.0 L 147.0,86.0 L 143.0,89.0 L 140.0,90.0 L 131.0,90.0 L 124.0,86.0 L 120.0,79.0 L 120.0,68.0 L 127.0,60.0 L 131.0,58.0" fill="#88B4ED"/>
	<path d="M 23.0,81.0 L 30.0,81.0 L 38.0,85.0 L 43.0,93.0 L 43.0,101.0 L 40.0,107.0 L 34.0,112.0 L 31.0,113.0 L 21.0,113.0 L 14.0,108.0 L 11.0,102.0 L 11.0,92.0 L 15.0,86.0 L 20.0,82.0 L 23.0,81.0" fill="#88B4ED"/>
	<path d="M 120.0,97.0 L 129.0,97.0 L 137.0,101.0 L 141.0,107.0 L 141.0,119.0 L 134.0,127.0 L 129.0,129.0 L 121.0,129.0 L 113.0,124.0 L 109.0,116.0 L 109.0,109.0 L 113.0,102.0 L 120.0,97.0" fill="#88B4ED"/>
	<path d="M 25.0,41.0 L 32.0,41.0 L 40.0,45.0 L 45.0,53.0 L 45.0,61.0 L 42.0,67.0 L 36.0,72.0 L 33.0,73.0 L 24.0,73.0 L 17.0,69.0 L 13.0,62.0 L 13.0,52.0 L 17.0,46.0 L 22.0,42.0 L 25.0,41.0" fill="#88B4ED"/>
	<path d="M 46.0,113.0 L 57.0,113.0 L 64.0,117.0 L 68.0,124.0 L 68.0,132.0 L 64.0,140.0 L 58.0,144.0 L 46.0,144.0 L 39.0,139.0 L 36.0,133.0 L 36.0,124.0 L 41.0,116.0 L 46.0,113.0" fill="#88B4ED"/>
	<path d="M 114.0,22.0 L 121.0,22.0 L 129.0,27.0 L 133.0,32.0 L 133.0,44.0 L 129.0,50.0 L 125.0,53.0 L 122.0,54.0 L 112.0,54.0 L 106.0,50.0 L 102.0,44.0 L 102.0,32.0 L 109.0,24.0 L 114.0,22.0" fill="#89B5EE"/>
	<path d="M 23.0,81.0 L 30.0,81.0 L 38.0,85.0 L 43.0,93.0 L 43.0,101.0 L 40.0,107.0 L 34.0,112.0 L 31.0,113.0 L 21.0,113.0 L 14.0,108.0 L 11.0,102.0 L 11.0,92.0 L 15.0,86.0 L 20.0,82.0 L 23.0,81.0 M 21.0,86.0 L 15.0,93.0 L 15.0,101.0 L 19.0,107.0 L 23.0,109.0 L 30.0,109.0 L 35.0,106.0 L 38.0,103.0 L 39.0,95.0 L 35.0,88.0 L 32.0,86.0 L 21.0,86.0" fill="#5882BA"/>
	<path d="M 131.0,58.0 L 139.0,58.0 L 147.0,62.0 L 152.0,70.0 L 152.0,78.0 L 147.0,86.0 L 143.0,89.0 L 140.0,90.0 L 131.0,90.0 L 124.0,86.0 L 120.0,79.0 L 120.0,68.0 L 127.0,60.0 L 131.0,58.0 M 133.0,62.0 L 127.0,65.0 L 124.0,70.0 L 124.0,78.0 L 128.0,84.0 L 132.0,86.0 L 139.0,86.0 L 144.0,83.0 L 147.0,79.0 L 147.0,69.0 L 143.0,64.0 L 138.0,62.0 L 133.0,62.0" fill="#5782BA"/>
	<path d="M 75.0,8.0 L 85.0,8.0 L 91.0,12.0 L 95.0,17.0 L 96.0,19.0 L 96.0,28.0 L 93.0,34.0 L 87.0,39.0 L 85.0,40.0 L 75.0,40.0 L 69.0,36.0 L 65.0,31.0 L 64.0,29.0 L 64.0,19.0 L 68.0,13.0 L 73.0,9.0 L 75.0,8.0 M 77.0,12.0 L 72.0,15.0 L 69.0,18.0 L 68.0,28.0 L 74.0,35.0 L 76.0,36.0 L 84.0,36.0 L 91.0,30.0 L 92.0,27.0 L 92.0,20.0 L 86.0,13.0 L 84.0,12.0 L 77.0,12.0" fill="#5781B9"/>
	<path d="M 114.0,22.0 L 121.0,22.0 L 129.0,27.0 L 133.0,32.0 L 133.0,44.0 L 129.0,50.0 L 125.0,53.0 L 122.0,54.0 L 112.0,54.0 L 106.0,50.0 L 102.0,44.0 L 102.0,32.0 L 109.0,24.0 L 114.0,22.0 M 112.0,27.0 L 106.0,33.0 L 106.0,43.0 L 111.0,49.0 L 113.0,50.0 L 121.0,50.0 L 126.0,47.0 L 129.0,43.0 L 129.0,34.0 L 124.0,28.0 L 122.0,27.0 L 112.0,27.0" fill="#5681BA"/>
	<path d="M 120.0,97.0 L 129.0,97.0 L 137.0,101.0 L 141.0,107.0 L 141.0,119.0 L 134.0,127.0 L 129.0,129.0 L 121.0,129.0 L 113.0,124.0 L 109.0,116.0 L 109.0,109.0 L 113.0,102.0 L 120.0,97.0 M 121.0,101.0 L 115.0,106.0 L 113.0,110.0 L 114.0,118.0 L 118.0,123.0 L 123.0,125.0 L 131.0,124.0 L 136.0,119.0 L 137.0,116.0 L 137.0,109.0 L 133.0,103.0 L 128.0,101.0 L 121.0,101.0" fill="#5781B9"/>
	<path d="M 86.0,119.0 L 96.0,119.0 L 102.0,122.0 L 107.0,128.0 L 108.0,131.0 L 108.0,138.0 L 104.0,146.0 L 98.0,150.0 L 95.0,151.0 L 88.0,151.0 L 82.0,148.0 L 76.0,141.0 L 76.0,129.0 L 81.0,122.0 L 86.0,119.0 M 87.0,123.0 L 81.0,128.0 L 80.0,130.0 L 80.0,138.0 L 83.0,143.0 L 86.0,146.0 L 94.0,147.0 L 100.0,144.0 L 104.0,137.0 L 103.0,129.0 L 98.0,124.0 L 95.0,123.0 L 87.0,123.0" fill="#5781BA"/>
	<path d="M 25.0,41.0 L 32.0,41.0 L 40.0,45.0 L 45.0,53.0 L 45.0,61.0 L 42.0,67.0 L 36.0,72.0 L 33.0,73.0 L 24.0,73.0 L 17.0,69.0 L 13.0,62.0 L 13.0,52.0 L 17.0,46.0 L 22.0,42.0 L 25.0,41.0 M 26.0,45.0 L 21.0,48.0 L 17.0,53.0 L 17.0,61.0 L 21.0,67.0 L 25.0,69.0 L 32.0,69.0 L 37.0,66.0 L 40.0,63.0 L 41.0,54.0 L 37.0,48.0 L 32.0,45.0 L 26.0,45.0" fill="#5680B9"/>
	<path d="M 46.0,113.0 L 57.0,113.0 L 64.0,117.0 L 68.0,124.0 L 68.0,132.0 L 64.0,140.0 L 58.0,144.0 L 46.0,144.0 L 39.0,139.0 L 36.0,133.0 L 36.0,124.0 L 41.0,116.0 L 46.0,113.0 M 47.0,117.0 L 42.0,121.0 L 40.0,125.0 L 40.0,132.0 L 44.0,138.0 L 47.0,140.0 L 57.0,140.0 L 62.0,136.0 L 64.0,131.0 L 63.0,123.0 L 58.0,118.0 L 57.0,117.0 L 47.0,117.0" fill="#5680B9"/>
</svg>
