<?xml version="1.0" ?>
<svg baseProfile="full" height="600px" version="1.1" viewBox="-12.864 -12.864 153.728 153.728" width="600px" xmlns="http://www.w3.org/2000/svg" xmlns:ev="http://www.w3.org/2001/xml-events" xmlns:xlink="http://www.w3.org/1999/xlink">
	<defs/>
	<path d="M 0.0,0.0 L 128.0,0.0 L 128.0,128.0 L 0.0,128.0 L 0.0,0.0" fill="#FDFDFD"/>
	<path d="M 99.0,51.0 L 108.0,51.0 L 113.0,54.0 L 117.0,59.0 L 117.0,68.0 L 113.0,74.0 L 108.0,77.0 L 99.0,77.0 L 92.0,71.0 L 91.0,68.0 L 91.0,59.0 L 97.0,52.0 L 99.0,51.0" fill="#050505"/>
	<path d="M 88.0,23.0 L 96.0,23.0 L 102.0,27.0 L 105.0,32.0 L 105.0,39.0 L 102.0,45.0 L 98.0,48.0 L 95.0,49.0 L 88.0,49.0 L 82.0,45.0 L 79.0,40.0 L 79.0,32.0 L 83.0,26.0 L 88.0,23.0" fill="#060606"/>
	<path d="M 89.0,80.0 L 98.0,81.0 L 103.0,86.0 L 104.0,87.0 L 104.0,97.0 L 101.0,102.0 L 97.0,104.0 L 87.0,104.0 L 82.0,100.0 L 80.0,95.0 L 80.0,89.0 L 84.0,83.0 L 89.0,80.0" fill="#060606"/>
	<path d="M 61.0,94.0 L 67.0,94.0 L 73.0,99.0 L 74.0,101.0 L 74.0,107.0 L 69.0,113.0 L 67.0,114.0 L 61.0,114.0 L 55.0,109.0 L 54.0,107.0 L 54.0,101.0 L 59.0,95.0 L 61.0,94.0" fill="#060606"/>
	<path d="M 33.0,85.0 L 40.0,86.0 L 43.0,89.0 L 42.0,96.0 L 38.0,99.0 L 33.0,99.0 L 29.0,94.0 L 29.0,89.0 L 33.0,85.0" fill="#0E0E0E"/>
	<path d="M 22.0,61.0 L 27.0,62.0 L 26.0,67.0 L 21.0,66.0 L 22.0,61.0" fill="#030303"/>
</svg>
