<?xml version="1.0" ?>
<svg baseProfile="full" height="600px" version="1.1" viewBox="-12.06 -12.06 144.12 144.12" width="600px" xmlns="http://www.w3.org/2000/svg" xmlns:ev="http://www.w3.org/2001/xml-events" xmlns:xlink="http://www.w3.org/1999/xlink">
	<defs/>
	<path d="M 0.0,0.0 L 120.0,0.0 L 120.0,120.0 L 0.0,120.0 L 0.0,0.0" fill="#FCFCFC"/>
	<path d="M 94.0,82.0 L 98.0,83.0 L 99.0,84.0 L 99.0,89.0 L 89.0,99.0 L 73.0,107.0 L 68.0,108.0 L 51.0,109.0 L 47.0,115.0 L 42.0,115.0 L 33.0,104.0 L 28.0,97.0 L 29.0,91.0 L 31.0,90.0 L 43.0,89.0 L 53.0,89.0 L 56.0,91.0 L 56.0,98.0 L 55.0,100.0 L 70.0,98.0 L 82.0,93.0 L 90.0,86.0 L 94.0,82.0" fill="#080808"/>
	<path d="M 36.0,14.0 L 45.0,14.0 L 48.0,17.0 L 47.0,22.0 L 38.0,39.0 L 32.0,40.0 L 28.0,37.0 L 22.0,49.0 L 21.0,54.0 L 21.0,66.0 L 24.0,76.0 L 23.0,80.0 L 22.0,81.0 L 17.0,81.0 L 14.0,75.0 L 12.0,69.0 L 12.0,51.0 L 16.0,40.0 L 22.0,30.0 L 21.0,26.0 L 19.0,23.0 L 20.0,17.0 L 30.0,15.0 L 36.0,14.0" fill="#070707"/>
	<path d="M 64.0,12.0 L 75.0,14.0 L 89.0,21.0 L 99.0,31.0 L 105.0,42.0 L 114.0,43.0 L 116.0,45.0 L 115.0,53.0 L 108.0,69.0 L 101.0,70.0 L 94.0,60.0 L 89.0,51.0 L 90.0,46.0 L 92.0,44.0 L 96.0,44.0 L 90.0,34.0 L 82.0,27.0 L 71.0,22.0 L 64.0,21.0 L 61.0,18.0 L 62.0,13.0 L 64.0,12.0" fill="#070707"/>
</svg>
