<?xml version="1.0" ?>
<svg baseProfile="full" height="600px" version="1.1" viewBox="-16.08 -16.08 192.16 192.16" width="600px" xmlns="http://www.w3.org/2000/svg" xmlns:ev="http://www.w3.org/2001/xml-events" xmlns:xlink="http://www.w3.org/1999/xlink">
	<defs/>
	<path d="M 0.0,0.0 L 160.0,0.0 L 160.0,160.0 L 0.0,160.0 L 0.0,0.0" fill="#FDFDFE"/>
	<path d="M 116.0,27.0 L 124.0,27.0 L 130.0,31.0 L 133.0,36.0 L 133.0,43.0 L 130.0,49.0 L 125.0,53.0 L 114.0,53.0 L 109.0,49.0 L 107.0,45.0 L 107.0,35.0 L 112.0,29.0 L 116.0,27.0" fill="#88B4ED"/>
	<path d="M 132.0,71.0 L 139.0,71.0 L 143.0,73.0 L 145.0,76.0 L 145.0,83.0 L 143.0,87.0 L 139.0,89.0 L 132.0,89.0 L 128.0,85.0 L 127.0,77.0 L 132.0,71.0" fill="#87B3EC"/>
	<path d="M 116.0,27.0 L 124.0,27.0 L 130.0,31.0 L 133.0,36.0 L 133.0,43.0 L 130.0,49.0 L 125.0,53.0 L 114.0,53.0 L 109.0,49.0 L 107.0,45.0 L 107.0,35.0 L 112.0,29.0 L 116.0,27.0 M 115.0,31.0 L 110.0,37.0 L 110.0,44.0 L 114.0,49.0 L 116.0,50.0 L 123.0,50.0 L 128.0,46.0 L 129.0,44.0 L 129.0,36.0 L 124.0,31.0 L 115.0,31.0" fill="#5983BB"/>
	<path d="M 132.0,71.0 L 139.0,71.0 L 143.0,73.0 L 145.0,76.0 L 145.0,83.0 L 143.0,87.0 L 139.0,89.0 L 132.0,89.0 L 128.0,85.0 L 127.0,77.0 L 132.0,71.0 M 132.0,74.0 L 130.0,76.0 L 130.0,84.0 L 134.0,87.0 L 140.0,86.0 L 143.0,82.0 L 143.0,77.0 L 140.0,74.0 L 132.0,74.0" fill="#5781B9"/>
	<path d="M 118.0,115.0 L 123.0,116.0 L 124.0,117.0 L 124.0,122.0 L 122.0,124.0 L 117.0,124.0 L 115.0,122.0 L 116.0,116.0 L 118.0,115.0" fill="#6D93C6"/>
	<path d="M 77.0,132.0 L 83.0,132.0 L 84.0,133.0 L 84.0,139.0 L 83.0,140.0 L 77.0,140.0 L 76.0,139.0 L 76.0,133.0 L 77.0,132.0" fill="#76A0D8"/>
	<path d="M 132.0,71.0 L 139.0,73.0 L 139.0,74.0 L 132.0,75.0 L 130.0,82.0 L 127.0,82.0 L 128.0,75.0 L 132.0,71.0" fill="#638DC4"/>
	<path d="M 118.0,117.0 L 123.0,118.0 L 122.0,122.0 L 118.0,123.0 L 117.0,118.0 L 118.0,117.0" fill="#87B3EC"/>
</svg>
