<?xml version="1.0" ?>
<svg baseProfile="full" height="600px" version="1.1" viewBox="-20.1 -20.1 240.2 240.2" width="600px" xmlns="http://www.w3.org/2000/svg" xmlns:ev="http://www.w3.org/2001/xml-events" xmlns:xlink="http://www.w3.org/1999/xlink">
	<defs/>
	<path d="M 0.0,0.0 L 200.0,0.0 L 200.0,200.0 L 0.0,200.0 L 0.0,0.0" fill="#FDFDFD"/>
	<path d="M 46.0,131.0 L 57.0,131.0 L 63.0,134.0 L 68.0,140.0 L 69.0,142.0 L 69.0,154.0 L 65.0,160.0 L 60.0,164.0 L 56.0,166.0 L 48.0,166.0 L 42.0,163.0 L 37.0,158.0 L 34.0,151.0 L 34.0,144.0 L 38.0,137.0 L 44.0,132.0 L 46.0,131.0" fill="#0C0C0C"/>
	<path d="M 94.0,151.0 L 106.0,151.0 L 112.0,155.0 L 116.0,160.0 L 117.0,162.0 L 117.0,174.0 L 113.0,180.0 L 108.0,184.0 L 106.0,185.0 L 94.0,185.0 L 88.0,181.0 L 84.0,176.0 L 83.0,174.0 L 83.0,162.0 L 87.0,156.0 L 92.0,152.0 L 94.0,151.0" fill="#090909"/>
	<path d="M 28.0,87.0 L 35.0,87.0 L 41.0,90.0 L 45.0,96.0 L 45.0,103.0 L 42.0,109.0 L 38.0,112.0 L 35.0,113.0 L 28.0,113.0 L 22.0,109.0 L 19.0,103.0 L 19.0,96.0 L 23.0,90.0 L 28.0,87.0" fill="#090909"/>
	<path d="M 144.0,135.0 L 151.0,135.0 L 157.0,138.0 L 161.0,144.0 L 161.0,151.0 L 158.0,157.0 L 154.0,160.0 L 151.0,161.0 L 144.0,161.0 L 138.0,157.0 L 135.0,151.0 L 135.0,144.0 L 139.0,138.0 L 144.0,135.0" fill="#0C0C0C"/>
	<path d="M 47.0,138.0 L 56.0,138.0 L 61.0,142.0 L 62.0,144.0 L 62.0,152.0 L 57.0,158.0 L 47.0,158.0 L 42.0,153.0 L 42.0,143.0 L 47.0,138.0" fill="#FAFAFA"/>
	<path d="M 95.0,158.0 L 104.0,158.0 L 110.0,163.0 L 110.0,172.0 L 106.0,177.0 L 104.0,178.0 L 95.0,178.0 L 90.0,172.0 L 90.0,163.0 L 95.0,158.0" fill="#FAFAFA"/>
	<path d="M 29.0,92.0 L 36.0,93.0 L 40.0,97.0 L 39.0,104.0 L 36.0,107.0 L 29.0,108.0 L 25.0,104.0 L 24.0,97.0 L 29.0,92.0" fill="#F0F0F0"/>
	<path d="M 146.0,140.0 L 152.0,141.0 L 156.0,145.0 L 156.0,151.0 L 151.0,156.0 L 145.0,156.0 L 140.0,150.0 L 141.0,144.0 L 146.0,140.0" fill="#F1F1F1"/>
	<path d="M 48.0,45.0 L 55.0,45.0 L 59.0,49.0 L 59.0,55.0 L 55.0,59.0 L 49.0,59.0 L 45.0,55.0 L 45.0,48.0 L 48.0,45.0" fill="#141414"/>
	<path d="M 165.0,93.0 L 171.0,93.0 L 175.0,97.0 L 175.0,103.0 L 171.0,107.0 L 165.0,107.0 L 161.0,103.0 L 161.0,97.0 L 165.0,93.0" fill="#161616"/>
	<path d="M 145.0,46.0 L 151.0,46.0 L 154.0,49.0 L 154.0,55.0 L 151.0,58.0 L 145.0,58.0 L 142.0,55.0 L 142.0,49.0 L 145.0,46.0" fill="#0C0C0C"/>
	<path d="M 97.0,26.0 L 103.0,26.0 L 106.0,29.0 L 106.0,35.0 L 103.0,38.0 L 97.0,38.0 L 94.0,35.0 L 94.0,29.0 L 97.0,26.0" fill="#121212"/>
	<path d="M 49.0,48.0 L 55.0,48.0 L 56.0,54.0 L 54.0,56.0 L 48.0,55.0 L 48.0,49.0 L 49.0,48.0" fill="#F5F5F5"/>
	<path d="M 165.0,96.0 L 170.0,96.0 L 172.0,98.0 L 171.0,103.0 L 166.0,104.0 L 164.0,102.0 L 165.0,96.0" fill="#FAFAFA"/>
	<path d="M 147.0,48.0 L 151.0,49.0 L 152.0,54.0 L 151.0,55.0 L 146.0,55.0 L 145.0,54.0 L 145.0,49.0 L 147.0,48.0" fill="#E3E3E3"/>
	<path d="M 99.0,28.0 L 103.0,29.0 L 103.0,35.0 L 97.0,35.0 L 96.0,31.0 L 99.0,28.0" fill="#E9E9E9"/>
	<path d="M 145.0,46.0 L 147.0,47.0 L 147.0,49.0 L 145.0,49.0 L 146.0,54.0 L 149.0,56.0 L 147.0,56.0 L 147.0,58.0 L 143.0,56.0 L 142.0,55.0 L 142.0,49.0 L 145.0,46.0" fill="#282828"/>
	<path d="M 103.0,30.0 L 104.0,33.0 L 106.0,33.0 L 104.0,37.0 L 101.0,38.0 L 101.0,36.0 L 98.0,35.0 L 103.0,35.0 L 103.0,30.0" fill="#373737"/>
</svg>
