<?xml version="1.0" ?>
<svg baseProfile="full" height="600px" version="1.1" viewBox="-20.1 -20.1 240.2 240.2" width="600px" xmlns="http://www.w3.org/2000/svg" xmlns:ev="http://www.w3.org/2001/xml-events" xmlns:xlink="http://www.w3.org/1999/xlink">
	<defs/>
	<path d="M 0.0,0.0 L 200.0,0.0 L 200.0,200.0 L 0.0,200.0 L 0.0,0.0" fill="#FCFCFC"/>
	<path d="M 178.0,89.0 L 183.0,90.0 L 184.0,91.0 L 184.0,110.0 L 181.0,125.0 L 174.0,141.0 L 165.0,154.0 L 153.0,166.0 L 139.0,175.0 L 125.0,181.0 L 108.0,184.0 L 93.0,184.0 L 99.0,194.0 L 98.0,199.0 L 93.0,200.0 L 85.0,189.0 L 78.0,178.0 L 80.0,174.0 L 92.0,163.0 L 98.0,158.0 L 103.0,158.0 L 104.0,159.0 L 104.0,164.0 L 95.0,173.0 L 92.0,175.0 L 107.0,175.0 L 120.0,173.0 L 135.0,167.0 L 146.0,160.0 L 157.0,150.0 L 164.0,140.0 L 170.0,128.0 L 174.0,115.0 L 175.0,109.0 L 176.0,90.0 L 178.0,89.0" fill="#070707"/>
	<path d="M 30.0,43.0 L 45.0,43.0 L 48.0,55.0 L 50.0,65.0 L 50.0,72.0 L 49.0,73.0 L 43.0,73.0 L 39.0,58.0 L 37.0,58.0 L 29.0,74.0 L 26.0,84.0 L 25.0,91.0 L 25.0,110.0 L 28.0,122.0 L 33.0,135.0 L 40.0,146.0 L 50.0,157.0 L 60.0,164.0 L 70.0,170.0 L 70.0,175.0 L 69.0,176.0 L 63.0,176.0 L 50.0,168.0 L 40.0,159.0 L 31.0,149.0 L 23.0,135.0 L 18.0,121.0 L 16.0,109.0 L 16.0,88.0 L 20.0,72.0 L 28.0,56.0 L 30.0,52.0 L 17.0,52.0 L 15.0,50.0 L 16.0,46.0 L 18.0,44.0 L 30.0,43.0" fill="#080808"/>
	<path d="M 88.0,16.0 L 109.0,16.0 L 124.0,19.0 L 139.0,25.0 L 150.0,32.0 L 160.0,41.0 L 169.0,51.0 L 176.0,63.0 L 181.0,54.0 L 182.0,53.0 L 187.0,53.0 L 188.0,54.0 L 187.0,62.0 L 178.0,81.0 L 167.0,78.0 L 152.0,73.0 L 150.0,71.0 L 150.0,66.0 L 151.0,65.0 L 159.0,66.0 L 169.0,69.0 L 161.0,55.0 L 150.0,43.0 L 140.0,36.0 L 128.0,30.0 L 115.0,26.0 L 110.0,25.0 L 91.0,25.0 L 77.0,28.0 L 63.0,34.0 L 57.0,38.0 L 51.0,38.0 L 50.0,33.0 L 54.0,29.0 L 70.0,21.0 L 83.0,17.0 L 88.0,16.0" fill="#070707"/>
</svg>
