<?xml version="1.0" ?>
<svg baseProfile="full" height="600px" version="1.1" viewBox="-16.08 -16.08 192.16 192.16" width="600px" xmlns="http://www.w3.org/2000/svg" xmlns:ev="http://www.w3.org/2001/xml-events" xmlns:xlink="http://www.w3.org/1999/xlink">
	<defs/>
	<path d="M 0.0,0.0 L 160.0,0.0 L 160.0,160.0 L 0.0,160.0 L 0.0,0.0" fill="#FDFDFE"/>
	<path d="M 76.0,15.0 L 84.0,15.0 L 89.0,20.0 L 89.0,27.0 L 85.0,32.0 L 83.0,33.0 L 77.0,33.0 L 71.0,28.0 L 71.0,20.0 L 76.0,15.0" fill="#87B3EC"/>
	<path d="M 76.0,15.0 L 84.0,15.0 L 89.0,20.0 L 89.0,27.0 L 85.0,32.0 L 83.0,33.0 L 77.0,33.0 L 71.0,28.0 L 71.0,20.0 L 76.0,15.0 M 78.0,17.0 L 73.0,22.0 L 74.0,28.0 L 76.0,30.0 L 84.0,30.0 L 87.0,26.0 L 86.0,20.0 L 82.0,17.0 L 78.0,17.0" fill="#5C85BC"/>
	<path d="M 38.0,36.0 L 43.0,36.0 L 45.0,38.0 L 44.0,44.0 L 38.0,45.0 L 36.0,43.0 L 36.0,38.0 L 38.0,36.0" fill="#6D93C6"/>
	<path d="M 39.0,37.0 L 43.0,38.0 L 43.0,43.0 L 38.0,43.0 L 37.0,39.0 L 39.0,37.0" fill="#87B3EC"/>
	<path d="M 87.0,22.0 L 89.0,22.0 L 88.0,29.0 L 85.0,32.0 L 78.0,32.0 L 82.0,30.0 L 86.0,26.0 L 87.0,22.0" fill="#547EB8"/>
	<path d="M 71.0,26.0 L 74.0,26.0 L 76.0,29.0 L 82.0,30.0 L 83.0,33.0 L 77.0,33.0 L 71.0,28.0 L 71.0,26.0" fill="#638BC1"/>
</svg>
