<?xml version="1.0" ?>
<svg baseProfile="full" height="600px" version="1.1" viewBox="-16.08 -16.08 192.16 192.16" width="600px" xmlns="http://www.w3.org/2000/svg" xmlns:ev="http://www.w3.org/2001/xml-events" xmlns:xlink="http://www.w3.org/1999/xlink">
	<defs/>
	<path d="M 0.0,0.0 L 160.0,0.0 L 160.0,160.0 L 0.0,160.0 L 0.0,0.0" fill="#FCFDFC"/>
	<path d="M 4.0,19.0 L 47.0,19.0 L 53.0,56.0 L 53.0,61.0 L 45.0,55.0 L 37.0,48.0 L 34.0,49.0 L 27.0,63.0 L 25.0,71.0 L 25.0,86.0 L 27.0,96.0 L 28.0,101.0 L 18.0,102.0 L 7.0,102.0 L 4.0,91.0 L 4.0,70.0 L 8.0,54.0 L 16.0,38.0 L 19.0,33.0 L 6.0,22.0 L 4.0,21.0 L 4.0,19.0" fill="#B6DDBA"/>
	<path d="M 57.0,107.0 L 61.0,108.0 L 52.0,118.0 L 48.0,123.0 L 49.0,126.0 L 63.0,133.0 L 71.0,135.0 L 89.0,135.0 L 101.0,132.0 L 102.0,139.0 L 102.0,153.0 L 90.0,156.0 L 69.0,156.0 L 54.0,152.0 L 38.0,144.0 L 33.0,141.0 L 22.0,154.0 L 21.0,156.0 L 19.0,156.0 L 19.0,113.0 L 45.0,109.0 L 57.0,107.0" fill="#B6DDBA"/>
	<path d="M 142.0,58.0 L 153.0,58.0 L 156.0,69.0 L 156.0,90.0 L 152.0,106.0 L 144.0,122.0 L 141.0,127.0 L 154.0,138.0 L 156.0,139.0 L 156.0,141.0 L 113.0,141.0 L 107.0,103.0 L 108.0,99.0 L 118.0,108.0 L 123.0,112.0 L 126.0,111.0 L 132.0,99.0 L 134.0,93.0 L 135.0,85.0 L 135.0,71.0 L 132.0,59.0 L 142.0,58.0" fill="#B6DDBA"/>
	<path d="M 70.0,4.0 L 91.0,4.0 L 108.0,9.0 L 122.0,16.0 L 127.0,19.0 L 138.0,6.0 L 139.0,4.0 L 141.0,4.0 L 141.0,47.0 L 102.0,53.0 L 99.0,52.0 L 108.0,42.0 L 112.0,37.0 L 111.0,34.0 L 99.0,28.0 L 88.0,25.0 L 71.0,25.0 L 59.0,28.0 L 58.0,19.0 L 58.0,7.0 L 70.0,4.0" fill="#B6DDBA"/>
	<path d="M 4.0,19.0 L 47.0,19.0 L 53.0,56.0 L 53.0,61.0 L 45.0,55.0 L 37.0,48.0 L 34.0,49.0 L 27.0,63.0 L 25.0,71.0 L 25.0,86.0 L 27.0,96.0 L 28.0,101.0 L 18.0,102.0 L 7.0,102.0 L 4.0,91.0 L 4.0,70.0 L 8.0,54.0 L 16.0,38.0 L 19.0,33.0 L 6.0,22.0 L 4.0,21.0 L 4.0,19.0 M 15.0,23.0 L 19.0,28.0 L 24.0,32.0 L 22.0,37.0 L 15.0,48.0 L 10.0,61.0 L 8.0,71.0 L 8.0,88.0 L 10.0,98.0 L 17.0,98.0 L 22.0,97.0 L 21.0,87.0 L 21.0,70.0 L 25.0,57.0 L 31.0,46.0 L 34.0,42.0 L 38.0,44.0 L 46.0,50.0 L 47.0,50.0 L 46.0,38.0 L 43.0,23.0 L 15.0,23.0" fill="#66A17D"/>
	<path d="M 70.0,4.0 L 91.0,4.0 L 108.0,9.0 L 122.0,16.0 L 127.0,19.0 L 138.0,6.0 L 139.0,4.0 L 141.0,4.0 L 141.0,47.0 L 102.0,53.0 L 99.0,52.0 L 108.0,42.0 L 112.0,37.0 L 111.0,34.0 L 99.0,28.0 L 88.0,25.0 L 71.0,25.0 L 59.0,28.0 L 58.0,19.0 L 58.0,7.0 L 70.0,4.0 M 71.0,8.0 L 62.0,10.0 L 62.0,18.0 L 63.0,22.0 L 74.0,21.0 L 89.0,21.0 L 103.0,25.0 L 114.0,31.0 L 118.0,34.0 L 116.0,38.0 L 110.0,46.0 L 114.0,47.0 L 137.0,43.0 L 137.0,15.0 L 131.0,20.0 L 128.0,24.0 L 123.0,22.0 L 112.0,15.0 L 95.0,9.0 L 88.0,8.0 L 71.0,8.0" fill="#65A17C"/>
	<path d="M 142.0,58.0 L 153.0,58.0 L 156.0,69.0 L 156.0,90.0 L 152.0,106.0 L 144.0,122.0 L 141.0,127.0 L 154.0,138.0 L 156.0,139.0 L 156.0,141.0 L 113.0,141.0 L 107.0,103.0 L 108.0,99.0 L 118.0,108.0 L 123.0,112.0 L 126.0,111.0 L 132.0,99.0 L 134.0,93.0 L 135.0,85.0 L 135.0,71.0 L 132.0,59.0 L 142.0,58.0 M 145.0,62.0 L 138.0,63.0 L 139.0,73.0 L 139.0,86.0 L 137.0,98.0 L 129.0,114.0 L 126.0,118.0 L 122.0,116.0 L 114.0,110.0 L 113.0,110.0 L 114.0,122.0 L 117.0,137.0 L 145.0,137.0 L 145.0,135.0 L 136.0,128.0 L 138.0,123.0 L 145.0,112.0 L 150.0,98.0 L 152.0,89.0 L 152.0,74.0 L 150.0,62.0 L 145.0,62.0" fill="#66A17C"/>
	<path d="M 57.0,107.0 L 61.0,108.0 L 52.0,118.0 L 48.0,123.0 L 49.0,126.0 L 63.0,133.0 L 71.0,135.0 L 89.0,135.0 L 101.0,132.0 L 102.0,139.0 L 102.0,153.0 L 90.0,156.0 L 69.0,156.0 L 54.0,152.0 L 38.0,144.0 L 33.0,141.0 L 22.0,154.0 L 21.0,156.0 L 19.0,156.0 L 19.0,113.0 L 45.0,109.0 L 57.0,107.0 M 46.0,113.0 L 25.0,116.0 L 23.0,117.0 L 23.0,145.0 L 28.0,141.0 L 32.0,136.0 L 37.0,138.0 L 50.0,146.0 L 65.0,151.0 L 72.0,152.0 L 89.0,152.0 L 98.0,150.0 L 98.0,140.0 L 97.0,138.0 L 86.0,139.0 L 74.0,139.0 L 62.0,137.0 L 46.0,129.0 L 42.0,126.0 L 44.0,122.0 L 50.0,115.0 L 50.0,113.0 L 46.0,113.0" fill="#66A17C"/>
</svg>
