<?xml version="1.0" ?>
<svg baseProfile="full" height="600px" version="1.1" viewBox="-16.08 -16.08 192.16 192.16" width="600px" xmlns="http://www.w3.org/2000/svg" xmlns:ev="http://www.w3.org/2001/xml-events" xmlns:xlink="http://www.w3.org/1999/xlink">
	<defs/>
	<path d="M 0.0,0.0 L 160.0,0.0 L 160.0,160.0 L 0.0,160.0 L 0.0,0.0" fill="#FCFDFD"/>
	<path d="M 41.0,10.0 L 74.0,10.0 L 68.0,18.0 L 58.0,29.0 L 54.0,34.0 L 51.0,33.0 L 45.0,37.0 L 39.0,42.0 L 32.0,52.0 L 27.0,63.0 L 24.0,79.0 L 15.0,77.0 L 5.0,74.0 L 4.0,70.0 L 8.0,54.0 L 16.0,38.0 L 24.0,28.0 L 35.0,18.0 L 40.0,15.0 L 42.0,15.0 L 41.0,10.0" fill="#B6DDBA"/>
	<path d="M 86.0,5.0 L 96.0,5.0 L 113.0,11.0 L 125.0,18.0 L 137.0,29.0 L 146.0,41.0 L 150.0,41.0 L 150.0,74.0 L 142.0,68.0 L 131.0,58.0 L 126.0,54.0 L 126.0,52.0 L 128.0,52.0 L 119.0,40.0 L 108.0,32.0 L 96.0,27.0 L 81.0,24.0 L 83.0,15.0 L 86.0,5.0" fill="#B6DDBA"/>
	<path d="M 136.0,81.0 L 152.0,85.0 L 155.0,86.0 L 155.0,95.0 L 151.0,108.0 L 144.0,122.0 L 136.0,132.0 L 129.0,139.0 L 120.0,145.0 L 118.0,145.0 L 119.0,150.0 L 86.0,150.0 L 92.0,142.0 L 104.0,129.0 L 106.0,126.0 L 109.0,127.0 L 120.0,119.0 L 128.0,108.0 L 133.0,96.0 L 136.0,81.0" fill="#B6DDBA"/>
	<path d="M 10.0,86.0 L 18.0,92.0 L 31.0,104.0 L 34.0,106.0 L 33.0,109.0 L 41.0,120.0 L 52.0,128.0 L 63.0,133.0 L 79.0,136.0 L 76.0,147.0 L 73.0,155.0 L 64.0,155.0 L 49.0,150.0 L 38.0,144.0 L 28.0,136.0 L 18.0,125.0 L 14.0,119.0 L 10.0,119.0 L 10.0,86.0" fill="#B6DDBA"/>
	<path d="M 41.0,10.0 L 74.0,10.0 L 68.0,18.0 L 58.0,29.0 L 54.0,34.0 L 51.0,33.0 L 45.0,37.0 L 39.0,42.0 L 32.0,52.0 L 27.0,63.0 L 24.0,79.0 L 15.0,77.0 L 5.0,74.0 L 4.0,70.0 L 8.0,54.0 L 16.0,38.0 L 24.0,28.0 L 35.0,18.0 L 40.0,15.0 L 42.0,15.0 L 41.0,10.0 M 47.0,14.0 L 43.0,18.0 L 32.0,26.0 L 24.0,34.0 L 15.0,48.0 L 10.0,61.0 L 9.0,71.0 L 20.0,73.0 L 25.0,57.0 L 31.0,46.0 L 40.0,36.0 L 49.0,29.0 L 56.0,26.0 L 65.0,15.0 L 65.0,14.0 L 47.0,14.0" fill="#65A17C"/>
	<path d="M 86.0,5.0 L 96.0,5.0 L 113.0,11.0 L 125.0,18.0 L 137.0,29.0 L 146.0,41.0 L 150.0,41.0 L 150.0,74.0 L 142.0,68.0 L 131.0,58.0 L 126.0,54.0 L 126.0,52.0 L 128.0,52.0 L 119.0,40.0 L 108.0,32.0 L 96.0,27.0 L 81.0,24.0 L 83.0,15.0 L 86.0,5.0 M 90.0,9.0 L 87.0,16.0 L 87.0,20.0 L 105.0,26.0 L 117.0,33.0 L 127.0,43.0 L 132.0,51.0 L 134.0,56.0 L 145.0,65.0 L 146.0,65.0 L 146.0,47.0 L 142.0,43.0 L 134.0,32.0 L 125.0,23.0 L 112.0,15.0 L 95.0,9.0 L 90.0,9.0" fill="#66A17C"/>
	<path d="M 10.0,86.0 L 18.0,92.0 L 31.0,104.0 L 34.0,106.0 L 33.0,109.0 L 41.0,120.0 L 52.0,128.0 L 63.0,133.0 L 79.0,136.0 L 76.0,147.0 L 73.0,155.0 L 64.0,155.0 L 49.0,150.0 L 38.0,144.0 L 28.0,136.0 L 18.0,125.0 L 14.0,119.0 L 10.0,119.0 L 10.0,86.0 M 14.0,95.0 L 14.0,113.0 L 18.0,117.0 L 26.0,128.0 L 35.0,137.0 L 48.0,145.0 L 61.0,150.0 L 70.0,151.0 L 73.0,144.0 L 73.0,139.0 L 62.0,137.0 L 53.0,133.0 L 42.0,126.0 L 33.0,117.0 L 27.0,108.0 L 24.0,103.0 L 15.0,95.0 L 14.0,95.0" fill="#65A17C"/>
	<path d="M 136.0,81.0 L 152.0,85.0 L 155.0,86.0 L 155.0,95.0 L 151.0,108.0 L 144.0,122.0 L 136.0,132.0 L 129.0,139.0 L 120.0,145.0 L 118.0,145.0 L 119.0,150.0 L 86.0,150.0 L 92.0,142.0 L 104.0,129.0 L 106.0,126.0 L 109.0,127.0 L 120.0,119.0 L 128.0,108.0 L 133.0,96.0 L 136.0,81.0 M 140.0,87.0 L 138.0,93.0 L 135.0,102.0 L 129.0,114.0 L 120.0,124.0 L 111.0,131.0 L 103.0,136.0 L 95.0,145.0 L 95.0,146.0 L 113.0,146.0 L 117.0,142.0 L 128.0,134.0 L 136.0,126.0 L 145.0,112.0 L 150.0,99.0 L 151.0,89.0 L 140.0,87.0" fill="#65A17C"/>
</svg>
