<?xml version="1.0" ?>
<svg baseProfile="full" height="600px" version="1.1" viewBox="-19.296000000000003 -19.296000000000003 230.592 230.592" width="600px" xmlns="http://www.w3.org/2000/svg" xmlns:ev="http://www.w3.org/2001/xml-events" xmlns:xlink="http://www.w3.org/1999/xlink">
	<defs/>
	<path d="M 0.0,0.0 L 192.0,0.0 L 192.0,192.0 L 0.0,192.0 L 0.0,0.0" fill="#FDFEFD"/>
	<path d="M 133.0,35.0 L 146.0,35.0 L 152.0,39.0 L 156.0,43.0 L 157.0,46.0 L 157.0,58.0 L 153.0,64.0 L 148.0,68.0 L 146.0,69.0 L 134.0,69.0 L 128.0,65.0 L 124.0,60.0 L 122.0,55.0 L 122.0,48.0 L 126.0,41.0 L 133.0,35.0" fill="#7EB444"/>
	<path d="M 152.0,80.0 L 160.0,80.0 L 166.0,83.0 L 171.0,88.0 L 172.0,91.0 L 172.0,100.0 L 168.0,108.0 L 160.0,112.0 L 151.0,112.0 L 144.0,108.0 L 140.0,100.0 L 140.0,92.0 L 144.0,84.0 L 152.0,80.0" fill="#7DB444"/>
	<path d="M 135.0,127.0 L 144.0,127.0 L 150.0,131.0 L 153.0,135.0 L 153.0,145.0 L 148.0,151.0 L 145.0,153.0 L 136.0,153.0 L 131.0,150.0 L 127.0,144.0 L 127.0,135.0 L 132.0,129.0 L 135.0,127.0" fill="#7EB445"/>
	<path d="M 92.0,147.0 L 99.0,147.0 L 105.0,152.0 L 105.0,159.0 L 101.0,164.0 L 99.0,165.0 L 92.0,165.0 L 87.0,159.0 L 87.0,152.0 L 92.0,147.0" fill="#7FB546"/>
	<path d="M 49.0,136.0 L 55.0,136.0 L 56.0,137.0 L 56.0,143.0 L 55.0,144.0 L 49.0,144.0 L 48.0,143.0 L 48.0,137.0 L 49.0,136.0" fill="#81B649"/>
</svg>
