<?xml version="1.0" ?>
<svg baseProfile="full" height="600px" version="1.1" viewBox="-20.1 -20.1 240.2 240.2" width="600px" xmlns="http://www.w3.org/2000/svg" xmlns:ev="http://www.w3.org/2001/xml-events" xmlns:xlink="http://www.w3.org/1999/xlink">
	<defs/>
	<path d="M 0.0,0.0 L 200.0,0.0 L 200.0,200.0 L 0.0,200.0 L 0.0,0.0" fill="#FDFDFD"/>
	<path d="M 95.0,149.0 L 105.0,149.0 L 113.0,154.0 L 117.0,159.0 L 119.0,163.0 L 119.0,173.0 L 114.0,181.0 L 109.0,185.0 L 105.0,187.0 L 95.0,187.0 L 87.0,182.0 L 83.0,177.0 L 81.0,172.0 L 81.0,163.0 L 86.0,155.0 L 91.0,151.0 L 95.0,149.0" fill="#0B0B0B"/>
	<path d="M 142.0,131.0 L 153.0,131.0 L 159.0,134.0 L 164.0,140.0 L 165.0,142.0 L 165.0,154.0 L 161.0,160.0 L 156.0,164.0 L 154.0,165.0 L 142.0,165.0 L 136.0,161.0 L 132.0,156.0 L 131.0,153.0 L 131.0,142.0 L 135.0,136.0 L 140.0,132.0 L 142.0,131.0" fill="#080808"/>
	<path d="M 48.0,135.0 L 56.0,135.0 L 62.0,139.0 L 65.0,144.0 L 65.0,151.0 L 62.0,157.0 L 57.0,161.0 L 47.0,161.0 L 40.0,155.0 L 39.0,152.0 L 39.0,143.0 L 44.0,137.0 L 48.0,135.0" fill="#0C0C0C"/>
	<path d="M 96.0,157.0 L 104.0,157.0 L 110.0,162.0 L 111.0,164.0 L 111.0,172.0 L 106.0,178.0 L 104.0,179.0 L 96.0,179.0 L 90.0,174.0 L 89.0,172.0 L 89.0,164.0 L 94.0,158.0 L 96.0,157.0" fill="#FBFBFB"/>
	<path d="M 164.0,89.0 L 172.0,89.0 L 178.0,94.0 L 179.0,96.0 L 179.0,104.0 L 174.0,110.0 L 172.0,111.0 L 164.0,111.0 L 158.0,106.0 L 157.0,104.0 L 157.0,96.0 L 162.0,90.0 L 164.0,89.0" fill="#070707"/>
	<path d="M 144.0,138.0 L 152.0,138.0 L 158.0,143.0 L 158.0,153.0 L 153.0,158.0 L 143.0,158.0 L 138.0,152.0 L 138.0,144.0 L 142.0,139.0 L 144.0,138.0" fill="#FAFAFA"/>
	<path d="M 28.0,92.0 L 35.0,92.0 L 40.0,96.0 L 40.0,103.0 L 35.0,108.0 L 28.0,108.0 L 24.0,103.0 L 24.0,96.0 L 28.0,92.0" fill="#0E0E0E"/>
	<path d="M 49.0,140.0 L 56.0,141.0 L 60.0,146.0 L 59.0,152.0 L 55.0,156.0 L 49.0,156.0 L 44.0,151.0 L 44.0,145.0 L 49.0,140.0" fill="#F2F2F2"/>
	<path d="M 145.0,45.0 L 151.0,45.0 L 155.0,48.0 L 155.0,55.0 L 151.0,59.0 L 145.0,59.0 L 141.0,55.0 L 141.0,49.0 L 145.0,45.0" fill="#141414"/>
	<path d="M 166.0,93.0 L 172.0,94.0 L 175.0,98.0 L 174.0,104.0 L 170.0,107.0 L 164.0,106.0 L 161.0,102.0 L 162.0,96.0 L 166.0,93.0" fill="#ECECEC"/>
	<path d="M 49.0,46.0 L 55.0,46.0 L 58.0,49.0 L 58.0,55.0 L 55.0,58.0 L 49.0,58.0 L 46.0,55.0 L 46.0,49.0 L 49.0,46.0" fill="#383838"/>
	<path d="M 97.0,26.0 L 103.0,26.0 L 106.0,29.0 L 106.0,35.0 L 103.0,38.0 L 97.0,38.0 L 94.0,35.0 L 94.0,29.0 L 97.0,26.0" fill="#1A1A1A"/>
	<path d="M 30.0,95.0 L 35.0,96.0 L 37.0,98.0 L 36.0,103.0 L 34.0,105.0 L 29.0,104.0 L 27.0,102.0 L 28.0,97.0 L 30.0,95.0" fill="#F0F0F0"/>
	<path d="M 145.0,48.0 L 151.0,48.0 L 152.0,49.0 L 152.0,54.0 L 150.0,56.0 L 145.0,55.0 L 144.0,50.0 L 145.0,48.0" fill="#F6F6F6"/>
	<path d="M 49.0,46.0 L 55.0,46.0 L 54.0,48.0 L 49.0,50.0 L 49.0,54.0 L 53.0,56.0 L 53.0,58.0 L 48.0,57.0 L 46.0,55.0 L 46.0,49.0 L 49.0,46.0" fill="#0D0D0D"/>
	<path d="M 49.0,49.0 L 55.0,49.0 L 55.0,54.0 L 54.0,55.0 L 49.0,55.0 L 48.0,50.0 L 49.0,49.0" fill="#EAEAEA"/>
	<path d="M 98.0,29.0 L 103.0,30.0 L 102.0,35.0 L 97.0,35.0 L 97.0,30.0 L 98.0,29.0" fill="#FAFAFA"/>
	<path d="M 95.0,30.0 L 97.0,33.0 L 97.0,35.0 L 101.0,36.0 L 101.0,38.0 L 96.0,37.0 L 94.0,35.0 L 95.0,30.0" fill="#151515"/>
	<path d="M 145.0,45.0 L 149.0,47.0 L 145.0,48.0 L 145.0,50.0 L 141.0,51.0 L 143.0,46.0 L 145.0,45.0" fill="#1C1C1C"/>
	<path d="M 103.0,31.0 L 104.0,33.0 L 106.0,33.0 L 104.0,37.0 L 101.0,38.0 L 101.0,36.0 L 99.0,35.0 L 102.0,34.0 L 103.0,31.0" fill="#3A3A3A"/>
	<path d="M 54.0,47.0 L 58.0,49.0 L 58.0,53.0 L 56.0,53.0 L 55.0,49.0 L 50.0,49.0 L 54.0,47.0" fill="#282828"/>
	<path d="M 97.0,26.0 L 101.0,28.0 L 98.0,30.0 L 96.0,33.0 L 94.0,29.0 L 97.0,26.0" fill="#404040"/>
</svg>
