<?xml version="1.0" ?>
<svg baseProfile="full" height="600px" version="1.1" viewBox="-16.08 -16.08 192.16 192.16" width="600px" xmlns="http://www.w3.org/2000/svg" xmlns:ev="http://www.w3.org/2001/xml-events" xmlns:xlink="http://www.w3.org/1999/xlink">
	<defs/>
	<path d="M 0.0,0.0 L 160.0,0.0 L 160.0,160.0 L 0.0,160.0 L 0.0,0.0" fill="#FDFDFD"/>
	<path d="M 134.0,64.0 L 155.0,64.0 L 156.0,69.0 L 156.0,90.0 L 152.0,106.0 L 144.0,122.0 L 137.0,131.0 L 143.0,138.0 L 148.0,144.0 L 108.0,144.0 L 108.0,104.0 L 115.0,110.0 L 122.0,116.0 L 129.0,106.0 L 133.0,96.0 L 135.0,85.0 L 135.0,72.0 L 134.0,64.0" fill="#B6DDBA"/>
	<path d="M 12.0,16.0 L 52.0,16.0 L 52.0,56.0 L 45.0,50.0 L 38.0,44.0 L 31.0,54.0 L 27.0,63.0 L 25.0,71.0 L 25.0,86.0 L 26.0,96.0 L 5.0,96.0 L 4.0,91.0 L 4.0,70.0 L 8.0,54.0 L 16.0,38.0 L 23.0,29.0 L 17.0,22.0 L 12.0,16.0" fill="#B6DDBA"/>
	<path d="M 16.0,108.0 L 56.0,108.0 L 50.0,115.0 L 44.0,122.0 L 52.0,128.0 L 63.0,133.0 L 71.0,135.0 L 87.0,135.0 L 96.0,134.0 L 96.0,155.0 L 90.0,156.0 L 69.0,156.0 L 54.0,152.0 L 38.0,144.0 L 27.0,136.0 L 25.0,140.0 L 17.0,148.0 L 16.0,148.0 L 16.0,108.0" fill="#B7DDBA"/>
	<path d="M 70.0,4.0 L 91.0,4.0 L 108.0,9.0 L 122.0,16.0 L 131.0,23.0 L 138.0,17.0 L 144.0,12.0 L 144.0,52.0 L 104.0,52.0 L 110.0,45.0 L 116.0,38.0 L 108.0,32.0 L 96.0,27.0 L 86.0,25.0 L 71.0,25.0 L 64.0,26.0 L 64.0,5.0 L 70.0,4.0" fill="#B6DDBA"/>
	<path d="M 134.0,64.0 L 155.0,64.0 L 156.0,69.0 L 156.0,90.0 L 152.0,106.0 L 144.0,122.0 L 137.0,131.0 L 143.0,138.0 L 148.0,144.0 L 108.0,144.0 L 108.0,104.0 L 115.0,110.0 L 122.0,116.0 L 129.0,106.0 L 133.0,96.0 L 135.0,85.0 L 135.0,72.0 L 134.0,64.0 M 139.0,68.0 L 139.0,86.0 L 137.0,98.0 L 129.0,114.0 L 122.0,122.0 L 115.0,116.0 L 112.0,114.0 L 112.0,140.0 L 138.0,140.0 L 132.0,133.0 L 132.0,130.0 L 139.0,122.0 L 146.0,110.0 L 151.0,94.0 L 152.0,89.0 L 152.0,74.0 L 151.0,68.0 L 139.0,68.0" fill="#64A07B"/>
	<path d="M 12.0,16.0 L 52.0,16.0 L 52.0,56.0 L 45.0,50.0 L 38.0,44.0 L 31.0,54.0 L 27.0,63.0 L 25.0,71.0 L 25.0,86.0 L 26.0,96.0 L 5.0,96.0 L 4.0,91.0 L 4.0,70.0 L 8.0,54.0 L 16.0,38.0 L 23.0,29.0 L 17.0,22.0 L 12.0,16.0 M 22.0,20.0 L 28.0,27.0 L 28.0,30.0 L 21.0,38.0 L 13.0,52.0 L 9.0,66.0 L 8.0,71.0 L 8.0,88.0 L 9.0,92.0 L 21.0,92.0 L 21.0,70.0 L 25.0,57.0 L 31.0,46.0 L 38.0,38.0 L 45.0,44.0 L 48.0,46.0 L 48.0,20.0 L 22.0,20.0" fill="#64A07B"/>
	<path d="M 16.0,108.0 L 56.0,108.0 L 50.0,115.0 L 44.0,122.0 L 52.0,128.0 L 63.0,133.0 L 71.0,135.0 L 87.0,135.0 L 96.0,134.0 L 96.0,155.0 L 90.0,156.0 L 69.0,156.0 L 54.0,152.0 L 38.0,144.0 L 27.0,136.0 L 25.0,140.0 L 17.0,148.0 L 16.0,148.0 L 16.0,108.0 M 20.0,112.0 L 20.0,138.0 L 27.0,132.0 L 30.0,132.0 L 38.0,139.0 L 50.0,146.0 L 65.0,151.0 L 74.0,152.0 L 87.0,152.0 L 92.0,151.0 L 92.0,139.0 L 74.0,139.0 L 62.0,137.0 L 46.0,129.0 L 38.0,122.0 L 44.0,115.0 L 46.0,112.0 L 20.0,112.0" fill="#64A07B"/>
	<path d="M 70.0,4.0 L 91.0,4.0 L 108.0,9.0 L 122.0,16.0 L 131.0,23.0 L 138.0,17.0 L 144.0,12.0 L 144.0,52.0 L 104.0,52.0 L 110.0,45.0 L 116.0,38.0 L 108.0,32.0 L 96.0,27.0 L 86.0,25.0 L 71.0,25.0 L 64.0,26.0 L 64.0,5.0 L 70.0,4.0 M 71.0,8.0 L 68.0,9.0 L 68.0,21.0 L 87.0,21.0 L 97.0,23.0 L 109.0,28.0 L 119.0,35.0 L 122.0,39.0 L 114.0,47.0 L 114.0,48.0 L 140.0,48.0 L 140.0,22.0 L 133.0,28.0 L 130.0,28.0 L 122.0,21.0 L 110.0,14.0 L 95.0,9.0 L 88.0,8.0 L 71.0,8.0" fill="#64A07B"/>
</svg>
