<?xml version="1.0" ?>
<svg baseProfile="full" height="600px" version="1.1" viewBox="-20.1 -20.1 240.2 240.2" width="600px" xmlns="http://www.w3.org/2000/svg" xmlns:ev="http://www.w3.org/2001/xml-events" xmlns:xlink="http://www.w3.org/1999/xlink">
	<defs/>
	<path d="M 0.0,0.0 L 200.0,0.0 L 200.0,200.0 L 0.0,200.0 L 0.0,0.0" fill="#FDFDFD"/>
	<path d="M 143.0,128.0 L 153.0,128.0 L 161.0,132.0 L 167.0,140.0 L 168.0,142.0 L 168.0,152.0 L 165.0,160.0 L 158.0,166.0 L 152.0,168.0 L 142.0,168.0 L 133.0,162.0 L 129.0,155.0 L 128.0,153.0 L 128.0,143.0 L 132.0,135.0 L 140.0,129.0 L 143.0,128.0" fill="#2F2F2F"/>
	<path d="M 142.0,32.0 L 153.0,32.0 L 161.0,36.0 L 166.0,42.0 L 168.0,46.0 L 168.0,56.0 L 165.0,63.0 L 161.0,68.0 L 152.0,72.0 L 143.0,72.0 L 135.0,68.0 L 131.0,63.0 L 128.0,57.0 L 128.0,47.0 L 132.0,39.0 L 140.0,33.0 L 142.0,32.0" fill="#0A0A0A"/>
	<path d="M 47.0,128.0 L 57.0,128.0 L 66.0,133.0 L 71.0,140.0 L 72.0,143.0 L 72.0,152.0 L 68.0,161.0 L 60.0,167.0 L 56.0,168.0 L 46.0,168.0 L 38.0,163.0 L 34.0,158.0 L 32.0,153.0 L 32.0,142.0 L 38.0,133.0 L 44.0,129.0 L 47.0,128.0" fill="#737373"/>
	<path d="M 96.0,148.0 L 105.0,148.0 L 113.0,152.0 L 119.0,160.0 L 120.0,163.0 L 120.0,173.0 L 116.0,181.0 L 110.0,186.0 L 105.0,188.0 L 95.0,188.0 L 87.0,184.0 L 81.0,176.0 L 80.0,173.0 L 80.0,164.0 L 83.0,157.0 L 87.0,152.0 L 92.0,149.0 L 96.0,148.0" fill="#494949"/>
	<path d="M 164.0,80.0 L 173.0,80.0 L 181.0,84.0 L 187.0,92.0 L 188.0,95.0 L 188.0,104.0 L 185.0,111.0 L 181.0,116.0 L 173.0,120.0 L 163.0,120.0 L 155.0,116.0 L 149.0,108.0 L 148.0,105.0 L 148.0,96.0 L 151.0,89.0 L 155.0,84.0 L 160.0,81.0 L 164.0,80.0" fill="#131313"/>
	<path d="M 28.0,80.0 L 37.0,80.0 L 45.0,84.0 L 51.0,92.0 L 52.0,95.0 L 52.0,104.0 L 48.0,113.0 L 42.0,118.0 L 37.0,120.0 L 27.0,120.0 L 19.0,116.0 L 13.0,108.0 L 12.0,105.0 L 12.0,96.0 L 15.0,89.0 L 19.0,84.0 L 24.0,81.0 L 28.0,80.0" fill="#959595"/>
	<path d="M 46.0,32.0 L 57.0,32.0 L 66.0,37.0 L 71.0,44.0 L 72.0,47.0 L 72.0,56.0 L 69.0,63.0 L 64.0,68.0 L 59.0,71.0 L 56.0,72.0 L 47.0,72.0 L 39.0,68.0 L 33.0,60.0 L 32.0,57.0 L 32.0,48.0 L 35.0,41.0 L 39.0,36.0 L 46.0,32.0" fill="#C5C5C5"/>
	<path d="M 96.0,12.0 L 105.0,12.0 L 114.0,17.0 L 119.0,24.0 L 120.0,27.0 L 120.0,36.0 L 117.0,43.0 L 113.0,48.0 L 105.0,52.0 L 95.0,52.0 L 87.0,48.0 L 81.0,40.0 L 80.0,37.0 L 80.0,28.0 L 84.0,19.0 L 92.0,13.0 L 96.0,12.0" fill="#E5E5E5"/>
	<path d="M 164.0,88.0 L 171.0,88.0 L 176.0,91.0 L 180.0,96.0 L 180.0,104.0 L 174.0,111.0 L 172.0,112.0 L 164.0,112.0 L 157.0,106.0 L 156.0,103.0 L 156.0,96.0 L 162.0,89.0 L 164.0,88.0" fill="#F8F8F8"/>
	<path d="M 28.0,88.0 L 36.0,88.0 L 43.0,94.0 L 44.0,96.0 L 44.0,103.0 L 41.0,108.0 L 38.0,111.0 L 35.0,112.0 L 28.0,112.0 L 21.0,106.0 L 20.0,104.0 L 20.0,96.0 L 26.0,89.0 L 28.0,88.0" fill="#FBFBFB"/>
	<path d="M 49.0,40.0 L 56.0,40.0 L 63.0,46.0 L 64.0,48.0 L 64.0,55.0 L 61.0,60.0 L 58.0,63.0 L 55.0,64.0 L 48.0,64.0 L 41.0,58.0 L 40.0,56.0 L 40.0,48.0 L 43.0,43.0 L 49.0,40.0" fill="#FCFCFC"/>
	<path d="M 97.0,20.0 L 104.0,20.0 L 109.0,23.0 L 112.0,28.0 L 112.0,35.0 L 109.0,40.0 L 106.0,43.0 L 103.0,44.0 L 96.0,44.0 L 91.0,41.0 L 88.0,36.0 L 88.0,29.0 L 91.0,24.0 L 94.0,21.0 L 97.0,20.0" fill="#FDFDFD"/>
	<path d="M 144.0,136.0 L 151.0,136.0 L 156.0,139.0 L 160.0,144.0 L 160.0,151.0 L 157.0,157.0 L 151.0,160.0 L 144.0,160.0 L 137.0,154.0 L 136.0,151.0 L 136.0,144.0 L 142.0,137.0 L 144.0,136.0" fill="#F8F8F8"/>
	<path d="M 96.0,156.0 L 103.0,156.0 L 108.0,159.0 L 112.0,164.0 L 112.0,171.0 L 109.0,176.0 L 106.0,179.0 L 103.0,180.0 L 96.0,180.0 L 89.0,174.0 L 88.0,171.0 L 88.0,164.0 L 94.0,157.0 L 96.0,156.0" fill="#F9F9F9"/>
	<path d="M 48.0,136.0 L 56.0,136.0 L 62.0,141.0 L 64.0,144.0 L 64.0,151.0 L 61.0,156.0 L 58.0,159.0 L 55.0,160.0 L 48.0,160.0 L 43.0,157.0 L 40.0,151.0 L 40.0,144.0 L 46.0,137.0 L 48.0,136.0" fill="#FAFAFA"/>
	<path d="M 144.0,40.0 L 151.0,40.0 L 157.0,43.0 L 160.0,48.0 L 160.0,55.0 L 157.0,60.0 L 154.0,63.0 L 151.0,64.0 L 144.0,64.0 L 138.0,59.0 L 136.0,55.0 L 136.0,48.0 L 142.0,41.0 L 144.0,40.0" fill="#F8F8F8"/>
</svg>
