<?xml version="1.0" ?>
<svg baseProfile="full" height="600px" version="1.1" viewBox="-19.296000000000003 -19.296000000000003 230.592 230.592" width="600px" xmlns="http://www.w3.org/2000/svg" xmlns:ev="http://www.w3.org/2001/xml-events" xmlns:xlink="http://www.w3.org/1999/xlink">
	<defs/>
	<path d="M 0.0,0.0 L 192.0,0.0 L 192.0,192.0 L 0.0,192.0 L 0.0,0.0" fill="#FDFEFE"/>
	<path d="M 118.0,19.0 L 127.0,22.0 L 139.0,28.0 L 148.0,35.0 L 156.0,42.0 L 164.0,53.0 L 172.0,69.0 L 176.0,85.0 L 176.0,106.0 L 185.0,108.0 L 191.0,110.0 L 187.0,114.0 L 170.0,127.0 L 158.0,136.0 L 156.0,136.0 L 150.0,115.0 L 145.0,98.0 L 145.0,96.0 L 152.0,97.0 L 160.0,100.0 L 158.0,82.0 L 154.0,70.0 L 147.0,58.0 L 139.0,49.0 L 126.0,40.0 L 115.0,35.0 L 116.0,25.0 L 118.0,19.0" fill="#2497F3"/>
	<path d="M 31.0,129.0 L 40.0,131.0 L 68.0,140.0 L 68.0,142.0 L 61.0,147.0 L 61.0,149.0 L 75.0,156.0 L 86.0,159.0 L 103.0,159.0 L 113.0,157.0 L 128.0,151.0 L 139.0,143.0 L 143.0,145.0 L 151.0,153.0 L 145.0,160.0 L 130.0,169.0 L 112.0,175.0 L 105.0,176.0 L 86.0,176.0 L 69.0,172.0 L 53.0,164.0 L 48.0,160.0 L 44.0,161.0 L 36.0,167.0 L 34.0,167.0 L 31.0,138.0 L 31.0,129.0" fill="#2497F3"/>
	<path d="M 62.0,10.0 L 73.0,13.0 L 99.0,22.0 L 99.0,25.0 L 85.0,37.0 L 74.0,46.0 L 69.0,49.0 L 68.0,39.0 L 57.0,46.0 L 47.0,55.0 L 39.0,68.0 L 35.0,78.0 L 33.0,87.0 L 33.0,104.0 L 34.0,111.0 L 21.0,115.0 L 18.0,115.0 L 16.0,104.0 L 16.0,85.0 L 21.0,66.0 L 29.0,51.0 L 40.0,38.0 L 50.0,30.0 L 62.0,23.0 L 64.0,23.0 L 62.0,10.0" fill="#2497F3"/>
</svg>
