<?xml version="1.0" ?>
<svg baseProfile="full" height="600px" version="1.1" viewBox="-20.1 -20.1 240.2 240.2" width="600px" xmlns="http://www.w3.org/2000/svg" xmlns:ev="http://www.w3.org/2001/xml-events" xmlns:xlink="http://www.w3.org/1999/xlink">
	<defs/>
	<path d="M 0.0,0.0 L 200.0,0.0 L 200.0,200.0 L 0.0,200.0 L 0.0,0.0" fill="#FDFDFD"/>
	<path d="M 0.0,0.0 L 200.0,0.0 L 200.0,200.0 L 0.0,200.0 L 0.0,0.0 M 89.0,16.0 L 73.0,20.0 L 61.0,25.0 L 50.0,32.0 L 38.0,43.0 L 29.0,54.0 L 21.0,70.0 L 16.0,89.0 L 16.0,108.0 L 19.0,123.0 L 23.0,135.0 L 32.0,150.0 L 43.0,162.0 L 45.0,162.0 L 46.0,165.0 L 61.0,175.0 L 76.0,181.0 L 90.0,184.0 L 109.0,184.0 L 126.0,180.0 L 138.0,175.0 L 150.0,168.0 L 162.0,157.0 L 170.0,147.0 L 178.0,132.0 L 182.0,119.0 L 184.0,109.0 L 184.0,90.0 L 180.0,73.0 L 175.0,61.0 L 167.0,49.0 L 158.0,39.0 L 150.0,32.0 L 139.0,25.0 L 120.0,18.0 L 108.0,16.0 L 89.0,16.0" fill="#FDFDFD"/>
	<path d="M 88.0,8.0 L 109.0,8.0 L 126.0,11.0 L 139.0,16.0 L 153.0,24.0 L 167.0,36.0 L 178.0,50.0 L 186.0,65.0 L 191.0,82.0 L 192.0,87.0 L 192.0,112.0 L 188.0,128.0 L 183.0,141.0 L 174.0,156.0 L 162.0,169.0 L 150.0,178.0 L 134.0,186.0 L 117.0,191.0 L 112.0,192.0 L 87.0,192.0 L 71.0,188.0 L 59.0,183.0 L 47.0,176.0 L 34.0,165.0 L 24.0,153.0 L 16.0,139.0 L 11.0,126.0 L 8.0,111.0 L 8.0,88.0 L 12.0,71.0 L 19.0,55.0 L 28.0,42.0 L 36.0,33.0 L 50.0,22.0 L 66.0,14.0 L 78.0,10.0 L 88.0,8.0 M 89.0,16.0 L 73.0,20.0 L 61.0,25.0 L 50.0,32.0 L 38.0,43.0 L 29.0,54.0 L 21.0,70.0 L 16.0,89.0 L 16.0,108.0 L 19.0,123.0 L 23.0,135.0 L 32.0,150.0 L 43.0,162.0 L 45.0,162.0 L 46.0,165.0 L 61.0,175.0 L 76.0,181.0 L 90.0,184.0 L 109.0,184.0 L 126.0,180.0 L 138.0,175.0 L 150.0,168.0 L 162.0,157.0 L 170.0,147.0 L 178.0,132.0 L 182.0,119.0 L 184.0,109.0 L 184.0,90.0 L 180.0,73.0 L 175.0,61.0 L 167.0,49.0 L 158.0,39.0 L 150.0,32.0 L 139.0,25.0 L 120.0,18.0 L 108.0,16.0 L 89.0,16.0" fill="#B3B3B3"/>
	<path d="M 165.0,36.0 L 169.0,38.0 L 180.0,53.0 L 187.0,68.0 L 191.0,82.0 L 192.0,87.0 L 192.0,112.0 L 188.0,128.0 L 183.0,141.0 L 174.0,156.0 L 162.0,169.0 L 150.0,178.0 L 134.0,186.0 L 117.0,191.0 L 112.0,192.0 L 87.0,192.0 L 71.0,188.0 L 59.0,183.0 L 47.0,176.0 L 39.0,169.0 L 41.0,165.0 L 45.0,163.0 L 58.0,172.0 L 70.0,178.0 L 85.0,182.0 L 90.0,183.0 L 109.0,183.0 L 126.0,179.0 L 138.0,174.0 L 150.0,167.0 L 162.0,156.0 L 171.0,144.0 L 178.0,129.0 L 182.0,114.0 L 183.0,109.0 L 183.0,90.0 L 179.0,73.0 L 174.0,61.0 L 166.0,49.0 L 160.0,41.0 L 165.0,36.0" fill="#090909"/>
</svg>
