<?xml version="1.0" ?>
<svg baseProfile="full" height="600px" version="1.1" viewBox="-9.648000000000001 -9.648000000000001 115.296 115.296" width="600px" xmlns="http://www.w3.org/2000/svg" xmlns:ev="http://www.w3.org/2001/xml-events" xmlns:xlink="http://www.w3.org/1999/xlink">
	<defs/>
	<path d="M 0.0,0.0 L 96.0,0.0 L 96.0,96.0 L 0.0,96.0 L 0.0,0.0" fill="#FCFCFC"/>
	<path d="M 82.0,35.0 L 86.0,35.0 L 88.0,41.0 L 88.0,54.0 L 85.0,64.0 L 79.0,74.0 L 70.0,82.0 L 58.0,87.0 L 57.0,87.0 L 57.0,78.0 L 67.0,73.0 L 75.0,64.0 L 79.0,53.0 L 79.0,42.0 L 78.0,37.0 L 82.0,35.0" fill="#0B0B0B"/>
	<path d="M 40.0,8.0 L 53.0,8.0 L 64.0,11.0 L 74.0,17.0 L 77.0,21.0 L 71.0,24.0 L 67.0,23.0 L 57.0,18.0 L 52.0,17.0 L 41.0,17.0 L 31.0,21.0 L 23.0,27.0 L 17.0,23.0 L 23.0,16.0 L 33.0,10.0 L 40.0,8.0" fill="#080808"/>
	<path d="M 9.0,37.0 L 14.0,39.0 L 16.0,40.0 L 17.0,54.0 L 21.0,64.0 L 27.0,72.0 L 36.0,77.0 L 41.0,79.0 L 41.0,87.0 L 31.0,85.0 L 21.0,78.0 L 14.0,70.0 L 10.0,62.0 L 8.0,55.0 L 8.0,39.0 L 9.0,37.0" fill="#070707"/>
</svg>
