<?xml version="1.0" ?>
<svg baseProfile="full" height="600px" version="1.1" viewBox="-12.864 -12.864 153.728 153.728" width="600px" xmlns="http://www.w3.org/2000/svg" xmlns:ev="http://www.w3.org/2001/xml-events" xmlns:xlink="http://www.w3.org/1999/xlink">
	<defs/>
	<path d="M 0.0,0.0 L 128.0,0.0 L 128.0,128.0 L 0.0,128.0 L 0.0,0.0" fill="#FCFCFC"/>
	<path d="M 63.0,12.0 L 73.0,12.0 L 83.0,15.0 L 94.0,21.0 L 104.0,30.0 L 110.0,39.0 L 114.0,47.0 L 117.0,58.0 L 121.0,56.0 L 125.0,60.0 L 123.0,65.0 L 110.0,80.0 L 106.0,75.0 L 97.0,60.0 L 97.0,58.0 L 102.0,55.0 L 105.0,56.0 L 107.0,60.0 L 106.0,52.0 L 99.0,38.0 L 94.0,32.0 L 85.0,26.0 L 72.0,21.0 L 63.0,20.0 L 63.0,12.0" fill="#090909"/>
	<path d="M 102.0,86.0 L 108.0,88.0 L 109.0,91.0 L 102.0,100.0 L 93.0,108.0 L 80.0,114.0 L 70.0,116.0 L 55.0,116.0 L 45.0,113.0 L 42.0,112.0 L 43.0,116.0 L 39.0,118.0 L 35.0,118.0 L 28.0,99.0 L 27.0,95.0 L 51.0,95.0 L 51.0,104.0 L 49.0,105.0 L 56.0,107.0 L 71.0,107.0 L 81.0,104.0 L 91.0,98.0 L 96.0,94.0 L 102.0,86.0" fill="#0A0A0A"/>
	<path d="M 32.0,12.0 L 42.0,13.0 L 55.0,16.0 L 53.0,21.0 L 44.0,36.0 L 42.0,37.0 L 37.0,34.0 L 37.0,30.0 L 31.0,35.0 L 23.0,49.0 L 21.0,56.0 L 21.0,70.0 L 23.0,78.0 L 26.0,87.0 L 21.0,90.0 L 18.0,89.0 L 13.0,77.0 L 12.0,73.0 L 12.0,56.0 L 16.0,43.0 L 21.0,34.0 L 30.0,24.0 L 34.0,21.0 L 30.0,19.0 L 32.0,12.0" fill="#080808"/>
</svg>
