<?xml version="1.0" ?>
<svg baseProfile="full" height="600px" version="1.1" viewBox="-16.08 -16.08 192.16 192.16" width="600px" xmlns="http://www.w3.org/2000/svg" xmlns:ev="http://www.w3.org/2001/xml-events" xmlns:xlink="http://www.w3.org/1999/xlink">
	<defs/>
	<path d="M 0.0,0.0 L 160.0,0.0 L 160.0,160.0 L 0.0,160.0 L 0.0,0.0" fill="#FCFDFC"/>
	<path d="M 70.0,4.0 L 91.0,4.0 L 108.0,9.0 L 118.0,14.0 L 121.0,14.0 L 123.0,12.0 L 136.0,35.0 L 139.0,40.0 L 139.0,42.0 L 119.0,38.0 L 108.0,35.0 L 108.0,32.0 L 96.0,27.0 L 88.0,25.0 L 71.0,25.0 L 58.0,29.0 L 54.0,30.0 L 50.0,10.0 L 60.0,6.0 L 70.0,4.0" fill="#B6DDBA"/>
	<path d="M 21.0,118.0 L 39.0,122.0 L 52.0,125.0 L 52.0,128.0 L 63.0,133.0 L 71.0,135.0 L 89.0,135.0 L 104.0,130.0 L 106.0,130.0 L 109.0,142.0 L 110.0,150.0 L 99.0,154.0 L 90.0,156.0 L 69.0,156.0 L 54.0,152.0 L 42.0,146.0 L 39.0,146.0 L 37.0,148.0 L 22.0,121.0 L 21.0,118.0" fill="#B6DDBA"/>
	<path d="M 40.0,21.0 L 42.0,21.0 L 38.0,40.0 L 35.0,52.0 L 32.0,52.0 L 27.0,63.0 L 25.0,71.0 L 25.0,86.0 L 27.0,96.0 L 30.0,106.0 L 17.0,109.0 L 10.0,109.0 L 6.0,99.0 L 4.0,91.0 L 4.0,69.0 L 8.0,54.0 L 14.0,42.0 L 13.0,37.0 L 21.0,32.0 L 40.0,21.0" fill="#B6DDBA"/>
	<path d="M 142.0,51.0 L 151.0,51.0 L 155.0,64.0 L 156.0,69.0 L 156.0,90.0 L 153.0,102.0 L 148.0,115.0 L 146.0,118.0 L 147.0,123.0 L 130.0,133.0 L 121.0,138.0 L 119.0,138.0 L 120.0,128.0 L 124.0,110.0 L 125.0,108.0 L 128.0,108.0 L 133.0,96.0 L 135.0,85.0 L 135.0,71.0 L 131.0,58.0 L 130.0,54.0 L 142.0,51.0" fill="#B6DDBA"/>
	<path d="M 70.0,4.0 L 91.0,4.0 L 108.0,9.0 L 118.0,14.0 L 121.0,14.0 L 123.0,12.0 L 136.0,35.0 L 139.0,40.0 L 139.0,42.0 L 119.0,38.0 L 108.0,35.0 L 108.0,32.0 L 96.0,27.0 L 88.0,25.0 L 71.0,25.0 L 58.0,29.0 L 54.0,30.0 L 50.0,10.0 L 60.0,6.0 L 70.0,4.0 M 71.0,8.0 L 55.0,12.0 L 57.0,24.0 L 70.0,21.0 L 87.0,21.0 L 97.0,23.0 L 109.0,28.0 L 114.0,30.0 L 114.0,32.0 L 125.0,35.0 L 130.0,35.0 L 128.0,29.0 L 123.0,21.0 L 112.0,15.0 L 95.0,9.0 L 90.0,8.0 L 71.0,8.0" fill="#66A17D"/>
	<path d="M 21.0,118.0 L 39.0,122.0 L 52.0,125.0 L 52.0,128.0 L 63.0,133.0 L 71.0,135.0 L 89.0,135.0 L 104.0,130.0 L 106.0,130.0 L 109.0,142.0 L 110.0,150.0 L 99.0,154.0 L 90.0,156.0 L 69.0,156.0 L 54.0,152.0 L 42.0,146.0 L 39.0,146.0 L 37.0,148.0 L 22.0,121.0 L 21.0,118.0 M 30.0,125.0 L 32.0,131.0 L 37.0,140.0 L 41.0,141.0 L 55.0,148.0 L 65.0,151.0 L 74.0,152.0 L 89.0,152.0 L 105.0,148.0 L 104.0,140.0 L 103.0,136.0 L 90.0,139.0 L 74.0,139.0 L 62.0,137.0 L 48.0,130.0 L 46.0,130.0 L 46.0,128.0 L 35.0,125.0 L 30.0,125.0" fill="#66A17D"/>
	<path d="M 142.0,51.0 L 151.0,51.0 L 155.0,64.0 L 156.0,69.0 L 156.0,90.0 L 153.0,102.0 L 148.0,115.0 L 146.0,118.0 L 147.0,123.0 L 130.0,133.0 L 121.0,138.0 L 119.0,138.0 L 120.0,128.0 L 124.0,110.0 L 125.0,108.0 L 128.0,108.0 L 133.0,96.0 L 135.0,85.0 L 135.0,71.0 L 131.0,58.0 L 130.0,54.0 L 142.0,51.0 M 145.0,55.0 L 136.0,57.0 L 138.0,66.0 L 139.0,71.0 L 139.0,86.0 L 137.0,98.0 L 130.0,112.0 L 130.0,114.0 L 128.0,114.0 L 124.0,129.0 L 124.0,131.0 L 129.0,129.0 L 139.0,123.0 L 147.0,107.0 L 151.0,94.0 L 152.0,89.0 L 152.0,74.0 L 150.0,62.0 L 148.0,55.0 L 145.0,55.0" fill="#66A17D"/>
	<path d="M 40.0,21.0 L 42.0,21.0 L 38.0,40.0 L 35.0,52.0 L 32.0,52.0 L 27.0,63.0 L 25.0,71.0 L 25.0,86.0 L 27.0,96.0 L 30.0,106.0 L 17.0,109.0 L 10.0,109.0 L 6.0,99.0 L 4.0,91.0 L 4.0,69.0 L 8.0,54.0 L 14.0,42.0 L 13.0,37.0 L 21.0,32.0 L 40.0,21.0 M 33.0,30.0 L 20.0,37.0 L 18.0,43.0 L 12.0,55.0 L 8.0,71.0 L 8.0,88.0 L 10.0,98.0 L 12.0,105.0 L 21.0,104.0 L 24.0,103.0 L 22.0,94.0 L 21.0,87.0 L 21.0,70.0 L 25.0,57.0 L 30.0,48.0 L 30.0,46.0 L 32.0,46.0 L 35.0,34.0 L 35.0,30.0 L 33.0,30.0" fill="#66A17D"/>
</svg>
