<?xml version="1.0" ?>
<svg baseProfile="full" height="600px" version="1.1" viewBox="-12.06 -12.06 144.12 144.12" width="600px" xmlns="http://www.w3.org/2000/svg" xmlns:ev="http://www.w3.org/2001/xml-events" xmlns:xlink="http://www.w3.org/1999/xlink">
	<defs/>
	<path d="M 0.0,0.0 L 120.0,0.0 L 120.0,120.0 L 0.0,120.0 L 0.0,0.0" fill="#FCFCFC"/>
	<path d="M 14.0,53.0 L 19.0,54.0 L 28.0,68.0 L 27.0,73.0 L 23.0,74.0 L 29.0,85.0 L 38.0,93.0 L 49.0,98.0 L 58.0,100.0 L 59.0,101.0 L 59.0,106.0 L 57.0,108.0 L 51.0,108.0 L 39.0,104.0 L 29.0,97.0 L 21.0,89.0 L 15.0,78.0 L 15.0,75.0 L 8.0,75.0 L 7.0,74.0 L 8.0,65.0 L 14.0,53.0" fill="#080808"/>
	<path d="M 98.0,38.0 L 103.0,39.0 L 106.0,44.0 L 108.0,51.0 L 108.0,66.0 L 105.0,78.0 L 99.0,89.0 L 97.0,91.0 L 98.0,100.0 L 93.0,102.0 L 77.0,103.0 L 75.0,101.0 L 76.0,96.0 L 83.0,84.0 L 84.0,83.0 L 89.0,83.0 L 91.0,85.0 L 97.0,73.0 L 99.0,65.0 L 99.0,54.0 L 96.0,44.0 L 97.0,39.0 L 98.0,38.0" fill="#080808"/>
	<path d="M 73.0,8.0 L 78.0,8.0 L 88.0,21.0 L 88.0,26.0 L 86.0,28.0 L 67.0,28.0 L 66.0,27.0 L 67.0,20.0 L 49.0,22.0 L 35.0,29.0 L 27.0,38.0 L 22.0,38.0 L 21.0,37.0 L 21.0,31.0 L 31.0,21.0 L 47.0,13.0 L 55.0,12.0 L 65.0,12.0 L 71.0,13.0 L 72.0,9.0 L 73.0,8.0" fill="#070707"/>
</svg>
