<?xml version="1.0" ?>
<svg baseProfile="full" height="600px" version="1.1" viewBox="-20.1 -20.1 240.2 240.2" width="600px" xmlns="http://www.w3.org/2000/svg" xmlns:ev="http://www.w3.org/2001/xml-events" xmlns:xlink="http://www.w3.org/1999/xlink">
	<defs/>
	<path d="M 0.0,0.0 L 200.0,0.0 L 200.0,200.0 L 0.0,200.0 L 0.0,0.0" fill="#FCFCFC"/>
	<path d="M 0.0,0.0 L 200.0,0.0 L 200.0,200.0 L 0.0,200.0 L 0.0,0.0 M 49.0,14.0 L 46.0,23.0 L 37.0,59.0 L 32.0,77.0 L 22.0,117.0 L 18.0,131.0 L 14.0,146.0 L 14.0,151.0 L 19.0,153.0 L 59.0,163.0 L 73.0,167.0 L 90.0,171.0 L 108.0,176.0 L 144.0,185.0 L 151.0,186.0 L 153.0,180.0 L 160.0,153.0 L 167.0,126.0 L 175.0,95.0 L 182.0,68.0 L 186.0,54.0 L 186.0,49.0 L 162.0,42.0 L 141.0,37.0 L 126.0,33.0 L 100.0,26.0 L 83.0,22.0 L 68.0,18.0 L 54.0,14.0 L 49.0,14.0" fill="#FCFCFC"/>
	<path d="M 45.0,5.0 L 54.0,7.0 L 75.0,12.0 L 89.0,16.0 L 133.0,27.0 L 151.0,32.0 L 191.0,42.0 L 195.0,45.0 L 193.0,54.0 L 188.0,75.0 L 183.0,93.0 L 173.0,133.0 L 169.0,147.0 L 158.0,191.0 L 155.0,195.0 L 146.0,193.0 L 125.0,188.0 L 110.0,184.0 L 79.0,176.0 L 52.0,169.0 L 25.0,162.0 L 7.0,157.0 L 5.0,155.0 L 7.0,146.0 L 12.0,125.0 L 16.0,110.0 L 23.0,83.0 L 31.0,52.0 L 38.0,25.0 L 43.0,7.0 L 45.0,5.0 M 49.0,14.0 L 46.0,23.0 L 37.0,59.0 L 32.0,77.0 L 22.0,117.0 L 18.0,131.0 L 14.0,146.0 L 14.0,151.0 L 19.0,153.0 L 59.0,163.0 L 73.0,167.0 L 90.0,171.0 L 108.0,176.0 L 144.0,185.0 L 151.0,186.0 L 153.0,180.0 L 160.0,153.0 L 167.0,126.0 L 175.0,95.0 L 182.0,68.0 L 186.0,54.0 L 186.0,49.0 L 162.0,42.0 L 141.0,37.0 L 126.0,33.0 L 100.0,26.0 L 83.0,22.0 L 68.0,18.0 L 54.0,14.0 L 49.0,14.0" fill="#0B0B0B"/>
</svg>
