<?xml version="1.0" ?>
<svg baseProfile="full" height="600px" version="1.1" viewBox="-20.1 -20.1 240.2 240.2" width="600px" xmlns="http://www.w3.org/2000/svg" xmlns:ev="http://www.w3.org/2001/xml-events" xmlns:xlink="http://www.w3.org/1999/xlink">
	<defs/>
	<path d="M 0.0,0.0 L 200.0,0.0 L 200.0,200.0 L 0.0,200.0 L 0.0,0.0" fill="#FDFDFD"/>
	<path d="M 191.0,144.0 L 196.0,145.0 L 197.0,149.0 L 191.0,153.0 L 174.0,158.0 L 141.0,169.0 L 136.0,168.0 L 135.0,164.0 L 139.0,161.0 L 191.0,144.0" fill="#0B0B0B"/>
	<path d="M 59.0,31.0 L 64.0,32.0 L 65.0,36.0 L 61.0,39.0 L 28.0,50.0 L 11.0,55.0 L 5.0,56.0 L 3.0,54.0 L 4.0,50.0 L 9.0,47.0 L 22.0,43.0 L 59.0,31.0" fill="#0B0B0B"/>
	<path d="M 146.0,3.0 L 151.0,4.0 L 163.0,40.0 L 169.0,59.0 L 168.0,64.0 L 164.0,65.0 L 161.0,60.0 L 145.0,11.0 L 144.0,5.0 L 146.0,3.0" fill="#0B0B0B"/>
	<path d="M 33.0,135.0 L 37.0,136.0 L 42.0,148.0 L 56.0,191.0 L 55.0,196.0 L 51.0,197.0 L 48.0,193.0 L 36.0,157.0 L 32.0,143.0 L 31.0,137.0 L 33.0,135.0" fill="#0A0A0A"/>
</svg>
