<?xml version="1.0" ?>
<svg baseProfile="full" height="600px" version="1.1" viewBox="-20.1 -20.1 240.2 240.2" width="600px" xmlns="http://www.w3.org/2000/svg" xmlns:ev="http://www.w3.org/2001/xml-events" xmlns:xlink="http://www.w3.org/1999/xlink">
	<defs/>
	<path d="M 0.0,0.0 L 200.0,0.0 L 200.0,200.0 L 0.0,200.0 L 0.0,0.0" fill="#FDFDFD"/>
	<path d="M 178.0,181.0 L 183.0,181.0 L 185.0,183.0 L 185.0,188.0 L 184.0,189.0 L 177.0,189.0 L 176.0,188.0 L 176.0,183.0 L 178.0,181.0" fill="#101010"/>
	<path d="M 12.0,176.0 L 17.0,176.0 L 19.0,178.0 L 19.0,183.0 L 17.0,185.0 L 12.0,185.0 L 11.0,184.0 L 11.0,177.0 L 12.0,176.0" fill="#101010"/>
	<path d="M 183.0,15.0 L 188.0,15.0 L 189.0,16.0 L 189.0,23.0 L 188.0,24.0 L 183.0,24.0 L 181.0,22.0 L 181.0,17.0 L 183.0,15.0" fill="#101010"/>
	<path d="M 16.0,11.0 L 23.0,11.0 L 24.0,12.0 L 24.0,17.0 L 22.0,19.0 L 17.0,19.0 L 15.0,17.0 L 15.0,12.0 L 16.0,11.0" fill="#101010"/>
</svg>
