<?xml version="1.0" ?>
<svg baseProfile="full" height="600px" version="1.1" viewBox="-20.1 -20.1 240.2 240.2" width="600px" xmlns="http://www.w3.org/2000/svg" xmlns:ev="http://www.w3.org/2001/xml-events" xmlns:xlink="http://www.w3.org/1999/xlink">
	<defs/>
	<path d="M 0.0,0.0 L 200.0,0.0 L 200.0,200.0 L 0.0,200.0 L 0.0,0.0" fill="#FDFDFD"/>
	<path d="M 172.0,177.0 L 188.0,177.0 L 190.0,179.0 L 189.0,183.0 L 187.0,185.0 L 172.0,185.0 L 170.0,183.0 L 171.0,178.0 L 172.0,177.0" fill="#131313"/>
	<path d="M 17.0,170.0 L 22.0,171.0 L 23.0,172.0 L 23.0,188.0 L 21.0,190.0 L 17.0,189.0 L 15.0,187.0 L 15.0,172.0 L 17.0,170.0" fill="#131313"/>
	<path d="M 13.0,15.0 L 28.0,15.0 L 30.0,17.0 L 29.0,22.0 L 28.0,23.0 L 12.0,23.0 L 10.0,21.0 L 11.0,17.0 L 13.0,15.0" fill="#131313"/>
	<path d="M 179.0,10.0 L 183.0,11.0 L 185.0,13.0 L 185.0,28.0 L 183.0,30.0 L 178.0,29.0 L 177.0,28.0 L 177.0,12.0 L 179.0,10.0" fill="#131313"/>
</svg>
