<?xml version="1.0" ?>
<svg baseProfile="full" height="600px" version="1.1" viewBox="-20.1 -20.1 240.2 240.2" width="600px" xmlns="http://www.w3.org/2000/svg" xmlns:ev="http://www.w3.org/2001/xml-events" xmlns:xlink="http://www.w3.org/1999/xlink">
	<defs/>
	<path d="M 0.0,0.0 L 200.0,0.0 L 200.0,200.0 L 0.0,200.0 L 0.0,0.0" fill="#FDFDFD"/>
	<path d="M 128.0,189.0 L 133.0,190.0 L 134.0,195.0 L 133.0,196.0 L 128.0,196.0 L 126.0,194.0 L 127.0,190.0 L 128.0,189.0" fill="#131313"/>
	<path d="M 6.0,126.0 L 10.0,127.0 L 11.0,131.0 L 9.0,134.0 L 4.0,133.0 L 4.0,128.0 L 6.0,126.0" fill="#121212"/>
	<path d="M 191.0,66.0 L 196.0,67.0 L 196.0,72.0 L 194.0,74.0 L 190.0,73.0 L 189.0,69.0 L 191.0,66.0" fill="#121212"/>
	<path d="M 67.0,4.0 L 72.0,4.0 L 74.0,6.0 L 73.0,10.0 L 69.0,11.0 L 66.0,9.0 L 67.0,4.0" fill="#131313"/>
</svg>
