<?xml version="1.0" ?>
<svg baseProfile="full" height="600px" version="1.1" viewBox="-12.864 -12.864 153.728 153.728" width="600px" xmlns="http://www.w3.org/2000/svg" xmlns:ev="http://www.w3.org/2001/xml-events" xmlns:xlink="http://www.w3.org/1999/xlink">
	<defs/>
	<path d="M 0.0,0.0 L 128.0,0.0 L 128.0,128.0 L 0.0,128.0 L 0.0,0.0" fill="#FCFCFC"/>
	<path d="M 85.0,15.0 L 88.0,15.0 L 94.0,31.0 L 113.0,85.0 L 113.0,88.0 L 65.0,105.0 L 43.0,113.0 L 40.0,113.0 L 23.0,65.0 L 15.0,43.0 L 15.0,40.0 L 31.0,34.0 L 74.0,19.0 L 85.0,15.0" fill="#FBFBFB"/>
	<path d="M 85.0,15.0 L 88.0,15.0 L 94.0,31.0 L 113.0,85.0 L 113.0,88.0 L 65.0,105.0 L 43.0,113.0 L 40.0,113.0 L 23.0,65.0 L 15.0,43.0 L 15.0,40.0 L 31.0,34.0 L 74.0,19.0 L 85.0,15.0 M 81.0,24.0 L 24.0,44.0 L 27.0,55.0 L 44.0,103.0 L 47.0,104.0 L 95.0,87.0 L 104.0,84.0 L 102.0,75.0 L 84.0,24.0 L 81.0,24.0" fill="#090909"/>
</svg>
