<?xml version="1.0" ?>
<svg baseProfile="full" height="600px" version="1.1" viewBox="-20.1 -20.1 240.2 240.2" width="600px" xmlns="http://www.w3.org/2000/svg" xmlns:ev="http://www.w3.org/2001/xml-events" xmlns:xlink="http://www.w3.org/1999/xlink">
	<defs/>
	<path d="M 0.0,0.0 L 200.0,0.0 L 200.0,200.0 L 0.0,200.0 L 0.0,0.0" fill="#FDFDFD"/>
	<path d="M 99.0,4.0 L 101.0,4.0 L 121.0,56.0 L 126.0,69.0 L 185.0,72.0 L 196.0,73.0 L 191.0,78.0 L 177.0,90.0 L 163.0,101.0 L 150.0,112.0 L 143.0,117.0 L 143.0,123.0 L 149.0,144.0 L 155.0,168.0 L 159.0,183.0 L 158.0,186.0 L 142.0,176.0 L 119.0,161.0 L 102.0,150.0 L 96.0,151.0 L 81.0,161.0 L 64.0,172.0 L 47.0,183.0 L 41.0,186.0 L 43.0,174.0 L 50.0,148.0 L 56.0,125.0 L 57.0,123.0 L 57.0,117.0 L 47.0,109.0 L 31.0,96.0 L 15.0,83.0 L 4.0,74.0 L 4.0,73.0 L 50.0,70.0 L 74.0,69.0 L 92.0,22.0 L 99.0,4.0" fill="#020202"/>
</svg>
