<?xml version="1.0" ?>
<svg baseProfile="full" height="600px" version="1.1" viewBox="-20.1 -20.1 240.2 240.2" width="600px" xmlns="http://www.w3.org/2000/svg" xmlns:ev="http://www.w3.org/2001/xml-events" xmlns:xlink="http://www.w3.org/1999/xlink">
	<defs/>
	<path d="M 0.0,0.0 L 200.0,0.0 L 200.0,200.0 L 0.0,200.0 L 0.0,0.0" fill="#FDFDFD"/>
	<path d="M 94.0,23.0 L 106.0,23.0 L 122.0,64.0 L 124.0,69.0 L 124.0,72.0 L 143.0,72.0 L 166.0,73.0 L 173.0,74.0 L 174.0,77.0 L 176.0,79.0 L 176.0,88.0 L 159.0,102.0 L 145.0,113.0 L 140.0,117.0 L 144.0,133.0 L 149.0,152.0 L 150.0,159.0 L 146.0,161.0 L 147.0,168.0 L 141.0,166.0 L 137.0,168.0 L 132.0,167.0 L 107.0,151.0 L 101.0,147.0 L 96.0,149.0 L 74.0,163.0 L 66.0,168.0 L 61.0,167.0 L 57.0,166.0 L 53.0,168.0 L 54.0,161.0 L 50.0,159.0 L 51.0,153.0 L 57.0,129.0 L 60.0,117.0 L 44.0,104.0 L 28.0,91.0 L 24.0,88.0 L 24.0,78.0 L 26.0,77.0 L 27.0,74.0 L 32.0,73.0 L 69.0,71.0 L 76.0,71.0 L 79.0,61.0 L 94.0,23.0" fill="#020202"/>
</svg>
