<?xml version="1.0" ?>
<svg baseProfile="full" height="600px" version="1.1" viewBox="-16.08 -16.08 192.16 192.16" width="600px" xmlns="http://www.w3.org/2000/svg" xmlns:ev="http://www.w3.org/2001/xml-events" xmlns:xlink="http://www.w3.org/1999/xlink">
	<defs/>
	<path d="M 0.0,0.0 L 160.0,0.0 L 160.0,160.0 L 0.0,160.0 L 0.0,0.0" fill="#FDFDFC"/>
	<path d="M 79.0,8.0 L 81.0,8.0 L 104.0,54.0 L 129.0,58.0 L 156.0,62.0 L 156.0,64.0 L 148.0,71.0 L 126.0,93.0 L 120.0,98.0 L 121.0,112.0 L 127.0,146.0 L 127.0,151.0 L 121.0,149.0 L 94.0,135.0 L 81.0,128.0 L 75.0,130.0 L 52.0,142.0 L 35.0,151.0 L 33.0,151.0 L 35.0,134.0 L 40.0,106.0 L 40.0,98.0 L 25.0,84.0 L 4.0,63.0 L 4.0,62.0 L 44.0,56.0 L 56.0,54.0 L 79.0,8.0" fill="#FDECA2"/>
	<path d="M 79.0,8.0 L 81.0,8.0 L 104.0,54.0 L 129.0,58.0 L 156.0,62.0 L 156.0,64.0 L 148.0,71.0 L 126.0,93.0 L 120.0,98.0 L 121.0,112.0 L 127.0,146.0 L 127.0,151.0 L 121.0,149.0 L 94.0,135.0 L 81.0,128.0 L 75.0,130.0 L 52.0,142.0 L 35.0,151.0 L 33.0,151.0 L 35.0,134.0 L 40.0,106.0 L 40.0,98.0 L 25.0,84.0 L 4.0,63.0 L 4.0,62.0 L 44.0,56.0 L 56.0,54.0 L 79.0,8.0 M 79.0,18.0 L 70.0,35.0 L 61.0,54.0 L 59.0,58.0 L 17.0,64.0 L 13.0,66.0 L 43.0,96.0 L 45.0,97.0 L 44.0,107.0 L 39.0,136.0 L 39.0,143.0 L 45.0,141.0 L 67.0,130.0 L 78.0,124.0 L 84.0,125.0 L 113.0,140.0 L 120.0,144.0 L 122.0,144.0 L 116.0,106.0 L 115.0,98.0 L 147.0,66.0 L 147.0,65.0 L 128.0,62.0 L 102.0,58.0 L 96.0,48.0 L 87.0,29.0 L 81.0,18.0 L 79.0,18.0" fill="#BFA252"/>
	<path d="M 117.0,4.0 L 121.0,5.0 L 119.0,11.0 L 117.0,14.0 L 113.0,13.0 L 115.0,7.0 L 117.0,4.0" fill="#C1A65C"/>
	<path d="M 41.0,4.0 L 43.0,4.0 L 46.0,13.0 L 42.0,14.0 L 39.0,8.0 L 39.0,5.0 L 41.0,4.0" fill="#C1A55A"/>
	<path d="M 25.0,20.0 L 27.0,20.0 L 31.0,25.0 L 31.0,28.0 L 28.0,29.0 L 23.0,23.0 L 25.0,20.0" fill="#C1A55A"/>
	<path d="M 133.0,20.0 L 136.0,22.0 L 134.0,26.0 L 132.0,29.0 L 128.0,27.0 L 132.0,21.0 L 133.0,20.0" fill="#BFA255"/>
	<path d="M 147.0,109.0 L 152.0,110.0 L 153.0,113.0 L 151.0,115.0 L 146.0,113.0 L 147.0,109.0" fill="#C1A55B"/>
	<path d="M 10.0,109.0 L 13.0,109.0 L 14.0,112.0 L 8.0,115.0 L 7.0,111.0 L 10.0,109.0" fill="#BFA254"/>
	<path d="M 11.0,37.0 L 15.0,38.0 L 16.0,40.0 L 15.0,42.0 L 11.0,41.0 L 11.0,37.0" fill="#BFA256"/>
	<path d="M 78.0,150.0 L 82.0,150.0 L 82.0,155.0 L 78.0,155.0 L 78.0,150.0" fill="#BA9B48"/>
	<path d="M 153.0,85.0 L 158.0,85.0 L 158.0,89.0 L 153.0,89.0 L 153.0,85.0" fill="#C4A962"/>
	<path d="M 2.0,85.0 L 7.0,85.0 L 7.0,89.0 L 2.0,89.0 L 2.0,85.0" fill="#C4A961"/>
	<path d="M 146.0,37.0 L 150.0,39.0 L 147.0,42.0 L 144.0,41.0 L 144.0,38.0 L 146.0,37.0" fill="#BFA255"/>
	<path d="M 135.0,127.0 L 139.0,128.0 L 137.0,132.0 L 134.0,130.0 L 135.0,127.0" fill="#C5AC66"/>
</svg>
