<?xml version="1.0" ?>
<svg baseProfile="full" height="600px" version="1.1" viewBox="-12.864 -12.864 153.728 153.728" width="600px" xmlns="http://www.w3.org/2000/svg" xmlns:ev="http://www.w3.org/2001/xml-events" xmlns:xlink="http://www.w3.org/1999/xlink">
	<defs/>
	<path d="M 0.0,0.0 L 128.0,0.0 L 128.0,128.0 L 0.0,128.0 L 0.0,0.0" fill="#FCFCFC"/>
	<path d="M 63.0,12.0 L 65.0,12.0 L 80.0,46.0 L 104.0,49.0 L 117.0,50.0 L 117.0,53.0 L 105.0,64.0 L 97.0,71.0 L 91.0,76.0 L 92.0,86.0 L 97.0,108.0 L 97.0,114.0 L 92.0,112.0 L 67.0,98.0 L 62.0,97.0 L 43.0,108.0 L 33.0,114.0 L 31.0,114.0 L 32.0,105.0 L 37.0,80.0 L 36.0,75.0 L 26.0,66.0 L 16.0,57.0 L 10.0,52.0 L 14.0,50.0 L 48.0,46.0 L 63.0,12.0" fill="#080808"/>
	<path d="M 63.0,31.0 L 65.0,31.0 L 74.0,51.0 L 74.0,54.0 L 90.0,55.0 L 100.0,56.0 L 99.0,59.0 L 91.0,66.0 L 82.0,74.0 L 86.0,95.0 L 85.0,99.0 L 65.0,88.0 L 59.0,90.0 L 44.0,99.0 L 42.0,99.0 L 43.0,90.0 L 46.0,74.0 L 31.0,60.0 L 28.0,58.0 L 28.0,56.0 L 54.0,54.0 L 55.0,49.0 L 63.0,31.0" fill="#F7F7F7"/>
	<path d="M 63.0,53.0 L 65.0,53.0 L 67.0,57.0 L 67.0,60.0 L 76.0,61.0 L 71.0,67.0 L 71.0,75.0 L 66.0,73.0 L 61.0,74.0 L 57.0,75.0 L 57.0,67.0 L 52.0,61.0 L 61.0,60.0 L 62.0,55.0 L 63.0,53.0" fill="#0C0C0C"/>
</svg>
