<?xml version="1.0" ?>
<svg baseProfile="full" height="600px" version="1.1" viewBox="-20.1 -20.1 240.2 240.2" width="600px" xmlns="http://www.w3.org/2000/svg" xmlns:ev="http://www.w3.org/2001/xml-events" xmlns:xlink="http://www.w3.org/1999/xlink">
	<defs/>
	<path d="M 0.0,0.0 L 200.0,0.0 L 200.0,200.0 L 0.0,200.0 L 0.0,0.0" fill="#040404"/>
	<path d="M 199.0,76.0 L 200.0,76.0 L 200.0,200.0 L 0.0,200.0 L 0.0,77.0 L 4.0,79.0 L 15.0,88.0 L 31.0,101.0 L 35.0,105.0 L 30.0,107.0 L 31.0,112.0 L 37.0,112.0 L 41.0,109.0 L 52.0,118.0 L 54.0,120.0 L 52.0,131.0 L 47.0,151.0 L 45.0,153.0 L 40.0,152.0 L 38.0,154.0 L 39.0,159.0 L 44.0,159.0 L 42.0,168.0 L 35.0,195.0 L 52.0,184.0 L 69.0,173.0 L 73.0,171.0 L 74.0,175.0 L 80.0,176.0 L 80.0,166.0 L 95.0,156.0 L 96.0,156.0 L 97.0,163.0 L 102.0,164.0 L 104.0,157.0 L 109.0,159.0 L 120.0,166.0 L 120.0,176.0 L 126.0,175.0 L 128.0,171.0 L 148.0,184.0 L 165.0,195.0 L 158.0,168.0 L 156.0,159.0 L 161.0,159.0 L 162.0,154.0 L 160.0,152.0 L 154.0,153.0 L 149.0,136.0 L 146.0,123.0 L 147.0,119.0 L 160.0,108.0 L 163.0,112.0 L 169.0,112.0 L 170.0,107.0 L 165.0,105.0 L 170.0,100.0 L 187.0,86.0 L 198.0,77.0 L 199.0,76.0" fill="#FCFCFC"/>
	<path d="M 0.0,0.0 L 97.0,0.0 L 94.0,10.0 L 79.0,49.0 L 73.0,65.0 L 72.0,67.0 L 59.0,68.0 L 39.0,68.0 L 38.0,62.0 L 32.0,61.0 L 31.0,66.0 L 34.0,69.0 L 17.0,70.0 L 0.0,70.0 L 0.0,0.0" fill="#FCFCFC"/>
	<path d="M 103.0,0.0 L 200.0,0.0 L 200.0,70.0 L 181.0,70.0 L 166.0,69.0 L 169.0,66.0 L 168.0,61.0 L 162.0,62.0 L 161.0,68.0 L 144.0,68.0 L 128.0,67.0 L 114.0,31.0 L 103.0,3.0 L 103.0,0.0" fill="#FCFCFC"/>
	<path d="M 139.0,134.0 L 141.0,135.0 L 148.0,163.0 L 151.0,173.0 L 150.0,176.0 L 135.0,166.0 L 118.0,155.0 L 112.0,151.0 L 116.0,149.0 L 128.0,143.0 L 138.0,135.0 L 139.0,134.0" fill="#F7F7F7"/>
	<path d="M 60.0,134.0 L 68.0,140.0 L 77.0,146.0 L 88.0,150.0 L 84.0,154.0 L 66.0,165.0 L 50.0,176.0 L 49.0,172.0 L 53.0,159.0 L 59.0,135.0 L 60.0,134.0" fill="#F7F7F7"/>
	<path d="M 41.0,77.0 L 53.0,77.0 L 50.0,88.0 L 48.0,103.0 L 43.0,100.0 L 26.0,86.0 L 17.0,79.0 L 17.0,78.0 L 41.0,77.0" fill="#F8F8F8"/>
	<path d="M 147.0,77.0 L 159.0,77.0 L 182.0,78.0 L 182.0,80.0 L 168.0,91.0 L 155.0,102.0 L 152.0,103.0 L 150.0,88.0 L 147.0,77.0" fill="#F9F9F9"/>
	<path d="M 99.0,19.0 L 101.0,19.0 L 111.0,45.0 L 111.0,49.0 L 89.0,49.0 L 90.0,43.0 L 99.0,19.0" fill="#F5F5F5"/>
	<path d="M 139.0,55.0 L 144.0,56.0 L 145.0,61.0 L 140.0,66.0 L 135.0,65.0 L 134.0,60.0 L 139.0,55.0" fill="#131313"/>
	<path d="M 58.0,55.0 L 62.0,56.0 L 66.0,60.0 L 65.0,65.0 L 60.0,66.0 L 55.0,61.0 L 56.0,56.0 L 58.0,55.0" fill="#141414"/>
	<path d="M 46.0,122.0 L 51.0,123.0 L 52.0,128.0 L 48.0,131.0 L 43.0,131.0 L 41.0,129.0 L 42.0,124.0 L 46.0,122.0" fill="#0C0C0C"/>
	<path d="M 126.0,44.0 L 131.0,44.0 L 133.0,46.0 L 132.0,51.0 L 130.0,54.0 L 125.0,54.0 L 123.0,52.0 L 124.0,47.0 L 126.0,44.0" fill="#0B0B0B"/>
	<path d="M 69.0,44.0 L 74.0,44.0 L 77.0,48.0 L 76.0,53.0 L 75.0,54.0 L 70.0,54.0 L 67.0,49.0 L 68.0,45.0 L 69.0,44.0" fill="#0C0C0C"/>
	<path d="M 150.0,122.0 L 156.0,123.0 L 159.0,126.0 L 158.0,130.0 L 157.0,131.0 L 150.0,130.0 L 148.0,128.0 L 149.0,123.0 L 150.0,122.0" fill="#0A0A0A"/>
	<path d="M 164.0,60.0 L 169.0,61.0 L 170.0,66.0 L 166.0,69.0 L 157.0,69.0 L 161.0,68.0 L 161.0,62.0 L 164.0,60.0" fill="#151515"/>
	<path d="M 32.0,60.0 L 38.0,61.0 L 39.0,62.0 L 39.0,68.0 L 42.0,69.0 L 34.0,69.0 L 30.0,66.0 L 31.0,61.0 L 32.0,60.0" fill="#141414"/>
</svg>
