<?xml version="1.0" ?>
<svg baseProfile="full" height="600px" version="1.1" viewBox="-12.864 -12.864 153.728 153.728" width="600px" xmlns="http://www.w3.org/2000/svg" xmlns:ev="http://www.w3.org/2001/xml-events" xmlns:xlink="http://www.w3.org/1999/xlink">
	<defs/>
	<path d="M 0.0,0.0 L 128.0,0.0 L 128.0,128.0 L 0.0,128.0 L 0.0,0.0" fill="#FCFCFC"/>
	<path d="M 63.0,9.0 L 65.0,9.0 L 81.0,45.0 L 97.0,47.0 L 121.0,50.0 L 116.0,56.0 L 108.0,63.0 L 96.0,74.0 L 92.0,77.0 L 93.0,85.0 L 99.0,112.0 L 99.0,117.0 L 94.0,115.0 L 66.0,99.0 L 60.0,100.0 L 32.0,116.0 L 29.0,117.0 L 30.0,109.0 L 36.0,80.0 L 35.0,76.0 L 25.0,67.0 L 15.0,58.0 L 7.0,51.0 L 11.0,49.0 L 42.0,46.0 L 47.0,45.0 L 63.0,9.0" fill="#080808"/>
	<path d="M 63.0,29.0 L 65.0,29.0 L 75.0,52.0 L 75.0,54.0 L 97.0,55.0 L 102.0,56.0 L 96.0,63.0 L 86.0,72.0 L 83.0,74.0 L 85.0,85.0 L 87.0,96.0 L 87.0,101.0 L 75.0,95.0 L 65.0,89.0 L 59.0,91.0 L 42.0,101.0 L 41.0,101.0 L 42.0,91.0 L 45.0,77.0 L 45.0,74.0 L 37.0,67.0 L 26.0,57.0 L 26.0,56.0 L 43.0,54.0 L 53.0,54.0 L 56.0,45.0 L 63.0,29.0" fill="#FAFAFA"/>
</svg>
