<?xml version="1.0" ?>
<svg baseProfile="full" height="600px" version="1.1" viewBox="-12.864 -12.864 153.728 153.728" width="600px" xmlns="http://www.w3.org/2000/svg" xmlns:ev="http://www.w3.org/2001/xml-events" xmlns:xlink="http://www.w3.org/1999/xlink">
	<defs/>
	<path d="M 0.0,0.0 L 128.0,0.0 L 128.0,128.0 L 0.0,128.0 L 0.0,0.0" fill="#FCFCFC"/>
	<path d="M 63.0,11.0 L 65.0,11.0 L 80.0,45.0 L 80.0,47.0 L 90.0,47.0 L 119.0,50.0 L 119.0,52.0 L 111.0,59.0 L 101.0,68.0 L 91.0,77.0 L 93.0,88.0 L 98.0,113.0 L 98.0,115.0 L 93.0,113.0 L 75.0,103.0 L 65.0,97.0 L 60.0,99.0 L 42.0,109.0 L 32.0,115.0 L 30.0,115.0 L 31.0,107.0 L 37.0,80.0 L 36.0,76.0 L 20.0,61.0 L 12.0,54.0 L 9.0,52.0 L 9.0,50.0 L 37.0,47.0 L 48.0,47.0 L 51.0,38.0 L 62.0,14.0 L 63.0,11.0" fill="#080808"/>
	<path d="M 63.0,31.0 L 65.0,31.0 L 75.0,53.0 L 100.0,56.0 L 98.0,60.0 L 85.0,72.0 L 83.0,73.0 L 83.0,80.0 L 87.0,97.0 L 87.0,100.0 L 82.0,98.0 L 65.0,88.0 L 60.0,90.0 L 44.0,99.0 L 41.0,100.0 L 43.0,88.0 L 45.0,78.0 L 45.0,73.0 L 37.0,66.0 L 27.0,57.0 L 27.0,56.0 L 53.0,53.0 L 63.0,31.0" fill="#EFEFEF"/>
	<path d="M 63.0,40.0 L 65.0,40.0 L 71.0,54.0 L 71.0,56.0 L 85.0,57.0 L 90.0,58.0 L 85.0,63.0 L 78.0,70.0 L 78.0,77.0 L 80.0,85.0 L 79.0,89.0 L 66.0,81.0 L 61.0,82.0 L 48.0,89.0 L 50.0,77.0 L 50.0,70.0 L 42.0,62.0 L 38.0,58.0 L 52.0,56.0 L 57.0,56.0 L 60.0,47.0 L 63.0,40.0" fill="#070707"/>
</svg>
