<?xml version="1.0" ?>
<svg baseProfile="full" height="600px" version="1.1" viewBox="-9.648000000000001 -9.648000000000001 115.296 115.296" width="600px" xmlns="http://www.w3.org/2000/svg" xmlns:ev="http://www.w3.org/2001/xml-events" xmlns:xlink="http://www.w3.org/1999/xlink">
	<defs/>
	<path d="M 0.0,0.0 L 96.0,0.0 L 96.0,96.0 L 0.0,96.0 L 0.0,0.0" fill="#FCFCFC"/>
	<path d="M 47.0,7.0 L 49.0,7.0 L 59.0,35.0 L 90.0,36.0 L 90.0,38.0 L 79.0,46.0 L 67.0,55.0 L 68.0,63.0 L 74.0,83.0 L 73.0,86.0 L 61.0,78.0 L 49.0,70.0 L 44.0,72.0 L 32.0,80.0 L 24.0,86.0 L 22.0,86.0 L 24.0,76.0 L 29.0,59.0 L 29.0,55.0 L 12.0,42.0 L 6.0,38.0 L 6.0,36.0 L 37.0,35.0 L 47.0,7.0" fill="#070707"/>
	<path d="M 47.0,38.0 L 49.0,38.0 L 51.0,44.0 L 59.0,45.0 L 59.0,47.0 L 54.0,51.0 L 55.0,59.0 L 49.0,56.0 L 44.0,58.0 L 41.0,59.0 L 42.0,51.0 L 37.0,46.0 L 45.0,46.0 L 47.0,38.0" fill="#EAEAEA"/>
</svg>
