<?xml version="1.0" ?>
<svg baseProfile="full" height="600px" version="1.1" viewBox="-9.648000000000001 -9.648000000000001 115.296 115.296" width="600px" xmlns="http://www.w3.org/2000/svg" xmlns:ev="http://www.w3.org/2001/xml-events" xmlns:xlink="http://www.w3.org/1999/xlink">
	<defs/>
	<path d="M 0.0,0.0 L 96.0,0.0 L 96.0,96.0 L 0.0,96.0 L 0.0,0.0" fill="#FCFCFC"/>
	<path d="M 47.0,3.0 L 49.0,3.0 L 60.0,34.0 L 94.0,35.0 L 89.0,40.0 L 74.0,52.0 L 68.0,56.0 L 70.0,65.0 L 76.0,85.0 L 76.0,89.0 L 71.0,87.0 L 60.0,79.0 L 50.0,72.0 L 45.0,73.0 L 26.0,86.0 L 22.0,89.0 L 20.0,89.0 L 21.0,82.0 L 28.0,59.0 L 28.0,56.0 L 16.0,47.0 L 3.0,37.0 L 2.0,35.0 L 36.0,34.0 L 47.0,3.0" fill="#050505"/>
	<path d="M 47.0,42.0 L 49.0,42.0 L 50.0,47.0 L 54.0,48.0 L 52.0,51.0 L 51.0,55.0 L 46.0,54.0 L 44.0,55.0 L 44.0,50.0 L 41.0,48.0 L 41.0,46.0 L 46.0,45.0 L 47.0,42.0" fill="#E0E0E0"/>
</svg>
