<?xml version="1.0" ?>
<svg baseProfile="full" height="600px" version="1.1" viewBox="-19.296000000000003 -19.296000000000003 230.592 230.592" width="600px" xmlns="http://www.w3.org/2000/svg" xmlns:ev="http://www.w3.org/2001/xml-events" xmlns:xlink="http://www.w3.org/1999/xlink">
	<defs/>
	<path d="M 0.0,0.0 L 192.0,0.0 L 192.0,192.0 L 0.0,192.0 L 0.0,0.0" fill="#FEFDFD"/>
	<path d="M 95.0,17.0 L 97.0,17.0 L 114.0,51.0 L 122.0,68.0 L 150.0,72.0 L 180.0,77.0 L 174.0,84.0 L 164.0,93.0 L 139.0,118.0 L 145.0,154.0 L 148.0,176.0 L 132.0,168.0 L 101.0,152.0 L 98.0,150.0 L 92.0,151.0 L 69.0,163.0 L 51.0,173.0 L 44.0,176.0 L 47.0,154.0 L 53.0,118.0 L 21.0,86.0 L 13.0,79.0 L 12.0,77.0 L 32.0,74.0 L 49.0,71.0 L 70.0,68.0 L 84.0,39.0 L 95.0,17.0" fill="#FECA2A"/>
</svg>
