<?xml version="1.0" ?>
<svg baseProfile="full" height="600px" version="1.1" viewBox="-19.296000000000003 -19.296000000000003 230.592 230.592" width="600px" xmlns="http://www.w3.org/2000/svg" xmlns:ev="http://www.w3.org/2001/xml-events" xmlns:xlink="http://www.w3.org/1999/xlink">
	<defs/>
	<path d="M 0.0,0.0 L 192.0,0.0 L 192.0,192.0 L 0.0,192.0 L 0.0,0.0" fill="#FEFDFC"/>
	<path d="M 95.0,17.0 L 97.0,17.0 L 114.0,51.0 L 122.0,68.0 L 150.0,72.0 L 180.0,77.0 L 174.0,84.0 L 164.0,93.0 L 139.0,118.0 L 145.0,154.0 L 148.0,176.0 L 132.0,168.0 L 101.0,152.0 L 98.0,150.0 L 92.0,151.0 L 81.0,157.0 L 86.0,162.0 L 86.0,170.0 L 81.0,174.0 L 74.0,173.0 L 71.0,169.0 L 71.0,162.0 L 51.0,173.0 L 44.0,176.0 L 46.0,160.0 L 53.0,119.0 L 47.0,112.0 L 21.0,86.0 L 13.0,79.0 L 12.0,77.0 L 32.0,74.0 L 49.0,71.0 L 70.0,68.0 L 84.0,39.0 L 95.0,17.0" fill="#FECA2A"/>
	<path d="M 162.0,169.0 L 168.0,169.0 L 173.0,174.0 L 173.0,180.0 L 168.0,185.0 L 162.0,185.0 L 157.0,180.0 L 157.0,174.0 L 162.0,169.0" fill="#FF9C0A"/>
	<path d="M 105.0,172.0 L 112.0,172.0 L 117.0,177.0 L 117.0,183.0 L 113.0,187.0 L 106.0,188.0 L 101.0,183.0 L 101.0,177.0 L 105.0,172.0" fill="#FF440A"/>
	<path d="M 8.0,143.0 L 16.0,144.0 L 19.0,148.0 L 18.0,156.0 L 14.0,159.0 L 8.0,159.0 L 3.0,154.0 L 3.0,148.0 L 8.0,143.0" fill="#48A8F5"/>
	<path d="M 169.0,46.0 L 176.0,46.0 L 180.0,50.0 L 180.0,57.0 L 175.0,62.0 L 168.0,61.0 L 164.0,56.0 L 165.0,49.0 L 169.0,46.0" fill="#FF440A"/>
	<path d="M 28.0,15.0 L 36.0,15.0 L 40.0,19.0 L 40.0,26.0 L 36.0,30.0 L 28.0,30.0 L 24.0,25.0 L 25.0,18.0 L 28.0,15.0" fill="#FF4308"/>
	<path d="M 135.0,37.0 L 142.0,38.0 L 146.0,42.0 L 146.0,48.0 L 141.0,53.0 L 135.0,53.0 L 131.0,49.0 L 130.0,42.0 L 135.0,37.0" fill="#FF9D0D"/>
	<path d="M 171.0,137.0 L 178.0,138.0 L 181.0,141.0 L 181.0,149.0 L 176.0,153.0 L 169.0,152.0 L 166.0,148.0 L 166.0,142.0 L 171.0,137.0" fill="#49A8F5"/>
	<path d="M 65.0,31.0 L 73.0,31.0 L 77.0,36.0 L 76.0,43.0 L 72.0,46.0 L 66.0,46.0 L 61.0,41.0 L 62.0,34.0 L 65.0,31.0" fill="#49A8F5"/>
	<path d="M 40.0,45.0 L 46.0,45.0 L 51.0,50.0 L 50.0,57.0 L 47.0,60.0 L 39.0,60.0 L 35.0,55.0 L 36.0,48.0 L 40.0,45.0" fill="#FF9C09"/>
	<path d="M 77.0,158.0 L 83.0,159.0 L 86.0,162.0 L 86.0,170.0 L 81.0,174.0 L 74.0,173.0 L 71.0,169.0 L 71.0,163.0 L 75.0,159.0 L 77.0,158.0" fill="#48C456"/>
	<path d="M 146.0,122.0 L 152.0,122.0 L 157.0,126.0 L 157.0,133.0 L 154.0,137.0 L 146.0,137.0 L 142.0,133.0 L 142.0,126.0 L 146.0,122.0" fill="#45C455"/>
	<path d="M 19.0,112.0 L 26.0,112.0 L 30.0,116.0 L 30.0,123.0 L 26.0,127.0 L 19.0,127.0 L 15.0,122.0 L 15.0,116.0 L 19.0,112.0" fill="#44C455"/>
</svg>
