<?xml version="1.0" ?>
<svg baseProfile="full" height="600px" version="1.1" viewBox="-19.296000000000003 -19.296000000000003 230.592 230.592" width="600px" xmlns="http://www.w3.org/2000/svg" xmlns:ev="http://www.w3.org/2001/xml-events" xmlns:xlink="http://www.w3.org/1999/xlink">
	<defs/>
	<path d="M 0.0,0.0 L 192.0,0.0 L 192.0,192.0 L 0.0,192.0 L 0.0,0.0" fill="#FEFDFD"/>
	<path d="M 89.0,67.0 L 102.0,67.0 L 111.0,70.0 L 114.0,73.0 L 115.0,75.0 L 122.0,78.0 L 129.0,88.0 L 131.0,94.0 L 131.0,108.0 L 128.0,111.0 L 127.0,120.0 L 118.0,130.0 L 110.0,135.0 L 100.0,137.0 L 94.0,136.0 L 88.0,137.0 L 78.0,133.0 L 68.0,124.0 L 65.0,120.0 L 64.0,111.0 L 61.0,109.0 L 61.0,95.0 L 65.0,85.0 L 71.0,77.0 L 77.0,75.0 L 79.0,71.0 L 89.0,67.0" fill="#FECA29"/>
	<path d="M 127.0,115.0 L 128.0,115.0 L 134.0,149.0 L 134.0,154.0 L 128.0,152.0 L 101.0,138.0 L 103.0,136.0 L 114.0,132.0 L 124.0,123.0 L 126.0,120.0 L 127.0,115.0" fill="#FEEBAF"/>
	<path d="M 64.0,115.0 L 65.0,115.0 L 67.0,121.0 L 74.0,129.0 L 82.0,134.0 L 91.0,137.0 L 87.0,140.0 L 60.0,154.0 L 58.0,154.0 L 59.0,143.0 L 64.0,115.0" fill="#FEEBB0"/>
	<path d="M 64.0,77.0 L 71.0,77.0 L 65.0,86.0 L 62.0,95.0 L 61.0,108.0 L 54.0,102.0 L 41.0,89.0 L 34.0,83.0 L 37.0,81.0 L 64.0,77.0" fill="#FEEBB0"/>
	<path d="M 95.0,38.0 L 97.0,38.0 L 113.0,70.0 L 111.0,71.0 L 102.0,68.0 L 89.0,68.0 L 80.0,71.0 L 81.0,66.0 L 95.0,38.0" fill="#FEEBB0"/>
	<path d="M 121.0,77.0 L 135.0,78.0 L 155.0,81.0 L 157.0,82.0 L 155.0,86.0 L 147.0,93.0 L 132.0,108.0 L 131.0,108.0 L 130.0,94.0 L 126.0,85.0 L 121.0,77.0" fill="#FEEBB0"/>
</svg>
