<?xml version="1.0" ?>
<svg baseProfile="full" height="600px" version="1.1" viewBox="-16.08 -16.08 192.16 192.16" width="600px" xmlns="http://www.w3.org/2000/svg" xmlns:ev="http://www.w3.org/2001/xml-events" xmlns:xlink="http://www.w3.org/1999/xlink">
	<defs/>
	<path d="M 0.0,0.0 L 160.0,0.0 L 160.0,160.0 L 0.0,160.0 L 0.0,0.0" fill="#F9F9FA"/>
	<path d="M 153.0,12.0 L 156.0,13.0 L 154.0,17.0 L 141.0,30.0 L 132.0,47.0 L 131.0,48.0 L 106.0,49.0 L 100.0,55.0 L 95.0,54.0 L 87.0,46.0 L 83.0,48.0 L 72.0,59.0 L 67.0,59.0 L 57.0,51.0 L 53.0,52.0 L 46.0,59.0 L 48.0,63.0 L 44.0,63.0 L 44.0,60.0 L 36.0,67.0 L 32.0,71.0 L 27.0,70.0 L 22.0,62.0 L 15.0,66.0 L 7.0,72.0 L 4.0,71.0 L 6.0,67.0 L 19.0,57.0 L 24.0,57.0 L 29.0,64.0 L 29.0,66.0 L 34.0,63.0 L 43.0,54.0 L 48.0,49.0 L 52.0,45.0 L 57.0,45.0 L 69.0,54.0 L 73.0,52.0 L 84.0,41.0 L 89.0,42.0 L 97.0,50.0 L 101.0,48.0 L 105.0,44.0 L 129.0,44.0 L 131.0,38.0 L 136.0,29.0 L 153.0,12.0" fill="#527DB6"/>
	<path d="M 4.0,156.0 L 156.0,156.0 L 156.0,160.0 L 4.0,160.0 L 4.0,156.0" fill="#788B9C"/>
	<path d="M 53.0,49.0 L 55.0,50.0 L 48.0,56.0 L 50.0,52.0 L 53.0,49.0 M 46.0,56.0 L 48.0,57.0 L 46.0,59.0 L 48.0,63.0 L 44.0,63.0 L 43.0,59.0 L 46.0,56.0" fill="#A2ABB8"/>
</svg>
