<?xml version="1.0" ?>
<svg baseProfile="full" height="600px" version="1.1" viewBox="-16.08 -16.08 192.16 192.16" width="600px" xmlns="http://www.w3.org/2000/svg" xmlns:ev="http://www.w3.org/2001/xml-events" xmlns:xlink="http://www.w3.org/1999/xlink">
	<defs/>
	<path d="M 0.0,0.0 L 160.0,0.0 L 160.0,160.0 L 0.0,160.0 L 0.0,0.0" fill="#FDFDFD"/>
	<path d="M 48.0,44.0 L 65.0,48.0 L 85.0,53.0 L 103.0,58.0 L 115.0,61.0 L 115.0,99.0 L 85.0,107.0 L 68.0,111.0 L 50.0,116.0 L 48.0,116.0 L 48.0,44.0" fill="#D997A6"/>
	<path d="M 48.0,44.0 L 65.0,48.0 L 85.0,53.0 L 103.0,58.0 L 115.0,61.0 L 115.0,99.0 L 85.0,107.0 L 68.0,111.0 L 50.0,116.0 L 48.0,116.0 L 48.0,44.0 M 52.0,50.0 L 52.0,110.0 L 60.0,109.0 L 96.0,100.0 L 110.0,96.0 L 110.0,64.0 L 83.0,57.0 L 57.0,50.0 L 52.0,50.0" fill="#AD5A6A"/>
</svg>
