<?xml version="1.0" ?>
<svg baseProfile="full" height="600px" version="1.1" viewBox="-12.864 -12.864 153.728 153.728" width="600px" xmlns="http://www.w3.org/2000/svg" xmlns:ev="http://www.w3.org/2001/xml-events" xmlns:xlink="http://www.w3.org/1999/xlink">
	<defs/>
	<path d="M 0.0,0.0 L 128.0,0.0 L 128.0,128.0 L 0.0,128.0 L 0.0,0.0" fill="#FCFCFC"/>
	<path d="M 34.0,33.0 L 66.0,34.0 L 72.0,35.0 L 95.0,37.0 L 95.0,91.0 L 44.0,95.0 L 34.0,95.0 L 34.0,33.0" fill="#FCFCFC"/>
	<path d="M 26.0,24.0 L 41.0,24.0 L 73.0,27.0 L 103.0,29.0 L 103.0,98.0 L 73.0,101.0 L 36.0,104.0 L 26.0,104.0 L 26.0,24.0 M 34.0,33.0 L 34.0,95.0 L 44.0,95.0 L 95.0,91.0 L 95.0,37.0 L 72.0,35.0 L 66.0,34.0 L 34.0,33.0" fill="#060606"/>
</svg>
