<?xml version="1.0" ?>
<svg baseProfile="full" height="600px" version="1.1" viewBox="-19.296000000000003 -19.296000000000003 230.592 230.592" width="600px" xmlns="http://www.w3.org/2000/svg" xmlns:ev="http://www.w3.org/2001/xml-events" xmlns:xlink="http://www.w3.org/1999/xlink">
	<defs/>
	<path d="M 0.0,0.0 L 192.0,0.0 L 192.0,192.0 L 0.0,192.0 L 0.0,0.0" fill="#FDFDFD"/>
	<path d="M 78.0,16.0 L 114.0,16.0 L 116.0,18.0 L 116.0,38.0 L 114.0,40.0 L 108.0,40.0 L 109.0,49.0 L 125.0,54.0 L 132.0,45.0 L 137.0,44.0 L 150.0,54.0 L 152.0,56.0 L 151.0,61.0 L 145.0,70.0 L 152.0,80.0 L 157.0,90.0 L 160.0,102.0 L 160.0,122.0 L 155.0,138.0 L 149.0,149.0 L 138.0,161.0 L 128.0,168.0 L 117.0,173.0 L 106.0,176.0 L 86.0,176.0 L 72.0,172.0 L 59.0,165.0 L 47.0,154.0 L 40.0,144.0 L 35.0,133.0 L 32.0,121.0 L 32.0,102.0 L 37.0,86.0 L 43.0,75.0 L 54.0,63.0 L 64.0,56.0 L 75.0,51.0 L 83.0,49.0 L 84.0,40.0 L 78.0,40.0 L 76.0,38.0 L 76.0,18.0 L 78.0,16.0" fill="#EBECED"/>
	<path d="M 78.0,16.0 L 114.0,16.0 L 116.0,18.0 L 116.0,38.0 L 114.0,40.0 L 108.0,40.0 L 109.0,49.0 L 125.0,54.0 L 132.0,45.0 L 137.0,44.0 L 150.0,54.0 L 152.0,56.0 L 151.0,61.0 L 145.0,70.0 L 152.0,80.0 L 157.0,90.0 L 160.0,102.0 L 160.0,122.0 L 155.0,138.0 L 149.0,149.0 L 138.0,161.0 L 128.0,168.0 L 117.0,173.0 L 106.0,176.0 L 86.0,176.0 L 72.0,172.0 L 59.0,165.0 L 47.0,154.0 L 40.0,144.0 L 35.0,133.0 L 32.0,121.0 L 32.0,102.0 L 37.0,86.0 L 43.0,75.0 L 54.0,63.0 L 64.0,56.0 L 75.0,51.0 L 83.0,49.0 L 84.0,40.0 L 78.0,40.0 L 76.0,38.0 L 76.0,18.0 L 78.0,16.0 M 87.0,60.0 L 75.0,64.0 L 66.0,69.0 L 56.0,78.0 L 49.0,89.0 L 45.0,99.0 L 44.0,103.0 L 44.0,118.0 L 46.0,127.0 L 51.0,139.0 L 58.0,148.0 L 66.0,155.0 L 80.0,162.0 L 87.0,164.0 L 105.0,164.0 L 121.0,158.0 L 131.0,151.0 L 139.0,142.0 L 145.0,130.0 L 148.0,121.0 L 148.0,103.0 L 144.0,91.0 L 137.0,79.0 L 129.0,71.0 L 117.0,64.0 L 109.0,61.0 L 102.0,60.0 L 87.0,60.0" fill="#05ACC0"/>
	<path d="M 78.0,16.0 L 114.0,16.0 L 116.0,18.0 L 116.0,38.0 L 114.0,40.0 L 108.0,40.0 L 108.0,49.0 L 84.0,49.0 L 84.0,40.0 L 78.0,40.0 L 76.0,38.0 L 76.0,18.0 L 78.0,16.0" fill="#90A3AC"/>
	<path d="M 95.0,69.0 L 97.0,69.0 L 103.0,104.0 L 106.0,108.0 L 106.0,116.0 L 101.0,121.0 L 99.0,122.0 L 92.0,122.0 L 87.0,118.0 L 86.0,115.0 L 86.0,108.0 L 90.0,101.0 L 95.0,69.0" fill="#2E3C41"/>
	<path d="M 111.0,16.0 L 115.0,17.0 L 116.0,18.0 L 116.0,38.0 L 114.0,40.0 L 87.0,40.0 L 89.0,39.0 L 89.0,37.0 L 91.0,37.0 L 91.0,35.0 L 93.0,35.0 L 93.0,33.0 L 95.0,33.0 L 95.0,31.0 L 97.0,31.0 L 97.0,29.0 L 99.0,29.0 L 99.0,27.0 L 101.0,27.0 L 101.0,25.0 L 103.0,25.0 L 103.0,23.0 L 105.0,23.0 L 105.0,21.0 L 107.0,21.0 L 107.0,19.0 L 109.0,19.0 L 109.0,17.0 L 111.0,16.0" fill="#90A3AD"/>
	<path d="M 134.0,44.0 L 139.0,45.0 L 152.0,56.0 L 151.0,61.0 L 145.0,69.0 L 141.0,67.0 L 133.0,60.0 L 125.0,55.0 L 131.0,47.0 L 134.0,44.0" fill="#57717D"/>
	<path d="M 84.0,40.0 L 108.0,40.0 L 108.0,49.0 L 84.0,49.0 L 84.0,40.0" fill="#445A64"/>
	<path d="M 94.0,109.0 L 99.0,110.0 L 98.0,115.0 L 93.0,114.0 L 94.0,109.0" fill="#01AABE"/>
</svg>
