<?xml version="1.0" ?>
<svg baseProfile="full" height="600px" version="1.1" viewBox="-20.1 -20.1 240.2 240.2" width="600px" xmlns="http://www.w3.org/2000/svg" xmlns:ev="http://www.w3.org/2001/xml-events" xmlns:xlink="http://www.w3.org/1999/xlink">
	<defs/>
	<path d="M 0.0,0.0 L 200.0,0.0 L 200.0,200.0 L 0.0,200.0 L 0.0,0.0" fill="#FDFDFD"/>
	<path d="M 82.0,16.0 L 95.0,16.0 L 104.0,18.0 L 114.0,23.0 L 123.0,31.0 L 130.0,43.0 L 130.0,46.0 L 136.0,44.0 L 149.0,44.0 L 158.0,46.0 L 169.0,52.0 L 176.0,59.0 L 181.0,67.0 L 184.0,76.0 L 184.0,90.0 L 182.0,98.0 L 176.0,109.0 L 169.0,116.0 L 156.0,123.0 L 150.0,124.0 L 130.0,124.0 L 128.0,122.0 L 129.0,117.0 L 130.0,116.0 L 150.0,115.0 L 162.0,110.0 L 167.0,106.0 L 173.0,96.0 L 175.0,91.0 L 175.0,77.0 L 169.0,65.0 L 164.0,60.0 L 156.0,55.0 L 150.0,53.0 L 137.0,53.0 L 126.0,58.0 L 124.0,58.0 L 121.0,45.0 L 115.0,36.0 L 107.0,29.0 L 96.0,25.0 L 83.0,25.0 L 73.0,29.0 L 63.0,38.0 L 58.0,48.0 L 57.0,51.0 L 57.0,69.0 L 42.0,69.0 L 34.0,73.0 L 27.0,81.0 L 25.0,86.0 L 25.0,97.0 L 30.0,107.0 L 37.0,113.0 L 42.0,115.0 L 66.0,116.0 L 68.0,118.0 L 67.0,123.0 L 66.0,124.0 L 41.0,124.0 L 32.0,120.0 L 24.0,114.0 L 18.0,104.0 L 16.0,97.0 L 16.0,85.0 L 20.0,76.0 L 26.0,68.0 L 35.0,62.0 L 41.0,60.0 L 48.0,60.0 L 48.0,50.0 L 52.0,39.0 L 58.0,30.0 L 66.0,23.0 L 78.0,17.0 L 82.0,16.0" fill="#070707"/>
	<path d="M 105.0,104.0 L 126.0,104.0 L 120.0,111.0 L 100.0,131.0 L 118.0,132.0 L 113.0,137.0 L 98.0,151.0 L 90.0,158.0 L 78.0,169.0 L 75.0,169.0 L 87.0,150.0 L 93.0,141.0 L 78.0,140.0 L 81.0,135.0 L 95.0,117.0 L 105.0,104.0" fill="#080808"/>
	<path d="M 142.0,140.0 L 147.0,141.0 L 148.0,146.0 L 133.0,161.0 L 128.0,160.0 L 127.0,155.0 L 142.0,140.0" fill="#070707"/>
	<path d="M 43.0,139.0 L 48.0,140.0 L 49.0,145.0 L 34.0,160.0 L 29.0,159.0 L 28.0,154.0 L 43.0,139.0" fill="#070707"/>
</svg>
