<?xml version="1.0" ?>
<svg baseProfile="full" height="600px" version="1.1" viewBox="-9.648000000000001 -9.648000000000001 115.296 115.296" width="600px" xmlns="http://www.w3.org/2000/svg" xmlns:ev="http://www.w3.org/2001/xml-events" xmlns:xlink="http://www.w3.org/1999/xlink">
	<defs/>
	<path d="M 0.0,0.0 L 96.0,0.0 L 96.0,96.0 L 0.0,96.0 L 0.0,0.0" fill="#FAFAFA"/>
	<path d="M 41.0,12.0 L 53.0,12.0 L 64.0,16.0 L 72.0,23.0 L 77.0,32.0 L 77.0,36.0 L 84.0,37.0 L 87.0,40.0 L 75.0,40.0 L 73.0,45.0 L 67.0,53.0 L 60.0,53.0 L 60.0,37.0 L 47.0,38.0 L 22.0,76.0 L 15.0,75.0 L 7.0,69.0 L 2.0,63.0 L 0.0,57.0 L 0.0,46.0 L 4.0,38.0 L 11.0,31.0 L 18.0,28.0 L 22.0,28.0 L 24.0,23.0 L 32.0,16.0 L 41.0,12.0" fill="#040404"/>
	<path d="M 0.0,0.0 L 96.0,0.0 L 96.0,51.0 L 94.0,48.0 L 89.0,41.0 L 81.0,37.0 L 77.0,36.0 L 73.0,26.0 L 67.0,19.0 L 57.0,14.0 L 53.0,13.0 L 41.0,13.0 L 29.0,19.0 L 23.0,26.0 L 22.0,28.0 L 11.0,32.0 L 4.0,39.0 L 1.0,46.0 L 0.0,46.0 L 0.0,0.0" fill="#FCFCFC"/>
	<path d="M 52.0,44.0 L 53.0,44.0 L 53.0,60.0 L 64.0,60.0 L 62.0,64.0 L 55.0,75.0 L 50.0,82.0 L 49.0,82.0 L 49.0,68.0 L 37.0,68.0 L 39.0,63.0 L 52.0,44.0" fill="#2E2E2E"/>
	<path d="M 79.0,49.0 L 80.0,49.0 L 80.0,64.0 L 92.0,64.0 L 87.0,73.0 L 77.0,88.0 L 76.0,88.0 L 76.0,72.0 L 65.0,72.0 L 67.0,67.0 L 79.0,49.0" fill="#070707"/>
	<path d="M 88.0,40.0 L 93.0,45.0 L 96.0,51.0 L 96.0,56.0 L 88.0,56.0 L 88.0,40.0" fill="#0B0B0B"/>
</svg>
