<?xml version="1.0" ?>
<svg baseProfile="full" height="600px" version="1.1" viewBox="-9.648000000000001 -9.648000000000001 115.296 115.296" width="600px" xmlns="http://www.w3.org/2000/svg" xmlns:ev="http://www.w3.org/2001/xml-events" xmlns:xlink="http://www.w3.org/1999/xlink">
	<defs/>
	<path d="M 0.0,0.0 L 96.0,0.0 L 96.0,96.0 L 0.0,96.0 L 0.0,0.0" fill="#040404"/>
	<path d="M 78.0,43.0 L 82.0,43.0 L 83.0,47.0 L 83.0,59.0 L 96.0,58.0 L 96.0,96.0 L 0.0,96.0 L 0.0,57.0 L 2.0,60.0 L 6.0,67.0 L 13.0,73.0 L 18.0,75.0 L 23.0,75.0 L 38.0,51.0 L 43.0,44.0 L 55.0,44.0 L 56.0,59.0 L 62.0,57.0 L 69.0,44.0 L 78.0,43.0" fill="#F8F8F8"/>
	<path d="M 0.0,0.0 L 96.0,0.0 L 96.0,51.0 L 94.0,48.0 L 89.0,41.0 L 81.0,37.0 L 77.0,36.0 L 73.0,26.0 L 67.0,19.0 L 57.0,14.0 L 53.0,13.0 L 41.0,13.0 L 29.0,19.0 L 23.0,26.0 L 22.0,28.0 L 11.0,32.0 L 4.0,39.0 L 1.0,46.0 L 0.0,46.0 L 0.0,0.0" fill="#FCFCFC"/>
	<path d="M 76.0,53.0 L 77.0,53.0 L 77.0,68.0 L 89.0,68.0 L 85.0,76.0 L 75.0,92.0 L 74.0,92.0 L 74.0,76.0 L 63.0,76.0 L 65.0,70.0 L 76.0,53.0" fill="#060606"/>
	<path d="M 48.0,52.0 L 49.0,52.0 L 49.0,67.0 L 61.0,67.0 L 59.0,72.0 L 47.0,91.0 L 46.0,91.0 L 46.0,75.0 L 35.0,75.0 L 37.0,70.0 L 48.0,52.0" fill="#080808"/>
</svg>
