<?xml version="1.0" ?>
<svg baseProfile="full" height="600px" version="1.1" viewBox="-20.1 -20.1 240.2 240.2" width="600px" xmlns="http://www.w3.org/2000/svg" xmlns:ev="http://www.w3.org/2001/xml-events" xmlns:xlink="http://www.w3.org/1999/xlink">
	<defs/>
	<path d="M 0.0,0.0 L 200.0,0.0 L 200.0,200.0 L 0.0,200.0 L 0.0,0.0" fill="#FCFCFC"/>
	<path d="M 90.0,8.0 L 109.0,8.0 L 126.0,11.0 L 145.0,19.0 L 158.0,28.0 L 168.0,37.0 L 178.0,50.0 L 186.0,66.0 L 191.0,82.0 L 192.0,89.0 L 192.0,110.0 L 189.0,125.0 L 183.0,141.0 L 175.0,154.0 L 164.0,167.0 L 150.0,178.0 L 134.0,186.0 L 117.0,191.0 L 110.0,192.0 L 90.0,192.0 L 90.0,184.0 L 111.0,183.0 L 127.0,179.0 L 139.0,174.0 L 151.0,166.0 L 161.0,157.0 L 169.0,147.0 L 175.0,137.0 L 181.0,119.0 L 183.0,111.0 L 183.0,90.0 L 178.0,70.0 L 171.0,56.0 L 162.0,44.0 L 154.0,36.0 L 139.0,26.0 L 121.0,19.0 L 110.0,17.0 L 90.0,16.0 L 90.0,8.0" fill="#090909"/>
	<path d="M 80.0,56.0 L 82.0,56.0 L 99.0,85.0 L 110.0,103.0 L 119.0,102.0 L 121.0,107.0 L 126.0,129.0 L 125.0,136.0 L 119.0,136.0 L 104.0,122.0 L 97.0,116.0 L 99.0,111.0 L 102.0,109.0 L 101.0,106.0 L 86.0,80.0 L 75.0,62.0 L 75.0,59.0 L 80.0,56.0" fill="#070707"/>
	<path d="M 34.0,35.0 L 38.0,37.0 L 40.0,39.0 L 39.0,43.0 L 31.0,53.0 L 30.0,55.0 L 26.0,54.0 L 23.0,52.0 L 24.0,47.0 L 34.0,35.0" fill="#0E0E0E"/>
	<path d="M 28.0,145.0 L 30.0,145.0 L 38.0,156.0 L 40.0,158.0 L 39.0,162.0 L 36.0,165.0 L 32.0,163.0 L 23.0,151.0 L 24.0,147.0 L 28.0,145.0" fill="#0D0D0D"/>
	<path d="M 9.0,110.0 L 17.0,110.0 L 21.0,128.0 L 16.0,130.0 L 13.0,130.0 L 10.0,122.0 L 9.0,110.0" fill="#0C0C0C"/>
	<path d="M 13.0,70.0 L 21.0,72.0 L 17.0,90.0 L 9.0,90.0 L 9.0,82.0 L 12.0,71.0 L 13.0,70.0" fill="#0D0D0D"/>
	<path d="M 66.0,14.0 L 71.0,15.0 L 72.0,21.0 L 55.0,29.0 L 51.0,22.0 L 61.0,16.0 L 66.0,14.0" fill="#0C0C0C"/>
	<path d="M 55.0,171.0 L 72.0,179.0 L 70.0,187.0 L 61.0,184.0 L 51.0,178.0 L 55.0,171.0" fill="#0A0A0A"/>
</svg>
