<?xml version="1.0" ?>
<svg baseProfile="full" height="600px" version="1.1" viewBox="-20.1 -20.1 240.2 240.2" width="600px" xmlns="http://www.w3.org/2000/svg" xmlns:ev="http://www.w3.org/2001/xml-events" xmlns:xlink="http://www.w3.org/1999/xlink">
	<defs/>
	<path d="M 0.0,0.0 L 200.0,0.0 L 200.0,200.0 L 0.0,200.0 L 0.0,0.0" fill="#030303"/>
	<path d="M 0.0,0.0 L 200.0,0.0 L 200.0,200.0 L 0.0,200.0 L 0.0,168.0 L 192.0,168.0 L 192.0,32.0 L 0.0,32.0 L 0.0,0.0" fill="#FDFDFD"/>
	<path d="M 8.0,40.0 L 184.0,40.0 L 184.0,49.0 L 171.0,61.0 L 160.0,70.0 L 150.0,79.0 L 139.0,88.0 L 124.0,101.0 L 110.0,113.0 L 104.0,117.0 L 101.0,118.0 L 90.0,118.0 L 81.0,112.0 L 71.0,103.0 L 60.0,94.0 L 50.0,85.0 L 39.0,76.0 L 24.0,63.0 L 10.0,51.0 L 8.0,49.0 L 8.0,40.0" fill="#FCFCFC"/>
	<path d="M 63.0,108.0 L 68.0,110.0 L 79.0,120.0 L 89.0,125.0 L 102.0,125.0 L 111.0,121.0 L 122.0,112.0 L 127.0,108.0 L 132.0,110.0 L 145.0,121.0 L 159.0,132.0 L 175.0,145.0 L 184.0,152.0 L 184.0,160.0 L 8.0,160.0 L 8.0,151.0 L 20.0,141.0 L 36.0,129.0 L 52.0,116.0 L 63.0,108.0" fill="#FCFCFC"/>
	<path d="M 183.0,60.0 L 184.0,60.0 L 184.0,142.0 L 176.0,136.0 L 160.0,123.0 L 146.0,112.0 L 135.0,103.0 L 137.0,99.0 L 148.0,90.0 L 158.0,81.0 L 169.0,72.0 L 179.0,63.0 L 183.0,60.0" fill="#FBFBFB"/>
	<path d="M 8.0,60.0 L 16.0,66.0 L 31.0,79.0 L 45.0,91.0 L 57.0,101.0 L 55.0,105.0 L 42.0,115.0 L 24.0,129.0 L 10.0,140.0 L 8.0,140.0 L 8.0,60.0" fill="#FBFBFB"/>
</svg>
