<?xml version="1.0" ?>
<svg baseProfile="full" height="600px" version="1.1" viewBox="-19.296000000000003 -19.296000000000003 230.592 230.592" width="600px" xmlns="http://www.w3.org/2000/svg" xmlns:ev="http://www.w3.org/2001/xml-events" xmlns:xlink="http://www.w3.org/1999/xlink">
	<defs/>
	<path d="M 0.0,0.0 L 192.0,0.0 L 192.0,192.0 L 0.0,192.0 L 0.0,0.0" fill="#FDFEFD"/>
	<path d="M 28.0,40.0 L 165.0,40.0 L 171.0,44.0 L 175.0,49.0 L 176.0,51.0 L 176.0,140.0 L 172.0,147.0 L 167.0,151.0 L 164.0,152.0 L 29.0,152.0 L 22.0,149.0 L 18.0,145.0 L 16.0,139.0 L 16.0,51.0 L 20.0,45.0 L 25.0,41.0 L 28.0,40.0" fill="#CED7DB"/>
	<path d="M 28.0,40.0 L 165.0,40.0 L 171.0,44.0 L 175.0,49.0 L 176.0,51.0 L 176.0,60.0 L 166.0,68.0 L 152.0,78.0 L 134.0,91.0 L 116.0,104.0 L 97.0,118.0 L 93.0,116.0 L 74.0,103.0 L 61.0,93.0 L 47.0,83.0 L 29.0,70.0 L 17.0,61.0 L 16.0,60.0 L 16.0,51.0 L 20.0,45.0 L 25.0,41.0 L 28.0,40.0" fill="#CED7DB"/>
	<path d="M 16.0,51.0 L 21.0,53.0 L 37.0,65.0 L 54.0,77.0 L 73.0,91.0 L 91.0,104.0 L 95.0,107.0 L 99.0,105.0 L 116.0,93.0 L 134.0,80.0 L 152.0,67.0 L 170.0,54.0 L 174.0,51.0 L 176.0,51.0 L 176.0,60.0 L 166.0,68.0 L 152.0,78.0 L 134.0,91.0 L 116.0,104.0 L 97.0,118.0 L 93.0,116.0 L 74.0,103.0 L 61.0,93.0 L 47.0,83.0 L 29.0,70.0 L 17.0,61.0 L 16.0,60.0 L 16.0,51.0" fill="#7B929E"/>
</svg>
