<?xml version="1.0" ?>
<svg baseProfile="full" height="600px" version="1.1" viewBox="-19.296000000000003 -19.296000000000003 230.592 230.592" width="600px" xmlns="http://www.w3.org/2000/svg" xmlns:ev="http://www.w3.org/2001/xml-events" xmlns:xlink="http://www.w3.org/1999/xlink">
	<defs/>
	<path d="M 0.0,0.0 L 192.0,0.0 L 192.0,192.0 L 0.0,192.0 L 0.0,0.0" fill="#FDFDFD"/>
	<path d="M 22.0,68.0 L 169.0,68.0 L 175.0,71.0 L 176.0,72.0 L 176.0,110.0 L 171.0,113.0 L 168.0,114.0 L 23.0,114.0 L 17.0,111.0 L 16.0,110.0 L 16.0,72.0 L 22.0,68.0" fill="#A2C5AD"/>
	<path d="M 22.0,68.0 L 169.0,68.0 L 175.0,71.0 L 176.0,72.0 L 176.0,79.0 L 171.0,81.0 L 145.0,87.0 L 114.0,94.0 L 98.0,98.0 L 90.0,97.0 L 74.0,93.0 L 43.0,86.0 L 17.0,80.0 L 16.0,79.0 L 16.0,72.0 L 22.0,68.0" fill="#A2C4AD"/>
	<path d="M 16.0,76.0 L 27.0,78.0 L 61.0,86.0 L 92.0,93.0 L 101.0,93.0 L 130.0,86.0 L 164.0,78.0 L 175.0,76.0 L 176.0,79.0 L 171.0,81.0 L 145.0,87.0 L 114.0,94.0 L 98.0,98.0 L 90.0,97.0 L 74.0,93.0 L 43.0,86.0 L 17.0,80.0 L 16.0,76.0" fill="#7C959D"/>
</svg>
