<?xml version="1.0" ?>
<svg baseProfile="full" height="600px" version="1.1" viewBox="-9.648000000000001 -9.648000000000001 115.296 115.296" width="600px" xmlns="http://www.w3.org/2000/svg" xmlns:ev="http://www.w3.org/2001/xml-events" xmlns:xlink="http://www.w3.org/1999/xlink">
	<defs/>
	<path d="M 0.0,0.0 L 96.0,0.0 L 96.0,96.0 L 0.0,96.0 L 0.0,0.0" fill="#FDFDFD"/>
	<path d="M 11.0,44.0 L 27.0,46.0 L 43.0,49.0 L 59.0,48.0 L 80.0,44.0 L 85.0,44.0 L 85.0,57.0 L 83.0,59.0 L 13.0,59.0 L 11.0,57.0 L 11.0,44.0" fill="#030303"/>
	<path d="M 16.0,37.0 L 80.0,37.0 L 85.0,42.0 L 54.0,48.0 L 43.0,48.0 L 14.0,43.0 L 11.0,41.0 L 16.0,37.0" fill="#040404"/>
	<path d="M 18.0,43.0 L 32.0,45.0 L 43.0,47.0 L 54.0,47.0 L 74.0,43.0 L 80.0,44.0 L 76.0,46.0 L 51.0,50.0 L 43.0,50.0 L 15.0,45.0 L 18.0,43.0" fill="#CBCBCB"/>
	<path d="M 74.0,43.0 L 80.0,44.0 L 76.0,46.0 L 69.0,45.0 L 69.0,44.0 L 74.0,43.0" fill="#BABABA"/>
</svg>
