<?xml version="1.0" ?>
<svg baseProfile="full" height="600px" version="1.1" viewBox="-20.1 -20.1 240.2 240.2" width="600px" xmlns="http://www.w3.org/2000/svg" xmlns:ev="http://www.w3.org/2001/xml-events" xmlns:xlink="http://www.w3.org/1999/xlink">
	<defs/>
	<path d="M 0.0,0.0 L 200.0,0.0 L 200.0,200.0 L 0.0,200.0 L 0.0,0.0" fill="#030303"/>
	<path d="M 0.0,0.0 L 200.0,0.0 L 200.0,200.0 L 0.0,200.0 L 0.0,168.0 L 150.0,167.0 L 151.0,162.0 L 150.0,161.0 L 8.0,160.0 L 8.0,151.0 L 20.0,141.0 L 36.0,129.0 L 52.0,116.0 L 63.0,108.0 L 68.0,110.0 L 79.0,120.0 L 89.0,125.0 L 102.0,125.0 L 111.0,121.0 L 116.0,117.0 L 118.0,117.0 L 124.0,128.0 L 133.0,136.0 L 141.0,140.0 L 147.0,142.0 L 168.0,142.0 L 181.0,137.0 L 187.0,132.0 L 189.0,132.0 L 191.0,128.0 L 196.0,120.0 L 198.0,115.0 L 198.0,98.0 L 194.0,89.0 L 188.0,81.0 L 179.0,75.0 L 172.0,72.0 L 167.0,71.0 L 167.0,70.0 L 174.0,68.0 L 183.0,60.0 L 184.0,60.0 L 185.0,76.0 L 191.0,81.0 L 192.0,32.0 L 0.0,32.0 L 0.0,0.0" fill="#FDFDFD"/>
	<path d="M 8.0,40.0 L 184.0,40.0 L 184.0,49.0 L 171.0,61.0 L 161.0,69.0 L 146.0,71.0 L 134.0,76.0 L 124.0,85.0 L 119.0,93.0 L 117.0,99.0 L 116.0,107.0 L 106.0,116.0 L 101.0,118.0 L 90.0,118.0 L 81.0,112.0 L 71.0,103.0 L 60.0,94.0 L 50.0,85.0 L 39.0,76.0 L 24.0,63.0 L 10.0,51.0 L 8.0,49.0 L 8.0,40.0" fill="#FDFDFD"/>
	<path d="M 149.0,77.0 L 165.0,77.0 L 176.0,81.0 L 186.0,90.0 L 191.0,100.0 L 191.0,112.0 L 187.0,121.0 L 180.0,129.0 L 168.0,135.0 L 163.0,136.0 L 150.0,136.0 L 138.0,131.0 L 131.0,125.0 L 127.0,119.0 L 125.0,113.0 L 125.0,98.0 L 131.0,88.0 L 138.0,82.0 L 146.0,78.0 L 149.0,77.0" fill="#FBFBFB"/>
	<path d="M 8.0,60.0 L 16.0,66.0 L 31.0,79.0 L 45.0,91.0 L 57.0,101.0 L 55.0,105.0 L 42.0,115.0 L 24.0,129.0 L 10.0,140.0 L 8.0,140.0 L 8.0,60.0" fill="#FBFBFB"/>
	<path d="M 161.0,68.0 L 168.0,69.0 L 172.0,71.0 L 184.0,77.0 L 191.0,83.0 L 197.0,92.0 L 199.0,98.0 L 199.0,115.0 L 193.0,127.0 L 189.0,132.0 L 179.0,139.0 L 168.0,143.0 L 147.0,143.0 L 135.0,138.0 L 127.0,132.0 L 121.0,125.0 L 117.0,116.0 L 119.0,116.0 L 117.0,107.0 L 116.0,107.0 L 116.0,99.0 L 120.0,89.0 L 129.0,79.0 L 138.0,73.0 L 150.0,69.0 L 161.0,68.0 M 149.0,77.0 L 140.0,81.0 L 132.0,87.0 L 126.0,96.0 L 125.0,98.0 L 125.0,113.0 L 129.0,122.0 L 134.0,128.0 L 144.0,134.0 L 150.0,136.0 L 163.0,136.0 L 173.0,133.0 L 181.0,128.0 L 188.0,120.0 L 191.0,112.0 L 191.0,100.0 L 186.0,90.0 L 179.0,83.0 L 171.0,79.0 L 165.0,77.0 L 149.0,77.0" fill="#595959"/>
	<path d="M 176.0,92.0 L 180.0,94.0 L 183.0,97.0 L 155.0,125.0 L 150.0,123.0 L 135.0,112.0 L 133.0,111.0 L 135.0,107.0 L 137.0,105.0 L 141.0,106.0 L 153.0,114.0 L 160.0,108.0 L 176.0,92.0" fill="#575757"/>
	<path d="M 183.0,60.0 L 184.0,60.0 L 185.0,76.0 L 189.0,80.0 L 185.0,79.0 L 177.0,74.0 L 167.0,71.0 L 167.0,70.0 L 174.0,68.0 L 183.0,60.0" fill="#EFEFEF"/>
	<path d="M 191.0,131.0 L 192.0,131.0 L 192.0,144.0 L 190.0,146.0 L 185.0,145.0 L 184.0,144.0 L 184.0,137.0 L 191.0,131.0" fill="#050505"/>
	<path d="M 190.0,129.0 L 192.0,131.0 L 184.0,137.0 L 186.0,133.0 L 189.0,132.0 L 190.0,129.0" fill="#CDCDCD"/>
</svg>
