<?xml version="1.0" ?>
<svg baseProfile="full" height="600px" version="1.1" viewBox="-20.1 -20.1 240.2 240.2" width="600px" xmlns="http://www.w3.org/2000/svg" xmlns:ev="http://www.w3.org/2001/xml-events" xmlns:xlink="http://www.w3.org/1999/xlink">
	<defs/>
	<path d="M 0.0,0.0 L 200.0,0.0 L 200.0,200.0 L 0.0,200.0 L 0.0,0.0" fill="#FDFDFD"/>
	<path d="M 176.0,52.0 L 181.0,52.0 L 182.0,53.0 L 182.0,58.0 L 168.0,73.0 L 153.0,88.0 L 146.0,96.0 L 128.0,114.0 L 121.0,122.0 L 103.0,140.0 L 96.0,148.0 L 91.0,153.0 L 83.0,153.0 L 68.0,144.0 L 39.0,127.0 L 19.0,115.0 L 17.0,113.0 L 18.0,108.0 L 23.0,107.0 L 52.0,124.0 L 74.0,137.0 L 86.0,144.0 L 93.0,138.0 L 109.0,122.0 L 116.0,114.0 L 134.0,96.0 L 141.0,88.0 L 158.0,71.0 L 165.0,63.0 L 176.0,52.0" fill="#080808"/>
</svg>
