<?xml version="1.0" ?>
<svg baseProfile="full" height="600px" version="1.1" viewBox="-19.296000000000003 -19.296000000000003 230.592 230.592" width="600px" xmlns="http://www.w3.org/2000/svg" xmlns:ev="http://www.w3.org/2001/xml-events" xmlns:xlink="http://www.w3.org/1999/xlink">
	<defs/>
	<path d="M 0.0,0.0 L 192.0,0.0 L 192.0,192.0 L 0.0,192.0 L 0.0,0.0" fill="#FFFEFD"/>
	<path d="M 108.0,23.0 L 111.0,27.0 L 122.0,51.0 L 122.0,53.0 L 159.0,51.0 L 156.0,60.0 L 146.0,84.0 L 148.0,88.0 L 161.0,100.0 L 169.0,108.0 L 165.0,111.0 L 145.0,120.0 L 140.0,122.0 L 140.0,135.0 L 141.0,159.0 L 135.0,157.0 L 109.0,146.0 L 105.0,147.0 L 97.0,155.0 L 90.0,163.0 L 83.0,169.0 L 70.0,140.0 L 47.0,140.0 L 33.0,141.0 L 36.0,132.0 L 46.0,108.0 L 44.0,104.0 L 35.0,95.0 L 27.0,88.0 L 23.0,83.0 L 51.0,70.0 L 53.0,70.0 L 51.0,42.0 L 51.0,33.0 L 57.0,35.0 L 83.0,46.0 L 87.0,45.0 L 102.0,29.0 L 108.0,23.0" fill="#FF9A04"/>
	<path d="M 88.0,57.0 L 101.0,57.0 L 112.0,60.0 L 122.0,66.0 L 129.0,74.0 L 133.0,82.0 L 135.0,91.0 L 135.0,102.0 L 132.0,112.0 L 126.0,122.0 L 118.0,129.0 L 110.0,133.0 L 102.0,135.0 L 91.0,135.0 L 80.0,132.0 L 70.0,126.0 L 63.0,118.0 L 59.0,110.0 L 57.0,101.0 L 57.0,88.0 L 62.0,76.0 L 69.0,67.0 L 79.0,60.0 L 88.0,57.0" fill="#FFE939"/>
</svg>
