<?xml version="1.0" ?>
<svg baseProfile="full" height="600px" version="1.1" viewBox="-19.296000000000003 -19.296000000000003 230.592 230.592" width="600px" xmlns="http://www.w3.org/2000/svg" xmlns:ev="http://www.w3.org/2001/xml-events" xmlns:xlink="http://www.w3.org/1999/xlink">
	<defs/>
	<path d="M 0.0,0.0 L 192.0,0.0 L 192.0,192.0 L 0.0,192.0 L 0.0,0.0" fill="#FFFEFD"/>
	<path d="M 64.0,31.0 L 70.0,33.0 L 91.0,44.0 L 94.0,45.0 L 110.0,35.0 L 117.0,31.0 L 120.0,32.0 L 128.0,52.0 L 129.0,59.0 L 146.0,61.0 L 161.0,64.0 L 159.0,70.0 L 149.0,90.0 L 147.0,94.0 L 156.0,108.0 L 161.0,117.0 L 160.0,120.0 L 139.0,128.0 L 133.0,129.0 L 133.0,137.0 L 128.0,161.0 L 122.0,159.0 L 101.0,148.0 L 98.0,147.0 L 82.0,157.0 L 75.0,161.0 L 72.0,160.0 L 63.0,136.0 L 63.0,133.0 L 50.0,132.0 L 31.0,128.0 L 33.0,122.0 L 41.0,106.0 L 45.0,99.0 L 43.0,95.0 L 34.0,80.0 L 31.0,75.0 L 32.0,72.0 L 52.0,64.0 L 57.0,63.0 L 59.0,55.0 L 63.0,35.0 L 64.0,31.0" fill="#FF9A03"/>
	<path d="M 89.0,58.0 L 102.0,58.0 L 112.0,61.0 L 121.0,67.0 L 129.0,76.0 L 134.0,88.0 L 134.0,101.0 L 130.0,114.0 L 124.0,122.0 L 116.0,129.0 L 103.0,134.0 L 90.0,134.0 L 80.0,131.0 L 71.0,125.0 L 63.0,116.0 L 59.0,106.0 L 58.0,102.0 L 58.0,88.0 L 63.0,76.0 L 72.0,66.0 L 82.0,60.0 L 89.0,58.0" fill="#FFE939"/>
</svg>
