<?xml version="1.0" ?>
<svg baseProfile="full" height="600px" version="1.1" viewBox="-19.296000000000003 -19.296000000000003 230.592 230.592" width="600px" xmlns="http://www.w3.org/2000/svg" xmlns:ev="http://www.w3.org/2001/xml-events" xmlns:xlink="http://www.w3.org/1999/xlink">
	<defs/>
	<path d="M 0.0,0.0 L 192.0,0.0 L 192.0,192.0 L 0.0,192.0 L 0.0,0.0" fill="#FFFEFD"/>
	<path d="M 113.0,18.0 L 115.0,19.0 L 119.0,35.0 L 125.0,53.0 L 125.0,55.0 L 161.0,55.0 L 159.0,60.0 L 148.0,82.0 L 147.0,89.0 L 156.0,98.0 L 164.0,105.0 L 174.0,113.0 L 173.0,115.0 L 154.0,120.0 L 139.0,125.0 L 137.0,125.0 L 137.0,161.0 L 118.0,152.0 L 107.0,147.0 L 103.0,148.0 L 89.0,162.0 L 80.0,173.0 L 78.0,174.0 L 69.0,143.0 L 67.0,138.0 L 31.0,137.0 L 40.0,118.0 L 46.0,106.0 L 44.0,102.0 L 36.0,94.0 L 28.0,87.0 L 18.0,79.0 L 19.0,77.0 L 50.0,68.0 L 56.0,67.0 L 55.0,31.0 L 74.0,40.0 L 85.0,45.0 L 89.0,44.0 L 103.0,30.0 L 112.0,19.0 L 113.0,18.0" fill="#FF9A05"/>
	<path d="M 89.0,54.0 L 102.0,54.0 L 115.0,58.0 L 125.0,65.0 L 131.0,72.0 L 136.0,82.0 L 138.0,88.0 L 138.0,101.0 L 135.0,112.0 L 131.0,120.0 L 123.0,129.0 L 115.0,134.0 L 108.0,137.0 L 101.0,138.0 L 88.0,138.0 L 75.0,133.0 L 66.0,126.0 L 59.0,117.0 L 55.0,107.0 L 54.0,100.0 L 54.0,91.0 L 56.0,81.0 L 63.0,69.0 L 73.0,60.0 L 84.0,55.0 L 89.0,54.0" fill="#FFE939"/>
</svg>
