<?xml version="1.0" ?>
<svg baseProfile="full" height="600px" version="1.1" viewBox="-19.296000000000003 -19.296000000000003 230.592 230.592" width="600px" xmlns="http://www.w3.org/2000/svg" xmlns:ev="http://www.w3.org/2001/xml-events" xmlns:xlink="http://www.w3.org/1999/xlink">
	<defs/>
	<path d="M 0.0,0.0 L 192.0,0.0 L 192.0,192.0 L 0.0,192.0 L 0.0,0.0" fill="#FFFEFD"/>
	<path d="M 87.0,24.0 L 91.0,26.0 L 103.0,39.0 L 109.0,46.0 L 109.0,48.0 L 136.0,41.0 L 140.0,41.0 L 141.0,72.0 L 165.0,85.0 L 168.0,87.0 L 166.0,91.0 L 159.0,98.0 L 151.0,105.0 L 145.0,110.0 L 150.0,131.0 L 150.0,140.0 L 120.0,140.0 L 118.0,146.0 L 107.0,165.0 L 105.0,168.0 L 101.0,166.0 L 89.0,153.0 L 82.0,145.0 L 65.0,149.0 L 52.0,151.0 L 51.0,120.0 L 27.0,107.0 L 24.0,105.0 L 26.0,101.0 L 33.0,94.0 L 41.0,87.0 L 47.0,82.0 L 45.0,73.0 L 41.0,55.0 L 41.0,52.0 L 72.0,52.0 L 74.0,46.0 L 85.0,27.0 L 87.0,24.0" fill="#FF9903"/>
	<path d="M 89.0,56.0 L 102.0,56.0 L 112.0,59.0 L 122.0,65.0 L 130.0,74.0 L 135.0,85.0 L 136.0,89.0 L 136.0,101.0 L 132.0,114.0 L 125.0,124.0 L 116.0,131.0 L 106.0,135.0 L 101.0,136.0 L 89.0,136.0 L 78.0,132.0 L 69.0,126.0 L 62.0,118.0 L 57.0,107.0 L 56.0,102.0 L 56.0,89.0 L 61.0,76.0 L 68.0,67.0 L 78.0,60.0 L 89.0,56.0" fill="#FFE839"/>
</svg>
