<?xml version="1.0" ?>
<svg baseProfile="full" height="600px" version="1.1" viewBox="-20.1 -20.1 240.2 240.2" width="600px" xmlns="http://www.w3.org/2000/svg" xmlns:ev="http://www.w3.org/2001/xml-events" xmlns:xlink="http://www.w3.org/1999/xlink">
	<defs/>
	<path d="M 0.0,0.0 L 200.0,0.0 L 200.0,200.0 L 0.0,200.0 L 0.0,0.0" fill="#FDFDFD"/>
	<path d="M 93.0,68.0 L 106.0,68.0 L 118.0,73.0 L 124.0,78.0 L 130.0,88.0 L 132.0,93.0 L 132.0,107.0 L 126.0,119.0 L 122.0,124.0 L 112.0,130.0 L 106.0,132.0 L 93.0,132.0 L 81.0,126.0 L 76.0,122.0 L 70.0,112.0 L 68.0,106.0 L 68.0,93.0 L 75.0,79.0 L 84.0,72.0 L 93.0,68.0" fill="#FBFBFB"/>
	<path d="M 92.0,60.0 L 105.0,60.0 L 116.0,63.0 L 126.0,69.0 L 134.0,78.0 L 138.0,86.0 L 140.0,92.0 L 140.0,106.0 L 138.0,114.0 L 132.0,125.0 L 125.0,132.0 L 112.0,139.0 L 106.0,140.0 L 92.0,140.0 L 80.0,135.0 L 72.0,129.0 L 66.0,122.0 L 62.0,114.0 L 60.0,105.0 L 60.0,92.0 L 64.0,81.0 L 71.0,72.0 L 78.0,66.0 L 86.0,62.0 L 92.0,60.0 M 93.0,68.0 L 84.0,72.0 L 75.0,79.0 L 68.0,93.0 L 68.0,106.0 L 73.0,118.0 L 78.0,124.0 L 88.0,130.0 L 93.0,132.0 L 106.0,132.0 L 118.0,127.0 L 124.0,122.0 L 130.0,112.0 L 132.0,107.0 L 132.0,93.0 L 126.0,81.0 L 122.0,76.0 L 112.0,70.0 L 106.0,68.0 L 93.0,68.0" fill="#070707"/>
	<path d="M 98.0,152.0 L 103.0,153.0 L 104.0,154.0 L 104.0,182.0 L 102.0,184.0 L 97.0,183.0 L 96.0,182.0 L 96.0,154.0 L 98.0,152.0" fill="#030303"/>
	<path d="M 154.0,96.0 L 182.0,96.0 L 184.0,98.0 L 183.0,103.0 L 182.0,104.0 L 154.0,104.0 L 152.0,102.0 L 153.0,97.0 L 154.0,96.0" fill="#030303"/>
	<path d="M 18.0,96.0 L 46.0,96.0 L 48.0,98.0 L 47.0,103.0 L 46.0,104.0 L 18.0,104.0 L 16.0,102.0 L 17.0,97.0 L 18.0,96.0" fill="#030303"/>
	<path d="M 98.0,16.0 L 103.0,17.0 L 104.0,18.0 L 104.0,46.0 L 102.0,48.0 L 97.0,47.0 L 96.0,46.0 L 96.0,18.0 L 98.0,16.0" fill="#030303"/>
	<path d="M 137.0,136.0 L 142.0,136.0 L 161.0,155.0 L 160.0,159.0 L 158.0,161.0 L 154.0,160.0 L 136.0,142.0 L 136.0,137.0 L 137.0,136.0" fill="#060606"/>
	<path d="M 58.0,136.0 L 63.0,136.0 L 64.0,137.0 L 64.0,142.0 L 45.0,161.0 L 41.0,160.0 L 39.0,158.0 L 40.0,154.0 L 58.0,136.0" fill="#050505"/>
	<path d="M 155.0,39.0 L 159.0,40.0 L 161.0,42.0 L 160.0,46.0 L 142.0,64.0 L 137.0,64.0 L 136.0,63.0 L 136.0,58.0 L 155.0,39.0" fill="#050505"/>
	<path d="M 41.0,40.0 L 46.0,40.0 L 64.0,58.0 L 64.0,63.0 L 63.0,64.0 L 58.0,64.0 L 40.0,46.0 L 40.0,41.0 L 41.0,40.0" fill="#020202"/>
</svg>
