<?xml version="1.0" ?>
<svg baseProfile="full" height="600px" version="1.1" viewBox="-12.864 -12.864 153.728 153.728" width="600px" xmlns="http://www.w3.org/2000/svg" xmlns:ev="http://www.w3.org/2001/xml-events" xmlns:xlink="http://www.w3.org/1999/xlink">
	<defs/>
	<path d="M 0.0,0.0 L 128.0,0.0 L 128.0,128.0 L 0.0,128.0 L 0.0,0.0" fill="#FCFCFC"/>
	<path d="M 61.0,44.0 L 68.0,44.0 L 76.0,48.0 L 82.0,55.0 L 84.0,60.0 L 84.0,67.0 L 80.0,76.0 L 73.0,82.0 L 67.0,84.0 L 60.0,84.0 L 52.0,80.0 L 46.0,73.0 L 44.0,67.0 L 44.0,60.0 L 48.0,52.0 L 55.0,46.0 L 61.0,44.0" fill="#F9F9F9"/>
	<path d="M 60.0,36.0 L 69.0,36.0 L 79.0,40.0 L 85.0,45.0 L 91.0,55.0 L 92.0,59.0 L 92.0,68.0 L 89.0,77.0 L 83.0,85.0 L 73.0,91.0 L 69.0,92.0 L 59.0,92.0 L 49.0,88.0 L 43.0,83.0 L 37.0,73.0 L 36.0,69.0 L 36.0,59.0 L 40.0,49.0 L 45.0,43.0 L 55.0,37.0 L 60.0,36.0 M 61.0,44.0 L 53.0,47.0 L 46.0,55.0 L 44.0,60.0 L 44.0,67.0 L 47.0,75.0 L 55.0,82.0 L 60.0,84.0 L 67.0,84.0 L 76.0,80.0 L 82.0,73.0 L 84.0,67.0 L 84.0,60.0 L 80.0,52.0 L 73.0,46.0 L 68.0,44.0 L 61.0,44.0" fill="#0C0C0C"/>
	<path d="M 86.0,87.0 L 90.0,88.0 L 100.0,100.0 L 100.0,102.0 L 94.0,106.0 L 84.0,95.0 L 82.0,91.0 L 86.0,87.0" fill="#0A0A0A"/>
	<path d="M 36.0,82.0 L 41.0,86.0 L 40.0,90.0 L 28.0,100.0 L 26.0,100.0 L 22.0,94.0 L 33.0,84.0 L 36.0,82.0" fill="#0A0A0A"/>
	<path d="M 13.0,56.0 L 23.0,56.0 L 32.0,57.0 L 32.0,65.0 L 20.0,65.0 L 13.0,64.0 L 13.0,56.0" fill="#0C0C0C"/>
	<path d="M 100.0,28.0 L 102.0,28.0 L 106.0,34.0 L 95.0,44.0 L 91.0,46.0 L 87.0,42.0 L 88.0,38.0 L 100.0,28.0" fill="#0A0A0A"/>
	<path d="M 33.0,22.0 L 38.0,26.0 L 46.0,36.0 L 42.0,41.0 L 38.0,40.0 L 28.0,28.0 L 28.0,26.0 L 33.0,22.0" fill="#0A0A0A"/>
	<path d="M 57.0,96.0 L 65.0,96.0 L 64.0,115.0 L 56.0,115.0 L 56.0,102.0 L 57.0,96.0" fill="#0B0B0B"/>
	<path d="M 96.0,63.0 L 115.0,64.0 L 115.0,72.0 L 102.0,72.0 L 96.0,71.0 L 96.0,63.0" fill="#0B0B0B"/>
	<path d="M 64.0,13.0 L 72.0,13.0 L 71.0,32.0 L 63.0,32.0 L 63.0,19.0 L 64.0,13.0" fill="#0B0B0B"/>
</svg>
