<?xml version="1.0" ?>
<svg baseProfile="full" height="600px" version="1.1" viewBox="-20.1 -20.1 240.2 240.2" width="600px" xmlns="http://www.w3.org/2000/svg" xmlns:ev="http://www.w3.org/2001/xml-events" xmlns:xlink="http://www.w3.org/1999/xlink">
	<defs/>
	<path d="M 0.0,0.0 L 200.0,0.0 L 200.0,200.0 L 0.0,200.0 L 0.0,0.0" fill="#FDFDFD"/>
	<path d="M 93.0,68.0 L 106.0,68.0 L 118.0,73.0 L 124.0,78.0 L 130.0,88.0 L 132.0,93.0 L 132.0,107.0 L 126.0,119.0 L 122.0,124.0 L 112.0,130.0 L 106.0,132.0 L 93.0,132.0 L 81.0,126.0 L 76.0,122.0 L 70.0,112.0 L 68.0,106.0 L 68.0,93.0 L 75.0,79.0 L 84.0,72.0 L 93.0,68.0" fill="#FBFBFB"/>
	<path d="M 92.0,60.0 L 105.0,60.0 L 116.0,63.0 L 126.0,69.0 L 134.0,78.0 L 138.0,86.0 L 140.0,92.0 L 140.0,106.0 L 138.0,114.0 L 132.0,125.0 L 125.0,132.0 L 112.0,139.0 L 106.0,140.0 L 92.0,140.0 L 80.0,135.0 L 72.0,129.0 L 66.0,122.0 L 62.0,114.0 L 60.0,105.0 L 60.0,92.0 L 64.0,81.0 L 71.0,72.0 L 78.0,66.0 L 86.0,62.0 L 92.0,60.0 M 93.0,68.0 L 84.0,72.0 L 75.0,79.0 L 68.0,93.0 L 68.0,106.0 L 73.0,118.0 L 78.0,124.0 L 88.0,130.0 L 93.0,132.0 L 106.0,132.0 L 118.0,127.0 L 124.0,122.0 L 130.0,112.0 L 132.0,107.0 L 132.0,93.0 L 126.0,81.0 L 122.0,76.0 L 112.0,70.0 L 106.0,68.0 L 93.0,68.0" fill="#070707"/>
	<path d="M 20.0,90.0 L 35.0,90.0 L 44.0,91.0 L 46.0,93.0 L 45.0,98.0 L 44.0,99.0 L 34.0,99.0 L 21.0,98.0 L 18.0,95.0 L 19.0,91.0 L 20.0,90.0" fill="#090909"/>
	<path d="M 48.0,36.0 L 52.0,37.0 L 63.0,49.0 L 66.0,53.0 L 66.0,58.0 L 64.0,60.0 L 60.0,59.0 L 50.0,48.0 L 46.0,43.0 L 46.0,38.0 L 48.0,36.0" fill="#090909"/>
	<path d="M 105.0,18.0 L 109.0,19.0 L 110.0,20.0 L 110.0,32.0 L 109.0,44.0 L 107.0,46.0 L 102.0,45.0 L 101.0,44.0 L 101.0,31.0 L 102.0,21.0 L 105.0,18.0" fill="#0A0A0A"/>
	<path d="M 93.0,154.0 L 98.0,155.0 L 99.0,156.0 L 98.0,179.0 L 95.0,182.0 L 91.0,181.0 L 90.0,180.0 L 90.0,164.0 L 91.0,156.0 L 93.0,154.0" fill="#080808"/>
	<path d="M 156.0,101.0 L 179.0,102.0 L 182.0,105.0 L 181.0,109.0 L 180.0,110.0 L 164.0,110.0 L 156.0,109.0 L 154.0,107.0 L 155.0,102.0 L 156.0,101.0" fill="#080808"/>
	<path d="M 157.0,46.0 L 162.0,46.0 L 163.0,47.0 L 163.0,52.0 L 150.0,64.0 L 147.0,66.0 L 142.0,66.0 L 140.0,64.0 L 141.0,60.0 L 152.0,50.0 L 157.0,46.0" fill="#080808"/>
	<path d="M 136.0,140.0 L 140.0,141.0 L 150.0,152.0 L 154.0,157.0 L 154.0,162.0 L 153.0,163.0 L 148.0,163.0 L 137.0,151.0 L 134.0,147.0 L 134.0,142.0 L 136.0,140.0" fill="#070707"/>
	<path d="M 53.0,134.0 L 58.0,134.0 L 60.0,136.0 L 59.0,140.0 L 48.0,150.0 L 43.0,154.0 L 38.0,154.0 L 37.0,153.0 L 37.0,148.0 L 49.0,137.0 L 53.0,134.0" fill="#070707"/>
</svg>
