<?xml version="1.0" ?>
<svg baseProfile="full" height="600px" version="1.1" viewBox="-12.864 -12.864 153.728 153.728" width="600px" xmlns="http://www.w3.org/2000/svg" xmlns:ev="http://www.w3.org/2001/xml-events" xmlns:xlink="http://www.w3.org/1999/xlink">
	<defs/>
	<path d="M 0.0,0.0 L 128.0,0.0 L 128.0,128.0 L 0.0,128.0 L 0.0,0.0" fill="#FCFCFC"/>
	<path d="M 59.0,45.0 L 69.0,45.0 L 77.0,50.0 L 82.0,56.0 L 83.0,59.0 L 83.0,68.0 L 79.0,76.0 L 73.0,81.0 L 68.0,83.0 L 59.0,83.0 L 51.0,78.0 L 47.0,73.0 L 45.0,69.0 L 45.0,59.0 L 50.0,51.0 L 55.0,47.0 L 59.0,45.0" fill="#FAFAFA"/>
	<path d="M 56.0,38.0 L 71.0,38.0 L 80.0,42.0 L 88.0,51.0 L 90.0,56.0 L 90.0,71.0 L 85.0,81.0 L 78.0,87.0 L 71.0,90.0 L 56.0,90.0 L 48.0,86.0 L 40.0,77.0 L 38.0,71.0 L 38.0,56.0 L 42.0,48.0 L 51.0,40.0 L 56.0,38.0 M 59.0,45.0 L 51.0,50.0 L 47.0,55.0 L 45.0,59.0 L 45.0,69.0 L 50.0,77.0 L 55.0,81.0 L 59.0,83.0 L 68.0,83.0 L 76.0,79.0 L 81.0,73.0 L 83.0,68.0 L 83.0,59.0 L 79.0,52.0 L 73.0,47.0 L 69.0,45.0 L 59.0,45.0" fill="#070707"/>
	<path d="M 24.0,33.0 L 29.0,35.0 L 38.0,41.0 L 36.0,46.0 L 32.0,48.0 L 20.0,40.0 L 24.0,33.0" fill="#0F0F0F"/>
	<path d="M 88.0,20.0 L 95.0,24.0 L 93.0,29.0 L 87.0,38.0 L 82.0,36.0 L 80.0,32.0 L 88.0,20.0" fill="#0D0D0D"/>
	<path d="M 41.0,90.0 L 45.0,92.0 L 48.0,94.0 L 46.0,99.0 L 40.0,108.0 L 33.0,104.0 L 35.0,99.0 L 41.0,90.0" fill="#0C0C0C"/>
	<path d="M 94.0,80.0 L 99.0,82.0 L 108.0,88.0 L 104.0,95.0 L 99.0,93.0 L 90.0,87.0 L 92.0,82.0 L 94.0,80.0" fill="#0C0C0C"/>
	<path d="M 70.0,97.0 L 75.0,97.0 L 78.0,110.0 L 78.0,113.0 L 70.0,114.0 L 69.0,113.0 L 67.0,98.0 L 70.0,97.0" fill="#0E0E0E"/>
	<path d="M 26.0,67.0 L 30.0,67.0 L 31.0,75.0 L 21.0,77.0 L 15.0,77.0 L 14.0,70.0 L 21.0,68.0 L 26.0,67.0" fill="#0A0A0A"/>
	<path d="M 51.0,15.0 L 58.0,15.0 L 60.0,21.0 L 61.0,30.0 L 59.0,31.0 L 53.0,31.0 L 51.0,22.0 L 51.0,15.0" fill="#0A0A0A"/>
	<path d="M 105.0,51.0 L 112.0,51.0 L 114.0,58.0 L 113.0,59.0 L 98.0,61.0 L 97.0,53.0 L 105.0,51.0" fill="#0A0A0A"/>
</svg>
