<?xml version="1.0" ?>
<svg baseProfile="full" height="600px" version="1.1" viewBox="-12.06 -12.06 144.12 144.12" width="600px" xmlns="http://www.w3.org/2000/svg" xmlns:ev="http://www.w3.org/2001/xml-events" xmlns:xlink="http://www.w3.org/1999/xlink">
	<defs/>
	<path d="M 0.0,0.0 L 120.0,0.0 L 120.0,120.0 L 0.0,120.0 L 0.0,0.0" fill="#FCFCFC"/>
	<path d="M 54.0,32.0 L 65.0,32.0 L 74.0,35.0 L 83.0,43.0 L 88.0,53.0 L 88.0,66.0 L 84.0,75.0 L 77.0,83.0 L 69.0,87.0 L 66.0,88.0 L 53.0,88.0 L 43.0,83.0 L 35.0,74.0 L 32.0,65.0 L 32.0,54.0 L 36.0,45.0 L 43.0,37.0 L 51.0,33.0 L 54.0,32.0" fill="#030303"/>
	<path d="M 24.0,80.0 L 29.0,81.0 L 30.0,86.0 L 21.0,93.0 L 17.0,92.0 L 16.0,91.0 L 16.0,86.0 L 24.0,80.0" fill="#101010"/>
	<path d="M 100.0,63.0 L 111.0,64.0 L 113.0,66.0 L 113.0,71.0 L 112.0,72.0 L 102.0,72.0 L 98.0,69.0 L 99.0,64.0 L 100.0,63.0" fill="#0F0F0F"/>
	<path d="M 29.0,16.0 L 34.0,16.0 L 40.0,24.0 L 39.0,29.0 L 34.0,30.0 L 27.0,21.0 L 28.0,17.0 L 29.0,16.0" fill="#101010"/>
	<path d="M 82.0,91.0 L 87.0,91.0 L 93.0,99.0 L 92.0,104.0 L 87.0,105.0 L 81.0,97.0 L 81.0,92.0 L 82.0,91.0" fill="#0E0E0E"/>
	<path d="M 99.0,27.0 L 104.0,28.0 L 105.0,33.0 L 97.0,39.0 L 92.0,39.0 L 91.0,38.0 L 91.0,33.0 L 99.0,27.0" fill="#0E0E0E"/>
	<path d="M 50.0,98.0 L 56.0,98.0 L 57.0,103.0 L 55.0,112.0 L 50.0,113.0 L 48.0,111.0 L 48.0,102.0 L 50.0,98.0" fill="#0D0D0D"/>
	<path d="M 9.0,48.0 L 21.0,49.0 L 22.0,50.0 L 22.0,56.0 L 20.0,57.0 L 10.0,56.0 L 7.0,54.0 L 8.0,49.0 L 9.0,48.0" fill="#0D0D0D"/>
	<path d="M 66.0,7.0 L 71.0,7.0 L 72.0,8.0 L 72.0,16.0 L 70.0,21.0 L 65.0,22.0 L 63.0,20.0 L 64.0,9.0 L 66.0,7.0" fill="#0B0B0B"/>
</svg>
