<?xml version="1.0" ?>
<svg baseProfile="full" height="600px" version="1.1" viewBox="-12.864 -12.864 153.728 153.728" width="600px" xmlns="http://www.w3.org/2000/svg" xmlns:ev="http://www.w3.org/2001/xml-events" xmlns:xlink="http://www.w3.org/1999/xlink">
	<defs/>
	<path d="M 0.0,0.0 L 128.0,0.0 L 128.0,128.0 L 0.0,128.0 L 0.0,0.0" fill="#FBFBFB"/>
	<path d="M 0.0,0.0 L 128.0,0.0 L 128.0,75.0 L 126.0,72.0 L 121.0,65.0 L 116.0,62.0 L 112.0,53.0 L 107.0,48.0 L 101.0,45.0 L 96.0,43.0 L 89.0,36.0 L 81.0,33.0 L 70.0,33.0 L 62.0,37.0 L 54.0,46.0 L 49.0,46.0 L 45.0,40.0 L 51.0,29.0 L 47.0,28.0 L 44.0,27.0 L 38.0,37.0 L 30.0,36.0 L 27.0,25.0 L 20.0,26.0 L 22.0,34.0 L 22.0,39.0 L 16.0,43.0 L 5.0,37.0 L 4.0,41.0 L 3.0,44.0 L 13.0,50.0 L 12.0,58.0 L 0.0,61.0 L 0.0,0.0" fill="#FCFCFC"/>
	<path d="M 25.0,24.0 L 28.0,25.0 L 30.0,32.0 L 30.0,36.0 L 38.0,36.0 L 44.0,26.0 L 51.0,29.0 L 49.0,34.0 L 46.0,41.0 L 49.0,45.0 L 54.0,45.0 L 61.0,37.0 L 67.0,33.0 L 70.0,32.0 L 81.0,32.0 L 90.0,36.0 L 97.0,43.0 L 106.0,46.0 L 112.0,51.0 L 116.0,59.0 L 116.0,62.0 L 121.0,64.0 L 127.0,72.0 L 128.0,75.0 L 128.0,85.0 L 124.0,93.0 L 118.0,98.0 L 113.0,100.0 L 92.0,100.0 L 96.0,92.0 L 112.0,91.0 L 118.0,86.0 L 119.0,84.0 L 119.0,76.0 L 114.0,70.0 L 108.0,68.0 L 106.0,58.0 L 102.0,54.0 L 91.0,52.0 L 87.0,45.0 L 83.0,42.0 L 79.0,41.0 L 71.0,41.0 L 65.0,45.0 L 61.0,52.0 L 60.0,56.0 L 51.0,58.0 L 49.0,62.0 L 48.0,68.0 L 38.0,70.0 L 33.0,76.0 L 33.0,83.0 L 36.0,88.0 L 40.0,91.0 L 64.0,92.0 L 60.0,100.0 L 39.0,100.0 L 31.0,96.0 L 25.0,88.0 L 23.0,81.0 L 20.0,86.0 L 14.0,83.0 L 13.0,81.0 L 18.0,71.0 L 15.0,67.0 L 2.0,68.0 L 0.0,61.0 L 8.0,58.0 L 12.0,58.0 L 12.0,50.0 L 2.0,44.0 L 5.0,37.0 L 10.0,39.0 L 17.0,42.0 L 21.0,39.0 L 20.0,26.0 L 25.0,24.0" fill="#070707"/>
	<path d="M 28.0,44.0 L 35.0,44.0 L 40.0,47.0 L 43.0,50.0 L 42.0,57.0 L 40.0,61.0 L 33.0,64.0 L 29.0,67.0 L 25.0,66.0 L 21.0,62.0 L 20.0,59.0 L 20.0,52.0 L 26.0,45.0 L 28.0,44.0" fill="#F8F8F8"/>
	<path d="M 76.0,60.0 L 77.0,60.0 L 78.0,80.0 L 89.0,84.0 L 85.0,94.0 L 78.0,109.0 L 77.0,109.0 L 77.0,88.0 L 66.0,85.0 L 65.0,83.0 L 75.0,61.0 L 76.0,60.0" fill="#0A0A0A"/>
</svg>
