<?xml version="1.0" ?>
<svg baseProfile="full" height="600px" version="1.1" viewBox="-16.08 -16.08 192.16 192.16" width="600px" xmlns="http://www.w3.org/2000/svg" xmlns:ev="http://www.w3.org/2001/xml-events" xmlns:xlink="http://www.w3.org/1999/xlink">
	<defs/>
	<path d="M 0.0,0.0 L 160.0,0.0 L 160.0,160.0 L 0.0,160.0 L 0.0,0.0" fill="#FDFDFC"/>
	<path d="M 95.0,13.0 L 96.0,13.0 L 100.0,29.0 L 100.0,33.0 L 106.0,35.0 L 113.0,34.0 L 124.0,30.0 L 127.0,31.0 L 123.0,44.0 L 123.0,51.0 L 126.0,56.0 L 145.0,59.0 L 143.0,63.0 L 134.0,72.0 L 132.0,72.0 L 133.0,83.0 L 146.0,94.0 L 146.0,96.0 L 131.0,100.0 L 127.0,100.0 L 125.0,106.0 L 126.0,113.0 L 130.0,124.0 L 130.0,126.0 L 122.0,125.0 L 115.0,123.0 L 109.0,123.0 L 104.0,126.0 L 101.0,145.0 L 97.0,143.0 L 88.0,134.0 L 88.0,132.0 L 77.0,133.0 L 66.0,146.0 L 64.0,146.0 L 60.0,131.0 L 60.0,127.0 L 54.0,125.0 L 46.0,126.0 L 36.0,130.0 L 34.0,130.0 L 35.0,122.0 L 38.0,111.0 L 34.0,104.0 L 14.0,101.0 L 20.0,94.0 L 26.0,88.0 L 28.0,88.0 L 27.0,77.0 L 14.0,66.0 L 14.0,64.0 L 29.0,60.0 L 33.0,60.0 L 34.0,56.0 L 35.0,49.0 L 30.0,34.0 L 37.0,35.0 L 44.0,37.0 L 51.0,37.0 L 56.0,34.0 L 59.0,15.0 L 63.0,17.0 L 71.0,25.0 L 72.0,27.0 L 83.0,27.0 L 95.0,13.0" fill="#FCEBA0"/>
	<path d="M 72.0,44.0 L 87.0,44.0 L 96.0,47.0 L 102.0,51.0 L 107.0,55.0 L 113.0,64.0 L 116.0,73.0 L 116.0,88.0 L 111.0,100.0 L 103.0,109.0 L 91.0,115.0 L 88.0,116.0 L 73.0,116.0 L 62.0,112.0 L 53.0,105.0 L 47.0,96.0 L 44.0,87.0 L 44.0,72.0 L 48.0,62.0 L 55.0,53.0 L 64.0,47.0 L 72.0,44.0" fill="#F5CE85"/>
	<path d="M 95.0,13.0 L 96.0,13.0 L 100.0,29.0 L 100.0,33.0 L 106.0,35.0 L 113.0,34.0 L 124.0,30.0 L 127.0,31.0 L 123.0,44.0 L 123.0,51.0 L 126.0,56.0 L 145.0,59.0 L 143.0,63.0 L 134.0,72.0 L 132.0,72.0 L 133.0,83.0 L 146.0,94.0 L 146.0,96.0 L 131.0,100.0 L 127.0,100.0 L 125.0,106.0 L 126.0,113.0 L 130.0,124.0 L 130.0,126.0 L 122.0,125.0 L 115.0,123.0 L 109.0,123.0 L 104.0,126.0 L 101.0,145.0 L 97.0,143.0 L 88.0,134.0 L 88.0,132.0 L 77.0,133.0 L 66.0,146.0 L 64.0,146.0 L 60.0,131.0 L 60.0,127.0 L 54.0,125.0 L 46.0,126.0 L 36.0,130.0 L 34.0,130.0 L 35.0,122.0 L 38.0,111.0 L 34.0,104.0 L 14.0,101.0 L 20.0,94.0 L 26.0,88.0 L 28.0,88.0 L 27.0,77.0 L 14.0,66.0 L 14.0,64.0 L 29.0,60.0 L 33.0,60.0 L 34.0,56.0 L 35.0,49.0 L 30.0,34.0 L 37.0,35.0 L 44.0,37.0 L 51.0,37.0 L 56.0,34.0 L 59.0,15.0 L 63.0,17.0 L 71.0,25.0 L 72.0,27.0 L 83.0,27.0 L 95.0,13.0 M 93.0,21.0 L 85.0,31.0 L 71.0,31.0 L 63.0,23.0 L 61.0,26.0 L 60.0,37.0 L 54.0,39.0 L 50.0,42.0 L 36.0,39.0 L 37.0,44.0 L 40.0,53.0 L 34.0,63.0 L 21.0,66.0 L 26.0,71.0 L 31.0,75.0 L 31.0,89.0 L 22.0,97.0 L 25.0,99.0 L 37.0,100.0 L 39.0,106.0 L 42.0,111.0 L 39.0,124.0 L 49.0,121.0 L 55.0,121.0 L 63.0,126.0 L 66.0,138.0 L 69.0,137.0 L 75.0,129.0 L 89.0,129.0 L 97.0,137.0 L 99.0,134.0 L 100.0,123.0 L 106.0,121.0 L 110.0,118.0 L 121.0,121.0 L 124.0,121.0 L 123.0,116.0 L 121.0,111.0 L 122.0,104.0 L 126.0,97.0 L 139.0,94.0 L 134.0,89.0 L 129.0,85.0 L 129.0,71.0 L 136.0,64.0 L 138.0,62.0 L 128.0,60.0 L 123.0,60.0 L 121.0,54.0 L 118.0,50.0 L 121.0,36.0 L 110.0,39.0 L 104.0,38.0 L 98.0,35.0 L 95.0,26.0 L 94.0,21.0 L 93.0,21.0" fill="#BFA254"/>
</svg>
