<?xml version="1.0" ?>
<svg baseProfile="full" height="600px" version="1.1" viewBox="-16.08 -16.08 192.16 192.16" width="600px" xmlns="http://www.w3.org/2000/svg" xmlns:ev="http://www.w3.org/2001/xml-events" xmlns:xlink="http://www.w3.org/1999/xlink">
	<defs/>
	<path d="M 0.0,0.0 L 160.0,0.0 L 160.0,160.0 L 0.0,160.0 L 0.0,0.0" fill="#FDFDFC"/>
	<path d="M 79.0,5.0 L 81.0,5.0 L 90.0,23.0 L 96.0,25.0 L 101.0,25.0 L 117.0,14.0 L 118.0,14.0 L 118.0,37.0 L 123.0,42.0 L 146.0,42.0 L 139.0,53.0 L 135.0,59.0 L 136.0,68.0 L 139.0,71.0 L 155.0,79.0 L 155.0,81.0 L 137.0,90.0 L 135.0,96.0 L 135.0,101.0 L 146.0,117.0 L 146.0,118.0 L 123.0,118.0 L 118.0,123.0 L 118.0,146.0 L 107.0,139.0 L 101.0,135.0 L 92.0,136.0 L 89.0,139.0 L 81.0,155.0 L 79.0,155.0 L 70.0,137.0 L 63.0,135.0 L 58.0,136.0 L 43.0,146.0 L 42.0,146.0 L 42.0,123.0 L 37.0,118.0 L 14.0,118.0 L 21.0,107.0 L 25.0,101.0 L 24.0,93.0 L 23.0,90.0 L 5.0,81.0 L 5.0,79.0 L 23.0,70.0 L 25.0,63.0 L 24.0,58.0 L 14.0,43.0 L 14.0,42.0 L 37.0,42.0 L 42.0,37.0 L 42.0,14.0 L 53.0,21.0 L 59.0,25.0 L 68.0,24.0 L 71.0,21.0 L 79.0,5.0" fill="#FDEBA0"/>
	<path d="M 72.0,40.0 L 85.0,40.0 L 99.0,44.0 L 108.0,51.0 L 114.0,58.0 L 119.0,70.0 L 120.0,73.0 L 120.0,84.0 L 118.0,94.0 L 113.0,103.0 L 105.0,112.0 L 94.0,118.0 L 88.0,120.0 L 73.0,120.0 L 60.0,115.0 L 54.0,111.0 L 46.0,102.0 L 42.0,95.0 L 40.0,85.0 L 40.0,72.0 L 44.0,62.0 L 50.0,53.0 L 58.0,46.0 L 66.0,42.0 L 72.0,40.0" fill="#F5CE85"/>
	<path d="M 79.0,5.0 L 81.0,5.0 L 90.0,23.0 L 96.0,25.0 L 101.0,25.0 L 117.0,14.0 L 118.0,14.0 L 118.0,37.0 L 123.0,42.0 L 146.0,42.0 L 139.0,53.0 L 135.0,59.0 L 136.0,68.0 L 139.0,71.0 L 155.0,79.0 L 155.0,81.0 L 137.0,90.0 L 135.0,96.0 L 135.0,101.0 L 146.0,117.0 L 146.0,118.0 L 123.0,118.0 L 118.0,123.0 L 118.0,146.0 L 107.0,139.0 L 101.0,135.0 L 92.0,136.0 L 89.0,139.0 L 81.0,155.0 L 79.0,155.0 L 70.0,137.0 L 63.0,135.0 L 58.0,136.0 L 43.0,146.0 L 42.0,146.0 L 42.0,123.0 L 37.0,118.0 L 14.0,118.0 L 21.0,107.0 L 25.0,101.0 L 24.0,93.0 L 23.0,90.0 L 5.0,81.0 L 5.0,79.0 L 23.0,70.0 L 25.0,63.0 L 24.0,58.0 L 14.0,43.0 L 14.0,42.0 L 37.0,42.0 L 42.0,37.0 L 42.0,14.0 L 53.0,21.0 L 59.0,25.0 L 68.0,24.0 L 71.0,21.0 L 79.0,5.0 M 79.0,14.0 L 73.0,26.0 L 73.0,28.0 L 64.0,29.0 L 59.0,30.0 L 49.0,23.0 L 47.0,23.0 L 46.0,39.0 L 39.0,46.0 L 23.0,47.0 L 25.0,52.0 L 30.0,59.0 L 28.0,69.0 L 28.0,73.0 L 22.0,75.0 L 14.0,79.0 L 14.0,81.0 L 26.0,87.0 L 28.0,87.0 L 29.0,95.0 L 30.0,101.0 L 23.0,111.0 L 23.0,113.0 L 39.0,114.0 L 46.0,121.0 L 47.0,137.0 L 52.0,135.0 L 59.0,130.0 L 64.0,131.0 L 73.0,132.0 L 75.0,138.0 L 79.0,146.0 L 81.0,146.0 L 87.0,134.0 L 87.0,132.0 L 96.0,131.0 L 101.0,130.0 L 111.0,137.0 L 113.0,137.0 L 114.0,121.0 L 121.0,114.0 L 137.0,113.0 L 135.0,108.0 L 130.0,101.0 L 132.0,93.0 L 132.0,87.0 L 138.0,85.0 L 146.0,81.0 L 146.0,79.0 L 134.0,73.0 L 132.0,73.0 L 131.0,64.0 L 130.0,59.0 L 137.0,49.0 L 137.0,47.0 L 121.0,46.0 L 114.0,39.0 L 113.0,23.0 L 108.0,25.0 L 101.0,30.0 L 92.0,28.0 L 87.0,28.0 L 85.0,22.0 L 81.0,14.0 L 79.0,14.0" fill="#BEA050"/>
</svg>
