<?xml version="1.0" ?>
<svg baseProfile="full" height="600px" version="1.1" viewBox="-12.06 -12.06 144.12 144.12" width="600px" xmlns="http://www.w3.org/2000/svg" xmlns:ev="http://www.w3.org/2001/xml-events" xmlns:xlink="http://www.w3.org/1999/xlink">
	<defs/>
	<path d="M 0.0,0.0 L 120.0,0.0 L 120.0,120.0 L 0.0,120.0 L 0.0,0.0" fill="#FCFCFC"/>
	<path d="M 54.0,32.0 L 65.0,32.0 L 74.0,35.0 L 83.0,43.0 L 88.0,53.0 L 88.0,66.0 L 84.0,75.0 L 77.0,83.0 L 69.0,87.0 L 66.0,88.0 L 53.0,88.0 L 43.0,83.0 L 35.0,74.0 L 32.0,65.0 L 32.0,54.0 L 36.0,45.0 L 43.0,37.0 L 51.0,33.0 L 54.0,32.0" fill="#030303"/>
	<path d="M 74.0,99.0 L 79.0,99.0 L 81.0,102.0 L 80.0,108.0 L 74.0,108.0 L 72.0,105.0 L 73.0,100.0 L 74.0,99.0" fill="#0F0F0F"/>
	<path d="M 102.0,39.0 L 108.0,40.0 L 108.0,46.0 L 104.0,48.0 L 100.0,47.0 L 99.0,46.0 L 99.0,41.0 L 102.0,39.0" fill="#0F0F0F"/>
	<path d="M 41.0,13.0 L 46.0,13.0 L 48.0,16.0 L 48.0,21.0 L 47.0,22.0 L 41.0,22.0 L 39.0,18.0 L 40.0,14.0 L 41.0,13.0" fill="#0E0E0E"/>
	<path d="M 16.0,37.0 L 22.0,38.0 L 23.0,39.0 L 23.0,44.0 L 21.0,46.0 L 16.0,45.0 L 14.0,44.0 L 14.0,38.0 L 16.0,37.0" fill="#0D0D0D"/>
	<path d="M 39.0,97.0 L 44.0,97.0 L 46.0,99.0 L 45.0,104.0 L 44.0,106.0 L 39.0,106.0 L 37.0,104.0 L 38.0,98.0 L 39.0,97.0" fill="#0B0B0B"/>
	<path d="M 99.0,75.0 L 106.0,76.0 L 107.0,77.0 L 107.0,82.0 L 106.0,83.0 L 100.0,83.0 L 98.0,81.0 L 98.0,76.0 L 99.0,75.0" fill="#070707"/>
	<path d="M 16.0,72.0 L 21.0,72.0 L 22.0,73.0 L 22.0,78.0 L 20.0,80.0 L 14.0,80.0 L 13.0,79.0 L 13.0,74.0 L 16.0,72.0" fill="#070707"/>
	<path d="M 77.0,13.0 L 82.0,13.0 L 83.0,14.0 L 82.0,21.0 L 81.0,22.0 L 76.0,22.0 L 75.0,21.0 L 75.0,15.0 L 77.0,13.0" fill="#070707"/>
</svg>
