<?xml version="1.0" ?>
<svg baseProfile="full" height="600px" version="1.1" viewBox="-16.08 -16.08 192.16 192.16" width="600px" xmlns="http://www.w3.org/2000/svg" xmlns:ev="http://www.w3.org/2001/xml-events" xmlns:xlink="http://www.w3.org/1999/xlink">
	<defs/>
	<path d="M 0.0,0.0 L 160.0,0.0 L 160.0,160.0 L 0.0,160.0 L 0.0,0.0" fill="#FDFDFC"/>
	<path d="M 63.0,14.0 L 65.0,14.0 L 74.0,25.0 L 76.0,29.0 L 86.0,28.0 L 95.0,18.0 L 99.0,15.0 L 102.0,28.0 L 104.0,34.0 L 109.0,37.0 L 116.0,36.0 L 125.0,33.0 L 129.0,33.0 L 126.0,43.0 L 124.0,49.0 L 125.0,54.0 L 128.0,59.0 L 146.0,63.0 L 140.0,70.0 L 133.0,76.0 L 131.0,76.0 L 132.0,86.0 L 142.0,95.0 L 145.0,99.0 L 128.0,103.0 L 124.0,107.0 L 123.0,114.0 L 127.0,125.0 L 127.0,129.0 L 122.0,128.0 L 111.0,124.0 L 106.0,125.0 L 101.0,128.0 L 97.0,146.0 L 95.0,146.0 L 86.0,135.0 L 84.0,131.0 L 74.0,132.0 L 63.0,144.0 L 61.0,145.0 L 58.0,133.0 L 58.0,126.0 L 53.0,124.0 L 47.0,123.0 L 35.0,127.0 L 31.0,127.0 L 34.0,116.0 L 36.0,107.0 L 32.0,101.0 L 14.0,97.0 L 14.0,95.0 L 25.0,86.0 L 29.0,84.0 L 28.0,74.0 L 18.0,65.0 L 15.0,61.0 L 21.0,59.0 L 26.0,58.0 L 34.0,58.0 L 36.0,53.0 L 37.0,46.0 L 33.0,34.0 L 33.0,31.0 L 43.0,34.0 L 49.0,36.0 L 54.0,35.0 L 59.0,32.0 L 63.0,14.0" fill="#FCEB9F"/>
	<path d="M 74.0,44.0 L 87.0,44.0 L 97.0,48.0 L 103.0,52.0 L 110.0,59.0 L 114.0,67.0 L 116.0,75.0 L 116.0,84.0 L 114.0,94.0 L 107.0,105.0 L 98.0,112.0 L 91.0,115.0 L 86.0,116.0 L 73.0,116.0 L 60.0,111.0 L 50.0,101.0 L 46.0,93.0 L 44.0,87.0 L 44.0,72.0 L 48.0,62.0 L 55.0,53.0 L 62.0,48.0 L 69.0,45.0 L 74.0,44.0" fill="#F5CE85"/>
	<path d="M 63.0,14.0 L 65.0,14.0 L 74.0,25.0 L 76.0,29.0 L 86.0,28.0 L 95.0,18.0 L 99.0,15.0 L 102.0,28.0 L 104.0,34.0 L 109.0,37.0 L 116.0,36.0 L 125.0,33.0 L 129.0,33.0 L 126.0,43.0 L 124.0,49.0 L 125.0,54.0 L 128.0,59.0 L 146.0,63.0 L 140.0,70.0 L 133.0,76.0 L 131.0,76.0 L 132.0,86.0 L 142.0,95.0 L 145.0,99.0 L 128.0,103.0 L 124.0,107.0 L 123.0,114.0 L 127.0,125.0 L 127.0,129.0 L 122.0,128.0 L 111.0,124.0 L 106.0,125.0 L 101.0,128.0 L 97.0,146.0 L 95.0,146.0 L 86.0,135.0 L 84.0,131.0 L 74.0,132.0 L 63.0,144.0 L 61.0,145.0 L 58.0,133.0 L 58.0,126.0 L 53.0,124.0 L 47.0,123.0 L 35.0,127.0 L 31.0,127.0 L 34.0,116.0 L 36.0,107.0 L 32.0,101.0 L 14.0,97.0 L 14.0,95.0 L 25.0,86.0 L 29.0,84.0 L 28.0,74.0 L 18.0,65.0 L 15.0,61.0 L 21.0,59.0 L 26.0,58.0 L 34.0,58.0 L 36.0,53.0 L 37.0,46.0 L 33.0,34.0 L 33.0,31.0 L 43.0,34.0 L 49.0,36.0 L 54.0,35.0 L 59.0,32.0 L 63.0,14.0 M 65.0,22.0 L 62.0,35.0 L 53.0,40.0 L 46.0,39.0 L 41.0,37.0 L 38.0,38.0 L 41.0,47.0 L 41.0,52.0 L 36.0,60.0 L 22.0,63.0 L 27.0,68.0 L 31.0,72.0 L 31.0,86.0 L 22.0,93.0 L 22.0,95.0 L 36.0,98.0 L 38.0,104.0 L 40.0,107.0 L 39.0,113.0 L 37.0,121.0 L 47.0,119.0 L 52.0,119.0 L 60.0,124.0 L 63.0,138.0 L 68.0,133.0 L 72.0,129.0 L 86.0,129.0 L 94.0,138.0 L 96.0,135.0 L 98.0,125.0 L 107.0,120.0 L 116.0,122.0 L 122.0,123.0 L 119.0,113.0 L 119.0,108.0 L 124.0,100.0 L 138.0,97.0 L 133.0,92.0 L 129.0,88.0 L 129.0,74.0 L 138.0,66.0 L 134.0,64.0 L 124.0,62.0 L 122.0,56.0 L 120.0,53.0 L 121.0,46.0 L 123.0,39.0 L 112.0,41.0 L 107.0,40.0 L 100.0,36.0 L 97.0,23.0 L 93.0,25.0 L 88.0,31.0 L 74.0,31.0 L 66.0,22.0 L 65.0,22.0" fill="#BEA151"/>
</svg>
