<?xml version="1.0" ?>
<svg baseProfile="full" height="600px" version="1.1" viewBox="-12.864 -12.864 153.728 153.728" width="600px" xmlns="http://www.w3.org/2000/svg" xmlns:ev="http://www.w3.org/2001/xml-events" xmlns:xlink="http://www.w3.org/1999/xlink">
	<defs/>
	<path d="M 0.0,0.0 L 128.0,0.0 L 128.0,128.0 L 0.0,128.0 L 0.0,0.0" fill="#FCFCFC"/>
	<path d="M 59.0,44.0 L 68.0,44.0 L 77.0,48.0 L 83.0,56.0 L 84.0,59.0 L 84.0,69.0 L 79.0,78.0 L 71.0,83.0 L 69.0,84.0 L 59.0,84.0 L 51.0,80.0 L 46.0,74.0 L 44.0,69.0 L 44.0,59.0 L 48.0,51.0 L 56.0,45.0 L 59.0,44.0" fill="#F8F8F8"/>
	<path d="M 58.0,36.0 L 69.0,36.0 L 79.0,40.0 L 87.0,47.0 L 91.0,54.0 L 92.0,59.0 L 92.0,70.0 L 88.0,79.0 L 81.0,87.0 L 73.0,91.0 L 70.0,92.0 L 57.0,92.0 L 47.0,87.0 L 39.0,78.0 L 36.0,69.0 L 36.0,58.0 L 40.0,49.0 L 47.0,41.0 L 55.0,37.0 L 58.0,36.0 M 59.0,44.0 L 51.0,48.0 L 45.0,56.0 L 44.0,59.0 L 44.0,69.0 L 48.0,77.0 L 56.0,83.0 L 59.0,84.0 L 69.0,84.0 L 78.0,79.0 L 83.0,71.0 L 84.0,69.0 L 84.0,59.0 L 80.0,51.0 L 74.0,46.0 L 68.0,44.0 L 59.0,44.0" fill="#070707"/>
	<path d="M 60.0,96.0 L 68.0,96.0 L 68.0,116.0 L 60.0,116.0 L 60.0,96.0" fill="#000000"/>
	<path d="M 96.0,60.0 L 116.0,60.0 L 116.0,68.0 L 96.0,68.0 L 96.0,60.0" fill="#000000"/>
	<path d="M 12.0,60.0 L 32.0,60.0 L 32.0,68.0 L 12.0,68.0 L 12.0,60.0" fill="#000000"/>
	<path d="M 60.0,12.0 L 68.0,12.0 L 68.0,32.0 L 60.0,32.0 L 60.0,12.0" fill="#000000"/>
	<path d="M 89.0,84.0 L 96.0,90.0 L 103.0,97.0 L 101.0,101.0 L 97.0,103.0 L 84.0,90.0 L 89.0,84.0" fill="#030303"/>
	<path d="M 38.0,84.0 L 44.0,89.0 L 38.0,96.0 L 31.0,103.0 L 27.0,101.0 L 25.0,97.0 L 38.0,84.0" fill="#020202"/>
	<path d="M 97.0,25.0 L 101.0,27.0 L 103.0,31.0 L 90.0,44.0 L 84.0,39.0 L 90.0,32.0 L 97.0,25.0" fill="#020202"/>
	<path d="M 29.0,25.0 L 33.0,27.0 L 44.0,38.0 L 39.0,44.0 L 32.0,38.0 L 25.0,31.0 L 27.0,27.0 L 29.0,25.0" fill="#030303"/>
</svg>
