<?xml version="1.0" ?>
<svg baseProfile="full" height="600px" version="1.1" viewBox="-12.06 -12.06 144.12 144.12" width="600px" xmlns="http://www.w3.org/2000/svg" xmlns:ev="http://www.w3.org/2001/xml-events" xmlns:xlink="http://www.w3.org/1999/xlink">
	<defs/>
	<path d="M 0.0,0.0 L 120.0,0.0 L 120.0,120.0 L 0.0,120.0 L 0.0,0.0" fill="#FCFCFC"/>
	<path d="M 54.0,32.0 L 65.0,32.0 L 74.0,35.0 L 83.0,43.0 L 88.0,53.0 L 88.0,66.0 L 84.0,75.0 L 77.0,83.0 L 69.0,87.0 L 66.0,88.0 L 53.0,88.0 L 43.0,83.0 L 35.0,74.0 L 32.0,65.0 L 32.0,54.0 L 36.0,45.0 L 43.0,37.0 L 51.0,33.0 L 54.0,32.0" fill="#030303"/>
	<path d="M 87.0,84.0 L 91.0,85.0 L 101.0,95.0 L 100.0,100.0 L 95.0,101.0 L 84.0,90.0 L 85.0,85.0 L 87.0,84.0" fill="#0C0C0C"/>
	<path d="M 30.0,84.0 L 35.0,85.0 L 36.0,90.0 L 25.0,101.0 L 20.0,100.0 L 19.0,95.0 L 30.0,84.0" fill="#0B0B0B"/>
	<path d="M 95.0,19.0 L 100.0,20.0 L 101.0,25.0 L 90.0,36.0 L 85.0,35.0 L 84.0,30.0 L 95.0,19.0" fill="#0B0B0B"/>
	<path d="M 21.0,19.0 L 26.0,20.0 L 36.0,30.0 L 35.0,35.0 L 30.0,36.0 L 19.0,25.0 L 20.0,20.0 L 21.0,19.0" fill="#0C0C0C"/>
	<path d="M 58.0,96.0 L 63.0,97.0 L 64.0,98.0 L 64.0,114.0 L 62.0,116.0 L 57.0,115.0 L 56.0,114.0 L 56.0,98.0 L 58.0,96.0" fill="#040404"/>
	<path d="M 98.0,56.0 L 114.0,56.0 L 116.0,58.0 L 115.0,63.0 L 114.0,64.0 L 98.0,64.0 L 96.0,62.0 L 97.0,57.0 L 98.0,56.0" fill="#040404"/>
	<path d="M 6.0,56.0 L 22.0,56.0 L 24.0,58.0 L 23.0,63.0 L 22.0,64.0 L 6.0,64.0 L 4.0,62.0 L 5.0,57.0 L 6.0,56.0" fill="#040404"/>
	<path d="M 58.0,4.0 L 63.0,5.0 L 64.0,6.0 L 64.0,22.0 L 62.0,24.0 L 57.0,23.0 L 56.0,22.0 L 56.0,6.0 L 58.0,4.0" fill="#040404"/>
</svg>
