<?xml version="1.0" ?>
<svg baseProfile="full" height="600px" version="1.1" viewBox="-20.1 -20.1 240.2 240.2" width="600px" xmlns="http://www.w3.org/2000/svg" xmlns:ev="http://www.w3.org/2001/xml-events" xmlns:xlink="http://www.w3.org/1999/xlink">
	<defs/>
	<path d="M 0.0,0.0 L 200.0,0.0 L 200.0,200.0 L 0.0,200.0 L 0.0,0.0" fill="#FDFDFD"/>
	<path d="M 93.0,68.0 L 106.0,68.0 L 118.0,73.0 L 124.0,78.0 L 130.0,88.0 L 132.0,93.0 L 132.0,107.0 L 126.0,119.0 L 122.0,124.0 L 112.0,130.0 L 106.0,132.0 L 93.0,132.0 L 81.0,126.0 L 76.0,122.0 L 70.0,112.0 L 68.0,106.0 L 68.0,93.0 L 75.0,79.0 L 84.0,72.0 L 93.0,68.0" fill="#FBFBFB"/>
	<path d="M 92.0,60.0 L 105.0,60.0 L 116.0,63.0 L 126.0,69.0 L 134.0,78.0 L 138.0,86.0 L 140.0,92.0 L 140.0,106.0 L 138.0,114.0 L 132.0,125.0 L 125.0,132.0 L 112.0,139.0 L 106.0,140.0 L 92.0,140.0 L 80.0,135.0 L 72.0,129.0 L 66.0,122.0 L 62.0,114.0 L 60.0,105.0 L 60.0,92.0 L 64.0,81.0 L 71.0,72.0 L 78.0,66.0 L 86.0,62.0 L 92.0,60.0 M 93.0,68.0 L 84.0,72.0 L 75.0,79.0 L 68.0,93.0 L 68.0,106.0 L 73.0,118.0 L 78.0,124.0 L 88.0,130.0 L 93.0,132.0 L 106.0,132.0 L 118.0,127.0 L 124.0,122.0 L 130.0,112.0 L 132.0,107.0 L 132.0,93.0 L 126.0,81.0 L 122.0,76.0 L 112.0,70.0 L 106.0,68.0 L 93.0,68.0" fill="#070707"/>
	<path d="M 153.0,126.0 L 158.0,127.0 L 168.0,133.0 L 167.0,139.0 L 161.0,139.0 L 152.0,134.0 L 151.0,128.0 L 153.0,126.0" fill="#0E0E0E"/>
	<path d="M 166.0,76.0 L 173.0,76.0 L 174.0,77.0 L 174.0,82.0 L 172.0,84.0 L 162.0,87.0 L 158.0,86.0 L 156.0,84.0 L 157.0,80.0 L 166.0,76.0" fill="#0E0E0E"/>
	<path d="M 77.0,26.0 L 82.0,26.0 L 85.0,31.0 L 87.0,41.0 L 84.0,44.0 L 80.0,43.0 L 78.0,41.0 L 76.0,34.0 L 76.0,27.0 L 77.0,26.0" fill="#0E0E0E"/>
	<path d="M 116.0,156.0 L 120.0,157.0 L 124.0,166.0 L 124.0,173.0 L 123.0,174.0 L 118.0,174.0 L 116.0,172.0 L 113.0,162.0 L 114.0,158.0 L 116.0,156.0" fill="#0D0D0D"/>
	<path d="M 38.0,113.0 L 42.0,114.0 L 44.0,116.0 L 43.0,120.0 L 34.0,124.0 L 27.0,124.0 L 26.0,123.0 L 26.0,118.0 L 31.0,115.0 L 38.0,113.0" fill="#0D0D0D"/>
	<path d="M 33.0,61.0 L 39.0,61.0 L 48.0,66.0 L 49.0,72.0 L 48.0,73.0 L 42.0,73.0 L 32.0,67.0 L 32.0,62.0 L 33.0,61.0" fill="#0C0C0C"/>
	<path d="M 68.0,151.0 L 73.0,152.0 L 73.0,158.0 L 67.0,168.0 L 61.0,167.0 L 61.0,161.0 L 66.0,152.0 L 68.0,151.0" fill="#0B0B0B"/>
	<path d="M 133.0,32.0 L 139.0,33.0 L 139.0,39.0 L 134.0,48.0 L 128.0,49.0 L 127.0,48.0 L 127.0,42.0 L 133.0,32.0" fill="#0A0A0A"/>
</svg>
