<?xml version="1.0" ?>
<svg baseProfile="full" height="600px" version="1.1" viewBox="-20.1 -20.1 240.2 240.2" width="600px" xmlns="http://www.w3.org/2000/svg" xmlns:ev="http://www.w3.org/2001/xml-events" xmlns:xlink="http://www.w3.org/1999/xlink">
	<defs/>
	<path d="M 0.0,0.0 L 200.0,0.0 L 200.0,200.0 L 0.0,200.0 L 0.0,0.0" fill="#FDFDFD"/>
	<path d="M 93.0,68.0 L 106.0,68.0 L 118.0,73.0 L 124.0,78.0 L 130.0,88.0 L 132.0,93.0 L 132.0,107.0 L 126.0,119.0 L 122.0,124.0 L 112.0,130.0 L 106.0,132.0 L 93.0,132.0 L 81.0,126.0 L 76.0,122.0 L 70.0,112.0 L 68.0,106.0 L 68.0,93.0 L 75.0,79.0 L 84.0,72.0 L 93.0,68.0" fill="#FBFBFB"/>
	<path d="M 92.0,60.0 L 105.0,60.0 L 116.0,63.0 L 126.0,69.0 L 134.0,78.0 L 138.0,86.0 L 140.0,92.0 L 140.0,106.0 L 138.0,114.0 L 132.0,125.0 L 125.0,132.0 L 112.0,139.0 L 106.0,140.0 L 92.0,140.0 L 80.0,135.0 L 72.0,129.0 L 66.0,122.0 L 62.0,114.0 L 60.0,105.0 L 60.0,92.0 L 64.0,81.0 L 71.0,72.0 L 78.0,66.0 L 86.0,62.0 L 92.0,60.0 M 93.0,68.0 L 84.0,72.0 L 75.0,79.0 L 68.0,93.0 L 68.0,106.0 L 73.0,118.0 L 78.0,124.0 L 88.0,130.0 L 93.0,132.0 L 106.0,132.0 L 118.0,127.0 L 124.0,122.0 L 130.0,112.0 L 132.0,107.0 L 132.0,93.0 L 126.0,81.0 L 122.0,76.0 L 112.0,70.0 L 106.0,68.0 L 93.0,68.0" fill="#070707"/>
	<path d="M 23.0,83.0 L 33.0,84.0 L 43.0,86.0 L 45.0,88.0 L 44.0,93.0 L 43.0,94.0 L 30.0,93.0 L 22.0,90.0 L 21.0,85.0 L 23.0,83.0" fill="#121212"/>
	<path d="M 111.0,21.0 L 116.0,22.0 L 117.0,23.0 L 117.0,29.0 L 115.0,37.0 L 113.0,44.0 L 108.0,45.0 L 106.0,43.0 L 107.0,30.0 L 109.0,23.0 L 111.0,21.0" fill="#121212"/>
	<path d="M 88.0,155.0 L 93.0,156.0 L 94.0,157.0 L 93.0,167.0 L 91.0,177.0 L 89.0,179.0 L 84.0,178.0 L 83.0,177.0 L 84.0,167.0 L 86.0,157.0 L 88.0,155.0" fill="#0F0F0F"/>
	<path d="M 157.0,106.0 L 174.0,108.0 L 179.0,111.0 L 178.0,116.0 L 177.0,117.0 L 167.0,116.0 L 157.0,114.0 L 155.0,112.0 L 156.0,107.0 L 157.0,106.0" fill="#0F0F0F"/>
	<path d="M 133.0,145.0 L 138.0,146.0 L 148.0,160.0 L 147.0,165.0 L 142.0,166.0 L 134.0,156.0 L 131.0,151.0 L 132.0,146.0 L 133.0,145.0" fill="#0A0A0A"/>
	<path d="M 49.0,131.0 L 54.0,132.0 L 55.0,137.0 L 43.0,146.0 L 40.0,148.0 L 35.0,147.0 L 34.0,142.0 L 44.0,134.0 L 49.0,131.0" fill="#0A0A0A"/>
	<path d="M 54.0,34.0 L 59.0,35.0 L 69.0,49.0 L 68.0,54.0 L 63.0,55.0 L 54.0,43.0 L 52.0,40.0 L 53.0,35.0 L 54.0,34.0" fill="#0A0A0A"/>
	<path d="M 160.0,52.0 L 165.0,53.0 L 166.0,58.0 L 156.0,66.0 L 151.0,69.0 L 146.0,68.0 L 145.0,63.0 L 160.0,52.0" fill="#090909"/>
</svg>
