<?xml version="1.0" ?>
<svg baseProfile="full" height="600px" version="1.1" viewBox="-12.06 -12.06 144.12 144.12" width="600px" xmlns="http://www.w3.org/2000/svg" xmlns:ev="http://www.w3.org/2001/xml-events" xmlns:xlink="http://www.w3.org/1999/xlink">
	<defs/>
	<path d="M 0.0,0.0 L 120.0,0.0 L 120.0,120.0 L 0.0,120.0 L 0.0,0.0" fill="#FCFCFC"/>
	<path d="M 54.0,32.0 L 65.0,32.0 L 74.0,35.0 L 83.0,43.0 L 88.0,53.0 L 88.0,66.0 L 84.0,75.0 L 77.0,83.0 L 69.0,87.0 L 66.0,88.0 L 53.0,88.0 L 43.0,83.0 L 35.0,74.0 L 32.0,65.0 L 32.0,54.0 L 36.0,45.0 L 43.0,37.0 L 51.0,33.0 L 54.0,32.0" fill="#030303"/>
	<path d="M 11.0,44.0 L 20.0,45.0 L 22.0,47.0 L 22.0,52.0 L 21.0,53.0 L 14.0,53.0 L 9.0,50.0 L 10.0,45.0 L 11.0,44.0" fill="#131313"/>
	<path d="M 80.0,94.0 L 85.0,94.0 L 89.0,100.0 L 88.0,105.0 L 83.0,106.0 L 78.0,100.0 L 79.0,95.0 L 80.0,94.0" fill="#0E0E0E"/>
	<path d="M 100.0,31.0 L 105.0,32.0 L 106.0,37.0 L 100.0,42.0 L 95.0,41.0 L 94.0,40.0 L 94.0,35.0 L 100.0,31.0" fill="#0E0E0E"/>
	<path d="M 47.0,98.0 L 52.0,98.0 L 53.0,99.0 L 53.0,106.0 L 51.0,110.0 L 45.0,110.0 L 44.0,109.0 L 45.0,100.0 L 47.0,98.0" fill="#0E0E0E"/>
	<path d="M 100.0,67.0 L 109.0,68.0 L 111.0,70.0 L 111.0,75.0 L 110.0,76.0 L 103.0,76.0 L 99.0,74.0 L 99.0,68.0 L 100.0,67.0" fill="#0E0E0E"/>
	<path d="M 70.0,9.0 L 75.0,9.0 L 76.0,10.0 L 76.0,17.0 L 74.0,21.0 L 68.0,21.0 L 67.0,20.0 L 68.0,11.0 L 70.0,9.0" fill="#0D0D0D"/>
	<path d="M 21.0,78.0 L 26.0,79.0 L 27.0,84.0 L 21.0,88.0 L 16.0,88.0 L 15.0,87.0 L 15.0,82.0 L 21.0,78.0" fill="#090909"/>
	<path d="M 33.0,15.0 L 38.0,15.0 L 42.0,21.0 L 41.0,26.0 L 36.0,27.0 L 32.0,21.0 L 32.0,16.0 L 33.0,15.0" fill="#090909"/>
</svg>
