<?xml version="1.0" ?>
<svg baseProfile="full" height="600px" version="1.1" viewBox="-20.1 -20.1 240.2 240.2" width="600px" xmlns="http://www.w3.org/2000/svg" xmlns:ev="http://www.w3.org/2001/xml-events" xmlns:xlink="http://www.w3.org/1999/xlink">
	<defs/>
	<path d="M 0.0,0.0 L 200.0,0.0 L 200.0,200.0 L 0.0,200.0 L 0.0,0.0" fill="#FDFDFD"/>
	<path d="M 93.0,68.0 L 106.0,68.0 L 118.0,73.0 L 124.0,78.0 L 130.0,88.0 L 132.0,93.0 L 132.0,107.0 L 126.0,119.0 L 122.0,124.0 L 112.0,130.0 L 106.0,132.0 L 93.0,132.0 L 81.0,126.0 L 76.0,122.0 L 70.0,112.0 L 68.0,106.0 L 68.0,93.0 L 75.0,79.0 L 84.0,72.0 L 93.0,68.0" fill="#FBFBFB"/>
	<path d="M 92.0,60.0 L 105.0,60.0 L 116.0,63.0 L 126.0,69.0 L 134.0,78.0 L 138.0,86.0 L 140.0,92.0 L 140.0,106.0 L 138.0,114.0 L 132.0,125.0 L 125.0,132.0 L 112.0,139.0 L 106.0,140.0 L 92.0,140.0 L 80.0,135.0 L 72.0,129.0 L 66.0,122.0 L 62.0,114.0 L 60.0,105.0 L 60.0,92.0 L 64.0,81.0 L 71.0,72.0 L 78.0,66.0 L 86.0,62.0 L 92.0,60.0 M 93.0,68.0 L 84.0,72.0 L 75.0,79.0 L 68.0,93.0 L 68.0,106.0 L 73.0,118.0 L 78.0,124.0 L 88.0,130.0 L 93.0,132.0 L 106.0,132.0 L 118.0,127.0 L 124.0,122.0 L 130.0,112.0 L 132.0,107.0 L 132.0,93.0 L 126.0,81.0 L 122.0,76.0 L 112.0,70.0 L 106.0,68.0 L 93.0,68.0" fill="#070707"/>
	<path d="M 76.0,157.0 L 81.0,157.0 L 83.0,159.0 L 82.0,165.0 L 80.0,170.0 L 78.0,172.0 L 73.0,171.0 L 72.0,166.0 L 76.0,157.0" fill="#111111"/>
	<path d="M 159.0,117.0 L 168.0,119.0 L 172.0,122.0 L 171.0,127.0 L 166.0,128.0 L 157.0,124.0 L 157.0,119.0 L 159.0,117.0" fill="#111111"/>
	<path d="M 30.0,72.0 L 36.0,73.0 L 43.0,76.0 L 43.0,81.0 L 41.0,83.0 L 35.0,82.0 L 29.0,79.0 L 28.0,74.0 L 30.0,72.0" fill="#101010"/>
	<path d="M 122.0,28.0 L 127.0,29.0 L 128.0,34.0 L 124.0,43.0 L 119.0,43.0 L 117.0,41.0 L 118.0,34.0 L 122.0,28.0" fill="#0F0F0F"/>
	<path d="M 40.0,124.0 L 45.0,125.0 L 46.0,130.0 L 38.0,135.0 L 33.0,135.0 L 31.0,133.0 L 32.0,128.0 L 40.0,124.0" fill="#0C0C0C"/>
	<path d="M 162.0,65.0 L 167.0,65.0 L 169.0,67.0 L 168.0,72.0 L 160.0,76.0 L 155.0,75.0 L 154.0,70.0 L 162.0,65.0" fill="#0C0C0C"/>
	<path d="M 67.0,31.0 L 72.0,32.0 L 76.0,40.0 L 75.0,45.0 L 70.0,46.0 L 65.0,38.0 L 65.0,33.0 L 67.0,31.0" fill="#0C0C0C"/>
	<path d="M 126.0,154.0 L 131.0,155.0 L 135.0,162.0 L 135.0,167.0 L 133.0,169.0 L 128.0,168.0 L 124.0,160.0 L 125.0,155.0 L 126.0,154.0" fill="#0A0A0A"/>
</svg>
