<?xml version="1.0" ?>
<svg baseProfile="full" height="600px" version="1.1" viewBox="-19.296000000000003 -19.296000000000003 230.592 230.592" width="600px" xmlns="http://www.w3.org/2000/svg" xmlns:ev="http://www.w3.org/2001/xml-events" xmlns:xlink="http://www.w3.org/1999/xlink">
	<defs/>
	<path d="M 0.0,0.0 L 192.0,0.0 L 192.0,192.0 L 0.0,192.0 L 0.0,0.0" fill="#FFFEFE"/>
	<path d="M 65.0,17.0 L 69.0,19.0 L 83.0,29.0 L 97.0,39.0 L 108.0,33.0 L 128.0,21.0 L 131.0,22.0 L 137.0,56.0 L 137.0,58.0 L 146.0,59.0 L 175.0,65.0 L 173.0,70.0 L 157.0,99.0 L 158.0,105.0 L 170.0,126.0 L 171.0,130.0 L 156.0,134.0 L 141.0,137.0 L 139.0,138.0 L 127.0,175.0 L 123.0,173.0 L 109.0,163.0 L 95.0,153.0 L 84.0,159.0 L 64.0,171.0 L 62.0,171.0 L 56.0,142.0 L 55.0,135.0 L 17.0,127.0 L 19.0,122.0 L 31.0,100.0 L 35.0,93.0 L 34.0,87.0 L 22.0,66.0 L 21.0,62.0 L 45.0,56.0 L 53.0,55.0 L 56.0,44.0 L 65.0,17.0" fill="#FF9902"/>
	<path d="M 88.0,50.0 L 104.0,50.0 L 116.0,54.0 L 126.0,60.0 L 135.0,70.0 L 141.0,83.0 L 142.0,88.0 L 142.0,104.0 L 138.0,116.0 L 132.0,126.0 L 122.0,135.0 L 111.0,140.0 L 104.0,142.0 L 88.0,142.0 L 78.0,139.0 L 69.0,134.0 L 60.0,126.0 L 54.0,116.0 L 50.0,104.0 L 50.0,88.0 L 53.0,78.0 L 58.0,69.0 L 66.0,60.0 L 76.0,54.0 L 83.0,51.0 L 88.0,50.0" fill="#FFEA3A"/>
</svg>
