<?xml version="1.0" ?>
<svg baseProfile="full" height="600px" version="1.1" viewBox="-9.648000000000001 -9.648000000000001 115.296 115.296" width="600px" xmlns="http://www.w3.org/2000/svg" xmlns:ev="http://www.w3.org/2001/xml-events" xmlns:xlink="http://www.w3.org/1999/xlink">
	<defs/>
	<path d="M 0.0,0.0 L 96.0,0.0 L 96.0,96.0 L 0.0,96.0 L 0.0,0.0" fill="#FBFBFB"/>
	<path d="M 41.0,23.0 L 54.0,23.0 L 63.0,27.0 L 71.0,36.0 L 73.0,42.0 L 73.0,54.0 L 69.0,63.0 L 60.0,71.0 L 54.0,73.0 L 42.0,73.0 L 35.0,70.0 L 27.0,63.0 L 23.0,54.0 L 23.0,41.0 L 27.0,33.0 L 34.0,26.0 L 41.0,23.0" fill="#020202"/>
	<path d="M 82.0,27.0 L 85.0,28.0 L 87.0,34.0 L 83.0,36.0 L 80.0,36.0 L 78.0,32.0 L 78.0,29.0 L 82.0,27.0" fill="#191919"/>
	<path d="M 32.0,9.0 L 34.0,9.0 L 36.0,13.0 L 36.0,16.0 L 32.0,18.0 L 29.0,18.0 L 27.0,12.0 L 32.0,9.0" fill="#191919"/>
	<path d="M 64.0,78.0 L 67.0,78.0 L 69.0,84.0 L 64.0,87.0 L 62.0,87.0 L 60.0,83.0 L 60.0,80.0 L 64.0,78.0" fill="#171717"/>
	<path d="M 14.0,60.0 L 16.0,60.0 L 18.0,64.0 L 18.0,67.0 L 12.0,69.0 L 9.0,64.0 L 9.0,62.0 L 14.0,60.0" fill="#171717"/>
	<path d="M 10.0,31.0 L 16.0,33.0 L 15.0,39.0 L 12.0,40.0 L 8.0,38.0 L 9.0,32.0 L 10.0,31.0" fill="#141414"/>
	<path d="M 33.0,80.0 L 39.0,81.0 L 40.0,83.0 L 38.0,88.0 L 32.0,87.0 L 31.0,84.0 L 33.0,80.0" fill="#101010"/>
	<path d="M 58.0,8.0 L 65.0,10.0 L 63.0,16.0 L 57.0,15.0 L 56.0,12.0 L 58.0,8.0" fill="#121212"/>
	<path d="M 82.0,56.0 L 88.0,58.0 L 86.0,65.0 L 80.0,63.0 L 81.0,57.0 L 82.0,56.0" fill="#0C0C0C"/>
</svg>
