<?xml version="1.0" ?>
<svg baseProfile="full" height="600px" version="1.1" viewBox="-19.296000000000003 -19.296000000000003 230.592 230.592" width="600px" xmlns="http://www.w3.org/2000/svg" xmlns:ev="http://www.w3.org/2001/xml-events" xmlns:xlink="http://www.w3.org/1999/xlink">
	<defs/>
	<path d="M 0.0,0.0 L 192.0,0.0 L 192.0,192.0 L 0.0,192.0 L 0.0,0.0" fill="#FFFEFE"/>
	<path d="M 101.0,23.0 L 103.0,23.0 L 114.0,37.0 L 120.0,45.0 L 153.0,47.0 L 152.0,67.0 L 151.0,81.0 L 161.0,92.0 L 168.0,100.0 L 169.0,103.0 L 159.0,111.0 L 148.0,120.0 L 146.0,120.0 L 146.0,140.0 L 145.0,153.0 L 130.0,152.0 L 121.0,151.0 L 111.0,151.0 L 101.0,160.0 L 93.0,167.0 L 89.0,169.0 L 78.0,155.0 L 72.0,147.0 L 62.0,146.0 L 39.0,145.0 L 40.0,127.0 L 41.0,111.0 L 31.0,100.0 L 24.0,92.0 L 23.0,89.0 L 33.0,81.0 L 44.0,72.0 L 45.0,68.0 L 47.0,39.0 L 64.0,40.0 L 70.0,41.0 L 81.0,41.0 L 91.0,32.0 L 99.0,25.0 L 101.0,23.0" fill="#FF9903"/>
	<path d="M 88.0,52.0 L 104.0,52.0 L 116.0,56.0 L 125.0,62.0 L 132.0,69.0 L 139.0,83.0 L 140.0,88.0 L 140.0,104.0 L 136.0,116.0 L 130.0,125.0 L 123.0,132.0 L 111.0,138.0 L 104.0,140.0 L 88.0,140.0 L 78.0,137.0 L 68.0,131.0 L 60.0,123.0 L 54.0,111.0 L 52.0,104.0 L 52.0,88.0 L 55.0,78.0 L 61.0,68.0 L 69.0,60.0 L 83.0,53.0 L 88.0,52.0" fill="#FFEA3A"/>
</svg>
