<?xml version="1.0" ?>
<svg baseProfile="full" height="600px" version="1.1" viewBox="-19.296000000000003 -19.296000000000003 230.592 230.592" width="600px" xmlns="http://www.w3.org/2000/svg" xmlns:ev="http://www.w3.org/2001/xml-events" xmlns:xlink="http://www.w3.org/1999/xlink">
	<defs/>
	<path d="M 0.0,0.0 L 192.0,0.0 L 192.0,192.0 L 0.0,192.0 L 0.0,0.0" fill="#FFFEFE"/>
	<path d="M 73.0,17.0 L 81.0,23.0 L 95.0,34.0 L 101.0,39.0 L 106.0,38.0 L 134.0,25.0 L 136.0,25.0 L 140.0,56.0 L 140.0,62.0 L 149.0,64.0 L 175.0,73.0 L 170.0,82.0 L 155.0,104.0 L 157.0,110.0 L 167.0,134.0 L 167.0,136.0 L 141.0,140.0 L 134.0,140.0 L 131.0,149.0 L 119.0,175.0 L 111.0,169.0 L 97.0,158.0 L 91.0,153.0 L 86.0,154.0 L 60.0,166.0 L 56.0,167.0 L 52.0,137.0 L 51.0,131.0 L 24.0,122.0 L 17.0,119.0 L 22.0,110.0 L 37.0,88.0 L 34.0,79.0 L 25.0,58.0 L 25.0,56.0 L 51.0,52.0 L 58.0,52.0 L 59.0,47.0 L 73.0,17.0" fill="#FF9903"/>
	<path d="M 88.0,50.0 L 101.0,50.0 L 113.0,53.0 L 124.0,59.0 L 133.0,68.0 L 139.0,79.0 L 142.0,90.0 L 142.0,101.0 L 139.0,113.0 L 133.0,124.0 L 124.0,133.0 L 110.0,140.0 L 101.0,142.0 L 90.0,142.0 L 79.0,139.0 L 71.0,135.0 L 61.0,126.0 L 55.0,117.0 L 51.0,106.0 L 50.0,102.0 L 50.0,88.0 L 55.0,74.0 L 62.0,65.0 L 71.0,57.0 L 81.0,52.0 L 88.0,50.0" fill="#FFEA3A"/>
</svg>
