<?xml version="1.0" ?>
<svg baseProfile="full" height="600px" version="1.1" viewBox="-19.296000000000003 -19.296000000000003 230.592 230.592" width="600px" xmlns="http://www.w3.org/2000/svg" xmlns:ev="http://www.w3.org/2001/xml-events" xmlns:xlink="http://www.w3.org/1999/xlink">
	<defs/>
	<path d="M 0.0,0.0 L 192.0,0.0 L 192.0,192.0 L 0.0,192.0 L 0.0,0.0" fill="#FFFEFE"/>
	<path d="M 95.0,24.0 L 99.0,26.0 L 116.0,43.0 L 148.0,44.0 L 149.0,76.0 L 168.0,95.0 L 166.0,99.0 L 149.0,116.0 L 148.0,148.0 L 116.0,149.0 L 97.0,168.0 L 93.0,166.0 L 76.0,149.0 L 44.0,148.0 L 43.0,116.0 L 24.0,97.0 L 26.0,93.0 L 43.0,76.0 L 44.0,44.0 L 76.0,43.0 L 95.0,24.0" fill="#FF9903"/>
	<path d="M 89.0,52.0 L 102.0,52.0 L 116.0,56.0 L 127.0,64.0 L 134.0,73.0 L 138.0,81.0 L 140.0,89.0 L 140.0,102.0 L 136.0,116.0 L 128.0,127.0 L 119.0,134.0 L 110.0,138.0 L 102.0,140.0 L 89.0,140.0 L 76.0,136.0 L 65.0,128.0 L 58.0,119.0 L 54.0,110.0 L 52.0,102.0 L 52.0,89.0 L 56.0,76.0 L 64.0,65.0 L 73.0,58.0 L 81.0,54.0 L 89.0,52.0" fill="#FFEA3A"/>
</svg>
