<?xml version="1.0" ?>
<svg baseProfile="full" height="600px" version="1.1" viewBox="-9.648000000000001 -9.648000000000001 115.296 115.296" width="600px" xmlns="http://www.w3.org/2000/svg" xmlns:ev="http://www.w3.org/2001/xml-events" xmlns:xlink="http://www.w3.org/1999/xlink">
	<defs/>
	<path d="M 0.0,0.0 L 96.0,0.0 L 96.0,96.0 L 0.0,96.0 L 0.0,0.0" fill="#FCFCFC"/>
	<path d="M 44.0,22.0 L 53.0,22.0 L 62.0,26.0 L 69.0,32.0 L 73.0,40.0 L 74.0,43.0 L 74.0,53.0 L 71.0,61.0 L 64.0,69.0 L 59.0,72.0 L 53.0,74.0 L 43.0,74.0 L 34.0,70.0 L 27.0,64.0 L 23.0,56.0 L 22.0,53.0 L 22.0,44.0 L 25.0,35.0 L 32.0,27.0 L 39.0,23.0 L 44.0,22.0" fill="#040404"/>
	<path d="M 84.0,33.0 L 88.0,33.0 L 90.0,40.0 L 85.0,42.0 L 82.0,42.0 L 81.0,34.0 L 84.0,33.0" fill="#171717"/>
	<path d="M 38.0,6.0 L 40.0,6.0 L 42.0,11.0 L 42.0,14.0 L 35.0,15.0 L 33.0,12.0 L 33.0,8.0 L 38.0,6.0" fill="#171717"/>
	<path d="M 57.0,81.0 L 62.0,82.0 L 63.0,88.0 L 56.0,90.0 L 54.0,85.0 L 54.0,82.0 L 57.0,81.0" fill="#151515"/>
	<path d="M 27.0,77.0 L 31.0,78.0 L 34.0,80.0 L 32.0,86.0 L 30.0,87.0 L 25.0,84.0 L 26.0,79.0 L 27.0,77.0" fill="#131313"/>
	<path d="M 11.0,54.0 L 14.0,54.0 L 15.0,61.0 L 11.0,63.0 L 8.0,63.0 L 6.0,56.0 L 11.0,54.0" fill="#151515"/>
	<path d="M 12.0,25.0 L 17.0,26.0 L 19.0,27.0 L 18.0,31.0 L 16.0,34.0 L 10.0,32.0 L 9.0,30.0 L 12.0,25.0" fill="#131313"/>
	<path d="M 65.0,9.0 L 71.0,12.0 L 70.0,17.0 L 69.0,19.0 L 63.0,17.0 L 62.0,14.0 L 65.0,9.0" fill="#101010"/>
	<path d="M 80.0,62.0 L 85.0,64.0 L 87.0,66.0 L 84.0,71.0 L 79.0,70.0 L 77.0,69.0 L 79.0,63.0 L 80.0,62.0" fill="#0F0F0F"/>
</svg>
