<?xml version="1.0" ?>
<svg baseProfile="full" height="600px" version="1.1" viewBox="-16.08 -16.08 192.16 192.16" width="600px" xmlns="http://www.w3.org/2000/svg" xmlns:ev="http://www.w3.org/2001/xml-events" xmlns:xlink="http://www.w3.org/1999/xlink">
	<defs/>
	<path d="M 0.0,0.0 L 160.0,0.0 L 160.0,160.0 L 0.0,160.0 L 0.0,0.0" fill="#FEFEFD"/>
	<path d="M 79.0,79.0 L 81.0,79.0 L 90.0,92.0 L 95.0,90.0 L 104.0,84.0 L 106.0,84.0 L 110.0,101.0 L 122.0,99.0 L 127.0,99.0 L 126.0,107.0 L 124.0,117.0 L 142.0,120.0 L 140.0,125.0 L 132.0,137.0 L 136.0,139.0 L 145.0,146.0 L 145.0,149.0 L 137.0,155.0 L 160.0,156.0 L 160.0,160.0 L 0.0,160.0 L 0.0,156.0 L 23.0,155.0 L 14.0,148.0 L 19.0,143.0 L 26.0,137.0 L 24.0,131.0 L 19.0,121.0 L 28.0,118.0 L 36.0,117.0 L 33.0,102.0 L 33.0,99.0 L 43.0,100.0 L 51.0,102.0 L 52.0,92.0 L 54.0,84.0 L 59.0,86.0 L 68.0,92.0 L 71.0,91.0 L 79.0,79.0" fill="#F5CF86"/>
	<path d="M 79.0,86.0 L 81.0,86.0 L 89.0,97.0 L 94.0,95.0 L 101.0,91.0 L 103.0,91.0 L 107.0,105.0 L 114.0,105.0 L 122.0,104.0 L 120.0,120.0 L 135.0,123.0 L 133.0,128.0 L 128.0,136.0 L 128.0,138.0 L 139.0,146.0 L 137.0,150.0 L 129.0,156.0 L 110.0,156.0 L 110.0,140.0 L 106.0,130.0 L 99.0,122.0 L 89.0,117.0 L 86.0,116.0 L 75.0,116.0 L 66.0,119.0 L 58.0,125.0 L 52.0,134.0 L 50.0,141.0 L 50.0,156.0 L 31.0,156.0 L 21.0,148.0 L 21.0,146.0 L 32.0,138.0 L 26.0,126.0 L 25.0,123.0 L 37.0,120.0 L 40.0,120.0 L 38.0,104.0 L 47.0,105.0 L 54.0,107.0 L 57.0,91.0 L 62.0,93.0 L 71.0,99.0 L 73.0,95.0 L 79.0,86.0" fill="#FDEBA0"/>
	<path d="M 79.0,79.0 L 81.0,79.0 L 90.0,92.0 L 95.0,90.0 L 104.0,84.0 L 106.0,84.0 L 110.0,101.0 L 122.0,99.0 L 127.0,99.0 L 126.0,107.0 L 124.0,117.0 L 142.0,120.0 L 140.0,125.0 L 132.0,137.0 L 136.0,139.0 L 145.0,146.0 L 145.0,149.0 L 137.0,155.0 L 160.0,156.0 L 160.0,160.0 L 0.0,160.0 L 0.0,156.0 L 23.0,155.0 L 14.0,148.0 L 19.0,143.0 L 26.0,137.0 L 24.0,131.0 L 19.0,121.0 L 28.0,118.0 L 36.0,117.0 L 33.0,102.0 L 33.0,99.0 L 43.0,100.0 L 51.0,102.0 L 52.0,92.0 L 54.0,84.0 L 59.0,86.0 L 68.0,92.0 L 71.0,91.0 L 79.0,79.0 M 79.0,86.0 L 71.0,97.0 L 71.0,99.0 L 59.0,91.0 L 57.0,91.0 L 54.0,107.0 L 42.0,104.0 L 38.0,104.0 L 40.0,120.0 L 29.0,122.0 L 25.0,123.0 L 27.0,128.0 L 32.0,138.0 L 21.0,146.0 L 23.0,150.0 L 31.0,156.0 L 129.0,156.0 L 139.0,148.0 L 139.0,146.0 L 128.0,138.0 L 130.0,133.0 L 135.0,125.0 L 135.0,123.0 L 120.0,120.0 L 122.0,104.0 L 107.0,105.0 L 103.0,91.0 L 98.0,93.0 L 91.0,97.0 L 87.0,95.0 L 81.0,86.0 L 79.0,86.0" fill="#BEA150"/>
	<path d="M 0.0,156.0 L 160.0,156.0 L 160.0,160.0 L 0.0,160.0 L 0.0,156.0" fill="#36404D"/>
</svg>
