<?xml version="1.0" ?>
<svg baseProfile="full" height="600px" version="1.1" viewBox="-20.1 -20.1 240.2 240.2" width="600px" xmlns="http://www.w3.org/2000/svg" xmlns:ev="http://www.w3.org/2001/xml-events" xmlns:xlink="http://www.w3.org/1999/xlink">
	<defs/>
	<path d="M 0.0,0.0 L 200.0,0.0 L 200.0,200.0 L 0.0,200.0 L 0.0,0.0" fill="#FDFDFD"/>
	<path d="M 93.0,116.0 L 106.0,116.0 L 116.0,120.0 L 123.0,125.0 L 130.0,136.0 L 131.0,139.0 L 131.0,156.0 L 127.0,166.0 L 121.0,173.0 L 113.0,178.0 L 107.0,180.0 L 92.0,180.0 L 82.0,175.0 L 76.0,170.0 L 71.0,162.0 L 69.0,157.0 L 69.0,139.0 L 74.0,129.0 L 78.0,124.0 L 87.0,118.0 L 93.0,116.0" fill="#FCFCFC"/>
	<path d="M 91.0,108.0 L 109.0,108.0 L 121.0,113.0 L 131.0,122.0 L 137.0,132.0 L 139.0,138.0 L 139.0,158.0 L 134.0,170.0 L 125.0,180.0 L 115.0,186.0 L 110.0,188.0 L 90.0,188.0 L 81.0,184.0 L 73.0,178.0 L 66.0,170.0 L 61.0,158.0 L 61.0,138.0 L 66.0,126.0 L 75.0,116.0 L 85.0,110.0 L 91.0,108.0 M 93.0,116.0 L 84.0,120.0 L 77.0,125.0 L 70.0,136.0 L 69.0,139.0 L 69.0,157.0 L 74.0,167.0 L 79.0,173.0 L 89.0,179.0 L 92.0,180.0 L 107.0,180.0 L 117.0,176.0 L 124.0,170.0 L 129.0,162.0 L 131.0,156.0 L 131.0,139.0 L 126.0,129.0 L 122.0,124.0 L 115.0,119.0 L 106.0,116.0 L 93.0,116.0" fill="#080808"/>
	<path d="M 142.0,178.0 L 148.0,178.0 L 165.0,191.0 L 198.0,192.0 L 200.0,194.0 L 200.0,200.0 L 0.0,200.0 L 0.0,194.0 L 2.0,192.0 L 62.0,191.0 L 64.0,189.0 L 69.0,189.0 L 70.0,192.0 L 150.0,191.0 L 141.0,184.0 L 141.0,179.0 L 142.0,178.0" fill="#020202"/>
	<path d="M 86.0,65.0 L 91.0,65.0 L 93.0,67.0 L 96.0,86.0 L 96.0,95.0 L 94.0,97.0 L 89.0,96.0 L 87.0,91.0 L 84.0,68.0 L 86.0,65.0" fill="#0D0D0D"/>
	<path d="M 38.0,152.0 L 47.0,152.0 L 49.0,154.0 L 48.0,159.0 L 43.0,161.0 L 20.0,164.0 L 17.0,162.0 L 17.0,157.0 L 19.0,155.0 L 38.0,152.0" fill="#0C0C0C"/>
	<path d="M 171.0,133.0 L 182.0,133.0 L 183.0,139.0 L 181.0,141.0 L 162.0,144.0 L 153.0,144.0 L 151.0,142.0 L 152.0,137.0 L 157.0,135.0 L 171.0,133.0" fill="#090909"/>
	<path d="M 34.0,96.0 L 39.0,97.0 L 58.0,111.0 L 59.0,112.0 L 59.0,117.0 L 57.0,119.0 L 52.0,118.0 L 32.0,103.0 L 32.0,98.0 L 34.0,96.0" fill="#070707"/>
	<path d="M 146.0,80.0 L 151.0,81.0 L 152.0,86.0 L 138.0,105.0 L 136.0,107.0 L 131.0,107.0 L 129.0,105.0 L 130.0,100.0 L 144.0,82.0 L 146.0,80.0" fill="#060606"/>
</svg>
