<?xml version="1.0" ?>
<svg baseProfile="full" height="600px" version="1.1" viewBox="-20.1 -20.1 240.2 240.2" width="600px" xmlns="http://www.w3.org/2000/svg" xmlns:ev="http://www.w3.org/2001/xml-events" xmlns:xlink="http://www.w3.org/1999/xlink">
	<defs/>
	<path d="M 0.0,0.0 L 200.0,0.0 L 200.0,200.0 L 0.0,200.0 L 0.0,0.0" fill="#FDFDFD"/>
	<path d="M 96.0,81.0 L 104.0,81.0 L 115.0,85.0 L 122.0,90.0 L 128.0,99.0 L 131.0,107.0 L 131.0,120.0 L 127.0,131.0 L 121.0,139.0 L 112.0,145.0 L 106.0,147.0 L 95.0,147.0 L 86.0,144.0 L 77.0,137.0 L 71.0,127.0 L 69.0,121.0 L 69.0,107.0 L 73.0,97.0 L 79.0,89.0 L 89.0,83.0 L 96.0,81.0" fill="#FBFBFB"/>
	<path d="M 115.0,163.0 L 119.0,164.0 L 123.0,173.0 L 127.0,187.0 L 127.0,192.0 L 198.0,192.0 L 200.0,194.0 L 200.0,200.0 L 0.0,200.0 L 0.0,194.0 L 2.0,192.0 L 119.0,192.0 L 112.0,170.0 L 113.0,164.0 L 115.0,163.0" fill="#020202"/>
	<path d="M 92.0,73.0 L 106.0,73.0 L 118.0,77.0 L 127.0,84.0 L 134.0,93.0 L 137.0,99.0 L 139.0,106.0 L 139.0,123.0 L 133.0,137.0 L 124.0,147.0 L 114.0,153.0 L 107.0,155.0 L 93.0,155.0 L 84.0,152.0 L 75.0,146.0 L 67.0,137.0 L 62.0,126.0 L 61.0,120.0 L 61.0,110.0 L 63.0,99.0 L 68.0,90.0 L 76.0,81.0 L 86.0,75.0 L 92.0,73.0 M 96.0,81.0 L 87.0,84.0 L 78.0,90.0 L 72.0,99.0 L 69.0,107.0 L 69.0,121.0 L 74.0,133.0 L 80.0,140.0 L 90.0,146.0 L 95.0,147.0 L 106.0,147.0 L 116.0,143.0 L 124.0,136.0 L 130.0,124.0 L 131.0,120.0 L 131.0,107.0 L 127.0,97.0 L 121.0,89.0 L 111.0,83.0 L 104.0,81.0 L 96.0,81.0" fill="#070707"/>
	<path d="M 72.0,159.0 L 77.0,160.0 L 78.0,165.0 L 66.0,187.0 L 64.0,189.0 L 59.0,188.0 L 58.0,183.0 L 69.0,162.0 L 72.0,159.0" fill="#090909"/>
	<path d="M 148.0,136.0 L 153.0,137.0 L 173.0,148.0 L 175.0,150.0 L 174.0,155.0 L 169.0,156.0 L 148.0,145.0 L 145.0,142.0 L 146.0,137.0 L 148.0,136.0" fill="#080808"/>
	<path d="M 28.0,72.0 L 33.0,73.0 L 53.0,84.0 L 55.0,86.0 L 54.0,91.0 L 49.0,92.0 L 27.0,80.0 L 25.0,78.0 L 26.0,73.0 L 28.0,72.0" fill="#080808"/>
	<path d="M 136.0,39.0 L 141.0,40.0 L 142.0,45.0 L 130.0,67.0 L 128.0,69.0 L 123.0,68.0 L 122.0,63.0 L 134.0,41.0 L 136.0,39.0" fill="#080808"/>
	<path d="M 44.0,126.0 L 49.0,127.0 L 51.0,129.0 L 50.0,133.0 L 41.0,137.0 L 27.0,141.0 L 21.0,141.0 L 20.0,140.0 L 20.0,134.0 L 31.0,130.0 L 44.0,126.0" fill="#090909"/>
	<path d="M 74.0,34.0 L 79.0,34.0 L 82.0,39.0 L 88.0,58.0 L 87.0,64.0 L 82.0,65.0 L 79.0,61.0 L 73.0,42.0 L 73.0,35.0 L 74.0,34.0" fill="#090909"/>
	<path d="M 172.0,87.0 L 179.0,87.0 L 180.0,88.0 L 180.0,93.0 L 175.0,96.0 L 156.0,102.0 L 150.0,101.0 L 149.0,96.0 L 153.0,93.0 L 172.0,87.0" fill="#080808"/>
</svg>
