<?xml version="1.0" ?>
<svg baseProfile="full" height="600px" version="1.1" viewBox="-12.864 -12.864 153.728 153.728" width="600px" xmlns="http://www.w3.org/2000/svg" xmlns:ev="http://www.w3.org/2001/xml-events" xmlns:xlink="http://www.w3.org/1999/xlink">
	<defs/>
	<path d="M 0.0,0.0 L 128.0,0.0 L 128.0,128.0 L 0.0,128.0 L 0.0,0.0" fill="#FCFCFC"/>
	<path d="M 49.0,23.0 L 52.0,23.0 L 57.0,35.0 L 57.0,38.0 L 67.0,37.0 L 71.0,38.0 L 74.0,28.0 L 76.0,23.0 L 81.0,24.0 L 83.0,25.0 L 82.0,32.0 L 79.0,39.0 L 80.0,43.0 L 86.0,49.0 L 86.0,51.0 L 99.0,46.0 L 102.0,46.0 L 104.0,50.0 L 103.0,54.0 L 92.0,59.0 L 90.0,59.0 L 91.0,62.0 L 91.0,74.0 L 104.0,80.0 L 103.0,85.0 L 102.0,88.0 L 97.0,87.0 L 89.0,83.0 L 85.0,85.0 L 80.0,91.0 L 78.0,91.0 L 81.0,99.0 L 108.0,100.0 L 108.0,108.0 L 20.0,108.0 L 20.0,100.0 L 47.0,99.0 L 50.0,91.0 L 46.0,89.0 L 42.0,84.0 L 42.0,82.0 L 30.0,87.0 L 26.0,88.0 L 24.0,80.0 L 36.0,74.0 L 38.0,74.0 L 37.0,72.0 L 37.0,61.0 L 38.0,59.0 L 29.0,56.0 L 24.0,53.0 L 25.0,48.0 L 26.0,45.0 L 32.0,47.0 L 42.0,51.0 L 44.0,47.0 L 49.0,42.0 L 48.0,36.0 L 45.0,28.0 L 45.0,25.0 L 49.0,23.0" fill="#060606"/>
	<path d="M 59.0,46.0 L 68.0,46.0 L 76.0,50.0 L 82.0,58.0 L 83.0,61.0 L 83.0,72.0 L 79.0,80.0 L 72.0,86.0 L 70.0,87.0 L 58.0,87.0 L 52.0,83.0 L 47.0,77.0 L 45.0,71.0 L 45.0,61.0 L 49.0,53.0 L 56.0,47.0 L 59.0,46.0" fill="#FBFBFB"/>
	<path d="M 57.0,95.0 L 71.0,96.0 L 72.0,100.0 L 56.0,100.0 L 57.0,95.0" fill="#F9F9F9"/>
</svg>
