<?xml version="1.0" ?>
<svg baseProfile="full" height="600px" version="1.1" viewBox="-20.1 -20.1 240.2 240.2" width="600px" xmlns="http://www.w3.org/2000/svg" xmlns:ev="http://www.w3.org/2001/xml-events" xmlns:xlink="http://www.w3.org/1999/xlink">
	<defs/>
	<path d="M 0.0,0.0 L 200.0,0.0 L 200.0,200.0 L 0.0,200.0 L 0.0,0.0" fill="#FDFDFD"/>
	<path d="M 92.0,156.0 L 105.0,156.0 L 116.0,159.0 L 126.0,165.0 L 134.0,174.0 L 139.0,184.0 L 140.0,192.0 L 198.0,192.0 L 200.0,194.0 L 200.0,200.0 L 0.0,200.0 L 0.0,194.0 L 2.0,192.0 L 60.0,192.0 L 61.0,186.0 L 64.0,178.0 L 70.0,169.0 L 78.0,162.0 L 88.0,157.0 L 92.0,156.0" fill="#040404"/>
	<path d="M 93.0,164.0 L 106.0,164.0 L 118.0,169.0 L 124.0,174.0 L 130.0,184.0 L 131.0,186.0 L 131.0,192.0 L 69.0,192.0 L 70.0,183.0 L 77.0,173.0 L 87.0,166.0 L 93.0,164.0" fill="#FBFBFB"/>
	<path d="M 155.0,135.0 L 159.0,136.0 L 161.0,138.0 L 160.0,142.0 L 141.0,161.0 L 137.0,160.0 L 135.0,158.0 L 136.0,153.0 L 152.0,137.0 L 155.0,135.0" fill="#0C0C0C"/>
	<path d="M 42.0,135.0 L 46.0,136.0 L 64.0,154.0 L 64.0,159.0 L 62.0,161.0 L 57.0,160.0 L 40.0,143.0 L 39.0,138.0 L 42.0,135.0" fill="#0C0C0C"/>
	<path d="M 98.0,112.0 L 103.0,113.0 L 104.0,114.0 L 104.0,142.0 L 102.0,144.0 L 97.0,143.0 L 96.0,142.0 L 96.0,114.0 L 98.0,112.0" fill="#020202"/>
</svg>
