<?xml version="1.0" ?>
<svg baseProfile="full" height="600px" version="1.1" viewBox="-12.864 -12.864 153.728 153.728" width="600px" xmlns="http://www.w3.org/2000/svg" xmlns:ev="http://www.w3.org/2001/xml-events" xmlns:xlink="http://www.w3.org/1999/xlink">
	<defs/>
	<path d="M 0.0,0.0 L 128.0,0.0 L 128.0,128.0 L 0.0,128.0 L 0.0,0.0" fill="#FCFCFC"/>
	<path d="M 69.0,5.0 L 76.0,5.0 L 77.0,6.0 L 76.0,14.0 L 75.0,21.0 L 85.0,27.0 L 89.0,26.0 L 99.0,20.0 L 101.0,20.0 L 104.0,25.0 L 103.0,28.0 L 93.0,34.0 L 91.0,34.0 L 93.0,40.0 L 94.0,48.0 L 109.0,51.0 L 109.0,57.0 L 108.0,59.0 L 96.0,57.0 L 91.0,57.0 L 86.0,65.0 L 84.0,65.0 L 88.0,73.0 L 92.0,78.0 L 90.0,82.0 L 85.0,84.0 L 77.0,73.0 L 77.0,71.0 L 71.0,73.0 L 62.0,73.0 L 61.0,81.0 L 59.0,88.0 L 52.0,88.0 L 51.0,83.0 L 54.0,71.0 L 49.0,70.0 L 43.0,66.0 L 38.0,67.0 L 30.0,72.0 L 26.0,71.0 L 24.0,68.0 L 24.0,65.0 L 36.0,58.0 L 35.0,52.0 L 35.0,44.0 L 24.0,43.0 L 18.0,42.0 L 20.0,34.0 L 29.0,35.0 L 37.0,37.0 L 39.0,32.0 L 43.0,27.0 L 42.0,23.0 L 36.0,15.0 L 36.0,12.0 L 41.0,9.0 L 44.0,10.0 L 51.0,20.0 L 51.0,22.0 L 55.0,20.0 L 66.0,20.0 L 67.0,13.0 L 69.0,5.0" fill="#080808"/>
	<path d="M 59.0,27.0 L 69.0,27.0 L 77.0,31.0 L 83.0,38.0 L 85.0,42.0 L 85.0,49.0 L 82.0,57.0 L 75.0,63.0 L 70.0,65.0 L 57.0,65.0 L 49.0,60.0 L 45.0,55.0 L 43.0,49.0 L 43.0,42.0 L 48.0,34.0 L 54.0,29.0 L 59.0,27.0" fill="#F9F9F9"/>
	<path d="M 20.0,100.0 L 108.0,100.0 L 108.0,108.0 L 20.0,108.0 L 20.0,100.0" fill="#000000"/>
</svg>
