<?xml version="1.0" ?>
<svg baseProfile="full" height="600px" version="1.1" viewBox="-16.08 -16.08 192.16 192.16" width="600px" xmlns="http://www.w3.org/2000/svg" xmlns:ev="http://www.w3.org/2001/xml-events" xmlns:xlink="http://www.w3.org/1999/xlink">
	<defs/>
	<path d="M 0.0,0.0 L 160.0,0.0 L 160.0,160.0 L 0.0,160.0 L 0.0,0.0" fill="#FEFDFD"/>
	<path d="M 79.0,57.0 L 81.0,57.0 L 90.0,70.0 L 98.0,66.0 L 105.0,62.0 L 109.0,76.0 L 109.0,80.0 L 121.0,77.0 L 126.0,77.0 L 125.0,87.0 L 123.0,96.0 L 132.0,97.0 L 140.0,99.0 L 138.0,105.0 L 131.0,116.0 L 135.0,118.0 L 145.0,126.0 L 140.0,131.0 L 133.0,137.0 L 135.0,143.0 L 140.0,153.0 L 135.0,155.0 L 160.0,156.0 L 160.0,160.0 L 0.0,160.0 L 0.0,156.0 L 25.0,155.0 L 20.0,154.0 L 21.0,150.0 L 28.0,139.0 L 28.0,137.0 L 19.0,130.0 L 15.0,126.0 L 27.0,116.0 L 26.0,112.0 L 20.0,101.0 L 20.0,99.0 L 37.0,95.0 L 34.0,82.0 L 34.0,77.0 L 43.0,78.0 L 52.0,80.0 L 53.0,67.0 L 54.0,62.0 L 58.0,63.0 L 68.0,70.0 L 71.0,69.0 L 79.0,57.0" fill="#F5CF86"/>
	<path d="M 79.0,64.0 L 81.0,64.0 L 89.0,76.0 L 101.0,69.0 L 103.0,69.0 L 106.0,82.0 L 106.0,85.0 L 121.0,82.0 L 119.0,98.0 L 134.0,102.0 L 130.0,110.0 L 127.0,115.0 L 127.0,117.0 L 137.0,125.0 L 137.0,128.0 L 127.0,136.0 L 133.0,148.0 L 133.0,151.0 L 120.0,155.0 L 119.0,156.0 L 94.0,156.0 L 99.0,152.0 L 104.0,146.0 L 108.0,139.0 L 110.0,131.0 L 110.0,122.0 L 107.0,112.0 L 101.0,103.0 L 96.0,99.0 L 87.0,95.0 L 72.0,95.0 L 64.0,99.0 L 57.0,105.0 L 52.0,115.0 L 51.0,118.0 L 51.0,135.0 L 55.0,145.0 L 60.0,151.0 L 66.0,155.0 L 66.0,156.0 L 42.0,156.0 L 41.0,154.0 L 26.0,151.0 L 28.0,146.0 L 33.0,138.0 L 32.0,135.0 L 22.0,127.0 L 26.0,122.0 L 33.0,117.0 L 27.0,105.0 L 27.0,102.0 L 39.0,98.0 L 41.0,98.0 L 39.0,87.0 L 39.0,82.0 L 50.0,84.0 L 55.0,85.0 L 56.0,73.0 L 57.0,69.0 L 62.0,71.0 L 69.0,76.0 L 71.0,76.0 L 79.0,64.0" fill="#FDEBA0"/>
	<path d="M 79.0,57.0 L 81.0,57.0 L 90.0,70.0 L 98.0,66.0 L 105.0,62.0 L 109.0,76.0 L 109.0,80.0 L 121.0,77.0 L 126.0,77.0 L 125.0,87.0 L 123.0,96.0 L 132.0,97.0 L 140.0,99.0 L 138.0,105.0 L 131.0,116.0 L 135.0,118.0 L 145.0,126.0 L 140.0,131.0 L 133.0,137.0 L 135.0,143.0 L 140.0,153.0 L 135.0,155.0 L 160.0,156.0 L 160.0,160.0 L 0.0,160.0 L 0.0,156.0 L 25.0,155.0 L 20.0,154.0 L 21.0,150.0 L 28.0,139.0 L 28.0,137.0 L 19.0,130.0 L 15.0,126.0 L 27.0,116.0 L 26.0,112.0 L 20.0,101.0 L 20.0,99.0 L 37.0,95.0 L 34.0,82.0 L 34.0,77.0 L 43.0,78.0 L 52.0,80.0 L 53.0,67.0 L 54.0,62.0 L 58.0,63.0 L 68.0,70.0 L 71.0,69.0 L 79.0,57.0 M 79.0,64.0 L 71.0,76.0 L 66.0,74.0 L 59.0,69.0 L 57.0,69.0 L 55.0,80.0 L 55.0,85.0 L 42.0,82.0 L 39.0,82.0 L 40.0,92.0 L 41.0,98.0 L 29.0,101.0 L 27.0,102.0 L 28.0,107.0 L 33.0,117.0 L 23.0,125.0 L 23.0,128.0 L 33.0,136.0 L 31.0,141.0 L 26.0,149.0 L 26.0,151.0 L 41.0,154.0 L 42.0,156.0 L 119.0,156.0 L 126.0,153.0 L 133.0,151.0 L 132.0,146.0 L 127.0,136.0 L 138.0,127.0 L 134.0,122.0 L 127.0,117.0 L 129.0,111.0 L 134.0,103.0 L 131.0,101.0 L 119.0,98.0 L 121.0,82.0 L 106.0,85.0 L 104.0,74.0 L 103.0,69.0 L 98.0,71.0 L 89.0,76.0 L 81.0,64.0 L 79.0,64.0" fill="#BEA151"/>
	<path d="M 0.0,156.0 L 160.0,156.0 L 160.0,160.0 L 0.0,160.0 L 0.0,156.0" fill="#36404D"/>
</svg>
