<?xml version="1.0" ?>
<svg baseProfile="full" height="600px" version="1.1" viewBox="-20.1 -20.1 240.2 240.2" width="600px" xmlns="http://www.w3.org/2000/svg" xmlns:ev="http://www.w3.org/2001/xml-events" xmlns:xlink="http://www.w3.org/1999/xlink">
	<defs/>
	<path d="M 0.0,0.0 L 200.0,0.0 L 200.0,200.0 L 0.0,200.0 L 0.0,0.0" fill="#FDFDFD"/>
	<path d="M 93.0,58.0 L 106.0,58.0 L 116.0,61.0 L 126.0,67.0 L 132.0,74.0 L 135.0,81.0 L 135.0,93.0 L 130.0,103.0 L 122.0,110.0 L 111.0,115.0 L 106.0,116.0 L 93.0,116.0 L 82.0,112.0 L 73.0,106.0 L 67.0,98.0 L 65.0,93.0 L 65.0,81.0 L 70.0,71.0 L 78.0,64.0 L 89.0,59.0 L 93.0,58.0" fill="#FBFBFB"/>
	<path d="M 91.0,51.0 L 109.0,51.0 L 121.0,55.0 L 131.0,61.0 L 138.0,68.0 L 144.0,80.0 L 144.0,92.0 L 140.0,103.0 L 133.0,111.0 L 125.0,117.0 L 117.0,121.0 L 109.0,123.0 L 92.0,123.0 L 81.0,120.0 L 73.0,116.0 L 63.0,107.0 L 58.0,99.0 L 56.0,93.0 L 56.0,80.0 L 62.0,68.0 L 70.0,60.0 L 78.0,55.0 L 91.0,51.0 M 93.0,58.0 L 82.0,62.0 L 73.0,68.0 L 67.0,76.0 L 65.0,81.0 L 65.0,93.0 L 70.0,103.0 L 78.0,110.0 L 89.0,115.0 L 93.0,116.0 L 106.0,116.0 L 116.0,113.0 L 126.0,107.0 L 132.0,100.0 L 135.0,93.0 L 135.0,81.0 L 130.0,71.0 L 122.0,64.0 L 111.0,59.0 L 106.0,58.0 L 93.0,58.0" fill="#070707"/>
	<path d="M 2.0,192.0 L 198.0,192.0 L 200.0,194.0 L 200.0,200.0 L 0.0,200.0 L 0.0,194.0 L 2.0,192.0" fill="#010101"/>
	<path d="M 154.0,92.0 L 167.0,94.0 L 179.0,96.0 L 183.0,99.0 L 182.0,104.0 L 181.0,105.0 L 169.0,104.0 L 153.0,101.0 L 151.0,99.0 L 151.0,94.0 L 154.0,92.0" fill="#0C0C0C"/>
	<path d="M 88.0,138.0 L 93.0,138.0 L 94.0,139.0 L 94.0,148.0 L 90.0,168.0 L 88.0,170.0 L 83.0,169.0 L 82.0,168.0 L 83.0,155.0 L 86.0,140.0 L 88.0,138.0" fill="#0A0A0A"/>
	<path d="M 112.0,4.0 L 117.0,5.0 L 118.0,6.0 L 117.0,18.0 L 114.0,34.0 L 112.0,36.0 L 107.0,35.0 L 106.0,34.0 L 106.0,25.0 L 109.0,8.0 L 112.0,4.0" fill="#0A0A0A"/>
	<path d="M 19.0,69.0 L 26.0,69.0 L 47.0,73.0 L 49.0,75.0 L 48.0,80.0 L 47.0,81.0 L 39.0,81.0 L 19.0,77.0 L 17.0,75.0 L 18.0,70.0 L 19.0,69.0" fill="#090909"/>
	<path d="M 163.0,37.0 L 169.0,38.0 L 170.0,42.0 L 165.0,47.0 L 148.0,59.0 L 143.0,58.0 L 142.0,57.0 L 142.0,52.0 L 160.0,39.0 L 163.0,37.0" fill="#080808"/>
	<path d="M 53.0,17.0 L 57.0,18.0 L 68.0,33.0 L 72.0,39.0 L 71.0,44.0 L 66.0,45.0 L 62.0,41.0 L 51.0,25.0 L 50.0,20.0 L 53.0,17.0" fill="#080808"/>
	<path d="M 129.0,129.0 L 135.0,129.0 L 147.0,146.0 L 150.0,150.0 L 149.0,155.0 L 148.0,156.0 L 143.0,156.0 L 132.0,141.0 L 128.0,135.0 L 128.0,130.0 L 129.0,129.0" fill="#080808"/>
	<path d="M 52.0,115.0 L 57.0,116.0 L 58.0,121.0 L 51.0,127.0 L 36.0,137.0 L 32.0,136.0 L 31.0,135.0 L 31.0,130.0 L 43.0,121.0 L 52.0,115.0" fill="#060606"/>
</svg>
