<?xml version="1.0" ?>
<svg baseProfile="full" height="600px" version="1.1" viewBox="-20.1 -20.1 240.2 240.2" width="600px" xmlns="http://www.w3.org/2000/svg" xmlns:ev="http://www.w3.org/2001/xml-events" xmlns:xlink="http://www.w3.org/1999/xlink">
	<defs/>
	<path d="M 0.0,0.0 L 200.0,0.0 L 200.0,200.0 L 0.0,200.0 L 0.0,0.0" fill="#FDFDFD"/>
	<path d="M 92.0,58.0 L 108.0,58.0 L 118.0,62.0 L 126.0,68.0 L 132.0,78.0 L 133.0,81.0 L 133.0,94.0 L 129.0,104.0 L 123.0,111.0 L 115.0,116.0 L 110.0,118.0 L 104.0,119.0 L 94.0,119.0 L 83.0,115.0 L 74.0,108.0 L 69.0,100.0 L 67.0,95.0 L 67.0,81.0 L 73.0,69.0 L 80.0,63.0 L 87.0,59.0 L 92.0,58.0" fill="#FBFBFB"/>
	<path d="M 90.0,50.0 L 109.0,50.0 L 120.0,54.0 L 129.0,60.0 L 136.0,68.0 L 140.0,75.0 L 142.0,82.0 L 142.0,92.0 L 138.0,105.0 L 132.0,113.0 L 124.0,120.0 L 113.0,125.0 L 110.0,126.0 L 91.0,126.0 L 82.0,123.0 L 73.0,118.0 L 65.0,110.0 L 60.0,100.0 L 59.0,96.0 L 59.0,80.0 L 63.0,69.0 L 72.0,59.0 L 82.0,53.0 L 90.0,50.0 M 92.0,58.0 L 83.0,61.0 L 74.0,68.0 L 68.0,78.0 L 67.0,81.0 L 67.0,95.0 L 73.0,107.0 L 80.0,113.0 L 90.0,118.0 L 94.0,119.0 L 104.0,119.0 L 112.0,117.0 L 120.0,113.0 L 126.0,108.0 L 131.0,100.0 L 133.0,94.0 L 133.0,81.0 L 128.0,71.0 L 123.0,65.0 L 114.0,60.0 L 108.0,58.0 L 92.0,58.0" fill="#080808"/>
	<path d="M 2.0,192.0 L 198.0,192.0 L 200.0,194.0 L 200.0,200.0 L 0.0,200.0 L 0.0,194.0 L 2.0,192.0" fill="#010101"/>
	<path d="M 20.0,68.0 L 30.0,69.0 L 45.0,72.0 L 49.0,75.0 L 48.0,80.0 L 47.0,81.0 L 40.0,81.0 L 20.0,77.0 L 17.0,74.0 L 18.0,69.0 L 20.0,68.0" fill="#0C0C0C"/>
	<path d="M 87.0,139.0 L 92.0,139.0 L 93.0,140.0 L 93.0,148.0 L 89.0,167.0 L 87.0,170.0 L 82.0,170.0 L 80.0,168.0 L 81.0,158.0 L 84.0,143.0 L 87.0,139.0" fill="#0C0C0C"/>
	<path d="M 165.0,39.0 L 169.0,40.0 L 170.0,41.0 L 170.0,46.0 L 161.0,53.0 L 149.0,61.0 L 144.0,61.0 L 142.0,58.0 L 143.0,54.0 L 154.0,46.0 L 165.0,39.0" fill="#0B0B0B"/>
	<path d="M 114.0,5.0 L 119.0,6.0 L 120.0,12.0 L 115.0,35.0 L 113.0,37.0 L 108.0,36.0 L 107.0,35.0 L 107.0,28.0 L 111.0,8.0 L 114.0,5.0" fill="#0A0A0A"/>
	<path d="M 152.0,95.0 L 165.0,96.0 L 180.0,99.0 L 183.0,102.0 L 182.0,106.0 L 180.0,108.0 L 171.0,107.0 L 153.0,103.0 L 151.0,101.0 L 151.0,96.0 L 152.0,95.0" fill="#090909"/>
	<path d="M 130.0,130.0 L 134.0,131.0 L 142.0,142.0 L 148.0,151.0 L 148.0,157.0 L 147.0,158.0 L 142.0,158.0 L 135.0,149.0 L 127.0,137.0 L 127.0,132.0 L 130.0,130.0" fill="#090909"/>
	<path d="M 54.0,17.0 L 59.0,18.0 L 73.0,39.0 L 72.0,45.0 L 68.0,46.0 L 63.0,41.0 L 52.0,24.0 L 52.0,19.0 L 54.0,17.0" fill="#070707"/>
	<path d="M 51.0,115.0 L 56.0,115.0 L 58.0,120.0 L 53.0,125.0 L 36.0,136.0 L 31.0,136.0 L 30.0,135.0 L 30.0,129.0 L 51.0,115.0" fill="#060606"/>
</svg>
