<?xml version="1.0" ?>
<svg baseProfile="full" height="600px" version="1.1" viewBox="-12.864 -12.864 153.728 153.728" width="600px" xmlns="http://www.w3.org/2000/svg" xmlns:ev="http://www.w3.org/2001/xml-events" xmlns:xlink="http://www.w3.org/1999/xlink">
	<defs/>
	<path d="M 0.0,0.0 L 128.0,0.0 L 128.0,128.0 L 0.0,128.0 L 0.0,0.0" fill="#FCFCFC"/>
	<path d="M 72.0,9.0 L 80.0,10.0 L 78.0,19.0 L 77.0,27.0 L 85.0,33.0 L 85.0,35.0 L 96.0,29.0 L 101.0,28.0 L 103.0,32.0 L 102.0,36.0 L 92.0,42.0 L 90.0,42.0 L 92.0,49.0 L 92.0,57.0 L 101.0,59.0 L 106.0,61.0 L 105.0,69.0 L 96.0,67.0 L 88.0,65.0 L 86.0,70.0 L 82.0,74.0 L 83.0,79.0 L 88.0,88.0 L 87.0,91.0 L 81.0,93.0 L 75.0,83.0 L 74.0,79.0 L 69.0,81.0 L 60.0,82.0 L 56.0,96.0 L 50.0,95.0 L 48.0,94.0 L 50.0,84.0 L 51.0,78.0 L 44.0,73.0 L 43.0,71.0 L 38.0,72.0 L 29.0,77.0 L 27.0,77.0 L 24.0,70.0 L 36.0,63.0 L 38.0,63.0 L 37.0,61.0 L 37.0,48.0 L 27.0,46.0 L 22.0,44.0 L 23.0,36.0 L 32.0,38.0 L 39.0,39.0 L 46.0,30.0 L 44.0,24.0 L 40.0,15.0 L 46.0,11.0 L 49.0,14.0 L 54.0,24.0 L 68.0,24.0 L 71.0,11.0 L 72.0,9.0" fill="#090909"/>
	<path d="M 59.0,32.0 L 68.0,32.0 L 76.0,36.0 L 82.0,43.0 L 83.0,45.0 L 83.0,59.0 L 78.0,67.0 L 73.0,71.0 L 70.0,72.0 L 57.0,72.0 L 49.0,66.0 L 45.0,59.0 L 45.0,45.0 L 49.0,39.0 L 55.0,34.0 L 59.0,32.0" fill="#FBFBFB"/>
	<path d="M 20.0,100.0 L 108.0,100.0 L 108.0,108.0 L 20.0,108.0 L 20.0,100.0" fill="#000000"/>
</svg>
