<?xml version="1.0" ?>
<svg baseProfile="full" height="600px" version="1.1" viewBox="-16.08 -16.08 192.16 192.16" width="600px" xmlns="http://www.w3.org/2000/svg" xmlns:ev="http://www.w3.org/2001/xml-events" xmlns:xlink="http://www.w3.org/1999/xlink">
	<defs/>
	<path d="M 0.0,0.0 L 160.0,0.0 L 160.0,160.0 L 0.0,160.0 L 0.0,0.0" fill="#FDFDFC"/>
	<path d="M 79.0,6.0 L 81.0,6.0 L 90.0,18.0 L 95.0,17.0 L 105.0,11.0 L 107.0,11.0 L 111.0,28.0 L 120.0,26.0 L 129.0,25.0 L 127.0,37.0 L 126.0,43.0 L 138.0,45.0 L 143.0,46.0 L 142.0,50.0 L 135.0,60.0 L 135.0,62.0 L 148.0,71.0 L 147.0,74.0 L 135.0,82.0 L 141.0,93.0 L 143.0,97.0 L 134.0,100.0 L 126.0,101.0 L 129.0,116.0 L 129.0,119.0 L 120.0,118.0 L 110.0,116.0 L 109.0,125.0 L 107.0,133.0 L 103.0,132.0 L 92.0,125.0 L 87.0,130.0 L 81.0,138.0 L 79.0,138.0 L 70.0,126.0 L 65.0,127.0 L 55.0,133.0 L 53.0,133.0 L 49.0,116.0 L 35.0,119.0 L 31.0,119.0 L 34.0,101.0 L 26.0,100.0 L 17.0,98.0 L 18.0,94.0 L 25.0,84.0 L 25.0,82.0 L 12.0,73.0 L 12.0,71.0 L 24.0,62.0 L 24.0,59.0 L 17.0,48.0 L 17.0,46.0 L 34.0,42.0 L 31.0,28.0 L 31.0,25.0 L 41.0,26.0 L 50.0,28.0 L 52.0,14.0 L 53.0,11.0 L 57.0,12.0 L 68.0,19.0 L 73.0,14.0 L 79.0,6.0" fill="#FDEBA0"/>
	<path d="M 73.0,41.0 L 86.0,41.0 L 95.0,44.0 L 101.0,48.0 L 109.0,57.0 L 112.0,65.0 L 112.0,78.0 L 109.0,87.0 L 100.0,97.0 L 90.0,102.0 L 87.0,103.0 L 74.0,103.0 L 65.0,100.0 L 59.0,96.0 L 52.0,88.0 L 48.0,79.0 L 48.0,66.0 L 51.0,57.0 L 56.0,50.0 L 64.0,44.0 L 73.0,41.0" fill="#F5CF86"/>
	<path d="M 79.0,6.0 L 81.0,6.0 L 90.0,18.0 L 95.0,17.0 L 105.0,11.0 L 107.0,11.0 L 111.0,28.0 L 120.0,26.0 L 129.0,25.0 L 127.0,37.0 L 126.0,43.0 L 138.0,45.0 L 143.0,46.0 L 142.0,50.0 L 135.0,60.0 L 135.0,62.0 L 148.0,71.0 L 147.0,74.0 L 135.0,82.0 L 141.0,93.0 L 143.0,97.0 L 134.0,100.0 L 126.0,101.0 L 129.0,116.0 L 129.0,119.0 L 120.0,118.0 L 110.0,116.0 L 109.0,125.0 L 107.0,133.0 L 103.0,132.0 L 92.0,125.0 L 87.0,130.0 L 81.0,138.0 L 79.0,138.0 L 70.0,126.0 L 65.0,127.0 L 55.0,133.0 L 53.0,133.0 L 49.0,116.0 L 35.0,119.0 L 31.0,119.0 L 34.0,101.0 L 26.0,100.0 L 17.0,98.0 L 18.0,94.0 L 25.0,84.0 L 25.0,82.0 L 12.0,73.0 L 12.0,71.0 L 24.0,62.0 L 24.0,59.0 L 17.0,48.0 L 17.0,46.0 L 34.0,42.0 L 31.0,28.0 L 31.0,25.0 L 41.0,26.0 L 50.0,28.0 L 52.0,14.0 L 53.0,11.0 L 57.0,12.0 L 68.0,19.0 L 73.0,14.0 L 79.0,6.0 M 79.0,13.0 L 71.0,23.0 L 71.0,25.0 L 60.0,19.0 L 56.0,17.0 L 53.0,30.0 L 53.0,33.0 L 40.0,30.0 L 37.0,30.0 L 38.0,39.0 L 39.0,45.0 L 23.0,49.0 L 29.0,60.0 L 29.0,64.0 L 19.0,71.0 L 20.0,74.0 L 30.0,81.0 L 29.0,85.0 L 23.0,95.0 L 39.0,98.0 L 37.0,109.0 L 37.0,114.0 L 52.0,112.0 L 56.0,126.0 L 61.0,125.0 L 71.0,119.0 L 73.0,123.0 L 79.0,131.0 L 82.0,130.0 L 89.0,120.0 L 93.0,121.0 L 103.0,127.0 L 104.0,127.0 L 107.0,114.0 L 107.0,111.0 L 120.0,114.0 L 123.0,114.0 L 122.0,99.0 L 137.0,95.0 L 131.0,84.0 L 131.0,80.0 L 141.0,73.0 L 140.0,70.0 L 130.0,63.0 L 131.0,59.0 L 137.0,49.0 L 122.0,46.0 L 123.0,36.0 L 124.0,30.0 L 115.0,31.0 L 109.0,32.0 L 106.0,25.0 L 104.0,18.0 L 99.0,19.0 L 89.0,25.0 L 87.0,21.0 L 81.0,13.0 L 79.0,13.0" fill="#BEA151"/>
	<path d="M 0.0,156.0 L 160.0,156.0 L 160.0,160.0 L 0.0,160.0 L 0.0,156.0" fill="#36404D"/>
</svg>
