<?xml version="1.0" ?>
<svg baseProfile="full" height="600px" version="1.1" viewBox="-12.864 -12.864 153.728 153.728" width="600px" xmlns="http://www.w3.org/2000/svg" xmlns:ev="http://www.w3.org/2001/xml-events" xmlns:xlink="http://www.w3.org/1999/xlink">
	<defs/>
	<path d="M 0.0,0.0 L 128.0,0.0 L 128.0,128.0 L 0.0,128.0 L 0.0,0.0" fill="#FDFDFD"/>
	<path d="M 57.0,35.0 L 65.0,35.0 L 66.0,51.0 L 75.0,54.0 L 79.0,55.0 L 87.0,44.0 L 91.0,45.0 L 94.0,48.0 L 92.0,52.0 L 85.0,61.0 L 90.0,72.0 L 90.0,74.0 L 105.0,74.0 L 106.0,82.0 L 90.0,83.0 L 90.0,90.0 L 88.0,95.0 L 89.0,99.0 L 108.0,100.0 L 108.0,108.0 L 20.0,108.0 L 20.0,100.0 L 43.0,100.0 L 39.0,92.0 L 38.0,89.0 L 22.0,89.0 L 22.0,80.0 L 38.0,79.0 L 38.0,72.0 L 40.0,67.0 L 40.0,64.0 L 32.0,57.0 L 30.0,53.0 L 35.0,48.0 L 43.0,55.0 L 47.0,58.0 L 55.0,53.0 L 58.0,53.0 L 57.0,35.0" fill="#060606"/>
	<path d="M 61.0,60.0 L 68.0,60.0 L 76.0,64.0 L 82.0,73.0 L 83.0,77.0 L 83.0,86.0 L 78.0,96.0 L 73.0,100.0 L 55.0,100.0 L 49.0,95.0 L 45.0,86.0 L 45.0,76.0 L 50.0,66.0 L 57.0,61.0 L 61.0,60.0" fill="#FAFAFA"/>
</svg>
