<?xml version="1.0" ?>
<svg baseProfile="full" height="600px" version="1.1" viewBox="-16.08 -16.08 192.16 192.16" width="600px" xmlns="http://www.w3.org/2000/svg" xmlns:ev="http://www.w3.org/2001/xml-events" xmlns:xlink="http://www.w3.org/1999/xlink">
	<defs/>
	<path d="M 0.0,0.0 L 160.0,0.0 L 160.0,160.0 L 0.0,160.0 L 0.0,0.0" fill="#FDFDFC"/>
	<path d="M 79.0,6.0 L 81.0,6.0 L 90.0,18.0 L 95.0,17.0 L 105.0,11.0 L 107.0,11.0 L 111.0,24.0 L 111.0,28.0 L 123.0,25.0 L 129.0,25.0 L 128.0,34.0 L 126.0,42.0 L 144.0,45.0 L 144.0,48.0 L 136.0,59.0 L 137.0,62.0 L 149.0,70.0 L 149.0,72.0 L 136.0,81.0 L 142.0,92.0 L 144.0,96.0 L 135.0,99.0 L 126.0,100.0 L 129.0,112.0 L 129.0,117.0 L 122.0,117.0 L 110.0,114.0 L 109.0,125.0 L 107.0,132.0 L 98.0,127.0 L 91.0,123.0 L 81.0,136.0 L 79.0,136.0 L 70.0,124.0 L 64.0,126.0 L 55.0,131.0 L 53.0,131.0 L 49.0,118.0 L 49.0,114.0 L 37.0,117.0 L 31.0,117.0 L 32.0,108.0 L 33.0,100.0 L 15.0,97.0 L 17.0,93.0 L 24.0,83.0 L 24.0,81.0 L 11.0,72.0 L 11.0,70.0 L 24.0,61.0 L 19.0,52.0 L 16.0,46.0 L 30.0,42.0 L 34.0,42.0 L 31.0,31.0 L 31.0,25.0 L 41.0,26.0 L 50.0,28.0 L 51.0,17.0 L 53.0,11.0 L 58.0,13.0 L 69.0,19.0 L 79.0,6.0" fill="#FDEBA0"/>
	<path d="M 76.0,40.0 L 85.0,40.0 L 94.0,43.0 L 101.0,47.0 L 110.0,57.0 L 113.0,66.0 L 112.0,80.0 L 107.0,89.0 L 100.0,96.0 L 92.0,100.0 L 86.0,102.0 L 75.0,102.0 L 66.0,99.0 L 59.0,95.0 L 54.0,90.0 L 49.0,82.0 L 47.0,76.0 L 47.0,67.0 L 50.0,58.0 L 54.0,52.0 L 62.0,45.0 L 71.0,41.0 L 76.0,40.0" fill="#F5CF85"/>
	<path d="M 79.0,6.0 L 81.0,6.0 L 90.0,18.0 L 95.0,17.0 L 105.0,11.0 L 107.0,11.0 L 111.0,24.0 L 111.0,28.0 L 123.0,25.0 L 129.0,25.0 L 128.0,34.0 L 126.0,42.0 L 144.0,45.0 L 144.0,48.0 L 136.0,59.0 L 137.0,62.0 L 149.0,70.0 L 149.0,72.0 L 136.0,81.0 L 142.0,92.0 L 144.0,96.0 L 135.0,99.0 L 126.0,100.0 L 129.0,112.0 L 129.0,117.0 L 122.0,117.0 L 110.0,114.0 L 109.0,125.0 L 107.0,132.0 L 98.0,127.0 L 91.0,123.0 L 81.0,136.0 L 79.0,136.0 L 70.0,124.0 L 64.0,126.0 L 55.0,131.0 L 53.0,131.0 L 49.0,118.0 L 49.0,114.0 L 37.0,117.0 L 31.0,117.0 L 32.0,108.0 L 33.0,100.0 L 15.0,97.0 L 17.0,93.0 L 24.0,83.0 L 24.0,81.0 L 11.0,72.0 L 11.0,70.0 L 24.0,61.0 L 19.0,52.0 L 16.0,46.0 L 30.0,42.0 L 34.0,42.0 L 31.0,31.0 L 31.0,25.0 L 41.0,26.0 L 50.0,28.0 L 51.0,17.0 L 53.0,11.0 L 58.0,13.0 L 69.0,19.0 L 79.0,6.0 M 79.0,13.0 L 70.0,24.0 L 65.0,22.0 L 56.0,17.0 L 53.0,28.0 L 53.0,32.0 L 36.0,30.0 L 37.0,39.0 L 39.0,45.0 L 28.0,47.0 L 23.0,48.0 L 24.0,52.0 L 29.0,60.0 L 27.0,64.0 L 18.0,70.0 L 19.0,73.0 L 29.0,80.0 L 31.0,80.0 L 22.0,93.0 L 22.0,94.0 L 39.0,97.0 L 36.0,109.0 L 36.0,112.0 L 46.0,111.0 L 52.0,110.0 L 55.0,123.0 L 57.0,125.0 L 68.0,119.0 L 72.0,120.0 L 79.0,129.0 L 83.0,127.0 L 90.0,118.0 L 98.0,122.0 L 104.0,125.0 L 107.0,114.0 L 107.0,110.0 L 119.0,112.0 L 124.0,112.0 L 123.0,105.0 L 121.0,97.0 L 129.0,96.0 L 137.0,94.0 L 136.0,90.0 L 131.0,82.0 L 133.0,78.0 L 142.0,72.0 L 142.0,70.0 L 130.0,62.0 L 132.0,58.0 L 138.0,49.0 L 138.0,48.0 L 126.0,46.0 L 121.0,46.0 L 124.0,33.0 L 124.0,30.0 L 114.0,31.0 L 108.0,32.0 L 106.0,22.0 L 104.0,17.0 L 92.0,23.0 L 88.0,22.0 L 81.0,13.0 L 79.0,13.0" fill="#BEA151"/>
	<path d="M 0.0,156.0 L 160.0,156.0 L 160.0,160.0 L 0.0,160.0 L 0.0,156.0" fill="#36404D"/>
</svg>
