<?xml version="1.0" ?>
<svg baseProfile="full" height="600px" version="1.1" viewBox="-16.08 -16.08 192.16 192.16" width="600px" xmlns="http://www.w3.org/2000/svg" xmlns:ev="http://www.w3.org/2001/xml-events" xmlns:xlink="http://www.w3.org/1999/xlink">
	<defs/>
	<path d="M 0.0,0.0 L 160.0,0.0 L 160.0,160.0 L 0.0,160.0 L 0.0,0.0" fill="#FDFDFC"/>
	<path d="M 79.0,17.0 L 81.0,17.0 L 90.0,29.0 L 94.0,28.0 L 104.0,22.0 L 106.0,22.0 L 110.0,37.0 L 110.0,39.0 L 124.0,36.0 L 128.0,36.0 L 127.0,43.0 L 125.0,55.0 L 135.0,56.0 L 143.0,57.0 L 141.0,62.0 L 133.0,74.0 L 137.0,76.0 L 147.0,83.0 L 147.0,85.0 L 135.0,94.0 L 136.0,98.0 L 142.0,108.0 L 142.0,110.0 L 125.0,114.0 L 128.0,129.0 L 128.0,132.0 L 115.0,130.0 L 109.0,129.0 L 108.0,140.0 L 106.0,146.0 L 101.0,144.0 L 90.0,137.0 L 88.0,141.0 L 81.0,151.0 L 79.0,151.0 L 70.0,139.0 L 66.0,140.0 L 56.0,146.0 L 54.0,146.0 L 50.0,131.0 L 50.0,129.0 L 36.0,132.0 L 32.0,132.0 L 33.0,123.0 L 35.0,113.0 L 28.0,113.0 L 18.0,111.0 L 18.0,108.0 L 27.0,94.0 L 23.0,92.0 L 13.0,85.0 L 13.0,83.0 L 25.0,74.0 L 24.0,70.0 L 18.0,58.0 L 33.0,54.0 L 35.0,54.0 L 32.0,39.0 L 32.0,36.0 L 46.0,38.0 L 50.0,39.0 L 53.0,22.0 L 56.0,22.0 L 70.0,31.0 L 72.0,27.0 L 79.0,17.0" fill="#FDEBA0"/>
	<path d="M 76.0,52.0 L 85.0,52.0 L 95.0,56.0 L 101.0,60.0 L 108.0,68.0 L 112.0,79.0 L 112.0,88.0 L 109.0,98.0 L 103.0,107.0 L 96.0,112.0 L 89.0,115.0 L 84.0,116.0 L 75.0,116.0 L 64.0,112.0 L 56.0,105.0 L 51.0,98.0 L 48.0,89.0 L 48.0,80.0 L 51.0,70.0 L 57.0,62.0 L 64.0,56.0 L 71.0,53.0 L 76.0,52.0" fill="#F5CE85"/>
	<path d="M 79.0,17.0 L 81.0,17.0 L 90.0,29.0 L 94.0,28.0 L 104.0,22.0 L 106.0,22.0 L 110.0,37.0 L 110.0,39.0 L 124.0,36.0 L 128.0,36.0 L 127.0,43.0 L 125.0,55.0 L 135.0,56.0 L 143.0,57.0 L 141.0,62.0 L 133.0,74.0 L 137.0,76.0 L 147.0,83.0 L 147.0,85.0 L 135.0,94.0 L 136.0,98.0 L 142.0,108.0 L 142.0,110.0 L 125.0,114.0 L 128.0,129.0 L 128.0,132.0 L 115.0,130.0 L 109.0,129.0 L 108.0,140.0 L 106.0,146.0 L 101.0,144.0 L 90.0,137.0 L 88.0,141.0 L 81.0,151.0 L 79.0,151.0 L 70.0,139.0 L 66.0,140.0 L 56.0,146.0 L 54.0,146.0 L 50.0,131.0 L 50.0,129.0 L 36.0,132.0 L 32.0,132.0 L 33.0,123.0 L 35.0,113.0 L 28.0,113.0 L 18.0,111.0 L 18.0,108.0 L 27.0,94.0 L 23.0,92.0 L 13.0,85.0 L 13.0,83.0 L 25.0,74.0 L 24.0,70.0 L 18.0,58.0 L 33.0,54.0 L 35.0,54.0 L 32.0,39.0 L 32.0,36.0 L 46.0,38.0 L 50.0,39.0 L 53.0,22.0 L 56.0,22.0 L 70.0,31.0 L 72.0,27.0 L 79.0,17.0 M 79.0,24.0 L 71.0,35.0 L 67.0,34.0 L 58.0,28.0 L 56.0,28.0 L 54.0,39.0 L 54.0,44.0 L 37.0,41.0 L 40.0,57.0 L 25.0,60.0 L 25.0,63.0 L 31.0,73.0 L 31.0,75.0 L 20.0,83.0 L 21.0,86.0 L 31.0,93.0 L 30.0,97.0 L 24.0,106.0 L 24.0,108.0 L 34.0,110.0 L 40.0,110.0 L 37.0,124.0 L 37.0,127.0 L 50.0,125.0 L 53.0,124.0 L 56.0,138.0 L 59.0,139.0 L 69.0,133.0 L 71.0,133.0 L 79.0,144.0 L 82.0,143.0 L 89.0,133.0 L 93.0,134.0 L 102.0,140.0 L 104.0,140.0 L 106.0,129.0 L 106.0,124.0 L 123.0,127.0 L 120.0,111.0 L 134.0,108.0 L 135.0,105.0 L 129.0,95.0 L 129.0,93.0 L 140.0,85.0 L 139.0,82.0 L 129.0,75.0 L 130.0,71.0 L 136.0,62.0 L 136.0,60.0 L 120.0,58.0 L 123.0,44.0 L 123.0,41.0 L 115.0,42.0 L 107.0,44.0 L 104.0,30.0 L 101.0,29.0 L 91.0,35.0 L 89.0,35.0 L 81.0,24.0 L 79.0,24.0" fill="#BEA151"/>
	<path d="M 0.0,156.0 L 160.0,156.0 L 160.0,160.0 L 0.0,160.0 L 0.0,156.0" fill="#36404D"/>
</svg>
