<?xml version="1.0" ?>
<svg baseProfile="full" height="600px" version="1.1" viewBox="-16.08 -16.08 192.16 192.16" width="600px" xmlns="http://www.w3.org/2000/svg" xmlns:ev="http://www.w3.org/2001/xml-events" xmlns:xlink="http://www.w3.org/1999/xlink">
	<defs/>
	<path d="M 0.0,0.0 L 160.0,0.0 L 160.0,160.0 L 0.0,160.0 L 0.0,0.0" fill="#FDFDFC"/>
	<path d="M 79.0,6.0 L 82.0,7.0 L 91.0,18.0 L 105.0,11.0 L 108.0,12.0 L 111.0,22.0 L 111.0,27.0 L 126.0,24.0 L 130.0,24.0 L 129.0,34.0 L 127.0,42.0 L 138.0,43.0 L 146.0,44.0 L 144.0,48.0 L 137.0,58.0 L 137.0,60.0 L 150.0,69.0 L 145.0,74.0 L 138.0,79.0 L 136.0,79.0 L 145.0,93.0 L 145.0,95.0 L 132.0,98.0 L 127.0,98.0 L 130.0,111.0 L 130.0,115.0 L 118.0,114.0 L 111.0,112.0 L 110.0,120.0 L 107.0,129.0 L 97.0,124.0 L 91.0,121.0 L 81.0,133.0 L 77.0,131.0 L 70.0,122.0 L 65.0,123.0 L 56.0,128.0 L 52.0,127.0 L 48.0,113.0 L 35.0,115.0 L 30.0,115.0 L 31.0,107.0 L 33.0,98.0 L 24.0,97.0 L 14.0,95.0 L 18.0,88.0 L 23.0,82.0 L 24.0,79.0 L 19.0,77.0 L 10.0,71.0 L 11.0,68.0 L 23.0,60.0 L 17.0,49.0 L 15.0,45.0 L 31.0,41.0 L 33.0,41.0 L 30.0,29.0 L 30.0,24.0 L 43.0,26.0 L 49.0,27.0 L 52.0,10.0 L 57.0,12.0 L 67.0,18.0 L 71.0,16.0 L 79.0,6.0" fill="#FDEBA0"/>
	<path d="M 72.0,40.0 L 89.0,40.0 L 98.0,44.0 L 107.0,51.0 L 112.0,61.0 L 113.0,64.0 L 113.0,77.0 L 108.0,87.0 L 99.0,95.0 L 89.0,99.0 L 84.0,100.0 L 73.0,100.0 L 63.0,96.0 L 55.0,90.0 L 49.0,82.0 L 47.0,76.0 L 47.0,63.0 L 51.0,54.0 L 57.0,47.0 L 66.0,42.0 L 72.0,40.0" fill="#F5CE85"/>
	<path d="M 79.0,6.0 L 82.0,7.0 L 91.0,18.0 L 105.0,11.0 L 108.0,12.0 L 111.0,22.0 L 111.0,27.0 L 126.0,24.0 L 130.0,24.0 L 129.0,34.0 L 127.0,42.0 L 138.0,43.0 L 146.0,44.0 L 144.0,48.0 L 137.0,58.0 L 137.0,60.0 L 150.0,69.0 L 145.0,74.0 L 138.0,79.0 L 136.0,79.0 L 145.0,93.0 L 145.0,95.0 L 132.0,98.0 L 127.0,98.0 L 130.0,111.0 L 130.0,115.0 L 118.0,114.0 L 111.0,112.0 L 110.0,120.0 L 107.0,129.0 L 97.0,124.0 L 91.0,121.0 L 81.0,133.0 L 77.0,131.0 L 70.0,122.0 L 65.0,123.0 L 56.0,128.0 L 52.0,127.0 L 48.0,113.0 L 35.0,115.0 L 30.0,115.0 L 31.0,107.0 L 33.0,98.0 L 24.0,97.0 L 14.0,95.0 L 18.0,88.0 L 23.0,82.0 L 24.0,79.0 L 19.0,77.0 L 10.0,71.0 L 11.0,68.0 L 23.0,60.0 L 17.0,49.0 L 15.0,45.0 L 31.0,41.0 L 33.0,41.0 L 30.0,29.0 L 30.0,24.0 L 43.0,26.0 L 49.0,27.0 L 52.0,10.0 L 57.0,12.0 L 67.0,18.0 L 71.0,16.0 L 79.0,6.0 M 79.0,13.0 L 71.0,22.0 L 71.0,24.0 L 64.0,21.0 L 58.0,17.0 L 55.0,17.0 L 52.0,31.0 L 35.0,29.0 L 38.0,44.0 L 27.0,46.0 L 22.0,47.0 L 24.0,52.0 L 29.0,61.0 L 17.0,69.0 L 22.0,74.0 L 29.0,79.0 L 25.0,86.0 L 21.0,92.0 L 35.0,95.0 L 38.0,95.0 L 35.0,110.0 L 46.0,109.0 L 52.0,108.0 L 54.0,118.0 L 55.0,122.0 L 60.0,121.0 L 68.0,117.0 L 72.0,118.0 L 79.0,127.0 L 81.0,127.0 L 90.0,116.0 L 95.0,118.0 L 103.0,123.0 L 105.0,123.0 L 107.0,114.0 L 107.0,108.0 L 118.0,110.0 L 125.0,110.0 L 122.0,95.0 L 132.0,94.0 L 138.0,92.0 L 136.0,87.0 L 132.0,81.0 L 132.0,78.0 L 143.0,70.0 L 139.0,66.0 L 131.0,61.0 L 133.0,56.0 L 139.0,47.0 L 127.0,45.0 L 122.0,45.0 L 125.0,32.0 L 125.0,29.0 L 109.0,31.0 L 105.0,17.0 L 101.0,18.0 L 89.0,24.0 L 87.0,20.0 L 81.0,13.0 L 79.0,13.0" fill="#BEA151"/>
	<path d="M 0.0,156.0 L 160.0,156.0 L 160.0,160.0 L 0.0,160.0 L 0.0,156.0" fill="#36404D"/>
</svg>
