<?xml version="1.0" ?>
<svg baseProfile="full" height="600px" version="1.1" viewBox="-20.1 -20.1 240.2 240.2" width="600px" xmlns="http://www.w3.org/2000/svg" xmlns:ev="http://www.w3.org/2001/xml-events" xmlns:xlink="http://www.w3.org/1999/xlink">
	<defs/>
	<path d="M 0.0,0.0 L 200.0,0.0 L 200.0,200.0 L 0.0,200.0 L 0.0,0.0" fill="#FDFDFD"/>
	<path d="M 92.0,73.0 L 107.0,73.0 L 117.0,77.0 L 126.0,85.0 L 131.0,95.0 L 132.0,98.0 L 132.0,111.0 L 128.0,121.0 L 119.0,131.0 L 109.0,136.0 L 91.0,136.0 L 81.0,131.0 L 74.0,124.0 L 69.0,115.0 L 68.0,110.0 L 68.0,98.0 L 72.0,88.0 L 80.0,79.0 L 92.0,73.0" fill="#FBFBFB"/>
	<path d="M 91.0,65.0 L 109.0,65.0 L 119.0,69.0 L 127.0,75.0 L 135.0,84.0 L 139.0,93.0 L 140.0,97.0 L 140.0,110.0 L 136.0,123.0 L 130.0,132.0 L 123.0,138.0 L 113.0,143.0 L 105.0,145.0 L 94.0,145.0 L 84.0,142.0 L 73.0,135.0 L 66.0,127.0 L 61.0,115.0 L 60.0,111.0 L 60.0,98.0 L 63.0,88.0 L 69.0,79.0 L 76.0,72.0 L 87.0,66.0 L 91.0,65.0 M 92.0,73.0 L 80.0,79.0 L 72.0,88.0 L 68.0,98.0 L 68.0,110.0 L 71.0,119.0 L 77.0,127.0 L 84.0,133.0 L 91.0,136.0 L 109.0,136.0 L 119.0,131.0 L 126.0,124.0 L 131.0,114.0 L 132.0,111.0 L 132.0,98.0 L 128.0,88.0 L 120.0,79.0 L 110.0,74.0 L 107.0,73.0 L 92.0,73.0" fill="#080808"/>
	<path d="M 2.0,192.0 L 198.0,192.0 L 200.0,194.0 L 200.0,200.0 L 0.0,200.0 L 0.0,194.0 L 2.0,192.0" fill="#010101"/>
	<path d="M 20.0,81.0 L 29.0,82.0 L 48.0,87.0 L 50.0,89.0 L 49.0,94.0 L 48.0,95.0 L 38.0,94.0 L 20.0,89.0 L 18.0,87.0 L 19.0,82.0 L 20.0,81.0" fill="#090909"/>
	<path d="M 152.0,114.0 L 160.0,115.0 L 180.0,120.0 L 182.0,123.0 L 181.0,127.0 L 180.0,128.0 L 173.0,128.0 L 153.0,123.0 L 150.0,120.0 L 151.0,115.0 L 152.0,114.0" fill="#090909"/>
	<path d="M 50.0,129.0 L 55.0,130.0 L 56.0,131.0 L 56.0,136.0 L 43.0,144.0 L 33.0,150.0 L 29.0,149.0 L 27.0,147.0 L 28.0,143.0 L 38.0,136.0 L 50.0,129.0" fill="#0A0A0A"/>
	<path d="M 84.0,155.0 L 89.0,155.0 L 90.0,156.0 L 90.0,163.0 L 85.0,183.0 L 83.0,186.0 L 78.0,186.0 L 76.0,184.0 L 77.0,176.0 L 82.0,157.0 L 84.0,155.0" fill="#080808"/>
	<path d="M 117.0,23.0 L 122.0,23.0 L 124.0,25.0 L 123.0,32.0 L 118.0,52.0 L 116.0,54.0 L 111.0,54.0 L 110.0,53.0 L 110.0,45.0 L 115.0,26.0 L 117.0,23.0" fill="#090909"/>
	<path d="M 57.0,32.0 L 62.0,33.0 L 68.0,42.0 L 75.0,54.0 L 75.0,59.0 L 73.0,61.0 L 68.0,60.0 L 55.0,38.0 L 56.0,33.0 L 57.0,32.0" fill="#070707"/>
	<path d="M 166.0,60.0 L 171.0,60.0 L 173.0,62.0 L 172.0,67.0 L 150.0,80.0 L 145.0,79.0 L 144.0,74.0 L 149.0,70.0 L 166.0,60.0" fill="#070707"/>
	<path d="M 126.0,149.0 L 131.0,149.0 L 138.0,159.0 L 145.0,171.0 L 144.0,176.0 L 143.0,177.0 L 138.0,177.0 L 125.0,156.0 L 125.0,150.0 L 126.0,149.0" fill="#060606"/>
</svg>
