<?xml version="1.0" ?>
<svg baseProfile="full" height="600px" version="1.1" viewBox="-20.1 -20.1 240.2 240.2" width="600px" xmlns="http://www.w3.org/2000/svg" xmlns:ev="http://www.w3.org/2001/xml-events" xmlns:xlink="http://www.w3.org/1999/xlink">
	<defs/>
	<path d="M 0.0,0.0 L 200.0,0.0 L 200.0,200.0 L 0.0,200.0 L 0.0,0.0" fill="#FDFDFD"/>
	<path d="M 91.0,64.0 L 108.0,64.0 L 120.0,69.0 L 128.0,77.0 L 133.0,88.0 L 133.0,100.0 L 129.0,110.0 L 121.0,119.0 L 111.0,124.0 L 108.0,125.0 L 93.0,125.0 L 84.0,122.0 L 76.0,116.0 L 70.0,108.0 L 67.0,98.0 L 67.0,88.0 L 71.0,79.0 L 78.0,71.0 L 86.0,66.0 L 91.0,64.0" fill="#FBFBFB"/>
	<path d="M 90.0,56.0 L 109.0,56.0 L 122.0,61.0 L 131.0,68.0 L 138.0,78.0 L 141.0,86.0 L 141.0,102.0 L 136.0,114.0 L 130.0,122.0 L 120.0,129.0 L 108.0,133.0 L 91.0,133.0 L 80.0,129.0 L 69.0,121.0 L 62.0,111.0 L 59.0,102.0 L 59.0,86.0 L 63.0,76.0 L 70.0,67.0 L 78.0,61.0 L 90.0,56.0 M 91.0,64.0 L 79.0,70.0 L 72.0,77.0 L 68.0,85.0 L 67.0,88.0 L 67.0,98.0 L 70.0,108.0 L 76.0,116.0 L 84.0,122.0 L 93.0,125.0 L 108.0,125.0 L 118.0,121.0 L 127.0,113.0 L 132.0,103.0 L 133.0,100.0 L 133.0,88.0 L 127.0,76.0 L 120.0,69.0 L 108.0,64.0 L 91.0,64.0" fill="#080808"/>
	<path d="M 2.0,192.0 L 198.0,192.0 L 200.0,194.0 L 200.0,200.0 L 0.0,200.0 L 0.0,194.0 L 2.0,192.0" fill="#010101"/>
	<path d="M 16.0,84.0 L 44.0,86.0 L 47.0,89.0 L 46.0,93.0 L 45.0,94.0 L 27.0,94.0 L 16.0,93.0 L 14.0,91.0 L 14.0,86.0 L 16.0,84.0" fill="#0B0B0B"/>
	<path d="M 93.0,145.0 L 98.0,145.0 L 100.0,147.0 L 99.0,167.0 L 98.0,174.0 L 96.0,176.0 L 91.0,175.0 L 89.0,173.0 L 91.0,147.0 L 93.0,145.0" fill="#0A0A0A"/>
	<path d="M 156.0,94.0 L 184.0,96.0 L 186.0,98.0 L 186.0,103.0 L 185.0,104.0 L 168.0,104.0 L 156.0,103.0 L 153.0,100.0 L 154.0,96.0 L 156.0,94.0" fill="#090909"/>
	<path d="M 104.0,13.0 L 110.0,14.0 L 110.0,30.0 L 109.0,42.0 L 107.0,44.0 L 102.0,44.0 L 100.0,42.0 L 101.0,19.0 L 103.0,14.0 L 104.0,13.0" fill="#090909"/>
	<path d="M 54.0,126.0 L 59.0,126.0 L 61.0,131.0 L 50.0,141.0 L 40.0,149.0 L 34.0,148.0 L 33.0,143.0 L 47.0,131.0 L 54.0,126.0" fill="#090909"/>
	<path d="M 160.0,40.0 L 165.0,40.0 L 167.0,45.0 L 162.0,50.0 L 149.0,61.0 L 146.0,63.0 L 140.0,62.0 L 139.0,58.0 L 144.0,53.0 L 160.0,40.0" fill="#080808"/>
	<path d="M 135.0,132.0 L 140.0,132.0 L 150.0,142.0 L 157.0,150.0 L 158.0,155.0 L 156.0,157.0 L 151.0,157.0 L 135.0,140.0 L 133.0,137.0 L 134.0,133.0 L 135.0,132.0" fill="#070707"/>
	<path d="M 44.0,32.0 L 49.0,32.0 L 57.0,40.0 L 64.0,48.0 L 67.0,52.0 L 66.0,56.0 L 65.0,57.0 L 60.0,57.0 L 52.0,49.0 L 45.0,41.0 L 42.0,37.0 L 43.0,33.0 L 44.0,32.0" fill="#060606"/>
</svg>
