<?xml version="1.0" ?>
<svg baseProfile="full" height="600px" version="1.1" viewBox="-20.1 -20.1 240.2 240.2" width="600px" xmlns="http://www.w3.org/2000/svg" xmlns:ev="http://www.w3.org/2001/xml-events" xmlns:xlink="http://www.w3.org/1999/xlink">
	<defs/>
	<path d="M 0.0,0.0 L 200.0,0.0 L 200.0,200.0 L 0.0,200.0 L 0.0,0.0" fill="#FDFDFD"/>
	<path d="M 95.0,61.0 L 106.0,61.0 L 118.0,65.0 L 126.0,71.0 L 132.0,78.0 L 135.0,85.0 L 135.0,94.0 L 132.0,103.0 L 124.0,112.0 L 112.0,118.0 L 109.0,119.0 L 92.0,119.0 L 83.0,116.0 L 75.0,111.0 L 68.0,103.0 L 65.0,94.0 L 65.0,85.0 L 70.0,75.0 L 77.0,68.0 L 86.0,63.0 L 95.0,61.0" fill="#FBFBFB"/>
	<path d="M 94.0,54.0 L 109.0,54.0 L 121.0,58.0 L 131.0,64.0 L 139.0,73.0 L 144.0,85.0 L 144.0,94.0 L 141.0,104.0 L 134.0,114.0 L 123.0,122.0 L 112.0,126.0 L 105.0,127.0 L 92.0,127.0 L 79.0,123.0 L 68.0,116.0 L 61.0,108.0 L 56.0,95.0 L 56.0,85.0 L 61.0,73.0 L 70.0,63.0 L 83.0,56.0 L 94.0,54.0 M 95.0,61.0 L 84.0,64.0 L 75.0,70.0 L 68.0,78.0 L 65.0,85.0 L 65.0,94.0 L 68.0,103.0 L 77.0,113.0 L 87.0,118.0 L 92.0,119.0 L 109.0,119.0 L 121.0,114.0 L 130.0,106.0 L 134.0,98.0 L 135.0,94.0 L 135.0,85.0 L 130.0,75.0 L 123.0,68.0 L 113.0,63.0 L 106.0,61.0 L 95.0,61.0" fill="#090909"/>
	<path d="M 2.0,192.0 L 198.0,192.0 L 200.0,194.0 L 200.0,200.0 L 0.0,200.0 L 0.0,194.0 L 2.0,192.0" fill="#010101"/>
	<path d="M 158.0,95.0 L 169.0,96.0 L 188.0,99.0 L 190.0,101.0 L 189.0,106.0 L 188.0,107.0 L 176.0,106.0 L 158.0,103.0 L 156.0,101.0 L 157.0,96.0 L 158.0,95.0" fill="#0C0C0C"/>
	<path d="M 87.0,137.0 L 92.0,137.0 L 94.0,139.0 L 93.0,149.0 L 89.0,165.0 L 83.0,166.0 L 80.0,163.0 L 84.0,142.0 L 87.0,137.0" fill="#090909"/>
	<path d="M 168.0,45.0 L 174.0,45.0 L 176.0,47.0 L 175.0,51.0 L 159.0,61.0 L 152.0,65.0 L 146.0,64.0 L 145.0,60.0 L 148.0,57.0 L 168.0,45.0" fill="#0A0A0A"/>
	<path d="M 112.0,15.0 L 118.0,15.0 L 119.0,16.0 L 119.0,23.0 L 115.0,42.0 L 113.0,44.0 L 108.0,44.0 L 106.0,42.0 L 107.0,31.0 L 110.0,17.0 L 112.0,15.0" fill="#090909"/>
	<path d="M 47.0,116.0 L 53.0,116.0 L 55.0,118.0 L 54.0,122.0 L 45.0,128.0 L 31.0,136.0 L 25.0,135.0 L 24.0,131.0 L 32.0,125.0 L 47.0,116.0" fill="#090909"/>
	<path d="M 12.0,74.0 L 24.0,75.0 L 43.0,78.0 L 44.0,79.0 L 44.0,84.0 L 43.0,85.0 L 32.0,85.0 L 12.0,82.0 L 10.0,80.0 L 10.0,75.0 L 12.0,74.0" fill="#080808"/>
	<path d="M 133.0,128.0 L 139.0,129.0 L 148.0,140.0 L 155.0,149.0 L 153.0,153.0 L 149.0,154.0 L 143.0,149.0 L 134.0,138.0 L 131.0,134.0 L 132.0,129.0 L 133.0,128.0" fill="#080808"/>
	<path d="M 48.0,27.0 L 53.0,28.0 L 64.0,40.0 L 69.0,46.0 L 69.0,51.0 L 64.0,53.0 L 57.0,47.0 L 48.0,36.0 L 45.0,32.0 L 46.0,28.0 L 48.0,27.0" fill="#080808"/>
</svg>
