<?xml version="1.0" ?>
<svg baseProfile="full" height="600px" version="1.1" viewBox="-20.1 -20.1 240.2 240.2" width="600px" xmlns="http://www.w3.org/2000/svg" xmlns:ev="http://www.w3.org/2001/xml-events" xmlns:xlink="http://www.w3.org/1999/xlink">
	<defs/>
	<path d="M 0.0,0.0 L 200.0,0.0 L 200.0,200.0 L 0.0,200.0 L 0.0,0.0" fill="#FDFDFD"/>
	<path d="M 84.0,1.0 L 97.0,1.0 L 105.0,5.0 L 111.0,12.0 L 113.0,17.0 L 113.0,27.0 L 109.0,36.0 L 102.0,42.0 L 118.0,42.0 L 141.0,29.0 L 149.0,29.0 L 156.0,35.0 L 157.0,37.0 L 157.0,43.0 L 153.0,49.0 L 151.0,55.0 L 147.0,76.0 L 147.0,83.0 L 151.0,87.0 L 151.0,97.0 L 146.0,103.0 L 141.0,104.0 L 140.0,113.0 L 135.0,138.0 L 130.0,160.0 L 130.0,165.0 L 133.0,171.0 L 133.0,176.0 L 193.0,176.0 L 199.0,180.0 L 200.0,181.0 L 200.0,200.0 L 0.0,200.0 L 0.0,181.0 L 4.0,177.0 L 8.0,176.0 L 30.0,175.0 L 30.0,166.0 L 43.0,126.0 L 49.0,107.0 L 51.0,94.0 L 66.0,50.0 L 71.0,45.0 L 82.0,43.0 L 76.0,39.0 L 71.0,33.0 L 69.0,27.0 L 69.0,17.0 L 73.0,9.0 L 80.0,3.0 L 84.0,1.0" fill="#070707"/>
	<path d="M 75.0,52.0 L 90.0,52.0 L 113.0,75.0 L 143.0,90.0 L 143.0,95.0 L 142.0,96.0 L 135.0,95.0 L 110.0,83.0 L 97.0,72.0 L 91.0,71.0 L 87.0,81.0 L 81.0,100.0 L 79.0,104.0 L 79.0,111.0 L 90.0,124.0 L 96.0,132.0 L 96.0,172.0 L 94.0,175.0 L 87.0,175.0 L 85.0,172.0 L 84.0,134.0 L 69.0,118.0 L 60.0,108.0 L 58.0,104.0 L 59.0,96.0 L 73.0,55.0 L 75.0,52.0" fill="#F6F6F6"/>
	<path d="M 95.0,81.0 L 103.0,87.0 L 119.0,95.0 L 133.0,102.0 L 131.0,117.0 L 122.0,161.0 L 114.0,169.0 L 109.0,176.0 L 103.0,176.0 L 103.0,131.0 L 99.0,124.0 L 86.0,108.0 L 89.0,97.0 L 94.0,82.0 L 95.0,81.0" fill="#FBFBFB"/>
	<path d="M 70.0,131.0 L 77.0,137.0 L 78.0,176.0 L 55.0,176.0 L 61.0,158.0 L 66.0,141.0 L 70.0,131.0" fill="#F9F9F9"/>
	<path d="M 86.0,9.0 L 96.0,9.0 L 102.0,13.0 L 105.0,18.0 L 105.0,26.0 L 101.0,33.0 L 96.0,36.0 L 86.0,36.0 L 80.0,32.0 L 77.0,27.0 L 77.0,18.0 L 81.0,12.0 L 86.0,9.0" fill="#F8F8F8"/>
	<path d="M 8.0,184.0 L 104.0,184.0 L 102.0,192.0 L 68.0,192.0 L 32.0,190.0 L 11.0,187.0 L 8.0,186.0 L 8.0,184.0" fill="#F7F7F7"/>
	<path d="M 55.0,115.0 L 57.0,115.0 L 64.0,123.0 L 61.0,133.0 L 48.0,173.0 L 46.0,175.0 L 40.0,175.0 L 38.0,172.0 L 40.0,161.0 L 55.0,115.0" fill="#F6F6F6"/>
	<path d="M 123.0,171.0 L 125.0,173.0 L 127.0,181.0 L 127.0,194.0 L 126.0,200.0 L 108.0,200.0 L 109.0,193.0 L 117.0,177.0 L 123.0,171.0" fill="#F5F5F5"/>
	<path d="M 143.0,37.0 L 148.0,38.0 L 148.0,43.0 L 125.0,56.0 L 122.0,57.0 L 106.0,58.0 L 100.0,51.0 L 120.0,50.0 L 140.0,39.0 L 143.0,37.0" fill="#F0F0F0"/>
	<path d="M 135.0,184.0 L 192.0,184.0 L 192.0,186.0 L 186.0,188.0 L 152.0,191.0 L 135.0,191.0 L 135.0,184.0" fill="#F4F4F4"/>
	<path d="M 139.0,56.0 L 142.0,56.0 L 140.0,71.0 L 138.0,79.0 L 119.0,70.0 L 114.0,65.0 L 127.0,63.0 L 139.0,56.0" fill="#F5F5F5"/>
	<path d="M 0.0,189.0 L 8.0,194.0 L 33.0,197.0 L 61.0,199.0 L 61.0,200.0 L 0.0,200.0 L 0.0,189.0" fill="#F0F0F0"/>
	<path d="M 199.0,189.0 L 200.0,189.0 L 200.0,200.0 L 134.0,200.0 L 134.0,199.0 L 168.0,197.0 L 191.0,194.0 L 197.0,191.0 L 199.0,189.0" fill="#EDEDED"/>
	<path d="M 8.0,184.0 L 104.0,184.0 L 103.0,186.0 L 13.0,185.0 L 13.0,187.0 L 8.0,186.0 L 8.0,184.0" fill="#EBEBEB"/>
</svg>
