<?xml version="1.0" ?>
<svg baseProfile="full" height="600px" version="1.1" viewBox="-20.1 -20.1 240.2 240.2" width="600px" xmlns="http://www.w3.org/2000/svg" xmlns:ev="http://www.w3.org/2001/xml-events" xmlns:xlink="http://www.w3.org/1999/xlink">
	<defs/>
	<path d="M 0.0,0.0 L 200.0,0.0 L 200.0,200.0 L 0.0,200.0 L 0.0,0.0" fill="#060606"/>
	<path d="M 0.0,0.0 L 200.0,0.0 L 200.0,181.0 L 193.0,177.0 L 153.0,176.0 L 149.0,158.0 L 143.0,147.0 L 142.0,146.0 L 142.0,105.0 L 143.0,96.0 L 148.0,92.0 L 150.0,87.0 L 149.0,80.0 L 146.0,76.0 L 143.0,75.0 L 143.0,35.0 L 147.0,28.0 L 147.0,21.0 L 145.0,16.0 L 140.0,14.0 L 133.0,14.0 L 127.0,18.0 L 106.0,39.0 L 104.0,38.0 L 109.0,30.0 L 110.0,27.0 L 110.0,18.0 L 105.0,8.0 L 100.0,4.0 L 94.0,2.0 L 82.0,2.0 L 74.0,7.0 L 70.0,12.0 L 68.0,16.0 L 68.0,28.0 L 73.0,38.0 L 79.0,42.0 L 79.0,44.0 L 70.0,45.0 L 64.0,50.0 L 58.0,73.0 L 51.0,97.0 L 49.0,110.0 L 43.0,129.0 L 31.0,166.0 L 31.0,176.0 L 8.0,177.0 L 3.0,179.0 L 0.0,181.0 L 0.0,0.0" fill="#FDFDFD"/>
	<path d="M 93.0,80.0 L 98.0,82.0 L 108.0,88.0 L 133.0,95.0 L 135.0,96.0 L 135.0,119.0 L 134.0,145.0 L 127.0,155.0 L 122.0,168.0 L 120.0,176.0 L 103.0,176.0 L 103.0,131.0 L 99.0,124.0 L 86.0,108.0 L 88.0,99.0 L 93.0,80.0" fill="#FBFBFB"/>
	<path d="M 72.0,52.0 L 88.0,52.0 L 98.0,61.0 L 109.0,70.0 L 116.0,74.0 L 136.0,80.0 L 142.0,83.0 L 142.0,87.0 L 141.0,88.0 L 134.0,88.0 L 110.0,81.0 L 93.0,70.0 L 88.0,71.0 L 83.0,90.0 L 79.0,104.0 L 79.0,111.0 L 90.0,124.0 L 96.0,132.0 L 96.0,172.0 L 94.0,175.0 L 87.0,175.0 L 85.0,172.0 L 84.0,134.0 L 69.0,118.0 L 60.0,108.0 L 58.0,104.0 L 59.0,95.0 L 64.0,78.0 L 70.0,55.0 L 72.0,52.0" fill="#F6F6F6"/>
	<path d="M 8.0,184.0 L 119.0,184.0 L 120.0,192.0 L 60.0,192.0 L 23.0,189.0 L 8.0,186.0 L 8.0,184.0" fill="#F5F5F5"/>
	<path d="M 70.0,131.0 L 77.0,137.0 L 78.0,176.0 L 55.0,176.0 L 61.0,158.0 L 66.0,141.0 L 70.0,131.0" fill="#F9F9F9"/>
	<path d="M 84.0,9.0 L 93.0,9.0 L 98.0,12.0 L 102.0,17.0 L 103.0,19.0 L 103.0,26.0 L 98.0,34.0 L 92.0,37.0 L 85.0,37.0 L 79.0,33.0 L 75.0,27.0 L 75.0,18.0 L 79.0,12.0 L 84.0,9.0" fill="#F7F7F7"/>
	<path d="M 55.0,115.0 L 57.0,115.0 L 64.0,123.0 L 61.0,133.0 L 48.0,173.0 L 46.0,175.0 L 40.0,175.0 L 38.0,172.0 L 40.0,161.0 L 55.0,115.0" fill="#F6F6F6"/>
	<path d="M 137.0,153.0 L 140.0,156.0 L 144.0,166.0 L 145.0,171.0 L 145.0,187.0 L 127.0,187.0 L 127.0,178.0 L 130.0,166.0 L 136.0,154.0 L 137.0,153.0" fill="#F1F1F1"/>
	<path d="M 135.0,21.0 L 139.0,22.0 L 140.0,27.0 L 116.0,51.0 L 105.0,54.0 L 100.0,53.0 L 96.0,48.0 L 110.0,45.0 L 118.0,38.0 L 119.0,36.0 L 121.0,36.0 L 123.0,32.0 L 133.0,22.0 L 135.0,21.0" fill="#F0F0F0"/>
	<path d="M 134.0,43.0 L 135.0,43.0 L 135.0,72.0 L 124.0,69.0 L 115.0,65.0 L 110.0,60.0 L 120.0,57.0 L 134.0,43.0" fill="#EFEFEF"/>
	<path d="M 0.0,189.0 L 8.0,194.0 L 33.0,197.0 L 61.0,199.0 L 61.0,200.0 L 0.0,200.0 L 0.0,189.0" fill="#F0F0F0"/>
	<path d="M 199.0,189.0 L 200.0,189.0 L 200.0,200.0 L 136.0,200.0 L 136.0,199.0 L 168.0,197.0 L 191.0,194.0 L 197.0,191.0 L 199.0,189.0" fill="#EEEEEE"/>
	<path d="M 153.0,184.0 L 192.0,184.0 L 192.0,186.0 L 186.0,188.0 L 167.0,190.0 L 153.0,190.0 L 153.0,184.0" fill="#F1F1F1"/>
	<path d="M 8.0,184.0 L 119.0,184.0 L 119.0,185.0 L 13.0,185.0 L 13.0,187.0 L 8.0,186.0 L 8.0,184.0" fill="#ECECEC"/>
</svg>
