<?xml version="1.0" ?>
<svg baseProfile="full" height="600px" version="1.1" viewBox="-20.1 -20.1 240.2 240.2" width="600px" xmlns="http://www.w3.org/2000/svg" xmlns:ev="http://www.w3.org/2001/xml-events" xmlns:xlink="http://www.w3.org/1999/xlink">
	<defs/>
	<path d="M 0.0,0.0 L 200.0,0.0 L 200.0,200.0 L 0.0,200.0 L 0.0,0.0" fill="#FDFDFD"/>
	<path d="M 112.0,22.0 L 123.0,22.0 L 133.0,27.0 L 139.0,36.0 L 140.0,38.0 L 140.0,49.0 L 135.0,59.0 L 134.0,60.0 L 136.0,61.0 L 161.0,62.0 L 167.0,66.0 L 169.0,69.0 L 169.0,77.0 L 167.0,81.0 L 162.0,84.0 L 158.0,84.0 L 156.0,89.0 L 146.0,103.0 L 138.0,114.0 L 137.0,123.0 L 134.0,128.0 L 129.0,131.0 L 124.0,132.0 L 116.0,143.0 L 106.0,157.0 L 103.0,176.0 L 193.0,176.0 L 199.0,180.0 L 200.0,181.0 L 200.0,200.0 L 0.0,200.0 L 0.0,181.0 L 4.0,177.0 L 8.0,176.0 L 30.0,175.0 L 30.0,166.0 L 42.0,147.0 L 47.0,138.0 L 54.0,112.0 L 55.0,100.0 L 59.0,93.0 L 73.0,74.0 L 84.0,59.0 L 91.0,55.0 L 98.0,54.0 L 96.0,49.0 L 96.0,38.0 L 102.0,28.0 L 112.0,22.0" fill="#060606"/>
	<path d="M 92.0,63.0 L 100.0,63.0 L 108.0,70.0 L 110.0,74.0 L 116.0,104.0 L 123.0,112.0 L 129.0,119.0 L 127.0,123.0 L 123.0,122.0 L 111.0,110.0 L 109.0,104.0 L 106.0,89.0 L 105.0,87.0 L 100.0,88.0 L 87.0,104.0 L 84.0,108.0 L 84.0,114.0 L 92.0,123.0 L 100.0,133.0 L 100.0,145.0 L 98.0,154.0 L 88.0,167.0 L 86.0,167.0 L 87.0,156.0 L 89.0,142.0 L 88.0,135.0 L 78.0,125.0 L 71.0,117.0 L 65.0,110.0 L 63.0,106.0 L 63.0,101.0 L 76.0,84.0 L 86.0,70.0 L 92.0,63.0" fill="#F8F8F8"/>
	<path d="M 93.0,184.0 L 192.0,184.0 L 192.0,186.0 L 186.0,188.0 L 152.0,191.0 L 136.0,192.0 L 91.0,192.0 L 92.0,185.0 L 93.0,184.0" fill="#F4F4F4"/>
	<path d="M 114.0,30.0 L 121.0,30.0 L 127.0,33.0 L 131.0,38.0 L 132.0,40.0 L 132.0,48.0 L 128.0,54.0 L 124.0,57.0 L 121.0,58.0 L 114.0,58.0 L 108.0,54.0 L 105.0,50.0 L 104.0,47.0 L 104.0,40.0 L 108.0,34.0 L 114.0,30.0" fill="#F9F9F9"/>
	<path d="M 61.0,118.0 L 67.0,123.0 L 69.0,126.0 L 67.0,139.0 L 64.0,148.0 L 49.0,172.0 L 45.0,175.0 L 39.0,175.0 L 38.0,169.0 L 50.0,149.0 L 54.0,143.0 L 61.0,118.0" fill="#F5F5F5"/>
	<path d="M 76.0,135.0 L 78.0,135.0 L 82.0,141.0 L 80.0,155.0 L 78.0,168.0 L 74.0,172.0 L 68.0,176.0 L 56.0,176.0 L 60.0,168.0 L 71.0,151.0 L 75.0,136.0 L 76.0,135.0" fill="#F7F7F7"/>
	<path d="M 120.0,84.0 L 148.0,85.0 L 146.0,89.0 L 136.0,103.0 L 132.0,109.0 L 128.0,107.0 L 123.0,101.0 L 120.0,88.0 L 120.0,84.0" fill="#F8F8F8"/>
	<path d="M 83.0,176.0 L 86.0,176.0 L 85.0,183.0 L 81.0,194.0 L 77.0,200.0 L 61.0,200.0 L 58.0,196.0 L 65.0,188.0 L 73.0,181.0 L 83.0,176.0" fill="#F7F7F7"/>
	<path d="M 115.0,67.0 L 133.0,69.0 L 160.0,70.0 L 161.0,71.0 L 161.0,76.0 L 159.0,77.0 L 129.0,77.0 L 118.0,75.0 L 115.0,67.0" fill="#EEEEEE"/>
	<path d="M 100.0,100.0 L 102.0,103.0 L 104.0,113.0 L 117.0,126.0 L 115.0,131.0 L 109.0,139.0 L 108.0,139.0 L 106.0,129.0 L 92.0,112.0 L 94.0,107.0 L 100.0,100.0" fill="#EFEFEF"/>
	<path d="M 8.0,184.0 L 57.0,184.0 L 54.0,189.0 L 52.0,191.0 L 32.0,190.0 L 11.0,187.0 L 8.0,186.0 L 8.0,184.0" fill="#EFEFEF"/>
	<path d="M 199.0,189.0 L 200.0,189.0 L 200.0,200.0 L 136.0,200.0 L 136.0,199.0 L 168.0,197.0 L 191.0,194.0 L 197.0,191.0 L 199.0,189.0" fill="#EEEEEE"/>
	<path d="M 0.0,189.0 L 8.0,194.0 L 33.0,197.0 L 49.0,198.0 L 49.0,200.0 L 0.0,200.0 L 0.0,189.0" fill="#F1F1F1"/>
	<path d="M 8.0,184.0 L 57.0,184.0 L 57.0,185.0 L 13.0,185.0 L 13.0,187.0 L 8.0,186.0 L 8.0,184.0" fill="#E9E9E9"/>
</svg>
