<?xml version="1.0" ?>
<svg baseProfile="full" height="600px" version="1.1" viewBox="-20.1 -20.1 240.2 240.2" width="600px" xmlns="http://www.w3.org/2000/svg" xmlns:ev="http://www.w3.org/2001/xml-events" xmlns:xlink="http://www.w3.org/1999/xlink">
	<defs/>
	<path d="M 0.0,0.0 L 200.0,0.0 L 200.0,200.0 L 0.0,200.0 L 0.0,0.0" fill="#FDFDFD"/>
	<path d="M 101.0,11.0 L 108.0,11.0 L 118.0,15.0 L 124.0,22.0 L 126.0,26.0 L 126.0,39.0 L 122.0,47.0 L 118.0,51.0 L 130.0,51.0 L 146.0,46.0 L 156.0,46.0 L 161.0,50.0 L 163.0,54.0 L 163.0,60.0 L 160.0,65.0 L 155.0,68.0 L 143.0,96.0 L 144.0,102.0 L 144.0,110.0 L 139.0,116.0 L 135.0,118.0 L 132.0,118.0 L 131.0,123.0 L 115.0,158.0 L 110.0,169.0 L 110.0,176.0 L 193.0,176.0 L 199.0,180.0 L 200.0,181.0 L 200.0,200.0 L 0.0,200.0 L 0.0,181.0 L 4.0,177.0 L 8.0,176.0 L 30.0,175.0 L 30.0,166.0 L 42.0,141.0 L 50.0,116.0 L 52.0,108.0 L 53.0,97.0 L 74.0,56.0 L 81.0,50.0 L 89.0,49.0 L 85.0,44.0 L 83.0,39.0 L 83.0,26.0 L 88.0,18.0 L 93.0,14.0 L 101.0,11.0" fill="#060606"/>
	<path d="M 83.0,58.0 L 95.0,58.0 L 100.0,63.0 L 112.0,85.0 L 116.0,91.0 L 136.0,104.0 L 135.0,109.0 L 130.0,109.0 L 115.0,99.0 L 109.0,95.0 L 100.0,79.0 L 95.0,80.0 L 82.0,106.0 L 82.0,113.0 L 93.0,126.0 L 98.0,133.0 L 96.0,170.0 L 90.0,175.0 L 86.0,174.0 L 85.0,172.0 L 86.0,153.0 L 87.0,137.0 L 80.0,128.0 L 73.0,121.0 L 66.0,113.0 L 62.0,108.0 L 61.0,106.0 L 61.0,99.0 L 80.0,62.0 L 83.0,58.0" fill="#F8F8F8"/>
	<path d="M 98.0,91.0 L 101.0,95.0 L 105.0,101.0 L 120.0,111.0 L 125.0,114.0 L 124.0,119.0 L 107.0,156.0 L 105.0,161.0 L 104.0,157.0 L 105.0,148.0 L 105.0,131.0 L 99.0,122.0 L 89.0,110.0 L 91.0,104.0 L 98.0,91.0" fill="#F8F8F8"/>
	<path d="M 101.0,19.0 L 110.0,20.0 L 115.0,23.0 L 118.0,28.0 L 118.0,38.0 L 114.0,44.0 L 108.0,47.0 L 100.0,47.0 L 94.0,43.0 L 91.0,38.0 L 91.0,28.0 L 94.0,23.0 L 101.0,19.0" fill="#FAFAFA"/>
	<path d="M 58.0,117.0 L 62.0,119.0 L 66.0,124.0 L 65.0,132.0 L 60.0,149.0 L 52.0,165.0 L 48.0,173.0 L 46.0,175.0 L 40.0,175.0 L 38.0,173.0 L 39.0,166.0 L 50.0,143.0 L 56.0,123.0 L 58.0,117.0" fill="#F7F7F7"/>
	<path d="M 72.0,133.0 L 76.0,135.0 L 79.0,138.0 L 79.0,152.0 L 78.0,173.0 L 78.0,176.0 L 56.0,176.0 L 57.0,171.0 L 67.0,150.0 L 72.0,133.0" fill="#F8F8F8"/>
	<path d="M 111.0,184.0 L 192.0,184.0 L 192.0,186.0 L 186.0,188.0 L 152.0,191.0 L 141.0,192.0 L 110.0,192.0 L 111.0,184.0" fill="#F1F1F1"/>
	<path d="M 8.0,184.0 L 81.0,184.0 L 77.0,191.0 L 51.0,191.0 L 23.0,189.0 L 8.0,186.0 L 8.0,184.0" fill="#F8F8F8"/>
	<path d="M 141.0,71.0 L 144.0,71.0 L 143.0,76.0 L 135.0,94.0 L 123.0,87.0 L 119.0,83.0 L 115.0,76.0 L 115.0,74.0 L 134.0,73.0 L 141.0,71.0" fill="#F3F3F3"/>
	<path d="M 101.0,176.0 L 103.0,176.0 L 103.0,188.0 L 100.0,200.0 L 81.0,200.0 L 83.0,195.0 L 91.0,184.0 L 99.0,177.0 L 101.0,176.0" fill="#F4F4F4"/>
	<path d="M 148.0,54.0 L 154.0,54.0 L 155.0,58.0 L 146.0,62.0 L 133.0,66.0 L 110.0,66.0 L 108.0,60.0 L 132.0,59.0 L 148.0,54.0" fill="#F3F3F3"/>
	<path d="M 0.0,189.0 L 8.0,194.0 L 33.0,197.0 L 72.0,199.0 L 72.0,200.0 L 0.0,200.0 L 0.0,189.0" fill="#EBEBEB"/>
	<path d="M 199.0,189.0 L 200.0,189.0 L 200.0,200.0 L 136.0,200.0 L 136.0,199.0 L 168.0,197.0 L 191.0,194.0 L 197.0,191.0 L 199.0,189.0" fill="#EEEEEE"/>
	<path d="M 8.0,184.0 L 81.0,184.0 L 79.0,186.0 L 13.0,185.0 L 13.0,187.0 L 8.0,186.0 L 8.0,184.0" fill="#EAEAEA"/>
</svg>
