<?xml version="1.0" ?>
<svg baseProfile="full" height="600px" version="1.1" viewBox="-20.1 -20.1 240.2 240.2" width="600px" xmlns="http://www.w3.org/2000/svg" xmlns:ev="http://www.w3.org/2001/xml-events" xmlns:xlink="http://www.w3.org/1999/xlink">
	<defs/>
	<path d="M 0.0,0.0 L 200.0,0.0 L 200.0,200.0 L 0.0,200.0 L 0.0,0.0" fill="#FDFDFD"/>
	<path d="M 0.0,0.0 L 92.0,0.0 L 92.0,1.0 L 82.0,3.0 L 73.0,9.0 L 65.0,18.0 L 62.0,25.0 L 61.0,32.0 L 61.0,171.0 L 65.0,181.0 L 69.0,187.0 L 78.0,195.0 L 85.0,198.0 L 90.0,199.0 L 90.0,200.0 L 0.0,200.0 L 0.0,0.0" fill="#FDFDFD"/>
	<path d="M 101.0,0.0 L 200.0,0.0 L 200.0,200.0 L 100.0,200.0 L 100.0,199.0 L 109.0,197.0 L 118.0,192.0 L 125.0,185.0 L 130.0,175.0 L 131.0,168.0 L 132.0,137.0 L 140.0,143.0 L 150.0,148.0 L 157.0,148.0 L 158.0,147.0 L 158.0,132.0 L 155.0,103.0 L 149.0,82.0 L 129.0,22.0 L 123.0,13.0 L 115.0,6.0 L 106.0,2.0 L 101.0,1.0 L 101.0,0.0" fill="#FDFDFD"/>
	<path d="M 92.0,0.0 L 101.0,0.0 L 112.0,3.0 L 120.0,9.0 L 127.0,17.0 L 131.0,25.0 L 152.0,88.0 L 156.0,103.0 L 159.0,132.0 L 159.0,147.0 L 157.0,149.0 L 150.0,149.0 L 138.0,143.0 L 133.0,138.0 L 132.0,168.0 L 130.0,177.0 L 125.0,186.0 L 117.0,194.0 L 107.0,199.0 L 100.0,200.0 L 90.0,200.0 L 80.0,197.0 L 72.0,191.0 L 65.0,183.0 L 61.0,174.0 L 60.0,171.0 L 60.0,32.0 L 62.0,22.0 L 68.0,13.0 L 75.0,6.0 L 85.0,1.0 L 92.0,0.0 M 90.0,8.0 L 78.0,14.0 L 72.0,21.0 L 68.0,30.0 L 68.0,170.0 L 74.0,182.0 L 81.0,188.0 L 90.0,192.0 L 102.0,192.0 L 114.0,186.0 L 120.0,179.0 L 124.0,169.0 L 124.0,30.0 L 120.0,21.0 L 113.0,13.0 L 102.0,8.0 L 90.0,8.0" fill="#040404"/>
	<path d="M 132.0,56.0 L 134.0,59.0 L 146.0,96.0 L 149.0,106.0 L 151.0,131.0 L 151.0,140.0 L 147.0,139.0 L 139.0,133.0 L 132.0,122.0 L 132.0,56.0" fill="#F6F6F6"/>
	<path d="M 92.0,152.0 L 100.0,152.0 L 100.0,160.0 L 108.0,160.0 L 108.0,168.0 L 100.0,168.0 L 100.0,176.0 L 92.0,176.0 L 92.0,168.0 L 84.0,168.0 L 84.0,160.0 L 92.0,160.0 L 92.0,152.0" fill="#000000"/>
	<path d="M 93.0,28.0 L 99.0,28.0 L 104.0,33.0 L 103.0,41.0 L 99.0,44.0 L 93.0,44.0 L 88.0,39.0 L 88.0,33.0 L 93.0,28.0" fill="#090909"/>
</svg>
