<?xml version="1.0" ?>
<svg baseProfile="full" height="600px" version="1.1" viewBox="-12.06 -12.06 144.12 144.12" width="600px" xmlns="http://www.w3.org/2000/svg" xmlns:ev="http://www.w3.org/2001/xml-events" xmlns:xlink="http://www.w3.org/1999/xlink">
	<defs/>
	<path d="M 0.0,0.0 L 120.0,0.0 L 120.0,120.0 L 0.0,120.0 L 0.0,0.0" fill="#FCFCFC"/>
	<path d="M 55.0,12.0 L 65.0,12.0 L 71.0,16.0 L 75.0,21.0 L 76.0,23.0 L 76.0,96.0 L 73.0,102.0 L 67.0,107.0 L 65.0,108.0 L 55.0,108.0 L 49.0,104.0 L 45.0,99.0 L 44.0,97.0 L 44.0,23.0 L 48.0,17.0 L 53.0,13.0 L 55.0,12.0" fill="#020202"/>
	<path d="M 84.0,34.0 L 88.0,38.0 L 100.0,55.0 L 107.0,66.0 L 112.0,78.0 L 112.0,80.0 L 103.0,80.0 L 95.0,76.0 L 88.0,69.0 L 84.0,63.0 L 84.0,34.0" fill="#050505"/>
	<path d="M 18.0,53.0 L 23.0,54.0 L 24.0,55.0 L 24.0,61.0 L 27.0,61.0 L 28.0,57.0 L 34.0,56.0 L 36.0,59.0 L 35.0,64.0 L 30.0,69.0 L 30.0,71.0 L 36.0,78.0 L 36.0,91.0 L 31.0,86.0 L 19.0,72.0 L 16.0,67.0 L 16.0,55.0 L 18.0,53.0" fill="#090909"/>
	<path d="M 12.0,16.0 L 20.0,16.0 L 20.0,24.0 L 28.0,24.0 L 28.0,32.0 L 36.0,32.0 L 36.0,48.0 L 30.0,44.0 L 15.0,29.0 L 12.0,23.0 L 12.0,16.0" fill="#030303"/>
	<path d="M 57.0,86.0 L 64.0,87.0 L 66.0,90.0 L 65.0,96.0 L 62.0,98.0 L 56.0,97.0 L 54.0,94.0 L 54.0,89.0 L 57.0,86.0" fill="#F0F0F0"/>
</svg>
