<?xml version="1.0" ?>
<svg baseProfile="full" height="600px" version="1.1" viewBox="-20.1 -20.1 240.2 240.2" width="600px" xmlns="http://www.w3.org/2000/svg" xmlns:ev="http://www.w3.org/2001/xml-events" xmlns:xlink="http://www.w3.org/1999/xlink">
	<defs/>
	<path d="M 0.0,0.0 L 200.0,0.0 L 200.0,200.0 L 0.0,200.0 L 0.0,0.0" fill="#FDFDFD"/>
	<path d="M 22.0,19.0 L 30.0,20.0 L 43.0,20.0 L 44.0,21.0 L 44.0,28.0 L 51.0,28.0 L 51.0,36.0 L 58.0,36.0 L 59.0,40.0 L 58.0,44.0 L 62.0,44.0 L 63.0,39.0 L 70.0,29.0 L 78.0,23.0 L 88.0,19.0 L 104.0,19.0 L 116.0,24.0 L 124.0,31.0 L 132.0,44.0 L 141.0,55.0 L 155.0,72.0 L 167.0,88.0 L 171.0,95.0 L 180.0,119.0 L 179.0,125.0 L 172.0,128.0 L 159.0,128.0 L 147.0,122.0 L 137.0,111.0 L 133.0,106.0 L 132.0,151.0 L 128.0,163.0 L 121.0,172.0 L 112.0,178.0 L 103.0,181.0 L 88.0,181.0 L 78.0,177.0 L 69.0,170.0 L 63.0,161.0 L 60.0,151.0 L 46.0,143.0 L 32.0,132.0 L 25.0,124.0 L 20.0,114.0 L 19.0,110.0 L 19.0,101.0 L 21.0,91.0 L 25.0,85.0 L 28.0,83.0 L 32.0,84.0 L 34.0,100.0 L 38.0,105.0 L 40.0,106.0 L 36.0,95.0 L 37.0,90.0 L 40.0,88.0 L 48.0,88.0 L 53.0,93.0 L 55.0,99.0 L 56.0,115.0 L 59.0,120.0 L 59.0,93.0 L 48.0,81.0 L 41.0,73.0 L 30.0,61.0 L 22.0,51.0 L 19.0,40.0 L 19.0,22.0 L 22.0,19.0" fill="#060606"/>
	<path d="M 89.0,27.0 L 102.0,27.0 L 111.0,31.0 L 119.0,38.0 L 123.0,45.0 L 124.0,50.0 L 124.0,151.0 L 120.0,160.0 L 113.0,168.0 L 105.0,172.0 L 102.0,173.0 L 89.0,173.0 L 79.0,168.0 L 71.0,159.0 L 68.0,151.0 L 68.0,49.0 L 72.0,40.0 L 79.0,32.0 L 89.0,27.0" fill="#FCFCFC"/>
	<path d="M 132.0,58.0 L 137.0,63.0 L 151.0,80.0 L 163.0,96.0 L 171.0,117.0 L 171.0,121.0 L 162.0,121.0 L 154.0,117.0 L 149.0,113.0 L 141.0,103.0 L 132.0,92.0 L 132.0,58.0" fill="#FAFAFA"/>
	<path d="M 26.0,27.0 L 36.0,28.0 L 37.0,35.0 L 43.0,36.0 L 44.0,43.0 L 50.0,44.0 L 50.0,51.0 L 58.0,51.0 L 57.0,59.0 L 60.0,59.0 L 60.0,81.0 L 55.0,76.0 L 41.0,61.0 L 34.0,53.0 L 28.0,45.0 L 26.0,36.0 L 26.0,27.0" fill="#F8F8F8"/>
	<path d="M 46.0,98.0 L 48.0,100.0 L 49.0,117.0 L 53.0,126.0 L 60.0,131.0 L 60.0,141.0 L 55.0,139.0 L 42.0,130.0 L 31.0,119.0 L 26.0,110.0 L 26.0,103.0 L 29.0,107.0 L 34.0,112.0 L 42.0,112.0 L 45.0,109.0 L 46.0,98.0" fill="#F5F5F5"/>
	<path d="M 92.0,137.0 L 100.0,137.0 L 100.0,145.0 L 108.0,145.0 L 108.0,153.0 L 100.0,153.0 L 100.0,161.0 L 92.0,161.0 L 92.0,153.0 L 84.0,153.0 L 84.0,145.0 L 92.0,145.0 L 92.0,137.0" fill="#000000"/>
	<path d="M 94.0,46.0 L 99.0,47.0 L 101.0,49.0 L 100.0,54.0 L 98.0,56.0 L 93.0,55.0 L 91.0,53.0 L 92.0,48.0 L 94.0,46.0" fill="#121212"/>
</svg>
