<?xml version="1.0" ?>
<svg baseProfile="full" height="600px" version="1.1" viewBox="-12.06 -12.06 144.12 144.12" width="600px" xmlns="http://www.w3.org/2000/svg" xmlns:ev="http://www.w3.org/2001/xml-events" xmlns:xlink="http://www.w3.org/1999/xlink">
	<defs/>
	<path d="M 0.0,0.0 L 120.0,0.0 L 120.0,120.0 L 0.0,120.0 L 0.0,0.0" fill="#FDFDFD"/>
	<path d="M 54.0,20.0 L 65.0,20.0 L 72.0,24.0 L 76.0,31.0 L 76.0,88.0 L 72.0,96.0 L 65.0,100.0 L 54.0,100.0 L 47.0,95.0 L 44.0,89.0 L 44.0,31.0 L 49.0,23.0 L 54.0,20.0" fill="#020202"/>
	<path d="M 84.0,57.0 L 86.0,60.0 L 89.0,70.0 L 90.0,80.0 L 90.0,89.0 L 84.0,88.0 L 84.0,57.0" fill="#0B0B0B"/>
	<path d="M 57.0,79.0 L 63.0,79.0 L 66.0,82.0 L 66.0,87.0 L 63.0,90.0 L 57.0,90.0 L 54.0,87.0 L 54.0,82.0 L 57.0,79.0" fill="#F6F6F6"/>
	<path d="M 34.0,47.0 L 36.0,47.0 L 36.0,71.0 L 34.0,69.0 L 31.0,61.0 L 31.0,52.0 L 34.0,47.0" fill="#050505"/>
	<path d="M 35.0,11.0 L 40.0,12.0 L 41.0,14.0 L 37.0,22.0 L 36.0,29.0 L 33.0,25.0 L 33.0,15.0 L 35.0,11.0" fill="#101010"/>
</svg>
