<?xml version="1.0" ?>
<svg baseProfile="full" height="600px" version="1.1" viewBox="-20.1 -20.1 240.2 240.2" width="600px" xmlns="http://www.w3.org/2000/svg" xmlns:ev="http://www.w3.org/2001/xml-events" xmlns:xlink="http://www.w3.org/1999/xlink">
	<defs/>
	<path d="M 0.0,0.0 L 200.0,0.0 L 200.0,200.0 L 0.0,200.0 L 0.0,0.0" fill="#FDFDFD"/>
	<path d="M 88.0,14.0 L 103.0,14.0 L 114.0,18.0 L 123.0,25.0 L 130.0,36.0 L 132.0,42.0 L 132.0,158.0 L 128.0,168.0 L 121.0,177.0 L 112.0,183.0 L 102.0,186.0 L 88.0,186.0 L 78.0,182.0 L 69.0,175.0 L 63.0,166.0 L 60.0,155.0 L 60.0,42.0 L 64.0,32.0 L 71.0,23.0 L 82.0,16.0 L 88.0,14.0" fill="#FCFCFC"/>
	<path d="M 88.0,14.0 L 103.0,14.0 L 114.0,18.0 L 123.0,25.0 L 130.0,36.0 L 132.0,42.0 L 132.0,158.0 L 128.0,168.0 L 121.0,177.0 L 112.0,183.0 L 102.0,186.0 L 88.0,186.0 L 78.0,182.0 L 69.0,175.0 L 63.0,166.0 L 60.0,155.0 L 60.0,42.0 L 64.0,32.0 L 71.0,23.0 L 82.0,16.0 L 88.0,14.0 M 89.0,22.0 L 79.0,27.0 L 71.0,36.0 L 68.0,44.0 L 68.0,156.0 L 74.0,168.0 L 82.0,175.0 L 90.0,178.0 L 101.0,178.0 L 110.0,175.0 L 119.0,167.0 L 123.0,158.0 L 124.0,156.0 L 124.0,44.0 L 120.0,35.0 L 113.0,27.0 L 105.0,23.0 L 102.0,22.0 L 89.0,22.0" fill="#040404"/>
	<path d="M 92.0,141.0 L 100.0,141.0 L 100.0,149.0 L 108.0,149.0 L 108.0,157.0 L 100.0,157.0 L 100.0,165.0 L 92.0,165.0 L 92.0,157.0 L 84.0,157.0 L 84.0,149.0 L 92.0,149.0 L 92.0,141.0" fill="#010101"/>
	<path d="M 93.0,42.0 L 99.0,42.0 L 102.0,45.0 L 101.0,51.0 L 98.0,53.0 L 92.0,52.0 L 90.0,49.0 L 91.0,44.0 L 93.0,42.0" fill="#121212"/>
</svg>
