<?xml version="1.0" ?>
<svg baseProfile="full" height="600px" version="1.1" viewBox="-20.1 -20.1 240.2 240.2" width="600px" xmlns="http://www.w3.org/2000/svg" xmlns:ev="http://www.w3.org/2001/xml-events" xmlns:xlink="http://www.w3.org/1999/xlink">
	<defs/>
	<path d="M 0.0,0.0 L 200.0,0.0 L 200.0,200.0 L 0.0,200.0 L 0.0,0.0" fill="#FDFDFD"/>
	<path d="M 88.0,5.0 L 103.0,5.0 L 114.0,9.0 L 123.0,16.0 L 130.0,27.0 L 132.0,33.0 L 132.0,164.0 L 128.0,177.0 L 121.0,186.0 L 112.0,192.0 L 103.0,195.0 L 88.0,195.0 L 78.0,191.0 L 69.0,184.0 L 63.0,175.0 L 60.0,165.0 L 60.0,33.0 L 64.0,23.0 L 71.0,14.0 L 82.0,7.0 L 88.0,5.0" fill="#FCFCFC"/>
	<path d="M 88.0,5.0 L 103.0,5.0 L 114.0,9.0 L 123.0,16.0 L 130.0,27.0 L 132.0,33.0 L 132.0,164.0 L 128.0,177.0 L 121.0,186.0 L 112.0,192.0 L 103.0,195.0 L 88.0,195.0 L 78.0,191.0 L 69.0,184.0 L 63.0,175.0 L 60.0,165.0 L 60.0,33.0 L 64.0,23.0 L 71.0,14.0 L 82.0,7.0 L 88.0,5.0 M 89.0,13.0 L 79.0,18.0 L 71.0,27.0 L 68.0,35.0 L 68.0,165.0 L 72.0,174.0 L 79.0,182.0 L 89.0,187.0 L 102.0,187.0 L 111.0,183.0 L 119.0,176.0 L 123.0,168.0 L 124.0,165.0 L 124.0,35.0 L 120.0,26.0 L 113.0,18.0 L 105.0,14.0 L 102.0,13.0 L 89.0,13.0" fill="#030303"/>
	<path d="M 92.0,148.0 L 100.0,148.0 L 100.0,156.0 L 108.0,156.0 L 108.0,164.0 L 100.0,164.0 L 100.0,172.0 L 92.0,172.0 L 92.0,164.0 L 84.0,164.0 L 84.0,156.0 L 92.0,156.0 L 92.0,148.0" fill="#010101"/>
	<path d="M 93.0,33.0 L 99.0,33.0 L 103.0,37.0 L 103.0,43.0 L 99.0,47.0 L 93.0,47.0 L 89.0,43.0 L 89.0,37.0 L 93.0,33.0" fill="#070707"/>
</svg>
