<?xml version="1.0" ?>
<svg baseProfile="full" height="600px" version="1.1" viewBox="-19.296000000000003 -19.296000000000003 230.592 230.592" width="600px" xmlns="http://www.w3.org/2000/svg" xmlns:ev="http://www.w3.org/2001/xml-events" xmlns:xlink="http://www.w3.org/1999/xlink">
	<defs/>
	<path d="M 0.0,0.0 L 192.0,0.0 L 192.0,192.0 L 0.0,192.0 L 0.0,0.0" fill="#FDFEFD"/>
	<path d="M 27.0,48.0 L 163.0,48.0 L 170.0,51.0 L 175.0,57.0 L 176.0,59.0 L 176.0,132.0 L 173.0,138.0 L 167.0,143.0 L 164.0,144.0 L 27.0,144.0 L 21.0,140.0 L 17.0,135.0 L 16.0,131.0 L 16.0,59.0 L 20.0,53.0 L 25.0,49.0 L 27.0,48.0" fill="#7CB342"/>
	<path d="M 90.0,60.0 L 162.0,60.0 L 164.0,62.0 L 164.0,130.0 L 162.0,132.0 L 90.0,132.0 L 88.0,130.0 L 88.0,62.0 L 90.0,60.0" fill="#EFF6E8"/>
</svg>
