<?xml version="1.0" ?>
<svg baseProfile="full" height="600px" version="1.1" viewBox="-20.1 -20.1 240.2 240.2" width="600px" xmlns="http://www.w3.org/2000/svg" xmlns:ev="http://www.w3.org/2001/xml-events" xmlns:xlink="http://www.w3.org/1999/xlink">
	<defs/>
	<path d="M 0.0,0.0 L 200.0,0.0 L 200.0,200.0 L 0.0,200.0 L 0.0,0.0" fill="#010101"/>
	<path d="M 0.0,148.0 L 4.0,153.0 L 8.0,155.0 L 191.0,155.0 L 197.0,153.0 L 199.0,148.0 L 200.0,148.0 L 200.0,200.0 L 0.0,200.0 L 0.0,148.0" fill="#FDFDFD"/>
	<path d="M 0.0,0.0 L 200.0,0.0 L 200.0,52.0 L 197.0,49.0 L 197.0,47.0 L 191.0,45.0 L 8.0,45.0 L 3.0,48.0 L 0.0,52.0 L 0.0,0.0" fill="#FDFDFD"/>
	<path d="M 56.0,52.0 L 144.0,52.0 L 146.0,54.0 L 146.0,146.0 L 144.0,148.0 L 56.0,148.0 L 54.0,146.0 L 54.0,54.0 L 56.0,52.0" fill="#FDFDFD"/>
	<path d="M 154.0,52.0 L 190.0,52.0 L 192.0,54.0 L 192.0,146.0 L 190.0,148.0 L 154.0,148.0 L 154.0,52.0" fill="#FDFDFD"/>
</svg>
