<?xml version="1.0" ?>
<svg baseProfile="full" height="600px" version="1.1" viewBox="-19.296000000000003 -19.296000000000003 230.592 230.592" width="600px" xmlns="http://www.w3.org/2000/svg" xmlns:ev="http://www.w3.org/2001/xml-events" xmlns:xlink="http://www.w3.org/1999/xlink">
	<defs/>
	<path d="M 0.0,0.0 L 192.0,0.0 L 192.0,192.0 L 0.0,192.0 L 0.0,0.0" fill="#FFFDFC"/>
	<path d="M 169.0,93.0 L 171.0,96.0 L 178.0,135.0 L 178.0,141.0 L 168.0,138.0 L 164.0,137.0 L 162.0,142.0 L 153.0,153.0 L 141.0,163.0 L 125.0,171.0 L 112.0,175.0 L 106.0,176.0 L 86.0,176.0 L 72.0,173.0 L 60.0,168.0 L 50.0,162.0 L 39.0,153.0 L 30.0,142.0 L 25.0,134.0 L 25.0,131.0 L 37.0,125.0 L 40.0,126.0 L 46.0,135.0 L 55.0,145.0 L 68.0,153.0 L 78.0,157.0 L 86.0,159.0 L 105.0,159.0 L 122.0,154.0 L 131.0,149.0 L 140.0,142.0 L 148.0,133.0 L 149.0,130.0 L 144.0,129.0 L 137.0,126.0 L 143.0,119.0 L 169.0,93.0" fill="#FF7206"/>
	<path d="M 88.0,16.0 L 107.0,16.0 L 125.0,21.0 L 141.0,29.0 L 154.0,40.0 L 164.0,53.0 L 167.0,58.0 L 167.0,60.0 L 155.0,66.0 L 152.0,66.0 L 146.0,57.0 L 138.0,48.0 L 128.0,41.0 L 116.0,36.0 L 104.0,33.0 L 86.0,33.0 L 70.0,38.0 L 59.0,44.0 L 47.0,55.0 L 44.0,59.0 L 44.0,61.0 L 55.0,65.0 L 49.0,73.0 L 26.0,96.0 L 25.0,98.0 L 23.0,98.0 L 17.0,64.0 L 15.0,52.0 L 27.0,55.0 L 33.0,46.0 L 42.0,36.0 L 53.0,28.0 L 69.0,20.0 L 79.0,17.0 L 88.0,16.0" fill="#FF7106"/>
</svg>
