<?xml version="1.0" ?>
<svg baseProfile="full" height="600px" version="1.1" viewBox="-20.1 -20.1 240.2 240.2" width="600px" xmlns="http://www.w3.org/2000/svg" xmlns:ev="http://www.w3.org/2001/xml-events" xmlns:xlink="http://www.w3.org/1999/xlink">
	<defs/>
	<path d="M 0.0,0.0 L 200.0,0.0 L 200.0,200.0 L 0.0,200.0 L 0.0,0.0" fill="#FDFDFD"/>
	<path d="M 112.0,40.0 L 131.0,40.0 L 140.0,43.0 L 148.0,47.0 L 158.0,56.0 L 164.0,66.0 L 168.0,77.0 L 168.0,89.0 L 175.0,90.0 L 183.0,94.0 L 190.0,100.0 L 196.0,110.0 L 198.0,116.0 L 198.0,130.0 L 195.0,140.0 L 189.0,149.0 L 182.0,155.0 L 173.0,159.0 L 168.0,160.0 L 33.0,160.0 L 23.0,156.0 L 14.0,150.0 L 8.0,143.0 L 4.0,135.0 L 2.0,127.0 L 2.0,113.0 L 7.0,101.0 L 16.0,91.0 L 24.0,86.0 L 26.0,86.0 L 27.0,76.0 L 32.0,66.0 L 40.0,58.0 L 50.0,53.0 L 53.0,52.0 L 65.0,52.0 L 75.0,55.0 L 84.0,60.0 L 93.0,50.0 L 102.0,44.0 L 112.0,40.0" fill="#FCFCFC"/>
	<path d="M 112.0,40.0 L 131.0,40.0 L 140.0,43.0 L 148.0,47.0 L 158.0,56.0 L 164.0,66.0 L 168.0,77.0 L 168.0,89.0 L 175.0,90.0 L 183.0,94.0 L 190.0,100.0 L 196.0,110.0 L 198.0,116.0 L 198.0,130.0 L 195.0,140.0 L 189.0,149.0 L 182.0,155.0 L 173.0,159.0 L 168.0,160.0 L 33.0,160.0 L 23.0,156.0 L 14.0,150.0 L 8.0,143.0 L 4.0,135.0 L 2.0,127.0 L 2.0,113.0 L 7.0,101.0 L 16.0,91.0 L 24.0,86.0 L 26.0,86.0 L 27.0,76.0 L 32.0,66.0 L 40.0,58.0 L 50.0,53.0 L 53.0,52.0 L 65.0,52.0 L 75.0,55.0 L 84.0,60.0 L 93.0,50.0 L 102.0,44.0 L 112.0,40.0 M 115.0,48.0 L 106.0,51.0 L 97.0,57.0 L 91.0,64.0 L 87.0,71.0 L 82.0,71.0 L 77.0,66.0 L 73.0,63.0 L 64.0,60.0 L 55.0,60.0 L 45.0,64.0 L 38.0,71.0 L 34.0,81.0 L 32.0,91.0 L 20.0,98.0 L 14.0,105.0 L 11.0,111.0 L 10.0,116.0 L 10.0,128.0 L 16.0,140.0 L 23.0,147.0 L 34.0,152.0 L 166.0,152.0 L 176.0,149.0 L 183.0,144.0 L 188.0,136.0 L 190.0,129.0 L 190.0,117.0 L 185.0,107.0 L 176.0,99.0 L 168.0,96.0 L 161.0,94.0 L 160.0,78.0 L 155.0,66.0 L 149.0,58.0 L 139.0,51.0 L 130.0,48.0 L 115.0,48.0" fill="#060606"/>
	<path d="M 78.0,117.0 L 81.0,117.0 L 86.0,127.0 L 93.0,133.0 L 98.0,135.0 L 109.0,135.0 L 118.0,131.0 L 124.0,124.0 L 125.0,122.0 L 131.0,123.0 L 133.0,124.0 L 132.0,128.0 L 126.0,136.0 L 119.0,141.0 L 110.0,144.0 L 97.0,144.0 L 88.0,140.0 L 80.0,134.0 L 74.0,124.0 L 73.0,118.0 L 78.0,117.0" fill="#090909"/>
	<path d="M 97.0,80.0 L 109.0,80.0 L 119.0,83.0 L 128.0,90.0 L 134.0,99.0 L 135.0,106.0 L 127.0,107.0 L 123.0,98.0 L 116.0,92.0 L 108.0,89.0 L 98.0,89.0 L 90.0,93.0 L 82.0,102.0 L 77.0,101.0 L 75.0,100.0 L 76.0,96.0 L 82.0,88.0 L 91.0,82.0 L 97.0,80.0" fill="#090909"/>
</svg>
