<?xml version="1.0" ?>
<svg baseProfile="full" height="600px" version="1.1" viewBox="-19.296000000000003 -19.296000000000003 230.592 230.592" width="600px" xmlns="http://www.w3.org/2000/svg" xmlns:ev="http://www.w3.org/2001/xml-events" xmlns:xlink="http://www.w3.org/1999/xlink">
	<defs/>
	<path d="M 0.0,0.0 L 192.0,0.0 L 192.0,192.0 L 0.0,192.0 L 0.0,0.0" fill="#FFFDFC"/>
	<path d="M 88.0,16.0 L 105.0,16.0 L 119.0,19.0 L 132.0,24.0 L 142.0,30.0 L 153.0,39.0 L 160.0,47.0 L 160.0,50.0 L 149.0,58.0 L 145.0,56.0 L 138.0,48.0 L 128.0,41.0 L 116.0,36.0 L 110.0,34.0 L 102.0,33.0 L 90.0,33.0 L 75.0,36.0 L 61.0,43.0 L 51.0,51.0 L 44.0,59.0 L 36.0,75.0 L 34.0,80.0 L 48.0,80.0 L 39.0,99.0 L 30.0,116.0 L 27.0,121.0 L 24.0,117.0 L 6.0,83.0 L 4.0,78.0 L 18.0,77.0 L 22.0,64.0 L 30.0,50.0 L 38.0,40.0 L 47.0,32.0 L 60.0,24.0 L 72.0,19.0 L 79.0,17.0 L 88.0,16.0" fill="#FF7206"/>
	<path d="M 164.0,72.0 L 167.0,75.0 L 185.0,110.0 L 186.0,113.0 L 174.0,113.0 L 171.0,125.0 L 163.0,141.0 L 152.0,154.0 L 139.0,164.0 L 125.0,171.0 L 112.0,175.0 L 105.0,176.0 L 86.0,176.0 L 72.0,173.0 L 60.0,168.0 L 50.0,162.0 L 39.0,153.0 L 32.0,145.0 L 37.0,140.0 L 43.0,135.0 L 47.0,136.0 L 54.0,144.0 L 64.0,151.0 L 75.0,156.0 L 88.0,159.0 L 105.0,159.0 L 122.0,154.0 L 134.0,147.0 L 145.0,137.0 L 153.0,124.0 L 157.0,113.0 L 144.0,113.0 L 146.0,108.0 L 160.0,79.0 L 164.0,72.0" fill="#FF7206"/>
</svg>
