<?xml version="1.0" ?>
<svg baseProfile="full" height="600px" version="1.1" viewBox="-20.1 -20.1 240.2 240.2" width="600px" xmlns="http://www.w3.org/2000/svg" xmlns:ev="http://www.w3.org/2001/xml-events" xmlns:xlink="http://www.w3.org/1999/xlink">
	<defs/>
	<path d="M 0.0,0.0 L 200.0,0.0 L 200.0,200.0 L 0.0,200.0 L 0.0,0.0" fill="#FDFDFD"/>
	<path d="M 69.0,40.0 L 81.0,40.0 L 91.0,42.0 L 103.0,48.0 L 113.0,57.0 L 117.0,62.0 L 121.0,60.0 L 130.0,56.0 L 143.0,56.0 L 152.0,59.0 L 160.0,65.0 L 166.0,75.0 L 168.0,80.0 L 168.0,90.0 L 174.0,91.0 L 183.0,98.0 L 190.0,107.0 L 193.0,115.0 L 193.0,132.0 L 188.0,144.0 L 180.0,153.0 L 171.0,158.0 L 162.0,160.0 L 37.0,160.0 L 25.0,155.0 L 16.0,148.0 L 10.0,139.0 L 7.0,130.0 L 7.0,113.0 L 11.0,103.0 L 18.0,94.0 L 27.0,88.0 L 30.0,72.0 L 37.0,59.0 L 47.0,49.0 L 60.0,42.0 L 69.0,40.0" fill="#FBFBFB"/>
	<path d="M 69.0,40.0 L 81.0,40.0 L 91.0,42.0 L 103.0,48.0 L 113.0,57.0 L 117.0,62.0 L 121.0,60.0 L 130.0,56.0 L 143.0,56.0 L 152.0,59.0 L 160.0,65.0 L 166.0,75.0 L 168.0,80.0 L 168.0,90.0 L 174.0,91.0 L 183.0,98.0 L 190.0,107.0 L 193.0,115.0 L 193.0,132.0 L 188.0,144.0 L 180.0,153.0 L 171.0,158.0 L 162.0,160.0 L 37.0,160.0 L 25.0,155.0 L 16.0,148.0 L 10.0,139.0 L 7.0,130.0 L 7.0,113.0 L 11.0,103.0 L 18.0,94.0 L 27.0,88.0 L 30.0,72.0 L 37.0,59.0 L 47.0,49.0 L 60.0,42.0 L 69.0,40.0 M 69.0,48.0 L 58.0,52.0 L 49.0,58.0 L 42.0,66.0 L 37.0,77.0 L 35.0,91.0 L 31.0,95.0 L 23.0,101.0 L 17.0,109.0 L 15.0,114.0 L 15.0,129.0 L 19.0,138.0 L 26.0,146.0 L 35.0,151.0 L 40.0,152.0 L 163.0,152.0 L 173.0,148.0 L 181.0,140.0 L 185.0,131.0 L 185.0,116.0 L 181.0,108.0 L 177.0,103.0 L 170.0,98.0 L 161.0,95.0 L 159.0,79.0 L 154.0,71.0 L 148.0,66.0 L 143.0,64.0 L 132.0,64.0 L 124.0,68.0 L 119.0,73.0 L 113.0,74.0 L 111.0,68.0 L 103.0,58.0 L 92.0,51.0 L 82.0,48.0 L 69.0,48.0" fill="#060606"/>
	<path d="M 132.0,102.0 L 135.0,102.0 L 136.0,105.0 L 136.0,118.0 L 132.0,128.0 L 126.0,136.0 L 119.0,141.0 L 110.0,144.0 L 97.0,144.0 L 88.0,140.0 L 85.0,137.0 L 89.0,132.0 L 94.0,133.0 L 98.0,135.0 L 109.0,135.0 L 119.0,130.0 L 125.0,123.0 L 127.0,117.0 L 127.0,104.0 L 132.0,102.0" fill="#090909"/>
	<path d="M 97.0,80.0 L 109.0,80.0 L 120.0,84.0 L 123.0,87.0 L 119.0,92.0 L 114.0,91.0 L 108.0,89.0 L 98.0,89.0 L 90.0,93.0 L 83.0,101.0 L 81.0,106.0 L 81.0,120.0 L 76.0,122.0 L 73.0,122.0 L 72.0,117.0 L 72.0,105.0 L 76.0,96.0 L 80.0,90.0 L 89.0,83.0 L 97.0,80.0" fill="#080808"/>
</svg>
