<?xml version="1.0" ?>
<svg baseProfile="full" height="600px" version="1.1" viewBox="-19.296000000000003 -19.296000000000003 230.592 230.592" width="600px" xmlns="http://www.w3.org/2000/svg" xmlns:ev="http://www.w3.org/2001/xml-events" xmlns:xlink="http://www.w3.org/1999/xlink">
	<defs/>
	<path d="M 0.0,0.0 L 192.0,0.0 L 192.0,192.0 L 0.0,192.0 L 0.0,0.0" fill="#FEFDFC"/>
	<path d="M 91.0,10.0 L 99.0,10.0 L 133.0,16.0 L 145.0,19.0 L 151.0,24.0 L 153.0,28.0 L 153.0,39.0 L 151.0,51.0 L 158.0,52.0 L 164.0,57.0 L 167.0,64.0 L 174.0,105.0 L 174.0,113.0 L 161.0,131.0 L 148.0,150.0 L 136.0,167.0 L 126.0,181.0 L 120.0,186.0 L 117.0,187.0 L 109.0,187.0 L 95.0,178.0 L 75.0,164.0 L 55.0,150.0 L 51.0,145.0 L 50.0,143.0 L 50.0,131.0 L 52.0,126.0 L 42.0,112.0 L 28.0,92.0 L 19.0,79.0 L 17.0,74.0 L 17.0,67.0 L 20.0,61.0 L 28.0,54.0 L 47.0,41.0 L 67.0,27.0 L 87.0,13.0 L 91.0,10.0" fill="#FD5622"/>
	<path d="M 150.0,51.0 L 158.0,52.0 L 164.0,57.0 L 167.0,64.0 L 174.0,105.0 L 174.0,113.0 L 161.0,131.0 L 148.0,150.0 L 136.0,167.0 L 126.0,181.0 L 120.0,186.0 L 117.0,187.0 L 109.0,187.0 L 95.0,178.0 L 75.0,164.0 L 55.0,150.0 L 51.0,145.0 L 50.0,143.0 L 50.0,131.0 L 55.0,129.0 L 61.0,133.0 L 72.0,133.0 L 82.0,127.0 L 96.0,117.0 L 119.0,101.0 L 136.0,89.0 L 143.0,84.0 L 150.0,81.0 L 151.0,79.0 L 151.0,73.0 L 148.0,69.0 L 148.0,60.0 L 150.0,51.0" fill="#DD2D01"/>
	<path d="M 125.0,32.0 L 131.0,32.0 L 136.0,37.0 L 136.0,43.0 L 131.0,48.0 L 124.0,47.0 L 120.0,42.0 L 121.0,35.0 L 125.0,32.0" fill="#FEF7F4"/>
	<path d="M 147.0,69.0 L 151.0,71.0 L 152.0,73.0 L 152.0,79.0 L 147.0,84.0 L 144.0,83.0 L 147.0,69.0" fill="#FCEAE5"/>
</svg>
