<?xml version="1.0" ?>
<svg baseProfile="full" height="600px" version="1.1" viewBox="-20.1 -20.1 240.2 240.2" width="600px" xmlns="http://www.w3.org/2000/svg" xmlns:ev="http://www.w3.org/2001/xml-events" xmlns:xlink="http://www.w3.org/1999/xlink">
	<defs/>
	<path d="M 0.0,0.0 L 200.0,0.0 L 200.0,200.0 L 0.0,200.0 L 0.0,0.0" fill="#FCFCFC"/>
	<path d="M 0.0,0.0 L 200.0,0.0 L 200.0,200.0 L 0.0,200.0 L 0.0,0.0 M 93.0,11.0 L 85.0,17.0 L 71.0,30.0 L 63.0,37.0 L 52.0,47.0 L 44.0,54.0 L 33.0,64.0 L 25.0,71.0 L 14.0,81.0 L 6.0,88.0 L 3.0,92.0 L 4.0,101.0 L 11.0,109.0 L 20.0,119.0 L 29.0,129.0 L 33.0,137.0 L 40.0,144.0 L 48.0,151.0 L 55.0,158.0 L 62.0,166.0 L 65.0,169.0 L 72.0,172.0 L 88.0,187.0 L 96.0,194.0 L 100.0,197.0 L 107.0,197.0 L 112.0,194.0 L 126.0,179.0 L 133.0,171.0 L 143.0,160.0 L 150.0,152.0 L 160.0,141.0 L 167.0,133.0 L 177.0,122.0 L 184.0,114.0 L 189.0,107.0 L 189.0,86.0 L 187.0,50.0 L 186.0,41.0 L 181.0,35.0 L 178.0,33.0 L 167.0,33.0 L 167.0,22.0 L 162.0,16.0 L 159.0,14.0 L 112.0,11.0 L 93.0,11.0" fill="#FCFCFC"/>
	<path d="M 93.0,11.0 L 112.0,11.0 L 159.0,14.0 L 166.0,20.0 L 167.0,22.0 L 167.0,33.0 L 178.0,33.0 L 185.0,39.0 L 186.0,41.0 L 187.0,50.0 L 189.0,86.0 L 189.0,107.0 L 183.0,115.0 L 170.0,129.0 L 163.0,137.0 L 153.0,148.0 L 146.0,156.0 L 136.0,167.0 L 129.0,175.0 L 119.0,186.0 L 112.0,194.0 L 107.0,197.0 L 100.0,197.0 L 90.0,188.0 L 82.0,181.0 L 71.0,171.0 L 64.0,168.0 L 56.0,160.0 L 49.0,152.0 L 42.0,145.0 L 34.0,138.0 L 31.0,134.0 L 28.0,128.0 L 13.0,112.0 L 6.0,104.0 L 3.0,98.0 L 3.0,92.0 L 10.0,84.0 L 21.0,74.0 L 29.0,67.0 L 40.0,57.0 L 48.0,50.0 L 59.0,40.0 L 67.0,33.0 L 78.0,23.0 L 86.0,16.0 L 93.0,11.0 M 166.0,41.0 L 130.0,43.0 L 115.0,44.0 L 110.0,48.0 L 103.0,56.0 L 94.0,66.0 L 85.0,76.0 L 78.0,84.0 L 68.0,95.0 L 61.0,103.0 L 51.0,114.0 L 44.0,122.0 L 39.0,128.0 L 40.0,133.0 L 50.0,142.0 L 60.0,151.0 L 70.0,160.0 L 78.0,167.0 L 89.0,177.0 L 97.0,184.0 L 103.0,189.0 L 107.0,188.0 L 116.0,178.0 L 123.0,170.0 L 133.0,159.0 L 140.0,151.0 L 150.0,140.0 L 157.0,132.0 L 168.0,120.0 L 175.0,112.0 L 181.0,105.0 L 181.0,93.0 L 179.0,57.0 L 178.0,43.0 L 175.0,41.0 L 166.0,41.0" fill="#070707"/>
	<path d="M 95.0,19.0 L 111.0,19.0 L 147.0,21.0 L 156.0,22.0 L 159.0,24.0 L 159.0,34.0 L 140.0,35.0 L 138.0,34.0 L 130.0,34.0 L 126.0,36.0 L 113.0,37.0 L 107.0,41.0 L 93.0,56.0 L 86.0,64.0 L 77.0,74.0 L 68.0,84.0 L 61.0,92.0 L 51.0,103.0 L 44.0,111.0 L 34.0,122.0 L 29.0,117.0 L 14.0,101.0 L 11.0,97.0 L 12.0,93.0 L 22.0,84.0 L 30.0,77.0 L 41.0,67.0 L 49.0,60.0 L 60.0,50.0 L 68.0,43.0 L 79.0,33.0 L 87.0,26.0 L 95.0,19.0" fill="#FAFAFA"/>
	<path d="M 151.0,54.0 L 158.0,54.0 L 164.0,57.0 L 167.0,62.0 L 167.0,69.0 L 164.0,75.0 L 158.0,78.0 L 151.0,78.0 L 144.0,72.0 L 143.0,69.0 L 143.0,62.0 L 149.0,55.0 L 151.0,54.0" fill="#070707"/>
	<path d="M 153.0,62.0 L 158.0,63.0 L 159.0,68.0 L 157.0,70.0 L 152.0,69.0 L 151.0,64.0 L 153.0,62.0" fill="#E9E9E9"/>
</svg>
