<?xml version="1.0" ?>
<svg baseProfile="full" height="600px" version="1.1" viewBox="-19.296000000000003 -19.296000000000003 230.592 230.592" width="600px" xmlns="http://www.w3.org/2000/svg" xmlns:ev="http://www.w3.org/2001/xml-events" xmlns:xlink="http://www.w3.org/1999/xlink">
	<defs/>
	<path d="M 0.0,0.0 L 192.0,0.0 L 192.0,192.0 L 0.0,192.0 L 0.0,0.0" fill="#FEFDFD"/>
	<path d="M 88.0,16.0 L 141.0,16.0 L 147.0,20.0 L 151.0,25.0 L 152.0,27.0 L 152.0,52.0 L 159.0,53.0 L 166.0,59.0 L 168.0,63.0 L 168.0,116.0 L 146.0,138.0 L 139.0,146.0 L 109.0,176.0 L 102.0,180.0 L 93.0,180.0 L 86.0,176.0 L 43.0,133.0 L 40.0,127.0 L 40.0,118.0 L 42.0,112.0 L 27.0,97.0 L 24.0,91.0 L 24.0,82.0 L 28.0,76.0 L 88.0,16.0" fill="#FD5621"/>
	<path d="M 152.0,52.0 L 159.0,53.0 L 166.0,59.0 L 168.0,63.0 L 168.0,116.0 L 146.0,138.0 L 139.0,146.0 L 109.0,176.0 L 102.0,180.0 L 93.0,180.0 L 86.0,176.0 L 43.0,133.0 L 40.0,127.0 L 40.0,118.0 L 43.0,113.0 L 50.0,119.0 L 71.0,140.0 L 78.0,143.0 L 85.0,143.0 L 91.0,140.0 L 101.0,131.0 L 151.0,81.0 L 152.0,52.0" fill="#DD2E02"/>
	<path d="M 125.0,32.0 L 131.0,32.0 L 136.0,37.0 L 136.0,43.0 L 131.0,48.0 L 125.0,48.0 L 120.0,42.0 L 121.0,35.0 L 125.0,32.0" fill="#FEF6F4"/>
</svg>
