<?xml version="1.0" ?>
<svg baseProfile="full" height="600px" version="1.1" viewBox="-19.296000000000003 -19.296000000000003 230.592 230.592" width="600px" xmlns="http://www.w3.org/2000/svg" xmlns:ev="http://www.w3.org/2001/xml-events" xmlns:xlink="http://www.w3.org/1999/xlink">
	<defs/>
	<path d="M 0.0,0.0 L 192.0,0.0 L 192.0,192.0 L 0.0,192.0 L 0.0,0.0" fill="#FEFDFC"/>
	<path d="M 88.0,13.0 L 97.0,13.0 L 124.0,17.0 L 141.0,20.0 L 147.0,24.0 L 151.0,30.0 L 151.0,40.0 L 149.0,53.0 L 156.0,54.0 L 162.0,59.0 L 165.0,65.0 L 169.0,92.0 L 171.0,106.0 L 171.0,115.0 L 161.0,129.0 L 147.0,148.0 L 132.0,168.0 L 120.0,184.0 L 112.0,188.0 L 104.0,188.0 L 93.0,181.0 L 75.0,167.0 L 61.0,157.0 L 51.0,149.0 L 47.0,144.0 L 46.0,141.0 L 46.0,132.0 L 49.0,127.0 L 47.0,123.0 L 35.0,107.0 L 21.0,88.0 L 16.0,80.0 L 16.0,71.0 L 21.0,63.0 L 40.0,49.0 L 61.0,33.0 L 75.0,23.0 L 88.0,13.0" fill="#FD5622"/>
	<path d="M 148.0,53.0 L 156.0,54.0 L 162.0,59.0 L 165.0,65.0 L 169.0,92.0 L 171.0,106.0 L 171.0,115.0 L 161.0,129.0 L 147.0,148.0 L 132.0,168.0 L 120.0,184.0 L 112.0,188.0 L 104.0,188.0 L 93.0,181.0 L 75.0,167.0 L 61.0,157.0 L 51.0,149.0 L 47.0,144.0 L 46.0,141.0 L 46.0,132.0 L 49.0,127.0 L 51.0,127.0 L 58.0,135.0 L 62.0,137.0 L 71.0,137.0 L 79.0,133.0 L 89.0,125.0 L 104.0,114.0 L 123.0,100.0 L 139.0,88.0 L 148.0,83.0 L 149.0,81.0 L 149.0,75.0 L 146.0,71.0 L 147.0,61.0 L 148.0,53.0" fill="#DD2D01"/>
	<path d="M 123.0,34.0 L 129.0,34.0 L 134.0,39.0 L 134.0,45.0 L 129.0,50.0 L 123.0,50.0 L 118.0,44.0 L 119.0,37.0 L 123.0,34.0" fill="#FEF6F4"/>
	<path d="M 145.0,72.0 L 149.0,73.0 L 150.0,75.0 L 150.0,81.0 L 145.0,86.0 L 143.0,85.0 L 145.0,72.0" fill="#FCE2DB"/>
</svg>
