<?xml version="1.0" ?>
<svg baseProfile="full" height="600px" version="1.1" viewBox="-20.1 -20.1 240.2 240.2" width="600px" xmlns="http://www.w3.org/2000/svg" xmlns:ev="http://www.w3.org/2001/xml-events" xmlns:xlink="http://www.w3.org/1999/xlink">
	<defs/>
	<path d="M 0.0,0.0 L 200.0,0.0 L 200.0,200.0 L 0.0,200.0 L 0.0,0.0" fill="#FCFCFC"/>
	<path d="M 0.0,0.0 L 200.0,0.0 L 200.0,200.0 L 0.0,200.0 L 0.0,0.0 M 102.0,6.0 L 91.0,13.0 L 74.0,25.0 L 54.0,39.0 L 34.0,53.0 L 14.0,67.0 L 5.0,74.0 L 4.0,76.0 L 4.0,84.0 L 12.0,96.0 L 26.0,116.0 L 38.0,133.0 L 39.0,134.0 L 41.0,143.0 L 48.0,149.0 L 52.0,153.0 L 57.0,159.0 L 66.0,161.0 L 81.0,172.0 L 104.0,188.0 L 116.0,196.0 L 124.0,196.0 L 129.0,192.0 L 140.0,176.0 L 154.0,156.0 L 168.0,136.0 L 182.0,116.0 L 193.0,100.0 L 194.0,98.0 L 194.0,87.0 L 185.0,36.0 L 181.0,28.0 L 175.0,24.0 L 172.0,19.0 L 167.0,16.0 L 123.0,8.0 L 111.0,6.0 L 102.0,6.0" fill="#FCFCFC"/>
	<path d="M 102.0,6.0 L 111.0,6.0 L 163.0,15.0 L 170.0,18.0 L 174.0,22.0 L 179.0,27.0 L 183.0,31.0 L 185.0,36.0 L 194.0,87.0 L 194.0,98.0 L 187.0,109.0 L 175.0,126.0 L 161.0,146.0 L 147.0,166.0 L 133.0,186.0 L 126.0,195.0 L 124.0,196.0 L 116.0,196.0 L 104.0,188.0 L 84.0,174.0 L 67.0,162.0 L 66.0,161.0 L 57.0,159.0 L 51.0,152.0 L 47.0,148.0 L 41.0,143.0 L 39.0,134.0 L 28.0,119.0 L 12.0,96.0 L 4.0,84.0 L 4.0,76.0 L 8.0,71.0 L 24.0,60.0 L 44.0,46.0 L 64.0,32.0 L 84.0,18.0 L 100.0,7.0 L 102.0,6.0 M 168.0,33.0 L 116.0,42.0 L 111.0,45.0 L 100.0,61.0 L 86.0,81.0 L 72.0,101.0 L 58.0,121.0 L 48.0,135.0 L 48.0,139.0 L 71.0,155.0 L 91.0,169.0 L 111.0,183.0 L 118.0,188.0 L 122.0,187.0 L 133.0,172.0 L 149.0,149.0 L 163.0,129.0 L 177.0,109.0 L 186.0,96.0 L 186.0,88.0 L 178.0,44.0 L 176.0,35.0 L 174.0,33.0 L 168.0,33.0" fill="#080808"/>
	<path d="M 104.0,14.0 L 115.0,15.0 L 162.0,23.0 L 166.0,25.0 L 166.0,26.0 L 115.0,35.0 L 108.0,38.0 L 100.0,48.0 L 89.0,64.0 L 75.0,84.0 L 61.0,104.0 L 47.0,124.0 L 44.0,127.0 L 33.0,112.0 L 17.0,89.0 L 12.0,82.0 L 13.0,78.0 L 28.0,67.0 L 51.0,51.0 L 68.0,39.0 L 88.0,25.0 L 104.0,14.0" fill="#FBFBFB"/>
	<path d="M 152.0,48.0 L 159.0,48.0 L 165.0,51.0 L 168.0,56.0 L 168.0,64.0 L 165.0,69.0 L 159.0,72.0 L 152.0,72.0 L 147.0,69.0 L 144.0,63.0 L 144.0,56.0 L 147.0,51.0 L 152.0,48.0" fill="#070707"/>
	<path d="M 154.0,56.0 L 159.0,57.0 L 160.0,62.0 L 158.0,64.0 L 153.0,63.0 L 152.0,58.0 L 154.0,56.0" fill="#EAEAEA"/>
</svg>
