<?xml version="1.0" ?>
<svg baseProfile="full" height="600px" version="1.1" viewBox="-19.296000000000003 -19.296000000000003 230.592 230.592" width="600px" xmlns="http://www.w3.org/2000/svg" xmlns:ev="http://www.w3.org/2001/xml-events" xmlns:xlink="http://www.w3.org/1999/xlink">
	<defs/>
	<path d="M 0.0,0.0 L 192.0,0.0 L 192.0,192.0 L 0.0,192.0 L 0.0,0.0" fill="#FEFDFC"/>
	<path d="M 86.0,17.0 L 107.0,18.0 L 130.0,19.0 L 140.0,21.0 L 147.0,27.0 L 149.0,31.0 L 149.0,43.0 L 148.0,55.0 L 155.0,56.0 L 162.0,62.0 L 164.0,66.0 L 166.0,91.0 L 167.0,118.0 L 158.0,128.0 L 149.0,138.0 L 142.0,146.0 L 132.0,157.0 L 125.0,165.0 L 116.0,175.0 L 109.0,183.0 L 102.0,186.0 L 95.0,186.0 L 88.0,182.0 L 75.0,170.0 L 67.0,163.0 L 57.0,154.0 L 49.0,147.0 L 43.0,142.0 L 39.0,134.0 L 39.0,127.0 L 42.0,121.0 L 40.0,116.0 L 25.0,100.0 L 19.0,92.0 L 18.0,89.0 L 18.0,81.0 L 23.0,73.0 L 35.0,62.0 L 43.0,55.0 L 54.0,45.0 L 62.0,38.0 L 73.0,28.0 L 81.0,21.0 L 86.0,17.0" fill="#FD5622"/>
	<path d="M 148.0,55.0 L 155.0,56.0 L 162.0,62.0 L 164.0,66.0 L 166.0,91.0 L 167.0,118.0 L 158.0,128.0 L 149.0,138.0 L 142.0,146.0 L 132.0,157.0 L 125.0,165.0 L 116.0,175.0 L 109.0,183.0 L 102.0,186.0 L 95.0,186.0 L 88.0,182.0 L 75.0,170.0 L 67.0,163.0 L 57.0,154.0 L 49.0,147.0 L 43.0,142.0 L 39.0,134.0 L 39.0,127.0 L 41.0,123.0 L 45.0,121.0 L 60.0,137.0 L 65.0,142.0 L 69.0,144.0 L 76.0,144.0 L 84.0,140.0 L 98.0,127.0 L 106.0,120.0 L 116.0,111.0 L 124.0,104.0 L 136.0,93.0 L 147.0,84.0 L 147.0,67.0 L 148.0,55.0" fill="#DD2E02"/>
	<path d="M 122.0,35.0 L 129.0,36.0 L 133.0,41.0 L 133.0,46.0 L 128.0,51.0 L 121.0,51.0 L 117.0,46.0 L 117.0,40.0 L 122.0,35.0" fill="#FEF6F4"/>
</svg>
