<?xml version="1.0" ?>
<svg baseProfile="full" height="600px" version="1.1" viewBox="-19.296000000000003 -19.296000000000003 230.592 230.592" width="600px" xmlns="http://www.w3.org/2000/svg" xmlns:ev="http://www.w3.org/2001/xml-events" xmlns:xlink="http://www.w3.org/1999/xlink">
	<defs/>
	<path d="M 0.0,0.0 L 192.0,0.0 L 192.0,192.0 L 0.0,192.0 L 0.0,0.0" fill="#FEFDFC"/>
	<path d="M 85.0,17.0 L 94.0,17.0 L 131.0,20.0 L 140.0,22.0 L 146.0,27.0 L 149.0,33.0 L 148.0,52.0 L 147.0,55.0 L 156.0,57.0 L 162.0,64.0 L 164.0,73.0 L 167.0,104.0 L 167.0,119.0 L 154.0,134.0 L 143.0,147.0 L 134.0,158.0 L 123.0,171.0 L 112.0,184.0 L 104.0,188.0 L 97.0,188.0 L 88.0,182.0 L 74.0,170.0 L 63.0,161.0 L 50.0,150.0 L 43.0,144.0 L 41.0,140.0 L 41.0,128.0 L 43.0,125.0 L 42.0,120.0 L 30.0,106.0 L 19.0,93.0 L 16.0,87.0 L 16.0,79.0 L 20.0,72.0 L 30.0,63.0 L 41.0,54.0 L 55.0,42.0 L 66.0,33.0 L 80.0,21.0 L 85.0,17.0" fill="#FD5622"/>
	<path d="M 147.0,56.0 L 156.0,57.0 L 162.0,64.0 L 164.0,73.0 L 167.0,104.0 L 167.0,119.0 L 154.0,134.0 L 143.0,147.0 L 134.0,158.0 L 123.0,171.0 L 112.0,184.0 L 104.0,188.0 L 97.0,188.0 L 88.0,182.0 L 74.0,170.0 L 63.0,161.0 L 50.0,150.0 L 43.0,144.0 L 41.0,140.0 L 41.0,128.0 L 44.0,124.0 L 48.0,126.0 L 60.0,140.0 L 63.0,142.0 L 76.0,142.0 L 84.0,136.0 L 98.0,124.0 L 109.0,115.0 L 122.0,104.0 L 133.0,95.0 L 141.0,88.0 L 146.0,85.0 L 147.0,83.0 L 147.0,77.0 L 146.0,75.0 L 146.0,62.0 L 147.0,56.0" fill="#DD2E02"/>
	<path d="M 121.0,36.0 L 127.0,36.0 L 132.0,41.0 L 132.0,47.0 L 127.0,52.0 L 121.0,52.0 L 116.0,46.0 L 117.0,39.0 L 121.0,36.0" fill="#FEF6F4"/>
	<path d="M 145.0,74.0 L 148.0,77.0 L 148.0,83.0 L 147.0,85.0 L 145.0,85.0 L 145.0,74.0" fill="#FBE1D9"/>
</svg>
