<?xml version="1.0" ?>
<svg baseProfile="full" height="600px" version="1.1" viewBox="-12.06 -12.06 144.12 144.12" width="600px" xmlns="http://www.w3.org/2000/svg" xmlns:ev="http://www.w3.org/2001/xml-events" xmlns:xlink="http://www.w3.org/1999/xlink">
	<defs/>
	<path d="M 0.0,0.0 L 120.0,0.0 L 120.0,120.0 L 0.0,120.0 L 0.0,0.0" fill="#FBFBFB"/>
	<path d="M 49.0,23.0 L 55.0,23.0 L 60.0,28.0 L 60.0,58.0 L 64.0,56.0 L 71.0,56.0 L 76.0,61.0 L 80.0,60.0 L 87.0,60.0 L 91.0,64.0 L 100.0,64.0 L 103.0,67.0 L 103.0,105.0 L 99.0,111.0 L 93.0,115.0 L 53.0,115.0 L 43.0,109.0 L 32.0,100.0 L 14.0,89.0 L 13.0,88.0 L 13.0,83.0 L 17.0,80.0 L 27.0,80.0 L 40.0,85.0 L 44.0,87.0 L 44.0,28.0 L 49.0,23.0" fill="#020202"/>
	<path d="M 45.0,4.0 L 57.0,4.0 L 65.0,7.0 L 71.0,12.0 L 76.0,21.0 L 76.0,33.0 L 73.0,41.0 L 68.0,46.0 L 67.0,26.0 L 63.0,20.0 L 60.0,17.0 L 57.0,16.0 L 46.0,16.0 L 42.0,19.0 L 40.0,19.0 L 38.0,24.0 L 37.0,26.0 L 36.0,46.0 L 31.0,41.0 L 28.0,33.0 L 28.0,21.0 L 34.0,11.0 L 43.0,5.0 L 45.0,4.0" fill="#101010"/>
</svg>
