<?xml version="1.0" ?>
<svg baseProfile="full" height="600px" version="1.1" viewBox="-12.06 -12.06 144.12 144.12" width="600px" xmlns="http://www.w3.org/2000/svg" xmlns:ev="http://www.w3.org/2001/xml-events" xmlns:xlink="http://www.w3.org/1999/xlink">
	<defs/>
	<path d="M 0.0,0.0 L 120.0,0.0 L 120.0,120.0 L 0.0,120.0 L 0.0,0.0" fill="#FCFCFC"/>
	<path d="M 48.0,31.0 L 56.0,31.0 L 60.0,35.0 L 60.0,58.0 L 63.0,57.0 L 72.0,57.0 L 76.0,61.0 L 85.0,60.0 L 90.0,64.0 L 99.0,64.0 L 102.0,67.0 L 102.0,102.0 L 99.0,108.0 L 93.0,113.0 L 91.0,114.0 L 55.0,114.0 L 45.0,109.0 L 33.0,99.0 L 15.0,88.0 L 14.0,83.0 L 17.0,80.0 L 31.0,80.0 L 45.0,87.0 L 45.0,34.0 L 48.0,31.0" fill="#020202"/>
	<path d="M 47.0,16.0 L 57.0,16.0 L 63.0,21.0 L 64.0,27.0 L 55.0,23.0 L 48.0,23.0 L 40.0,27.0 L 41.0,21.0 L 47.0,16.0" fill="#090909"/>
</svg>
