<?xml version="1.0" ?>
<svg baseProfile="full" height="600px" version="1.1" viewBox="-12.06 -12.06 144.12 144.12" width="600px" xmlns="http://www.w3.org/2000/svg" xmlns:ev="http://www.w3.org/2001/xml-events" xmlns:xlink="http://www.w3.org/1999/xlink">
	<defs/>
	<path d="M 0.0,0.0 L 120.0,0.0 L 120.0,120.0 L 0.0,120.0 L 0.0,0.0" fill="#FCFCFC"/>
	<path d="M 49.0,23.0 L 55.0,23.0 L 60.0,28.0 L 60.0,58.0 L 65.0,56.0 L 72.0,57.0 L 76.0,61.0 L 86.0,60.0 L 90.0,64.0 L 99.0,64.0 L 103.0,68.0 L 103.0,101.0 L 100.0,108.0 L 95.0,113.0 L 92.0,114.0 L 53.0,114.0 L 43.0,108.0 L 32.0,99.0 L 14.0,88.0 L 14.0,83.0 L 17.0,80.0 L 29.0,80.0 L 41.0,85.0 L 43.0,86.0 L 44.0,28.0 L 49.0,23.0" fill="#040404"/>
</svg>
