<?xml version="1.0" ?>
<svg baseProfile="full" height="600px" version="1.1" viewBox="-12.864 -12.864 153.728 153.728" width="600px" xmlns="http://www.w3.org/2000/svg" xmlns:ev="http://www.w3.org/2001/xml-events" xmlns:xlink="http://www.w3.org/1999/xlink">
	<defs/>
	<path d="M 0.0,0.0 L 128.0,0.0 L 128.0,128.0 L 0.0,128.0 L 0.0,0.0" fill="#FCFCFC"/>
	<path d="M 46.0,5.0 L 56.0,5.0 L 63.0,8.0 L 68.0,13.0 L 71.0,18.0 L 71.0,28.0 L 68.0,36.0 L 77.0,37.0 L 96.0,41.0 L 102.0,46.0 L 103.0,48.0 L 103.0,119.0 L 40.0,119.0 L 39.0,96.0 L 13.0,70.0 L 13.0,63.0 L 18.0,57.0 L 20.0,56.0 L 29.0,56.0 L 40.0,62.0 L 40.0,38.0 L 38.0,38.0 L 34.0,32.0 L 33.0,28.0 L 33.0,18.0 L 38.0,10.0 L 46.0,5.0" fill="#080808"/>
	<path d="M 50.0,27.0 L 55.0,28.0 L 56.0,29.0 L 56.0,41.0 L 77.0,45.0 L 94.0,49.0 L 95.0,50.0 L 95.0,91.0 L 45.0,91.0 L 21.0,67.0 L 22.0,64.0 L 28.0,64.0 L 37.0,70.0 L 48.0,73.0 L 48.0,30.0 L 50.0,27.0" fill="#FAFAFA"/>
	<path d="M 48.0,99.0 L 96.0,99.0 L 96.0,111.0 L 48.0,111.0 L 48.0,99.0" fill="#F1F1F1"/>
	<path d="M 48.0,13.0 L 55.0,13.0 L 60.0,16.0 L 63.0,20.0 L 63.0,25.0 L 55.0,20.0 L 49.0,20.0 L 43.0,24.0 L 41.0,26.0 L 41.0,20.0 L 46.0,14.0 L 48.0,13.0" fill="#EEEEEE"/>
</svg>
