<?xml version="1.0" ?>
<svg baseProfile="full" height="600px" version="1.1" viewBox="-12.864 -12.864 153.728 153.728" width="600px" xmlns="http://www.w3.org/2000/svg" xmlns:ev="http://www.w3.org/2001/xml-events" xmlns:xlink="http://www.w3.org/1999/xlink">
	<defs/>
	<path d="M 0.0,0.0 L 128.0,0.0 L 128.0,128.0 L 0.0,128.0 L 0.0,0.0" fill="#FDFDFD"/>
	<path d="M 49.0,9.0 L 55.0,9.0 L 61.0,13.0 L 64.0,17.0 L 64.0,35.0 L 74.0,36.0 L 96.0,41.0 L 101.0,44.0 L 104.0,49.0 L 104.0,120.0 L 40.0,120.0 L 39.0,97.0 L 20.0,78.0 L 13.0,70.0 L 13.0,62.0 L 18.0,57.0 L 20.0,56.0 L 27.0,56.0 L 34.0,59.0 L 40.0,63.0 L 40.0,18.0 L 44.0,12.0 L 49.0,9.0" fill="#090909"/>
	<path d="M 50.0,17.0 L 55.0,18.0 L 56.0,19.0 L 56.0,41.0 L 67.0,43.0 L 92.0,48.0 L 96.0,51.0 L 96.0,92.0 L 45.0,92.0 L 38.0,84.0 L 21.0,67.0 L 21.0,64.0 L 29.0,65.0 L 33.0,69.0 L 48.0,73.0 L 48.0,19.0 L 50.0,17.0" fill="#F9F9F9"/>
	<path d="M 48.0,100.0 L 96.0,100.0 L 96.0,112.0 L 48.0,112.0 L 48.0,100.0" fill="#F3F3F3"/>
</svg>
