<?xml version="1.0" ?>
<svg baseProfile="full" height="600px" version="1.1" viewBox="-16.08 -16.08 192.16 192.16" width="600px" xmlns="http://www.w3.org/2000/svg" xmlns:ev="http://www.w3.org/2001/xml-events" xmlns:xlink="http://www.w3.org/1999/xlink">
	<defs/>
	<path d="M 0.0,0.0 L 160.0,0.0 L 160.0,160.0 L 0.0,160.0 L 0.0,0.0" fill="#FEFDFC"/>
	<path d="M 60.0,23.0 L 68.0,23.0 L 74.0,27.0 L 76.0,31.0 L 77.0,66.0 L 80.0,64.0 L 87.0,64.0 L 95.0,69.0 L 95.0,67.0 L 100.0,64.0 L 107.0,64.0 L 113.0,68.0 L 114.0,71.0 L 120.0,68.0 L 127.0,68.0 L 133.0,72.0 L 135.0,75.0 L 135.0,141.0 L 131.0,150.0 L 124.0,156.0 L 117.0,159.0 L 74.0,159.0 L 66.0,156.0 L 56.0,147.0 L 19.0,110.0 L 17.0,106.0 L 17.0,97.0 L 21.0,91.0 L 26.0,88.0 L 35.0,88.0 L 41.0,92.0 L 51.0,102.0 L 52.0,32.0 L 55.0,27.0 L 60.0,23.0" fill="#FDECA0"/>
	<path d="M 60.0,23.0 L 68.0,23.0 L 74.0,27.0 L 76.0,31.0 L 77.0,66.0 L 80.0,64.0 L 87.0,64.0 L 95.0,69.0 L 95.0,67.0 L 100.0,64.0 L 107.0,64.0 L 113.0,68.0 L 114.0,71.0 L 120.0,68.0 L 127.0,68.0 L 133.0,72.0 L 135.0,75.0 L 135.0,141.0 L 131.0,150.0 L 124.0,156.0 L 117.0,159.0 L 74.0,159.0 L 66.0,156.0 L 56.0,147.0 L 19.0,110.0 L 17.0,106.0 L 17.0,97.0 L 21.0,91.0 L 26.0,88.0 L 35.0,88.0 L 41.0,92.0 L 51.0,102.0 L 52.0,32.0 L 55.0,27.0 L 60.0,23.0 M 61.0,27.0 L 57.0,30.0 L 56.0,33.0 L 56.0,112.0 L 48.0,105.0 L 36.0,93.0 L 34.0,92.0 L 27.0,92.0 L 22.0,96.0 L 21.0,98.0 L 21.0,105.0 L 25.0,111.0 L 27.0,111.0 L 27.0,113.0 L 29.0,113.0 L 29.0,115.0 L 31.0,115.0 L 31.0,117.0 L 33.0,117.0 L 33.0,119.0 L 35.0,119.0 L 35.0,121.0 L 37.0,121.0 L 37.0,123.0 L 39.0,123.0 L 39.0,125.0 L 41.0,125.0 L 41.0,127.0 L 43.0,127.0 L 43.0,129.0 L 45.0,129.0 L 45.0,131.0 L 47.0,131.0 L 47.0,133.0 L 49.0,133.0 L 49.0,135.0 L 51.0,135.0 L 51.0,137.0 L 53.0,137.0 L 53.0,139.0 L 55.0,139.0 L 55.0,141.0 L 57.0,141.0 L 57.0,143.0 L 59.0,143.0 L 59.0,145.0 L 69.0,153.0 L 74.0,155.0 L 116.0,155.0 L 124.0,151.0 L 129.0,145.0 L 131.0,140.0 L 131.0,77.0 L 126.0,72.0 L 119.0,73.0 L 116.0,76.0 L 116.0,80.0 L 112.0,80.0 L 112.0,74.0 L 108.0,69.0 L 101.0,68.0 L 96.0,73.0 L 96.0,80.0 L 92.0,80.0 L 92.0,73.0 L 88.0,69.0 L 81.0,68.0 L 76.0,73.0 L 76.0,80.0 L 72.0,80.0 L 72.0,32.0 L 67.0,27.0 L 61.0,27.0" fill="#BEA050"/>
</svg>
