<?xml version="1.0" ?>
<svg baseProfile="full" height="600px" version="1.1" viewBox="-20.1 -20.1 240.2 240.2" width="600px" xmlns="http://www.w3.org/2000/svg" xmlns:ev="http://www.w3.org/2001/xml-events" xmlns:xlink="http://www.w3.org/1999/xlink">
	<defs/>
	<path d="M 0.0,0.0 L 200.0,0.0 L 200.0,200.0 L 0.0,200.0 L 0.0,0.0" fill="#FDFDFD"/>
	<path d="M 10.0,136.0 L 190.0,136.0 L 192.0,138.0 L 192.0,174.0 L 190.0,176.0 L 10.0,176.0 L 8.0,174.0 L 8.0,138.0 L 10.0,136.0" fill="#010101"/>
	<path d="M 10.0,80.0 L 190.0,80.0 L 192.0,82.0 L 192.0,118.0 L 190.0,120.0 L 10.0,120.0 L 8.0,118.0 L 8.0,82.0 L 10.0,80.0" fill="#010101"/>
	<path d="M 10.0,24.0 L 190.0,24.0 L 192.0,26.0 L 192.0,62.0 L 190.0,64.0 L 10.0,64.0 L 8.0,62.0 L 8.0,26.0 L 10.0,24.0" fill="#010101"/>
	<path d="M 32.0,32.0 L 184.0,32.0 L 184.0,56.0 L 32.0,56.0 L 32.0,32.0" fill="#FDFDFD"/>
	<path d="M 56.0,144.0 L 184.0,144.0 L 184.0,168.0 L 56.0,168.0 L 56.0,144.0" fill="#FDFDFD"/>
	<path d="M 80.0,88.0 L 184.0,88.0 L 184.0,112.0 L 80.0,112.0 L 80.0,88.0" fill="#FDFDFD"/>
	<path d="M 20.0,88.0 L 36.0,88.0 L 38.0,91.0 L 43.0,90.0 L 44.0,88.0 L 60.0,88.0 L 62.0,91.0 L 67.0,90.0 L 68.0,88.0 L 72.0,88.0 L 72.0,112.0 L 68.0,112.0 L 66.0,109.0 L 61.0,110.0 L 60.0,112.0 L 44.0,112.0 L 42.0,109.0 L 37.0,110.0 L 36.0,112.0 L 20.0,112.0 L 16.0,108.0 L 16.0,92.0 L 20.0,88.0" fill="#FBFBFB"/>
	<path d="M 20.0,144.0 L 36.0,144.0 L 38.0,147.0 L 43.0,146.0 L 44.0,144.0 L 48.0,144.0 L 48.0,168.0 L 44.0,168.0 L 42.0,165.0 L 37.0,166.0 L 36.0,168.0 L 20.0,168.0 L 16.0,164.0 L 16.0,148.0 L 20.0,144.0" fill="#FCFCFC"/>
	<path d="M 20.0,32.0 L 24.0,32.0 L 24.0,56.0 L 20.0,56.0 L 16.0,52.0 L 16.0,36.0 L 20.0,32.0" fill="#FCFCFC"/>
	<path d="M 26.0,152.0 L 31.0,153.0 L 32.0,158.0 L 30.0,160.0 L 25.0,159.0 L 24.0,154.0 L 26.0,152.0" fill="#0C0C0C"/>
	<path d="M 50.0,96.0 L 55.0,97.0 L 56.0,102.0 L 54.0,104.0 L 49.0,103.0 L 48.0,98.0 L 50.0,96.0" fill="#0C0C0C"/>
	<path d="M 26.0,96.0 L 31.0,97.0 L 32.0,102.0 L 30.0,104.0 L 25.0,103.0 L 24.0,98.0 L 26.0,96.0" fill="#0C0C0C"/>
</svg>
