<?xml version="1.0" ?>
<svg baseProfile="full" height="600px" version="1.1" viewBox="-9.648000000000001 -9.648000000000001 115.296 115.296" width="600px" xmlns="http://www.w3.org/2000/svg" xmlns:ev="http://www.w3.org/2001/xml-events" xmlns:xlink="http://www.w3.org/1999/xlink">
	<defs/>
	<path d="M 0.0,0.0 L 96.0,0.0 L 96.0,96.0 L 0.0,96.0 L 0.0,0.0" fill="#FDFDFD"/>
	<path d="M 12.0,24.0 L 72.0,24.0 L 72.0,36.0 L 79.0,36.0 L 85.0,39.0 L 88.0,44.0 L 88.0,52.0 L 85.0,57.0 L 79.0,60.0 L 70.0,60.0 L 64.0,68.0 L 20.0,68.0 L 14.0,60.0 L 12.0,53.0 L 12.0,24.0" fill="#010101"/>
	<path d="M 24.0,76.0 L 60.0,76.0 L 65.0,84.0 L 66.0,88.0 L 18.0,88.0 L 22.0,78.0 L 24.0,76.0" fill="#020202"/>
	<path d="M 32.0,4.0 L 40.0,4.0 L 40.0,16.0 L 32.0,16.0 L 32.0,4.0" fill="#000000"/>
	<path d="M 48.0,8.0 L 56.0,8.0 L 56.0,16.0 L 48.0,16.0 L 48.0,8.0" fill="#000000"/>
	<path d="M 74.0,44.0 L 79.0,45.0 L 80.0,50.0 L 78.0,52.0 L 73.0,51.0 L 72.0,46.0 L 74.0,44.0" fill="#EAEAEA"/>
</svg>
