<?xml version="1.0" ?>
<svg baseProfile="full" height="600px" version="1.1" viewBox="-9.648000000000001 -9.648000000000001 115.296 115.296" width="600px" xmlns="http://www.w3.org/2000/svg" xmlns:ev="http://www.w3.org/2001/xml-events" xmlns:xlink="http://www.w3.org/1999/xlink">
	<defs/>
	<path d="M 0.0,0.0 L 96.0,0.0 L 96.0,96.0 L 0.0,96.0 L 0.0,0.0" fill="#FAFAFA"/>
	<path d="M 44.0,23.0 L 76.0,23.0 L 76.0,56.0 L 70.0,66.0 L 69.0,67.0 L 25.0,68.0 L 20.0,62.0 L 20.0,60.0 L 12.0,60.0 L 7.0,54.0 L 7.0,42.0 L 11.0,37.0 L 16.0,36.0 L 16.0,24.0 L 44.0,23.0" fill="#030303"/>
	<path d="M 49.0,75.0 L 66.0,75.0 L 71.0,84.0 L 71.0,87.0 L 40.0,88.0 L 24.0,88.0 L 27.0,79.0 L 29.0,76.0 L 49.0,75.0" fill="#060606"/>
</svg>
