<?xml version="1.0" ?>
<svg baseProfile="full" height="600px" version="1.1" viewBox="-20.1 -20.1 240.2 240.2" width="600px" xmlns="http://www.w3.org/2000/svg" xmlns:ev="http://www.w3.org/2001/xml-events" xmlns:xlink="http://www.w3.org/1999/xlink">
	<defs/>
	<path d="M 0.0,0.0 L 200.0,0.0 L 200.0,200.0 L 0.0,200.0 L 0.0,0.0" fill="#FDFDFD"/>
	<path d="M 46.0,68.0 L 162.0,68.0 L 164.0,70.0 L 164.0,94.0 L 169.0,92.0 L 179.0,92.0 L 187.0,97.0 L 191.0,102.0 L 192.0,105.0 L 192.0,114.0 L 190.0,123.0 L 184.0,132.0 L 176.0,138.0 L 157.0,148.0 L 154.0,151.0 L 147.0,171.0 L 139.0,186.0 L 131.0,196.0 L 125.0,200.0 L 83.0,200.0 L 75.0,194.0 L 67.0,184.0 L 59.0,168.0 L 52.0,147.0 L 48.0,127.0 L 45.0,104.0 L 44.0,85.0 L 44.0,70.0 L 46.0,68.0" fill="#FBFBFB"/>
	<path d="M 46.0,68.0 L 162.0,68.0 L 164.0,70.0 L 164.0,94.0 L 169.0,92.0 L 179.0,92.0 L 187.0,97.0 L 191.0,102.0 L 192.0,105.0 L 192.0,114.0 L 190.0,123.0 L 184.0,132.0 L 176.0,138.0 L 157.0,148.0 L 154.0,151.0 L 147.0,171.0 L 139.0,186.0 L 131.0,196.0 L 125.0,200.0 L 83.0,200.0 L 75.0,194.0 L 67.0,184.0 L 59.0,168.0 L 52.0,147.0 L 48.0,127.0 L 45.0,104.0 L 44.0,85.0 L 44.0,70.0 L 46.0,68.0 M 52.0,76.0 L 52.0,92.0 L 54.0,114.0 L 59.0,141.0 L 65.0,160.0 L 71.0,175.0 L 80.0,188.0 L 85.0,192.0 L 123.0,192.0 L 128.0,187.0 L 134.0,179.0 L 142.0,161.0 L 149.0,136.0 L 154.0,108.0 L 156.0,91.0 L 156.0,76.0 L 106.0,76.0 L 104.0,83.0 L 101.0,102.0 L 101.0,107.0 L 110.0,110.0 L 114.0,112.0 L 116.0,116.0 L 115.0,126.0 L 110.0,146.0 L 105.0,150.0 L 97.0,150.0 L 76.0,145.0 L 71.0,141.0 L 70.0,133.0 L 76.0,109.0 L 80.0,105.0 L 93.0,105.0 L 97.0,82.0 L 97.0,76.0 L 52.0,76.0" fill="#060606"/>
	<path d="M 83.0,112.0 L 92.0,113.0 L 108.0,117.0 L 109.0,120.0 L 104.0,142.0 L 100.0,143.0 L 78.0,138.0 L 77.0,134.0 L 82.0,113.0 L 83.0,112.0" fill="#F8F8F8"/>
	<path d="M 170.0,100.0 L 177.0,100.0 L 182.0,103.0 L 184.0,106.0 L 184.0,117.0 L 180.0,125.0 L 170.0,132.0 L 157.0,138.0 L 158.0,129.0 L 161.0,108.0 L 165.0,103.0 L 170.0,100.0" fill="#F7F7F7"/>
	<path d="M 126.0,17.0 L 131.0,17.0 L 132.0,23.0 L 130.0,25.0 L 125.0,24.0 L 124.0,19.0 L 126.0,17.0" fill="#080808"/>
</svg>
