<?xml version="1.0" ?>
<svg baseProfile="full" height="600px" version="1.1" viewBox="-19.296000000000003 -19.296000000000003 230.592 230.592" width="600px" xmlns="http://www.w3.org/2000/svg" xmlns:ev="http://www.w3.org/2001/xml-events" xmlns:xlink="http://www.w3.org/1999/xlink">
	<defs/>
	<path d="M 0.0,0.0 L 192.0,0.0 L 192.0,192.0 L 0.0,192.0 L 0.0,0.0" fill="#FDFDFD"/>
	<path d="M 135.0,132.0 L 153.0,132.0 L 166.0,137.0 L 177.0,145.0 L 183.0,153.0 L 184.0,155.0 L 184.0,168.0 L 104.0,168.0 L 104.0,154.0 L 112.0,144.0 L 122.0,137.0 L 131.0,133.0 L 135.0,132.0" fill="#627E8C"/>
	<path d="M 39.0,132.0 L 57.0,132.0 L 70.0,137.0 L 81.0,145.0 L 87.0,153.0 L 88.0,155.0 L 88.0,168.0 L 8.0,168.0 L 8.0,154.0 L 16.0,144.0 L 26.0,137.0 L 35.0,133.0 L 39.0,132.0" fill="#627E8C"/>
	<path d="M 140.0,84.0 L 149.0,84.0 L 157.0,87.0 L 163.0,94.0 L 165.0,98.0 L 165.0,110.0 L 160.0,118.0 L 155.0,122.0 L 150.0,124.0 L 140.0,124.0 L 134.0,121.0 L 129.0,116.0 L 125.0,108.0 L 125.0,99.0 L 130.0,90.0 L 137.0,85.0 L 140.0,84.0" fill="#FFB850"/>
	<path d="M 42.0,84.0 L 51.0,84.0 L 58.0,87.0 L 63.0,92.0 L 66.0,97.0 L 67.0,99.0 L 67.0,109.0 L 61.0,119.0 L 55.0,123.0 L 52.0,124.0 L 41.0,124.0 L 33.0,119.0 L 29.0,114.0 L 27.0,110.0 L 27.0,98.0 L 32.0,90.0 L 37.0,86.0 L 42.0,84.0" fill="#FFB850"/>
</svg>
