<?xml version="1.0" ?>
<svg baseProfile="full" height="600px" version="1.1" viewBox="-19.296000000000003 -19.296000000000003 230.592 230.592" width="600px" xmlns="http://www.w3.org/2000/svg" xmlns:ev="http://www.w3.org/2001/xml-events" xmlns:xlink="http://www.w3.org/1999/xlink">
	<defs/>
	<path d="M 0.0,0.0 L 192.0,0.0 L 192.0,192.0 L 0.0,192.0 L 0.0,0.0" fill="#FDFDFD"/>
	<path d="M 94.0,23.0 L 104.0,23.0 L 114.0,28.0 L 122.0,37.0 L 124.0,42.0 L 124.0,55.0 L 120.0,65.0 L 111.0,73.0 L 108.0,73.0 L 108.0,83.0 L 105.0,88.0 L 101.0,89.0 L 100.0,92.0 L 93.0,92.0 L 88.0,87.0 L 86.0,85.0 L 85.0,73.0 L 76.0,65.0 L 72.0,55.0 L 72.0,42.0 L 77.0,33.0 L 85.0,26.0 L 94.0,23.0" fill="#FAC030"/>
	<path d="M 135.0,132.0 L 153.0,132.0 L 166.0,137.0 L 177.0,145.0 L 183.0,153.0 L 184.0,155.0 L 184.0,168.0 L 104.0,168.0 L 104.0,154.0 L 112.0,144.0 L 122.0,137.0 L 131.0,133.0 L 135.0,132.0" fill="#627E8C"/>
	<path d="M 39.0,132.0 L 57.0,132.0 L 70.0,137.0 L 81.0,145.0 L 87.0,153.0 L 88.0,155.0 L 88.0,168.0 L 8.0,168.0 L 8.0,154.0 L 16.0,144.0 L 26.0,137.0 L 35.0,133.0 L 39.0,132.0" fill="#627E8C"/>
	<path d="M 142.0,84.0 L 151.0,84.0 L 160.0,88.0 L 166.0,96.0 L 167.0,100.0 L 167.0,109.0 L 163.0,117.0 L 155.0,123.0 L 152.0,124.0 L 143.0,124.0 L 136.0,121.0 L 131.0,117.0 L 128.0,112.0 L 127.0,108.0 L 127.0,98.0 L 132.0,90.0 L 139.0,85.0 L 142.0,84.0" fill="#FFB850"/>
	<path d="M 40.0,84.0 L 49.0,84.0 L 58.0,88.0 L 64.0,96.0 L 65.0,98.0 L 65.0,109.0 L 61.0,117.0 L 53.0,123.0 L 50.0,124.0 L 41.0,124.0 L 34.0,121.0 L 29.0,117.0 L 25.0,108.0 L 25.0,99.0 L 29.0,91.0 L 37.0,85.0 L 40.0,84.0" fill="#FFB850"/>
	<path d="M 94.0,23.0 L 104.0,23.0 L 114.0,28.0 L 122.0,37.0 L 124.0,42.0 L 124.0,55.0 L 120.0,65.0 L 111.0,73.0 L 108.0,73.0 L 108.0,83.0 L 105.0,88.0 L 101.0,89.0 L 100.0,92.0 L 93.0,92.0 L 88.0,87.0 L 86.0,85.0 L 85.0,73.0 L 76.0,65.0 L 72.0,55.0 L 72.0,42.0 L 77.0,33.0 L 85.0,26.0 L 94.0,23.0 M 92.0,28.0 L 82.0,34.0 L 77.0,43.0 L 77.0,55.0 L 80.0,62.0 L 85.0,67.0 L 86.0,71.0 L 108.0,71.0 L 115.0,63.0 L 118.0,58.0 L 119.0,56.0 L 119.0,42.0 L 115.0,36.0 L 108.0,30.0 L 103.0,28.0 L 92.0,28.0" fill="#FEF39B"/>
	<path d="M 86.0,71.0 L 108.0,71.0 L 108.0,83.0 L 105.0,88.0 L 101.0,89.0 L 100.0,92.0 L 93.0,92.0 L 88.0,87.0 L 86.0,85.0 L 86.0,71.0" fill="#5C6ABE"/>
	<path d="M 90.0,43.0 L 96.0,48.0 L 97.0,50.0 L 101.0,48.0 L 105.0,44.0 L 109.0,46.0 L 110.0,50.0 L 103.0,57.0 L 101.0,57.0 L 101.0,71.0 L 94.0,71.0 L 93.0,57.0 L 86.0,49.0 L 88.0,45.0 L 90.0,43.0" fill="#FDFBF7"/>
	<path d="M 95.0,83.0 L 107.0,83.0 L 105.0,88.0 L 101.0,89.0 L 100.0,92.0 L 93.0,92.0 L 88.0,87.0 L 87.0,84.0 L 95.0,83.0" fill="#2F3C97"/>
	<path d="M 86.0,71.0 L 108.0,71.0 L 107.0,76.0 L 86.0,77.0 L 86.0,71.0" fill="#303B92"/>
</svg>
