<?xml version="1.0" ?>
<svg baseProfile="full" height="600px" version="1.1" viewBox="-19.296000000000003 -19.296000000000003 230.592 230.592" width="600px" xmlns="http://www.w3.org/2000/svg" xmlns:ev="http://www.w3.org/2001/xml-events" xmlns:xlink="http://www.w3.org/1999/xlink">
	<defs/>
	<path d="M 0.0,0.0 L 192.0,0.0 L 192.0,192.0 L 0.0,192.0 L 0.0,0.0" fill="#FDFDFD"/>
	<path d="M 135.0,132.0 L 153.0,132.0 L 166.0,137.0 L 177.0,145.0 L 183.0,153.0 L 184.0,155.0 L 184.0,168.0 L 104.0,168.0 L 104.0,154.0 L 112.0,144.0 L 122.0,137.0 L 131.0,133.0 L 135.0,132.0" fill="#627E8C"/>
	<path d="M 39.0,132.0 L 57.0,132.0 L 70.0,137.0 L 81.0,145.0 L 87.0,153.0 L 88.0,155.0 L 88.0,168.0 L 8.0,168.0 L 8.0,154.0 L 16.0,144.0 L 26.0,137.0 L 35.0,133.0 L 39.0,132.0" fill="#627E8C"/>
	<path d="M 39.0,84.0 L 49.0,84.0 L 57.0,88.0 L 62.0,94.0 L 64.0,98.0 L 64.0,110.0 L 59.0,118.0 L 54.0,122.0 L 49.0,124.0 L 39.0,124.0 L 33.0,121.0 L 28.0,116.0 L 24.0,109.0 L 24.0,99.0 L 27.0,93.0 L 32.0,88.0 L 36.0,85.0 L 39.0,84.0" fill="#FFB850"/>
	<path d="M 142.0,84.0 L 153.0,84.0 L 163.0,90.0 L 168.0,99.0 L 168.0,108.0 L 163.0,118.0 L 158.0,122.0 L 152.0,124.0 L 142.0,124.0 L 134.0,119.0 L 130.0,114.0 L 128.0,109.0 L 128.0,98.0 L 133.0,90.0 L 138.0,86.0 L 142.0,84.0" fill="#FFB850"/>
	<path d="M 91.0,89.0 L 95.0,90.0 L 96.0,96.0 L 91.0,94.0 L 90.0,90.0 L 91.0,89.0" fill="#D6B97B"/>
</svg>
