<?xml version="1.0" ?>
<svg baseProfile="full" height="600px" version="1.1" viewBox="-19.296000000000003 -19.296000000000003 230.592 230.592" width="600px" xmlns="http://www.w3.org/2000/svg" xmlns:ev="http://www.w3.org/2001/xml-events" xmlns:xlink="http://www.w3.org/1999/xlink">
	<defs/>
	<path d="M 0.0,0.0 L 192.0,0.0 L 192.0,192.0 L 0.0,192.0 L 0.0,0.0" fill="#2AB6F6"/>
	<path d="M 0.0,0.0 L 192.0,0.0 L 192.0,192.0 L 0.0,192.0 L 0.0,0.0 M 88.0,16.0 L 79.0,17.0 L 64.0,22.0 L 50.0,30.0 L 39.0,39.0 L 29.0,51.0 L 21.0,67.0 L 17.0,79.0 L 16.0,88.0 L 16.0,105.0 L 18.0,117.0 L 24.0,132.0 L 33.0,146.0 L 42.0,156.0 L 53.0,164.0 L 69.0,172.0 L 79.0,175.0 L 86.0,176.0 L 105.0,176.0 L 122.0,172.0 L 134.0,167.0 L 145.0,160.0 L 156.0,150.0 L 164.0,139.0 L 171.0,125.0 L 175.0,112.0 L 176.0,106.0 L 176.0,86.0 L 173.0,72.0 L 168.0,60.0 L 162.0,50.0 L 153.0,39.0 L 141.0,29.0 L 125.0,21.0 L 112.0,17.0 L 105.0,16.0 L 88.0,16.0" fill="#FCFDFD"/>
	<path d="M 95.0,77.0 L 134.0,77.0 L 135.0,81.0 L 124.0,99.0 L 109.0,123.0 L 102.0,133.0 L 97.0,133.0 L 91.0,124.0 L 86.0,115.0 L 77.0,118.0 L 71.0,120.0 L 70.0,119.0 L 69.0,92.0 L 58.0,84.0 L 56.0,82.0 L 57.0,78.0 L 95.0,77.0" fill="#FBFDFD"/>
	<path d="M 113.0,85.0 L 119.0,85.0 L 119.0,88.0 L 98.0,96.0 L 87.0,101.0 L 81.0,102.0 L 86.0,114.0 L 73.0,120.0 L 70.0,119.0 L 70.0,93.0 L 106.0,86.0 L 113.0,85.0" fill="#CCD8DE"/>
	<path d="M 79.0,103.0 L 83.0,107.0 L 86.0,114.0 L 73.0,120.0 L 70.0,119.0 L 78.0,105.0 L 79.0,103.0" fill="#ACBFC9"/>
</svg>
