<?xml version="1.0" ?>
<svg baseProfile="full" height="600px" version="1.1" viewBox="-19.296000000000003 -19.296000000000003 230.592 230.592" width="600px" xmlns="http://www.w3.org/2000/svg" xmlns:ev="http://www.w3.org/2001/xml-events" xmlns:xlink="http://www.w3.org/1999/xlink">
	<defs/>
	<path d="M 0.0,0.0 L 192.0,0.0 L 192.0,192.0 L 0.0,192.0 L 0.0,0.0" fill="#2AB6F6"/>
	<path d="M 0.0,0.0 L 192.0,0.0 L 192.0,192.0 L 0.0,192.0 L 0.0,0.0 M 88.0,16.0 L 79.0,17.0 L 64.0,22.0 L 50.0,30.0 L 39.0,39.0 L 29.0,51.0 L 21.0,67.0 L 17.0,79.0 L 16.0,88.0 L 16.0,105.0 L 18.0,117.0 L 24.0,132.0 L 30.0,142.0 L 39.0,153.0 L 51.0,163.0 L 66.0,171.0 L 79.0,175.0 L 86.0,176.0 L 106.0,176.0 L 122.0,172.0 L 134.0,167.0 L 145.0,160.0 L 156.0,150.0 L 164.0,139.0 L 171.0,125.0 L 175.0,112.0 L 176.0,106.0 L 176.0,86.0 L 173.0,72.0 L 168.0,60.0 L 162.0,50.0 L 151.0,37.0 L 139.0,28.0 L 125.0,21.0 L 112.0,17.0 L 105.0,16.0 L 88.0,16.0" fill="#FCFDFE"/>
	<path d="M 131.0,56.0 L 136.0,57.0 L 135.0,67.0 L 129.0,96.0 L 123.0,129.0 L 120.0,139.0 L 113.0,140.0 L 99.0,128.0 L 94.0,124.0 L 90.0,125.0 L 78.0,136.0 L 75.0,136.0 L 64.0,105.0 L 54.0,102.0 L 43.0,99.0 L 40.0,96.0 L 41.0,92.0 L 49.0,88.0 L 87.0,73.0 L 127.0,57.0 L 131.0,56.0" fill="#FBFDFD"/>
	<path d="M 116.0,72.0 L 120.0,73.0 L 118.0,77.0 L 109.0,86.0 L 101.0,93.0 L 84.0,109.0 L 81.0,112.0 L 93.0,122.0 L 88.0,127.0 L 78.0,136.0 L 75.0,136.0 L 64.0,105.0 L 61.0,103.0 L 70.0,100.0 L 98.0,83.0 L 115.0,73.0 L 116.0,72.0" fill="#CFD9DD"/>
	<path d="M 79.0,112.0 L 83.0,114.0 L 93.0,122.0 L 88.0,127.0 L 78.0,136.0 L 75.0,135.0 L 79.0,112.0" fill="#ACBFC9"/>
</svg>
