<?xml version="1.0" ?>
<svg baseProfile="full" height="600px" version="1.1" viewBox="-19.296000000000003 -19.296000000000003 230.592 230.592" width="600px" xmlns="http://www.w3.org/2000/svg" xmlns:ev="http://www.w3.org/2001/xml-events" xmlns:xlink="http://www.w3.org/1999/xlink">
	<defs/>
	<path d="M 0.0,0.0 L 192.0,0.0 L 192.0,192.0 L 0.0,192.0 L 0.0,0.0" fill="#2AB6F6"/>
	<path d="M 0.0,0.0 L 192.0,0.0 L 192.0,192.0 L 0.0,192.0 L 0.0,0.0 M 86.0,16.0 L 72.0,19.0 L 56.0,26.0 L 45.0,34.0 L 36.0,42.0 L 28.0,53.0 L 20.0,69.0 L 17.0,79.0 L 16.0,88.0 L 16.0,105.0 L 18.0,117.0 L 24.0,132.0 L 30.0,142.0 L 39.0,153.0 L 51.0,163.0 L 66.0,171.0 L 79.0,175.0 L 86.0,176.0 L 104.0,176.0 L 119.0,173.0 L 132.0,168.0 L 142.0,162.0 L 153.0,153.0 L 163.0,141.0 L 171.0,125.0 L 175.0,112.0 L 176.0,106.0 L 176.0,86.0 L 173.0,72.0 L 168.0,60.0 L 162.0,50.0 L 151.0,37.0 L 139.0,28.0 L 125.0,21.0 L 112.0,17.0 L 105.0,16.0 L 86.0,16.0" fill="#FCFDFD"/>
	<path d="M 133.0,67.0 L 143.0,67.0 L 145.0,71.0 L 110.0,141.0 L 107.0,144.0 L 102.0,144.0 L 96.0,137.0 L 88.0,125.0 L 84.0,121.0 L 70.0,129.0 L 65.0,128.0 L 64.0,120.0 L 63.0,99.0 L 62.0,95.0 L 44.0,84.0 L 42.0,82.0 L 43.0,78.0 L 44.0,77.0 L 77.0,73.0 L 118.0,69.0 L 133.0,67.0" fill="#FAFCFD"/>
	<path d="M 121.0,79.0 L 125.0,79.0 L 124.0,83.0 L 89.0,101.0 L 79.0,106.0 L 77.0,106.0 L 81.0,113.0 L 85.0,120.0 L 70.0,129.0 L 65.0,128.0 L 64.0,120.0 L 63.0,95.0 L 72.0,92.0 L 102.0,84.0 L 121.0,79.0" fill="#CED8DD"/>
	<path d="M 76.0,107.0 L 80.0,111.0 L 85.0,120.0 L 70.0,129.0 L 65.0,128.0 L 67.0,127.0 L 69.0,121.0 L 76.0,107.0" fill="#ADBFC8"/>
</svg>
