<?xml version="1.0" ?>
<svg baseProfile="full" height="600px" version="1.1" viewBox="-19.296000000000003 -19.296000000000003 230.592 230.592" width="600px" xmlns="http://www.w3.org/2000/svg" xmlns:ev="http://www.w3.org/2001/xml-events" xmlns:xlink="http://www.w3.org/1999/xlink">
	<defs/>
	<path d="M 0.0,0.0 L 192.0,0.0 L 192.0,192.0 L 0.0,192.0 L 0.0,0.0" fill="#2BB7F6"/>
	<path d="M 0.0,0.0 L 192.0,0.0 L 192.0,192.0 L 0.0,192.0 L 0.0,0.0 M 82.0,10.0 L 67.0,14.0 L 50.0,22.0 L 36.0,33.0 L 27.0,43.0 L 20.0,54.0 L 14.0,67.0 L 10.0,82.0 L 10.0,110.0 L 14.0,125.0 L 22.0,141.0 L 28.0,150.0 L 38.0,161.0 L 49.0,169.0 L 64.0,177.0 L 78.0,181.0 L 83.0,182.0 L 110.0,182.0 L 127.0,177.0 L 143.0,169.0 L 152.0,162.0 L 161.0,154.0 L 169.0,143.0 L 177.0,127.0 L 182.0,110.0 L 182.0,83.0 L 178.0,67.0 L 170.0,51.0 L 164.0,42.0 L 154.0,31.0 L 143.0,23.0 L 127.0,15.0 L 114.0,11.0 L 107.0,10.0 L 82.0,10.0" fill="#FCFDFD"/>
	<path d="M 136.0,49.0 L 143.0,49.0 L 143.0,56.0 L 136.0,91.0 L 129.0,128.0 L 125.0,146.0 L 122.0,148.0 L 116.0,148.0 L 101.0,135.0 L 90.0,127.0 L 89.0,130.0 L 81.0,137.0 L 75.0,143.0 L 71.0,142.0 L 58.0,106.0 L 35.0,100.0 L 31.0,98.0 L 30.0,92.0 L 40.0,87.0 L 70.0,75.0 L 113.0,58.0 L 136.0,49.0" fill="#FBFCFD"/>
	<path d="M 120.0,68.0 L 124.0,68.0 L 123.0,73.0 L 108.0,87.0 L 98.0,96.0 L 82.0,111.0 L 78.0,115.0 L 91.0,126.0 L 89.0,130.0 L 81.0,137.0 L 75.0,143.0 L 71.0,142.0 L 58.0,106.0 L 63.0,102.0 L 95.0,83.0 L 110.0,74.0 L 120.0,68.0" fill="#CFD8DD"/>
	<path d="M 77.0,115.0 L 85.0,121.0 L 91.0,126.0 L 89.0,130.0 L 81.0,137.0 L 75.0,143.0 L 73.0,143.0 L 73.0,135.0 L 76.0,116.0 L 77.0,115.0" fill="#AEBFC8"/>
</svg>
