<?xml version="1.0" ?>
<svg baseProfile="full" height="600px" version="1.1" viewBox="-12.06 -12.06 144.12 144.12" width="600px" xmlns="http://www.w3.org/2000/svg" xmlns:ev="http://www.w3.org/2001/xml-events" xmlns:xlink="http://www.w3.org/1999/xlink">
	<defs/>
	<path d="M 0.0,0.0 L 120.0,0.0 L 120.0,120.0 L 0.0,120.0 L 0.0,0.0" fill="#FDFDFD"/>
	<path d="M 45.0,12.0 L 75.0,12.0 L 80.0,17.0 L 80.0,24.0 L 86.0,24.0 L 88.0,26.0 L 87.0,31.0 L 86.0,32.0 L 80.0,32.0 L 80.0,40.0 L 86.0,40.0 L 88.0,42.0 L 87.0,47.0 L 86.0,48.0 L 80.0,48.0 L 83.0,53.0 L 90.0,63.0 L 92.0,69.0 L 92.0,80.0 L 89.0,91.0 L 82.0,100.0 L 75.0,105.0 L 64.0,108.0 L 53.0,108.0 L 44.0,104.0 L 36.0,98.0 L 30.0,88.0 L 28.0,81.0 L 28.0,69.0 L 32.0,60.0 L 38.0,52.0 L 39.0,51.0 L 40.0,17.0 L 45.0,12.0" fill="#F9F9F9"/>
	<path d="M 45.0,12.0 L 75.0,12.0 L 80.0,17.0 L 80.0,24.0 L 86.0,24.0 L 88.0,26.0 L 87.0,31.0 L 86.0,32.0 L 80.0,32.0 L 80.0,40.0 L 86.0,40.0 L 88.0,42.0 L 87.0,47.0 L 86.0,48.0 L 80.0,48.0 L 83.0,53.0 L 90.0,63.0 L 92.0,69.0 L 92.0,80.0 L 89.0,91.0 L 82.0,100.0 L 75.0,105.0 L 64.0,108.0 L 53.0,108.0 L 44.0,104.0 L 36.0,98.0 L 30.0,88.0 L 28.0,81.0 L 28.0,69.0 L 32.0,60.0 L 38.0,52.0 L 39.0,51.0 L 40.0,17.0 L 45.0,12.0 M 48.0,20.0 L 48.0,56.0 L 44.0,58.0 L 38.0,65.0 L 36.0,70.0 L 36.0,81.0 L 41.0,91.0 L 49.0,98.0 L 54.0,100.0 L 65.0,100.0 L 75.0,95.0 L 81.0,88.0 L 84.0,81.0 L 84.0,70.0 L 80.0,62.0 L 74.0,56.0 L 72.0,56.0 L 72.0,20.0 L 48.0,20.0" fill="#050505"/>
	<path d="M 56.0,53.0 L 64.0,53.0 L 64.0,61.0 L 69.0,62.0 L 75.0,69.0 L 76.0,71.0 L 76.0,80.0 L 73.0,86.0 L 67.0,91.0 L 65.0,92.0 L 55.0,92.0 L 49.0,88.0 L 45.0,83.0 L 44.0,81.0 L 44.0,71.0 L 48.0,65.0 L 53.0,61.0 L 56.0,61.0 L 56.0,53.0" fill="#040404"/>
</svg>
