<?xml version="1.0" ?>
<svg baseProfile="full" height="600px" version="1.1" viewBox="-12.864 -12.864 153.728 153.728" width="600px" xmlns="http://www.w3.org/2000/svg" xmlns:ev="http://www.w3.org/2001/xml-events" xmlns:xlink="http://www.w3.org/1999/xlink">
	<defs/>
	<path d="M 0.0,0.0 L 128.0,0.0 L 128.0,128.0 L 0.0,128.0 L 0.0,0.0" fill="#FDFDFD"/>
	<path d="M 48.0,16.0 L 88.0,16.0 L 88.0,24.0 L 80.0,24.0 L 80.0,32.0 L 88.0,32.0 L 88.0,40.0 L 80.0,40.0 L 80.0,48.0 L 88.0,48.0 L 88.0,56.0 L 80.0,56.0 L 82.0,63.0 L 89.0,71.0 L 92.0,78.0 L 92.0,90.0 L 88.0,99.0 L 81.0,107.0 L 73.0,111.0 L 70.0,112.0 L 57.0,112.0 L 47.0,107.0 L 39.0,98.0 L 36.0,89.0 L 36.0,78.0 L 41.0,68.0 L 47.0,62.0 L 48.0,16.0" fill="#040404"/>
	<path d="M 56.0,24.0 L 72.0,24.0 L 73.0,66.0 L 79.0,70.0 L 83.0,76.0 L 84.0,79.0 L 84.0,89.0 L 80.0,97.0 L 74.0,102.0 L 69.0,104.0 L 59.0,104.0 L 51.0,100.0 L 46.0,94.0 L 44.0,89.0 L 44.0,79.0 L 48.0,71.0 L 55.0,66.0 L 56.0,24.0" fill="#F7F7F7"/>
	<path d="M 60.0,56.0 L 68.0,56.0 L 68.0,73.0 L 72.0,75.0 L 76.0,80.0 L 76.0,87.0 L 73.0,93.0 L 67.0,96.0 L 60.0,96.0 L 55.0,93.0 L 52.0,87.0 L 52.0,80.0 L 58.0,73.0 L 60.0,73.0 L 60.0,56.0" fill="#030303"/>
</svg>
