<?xml version="1.0" ?>
<svg baseProfile="full" height="600px" version="1.1" viewBox="-12.06 -12.06 144.12 144.12" width="600px" xmlns="http://www.w3.org/2000/svg" xmlns:ev="http://www.w3.org/2001/xml-events" xmlns:xlink="http://www.w3.org/1999/xlink">
	<defs/>
	<path d="M 0.0,0.0 L 120.0,0.0 L 120.0,120.0 L 0.0,120.0 L 0.0,0.0" fill="#FCFCFC"/>
	<path d="M 63.0,11.0 L 71.0,11.0 L 76.0,15.0 L 77.0,22.0 L 83.0,22.0 L 85.0,24.0 L 84.0,29.0 L 83.0,30.0 L 78.0,30.0 L 78.0,38.0 L 85.0,38.0 L 86.0,39.0 L 86.0,45.0 L 79.0,46.0 L 82.0,51.0 L 89.0,59.0 L 92.0,65.0 L 93.0,69.0 L 93.0,83.0 L 89.0,93.0 L 81.0,102.0 L 71.0,107.0 L 68.0,108.0 L 56.0,108.0 L 47.0,105.0 L 39.0,99.0 L 33.0,92.0 L 29.0,81.0 L 29.0,71.0 L 33.0,60.0 L 38.0,54.0 L 38.0,41.0 L 37.0,30.0 L 37.0,17.0 L 42.0,13.0 L 63.0,11.0" fill="#F4F4F4"/>
	<path d="M 63.0,11.0 L 71.0,11.0 L 76.0,15.0 L 77.0,22.0 L 83.0,22.0 L 85.0,24.0 L 84.0,29.0 L 83.0,30.0 L 78.0,30.0 L 78.0,38.0 L 85.0,38.0 L 86.0,39.0 L 86.0,45.0 L 79.0,46.0 L 82.0,51.0 L 89.0,59.0 L 92.0,65.0 L 93.0,69.0 L 93.0,83.0 L 89.0,93.0 L 81.0,102.0 L 71.0,107.0 L 68.0,108.0 L 56.0,108.0 L 47.0,105.0 L 39.0,99.0 L 33.0,92.0 L 29.0,81.0 L 29.0,71.0 L 33.0,60.0 L 38.0,54.0 L 38.0,41.0 L 37.0,30.0 L 37.0,17.0 L 42.0,13.0 L 63.0,11.0 M 64.0,19.0 L 45.0,21.0 L 46.0,40.0 L 46.0,57.0 L 40.0,64.0 L 38.0,69.0 L 38.0,82.0 L 42.0,91.0 L 49.0,97.0 L 56.0,100.0 L 66.0,100.0 L 75.0,96.0 L 80.0,92.0 L 85.0,83.0 L 85.0,69.0 L 79.0,59.0 L 72.0,54.0 L 69.0,19.0 L 64.0,19.0" fill="#080808"/>
	<path d="M 53.0,25.0 L 61.0,25.0 L 65.0,60.0 L 73.0,64.0 L 77.0,70.0 L 77.0,81.0 L 74.0,86.0 L 68.0,91.0 L 66.0,92.0 L 57.0,92.0 L 49.0,87.0 L 46.0,82.0 L 46.0,70.0 L 50.0,64.0 L 54.0,61.0 L 56.0,61.0 L 53.0,32.0 L 53.0,25.0" fill="#050505"/>
</svg>
