<?xml version="1.0" ?>
<svg baseProfile="full" height="600px" version="1.1" viewBox="-12.864 -12.864 153.728 153.728" width="600px" xmlns="http://www.w3.org/2000/svg" xmlns:ev="http://www.w3.org/2001/xml-events" xmlns:xlink="http://www.w3.org/1999/xlink">
	<defs/>
	<path d="M 0.0,0.0 L 128.0,0.0 L 128.0,128.0 L 0.0,128.0 L 0.0,0.0" fill="#FDFDFD"/>
	<path d="M 74.0,15.0 L 87.0,15.0 L 87.0,24.0 L 79.0,24.0 L 79.0,31.0 L 87.0,31.0 L 87.0,40.0 L 80.0,40.0 L 80.0,47.0 L 88.0,47.0 L 88.0,55.0 L 80.0,55.0 L 80.0,62.0 L 84.0,64.0 L 90.0,71.0 L 93.0,79.0 L 93.0,89.0 L 89.0,99.0 L 83.0,106.0 L 73.0,111.0 L 69.0,112.0 L 58.0,112.0 L 48.0,107.0 L 41.0,100.0 L 37.0,91.0 L 37.0,77.0 L 41.0,69.0 L 45.0,64.0 L 47.0,63.0 L 47.0,48.0 L 46.0,16.0 L 74.0,15.0" fill="#0A0A0A"/>
	<path d="M 55.0,24.0 L 71.0,24.0 L 72.0,46.0 L 72.0,66.0 L 77.0,68.0 L 83.0,75.0 L 85.0,80.0 L 85.0,88.0 L 81.0,96.0 L 74.0,102.0 L 70.0,104.0 L 61.0,104.0 L 53.0,101.0 L 47.0,94.0 L 45.0,89.0 L 45.0,78.0 L 50.0,70.0 L 55.0,66.0 L 55.0,24.0" fill="#F0F0F0"/>
	<path d="M 59.0,28.0 L 67.0,28.0 L 68.0,53.0 L 68.0,73.0 L 73.0,75.0 L 77.0,81.0 L 77.0,87.0 L 73.0,93.0 L 68.0,96.0 L 61.0,96.0 L 55.0,92.0 L 53.0,88.0 L 53.0,79.0 L 57.0,74.0 L 59.0,73.0 L 59.0,28.0" fill="#040404"/>
</svg>
