<?xml version="1.0" ?>
<svg baseProfile="full" height="600px" version="1.1" viewBox="-16.08 -16.08 192.16 192.16" width="600px" xmlns="http://www.w3.org/2000/svg" xmlns:ev="http://www.w3.org/2001/xml-events" xmlns:xlink="http://www.w3.org/1999/xlink">
	<defs/>
	<path d="M 0.0,0.0 L 160.0,0.0 L 160.0,160.0 L 0.0,160.0 L 0.0,0.0" fill="#FDFDFD"/>
	<path d="M 76.0,4.0 L 85.0,4.0 L 92.0,7.0 L 97.0,12.0 L 100.0,17.0 L 101.0,19.0 L 101.0,100.0 L 108.0,108.0 L 111.0,115.0 L 111.0,133.0 L 106.0,143.0 L 98.0,151.0 L 86.0,156.0 L 72.0,156.0 L 63.0,152.0 L 55.0,146.0 L 49.0,136.0 L 47.0,130.0 L 47.0,118.0 L 51.0,108.0 L 58.0,99.0 L 60.0,99.0 L 60.0,44.0 L 61.0,18.0 L 66.0,10.0 L 73.0,5.0 L 76.0,4.0" fill="#C84A4A"/>
	<path d="M 66.0,69.0 L 90.0,69.0 L 96.0,70.0 L 96.0,76.0 L 76.0,76.0 L 76.0,80.0 L 96.0,80.0 L 96.0,92.0 L 76.0,92.0 L 76.0,96.0 L 96.0,96.0 L 98.0,103.0 L 104.0,110.0 L 107.0,117.0 L 107.0,130.0 L 103.0,140.0 L 96.0,147.0 L 88.0,151.0 L 85.0,152.0 L 73.0,152.0 L 63.0,147.0 L 58.0,143.0 L 53.0,135.0 L 52.0,132.0 L 52.0,117.0 L 55.0,109.0 L 61.0,102.0 L 63.0,101.0 L 64.0,70.0 L 66.0,69.0" fill="#F68D8D"/>
	<path d="M 77.0,8.0 L 84.0,8.0 L 92.0,12.0 L 97.0,20.0 L 97.0,28.0 L 77.0,28.0 L 77.0,32.0 L 97.0,32.0 L 97.0,44.0 L 76.0,44.0 L 76.0,48.0 L 96.0,48.0 L 96.0,60.0 L 76.0,60.0 L 76.0,64.0 L 96.0,64.0 L 96.0,66.0 L 65.0,65.0 L 65.0,19.0 L 69.0,13.0 L 74.0,9.0 L 77.0,8.0" fill="#DEE7EF"/>
	<path d="M 76.0,4.0 L 85.0,4.0 L 92.0,7.0 L 97.0,12.0 L 100.0,17.0 L 101.0,19.0 L 101.0,64.0 L 100.0,67.0 L 96.0,66.0 L 96.0,64.0 L 76.0,64.0 L 76.0,60.0 L 96.0,60.0 L 96.0,48.0 L 76.0,48.0 L 76.0,44.0 L 97.0,44.0 L 97.0,32.0 L 77.0,32.0 L 77.0,28.0 L 97.0,28.0 L 95.0,18.0 L 91.0,12.0 L 84.0,9.0 L 77.0,9.0 L 71.0,12.0 L 67.0,17.0 L 66.0,19.0 L 65.0,65.0 L 67.0,66.0 L 60.0,67.0 L 60.0,44.0 L 61.0,18.0 L 66.0,10.0 L 73.0,5.0 L 76.0,4.0" fill="#8193A3"/>
</svg>
