<?xml version="1.0" ?>
<svg baseProfile="full" height="600px" version="1.1" viewBox="-20.1 -20.1 240.2 240.2" width="600px" xmlns="http://www.w3.org/2000/svg" xmlns:ev="http://www.w3.org/2001/xml-events" xmlns:xlink="http://www.w3.org/1999/xlink">
	<defs/>
	<path d="M 0.0,0.0 L 200.0,0.0 L 200.0,200.0 L 0.0,200.0 L 0.0,0.0" fill="#FDFDFD"/>
	<path d="M 107.0,0.0 L 200.0,0.0 L 200.0,200.0 L 108.0,200.0 L 112.0,198.0 L 122.0,194.0 L 133.0,186.0 L 141.0,175.0 L 145.0,164.0 L 146.0,160.0 L 146.0,142.0 L 141.0,129.0 L 133.0,118.0 L 124.0,111.0 L 124.0,109.0 L 137.0,108.0 L 139.0,107.0 L 139.0,101.0 L 124.0,100.0 L 124.0,92.0 L 139.0,91.0 L 139.0,86.0 L 137.0,85.0 L 125.0,84.0 L 125.0,77.0 L 138.0,76.0 L 139.0,75.0 L 139.0,70.0 L 138.0,69.0 L 125.0,68.0 L 125.0,61.0 L 138.0,60.0 L 140.0,58.0 L 139.0,54.0 L 138.0,53.0 L 125.0,52.0 L 125.0,45.0 L 138.0,44.0 L 140.0,43.0 L 140.0,37.0 L 125.0,36.0 L 124.0,14.0 L 120.0,7.0 L 110.0,2.0 L 107.0,0.0" fill="#FDFDFD"/>
	<path d="M 94.0,0.0 L 107.0,0.0 L 117.0,4.0 L 122.0,9.0 L 125.0,14.0 L 125.0,36.0 L 138.0,36.0 L 141.0,39.0 L 140.0,44.0 L 138.0,45.0 L 125.0,45.0 L 125.0,52.0 L 138.0,52.0 L 141.0,55.0 L 140.0,59.0 L 138.0,61.0 L 125.0,61.0 L 125.0,68.0 L 138.0,68.0 L 140.0,70.0 L 140.0,75.0 L 138.0,77.0 L 125.0,77.0 L 125.0,84.0 L 137.0,84.0 L 140.0,86.0 L 140.0,91.0 L 139.0,92.0 L 124.0,92.0 L 124.0,100.0 L 137.0,100.0 L 140.0,103.0 L 139.0,108.0 L 137.0,109.0 L 124.0,109.0 L 129.0,114.0 L 135.0,119.0 L 142.0,129.0 L 147.0,142.0 L 147.0,160.0 L 143.0,173.0 L 137.0,182.0 L 132.0,188.0 L 122.0,195.0 L 108.0,200.0 L 94.0,200.0 L 81.0,197.0 L 70.0,191.0 L 61.0,182.0 L 55.0,172.0 L 52.0,164.0 L 51.0,158.0 L 51.0,144.0 L 55.0,132.0 L 61.0,122.0 L 69.0,114.0 L 75.0,110.0 L 76.0,79.0 L 77.0,15.0 L 81.0,8.0 L 88.0,2.0 L 94.0,0.0" fill="#FBFBFB"/>
	<path d="M 94.0,0.0 L 107.0,0.0 L 117.0,4.0 L 122.0,9.0 L 125.0,14.0 L 125.0,36.0 L 138.0,36.0 L 141.0,39.0 L 140.0,44.0 L 138.0,45.0 L 125.0,45.0 L 125.0,52.0 L 138.0,52.0 L 141.0,55.0 L 140.0,59.0 L 138.0,61.0 L 125.0,61.0 L 125.0,68.0 L 138.0,68.0 L 140.0,70.0 L 140.0,75.0 L 138.0,77.0 L 125.0,77.0 L 125.0,84.0 L 137.0,84.0 L 140.0,86.0 L 140.0,91.0 L 139.0,92.0 L 124.0,92.0 L 124.0,100.0 L 137.0,100.0 L 140.0,103.0 L 139.0,108.0 L 137.0,109.0 L 124.0,109.0 L 129.0,114.0 L 135.0,119.0 L 142.0,129.0 L 147.0,142.0 L 147.0,160.0 L 143.0,173.0 L 137.0,182.0 L 132.0,188.0 L 122.0,195.0 L 108.0,200.0 L 94.0,200.0 L 81.0,197.0 L 70.0,191.0 L 61.0,182.0 L 55.0,172.0 L 52.0,164.0 L 51.0,158.0 L 51.0,144.0 L 55.0,132.0 L 61.0,122.0 L 69.0,114.0 L 75.0,110.0 L 76.0,79.0 L 77.0,15.0 L 81.0,8.0 L 88.0,2.0 L 94.0,0.0 M 93.0,52.0 L 84.0,55.0 L 83.0,113.0 L 79.0,117.0 L 69.0,125.0 L 62.0,136.0 L 59.0,145.0 L 59.0,157.0 L 63.0,170.0 L 71.0,181.0 L 81.0,188.0 L 92.0,192.0 L 105.0,192.0 L 115.0,189.0 L 125.0,183.0 L 133.0,174.0 L 137.0,166.0 L 139.0,159.0 L 139.0,145.0 L 136.0,135.0 L 130.0,126.0 L 121.0,118.0 L 117.0,114.0 L 116.0,55.0 L 108.0,52.0 L 93.0,52.0" fill="#090909"/>
	<path d="M 95.0,8.0 L 104.0,8.0 L 113.0,11.0 L 117.0,15.0 L 117.0,47.0 L 108.0,45.0 L 92.0,45.0 L 85.0,46.0 L 85.0,16.0 L 90.0,10.0 L 95.0,8.0" fill="#FAFAFA"/>
</svg>
