<?xml version="1.0" ?>
<svg baseProfile="full" height="600px" version="1.1" viewBox="-16.08 -16.08 192.16 192.16" width="600px" xmlns="http://www.w3.org/2000/svg" xmlns:ev="http://www.w3.org/2001/xml-events" xmlns:xlink="http://www.w3.org/1999/xlink">
	<defs/>
	<path d="M 0.0,0.0 L 160.0,0.0 L 160.0,160.0 L 0.0,160.0 L 0.0,0.0" fill="#FDFDFD"/>
	<path d="M 76.0,4.0 L 85.0,4.0 L 93.0,8.0 L 99.0,16.0 L 100.0,19.0 L 101.0,99.0 L 108.0,107.0 L 112.0,117.0 L 112.0,131.0 L 108.0,141.0 L 100.0,150.0 L 90.0,155.0 L 87.0,156.0 L 73.0,156.0 L 63.0,152.0 L 54.0,144.0 L 49.0,134.0 L 48.0,131.0 L 48.0,117.0 L 52.0,107.0 L 59.0,99.0 L 60.0,20.0 L 63.0,13.0 L 67.0,8.0 L 72.0,5.0 L 76.0,4.0" fill="#F68D8D"/>
	<path d="M 77.0,8.0 L 84.0,8.0 L 91.0,12.0 L 95.0,17.0 L 96.0,20.0 L 96.0,28.0 L 76.0,28.0 L 76.0,32.0 L 96.0,32.0 L 96.0,44.0 L 76.0,44.0 L 76.0,48.0 L 96.0,48.0 L 96.0,60.0 L 76.0,60.0 L 76.0,64.0 L 96.0,64.0 L 96.0,76.0 L 76.0,76.0 L 76.0,80.0 L 96.0,80.0 L 96.0,92.0 L 76.0,92.0 L 76.0,94.0 L 64.0,94.0 L 64.0,19.0 L 68.0,13.0 L 73.0,9.0 L 77.0,8.0" fill="#DFE9F0"/>
	<path d="M 76.0,4.0 L 85.0,4.0 L 93.0,8.0 L 99.0,16.0 L 100.0,19.0 L 100.0,96.0 L 76.0,96.0 L 71.0,95.0 L 71.0,94.0 L 76.0,94.0 L 76.0,92.0 L 96.0,92.0 L 96.0,80.0 L 76.0,80.0 L 76.0,76.0 L 96.0,76.0 L 96.0,64.0 L 76.0,64.0 L 76.0,60.0 L 96.0,60.0 L 96.0,48.0 L 76.0,48.0 L 76.0,44.0 L 96.0,44.0 L 96.0,32.0 L 76.0,32.0 L 76.0,28.0 L 96.0,28.0 L 94.0,17.0 L 90.0,12.0 L 84.0,9.0 L 77.0,9.0 L 70.0,12.0 L 66.0,17.0 L 65.0,19.0 L 64.0,93.0 L 60.0,93.0 L 60.0,20.0 L 63.0,13.0 L 67.0,8.0 L 72.0,5.0 L 76.0,4.0" fill="#7A8C9D"/>
	<path d="M 60.0,93.0 L 76.0,95.0 L 100.0,96.0 L 103.0,101.0 L 109.0,109.0 L 112.0,117.0 L 112.0,131.0 L 108.0,141.0 L 100.0,150.0 L 90.0,155.0 L 87.0,156.0 L 73.0,156.0 L 63.0,152.0 L 54.0,144.0 L 49.0,134.0 L 48.0,131.0 L 48.0,117.0 L 52.0,107.0 L 59.0,99.0 L 60.0,93.0 M 64.0,98.0 L 61.0,103.0 L 55.0,110.0 L 52.0,119.0 L 52.0,128.0 L 55.0,137.0 L 59.0,143.0 L 65.0,148.0 L 74.0,152.0 L 85.0,152.0 L 95.0,148.0 L 102.0,142.0 L 107.0,132.0 L 108.0,129.0 L 108.0,118.0 L 104.0,109.0 L 97.0,101.0 L 96.0,98.0 L 64.0,98.0" fill="#C84C4C"/>
</svg>
