<?xml version="1.0" ?>
<svg baseProfile="full" height="600px" version="1.1" viewBox="-12.864 -12.864 153.728 153.728" width="600px" xmlns="http://www.w3.org/2000/svg" xmlns:ev="http://www.w3.org/2001/xml-events" xmlns:xlink="http://www.w3.org/1999/xlink">
	<defs/>
	<path d="M 0.0,0.0 L 128.0,0.0 L 128.0,128.0 L 0.0,128.0 L 0.0,0.0" fill="#FCFCFC"/>
	<path d="M 86.0,68.0 L 97.0,68.0 L 106.0,72.0 L 113.0,79.0 L 116.0,86.0 L 116.0,97.0 L 112.0,106.0 L 105.0,113.0 L 97.0,116.0 L 86.0,116.0 L 78.0,112.0 L 70.0,103.0 L 68.0,97.0 L 68.0,86.0 L 72.0,78.0 L 79.0,71.0 L 86.0,68.0" fill="#070707"/>
	<path d="M 30.0,68.0 L 41.0,68.0 L 50.0,72.0 L 57.0,79.0 L 60.0,86.0 L 60.0,97.0 L 56.0,106.0 L 49.0,113.0 L 41.0,116.0 L 30.0,116.0 L 22.0,112.0 L 14.0,103.0 L 12.0,97.0 L 12.0,86.0 L 16.0,78.0 L 23.0,71.0 L 30.0,68.0" fill="#070707"/>
	<path d="M 52.0,12.0 L 63.0,12.0 L 72.0,16.0 L 78.0,21.0 L 82.0,29.0 L 82.0,42.0 L 78.0,51.0 L 71.0,57.0 L 64.0,60.0 L 52.0,60.0 L 43.0,55.0 L 37.0,48.0 L 35.0,43.0 L 35.0,28.0 L 40.0,20.0 L 46.0,15.0 L 52.0,12.0" fill="#080808"/>
	<path d="M 87.0,76.0 L 96.0,76.0 L 103.0,80.0 L 107.0,85.0 L 108.0,88.0 L 108.0,96.0 L 103.0,104.0 L 97.0,108.0 L 88.0,108.0 L 81.0,104.0 L 77.0,99.0 L 76.0,96.0 L 76.0,87.0 L 80.0,81.0 L 85.0,77.0 L 87.0,76.0" fill="#F8F8F8"/>
	<path d="M 31.0,76.0 L 40.0,76.0 L 47.0,80.0 L 51.0,85.0 L 52.0,88.0 L 52.0,96.0 L 47.0,104.0 L 41.0,108.0 L 32.0,108.0 L 25.0,104.0 L 21.0,99.0 L 20.0,96.0 L 20.0,87.0 L 24.0,81.0 L 29.0,77.0 L 31.0,76.0" fill="#F8F8F8"/>
	<path d="M 54.0,20.0 L 62.0,20.0 L 68.0,23.0 L 74.0,30.0 L 74.0,41.0 L 70.0,47.0 L 65.0,51.0 L 63.0,52.0 L 54.0,52.0 L 46.0,47.0 L 43.0,41.0 L 43.0,30.0 L 47.0,24.0 L 54.0,20.0" fill="#FAFAFA"/>
</svg>
