<?xml version="1.0" ?>
<svg baseProfile="full" height="600px" version="1.1" viewBox="-20.1 -20.1 240.2 240.2" width="600px" xmlns="http://www.w3.org/2000/svg" xmlns:ev="http://www.w3.org/2001/xml-events" xmlns:xlink="http://www.w3.org/1999/xlink">
	<defs/>
	<path d="M 0.0,0.0 L 200.0,0.0 L 200.0,200.0 L 0.0,200.0 L 0.0,0.0" fill="#FDFDFD"/>
	<path d="M 43.0,116.0 L 57.0,116.0 L 67.0,120.0 L 76.0,127.0 L 82.0,137.0 L 84.0,143.0 L 84.0,154.0 L 82.0,163.0 L 76.0,173.0 L 67.0,180.0 L 61.0,183.0 L 56.0,184.0 L 43.0,184.0 L 33.0,180.0 L 24.0,173.0 L 18.0,163.0 L 16.0,157.0 L 16.0,143.0 L 20.0,133.0 L 27.0,124.0 L 37.0,118.0 L 43.0,116.0" fill="#FAFAFA"/>
	<path d="M 43.0,16.0 L 57.0,16.0 L 67.0,20.0 L 76.0,27.0 L 82.0,37.0 L 84.0,43.0 L 84.0,54.0 L 82.0,63.0 L 76.0,73.0 L 67.0,80.0 L 61.0,83.0 L 56.0,84.0 L 43.0,84.0 L 33.0,80.0 L 24.0,73.0 L 18.0,63.0 L 16.0,57.0 L 16.0,43.0 L 20.0,33.0 L 27.0,24.0 L 37.0,18.0 L 43.0,16.0" fill="#FAFAFA"/>
	<path d="M 141.0,91.0 L 158.0,91.0 L 168.0,95.0 L 177.0,103.0 L 183.0,114.0 L 184.0,117.0 L 184.0,129.0 L 180.0,142.0 L 171.0,152.0 L 161.0,157.0 L 155.0,159.0 L 146.0,159.0 L 136.0,156.0 L 128.0,151.0 L 120.0,142.0 L 116.0,129.0 L 116.0,117.0 L 120.0,108.0 L 124.0,102.0 L 132.0,95.0 L 141.0,91.0" fill="#FBFBFB"/>
	<path d="M 141.0,91.0 L 158.0,91.0 L 168.0,95.0 L 177.0,103.0 L 183.0,114.0 L 184.0,117.0 L 184.0,129.0 L 180.0,142.0 L 171.0,152.0 L 161.0,157.0 L 155.0,159.0 L 146.0,159.0 L 136.0,156.0 L 128.0,151.0 L 120.0,142.0 L 116.0,129.0 L 116.0,117.0 L 120.0,108.0 L 124.0,102.0 L 132.0,95.0 L 141.0,91.0 M 143.0,99.0 L 135.0,103.0 L 130.0,108.0 L 125.0,116.0 L 124.0,119.0 L 124.0,130.0 L 128.0,139.0 L 133.0,145.0 L 142.0,150.0 L 158.0,150.0 L 168.0,144.0 L 174.0,135.0 L 176.0,129.0 L 176.0,119.0 L 171.0,109.0 L 166.0,104.0 L 162.0,101.0 L 156.0,99.0 L 143.0,99.0" fill="#090909"/>
	<path d="M 43.0,116.0 L 57.0,116.0 L 67.0,120.0 L 76.0,127.0 L 82.0,137.0 L 84.0,143.0 L 84.0,154.0 L 82.0,163.0 L 76.0,173.0 L 67.0,180.0 L 61.0,183.0 L 56.0,184.0 L 43.0,184.0 L 33.0,180.0 L 24.0,173.0 L 18.0,163.0 L 16.0,157.0 L 16.0,143.0 L 20.0,133.0 L 27.0,124.0 L 37.0,118.0 L 43.0,116.0 M 44.0,124.0 L 34.0,129.0 L 27.0,137.0 L 24.0,144.0 L 24.0,156.0 L 29.0,166.0 L 37.0,173.0 L 44.0,176.0 L 55.0,176.0 L 64.0,172.0 L 72.0,165.0 L 76.0,155.0 L 76.0,144.0 L 71.0,134.0 L 63.0,127.0 L 56.0,124.0 L 44.0,124.0" fill="#080808"/>
	<path d="M 43.0,16.0 L 57.0,16.0 L 67.0,20.0 L 76.0,27.0 L 82.0,37.0 L 84.0,43.0 L 84.0,54.0 L 82.0,63.0 L 76.0,73.0 L 67.0,80.0 L 61.0,83.0 L 56.0,84.0 L 43.0,84.0 L 33.0,80.0 L 24.0,73.0 L 18.0,63.0 L 16.0,57.0 L 16.0,43.0 L 20.0,33.0 L 27.0,24.0 L 37.0,18.0 L 43.0,16.0 M 44.0,24.0 L 34.0,29.0 L 27.0,37.0 L 24.0,44.0 L 24.0,56.0 L 29.0,66.0 L 37.0,73.0 L 44.0,76.0 L 55.0,76.0 L 64.0,72.0 L 72.0,65.0 L 76.0,55.0 L 76.0,44.0 L 71.0,34.0 L 63.0,27.0 L 56.0,24.0 L 44.0,24.0" fill="#080808"/>
</svg>
