<?xml version="1.0" ?>
<svg baseProfile="full" height="600px" version="1.1" viewBox="-20.1 -20.1 240.2 240.2" width="600px" xmlns="http://www.w3.org/2000/svg" xmlns:ev="http://www.w3.org/2001/xml-events" xmlns:xlink="http://www.w3.org/1999/xlink">
	<defs/>
	<path d="M 0.0,0.0 L 200.0,0.0 L 200.0,200.0 L 0.0,200.0 L 0.0,0.0" fill="#FDFDFD"/>
	<path d="M 143.0,116.0 L 157.0,116.0 L 167.0,120.0 L 176.0,127.0 L 182.0,137.0 L 184.0,143.0 L 184.0,154.0 L 182.0,163.0 L 176.0,173.0 L 167.0,180.0 L 161.0,183.0 L 156.0,184.0 L 143.0,184.0 L 133.0,180.0 L 124.0,173.0 L 118.0,163.0 L 116.0,157.0 L 116.0,143.0 L 120.0,133.0 L 127.0,124.0 L 137.0,118.0 L 143.0,116.0" fill="#FAFAFA"/>
	<path d="M 143.0,16.0 L 157.0,16.0 L 167.0,20.0 L 176.0,27.0 L 182.0,37.0 L 184.0,43.0 L 184.0,54.0 L 182.0,63.0 L 176.0,73.0 L 167.0,80.0 L 161.0,83.0 L 156.0,84.0 L 143.0,84.0 L 133.0,80.0 L 124.0,73.0 L 118.0,63.0 L 116.0,57.0 L 116.0,43.0 L 120.0,33.0 L 127.0,24.0 L 137.0,18.0 L 143.0,16.0" fill="#FAFAFA"/>
	<path d="M 42.0,81.0 L 57.0,81.0 L 69.0,86.0 L 77.0,93.0 L 83.0,104.0 L 84.0,109.0 L 84.0,122.0 L 80.0,132.0 L 71.0,142.0 L 65.0,146.0 L 56.0,149.0 L 44.0,149.0 L 33.0,145.0 L 23.0,136.0 L 19.0,130.0 L 16.0,122.0 L 16.0,107.0 L 23.0,93.0 L 31.0,86.0 L 39.0,82.0 L 42.0,81.0" fill="#FAFAFA"/>
	<path d="M 143.0,116.0 L 157.0,116.0 L 167.0,120.0 L 176.0,127.0 L 182.0,137.0 L 184.0,143.0 L 184.0,154.0 L 182.0,163.0 L 176.0,173.0 L 167.0,180.0 L 161.0,183.0 L 156.0,184.0 L 143.0,184.0 L 133.0,180.0 L 124.0,173.0 L 118.0,163.0 L 116.0,157.0 L 116.0,143.0 L 120.0,133.0 L 127.0,124.0 L 137.0,118.0 L 143.0,116.0 M 144.0,124.0 L 134.0,129.0 L 127.0,137.0 L 124.0,144.0 L 124.0,156.0 L 129.0,166.0 L 137.0,173.0 L 144.0,176.0 L 155.0,176.0 L 164.0,172.0 L 172.0,165.0 L 176.0,155.0 L 176.0,144.0 L 171.0,134.0 L 163.0,127.0 L 156.0,124.0 L 144.0,124.0" fill="#080808"/>
	<path d="M 143.0,16.0 L 157.0,16.0 L 167.0,20.0 L 176.0,27.0 L 182.0,37.0 L 184.0,43.0 L 184.0,54.0 L 182.0,63.0 L 176.0,73.0 L 167.0,80.0 L 161.0,83.0 L 156.0,84.0 L 143.0,84.0 L 133.0,80.0 L 124.0,73.0 L 118.0,63.0 L 116.0,57.0 L 116.0,43.0 L 120.0,33.0 L 127.0,24.0 L 137.0,18.0 L 143.0,16.0 M 144.0,24.0 L 134.0,29.0 L 127.0,37.0 L 124.0,44.0 L 124.0,56.0 L 129.0,66.0 L 137.0,73.0 L 144.0,76.0 L 155.0,76.0 L 164.0,72.0 L 172.0,65.0 L 176.0,55.0 L 176.0,44.0 L 171.0,34.0 L 163.0,27.0 L 156.0,24.0 L 144.0,24.0" fill="#080808"/>
	<path d="M 42.0,81.0 L 57.0,81.0 L 69.0,86.0 L 77.0,93.0 L 83.0,104.0 L 84.0,109.0 L 84.0,122.0 L 80.0,132.0 L 71.0,142.0 L 65.0,146.0 L 56.0,149.0 L 44.0,149.0 L 33.0,145.0 L 23.0,136.0 L 19.0,130.0 L 16.0,122.0 L 16.0,107.0 L 23.0,93.0 L 31.0,86.0 L 39.0,82.0 L 42.0,81.0 M 43.0,89.0 L 34.0,94.0 L 27.0,102.0 L 24.0,109.0 L 24.0,120.0 L 28.0,129.0 L 34.0,136.0 L 42.0,140.0 L 45.0,141.0 L 54.0,141.0 L 64.0,137.0 L 71.0,131.0 L 76.0,121.0 L 76.0,109.0 L 71.0,99.0 L 63.0,92.0 L 56.0,89.0 L 43.0,89.0" fill="#080808"/>
</svg>
