<?xml version="1.0" ?>
<svg baseProfile="full" height="600px" version="1.1" viewBox="-20.1 -20.1 240.2 240.2" width="600px" xmlns="http://www.w3.org/2000/svg" xmlns:ev="http://www.w3.org/2001/xml-events" xmlns:xlink="http://www.w3.org/1999/xlink">
	<defs/>
	<path d="M 0.0,0.0 L 200.0,0.0 L 200.0,200.0 L 0.0,200.0 L 0.0,0.0" fill="#FDFDFD"/>
	<path d="M 82.0,20.0 L 91.0,20.0 L 97.0,24.0 L 101.0,29.0 L 103.0,33.0 L 103.0,45.0 L 97.0,74.0 L 96.0,76.0 L 149.0,76.0 L 158.0,80.0 L 164.0,87.0 L 165.0,101.0 L 170.0,106.0 L 172.0,110.0 L 172.0,119.0 L 169.0,125.0 L 169.0,129.0 L 172.0,135.0 L 172.0,142.0 L 169.0,149.0 L 164.0,154.0 L 164.0,167.0 L 160.0,173.0 L 154.0,178.0 L 149.0,180.0 L 62.0,180.0 L 52.0,177.0 L 44.0,171.0 L 37.0,163.0 L 33.0,154.0 L 32.0,149.0 L 32.0,99.0 L 37.0,87.0 L 46.0,72.0 L 59.0,49.0 L 70.0,30.0 L 76.0,23.0 L 82.0,20.0" fill="#FCFCFC"/>
	<path d="M 82.0,20.0 L 91.0,20.0 L 97.0,24.0 L 101.0,29.0 L 103.0,33.0 L 103.0,45.0 L 97.0,74.0 L 96.0,76.0 L 149.0,76.0 L 158.0,80.0 L 164.0,87.0 L 165.0,101.0 L 170.0,106.0 L 172.0,110.0 L 172.0,119.0 L 169.0,125.0 L 169.0,129.0 L 172.0,135.0 L 172.0,142.0 L 169.0,149.0 L 164.0,154.0 L 164.0,167.0 L 160.0,173.0 L 154.0,178.0 L 149.0,180.0 L 62.0,180.0 L 52.0,177.0 L 44.0,171.0 L 37.0,163.0 L 33.0,154.0 L 32.0,149.0 L 32.0,99.0 L 37.0,87.0 L 46.0,72.0 L 59.0,49.0 L 70.0,30.0 L 76.0,23.0 L 82.0,20.0 M 83.0,28.0 L 76.0,36.0 L 61.0,62.0 L 47.0,87.0 L 41.0,97.0 L 40.0,100.0 L 40.0,150.0 L 46.0,162.0 L 53.0,168.0 L 62.0,172.0 L 148.0,172.0 L 154.0,168.0 L 156.0,164.0 L 156.0,158.0 L 154.0,155.0 L 155.0,150.0 L 163.0,144.0 L 164.0,142.0 L 164.0,136.0 L 159.0,131.0 L 157.0,130.0 L 157.0,124.0 L 161.0,122.0 L 164.0,118.0 L 164.0,112.0 L 160.0,107.0 L 156.0,103.0 L 156.0,90.0 L 151.0,85.0 L 148.0,84.0 L 89.0,83.0 L 88.0,82.0 L 89.0,73.0 L 95.0,43.0 L 95.0,35.0 L 91.0,29.0 L 89.0,28.0 L 83.0,28.0" fill="#060606"/>
</svg>
