<?xml version="1.0" ?>
<svg baseProfile="full" height="600px" version="1.1" viewBox="-12.06 -12.06 144.12 144.12" width="600px" xmlns="http://www.w3.org/2000/svg" xmlns:ev="http://www.w3.org/2001/xml-events" xmlns:xlink="http://www.w3.org/1999/xlink">
	<defs/>
	<path d="M 0.0,0.0 L 120.0,0.0 L 120.0,120.0 L 0.0,120.0 L 0.0,0.0" fill="#FDFDFD"/>
	<path d="M 43.0,23.0 L 49.0,23.0 L 71.0,32.0 L 72.0,36.0 L 66.0,43.0 L 97.0,44.0 L 102.0,47.0 L 104.0,50.0 L 104.0,57.0 L 102.0,63.0 L 104.0,66.0 L 104.0,74.0 L 99.0,79.0 L 100.0,82.0 L 100.0,90.0 L 95.0,95.0 L 93.0,96.0 L 91.0,105.0 L 86.0,108.0 L 37.0,108.0 L 27.0,103.0 L 24.0,101.0 L 16.0,100.0 L 16.0,48.0 L 25.0,46.0 L 32.0,40.0 L 38.0,28.0 L 43.0,23.0" fill="#010101"/>
</svg>
