<?xml version="1.0" ?>
<svg baseProfile="full" height="600px" version="1.1" viewBox="-20.1 -20.1 240.2 240.2" width="600px" xmlns="http://www.w3.org/2000/svg" xmlns:ev="http://www.w3.org/2001/xml-events" xmlns:xlink="http://www.w3.org/1999/xlink">
	<defs/>
	<path d="M 0.0,0.0 L 200.0,0.0 L 200.0,200.0 L 0.0,200.0 L 0.0,0.0" fill="#FDFDFD"/>
	<path d="M 57.0,21.0 L 153.0,21.0 L 159.0,25.0 L 161.0,28.0 L 161.0,36.0 L 159.0,40.0 L 160.0,45.0 L 168.0,50.0 L 170.0,53.0 L 170.0,60.0 L 166.0,65.0 L 162.0,66.0 L 162.0,71.0 L 169.0,78.0 L 170.0,80.0 L 170.0,87.0 L 166.0,92.0 L 161.0,97.0 L 161.0,112.0 L 156.0,116.0 L 154.0,117.0 L 54.0,117.0 L 45.0,114.0 L 38.0,109.0 L 34.0,100.0 L 34.0,44.0 L 40.0,32.0 L 48.0,25.0 L 57.0,21.0" fill="#FDFDFD"/>
	<path d="M 56.0,12.0 L 153.0,12.0 L 161.0,15.0 L 166.0,19.0 L 170.0,26.0 L 170.0,40.0 L 178.0,49.0 L 179.0,52.0 L 179.0,61.0 L 176.0,67.0 L 175.0,71.0 L 179.0,78.0 L 179.0,87.0 L 176.0,94.0 L 171.0,99.0 L 170.0,113.0 L 166.0,120.0 L 160.0,124.0 L 155.0,126.0 L 52.0,126.0 L 41.0,122.0 L 32.0,116.0 L 27.0,106.0 L 25.0,98.0 L 25.0,45.0 L 28.0,35.0 L 34.0,26.0 L 41.0,19.0 L 53.0,13.0 L 56.0,12.0 M 57.0,21.0 L 45.0,27.0 L 38.0,35.0 L 34.0,44.0 L 34.0,100.0 L 39.0,110.0 L 49.0,116.0 L 54.0,117.0 L 154.0,117.0 L 160.0,113.0 L 161.0,112.0 L 161.0,97.0 L 166.0,92.0 L 170.0,87.0 L 170.0,80.0 L 163.0,72.0 L 162.0,68.0 L 162.0,66.0 L 167.0,64.0 L 170.0,60.0 L 170.0,53.0 L 166.0,48.0 L 159.0,44.0 L 160.0,38.0 L 161.0,36.0 L 161.0,28.0 L 157.0,23.0 L 153.0,21.0 L 57.0,21.0" fill="#080808"/>
</svg>
