<?xml version="1.0" ?>
<svg baseProfile="full" height="600px" version="1.1" viewBox="-20.1 -20.1 240.2 240.2" width="600px" xmlns="http://www.w3.org/2000/svg" xmlns:ev="http://www.w3.org/2001/xml-events" xmlns:xlink="http://www.w3.org/1999/xlink">
	<defs/>
	<path d="M 0.0,0.0 L 200.0,0.0 L 200.0,200.0 L 0.0,200.0 L 0.0,0.0" fill="#FDFDFD"/>
	<path d="M 38.0,16.0 L 155.0,16.0 L 151.0,22.0 L 149.0,24.0 L 39.0,25.0 L 31.0,29.0 L 26.0,36.0 L 25.0,39.0 L 25.0,160.0 L 29.0,169.0 L 36.0,174.0 L 39.0,175.0 L 161.0,175.0 L 170.0,170.0 L 175.0,161.0 L 176.0,69.0 L 183.0,60.0 L 184.0,60.0 L 184.0,162.0 L 180.0,171.0 L 173.0,179.0 L 165.0,183.0 L 161.0,184.0 L 37.0,184.0 L 27.0,179.0 L 19.0,170.0 L 16.0,161.0 L 16.0,38.0 L 20.0,29.0 L 27.0,21.0 L 35.0,17.0 L 38.0,16.0" fill="#020202"/>
	<path d="M 172.0,31.0 L 176.0,33.0 L 179.0,37.0 L 166.0,52.0 L 155.0,65.0 L 143.0,79.0 L 134.0,90.0 L 121.0,105.0 L 112.0,116.0 L 99.0,131.0 L 96.0,134.0 L 79.0,118.0 L 64.0,104.0 L 58.0,99.0 L 60.0,95.0 L 62.0,92.0 L 66.0,94.0 L 83.0,110.0 L 95.0,121.0 L 100.0,116.0 L 110.0,105.0 L 119.0,94.0 L 132.0,79.0 L 141.0,68.0 L 154.0,53.0 L 165.0,40.0 L 172.0,31.0" fill="#080808"/>
</svg>
