<?xml version="1.0" ?>
<svg baseProfile="full" height="600px" version="1.1" viewBox="-20.1 -20.1 240.2 240.2" width="600px" xmlns="http://www.w3.org/2000/svg" xmlns:ev="http://www.w3.org/2001/xml-events" xmlns:xlink="http://www.w3.org/1999/xlink">
	<defs/>
	<path d="M 0.0,0.0 L 200.0,0.0 L 200.0,200.0 L 0.0,200.0 L 0.0,0.0" fill="#FCFCFC"/>
	<path d="M 0.0,0.0 L 200.0,0.0 L 200.0,200.0 L 0.0,200.0 L 0.0,0.0 M 84.0,8.0 L 84.0,20.0 L 92.0,20.0 L 92.0,25.0 L 83.0,25.0 L 67.0,30.0 L 54.0,37.0 L 44.0,45.0 L 34.0,55.0 L 25.0,69.0 L 19.0,83.0 L 16.0,96.0 L 16.0,117.0 L 19.0,132.0 L 25.0,147.0 L 32.0,158.0 L 41.0,168.0 L 51.0,177.0 L 67.0,186.0 L 79.0,190.0 L 88.0,192.0 L 110.0,192.0 L 125.0,189.0 L 143.0,181.0 L 155.0,172.0 L 166.0,161.0 L 175.0,147.0 L 181.0,133.0 L 184.0,119.0 L 184.0,96.0 L 180.0,80.0 L 172.0,64.0 L 164.0,53.0 L 153.0,42.0 L 139.0,33.0 L 125.0,27.0 L 116.0,25.0 L 108.0,25.0 L 108.0,20.0 L 116.0,20.0 L 116.0,8.0 L 84.0,8.0" fill="#FCFCFC"/>
	<path d="M 84.0,8.0 L 116.0,8.0 L 116.0,20.0 L 108.0,20.0 L 108.0,25.0 L 116.0,25.0 L 127.0,28.0 L 141.0,34.0 L 154.0,43.0 L 166.0,55.0 L 175.0,69.0 L 181.0,83.0 L 184.0,96.0 L 184.0,119.0 L 180.0,135.0 L 174.0,149.0 L 165.0,162.0 L 153.0,174.0 L 139.0,183.0 L 125.0,189.0 L 110.0,192.0 L 88.0,192.0 L 72.0,188.0 L 56.0,180.0 L 45.0,172.0 L 34.0,161.0 L 25.0,147.0 L 19.0,132.0 L 16.0,117.0 L 16.0,96.0 L 20.0,80.0 L 28.0,64.0 L 36.0,53.0 L 47.0,42.0 L 61.0,33.0 L 75.0,27.0 L 83.0,25.0 L 92.0,25.0 L 92.0,20.0 L 84.0,20.0 L 84.0,8.0 M 93.0,32.0 L 80.0,34.0 L 65.0,40.0 L 54.0,47.0 L 42.0,58.0 L 35.0,68.0 L 28.0,82.0 L 25.0,92.0 L 24.0,99.0 L 24.0,118.0 L 27.0,130.0 L 33.0,145.0 L 43.0,159.0 L 50.0,166.0 L 60.0,173.0 L 74.0,180.0 L 84.0,183.0 L 91.0,184.0 L 107.0,184.0 L 120.0,182.0 L 137.0,175.0 L 151.0,165.0 L 158.0,158.0 L 165.0,148.0 L 171.0,136.0 L 175.0,123.0 L 176.0,117.0 L 176.0,101.0 L 174.0,88.0 L 168.0,73.0 L 161.0,62.0 L 150.0,50.0 L 140.0,43.0 L 128.0,37.0 L 115.0,33.0 L 110.0,32.0 L 93.0,32.0" fill="#070707"/>
	<path d="M 82.0,98.0 L 90.0,99.0 L 97.0,100.0 L 103.0,100.0 L 108.0,105.0 L 111.0,108.0 L 148.0,123.0 L 156.0,127.0 L 156.0,132.0 L 154.0,134.0 L 148.0,133.0 L 110.0,117.0 L 102.0,116.0 L 95.0,115.0 L 92.0,111.0 L 92.0,109.0 L 83.0,106.0 L 80.0,103.0 L 81.0,99.0 L 82.0,98.0" fill="#080808"/>
	<path d="M 160.0,21.0 L 164.0,23.0 L 179.0,38.0 L 177.0,42.0 L 171.0,47.0 L 153.0,29.0 L 159.0,22.0 L 160.0,21.0" fill="#050505"/>
</svg>
