<?xml version="1.0" ?>
<svg baseProfile="full" height="600px" version="1.1" viewBox="-20.1 -20.1 240.2 240.2" width="600px" xmlns="http://www.w3.org/2000/svg" xmlns:ev="http://www.w3.org/2001/xml-events" xmlns:xlink="http://www.w3.org/1999/xlink">
	<defs/>
	<path d="M 0.0,0.0 L 200.0,0.0 L 200.0,200.0 L 0.0,200.0 L 0.0,0.0" fill="#FDFDFD"/>
	<path d="M 76.0,152.0 L 184.0,152.0 L 184.0,160.0 L 76.0,160.0 L 76.0,152.0" fill="#000000"/>
	<path d="M 76.0,96.0 L 184.0,96.0 L 184.0,104.0 L 76.0,104.0 L 76.0,96.0" fill="#000000"/>
	<path d="M 76.0,40.0 L 184.0,40.0 L 184.0,48.0 L 76.0,48.0 L 76.0,40.0" fill="#000000"/>
	<path d="M 52.0,134.0 L 57.0,136.0 L 59.0,139.0 L 49.0,152.0 L 38.0,166.0 L 31.0,175.0 L 25.0,171.0 L 29.0,163.0 L 42.0,147.0 L 52.0,134.0" fill="#080808"/>
</svg>
