<?xml version="1.0" ?>
<svg baseProfile="full" height="600px" version="1.1" viewBox="-20.1 -20.1 240.2 240.2" width="600px" xmlns="http://www.w3.org/2000/svg" xmlns:ev="http://www.w3.org/2001/xml-events" xmlns:xlink="http://www.w3.org/1999/xlink">
	<defs/>
	<path d="M 0.0,0.0 L 200.0,0.0 L 200.0,200.0 L 0.0,200.0 L 0.0,0.0" fill="#030303"/>
	<path d="M 0.0,105.0 L 1.0,105.0 L 4.0,119.0 L 11.0,133.0 L 18.0,141.0 L 28.0,148.0 L 39.0,153.0 L 50.0,155.0 L 150.0,155.0 L 166.0,151.0 L 177.0,145.0 L 185.0,138.0 L 192.0,128.0 L 197.0,116.0 L 199.0,106.0 L 200.0,106.0 L 200.0,200.0 L 0.0,200.0 L 0.0,105.0" fill="#FDFDFD"/>
	<path d="M 0.0,0.0 L 200.0,0.0 L 200.0,91.0 L 198.0,88.0 L 195.0,78.0 L 189.0,67.0 L 182.0,59.0 L 172.0,52.0 L 160.0,47.0 L 153.0,45.0 L 48.0,45.0 L 36.0,48.0 L 23.0,55.0 L 14.0,63.0 L 7.0,74.0 L 3.0,83.0 L 1.0,92.0 L 0.0,92.0 L 0.0,0.0" fill="#FDFDFD"/>
	<path d="M 97.0,52.0 L 110.0,52.0 L 119.0,55.0 L 128.0,60.0 L 135.0,67.0 L 142.0,79.0 L 145.0,90.0 L 145.0,110.0 L 140.0,125.0 L 133.0,135.0 L 125.0,142.0 L 117.0,146.0 L 111.0,148.0 L 97.0,148.0 L 85.0,143.0 L 75.0,134.0 L 69.0,126.0 L 65.0,116.0 L 63.0,109.0 L 63.0,92.0 L 66.0,80.0 L 73.0,68.0 L 82.0,59.0 L 94.0,53.0 L 97.0,52.0" fill="#FCFCFC"/>
	<path d="M 130.0,52.0 L 152.0,52.0 L 168.0,58.0 L 177.0,65.0 L 184.0,73.0 L 190.0,84.0 L 192.0,92.0 L 192.0,109.0 L 187.0,122.0 L 181.0,131.0 L 174.0,138.0 L 164.0,144.0 L 151.0,148.0 L 130.0,148.0 L 135.0,143.0 L 142.0,134.0 L 148.0,122.0 L 151.0,109.0 L 151.0,89.0 L 148.0,78.0 L 141.0,64.0 L 134.0,56.0 L 130.0,52.0" fill="#FBFBFB"/>
</svg>
