<?xml version="1.0" ?>
<svg baseProfile="full" height="600px" version="1.1" viewBox="-20.1 -20.1 240.2 240.2" width="600px" xmlns="http://www.w3.org/2000/svg" xmlns:ev="http://www.w3.org/2001/xml-events" xmlns:xlink="http://www.w3.org/1999/xlink">
	<defs/>
	<path d="M 0.0,0.0 L 200.0,0.0 L 200.0,200.0 L 0.0,200.0 L 0.0,0.0" fill="#020202"/>
	<path d="M 0.0,105.0 L 1.0,105.0 L 4.0,119.0 L 11.0,133.0 L 18.0,141.0 L 28.0,148.0 L 39.0,153.0 L 50.0,155.0 L 153.0,155.0 L 169.0,150.0 L 180.0,143.0 L 187.0,136.0 L 195.0,123.0 L 199.0,110.0 L 200.0,110.0 L 200.0,200.0 L 0.0,200.0 L 0.0,105.0" fill="#FDFDFD"/>
	<path d="M 0.0,0.0 L 200.0,0.0 L 200.0,90.0 L 198.0,86.0 L 193.0,73.0 L 185.0,62.0 L 176.0,54.0 L 164.0,48.0 L 153.0,45.0 L 48.0,45.0 L 36.0,48.0 L 23.0,55.0 L 14.0,63.0 L 7.0,74.0 L 3.0,83.0 L 1.0,92.0 L 0.0,92.0 L 0.0,0.0" fill="#FDFDFD"/>
	<path d="M 137.0,52.0 L 148.0,52.0 L 164.0,56.0 L 175.0,63.0 L 182.0,70.0 L 188.0,80.0 L 192.0,94.0 L 192.0,105.0 L 188.0,120.0 L 181.0,131.0 L 171.0,140.0 L 161.0,145.0 L 149.0,148.0 L 136.0,148.0 L 126.0,145.0 L 115.0,139.0 L 105.0,129.0 L 98.0,115.0 L 96.0,106.0 L 96.0,93.0 L 100.0,80.0 L 106.0,70.0 L 115.0,61.0 L 129.0,54.0 L 137.0,52.0" fill="#FCFCFC"/>
</svg>
