<?xml version="1.0" ?>
<svg baseProfile="full" height="600px" version="1.1" viewBox="-20.1 -20.1 240.2 240.2" width="600px" xmlns="http://www.w3.org/2000/svg" xmlns:ev="http://www.w3.org/2001/xml-events" xmlns:xlink="http://www.w3.org/1999/xlink">
	<defs/>
	<path d="M 0.0,0.0 L 200.0,0.0 L 200.0,200.0 L 0.0,200.0 L 0.0,0.0" fill="#FCFCFC"/>
	<path d="M 83.0,28.0 L 96.0,28.0 L 107.0,32.0 L 117.0,41.0 L 122.0,49.0 L 124.0,55.0 L 124.0,62.0 L 137.0,56.0 L 150.0,56.0 L 162.0,61.0 L 168.0,66.0 L 174.0,76.0 L 176.0,81.0 L 176.0,95.0 L 170.0,107.0 L 166.0,112.0 L 156.0,118.0 L 150.0,120.0 L 42.0,120.0 L 34.0,116.0 L 27.0,108.0 L 24.0,101.0 L 24.0,90.0 L 28.0,82.0 L 37.0,74.0 L 42.0,72.0 L 52.0,72.0 L 57.0,73.0 L 56.0,67.0 L 56.0,55.0 L 60.0,45.0 L 69.0,35.0 L 77.0,30.0 L 83.0,28.0" fill="#FCFCFC"/>
	<path d="M 82.0,20.0 L 95.0,20.0 L 104.0,22.0 L 114.0,27.0 L 123.0,35.0 L 130.0,47.0 L 130.0,50.0 L 136.0,48.0 L 149.0,48.0 L 158.0,50.0 L 169.0,56.0 L 176.0,63.0 L 181.0,71.0 L 184.0,80.0 L 184.0,94.0 L 182.0,102.0 L 176.0,113.0 L 169.0,120.0 L 164.0,123.0 L 162.0,131.0 L 157.0,132.0 L 155.0,130.0 L 155.0,127.0 L 147.0,129.0 L 145.0,132.0 L 140.0,131.0 L 139.0,128.0 L 131.0,129.0 L 129.0,132.0 L 124.0,131.0 L 123.0,128.0 L 115.0,129.0 L 113.0,132.0 L 108.0,131.0 L 107.0,128.0 L 99.0,129.0 L 97.0,132.0 L 92.0,131.0 L 91.0,128.0 L 83.0,129.0 L 81.0,132.0 L 76.0,131.0 L 75.0,128.0 L 67.0,129.0 L 65.0,132.0 L 60.0,131.0 L 59.0,128.0 L 51.0,129.0 L 49.0,132.0 L 44.0,131.0 L 43.0,127.0 L 35.0,126.0 L 34.0,131.0 L 29.0,132.0 L 27.0,130.0 L 28.0,123.0 L 29.0,121.0 L 25.0,119.0 L 19.0,110.0 L 16.0,101.0 L 16.0,89.0 L 20.0,80.0 L 26.0,72.0 L 35.0,66.0 L 41.0,64.0 L 48.0,64.0 L 48.0,54.0 L 52.0,43.0 L 58.0,34.0 L 66.0,27.0 L 78.0,21.0 L 82.0,20.0 M 83.0,28.0 L 73.0,32.0 L 63.0,41.0 L 58.0,49.0 L 56.0,55.0 L 56.0,67.0 L 57.0,73.0 L 52.0,72.0 L 42.0,72.0 L 34.0,76.0 L 26.0,85.0 L 24.0,90.0 L 24.0,101.0 L 29.0,111.0 L 37.0,118.0 L 42.0,120.0 L 150.0,120.0 L 162.0,115.0 L 168.0,110.0 L 174.0,100.0 L 176.0,95.0 L 176.0,81.0 L 170.0,69.0 L 166.0,64.0 L 156.0,58.0 L 150.0,56.0 L 137.0,56.0 L 124.0,62.0 L 124.0,55.0 L 120.0,45.0 L 111.0,35.0 L 105.0,31.0 L 96.0,28.0 L 83.0,28.0" fill="#070707"/>
	<path d="M 151.0,142.0 L 156.0,142.0 L 157.0,143.0 L 156.0,152.0 L 154.0,157.0 L 153.0,158.0 L 148.0,158.0 L 147.0,157.0 L 148.0,147.0 L 151.0,142.0" fill="#080808"/>
	<path d="M 119.0,142.0 L 124.0,142.0 L 125.0,143.0 L 124.0,152.0 L 122.0,157.0 L 121.0,158.0 L 116.0,158.0 L 115.0,157.0 L 116.0,147.0 L 119.0,142.0" fill="#080808"/>
	<path d="M 87.0,142.0 L 92.0,142.0 L 93.0,143.0 L 92.0,152.0 L 90.0,157.0 L 89.0,158.0 L 84.0,158.0 L 83.0,157.0 L 84.0,147.0 L 87.0,142.0" fill="#080808"/>
	<path d="M 55.0,142.0 L 60.0,142.0 L 61.0,143.0 L 60.0,152.0 L 58.0,157.0 L 57.0,158.0 L 52.0,158.0 L 51.0,157.0 L 52.0,147.0 L 55.0,142.0" fill="#080808"/>
	<path d="M 23.0,142.0 L 28.0,142.0 L 29.0,143.0 L 28.0,152.0 L 26.0,157.0 L 25.0,158.0 L 20.0,158.0 L 19.0,157.0 L 20.0,147.0 L 23.0,142.0" fill="#080808"/>
	<path d="M 137.0,136.0 L 142.0,136.0 L 143.0,137.0 L 142.0,146.0 L 140.0,149.0 L 135.0,149.0 L 134.0,148.0 L 134.0,141.0 L 137.0,136.0" fill="#080808"/>
	<path d="M 105.0,136.0 L 110.0,136.0 L 111.0,137.0 L 110.0,146.0 L 108.0,149.0 L 103.0,149.0 L 102.0,148.0 L 102.0,141.0 L 105.0,136.0" fill="#080808"/>
	<path d="M 73.0,136.0 L 78.0,136.0 L 79.0,137.0 L 78.0,146.0 L 76.0,149.0 L 71.0,149.0 L 70.0,148.0 L 70.0,141.0 L 73.0,136.0" fill="#080808"/>
	<path d="M 41.0,136.0 L 46.0,136.0 L 47.0,137.0 L 46.0,146.0 L 44.0,149.0 L 39.0,149.0 L 38.0,148.0 L 38.0,141.0 L 41.0,136.0" fill="#080808"/>
	<path d="M 100.0,153.0 L 105.0,154.0 L 106.0,159.0 L 104.0,163.0 L 98.0,163.0 L 97.0,157.0 L 100.0,153.0" fill="#141414"/>
	<path d="M 68.0,153.0 L 73.0,154.0 L 74.0,159.0 L 72.0,163.0 L 66.0,163.0 L 65.0,157.0 L 68.0,153.0" fill="#141414"/>
	<path d="M 36.0,153.0 L 41.0,154.0 L 42.0,159.0 L 40.0,163.0 L 34.0,163.0 L 33.0,157.0 L 36.0,153.0" fill="#141414"/>
	<path d="M 132.0,153.0 L 137.0,154.0 L 138.0,158.0 L 136.0,163.0 L 130.0,163.0 L 129.0,157.0 L 132.0,153.0" fill="#121212"/>
</svg>
