<?xml version="1.0" ?>
<svg baseProfile="full" height="600px" version="1.1" viewBox="-19.296000000000003 -19.296000000000003 230.592 230.592" width="600px" xmlns="http://www.w3.org/2000/svg" xmlns:ev="http://www.w3.org/2001/xml-events" xmlns:xlink="http://www.w3.org/1999/xlink">
	<defs/>
	<path d="M 0.0,0.0 L 192.0,0.0 L 192.0,192.0 L 0.0,192.0 L 0.0,0.0" fill="#FDFDFE"/>
	<path d="M 82.0,21.0 L 97.0,22.0 L 115.0,25.0 L 121.0,33.0 L 147.0,36.0 L 154.0,39.0 L 156.0,42.0 L 155.0,54.0 L 148.0,53.0 L 148.0,164.0 L 145.0,170.0 L 139.0,175.0 L 136.0,176.0 L 55.0,176.0 L 49.0,172.0 L 45.0,167.0 L 44.0,165.0 L 44.0,45.0 L 69.0,44.0 L 44.0,41.0 L 36.0,40.0 L 36.0,32.0 L 39.0,27.0 L 41.0,25.0 L 50.0,25.0 L 74.0,27.0 L 82.0,21.0" fill="#9474CC"/>
	<path d="M 82.0,21.0 L 97.0,22.0 L 115.0,25.0 L 121.0,33.0 L 147.0,36.0 L 154.0,39.0 L 156.0,42.0 L 155.0,54.0 L 136.0,52.0 L 100.0,48.0 L 95.0,47.0 L 44.0,46.0 L 44.0,45.0 L 69.0,44.0 L 44.0,41.0 L 36.0,40.0 L 36.0,32.0 L 39.0,27.0 L 41.0,25.0 L 50.0,25.0 L 74.0,27.0 L 82.0,21.0" fill="#B39DDB"/>
	<path d="M 92.0,72.0 L 99.0,72.0 L 103.0,74.0 L 104.0,77.0 L 104.0,153.0 L 102.0,156.0 L 99.0,157.0 L 92.0,157.0 L 88.0,153.0 L 88.0,76.0 L 92.0,72.0" fill="#7454B3"/>
	<path d="M 124.0,72.0 L 130.0,73.0 L 132.0,77.0 L 132.0,153.0 L 130.0,156.0 L 124.0,157.0 L 120.0,153.0 L 120.0,76.0 L 124.0,72.0" fill="#7454B3"/>
	<path d="M 64.0,72.0 L 70.0,73.0 L 72.0,77.0 L 72.0,153.0 L 70.0,156.0 L 64.0,157.0 L 60.0,153.0 L 60.0,76.0 L 64.0,72.0" fill="#7454B3"/>
	<path d="M 82.0,21.0 L 97.0,22.0 L 115.0,25.0 L 119.0,30.0 L 119.0,33.0 L 101.0,32.0 L 76.0,29.0 L 75.0,26.0 L 82.0,21.0" fill="#9778CE"/>
</svg>
