<?xml version="1.0" ?>
<svg baseProfile="full" height="600px" version="1.1" viewBox="-16.08 -16.08 192.16 192.16" width="600px" xmlns="http://www.w3.org/2000/svg" xmlns:ev="http://www.w3.org/2001/xml-events" xmlns:xlink="http://www.w3.org/1999/xlink">
	<defs/>
	<path d="M 0.0,0.0 L 160.0,0.0 L 160.0,160.0 L 0.0,160.0 L 0.0,0.0" fill="#DAD3F0"/>
	<path d="M 0.0,0.0 L 160.0,0.0 L 160.0,160.0 L 130.0,160.0 L 134.0,157.0 L 135.0,154.0 L 136.0,44.0 L 144.0,44.0 L 143.0,33.0 L 139.0,29.0 L 104.0,28.0 L 100.0,18.0 L 99.0,17.0 L 61.0,17.0 L 57.0,26.0 L 56.0,28.0 L 21.0,29.0 L 17.0,33.0 L 16.0,44.0 L 24.0,44.0 L 25.0,155.0 L 29.0,160.0 L 0.0,160.0 L 0.0,0.0" fill="#FDFDFE"/>
	<path d="M 61.0,16.0 L 99.0,16.0 L 102.0,20.0 L 104.0,28.0 L 139.0,28.0 L 144.0,33.0 L 144.0,44.0 L 136.0,44.0 L 136.0,154.0 L 133.0,159.0 L 130.0,160.0 L 29.0,160.0 L 24.0,155.0 L 24.0,44.0 L 16.0,44.0 L 16.0,33.0 L 21.0,28.0 L 56.0,28.0 L 59.0,18.0 L 61.0,16.0 M 28.0,44.0 L 28.0,154.0 L 30.0,156.0 L 130.0,156.0 L 132.0,154.0 L 132.0,44.0 L 28.0,44.0" fill="#8C76A2"/>
	<path d="M 22.0,32.0 L 138.0,32.0 L 140.0,34.0 L 140.0,40.0 L 20.0,40.0 L 20.0,34.0 L 22.0,32.0" fill="#D9D2EF"/>
	<path d="M 116.0,52.0 L 120.0,52.0 L 120.0,148.0 L 116.0,148.0 L 116.0,52.0" fill="#8B75A1"/>
	<path d="M 96.0,52.0 L 100.0,52.0 L 100.0,148.0 L 96.0,148.0 L 96.0,52.0" fill="#8B75A1"/>
	<path d="M 60.0,52.0 L 64.0,52.0 L 64.0,148.0 L 60.0,148.0 L 60.0,52.0" fill="#8B75A1"/>
	<path d="M 40.0,52.0 L 44.0,52.0 L 44.0,148.0 L 40.0,148.0 L 40.0,52.0" fill="#8B75A1"/>
	<path d="M 63.0,20.0 L 97.0,20.0 L 100.0,28.0 L 60.0,28.0 L 63.0,20.0" fill="#FCFBFC"/>
</svg>
