<?xml version="1.0" ?>
<svg baseProfile="full" height="600px" version="1.1" viewBox="-20.1 -20.1 240.2 240.2" width="600px" xmlns="http://www.w3.org/2000/svg" xmlns:ev="http://www.w3.org/2001/xml-events" xmlns:xlink="http://www.w3.org/1999/xlink">
	<defs/>
	<path d="M 0.0,0.0 L 200.0,0.0 L 200.0,200.0 L 0.0,200.0 L 0.0,0.0" fill="#FCFCFC"/>
	<path d="M 80.0,17.0 L 92.0,17.0 L 121.0,19.0 L 126.0,22.0 L 129.0,27.0 L 129.0,40.0 L 141.0,40.0 L 162.0,41.0 L 171.0,42.0 L 173.0,44.0 L 172.0,49.0 L 171.0,50.0 L 164.0,50.0 L 165.0,58.0 L 166.0,95.0 L 166.0,150.0 L 165.0,181.0 L 162.0,190.0 L 154.0,194.0 L 45.0,194.0 L 38.0,190.0 L 36.0,186.0 L 35.0,180.0 L 34.0,153.0 L 34.0,84.0 L 35.0,57.0 L 36.0,49.0 L 38.0,47.0 L 43.0,48.0 L 44.0,49.0 L 43.0,77.0 L 43.0,150.0 L 44.0,175.0 L 45.0,185.0 L 155.0,185.0 L 156.0,180.0 L 157.0,153.0 L 157.0,82.0 L 156.0,49.0 L 142.0,49.0 L 116.0,47.0 L 86.0,45.0 L 35.0,42.0 L 28.0,41.0 L 27.0,40.0 L 27.0,34.0 L 33.0,33.0 L 66.0,35.0 L 72.0,36.0 L 72.0,25.0 L 75.0,20.0 L 80.0,17.0" fill="#0A0A0A"/>
	<path d="M 122.0,72.0 L 127.0,73.0 L 128.0,74.0 L 128.0,167.0 L 127.0,168.0 L 121.0,168.0 L 120.0,167.0 L 120.0,74.0 L 122.0,72.0" fill="#010101"/>
	<path d="M 98.0,72.0 L 103.0,73.0 L 104.0,74.0 L 104.0,167.0 L 103.0,168.0 L 97.0,168.0 L 96.0,167.0 L 96.0,74.0 L 98.0,72.0" fill="#010101"/>
	<path d="M 74.0,72.0 L 79.0,73.0 L 80.0,74.0 L 80.0,167.0 L 79.0,168.0 L 73.0,168.0 L 72.0,167.0 L 72.0,74.0 L 74.0,72.0" fill="#010101"/>
	<path d="M 82.0,25.0 L 108.0,26.0 L 119.0,27.0 L 121.0,29.0 L 121.0,39.0 L 111.0,39.0 L 80.0,37.0 L 80.0,27.0 L 82.0,25.0" fill="#F6F6F6"/>
</svg>
