<?xml version="1.0" ?>
<svg baseProfile="full" height="600px" version="1.1" viewBox="-19.296000000000003 -19.296000000000003 230.592 230.592" width="600px" xmlns="http://www.w3.org/2000/svg" xmlns:ev="http://www.w3.org/2001/xml-events" xmlns:xlink="http://www.w3.org/1999/xlink">
	<defs/>
	<path d="M 0.0,0.0 L 192.0,0.0 L 192.0,192.0 L 0.0,192.0 L 0.0,0.0" fill="#FDFDFE"/>
	<path d="M 37.0,36.0 L 155.0,36.0 L 160.0,41.0 L 159.0,49.0 L 155.0,51.0 L 153.0,67.0 L 144.0,126.0 L 138.0,164.0 L 135.0,170.0 L 129.0,175.0 L 126.0,176.0 L 65.0,176.0 L 58.0,172.0 L 54.0,165.0 L 52.0,157.0 L 45.0,106.0 L 39.0,66.0 L 37.0,56.0 L 37.0,51.0 L 33.0,49.0 L 32.0,47.0 L 32.0,41.0 L 37.0,36.0" fill="#B39CDB"/>
	<path d="M 37.0,36.0 L 155.0,36.0 L 160.0,41.0 L 159.0,49.0 L 155.0,52.0 L 37.0,52.0 L 32.0,47.0 L 32.0,41.0 L 37.0,36.0" fill="#7F58C2"/>
	<path d="M 70.0,9.0 L 76.0,10.0 L 93.0,16.0 L 105.0,21.0 L 141.0,35.0 L 141.0,36.0 L 43.0,36.0 L 49.0,29.0 L 59.0,20.0 L 70.0,9.0" fill="#FFAB91"/>
</svg>
