<?xml version="1.0" ?>
<svg baseProfile="full" height="600px" version="1.1" viewBox="-19.296000000000003 -19.296000000000003 230.592 230.592" width="600px" xmlns="http://www.w3.org/2000/svg" xmlns:ev="http://www.w3.org/2001/xml-events" xmlns:xlink="http://www.w3.org/1999/xlink">
	<defs/>
	<path d="M 0.0,0.0 L 192.0,0.0 L 192.0,192.0 L 0.0,192.0 L 0.0,0.0" fill="#FDFDFE"/>
	<path d="M 80.0,28.0 L 113.0,28.0 L 120.0,35.0 L 151.0,36.0 L 156.0,41.0 L 156.0,52.0 L 149.0,52.0 L 150.0,77.0 L 150.0,130.0 L 149.0,153.0 L 148.0,164.0 L 145.0,170.0 L 139.0,175.0 L 136.0,176.0 L 55.0,176.0 L 49.0,172.0 L 45.0,167.0 L 44.0,165.0 L 43.0,156.0 L 42.0,131.0 L 42.0,82.0 L 43.0,52.0 L 36.0,52.0 L 36.0,41.0 L 41.0,36.0 L 72.0,35.0 L 80.0,28.0" fill="#9475CC"/>
	<path d="M 80.0,28.0 L 113.0,28.0 L 120.0,35.0 L 151.0,36.0 L 156.0,41.0 L 156.0,52.0 L 149.0,52.0 L 149.0,68.0 L 148.0,68.0 L 148.0,52.0 L 44.0,52.0 L 44.0,67.0 L 43.0,67.0 L 43.0,52.0 L 36.0,52.0 L 36.0,41.0 L 41.0,36.0 L 72.0,35.0 L 80.0,28.0" fill="#B39CDB"/>
	<path d="M 92.0,73.0 L 100.0,73.0 L 104.0,77.0 L 104.0,154.0 L 101.0,157.0 L 92.0,157.0 L 88.0,153.0 L 88.0,76.0 L 92.0,73.0" fill="#7454B3"/>
	<path d="M 64.0,73.0 L 69.0,74.0 L 72.0,77.0 L 72.0,154.0 L 69.0,157.0 L 62.0,156.0 L 60.0,153.0 L 59.0,144.0 L 59.0,83.0 L 60.0,76.0 L 64.0,73.0" fill="#7555B4"/>
	<path d="M 124.0,73.0 L 129.0,74.0 L 132.0,77.0 L 133.0,90.0 L 133.0,143.0 L 132.0,154.0 L 129.0,157.0 L 122.0,156.0 L 120.0,153.0 L 120.0,76.0 L 124.0,73.0" fill="#7555B4"/>
	<path d="M 80.0,28.0 L 113.0,28.0 L 117.0,32.0 L 116.0,36.0 L 73.0,36.0 L 79.0,29.0 L 80.0,28.0" fill="#9575CC"/>
</svg>
