<?xml version="1.0" ?>
<svg baseProfile="full" height="600px" version="1.1" viewBox="-16.08 -16.08 192.16 192.16" width="600px" xmlns="http://www.w3.org/2000/svg" xmlns:ev="http://www.w3.org/2001/xml-events" xmlns:xlink="http://www.w3.org/1999/xlink">
	<defs/>
	<path d="M 0.0,0.0 L 160.0,0.0 L 160.0,160.0 L 0.0,160.0 L 0.0,0.0" fill="#D9D2EF"/>
	<path d="M 0.0,0.0 L 160.0,0.0 L 160.0,160.0 L 130.0,160.0 L 134.0,155.0 L 135.0,60.0 L 147.0,62.0 L 147.0,49.0 L 143.0,46.0 L 121.0,41.0 L 111.0,39.0 L 109.0,33.0 L 107.0,26.0 L 75.0,19.0 L 68.0,19.0 L 66.0,24.0 L 63.0,28.0 L 51.0,26.0 L 32.0,22.0 L 26.0,23.0 L 23.0,26.0 L 21.0,36.0 L 34.0,38.0 L 82.0,48.0 L 82.0,49.0 L 25.0,49.0 L 26.0,155.0 L 30.0,160.0 L 0.0,160.0 L 0.0,0.0" fill="#FDFDFD"/>
	<path d="M 70.0,18.0 L 80.0,19.0 L 107.0,25.0 L 109.0,27.0 L 111.0,38.0 L 139.0,44.0 L 146.0,47.0 L 148.0,49.0 L 147.0,62.0 L 138.0,61.0 L 135.0,60.0 L 135.0,155.0 L 130.0,160.0 L 30.0,160.0 L 25.0,155.0 L 25.0,49.0 L 78.0,48.0 L 48.0,42.0 L 21.0,36.0 L 22.0,26.0 L 28.0,21.0 L 35.0,22.0 L 60.0,27.0 L 64.0,26.0 L 68.0,19.0 L 70.0,18.0 M 29.0,53.0 L 29.0,155.0 L 31.0,156.0 L 129.0,156.0 L 131.0,154.0 L 131.0,59.0 L 115.0,55.0 L 106.0,53.0 L 29.0,53.0" fill="#917CA6"/>
	<path d="M 27.0,26.0 L 36.0,26.0 L 74.0,34.0 L 110.0,42.0 L 138.0,48.0 L 143.0,50.0 L 144.0,55.0 L 143.0,57.0 L 135.0,56.0 L 91.0,47.0 L 63.0,41.0 L 27.0,33.0 L 26.0,32.0 L 26.0,27.0 L 27.0,26.0" fill="#D8D0EE"/>
	<path d="M 40.0,60.0 L 45.0,60.0 L 45.0,149.0 L 40.0,149.0 L 40.0,60.0" fill="#9B88B1"/>
	<path d="M 96.0,60.0 L 100.0,60.0 L 100.0,149.0 L 96.0,149.0 L 96.0,60.0" fill="#907CA7"/>
	<path d="M 60.0,60.0 L 64.0,60.0 L 64.0,149.0 L 60.0,149.0 L 60.0,60.0" fill="#907BA6"/>
	<path d="M 116.0,60.0 L 119.0,60.0 L 119.0,149.0 L 115.0,149.0 L 115.0,61.0 L 116.0,60.0" fill="#9480AA"/>
	<path d="M 71.0,22.0 L 84.0,24.0 L 105.0,29.0 L 106.0,37.0 L 93.0,35.0 L 69.0,30.0 L 68.0,27.0 L 71.0,22.0" fill="#F9F8FA"/>
</svg>
