<?xml version="1.0" ?>
<svg baseProfile="full" height="600px" version="1.1" viewBox="-16.08 -16.08 192.16 192.16" width="600px" xmlns="http://www.w3.org/2000/svg" xmlns:ev="http://www.w3.org/2001/xml-events" xmlns:xlink="http://www.w3.org/1999/xlink">
	<defs/>
	<path d="M 0.0,0.0 L 160.0,0.0 L 160.0,160.0 L 0.0,160.0 L 0.0,0.0" fill="#DAD2F0"/>
	<path d="M 0.0,0.0 L 160.0,0.0 L 160.0,160.0 L 131.0,160.0 L 135.0,155.0 L 136.0,153.0 L 137.0,50.0 L 145.0,50.0 L 144.0,38.0 L 140.0,35.0 L 104.0,34.0 L 100.0,23.0 L 60.0,23.0 L 56.0,34.0 L 20.0,35.0 L 16.0,39.0 L 15.0,50.0 L 23.0,50.0 L 24.0,153.0 L 27.0,158.0 L 29.0,160.0 L 0.0,160.0 L 0.0,0.0" fill="#FDFDFD"/>
	<path d="M 60.0,22.0 L 100.0,22.0 L 104.0,31.0 L 104.0,34.0 L 140.0,34.0 L 145.0,38.0 L 145.0,50.0 L 137.0,50.0 L 137.0,153.0 L 133.0,159.0 L 131.0,160.0 L 29.0,160.0 L 24.0,155.0 L 23.0,153.0 L 23.0,50.0 L 15.0,50.0 L 15.0,39.0 L 20.0,34.0 L 56.0,34.0 L 57.0,28.0 L 60.0,22.0 M 27.0,50.0 L 27.0,125.0 L 28.0,154.0 L 30.0,156.0 L 130.0,156.0 L 132.0,154.0 L 133.0,132.0 L 133.0,69.0 L 132.0,50.0 L 27.0,50.0" fill="#917CA6"/>
	<path d="M 21.0,38.0 L 139.0,38.0 L 141.0,40.0 L 141.0,46.0 L 19.0,46.0 L 19.0,40.0 L 21.0,38.0" fill="#D7CFED"/>
	<path d="M 116.0,56.0 L 120.0,56.0 L 120.0,148.0 L 116.0,148.0 L 116.0,56.0" fill="#8E78A4"/>
	<path d="M 96.0,56.0 L 100.0,56.0 L 100.0,148.0 L 96.0,148.0 L 96.0,56.0" fill="#8B76A2"/>
	<path d="M 60.0,56.0 L 64.0,56.0 L 64.0,148.0 L 60.0,148.0 L 60.0,56.0" fill="#8B76A2"/>
	<path d="M 40.0,56.0 L 44.0,56.0 L 44.0,148.0 L 40.0,148.0 L 40.0,56.0" fill="#8E78A4"/>
	<path d="M 62.0,26.0 L 98.0,26.0 L 100.0,34.0 L 60.0,34.0 L 61.0,29.0 L 62.0,26.0" fill="#F5F4F7"/>
</svg>
