<?xml version="1.0" ?>
<svg baseProfile="full" height="600px" version="1.1" viewBox="-16.08 -16.08 192.16 192.16" width="600px" xmlns="http://www.w3.org/2000/svg" xmlns:ev="http://www.w3.org/2001/xml-events" xmlns:xlink="http://www.w3.org/1999/xlink">
	<defs/>
	<path d="M 0.0,0.0 L 160.0,0.0 L 160.0,160.0 L 0.0,160.0 L 0.0,0.0" fill="#D9D2EF"/>
	<path d="M 0.0,0.0 L 160.0,0.0 L 160.0,160.0 L 130.0,160.0 L 135.0,156.0 L 136.0,147.0 L 137.0,126.0 L 137.0,54.0 L 146.0,54.0 L 145.0,43.0 L 141.0,39.0 L 105.0,38.0 L 101.0,29.0 L 101.0,27.0 L 59.0,27.0 L 56.0,37.0 L 55.0,38.0 L 19.0,39.0 L 15.0,43.0 L 14.0,54.0 L 23.0,54.0 L 23.0,125.0 L 24.0,154.0 L 29.0,160.0 L 0.0,160.0 L 0.0,0.0" fill="#FDFDFD"/>
	<path d="M 61.0,26.0 L 99.0,26.0 L 102.0,29.0 L 105.0,37.0 L 141.0,38.0 L 146.0,43.0 L 146.0,54.0 L 137.0,54.0 L 138.0,75.0 L 138.0,126.0 L 137.0,147.0 L 136.0,156.0 L 133.0,159.0 L 130.0,160.0 L 29.0,160.0 L 24.0,156.0 L 23.0,154.0 L 22.0,125.0 L 22.0,70.0 L 23.0,54.0 L 14.0,54.0 L 14.0,43.0 L 19.0,38.0 L 55.0,37.0 L 59.0,27.0 L 61.0,26.0 M 27.0,54.0 L 26.0,77.0 L 26.0,126.0 L 28.0,155.0 L 30.0,156.0 L 130.0,156.0 L 133.0,153.0 L 134.0,119.0 L 134.0,86.0 L 133.0,54.0 L 27.0,54.0" fill="#907AA5"/>
	<path d="M 20.0,42.0 L 140.0,42.0 L 142.0,44.0 L 142.0,50.0 L 18.0,50.0 L 18.0,44.0 L 20.0,42.0" fill="#D8D1EE"/>
	<path d="M 116.0,60.0 L 120.0,60.0 L 120.0,149.0 L 116.0,149.0 L 116.0,60.0" fill="#8F7AA5"/>
	<path d="M 96.0,60.0 L 100.0,60.0 L 100.0,149.0 L 96.0,149.0 L 96.0,60.0" fill="#8C77A2"/>
	<path d="M 60.0,60.0 L 64.0,60.0 L 64.0,149.0 L 60.0,149.0 L 60.0,60.0" fill="#8D77A3"/>
	<path d="M 40.0,60.0 L 44.0,60.0 L 44.0,149.0 L 40.0,149.0 L 40.0,60.0" fill="#8F7AA5"/>
	<path d="M 62.0,30.0 L 98.0,30.0 L 100.0,35.0 L 100.0,38.0 L 60.0,38.0 L 61.0,32.0 L 62.0,30.0" fill="#F8F7F9"/>
</svg>
