<?xml version="1.0" ?>
<svg baseProfile="full" height="600px" version="1.1" viewBox="-19.296000000000003 -19.296000000000003 230.592 230.592" width="600px" xmlns="http://www.w3.org/2000/svg" xmlns:ev="http://www.w3.org/2001/xml-events" xmlns:xlink="http://www.w3.org/1999/xlink">
	<defs/>
	<path d="M 0.0,0.0 L 192.0,0.0 L 192.0,192.0 L 0.0,192.0 L 0.0,0.0" fill="#FDFDFE"/>
	<path d="M 80.0,24.0 L 113.0,24.0 L 120.0,31.0 L 151.0,32.0 L 156.0,37.0 L 156.0,48.0 L 148.0,48.0 L 148.0,164.0 L 145.0,170.0 L 139.0,175.0 L 136.0,176.0 L 55.0,176.0 L 49.0,172.0 L 45.0,167.0 L 44.0,163.0 L 44.0,48.0 L 36.0,48.0 L 36.0,37.0 L 41.0,32.0 L 72.0,31.0 L 80.0,24.0" fill="#9474CC"/>
	<path d="M 80.0,24.0 L 113.0,24.0 L 120.0,31.0 L 151.0,32.0 L 156.0,37.0 L 156.0,48.0 L 36.0,48.0 L 36.0,37.0 L 41.0,32.0 L 72.0,31.0 L 80.0,24.0" fill="#B29CDB"/>
	<path d="M 92.0,68.0 L 101.0,68.0 L 104.0,71.0 L 104.0,152.0 L 100.0,156.0 L 91.0,156.0 L 88.0,153.0 L 88.0,72.0 L 92.0,68.0" fill="#7454B3"/>
	<path d="M 124.0,68.0 L 129.0,68.0 L 132.0,71.0 L 132.0,152.0 L 128.0,156.0 L 123.0,156.0 L 120.0,153.0 L 120.0,72.0 L 124.0,68.0" fill="#7454B3"/>
	<path d="M 64.0,68.0 L 69.0,68.0 L 72.0,71.0 L 72.0,152.0 L 68.0,156.0 L 63.0,156.0 L 60.0,153.0 L 60.0,72.0 L 64.0,68.0" fill="#7454B3"/>
	<path d="M 80.0,24.0 L 113.0,24.0 L 119.0,30.0 L 119.0,32.0 L 73.0,32.0 L 79.0,25.0 L 80.0,24.0" fill="#9576CC"/>
</svg>
