<?xml version="1.0" ?>
<svg baseProfile="full" height="600px" version="1.1" viewBox="-20.1 -20.1 240.2 240.2" width="600px" xmlns="http://www.w3.org/2000/svg" xmlns:ev="http://www.w3.org/2001/xml-events" xmlns:xlink="http://www.w3.org/1999/xlink">
	<defs/>
	<path d="M 0.0,0.0 L 200.0,0.0 L 200.0,200.0 L 0.0,200.0 L 0.0,0.0" fill="#FCFCFC"/>
	<path d="M 0.0,0.0 L 200.0,0.0 L 200.0,200.0 L 0.0,200.0 L 0.0,0.0 M 79.0,14.0 L 73.0,19.0 L 72.0,21.0 L 72.0,34.0 L 28.0,34.0 L 27.0,35.0 L 27.0,40.0 L 29.0,42.0 L 35.0,42.0 L 34.0,80.0 L 34.0,140.0 L 36.0,184.0 L 39.0,189.0 L 44.0,192.0 L 156.0,192.0 L 162.0,188.0 L 164.0,184.0 L 165.0,173.0 L 166.0,135.0 L 166.0,90.0 L 165.0,42.0 L 171.0,42.0 L 173.0,40.0 L 173.0,35.0 L 172.0,34.0 L 128.0,34.0 L 128.0,21.0 L 123.0,15.0 L 121.0,14.0 L 79.0,14.0" fill="#FCFCFC"/>
	<path d="M 79.0,14.0 L 121.0,14.0 L 127.0,19.0 L 128.0,21.0 L 128.0,34.0 L 172.0,34.0 L 173.0,35.0 L 173.0,40.0 L 171.0,42.0 L 165.0,42.0 L 166.0,90.0 L 166.0,135.0 L 165.0,173.0 L 164.0,184.0 L 161.0,189.0 L 156.0,192.0 L 44.0,192.0 L 38.0,188.0 L 36.0,184.0 L 34.0,140.0 L 34.0,80.0 L 35.0,42.0 L 29.0,42.0 L 27.0,40.0 L 27.0,35.0 L 28.0,34.0 L 72.0,34.0 L 72.0,21.0 L 77.0,15.0 L 79.0,14.0 M 44.0,42.0 L 43.0,58.0 L 42.0,95.0 L 42.0,134.0 L 43.0,170.0 L 44.0,182.0 L 46.0,184.0 L 154.0,184.0 L 156.0,182.0 L 157.0,172.0 L 158.0,131.0 L 158.0,91.0 L 156.0,42.0 L 44.0,42.0" fill="#0C0C0C"/>
	<path d="M 97.0,62.0 L 103.0,62.0 L 104.0,63.0 L 104.0,163.0 L 102.0,165.0 L 97.0,164.0 L 96.0,163.0 L 96.0,63.0 L 97.0,62.0" fill="#010101"/>
	<path d="M 73.0,62.0 L 79.0,62.0 L 80.0,63.0 L 80.0,163.0 L 78.0,165.0 L 73.0,164.0 L 72.0,163.0 L 72.0,63.0 L 73.0,62.0" fill="#030303"/>
	<path d="M 121.0,62.0 L 127.0,62.0 L 128.0,63.0 L 128.0,163.0 L 126.0,165.0 L 121.0,164.0 L 120.0,163.0 L 120.0,64.0 L 121.0,62.0" fill="#030303"/>
	<path d="M 81.0,22.0 L 119.0,22.0 L 120.0,23.0 L 120.0,33.0 L 80.0,33.0 L 80.0,23.0 L 81.0,22.0" fill="#FCFCFC"/>
</svg>
