<?xml version="1.0" ?>
<svg baseProfile="full" height="600px" version="1.1" viewBox="-12.06 -12.06 144.12 144.12" width="600px" xmlns="http://www.w3.org/2000/svg" xmlns:ev="http://www.w3.org/2001/xml-events" xmlns:xlink="http://www.w3.org/1999/xlink">
	<defs/>
	<path d="M 0.0,0.0 L 120.0,0.0 L 120.0,120.0 L 0.0,120.0 L 0.0,0.0" fill="#FCFCFC"/>
	<path d="M 24.0,39.0 L 96.0,39.0 L 98.0,45.0 L 98.0,90.0 L 95.0,100.0 L 90.0,104.0 L 29.0,104.0 L 24.0,99.0 L 22.0,85.0 L 22.0,46.0 L 24.0,39.0" fill="#020202"/>
	<path d="M 50.0,19.0 L 70.0,19.0 L 72.0,23.0 L 98.0,23.0 L 100.0,25.0 L 99.0,30.0 L 98.0,31.0 L 22.0,31.0 L 20.0,29.0 L 21.0,24.0 L 22.0,23.0 L 48.0,23.0 L 50.0,19.0" fill="#090909"/>
</svg>
