<?xml version="1.0" ?>
<svg baseProfile="full" height="600px" version="1.1" viewBox="-12.06 -12.06 144.12 144.12" width="600px" xmlns="http://www.w3.org/2000/svg" xmlns:ev="http://www.w3.org/2001/xml-events" xmlns:xlink="http://www.w3.org/1999/xlink">
	<defs/>
	<path d="M 0.0,0.0 L 120.0,0.0 L 120.0,120.0 L 0.0,120.0 L 0.0,0.0" fill="#FCFCFC"/>
	<path d="M 23.0,2.0 L 31.0,3.0 L 45.0,8.0 L 50.0,8.0 L 54.0,7.0 L 71.0,13.0 L 72.0,18.0 L 83.0,21.0 L 95.0,25.0 L 97.0,27.0 L 96.0,35.0 L 95.0,42.0 L 95.0,86.0 L 96.0,101.0 L 92.0,104.0 L 29.0,104.0 L 24.0,99.0 L 24.0,90.0 L 25.0,83.0 L 25.0,44.0 L 24.0,32.0 L 84.0,31.0 L 67.0,25.0 L 24.0,10.0 L 21.0,8.0 L 22.0,3.0 L 23.0,2.0" fill="#030303"/>
</svg>
