<?xml version="1.0" ?>
<svg baseProfile="full" height="600px" version="1.1" viewBox="-19.296000000000003 -19.296000000000003 230.592 230.592" width="600px" xmlns="http://www.w3.org/2000/svg" xmlns:ev="http://www.w3.org/2001/xml-events" xmlns:xlink="http://www.w3.org/1999/xlink">
	<defs/>
	<path d="M 0.0,0.0 L 192.0,0.0 L 192.0,192.0 L 0.0,192.0 L 0.0,0.0" fill="#FDFDFD"/>
	<path d="M 140.0,56.0 L 149.0,56.0 L 156.0,60.0 L 160.0,67.0 L 159.0,85.0 L 156.0,102.0 L 163.0,104.0 L 173.0,113.0 L 178.0,121.0 L 180.0,127.0 L 180.0,142.0 L 176.0,155.0 L 167.0,165.0 L 161.0,169.0 L 150.0,172.0 L 39.0,172.0 L 29.0,168.0 L 19.0,159.0 L 15.0,152.0 L 12.0,142.0 L 12.0,127.0 L 16.0,117.0 L 25.0,107.0 L 33.0,102.0 L 39.0,100.0 L 128.0,100.0 L 128.0,67.0 L 133.0,59.0 L 140.0,56.0" fill="#B9DCF9"/>
	<path d="M 140.0,56.0 L 149.0,56.0 L 156.0,60.0 L 160.0,67.0 L 159.0,85.0 L 156.0,102.0 L 163.0,104.0 L 173.0,113.0 L 178.0,121.0 L 180.0,127.0 L 180.0,142.0 L 176.0,155.0 L 167.0,165.0 L 161.0,169.0 L 150.0,172.0 L 39.0,172.0 L 29.0,168.0 L 19.0,159.0 L 15.0,152.0 L 12.0,142.0 L 12.0,127.0 L 16.0,117.0 L 25.0,107.0 L 33.0,102.0 L 39.0,100.0 L 128.0,100.0 L 128.0,67.0 L 133.0,59.0 L 140.0,56.0 M 40.0,108.0 L 30.0,113.0 L 23.0,121.0 L 20.0,128.0 L 20.0,143.0 L 24.0,152.0 L 29.0,158.0 L 37.0,163.0 L 40.0,164.0 L 151.0,164.0 L 160.0,160.0 L 167.0,154.0 L 171.0,146.0 L 172.0,141.0 L 172.0,128.0 L 168.0,120.0 L 162.0,113.0 L 154.0,109.0 L 151.0,108.0 L 40.0,108.0" fill="#475C66"/>
	<path d="M 128.0,108.0 L 151.0,108.0 L 160.0,112.0 L 166.0,117.0 L 171.0,125.0 L 172.0,128.0 L 172.0,141.0 L 169.0,150.0 L 165.0,156.0 L 160.0,160.0 L 151.0,164.0 L 133.0,164.0 L 132.0,163.0 L 131.0,115.0 L 128.0,111.0 L 128.0,108.0" fill="#48A1E8"/>
	<path d="M 140.0,56.0 L 149.0,56.0 L 156.0,60.0 L 160.0,67.0 L 159.0,85.0 L 156.0,101.0 L 128.0,100.0 L 128.0,67.0 L 133.0,59.0 L 140.0,56.0" fill="#738D99"/>
	<path d="M 155.0,110.0 L 162.0,113.0 L 169.0,121.0 L 172.0,128.0 L 172.0,141.0 L 169.0,150.0 L 165.0,156.0 L 160.0,160.0 L 154.0,163.0 L 148.0,163.0 L 152.0,129.0 L 155.0,110.0" fill="#B7DBF7"/>
	<path d="M 139.0,20.0 L 149.0,20.0 L 155.0,24.0 L 159.0,29.0 L 160.0,31.0 L 160.0,40.0 L 156.0,47.0 L 150.0,51.0 L 147.0,52.0 L 140.0,52.0 L 132.0,47.0 L 128.0,39.0 L 128.0,31.0 L 132.0,25.0 L 137.0,21.0 L 139.0,20.0" fill="#FFBF63"/>
	<path d="M 147.0,155.0 L 149.0,155.0 L 149.0,162.0 L 151.0,164.0 L 139.0,164.0 L 141.0,163.0 L 141.0,161.0 L 143.0,161.0 L 143.0,159.0 L 145.0,159.0 L 145.0,157.0 L 147.0,157.0 L 147.0,155.0" fill="#48A1E8"/>
	<path d="M 148.0,157.0 L 149.0,157.0 L 149.0,162.0 L 151.0,164.0 L 143.0,164.0 L 145.0,163.0 L 145.0,161.0 L 147.0,161.0 L 148.0,157.0" fill="#61A8E0"/>
</svg>
