<?xml version="1.0" ?>
<svg baseProfile="full" height="600px" version="1.1" viewBox="-19.296000000000003 -19.296000000000003 230.592 230.592" width="600px" xmlns="http://www.w3.org/2000/svg" xmlns:ev="http://www.w3.org/2001/xml-events" xmlns:xlink="http://www.w3.org/1999/xlink">
	<defs/>
	<path d="M 0.0,0.0 L 192.0,0.0 L 192.0,192.0 L 0.0,192.0 L 0.0,0.0" fill="#039688"/>
	<path d="M 0.0,0.0 L 192.0,0.0 L 192.0,192.0 L 0.0,192.0 L 0.0,0.0 M 20.0,25.0 L 16.0,29.0 L 15.0,31.0 L 13.0,79.0 L 12.0,116.0 L 12.0,135.0 L 17.0,141.0 L 32.0,141.0 L 32.0,149.0 L 36.0,157.0 L 44.0,163.0 L 47.0,164.0 L 57.0,164.0 L 67.0,158.0 L 71.0,151.0 L 72.0,143.0 L 111.0,144.0 L 128.0,144.0 L 129.0,152.0 L 131.0,156.0 L 118.0,156.0 L 118.0,164.0 L 153.0,164.0 L 161.0,160.0 L 166.0,154.0 L 168.0,149.0 L 168.0,146.0 L 174.0,146.0 L 179.0,143.0 L 180.0,141.0 L 181.0,121.0 L 181.0,103.0 L 169.0,63.0 L 165.0,58.0 L 163.0,57.0 L 135.0,56.0 L 119.0,56.0 L 119.0,32.0 L 115.0,28.0 L 113.0,27.0 L 71.0,26.0 L 49.0,25.0 L 20.0,25.0" fill="#FDFEFD"/>
	<path d="M 119.0,56.0 L 135.0,56.0 L 163.0,57.0 L 168.0,61.0 L 174.0,79.0 L 181.0,103.0 L 181.0,121.0 L 180.0,141.0 L 176.0,145.0 L 174.0,146.0 L 168.0,146.0 L 167.0,152.0 L 163.0,158.0 L 156.0,163.0 L 153.0,164.0 L 118.0,164.0 L 118.0,156.0 L 131.0,156.0 L 128.0,149.0 L 128.0,144.0 L 116.0,144.0 L 117.0,100.0 L 119.0,56.0" fill="#FDC009"/>
	<path d="M 14.0,97.0 L 34.0,97.0 L 100.0,99.0 L 117.0,100.0 L 117.0,135.0 L 116.0,144.0 L 72.0,143.0 L 71.0,151.0 L 67.0,158.0 L 57.0,164.0 L 47.0,164.0 L 39.0,160.0 L 34.0,154.0 L 32.0,149.0 L 32.0,141.0 L 17.0,141.0 L 12.0,135.0 L 12.0,116.0 L 13.0,99.0 L 14.0,97.0" fill="#039687"/>
	<path d="M 118.0,51.0 L 119.0,51.0 L 119.0,77.0 L 118.0,100.0 L 100.0,100.0 L 34.0,98.0 L 14.0,97.0 L 13.0,99.0 L 13.0,79.0 L 14.0,53.0 L 15.0,53.0 L 15.0,65.0 L 51.0,65.0 L 70.0,66.0 L 105.0,67.0 L 118.0,68.0 L 118.0,51.0" fill="#4CB5AA"/>
	<path d="M 143.0,125.0 L 153.0,125.0 L 161.0,129.0 L 167.0,137.0 L 168.0,139.0 L 168.0,149.0 L 164.0,157.0 L 156.0,163.0 L 153.0,164.0 L 118.0,164.0 L 118.0,156.0 L 131.0,156.0 L 128.0,149.0 L 128.0,139.0 L 133.0,131.0 L 140.0,126.0 L 143.0,125.0" fill="#604438"/>
	<path d="M 46.0,124.0 L 57.0,124.0 L 65.0,128.0 L 71.0,136.0 L 72.0,139.0 L 72.0,148.0 L 69.0,155.0 L 64.0,160.0 L 57.0,164.0 L 47.0,164.0 L 39.0,160.0 L 34.0,154.0 L 32.0,149.0 L 32.0,138.0 L 37.0,130.0 L 42.0,126.0 L 46.0,124.0" fill="#5E433A"/>
	<path d="M 136.0,65.0 L 160.0,65.0 L 163.0,68.0 L 169.0,90.0 L 169.0,100.0 L 168.0,101.0 L 136.0,101.0 L 133.0,98.0 L 133.0,81.0 L 134.0,67.0 L 136.0,65.0" fill="#7B5748"/>
	<path d="M 134.0,70.0 L 139.0,75.0 L 153.0,89.0 L 160.0,97.0 L 163.0,101.0 L 136.0,101.0 L 133.0,98.0 L 133.0,81.0 L 134.0,70.0" fill="#B9A7A1"/>
	<path d="M 49.0,136.0 L 55.0,136.0 L 60.0,141.0 L 60.0,147.0 L 55.0,152.0 L 49.0,152.0 L 45.0,149.0 L 44.0,141.0 L 49.0,136.0" fill="#B7A59F"/>
	<path d="M 144.0,137.0 L 151.0,137.0 L 156.0,142.0 L 155.0,149.0 L 152.0,152.0 L 144.0,152.0 L 140.0,147.0 L 140.0,141.0 L 144.0,137.0" fill="#B8A6A0"/>
	<path d="M 131.0,155.0 L 138.0,161.0 L 143.0,163.0 L 143.0,164.0 L 118.0,164.0 L 118.0,156.0 L 131.0,155.0" fill="#039486"/>
	<path d="M 134.0,70.0 L 139.0,75.0 L 153.0,89.0 L 160.0,97.0 L 163.0,101.0 L 158.0,101.0 L 151.0,94.0 L 144.0,86.0 L 134.0,76.0 L 134.0,70.0" fill="#B5A39C"/>
	<path d="M 134.0,76.0 L 141.0,82.0 L 151.0,92.0 L 158.0,100.0 L 154.0,101.0 L 141.0,88.0 L 134.0,80.0 L 134.0,76.0" fill="#7D5A4E"/>
	<path d="M 133.0,81.0 L 134.0,81.0 L 135.0,96.0 L 138.0,99.0 L 149.0,100.0 L 149.0,101.0 L 136.0,101.0 L 133.0,98.0 L 133.0,81.0" fill="#B28C4D"/>
</svg>
