<?xml version="1.0" ?>
<svg baseProfile="full" height="600px" version="1.1" viewBox="-19.296000000000003 -19.296000000000003 230.592 230.592" width="600px" xmlns="http://www.w3.org/2000/svg" xmlns:ev="http://www.w3.org/2001/xml-events" xmlns:xlink="http://www.w3.org/1999/xlink">
	<defs/>
	<path d="M 0.0,0.0 L 192.0,0.0 L 192.0,192.0 L 0.0,192.0 L 0.0,0.0" fill="#029587"/>
	<path d="M 0.0,0.0 L 192.0,0.0 L 192.0,192.0 L 0.0,192.0 L 0.0,0.0 M 86.0,26.0 L 46.0,27.0 L 13.0,29.0 L 9.0,32.0 L 9.0,83.0 L 10.0,109.0 L 12.0,140.0 L 16.0,144.0 L 32.0,144.0 L 33.0,152.0 L 39.0,160.0 L 47.0,164.0 L 57.0,164.0 L 65.0,160.0 L 71.0,152.0 L 72.0,143.0 L 87.0,143.0 L 116.0,142.0 L 128.0,141.0 L 128.0,149.0 L 133.0,157.0 L 139.0,162.0 L 144.0,164.0 L 151.0,164.0 L 160.0,160.0 L 166.0,153.0 L 168.0,148.0 L 168.0,139.0 L 175.0,139.0 L 179.0,136.0 L 179.0,98.0 L 173.0,82.0 L 169.0,72.0 L 163.0,56.0 L 158.0,52.0 L 130.0,52.0 L 113.0,53.0 L 112.0,30.0 L 108.0,26.0 L 86.0,26.0" fill="#FDFDFD"/>
	<path d="M 130.0,52.0 L 158.0,52.0 L 163.0,56.0 L 171.0,77.0 L 177.0,93.0 L 179.0,98.0 L 179.0,136.0 L 175.0,139.0 L 168.0,139.0 L 168.0,148.0 L 164.0,156.0 L 157.0,162.0 L 151.0,164.0 L 144.0,164.0 L 136.0,160.0 L 130.0,153.0 L 128.0,149.0 L 128.0,141.0 L 116.0,141.0 L 113.0,61.0 L 113.0,53.0 L 130.0,52.0" fill="#FCBF09"/>
	<path d="M 74.0,98.0 L 114.0,98.0 L 116.0,118.0 L 116.0,142.0 L 87.0,143.0 L 72.0,143.0 L 71.0,152.0 L 65.0,160.0 L 57.0,164.0 L 47.0,164.0 L 39.0,160.0 L 33.0,152.0 L 32.0,144.0 L 16.0,144.0 L 12.0,140.0 L 11.0,122.0 L 11.0,101.0 L 74.0,98.0" fill="#039587"/>
	<path d="M 113.0,61.0 L 114.0,61.0 L 115.0,90.0 L 115.0,106.0 L 114.0,106.0 L 114.0,98.0 L 74.0,99.0 L 32.0,101.0 L 11.0,101.0 L 11.0,109.0 L 10.0,109.0 L 9.0,83.0 L 9.0,64.0 L 10.0,64.0 L 10.0,69.0 L 17.0,68.0 L 59.0,67.0 L 73.0,66.0 L 113.0,66.0 L 113.0,61.0" fill="#4BB5AA"/>
	<path d="M 142.0,124.0 L 155.0,124.0 L 163.0,130.0 L 167.0,136.0 L 168.0,139.0 L 168.0,148.0 L 164.0,156.0 L 157.0,162.0 L 151.0,164.0 L 144.0,164.0 L 136.0,160.0 L 130.0,153.0 L 128.0,149.0 L 128.0,138.0 L 133.0,130.0 L 139.0,125.0 L 142.0,124.0" fill="#604339"/>
	<path d="M 45.0,125.0 L 58.0,125.0 L 64.0,128.0 L 71.0,136.0 L 72.0,139.0 L 72.0,149.0 L 68.0,157.0 L 60.0,163.0 L 57.0,164.0 L 47.0,164.0 L 39.0,160.0 L 33.0,152.0 L 32.0,149.0 L 32.0,139.0 L 36.0,132.0 L 43.0,126.0 L 45.0,125.0" fill="#5E433A"/>
	<path d="M 132.0,60.0 L 155.0,60.0 L 158.0,63.0 L 166.0,85.0 L 166.0,94.0 L 164.0,96.0 L 131.0,96.0 L 130.0,94.0 L 130.0,62.0 L 132.0,60.0" fill="#7B5747"/>
	<path d="M 49.0,136.0 L 56.0,137.0 L 60.0,141.0 L 60.0,147.0 L 55.0,152.0 L 49.0,152.0 L 44.0,147.0 L 44.0,141.0 L 49.0,136.0" fill="#B7A59F"/>
	<path d="M 144.0,136.0 L 152.0,136.0 L 156.0,140.0 L 156.0,146.0 L 152.0,151.0 L 146.0,152.0 L 141.0,148.0 L 140.0,141.0 L 144.0,136.0" fill="#B8A69F"/>
</svg>
