<?xml version="1.0" ?>
<svg baseProfile="full" height="600px" version="1.1" viewBox="-19.296000000000003 -19.296000000000003 230.592 230.592" width="600px" xmlns="http://www.w3.org/2000/svg" xmlns:ev="http://www.w3.org/2001/xml-events" xmlns:xlink="http://www.w3.org/1999/xlink">
	<defs/>
	<path d="M 0.0,0.0 L 192.0,0.0 L 192.0,192.0 L 0.0,192.0 L 0.0,0.0" fill="#019587"/>
	<path d="M 0.0,0.0 L 192.0,0.0 L 192.0,192.0 L 0.0,192.0 L 0.0,0.0 M 17.0,28.0 L 12.0,33.0 L 12.0,139.0 L 17.0,144.0 L 32.0,144.0 L 33.0,152.0 L 39.0,160.0 L 47.0,164.0 L 57.0,164.0 L 65.0,160.0 L 71.0,152.0 L 72.0,144.0 L 128.0,144.0 L 129.0,152.0 L 135.0,160.0 L 143.0,164.0 L 153.0,164.0 L 161.0,160.0 L 167.0,152.0 L 168.0,144.0 L 177.0,143.0 L 180.0,138.0 L 180.0,102.0 L 166.0,60.0 L 161.0,56.0 L 116.0,56.0 L 116.0,33.0 L 111.0,28.0 L 17.0,28.0" fill="#FDFEFD"/>
	<path d="M 116.0,56.0 L 161.0,56.0 L 166.0,60.0 L 180.0,102.0 L 180.0,138.0 L 177.0,143.0 L 168.0,144.0 L 167.0,152.0 L 161.0,160.0 L 153.0,164.0 L 143.0,164.0 L 135.0,160.0 L 129.0,152.0 L 128.0,144.0 L 116.0,144.0 L 116.0,56.0" fill="#FDC008"/>
	<path d="M 12.0,100.0 L 116.0,100.0 L 116.0,144.0 L 72.0,144.0 L 71.0,152.0 L 65.0,160.0 L 57.0,164.0 L 47.0,164.0 L 39.0,160.0 L 33.0,152.0 L 32.0,144.0 L 17.0,144.0 L 12.0,139.0 L 12.0,100.0" fill="#019587"/>
	<path d="M 12.0,68.0 L 116.0,68.0 L 116.0,100.0 L 12.0,100.0 L 12.0,68.0" fill="#4CB5AB"/>
	<path d="M 47.0,124.0 L 57.0,124.0 L 65.0,128.0 L 71.0,136.0 L 72.0,139.0 L 72.0,149.0 L 68.0,157.0 L 62.0,162.0 L 57.0,164.0 L 47.0,164.0 L 39.0,160.0 L 33.0,152.0 L 32.0,149.0 L 32.0,139.0 L 36.0,131.0 L 44.0,125.0 L 47.0,124.0" fill="#5E433A"/>
	<path d="M 143.0,124.0 L 153.0,124.0 L 161.0,128.0 L 167.0,136.0 L 168.0,139.0 L 168.0,149.0 L 164.0,157.0 L 158.0,162.0 L 153.0,164.0 L 143.0,164.0 L 135.0,160.0 L 129.0,152.0 L 128.0,149.0 L 128.0,139.0 L 132.0,131.0 L 140.0,125.0 L 143.0,124.0" fill="#604339"/>
	<path d="M 134.0,64.0 L 158.0,64.0 L 161.0,68.0 L 168.0,89.0 L 168.0,98.0 L 166.0,100.0 L 134.0,100.0 L 132.0,98.0 L 132.0,66.0 L 134.0,64.0" fill="#7A5648"/>
	<path d="M 145.0,136.0 L 153.0,137.0 L 156.0,141.0 L 156.0,147.0 L 151.0,152.0 L 145.0,152.0 L 141.0,149.0 L 140.0,141.0 L 145.0,136.0" fill="#B7A59F"/>
	<path d="M 49.0,136.0 L 57.0,137.0 L 60.0,141.0 L 60.0,147.0 L 55.0,152.0 L 49.0,152.0 L 45.0,149.0 L 44.0,141.0 L 49.0,136.0" fill="#B7A59F"/>
</svg>
