<?xml version="1.0" ?>
<svg baseProfile="full" height="600px" version="1.1" viewBox="-20.1 -20.1 240.2 240.2" width="600px" xmlns="http://www.w3.org/2000/svg" xmlns:ev="http://www.w3.org/2001/xml-events" xmlns:xlink="http://www.w3.org/1999/xlink">
	<defs/>
	<path d="M 0.0,0.0 L 200.0,0.0 L 200.0,200.0 L 0.0,200.0 L 0.0,0.0" fill="#FDFDFD"/>
	<path d="M 106.0,8.0 L 121.0,8.0 L 126.0,11.0 L 129.0,14.0 L 130.0,17.0 L 130.0,47.0 L 126.0,53.0 L 122.0,56.0 L 106.0,56.0 L 100.0,52.0 L 98.0,48.0 L 98.0,36.0 L 10.0,36.0 L 8.0,34.0 L 9.0,29.0 L 10.0,28.0 L 98.0,28.0 L 98.0,15.0 L 102.0,10.0 L 106.0,8.0" fill="#040404"/>
	<path d="M 82.0,144.0 L 97.0,144.0 L 103.0,147.0 L 106.0,152.0 L 106.0,184.0 L 103.0,189.0 L 97.0,192.0 L 82.0,192.0 L 77.0,189.0 L 74.0,183.0 L 74.0,172.0 L 10.0,172.0 L 8.0,170.0 L 9.0,165.0 L 10.0,164.0 L 74.0,164.0 L 74.0,152.0 L 77.0,147.0 L 82.0,144.0" fill="#020202"/>
	<path d="M 76.0,76.0 L 91.0,76.0 L 97.0,79.0 L 100.0,83.0 L 100.0,116.0 L 97.0,121.0 L 91.0,124.0 L 76.0,124.0 L 70.0,119.0 L 68.0,115.0 L 68.0,104.0 L 10.0,104.0 L 8.0,102.0 L 9.0,97.0 L 10.0,96.0 L 68.0,96.0 L 68.0,85.0 L 72.0,79.0 L 76.0,76.0" fill="#060606"/>
	<path d="M 104.0,96.0 L 190.0,96.0 L 192.0,98.0 L 191.0,103.0 L 190.0,104.0 L 104.0,104.0 L 104.0,96.0" fill="#020202"/>
	<path d="M 110.0,164.0 L 190.0,164.0 L 192.0,166.0 L 191.0,171.0 L 190.0,172.0 L 110.0,172.0 L 110.0,164.0" fill="#010101"/>
	<path d="M 84.0,152.0 L 96.0,152.0 L 98.0,154.0 L 98.0,182.0 L 96.0,184.0 L 84.0,184.0 L 82.0,182.0 L 82.0,154.0 L 84.0,152.0" fill="#FBFBFB"/>
	<path d="M 78.0,84.0 L 90.0,84.0 L 92.0,86.0 L 92.0,114.0 L 90.0,116.0 L 78.0,116.0 L 76.0,113.0 L 76.0,87.0 L 78.0,84.0" fill="#F6F6F6"/>
	<path d="M 108.0,16.0 L 120.0,16.0 L 122.0,18.0 L 122.0,45.0 L 119.0,48.0 L 108.0,48.0 L 106.0,46.0 L 106.0,18.0 L 108.0,16.0" fill="#F9F9F9"/>
	<path d="M 134.0,28.0 L 190.0,28.0 L 192.0,30.0 L 191.0,35.0 L 190.0,36.0 L 134.0,36.0 L 134.0,28.0" fill="#010101"/>
</svg>
