<?xml version="1.0" ?>
<svg baseProfile="full" height="600px" version="1.1" viewBox="-12.864 -12.864 153.728 153.728" width="600px" xmlns="http://www.w3.org/2000/svg" xmlns:ev="http://www.w3.org/2001/xml-events" xmlns:xlink="http://www.w3.org/1999/xlink">
	<defs/>
	<path d="M 0.0,0.0 L 128.0,0.0 L 128.0,128.0 L 0.0,128.0 L 0.0,0.0" fill="#FCFCFC"/>
	<path d="M 65.0,16.0 L 74.0,16.0 L 79.0,20.0 L 80.0,22.0 L 80.0,28.0 L 112.0,28.0 L 112.0,36.0 L 80.0,36.0 L 80.0,42.0 L 77.0,47.0 L 74.0,49.0 L 77.0,53.0 L 77.0,60.0 L 112.0,60.0 L 112.0,68.0 L 77.0,68.0 L 77.0,75.0 L 72.0,80.0 L 65.0,81.0 L 69.0,86.0 L 69.0,92.0 L 112.0,92.0 L 112.0,100.0 L 69.0,100.0 L 69.0,106.0 L 65.0,111.0 L 63.0,112.0 L 53.0,112.0 L 49.0,108.0 L 49.0,100.0 L 16.0,100.0 L 16.0,92.0 L 49.0,92.0 L 49.0,84.0 L 53.0,80.0 L 60.0,79.0 L 57.0,74.0 L 57.0,68.0 L 16.0,68.0 L 16.0,60.0 L 57.0,60.0 L 57.0,53.0 L 62.0,48.0 L 62.0,46.0 L 60.0,43.0 L 60.0,36.0 L 16.0,36.0 L 16.0,28.0 L 60.0,28.0 L 60.0,20.0 L 65.0,16.0" fill="#040404"/>
	<path d="M 65.0,56.0 L 69.0,56.0 L 69.0,72.0 L 65.0,72.0 L 65.0,56.0" fill="#F4F4F4"/>
	<path d="M 68.0,24.0 L 72.0,24.0 L 72.0,40.0 L 68.0,40.0 L 68.0,24.0" fill="#E8E8E8"/>
	<path d="M 57.0,88.0 L 60.0,88.0 L 60.0,104.0 L 57.0,104.0 L 57.0,88.0" fill="#FCFCFC"/>
</svg>
