<?xml version="1.0" ?>
<svg baseProfile="full" height="600px" version="1.1" viewBox="-12.864 -12.864 153.728 153.728" width="600px" xmlns="http://www.w3.org/2000/svg" xmlns:ev="http://www.w3.org/2001/xml-events" xmlns:xlink="http://www.w3.org/1999/xlink">
	<defs/>
	<path d="M 0.0,0.0 L 128.0,0.0 L 128.0,128.0 L 0.0,128.0 L 0.0,0.0" fill="#FDFDFD"/>
	<path d="M 33.0,80.0 L 43.0,80.0 L 48.0,85.0 L 48.0,92.0 L 112.0,92.0 L 112.0,100.0 L 48.0,100.0 L 47.0,109.0 L 43.0,112.0 L 33.0,112.0 L 28.0,107.0 L 28.0,100.0 L 16.0,100.0 L 16.0,92.0 L 28.0,92.0 L 28.0,85.0 L 33.0,80.0" fill="#020202"/>
	<path d="M 81.0,48.0 L 91.0,48.0 L 96.0,53.0 L 96.0,60.0 L 112.0,60.0 L 112.0,68.0 L 96.0,68.0 L 95.0,77.0 L 91.0,80.0 L 81.0,80.0 L 76.0,75.0 L 76.0,68.0 L 16.0,68.0 L 16.0,60.0 L 76.0,60.0 L 76.0,53.0 L 81.0,48.0" fill="#020202"/>
	<path d="M 49.0,16.0 L 59.0,16.0 L 64.0,21.0 L 64.0,28.0 L 112.0,28.0 L 112.0,36.0 L 64.0,36.0 L 63.0,45.0 L 59.0,48.0 L 49.0,48.0 L 44.0,43.0 L 44.0,36.0 L 16.0,36.0 L 16.0,28.0 L 44.0,28.0 L 44.0,21.0 L 49.0,16.0" fill="#020202"/>
	<path d="M 36.0,88.0 L 40.0,88.0 L 40.0,104.0 L 36.0,104.0 L 36.0,88.0" fill="#F8F8F8"/>
	<path d="M 84.0,56.0 L 88.0,56.0 L 88.0,72.0 L 84.0,72.0 L 84.0,56.0" fill="#FCFCFC"/>
	<path d="M 52.0,24.0 L 56.0,24.0 L 56.0,40.0 L 52.0,40.0 L 52.0,24.0" fill="#F8F8F8"/>
</svg>
