<?xml version="1.0" ?>
<svg baseProfile="full" height="600px" version="1.1" viewBox="-12.06 -12.06 144.12 144.12" width="600px" xmlns="http://www.w3.org/2000/svg" xmlns:ev="http://www.w3.org/2001/xml-events" xmlns:xlink="http://www.w3.org/1999/xlink">
	<defs/>
	<path d="M 0.0,0.0 L 120.0,0.0 L 120.0,120.0 L 0.0,120.0 L 0.0,0.0" fill="#FDFDFD"/>
	<path d="M 60.0,20.0 L 67.0,21.0 L 70.0,24.0 L 71.0,30.0 L 67.0,35.0 L 65.0,36.0 L 59.0,36.0 L 56.0,33.0 L 14.0,32.0 L 12.0,30.0 L 13.0,25.0 L 14.0,24.0 L 56.0,23.0 L 60.0,20.0" fill="#030303"/>
	<path d="M 49.0,84.0 L 55.0,84.0 L 60.0,89.0 L 59.0,97.0 L 54.0,100.0 L 47.0,99.0 L 45.0,97.0 L 14.0,96.0 L 12.0,94.0 L 13.0,89.0 L 14.0,88.0 L 45.0,87.0 L 49.0,84.0" fill="#040404"/>
	<path d="M 47.0,52.0 L 53.0,52.0 L 58.0,56.0 L 59.0,62.0 L 55.0,67.0 L 53.0,68.0 L 47.0,68.0 L 44.0,65.0 L 14.0,64.0 L 12.0,62.0 L 13.0,57.0 L 14.0,56.0 L 44.0,55.0 L 47.0,52.0" fill="#040404"/>
	<path d="M 66.0,56.0 L 106.0,56.0 L 108.0,58.0 L 107.0,63.0 L 106.0,64.0 L 66.0,64.0 L 66.0,56.0" fill="#010101"/>
	<path d="M 67.0,88.0 L 106.0,88.0 L 108.0,90.0 L 107.0,95.0 L 106.0,96.0 L 67.0,96.0 L 67.0,88.0" fill="#020202"/>
	<path d="M 78.0,24.0 L 106.0,24.0 L 108.0,26.0 L 107.0,31.0 L 106.0,32.0 L 78.0,32.0 L 78.0,24.0" fill="#020202"/>
</svg>
