<?xml version="1.0" ?>
<svg baseProfile="full" height="600px" version="1.1" viewBox="-19.296000000000003 -19.296000000000003 230.592 230.592" width="600px" xmlns="http://www.w3.org/2000/svg" xmlns:ev="http://www.w3.org/2001/xml-events" xmlns:xlink="http://www.w3.org/1999/xlink">
	<defs/>
	<path d="M 0.0,0.0 L 192.0,0.0 L 192.0,192.0 L 0.0,192.0 L 0.0,0.0" fill="#FEFDFD"/>
	<path d="M 50.0,136.0 L 66.0,136.0 L 68.0,138.0 L 68.0,144.0 L 168.0,144.0 L 168.0,160.0 L 68.0,160.0 L 68.0,166.0 L 66.0,168.0 L 50.0,168.0 L 48.0,166.0 L 48.0,160.0 L 24.0,160.0 L 24.0,144.0 L 48.0,144.0 L 48.0,138.0 L 50.0,136.0" fill="#CFD8DC"/>
	<path d="M 66.0,24.0 L 82.0,24.0 L 84.0,26.0 L 84.0,32.0 L 168.0,32.0 L 168.0,48.0 L 84.0,48.0 L 84.0,54.0 L 82.0,56.0 L 66.0,56.0 L 64.0,54.0 L 64.0,48.0 L 24.0,48.0 L 24.0,32.0 L 64.0,32.0 L 64.0,26.0 L 66.0,24.0" fill="#CFD8DC"/>
	<path d="M 118.0,80.0 L 134.0,80.0 L 136.0,82.0 L 136.0,110.0 L 134.0,112.0 L 118.0,112.0 L 116.0,110.0 L 116.0,104.0 L 24.0,104.0 L 24.0,88.0 L 116.0,88.0 L 116.0,82.0 L 118.0,80.0" fill="#FD6C00"/>
	<path d="M 66.0,24.0 L 82.0,24.0 L 84.0,26.0 L 84.0,54.0 L 82.0,56.0 L 66.0,56.0 L 64.0,54.0 L 64.0,48.0 L 24.0,48.0 L 24.0,32.0 L 64.0,32.0 L 64.0,26.0 L 66.0,24.0" fill="#FD6C00"/>
	<path d="M 50.0,136.0 L 66.0,136.0 L 68.0,138.0 L 68.0,166.0 L 66.0,168.0 L 50.0,168.0 L 48.0,166.0 L 48.0,160.0 L 24.0,160.0 L 24.0,144.0 L 48.0,144.0 L 48.0,138.0 L 50.0,136.0" fill="#BF370E"/>
	<path d="M 118.0,80.0 L 134.0,80.0 L 136.0,82.0 L 136.0,110.0 L 134.0,112.0 L 118.0,112.0 L 116.0,110.0 L 116.0,82.0 L 118.0,80.0" fill="#BF370E"/>
	<path d="M 66.0,24.0 L 82.0,24.0 L 84.0,26.0 L 84.0,54.0 L 82.0,56.0 L 66.0,56.0 L 64.0,54.0 L 64.0,26.0 L 66.0,24.0" fill="#BF370D"/>
	<path d="M 136.0,88.0 L 168.0,88.0 L 168.0,104.0 L 136.0,104.0 L 136.0,88.0" fill="#CFD8DC"/>
	<path d="M 24.0,144.0 L 48.0,144.0 L 48.0,160.0 L 24.0,160.0 L 24.0,144.0" fill="#FD6C00"/>
</svg>
