<?xml version="1.0" ?>
<svg baseProfile="full" height="600px" version="1.1" viewBox="-20.1 -20.1 240.2 240.2" width="600px" xmlns="http://www.w3.org/2000/svg" xmlns:ev="http://www.w3.org/2001/xml-events" xmlns:xlink="http://www.w3.org/1999/xlink">
	<defs/>
	<path d="M 0.0,0.0 L 200.0,0.0 L 200.0,200.0 L 0.0,200.0 L 0.0,0.0" fill="#FDFDFD"/>
	<path d="M 91.0,76.0 L 106.0,76.0 L 112.0,79.0 L 115.0,84.0 L 115.0,115.0 L 112.0,121.0 L 106.0,124.0 L 91.0,124.0 L 84.0,118.0 L 83.0,116.0 L 83.0,104.0 L 10.0,104.0 L 8.0,102.0 L 9.0,97.0 L 10.0,96.0 L 83.0,96.0 L 83.0,84.0 L 89.0,77.0 L 91.0,76.0" fill="#020202"/>
	<path d="M 88.0,8.0 L 103.0,8.0 L 108.0,11.0 L 112.0,16.0 L 112.0,48.0 L 106.0,55.0 L 104.0,56.0 L 88.0,56.0 L 82.0,52.0 L 80.0,47.0 L 80.0,36.0 L 10.0,36.0 L 8.0,34.0 L 9.0,29.0 L 10.0,28.0 L 80.0,28.0 L 80.0,16.0 L 84.0,10.0 L 88.0,8.0" fill="#030303"/>
	<path d="M 76.0,144.0 L 91.0,144.0 L 97.0,149.0 L 99.0,153.0 L 99.0,182.0 L 96.0,188.0 L 91.0,192.0 L 75.0,192.0 L 69.0,188.0 L 67.0,184.0 L 67.0,172.0 L 10.0,172.0 L 8.0,170.0 L 9.0,165.0 L 10.0,164.0 L 67.0,164.0 L 67.0,151.0 L 71.0,146.0 L 76.0,144.0" fill="#060606"/>
	<path d="M 103.0,164.0 L 190.0,164.0 L 192.0,166.0 L 191.0,171.0 L 190.0,172.0 L 103.0,172.0 L 103.0,164.0" fill="#010101"/>
	<path d="M 116.0,28.0 L 190.0,28.0 L 192.0,30.0 L 191.0,35.0 L 190.0,36.0 L 116.0,36.0 L 116.0,28.0" fill="#010101"/>
	<path d="M 119.0,96.0 L 190.0,96.0 L 192.0,98.0 L 191.0,103.0 L 190.0,104.0 L 119.0,104.0 L 119.0,96.0" fill="#010101"/>
	<path d="M 93.0,84.0 L 105.0,84.0 L 107.0,86.0 L 107.0,114.0 L 105.0,116.0 L 93.0,116.0 L 91.0,114.0 L 91.0,86.0 L 93.0,84.0" fill="#FAFAFA"/>
	<path d="M 90.0,16.0 L 102.0,16.0 L 104.0,18.0 L 104.0,46.0 L 102.0,48.0 L 90.0,48.0 L 88.0,46.0 L 88.0,18.0 L 90.0,16.0" fill="#F9F9F9"/>
	<path d="M 77.0,152.0 L 88.0,152.0 L 91.0,155.0 L 91.0,181.0 L 88.0,184.0 L 77.0,184.0 L 75.0,182.0 L 75.0,154.0 L 77.0,152.0" fill="#F7F7F7"/>
</svg>
