<?xml version="1.0" ?>
<svg baseProfile="full" height="600px" version="1.1" viewBox="-16.08 -16.08 192.16 192.16" width="600px" xmlns="http://www.w3.org/2000/svg" xmlns:ev="http://www.w3.org/2001/xml-events" xmlns:xlink="http://www.w3.org/1999/xlink">
	<defs/>
	<path d="M 0.0,0.0 L 160.0,0.0 L 160.0,160.0 L 0.0,160.0 L 0.0,0.0" fill="#FEFEFE"/>
	<path d="M 89.0,112.0 L 110.0,112.0 L 110.0,116.0 L 152.0,116.0 L 152.0,140.0 L 110.0,140.0 L 110.0,144.0 L 89.0,144.0 L 89.0,140.0 L 8.0,140.0 L 8.0,116.0 L 89.0,116.0 L 89.0,112.0" fill="#609D77"/>
	<path d="M 24.0,64.0 L 45.0,64.0 L 45.0,68.0 L 152.0,68.0 L 152.0,92.0 L 45.0,92.0 L 45.0,96.0 L 24.0,96.0 L 24.0,92.0 L 8.0,92.0 L 8.0,68.0 L 24.0,68.0 L 24.0,64.0" fill="#629F79"/>
	<path d="M 111.0,16.0 L 130.0,16.0 L 130.0,48.0 L 111.0,48.0 L 111.0,44.0 L 8.0,44.0 L 8.0,20.0 L 111.0,20.0 L 111.0,16.0" fill="#B7DEBB"/>
	<path d="M 45.0,72.0 L 148.0,72.0 L 148.0,88.0 L 45.0,88.0 L 45.0,72.0" fill="#DFE9F1"/>
	<path d="M 111.0,16.0 L 130.0,16.0 L 130.0,48.0 L 111.0,48.0 L 111.0,44.0 L 8.0,44.0 L 8.0,20.0 L 111.0,20.0 L 111.0,16.0 M 12.0,24.0 L 12.0,40.0 L 111.0,40.0 L 111.0,24.0 L 12.0,24.0" fill="#5F9D77"/>
	<path d="M 12.0,120.0 L 89.0,120.0 L 89.0,136.0 L 12.0,136.0 L 12.0,120.0" fill="#B7DEBB"/>
	<path d="M 44.0,64.0 L 45.0,68.0 L 152.0,68.0 L 152.0,92.0 L 45.0,92.0 L 44.0,96.0 L 44.0,64.0 M 45.0,72.0 L 45.0,88.0 L 148.0,88.0 L 148.0,72.0 L 45.0,72.0" fill="#A1B7C9"/>
	<path d="M 110.0,120.0 L 148.0,120.0 L 148.0,136.0 L 110.0,136.0 L 110.0,120.0" fill="#DFE9F1"/>
	<path d="M 130.0,16.0 L 131.0,20.0 L 152.0,20.0 L 152.0,44.0 L 131.0,44.0 L 130.0,48.0 L 130.0,16.0" fill="#DFE9F1"/>
	<path d="M 109.0,112.0 L 110.0,116.0 L 152.0,116.0 L 152.0,140.0 L 110.0,140.0 L 109.0,144.0 L 109.0,112.0 M 110.0,120.0 L 110.0,136.0 L 148.0,136.0 L 148.0,120.0 L 110.0,120.0" fill="#A2B8C9"/>
	<path d="M 93.0,116.0 L 105.0,116.0 L 105.0,140.0 L 93.0,140.0 L 93.0,116.0" fill="#B5DCB9"/>
	<path d="M 28.0,68.0 L 40.0,68.0 L 40.0,92.0 L 28.0,92.0 L 28.0,68.0" fill="#B4DCB9"/>
	<path d="M 115.0,20.0 L 127.0,20.0 L 127.0,44.0 L 115.0,44.0 L 115.0,20.0" fill="#B5DCB9"/>
	<path d="M 130.0,16.0 L 131.0,20.0 L 152.0,20.0 L 152.0,44.0 L 131.0,44.0 L 130.0,48.0 L 130.0,16.0 M 131.0,24.0 L 131.0,40.0 L 148.0,40.0 L 148.0,24.0 L 131.0,24.0" fill="#9EB6C4"/>
	<path d="M 12.0,72.0 L 24.0,72.0 L 24.0,88.0 L 12.0,88.0 L 12.0,72.0" fill="#B7DEBB"/>
</svg>
