<?xml version="1.0" ?>
<svg baseProfile="full" height="600px" version="1.1" viewBox="-20.1 -20.1 240.2 240.2" width="600px" xmlns="http://www.w3.org/2000/svg" xmlns:ev="http://www.w3.org/2001/xml-events" xmlns:xlink="http://www.w3.org/1999/xlink">
	<defs/>
	<path d="M 0.0,0.0 L 200.0,0.0 L 200.0,200.0 L 0.0,200.0 L 0.0,0.0" fill="#FDFDFD"/>
	<path d="M 140.0,76.0 L 155.0,76.0 L 161.0,79.0 L 164.0,84.0 L 164.0,116.0 L 161.0,121.0 L 155.0,124.0 L 140.0,124.0 L 135.0,121.0 L 132.0,115.0 L 132.0,104.0 L 10.0,104.0 L 8.0,102.0 L 9.0,97.0 L 10.0,96.0 L 132.0,96.0 L 132.0,84.0 L 135.0,79.0 L 140.0,76.0" fill="#020202"/>
	<path d="M 36.0,144.0 L 51.0,144.0 L 57.0,147.0 L 60.0,152.0 L 60.0,184.0 L 56.0,190.0 L 51.0,192.0 L 36.0,192.0 L 29.0,186.0 L 28.0,183.0 L 28.0,172.0 L 10.0,172.0 L 8.0,170.0 L 9.0,165.0 L 10.0,164.0 L 28.0,164.0 L 28.0,152.0 L 34.0,145.0 L 36.0,144.0" fill="#040404"/>
	<path d="M 28.0,8.0 L 43.0,8.0 L 49.0,11.0 L 52.0,16.0 L 52.0,48.0 L 49.0,53.0 L 43.0,56.0 L 28.0,56.0 L 23.0,53.0 L 20.0,47.0 L 20.0,36.0 L 10.0,36.0 L 8.0,34.0 L 9.0,29.0 L 10.0,28.0 L 20.0,28.0 L 20.0,16.0 L 23.0,11.0 L 28.0,8.0" fill="#030303"/>
	<path d="M 56.0,28.0 L 190.0,28.0 L 192.0,30.0 L 191.0,35.0 L 190.0,36.0 L 56.0,36.0 L 56.0,28.0" fill="#000000"/>
	<path d="M 64.0,164.0 L 190.0,164.0 L 192.0,166.0 L 191.0,171.0 L 190.0,172.0 L 64.0,172.0 L 64.0,164.0" fill="#010101"/>
	<path d="M 38.0,152.0 L 50.0,152.0 L 52.0,154.0 L 52.0,182.0 L 50.0,184.0 L 38.0,184.0 L 36.0,182.0 L 36.0,154.0 L 38.0,152.0" fill="#F9F9F9"/>
	<path d="M 142.0,84.0 L 154.0,84.0 L 156.0,86.0 L 156.0,114.0 L 154.0,116.0 L 142.0,116.0 L 140.0,114.0 L 140.0,86.0 L 142.0,84.0" fill="#FBFBFB"/>
	<path d="M 30.0,16.0 L 42.0,16.0 L 44.0,18.0 L 44.0,46.0 L 42.0,48.0 L 30.0,48.0 L 28.0,46.0 L 28.0,18.0 L 30.0,16.0" fill="#FBFBFB"/>
	<path d="M 168.0,96.0 L 190.0,96.0 L 192.0,98.0 L 191.0,103.0 L 190.0,104.0 L 168.0,104.0 L 168.0,96.0" fill="#020202"/>
</svg>
