<?xml version="1.0" ?>
<svg baseProfile="full" height="600px" version="1.1" viewBox="-19.296000000000003 -19.296000000000003 230.592 230.592" width="600px" xmlns="http://www.w3.org/2000/svg" xmlns:ev="http://www.w3.org/2001/xml-events" xmlns:xlink="http://www.w3.org/1999/xlink">
	<defs/>
	<path d="M 0.0,0.0 L 192.0,0.0 L 192.0,192.0 L 0.0,192.0 L 0.0,0.0" fill="#FEFDFD"/>
	<path d="M 49.0,80.0 L 65.0,80.0 L 67.0,82.0 L 67.0,88.0 L 168.0,88.0 L 168.0,104.0 L 67.0,104.0 L 66.0,111.0 L 65.0,112.0 L 49.0,112.0 L 47.0,110.0 L 47.0,104.0 L 24.0,104.0 L 24.0,88.0 L 47.0,88.0 L 47.0,82.0 L 49.0,80.0" fill="#CFD8DC"/>
	<path d="M 130.0,24.0 L 147.0,24.0 L 148.0,25.0 L 148.0,55.0 L 147.0,56.0 L 130.0,56.0 L 128.0,53.0 L 128.0,48.0 L 24.0,48.0 L 24.0,32.0 L 128.0,32.0 L 129.0,25.0 L 130.0,24.0" fill="#FD6C01"/>
	<path d="M 125.0,136.0 L 141.0,136.0 L 143.0,138.0 L 143.0,166.0 L 141.0,168.0 L 125.0,168.0 L 123.0,165.0 L 123.0,160.0 L 24.0,160.0 L 24.0,144.0 L 123.0,144.0 L 124.0,137.0 L 125.0,136.0" fill="#FD6C00"/>
	<path d="M 49.0,80.0 L 65.0,80.0 L 67.0,82.0 L 67.0,109.0 L 65.0,112.0 L 49.0,112.0 L 47.0,110.0 L 47.0,104.0 L 24.0,104.0 L 24.0,88.0 L 47.0,88.0 L 47.0,82.0 L 49.0,80.0" fill="#C0390F"/>
	<path d="M 125.0,136.0 L 141.0,136.0 L 143.0,138.0 L 143.0,166.0 L 141.0,168.0 L 125.0,168.0 L 123.0,165.0 L 123.0,139.0 L 125.0,136.0" fill="#C0390E"/>
	<path d="M 130.0,24.0 L 147.0,24.0 L 148.0,25.0 L 148.0,55.0 L 147.0,56.0 L 130.0,56.0 L 129.0,55.0 L 129.0,25.0 L 130.0,24.0" fill="#BF370E"/>
	<path d="M 143.0,139.0 L 144.0,139.0 L 144.0,144.0 L 168.0,144.0 L 168.0,160.0 L 144.0,160.0 L 144.0,165.0 L 143.0,165.0 L 143.0,139.0" fill="#CFD4D7"/>
	<path d="M 24.0,88.0 L 47.0,88.0 L 47.0,104.0 L 24.0,104.0 L 24.0,88.0" fill="#FD6B00"/>
	<path d="M 148.0,26.0 L 149.0,26.0 L 149.0,32.0 L 168.0,32.0 L 168.0,48.0 L 149.0,48.0 L 149.0,54.0 L 148.0,54.0 L 148.0,26.0" fill="#CFD1D3"/>
</svg>
