<?xml version="1.0" ?>
<svg baseProfile="full" height="600px" version="1.1" viewBox="-16.08 -16.08 192.16 192.16" width="600px" xmlns="http://www.w3.org/2000/svg" xmlns:ev="http://www.w3.org/2001/xml-events" xmlns:xlink="http://www.w3.org/1999/xlink">
	<defs/>
	<path d="M 0.0,0.0 L 160.0,0.0 L 160.0,160.0 L 0.0,160.0 L 0.0,0.0" fill="#FEFEFE"/>
	<path d="M 96.0,112.0 L 117.0,112.0 L 117.0,116.0 L 152.0,116.0 L 152.0,140.0 L 117.0,140.0 L 117.0,144.0 L 96.0,144.0 L 96.0,140.0 L 8.0,140.0 L 8.0,116.0 L 96.0,116.0 L 96.0,112.0" fill="#619E79"/>
	<path d="M 28.0,64.0 L 48.0,64.0 L 48.0,68.0 L 152.0,68.0 L 152.0,92.0 L 48.0,92.0 L 48.0,96.0 L 28.0,96.0 L 28.0,92.0 L 8.0,92.0 L 8.0,68.0 L 28.0,68.0 L 28.0,64.0" fill="#5E9C76"/>
	<path d="M 118.0,16.0 L 138.0,16.0 L 138.0,48.0 L 118.0,48.0 L 118.0,44.0 L 8.0,44.0 L 8.0,20.0 L 118.0,20.0 L 118.0,16.0" fill="#B7DEBB"/>
	<path d="M 48.0,72.0 L 148.0,72.0 L 148.0,88.0 L 48.0,88.0 L 48.0,72.0" fill="#DFE9F1"/>
	<path d="M 118.0,16.0 L 138.0,16.0 L 138.0,48.0 L 118.0,48.0 L 118.0,44.0 L 8.0,44.0 L 8.0,20.0 L 118.0,20.0 L 118.0,16.0 M 12.0,24.0 L 12.0,40.0 L 118.0,40.0 L 118.0,24.0 L 12.0,24.0" fill="#5E9C76"/>
	<path d="M 12.0,120.0 L 96.0,120.0 L 96.0,136.0 L 12.0,136.0 L 12.0,120.0" fill="#B7DEBB"/>
	<path d="M 48.0,68.0 L 152.0,68.0 L 152.0,92.0 L 48.0,92.0 L 48.0,88.0 L 148.0,88.0 L 148.0,72.0 L 48.0,72.0 L 48.0,68.0" fill="#A1B6CA"/>
	<path d="M 117.0,120.0 L 148.0,120.0 L 148.0,136.0 L 117.0,136.0 L 117.0,120.0" fill="#DFE9F1"/>
	<path d="M 116.0,112.0 L 117.0,116.0 L 152.0,116.0 L 152.0,140.0 L 117.0,140.0 L 116.0,144.0 L 116.0,112.0 M 117.0,120.0 L 117.0,136.0 L 148.0,136.0 L 148.0,120.0 L 117.0,120.0" fill="#A0B6C7"/>
	<path d="M 138.0,20.0 L 152.0,20.0 L 152.0,44.0 L 138.0,44.0 L 138.0,20.0" fill="#A1B6CA"/>
	<path d="M 32.0,68.0 L 44.0,68.0 L 44.0,92.0 L 32.0,92.0 L 32.0,68.0" fill="#B7DEBB"/>
	<path d="M 122.0,20.0 L 134.0,20.0 L 134.0,44.0 L 122.0,44.0 L 122.0,20.0" fill="#B7DEBB"/>
	<path d="M 101.0,116.0 L 112.0,116.0 L 112.0,140.0 L 101.0,140.0 L 101.0,116.0" fill="#B8DEBB"/>
	<path d="M 12.0,72.0 L 28.0,72.0 L 28.0,88.0 L 12.0,88.0 L 12.0,72.0" fill="#B7DEBB"/>
	<path d="M 138.0,24.0 L 148.0,24.0 L 148.0,40.0 L 138.0,40.0 L 138.0,24.0" fill="#DFE9F0"/>
</svg>
