<?xml version="1.0" ?>
<svg baseProfile="full" height="600px" version="1.1" viewBox="-20.1 -20.1 240.2 240.2" width="600px" xmlns="http://www.w3.org/2000/svg" xmlns:ev="http://www.w3.org/2001/xml-events" xmlns:xlink="http://www.w3.org/1999/xlink">
	<defs/>
	<path d="M 0.0,0.0 L 200.0,0.0 L 200.0,200.0 L 0.0,200.0 L 0.0,0.0" fill="#FDFDFD"/>
	<path d="M 132.0,76.0 L 147.0,76.0 L 153.0,79.0 L 156.0,84.0 L 156.0,116.0 L 153.0,121.0 L 147.0,124.0 L 132.0,124.0 L 127.0,121.0 L 124.0,115.0 L 124.0,104.0 L 10.0,104.0 L 8.0,102.0 L 9.0,97.0 L 10.0,96.0 L 124.0,96.0 L 124.0,84.0 L 127.0,79.0 L 132.0,76.0" fill="#020202"/>
	<path d="M 60.0,8.0 L 75.0,8.0 L 81.0,11.0 L 84.0,16.0 L 84.0,48.0 L 81.0,53.0 L 75.0,56.0 L 60.0,56.0 L 55.0,53.0 L 52.0,47.0 L 52.0,36.0 L 10.0,36.0 L 8.0,34.0 L 9.0,29.0 L 10.0,28.0 L 52.0,28.0 L 52.0,16.0 L 55.0,11.0 L 60.0,8.0" fill="#020202"/>
	<path d="M 48.0,144.0 L 63.0,144.0 L 69.0,147.0 L 72.0,152.0 L 72.0,184.0 L 69.0,189.0 L 63.0,192.0 L 48.0,192.0 L 43.0,189.0 L 40.0,183.0 L 40.0,172.0 L 10.0,172.0 L 8.0,170.0 L 9.0,165.0 L 10.0,164.0 L 40.0,164.0 L 40.0,152.0 L 43.0,147.0 L 48.0,144.0" fill="#030303"/>
	<path d="M 76.0,164.0 L 190.0,164.0 L 192.0,166.0 L 191.0,171.0 L 190.0,172.0 L 76.0,172.0 L 76.0,164.0" fill="#010101"/>
	<path d="M 88.0,28.0 L 190.0,28.0 L 192.0,30.0 L 191.0,35.0 L 190.0,36.0 L 88.0,36.0 L 88.0,28.0" fill="#010101"/>
	<path d="M 50.0,152.0 L 62.0,152.0 L 64.0,154.0 L 64.0,182.0 L 62.0,184.0 L 50.0,184.0 L 48.0,182.0 L 48.0,154.0 L 50.0,152.0" fill="#FBFBFB"/>
	<path d="M 134.0,84.0 L 146.0,84.0 L 148.0,86.0 L 148.0,114.0 L 146.0,116.0 L 134.0,116.0 L 132.0,114.0 L 132.0,86.0 L 134.0,84.0" fill="#FBFBFB"/>
	<path d="M 62.0,16.0 L 74.0,16.0 L 76.0,18.0 L 76.0,46.0 L 74.0,48.0 L 62.0,48.0 L 60.0,46.0 L 60.0,18.0 L 62.0,16.0" fill="#FBFBFB"/>
	<path d="M 160.0,96.0 L 190.0,96.0 L 192.0,98.0 L 191.0,103.0 L 190.0,104.0 L 160.0,104.0 L 160.0,96.0" fill="#010101"/>
</svg>
