<?xml version="1.0" ?>
<svg baseProfile="full" height="600px" version="1.1" viewBox="-12.864 -12.864 153.728 153.728" width="600px" xmlns="http://www.w3.org/2000/svg" xmlns:ev="http://www.w3.org/2001/xml-events" xmlns:xlink="http://www.w3.org/1999/xlink">
	<defs/>
	<path d="M 0.0,0.0 L 128.0,0.0 L 128.0,128.0 L 0.0,128.0 L 0.0,0.0" fill="#FCFCFC"/>
	<path d="M 56.0,48.0 L 65.0,48.0 L 70.0,52.0 L 71.0,54.0 L 71.0,60.0 L 112.0,60.0 L 112.0,68.0 L 71.0,68.0 L 71.0,74.0 L 67.0,79.0 L 73.0,82.0 L 76.0,85.0 L 76.0,92.0 L 112.0,92.0 L 112.0,100.0 L 76.0,100.0 L 76.0,106.0 L 73.0,111.0 L 71.0,112.0 L 61.0,112.0 L 56.0,107.0 L 56.0,100.0 L 16.0,100.0 L 16.0,92.0 L 56.0,92.0 L 56.0,84.0 L 59.0,81.0 L 54.0,79.0 L 51.0,76.0 L 51.0,68.0 L 16.0,68.0 L 16.0,60.0 L 51.0,60.0 L 51.0,52.0 L 56.0,48.0" fill="#040404"/>
	<path d="M 70.0,16.0 L 79.0,16.0 L 84.0,19.0 L 85.0,21.0 L 85.0,28.0 L 112.0,28.0 L 112.0,36.0 L 85.0,36.0 L 84.0,45.0 L 80.0,48.0 L 70.0,48.0 L 66.0,45.0 L 65.0,36.0 L 16.0,36.0 L 16.0,28.0 L 65.0,28.0 L 65.0,21.0 L 70.0,16.0" fill="#020202"/>
	<path d="M 64.0,88.0 L 68.0,88.0 L 68.0,104.0 L 64.0,104.0 L 64.0,88.0" fill="#ECECEC"/>
	<path d="M 73.0,24.0 L 77.0,24.0 L 77.0,40.0 L 73.0,40.0 L 73.0,24.0" fill="#F8F8F8"/>
	<path d="M 59.0,56.0 L 62.0,56.0 L 62.0,72.0 L 59.0,72.0 L 59.0,56.0" fill="#FCFCFC"/>
</svg>
