<?xml version="1.0" ?>
<svg baseProfile="full" height="600px" version="1.1" viewBox="-9.648000000000001 -9.648000000000001 115.296 115.296" width="600px" xmlns="http://www.w3.org/2000/svg" xmlns:ev="http://www.w3.org/2001/xml-events" xmlns:xlink="http://www.w3.org/1999/xlink">
	<defs/>
	<path d="M 0.0,0.0 L 96.0,0.0 L 96.0,96.0 L 0.0,96.0 L 0.0,0.0" fill="#FDFDFD"/>
	<path d="M 66.0,36.0 L 74.0,36.0 L 76.0,38.0 L 76.0,58.0 L 74.0,60.0 L 66.0,60.0 L 64.0,58.0 L 64.0,52.0 L 8.0,52.0 L 8.0,44.0 L 64.0,44.0 L 64.0,38.0 L 66.0,36.0" fill="#010101"/>
	<path d="M 32.0,72.0 L 88.0,72.0 L 88.0,80.0 L 32.0,80.0 L 32.0,72.0" fill="#010101"/>
	<path d="M 36.0,16.0 L 88.0,16.0 L 88.0,24.0 L 36.0,24.0 L 36.0,16.0" fill="#000000"/>
	<path d="M 18.0,8.0 L 26.0,8.0 L 28.0,10.0 L 28.0,30.0 L 26.0,32.0 L 18.0,32.0 L 16.0,30.0 L 16.0,24.0 L 8.0,24.0 L 8.0,16.0 L 16.0,16.0 L 16.0,10.0 L 18.0,8.0" fill="#020202"/>
	<path d="M 14.0,64.0 L 22.0,64.0 L 24.0,66.0 L 24.0,86.0 L 22.0,88.0 L 14.0,88.0 L 12.0,86.0 L 12.0,80.0 L 8.0,80.0 L 8.0,72.0 L 12.0,72.0 L 12.0,66.0 L 14.0,64.0" fill="#030303"/>
	<path d="M 84.0,44.0 L 88.0,44.0 L 88.0,52.0 L 84.0,52.0 L 84.0,44.0" fill="#000000"/>
</svg>
