<?xml version="1.0" ?>
<svg baseProfile="full" height="600px" version="1.1" viewBox="-16.08 -16.08 192.16 192.16" width="600px" xmlns="http://www.w3.org/2000/svg" xmlns:ev="http://www.w3.org/2001/xml-events" xmlns:xlink="http://www.w3.org/1999/xlink">
	<defs/>
	<path d="M 0.0,0.0 L 160.0,0.0 L 160.0,160.0 L 0.0,160.0 L 0.0,0.0" fill="#FEFEFE"/>
	<path d="M 68.0,64.0 L 89.0,64.0 L 89.0,68.0 L 152.0,68.0 L 152.0,92.0 L 89.0,92.0 L 89.0,96.0 L 68.0,96.0 L 68.0,92.0 L 8.0,92.0 L 8.0,68.0 L 68.0,68.0 L 68.0,64.0" fill="#629F79"/>
	<path d="M 54.0,112.0 L 74.0,112.0 L 74.0,116.0 L 152.0,116.0 L 152.0,140.0 L 74.0,140.0 L 74.0,144.0 L 54.0,144.0 L 54.0,140.0 L 8.0,140.0 L 8.0,116.0 L 54.0,116.0 L 54.0,112.0" fill="#619E78"/>
	<path d="M 79.0,16.0 L 99.0,16.0 L 99.0,20.0 L 152.0,20.0 L 152.0,44.0 L 99.0,44.0 L 99.0,48.0 L 79.0,48.0 L 79.0,44.0 L 8.0,44.0 L 8.0,20.0 L 79.0,20.0 L 79.0,16.0" fill="#5E9C76"/>
	<path d="M 74.0,120.0 L 148.0,120.0 L 148.0,136.0 L 74.0,136.0 L 74.0,120.0" fill="#DFE9F1"/>
	<path d="M 12.0,24.0 L 79.0,24.0 L 79.0,40.0 L 12.0,40.0 L 12.0,24.0" fill="#B7DEBB"/>
	<path d="M 89.0,72.0 L 148.0,72.0 L 148.0,88.0 L 89.0,88.0 L 89.0,72.0" fill="#DFE9F1"/>
	<path d="M 12.0,72.0 L 68.0,72.0 L 68.0,88.0 L 12.0,88.0 L 12.0,72.0" fill="#B7DEBB"/>
	<path d="M 99.0,24.0 L 148.0,24.0 L 148.0,40.0 L 99.0,40.0 L 99.0,24.0" fill="#DFE9F1"/>
	<path d="M 73.0,112.0 L 74.0,116.0 L 152.0,116.0 L 152.0,140.0 L 74.0,140.0 L 73.0,144.0 L 73.0,112.0 M 74.0,120.0 L 74.0,136.0 L 148.0,136.0 L 148.0,120.0 L 74.0,120.0" fill="#A1B6C9"/>
	<path d="M 12.0,120.0 L 54.0,120.0 L 54.0,136.0 L 12.0,136.0 L 12.0,120.0" fill="#B6DDBA"/>
	<path d="M 88.0,64.0 L 89.0,68.0 L 152.0,68.0 L 152.0,92.0 L 89.0,92.0 L 88.0,96.0 L 88.0,64.0 M 89.0,72.0 L 89.0,88.0 L 148.0,88.0 L 148.0,72.0 L 89.0,72.0" fill="#A1B6C8"/>
	<path d="M 99.0,20.0 L 152.0,20.0 L 152.0,44.0 L 99.0,44.0 L 99.0,40.0 L 148.0,40.0 L 148.0,24.0 L 99.0,24.0 L 99.0,20.0" fill="#A1B6CA"/>
	<path d="M 83.0,20.0 L 95.0,20.0 L 95.0,44.0 L 83.0,44.0 L 83.0,20.0" fill="#B7DEBB"/>
	<path d="M 58.0,116.0 L 69.0,116.0 L 69.0,140.0 L 58.0,140.0 L 58.0,116.0" fill="#B7DEBB"/>
	<path d="M 73.0,68.0 L 84.0,68.0 L 84.0,92.0 L 73.0,92.0 L 73.0,68.0" fill="#B8DEBB"/>
</svg>
