<?xml version="1.0" ?>
<svg baseProfile="full" height="600px" version="1.1" viewBox="-19.296000000000003 -19.296000000000003 230.592 230.592" width="600px" xmlns="http://www.w3.org/2000/svg" xmlns:ev="http://www.w3.org/2001/xml-events" xmlns:xlink="http://www.w3.org/1999/xlink">
	<defs/>
	<path d="M 0.0,0.0 L 192.0,0.0 L 192.0,192.0 L 0.0,192.0 L 0.0,0.0" fill="#FEFDFD"/>
	<path d="M 42.0,136.0 L 58.0,136.0 L 60.0,138.0 L 60.0,144.0 L 168.0,144.0 L 168.0,160.0 L 60.0,160.0 L 60.0,166.0 L 58.0,168.0 L 42.0,168.0 L 40.0,166.0 L 40.0,160.0 L 24.0,160.0 L 24.0,144.0 L 40.0,144.0 L 40.0,138.0 L 42.0,136.0" fill="#CFD8DC"/>
	<path d="M 61.0,24.0 L 77.0,24.0 L 79.0,26.0 L 79.0,32.0 L 168.0,32.0 L 168.0,48.0 L 79.0,48.0 L 79.0,54.0 L 77.0,56.0 L 61.0,56.0 L 59.0,54.0 L 59.0,48.0 L 24.0,48.0 L 24.0,32.0 L 59.0,32.0 L 59.0,26.0 L 61.0,24.0" fill="#CFD8DC"/>
	<path d="M 127.0,80.0 L 143.0,80.0 L 145.0,82.0 L 145.0,110.0 L 143.0,112.0 L 127.0,112.0 L 125.0,110.0 L 125.0,104.0 L 24.0,104.0 L 24.0,88.0 L 125.0,88.0 L 125.0,82.0 L 127.0,80.0" fill="#FD6C00"/>
	<path d="M 61.0,24.0 L 77.0,24.0 L 79.0,26.0 L 79.0,54.0 L 77.0,56.0 L 61.0,56.0 L 59.0,54.0 L 59.0,48.0 L 24.0,48.0 L 24.0,32.0 L 59.0,32.0 L 59.0,26.0 L 61.0,24.0" fill="#BF380E"/>
	<path d="M 42.0,136.0 L 58.0,136.0 L 60.0,138.0 L 60.0,166.0 L 58.0,168.0 L 42.0,168.0 L 40.0,166.0 L 40.0,160.0 L 24.0,160.0 L 24.0,144.0 L 40.0,144.0 L 40.0,138.0 L 42.0,136.0" fill="#C0380F"/>
	<path d="M 127.0,80.0 L 143.0,80.0 L 145.0,82.0 L 145.0,110.0 L 143.0,112.0 L 127.0,112.0 L 125.0,110.0 L 125.0,82.0 L 127.0,80.0" fill="#BF370E"/>
	<path d="M 24.0,32.0 L 59.0,32.0 L 59.0,48.0 L 24.0,48.0 L 24.0,32.0" fill="#FD6B00"/>
	<path d="M 145.0,88.0 L 168.0,88.0 L 168.0,104.0 L 145.0,104.0 L 145.0,88.0" fill="#CFD7DB"/>
	<path d="M 24.0,144.0 L 40.0,144.0 L 40.0,160.0 L 24.0,160.0 L 24.0,144.0" fill="#FD6B00"/>
</svg>
