<?xml version="1.0" ?>
<svg baseProfile="full" height="600px" version="1.1" viewBox="-19.296000000000003 -19.296000000000003 230.592 230.592" width="600px" xmlns="http://www.w3.org/2000/svg" xmlns:ev="http://www.w3.org/2001/xml-events" xmlns:xlink="http://www.w3.org/1999/xlink">
	<defs/>
	<path d="M 0.0,0.0 L 192.0,0.0 L 192.0,192.0 L 0.0,192.0 L 0.0,0.0" fill="#05AAF4"/>
	<path d="M 0.0,0.0 L 192.0,0.0 L 192.0,192.0 L 0.0,192.0 L 0.0,0.0 M 88.0,16.0 L 75.0,18.0 L 60.0,24.0 L 50.0,30.0 L 39.0,39.0 L 29.0,51.0 L 21.0,67.0 L 17.0,79.0 L 16.0,88.0 L 16.0,105.0 L 18.0,117.0 L 24.0,132.0 L 30.0,142.0 L 39.0,153.0 L 51.0,163.0 L 66.0,171.0 L 79.0,175.0 L 86.0,176.0 L 107.0,176.0 L 128.0,170.0 L 142.0,162.0 L 153.0,153.0 L 163.0,141.0 L 171.0,125.0 L 175.0,112.0 L 176.0,106.0 L 176.0,86.0 L 173.0,72.0 L 168.0,60.0 L 162.0,50.0 L 153.0,39.0 L 141.0,29.0 L 125.0,21.0 L 112.0,17.0 L 105.0,16.0 L 88.0,16.0" fill="#FCFEFE"/>
	<path d="M 59.0,58.0 L 64.0,63.0 L 76.0,75.0 L 89.0,83.0 L 97.0,86.0 L 103.0,87.0 L 104.0,73.0 L 109.0,64.0 L 118.0,58.0 L 131.0,58.0 L 139.0,62.0 L 140.0,65.0 L 156.0,60.0 L 158.0,61.0 L 153.0,67.0 L 147.0,71.0 L 157.0,69.0 L 155.0,73.0 L 149.0,79.0 L 146.0,97.0 L 138.0,113.0 L 130.0,123.0 L 119.0,131.0 L 111.0,135.0 L 102.0,138.0 L 94.0,139.0 L 80.0,139.0 L 67.0,137.0 L 54.0,132.0 L 49.0,129.0 L 49.0,128.0 L 66.0,127.0 L 79.0,123.0 L 81.0,122.0 L 67.0,117.0 L 60.0,111.0 L 58.0,106.0 L 68.0,105.0 L 60.0,99.0 L 56.0,94.0 L 55.0,84.0 L 64.0,88.0 L 65.0,87.0 L 59.0,80.0 L 56.0,74.0 L 56.0,64.0 L 59.0,58.0" fill="#FAFDFE"/>
	<path d="M 151.0,67.0 L 153.0,68.0 L 153.0,71.0 L 145.0,72.0 L 150.0,68.0 L 151.0,67.0" fill="#2FB8F6"/>
</svg>
