<?xml version="1.0" ?>
<svg baseProfile="full" height="600px" version="1.1" viewBox="-20.1 -20.1 240.2 240.2" width="600px" xmlns="http://www.w3.org/2000/svg" xmlns:ev="http://www.w3.org/2001/xml-events" xmlns:xlink="http://www.w3.org/1999/xlink">
	<defs/>
	<path d="M 0.0,0.0 L 200.0,0.0 L 200.0,200.0 L 0.0,200.0 L 0.0,0.0" fill="#FDFDFD"/>
	<path d="M 114.0,44.0 L 119.0,45.0 L 133.0,56.0 L 146.0,67.0 L 156.0,75.0 L 172.0,88.0 L 183.0,97.0 L 184.0,102.0 L 175.0,110.0 L 161.0,121.0 L 148.0,132.0 L 138.0,140.0 L 127.0,149.0 L 118.0,156.0 L 113.0,155.0 L 112.0,154.0 L 112.0,124.0 L 84.0,127.0 L 63.0,133.0 L 48.0,141.0 L 38.0,149.0 L 29.0,162.0 L 25.0,172.0 L 23.0,179.0 L 18.0,180.0 L 16.0,178.0 L 16.0,166.0 L 20.0,147.0 L 26.0,131.0 L 34.0,116.0 L 42.0,106.0 L 53.0,95.0 L 64.0,88.0 L 76.0,82.0 L 94.0,77.0 L 102.0,76.0 L 112.0,76.0 L 112.0,46.0 L 114.0,44.0" fill="#FBFBFB"/>
	<path d="M 114.0,44.0 L 119.0,45.0 L 133.0,56.0 L 146.0,67.0 L 156.0,75.0 L 172.0,88.0 L 183.0,97.0 L 184.0,102.0 L 175.0,110.0 L 161.0,121.0 L 148.0,132.0 L 138.0,140.0 L 127.0,149.0 L 118.0,156.0 L 113.0,155.0 L 112.0,154.0 L 112.0,124.0 L 84.0,127.0 L 63.0,133.0 L 48.0,141.0 L 38.0,149.0 L 29.0,162.0 L 25.0,172.0 L 23.0,179.0 L 18.0,180.0 L 16.0,178.0 L 16.0,166.0 L 20.0,147.0 L 26.0,131.0 L 34.0,116.0 L 42.0,106.0 L 53.0,95.0 L 64.0,88.0 L 76.0,82.0 L 94.0,77.0 L 102.0,76.0 L 112.0,76.0 L 112.0,46.0 L 114.0,44.0 M 120.0,57.0 L 119.0,82.0 L 118.0,83.0 L 97.0,85.0 L 81.0,89.0 L 65.0,97.0 L 54.0,105.0 L 47.0,112.0 L 40.0,122.0 L 32.0,138.0 L 30.0,145.0 L 37.0,139.0 L 51.0,130.0 L 67.0,123.0 L 84.0,119.0 L 98.0,117.0 L 118.0,117.0 L 119.0,118.0 L 120.0,143.0 L 125.0,140.0 L 138.0,129.0 L 152.0,118.0 L 169.0,104.0 L 173.0,101.0 L 171.0,97.0 L 157.0,86.0 L 140.0,72.0 L 124.0,59.0 L 120.0,57.0" fill="#070707"/>
</svg>
