<?xml version="1.0" ?>
<svg baseProfile="full" height="600px" version="1.1" viewBox="-20.1 -20.1 240.2 240.2" width="600px" xmlns="http://www.w3.org/2000/svg" xmlns:ev="http://www.w3.org/2001/xml-events" xmlns:xlink="http://www.w3.org/1999/xlink">
	<defs/>
	<path d="M 0.0,0.0 L 200.0,0.0 L 200.0,200.0 L 0.0,200.0 L 0.0,0.0" fill="#FCFCFC"/>
	<path d="M 37.0,22.0 L 173.0,22.0 L 174.0,23.0 L 174.0,116.0 L 147.0,143.0 L 98.0,144.0 L 70.0,172.0 L 69.0,172.0 L 69.0,143.0 L 37.0,143.0 L 37.0,22.0" fill="#FDFDFD"/>
	<path d="M 25.0,15.0 L 181.0,15.0 L 181.0,122.0 L 142.0,161.0 L 100.0,162.0 L 75.0,187.0 L 59.0,187.0 L 59.0,161.0 L 19.0,161.0 L 19.0,36.0 L 25.0,15.0 M 37.0,22.0 L 37.0,143.0 L 69.0,143.0 L 69.0,172.0 L 76.0,166.0 L 98.0,144.0 L 147.0,143.0 L 174.0,116.0 L 174.0,23.0 L 173.0,22.0 L 37.0,22.0" fill="#FCFCFC"/>
	<path d="M 20.0,6.0 L 189.0,6.0 L 190.0,7.0 L 190.0,125.0 L 182.0,132.0 L 144.0,170.0 L 103.0,171.0 L 79.0,195.0 L 51.0,195.0 L 51.0,169.0 L 10.0,169.0 L 10.0,36.0 L 16.0,18.0 L 19.0,7.0 L 20.0,6.0 M 25.0,15.0 L 19.0,36.0 L 19.0,161.0 L 59.0,161.0 L 59.0,187.0 L 75.0,187.0 L 100.0,162.0 L 142.0,161.0 L 181.0,122.0 L 181.0,15.0 L 25.0,15.0" fill="#151515"/>
	<path d="M 37.0,22.0 L 173.0,22.0 L 174.0,23.0 L 174.0,116.0 L 147.0,143.0 L 98.0,144.0 L 70.0,172.0 L 69.0,172.0 L 69.0,143.0 L 37.0,143.0 L 37.0,22.0 M 46.0,31.0 L 46.0,134.0 L 77.0,134.0 L 77.0,153.0 L 84.0,147.0 L 96.0,135.0 L 145.0,134.0 L 165.0,114.0 L 165.0,31.0 L 46.0,31.0" fill="#171717"/>
	<path d="M 117.0,54.0 L 141.0,54.0 L 142.0,55.0 L 142.0,111.0 L 117.0,111.0 L 117.0,54.0" fill="#1A1A1A"/>
	<path d="M 77.0,54.0 L 101.0,54.0 L 102.0,55.0 L 102.0,111.0 L 77.0,111.0 L 77.0,54.0" fill="#1A1A1A"/>
	<path d="M 126.0,63.0 L 133.0,63.0 L 133.0,102.0 L 126.0,102.0 L 126.0,63.0" fill="#FDFDFD"/>
	<path d="M 86.0,63.0 L 93.0,63.0 L 93.0,102.0 L 86.0,102.0 L 86.0,63.0" fill="#FDFDFD"/>
</svg>
