<?xml version="1.0" ?>
<svg baseProfile="full" height="600px" version="1.1" viewBox="-20.1 -20.1 240.2 240.2" width="600px" xmlns="http://www.w3.org/2000/svg" xmlns:ev="http://www.w3.org/2001/xml-events" xmlns:xlink="http://www.w3.org/1999/xlink">
	<defs/>
	<path d="M 0.0,0.0 L 200.0,0.0 L 200.0,200.0 L 0.0,200.0 L 0.0,0.0" fill="#FCFCFC"/>
	<path d="M 0.0,0.0 L 200.0,0.0 L 200.0,200.0 L 0.0,200.0 L 0.0,0.0 M 86.0,6.0 L 70.0,10.0 L 58.0,15.0 L 46.0,22.0 L 35.0,31.0 L 27.0,39.0 L 20.0,49.0 L 12.0,64.0 L 7.0,80.0 L 6.0,85.0 L 6.0,115.0 L 10.0,130.0 L 17.0,146.0 L 25.0,158.0 L 36.0,170.0 L 46.0,178.0 L 60.0,186.0 L 69.0,190.0 L 85.0,194.0 L 112.0,194.0 L 128.0,191.0 L 146.0,183.0 L 158.0,175.0 L 170.0,164.0 L 178.0,154.0 L 186.0,140.0 L 192.0,124.0 L 194.0,112.0 L 194.0,85.0 L 190.0,69.0 L 182.0,52.0 L 174.0,41.0 L 165.0,31.0 L 154.0,22.0 L 140.0,14.0 L 124.0,8.0 L 115.0,6.0 L 86.0,6.0" fill="#FCFCFC"/>
	<path d="M 86.0,6.0 L 115.0,6.0 L 130.0,10.0 L 146.0,17.0 L 158.0,25.0 L 170.0,36.0 L 178.0,46.0 L 186.0,60.0 L 190.0,69.0 L 194.0,85.0 L 194.0,112.0 L 191.0,128.0 L 183.0,146.0 L 175.0,158.0 L 164.0,170.0 L 154.0,178.0 L 140.0,186.0 L 124.0,192.0 L 112.0,194.0 L 85.0,194.0 L 69.0,190.0 L 52.0,182.0 L 41.0,174.0 L 31.0,165.0 L 22.0,154.0 L 14.0,140.0 L 8.0,124.0 L 6.0,115.0 L 6.0,85.0 L 10.0,70.0 L 15.0,58.0 L 22.0,46.0 L 30.0,36.0 L 38.0,28.0 L 52.0,18.0 L 67.0,11.0 L 80.0,7.0 L 86.0,6.0 M 91.0,14.0 L 78.0,16.0 L 62.0,22.0 L 49.0,30.0 L 39.0,39.0 L 32.0,46.0 L 23.0,60.0 L 18.0,72.0 L 15.0,82.0 L 14.0,91.0 L 14.0,112.0 L 18.0,128.0 L 24.0,142.0 L 33.0,155.0 L 46.0,168.0 L 60.0,177.0 L 75.0,183.0 L 82.0,185.0 L 91.0,186.0 L 112.0,186.0 L 124.0,183.0 L 140.0,177.0 L 151.0,170.0 L 161.0,161.0 L 168.0,154.0 L 175.0,143.0 L 180.0,133.0 L 184.0,122.0 L 186.0,109.0 L 186.0,91.0 L 184.0,78.0 L 178.0,62.0 L 170.0,49.0 L 161.0,39.0 L 154.0,32.0 L 140.0,23.0 L 122.0,16.0 L 112.0,14.0 L 91.0,14.0" fill="#070707"/>
	<path d="M 61.0,67.0 L 64.0,68.0 L 71.0,76.0 L 84.0,85.0 L 96.0,90.0 L 105.0,91.0 L 106.0,90.0 L 108.0,79.0 L 112.0,73.0 L 120.0,68.0 L 129.0,68.0 L 137.0,72.0 L 141.0,76.0 L 144.0,78.0 L 143.0,82.0 L 145.0,85.0 L 143.0,90.0 L 140.0,102.0 L 132.0,118.0 L 124.0,127.0 L 111.0,136.0 L 100.0,140.0 L 95.0,141.0 L 75.0,141.0 L 61.0,137.0 L 59.0,135.0 L 75.0,131.0 L 80.0,128.0 L 79.0,123.0 L 69.0,118.0 L 66.0,113.0 L 72.0,112.0 L 72.0,107.0 L 62.0,100.0 L 59.0,94.0 L 60.0,91.0 L 67.0,92.0 L 67.0,87.0 L 61.0,78.0 L 61.0,67.0" fill="#FCFCFC"/>
	<path d="M 59.0,54.0 L 64.0,55.0 L 72.0,65.0 L 82.0,74.0 L 99.0,82.0 L 100.0,76.0 L 106.0,67.0 L 115.0,61.0 L 118.0,60.0 L 132.0,60.0 L 140.0,64.0 L 143.0,67.0 L 151.0,67.0 L 154.0,66.0 L 161.0,66.0 L 162.0,72.0 L 160.0,75.0 L 164.0,77.0 L 163.0,82.0 L 155.0,89.0 L 152.0,91.0 L 147.0,108.0 L 140.0,121.0 L 130.0,133.0 L 119.0,141.0 L 106.0,147.0 L 94.0,150.0 L 76.0,150.0 L 60.0,146.0 L 47.0,139.0 L 40.0,134.0 L 39.0,128.0 L 41.0,126.0 L 61.0,126.0 L 64.0,125.0 L 57.0,117.0 L 54.0,109.0 L 55.0,104.0 L 50.0,94.0 L 50.0,82.0 L 52.0,80.0 L 52.0,66.0 L 57.0,56.0 L 59.0,54.0 M 61.0,67.0 L 61.0,78.0 L 67.0,87.0 L 67.0,92.0 L 59.0,91.0 L 60.0,97.0 L 64.0,102.0 L 72.0,107.0 L 72.0,112.0 L 66.0,113.0 L 69.0,118.0 L 80.0,124.0 L 79.0,129.0 L 69.0,133.0 L 59.0,135.0 L 61.0,137.0 L 75.0,141.0 L 95.0,141.0 L 108.0,137.0 L 116.0,133.0 L 127.0,124.0 L 135.0,113.0 L 140.0,102.0 L 144.0,86.0 L 144.0,83.0 L 143.0,79.0 L 144.0,77.0 L 139.0,74.0 L 134.0,70.0 L 129.0,68.0 L 120.0,68.0 L 112.0,73.0 L 108.0,79.0 L 106.0,90.0 L 105.0,91.0 L 96.0,90.0 L 82.0,84.0 L 70.0,75.0 L 63.0,67.0 L 61.0,67.0" fill="#070707"/>
</svg>
