<?xml version="1.0" ?>
<svg baseProfile="full" height="600px" version="1.1" viewBox="-19.296000000000003 -19.296000000000003 230.592 230.592" width="600px" xmlns="http://www.w3.org/2000/svg" xmlns:ev="http://www.w3.org/2001/xml-events" xmlns:xlink="http://www.w3.org/1999/xlink">
	<defs/>
	<path d="M 0.0,0.0 L 192.0,0.0 L 192.0,192.0 L 0.0,192.0 L 0.0,0.0" fill="#05AAF4"/>
	<path d="M 0.0,0.0 L 192.0,0.0 L 192.0,192.0 L 0.0,192.0 L 0.0,0.0 M 86.0,16.0 L 72.0,19.0 L 56.0,26.0 L 45.0,34.0 L 36.0,42.0 L 28.0,53.0 L 20.0,69.0 L 17.0,79.0 L 16.0,88.0 L 16.0,105.0 L 18.0,117.0 L 24.0,132.0 L 30.0,142.0 L 39.0,153.0 L 51.0,163.0 L 66.0,171.0 L 79.0,175.0 L 86.0,176.0 L 106.0,176.0 L 122.0,172.0 L 134.0,167.0 L 145.0,160.0 L 156.0,150.0 L 164.0,139.0 L 171.0,125.0 L 175.0,112.0 L 176.0,106.0 L 176.0,86.0 L 173.0,72.0 L 168.0,60.0 L 162.0,50.0 L 153.0,39.0 L 141.0,29.0 L 125.0,21.0 L 112.0,17.0 L 105.0,16.0 L 86.0,16.0" fill="#FCFEFE"/>
	<path d="M 110.0,57.0 L 123.0,57.0 L 131.0,61.0 L 139.0,60.0 L 148.0,57.0 L 146.0,62.0 L 139.0,68.0 L 148.0,66.0 L 146.0,70.0 L 141.0,76.0 L 139.0,94.0 L 134.0,107.0 L 128.0,117.0 L 121.0,125.0 L 111.0,132.0 L 100.0,137.0 L 88.0,140.0 L 72.0,140.0 L 59.0,138.0 L 46.0,133.0 L 44.0,131.0 L 57.0,130.0 L 73.0,125.0 L 77.0,123.0 L 67.0,121.0 L 57.0,116.0 L 53.0,111.0 L 53.0,109.0 L 63.0,108.0 L 63.0,106.0 L 58.0,105.0 L 51.0,99.0 L 48.0,92.0 L 48.0,88.0 L 59.0,91.0 L 58.0,90.0 L 50.0,81.0 L 48.0,75.0 L 48.0,66.0 L 50.0,62.0 L 54.0,64.0 L 63.0,73.0 L 77.0,82.0 L 88.0,86.0 L 96.0,87.0 L 96.0,72.0 L 101.0,63.0 L 106.0,59.0 L 110.0,57.0" fill="#FAFDFE"/>
</svg>
