<?xml version="1.0" ?>
<svg baseProfile="full" height="600px" version="1.1" viewBox="-20.1 -20.1 240.2 240.2" width="600px" xmlns="http://www.w3.org/2000/svg" xmlns:ev="http://www.w3.org/2001/xml-events" xmlns:xlink="http://www.w3.org/1999/xlink">
	<defs/>
	<path d="M 0.0,0.0 L 200.0,0.0 L 200.0,200.0 L 0.0,200.0 L 0.0,0.0" fill="#FCFCFC"/>
	<path d="M 40.0,20.0 L 176.0,20.0 L 176.0,114.0 L 150.0,140.0 L 101.0,141.0 L 73.0,169.0 L 72.0,169.0 L 72.0,140.0 L 40.0,140.0 L 40.0,20.0" fill="#FDFDFD"/>
	<path d="M 27.0,12.0 L 184.0,12.0 L 184.0,119.0 L 139.0,164.0 L 102.0,165.0 L 79.0,188.0 L 60.0,188.0 L 60.0,164.0 L 16.0,164.0 L 16.0,39.0 L 26.0,13.0 L 27.0,12.0 M 40.0,20.0 L 40.0,140.0 L 72.0,140.0 L 72.0,169.0 L 79.0,163.0 L 101.0,141.0 L 150.0,140.0 L 176.0,114.0 L 176.0,20.0 L 40.0,20.0" fill="#FCFCFC"/>
	<path d="M 21.0,4.0 L 192.0,4.0 L 192.0,122.0 L 142.0,172.0 L 105.0,173.0 L 82.0,196.0 L 52.0,196.0 L 52.0,172.0 L 8.0,172.0 L 8.0,38.0 L 19.0,8.0 L 21.0,4.0 M 27.0,12.0 L 23.0,20.0 L 16.0,39.0 L 16.0,164.0 L 60.0,164.0 L 60.0,188.0 L 79.0,188.0 L 102.0,165.0 L 139.0,164.0 L 184.0,119.0 L 184.0,12.0 L 27.0,12.0" fill="#010101"/>
	<path d="M 40.0,20.0 L 176.0,20.0 L 176.0,114.0 L 150.0,140.0 L 101.0,141.0 L 73.0,169.0 L 72.0,169.0 L 72.0,140.0 L 40.0,140.0 L 40.0,20.0 M 48.0,28.0 L 48.0,132.0 L 80.0,132.0 L 80.0,150.0 L 87.0,144.0 L 98.0,133.0 L 147.0,132.0 L 168.0,111.0 L 168.0,28.0 L 48.0,28.0" fill="#000000"/>
	<path d="M 120.0,52.0 L 144.0,52.0 L 144.0,108.0 L 120.0,108.0 L 120.0,52.0" fill="#000000"/>
	<path d="M 80.0,52.0 L 104.0,52.0 L 104.0,108.0 L 80.0,108.0 L 80.0,52.0" fill="#000000"/>
	<path d="M 128.0,60.0 L 136.0,60.0 L 136.0,100.0 L 128.0,100.0 L 128.0,60.0" fill="#FDFDFD"/>
	<path d="M 88.0,60.0 L 96.0,60.0 L 96.0,100.0 L 88.0,100.0 L 88.0,60.0" fill="#FDFDFD"/>
</svg>
