<?xml version="1.0" ?>
<svg baseProfile="full" height="600px" version="1.1" viewBox="-20.1 -20.1 240.2 240.2" width="600px" xmlns="http://www.w3.org/2000/svg" xmlns:ev="http://www.w3.org/2001/xml-events" xmlns:xlink="http://www.w3.org/1999/xlink">
	<defs/>
	<path d="M 0.0,0.0 L 200.0,0.0 L 200.0,200.0 L 0.0,200.0 L 0.0,0.0" fill="#FDFDFD"/>
	<path d="M 98.0,43.0 L 105.0,44.0 L 154.0,63.0 L 174.0,71.0 L 177.0,74.0 L 177.0,79.0 L 171.0,88.0 L 161.0,105.0 L 146.0,128.0 L 136.0,144.0 L 133.0,147.0 L 128.0,146.0 L 124.0,137.0 L 119.0,123.0 L 119.0,121.0 L 103.0,127.0 L 87.0,135.0 L 74.0,144.0 L 66.0,151.0 L 59.0,161.0 L 55.0,169.0 L 53.0,177.0 L 53.0,193.0 L 52.0,194.0 L 46.0,194.0 L 42.0,178.0 L 41.0,172.0 L 41.0,151.0 L 43.0,138.0 L 46.0,126.0 L 54.0,110.0 L 62.0,99.0 L 72.0,89.0 L 86.0,80.0 L 98.0,74.0 L 103.0,73.0 L 98.0,56.0 L 96.0,49.0 L 97.0,44.0 L 98.0,43.0" fill="#FBFBFB"/>
	<path d="M 98.0,43.0 L 105.0,44.0 L 154.0,63.0 L 174.0,71.0 L 177.0,74.0 L 177.0,79.0 L 171.0,88.0 L 161.0,105.0 L 146.0,128.0 L 136.0,144.0 L 133.0,147.0 L 128.0,146.0 L 124.0,137.0 L 119.0,123.0 L 119.0,121.0 L 103.0,127.0 L 87.0,135.0 L 74.0,144.0 L 66.0,151.0 L 59.0,161.0 L 55.0,169.0 L 53.0,177.0 L 53.0,193.0 L 52.0,194.0 L 46.0,194.0 L 42.0,178.0 L 41.0,172.0 L 41.0,151.0 L 43.0,138.0 L 46.0,126.0 L 54.0,110.0 L 62.0,99.0 L 72.0,89.0 L 86.0,80.0 L 98.0,74.0 L 103.0,73.0 L 98.0,56.0 L 96.0,49.0 L 97.0,44.0 L 98.0,43.0 M 107.0,54.0 L 109.0,63.0 L 112.0,73.0 L 111.0,78.0 L 98.0,83.0 L 83.0,91.0 L 72.0,100.0 L 64.0,109.0 L 56.0,123.0 L 51.0,138.0 L 49.0,152.0 L 49.0,161.0 L 52.0,157.0 L 60.0,146.0 L 67.0,139.0 L 81.0,129.0 L 96.0,121.0 L 116.0,113.0 L 123.0,113.0 L 127.0,121.0 L 131.0,133.0 L 135.0,131.0 L 146.0,113.0 L 160.0,91.0 L 167.0,79.0 L 167.0,77.0 L 129.0,62.0 L 108.0,54.0 L 107.0,54.0" fill="#070707"/>
</svg>
