<?xml version="1.0" ?>
<svg baseProfile="full" height="600px" version="1.1" viewBox="-19.296000000000003 -19.296000000000003 230.592 230.592" width="600px" xmlns="http://www.w3.org/2000/svg" xmlns:ev="http://www.w3.org/2001/xml-events" xmlns:xlink="http://www.w3.org/1999/xlink">
	<defs/>
	<path d="M 0.0,0.0 L 192.0,0.0 L 192.0,192.0 L 0.0,192.0 L 0.0,0.0" fill="#05AAF4"/>
	<path d="M 0.0,0.0 L 192.0,0.0 L 192.0,192.0 L 0.0,192.0 L 0.0,0.0 M 88.0,16.0 L 75.0,18.0 L 60.0,24.0 L 50.0,30.0 L 39.0,39.0 L 29.0,51.0 L 21.0,67.0 L 17.0,79.0 L 16.0,88.0 L 16.0,105.0 L 18.0,117.0 L 24.0,132.0 L 30.0,142.0 L 39.0,153.0 L 51.0,163.0 L 66.0,171.0 L 79.0,175.0 L 86.0,176.0 L 107.0,176.0 L 128.0,170.0 L 142.0,162.0 L 153.0,153.0 L 163.0,141.0 L 171.0,125.0 L 175.0,112.0 L 176.0,106.0 L 176.0,86.0 L 173.0,72.0 L 168.0,60.0 L 162.0,50.0 L 153.0,39.0 L 141.0,29.0 L 125.0,21.0 L 112.0,17.0 L 105.0,16.0 L 88.0,16.0" fill="#FCFEFE"/>
	<path d="M 62.0,58.0 L 65.0,59.0 L 73.0,69.0 L 82.0,77.0 L 92.0,83.0 L 102.0,86.0 L 106.0,87.0 L 107.0,73.0 L 112.0,65.0 L 118.0,60.0 L 122.0,58.0 L 132.0,58.0 L 142.0,63.0 L 143.0,64.0 L 151.0,64.0 L 161.0,61.0 L 159.0,65.0 L 150.0,72.0 L 160.0,70.0 L 158.0,74.0 L 151.0,80.0 L 150.0,91.0 L 144.0,107.0 L 137.0,118.0 L 129.0,126.0 L 118.0,133.0 L 106.0,137.0 L 96.0,139.0 L 83.0,139.0 L 68.0,136.0 L 56.0,131.0 L 51.0,128.0 L 51.0,127.0 L 67.0,126.0 L 79.0,123.0 L 83.0,121.0 L 73.0,118.0 L 65.0,113.0 L 60.0,107.0 L 60.0,105.0 L 71.0,105.0 L 71.0,103.0 L 65.0,101.0 L 59.0,94.0 L 58.0,91.0 L 58.0,84.0 L 64.0,86.0 L 67.0,86.0 L 61.0,78.0 L 59.0,74.0 L 59.0,63.0 L 62.0,58.0" fill="#FAFDFE"/>
	<path d="M 154.0,68.0 L 156.0,69.0 L 156.0,72.0 L 148.0,73.0 L 153.0,69.0 L 154.0,68.0" fill="#2CB7F5"/>
</svg>
