<?xml version="1.0" ?>
<svg baseProfile="full" height="600px" version="1.1" viewBox="-20.1 -20.1 240.2 240.2" width="600px" xmlns="http://www.w3.org/2000/svg" xmlns:ev="http://www.w3.org/2001/xml-events" xmlns:xlink="http://www.w3.org/1999/xlink">
	<defs/>
	<path d="M 0.0,0.0 L 200.0,0.0 L 200.0,200.0 L 0.0,200.0 L 0.0,0.0" fill="#FBFBFB"/>
	<path d="M 0.0,0.0 L 200.0,0.0 L 200.0,200.0 L 0.0,200.0 L 0.0,0.0 M 88.0,8.0 L 71.0,12.0 L 55.0,19.0 L 42.0,28.0 L 31.0,38.0 L 21.0,52.0 L 13.0,68.0 L 9.0,83.0 L 8.0,89.0 L 8.0,111.0 L 11.0,126.0 L 19.0,145.0 L 28.0,158.0 L 37.0,168.0 L 50.0,178.0 L 66.0,186.0 L 82.0,191.0 L 89.0,192.0 L 110.0,192.0 L 125.0,189.0 L 141.0,183.0 L 154.0,175.0 L 167.0,164.0 L 178.0,150.0 L 186.0,134.0 L 191.0,117.0 L 192.0,110.0 L 192.0,89.0 L 189.0,74.0 L 183.0,59.0 L 175.0,46.0 L 164.0,33.0 L 150.0,22.0 L 134.0,14.0 L 122.0,10.0 L 109.0,8.0 L 88.0,8.0" fill="#FCFCFC"/>
	<path d="M 122.0,61.0 L 132.0,62.0 L 143.0,69.0 L 145.0,75.0 L 147.0,77.0 L 146.0,78.0 L 143.0,99.0 L 138.0,113.0 L 131.0,124.0 L 123.0,133.0 L 113.0,140.0 L 102.0,145.0 L 87.0,148.0 L 72.0,148.0 L 61.0,145.0 L 65.0,143.0 L 77.0,138.0 L 81.0,135.0 L 83.0,135.0 L 81.0,128.0 L 73.0,126.0 L 67.0,122.0 L 65.0,119.0 L 71.0,118.0 L 71.0,112.0 L 59.0,106.0 L 54.0,99.0 L 54.0,97.0 L 61.0,97.0 L 62.0,96.0 L 62.0,91.0 L 55.0,83.0 L 53.0,79.0 L 53.0,70.0 L 57.0,72.0 L 66.0,79.0 L 80.0,86.0 L 95.0,90.0 L 105.0,90.0 L 105.0,78.0 L 109.0,68.0 L 115.0,63.0 L 122.0,61.0" fill="#FCFCFC"/>
	<path d="M 88.0,8.0 L 109.0,8.0 L 126.0,11.0 L 145.0,19.0 L 158.0,28.0 L 168.0,37.0 L 178.0,50.0 L 186.0,66.0 L 191.0,82.0 L 192.0,89.0 L 192.0,110.0 L 189.0,125.0 L 183.0,141.0 L 175.0,154.0 L 164.0,167.0 L 150.0,178.0 L 134.0,186.0 L 117.0,191.0 L 110.0,192.0 L 89.0,192.0 L 74.0,189.0 L 59.0,183.0 L 46.0,175.0 L 33.0,164.0 L 22.0,150.0 L 14.0,134.0 L 10.0,122.0 L 8.0,111.0 L 8.0,89.0 L 12.0,71.0 L 19.0,55.0 L 28.0,42.0 L 37.0,32.0 L 50.0,22.0 L 66.0,14.0 L 82.0,9.0 L 88.0,8.0 M 89.0,16.0 L 73.0,20.0 L 61.0,25.0 L 50.0,32.0 L 40.0,41.0 L 31.0,51.0 L 22.0,67.0 L 17.0,83.0 L 16.0,89.0 L 16.0,111.0 L 19.0,123.0 L 25.0,139.0 L 32.0,150.0 L 41.0,160.0 L 51.0,169.0 L 67.0,178.0 L 83.0,183.0 L 90.0,184.0 L 109.0,184.0 L 121.0,182.0 L 137.0,176.0 L 150.0,168.0 L 160.0,159.0 L 169.0,149.0 L 176.0,137.0 L 182.0,121.0 L 184.0,109.0 L 184.0,90.0 L 182.0,79.0 L 177.0,65.0 L 169.0,51.0 L 158.0,39.0 L 149.0,31.0 L 137.0,24.0 L 128.0,20.0 L 110.0,16.0 L 89.0,16.0" fill="#080808"/>
	<path d="M 118.0,52.0 L 131.0,52.0 L 143.0,58.0 L 153.0,55.0 L 155.0,54.0 L 161.0,54.0 L 163.0,57.0 L 162.0,62.0 L 166.0,66.0 L 165.0,71.0 L 158.0,79.0 L 155.0,82.0 L 153.0,97.0 L 148.0,113.0 L 143.0,123.0 L 133.0,136.0 L 121.0,146.0 L 107.0,153.0 L 91.0,157.0 L 69.0,157.0 L 54.0,153.0 L 41.0,146.0 L 39.0,144.0 L 39.0,139.0 L 41.0,137.0 L 56.0,136.0 L 66.0,134.0 L 66.0,132.0 L 61.0,130.0 L 54.0,122.0 L 52.0,118.0 L 52.0,111.0 L 47.0,105.0 L 43.0,95.0 L 43.0,89.0 L 45.0,86.0 L 44.0,80.0 L 44.0,65.0 L 48.0,57.0 L 53.0,56.0 L 63.0,66.0 L 74.0,73.0 L 86.0,78.0 L 95.0,80.0 L 99.0,67.0 L 105.0,59.0 L 115.0,53.0 L 118.0,52.0 M 122.0,61.0 L 114.0,64.0 L 109.0,68.0 L 105.0,78.0 L 105.0,90.0 L 95.0,90.0 L 80.0,86.0 L 64.0,78.0 L 55.0,70.0 L 53.0,70.0 L 53.0,79.0 L 58.0,87.0 L 62.0,91.0 L 62.0,96.0 L 61.0,97.0 L 54.0,97.0 L 56.0,102.0 L 61.0,107.0 L 71.0,112.0 L 71.0,118.0 L 65.0,119.0 L 69.0,124.0 L 75.0,127.0 L 82.0,129.0 L 83.0,135.0 L 79.0,137.0 L 68.0,142.0 L 61.0,144.0 L 64.0,146.0 L 72.0,148.0 L 87.0,148.0 L 102.0,145.0 L 118.0,137.0 L 128.0,128.0 L 137.0,115.0 L 142.0,103.0 L 145.0,87.0 L 146.0,78.0 L 147.0,76.0 L 144.0,74.0 L 143.0,69.0 L 132.0,62.0 L 122.0,61.0" fill="#060606"/>
</svg>
