<?xml version="1.0" ?>
<svg baseProfile="full" height="600px" version="1.1" viewBox="-20.1 -20.1 240.2 240.2" width="600px" xmlns="http://www.w3.org/2000/svg" xmlns:ev="http://www.w3.org/2001/xml-events" xmlns:xlink="http://www.w3.org/1999/xlink">
	<defs/>
	<path d="M 0.0,0.0 L 200.0,0.0 L 200.0,200.0 L 0.0,200.0 L 0.0,0.0" fill="#FDFDFD"/>
	<path d="M 127.0,8.0 L 141.0,8.0 L 154.0,12.0 L 162.0,17.0 L 169.0,16.0 L 183.0,9.0 L 188.0,8.0 L 190.0,9.0 L 190.0,16.0 L 186.0,25.0 L 191.0,23.0 L 196.0,24.0 L 197.0,29.0 L 187.0,43.0 L 180.0,50.0 L 179.0,71.0 L 176.0,88.0 L 169.0,108.0 L 160.0,125.0 L 150.0,138.0 L 137.0,151.0 L 124.0,160.0 L 108.0,168.0 L 101.0,171.0 L 83.0,175.0 L 78.0,176.0 L 48.0,176.0 L 36.0,174.0 L 18.0,168.0 L 5.0,161.0 L 4.0,156.0 L 6.0,154.0 L 23.0,153.0 L 41.0,148.0 L 56.0,140.0 L 61.0,136.0 L 74.0,109.0 L 90.0,69.0 L 92.0,64.0 L 92.0,41.0 L 97.0,29.0 L 106.0,19.0 L 114.0,13.0 L 120.0,10.0 L 127.0,8.0" fill="#080808"/>
	<path d="M 129.0,16.0 L 140.0,16.0 L 152.0,20.0 L 160.0,26.0 L 168.0,25.0 L 177.0,22.0 L 175.0,26.0 L 167.0,33.0 L 167.0,38.0 L 180.0,37.0 L 174.0,44.0 L 172.0,46.0 L 171.0,69.0 L 168.0,85.0 L 167.0,90.0 L 164.0,88.0 L 158.0,89.0 L 149.0,89.0 L 131.0,83.0 L 114.0,74.0 L 105.0,67.0 L 101.0,62.0 L 100.0,60.0 L 100.0,43.0 L 104.0,34.0 L 110.0,26.0 L 118.0,20.0 L 129.0,16.0" fill="#FBFBFB"/>
	<path d="M 98.0,72.0 L 102.0,74.0 L 113.0,82.0 L 129.0,90.0 L 145.0,95.0 L 154.0,96.0 L 152.0,100.0 L 144.0,106.0 L 126.0,112.0 L 117.0,114.0 L 117.0,123.0 L 121.0,131.0 L 116.0,133.0 L 99.0,133.0 L 93.0,130.0 L 88.0,130.0 L 89.0,140.0 L 90.0,143.0 L 80.0,143.0 L 70.0,139.0 L 73.0,130.0 L 82.0,111.0 L 97.0,74.0 L 98.0,72.0" fill="#FAFAFA"/>
	<path d="M 162.0,99.0 L 163.0,102.0 L 153.0,121.0 L 142.0,135.0 L 134.0,143.0 L 123.0,151.0 L 111.0,158.0 L 95.0,164.0 L 77.0,168.0 L 52.0,168.0 L 39.0,166.0 L 25.0,162.0 L 29.0,160.0 L 43.0,156.0 L 60.0,147.0 L 63.0,145.0 L 67.0,146.0 L 78.0,150.0 L 93.0,150.0 L 102.0,146.0 L 102.0,141.0 L 117.0,140.0 L 128.0,136.0 L 130.0,134.0 L 130.0,129.0 L 125.0,123.0 L 125.0,120.0 L 145.0,113.0 L 154.0,108.0 L 161.0,101.0 L 162.0,99.0" fill="#F8F8F8"/>
</svg>
