<?xml version="1.0" ?>
<svg baseProfile="full" height="600px" version="1.1" viewBox="-12.864 -12.864 153.728 153.728" width="600px" xmlns="http://www.w3.org/2000/svg" xmlns:ev="http://www.w3.org/2001/xml-events" xmlns:xlink="http://www.w3.org/1999/xlink">
	<defs/>
	<path d="M 0.0,0.0 L 128.0,0.0 L 128.0,128.0 L 0.0,128.0 L 0.0,0.0" fill="#FDFDFD"/>
	<path d="M 34.0,73.0 L 43.0,73.0 L 51.0,77.0 L 57.0,84.0 L 59.0,88.0 L 59.0,99.0 L 55.0,107.0 L 49.0,112.0 L 44.0,114.0 L 32.0,114.0 L 24.0,109.0 L 19.0,102.0 L 18.0,99.0 L 18.0,88.0 L 23.0,80.0 L 29.0,75.0 L 34.0,73.0" fill="#FAFAFA"/>
	<path d="M 82.0,88.0 L 89.0,88.0 L 97.0,93.0 L 100.0,98.0 L 100.0,106.0 L 96.0,112.0 L 93.0,115.0 L 90.0,116.0 L 81.0,116.0 L 75.0,112.0 L 72.0,107.0 L 72.0,98.0 L 76.0,92.0 L 82.0,88.0" fill="#F9F9F9"/>
	<path d="M 34.0,73.0 L 43.0,73.0 L 51.0,77.0 L 57.0,84.0 L 59.0,88.0 L 59.0,99.0 L 55.0,107.0 L 49.0,112.0 L 44.0,114.0 L 32.0,114.0 L 24.0,109.0 L 19.0,102.0 L 18.0,99.0 L 18.0,88.0 L 23.0,80.0 L 29.0,75.0 L 34.0,73.0 M 34.0,77.0 L 27.0,81.0 L 22.0,88.0 L 22.0,98.0 L 26.0,106.0 L 32.0,110.0 L 44.0,110.0 L 51.0,106.0 L 55.0,98.0 L 55.0,88.0 L 49.0,80.0 L 43.0,77.0 L 34.0,77.0" fill="#121212"/>
	<path d="M 82.0,88.0 L 89.0,88.0 L 97.0,93.0 L 100.0,98.0 L 100.0,106.0 L 96.0,112.0 L 93.0,115.0 L 90.0,116.0 L 81.0,116.0 L 75.0,112.0 L 72.0,107.0 L 72.0,98.0 L 76.0,92.0 L 82.0,88.0 M 82.0,91.0 L 76.0,96.0 L 75.0,98.0 L 75.0,107.0 L 79.0,112.0 L 81.0,113.0 L 91.0,113.0 L 96.0,108.0 L 97.0,106.0 L 97.0,98.0 L 92.0,92.0 L 89.0,91.0 L 82.0,91.0" fill="#242424"/>
	<path d="M 82.0,88.0 L 89.0,88.0 L 89.0,89.0 L 83.0,90.0 L 78.0,95.0 L 76.0,98.0 L 76.0,107.0 L 81.0,112.0 L 89.0,113.0 L 89.0,114.0 L 83.0,114.0 L 83.0,116.0 L 78.0,114.0 L 73.0,109.0 L 72.0,107.0 L 72.0,98.0 L 76.0,92.0 L 82.0,88.0" fill="#1D1D1D"/>
	<path d="M 98.0,101.0 L 99.0,101.0 L 99.0,108.0 L 93.0,115.0 L 90.0,116.0 L 83.0,116.0 L 83.0,114.0 L 91.0,112.0 L 95.0,108.0 L 98.0,101.0" fill="#0B0B0B"/>
	<path d="M 82.0,88.0 L 89.0,88.0 L 89.0,89.0 L 83.0,90.0 L 78.0,95.0 L 74.0,96.0 L 76.0,92.0 L 82.0,88.0" fill="#303030"/>
	<path d="M 83.0,89.0 L 91.0,89.0 L 93.0,90.0 L 93.0,92.0 L 82.0,91.0 L 83.0,89.0" fill="#090909"/>
	<path d="M 79.0,112.0 L 89.0,113.0 L 89.0,114.0 L 83.0,114.0 L 83.0,116.0 L 78.0,114.0 L 79.0,112.0" fill="#3A3A3A"/>
</svg>
