<?xml version="1.0" ?>
<svg baseProfile="full" height="600px" version="1.1" viewBox="-20.1 -20.1 240.2 240.2" width="600px" xmlns="http://www.w3.org/2000/svg" xmlns:ev="http://www.w3.org/2001/xml-events" xmlns:xlink="http://www.w3.org/1999/xlink">
	<defs/>
	<path d="M 0.0,0.0 L 200.0,0.0 L 200.0,200.0 L 0.0,200.0 L 0.0,0.0" fill="#FDFDFD"/>
	<path d="M 128.0,59.0 L 144.0,59.0 L 155.0,61.0 L 171.0,69.0 L 180.0,76.0 L 188.0,85.0 L 196.0,101.0 L 198.0,110.0 L 198.0,130.0 L 195.0,142.0 L 189.0,154.0 L 181.0,164.0 L 171.0,172.0 L 159.0,178.0 L 148.0,181.0 L 125.0,181.0 L 113.0,177.0 L 102.0,171.0 L 90.0,160.0 L 82.0,148.0 L 77.0,134.0 L 76.0,129.0 L 76.0,112.0 L 79.0,100.0 L 86.0,86.0 L 95.0,76.0 L 103.0,69.0 L 117.0,62.0 L 128.0,59.0" fill="#FCFCFC"/>
	<path d="M 128.0,59.0 L 144.0,59.0 L 155.0,61.0 L 171.0,69.0 L 180.0,76.0 L 188.0,85.0 L 196.0,101.0 L 198.0,110.0 L 198.0,130.0 L 195.0,142.0 L 189.0,154.0 L 181.0,164.0 L 171.0,172.0 L 159.0,178.0 L 148.0,181.0 L 125.0,181.0 L 113.0,177.0 L 102.0,171.0 L 90.0,160.0 L 82.0,148.0 L 77.0,134.0 L 76.0,129.0 L 76.0,112.0 L 79.0,100.0 L 86.0,86.0 L 95.0,76.0 L 103.0,69.0 L 117.0,62.0 L 128.0,59.0 M 126.0,65.0 L 114.0,69.0 L 104.0,75.0 L 94.0,84.0 L 86.0,97.0 L 82.0,110.0 L 82.0,131.0 L 86.0,143.0 L 92.0,154.0 L 103.0,165.0 L 117.0,173.0 L 128.0,176.0 L 143.0,176.0 L 153.0,174.0 L 165.0,169.0 L 176.0,161.0 L 183.0,153.0 L 190.0,139.0 L 192.0,134.0 L 193.0,126.0 L 193.0,115.0 L 191.0,103.0 L 184.0,89.0 L 175.0,79.0 L 166.0,72.0 L 155.0,67.0 L 148.0,65.0 L 126.0,65.0" fill="#0D0D0D"/>
	<path d="M 89.0,168.0 L 96.0,169.0 L 96.0,176.0 L 95.0,177.0 L 88.0,177.0 L 87.0,170.0 L 89.0,168.0" fill="#D3D3D3"/>
</svg>
