<?xml version="1.0" ?>
<svg baseProfile="full" height="600px" version="1.1" viewBox="-20.1 -20.1 240.2 240.2" width="600px" xmlns="http://www.w3.org/2000/svg" xmlns:ev="http://www.w3.org/2001/xml-events" xmlns:xlink="http://www.w3.org/1999/xlink">
	<defs/>
	<path d="M 0.0,0.0 L 200.0,0.0 L 200.0,200.0 L 0.0,200.0 L 0.0,0.0" fill="#FDFDFD"/>
	<path d="M 63.0,16.0 L 71.0,16.0 L 78.0,19.0 L 83.0,25.0 L 84.0,27.0 L 85.0,42.0 L 87.0,41.0 L 96.0,41.0 L 102.0,44.0 L 107.0,50.0 L 108.0,53.0 L 108.0,65.0 L 111.0,64.0 L 121.0,64.0 L 127.0,68.0 L 130.0,72.0 L 130.0,74.0 L 135.0,72.0 L 145.0,72.0 L 151.0,76.0 L 155.0,82.0 L 156.0,85.0 L 156.0,168.0 L 153.0,179.0 L 147.0,188.0 L 139.0,195.0 L 131.0,199.0 L 124.0,200.0 L 76.0,200.0 L 64.0,195.0 L 55.0,187.0 L 43.0,164.0 L 37.0,151.0 L 36.0,145.0 L 36.0,132.0 L 40.0,123.0 L 46.0,116.0 L 51.0,113.0 L 52.0,28.0 L 55.0,22.0 L 61.0,17.0 L 63.0,16.0" fill="#FCFCFC"/>
	<path d="M 63.0,16.0 L 71.0,16.0 L 78.0,19.0 L 83.0,25.0 L 84.0,27.0 L 85.0,42.0 L 87.0,41.0 L 96.0,41.0 L 102.0,44.0 L 107.0,50.0 L 108.0,53.0 L 108.0,65.0 L 111.0,64.0 L 121.0,64.0 L 127.0,68.0 L 130.0,72.0 L 130.0,74.0 L 135.0,72.0 L 145.0,72.0 L 151.0,76.0 L 155.0,82.0 L 156.0,85.0 L 156.0,168.0 L 153.0,179.0 L 147.0,188.0 L 139.0,195.0 L 131.0,199.0 L 124.0,200.0 L 76.0,200.0 L 64.0,195.0 L 55.0,187.0 L 43.0,164.0 L 37.0,151.0 L 36.0,145.0 L 36.0,132.0 L 40.0,123.0 L 46.0,116.0 L 51.0,113.0 L 52.0,28.0 L 55.0,22.0 L 61.0,17.0 L 63.0,16.0 M 65.0,24.0 L 60.0,28.0 L 59.0,117.0 L 48.0,125.0 L 44.0,133.0 L 44.0,144.0 L 48.0,156.0 L 60.0,180.0 L 68.0,188.0 L 77.0,192.0 L 125.0,192.0 L 135.0,188.0 L 142.0,182.0 L 147.0,172.0 L 148.0,169.0 L 148.0,86.0 L 145.0,81.0 L 143.0,80.0 L 136.0,80.0 L 132.0,85.0 L 131.0,94.0 L 126.0,95.0 L 125.0,94.0 L 124.0,78.0 L 121.0,73.0 L 120.0,72.0 L 112.0,72.0 L 108.0,76.0 L 107.0,90.0 L 102.0,91.0 L 101.0,90.0 L 100.0,54.0 L 95.0,49.0 L 89.0,49.0 L 84.0,54.0 L 83.0,94.0 L 78.0,95.0 L 77.0,94.0 L 76.0,29.0 L 73.0,25.0 L 65.0,24.0" fill="#050505"/>
</svg>
