<?xml version="1.0" ?>
<svg baseProfile="full" height="600px" version="1.1" viewBox="-12.864 -12.864 153.728 153.728" width="600px" xmlns="http://www.w3.org/2000/svg" xmlns:ev="http://www.w3.org/2001/xml-events" xmlns:xlink="http://www.w3.org/1999/xlink">
	<defs/>
	<path d="M 0.0,0.0 L 128.0,0.0 L 128.0,128.0 L 0.0,128.0 L 0.0,0.0" fill="#FCFCFC"/>
	<path d="M 86.0,46.0 L 97.0,46.0 L 107.0,50.0 L 114.0,57.0 L 118.0,65.0 L 118.0,80.0 L 113.0,90.0 L 104.0,97.0 L 99.0,99.0 L 85.0,99.0 L 77.0,95.0 L 72.0,91.0 L 68.0,85.0 L 66.0,79.0 L 66.0,65.0 L 70.0,57.0 L 79.0,49.0 L 86.0,46.0" fill="#080808"/>
	<path d="M 29.0,25.0 L 41.0,25.0 L 49.0,28.0 L 56.0,33.0 L 61.0,41.0 L 62.0,45.0 L 62.0,58.0 L 58.0,67.0 L 49.0,75.0 L 40.0,78.0 L 30.0,78.0 L 20.0,73.0 L 12.0,64.0 L 10.0,58.0 L 10.0,43.0 L 16.0,33.0 L 24.0,27.0 L 29.0,25.0" fill="#070707"/>
	<path d="M 88.0,55.0 L 95.0,55.0 L 102.0,58.0 L 107.0,63.0 L 109.0,67.0 L 109.0,78.0 L 105.0,85.0 L 97.0,90.0 L 87.0,90.0 L 79.0,85.0 L 75.0,78.0 L 75.0,67.0 L 79.0,61.0 L 85.0,56.0 L 88.0,55.0" fill="#FAFAFA"/>
	<path d="M 31.0,34.0 L 40.0,34.0 L 48.0,38.0 L 53.0,45.0 L 53.0,56.0 L 50.0,62.0 L 44.0,67.0 L 40.0,69.0 L 33.0,69.0 L 26.0,66.0 L 21.0,61.0 L 19.0,57.0 L 19.0,45.0 L 25.0,37.0 L 31.0,34.0" fill="#FAFAFA"/>
</svg>
