<?xml version="1.0" ?>
<svg baseProfile="full" height="600px" version="1.1" viewBox="-12.864 -12.864 153.728 153.728" width="600px" xmlns="http://www.w3.org/2000/svg" xmlns:ev="http://www.w3.org/2001/xml-events" xmlns:xlink="http://www.w3.org/1999/xlink">
	<defs/>
	<path d="M 0.0,0.0 L 128.0,0.0 L 128.0,128.0 L 0.0,128.0 L 0.0,0.0" fill="#FCFCFC"/>
	<path d="M 86.0,36.0 L 101.0,36.0 L 111.0,41.0 L 117.0,48.0 L 120.0,54.0 L 120.0,70.0 L 115.0,79.0 L 108.0,85.0 L 102.0,88.0 L 86.0,88.0 L 77.0,83.0 L 71.0,76.0 L 68.0,69.0 L 68.0,54.0 L 73.0,45.0 L 80.0,39.0 L 86.0,36.0" fill="#070707"/>
	<path d="M 26.0,36.0 L 41.0,36.0 L 51.0,41.0 L 57.0,48.0 L 60.0,54.0 L 60.0,70.0 L 55.0,79.0 L 48.0,85.0 L 42.0,88.0 L 26.0,88.0 L 17.0,83.0 L 11.0,76.0 L 8.0,69.0 L 8.0,54.0 L 13.0,45.0 L 20.0,39.0 L 26.0,36.0" fill="#070707"/>
	<path d="M 88.0,45.0 L 99.0,45.0 L 105.0,48.0 L 110.0,54.0 L 111.0,56.0 L 111.0,67.0 L 108.0,73.0 L 102.0,78.0 L 99.0,79.0 L 88.0,79.0 L 82.0,75.0 L 78.0,70.0 L 77.0,67.0 L 77.0,56.0 L 81.0,50.0 L 86.0,46.0 L 88.0,45.0" fill="#FBFBFB"/>
	<path d="M 28.0,45.0 L 39.0,45.0 L 45.0,48.0 L 50.0,54.0 L 51.0,56.0 L 51.0,67.0 L 48.0,73.0 L 42.0,78.0 L 39.0,79.0 L 28.0,79.0 L 22.0,75.0 L 18.0,70.0 L 17.0,67.0 L 17.0,56.0 L 21.0,50.0 L 26.0,46.0 L 28.0,45.0" fill="#FBFBFB"/>
</svg>
