<?xml version="1.0" ?>
<svg baseProfile="full" height="600px" version="1.1" viewBox="-12.864 -12.864 153.728 153.728" width="600px" xmlns="http://www.w3.org/2000/svg" xmlns:ev="http://www.w3.org/2001/xml-events" xmlns:xlink="http://www.w3.org/1999/xlink">
	<defs/>
	<path d="M 0.0,0.0 L 128.0,0.0 L 128.0,128.0 L 0.0,128.0 L 0.0,0.0" fill="#FCFCFC"/>
	<path d="M 57.0,28.0 L 72.0,28.0 L 86.0,35.0 L 94.0,43.0 L 98.0,51.0 L 100.0,57.0 L 100.0,69.0 L 97.0,79.0 L 92.0,87.0 L 85.0,94.0 L 77.0,98.0 L 69.0,100.0 L 57.0,100.0 L 45.0,95.0 L 37.0,88.0 L 31.0,79.0 L 28.0,68.0 L 28.0,57.0 L 33.0,45.0 L 40.0,37.0 L 45.0,33.0 L 57.0,28.0" fill="#FCFCFC"/>
	<path d="M 56.0,20.0 L 69.0,20.0 L 81.0,23.0 L 90.0,28.0 L 98.0,35.0 L 105.0,46.0 L 108.0,57.0 L 108.0,70.0 L 104.0,83.0 L 98.0,93.0 L 89.0,101.0 L 78.0,106.0 L 70.0,108.0 L 57.0,108.0 L 44.0,104.0 L 33.0,96.0 L 26.0,87.0 L 21.0,75.0 L 20.0,69.0 L 20.0,56.0 L 24.0,44.0 L 32.0,33.0 L 41.0,26.0 L 49.0,22.0 L 56.0,20.0 M 57.0,28.0 L 45.0,33.0 L 37.0,40.0 L 33.0,45.0 L 28.0,57.0 L 28.0,68.0 L 31.0,79.0 L 37.0,88.0 L 45.0,95.0 L 57.0,100.0 L 69.0,100.0 L 79.0,97.0 L 87.0,92.0 L 94.0,85.0 L 98.0,77.0 L 100.0,69.0 L 100.0,57.0 L 95.0,45.0 L 88.0,37.0 L 79.0,31.0 L 72.0,28.0 L 57.0,28.0" fill="#080808"/>
</svg>
