<?xml version="1.0" ?>
<svg baseProfile="full" height="600px" version="1.1" viewBox="-20.1 -20.1 240.2 240.2" width="600px" xmlns="http://www.w3.org/2000/svg" xmlns:ev="http://www.w3.org/2001/xml-events" xmlns:xlink="http://www.w3.org/1999/xlink">
	<defs/>
	<path d="M 0.0,0.0 L 200.0,0.0 L 200.0,200.0 L 0.0,200.0 L 0.0,0.0" fill="#FDFDFD"/>
	<path d="M 49.0,58.0 L 68.0,58.0 L 81.0,63.0 L 91.0,71.0 L 98.0,82.0 L 101.0,90.0 L 101.0,110.0 L 97.0,120.0 L 89.0,131.0 L 79.0,138.0 L 68.0,142.0 L 49.0,142.0 L 39.0,138.0 L 31.0,132.0 L 23.0,123.0 L 18.0,113.0 L 17.0,108.0 L 17.0,91.0 L 21.0,80.0 L 28.0,71.0 L 36.0,64.0 L 46.0,59.0 L 49.0,58.0" fill="#FBFBFB"/>
	<path d="M 135.0,62.0 L 147.0,62.0 L 160.0,67.0 L 169.0,74.0 L 176.0,85.0 L 178.0,92.0 L 178.0,109.0 L 174.0,119.0 L 167.0,128.0 L 158.0,134.0 L 147.0,138.0 L 135.0,138.0 L 124.0,134.0 L 115.0,128.0 L 109.0,121.0 L 105.0,113.0 L 103.0,106.0 L 103.0,93.0 L 107.0,82.0 L 114.0,73.0 L 122.0,67.0 L 131.0,63.0 L 135.0,62.0" fill="#FBFBFB"/>
	<path d="M 49.0,58.0 L 68.0,58.0 L 81.0,63.0 L 91.0,71.0 L 98.0,82.0 L 101.0,90.0 L 101.0,110.0 L 97.0,120.0 L 89.0,131.0 L 79.0,138.0 L 68.0,142.0 L 49.0,142.0 L 39.0,138.0 L 31.0,132.0 L 23.0,123.0 L 18.0,113.0 L 17.0,108.0 L 17.0,91.0 L 21.0,80.0 L 28.0,71.0 L 36.0,64.0 L 46.0,59.0 L 49.0,58.0 M 53.0,66.0 L 43.0,70.0 L 37.0,74.0 L 30.0,82.0 L 25.0,94.0 L 25.0,104.0 L 28.0,114.0 L 34.0,123.0 L 41.0,129.0 L 49.0,133.0 L 54.0,134.0 L 64.0,134.0 L 76.0,130.0 L 86.0,121.0 L 90.0,115.0 L 93.0,104.0 L 93.0,93.0 L 89.0,83.0 L 80.0,73.0 L 74.0,69.0 L 64.0,66.0 L 53.0,66.0" fill="#070707"/>
	<path d="M 135.0,62.0 L 147.0,62.0 L 160.0,67.0 L 169.0,74.0 L 176.0,85.0 L 178.0,92.0 L 178.0,109.0 L 174.0,119.0 L 167.0,128.0 L 158.0,134.0 L 147.0,138.0 L 135.0,138.0 L 124.0,134.0 L 115.0,128.0 L 109.0,121.0 L 105.0,113.0 L 103.0,106.0 L 103.0,93.0 L 107.0,82.0 L 114.0,73.0 L 122.0,67.0 L 131.0,63.0 L 135.0,62.0 M 134.0,70.0 L 122.0,76.0 L 114.0,85.0 L 111.0,93.0 L 111.0,107.0 L 117.0,119.0 L 125.0,126.0 L 134.0,130.0 L 147.0,130.0 L 157.0,126.0 L 164.0,120.0 L 169.0,112.0 L 171.0,106.0 L 171.0,94.0 L 167.0,84.0 L 160.0,76.0 L 150.0,71.0 L 146.0,70.0 L 134.0,70.0" fill="#090909"/>
</svg>
