<?xml version="1.0" ?>
<svg baseProfile="full" height="600px" version="1.1" viewBox="-12.864 -12.864 153.728 153.728" width="600px" xmlns="http://www.w3.org/2000/svg" xmlns:ev="http://www.w3.org/2001/xml-events" xmlns:xlink="http://www.w3.org/1999/xlink">
	<defs/>
	<path d="M 0.0,0.0 L 128.0,0.0 L 128.0,128.0 L 0.0,128.0 L 0.0,0.0" fill="#FDFDFD"/>
	<path d="M 40.0,15.0 L 54.0,15.0 L 66.0,20.0 L 74.0,28.0 L 79.0,38.0 L 80.0,41.0 L 80.0,52.0 L 77.0,61.0 L 73.0,68.0 L 64.0,76.0 L 53.0,80.0 L 40.0,80.0 L 31.0,76.0 L 23.0,70.0 L 17.0,61.0 L 15.0,55.0 L 15.0,39.0 L 21.0,27.0 L 30.0,19.0 L 40.0,15.0" fill="#070707"/>
	<path d="M 43.0,26.0 L 52.0,26.0 L 62.0,31.0 L 68.0,40.0 L 68.0,54.0 L 65.0,60.0 L 57.0,67.0 L 52.0,69.0 L 42.0,69.0 L 34.0,65.0 L 28.0,58.0 L 26.0,52.0 L 26.0,41.0 L 31.0,33.0 L 37.0,28.0 L 43.0,26.0" fill="#FAFAFA"/>
	<path d="M 78.0,77.0 L 88.0,77.0 L 93.0,80.0 L 97.0,85.0 L 98.0,87.0 L 98.0,94.0 L 95.0,100.0 L 89.0,105.0 L 78.0,105.0 L 72.0,101.0 L 69.0,95.0 L 69.0,86.0 L 73.0,80.0 L 78.0,77.0" fill="#0E0E0E"/>
	<path d="M 79.0,82.0 L 87.0,82.0 L 92.0,86.0 L 93.0,88.0 L 93.0,94.0 L 89.0,99.0 L 87.0,100.0 L 79.0,100.0 L 75.0,96.0 L 74.0,94.0 L 74.0,87.0 L 79.0,82.0" fill="#F7F7F7"/>
</svg>
