<?xml version="1.0" ?>
<svg baseProfile="full" height="600px" version="1.1" viewBox="-20.1 -20.1 240.2 240.2" width="600px" xmlns="http://www.w3.org/2000/svg" xmlns:ev="http://www.w3.org/2001/xml-events" xmlns:xlink="http://www.w3.org/1999/xlink">
	<defs/>
	<path d="M 0.0,0.0 L 200.0,0.0 L 200.0,200.0 L 0.0,200.0 L 0.0,0.0" fill="#FDFDFD"/>
	<path d="M 46.0,52.0 L 67.0,52.0 L 77.0,56.0 L 86.0,63.0 L 93.0,71.0 L 98.0,82.0 L 99.0,86.0 L 99.0,99.0 L 95.0,113.0 L 87.0,124.0 L 76.0,132.0 L 64.0,136.0 L 49.0,136.0 L 39.0,133.0 L 28.0,126.0 L 21.0,118.0 L 17.0,110.0 L 14.0,99.0 L 14.0,86.0 L 18.0,75.0 L 24.0,66.0 L 33.0,58.0 L 43.0,53.0 L 46.0,52.0" fill="#FCFCFC"/>
	<path d="M 136.0,79.0 L 152.0,79.0 L 163.0,83.0 L 173.0,92.0 L 178.0,101.0 L 180.0,107.0 L 180.0,120.0 L 175.0,133.0 L 167.0,142.0 L 155.0,148.0 L 151.0,149.0 L 137.0,149.0 L 127.0,145.0 L 118.0,138.0 L 112.0,128.0 L 109.0,118.0 L 109.0,109.0 L 112.0,99.0 L 118.0,90.0 L 125.0,84.0 L 133.0,80.0 L 136.0,79.0" fill="#FBFBFB"/>
	<path d="M 46.0,52.0 L 67.0,52.0 L 77.0,56.0 L 86.0,63.0 L 93.0,71.0 L 98.0,82.0 L 99.0,86.0 L 99.0,99.0 L 95.0,113.0 L 87.0,124.0 L 76.0,132.0 L 64.0,136.0 L 49.0,136.0 L 39.0,133.0 L 28.0,126.0 L 21.0,118.0 L 17.0,110.0 L 14.0,99.0 L 14.0,86.0 L 18.0,75.0 L 24.0,66.0 L 33.0,58.0 L 43.0,53.0 L 46.0,52.0 M 49.0,60.0 L 40.0,64.0 L 32.0,70.0 L 26.0,78.0 L 23.0,86.0 L 23.0,101.0 L 28.0,113.0 L 33.0,119.0 L 44.0,126.0 L 49.0,127.0 L 64.0,127.0 L 74.0,123.0 L 82.0,117.0 L 88.0,107.0 L 90.0,101.0 L 90.0,86.0 L 86.0,76.0 L 78.0,67.0 L 66.0,61.0 L 62.0,60.0 L 49.0,60.0" fill="#080808"/>
	<path d="M 136.0,79.0 L 152.0,79.0 L 163.0,83.0 L 173.0,92.0 L 178.0,101.0 L 180.0,107.0 L 180.0,120.0 L 175.0,133.0 L 167.0,142.0 L 155.0,148.0 L 151.0,149.0 L 137.0,149.0 L 127.0,145.0 L 118.0,138.0 L 112.0,128.0 L 109.0,118.0 L 109.0,109.0 L 112.0,99.0 L 118.0,90.0 L 125.0,84.0 L 133.0,80.0 L 136.0,79.0 M 137.0,86.0 L 129.0,90.0 L 122.0,96.0 L 117.0,106.0 L 117.0,122.0 L 122.0,131.0 L 131.0,139.0 L 138.0,142.0 L 151.0,142.0 L 163.0,136.0 L 169.0,129.0 L 173.0,119.0 L 173.0,108.0 L 169.0,99.0 L 162.0,91.0 L 152.0,86.0 L 137.0,86.0" fill="#090909"/>
</svg>
