<?xml version="1.0" ?>
<svg baseProfile="full" height="600px" version="1.1" viewBox="-20.1 -20.1 240.2 240.2" width="600px" xmlns="http://www.w3.org/2000/svg" xmlns:ev="http://www.w3.org/2001/xml-events" xmlns:xlink="http://www.w3.org/1999/xlink">
	<defs/>
	<path d="M 0.0,0.0 L 200.0,0.0 L 200.0,200.0 L 0.0,200.0 L 0.0,0.0" fill="#FDFDFD"/>
	<path d="M 69.0,51.0 L 93.0,51.0 L 105.0,54.0 L 121.0,62.0 L 133.0,72.0 L 142.0,84.0 L 148.0,97.0 L 151.0,109.0 L 151.0,132.0 L 145.0,150.0 L 139.0,160.0 L 130.0,170.0 L 122.0,177.0 L 112.0,183.0 L 98.0,188.0 L 90.0,189.0 L 74.0,189.0 L 62.0,187.0 L 48.0,181.0 L 37.0,173.0 L 27.0,163.0 L 20.0,152.0 L 15.0,139.0 L 13.0,129.0 L 13.0,109.0 L 16.0,97.0 L 24.0,81.0 L 33.0,70.0 L 43.0,62.0 L 59.0,54.0 L 69.0,51.0" fill="#FDFDFD"/>
	<path d="M 70.0,44.0 L 91.0,44.0 L 105.0,47.0 L 117.0,52.0 L 128.0,59.0 L 138.0,68.0 L 146.0,78.0 L 154.0,94.0 L 158.0,109.0 L 158.0,130.0 L 155.0,142.0 L 150.0,155.0 L 143.0,166.0 L 132.0,178.0 L 122.0,185.0 L 110.0,191.0 L 97.0,195.0 L 92.0,196.0 L 71.0,196.0 L 56.0,192.0 L 40.0,184.0 L 29.0,175.0 L 20.0,165.0 L 12.0,151.0 L 7.0,136.0 L 6.0,131.0 L 6.0,108.0 L 10.0,94.0 L 18.0,78.0 L 25.0,69.0 L 34.0,60.0 L 45.0,53.0 L 58.0,47.0 L 70.0,44.0 M 69.0,51.0 L 56.0,55.0 L 43.0,62.0 L 32.0,71.0 L 24.0,81.0 L 16.0,97.0 L 13.0,109.0 L 13.0,129.0 L 17.0,145.0 L 24.0,159.0 L 35.0,171.0 L 43.0,178.0 L 59.0,186.0 L 66.0,188.0 L 74.0,189.0 L 90.0,189.0 L 102.0,187.0 L 116.0,181.0 L 127.0,173.0 L 137.0,163.0 L 145.0,150.0 L 151.0,132.0 L 151.0,109.0 L 147.0,94.0 L 140.0,81.0 L 130.0,69.0 L 118.0,60.0 L 105.0,54.0 L 93.0,51.0 L 69.0,51.0" fill="#0B0B0B"/>
</svg>
