<?xml version="1.0" ?>
<svg baseProfile="full" height="600px" version="1.1" viewBox="-12.864 -12.864 153.728 153.728" width="600px" xmlns="http://www.w3.org/2000/svg" xmlns:ev="http://www.w3.org/2001/xml-events" xmlns:xlink="http://www.w3.org/1999/xlink">
	<defs/>
	<path d="M 0.0,0.0 L 128.0,0.0 L 128.0,128.0 L 0.0,128.0 L 0.0,0.0" fill="#FCFCFC"/>
	<path d="M 87.0,35.0 L 98.0,35.0 L 107.0,38.0 L 115.0,45.0 L 120.0,55.0 L 120.0,68.0 L 115.0,78.0 L 107.0,85.0 L 101.0,88.0 L 86.0,88.0 L 78.0,84.0 L 71.0,77.0 L 67.0,68.0 L 67.0,55.0 L 72.0,45.0 L 80.0,38.0 L 87.0,35.0" fill="#060606"/>
	<path d="M 26.0,37.0 L 41.0,37.0 L 48.0,40.0 L 56.0,47.0 L 59.0,52.0 L 61.0,58.0 L 61.0,66.0 L 58.0,75.0 L 53.0,82.0 L 45.0,87.0 L 40.0,89.0 L 29.0,89.0 L 17.0,83.0 L 11.0,75.0 L 8.0,68.0 L 8.0,57.0 L 13.0,47.0 L 20.0,40.0 L 26.0,37.0" fill="#070707"/>
	<path d="M 89.0,44.0 L 98.0,44.0 L 106.0,49.0 L 110.0,54.0 L 111.0,57.0 L 111.0,66.0 L 108.0,72.0 L 101.0,78.0 L 98.0,79.0 L 88.0,79.0 L 82.0,75.0 L 77.0,69.0 L 76.0,66.0 L 76.0,57.0 L 80.0,50.0 L 86.0,45.0 L 89.0,44.0" fill="#FAFAFA"/>
	<path d="M 31.0,45.0 L 40.0,46.0 L 47.0,50.0 L 51.0,56.0 L 52.0,59.0 L 52.0,67.0 L 47.0,75.0 L 39.0,80.0 L 30.0,80.0 L 23.0,76.0 L 19.0,71.0 L 17.0,67.0 L 17.0,58.0 L 22.0,50.0 L 28.0,46.0 L 31.0,45.0" fill="#F7F7F7"/>
</svg>
