<?xml version="1.0" ?>
<svg baseProfile="full" height="600px" version="1.1" viewBox="-12.864 -12.864 153.728 153.728" width="600px" xmlns="http://www.w3.org/2000/svg" xmlns:ev="http://www.w3.org/2001/xml-events" xmlns:xlink="http://www.w3.org/1999/xlink">
	<defs/>
	<path d="M 0.0,0.0 L 128.0,0.0 L 128.0,128.0 L 0.0,128.0 L 0.0,0.0" fill="#FDFDFD"/>
	<path d="M 49.0,6.0 L 67.0,6.0 L 76.0,10.0 L 84.0,16.0 L 90.0,24.0 L 94.0,33.0 L 94.0,49.0 L 90.0,59.0 L 86.0,65.0 L 77.0,73.0 L 64.0,78.0 L 52.0,78.0 L 41.0,74.0 L 33.0,68.0 L 27.0,61.0 L 23.0,51.0 L 22.0,47.0 L 22.0,34.0 L 26.0,24.0 L 33.0,15.0 L 42.0,9.0 L 49.0,6.0" fill="#060606"/>
	<path d="M 52.0,18.0 L 64.0,18.0 L 72.0,22.0 L 77.0,27.0 L 81.0,33.0 L 82.0,36.0 L 82.0,47.0 L 77.0,57.0 L 69.0,63.0 L 64.0,65.0 L 51.0,65.0 L 41.0,59.0 L 36.0,51.0 L 35.0,48.0 L 35.0,34.0 L 40.0,26.0 L 47.0,20.0 L 52.0,18.0" fill="#FBFBFB"/>
	<path d="M 66.0,88.0 L 72.0,88.0 L 76.0,92.0 L 76.0,99.0 L 71.0,103.0 L 66.0,103.0 L 62.0,99.0 L 62.0,91.0 L 66.0,88.0" fill="#151515"/>
	<path d="M 66.0,91.0 L 72.0,91.0 L 74.0,94.0 L 73.0,98.0 L 71.0,100.0 L 65.0,99.0 L 64.0,93.0 L 66.0,91.0" fill="#F2F2F2"/>
	<path d="M 62.0,92.0 L 64.0,92.0 L 65.0,99.0 L 71.0,100.0 L 70.0,102.0 L 65.0,102.0 L 62.0,99.0 L 62.0,92.0" fill="#0B0B0B"/>
	<path d="M 73.0,97.0 L 75.0,97.0 L 74.0,101.0 L 71.0,103.0 L 66.0,103.0 L 70.0,101.0 L 73.0,97.0" fill="#2F2F2F"/>
	<path d="M 66.0,88.0 L 70.0,90.0 L 66.0,92.0 L 64.0,93.0 L 62.0,91.0 L 66.0,88.0" fill="#2E2E2E"/>
</svg>
