<?xml version="1.0" ?>
<svg baseProfile="full" height="600px" version="1.1" viewBox="-19.296000000000003 -19.296000000000003 230.592 230.592" width="600px" xmlns="http://www.w3.org/2000/svg" xmlns:ev="http://www.w3.org/2001/xml-events" xmlns:xlink="http://www.w3.org/1999/xlink">
	<defs/>
	<path d="M 0.0,0.0 L 192.0,0.0 L 192.0,192.0 L 0.0,192.0 L 0.0,0.0" fill="#FEFEFD"/>
	<path d="M 68.0,24.0 L 75.0,24.0 L 81.0,28.0 L 84.0,33.0 L 85.0,73.0 L 89.0,68.0 L 91.0,67.0 L 100.0,67.0 L 105.0,70.0 L 108.0,75.0 L 109.0,82.0 L 114.0,77.0 L 116.0,76.0 L 123.0,76.0 L 129.0,79.0 L 133.0,86.0 L 139.0,81.0 L 141.0,80.0 L 147.0,80.0 L 153.0,84.0 L 156.0,88.0 L 156.0,146.0 L 152.0,157.0 L 144.0,167.0 L 134.0,173.0 L 126.0,176.0 L 83.0,176.0 L 71.0,172.0 L 58.0,163.0 L 49.0,154.0 L 37.0,136.0 L 36.0,133.0 L 36.0,125.0 L 42.0,117.0 L 53.0,108.0 L 59.0,104.0 L 60.0,32.0 L 66.0,25.0 L 68.0,24.0" fill="#FECB7F"/>
	<path d="M 57.0,105.0 L 60.0,105.0 L 60.0,139.0 L 58.0,137.0 L 51.0,120.0 L 48.0,114.0 L 50.0,110.0 L 57.0,105.0" fill="#F3A45C"/>
	<path d="M 69.0,28.0 L 76.0,29.0 L 79.0,32.0 L 79.0,38.0 L 77.0,40.0 L 68.0,40.0 L 64.0,38.0 L 64.0,32.0 L 69.0,28.0" fill="#FEE9E9"/>
	<path d="M 84.0,76.0 L 85.0,76.0 L 87.0,95.0 L 84.0,96.0 L 84.0,76.0" fill="#F4A75F"/>
</svg>
