<?xml version="1.0" ?>
<svg baseProfile="full" height="600px" version="1.1" viewBox="-20.1 -20.1 240.2 240.2" width="600px" xmlns="http://www.w3.org/2000/svg" xmlns:ev="http://www.w3.org/2001/xml-events" xmlns:xlink="http://www.w3.org/1999/xlink">
	<defs/>
	<path d="M 0.0,0.0 L 200.0,0.0 L 200.0,200.0 L 0.0,200.0 L 0.0,0.0" fill="#FDFDFD"/>
	<path d="M 109.0,40.0 L 130.0,40.0 L 146.0,44.0 L 160.0,51.0 L 170.0,59.0 L 178.0,68.0 L 186.0,82.0 L 190.0,93.0 L 191.0,99.0 L 191.0,121.0 L 188.0,133.0 L 183.0,144.0 L 176.0,155.0 L 165.0,166.0 L 152.0,174.0 L 139.0,179.0 L 133.0,180.0 L 107.0,180.0 L 92.0,175.0 L 80.0,168.0 L 70.0,159.0 L 63.0,151.0 L 57.0,141.0 L 52.0,126.0 L 51.0,121.0 L 51.0,97.0 L 55.0,84.0 L 63.0,69.0 L 74.0,57.0 L 87.0,48.0 L 98.0,43.0 L 109.0,40.0" fill="#FDFDFD"/>
	<path d="M 109.0,33.0 L 132.0,33.0 L 150.0,38.0 L 165.0,46.0 L 178.0,57.0 L 187.0,69.0 L 194.0,83.0 L 198.0,99.0 L 198.0,122.0 L 193.0,139.0 L 186.0,153.0 L 177.0,164.0 L 167.0,173.0 L 153.0,181.0 L 139.0,186.0 L 133.0,187.0 L 109.0,187.0 L 96.0,184.0 L 80.0,176.0 L 69.0,168.0 L 62.0,161.0 L 55.0,151.0 L 48.0,137.0 L 44.0,123.0 L 44.0,101.0 L 46.0,89.0 L 52.0,74.0 L 60.0,62.0 L 68.0,53.0 L 80.0,44.0 L 94.0,37.0 L 109.0,33.0 M 109.0,40.0 L 93.0,45.0 L 82.0,51.0 L 72.0,59.0 L 63.0,69.0 L 54.0,86.0 L 51.0,97.0 L 51.0,121.0 L 55.0,136.0 L 61.0,148.0 L 69.0,158.0 L 77.0,166.0 L 90.0,174.0 L 103.0,179.0 L 107.0,180.0 L 133.0,180.0 L 141.0,178.0 L 154.0,173.0 L 166.0,165.0 L 176.0,155.0 L 184.0,143.0 L 190.0,127.0 L 191.0,121.0 L 191.0,99.0 L 189.0,91.0 L 185.0,80.0 L 178.0,68.0 L 167.0,56.0 L 153.0,47.0 L 140.0,42.0 L 130.0,40.0 L 109.0,40.0" fill="#0B0B0B"/>
</svg>
