<?xml version="1.0" ?>
<svg baseProfile="full" height="600px" version="1.1" viewBox="-20.1 -20.1 240.2 240.2" width="600px" xmlns="http://www.w3.org/2000/svg" xmlns:ev="http://www.w3.org/2001/xml-events" xmlns:xlink="http://www.w3.org/1999/xlink">
	<defs/>
	<path d="M 0.0,0.0 L 200.0,0.0 L 200.0,200.0 L 0.0,200.0 L 0.0,0.0" fill="#FDFDFD"/>
	<path d="M 109.0,49.0 L 121.0,49.0 L 132.0,51.0 L 145.0,58.0 L 155.0,67.0 L 162.0,78.0 L 166.0,89.0 L 166.0,110.0 L 162.0,122.0 L 155.0,133.0 L 148.0,140.0 L 138.0,146.0 L 128.0,150.0 L 121.0,151.0 L 107.0,151.0 L 95.0,147.0 L 85.0,141.0 L 77.0,134.0 L 72.0,127.0 L 63.0,121.0 L 57.0,112.0 L 55.0,106.0 L 55.0,95.0 L 58.0,86.0 L 64.0,78.0 L 73.0,72.0 L 80.0,63.0 L 91.0,55.0 L 100.0,51.0 L 109.0,49.0" fill="#FCFCFC"/>
	<path d="M 109.0,49.0 L 121.0,49.0 L 132.0,51.0 L 145.0,58.0 L 155.0,67.0 L 162.0,78.0 L 166.0,89.0 L 166.0,110.0 L 162.0,122.0 L 155.0,133.0 L 148.0,140.0 L 138.0,146.0 L 128.0,150.0 L 121.0,151.0 L 107.0,151.0 L 95.0,147.0 L 85.0,141.0 L 77.0,134.0 L 72.0,127.0 L 63.0,121.0 L 57.0,112.0 L 55.0,106.0 L 55.0,95.0 L 58.0,86.0 L 64.0,78.0 L 73.0,72.0 L 80.0,63.0 L 91.0,55.0 L 100.0,51.0 L 109.0,49.0 M 107.0,60.0 L 98.0,63.0 L 89.0,69.0 L 81.0,78.0 L 76.0,89.0 L 75.0,94.0 L 75.0,105.0 L 79.0,118.0 L 85.0,127.0 L 94.0,135.0 L 102.0,139.0 L 111.0,141.0 L 120.0,141.0 L 128.0,139.0 L 140.0,133.0 L 146.0,128.0 L 153.0,117.0 L 156.0,108.0 L 156.0,91.0 L 151.0,79.0 L 144.0,70.0 L 135.0,64.0 L 126.0,60.0 L 107.0,60.0" fill="#070707"/>
	<path d="M 66.0,85.0 L 67.0,87.0 L 66.0,92.0 L 66.0,108.0 L 67.0,115.0 L 63.0,111.0 L 61.0,105.0 L 61.0,94.0 L 65.0,86.0 L 66.0,85.0" fill="#E5E5E5"/>
</svg>
