<?xml version="1.0" ?>
<svg baseProfile="full" height="600px" version="1.1" viewBox="-12.864 -12.864 153.728 153.728" width="600px" xmlns="http://www.w3.org/2000/svg" xmlns:ev="http://www.w3.org/2001/xml-events" xmlns:xlink="http://www.w3.org/1999/xlink">
	<defs/>
	<path d="M 0.0,0.0 L 128.0,0.0 L 128.0,128.0 L 0.0,128.0 L 0.0,0.0" fill="#FDFDFD"/>
	<path d="M 76.0,30.0 L 85.0,30.0 L 96.0,34.0 L 104.0,40.0 L 110.0,49.0 L 112.0,55.0 L 112.0,68.0 L 108.0,78.0 L 100.0,87.0 L 90.0,92.0 L 87.0,93.0 L 74.0,93.0 L 64.0,89.0 L 56.0,83.0 L 53.0,84.0 L 43.0,84.0 L 35.0,80.0 L 29.0,73.0 L 27.0,67.0 L 27.0,56.0 L 32.0,48.0 L 38.0,43.0 L 42.0,41.0 L 56.0,41.0 L 63.0,35.0 L 71.0,31.0 L 76.0,30.0" fill="#070707"/>
	<path d="M 75.0,41.0 L 85.0,41.0 L 92.0,44.0 L 97.0,48.0 L 100.0,53.0 L 101.0,57.0 L 101.0,68.0 L 95.0,77.0 L 87.0,82.0 L 74.0,82.0 L 65.0,76.0 L 61.0,69.0 L 60.0,66.0 L 60.0,56.0 L 65.0,47.0 L 75.0,41.0" fill="#FAFAFA"/>
	<path d="M 44.0,48.0 L 52.0,48.0 L 50.0,55.0 L 50.0,68.0 L 52.0,73.0 L 52.0,76.0 L 43.0,76.0 L 38.0,73.0 L 34.0,66.0 L 34.0,58.0 L 38.0,52.0 L 44.0,48.0" fill="#F6F6F6"/>
</svg>
