<?xml version="1.0" ?>
<svg baseProfile="full" height="600px" version="1.1" viewBox="-12.864 -12.864 153.728 153.728" width="600px" xmlns="http://www.w3.org/2000/svg" xmlns:ev="http://www.w3.org/2001/xml-events" xmlns:xlink="http://www.w3.org/1999/xlink">
	<defs/>
	<path d="M 0.0,0.0 L 128.0,0.0 L 128.0,128.0 L 0.0,128.0 L 0.0,0.0" fill="#FDFDFD"/>
	<path d="M 62.0,27.0 L 80.0,27.0 L 92.0,33.0 L 97.0,37.0 L 104.0,48.0 L 106.0,54.0 L 106.0,66.0 L 103.0,76.0 L 98.0,84.0 L 89.0,92.0 L 78.0,96.0 L 63.0,96.0 L 53.0,92.0 L 43.0,83.0 L 38.0,74.0 L 36.0,68.0 L 36.0,56.0 L 39.0,46.0 L 45.0,38.0 L 53.0,31.0 L 62.0,27.0" fill="#050505"/>
	<path d="M 67.0,38.0 L 74.0,38.0 L 84.0,42.0 L 89.0,46.0 L 94.0,56.0 L 94.0,67.0 L 90.0,75.0 L 82.0,82.0 L 78.0,84.0 L 64.0,84.0 L 56.0,79.0 L 50.0,72.0 L 48.0,66.0 L 48.0,56.0 L 53.0,46.0 L 61.0,40.0 L 67.0,38.0" fill="#FAFAFA"/>
</svg>
