<?xml version="1.0" ?>
<svg baseProfile="full" height="600px" version="1.1" viewBox="-12.864 -12.864 153.728 153.728" width="600px" xmlns="http://www.w3.org/2000/svg" xmlns:ev="http://www.w3.org/2001/xml-events" xmlns:xlink="http://www.w3.org/1999/xlink">
	<defs/>
	<path d="M 0.0,0.0 L 128.0,0.0 L 128.0,128.0 L 0.0,128.0 L 0.0,0.0" fill="#FDFDFD"/>
	<path d="M 85.0,33.0 L 94.0,33.0 L 103.0,37.0 L 109.0,41.0 L 115.0,50.0 L 117.0,55.0 L 117.0,68.0 L 113.0,77.0 L 106.0,85.0 L 98.0,89.0 L 95.0,90.0 L 81.0,90.0 L 71.0,85.0 L 64.0,77.0 L 63.0,73.0 L 61.0,73.0 L 59.0,78.0 L 52.0,84.0 L 43.0,87.0 L 35.0,87.0 L 25.0,82.0 L 20.0,77.0 L 15.0,67.0 L 15.0,57.0 L 20.0,47.0 L 28.0,40.0 L 34.0,38.0 L 47.0,38.0 L 56.0,43.0 L 61.0,49.0 L 63.0,50.0 L 65.0,45.0 L 72.0,38.0 L 80.0,34.0 L 85.0,33.0" fill="#070707"/>
	<path d="M 84.0,43.0 L 93.0,43.0 L 101.0,47.0 L 105.0,52.0 L 107.0,56.0 L 107.0,67.0 L 104.0,73.0 L 97.0,79.0 L 95.0,80.0 L 82.0,80.0 L 76.0,76.0 L 72.0,71.0 L 70.0,66.0 L 70.0,58.0 L 73.0,51.0 L 78.0,46.0 L 84.0,43.0" fill="#FAFAFA"/>
	<path d="M 35.0,46.0 L 44.0,46.0 L 51.0,50.0 L 55.0,55.0 L 56.0,58.0 L 56.0,67.0 L 52.0,73.0 L 47.0,77.0 L 44.0,78.0 L 34.0,78.0 L 27.0,73.0 L 24.0,67.0 L 24.0,57.0 L 27.0,52.0 L 33.0,47.0 L 35.0,46.0" fill="#F9F9F9"/>
</svg>
