<?xml version="1.0" ?>
<svg baseProfile="full" height="600px" version="1.1" viewBox="-20.1 -20.1 240.2 240.2" width="600px" xmlns="http://www.w3.org/2000/svg" xmlns:ev="http://www.w3.org/2001/xml-events" xmlns:xlink="http://www.w3.org/1999/xlink">
	<defs/>
	<path d="M 0.0,0.0 L 200.0,0.0 L 200.0,200.0 L 0.0,200.0 L 0.0,0.0" fill="#FDFDFD"/>
	<path d="M 63.0,67.0 L 87.0,67.0 L 102.0,72.0 L 113.0,78.0 L 124.0,88.0 L 133.0,102.0 L 137.0,112.0 L 139.0,124.0 L 139.0,139.0 L 135.0,154.0 L 131.0,161.0 L 133.0,166.0 L 140.0,168.0 L 140.0,169.0 L 134.0,169.0 L 130.0,166.0 L 127.0,167.0 L 120.0,175.0 L 111.0,183.0 L 99.0,189.0 L 85.0,193.0 L 65.0,193.0 L 52.0,189.0 L 39.0,182.0 L 29.0,173.0 L 21.0,163.0 L 16.0,152.0 L 13.0,142.0 L 12.0,135.0 L 12.0,122.0 L 16.0,107.0 L 22.0,95.0 L 31.0,84.0 L 43.0,75.0 L 53.0,70.0 L 63.0,67.0" fill="#FCFCFC"/>
	<path d="M 63.0,67.0 L 87.0,67.0 L 102.0,72.0 L 113.0,78.0 L 124.0,88.0 L 133.0,102.0 L 137.0,112.0 L 139.0,124.0 L 139.0,139.0 L 135.0,154.0 L 131.0,161.0 L 133.0,166.0 L 140.0,168.0 L 140.0,169.0 L 134.0,169.0 L 130.0,166.0 L 127.0,167.0 L 120.0,175.0 L 111.0,183.0 L 99.0,189.0 L 85.0,193.0 L 65.0,193.0 L 52.0,189.0 L 39.0,182.0 L 29.0,173.0 L 21.0,163.0 L 16.0,152.0 L 13.0,142.0 L 12.0,135.0 L 12.0,122.0 L 16.0,107.0 L 22.0,95.0 L 31.0,84.0 L 43.0,75.0 L 53.0,70.0 L 63.0,67.0 M 68.0,72.0 L 56.0,75.0 L 44.0,81.0 L 33.0,90.0 L 24.0,103.0 L 20.0,112.0 L 18.0,120.0 L 18.0,136.0 L 20.0,146.0 L 25.0,158.0 L 31.0,167.0 L 39.0,175.0 L 50.0,182.0 L 60.0,186.0 L 64.0,187.0 L 86.0,187.0 L 101.0,182.0 L 112.0,175.0 L 122.0,165.0 L 129.0,153.0 L 133.0,139.0 L 133.0,119.0 L 129.0,107.0 L 123.0,96.0 L 113.0,85.0 L 102.0,78.0 L 89.0,73.0 L 82.0,72.0 L 68.0,72.0" fill="#0D0D0D"/>
	<path d="M 136.0,152.0 L 141.0,153.0 L 145.0,157.0 L 146.0,163.0 L 144.0,167.0 L 142.0,168.0 L 135.0,168.0 L 130.0,163.0 L 132.0,157.0 L 136.0,152.0" fill="#E2E2E2"/>
</svg>
