<?xml version="1.0" ?>
<svg baseProfile="full" height="600px" version="1.1" viewBox="-20.1 -20.1 240.2 240.2" width="600px" xmlns="http://www.w3.org/2000/svg" xmlns:ev="http://www.w3.org/2001/xml-events" xmlns:xlink="http://www.w3.org/1999/xlink">
	<defs/>
	<path d="M 0.0,0.0 L 200.0,0.0 L 200.0,200.0 L 0.0,200.0 L 0.0,0.0" fill="#FDFDFD"/>
	<path d="M 86.0,46.0 L 101.0,46.0 L 110.0,48.0 L 122.0,53.0 L 131.0,60.0 L 138.0,67.0 L 144.0,77.0 L 148.0,89.0 L 148.0,108.0 L 146.0,117.0 L 138.0,133.0 L 128.0,143.0 L 118.0,149.0 L 104.0,154.0 L 85.0,154.0 L 72.0,150.0 L 61.0,143.0 L 54.0,137.0 L 47.0,127.0 L 42.0,115.0 L 40.0,109.0 L 40.0,92.0 L 44.0,79.0 L 50.0,68.0 L 58.0,59.0 L 72.0,50.0 L 82.0,47.0 L 86.0,46.0" fill="#FCFCFC"/>
	<path d="M 86.0,46.0 L 101.0,46.0 L 110.0,48.0 L 122.0,53.0 L 131.0,60.0 L 138.0,67.0 L 144.0,77.0 L 148.0,89.0 L 148.0,108.0 L 146.0,117.0 L 138.0,133.0 L 128.0,143.0 L 118.0,149.0 L 104.0,154.0 L 85.0,154.0 L 72.0,150.0 L 61.0,143.0 L 54.0,137.0 L 47.0,127.0 L 42.0,115.0 L 40.0,109.0 L 40.0,92.0 L 44.0,79.0 L 50.0,68.0 L 58.0,59.0 L 72.0,50.0 L 82.0,47.0 L 86.0,46.0 M 85.0,57.0 L 73.0,62.0 L 65.0,68.0 L 57.0,77.0 L 53.0,85.0 L 51.0,92.0 L 51.0,105.0 L 54.0,117.0 L 60.0,127.0 L 68.0,135.0 L 82.0,142.0 L 85.0,143.0 L 102.0,143.0 L 112.0,140.0 L 123.0,133.0 L 130.0,125.0 L 135.0,116.0 L 137.0,110.0 L 137.0,90.0 L 132.0,78.0 L 125.0,69.0 L 116.0,62.0 L 106.0,58.0 L 102.0,57.0 L 85.0,57.0" fill="#060606"/>
</svg>
