<?xml version="1.0" ?>
<svg baseProfile="full" height="600px" version="1.1" viewBox="-12.864 -12.864 153.728 153.728" width="600px" xmlns="http://www.w3.org/2000/svg" xmlns:ev="http://www.w3.org/2001/xml-events" xmlns:xlink="http://www.w3.org/1999/xlink">
	<defs/>
	<path d="M 0.0,0.0 L 128.0,0.0 L 128.0,128.0 L 0.0,128.0 L 0.0,0.0" fill="#FCFCFC"/>
	<path d="M 32.0,26.0 L 48.0,26.0 L 58.0,31.0 L 66.0,40.0 L 69.0,48.0 L 69.0,62.0 L 65.0,71.0 L 58.0,79.0 L 48.0,84.0 L 32.0,84.0 L 22.0,79.0 L 15.0,71.0 L 11.0,62.0 L 11.0,47.0 L 16.0,37.0 L 25.0,29.0 L 32.0,26.0" fill="#070707"/>
	<path d="M 88.0,58.0 L 97.0,58.0 L 105.0,62.0 L 111.0,69.0 L 113.0,73.0 L 113.0,84.0 L 109.0,92.0 L 103.0,97.0 L 98.0,99.0 L 85.0,99.0 L 79.0,95.0 L 73.0,88.0 L 72.0,85.0 L 72.0,72.0 L 77.0,64.0 L 84.0,59.0 L 88.0,58.0" fill="#080808"/>
	<path d="M 34.0,36.0 L 45.0,36.0 L 53.0,40.0 L 58.0,46.0 L 59.0,49.0 L 59.0,60.0 L 55.0,68.0 L 50.0,72.0 L 45.0,74.0 L 34.0,74.0 L 25.0,68.0 L 21.0,61.0 L 21.0,49.0 L 27.0,40.0 L 34.0,36.0" fill="#FAFAFA"/>
	<path d="M 88.0,65.0 L 95.0,65.0 L 101.0,68.0 L 105.0,73.0 L 106.0,76.0 L 106.0,83.0 L 101.0,90.0 L 97.0,92.0 L 87.0,92.0 L 80.0,86.0 L 79.0,83.0 L 79.0,74.0 L 83.0,68.0 L 88.0,65.0" fill="#F9F9F9"/>
</svg>
