<?xml version="1.0" ?>
<svg baseProfile="full" height="600px" version="1.1" viewBox="-20.1 -20.1 240.2 240.2" width="600px" xmlns="http://www.w3.org/2000/svg" xmlns:ev="http://www.w3.org/2001/xml-events" xmlns:xlink="http://www.w3.org/1999/xlink">
	<defs/>
	<path d="M 0.0,0.0 L 200.0,0.0 L 200.0,200.0 L 0.0,200.0 L 0.0,0.0" fill="#FDFDFD"/>
	<path d="M 8.0,144.0 L 16.0,144.0 L 17.0,171.0 L 20.0,176.0 L 24.0,179.0 L 176.0,179.0 L 182.0,174.0 L 183.0,172.0 L 184.0,144.0 L 192.0,144.0 L 192.0,173.0 L 188.0,181.0 L 182.0,186.0 L 177.0,188.0 L 23.0,188.0 L 15.0,184.0 L 9.0,176.0 L 8.0,173.0 L 8.0,144.0" fill="#020202"/>
	<path d="M 99.0,15.0 L 103.0,17.0 L 136.0,50.0 L 135.0,55.0 L 130.0,56.0 L 105.0,31.0 L 104.0,146.0 L 102.0,148.0 L 97.0,147.0 L 96.0,146.0 L 95.0,31.0 L 70.0,56.0 L 65.0,55.0 L 64.0,50.0 L 99.0,15.0" fill="#010101"/>
</svg>
