<?xml version="1.0" ?>
<svg baseProfile="full" height="600px" version="1.1" viewBox="-12.06 -12.06 144.12 144.12" width="600px" xmlns="http://www.w3.org/2000/svg" xmlns:ev="http://www.w3.org/2001/xml-events" xmlns:xlink="http://www.w3.org/1999/xlink">
	<defs/>
	<path d="M 0.0,0.0 L 120.0,0.0 L 120.0,120.0 L 0.0,120.0 L 0.0,0.0" fill="#FAFAFA"/>
	<path d="M 53.0,5.0 L 67.0,5.0 L 77.0,10.0 L 82.0,14.0 L 87.0,22.0 L 88.0,25.0 L 88.0,38.0 L 86.0,40.0 L 81.0,39.0 L 80.0,38.0 L 79.0,27.0 L 74.0,19.0 L 67.0,15.0 L 65.0,14.0 L 55.0,14.0 L 47.0,18.0 L 43.0,23.0 L 40.0,30.0 L 39.0,43.0 L 101.0,43.0 L 106.0,48.0 L 106.0,103.0 L 103.0,108.0 L 101.0,109.0 L 18.0,109.0 L 15.0,106.0 L 14.0,103.0 L 14.0,48.0 L 18.0,43.0 L 20.0,42.0 L 31.0,42.0 L 31.0,28.0 L 35.0,19.0 L 40.0,12.0 L 50.0,6.0 L 53.0,5.0" fill="#010101"/>
</svg>
