<?xml version="1.0" ?>
<svg baseProfile="full" height="600px" version="1.1" viewBox="-20.1 -20.1 240.2 240.2" width="600px" xmlns="http://www.w3.org/2000/svg" xmlns:ev="http://www.w3.org/2001/xml-events" xmlns:xlink="http://www.w3.org/1999/xlink">
	<defs/>
	<path d="M 0.0,0.0 L 200.0,0.0 L 200.0,200.0 L 0.0,200.0 L 0.0,0.0" fill="#FDFDFD"/>
	<path d="M 87.0,9.0 L 106.0,9.0 L 118.0,13.0 L 129.0,20.0 L 137.0,29.0 L 143.0,41.0 L 145.0,50.0 L 146.0,59.0 L 146.0,76.0 L 144.0,78.0 L 139.0,77.0 L 138.0,76.0 L 136.0,54.0 L 134.0,43.0 L 129.0,33.0 L 121.0,25.0 L 112.0,20.0 L 105.0,18.0 L 88.0,18.0 L 76.0,23.0 L 66.0,32.0 L 60.0,44.0 L 59.0,47.0 L 59.0,80.0 L 167.0,80.0 L 172.0,83.0 L 176.0,88.0 L 176.0,191.0 L 173.0,197.0 L 167.0,200.0 L 32.0,200.0 L 25.0,194.0 L 24.0,191.0 L 24.0,88.0 L 27.0,83.0 L 32.0,80.0 L 51.0,80.0 L 50.0,65.0 L 50.0,45.0 L 55.0,33.0 L 63.0,22.0 L 74.0,14.0 L 83.0,10.0 L 87.0,9.0" fill="#FDFDFD"/>
	<path d="M 87.0,9.0 L 106.0,9.0 L 118.0,13.0 L 129.0,20.0 L 137.0,29.0 L 143.0,41.0 L 145.0,50.0 L 146.0,59.0 L 146.0,76.0 L 144.0,78.0 L 139.0,77.0 L 138.0,76.0 L 136.0,54.0 L 134.0,43.0 L 129.0,33.0 L 121.0,25.0 L 112.0,20.0 L 105.0,18.0 L 88.0,18.0 L 76.0,23.0 L 66.0,32.0 L 60.0,44.0 L 59.0,47.0 L 59.0,80.0 L 167.0,80.0 L 172.0,83.0 L 176.0,88.0 L 176.0,191.0 L 173.0,197.0 L 167.0,200.0 L 32.0,200.0 L 25.0,194.0 L 24.0,191.0 L 24.0,88.0 L 27.0,83.0 L 32.0,80.0 L 51.0,80.0 L 50.0,65.0 L 50.0,45.0 L 55.0,33.0 L 63.0,22.0 L 74.0,14.0 L 83.0,10.0 L 87.0,9.0 M 34.0,88.0 L 32.0,90.0 L 32.0,190.0 L 34.0,192.0 L 166.0,192.0 L 168.0,190.0 L 168.0,90.0 L 166.0,88.0 L 34.0,88.0" fill="#030303"/>
	<path d="M 96.0,120.0 L 103.0,120.0 L 109.0,123.0 L 112.0,128.0 L 112.0,135.0 L 109.0,140.0 L 108.0,154.0 L 105.0,159.0 L 97.0,160.0 L 92.0,155.0 L 91.0,140.0 L 88.0,135.0 L 88.0,128.0 L 91.0,123.0 L 96.0,120.0" fill="#040404"/>
</svg>
