<?xml version="1.0" ?>
<svg baseProfile="full" height="600px" version="1.1" viewBox="-12.06 -12.06 144.12 144.12" width="600px" xmlns="http://www.w3.org/2000/svg" xmlns:ev="http://www.w3.org/2001/xml-events" xmlns:xlink="http://www.w3.org/1999/xlink">
	<defs/>
	<path d="M 0.0,0.0 L 120.0,0.0 L 120.0,120.0 L 0.0,120.0 L 0.0,0.0" fill="#030303"/>
	<path d="M 0.0,0.0 L 120.0,0.0 L 120.0,120.0 L 0.0,120.0 L 0.0,0.0 M 52.0,5.0 L 42.0,10.0 L 35.0,18.0 L 31.0,27.0 L 31.0,42.0 L 20.0,42.0 L 14.0,47.0 L 14.0,105.0 L 20.0,110.0 L 100.0,110.0 L 105.0,106.0 L 106.0,104.0 L 106.0,47.0 L 100.0,42.0 L 88.0,42.0 L 88.0,24.0 L 82.0,14.0 L 75.0,8.0 L 67.0,5.0 L 52.0,5.0" fill="#FBFBFB"/>
	<path d="M 54.0,13.0 L 66.0,13.0 L 74.0,18.0 L 80.0,26.0 L 81.0,42.0 L 40.0,42.0 L 40.0,26.0 L 46.0,18.0 L 54.0,13.0" fill="#FBFBFB"/>
</svg>
