<?xml version="1.0" ?>
<svg baseProfile="full" height="600px" version="1.1" viewBox="-19.296000000000003 -19.296000000000003 230.592 230.592" width="600px" xmlns="http://www.w3.org/2000/svg" xmlns:ev="http://www.w3.org/2001/xml-events" xmlns:xlink="http://www.w3.org/1999/xlink">
	<defs/>
	<path d="M 0.0,0.0 L 192.0,0.0 L 192.0,192.0 L 0.0,192.0 L 0.0,0.0" fill="#FDFDFD"/>
	<path d="M 87.0,15.0 L 103.0,15.0 L 114.0,19.0 L 122.0,25.0 L 129.0,33.0 L 134.0,44.0 L 135.0,54.0 L 119.0,54.0 L 115.0,43.0 L 108.0,35.0 L 101.0,32.0 L 88.0,32.0 L 78.0,38.0 L 73.0,46.0 L 72.0,48.0 L 71.0,72.0 L 149.0,72.0 L 155.0,76.0 L 159.0,81.0 L 160.0,83.0 L 160.0,164.0 L 157.0,170.0 L 151.0,175.0 L 148.0,176.0 L 43.0,176.0 L 37.0,172.0 L 33.0,167.0 L 32.0,163.0 L 32.0,83.0 L 36.0,77.0 L 41.0,73.0 L 43.0,72.0 L 55.0,72.0 L 55.0,46.0 L 60.0,34.0 L 67.0,25.0 L 78.0,18.0 L 87.0,15.0" fill="#FA8C01"/>
	<path d="M 87.0,15.0 L 103.0,15.0 L 114.0,19.0 L 122.0,25.0 L 129.0,33.0 L 134.0,44.0 L 135.0,54.0 L 119.0,54.0 L 115.0,43.0 L 108.0,35.0 L 101.0,32.0 L 88.0,32.0 L 78.0,38.0 L 73.0,46.0 L 72.0,48.0 L 71.0,72.0 L 55.0,72.0 L 55.0,46.0 L 60.0,34.0 L 67.0,25.0 L 78.0,18.0 L 87.0,15.0" fill="#454545"/>
	<path d="M 92.0,112.0 L 99.0,112.0 L 105.0,115.0 L 108.0,121.0 L 108.0,128.0 L 105.0,133.0 L 99.0,136.0 L 92.0,136.0 L 85.0,130.0 L 84.0,127.0 L 84.0,120.0 L 88.0,114.0 L 92.0,112.0" fill="#C86F00"/>
</svg>
