<?xml version="1.0" ?>
<svg baseProfile="full" height="600px" version="1.1" viewBox="-12.06 -12.06 144.12 144.12" width="600px" xmlns="http://www.w3.org/2000/svg" xmlns:ev="http://www.w3.org/2001/xml-events" xmlns:xlink="http://www.w3.org/1999/xlink">
	<defs/>
	<path d="M 0.0,0.0 L 120.0,0.0 L 120.0,120.0 L 0.0,120.0 L 0.0,0.0" fill="#FDFDFD"/>
	<path d="M 54.0,7.0 L 67.0,7.0 L 77.0,12.0 L 84.0,19.0 L 87.0,25.0 L 87.0,32.0 L 85.0,34.0 L 80.0,33.0 L 76.0,23.0 L 70.0,18.0 L 65.0,16.0 L 54.0,16.0 L 46.0,21.0 L 42.0,27.0 L 41.0,30.0 L 40.0,43.0 L 99.0,43.0 L 104.0,47.0 L 105.0,49.0 L 105.0,103.0 L 101.0,108.0 L 99.0,109.0 L 21.0,109.0 L 16.0,105.0 L 15.0,103.0 L 15.0,49.0 L 19.0,44.0 L 21.0,43.0 L 32.0,43.0 L 32.0,28.0 L 37.0,18.0 L 44.0,11.0 L 54.0,7.0" fill="#040404"/>
</svg>
