<?xml version="1.0" ?>
<svg baseProfile="full" height="600px" version="1.1" viewBox="-12.06 -12.06 144.12 144.12" width="600px" xmlns="http://www.w3.org/2000/svg" xmlns:ev="http://www.w3.org/2001/xml-events" xmlns:xlink="http://www.w3.org/1999/xlink">
	<defs/>
	<path d="M 0.0,0.0 L 120.0,0.0 L 120.0,120.0 L 0.0,120.0 L 0.0,0.0" fill="#FBFBFB"/>
	<path d="M 52.0,8.0 L 67.0,8.0 L 77.0,13.0 L 85.0,22.0 L 86.0,24.0 L 86.0,31.0 L 85.0,32.0 L 80.0,32.0 L 75.0,23.0 L 69.0,18.0 L 66.0,17.0 L 53.0,17.0 L 45.0,23.0 L 41.0,31.0 L 40.0,44.0 L 99.0,44.0 L 104.0,48.0 L 104.0,103.0 L 99.0,108.0 L 20.0,108.0 L 16.0,103.0 L 16.0,48.0 L 20.0,44.0 L 32.0,44.0 L 32.0,30.0 L 36.0,21.0 L 43.0,13.0 L 52.0,8.0" fill="#010101"/>
</svg>
