<?xml version="1.0" ?>
<svg baseProfile="full" height="600px" version="1.1" viewBox="-16.08 -16.08 192.16 192.16" width="600px" xmlns="http://www.w3.org/2000/svg" xmlns:ev="http://www.w3.org/2001/xml-events" xmlns:xlink="http://www.w3.org/1999/xlink">
	<defs/>
	<path d="M 0.0,0.0 L 160.0,0.0 L 160.0,160.0 L 0.0,160.0 L 0.0,0.0" fill="#FFEEA3"/>
	<path d="M 0.0,0.0 L 160.0,0.0 L 160.0,160.0 L 152.0,160.0 L 151.0,79.0 L 147.0,73.0 L 141.0,69.0 L 42.0,68.0 L 39.0,56.0 L 39.0,40.0 L 42.0,31.0 L 48.0,22.0 L 59.0,14.0 L 68.0,11.0 L 81.0,11.0 L 93.0,16.0 L 102.0,23.0 L 108.0,33.0 L 110.0,38.0 L 115.0,59.0 L 115.0,61.0 L 122.0,59.0 L 116.0,34.0 L 109.0,20.0 L 102.0,13.0 L 91.0,7.0 L 80.0,4.0 L 67.0,4.0 L 53.0,9.0 L 44.0,16.0 L 38.0,23.0 L 33.0,33.0 L 32.0,37.0 L 32.0,56.0 L 34.0,68.0 L 19.0,69.0 L 13.0,73.0 L 9.0,79.0 L 8.0,160.0 L 0.0,160.0 L 0.0,0.0" fill="#FCFDFD"/>
	<path d="M 67.0,3.0 L 80.0,3.0 L 94.0,7.0 L 104.0,14.0 L 112.0,23.0 L 117.0,34.0 L 122.0,55.0 L 122.0,59.0 L 118.0,61.0 L 115.0,61.0 L 111.0,48.0 L 108.0,35.0 L 103.0,26.0 L 99.0,21.0 L 89.0,15.0 L 81.0,12.0 L 68.0,12.0 L 57.0,16.0 L 48.0,23.0 L 42.0,33.0 L 40.0,40.0 L 40.0,56.0 L 42.0,63.0 L 42.0,68.0 L 141.0,68.0 L 147.0,72.0 L 151.0,77.0 L 152.0,79.0 L 152.0,160.0 L 8.0,160.0 L 8.0,79.0 L 12.0,73.0 L 17.0,69.0 L 19.0,68.0 L 34.0,68.0 L 31.0,56.0 L 31.0,37.0 L 35.0,27.0 L 41.0,18.0 L 50.0,10.0 L 60.0,5.0 L 67.0,3.0 M 20.0,72.0 L 13.0,78.0 L 12.0,80.0 L 12.0,156.0 L 148.0,156.0 L 148.0,80.0 L 142.0,73.0 L 140.0,72.0 L 20.0,72.0" fill="#977B46"/>
	<path d="M 12.0,144.0 L 148.0,144.0 L 148.0,156.0 L 12.0,156.0 L 12.0,144.0" fill="#F3CD84"/>
	<path d="M 12.0,132.0 L 148.0,132.0 L 148.0,144.0 L 12.0,144.0 L 12.0,132.0" fill="#FFEEA3"/>
	<path d="M 12.0,120.0 L 148.0,120.0 L 148.0,132.0 L 12.0,132.0 L 12.0,120.0" fill="#F4CD84"/>
	<path d="M 12.0,108.0 L 148.0,108.0 L 148.0,120.0 L 12.0,120.0 L 12.0,108.0" fill="#FFEEA3"/>
	<path d="M 12.0,96.0 L 148.0,96.0 L 148.0,108.0 L 12.0,108.0 L 12.0,96.0" fill="#F4CD84"/>
	<path d="M 20.0,72.0 L 140.0,72.0 L 147.0,78.0 L 148.0,84.0 L 12.0,84.0 L 13.0,78.0 L 20.0,72.0" fill="#F3CC84"/>
	<path d="M 67.0,3.0 L 80.0,3.0 L 94.0,7.0 L 104.0,14.0 L 112.0,23.0 L 117.0,34.0 L 122.0,55.0 L 122.0,59.0 L 118.0,61.0 L 115.0,61.0 L 111.0,48.0 L 108.0,35.0 L 103.0,26.0 L 99.0,21.0 L 89.0,15.0 L 81.0,12.0 L 68.0,12.0 L 57.0,16.0 L 48.0,23.0 L 42.0,33.0 L 40.0,40.0 L 40.0,56.0 L 42.0,63.0 L 42.0,68.0 L 34.0,68.0 L 31.0,56.0 L 31.0,37.0 L 35.0,27.0 L 41.0,18.0 L 50.0,10.0 L 60.0,5.0 L 67.0,3.0" fill="#6B7D93"/>
</svg>
