<?xml version="1.0" ?>
<svg baseProfile="full" height="600px" version="1.1" viewBox="-20.1 -20.1 240.2 240.2" width="600px" xmlns="http://www.w3.org/2000/svg" xmlns:ev="http://www.w3.org/2001/xml-events" xmlns:xlink="http://www.w3.org/1999/xlink">
	<defs/>
	<path d="M 0.0,0.0 L 200.0,0.0 L 200.0,200.0 L 0.0,200.0 L 0.0,0.0" fill="#FDFDFD"/>
	<path d="M 0.0,32.0 L 192.0,32.0 L 192.0,118.0 L 190.0,120.0 L 185.0,119.0 L 184.0,118.0 L 183.0,61.0 L 168.0,74.0 L 154.0,86.0 L 140.0,98.0 L 136.0,101.0 L 138.0,105.0 L 146.0,111.0 L 146.0,116.0 L 145.0,117.0 L 139.0,117.0 L 129.0,109.0 L 124.0,111.0 L 113.0,121.0 L 105.0,125.0 L 102.0,126.0 L 89.0,126.0 L 79.0,121.0 L 68.0,111.0 L 63.0,109.0 L 50.0,119.0 L 36.0,130.0 L 18.0,144.0 L 9.0,151.0 L 8.0,160.0 L 110.0,160.0 L 112.0,162.0 L 111.0,167.0 L 110.0,168.0 L 0.0,168.0 L 0.0,32.0" fill="#030303"/>
	<path d="M 8.0,40.0 L 184.0,40.0 L 184.0,49.0 L 171.0,61.0 L 160.0,70.0 L 150.0,79.0 L 139.0,88.0 L 124.0,101.0 L 110.0,113.0 L 104.0,117.0 L 101.0,118.0 L 90.0,118.0 L 81.0,112.0 L 71.0,103.0 L 60.0,94.0 L 50.0,85.0 L 39.0,76.0 L 24.0,63.0 L 10.0,51.0 L 8.0,49.0 L 8.0,40.0" fill="#FCFCFC"/>
	<path d="M 8.0,60.0 L 16.0,66.0 L 31.0,79.0 L 45.0,91.0 L 57.0,101.0 L 55.0,105.0 L 42.0,115.0 L 24.0,129.0 L 10.0,140.0 L 8.0,140.0 L 8.0,60.0" fill="#FBFBFB"/>
	<path d="M 147.0,133.0 L 152.0,133.0 L 154.0,135.0 L 153.0,140.0 L 144.0,144.0 L 178.0,145.0 L 188.0,149.0 L 196.0,157.0 L 200.0,166.0 L 200.0,200.0 L 169.0,200.0 L 168.0,199.0 L 168.0,194.0 L 174.0,192.0 L 183.0,189.0 L 189.0,182.0 L 191.0,177.0 L 191.0,168.0 L 187.0,160.0 L 182.0,156.0 L 178.0,154.0 L 146.0,154.0 L 154.0,159.0 L 153.0,164.0 L 148.0,165.0 L 121.0,152.0 L 120.0,147.0 L 125.0,143.0 L 147.0,133.0" fill="#080808"/>
	<path d="M 199.0,178.0 L 200.0,178.0 L 200.0,200.0 L 179.0,200.0 L 183.0,198.0 L 192.0,192.0 L 197.0,184.0 L 199.0,178.0" fill="#F6F6F6"/>
</svg>
