<?xml version="1.0" ?>
<svg baseProfile="full" height="600px" version="1.1" viewBox="-16.08 -16.08 192.16 192.16" width="600px" xmlns="http://www.w3.org/2000/svg" xmlns:ev="http://www.w3.org/2001/xml-events" xmlns:xlink="http://www.w3.org/1999/xlink">
	<defs/>
	<path d="M 0.0,0.0 L 160.0,0.0 L 160.0,160.0 L 0.0,160.0 L 0.0,0.0" fill="#FDFDFD"/>
	<path d="M 79.0,8.0 L 83.0,10.0 L 99.0,26.0 L 106.0,34.0 L 123.0,51.0 L 123.0,52.0 L 92.0,52.0 L 92.0,152.0 L 68.0,152.0 L 68.0,52.0 L 36.0,52.0 L 38.0,49.0 L 40.0,49.0 L 40.0,47.0 L 42.0,47.0 L 44.0,43.0 L 79.0,8.0" fill="#B7DEBB"/>
	<path d="M 79.0,8.0 L 83.0,10.0 L 99.0,26.0 L 106.0,34.0 L 123.0,51.0 L 123.0,52.0 L 92.0,52.0 L 92.0,152.0 L 68.0,152.0 L 68.0,52.0 L 36.0,52.0 L 38.0,49.0 L 40.0,49.0 L 40.0,47.0 L 42.0,47.0 L 44.0,43.0 L 79.0,8.0 M 79.0,14.0 L 46.0,47.0 L 46.0,48.0 L 72.0,48.0 L 72.0,148.0 L 88.0,148.0 L 88.0,48.0 L 114.0,48.0 L 108.0,41.0 L 81.0,14.0 L 79.0,14.0" fill="#619E79"/>
</svg>
