<?xml version="1.0" ?>
<svg baseProfile="full" height="600px" version="1.1" viewBox="-16.08 -16.08 192.16 192.16" width="600px" xmlns="http://www.w3.org/2000/svg" xmlns:ev="http://www.w3.org/2001/xml-events" xmlns:xlink="http://www.w3.org/1999/xlink">
	<defs/>
	<path d="M 0.0,0.0 L 160.0,0.0 L 160.0,160.0 L 0.0,160.0 L 0.0,0.0" fill="#FDFDFD"/>
	<path d="M 68.0,3.0 L 92.0,3.0 L 92.0,108.0 L 106.0,108.0 L 101.0,113.0 L 82.0,126.0 L 80.0,127.0 L 58.0,112.0 L 54.0,108.0 L 68.0,108.0 L 68.0,3.0" fill="#B7DEBB"/>
	<path d="M 68.0,3.0 L 92.0,3.0 L 92.0,108.0 L 106.0,108.0 L 101.0,113.0 L 82.0,126.0 L 80.0,127.0 L 58.0,112.0 L 54.0,108.0 L 68.0,108.0 L 68.0,3.0 M 72.0,7.0 L 72.0,112.0 L 67.0,112.0 L 71.0,116.0 L 78.0,121.0 L 83.0,120.0 L 93.0,113.0 L 93.0,112.0 L 88.0,112.0 L 88.0,7.0 L 72.0,7.0" fill="#619E78"/>
</svg>
