<?xml version="1.0" ?>
<svg baseProfile="full" height="600px" version="1.1" viewBox="-19.296000000000003 -19.296000000000003 230.592 230.592" width="600px" xmlns="http://www.w3.org/2000/svg" xmlns:ev="http://www.w3.org/2001/xml-events" xmlns:xlink="http://www.w3.org/1999/xlink">
	<defs/>
	<path d="M 0.0,0.0 L 192.0,0.0 L 192.0,192.0 L 0.0,192.0 L 0.0,0.0" fill="#FFDE7F"/>
	<path d="M 0.0,0.0 L 192.0,0.0 L 192.0,192.0 L 0.0,192.0 L 0.0,0.0 M 88.0,16.0 L 75.0,18.0 L 60.0,24.0 L 50.0,30.0 L 39.0,39.0 L 29.0,51.0 L 21.0,67.0 L 17.0,79.0 L 16.0,88.0 L 16.0,105.0 L 18.0,117.0 L 24.0,132.0 L 30.0,142.0 L 39.0,153.0 L 51.0,163.0 L 66.0,171.0 L 79.0,175.0 L 86.0,176.0 L 104.0,176.0 L 117.0,174.0 L 132.0,168.0 L 142.0,162.0 L 153.0,153.0 L 163.0,141.0 L 171.0,125.0 L 175.0,112.0 L 176.0,106.0 L 176.0,86.0 L 173.0,72.0 L 168.0,60.0 L 162.0,50.0 L 153.0,39.0 L 141.0,29.0 L 125.0,21.0 L 112.0,17.0 L 105.0,16.0 L 88.0,16.0" fill="#FFFEFC"/>
	<path d="M 88.0,16.0 L 105.0,16.0 L 117.0,18.0 L 132.0,24.0 L 142.0,30.0 L 153.0,39.0 L 163.0,51.0 L 171.0,66.0 L 175.0,79.0 L 176.0,86.0 L 176.0,106.0 L 173.0,119.0 L 168.0,132.0 L 162.0,142.0 L 153.0,153.0 L 141.0,163.0 L 125.0,171.0 L 112.0,175.0 L 104.0,176.0 L 86.0,176.0 L 72.0,173.0 L 60.0,168.0 L 50.0,162.0 L 39.0,153.0 L 29.0,141.0 L 21.0,125.0 L 17.0,112.0 L 16.0,105.0 L 16.0,88.0 L 18.0,75.0 L 24.0,60.0 L 30.0,50.0 L 39.0,39.0 L 51.0,29.0 L 67.0,21.0 L 79.0,17.0 L 88.0,16.0 M 87.0,32.0 L 72.0,36.0 L 59.0,43.0 L 47.0,54.0 L 40.0,64.0 L 35.0,74.0 L 32.0,87.0 L 32.0,106.0 L 37.0,122.0 L 43.0,133.0 L 54.0,145.0 L 64.0,152.0 L 75.0,157.0 L 86.0,160.0 L 105.0,160.0 L 118.0,157.0 L 133.0,149.0 L 145.0,138.0 L 152.0,128.0 L 157.0,116.0 L 159.0,110.0 L 160.0,103.0 L 160.0,86.0 L 155.0,70.0 L 149.0,59.0 L 138.0,47.0 L 128.0,40.0 L 117.0,35.0 L 104.0,32.0 L 87.0,32.0" fill="#FFC20B"/>
	<path d="M 90.0,95.0 L 102.0,95.0 L 107.0,111.0 L 107.0,116.0 L 104.0,116.0 L 104.0,144.0 L 99.0,144.0 L 99.0,152.0 L 91.0,152.0 L 91.0,144.0 L 88.0,144.0 L 88.0,116.0 L 85.0,116.0 L 86.0,108.0 L 90.0,95.0" fill="#FF7102"/>
	<path d="M 88.0,40.0 L 93.0,40.0 L 93.0,49.0 L 85.0,49.0 L 84.0,47.0 L 84.0,41.0 L 88.0,40.0" fill="#FFC415"/>
	<path d="M 133.0,55.0 L 137.0,57.0 L 140.0,61.0 L 138.0,65.0 L 134.0,67.0 L 129.0,62.0 L 131.0,58.0 L 133.0,55.0" fill="#FFC30F"/>
	<path d="M 101.0,40.0 L 109.0,41.0 L 110.0,46.0 L 109.0,50.0 L 101.0,49.0 L 101.0,40.0" fill="#FFC412"/>
	<path d="M 145.0,70.0 L 148.0,74.0 L 149.0,79.0 L 145.0,81.0 L 141.0,81.0 L 139.0,76.0 L 139.0,73.0 L 145.0,70.0" fill="#FFC310"/>
	<path d="M 76.0,140.0 L 83.0,142.0 L 82.0,150.0 L 73.0,148.0 L 74.0,142.0 L 76.0,140.0" fill="#FFC30F"/>
	<path d="M 58.0,54.0 L 64.0,59.0 L 62.0,63.0 L 60.0,65.0 L 56.0,64.0 L 53.0,62.0 L 54.0,58.0 L 58.0,54.0" fill="#FFC310"/>
	<path d="M 52.0,118.0 L 54.0,118.0 L 57.0,123.0 L 57.0,126.0 L 53.0,129.0 L 50.0,129.0 L 47.0,124.0 L 48.0,120.0 L 52.0,118.0" fill="#FFC310"/>
	<path d="M 144.0,88.0 L 151.0,88.0 L 152.0,89.0 L 152.0,97.0 L 144.0,97.0 L 144.0,88.0" fill="#FFC20C"/>
	<path d="M 40.0,86.0 L 49.0,87.0 L 48.0,95.0 L 40.0,95.0 L 40.0,86.0" fill="#FFC30F"/>
	<path d="M 72.0,45.0 L 76.0,47.0 L 77.0,52.0 L 72.0,55.0 L 69.0,55.0 L 66.0,50.0 L 66.0,48.0 L 72.0,45.0" fill="#FFC30E"/>
	<path d="M 111.0,141.0 L 115.0,141.0 L 117.0,145.0 L 117.0,148.0 L 109.0,151.0 L 107.0,146.0 L 107.0,142.0 L 111.0,141.0" fill="#FFC30E"/>
	<path d="M 143.0,105.0 L 151.0,106.0 L 149.0,115.0 L 143.0,114.0 L 141.0,113.0 L 143.0,105.0" fill="#FFC310"/>
	<path d="M 119.0,46.0 L 124.0,47.0 L 127.0,49.0 L 125.0,54.0 L 124.0,56.0 L 118.0,54.0 L 116.0,53.0 L 118.0,47.0 L 119.0,46.0" fill="#FFC30F"/>
	<path d="M 127.0,132.0 L 133.0,137.0 L 133.0,139.0 L 127.0,143.0 L 125.0,143.0 L 122.0,138.0 L 124.0,134.0 L 127.0,132.0" fill="#FFC20C"/>
	<path d="M 137.0,120.0 L 143.0,122.0 L 144.0,126.0 L 140.0,131.0 L 136.0,129.0 L 134.0,125.0 L 137.0,120.0" fill="#FFC20D"/>
	<path d="M 45.0,103.0 L 49.0,103.0 L 50.0,111.0 L 43.0,113.0 L 41.0,108.0 L 41.0,104.0 L 45.0,103.0" fill="#FFC20D"/>
	<path d="M 88.0,143.0 L 99.0,144.0 L 99.0,152.0 L 91.0,152.0 L 91.0,144.0 L 88.0,143.0" fill="#FFBF0A"/>
	<path d="M 47.0,69.0 L 53.0,71.0 L 54.0,74.0 L 51.0,79.0 L 45.0,78.0 L 44.0,74.0 L 47.0,69.0" fill="#FFC20D"/>
	<path d="M 62.0,131.0 L 66.0,133.0 L 68.0,135.0 L 67.0,139.0 L 64.0,142.0 L 58.0,137.0 L 60.0,133.0 L 62.0,131.0" fill="#FFC20B"/>
</svg>
