<?xml version="1.0" ?>
<svg baseProfile="full" height="600px" version="1.1" viewBox="-12.06 -12.06 144.12 144.12" width="600px" xmlns="http://www.w3.org/2000/svg" xmlns:ev="http://www.w3.org/2001/xml-events" xmlns:xlink="http://www.w3.org/1999/xlink">
	<defs/>
	<path d="M 0.0,0.0 L 120.0,0.0 L 120.0,120.0 L 0.0,120.0 L 0.0,0.0" fill="#FDFDFD"/>
	<path d="M 21.0,12.0 L 99.0,12.0 L 104.0,17.0 L 104.0,91.0 L 99.0,96.0 L 64.0,96.0 L 63.0,50.0 L 58.0,49.0 L 57.0,50.0 L 56.0,96.0 L 21.0,96.0 L 16.0,91.0 L 16.0,17.0 L 21.0,12.0" fill="#000000"/>
	<path d="M 58.0,48.0 L 63.0,49.0 L 64.0,50.0 L 64.0,104.0 L 63.0,105.0 L 57.0,105.0 L 56.0,104.0 L 56.0,50.0 L 58.0,48.0" fill="#FBFBFB"/>
	<path d="M 56.0,96.0 L 64.0,96.0 L 64.0,104.0 L 63.0,105.0 L 57.0,105.0 L 56.0,104.0 L 56.0,96.0" fill="#060606"/>
</svg>
