<?xml version="1.0" ?>
<svg baseProfile="full" height="600px" version="1.1" viewBox="-16.08 -16.08 192.16 192.16" width="600px" xmlns="http://www.w3.org/2000/svg" xmlns:ev="http://www.w3.org/2001/xml-events" xmlns:xlink="http://www.w3.org/1999/xlink">
	<defs/>
	<path d="M 0.0,0.0 L 160.0,0.0 L 160.0,160.0 L 0.0,160.0 L 0.0,0.0" fill="#FDFEFD"/>
	<path d="M 4.0,136.0 L 156.0,136.0 L 156.0,156.0 L 4.0,156.0 L 4.0,136.0" fill="#B8DEBB"/>
	<path d="M 79.0,19.0 L 84.0,21.0 L 96.0,28.0 L 92.0,29.0 L 92.0,106.0 L 68.0,106.0 L 68.0,30.0 L 61.0,30.0 L 62.0,28.0 L 78.0,20.0 L 79.0,19.0" fill="#B7DEBB"/>
	<path d="M 4.0,136.0 L 156.0,136.0 L 156.0,156.0 L 4.0,156.0 L 4.0,136.0 M 8.0,140.0 L 8.0,152.0 L 152.0,152.0 L 152.0,140.0 L 8.0,140.0" fill="#5E9C76"/>
	<path d="M 79.0,19.0 L 84.0,21.0 L 96.0,28.0 L 92.0,29.0 L 92.0,106.0 L 68.0,106.0 L 68.0,30.0 L 61.0,30.0 L 62.0,28.0 L 78.0,20.0 L 79.0,19.0 M 79.0,24.0 L 72.0,28.0 L 72.0,102.0 L 88.0,102.0 L 88.0,28.0 L 81.0,24.0 L 79.0,24.0" fill="#619E78"/>
</svg>
