<?xml version="1.0" ?>
<svg baseProfile="full" height="600px" version="1.1" viewBox="-20.1 -20.1 240.2 240.2" width="600px" xmlns="http://www.w3.org/2000/svg" xmlns:ev="http://www.w3.org/2001/xml-events" xmlns:xlink="http://www.w3.org/1999/xlink">
	<defs/>
	<path d="M 0.0,0.0 L 200.0,0.0 L 200.0,200.0 L 0.0,200.0 L 0.0,0.0" fill="#FDFDFD"/>
	<path d="M 28.0,64.0 L 70.0,64.0 L 72.0,66.0 L 71.0,71.0 L 70.0,72.0 L 36.0,72.0 L 36.0,192.0 L 164.0,192.0 L 164.0,72.0 L 130.0,72.0 L 128.0,70.0 L 129.0,65.0 L 130.0,64.0 L 172.0,64.0 L 172.0,200.0 L 28.0,200.0 L 28.0,64.0" fill="#000000"/>
	<path d="M 98.0,9.0 L 103.0,10.0 L 104.0,11.0 L 104.0,128.0 L 103.0,129.0 L 97.0,129.0 L 96.0,128.0 L 96.0,11.0 L 98.0,9.0" fill="#020202"/>
</svg>
