<?xml version="1.0" ?>
<svg baseProfile="full" height="600px" version="1.1" viewBox="-19.296000000000003 -19.296000000000003 230.592 230.592" width="600px" xmlns="http://www.w3.org/2000/svg" xmlns:ev="http://www.w3.org/2001/xml-events" xmlns:xlink="http://www.w3.org/1999/xlink">
	<defs/>
	<path d="M 0.0,0.0 L 192.0,0.0 L 192.0,192.0 L 0.0,192.0 L 0.0,0.0" fill="#FDFEFE"/>
	<path d="M 95.0,75.0 L 99.0,77.0 L 107.0,85.0 L 114.0,93.0 L 123.0,102.0 L 130.0,110.0 L 139.0,119.0 L 142.0,122.0 L 142.0,124.0 L 112.0,124.0 L 112.0,144.0 L 79.0,144.0 L 79.0,124.0 L 50.0,124.0 L 50.0,122.0 L 55.0,117.0 L 68.0,104.0 L 75.0,96.0 L 83.0,88.0 L 90.0,80.0 L 95.0,75.0" fill="#05988A"/>
	<path d="M 24.0,16.0 L 168.0,16.0 L 168.0,32.0 L 24.0,32.0 L 24.0,16.0" fill="#009688"/>
</svg>
