<?xml version="1.0" ?>
<svg baseProfile="full" height="600px" version="1.1" viewBox="-20.1 -20.1 240.2 240.2" width="600px" xmlns="http://www.w3.org/2000/svg" xmlns:ev="http://www.w3.org/2001/xml-events" xmlns:xlink="http://www.w3.org/1999/xlink">
	<defs/>
	<path d="M 0.0,0.0 L 200.0,0.0 L 200.0,200.0 L 0.0,200.0 L 0.0,0.0" fill="#FDFDFD"/>
	<path d="M 0.0,0.0 L 200.0,0.0 L 200.0,112.0 L 197.0,124.0 L 191.0,133.0 L 184.0,139.0 L 175.0,143.0 L 170.0,144.0 L 126.0,144.0 L 124.0,142.0 L 125.0,137.0 L 126.0,136.0 L 170.0,135.0 L 182.0,130.0 L 187.0,124.0 L 191.0,113.0 L 191.0,102.0 L 187.0,93.0 L 181.0,86.0 L 173.0,82.0 L 162.0,80.0 L 160.0,78.0 L 159.0,60.0 L 155.0,48.0 L 148.0,38.0 L 141.0,32.0 L 133.0,28.0 L 122.0,25.0 L 108.0,25.0 L 97.0,29.0 L 86.0,37.0 L 79.0,47.0 L 75.0,55.0 L 70.0,56.0 L 62.0,51.0 L 57.0,49.0 L 47.0,49.0 L 39.0,53.0 L 34.0,61.0 L 32.0,73.0 L 27.0,77.0 L 17.0,83.0 L 11.0,92.0 L 9.0,99.0 L 9.0,110.0 L 13.0,120.0 L 19.0,128.0 L 27.0,133.0 L 33.0,135.0 L 74.0,136.0 L 76.0,138.0 L 75.0,143.0 L 74.0,144.0 L 32.0,144.0 L 21.0,140.0 L 13.0,134.0 L 5.0,125.0 L 1.0,115.0 L 0.0,111.0 L 0.0,0.0" fill="#FDFDFD"/>
	<path d="M 107.0,16.0 L 125.0,16.0 L 140.0,21.0 L 150.0,28.0 L 158.0,36.0 L 164.0,46.0 L 168.0,59.0 L 168.0,73.0 L 177.0,74.0 L 185.0,78.0 L 191.0,83.0 L 198.0,94.0 L 200.0,100.0 L 200.0,112.0 L 197.0,124.0 L 191.0,133.0 L 184.0,139.0 L 175.0,143.0 L 170.0,144.0 L 126.0,144.0 L 124.0,142.0 L 125.0,137.0 L 126.0,136.0 L 170.0,135.0 L 182.0,130.0 L 187.0,124.0 L 191.0,113.0 L 191.0,102.0 L 187.0,93.0 L 181.0,86.0 L 173.0,82.0 L 162.0,80.0 L 160.0,78.0 L 159.0,60.0 L 155.0,48.0 L 148.0,38.0 L 141.0,32.0 L 133.0,28.0 L 122.0,25.0 L 108.0,25.0 L 97.0,29.0 L 86.0,37.0 L 79.0,47.0 L 75.0,55.0 L 70.0,56.0 L 62.0,51.0 L 57.0,49.0 L 47.0,49.0 L 39.0,53.0 L 34.0,61.0 L 32.0,73.0 L 27.0,77.0 L 17.0,83.0 L 11.0,92.0 L 9.0,99.0 L 9.0,110.0 L 13.0,120.0 L 19.0,128.0 L 27.0,133.0 L 33.0,135.0 L 74.0,136.0 L 76.0,138.0 L 75.0,143.0 L 74.0,144.0 L 32.0,144.0 L 21.0,140.0 L 13.0,134.0 L 5.0,125.0 L 1.0,115.0 L 0.0,111.0 L 0.0,96.0 L 5.0,84.0 L 14.0,74.0 L 23.0,69.0 L 26.0,57.0 L 32.0,48.0 L 37.0,44.0 L 46.0,40.0 L 57.0,40.0 L 71.0,45.0 L 73.0,40.0 L 79.0,32.0 L 88.0,24.0 L 100.0,18.0 L 107.0,16.0" fill="#060606"/>
</svg>
