<?xml version="1.0" ?>
<svg baseProfile="full" height="600px" version="1.1" viewBox="-19.296000000000003 -19.296000000000003 230.592 230.592" width="600px" xmlns="http://www.w3.org/2000/svg" xmlns:ev="http://www.w3.org/2001/xml-events" xmlns:xlink="http://www.w3.org/1999/xlink">
	<defs/>
	<path d="M 0.0,0.0 L 192.0,0.0 L 192.0,192.0 L 0.0,192.0 L 0.0,0.0" fill="#FEFDFE"/>
	<path d="M 55.0,32.0 L 137.0,32.0 L 145.0,37.0 L 151.0,45.0 L 153.0,50.0 L 156.0,75.0 L 157.0,88.0 L 176.0,88.0 L 178.0,90.0 L 178.0,101.0 L 175.0,104.0 L 164.0,105.0 L 165.0,107.0 L 165.0,146.0 L 164.0,158.0 L 162.0,160.0 L 142.0,160.0 L 140.0,158.0 L 140.0,148.0 L 52.0,148.0 L 52.0,158.0 L 50.0,160.0 L 30.0,160.0 L 28.0,158.0 L 27.0,146.0 L 27.0,107.0 L 28.0,105.0 L 17.0,104.0 L 14.0,101.0 L 14.0,90.0 L 16.0,88.0 L 35.0,88.0 L 36.0,73.0 L 39.0,50.0 L 44.0,40.0 L 51.0,34.0 L 55.0,32.0" fill="#AA48BB"/>
	<path d="M 57.0,40.0 L 136.0,40.0 L 141.0,44.0 L 144.0,49.0 L 148.0,74.0 L 149.0,83.0 L 149.0,92.0 L 43.0,92.0 L 44.0,77.0 L 47.0,52.0 L 51.0,44.0 L 57.0,40.0" fill="#E2EDF9"/>
	<path d="M 27.0,111.0 L 30.0,111.0 L 30.0,113.0 L 35.0,114.0 L 36.0,117.0 L 37.0,116.0 L 155.0,116.0 L 160.0,121.0 L 160.0,123.0 L 162.0,123.0 L 162.0,125.0 L 165.0,124.0 L 165.0,146.0 L 164.0,158.0 L 162.0,160.0 L 142.0,160.0 L 140.0,158.0 L 140.0,148.0 L 52.0,148.0 L 52.0,158.0 L 50.0,160.0 L 30.0,160.0 L 28.0,158.0 L 27.0,146.0 L 27.0,111.0" fill="#AA4ABB"/>
	<path d="M 37.0,116.0 L 155.0,116.0 L 157.0,118.0 L 157.0,134.0 L 155.0,136.0 L 37.0,136.0 L 35.0,134.0 L 35.0,118.0 L 37.0,116.0" fill="#242223"/>
	<path d="M 27.0,111.0 L 30.0,111.0 L 30.0,113.0 L 35.0,114.0 L 36.0,134.0 L 37.0,138.0 L 39.0,139.0 L 41.0,141.0 L 43.0,143.0 L 45.0,145.0 L 44.0,147.0 L 52.0,147.0 L 52.0,158.0 L 50.0,160.0 L 30.0,160.0 L 28.0,158.0 L 27.0,146.0 L 27.0,111.0" fill="#A948BA"/>
	<path d="M 55.0,32.0 L 58.0,32.0 L 59.0,36.0 L 61.0,37.0 L 60.0,39.0 L 133.0,39.0 L 133.0,40.0 L 57.0,41.0 L 52.0,44.0 L 48.0,52.0 L 45.0,77.0 L 44.0,86.0 L 43.0,86.0 L 42.0,79.0 L 40.0,79.0 L 40.0,77.0 L 36.0,78.0 L 37.0,67.0 L 39.0,50.0 L 44.0,40.0 L 51.0,34.0 L 55.0,32.0" fill="#AE53C0"/>
	<path d="M 124.0,62.0 L 133.0,62.0 L 140.0,68.0 L 141.0,70.0 L 141.0,77.0 L 137.0,83.0 L 133.0,86.0 L 125.0,86.0 L 119.0,82.0 L 116.0,77.0 L 116.0,71.0 L 120.0,65.0 L 124.0,62.0" fill="#FCB851"/>
	<path d="M 59.0,62.0 L 67.0,62.0 L 73.0,66.0 L 76.0,71.0 L 75.0,79.0 L 71.0,84.0 L 66.0,86.0 L 59.0,86.0 L 53.0,81.0 L 51.0,77.0 L 51.0,70.0 L 57.0,63.0 L 59.0,62.0" fill="#FCB751"/>
	<path d="M 92.0,62.0 L 99.0,62.0 L 106.0,66.0 L 108.0,69.0 L 108.0,78.0 L 105.0,83.0 L 99.0,86.0 L 92.0,86.0 L 86.0,82.0 L 84.0,78.0 L 84.0,70.0 L 88.0,64.0 L 92.0,62.0" fill="#FCB750"/>
	<path d="M 16.0,88.0 L 21.0,88.0 L 20.0,91.0 L 22.0,91.0 L 22.0,93.0 L 24.0,93.0 L 24.0,95.0 L 26.0,95.0 L 26.0,97.0 L 28.0,97.0 L 28.0,99.0 L 30.0,99.0 L 30.0,101.0 L 32.0,101.0 L 32.0,103.0 L 34.0,103.0 L 34.0,105.0 L 36.0,105.0 L 36.0,107.0 L 38.0,107.0 L 38.0,109.0 L 40.0,109.0 L 40.0,111.0 L 42.0,111.0 L 42.0,113.0 L 44.0,113.0 L 44.0,115.0 L 37.0,117.0 L 34.0,117.0 L 33.0,115.0 L 32.0,113.0 L 30.0,113.0 L 30.0,111.0 L 27.0,111.0 L 28.0,105.0 L 17.0,104.0 L 14.0,101.0 L 14.0,90.0 L 16.0,88.0" fill="#AA48BB"/>
	<path d="M 163.0,147.0 L 164.0,147.0 L 164.0,158.0 L 162.0,160.0 L 142.0,160.0 L 140.0,158.0 L 140.0,148.0 L 163.0,147.0" fill="#526B75"/>
	<path d="M 28.0,147.0 L 52.0,148.0 L 52.0,158.0 L 50.0,160.0 L 30.0,160.0 L 28.0,158.0 L 28.0,147.0" fill="#526B75"/>
	<path d="M 133.0,92.0 L 137.0,93.0 L 139.0,95.0 L 141.0,97.0 L 143.0,99.0 L 145.0,101.0 L 147.0,103.0 L 149.0,105.0 L 151.0,107.0 L 153.0,109.0 L 155.0,111.0 L 157.0,113.0 L 159.0,115.0 L 161.0,117.0 L 163.0,119.0 L 165.0,120.0 L 164.0,125.0 L 162.0,125.0 L 162.0,123.0 L 160.0,123.0 L 159.0,121.0 L 158.0,132.0 L 157.0,132.0 L 156.0,118.0 L 155.0,117.0 L 38.0,116.0 L 38.0,115.0 L 152.0,115.0 L 151.0,113.0 L 149.0,111.0 L 147.0,109.0 L 145.0,107.0 L 143.0,105.0 L 141.0,103.0 L 139.0,101.0 L 137.0,99.0 L 135.0,97.0 L 133.0,95.0 L 133.0,92.0" fill="#9942A8"/>
	<path d="M 109.0,42.0 L 116.0,42.0 L 120.0,46.0 L 120.0,54.0 L 115.0,58.0 L 109.0,58.0 L 104.0,52.0 L 105.0,45.0 L 109.0,42.0" fill="#FEAA2E"/>
	<path d="M 76.0,42.0 L 83.0,42.0 L 88.0,47.0 L 87.0,54.0 L 82.0,58.0 L 75.0,57.0 L 72.0,53.0 L 72.0,46.0 L 76.0,42.0" fill="#FEA92D"/>
	<path d="M 16.0,88.0 L 18.0,89.0 L 18.0,93.0 L 20.0,93.0 L 20.0,95.0 L 22.0,95.0 L 22.0,97.0 L 27.0,98.0 L 27.0,100.0 L 29.0,101.0 L 29.0,104.0 L 17.0,104.0 L 14.0,101.0 L 14.0,90.0 L 16.0,88.0" fill="#B25AC2"/>
	<path d="M 144.0,120.0 L 150.0,120.0 L 153.0,123.0 L 152.0,130.0 L 149.0,132.0 L 144.0,132.0 L 141.0,129.0 L 141.0,123.0 L 144.0,120.0" fill="#F4E139"/>
	<path d="M 42.0,120.0 L 48.0,120.0 L 51.0,123.0 L 50.0,130.0 L 47.0,132.0 L 41.0,131.0 L 39.0,128.0 L 39.0,123.0 L 42.0,120.0" fill="#F6E339"/>
	<path d="M 163.0,147.0 L 164.0,147.0 L 164.0,158.0 L 162.0,160.0 L 156.0,160.0 L 156.0,148.0 L 163.0,147.0" fill="#475B65"/>
	<path d="M 28.0,147.0 L 36.0,148.0 L 36.0,160.0 L 30.0,160.0 L 28.0,158.0 L 28.0,147.0" fill="#475B65"/>
	<path d="M 140.0,148.0 L 148.0,148.0 L 148.0,160.0 L 142.0,160.0 L 140.0,158.0 L 140.0,148.0" fill="#465B65"/>
	<path d="M 44.0,148.0 L 52.0,148.0 L 52.0,158.0 L 50.0,160.0 L 44.0,160.0 L 44.0,148.0" fill="#465B65"/>
	<path d="M 165.0,88.0 L 173.0,88.0 L 172.0,91.0 L 174.0,91.0 L 174.0,93.0 L 177.0,92.0 L 177.0,100.0 L 174.0,101.0 L 173.0,99.0 L 171.0,97.0 L 169.0,95.0 L 167.0,93.0 L 165.0,91.0 L 165.0,88.0" fill="#AA47BB"/>
	<path d="M 15.0,95.0 L 18.0,95.0 L 18.0,97.0 L 20.0,97.0 L 20.0,99.0 L 22.0,99.0 L 22.0,101.0 L 24.0,101.0 L 24.0,103.0 L 16.0,103.0 L 15.0,102.0 L 15.0,95.0" fill="#AA48BB"/>
	<path d="M 27.0,111.0 L 30.0,111.0 L 30.0,113.0 L 35.0,114.0 L 35.0,133.0 L 34.0,133.0 L 34.0,119.0 L 32.0,119.0 L 32.0,117.0 L 30.0,117.0 L 30.0,115.0 L 27.0,115.0 L 27.0,111.0" fill="#A345B3"/>
	<path d="M 146.0,61.0 L 148.0,61.0 L 148.0,63.0 L 150.0,63.0 L 150.0,65.0 L 152.0,65.0 L 152.0,67.0 L 154.0,67.0 L 155.0,64.0 L 155.0,70.0 L 152.0,71.0 L 152.0,69.0 L 150.0,69.0 L 150.0,67.0 L 147.0,67.0 L 146.0,69.0 L 146.0,61.0" fill="#B057C1"/>
	<path d="M 35.0,81.0 L 39.0,83.0 L 41.0,85.0 L 43.0,86.0 L 43.0,92.0 L 40.0,91.0 L 40.0,89.0 L 38.0,89.0 L 38.0,87.0 L 35.0,87.0 L 35.0,81.0" fill="#AE52BF"/>
	<path d="M 36.0,73.0 L 40.0,73.0 L 40.0,75.0 L 42.0,75.0 L 42.0,77.0 L 44.0,77.0 L 44.0,86.0 L 43.0,86.0 L 42.0,79.0 L 40.0,79.0 L 40.0,77.0 L 36.0,78.0 L 36.0,73.0" fill="#B159C2"/>
	<path d="M 173.0,88.0 L 177.0,89.0 L 178.0,90.0 L 178.0,101.0 L 177.0,101.0 L 176.0,93.0 L 174.0,93.0 L 174.0,91.0 L 172.0,91.0 L 173.0,88.0" fill="#BB6DC9"/>
	<path d="M 37.0,69.0 L 40.0,69.0 L 40.0,71.0 L 42.0,71.0 L 42.0,73.0 L 44.0,73.0 L 44.0,77.0 L 42.0,77.0 L 42.0,75.0 L 40.0,75.0 L 40.0,73.0 L 37.0,73.0 L 37.0,69.0" fill="#AA48BB"/>
</svg>
