<?xml version="1.0" ?>
<svg baseProfile="full" height="600px" version="1.1" viewBox="-19.296000000000003 -19.296000000000003 230.592 230.592" width="600px" xmlns="http://www.w3.org/2000/svg" xmlns:ev="http://www.w3.org/2001/xml-events" xmlns:xlink="http://www.w3.org/1999/xlink">
	<defs/>
	<path d="M 0.0,0.0 L 192.0,0.0 L 192.0,192.0 L 0.0,192.0 L 0.0,0.0" fill="#FEFDFE"/>
	<path d="M 58.0,30.0 L 133.0,30.0 L 143.0,34.0 L 149.0,41.0 L 153.0,50.0 L 156.0,77.0 L 156.0,86.0 L 174.0,86.0 L 177.0,88.0 L 177.0,100.0 L 176.0,102.0 L 163.0,102.0 L 165.0,107.0 L 165.0,144.0 L 164.0,158.0 L 162.0,160.0 L 142.0,160.0 L 140.0,158.0 L 140.0,146.0 L 52.0,146.0 L 52.0,158.0 L 50.0,160.0 L 30.0,160.0 L 28.0,158.0 L 27.0,144.0 L 27.0,107.0 L 29.0,103.0 L 16.0,102.0 L 15.0,100.0 L 15.0,88.0 L 18.0,86.0 L 35.0,86.0 L 39.0,50.0 L 43.0,41.0 L 49.0,34.0 L 54.0,31.0 L 58.0,30.0" fill="#AA48BB"/>
	<path d="M 59.0,38.0 L 133.0,38.0 L 141.0,43.0 L 145.0,51.0 L 149.0,87.0 L 149.0,90.0 L 43.0,90.0 L 44.0,76.0 L 47.0,52.0 L 52.0,42.0 L 59.0,38.0" fill="#E2EDF8"/>
	<path d="M 38.0,114.0 L 154.0,114.0 L 157.0,117.0 L 157.0,132.0 L 154.0,135.0 L 38.0,135.0 L 35.0,132.0 L 35.0,117.0 L 38.0,114.0" fill="#292329"/>
	<path d="M 29.0,118.0 L 31.0,119.0 L 33.0,121.0 L 35.0,122.0 L 36.0,132.0 L 38.0,134.0 L 154.0,134.0 L 157.0,129.0 L 160.0,129.0 L 160.0,131.0 L 162.0,131.0 L 162.0,133.0 L 164.0,133.0 L 164.0,158.0 L 162.0,160.0 L 142.0,160.0 L 140.0,158.0 L 140.0,146.0 L 52.0,146.0 L 52.0,158.0 L 50.0,160.0 L 30.0,160.0 L 28.0,158.0 L 28.0,119.0 L 29.0,118.0" fill="#AA48BB"/>
	<path d="M 58.0,30.0 L 133.0,30.0 L 143.0,34.0 L 149.0,41.0 L 153.0,50.0 L 156.0,77.0 L 156.0,86.0 L 174.0,86.0 L 177.0,88.0 L 177.0,100.0 L 176.0,102.0 L 163.0,102.0 L 165.0,107.0 L 165.0,144.0 L 164.0,144.0 L 164.0,133.0 L 162.0,133.0 L 162.0,131.0 L 160.0,131.0 L 160.0,129.0 L 157.0,129.0 L 157.0,117.0 L 157.0,115.0 L 155.0,113.0 L 153.0,111.0 L 151.0,109.0 L 149.0,107.0 L 147.0,105.0 L 145.0,103.0 L 143.0,101.0 L 141.0,99.0 L 139.0,97.0 L 137.0,95.0 L 136.0,93.0 L 137.0,91.0 L 43.0,91.0 L 43.0,90.0 L 149.0,90.0 L 148.0,87.0 L 144.0,51.0 L 140.0,43.0 L 132.0,38.0 L 130.0,37.0 L 129.0,35.0 L 128.0,33.0 L 129.0,31.0 L 58.0,31.0 L 58.0,30.0" fill="#AA48BB"/>
	<path d="M 126.0,60.0 L 134.0,61.0 L 139.0,66.0 L 140.0,67.0 L 140.0,77.0 L 135.0,83.0 L 133.0,84.0 L 123.0,84.0 L 118.0,79.0 L 116.0,75.0 L 116.0,69.0 L 120.0,63.0 L 126.0,60.0" fill="#FCB750"/>
	<path d="M 91.0,61.0 L 101.0,61.0 L 107.0,66.0 L 108.0,68.0 L 108.0,76.0 L 104.0,82.0 L 101.0,84.0 L 91.0,84.0 L 86.0,80.0 L 84.0,76.0 L 84.0,68.0 L 89.0,62.0 L 91.0,61.0" fill="#FCB74F"/>
	<path d="M 58.0,61.0 L 69.0,61.0 L 74.0,65.0 L 76.0,69.0 L 75.0,78.0 L 70.0,83.0 L 68.0,84.0 L 59.0,84.0 L 53.0,79.0 L 52.0,77.0 L 52.0,67.0 L 57.0,62.0 L 58.0,61.0" fill="#FCB750"/>
	<path d="M 43.0,90.0 L 149.0,90.0 L 149.0,91.0 L 141.0,91.0 L 141.0,94.0 L 143.0,95.0 L 145.0,97.0 L 147.0,99.0 L 149.0,101.0 L 151.0,103.0 L 153.0,105.0 L 155.0,107.0 L 157.0,109.0 L 156.0,111.0 L 158.0,111.0 L 158.0,113.0 L 160.0,113.0 L 160.0,115.0 L 163.0,116.0 L 164.0,107.0 L 165.0,107.0 L 165.0,144.0 L 164.0,144.0 L 164.0,133.0 L 162.0,133.0 L 162.0,131.0 L 160.0,131.0 L 160.0,129.0 L 157.0,129.0 L 157.0,117.0 L 157.0,115.0 L 155.0,113.0 L 153.0,111.0 L 151.0,109.0 L 149.0,107.0 L 147.0,105.0 L 145.0,103.0 L 143.0,101.0 L 141.0,99.0 L 139.0,97.0 L 137.0,95.0 L 136.0,93.0 L 137.0,91.0 L 43.0,91.0 L 43.0,90.0" fill="#B361C5"/>
	<path d="M 163.0,145.0 L 164.0,145.0 L 164.0,158.0 L 162.0,160.0 L 142.0,160.0 L 140.0,158.0 L 140.0,146.0 L 163.0,145.0" fill="#495A67"/>
	<path d="M 28.0,145.0 L 52.0,146.0 L 52.0,158.0 L 50.0,160.0 L 30.0,160.0 L 28.0,158.0 L 28.0,145.0" fill="#495A67"/>
	<path d="M 58.0,30.0 L 133.0,30.0 L 143.0,34.0 L 149.0,41.0 L 153.0,50.0 L 152.0,54.0 L 150.0,53.0 L 150.0,51.0 L 148.0,51.0 L 148.0,49.0 L 146.0,49.0 L 146.0,47.0 L 142.0,46.0 L 137.0,41.0 L 132.0,38.0 L 130.0,37.0 L 129.0,35.0 L 128.0,33.0 L 129.0,31.0 L 58.0,31.0 L 58.0,30.0" fill="#B45EC3"/>
	<path d="M 77.0,41.0 L 83.0,41.0 L 88.0,46.0 L 88.0,52.0 L 83.0,57.0 L 77.0,57.0 L 72.0,52.0 L 72.0,45.0 L 77.0,41.0" fill="#FEAA2E"/>
	<path d="M 109.0,41.0 L 115.0,41.0 L 120.0,45.0 L 120.0,52.0 L 115.0,57.0 L 109.0,57.0 L 105.0,53.0 L 104.0,46.0 L 109.0,41.0" fill="#FEAA2E"/>
	<path d="M 145.0,118.0 L 150.0,119.0 L 153.0,122.0 L 152.0,128.0 L 150.0,130.0 L 143.0,130.0 L 141.0,128.0 L 141.0,121.0 L 145.0,118.0" fill="#F3E039"/>
	<path d="M 42.0,119.0 L 49.0,119.0 L 51.0,121.0 L 51.0,128.0 L 49.0,130.0 L 42.0,130.0 L 39.0,127.0 L 39.0,122.0 L 42.0,119.0" fill="#F4E139"/>
	<path d="M 36.0,74.0 L 37.0,77.0 L 43.0,78.0 L 44.0,84.0 L 42.0,91.0 L 40.0,91.0 L 40.0,89.0 L 38.0,89.0 L 38.0,87.0 L 35.0,88.0 L 18.0,87.0 L 18.0,86.0 L 35.0,86.0 L 36.0,74.0" fill="#B157C1"/>
	<path d="M 27.0,107.0 L 29.0,110.0 L 31.0,111.0 L 33.0,113.0 L 35.0,115.0 L 35.0,122.0 L 32.0,123.0 L 31.0,121.0 L 29.0,119.0 L 28.0,144.0 L 27.0,144.0 L 27.0,107.0" fill="#AF53BF"/>
	<path d="M 148.0,79.0 L 150.0,79.0 L 150.0,81.0 L 152.0,81.0 L 152.0,83.0 L 154.0,83.0 L 154.0,85.0 L 174.0,86.0 L 177.0,88.0 L 176.0,93.0 L 174.0,93.0 L 174.0,91.0 L 172.0,91.0 L 173.0,87.0 L 157.0,88.0 L 154.0,89.0 L 154.0,87.0 L 152.0,87.0 L 152.0,85.0 L 149.0,85.0 L 148.0,87.0 L 148.0,79.0" fill="#AD50BE"/>
	<path d="M 145.0,58.0 L 146.0,61.0 L 148.0,61.0 L 148.0,63.0 L 150.0,63.0 L 150.0,65.0 L 152.0,65.0 L 152.0,67.0 L 155.0,66.0 L 155.0,72.0 L 152.0,71.0 L 152.0,69.0 L 150.0,69.0 L 150.0,67.0 L 147.0,67.0 L 146.0,71.0 L 145.0,58.0" fill="#B25CC3"/>
	<path d="M 35.0,83.0 L 38.0,83.0 L 38.0,85.0 L 40.0,85.0 L 40.0,87.0 L 43.0,86.0 L 42.0,91.0 L 40.0,91.0 L 40.0,89.0 L 38.0,89.0 L 38.0,87.0 L 35.0,88.0 L 18.0,87.0 L 18.0,86.0 L 35.0,86.0 L 35.0,83.0" fill="#B764C6"/>
	<path d="M 157.0,86.0 L 174.0,86.0 L 177.0,88.0 L 176.0,93.0 L 174.0,93.0 L 174.0,91.0 L 172.0,91.0 L 173.0,87.0 L 157.0,87.0 L 157.0,86.0" fill="#BA6AC8"/>
	<path d="M 37.0,79.0 L 38.0,81.0 L 40.0,81.0 L 40.0,83.0 L 43.0,82.0 L 42.0,87.0 L 40.0,87.0 L 40.0,85.0 L 38.0,85.0 L 38.0,83.0 L 36.0,83.0 L 37.0,79.0" fill="#AA48BB"/>
</svg>
