<?xml version="1.0" ?>
<svg baseProfile="full" height="600px" version="1.1" viewBox="-19.296000000000003 -19.296000000000003 230.592 230.592" width="600px" xmlns="http://www.w3.org/2000/svg" xmlns:ev="http://www.w3.org/2001/xml-events" xmlns:xlink="http://www.w3.org/1999/xlink">
	<defs/>
	<path d="M 0.0,0.0 L 192.0,0.0 L 192.0,192.0 L 0.0,192.0 L 0.0,0.0" fill="#FEFDFE"/>
	<path d="M 55.0,30.0 L 136.0,30.0 L 144.0,34.0 L 150.0,42.0 L 153.0,50.0 L 156.0,77.0 L 156.0,86.0 L 175.0,86.0 L 177.0,88.0 L 177.0,99.0 L 174.0,102.0 L 163.0,102.0 L 165.0,107.0 L 165.0,143.0 L 164.0,158.0 L 162.0,160.0 L 142.0,160.0 L 140.0,158.0 L 140.0,146.0 L 52.0,146.0 L 52.0,158.0 L 50.0,160.0 L 30.0,160.0 L 28.0,158.0 L 27.0,143.0 L 27.0,107.0 L 29.0,102.0 L 18.0,102.0 L 15.0,99.0 L 15.0,88.0 L 17.0,86.0 L 36.0,86.0 L 37.0,67.0 L 39.0,50.0 L 43.0,40.0 L 48.0,34.0 L 55.0,30.0" fill="#AC4EBD"/>
	<path d="M 57.0,38.0 L 135.0,38.0 L 142.0,44.0 L 144.0,48.0 L 149.0,85.0 L 149.0,90.0 L 43.0,90.0 L 44.0,77.0 L 47.0,52.0 L 51.0,43.0 L 57.0,38.0" fill="#E1ECF8"/>
	<path d="M 37.0,81.0 L 40.0,81.0 L 40.0,83.0 L 43.0,82.0 L 43.0,90.0 L 135.0,90.0 L 135.0,92.0 L 137.0,93.0 L 139.0,95.0 L 141.0,97.0 L 143.0,99.0 L 145.0,101.0 L 147.0,103.0 L 149.0,105.0 L 151.0,107.0 L 153.0,109.0 L 155.0,111.0 L 154.0,113.0 L 34.0,113.0 L 34.0,111.0 L 32.0,111.0 L 32.0,109.0 L 30.0,109.0 L 28.0,104.0 L 29.0,102.0 L 18.0,102.0 L 15.0,99.0 L 15.0,88.0 L 17.0,86.0 L 36.0,86.0 L 37.0,81.0" fill="#AA48BB"/>
	<path d="M 38.0,113.0 L 154.0,113.0 L 157.0,116.0 L 157.0,131.0 L 154.0,134.0 L 38.0,134.0 L 36.0,132.0 L 36.0,115.0 L 38.0,113.0" fill="#292429"/>
	<path d="M 28.0,106.0 L 30.0,107.0 L 30.0,109.0 L 32.0,109.0 L 32.0,111.0 L 34.0,111.0 L 34.0,113.0 L 37.0,112.0 L 37.0,115.0 L 37.0,132.0 L 38.0,133.0 L 155.0,134.0 L 155.0,136.0 L 157.0,137.0 L 159.0,139.0 L 161.0,141.0 L 163.0,143.0 L 164.0,144.0 L 164.0,158.0 L 162.0,160.0 L 142.0,160.0 L 140.0,158.0 L 140.0,146.0 L 52.0,146.0 L 52.0,158.0 L 50.0,160.0 L 30.0,160.0 L 28.0,158.0 L 27.0,143.0 L 27.0,107.0 L 28.0,106.0" fill="#AC4CBD"/>
	<path d="M 28.0,106.0 L 30.0,107.0 L 30.0,109.0 L 32.0,109.0 L 32.0,111.0 L 34.0,111.0 L 34.0,113.0 L 37.0,112.0 L 37.0,115.0 L 37.0,132.0 L 39.0,136.0 L 41.0,137.0 L 43.0,139.0 L 45.0,141.0 L 47.0,143.0 L 46.0,145.0 L 52.0,145.0 L 52.0,158.0 L 50.0,160.0 L 30.0,160.0 L 28.0,158.0 L 27.0,143.0 L 27.0,107.0 L 28.0,106.0" fill="#A748B8"/>
	<path d="M 124.0,60.0 L 133.0,60.0 L 138.0,64.0 L 140.0,67.0 L 140.0,76.0 L 136.0,82.0 L 132.0,84.0 L 124.0,84.0 L 118.0,79.0 L 116.0,75.0 L 116.0,68.0 L 122.0,61.0 L 124.0,60.0" fill="#FCB751"/>
	<path d="M 60.0,60.0 L 67.0,60.0 L 72.0,63.0 L 76.0,68.0 L 76.0,75.0 L 72.0,81.0 L 68.0,84.0 L 60.0,84.0 L 54.0,80.0 L 52.0,76.0 L 52.0,67.0 L 56.0,62.0 L 60.0,60.0" fill="#FCB750"/>
	<path d="M 92.0,60.0 L 99.0,60.0 L 105.0,63.0 L 108.0,68.0 L 108.0,75.0 L 105.0,80.0 L 102.0,83.0 L 99.0,84.0 L 92.0,84.0 L 85.0,78.0 L 84.0,75.0 L 84.0,68.0 L 88.0,62.0 L 92.0,60.0" fill="#FCB750"/>
	<path d="M 163.0,144.0 L 164.0,144.0 L 164.0,158.0 L 162.0,160.0 L 142.0,160.0 L 140.0,158.0 L 140.0,146.0 L 162.0,145.0 L 163.0,144.0" fill="#465B65"/>
	<path d="M 28.0,144.0 L 30.0,145.0 L 52.0,146.0 L 52.0,158.0 L 50.0,160.0 L 30.0,160.0 L 28.0,158.0 L 28.0,144.0" fill="#465B65"/>
	<path d="M 108.0,41.0 L 116.0,41.0 L 120.0,45.0 L 120.0,52.0 L 116.0,56.0 L 110.0,57.0 L 105.0,53.0 L 104.0,46.0 L 108.0,41.0" fill="#FEA92D"/>
	<path d="M 76.0,41.0 L 84.0,41.0 L 88.0,46.0 L 87.0,53.0 L 82.0,57.0 L 76.0,56.0 L 72.0,52.0 L 72.0,45.0 L 76.0,41.0" fill="#FEA92D"/>
	<path d="M 15.0,88.0 L 20.0,89.0 L 20.0,91.0 L 22.0,91.0 L 22.0,93.0 L 24.0,93.0 L 24.0,95.0 L 26.0,95.0 L 26.0,97.0 L 28.0,97.0 L 28.0,99.0 L 30.0,99.0 L 29.0,103.0 L 18.0,102.0 L 15.0,99.0 L 15.0,88.0" fill="#B45DC3"/>
	<path d="M 143.0,118.0 L 150.0,118.0 L 152.0,120.0 L 152.0,127.0 L 150.0,129.0 L 143.0,129.0 L 140.0,126.0 L 140.0,121.0 L 143.0,118.0" fill="#F4E139"/>
	<path d="M 42.0,118.0 L 49.0,118.0 L 52.0,121.0 L 52.0,126.0 L 49.0,129.0 L 42.0,129.0 L 40.0,127.0 L 40.0,120.0 L 42.0,118.0" fill="#F3E039"/>
	<path d="M 27.0,107.0 L 29.0,110.0 L 31.0,111.0 L 33.0,113.0 L 35.0,115.0 L 35.0,122.0 L 32.0,123.0 L 31.0,121.0 L 29.0,119.0 L 28.0,143.0 L 27.0,143.0 L 27.0,107.0" fill="#B968C7"/>
	<path d="M 131.0,134.0 L 135.0,135.0 L 137.0,137.0 L 139.0,139.0 L 141.0,141.0 L 143.0,143.0 L 142.0,145.0 L 162.0,145.0 L 162.0,146.0 L 140.0,146.0 L 138.0,145.0 L 137.0,143.0 L 135.0,141.0 L 133.0,139.0 L 131.0,137.0 L 131.0,134.0" fill="#9D4AB0"/>
	<path d="M 16.0,91.0 L 18.0,91.0 L 18.0,93.0 L 20.0,93.0 L 20.0,95.0 L 22.0,95.0 L 22.0,97.0 L 24.0,97.0 L 24.0,99.0 L 26.0,99.0 L 26.0,101.0 L 17.0,101.0 L 16.0,100.0 L 16.0,91.0" fill="#AA48BB"/>
	<path d="M 167.0,86.0 L 175.0,86.0 L 176.0,87.0 L 176.0,97.0 L 174.0,97.0 L 174.0,95.0 L 172.0,95.0 L 171.0,93.0 L 169.0,91.0 L 167.0,89.0 L 167.0,86.0" fill="#AA48BB"/>
	<path d="M 28.0,106.0 L 30.0,107.0 L 30.0,109.0 L 32.0,109.0 L 32.0,111.0 L 34.0,111.0 L 34.0,113.0 L 37.0,112.0 L 37.0,115.0 L 36.0,131.0 L 35.0,131.0 L 34.0,115.0 L 32.0,115.0 L 31.0,113.0 L 29.0,111.0 L 28.0,111.0 L 28.0,106.0" fill="#9541A3"/>
	<path d="M 39.0,50.0 L 41.0,54.0 L 43.0,55.0 L 45.0,57.0 L 47.0,58.0 L 47.0,63.0 L 44.0,63.0 L 44.0,61.0 L 42.0,61.0 L 42.0,59.0 L 39.0,59.0 L 38.0,62.0 L 39.0,50.0" fill="#B561C5"/>
	<path d="M 45.0,37.0 L 47.0,39.0 L 44.0,43.0 L 44.0,47.0 L 46.0,47.0 L 46.0,49.0 L 48.0,49.0 L 47.0,52.0 L 44.0,51.0 L 44.0,49.0 L 40.0,50.0 L 41.0,44.0 L 45.0,37.0" fill="#B054C0"/>
	<path d="M 37.0,67.0 L 38.0,69.0 L 40.0,69.0 L 40.0,71.0 L 42.0,71.0 L 42.0,73.0 L 45.0,72.0 L 45.0,77.0 L 42.0,77.0 L 42.0,75.0 L 40.0,75.0 L 40.0,73.0 L 37.0,73.0 L 37.0,67.0" fill="#B055C0"/>
</svg>
