<?xml version="1.0" ?>
<svg baseProfile="full" height="600px" version="1.1" viewBox="-19.296000000000003 -19.296000000000003 230.592 230.592" width="600px" xmlns="http://www.w3.org/2000/svg" xmlns:ev="http://www.w3.org/2001/xml-events" xmlns:xlink="http://www.w3.org/1999/xlink">
	<defs/>
	<path d="M 0.0,0.0 L 192.0,0.0 L 192.0,192.0 L 0.0,192.0 L 0.0,0.0" fill="#FEFDFE"/>
	<path d="M 56.0,28.0 L 135.0,28.0 L 143.0,32.0 L 149.0,39.0 L 152.0,48.0 L 155.0,72.0 L 156.0,84.0 L 174.0,84.0 L 176.0,86.0 L 176.0,98.0 L 174.0,100.0 L 162.0,100.0 L 164.0,104.0 L 164.0,158.0 L 162.0,160.0 L 142.0,160.0 L 140.0,158.0 L 140.0,144.0 L 52.0,144.0 L 52.0,158.0 L 50.0,160.0 L 30.0,160.0 L 28.0,158.0 L 28.0,104.0 L 30.0,100.0 L 18.0,100.0 L 16.0,98.0 L 16.0,86.0 L 18.0,84.0 L 36.0,84.0 L 37.0,72.0 L 40.0,48.0 L 43.0,39.0 L 49.0,32.0 L 56.0,28.0" fill="#AA49BB"/>
	<path d="M 58.0,36.0 L 134.0,36.0 L 140.0,40.0 L 143.0,45.0 L 145.0,53.0 L 148.0,78.0 L 148.0,88.0 L 44.0,88.0 L 45.0,70.0 L 48.0,48.0 L 52.0,40.0 L 58.0,36.0" fill="#E2EEF9"/>
	<path d="M 29.0,105.0 L 32.0,105.0 L 32.0,107.0 L 34.0,107.0 L 34.0,109.0 L 36.0,109.0 L 36.0,111.0 L 154.0,112.0 L 156.0,114.0 L 156.0,130.0 L 154.0,132.0 L 149.0,133.0 L 151.0,135.0 L 153.0,137.0 L 155.0,139.0 L 157.0,141.0 L 159.0,143.0 L 164.0,142.0 L 164.0,158.0 L 162.0,160.0 L 142.0,160.0 L 140.0,158.0 L 140.0,144.0 L 52.0,144.0 L 52.0,158.0 L 50.0,160.0 L 30.0,160.0 L 28.0,158.0 L 28.0,108.0 L 29.0,105.0" fill="#AA48BB"/>
	<path d="M 38.0,112.0 L 154.0,112.0 L 156.0,114.0 L 156.0,130.0 L 154.0,132.0 L 38.0,132.0 L 36.0,130.0 L 36.0,114.0 L 38.0,112.0" fill="#222121"/>
	<path d="M 124.0,60.0 L 131.0,60.0 L 136.0,63.0 L 140.0,68.0 L 140.0,76.0 L 137.0,81.0 L 131.0,84.0 L 124.0,84.0 L 117.0,78.0 L 116.0,75.0 L 116.0,68.0 L 119.0,63.0 L 124.0,60.0" fill="#FCB750"/>
	<path d="M 92.0,60.0 L 99.0,60.0 L 104.0,63.0 L 108.0,68.0 L 108.0,76.0 L 105.0,81.0 L 99.0,84.0 L 92.0,84.0 L 85.0,78.0 L 84.0,75.0 L 84.0,68.0 L 87.0,63.0 L 92.0,60.0" fill="#FCB750"/>
	<path d="M 60.0,60.0 L 67.0,60.0 L 72.0,63.0 L 76.0,68.0 L 76.0,76.0 L 73.0,81.0 L 67.0,84.0 L 60.0,84.0 L 53.0,78.0 L 52.0,75.0 L 52.0,68.0 L 55.0,63.0 L 60.0,60.0" fill="#FCB750"/>
	<path d="M 163.0,142.0 L 164.0,142.0 L 164.0,158.0 L 162.0,160.0 L 142.0,160.0 L 140.0,158.0 L 140.0,144.0 L 162.0,143.0 L 163.0,142.0" fill="#465B65"/>
	<path d="M 28.0,142.0 L 30.0,143.0 L 52.0,144.0 L 52.0,158.0 L 50.0,160.0 L 30.0,160.0 L 28.0,158.0 L 28.0,142.0" fill="#465B65"/>
	<path d="M 109.0,40.0 L 115.0,40.0 L 120.0,45.0 L 120.0,51.0 L 115.0,56.0 L 109.0,56.0 L 104.0,51.0 L 104.0,45.0 L 109.0,40.0" fill="#FDAA2F"/>
	<path d="M 77.0,40.0 L 83.0,40.0 L 88.0,45.0 L 88.0,51.0 L 83.0,56.0 L 77.0,56.0 L 72.0,51.0 L 72.0,45.0 L 77.0,40.0" fill="#FDAA2F"/>
	<path d="M 143.0,116.0 L 150.0,117.0 L 152.0,119.0 L 151.0,126.0 L 148.0,128.0 L 143.0,128.0 L 140.0,124.0 L 140.0,119.0 L 143.0,116.0" fill="#F4E139"/>
	<path d="M 43.0,116.0 L 50.0,117.0 L 52.0,119.0 L 51.0,126.0 L 48.0,128.0 L 43.0,128.0 L 40.0,124.0 L 40.0,119.0 L 43.0,116.0" fill="#F4E139"/>
	<path d="M 42.0,41.0 L 44.0,41.0 L 44.0,47.0 L 46.0,47.0 L 46.0,49.0 L 48.0,49.0 L 48.0,56.0 L 47.0,56.0 L 46.0,51.0 L 44.0,51.0 L 44.0,49.0 L 40.0,50.0 L 42.0,41.0" fill="#B159C2"/>
	<path d="M 145.0,57.0 L 148.0,57.0 L 148.0,59.0 L 150.0,59.0 L 150.0,61.0 L 153.0,60.0 L 154.0,65.0 L 150.0,65.0 L 150.0,63.0 L 148.0,63.0 L 147.0,61.0 L 145.0,64.0 L 145.0,57.0" fill="#B158C1"/>
	<path d="M 146.0,60.0 L 148.0,61.0 L 148.0,63.0 L 150.0,63.0 L 150.0,65.0 L 153.0,64.0 L 154.0,65.0 L 154.0,70.0 L 152.0,71.0 L 152.0,69.0 L 150.0,69.0 L 150.0,67.0 L 148.0,67.0 L 148.0,65.0 L 146.0,65.0 L 146.0,60.0" fill="#AA48BB"/>
	<path d="M 36.0,78.0 L 37.0,81.0 L 40.0,81.0 L 40.0,83.0 L 44.0,84.0 L 43.0,88.0 L 40.0,87.0 L 40.0,85.0 L 38.0,85.0 L 38.0,83.0 L 36.0,83.0 L 36.0,78.0" fill="#B157C1"/>
	<path d="M 37.0,77.0 L 40.0,77.0 L 40.0,79.0 L 42.0,79.0 L 42.0,81.0 L 44.0,81.0 L 43.0,85.0 L 42.0,83.0 L 40.0,83.0 L 40.0,81.0 L 37.0,81.0 L 37.0,77.0" fill="#AA48BB"/>
	<path d="M 40.0,58.0 L 42.0,59.0 L 42.0,61.0 L 44.0,61.0 L 44.0,63.0 L 46.0,63.0 L 45.0,67.0 L 43.0,65.0 L 42.0,63.0 L 39.0,63.0 L 40.0,58.0" fill="#AA47BB"/>
</svg>
