<?xml version="1.0" ?>
<svg baseProfile="full" height="600px" version="1.1" viewBox="-20.1 -20.1 240.2 240.2" width="600px" xmlns="http://www.w3.org/2000/svg" xmlns:ev="http://www.w3.org/2001/xml-events" xmlns:xlink="http://www.w3.org/1999/xlink">
	<defs/>
	<path d="M 0.0,0.0 L 200.0,0.0 L 200.0,200.0 L 0.0,200.0 L 0.0,0.0" fill="#FBFBFB"/>
	<path d="M 0.0,0.0 L 200.0,0.0 L 200.0,200.0 L 0.0,200.0 L 0.0,0.0 M 78.0,12.0 L 62.0,15.0 L 50.0,20.0 L 40.0,26.0 L 34.0,31.0 L 27.0,41.0 L 23.0,50.0 L 18.0,73.0 L 16.0,89.0 L 16.0,107.0 L 19.0,126.0 L 25.0,140.0 L 34.0,150.0 L 43.0,156.0 L 50.0,159.0 L 50.0,193.0 L 57.0,193.0 L 68.0,184.0 L 78.0,175.0 L 85.0,169.0 L 133.0,168.0 L 146.0,165.0 L 158.0,160.0 L 168.0,151.0 L 175.0,140.0 L 181.0,124.0 L 185.0,99.0 L 185.0,72.0 L 183.0,58.0 L 179.0,47.0 L 173.0,37.0 L 163.0,28.0 L 147.0,20.0 L 134.0,16.0 L 111.0,12.0 L 78.0,12.0" fill="#FCFCFC"/>
	<path d="M 78.0,12.0 L 111.0,12.0 L 138.0,17.0 L 154.0,23.0 L 164.0,29.0 L 173.0,37.0 L 179.0,47.0 L 183.0,58.0 L 185.0,72.0 L 185.0,99.0 L 181.0,124.0 L 174.0,142.0 L 167.0,152.0 L 158.0,160.0 L 144.0,166.0 L 133.0,168.0 L 85.0,169.0 L 72.0,181.0 L 61.0,190.0 L 57.0,193.0 L 50.0,193.0 L 50.0,159.0 L 36.0,152.0 L 27.0,143.0 L 21.0,131.0 L 18.0,121.0 L 16.0,107.0 L 16.0,89.0 L 19.0,68.0 L 24.0,47.0 L 30.0,36.0 L 35.0,30.0 L 46.0,22.0 L 59.0,16.0 L 72.0,13.0 L 78.0,12.0 M 79.0,20.0 L 64.0,23.0 L 52.0,28.0 L 43.0,34.0 L 35.0,43.0 L 30.0,55.0 L 25.0,80.0 L 24.0,88.0 L 24.0,108.0 L 28.0,128.0 L 33.0,137.0 L 40.0,145.0 L 57.0,154.0 L 58.0,156.0 L 59.0,180.0 L 65.0,176.0 L 77.0,165.0 L 84.0,160.0 L 130.0,160.0 L 141.0,158.0 L 154.0,153.0 L 162.0,146.0 L 168.0,135.0 L 172.0,125.0 L 175.0,114.0 L 177.0,96.0 L 177.0,73.0 L 173.0,53.0 L 167.0,43.0 L 159.0,35.0 L 145.0,28.0 L 126.0,23.0 L 118.0,21.0 L 108.0,20.0 L 79.0,20.0" fill="#080808"/>
	<path d="M 69.0,55.0 L 76.0,55.0 L 84.0,64.0 L 89.0,74.0 L 88.0,79.0 L 82.0,84.0 L 81.0,90.0 L 84.0,98.0 L 89.0,102.0 L 91.0,107.0 L 100.0,113.0 L 108.0,113.0 L 110.0,109.0 L 112.0,108.0 L 119.0,108.0 L 129.0,116.0 L 135.0,122.0 L 134.0,129.0 L 129.0,135.0 L 122.0,138.0 L 116.0,138.0 L 105.0,132.0 L 94.0,124.0 L 84.0,115.0 L 75.0,105.0 L 66.0,90.0 L 60.0,74.0 L 59.0,71.0 L 59.0,64.0 L 62.0,59.0 L 69.0,55.0" fill="#040404"/>
	<path d="M 91.0,54.0 L 101.0,54.0 L 109.0,56.0 L 121.0,62.0 L 130.0,72.0 L 135.0,84.0 L 135.0,101.0 L 133.0,106.0 L 128.0,106.0 L 127.0,105.0 L 127.0,87.0 L 124.0,78.0 L 118.0,70.0 L 110.0,65.0 L 105.0,63.0 L 90.0,62.0 L 88.0,60.0 L 89.0,55.0 L 91.0,54.0" fill="#0B0B0B"/>
	<path d="M 86.0,88.0 L 94.0,89.0 L 100.0,94.0 L 102.0,98.0 L 102.0,105.0 L 98.0,105.0 L 96.0,96.0 L 92.0,93.0 L 86.0,92.0 L 86.0,88.0" fill="#1C1C1C"/>
</svg>
