<?xml version="1.0" ?>
<svg baseProfile="full" height="600px" version="1.1" viewBox="-20.1 -20.1 240.2 240.2" width="600px" xmlns="http://www.w3.org/2000/svg" xmlns:ev="http://www.w3.org/2001/xml-events" xmlns:xlink="http://www.w3.org/1999/xlink">
	<defs/>
	<path d="M 0.0,0.0 L 200.0,0.0 L 200.0,200.0 L 0.0,200.0 L 0.0,0.0" fill="#FCFCFC"/>
	<path d="M 0.0,0.0 L 200.0,0.0 L 200.0,128.0 L 127.0,128.0 L 125.0,122.0 L 125.0,120.0 L 192.0,120.0 L 192.0,116.0 L 186.0,116.0 L 186.0,104.0 L 192.0,104.0 L 192.0,32.0 L 186.0,32.0 L 186.0,20.0 L 192.0,20.0 L 192.0,16.0 L 8.0,16.0 L 8.0,120.0 L 75.0,120.0 L 76.0,128.0 L 0.0,128.0 L 0.0,0.0" fill="#000000"/>
	<path d="M 34.0,64.0 L 87.0,64.0 L 95.0,74.0 L 107.0,86.0 L 113.0,105.0 L 117.0,121.0 L 124.0,144.0 L 130.0,167.0 L 132.0,173.0 L 132.0,182.0 L 128.0,190.0 L 121.0,194.0 L 110.0,194.0 L 104.0,190.0 L 99.0,182.0 L 95.0,166.0 L 90.0,148.0 L 85.0,130.0 L 78.0,106.0 L 76.0,97.0 L 77.0,88.0 L 81.0,72.0 L 34.0,72.0 L 32.0,70.0 L 33.0,65.0 L 34.0,64.0" fill="#060606"/>
	<path d="M 0.0,0.0 L 200.0,0.0 L 200.0,8.0 L 0.0,8.0 L 0.0,0.0" fill="#FDFDFD"/>
	<path d="M 94.0,91.0 L 100.0,91.0 L 106.0,110.0 L 110.0,126.0 L 117.0,149.0 L 123.0,170.0 L 122.0,173.0 L 111.0,176.0 L 106.0,176.0 L 100.0,154.0 L 93.0,130.0 L 86.0,103.0 L 84.0,94.0 L 94.0,91.0" fill="#F8F8F8"/>
	<path d="M 162.0,104.0 L 170.0,104.0 L 170.0,116.0 L 162.0,116.0 L 162.0,104.0" fill="#0A0A0A"/>
	<path d="M 138.0,104.0 L 146.0,104.0 L 146.0,116.0 L 138.0,116.0 L 138.0,104.0" fill="#0A0A0A"/>
	<path d="M 42.0,104.0 L 50.0,104.0 L 50.0,116.0 L 42.0,116.0 L 42.0,104.0" fill="#0A0A0A"/>
	<path d="M 18.0,104.0 L 26.0,104.0 L 26.0,116.0 L 18.0,116.0 L 18.0,104.0" fill="#0A0A0A"/>
	<path d="M 162.0,20.0 L 170.0,20.0 L 170.0,32.0 L 162.0,32.0 L 162.0,20.0" fill="#0A0A0A"/>
	<path d="M 138.0,20.0 L 146.0,20.0 L 146.0,32.0 L 138.0,32.0 L 138.0,20.0" fill="#0A0A0A"/>
	<path d="M 114.0,20.0 L 122.0,20.0 L 122.0,32.0 L 114.0,32.0 L 114.0,20.0" fill="#0A0A0A"/>
	<path d="M 90.0,20.0 L 98.0,20.0 L 98.0,32.0 L 90.0,32.0 L 90.0,20.0" fill="#0A0A0A"/>
	<path d="M 66.0,20.0 L 74.0,20.0 L 74.0,32.0 L 66.0,32.0 L 66.0,20.0" fill="#0A0A0A"/>
	<path d="M 42.0,20.0 L 50.0,20.0 L 50.0,32.0 L 42.0,32.0 L 42.0,20.0" fill="#0A0A0A"/>
	<path d="M 18.0,20.0 L 26.0,20.0 L 26.0,32.0 L 18.0,32.0 L 18.0,20.0" fill="#0A0A0A"/>
	<path d="M 66.0,104.0 L 70.0,104.0 L 73.0,113.0 L 73.0,116.0 L 66.0,116.0 L 66.0,104.0" fill="#070707"/>
</svg>
