<?xml version="1.0" ?>
<svg baseProfile="full" height="600px" version="1.1" viewBox="-20.1 -20.1 240.2 240.2" width="600px" xmlns="http://www.w3.org/2000/svg" xmlns:ev="http://www.w3.org/2001/xml-events" xmlns:xlink="http://www.w3.org/1999/xlink">
	<defs/>
	<path d="M 0.0,0.0 L 200.0,0.0 L 200.0,200.0 L 0.0,200.0 L 0.0,0.0" fill="#FDFDFD"/>
	<path d="M 0.0,0.0 L 200.0,0.0 L 200.0,128.0 L 140.0,128.0 L 140.0,120.0 L 192.0,120.0 L 192.0,116.0 L 189.0,116.0 L 189.0,104.0 L 192.0,104.0 L 192.0,32.0 L 189.0,32.0 L 189.0,20.0 L 192.0,20.0 L 192.0,16.0 L 8.0,16.0 L 8.0,120.0 L 91.0,120.0 L 91.0,128.0 L 0.0,128.0 L 0.0,0.0" fill="#000000"/>
	<path d="M 34.0,64.0 L 117.0,64.0 L 119.0,66.0 L 122.0,75.0 L 131.0,90.0 L 133.0,134.0 L 133.0,183.0 L 129.0,190.0 L 121.0,194.0 L 112.0,194.0 L 104.0,189.0 L 100.0,180.0 L 99.0,122.0 L 99.0,90.0 L 108.0,73.0 L 34.0,72.0 L 32.0,70.0 L 33.0,65.0 L 34.0,64.0" fill="#050505"/>
	<path d="M 0.0,0.0 L 200.0,0.0 L 200.0,8.0 L 0.0,8.0 L 0.0,0.0" fill="#FDFDFD"/>
	<path d="M 107.0,94.0 L 123.0,94.0 L 124.0,103.0 L 125.0,147.0 L 125.0,174.0 L 108.0,174.0 L 107.0,133.0 L 107.0,94.0" fill="#F8F8F8"/>
	<path d="M 165.0,104.0 L 173.0,104.0 L 173.0,116.0 L 165.0,116.0 L 165.0,104.0" fill="#040404"/>
	<path d="M 141.0,104.0 L 149.0,104.0 L 149.0,116.0 L 141.0,116.0 L 141.0,104.0" fill="#040404"/>
	<path d="M 69.0,104.0 L 77.0,104.0 L 77.0,116.0 L 69.0,116.0 L 69.0,104.0" fill="#040404"/>
	<path d="M 45.0,104.0 L 53.0,104.0 L 53.0,116.0 L 45.0,116.0 L 45.0,104.0" fill="#040404"/>
	<path d="M 21.0,104.0 L 29.0,104.0 L 29.0,116.0 L 21.0,116.0 L 21.0,104.0" fill="#040404"/>
	<path d="M 165.0,20.0 L 173.0,20.0 L 173.0,32.0 L 165.0,32.0 L 165.0,20.0" fill="#040404"/>
	<path d="M 141.0,20.0 L 149.0,20.0 L 149.0,32.0 L 141.0,32.0 L 141.0,20.0" fill="#040404"/>
	<path d="M 117.0,20.0 L 125.0,20.0 L 125.0,32.0 L 117.0,32.0 L 117.0,20.0" fill="#040404"/>
	<path d="M 93.0,20.0 L 101.0,20.0 L 101.0,32.0 L 93.0,32.0 L 93.0,20.0" fill="#040404"/>
	<path d="M 69.0,20.0 L 77.0,20.0 L 77.0,32.0 L 69.0,32.0 L 69.0,20.0" fill="#040404"/>
	<path d="M 45.0,20.0 L 53.0,20.0 L 53.0,32.0 L 45.0,32.0 L 45.0,20.0" fill="#040404"/>
	<path d="M 21.0,20.0 L 29.0,20.0 L 29.0,32.0 L 21.0,32.0 L 21.0,20.0" fill="#040404"/>
</svg>
