<?xml version="1.0" ?>
<svg baseProfile="full" height="600px" version="1.1" viewBox="-12.864 -12.864 153.728 153.728" width="600px" xmlns="http://www.w3.org/2000/svg" xmlns:ev="http://www.w3.org/2001/xml-events" xmlns:xlink="http://www.w3.org/1999/xlink">
	<defs/>
	<path d="M 0.0,0.0 L 128.0,0.0 L 128.0,128.0 L 0.0,128.0 L 0.0,0.0" fill="#FDFDFD"/>
	<path d="M 4.0,32.0 L 124.0,32.0 L 124.0,96.0 L 4.0,96.0 L 4.0,32.0" fill="#FCFCFC"/>
	<path d="M 4.0,32.0 L 124.0,32.0 L 124.0,96.0 L 4.0,96.0 L 4.0,32.0 M 12.0,40.0 L 12.0,88.0 L 116.0,88.0 L 116.0,40.0 L 12.0,40.0" fill="#000000"/>
	<path d="M 44.0,48.0 L 57.0,48.0 L 62.0,51.0 L 64.0,55.0 L 64.0,62.0 L 61.0,66.0 L 62.0,72.0 L 64.0,80.0 L 56.0,80.0 L 53.0,72.0 L 52.0,80.0 L 44.0,80.0 L 44.0,48.0" fill="#ACACAC"/>
	<path d="M 68.0,48.0 L 84.0,48.0 L 84.0,56.0 L 76.0,56.0 L 76.0,60.0 L 84.0,60.0 L 84.0,68.0 L 76.0,68.0 L 76.0,72.0 L 84.0,72.0 L 84.0,80.0 L 68.0,80.0 L 68.0,48.0" fill="#A9A9A9"/>
	<path d="M 94.0,48.0 L 101.0,48.0 L 106.0,51.0 L 108.0,55.0 L 108.0,58.0 L 100.0,58.0 L 97.0,57.0 L 97.0,71.0 L 100.0,70.0 L 108.0,70.0 L 107.0,75.0 L 102.0,80.0 L 94.0,80.0 L 89.0,75.0 L 88.0,73.0 L 88.0,54.0 L 93.0,49.0 L 94.0,48.0" fill="#ABABAB"/>
	<path d="M 25.0,56.0 L 31.0,56.0 L 36.0,61.0 L 35.0,69.0 L 30.0,72.0 L 23.0,71.0 L 20.0,67.0 L 20.0,61.0 L 25.0,56.0" fill="#ACACAC"/>
</svg>
