<?xml version="1.0" ?>
<svg baseProfile="full" height="600px" version="1.1" viewBox="-12.06 -12.06 144.12 144.12" width="600px" xmlns="http://www.w3.org/2000/svg" xmlns:ev="http://www.w3.org/2001/xml-events" xmlns:xlink="http://www.w3.org/1999/xlink">
	<defs/>
	<path d="M 0.0,0.0 L 120.0,0.0 L 120.0,120.0 L 0.0,120.0 L 0.0,0.0" fill="#FCFCFC"/>
	<path d="M 50.0,26.0 L 69.0,26.0 L 86.0,31.0 L 96.0,37.0 L 102.0,42.0 L 109.0,52.0 L 112.0,61.0 L 112.0,75.0 L 107.0,87.0 L 99.0,96.0 L 88.0,103.0 L 75.0,108.0 L 67.0,109.0 L 53.0,109.0 L 41.0,107.0 L 25.0,99.0 L 15.0,90.0 L 8.0,76.0 L 8.0,59.0 L 14.0,47.0 L 21.0,39.0 L 32.0,32.0 L 42.0,28.0 L 50.0,26.0" fill="#080808"/>
	<path d="M 61.0,54.0 L 68.0,54.0 L 84.0,60.0 L 96.0,67.0 L 103.0,73.0 L 101.0,80.0 L 96.0,78.0 L 89.0,72.0 L 73.0,64.0 L 62.0,60.0 L 61.0,54.0" fill="#F2F2F2"/>
	<path d="M 87.0,80.0 L 94.0,86.0 L 94.0,89.0 L 87.0,95.0 L 79.0,99.0 L 69.0,102.0 L 51.0,102.0 L 52.0,100.0 L 64.0,96.0 L 76.0,90.0 L 87.0,80.0" fill="#F2F2F2"/>
	<path d="M 58.0,67.0 L 67.0,68.0 L 66.0,71.0 L 52.0,80.0 L 38.0,85.0 L 31.0,87.0 L 24.0,87.0 L 21.0,84.0 L 21.0,81.0 L 35.0,78.0 L 48.0,73.0 L 57.0,68.0 L 58.0,67.0" fill="#F2F2F2"/>
	<path d="M 75.0,72.0 L 81.0,75.0 L 75.0,82.0 L 64.0,89.0 L 48.0,95.0 L 36.0,97.0 L 32.0,93.0 L 43.0,90.0 L 56.0,85.0 L 67.0,79.0 L 75.0,72.0" fill="#F0F0F0"/>
	<path d="M 47.0,34.0 L 54.0,34.0 L 53.0,40.0 L 53.0,62.0 L 49.0,65.0 L 46.0,64.0 L 43.0,55.0 L 43.0,40.0 L 45.0,35.0 L 47.0,34.0" fill="#F2F2F2"/>
	<path d="M 61.0,41.0 L 69.0,41.0 L 85.0,46.0 L 98.0,53.0 L 102.0,57.0 L 103.0,63.0 L 94.0,58.0 L 82.0,52.0 L 68.0,48.0 L 61.0,47.0 L 61.0,41.0" fill="#F1F1F1"/>
	<path d="M 33.0,40.0 L 35.0,40.0 L 35.0,53.0 L 37.0,61.0 L 39.0,70.0 L 33.0,71.0 L 29.0,63.0 L 28.0,60.0 L 28.0,44.0 L 33.0,40.0" fill="#F7F7F7"/>
	<path d="M 18.0,57.0 L 20.0,60.0 L 25.0,74.0 L 17.0,75.0 L 16.0,72.0 L 16.0,63.0 L 18.0,57.0" fill="#E0E0E0"/>
</svg>
