<?xml version="1.0" ?>
<svg baseProfile="full" height="600px" version="1.1" viewBox="-12.06 -12.06 144.12 144.12" width="600px" xmlns="http://www.w3.org/2000/svg" xmlns:ev="http://www.w3.org/2001/xml-events" xmlns:xlink="http://www.w3.org/1999/xlink">
	<defs/>
	<path d="M 0.0,0.0 L 120.0,0.0 L 120.0,120.0 L 0.0,120.0 L 0.0,0.0" fill="#FCFCFC"/>
	<path d="M 52.0,12.0 L 67.0,12.0 L 79.0,16.0 L 88.0,22.0 L 96.0,30.0 L 103.0,44.0 L 105.0,52.0 L 105.0,69.0 L 103.0,77.0 L 99.0,86.0 L 93.0,95.0 L 84.0,103.0 L 73.0,108.0 L 69.0,109.0 L 50.0,109.0 L 40.0,105.0 L 29.0,97.0 L 21.0,86.0 L 17.0,77.0 L 15.0,68.0 L 15.0,51.0 L 19.0,39.0 L 26.0,28.0 L 34.0,20.0 L 48.0,13.0 L 52.0,12.0" fill="#070707"/>
	<path d="M 65.0,54.0 L 67.0,54.0 L 67.0,72.0 L 64.0,84.0 L 57.0,100.0 L 53.0,101.0 L 49.0,100.0 L 51.0,94.0 L 57.0,80.0 L 59.0,68.0 L 60.0,57.0 L 65.0,54.0" fill="#F2F2F2"/>
	<path d="M 77.0,49.0 L 80.0,49.0 L 81.0,53.0 L 81.0,70.0 L 79.0,80.0 L 74.0,94.0 L 71.0,100.0 L 65.0,101.0 L 67.0,95.0 L 72.0,80.0 L 73.0,76.0 L 74.0,50.0 L 77.0,49.0" fill="#ECECEC"/>
	<path d="M 87.0,48.0 L 96.0,48.0 L 97.0,50.0 L 97.0,71.0 L 92.0,83.0 L 85.0,92.0 L 83.0,92.0 L 87.0,76.0 L 88.0,69.0 L 88.0,56.0 L 87.0,48.0" fill="#F4F4F4"/>
	<path d="M 81.0,32.0 L 87.0,32.0 L 92.0,38.0 L 92.0,40.0 L 80.0,41.0 L 64.0,46.0 L 57.0,50.0 L 53.0,49.0 L 50.0,46.0 L 59.0,39.0 L 71.0,34.0 L 81.0,32.0" fill="#F2F2F2"/>
	<path d="M 29.0,37.0 L 32.0,38.0 L 40.0,48.0 L 50.0,56.0 L 52.0,57.0 L 52.0,65.0 L 46.0,63.0 L 35.0,55.0 L 26.0,45.0 L 27.0,40.0 L 29.0,37.0" fill="#F4F4F4"/>
	<path d="M 64.0,21.0 L 72.0,22.0 L 77.0,24.0 L 73.0,26.0 L 59.0,31.0 L 48.0,38.0 L 45.0,41.0 L 43.0,41.0 L 40.0,36.0 L 49.0,28.0 L 61.0,22.0 L 64.0,21.0" fill="#F2F2F2"/>
	<path d="M 23.0,54.0 L 30.0,60.0 L 40.0,68.0 L 51.0,73.0 L 50.0,79.0 L 43.0,78.0 L 33.0,72.0 L 26.0,66.0 L 23.0,62.0 L 23.0,54.0" fill="#F3F3F3"/>
	<path d="M 25.0,75.0 L 33.0,81.0 L 46.0,87.0 L 44.0,93.0 L 42.0,96.0 L 38.0,94.0 L 30.0,86.0 L 25.0,77.0 L 25.0,75.0" fill="#F0F0F0"/>
</svg>
