<?xml version="1.0" ?>
<svg baseProfile="full" height="600px" version="1.1" viewBox="-20.1 -20.1 240.2 240.2" width="600px" xmlns="http://www.w3.org/2000/svg" xmlns:ev="http://www.w3.org/2001/xml-events" xmlns:xlink="http://www.w3.org/1999/xlink">
	<defs/>
	<path d="M 0.0,0.0 L 200.0,0.0 L 200.0,200.0 L 0.0,200.0 L 0.0,0.0" fill="#070707"/>
	<path d="M 0.0,0.0 L 200.0,0.0 L 200.0,200.0 L 0.0,200.0 L 0.0,0.0 M 87.0,29.0 L 72.0,32.0 L 58.0,37.0 L 43.0,45.0 L 33.0,53.0 L 27.0,58.0 L 17.0,71.0 L 10.0,85.0 L 7.0,94.0 L 6.0,100.0 L 6.0,119.0 L 8.0,131.0 L 15.0,147.0 L 22.0,157.0 L 31.0,167.0 L 42.0,176.0 L 61.0,186.0 L 78.0,191.0 L 83.0,192.0 L 114.0,192.0 L 125.0,190.0 L 143.0,184.0 L 158.0,176.0 L 169.0,167.0 L 176.0,160.0 L 185.0,147.0 L 190.0,136.0 L 193.0,127.0 L 194.0,122.0 L 194.0,99.0 L 189.0,82.0 L 181.0,68.0 L 170.0,55.0 L 157.0,45.0 L 142.0,37.0 L 132.0,33.0 L 112.0,29.0 L 87.0,29.0" fill="#FCFCFC"/>
	<path d="M 102.0,104.0 L 120.0,105.0 L 133.0,108.0 L 131.0,114.0 L 120.0,128.0 L 113.0,135.0 L 96.0,148.0 L 84.0,155.0 L 63.0,164.0 L 48.0,169.0 L 44.0,168.0 L 32.0,157.0 L 32.0,155.0 L 53.0,146.0 L 69.0,137.0 L 82.0,127.0 L 88.0,122.0 L 95.0,114.0 L 102.0,104.0" fill="#FAFAFA"/>
	<path d="M 89.0,72.0 L 114.0,72.0 L 133.0,75.0 L 156.0,83.0 L 172.0,91.0 L 185.0,99.0 L 186.0,101.0 L 186.0,117.0 L 185.0,122.0 L 173.0,116.0 L 159.0,109.0 L 140.0,103.0 L 127.0,100.0 L 100.0,97.0 L 91.0,80.0 L 89.0,75.0 L 89.0,72.0" fill="#FAFAFA"/>
	<path d="M 141.0,111.0 L 148.0,112.0 L 163.0,118.0 L 163.0,121.0 L 153.0,136.0 L 142.0,148.0 L 132.0,157.0 L 116.0,167.0 L 101.0,174.0 L 82.0,181.0 L 72.0,182.0 L 55.0,175.0 L 56.0,173.0 L 78.0,165.0 L 99.0,154.0 L 115.0,142.0 L 126.0,132.0 L 136.0,119.0 L 141.0,111.0" fill="#FAFAFA"/>
	<path d="M 74.0,39.0 L 77.0,39.0 L 78.0,56.0 L 81.0,72.0 L 85.0,84.0 L 93.0,99.0 L 94.0,103.0 L 87.0,112.0 L 81.0,119.0 L 76.0,123.0 L 73.0,122.0 L 64.0,108.0 L 57.0,91.0 L 54.0,77.0 L 54.0,48.0 L 60.0,44.0 L 74.0,39.0" fill="#FAFAFA"/>
	<path d="M 92.0,43.0 L 119.0,43.0 L 138.0,46.0 L 150.0,50.0 L 159.0,56.0 L 172.0,69.0 L 180.0,82.0 L 182.0,88.0 L 177.0,86.0 L 156.0,76.0 L 146.0,72.0 L 130.0,68.0 L 118.0,66.0 L 87.0,65.0 L 85.0,55.0 L 85.0,44.0 L 92.0,43.0" fill="#F9F9F9"/>
	<path d="M 44.0,54.0 L 45.0,54.0 L 46.0,72.0 L 49.0,89.0 L 56.0,108.0 L 64.0,122.0 L 68.0,127.0 L 66.0,131.0 L 51.0,140.0 L 47.0,139.0 L 40.0,128.0 L 33.0,113.0 L 28.0,97.0 L 26.0,84.0 L 26.0,72.0 L 35.0,62.0 L 42.0,55.0 L 44.0,54.0" fill="#FBFBFB"/>
	<path d="M 170.0,123.0 L 174.0,124.0 L 183.0,130.0 L 179.0,141.0 L 172.0,152.0 L 163.0,162.0 L 153.0,170.0 L 143.0,176.0 L 124.0,183.0 L 112.0,185.0 L 92.0,185.0 L 95.0,183.0 L 114.0,175.0 L 129.0,167.0 L 141.0,158.0 L 151.0,149.0 L 159.0,140.0 L 169.0,125.0 L 170.0,123.0" fill="#F8F8F8"/>
	<path d="M 18.0,87.0 L 19.0,87.0 L 22.0,102.0 L 28.0,120.0 L 37.0,137.0 L 41.0,144.0 L 29.0,149.0 L 25.0,148.0 L 18.0,134.0 L 15.0,125.0 L 14.0,117.0 L 14.0,101.0 L 18.0,87.0" fill="#F5F5F5"/>
</svg>
