<?xml version="1.0" ?>
<svg baseProfile="full" height="600px" version="1.1" viewBox="-20.1 -20.1 240.2 240.2" width="600px" xmlns="http://www.w3.org/2000/svg" xmlns:ev="http://www.w3.org/2001/xml-events" xmlns:xlink="http://www.w3.org/1999/xlink">
	<defs/>
	<path d="M 0.0,0.0 L 200.0,0.0 L 200.0,200.0 L 0.0,200.0 L 0.0,0.0" fill="#080808"/>
	<path d="M 0.0,0.0 L 200.0,0.0 L 200.0,200.0 L 0.0,200.0 L 0.0,0.0 M 88.0,2.0 L 73.0,6.0 L 61.0,11.0 L 49.0,19.0 L 39.0,28.0 L 31.0,37.0 L 23.0,51.0 L 17.0,65.0 L 15.0,73.0 L 14.0,82.0 L 14.0,105.0 L 19.0,124.0 L 25.0,138.0 L 34.0,151.0 L 41.0,159.0 L 55.0,170.0 L 71.0,178.0 L 87.0,182.0 L 112.0,182.0 L 123.0,180.0 L 138.0,174.0 L 149.0,167.0 L 161.0,157.0 L 172.0,143.0 L 180.0,127.0 L 185.0,110.0 L 186.0,102.0 L 186.0,82.0 L 184.0,69.0 L 179.0,55.0 L 171.0,40.0 L 162.0,29.0 L 154.0,21.0 L 139.0,11.0 L 127.0,6.0 L 116.0,3.0 L 109.0,2.0 L 88.0,2.0" fill="#FCFCFC"/>
	<path d="M 24.0,114.0 L 35.0,121.0 L 53.0,131.0 L 71.0,138.0 L 89.0,142.0 L 115.0,142.0 L 137.0,138.0 L 142.0,137.0 L 142.0,162.0 L 132.0,168.0 L 120.0,171.0 L 112.0,172.0 L 92.0,172.0 L 78.0,169.0 L 64.0,165.0 L 53.0,159.0 L 39.0,145.0 L 30.0,131.0 L 24.0,116.0 L 24.0,114.0" fill="#FBFBFB"/>
	<path d="M 22.0,83.0 L 30.0,87.0 L 46.0,96.0 L 62.0,103.0 L 76.0,107.0 L 83.0,109.0 L 93.0,110.0 L 115.0,110.0 L 130.0,107.0 L 136.0,107.0 L 140.0,122.0 L 140.0,129.0 L 131.0,132.0 L 114.0,135.0 L 89.0,135.0 L 68.0,130.0 L 53.0,123.0 L 40.0,116.0 L 26.0,106.0 L 22.0,103.0 L 22.0,83.0" fill="#FBFBFB"/>
	<path d="M 29.0,56.0 L 48.0,65.0 L 61.0,70.0 L 78.0,74.0 L 89.0,75.0 L 118.0,75.0 L 125.0,84.0 L 132.0,97.0 L 132.0,99.0 L 116.0,103.0 L 91.0,103.0 L 77.0,100.0 L 63.0,96.0 L 38.0,84.0 L 24.0,75.0 L 25.0,66.0 L 29.0,56.0" fill="#FBFBFB"/>
	<path d="M 135.0,42.0 L 139.0,44.0 L 147.0,54.0 L 155.0,68.0 L 161.0,82.0 L 165.0,96.0 L 168.0,117.0 L 168.0,134.0 L 161.0,145.0 L 151.0,155.0 L 150.0,155.0 L 148.0,129.0 L 143.0,107.0 L 136.0,90.0 L 130.0,79.0 L 123.0,70.0 L 122.0,67.0 L 129.0,51.0 L 135.0,42.0" fill="#FAFAFA"/>
	<path d="M 118.0,13.0 L 126.0,14.0 L 140.0,21.0 L 140.0,24.0 L 128.0,40.0 L 119.0,56.0 L 115.0,67.0 L 108.0,68.0 L 86.0,68.0 L 88.0,58.0 L 97.0,39.0 L 107.0,25.0 L 116.0,15.0 L 118.0,13.0" fill="#F9F9F9"/>
	<path d="M 92.0,10.0 L 110.0,10.0 L 104.0,18.0 L 96.0,28.0 L 87.0,44.0 L 82.0,55.0 L 78.0,66.0 L 66.0,64.0 L 57.0,61.0 L 58.0,54.0 L 64.0,38.0 L 72.0,23.0 L 80.0,13.0 L 85.0,11.0 L 92.0,10.0" fill="#F9F9F9"/>
	<path d="M 147.0,27.0 L 151.0,29.0 L 160.0,38.0 L 169.0,52.0 L 175.0,65.0 L 178.0,78.0 L 179.0,87.0 L 179.0,98.0 L 176.0,116.0 L 175.0,116.0 L 172.0,97.0 L 166.0,76.0 L 157.0,57.0 L 149.0,45.0 L 141.0,36.0 L 143.0,32.0 L 147.0,27.0" fill="#F6F6F6"/>
	<path d="M 65.0,18.0 L 67.0,19.0 L 59.0,33.0 L 53.0,48.0 L 50.0,57.0 L 45.0,56.0 L 33.0,49.0 L 40.0,38.0 L 50.0,28.0 L 63.0,19.0 L 65.0,18.0" fill="#F6F6F6"/>
</svg>
