<?xml version="1.0" ?>
<svg baseProfile="full" height="600px" version="1.1" viewBox="-12.06 -12.06 144.12 144.12" width="600px" xmlns="http://www.w3.org/2000/svg" xmlns:ev="http://www.w3.org/2001/xml-events" xmlns:xlink="http://www.w3.org/1999/xlink">
	<defs/>
	<path d="M 0.0,0.0 L 120.0,0.0 L 120.0,120.0 L 0.0,120.0 L 0.0,0.0" fill="#070707"/>
	<path d="M 0.0,0.0 L 120.0,0.0 L 120.0,120.0 L 0.0,120.0 L 0.0,0.0 M 51.0,12.0 L 40.0,16.0 L 30.0,22.0 L 21.0,31.0 L 13.0,47.0 L 12.0,51.0 L 12.0,69.0 L 17.0,82.0 L 23.0,91.0 L 31.0,99.0 L 42.0,105.0 L 51.0,108.0 L 66.0,108.0 L 75.0,106.0 L 89.0,99.0 L 99.0,89.0 L 107.0,73.0 L 108.0,66.0 L 108.0,51.0 L 104.0,39.0 L 97.0,29.0 L 89.0,21.0 L 73.0,13.0 L 69.0,12.0 L 51.0,12.0" fill="#FCFCFC"/>
	<path d="M 61.0,49.0 L 70.0,50.0 L 82.0,54.0 L 94.0,61.0 L 99.0,66.0 L 98.0,74.0 L 94.0,72.0 L 80.0,63.0 L 67.0,58.0 L 63.0,57.0 L 61.0,52.0 L 61.0,49.0" fill="#F3F3F3"/>
	<path d="M 61.0,65.0 L 67.0,65.0 L 68.0,68.0 L 61.0,76.0 L 54.0,82.0 L 43.0,88.0 L 34.0,91.0 L 29.0,86.0 L 29.0,84.0 L 42.0,79.0 L 53.0,72.0 L 61.0,65.0" fill="#F4F4F4"/>
	<path d="M 49.0,21.0 L 54.0,21.0 L 53.0,29.0 L 53.0,45.0 L 55.0,56.0 L 54.0,61.0 L 50.0,64.0 L 46.0,54.0 L 44.0,46.0 L 44.0,30.0 L 46.0,22.0 L 49.0,21.0" fill="#F2F2F2"/>
	<path d="M 35.0,28.0 L 37.0,28.0 L 37.0,45.0 L 40.0,59.0 L 43.0,67.0 L 42.0,71.0 L 37.0,72.0 L 32.0,60.0 L 30.0,52.0 L 30.0,33.0 L 35.0,28.0" fill="#F0F0F0"/>
	<path d="M 76.0,70.0 L 81.0,72.0 L 80.0,77.0 L 69.0,89.0 L 58.0,96.0 L 52.0,99.0 L 46.0,98.0 L 44.0,96.0 L 60.0,87.0 L 70.0,78.0 L 76.0,70.0" fill="#F3F3F3"/>
	<path d="M 60.0,35.0 L 70.0,35.0 L 78.0,37.0 L 90.0,42.0 L 99.0,49.0 L 99.0,55.0 L 88.0,49.0 L 72.0,43.0 L 60.0,41.0 L 60.0,35.0" fill="#F3F3F3"/>
	<path d="M 63.0,20.0 L 74.0,22.0 L 85.0,28.0 L 89.0,33.0 L 79.0,30.0 L 71.0,28.0 L 61.0,27.0 L 62.0,21.0 L 63.0,20.0" fill="#E8E8E8"/>
	<path d="M 88.0,78.0 L 93.0,81.0 L 91.0,86.0 L 82.0,94.0 L 71.0,99.0 L 69.0,98.0 L 80.0,89.0 L 88.0,78.0" fill="#EDEDED"/>
	<path d="M 21.0,49.0 L 23.0,53.0 L 27.0,68.0 L 30.0,74.0 L 30.0,76.0 L 24.0,77.0 L 21.0,70.0 L 20.0,66.0 L 20.0,54.0 L 21.0,49.0" fill="#EDEDED"/>
</svg>
