<?xml version="1.0" ?>
<svg baseProfile="full" height="600px" version="1.1" viewBox="-20.1 -20.1 240.2 240.2" width="600px" xmlns="http://www.w3.org/2000/svg" xmlns:ev="http://www.w3.org/2001/xml-events" xmlns:xlink="http://www.w3.org/1999/xlink">
	<defs/>
	<path d="M 0.0,0.0 L 200.0,0.0 L 200.0,200.0 L 0.0,200.0 L 0.0,0.0" fill="#080808"/>
	<path d="M 0.0,0.0 L 200.0,0.0 L 200.0,200.0 L 0.0,200.0 L 0.0,0.0 M 91.0,38.0 L 71.0,41.0 L 53.0,47.0 L 36.0,56.0 L 25.0,65.0 L 16.0,74.0 L 8.0,87.0 L 4.0,96.0 L 2.0,103.0 L 2.0,126.0 L 7.0,142.0 L 14.0,154.0 L 23.0,164.0 L 33.0,173.0 L 47.0,181.0 L 63.0,188.0 L 80.0,192.0 L 88.0,193.0 L 111.0,193.0 L 123.0,191.0 L 139.0,187.0 L 155.0,180.0 L 167.0,173.0 L 180.0,161.0 L 187.0,153.0 L 195.0,137.0 L 197.0,132.0 L 198.0,126.0 L 198.0,103.0 L 194.0,91.0 L 188.0,80.0 L 180.0,70.0 L 172.0,62.0 L 162.0,55.0 L 147.0,47.0 L 129.0,41.0 L 111.0,38.0 L 91.0,38.0" fill="#FCFCFC"/>
	<path d="M 111.0,113.0 L 132.0,113.0 L 143.0,115.0 L 141.0,120.0 L 133.0,131.0 L 126.0,139.0 L 115.0,148.0 L 101.0,157.0 L 85.0,165.0 L 64.0,173.0 L 57.0,175.0 L 51.0,175.0 L 39.0,168.0 L 35.0,165.0 L 35.0,163.0 L 52.0,157.0 L 69.0,149.0 L 83.0,140.0 L 94.0,131.0 L 108.0,117.0 L 111.0,113.0" fill="#FAFAFA"/>
	<path d="M 151.0,118.0 L 160.0,120.0 L 174.0,125.0 L 174.0,128.0 L 166.0,141.0 L 158.0,151.0 L 147.0,162.0 L 134.0,171.0 L 115.0,181.0 L 101.0,186.0 L 90.0,186.0 L 75.0,184.0 L 65.0,181.0 L 65.0,179.0 L 87.0,171.0 L 104.0,163.0 L 118.0,154.0 L 128.0,146.0 L 136.0,139.0 L 146.0,126.0 L 151.0,118.0" fill="#FAFAFA"/>
	<path d="M 80.0,46.0 L 84.0,46.0 L 85.0,66.0 L 88.0,82.0 L 96.0,100.0 L 103.0,111.0 L 96.0,119.0 L 84.0,131.0 L 80.0,129.0 L 73.0,119.0 L 65.0,103.0 L 61.0,89.0 L 60.0,81.0 L 60.0,56.0 L 62.0,51.0 L 80.0,46.0" fill="#FAFAFA"/>
	<path d="M 97.0,82.0 L 126.0,82.0 L 148.0,86.0 L 171.0,94.0 L 187.0,102.0 L 189.0,103.0 L 190.0,107.0 L 190.0,125.0 L 184.0,123.0 L 165.0,115.0 L 143.0,109.0 L 129.0,107.0 L 109.0,106.0 L 102.0,95.0 L 97.0,84.0 L 97.0,82.0" fill="#FAFAFA"/>
	<path d="M 51.0,56.0 L 52.0,56.0 L 52.0,80.0 L 55.0,97.0 L 61.0,112.0 L 68.0,125.0 L 76.0,135.0 L 76.0,137.0 L 57.0,148.0 L 52.0,143.0 L 43.0,131.0 L 35.0,115.0 L 31.0,99.0 L 31.0,70.0 L 42.0,61.0 L 51.0,56.0" fill="#FAFAFA"/>
	<path d="M 92.0,55.0 L 117.0,55.0 L 136.0,58.0 L 149.0,61.0 L 163.0,65.0 L 173.0,74.0 L 181.0,84.0 L 185.0,91.0 L 185.0,93.0 L 179.0,91.0 L 164.0,85.0 L 144.0,79.0 L 126.0,76.0 L 94.0,75.0 L 92.0,62.0 L 92.0,55.0" fill="#F8F8F8"/>
	<path d="M 21.0,81.0 L 22.0,81.0 L 23.0,97.0 L 26.0,112.0 L 33.0,128.0 L 40.0,140.0 L 48.0,150.0 L 48.0,152.0 L 31.0,158.0 L 27.0,157.0 L 19.0,147.0 L 13.0,134.0 L 10.0,122.0 L 10.0,107.0 L 14.0,94.0 L 21.0,81.0" fill="#F9F9F9"/>
	<path d="M 182.0,130.0 L 187.0,132.0 L 184.0,141.0 L 178.0,151.0 L 169.0,161.0 L 161.0,168.0 L 147.0,176.0 L 132.0,182.0 L 129.0,181.0 L 143.0,173.0 L 157.0,162.0 L 166.0,153.0 L 177.0,138.0 L 182.0,130.0" fill="#F4F4F4"/>
	<path d="M 93.0,45.0 L 111.0,45.0 L 128.0,48.0 L 135.0,50.0 L 135.0,51.0 L 122.0,50.0 L 115.0,49.0 L 93.0,48.0 L 93.0,45.0" fill="#F1F1F1"/>
	<path d="M 118.0,47.0 L 128.0,48.0 L 135.0,50.0 L 135.0,51.0 L 122.0,50.0 L 115.0,49.0 L 118.0,47.0" fill="#C8C8C8"/>
</svg>
