<?xml version="1.0" ?>
<svg baseProfile="full" height="600px" version="1.1" viewBox="-12.06 -12.06 144.12 144.12" width="600px" xmlns="http://www.w3.org/2000/svg" xmlns:ev="http://www.w3.org/2001/xml-events" xmlns:xlink="http://www.w3.org/1999/xlink">
	<defs/>
	<path d="M 0.0,0.0 L 120.0,0.0 L 120.0,120.0 L 0.0,120.0 L 0.0,0.0" fill="#FCFCFC"/>
	<path d="M 53.0,5.0 L 67.0,5.0 L 77.0,9.0 L 85.0,15.0 L 93.0,24.0 L 99.0,36.0 L 101.0,42.0 L 102.0,50.0 L 102.0,68.0 L 96.0,86.0 L 89.0,96.0 L 80.0,104.0 L 70.0,109.0 L 65.0,110.0 L 54.0,110.0 L 42.0,105.0 L 33.0,98.0 L 25.0,87.0 L 21.0,78.0 L 18.0,67.0 L 18.0,48.0 L 21.0,36.0 L 29.0,21.0 L 38.0,12.0 L 50.0,6.0 L 53.0,5.0" fill="#080808"/>
	<path d="M 68.0,48.0 L 70.0,48.0 L 74.0,58.0 L 77.0,74.0 L 77.0,93.0 L 74.0,98.0 L 69.0,99.0 L 69.0,73.0 L 66.0,58.0 L 65.0,53.0 L 68.0,48.0" fill="#F0F0F0"/>
	<path d="M 27.0,42.0 L 31.0,44.0 L 39.0,50.0 L 49.0,55.0 L 58.0,57.0 L 60.0,60.0 L 60.0,65.0 L 51.0,65.0 L 38.0,60.0 L 26.0,51.0 L 27.0,42.0" fill="#F2F2F2"/>
	<path d="M 76.0,19.0 L 81.0,22.0 L 83.0,25.0 L 70.0,35.0 L 61.0,46.0 L 60.0,48.0 L 53.0,48.0 L 54.0,43.0 L 61.0,32.0 L 70.0,23.0 L 76.0,19.0" fill="#F4F4F4"/>
	<path d="M 26.0,62.0 L 31.0,64.0 L 39.0,69.0 L 51.0,73.0 L 63.0,74.0 L 63.0,81.0 L 49.0,81.0 L 39.0,77.0 L 29.0,71.0 L 26.0,68.0 L 26.0,62.0" fill="#F5F5F5"/>
	<path d="M 78.0,38.0 L 80.0,38.0 L 86.0,52.0 L 88.0,60.0 L 88.0,84.0 L 84.0,88.0 L 82.0,66.0 L 78.0,50.0 L 75.0,44.0 L 76.0,40.0 L 78.0,38.0" fill="#F3F3F3"/>
	<path d="M 32.0,83.0 L 37.0,85.0 L 49.0,89.0 L 62.0,90.0 L 62.0,99.0 L 61.0,101.0 L 54.0,101.0 L 42.0,95.0 L 37.0,90.0 L 32.0,84.0 L 32.0,83.0" fill="#F4F4F4"/>
	<path d="M 60.0,14.0 L 66.0,14.0 L 66.0,17.0 L 56.0,27.0 L 48.0,41.0 L 45.0,45.0 L 41.0,42.0 L 44.0,33.0 L 51.0,22.0 L 58.0,15.0 L 60.0,14.0" fill="#F0F0F0"/>
	<path d="M 86.0,32.0 L 89.0,32.0 L 94.0,44.0 L 95.0,48.0 L 95.0,60.0 L 94.0,60.0 L 90.0,44.0 L 85.0,33.0 L 86.0,32.0" fill="#E1E1E1"/>
	<path d="M 43.0,19.0 L 43.0,22.0 L 37.0,32.0 L 35.0,37.0 L 31.0,34.0 L 33.0,29.0 L 40.0,21.0 L 43.0,19.0" fill="#F1F1F1"/>
	<path d="M 43.0,19.0 L 43.0,22.0 L 39.0,27.0 L 37.0,27.0 L 35.0,28.0 L 37.0,24.0 L 43.0,19.0" fill="#CDCDCD"/>
</svg>
