<?xml version="1.0" ?>
<svg baseProfile="full" height="600px" version="1.1" viewBox="-12.06 -12.06 144.12 144.12" width="600px" xmlns="http://www.w3.org/2000/svg" xmlns:ev="http://www.w3.org/2001/xml-events" xmlns:xlink="http://www.w3.org/1999/xlink">
	<defs/>
	<path d="M 0.0,0.0 L 120.0,0.0 L 120.0,120.0 L 0.0,120.0 L 0.0,0.0" fill="#FCFCFC"/>
	<path d="M 50.0,6.0 L 69.0,6.0 L 84.0,10.0 L 96.0,17.0 L 103.0,24.0 L 109.0,34.0 L 111.0,40.0 L 111.0,53.0 L 106.0,65.0 L 99.0,74.0 L 89.0,81.0 L 78.0,86.0 L 66.0,88.0 L 54.0,88.0 L 42.0,86.0 L 33.0,82.0 L 22.0,75.0 L 15.0,67.0 L 11.0,59.0 L 9.0,52.0 L 9.0,40.0 L 13.0,30.0 L 19.0,22.0 L 28.0,14.0 L 41.0,8.0 L 50.0,6.0" fill="#070707"/>
	<path d="M 59.0,37.0 L 64.0,38.0 L 75.0,46.0 L 82.0,54.0 L 88.0,64.0 L 90.0,71.0 L 85.0,75.0 L 83.0,75.0 L 75.0,59.0 L 66.0,49.0 L 59.0,43.0 L 59.0,37.0" fill="#F2F2F2"/>
	<path d="M 66.0,25.0 L 76.0,29.0 L 87.0,38.0 L 96.0,50.0 L 99.0,56.0 L 98.0,63.0 L 96.0,64.0 L 90.0,53.0 L 82.0,43.0 L 72.0,35.0 L 63.0,30.0 L 66.0,25.0" fill="#F1F1F1"/>
	<path d="M 55.0,13.0 L 66.0,13.0 L 60.0,20.0 L 53.0,32.0 L 50.0,42.0 L 42.0,43.0 L 44.0,31.0 L 49.0,21.0 L 55.0,13.0" fill="#F5F5F5"/>
	<path d="M 51.0,48.0 L 55.0,49.0 L 59.0,53.0 L 48.0,57.0 L 38.0,59.0 L 20.0,59.0 L 18.0,52.0 L 36.0,51.0 L 51.0,48.0" fill="#EDEDED"/>
	<path d="M 63.0,58.0 L 67.0,60.0 L 68.0,63.0 L 52.0,69.0 L 48.0,70.0 L 28.0,70.0 L 26.0,66.0 L 47.0,63.0 L 63.0,58.0" fill="#EFEFEF"/>
	<path d="M 70.0,69.0 L 73.0,70.0 L 75.0,75.0 L 75.0,79.0 L 66.0,81.0 L 51.0,81.0 L 41.0,78.0 L 45.0,76.0 L 61.0,73.0 L 70.0,69.0" fill="#EFEFEF"/>
	<path d="M 75.0,15.0 L 84.0,18.0 L 93.0,25.0 L 100.0,34.0 L 102.0,44.0 L 97.0,39.0 L 90.0,31.0 L 80.0,24.0 L 72.0,20.0 L 74.0,16.0 L 75.0,15.0" fill="#F2F2F2"/>
	<path d="M 40.0,16.0 L 43.0,17.0 L 36.0,31.0 L 35.0,34.0 L 34.0,45.0 L 27.0,45.0 L 27.0,33.0 L 32.0,21.0 L 40.0,16.0" fill="#EFEFEF"/>
</svg>
