<?xml version="1.0" ?>
<svg baseProfile="full" height="600px" version="1.1" viewBox="-19.296000000000003 -19.296000000000003 230.592 230.592" width="600px" xmlns="http://www.w3.org/2000/svg" xmlns:ev="http://www.w3.org/2001/xml-events" xmlns:xlink="http://www.w3.org/1999/xlink">
	<defs/>
	<path d="M 0.0,0.0 L 192.0,0.0 L 192.0,192.0 L 0.0,192.0 L 0.0,0.0" fill="#FDFEFE"/>
	<path d="M 103.0,24.0 L 104.0,24.0 L 104.0,168.0 L 96.0,162.0 L 81.0,149.0 L 70.0,140.0 L 57.0,129.0 L 25.0,128.0 L 21.0,125.0 L 20.0,122.0 L 20.0,69.0 L 25.0,64.0 L 57.0,63.0 L 67.0,54.0 L 78.0,45.0 L 91.0,34.0 L 102.0,25.0 L 103.0,24.0" fill="#78909B"/>
	<path d="M 25.0,64.0 L 56.0,64.0 L 56.0,128.0 L 25.0,128.0 L 21.0,125.0 L 20.0,122.0 L 20.0,69.0 L 25.0,64.0" fill="#556E7A"/>
	<path d="M 112.0,52.0 L 125.0,56.0 L 135.0,63.0 L 135.0,65.0 L 137.0,65.0 L 144.0,75.0 L 147.0,82.0 L 148.0,87.0 L 148.0,106.0 L 143.0,119.0 L 135.0,129.0 L 125.0,136.0 L 114.0,140.0 L 112.0,140.0 L 112.0,131.0 L 122.0,127.0 L 130.0,121.0 L 135.0,115.0 L 139.0,105.0 L 139.0,88.0 L 136.0,79.0 L 130.0,71.0 L 124.0,66.0 L 115.0,62.0 L 112.0,61.0 L 112.0,52.0" fill="#54C5F7"/>
	<path d="M 112.0,69.0 L 118.0,71.0 L 127.0,79.0 L 131.0,86.0 L 132.0,91.0 L 132.0,100.0 L 129.0,110.0 L 121.0,119.0 L 113.0,123.0 L 112.0,123.0 L 112.0,114.0 L 119.0,109.0 L 123.0,101.0 L 123.0,91.0 L 119.0,83.0 L 112.0,78.0 L 112.0,69.0" fill="#0AACF4"/>
	<path d="M 139.0,120.0 L 141.0,122.0 L 135.0,129.0 L 132.0,128.0 L 138.0,121.0 L 139.0,120.0" fill="#5DC8F8"/>
</svg>
