<?xml version="1.0" ?>
<svg baseProfile="full" height="600px" version="1.1" viewBox="-19.296000000000003 -19.296000000000003 230.592 230.592" width="600px" xmlns="http://www.w3.org/2000/svg" xmlns:ev="http://www.w3.org/2001/xml-events" xmlns:xlink="http://www.w3.org/1999/xlink">
	<defs/>
	<path d="M 0.0,0.0 L 192.0,0.0 L 192.0,192.0 L 0.0,192.0 L 0.0,0.0" fill="#FDFDFE"/>
	<path d="M 103.0,24.0 L 104.0,24.0 L 104.0,168.0 L 96.0,162.0 L 81.0,149.0 L 70.0,140.0 L 57.0,129.0 L 25.0,128.0 L 21.0,125.0 L 20.0,122.0 L 20.0,69.0 L 25.0,64.0 L 57.0,63.0 L 67.0,54.0 L 78.0,45.0 L 91.0,34.0 L 102.0,25.0 L 103.0,24.0" fill="#78909B"/>
	<path d="M 25.0,64.0 L 56.0,64.0 L 56.0,128.0 L 25.0,128.0 L 21.0,125.0 L 20.0,122.0 L 20.0,69.0 L 25.0,64.0" fill="#556E7A"/>
	<path d="M 112.0,32.0 L 125.0,34.0 L 139.0,41.0 L 149.0,49.0 L 157.0,58.0 L 163.0,68.0 L 166.0,75.0 L 169.0,88.0 L 169.0,101.0 L 166.0,116.0 L 161.0,127.0 L 154.0,138.0 L 146.0,146.0 L 134.0,154.0 L 121.0,159.0 L 112.0,160.0 L 112.0,152.0 L 125.0,148.0 L 135.0,143.0 L 145.0,135.0 L 152.0,125.0 L 156.0,117.0 L 159.0,107.0 L 159.0,84.0 L 154.0,70.0 L 147.0,60.0 L 142.0,55.0 L 135.0,49.0 L 125.0,44.0 L 112.0,40.0 L 112.0,32.0" fill="#85D6FA"/>
	<path d="M 112.0,49.0 L 119.0,50.0 L 133.0,57.0 L 143.0,67.0 L 149.0,78.0 L 151.0,83.0 L 152.0,91.0 L 152.0,102.0 L 150.0,111.0 L 143.0,125.0 L 133.0,135.0 L 117.0,143.0 L 112.0,143.0 L 112.0,135.0 L 126.0,129.0 L 135.0,121.0 L 141.0,109.0 L 143.0,101.0 L 143.0,88.0 L 139.0,78.0 L 133.0,69.0 L 126.0,63.0 L 118.0,59.0 L 112.0,57.0 L 112.0,49.0" fill="#54C5F7"/>
	<path d="M 112.0,69.0 L 118.0,71.0 L 127.0,79.0 L 131.0,86.0 L 132.0,91.0 L 132.0,101.0 L 129.0,110.0 L 121.0,119.0 L 113.0,123.0 L 112.0,123.0 L 112.0,114.0 L 119.0,109.0 L 123.0,101.0 L 123.0,91.0 L 119.0,83.0 L 112.0,78.0 L 112.0,69.0" fill="#0BACF4"/>
</svg>
