<?xml version="1.0" ?>
<svg baseProfile="full" height="600px" version="1.1" viewBox="-19.296000000000003 -19.296000000000003 230.592 230.592" width="600px" xmlns="http://www.w3.org/2000/svg" xmlns:ev="http://www.w3.org/2001/xml-events" xmlns:xlink="http://www.w3.org/1999/xlink">
	<defs/>
	<path d="M 0.0,0.0 L 192.0,0.0 L 192.0,192.0 L 0.0,192.0 L 0.0,0.0" fill="#FDFDFE"/>
	<path d="M 103.0,24.0 L 104.0,24.0 L 104.0,168.0 L 96.0,162.0 L 81.0,149.0 L 70.0,140.0 L 57.0,129.0 L 25.0,128.0 L 21.0,125.0 L 20.0,122.0 L 20.0,69.0 L 25.0,64.0 L 57.0,63.0 L 67.0,54.0 L 78.0,45.0 L 91.0,34.0 L 102.0,25.0 L 103.0,24.0" fill="#78909B"/>
	<path d="M 25.0,64.0 L 56.0,64.0 L 56.0,128.0 L 25.0,128.0 L 21.0,125.0 L 20.0,122.0 L 20.0,69.0 L 25.0,64.0" fill="#556E7A"/>
	<path d="M 112.0,28.0 L 121.0,29.0 L 133.0,33.0 L 145.0,40.0 L 157.0,51.0 L 166.0,65.0 L 171.0,78.0 L 173.0,86.0 L 173.0,105.0 L 169.0,120.0 L 162.0,134.0 L 154.0,144.0 L 145.0,152.0 L 131.0,160.0 L 118.0,164.0 L 112.0,164.0 L 112.0,156.0 L 129.0,151.0 L 141.0,144.0 L 146.0,139.0 L 148.0,139.0 L 150.0,135.0 L 157.0,125.0 L 163.0,109.0 L 164.0,104.0 L 164.0,87.0 L 159.0,71.0 L 152.0,59.0 L 141.0,48.0 L 129.0,41.0 L 116.0,37.0 L 112.0,36.0 L 112.0,28.0" fill="#84D5FA"/>
	<path d="M 112.0,49.0 L 119.0,50.0 L 133.0,57.0 L 143.0,67.0 L 149.0,78.0 L 151.0,83.0 L 152.0,91.0 L 152.0,102.0 L 150.0,111.0 L 143.0,125.0 L 133.0,135.0 L 117.0,143.0 L 112.0,143.0 L 112.0,135.0 L 126.0,129.0 L 135.0,121.0 L 141.0,109.0 L 143.0,101.0 L 143.0,88.0 L 139.0,78.0 L 133.0,69.0 L 126.0,63.0 L 118.0,59.0 L 112.0,57.0 L 112.0,49.0" fill="#54C5F7"/>
	<path d="M 112.0,69.0 L 118.0,71.0 L 127.0,79.0 L 131.0,86.0 L 132.0,91.0 L 132.0,101.0 L 129.0,110.0 L 121.0,119.0 L 113.0,123.0 L 112.0,123.0 L 112.0,114.0 L 119.0,109.0 L 123.0,101.0 L 123.0,91.0 L 119.0,83.0 L 112.0,78.0 L 112.0,69.0" fill="#0BACF4"/>
</svg>
