<?xml version="1.0" ?>
<svg baseProfile="full" height="600px" version="1.1" viewBox="-12.06 -12.06 144.12 144.12" width="600px" xmlns="http://www.w3.org/2000/svg" xmlns:ev="http://www.w3.org/2001/xml-events" xmlns:xlink="http://www.w3.org/1999/xlink">
	<defs/>
	<path d="M 0.0,0.0 L 120.0,0.0 L 120.0,120.0 L 0.0,120.0 L 0.0,0.0" fill="#FBFBFB"/>
	<path d="M 51.0,12.0 L 69.0,12.0 L 82.0,17.0 L 91.0,23.0 L 99.0,31.0 L 105.0,42.0 L 108.0,51.0 L 108.0,66.0 L 106.0,75.0 L 99.0,89.0 L 89.0,99.0 L 80.0,104.0 L 76.0,103.0 L 70.0,100.0 L 70.0,98.0 L 82.0,93.0 L 91.0,85.0 L 97.0,73.0 L 99.0,65.0 L 99.0,52.0 L 94.0,40.0 L 88.0,32.0 L 80.0,26.0 L 70.0,22.0 L 66.0,21.0 L 54.0,21.0 L 44.0,24.0 L 34.0,30.0 L 27.0,38.0 L 22.0,49.0 L 21.0,54.0 L 21.0,66.0 L 24.0,76.0 L 30.0,86.0 L 38.0,93.0 L 50.0,99.0 L 45.0,103.0 L 40.0,104.0 L 30.0,98.0 L 21.0,89.0 L 13.0,73.0 L 12.0,69.0 L 12.0,51.0 L 16.0,40.0 L 22.0,30.0 L 31.0,21.0 L 47.0,13.0 L 51.0,12.0" fill="#080808"/>
	<path d="M 56.0,76.0 L 63.0,76.0 L 71.0,80.0 L 74.0,84.0 L 74.0,89.0 L 66.0,92.0 L 52.0,92.0 L 47.0,89.0 L 46.0,84.0 L 50.0,79.0 L 56.0,76.0" fill="#070707"/>
	<path d="M 54.0,110.0 L 65.0,110.0 L 70.0,113.0 L 74.0,118.0 L 74.0,120.0 L 46.0,120.0 L 47.0,116.0 L 52.0,111.0 L 54.0,110.0" fill="#040404"/>
	<path d="M 70.0,52.0 L 86.0,52.0 L 88.0,54.0 L 87.0,59.0 L 86.0,60.0 L 70.0,60.0 L 68.0,58.0 L 69.0,53.0 L 70.0,52.0" fill="#040404"/>
	<path d="M 34.0,52.0 L 50.0,52.0 L 52.0,54.0 L 51.0,59.0 L 50.0,60.0 L 34.0,60.0 L 32.0,58.0 L 33.0,53.0 L 34.0,52.0" fill="#040404"/>
</svg>
