<?xml version="1.0" ?>
<svg baseProfile="full" height="600px" version="1.1" viewBox="-20.1 -20.1 240.2 240.2" width="600px" xmlns="http://www.w3.org/2000/svg" xmlns:ev="http://www.w3.org/2001/xml-events" xmlns:xlink="http://www.w3.org/1999/xlink">
	<defs/>
	<path d="M 0.0,0.0 L 200.0,0.0 L 200.0,200.0 L 0.0,200.0 L 0.0,0.0" fill="#F7F7F7"/>
	<path d="M 0.0,0.0 L 200.0,0.0 L 200.0,200.0 L 0.0,200.0 L 0.0,0.0 M 90.0,19.0 L 76.0,22.0 L 64.0,27.0 L 57.0,31.0 L 52.0,30.0 L 44.0,23.0 L 41.0,22.0 L 32.0,22.0 L 25.0,27.0 L 22.0,32.0 L 22.0,41.0 L 25.0,47.0 L 31.0,53.0 L 30.0,58.0 L 23.0,73.0 L 19.0,89.0 L 19.0,110.0 L 23.0,126.0 L 28.0,138.0 L 31.0,143.0 L 30.0,148.0 L 23.0,156.0 L 22.0,158.0 L 22.0,167.0 L 26.0,174.0 L 32.0,178.0 L 41.0,178.0 L 47.0,175.0 L 53.0,169.0 L 58.0,170.0 L 73.0,177.0 L 83.0,180.0 L 90.0,181.0 L 109.0,181.0 L 123.0,178.0 L 136.0,173.0 L 143.0,169.0 L 148.0,170.0 L 156.0,177.0 L 158.0,178.0 L 168.0,178.0 L 175.0,173.0 L 178.0,168.0 L 178.0,158.0 L 174.0,152.0 L 169.0,147.0 L 170.0,142.0 L 176.0,129.0 L 180.0,116.0 L 181.0,109.0 L 181.0,90.0 L 178.0,76.0 L 173.0,64.0 L 169.0,57.0 L 170.0,52.0 L 177.0,44.0 L 178.0,41.0 L 178.0,32.0 L 173.0,25.0 L 168.0,22.0 L 158.0,22.0 L 152.0,26.0 L 147.0,31.0 L 142.0,30.0 L 129.0,24.0 L 116.0,20.0 L 110.0,19.0 L 90.0,19.0" fill="#FCFCFC"/>
	<path d="M 90.0,42.0 L 110.0,42.0 L 123.0,46.0 L 131.0,50.0 L 140.0,57.0 L 149.0,67.0 L 156.0,81.0 L 158.0,90.0 L 158.0,110.0 L 153.0,126.0 L 145.0,138.0 L 137.0,146.0 L 126.0,153.0 L 110.0,158.0 L 90.0,158.0 L 79.0,155.0 L 67.0,149.0 L 55.0,138.0 L 48.0,128.0 L 43.0,114.0 L 42.0,110.0 L 42.0,90.0 L 45.0,79.0 L 50.0,69.0 L 57.0,60.0 L 66.0,52.0 L 74.0,47.0 L 81.0,44.0 L 90.0,42.0" fill="#FBFBFB"/>
	<path d="M 90.0,19.0 L 110.0,19.0 L 126.0,23.0 L 138.0,28.0 L 143.0,31.0 L 148.0,30.0 L 156.0,23.0 L 158.0,22.0 L 168.0,22.0 L 175.0,27.0 L 178.0,32.0 L 178.0,41.0 L 175.0,47.0 L 169.0,53.0 L 170.0,58.0 L 177.0,73.0 L 180.0,83.0 L 181.0,90.0 L 181.0,109.0 L 179.0,121.0 L 173.0,136.0 L 169.0,143.0 L 170.0,148.0 L 177.0,156.0 L 178.0,158.0 L 178.0,168.0 L 173.0,175.0 L 168.0,178.0 L 158.0,178.0 L 152.0,174.0 L 147.0,169.0 L 142.0,170.0 L 129.0,176.0 L 116.0,180.0 L 109.0,181.0 L 90.0,181.0 L 76.0,178.0 L 64.0,173.0 L 57.0,169.0 L 52.0,170.0 L 44.0,177.0 L 41.0,178.0 L 32.0,178.0 L 25.0,173.0 L 22.0,167.0 L 22.0,158.0 L 26.0,152.0 L 31.0,147.0 L 30.0,142.0 L 24.0,129.0 L 20.0,116.0 L 19.0,110.0 L 19.0,89.0 L 23.0,73.0 L 31.0,57.0 L 30.0,52.0 L 23.0,44.0 L 22.0,41.0 L 22.0,32.0 L 27.0,25.0 L 32.0,22.0 L 41.0,22.0 L 47.0,25.0 L 53.0,31.0 L 58.0,30.0 L 73.0,23.0 L 83.0,20.0 L 90.0,19.0 M 88.0,27.0 L 71.0,32.0 L 57.0,40.0 L 53.0,42.0 L 41.0,30.0 L 34.0,30.0 L 30.0,34.0 L 30.0,41.0 L 42.0,53.0 L 40.0,57.0 L 32.0,71.0 L 27.0,88.0 L 27.0,109.0 L 29.0,119.0 L 35.0,135.0 L 42.0,145.0 L 40.0,149.0 L 30.0,159.0 L 30.0,166.0 L 34.0,170.0 L 41.0,170.0 L 53.0,158.0 L 57.0,160.0 L 69.0,167.0 L 88.0,173.0 L 112.0,173.0 L 128.0,168.0 L 140.0,162.0 L 145.0,158.0 L 149.0,160.0 L 159.0,170.0 L 166.0,170.0 L 170.0,166.0 L 170.0,159.0 L 158.0,147.0 L 160.0,143.0 L 166.0,133.0 L 171.0,119.0 L 173.0,109.0 L 173.0,88.0 L 167.0,69.0 L 159.0,56.0 L 159.0,52.0 L 170.0,41.0 L 170.0,34.0 L 166.0,30.0 L 159.0,30.0 L 147.0,42.0 L 143.0,40.0 L 133.0,34.0 L 116.0,28.0 L 109.0,27.0 L 88.0,27.0" fill="#090909"/>
	<path d="M 93.0,68.0 L 107.0,68.0 L 121.0,75.0 L 127.0,82.0 L 131.0,90.0 L 132.0,93.0 L 132.0,104.0 L 129.0,115.0 L 122.0,124.0 L 115.0,129.0 L 107.0,132.0 L 93.0,132.0 L 84.0,128.0 L 76.0,122.0 L 70.0,112.0 L 68.0,105.0 L 68.0,93.0 L 72.0,84.0 L 78.0,76.0 L 87.0,70.0 L 93.0,68.0" fill="#F9F9F9"/>
	<path d="M 88.0,34.0 L 109.0,34.0 L 118.0,36.0 L 129.0,40.0 L 139.0,46.0 L 149.0,55.0 L 157.0,65.0 L 163.0,78.0 L 165.0,84.0 L 166.0,92.0 L 166.0,109.0 L 164.0,118.0 L 159.0,131.0 L 152.0,142.0 L 142.0,152.0 L 131.0,159.0 L 123.0,163.0 L 112.0,166.0 L 88.0,166.0 L 73.0,161.0 L 62.0,155.0 L 50.0,144.0 L 42.0,133.0 L 37.0,122.0 L 35.0,116.0 L 34.0,109.0 L 34.0,88.0 L 38.0,75.0 L 45.0,62.0 L 56.0,50.0 L 67.0,42.0 L 77.0,37.0 L 88.0,34.0 M 90.0,42.0 L 79.0,45.0 L 69.0,50.0 L 60.0,57.0 L 52.0,66.0 L 47.0,74.0 L 44.0,81.0 L 42.0,90.0 L 42.0,110.0 L 46.0,123.0 L 50.0,131.0 L 57.0,140.0 L 67.0,149.0 L 81.0,156.0 L 90.0,158.0 L 110.0,158.0 L 126.0,153.0 L 138.0,145.0 L 146.0,137.0 L 153.0,126.0 L 158.0,110.0 L 158.0,90.0 L 155.0,79.0 L 149.0,67.0 L 138.0,55.0 L 128.0,48.0 L 114.0,43.0 L 110.0,42.0 L 90.0,42.0" fill="#080808"/>
	<path d="M 93.0,68.0 L 107.0,68.0 L 121.0,75.0 L 127.0,82.0 L 131.0,90.0 L 132.0,93.0 L 132.0,104.0 L 129.0,115.0 L 122.0,124.0 L 115.0,129.0 L 107.0,132.0 L 93.0,132.0 L 84.0,128.0 L 76.0,122.0 L 70.0,112.0 L 68.0,105.0 L 68.0,93.0 L 72.0,84.0 L 78.0,76.0 L 87.0,70.0 L 93.0,68.0 M 94.0,76.0 L 86.0,80.0 L 78.0,89.0 L 76.0,94.0 L 76.0,105.0 L 81.0,115.0 L 89.0,122.0 L 94.0,124.0 L 105.0,124.0 L 115.0,119.0 L 121.0,112.0 L 124.0,105.0 L 124.0,94.0 L 120.0,86.0 L 112.0,79.0 L 105.0,76.0 L 94.0,76.0" fill="#080808"/>
	<path d="M 96.0,88.0 L 103.0,88.0 L 108.0,91.0 L 112.0,96.0 L 112.0,102.0 L 110.0,104.0 L 105.0,103.0 L 102.0,97.0 L 97.0,98.0 L 95.0,103.0 L 90.0,104.0 L 88.0,102.0 L 88.0,96.0 L 91.0,91.0 L 96.0,88.0" fill="#080808"/>
</svg>
