<?xml version="1.0" ?>
<svg baseProfile="full" height="600px" version="1.1" viewBox="-12.06 -12.06 144.12 144.12" width="600px" xmlns="http://www.w3.org/2000/svg" xmlns:ev="http://www.w3.org/2001/xml-events" xmlns:xlink="http://www.w3.org/1999/xlink">
	<defs/>
	<path d="M 0.0,0.0 L 120.0,0.0 L 120.0,120.0 L 0.0,120.0 L 0.0,0.0" fill="#FDFDFD"/>
	<path d="M 54.0,36.0 L 61.0,36.0 L 66.0,39.0 L 68.0,42.0 L 68.0,50.0 L 66.0,59.0 L 72.0,61.0 L 80.0,66.0 L 80.0,71.0 L 75.0,72.0 L 64.0,67.0 L 63.0,72.0 L 58.0,89.0 L 50.0,105.0 L 47.0,108.0 L 42.0,107.0 L 43.0,98.0 L 46.0,90.0 L 46.0,73.0 L 44.0,69.0 L 44.0,61.0 L 48.0,42.0 L 53.0,37.0 L 54.0,36.0" fill="#070707"/>
	<path d="M 61.0,12.0 L 70.0,13.0 L 75.0,19.0 L 75.0,25.0 L 70.0,31.0 L 68.0,32.0 L 61.0,32.0 L 56.0,28.0 L 55.0,26.0 L 55.0,18.0 L 59.0,13.0 L 61.0,12.0" fill="#070707"/>
	<path d="M 68.0,81.0 L 72.0,85.0 L 72.0,107.0 L 71.0,108.0 L 66.0,108.0 L 64.0,105.0 L 63.0,93.0 L 68.0,81.0" fill="#0B0B0B"/>
	<path d="M 38.0,47.0 L 39.0,47.0 L 38.0,56.0 L 36.0,61.0 L 34.0,63.0 L 29.0,63.0 L 28.0,62.0 L 28.0,57.0 L 38.0,47.0" fill="#0D0D0D"/>
</svg>
