<?xml version="1.0" ?>
<svg baseProfile="full" height="600px" version="1.1" viewBox="-12.06 -12.06 144.12 144.12" width="600px" xmlns="http://www.w3.org/2000/svg" xmlns:ev="http://www.w3.org/2001/xml-events" xmlns:xlink="http://www.w3.org/1999/xlink">
	<defs/>
	<path d="M 0.0,0.0 L 120.0,0.0 L 120.0,120.0 L 0.0,120.0 L 0.0,0.0" fill="#FDFDFD"/>
	<path d="M 54.0,36.0 L 61.0,36.0 L 66.0,39.0 L 68.0,42.0 L 68.0,50.0 L 65.0,65.0 L 66.0,76.0 L 68.0,83.0 L 68.0,89.0 L 57.0,105.0 L 51.0,105.0 L 50.0,104.0 L 50.0,98.0 L 56.0,88.0 L 54.0,83.0 L 45.0,71.0 L 44.0,69.0 L 44.0,61.0 L 48.0,42.0 L 53.0,37.0 L 54.0,36.0" fill="#060606"/>
	<path d="M 62.0,12.0 L 71.0,13.0 L 75.0,18.0 L 75.0,26.0 L 71.0,31.0 L 62.0,32.0 L 56.0,27.0 L 56.0,17.0 L 62.0,12.0" fill="#040404"/>
</svg>
