<?xml version="1.0" ?>
<svg baseProfile="full" height="600px" version="1.1" viewBox="-12.06 -12.06 144.12 144.12" width="600px" xmlns="http://www.w3.org/2000/svg" xmlns:ev="http://www.w3.org/2001/xml-events" xmlns:xlink="http://www.w3.org/1999/xlink">
	<defs/>
	<path d="M 0.0,0.0 L 120.0,0.0 L 120.0,120.0 L 0.0,120.0 L 0.0,0.0" fill="#FDFDFD"/>
	<path d="M 54.0,36.0 L 61.0,36.0 L 66.0,39.0 L 68.0,42.0 L 68.0,50.0 L 65.0,65.0 L 66.0,72.0 L 76.0,101.0 L 76.0,106.0 L 74.0,108.0 L 69.0,107.0 L 60.0,87.0 L 46.0,73.0 L 43.0,69.0 L 41.0,72.0 L 36.0,71.0 L 35.0,70.0 L 36.0,60.0 L 38.0,50.0 L 52.0,37.0 L 54.0,36.0" fill="#070707"/>
	<path d="M 62.0,12.0 L 69.0,12.0 L 75.0,17.0 L 76.0,19.0 L 76.0,25.0 L 71.0,31.0 L 62.0,32.0 L 57.0,28.0 L 56.0,26.0 L 56.0,18.0 L 60.0,13.0 L 62.0,12.0" fill="#070707"/>
	<path d="M 46.0,84.0 L 51.0,89.0 L 53.0,92.0 L 44.0,101.0 L 39.0,105.0 L 34.0,105.0 L 33.0,104.0 L 33.0,99.0 L 45.0,87.0 L 46.0,84.0" fill="#070707"/>
	<path d="M 74.0,56.0 L 82.0,62.0 L 86.0,65.0 L 85.0,71.0 L 78.0,70.0 L 73.0,66.0 L 73.0,59.0 L 74.0,56.0" fill="#0D0D0D"/>
</svg>
