<?xml version="1.0" ?>
<svg baseProfile="full" height="600px" version="1.1" viewBox="-12.06 -12.06 144.12 144.12" width="600px" xmlns="http://www.w3.org/2000/svg" xmlns:ev="http://www.w3.org/2001/xml-events" xmlns:xlink="http://www.w3.org/1999/xlink">
	<defs/>
	<path d="M 0.0,0.0 L 120.0,0.0 L 120.0,120.0 L 0.0,120.0 L 0.0,0.0" fill="#FDFDFD"/>
	<path d="M 54.0,36.0 L 61.0,36.0 L 66.0,39.0 L 68.0,42.0 L 68.0,50.0 L 65.0,65.0 L 62.0,106.0 L 60.0,108.0 L 55.0,108.0 L 53.0,106.0 L 52.0,86.0 L 47.0,74.0 L 44.0,69.0 L 44.0,61.0 L 48.0,42.0 L 53.0,37.0 L 54.0,36.0" fill="#060606"/>
	<path d="M 61.0,12.0 L 69.0,12.0 L 75.0,19.0 L 75.0,25.0 L 72.0,30.0 L 68.0,32.0 L 61.0,32.0 L 56.0,28.0 L 55.0,26.0 L 55.0,18.0 L 59.0,13.0 L 61.0,12.0" fill="#080808"/>
</svg>
