<?xml version="1.0" ?>
<svg baseProfile="full" height="600px" version="1.1" viewBox="-20.1 -20.1 240.2 240.2" width="600px" xmlns="http://www.w3.org/2000/svg" xmlns:ev="http://www.w3.org/2001/xml-events" xmlns:xlink="http://www.w3.org/1999/xlink">
	<defs/>
	<path d="M 0.0,0.0 L 200.0,0.0 L 200.0,200.0 L 0.0,200.0 L 0.0,0.0" fill="#FDFDFD"/>
	<path d="M 89.0,52.0 L 106.0,52.0 L 113.0,55.0 L 119.0,62.0 L 120.0,65.0 L 120.0,73.0 L 115.0,92.0 L 115.0,97.0 L 123.0,104.0 L 125.0,108.0 L 124.0,117.0 L 119.0,122.0 L 111.0,124.0 L 120.0,135.0 L 126.0,156.0 L 128.0,164.0 L 128.0,177.0 L 123.0,183.0 L 118.0,185.0 L 111.0,185.0 L 105.0,181.0 L 102.0,175.0 L 96.0,154.0 L 91.0,164.0 L 79.0,184.0 L 74.0,190.0 L 69.0,192.0 L 61.0,192.0 L 56.0,189.0 L 53.0,186.0 L 52.0,183.0 L 52.0,174.0 L 68.0,148.0 L 71.0,123.0 L 72.0,110.0 L 66.0,113.0 L 57.0,112.0 L 52.0,106.0 L 51.0,104.0 L 51.0,97.0 L 60.0,73.0 L 73.0,63.0 L 82.0,56.0 L 89.0,52.0" fill="#080808"/>
	<path d="M 102.0,8.0 L 113.0,8.0 L 121.0,12.0 L 126.0,18.0 L 128.0,22.0 L 128.0,32.0 L 125.0,39.0 L 120.0,44.0 L 113.0,48.0 L 103.0,48.0 L 94.0,43.0 L 88.0,33.0 L 88.0,22.0 L 93.0,14.0 L 98.0,10.0 L 102.0,8.0" fill="#080808"/>
	<path d="M 83.0,104.0 L 87.0,106.0 L 99.0,115.0 L 98.0,122.0 L 87.0,155.0 L 78.0,170.0 L 70.0,183.0 L 68.0,184.0 L 62.0,184.0 L 60.0,181.0 L 61.0,175.0 L 75.0,152.0 L 77.0,144.0 L 80.0,112.0 L 83.0,104.0" fill="#F8F8F8"/>
	<path d="M 91.0,60.0 L 105.0,60.0 L 110.0,63.0 L 112.0,66.0 L 112.0,74.0 L 107.0,91.0 L 103.0,89.0 L 102.0,86.0 L 101.0,73.0 L 100.0,72.0 L 95.0,72.0 L 95.0,83.0 L 96.0,92.0 L 101.0,97.0 L 116.0,108.0 L 117.0,113.0 L 115.0,115.0 L 110.0,114.0 L 97.0,104.0 L 88.0,97.0 L 87.0,96.0 L 86.0,82.0 L 86.0,64.0 L 91.0,60.0" fill="#F4F4F4"/>
	<path d="M 104.0,129.0 L 109.0,134.0 L 114.0,142.0 L 119.0,163.0 L 120.0,165.0 L 120.0,175.0 L 117.0,177.0 L 112.0,176.0 L 109.0,171.0 L 102.0,144.0 L 100.0,139.0 L 104.0,129.0" fill="#F7F7F7"/>
	<path d="M 104.0,16.0 L 112.0,16.0 L 117.0,19.0 L 120.0,24.0 L 120.0,31.0 L 116.0,37.0 L 111.0,40.0 L 105.0,40.0 L 99.0,36.0 L 96.0,31.0 L 96.0,24.0 L 99.0,19.0 L 104.0,16.0" fill="#F8F8F8"/>
	<path d="M 96.0,52.0 L 106.0,52.0 L 113.0,55.0 L 119.0,62.0 L 120.0,65.0 L 120.0,73.0 L 115.0,92.0 L 114.0,95.0 L 109.0,94.0 L 107.0,91.0 L 108.0,83.0 L 111.0,74.0 L 111.0,66.0 L 107.0,62.0 L 103.0,60.0 L 96.0,59.0 L 96.0,52.0" fill="#060606"/>
	<path d="M 77.0,70.0 L 78.0,70.0 L 78.0,80.0 L 74.0,84.0 L 67.0,103.0 L 65.0,105.0 L 60.0,104.0 L 59.0,99.0 L 66.0,79.0 L 73.0,73.0 L 77.0,70.0" fill="#F3F3F3"/>
</svg>
