<?xml version="1.0" ?>
<svg baseProfile="full" height="600px" version="1.1" viewBox="-12.864 -12.864 153.728 153.728" width="600px" xmlns="http://www.w3.org/2000/svg" xmlns:ev="http://www.w3.org/2001/xml-events" xmlns:xlink="http://www.w3.org/1999/xlink">
	<defs/>
	<path d="M 0.0,0.0 L 128.0,0.0 L 128.0,128.0 L 0.0,128.0 L 0.0,0.0" fill="#FDFDFD"/>
	<path d="M 28.0,20.0 L 99.0,20.0 L 105.0,23.0 L 108.0,28.0 L 108.0,100.0 L 105.0,105.0 L 99.0,108.0 L 28.0,108.0 L 23.0,105.0 L 20.0,99.0 L 20.0,28.0 L 23.0,23.0 L 28.0,20.0" fill="#010101"/>
	<path d="M 28.0,68.0 L 100.0,68.0 L 100.0,80.0 L 72.0,80.0 L 70.0,86.0 L 67.0,88.0 L 61.0,88.0 L 57.0,85.0 L 56.0,80.0 L 28.0,80.0 L 28.0,68.0" fill="#FCFCFC"/>
	<path d="M 28.0,48.0 L 100.0,48.0 L 100.0,60.0 L 28.0,60.0 L 28.0,48.0" fill="#FDFDFD"/>
	<path d="M 30.0,28.0 L 98.0,28.0 L 100.0,30.0 L 100.0,40.0 L 28.0,40.0 L 28.0,30.0 L 30.0,28.0" fill="#FDFDFD"/>
	<path d="M 28.0,88.0 L 50.0,88.0 L 57.0,94.0 L 59.0,95.0 L 69.0,95.0 L 75.0,91.0 L 78.0,88.0 L 100.0,88.0 L 100.0,98.0 L 98.0,100.0 L 30.0,100.0 L 28.0,98.0 L 28.0,88.0" fill="#FCFCFC"/>
</svg>
