<?xml version="1.0" ?>
<svg baseProfile="full" height="600px" version="1.1" viewBox="-9.648000000000001 -9.648000000000001 115.296 115.296" width="600px" xmlns="http://www.w3.org/2000/svg" xmlns:ev="http://www.w3.org/2001/xml-events" xmlns:xlink="http://www.w3.org/1999/xlink">
	<defs/>
	<path d="M 0.0,0.0 L 96.0,0.0 L 96.0,96.0 L 0.0,96.0 L 0.0,0.0" fill="#FDFDFD"/>
	<path d="M 40.0,22.0 L 55.0,22.0 L 65.0,27.0 L 71.0,34.0 L 74.0,41.0 L 74.0,54.0 L 71.0,62.0 L 65.0,69.0 L 56.0,74.0 L 40.0,74.0 L 30.0,68.0 L 24.0,60.0 L 22.0,55.0 L 22.0,40.0 L 27.0,31.0 L 34.0,25.0 L 40.0,22.0" fill="#D1D1D1"/>
	<path d="M 44.0,28.0 L 52.0,28.0 L 52.0,52.0 L 44.0,52.0 L 44.0,28.0" fill="#FDFDFD"/>
	<path d="M 44.0,60.0 L 52.0,60.0 L 52.0,68.0 L 44.0,68.0 L 44.0,60.0" fill="#FDFDFD"/>
</svg>
