<?xml version="1.0" ?>
<svg baseProfile="full" height="600px" version="1.1" viewBox="-20.1 -20.1 240.2 240.2" width="600px" xmlns="http://www.w3.org/2000/svg" xmlns:ev="http://www.w3.org/2001/xml-events" xmlns:xlink="http://www.w3.org/1999/xlink">
	<defs/>
	<path d="M 0.0,0.0 L 200.0,0.0 L 200.0,200.0 L 0.0,200.0 L 0.0,0.0" fill="#FDFDFD"/>
	<path d="M 96.0,16.0 L 101.0,16.0 L 107.0,25.0 L 126.0,57.0 L 143.0,85.0 L 162.0,117.0 L 179.0,145.0 L 198.0,177.0 L 200.0,180.0 L 200.0,188.0 L 179.0,189.0 L 85.0,191.0 L 3.0,191.0 L 2.0,190.0 L 2.0,184.0 L 15.0,161.0 L 31.0,132.0 L 46.0,105.0 L 61.0,78.0 L 77.0,49.0 L 92.0,22.0 L 96.0,16.0" fill="#FBFBFB"/>
	<path d="M 96.0,16.0 L 101.0,16.0 L 107.0,25.0 L 126.0,57.0 L 143.0,85.0 L 162.0,117.0 L 179.0,145.0 L 198.0,177.0 L 200.0,180.0 L 200.0,188.0 L 179.0,189.0 L 85.0,191.0 L 3.0,191.0 L 2.0,190.0 L 2.0,184.0 L 15.0,161.0 L 31.0,132.0 L 46.0,105.0 L 61.0,78.0 L 77.0,49.0 L 92.0,22.0 L 96.0,16.0 M 98.0,28.0 L 82.0,57.0 L 66.0,86.0 L 51.0,113.0 L 36.0,140.0 L 21.0,167.0 L 13.0,181.0 L 13.0,183.0 L 74.0,183.0 L 190.0,181.0 L 188.0,176.0 L 171.0,147.0 L 154.0,119.0 L 135.0,87.0 L 118.0,59.0 L 100.0,29.0 L 98.0,28.0" fill="#070707"/>
	<path d="M 94.0,74.0 L 106.0,74.0 L 107.0,104.0 L 107.0,142.0 L 94.0,142.0 L 93.0,134.0 L 93.0,75.0 L 94.0,74.0" fill="#070707"/>
	<path d="M 94.0,155.0 L 108.0,155.0 L 108.0,169.0 L 107.0,170.0 L 95.0,170.0 L 94.0,169.0 L 94.0,155.0" fill="#060606"/>
</svg>
