<?xml version="1.0" ?>
<svg baseProfile="full" height="600px" version="1.1" viewBox="-9.648000000000001 -9.648000000000001 115.296 115.296" width="600px" xmlns="http://www.w3.org/2000/svg" xmlns:ev="http://www.w3.org/2001/xml-events" xmlns:xlink="http://www.w3.org/1999/xlink">
	<defs/>
	<path d="M 0.0,0.0 L 96.0,0.0 L 96.0,96.0 L 0.0,96.0 L 0.0,0.0" fill="#FCFCFC"/>
	<path d="M 39.0,11.0 L 56.0,11.0 L 66.0,15.0 L 72.0,19.0 L 79.0,26.0 L 84.0,36.0 L 85.0,39.0 L 85.0,57.0 L 80.0,68.0 L 73.0,76.0 L 65.0,82.0 L 57.0,85.0 L 39.0,85.0 L 30.0,81.0 L 24.0,77.0 L 17.0,70.0 L 13.0,62.0 L 11.0,56.0 L 11.0,39.0 L 15.0,29.0 L 24.0,19.0 L 33.0,13.0 L 39.0,11.0" fill="#5E5E5E"/>
	<path d="M 44.0,28.0 L 52.0,28.0 L 52.0,52.0 L 44.0,52.0 L 44.0,28.0" fill="#FDFDFD"/>
	<path d="M 44.0,60.0 L 52.0,60.0 L 52.0,68.0 L 44.0,68.0 L 44.0,60.0" fill="#FDFDFD"/>
</svg>
