<?xml version="1.0" ?>
<svg baseProfile="full" height="600px" version="1.1" viewBox="-9.648000000000001 -9.648000000000001 115.296 115.296" width="600px" xmlns="http://www.w3.org/2000/svg" xmlns:ev="http://www.w3.org/2001/xml-events" xmlns:xlink="http://www.w3.org/1999/xlink">
	<defs/>
	<path d="M 0.0,0.0 L 96.0,0.0 L 96.0,96.0 L 0.0,96.0 L 0.0,0.0" fill="#FCFCFC"/>
	<path d="M 46.0,11.0 L 53.0,12.0 L 65.0,32.0 L 79.0,56.0 L 89.0,73.0 L 89.0,80.0 L 86.0,83.0 L 10.0,83.0 L 6.0,79.0 L 6.0,73.0 L 18.0,53.0 L 31.0,32.0 L 43.0,13.0 L 46.0,11.0" fill="#030303"/>
	<path d="M 44.0,34.0 L 52.0,34.0 L 52.0,56.0 L 44.0,56.0 L 44.0,34.0" fill="#F9F9F9"/>
	<path d="M 43.0,64.0 L 52.0,64.0 L 52.0,73.0 L 43.0,73.0 L 43.0,64.0" fill="#EAEAEA"/>
</svg>
