<?xml version="1.0" ?>
<svg baseProfile="full" height="600px" version="1.1" viewBox="-12.06 -12.06 144.12 144.12" width="600px" xmlns="http://www.w3.org/2000/svg" xmlns:ev="http://www.w3.org/2001/xml-events" xmlns:xlink="http://www.w3.org/1999/xlink">
	<defs/>
	<path d="M 0.0,0.0 L 120.0,0.0 L 120.0,120.0 L 0.0,120.0 L 0.0,0.0" fill="#FCFAFA"/>
	<path d="M 57.0,12.0 L 63.0,12.0 L 68.0,17.0 L 83.0,43.0 L 98.0,69.0 L 112.0,93.0 L 111.0,101.0 L 106.0,104.0 L 13.0,104.0 L 8.0,99.0 L 8.0,93.0 L 20.0,72.0 L 34.0,48.0 L 49.0,22.0 L 55.0,13.0 L 57.0,12.0" fill="#020202"/>
	<path d="M 55.0,45.0 L 65.0,45.0 L 65.0,62.0 L 64.0,71.0 L 56.0,71.0 L 55.0,61.0 L 55.0,45.0" fill="#ECEAEA"/>
	<path d="M 57.0,79.0 L 64.0,80.0 L 65.0,81.0 L 65.0,87.0 L 62.0,89.0 L 57.0,89.0 L 55.0,87.0 L 55.0,81.0 L 57.0,79.0" fill="#ECEBEB"/>
</svg>
