<?xml version="1.0" ?>
<svg baseProfile="full" height="600px" version="1.1" viewBox="-12.06 -12.06 144.12 144.12" width="600px" xmlns="http://www.w3.org/2000/svg" xmlns:ev="http://www.w3.org/2001/xml-events" xmlns:xlink="http://www.w3.org/1999/xlink">
	<defs/>
	<path d="M 0.0,0.0 L 120.0,0.0 L 120.0,120.0 L 0.0,120.0 L 0.0,0.0" fill="#FCFAFA"/>
	<path d="M 57.0,14.0 L 63.0,14.0 L 68.0,19.0 L 81.0,42.0 L 90.0,57.0 L 107.0,86.0 L 112.0,94.0 L 112.0,101.0 L 107.0,106.0 L 13.0,106.0 L 8.0,101.0 L 9.0,94.0 L 23.0,69.0 L 37.0,45.0 L 51.0,20.0 L 55.0,15.0 L 57.0,14.0" fill="#020202"/>
	<path d="M 54.0,43.0 L 65.0,43.0 L 65.0,73.0 L 55.0,73.0 L 54.0,60.0 L 54.0,43.0" fill="#F1EFEF"/>
	<path d="M 57.0,82.0 L 63.0,82.0 L 66.0,84.0 L 66.0,91.0 L 63.0,93.0 L 57.0,93.0 L 55.0,91.0 L 55.0,84.0 L 57.0,82.0" fill="#F3F1F1"/>
</svg>
