<?xml version="1.0" ?>
<svg baseProfile="full" height="600px" version="1.1" viewBox="-16.08 -16.08 192.16 192.16" width="600px" xmlns="http://www.w3.org/2000/svg" xmlns:ev="http://www.w3.org/2001/xml-events" xmlns:xlink="http://www.w3.org/1999/xlink">
	<defs/>
	<path d="M 0.0,0.0 L 160.0,0.0 L 160.0,160.0 L 0.0,160.0 L 0.0,0.0" fill="#FEF7DE"/>
	<path d="M 0.0,0.0 L 160.0,0.0 L 160.0,160.0 L 0.0,160.0 L 0.0,0.0 M 69.0,4.0 L 53.0,8.0 L 36.0,17.0 L 23.0,29.0 L 15.0,39.0 L 8.0,53.0 L 4.0,69.0 L 4.0,92.0 L 9.0,109.0 L 15.0,121.0 L 23.0,131.0 L 32.0,140.0 L 44.0,148.0 L 60.0,154.0 L 68.0,156.0 L 89.0,156.0 L 104.0,153.0 L 114.0,149.0 L 125.0,142.0 L 137.0,131.0 L 144.0,122.0 L 152.0,107.0 L 156.0,91.0 L 156.0,68.0 L 150.0,48.0 L 144.0,38.0 L 137.0,29.0 L 128.0,20.0 L 116.0,12.0 L 100.0,6.0 L 92.0,4.0 L 69.0,4.0" fill="#E7DDC0"/>
	<path d="M 159.0,92.0 L 160.0,92.0 L 160.0,160.0 L 92.0,160.0 L 92.0,159.0 L 102.0,157.0 L 115.0,152.0 L 127.0,145.0 L 137.0,136.0 L 145.0,127.0 L 153.0,113.0 L 158.0,99.0 L 159.0,92.0" fill="#FEFDFC"/>
	<path d="M 93.0,0.0 L 160.0,0.0 L 160.0,67.0 L 159.0,67.0 L 155.0,51.0 L 149.0,39.0 L 141.0,28.0 L 131.0,18.0 L 121.0,11.0 L 106.0,4.0 L 93.0,1.0 L 93.0,0.0" fill="#FEFDFC"/>
	<path d="M 0.0,93.0 L 1.0,93.0 L 4.0,105.0 L 11.0,121.0 L 19.0,132.0 L 30.0,143.0 L 44.0,152.0 L 57.0,157.0 L 67.0,159.0 L 67.0,160.0 L 0.0,160.0 L 0.0,93.0" fill="#FEFDFC"/>
	<path d="M 0.0,0.0 L 66.0,0.0 L 66.0,1.0 L 49.0,6.0 L 39.0,11.0 L 28.0,19.0 L 17.0,30.0 L 9.0,43.0 L 4.0,55.0 L 1.0,66.0 L 0.0,66.0 L 0.0,0.0" fill="#FEFDFC"/>
	<path d="M 72.0,40.0 L 88.0,40.0 L 88.0,88.0 L 72.0,88.0 L 72.0,40.0" fill="#37404D"/>
	<path d="M 77.0,104.0 L 83.0,104.0 L 88.0,109.0 L 88.0,115.0 L 83.0,120.0 L 77.0,120.0 L 72.0,115.0 L 72.0,109.0 L 77.0,104.0" fill="#3E4752"/>
</svg>
