<?xml version="1.0" ?>
<svg baseProfile="full" height="600px" version="1.1" viewBox="-20.1 -20.1 240.2 240.2" width="600px" xmlns="http://www.w3.org/2000/svg" xmlns:ev="http://www.w3.org/2001/xml-events" xmlns:xlink="http://www.w3.org/1999/xlink">
	<defs/>
	<path d="M 0.0,0.0 L 200.0,0.0 L 200.0,200.0 L 0.0,200.0 L 0.0,0.0" fill="#FEFEFE"/>
	<path d="M 92.0,39.0 L 106.0,39.0 L 118.0,41.0 L 134.0,49.0 L 144.0,57.0 L 153.0,69.0 L 159.0,82.0 L 161.0,92.0 L 161.0,106.0 L 159.0,118.0 L 151.0,134.0 L 143.0,144.0 L 131.0,153.0 L 118.0,159.0 L 106.0,161.0 L 92.0,161.0 L 80.0,158.0 L 66.0,151.0 L 56.0,143.0 L 47.0,131.0 L 41.0,118.0 L 39.0,106.0 L 39.0,92.0 L 42.0,80.0 L 49.0,66.0 L 57.0,56.0 L 69.0,47.0 L 82.0,41.0 L 92.0,39.0" fill="#FDFDFD"/>
	<path d="M 92.0,39.0 L 106.0,39.0 L 118.0,41.0 L 134.0,49.0 L 144.0,57.0 L 153.0,69.0 L 159.0,82.0 L 161.0,92.0 L 161.0,106.0 L 159.0,118.0 L 151.0,134.0 L 143.0,144.0 L 131.0,153.0 L 118.0,159.0 L 106.0,161.0 L 92.0,161.0 L 80.0,158.0 L 66.0,151.0 L 56.0,143.0 L 47.0,131.0 L 41.0,118.0 L 39.0,106.0 L 39.0,92.0 L 42.0,80.0 L 49.0,66.0 L 57.0,56.0 L 69.0,47.0 L 82.0,41.0 L 92.0,39.0 M 90.0,45.0 L 77.0,49.0 L 65.0,56.0 L 56.0,65.0 L 48.0,79.0 L 45.0,90.0 L 45.0,110.0 L 49.0,123.0 L 56.0,135.0 L 64.0,143.0 L 75.0,150.0 L 86.0,154.0 L 90.0,155.0 L 110.0,155.0 L 123.0,151.0 L 133.0,145.0 L 143.0,136.0 L 150.0,125.0 L 154.0,114.0 L 155.0,110.0 L 155.0,90.0 L 151.0,77.0 L 144.0,65.0 L 135.0,56.0 L 121.0,48.0 L 110.0,45.0 L 90.0,45.0" fill="#D5D5D5"/>
	<path d="M 94.0,57.0 L 106.0,57.0 L 106.0,114.0 L 94.0,114.0 L 94.0,57.0" fill="#010101"/>
	<path d="M 94.0,129.0 L 106.0,129.0 L 106.0,143.0 L 94.0,143.0 L 94.0,129.0" fill="#070707"/>
</svg>
