<?xml version="1.0" ?>
<svg baseProfile="full" height="600px" version="1.1" viewBox="-9.648000000000001 -9.648000000000001 115.296 115.296" width="600px" xmlns="http://www.w3.org/2000/svg" xmlns:ev="http://www.w3.org/2001/xml-events" xmlns:xlink="http://www.w3.org/1999/xlink">
	<defs/>
	<path d="M 0.0,0.0 L 96.0,0.0 L 96.0,96.0 L 0.0,96.0 L 0.0,0.0" fill="#FDFDFD"/>
	<path d="M 39.0,15.0 L 57.0,15.0 L 69.0,21.0 L 77.0,30.0 L 81.0,39.0 L 81.0,57.0 L 75.0,69.0 L 66.0,77.0 L 57.0,81.0 L 39.0,81.0 L 27.0,75.0 L 19.0,66.0 L 15.0,56.0 L 15.0,39.0 L 21.0,27.0 L 30.0,19.0 L 39.0,15.0" fill="#9B9B9B"/>
	<path d="M 44.0,28.0 L 52.0,28.0 L 52.0,52.0 L 44.0,52.0 L 44.0,28.0" fill="#FDFDFD"/>
	<path d="M 44.0,60.0 L 52.0,60.0 L 52.0,68.0 L 44.0,68.0 L 44.0,60.0" fill="#FDFDFD"/>
</svg>
