<?xml version="1.0" ?>
<svg baseProfile="full" height="600px" version="1.1" viewBox="-20.1 -20.1 240.2 240.2" width="600px" xmlns="http://www.w3.org/2000/svg" xmlns:ev="http://www.w3.org/2001/xml-events" xmlns:xlink="http://www.w3.org/1999/xlink">
	<defs/>
	<path d="M 0.0,0.0 L 200.0,0.0 L 200.0,200.0 L 0.0,200.0 L 0.0,0.0" fill="#FEFEFE"/>
	<path d="M 0.0,0.0 L 200.0,0.0 L 200.0,200.0 L 0.0,200.0 L 0.0,0.0 M 90.0,2.0 L 76.0,5.0 L 63.0,9.0 L 46.0,18.0 L 36.0,26.0 L 27.0,34.0 L 16.0,49.0 L 7.0,68.0 L 3.0,83.0 L 2.0,90.0 L 2.0,107.0 L 5.0,124.0 L 10.0,139.0 L 18.0,154.0 L 26.0,164.0 L 33.0,172.0 L 46.0,182.0 L 63.0,191.0 L 79.0,196.0 L 90.0,198.0 L 107.0,198.0 L 124.0,195.0 L 139.0,190.0 L 154.0,182.0 L 164.0,174.0 L 172.0,167.0 L 182.0,154.0 L 191.0,137.0 L 196.0,121.0 L 198.0,107.0 L 198.0,90.0 L 195.0,76.0 L 191.0,63.0 L 182.0,46.0 L 174.0,36.0 L 167.0,28.0 L 154.0,18.0 L 137.0,9.0 L 121.0,4.0 L 107.0,2.0 L 90.0,2.0" fill="#FEFEFE"/>
	<path d="M 90.0,2.0 L 107.0,2.0 L 124.0,5.0 L 139.0,10.0 L 154.0,18.0 L 164.0,26.0 L 172.0,33.0 L 182.0,46.0 L 191.0,63.0 L 196.0,79.0 L 198.0,90.0 L 198.0,107.0 L 195.0,124.0 L 190.0,139.0 L 182.0,154.0 L 174.0,164.0 L 167.0,172.0 L 154.0,182.0 L 137.0,191.0 L 121.0,196.0 L 107.0,198.0 L 90.0,198.0 L 76.0,195.0 L 63.0,191.0 L 46.0,182.0 L 36.0,174.0 L 28.0,167.0 L 18.0,154.0 L 9.0,137.0 L 4.0,121.0 L 2.0,107.0 L 2.0,90.0 L 5.0,76.0 L 9.0,63.0 L 18.0,46.0 L 29.0,32.0 L 39.0,23.0 L 53.0,14.0 L 68.0,7.0 L 83.0,3.0 L 90.0,2.0 M 89.0,11.0 L 71.0,15.0 L 54.0,23.0 L 42.0,32.0 L 30.0,44.0 L 21.0,58.0 L 14.0,74.0 L 11.0,89.0 L 11.0,112.0 L 15.0,128.0 L 22.0,144.0 L 31.0,157.0 L 44.0,170.0 L 58.0,179.0 L 74.0,186.0 L 89.0,189.0 L 112.0,189.0 L 128.0,185.0 L 144.0,178.0 L 157.0,169.0 L 170.0,156.0 L 179.0,142.0 L 186.0,126.0 L 189.0,112.0 L 189.0,89.0 L 185.0,71.0 L 177.0,54.0 L 168.0,42.0 L 156.0,30.0 L 142.0,21.0 L 126.0,14.0 L 112.0,11.0 L 89.0,11.0" fill="#A9A9A9"/>
	<path d="M 94.0,57.0 L 106.0,57.0 L 106.0,114.0 L 94.0,114.0 L 94.0,57.0" fill="#010101"/>
	<path d="M 94.0,129.0 L 106.0,129.0 L 106.0,143.0 L 94.0,143.0 L 94.0,129.0" fill="#070707"/>
</svg>
