<?xml version="1.0" ?>
<svg baseProfile="full" height="600px" version="1.1" viewBox="-9.648000000000001 -9.648000000000001 115.296 115.296" width="600px" xmlns="http://www.w3.org/2000/svg" xmlns:ev="http://www.w3.org/2001/xml-events" xmlns:xlink="http://www.w3.org/1999/xlink">
	<defs/>
	<path d="M 0.0,0.0 L 96.0,0.0 L 96.0,96.0 L 0.0,96.0 L 0.0,0.0" fill="#FCFCFC"/>
	<path d="M 45.0,13.0 L 52.0,14.0 L 62.0,29.0 L 74.0,49.0 L 83.0,63.0 L 90.0,74.0 L 90.0,81.0 L 85.0,85.0 L 10.0,85.0 L 7.0,82.0 L 7.0,75.0 L 21.0,51.0 L 36.0,25.0 L 42.0,15.0 L 45.0,13.0" fill="#040404"/>
	<path d="M 44.0,36.0 L 52.0,36.0 L 52.0,57.0 L 44.0,57.0 L 44.0,36.0" fill="#FAFAFA"/>
	<path d="M 44.0,66.0 L 52.0,66.0 L 52.0,74.0 L 44.0,74.0 L 44.0,66.0" fill="#FAFAFA"/>
</svg>
