<?xml version="1.0" ?>
<svg baseProfile="full" height="600px" version="1.1" viewBox="-16.08 -16.08 192.16 192.16" width="600px" xmlns="http://www.w3.org/2000/svg" xmlns:ev="http://www.w3.org/2001/xml-events" xmlns:xlink="http://www.w3.org/1999/xlink">
	<defs/>
	<path d="M 0.0,0.0 L 160.0,0.0 L 160.0,160.0 L 0.0,160.0 L 0.0,0.0" fill="#FEFDFD"/>
	<path d="M 72.0,16.0 L 87.0,16.0 L 103.0,20.0 L 116.0,27.0 L 127.0,36.0 L 135.0,47.0 L 140.0,57.0 L 143.0,66.0 L 144.0,73.0 L 144.0,86.0 L 141.0,101.0 L 133.0,116.0 L 125.0,126.0 L 113.0,135.0 L 102.0,140.0 L 88.0,144.0 L 73.0,144.0 L 63.0,142.0 L 50.0,137.0 L 36.0,127.0 L 29.0,119.0 L 23.0,109.0 L 18.0,97.0 L 16.0,85.0 L 16.0,72.0 L 21.0,55.0 L 27.0,44.0 L 34.0,35.0 L 44.0,27.0 L 55.0,21.0 L 64.0,18.0 L 72.0,16.0" fill="#FDF6DB"/>
	<path d="M 72.0,16.0 L 87.0,16.0 L 103.0,20.0 L 116.0,27.0 L 127.0,36.0 L 135.0,47.0 L 140.0,57.0 L 143.0,66.0 L 144.0,73.0 L 144.0,86.0 L 141.0,101.0 L 133.0,116.0 L 125.0,126.0 L 113.0,135.0 L 102.0,140.0 L 88.0,144.0 L 73.0,144.0 L 63.0,142.0 L 50.0,137.0 L 36.0,127.0 L 29.0,119.0 L 23.0,109.0 L 18.0,97.0 L 16.0,85.0 L 16.0,72.0 L 21.0,55.0 L 27.0,44.0 L 34.0,35.0 L 44.0,27.0 L 55.0,21.0 L 64.0,18.0 L 72.0,16.0 M 69.0,20.0 L 54.0,25.0 L 44.0,31.0 L 35.0,39.0 L 26.0,52.0 L 20.0,69.0 L 20.0,88.0 L 22.0,98.0 L 26.0,108.0 L 34.0,120.0 L 41.0,127.0 L 52.0,134.0 L 65.0,139.0 L 72.0,140.0 L 90.0,140.0 L 108.0,134.0 L 118.0,127.0 L 124.0,122.0 L 130.0,115.0 L 136.0,103.0 L 139.0,94.0 L 140.0,89.0 L 140.0,72.0 L 138.0,62.0 L 134.0,52.0 L 128.0,43.0 L 120.0,34.0 L 106.0,25.0 L 95.0,21.0 L 88.0,20.0 L 69.0,20.0" fill="#E5D9BA"/>
	<path d="M 72.0,40.0 L 88.0,40.0 L 88.0,88.0 L 72.0,88.0 L 72.0,40.0" fill="#37404D"/>
	<path d="M 77.0,104.0 L 83.0,104.0 L 88.0,109.0 L 87.0,117.0 L 82.0,120.0 L 75.0,119.0 L 72.0,115.0 L 72.0,109.0 L 77.0,104.0" fill="#3E4752"/>
	<path d="M 72.0,16.0 L 87.0,16.0 L 92.0,17.0 L 92.0,20.0 L 88.0,21.0 L 86.0,19.0 L 86.0,18.0 L 72.0,17.0 L 72.0,16.0" fill="#EAE1C7"/>
	<path d="M 17.0,67.0 L 18.0,69.0 L 20.0,69.0 L 20.0,73.0 L 17.0,73.0 L 17.0,85.0 L 16.0,85.0 L 16.0,72.0 L 17.0,67.0" fill="#E9E0C7"/>
</svg>
