<?xml version="1.0" ?>
<svg baseProfile="full" height="600px" version="1.1" viewBox="-19.296000000000003 -19.296000000000003 230.592 230.592" width="600px" xmlns="http://www.w3.org/2000/svg" xmlns:ev="http://www.w3.org/2001/xml-events" xmlns:xlink="http://www.w3.org/1999/xlink">
	<defs/>
	<path d="M 0.0,0.0 L 192.0,0.0 L 192.0,192.0 L 0.0,192.0 L 0.0,0.0" fill="#FFFEFD"/>
	<path d="M 93.0,29.0 L 100.0,30.0 L 107.0,40.0 L 123.0,68.0 L 138.0,93.0 L 153.0,119.0 L 169.0,146.0 L 168.0,153.0 L 163.0,157.0 L 70.0,158.0 L 29.0,158.0 L 25.0,154.0 L 25.0,146.0 L 39.0,121.0 L 54.0,94.0 L 69.0,67.0 L 84.0,40.0 L 90.0,31.0 L 93.0,29.0" fill="#FDC009"/>
	<path d="M 87.0,66.0 L 104.0,66.0 L 104.0,120.0 L 90.0,120.0 L 89.0,114.0 L 87.0,76.0 L 87.0,66.0" fill="#654634"/>
	<path d="M 93.0,130.0 L 101.0,130.0 L 106.0,135.0 L 106.0,141.0 L 102.0,146.0 L 100.0,147.0 L 94.0,147.0 L 89.0,143.0 L 88.0,141.0 L 88.0,135.0 L 93.0,130.0" fill="#644634"/>
</svg>
