<?xml version="1.0" ?>
<svg baseProfile="full" height="600px" version="1.1" viewBox="-19.296000000000003 -19.296000000000003 230.592 230.592" width="600px" xmlns="http://www.w3.org/2000/svg" xmlns:ev="http://www.w3.org/2001/xml-events" xmlns:xlink="http://www.w3.org/1999/xlink">
	<defs/>
	<path d="M 0.0,0.0 L 192.0,0.0 L 192.0,192.0 L 0.0,192.0 L 0.0,0.0" fill="#FFFEFD"/>
	<path d="M 94.0,29.0 L 101.0,30.0 L 105.0,35.0 L 120.0,62.0 L 135.0,89.0 L 150.0,116.0 L 165.0,143.0 L 167.0,146.0 L 167.0,153.0 L 162.0,158.0 L 101.0,158.0 L 29.0,157.0 L 24.0,153.0 L 23.0,146.0 L 38.0,120.0 L 47.0,105.0 L 64.0,76.0 L 81.0,47.0 L 91.0,31.0 L 94.0,29.0" fill="#FDC00A"/>
	<path d="M 88.0,65.0 L 105.0,65.0 L 105.0,85.0 L 103.0,115.0 L 102.0,121.0 L 88.0,121.0 L 88.0,65.0" fill="#614335"/>
	<path d="M 90.0,132.0 L 99.0,132.0 L 104.0,137.0 L 104.0,144.0 L 100.0,148.0 L 98.0,149.0 L 91.0,149.0 L 86.0,144.0 L 86.0,136.0 L 90.0,132.0" fill="#614335"/>
</svg>
