<?xml version="1.0" ?>
<svg baseProfile="full" height="600px" version="1.1" viewBox="-19.296000000000003 -19.296000000000003 230.592 230.592" width="600px" xmlns="http://www.w3.org/2000/svg" xmlns:ev="http://www.w3.org/2001/xml-events" xmlns:xlink="http://www.w3.org/1999/xlink">
	<defs/>
	<path d="M 0.0,0.0 L 192.0,0.0 L 192.0,192.0 L 0.0,192.0 L 0.0,0.0" fill="#FFFEFD"/>
	<path d="M 98.0,39.0 L 105.0,40.0 L 113.0,55.0 L 128.0,88.0 L 142.0,118.0 L 154.0,144.0 L 156.0,149.0 L 155.0,155.0 L 151.0,158.0 L 141.0,158.0 L 110.0,155.0 L 75.0,152.0 L 38.0,149.0 L 30.0,147.0 L 28.0,144.0 L 28.0,137.0 L 38.0,123.0 L 49.0,107.0 L 65.0,84.0 L 81.0,61.0 L 92.0,45.0 L 96.0,40.0 L 98.0,39.0" fill="#FDC00A"/>
	<path d="M 91.0,76.0 L 104.0,77.0 L 103.0,87.0 L 100.0,112.0 L 99.0,116.0 L 90.0,115.0 L 90.0,90.0 L 91.0,76.0" fill="#634435"/>
	<path d="M 90.0,123.0 L 96.0,123.0 L 100.0,127.0 L 99.0,133.0 L 96.0,135.0 L 90.0,135.0 L 87.0,132.0 L 87.0,126.0 L 90.0,123.0" fill="#644535"/>
</svg>
