<?xml version="1.0" ?>
<svg baseProfile="full" height="600px" version="1.1" viewBox="-16.08 -16.08 192.16 192.16" width="600px" xmlns="http://www.w3.org/2000/svg" xmlns:ev="http://www.w3.org/2001/xml-events" xmlns:xlink="http://www.w3.org/1999/xlink">
	<defs/>
	<path d="M 0.0,0.0 L 160.0,0.0 L 160.0,160.0 L 0.0,160.0 L 0.0,0.0" fill="#FDECA2"/>
	<path d="M 0.0,0.0 L 160.0,0.0 L 160.0,160.0 L 0.0,160.0 L 0.0,0.0 M 70.0,4.0 L 54.0,8.0 L 38.0,16.0 L 28.0,24.0 L 21.0,31.0 L 12.0,45.0 L 7.0,57.0 L 4.0,70.0 L 4.0,91.0 L 9.0,108.0 L 16.0,122.0 L 25.0,133.0 L 35.0,142.0 L 49.0,150.0 L 64.0,155.0 L 69.0,156.0 L 88.0,156.0 L 103.0,153.0 L 119.0,146.0 L 131.0,137.0 L 139.0,129.0 L 148.0,115.0 L 154.0,100.0 L 156.0,90.0 L 156.0,69.0 L 152.0,54.0 L 144.0,38.0 L 136.0,28.0 L 129.0,21.0 L 115.0,12.0 L 99.0,6.0 L 89.0,4.0 L 70.0,4.0" fill="#FDFDFC"/>
	<path d="M 70.0,4.0 L 89.0,4.0 L 99.0,6.0 L 115.0,12.0 L 126.0,19.0 L 136.0,28.0 L 144.0,38.0 L 152.0,54.0 L 156.0,69.0 L 156.0,90.0 L 152.0,106.0 L 144.0,122.0 L 136.0,132.0 L 129.0,139.0 L 115.0,148.0 L 103.0,153.0 L 88.0,156.0 L 69.0,156.0 L 54.0,152.0 L 38.0,144.0 L 28.0,136.0 L 18.0,125.0 L 10.0,111.0 L 5.0,96.0 L 4.0,91.0 L 4.0,70.0 L 8.0,54.0 L 16.0,38.0 L 24.0,28.0 L 31.0,21.0 L 45.0,12.0 L 57.0,7.0 L 70.0,4.0 M 71.0,8.0 L 55.0,12.0 L 41.0,19.0 L 31.0,27.0 L 23.0,35.0 L 15.0,48.0 L 10.0,61.0 L 8.0,71.0 L 8.0,88.0 L 10.0,98.0 L 16.0,114.0 L 25.0,127.0 L 34.0,136.0 L 48.0,145.0 L 61.0,150.0 L 70.0,152.0 L 87.0,152.0 L 102.0,149.0 L 114.0,144.0 L 127.0,135.0 L 136.0,126.0 L 145.0,112.0 L 150.0,98.0 L 152.0,89.0 L 152.0,71.0 L 148.0,55.0 L 141.0,41.0 L 133.0,31.0 L 126.0,24.0 L 112.0,15.0 L 95.0,9.0 L 88.0,8.0 L 71.0,8.0" fill="#BEA051"/>
	<path d="M 72.0,40.0 L 88.0,40.0 L 88.0,88.0 L 72.0,88.0 L 72.0,40.0" fill="#37404D"/>
	<path d="M 77.0,104.0 L 83.0,104.0 L 88.0,109.0 L 87.0,117.0 L 83.0,120.0 L 77.0,120.0 L 72.0,115.0 L 72.0,109.0 L 77.0,104.0" fill="#3E4750"/>
</svg>
