<?xml version="1.0" ?>
<svg baseProfile="full" height="600px" version="1.1" viewBox="-12.06 -12.06 144.12 144.12" width="600px" xmlns="http://www.w3.org/2000/svg" xmlns:ev="http://www.w3.org/2001/xml-events" xmlns:xlink="http://www.w3.org/1999/xlink">
	<defs/>
	<path d="M 0.0,0.0 L 120.0,0.0 L 120.0,120.0 L 0.0,120.0 L 0.0,0.0" fill="#FCFAFA"/>
	<path d="M 54.0,18.0 L 60.0,18.0 L 65.0,22.0 L 73.0,34.0 L 102.0,77.0 L 114.0,95.0 L 114.0,103.0 L 109.0,107.0 L 72.0,110.0 L 41.0,112.0 L 14.0,112.0 L 11.0,108.0 L 11.0,101.0 L 22.0,78.0 L 30.0,62.0 L 50.0,22.0 L 54.0,18.0" fill="#030303"/>
	<path d="M 56.0,43.0 L 64.0,43.0 L 65.0,74.0 L 55.0,74.0 L 52.0,52.0 L 52.0,44.0 L 56.0,43.0" fill="#F4F2F2"/>
	<path d="M 60.0,83.0 L 65.0,83.0 L 68.0,86.0 L 68.0,92.0 L 64.0,95.0 L 59.0,95.0 L 56.0,92.0 L 56.0,86.0 L 60.0,83.0" fill="#F2F0F0"/>
</svg>
