<?xml version="1.0" ?>
<svg baseProfile="full" height="600px" version="1.1" viewBox="-9.648000000000001 -9.648000000000001 115.296 115.296" width="600px" xmlns="http://www.w3.org/2000/svg" xmlns:ev="http://www.w3.org/2001/xml-events" xmlns:xlink="http://www.w3.org/1999/xlink">
	<defs/>
	<path d="M 0.0,0.0 L 96.0,0.0 L 96.0,96.0 L 0.0,96.0 L 0.0,0.0" fill="#161616"/>
	<path d="M 0.0,0.0 L 96.0,0.0 L 96.0,96.0 L 0.0,96.0 L 0.0,0.0 M 40.0,8.0 L 31.0,11.0 L 20.0,18.0 L 13.0,27.0 L 9.0,35.0 L 8.0,40.0 L 8.0,55.0 L 11.0,65.0 L 16.0,73.0 L 20.0,78.0 L 29.0,84.0 L 39.0,88.0 L 56.0,88.0 L 65.0,85.0 L 76.0,78.0 L 84.0,67.0 L 87.0,61.0 L 88.0,56.0 L 88.0,39.0 L 84.0,29.0 L 80.0,23.0 L 76.0,18.0 L 67.0,12.0 L 60.0,9.0 L 55.0,8.0 L 40.0,8.0" fill="#FBFBFB"/>
	<path d="M 44.0,28.0 L 52.0,28.0 L 52.0,52.0 L 44.0,52.0 L 44.0,28.0" fill="#FDFDFD"/>
	<path d="M 44.0,60.0 L 52.0,60.0 L 52.0,68.0 L 44.0,68.0 L 44.0,60.0" fill="#FDFDFD"/>
</svg>
