<?xml version="1.0" ?>
<svg baseProfile="full" height="600px" version="1.1" viewBox="-19.296000000000003 -19.296000000000003 230.592 230.592" width="600px" xmlns="http://www.w3.org/2000/svg" xmlns:ev="http://www.w3.org/2001/xml-events" xmlns:xlink="http://www.w3.org/1999/xlink">
	<defs/>
	<path d="M 0.0,0.0 L 192.0,0.0 L 192.0,192.0 L 0.0,192.0 L 0.0,0.0" fill="#FFFEFD"/>
	<path d="M 93.0,32.0 L 99.0,32.0 L 104.0,37.0 L 120.0,65.0 L 136.0,93.0 L 152.0,121.0 L 168.0,149.0 L 168.0,155.0 L 163.0,160.0 L 29.0,160.0 L 24.0,155.0 L 24.0,149.0 L 38.0,124.0 L 52.0,100.0 L 66.0,75.0 L 80.0,51.0 L 90.0,34.0 L 93.0,32.0" fill="#FDC009"/>
	<path d="M 87.0,68.0 L 105.0,68.0 L 105.0,84.0 L 103.0,124.0 L 89.0,124.0 L 87.0,82.0 L 87.0,68.0" fill="#614335"/>
	<path d="M 93.0,134.0 L 99.0,134.0 L 103.0,136.0 L 105.0,139.0 L 105.0,147.0 L 101.0,151.0 L 91.0,151.0 L 87.0,147.0 L 87.0,139.0 L 93.0,134.0" fill="#614335"/>
</svg>
