<?xml version="1.0" ?>
<svg baseProfile="full" height="600px" version="1.1" viewBox="-9.648000000000001 -9.648000000000001 115.296 115.296" width="600px" xmlns="http://www.w3.org/2000/svg" xmlns:ev="http://www.w3.org/2001/xml-events" xmlns:xlink="http://www.w3.org/1999/xlink">
	<defs/>
	<path d="M 0.0,0.0 L 96.0,0.0 L 96.0,96.0 L 0.0,96.0 L 0.0,0.0" fill="#FCFCFC"/>
	<path d="M 45.0,12.0 L 51.0,12.0 L 56.0,18.0 L 75.0,50.0 L 90.0,75.0 L 90.0,80.0 L 86.0,84.0 L 10.0,84.0 L 6.0,80.0 L 6.0,74.0 L 16.0,58.0 L 35.0,26.0 L 42.0,15.0 L 45.0,12.0" fill="#020202"/>
	<path d="M 44.0,36.0 L 52.0,36.0 L 52.0,56.0 L 44.0,56.0 L 44.0,36.0" fill="#FDFDFD"/>
	<path d="M 44.0,64.0 L 52.0,64.0 L 52.0,72.0 L 44.0,72.0 L 44.0,64.0" fill="#FDFDFD"/>
</svg>
