<?xml version="1.0" ?>
<svg baseProfile="full" height="600px" version="1.1" viewBox="-19.296000000000003 -19.296000000000003 230.592 230.592" width="600px" xmlns="http://www.w3.org/2000/svg" xmlns:ev="http://www.w3.org/2001/xml-events" xmlns:xlink="http://www.w3.org/1999/xlink">
	<defs/>
	<path d="M 0.0,0.0 L 192.0,0.0 L 192.0,192.0 L 0.0,192.0 L 0.0,0.0" fill="#FFFEFD"/>
	<path d="M 94.0,36.0 L 102.0,37.0 L 107.0,45.0 L 122.0,72.0 L 135.0,96.0 L 148.0,119.0 L 164.0,149.0 L 167.0,154.0 L 167.0,160.0 L 162.0,165.0 L 136.0,165.0 L 67.0,164.0 L 28.0,163.0 L 23.0,158.0 L 23.0,152.0 L 40.0,123.0 L 57.0,95.0 L 72.0,69.0 L 87.0,44.0 L 92.0,37.0 L 94.0,36.0" fill="#FDC009"/>
	<path d="M 89.0,75.0 L 105.0,75.0 L 105.0,85.0 L 102.0,122.0 L 101.0,125.0 L 89.0,125.0 L 89.0,75.0" fill="#5F4136"/>
	<path d="M 91.0,135.0 L 100.0,136.0 L 103.0,140.0 L 102.0,148.0 L 97.0,151.0 L 91.0,151.0 L 87.0,148.0 L 86.0,140.0 L 91.0,135.0" fill="#634535"/>
</svg>
