<?xml version="1.0" ?>
<svg baseProfile="full" height="600px" version="1.1" viewBox="-9.648000000000001 -9.648000000000001 115.296 115.296" width="600px" xmlns="http://www.w3.org/2000/svg" xmlns:ev="http://www.w3.org/2001/xml-events" xmlns:xlink="http://www.w3.org/1999/xlink">
	<defs/>
	<path d="M 0.0,0.0 L 96.0,0.0 L 96.0,96.0 L 0.0,96.0 L 0.0,0.0" fill="#FCFCFC"/>
	<path d="M 45.0,11.0 L 52.0,12.0 L 59.0,22.0 L 71.0,42.0 L 84.0,63.0 L 90.0,73.0 L 90.0,79.0 L 85.0,83.0 L 10.0,83.0 L 7.0,80.0 L 7.0,73.0 L 21.0,49.0 L 35.0,25.0 L 43.0,12.0 L 45.0,11.0" fill="#040404"/>
	<path d="M 44.0,35.0 L 52.0,35.0 L 52.0,55.0 L 44.0,55.0 L 44.0,35.0" fill="#FDFDFD"/>
	<path d="M 44.0,64.0 L 52.0,64.0 L 52.0,72.0 L 44.0,72.0 L 44.0,64.0" fill="#FDFDFD"/>
</svg>
