<?xml version="1.0" ?>
<svg baseProfile="full" height="600px" version="1.1" viewBox="-20.1 -20.1 240.2 240.2" width="600px" xmlns="http://www.w3.org/2000/svg" xmlns:ev="http://www.w3.org/2001/xml-events" xmlns:xlink="http://www.w3.org/1999/xlink">
	<defs/>
	<path d="M 0.0,0.0 L 200.0,0.0 L 200.0,200.0 L 0.0,200.0 L 0.0,0.0" fill="#FDFDFD"/>
	<path d="M 98.0,44.0 L 103.0,45.0 L 117.0,70.0 L 127.0,87.0 L 142.0,113.0 L 156.0,137.0 L 165.0,153.0 L 164.0,158.0 L 36.0,158.0 L 35.0,153.0 L 45.0,135.0 L 59.0,111.0 L 74.0,85.0 L 89.0,59.0 L 98.0,44.0" fill="#FCFCFC"/>
	<path d="M 98.0,44.0 L 103.0,45.0 L 117.0,70.0 L 127.0,87.0 L 142.0,113.0 L 156.0,137.0 L 165.0,153.0 L 164.0,158.0 L 36.0,158.0 L 35.0,153.0 L 45.0,135.0 L 59.0,111.0 L 74.0,85.0 L 89.0,59.0 L 98.0,44.0 M 99.0,52.0 L 89.0,70.0 L 75.0,94.0 L 59.0,122.0 L 45.0,146.0 L 42.0,152.0 L 158.0,152.0 L 152.0,141.0 L 138.0,116.0 L 128.0,99.0 L 113.0,73.0 L 101.0,52.0 L 99.0,52.0" fill="#131313"/>
	<path d="M 96.0,84.0 L 104.0,84.0 L 104.0,124.0 L 96.0,124.0 L 96.0,84.0" fill="#060606"/>
	<path d="M 96.0,131.0 L 104.0,131.0 L 104.0,140.0 L 96.0,140.0 L 96.0,131.0" fill="#070707"/>
</svg>
