<?xml version="1.0" ?>
<svg baseProfile="full" height="600px" version="1.1" viewBox="-20.1 -20.1 240.2 240.2" width="600px" xmlns="http://www.w3.org/2000/svg" xmlns:ev="http://www.w3.org/2001/xml-events" xmlns:xlink="http://www.w3.org/1999/xlink">
	<defs/>
	<path d="M 0.0,0.0 L 200.0,0.0 L 200.0,200.0 L 0.0,200.0 L 0.0,0.0" fill="#FCFCFC"/>
	<path d="M 90.0,42.0 L 95.0,44.0 L 97.0,49.0 L 97.0,55.0 L 108.0,47.0 L 116.0,47.0 L 123.0,51.0 L 125.0,56.0 L 130.0,54.0 L 140.0,54.0 L 147.0,60.0 L 148.0,62.0 L 148.0,73.0 L 153.0,77.0 L 153.0,79.0 L 160.0,79.0 L 166.0,84.0 L 168.0,89.0 L 168.0,97.0 L 173.0,98.0 L 178.0,101.0 L 182.0,107.0 L 182.0,114.0 L 179.0,120.0 L 176.0,123.0 L 176.0,136.0 L 171.0,142.0 L 167.0,144.0 L 160.0,144.0 L 161.0,146.0 L 161.0,155.0 L 158.0,160.0 L 152.0,164.0 L 96.0,168.0 L 86.0,176.0 L 73.0,182.0 L 57.0,186.0 L 45.0,186.0 L 44.0,185.0 L 44.0,180.0 L 46.0,178.0 L 62.0,176.0 L 78.0,170.0 L 87.0,164.0 L 100.0,153.0 L 111.0,144.0 L 124.0,133.0 L 135.0,124.0 L 147.0,113.0 L 146.0,108.0 L 145.0,107.0 L 138.0,108.0 L 125.0,119.0 L 112.0,129.0 L 107.0,128.0 L 106.0,123.0 L 120.0,111.0 L 131.0,102.0 L 144.0,91.0 L 147.0,88.0 L 146.0,83.0 L 144.0,81.0 L 139.0,82.0 L 125.0,94.0 L 111.0,105.0 L 101.0,113.0 L 96.0,112.0 L 95.0,108.0 L 100.0,103.0 L 115.0,90.0 L 126.0,81.0 L 139.0,70.0 L 139.0,64.0 L 138.0,63.0 L 132.0,63.0 L 121.0,72.0 L 108.0,83.0 L 97.0,92.0 L 87.0,100.0 L 82.0,100.0 L 80.0,98.0 L 81.0,94.0 L 92.0,84.0 L 102.0,76.0 L 115.0,65.0 L 117.0,63.0 L 117.0,58.0 L 115.0,56.0 L 110.0,56.0 L 95.0,69.0 L 81.0,81.0 L 67.0,93.0 L 53.0,105.0 L 47.0,110.0 L 42.0,110.0 L 40.0,108.0 L 41.0,97.0 L 43.0,87.0 L 43.0,80.0 L 40.0,73.0 L 36.0,69.0 L 34.0,79.0 L 28.0,102.0 L 25.0,112.0 L 24.0,151.0 L 18.0,152.0 L 16.0,149.0 L 16.0,112.0 L 24.0,81.0 L 28.0,67.0 L 31.0,59.0 L 36.0,58.0 L 44.0,64.0 L 49.0,70.0 L 49.0,72.0 L 56.0,68.0 L 71.0,56.0 L 90.0,42.0" fill="#070707"/>
	<path d="M 88.0,53.0 L 90.0,53.0 L 90.0,62.0 L 77.0,74.0 L 66.0,83.0 L 56.0,92.0 L 51.0,95.0 L 52.0,81.0 L 69.0,68.0 L 87.0,54.0 L 88.0,53.0" fill="#F4F4F4"/>
	<path d="M 123.0,145.0 L 126.0,146.0 L 152.0,146.0 L 153.0,147.0 L 153.0,154.0 L 149.0,156.0 L 126.0,158.0 L 108.0,158.0 L 113.0,153.0 L 123.0,145.0" fill="#F5F5F5"/>
	<path d="M 155.0,125.0 L 165.0,125.0 L 168.0,127.0 L 168.0,134.0 L 164.0,136.0 L 158.0,137.0 L 139.0,138.0 L 131.0,139.0 L 136.0,134.0 L 145.0,126.0 L 155.0,125.0" fill="#F3F3F3"/>
	<path d="M 155.0,106.0 L 172.0,106.0 L 174.0,109.0 L 173.0,115.0 L 170.0,117.0 L 155.0,117.0 L 155.0,106.0" fill="#F5F5F5"/>
	<path d="M 156.0,87.0 L 159.0,88.0 L 160.0,95.0 L 158.0,97.0 L 150.0,98.0 L 156.0,87.0" fill="#E7E7E7"/>
</svg>
