<?xml version="1.0" ?>
<svg baseProfile="full" height="600px" version="1.1" viewBox="-20.1 -20.1 240.2 240.2" width="600px" xmlns="http://www.w3.org/2000/svg" xmlns:ev="http://www.w3.org/2001/xml-events" xmlns:xlink="http://www.w3.org/1999/xlink">
	<defs/>
	<path d="M 0.0,0.0 L 200.0,0.0 L 200.0,200.0 L 0.0,200.0 L 0.0,0.0" fill="#FCFCFC"/>
	<path d="M 69.0,32.0 L 75.0,33.0 L 80.0,43.0 L 80.0,57.0 L 77.0,65.0 L 73.0,70.0 L 72.0,73.0 L 90.0,68.0 L 111.0,63.0 L 137.0,57.0 L 147.0,57.0 L 154.0,63.0 L 155.0,65.0 L 155.0,75.0 L 153.0,81.0 L 156.0,80.0 L 163.0,80.0 L 169.0,84.0 L 173.0,90.0 L 173.0,97.0 L 171.0,103.0 L 175.0,108.0 L 176.0,110.0 L 176.0,117.0 L 172.0,124.0 L 168.0,127.0 L 166.0,127.0 L 170.0,134.0 L 170.0,143.0 L 163.0,151.0 L 139.0,163.0 L 120.0,173.0 L 92.0,187.0 L 80.0,191.0 L 74.0,192.0 L 51.0,192.0 L 46.0,190.0 L 45.0,189.0 L 45.0,184.0 L 46.0,183.0 L 73.0,183.0 L 85.0,180.0 L 108.0,169.0 L 134.0,156.0 L 153.0,146.0 L 161.0,141.0 L 161.0,134.0 L 154.0,134.0 L 124.0,149.0 L 119.0,148.0 L 118.0,143.0 L 126.0,138.0 L 162.0,120.0 L 167.0,116.0 L 166.0,110.0 L 161.0,109.0 L 119.0,130.0 L 114.0,131.0 L 111.0,129.0 L 112.0,124.0 L 131.0,114.0 L 146.0,106.0 L 162.0,98.0 L 164.0,96.0 L 163.0,90.0 L 157.0,89.0 L 138.0,99.0 L 106.0,115.0 L 101.0,115.0 L 100.0,114.0 L 100.0,109.0 L 108.0,104.0 L 136.0,90.0 L 144.0,85.0 L 143.0,79.0 L 142.0,78.0 L 136.0,78.0 L 117.0,88.0 L 89.0,103.0 L 64.0,116.0 L 59.0,115.0 L 58.0,110.0 L 66.0,90.0 L 66.0,78.0 L 63.0,75.0 L 50.0,98.0 L 40.0,119.0 L 34.0,148.0 L 32.0,151.0 L 27.0,150.0 L 26.0,149.0 L 26.0,142.0 L 31.0,118.0 L 35.0,108.0 L 49.0,81.0 L 59.0,64.0 L 61.0,62.0 L 67.0,63.0 L 70.0,59.0 L 71.0,56.0 L 71.0,45.0 L 69.0,45.0 L 53.0,62.0 L 44.0,72.0 L 38.0,80.0 L 29.0,97.0 L 23.0,109.0 L 18.0,110.0 L 16.0,108.0 L 17.0,102.0 L 29.0,77.0 L 36.0,68.0 L 50.0,53.0 L 57.0,45.0 L 69.0,32.0" fill="#080808"/>
	<path d="M 165.0,16.0 L 169.0,18.0 L 178.0,33.0 L 180.0,38.0 L 180.0,45.0 L 177.0,51.0 L 172.0,55.0 L 163.0,56.0 L 157.0,53.0 L 153.0,48.0 L 152.0,45.0 L 152.0,38.0 L 158.0,26.0 L 165.0,16.0" fill="#070707"/>
	<path d="M 137.0,65.0 L 145.0,65.0 L 147.0,67.0 L 146.0,71.0 L 143.0,70.0 L 134.0,70.0 L 111.0,82.0 L 92.0,92.0 L 73.0,102.0 L 71.0,102.0 L 74.0,92.0 L 76.0,81.0 L 83.0,78.0 L 104.0,73.0 L 130.0,67.0 L 137.0,65.0" fill="#F7F7F7"/>
	<path d="M 131.0,6.0 L 135.0,8.0 L 143.0,22.0 L 144.0,31.0 L 141.0,37.0 L 135.0,40.0 L 128.0,40.0 L 123.0,37.0 L 120.0,31.0 L 120.0,24.0 L 129.0,8.0 L 131.0,6.0" fill="#070707"/>
	<path d="M 165.0,30.0 L 167.0,30.0 L 172.0,40.0 L 171.0,46.0 L 168.0,48.0 L 162.0,47.0 L 160.0,44.0 L 161.0,38.0 L 165.0,30.0" fill="#F3F3F3"/>
	<path d="M 131.0,21.0 L 134.0,22.0 L 136.0,26.0 L 135.0,31.0 L 130.0,32.0 L 128.0,30.0 L 129.0,24.0 L 131.0,21.0" fill="#EBEBEB"/>
	<path d="M 137.0,65.0 L 145.0,65.0 L 147.0,67.0 L 146.0,71.0 L 136.0,69.0 L 137.0,65.0" fill="#E9E9E9"/>
</svg>
