<?xml version="1.0" ?>
<svg baseProfile="full" height="600px" version="1.1" viewBox="-20.1 -20.1 240.2 240.2" width="600px" xmlns="http://www.w3.org/2000/svg" xmlns:ev="http://www.w3.org/2001/xml-events" xmlns:xlink="http://www.w3.org/1999/xlink">
	<defs/>
	<path d="M 0.0,0.0 L 200.0,0.0 L 200.0,200.0 L 0.0,200.0 L 0.0,0.0" fill="#FCFCFC"/>
	<path d="M 82.0,17.0 L 101.0,18.0 L 121.0,20.0 L 127.0,24.0 L 129.0,27.0 L 129.0,42.0 L 148.0,43.0 L 165.0,45.0 L 171.0,47.0 L 172.0,52.0 L 171.0,53.0 L 164.0,53.0 L 164.0,184.0 L 159.0,190.0 L 154.0,192.0 L 45.0,192.0 L 39.0,188.0 L 36.0,184.0 L 36.0,51.0 L 38.0,49.0 L 43.0,50.0 L 44.0,51.0 L 45.0,183.0 L 155.0,183.0 L 156.0,52.0 L 147.0,52.0 L 106.0,48.0 L 71.0,44.0 L 48.0,42.0 L 31.0,40.0 L 29.0,38.0 L 29.0,33.0 L 30.0,32.0 L 43.0,32.0 L 68.0,35.0 L 73.0,36.0 L 74.0,24.0 L 78.0,19.0 L 82.0,17.0" fill="#0B0B0B"/>
	<path d="M 122.0,73.0 L 127.0,74.0 L 128.0,75.0 L 128.0,165.0 L 126.0,167.0 L 121.0,166.0 L 120.0,165.0 L 120.0,75.0 L 122.0,73.0" fill="#020202"/>
	<path d="M 98.0,73.0 L 103.0,74.0 L 104.0,75.0 L 104.0,165.0 L 102.0,167.0 L 97.0,166.0 L 96.0,165.0 L 96.0,75.0 L 98.0,73.0" fill="#010101"/>
	<path d="M 74.0,73.0 L 79.0,74.0 L 80.0,75.0 L 80.0,165.0 L 78.0,167.0 L 73.0,166.0 L 72.0,165.0 L 72.0,75.0 L 74.0,73.0" fill="#020202"/>
	<path d="M 84.0,25.0 L 107.0,27.0 L 119.0,28.0 L 121.0,30.0 L 121.0,40.0 L 107.0,40.0 L 81.0,37.0 L 82.0,27.0 L 84.0,25.0" fill="#F8F8F8"/>
</svg>
