<?xml version="1.0" ?>
<svg baseProfile="full" height="600px" version="1.1" viewBox="-20.1 -20.1 240.2 240.2" width="600px" xmlns="http://www.w3.org/2000/svg" xmlns:ev="http://www.w3.org/2001/xml-events" xmlns:xlink="http://www.w3.org/1999/xlink">
	<defs/>
	<path d="M 0.0,0.0 L 200.0,0.0 L 200.0,200.0 L 0.0,200.0 L 0.0,0.0" fill="#FCFCFC"/>
	<path d="M 86.0,2.0 L 95.0,3.0 L 126.0,11.0 L 131.0,16.0 L 132.0,17.0 L 132.0,26.0 L 130.0,33.0 L 138.0,34.0 L 171.0,43.0 L 172.0,48.0 L 170.0,50.0 L 163.0,50.0 L 162.0,60.0 L 159.0,83.0 L 158.0,102.0 L 158.0,137.0 L 160.0,159.0 L 164.0,179.0 L 163.0,186.0 L 157.0,191.0 L 154.0,192.0 L 45.0,192.0 L 40.0,189.0 L 37.0,186.0 L 36.0,179.0 L 41.0,149.0 L 42.0,138.0 L 42.0,95.0 L 39.0,70.0 L 36.0,50.0 L 37.0,45.0 L 43.0,45.0 L 45.0,50.0 L 47.0,59.0 L 50.0,85.0 L 51.0,96.0 L 51.0,135.0 L 49.0,157.0 L 45.0,179.0 L 45.0,184.0 L 155.0,183.0 L 154.0,176.0 L 150.0,151.0 L 149.0,140.0 L 149.0,96.0 L 150.0,82.0 L 153.0,59.0 L 156.0,47.0 L 147.0,46.0 L 111.0,37.0 L 93.0,32.0 L 36.0,18.0 L 32.0,15.0 L 33.0,10.0 L 38.0,9.0 L 76.0,19.0 L 78.0,9.0 L 82.0,4.0 L 86.0,2.0" fill="#0A0A0A"/>
	<path d="M 73.0,70.0 L 79.0,70.0 L 80.0,71.0 L 82.0,83.0 L 83.0,96.0 L 83.0,139.0 L 81.0,161.0 L 79.0,166.0 L 73.0,166.0 L 72.0,165.0 L 74.0,134.0 L 74.0,97.0 L 72.0,79.0 L 72.0,71.0 L 73.0,70.0" fill="#0B0B0B"/>
	<path d="M 121.0,70.0 L 127.0,70.0 L 128.0,71.0 L 126.0,98.0 L 126.0,135.0 L 128.0,158.0 L 128.0,165.0 L 127.0,166.0 L 121.0,166.0 L 119.0,159.0 L 117.0,142.0 L 117.0,97.0 L 119.0,78.0 L 120.0,71.0 L 121.0,70.0" fill="#0B0B0B"/>
	<path d="M 97.0,70.0 L 103.0,70.0 L 104.0,71.0 L 104.0,165.0 L 103.0,166.0 L 97.0,166.0 L 96.0,165.0 L 96.0,71.0 L 97.0,70.0" fill="#010101"/>
	<path d="M 88.0,10.0 L 98.0,12.0 L 122.0,18.0 L 124.0,20.0 L 123.0,30.0 L 113.0,29.0 L 85.0,22.0 L 84.0,21.0 L 85.0,13.0 L 88.0,10.0" fill="#F7F7F7"/>
	<path d="M 23.0,19.0 L 29.0,19.0 L 32.0,22.0 L 32.0,27.0 L 29.0,30.0 L 23.0,30.0 L 21.0,28.0 L 21.0,21.0 L 23.0,19.0" fill="#0B0B0B"/>
</svg>
