<?xml version="1.0" ?>
<svg baseProfile="full" height="600px" version="1.1" viewBox="-19.296000000000003 -19.296000000000003 230.592 230.592" width="600px" xmlns="http://www.w3.org/2000/svg" xmlns:ev="http://www.w3.org/2001/xml-events" xmlns:xlink="http://www.w3.org/1999/xlink">
	<defs/>
	<path d="M 0.0,0.0 L 192.0,0.0 L 192.0,192.0 L 0.0,192.0 L 0.0,0.0" fill="#FDFDFD"/>
	<path d="M 96.0,12.0 L 103.0,12.0 L 112.0,16.0 L 117.0,21.0 L 120.0,27.0 L 121.0,38.0 L 149.0,46.0 L 154.0,48.0 L 152.0,56.0 L 150.0,63.0 L 143.0,62.0 L 143.0,130.0 L 144.0,156.0 L 141.0,162.0 L 135.0,167.0 L 132.0,168.0 L 59.0,168.0 L 53.0,164.0 L 49.0,160.0 L 48.0,157.0 L 48.0,146.0 L 49.0,137.0 L 49.0,80.0 L 48.0,61.0 L 48.0,50.0 L 98.0,49.0 L 75.0,42.0 L 50.0,35.0 L 42.0,32.0 L 44.0,22.0 L 46.0,17.0 L 57.0,19.0 L 76.0,25.0 L 81.0,25.0 L 85.0,19.0 L 91.0,14.0 L 96.0,12.0" fill="#9EA7DA"/>
	<path d="M 96.0,12.0 L 103.0,12.0 L 112.0,16.0 L 117.0,21.0 L 120.0,27.0 L 121.0,38.0 L 149.0,46.0 L 154.0,48.0 L 152.0,56.0 L 150.0,63.0 L 144.0,62.0 L 124.0,57.0 L 124.0,152.0 L 116.0,152.0 L 115.0,54.0 L 98.0,49.0 L 75.0,42.0 L 50.0,35.0 L 42.0,32.0 L 44.0,22.0 L 46.0,17.0 L 57.0,19.0 L 76.0,25.0 L 81.0,25.0 L 85.0,19.0 L 91.0,14.0 L 96.0,12.0" fill="#5F6EC1"/>
	<path d="M 92.0,50.0 L 100.0,50.0 L 100.0,152.0 L 92.0,152.0 L 92.0,50.0" fill="#7885CB"/>
	<path d="M 68.0,50.0 L 76.0,50.0 L 76.0,152.0 L 68.0,152.0 L 68.0,50.0" fill="#7A87CC"/>
	<path d="M 115.0,53.0 L 126.0,56.0 L 124.0,57.0 L 124.0,152.0 L 116.0,152.0 L 115.0,53.0" fill="#7885CB"/>
	<path d="M 97.0,20.0 L 105.0,21.0 L 111.0,26.0 L 112.0,28.0 L 112.0,35.0 L 104.0,34.0 L 90.0,30.0 L 89.0,27.0 L 93.0,22.0 L 97.0,20.0" fill="#F6F6FB"/>
</svg>
