<?xml version="1.0" ?>
<svg baseProfile="full" height="600px" version="1.1" viewBox="-16.08 -16.08 192.16 192.16" width="600px" xmlns="http://www.w3.org/2000/svg" xmlns:ev="http://www.w3.org/2001/xml-events" xmlns:xlink="http://www.w3.org/1999/xlink">
	<defs/>
	<path d="M 0.0,0.0 L 160.0,0.0 L 160.0,160.0 L 0.0,160.0 L 0.0,0.0" fill="#EDF6FB"/>
	<path d="M 68.0,18.0 L 89.0,18.0 L 99.0,20.0 L 110.0,25.0 L 121.0,32.0 L 128.0,39.0 L 137.0,53.0 L 142.0,68.0 L 142.0,90.0 L 137.0,107.0 L 130.0,118.0 L 122.0,127.0 L 112.0,134.0 L 104.0,138.0 L 90.0,142.0 L 68.0,142.0 L 53.0,137.0 L 46.0,133.0 L 36.0,134.0 L 24.0,137.0 L 28.0,120.0 L 27.0,114.0 L 21.0,102.0 L 19.0,96.0 L 18.0,89.0 L 18.0,68.0 L 23.0,53.0 L 30.0,42.0 L 38.0,33.0 L 48.0,26.0 L 58.0,21.0 L 68.0,18.0" fill="#7ABA7F"/>
	<path d="M 0.0,0.0 L 160.0,0.0 L 160.0,160.0 L 3.0,160.0 L 5.0,158.0 L 26.0,153.0 L 41.0,149.0 L 46.0,150.0 L 59.0,155.0 L 67.0,157.0 L 92.0,157.0 L 107.0,153.0 L 119.0,148.0 L 130.0,140.0 L 139.0,132.0 L 148.0,119.0 L 155.0,104.0 L 158.0,91.0 L 158.0,68.0 L 154.0,53.0 L 146.0,37.0 L 139.0,28.0 L 134.0,23.0 L 125.0,15.0 L 109.0,7.0 L 97.0,3.0 L 91.0,2.0 L 70.0,2.0 L 53.0,6.0 L 39.0,13.0 L 26.0,23.0 L 18.0,32.0 L 10.0,45.0 L 5.0,58.0 L 3.0,66.0 L 3.0,91.0 L 8.0,110.0 L 12.0,118.0 L 10.0,128.0 L 4.0,151.0 L 1.0,160.0 L 0.0,160.0 L 0.0,0.0" fill="#FCFCFC"/>
	<path d="M 48.0,40.0 L 56.0,40.0 L 59.0,43.0 L 66.0,59.0 L 66.0,65.0 L 60.0,72.0 L 61.0,77.0 L 69.0,87.0 L 77.0,94.0 L 88.0,100.0 L 93.0,99.0 L 101.0,90.0 L 107.0,91.0 L 123.0,99.0 L 123.0,108.0 L 119.0,115.0 L 109.0,120.0 L 96.0,120.0 L 86.0,117.0 L 72.0,110.0 L 61.0,101.0 L 53.0,93.0 L 42.0,78.0 L 37.0,65.0 L 37.0,55.0 L 42.0,45.0 L 48.0,40.0" fill="#FBFCFC"/>
	<path d="M 70.0,1.0 L 91.0,1.0 L 103.0,4.0 L 116.0,9.0 L 126.0,15.0 L 137.0,24.0 L 147.0,37.0 L 155.0,53.0 L 159.0,68.0 L 159.0,91.0 L 155.0,106.0 L 147.0,122.0 L 139.0,133.0 L 128.0,143.0 L 115.0,151.0 L 101.0,156.0 L 92.0,158.0 L 67.0,158.0 L 50.0,153.0 L 44.0,150.0 L 32.0,152.0 L 13.0,157.0 L 1.0,160.0 L 3.0,151.0 L 11.0,121.0 L 10.0,116.0 L 5.0,104.0 L 2.0,91.0 L 2.0,66.0 L 7.0,50.0 L 14.0,36.0 L 23.0,25.0 L 33.0,16.0 L 46.0,8.0 L 60.0,3.0 L 70.0,1.0 M 72.0,5.0 L 58.0,8.0 L 44.0,14.0 L 34.0,21.0 L 24.0,30.0 L 15.0,43.0 L 9.0,56.0 L 6.0,69.0 L 6.0,90.0 L 9.0,102.0 L 14.0,114.0 L 15.0,116.0 L 14.0,127.0 L 9.0,144.0 L 7.0,154.0 L 23.0,150.0 L 42.0,145.0 L 47.0,147.0 L 60.0,152.0 L 70.0,154.0 L 89.0,154.0 L 103.0,151.0 L 119.0,144.0 L 132.0,134.0 L 141.0,124.0 L 149.0,110.0 L 154.0,95.0 L 155.0,86.0 L 155.0,71.0 L 151.0,54.0 L 144.0,40.0 L 137.0,31.0 L 126.0,20.0 L 115.0,13.0 L 102.0,8.0 L 87.0,5.0 L 72.0,5.0" fill="#8092A2"/>
</svg>
