<?xml version="1.0" ?>
<svg baseProfile="full" height="600px" version="1.1" viewBox="-9.648000000000001 -9.648000000000001 115.296 115.296" width="600px" xmlns="http://www.w3.org/2000/svg" xmlns:ev="http://www.w3.org/2001/xml-events" xmlns:xlink="http://www.w3.org/1999/xlink">
	<defs/>
	<path d="M 0.0,0.0 L 96.0,0.0 L 96.0,96.0 L 0.0,96.0 L 0.0,0.0" fill="#030303"/>
	<path d="M 0.0,0.0 L 96.0,0.0 L 96.0,96.0 L 0.0,96.0 L 0.0,0.0 M 40.0,5.0 L 29.0,9.0 L 20.0,15.0 L 13.0,22.0 L 6.0,36.0 L 5.0,40.0 L 5.0,54.0 L 7.0,62.0 L 10.0,71.0 L 5.0,88.0 L 5.0,91.0 L 12.0,90.0 L 25.0,87.0 L 31.0,88.0 L 40.0,91.0 L 53.0,91.0 L 62.0,89.0 L 74.0,83.0 L 83.0,74.0 L 90.0,60.0 L 91.0,53.0 L 91.0,41.0 L 88.0,31.0 L 82.0,21.0 L 74.0,13.0 L 62.0,7.0 L 53.0,5.0 L 40.0,5.0" fill="#FBFBFB"/>
	<path d="M 30.0,26.0 L 35.0,26.0 L 40.0,36.0 L 39.0,41.0 L 37.0,46.0 L 44.0,54.0 L 52.0,59.0 L 55.0,59.0 L 59.0,54.0 L 65.0,55.0 L 72.0,59.0 L 71.0,66.0 L 66.0,70.0 L 54.0,70.0 L 42.0,64.0 L 32.0,55.0 L 25.0,44.0 L 24.0,40.0 L 24.0,33.0 L 28.0,27.0 L 30.0,26.0" fill="#F6F6F6"/>
</svg>
