<?xml version="1.0" ?>
<svg baseProfile="full" height="600px" version="1.1" viewBox="-16.08 -16.08 192.16 192.16" width="600px" xmlns="http://www.w3.org/2000/svg" xmlns:ev="http://www.w3.org/2001/xml-events" xmlns:xlink="http://www.w3.org/1999/xlink">
	<defs/>
	<path d="M 0.0,0.0 L 160.0,0.0 L 160.0,160.0 L 0.0,160.0 L 0.0,0.0" fill="#EEF7FB"/>
	<path d="M 72.0,18.0 L 87.0,18.0 L 103.0,22.0 L 116.0,29.0 L 128.0,40.0 L 135.0,51.0 L 140.0,63.0 L 142.0,71.0 L 142.0,86.0 L 140.0,96.0 L 135.0,109.0 L 128.0,120.0 L 120.0,128.0 L 109.0,135.0 L 93.0,141.0 L 86.0,142.0 L 71.0,142.0 L 55.0,137.0 L 45.0,132.0 L 36.0,134.0 L 29.0,136.0 L 25.0,136.0 L 27.0,125.0 L 29.0,116.0 L 21.0,100.0 L 18.0,89.0 L 18.0,71.0 L 22.0,57.0 L 29.0,44.0 L 40.0,32.0 L 51.0,25.0 L 60.0,21.0 L 72.0,18.0" fill="#7ABA80"/>
	<path d="M 0.0,0.0 L 160.0,0.0 L 160.0,160.0 L 0.0,160.0 L 0.0,0.0 M 68.0,2.0 L 53.0,6.0 L 39.0,13.0 L 26.0,23.0 L 18.0,32.0 L 11.0,43.0 L 6.0,54.0 L 2.0,71.0 L 2.0,87.0 L 6.0,105.0 L 12.0,118.0 L 8.0,134.0 L 2.0,155.0 L 2.0,159.0 L 11.0,157.0 L 39.0,150.0 L 44.0,149.0 L 55.0,154.0 L 66.0,157.0 L 73.0,158.0 L 86.0,158.0 L 103.0,155.0 L 119.0,148.0 L 130.0,140.0 L 139.0,132.0 L 148.0,119.0 L 153.0,109.0 L 157.0,97.0 L 158.0,90.0 L 158.0,67.0 L 155.0,55.0 L 147.0,38.0 L 139.0,28.0 L 129.0,18.0 L 118.0,11.0 L 107.0,6.0 L 93.0,2.0 L 68.0,2.0" fill="#FCFCFC"/>
	<path d="M 48.0,41.0 L 57.0,41.0 L 60.0,44.0 L 66.0,59.0 L 66.0,65.0 L 61.0,72.0 L 62.0,78.0 L 71.0,89.0 L 81.0,96.0 L 87.0,99.0 L 93.0,99.0 L 100.0,90.0 L 107.0,91.0 L 122.0,99.0 L 122.0,109.0 L 116.0,116.0 L 107.0,120.0 L 97.0,120.0 L 83.0,115.0 L 70.0,108.0 L 57.0,96.0 L 49.0,87.0 L 42.0,76.0 L 38.0,66.0 L 38.0,55.0 L 42.0,47.0 L 48.0,41.0" fill="#FBFCFB"/>
	<path d="M 68.0,2.0 L 93.0,2.0 L 110.0,7.0 L 125.0,15.0 L 137.0,26.0 L 145.0,35.0 L 153.0,50.0 L 157.0,62.0 L 158.0,67.0 L 158.0,90.0 L 156.0,100.0 L 150.0,116.0 L 142.0,128.0 L 133.0,138.0 L 122.0,146.0 L 108.0,153.0 L 98.0,156.0 L 86.0,158.0 L 73.0,158.0 L 58.0,155.0 L 46.0,150.0 L 41.0,149.0 L 27.0,153.0 L 7.0,158.0 L 2.0,159.0 L 3.0,153.0 L 11.0,123.0 L 12.0,118.0 L 6.0,105.0 L 2.0,87.0 L 2.0,71.0 L 6.0,54.0 L 14.0,38.0 L 24.0,25.0 L 33.0,17.0 L 48.0,8.0 L 63.0,3.0 L 68.0,2.0 M 73.0,6.0 L 61.0,8.0 L 48.0,13.0 L 36.0,20.0 L 24.0,31.0 L 15.0,44.0 L 10.0,55.0 L 7.0,68.0 L 7.0,91.0 L 10.0,103.0 L 16.0,117.0 L 14.0,129.0 L 9.0,146.0 L 8.0,153.0 L 26.0,149.0 L 40.0,145.0 L 47.0,146.0 L 59.0,151.0 L 67.0,153.0 L 92.0,153.0 L 104.0,150.0 L 116.0,145.0 L 127.0,137.0 L 136.0,129.0 L 145.0,116.0 L 150.0,105.0 L 153.0,95.0 L 154.0,87.0 L 154.0,72.0 L 151.0,57.0 L 146.0,45.0 L 139.0,34.0 L 126.0,21.0 L 113.0,13.0 L 99.0,8.0 L 88.0,6.0 L 73.0,6.0" fill="#8193A3"/>
</svg>
