<?xml version="1.0" ?>
<svg baseProfile="full" height="600px" version="1.1" viewBox="-19.296000000000003 -19.296000000000003 230.592 230.592" width="600px" xmlns="http://www.w3.org/2000/svg" xmlns:ev="http://www.w3.org/2001/xml-events" xmlns:xlink="http://www.w3.org/1999/xlink">
	<defs/>
	<path d="M 0.0,0.0 L 192.0,0.0 L 192.0,192.0 L 0.0,192.0 L 0.0,0.0" fill="#FDFDFD"/>
	<path d="M 85.0,33.0 L 104.0,33.0 L 114.0,35.0 L 126.0,40.0 L 137.0,47.0 L 145.0,55.0 L 152.0,66.0 L 156.0,74.0 L 159.0,86.0 L 159.0,107.0 L 155.0,120.0 L 149.0,131.0 L 141.0,141.0 L 130.0,150.0 L 117.0,156.0 L 111.0,158.0 L 103.0,159.0 L 86.0,159.0 L 70.0,154.0 L 63.0,150.0 L 55.0,151.0 L 41.0,155.0 L 38.0,155.0 L 42.0,137.0 L 43.0,131.0 L 36.0,117.0 L 33.0,106.0 L 33.0,89.0 L 35.0,79.0 L 38.0,70.0 L 43.0,61.0 L 51.0,51.0 L 62.0,42.0 L 77.0,35.0 L 85.0,33.0" fill="#41C352"/>
	<path d="M 86.0,16.0 L 107.0,16.0 L 123.0,20.0 L 139.0,28.0 L 148.0,35.0 L 155.0,41.0 L 163.0,51.0 L 171.0,66.0 L 175.0,80.0 L 176.0,89.0 L 176.0,106.0 L 172.0,122.0 L 167.0,134.0 L 158.0,147.0 L 151.0,155.0 L 137.0,165.0 L 125.0,171.0 L 111.0,175.0 L 106.0,176.0 L 89.0,176.0 L 76.0,174.0 L 60.0,168.0 L 45.0,171.0 L 23.0,177.0 L 17.0,177.0 L 16.0,176.0 L 16.0,168.0 L 24.0,140.0 L 25.0,134.0 L 19.0,118.0 L 16.0,103.0 L 16.0,86.0 L 20.0,70.0 L 25.0,58.0 L 34.0,45.0 L 40.0,38.0 L 53.0,28.0 L 67.0,21.0 L 76.0,18.0 L 86.0,16.0 M 85.0,33.0 L 72.0,37.0 L 61.0,43.0 L 51.0,51.0 L 42.0,62.0 L 36.0,74.0 L 34.0,81.0 L 33.0,89.0 L 33.0,106.0 L 37.0,119.0 L 43.0,131.0 L 41.0,141.0 L 38.0,155.0 L 49.0,153.0 L 59.0,150.0 L 64.0,151.0 L 75.0,156.0 L 86.0,159.0 L 103.0,159.0 L 113.0,157.0 L 126.0,152.0 L 135.0,146.0 L 144.0,138.0 L 151.0,128.0 L 157.0,115.0 L 159.0,107.0 L 159.0,86.0 L 156.0,74.0 L 150.0,62.0 L 142.0,52.0 L 133.0,44.0 L 117.0,36.0 L 111.0,34.0 L 104.0,33.0 L 85.0,33.0" fill="#FBFDFC"/>
	<path d="M 86.0,16.0 L 107.0,16.0 L 123.0,20.0 L 139.0,28.0 L 148.0,35.0 L 155.0,41.0 L 163.0,51.0 L 171.0,66.0 L 175.0,80.0 L 176.0,89.0 L 176.0,106.0 L 172.0,122.0 L 167.0,134.0 L 158.0,147.0 L 151.0,155.0 L 137.0,165.0 L 125.0,171.0 L 111.0,175.0 L 106.0,176.0 L 89.0,176.0 L 76.0,174.0 L 60.0,168.0 L 45.0,171.0 L 23.0,177.0 L 17.0,177.0 L 16.0,176.0 L 16.0,168.0 L 24.0,140.0 L 25.0,134.0 L 19.0,118.0 L 16.0,103.0 L 16.0,86.0 L 20.0,70.0 L 25.0,58.0 L 34.0,45.0 L 40.0,38.0 L 53.0,28.0 L 67.0,21.0 L 76.0,18.0 L 86.0,16.0 M 85.0,20.0 L 69.0,24.0 L 54.0,32.0 L 44.0,40.0 L 37.0,47.0 L 28.0,61.0 L 23.0,72.0 L 20.0,85.0 L 20.0,106.0 L 24.0,122.0 L 29.0,133.0 L 27.0,144.0 L 19.0,172.0 L 19.0,173.0 L 27.0,172.0 L 57.0,164.0 L 63.0,165.0 L 76.0,170.0 L 86.0,172.0 L 105.0,172.0 L 119.0,169.0 L 131.0,164.0 L 142.0,157.0 L 152.0,148.0 L 160.0,138.0 L 168.0,122.0 L 172.0,107.0 L 172.0,84.0 L 168.0,69.0 L 161.0,55.0 L 153.0,45.0 L 144.0,36.0 L 130.0,27.0 L 112.0,21.0 L 106.0,20.0 L 85.0,20.0" fill="#D2DADE"/>
	<path d="M 90.0,68.0 L 97.0,68.0 L 100.0,71.0 L 98.0,80.0 L 96.0,84.0 L 89.0,85.0 L 89.0,97.0 L 92.0,106.0 L 93.0,108.0 L 102.0,108.0 L 107.0,118.0 L 106.0,122.0 L 103.0,124.0 L 94.0,124.0 L 89.0,120.0 L 83.0,110.0 L 80.0,98.0 L 80.0,81.0 L 85.0,71.0 L 90.0,68.0" fill="#F9FCFA"/>
</svg>
