<?xml version="1.0" ?>
<svg baseProfile="full" height="600px" version="1.1" viewBox="-9.648000000000001 -9.648000000000001 115.296 115.296" width="600px" xmlns="http://www.w3.org/2000/svg" xmlns:ev="http://www.w3.org/2001/xml-events" xmlns:xlink="http://www.w3.org/1999/xlink">
	<defs/>
	<path d="M 0.0,0.0 L 96.0,0.0 L 96.0,96.0 L 0.0,96.0 L 0.0,0.0" fill="#030303"/>
	<path d="M 0.0,0.0 L 96.0,0.0 L 96.0,96.0 L 0.0,96.0 L 0.0,0.0 M 40.0,8.0 L 30.0,12.0 L 21.0,18.0 L 14.0,26.0 L 9.0,37.0 L 8.0,40.0 L 8.0,53.0 L 12.0,66.0 L 12.0,72.0 L 8.0,85.0 L 8.0,88.0 L 15.0,87.0 L 28.0,84.0 L 37.0,87.0 L 42.0,88.0 L 53.0,88.0 L 64.0,85.0 L 74.0,79.0 L 82.0,70.0 L 86.0,62.0 L 88.0,53.0 L 88.0,40.0 L 84.0,29.0 L 77.0,20.0 L 70.0,14.0 L 60.0,9.0 L 53.0,8.0 L 40.0,8.0" fill="#FBFBFB"/>
	<path d="M 35.0,30.0 L 40.0,30.0 L 43.0,37.0 L 42.0,42.0 L 41.0,47.0 L 48.0,55.0 L 53.0,56.0 L 56.0,53.0 L 61.0,55.0 L 65.0,58.0 L 64.0,63.0 L 60.0,66.0 L 53.0,66.0 L 45.0,62.0 L 39.0,57.0 L 32.0,46.0 L 31.0,43.0 L 31.0,35.0 L 35.0,30.0" fill="#F4F4F4"/>
</svg>
