<?xml version="1.0" ?>
<svg baseProfile="full" height="600px" version="1.1" viewBox="-19.296000000000003 -19.296000000000003 230.592 230.592" width="600px" xmlns="http://www.w3.org/2000/svg" xmlns:ev="http://www.w3.org/2001/xml-events" xmlns:xlink="http://www.w3.org/1999/xlink">
	<defs/>
	<path d="M 0.0,0.0 L 192.0,0.0 L 192.0,192.0 L 0.0,192.0 L 0.0,0.0" fill="#FDFDFD"/>
	<path d="M 86.0,28.0 L 105.0,28.0 L 117.0,31.0 L 129.0,36.0 L 139.0,43.0 L 147.0,50.0 L 156.0,63.0 L 161.0,74.0 L 164.0,87.0 L 164.0,106.0 L 161.0,117.0 L 156.0,129.0 L 149.0,139.0 L 138.0,150.0 L 125.0,158.0 L 110.0,163.0 L 104.0,164.0 L 90.0,164.0 L 79.0,162.0 L 65.0,157.0 L 60.0,154.0 L 54.0,155.0 L 37.0,159.0 L 34.0,159.0 L 36.0,147.0 L 39.0,134.0 L 32.0,120.0 L 28.0,103.0 L 28.0,88.0 L 30.0,78.0 L 35.0,65.0 L 42.0,54.0 L 54.0,42.0 L 65.0,35.0 L 78.0,30.0 L 86.0,28.0" fill="#42C353"/>
	<path d="M 86.0,10.0 L 107.0,10.0 L 123.0,14.0 L 136.0,19.0 L 148.0,27.0 L 158.0,36.0 L 167.0,46.0 L 173.0,56.0 L 179.0,72.0 L 182.0,85.0 L 182.0,106.0 L 179.0,121.0 L 171.0,139.0 L 161.0,153.0 L 151.0,163.0 L 137.0,172.0 L 127.0,177.0 L 111.0,181.0 L 106.0,182.0 L 85.0,182.0 L 69.0,178.0 L 57.0,173.0 L 41.0,177.0 L 17.0,183.0 L 11.0,183.0 L 10.0,182.0 L 10.0,174.0 L 18.0,146.0 L 19.0,135.0 L 14.0,123.0 L 10.0,107.0 L 10.0,86.0 L 15.0,65.0 L 24.0,48.0 L 32.0,38.0 L 41.0,29.0 L 55.0,20.0 L 65.0,15.0 L 79.0,11.0 L 86.0,10.0 M 86.0,28.0 L 72.0,32.0 L 58.0,39.0 L 46.0,50.0 L 39.0,58.0 L 32.0,72.0 L 29.0,81.0 L 28.0,88.0 L 28.0,103.0 L 32.0,120.0 L 39.0,134.0 L 36.0,147.0 L 34.0,159.0 L 45.0,157.0 L 56.0,154.0 L 62.0,155.0 L 72.0,160.0 L 82.0,163.0 L 90.0,164.0 L 104.0,164.0 L 120.0,160.0 L 134.0,153.0 L 146.0,142.0 L 153.0,134.0 L 160.0,120.0 L 163.0,111.0 L 164.0,106.0 L 164.0,87.0 L 160.0,71.0 L 153.0,58.0 L 144.0,47.0 L 134.0,39.0 L 120.0,32.0 L 110.0,29.0 L 105.0,28.0 L 86.0,28.0" fill="#FBFDFC"/>
	<path d="M 61.0,55.0 L 72.0,55.0 L 78.0,67.0 L 81.0,75.0 L 80.0,82.0 L 75.0,87.0 L 75.0,92.0 L 85.0,105.0 L 96.0,113.0 L 104.0,117.0 L 109.0,117.0 L 117.0,107.0 L 124.0,108.0 L 140.0,116.0 L 141.0,117.0 L 141.0,125.0 L 138.0,132.0 L 131.0,137.0 L 126.0,139.0 L 116.0,139.0 L 104.0,136.0 L 93.0,131.0 L 83.0,125.0 L 71.0,114.0 L 63.0,105.0 L 54.0,91.0 L 51.0,82.0 L 51.0,68.0 L 57.0,58.0 L 61.0,55.0" fill="#FBFDFB"/>
	<path d="M 86.0,10.0 L 107.0,10.0 L 123.0,14.0 L 136.0,19.0 L 148.0,27.0 L 158.0,36.0 L 167.0,46.0 L 173.0,56.0 L 179.0,72.0 L 182.0,85.0 L 182.0,106.0 L 179.0,121.0 L 171.0,139.0 L 161.0,153.0 L 151.0,163.0 L 137.0,172.0 L 127.0,177.0 L 111.0,181.0 L 106.0,182.0 L 85.0,182.0 L 69.0,178.0 L 57.0,173.0 L 41.0,177.0 L 17.0,183.0 L 11.0,183.0 L 10.0,182.0 L 10.0,174.0 L 18.0,146.0 L 19.0,135.0 L 14.0,123.0 L 10.0,107.0 L 10.0,86.0 L 15.0,65.0 L 24.0,48.0 L 32.0,38.0 L 41.0,29.0 L 55.0,20.0 L 65.0,15.0 L 79.0,11.0 L 86.0,10.0 M 87.0,14.0 L 72.0,17.0 L 56.0,24.0 L 43.0,33.0 L 32.0,44.0 L 23.0,58.0 L 17.0,72.0 L 14.0,87.0 L 14.0,104.0 L 17.0,119.0 L 22.0,132.0 L 24.0,136.0 L 22.0,146.0 L 14.0,175.0 L 14.0,179.0 L 24.0,177.0 L 51.0,170.0 L 58.0,169.0 L 70.0,174.0 L 81.0,177.0 L 91.0,178.0 L 105.0,178.0 L 120.0,175.0 L 136.0,168.0 L 149.0,159.0 L 160.0,148.0 L 169.0,134.0 L 175.0,120.0 L 177.0,112.0 L 178.0,103.0 L 178.0,86.0 L 174.0,69.0 L 166.0,52.0 L 158.0,42.0 L 147.0,31.0 L 136.0,24.0 L 125.0,19.0 L 116.0,16.0 L 106.0,14.0 L 87.0,14.0" fill="#D2DADE"/>
</svg>
