<?xml version="1.0" ?>
<svg baseProfile="full" height="600px" version="1.1" viewBox="-20.1 -20.1 240.2 240.2" width="600px" xmlns="http://www.w3.org/2000/svg" xmlns:ev="http://www.w3.org/2001/xml-events" xmlns:xlink="http://www.w3.org/1999/xlink">
	<defs/>
	<path d="M 0.0,0.0 L 200.0,0.0 L 200.0,200.0 L 0.0,200.0 L 0.0,0.0" fill="#FCFCFC"/>
	<path d="M 0.0,0.0 L 200.0,0.0 L 200.0,200.0 L 0.0,200.0 L 0.0,0.0 M 90.0,8.0 L 77.0,10.0 L 63.0,15.0 L 50.0,22.0 L 37.0,32.0 L 30.0,39.0 L 20.0,53.0 L 12.0,70.0 L 9.0,81.0 L 8.0,90.0 L 8.0,113.0 L 14.0,134.0 L 18.0,143.0 L 18.0,150.0 L 14.0,163.0 L 8.0,186.0 L 9.0,192.0 L 16.0,192.0 L 55.0,182.0 L 59.0,183.0 L 74.0,189.0 L 87.0,192.0 L 110.0,192.0 L 123.0,190.0 L 139.0,184.0 L 150.0,178.0 L 163.0,168.0 L 170.0,161.0 L 180.0,147.0 L 187.0,132.0 L 191.0,118.0 L 192.0,110.0 L 192.0,90.0 L 190.0,77.0 L 184.0,61.0 L 176.0,47.0 L 167.0,36.0 L 156.0,26.0 L 143.0,18.0 L 129.0,12.0 L 113.0,8.0 L 90.0,8.0" fill="#FCFCFC"/>
	<path d="M 90.0,8.0 L 113.0,8.0 L 129.0,12.0 L 145.0,19.0 L 156.0,26.0 L 169.0,38.0 L 178.0,50.0 L 186.0,65.0 L 191.0,81.0 L 192.0,90.0 L 192.0,110.0 L 190.0,123.0 L 184.0,139.0 L 178.0,150.0 L 168.0,163.0 L 161.0,170.0 L 147.0,180.0 L 132.0,187.0 L 118.0,191.0 L 110.0,192.0 L 87.0,192.0 L 68.0,187.0 L 58.0,182.0 L 47.0,184.0 L 16.0,192.0 L 9.0,192.0 L 8.0,186.0 L 12.0,170.0 L 18.0,150.0 L 18.0,143.0 L 12.0,128.0 L 8.0,113.0 L 8.0,90.0 L 10.0,77.0 L 15.0,63.0 L 22.0,50.0 L 32.0,37.0 L 39.0,30.0 L 53.0,20.0 L 70.0,12.0 L 81.0,9.0 L 90.0,8.0 M 91.0,16.0 L 82.0,17.0 L 67.0,22.0 L 54.0,29.0 L 45.0,36.0 L 40.0,40.0 L 31.0,51.0 L 23.0,65.0 L 19.0,75.0 L 16.0,89.0 L 16.0,112.0 L 22.0,133.0 L 27.0,143.0 L 26.0,150.0 L 20.0,173.0 L 18.0,182.0 L 31.0,180.0 L 55.0,174.0 L 61.0,175.0 L 72.0,180.0 L 88.0,184.0 L 109.0,184.0 L 120.0,182.0 L 135.0,177.0 L 146.0,171.0 L 155.0,164.0 L 160.0,160.0 L 169.0,149.0 L 177.0,135.0 L 183.0,117.0 L 184.0,109.0 L 184.0,91.0 L 183.0,82.0 L 178.0,67.0 L 171.0,54.0 L 164.0,45.0 L 160.0,40.0 L 149.0,31.0 L 135.0,23.0 L 117.0,17.0 L 112.0,16.0 L 91.0,16.0" fill="#080808"/>
	<path d="M 68.0,54.0 L 81.0,54.0 L 95.0,58.0 L 107.0,63.0 L 119.0,70.0 L 134.0,83.0 L 144.0,94.0 L 151.0,105.0 L 154.0,114.0 L 154.0,124.0 L 151.0,134.0 L 144.0,143.0 L 139.0,145.0 L 128.0,145.0 L 123.0,140.0 L 113.0,121.0 L 114.0,114.0 L 118.0,108.0 L 117.0,103.0 L 110.0,95.0 L 98.0,87.0 L 86.0,83.0 L 84.0,88.0 L 77.0,96.0 L 71.0,96.0 L 50.0,88.0 L 46.0,84.0 L 46.0,74.0 L 48.0,67.0 L 56.0,59.0 L 64.0,55.0 L 68.0,54.0" fill="#090909"/>
	<path d="M 69.0,62.0 L 80.0,62.0 L 96.0,67.0 L 112.0,75.0 L 123.0,84.0 L 135.0,96.0 L 142.0,106.0 L 146.0,115.0 L 146.0,125.0 L 142.0,133.0 L 138.0,137.0 L 131.0,137.0 L 122.0,121.0 L 122.0,116.0 L 127.0,109.0 L 127.0,103.0 L 121.0,95.0 L 113.0,87.0 L 102.0,80.0 L 89.0,75.0 L 84.0,75.0 L 78.0,82.0 L 75.0,87.0 L 68.0,86.0 L 55.0,81.0 L 54.0,80.0 L 54.0,74.0 L 58.0,68.0 L 66.0,63.0 L 69.0,62.0" fill="#F7F7F7"/>
</svg>
