<?xml version="1.0" ?>
<svg baseProfile="full" height="600px" version="1.1" viewBox="-16.08 -16.08 192.16 192.16" width="600px" xmlns="http://www.w3.org/2000/svg" xmlns:ev="http://www.w3.org/2001/xml-events" xmlns:xlink="http://www.w3.org/1999/xlink">
	<defs/>
	<path d="M 0.0,0.0 L 160.0,0.0 L 160.0,160.0 L 0.0,160.0 L 0.0,0.0" fill="#EDF6FB"/>
	<path d="M 70.0,18.0 L 89.0,18.0 L 104.0,22.0 L 115.0,28.0 L 126.0,37.0 L 134.0,48.0 L 140.0,61.0 L 142.0,70.0 L 142.0,88.0 L 138.0,104.0 L 132.0,115.0 L 124.0,125.0 L 112.0,134.0 L 101.0,139.0 L 90.0,142.0 L 70.0,142.0 L 58.0,139.0 L 46.0,133.0 L 36.0,134.0 L 25.0,136.0 L 27.0,124.0 L 28.0,122.0 L 28.0,115.0 L 21.0,101.0 L 18.0,89.0 L 18.0,70.0 L 21.0,58.0 L 28.0,45.0 L 36.0,35.0 L 48.0,26.0 L 61.0,20.0 L 70.0,18.0" fill="#7ABA7F"/>
	<path d="M 0.0,0.0 L 160.0,0.0 L 160.0,160.0 L 0.0,160.0 L 0.0,0.0 M 71.0,1.0 L 54.0,5.0 L 38.0,13.0 L 29.0,20.0 L 22.0,26.0 L 12.0,40.0 L 5.0,55.0 L 2.0,67.0 L 2.0,89.0 L 4.0,101.0 L 11.0,118.0 L 9.0,128.0 L 4.0,148.0 L 2.0,154.0 L 2.0,159.0 L 13.0,157.0 L 33.0,152.0 L 39.0,150.0 L 46.0,151.0 L 59.0,156.0 L 68.0,158.0 L 90.0,158.0 L 104.0,155.0 L 120.0,148.0 L 131.0,140.0 L 137.0,135.0 L 147.0,122.0 L 154.0,108.0 L 159.0,89.0 L 159.0,70.0 L 155.0,53.0 L 147.0,37.0 L 139.0,27.0 L 130.0,18.0 L 116.0,9.0 L 100.0,3.0 L 90.0,1.0 L 71.0,1.0" fill="#FCFCFC"/>
	<path d="M 49.0,40.0 L 56.0,40.0 L 60.0,44.0 L 66.0,59.0 L 66.0,65.0 L 60.0,72.0 L 61.0,77.0 L 69.0,87.0 L 76.0,93.0 L 84.0,98.0 L 89.0,100.0 L 93.0,99.0 L 101.0,90.0 L 107.0,91.0 L 123.0,99.0 L 123.0,109.0 L 120.0,114.0 L 112.0,119.0 L 109.0,120.0 L 96.0,120.0 L 81.0,115.0 L 71.0,109.0 L 61.0,101.0 L 53.0,93.0 L 42.0,78.0 L 37.0,65.0 L 37.0,55.0 L 42.0,45.0 L 47.0,41.0 L 49.0,40.0" fill="#FBFCFB"/>
	<path d="M 71.0,1.0 L 90.0,1.0 L 106.0,5.0 L 118.0,10.0 L 131.0,19.0 L 142.0,30.0 L 151.0,44.0 L 156.0,56.0 L 159.0,70.0 L 159.0,89.0 L 154.0,108.0 L 146.0,124.0 L 135.0,137.0 L 122.0,147.0 L 107.0,154.0 L 97.0,157.0 L 90.0,158.0 L 68.0,158.0 L 53.0,154.0 L 44.0,150.0 L 35.0,151.0 L 20.0,155.0 L 5.0,159.0 L 2.0,159.0 L 3.0,150.0 L 8.0,132.0 L 11.0,121.0 L 10.0,116.0 L 4.0,101.0 L 2.0,89.0 L 2.0,67.0 L 6.0,52.0 L 15.0,35.0 L 26.0,22.0 L 38.0,13.0 L 54.0,5.0 L 71.0,1.0 M 72.0,5.0 L 55.0,9.0 L 41.0,16.0 L 32.0,23.0 L 26.0,28.0 L 17.0,40.0 L 10.0,54.0 L 6.0,69.0 L 6.0,86.0 L 8.0,98.0 L 11.0,107.0 L 16.0,119.0 L 10.0,141.0 L 8.0,148.0 L 8.0,153.0 L 15.0,152.0 L 39.0,146.0 L 44.0,145.0 L 57.0,151.0 L 70.0,154.0 L 89.0,154.0 L 99.0,152.0 L 115.0,146.0 L 126.0,139.0 L 134.0,132.0 L 142.0,122.0 L 150.0,107.0 L 154.0,93.0 L 155.0,86.0 L 155.0,71.0 L 151.0,55.0 L 143.0,39.0 L 136.0,30.0 L 127.0,21.0 L 116.0,14.0 L 105.0,9.0 L 99.0,7.0 L 88.0,5.0 L 72.0,5.0" fill="#8092A2"/>
</svg>
