<?xml version="1.0" ?>
<svg baseProfile="full" height="600px" version="1.1" viewBox="-19.296000000000003 -19.296000000000003 230.592 230.592" width="600px" xmlns="http://www.w3.org/2000/svg" xmlns:ev="http://www.w3.org/2001/xml-events" xmlns:xlink="http://www.w3.org/1999/xlink">
	<defs/>
	<path d="M 0.0,0.0 L 192.0,0.0 L 192.0,192.0 L 0.0,192.0 L 0.0,0.0" fill="#FDFEFE"/>
	<path d="M 84.0,92.0 L 107.0,92.0 L 122.0,96.0 L 138.0,104.0 L 146.0,111.0 L 144.0,115.0 L 133.0,127.0 L 122.0,139.0 L 116.0,140.0 L 111.0,136.0 L 104.0,133.0 L 89.0,133.0 L 79.0,137.0 L 76.0,140.0 L 69.0,138.0 L 62.0,131.0 L 55.0,123.0 L 46.0,113.0 L 48.0,109.0 L 59.0,101.0 L 72.0,95.0 L 84.0,92.0" fill="#2397F3"/>
	<path d="M 92.0,148.0 L 99.0,148.0 L 105.0,151.0 L 108.0,156.0 L 108.0,164.0 L 105.0,169.0 L 99.0,172.0 L 92.0,172.0 L 85.0,166.0 L 84.0,163.0 L 84.0,156.0 L 87.0,151.0 L 92.0,148.0" fill="#2698F3"/>
</svg>
