<?xml version="1.0" ?>
<svg baseProfile="full" height="600px" version="1.1" viewBox="-20.1 -20.1 240.2 240.2" width="600px" xmlns="http://www.w3.org/2000/svg" xmlns:ev="http://www.w3.org/2001/xml-events" xmlns:xlink="http://www.w3.org/1999/xlink">
	<defs/>
	<path d="M 0.0,0.0 L 200.0,0.0 L 200.0,200.0 L 0.0,200.0 L 0.0,0.0" fill="#FDFDFD"/>
	<path d="M 92.0,130.0 L 105.0,130.0 L 117.0,133.0 L 129.0,140.0 L 133.0,144.0 L 131.0,148.0 L 121.0,158.0 L 114.0,166.0 L 101.0,179.0 L 97.0,177.0 L 80.0,160.0 L 73.0,152.0 L 67.0,146.0 L 69.0,142.0 L 79.0,135.0 L 88.0,131.0 L 92.0,130.0" fill="#070707"/>
	<path d="M 88.0,114.0 L 111.0,114.0 L 124.0,119.0 L 133.0,125.0 L 137.0,128.0 L 136.0,132.0 L 129.0,139.0 L 120.0,133.0 L 112.0,129.0 L 109.0,128.0 L 91.0,128.0 L 81.0,132.0 L 72.0,139.0 L 65.0,133.0 L 63.0,131.0 L 63.0,128.0 L 74.0,120.0 L 85.0,115.0 L 88.0,114.0" fill="#0E0E0E"/>
	<path d="M 93.0,138.0 L 106.0,138.0 L 119.0,143.0 L 121.0,147.0 L 105.0,163.0 L 101.0,168.0 L 97.0,166.0 L 88.0,156.0 L 78.0,146.0 L 81.0,143.0 L 93.0,138.0" fill="#F9F9F9"/>
	<path d="M 91.0,118.0 L 108.0,118.0 L 118.0,121.0 L 129.0,127.0 L 131.0,130.0 L 127.0,132.0 L 119.0,127.0 L 107.0,123.0 L 94.0,123.0 L 81.0,127.0 L 73.0,132.0 L 69.0,130.0 L 74.0,125.0 L 87.0,119.0 L 91.0,118.0" fill="#EFEFEF"/>
	<path d="M 91.0,127.0 L 109.0,127.0 L 119.0,131.0 L 128.0,138.0 L 127.0,140.0 L 117.0,134.0 L 105.0,131.0 L 92.0,131.0 L 81.0,135.0 L 72.0,140.0 L 74.0,136.0 L 85.0,129.0 L 91.0,127.0" fill="#E4E4E4"/>
	<path d="M 83.0,130.0 L 85.0,131.0 L 85.0,133.0 L 74.0,139.0 L 72.0,140.0 L 74.0,136.0 L 83.0,130.0" fill="#D6D6D6"/>
	<path d="M 88.0,128.0 L 91.0,129.0 L 88.0,132.0 L 84.0,131.0 L 85.0,129.0 L 88.0,128.0" fill="#EBEBEB"/>
</svg>
