<?xml version="1.0" ?>
<svg baseProfile="full" height="600px" version="1.1" viewBox="-12.06 -12.06 144.12 144.12" width="600px" xmlns="http://www.w3.org/2000/svg" xmlns:ev="http://www.w3.org/2001/xml-events" xmlns:xlink="http://www.w3.org/1999/xlink">
	<defs/>
	<path d="M 0.0,0.0 L 120.0,0.0 L 120.0,120.0 L 0.0,120.0 L 0.0,0.0" fill="#FCFCFC"/>
	<path d="M 52.0,20.0 L 69.0,20.0 L 81.0,22.0 L 96.0,28.0 L 106.0,34.0 L 116.0,42.0 L 115.0,46.0 L 104.0,57.0 L 100.0,56.0 L 91.0,49.0 L 80.0,44.0 L 74.0,42.0 L 66.0,41.0 L 52.0,41.0 L 40.0,44.0 L 26.0,51.0 L 19.0,57.0 L 15.0,56.0 L 4.0,45.0 L 5.0,41.0 L 17.0,32.0 L 33.0,24.0 L 43.0,21.0 L 52.0,20.0" fill="#050505"/>
	<path d="M 54.0,48.0 L 67.0,48.0 L 79.0,51.0 L 90.0,57.0 L 96.0,62.0 L 94.0,66.0 L 83.0,77.0 L 72.0,71.0 L 64.0,69.0 L 53.0,69.0 L 44.0,73.0 L 37.0,77.0 L 26.0,66.0 L 24.0,65.0 L 25.0,61.0 L 33.0,55.0 L 43.0,50.0 L 54.0,48.0" fill="#030303"/>
	<path d="M 54.0,76.0 L 65.0,76.0 L 74.0,80.0 L 77.0,82.0 L 75.0,86.0 L 61.0,100.0 L 57.0,98.0 L 43.0,84.0 L 43.0,82.0 L 51.0,77.0 L 54.0,76.0" fill="#0C0C0C"/>
</svg>
