<?xml version="1.0" ?>
<svg baseProfile="full" height="600px" version="1.1" viewBox="-16.08 -16.08 192.16 192.16" width="600px" xmlns="http://www.w3.org/2000/svg" xmlns:ev="http://www.w3.org/2001/xml-events" xmlns:xlink="http://www.w3.org/1999/xlink">
	<defs/>
	<path d="M 0.0,0.0 L 160.0,0.0 L 160.0,160.0 L 0.0,160.0 L 0.0,0.0" fill="#FCFDFD"/>
	<path d="M 0.0,0.0 L 160.0,0.0 L 160.0,45.0 L 152.0,39.0 L 138.0,29.0 L 121.0,21.0 L 106.0,16.0 L 92.0,14.0 L 68.0,14.0 L 50.0,17.0 L 31.0,24.0 L 16.0,33.0 L 6.0,41.0 L 0.0,45.0 L 0.0,0.0" fill="#FCFCFD"/>
	<path d="M 68.0,13.0 L 92.0,13.0 L 109.0,16.0 L 126.0,22.0 L 141.0,30.0 L 153.0,39.0 L 160.0,45.0 L 160.0,47.0 L 152.0,54.0 L 145.0,60.0 L 136.0,52.0 L 123.0,44.0 L 106.0,37.0 L 89.0,34.0 L 69.0,34.0 L 51.0,38.0 L 39.0,43.0 L 27.0,50.0 L 16.0,59.0 L 13.0,59.0 L 0.0,46.0 L 5.0,41.0 L 13.0,34.0 L 26.0,26.0 L 38.0,20.0 L 54.0,15.0 L 68.0,13.0" fill="#88B4ED"/>
	<path d="M 71.0,47.0 L 86.0,47.0 L 103.0,50.0 L 117.0,56.0 L 130.0,65.0 L 134.0,69.0 L 132.0,73.0 L 121.0,84.0 L 117.0,82.0 L 107.0,75.0 L 93.0,70.0 L 88.0,69.0 L 71.0,69.0 L 60.0,72.0 L 48.0,78.0 L 41.0,84.0 L 37.0,82.0 L 26.0,71.0 L 28.0,67.0 L 38.0,59.0 L 54.0,51.0 L 71.0,47.0" fill="#88B4ED"/>
	<path d="M 68.0,13.0 L 92.0,13.0 L 109.0,16.0 L 126.0,22.0 L 141.0,30.0 L 153.0,39.0 L 160.0,45.0 L 160.0,47.0 L 152.0,54.0 L 145.0,60.0 L 136.0,52.0 L 123.0,44.0 L 106.0,37.0 L 89.0,34.0 L 69.0,34.0 L 51.0,38.0 L 39.0,43.0 L 27.0,50.0 L 16.0,59.0 L 13.0,59.0 L 0.0,46.0 L 5.0,41.0 L 13.0,34.0 L 26.0,26.0 L 38.0,20.0 L 54.0,15.0 L 68.0,13.0 M 70.0,17.0 L 51.0,20.0 L 35.0,26.0 L 22.0,33.0 L 11.0,41.0 L 6.0,45.0 L 8.0,49.0 L 13.0,54.0 L 18.0,52.0 L 30.0,43.0 L 47.0,35.0 L 62.0,31.0 L 67.0,30.0 L 90.0,30.0 L 107.0,33.0 L 124.0,40.0 L 139.0,49.0 L 145.0,54.0 L 149.0,52.0 L 154.0,47.0 L 154.0,45.0 L 144.0,37.0 L 131.0,29.0 L 120.0,24.0 L 105.0,19.0 L 93.0,17.0 L 70.0,17.0" fill="#547FB8"/>
	<path d="M 74.0,90.0 L 85.0,90.0 L 98.0,94.0 L 108.0,101.0 L 106.0,105.0 L 81.0,130.0 L 77.0,128.0 L 52.0,103.0 L 54.0,99.0 L 64.0,93.0 L 74.0,90.0" fill="#89B5EE"/>
	<path d="M 71.0,47.0 L 86.0,47.0 L 103.0,50.0 L 117.0,56.0 L 130.0,65.0 L 134.0,69.0 L 132.0,73.0 L 121.0,84.0 L 117.0,82.0 L 107.0,75.0 L 93.0,70.0 L 88.0,69.0 L 71.0,69.0 L 60.0,72.0 L 48.0,78.0 L 41.0,84.0 L 37.0,82.0 L 26.0,71.0 L 28.0,67.0 L 38.0,59.0 L 54.0,51.0 L 71.0,47.0 M 67.0,52.0 L 53.0,56.0 L 41.0,62.0 L 32.0,69.0 L 32.0,72.0 L 38.0,78.0 L 42.0,77.0 L 56.0,69.0 L 68.0,65.0 L 89.0,65.0 L 99.0,67.0 L 115.0,75.0 L 119.0,78.0 L 123.0,76.0 L 128.0,71.0 L 126.0,67.0 L 115.0,60.0 L 103.0,55.0 L 98.0,53.0 L 92.0,52.0 L 67.0,52.0" fill="#5681B9"/>
	<path d="M 74.0,90.0 L 85.0,90.0 L 98.0,94.0 L 108.0,101.0 L 106.0,105.0 L 81.0,130.0 L 77.0,128.0 L 52.0,103.0 L 54.0,99.0 L 64.0,93.0 L 74.0,90.0 M 72.0,95.0 L 63.0,98.0 L 58.0,101.0 L 60.0,105.0 L 79.0,124.0 L 83.0,122.0 L 102.0,103.0 L 97.0,98.0 L 88.0,95.0 L 72.0,95.0" fill="#5781BA"/>
</svg>
