<?xml version="1.0" ?>
<svg baseProfile="full" height="600px" version="1.1" viewBox="-19.296000000000003 -19.296000000000003 230.592 230.592" width="600px" xmlns="http://www.w3.org/2000/svg" xmlns:ev="http://www.w3.org/2001/xml-events" xmlns:xlink="http://www.w3.org/1999/xlink">
	<defs/>
	<path d="M 0.0,0.0 L 192.0,0.0 L 192.0,192.0 L 0.0,192.0 L 0.0,0.0" fill="#FCFDFE"/>
	<path d="M 82.0,40.0 L 107.0,40.0 L 126.0,43.0 L 139.0,47.0 L 157.0,55.0 L 172.0,65.0 L 184.0,75.0 L 178.0,82.0 L 170.0,90.0 L 162.0,84.0 L 153.0,77.0 L 137.0,69.0 L 122.0,64.0 L 108.0,61.0 L 83.0,61.0 L 62.0,66.0 L 46.0,73.0 L 32.0,82.0 L 23.0,90.0 L 21.0,90.0 L 14.0,82.0 L 8.0,75.0 L 21.0,64.0 L 39.0,53.0 L 56.0,46.0 L 75.0,41.0 L 82.0,40.0" fill="#2498F3"/>
	<path d="M 84.0,76.0 L 105.0,76.0 L 118.0,78.0 L 134.0,84.0 L 148.0,92.0 L 158.0,100.0 L 156.0,104.0 L 145.0,115.0 L 141.0,113.0 L 131.0,106.0 L 120.0,101.0 L 106.0,97.0 L 87.0,97.0 L 71.0,101.0 L 59.0,107.0 L 50.0,114.0 L 46.0,114.0 L 34.0,102.0 L 36.0,98.0 L 47.0,90.0 L 62.0,82.0 L 78.0,77.0 L 84.0,76.0" fill="#2498F3"/>
	<path d="M 88.0,112.0 L 105.0,112.0 L 120.0,117.0 L 131.0,124.0 L 133.0,127.0 L 123.0,137.0 L 120.0,141.0 L 116.0,139.0 L 108.0,135.0 L 102.0,133.0 L 89.0,133.0 L 79.0,137.0 L 74.0,141.0 L 70.0,139.0 L 63.0,131.0 L 59.0,126.0 L 70.0,118.0 L 79.0,114.0 L 88.0,112.0" fill="#2598F3"/>
	<path d="M 92.0,148.0 L 99.0,148.0 L 105.0,151.0 L 108.0,156.0 L 108.0,164.0 L 105.0,169.0 L 99.0,172.0 L 92.0,172.0 L 85.0,166.0 L 84.0,163.0 L 84.0,156.0 L 87.0,151.0 L 92.0,148.0" fill="#2698F3"/>
</svg>
