<?xml version="1.0" ?>
<svg baseProfile="full" height="600px" version="1.1" viewBox="-19.296000000000003 -19.296000000000003 230.592 230.592" width="600px" xmlns="http://www.w3.org/2000/svg" xmlns:ev="http://www.w3.org/2001/xml-events" xmlns:xlink="http://www.w3.org/1999/xlink">
	<defs/>
	<path d="M 0.0,0.0 L 192.0,0.0 L 192.0,192.0 L 0.0,192.0 L 0.0,0.0" fill="#FCFDFE"/>
	<path d="M 0.0,0.0 L 192.0,0.0 L 192.0,66.0 L 184.0,60.0 L 172.0,51.0 L 156.0,42.0 L 139.0,35.0 L 128.0,32.0 L 118.0,30.0 L 105.0,29.0 L 82.0,29.0 L 64.0,32.0 L 43.0,39.0 L 27.0,47.0 L 13.0,56.0 L 1.0,66.0 L 0.0,66.0 L 0.0,0.0" fill="#FCFEFE"/>
	<path d="M 82.0,28.0 L 105.0,28.0 L 118.0,29.0 L 139.0,34.0 L 162.0,44.0 L 178.0,54.0 L 192.0,66.0 L 190.0,70.0 L 182.0,78.0 L 178.0,83.0 L 176.0,83.0 L 171.0,78.0 L 159.0,69.0 L 142.0,60.0 L 125.0,54.0 L 108.0,51.0 L 83.0,51.0 L 67.0,54.0 L 52.0,59.0 L 36.0,67.0 L 22.0,77.0 L 14.0,83.0 L 6.0,75.0 L 0.0,68.0 L 2.0,64.0 L 14.0,54.0 L 27.0,46.0 L 43.0,38.0 L 64.0,31.0 L 82.0,28.0" fill="#2498F3"/>
	<path d="M 86.0,68.0 L 109.0,68.0 L 125.0,72.0 L 140.0,78.0 L 151.0,85.0 L 161.0,93.0 L 159.0,97.0 L 152.0,104.0 L 148.0,109.0 L 144.0,107.0 L 134.0,100.0 L 124.0,95.0 L 112.0,91.0 L 104.0,90.0 L 88.0,90.0 L 73.0,93.0 L 61.0,98.0 L 48.0,107.0 L 44.0,109.0 L 32.0,96.0 L 32.0,92.0 L 45.0,82.0 L 61.0,74.0 L 77.0,69.0 L 86.0,68.0" fill="#2498F3"/>
	<path d="M 88.0,104.0 L 105.0,104.0 L 120.0,109.0 L 131.0,116.0 L 133.0,119.0 L 123.0,129.0 L 120.0,133.0 L 116.0,131.0 L 108.0,127.0 L 102.0,125.0 L 89.0,125.0 L 79.0,129.0 L 74.0,133.0 L 70.0,131.0 L 63.0,123.0 L 59.0,118.0 L 70.0,110.0 L 79.0,106.0 L 88.0,104.0" fill="#2598F3"/>
	<path d="M 92.0,144.0 L 99.0,144.0 L 104.0,147.0 L 108.0,152.0 L 108.0,159.0 L 105.0,165.0 L 99.0,168.0 L 92.0,168.0 L 85.0,162.0 L 84.0,159.0 L 84.0,152.0 L 87.0,147.0 L 92.0,144.0" fill="#2598F3"/>
</svg>
