<?xml version="1.0" ?>
<svg baseProfile="full" height="600px" version="1.1" viewBox="-12.06 -12.06 144.12 144.12" width="600px" xmlns="http://www.w3.org/2000/svg" xmlns:ev="http://www.w3.org/2001/xml-events" xmlns:xlink="http://www.w3.org/1999/xlink">
	<defs/>
	<path d="M 0.0,0.0 L 120.0,0.0 L 120.0,120.0 L 0.0,120.0 L 0.0,0.0" fill="#FCFCFC"/>
	<path d="M 51.0,5.0 L 67.0,5.0 L 80.0,7.0 L 96.0,13.0 L 107.0,20.0 L 116.0,28.0 L 114.0,32.0 L 103.0,43.0 L 95.0,37.0 L 84.0,31.0 L 77.0,28.0 L 67.0,26.0 L 53.0,26.0 L 40.0,29.0 L 26.0,36.0 L 18.0,43.0 L 11.0,37.0 L 4.0,30.0 L 6.0,26.0 L 14.0,19.0 L 26.0,12.0 L 44.0,6.0 L 51.0,5.0" fill="#040404"/>
	<path d="M 51.0,47.0 L 69.0,47.0 L 81.0,51.0 L 93.0,58.0 L 97.0,63.0 L 84.0,76.0 L 79.0,74.0 L 67.0,68.0 L 53.0,68.0 L 41.0,74.0 L 36.0,76.0 L 23.0,63.0 L 27.0,58.0 L 37.0,52.0 L 43.0,49.0 L 51.0,47.0" fill="#060606"/>
	<path d="M 54.0,76.0 L 65.0,76.0 L 74.0,80.0 L 77.0,82.0 L 75.0,86.0 L 61.0,100.0 L 57.0,98.0 L 43.0,84.0 L 43.0,82.0 L 51.0,77.0 L 54.0,76.0" fill="#0C0C0C"/>
</svg>
