<?xml version="1.0" ?>
<svg baseProfile="full" height="600px" version="1.1" viewBox="-12.864 -12.864 153.728 153.728" width="600px" xmlns="http://www.w3.org/2000/svg" xmlns:ev="http://www.w3.org/2001/xml-events" xmlns:xlink="http://www.w3.org/1999/xlink">
	<defs/>
	<path d="M 0.0,0.0 L 128.0,0.0 L 128.0,128.0 L 0.0,128.0 L 0.0,0.0" fill="#FCFCFC"/>
	<path d="M 53.0,28.0 L 73.0,28.0 L 89.0,32.0 L 105.0,40.0 L 115.0,49.0 L 110.0,55.0 L 102.0,49.0 L 90.0,42.0 L 78.0,38.0 L 70.0,37.0 L 54.0,37.0 L 38.0,42.0 L 26.0,49.0 L 18.0,55.0 L 13.0,49.0 L 23.0,40.0 L 38.0,32.0 L 53.0,28.0" fill="#080808"/>
	<path d="M 55.0,44.0 L 73.0,44.0 L 83.0,47.0 L 94.0,53.0 L 101.0,59.0 L 96.0,65.0 L 91.0,62.0 L 81.0,56.0 L 76.0,54.0 L 70.0,53.0 L 56.0,53.0 L 45.0,57.0 L 36.0,63.0 L 32.0,65.0 L 27.0,59.0 L 34.0,53.0 L 48.0,46.0 L 55.0,44.0" fill="#080808"/>
	<path d="M 56.0,67.0 L 72.0,67.0 L 80.0,71.0 L 84.0,74.0 L 83.0,78.0 L 79.0,80.0 L 70.0,75.0 L 58.0,75.0 L 52.0,78.0 L 47.0,80.0 L 44.0,77.0 L 45.0,73.0 L 53.0,68.0 L 56.0,67.0" fill="#0B0B0B"/>
	<path d="M 60.0,86.0 L 67.0,86.0 L 73.0,89.0 L 71.0,93.0 L 65.0,99.0 L 61.0,97.0 L 56.0,92.0 L 57.0,88.0 L 60.0,86.0" fill="#141414"/>
</svg>
