<?xml version="1.0" ?>
<svg baseProfile="full" height="600px" version="1.1" viewBox="-12.864 -12.864 153.728 153.728" width="600px" xmlns="http://www.w3.org/2000/svg" xmlns:ev="http://www.w3.org/2001/xml-events" xmlns:xlink="http://www.w3.org/1999/xlink">
	<defs/>
	<path d="M 0.0,0.0 L 128.0,0.0 L 128.0,128.0 L 0.0,128.0 L 0.0,0.0" fill="#FCFCFC"/>
	<path d="M 53.0,28.0 L 73.0,28.0 L 89.0,32.0 L 105.0,40.0 L 115.0,49.0 L 110.0,55.0 L 102.0,49.0 L 90.0,42.0 L 78.0,38.0 L 70.0,37.0 L 54.0,37.0 L 38.0,42.0 L 26.0,49.0 L 18.0,55.0 L 13.0,49.0 L 23.0,40.0 L 38.0,32.0 L 53.0,28.0" fill="#080808"/>
	<path d="M 55.0,48.0 L 73.0,48.0 L 83.0,51.0 L 94.0,57.0 L 101.0,63.0 L 96.0,69.0 L 91.0,66.0 L 81.0,60.0 L 76.0,58.0 L 70.0,57.0 L 56.0,57.0 L 45.0,61.0 L 36.0,67.0 L 32.0,69.0 L 27.0,63.0 L 34.0,57.0 L 48.0,50.0 L 55.0,48.0" fill="#080808"/>
	<path d="M 57.0,68.0 L 71.0,68.0 L 85.0,75.0 L 87.0,79.0 L 82.0,83.0 L 78.0,81.0 L 69.0,77.0 L 58.0,77.0 L 50.0,81.0 L 46.0,83.0 L 41.0,77.0 L 51.0,70.0 L 57.0,68.0" fill="#090909"/>
	<path d="M 60.0,88.0 L 67.0,88.0 L 72.0,91.0 L 70.0,95.0 L 65.0,100.0 L 61.0,98.0 L 56.0,93.0 L 58.0,89.0 L 60.0,88.0" fill="#040404"/>
</svg>
