<?xml version="1.0" ?>
<svg baseProfile="full" height="600px" version="1.1" viewBox="-9.648000000000001 -9.648000000000001 115.296 115.296" width="600px" xmlns="http://www.w3.org/2000/svg" xmlns:ev="http://www.w3.org/2001/xml-events" xmlns:xlink="http://www.w3.org/1999/xlink">
	<defs/>
	<path d="M 0.0,0.0 L 96.0,0.0 L 96.0,96.0 L 0.0,96.0 L 0.0,0.0" fill="#FDFDFD"/>
	<path d="M 84.0,54.0 L 88.0,55.0 L 88.0,64.0 L 85.0,70.0 L 79.0,75.0 L 77.0,76.0 L 67.0,76.0 L 61.0,72.0 L 57.0,67.0 L 56.0,60.0 L 64.0,60.0 L 67.0,66.0 L 69.0,67.0 L 75.0,67.0 L 79.0,63.0 L 80.0,56.0 L 84.0,54.0" fill="#080808"/>
	<path d="M 20.0,74.0 L 28.0,74.0 L 31.0,79.0 L 30.0,84.0 L 29.0,86.0 L 25.0,85.0 L 21.0,80.0 L 20.0,74.0" fill="#060606"/>
	<path d="M 44.0,17.0 L 50.0,18.0 L 52.0,19.0 L 52.0,22.0 L 44.0,22.0 L 44.0,17.0" fill="#0F0F0F"/>
</svg>
