<?xml version="1.0" ?>
<svg baseProfile="full" height="600px" version="1.1" viewBox="-19.296000000000003 -19.296000000000003 230.592 230.592" width="600px" xmlns="http://www.w3.org/2000/svg" xmlns:ev="http://www.w3.org/2001/xml-events" xmlns:xlink="http://www.w3.org/1999/xlink">
	<defs/>
	<path d="M 0.0,0.0 L 192.0,0.0 L 192.0,192.0 L 0.0,192.0 L 0.0,0.0" fill="#FDFEFE"/>
	<path d="M 112.0,28.0 L 123.0,28.0 L 133.0,31.0 L 142.0,37.0 L 148.0,45.0 L 152.0,55.0 L 152.0,68.0 L 161.0,70.0 L 170.0,77.0 L 176.0,89.0 L 176.0,100.0 L 173.0,109.0 L 167.0,117.0 L 161.0,121.0 L 152.0,124.0 L 147.0,124.0 L 152.0,134.0 L 152.0,145.0 L 147.0,155.0 L 140.0,161.0 L 132.0,164.0 L 122.0,164.0 L 114.0,160.0 L 107.0,152.0 L 105.0,148.0 L 106.0,144.0 L 107.0,143.0 L 112.0,143.0 L 118.0,152.0 L 123.0,155.0 L 132.0,155.0 L 140.0,150.0 L 143.0,144.0 L 143.0,136.0 L 139.0,129.0 L 132.0,125.0 L 38.0,124.0 L 30.0,121.0 L 21.0,113.0 L 17.0,106.0 L 16.0,101.0 L 16.0,90.0 L 20.0,81.0 L 27.0,73.0 L 35.0,69.0 L 44.0,68.0 L 44.0,60.0 L 49.0,50.0 L 57.0,43.0 L 64.0,40.0 L 75.0,40.0 L 85.0,44.0 L 87.0,46.0 L 94.0,37.0 L 103.0,31.0 L 112.0,28.0" fill="#BADDFB"/>
	<path d="M 46.0,116.0 L 133.0,116.0 L 142.0,120.0 L 150.0,129.0 L 152.0,134.0 L 152.0,145.0 L 147.0,155.0 L 140.0,161.0 L 132.0,164.0 L 122.0,164.0 L 114.0,160.0 L 107.0,152.0 L 105.0,148.0 L 106.0,144.0 L 107.0,143.0 L 112.0,143.0 L 118.0,152.0 L 123.0,155.0 L 132.0,155.0 L 140.0,150.0 L 143.0,144.0 L 143.0,136.0 L 139.0,129.0 L 132.0,125.0 L 46.0,124.0 L 44.0,122.0 L 45.0,117.0 L 46.0,116.0" fill="#2498F3"/>
	<path d="M 96.0,68.0 L 105.0,68.0 L 113.0,72.0 L 119.0,80.0 L 120.0,83.0 L 120.0,92.0 L 116.0,101.0 L 110.0,106.0 L 105.0,108.0 L 59.0,108.0 L 58.0,107.0 L 58.0,101.0 L 60.0,100.0 L 103.0,99.0 L 108.0,96.0 L 111.0,91.0 L 111.0,84.0 L 106.0,78.0 L 104.0,77.0 L 96.0,77.0 L 90.0,82.0 L 87.0,86.0 L 82.0,85.0 L 81.0,80.0 L 87.0,72.0 L 92.0,69.0 L 96.0,68.0" fill="#2598F3"/>
	<path d="M 38.0,132.0 L 75.0,132.0 L 82.0,135.0 L 87.0,141.0 L 88.0,143.0 L 88.0,152.0 L 85.0,158.0 L 79.0,163.0 L 77.0,164.0 L 67.0,164.0 L 61.0,160.0 L 58.0,157.0 L 58.0,151.0 L 59.0,150.0 L 64.0,150.0 L 69.0,155.0 L 75.0,155.0 L 78.0,154.0 L 79.0,145.0 L 78.0,142.0 L 74.0,141.0 L 38.0,140.0 L 36.0,138.0 L 37.0,133.0 L 38.0,132.0" fill="#2698F3"/>
</svg>
