<?xml version="1.0" ?>
<svg baseProfile="full" height="600px" version="1.1" viewBox="-12.864 -12.864 153.728 153.728" width="600px" xmlns="http://www.w3.org/2000/svg" xmlns:ev="http://www.w3.org/2001/xml-events" xmlns:xlink="http://www.w3.org/1999/xlink">
	<defs/>
	<path d="M 0.0,0.0 L 128.0,0.0 L 128.0,128.0 L 0.0,128.0 L 0.0,0.0" fill="#FBFBFB"/>
	<path d="M 0.0,0.0 L 128.0,0.0 L 128.0,62.0 L 126.0,59.0 L 122.0,53.0 L 116.0,47.0 L 113.0,37.0 L 106.0,29.0 L 97.0,25.0 L 87.0,24.0 L 78.0,16.0 L 69.0,13.0 L 58.0,13.0 L 49.0,17.0 L 42.0,23.0 L 36.0,34.0 L 29.0,39.0 L 26.0,44.0 L 15.0,46.0 L 9.0,50.0 L 3.0,57.0 L 1.0,62.0 L 0.0,62.0 L 0.0,0.0" fill="#FCFCFC"/>
	<path d="M 58.0,12.0 L 69.0,12.0 L 78.0,15.0 L 87.0,23.0 L 100.0,25.0 L 107.0,29.0 L 114.0,37.0 L 117.0,47.0 L 125.0,55.0 L 128.0,62.0 L 128.0,73.0 L 124.0,82.0 L 117.0,89.0 L 109.0,92.0 L 98.0,92.0 L 94.0,84.0 L 107.0,83.0 L 115.0,79.0 L 119.0,71.0 L 119.0,63.0 L 114.0,56.0 L 108.0,53.0 L 107.0,43.0 L 102.0,36.0 L 97.0,33.0 L 88.0,33.0 L 83.0,34.0 L 77.0,25.0 L 68.0,21.0 L 59.0,21.0 L 50.0,26.0 L 46.0,32.0 L 44.0,40.0 L 37.0,43.0 L 33.0,48.0 L 32.0,53.0 L 19.0,53.0 L 13.0,57.0 L 9.0,63.0 L 9.0,72.0 L 13.0,79.0 L 20.0,83.0 L 24.0,84.0 L 24.0,92.0 L 15.0,91.0 L 7.0,85.0 L 2.0,79.0 L 0.0,73.0 L 0.0,62.0 L 4.0,54.0 L 11.0,47.0 L 18.0,44.0 L 26.0,44.0 L 28.0,39.0 L 36.0,33.0 L 41.0,23.0 L 50.0,15.0 L 58.0,12.0" fill="#070707"/>
	<path d="M 47.0,84.0 L 81.0,84.0 L 87.0,88.0 L 91.0,93.0 L 92.0,95.0 L 92.0,104.0 L 89.0,110.0 L 83.0,115.0 L 81.0,116.0 L 71.0,116.0 L 65.0,112.0 L 61.0,107.0 L 61.0,105.0 L 66.0,103.0 L 69.0,103.0 L 73.0,107.0 L 79.0,107.0 L 83.0,103.0 L 83.0,97.0 L 81.0,94.0 L 78.0,93.0 L 56.0,92.0 L 56.0,99.0 L 53.0,105.0 L 47.0,108.0 L 40.0,108.0 L 34.0,103.0 L 34.0,101.0 L 39.0,98.0 L 46.0,99.0 L 47.0,94.0 L 46.0,93.0 L 47.0,84.0" fill="#060606"/>
	<path d="M 58.0,48.0 L 65.0,48.0 L 71.0,51.0 L 74.0,54.0 L 74.0,56.0 L 69.0,59.0 L 64.0,57.0 L 59.0,57.0 L 55.0,57.0 L 51.0,53.0 L 56.0,49.0 L 58.0,48.0" fill="#060606"/>
</svg>
