<?xml version="1.0" ?>
<svg baseProfile="full" height="600px" version="1.1" viewBox="-12.06 -12.06 144.12 144.12" width="600px" xmlns="http://www.w3.org/2000/svg" xmlns:ev="http://www.w3.org/2001/xml-events" xmlns:xlink="http://www.w3.org/1999/xlink">
	<defs/>
	<path d="M 0.0,0.0 L 120.0,0.0 L 120.0,120.0 L 0.0,120.0 L 0.0,0.0" fill="#FCFCFC"/>
	<path d="M 80.0,20.0 L 91.0,20.0 L 101.0,25.0 L 107.0,34.0 L 108.0,36.0 L 108.0,47.0 L 103.0,57.0 L 94.0,63.0 L 91.0,64.0 L 36.0,64.0 L 34.0,62.0 L 35.0,57.0 L 36.0,56.0 L 89.0,55.0 L 95.0,52.0 L 98.0,48.0 L 99.0,45.0 L 99.0,38.0 L 95.0,32.0 L 89.0,29.0 L 82.0,29.0 L 76.0,33.0 L 71.0,34.0 L 69.0,32.0 L 69.0,27.0 L 78.0,21.0 L 80.0,20.0" fill="#060606"/>
	<path d="M 63.0,72.0 L 79.0,72.0 L 87.0,77.0 L 92.0,85.0 L 92.0,94.0 L 88.0,102.0 L 83.0,106.0 L 79.0,108.0 L 69.0,108.0 L 61.0,103.0 L 60.0,98.0 L 62.0,96.0 L 68.0,97.0 L 71.0,99.0 L 77.0,99.0 L 81.0,97.0 L 83.0,92.0 L 83.0,86.0 L 82.0,83.0 L 76.0,81.0 L 63.0,80.0 L 61.0,78.0 L 62.0,73.0 L 63.0,72.0" fill="#070707"/>
	<path d="M 33.0,12.0 L 43.0,12.0 L 51.0,17.0 L 52.0,18.0 L 52.0,24.0 L 47.0,25.0 L 41.0,21.0 L 35.0,21.0 L 30.0,24.0 L 25.0,23.0 L 24.0,18.0 L 29.0,14.0 L 33.0,12.0" fill="#080808"/>
</svg>
