<?xml version="1.0" ?>
<svg baseProfile="full" height="600px" version="1.1" viewBox="-20.1 -20.1 240.2 240.2" width="600px" xmlns="http://www.w3.org/2000/svg" xmlns:ev="http://www.w3.org/2001/xml-events" xmlns:xlink="http://www.w3.org/1999/xlink">
	<defs/>
	<path d="M 0.0,0.0 L 200.0,0.0 L 200.0,200.0 L 0.0,200.0 L 0.0,0.0" fill="#FCFCFC"/>
	<path d="M 82.0,24.0 L 95.0,24.0 L 104.0,26.0 L 114.0,31.0 L 123.0,39.0 L 129.0,49.0 L 130.0,54.0 L 136.0,52.0 L 149.0,52.0 L 160.0,55.0 L 170.0,61.0 L 178.0,70.0 L 183.0,80.0 L 184.0,84.0 L 184.0,100.0 L 179.0,112.0 L 173.0,120.0 L 166.0,126.0 L 158.0,130.0 L 153.0,129.0 L 149.0,125.0 L 149.0,123.0 L 160.0,119.0 L 167.0,114.0 L 173.0,104.0 L 175.0,97.0 L 175.0,85.0 L 169.0,73.0 L 164.0,68.0 L 156.0,63.0 L 150.0,61.0 L 137.0,61.0 L 126.0,66.0 L 124.0,66.0 L 121.0,53.0 L 114.0,42.0 L 105.0,36.0 L 96.0,33.0 L 83.0,33.0 L 73.0,37.0 L 63.0,46.0 L 58.0,56.0 L 57.0,59.0 L 57.0,77.0 L 42.0,77.0 L 34.0,81.0 L 27.0,89.0 L 25.0,94.0 L 25.0,104.0 L 29.0,114.0 L 35.0,121.0 L 32.0,127.0 L 27.0,125.0 L 21.0,118.0 L 17.0,109.0 L 16.0,105.0 L 16.0,93.0 L 20.0,84.0 L 26.0,76.0 L 35.0,70.0 L 41.0,68.0 L 48.0,68.0 L 48.0,58.0 L 52.0,47.0 L 59.0,37.0 L 66.0,31.0 L 78.0,25.0 L 82.0,24.0" fill="#080808"/>
	<path d="M 82.0,124.0 L 133.0,124.0 L 142.0,128.0 L 149.0,135.0 L 152.0,142.0 L 152.0,153.0 L 148.0,162.0 L 140.0,169.0 L 132.0,172.0 L 122.0,172.0 L 114.0,168.0 L 107.0,160.0 L 105.0,156.0 L 106.0,152.0 L 107.0,151.0 L 112.0,151.0 L 118.0,160.0 L 123.0,163.0 L 132.0,163.0 L 140.0,158.0 L 143.0,151.0 L 143.0,143.0 L 138.0,136.0 L 132.0,133.0 L 82.0,132.0 L 80.0,130.0 L 81.0,125.0 L 82.0,124.0" fill="#050505"/>
	<path d="M 92.0,80.0 L 102.0,80.0 L 108.0,83.0 L 114.0,90.0 L 115.0,92.0 L 115.0,104.0 L 111.0,110.0 L 105.0,115.0 L 102.0,116.0 L 50.0,116.0 L 48.0,114.0 L 49.0,109.0 L 50.0,108.0 L 101.0,107.0 L 106.0,102.0 L 106.0,94.0 L 103.0,90.0 L 94.0,89.0 L 89.0,94.0 L 86.0,97.0 L 81.0,96.0 L 81.0,90.0 L 88.0,82.0 L 92.0,80.0" fill="#040404"/>
	<path d="M 71.0,140.0 L 77.0,140.0 L 83.0,144.0 L 87.0,149.0 L 88.0,151.0 L 88.0,160.0 L 85.0,166.0 L 79.0,171.0 L 77.0,172.0 L 67.0,172.0 L 61.0,168.0 L 58.0,165.0 L 58.0,159.0 L 59.0,158.0 L 64.0,158.0 L 69.0,163.0 L 75.0,163.0 L 78.0,162.0 L 79.0,153.0 L 78.0,150.0 L 71.0,148.0 L 69.0,146.0 L 70.0,141.0 L 71.0,140.0" fill="#090909"/>
</svg>
