<?xml version="1.0" ?>
<svg baseProfile="full" height="600px" version="1.1" viewBox="-16.08 -16.08 192.16 192.16" width="600px" xmlns="http://www.w3.org/2000/svg" xmlns:ev="http://www.w3.org/2001/xml-events" xmlns:xlink="http://www.w3.org/1999/xlink">
	<defs/>
	<path d="M 0.0,0.0 L 160.0,0.0 L 160.0,160.0 L 0.0,160.0 L 0.0,0.0" fill="#FDFDFE"/>
	<path d="M 112.0,21.0 L 118.0,21.0 L 117.0,25.0 L 107.0,29.0 L 100.0,37.0 L 99.0,41.0 L 102.0,40.0 L 106.0,34.0 L 114.0,29.0 L 119.0,29.0 L 119.0,32.0 L 110.0,37.0 L 105.0,44.0 L 98.0,45.0 L 95.0,42.0 L 95.0,36.0 L 101.0,28.0 L 110.0,22.0 L 112.0,21.0" fill="#7A9BC7"/>
	<path d="M 66.0,120.0 L 71.0,120.0 L 78.0,128.0 L 77.0,132.0 L 73.0,130.0 L 70.0,126.0 L 70.0,124.0 L 67.0,124.0 L 70.0,131.0 L 74.0,136.0 L 71.0,139.0 L 63.0,130.0 L 62.0,124.0 L 66.0,120.0" fill="#7D9DC8"/>
	<path d="M 117.0,24.0 L 119.0,28.0 L 119.0,29.0 L 110.0,32.0 L 105.0,36.0 L 102.0,41.0 L 99.0,41.0 L 100.0,35.0 L 107.0,28.0 L 117.0,24.0" fill="#AFD7F0"/>
	<path d="M 67.0,124.0 L 70.0,124.0 L 76.0,133.0 L 75.0,135.0 L 71.0,133.0 L 67.0,128.0 L 67.0,124.0" fill="#B3D9F2"/>
	<path d="M 30.0,31.0 L 35.0,32.0 L 36.0,37.0 L 31.0,35.0 L 30.0,31.0" fill="#88A5CC"/>
</svg>
