<?xml version="1.0" ?>
<svg baseProfile="full" height="600px" version="1.1" viewBox="-19.296000000000003 -19.296000000000003 230.592 230.592" width="600px" xmlns="http://www.w3.org/2000/svg" xmlns:ev="http://www.w3.org/2001/xml-events" xmlns:xlink="http://www.w3.org/1999/xlink">
	<defs/>
	<path d="M 0.0,0.0 L 192.0,0.0 L 192.0,192.0 L 0.0,192.0 L 0.0,0.0" fill="#FDFDFD"/>
	<path d="M 26.0,16.0 L 33.0,16.0 L 38.0,19.0 L 40.0,22.0 L 40.0,29.0 L 37.0,34.0 L 33.0,35.0 L 36.0,49.0 L 37.0,58.0 L 51.0,46.0 L 52.0,46.0 L 52.0,90.0 L 44.0,84.0 L 37.0,78.0 L 36.0,176.0 L 24.0,176.0 L 24.0,48.0 L 27.0,35.0 L 22.0,33.0 L 20.0,29.0 L 20.0,22.0 L 25.0,17.0 L 26.0,16.0" fill="#65B5F6"/>
	<path d="M 100.0,51.0 L 109.0,53.0 L 124.0,57.0 L 131.0,58.0 L 162.0,58.0 L 172.0,57.0 L 172.0,81.0 L 162.0,86.0 L 150.0,90.0 L 143.0,91.0 L 120.0,91.0 L 104.0,90.0 L 100.0,89.0 L 100.0,51.0" fill="#D0D8DC"/>
	<path d="M 52.0,40.0 L 66.0,41.0 L 76.0,43.0 L 76.0,89.0 L 60.0,93.0 L 52.0,96.0 L 52.0,40.0" fill="#FF3E01"/>
	<path d="M 76.0,43.0 L 92.0,47.0 L 102.0,50.0 L 100.0,51.0 L 100.0,89.0 L 76.0,89.0 L 76.0,43.0" fill="#D0D9DC"/>
	<path d="M 100.0,51.0 L 109.0,53.0 L 124.0,57.0 L 124.0,91.0 L 104.0,90.0 L 100.0,89.0 L 100.0,51.0" fill="#FF3E02"/>
	<path d="M 167.0,57.0 L 172.0,57.0 L 172.0,81.0 L 162.0,86.0 L 153.0,89.0 L 148.0,89.0 L 148.0,59.0 L 162.0,58.0 L 167.0,57.0" fill="#FF3E02"/>
	<path d="M 51.0,46.0 L 52.0,46.0 L 52.0,90.0 L 44.0,84.0 L 36.0,77.0 L 36.0,59.0 L 51.0,46.0" fill="#65818F"/>
	<path d="M 26.0,16.0 L 33.0,16.0 L 38.0,19.0 L 40.0,22.0 L 40.0,29.0 L 37.0,34.0 L 33.0,36.0 L 27.0,36.0 L 22.0,33.0 L 20.0,29.0 L 20.0,22.0 L 25.0,17.0 L 26.0,16.0" fill="#248BE6"/>
	<path d="M 51.0,57.0 L 52.0,57.0 L 52.0,79.0 L 44.0,73.0 L 39.0,69.0 L 41.0,65.0 L 51.0,57.0" fill="#F9FAFB"/>
</svg>
