<?xml version="1.0" ?>
<svg baseProfile="full" height="600px" version="1.1" viewBox="-19.296000000000003 -19.296000000000003 230.592 230.592" width="600px" xmlns="http://www.w3.org/2000/svg" xmlns:ev="http://www.w3.org/2001/xml-events" xmlns:xlink="http://www.w3.org/1999/xlink">
	<defs/>
	<path d="M 0.0,0.0 L 192.0,0.0 L 192.0,192.0 L 0.0,192.0 L 0.0,0.0" fill="#FCFDFF"/>
	<path d="M 92.0,16.0 L 100.0,16.0 L 101.0,39.0 L 112.0,27.0 L 118.0,32.0 L 116.0,36.0 L 103.0,50.0 L 101.0,53.0 L 101.0,75.0 L 108.0,62.0 L 110.0,54.0 L 112.0,52.0 L 117.0,52.0 L 120.0,55.0 L 119.0,62.0 L 114.0,70.0 L 108.0,81.0 L 108.0,83.0 L 127.0,71.0 L 133.0,44.0 L 137.0,43.0 L 141.0,44.0 L 141.0,51.0 L 139.0,59.0 L 139.0,63.0 L 154.0,53.0 L 158.0,54.0 L 161.0,58.0 L 161.0,60.0 L 142.0,72.0 L 144.0,74.0 L 158.0,79.0 L 156.0,86.0 L 148.0,85.0 L 134.0,80.0 L 129.0,80.0 L 112.0,91.0 L 136.0,91.0 L 137.0,90.0 L 142.0,90.0 L 145.0,94.0 L 144.0,100.0 L 141.0,102.0 L 136.0,101.0 L 112.0,101.0 L 129.0,112.0 L 137.0,111.0 L 154.0,105.0 L 156.0,105.0 L 158.0,113.0 L 144.0,118.0 L 141.0,118.0 L 145.0,122.0 L 161.0,132.0 L 158.0,138.0 L 154.0,139.0 L 139.0,129.0 L 138.0,129.0 L 141.0,142.0 L 141.0,148.0 L 134.0,149.0 L 132.0,144.0 L 127.0,121.0 L 111.0,111.0 L 109.0,110.0 L 121.0,132.0 L 123.0,134.0 L 123.0,141.0 L 120.0,144.0 L 115.0,143.0 L 113.0,141.0 L 111.0,133.0 L 101.0,114.0 L 101.0,139.0 L 108.0,147.0 L 118.0,158.0 L 116.0,162.0 L 112.0,165.0 L 102.0,154.0 L 101.0,152.0 L 100.0,176.0 L 92.0,176.0 L 91.0,153.0 L 84.0,160.0 L 81.0,164.0 L 77.0,163.0 L 74.0,160.0 L 76.0,156.0 L 88.0,143.0 L 91.0,139.0 L 91.0,114.0 L 80.0,135.0 L 78.0,142.0 L 76.0,144.0 L 70.0,143.0 L 69.0,141.0 L 69.0,134.0 L 73.0,129.0 L 83.0,110.0 L 71.0,117.0 L 65.0,121.0 L 59.0,148.0 L 56.0,149.0 L 51.0,148.0 L 51.0,141.0 L 55.0,128.0 L 37.0,139.0 L 34.0,138.0 L 31.0,134.0 L 31.0,132.0 L 50.0,120.0 L 47.0,118.0 L 34.0,113.0 L 36.0,106.0 L 43.0,107.0 L 53.0,110.0 L 57.0,112.0 L 63.0,112.0 L 80.0,101.0 L 56.0,101.0 L 51.0,102.0 L 47.0,98.0 L 48.0,92.0 L 50.0,90.0 L 55.0,90.0 L 56.0,91.0 L 80.0,91.0 L 63.0,80.0 L 57.0,80.0 L 40.0,86.0 L 36.0,86.0 L 34.0,79.0 L 50.0,73.0 L 45.0,69.0 L 31.0,60.0 L 34.0,54.0 L 38.0,53.0 L 53.0,63.0 L 54.0,63.0 L 51.0,51.0 L 51.0,44.0 L 58.0,43.0 L 60.0,50.0 L 65.0,69.0 L 65.0,72.0 L 70.0,74.0 L 85.0,84.0 L 77.0,68.0 L 73.0,62.0 L 72.0,61.0 L 72.0,55.0 L 75.0,52.0 L 81.0,53.0 L 83.0,56.0 L 85.0,64.0 L 91.0,75.0 L 91.0,53.0 L 82.0,43.0 L 75.0,35.0 L 75.0,31.0 L 80.0,27.0 L 91.0,39.0 L 92.0,16.0" fill="#5670FE"/>
	<path d="M 134.0,43.0 L 141.0,44.0 L 141.0,51.0 L 139.0,59.0 L 139.0,63.0 L 154.0,53.0 L 158.0,54.0 L 161.0,58.0 L 161.0,60.0 L 142.0,72.0 L 144.0,74.0 L 158.0,79.0 L 156.0,86.0 L 148.0,85.0 L 134.0,80.0 L 126.0,77.0 L 129.0,61.0 L 133.0,44.0 L 134.0,43.0" fill="#8FA0FF"/>
	<path d="M 154.0,105.0 L 156.0,105.0 L 158.0,113.0 L 144.0,118.0 L 141.0,118.0 L 145.0,122.0 L 161.0,132.0 L 158.0,138.0 L 154.0,139.0 L 139.0,129.0 L 138.0,129.0 L 141.0,142.0 L 141.0,148.0 L 134.0,149.0 L 132.0,144.0 L 126.0,118.0 L 126.0,115.0 L 137.0,111.0 L 154.0,105.0" fill="#8EA0FF"/>
	<path d="M 36.0,106.0 L 43.0,107.0 L 53.0,110.0 L 63.0,114.0 L 66.0,115.0 L 63.0,131.0 L 59.0,148.0 L 56.0,149.0 L 51.0,148.0 L 51.0,141.0 L 55.0,128.0 L 37.0,139.0 L 34.0,138.0 L 31.0,134.0 L 31.0,132.0 L 50.0,120.0 L 47.0,118.0 L 34.0,113.0 L 36.0,106.0" fill="#8FA0FF"/>
	<path d="M 92.0,16.0 L 100.0,16.0 L 101.0,39.0 L 112.0,27.0 L 118.0,32.0 L 116.0,36.0 L 103.0,50.0 L 97.0,57.0 L 93.0,55.0 L 82.0,43.0 L 75.0,35.0 L 75.0,31.0 L 80.0,27.0 L 91.0,39.0 L 92.0,16.0" fill="#8D9FFF"/>
	<path d="M 95.0,135.0 L 99.0,137.0 L 110.0,149.0 L 117.0,157.0 L 117.0,161.0 L 112.0,165.0 L 102.0,154.0 L 101.0,152.0 L 100.0,176.0 L 92.0,176.0 L 91.0,153.0 L 84.0,160.0 L 81.0,164.0 L 77.0,163.0 L 74.0,160.0 L 76.0,156.0 L 88.0,143.0 L 95.0,135.0" fill="#8D9FFF"/>
	<path d="M 57.0,43.0 L 59.0,44.0 L 64.0,65.0 L 66.0,77.0 L 55.0,81.0 L 40.0,86.0 L 36.0,86.0 L 34.0,79.0 L 50.0,73.0 L 45.0,69.0 L 31.0,60.0 L 34.0,54.0 L 38.0,53.0 L 53.0,63.0 L 54.0,63.0 L 51.0,51.0 L 51.0,44.0 L 57.0,43.0" fill="#8EA0FF"/>
	<path d="M 112.0,52.0 L 117.0,52.0 L 120.0,55.0 L 119.0,62.0 L 117.0,64.0 L 112.0,64.0 L 109.0,61.0 L 110.0,54.0 L 112.0,52.0" fill="#4C8EFE"/>
	<path d="M 75.0,52.0 L 81.0,53.0 L 83.0,56.0 L 83.0,61.0 L 80.0,64.0 L 75.0,64.0 L 72.0,61.0 L 72.0,55.0 L 75.0,52.0" fill="#4C8DFE"/>
	<path d="M 137.0,90.0 L 142.0,90.0 L 145.0,94.0 L 144.0,100.0 L 141.0,102.0 L 136.0,101.0 L 134.0,98.0 L 134.0,93.0 L 137.0,90.0" fill="#4E8FFE"/>
	<path d="M 50.0,90.0 L 55.0,90.0 L 58.0,94.0 L 58.0,99.0 L 55.0,102.0 L 49.0,101.0 L 47.0,98.0 L 48.0,92.0 L 50.0,90.0" fill="#4E8FFE"/>
	<path d="M 119.0,131.0 L 123.0,134.0 L 123.0,141.0 L 120.0,144.0 L 115.0,143.0 L 113.0,141.0 L 113.0,135.0 L 116.0,132.0 L 119.0,131.0" fill="#4A8CFE"/>
	<path d="M 72.0,131.0 L 77.0,133.0 L 79.0,135.0 L 79.0,141.0 L 76.0,144.0 L 70.0,143.0 L 69.0,141.0 L 69.0,134.0 L 72.0,131.0" fill="#4A8DFF"/>
</svg>
