<?xml version="1.0" ?>
<svg baseProfile="full" height="600px" version="1.1" viewBox="-19.296000000000003 -19.296000000000003 230.592 230.592" width="600px" xmlns="http://www.w3.org/2000/svg" xmlns:ev="http://www.w3.org/2001/xml-events" xmlns:xlink="http://www.w3.org/1999/xlink">
	<defs/>
	<path d="M 0.0,0.0 L 192.0,0.0 L 192.0,192.0 L 0.0,192.0 L 0.0,0.0" fill="#FCFDFF"/>
	<path d="M 92.0,16.0 L 100.0,16.0 L 101.0,38.0 L 109.0,28.0 L 113.0,29.0 L 117.0,33.0 L 105.0,47.0 L 101.0,53.0 L 101.0,73.0 L 107.0,61.0 L 109.0,53.0 L 115.0,52.0 L 118.0,55.0 L 117.0,62.0 L 109.0,77.0 L 107.0,83.0 L 123.0,71.0 L 129.0,44.0 L 132.0,43.0 L 137.0,44.0 L 137.0,51.0 L 134.0,63.0 L 149.0,53.0 L 152.0,54.0 L 155.0,58.0 L 155.0,60.0 L 138.0,72.0 L 139.0,74.0 L 152.0,79.0 L 150.0,86.0 L 143.0,85.0 L 130.0,80.0 L 125.0,81.0 L 111.0,91.0 L 132.0,91.0 L 137.0,90.0 L 140.0,93.0 L 139.0,100.0 L 137.0,102.0 L 132.0,101.0 L 111.0,101.0 L 126.0,112.0 L 133.0,111.0 L 146.0,106.0 L 150.0,106.0 L 152.0,113.0 L 140.0,118.0 L 137.0,118.0 L 142.0,123.0 L 155.0,132.0 L 153.0,137.0 L 149.0,139.0 L 134.0,129.0 L 137.0,140.0 L 137.0,148.0 L 130.0,149.0 L 128.0,143.0 L 124.0,123.0 L 119.0,118.0 L 108.0,110.0 L 119.0,133.0 L 121.0,135.0 L 121.0,141.0 L 118.0,144.0 L 112.0,143.0 L 109.0,133.0 L 101.0,116.0 L 101.0,140.0 L 109.0,149.0 L 116.0,158.0 L 114.0,162.0 L 112.0,164.0 L 109.0,164.0 L 101.0,154.0 L 100.0,176.0 L 92.0,176.0 L 91.0,154.0 L 83.0,164.0 L 79.0,163.0 L 76.0,161.0 L 77.0,157.0 L 86.0,146.0 L 91.0,140.0 L 91.0,116.0 L 82.0,135.0 L 80.0,142.0 L 78.0,144.0 L 73.0,143.0 L 71.0,140.0 L 71.0,135.0 L 75.0,129.0 L 83.0,111.0 L 70.0,120.0 L 67.0,129.0 L 63.0,148.0 L 60.0,149.0 L 54.0,147.0 L 58.0,129.0 L 43.0,139.0 L 40.0,138.0 L 37.0,134.0 L 37.0,132.0 L 54.0,120.0 L 52.0,118.0 L 40.0,113.0 L 41.0,108.0 L 42.0,106.0 L 51.0,108.0 L 61.0,112.0 L 66.0,112.0 L 81.0,101.0 L 60.0,101.0 L 55.0,102.0 L 52.0,99.0 L 52.0,93.0 L 55.0,90.0 L 60.0,91.0 L 81.0,91.0 L 66.0,80.0 L 59.0,81.0 L 46.0,86.0 L 42.0,86.0 L 40.0,79.0 L 54.0,73.0 L 50.0,69.0 L 37.0,60.0 L 39.0,55.0 L 43.0,53.0 L 58.0,63.0 L 55.0,51.0 L 55.0,45.0 L 62.0,43.0 L 64.0,49.0 L 68.0,69.0 L 73.0,74.0 L 85.0,83.0 L 78.0,67.0 L 74.0,60.0 L 74.0,55.0 L 77.0,52.0 L 83.0,53.0 L 86.0,63.0 L 91.0,73.0 L 91.0,52.0 L 83.0,43.0 L 76.0,34.0 L 76.0,31.0 L 80.0,28.0 L 83.0,28.0 L 91.0,38.0 L 92.0,16.0" fill="#5670FE"/>
	<path d="M 92.0,16.0 L 100.0,16.0 L 101.0,38.0 L 109.0,28.0 L 113.0,29.0 L 117.0,33.0 L 105.0,47.0 L 98.0,56.0 L 94.0,56.0 L 83.0,43.0 L 76.0,34.0 L 76.0,31.0 L 80.0,28.0 L 83.0,28.0 L 91.0,38.0 L 92.0,16.0" fill="#8D9FFF"/>
	<path d="M 95.0,135.0 L 99.0,137.0 L 113.0,154.0 L 116.0,158.0 L 114.0,162.0 L 112.0,164.0 L 109.0,164.0 L 101.0,154.0 L 100.0,176.0 L 92.0,176.0 L 91.0,154.0 L 83.0,164.0 L 79.0,163.0 L 76.0,161.0 L 77.0,157.0 L 86.0,146.0 L 95.0,135.0" fill="#8D9FFF"/>
	<path d="M 146.0,106.0 L 150.0,106.0 L 152.0,113.0 L 140.0,118.0 L 137.0,118.0 L 142.0,123.0 L 155.0,132.0 L 153.0,137.0 L 149.0,139.0 L 134.0,129.0 L 137.0,140.0 L 137.0,148.0 L 130.0,149.0 L 128.0,143.0 L 124.0,123.0 L 122.0,119.0 L 123.0,115.0 L 143.0,107.0 L 146.0,106.0" fill="#8EA0FE"/>
	<path d="M 42.0,106.0 L 51.0,108.0 L 65.0,113.0 L 69.0,115.0 L 70.0,120.0 L 67.0,129.0 L 63.0,148.0 L 60.0,149.0 L 54.0,147.0 L 58.0,129.0 L 43.0,139.0 L 40.0,138.0 L 37.0,134.0 L 37.0,132.0 L 54.0,120.0 L 52.0,118.0 L 40.0,113.0 L 41.0,108.0 L 42.0,106.0" fill="#8FA0FE"/>
	<path d="M 130.0,43.0 L 137.0,44.0 L 137.0,51.0 L 134.0,63.0 L 149.0,53.0 L 152.0,54.0 L 155.0,58.0 L 155.0,60.0 L 138.0,72.0 L 139.0,74.0 L 152.0,79.0 L 150.0,86.0 L 143.0,85.0 L 123.0,77.0 L 122.0,72.0 L 125.0,63.0 L 129.0,44.0 L 130.0,43.0" fill="#8EA0FE"/>
	<path d="M 61.0,43.0 L 63.0,44.0 L 68.0,69.0 L 70.0,73.0 L 69.0,77.0 L 49.0,85.0 L 42.0,86.0 L 40.0,79.0 L 54.0,73.0 L 50.0,69.0 L 37.0,60.0 L 39.0,55.0 L 43.0,53.0 L 58.0,63.0 L 55.0,51.0 L 55.0,45.0 L 61.0,43.0" fill="#8EA0FE"/>
	<path d="M 117.0,131.0 L 121.0,135.0 L 121.0,141.0 L 118.0,144.0 L 112.0,143.0 L 110.0,134.0 L 117.0,131.0" fill="#4D8EFE"/>
	<path d="M 111.0,52.0 L 116.0,53.0 L 118.0,55.0 L 117.0,62.0 L 114.0,65.0 L 109.0,63.0 L 108.0,61.0 L 108.0,55.0 L 111.0,52.0" fill="#4D8EFF"/>
	<path d="M 77.0,52.0 L 83.0,53.0 L 84.0,55.0 L 84.0,61.0 L 81.0,64.0 L 77.0,65.0 L 74.0,60.0 L 74.0,55.0 L 77.0,52.0" fill="#4C8EFE"/>
	<path d="M 74.0,131.0 L 79.0,133.0 L 81.0,135.0 L 81.0,141.0 L 78.0,144.0 L 73.0,143.0 L 71.0,140.0 L 71.0,135.0 L 74.0,131.0" fill="#4B8DFF"/>
	<path d="M 55.0,90.0 L 60.0,91.0 L 61.0,92.0 L 61.0,99.0 L 59.0,102.0 L 54.0,101.0 L 52.0,99.0 L 52.0,93.0 L 55.0,90.0" fill="#4C8EFF"/>
	<path d="M 133.0,90.0 L 138.0,91.0 L 140.0,93.0 L 139.0,100.0 L 137.0,102.0 L 132.0,101.0 L 131.0,99.0 L 131.0,92.0 L 133.0,90.0" fill="#4B8EFF"/>
</svg>
