<?xml version="1.0" ?>
<svg baseProfile="full" height="600px" version="1.1" viewBox="-12.864 -12.864 153.728 153.728" width="600px" xmlns="http://www.w3.org/2000/svg" xmlns:ev="http://www.w3.org/2001/xml-events" xmlns:xlink="http://www.w3.org/1999/xlink">
	<defs/>
	<path d="M 0.0,0.0 L 128.0,0.0 L 128.0,128.0 L 0.0,128.0 L 0.0,0.0" fill="#FDFDFD"/>
	<path d="M 16.0,48.0 L 24.0,48.0 L 24.0,104.0 L 104.0,104.0 L 104.0,48.0 L 112.0,48.0 L 112.0,112.0 L 16.0,112.0 L 16.0,48.0" fill="#000000"/>
	<path d="M 58.0,12.0 L 69.0,12.0 L 77.0,16.0 L 83.0,24.0 L 84.0,27.0 L 84.0,37.0 L 80.0,45.0 L 74.0,50.0 L 68.0,52.0 L 59.0,52.0 L 51.0,48.0 L 45.0,40.0 L 44.0,37.0 L 44.0,28.0 L 47.0,21.0 L 51.0,16.0 L 58.0,12.0" fill="#070707"/>
	<path d="M 60.0,56.0 L 68.0,56.0 L 68.0,76.0 L 77.0,76.0 L 75.0,80.0 L 66.0,90.0 L 65.0,92.0 L 62.0,91.0 L 53.0,80.0 L 50.0,76.0 L 60.0,76.0 L 60.0,56.0" fill="#060606"/>
	<path d="M 59.0,22.0 L 70.0,22.0 L 70.0,25.0 L 63.0,25.0 L 63.0,29.0 L 69.0,30.0 L 70.0,31.0 L 70.0,38.0 L 67.0,41.0 L 59.0,41.0 L 59.0,38.0 L 65.0,37.0 L 65.0,33.0 L 59.0,32.0 L 59.0,22.0" fill="#EEEEEE"/>
</svg>
