<?xml version="1.0" ?>
<svg baseProfile="full" height="600px" version="1.1" viewBox="-20.1 -20.1 240.2 240.2" width="600px" xmlns="http://www.w3.org/2000/svg" xmlns:ev="http://www.w3.org/2001/xml-events" xmlns:xlink="http://www.w3.org/1999/xlink">
	<defs/>
	<path d="M 0.0,0.0 L 200.0,0.0 L 200.0,200.0 L 0.0,200.0 L 0.0,0.0" fill="#FDFDFD"/>
	<path d="M 91.0,8.0 L 109.0,8.0 L 122.0,13.0 L 131.0,19.0 L 139.0,27.0 L 145.0,38.0 L 148.0,47.0 L 148.0,62.0 L 146.0,71.0 L 139.0,85.0 L 129.0,95.0 L 113.0,103.0 L 106.0,104.0 L 91.0,104.0 L 79.0,100.0 L 69.0,93.0 L 61.0,85.0 L 53.0,69.0 L 52.0,65.0 L 52.0,47.0 L 56.0,36.0 L 62.0,26.0 L 71.0,17.0 L 87.0,9.0 L 91.0,8.0" fill="#F9F9F9"/>
	<path d="M 0.0,82.0 L 2.0,83.0 L 12.0,84.0 L 13.0,190.0 L 14.0,191.0 L 186.0,191.0 L 187.0,190.0 L 188.0,84.0 L 198.0,83.0 L 200.0,82.0 L 200.0,200.0 L 0.0,200.0 L 0.0,82.0" fill="#FDFDFD"/>
	<path d="M 2.0,76.0 L 18.0,76.0 L 20.0,78.0 L 20.0,184.0 L 180.0,184.0 L 180.0,78.0 L 182.0,76.0 L 198.0,76.0 L 200.0,78.0 L 199.0,83.0 L 198.0,84.0 L 188.0,84.0 L 188.0,190.0 L 186.0,192.0 L 14.0,192.0 L 12.0,190.0 L 12.0,84.0 L 2.0,84.0 L 0.0,82.0 L 1.0,77.0 L 2.0,76.0" fill="#010101"/>
	<path d="M 91.0,8.0 L 109.0,8.0 L 122.0,13.0 L 131.0,19.0 L 139.0,27.0 L 145.0,38.0 L 148.0,47.0 L 148.0,62.0 L 146.0,71.0 L 139.0,85.0 L 129.0,95.0 L 113.0,103.0 L 106.0,104.0 L 91.0,104.0 L 79.0,100.0 L 69.0,93.0 L 61.0,85.0 L 53.0,69.0 L 52.0,65.0 L 52.0,47.0 L 56.0,36.0 L 62.0,26.0 L 71.0,17.0 L 87.0,9.0 L 91.0,8.0 M 94.0,16.0 L 84.0,19.0 L 74.0,25.0 L 66.0,34.0 L 61.0,45.0 L 60.0,50.0 L 60.0,62.0 L 63.0,72.0 L 69.0,82.0 L 78.0,90.0 L 89.0,95.0 L 92.0,96.0 L 105.0,96.0 L 118.0,92.0 L 127.0,86.0 L 134.0,78.0 L 139.0,66.0 L 140.0,61.0 L 140.0,48.0 L 135.0,36.0 L 129.0,28.0 L 122.0,22.0 L 114.0,18.0 L 106.0,16.0 L 94.0,16.0" fill="#080808"/>
	<path d="M 86.0,32.0 L 114.0,32.0 L 114.0,40.0 L 93.0,40.0 L 93.0,51.0 L 96.0,48.0 L 107.0,48.0 L 112.0,51.0 L 116.0,56.0 L 117.0,58.0 L 117.0,67.0 L 112.0,75.0 L 107.0,78.0 L 103.0,79.0 L 96.0,79.0 L 88.0,76.0 L 84.0,71.0 L 83.0,65.0 L 92.0,65.0 L 94.0,69.0 L 96.0,70.0 L 105.0,69.0 L 107.0,65.0 L 106.0,58.0 L 103.0,56.0 L 95.0,56.0 L 92.0,59.0 L 83.0,59.0 L 85.0,33.0 L 86.0,32.0" fill="#0B0B0B"/>
	<path d="M 96.0,112.0 L 104.0,112.0 L 105.0,153.0 L 118.0,140.0 L 123.0,141.0 L 124.0,146.0 L 102.0,168.0 L 97.0,167.0 L 76.0,146.0 L 77.0,141.0 L 82.0,140.0 L 95.0,153.0 L 96.0,112.0" fill="#020202"/>
</svg>
