<?xml version="1.0" ?>
<svg baseProfile="full" height="600px" version="1.1" viewBox="-12.864 -12.864 153.728 153.728" width="600px" xmlns="http://www.w3.org/2000/svg" xmlns:ev="http://www.w3.org/2001/xml-events" xmlns:xlink="http://www.w3.org/1999/xlink">
	<defs/>
	<path d="M 0.0,0.0 L 128.0,0.0 L 128.0,128.0 L 0.0,128.0 L 0.0,0.0" fill="#FDFDFD"/>
	<path d="M 16.0,48.0 L 24.0,48.0 L 24.0,104.0 L 104.0,104.0 L 104.0,48.0 L 112.0,48.0 L 112.0,112.0 L 16.0,112.0 L 16.0,48.0" fill="#000000"/>
	<path d="M 60.0,34.0 L 67.0,34.0 L 73.0,37.0 L 79.0,44.0 L 81.0,49.0 L 81.0,59.0 L 76.0,69.0 L 71.0,73.0 L 69.0,74.0 L 59.0,74.0 L 53.0,70.0 L 48.0,62.0 L 47.0,59.0 L 47.0,49.0 L 51.0,41.0 L 58.0,35.0 L 60.0,34.0" fill="#070707"/>
	<path d="M 60.0,44.0 L 69.0,44.0 L 69.0,48.0 L 63.0,48.0 L 63.0,51.0 L 68.0,52.0 L 69.0,54.0 L 69.0,61.0 L 66.0,64.0 L 59.0,63.0 L 59.0,60.0 L 65.0,59.0 L 65.0,56.0 L 60.0,55.0 L 60.0,44.0" fill="#D8D8D8"/>
	<path d="M 61.0,45.0 L 68.0,45.0 L 68.0,47.0 L 61.0,49.0 L 61.0,45.0" fill="#FDFDFD"/>
</svg>
