<?xml version="1.0" ?>
<svg baseProfile="full" height="600px" version="1.1" viewBox="-12.864 -12.864 153.728 153.728" width="600px" xmlns="http://www.w3.org/2000/svg" xmlns:ev="http://www.w3.org/2001/xml-events" xmlns:xlink="http://www.w3.org/1999/xlink">
	<defs/>
	<path d="M 0.0,0.0 L 128.0,0.0 L 128.0,128.0 L 0.0,128.0 L 0.0,0.0" fill="#FDFDFD"/>
	<path d="M 16.0,48.0 L 24.0,48.0 L 24.0,104.0 L 104.0,104.0 L 104.0,48.0 L 112.0,48.0 L 112.0,112.0 L 16.0,112.0 L 16.0,48.0" fill="#000000"/>
	<path d="M 59.0,11.0 L 69.0,11.0 L 77.0,15.0 L 82.0,21.0 L 84.0,25.0 L 84.0,35.0 L 79.0,43.0 L 74.0,47.0 L 69.0,49.0 L 58.0,49.0 L 51.0,45.0 L 46.0,39.0 L 44.0,35.0 L 44.0,25.0 L 49.0,17.0 L 56.0,12.0 L 59.0,11.0" fill="#070707"/>
	<path d="M 60.0,56.0 L 68.0,56.0 L 68.0,74.0 L 78.0,74.0 L 72.0,81.0 L 65.0,88.0 L 61.0,86.0 L 50.0,75.0 L 50.0,74.0 L 60.0,74.0 L 60.0,56.0" fill="#060606"/>
	<path d="M 59.0,21.0 L 70.0,21.0 L 70.0,24.0 L 63.0,24.0 L 63.0,27.0 L 68.0,28.0 L 70.0,30.0 L 70.0,36.0 L 66.0,39.0 L 59.0,39.0 L 59.0,36.0 L 65.0,35.0 L 66.0,31.0 L 59.0,31.0 L 59.0,21.0" fill="#E4E4E4"/>
</svg>
