<?xml version="1.0" ?>
<svg baseProfile="full" height="600px" version="1.1" viewBox="-20.1 -20.1 240.2 240.2" width="600px" xmlns="http://www.w3.org/2000/svg" xmlns:ev="http://www.w3.org/2001/xml-events" xmlns:xlink="http://www.w3.org/1999/xlink">
	<defs/>
	<path d="M 0.0,0.0 L 200.0,0.0 L 200.0,200.0 L 0.0,200.0 L 0.0,0.0" fill="#FDFDFD"/>
	<path d="M 98.0,40.0 L 107.0,41.0 L 119.0,46.0 L 130.0,56.0 L 137.0,68.0 L 140.0,78.0 L 140.0,99.0 L 135.0,114.0 L 129.0,123.0 L 121.0,131.0 L 110.0,136.0 L 107.0,137.0 L 92.0,137.0 L 83.0,133.0 L 77.0,129.0 L 69.0,121.0 L 62.0,107.0 L 60.0,99.0 L 60.0,78.0 L 64.0,66.0 L 71.0,55.0 L 78.0,48.0 L 90.0,42.0 L 98.0,40.0" fill="#F9F9F9"/>
	<path d="M 0.0,82.0 L 2.0,83.0 L 12.0,84.0 L 13.0,190.0 L 14.0,191.0 L 186.0,191.0 L 187.0,190.0 L 188.0,84.0 L 198.0,83.0 L 200.0,82.0 L 200.0,200.0 L 0.0,200.0 L 0.0,82.0" fill="#FDFDFD"/>
	<path d="M 2.0,76.0 L 18.0,76.0 L 20.0,78.0 L 20.0,184.0 L 180.0,184.0 L 180.0,78.0 L 182.0,76.0 L 198.0,76.0 L 200.0,78.0 L 199.0,83.0 L 198.0,84.0 L 188.0,84.0 L 188.0,190.0 L 186.0,192.0 L 14.0,192.0 L 12.0,190.0 L 12.0,84.0 L 2.0,84.0 L 0.0,82.0 L 1.0,77.0 L 2.0,76.0" fill="#010101"/>
	<path d="M 98.0,40.0 L 107.0,41.0 L 119.0,46.0 L 130.0,56.0 L 137.0,68.0 L 140.0,78.0 L 140.0,99.0 L 135.0,114.0 L 129.0,123.0 L 121.0,131.0 L 110.0,136.0 L 107.0,137.0 L 92.0,137.0 L 83.0,133.0 L 77.0,129.0 L 69.0,121.0 L 62.0,107.0 L 60.0,99.0 L 60.0,78.0 L 64.0,66.0 L 71.0,55.0 L 78.0,48.0 L 90.0,42.0 L 98.0,40.0 M 94.0,49.0 L 82.0,55.0 L 74.0,63.0 L 68.0,75.0 L 67.0,80.0 L 67.0,98.0 L 71.0,110.0 L 77.0,119.0 L 86.0,126.0 L 93.0,129.0 L 106.0,129.0 L 116.0,125.0 L 124.0,118.0 L 130.0,108.0 L 133.0,98.0 L 133.0,80.0 L 130.0,70.0 L 124.0,61.0 L 117.0,54.0 L 105.0,49.0 L 94.0,49.0" fill="#0A0A0A"/>
	<path d="M 85.0,66.0 L 114.0,66.0 L 114.0,74.0 L 93.0,74.0 L 93.0,84.0 L 97.0,81.0 L 107.0,81.0 L 112.0,84.0 L 116.0,89.0 L 117.0,91.0 L 117.0,99.0 L 113.0,107.0 L 107.0,111.0 L 104.0,112.0 L 94.0,112.0 L 86.0,107.0 L 83.0,102.0 L 83.0,98.0 L 92.0,98.0 L 94.0,102.0 L 96.0,103.0 L 103.0,103.0 L 107.0,99.0 L 107.0,93.0 L 103.0,89.0 L 96.0,89.0 L 92.0,92.0 L 84.0,92.0 L 84.0,76.0 L 85.0,66.0" fill="#090909"/>
</svg>
