<?xml version="1.0" ?>
<svg baseProfile="full" height="600px" version="1.1" viewBox="-20.1 -20.1 240.2 240.2" width="600px" xmlns="http://www.w3.org/2000/svg" xmlns:ev="http://www.w3.org/2001/xml-events" xmlns:xlink="http://www.w3.org/1999/xlink">
	<defs/>
	<path d="M 0.0,0.0 L 200.0,0.0 L 200.0,200.0 L 0.0,200.0 L 0.0,0.0" fill="#FDFDFD"/>
	<path d="M 89.0,84.0 L 111.0,84.0 L 124.0,89.0 L 135.0,97.0 L 143.0,108.0 L 147.0,117.0 L 148.0,121.0 L 148.0,134.0 L 145.0,146.0 L 140.0,155.0 L 132.0,164.0 L 122.0,170.0 L 112.0,174.0 L 105.0,175.0 L 92.0,175.0 L 82.0,172.0 L 72.0,167.0 L 62.0,158.0 L 56.0,148.0 L 52.0,135.0 L 52.0,122.0 L 55.0,112.0 L 61.0,102.0 L 66.0,96.0 L 76.0,89.0 L 85.0,85.0 L 89.0,84.0" fill="#F9F9F9"/>
	<path d="M 0.0,82.0 L 2.0,83.0 L 12.0,84.0 L 13.0,190.0 L 14.0,191.0 L 186.0,191.0 L 187.0,190.0 L 188.0,84.0 L 198.0,83.0 L 200.0,82.0 L 200.0,200.0 L 0.0,200.0 L 0.0,82.0" fill="#FDFDFD"/>
	<path d="M 2.0,76.0 L 18.0,76.0 L 20.0,78.0 L 20.0,184.0 L 180.0,184.0 L 180.0,78.0 L 182.0,76.0 L 198.0,76.0 L 200.0,78.0 L 199.0,83.0 L 198.0,84.0 L 188.0,84.0 L 188.0,190.0 L 186.0,192.0 L 14.0,192.0 L 12.0,190.0 L 12.0,84.0 L 2.0,84.0 L 0.0,82.0 L 1.0,77.0 L 2.0,76.0" fill="#010101"/>
	<path d="M 89.0,84.0 L 111.0,84.0 L 124.0,89.0 L 135.0,97.0 L 143.0,108.0 L 147.0,117.0 L 148.0,121.0 L 148.0,134.0 L 145.0,146.0 L 140.0,155.0 L 132.0,164.0 L 122.0,170.0 L 112.0,174.0 L 105.0,175.0 L 92.0,175.0 L 82.0,172.0 L 72.0,167.0 L 62.0,158.0 L 56.0,148.0 L 52.0,135.0 L 52.0,122.0 L 55.0,112.0 L 61.0,102.0 L 66.0,96.0 L 76.0,89.0 L 85.0,85.0 L 89.0,84.0 M 93.0,91.0 L 81.0,95.0 L 73.0,101.0 L 65.0,110.0 L 60.0,122.0 L 60.0,136.0 L 64.0,146.0 L 70.0,155.0 L 81.0,163.0 L 88.0,166.0 L 93.0,167.0 L 106.0,167.0 L 119.0,163.0 L 130.0,155.0 L 136.0,147.0 L 139.0,140.0 L 140.0,135.0 L 140.0,122.0 L 135.0,110.0 L 128.0,102.0 L 122.0,97.0 L 110.0,92.0 L 105.0,91.0 L 93.0,91.0" fill="#080808"/>
	<path d="M 85.0,106.0 L 114.0,106.0 L 114.0,114.0 L 93.0,114.0 L 93.0,124.0 L 97.0,121.0 L 107.0,121.0 L 112.0,124.0 L 116.0,129.0 L 117.0,131.0 L 117.0,139.0 L 113.0,147.0 L 107.0,151.0 L 104.0,152.0 L 94.0,152.0 L 86.0,147.0 L 83.0,142.0 L 83.0,138.0 L 92.0,138.0 L 94.0,142.0 L 96.0,143.0 L 103.0,143.0 L 107.0,139.0 L 107.0,133.0 L 103.0,129.0 L 95.0,129.0 L 92.0,132.0 L 83.0,132.0 L 85.0,106.0" fill="#0A0A0A"/>
	<path d="M 98.0,9.0 L 103.0,10.0 L 123.0,30.0 L 123.0,36.0 L 118.0,37.0 L 110.0,30.0 L 105.0,25.0 L 104.0,64.0 L 96.0,64.0 L 95.0,25.0 L 84.0,36.0 L 78.0,37.0 L 76.0,35.0 L 77.0,30.0 L 98.0,9.0" fill="#080808"/>
</svg>
