<?xml version="1.0" ?>
<svg baseProfile="full" height="600px" version="1.1" viewBox="-20.1 -20.1 240.2 240.2" width="600px" xmlns="http://www.w3.org/2000/svg" xmlns:ev="http://www.w3.org/2001/xml-events" xmlns:xlink="http://www.w3.org/1999/xlink">
	<defs/>
	<path d="M 0.0,0.0 L 200.0,0.0 L 200.0,200.0 L 0.0,200.0 L 0.0,0.0" fill="#FDFDFD"/>
	<path d="M 93.0,95.0 L 108.0,95.0 L 123.0,100.0 L 134.0,107.0 L 141.0,115.0 L 147.0,127.0 L 148.0,132.0 L 148.0,144.0 L 144.0,157.0 L 138.0,165.0 L 133.0,170.0 L 123.0,177.0 L 111.0,181.0 L 88.0,181.0 L 75.0,176.0 L 67.0,170.0 L 62.0,165.0 L 58.0,160.0 L 53.0,150.0 L 52.0,143.0 L 52.0,132.0 L 55.0,122.0 L 62.0,111.0 L 70.0,104.0 L 84.0,97.0 L 93.0,95.0" fill="#FAFAFA"/>
	<path d="M 0.0,82.0 L 2.0,83.0 L 12.0,84.0 L 13.0,190.0 L 14.0,191.0 L 186.0,191.0 L 187.0,190.0 L 188.0,84.0 L 198.0,83.0 L 200.0,82.0 L 200.0,200.0 L 0.0,200.0 L 0.0,82.0" fill="#FDFDFD"/>
	<path d="M 2.0,76.0 L 18.0,76.0 L 20.0,78.0 L 20.0,184.0 L 180.0,184.0 L 180.0,78.0 L 182.0,76.0 L 198.0,76.0 L 200.0,78.0 L 199.0,83.0 L 198.0,84.0 L 188.0,84.0 L 188.0,190.0 L 186.0,192.0 L 14.0,192.0 L 12.0,190.0 L 12.0,84.0 L 2.0,84.0 L 0.0,82.0 L 1.0,77.0 L 2.0,76.0" fill="#010101"/>
	<path d="M 93.0,95.0 L 108.0,95.0 L 123.0,100.0 L 134.0,107.0 L 141.0,115.0 L 147.0,127.0 L 148.0,132.0 L 148.0,144.0 L 144.0,157.0 L 138.0,165.0 L 133.0,170.0 L 123.0,177.0 L 111.0,181.0 L 88.0,181.0 L 75.0,176.0 L 67.0,170.0 L 62.0,165.0 L 58.0,160.0 L 53.0,150.0 L 52.0,143.0 L 52.0,132.0 L 55.0,122.0 L 62.0,111.0 L 70.0,104.0 L 84.0,97.0 L 93.0,95.0 M 91.0,103.0 L 81.0,106.0 L 70.0,114.0 L 64.0,122.0 L 61.0,128.0 L 60.0,133.0 L 60.0,144.0 L 64.0,155.0 L 71.0,164.0 L 82.0,171.0 L 92.0,174.0 L 108.0,174.0 L 120.0,170.0 L 131.0,162.0 L 138.0,151.0 L 140.0,145.0 L 140.0,132.0 L 136.0,122.0 L 129.0,113.0 L 120.0,107.0 L 110.0,103.0 L 91.0,103.0" fill="#090909"/>
	<path d="M 85.0,115.0 L 114.0,115.0 L 114.0,123.0 L 93.0,123.0 L 93.0,133.0 L 97.0,130.0 L 107.0,130.0 L 113.0,134.0 L 116.0,138.0 L 117.0,141.0 L 117.0,149.0 L 114.0,155.0 L 108.0,160.0 L 105.0,161.0 L 94.0,161.0 L 88.0,158.0 L 84.0,154.0 L 83.0,147.0 L 92.0,147.0 L 95.0,152.0 L 103.0,152.0 L 107.0,148.0 L 107.0,142.0 L 105.0,139.0 L 96.0,138.0 L 92.0,141.0 L 84.0,141.0 L 84.0,128.0 L 85.0,115.0" fill="#080808"/>
	<path d="M 98.0,14.0 L 104.0,15.0 L 121.0,32.0 L 122.0,39.0 L 121.0,40.0 L 116.0,40.0 L 105.0,29.0 L 104.0,66.0 L 96.0,66.0 L 95.0,29.0 L 84.0,40.0 L 79.0,40.0 L 78.0,39.0 L 78.0,33.0 L 96.0,15.0 L 98.0,14.0" fill="#080808"/>
</svg>
