<?xml version="1.0" ?>
<svg baseProfile="full" height="600px" version="1.1" viewBox="-12.864 -12.864 153.728 153.728" width="600px" xmlns="http://www.w3.org/2000/svg" xmlns:ev="http://www.w3.org/2001/xml-events" xmlns:xlink="http://www.w3.org/1999/xlink">
	<defs/>
	<path d="M 0.0,0.0 L 128.0,0.0 L 128.0,128.0 L 0.0,128.0 L 0.0,0.0" fill="#FDFDFD"/>
	<path d="M 16.0,48.0 L 24.0,48.0 L 24.0,104.0 L 104.0,104.0 L 104.0,48.0 L 112.0,48.0 L 112.0,112.0 L 16.0,112.0 L 16.0,48.0" fill="#000000"/>
	<path d="M 60.0,56.0 L 69.0,56.0 L 77.0,60.0 L 83.0,68.0 L 84.0,71.0 L 84.0,81.0 L 80.0,89.0 L 74.0,94.0 L 69.0,96.0 L 59.0,96.0 L 51.0,92.0 L 45.0,84.0 L 44.0,81.0 L 44.0,72.0 L 47.0,65.0 L 51.0,60.0 L 56.0,57.0 L 60.0,56.0" fill="#060606"/>
	<path d="M 63.0,17.0 L 67.0,19.0 L 78.0,31.0 L 78.0,32.0 L 68.0,32.0 L 68.0,52.0 L 60.0,52.0 L 60.0,32.0 L 50.0,32.0 L 56.0,24.0 L 63.0,17.0" fill="#040404"/>
	<path d="M 59.0,66.0 L 70.0,66.0 L 70.0,69.0 L 63.0,69.0 L 63.0,73.0 L 69.0,74.0 L 71.0,77.0 L 70.0,83.0 L 67.0,85.0 L 59.0,85.0 L 59.0,82.0 L 65.0,81.0 L 65.0,77.0 L 59.0,76.0 L 59.0,66.0" fill="#E9E9E9"/>
</svg>
