<?xml version="1.0" ?>
<svg baseProfile="full" height="600px" version="1.1" viewBox="-9.648000000000001 -9.648000000000001 115.296 115.296" width="600px" xmlns="http://www.w3.org/2000/svg" xmlns:ev="http://www.w3.org/2001/xml-events" xmlns:xlink="http://www.w3.org/1999/xlink">
	<defs/>
	<path d="M 0.0,0.0 L 96.0,0.0 L 96.0,96.0 L 0.0,96.0 L 0.0,0.0" fill="#F7F7F7"/>
	<path d="M 0.0,0.0 L 96.0,0.0 L 96.0,96.0 L 0.0,96.0 L 0.0,0.0 M 40.0,8.0 L 29.0,12.0 L 20.0,19.0 L 14.0,26.0 L 9.0,36.0 L 8.0,40.0 L 8.0,53.0 L 10.0,62.0 L 14.0,70.0 L 23.0,80.0 L 32.0,85.0 L 40.0,88.0 L 54.0,88.0 L 62.0,86.0 L 73.0,80.0 L 80.0,73.0 L 87.0,60.0 L 88.0,54.0 L 88.0,40.0 L 84.0,29.0 L 77.0,20.0 L 70.0,14.0 L 60.0,9.0 L 53.0,8.0 L 40.0,8.0" fill="#FCFCFC"/>
	<path d="M 40.0,8.0 L 53.0,8.0 L 62.0,10.0 L 73.0,16.0 L 80.0,23.0 L 85.0,31.0 L 88.0,40.0 L 88.0,54.0 L 86.0,62.0 L 80.0,73.0 L 73.0,80.0 L 60.0,87.0 L 54.0,88.0 L 40.0,88.0 L 29.0,84.0 L 20.0,77.0 L 14.0,70.0 L 9.0,60.0 L 8.0,53.0 L 8.0,40.0 L 12.0,29.0 L 19.0,20.0 L 26.0,14.0 L 36.0,9.0 L 40.0,8.0 M 41.0,12.0 L 29.0,17.0 L 21.0,24.0 L 17.0,29.0 L 12.0,41.0 L 12.0,52.0 L 15.0,63.0 L 21.0,72.0 L 29.0,79.0 L 41.0,84.0 L 53.0,84.0 L 63.0,81.0 L 71.0,76.0 L 78.0,69.0 L 82.0,61.0 L 84.0,53.0 L 84.0,41.0 L 79.0,29.0 L 72.0,21.0 L 67.0,17.0 L 57.0,13.0 L 52.0,12.0 L 41.0,12.0" fill="#111111"/>
	<path d="M 43.0,23.0 L 53.0,23.0 L 63.0,28.0 L 68.0,33.0 L 70.0,37.0 L 65.0,39.0 L 65.0,52.0 L 56.0,64.0 L 55.0,64.0 L 55.0,39.0 L 59.0,39.0 L 59.0,37.0 L 50.0,35.0 L 48.0,35.0 L 48.0,45.0 L 38.0,57.0 L 37.0,57.0 L 37.0,37.0 L 38.0,32.0 L 40.0,31.0 L 34.0,29.0 L 34.0,27.0 L 43.0,23.0" fill="#0B0B0B"/>
	<path d="M 46.0,52.0 L 47.0,52.0 L 47.0,72.0 L 40.0,72.0 L 33.0,68.0 L 39.0,60.0 L 46.0,52.0" fill="#050505"/>
	<path d="M 29.0,32.0 L 30.0,32.0 L 30.0,64.0 L 26.0,60.0 L 23.0,52.0 L 23.0,43.0 L 28.0,33.0 L 29.0,32.0" fill="#090909"/>
	<path d="M 72.0,45.0 L 73.0,45.0 L 73.0,53.0 L 67.0,65.0 L 58.0,71.0 L 53.0,72.0 L 59.0,64.0 L 67.0,55.0 L 72.0,45.0" fill="#171717"/>
</svg>
