<?xml version="1.0" ?>
<svg baseProfile="full" height="600px" version="1.1" viewBox="-20.1 -20.1 240.2 240.2" width="600px" xmlns="http://www.w3.org/2000/svg" xmlns:ev="http://www.w3.org/2001/xml-events" xmlns:xlink="http://www.w3.org/1999/xlink">
	<defs/>
	<path d="M 0.0,0.0 L 200.0,0.0 L 200.0,200.0 L 0.0,200.0 L 0.0,0.0" fill="#070707"/>
	<path d="M 0.0,0.0 L 200.0,0.0 L 200.0,200.0 L 0.0,200.0 L 0.0,0.0 M 90.0,8.0 L 77.0,10.0 L 63.0,15.0 L 50.0,22.0 L 37.0,32.0 L 30.0,39.0 L 20.0,53.0 L 12.0,70.0 L 9.0,81.0 L 8.0,90.0 L 8.0,113.0 L 12.0,129.0 L 19.0,145.0 L 26.0,156.0 L 38.0,169.0 L 50.0,178.0 L 65.0,186.0 L 81.0,191.0 L 90.0,192.0 L 110.0,192.0 L 123.0,190.0 L 139.0,184.0 L 150.0,178.0 L 163.0,168.0 L 170.0,161.0 L 180.0,147.0 L 187.0,132.0 L 191.0,118.0 L 192.0,110.0 L 192.0,90.0 L 190.0,77.0 L 184.0,61.0 L 176.0,47.0 L 167.0,36.0 L 156.0,26.0 L 143.0,18.0 L 129.0,12.0 L 113.0,8.0 L 90.0,8.0" fill="#FCFCFC"/>
	<path d="M 116.0,52.0 L 119.0,56.0 L 132.0,86.0 L 145.0,116.0 L 152.0,133.0 L 141.0,135.0 L 141.0,141.0 L 154.0,140.0 L 152.0,144.0 L 142.0,154.0 L 131.0,161.0 L 117.0,166.0 L 105.0,168.0 L 93.0,168.0 L 79.0,165.0 L 63.0,157.0 L 64.0,154.0 L 64.0,143.0 L 58.0,133.0 L 51.0,122.0 L 48.0,112.0 L 48.0,98.0 L 53.0,74.0 L 57.0,57.0 L 59.0,59.0 L 78.0,103.0 L 92.0,136.0 L 92.0,138.0 L 83.0,140.0 L 82.0,145.0 L 95.0,144.0 L 101.0,143.0 L 128.0,142.0 L 130.0,136.0 L 119.0,136.0 L 111.0,120.0 L 104.0,105.0 L 105.0,96.0 L 112.0,67.0 L 116.0,52.0" fill="#FBFBFB"/>
	<path d="M 90.0,8.0 L 113.0,8.0 L 129.0,12.0 L 145.0,19.0 L 156.0,26.0 L 169.0,38.0 L 178.0,50.0 L 186.0,65.0 L 191.0,81.0 L 192.0,90.0 L 192.0,110.0 L 190.0,123.0 L 184.0,139.0 L 178.0,150.0 L 168.0,163.0 L 161.0,170.0 L 147.0,180.0 L 132.0,187.0 L 118.0,191.0 L 110.0,192.0 L 90.0,192.0 L 77.0,190.0 L 63.0,185.0 L 48.0,177.0 L 35.0,166.0 L 26.0,156.0 L 18.0,143.0 L 12.0,129.0 L 8.0,113.0 L 8.0,90.0 L 10.0,77.0 L 15.0,63.0 L 22.0,50.0 L 32.0,37.0 L 39.0,30.0 L 53.0,20.0 L 70.0,12.0 L 81.0,9.0 L 90.0,8.0 M 91.0,16.0 L 82.0,17.0 L 67.0,22.0 L 54.0,29.0 L 45.0,36.0 L 40.0,40.0 L 31.0,51.0 L 23.0,65.0 L 19.0,75.0 L 16.0,89.0 L 16.0,112.0 L 22.0,133.0 L 29.0,146.0 L 36.0,155.0 L 40.0,160.0 L 51.0,169.0 L 65.0,177.0 L 75.0,181.0 L 89.0,184.0 L 109.0,184.0 L 120.0,182.0 L 135.0,177.0 L 146.0,171.0 L 155.0,164.0 L 160.0,160.0 L 169.0,149.0 L 177.0,135.0 L 183.0,117.0 L 184.0,109.0 L 184.0,91.0 L 183.0,82.0 L 178.0,67.0 L 171.0,54.0 L 164.0,45.0 L 160.0,40.0 L 149.0,31.0 L 135.0,23.0 L 117.0,17.0 L 112.0,16.0 L 91.0,16.0" fill="#080808"/>
	<path d="M 91.0,16.0 L 112.0,16.0 L 133.0,22.0 L 146.0,29.0 L 155.0,36.0 L 160.0,40.0 L 169.0,51.0 L 177.0,65.0 L 181.0,75.0 L 183.0,82.0 L 184.0,91.0 L 184.0,109.0 L 182.0,120.0 L 177.0,135.0 L 171.0,146.0 L 164.0,155.0 L 160.0,160.0 L 149.0,169.0 L 135.0,177.0 L 117.0,183.0 L 109.0,184.0 L 89.0,184.0 L 75.0,181.0 L 63.0,176.0 L 51.0,169.0 L 40.0,160.0 L 31.0,149.0 L 23.0,135.0 L 17.0,117.0 L 16.0,112.0 L 16.0,89.0 L 19.0,75.0 L 26.0,59.0 L 34.0,47.0 L 40.0,40.0 L 51.0,31.0 L 65.0,23.0 L 75.0,19.0 L 82.0,17.0 L 91.0,16.0 M 88.0,24.0 L 73.0,28.0 L 56.0,37.0 L 44.0,48.0 L 37.0,56.0 L 28.0,73.0 L 24.0,88.0 L 24.0,111.0 L 27.0,124.0 L 35.0,141.0 L 43.0,151.0 L 52.0,160.0 L 63.0,167.0 L 73.0,172.0 L 88.0,176.0 L 111.0,176.0 L 123.0,173.0 L 135.0,168.0 L 145.0,162.0 L 155.0,153.0 L 163.0,144.0 L 171.0,129.0 L 175.0,117.0 L 176.0,110.0 L 176.0,89.0 L 172.0,73.0 L 163.0,56.0 L 152.0,44.0 L 144.0,37.0 L 129.0,29.0 L 117.0,25.0 L 111.0,24.0 L 88.0,24.0" fill="#F8F8F8"/>
	<path d="M 93.0,32.0 L 108.0,32.0 L 114.0,34.0 L 110.0,52.0 L 100.0,92.0 L 97.0,89.0 L 81.0,55.0 L 74.0,40.0 L 74.0,37.0 L 83.0,34.0 L 93.0,32.0" fill="#FBFBFB"/>
	<path d="M 64.0,42.0 L 67.0,46.0 L 81.0,75.0 L 94.0,103.0 L 108.0,133.0 L 108.0,135.0 L 100.0,135.0 L 94.0,123.0 L 73.0,74.0 L 61.0,47.0 L 61.0,44.0 L 64.0,42.0" fill="#F7F7F7"/>
	<path d="M 121.0,36.0 L 124.0,36.0 L 142.0,74.0 L 157.0,107.0 L 164.0,123.0 L 161.0,130.0 L 159.0,130.0 L 146.0,101.0 L 130.0,64.0 L 120.0,41.0 L 121.0,36.0" fill="#F6F6F6"/>
	<path d="M 138.0,44.0 L 144.0,48.0 L 154.0,58.0 L 161.0,69.0 L 166.0,82.0 L 168.0,92.0 L 168.0,107.0 L 165.0,104.0 L 152.0,76.0 L 138.0,46.0 L 138.0,44.0" fill="#F6F6F6"/>
	<path d="M 50.0,54.0 L 51.0,57.0 L 36.0,117.0 L 34.0,117.0 L 32.0,106.0 L 32.0,93.0 L 35.0,79.0 L 40.0,68.0 L 47.0,57.0 L 50.0,54.0" fill="#F7F7F7"/>
	<path d="M 42.0,122.0 L 44.0,125.0 L 52.0,138.0 L 56.0,144.0 L 56.0,151.0 L 49.0,145.0 L 42.0,136.0 L 41.0,134.0 L 41.0,124.0 L 42.0,122.0" fill="#F3F3F3"/>
</svg>
