<?xml version="1.0" ?>
<svg baseProfile="full" height="600px" version="1.1" viewBox="-20.1 -20.1 240.2 240.2" width="600px" xmlns="http://www.w3.org/2000/svg" xmlns:ev="http://www.w3.org/2001/xml-events" xmlns:xlink="http://www.w3.org/1999/xlink">
	<defs/>
	<path d="M 0.0,0.0 L 200.0,0.0 L 200.0,200.0 L 0.0,200.0 L 0.0,0.0" fill="#FDFDFD"/>
	<path d="M 140.0,1.0 L 162.0,1.0 L 175.0,6.0 L 175.0,9.0 L 161.0,21.0 L 151.0,29.0 L 142.0,36.0 L 145.0,47.0 L 147.0,53.0 L 162.0,60.0 L 171.0,52.0 L 182.0,43.0 L 196.0,32.0 L 198.0,35.0 L 199.0,38.0 L 199.0,59.0 L 194.0,72.0 L 187.0,81.0 L 178.0,89.0 L 168.0,94.0 L 162.0,96.0 L 141.0,96.0 L 132.0,93.0 L 128.0,94.0 L 114.0,105.0 L 99.0,118.0 L 89.0,126.0 L 76.0,137.0 L 62.0,148.0 L 47.0,161.0 L 37.0,168.0 L 35.0,169.0 L 23.0,169.0 L 15.0,164.0 L 11.0,159.0 L 9.0,154.0 L 9.0,146.0 L 13.0,138.0 L 20.0,131.0 L 31.0,122.0 L 44.0,111.0 L 54.0,103.0 L 67.0,92.0 L 77.0,84.0 L 90.0,73.0 L 100.0,65.0 L 104.0,62.0 L 104.0,37.0 L 109.0,25.0 L 117.0,14.0 L 128.0,6.0 L 140.0,1.0" fill="#FAFAFA"/>
	<path d="M 140.0,1.0 L 162.0,1.0 L 175.0,6.0 L 175.0,9.0 L 161.0,21.0 L 151.0,29.0 L 142.0,36.0 L 145.0,47.0 L 147.0,53.0 L 162.0,60.0 L 171.0,52.0 L 182.0,43.0 L 196.0,32.0 L 198.0,35.0 L 199.0,38.0 L 199.0,59.0 L 194.0,72.0 L 187.0,81.0 L 178.0,89.0 L 168.0,94.0 L 162.0,96.0 L 141.0,96.0 L 132.0,93.0 L 128.0,94.0 L 114.0,105.0 L 99.0,118.0 L 89.0,126.0 L 76.0,137.0 L 62.0,148.0 L 47.0,161.0 L 37.0,168.0 L 35.0,169.0 L 23.0,169.0 L 15.0,164.0 L 11.0,159.0 L 9.0,154.0 L 9.0,146.0 L 13.0,138.0 L 20.0,131.0 L 31.0,122.0 L 44.0,111.0 L 54.0,103.0 L 67.0,92.0 L 77.0,84.0 L 90.0,73.0 L 100.0,65.0 L 104.0,62.0 L 104.0,37.0 L 109.0,25.0 L 117.0,14.0 L 128.0,6.0 L 140.0,1.0 M 142.0,9.0 L 130.0,14.0 L 120.0,23.0 L 114.0,33.0 L 112.0,39.0 L 112.0,58.0 L 113.0,65.0 L 100.0,76.0 L 86.0,87.0 L 71.0,100.0 L 61.0,108.0 L 48.0,119.0 L 38.0,127.0 L 25.0,138.0 L 19.0,143.0 L 18.0,145.0 L 18.0,154.0 L 20.0,158.0 L 25.0,161.0 L 32.0,161.0 L 39.0,157.0 L 48.0,149.0 L 59.0,140.0 L 72.0,129.0 L 82.0,121.0 L 95.0,110.0 L 105.0,102.0 L 118.0,91.0 L 128.0,83.0 L 132.0,84.0 L 142.0,88.0 L 160.0,88.0 L 172.0,83.0 L 180.0,77.0 L 187.0,68.0 L 191.0,57.0 L 191.0,47.0 L 183.0,53.0 L 166.0,67.0 L 161.0,69.0 L 141.0,59.0 L 138.0,52.0 L 133.0,35.0 L 133.0,33.0 L 144.0,24.0 L 160.0,11.0 L 160.0,9.0 L 142.0,9.0" fill="#080808"/>
</svg>
