<?xml version="1.0" ?>
<svg baseProfile="full" height="600px" version="1.1" viewBox="-20.1 -20.1 240.2 240.2" width="600px" xmlns="http://www.w3.org/2000/svg" xmlns:ev="http://www.w3.org/2001/xml-events" xmlns:xlink="http://www.w3.org/1999/xlink">
	<defs/>
	<path d="M 0.0,0.0 L 200.0,0.0 L 200.0,200.0 L 0.0,200.0 L 0.0,0.0" fill="#FDFDFD"/>
	<path d="M 142.0,1.0 L 157.0,1.0 L 169.0,4.0 L 180.0,10.0 L 180.0,13.0 L 160.0,25.0 L 144.0,35.0 L 144.0,43.0 L 146.0,53.0 L 158.0,61.0 L 162.0,60.0 L 188.0,44.0 L 196.0,39.0 L 198.0,39.0 L 199.0,43.0 L 199.0,55.0 L 197.0,63.0 L 193.0,73.0 L 186.0,82.0 L 177.0,90.0 L 166.0,95.0 L 157.0,97.0 L 142.0,97.0 L 128.0,92.0 L 123.0,90.0 L 103.0,102.0 L 81.0,116.0 L 60.0,129.0 L 36.0,144.0 L 28.0,148.0 L 17.0,148.0 L 10.0,144.0 L 5.0,138.0 L 3.0,132.0 L 3.0,124.0 L 9.0,114.0 L 28.0,102.0 L 52.0,87.0 L 73.0,74.0 L 97.0,59.0 L 102.0,56.0 L 103.0,39.0 L 108.0,26.0 L 116.0,15.0 L 125.0,8.0 L 135.0,3.0 L 142.0,1.0" fill="#FAFAFA"/>
	<path d="M 142.0,1.0 L 157.0,1.0 L 169.0,4.0 L 180.0,10.0 L 180.0,13.0 L 160.0,25.0 L 144.0,35.0 L 144.0,43.0 L 146.0,53.0 L 158.0,61.0 L 162.0,60.0 L 188.0,44.0 L 196.0,39.0 L 198.0,39.0 L 199.0,43.0 L 199.0,55.0 L 197.0,63.0 L 193.0,73.0 L 186.0,82.0 L 177.0,90.0 L 166.0,95.0 L 157.0,97.0 L 142.0,97.0 L 128.0,92.0 L 123.0,90.0 L 103.0,102.0 L 81.0,116.0 L 60.0,129.0 L 36.0,144.0 L 28.0,148.0 L 17.0,148.0 L 10.0,144.0 L 5.0,138.0 L 3.0,132.0 L 3.0,124.0 L 9.0,114.0 L 28.0,102.0 L 52.0,87.0 L 73.0,74.0 L 97.0,59.0 L 102.0,56.0 L 103.0,39.0 L 108.0,26.0 L 116.0,15.0 L 125.0,8.0 L 135.0,3.0 L 142.0,1.0 M 143.0,9.0 L 132.0,13.0 L 123.0,20.0 L 117.0,27.0 L 112.0,37.0 L 111.0,42.0 L 111.0,60.0 L 91.0,72.0 L 69.0,86.0 L 48.0,99.0 L 24.0,114.0 L 14.0,121.0 L 11.0,126.0 L 12.0,134.0 L 17.0,139.0 L 18.0,140.0 L 27.0,140.0 L 53.0,124.0 L 72.0,112.0 L 93.0,99.0 L 117.0,84.0 L 123.0,80.0 L 128.0,82.0 L 140.0,88.0 L 143.0,89.0 L 156.0,89.0 L 169.0,85.0 L 179.0,78.0 L 186.0,69.0 L 190.0,58.0 L 190.0,53.0 L 182.0,57.0 L 163.0,69.0 L 158.0,71.0 L 142.0,60.0 L 138.0,57.0 L 135.0,40.0 L 135.0,31.0 L 155.0,19.0 L 164.0,13.0 L 164.0,11.0 L 155.0,9.0 L 143.0,9.0" fill="#080808"/>
</svg>
