<?xml version="1.0" ?>
<svg baseProfile="full" height="600px" version="1.1" viewBox="-20.1 -20.1 240.2 240.2" width="600px" xmlns="http://www.w3.org/2000/svg" xmlns:ev="http://www.w3.org/2001/xml-events" xmlns:xlink="http://www.w3.org/1999/xlink">
	<defs/>
	<path d="M 0.0,0.0 L 200.0,0.0 L 200.0,200.0 L 0.0,200.0 L 0.0,0.0" fill="#FDFDFD"/>
	<path d="M 143.0,0.0 L 200.0,0.0 L 200.0,54.0 L 197.0,66.0 L 191.0,77.0 L 181.0,87.0 L 165.0,95.0 L 158.0,96.0 L 143.0,96.0 L 134.0,94.0 L 125.0,103.0 L 117.0,110.0 L 55.0,172.0 L 47.0,179.0 L 39.0,183.0 L 30.0,183.0 L 24.0,180.0 L 19.0,175.0 L 16.0,169.0 L 16.0,156.0 L 22.0,148.0 L 41.0,129.0 L 49.0,122.0 L 105.0,66.0 L 107.0,66.0 L 105.0,61.0 L 104.0,55.0 L 104.0,39.0 L 109.0,25.0 L 116.0,16.0 L 123.0,9.0 L 136.0,2.0 L 143.0,0.0" fill="#070707"/>
	<path d="M 146.0,8.0 L 157.0,8.0 L 155.0,12.0 L 133.0,34.0 L 134.0,40.0 L 141.0,58.0 L 151.0,63.0 L 165.0,68.0 L 188.0,45.0 L 190.0,45.0 L 190.0,43.0 L 192.0,43.0 L 192.0,55.0 L 187.0,68.0 L 181.0,76.0 L 174.0,82.0 L 162.0,87.0 L 158.0,88.0 L 144.0,88.0 L 134.0,84.0 L 130.0,86.0 L 80.0,136.0 L 72.0,143.0 L 42.0,173.0 L 38.0,175.0 L 31.0,175.0 L 25.0,170.0 L 24.0,168.0 L 24.0,159.0 L 31.0,151.0 L 85.0,97.0 L 93.0,90.0 L 115.0,68.0 L 114.0,62.0 L 112.0,56.0 L 112.0,40.0 L 117.0,28.0 L 123.0,20.0 L 130.0,14.0 L 141.0,9.0 L 146.0,8.0" fill="#FAFAFA"/>
	<path d="M 157.0,0.0 L 200.0,0.0 L 200.0,41.0 L 199.0,41.0 L 196.0,29.0 L 194.0,29.0 L 164.0,59.0 L 158.0,58.0 L 147.0,53.0 L 141.0,39.0 L 142.0,35.0 L 160.0,17.0 L 168.0,10.0 L 173.0,4.0 L 164.0,2.0 L 157.0,1.0 L 157.0,0.0" fill="#FBFBFB"/>
</svg>
