<?xml version="1.0" ?>
<svg baseProfile="full" height="600px" version="1.1" viewBox="-20.1 -20.1 240.2 240.2" width="600px" xmlns="http://www.w3.org/2000/svg" xmlns:ev="http://www.w3.org/2001/xml-events" xmlns:xlink="http://www.w3.org/1999/xlink">
	<defs/>
	<path d="M 0.0,0.0 L 200.0,0.0 L 200.0,200.0 L 0.0,200.0 L 0.0,0.0" fill="#FDFDFD"/>
	<path d="M 142.0,2.0 L 155.0,2.0 L 167.0,5.0 L 178.0,11.0 L 183.0,16.0 L 164.0,26.0 L 144.0,36.0 L 144.0,53.0 L 155.0,63.0 L 160.0,62.0 L 183.0,51.0 L 196.0,44.0 L 198.0,44.0 L 198.0,56.0 L 195.0,67.0 L 190.0,77.0 L 181.0,87.0 L 172.0,93.0 L 163.0,97.0 L 158.0,98.0 L 140.0,98.0 L 129.0,94.0 L 118.0,88.0 L 65.0,114.0 L 29.0,132.0 L 23.0,134.0 L 15.0,134.0 L 7.0,130.0 L 2.0,124.0 L 0.0,119.0 L 0.0,109.0 L 5.0,101.0 L 11.0,96.0 L 56.0,74.0 L 96.0,54.0 L 102.0,53.0 L 102.0,41.0 L 105.0,31.0 L 111.0,21.0 L 117.0,14.0 L 127.0,7.0 L 134.0,4.0 L 142.0,2.0" fill="#FAFAFA"/>
	<path d="M 142.0,2.0 L 155.0,2.0 L 167.0,5.0 L 178.0,11.0 L 183.0,16.0 L 164.0,26.0 L 144.0,36.0 L 144.0,53.0 L 155.0,63.0 L 160.0,62.0 L 183.0,51.0 L 196.0,44.0 L 198.0,44.0 L 198.0,56.0 L 195.0,67.0 L 190.0,77.0 L 181.0,87.0 L 172.0,93.0 L 163.0,97.0 L 158.0,98.0 L 140.0,98.0 L 129.0,94.0 L 118.0,88.0 L 65.0,114.0 L 29.0,132.0 L 23.0,134.0 L 15.0,134.0 L 7.0,130.0 L 2.0,124.0 L 0.0,119.0 L 0.0,109.0 L 5.0,101.0 L 11.0,96.0 L 56.0,74.0 L 96.0,54.0 L 102.0,53.0 L 102.0,41.0 L 105.0,31.0 L 111.0,21.0 L 117.0,14.0 L 127.0,7.0 L 134.0,4.0 L 142.0,2.0 M 143.0,10.0 L 131.0,14.0 L 122.0,21.0 L 115.0,29.0 L 110.0,41.0 L 109.0,57.0 L 70.0,76.0 L 28.0,97.0 L 12.0,105.0 L 8.0,111.0 L 9.0,120.0 L 15.0,125.0 L 22.0,126.0 L 47.0,114.0 L 95.0,90.0 L 118.0,79.0 L 122.0,80.0 L 133.0,87.0 L 141.0,90.0 L 156.0,90.0 L 168.0,86.0 L 177.0,80.0 L 184.0,71.0 L 188.0,62.0 L 187.0,58.0 L 164.0,69.0 L 157.0,73.0 L 153.0,72.0 L 141.0,61.0 L 136.0,57.0 L 135.0,31.0 L 160.0,19.0 L 167.0,15.0 L 165.0,13.0 L 156.0,10.0 L 143.0,10.0" fill="#080808"/>
</svg>
