<?xml version="1.0" ?>
<svg baseProfile="full" height="600px" version="1.1" viewBox="-20.1 -20.1 240.2 240.2" width="600px" xmlns="http://www.w3.org/2000/svg" xmlns:ev="http://www.w3.org/2001/xml-events" xmlns:xlink="http://www.w3.org/1999/xlink">
	<defs/>
	<path d="M 0.0,0.0 L 200.0,0.0 L 200.0,200.0 L 0.0,200.0 L 0.0,0.0" fill="#FDFDFD"/>
	<path d="M 0.0,0.0 L 200.0,0.0 L 200.0,200.0 L 0.0,200.0 L 0.0,0.0 M 30.0,12.0 L 22.0,16.0 L 15.0,23.0 L 12.0,30.0 L 12.0,169.0 L 16.0,178.0 L 25.0,186.0 L 30.0,188.0 L 169.0,188.0 L 178.0,184.0 L 185.0,177.0 L 188.0,169.0 L 188.0,30.0 L 184.0,22.0 L 175.0,14.0 L 169.0,12.0 L 30.0,12.0" fill="#FDFDFD"/>
	<path d="M 30.0,12.0 L 169.0,12.0 L 178.0,16.0 L 185.0,23.0 L 188.0,30.0 L 188.0,169.0 L 184.0,178.0 L 177.0,185.0 L 169.0,188.0 L 30.0,188.0 L 22.0,184.0 L 14.0,175.0 L 12.0,169.0 L 12.0,30.0 L 16.0,22.0 L 23.0,15.0 L 30.0,12.0 M 31.0,20.0 L 25.0,24.0 L 21.0,29.0 L 20.0,31.0 L 20.0,168.0 L 24.0,175.0 L 31.0,180.0 L 168.0,180.0 L 176.0,175.0 L 180.0,168.0 L 180.0,31.0 L 174.0,23.0 L 168.0,20.0 L 31.0,20.0" fill="#020202"/>
	<path d="M 70.0,52.0 L 76.0,53.0 L 100.0,67.0 L 126.0,82.0 L 150.0,96.0 L 152.0,98.0 L 151.0,103.0 L 138.0,111.0 L 110.0,127.0 L 86.0,141.0 L 74.0,148.0 L 69.0,147.0 L 68.0,146.0 L 68.0,54.0 L 70.0,52.0" fill="#FCFCFC"/>
	<path d="M 70.0,52.0 L 76.0,53.0 L 100.0,67.0 L 126.0,82.0 L 150.0,96.0 L 152.0,98.0 L 151.0,103.0 L 138.0,111.0 L 110.0,127.0 L 86.0,141.0 L 74.0,148.0 L 69.0,147.0 L 68.0,146.0 L 68.0,54.0 L 70.0,52.0 M 76.0,63.0 L 76.0,137.0 L 87.0,131.0 L 115.0,115.0 L 139.0,101.0 L 139.0,99.0 L 113.0,84.0 L 87.0,69.0 L 76.0,63.0" fill="#050505"/>
</svg>
