<?xml version="1.0" ?>
<svg baseProfile="full" height="600px" version="1.1" viewBox="-20.1 -20.1 240.2 240.2" width="600px" xmlns="http://www.w3.org/2000/svg" xmlns:ev="http://www.w3.org/2001/xml-events" xmlns:xlink="http://www.w3.org/1999/xlink">
	<defs/>
	<path d="M 0.0,0.0 L 200.0,0.0 L 200.0,200.0 L 0.0,200.0 L 0.0,0.0" fill="#FCFCFC"/>
	<path d="M 34.0,64.0 L 167.0,64.0 L 177.0,69.0 L 183.0,77.0 L 185.0,81.0 L 185.0,161.0 L 182.0,169.0 L 178.0,174.0 L 169.0,179.0 L 166.0,180.0 L 33.0,180.0 L 25.0,176.0 L 20.0,171.0 L 16.0,165.0 L 15.0,161.0 L 15.0,81.0 L 20.0,72.0 L 28.0,66.0 L 34.0,64.0" fill="#FCFCFC"/>
	<path d="M 34.0,64.0 L 167.0,64.0 L 177.0,69.0 L 183.0,77.0 L 185.0,81.0 L 185.0,161.0 L 182.0,169.0 L 178.0,174.0 L 169.0,179.0 L 166.0,180.0 L 33.0,180.0 L 25.0,176.0 L 20.0,171.0 L 16.0,165.0 L 15.0,161.0 L 15.0,81.0 L 20.0,72.0 L 28.0,66.0 L 34.0,64.0 M 34.0,72.0 L 28.0,76.0 L 24.0,81.0 L 23.0,83.0 L 23.0,160.0 L 26.0,166.0 L 32.0,171.0 L 35.0,172.0 L 165.0,172.0 L 173.0,167.0 L 176.0,163.0 L 177.0,160.0 L 177.0,83.0 L 173.0,77.0 L 168.0,73.0 L 166.0,72.0 L 34.0,72.0" fill="#060606"/>
	<path d="M 100.0,104.0 L 102.0,104.0 L 102.0,116.0 L 104.0,116.0 L 105.0,118.0 L 106.0,116.0 L 108.0,116.0 L 109.0,118.0 L 109.0,140.0 L 106.0,140.0 L 107.0,144.0 L 109.0,144.0 L 109.0,157.0 L 108.0,159.0 L 106.0,159.0 L 105.0,156.0 L 104.0,160.0 L 96.0,160.0 L 96.0,116.0 L 100.0,116.0 L 100.0,104.0" fill="#727272"/>
	<path d="M 100.0,104.0 L 101.0,104.0 L 101.0,160.0 L 96.0,160.0 L 96.0,116.0 L 100.0,116.0 L 100.0,104.0" fill="#959595"/>
	<path d="M 86.0,51.0 L 106.0,51.0 L 108.0,52.0 L 108.0,57.0 L 107.0,58.0 L 85.0,58.0 L 84.0,57.0 L 84.0,52.0 L 86.0,51.0" fill="#292929"/>
	<path d="M 106.0,116.0 L 108.0,116.0 L 109.0,118.0 L 109.0,140.0 L 106.0,140.0 L 107.0,144.0 L 109.0,144.0 L 109.0,157.0 L 108.0,159.0 L 106.0,159.0 L 105.0,156.0 L 105.0,122.0 L 106.0,116.0" fill="#010101"/>
	<path d="M 91.0,104.0 L 95.0,104.0 L 94.0,160.0 L 92.0,160.0 L 91.0,104.0" fill="#565656"/>
	<path d="M 54.0,49.0 L 62.0,49.0 L 66.0,51.0 L 72.0,50.0 L 74.0,49.0 L 82.0,49.0 L 78.0,52.0 L 72.0,54.0 L 72.0,58.0 L 64.0,58.0 L 64.0,54.0 L 58.0,52.0 L 54.0,49.0" fill="#0A0A0A"/>
	<path d="M 96.0,116.0 L 99.0,116.0 L 99.0,160.0 L 96.0,160.0 L 96.0,116.0" fill="#141414"/>
	<path d="M 116.0,51.0 L 124.0,51.0 L 124.0,57.0 L 130.0,57.0 L 130.0,58.0 L 117.0,58.0 L 116.0,57.0 L 116.0,51.0" fill="#0C0C0C"/>
	<path d="M 132.0,51.0 L 140.0,51.0 L 140.0,58.0 L 132.0,58.0 L 132.0,51.0" fill="#070707"/>
	<path d="M 84.0,52.0 L 92.0,52.0 L 92.0,57.0 L 99.0,57.0 L 99.0,58.0 L 85.0,58.0 L 84.0,57.0 L 84.0,52.0" fill="#0A0A0A"/>
	<path d="M 103.0,125.0 L 104.0,125.0 L 104.0,160.0 L 101.0,160.0 L 101.0,150.0 L 102.0,150.0 L 103.0,125.0" fill="#121212"/>
	<path d="M 107.0,144.0 L 109.0,144.0 L 109.0,157.0 L 108.0,159.0 L 106.0,159.0 L 105.0,156.0 L 105.0,149.0 L 106.0,149.0 L 107.0,144.0" fill="#383838"/>
	<path d="M 108.0,118.0 L 109.0,118.0 L 109.0,140.0 L 108.0,140.0 L 108.0,132.0 L 106.0,132.0 L 106.0,124.0 L 108.0,124.0 L 108.0,118.0" fill="#636363"/>
	<path d="M 91.0,104.0 L 95.0,104.0 L 95.0,112.0 L 91.0,112.0 L 91.0,104.0" fill="#0C0C0C"/>
	<path d="M 92.0,53.0 L 100.0,53.0 L 100.0,57.0 L 92.0,57.0 L 92.0,53.0" fill="#E6E6E6"/>
	<path d="M 106.0,116.0 L 108.0,116.0 L 108.0,124.0 L 106.0,124.0 L 105.0,126.0 L 106.0,116.0" fill="#0C0C0C"/>
</svg>
