<?xml version="1.0" ?>
<svg baseProfile="full" height="600px" version="1.1" viewBox="-12.06 -12.06 144.12 144.12" width="600px" xmlns="http://www.w3.org/2000/svg" xmlns:ev="http://www.w3.org/2001/xml-events" xmlns:xlink="http://www.w3.org/1999/xlink">
	<defs/>
	<path d="M 0.0,0.0 L 120.0,0.0 L 120.0,120.0 L 0.0,120.0 L 0.0,0.0" fill="#020202"/>
	<path d="M 0.0,0.0 L 120.0,0.0 L 120.0,120.0 L 0.0,120.0 L 0.0,0.0 M 22.0,16.0 L 17.0,20.0 L 16.0,22.0 L 16.0,101.0 L 21.0,107.0 L 23.0,108.0 L 96.0,108.0 L 101.0,105.0 L 104.0,100.0 L 104.0,22.0 L 100.0,17.0 L 97.0,16.0 L 22.0,16.0" fill="#FDFDFD"/>
	<path d="M 45.0,36.0 L 49.0,37.0 L 78.0,54.0 L 84.0,58.0 L 83.0,63.0 L 54.0,80.0 L 48.0,84.0 L 44.0,83.0 L 44.0,37.0 L 45.0,36.0" fill="#FBFBFB"/>
</svg>
