<?xml version="1.0" ?>
<svg baseProfile="full" height="600px" version="1.1" viewBox="-20.1 -20.1 240.2 240.2" width="600px" xmlns="http://www.w3.org/2000/svg" xmlns:ev="http://www.w3.org/2001/xml-events" xmlns:xlink="http://www.w3.org/1999/xlink">
	<defs/>
	<path d="M 0.0,0.0 L 200.0,0.0 L 200.0,200.0 L 0.0,200.0 L 0.0,0.0" fill="#FDFDFD"/>
	<path d="M 65.0,88.0 L 113.0,88.0 L 132.0,93.0 L 137.0,97.0 L 140.0,103.0 L 140.0,158.0 L 136.0,164.0 L 131.0,168.0 L 121.0,170.0 L 114.0,172.0 L 61.0,172.0 L 48.0,168.0 L 42.0,163.0 L 39.0,156.0 L 38.0,143.0 L 38.0,120.0 L 39.0,105.0 L 43.0,97.0 L 48.0,93.0 L 57.0,89.0 L 65.0,88.0" fill="#FBFBFB"/>
	<path d="M 65.0,88.0 L 113.0,88.0 L 132.0,93.0 L 137.0,97.0 L 140.0,103.0 L 140.0,158.0 L 136.0,164.0 L 131.0,168.0 L 121.0,170.0 L 114.0,172.0 L 61.0,172.0 L 48.0,168.0 L 42.0,163.0 L 39.0,156.0 L 38.0,143.0 L 38.0,120.0 L 39.0,105.0 L 43.0,97.0 L 48.0,93.0 L 57.0,89.0 L 65.0,88.0 M 65.0,96.0 L 55.0,98.0 L 50.0,102.0 L 47.0,110.0 L 47.0,147.0 L 49.0,157.0 L 54.0,162.0 L 64.0,164.0 L 107.0,164.0 L 121.0,162.0 L 126.0,158.0 L 129.0,148.0 L 129.0,110.0 L 126.0,102.0 L 121.0,98.0 L 104.0,96.0 L 65.0,96.0" fill="#070707"/>
</svg>
