<?xml version="1.0" ?>
<svg baseProfile="full" height="600px" version="1.1" viewBox="-12.06 -12.06 144.12 144.12" width="600px" xmlns="http://www.w3.org/2000/svg" xmlns:ev="http://www.w3.org/2001/xml-events" xmlns:xlink="http://www.w3.org/1999/xlink">
	<defs/>
	<path d="M 0.0,0.0 L 120.0,0.0 L 120.0,120.0 L 0.0,120.0 L 0.0,0.0" fill="#020202"/>
	<path d="M 0.0,0.0 L 120.0,0.0 L 120.0,120.0 L 0.0,120.0 L 0.0,0.0 M 22.0,22.0 L 17.0,27.0 L 16.0,28.0 L 16.0,101.0 L 21.0,107.0 L 23.0,108.0 L 96.0,108.0 L 101.0,105.0 L 104.0,100.0 L 104.0,28.0 L 99.0,23.0 L 97.0,22.0 L 22.0,22.0" fill="#FDFDFD"/>
	<path d="M 44.0,60.0 L 49.0,61.0 L 64.0,70.0 L 63.0,74.0 L 46.0,84.0 L 44.0,83.0 L 44.0,60.0" fill="#F1F1F1"/>
</svg>
