<?xml version="1.0" ?>
<svg baseProfile="full" height="600px" version="1.1" viewBox="-20.1 -20.1 240.2 240.2" width="600px" xmlns="http://www.w3.org/2000/svg" xmlns:ev="http://www.w3.org/2001/xml-events" xmlns:xlink="http://www.w3.org/1999/xlink">
	<defs/>
	<path d="M 0.0,0.0 L 200.0,0.0 L 200.0,200.0 L 0.0,200.0 L 0.0,0.0" fill="#F7F7F7"/>
	<path d="M 0.0,0.0 L 200.0,0.0 L 200.0,200.0 L 0.0,200.0 L 0.0,0.0 M 129.0,31.0 L 123.0,36.0 L 116.0,44.0 L 104.0,56.0 L 101.0,60.0 L 99.0,60.0 L 92.0,52.0 L 85.0,45.0 L 79.0,38.0 L 74.0,38.0 L 72.0,40.0 L 73.0,45.0 L 85.0,57.0 L 90.0,63.0 L 29.0,64.0 L 21.0,68.0 L 15.0,75.0 L 12.0,82.0 L 12.0,178.0 L 17.0,188.0 L 24.0,194.0 L 29.0,196.0 L 167.0,196.0 L 175.0,193.0 L 180.0,188.0 L 183.0,184.0 L 185.0,179.0 L 185.0,81.0 L 181.0,73.0 L 173.0,66.0 L 167.0,64.0 L 110.0,63.0 L 119.0,54.0 L 126.0,46.0 L 134.0,38.0 L 134.0,33.0 L 132.0,31.0 L 129.0,31.0" fill="#FDFDFD"/>
	<path d="M 67.0,84.0 L 114.0,84.0 L 125.0,85.0 L 134.0,88.0 L 139.0,93.0 L 141.0,96.0 L 143.0,105.0 L 144.0,120.0 L 144.0,146.0 L 142.0,159.0 L 139.0,167.0 L 134.0,172.0 L 124.0,175.0 L 115.0,176.0 L 71.0,176.0 L 51.0,175.0 L 42.0,172.0 L 37.0,168.0 L 34.0,161.0 L 32.0,140.0 L 32.0,116.0 L 34.0,99.0 L 38.0,91.0 L 46.0,86.0 L 67.0,84.0" fill="#FBFBFB"/>
	<path d="M 129.0,31.0 L 133.0,32.0 L 134.0,33.0 L 134.0,38.0 L 120.0,52.0 L 113.0,60.0 L 110.0,63.0 L 167.0,64.0 L 176.0,68.0 L 183.0,76.0 L 185.0,81.0 L 185.0,179.0 L 181.0,187.0 L 176.0,192.0 L 171.0,195.0 L 167.0,196.0 L 29.0,196.0 L 21.0,192.0 L 15.0,185.0 L 12.0,178.0 L 12.0,82.0 L 17.0,72.0 L 24.0,66.0 L 29.0,64.0 L 90.0,63.0 L 76.0,48.0 L 72.0,43.0 L 73.0,39.0 L 74.0,38.0 L 79.0,38.0 L 94.0,54.0 L 99.0,60.0 L 103.0,58.0 L 110.0,50.0 L 122.0,38.0 L 127.0,32.0 L 129.0,31.0 M 30.0,72.0 L 23.0,77.0 L 20.0,83.0 L 20.0,176.0 L 24.0,184.0 L 30.0,188.0 L 166.0,188.0 L 172.0,185.0 L 176.0,180.0 L 177.0,178.0 L 177.0,82.0 L 173.0,76.0 L 169.0,73.0 L 166.0,72.0 L 30.0,72.0" fill="#060606"/>
	<path d="M 57.0,76.0 L 119.0,76.0 L 135.0,80.0 L 143.0,85.0 L 149.0,95.0 L 151.0,102.0 L 152.0,112.0 L 152.0,148.0 L 150.0,162.0 L 145.0,172.0 L 140.0,177.0 L 132.0,181.0 L 123.0,183.0 L 114.0,184.0 L 59.0,184.0 L 45.0,182.0 L 35.0,177.0 L 29.0,169.0 L 25.0,156.0 L 24.0,151.0 L 24.0,108.0 L 27.0,95.0 L 33.0,85.0 L 40.0,80.0 L 49.0,77.0 L 57.0,76.0 M 67.0,84.0 L 46.0,86.0 L 38.0,91.0 L 34.0,99.0 L 32.0,116.0 L 32.0,140.0 L 34.0,161.0 L 38.0,169.0 L 43.0,173.0 L 51.0,175.0 L 71.0,176.0 L 115.0,176.0 L 128.0,174.0 L 135.0,171.0 L 140.0,166.0 L 143.0,156.0 L 144.0,146.0 L 144.0,120.0 L 143.0,105.0 L 140.0,94.0 L 135.0,89.0 L 128.0,86.0 L 125.0,85.0 L 114.0,84.0 L 67.0,84.0" fill="#070707"/>
</svg>
