<?xml version="1.0" ?>
<svg baseProfile="full" height="600px" version="1.1" viewBox="-12.06 -12.06 144.12 144.12" width="600px" xmlns="http://www.w3.org/2000/svg" xmlns:ev="http://www.w3.org/2001/xml-events" xmlns:xlink="http://www.w3.org/1999/xlink">
	<defs/>
	<path d="M 0.0,0.0 L 120.0,0.0 L 120.0,120.0 L 0.0,120.0 L 0.0,0.0" fill="#FDFDFD"/>
	<path d="M 22.0,43.0 L 98.0,43.0 L 103.0,48.0 L 104.0,49.0 L 104.0,100.0 L 101.0,105.0 L 96.0,108.0 L 23.0,108.0 L 17.0,103.0 L 16.0,101.0 L 16.0,49.0 L 21.0,44.0 L 22.0,43.0" fill="#020202"/>
	<path d="M 60.0,65.0 L 61.0,65.0 L 62.0,74.0 L 65.0,74.0 L 65.0,98.0 L 56.0,98.0 L 55.0,66.0 L 58.0,66.0 L 57.0,74.0 L 60.0,74.0 L 60.0,65.0" fill="#B4B4B4"/>
	<path d="M 55.0,66.0 L 58.0,66.0 L 59.0,98.0 L 56.0,98.0 L 55.0,66.0" fill="#C1C1C1"/>
	<path d="M 69.0,30.0 L 75.0,30.0 L 75.0,33.0 L 79.0,33.0 L 79.0,30.0 L 86.0,30.0 L 86.0,34.0 L 69.0,34.0 L 69.0,30.0" fill="#212121"/>
	<path d="M 49.0,30.0 L 55.0,30.0 L 55.0,33.0 L 59.0,33.0 L 59.0,30.0 L 65.0,30.0 L 65.0,34.0 L 49.0,34.0 L 49.0,30.0" fill="#242424"/>
	<path d="M 30.0,28.0 L 36.0,28.0 L 41.0,30.0 L 43.0,28.0 L 49.0,28.0 L 46.0,31.0 L 43.0,34.0 L 37.0,34.0 L 37.0,32.0 L 32.0,30.0 L 30.0,28.0" fill="#161616"/>
	<path d="M 62.0,76.0 L 64.0,78.0 L 64.0,85.0 L 62.0,94.0 L 61.0,94.0 L 61.0,78.0 L 62.0,76.0" fill="#898989"/>
	<path d="M 59.0,30.0 L 65.0,30.0 L 65.0,34.0 L 59.0,34.0 L 59.0,30.0" fill="#181818"/>
	<path d="M 80.0,30.0 L 86.0,30.0 L 86.0,34.0 L 81.0,34.0 L 80.0,30.0" fill="#030303"/>
	<path d="M 52.0,29.0 L 62.0,29.0 L 59.0,30.0 L 59.0,33.0 L 55.0,33.0 L 55.0,30.0 L 52.0,29.0" fill="#C9C9C9"/>
</svg>
