<?xml version="1.0" ?>
<svg baseProfile="full" height="600px" version="1.1" viewBox="-20.1 -20.1 240.2 240.2" width="600px" xmlns="http://www.w3.org/2000/svg" xmlns:ev="http://www.w3.org/2001/xml-events" xmlns:xlink="http://www.w3.org/1999/xlink">
	<defs/>
	<path d="M 0.0,0.0 L 200.0,0.0 L 200.0,200.0 L 0.0,200.0 L 0.0,0.0" fill="#FBFBFB"/>
	<path d="M 0.0,0.0 L 200.0,0.0 L 200.0,200.0 L 174.0,200.0 L 177.0,198.0 L 184.0,194.0 L 189.0,187.0 L 191.0,181.0 L 191.0,78.0 L 186.0,68.0 L 180.0,63.0 L 175.0,61.0 L 110.0,60.0 L 116.0,53.0 L 155.0,14.0 L 154.0,9.0 L 149.0,10.0 L 101.0,58.0 L 97.0,56.0 L 70.0,29.0 L 65.0,30.0 L 66.0,35.0 L 90.0,59.0 L 90.0,60.0 L 25.0,61.0 L 17.0,65.0 L 12.0,71.0 L 9.0,78.0 L 9.0,181.0 L 13.0,190.0 L 17.0,195.0 L 25.0,199.0 L 25.0,200.0 L 0.0,200.0 L 0.0,0.0" fill="#FCFCFC"/>
	<path d="M 67.0,84.0 L 114.0,84.0 L 125.0,85.0 L 134.0,88.0 L 139.0,93.0 L 141.0,96.0 L 143.0,105.0 L 144.0,120.0 L 144.0,146.0 L 142.0,159.0 L 139.0,167.0 L 134.0,172.0 L 124.0,175.0 L 115.0,176.0 L 71.0,176.0 L 51.0,175.0 L 42.0,172.0 L 37.0,168.0 L 34.0,161.0 L 32.0,140.0 L 32.0,116.0 L 34.0,99.0 L 38.0,91.0 L 46.0,86.0 L 67.0,84.0" fill="#FBFBFB"/>
	<path d="M 150.0,8.0 L 155.0,9.0 L 156.0,14.0 L 111.0,59.0 L 175.0,60.0 L 183.0,64.0 L 189.0,71.0 L 192.0,78.0 L 192.0,181.0 L 188.0,190.0 L 183.0,196.0 L 174.0,200.0 L 25.0,200.0 L 17.0,196.0 L 11.0,189.0 L 8.0,181.0 L 8.0,78.0 L 13.0,68.0 L 20.0,62.0 L 25.0,60.0 L 89.0,59.0 L 64.0,34.0 L 65.0,29.0 L 70.0,28.0 L 99.0,57.0 L 103.0,55.0 L 150.0,8.0 M 26.0,68.0 L 20.0,72.0 L 16.0,79.0 L 16.0,180.0 L 20.0,188.0 L 26.0,192.0 L 173.0,192.0 L 180.0,188.0 L 184.0,181.0 L 184.0,79.0 L 180.0,72.0 L 172.0,68.0 L 26.0,68.0" fill="#020202"/>
	<path d="M 57.0,76.0 L 119.0,76.0 L 135.0,80.0 L 143.0,85.0 L 149.0,95.0 L 151.0,102.0 L 152.0,112.0 L 152.0,148.0 L 150.0,162.0 L 145.0,172.0 L 140.0,177.0 L 132.0,181.0 L 123.0,183.0 L 114.0,184.0 L 63.0,184.0 L 49.0,183.0 L 38.0,179.0 L 32.0,174.0 L 27.0,164.0 L 24.0,151.0 L 24.0,108.0 L 27.0,95.0 L 33.0,85.0 L 40.0,80.0 L 49.0,77.0 L 57.0,76.0 M 67.0,84.0 L 46.0,86.0 L 38.0,91.0 L 34.0,99.0 L 32.0,116.0 L 32.0,140.0 L 34.0,161.0 L 38.0,169.0 L 43.0,173.0 L 51.0,175.0 L 71.0,176.0 L 115.0,176.0 L 128.0,174.0 L 135.0,171.0 L 140.0,166.0 L 143.0,156.0 L 144.0,146.0 L 144.0,120.0 L 143.0,105.0 L 140.0,94.0 L 135.0,89.0 L 128.0,86.0 L 125.0,85.0 L 114.0,84.0 L 67.0,84.0" fill="#070707"/>
	<path d="M 165.0,140.0 L 171.0,140.0 L 176.0,145.0 L 175.0,153.0 L 171.0,156.0 L 165.0,156.0 L 160.0,151.0 L 160.0,145.0 L 165.0,140.0" fill="#090909"/>
	<path d="M 165.0,104.0 L 171.0,104.0 L 176.0,109.0 L 175.0,117.0 L 171.0,120.0 L 165.0,120.0 L 160.0,115.0 L 160.0,109.0 L 165.0,104.0" fill="#090909"/>
</svg>
