<?xml version="1.0" ?>
<svg baseProfile="full" height="600px" version="1.1" viewBox="-20.1 -20.1 240.2 240.2" width="600px" xmlns="http://www.w3.org/2000/svg" xmlns:ev="http://www.w3.org/2001/xml-events" xmlns:xlink="http://www.w3.org/1999/xlink">
	<defs/>
	<path d="M 0.0,0.0 L 200.0,0.0 L 200.0,200.0 L 0.0,200.0 L 0.0,0.0" fill="#FDFDFD"/>
	<path d="M 72.0,72.0 L 113.0,72.0 L 131.0,74.0 L 140.0,78.0 L 145.0,82.0 L 150.0,93.0 L 152.0,106.0 L 152.0,140.0 L 148.0,153.0 L 144.0,159.0 L 136.0,164.0 L 125.0,168.0 L 114.0,170.0 L 78.0,170.0 L 53.0,164.0 L 43.0,159.0 L 36.0,152.0 L 31.0,140.0 L 29.0,128.0 L 29.0,101.0 L 32.0,88.0 L 38.0,80.0 L 44.0,76.0 L 50.0,74.0 L 72.0,72.0" fill="#FBFBFB"/>
	<path d="M 72.0,72.0 L 113.0,72.0 L 131.0,74.0 L 140.0,78.0 L 145.0,82.0 L 150.0,93.0 L 152.0,106.0 L 152.0,140.0 L 148.0,153.0 L 144.0,159.0 L 136.0,164.0 L 125.0,168.0 L 114.0,170.0 L 78.0,170.0 L 53.0,164.0 L 43.0,159.0 L 36.0,152.0 L 31.0,140.0 L 29.0,128.0 L 29.0,101.0 L 32.0,88.0 L 38.0,80.0 L 44.0,76.0 L 50.0,74.0 L 72.0,72.0 M 67.0,80.0 L 48.0,83.0 L 42.0,87.0 L 38.0,96.0 L 37.0,102.0 L 37.0,127.0 L 39.0,140.0 L 44.0,149.0 L 52.0,155.0 L 61.0,158.0 L 81.0,162.0 L 112.0,162.0 L 129.0,158.0 L 137.0,154.0 L 141.0,149.0 L 143.0,144.0 L 144.0,138.0 L 144.0,103.0 L 140.0,90.0 L 135.0,84.0 L 130.0,82.0 L 112.0,80.0 L 67.0,80.0" fill="#080808"/>
</svg>
