<?xml version="1.0" ?>
<svg baseProfile="full" height="600px" version="1.1" viewBox="-19.296000000000003 -19.296000000000003 230.592 230.592" width="600px" xmlns="http://www.w3.org/2000/svg" xmlns:ev="http://www.w3.org/2001/xml-events" xmlns:xlink="http://www.w3.org/1999/xlink">
	<defs/>
	<path d="M 0.0,0.0 L 192.0,0.0 L 192.0,192.0 L 0.0,192.0 L 0.0,0.0" fill="#FDFDFD"/>
	<path d="M 70.0,16.0 L 89.0,16.0 L 103.0,20.0 L 117.0,27.0 L 129.0,38.0 L 136.0,48.0 L 141.0,59.0 L 144.0,71.0 L 144.0,89.0 L 140.0,104.0 L 133.0,117.0 L 133.0,121.0 L 176.0,164.0 L 170.0,171.0 L 164.0,176.0 L 120.0,132.0 L 115.0,134.0 L 101.0,141.0 L 90.0,144.0 L 70.0,144.0 L 54.0,139.0 L 43.0,133.0 L 31.0,122.0 L 24.0,112.0 L 19.0,101.0 L 16.0,87.0 L 16.0,70.0 L 21.0,54.0 L 27.0,43.0 L 38.0,31.0 L 48.0,24.0 L 59.0,19.0 L 70.0,16.0" fill="#64B4F3"/>
	<path d="M 70.0,16.0 L 89.0,16.0 L 103.0,20.0 L 117.0,27.0 L 129.0,38.0 L 136.0,48.0 L 141.0,59.0 L 144.0,71.0 L 144.0,89.0 L 140.0,104.0 L 133.0,117.0 L 133.0,121.0 L 176.0,164.0 L 170.0,171.0 L 164.0,176.0 L 120.0,132.0 L 115.0,134.0 L 101.0,141.0 L 90.0,144.0 L 70.0,144.0 L 54.0,139.0 L 43.0,133.0 L 31.0,122.0 L 24.0,112.0 L 19.0,101.0 L 16.0,87.0 L 16.0,70.0 L 21.0,54.0 L 27.0,43.0 L 38.0,31.0 L 48.0,24.0 L 59.0,19.0 L 70.0,16.0 M 71.0,28.0 L 59.0,32.0 L 50.0,37.0 L 40.0,46.0 L 34.0,55.0 L 29.0,67.0 L 28.0,71.0 L 28.0,88.0 L 32.0,101.0 L 39.0,113.0 L 47.0,121.0 L 57.0,127.0 L 67.0,131.0 L 71.0,132.0 L 89.0,132.0 L 103.0,127.0 L 113.0,121.0 L 121.0,113.0 L 127.0,103.0 L 132.0,89.0 L 132.0,72.0 L 129.0,61.0 L 123.0,50.0 L 114.0,40.0 L 103.0,33.0 L 93.0,29.0 L 88.0,28.0 L 71.0,28.0" fill="#636364"/>
	<path d="M 52.0,72.0 L 108.0,72.0 L 108.0,88.0 L 52.0,88.0 L 52.0,72.0" fill="#E1F1FD"/>
	<path d="M 140.0,131.0 L 144.0,132.0 L 176.0,164.0 L 170.0,171.0 L 164.0,176.0 L 130.0,142.0 L 130.0,140.0 L 138.0,133.0 L 140.0,131.0" fill="#394850"/>
</svg>
