<?xml version="1.0" ?>
<svg baseProfile="full" height="600px" version="1.1" viewBox="-20.1 -20.1 240.2 240.2" width="600px" xmlns="http://www.w3.org/2000/svg" xmlns:ev="http://www.w3.org/2001/xml-events" xmlns:xlink="http://www.w3.org/1999/xlink">
	<defs/>
	<path d="M 0.0,0.0 L 200.0,0.0 L 200.0,200.0 L 0.0,200.0 L 0.0,0.0" fill="#FDFDFD"/>
	<path d="M 77.0,12.0 L 93.0,12.0 L 105.0,15.0 L 117.0,20.0 L 127.0,27.0 L 135.0,34.0 L 144.0,47.0 L 149.0,58.0 L 152.0,69.0 L 152.0,88.0 L 150.0,98.0 L 145.0,111.0 L 138.0,122.0 L 138.0,126.0 L 187.0,175.0 L 186.0,179.0 L 178.0,187.0 L 174.0,186.0 L 125.0,137.0 L 120.0,138.0 L 108.0,144.0 L 94.0,148.0 L 73.0,148.0 L 57.0,143.0 L 46.0,137.0 L 35.0,128.0 L 27.0,118.0 L 20.0,104.0 L 17.0,95.0 L 16.0,89.0 L 16.0,69.0 L 21.0,53.0 L 27.0,42.0 L 35.0,32.0 L 46.0,23.0 L 62.0,15.0 L 69.0,13.0 L 77.0,12.0" fill="#FCFCFC"/>
	<path d="M 77.0,12.0 L 93.0,12.0 L 105.0,15.0 L 117.0,20.0 L 127.0,27.0 L 135.0,34.0 L 144.0,47.0 L 149.0,58.0 L 152.0,69.0 L 152.0,88.0 L 150.0,98.0 L 145.0,111.0 L 138.0,122.0 L 138.0,126.0 L 187.0,175.0 L 186.0,179.0 L 178.0,187.0 L 174.0,186.0 L 125.0,137.0 L 120.0,138.0 L 108.0,144.0 L 94.0,148.0 L 73.0,148.0 L 57.0,143.0 L 46.0,137.0 L 35.0,128.0 L 27.0,118.0 L 20.0,104.0 L 17.0,95.0 L 16.0,89.0 L 16.0,69.0 L 21.0,53.0 L 27.0,42.0 L 35.0,32.0 L 46.0,23.0 L 62.0,15.0 L 69.0,13.0 L 77.0,12.0 M 75.0,20.0 L 61.0,24.0 L 50.0,30.0 L 40.0,39.0 L 34.0,46.0 L 27.0,60.0 L 24.0,72.0 L 24.0,86.0 L 26.0,96.0 L 31.0,109.0 L 39.0,120.0 L 46.0,127.0 L 57.0,134.0 L 70.0,139.0 L 76.0,140.0 L 91.0,140.0 L 100.0,138.0 L 113.0,133.0 L 123.0,126.0 L 132.0,117.0 L 139.0,105.0 L 143.0,94.0 L 144.0,87.0 L 144.0,72.0 L 141.0,60.0 L 134.0,46.0 L 123.0,34.0 L 113.0,27.0 L 98.0,21.0 L 90.0,20.0 L 75.0,20.0" fill="#070707"/>
	<path d="M 111.0,64.0 L 114.0,67.0 L 115.0,72.0 L 108.0,75.0 L 116.0,76.0 L 116.0,84.0 L 83.0,85.0 L 57.0,96.0 L 55.0,95.0 L 53.0,88.0 L 60.0,85.0 L 52.0,84.0 L 52.0,76.0 L 84.0,75.0 L 111.0,64.0" fill="#040404"/>
</svg>
