<?xml version="1.0" encoding="utf-8"?>
<!-- Generator: Adobe Illustrator 23.0.3, SVG Export Plug-In . SVG Version: 6.00 Build 0)  -->
<svg version="1.1" id="Layer_1" xmlns="http://www.w3.org/2000/svg" xmlns:xlink="http://www.w3.org/1999/xlink" x="0px" y="0px"
	 viewBox="0 0 40 40" style="enable-background:new 0 0 40 40;" xml:space="preserve">
<style type="text/css">
	.st0{fill:#FFEEA3;}
	.st1{fill:#BA9B48;}
	.st2{fill:none;stroke:#5E9C76;stroke-width:2;}
</style>
<path class="st0" d="M20,32L8.3,38.1l2.2-13l-9.4-9.2l13.1-1.9L20,2.1l5.9,11.8l13.1,1.9l-9.4,9.2l2.2,13L20,32z"/>
<path class="st1" d="M20,3.2l5.3,10.7l0.2,0.5l0.5,0.1l11.8,1.7l-8.5,8.4L29,24.9l0.1,0.5l2,11.8l-10.6-5.5L20,31.4l-0.5,0.2L9,37.2
	l2-11.8l0.1-0.5l-0.4-0.4l-8.5-8.4l11.8-1.7l0.5-0.1l0.2-0.5L20,3.2 M20,1l-6.2,12.5L0,15.5l10,9.8L7.6,39L20,32.6L32.4,39L30,25.3
	l10-9.8l-13.8-2L20,1L20,1z"/>
<path class="st2" d="M14,22h12 M20,16v12"/>
</svg>
