<?xml version="1.0" encoding="utf-8"?>
<!-- Generator: Adobe Illustrator 23.0.3, SVG Export Plug-In . SVG Version: 6.00 Build 0)  -->
<svg version="1.1" id="Layer_1" xmlns="http://www.w3.org/2000/svg" xmlns:xlink="http://www.w3.org/1999/xlink" x="0px" y="0px"
	 viewBox="0 0 40 40" style="enable-background:new 0 0 40 40;" xml:space="preserve">
<style type="text/css">
	.st0{fill:#DBB065;}
	.st1{fill:#967A44;}
	.st2{fill:#F5CE85;}
	.st3{fill:#BAE0BD;}
	.st4{fill:#5E9C76;}
	.st5{fill:none;stroke:#FFFFFF;stroke-width:2;}
</style>
<path class="st0" d="M1.5,35.5v-31h10.3l3,3h23.7V34c0,0.8-0.7,1.5-1.5,1.5H1.5z"/>
<path class="st1" d="M11.6,5l2.7,2.7L14.6,8H15h23v26c0,0.6-0.4,1-1,1H2V5H11.6 M12,4H1v32h36c1.1,0,2-0.9,2-2V7H15L12,4L12,4z"/>
<path class="st2" d="M1.5,35.5v-26h10.7l3-2h23.3V34c0,0.8-0.7,1.5-1.5,1.5H1.5z"/>
<path class="st1" d="M38,8v26c0,0.6-0.4,1-1,1H2V10h10h0.3l0.3-0.2L15.3,8H38 M39,7H15l-3,2H1v27h36c1.1,0,2-0.9,2-2V7L39,7z"/>
<path class="st3" d="M31,22.5c-4.7,0-8.5,3.8-8.5,8.5s3.8,8.5,8.5,8.5s8.5-3.8,8.5-8.5S35.7,22.5,31,22.5z"/>
<path class="st4" d="M31,23c4.4,0,8,3.6,8,8s-3.6,8-8,8s-8-3.6-8-8S26.6,23,31,23 M31,22c-5,0-9,4-9,9s4,9,9,9s9-4,9-9S36,22,31,22
	L31,22z"/>
<path class="st5" d="M31,36V26 M26,31h10"/>
</svg>
