<?xml version="1.0" encoding="utf-8"?>
<!-- Generator: Adobe Illustrator 23.0.3, SVG Export Plug-In . SVG Version: 6.00 Build 0)  -->
<svg version="1.1" id="Layer_1" xmlns="http://www.w3.org/2000/svg" xmlns:xlink="http://www.w3.org/1999/xlink" x="0px" y="0px"
	 viewBox="0 0 40 40" style="enable-background:new 0 0 40 40;" xml:space="preserve">
<style type="text/css">
	.st0{fill:#BAE0BD;}
	.st1{fill:#5E9C76;}
	.st2{fill:#FFFFFF;}
</style>
<path class="st0" d="M20,37.5c-9.6,0-17.5-7.9-17.5-17.5S10.4,2.5,20,2.5S37.5,10.4,37.5,20S29.6,37.5,20,37.5z"/>
<path class="st1" d="M20,3c9.4,0,17,7.6,17,17s-7.6,17-17,17S3,29.4,3,20S10.6,3,20,3 M20,2C10.1,2,2,10.1,2,20s8.1,18,18,18
	s18-8.1,18-18S29.9,2,20,2L20,2z"/>
<path class="st2" d="M9,19h22v2H9V19z"/>
<path class="st2" d="M21,9v22h-2V9H21z"/>
</svg>
