<?xml version="1.0" encoding="utf-8"?>
<!-- Generator: Adobe Illustrator 23.1.0, SVG Export Plug-In . SVG Version: 6.00 Build 0)  -->
<svg version="1.1" id="Layer_1" xmlns="http://www.w3.org/2000/svg" xmlns:xlink="http://www.w3.org/1999/xlink" x="0px" y="0px"
	 viewBox="0 0 30 30" style="enable-background:new 0 0 30 30;" xml:space="preserve">
<path d="M15,3C8.4,3,3,8.4,3,15s5.4,12,12,12s12-5.4,12-12S21.6,3,15,3z M20,16h-4v4c0,0.6-0.4,1-1,1s-1-0.4-1-1v-4h-4
	c-0.6,0-1-0.4-1-1s0.4-1,1-1h4v-4c0-0.6,0.4-1,1-1s1,0.4,1,1v4h4c0.6,0,1,0.4,1,1S20.6,16,20,16z"/>
</svg>
