<svg xmlns="http://www.w3.org/2000/svg" viewBox="0 0 48 48" width="48px" height="48px"><path fill="#0277bd" d="M44,24c0,11.045-8.955,20-20,20S4,35.045,4,24S12.955,4,24,4S44,12.955,44,24z"/><path fill="#81d4fa" d="M42,24c0,9.94-8.06,18-18,18S6,33.94,6,24S14.06,6,24,6S42,14.06,42,24z"/><path fill="#03a9f4" d="M40,24c0,8.838-7.162,16-16,16S8,32.838,8,24S15.162,8,24,8S40,15.162,40,24z"/><path fill="#81d4fa" d="M16 33c0 .551-.449 1-1 1s-1-.449-1-1 .449-1 1-1S16 32.449 16 33zM34 15c0 .551-.449 1-1 1s-1-.449-1-1 .449-1 1-1S34 14.449 34 15zM16 15c0 .551-.449 1-1 1s-1-.449-1-1 .449-1 1-1S16 14.449 16 15zM34 33c0 .551-.449 1-1 1s-1-.449-1-1 .449-1 1-1S34 32.449 34 33zM24 11l-1.5-4h3L24 11zM24 37l1.5 4h-3L24 37zM37 24l4-1.5v3L37 24zM11 24l-4 1.5v-3L11 24z"/><path fill="#f44336" d="M31,17l-9,5l4,4L31,17z"/><path fill="#fff" d="M17,31l9-5l-4-4L17,31z"/></svg>