<?xml version="1.0" encoding="utf-8"?>
<!-- Generator: Adobe Illustrator 24.0.1, SVG Export Plug-In . SVG Version: 6.00 Build 0)  -->
<svg version="1.1" id="Layer_1" xmlns="http://www.w3.org/2000/svg" xmlns:xlink="http://www.w3.org/1999/xlink" x="0px" y="0px"
	 viewBox="0 0 48 48" style="enable-background:new 0 0 48 48;" xml:space="preserve">
<style type="text/css">
	.st0{fill:#3F51B5;}
	.st1{fill:#9FA8DA;}
	.st2{fill:#7986CB;}
</style>
<path class="st0" d="M6,15h2l6,9l-6-1L6,15z M6,33h2l6-9l-6,1L6,33z"/>
<path class="st1" d="M18,6h4l11,15H23L18,6z M37,27c-2,0-12,0-15,0c-7,0-14-2-14-2v-2c0,0,7-2,14-2c3,0,13.2,0,15,0c2,0,5,0.8,5,3
	S39,27,37,27z M18,42h4l11-15H23L18,42z"/>
<g>
	<path class="st2" d="M18,6h2l5,15h-2L18,6z M18,42h2l5-15h-2L18,42z"/>
</g>
</svg>
