<?xml version="1.0" encoding="utf-8"?>
<!-- Generator: Adobe Illustrator 23.0.3, SVG Export Plug-In . SVG Version: 6.00 Build 0)  -->
<svg version="1.1" id="Layer_1" xmlns="http://www.w3.org/2000/svg" xmlns:xlink="http://www.w3.org/1999/xlink" x="0px" y="0px"
	 viewBox="0 0 40 40" style="enable-background:new 0 0 40 40;" xml:space="preserve">
<style type="text/css">
	.st0{fill:none;stroke:#66798F;stroke-width:2;}
	.st1{fill:#B0C1D4;}
	.st2{fill:#66798F;}
	.st3{fill:none;stroke:#66798F;stroke-width:2;stroke-linecap:round;}
	.st4{fill:#F78F8F;}
	.st5{fill:#C74343;}
	.st6{fill:#FFFFFF;}
	.st7{fill:none;stroke:#C74343;}
</style>
<path class="st0" d="M5.8,5.8l3.8,3.8"/>
<path class="st1" d="M3.8,11.7C1.9,9.5,2,6.2,4.1,4.1c1.1-1.1,2.5-1.6,4-1.6c1.3,0,2.6,0.5,3.6,1.3L3.8,11.7z"/>
<path class="st2" d="M8.1,2.9c1.1,0,2.1,0.3,2.9,0.9L3.9,11C2.5,9,2.7,6.2,4.5,4.4C5.4,3.5,6.7,2.9,8.1,2.9 M8.1,2
	C6.5,2,5,2.6,3.8,3.8c-2.4,2.4-2.4,6.2,0,8.6l8.6-8.6C11.2,2.6,9.7,2,8.1,2L8.1,2z"/>
<path class="st1" d="M17.6,5.3V3.9c0-0.8,0.6-1.4,1.4-1.4h1.9c0.8,0,1.4,0.6,1.4,1.4v1.4H17.6z"/>
<path class="st2" d="M20.9,3c0.5,0,0.9,0.4,0.9,0.9v0.9H18V3.9C18,3.4,18.4,3,18.9,3H20.9 M20.9,2H19c-1,0-1.9,0.8-1.9,1.9v1.9h5.7
	V3.9C22.8,2.9,22,2,20.9,2L20.9,2z"/>
<path class="st0" d="M34.2,5.8l-3.8,3.8"/>
<path class="st3" d="M33,37l-5.5-5.5 M7,37l5.5-5.5"/>
<path class="st4" d="M20,37.5c-9.1,0-16.6-7.4-16.6-16.6S10.9,4.3,20,4.3s16.6,7.4,16.6,16.6S29.1,37.5,20,37.5z"/>
<path class="st5" d="M20,4.8c8.9,0,16.1,7.2,16.1,16.1S28.9,37,20,37S3.9,29.8,3.9,20.9S11.1,4.8,20,4.8 M20,3.9
	C10.6,3.9,2.9,11.5,2.9,21S10.6,38,20,38s17.1-7.6,17.1-17.1S29.4,3.9,20,3.9L20,3.9z"/>
<path class="st6" d="M20,34.7c-7.6,0-13.7-6.2-13.7-13.7S12.4,7.2,20,7.2s13.7,6.2,13.7,13.7S27.6,34.7,20,34.7z"/>
<path class="st5" d="M20,7.7c7.3,0,13.3,5.9,13.3,13.3s-6,13.2-13.3,13.2s-13.3-6-13.3-13.3S12.7,7.7,20,7.7 M20,6.7
	c-7.8,0-14.2,6.4-14.2,14.2S12.2,35.1,20,35.1s14.2-6.4,14.2-14.2S27.8,6.7,20,6.7L20,6.7z"/>
<path class="st1" d="M28.3,3.8c1-0.9,2.3-1.3,3.6-1.3c1.5,0,2.9,0.6,4,1.6c2.1,2.1,2.2,5.4,0.3,7.6L28.3,3.8z"/>
<path class="st2" d="M31.9,2.9c1.4,0,2.7,0.5,3.6,1.5c1.8,1.8,2,4.6,0.6,6.6L29,3.8C29.8,3.2,30.8,2.9,31.9,2.9 M31.9,2
	c-1.6,0-3.1,0.6-4.3,1.8l8.6,8.6c2.4-2.4,2.4-6.2,0-8.6C35,2.6,33.5,2,31.9,2L31.9,2z"/>
<path class="st3" d="M20,21l5.5,5.5"/>
<path class="st3" d="M20,11v10"/>
<path class="st7" d="M20,21l-7.5,7.5"/>
<g>
	<path class="st2" d="M20,19c-1.1,0-2,0.9-2,2s0.9,2,2,2s2-0.9,2-2S21.1,19,20,19z"/>
</g>
</svg>
