<?xml version="1.0" encoding="utf-8"?>
<!-- Generator: Adobe Illustrator 24.0.1, SVG Export Plug-In . SVG Version: 6.00 Build 0)  -->
<svg version="1.1" id="Layer_1" xmlns="http://www.w3.org/2000/svg" xmlns:xlink="http://www.w3.org/1999/xlink" x="0px" y="0px"
	 viewBox="0 0 48 48" style="enable-background:new 0 0 48 48;" xml:space="preserve">
<path style="fill:#37474F;" d="M38.5,44.6l-4-4l2.1-2.1l4,4c0.6,0.6,0.6,1.5,0,2.1l0,0C40.1,45.1,39.1,45.1,38.5,44.6z"/>
<path style="fill:#37474F;" d="M9.5,44.6l4-4l-2.1-2.1l-4,4c-0.6,0.6-0.6,1.5,0,2.1l0,0C7.9,45.1,8.9,45.1,9.5,44.6z"/>
<path style="fill:#C62828;" d="M24,4C13,4,4,13,4,24s9,20,20,20s20-9,20-20S35,4,24,4z"/>
<path style="fill:#EEEEEE;" d="M24,8C15.2,8,8,15.2,8,24s7.2,16,16,16s16-7.2,16-16S32.8,8,24,8z"/>
<path style="fill:#E53935;" d="M15.1,33.5l-0.6-0.6l9.2-9.2l0.6,0.6L15.1,33.5z"/>
<path d="M23,11h2v13h-2V11z"/>
<path d="M31.3,29.7l-1.6,1.6l-6.5-6.5l1.6-1.6L31.3,29.7z"/>
<path d="M24,22c-1.1,0-2,0.9-2,2s0.9,2,2,2s2-0.9,2-2S25.1,22,24,22z"/>
<path style="fill:#C62828;" d="M24,23c-0.6,0-1,0.4-1,1s0.4,1,1,1s1-0.4,1-1S24.6,23,24,23z"/>
<path style="fill:#37474F;" d="M22,1h4v3h-4V1z"/>
<path style="fill:#37474F;" d="M44.4,16.2c2.5-3.5,2.1-8.4-1-11.5s-8-3.5-11.5-1L44.4,16.2z"/>
<path style="fill:#37474F;" d="M3.6,16.2c-2.5-3.5-2.1-8.4,1-11.5s8-3.5,11.5-1L3.6,16.2z"/>
</svg>
