<svg fill="#000000" xmlns="http://www.w3.org/2000/svg" viewBox="0 0 32 32" width="32px" height="32px"><path fill="none" stroke="#000000" stroke-miterlimit="10" stroke-width="2" d="M16 6A10 10 0 1 0 16 26A10 10 0 1 0 16 6Z"/><path fill="none" stroke="#000000" stroke-miterlimit="10" stroke-width="2" d="M16 9L16 16 21 16M9 24L6.813 27.469M23 24L25.156 27.469"/><path d="M21.36 5.279c2.314 1.162 4.198 3.046 5.36 5.36l1.787-.893c-1.356-2.7-3.554-4.898-6.254-6.254L21.36 5.279zM5.279 10.64c1.162-2.314 3.046-4.198 5.36-5.36L9.746 3.492c-2.7 1.356-4.898 3.554-6.254 6.254L5.279 10.64z"/></svg>