<?xml version="1.0" encoding="utf-8"?>
<!-- Generator: Adobe Illustrator 24.0.1, SVG Export Plug-In . SVG Version: 6.00 Build 0)  -->
<svg version="1.1" id="Layer_1" xmlns="http://www.w3.org/2000/svg" xmlns:xlink="http://www.w3.org/1999/xlink" x="0px" y="0px"
	 viewBox="0 0 24 24" style="enable-background:new 0 0 24 24;" xml:space="preserve">
<path d="M16.4,3l1.3-1.5l4.6,3.9L21,6.9L16.4,3z"/>
<path d="M1.7,5.4l4.6-3.9L7.6,3L3,6.9L1.7,5.4z"/>
<path d="M12,4c-5,0-9,4-9,9s4,9,9,9s9-4,9-9S17,4,12,4z M15.6,15.9l-4-2C11.2,13.7,11,13.4,11,13l0-5l2,0l0,4.4l3.5,1.7L15.6,15.9z"
	/>
</svg>
