<?xml version="1.0" encoding="utf-8"?>
<!-- Generator: Adobe Illustrator 23.0.3, SVG Export Plug-In . SVG Version: 6.00 Build 0)  -->
<svg version="1.1" id="Layer_1" xmlns="http://www.w3.org/2000/svg" xmlns:xlink="http://www.w3.org/1999/xlink" x="0px" y="0px"
	 viewBox="0 0 40 40" style="enable-background:new 0 0 40 40;" xml:space="preserve">
<style type="text/css">
	.st0{fill:#FFEEA3;}
	.st1{fill:#C29653;}
	.st2{fill:none;stroke:#C29653;}
	.st3{fill:#FFFFFF;}
	.st4{fill:#36404D;}
	.st5{fill:none;stroke:#C29653;stroke-width:2;stroke-miterlimit:10;}
</style>
<path class="st0" d="M20,39.5c-10.1,0-18.2-7.9-18.5-18c-0.3-10.2,7.8-18.7,18-19c0.2,0,0.3,0,0.5,0c10.1,0,18.2,7.9,18.5,18
	c0.3,10.2-7.8,18.7-18,19C20.3,39.5,20.2,39.5,20,39.5z"/>
<path class="st1" d="M20,2v1l0,0c9.8,0,17.7,7.7,18,17.5c0.3,9.9-7.6,18.2-17.5,18.5c-0.2,0-0.3,0-0.5,0c-9.8,0-17.7-7.7-18-17.5
	C1.7,11.5,9.6,3.3,19.5,3c0.2,0,0.3,0,0.5,0L20,2 M20,2c-0.2,0-0.3,0-0.5,0C9,2.3,0.7,11,1,21.5C1.3,31.8,9.7,40,20,40
	c0.2,0,0.3,0,0.5,0C31,39.7,39.3,31,39,20.5C38.7,10.2,30.3,2,20,2L20,2z"/>
<path class="st2" d="M30.2,27.4c0,0-3.4,4.1-10.2,4.1S9.8,27.4,9.8,27.4"/>
<path class="st3" d="M27,14.5c-1.9,0-3.5,1.6-3.5,3.5s1.6,3.5,3.5,3.5s3.5-1.6,3.5-3.5S28.9,14.5,27,14.5L27,14.5z"/>
<path class="st1" d="M27,15c1.7,0,3,1.3,3,3s-1.3,3-3,3s-3-1.3-3-3S25.3,15,27,15 M27,14c-2.2,0-4,1.8-4,4s1.8,4,4,4s4-1.8,4-4
	S29.2,14,27,14L27,14z"/>
<path class="st4" d="M27,16.8c-0.7,0-1.3,0.6-1.3,1.3s0.6,1.3,1.3,1.3s1.3-0.6,1.3-1.3S27.7,16.8,27,16.8z"/>
<path class="st3" d="M13,14.5c-1.9,0-3.5,1.6-3.5,3.5s1.6,3.5,3.5,3.5s3.5-1.6,3.5-3.5S14.9,14.5,13,14.5L13,14.5z"/>
<path class="st1" d="M13,15c1.7,0,3,1.3,3,3s-1.3,3-3,3s-3-1.3-3-3S11.3,15,13,15 M13,14c-2.2,0-4,1.8-4,4s1.8,4,4,4s4-1.8,4-4
	S15.2,14,13,14L13,14z"/>
<path class="st4" d="M13,16.8c-0.7,0-1.3,0.6-1.3,1.3s0.6,1.3,1.3,1.3s1.3-0.6,1.3-1.3S13.7,16.8,13,16.8z"/>
<ellipse class="st5" cx="20" cy="4.5" rx="17" ry="2.5"/>
</svg>
