<?xml version="1.0" encoding="utf-8"?>
<!-- Generator: Adobe Illustrator 24.0.1, SVG Export Plug-In . SVG Version: 6.00 Build 0)  -->
<svg version="1.1" id="Layer_1" xmlns="http://www.w3.org/2000/svg" xmlns:xlink="http://www.w3.org/1999/xlink" x="0px" y="0px"
	 viewBox="0 0 48 48" style="enable-background:new 0 0 48 48;" xml:space="preserve">
<polygon style="fill:#FF9800;" points="40,15 42,13 40,11 40,8 37,8 35,6 33,8 30,8 30,11 28,13 30,15 30,18 33,18 35,20 37,18 
	40,18 "/>
<path style="fill:#FFEB3B;" d="M32,13c0,1.7,1.3,3,3,3s3-1.3,3-3s-1.3-3-3-3S32,11.3,32,13"/>
<g>
	<path style="fill:#BBDEFB;" d="M12.5,6C10,6,8,8,8,10.5s2,4.5,4.5,4.5s4.5-2,4.5-4.5S15,6,12.5,6z"/>
	<path style="fill:#BBDEFB;" d="M9.5,11C7.6,11,6,12.6,6,14.5S7.6,18,9.5,18s3.5-1.6,3.5-3.5S11.4,11,9.5,11z M20,12
		c-1.7,0-3,1.3-3,3s1.3,3,3,3s3-1.3,3-3S21.7,12,20,12z"/>
	<path style="fill:#BBDEFB;" d="M17,9c-1.7,0-3,1.3-3,3s1.3,3,3,3s3-1.3,3-3S18.7,9,17,9z"/>
	<path style="fill:#BBDEFB;" d="M9,13h11v5H9V13z"/>
</g>
<path style="fill:#2196F3;" d="M20.8,41L20.8,41c-1-0.5-1.3-1.8-0.8-2.7l3.4-6.1L31,22l-4,12l-3.5,6.3C22.9,41.2,21.7,41.6,20.8,41z
	"/>
<path style="fill:#0D47A1;" d="M23,32c-2.8,0-5,2.2-5,5s2.2,5,5,5s5-2.2,5-5S25.8,32,23,32z"/>
</svg>
