<?xml version="1.0" encoding="utf-8"?>
<!-- Generator: Adobe Illustrator 23.0.3, SVG Export Plug-In . SVG Version: 6.00 Build 0)  -->
<svg version="1.1" id="Layer_1" xmlns="http://www.w3.org/2000/svg" xmlns:xlink="http://www.w3.org/1999/xlink" x="0px" y="0px"
	 viewBox="0 0 40 40" style="enable-background:new 0 0 40 40;" xml:space="preserve">
<style type="text/css">
	.st0{fill:#F76D6D;}
	.st1{fill:#C74343;}
	.st2{fill:#F7A3A3;}
</style>
<path class="st0" d="M16,31.4C13.8,29.6,0.5,18.7,0.5,12.8c0-4.5,3.8-8.3,8.5-8.3c2.6,0,5.1,1.3,6.6,3.4L16,8.5l0.4-0.6
	c1.5-2.2,3.9-3.4,6.6-3.4c4.7,0,8.5,3.7,8.5,8.3C31.5,18.7,18.2,29.6,16,31.4z"/>
<path class="st1" d="M23,5c4.4,0,8,3.5,8,7.8c0,5-10.3,14.2-15,18c-4.7-3.8-15-13-15-18C1,8.5,4.6,5,9,5c2.4,0,4.8,1.2,6.2,3.2
	L16,9.3l0.8-1.1C18.3,6.2,20.5,5,23,5 M23,4c-2.9,0-5.4,1.4-7,3.6C14.4,5.4,11.8,4,9,4c-5,0-9,3.9-9,8.8C0,19.6,16,32,16,32
	s16-12.4,16-19.3C32,7.9,28,4,23,4L23,4z"/>
<g>
	<path class="st2" d="M23.4,35.4c-1.5-2-9.9-13-8.8-17.7c0.7-3,3.5-5.1,6.7-5.1c0.5,0,1.1,0.1,1.6,0.2c2.1,0.5,3.7,1.9,4.6,3.9
		l0.3,0.6l0.5-0.4c1.3-1.1,2.9-1.6,4.5-1.6c0.5,0,1,0.1,1.5,0.2c3.7,0.9,6,4.5,5.1,8C38.2,28.1,25.6,34.3,23.4,35.4z"/>
	<path class="st1" d="M21.3,13c0.5,0,1,0.1,1.4,0.2c1.9,0.5,3.4,1.8,4.2,3.6l0.5,1.2l1-0.8c1.2-1,2.7-1.5,4.2-1.5
		c0.5,0,0.9,0,1.4,0.1c3.4,0.8,5.5,4.2,4.8,7.5c-0.9,3.9-10.8,9.4-15.3,11.5c-3.1-4-9.3-13.1-8.4-17C15.7,15,18.3,13,21.3,13
		L21.3,13 M21.3,12c-3.4,0-6.4,2.2-7.2,5.5C12.8,23,23.2,36,23.2,36s15.3-7,16.6-12.5c0.9-3.8-1.5-7.7-5.5-8.7
		c-0.5-0.1-1.1-0.2-1.6-0.2c-1.7,0-3.4,0.6-4.8,1.7c-0.9-2-2.6-3.6-4.9-4.2C22.4,12.1,21.9,12,21.3,12L21.3,12z"/>
</g>
</svg>
