<?xml version="1.0" encoding="utf-8"?>
<!-- Generator: Adobe Illustrator 23.0.3, SVG Export Plug-In . SVG Version: 6.00 Build 0)  -->
<svg version="1.1" id="Layer_1" xmlns="http://www.w3.org/2000/svg" xmlns:xlink="http://www.w3.org/1999/xlink" x="0px" y="0px"
	 viewBox="0 0 40 40" style="enable-background:new 0 0 40 40;" xml:space="preserve">
<style type="text/css">
	.st0{fill:#E8D47B;}
	.st1{fill:#BA9B48;}
	.st2{fill:#FFEEA3;}
</style>
<path class="st0" d="M20,31.5c-1.9,0-3.5,1.6-3.5,3.5s1.6,3.5,3.5,3.5s3.5-1.6,3.5-3.5S21.9,31.5,20,31.5z"/>
<path class="st1" d="M20,32c1.7,0,3,1.3,3,3s-1.3,3-3,3s-3-1.3-3-3S18.3,32,20,32 M20,31c-2.2,0-4,1.8-4,4s1.8,4,4,4s4-1.8,4-4
	S22.2,31,20,31L20,31z"/>
<g>
	<path class="st2" d="M5.5,34.5v-3c2.2-0.3,4-2.2,4-4.5V15c0-4.7,3.1-8.8,7.6-10.1l0.4-0.1V4c0-1.4,1.1-2.5,2.5-2.5s2.5,1.1,2.5,2.5
		v0.8l0.4,0.1c4.5,1.3,7.6,5.4,7.6,10.1v12c0,2.3,1.8,4.2,4,4.5v3H5.5z"/>
	<path class="st1" d="M20,2c1.1,0,2,0.9,2,2v0.4v0.8l0.7,0.2C27,6.6,30,10.6,30,15v12c0,2.4,1.7,4.4,4,4.9V34H6v-2.1
		c2.3-0.5,4-2.5,4-4.9V15c0-4.4,3-8.4,7.3-9.6L18,5.2V4.4V4C18,2.9,18.9,2,20,2 M20,1c-1.7,0-3,1.3-3,3c0,0.1,0,0.3,0,0.4
		C12.4,5.7,9,10,9,15v12c0,2.2-1.8,4-4,4v4h30v-4c-2.2,0-4-1.8-4-4V15c0-5-3.4-9.3-8-10.6c0-0.2,0-0.3,0-0.4C23,2.3,21.7,1,20,1
		L20,1z"/>
</g>
</svg>
