<?xml version="1.0" encoding="utf-8"?>
<!-- Generator: Adobe Illustrator 24.0.3, SVG Export Plug-In . SVG Version: 6.00 Build 0)  -->
<svg version="1.1" id="Layer_1" xmlns="http://www.w3.org/2000/svg" xmlns:xlink="http://www.w3.org/1999/xlink" x="0px" y="0px"
	 viewBox="0 0 32 32" style="enable-background:new 0 0 32 32;" xml:space="preserve">
<style type="text/css">
	.st0{fill:none;stroke:#000000;stroke-width:2;stroke-miterlimit:10;}
</style>
<path class="st0" d="M25,24L25,24c-1.1,0-2-0.9-2-2v-8.7c0-3.8-3-7.2-6.8-7.3C12.3,5.9,9,9.1,9,13v9c0,1.1-0.9,2-2,2l0,0 M16,24
	c-1.1,0-2,0.9-2,2s0.9,2,2,2s2-0.9,2-2S17.1,24,16,24z M6,24h20"/>
<path d="M16,3c-1.1,0-2,0.9-2,2s0.9,2,2,2s2-0.9,2-2S17.1,3,16,3z"/>
</svg>
