<?xml version="1.0" encoding="iso-8859-1"?>
<!-- Generator: Adobe Illustrator 24.0.2, SVG Export Plug-In . SVG Version: 6.00 Build 0)  -->
<svg version="1.1" id="Layer_1" xmlns="http://www.w3.org/2000/svg" xmlns:xlink="http://www.w3.org/1999/xlink" x="0px" y="0px"
	 viewBox="0 0 30 30" style="enable-background:new 0 0 30 30;" xml:space="preserve">
<path d="M4,14c-1.657,0-3,1.343-3,3s1.343,3,3,3s3-1.343,3-3S5.657,14,4,14z"/>
<path style="fill:none;stroke:#000000;stroke-width:2;stroke-linecap:round;stroke-linejoin:round;stroke-miterlimit:10;" d="M3,23
	h19"/>
<path d="M24,20H11c-1.105,0-2-0.895-2-2v-3l2.357-6.083L12,15h2c2.531,0,3.183,0.612,4.827,1c1.731,0.409,5.353,0.818,6.68,1.067
	l-0.497,9.059L24,20z"/>
<path style="fill:none;stroke:#000000;stroke-width:2;stroke-linecap:round;stroke-linejoin:round;stroke-miterlimit:10;" d="M26,26
	v-7c0-0.552-0.448-1-1-1h-4H10v-7"/>
<path d="M10,2C7.25,2,5,4.25,5,7s2.25,5,5,5s5-2.25,5-5S12.75,2,10,2z M10,8C9.448,8,9,7.552,9,7s0.448-1,1-1s1,0.448,1,1
	S10.552,8,10,8z"/>
</svg>
