<?xml version="1.0" encoding="utf-8"?>
<!-- Generator: Adobe Illustrator 24.0.1, SVG Export Plug-In . SVG Version: 6.00 Build 0)  -->
<svg version="1.1" id="Layer_1" xmlns="http://www.w3.org/2000/svg" xmlns:xlink="http://www.w3.org/1999/xlink" x="0px" y="0px"
	 viewBox="0 0 48 48" style="enable-background:new 0 0 48 48;" xml:space="preserve">
<path style="fill:#FFB74D;" d="M28,25H16c-2.2,0-4,1.8-4,4c0,2.2,1.8,4,4,4h25v9.5c0,1.4,1.1,2.5,2.5,2.5s2.5-1.1,2.5-2.5v-12
	c0-1.5-1.1-2.7-2.5-3L28,25z M6.5,24C9,24,11,26,11,28.5S9,33,6.5,33C4,33,2,31,2,28.5S4,24,6.5,24"/>
<path style="fill:#90A4AE;" d="M36,33H4c-1.1,0-2,0.9-2,2v2h36v-2C38,33.9,37.1,33,36,33"/>
<path style="fill:#607D8B;" d="M4,37h4v7H4V37z M32,37h4v7h-4V37z"/>
<path style="fill:#607D8B;" d="M31,43h6v2h-6V43z M3,43h6v2H3V43z"/>
<path style="fill:#9575CD;" d="M28,25h-1v8h11v-6.3L28,25z"/>
<path style="fill:#FF754C;" d="M28,25H16c-2.2,0-4,1.8-4,4c0,2.2,1.8,4,4,4h12V25z"/>
<path style="fill:#FFB74D;" d="M16.9,28L16,19c0-1.1-0.9-2-2-2s-2,0.9-2,2v10l0,0c0.2,1.1,1.2,2,2.5,2c1.4,0,2.5-1.1,2.5-2.5
	C17,28.3,17,28.2,16.9,28z"/>
<path style="fill:#F9A825;" d="M16.4,22.7L16,19h-4v3.8c0.6,0.1,1.3,0.2,2,0.2C14.8,23,15.6,22.9,16.4,22.7z"/>
<path style="fill:#FF754C;" d="M14,3c5,0,9,4,9,9s-4,9-9,9c-5,0-9-4-9-9S9,3,14,3"/>
<path style="fill:#C93D18;" d="M14,5c3.9,0,7,3.1,7,7s-3.1,7-7,7s-7-3.1-7-7S10.1,5,14,5"/>
<path style="fill:#B0BEC5;" d="M14,10c1.1,0,2,0.9,2,2c0,1.1-0.9,2-2,2s-2-0.9-2-2C12,10.9,12.9,10,14,10"/>
<path style="fill:#455A64;" d="M14,11c0.6,0,1,0.4,1,1s-0.4,1-1,1s-1-0.4-1-1S13.4,11,14,11"/>
</svg>
