<?xml version="1.0" encoding="utf-8"?>
<!-- Generator: Adobe Illustrator 24.0.1, SVG Export Plug-In . SVG Version: 6.00 Build 0)  -->
<svg version="1.1" id="Layer_1" xmlns="http://www.w3.org/2000/svg" xmlns:xlink="http://www.w3.org/1999/xlink" x="0px" y="0px"
	 viewBox="0 0 48 48" style="enable-background:new 0 0 48 48;" xml:space="preserve">
<path style="fill:#9FA8DA;" d="M33,24c0,3.3-2.7,6-6,6h-6c-3.3,0-6-2.7-6-6V10c0-3.3,2.7-6,6-6h6c3.3,0,6,2.7,6,6V24z"/>
<path style="fill:#3F51B5;" d="M22,34h4v10h-4V34z"/>
<path style="fill:#303F9F;" d="M35,43c0,0-6-2-11-2s-11,2-11,2v2h22V43z"/>
<path style="fill:#5C6BC0;" d="M15,10h8v2h-8V10z M25,10h8v2h-8V10z M25,14h8v2h-8V14z M15,14h8v2h-8V14z M25,18h8v2h-8V18z M15,18
	h8v2h-8V18z M15,22h8v2h-8V22z M25,22h8v2h-8V22z"/>
<path style="fill:#3F51B5;" d="M26,35h-4c-3.1,0-9-1.7-9-8v-9h2v9c0,5.9,6.7,6,7,6h4c0.3,0,7-0.1,7-6v-9h2v9C35,33.3,29.1,35,26,35z
	"/>
</svg>
