<?xml version="1.0" encoding="utf-8"?>
<!-- Generator: Adobe Illustrator 24.0.1, SVG Export Plug-In . SVG Version: 6.00 Build 0)  -->
<svg version="1.1" id="Layer_1" xmlns="http://www.w3.org/2000/svg" xmlns:xlink="http://www.w3.org/1999/xlink" x="0px" y="0px"
	 viewBox="0 0 24 24" style="enable-background:new 0 0 24 24;" xml:space="preserve">
<path d="M11,17h2v4h-2V17z M12,2c-1.7,0-3,1.3-3,3c0,0.8,0,5.2,0,6c0,1.7,1.3,3,3,3s3-1.3,3-3c0-0.8,0-5.2,0-6C15,3.3,13.7,2,12,2z"
	/>
<polygon points="23.1,16.4 21.7,15 19.5,17.2 17.4,15 16,16.4 18.2,18.5 16,20.7 17.4,22.1 19.5,20 21.7,22.1 23.1,20.7 21,18.5 "/>
<g>
	<polygon points="23.1,16.4 21.7,15 19.5,17.2 17.4,15 16,16.4 18.2,18.5 16,20.7 17.4,22.1 19.5,20 21.7,22.1 23.1,20.7 21,18.5 	
		"/>
</g>
<g>
	<path d="M17,11c0,0.7-0.1,1.4-0.4,2l0.8-0.8l1.2,1.2c0.3-0.7,0.4-1.5,0.4-2.4H17z"/>
	<path d="M14,15.6c-0.6,0.2-1.3,0.4-2,0.4c-2.8,0-5-2.2-5-5H5c0,3.9,3.1,7,7,7c0.8,0,1.6-0.1,2.4-0.4l-1.2-1.2L14,15.6z"/>
</g>
</svg>
