<?xml version="1.0" encoding="utf-8"?>
<!-- Generator: Adobe Illustrator 24.0.1, SVG Export Plug-In . SVG Version: 6.00 Build 0)  -->
<svg version="1.1" id="Layer_1" xmlns="http://www.w3.org/2000/svg" xmlns:xlink="http://www.w3.org/1999/xlink" x="0px" y="0px"
	 viewBox="0 0 48 48" style="enable-background:new 0 0 48 48;" xml:space="preserve">
<path style="fill:#D32F2F;" d="M3,10h42v29H3V10z"/>
<path style="fill:#D32F2F;" d="M24,31c-2.8,0-5,2.2-5,5s2.2,5,5,5s5-2.2,5-5S26.8,31,24,31z"/>
<path style="fill:#4C0808;" d="M24,33c-1.7,0-3,1.3-3,3s1.3,3,3,3s3-1.3,3-3S25.7,33,24,33z"/>
<path style="fill:#D7CCC8;" d="M40,7l-15,3h-2L8,7l-2,5v24h36V12L40,7z"/>
<path style="fill:#BCAAA4;" d="M8,33h15v3h2v-3l15,0l2,3H6L8,33z"/>
<path style="fill:#EFEBE9;" d="M40,7c0,0-15,0-15,3s0,26,0,26c0-3,15-3,15-3V7z"/>
<path style="fill:#EFEBE9;" d="M8,7c0,0,15,0,15,3s0,26,0,26c0-3-15-3-15-3V7z"/>
<path style="fill:#BCAAA4;" d="M23,10h2v26h-2V10z"/>
</svg>
