<?xml version="1.0" encoding="utf-8"?>
<!-- Generator: Adobe Illustrator 24.0.1, SVG Export Plug-In . SVG Version: 6.00 Build 0)  -->
<svg version="1.1" id="Layer_1" xmlns="http://www.w3.org/2000/svg" xmlns:xlink="http://www.w3.org/1999/xlink" x="0px" y="0px"
	 viewBox="0 0 48 48" style="enable-background:new 0 0 48 48;" xml:space="preserve">
<path style="fill:#FFCA28;" d="M24,4C13,4,4,13,4,24s9,20,20,20s20-9,20-20S35,4,24,4z"/>
<path style="fill:#6D4C41;" d="M17,18c-2.2,0-4,2-4,4.5s1.8,4.5,4,4.5s4-2,4-4.5S19.2,18,17,18z"/>
<path style="fill:#FFFFFF;" d="M15.5,20c-0.8,0-1.5,0.7-1.5,1.5s0.7,1.5,1.5,1.5c0.8,0,1.5-0.7,1.5-1.5S16.3,20,15.5,20z"/>
<path style="fill:#6D4C41;" d="M35,23.2V24c0,1.1-0.9,2-2,2h-4c-1.1,0-2-0.9-2-2v-1c0-2.2,1.8-4,4-4c0.1,0,0.3,0,0.4,0
	C33.5,19.2,35,21.1,35,23.2z"/>
<path style="fill:#FFFFFF;" d="M29.5,20c-0.8,0-1.5,0.7-1.5,1.5s0.7,1.5,1.5,1.5s1.5-0.7,1.5-1.5S30.3,20,29.5,20z"/>
<path style="fill:none;stroke:#B76C09;stroke-width:2;stroke-miterlimit:10;" d="M18,35c4.8,0,6.1-2,9-2c1.1,0,2.3,0.4,3.1,1.2"/>
</svg>
