<?xml version="1.0" encoding="utf-8"?>
<!-- Generator: Adobe Illustrator 24.0.1, SVG Export Plug-In . SVG Version: 6.00 Build 0)  -->
<svg version="1.1" id="Layer_1" xmlns="http://www.w3.org/2000/svg" xmlns:xlink="http://www.w3.org/1999/xlink" x="0px" y="0px"
	 viewBox="0 0 48 48" style="enable-background:new 0 0 48 48;" xml:space="preserve">
<style type="text/css">
	.st0{fill:#F8BBD0;}
	.st1{fill:#FF80AB;}
</style>
<path class="st0" d="M5,30c0,14,15,14,15,14c1.7,0,3-1.3,3-3V7c0-1.7-1-3-3-3C16,4,5,12,5,30z M43,30c0,14-15,14-15,14
	c-1.7,0-3-1.3-3-3V7c0-1.7,1-3,3-3C32,4,43,12,43,30z"/>
<path class="st1" d="M17.1,41.8c-2.5,0-4-0.7-5.8-2c-2.1-1.5-5.5-4.5-4-7C7.7,32.3,8.1,32,8.7,32c1.2-0.1,2.2,1,2.9,1.8
	c0.2,0.2,0.3,0.3,0.4,0.4c0.2,0.2,0.4,0.3,0.5,0.3c0,0,0-0.1,0.1-0.2c0,0-0.2-0.4-0.3-0.6C12,33,11.5,32,12.1,31.1
	c0.3-0.5,0.9-0.8,1.5-0.9s1.2,0.1,1.7,0.5c0.6,0.6,1,1.3,1.3,1.9c0.3,0.6,0.5,1.1,0.9,1.4c0.3,0.2,0.9,0.3,1.4,0.2
	c0.1,0,0.5-0.1,0.6-0.4c0.3-0.6,0.2-2-0.3-3c-0.2-0.4-0.6-1-1.2-1.1c-0.9-0.2-1.8-0.2-2.8-0.1c-0.4,0-0.8,0-1.2,0s-0.8,0.1-1.3,0.1
	C11.4,29.8,9.9,30,8.6,29c-1.9-1.4-1.8-3.4-1.8-5c0-1.5,0.5-2.8,1.5-3.5c0.8-0.7,1.8-0.9,3-0.7c1.8,0.3,2.6,1.8,3.2,3
	c0.3,0.6,0.6,1.2,1,1.5c0.3,0.3,0.7,0.5,1.2,0.4c1-0.1,2.1-0.5,2.3-1c0-0.1,0.1-0.2-0.1-0.7c-0.1-0.2-0.6-0.4-1-0.5
	c-0.9-0.3-2.4-0.8-2.3-2.6c0-0.8,0.4-1.3,0.7-1.5c0.8-0.6,2-0.3,2.8,0c0.2,0.1,0.3,0.1,0.5,0.1s0.3,0,0.4,0c0.1-0.1,0.1-0.3,0-0.7
	c-0.2-0.4-0.7-0.7-1-0.8c-1.2-0.4-2.7-0.2-3.6,0.6c-0.1,0.1-0.2,0.2-0.3,0.3c-0.6,0.6-1.4,1.4-2.4,1.2c-0.4-0.1-1-0.3-1.5-1
	c-0.6-0.9-1-2.4-0.9-3.5c0.1-2.1,1.8-4.3,3.8-4.9c1.7-0.5,2.9,0.6,3.7,1.3c0.6,0.6,1.1,1,1.7,1.1c0.2,0,0.4,0,0.5,0
	c-0.1-0.2-0.4-0.6-1.4-1.3c-0.1-0.1-0.2-0.2-0.4-0.2c-0.6-0.4-2-1.2-1.2-2.9c0.6-1.3,1.7-1.3,2.4-1.3c0.5,0,1,0.4,1,1s-0.4,1-1,1
	s-0.6,0-0.7,0.2v0.1C18.8,8.8,19,8.9,19.2,9s0.3,0.2,0.5,0.3c0.8,0.5,2.2,1.5,2.3,2.8c0.1,0.6-0.1,1.1-0.5,1.5
	c-0.6,0.7-1.6,0.7-2,0.7c-1.3,0-2.3-0.9-3-1.6c-0.8-0.8-1.2-1.1-1.8-0.9c-1.2,0.3-2.3,1.8-2.4,3.1c0,0.7,0.2,1.8,0.6,2.3l0.1,0.1
	c0.2-0.1,0.6-0.5,0.8-0.7c0.1-0.1,0.3-0.2,0.4-0.4c1.4-1.2,3.7-1.6,5.5-0.9c1.1,0.4,1.9,1.1,2.3,2c0.4,1,0.3,2-0.3,2.7
	c-0.3,0.4-1,0.9-2.2,0.7c-0.2,0-0.4-0.1-0.7-0.2c-0.2-0.1-0.7-0.2-1-0.2c0,0.2,0.2,0.3,1,0.6c0.7,0.3,1.6,0.6,2,1.4
	c0.7,1.1,0.5,2,0.2,2.6c-0.7,1.3-2.5,1.9-3.9,2c-1.1,0.1-2-0.2-2.7-1c-0.6-0.6-1-1.3-1.4-2.1c-0.6-1.2-1-1.9-1.7-2
	c-0.6-0.1-1,0-1.4,0.3c-0.5,0.4-0.7,1.1-0.8,2c0,1.6,0,2.6,1.1,3.4c0.7,0.5,1.6,0.4,2.6,0.3c0.5-0.1,1-0.1,1.6-0.1
	c0.4,0,0.8,0,1.2,0c1.1,0,2.2-0.1,3.3,0.2c1.1,0.3,1.9,1,2.5,2.2c0.7,1.5,0.9,3.4,0.3,4.7c-0.3,0.7-1,1.3-1.9,1.5
	c-1.1,0.3-2.4,0.1-3.2-0.5c-0.7-0.6-1.1-1.4-1.5-2.1c-0.3-0.5-0.5-1-0.8-1.3h-0.1c0.1,0.2,0.2,0.5,0.3,0.7c0.3,0.6,0.6,1.3,0.4,2
	c-0.3,1.1-1,1.5-1.5,1.6c-0.8,0.2-1.6,0-2.3-0.7c-0.1-0.1-0.3-0.3-0.6-0.6C9.9,34.9,9.3,34.3,9,34c-0.1,0.7,1,2.3,3.5,4.1
	c1.6,1.2,2.7,1.7,4.9,1.6c0.3,0,0.7-0.2,0.9-0.4c0.1-0.1,0.1-0.2,0.1-0.3s0-0.1-0.1-0.2c-0.4-0.3-1.4-0.4-2-0.3
	c-0.5,0.1-1.1-0.3-1.2-0.8c-0.1-0.5,0.3-1.1,0.8-1.2c1-0.2,2.6-0.1,3.6,0.6c0.5,0.4,0.8,0.9,0.9,1.5c0.1,0.7-0.1,1.3-0.5,1.8
	c-0.5,0.6-1.5,1.1-2.4,1.1C17.4,41.8,17.3,41.8,17.1,41.8z M30.5,41.8c-0.1,0-0.3,0-0.4,0c-0.9,0-1.8-0.4-2.4-1.1
	c-0.4-0.5-0.6-1.2-0.5-1.8s0.4-1.2,0.9-1.5c1-0.7,2.5-0.8,3.6-0.6c0.5,0.1,0.9,0.6,0.8,1.2c-0.1,0.5-0.6,0.9-1.2,0.8
	c-0.7-0.1-1.6-0.1-2,0.3c-0.1,0.1-0.1,0.1-0.1,0.2c0,0.1,0,0.2,0.1,0.3c0.2,0.2,0.6,0.4,0.9,0.4c2.2,0.1,3.3-0.5,4.9-1.6
	c2.3-1.6,3.7-3.4,3.5-4.1c-0.3,0.2-0.9,0.8-1.1,1.1c-0.2,0.3-0.4,0.5-0.6,0.6c-0.7,0.6-1.6,0.9-2.3,0.7c-0.4-0.1-1.1-0.5-1.5-1.6
	c-0.2-0.7,0.1-1.4,0.4-2c0.1-0.2,0.2-0.5,0.3-0.6h-0.1c-0.3,0.3-0.6,0.8-0.8,1.3c-0.3,0.7-0.7,1.5-1.5,2.1s-2,0.8-3.2,0.6
	c-0.9-0.2-1.6-0.8-1.9-1.5c-0.5-1.3-0.4-3.2,0.3-4.7c0.6-1.2,1.4-1.9,2.5-2.2c1.1-0.3,2.3-0.2,3.3-0.2c0.4,0,0.8,0,1.2,0l0,0
	c0.5,0,1,0.1,1.5,0.1c1.1,0.1,2,0.2,2.6-0.3c1-0.8,1.1-1.8,1.1-3.4c0-0.9-0.3-1.6-0.7-2c-0.3-0.3-0.8-0.4-1.4-0.3
	c-0.7,0.1-1.1,0.8-1.7,2c-0.4,0.7-0.8,1.5-1.4,2.1c-0.8,0.7-1.7,1.1-2.7,1c-1.4-0.1-3.2-0.7-3.9-2c-0.3-0.6-0.5-1.4,0.2-2.6
	c0.5-0.8,1.3-1.1,2-1.4c0.8-0.3,1-0.4,1-0.6c-0.3,0-0.8,0.2-1,0.2c-0.3,0.1-0.5,0.2-0.7,0.2c-1.2,0.2-1.9-0.4-2.2-0.7
	c-0.6-0.7-0.7-1.7-0.3-2.7c0.3-0.9,1.1-1.6,2.3-2c1.9-0.7,4.2-0.3,5.5,0.9c0.1,0.1,0.2,0.2,0.4,0.4c0.2,0.2,0.6,0.6,0.8,0.7
	c0,0,0-0.1,0.1-0.1c0.3-0.5,0.6-1.7,0.6-2.3c-0.1-1.3-1.2-2.8-2.4-3.1c-0.6-0.2-1,0.1-1.8,0.9c-0.8,0.7-1.7,1.5-3,1.6
	c-0.5,0-1.4-0.1-2-0.7c-0.4-0.4-0.5-0.9-0.5-1.5c0.1-1.3,1.5-2.3,2.3-2.8c0.1-0.1,0.3-0.2,0.5-0.3s0.4-0.2,0.5-0.3c0,0,0,0,0-0.1
	C29,8.3,29,8.3,28.4,8.2c-0.6,0-1-0.5-1-1c0-0.6,0.5-1,1-1c0.7,0,1.8,0.1,2.4,1.3c0.8,1.7-0.6,2.6-1.2,2.9c-0.1,0.1-0.2,0.1-0.4,0.2
	c-1.1,0.7-1.3,1.1-1.4,1.3c0.1,0,0.2,0.1,0.5,0.1c0.6,0,1.1-0.5,1.7-1.1c0.9-0.8,2-1.8,3.7-1.3c2,0.6,3.7,2.8,3.8,4.9
	c0.1,1.1-0.3,2.6-0.9,3.5c-0.5,0.8-1.1,1-1.5,1c-1,0.1-1.8-0.6-2.4-1.2c-0.1-0.1-0.2-0.2-0.3-0.3c-0.8-0.7-2.4-1-3.6-0.6
	c-0.3,0.1-0.9,0.4-1,0.8s-0.1,0.7,0,0.7c0,0,0.2,0.1,0.4,0c0.1,0,0.3-0.1,0.5-0.1c0.8-0.2,2-0.6,2.8,0c0.3,0.2,0.7,0.7,0.7,1.5
	c0,1.8-1.4,2.3-2.3,2.6c-0.4,0.1-0.9,0.3-1,0.5c-0.3,0.4-0.2,0.6-0.1,0.7c0.2,0.4,1.3,0.9,2.3,1c0.5,0,0.8-0.1,1.2-0.4
	c0.4-0.3,0.7-0.9,1-1.5c0.6-1.2,1.4-2.8,3.2-3c1.2-0.2,2.2,0.1,3,0.7c0.9,0.8,1.5,2.1,1.5,3.5c0,1.6,0,3.5-1.8,5
	c-1.3,1-2.8,0.8-4.1,0.7c-0.5-0.1-0.9-0.1-1.3-0.1c-0.4,0-0.8,0-1.2,0c-1,0-1.9-0.1-2.8,0.1c-0.6,0.1-1,0.7-1.2,1.1
	c-0.5,1-0.5,2.4-0.3,3c0.1,0.2,0.4,0.3,0.6,0.4c0.6,0.1,1.2,0,1.4-0.2c0.4-0.3,0.6-0.8,0.9-1.4c0.3-0.6,0.7-1.4,1.3-1.9
	c0.5-0.4,1.1-0.6,1.7-0.5c0.6,0.1,1.1,0.4,1.5,0.9c0.6,0.9,0.1,1.8-0.2,2.6c-0.1,0.2-0.3,0.6-0.3,0.7c0,0.1,0.1,0.1,0.1,0.1
	s0.2-0.1,0.5-0.3c0.1-0.1,0.2-0.2,0.4-0.4c0.7-0.8,1.7-1.9,2.9-1.8c0.5,0.1,1,0.4,1.3,0.9c1.5,2.5-1.9,5.4-4,7
	C34.5,41.1,33,41.8,30.5,41.8z M29.1,8.6L29.1,8.6L29.1,8.6z"/>
</svg>
