<?xml version="1.0" encoding="utf-8"?>
<!-- Generator: Adobe Illustrator 23.0.3, SVG Export Plug-In . SVG Version: 6.00 Build 0)  -->
<svg version="1.1" id="Layer_1" xmlns="http://www.w3.org/2000/svg" xmlns:xlink="http://www.w3.org/1999/xlink" x="0px" y="0px"
	 viewBox="0 0 24 24" style="enable-background:new 0 0 24 24;" xml:space="preserve">
<g>
	<path style="fill:#FFFC6A;" d="M7,11h9v2H7V11z"/>
	<path style="fill:#FFFC6A;" d="M6,17c0.7,0,3.3,0,4,0v-2c-0.8,0-3.2,0-4,0c-1.7,0-3-1.3-3-3s1.3-3,3-3c0.8,0,3.2,0,4,0V7
		C9.3,7,6.7,7,6,7c-2.8,0-5,2.2-5,5S3.2,17,6,17z"/>
</g>
<path d="M7,11h10v2H7V11z"/>
<path d="M18,7c-0.7,0-3.3,0-4,0v2c0.8,0,3.2,0,4,0c1.7,0,3,1.3,3,3s-1.3,3-3,3c-0.8,0-3.2,0-4,0v2c0.7,0,3.3,0,4,0c2.8,0,5-2.2,5-5
	S20.8,7,18,7z"/>
<path d="M6,17c0.7,0,3.3,0,4,0v-2c-0.8,0-3.2,0-4,0c-1.7,0-3-1.3-3-3s1.3-3,3-3c0.8,0,3.2,0,4,0V7C9.3,7,6.7,7,6,7c-2.8,0-5,2.2-5,5
	S3.2,17,6,17z"/>
</svg>
