<?xml version="1.0" encoding="utf-8"?>
<!-- Generator: Adobe Illustrator 23.0.3, SVG Export Plug-In . SVG Version: 6.00 Build 0)  -->
<svg version="1.1" id="Layer_1" xmlns="http://www.w3.org/2000/svg" xmlns:xlink="http://www.w3.org/1999/xlink" x="0px" y="0px"
	 viewBox="0 0 40 40" style="enable-background:new 0 0 40 40;" xml:space="preserve">
<style type="text/css">
	.st0{fill:#DCD5F2;}
	.st1{fill:#8B75A1;}
	.st2{fill:#FFF9DE;}
	.st3{fill:#C2E8FF;}
	.st4{fill:#7496C4;}
	.st5{fill:none;stroke:#FFFFFF;}
</style>
<path class="st0" d="M3,34.5c-0.8,0-1.5-0.7-1.5-1.5V11c0-0.8,0.7-1.5,1.5-1.5h7.8l2.5-4h13.4l2.5,4H37c0.8,0,1.5,0.7,1.5,1.5v22
	c0,0.8-0.7,1.5-1.5,1.5H3z"/>
<path class="st1" d="M26.4,6l2.2,3.5l0.3,0.5h0.6H37c0.3,0,0.5,0.1,0.7,0.3c0.2,0.2,0.3,0.4,0.3,0.7v22c0,0.6-0.4,1-1,1H3
	c-0.3,0-0.5-0.1-0.7-0.3C2.1,33.5,2,33.3,2,33V11c0-0.6,0.4-1,1-1h7.5h0.6l0.3-0.5L13.6,6H26.4 M27,5H13l-2.5,4H3c-1.1,0-2,0.9-2,2
	v22c0,1.1,0.9,2,2,2h34c1.1,0,2-0.9,2-2V11c0-1.1-0.9-2-2-2h-7.5L27,5L27,5z"/>
<path class="st2" d="M30,13h5v3h-5V13z"/>
<path class="st3" d="M20,29.5c-4.7,0-8.5-3.8-8.5-8.5s3.8-8.5,8.5-8.5s8.5,3.8,8.5,8.5S24.7,29.5,20,29.5z"/>
<path class="st4" d="M20,13c4.4,0,8,3.6,8,8s-3.6,8-8,8s-8-3.6-8-8S15.6,13,20,13 M20,12c-5,0-9,4-9,9c0,5,4,9,9,9s9-4,9-9
	S25,12,20,12L20,12z"/>
<path class="st5" d="M15.5,21c0-2.5,2-4.5,4.5-4.5"/>
<path class="st1" d="M4,8h5v2H4V8z"/>
</svg>
