<?xml version="1.0" encoding="utf-8"?>
<!-- Generator: Adobe Illustrator 24.0.1, SVG Export Plug-In . SVG Version: 6.00 Build 0)  -->
<svg version="1.1" id="Layer_1" xmlns="http://www.w3.org/2000/svg" xmlns:xlink="http://www.w3.org/1999/xlink" x="0px" y="0px"
	 viewBox="0 0 48 48" style="enable-background:new 0 0 48 48;" xml:space="preserve">
<style type="text/css">
	.st0{fill:#FF4081;}
	.st1{fill:#455A64;}
	.st2{fill:#B0BEC5;}
	.st3{fill:#FFC107;}
	.st4{fill:#660636;}
</style>
<path class="st0" d="M5,22c2,0,2-10,15-10s12.5,9.3,15.5,10.3V27H5V22z"/>
<path class="st0" d="M46,31.3c0,0,0,1.8-2,1.8c-3,0-39,0-39,0c-1.7,0-3-1.3-3-3v-5c0,0,0-3,3-3c4,0,26,0,26,0c10,0,15,4,15,6V31.3z"
	/>
<path class="st1" d="M41,30c0,2.8-2.2,5-5,5s-5-2.2-5-5s2.2-5,5-5S41,27.2,41,30"/>
<path class="st1" d="M17,30c0,2.8-2.2,5-5,5s-5-2.2-5-5s2.2-5,5-5S17,27.2,17,30"/>
<path class="st2" d="M38,30c0,1.1-0.9,2-2,2s-2-0.9-2-2s0.9-2,2-2S38,28.9,38,30"/>
<path class="st2" d="M14,30c0,1.1-0.9,2-2,2s-2-0.9-2-2s0.9-2,2-2S14,28.9,14,30"/>
<g>
	<path class="st3" d="M3.5,25H2v4h1.5C4.3,29,5,28.3,5,27.5v-1C5,25.7,4.3,25,3.5,25z M43,24.7v2.8c0,0.8,0.7,1.5,1.5,1.5H46v-1
		C46,27.1,45,25.8,43,24.7z"/>
</g>
<g>
	<path class="st4" d="M32.3,22c-0.3-0.5-0.6-0.9-0.8-1.4C30,17.8,28,14.3,21,14v8H32.3z M19,22v-8c-7.3,0.3-9.3,4.3-10.7,6.9
		c-0.2,0.3-0.4,0.7-0.5,1H19z"/>
</g>
</svg>
