<?xml version="1.0" encoding="utf-8"?>
<!-- Generator: Adobe Illustrator 24.0.1, SVG Export Plug-In . SVG Version: 6.00 Build 0)  -->
<svg version="1.1" id="Layer_1" xmlns="http://www.w3.org/2000/svg" xmlns:xlink="http://www.w3.org/1999/xlink" x="0px" y="0px"
	 viewBox="0 0 48 48" style="enable-background:new 0 0 48 48;" xml:space="preserve">
<style type="text/css">
	.st0{fill:#90CAF9;}
	.st1{fill:#CFE8F9;}
	.st2{fill:#1E88E5;}
</style>
<path class="st0" d="M24,4C13,4,4,13,4,24s9,20,20,20s20-9,20-20S35,4,24,4z M24,27.7c-2,0-3.7-1.6-3.7-3.7s1.6-3.7,3.7-3.7
	s3.7,1.6,3.7,3.7S26,27.7,24,27.7z"/>
<path class="st1" d="M28,22.6l10.9-8.7c-1.3-2-3-3.6-5-5l-8.8,10.9C26.5,20.3,27.6,21.3,28,22.6z M19.9,25.2L9,33.9
	c1.3,2,3.1,3.7,5.1,5.1L22.7,28C21.4,27.6,20.3,26.6,19.9,25.2z"/>
<path class="st2" d="M24,18c-3.3,0-6,2.7-6,6s2.7,6,6,6c3.3,0,6-2.7,6-6S27.3,18,24,18z M24,26c-1.1,0-2-0.9-2-2s0.9-2,2-2
	s2,0.9,2,2S25.1,26,24,26z"/>
</svg>
