<?xml version="1.0" encoding="utf-8"?>
<!-- Generator: Adobe Illustrator 24.0.1, SVG Export Plug-In . SVG Version: 6.00 Build 0)  -->
<svg version="1.1" id="Layer_1" xmlns="http://www.w3.org/2000/svg" xmlns:xlink="http://www.w3.org/1999/xlink" x="0px" y="0px"
	 viewBox="0 0 32 32" style="enable-background:new 0 0 32 32;" xml:space="preserve">
<path d="M26.7,13.5c0.2,0.8,0.3,1.6,0.3,2.5c0,6.1-4.9,11-11,11S5,22.1,5,16S9.9,5,16,5c3,0,5.6,1.2,7.6,3.1L25,6.7
	C22.7,4.4,19.5,3,16,3C8.8,3,3,8.8,3,16c0,7.2,5.8,13,13,13c7.2,0,13-5.8,13-13c0-1.4-0.2-2.8-0.7-4.1L26.7,13.5z"/>
<g id="Group_1_2_">
	<polygon points="16,21.7 10.3,16 11.7,14.5 16,18.8 27.3,7.5 28.7,9 	"/>
</g>
</svg>
