<?xml version="1.0" encoding="utf-8"?>
<!-- Generator: Adobe Illustrator 24.0.1, SVG Export Plug-In . SVG Version: 6.00 Build 0)  -->
<svg version="1.1" id="Layer_1" xmlns="http://www.w3.org/2000/svg" xmlns:xlink="http://www.w3.org/1999/xlink" x="0px" y="0px"
	 viewBox="0 0 48 48" style="enable-background:new 0 0 48 48;" xml:space="preserve">
<path style="fill:#388E3C;" d="M43,38.8c0,2.3-1.9,4.2-4.2,4.2H17.2c-2.3,0-4.2-1.9-4.2-4.2V17.2c0-2.3,1.9-4.2,4.2-4.2h21.7
	c2.3,0,4.2,1.9,4.2,4.2V38.8z"/>
<path style="fill:#C8E6C9;" d="M35,30.8c0,2.3-1.9,4.2-4.2,4.2H9.2C6.9,35,5,33.1,5,30.8V9.2C5,6.9,6.9,5,9.2,5h21.7
	C33.1,5,35,6.9,35,9.2V30.8z"/>
</svg>
