<?xml version="1.0" encoding="utf-8"?>
<!-- Generator: Adobe Illustrator 24.0.1, SVG Export Plug-In . SVG Version: 6.00 Build 0)  -->
<svg version="1.1" id="Layer_1" xmlns="http://www.w3.org/2000/svg" xmlns:xlink="http://www.w3.org/1999/xlink" x="0px" y="0px"
	 viewBox="0 0 30 30" style="enable-background:new 0 0 30 30;" xml:space="preserve">
<g id="circle">
	<path d="M27,15c0,6.6-5.4,12-12,12S3,21.6,3,15S8.4,3,15,3c3.7,0,7,1.7,9.2,4.3L13.4,18.2l-3.8-3.8c-0.4-0.4-1-0.4-1.4,0
		s-0.4,1,0,1.4l4.5,4.5c0.2,0.2,0.4,0.3,0.7,0.3c0,0,0,0,0,0c0.3,0,0.5-0.1,0.7-0.3L25.4,9C26.4,10.8,27,12.8,27,15z"/>
</g>
<g id="check">
</g>
<g id="Group_1">
	<path d="M27.7,6.7L25.4,9c-0.3-0.6-0.7-1.2-1.2-1.7l2.1-2.1c0.4-0.4,1-0.4,1.4,0C28.1,5.7,28.1,6.3,27.7,6.7z"/>
</g>
</svg>
