<?xml version="1.0" encoding="utf-8"?>
<!-- Generator: Adobe Illustrator 24.0.1, SVG Export Plug-In . SVG Version: 6.00 Build 0)  -->
<svg version="1.1" id="Layer_1" xmlns="http://www.w3.org/2000/svg" xmlns:xlink="http://www.w3.org/1999/xlink" x="0px" y="0px"
	 viewBox="0 0 48 48" style="enable-background:new 0 0 48 48;" xml:space="preserve">
<style type="text/css">
	.st0{fill:#EDE7F6;}
	.st1{fill:#4E342E;}
	.st2{fill:#FF1744;}
	.st3{fill:#C16E14;}
	.st4{fill:#E5852E;}
	.st5{fill:#212121;}
	.st6{fill:#6D4C41;}
</style>
<path class="st0" d="M24,4C13,4,4,13,4,24s9,20,20,20s20-9,20-20S35,4,24,4z"/>
<path class="st1" d="M18,18.3h12v13.5H18V18.3z"/>
<path class="st2" d="M28,31h-8c0,0-7.3,1.6-7.9,9c3.3,2.5,7.5,4,11.9,4s8.6-1.5,11.9-4C35.3,32.6,28,31,28,31z"/>
<path class="st3" d="M24,34.8c-1.4,0-3.5-3.8-3.5-3.8v-5h7v5C27.5,31,25.4,34.8,24,34.8"/>
<path class="st4" d="M31,23c0,3.7-3.3,7-7,7c-3.7,0-7-3.3-7-7v-6c0-3.7,14-5.7,14,0V23z"/>
<path class="st4" d="M24,36c2.9,0,3.5-5,3.5-5s-1.9,3-3.5,3s-3.5-3-3.5-3S21.1,36,24,36"/>
<path class="st5" d="M26,22c0-0.6,0.4-1,1-1s1,0.4,1,1s-0.4,1-1,1S26,22.6,26,22"/>
<path class="st5" d="M20,22c0,0.6,0.4,1,1,1s1-0.4,1-1s-0.4-1-1-1S20,21.4,20,22"/>
<path class="st6" d="M24,11c-4.6,0-11,2.1-11,17l5,3.8V21l9-5l3,4v12l5-5c0-3-0.3-14.5-8-14.5L26,11H24z"/>
</svg>
