<?xml version="1.0" encoding="utf-8"?>
<!-- Generator: Adobe Illustrator 23.0.3, SVG Export Plug-In . SVG Version: 6.00 Build 0)  -->
<svg version="1.1" id="Layer_1" xmlns="http://www.w3.org/2000/svg" xmlns:xlink="http://www.w3.org/1999/xlink" x="0px" y="0px"
	 viewBox="0 0 40 40" style="enable-background:new 0 0 40 40;" xml:space="preserve">
<style type="text/css">
	.st0{fill:#DFF0FE;stroke:#4788C7;stroke-miterlimit:10;}
	.st1{fill:#8BB7F0;stroke:#4E7AB5;stroke-miterlimit:10;}
</style>
<path class="st0" d="M20,16.5c-1.9,0-3.5,1.6-3.5,3.5s1.6,3.5,3.5,3.5s3.5-1.6,3.5-3.5S21.9,16.5,20,16.5z"/>
<path class="st1" d="M20,23.5c-1.9,0-3.5-1.6-3.5-3.5s1.6-3.5,3.5-3.5s3.5,1.6,3.5,3.5S21.9,23.5,20,23.5z"/>
<path class="st1" d="M5,22c-1.1,0-2-0.9-2-2s0.9-2,2-2s2,0.9,2,2S6.1,22,5,22z"/>
<path class="st1" d="M35,22c-1.1,0-2-0.9-2-2s0.9-2,2-2s2,0.9,2,2S36.1,22,35,22z"/>
</svg>
