<?xml version="1.0" encoding="iso-8859-1"?>
<!-- Generator: Adobe Illustrator 24.0.3, SVG Export Plug-In . SVG Version: 6.00 Build 0)  -->
<svg version="1.1" id="Layer_1" xmlns="http://www.w3.org/2000/svg" xmlns:xlink="http://www.w3.org/1999/xlink" x="0px" y="0px"
	 viewBox="0 0 32 32" style="enable-background:new 0 0 32 32;" xml:space="preserve">
<path style="fill:none;stroke:#000000;stroke-width:2;stroke-miterlimit:10;" d="M16,14c-1.105,0-2,0.895-2,2s0.895,2,2,2
	s2-0.895,2-2S17.105,14,16,14z M26,14.8c-0.663,0-1.2,0.537-1.2,1.2c0,0.663,0.537,1.2,1.2,1.2s1.2-0.537,1.2-1.2
	C27.2,15.337,26.663,14.8,26,14.8z M6,14.8c-0.663,0-1.2,0.537-1.2,1.2c0,0.663,0.537,1.2,1.2,1.2s1.2-0.537,1.2-1.2
	C7.2,15.337,6.663,14.8,6,14.8z"/>
</svg>
