<?xml version="1.0" encoding="utf-8"?>
<!-- Generator: Adobe Illustrator 24.0.1, SVG Export Plug-In . SVG Version: 6.00 Build 0)  -->
<svg version="1.1" id="Layer_1" xmlns="http://www.w3.org/2000/svg" xmlns:xlink="http://www.w3.org/1999/xlink" x="0px" y="0px"
	 viewBox="0 0 48 48" style="enable-background:new 0 0 48 48;" xml:space="preserve">
<style type="text/css">
	.st0{fill:#3F51B5;}
	.st1{fill:#9FA8DA;}
</style>
<path class="st0" d="M40,41H8c-2.2,0-4-1.8-4-4V15h40v22C44,39.2,42.2,41,40,41z"/>
<g>
	<path class="st0" d="M43.4,8.3L4,15l-0.3-2C3.3,10.8,4.8,8.8,7,8.4l31.6-5.3c2.2-0.4,4.2,1.1,4.6,3.3L43.4,8.3z"/>
	<polygon class="st1" points="18.8,6.4 23.7,11.7 27.7,11 22.7,5.7 	"/>
	<polygon class="st1" points="10.9,7.7 15.8,13 19.8,12.3 14.8,7.1 	"/>
	<polygon class="st1" points="26.7,5.1 31.6,10.3 35.5,9.7 30.6,4.4 	"/>
	<polygon class="st1" points="34.5,3.8 39.5,9 43.4,8.3 38.5,3.1 	"/>
	<circle class="st1" cx="7.5" cy="11.5" r="1.5"/>
</g>
<g>
	<polygon class="st1" points="40,15 36,21 40,21 44,15 	"/>
	<polygon class="st1" points="32,15 28,21 32,21 36,15 	"/>
	<polygon class="st1" points="24,15 20,21 24,21 28,15 	"/>
	<polygon class="st1" points="16,15 12,21 16,21 20,15 	"/>
	<polygon class="st1" points="8,15 4,21 8,21 12,15 	"/>
</g>
</svg>
