<?xml version="1.0" encoding="iso-8859-1"?>
<!-- Generator: Adobe Illustrator 23.0.3, SVG Export Plug-In . SVG Version: 6.00 Build 0)  -->
<svg version="1.1" id="Layer_1" xmlns="http://www.w3.org/2000/svg" xmlns:xlink="http://www.w3.org/1999/xlink" x="0px" y="0px"
	 viewBox="0 0 40 40" style="enable-background:new 0 0 40 40;" xml:space="preserve">
<path style="fill:#FFEEA3;stroke:#C29653;stroke-miterlimit:10;" d="M8.628,17.862l-0.202-0.046c-0.16-0.037-0.32-0.074-0.477-0.123
	l-0.198-0.061l-2.279,1.211l-0.091-2.591L5.229,16.11c-0.118-0.109-0.23-0.223-0.341-0.341l-0.141-0.151l-2.59-0.09l1.211-2.279
	L3.306,13.05c-0.048-0.155-0.086-0.315-0.122-0.476l-0.046-0.203L0.943,11l2.194-1.371l0.047-0.202
	c0.037-0.161,0.074-0.322,0.122-0.478L3.368,8.75L2.157,6.472l2.59-0.09L4.888,6.23c0.11-0.118,0.223-0.231,0.341-0.341l0.152-0.142
	l0.091-2.591l2.279,1.211l0.198-0.061c0.156-0.048,0.316-0.085,0.477-0.123l0.202-0.046L10,1.943l1.372,2.195l0.202,0.046
	c0.16,0.037,0.32,0.074,0.477,0.123l0.198,0.061l2.279-1.211l0.091,2.591l0.152,0.142c0.118,0.109,0.23,0.223,0.341,0.341
	l0.141,0.151l2.59,0.09L16.632,8.75l0.062,0.199c0.048,0.156,0.085,0.317,0.122,0.478l0.047,0.202L19.057,11l-2.195,1.372
	l-0.046,0.203c-0.036,0.16-0.074,0.32-0.122,0.476l-0.062,0.199l1.211,2.279l-2.59,0.09l-0.141,0.151
	c-0.11,0.118-0.223,0.231-0.341,0.341l-0.152,0.142l-0.091,2.591l-2.279-1.211l-0.198,0.061c-0.156,0.048-0.316,0.085-0.477,0.123
	l-0.202,0.046L10,20.057L8.628,17.862z"/>
<path style="fill:#F5CE85;" d="M10,6c-2.761,0-5,2.239-5,5s2.239,5,5,5s5-2.239,5-5S12.761,6,10,6z"/>
<path style="fill:#E1EBF2;" d="M7,35.5c-3.584,0-6.5-2.916-6.5-6.5c0-2.497,1.464-4.802,3.73-5.873l0.271-0.128l0.014-0.301
	C4.676,19.222,7.524,16.5,11,16.5c0.299,0,0.61,0.026,0.98,0.082l0.514,0.078l0.059-0.516C12.982,12.356,16.185,9.5,20,9.5
	c2.698,0,5.2,1.464,6.53,3.82l0.166,0.293l0.334-0.043c0.318-0.042,0.64-0.07,0.97-0.07c4.136,0,7.5,3.364,7.5,7.5v0.289
	l0.246,0.221C38.062,22.85,39.5,25.336,39.5,28c0,4.136-3.364,7.5-7.5,7.5H7z"/>
<path style="fill:#B0C1D4;" d="M20,10c2.517,0,4.853,1.366,6.095,3.566l0.331,0.586l0.668-0.086C27.443,14.021,27.73,14,28,14
	c3.86,0,7,3.14,7.001,6.967l-0.004,0.069v0.032l-0.006,0.583l0.505,0.292C37.657,23.193,39,25.514,39,28c0,3.86-3.14,7-7,7H7
	c-3.308,0-6-2.692-6-6c0-2.304,1.352-4.432,3.444-5.421l0.544-0.257l0.028-0.601C5.163,19.513,7.792,17,11,17
	c0.273,0,0.561,0.024,0.906,0.077l1.026,0.156l0.117-1.031C13.451,12.666,16.439,10,20,10 M20,9c-4.109,0-7.491,3.1-7.944,7.088
	C11.71,16.036,11.36,16,11,16c-3.756,0-6.813,2.961-6.984,6.675C1.645,23.796,0,26.203,0,29c0,3.866,3.134,7,7,7h25
	c4.418,0,8-3.582,8-8c0-2.961-1.613-5.54-4.004-6.923C35.996,21.051,36,21.026,36,21c0-4.418-3.582-8-8-8
	c-0.351,0-0.695,0.03-1.034,0.074C25.593,10.644,22.99,9,20,9L20,9z"/>
<path style="fill:#FFFFFF;" d="M20,10c-3.561,0-6.549,2.666-6.951,6.201l-0.117,1.031l-1.026-0.156C11.561,17.024,11.273,17,11,17
	c-3.208,0-5.837,2.513-5.985,5.721l-0.028,0.601l-0.544,0.257C2.352,24.568,1,26.696,1,29h1c0-1.92,1.127-3.693,2.871-4.517
	l0.544-0.257l0.544-0.257l0.028-0.601l0.028-0.601C6.137,20.094,8.327,18,11,18c0.222,0,0.462,0.021,0.756,0.065l1.026,0.156
	l1.026,0.156l0.117-1.031l0.117-1.031C14.387,13.284,16.948,11,20,11V10z"/>
</svg>
