<?xml version="1.0" encoding="iso-8859-1"?>
<!-- Generator: Adobe Illustrator 23.0.3, SVG Export Plug-In . SVG Version: 6.00 Build 0)  -->
<svg version="1.1" id="Layer_1" xmlns="http://www.w3.org/2000/svg" xmlns:xlink="http://www.w3.org/1999/xlink" x="0px" y="0px"
	 viewBox="0 0 40 40" style="enable-background:new 0 0 40 40;" xml:space="preserve">
<path style="fill:#F5CE85;" d="M20,35.5c-8.547,0-15.5-6.953-15.5-15.5S11.453,4.5,20,4.5S35.5,11.453,35.5,20S28.547,35.5,20,35.5z
	"/>
<path style="fill:#967A44;" d="M20,5c8.271,0,15,6.729,15,15s-6.729,15-15,15S5,28.271,5,20S11.729,5,20,5 M20,4
	C11.163,4,4,11.163,4,20s7.163,16,16,16s16-7.163,16-16S28.837,4,20,4L20,4z"/>
<g>
	<path style="fill:#FFEEA3;" d="M20,8C13.373,8,8,13.373,8,20s5.373,12,12,12s12-5.373,12-12S26.627,8,20,8z"/>
</g>
<path style="fill:#967A44;" d="M21.425,12.748v14.383h-2.487V16.054c-0.45,0.322-1.399,0.692-3.227,1.154v-2.123
	c2.485-0.796,4.256-2.044,4.663-2.337C20.374,12.748,21.425,12.748,21.425,12.748z"/>
</svg>
