<?xml version="1.0" encoding="utf-8"?>
<!-- Generator: Adobe Illustrator 23.1.0, SVG Export Plug-In . SVG Version: 6.00 Build 0)  -->
<svg version="1.1" id="Layer_1" xmlns="http://www.w3.org/2000/svg" xmlns:xlink="http://www.w3.org/1999/xlink" x="0px" y="0px"
	 viewBox="0 0 30 30" style="enable-background:new 0 0 30 30;" xml:space="preserve">
<style type="text/css">
	.st0{fill:none;stroke:#000000;stroke-width:2;stroke-linecap:round;stroke-linejoin:round;stroke-miterlimit:10;}
</style>
<path class="st0" d="M15,4C8.9,4,4,8.9,4,15s4.9,11,11,11s11-4.9,11-11S21.1,4,15,4z"/>
<path class="st0" d="M11.4,21c1.1,0.6,2.3,1,3.6,1s2.5-0.4,3.6-1"/>
<path d="M11,18h-1c-1.7,0-3-1.3-3-3v-1c0-0.6,0.4-1,1-1h5c0.6,0,1,0.4,1,1v1C14,16.7,12.7,18,11,18z M20,18h-1c-1.7,0-3-1.3-3-3v-1
	c0-0.6,0.4-1,1-1h5c0.6,0,1,0.4,1,1v1C23,16.7,21.7,18,20,18z"/>
</svg>
