<?xml version="1.0" encoding="utf-8"?>
<!-- Generator: Adobe Illustrator 24.0.1, SVG Export Plug-In . SVG Version: 6.00 Build 0)  -->
<svg version="1.1" id="Layer_1" xmlns="http://www.w3.org/2000/svg" xmlns:xlink="http://www.w3.org/1999/xlink" x="0px" y="0px"
	 viewBox="0 0 48 48" style="enable-background:new 0 0 48 48;" xml:space="preserve">
<style type="text/css">
	.st0{fill:#42A5F5;}
	.st1{fill:#E1F5FE;}
	.st2{fill:#1565C0;}
	.st3{fill:#90CAF9;}
	.st4{fill:#1976D2;}
</style>
<path class="st0" d="M31,36H6V3h17l8,8V36z"/>
<path class="st1" d="M29.5,12H22V4.5L29.5,12z"/>
<path class="st2" d="M11,16h16v2H11V16z M11,20h12v2H11V20z M11,24h16v2H11V24z M11,28h12v2H11V28z"/>
<path class="st3" d="M42,44H17V11h17l8,8V44z"/>
<path class="st1" d="M40.5,20H33v-7.5L40.5,20z"/>
<g>
	<path class="st4" d="M22,24h15v2H22V24z M22,28h11v2H22V28z M22,32h15v2H22V32z M22,36h11v2H22V36z"/>
</g>
</svg>
