<?xml version="1.0" encoding="utf-8"?>
<!-- Generator: Adobe Illustrator 24.0.1, SVG Export Plug-In . SVG Version: 6.00 Build 0)  -->
<svg version="1.1" id="Layer_1" xmlns="http://www.w3.org/2000/svg" xmlns:xlink="http://www.w3.org/1999/xlink" x="0px" y="0px"
	 viewBox="0 0 48 48" style="enable-background:new 0 0 48 48;" xml:space="preserve">
<path style="fill:#FFCA28;" d="M44,24c0,11-9,20-20,20S4,35,4,24S13,4,24,4S44,13,44,24z"/>
<path style="fill:#6D4C41;" d="M21,23c0,2.2-1.8,4-4,4s-4-1.8-4-4s1.8-4,4-4S21,20.8,21,23z"/>
<path style="fill:#FFFFFF;" d="M20,24.5c0,0.8-0.7,1.5-1.5,1.5S17,25.3,17,24.5s0.7-1.5,1.5-1.5S20,23.7,20,24.5z"/>
<path style="fill:#6D4C41;" d="M35,23c0,2.2-1.8,4-4,4s-4-1.8-4-4s1.8-4,4-4S35,20.8,35,23z"/>
<path style="fill:#FFFFFF;" d="M31,21.5c0,0.8-0.7,1.5-1.5,1.5S28,22.3,28,21.5s0.7-1.5,1.5-1.5S31,20.7,31,21.5z"/>
<path style="fill:#B76C09;" d="M24,37c-2.8,0-5-2.2-5-5h2c0,1.7,1.3,3,3,3s3-1.3,3-3h2C29,34.8,26.8,37,24,37z"/>
<path style="fill:#FF3D00;" d="M21,38c0,1.7,1.3,3,3,3s3-1.3,3-3v-6c0,0-0.1,3-3,3s-3-3-3-3V38z"/>
<path style="fill:#DD2C00;" d="M24,37c1.1,0,2.2-0.4,3-1v-4c0,0,0,0.1,0,0.3c0,0.3-0.1,0.7-0.3,1C26.4,34.1,25.6,35,24,35
	c-1.3,0-2-0.6-2.4-1.3c-0.3-0.4-0.5-1-0.5-1.5c0-0.1,0-0.2,0-0.2v4C21.8,36.6,22.9,37,24,37z"/>
</svg>
