<svg xmlns="http://www.w3.org/2000/svg" viewBox="0 0 48 48" width="48px" height="48px"><path fill="#f8bbd0" d="M45,18.5c0-1.984-1.293-3.649-3.075-4.248c-0.338-2.233-2.141-3.963-4.405-4.2 C36.552,7.677,34.223,6,31.5,6c-1.43,0-2.747,0.467-3.821,1.25C26.58,5.879,24.894,5,23,5c-1.682,0-3.199,0.694-4.289,1.808 C17.929,6.301,17.001,6,16,6c-2.127,0-3.932,1.334-4.654,3.206C10.915,9.086,10.469,9,10,9c-2.761,0-5,2.239-5,5 c0,0.5,0.096,0.973,0.232,1.429C3.914,16.083,3,17.429,3,19c0,1.202,0.541,2.267,1.38,3C3.541,22.733,3,23.798,3,25 c0,1.525,0.863,2.834,2.118,3.509C5.045,28.829,5,29.158,5,29.5C5,31.985,7.015,34,9.5,34c0.018,0,0.034-0.005,0.052-0.005 c0.436,0.752,1.105,1.352,1.911,1.693L10,43h6l0.78-2.34C17.509,38.474,19,37,22,37c2.335,0,4.28-1.286,4.83-3.017 C26.888,33.985,26.942,34,27,34c1.586,0,2.944-0.93,3.591-2.268C31.031,31.898,31.502,32,32,32c1.586,0,2.944-0.93,3.591-2.268 C36.031,29.898,36.502,30,37,30c1.479,0,2.756-0.812,3.448-2.005c0.018,0,0.034,0.005,0.052,0.005c2.485,0,4.5-2.015,4.5-4.5 c0-0.925-0.281-1.785-0.76-2.5C44.719,20.285,45,19.425,45,18.5z"/><path fill="#f06292" d="M29,22.428c-2.442,0-4.429-1.986-4.429-4.428s1.986-4.428,4.429-4.428s4.429,1.986,4.429,4.428 S31.442,22.428,29,22.428z M29,15.572c-1.339,0-2.429,1.089-2.429,2.428s1.09,2.428,2.429,2.428s2.429-1.089,2.429-2.428 S30.339,15.572,29,15.572z"/><path fill="#f06292" d="M28 12H30V14.572H28zM28 21.429H30V24H28zM32.429 17.019H35V19.019H32.429zM23 17.019H25.571V19.019H23z"/><path fill="#f06292" d="M31.047 13.667H33.619V15.667H31.047z" transform="rotate(-45.001 32.333 14.667)"/><path fill="#f06292" d="M24.38 20.334H26.953V22.334H24.38z" transform="rotate(-45.001 25.666 21.334)"/><path fill="#f06292" d="M31.334 20.047H33.334V22.62H31.334z" transform="rotate(-45.001 32.333 21.334)"/><path fill="#f06292" d="M24.667 13.381H26.667V15.953H24.667z" transform="rotate(-45.017 25.666 14.667)"/><path fill="#f06292" d="M18,29.428c-2.442,0-4.429-1.986-4.429-4.428s1.986-4.428,4.429-4.428s4.429,1.986,4.429,4.428 S20.442,29.428,18,29.428z M18,22.572c-1.339,0-2.429,1.089-2.429,2.428s1.09,2.428,2.429,2.428s2.429-1.089,2.429-2.428 S19.339,22.572,18,22.572z"/><path fill="#f06292" d="M17 19H19V21.571H17zM17 28.428H19V31H17zM21.429 23.981H24V25.981H21.429zM12 23.981H14.571V25.981H12z"/><path fill="#f06292" d="M20.047 20.667H22.62V22.667H20.047z" transform="rotate(-45.001 21.333 21.667)"/><path fill="#f06292" d="M13.38 27.333H15.952000000000002V29.333H13.38z" transform="rotate(-45.001 14.666 28.333)"/><path fill="#f06292" d="M20.334 27.047H22.334V29.619H20.334z" transform="rotate(-45.017 21.333 28.333)"/><path fill="#f06292" d="M13.667 20.38H15.667V22.953H13.667z" transform="rotate(-45.001 14.666 21.667)"/></svg>