<?xml version="1.0" encoding="iso-8859-1"?>
<!-- Generator: Adobe Illustrator 23.0.3, SVG Export Plug-In . SVG Version: 6.00 Build 0)  -->
<svg version="1.1" id="Layer_1" xmlns="http://www.w3.org/2000/svg" xmlns:xlink="http://www.w3.org/1999/xlink" x="0px" y="0px"
	 viewBox="0 0 40 40" style="enable-background:new 0 0 40 40;" xml:space="preserve">
<path style="fill:#FFEEA3;" d="M20,38.5C9.799,38.5,1.5,30.201,1.5,20S9.799,1.5,20,1.5S38.5,9.799,38.5,20S30.201,38.5,20,38.5z"/>
<path style="fill:#C29653;" d="M20,2c9.925,0,18,8.075,18,18s-8.075,18-18,18S2,29.925,2,20S10.075,2,20,2 M20,1
	C9.507,1,1,9.507,1,20s8.507,19,19,19s19-8.507,19-19S30.493,1,20,1L20,1z"/>
<path style="fill:#F78F8F;" d="M29.272,28.36c-1.64-0.281-5.474-0.86-9.272-0.86s-7.632,0.579-9.272,0.86
	c0.709-1.939,3.115-6.86,9.272-6.86S28.563,26.421,29.272,28.36z"/>
<path style="fill:#C74343;" d="M20,22c5.105,0,7.498,3.591,8.468,5.719C26.55,27.418,23.295,27,20,27s-6.55,0.418-8.468,0.719
	C12.503,25.59,14.896,22,20,22 M20,21c-8,0-10,8-10,8s5-1,10-1s10,1,10,1S28,21,20,21L20,21z"/>
<path style="fill:none;stroke:#C29653;" d="M9.286,14.505c0,0,1.5-2,4-2s4,2,4,2"/>
<path style="fill:none;stroke:#C29653;" d="M22.786,14.505c0,0,1.5-2,4-2s4,2,4,2"/>
<path style="fill:#8BB7F0;" d="M35,23.667C35,21.195,32,19,32,19c0,2.464-1,3.667-1,4.667c0,1.104,0.896,2,2,2S35,24.771,35,23.667z
	"/>
</svg>
