<?xml version="1.0" encoding="utf-8"?>
<!-- Generator: Adobe Illustrator 24.0.1, SVG Export Plug-In . SVG Version: 6.00 Build 0)  -->
<svg version="1.1" id="Layer_1" xmlns="http://www.w3.org/2000/svg" xmlns:xlink="http://www.w3.org/1999/xlink" x="0px" y="0px"
	 viewBox="0 0 48 48" style="enable-background:new 0 0 48 48;" xml:space="preserve">
<style type="text/css">
	.st0{fill:#3F51B5;}
	.st1{fill:#03A9F4;}
	.st2{fill:#283593;}
</style>
<path class="st0" d="M24,21.4l-1.7-1.2c0,0-5.7-3.5-7-4.2c-0.2-0.1-0.4-0.2-0.5-0.3c1-0.9,1.6-2.6,1.6-3.9c0-1.9-1.6-5.8-6.3-5.8
	C5.6,6,4,9.3,4,11.6c0,1.8,0.7,4.3,4,5.8c0.6,0.2,1.1,0.5,1.7,0.7c2.8,1.1,5.7,2.3,8.2,6l4.2,3.8l12,8.5c0.1,0.1,2.3,1.7,5.1,1.7
	c0,0,0,0,0,0c1.5,0,2.9-0.4,4.1-1.4c0.2-0.2,0.7-0.7,0.7-0.7L24,21.4z M12.5,14.1c-0.5,0.6-1.2,0.9-2,0.9c-1.7,0-3.2-1.3-3.4-3
	C7,11.2,7.2,10.4,7.7,9.8c0.5-0.6,1.3-1,2.2-1c1.7,0,3.1,1.2,3.3,2.8C13.3,12.5,13,13.4,12.5,14.1z"/>
<path class="st1" d="M22.4,27.7L44,12l-0.7-0.8c-1.2-1-2.5-1.2-4.1-1.2c-2.8,0-5,1.4-5.1,1.5L18.8,22.2c-0.1,0.1-0.2,0.2-0.2,0.3
	c-2.6,4.8-5.8,6-8.9,7.3C9.1,30,8.5,30.2,8,30.5c-3.3,1.5-4,3.9-4,5.8c0,2.3,1.6,5.8,6.1,5.8c4.7,0,6.3-4.1,6.3-5.9
	c0-1.2-0.5-2.9-1.6-3.9c0.1-0.1,0.2-0.2,0.5-0.3C16.6,31.2,22.1,27.8,22.4,27.7z M13.2,36.2C13,37.8,11.6,39,9.9,39
	c-0.8,0-1.6-0.4-2.2-1C7.2,37.4,7,36.7,7,35.8c0.2-1.7,1.7-3,3.4-3c0.8,0,1.5,0.3,2,0.9C13,34.4,13.3,35.3,13.2,36.2z"/>
<path class="st1" d="M22.4,27.7L44,12l-0.7-0.8c-1.2-1-2.5-1.2-4.1-1.2c-2.8,0-5,1.4-5.1,1.5L18.8,22.2c-0.1,0.1-0.2,0.2-0.2,0.3
	c-2.6,4.8-5.8,6-8.9,7.3C9.1,30,8.5,30.2,8,30.5c-3.3,1.5-4,3.9-4,5.8c0,2.3,1.6,5.8,6.1,5.8c4.7,0,6.3-4.1,6.3-5.9
	c0-1.2-0.5-2.9-1.6-3.9c0.1-0.1,0.2-0.2,0.5-0.3C16.6,31.2,22.1,27.8,22.4,27.7z M13.2,36.2C13,37.8,11.6,39,9.9,39
	c-0.8,0-1.6-0.4-2.2-1C7.2,37.4,7,36.7,7,35.8c0.2-1.7,1.7-3,3.4-3c0.8,0,1.5,0.3,2,0.9C13,34.4,13.3,35.3,13.2,36.2z"/>
<path class="st2" d="M22.4,27.7c0,0-0.2,0.1-0.4,0.2l2.7,1.9l5.4-4l-2.6-1.9L22.4,27.7z"/>
<circle class="st2" cx="22.5" cy="23.5" r="1"/>
</svg>
