<?xml version="1.0" encoding="iso-8859-1"?>
<!-- Generator: Adobe Illustrator 24.0.2, SVG Export Plug-In . SVG Version: 6.00 Build 0)  -->
<svg version="1.1" id="Layer_1" xmlns="http://www.w3.org/2000/svg" xmlns:xlink="http://www.w3.org/1999/xlink" x="0px" y="0px"
	 viewBox="0 0 30 30" style="enable-background:new 0 0 30 30;" xml:space="preserve">
<path d="M12,13v6l-1,6.967C11,26.537,11.463,27,12.033,27l0,0c0.544,0,0.995-0.422,1.031-0.965l1.438-5.57
	C14.52,20.204,14.737,20,15,20l0,0c0.263,0,0.48,0.204,0.498,0.466l1.438,5.57C16.972,26.578,17.423,27,17.967,27l0,0
	C18.537,27,19,26.537,19,25.967L18,19v-6c0-1.657-1.343-3-3-3l0,0C13.343,10,12,11.343,12,13z"/>
<path style="fill:none;stroke:#000000;stroke-width:2;stroke-linecap:round;stroke-miterlimit:10;" d="M28,19H2"/>
<path d="M15,2c-1.657,0-3,1.343-3,3s1.343,3,3,3s3-1.343,3-3S16.657,2,15,2z M24,24L24,24c-0.552,0-1-0.448-1-1v-8
	c0-0.552,0.448-1,1-1l0,0c0.552,0,1,0.448,1,1v8C25,23.552,24.552,24,24,24z M26,23h-1v-8h1c0.552,0,1,0.448,1,1v6
	C27,22.552,26.552,23,26,23z M6,14L6,14c0.552,0,1,0.448,1,1v8c0,0.552-0.448,1-1,1l0,0c-0.552,0-1-0.448-1-1v-8
	C5,14.448,5.448,14,6,14z M4,15h1v8H4c-0.552,0-1-0.448-1-1v-6C3,15.448,3.448,15,4,15z"/>
<path style="fill:none;stroke:#000000;stroke-width:2;stroke-linecap:round;stroke-linejoin:round;stroke-miterlimit:10;" d="M19,20
	l-0.669-6.018C18.143,12.284,16.708,11,15,11l0,0c-1.708,0-3.143,1.284-3.331,2.982L11,20"/>
</svg>
