<?xml version="1.0" encoding="iso-8859-1"?>
<!-- Generator: Adobe Illustrator 23.1.0, SVG Export Plug-In . SVG Version: 6.00 Build 0)  -->
<svg version="1.1" id="Layer_1" xmlns="http://www.w3.org/2000/svg" xmlns:xlink="http://www.w3.org/1999/xlink" x="0px" y="0px"
	 viewBox="0 0 30 30" style="enable-background:new 0 0 30 30;" xml:space="preserve">
<path style="fill:none;stroke:#000000;stroke-width:2;stroke-linecap:round;stroke-linejoin:round;stroke-miterlimit:10;" d="M9,10
	v3l2,1"/>
<path d="M23,16v-4c0-0.552,0.448-1,1-1h2.857l-0.338-0.788C26.204,9.477,25.481,9,24.681,9H18v14h3.05
	c-0.084-0.414-0.068-0.863,0.087-1.326c0.262-0.784,0.935-1.404,1.738-1.598C24.527,19.676,26,20.916,26,22.5
	c0,0.171-0.018,0.338-0.05,0.5H29v-7H23z"/>
<path style="fill:none;stroke:#000000;stroke-width:2;stroke-miterlimit:10;" d="M23.5,20c-1.381,0-2.5,1.119-2.5,2.5
	s1.119,2.5,2.5,2.5s2.5-1.119,2.5-2.5S24.881,20,23.5,20z M7.5,20C6.119,20,5,21.119,5,22.5S6.119,25,7.5,25s2.5-1.119,2.5-2.5
	S8.881,20,7.5,20z"/>
<path style="fill:none;stroke:#000000;stroke-width:2;stroke-linecap:round;stroke-miterlimit:10;" d="M28,22h1 M1,22h2"/>
<path d="M16,5H3C1.895,5,1,5.895,1,7v16h4.05c-0.084-0.414-0.068-0.863,0.087-1.326c0.262-0.784,0.935-1.404,1.739-1.598
	C8.527,19.676,10,20.916,10,22.5c0,0.171-0.018,0.338-0.05,0.5H18V7C18,5.895,17.105,5,16,5z M9,18c-2.761,0-5-2.239-5-5
	s2.239-5,5-5s5,2.239,5,5S11.761,18,9,18z"/>
</svg>
