<?xml version="1.0" encoding="utf-8"?>
<!-- Generator: Adobe Illustrator 23.0.3, SVG Export Plug-In . SVG Version: 6.00 Build 0)  -->
<svg version="1.1" id="Layer_1" xmlns="http://www.w3.org/2000/svg" xmlns:xlink="http://www.w3.org/1999/xlink" x="0px" y="0px"
	 viewBox="0 0 40 40" style="enable-background:new 0 0 40 40;" xml:space="preserve">
<style type="text/css">
	.st0{fill:#FFFFFF;}
	.st1{fill:#788B9C;}
</style>
<path class="st0" d="M6.5,37.5v-35h18.3l8.7,8.7v26.3H6.5z"/>
<path class="st1" d="M24.6,3l8.4,8.4V37H7V3H24.6 M25,2H6v36h28V11L25,2L25,2z"/>
<path class="st0" d="M24.5,11.5v-9h0.3l8.7,8.7v0.3H24.5z"/>
<path class="st1" d="M25,3.4l7.6,7.6H25V3.4 M25,2h-1v10h10v-1L25,2L25,2z M12,16h16v1H12V16z M12,19h12v1H12V19z M12,22h16v1H12V22
	z M12,25h12v1H12V25z M12,28h16v1H12V28z"/>
</svg>
