<?xml version="1.0" encoding="iso-8859-1"?>
<!-- Generator: Adobe Illustrator 23.1.0, SVG Export Plug-In . SVG Version: 6.00 Build 0)  -->
<svg version="1.1" id="Layer_1" xmlns="http://www.w3.org/2000/svg" xmlns:xlink="http://www.w3.org/1999/xlink" x="0px" y="0px"
	 viewBox="0 0 30 30" style="enable-background:new 0 0 30 30;" xml:space="preserve">
<path d="M26,17.5c0-0.791-0.617-1.472-1.408-1.498c-0.42-0.014-0.731,0.068-0.96,0.191c-0.358,0.192-0.802,0.03-1.017-0.314
	C22.33,15.422,21.84,15,21,15c-0.5,0-0.886,0.142-1.174,0.321c-0.356,0.222-0.805,0.063-1.01-0.304C18.533,14.508,18,14,17,14
	c-0.621,0-1.067,0.205-1.378,0.45C15.37,14.648,15,14.45,15,14.129V7.107c0-0.996-0.681-1.92-1.664-2.08C12.083,4.824,11,5.785,11,7
	v15c-2.552-1.299-3.595-2-5.793-2C4.207,20,3,20.443,3,21.572V22l5,3l3.357,2.685C12.421,28.536,13.742,29,15.105,29H22
	c2.209,0,4-1.791,4-4v-2V17.5z"/>
</svg>
