<?xml version="1.0" encoding="iso-8859-1"?>
<!-- Generator: Adobe Illustrator 24.0.2, SVG Export Plug-In . SVG Version: 6.00 Build 0)  -->
<svg version="1.1" id="arrow" xmlns="http://www.w3.org/2000/svg" xmlns:xlink="http://www.w3.org/1999/xlink" x="0px" y="0px"
	 viewBox="0 0 30 30" style="enable-background:new 0 0 30 30;" xml:space="preserve">
<path d="M23.032,19.581c-0.154-0.374-0.52-0.617-0.924-0.617h-4.072v-15c0-1.105-0.895-2-2-2h-2c-1.105,0-2,0.895-2,2v15H7.965
	c-0.404,0-0.77,0.243-0.924,0.617c-0.156,0.374-0.069,0.803,0.217,1.09l7.071,7.071c0.391,0.391,1.023,0.391,1.414,0l7.071-7.071
	c0.191-0.191,0.293-0.447,0.293-0.707C23.107,19.835,23.083,19.705,23.032,19.581z"/>
</svg>
