<?xml version="1.0" encoding="utf-8"?>
<!-- Generator: Adobe Illustrator 23.0.3, SVG Export Plug-In . SVG Version: 6.00 Build 0)  -->
<svg version="1.1" id="Layer_2_copy" xmlns="http://www.w3.org/2000/svg" xmlns:xlink="http://www.w3.org/1999/xlink" x="0px"
	 y="0px" viewBox="0 0 40 40" style="enable-background:new 0 0 40 40;" xml:space="preserve">
<style type="text/css">
	.st0{fill:#C2E8FF;}
	.st1{fill:none;stroke:#7496C4;stroke-linecap:round;stroke-miterlimit:10;}
</style>
<path class="st0" d="M35.7,15.9l-0.4-0.1l0.1-0.4c0.1-0.3,0.1-0.6,0.1-0.9c0-3.3-2.7-6-6-6c-0.7,0-1.5,0.1-2.2,0.4l-0.4,0.2
	l-0.2-0.4c-1.3-2.6-3.8-4.2-6.7-4.2c-3.9,0-7.1,2.9-7.5,6.8v0.3l-0.3,0.1c-1.8,0.5-3.1,1.9-3.5,3.7l-0.1,0.5L8,15.7
	c-0.5-0.1-1-0.2-1.5-0.2c-3.3,0-6,2.7-6,6s2.7,6,6,6H16V28h8v-0.5h9.5c3.3,0,6-2.7,6-6C39.5,19,38,16.9,35.7,15.9z"/>
<path class="st1" d="M23,27.5c6.6,0,10.3,0,10.5,0c3.3,0,6-2.7,6-6c0-2.7-1.7-4.9-4.1-5.7c0.1-0.4,0.1-0.9,0.1-1.3c0-3.3-2.7-6-6-6
	c-0.9,0-1.8,0.2-2.6,0.6c-1.1-2.7-3.8-4.6-6.9-4.6c-4,0-7.3,3.1-7.5,7.1c-2.1,0.4-3.7,2.1-4,4.3c-0.6-0.2-1.3-0.4-2.1-0.4
	c-3.3,0-6,2.7-6,6s2.7,6,6,6c0,0,10.2,0,17,0"/>
</svg>
