<?xml version="1.0" encoding="iso-8859-1"?>
<!-- Generator: Adobe Illustrator 23.1.0, SVG Export Plug-In . SVG Version: 6.00 Build 0)  -->
<svg version="1.1" xmlns="http://www.w3.org/2000/svg" xmlns:xlink="http://www.w3.org/1999/xlink" x="0px" y="0px"
	 viewBox="0 0 30 30" style="enable-background:new 0 0 30 30;" xml:space="preserve">
<g id="circle">
</g>
<g id="mask">
</g>
<g id="hand">
	<path d="M29.766,17.5c0-0.791-0.617-1.472-1.408-1.498c-0.42-0.014-0.731,0.068-0.96,0.191c-0.358,0.192-0.802,0.03-1.017-0.314
		C26.096,15.422,25.606,15,24.766,15c-0.5,0-0.886,0.142-1.174,0.321c-0.356,0.222-0.805,0.063-1.01-0.304
		C22.299,14.508,21.766,14,20.766,14c-0.621,0-1.067,0.205-1.378,0.45c-0.252,0.198-0.622,0-0.622-0.321V7.107
		c0-0.996-0.681-1.92-1.664-2.08C15.849,4.824,14.766,5.785,14.766,7v15c-2.552-1.299-3.595-2-5.793-2c-1,0-2.207,0.443-2.207,1.572
		V22l5,3l3.357,2.685C16.187,28.536,17.508,29,18.871,29h6.895c2.209,0,4-1.791,4-4v-2V17.5z"/>
</g>
</svg>
