<?xml version="1.0" encoding="iso-8859-1"?>
<!-- Generator: Adobe Illustrator 24.0.2, SVG Export Plug-In . SVG Version: 6.00 Build 0)  -->
<svg version="1.1" id="Layer_1" xmlns="http://www.w3.org/2000/svg" xmlns:xlink="http://www.w3.org/1999/xlink" x="0px" y="0px"
	 viewBox="0 0 30 30" style="enable-background:new 0 0 30 30;" xml:space="preserve">
<path d="M23.654,17.5c0-0.791-0.617-1.472-1.408-1.498c-0.42-0.014-0.731,0.068-0.96,0.191c-0.358,0.192-0.802,0.03-1.017-0.314
	C19.984,15.422,19.494,15,18.654,15c-0.5,0-0.886,0.142-1.174,0.321c-0.356,0.222-0.805,0.063-1.01-0.304
	C16.187,14.508,15.654,14,14.654,14c-0.621,0-1.067,0.205-1.378,0.45c-0.252,0.198-0.622,0-0.622-0.321V7.107
	c0-0.996-0.681-1.92-1.664-2.08C9.737,4.824,8.654,5.785,8.654,7v15c-2.552-1.299-3.595-2-5.793-2c-1,0-2.207,0.443-2.207,1.572V22
	l5,3l3.357,2.685C10.075,28.536,11.396,29,12.759,29h6.895c2.209,0,4-1.791,4-4v-2V17.5z"/>
</svg>
