<?xml version="1.0" encoding="utf-8"?>
<!-- Generator: Adobe Illustrator 24.0.1, SVG Export Plug-In . SVG Version: 6.00 Build 0)  -->
<svg version="1.1" id="Layer_1" xmlns="http://www.w3.org/2000/svg" xmlns:xlink="http://www.w3.org/1999/xlink" x="0px" y="0px"
	 viewBox="0 0 24 24" style="enable-background:new 0 0 24 24;" xml:space="preserve">
<style type="text/css">
	.st0{fill:none;stroke:#000000;stroke-width:2;}
</style>
<path class="st0" d="M12,3c-5,0-9,4-9,9s4,9,9,9s9-4,9-9S17,3,12,3z"/>
<g>
	<circle cx="8.5" cy="10.5" r="0.5"/>
	<circle cx="15.5" cy="10.5" r="0.5"/>
	<path d="M12,3c-5,0-9,4-9,9s4,9,9,9s9-4,9-9S17,3,12,3z M6,10.5C6,9.1,7.1,8,8.5,8S11,9.1,11,10.5S9.9,13,8.5,13S6,11.9,6,10.5z
		 M15,17H9v-2h6V17z M15.5,13c-1.4,0-2.5-1.1-2.5-2.5S14.1,8,15.5,8S18,9.1,18,10.5S16.9,13,15.5,13z"/>
</g>
</svg>
