<?xml version="1.0" encoding="utf-8"?>
<!-- Generator: Adobe Illustrator 24.0.1, SVG Export Plug-In . SVG Version: 6.00 Build 0)  -->
<svg version="1.1" id="Layer_1" xmlns="http://www.w3.org/2000/svg" xmlns:xlink="http://www.w3.org/1999/xlink" x="0px" y="0px"
	 viewBox="0 0 24 24" style="enable-background:new 0 0 24 24;" xml:space="preserve">
<style type="text/css">
	.st0{fill:none;stroke:#000000;stroke-width:2;stroke-miterlimit:10;}
	.st1{enable-background:new    ;}
</style>
<rect x="3" y="20" width="16" height="2"/>
<path class="st0" d="M14.2,17H7.8c-0.5,0-0.9-0.3-1-0.8L5,7h12l-1.8,9.2C15.1,16.7,14.7,17,14.2,17z"/>
<path class="st1" d="M14.2,17H7.8c-0.5,0-0.9-0.3-1-0.8L5,7h12l-1.8,9.2C15.1,16.7,14.7,17,14.2,17z"/>
<path class="st0" d="M16.3,9H19c0.7,0,1.1,0.6,1,1.2l-0.5,2c-0.1,0.4-0.5,0.8-1,0.8h-2.2"/>
<line class="st0" x1="9" y1="4" x2="9" y2="1"/>
<line class="st0" x1="13" y1="4" x2="13" y2="2"/>
</svg>
