<?xml version="1.0" encoding="utf-8"?>
<!-- Generator: Adobe Illustrator 24.0.1, SVG Export Plug-In . SVG Version: 6.00 Build 0)  -->
<svg version="1.1" id="Layer_1" xmlns="http://www.w3.org/2000/svg" xmlns:xlink="http://www.w3.org/1999/xlink" x="0px" y="0px"
	 viewBox="0 0 48 48" style="enable-background:new 0 0 48 48;" xml:space="preserve">
<style type="text/css">
	.st0{fill:#CFD8DC;}
	.st1{fill:#ECEFF1;}
	.st2{fill:#B0BEC5;}
	.st3{fill:#90A4AE;}
	.st4{fill:#F44336;}
	.st5{fill:#B71C1C;}
</style>
<path class="st0" d="M5,39V15h38v24c0,2.2-1.8,4-4,4H9C6.8,43,5,41.2,5,39"/>
<path class="st1" d="M5,25h38v8H5V25z"/>
<path class="st2" d="M13,27h4v4h-4V27z M19,27h4v4h-4V27z M31,27h4v4h-4V27z"/>
<path class="st3" d="M13,21h4v4h-4V21z M19,21h4v4h-4V21z M25,21h4v4h-4V21z M31,21h4v4h-4V21z M13,33h4v4h-4V33z M19,33h4v4h-4V33z
	 M25,33h4v4h-4V33z M31,33h4v4h-4V33z"/>
<path class="st4" d="M25,27h4v4h-4V27z M43,11v6H5v-6c0-2.2,1.8-4,4-4h30C41.2,7,43,8.8,43,11"/>
<path class="st5" d="M36,11c0,1.7-1.3,3-3,3s-3-1.3-3-3s1.3-3,3-3C34.7,8,36,9.3,36,11 M18,11c0,1.7-1.3,3-3,3s-3-1.3-3-3s1.3-3,3-3
	S18,9.3,18,11"/>
<path class="st2" d="M33,4c-1.1,0-2,0.9-2,2v5c0,1.1,0.9,2,2,2s2-0.9,2-2V6C35,4.9,34.1,4,33,4 M15,4c-1.1,0-2,0.9-2,2v5
	c0,1.1,0.9,2,2,2s2-0.9,2-2V6C17,4.9,16.1,4,15,4"/>
</svg>
