<?xml version="1.0" encoding="utf-8"?>
<!-- Generator: Adobe Illustrator 23.0.3, SVG Export Plug-In . SVG Version: 6.00 Build 0)  -->
<svg version="1.1" id="Layer_1" xmlns="http://www.w3.org/2000/svg" xmlns:xlink="http://www.w3.org/1999/xlink" x="0px" y="0px"
	 viewBox="0 0 40 40" style="enable-background:new 0 0 40 40;" xml:space="preserve">
<style type="text/css">
	.st0{fill:#F5CE85;stroke:#967A44;stroke-miterlimit:10;}
	.st1{fill:#FFEEA3;}
	.st2{fill:#967A44;}
</style>
<path class="st0" d="M20,35.5c-8.5,0-15.5-7-15.5-15.5S11.5,4.5,20,4.5s15.5,7,15.5,15.5S28.5,35.5,20,35.5z"/>
<g>
	<path class="st1" d="M20,8C13.4,8,8,13.4,8,20s5.4,12,12,12s12-5.4,12-12S26.6,8,20,8z"/>
</g>
<path class="st2" d="M24.9,22.7c0-4.6-7.2-4.2-7.2-6.8c0-0.8,0.7-1.5,2.3-1.5c1.7,0,3,0.5,3.9,1.1v-2.8c-0.7-0.4-1.8-0.6-3.2-0.7v-2
	h-1.7v2c-1.2,0.1-2.2,0.6-3,1.3C15.4,14.1,15,15,15,16.1c0,4.3,7.2,4.4,7.2,6.7c0,0.8-1,1.5-2.2,1.5c-2.9,0-4.6-1-5-1.3v2.9
	c1.2,0.6,2.7,0.9,4.1,0.9V29h0.1h1.5h0.1v-2.3c1.3-0.2,2.3-0.6,3-1.3C24.5,24.8,24.9,23.9,24.9,22.7z"/>
</svg>
