<?xml version="1.0" encoding="utf-8"?>
<!-- Generator: Adobe Illustrator 24.0.1, SVG Export Plug-In . SVG Version: 6.00 Build 0)  -->
<svg version="1.1" id="Layer_1" xmlns="http://www.w3.org/2000/svg" xmlns:xlink="http://www.w3.org/1999/xlink" x="0px" y="0px"
	 viewBox="0 0 48 48" style="enable-background:new 0 0 48 48;" xml:space="preserve">
<style type="text/css">
	.st0{fill:#FFFFFF;}
	.st1{fill:#CFD8DC;}
	.st2{fill:#00ACC1;}
	.st3{fill:#006064;}
	.st4{fill:#90A4AE;}
</style>
<path class="st0" d="M5.9,25c0,0,8.1-11,18-11s18,11,18,11s-8.1,11-18,11S5.9,25,5.9,25z"/>
<path class="st1" d="M23.9,14c9.9,0,18,11,18,11s-8.1,11-18,11s-18-11-18-11S14,14,23.9,14 M23.9,12C13.1,12,4.7,23.4,4.3,23.9
	L3.5,25l0.9,1.2C4.7,26.7,13.1,38,23.9,38c10.8,0,19.3-11.3,19.6-11.8l0.9-1.2l-0.9-1.2C43.2,23.4,34.8,12,23.9,12L23.9,12z"/>
<path class="st2" d="M14.9,25c0-5,4-9,9-9c5,0,9,4,9,9c0,5-4,9-9,9C19,34,14.9,30,14.9,25z"/>
<path class="st3" d="M19.9,25c0-2.2,1.8-4,4-4c2.2,0,4,1.8,4,4c0,2.2-1.8,4-4,4C21.7,29,19.9,27.2,19.9,25z"/>
<path class="st4" d="M6,25c0.5-0.7,8.4-11,18-11c9.6,0,17.4,10.3,18,11l5,0l-1.7-2.3C44.8,22.2,35.8,10,23.9,10S3.1,22.2,2.7,22.7
	L1,25H6z"/>
</svg>
