<?xml version="1.0" encoding="utf-8"?>
<!-- Generator: Adobe Illustrator 24.0.1, SVG Export Plug-In . SVG Version: 6.00 Build 0)  -->
<svg version="1.1" id="Layer_1" xmlns="http://www.w3.org/2000/svg" xmlns:xlink="http://www.w3.org/1999/xlink" x="0px" y="0px"
	 viewBox="0 0 24 24" style="enable-background:new 0 0 24 24;" xml:space="preserve">
<style type="text/css">
	.st0{fill:none;stroke:#000000;stroke-width:2;stroke-miterlimit:10;}
	.st1{enable-background:new    ;}
</style>
<path class="st0" d="M16.6,20H8c-0.6,0-1-0.4-1-1V9.5c0-0.3,0.1-0.6,0.4-0.8l3.9-3.3L12,2c0,0,3,0.1,3,2.9C15,6.6,14,9,14,9h6
	c0.6,0,1,0.4,1,1v2.4c0,0.1,0,0.2-0.1,0.2l-3.4,6.8C17.4,19.8,17,20,16.6,20z"/>
<path class="st1" d="M16.6,20H8c-0.6,0-1-0.4-1-1V9.5c0-0.3,0.1-0.6,0.4-0.8l3.9-3.3L12,2c0,0,3,0.1,3,2.9C15,6.6,14,9,14,9h6
	c0.6,0,1,0.4,1,1v2.4c0,0.1,0,0.2-0.1,0.2l-3.4,6.8C17.4,19.8,17,20,16.6,20z"/>
<line class="st0" x1="3" y1="8" x2="3" y2="21"/>
</svg>
