<?xml version="1.0" encoding="iso-8859-1"?>
<!-- Generator: Adobe Illustrator 23.1.0, SVG Export Plug-In . SVG Version: 6.00 Build 0)  -->
<svg version="1.1" id="Layer_1" xmlns="http://www.w3.org/2000/svg" xmlns:xlink="http://www.w3.org/1999/xlink" x="0px" y="0px"
	 viewBox="0 0 30 30" style="enable-background:new 0 0 30 30;" xml:space="preserve">
<path style="fill:none;stroke:#000000;stroke-width:2;stroke-linecap:round;stroke-linejoin:round;stroke-miterlimit:10;" d="M3,12
	h6v14H4L3,12z"/>
<path d="M26.987,15.5c0.612-0.456,1.013-1.178,1.013-2c0-1.381-1.119-2.5-2.5-2.5h-8.985C16.774,9.838,17,8.588,17,8
	c0-2.291-1.813-6-3.044-6H13c-0.552,0-1,0.448-1,1v4.552L9,13v13h2.648c0.355,0.605,0.99,1,1.706,1H23c1.105,0,2-0.895,2-2
	c0-0.375-0.109-0.721-0.289-1.021C25.992,23.87,27,22.809,27,21.5c0-0.64-0.248-1.218-0.643-1.66C27.314,19.489,28,18.579,28,17.5
	C28,16.678,27.598,15.956,26.987,15.5z"/>
</svg>
