<?xml version="1.0" encoding="utf-8"?>
<!-- Generator: Adobe Illustrator 24.0.1, SVG Export Plug-In . SVG Version: 6.00 Build 0)  -->
<svg version="1.1" id="Layer_1" xmlns="http://www.w3.org/2000/svg" xmlns:xlink="http://www.w3.org/1999/xlink" x="0px" y="0px"
	 viewBox="0 0 24 24" style="enable-background:new 0 0 24 24;" xml:space="preserve">
<path d="M3,12.9C3,12.9,3.1,12.9,3,12.9C3.1,12.9,3,12.9,3,12.9z"/>
<path d="M12,2C6.5,2,2,6.5,2,12c0,5,3.7,9.2,8.6,9.9v-7.5H8.4V12h2.3v-1.6c0-2.6,1.2-3.7,3.4-3.7c1,0,1.5,0.1,1.8,0.1v2h-1.5
	c-0.9,0-1.2,0.9-1.2,1.9V12h2.7l-0.4,2.4h-2.3v7.5c4.9-0.6,8.8-4.8,8.8-9.9C22,6.5,17.5,2,12,2z"/>
</svg>
