<?xml version="1.0" encoding="utf-8"?>
<!-- Generator: Adobe Illustrator 24.0.1, SVG Export Plug-In . SVG Version: 6.00 Build 0)  -->
<svg version="1.1" id="Layer_1" xmlns="http://www.w3.org/2000/svg" xmlns:xlink="http://www.w3.org/1999/xlink" x="0px" y="0px"
	 viewBox="0 0 30 30" style="enable-background:new 0 0 30 30;" xml:space="preserve">
<path d="M22.7,13c-1.7-0.4-2.7-2.2-2.1-3.9c0.5-1.4,0.6-3.1-0.3-4.9C19.2,2.3,17.2,1,15,1s-4.2,1.3-5.3,3.3C8.8,6,8.9,7.7,9.4,9.1
	C9.9,10.8,9,12.6,7.3,13C4.7,13.6,2,15.1,2,19c0,0.5,0.1,1.1,0.2,1.6c0.6,2.2,2.3,3.8,4.6,4.3C7.2,25,7.6,25,8,25
	c2.2,0,3.7-0.9,4.8-2c0.6-0.6,1.4-1,2.2-1c0.8,0,1.6,0.3,2.2,1c1.1,1.1,2.6,2,4.8,2c0.4,0,0.8,0,1.2-0.1c2.3-0.4,4-2.1,4.6-4.3
	c0.1-0.6,0.2-1.1,0.2-1.6C28,15.1,25.3,13.6,22.7,13z M8,21c-1.1,0-2-0.9-2-2s0.9-2,2-2s2,0.9,2,2S9.1,21,8,21z M15,5
	c1.1,0,2,0.9,2,2s-0.9,2-2,2s-2-0.9-2-2S13.9,5,15,5z M15,18c-1.7,0-3-1.3-3-3s1.3-3,3-3s3,1.3,3,3S16.7,18,15,18z M22,21
	c-1.1,0-2-0.9-2-2s0.9-2,2-2s2,0.9,2,2S23.1,21,22,21z"/>
</svg>
