<?xml version="1.0" encoding="utf-8"?>
<!-- Generator: Adobe Illustrator 24.0.1, SVG Export Plug-In . SVG Version: 6.00 Build 0)  -->
<svg version="1.1" id="Layer_1" xmlns="http://www.w3.org/2000/svg" xmlns:xlink="http://www.w3.org/1999/xlink" x="0px" y="0px"
	 viewBox="0 0 24 24" style="enable-background:new 0 0 24 24;" xml:space="preserve">
<path d="M21,14.3c-0.6-0.7-1.4-1.1-2.2-1.3c-0.1,0-0.2,0-0.3-0.1c-2.2-0.6-3.5-3-2.9-5.3c0-0.1,0.1-0.2,0.1-0.3
	c0.3-0.8,0.4-1.6,0.1-2.6c-0.4-1.4-1.5-2.5-2.9-2.8C10.3,1.5,8,3.5,8,6c0,0.6,0.1,1.1,0.3,1.5c0,0.1,0.1,0.1,0.1,0.2
	C9.1,10,7.8,12.4,5.6,13c-0.1,0-0.2,0.1-0.3,0.1c-0.8,0.1-1.6,0.6-2.2,1.3c-1,1.1-1.3,2.6-0.8,4c0.9,2.5,3.8,3.4,5.9,2.1
	c0.6-0.4,1-0.8,1.3-1.4c0-0.1,0.1-0.1,0.1-0.2c1.2-1.5,3.6-1.5,4.8,0c0.1,0.1,0.1,0.1,0.1,0.2c0.3,0.5,0.7,1,1.3,1.4
	c2.1,1.4,5,0.5,5.9-2.1C22.3,17,21.9,15.4,21,14.3z M6,18c-0.6,0-1-0.4-1-1c0-0.6,0.4-1,1-1c0.6,0,1,0.4,1,1C7,17.6,6.5,18,6,18z
	 M12,14c-0.6,0-1-0.4-1-1c0-0.6,0.4-1,1-1c0.6,0,1,0.4,1,1C13,13.6,12.6,14,12,14z M12,7c-0.6,0-1-0.4-1-1c0-0.6,0.4-1,1-1
	c0.6,0,1,0.4,1,1C13,6.6,12.6,7,12,7z M18,18c-0.6,0-1-0.4-1-1c0-0.6,0.4-1,1-1c0.6,0,1,0.4,1,1C19,17.6,18.5,18,18,18z"/>
</svg>
