<?xml version="1.0" encoding="iso-8859-1"?>
<!-- Generator: Adobe Illustrator 24.0.2, SVG Export Plug-In . SVG Version: 6.00 Build 0)  -->
<svg version="1.1" id="Layer_1" xmlns="http://www.w3.org/2000/svg" xmlns:xlink="http://www.w3.org/1999/xlink" x="0px" y="0px"
	 viewBox="0 0 30 30" style="enable-background:new 0 0 30 30;" xml:space="preserve">
<path d="M29,27c-1.103,0-2-0.897-2-2v-2.816c-0.567,0.945-1.234,1.822-2,2.605V25c0,2.206,1.794,4,4,4c0.553,0,1-0.447,1-1
	S29.553,27,29,27z M15,3C8.373,3,3,8.373,3,15s5.373,12,12,12s12-5.373,12-12S21.627,3,15,3z M15,5c1.657,0,3,0.343,3,2
	s-1.343,3-3,3s-3-1.343-3-3S13.343,5,15,5z M6.464,15.381c-1.576-0.512-1.487-1.895-0.975-3.471s1.253-2.747,2.829-2.235
	s2.438,2.204,1.926,3.78C9.733,15.031,8.04,15.893,6.464,15.381z M12.725,23.235c-0.974,1.34-2.262,0.829-3.603-0.145
	s-2.225-2.041-1.251-3.381s2.85-1.638,4.19-0.664C13.401,20.019,13.699,21.895,12.725,23.235z M15,17c-1.105,0-2-0.895-2-2
	s0.895-2,2-2s2,0.895,2,2S16.105,17,15,17z M20.878,23.09c-1.34,0.974-2.629,1.486-3.603,0.145c-0.974-1.34-0.677-3.217,0.664-4.19
	c1.34-0.974,3.217-0.677,4.19,0.664S22.218,22.116,20.878,23.09z M23.536,15.381c-1.576,0.512-3.268-0.35-3.78-1.926
	c-0.512-1.576,0.35-3.268,1.926-3.78s2.317,0.659,2.829,2.235S25.111,14.869,23.536,15.381z"/>
</svg>
