<svg fill="#000000" xmlns="http://www.w3.org/2000/svg" viewBox="0 0 32 32" width="32px" height="32px"><path fill="none" stroke="#000000" stroke-miterlimit="10" stroke-width="2" d="M16 5A11 11 0 1 0 16 27A11 11 0 1 0 16 5Z"/><path fill="none" stroke="#000000" stroke-miterlimit="10" stroke-width="2" d="M32 29h-1c-2.2 0-4-1.8-4-4v-9M16 14A2 2 0 1 0 16 18 2 2 0 1 0 16 14zM16 11c.4 0 .8.1 1.2.1L18 8.2c0 0-1-.2-2-.2s-2 .2-2 .2l.8 2.9C15.2 11.1 15.6 11 16 11zM16 21c-.4 0-.8-.1-1.2-.1L14 23.8c0 0 1 .2 2 .2s2-.2 2-.2l-.8-2.9C16.8 20.9 16.4 21 16 21zM21 16c0 .4-.1.8-.1 1.2l2.9.8c0 0 .2-1 .2-2s-.2-2-.2-2l-2.9.8C20.9 15.2 21 15.6 21 16zM11 16c0-.4.1-.8.1-1.2L8.2 14c0 0-.2 1-.2 2s.2 2 .2 2l2.9-.8C11.1 16.8 11 16.4 11 16z"/></svg>