<?xml version="1.0" encoding="utf-8"?>
<!-- Generator: Adobe Illustrator 24.0.1, SVG Export Plug-In . SVG Version: 6.00 Build 0)  -->
<svg version="1.1" id="Layer_1" xmlns="http://www.w3.org/2000/svg" xmlns:xlink="http://www.w3.org/1999/xlink" x="0px" y="0px"
	 viewBox="0 0 48 48" style="enable-background:new 0 0 48 48;" xml:space="preserve">
<path style="fill:#FFCC80;" d="M33,23H21.9H21V9c0-1.1-1.1-3-3.1-3S15,8,15,9s0,17,0,17s-3.6,2.3-5,4c-1.2,1.4-1.4,3.1,0,5l2.7,3.8
	c2.9,2.9,5.9,5.2,10.1,5.2h6.9c5.1,0,9.4-4.1,9.4-9.2c0,0,0-4.8,0-10.8L33,23z"/>
<path style="fill:#FFCC80;" d="M21,27.1c0,1.6,1.4,2.9,3,2.9c1.7,0,3-1.3,3-2.9V6.9C27,5.3,25.6,4,24,4c-1.6,0-3,1.3-3,2.9V27.1z"/>
<path style="fill:#FFCC80;" d="M33,31.1c0,1.6,1.4,2.9,3,2.9c1.7,0,3-1.3,3-2.9l0-18.2c0-1.6-1.3-2.9-3-2.9s-3,1.3-3,2.9L33,31.1z"
	/>
<path style="fill:#FFCC80;" d="M27,29.1c0,1.6,1.4,2.9,3,2.9s3-1.3,3-2.9V8.9C33,7.3,31.6,6,30,6s-3,1.3-3,2.9V29.1z"/>
<path style="fill:#F2A25A;" d="M15,35v-9c0,0-1.5,1-2.9,2.1L15,35z"/>
<path style="fill:#F2A25A;" d="M21,9C21,9,21,9,21,9v14c0,0.6,0.4,1,1,1s1-0.4,1-1L21,9z"/>
<path style="fill:#F2A25A;" d="M27.1,8.4c0,0.1,0,0.2,0,0.4v0L27,24c0,0.6,0.4,1,1,1s1-0.4,1-1L27.1,8.4z"/>
<path style="fill:#F2A25A;" d="M33,12.6c0,0.1,0,0.2,0,0.4v0v12.6c0,0.6,0.4,1,1,1s1-0.4,1-1L33,12.6z"/>
<path style="fill:#FFEBEE;" d="M15.9,9.1c0-1.2,0.9-2.1,2-2.1c1.1,0,2,1,2,2.1C19.9,10.3,15.9,10.3,15.9,9.1"/>
<path style="fill:#FFEBEE;" d="M22,7.1C22,5.9,22.9,5,24,5c1.1,0,2,1,2,2.1C26,8.3,22,8.3,22,7.1"/>
<path style="fill:#FFEBEE;" d="M28,9.1C28,7.9,28.9,7,30,7c1.1,0,2,1,2,2.1C32,10.3,28,10.3,28,9.1"/>
<path style="fill:#FFEBEE;" d="M34,13.1c0-1.2,0.9-2.1,2-2.1c1.1,0,2,1,2,2.1C38,14.3,34,14.3,34,13.1"/>
</svg>
