<?xml version="1.0" encoding="utf-8"?>
<!-- Generator: Adobe Illustrator 24.0.1, SVG Export Plug-In . SVG Version: 6.00 Build 0)  -->
<svg version="1.1" id="Layer_1" xmlns="http://www.w3.org/2000/svg" xmlns:xlink="http://www.w3.org/1999/xlink" x="0px" y="0px"
	 viewBox="0 0 48 48" style="enable-background:new 0 0 48 48;" xml:space="preserve">
<style type="text/css">
	.st0{fill:#BBDEFB;}
	.st1{fill:#455A64;}
	.st2{fill:#90CAF9;}
</style>
<path class="st0" d="M37,20c-3.5-0.8-1.7-12-12-12s-8.5,11.2-12,12c-6,3.3-6,12-6,12c3,0,5,2,6,3s1,5,5.9,5.9C20,41,21,45,25,45
	s5-4,6.1-4.1C36,40,36,36,37,35s3-3,6-3C43,32,43,23.3,37,20z"/>
<ellipse class="st1" cx="27" cy="18.5" rx="2" ry="2.5"/>
<ellipse class="st1" cx="21" cy="18.5" rx="2" ry="2.5"/>
<g>
	<path class="st2" d="M17.9,40.7c-0.4-0.1-0.8-0.3-1.1-0.5c0.2-2,0.9-8.4,3.8-13.1c-1.9,5.4-1.8,13.8-1.8,13.8
		C18.5,40.9,18.2,40.8,17.9,40.7z M15.8,24.3c-3,6.6-3,10.8-3,10.8c-0.4-0.4-1.1-1-1.9-1.6C11.6,29.2,14.3,26.1,15.8,24.3z M32,40.7
		c0.4-0.1,0.8-0.3,1.1-0.5c-0.2-2-0.9-8.4-3.8-13.1c1.9,5.4,1.8,13.8,1.8,13.8C31.4,40.9,31.7,40.8,32,40.7z M34,24.3
		c3,6.6,3,10.8,3,10.8c0.4-0.4,1.1-1,1.9-1.6C38.3,29.2,35.5,26.1,34,24.3z"/>
</g>
</svg>
