<?xml version="1.0" encoding="iso-8859-1"?>
<!-- Generator: Adobe Illustrator 23.1.0, SVG Export Plug-In . SVG Version: 6.00 Build 0)  -->
<svg version="1.1" xmlns="http://www.w3.org/2000/svg" xmlns:xlink="http://www.w3.org/1999/xlink" x="0px" y="0px"
	 viewBox="0 0 30 30" style="enable-background:new 0 0 30 30;" xml:space="preserve">
<g id="sphere">
	<path style="fill:none;stroke:#000000;stroke-width:2;stroke-miterlimit:10;" d="M15,4C8.925,4,4,8.925,4,15s4.925,11,11,11
		s11-4.925,11-11S21.075,4,15,4z"/>
	<line style="fill:none;stroke:#000000;stroke-width:2;stroke-miterlimit:10;" x1="4.5" y1="11" x2="25.5" y2="11"/>
	<line style="fill:none;stroke:#000000;stroke-width:2;stroke-miterlimit:10;" x1="4.5" y1="19" x2="25.5" y2="19"/>
</g>
<g id="meridian3">
	<path style="fill:none;stroke:#000000;stroke-width:2;stroke-miterlimit:10;" d="M15,26c2.761,0,5-4.925,5-11S17.761,4,15,4"/>
</g>
<g id="meridian2">
	<path style="fill:none;stroke:#000000;stroke-width:2;stroke-miterlimit:10;" d="M15,4c-2.761,0-5,4.925-5,11s2.239,11,5,11"/>
</g>
<g id="meridian1">
	<path style="fill:none;stroke:#000000;stroke-width:2;stroke-miterlimit:10;" d="M15,4C8.925,4,4,8.925,4,15s4.925,11,11,11"/>
</g>
</svg>
