<?xml version="1.0" encoding="utf-8"?>
<!-- Generator: Adobe Illustrator 23.0.3, SVG Export Plug-In . SVG Version: 6.00 Build 0)  -->
<svg version="1.1" id="Layer_1" xmlns="http://www.w3.org/2000/svg" xmlns:xlink="http://www.w3.org/1999/xlink" x="0px" y="0px"
	 viewBox="0 0 40 40" style="enable-background:new 0 0 40 40;" xml:space="preserve">
<style type="text/css">
	.st0{fill:#F78F8F;stroke:#C74343;stroke-miterlimit:10;}
	.st1{fill:#FFFFFF;}
</style>
<path class="st0" d="M20,38.5C9.8,38.5,1.5,30.2,1.5,20S9.8,1.5,20,1.5S38.5,9.8,38.5,20S30.2,38.5,20,38.5z"/>
<path class="st1" d="M20,5C11.7,5,5,11.7,5,20s6.7,15,15,15s15-6.7,15-15S28.3,5,20,5z M20,31c-6.1,0-11-4.9-11-11S13.9,9,20,9
	s11,4.9,11,11S26.1,31,20,31z M20,13c-3.9,0-7,3.1-7,7s3.1,7,7,7s7-3.1,7-7S23.9,13,20,13z M20,23c-1.7,0-3-1.3-3-3s1.3-3,3-3
	s3,1.3,3,3S21.7,23,20,23z"/>
</svg>
