<?xml version="1.0" encoding="utf-8"?>
<!-- Generator: Adobe Illustrator 24.0.1, SVG Export Plug-In . SVG Version: 6.00 Build 0)  -->
<svg version="1.1" id="Layer_1" xmlns="http://www.w3.org/2000/svg" xmlns:xlink="http://www.w3.org/1999/xlink" x="0px" y="0px"
	 viewBox="0 0 32 32" style="enable-background:new 0 0 32 32;" xml:space="preserve">
<style type="text/css">
	.st0{fill:none;stroke:#000000;stroke-width:2;stroke-miterlimit:10;}
</style>
<path class="st0" d="M15,10.9l9.4-2.9c1.1-0.3,2.2,0.3,2.5,1.3l0,0c0.3,1.1-0.3,2.2-1.3,2.5L18.7,14 M14.4,22.1L14.4,22.1
	c0.4-1,1.6-1.5,2.6-1.1l2.8,1.1c1,0.4,1.5,1.6,1.1,2.6l0,0c-0.4,1-1.6,1.5-2.6,1.1l-2.8-1.1C14.4,24.3,13.9,23.2,14.4,22.1z
	 M15.8,17c0.5-0.2,1.1-0.3,1.6-0.1l3.7,1.5c1,0.4,1.5,1.6,1.1,2.6l0,0c-0.4,1-1.6,1.5-2.6,1.1l-3.7-1.5c-0.5-0.2-0.9-0.6-1.1-1.1"/>
<path class="st0" d="M18.8,14H27c1.1,0,2,0.9,2,2l0,0c0,1.1-0.9,2-2,2h-6.8"/>
<path id="Group_4" class="st0" d="M9.1,14.2l1.6-0.9l1.3,4.9c0.4,1.2,1.3,1.7,2.4,1.5c1.1-0.3,1.7-1.3,1.5-2.4L15,10.8
	c0,0-0.2-2.3-2.9-2.8c-0.9-0.2-2,0-2.4,0.2L7.2,9C4.7,9.8,3,12.1,3,14.7V20c0,3.3,2.7,6,6,6h9.9"/>
</svg>
