<?xml version="1.0" encoding="utf-8"?>
<!-- Generator: Adobe Illustrator 24.0.1, SVG Export Plug-In . SVG Version: 6.00 Build 0)  -->
<svg version="1.1" id="Layer_1" xmlns="http://www.w3.org/2000/svg" xmlns:xlink="http://www.w3.org/1999/xlink" x="0px" y="0px"
	 viewBox="0 0 32 32" style="enable-background:new 0 0 32 32;" xml:space="preserve">
<style type="text/css">
	.st0{fill:none;stroke:#000000;stroke-width:2;stroke-miterlimit:10;}
</style>
<path class="st0" d="M13.2,22.9l-0.9-1.6l4.9-1.3c1.2-0.4,1.7-1.3,1.5-2.4s-1.3-1.7-2.4-1.5L9.8,17c0,0-2.3,0.2-2.8,2.9
	c-0.2,0.9,0,2,0.2,2.4L8,24.8c0.8,2.5,3.1,4.2,5.7,4.2H19c3.3,0,6-2.7,6-6v-9.9"/>
<path class="st0" d="M9.9,17L7.1,7.6C6.8,6.5,7.4,5.4,8.4,5.1l0,0c1.1-0.3,2.2,0.3,2.5,1.3l2.1,6.8 M21.1,17.6L21.1,17.6
	c-1-0.4-1.5-1.6-1.1-2.6l1.1-2.8c0.4-1,1.6-1.5,2.6-1.1l0,0c1,0.4,1.5,1.6,1.1,2.6l-1.1,2.8C23.3,17.6,22.2,18.1,21.1,17.6z
	 M16,16.2c-0.2-0.5-0.3-1.1-0.1-1.6l1.5-3.7c0.4-1,1.6-1.5,2.6-1.1l0,0c1,0.4,1.5,1.6,1.1,2.6l-1.5,3.7c-0.2,0.5-0.6,0.9-1.1,1.1"/>
<path class="st0" d="M13,13.2V5c0-1.1,0.9-2,2-2l0,0c1.1,0,2,0.9,2,2v6.8"/>
</svg>
