<?xml version="1.0" encoding="utf-8"?>
<!-- Generator: Adobe Illustrator 23.0.3, SVG Export Plug-In . SVG Version: 6.00 Build 0)  -->
<svg version="1.1" id="Layer_1" xmlns="http://www.w3.org/2000/svg" xmlns:xlink="http://www.w3.org/1999/xlink" x="0px" y="0px"
	 viewBox="0 0 24 24" style="enable-background:new 0 0 24 24;" xml:space="preserve">
<path d="M21.6,12.4L21.6,12.4c-0.6-0.6-1.4-0.6-2,0L15,17h-4c-0.3,0-0.5-0.2-0.5-0.5S10.7,16,11,16h2c1.1,0,2-0.9,2-2v-1H8.7
	c-1.1,0-2.1,0.4-2.8,1.2L2,18l4,4l2-2h7.2c0.5,0,1-0.2,1.4-0.6l5-5C22.1,13.9,22.1,13,21.6,12.4z"/>
</svg>
