<?xml version="1.0" encoding="utf-8"?>
<!-- Generator: Adobe Illustrator 24.0.1, SVG Export Plug-In . SVG Version: 6.00 Build 0)  -->
<svg version="1.1" id="Layer_1" xmlns="http://www.w3.org/2000/svg" xmlns:xlink="http://www.w3.org/1999/xlink" x="0px" y="0px"
	 viewBox="0 0 24 24" style="enable-background:new 0 0 24 24;" xml:space="preserve">
<style type="text/css">
	.st0{enable-background:new    ;}
</style>
<path class="st0" d="M15.1,16.5c-0.2,0.2-0.3,0.3-0.5,0.4c-0.9,0.8-1.7,1.6-2.6,2.3c-0.8-0.7-1.7-1.5-2.6-2.3
	c-0.1-0.1-0.3-0.3-0.5-0.4c-1.3-1.4-5.5-5.1-5.5-8.3c0-2.1,1.7-3.8,3.8-3.8c2,0,3.2,1.4,3.2,1.4L12,7.6l1.7-1.9c0,0,1.2-1.4,3.2-1.4
	c2.1,0,3.8,1.7,3.8,3.8C20.7,11.4,16.6,15.1,15.1,16.5z"/>
<path d="M16.5,3C13.6,3,12,5.1,12,5.1S10.4,3,7.5,3C4.5,3,2,5.5,2,8.5c0,4.2,4.9,8.2,6.3,9.5c1.6,1.5,3.7,3.4,3.7,3.4
	s2.1-1.9,3.7-3.4c1.4-1.3,6.3-5.3,6.3-9.5C22,5.5,19.5,3,16.5,3z M14.8,16.1c-0.2,0.2-2,1.8-2.8,2.4c-0.8-0.7-2.6-2.2-2.8-2.4
	C7.8,14.8,4,11.4,4,8.5C4,6.6,5.6,5,7.5,5c1.8,0,2.9,1.3,2.9,1.3L12,8l1.6-1.7c0,0,1.1-1.3,2.9-1.3C18.4,5,20,6.6,20,8.5
	C20,11.4,16.2,14.8,14.8,16.1z"/>
</svg>
