<?xml version="1.0" encoding="utf-8"?>
<!-- Generator: Adobe Illustrator 23.0.3, SVG Export Plug-In . SVG Version: 6.00 Build 0)  -->
<svg version="1.1" id="Layer_1_copy" xmlns="http://www.w3.org/2000/svg" xmlns:xlink="http://www.w3.org/1999/xlink" x="0px"
	 y="0px" viewBox="0 0 40 40" style="enable-background:new 0 0 40 40;" xml:space="preserve">
<style type="text/css">
	.st0{fill:#DBF2FF;}
	.st1{fill:#B5DDF5;}
	.st2{fill:#7496C4;}
	.st3{fill:#F78F8F;}
	.st4{fill:#C74343;}
	.st5{fill:#FFC49C;}
	.st6{fill:#A16A4A;}
</style>
<path class="st0" d="M3.5,38.5V13.3L20,3.6l16.5,9.7v25.2H3.5z"/>
<path class="st1" d="M4,34h32.3v4H4V34z"/>
<path class="st2" d="M20,4.2l16,9.4V38H4V13.6L20,4.2 M20,3L3,13v26h34V13L20,3L20,3z"/>
<path class="st3" d="M20,4.6L1.5,16v-3.1L20,1.6l18.5,11.3V16L20,4.6z"/>
<path class="st4" d="M20,2.2l18,11v1.9L20.5,4.4L20,4.1l-0.5,0.3L2,15.1v-1.9L20,2.2 M20,1L1,12.6v4.2L20,5.2l19,11.6v-4.2L20,1
	L20,1z"/>
<path class="st5" d="M14.5,21.5h11v17h-11V21.5z"/>
<path class="st6" d="M25,22v16H15V22H25 M26,21H14v18h12V21L26,21z"/>
<path class="st6" d="M23,30c-0.6,0-1,0.4-1,1s0.4,1,1,1s1-0.4,1-1S23.6,30,23,30z"/>
</svg>
