<?xml version="1.0" encoding="utf-8"?>
<!-- Generator: Adobe Illustrator 24.0.1, SVG Export Plug-In . SVG Version: 6.00 Build 0)  -->
<svg version="1.1" id="Layer_1" xmlns="http://www.w3.org/2000/svg" xmlns:xlink="http://www.w3.org/1999/xlink" x="0px" y="0px"
	 viewBox="0 0 48 48" style="enable-background:new 0 0 48 48;" xml:space="preserve">
<style type="text/css">
	.st0{fill:#BBDEFB;}
	.st1{fill:#FF9800;}
	.st2{fill:#FFFFFF;}
	.st3{fill:#6D4C41;}
	.st4{fill:#8D6E63;}
</style>
<path class="st0" d="M26.4,24C29,21.4,33,17.1,33,13.8c0-5-4-7.9-9-7.9s-9,2.9-9,7.9c0,3.3,4,7.7,6.6,10.3C19,26.6,15,30.9,15,34.3
	c0,5,4,7.9,9,7.9s9-2.9,9-7.9C33,30.9,29,26.6,26.4,24z"/>
<path class="st1" d="M24,40.1c2.7,0,5.8-1.1,6.7-4c-0.9-2.5-4-5.6-6.7-8.1c-2.7,2.5-5.8,5.6-6.7,8.1C18.2,39,21.3,40.1,24,40.1z"/>
<path class="st2" d="M22.2,9.9C22.2,9.9,22.2,10,22.2,9.9c-2.4,2.2-3,6.4-0.2,10.1c-2.7-2.2-5.3-6.9-2.3-11.7
	c0.1-0.1,0.1-0.1,0.1-0.1L22.2,9.9z"/>
<path class="st3" d="M33,43c0,0.6-0.4,1-1,1H16c-0.6,0-1-0.4-1-1v-4c0-0.6,0.4-1,1-1h16c0.6,0,1,0.4,1,1V43z M33,5c0-0.6-0.4-1-1-1
	H16c-0.6,0-1,0.4-1,1v4c0,0.6,0.4,1,1,1h16c0.6,0,1-0.4,1-1V5z"/>
<path class="st4" d="M36,43c0,0.6-0.4,1-1,1H13c-0.6,0-1-0.4-1-1v-1c0-0.6,0.4-1,1-1h22c0.6,0,1,0.4,1,1V43z M36,5c0-0.6-0.4-1-1-1
	H13c-0.6,0-1,0.4-1,1v1c0,0.6,0.4,1,1,1h22c0.6,0,1-0.4,1-1V5z"/>
</svg>
