<?xml version="1.0" encoding="utf-8"?>
<!-- Generator: Adobe Illustrator 24.0.1, SVG Export Plug-In . SVG Version: 6.00 Build 0)  -->
<svg version="1.1" id="Layer_1" xmlns="http://www.w3.org/2000/svg" xmlns:xlink="http://www.w3.org/1999/xlink" x="0px" y="0px"
	 viewBox="0 0 24 24" style="enable-background:new 0 0 24 24;" xml:space="preserve">
<path d="M6,2H3C2.4,2,2,2.4,2,3v3c0,0.6,0.4,1,1,1h3c0.6,0,1-0.4,1-1V3C7,2.4,6.6,2,6,2z M5,5H4V4h1V5z"/>
<path d="M6,9H3c-0.6,0-1,0.4-1,1v3c0,0.6,0.4,1,1,1h3c0.6,0,1-0.4,1-1v-3C7,9.4,6.6,9,6,9z M5,12H4v-1h1V12z"/>
<path d="M6,16H3c-0.6,0-1,0.4-1,1v3c0,0.6,0.4,1,1,1h3c0.6,0,1-0.4,1-1v-3C7,16.4,6.6,16,6,16z M5,19H4v-1h1V19z"/>
<path d="M13,2h-3C9.4,2,9,2.4,9,3v3c0,0.6,0.4,1,1,1h3c0.6,0,1-0.4,1-1V3C14,2.4,13.6,2,13,2z M12,5h-1V4h1V5z"/>
<path d="M13,9h-3c-0.6,0-1,0.4-1,1v3c0,0.6,0.4,1,1,1h3c0.6,0,1-0.4,1-1v-3C14,9.4,13.6,9,13,9z M12,12h-1v-1h1V12z"/>
<path d="M13,16h-3c-0.6,0-1,0.4-1,1v3c0,0.6,0.4,1,1,1h3c0.6,0,1-0.4,1-1v-3C14,16.4,13.6,16,13,16z M12,19h-1v-1h1V19z"/>
<path d="M20,2h-3c-0.6,0-1,0.4-1,1v3c0,0.6,0.4,1,1,1h3c0.6,0,1-0.4,1-1V3C21,2.4,20.6,2,20,2z M19,5h-1V4h1V5z"/>
<path d="M20,9h-3c-0.6,0-1,0.4-1,1v3c0,0.6,0.4,1,1,1h3c0.6,0,1-0.4,1-1v-3C21,9.4,20.6,9,20,9z M19,12h-1v-1h1V12z"/>
<path d="M20,16h-3c-0.6,0-1,0.4-1,1v3c0,0.6,0.4,1,1,1h3c0.6,0,1-0.4,1-1v-3C21,16.4,20.6,16,20,16z M19,19h-1v-1h1V19z"/>
</svg>
