<?xml version="1.0" encoding="utf-8"?>
<!-- Generator: Adobe Illustrator 23.0.3, SVG Export Plug-In . SVG Version: 6.00 Build 0)  -->
<svg version="1.1" id="Layer_1" xmlns="http://www.w3.org/2000/svg" xmlns:xlink="http://www.w3.org/1999/xlink" x="0px" y="0px"
	 viewBox="0 0 40 40" style="enable-background:new 0 0 40 40;" xml:space="preserve">
<style type="text/css">
	.st0{fill:#FFEEA3;}
	.st1{fill:#C29653;}
	.st2{fill:#F78F8F;stroke:#C74343;stroke-miterlimit:10;}
	.st3{fill:none;stroke:#C29653;}
</style>
<path class="st0" d="M20,38.5c-10.1,0-18.2-7.9-18.5-18c-0.1-4.9,1.7-9.6,5.1-13.2s8-5.6,12.9-5.8c0.2,0,0.3,0,0.5,0
	c10.1,0,18.2,7.9,18.5,18c0.1,4.9-1.7,9.6-5.1,13.2s-8,5.6-12.9,5.8C20.3,38.5,20.2,38.5,20,38.5z"/>
<path class="st1" d="M20,1v1l0,0c9.8,0,17.7,7.7,18,17.5c0.1,4.8-1.6,9.4-4.9,12.9s-7.8,5.5-12.6,5.6c-0.2,0-0.3,0-0.5,0
	c-9.8,0-17.7-7.7-18-17.5c-0.1-4.8,1.6-9.4,4.9-12.9S14.7,2.1,19.5,2c0.2,0,0.3,0,0.5,0L20,1 M20,1c-0.2,0-0.3,0-0.5,0
	C9,1.3,0.7,10,1,20.5C1.3,30.8,9.7,39,20,39c0.2,0,0.3,0,0.5,0C31,38.7,39.3,30,39,19.5C38.7,9.2,30.3,1,20,1L20,1z"/>
<path class="st2" d="M27.5,21.4c-1.6-1.3-5-4.3-5-6.4c0-1.4,1.1-2.5,2.5-2.5c0.8,0,1.6,0.4,2.1,1.1l0.4,0.6l0.4-0.6
	c0.5-0.7,1.2-1.1,2.1-1.1c1.4,0,2.5,1.1,2.5,2.5C32.5,17.1,29.1,20.1,27.5,21.4z"/>
<path class="st2" d="M12.5,21.4c-1.6-1.3-5-4.3-5-6.4c0-1.4,1.1-2.5,2.5-2.5c0.8,0,1.6,0.4,2.1,1.1l0.4,0.6l0.4-0.6
	c0.5-0.7,1.2-1.1,2.1-1.1c1.4,0,2.5,1.1,2.5,2.5C17.5,17.1,14.1,20.1,12.5,21.4z"/>
<path class="st3" d="M30.2,26.4c0,0-3.4,4.1-10.2,4.1S9.8,26.4,9.8,26.4"/>
</svg>
