<?xml version="1.0" encoding="utf-8"?>
<!-- Generator: Adobe Illustrator 24.0.1, SVG Export Plug-In . SVG Version: 6.00 Build 0)  -->
<svg version="1.1" id="Layer_1" xmlns="http://www.w3.org/2000/svg" xmlns:xlink="http://www.w3.org/1999/xlink" x="0px" y="0px"
	 viewBox="0 0 24 24" style="enable-background:new 0 0 24 24;" xml:space="preserve">
<style type="text/css">
	.st0{enable-background:new    ;}
</style>
<path d="M12,2C6.5,2,2,6.5,2,12s4.5,10,10,10s10-4.5,10-10S17.5,2,12,2z M12,20c-4.4,0-8-3.6-8-8s3.6-8,8-8s8,3.6,8,8S16.4,20,12,20
	z"/>
<path class="st0" d="M12,3c-5,0-9,4-9,9s4,9,9,9s9-4,9-9S17,3,12,3z M7,8c0.9,0,1.5,0.5,1.5,0.5S9,8,10,8c0.6,0,1,0.4,1,1
	c0,0.8-1.2,1.9-1.7,2.3c0,0-0.7,0.5-0.9,0.7c-0.2-0.2-0.7-0.5-0.9-0.7C7.2,10.9,6,9.8,6,9C6,8.5,6.4,8,7,8z M12,17.5
	c-2.3,0-4.3-1.5-5.1-3.5h10.2C16.3,16,14.3,17.5,12,17.5z M16.3,11.3c0,0-0.7,0.5-0.9,0.7c-0.2-0.2-0.7-0.5-0.9-0.7
	C14.2,10.9,13,9.8,13,9c0-0.5,0.4-1,1-1c0.9,0,1.5,0.5,1.5,0.5S16,8,17,8c0.6,0,1,0.4,1,1C18,9.8,16.8,10.9,16.3,11.3z"/>
</svg>
