<?xml version="1.0" encoding="utf-8"?>
<!-- Generator: Adobe Illustrator 24.0.1, SVG Export Plug-In . SVG Version: 6.00 Build 0)  -->
<svg version="1.1" id="Layer_1" xmlns="http://www.w3.org/2000/svg" xmlns:xlink="http://www.w3.org/1999/xlink" x="0px" y="0px"
	 viewBox="0 0 48 48" style="enable-background:new 0 0 48 48;" xml:space="preserve">
<style type="text/css">
	.st0{fill:#43A047;}
	.st1{fill:#DCEDC8;}
	.st2{fill:#C5E1A5;}
	.st3{fill:#AED581;}
	.st4{fill:#9CCC65;}
	.st5{fill:#8BC34A;}
</style>
<g>
	<g>
		<polygon class="st0" points="21.9,32 14,24.1 16.9,21.3 21.9,26.3 31.1,17.1 34,20 		"/>
	</g>
</g>
<g>
	<path class="st1" d="M18.6,8.9l-1.3-3.8c-1.4,0.5-2.7,1.2-4,2l2.2,3.4C16.4,9.9,17.5,9.3,18.6,8.9z"/>
</g>
<g>
	<path class="st2" d="M12.6,12.7L9.8,9.9c-1,1.1-2,2.2-2.8,3.5l3.4,2.1C11.1,14.5,11.8,13.6,12.6,12.7z"/>
</g>
<g>
	<path class="st3" d="M8.9,18.7l-3.8-1.3c-0.5,1.4-0.8,2.9-1,4.3l4,0.4C8.2,21,8.5,19.9,8.9,18.7z"/>
</g>
<g>
	<path class="st4" d="M8.1,25.8l-4,0.5c0.2,1.5,0.5,2.9,1,4.4l3.8-1.3C8.5,28.2,8.2,27,8.1,25.8z"/>
</g>
<g>
	<path class="st5" d="M10.4,32.5L7,34.6c0.8,1.3,1.7,2.4,2.8,3.5l2.8-2.8C11.8,34.4,11.1,33.5,10.4,32.5z"/>
</g>
<g>
	<path class="st5" d="M15.4,37.5l-2.2,3.4c1.3,0.8,2.6,1.5,4,2l1.3-3.8C17.5,38.7,16.4,38.1,15.4,37.5z"/>
</g>
<g>
	<path class="st5" d="M24,44c-0.8,0-1.6,0-2.3-0.1l0.5-4C22.7,40,23.4,40,24,40c8.8,0,16-7.2,16-16S32.8,8,24,8
		c-0.6,0-1.3,0-1.9,0.1l-0.5-4C22.4,4,23.2,4,24,4c11,0,20,9,20,20C44,35,35,44,24,44z"/>
</g>
</svg>
