<svg xmlns="http://www.w3.org/2000/svg" viewBox="0 0 48 48" width="48px" height="48px"><path fill="#2196f3" d="M32,23l-8-8l8-8V23z"/><path fill="#2196f3" d="M42,17H30v-4h12V17z"/><path fill="#009688" d="M6.995,8.853l0.038,3.744c0.135,13.188,17.049,28.249,28.365,28.365L39.143,41	c1.034,0.01,1.863-0.819,1.853-1.853l-0.077-7.488c-0.011-1.034-0.857-1.88-1.891-1.891L30.871,29.6l-4.01,4.706	c-2.642-0.027-13.145-10.531-13.172-13.172l4.706-4.284l-0.168-7.882c-0.011-1.034-0.857-1.88-1.891-1.891L8.848,7	C7.814,6.99,6.985,7.819,6.995,8.853z"/></svg>