<?xml version="1.0" encoding="iso-8859-1"?>
<!-- Generator: Adobe Illustrator 23.1.0, SVG Export Plug-In . SVG Version: 6.00 Build 0)  -->
<svg version="1.1" id="arrow" xmlns="http://www.w3.org/2000/svg" xmlns:xlink="http://www.w3.org/1999/xlink" x="0px" y="0px"
	 viewBox="0 0 30 30" style="enable-background:new 0 0 30 30;" xml:space="preserve">
<g>
	<path d="M18,21.362C17.212,23.605,16.073,25,15,25c-1.277,0-2.655-1.961-3.414-5H18v-2h-6.798C11.073,17.061,11,16.056,11,15
		c0-1.055,0.073-2.061,0.202-3h7.597C18.927,12.939,19,13.944,19,15c0,0.279-0.018,0.544-0.028,0.815
		c0.164-0.166,0.339-0.309,0.52-0.414c0.293-0.177,0.826-0.393,1.507-0.377C20.999,15.016,21,15.008,21,15
		c0-1.046-0.067-2.045-0.181-3h3.72C24.838,12.947,25,13.955,25,15c0,0.695-0.078,1.371-0.214,2.026l1.749,1.247
		C26.831,17.231,27,16.136,27,15c0-6.617-5.383-12-12-12C8.383,3,3,8.383,3,15s5.383,12,12,12c1.038,0,2.039-0.146,3-0.395V21.362z
		 M23.647,10h-3.159c-0.356-1.638-0.885-3.061-1.549-4.189C20.923,6.665,22.571,8.146,23.647,10z M15,5c1.278,0,2.655,1.961,3.414,5
		h-6.828C12.345,6.961,13.723,5,15,5z M11.062,5.811C10.398,6.939,9.868,8.362,9.512,10H6.353C7.429,8.146,9.077,6.664,11.062,5.811
		z M5,15c0-1.045,0.162-2.052,0.461-3h3.72C9.067,12.954,9,13.954,9,15c0,1.046,0.066,2.046,0.181,3H5.462
		C5.163,17.053,5,16.045,5,15z M6.345,20h3.169c0.357,1.635,0.884,3.062,1.548,4.189C9.076,23.335,7.422,21.855,6.345,20z"/>
	<polygon points="20.729,17.056 20.73,17.058 20.73,17.058 	"/>
</g>
<path d="M28.538,22.179l0.003-0.019l-6.866-4.896l-0.004,0.002c-0.493-0.333-0.872-0.279-1.118-0.161
	C20.305,17.224,20.006,17.546,20,18v9c0,0.552,0.448,1,1,1c0.288,0,0.543-0.125,0.725-0.32l0.005,0.002l1.881-2.223l1.994,3.989
	C25.781,29.798,26.134,30,26.501,30c0.15,0,0.303-0.034,0.446-0.105c0.494-0.247,0.694-0.848,0.447-1.342l-2.034-4.068l2.915-0.523
	l0.003-0.018C28.692,23.822,29,23.454,29,23C29,22.651,28.81,22.358,28.538,22.179z"/>
</svg>
