<?xml version="1.0" encoding="iso-8859-1"?>
<!-- Generator: Adobe Illustrator 23.1.0, SVG Export Plug-In . SVG Version: 6.00 Build 0)  -->
<svg version="1.1" id="Layer_1" xmlns="http://www.w3.org/2000/svg" xmlns:xlink="http://www.w3.org/1999/xlink" x="0px" y="0px"
	 viewBox="0 0 30 30" style="enable-background:new 0 0 30 30;" xml:space="preserve">
<path style="opacity:0.44;" d="M26,16h-4c-0.553,0-1-0.448-1-1s0.447-1,1-1h4c0.553,0,1,0.448,1,1S26.553,16,26,16z"/>
<path d="M8,16H4c-0.552,0-1-0.448-1-1s0.448-1,1-1h4c0.552,0,1,0.448,1,1S8.552,16,8,16z"/>
<path d="M15,27c-0.552,0-1-0.447-1-1v-4c0-0.553,0.448-1,1-1s1,0.447,1,1v4C16,26.553,15.552,27,15,27z"/>
<path style="opacity:0.22;" d="M21.063,12.5c-0.346,0-0.682-0.179-0.867-0.5c-0.276-0.479-0.112-1.09,0.366-1.366l3.465-2
	c0.477-0.277,1.09-0.112,1.366,0.366s0.112,1.09-0.366,1.366l-3.465,2C21.404,12.457,21.232,12.5,21.063,12.5z"/>
<path d="M5.475,21.5c-0.346,0-0.682-0.179-0.867-0.5c-0.276-0.479-0.112-1.09,0.366-1.366l3.464-2
	C8.915,17.357,9.527,17.521,9.804,18c0.276,0.479,0.112,1.09-0.366,1.366l-3.464,2C5.817,21.457,5.645,21.5,5.475,21.5z"/>
<path style="opacity:0.89;" d="M20.501,25.526c-0.346,0-0.682-0.18-0.867-0.5l-2-3.465c-0.276-0.479-0.112-1.09,0.366-1.366
	c0.477-0.277,1.089-0.112,1.366,0.366l2,3.465c0.276,0.479,0.112,1.09-0.366,1.366C20.843,25.483,20.671,25.526,20.501,25.526z"/>
<path d="M11.501,9.938c-0.346,0-0.682-0.179-0.867-0.5l-2-3.464C8.358,5.496,8.521,4.884,9,4.608
	c0.478-0.277,1.09-0.112,1.366,0.366l2,3.464c0.276,0.478,0.112,1.09-0.366,1.366C11.843,9.895,11.67,9.938,11.501,9.938z"/>
<path d="M9.499,25.526c-0.169,0-0.341-0.043-0.499-0.134c-0.478-0.276-0.642-0.888-0.366-1.366l2-3.465
	c0.276-0.478,0.887-0.644,1.366-0.366c0.478,0.276,0.642,0.888,0.366,1.366l-2,3.465C10.181,25.347,9.845,25.526,9.499,25.526z"/>
<path style="opacity:0.67;" d="M24.525,21.5c-0.17,0-0.342-0.043-0.499-0.134l-3.465-2c-0.479-0.276-0.643-0.888-0.366-1.366
	s0.889-0.642,1.366-0.366l3.465,2c0.479,0.276,0.643,0.888,0.366,1.366C25.207,21.32,24.871,21.5,24.525,21.5z"/>
<path d="M8.937,12.5c-0.169,0-0.342-0.043-0.499-0.134l-3.464-2C4.496,10.09,4.332,9.478,4.608,9
	c0.277-0.478,0.887-0.643,1.366-0.366l3.464,2C9.917,10.91,10.08,11.522,9.804,12C9.619,12.321,9.283,12.5,8.937,12.5z"/>
</svg>
