<?xml version="1.0" encoding="iso-8859-1"?>
<!-- Generator: Adobe Illustrator 24.1.2, SVG Export Plug-In . SVG Version: 6.00 Build 0)  -->
<svg version="1.1" xmlns="http://www.w3.org/2000/svg" xmlns:xlink="http://www.w3.org/1999/xlink" x="0px" y="0px"
	 viewBox="0 0 32 32" style="enable-background:new 0 0 32 32;" xml:space="preserve">
<g id="Layer_1">
	<path d="M16,29C8.832,29,3,23.168,3,16S8.832,3,16,3s13,5.832,13,13S23.168,29,16,29z M16,5C9.935,5,5,9.935,5,16s4.935,11,11,11
		s11-4.935,11-11S22.065,5,16,5z"/>
</g>
<g id="Layer_2">
	<path d="M9,19c0,0,1.605,5,7,5s7-5,7-5H9z"/>
	<path style="fill:none;stroke:#000000;stroke-width:2;stroke-miterlimit:10;" d="M8,14c0,0,1.271-1,3-1c1.716,0,3,1,3,1"/>
	<path style="fill:none;stroke:#000000;stroke-width:2;stroke-miterlimit:10;" d="M18,14c0,0,1.271-1,3-1c1.716,0,3,1,3,1"/>
</g>
</svg>
