<?xml version="1.0" encoding="utf-8"?>
<!-- Generator: Adobe Illustrator 24.0.1, SVG Export Plug-In . SVG Version: 6.00 Build 0)  -->
<svg version="1.1" id="Layer_1" xmlns="http://www.w3.org/2000/svg" xmlns:xlink="http://www.w3.org/1999/xlink" x="0px" y="0px"
	 viewBox="0 0 48 48" style="enable-background:new 0 0 48 48;" xml:space="preserve">
<path style="fill:#FFCA28;" d="M44,24c0,11-9,20-20,20S4,35,4,24S13,4,24,4S44,13,44,24z"/>
<path style="fill:none;stroke:#B76C09;stroke-width:2;" d="M13,21c0,0,1.5-2,4-2s4,2,4,2"/>
<path style="fill:none;stroke:#B76C09;stroke-width:2;" d="M27,21c0,0,1.5-2,4-2s4,2,4,2"/>
<path style="fill:#5D4037;" d="M33,27c0,6.6-4,12-9,12s-9-5.4-9-12H33z"/>
<path style="fill:#C62828;" d="M24,32c-5,0-7,1.7-7.3,2c1.6,3,4.3,5,7.3,5c3,0,5.7-2,7.3-5C31.2,33.9,29.2,32,24,32z"/>
</svg>
