<?xml version="1.0" encoding="utf-8"?>
<!-- Generator: Adobe Illustrator 24.0.1, SVG Export Plug-In . SVG Version: 6.00 Build 0)  -->
<svg version="1.1" id="Layer_1" xmlns="http://www.w3.org/2000/svg" xmlns:xlink="http://www.w3.org/1999/xlink" x="0px" y="0px"
	 viewBox="0 0 48 48" style="enable-background:new 0 0 48 48;" xml:space="preserve">
<style type="text/css">
	.st0{fill:#FFCDD2;}
	.st1{fill:#FF3D00;}
	.st2{fill:#FFEB3B;}
	.st3{fill:#D1C4E9;}
	.st4{fill:#7E57C2;}
	.st5{fill:#311B92;}
</style>
<path class="st0" d="M27,35c-2.8,0-5,2.2-5,5s2.2,5,5,5s5-2.2,5-5S29.8,35,27,35z"/>
<circle class="st0" cx="32.5" cy="39.5" r="3.5"/>
<circle class="st0" cx="21" cy="40" r="5"/>
<path class="st0" d="M15.5,36c-1.9,0-3.5,1.6-3.5,3.5s1.6,3.5,3.5,3.5s3.5-1.6,3.5-3.5S17.4,36,15.5,36z"/>
<path class="st1" d="M20,35c0-2.2,1.8-4,4-4s4,1.8,4,4s-4,7-4,7S20,37.2,20,35z"/>
<path class="st2" d="M22,35c0-1.1,0.9-2,2-2s2,0.9,2,2s-2,3-2,3S22,36.1,22,35z"/>
<path class="st3" d="M18,13c0,3,0,19,0,19h12c0,0,0-16,0-19c0-1.6-1.7-4.5-3.2-7h-5.5C19.7,8.5,18,11.4,18,13z"/>
<polygon class="st4" points="35,32 30,30 30,18 35,25 "/>
<polygon class="st4" points="13,32 18,30 18,18 13,25 "/>
<path class="st4" d="M21.2,6h5.5C25.3,3.8,24,2,24,2S22.7,3.8,21.2,6z"/>
<polygon class="st4" points="30,32 28,34 20,34 18,32 "/>
<circle class="st5" cx="24" cy="14" r="2"/>
<circle class="st5" cx="24" cy="20" r="2"/>
<circle class="st5" cx="24" cy="26" r="2"/>
</svg>
