<?xml version="1.0" encoding="utf-8"?>
<!-- Generator: Adobe Illustrator 24.0.1, SVG Export Plug-In . SVG Version: 6.00 Build 0)  -->
<svg version="1.1" id="Layer_1" xmlns="http://www.w3.org/2000/svg" xmlns:xlink="http://www.w3.org/1999/xlink" x="0px" y="0px"
	 viewBox="0 0 48 48" style="enable-background:new 0 0 48 48;" xml:space="preserve">
<style type="text/css">
	.st0{fill:#607D8B;}
	.st1{fill:#FF9800;}
	.st2{fill:#FFB74D;}
	.st3{fill:#424242;}
	.st4{fill:#2196F3;}
</style>
<path class="st0" d="M32,31c0,0-2.2-4-8-4s-8,4-8,4v2h16V31z"/>
<path class="st1" d="M26,24h-4v3c0,0-0.1,2,2,2s2-2,2-2V24z"/>
<path class="st2" d="M24,26c-2.8,0-5-2.2-5-5s2.2-5,5-5s5,2.2,5,5S26.8,26,24,26"/>
<path class="st3" d="M23.8,14c-2.4,0.2-4.8,1.9-4.8,5.6V21l1,1v-3l6.3-2.2L28,19v3l1-1v-1.2c0-2.4-0.1-4.2-3-4.8l-0.5-1
	C25.5,14,23.8,14,23.8,14z"/>
<path class="st4" d="M24,4c-10.7,0-19.4,8.4-20,19h3c0.5-8.9,7.9-16,17-16c7,0,13,4.2,15.6,10.2l2.8-1.2C39.3,9,32.2,4,24,4z"/>
<path class="st4" d="M5.5,27l4.5-5H1L5.5,27z M24,44c10.7,0,19.4-8.4,20-19h-3c-0.5,8.9-7.9,16-17,16c-7,0-13-4.2-15.6-10.2L5.7,32
	C8.7,39,15.8,44,24,44z"/>
<path class="st4" d="M42.5,21L38,26h9L42.5,21z"/>
</svg>
