<?xml version="1.0" encoding="utf-8"?>
<!-- Generator: Adobe Illustrator 24.0.1, SVG Export Plug-In . SVG Version: 6.00 Build 0)  -->
<svg version="1.1" id="Layer_1" xmlns="http://www.w3.org/2000/svg" xmlns:xlink="http://www.w3.org/1999/xlink" x="0px" y="0px"
	 viewBox="0 0 48 48" style="enable-background:new 0 0 48 48;" xml:space="preserve">
<style type="text/css">
	.st0{fill:#BF360C;}
	.st1{fill:#607D8B;}
	.st2{fill:#FF9800;}
	.st3{fill:#2196F3;}
	.st4{fill:#FFB74D;}
	.st5{fill:#FF5722;}
</style>
<path class="st0" d="M20,18h8v9.9h-8V18z"/>
<path class="st1" d="M32,31c0,0-2.2-4-8-4s-8,4-8,4v2h16V31z"/>
<path class="st2" d="M26,24h-4v3c0,0-0.1,2,2,2s2-2,2-2V24z"/>
<path class="st3" d="M24,4c-10.7,0-19.4,8.4-20,19h3c0.5-8.9,7.9-16,17-16c7,0,13,4.2,15.6,10.2l2.8-1.2C39.3,9,32.2,4,24,4z"/>
<path class="st3" d="M5.5,27l4.5-5H1L5.5,27z M24,44c10.7,0,19.4-8.4,20-19h-3c-0.5,8.9-7.9,16-17,16c-7,0-13-4.2-15.6-10.2L5.7,32
	C8.7,39,15.8,44,24,44z"/>
<path class="st3" d="M42.5,21L38,26h9L42.5,21z"/>
<path class="st4" d="M29,16.7c0-4.1-10-2.7-10,0V21c0,2.7,2.3,5,5,5s5-2.3,5-5C29,21,29,16.7,29,16.7z"/>
<path class="st5" d="M24,13c-3.2,0-8,1.4-8,12l4,3v-9l6-2l2,2v9l4-4c0-2.1-0.5-10-6-10l-1-1H24z"/>
<path class="st4" d="M24,30c-1.7,0-2-2.9-2-2.9s1.1,0.9,2,0.9s2-0.9,2-0.9S25.7,30,24,30"/>
</svg>
