<?xml version="1.0" encoding="utf-8"?>
<!-- Generator: Adobe Illustrator 23.0.3, SVG Export Plug-In . SVG Version: 6.00 Build 0)  -->
<svg version="1.1" id="Layer_1" xmlns="http://www.w3.org/2000/svg" xmlns:xlink="http://www.w3.org/1999/xlink" x="0px" y="0px"
	 viewBox="0 0 40 40" style="enable-background:new 0 0 40 40;" xml:space="preserve">
<style type="text/css">
	.st0{fill:#FFEEA3;}
	.st1{fill:#BA9B48;}
	.st2{fill:#FFFFFF;}
	.st3{fill:#2D3540;}
	.st4{fill:#DCD5F2;}
	.st5{fill:#8B75A1;}
	.st6{fill:none;stroke:#8B75A1;}
</style>
<path class="st0" d="M14.5,29.8V28c0-1.9-1.2-3.8-2.5-5.9c-1.6-2.6-3.5-5.5-3.5-9.1C8.5,6.7,13.7,1.5,20,1.5S31.5,6.7,31.5,13
	c0,3.6-1.8,6.5-3.5,9.1c-1.4,2.1-2.5,4-2.5,5.9v1.8H14.5z"/>
<path class="st1" d="M20,2c6.1,0,11,4.9,11,11c0,3.5-1.8,6.3-3.4,8.8C26.3,23.9,25,25.9,25,28v1.3h-5h-5V28c0-2.1-1.3-4.1-2.6-6.2
	C10.8,19.3,9,16.5,9,13C9,6.9,13.9,2,20,2 M20,1C13.4,1,8,6.4,8,13c0,6.7,6,11,6,15v2.3h6h6V28c0-4,6-8.3,6-15C32,6.4,26.6,1,20,1
	L20,1z"/>
<path class="st2" d="M22.7,11.3c0.5,0,1,0.2,1.3,0.6c0.7,0.7,0.7,1.9,0,2.7l-1.8,1.8L22,16.6V17v12h-4V17v-0.4l-0.3-0.3L16,14.5
	c-0.7-0.7-0.7-1.9,0-2.7c0.4-0.4,0.8-0.6,1.3-0.6s1,0.2,1.3,0.6l0.7,0.7l0.7,0.7l0.7-0.7l0.7-0.7C21.7,11.5,22.2,11.3,22.7,11.3
	 M22.7,10.3c-0.7,0-1.5,0.3-2,0.8L20,11.9l-0.7-0.7c-0.6-0.6-1.3-0.8-2-0.8s-1.5,0.3-2,0.8c-1.1,1.1-1.1,2.9,0,4.1L17,17v13h6V17
	l1.8-1.8c1.1-1.1,1.1-2.9,0-4.1C24.2,10.6,23.5,10.3,22.7,10.3L22.7,10.3z"/>
<path class="st3" d="M20,32c-1.9,0-3.5,1.6-3.5,3.5S18.1,39,20,39s3.5-1.6,3.5-3.5S21.9,32,20,32z"/>
<path class="st4" d="M17,36.5c-1.4,0-2.5-1.1-2.5-2.5v-5.5h11V34c0,1.4-1.1,2.5-2.5,2.5H17z"/>
<path class="st5" d="M25,29v5c0,1.1-0.9,2-2,2h-6c-1.1,0-2-0.9-2-2v-5H25 M26,28H14v6c0,1.7,1.3,3,3,3h6c1.7,0,3-1.3,3-3V28L26,28z"
	/>
<line class="st6" x1="14.7" y1="34.5" x2="17" y2="34.5"/>
<line class="st6" x1="14.7" y1="32.5" x2="17" y2="32.5"/>
<line class="st6" x1="14.7" y1="30.5" x2="17" y2="30.5"/>
<line class="st6" x1="19" y1="30.5" x2="25.4" y2="30.5"/>
<line class="st6" x1="19" y1="32.5" x2="25.4" y2="32.5"/>
<line class="st6" x1="19" y1="34.5" x2="25.4" y2="34.5"/>
</svg>
