<?xml version="1.0" encoding="utf-8"?>
<!-- Generator: Adobe Illustrator 23.0.3, SVG Export Plug-In . SVG Version: 6.00 Build 0)  -->
<svg version="1.1" id="Layer_1" xmlns="http://www.w3.org/2000/svg" xmlns:xlink="http://www.w3.org/1999/xlink" x="0px" y="0px"
	 viewBox="0 0 40 40" style="enable-background:new 0 0 40 40;" xml:space="preserve">
<style type="text/css">
	.st0{fill:#B0C1D4;}
	.st1{fill:#788B9C;}
	.st2{fill:#E1EBF2;}
</style>
<path class="st0" d="M7,27.5c-3.6,0-6.5-2.9-6.5-6.5c0-2.5,1.5-4.8,3.7-5.9L4.5,15l0-0.3c0.2-3.5,3-6.2,6.5-6.2c0.3,0,0.6,0,1,0.1
	l0.5,0.1l0.1-0.5C13,4.4,16.2,1.5,20,1.5c2.7,0,5.2,1.5,6.5,3.8l0.2,0.3l0.3,0c0.3,0,0.6-0.1,1-0.1c4.1,0,7.5,3.4,7.5,7.5v0.3
	l0.2,0.2c2.3,1.3,3.8,3.8,3.8,6.5c0,4.1-3.4,7.5-7.5,7.5H7z"/>
<path class="st1" d="M20,2c2.5,0,4.9,1.4,6.1,3.6l0.3,0.6l0.7-0.1C27.4,6,27.7,6,28,6c3.9,0,7,3.1,7,7l0,0.1v0l0,0.6l0.5,0.3
	c2.2,1.3,3.5,3.6,3.5,6.1c0,3.9-3.1,7-7,7H7c-3.3,0-6-2.7-6-6c0-2.3,1.4-4.4,3.4-5.4L5,15.3l0-0.6C5.2,11.5,7.8,9,11,9
	c0.3,0,0.6,0,0.9,0.1l1,0.2l0.1-1C13.5,4.7,16.4,2,20,2 M20,1c-4.1,0-7.5,3.1-7.9,7.1C11.7,8,11.4,8,11,8c-3.8,0-6.8,3-7,6.7
	c-2.4,1.1-4,3.5-4,6.3c0,3.9,3.1,7,7,7h25c4.4,0,8-3.6,8-8c0-3-1.6-5.5-4-6.9c0,0,0-0.1,0-0.1c0-4.4-3.6-8-8-8c-0.4,0-0.7,0-1,0.1
	C25.6,2.6,23,1,20,1L20,1z"/>
<path class="st2" d="M32,26l-1,0H7c-2.8,0-5-2.2-5-5c0,0,0,0,0,0H1c0,0,0,0,0,0c0,3.3,2.7,6,6,6h24l1,0c3.9,0,7-3.1,7-7h-1
	C38,23.3,35.3,26,32,26z"/>
</svg>
