<?xml version="1.0" encoding="utf-8"?>
<!-- Generator: Adobe Illustrator 24.0.1, SVG Export Plug-In . SVG Version: 6.00 Build 0)  -->
<svg version="1.1" id="Layer_1" xmlns="http://www.w3.org/2000/svg" xmlns:xlink="http://www.w3.org/1999/xlink" x="0px" y="0px"
	 viewBox="0 0 48 48" style="enable-background:new 0 0 48 48;" xml:space="preserve">
<g>
	<path style="fill:#BBDEFB;" d="M29.5,6C24.8,6,21,9.8,21,14.5s3.8,8.5,8.5,8.5s8.5-3.8,8.5-8.5S34.2,6,29.5,6z"/>
	<path style="fill:#BBDEFB;" d="M37,15.9c-3.9,0-7,3.1-7,7s3.1,7,7,7s7-3.1,7-7S40.9,15.9,37,15.9z M11,16c-3.9,0-7,3.1-7,7
		s3.1,7,7,7s7-3.1,7-7S14.9,16,11,16z"/>
	<path style="fill:#BBDEFB;" d="M17.5,9c-3.6,0-6.5,2.9-6.5,6.5s2.9,6.5,6.5,6.5s6.5-2.9,6.5-6.5S21.1,9,17.5,9z"/>
	<path style="fill:#BBDEFB;" d="M25,13.9c-3.9,0-7,3.1-7,7s3.1,7,7,7s7-3.1,7-7S28.9,13.9,25,13.9z"/>
	<path style="fill:#BBDEFB;" d="M7,26c0,2.2,1.8,4,4,4h25c2.2,0,4-1.8,4-4v-1c0-2.2-1.8-4-4-4H11c-2.2,0-4,1.8-4,4V26z"/>
</g>
<g>
	<path style="fill:#2196F3;" d="M23,33h2v9h-2V33z"/>
	<path style="fill:#2196F3;" d="M19.6,36.1l1-1.7l7.8,4.6l-1,1.7L19.6,36.1z"/>
	<path style="fill:#2196F3;" d="M20.6,40.6l-1-1.7l7.8-4.4l1,1.7L20.6,40.6z"/>
</g>
</svg>
