<?xml version="1.0" encoding="utf-8"?>
<!-- Generator: Adobe Illustrator 24.0.1, SVG Export Plug-In . SVG Version: 6.00 Build 0)  -->
<svg version="1.1" id="Layer_1" xmlns="http://www.w3.org/2000/svg" xmlns:xlink="http://www.w3.org/1999/xlink" x="0px" y="0px"
	 viewBox="0 0 24 24" style="enable-background:new 0 0 24 24;" xml:space="preserve">
<style type="text/css">
	.st0{enable-background:new    ;}
</style>
<path class="st0" d="M19,3H5C3.9,3,3,3.9,3,5v14c0,1.1,0.9,2,2,2h14c1.1,0,2-0.9,2-2V5C21,3.9,20.1,3,19,3z M9,17H6.5v-7H9V17z
	 M7.7,8.7c-0.8,0-1.3-0.5-1.3-1.2s0.5-1.2,1.4-1.2c0.8,0,1.3,0.5,1.3,1.2S8.6,8.7,7.7,8.7z M18,17h-2.4v-3.8c0-1.1-0.7-1.3-0.9-1.3
	s-1.1,0.2-1.1,1.3c0,0.2,0,3.8,0,3.8h-2.5v-7h2.5v1c0.3-0.6,1-1,2.2-1s2.2,1,2.2,3.2V17z"/>
</svg>
