<?xml version="1.0" encoding="utf-8"?>
<!-- Generator: Adobe Illustrator 24.0.1, SVG Export Plug-In . SVG Version: 6.00 Build 0)  -->
<svg version="1.1" id="Layer_1" xmlns="http://www.w3.org/2000/svg" xmlns:xlink="http://www.w3.org/1999/xlink" x="0px" y="0px"
	 viewBox="0 0 24 24" style="enable-background:new 0 0 24 24;" xml:space="preserve">
<style type="text/css">
	.st0{enable-background:new    ;}
	.st1{fill:none;stroke:#000000;stroke-width:2;stroke-miterlimit:10;}
</style>
<path class="st0" d="M18,9H6c-0.6,0-1,0.4-1,1v10c0,0.6,0.4,1,1,1h12c0.6,0,1-0.4,1-1V10C19,9.4,18.6,9,18,9z M12,17
	c-1.1,0-2-0.9-2-2s0.9-2,2-2s2,0.9,2,2S13.1,17,12,17z"/>
<path class="st1" d="M17,9c0,0,0-1.6,0-2c0-2.8-2.2-5-5-5S7,4.2,7,7c0,0.4,0,2,0,2"/>
<path class="st1" d="M18,21H6c-0.6,0-1-0.4-1-1V10c0-0.6,0.4-1,1-1h12c0.6,0,1,0.4,1,1v10C19,20.6,18.6,21,18,21z"/>
</svg>
