<?xml version="1.0" encoding="utf-8"?>
<!-- Generator: Adobe Illustrator 24.0.1, SVG Export Plug-In . SVG Version: 6.00 Build 0)  -->
<svg version="1.1" id="Layer_1" xmlns="http://www.w3.org/2000/svg" xmlns:xlink="http://www.w3.org/1999/xlink" x="0px" y="0px"
	 viewBox="0 0 48 48" style="enable-background:new 0 0 48 48;" xml:space="preserve">
<style type="text/css">
	.st0{fill:#EDE7F6;}
	.st1{fill:#673AB7;}
	.st2{fill:#311B92;}
	.st3{fill:#FFA726;}
	.st4{fill:#FF9800;}
	.st5{fill:#FFB74D;}
	.st6{fill:#424242;}
	.st7{fill:#784719;}
</style>
<path class="st0" d="M24,4C13,4,4,13,4,24s9,20,20,20s20-9,20-20S35,4,24,4z"/>
<path class="st1" d="M24,44c4.5,0,8.6-1.5,11.9-4c0,0,0,0,0,0c-0.6-7.6-8.2-9-8.2-9L24,31.8L20.3,31c0,0-7.6,1.4-8.2,9c0,0,0,0,0,0
	C15.4,42.5,19.5,44,24,44z"/>
<path class="st2" d="M18,31.8c0.5,3,3,5.2,6.1,5.2c3.1,0,5.5-2.3,5.9-5.2c-0.9-0.4-1.6-0.6-2-0.7c0,2.2-1.8,3.8-4,3.8
	c-2.2,0-4-1.8-4-3.8C19.6,31.2,18.9,31.4,18,31.8z"/>
<path class="st3" d="M32,22.5c0,0.8-0.7,1.5-1.5,1.5S29,23.3,29,22.5s0.7-1.5,1.5-1.5S32,21.7,32,22.5 M19,22.5
	c0-0.8-0.7-1.5-1.5-1.5S16,21.7,16,22.5s0.7,1.5,1.5,1.5S19,23.3,19,22.5"/>
<path class="st4" d="M24,35c-4,0-4-4-4-4v-4h8v4C28,31,28,35,24,35z"/>
<path class="st5" d="M31,18.7c0-5.9-14-3.8-14,0v4.4c0,3.8,3.1,6.9,7,6.9s7-3.1,7-6.9V18.7z"/>
<path class="st6" d="M24,11c-4.9,0-8,4.3-8,8.2V21l2,2v-4l9.2-3l2.8,3v4l2-2v-0.8c0-3.2-0.8-6.8-4.8-7.6L26.4,11H24z"/>
<path class="st7" d="M26,22c0-0.6,0.4-1,1-1s1,0.4,1,1s-0.4,1-1,1S26,22.6,26,22 M20,22c0,0.6,0.4,1,1,1s1-0.4,1-1s-0.4-1-1-1
	S20,21.4,20,22"/>
</svg>
