<?xml version="1.0" encoding="iso-8859-1"?>
<!-- Generator: Adobe Illustrator 24.0.2, SVG Export Plug-In . SVG Version: 6.00 Build 0)  -->
<svg version="1.1" id="Layer_1" xmlns="http://www.w3.org/2000/svg" xmlns:xlink="http://www.w3.org/1999/xlink" x="0px" y="0px"
	 viewBox="0 0 30 30" style="enable-background:new 0 0 30 30;" xml:space="preserve">
<path d="M20,14h-2.307l8-12H28L20,14z M14.307,14H12l8-12h2.307L14.307,14z"/>
<path d="M10,14h2.307l-8-12H2L10,14z"/>
<path d="M15,11c-4.418,0-8,3.582-8,8s3.582,8,8,8s8-3.582,8-8S19.418,11,15,11z M17.708,22.178h-5.356v-1.196l2.227-2.095
	c1.035-0.957,1.299-1.313,1.299-1.729c0-0.518-0.381-0.864-0.962-0.864c-0.605,0-1.025,0.41-1.025,0.991v0.034H12.25V17.29
	c0-1.401,1.094-2.349,2.729-2.349c1.577,0,2.632,0.845,2.632,2.09c0,0.781-0.459,1.475-1.709,2.588l-1.162,1.069v0.093h2.969v1.397
	H17.708z M14,8l-4-6H7.693l5.154,7.73L14,8z"/>
</svg>
