<?xml version="1.0" encoding="utf-8"?>
<!-- Generator: Adobe Illustrator 24.0.1, SVG Export Plug-In . SVG Version: 6.00 Build 0)  -->
<svg version="1.1" id="Layer_1" xmlns="http://www.w3.org/2000/svg" xmlns:xlink="http://www.w3.org/1999/xlink" x="0px" y="0px"
	 viewBox="0 0 48 48" style="enable-background:new 0 0 48 48;" xml:space="preserve">
<path style="fill:#FFCC80;" d="M34,24l0-1H22v0c0-1.1-1.1-3-3.1-3S16,22,16,23s0,3,0,3s-3.6,2.3-5,4c-1.2,1.4-1.4,3.1,0,5l2.7,3.8
	c2.9,2.9,5.9,5.2,10.1,5.2h6.9c5.1,0,9.4-4.1,9.4-9.2c0,0,0-4.8,0-10.8H34z"/>
<path style="fill:#FFCC80;" d="M22,30.1c0,1.6,1.4,2.9,3,2.9c1.7,0,3-1.3,3-2.9V6.9C28,5.3,26.6,4,25,4c-1.6,0-3,1.3-3,2.9V30.1z"/>
<path style="fill:#FFCC80;" d="M28,30.1c0,1.6,1.4,2.9,3,2.9c1.7,0,3-1.3,3-2.9v-7.2c0-1.6-1.3-2.9-3-2.9c-1.6,0-3,1.3-3,2.9
	L28,30.1z"/>
<path style="fill:#FFCC80;" d="M34,30.1c0,1.6,1.3,2.9,3,2.9s3-1.3,3-2.9l0-6.2c0-1.6-1.3-2.9-3-2.9c-1.6,0-3,1.3-3,2.9L34,30.1z"/>
<path style="fill:#F2A25A;" d="M16,35v-9c0,0-1.5,1-2.9,2.1L16,35z"/>
<path style="fill:#FFEBEE;" d="M23,7.1C23,5.9,23.9,5,25,5c1.1,0,2,1,2,2.1C27,8.3,23,8.3,23,7.1"/>
</svg>
