<?xml version="1.0" encoding="utf-8"?>
<!-- Generator: Adobe Illustrator 24.0.1, SVG Export Plug-In . SVG Version: 6.00 Build 0)  -->
<svg version="1.1" id="Layer_1" xmlns="http://www.w3.org/2000/svg" xmlns:xlink="http://www.w3.org/1999/xlink" x="0px" y="0px"
	 viewBox="0 0 48 48" style="enable-background:new 0 0 48 48;" xml:space="preserve">
<style type="text/css">
	.st0{fill:#FF7043;}
	.st1{fill:#FF8A65;}
	.st2{fill:#FF9E80;}
	.st3{fill:#FFCCBC;}
	.st4{fill:#FBE9E7;}
</style>
<path class="st0" d="M39,17H3v15c0,0,0.4,0,1.2,0c4.6,0,21.6,0.6,34.8,9V17L39,17z"/>
<path class="st0" d="M5,30c5.4,0.1,19.7,0.9,32,7.5V19H5V30z"/>
<path class="st1" d="M31,36.9c2.7,1.1,5.4,2.4,8,4.1V20h-8V36.9z"/>
<path class="st2" d="M42,11H3v19c0,0,0.9,0,2.4,0c6.4,0,24.2,0.4,36.6,5V11L42,11z"/>
<path class="st3" d="M34,32.7c2.8,0.6,5.5,1.4,8,2.3V14h-8V32.7z"/>
<path class="st3" d="M45,7H3v21h42V7L45,7z"/>
<path class="st3" d="M5,9h38v17H5V9z"/>
<path class="st4" d="M37,7h8v21h-8V7z"/>
<ellipse class="st2" cx="14" cy="17.5" rx="5" ry="6.5"/>
<path class="st2" d="M28.6,19.1h-7.7c-0.3,2-1.2,3.7-2.4,4.9h10.2c1.3,0,2.3-1,2.2-2.3v-0.3C30.9,20.1,29.9,19.1,28.6,19.1z"/>
</svg>
