<?xml version="1.0" encoding="utf-8"?>
<!-- Generator: Adobe Illustrator 24.0.1, SVG Export Plug-In . SVG Version: 6.00 Build 0)  -->
<svg version="1.1" id="Layer_1" xmlns="http://www.w3.org/2000/svg" xmlns:xlink="http://www.w3.org/1999/xlink" x="0px" y="0px"
	 viewBox="0 0 24 24" style="enable-background:new 0 0 24 24;" xml:space="preserve">
<style type="text/css">
	.st0{enable-background:new    ;}
</style>
<path d="M13,4v2h2h1v14H8V6h1h2V4H13 M15,2H9v2H8C6.9,4,6,4.9,6,6v14c0,1.1,0.9,2,2,2h8c1.1,0,2-0.9,2-2V6c0-1.1-0.9-2-2-2h-1V2
	L15,2z"/>
<path class="st0" d="M13.2,3.4v2.1h2.4h1.2v15H7.2v-15h1.2h2.4V3.4H13.2"/>
</svg>
