<?xml version="1.0" encoding="utf-8"?>
<!-- Generator: Adobe Illustrator 24.0.1, SVG Export Plug-In . SVG Version: 6.00 Build 0)  -->
<svg version="1.1" id="Layer_1" xmlns="http://www.w3.org/2000/svg" xmlns:xlink="http://www.w3.org/1999/xlink" x="0px" y="0px"
	 viewBox="0 0 24 24" style="enable-background:new 0 0 24 24;" xml:space="preserve">
<style type="text/css">
	.st0{fill:none;stroke:#000000;stroke-width:2;stroke-miterlimit:10;}
	.st1{enable-background:new    ;}
</style>
<path class="st0" d="M16,18H3c-0.6,0-1-0.4-1-1V7c0-0.6,0.4-1,1-1h13c0.6,0,1,0.4,1,1v10C17,17.6,16.6,18,16,18z M17,12l5-4v8L17,12
	"/>
<path class="st1" d="M16,18H3c-0.6,0-1-0.4-1-1V7c0-0.6,0.4-1,1-1h13c0.6,0,1,0.4,1,1v10C17,17.6,16.6,18,16,18z M17,12l5-4v8L17,12
	"/>
</svg>
