<?xml version="1.0" encoding="utf-8"?>
<!-- Generator: Adobe Illustrator 23.0.3, SVG Export Plug-In . SVG Version: 6.00 Build 0)  -->
<svg version="1.1" id="Layer_1" xmlns="http://www.w3.org/2000/svg" xmlns:xlink="http://www.w3.org/1999/xlink" x="0px" y="0px"
	 viewBox="0 0 40 40" style="enable-background:new 0 0 40 40;" xml:space="preserve">
<style type="text/css">
	.st0{fill:#BAE0BD;}
	.st1{fill:#5E9C76;}
</style>
<path class="st0" d="M30.5,23.6v-7.1l8-4.6v16.3L30.5,23.6z"/>
<path class="st1" d="M38,12.7v14.6l-7-4v-6.6L38,12.7 M39,11l-9,5.1v7.7l9,5.1V11L39,11z"/>
<path class="st0" d="M7,31.5c-3,0-5.5-2.5-5.5-5.5V14C1.5,11,4,8.5,7,8.5h18c3,0,5.5,2.5,5.5,5.5v12c0,3-2.5,5.5-5.5,5.5H7z"/>
<path class="st1" d="M25,9c2.8,0,5,2.2,5,5v12c0,2.8-2.2,5-5,5H7c-2.8,0-5-2.2-5-5V14c0-2.8,2.2-5,5-5H25 M25,8H7c-3.3,0-6,2.7-6,6
	v12c0,3.3,2.7,6,6,6h18c3.3,0,6-2.7,6-6V14C31,10.7,28.3,8,25,8L25,8z"/>
</svg>
