<?xml version="1.0" encoding="utf-8"?>
<!-- Generator: Adobe Illustrator 24.0.1, SVG Export Plug-In . SVG Version: 6.00 Build 0)  -->
<svg version="1.1" id="Layer_1" xmlns="http://www.w3.org/2000/svg" xmlns:xlink="http://www.w3.org/1999/xlink" x="0px" y="0px"
	 viewBox="0 0 48 48" style="enable-background:new 0 0 48 48;" xml:space="preserve">
<style type="text/css">
	.st0{fill:#7CB342;}
	.st1{fill:#33691E;}
	.st2{fill:#FFA726;}
</style>
<path class="st0" d="M39,12c-2.2,0-4,1.8-4,4s1.8,4,4,4s4-1.8,4-4S41.2,12,39,12z M39,28c-2.2,0-4,1.8-4,4s1.8,4,4,4s4-1.8,4-4
	S41.2,28,39,28z M9,12c-2.2,0-4,1.8-4,4s1.8,4,4,4s4-1.8,4-4S11.2,12,9,12z M9,28c-2.2,0-4,1.8-4,4s1.8,4,4,4s4-1.8,4-4
	S11.2,28,9,28z M24,36c-2.2,0-4,1.8-4,4s1.8,4,4,4s4-1.8,4-4S26.2,36,24,36z M24,4c-2.2,0-4,1.8-4,4s1.8,4,4,4s4-1.8,4-4
	S26.2,4,24,4z"/>
<path class="st1" d="M31.5,30.4c0,0-2.1-4.3-7.5-4.3s-7.5,4.3-7.5,4.3v2.1h15V30.4z"/>
<path class="st2" d="M24,15.4c-2.4,0-4.3,1.9-4.3,4.3S21.6,24,24,24s4.3-1.9,4.3-4.3S26.4,15.4,24,15.4z"/>
</svg>
