<?xml version="1.0" encoding="utf-8"?>
<!-- Generator: Adobe Illustrator 23.0.3, SVG Export Plug-In . SVG Version: 6.00 Build 0)  -->
<svg version="1.1" id="Layer_1" xmlns="http://www.w3.org/2000/svg" xmlns:xlink="http://www.w3.org/1999/xlink" x="0px" y="0px"
	 viewBox="0 0 24 24" style="enable-background:new 0 0 24 24;" xml:space="preserve">
<path d="M12,10c-1.1,0-2,0.9-2,2s0.9,2,2,2s2-0.9,2-2S13.1,10,12,10z M20,12c0,2.8-1.5,5.3-3.7,6.8l1.1,1.7c2.8-1.8,4.7-4.9,4.7-8.4
	s-1.9-6.7-4.7-8.4l-1.1,1.7C18.5,6.7,20,9.2,20,12z M4,12c0-2.8,1.5-5.3,3.7-6.8L6.7,3.6C3.9,5.3,2,8.4,2,12s1.9,6.7,4.7,8.4
	l1.1-1.7C5.5,17.3,4,14.8,4,12z"/>
<path d="M8,12c0-1.4,0.7-2.7,1.9-3.4L8.8,6.9C7.1,8,6,9.9,6,12s1.1,4,2.8,5.1l1.1-1.7C8.7,14.7,8,13.4,8,12z M16,12
	c0,1.4-0.7,2.7-1.9,3.4l1.1,1.7C16.9,16,18,14.1,18,12s-1.1-4-2.8-5.1l-1.1,1.7C15.3,9.3,16,10.6,16,12z"/>
</svg>
