<?xml version="1.0" encoding="utf-8"?>
<!-- Generator: Adobe Illustrator 23.0.3, SVG Export Plug-In . SVG Version: 6.00 Build 0)  -->
<svg version="1.1" id="Layer_1" xmlns="http://www.w3.org/2000/svg" xmlns:xlink="http://www.w3.org/1999/xlink" x="0px" y="0px"
	 viewBox="0 0 40 40" style="enable-background:new 0 0 40 40;" xml:space="preserve">
<style type="text/css">
	.st0{fill:#8DA0B5;}
	.st1{fill:#66798F;}
	.st2{fill:#B0C1D4;}
	.st3{fill:#BAE0BD;}
	.st4{fill:#5E9C76;}
</style>
<path class="st0" d="M18.6,7C18.2,6.6,18,6.1,18,5.6c0-0.6,0.2-1.1,0.6-1.5s0.9-0.6,1.5-0.6c0.6,0,1.1,0.2,1.5,0.6l13.3,13.3
	l-2.9,2.9L18.6,7z"/>
<path class="st1" d="M20.1,4c0.4,0,0.8,0.2,1.1,0.5l12.9,12.9l-2.2,2.2L19,6.7c-0.3-0.3-0.5-0.7-0.5-1.1c0-0.4,0.2-0.8,0.5-1.1
	C19.3,4.2,19.6,4,20.1,4 M20.1,3c-0.7,0-1.3,0.3-1.8,0.8c-1,1-1,2.6,0,3.6L31.9,21l3.6-3.6L21.9,3.8C21.4,3.3,20.7,3,20.1,3L20.1,3z
	"/>
<path class="st2" d="M5.2,17.4L18.5,4.1c0.4-0.4,0.9-0.6,1.5-0.6c0.6,0,1.1,0.2,1.5,0.6S22,5,22,5.6c0,0.6-0.2,1.1-0.6,1.5L8.1,20.3
	L5.2,17.4z"/>
<path class="st1" d="M19.9,4c0.4,0,0.8,0.2,1.1,0.5s0.5,0.7,0.5,1.1c0,0.4-0.2,0.8-0.5,1.1L8.1,19.6l-2.2-2.2L18.8,4.5
	C19.1,4.2,19.5,4,19.9,4 M19.9,3c-0.7,0-1.3,0.3-1.8,0.8L4.5,17.4L8.1,21L21.7,7.4c1-1,1-2.6,0-3.6C21.2,3.3,20.6,3,19.9,3L19.9,3z"
	/>
<path class="st3" d="M7.5,36.5l-3.9-18h32.8l-3.9,18H7.5z"/>
<path class="st4" d="M35.8,19l-3.6,17H7.9L4.2,19H35.8 M37,18H3l4.1,19h25.9L37,18L37,18z"/>
<path class="st3" d="M2.5,15.5h35v4h-35V15.5z"/>
<path class="st4" d="M37,16v3H3v-3H37 M38,15H2v5h36V15L38,15z"/>
</svg>
