<?xml version="1.0" encoding="iso-8859-1"?>
<!-- Generator: Adobe Illustrator 24.0.2, SVG Export Plug-In . SVG Version: 6.00 Build 0)  -->
<svg version="1.1" xmlns="http://www.w3.org/2000/svg" xmlns:xlink="http://www.w3.org/1999/xlink" x="0px" y="0px"
	 viewBox="0 0 30 30" style="enable-background:new 0 0 30 30;" xml:space="preserve">
<g id="palm">
	<path d="M23.5,7C22.672,7,22,7.672,22,8.5V13h-1V5.5C21,4.672,20.328,4,19.5,4S18,4.672,18,5.5V13h-1V3.5C17,2.672,16.328,2,15.5,2
		S14,2.672,14,3.5V13h-1V5.5C13,4.672,12.328,4,11.5,4S10,4.672,10,5.5V13v3v2.083l-2.416-3.304l-0.007,0.004
		C7.211,14.31,6.644,14,6,14c-1.105,0-1.953,0.872-1.953,1.976c0,0.331,0.084,0.631,0.222,0.898l-0.006,0.003l0.085,0.144
		c0.013,0.02,0.023,0.042,0.036,0.062L6.109,20l3.722,6.087C10.557,27.275,11.85,28,13.243,28H21c2.209,0,4-1.791,4-4v-3.192V20v-4
		v-3V8.5C25,7.672,24.328,7,23.5,7z"/>
</g>
<g id="mask">
</g>
<g id="line">
</g>
</svg>
