<?xml version="1.0" encoding="utf-8"?>
<!-- Generator: Adobe Illustrator 23.0.3, SVG Export Plug-In . SVG Version: 6.00 Build 0)  -->
<svg version="1.1" id="Layer_1" xmlns="http://www.w3.org/2000/svg" xmlns:xlink="http://www.w3.org/1999/xlink" x="0px" y="0px"
	 viewBox="0 0 40 40" style="enable-background:new 0 0 40 40;" xml:space="preserve">
<style type="text/css">
	.st0{fill:#F5CE85;stroke:#967A44;stroke-miterlimit:10;}
	.st1{fill:#36404D;}
	.st2{fill:#F78F8F;}
	.st3{fill:#C74343;}
	.st4{fill:#BAE0BD;stroke:#5E9C76;stroke-miterlimit:10;}
	.st5{fill:#D9E7F5;}
	.st6{fill:#788B9C;}
</style>
<path class="st0" d="M6.1,29l2.5-2.4l5.1,4.4l-2.8,2.8l-8.5,3.8L6.1,29z"/>
<path class="st1" d="M3.8,33.1l-2.3,5.4l5.4-2.3L3.8,33.1z"/>
<path class="st2" d="M30,5.3L32.2,3c0.6-0.6,1.5-1,2.4-1s1.8,0.4,2.4,1c1.3,1.3,1.3,3.5,0,4.8L34.7,10L30,5.3z"/>
<path class="st3" d="M34.6,2.5c0.8,0,1.5,0.3,2,0.8s0.8,1.3,0.8,2c0,0.8-0.3,1.5-0.8,2l-1.9,1.9l-4.1-4.1l1.9-1.9
	C33.1,2.8,33.9,2.5,34.6,2.5 M34.6,1.5c-1,0-2,0.4-2.7,1.1l-2.6,2.6l5.5,5.5l2.6-2.6c1.5-1.5,1.5-4,0-5.5l0,0
	C36.6,1.9,35.6,1.5,34.6,1.5L34.6,1.5z"/>
<path class="st4" d="M11.4,33.3c-0.1-0.2-0.2-0.3-0.3-0.5c-0.3-0.4-0.8-0.6-1.3-0.7c-0.2-1.3-1.2-1.8-2-2c-0.1-0.9-0.7-1.4-1.2-1.6
	L28.4,6.8l4.8,4.8L11.4,33.3z"/>
<g>
	<path class="st5" d="M27.9,7.3l3.5-3.5l4.8,4.8l-3.5,3.5L27.9,7.3z"/>
	<path class="st6" d="M31.4,4.5l4.1,4.1l-2.8,2.8l-4.1-4.1L31.4,4.5 M31.4,3.1l-4.2,4.2l5.5,5.5l4.2-4.2L31.4,3.1L31.4,3.1z"/>
</g>
</svg>
