<?xml version="1.0" encoding="utf-8"?>
<!-- Generator: Adobe Illustrator 24.0.1, SVG Export Plug-In . SVG Version: 6.00 Build 0)  -->
<svg version="1.1" id="Layer_1" xmlns="http://www.w3.org/2000/svg" xmlns:xlink="http://www.w3.org/1999/xlink" x="0px" y="0px"
	 viewBox="0 0 48 48" style="enable-background:new 0 0 48 48;" xml:space="preserve">
<style type="text/css">
	.st0{fill:#009688;}
</style>
<path class="st0" d="M46.6,30.8C46.3,30.4,39.8,22,24,22S1.7,30.4,1.4,30.8c-0.6,0.8-0.5,1.9,0.2,2.6l5,5C7,38.8,7.5,39,8,39
	s1-0.2,1.4-0.6L15,33v-5.8c2.5-0.7,5.5-1.2,9-1.2s6.5,0.5,9,1.2V33l5.6,5.4C39,38.8,39.5,39,40,39s1-0.2,1.4-0.6l5-5
	C47.1,32.7,47.2,31.6,46.6,30.8z"/>
</svg>
