<?xml version="1.0" encoding="iso-8859-1"?>
<!-- Generator: Adobe Illustrator 23.0.3, SVG Export Plug-In . SVG Version: 6.00 Build 0)  -->
<svg version="1.1" id="layers_1" xmlns="http://www.w3.org/2000/svg" xmlns:xlink="http://www.w3.org/1999/xlink" x="0px" y="0px"
	 viewBox="0 0 40 40" style="enable-background:new 0 0 40 40;" xml:space="preserve">
<path style="fill:#B0C1D4;" d="M12.134,37.5c-1.452,0-2.634-1.182-2.634-2.634V5.134c0-1.452,1.182-2.634,2.634-2.634h15.732
	c1.452,0,2.634,1.182,2.634,2.634v29.732c0,1.452-1.182,2.634-2.634,2.634H12.134z"/>
<path style="fill:#66798F;" d="M27.866,3C29.043,3,30,3.957,30,5.134v29.732C30,36.043,29.043,37,27.866,37H12.134
	C10.957,37,10,36.043,10,34.866V5.134C10,3.957,10.957,3,12.134,3H27.866 M27.866,2H12.134C10.403,2,9,3.403,9,5.134v29.732
	C9,36.597,10.403,38,12.134,38h15.732C29.597,38,31,36.597,31,34.866V5.134C31,3.403,29.597,2,27.866,2L27.866,2z"/>
<path style="fill:#F2FAFF;" d="M9.5,6.5h21v27h-21V6.5z"/>
<path style="fill:#66798F;" d="M30,7v26H10V7H30 M31,6H9v28h22V6L31,6z M20,4c-0.276,0-0.5,0.224-0.5,0.5S19.724,5,20,5
	s0.5-0.224,0.5-0.5S20.276,4,20,4z"/>
<path style="fill:none;stroke:#66798F;" d="M18,35.5h4"/>
</svg>
