<svg xmlns="http://www.w3.org/2000/svg" viewBox="0 0 48 48" width="48px" height="48px"><path fill="#2196f3" d="M39,7H29c-1.105,0-2,0.895-2,2v12l3-3h9c1.105,0,2-0.895,2-2V9C41,7.895,40.105,7,39,7z"/><path fill="#009688" d="M6.995,8.853l0.038,3.744c0.135,13.188,17.049,28.249,28.365,28.365L39.143,41 c1.034,0.01,1.863-0.819,1.853-1.853L41,31.891c-0.011-1.034-0.857-1.88-1.891-1.891H31l-4.139,4.306 c-2.642-0.027-13.145-10.531-13.172-13.172L18,17V8.891C17.989,7.857,17.143,7.011,16.109,7H8.848 C7.814,6.99,6.985,7.819,6.995,8.853z"/></svg>