<?xml version="1.0" encoding="utf-8"?>
<!-- Generator: Adobe Illustrator 23.0.3, SVG Export Plug-In . SVG Version: 6.00 Build 0)  -->
<svg version="1.1" id="Layer_1" xmlns="http://www.w3.org/2000/svg" xmlns:xlink="http://www.w3.org/1999/xlink" x="0px" y="0px"
	 viewBox="0 0 40 40" style="enable-background:new 0 0 40 40;" xml:space="preserve">
<style type="text/css">
	.st0{fill:#C5D4DE;}
	.st1{fill:#788B9C;}
	.st2{fill:#E1EBF2;}
	.st3{fill:#FFFFFF;}
	.st4{fill:#FFC49C;}
	.st5{fill:#A16A4A;}
	.st6{fill:#E09367;}
</style>
<path class="st0" d="M10.5,10.5h27v27h-27V10.5z"/>
<path class="st1" d="M37,11v26H11V11H37 M38,10H10v28h28V10L38,10z"/>
<path class="st2" d="M6.5,6.5h27v27h-27V6.5z"/>
<path class="st1" d="M33,7v26H7V7H33 M34,6H6v28h28V6L34,6z"/>
<path class="st3" d="M2.5,2.5h27v27h-27V2.5z"/>
<path class="st1" d="M29,3v26H3V3H29 M30,2H2v28h28V2L30,2z"/>
<path class="st4" d="M5.5,5.5h21v18h-21V5.5z"/>
<path class="st5" d="M26,6v17H6V6H26 M27,5H5v19h22V5L27,5z"/>
<path class="st5" d="M19,14l-3,3l6,6h4v-2L19,14z"/>
<path class="st3" d="M21,8c-1.1,0-2,0.9-2,2s0.9,2,2,2s2-0.9,2-2S22.1,8,21,8z"/>
<path class="st6" d="M22,23H6v-4l6-6L22,23z"/>
</svg>
