<?xml version="1.0" encoding="utf-8"?>
<!-- Generator: Adobe Illustrator 24.0.1, SVG Export Plug-In . SVG Version: 6.00 Build 0)  -->
<svg version="1.1" id="Layer_1" xmlns="http://www.w3.org/2000/svg" xmlns:xlink="http://www.w3.org/1999/xlink" x="0px" y="0px"
	 viewBox="0 0 48 48" style="enable-background:new 0 0 48 48;" xml:space="preserve">
<style type="text/css">
	.st0{fill:#4CAF50;}
	.st1{fill:#1B5E20;}
	.st2{fill:#FF3D00;}
	.st3{fill:#BBDEFB;}
	.st4{fill:#5D4037;}
	.st5{fill:#BCAAA4;}
</style>
<path class="st0" d="M1,21h34v11H1V21z"/>
<path class="st0" d="M36,21c0,1.1-0.9,2-2,2l-20,0c-1.1,0-2-0.9-2-2v-8c0-1.1,0.9-2,2-2l13,0C30,11,36,21,36,21z"/>
<path class="st0" d="M30,30c0,1.1,0.9,2,2,2h13c1.1,0,2-0.9,2-2v-6c0-1.1-5-3-10-3c-4,0-7,0.9-7,2V30z"/>
<path class="st1" d="M22,21h11.7c-2.6-4.5-5.6-7.6-6.8-8H22V21z M15,13h5v8h-5V13z"/>
<path class="st2" d="M3,23H1v7h2c0.6,0,1-0.4,1-1v-5C4,23.4,3.6,23,3,23z"/>
<path class="st3" d="M43,21.8V25c0,0.6,0.4,1,1,1h3v-2C47,23.4,45.3,22.5,43,21.8z"/>
<path class="st4" d="M15,32c0,2.8-2.2,5-5,5s-5-2.2-5-5s2.2-5,5-5S15,29.2,15,32"/>
<path class="st4" d="M42,32c0,2.8-2.2,5-5,5s-5-2.2-5-5s2.2-5,5-5S42,29.2,42,32"/>
<path class="st5" d="M12,32c0,1.1-0.9,2-2,2s-2-0.9-2-2s0.9-2,2-2S12,30.9,12,32"/>
<path class="st5" d="M39,32c0,1.1-0.9,2-2,2s-2-0.9-2-2s0.9-2,2-2S39,30.9,39,32"/>
</svg>
