<?xml version="1.0" encoding="utf-8"?>
<!-- Generator: Adobe Illustrator 24.0.1, SVG Export Plug-In . SVG Version: 6.00 Build 0)  -->
<svg version="1.1" id="Layer_1" xmlns="http://www.w3.org/2000/svg" xmlns:xlink="http://www.w3.org/1999/xlink" x="0px" y="0px"
	 viewBox="0 0 40 40" style="enable-background:new 0 0 40 40;" xml:space="preserve">
<style type="text/css">
	.st0{fill:#E1EBF2;stroke:#A3B7CC;stroke-miterlimit:10;}
	.st1{fill:#F78F8F;stroke:#C74343;stroke-miterlimit:10;}
	.st2{fill:#F2FAFF;stroke:#C74343;stroke-miterlimit:10;}
</style>
<path class="st0" d="M20,37.5c-10.3,0-17.5-2.6-17.5-5s7.2-5,17.5-5s17.5,2.6,17.5,5S30.3,37.5,20,37.5z"/>
<path id="Group_2" class="st1" d="M20,33.7c-1.8-2.3-9.5-11.9-10.4-19.4c-0.1-0.5-0.1-0.9-0.1-1.3C9.5,7.2,14.2,2.5,20,2.5
	c5.8,0,10.5,4.7,10.5,10.5c0,0.4,0,0.8-0.1,1.2C29.6,21.7,21.8,31.4,20,33.7z"/>
<path class="st2" d="M20,8.5c-2.5,0-4.5,2-4.5,4.5s2,4.5,4.5,4.5s4.5-2,4.5-4.5S22.5,8.5,20,8.5z"/>
</svg>
