<?xml version="1.0" encoding="utf-8"?>
<!-- Generator: Adobe Illustrator 23.0.3, SVG Export Plug-In . SVG Version: 6.00 Build 0)  -->
<svg version="1.1" id="Layer_1" xmlns="http://www.w3.org/2000/svg" xmlns:xlink="http://www.w3.org/1999/xlink" x="0px" y="0px"
	 viewBox="0 0 40 40" style="enable-background:new 0 0 40 40;" xml:space="preserve">
<style type="text/css">
	.st0{fill:#929FB0;}
	.st1{fill:#66798F;}
	.st2{fill:#36404D;}
	.st3{fill:#B0C1D4;}
	.st4{fill:#BAE0BD;}
	.st5{fill:#5E9C76;}
	.st6{fill:#FFFFFF;}
	.st7{fill:#F78F8F;}
	.st8{fill:#FFEEA3;}
</style>
<path class="st0" d="M10.5,28.5v-23H33c0.8,0,1.5,0.7,1.5,1.5v20c0,0.8-0.7,1.5-1.5,1.5H10.5z"/>
<path class="st1" d="M33,6c0.6,0,1,0.4,1,1v20c0,0.6-0.4,1-1,1H11V6H33 M33,5H10v24h23c1.1,0,2-0.9,2-2V7C35,5.9,34.1,5,33,5L33,5z"
	/>
<path class="st2" d="M33,5v24h-2V5H33z"/>
<path class="st3" d="M9,31.5c-1.4,0-2.5-1.1-2.5-2.5V5c0-1.4,1.1-2.5,2.5-2.5h20c1.4,0,2.5,1.1,2.5,2.5v24c0,1.4-1.1,2.5-2.5,2.5H9z
	"/>
<path class="st1" d="M29,3c1.1,0,2,0.9,2,2v24c0,1.1-0.9,2-2,2H9c-1.1,0-2-0.9-2-2V5c0-1.1,0.9-2,2-2H29 M29,2H9C7.3,2,6,3.3,6,5v24
	c0,1.7,1.3,3,3,3h20c1.7,0,3-1.3,3-3V5C32,3.3,30.7,2,29,2L29,2z"/>
<path class="st4" d="M10.5,6.5h17v5h-17V6.5z"/>
<path class="st5" d="M27,7v4H11V7H27 M28,6H10v6h18V6L28,6z"/>
<path class="st6" d="M10,14h2v2h-2V14z M14,14h2v2h-2V14z M18,14h2v2h-2V14z M10,18h2v2h-2V18z M14,18h2v2h-2V18z M18,18h2v2h-2V18z
	 M10,22h2v2h-2V22z M14,22h2v2h-2V22z M18,22h2v2h-2V22z M10,26h2v2h-2V26z M14,26h2v2h-2V26z M18,26h2v2h-2V26z M22,14h2v2h-2V14z
	 M22,18h2v2h-2V18z M22,22h2v2h-2V22z M22,26h2v2h-2V26z"/>
<path class="st7" d="M26,14h2v2h-2V14z"/>
<path class="st8" d="M26,18h2v2h-2V18z"/>
<path class="st4" d="M26,22h2v2h-2V22z"/>
<path class="st6" d="M26,26h2v2h-2V26z"/>
</svg>
