<?xml version="1.0" encoding="utf-8"?>
<!-- Generator: Adobe Illustrator 24.0.1, SVG Export Plug-In . SVG Version: 6.00 Build 0)  -->
<svg version="1.1" id="Layer_1" xmlns="http://www.w3.org/2000/svg" xmlns:xlink="http://www.w3.org/1999/xlink" x="0px" y="0px"
	 viewBox="0 0 48 48" style="enable-background:new 0 0 48 48;" xml:space="preserve">
<style type="text/css">
	.st0{fill:#F44336;}
	.st1{fill:#FFCDD2;}
</style>
<path class="st0" d="M24,4C13,4,4,13,4,24s9,20,20,20s20-9,20-20S35,4,24,4z"/>
<path class="st1" d="M33,14.7l-2.6,3C32,19.3,33,21.5,33,24c0,5-4,9-9,9s-9-4-9-9c0-2.5,1-4.7,2.6-6.3l-2.6-3c-2.4,2.4-4,5.7-4,9.3
	c0,7.2,5.8,13,13,13s13-5.8,13-13C37,20.3,35.5,17,33,14.7z"/>
<path class="st1" d="M22,11h4v12h-4V11z"/>
</svg>
