<?xml version="1.0" encoding="iso-8859-1"?>
<!-- Generator: Adobe Illustrator 24.0.2, SVG Export Plug-In . SVG Version: 6.00 Build 0)  -->
<svg version="1.1" id="Layer_1" xmlns="http://www.w3.org/2000/svg" xmlns:xlink="http://www.w3.org/1999/xlink" x="0px" y="0px"
	 viewBox="0 0 30 30" style="enable-background:new 0 0 30 30;" xml:space="preserve">
<path d="M10,4H6C4.895,4,4,4.895,4,6v4c0,1.105,0.895,2,2,2h4c1.105,0,2-0.895,2-2V6C12,4.895,11.105,4,10,4z M10,10H6V6h4V10z M9,9
	H7V7h2V9z M10,18H6c-1.105,0-2,0.895-2,2v4c0,1.105,0.895,2,2,2h4c1.105,0,2-0.895,2-2v-4C12,18.895,11.105,18,10,18z M10,24H6v-4h4
	V24z M9,23H7v-2h2V23z M24,4h-4c-1.105,0-2,0.895-2,2v4c0,1.105,0.895,2,2,2h4c1.105,0,2-0.895,2-2V6C26,4.895,25.105,4,24,4z
	 M24,10h-4V6h4V10z M23,9h-2V7h2V9z M14,6h2v2h-2V6z M14,10h2v2h-2V10z M14,14h2v2h-2V14z M10,14h2v2h-2V14z M6,14h2v2H6V14z M18,14
	h2v2h-2V14z M22,14h2v2h-2V14z M16,16h2v2h-2V16z M20,16h2v2h-2V16z M18,18h2v2h-2V18z M14,18h2v2h-2V18z M16,20h2v2h-2V20z M18,22
	h2v2h-2V22z M16,24h2v2h-2V24z M24,16h2v2h-2V16z M24,20h2v2h-2V20z M20,20h2v2h-2V20z M20,24h2v2h-2V24z M22,22h2v2h-2V22z M22,18
	h2v2h-2V18z M14,22h2v2h-2V22z"/>
</svg>
