<?xml version="1.0" encoding="utf-8"?>
<!-- Generator: Adobe Illustrator 24.0.1, SVG Export Plug-In . SVG Version: 6.00 Build 0)  -->
<svg version="1.1" id="Layer_1" xmlns="http://www.w3.org/2000/svg" xmlns:xlink="http://www.w3.org/1999/xlink" x="0px" y="0px"
	 viewBox="0 0 24 24" style="enable-background:new 0 0 24 24;" xml:space="preserve">
<style type="text/css">
	.st0{fill:none;stroke:#000000;stroke-width:2;stroke-miterlimit:10;}
	.st1{enable-background:new    ;}
</style>
<path class="st0" d="M16.5,4C19,4,21,6,21,8.5c0,3.4-3.9,6.9-5.5,8.4c-0.2,0.2-0.3,0.3-0.4,0.4c-1,0.9-2.3,2.1-3,2.8
	c-0.8-0.7-2-1.8-3-2.8C9,17.2,8.8,17,8.7,16.9C6.9,15.4,3,11.9,3,8.5C3,6,5,4,7.5,4c2.3,0,3.7,1.6,3.7,1.7l0.8,1l0.8-1
	C12.8,5.6,14.2,4,16.5,4"/>
<path class="st1" d="M16.5,4C19,4,21,6,21,8.5c0,3.4-3.9,6.9-5.5,8.4c-0.2,0.2-0.3,0.3-0.4,0.4c-1,0.9-2.3,2.1-3,2.8
	c-0.8-0.7-2-1.8-3-2.8C9,17.2,8.8,17,8.7,16.9C6.9,15.4,3,11.9,3,8.5C3,6,5,4,7.5,4c2.3,0,3.7,1.6,3.7,1.7l0.8,1l0.8-1
	C12.8,5.6,14.2,4,16.5,4"/>
</svg>
