<?xml version="1.0" encoding="utf-8"?>
<!-- Generator: Adobe Illustrator 24.0.1, SVG Export Plug-In . SVG Version: 6.00 Build 0)  -->
<svg version="1.1" id="Layer_1" xmlns="http://www.w3.org/2000/svg" xmlns:xlink="http://www.w3.org/1999/xlink" x="0px" y="0px"
	 viewBox="0 0 48 48" style="enable-background:new 0 0 48 48;" xml:space="preserve">
<path style="fill:#3498DB;" d="M42,42H6V6h31l5,5V42z"/>
<path style="fill:#FFFFFF;" d="M39,39c0,0.6-0.4,1-1,1H10c-0.6,0-1-0.4-1-1V25c0-0.6,0.4-1,1-1h28c0.6,0,1,0.4,1,1V39z"/>
<rect x="13" y="31" style="fill:#CFD8DC;" width="22" height="2"/>
<rect x="13" y="27" style="fill:#CFD8DC;" width="22" height="2"/>
<rect x="13" y="35" style="fill:#CFD8DC;" width="22" height="2"/>
<path style="fill:#2980B9;" d="M9,6v10c0,1.1,0.9,2,2,2h15c1.1,0,2-0.9,2-2V6H9z"/>
<path style="fill:#B0BEC5;" d="M15,6v10c0,1.1,0.9,2,2,2h15c1.1,0,2-0.9,2-2V6H15z"/>
<path style="fill:#263238;" d="M26,8h4v8h-4V8z"/>
</svg>
