<?xml version="1.0" encoding="utf-8"?>
<!-- Generator: Adobe Illustrator 24.0.1, SVG Export Plug-In . SVG Version: 6.00 Build 0)  -->
<svg version="1.1" id="Layer_1" xmlns="http://www.w3.org/2000/svg" xmlns:xlink="http://www.w3.org/1999/xlink" x="0px" y="0px"
	 viewBox="0 0 48 48" style="enable-background:new 0 0 48 48;" xml:space="preserve">
<style type="text/css">
	.st0{fill:#616161;}
	.st1{fill:#FFA000;}
	.st2{fill:#FFCA28;}
	.st3{fill:#64B5F6;}
	.st4{fill:#37474F;}
	.st5{fill:#BBDEFB;}
</style>
<path class="st0" d="M36.9,38.7l1.8-1.8l9.3,9.3L46.2,48L36.9,38.7z"/>
<path class="st1" d="M40,12H22l-4-4H8c-2.2,0-4,1.8-4,4v8h40v-4C44,13.8,42.2,12,40,12z"/>
<path class="st2" d="M40,12H8c-2.2,0-4,1.8-4,4v20c0,2.2,1.8,4,4,4h32c2.2,0,4-1.8,4-4V16C44,13.8,42.2,12,40,12z"/>
<path class="st0" d="M35,25c-5.5,0-10,4.5-10,10s4.5,10,10,10s10-4.5,10-10S40.5,25,35,25z"/>
<path class="st3" d="M35,27c-4.4,0-8,3.6-8,8s3.6,8,8,8s8-3.6,8-8S39.4,27,35,27z"/>
<path class="st4" d="M42.3,44.1l1.8-1.8l3.9,3.9L46.2,48L42.3,44.1z"/>
<path class="st5" d="M39,33c-0.3,0-0.6-0.1-0.8-0.4c-0.8-1-1.9-1.6-3.2-1.6s-2.4,0.6-3.2,1.6c-0.3,0.4-1,0.5-1.4,0.2
	c-0.4-0.3-0.5-1-0.2-1.4c1.2-1.5,2.9-2.4,4.8-2.4s3.6,0.9,4.8,2.4c0.3,0.4,0.2,1.1-0.2,1.4C39.4,32.9,39.2,33,39,33z"/>
</svg>
