<?xml version="1.0" encoding="utf-8"?>
<!-- Generator: Adobe Illustrator 24.0.1, SVG Export Plug-In . SVG Version: 6.00 Build 0)  -->
<svg version="1.1" id="Layer_1" xmlns="http://www.w3.org/2000/svg" xmlns:xlink="http://www.w3.org/1999/xlink" x="0px" y="0px"
	 viewBox="0 0 48 48" style="enable-background:new 0 0 48 48;" xml:space="preserve">
<path style="fill:#FFA000;" d="M44.4,17.2l-2.5-1.8c0.1-0.5,0.1-1,0.1-1.5s-0.1-1-0.1-1.5l2.5-1.8c0.3-0.1,0.3-0.5,0.1-0.8l-2.3-4
	c-0.1-0.3-0.5-0.4-0.7-0.3L38.7,7c-0.8-0.6-1.6-1.1-2.6-1.5l-0.3-3.1c0-0.3-0.3-0.5-0.6-0.5h-4.6c-0.3,0-0.6,0.2-0.6,0.5l-0.3,3.1
	C28.9,5.9,28,6.4,27.3,7l-2.8-1.3c-0.3-0.2-0.6,0-0.7,0.3l-2.3,4c-0.2,0.3-0.1,0.6,0.1,0.8l2.5,1.8C24.1,13,24,13.5,24,14
	s0.1,1,0.1,1.5l-2.5,1.8c-0.3,0.1-0.3,0.5-0.1,0.8l2.3,4c0.1,0.3,0.5,0.4,0.7,0.3l2.8-1.3c0.8,0.6,1.6,1.1,2.6,1.5l0.3,3.1
	c0,0.3,0.3,0.5,0.6,0.5h4.6c0.3,0,0.6-0.2,0.6-0.5l0.3-3.1c0.9-0.4,1.8-0.8,2.6-1.5l2.8,1.3c0.3,0.2,0.6,0,0.7-0.3l2.3-4
	C44.7,17.7,44.7,17.4,44.4,17.2z M33,19c-2.8,0-5-2.2-5-5s2.2-5,5-5s5,2.2,5,5S35.8,19,33,19z"/>
<path style="fill:#E65100;" d="M28.4,36.4l-2.6-1.8c0.1-0.5,0.1-1.1,0.1-1.6c0-0.5-0.1-1-0.1-1.5l2.6-1.8c0.3-0.2,0.4-0.6,0.2-0.8
	L26,24.2c-0.1-0.3-0.6-0.4-0.8-0.2l-2.8,1.3c-0.8-0.7-1.8-1.2-2.8-1.6l-0.3-3.1c0-0.3-0.3-0.6-0.6-0.6h-5.4c-0.3,0-0.6,0.3-0.6,0.6
	l-0.3,3.1c-1,0.4-1.9,0.9-2.8,1.6L6.9,24c-0.3-0.1-0.7,0-0.8,0.2l-2.7,4.7c-0.2,0.3,0,0.7,0.2,0.8l2.6,1.8C6.1,32,6,32.5,6,33
	c0,0.6,0.1,1.1,0.1,1.6l-2.6,1.8c-0.3,0.2-0.4,0.6-0.2,0.8L6,41.9c0.1,0.3,0.6,0.4,0.8,0.2l2.9-1.3c0.8,0.6,1.7,1.2,2.7,1.5l0.3,3.2
	c0,0.3,0.3,0.6,0.6,0.6h5.4c0.3,0,0.6-0.3,0.6-0.6l0.3-3.2c1-0.4,1.9-0.9,2.7-1.5l2.9,1.3c0.3,0.1,0.7,0,0.8-0.2l2.7-4.7
	C28.8,37,28.7,36.6,28.4,36.4z M16,38c-2.8,0-5-2.2-5-5s2.2-5,5-5s5,2.2,5,5S18.8,38,16,38z"/>
</svg>
