<?xml version="1.0" encoding="utf-8"?>
<!-- Generator: Adobe Illustrator 24.0.1, SVG Export Plug-In . SVG Version: 6.00 Build 0)  -->
<svg version="1.1" id="Layer_1" xmlns="http://www.w3.org/2000/svg" xmlns:xlink="http://www.w3.org/1999/xlink" x="0px" y="0px"
	 viewBox="0 0 24 24" style="enable-background:new 0 0 24 24;" xml:space="preserve">
<style type="text/css">
	.st0{enable-background:new    ;}
</style>
<path d="M12,1L3,5c0,0,0,4,0,6c0,7.8,6.4,11.5,9,12c2.6-0.5,9-4.2,9-12c0-2,0-6,0-6L12,1z M19,11c0,6.1-4.8,9.3-7,9.9
	c-2.2-0.7-7-3.8-7-9.9V6.3l7-3.1l7,3.1V11z"/>
<path class="st0" d="M12,2L4,5.5v5.4c0,7,5.5,10.5,8,11.3c2.5-0.7,8-4.3,8-11.3V5.5L12,2z M16,14.6L14.6,16L12,13.5L9.5,16l-1.4-1.4
	l2.5-2.5L8.1,9.5l1.4-1.4l2.5,2.5l2.5-2.5L16,9.5L13.5,12L16,14.6z"/>
</svg>
