<?xml version="1.0" encoding="iso-8859-1"?>
<!-- Generator: Adobe Illustrator 23.1.0, SVG Export Plug-In . SVG Version: 6.00 Build 0)  -->
<svg version="1.1" id="Layer_1" xmlns="http://www.w3.org/2000/svg" xmlns:xlink="http://www.w3.org/1999/xlink" x="0px" y="0px"
	 viewBox="0 0 30 30" style="enable-background:new 0 0 30 30;" xml:space="preserve">
<path d="M15,23c-1.105,0-2,0.895-2,2s0.895,2,2,2s2-0.895,2-2S16.105,23,15,23z M24,4c-1.105,0-2,0.895-2,2s0.895,2,2,2s2-0.895,2-2
	S25.105,4,24,4z M6,4C4.895,4,4,4.895,4,6s0.895,2,2,2s2-0.895,2-2S7.105,4,6,4z"/>
<path d="M24.388,4.038C24.388,4.038,19.602,3,15,3S5.612,4.038,5.612,4.038L4,6v6c0,10.398,10.021,14.745,10.021,14.745h1.957
	C15.979,26.745,26,22.398,26,12V6L24.388,4.038z M18.707,15.293c0.391,0.391,0.391,1.023,0,1.414C18.512,16.902,18.256,17,18,17
	s-0.512-0.098-0.707-0.293L15,14.414l-2.293,2.293C12.512,16.902,12.256,17,12,17s-0.512-0.098-0.707-0.293
	c-0.391-0.391-0.391-1.023,0-1.414L13.586,13l-2.293-2.293c-0.391-0.391-0.391-1.023,0-1.414s1.023-0.391,1.414,0L15,11.586
	l2.293-2.293c0.391-0.391,1.023-0.391,1.414,0s0.391,1.023,0,1.414L16.414,13L18.707,15.293z"/>
</svg>
