<?xml version="1.0" encoding="iso-8859-1"?>
<!-- Generator: Adobe Illustrator 23.0.3, SVG Export Plug-In . SVG Version: 6.00 Build 0)  -->
<svg version="1.1" id="Layer_1" xmlns="http://www.w3.org/2000/svg" xmlns:xlink="http://www.w3.org/1999/xlink" x="0px" y="0px"
	 viewBox="0 0 40 40" style="enable-background:new 0 0 40 40;" xml:space="preserve">
<path style="fill:#C2E8FF;" d="M1,6.5h22.5v25H1V6.5z"/>
<path style="fill:#8BB7F0;" d="M23.5,31.5v-19h10.761c0.554,0,1.061,0.304,1.321,0.792l3.504,6.545
	c0.271,0.506,0.414,1.077,0.414,1.651V31.5H23.5z"/>
<path style="fill:#4788C7;" d="M34.26,13c0.369,0,0.707,0.202,0.882,0.528l3.503,6.544C38.877,20.506,39,20.996,39,21.488V31H24V13
	H34.26 M34.26,12H23v20h17V21.488c0-0.659-0.163-1.307-0.473-1.888l-3.503-6.544C35.676,12.406,34.998,12,34.26,12L34.26,12z"/>
<path style="fill:#4E7AB5;" d="M34.26,13c0.369,0,0.707,0.202,0.882,0.528l3.503,6.544C38.877,20.506,39,20.996,39,21.488V31H24V13
	H34.26 M34.26,12H23v20h17V21.488c0-0.659-0.163-1.307-0.473-1.888l-3.503-6.544C35.676,12.406,34.998,12,34.26,12L34.26,12z"/>
<path style="fill:#B0C1D4;" d="M31,28.5c-1.933,0-3.5,1.567-3.5,3.5s1.567,3.5,3.5,3.5s3.5-1.567,3.5-3.5S32.933,28.5,31,28.5z"/>
<path style="fill:#66798F;" d="M31,29c1.654,0,3,1.346,3,3s-1.346,3-3,3s-3-1.346-3-3S29.346,29,31,29 M31,28c-2.209,0-4,1.791-4,4
	s1.791,4,4,4s4-1.791,4-4S33.209,28,31,28L31,28z"/>
<polygon style="fill:#7496C4;" points="1,6 1,7 23,7 23,31 2,31 2,27 1,27 1,32 24,32 24,6 "/>
<rect y="10" style="fill:#7496C4;" width="11" height="1"/>
<rect y="14" style="fill:#7496C4;" width="9" height="1"/>
<rect y="18" style="fill:#7496C4;" width="7" height="1"/>
<rect y="22" style="fill:#7496C4;" width="5" height="1"/>
<path style="fill:#B0C1D4;" d="M10,28.5c-1.933,0-3.5,1.567-3.5,3.5s1.567,3.5,3.5,3.5s3.5-1.567,3.5-3.5S11.933,28.5,10,28.5z"/>
<path style="fill:#66798F;" d="M10,29c1.654,0,3,1.346,3,3s-1.346,3-3,3s-3-1.346-3-3S8.346,29,10,29 M10,28c-2.209,0-4,1.791-4,4
	s1.791,4,4,4s4-1.791,4-4S12.209,28,10,28L10,28z"/>
<path style="fill:#FFFFFF;" d="M39,28h-1.5c-0.828,0-1.5-0.672-1.5-1.5l0,0c0-0.828,0.672-1.5,1.5-1.5H39V28z"/>
<path style="fill:#C2E8FF;" d="M34.207,22.5l-2-2H31c-0.827,0-1.5-0.673-1.5-1.5v-2c0-0.827,0.673-1.5,1.5-1.5h5.765l2.321,4.337
	c0.271,0.506,0.414,1.077,0.414,1.651V22.5H34.207z"/>
<path style="fill:#4E7AB5;" d="M36.465,16l2.18,4.072C38.877,20.506,39,20.996,39,21.488V22h-4.586l-1.707-1.707L32.414,20H32h-1
	c-0.551,0-1-0.449-1-1v-2c0-0.551,0.449-1,1-1H36.465 M37.064,15H31c-1.105,0-2,0.895-2,2v2c0,1.105,0.895,2,2,2h1l2,2h6v-1.512
	c0-0.659-0.163-1.307-0.473-1.888L37.064,15L37.064,15z"/>
</svg>
