<?xml version="1.0" encoding="iso-8859-1"?>
<!-- Generator: Adobe Illustrator 23.0.3, SVG Export Plug-In . SVG Version: 6.00 Build 0)  -->
<svg version="1.1" id="Layer_1" xmlns="http://www.w3.org/2000/svg" xmlns:xlink="http://www.w3.org/1999/xlink" x="0px" y="0px"
	 viewBox="0 0 40 40" style="enable-background:new 0 0 40 40;" xml:space="preserve">
<path style="fill:#F5CE85;stroke:#967A44;stroke-miterlimit:10;" d="M18.553,12.534l9.497-9.828l9.628,9.304l-9.497,9.828
	L18.553,12.534z"/>
<path style="fill:#F5CE85;stroke:#967A44;stroke-miterlimit:10;" d="M12.323,9.151l6.227-6.444l11.412,11.028l-6.227,6.444
	L12.323,9.151z"/>
<path style="fill:#BAE0BD;" d="M12.911,25.5L9.845,7.83l28.522,3.852L34.9,24.395c-0.178,0.651-0.772,1.105-1.447,1.105H12.911z"/>
<path style="fill:#5E9C76;" d="M10.454,8.417l27.281,3.684l-3.317,12.162C34.3,24.697,33.903,25,33.453,25H13.331L10.454,8.417
	 M9.235,7.243L12.49,26h20.963c0.902,0,1.692-0.604,1.93-1.474L39,11.263L9.235,7.243L9.235,7.243z"/>
<path style="fill:none;stroke:#66798F;" d="M3,1.5h2.119c2.093,0,3.882,1.505,4.241,3.567l4.498,25.866
	c0.359,2.062,2.148,3.567,4.241,3.567H35"/>
<path style="fill:#BAE0BD;" d="M3,1.5C2.172,1.5,1.5,2.172,1.5,3S2.172,4.5,3,4.5S4.5,3.828,4.5,3S3.828,1.5,3,1.5z"/>
<path style="fill:#5E9C76;" d="M3,2c0.551,0,1,0.449,1,1S3.551,4,3,4S2,3.551,2,3S2.449,2,3,2 M3,1C1.895,1,1,1.895,1,3s0.895,2,2,2
	s2-0.895,2-2S4.105,1,3,1L3,1z"/>
<path style="fill:#BAE0BD;stroke:#5E9C76;" d="M18.5,22v-8 M22.5,22v-8 M26.5,22v-8 M30.5,22v-8"/>
<path style="fill:#B0C1D4;" d="M31.5,34.5c-1.105,0-2,0.895-2,2s0.895,2,2,2c1.105,0,2-0.895,2-2S32.605,34.5,31.5,34.5z"/>
<path style="fill:#66798F;" d="M31.5,35c0.827,0,1.5,0.673,1.5,1.5S32.327,38,31.5,38S30,37.327,30,36.5S30.673,35,31.5,35 M31.5,34
	c-1.381,0-2.5,1.119-2.5,2.5s1.119,2.5,2.5,2.5s2.5-1.119,2.5-2.5S32.881,34,31.5,34L31.5,34z"/>
<g>
	<path style="fill:#B0C1D4;" d="M18.5,34.5c-1.105,0-2,0.895-2,2s0.895,2,2,2s2-0.895,2-2S19.605,34.5,18.5,34.5z"/>
	<path style="fill:#66798F;" d="M18.5,35c0.827,0,1.5,0.673,1.5,1.5S19.327,38,18.5,38S17,37.327,17,36.5S17.673,35,18.5,35
		 M18.5,34c-1.381,0-2.5,1.119-2.5,2.5s1.119,2.5,2.5,2.5s2.5-1.119,2.5-2.5S19.881,34,18.5,34L18.5,34z"/>
</g>
</svg>
