<?xml version="1.0" encoding="iso-8859-1"?>
<!-- Generator: Adobe Illustrator 23.1.0, SVG Export Plug-In . SVG Version: 6.00 Build 0)  -->
<svg version="1.1" id="Layer_1" xmlns="http://www.w3.org/2000/svg" xmlns:xlink="http://www.w3.org/1999/xlink" x="0px" y="0px"
	 viewBox="0 0 30 30" style="enable-background:new 0 0 30 30;" xml:space="preserve">
<path d="M16,5h-4c0-1.105,0.895-2,2-2S16,3.895,16,5z"/>
<path d="M15.513,3.692h-3.021L10,6h8L15.513,3.692z M22,5h-4c0-1.105,0.895-2,2-2S22,3.895,22,5z"/>
<path d="M21.513,3.692h-3.021L16,6h8L21.513,3.692z M22,23c-1.105,0-2,0.895-2,2s0.895,2,2,2s2-0.895,2-2S23.105,23,22,23z M12,23
	c-1.105,0-2,0.895-2,2s0.895,2,2,2s2-0.895,2-2S13.105,23,12,23z M24,20H10.5L7,9h20L24,20z"/>
<path style="fill:none;stroke:#000000;stroke-width:2;stroke-linecap:round;stroke-linejoin:round;stroke-miterlimit:10;" d="M2,3
	h1.878c0.665,0,1.251,0.438,1.439,1.077l4.261,14.488C9.828,19.415,10.609,20,11.496,20h10.976c0.902,0,1.692-0.604,1.93-1.474L27,9
	H7"/>
</svg>
