<svg fill="#000000" xmlns="http://www.w3.org/2000/svg" viewBox="0 0 32 32" width="32px" height="32px"><path fill="none" stroke="#000000" stroke-miterlimit="10" stroke-width="2" d="M22 22A2 2 0 1 0 22 26 2 2 0 1 0 22 22zM13 22A2 2 0 1 0 13 26 2 2 0 1 0 13 22z"/><path d="M10.998,10l0.497,2h13.65l-1.909,7H11.781L9.159,8.515C8.937,7.625,8.137,7,7.219,7H5C4.448,7,4,7.448,4,8c0,0.552,0.448,1,1,1h2.219l2.621,10.485c0.223,0.89,1.023,1.515,1.94,1.515h11.455c0.902,0,1.692-0.604,1.93-1.474L27.764,10H10.998z"/><path fill="none" stroke="#000000" stroke-miterlimit="10" stroke-width="2" d="M11.729 10.688L16 6.417 20.854 11.271M18.625 8.792L21 6.417 25.688 11.104"/></svg>