<?xml version="1.0" encoding="iso-8859-1"?>
<!-- Generator: Adobe Illustrator 24.0.2, SVG Export Plug-In . SVG Version: 6.00 Build 0)  -->
<svg version="1.1" id="Layer_1" xmlns="http://www.w3.org/2000/svg" xmlns:xlink="http://www.w3.org/1999/xlink" x="0px" y="0px"
	 viewBox="0 0 30 30" style="enable-background:new 0 0 30 30;" xml:space="preserve">
<path d="M23.79,11.79C25.642,11.232,27,9.534,27,7.5C27,5.015,24.985,3,22.5,3c-2.034,0-3.732,1.358-4.29,3.21L23.79,11.79z"/>
<path style="fill:none;stroke:#000000;stroke-width:2;stroke-linecap:round;stroke-linejoin:round;stroke-miterlimit:10;" d="M24,11
	l-5,16c-5,0-5.554-3.446-5.554-3.446"/>
<path style="fill:none;stroke:#000000;stroke-width:2;stroke-linecap:round;stroke-miterlimit:10;" d="M23,6L6.446,16.554
	c0,0-1.5,3.5,1,6s6,1,6,1L24,7"/>
<path style="fill:none;stroke:#000000;stroke-width:2;stroke-linecap:round;stroke-linejoin:round;stroke-miterlimit:10;" d="M19,6
	L3,11c0,5,3.446,5.554,3.446,5.554"/>
<path style="fill:none;stroke:#000000;stroke-width:2;stroke-linecap:round;stroke-miterlimit:10;" d="M13,9l1.309,2.833l4,4L21,17"
	/>
</svg>
