<?xml version="1.0" encoding="utf-8"?>
<!-- Generator: Adobe Illustrator 24.0.1, SVG Export Plug-In . SVG Version: 6.00 Build 0)  -->
<svg version="1.1" id="Layer_1" xmlns="http://www.w3.org/2000/svg" xmlns:xlink="http://www.w3.org/1999/xlink" x="0px" y="0px"
	 viewBox="0 0 24 24" style="enable-background:new 0 0 24 24;" xml:space="preserve">
<style type="text/css">
	.st0{fill:none;stroke:#000000;stroke-width:2;}
</style>
<path class="st0" d="M12,3c-5,0-9,4-9,9s4,9,9,9s9-4,9-9S17,3,12,3z"/>
<path d="M12,3c-5,0-9,4-9,9s4,9,9,9s9-4,9-9S17,3,12,3z M6,11h5c0,1.1-1.1,2-2.5,2S6,12.1,6,11z M14.7,17.5c0,0-1.5-0.5-2.6-0.5
	s-2.6,0.5-2.6,0.5l-0.6-1.9c0.1,0,1.8-0.5,3.2-0.5c1.4,0,3.1,0.5,3.2,0.5L14.7,17.5z M15.5,13c-1.4,0-2.5-0.9-2.5-2h5
	C18,12.1,16.9,13,15.5,13z"/>
</svg>
