<svg fill="#000000" xmlns="http://www.w3.org/2000/svg" viewBox="0 0 32 32" width="32px" height="32px"><path d="M21.19,19c-1.04,1.79-2.96,3-5.19,3s-4.15-1.21-5.19-3l-1.72,1c1.39,2.39,3.96,4,6.91,4s5.52-1.61,6.91-4L21.19,19z M21.19,19c-1.04,1.79-2.96,3-5.19,3s-4.15-1.21-5.19-3l-1.72,1c1.39,2.39,3.96,4,6.91,4s5.52-1.61,6.91-4L21.19,19z M16,22 c-2.23,0-4.15-1.21-5.19-3l-1.72,1c1.39,2.39,3.96,4,6.91,4s5.52-1.61,6.91-4l-1.72-1C20.15,20.79,18.23,22,16,22z M21.19,19 c-1.04,1.79-2.96,3-5.19,3s-4.15-1.21-5.19-3l-1.72,1c1.39,2.39,3.96,4,6.91,4s5.52-1.61,6.91-4L21.19,19z M21.19,19 c-1.04,1.79-2.96,3-5.19,3s-4.15-1.21-5.19-3l-1.72,1c1.39,2.39,3.96,4,6.91,4s5.52-1.61,6.91-4L21.19,19z"/><path d="M11,12c-2.094,0-3.609,1.207-3.609,1.207l1.219,1.586c0,0,1.082-0.793,2.391-0.793s2.391,0.793,2.391,0.793l1.219-1.586 C14.609,13.207,13.094,12,11,12z"/><path d="M21,12c-2.094,0-3.609,1.207-3.609,1.207l1.219,1.586c0,0,1.082-0.793,2.391-0.793s2.391,0.793,2.391,0.793l1.219-1.586 C24.609,13.207,23.094,12,21,12z"/><path d="M16,29C8.832,29,3,23.168,3,16S8.832,3,16,3s13,5.832,13,13S23.168,29,16,29z M16,5C9.935,5,5,9.935,5,16s4.935,11,11,11 s11-4.935,11-11S22.065,5,16,5z"/></svg>