<?xml version="1.0" encoding="iso-8859-1"?>
<!-- Generator: Adobe Illustrator 23.1.0, SVG Export Plug-In . SVG Version: 6.00 Build 0)  -->
<svg version="1.1" id="Layer_1" xmlns="http://www.w3.org/2000/svg" xmlns:xlink="http://www.w3.org/1999/xlink" x="0px" y="0px"
	 viewBox="0 0 30 30" style="enable-background:new 0 0 30 30;" xml:space="preserve">
<path style="fill:none;stroke:#000000;stroke-width:2;stroke-linecap:round;stroke-linejoin:round;stroke-miterlimit:10;" d="M15,4
	C8.925,4,4,8.925,4,15s4.925,11,11,11s11-4.925,11-11S21.075,4,15,4z"/>
<path d="M15,10l-4.732,3.438L12.076,19h5.848l1.808-5.562L15,10z M10.834,4.822l-0.04,0.122L15,8l4.206-3.056l-0.04-0.122
	C17.881,4.295,16.475,4,15,4S12.119,4.295,10.834,4.822z M4.033,15.817l0.104,0.075l4.206-3.056L6.736,7.893H6.608
	c-0.898,1.06-1.613,2.305-2.069,3.708S3.929,14.432,4.033,15.817z M12.388,25.683l0.104-0.075l-1.607-4.944H5.686l-0.04,0.122
	c0.73,1.182,1.694,2.247,2.887,3.114S11.038,25.353,12.388,25.683z M24.353,20.785l-0.04-0.122h-5.199l-1.607,4.944l0.104,0.075
	c1.35-0.329,2.66-0.916,3.854-1.784C22.659,23.032,23.622,21.967,24.353,20.785z M23.392,7.893h-0.128l-1.606,4.944l4.206,3.056
	l0.104-0.075c0.104-1.386-0.05-2.813-0.505-4.216C25.006,10.198,24.291,8.953,23.392,7.893z"/>
</svg>
