<?xml version="1.0" encoding="iso-8859-1"?>
<!-- Generator: Adobe Illustrator 23.1.0, SVG Export Plug-In . SVG Version: 6.00 Build 0)  -->
<svg version="1.1" id="Layer_1" xmlns="http://www.w3.org/2000/svg" xmlns:xlink="http://www.w3.org/1999/xlink" x="0px" y="0px"
	 viewBox="0 0 30 30" style="enable-background:new 0 0 30 30;" xml:space="preserve">
<path style="fill:none;stroke:#000000;stroke-width:2;stroke-linecap:round;stroke-linejoin:round;stroke-miterlimit:10;" d="
	M12,4.425C7.385,5.732,4,9.966,4,15c0,0.929,0.128,1.826,0.344,2.687"/>
<path style="fill:none;stroke:#000000;stroke-width:2;stroke-linecap:round;stroke-linejoin:round;stroke-miterlimit:10;" d="
	M25.656,17.687C25.872,16.826,26,15.929,26,15c0-5.034-3.385-9.268-8-10.575"/>
<path style="fill:none;stroke:#000000;stroke-width:2;stroke-linecap:round;stroke-linejoin:round;stroke-miterlimit:10;" d="
	M7.341,22.886C9.322,24.81,12.02,26,15,26s5.678-1.19,7.659-3.114"/>
<path d="M9.623,8.558c-0.031,0-0.062-0.001-0.094-0.004C9.185,8.521,8.882,8.312,8.728,8.002l-1.629-3.28
	c-0.157-0.315-0.136-0.69,0.055-0.986S7.65,3.241,8.03,3.278l4.005,0.144c0.373,0.013,0.707,0.233,0.867,0.57
	s0.119,0.735-0.106,1.032L10.42,8.161C10.23,8.412,9.935,8.558,9.623,8.558z"/>
<path d="M9.217,27.428c-0.017,0-0.033,0-0.049-0.001c-0.353-0.018-0.669-0.219-0.835-0.53l-1.878-3.539
	c-0.175-0.33-0.151-0.729,0.061-1.036c0.213-0.308,0.58-0.469,0.947-0.425l3.904,0.489c0.344,0.043,0.641,0.261,0.785,0.575
	c0.145,0.315,0.115,0.682-0.076,0.971l-2.026,3.05C9.864,27.261,9.551,27.428,9.217,27.428z"/>
<path d="M25.662,18.69c-0.026,0-0.053-0.001-0.08-0.003c-0.372-0.03-0.696-0.265-0.842-0.608l-1.528-3.625
	c-0.134-0.319-0.094-0.685,0.106-0.968c0.2-0.281,0.516-0.44,0.878-0.419l3.654,0.229c0.352,0.022,0.666,0.228,0.827,0.541
	s0.145,0.688-0.042,0.987l-2.126,3.396C26.326,18.515,26.005,18.69,25.662,18.69z"/>
</svg>
