<?xml version="1.0" encoding="utf-8"?>
<!-- Generator: Adobe Illustrator 23.0.3, SVG Export Plug-In . SVG Version: 6.00 Build 0)  -->
<svg version="1.1" id="Layer_1" xmlns="http://www.w3.org/2000/svg" xmlns:xlink="http://www.w3.org/1999/xlink" x="0px" y="0px"
	 viewBox="0 0 40 40" style="enable-background:new 0 0 40 40;" xml:space="preserve">
<style type="text/css">
	.st0{fill:#BAE0BD;stroke:#5E9C76;stroke-miterlimit:10;}
</style>
<path class="st0" d="M1.8,23.5c-0.2-1.2-0.3-2.3-0.3-3.5c0-4.7,1.8-9.1,5-12.6L6.8,7L4.2,4.5h8.3v8.3L9.6,9.9l-0.4,0.4
	C6.8,13,5.5,16.4,5.5,20c0,1.2,0.1,2.3,0.4,3.5H1.8z"/>
<path class="st0" d="M27.2,12.5l2.9-2.9l-0.4-0.4C27,6.8,23.6,5.5,20,5.5c-1.2,0-2.3,0.1-3.5,0.4V1.8c1.2-0.2,2.3-0.3,3.5-0.3
	c4.7,0,9.1,1.8,12.6,5L33,6.8l2.6-2.6v8.3H27.2z"/>
<path class="st0" d="M27.5,35.5v-8.3l2.9,2.9l0.4-0.4c2.4-2.7,3.8-6.1,3.8-9.7c0-1.2-0.1-2.3-0.4-3.5h4.1c0.2,1.2,0.3,2.3,0.3,3.5
	c0,4.7-1.8,9.1-5,12.6L33.3,33l2.6,2.6L27.5,35.5L27.5,35.5z"/>
<path class="st0" d="M20,38.5c-4.7,0-9.1-1.8-12.6-5L7,33.2l-2.6,2.6v-8.3h8.3l-2.9,2.9l0.4,0.4c2.7,2.4,6.1,3.8,9.7,3.8
	c1.2,0,2.3-0.1,3.5-0.4v4.1C22.3,38.4,21.2,38.5,20,38.5z"/>
</svg>
