<?xml version="1.0" encoding="utf-8"?>
<!-- Generator: Adobe Illustrator 24.0.1, SVG Export Plug-In . SVG Version: 6.00 Build 0)  -->
<svg version="1.1" id="Layer_1" xmlns="http://www.w3.org/2000/svg" xmlns:xlink="http://www.w3.org/1999/xlink" x="0px" y="0px"
	 viewBox="0 0 48 48" style="enable-background:new 0 0 48 48;" xml:space="preserve">
<path style="fill:#7CB342;" d="M24,42.1c-1.7,0-3.1-1.4-3.1-3.1c0-1.7,1.4-3.1,3.1-3.1c1.7,0,3.1,1.4,3.1,3.1
	C27.1,40.7,25.7,42.1,24,42.1z"/>
<path style="fill:#7CB342;" d="M24,13.4c-2.4,0-4.4-2-4.4-4.4c0-2.4,2-4.4,4.4-4.4c2.4,0,4.4,2,4.4,4.4C28.4,11.4,26.4,13.4,24,13.4
	z"/>
<path style="fill:#7CB342;" d="M8.4,24c0-0.3,0.3-0.6,0.6-0.6c0.3,0,0.6,0.3,0.6,0.6c0,0.3-0.3,0.6-0.6,0.6
	C8.7,24.6,8.4,24.3,8.4,24z"/>
<path style="fill:#7CB342;" d="M35,24c0-2.2,1.8-4,4-4c2.2,0,4,1.8,4,4c0,2.2-1.8,4-4,4C36.8,28,35,26.2,35,24z"/>
<path style="fill:#7CB342;" d="M37.9,37.9c-1.6,1.6-4.2,1.6-5.8,0c-1.6-1.6-1.6-4.2,0-5.8c1.6-1.6,4.2-1.6,5.8,0
	C39.5,33.7,39.5,36.3,37.9,37.9z"/>
<path style="fill:#7CB342;" d="M15.2,15.2c-1.2,1.2-3.2,1.2-4.4,0c-1.2-1.2-1.2-3.2,0-4.4c1.2-1.2,3.2-1.2,4.4,0
	C16.4,12,16.4,14,15.2,15.2z"/>
<path style="fill:#7CB342;" d="M32.2,15.8c-1.6-1.6-1.6-4.1,0-5.7c1.6-1.6,4.1-1.6,5.7,0c1.6,1.6,1.6,4.1,0,5.7
	C36.3,17.4,33.7,17.4,32.2,15.8z"/>
</svg>
