<?xml version="1.0" encoding="utf-8"?>
<!-- Generator: Adobe Illustrator 24.0.1, SVG Export Plug-In . SVG Version: 6.00 Build 0)  -->
<svg version="1.1" id="Layer_1" xmlns="http://www.w3.org/2000/svg" xmlns:xlink="http://www.w3.org/1999/xlink" x="0px" y="0px"
	 viewBox="0 0 24 24" style="enable-background:new 0 0 24 24;" xml:space="preserve">
<polygon points="17.1,9 21.3,11 22.9,7 "/>
<path d="M12,4c3.4,0,6.2,2.1,7.4,5h2.1c-1.3-4.1-5.1-7-9.5-7c-1.4,0-2.8,0.3-4.1,0.9l1,1.7C9.9,4.2,11,4,12,4z"/>
<polygon points="6.8,9.1 6.5,4.5 2.2,5.1 "/>
<path d="M5.1,16c-1.7-2.9-1.3-6.4,0.6-8.9L4.6,5.2C1.8,8.4,1.1,13.1,3.3,17C4,18.2,5,19.3,6.2,20.1l1-1.7C6.3,17.7,5.6,16.9,5.1,16z
	"/>
<polygon points="12,17.9 8.2,20.5 10.9,23.9 "/>
<path d="M18.9,16c-1.7,2.9-4.9,4.4-8,3.9l-1.1,1.8c4.1,0.9,8.6-0.9,10.8-4.8c0.7-1.2,1.1-2.6,1.3-4h-2C19.8,14.1,19.5,15.1,18.9,16z
	"/>
</svg>
