<?xml version="1.0" encoding="utf-8"?>
<!-- Generator: Adobe Illustrator 24.0.1, SVG Export Plug-In . SVG Version: 6.00 Build 0)  -->
<svg version="1.1" id="Layer_1" xmlns="http://www.w3.org/2000/svg" xmlns:xlink="http://www.w3.org/1999/xlink" x="0px" y="0px"
	 viewBox="0 0 24 24" style="enable-background:new 0 0 24 24;" xml:space="preserve">
<style type="text/css">
	.st0{enable-background:new    ;}
</style>
<path d="M23,9l-8.3-0.2L12,1L9.2,8.8L1,9l6.6,5l-2.4,8l6.8-4.7l6.8,4.7l-2.3-7.9L23,9z M12,14.9l-3.3,2.3l1.1-3.9l-3.2-2.4l4-0.1
	L12,7l1.3,3.8l4,0.1l-3.2,2.4l1.1,3.9L12,14.9z"/>
<path class="st0" d="M12,16l-4.6,3.2L9,13.8l-4.4-3.3l5.5-0.1L12,5l1.8,5.3l5.5,0.1l-4.4,3.3l1.5,5.4L12,16z"/>
</svg>
