<?xml version="1.0" encoding="utf-8"?>
<!-- Generator: Adobe Illustrator 24.0.1, SVG Export Plug-In . SVG Version: 6.00 Build 0)  -->
<svg version="1.1" id="Layer_1" xmlns="http://www.w3.org/2000/svg" xmlns:xlink="http://www.w3.org/1999/xlink" x="0px" y="0px"
	 viewBox="0 0 48 48" style="enable-background:new 0 0 48 48;" xml:space="preserve">
<style type="text/css">
	.st0{fill:#546E7A;}
	.st1{fill:#455A64;}
	.st2{fill:#EEEEEE;}
	.st3{fill:#263238;}
	.st4{fill:#00ACC1;}
	.st5{fill:#90A4AE;}
</style>
<path class="st0" d="M35.9,17.5c-0.3,0.4-1,0.5-1.4,0.1l-3.1-2.5c-0.4-0.3-0.5-1-0.1-1.4l1.9-2.3c0.3-0.4,1-0.5,1.4-0.1l3.1,2.5
	c0.4,0.3,0.5,1,0.1,1.4L35.9,17.5z"/>
<path class="st1" d="M21,9h6v4h-6V9z"/>
<path class="st2" d="M24,14.5c-7.5,0-13.5,6-13.5,13.5s6,13.5,13.5,13.5s13.5-6,13.5-13.5S31.5,14.5,24,14.5z"/>
<path class="st3" d="M21.5,28c0,1.4,1.1,2.5,2.5,2.5c1.4,0,2.5-1.2,2.5-2.6c0-1.4-1.1-2.5-2.6-2.5C22.6,25.5,21.5,26.6,21.5,28"/>
<path class="st3" d="M24,17l1.7,10.1l-3.4,0L24,17z"/>
<path class="st4" d="M23.2,28c0,0.5,0.4,0.8,0.9,0.8c0.5,0,0.8-0.4,0.8-0.9c0-0.5-0.4-0.8-0.8-0.8C23.6,27.1,23.2,27.5,23.2,28"/>
<path class="st4" d="M24,12c-8.8,0-16,7.2-16,16s7.2,16,16,16s16-7.2,16-16S32.8,12,24,12z M24,41c-7.2,0-13-5.8-13-13
	c0-7.2,5.8-13,13-13s13,5.8,13,13C37,35.2,31.2,41,24,41z"/>
<path class="st5" d="M29,9c0,0.6-0.4,1-1,1h-8c-0.6,0-1-0.4-1-1V5c0-0.6,0.4-1,1-1h8c0.6,0,1,0.4,1,1V9z"/>
</svg>
