<?xml version="1.0" encoding="utf-8"?>
<!-- Generator: Adobe Illustrator 24.0.1, SVG Export Plug-In . SVG Version: 6.00 Build 0)  -->
<svg version="1.1" id="Layer_1" xmlns="http://www.w3.org/2000/svg" xmlns:xlink="http://www.w3.org/1999/xlink" x="0px" y="0px"
	 viewBox="0 0 24 24" style="enable-background:new 0 0 24 24;" xml:space="preserve">
<style type="text/css">
	.st0{stroke:#000000;stroke-width:2;stroke-miterlimit:10;enable-background:new    ;}
	.st1{fill:none;stroke:#000000;stroke-width:2;stroke-miterlimit:10;}
</style>
<path class="st0" d="M14,20c2.2,0,4-1.8,4-4s-1.8-4-4-4h-0.1C13.4,9.7,11.4,8,9,8c-2.8,0-5,2.2-5,5c0,0.1,0,0.2,0,0.3
	C3.4,14,3,15,3,16c0,2.2,1.8,4,4,4H14z"/>
<line class="st1" x1="14" y1="2" x2="14" y2="6"/>
<line class="st1" x1="22" y1="10" x2="18" y2="10"/>
<line class="st1" x1="19.7" y1="4.3" x2="16.8" y2="7.2"/>
<line class="st1" x1="8.3" y1="4.3" x2="11.2" y2="7.2"/>
<line class="st1" x1="19.7" y1="15.7" x2="16.8" y2="12.8"/>
<path class="st1" d="M16.6,13c0.8-0.7,1.4-1.8,1.4-3c0-2.2-1.8-4-4-4c-1.6,0-2.9,0.9-3.6,2.2"/>
</svg>
