<?xml version="1.0" encoding="iso-8859-1"?>
<!-- Generator: Adobe Illustrator 24.0.3, SVG Export Plug-In . SVG Version: 6.00 Build 0)  -->
<svg version="1.1" id="Layer_1" xmlns="http://www.w3.org/2000/svg" xmlns:xlink="http://www.w3.org/1999/xlink" x="0px" y="0px"
	 viewBox="0 0 32 32" style="enable-background:new 0 0 32 32;" xml:space="preserve">
<g id="Layer_1_1_">
	<path style="fill:none;stroke:#000000;stroke-width:2;stroke-miterlimit:10;" d="M8,18c-2.209,0-4-1.791-4-4s1.791-4,4-4
		s4,1.791,4,4 M8,10V6 M0,14h4 M10.828,11.172l2.829-2.829 M2.343,19.657l2.829-2.829 M2.343,8.343l2.829,2.829"/>
	<path d="M28.966,15.416c-0.283-2.418-2.298-4.315-4.768-4.412C23.136,9.158,21.166,8,19,8c-2.583,0-4.857,1.666-5.676,4.057
		c-1.583,0.271-2.851,1.474-3.217,3.023C7.774,15.502,6,17.548,6,20c0,2.757,2.243,5,5,5h4l1-2h-5c-1.654,0-3-1.346-3-3s1.346-3,3-3
		h1v-1c0-1.103,0.897-2,1.91-2.005l1.001,0.052l0.169-0.839C15.454,11.349,17.103,10,19,10c1.605,0,3.049,0.955,3.68,2.433
		l0.289,0.678l0.897-0.095C23.91,13.009,23.954,13,24,13c1.654,0,3,1.346,3.003,2.931l-0.042,0.977l0.778,0.199
		C29.07,17.446,30,18.636,30,20c0,1.654-1.346,3-3,3h-3l-1,2h4c2.757,0,5-2.243,5-5C32,17.981,30.785,16.191,28.966,15.416z"/>
</g>
</svg>
