<?xml version="1.0" encoding="iso-8859-1"?>
<!-- Generator: Adobe Illustrator 23.1.0, SVG Export Plug-In . SVG Version: 6.00 Build 0)  -->
<svg version="1.1" id="Layer_1" xmlns="http://www.w3.org/2000/svg" xmlns:xlink="http://www.w3.org/1999/xlink" x="0px" y="0px"
	 viewBox="0 0 30 30" style="enable-background:new 0 0 30 30;" xml:space="preserve">
<style type="text/css">
	.st0{fill:none;stroke:#000000;stroke-width:2;stroke-linecap:round;stroke-miterlimit:10;}
	.st1{fill:none;stroke:#000000;stroke-width:2;stroke-miterlimit:10;}
</style>
<path class="st0" d="M19,13.26V5c0-0.552-0.448-1-1-1h-6c-0.552,0-1,0.448-1,1v8.26C9.188,14.525,8,16.622,8,19c0,3.866,3.134,7,7,7
	s7-3.134,7-7C22,16.622,20.812,14.525,19,13.26z"/>
<path class="st1" d="M15,8v10"/>
<path d="M15,15c-2.209,0-4,1.791-4,4s1.791,4,4,4s4-1.791,4-4S17.209,15,15,15z"/>
<path class="st0" d="M19,7h2 M19,11h2"/>
</svg>
