<?xml version="1.0" encoding="utf-8"?>
<!-- Generator: Adobe Illustrator 24.0.1, SVG Export Plug-In . SVG Version: 6.00 Build 0)  -->
<svg version="1.1" id="Layer_1" xmlns="http://www.w3.org/2000/svg" xmlns:xlink="http://www.w3.org/1999/xlink" x="0px" y="0px"
	 viewBox="0 0 24 24" style="enable-background:new 0 0 24 24;" xml:space="preserve">
<style type="text/css">
	.st0{fill:none;stroke:#000000;stroke-width:2;stroke-miterlimit:10;}
	.st1{enable-background:new    ;}
</style>
<path class="st0" d="M14,13.6V4c0-0.6-0.4-1-1-1h-2c-0.6,0-1,0.4-1,1v9.6c-1.2,0.7-2,2-2,3.4c0,2.2,1.8,4,4,4s4-1.8,4-4
	C16,15.5,15.2,14.2,14,13.6z"/>
<path class="st1" d="M14,13.6V8c0-0.6-0.4-1-1-1h-2c-0.6,0-1,0.4-1,1v5.6c-1.2,0.7-2,2-2,3.4c0,2.2,1.8,4,4,4s4-1.8,4-4
	C16,15.5,15.2,14.2,14,13.6z"/>
<line class="st0" x1="14" y1="7" x2="17" y2="7"/>
<line class="st0" x1="10" y1="7" x2="14" y2="7"/>
<line class="st0" x1="14" y1="11" x2="17" y2="11"/>
</svg>
