<?xml version="1.0" encoding="utf-8"?>
<!-- Generator: Adobe Illustrator 24.0.1, SVG Export Plug-In . SVG Version: 6.00 Build 0)  -->
<svg version="1.1" id="Layer_1" xmlns="http://www.w3.org/2000/svg" xmlns:xlink="http://www.w3.org/1999/xlink" x="0px" y="0px"
	 viewBox="0 0 48 48" style="enable-background:new 0 0 48 48;" xml:space="preserve">
<style type="text/css">
	.st0{fill:#FFCC80;}
	.st1{fill:#F2A25A;}
	.st2{fill:#FFEBEE;}
</style>
<path class="st0" d="M33,24v-1H21V9c0-1.1-1.1-3-3.1-3S15,8,15,9s0,17,0,17s-3.6,2.3-5,4c-1.2,1.4-1.4,3.1,0,5l2.7,3.8
	c2.9,2.9,5.9,5.2,10.1,5.2h6.8c5.1,0,9.4-4.1,9.4-9.2c0,0,0.1-4.8,0.1-10.8H33z"/>
<path class="st0" d="M21,27.1c0,1.6,1.4,2.9,3,2.9c1.7,0,3-1.3,3-2.9V6.9C27,5.3,25.6,4,24,4s-3,1.3-3,2.9V27.1z M33,30.1
	c0,1.6,1.4,2.9,3,2.9c1.7,0,3-1.3,3-2.9v-7.2c0-1.6-1.3-2.9-3-2.9c-1.6,0-3,1.3-3,2.9V30.1z"/>
<path class="st0" d="M27,29.1c0,1.6,1.4,2.9,3,2.9s3-1.3,3-2.9V8.9C33,7.3,31.6,6,30,6s-3,1.3-3,2.9V29.1z"/>
<g>
	<path class="st1" d="M15,35v-9c0,0-1.5,1-2.9,2.1L15,35z M21,9L21,9v14c0,0.6,0.4,1,1,1s1-0.4,1-1L21,9z M27.1,8.4
		c0,0.1,0,0.2,0,0.4l0,0L27,24c0,0.6,0.4,1,1,1s1-0.4,1-1L27.1,8.4z"/>
</g>
<g>
	<path class="st2" d="M15.9,9.1c0-1.2,0.9-2.1,2-2.1s2,1,2,2.1C19.9,10.3,15.9,10.3,15.9,9.1 M22,7.1C22,5.9,22.9,5,24,5s2,1,2,2.1
		C26,8.3,22,8.3,22,7.1 M28,9.1C28,7.9,28.9,7,30,7s2,1,2,2.1C32,10.3,28,10.3,28,9.1"/>
</g>
</svg>
