<svg fill="#000000" xmlns="http://www.w3.org/2000/svg" viewBox="0 0 32 32" width="32px" height="32px"><path fill="none" stroke="#000000" stroke-miterlimit="10" stroke-width="2" d="M10.003 21L10.003 16M18 15v-2c0-1.105.895-2 2-2h0c1.105 0 2 .895 2 2v2"/><path fill="none" stroke="#000000" stroke-miterlimit="10" stroke-width="2" d="M22,15v-1c0-1.105,0.895-2,2-2h0c1.105,0,2,0.895,2,2v9c0,3.314-2.686,6-6,6h-5.285c-1.726,0-3.368-0.743-4.507-2.04l-2.371-2.698c-1.067-1.214-1.123-3.013-0.134-4.292L10,17l0.003-10c0-1.105,0.895-2,2-2h0c1.105,0,2,0.895,2,2v8"/><path fill="none" stroke="#000000" stroke-miterlimit="10" stroke-width="2" d="M14.003,15V5c0-1.105,0.895-2,2-2h0c1.105,0,2,0.895,2,2v10"/></svg>