<?xml version="1.0" encoding="iso-8859-1"?>
<!-- Generator: Adobe Illustrator 23.1.0, SVG Export Plug-In . SVG Version: 6.00 Build 0)  -->
<svg version="1.1" id="Layer_1" xmlns="http://www.w3.org/2000/svg" xmlns:xlink="http://www.w3.org/1999/xlink" x="0px" y="0px"
	 viewBox="0 0 30 30" style="enable-background:new 0 0 30 30;" xml:space="preserve">
<path d="M24.986,15.5c0.612-0.456,1.014-1.178,1.014-2c0-1.381-1.119-2.5-2.5-2.5h-5.814c0,0-1.552-1.696-2.705-2.793
	C14,7.274,12.109,8.064,12.109,8.064L7.92,9.979C6.32,10.782,6.58,12.037,4.609,12H4v13h2c1.281,1.281,3.017,2,4.828,2H21
	c1.105,0,2-0.895,2-2v-1.05c1.141-0.232,2-1.24,2-2.45c0-0.64-0.248-1.218-0.644-1.66C25.313,19.489,26,18.578,26,17.5
	C26,16.678,25.598,15.956,24.986,15.5z"/>
</svg>
