<?xml version="1.0" encoding="utf-8"?>
<!-- Generator: Adobe Illustrator 24.0.1, SVG Export Plug-In . SVG Version: 6.00 Build 0)  -->
<svg version="1.1" id="Layer_1" xmlns="http://www.w3.org/2000/svg" xmlns:xlink="http://www.w3.org/1999/xlink" x="0px" y="0px"
	 viewBox="0 0 40 40" style="enable-background:new 0 0 40 40;" xml:space="preserve">
<style type="text/css">
	.st0{fill:#FFEEA3;}
	.st1{fill:#C29653;}
	.st2{fill:#FFFFFF;}
	.st3{fill:#F78F8F;stroke:#C74343;stroke-linecap:round;stroke-linejoin:round;stroke-miterlimit:10;}
	.st4{fill:none;stroke:#C74343;}
	.st5{fill:none;stroke:#C29653;}
	.st6{fill:#36404D;}
</style>
<path class="st0" d="M20,38.5C9.8,38.5,1.5,30.2,1.5,20S9.8,1.5,20,1.5S38.5,9.8,38.5,20S30.2,38.5,20,38.5z"/>
<path class="st1" d="M20,2c9.9,0,18,8.1,18,18s-8.1,18-18,18S2,29.9,2,20S10.1,2,20,2 M20,1C9.5,1,1,9.5,1,20s8.5,19,19,19
	s19-8.5,19-19S30.5,1,20,1L20,1z"/>
<path class="st2" d="M27,13.5c-1.9,0-3.5,1.6-3.5,3.5s1.6,3.5,3.5,3.5s3.5-1.6,3.5-3.5S28.9,13.5,27,13.5L27,13.5z"/>
<path class="st1" d="M27,14c1.7,0,3,1.3,3,3s-1.3,3-3,3s-3-1.3-3-3S25.3,14,27,14 M27,13c-2.2,0-4,1.8-4,4s1.8,4,4,4s4-1.8,4-4
	S29.2,13,27,13L27,13z"/>
<path class="st2" d="M13,13.5c-1.9,0-3.5,1.6-3.5,3.5s1.6,3.5,3.5,3.5s3.5-1.6,3.5-3.5S14.9,13.5,13,13.5z"/>
<path class="st1" d="M13,14c1.7,0,3,1.3,3,3s-1.3,3-3,3s-3-1.3-3-3S11.3,14,13,14 M13,13c-2.2,0-4,1.8-4,4s1.8,4,4,4s4-1.8,4-4
	S15.2,13,13,13L13,13z"/>
<path class="st3" d="M25.4,34.4c-2,0-3.6-1.6-3.6-3.5c-0.1-1.4-0.5-2.5-2.2-3.4c3.4,0,4.9-0.2,8.4-1.2c0.6,1.5,0.9,3.1,0.9,4.6
	C29,32.8,27.4,34.4,25.4,34.4z"/>
<path class="st4" d="M25.6,31c0,0,0-2.9-1-3.9"/>
<path class="st5" d="M9.1,25c0,0,4.4,2.5,10.9,2.5c3.2,0,6.9-0.4,10.9-2.5"/>
<circle id="Group_4" class="st6" cx="27" cy="17" r="1.3"/>
<circle id="Group_2" class="st6" cx="13" cy="17" r="1.3"/>
</svg>
