<?xml version="1.0" encoding="utf-8"?>
<!-- Generator: Adobe Illustrator 24.0.1, SVG Export Plug-In . SVG Version: 6.00 Build 0)  -->
<svg version="1.1" id="Layer_1" xmlns="http://www.w3.org/2000/svg" xmlns:xlink="http://www.w3.org/1999/xlink" x="0px" y="0px"
	 viewBox="0 0 48 48" style="enable-background:new 0 0 48 48;" xml:space="preserve">
<style type="text/css">
	.st0{fill:#FFC107;}
	.st1{fill:#009688;}
	.st2{fill:#5D4037;}
	.st3{fill:#BCAAA4;}
	.st4{fill:#795548;}
	.st5{fill:#4DB6AC;}
</style>
<path class="st0" d="M43,36H29V14h10.6c0.9,0,1.6,0.6,1.9,1.4L45,26v8C45,35.1,44.1,36,43,36"/>
<path class="st1" d="M29,36H5c-1.1,0-2-0.9-2-2V9c0-1.1,0.9-2,2-2h22c1.1,0,2,0.9,2,2V36z"/>
<path class="st2" d="M42,36c0,2.8-2.2,5-5,5s-5-2.2-5-5s2.2-5,5-5S42,33.2,42,36"/>
<path class="st2" d="M18,36c0,2.8-2.2,5-5,5s-5-2.2-5-5s2.2-5,5-5S18,33.2,18,36"/>
<path class="st3" d="M39,36c0,1.1-0.9,2-2,2s-2-0.9-2-2s0.9-2,2-2S39,34.9,39,36"/>
<path class="st3" d="M15,36c0,1.1-0.9,2-2,2s-2-0.9-2-2s0.9-2,2-2S15,34.9,15,36"/>
<path class="st4" d="M41,25h-7c-0.6,0-1-0.4-1-1v-7c0-0.6,0.4-1,1-1h5c0.4,0,0.8,0.3,0.9,0.7l2,6c0,0.1,0.1,0.2,0.1,0.3v1
	C42,24.6,41.6,25,41,25"/>
<path class="st5" d="M3,17h26v8H3V17z"/>
</svg>
