<?xml version="1.0" encoding="utf-8"?>
<!-- Generator: Adobe Illustrator 23.0.3, SVG Export Plug-In . SVG Version: 6.00 Build 0)  -->
<svg version="1.1" id="Layer_1" xmlns="http://www.w3.org/2000/svg" xmlns:xlink="http://www.w3.org/1999/xlink" x="0px" y="0px"
	 viewBox="0 0 24 24" style="enable-background:new 0 0 24 24;" xml:space="preserve">
<g>
	<rect x="2" y="18" width="4" height="2"/>
	<rect x="9" y="18" width="13" height="2"/>
</g>
<g>
	<rect x="2" y="4" width="9" height="2"/>
	<rect x="14" y="4" width="8" height="2"/>
</g>
<g>
	<rect x="2" y="11" width="14" height="2"/>
	<rect x="19" y="11" width="3" height="2"/>
</g>
<path d="M7,17v4c0,0.6-0.4,1-1,1H5c-0.6,0-1-0.4-1-1v-4c0-0.6,0.4-1,1-1h1C6.6,16,7,16.4,7,17z"/>
<path d="M12,3v4c0,0.6-0.4,1-1,1h-1C9.4,8,9,7.6,9,7V3c0-0.6,0.4-1,1-1h1C11.6,2,12,2.4,12,3z"/>
<path d="M17,10v4c0,0.6-0.4,1-1,1h-1c-0.6,0-1-0.4-1-1v-4c0-0.6,0.4-1,1-1h1C16.6,9,17,9.4,17,10z"/>
</svg>
