<svg fill="#000000" xmlns="http://www.w3.org/2000/svg" viewBox="0 0 32 32" width="32px" height="32px"><path fill="none" stroke="#000000" stroke-miterlimit="10" stroke-width="2" d="M28 16L23 16.025M20 16L4 16M9 24L4 24M28 8L15 8.025M12 8L4 8M28 24L12 24.025M13.975 11.025L13.025 11C12.459 11 12 10.541 12 9.975V6.025C12 5.459 12.459 5 13.025 5l.951.025C14.541 5.025 15 5.483 15 6.049V10C15 10.566 14.541 11.025 13.975 11.025zM21.975 19.025L21.025 19C20.459 19 20 18.541 20 17.975v-3.951C20 13.459 20.459 13 21.025 13l.951.025c.566 0 1.025.459 1.025 1.025V18C23 18.566 22.541 19.025 21.975 19.025zM9.975 27.025L9.025 27C8.459 27 8 26.541 8 25.975v-3.951C8 21.459 8.459 21 9.025 21l.951.025c.566 0 1.025.459 1.025 1.025V26C11 26.566 10.541 27.025 9.975 27.025z"/></svg>