<?xml version="1.0" encoding="iso-8859-1"?>
<!-- Generator: Adobe Illustrator 23.0.3, SVG Export Plug-In . SVG Version: 6.00 Build 0)  -->
<svg version="1.1" id="Layer_1" xmlns="http://www.w3.org/2000/svg" xmlns:xlink="http://www.w3.org/1999/xlink" x="0px" y="0px"
	 viewBox="0 0 40 40" style="enable-background:new 0 0 40 40;" xml:space="preserve">
<circle style="fill:#8BB7F0;stroke:#4E7AB5;stroke-miterlimit:10;" cx="20" cy="20" r="18.5"/>
<path style="fill:#FFFFFF;" d="M32,12.62c-0.882,0.391-1.999,0.758-3,0.88c1.018-0.604,2.633-1.862,3-3
	c-0.951,0.559-2.671,1.156-3.793,1.372c-0.896-0.95-2.174-1.372-3.59-1.372c-2.72,0-4.617,2.305-4.617,5v2c-4,0-7.9-3.047-10.327-6
	c-0.427,0.721-0.667,1.565-0.667,2.457c0,1.819,1.671,3.665,2.994,4.543c-0.807-0.025-2.335-0.641-3-1c0,0.016,0,0.036,0,0.057
	c0,2.367,1.661,3.974,3.912,4.422C12.501,22.092,12,22.5,10.072,22.5c0.626,1.935,3.773,2.958,5.928,3c-1.686,1.307-4.692,2-7,2
	c-0.399,0-0.615,0.022-1-0.023c2.178,1.38,5.22,2.023,8,2.023c9.057,0,14-6.918,14-13.37c0-0.212-0.007-0.922-0.018-1.13
	C30.95,14.318,31.342,13.604,32,12.62"/>
</svg>
