<?xml version="1.0" encoding="utf-8"?>
<!-- Generator: Adobe Illustrator 24.0.1, SVG Export Plug-In . SVG Version: 6.00 Build 0)  -->
<svg version="1.1" id="Layer_1" xmlns="http://www.w3.org/2000/svg" xmlns:xlink="http://www.w3.org/1999/xlink" x="0px" y="0px"
	 viewBox="0 0 40 40" style="enable-background:new 0 0 40 40;" xml:space="preserve">
<style type="text/css">
	.st0{fill:#C2E8FF;stroke:#C2E8FF;stroke-linecap:round;stroke-miterlimit:10;}
	.st1{fill:none;stroke:#7496C4;stroke-miterlimit:10;}
</style>
<path id="Group_4" class="st0" d="M23,27.5h10.5c3.3,0,6-2.7,6-6c0-2.7-1.7-4.9-4.1-5.7c0,0,0-0.2,0-0.4c-0.9-5.8-6.9-4.4-6.9-4.4
	s-0.1-0.5-0.3-1c-0.9-2.7-3.1-5.1-6.4-5.4c-4-0.4-7,2-8,5.3C7.4,9,6.5,15.5,6.5,15.5s0,0,0,0c-3.3,0-6,2.7-6,6s2.7,6,6,6h17.2"/>
<path id="Group_3" class="st1" d="M23,27.5h10.5c3.3,0,6-2.7,6-6c0-2.7-1.7-4.9-4.1-5.7c0,0,0-0.2,0-0.4c-0.9-5.8-6.9-4.4-6.9-4.4
	s-0.1-0.5-0.3-1c-0.9-2.7-3.1-5.1-6.4-5.4c-4-0.4-7,2-8,5.3C7.4,9,6.5,15.5,6.5,15.5s0,0,0,0c-3.3,0-6,2.7-6,6s2.7,6,6,6H17H23z"/>
</svg>
