<?xml version="1.0" encoding="iso-8859-1"?>
<!-- Generator: Adobe Illustrator 23.0.3, SVG Export Plug-In . SVG Version: 6.00 Build 0)  -->
<svg version="1.1" id="Layer_1" xmlns="http://www.w3.org/2000/svg" xmlns:xlink="http://www.w3.org/1999/xlink" x="0px" y="0px"
	 viewBox="0 0 40 40" style="enable-background:new 0 0 40 40;" xml:space="preserve">
<path style="fill:#BAE0BD;" d="M17.5,30.5v-19h-7.3L20,1.7l9.8,9.8h-7.3v19H17.5z"/>
<path style="fill:#5E9C76;" d="M20,2.4l8.6,8.6H23h-1v1v18h-4V12v-1h-1h-5.6L20,2.4 M20,1L9,12h8v19h6V12h8L20,1L20,1z"/>
<path style="fill:#BAE0BD;" d="M1.5,34.5h37v4h-37V34.5z"/>
<path style="fill:#5E9C76;" d="M38,35v3H2v-3H38 M39,34H1v5h38V34L39,34z"/>
</svg>
