<?xml version="1.0" encoding="utf-8"?>
<!-- Generator: Adobe Illustrator 24.0.1, SVG Export Plug-In . SVG Version: 6.00 Build 0)  -->
<svg version="1.1" id="Layer_1" xmlns="http://www.w3.org/2000/svg" xmlns:xlink="http://www.w3.org/1999/xlink" x="0px" y="0px"
	 viewBox="0 0 48 48" style="enable-background:new 0 0 48 48;" xml:space="preserve">
<path style="fill:#B3E5FC;" d="M12,17C6.5,17,2,21.5,2,27s4.5,10,10,10s10-4.5,10-10S17.5,17,12,17z"/>
<path style="fill:#B3E5FC;" d="M24,9c-6.6,0-12,5.4-12,12s5.4,12,12,12s12-5.4,12-12S30.6,9,24,9z"/>
<path style="fill:#B3E5FC;" d="M37.5,20c-4.7,0-8.5,3.8-8.5,8.5s3.8,8.5,8.5,8.5s8.5-3.8,8.5-8.5S42.2,20,37.5,20z"/>
<path style="fill:#B3E5FC;" d="M12,27h25v10H12V27z"/>
</svg>
