<?xml version="1.0" encoding="utf-8"?>
<!-- Generator: Adobe Illustrator 24.0.1, SVG Export Plug-In . SVG Version: 6.00 Build 0)  -->
<svg version="1.1" id="Layer_1" xmlns="http://www.w3.org/2000/svg" xmlns:xlink="http://www.w3.org/1999/xlink" x="0px" y="0px"
	 viewBox="0 0 24 24" style="enable-background:new 0 0 24 24;" xml:space="preserve">
<style type="text/css">
	.st0{fill:none;stroke:#000000;stroke-width:2;}
	.st1{enable-background:new    ;}
</style>
<path class="st0" d="M12,3c-5,0-9,4-9,9s4,9,9,9s9-4,9-9S17,3,12,3z"/>
<path class="st1" d="M12,3c-5,0-9,4-9,9s4,9,9,9s9-4,9-9S17,3,12,3z M8.5,8C9.3,8,10,8.7,10,9.5S9.3,11,8.5,11S7,10.3,7,9.5
	S7.7,8,8.5,8z M14,17c-0.8,0-1.5-0.3-2-0.8c-0.5,0.5-1.3,0.8-2,0.8c-1.5,0-3-1-3-3h2c0,0.3,0.1,0.6,0.3,0.8C9.5,14.9,9.7,15,10,15
	c0.2,0,1-0.1,1-1.1V13h2v0.9c0,0.4,0.1,0.7,0.3,0.9c0.2,0.2,0.4,0.3,0.7,0.3c0.2,0,1,0,1-1h2C17,16,15.5,17,14,17z M15.5,11
	c-0.8,0-1.5-0.7-1.5-1.5S14.7,8,15.5,8S17,8.7,17,9.5S16.3,11,15.5,11z"/>
</svg>
