<svg fill="#000000" xmlns="http://www.w3.org/2000/svg" viewBox="0 0 32 32" width="32px" height="32px"><path fill="none" stroke="#000000" stroke-miterlimit="10" stroke-width="2" d="M12,16h1.5c0.828,0,1.5-0.672,1.5-1.5l0,0	c0-0.828-0.672-1.5-1.5-1.5H12v7"/><path d="M14.688,16.018h-2L14,20h2L14.688,16.018z"/><polyline fill="none" stroke="#000000" stroke-miterlimit="10" stroke-width="2" points="21,13 18,13 18,19 21,19"/><line x1="21" x2="18" y1="16" y2="16" fill="none" stroke="#000000" stroke-miterlimit="10" stroke-width="2"/><path fill="none" stroke="#000000" stroke-miterlimit="10" stroke-width="2" d="M26,17.5c0,0.828-0.672,1.5-1.5,1.5h0	c-0.828,0-1.5-0.672-1.5-1.5v-3c0-0.828,0.672-1.5,1.5-1.5h0c0.828,0,1.5,0.672,1.5,1.5"/><circle cx="7" cy="16" r="2"/><rect width="28" height="14" x="2" y="9" fill="none" stroke="#000000" stroke-miterlimit="10" stroke-width="2"/></svg>