<?xml version="1.0" encoding="utf-8"?>
<!-- Generator: Adobe Illustrator 24.0.1, SVG Export Plug-In . SVG Version: 6.00 Build 0)  -->
<svg version="1.1" id="Layer_1" xmlns="http://www.w3.org/2000/svg" xmlns:xlink="http://www.w3.org/1999/xlink" x="0px" y="0px"
	 viewBox="0 0 30 30" style="enable-background:new 0 0 30 30;" xml:space="preserve">
<style type="text/css">
	.st0{fill:none;stroke:#000000;stroke-width:2;stroke-linejoin:round;stroke-miterlimit:10;}
	.st1{fill:none;stroke:#000000;stroke-width:2;stroke-linecap:round;stroke-linejoin:round;stroke-miterlimit:10;}
</style>
<path d="M19.6,13.8l-0.8-0.7l-0.5,2.3l0,0c0.1,0.1,0.2,0.1,0.3,0.2l3,1.4l0.8-1.8L19.6,13.8z"/>
<circle cx="18" cy="26" r="1"/>
<circle cx="9" cy="26" r="1"/>
<polygon points="10.8,20.1 10.4,21.4 8.1,25.6 9.8,26.6 12.8,22 "/>
<circle cx="22" cy="16" r="1"/>
<path class="st0" d="M14,17l3,4l1,5"/>
<path class="st1" d="M13.7,10.2l-3.9,1.9L8,16"/>
<path d="M16.5,3C15.1,3,14,4.1,14,5.5S15.1,8,16.5,8S19,6.9,19,5.5S17.9,3,16.5,3z M16.9,12.1L14.5,9L12,11c-0.3,1.5-0.9,5-0.9,5
	l0.9,2.4l3.9,3.1L17,26l0.8-5.5L15.9,17L16.9,12.1z"/>
<path d="M12,11.5c0,1.4,1.1,2.5,2.5,2.5c1.4,0,2.5-1.1,2.5-2.5S15.9,9,14.5,9C13.1,9,12,10.1,12,11.5z M11,16.5
	c0,1.4,1.1,2.5,2.5,2.5c1.4,0,2.5-1.1,2.5-2.5S14.9,14,13.5,14C12.1,14,11,15.1,11,16.5z"/>
<path d="M9.6,13.5l4.6-1.4l-0.7-1.9L9.6,12L9.6,13.5z"/>
</svg>
