<svg fill="#000000" xmlns="http://www.w3.org/2000/svg" viewBox="0 0 32 32" width="32px" height="32px"><path fill="none" stroke="#000000" stroke-miterlimit="10" stroke-width="2" d="M24,26H8c-1.105,0-2-0.895-2-2V8	c0-1.105,0.895-2,2-2h16c1.105,0,2,0.895,2,2v16C26,25.105,25.105,26,24,26z"/><line x1="6" x2="26" y1="11" y2="11" fill="none" stroke="#000000" stroke-miterlimit="10" stroke-width="2"/><line x1="6" x2="26" y1="16" y2="16" fill="none" stroke="#000000" stroke-miterlimit="10" stroke-width="2"/><line x1="19" x2="26" y1="21" y2="21" fill="none" stroke="#000000" stroke-miterlimit="10" stroke-width="2"/><line x1="6" x2="13" y1="21" y2="21" fill="none" stroke="#000000" stroke-miterlimit="10" stroke-width="2"/><path fill="none" stroke="#000000" stroke-miterlimit="10" stroke-width="2" d="M19,20c0,1.657-1.343,3-3,3s-3-1.343-3-3"/></svg>