<?xml version="1.0" encoding="utf-8"?>
<!-- Generator: Adobe Illustrator 24.0.1, SVG Export Plug-In . SVG Version: 6.00 Build 0)  -->
<svg version="1.1" id="Layer_1" xmlns="http://www.w3.org/2000/svg" xmlns:xlink="http://www.w3.org/1999/xlink" x="0px" y="0px"
	 viewBox="0 0 48 48" style="enable-background:new 0 0 48 48;" xml:space="preserve">
<path style="fill:#9FA8DA;" d="M12,13v25c0,2.2,1.8,4,4,4h16c2.2,0,4-1.8,4-4V13H12z"/>
<rect x="23" y="15" style="fill:#7986CB;" width="2" height="23"/>
<rect x="29" y="15" style="fill:#7986CB;" width="2" height="23"/>
<rect x="17" y="15" style="fill:#7986CB;" width="2" height="23"/>
<path style="fill:#5C6BC0;" d="M10,11h28v4H10V11z"/>
<path style="fill:#5C6BC0;" d="M21.8,13c-0.5-0.5-0.8-1.2-0.8-2c0-1.7,1.3-3,3-3c1.7,0,3,1.3,3,3c0,0.8-0.3,1.5-0.8,2h2.4
	c0.3-0.6,0.4-1.3,0.4-2c0-2.8-2.2-5-5-5c-2.8,0-5,2.2-5,5c0,0.7,0.2,1.4,0.4,2H21.8z"/>
</svg>
