<?xml version="1.0" encoding="utf-8"?>
<!-- Generator: Adobe Illustrator 23.0.3, SVG Export Plug-In . SVG Version: 6.00 Build 0)  -->
<svg version="1.1" id="Layer_1" xmlns="http://www.w3.org/2000/svg" xmlns:xlink="http://www.w3.org/1999/xlink" x="0px" y="0px"
	 viewBox="0 0 24 24" style="enable-background:new 0 0 24 24;" xml:space="preserve">
<path d="M8.3,16.3L12,20l3.7-3.7c-1-0.8-2.3-1.3-3.7-1.3S9.3,15.5,8.3,16.3z"/>
<path d="M4.7,12.7l2.1,2.1C8.3,13.7,10,13,12,13s3.7,0.7,5.1,1.9l2.1-2.1C17.3,11,14.8,10,12,10S6.7,11,4.7,12.7z"/>
<path d="M12,8c3.3,0,6.4,1.3,8.7,3.3l1.9-1.9C19.9,6.7,16.1,5,12,5S4.1,6.7,1.4,9.4l1.9,1.9C5.6,9.3,8.7,8,12,8z"/>
</svg>
