<svg fill="#000000" xmlns="http://www.w3.org/2000/svg" viewBox="0 0 32 32" width="32px" height="32px"><path d="M16 22c-.884 0-1.67.389-2.219.997L16 25.216l2.219-2.219C17.67 22.389 16.884 22 16 22zM4.589 13.805C7.494 10.844 11.534 9 16 9s8.506 1.844 11.411 4.805l1.414-1.414C25.557 9.068 21.017 7 16 7S6.443 9.068 3.175 12.391L4.589 13.805z"/><path d="M16,12c-3.639,0-6.929,1.507-9.291,3.925l1.414,1.414C10.123,15.283,12.913,14,16,14s5.877,1.283,7.877,3.338l1.414-1.414C22.929,13.507,19.639,12,16,12z"/><path d="M16,17c-2.26,0-4.301,0.946-5.757,2.459l1.413,1.413C12.75,19.722,14.291,19,16,19s3.25,0.722,4.343,1.872l1.413-1.413C20.301,17.946,18.26,17,16,17z"/></svg>