<?xml version="1.0" encoding="iso-8859-1"?>
<!-- Generator: Adobe Illustrator 23.0.3, SVG Export Plug-In . SVG Version: 6.00 Build 0)  -->
<svg version="1.1" id="Layer_1" xmlns="http://www.w3.org/2000/svg" xmlns:xlink="http://www.w3.org/1999/xlink" x="0px" y="0px"
	 viewBox="0 0 40 40" style="enable-background:new 0 0 40 40;" xml:space="preserve">
<path style="fill:#FFEEA3;" d="M19.991,38.5c-10.103,0-18.222-7.915-18.485-18.019C1.241,10.284,9.322,1.771,19.519,1.506
	c0.163-0.004,0.327-0.006,0.49-0.006c10.103,0,18.222,7.915,18.485,18.019c0.265,10.197-7.815,18.709-18.013,18.975
	C20.318,38.498,20.154,38.5,19.991,38.5z"/>
<path style="fill:#C29653;" d="M20.011,1v1l0,0c9.828,0,17.727,7.701,17.983,17.532c0.125,4.806-1.629,9.374-4.939,12.861
	s-7.78,5.476-12.586,5.601C20.309,37.998,20.149,38,19.991,38c-9.829,0-17.729-7.701-17.984-17.532
	C1.748,10.546,9.61,2.264,19.532,2.006C19.691,2.002,19.851,2,20.009,2L20.011,1 M20.009,1c-0.167,0-0.336,0.002-0.503,0.007
	C9.016,1.279,0.734,10.004,1.007,20.494C1.275,30.816,9.726,39,19.991,39c0.167,0,0.336-0.002,0.503-0.007
	c10.49-0.273,18.772-8.998,18.499-19.487C38.725,9.184,30.274,0.999,20.009,1L20.009,1z"/>
<path style="fill:#FFFFFF;stroke:#C29653;" d="M13,13.5c-1.933,0-3.5,1.567-3.5,3.5s1.567,3.5,3.5,3.5s3.5-1.567,3.5-3.5
	S14.933,13.5,13,13.5z"/>
<path style="fill:#36404D;" d="M13,15.75c-0.69,0-1.25,0.56-1.25,1.25s0.56,1.25,1.25,1.25s1.25-0.56,1.25-1.25
	S13.69,15.75,13,15.75z"/>
<path style="fill:#FFFFFF;stroke:#C29653;" d="M28,13.5c-1.933,0-3.5,1.567-3.5,3.5s1.567,3.5,3.5,3.5s3.5-1.567,3.5-3.5
	S29.933,13.5,28,13.5z"/>
<path style="fill:#36404D;" d="M28,15.75c-0.69,0-1.25,0.56-1.25,1.25s0.56,1.25,1.25,1.25s1.25-0.56,1.25-1.25
	S28.69,15.75,28,15.75z"/>
<path style="fill:none;stroke:#C29653;" d="M29.67,26.01c-1.886,2.303-4.908,4.49-9.584,4.49c-2.91,0-7.135-1.156-9.186-4.071"/>
</svg>
