<svg fill="#000000" xmlns="http://www.w3.org/2000/svg" viewBox="0 0 32 32" width="32px" height="32px"><path d="M16,14c-2.762,0-5,2.238-5,5c0,2.761,2.238,5,5,5s5-2.239,5-5C21,16.238,18.762,14,16,14z M15.813,21.333c-0.461,0-0.849-0.069-1.163-0.207v-0.903c0.328,0.201,0.676,0.301,1.046,0.301c0.687,0,0.889-0.512,0.889-0.739c0-0.475-0.335-0.712-1.006-0.712c-0.247,0-0.533,0.019-0.856,0.057l0.18-2.674h2.537v0.863H15.71l-0.067,0.959c0.172-0.013,0.32-0.02,0.445-0.02c1.304,0,1.575,0.994,1.575,1.431C17.662,20.381,17.284,21.333,15.813,21.333z"/><path fill="none" stroke="#000000" stroke-miterlimit="10" stroke-width="2" d="M15.969 7L15.969 13"/><path d="M19.469 8L16 4 12.469 8z"/><path fill="none" stroke="#000000" stroke-miterlimit="10" stroke-width="2" d="M27 12L27 27 5 27 5 12"/></svg>