<?xml version="1.0" encoding="utf-8"?>
<!-- Generator: Adobe Illustrator 24.0.1, SVG Export Plug-In . SVG Version: 6.00 Build 0)  -->
<svg version="1.1" id="Layer_1" xmlns="http://www.w3.org/2000/svg" xmlns:xlink="http://www.w3.org/1999/xlink" x="0px" y="0px"
	 viewBox="0 0 24 24" style="enable-background:new 0 0 24 24;" xml:space="preserve">
<path d="M4,12c0,3.2,1.8,5.9,4.5,7.2L4.7,8.7C4.2,9.7,4,10.8,4,12z"/>
<path d="M17.4,11c0-0.8-0.4-1.1-0.7-1.6C16.3,8.7,16,8.2,16,7.5s0.6-1.4,1.3-1.4h0.1C16,4.8,14.1,4,12,4C9.2,4,6.7,5.4,5.3,7.6
	c0.2,0,0.4,0,0.5,0C6.7,7.6,8,7.5,8,7.5c0.4,0,0.5,0.6,0.1,0.7c0,0-0.4,0.1-0.9,0.1l2.7,7.9l1.8-5.3l-1-2.7c-0.4,0-0.8-0.1-0.8-0.1
	c-0.4,0-0.4-0.7,0.1-0.7c0,0,1.3,0.1,2.1,0.1c0.8,0,2.1-0.1,2.1-0.1c0.4,0,0.5,0.6,0.1,0.7c0,0-0.4,0.1-0.9,0.1l2.9,8l0.8-2.7
	C17.1,12.5,17.4,11.7,17.4,11z"/>
<path d="M12.1,12.7l-2.4,7c0.7,0.2,1.5,0.3,2.3,0.3c0.9,0,1.8-0.2,2.7-0.5c0,0,0-0.1-0.1-0.1L12.1,12.7z"/>
<path d="M19,8.2c0,0.3,0,0.5,0.1,0.8c0,0.8-0.1,2-0.3,2.6c-0.6,1.9-2.4,7.1-2.4,7.1s0.1,0,0.2-0.1c2.1-1.4,3.4-3.8,3.4-6.6
	C20,10.6,19.6,9.3,19,8.2z"/>
<path d="M12,2C6.5,2,2,6.5,2,12s4.5,10,10,10s10-4.5,10-10S17.5,2,12,2z M12,21c-5,0-9-4-9-9s4-9,9-9s9,4,9,9S17,21,12,21z"/>
</svg>
