<?xml version="1.0" encoding="iso-8859-1"?>
<!-- Generator: Adobe Illustrator 23.0.3, SVG Export Plug-In . SVG Version: 6.00 Build 0)  -->
<svg version="1.1" id="Layer_1" xmlns="http://www.w3.org/2000/svg" xmlns:xlink="http://www.w3.org/1999/xlink" x="0px" y="0px"
	 viewBox="0 0 40 40" style="enable-background:new 0 0 40 40;" xml:space="preserve">
<path style="fill:#B6C9D6;" d="M3.499,38.5c-0.534,0-1.036-0.208-1.414-0.585S1.5,37.035,1.5,36.501s0.208-1.036,0.585-1.414
	l18.233-17.382l1.983,1.985L4.904,37.923C4.535,38.292,4.033,38.5,3.499,38.5z"/>
<path style="fill:#788B9C;" d="M20.31,18.405l1.293,1.294L4.559,37.561C4.276,37.844,3.899,38,3.499,38s-0.777-0.156-1.06-0.439
	c-0.584-0.584-0.584-1.535-0.017-2.103L20.31,18.405 M20.327,17.007L1.732,34.734c-0.976,0.976-0.976,2.558,0,3.534l0,0
	C2.22,38.756,2.859,39,3.499,39s1.279-0.244,1.767-0.732L23,19.683L20.327,17.007L20.327,17.007z"/>
<path style="fill:#D1EDFF;" d="M26,26.5c-6.893,0-12.5-5.607-12.5-12.5S19.107,1.5,26,1.5S38.5,7.107,38.5,14S32.893,26.5,26,26.5z"
	/>
<path style="fill:#788B9C;" d="M26,2c6.617,0,12,5.383,12,12s-5.383,12-12,12s-12-5.383-12-12S19.383,2,26,2 M26,1
	c-7.18,0-13,5.82-13,13s5.82,13,13,13s13-5.82,13-13S33.18,1,26,1L26,1z"/>
<path style="fill:#36404D;" d="M25,8h2v12h-2V8z"/>
<path style="fill:#36404D;" d="M32,13v2H20v-2H32z"/>
</svg>
